<?xml version="1.0" encoding="UTF-8" standalone="no"?>
<!-- Created with Inkscape (http://www.inkscape.org/) -->

<svg
   xmlns:dc="http://purl.org/dc/elements/1.1/"
   xmlns:cc="http://creativecommons.org/ns#"
   xmlns:rdf="http://www.w3.org/1999/02/22-rdf-syntax-ns#"
   xmlns:svg="http://www.w3.org/2000/svg"
   xmlns="http://www.w3.org/2000/svg"
   xmlns:sodipodi="http://sodipodi.sourceforge.net/DTD/sodipodi-0.dtd"
   xmlns:inkscape="http://www.inkscape.org/namespaces/inkscape"
   width="34.552929mm"
   height="37.951172mm"
   viewBox="0 0 34.552929 37.951172"
   version="1.1"
   id="svg5097"
   inkscape:version="0.92.4 (5da689c313, 2019-01-14)"
   sodipodi:docname="A10.svg">
  <defs
     id="defs5091" />
  <sodipodi:namedview
     id="base"
     pagecolor="#ffffff"
     bordercolor="#666666"
     borderopacity="1.0"
     inkscape:pageopacity="0.0"
     inkscape:pageshadow="2"
     inkscape:zoom="0.35"
     inkscape:cx="-340.40179"
     inkscape:cy="-414.76186"
     inkscape:document-units="mm"
     inkscape:current-layer="layer1"
     showgrid="false"
     fit-margin-top="0"
     fit-margin-left="0"
     fit-margin-right="0"
     fit-margin-bottom="0"
     inkscape:window-width="1920"
     inkscape:window-height="1017"
     inkscape:window-x="-8"
     inkscape:window-y="-8"
     inkscape:window-maximized="1" />
  <metadata
     id="metadata5094">
    <rdf:RDF>
      <cc:Work
         rdf:about="">
        <dc:format>image/svg+xml</dc:format>
        <dc:type
           rdf:resource="http://purl.org/dc/dcmitype/StillImage" />
        <dc:title></dc:title>
      </cc:Work>
    </rdf:RDF>
  </metadata>
  <g
     inkscape:label="Layer 1"
     inkscape:groupmode="layer"
     id="layer1"
     transform="translate(-2.7521392,-1.1430852)">
    <g
       aria-label="𓀌"
       transform="matrix(0.26458333,0,0,0.26458333,6.8035714,-12.095238)"
       style="font-style:normal;font-variant:normal;font-weight:normal;font-stretch:normal;font-size:192px;line-height:1.25;font-family:sans-serif;-inkscape-font-specification:'sans-serif, Normal';font-variant-ligatures:normal;font-variant-caps:normal;font-variant-numeric:normal;font-feature-settings:normal;text-align:start;letter-spacing:0px;word-spacing:0px;writing-mode:lr-tb;text-anchor:start;fill:#000000;fill-opacity:1;stroke:none"
       id="flowRoot5642">
      <path
         d="m -0.5,97.378358 -1.3125,23.718752 q -0.65625,11.8125 -1.21875,23.71875 4.03125,10.03125 5.15625,15 1.21875,4.875 1.21875,8.625 0,4.5 -1.40625,9.09375 -1.3125,4.5 -6.5625,14.90625 l -2.71875,0.28125 q -5.15625,-10.6875 -6.5625,-16.03125 -1.40625,-5.34375 -1.40625,-10.03125 0,-3.5625 1.03125,-8.15625 1.03125,-4.6875 4.875,-13.6875 -0.28125,-18.1875 -0.65625,-35.4375 -0.375,-17.250002 -0.28125,-15.750002 l -0.5625,-29.625 q 0,-6.75 -0.09375,-12 l 1.40625,-1.78125 h 9.5625 l 1.59375,1.5 -1.5,34.96875 q 2.625,1.03125 3.46875,4.03125 7.78125,4.78125 15.46875,9.750002 7.6875,4.875 16.96875,10.96875 1.96875,-2.53125 9.65625,-12.375002 7.6875,-9.9375 22.03125,-13.96875 -0.28125,-1.21875 -0.84375,-2.53125 H 64.75 q -3,0 -4.5,-0.65625 -1.5,-0.65625 -1.5,-3 v -1.40625 q 0,-1.125 -0.375,-1.78125 -0.375,-0.1875 -1.03125,-0.1875 l -1.40625,-1.78125 q 0,-2.15625 1.5,-4.6875 1.59375,-2.53125 1.6875,-7.21875 0.09375,-4.78125 1.96875,-7.125 1.96875,-2.4375 4.5,-3.5625 2.625,-1.125 7.6875,-1.125 7.6875,0 13.21875,4.5 5.625,4.5 5.625,11.8125 0,4.5 -2.25,8.53125 -2.15625,4.03125 -5.25,7.3125 v 2.53125 q 3.9375,0.46875 7.78125,2.53125 3.9375,1.96875 6.9375,4.40625 l 2.71875,2.25 q 1.40625,1.3125 2.15625,2.53125 0.75,1.21875 4.59375,11.812502 3.84375,10.59375 6.46875,20.625 0,1.59375 -0.75,2.90625 -0.65625,1.21875 -2.53125,1.21875 -0.84375,0 -3.46875,-0.84375 Q 106,131.22211 102.625,129.81586 l -7.03125,-2.8125 -6.75,-2.53125 q -1.03125,7.3125 -1.875,14.625 -0.75,7.3125 -0.75,14.625 v 1.875 q 0,4.21875 0.75,7.96875 0.84375,3.75 0.84375,7.5 0,2.25 -0.46875,4.5 -0.46875,2.25 -1.78125,4.6875 2.4375,1.125 3.1875,3.65625 1.875,0.65625 3.65625,1.21875 l 3.65625,1.125 q 1.125,0.375 4.59375,1.3125 3.46875,0.9375 4.96875,3.9375 l -1.5,1.96875 q -14.34375,0 -19.78125,-1.96875 -5.4375,-2.0625 -14.53125,-2.0625 -4.59375,0 -16.21875,1.125 -11.625,1.125 -13.5,1.40625 H 31.1875 q -2.0625,0 -3.46875,-0.1875 -1.3125,-0.28125 -2.34375,-1.03125 l -12.375,2.25 q -0.75,0.1875 -1.6875,0.28125 -0.9375,0.1875 -1.875,0.1875 -2.0625,0 -2.71875,-1.3125 -0.65625,-1.3125 0.46875,-2.625 0.5625,-0.5625 1.59375,-0.5625 3.28125,-1.03125 6.28125,-2.25 3.09375,-1.3125 6,-3.09375 l 0.09375,-1.21875 q 0.1875,-2.8125 1.03125,-4.59375 0.84375,-1.875 3.75,-3.46875 l 2.15625,-1.21875 q 1.125,-0.5625 1.96875,-1.3125 -1.59375,-7.3125 -2.90625,-14.15625 -1.21875,-6.9375 -2.8125,-16.5 -0.75,-1.125 -0.75,-2.90625 0,-2.90625 2.25,-5.625 2.25,-2.71875 4.96875,-2.71875 2.4375,0 9.28125,4.6875 6.9375,4.6875 18.1875,19.03125 l 1.3125,1.6875 q 1.21875,-5.53125 2.53125,-10.96875 1.40625,-5.4375 1.40625,-11.0625 -2.34375,-7.3125 -3.46875,-14.90625 -1.125,-7.6875 -2.15625,-15.28125 -3.09375,3.375 -10.125,10.59375 -7.03125,7.21875 -13.125,7.21875 -2.71875,0 -10.59375,-6.28125 -7.875,-6.28125 -8.34375,-6.65625 l -7.125,-5.4375 q -3.65625,-2.718752 -7.5,-5.156252 z m 83.71875,58.125002 -1.5,-0.1875 q -0.84375,0 -3.09375,-0.0937 -6.75,0 -26.4375,8.90625 -19.6875,8.8125 -22.40625,11.53125 l 3.09375,2.625 q 1.5,1.3125 2.625,3 5.625,-1.03125 11.25,-1.96875 5.71875,-0.9375 11.34375,-0.9375 2.15625,0 4.96875,0.46875 2.90625,0.46875 5.71875,0.9375 l 5.25,1.03125 q 2.34375,0.46875 3.65625,0.46875 1.5,0 2.34375,-0.65625 0.9375,-0.65625 2.15625,-0.65625 1.40625,-2.34375 1.96875,-4.21875 0.65625,-1.96875 0.65625,-3.84375 0,-1.6875 -0.28125,-3.5625 l -0.65625,-4.2188 q -0.375,-2.0625 -0.46875,-4.125 z m -89.25,-10.6875 q 0.375,-6.1875 1.03125,-21.375 0.75,-15.28125 1.5,-26.625002 -0.5625,-0.1875 -1.78125,-0.9375 Q -6.5,95.034608 -7.25,94.284608 q 0.46875,14.437502 0.5625,32.343752 0.1875,17.90625 0.09375,18.28125 0,0.375 -1.03125,3.46875 l -1.21875,2.8125 q -1.3125,3.28125 -2.34375,7.125 -0.9375,3.75 -0.9375,8.53125 0,5.625 1.6875,11.0625 1.78125,5.34375 4.40625,10.6875 2.90625,-5.90625 4.59375,-10.21875 1.6875,-4.40625 1.6875,-9.375 0,-2.71875 -0.46875,-5.71875 -0.46875,-3 -1.59375,-6.5625 z m 64.3125,13.6875 q -6.75,-8.71875 -12.375,-14.625 -5.53125,-6 -9.09375,-8.15625 l -3.375,6.375 q 2.625,5.0625 3.84375,10.78125 1.21875,5.625 1.21875,9.84375 v 2.25 q 0,1.21875 -0.1875,2.15625 3.75,-1.5 8.90625,-3.75 z M 27.0625,188.40961 q 1.21875,0.5625 2.71875,0.75 1.59375,0.0937 3.1875,0.0937 1.96875,0 3.9375,-0.28125 l 3.1875,-0.28125 q 5.53125,-0.28125 13.59375,-1.3125 8.0625,-1.03125 15.75,-1.03125 10.03125,0 15.9375,2.15625 6,2.0625 14.90625,2.0625 l -7.3125,-1.96875 q -6.65625,-1.78125 -7.125,-3.75 -0.46875,-1.96875 -2.8125,-1.96875 -1.125,0 -2.34375,0.75 -1.21875,0.75 -2.90625,0.75 -2.34375,0 -4.6875,-0.46875 l -4.875,-1.03125 q -2.4375,-0.46875 -5.34375,-0.9375 -2.8125,-0.46875 -6.09375,-0.46875 h -1.125 l -2.53125,0.28125 q -1.875,0.1875 -5.34375,0.65625 l -9.46875,1.40625 q -0.75,0.1875 -1.59375,0.28125 -0.84375,0.0937 -1.6875,0.28125 l -1.3125,-0.375 q -1.59375,-1.78125 -3.1875,-3.46875 -1.59375,-1.6875 -3.46875,-3.28125 -1.3125,0.9375 -2.15625,2.34375 -0.75,1.40625 -0.75,4.3125 z m 34.96875,-127.406252 11.15625,3.75 q 0.65625,-1.125 1.875,-2.0625 1.3125,-0.9375 2.8125,-0.9375 1.59375,0 2.625,1.3125 1.125,1.3125 1.125,3 -0.28125,2.0625 -1.6875,3.9375 -1.3125,1.875 -1.3125,6.28125 l 4.21875,3.28125 q 2.8125,-2.53125 4.5,-6 1.78125,-3.5625 1.78125,-7.03125 0,-5.90625 -4.40625,-9.65625 -4.40625,-3.84375 -10.875,-3.84375 -5.4375,0 -8.34375,1.6875 -2.8125,1.59375 -3.46875,6.28125 z m -63.5625,-7.78125 h -6 l 0.09375,22.3125 q 0,6.09375 0.09375,12.1875 l 0.5625,0.09375 q 1.03125,0.1875 1.78125,1.03125 0.84375,0.75 1.875,1.21875 z m 34.21875,116.812502 2.4375,-1.5 q 0.1875,-1.03125 0.28125,-2.71875 v -2.8125 q 0,-4.21875 -1.21875,-9.46875 -1.125,-5.34375 -3.75,-10.59375 v -1.59375 l 3.75,-7.03125 q -0.75,-0.28125 -1.40625,-0.65625 L 31.375,133.00336 q -2.15625,0 -3.5625,1.78125 -1.3125,1.6875 -1.3125,3.65625 0,0.65625 0.28125,1.03125 0.28125,0.28125 0.375,0.65625 z m 61.59375,-65.53125 q -1.78125,0.5625 -2.90625,4.03125 -1.125,3.46875 -1.5,8.25 l 11.53125,3.1875 q -1.875,-3.9375 -3.5625,-7.78125 z M 23.125,188.03461 q -0.5625,-0.75 -0.9375,-1.5 -1.5,0.9375 -3.09375,1.6875 l -3.375,1.5 q 1.875,-0.375 3.75,-0.84375 z m 46.40625,-80.8125 q 0.75,0.46875 1.5,0.84375 l 1.40625,0.9375 q 1.03125,0.75 1.59375,1.59375 0.65625,0.75 0.65625,1.6875 0,0.1875 -0.1875,0.5625 -0.09375,0.28125 -0.5625,0.28125 -0.75,0 -1.96875,-0.5625 1.3125,1.5 3.1875,2.625 1.875,1.03125 4.3125,1.6875 l 9,4.3125 q 6.09375,2.4375 11.90625,4.6875 5.8125,2.15625 11.4375,4.125 l 0.375,-0.375 0.1875,-0.375 q 0,-2.4375 -3.46875,-12.375 -3.375,-10.03125 -7.40625,-19.218752 -6.9375,-6.28125 -10.875,-7.96875 -3.9375,-1.78125 -7.59375,-2.0625 l -1.5,-1.78125 v -3.375 q -1.40625,-0.9375 -2.71875,-1.96875 -1.3125,-1.03125 -2.625,-2.15625 l -0.5625,-1.59375 v -2.8125 q 0,-1.5 0.5625,-2.90625 0.5625,-1.40625 0.9375,-2.0625 l 0.75,-1.3125 q 0.375,-0.5625 0.75,-1.3125 0,-0.46875 -0.1875,-0.84375 l -0.375,-0.5625 q -0.1875,-0.28125 -0.5625,-0.28125 -0.65625,0 -1.3125,0.65625 -0.5625,0.65625 -0.75,1.5 l -1.96875,1.125 -11.53125,-3.9375 q 0,0.75 -0.28125,1.59375 l -0.28125,1.5 q -0.1875,0.75 -0.46875,1.5 l -1.78125,4.21875 q 1.5,0.5625 1.96875,1.96875 0.5625,1.3125 0.5625,3.28125 v 1.125 q 1.21875,0.375 2.25,0.5625 1.125,0.09375 2.0625,0.09375 h 1.5 q 0.84375,0 1.5,0.65625 0.65625,0.65625 1.96875,5.15625 l -1.03125,1.96875 q -7.5,2.15625 -12,4.6875 -4.5,2.4375 -8.34375,6.46875 -3.84375,4.031252 -7.03125,8.625002 l -5.0625,6.9375 -2.25,0.1875 q -6.65625,-4.5 -13.6875,-9 -6.9375,-4.5 -14.8125,-9.375002 l -2.53125,-1.5 q -3.5625,-2.0625 -3.5625,-2.90625 0,-0.84375 -0.75,-1.59375 l -0.28125,1.875 -1.40625,1.3125 q -1.21875,0 -2.53125,-0.84375 L -5.75,91.659608 v 0.1875 q 0.65625,0.65625 1.78125,1.40625 1.125,0.75 2.15625,1.125 l 2.25,-0.09375 q 1.40625,0 3,1.03125 1.59375,0.9375 4.3125,2.90625 l 5.15625,3.843752 q 5.53125,4.125 10.59375,8.25 5.0625,4.125 11.34375,7.59375 5.15625,-0.1875 11.90625,-7.3125 6.75,-7.125 11.15625,-12.000002 l 2.53125,1.125 q 1.125,8.531252 2.4375,16.312502 1.3125,7.6875 1.5,8.53125 l 0.84375,3.5625 q 0.65625,2.8125 0.9375,3.75 0.375,0.84375 0.375,1.78125 v 0.46875 q -0.46875,7.21875 -4.40625,22.59375 l 4.3125,-1.59375 q 4.125,-1.5 7.78125,-2.0625 3.65625,-0.5625 8.90625,-0.5625 0,-5.15625 0.5625,-10.21875 0.5625,-5.0625 1.21875,-10.125 l 1.03125,-8.8125 -7.6875,-3.9375 q -3.1875,-0.28125 -6.84375,-3.1875 -3.5625,-2.90625 -3.75,-5.15625 0,-0.375 0.28125,-0.75 0.28125,-0.46875 0.84375,-1.125 l -1.3125,-0.46875 -0.9375,-1.6875 0.1875,-2.71875 1.21875,-1.5 3.375,0.75 q 2.0625,0.65625 3.5625,2.0625 1.59375,1.40625 2.625,2.8125 l 3.65625,5.34375 0.28125,0.28125 q 0.84375,0.46875 2.25,1.03125 1.40625,0.5625 3.28125,0.9375 l 0.65625,-4.5 q 0.65625,-4.125 2.4375,-6.84375 1.875,-2.8125 5.0625,-3.46875 l 1.5,1.03125 q 2.15625,4.96875 4.3125,9.9375 2.25,4.875 4.6875,9.75 l -1.96875,1.875 q -4.03125,-1.3125 -7.96875,-2.34375 -3.9375,-1.125 -7.96875,-2.15625 l -4.125,-1.21875 q -4.125,-1.875 -4.96875,-2.90625 -0.75,-1.03125 -2.15625,-3 L 76,111.34711 l -0.84375,-1.3125 q -1.21875,-1.875 -2.90625,-2.8125 -1.6875,-0.9375 -2.71875,-1.21875 z m -1.5,-39.187502 Q 64.9375,69.065858 64,69.065858 q -1.03125,0 -1.40625,-0.375 -0.28125,-0.375 -0.28125,-1.21875 0,-1.3125 1.6875,-1.3125 0.375,0 2.15625,0.75 1.875,0.65625 1.875,1.125 z"
         id="path5650"
         inkscape:connector-curvature="0" />
    </g>
  </g>
</svg>
