<?xml version="1.0" encoding="UTF-8" standalone="no"?>
<!-- Created with Inkscape (http://www.inkscape.org/) -->

<svg
   xmlns:dc="http://purl.org/dc/elements/1.1/"
   xmlns:cc="http://creativecommons.org/ns#"
   xmlns:rdf="http://www.w3.org/1999/02/22-rdf-syntax-ns#"
   xmlns:svg="http://www.w3.org/2000/svg"
   xmlns="http://www.w3.org/2000/svg"
   xmlns:sodipodi="http://sodipodi.sourceforge.net/DTD/sodipodi-0.dtd"
   xmlns:inkscape="http://www.inkscape.org/namespaces/inkscape"
   width="30.088072mm"
   height="37.951172mm"
   viewBox="0 0 30.088072 37.951172"
   version="1.1"
   id="svg5659"
   inkscape:version="0.92.4 (5da689c313, 2019-01-14)"
   sodipodi:docname="A11.svg">
  <defs
     id="defs5653" />
  <sodipodi:namedview
     id="base"
     pagecolor="#ffffff"
     bordercolor="#666666"
     borderopacity="1.0"
     inkscape:pageopacity="0.0"
     inkscape:pageshadow="2"
     inkscape:zoom="0.35"
     inkscape:cx="-391.83114"
     inkscape:cy="-386.09534"
     inkscape:document-units="mm"
     inkscape:current-layer="layer1"
     showgrid="false"
     fit-margin-top="0"
     fit-margin-left="0"
     fit-margin-right="0"
     fit-margin-bottom="0"
     inkscape:window-width="1920"
     inkscape:window-height="1017"
     inkscape:window-x="-8"
     inkscape:window-y="-8"
     inkscape:window-maximized="1" />
  <metadata
     id="metadata5656">
    <rdf:RDF>
      <cc:Work
         rdf:about="">
        <dc:format>image/svg+xml</dc:format>
        <dc:type
           rdf:resource="http://purl.org/dc/dcmitype/StillImage" />
        <dc:title></dc:title>
      </cc:Work>
    </rdf:RDF>
  </metadata>
  <g
     inkscape:label="Layer 1"
     inkscape:groupmode="layer"
     id="layer1"
     transform="translate(-16.359489,-8.7277697)">
    <g
       aria-label="ð“€"
       transform="matrix(0.26458333,0,0,0.26458333,118.68452,7.5595238)"
       style="font-style:normal;font-variant:normal;font-weight:normal;font-stretch:normal;font-size:192px;line-height:1.25;font-family:sans-serif;-inkscape-font-specification:'sans-serif, Normal';font-variant-ligatures:normal;font-variant-caps:normal;font-variant-numeric:normal;font-feature-settings:normal;text-align:start;letter-spacing:0px;word-spacing:0px;writing-mode:lr-tb;text-anchor:start;fill:#000000;fill-opacity:1;stroke:none"
       id="flowRoot6204">
      <path
         d="m -355.33398,32.165468 q 0,0.84375 0.0937,1.875 0.0937,1.03125 0.28125,1.875 l -1.125,1.5 q -0.5625,0.1875 -1.875,0.5625 -1.3125,0.28125 -3.375,0.75 -1.03125,0.28125 -2.25,0.5625 -1.125,0.28125 -2.25,0.5625 -1.125,0.28125 -2.0625,0.5625 -0.84375,0.1875 -1.40625,0.28125 l -6.1875,14.8125 q 0.46875,1.21875 1.03125,2.4375 0.46875,1.125 1.03125,2.53125 0.65625,1.3125 1.40625,2.90625 2.25,0.84375 5.34375,2.0625 3.1875,1.125 6,2.25 3.28125,1.3125 6.75,2.71875 l 10.96875,-13.21875 q 3.65625,-4.40625 6.46875,-6.84375 2.90625,-2.4375 4.78125,-3.1875 1.875,-0.75 3.84375,-1.3125 1.96875,-0.5625 4.125,-0.75 -0.1875,-0.75 -0.65625,-1.59375 -0.375,-0.84375 -1.21875,-0.84375 -0.9375,0 -2.0625,0.28125 -1.125,0.28125 -2.15625,0.28125 -1.03125,0 -1.875,-0.65625 -0.84375,-0.65625 -0.84375,-2.4375 l 0.0937,-2.625 q 0,-0.84375 -0.28125,-1.21875 -0.28125,-0.375 -1.21875,-0.375 l -1.40625,-1.78125 q 0,-2.25 1.40625,-4.96875 1.5,-2.625 1.78125,-6.75 0,-3 1.03125,-4.96875 1.125,-2.0625 3,-3.28125 1.96875,-1.3125 4.5,-1.875 2.53125,-0.5625 5.53125,-0.5625 7.875,0 12.75,3.75 4.96875,3.65625 4.96875,11.0625 0,4.5 -1.78125,8.625 -1.6875,4.03125 -4.5,7.3125 v 2.53125 q 2.53125,0.1875 3.75,0.46875 1.21875,0.28125 2.4375,1.125 l 3.46875,-7.6875 q 1.125,-2.53125 2.8125,-3.9375 1.78125,-1.40625 4.125,-1.40625 3.375,0 7.125,2.4375 3.75,2.34375 3.75,6.09375 0,2.0625 -1.21875,4.40625 l -3.09375,6 -2.71875,-1.5 3,-6.09375 q 0.65625,-1.21875 0.65625,-2.53125 0,-2.8125 -2.53125,-4.125 -2.53125,-1.40625 -4.3125,-1.40625 -1.3125,0 -2.25,0.65625 -0.84375,0.5625 -1.875,1.875 l -4.3125,8.90625 q 1.3125,1.78125 5.4375,3.84375 4.21875,2.15625 4.6875,4.40625 0.1875,1.03125 1.40625,3.75 1.21875,2.625 3.5625,6.84375 2.34375,4.21875 4.125,7.6875 1.875,3.46875 3.375,6.375 l 1.59375,3 q 0.65625,1.21875 0.65625,2.71875 0,1.5 -1.40625,2.4375 -1.3125,0.9375 -2.4375,0.9375 l -7.59375,-1.875 q -2.34375,-0.5625 -4.78125,-1.3125 -2.4375,-0.75 -5.0625,-1.6875 -5.34375,-1.875 -8.0625,-3.375 -0.46875,2.25 -0.84375,5.15625 -0.28125,2.90625 -0.5625,5.625 -0.375,3.09375 -0.5625,6.28125 l -0.75,11.812502 v 1.78125 q 0,3.65625 0.375,6.84375 0.46875,3.09375 0.46875,6.09375 0,2.25 -0.375,4.59375 -0.375,2.25 -1.5,4.6875 0.84375,0.46875 1.21875,1.125 l 0.9375,1.5 q 2.71875,1.3125 5.53125,2.34375 2.8125,0.9375 5.71875,1.875 1.875,0 3.28125,1.21875 1.5,1.125 2.34375,2.8125 l -1.5,1.96875 q -10.96875,0 -16.3125,-1.6875 -2.625,-0.84375 -5.15625,-1.3125 -2.53125,-0.5625 -4.96875,-0.5625 -4.59375,0 -7.875,0.0937 -3.1875,0 -5.8125,0.1875 -2.53125,0.0937 -4.96875,0.28125 -2.34375,0.1875 -5.25,0.46875 -5.71875,0.46875 -11.0625,0.75 -5.25,0.28125 -10.21875,0.28125 -2.25,0 -4.125,-1.3125 -2.25,0.46875 -3.75,0.84375 -1.40625,0.28125 -2.34375,0.46875 -0.9375,0.28125 -1.59375,0.375 -0.65625,0.1875 -1.3125,0.375 -2.71875,0.84375 -4.78125,0.84375 -1.78125,0 -2.71875,-0.65625 -0.84375,-0.65625 -0.84375,-1.6875 0,-0.9375 0.65625,-1.6875 0.5625,-0.5625 1.6875,-0.5625 3.09375,-1.03125 6.46875,-2.34375 3.375,-1.3125 5.8125,-3 l -0.0937,-2.4375 q 0,-3.375 3,-5.0625 3.1875,-1.59375 4.40625,-2.8125 -0.46875,-2.15625 -1.03125,-4.6875 -0.5625,-2.53125 -1.125,-5.34375 -1.125,-6 -1.78125,-9.5625 -0.65625,-3.5625 -1.125,-5.625 -0.375,-2.15625 -0.5625,-3.187502 -0.1875,-1.03125 -0.28125,-1.875 0,-3.46875 1.5,-6.5625 1.59375,-3.28125 5.15625,-3.28125 3.5625,0 8.4375,4.03125 5.0625,4.125 10.03125,11.250002 2.53125,3.5625 4.5,6.1875 1.96875,2.625 3.375,4.3125 0.75,-1.78125 1.21875,-2.71875 0.46875,-1.03125 0.9375,-1.96875 1.21875,-3.5625 2.0625,-7.875 0.84375,-4.406252 0.84375,-7.781252 0,-3.1875 -1.03125,-6 -0.28125,-0.75 -0.65625,-2.4375 -0.375,-1.78125 -0.84375,-3.75 -0.28125,-1.40625 -0.75,-3.9375 -0.46875,-2.53125 -0.9375,-5.34375 -0.46875,-2.8125 -0.9375,-5.25 -0.375,-2.53125 -0.5625,-3.84375 -7.21875,9.375 -12,12.9375 -4.6875,3.375 -8.71875,3.375 -3.28125,0 -7.3125,-2.53125 -4.21875,-2.53125 -6.84375,-4.125 -2.53125,-1.59375 -4.125,-2.625 -1.78125,-1.125 -2.71875,-1.78125 l -4.6875,-1.6875 -2.53125,6.28125 -4.5,-1.5 3.5625,-7.21875 q -0.375,-0.65625 -1.125,-2.0625 -0.65625,-1.40625 -0.9375,-2.53125 l 1.40625,-1.78125 1.40625,0.375 -2.34375,-2.34375 -0.46875,-1.40625 q 1.03125,-2.71875 2.71875,-2.71875 1.5,0 4.40625,2.4375 l 5.90625,-13.5 -3.9375,-12.84375 0.9375,-1.6875 q 3.9375,-1.96875 6.9375,-5.625 3.09375,-3.65625 5.90625,-9.09375 l 3,-5.8125003 2.15625,-0.46875 q 3,1.59375 4.125,2.15625 1.21875,0.5625 1.96875,0.9375 l 0.5625,1.6875 q -2.15625,5.0625003 -3.5625,10.4062503 -1.3125,5.25 -1.3125,10.875 z m 38.90625,38.90625 -1.3125,-0.5625 -0.9375,-1.40625 v -2.8125 q 0.1875,-0.1875 0.5625,-0.75 0.46875,-0.5625 0.84375,-0.9375 2.90625,0 4.6875,1.125 1.78125,1.125 2.0625,1.78125 l 8.71875,-18.09375 -1.03125,-0.75 q -0.75,-0.1875 -1.6875,-0.28125 -0.9375,-0.1875 -1.78125,-0.28125 -1.03125,-0.09375 -1.96875,-0.09375 l -1.5,-1.78125 v -3.65625 l -5.4375,-4.03125 -0.46875,-1.40625 q 0,-5.15625 1.21875,-6.9375 1.125,-1.78125 1.78125,-3.5625 0,-0.375 -0.28125,-0.75 -0.1875,-0.375 -0.65625,-0.375 -0.9375,0 -1.40625,0.75 l -1.03125,1.5 -1.59375,0.46875 -11.8125,-3.84375 -0.28125,2.625 -2.53125,6.1875 q 1.03125,0.1875 1.875,1.125 0.84375,0.84375 0.84375,1.96875 v 3.46875 q 0,0.46875 0.1875,0.65625 0.9375,0 1.78125,-0.375 0.9375,-0.375 2.15625,-0.375 1.875,0 2.90625,1.21875 1.125,1.21875 1.59375,3 l 0.5625,2.15625 -1.5,1.96875 q -4.03125,0.09375 -7.125,1.3125 -3,1.125 -5.0625,2.8125 -1.03125,0.75 -3,2.90625 -1.96875,2.15625 -4.875,5.625 -1.3125,1.59375 -3.09375,3.75 -1.78125,2.0625 -3.375,4.03125 -1.875,2.34375 -3.84375,4.6875 l -1.78125,0.46875 q -3,-1.3125 -5.90625,-2.4375 -2.4375,-1.03125 -5.25,-2.0625 -2.71875,-1.03125 -4.6875,-1.78125 l 5.4375,3.46875 q 2.90625,1.875 5.8125,3.375 3,1.5 4.6875,1.5 3.9375,0 7.96875,-3.46875 2.0625,-1.78125 3.9375,-3.84375 1.875,-2.0625 3.65625,-4.40625 l 5.0625,-6.46875 2.53125,1.125 q 0.75,5.34375 1.59375,10.59375 0.84375,5.15625 1.875,10.5 0.0937,1.125 0.46875,2.8125 0.46875,1.59375 0.9375,3.1875 0.46875,1.59375 0.75,2.90625 0.375,1.3125 0.375,1.6875 0,2.25 -0.1875,5.15625 -0.1875,2.8125 -0.5625,4.875002 l 10.59375,-23.156252 q -0.84375,-0.46875 -1.6875,-1.59375 -0.84375,-1.125 -0.84375,-2.71875 0,-0.65625 0.1875,-0.9375 0.28125,-0.375 0.84375,-0.84375 z m 6.65625,40.125002 q -9.9375,1.78125 -22.5,6.84375 -12.46875,4.96875 -27.1875,13.21875 0.75,0.28125 1.5,0.9375 0.84375,0.5625 1.5,1.21875 0.75,0.5625 1.3125,1.21875 0.5625,0.5625 0.84375,0.9375 4.5,-0.75 9.65625,-1.78125 5.15625,-1.125 11.4375,-1.125 2.25,0 4.59375,0.375 2.4375,0.375 4.6875,0.84375 3.84375,0.9375 6.75,1.40625 2.90625,0.375 4.6875,0.375 l 3.375,-1.40625 q 1.125,-2.25 1.5,-4.5 0.46875,-2.34375 0.46875,-4.6875 0,-1.125 -0.1875,-2.90625 -0.0937,-1.875 -0.28125,-4.40625 -0.28125,-2.625 -0.46875,-4.125 -0.0937,-1.5 -0.0937,-2.34375 z m 4.5,-30.281252 q -1.3125,-0.375 -3.09375,-1.125 -1.78125,-0.75 -3.375,-1.5 l -16.03125,34.593752 q 5.53125,-2.25 9.65625,-3.375 4.21875,-1.21875 9.9375,-1.21875 0,-6.84375 0.84375,-13.687502 0.84375,-6.84375 2.0625,-13.6875 z m 13.96875,-24.46875 q -0.84375,-0.84375 -3.28125,-2.53125 l -4.59375,-2.8125 -8.8125,19.03125 q 0.75,1.03125 1.03125,1.78125 0.28125,0.65625 1.21875,1.96875 0.9375,0.1875 1.03125,0.1875 0.46875,-8.34375 2.25,-10.875 1.78125,-2.53125 4.875,-3.09375 l 1.5,1.03125 q 1.96875,4.125 6.75,9.84375 4.78125,5.8125 6.75,9.84375 l -1.96875,1.875 q -4.78125,-1.59375 -9.375,-2.90625 -4.5,-1.3125 -9.28125,-2.53125 l -4.03125,-1.03125 -1.96875,-3.1875 -0.75,1.40625 0.0937,1.6875 q 0.75,0.28125 1.40625,0.5625 0.5625,0.1875 1.125,0.46875 0.5625,0.1875 0.9375,0.1875 1.3125,0.09375 9.09375,3.65625 7.78125,3.5625 20.71875,6.1875 l 0.28125,-0.1875 q -0.75,-2.8125 -2.4375,-6.1875 -1.6875,-3.375 -4.59375,-8.4375 -5.71875,-9.9375 -7.96875,-15.9375 z m -64.96875,81.468752 q -0.84375,-1.21875 -2.71875,-2.71875 -1.78125,-1.5 -3.75,-2.4375 -0.75,0.5625 -0.9375,2.0625 -0.1875,1.5 -0.1875,4.3125 0,0.1875 0.1875,0.5625 0.1875,0.375 0.28125,1.03125 0.1875,0.65625 0.65625,1.6875 1.03125,0.46875 2.53125,0.65625 1.5,0.1875 3.09375,0.1875 1.5,0 3,0 1.5,-0.0937 3.09375,-0.1875 l 6.09375,-0.28125 q 6.09375,-0.28125 12.46875,-0.9375 6.46875,-0.65625 14.8125,-0.65625 6.9375,0 12.28125,1.78125 2.34375,0.75 5.4375,1.21875 3.09375,0.375 7.03125,0.5625 l -11.0625,-3.75 q -1.03125,-0.28125 -1.6875,-0.84375 -0.65625,-0.5625 -1.125,-1.125 -0.46875,-0.5625 -0.84375,-1.03125 -0.375,-0.5625 -0.65625,-0.84375 -1.5,0.5625 -2.4375,0.9375 -0.84375,0.375 -1.40625,0.5625 -0.5625,0.0937 -1.03125,0.1875 -0.375,0 -0.9375,0 -1.59375,0 -3.5625,-0.28125 -1.96875,-0.375 -3.9375,-0.84375 l -4.03125,-0.9375 q -1.96875,-0.46875 -3.9375,-0.75 -1.96875,-0.375 -3.65625,-0.375 -1.59375,0 -6.75,0.65625 -5.0625,0.5625 -14.625,2.34375 z m 21.84375,-22.125 q -0.9375,-1.125 -2.8125,-3.65625 -1.875,-2.625 -4.875,-6.65625 -5.8125,-8.062502 -10.78125,-11.906252 -1.03125,1.40625 -1.875,2.8125 -0.84375,1.40625 -1.59375,3 1.40625,2.437502 3.09375,7.312502 1.6875,4.96875 1.6875,9.75 0,1.96875 -0.0937,3.375 0,1.3125 -0.0937,2.15625 -0.0937,1.03125 -0.1875,1.59375 1.59375,-0.75 3.1875,-1.5 1.3125,-0.65625 2.8125,-1.3125 1.59375,-0.65625 2.71875,-1.125 z m 16.6875,-90.750002 q 0.46875,-0.65625 1.5,-1.5 1.03125,-0.9375 2.71875,-0.9375 1.6875,0 2.71875,1.21875 1.125,1.125 1.125,3.1875 0,0.28125 -0.375,0.9375 l -2.15625,4.3125 q -0.375,0.84375 -0.375,2.15625 l -0.0937,2.15625 4.21875,3.09375 1.125,-1.5 q 1.6875,-2.0625 2.8125,-5.34375 1.125,-3.28125 1.125,-6.375 0,-5.34375 -4.03125,-8.53125 -3.9375,-3.28125 -10.78125,-3.28125 -4.3125,0 -7.5,1.6875 -3.1875,1.59375 -3.5625,4.96875 z m -55.125,2.53125 3.1875,10.21875 11.53125,-3 q -0.0937,-0.46875 -0.1875,-1.03125 0,-0.5625 0,-1.125 v -2.0625 q 0,-5.4375 1.21875,-10.78125 1.3125,-5.34375 3.28125,-10.4062503 l -3.65625,-1.78125 -2.90625,5.6250003 q -2.625,5.0625 -5.71875,8.8125 -3.09375,3.65625 -6.75,5.53125 z m 13.5,87.562502 q 0.65625,3.09375 1.21875,5.90625 0.5625,2.8125 1.125,5.25 0.65625,-0.5625 1.5,-0.9375 0.84375,-0.375 0.84375,-0.5625 0.0937,-1.96875 0.0937,-3.1875 0.0937,-1.3125 0.0937,-2.15625 0,-0.84375 0,-1.3125 0.0937,-0.5625 0.0937,-1.03125 0,-3.9375 -1.21875,-7.875 -1.21875,-4.03125 -3.75,-9.09375 v -1.500002 q 0.65625,-1.59375 1.59375,-3.375 1.03125,-1.875 2.25,-3.46875 l -2.8125,-1.5 q -2.4375,0.1875 -3.28125,2.0625 -0.84375,1.875 -0.84375,4.125 0,1.6875 0.46875,4.875002 0.46875,3.09375 1.03125,6.1875 0.65625,3.65625 1.59375,7.59375 z m 57.75,-40.406252 14.25,3.9375 q -2.625,-3.9375 -5.71875,-7.5 -3,-3.65625 -5.25,-7.875 -0.9375,0.5625 -1.6875,1.59375 -0.65625,0.9375 -1.125,2.53125 -0.46875,1.59375 -0.46875,4.3125 z m -21.65625,-46.40625 q -3.28125,1.03125 -4.40625,1.03125 -1.40625,0 -1.40625,-0.9375 0,-1.96875 1.875,-1.96875 1.5,0 3.9375,1.875 z m 12,41.90625 q -0.65625,-0.84375 -1.6875,-1.59375 -1.03125,-0.75 -2.71875,-0.9375 v 0.5625 q 0.9375,0.65625 1.875,1.5 1.03125,0.84375 1.875,1.875 z m -69.375,-8.34375 2.15625,1.3125 3.65625,1.40625 -2.15625,-4.875 -0.65625,1.875 -3.1875,-1.59375 -1.78125,-0.1875 z m 14.34375,80.437502 -0.46875,-1.125 -5.53125,2.71875 z m -12.9375,-86.343752 -1.3125,-1.3125 q -0.46875,-0.46875 -0.9375,-0.84375 -0.46875,-0.375 -0.65625,-0.375 -0.28125,0.09375 -0.375,0.1875 -0.0937,0.09375 -0.0937,0.1875 l 3,2.90625 z"
         id="path6212"
         inkscape:connector-curvature="0" />
    </g>
  </g>
</svg>
