<?xml version="1.0" encoding="UTF-8" standalone="no"?>
<!-- Created with Inkscape (http://www.inkscape.org/) -->

<svg
   xmlns:dc="http://purl.org/dc/elements/1.1/"
   xmlns:cc="http://creativecommons.org/ns#"
   xmlns:rdf="http://www.w3.org/1999/02/22-rdf-syntax-ns#"
   xmlns:svg="http://www.w3.org/2000/svg"
   xmlns="http://www.w3.org/2000/svg"
   xmlns:sodipodi="http://sodipodi.sourceforge.net/DTD/sodipodi-0.dtd"
   xmlns:inkscape="http://www.inkscape.org/namespaces/inkscape"
   width="26.987499mm"
   height="38.025585mm"
   viewBox="0 0 26.987499 38.025585"
   version="1.1"
   id="svg4525"
   inkscape:version="0.92.4 (5da689c313, 2019-01-14)"
   sodipodi:docname="A12.svg">
  <defs
     id="defs4519" />
  <sodipodi:namedview
     id="base"
     pagecolor="#ffffff"
     bordercolor="#666666"
     borderopacity="1.0"
     inkscape:pageopacity="0.0"
     inkscape:pageshadow="2"
     inkscape:zoom="0.35"
     inkscape:cx="661.29333"
     inkscape:cy="31.612767"
     inkscape:document-units="mm"
     inkscape:current-layer="layer1"
     showgrid="false"
     fit-margin-top="0"
     fit-margin-left="0"
     fit-margin-right="0"
     fit-margin-bottom="0"
     inkscape:window-width="1920"
     inkscape:window-height="1017"
     inkscape:window-x="-8"
     inkscape:window-y="-8"
     inkscape:window-maximized="1" />
  <metadata
     id="metadata4522">
    <rdf:RDF>
      <cc:Work
         rdf:about="">
        <dc:format>image/svg+xml</dc:format>
        <dc:type
           rdf:resource="http://purl.org/dc/dcmitype/StillImage" />
        <dc:title></dc:title>
      </cc:Work>
    </rdf:RDF>
  </metadata>
  <g
     inkscape:label="Layer 1"
     inkscape:groupmode="layer"
     id="layer1"
     transform="translate(262.27969,-119.17195)">
    <g
       aria-label="𓀉"
       style="font-style:normal;font-variant:normal;font-weight:normal;font-stretch:normal;font-size:50.79999924px;line-height:1.25;font-family:sans-serif;-inkscape-font-specification:sans-serif;font-variant-ligatures:normal;font-variant-caps:normal;font-variant-numeric:normal;font-feature-settings:normal;text-align:start;letter-spacing:0px;word-spacing:0px;writing-mode:lr-tb;text-anchor:start;fill:#000000;fill-opacity:1;stroke:none;stroke-width:0.26458332"
       id="text5105" />
    <g
       aria-label="𓀆"
       transform="matrix(0.26458333,0,0,0.26458333,-199.96101,81.431167)"
       style="font-style:normal;font-variant:normal;font-weight:normal;font-stretch:normal;font-size:192px;line-height:1.25;font-family:sans-serif;-inkscape-font-specification:sans-serif;font-variant-ligatures:normal;font-variant-caps:normal;font-variant-numeric:normal;font-feature-settings:normal;text-align:start;letter-spacing:0px;word-spacing:0px;writing-mode:lr-tb;text-anchor:start;fill:#000000;fill-opacity:1;stroke:none"
       id="flowRoot5135" />
    <g
       aria-label="𓀎"
       transform="matrix(0.26458333,0,0,0.26458333,-249.913,120.63609)"
       style="font-style:normal;font-variant:normal;font-weight:normal;font-stretch:normal;font-size:192px;line-height:1.25;font-family:sans-serif;-inkscape-font-specification:sans-serif;font-variant-ligatures:normal;font-variant-caps:normal;font-variant-numeric:normal;font-feature-settings:normal;text-align:start;letter-spacing:0px;word-spacing:0px;writing-mode:lr-tb;text-anchor:start;fill:#000000;fill-opacity:1;stroke:none"
       id="flowRoot5168">
      <path
         d="m -31.083984,62.247499 v 46.781251 h -4.3125 q -5.0625,-3.9375 -8.25,-9.281251 -3.09375,-5.4375 -3.09375,-11.53125 0,-5.53125 2.25,-12 2.25,-6.5625 7.40625,-13.96875 -3.1875,-0.46875 -4.875,-1.6875 -1.59375,-1.21875 -1.59375,-3.9375 l 0.09375,-1.3125 v -1.59375 q 1.3125,-0.65625 2.71875,-1.21875 0.1875,0.28125 0.46875,0.5625 0.375,0.28125 0.84375,0.375 0.75,-0.28125 0.9375,-0.84375 -4.21875,-5.90625 -6.09375,-12 -1.78125,-6.1875 -1.78125,-13.875 0,-6.28125 2.71875,-11.0625 2.8125,-4.78125 8.71875,-7.5000001 h 3.84375 V 51.934999 l 1.21875,1.59375 q 0.65625,1.03125 1.6875,2.34375 3.84375,1.03125 7.59375,3 l 7.125,3.9375 q 2.71875,-3.09375 5.6249996,-6.09375 l 5.71875,-5.90625 3.9375,-3.375 q 3.375,-2.8125 6.1875,-3 2.9062504,-0.1875 3.9375004,-1.59375 0,-1.40625 -0.84375,-2.0625 -0.75,-0.65625 -2.4375004,-0.9375 l -1.21875,2.625 h -3.09375 l 1.5,-3.1875 -0.9375,-1.3125 v -2.53125 h -0.84375 l -1.40625,-1.78125 0.375,-1.5 q 0.1875,-0.75 0.65625,-1.5 l 0.9375,-1.125 0.5625,-0.75 q 0.1875,-0.28125 0.1875,-0.375 l 1.03125,-4.96875 q 0.84375,-3.9375 3.6562504,-6.375 2.90625,-2.53125 7.40625,-2.90625 l 1.875,-4.5937501 q 2.8125,-7.21875 6.65625,-11.15625 3.84375,-3.9375 8.34375,-3.9375 3,0 5.0625,1.3125 2.15625,1.21875 2.15625,3.46875004 0,1.96874996 -1.6875,3.56249996 -1.6875,1.59375 -3.84375,1.59375 -0.9375,0 -2.0625,-0.46875 -1.3125,1.59375 -1.96875,3.75 -0.5625,2.0625 -1.5,3.9375001 l -1.5,1.03125 h -7.6875 l -0.5625,1.59375 q 4.59375,0.65625 8.0625,3.5625 3.5625,2.90625 5.0625,8.625 l 0.75,3 q 0.46875,1.59375 0.75,3.28125 0.375,1.59375 0.375,3.28125 0,2.4375 -0.75,4.3125 l -1.5,1.03125 h -7.6875 q 0,1.125 1.21875,2.0625 1.21875,0.84375 2.71875,1.40625 l 1.875,0.65625 12.84375,-12.84375 2.34375,0.09375 4.40625,4.3125 0.1875,2.34375 -12.46875,11.4375 q 1.03125,1.125 2.0625,2.15625 1.03125,1.03125 2.15625,2.0625 l 3.9375,3.65625 q 3.84375,3.75 6,7.3125 2.15625,3.5625 2.15625,7.03125 0,2.4375 -0.75,3.75 -0.65625,1.21875 -3.75,1.21875 -2.8125,0 -7.3125,-1.5 -4.40625,-1.5 -10.21875,-4.40625 l -1.125,15.9375 q 1.3125,4.21875 2.0625,8.25 0.84375,3.937501 0.84375,8.062501 0,2.34375 -0.28125,4.6875 -0.28125,2.25 -1.03125,4.6875 1.3125,1.6875 4.59375,1.96875 3.375,0.1875 3.375,4.78125 v 1.125 q -0.1875,2.0625 -1.59375,3 -1.3125,0.9375 -2.8125,4.3125 l -1.3125,3 q -1.6875,3.46875 -3.375,4.78125 -1.6875,1.40625 -4.21875,1.40625 -1.03125,0 -1.78125,-0.5625 -0.65625,-0.46875 -0.65625,-1.5 0,-1.78125 2.34375,-5.0625 2.4375,-3.28125 2.4375,-5.90625 0,-1.96875 -2.15625,-2.90625 -2.0625,-0.9375 -5.25,-0.9375 -5.0625,0 -14.6250004,3.28125 -9.46874998,3.28125 -12.84375,4.125 0,0.84375 0.09375,1.59375 l 0.09375,2.53125 q 0,2.71875 -1.5,3.9375 -1.5,1.3125 -2.90625,1.3125 -1.03125,0 -2.1562496,-0.375 -1.125,-0.28125 -2.0625,-0.75 -2.34375,0 -4.96875,0.65625 -2.625,0.65625 -4.96875,0.65625 -1.78125,0 -3.28125,-0.65625 -1.5,-0.65625 -1.5,-2.0625 0,-1.03125 0.9375,-1.78125 0.9375,-0.75 2.625,-0.75 0.28125,0 5.625,-1.5 5.4375,-1.59375 5.4375,-4.78125 0,-1.40625 -0.46875,-2.71875 -0.46875,-1.3125 -0.65625,-3.28125 0,-1.78125 0.75,-3.375 0.84375,-1.6875 1.3125,-3.375 l -0.84375,-4.3125 q -0.9375,-4.3125 -1.59375,-8.34375 -0.5625,-4.125001 -0.5625,-7.406251 0,-4.78125 1.6875,-7.40625 1.6875,-2.71875 6.3749996,-2.71875 4.03125,0 7.40625002,2.625 3.37499998,2.53125 6.09374998,7.96875 l 0.09375,-3.09375 q 0,-7.6875 -1.21875,-15.28125 -1.125,-7.59375 -3.09375,-15.1875 -3.65625,3 -7.40625,5.71875 l -7.4999996,5.53125 -1.96875,-0.09375 q -4.03125,-1.96875 -8.15625,-4.3125 -4.03125,-2.4375 -7.03125,-5.71875 z m -3.28125,1.40625 q -4.59375,6.5625 -6.9375,12.84375 -2.34375,6.28125 -2.34375,11.71875 0,5.4375 2.53125,10.03125 2.625,4.593751 6.75,7.687501 z m 0.28125,-11.34375 v -41.15625 q -4.5,1.875 -6.9375,6.1875 -2.34375,4.3125 -2.34375,9.65625 0,7.125 1.875,13.21875 1.96875,6.09375 6.375,11.71875 h 0.75 z m 60,16.125 -2.25,-0.09375 q -0.46875,0 -1.21875,-0.1875 -0.65625,-0.1875 -0.9375,-0.28125 l -1.03125,-0.375 -2.34375,2.15625 h -1.875 l -3.09375,-2.8125 -0.46875,-2.4375 3.09375,-3.09375 1.40625,-3.84375 2.0625,-0.5625 0.46875,0.46875 9.28125,-9.28125 q -2.25,-0.9375 -4.21875,-2.71875 -1.96875,-1.78125 -1.96875,-4.125 v -0.65625 q -3.65625,-2.4375 -3.65625,-6.5625 0,-1.875 0.28125,-3.75 0.375,-1.875 0.5625,-3.75 -2.71875,-0.1875 -5.34375,-0.46875 -2.625,-0.28125 -5.3437504,-0.75 -0.28125,3.65625 -1.59375,5.0625 -1.21875,1.3125 -1.40625,1.96875 l 1.59375,1.5 v 3.09375 q 3.9375004,0.5625 5.5312504,1.96875 1.59375,1.40625 1.59375,3.84375 0,1.96875 -1.5,3.1875 -1.5,1.125 -4.2187504,1.125 -2.71875,0 -8.34374997,5.0625 1.40624997,1.78125 2.71874997,3.1875 1.3125,1.3125 3.75,12.1875 2.4375,10.78125 2.4375,22.96875 0,3.65625 -0.28125,7.3125 4.5937504,-2.8125 9.3750004,-5.4375 4.78125,-2.625 10.125,-5.15625 0,-2.34375 0.28125,-4.40625 l 0.5625,-8.0625 0.375,-4.3125 z m 3.65625,21.84375 q -11.34375,5.53125 -20.3437504,11.250001 -8.90624997,5.71875 -18,12.65625 v 0.1875 q -0.46875,1.3125 -1.21875,2.8125 -0.7499996,1.5 -0.8437496,2.90625 0,0.75 0.1875,1.21875 0.1875,0.46875 0.375,1.21875 1.3124996,0.75 2.3437496,1.6875 1.03125,0.9375 2.34375,1.6875 4.3125,-1.125 13.3125,-4.40625 9.0000004,-3.28125 15.8437504,-3.28125 0.9375,0 1.875,0.0937 0.9375,0.0937 1.875,0.28125 1.21875,-0.75 1.96875,-1.78125 0.84375,-1.03125 1.59375,-2.15625 -0.1875,-0.28125 -0.1875,-1.03125 0.375,-2.53125 0.9375,-4.6875 0.5625,-2.15625 0.5625,-5.53125 0,-3.375 -0.84375,-6.562501 -0.84375,-3.28125 -1.78125,-6.5625 z M -9.3339844,110.81 q 4.03125,-3 7.78125,-5.625 3.75,-2.71875 7.6875,-5.15625 -2.8125,-7.125001 -5.90624997,-10.218751 -3.00000003,-3.09375 -6.84375003,-3.09375 -2.0625,0 -3.5624996,1.21875 -1.40625,1.21875 -1.40625,4.5 0,3.9375 0.65625,8.906251 0.75,4.96875 1.5937496,9.46875 z M 40.916016,57.091249 q -1.03125,-1.03125 -2.25,-1.96875 -1.21875,-1.03125 -2.15625,-2.15625 l -3.28125,3 1.3125,-0.375 q 1.3125,1.40625 2.71875,3.1875 l 2.90625,3.65625 q 1.5,1.875 3.09375,3.65625 1.59375,1.78125 3.28125,3.28125 l -1.5,2.0625 q -1.03125,-0.46875 -5.71875,-2.25 -4.6875,-1.875 -7.5,-2.71875 l -5.4375,-1.875 -1.59375,-1.59375 0.1875,-1.3125 -1.21875,1.40625 -1.5,-0.09375 -2.90625,-2.34375 -0.5625,1.59375 1.78125,2.15625 1.875,0.65625 q 0.84375,0.28125 1.875,0.5625 1.03125,0.28125 2.0625,0.375 l 6.375,2.53125 q 3.65625,1.78125 7.3125,3.375 3.75,1.5 7.6875,2.625 l 1.59375,0.375 q 0.75,0.1875 1.59375,0.1875 0.75,0 1.03125,-0.09375 l 0.1875,-0.84375 v -1.78125 q 0,-1.21875 -1.875,-4.59375 -1.78125,-3.375 -5.90625,-7.40625 z m -76.78125,-0.9375 v -1.21875 h -0.75 q -1.40625,1.40625 -2.90625,1.40625 -0.5625,0 -0.9375,-0.09375 v 1.3125 q 0.9375,1.03125 2.4375,1.5 1.59375,0.46875 3.375,0.46875 1.40625,0 2.71875,-0.1875 1.3125,-0.28125 2.34375,-0.5625 l 1.78125,0.75 q 3,3 6.75,5.34375 3.75,2.25 7.6875,4.125 3.7499996,-2.71875 7.4062496,-5.4375 3.75,-2.8125 7.3125,-5.8125 -0.65624998,-0.84375 -1.31249998,-1.6875 -0.56249999,-0.9375 -1.31250002,-1.78125 -2.71875,2.71875 -5.4375,5.53125 -2.625,2.8125 -5.2499996,5.8125 l -1.78125,0.46875 -1.40625,-0.84375 q -0.75,-0.375 -3.28125,-1.5 -2.4375,-1.21875 -7.40625,-3.84375 l -1.6875,-0.65625 q -1.3125,-0.375 -2.0625,-0.84375 -0.65625,-0.46875 -1.59375,-1.5 l -1.03125,1.03125 h -2.25 z m 57.375,2.90625 1.40625,1.21875 3.46875,-2.53125 0.375,0.5625 21.375,-19.96875 -2.53125,-2.625 z m 9.375,-32.15625 h -4.03125 q -1.96875,0 -3.9375,-0.1875 l -0.75,6.75 q 0,1.875 0.65625,3.46875 0.46875,0.46875 0.9375,0.75 0.5625,0.28125 1.03125,0.65625 h 7.78125 l 0.1875,-1.03125 v -1.03125 z m -21.0937504,-4.5 q 5.0625004,0.75 10.0312504,1.125 5.0625,0.375 10.125,0.375 -2.34375,-3.9375 -4.96875,-5.4375 -2.53125,-1.5 -5.71875,-1.5 -2.90625,0 -5.4375,1.40625 -2.53125,1.40625 -4.0312504,4.03125 z M 28.166016,9.6537489 l 1.875,-4.59375 q 0.84375,-2.25 2.53125,-4.12499996 l 1.875,-0.09375 q 0,0.18749996 0.28125,0.37499996 0.375,0.1875 0.84375,0.1875 1.6875,0 2.25,-0.65624996 0.5625,-0.75 0.5625,-1.40625 0,-0.93750004 -1.125,-1.40625004 -1.125,-0.5625 -2.34375,-0.5625 -3.5625,0 -6.5625,2.90625004 -3,2.81249996 -5.71875,9.28124996 z m 9.65625,108.7500011 q -0.9375,0 -2.25,-0.28125 -1.21875,-0.375 -2.4375,-1.03125 -0.5625,0.75 -1.21875,1.5 -0.65625,0.65625 -1.40625,1.3125 1.3125,0.84375 2.15625,2.25 0.9375,1.3125 0.9375,3.1875 0,2.34375 -1.96875,5.625 -1.875,3.28125 -2.34375,4.21875 2.25,-0.46875 4.3125,-5.90625 2.15625,-5.4375 4.875,-7.21875 0.28125,-0.5625 0.28125,-1.40625 0,-0.65625 -0.1875,-1.3125 -0.09375,-0.65625 -0.75,-0.9375 z M -6.8964844,133.1225 q -0.1875,-1.03125 -0.1875,-2.15625 l -0.09375,-2.15625 q -1.3125,-0.65625 -2.4375,-1.875 -0.1875,4.6875 -4.3124996,6 -4.03125,1.3125 -4.59375,1.5 l -1.875,0.5625 q 1.6875,-0.1875 3.46875,-0.65625 1.78125,-0.46875 3.375,-0.46875 1.5,0 2.4375,0.65625 1.03125,0.5625 2.8124996,0.5625 0.46875,-0.1875 0.9375,-0.65625 0.46875,-0.46875 0.46875,-1.3125 z M 34.541016,59.997499 q -0.1875,1.03125 -0.28125,2.0625 -0.09375,1.03125 -0.28125,2.0625 1.40625,0.46875 3.375,1.40625 1.96875,0.84375 3.375,1.3125 -1.3125,-1.5 -3.09375,-3.375 -1.78125,-1.875 -3.09375,-3.46875 z m -3.46875,3.5625 0.46875,-3.28125 0.375,-3.1875 -4.59375,4.21875 v 0.46875 z m -13.6875,4.03125 1.3125,-1.3125 -2.25,-2.25 -1.5,1.40625 z m -6.84375,-39.9375 0.28125,0.09375 q 1.125,0.46875 1.6875,1.5 -1.125,1.03125 -2.0625,1.03125 -0.8437504,0 -0.8437504,-1.59375 0,-1.03125 0.7500004,-1.03125 z"
         id="path5176"
         inkscape:connector-curvature="0" />
    </g>
  </g>
</svg>
