<?xml version="1.0" encoding="UTF-8" standalone="no"?>
<!-- Created with Inkscape (http://www.inkscape.org/) -->

<svg
   xmlns:dc="http://purl.org/dc/elements/1.1/"
   xmlns:cc="http://creativecommons.org/ns#"
   xmlns:rdf="http://www.w3.org/1999/02/22-rdf-syntax-ns#"
   xmlns:svg="http://www.w3.org/2000/svg"
   xmlns="http://www.w3.org/2000/svg"
   xmlns:sodipodi="http://sodipodi.sourceforge.net/DTD/sodipodi-0.dtd"
   xmlns:inkscape="http://www.inkscape.org/namespaces/inkscape"
   width="38.099998mm"
   height="19.397266mm"
   viewBox="0 0 38.099998 19.397266"
   version="1.1"
   id="svg7345"
   inkscape:version="0.92.4 (5da689c313, 2019-01-14)"
   sodipodi:docname="A15.svg">
  <defs
     id="defs7339" />
  <sodipodi:namedview
     id="base"
     pagecolor="#ffffff"
     bordercolor="#666666"
     borderopacity="1.0"
     inkscape:pageopacity="0.0"
     inkscape:pageshadow="2"
     inkscape:zoom="0.35"
     inkscape:cx="-488.97323"
     inkscape:cy="-347.07142"
     inkscape:document-units="mm"
     inkscape:current-layer="layer1"
     showgrid="false"
     fit-margin-top="0"
     fit-margin-left="0"
     fit-margin-right="0"
     fit-margin-bottom="0"
     inkscape:window-width="1920"
     inkscape:window-height="1017"
     inkscape:window-x="-8"
     inkscape:window-y="-8"
     inkscape:window-maximized="1" />
  <metadata
     id="metadata7342">
    <rdf:RDF>
      <cc:Work
         rdf:about="">
        <dc:format>image/svg+xml</dc:format>
        <dc:type
           rdf:resource="http://purl.org/dc/dcmitype/StillImage" />
        <dc:title></dc:title>
      </cc:Work>
    </rdf:RDF>
  </metadata>
  <g
     inkscape:label="Layer 1"
     inkscape:groupmode="layer"
     id="layer1"
     transform="translate(-42.061668,-37.606753)">
    <flowRoot
       xml:space="preserve"
       id="flowRoot7890"
       style="font-style:normal;font-variant:normal;font-weight:normal;font-stretch:normal;font-size:192px;line-height:1.25;font-family:sans-serif;-inkscape-font-specification:'sans-serif, Normal';font-variant-ligatures:normal;font-variant-caps:normal;font-variant-numeric:normal;font-feature-settings:normal;text-align:start;letter-spacing:0px;word-spacing:0px;writing-mode:lr-tb;text-anchor:start;fill:#000000;fill-opacity:1;stroke:none"
       transform="scale(0.26458333)"><flowRegion
         id="flowRegion7892"><rect
           id="rect7894"
           width="1237.1428"
           height="1180"
           x="-11.428572"
           y="-83.194603" /></flowRegion><flowPara
         id="flowPara7896"></flowPara></flowRoot>    <g
       aria-label="𓀒"
       style="font-style:normal;font-variant:normal;font-weight:normal;font-stretch:normal;font-size:50.79999924px;line-height:1.25;font-family:sans-serif;-inkscape-font-specification:'sans-serif, Normal';font-variant-ligatures:normal;font-variant-caps:normal;font-variant-numeric:normal;font-feature-settings:normal;text-align:start;letter-spacing:0px;word-spacing:0px;writing-mode:lr-tb;text-anchor:start;fill:#000000;fill-opacity:1;stroke:none;stroke-width:0.26458332"
       id="text7900">
      <path
         d="m 66.866348,39.07023 q 2.182812,-0.297657 4.34082,-0.595313 2.158008,-0.297656 4.39043,-0.297656 0.322461,-0.223242 0.768945,-0.396875 0.446484,-0.173633 0.892969,-0.173633 0.37207,0 0.669726,0.148828 0.322461,0.148828 0.520899,0.570508 0.198437,0.42168 0.223242,0.917773 0.02481,0.496094 0.223242,0.942579 0.07441,0.198437 0.272852,0.545703 0.198437,0.347265 0.396875,0.694531 0.198437,0.347265 0.37207,0.669726 0.173633,0.322461 0.198437,0.471289 0.02481,0.09922 0.02481,0.297657 0,0.471289 -0.248047,0.79375 -0.248047,0.322461 -0.570507,0.322461 -0.223243,0 -0.446485,-0.198438 -0.223242,-0.198437 -0.347265,-0.644922 -0.620118,-0.868164 -1.314649,-1.661914 -0.669726,-0.818554 -1.612305,-1.314648 -1.141015,0.04961 -2.207617,0.272851 -1.066601,0.223243 -2.158008,0.595313 -0.967382,0.322461 -1.95957,0.719336 -0.967383,0.396875 -2.009179,0.496094 v 1.314648 q 1.091406,0.173633 2.108398,0.520898 1.041797,0.322461 2.033984,0.719336 1.016992,0.396875 2.00918,0.818555 1.016992,0.42168 2.058789,0.744141 0.223242,0.07441 0.446484,0.07441 0.496094,0 0.868164,-0.248047 0.396875,-0.248047 0.744141,-0.248047 0.198438,0 0.37207,0.09922 0.372071,0.223242 0.520899,0.545703 0.173633,0.322461 0.223242,0.694531 0.07441,0.37207 0.09922,0.768945 0.0248,0.396875 0.148828,0.744141 0.198437,0.644922 0.520898,1.240234 0.347266,0.595313 0.620117,1.190625 0.04961,0.09922 0.04961,0.322461 0,0.372071 -0.248047,0.768946 -0.223242,0.396875 -0.570508,0.396875 h -0.09922 Q 78.946236,52.663195 78.772603,52.464758 78.623775,52.26632 78.499751,52.018273 78.375728,51.745422 78.276509,51.47257 78.202099,51.199719 78.127681,51.05089 77.755611,50.25714 77.160298,49.661828 76.58979,49.041711 75.920064,48.520812 74.754243,48.34718 73.613228,48.049523 72.497017,47.727062 71.380806,47.404601 70.264595,47.057336 69.123579,46.75968 68.007368,46.462023 66.866353,46.288391 65.006001,46.015539 63.09604,45.668273 q -1.90996,-0.347265 -3.770312,-0.620117 0.04961,0.148828 0.09922,0.396875 0.07441,0.223242 0.07441,0.322461 0,0.248047 -0.173633,0.496094 -0.148828,0.248047 -0.446484,0.248047 -0.272852,0 -0.446485,-0.248047 -0.173633,-0.248047 -0.173633,-0.520899 0,-0.173632 0.04961,-0.347265 0.04961,-0.173633 0.09922,-0.347266 -1.141016,0.04961 -2.356446,0.272852 -1.190625,0.223242 -2.306836,0.421679 0.248047,0.223243 0.520899,0.520899 0.272851,0.297656 0.496094,0.620117 0.248046,0.322461 0.396875,0.644922 0.148828,0.322461 0.148828,0.620117 0,0.198438 -0.07441,0.37207 -0.04961,0.148829 -0.248047,0.347266 0.04961,0.198438 0.04961,0.396875 0.02481,0.173633 0.04961,0.297656 l 0.0248,0.372071 q 0,0.520898 -0.148828,0.917773 -0.148828,0.396875 -0.42168,0.719336 -0.248046,0.322461 -0.595312,0.644922 -0.347266,0.297656 -0.768945,0.620117 -0.694532,0.570508 -1.389063,1.066602 -0.694531,0.471289 -1.413867,0.967382 -0.297656,0.545703 -0.719336,0.967383 -0.396875,0.42168 -0.942578,0.694531 l -0.496094,-0.0248 q -0.09922,-0.07441 -0.198437,-0.223243 -0.124024,0.148829 -0.223243,0.297657 -0.07441,0.148828 -0.173632,0.272851 -0.248047,0.09922 -0.347266,0.148828 -0.496094,0 -0.843359,-0.322461 -0.347266,-0.297656 -0.347266,-0.79375 0.09922,-0.248046 0.124023,-0.37207 0.372071,-0.37207 0.719336,-0.74414 0.372071,-0.372071 0.744141,-0.669727 0.396875,-0.322461 0.843359,-0.496094 0.446485,-0.198437 1.016993,-0.198437 0.595312,-0.496094 1.066601,-1.066602 0.496094,-0.570508 0.917774,-1.215429 -0.868165,0.496093 -1.761133,0.892968 -0.868164,0.396875 -1.860352,0.570508 -0.297656,0.297656 -0.595312,0.620117 -0.272852,0.322461 -0.446485,0.719336 -0.124023,0.04961 -0.272851,0.124024 -0.124024,0.04961 -0.248047,0.124023 -0.297656,-0.124023 -0.446484,-0.322461 -0.04961,0.173633 -0.124024,0.322461 -0.04961,0.148828 -0.148828,0.272852 -0.248047,0.09922 -0.347266,0.148828 -0.37207,0 -0.719336,-0.04961 -0.32246,-0.04961 -0.595312,-0.322461 -0.02481,-0.173632 -0.124023,-0.347265 0.04961,-0.272852 0.148828,-0.496094 0.09922,-0.223242 0.37207,-0.669726 0.347266,-0.545704 0.644922,-0.892969 0.297656,-0.347266 0.644922,-0.520899 0.347265,-0.173632 0.818554,-0.223242 0.471289,-0.07441 1.141016,-0.07441 1.066602,-0.620117 2.133203,-1.240234 1.091406,-0.620117 2.182813,-1.265039 -0.272852,-0.570508 -0.595313,-1.141016 -0.322461,-0.570508 -0.595312,-1.141016 -0.272852,-0.570507 -0.471289,-1.16582 -0.198438,-0.595312 -0.248047,-1.190625 -0.272852,0.02481 -0.570508,0.124024 -0.297656,0.07441 -0.471289,0.272851 -0.198438,0.223242 -0.297656,0.42168 -0.07442,0.173633 -0.148829,0.347266 -0.07441,0.148828 -0.223242,0.272851 -0.148828,0.124024 -0.446484,0.198438 l -0.07441,0.297656 v 0.148828 q -0.124024,0.09922 -0.223242,0.198437 -0.09922,0.09922 -0.198438,0.198438 -0.173633,0 -0.322461,0 -0.148828,0 -0.297656,-0.02481 -0.02481,0.07441 -0.04961,0.148828 -0.02481,0.07441 -0.04961,0.124024 l -0.396875,0.272851 q -0.396875,0 -0.595312,-0.124023 -0.173633,-0.124024 -0.297657,-0.297656 -0.09922,-0.198438 -0.198437,-0.372071 -0.07441,-0.198437 -0.272852,-0.322461 -0.297656,-0.173632 -0.620117,-0.248046 -0.297656,-0.07441 -0.595312,-0.148829 -0.297657,-0.09922 -0.570508,-0.272851 -0.272852,-0.173633 -0.496094,-0.545703 -0.272851,-0.496094 -0.396875,-0.942578 -0.124023,-0.471289 -0.124023,-0.917774 0,-0.620117 0.248047,-1.190625 0.248046,-0.570508 0.669726,-1.016992 0.446485,-0.446484 1.041797,-0.768945 0.595313,-0.322461 1.314648,-0.446485 0.124024,-0.0248 0.248047,-0.0248 0.148828,-0.0248 0.272852,-0.0248 0.942578,0 1.835547,0.471289 0.917773,0.446484 1.53789,1.066602 0.496094,-0.148828 0.744141,-0.446485 0.248047,-0.297656 0.396875,-0.620117 0.173633,-0.347266 0.347266,-0.644922 0.198437,-0.322461 0.570507,-0.496094 0.248047,-0.124023 0.545703,-0.148828 0.297657,-0.04961 0.644922,-0.04961 0.644922,0 1.389063,0.148828 0.74414,0.148828 1.488281,0.347266 0.744141,0.173633 1.438672,0.37207 0.694531,0.173633 1.265039,0.272852 0.520898,-0.124024 0.967383,-0.198438 0.446484,-0.07441 0.892968,-0.07441 0.570508,0 1.190625,0.148828 0.644922,0.124024 1.289844,0.124024 1.116211,0 2.207617,-0.198438 1.116211,-0.198437 2.257227,-0.198437 z m -16.073437,4.365625 q 0,0.520898 0.148828,1.041796 0.148828,0.496094 0.347265,0.992188 0.223243,0.496094 0.471289,0.967383 0.248047,0.446484 0.471289,0.892968 0.148829,0.297657 0.322461,0.570508 0.173633,0.272852 0.297657,0.570508 l 0.396875,1.21543 q -0.02481,0.07441 -0.02481,0.148828 0,0.04961 -0.02481,0.124023 0,0.04961 0,0.09922 -0.37207,0.520898 -0.719336,1.066602 -0.347265,0.545703 -0.719336,1.066601 -0.37207,0.520899 -0.818554,0.992188 -0.42168,0.471289 -0.967383,0.818554 -0.09922,0.07441 -0.297656,0.124024 -0.173633,0.04961 -0.372071,0.09922 -0.198437,0.02481 -0.396875,0.07441 -0.198437,0.04961 -0.322461,0.09922 -0.421679,0.198438 -0.868164,0.644922 -0.421679,0.446484 -0.768945,0.818555 l -0.07441,0.09922 q 0.02481,0.04961 0.02481,0.09922 0,0.04961 0.04961,0.09922 -0.02481,-0.02481 -0.02481,-0.07441 0.04961,0.07441 0.198438,0.124023 l 0.09922,-0.124023 q 0.396875,-0.545703 0.843359,-1.016992 0.471289,-0.471289 1.190625,-0.471289 0.04961,0.04961 0.04961,0.272851 0.02481,0.223242 0.09922,0.272852 0.04961,-0.124024 0.173633,-0.446485 0.124023,-0.32246 0.223242,-0.396875 0.719336,-0.520898 1.438672,-1.016992 0.744141,-0.496093 1.438672,-1.066601 l 0.223242,-0.173633 q 0.620117,-0.496094 1.016992,-0.917773 0.396875,-0.42168 0.396875,-1.190625 l -0.0248,-0.297657 q -0.02481,-0.148828 -0.07441,-0.396875 -0.0248,-0.272851 -0.07441,-0.446484 -0.272851,-0.496094 -0.520898,-0.992188 -0.248047,-0.496093 -0.496094,-0.992187 -0.148828,-0.272852 -0.297656,-0.545703 -0.148828,-0.297656 -0.297656,-0.595313 0.07441,-0.148828 0.148828,-0.297656 0.07441,-0.148828 0.173633,-0.297656 1.339453,-0.223242 2.728515,-0.471289 1.413867,-0.248047 2.827735,-0.297656 L 57.738234,40.211253 Q 56.696437,40.03762 55.70425,39.764769 54.712062,39.491917 53.670265,39.268675 53.323,39.194265 53.025343,39.144652 q -0.272851,-0.07441 -0.595312,-0.07441 -0.446484,0 -0.79375,0.173632 -0.173633,0.07441 -0.322461,0.272852 -0.124023,0.198437 -0.248047,0.446484 -0.124023,0.223243 -0.223242,0.446485 -0.09922,0.223242 -0.198438,0.37207 -0.223242,0.322461 -0.570507,0.496094 -0.347266,0.173633 -0.694532,0.248047 -0.04961,0.198437 -0.198437,0.396875 -0.124023,0.198437 -0.297656,0.37207 -0.198438,0.198437 -0.42168,0.37207 -0.347266,0.223242 -0.768945,0.347266 -0.396875,0.124023 -0.84336,0.198437 -0.124023,0.02481 -0.223242,0.04961 -0.07441,0 -0.173633,0 -0.124023,-0.04961 -0.223242,-0.09922 -0.09922,-0.04961 -0.223242,-0.09922 -0.124023,-0.173633 -0.223242,-0.223242 l -0.07441,0.347266 q -0.0248,0.04961 -0.148828,0.322461 -0.124024,0.248046 -0.272852,0.570507 -0.124023,0.297657 -0.248047,0.570508 -0.09922,0.248047 -0.124023,0.297656 0.297656,0.09922 0.421679,0.198438 0.148829,0.09922 0.347266,0.297656 0.07441,0.124024 0.148828,0.297656 0.07441,0.148829 0.173633,0.272852 0.02481,-0.04961 0.02481,-0.124023 0.0248,-0.09922 0.07441,-0.173633 0.07441,-0.04961 0.148828,-0.09922 0.07441,-0.04961 0.173633,-0.09922 l 0.570507,0.02481 q 0.07442,-0.297656 0.248047,-0.570508 0.198438,-0.272851 0.545703,-0.272851 0.198438,-0.198438 0.272852,-0.446485 0.09922,-0.248047 0.248047,-0.471289 0.347266,-0.446484 0.942578,-0.595312 0.595313,-0.148828 1.116211,-0.148828 z m -7.838282,-0.198438 q 0.148829,0.818555 0.446485,1.066602 0.297656,0.248046 0.719336,0.347265 l 0.843359,-1.686719 q -0.148828,-0.148828 -0.148828,-0.421679 0,-0.545703 0.917773,-0.545703 0.248047,0 0.446485,0.148828 0.223242,0.148828 0.37207,0.297656 0.496094,-0.02481 1.016992,-0.198437 0.347266,-0.124024 0.620117,-0.347266 0.272852,-0.223242 0.42168,-0.620117 -0.595312,-0.570508 -1.314648,-0.917774 -0.719336,-0.347265 -1.562696,-0.347265 -0.595312,0 -1.11621,0.223242 -0.520899,0.198437 -0.917774,0.570508 -0.37207,0.347265 -0.595312,0.843359 -0.198438,0.496094 -0.198438,1.041797 z M 75.944863,39.4423 q 0.79375,0.42168 1.463477,1.066601 0.669726,0.620118 1.21543,1.339454 0.173632,0.248046 0.347265,0.496093 0.198438,0.223242 0.322461,0.496094 0,0.02481 0,0.04961 0.02481,0 0.02481,0.04961 0.02481,-0.09922 0.02481,-0.248047 -0.595313,-0.917774 -1.066602,-1.885156 -0.446484,-0.992188 -0.545703,-2.108399 -0.173633,-0.347265 -0.496094,-0.347265 -0.198437,0 -0.396875,0.09922 -0.198437,0.09922 -0.396875,0.223243 -0.198437,0.09922 -0.396875,0.198437 -0.198437,0.09922 -0.347266,0.09922 -0.694531,0.04961 -1.364257,0.04961 -0.669727,0 -1.364258,0.04961 -1.413867,0.124023 -2.852539,0.347265 -1.413867,0.198438 -2.827734,0.396875 v 1.63711 q 0.942578,-0.09922 1.885156,-0.471289 0.942578,-0.396875 1.835547,-0.719336 1.16582,-0.396875 2.306836,-0.620118 1.141015,-0.223242 2.381249,-0.272851 z m 0.372071,8.383984 q 1.339453,0.967383 2.257226,2.356445 0.198438,0.347266 0.322461,0.79375 0.148828,0.42168 0.347266,0.79375 0.0248,-0.09922 0.0248,-0.173632 0.02481,-0.07441 0.02481,-0.148829 -0.347265,-0.669726 -0.570508,-1.141015 -0.223242,-0.471289 -0.37207,-0.917774 -0.148828,-0.446484 -0.272852,-0.942578 -0.09922,-0.496093 -0.198437,-1.215429 -0.07441,-0.248047 -0.223242,-0.42168 l -0.09922,-0.07441 h -0.02481 q -0.496093,0.198437 -0.818554,0.37207 -0.297657,0.148828 -0.694532,0.148828 -0.322461,0 -0.768945,-0.148828 -0.545703,-0.198437 -1.091406,-0.396875 -0.520899,-0.198437 -1.041797,-0.396875 -1.438672,-0.595312 -2.852539,-1.190625 -1.413867,-0.595312 -2.976562,-0.79375 v 1.190625 q 1.141015,0.148828 2.232421,0.471289 1.116211,0.322461 2.207618,0.669727 1.091406,0.322461 2.207617,0.644922 1.116211,0.322461 2.257226,0.471289 z m -29.666406,4.464844 -0.148828,0.74414 1.240234,-1.141015 q 0.198438,-0.04961 0.471289,-0.148828 0.272852,-0.09922 0.446485,-0.148828 0.297656,-0.09922 0.545703,-0.198438 0.248047,-0.09922 0.520898,-0.223242 0.669727,-0.322461 1.339453,-0.719336 0.669727,-0.42168 1.314649,-0.818555 l -0.148829,-0.421679 q -1.11621,0.644922 -2.282031,1.289843 -1.141015,0.620118 -2.257226,1.240235 l -1.562696,0.173633 q -0.545703,0.223242 -0.892968,0.768945 -0.347266,0.520898 -0.570508,1.091406 0.09922,0.02481 0.198437,0.02481 0.09922,0 0.198438,0 0.124023,-0.520899 0.347266,-0.868164 0.223242,-0.347266 0.644921,-0.620117 z m -0.79375,-8.433594 q 0.198437,0.471289 0.198437,0.694531 0,0.272852 -0.248046,0.272852 -0.248047,0 -0.248047,-0.272852 0,-0.421679 0.297656,-0.694531 z m 20.6375,-3.993554 q -0.272852,0.04961 -0.892969,0.124023 -0.620117,0.04961 -1.289844,0.124023 -0.669726,0.04961 -1.240234,0.09922 -0.570508,0.04961 -0.744141,0.04961 -0.595312,0 -1.21543,-0.124024 -0.595312,-0.148828 -1.240234,-0.148828 -0.347266,0 -0.719336,0.07441 -0.37207,0.04961 -0.620117,0.09922 0,0.04961 0.07441,0.545703 0.09922,0.471289 0.198438,1.141016 0.124023,0.644921 0.223242,1.339453 0.124023,0.694531 0.198437,1.16582 1.785938,0.272852 3.59668,0.545703 1.835547,0.248047 3.671094,0.520899 z"
         style="stroke-width:0.26458332"
         id="path7902"
         inkscape:connector-curvature="0" />
    </g>
  </g>
</svg>
