<?xml version="1.0" encoding="UTF-8" standalone="no"?>
<!-- Created with Inkscape (http://www.inkscape.org/) -->

<svg
   xmlns:dc="http://purl.org/dc/elements/1.1/"
   xmlns:cc="http://creativecommons.org/ns#"
   xmlns:rdf="http://www.w3.org/1999/02/22-rdf-syntax-ns#"
   xmlns:svg="http://www.w3.org/2000/svg"
   xmlns="http://www.w3.org/2000/svg"
   xmlns:sodipodi="http://sodipodi.sourceforge.net/DTD/sodipodi-0.dtd"
   xmlns:inkscape="http://www.inkscape.org/namespaces/inkscape"
   width="25.176758mm"
   height="38.472069mm"
   viewBox="0 0 25.176758 38.472068"
   version="1.1"
   id="svg4525"
   inkscape:version="0.92.4 (5da689c313, 2019-01-14)"
   sodipodi:docname="A16.svg">
  <defs
     id="defs4519" />
  <sodipodi:namedview
     id="base"
     pagecolor="#ffffff"
     bordercolor="#666666"
     borderopacity="1.0"
     inkscape:pageopacity="0.0"
     inkscape:pageshadow="2"
     inkscape:zoom="0.35"
     inkscape:cx="869.06085"
     inkscape:cy="0.076518439"
     inkscape:document-units="mm"
     inkscape:current-layer="layer1"
     showgrid="false"
     fit-margin-top="0"
     fit-margin-left="0"
     fit-margin-right="0"
     fit-margin-bottom="0"
     inkscape:window-width="1920"
     inkscape:window-height="1017"
     inkscape:window-x="-8"
     inkscape:window-y="-8"
     inkscape:window-maximized="1" />
  <metadata
     id="metadata4522">
    <rdf:RDF>
      <cc:Work
         rdf:about="">
        <dc:format>image/svg+xml</dc:format>
        <dc:type
           rdf:resource="http://purl.org/dc/dcmitype/StillImage" />
        <dc:title></dc:title>
      </cc:Work>
    </rdf:RDF>
  </metadata>
  <g
     inkscape:label="Layer 1"
     inkscape:groupmode="layer"
     id="layer1"
     transform="translate(317.25152,-110.3815)">
    <g
       aria-label="𓀉"
       style="font-style:normal;font-variant:normal;font-weight:normal;font-stretch:normal;font-size:50.79999924px;line-height:1.25;font-family:sans-serif;-inkscape-font-specification:sans-serif;font-variant-ligatures:normal;font-variant-caps:normal;font-variant-numeric:normal;font-feature-settings:normal;text-align:start;letter-spacing:0px;word-spacing:0px;writing-mode:lr-tb;text-anchor:start;fill:#000000;fill-opacity:1;stroke:none;stroke-width:0.26458332"
       id="text5105" />
    <g
       aria-label="𓀆"
       transform="matrix(0.26458333,0,0,0.26458333,-199.96101,81.431167)"
       style="font-style:normal;font-variant:normal;font-weight:normal;font-stretch:normal;font-size:192px;line-height:1.25;font-family:sans-serif;-inkscape-font-specification:sans-serif;font-variant-ligatures:normal;font-variant-caps:normal;font-variant-numeric:normal;font-feature-settings:normal;text-align:start;letter-spacing:0px;word-spacing:0px;writing-mode:lr-tb;text-anchor:start;fill:#000000;fill-opacity:1;stroke:none"
       id="flowRoot5135" />
    <g
       aria-label="𓀓"
       transform="matrix(0.26458333,0,0,0.26458333,-307.90842,134.53728)"
       style="font-style:normal;font-variant:normal;font-weight:normal;font-stretch:normal;font-size:192px;line-height:1.25;font-family:sans-serif;-inkscape-font-specification:sans-serif;font-variant-ligatures:normal;font-variant-caps:normal;font-variant-numeric:normal;font-feature-settings:normal;text-align:start;letter-spacing:0px;word-spacing:0px;writing-mode:lr-tb;text-anchor:start;fill:#000000;fill-opacity:1;stroke:none"
       id="flowRoot5190">
      <path
         d="m 24.40625,46.515077 q 0,0.65625 0.1875,1.59375 0.1875,0.84375 0.1875,1.59375 0,2.4375 -1.5,3.28125 -1.5,0.9375 -3.75,0.9375 -1.875,0 -3.75,-0.28125 -1.875,-0.28125 -4.125,-0.28125 h -1.875 l -3.75,0.375 q -1.21875,0.1875 -3.1875,0.28125 -0.84375,0 -1.6875,-0.09375 -0.84375,-0.09375 -1.59375,-0.46875 l -0.46875,-0.84375 Q -1.1875,52.327577 -1.375,51.952577 l 0.28125,-0.75 q 0.5625,-1.59375 3.65625,-1.875 3.1875,-0.375 12.84375,-4.03125 1.59375,-7.3125 2.625,-21.28125 1.125,-14.0624999 1.59375,-16.6874999 0.5625,-2.71875 4.59375,-17.4375001 l 4.5,-16.3125 -7.21875,3 v -5.8125 l 6.5625,1.5 -12.09375,-14.90625 q -1.96875,-0.28125 -3.75,-0.28125 -2.71875,0 -5.4375,0.46875 -2.625,0.46875 -5.4375,1.21875 0,9.1875 0.09375,14.0625 v 7.125 q 0,2.71875 -1.21875,4.21875 -1.125,1.40625 -5.15625,8.3437501 l -1.875,3.09375 -2.625,4.49999996 q -2.25,3.93750004 -2.25,3.46875004 0,-0.5625 -1.59375,3.46875 -1.5,4.0312499 -4.03125,4.0312499 l -1.125,-0.5625 -0.28125,-1.4062499 q -0.46875,1.0312499 -0.75,2.4374999 -0.1875,1.3125 -0.65625,3.09375 l -2.4375,0.65625 q -0.375,-0.46875 -0.75,-0.84375 l -0.84375,-0.65625 -0.46875,-1.40625 v -0.375 q -1.125,0.5625 -1.40625,0.65625 -0.9375,0 -1.59375,-0.5625 l -0.46875,-1.40625 q 0,-0.8437499 0.46875,-2.0624999 -2.34375,2.3437499 -3.28125,5.9999999 l -2.4375,0.65625 q -0.65625,-0.84375 -1.5,-1.5 l -0.46875,-1.40625 q 0.28125,-4.7812499 3,-7.8749999 2.71875,-3.1875 6.65625,-5.25000004 2.4375,-3.37499996 5.25,-8.90624996 2.8125,-5.6250001 5.0625,-8.9062501 l 0.75,-8.34375 q 0.65625,-8.71875 1.6875,-14.15625 1.03125,-5.4375 1.78125,-7.21875 0.84375,-1.78125 3.28125,-6 l 2.8125,-4.78125 q -3.375,0.46875 -5.25,1.125 -1.78125,0.5625 -3.5625,0.5625 -1.59375,0 -2.71875,-0.9375 -1.03125,-0.9375 -2.15625,-3.1875 l -0.84375,-0.65625 q -1.125,-0.28125 -2.0625,-0.28125 l -1.40625,-1.78125 0.9375,-4.125 q 0.46875,-2.0625 1.21875,-4.03125 0,-1.03125 -0.1875,-1.875 l -0.46875,-1.6875 -0.1875,-1.59375 q 0,-5.71875 4.03125,-9.75 4.03125,-4.03125 9.9375,-4.03125 5.90625,0 10.125,4.03125 4.3125,4.03125 4.3125,11.71875 0,1.5 -0.1875,3 -0.09375,1.5 -0.28125,2.90625 4.5,1.125 9.09375,2.53125 4.6875,1.3125 9.28125,3.1875 l 7.40625,5.4375 6.75,5.25 6.84375,5.4375 7.40625,6.09375 q 1.5,1.21875 2.8125,7.875 1.40625,6.5625 1.40625,17.25 0,4.59375 -0.1875,9.0937501 l -0.375,9.28125 q 0,0.75 -0.09375,1.59375 l -0.09375,1.59375 q 0,2.15625 1.59375,7.6874999 1.59375,5.53125 1.59375,10.21875 v 1.78125 l -0.1875,3.09375 -1.40625,18.09375 q 0.75,0.75 1.21875,1.96875 0.5625,1.125 0.5625,2.34375 0,1.78125 -1.125,2.8125 -1.125,1.03125 -3.46875,1.03125 -1.59375,0 -3.1875,-0.28125 -1.5,-0.28125 -2.8125,-0.375 h -1.21875 q -2.625,0 -5.71875,0.375 -3,0.375 -3.09375,0.375 H 38.1875 q -1.40625,0 -2.8125,-0.375 -1.40625,-0.28125 -1.96875,-1.3125 v -1.5 l 0.375,-0.65625 0.5625,-0.375 0.65625,-0.375 4.59375,-0.9375 q 5.625,-1.03125 7.78125,-2.25 2.15625,-1.3125 3.09375,-3.28125 -0.9375,-9.1875 -3.1875,-19.6875 -2.25,-10.59375 -2.8125,-15.2812499 H 32 q 0,8.9999999 -3.65625,22.9687499 -3.5625,13.875 -3.9375,15.46875 z m -30.28125,-64.5 -4.21875,9.5625001 -4.5,10.5 q 0,0.28125 -0.5625,0.5625 l -2.4375,1.21875 q -1.21875,0.65625 -2.53125,2.0625 -1.3125,1.3125 -1.59375,2.25 0.5625,-0.375 1.59375,-1.21875 1.125,-0.84375 2.15625,-1.40625 l 1.6875,-0.75 -0.46875,2.90625 0.9375,-2.0625 q 0.65625,-1.59375 1.40625,-2.53125 l 2.90625,-5.25 q 2.15625,-3.84375 4.96875,-8.6250001 2.90625,-4.78125 4.875,-7.6875 v -23.71875 l 1.40625,-1.78125 4.6875,-1.125 q 0.9375,-0.1875 3.5625,-0.5625 2.71875,-0.46875 5.25,-0.46875 1.59375,0 2.8125,0.28125 1.3125,0.1875 1.875,0.84375 l 12.46875,15.28125 q 3,-4.21875 5.90625,-8.4375 l 5.90625,-8.53125 -18.5625,-14.4375 q -4.78125,-1.78125 -9.5625,-3.1875 -4.78125,-1.40625 -9.65625,-2.71875 l -3.84375,-0.9375 q -4.5,-0.9375 -6.375,-1.96875 -1.875,-1.125 -1.875,-3.46875 0,-0.84375 0.09375,-1.875 0.09375,-1.03125 0.09375,-2.34375 -0.75,0 -1.40625,0.28125 -0.65625,0.1875 -0.65625,1.125 -0.46875,0.375 -0.84375,0.75 l -0.75,0.75 h -7.03125 q 0,0.46875 0.09375,0.84375 v 0.75 q 0,1.96875 -0.46875,3.84375 l -1.125,4.03125 q 1.03125,0.1875 1.78125,0.65625 0.84375,0.375 1.3125,1.125 l 1.21875,1.6875 q 0.46875,0.75 1.125,1.59375 0.75,0 1.96875,-0.1875 1.3125,-0.28125 2.625,-0.65625 l 4.40625,-1.21875 q 0.46875,0.1875 0.9375,0.28125 l 0.84375,0.1875 q 0.65625,0.84375 1.5,1.5 v 1.875 l -2.4375,4.3125 -1.96875,3.375 q -0.84375,1.59375 -1.5,3 -0.5625,1.40625 -1.03125,2.90625 z m 50.4375,-26.8125 q -12.84375,18.09375 -12.84375,18.46875 0,0.375 -1.6875,6.375 L 23.1875,5.0775771 h 30.375 q 0,-5.43750004 0.375,-11.25 0.46875,-5.9062501 0.46875,-11.8125001 0,-6 -0.75,-11.625 -0.75,-5.625 -2.90625,-10.40625 z m -22.875,94.875 q 0,-0.9375 -0.09375,-1.96875 0,-0.9375 -0.1875,-1.96875 0.1875,-0.9375 3.75,-14.90625 Q 28.8125,17.171327 29,8.0775771 h -6.5625 q 0,-0.28125 -1.21875,14.7187499 -1.125,15 -3.09375,24.09375 l -1.03125,1.03125 q -2.0625,0.75 -4.03125,1.40625 -1.96875,0.5625 -4.03125,1.125 1.40625,-0.28125 2.71875,-0.28125 2.90625,0 4.875,0.46875 1.96875,0.375 4.3125,0.375 z M 53.9375,8.0775771 H 47.375 q 0,1.21875 3.09375,16.6874999 3.09375,15.46875 3.09375,17.625 0,2.34375 -2.53125,4.875 -2.53125,2.4375 -5.25,3.09375 h 0.65625 q 1.21875,0 2.25,0.09375 l 2.15625,0.1875 q 1.03125,0.1875 2.34375,0.28125 1.3125,0.09375 3,0.09375 0.46875,-0.375 0.65625,-0.9375 v -0.1875 q -0.1875,-1.03125 -0.5625,-1.3125 -0.375,-0.28125 -1.21875,-2.4375 0,-5.625 0.75,-11.34375 0.84375,-5.71875 0.84375,-11.4375 0,-4.03125 -1.3125,-9.28125 Q 54.03125,8.8275771 53.9375,8.0775771 Z M -18.53125,-77.703673 h 6.1875 q 0.46875,-1.40625 1.78125,-2.15625 1.3125,-0.75 2.625,-0.75 1.3125,0 2.34375,0.84375 1.125,0.75 1.125,2.34375 0,0.65625 -0.1875,1.59375 -0.1875,0.84375 -0.1875,1.59375 0,1.21875 1.40625,2.0625 1.5,0.75 3.28125,1.125 l 3.375,0.84375 q 0.1875,-1.3125 0.28125,-2.625 0.09375,-1.3125 0.09375,-2.53125 0,-3.375 -1.03125,-6 -0.9375,-2.625 -3.1875,-4.3125 -2.15625,-1.6875 -4.59375,-2.4375 -2.34375,-0.75 -5.34375,0.09375 -3,0.84375 -4.59375,2.25 -2.90625,2.625 -3.375,8.0625 z m 7.875,43.875 -0.09375,4.21875 q 0,3.28125 -0.28125,6.5625 -0.1875,3.1875 -1.59375,6 l -3.46875,5.4375 q -1.21875,2.2500001 -4.03125,7.6875001 -2.71875,5.34375 -4.40625,6 l -1.03125,0.46875 q -3.75,2.25 -5.625,5.8125 1.5,-1.3125 2.90625,-2.4375 1.40625,-1.125 3,-2.0625 L -25,8.5463271 q 0,-0.375 0.5625,-1.59375 l 0.84375,-2.625 q 0.75,-2.0625 1.40625,-3.37500004 0.65625,-1.40625 6.65625,-10.21874996 l 6.46875,-9.4687501 z m -9.9375,37.0312501 q 0.84375,-0.65625 1.875,-1.21875 l 2.0625,-1.03125004 q 0.28125,-0.84375 0.9375,-2.43749996 l 2.8125,-6.5625 q 0.65625,-1.59375 0.9375,-2.4375001 l -8.8125,13.4062501 z m 7.78125,-75.7500001 q -0.84375,1.96875 -2.34375,1.96875 -0.75,0 -1.40625,-0.28125 0.375,-2.0625 2.15625,-2.0625 0.84375,0 1.59375,0.375 z"
         id="path5198"
         inkscape:connector-curvature="0" />
    </g>
  </g>
</svg>
