<?xml version="1.0" encoding="UTF-8" standalone="no"?>
<!-- Created with Inkscape (http://www.inkscape.org/) -->

<svg
   xmlns:dc="http://purl.org/dc/elements/1.1/"
   xmlns:cc="http://creativecommons.org/ns#"
   xmlns:rdf="http://www.w3.org/1999/02/22-rdf-syntax-ns#"
   xmlns:svg="http://www.w3.org/2000/svg"
   xmlns="http://www.w3.org/2000/svg"
   xmlns:sodipodi="http://sodipodi.sourceforge.net/DTD/sodipodi-0.dtd"
   xmlns:inkscape="http://www.inkscape.org/namespaces/inkscape"
   width="29.79043mm"
   height="38.19923mm"
   viewBox="0 0 29.79043 38.199229"
   version="1.1"
   id="svg4525"
   inkscape:version="0.92.4 (5da689c313, 2019-01-14)"
   sodipodi:docname="A17.svg">
  <defs
     id="defs4519" />
  <sodipodi:namedview
     id="base"
     pagecolor="#ffffff"
     bordercolor="#666666"
     borderopacity="1.0"
     inkscape:pageopacity="0.0"
     inkscape:pageshadow="2"
     inkscape:zoom="0.35"
     inkscape:cx="1098.6585"
     inkscape:cy="-226.11348"
     inkscape:document-units="mm"
     inkscape:current-layer="layer1"
     showgrid="false"
     fit-margin-top="0"
     fit-margin-left="0"
     fit-margin-right="0"
     fit-margin-bottom="0"
     inkscape:window-width="1920"
     inkscape:window-height="1017"
     inkscape:window-x="-8"
     inkscape:window-y="-8"
     inkscape:window-maximized="1" />
  <metadata
     id="metadata4522">
    <rdf:RDF>
      <cc:Work
         rdf:about="">
        <dc:format>image/svg+xml</dc:format>
        <dc:type
           rdf:resource="http://purl.org/dc/dcmitype/StillImage" />
        <dc:title></dc:title>
      </cc:Work>
    </rdf:RDF>
  </metadata>
  <g
     inkscape:label="Layer 1"
     inkscape:groupmode="layer"
     id="layer1"
     transform="translate(377.99923,-50.808235)">
    <g
       aria-label="𓀉"
       style="font-style:normal;font-variant:normal;font-weight:normal;font-stretch:normal;font-size:50.79999924px;line-height:1.25;font-family:sans-serif;-inkscape-font-specification:sans-serif;font-variant-ligatures:normal;font-variant-caps:normal;font-variant-numeric:normal;font-feature-settings:normal;text-align:start;letter-spacing:0px;word-spacing:0px;writing-mode:lr-tb;text-anchor:start;fill:#000000;fill-opacity:1;stroke:none;stroke-width:0.26458332"
       id="text5105" />
    <g
       aria-label="𓀆"
       transform="matrix(0.26458333,0,0,0.26458333,-199.96101,81.431167)"
       style="font-style:normal;font-variant:normal;font-weight:normal;font-stretch:normal;font-size:192px;line-height:1.25;font-family:sans-serif;-inkscape-font-specification:sans-serif;font-variant-ligatures:normal;font-variant-caps:normal;font-variant-numeric:normal;font-feature-settings:normal;text-align:start;letter-spacing:0px;word-spacing:0px;writing-mode:lr-tb;text-anchor:start;fill:#000000;fill-opacity:1;stroke:none"
       id="flowRoot5135" />
    <g
       aria-label="𓀔"
       transform="matrix(0.26458333,0,0,0.26458333,-317.25152,110.3815)"
       style="font-style:normal;font-variant:normal;font-weight:normal;font-stretch:normal;font-size:192px;line-height:1.25;font-family:sans-serif;-inkscape-font-specification:sans-serif;font-variant-ligatures:normal;font-variant-caps:normal;font-variant-numeric:normal;font-feature-settings:normal;text-align:start;letter-spacing:0px;word-spacing:0px;writing-mode:lr-tb;text-anchor:start;fill:#000000;fill-opacity:1;stroke:none"
       id="flowRoot5201">
      <path
         d="m -149.91016,-199.84625 v 0.75 q 0,3.09375 1.40625,4.59375 1.40625,1.5 5.8125,2.4375 4.40625,0.84375 6.09375,2.34375 1.6875,1.40625 5.90625,6 4.21875,4.5 7.78125,10.78125 3.65625,6.1875 5.90625,13.78125 -0.1875,0.9375 -0.1875,1.40625 -3.28125,5.0625 -7.6875,12.46875 -4.40625,7.40625 -4.875,12.9375 -0.375,5.53125 -5.4375,5.53125 h -0.28125 q -1.03125,3 -4.3125,3 l -1.40625,-1.78125 q 0,-3.5625 1.125,-6.75 1.125,-3.1875 3.5625,-5.8125 l 4.5,-10.96875 4.3125,-10.96875 q -3,-4.875 -5.8125,-9.84375 -2.8125,-4.96875 -6.46875,-9.375 l -0.65625,14.71875 q -0.65625,13.96875 -2.15625,19.78125 -1.5,5.8125 -4.21875,10.40625 l -0.84375,0.5625 q -8.71875,1.875 -17.625,2.71875 -8.8125,0.84375 -17.625,1.59375 0,3.84375 -0.5625,7.6875 l -1.78125,15.375 q -0.46875,3.84375 -0.46875,7.687499 1.21875,2.15625 1.21875,4.5 0,3.28125 -4.21875,3.9375 -4.125,0.65625 -7.875,3.65625 l -5.15625,4.125 -0.9375,0.28125 -2.90625,-0.65625 -0.9375,-2.625 q 3,-2.71875 5.90625,-5.53125 l 5.8125,-5.53125 q 1.5,-6.374999 1.5,-13.031249 0,-2.4375 -0.1875,-4.96875 -0.1875,-2.53125 -0.46875,-4.96875 -2.25,6.65625 -5.25,12.84375 -2.90625,6.1875 -6.28125,12.374999 0.46875,0.84375 0.75,1.78125 0.28125,0.9375 0.28125,1.875 0,1.5 -1.125,2.53125 -1.125,0.9375 -3.28125,0.9375 l -0.75,-0.09375 q -3.28125,0 -9.28125,3.28125 -6,3.28125 -9.5625,3.28125 l -0.9375,-2.625 q 3.28125,-3.09375 7.5,-5.90625 4.21875,-2.90625 9.75,-10.3125 5.53125,-7.499999 7.6875,-15.468749 2.15625,-8.0625 2.15625,-13.21875 v -1.5 q 0,-3.84375 2.34375,-5.71875 2.34375,-1.96875 7.3125,-4.3125 5.0625,-2.4375 15,-5.25 l 11.71875,-3.46875 q 0.5625,-2.25 1.03125,-4.6875 0.5625,-2.4375 0.5625,-4.875 l -0.0937,-1.3125 q -0.1875,-2.8125 -0.84375,-5.4375 -0.65625,-2.71875 -1.5,-5.34375 l -1.6875,-5.25 q -0.84375,-2.53125 -1.40625,-5.25 -9.65625,6.1875 -17.8125,9.75 -8.0625,3.5625 -12.28125,3.5625 -3,0 -4.875,-1.21875 -1.78125,-1.3125 -1.78125,-3.75 0,-4.03125 9.65625,-18.1875 9.75,-14.25 14.53125,-14.25 1.03125,0 1.78125,0.5625 0.84375,0.5625 1.59375,1.96875 1.125,-0.28125 1.5,-0.28125 0.46875,0 1.03125,0.0937 l 1.59375,0.46875 1.03125,1.875 q -0.375,1.6875 -3,3 -2.625,1.21875 -5.34375,1.78125 l -2.625,0.5625 q -1.59375,3.375 -4.21875,8.4375 -2.53125,4.96875 -3.375,6.5625 17.53125,-10.96875 23.90625,-12.75 6.375,-1.875 6.375,-5.53125 l -0.0937,-0.75 h -2.25 l -1.40625,-1.21875 -0.65625,-2.625 -1.78125,-0.84375 -0.46875,-0.84375 q -0.28125,-0.375 -0.46875,-0.84375 0,-1.96875 1.3125,-4.125 1.40625,-2.15625 2.0625,-6.1875 0.65625,-4.03125 2.15625,-5.8125 1.5,-1.78125 4.59375,-2.8125 3.09375,-1.03125 5.90625,-1.03125 5.4375,0 9,3.1875 3.5625,3.09375 3.5625,7.6875 0,3.46875 -2.15625,7.125 -2.15625,3.65625 -6.84375,7.3125 z m -14.625,-10.5 -0.9375,2.25 q -0.5625,1.125 -0.9375,2.34375 l 1.6875,0.84375 q 0.1875,0.1875 0.5625,0.75 l 0.65625,2.34375 h 2.25 l 0.75,0.75 q 0.375,0.375 0.84375,0.75 l 0.1875,1.125 v 1.03125 q 0,4.78125 -4.5,6.65625 -4.5,1.875 -6.75,2.90625 l -3.75,1.6875 q -2.71875,1.3125 -6.28125,3.375 -3.5625,2.0625 -6.84375,4.125 l -7.6875,4.96875 -2.34375,-2.0625 3.84375,-7.59375 6.375,-12.75 0.5625,-0.375 0.65625,-0.375 3.09375,-0.65625 q 1.6875,-0.28125 3.28125,-0.84375 l -0.84375,-0.65625 -0.9375,-0.5625 q -0.1875,-0.5625 -0.46875,-0.84375 -0.1875,-0.28125 -0.75,-0.75 h -0.5625 q -4.21875,1.96875 -11.90625,13.96875 -7.6875,12 -8.625,15.5625 0,1.21875 0.9375,1.6875 1.03125,0.375 2.25,0.375 4.40625,0 13.5,-4.125 9.1875,-4.125 17.15625,-10.03125 l 2.53125,1.125 q 0.5625,2.71875 1.40625,5.34375 l 1.6875,5.25 q 1.875,6.09375 2.25,8.53125 0.46875,2.34375 0.5625,3.84375 v 1.59375 q 0,3 -0.5625,6 -0.5625,2.90625 -1.3125,5.8125 l -1.03125,1.03125 -10.40625,3.09375 q -5.25,1.59375 -10.40625,3.46875 0.46875,0.46875 1.125,2.4375 0.65625,1.875 0.9375,4.5 l 17.15625,-1.59375 q 8.53125,-0.75 16.96875,-2.625 2.71875,-4.40625 4.125,-12.84375 1.5,-8.4375 1.875,-19.21875 l 0.375,-14.53125 3,-0.375 q 4.40625,4.59375 9.1875,12.75 4.875,8.15625 5.8125,9.75 0,0.46875 0.1875,1.40625 l -9.1875,22.78125 q 0,0.375 -1.78125,2.625 -1.78125,2.15625 -2.4375,6 l 1.6875,-1.5 h 0.84375 l 0.84375,0.1875 q 0.1875,0 0.375,-0.0937 0.28125,0 0.65625,-0.28125 0.375,-0.375 0.46875,-0.5625 l 0.46875,-0.84375 q 0.375,-2.15625 1.03125,-6.46875 0.65625,-4.3125 8.53125,-16.21875 l 3.09375,-4.78125 q -2.71875,-8.8125 -7.59375,-15.75 -4.78125,-6.9375 -11.34375,-13.125 -2.0625,-0.65625 -8.0625,-2.4375 -5.90625,-1.875 -5.90625,-9 l 0.0937,-1.6875 0.46875,-0.84375 2.8125,-2.4375 q 2.4375,-2.15625 3.9375,-4.59375 1.5,-2.4375 1.5,-4.96875 0,-4.6875 -2.53125,-6.375 -2.53125,-1.78125 -6.9375,-1.78125 -2.71875,0 -5.90625,1.125 -3.09375,1.125 -3.5625,4.03125 -0.375,2.90625 -0.75,4.3125 z m -27.75,83.625 q 0.75,4.40625 1.21875,8.71875 0.5625,4.3125 0.5625,8.71875 0,4.21875 -0.5625,8.25 l -0.375,3.093749 q -0.28125,1.3125 -0.84375,2.625 -0.5625,1.3125 -5.8125,6 4.96875,-3.65625 7.40625,-3.65625 2.4375,0 3,-1.59375 -0.1875,-1.59375 -0.75,-2.90625 -0.5625,-1.40625 -0.5625,-3.093749 0,-2.71875 1.40625,-12.84375 1.40625,-10.21875 1.40625,-18.65625 l -0.0937,-0.84375 -0.28125,-1.6875 q -0.1875,-0.9375 -0.65625,-1.96875 -0.375,-1.03125 -1.03125,-1.78125 l -2.53125,1.03125 q -1.125,0.46875 -2.0625,1.96875 -0.84375,1.40625 -0.84375,3.09375 l 0.28125,1.40625 z m -3.75,-1.6875 q -0.28125,-1.03125 -0.46875,-2.15625 -0.1875,-1.21875 -0.1875,-2.34375 v -0.84375 q 0,-0.375 0.1875,-0.84375 -1.96875,1.21875 -2.8125,2.71875 -0.1875,4.5 -0.84375,8.90625 -0.65625,4.3125 -1.96875,9.09375 -1.21875,4.6875 -3.28125,8.90625 -2.0625,4.125 -5.25,8.249999 -3.09375,4.125 -5.625,6.1875 -2.4375,1.96875 -5.4375,4.78125 2.0625,-1.03125 5.15625,-2.625 3.09375,-1.6875 5.34375,-1.6875 l 1.21875,0.09375 q 1.40625,0 2.4375,-0.84375 -0.1875,-0.75 -0.46875,-1.40625 -0.28125,-0.75 -0.65625,-1.40625 v -1.5 q 4.125,-7.499999 7.59375,-15.093749 3.5625,-7.59375 5.8125,-15.9375 z m 32.8125,-82.59375 1.5,-1.03125 1.5,0.75 q -0.9375,0.9375 -2.34375,1.3125 z"
         id="path5209"
         inkscape:connector-curvature="0" />
    </g>
  </g>
</svg>
