<?xml version="1.0" encoding="UTF-8" standalone="no"?>
<!-- Created with Inkscape (http://www.inkscape.org/) -->

<svg
   xmlns:dc="http://purl.org/dc/elements/1.1/"
   xmlns:cc="http://creativecommons.org/ns#"
   xmlns:rdf="http://www.w3.org/1999/02/22-rdf-syntax-ns#"
   xmlns:svg="http://www.w3.org/2000/svg"
   xmlns="http://www.w3.org/2000/svg"
   xmlns:sodipodi="http://sodipodi.sourceforge.net/DTD/sodipodi-0.dtd"
   xmlns:inkscape="http://www.inkscape.org/namespaces/inkscape"
   width="23.36594mm"
   height="37.603889mm"
   viewBox="0 0 23.36594 37.603888"
   version="1.1"
   id="svg4525"
   inkscape:version="0.92.4 (5da689c313, 2019-01-14)"
   sodipodi:docname="A18.svg">
  <defs
     id="defs4519" />
  <sodipodi:namedview
     id="base"
     pagecolor="#ffffff"
     bordercolor="#666666"
     borderopacity="1.0"
     inkscape:pageopacity="0.0"
     inkscape:pageshadow="2"
     inkscape:zoom="0.35"
     inkscape:cx="657.85444"
     inkscape:cy="1020.7185"
     inkscape:document-units="mm"
     inkscape:current-layer="layer1"
     showgrid="false"
     fit-margin-top="0"
     fit-margin-left="0"
     fit-margin-right="0"
     fit-margin-bottom="0"
     inkscape:window-width="1920"
     inkscape:window-height="1017"
     inkscape:window-x="-8"
     inkscape:window-y="-8"
     inkscape:window-maximized="1" />
  <metadata
     id="metadata4522">
    <rdf:RDF>
      <cc:Work
         rdf:about="">
        <dc:format>image/svg+xml</dc:format>
        <dc:type
           rdf:resource="http://purl.org/dc/dcmitype/StillImage" />
        <dc:title></dc:title>
      </cc:Work>
    </rdf:RDF>
  </metadata>
  <g
     inkscape:label="Layer 1"
     inkscape:groupmode="layer"
     id="layer1"
     transform="translate(261.36982,-381.29454)">
    <g
       aria-label="𓀉"
       style="font-style:normal;font-variant:normal;font-weight:normal;font-stretch:normal;font-size:50.79999924px;line-height:1.25;font-family:sans-serif;-inkscape-font-specification:sans-serif;font-variant-ligatures:normal;font-variant-caps:normal;font-variant-numeric:normal;font-feature-settings:normal;text-align:start;letter-spacing:0px;word-spacing:0px;writing-mode:lr-tb;text-anchor:start;fill:#000000;fill-opacity:1;stroke:none;stroke-width:0.26458332"
       id="text5105" />
    <g
       aria-label="𓀆"
       transform="matrix(0.26458333,0,0,0.26458333,-199.96101,81.431167)"
       style="font-style:normal;font-variant:normal;font-weight:normal;font-stretch:normal;font-size:192px;line-height:1.25;font-family:sans-serif;-inkscape-font-specification:sans-serif;font-variant-ligatures:normal;font-variant-caps:normal;font-variant-numeric:normal;font-feature-settings:normal;text-align:start;letter-spacing:0px;word-spacing:0px;writing-mode:lr-tb;text-anchor:start;fill:#000000;fill-opacity:1;stroke:none"
       id="flowRoot5135" />
    <g
       aria-label="𓀖"
       style="font-style:normal;font-variant:normal;font-weight:normal;font-stretch:normal;font-size:50.79999924px;line-height:1.25;font-family:sans-serif;-inkscape-font-specification:sans-serif;font-variant-ligatures:normal;font-variant-caps:normal;font-variant-numeric:normal;font-feature-settings:normal;text-align:start;letter-spacing:0px;word-spacing:0px;writing-mode:lr-tb;text-anchor:start;fill:#000000;fill-opacity:1;stroke:none;stroke-width:0.26458332"
       id="text5225">
      <path
         d="m -248.66987,405.37991 q 0.34726,-0.69453 0.47129,-1.38907 0.14882,-0.69453 0.14882,-1.41386 0,-0.86817 -0.17363,-1.71153 -0.14883,-0.84335 -0.39687,-1.68671 -2.72852,1.41386 -4.56407,2.10839 -1.81074,0.69454 -2.77812,0.69454 -0.62012,0 -1.0418,-0.27286 -0.42168,-0.27285 -0.42168,-0.79375 0,-0.74414 1.5627,-2.75332 1.56269,-2.00918 2.45566,-3.07578 0.91777,-1.0666 1.48828,-1.0666 0.42168,0 0.74414,0.57051 0.29766,-0.12402 0.5209,-0.12402 0.0992,0 0.34727,0.0496 l 0.29765,0.37207 q -0.0992,0.59532 -0.59531,0.91778 -0.47129,0.29765 -1.56269,0.29765 -0.4961,0.94258 -1.16582,1.76114 -0.64493,0.81855 -1.21543,1.66191 1.38906,-0.69453 2.80293,-1.33945 l 2.80293,-1.26504 q 0.27285,-0.0744 0.52089,-0.17363 l 0.5209,-0.17364 q 0.19844,-0.47129 0.19844,-0.86816 0,-0.42168 -0.17363,-0.79375 -0.37207,0 -0.64493,-0.24805 -0.27285,-0.24804 -0.27285,-0.76894 v -0.19844 h -0.0248 l -0.37207,-0.47129 q 0,-0.24805 0.0992,-0.44648 0.0992,-0.22325 0.24804,-0.42168 l 0.24805,-0.39688 q 0.12402,-0.17363 0.19844,-0.34726 0,-0.74414 -0.12403,-1.48829 -0.0992,-0.76894 -0.27285,-1.48828 l 0.37207,-0.47129 h 3.81993 q -2.20762,-0.84335 -3.39825,-1.95957 -1.19062,-1.11621 -1.19062,-2.53007 0,-0.74414 0.44648,-1.33946 0.47129,-0.59531 1.26504,-0.59531 0.62012,0 1.0418,0.39688 0.44648,0.37207 0.44648,0.99218 0,0.47129 -0.27285,0.81856 -0.24805,0.34726 -0.71933,0.34726 -0.32247,0 -0.59532,-0.14882 -0.24804,-0.14883 -0.37207,-0.47129 l 0.34727,-0.37207 0.22324,0.22324 q 0.0992,0.0992 0.29766,0.0992 0.29765,0 0.29765,-0.44649 0,-0.27285 -0.17363,-0.49609 -0.14883,-0.22324 -0.5209,-0.22324 -0.39687,0 -0.66972,0.32246 -0.24805,0.32246 -0.24805,0.71933 0,1.28985 1.14101,2.30684 1.16582,0.99219 5.03536,2.38125 l 3.42304,-6.8957 h 0.79375 l -2.62929,6.05234 -2.18282,4.93613 q -0.44648,0.76895 -1.0666,1.46348 -0.59531,0.66973 -1.31465,1.31465 0,0.76894 0.62012,1.26504 0.62012,0.47129 1.66191,0.76894 1.0418,0.29766 2.45567,2.05879 1.43867,1.73633 2.43086,4.41524 l -0.0496,0.37207 -1.33945,1.83554 q -0.76895,1.11621 -1.09141,2.77813 -0.32246,1.66191 -1.19063,1.66191 -0.27285,0.66973 -1.11621,0.66973 l -0.37207,-0.47129 q 0,-1.31465 0.4961,-2.03399 0.52089,-0.74414 0.47129,-0.79375 -0.0496,-0.0744 0.79375,-2.00918 l 0.99218,-2.25722 q -0.5705,-0.91778 -1.21543,-1.78594 l -1.33945,-1.71152 q -0.49609,2.43086 -0.57051,4.7625 -0.0496,2.30683 -0.91777,3.77031 l -0.22324,0.14883 -3.44785,0.34726 q -1.73633,0.17364 -3.44786,0.42168 0,0.4961 -0.0248,0.99219 l -0.0992,1.01699 q -0.0744,0.99219 -0.17363,1.95957 -0.0992,0.96739 -0.0992,1.98438 0.27285,0.5209 0.27285,0.89297 0,0.62011 -1.01699,0.74414 -0.99219,0.0992 -1.5627,0.71933 -0.5457,0.59532 -1.0666,0.84336 l -0.37207,0.0496 q -0.19844,-0.0744 -0.32246,-0.17363 0,-0.12402 -0.12402,-0.37207 0,-0.12402 0.22324,-0.44649 0.24805,-0.34726 0.57051,-0.74414 l 0.62011,-0.71933 q 0.69453,-0.79375 0.81856,-1.21543 0.14883,-0.44649 0.14883,-0.71934 0,-0.66972 -0.0744,-1.19062 -0.0744,-0.5209 -0.19844,-0.99219 -0.39687,1.31465 -1.19062,2.50527 -0.76895,1.19063 -1.0666,1.66192 0.22324,0.34726 0.22324,0.76894 0,0.34727 -0.17363,0.62012 -0.17364,0.24805 -0.64492,0.24805 h -0.86817 q -0.27285,0.0496 -1.21543,0.62011 -0.91777,0.57051 -1.81074,0.57051 l -0.24805,-0.0992 q -0.27285,-0.27285 -0.29765,-0.62011 l 0.0992,-0.32246 q 0.17363,-0.14883 0.39687,-0.14883 1.24024,-0.44649 2.20762,-1.46348 0.96738,-1.0418 1.81074,-3.10059 0.84336,-2.05878 1.09141,-3.44785 0.27285,-1.41386 0.86816,-2.08359 0.59531,-0.66973 2.90215,-1.28984 z m 6.30039,4.36562 0.59531,-0.37207 q 0.0496,0 0.12402,0.0248 0.27285,0 0.57051,-1.63711 0.32246,-1.66192 2.23242,-4.14239 -0.5705,-1.53789 -1.38906,-2.87734 -0.81855,-1.36426 -2.08359,-2.43086 -0.0496,0.0496 -0.0992,0.12403 l -0.27285,0.44648 1.56269,2.03398 q 0.76895,1.017 1.46348,2.13321 l 0.0496,0.37207 q -0.5209,1.21543 -1.01699,2.40605 l -0.99219,2.40606 q -0.0496,0.14882 -0.32246,0.42168 -0.27285,0.27285 -0.42168,1.0914 z m -9.69864,-14.43633 q 0.14883,0 0.34727,-0.0248 -0.0744,-0.24805 -0.27285,-0.44648 -0.42168,0.14882 -0.69453,0.52089 l -0.57051,0.71934 q -0.39688,0.5209 -1.21543,1.53789 -0.79375,1.01699 -1.43867,1.88516 l -0.22324,0.32246 q -0.24805,0.32246 -0.42168,0.62011 -0.14883,0.29766 -0.14883,0.47129 0.12402,0.12403 0.29765,0.19844 0.17364,0.0496 0.66973,0.0496 0.86816,0 3.02617,-0.86816 2.15801,-0.89297 3.84473,-1.81075 -0.0496,-0.12402 -0.0992,-0.32246 -0.0248,-0.19843 -0.0744,-0.32246 -1.61231,0.71934 -3.19981,1.43867 -1.56269,0.71934 -3.12539,1.53789 l -0.57051,-0.52089 q 0.37207,-0.64493 0.79375,-1.24024 l 0.86817,-1.16582 q 0.42168,-0.57051 0.81855,-1.14101 0.39688,-0.59532 0.71934,-1.24024 l 0.14883,-0.0992 0.17363,-0.0992 z m -1.43867,14.88282 q 0.0496,1.04179 0.24805,2.03398 0.19844,0.99219 0.19844,2.00918 0,0.57051 -0.24805,1.11621 -0.24805,0.5457 -0.66973,1.0418 0.44649,-0.19844 0.59532,-0.24805 l 0.66972,-0.0992 q 0.14883,0 0.14883,-0.0744 l -0.0744,-0.37207 q 0,-0.0744 -0.0496,-0.27285 -0.0496,-0.22325 -0.0496,-0.27285 v -0.34727 q 0,-0.79375 0.0744,-1.71152 0.0992,-0.91778 0.14883,-1.78594 l 0.0992,-0.96738 q 0.0496,-0.47129 0.0496,-0.99219 0,-0.4961 -0.12403,-0.96738 -0.0992,-0.4961 -0.42167,-0.89297 -0.4961,0.19843 -0.69454,0.5705 -0.19843,0.37208 -0.19843,0.71934 0,0.34727 0.12402,0.79375 z m -0.89297,-0.34727 q -0.12402,-0.22324 -0.19843,-0.5457 -0.0496,-0.32246 -0.0496,-0.4961 v -0.12402 q -0.0496,0 -0.0992,0.0992 -0.0496,0.0992 -0.0496,0.19844 0,1.11621 -1.19063,4.01836 -1.19062,2.90214 -2.30683,4.04316 0.47129,-0.22324 0.94258,-0.22324 h 0.22324 q 0.0992,0 0.22324,0.0496 0,-0.32246 -0.17363,-0.47129 v -0.44649 l 0.47129,-0.74414 0.5457,-0.81855 q 0.79375,-1.19063 1.16582,-2.40606 0.37207,-1.21543 0.49609,-2.1332 z m 6.35,-17.28887 q -0.0744,0.12403 -0.14882,0.22325 -0.0744,0.0992 -0.12403,0.22324 l 0.32246,0.29765 v 0.76895 q 0.12403,0.0496 0.37207,0.0496 l 0.39688,0.27285 q 0.29765,0.71934 0.29765,1.31465 0,0.62012 -0.29765,1.31465 l -0.27285,0.27285 -0.79375,0.24805 0.17363,0.44648 0.0992,0.42168 q 0.32246,1.0418 0.5209,2.08359 0.22324,1.0418 0.22324,2.0836 0,0.81855 -0.17363,1.63711 -0.14883,0.81855 -0.57051,1.6123 l -0.27285,0.27285 -1.90996,0.4961 q -0.96739,0.24804 -1.90996,0.5209 0.19843,0.27285 0.32246,0.64492 0.14882,0.34726 0.17363,0.69453 1.53789,-0.19844 3.12539,-0.37207 1.6123,-0.17363 3.44785,-0.34727 0.64492,-1.04179 0.69453,-2.6789 0.0496,-1.66192 0.34727,-3.84473 0.29765,-2.18281 0.47129,-2.50527 l 0.5209,-0.79375 q -0.37207,-0.19844 -1.68672,-0.76895 -1.28985,-0.57051 -1.28985,-2.15801 l -0.34726,-0.69453 0.22324,-0.5457 q 0.34727,-0.34727 0.57051,-0.79375 0.24804,-0.47129 0.24804,-0.69453 0,-0.0744 -0.0496,-0.12403 -0.0992,0 -0.14882,0.0496 l -0.17364,0.17364 -0.66972,-0.0496 q -0.19844,-0.29766 -0.37207,-0.37207 -0.17364,-0.0992 -0.37207,-0.0992 -0.12403,0 -0.22325,0.0248 l -0.39687,0.0992 z m 1.38907,-0.19843 q -0.54571,0.34726 -0.74414,0.34726 -0.17364,0 -0.17364,-0.19844 0,-0.27285 0.32246,-0.27285 0.17364,0 0.59532,0.12403 z m -1.21543,-3.39825 q 0.0496,0.19844 0.0992,0.54571 l 0.0992,0.71933 q 0.0496,0.42168 0.0744,0.86817 0.0744,0 0.17363,-0.0744 l 0.24805,-0.0496 q 0.14883,0 0.34726,-0.0248 0.27286,0 0.5209,0.19844 0.24805,0.17363 0.42168,0.39687 l 0.27285,-0.14883 0.27285,-0.12402 q 0.14883,-0.0496 0.29766,-0.0496 0.39688,0 0.57051,0.27285 0.17363,0.24805 0.17363,0.69453 0,0.34727 -0.29765,0.81856 -0.27286,0.44648 -0.79375,1.21543 0.37207,-0.42168 0.69453,-0.81856 l 0.5705,-0.71933 q 0.34727,-0.47129 0.44649,-0.64492 0.12402,-0.19844 0.32246,-0.66973 l 0.47129,-1.0418 q 0.27285,-0.64492 0.62012,-1.36426 z"
         style="stroke-width:0.26458332"
         id="path5227"
         inkscape:connector-curvature="0" />
    </g>
  </g>
</svg>
