<?xml version="1.0" encoding="UTF-8" standalone="no"?>
<!-- Created with Inkscape (http://www.inkscape.org/) -->

<svg
   xmlns:dc="http://purl.org/dc/elements/1.1/"
   xmlns:cc="http://creativecommons.org/ns#"
   xmlns:rdf="http://www.w3.org/1999/02/22-rdf-syntax-ns#"
   xmlns:svg="http://www.w3.org/2000/svg"
   xmlns="http://www.w3.org/2000/svg"
   xmlns:sodipodi="http://sodipodi.sourceforge.net/DTD/sodipodi-0.dtd"
   xmlns:inkscape="http://www.inkscape.org/namespaces/inkscape"
   width="23.713282mm"
   height="37.976044mm"
   viewBox="0 0 23.713282 37.976042"
   version="1.1"
   id="svg4525"
   inkscape:version="0.92.4 (5da689c313, 2019-01-14)"
   sodipodi:docname="A19.svg">
  <defs
     id="defs4519" />
  <sodipodi:namedview
     id="base"
     pagecolor="#ffffff"
     bordercolor="#666666"
     borderopacity="1.0"
     inkscape:pageopacity="0.0"
     inkscape:pageshadow="2"
     inkscape:zoom="0.35"
     inkscape:cx="556.02441"
     inkscape:cy="-131.09281"
     inkscape:document-units="mm"
     inkscape:current-layer="layer1"
     showgrid="false"
     fit-margin-top="0"
     fit-margin-left="0"
     fit-margin-right="0"
     fit-margin-bottom="0"
     inkscape:window-width="1920"
     inkscape:window-height="1017"
     inkscape:window-x="-8"
     inkscape:window-y="-8"
     inkscape:window-maximized="1" />
  <metadata
     id="metadata4522">
    <rdf:RDF>
      <cc:Work
         rdf:about="">
        <dc:format>image/svg+xml</dc:format>
        <dc:type
           rdf:resource="http://purl.org/dc/dcmitype/StillImage" />
        <dc:title></dc:title>
      </cc:Work>
    </rdf:RDF>
  </metadata>
  <g
     inkscape:label="Layer 1"
     inkscape:groupmode="layer"
     id="layer1"
     transform="translate(234.42729,-76.172308)">
    <g
       aria-label="𓀉"
       style="font-style:normal;font-variant:normal;font-weight:normal;font-stretch:normal;font-size:50.79999924px;line-height:1.25;font-family:sans-serif;-inkscape-font-specification:sans-serif;font-variant-ligatures:normal;font-variant-caps:normal;font-variant-numeric:normal;font-feature-settings:normal;text-align:start;letter-spacing:0px;word-spacing:0px;writing-mode:lr-tb;text-anchor:start;fill:#000000;fill-opacity:1;stroke:none;stroke-width:0.26458332"
       id="text5105" />
    <g
       aria-label="𓀆"
       transform="matrix(0.26458333,0,0,0.26458333,-199.96101,81.431167)"
       style="font-style:normal;font-variant:normal;font-weight:normal;font-stretch:normal;font-size:192px;line-height:1.25;font-family:sans-serif;-inkscape-font-specification:sans-serif;font-variant-ligatures:normal;font-variant-caps:normal;font-variant-numeric:normal;font-feature-settings:normal;text-align:start;letter-spacing:0px;word-spacing:0px;writing-mode:lr-tb;text-anchor:start;fill:#000000;fill-opacity:1;stroke:none"
       id="flowRoot5135" />
    <g
       aria-label="𓀗"
       transform="matrix(0.26458333,0,0,0.26458333,-261.36982,381.29454)"
       style="font-style:normal;font-variant:normal;font-weight:normal;font-stretch:normal;font-size:192px;line-height:1.25;font-family:sans-serif;-inkscape-font-specification:sans-serif;font-variant-ligatures:normal;font-variant-caps:normal;font-variant-numeric:normal;font-feature-settings:normal;text-align:start;letter-spacing:0px;word-spacing:0px;writing-mode:lr-tb;text-anchor:start;fill:#000000;fill-opacity:1;stroke:none"
       id="flowRoot5230">
      <path
         d="m 188.08008,-1076.3423 h -0.28125 l 0.28125,1.5937 q -0.46875,0.375 -0.84375,0.75 l -0.75,0.75 -1.6875,-0.094 q -2.34375,0 -2.90625,-1.4063 -0.46875,-1.4062 -0.46875,-2.9062 0,-2.25 0.65625,-4.6875 0.65625,-2.4375 1.3125,-3.4688 -1.125,-4.0312 -3.1875,-10.9687 -1.96875,-7.0313 -2.53125,-8.9063 -2.90625,-2.5312 -5.625,-5.0625 l -5.625,-5.0625 q 1.96875,7.9688 6.46875,13.9688 4.59375,6 4.78125,10.6875 0.28125,4.6875 3.09375,22.4062 2.8125,17.625 2.8125,49.5938 0.46875,0.8437 0.75,1.875 0.375,1.0312 0.375,2.0625 0,2.0625 -1.6875,3.75 -1.6875,1.6875 -3.5625,1.6875 -0.75,0 -1.59375,-0.375 -0.84375,-0.2813 -1.875,-1.125 -1.6875,0 -3.375,0.1875 -1.59375,0.1875 -3.28125,0.5625 l -2.625,0.4687 q -1.59375,0.375 -3.1875,0.375 -1.59375,0 -2.90625,-0.6562 -1.21875,-0.5625 -1.5,-2.25 l 0.84375,-1.5938 q 9.1875,-2.7187 11.625,-4.4062 2.4375,-1.6875 3.1875,-3 0,-17.8125 -3.09375,-35.25 -3.28125,-0.1875 -6.46875,-0.4688 -3.09375,-0.375 -6.28125,-0.8437 -5.625,15.375 -10.125,24.2812 -4.5,8.9063 -8.34375,16.7813 0,1.5937 0.0937,2.5312 v 1.875 q -0.28125,1.3125 -1.875,2.1563 -1.59375,0.8437 -3.1875,0.8437 -0.75,0 -1.78125,-0.4687 -0.9375,-0.375 -1.40625,-1.125 -3.28125,0 -6.65625,0.5625 -3.28125,0.6562 -7.5,0.9375 -1.40625,0 -2.625,-0.5625 -1.21875,-0.4688 -1.40625,-2.0625 l 0.84375,-1.5938 q 0.5625,-0.2812 1.21875,-0.2812 0.84375,0 8.0625,-1.9688 7.21875,-2.0625 10.3125,-8.3437 l 2.90625,-5.9063 q 6.09375,-12.8437 11.34375,-30.9375 5.25,-18.1875 6,-30.2812 l -1.59375,0.2812 q -0.65625,0 -1.6875,0.094 -1.875,0 -3.65625,-0.4688 -1.6875,-0.5625 -1.6875,-2.4375 0,-0.8437 0.84375,-1.3125 0.9375,-0.4687 2.25,-0.4687 0.84375,0 2.34375,0.4687 l 2.71875,1.0313 q -1.03125,-4.2188 -4.6875,-8.9063 -3.5625,-4.7812 -7.875,-7.125 -0.375,0.75 -4.6875,8.3438 -4.3125,7.5937 -10.125,10.5 l -1.875,-0.094 -11.8125,-10.4062 -3.46875,-1.3125 -4.96875,93.75 h -3 l 5.4375,-102.4688 q -0.5625,0 -1.78125,-0.094 -1.21875,-0.094 -1.875,-0.2813 l 0.46875,-1.5937 q 0.1875,-0.75 0.5625,-1.125 l 2.8125,-0.2813 0.65625,-12.0937 h 3 l -0.75,12.75 q 2.15625,1.6875 4.03125,4.4062 1.875,2.625 2.34375,4.5 2.15625,1.3125 4.40625,2.5313 l 4.3125,2.4375 q 1.6875,-3.8438 3.46875,-7.5938 1.78125,-3.75 3.46875,-7.6875 l 4.125,-9.6562 q -0.46875,-0.75 -1.03125,-1.4063 -0.5625,-0.6562 -1.3125,-1.0312 -0.46875,0.1875 -0.9375,0.75 l -1.125,1.3125 q -0.65625,0.6562 -1.40625,1.2187 -0.65625,0.4688 -1.5,0.4688 -1.59375,0 -2.34375,-1.125 -0.75,-1.2188 -1.03125,-1.5938 -0.46875,0 -0.9375,0.375 l -0.9375,0.5625 q -0.5625,-0.375 -1.21875,-0.6562 -0.5625,-0.375 -1.125,-0.8438 0,-3 -1.3125,-5.0625 -1.3125,-2.0625 -1.5,-3.2812 l -0.1875,-1.2188 v -1.0312 q 0.1875,-6.2813 4.3125,-10.4063 4.125,-4.2187 9.5625,-4.2187 4.78125,0 9.65625,3.6562 4.875,3.6563 6.46875,16.0313 5.15625,0.1875 10.96875,2.25 5.8125,1.9687 6.1875,2.25 0.46875,0.2812 5.625,4.2187 5.15625,3.9375 9.375,8.3438 l 2.25,2.1562 q 1.21875,1.3125 1.6875,2.25 0.46875,0.9375 1.40625,4.7813 1.03125,3.8437 1.59375,8.5312 0.65625,4.5938 1.78125,11.1563 1.03125,1.0312 1.5,2.4375 0.46875,1.4062 0.46875,3 0,2.1562 -0.9375,4.0312 -0.84375,1.7813 -2.4375,1.7813 z m -30.1875,-15.8438 q -0.375,7.6875 -2.0625,15.1875 -1.6875,7.4063 -3.65625,14.7188 6.1875,1.3125 12.5625,1.875 6.46875,0.5625 14.0625,0.75 l -3.09375,-23.0625 -0.65625,-6.0938 q -0.5625,-5.8125 -2.71875,-8.625 -2.0625,-2.9062 -2.71875,-3.8437 z m -36.09375,-44.625 q 0,0.375 0.28125,0.5625 l 1.3125,2.7188 q 0.28125,0.5625 0.5625,1.5937 0.28125,0.9375 0.46875,1.7813 0.46875,-0.1875 1.40625,-0.1875 2.25,0 3.28125,2.625 0.375,-0.1875 2.0625,-1.9688 1.78125,-1.7812 3.1875,-1.7812 1.5,0 3.75,2.4375 l 1.3125,1.875 q 0,0.4687 0.1875,1.4062 -1.03125,2.3438 -1.96875,4.6875 -0.9375,2.3438 -1.96875,4.5938 l 3.28125,1.125 q 4.5,1.5937 10.5,7.3125 6.09375,5.7187 7.875,12.4687 0.65625,-0.5625 1.40625,-1.125 l 9.1875,-7.125 q -2.34375,-3.9375 -3.5625,-8.0625 -1.125,-4.125 -1.96875,-8.5312 l 1.21875,-6.375 q -3.9375,-1.5938 -7.96875,-2.5313 -3.9375,-0.9375 -8.15625,-1.4062 -0.46875,0.1875 -1.03125,0.2812 -0.46875,0.094 -1.125,0.094 -2.25,0 -5.90625,-1.7813 -3.65625,-1.875 -5.25,-3.4687 l -0.46875,-1.4063 q 0,-0.75 -0.375,-1.5 -0.375,-0.75 -1.125,-0.75 l -0.0937,0.094 -0.0937,0.375 v 0.2812 l 0.0937,0.1875 -0.28125,0.2813 q -0.28125,0.1875 -1.3125,1.2187 z m 23.8125,3.4688 q -1.59375,-10.0313 -4.6875,-13.0313 -3.09375,-3.0937 -8.625,-4.0312 -4.21875,1.0312 -7.3125,3.4687 -3.09375,2.4375 -3.28125,7.125 h 7.5 q 0.1875,-1.125 0.9375,-1.7812 0.75,-0.75 1.78125,-0.75 1.875,0 3.09375,1.5 1.21875,1.4062 1.6875,3.375 l 2.8125,1.7812 q 0.9375,0.6563 1.875,1.2188 0.9375,0.4687 1.59375,0.5625 z m 10.3125,74.8125 q -1.21875,-0.1875 -2.34375,-0.4688 l -2.25,-0.4687 q -3.75,12.9375 -7.40625,21.5625 -3.5625,8.5312 -6.84375,15.0937 -3.28125,6.4688 -11.53125,9.1875 1.59375,-0.1875 3,-0.375 1.40625,-0.2812 3,-0.2812 1.03125,0 1.96875,0.2812 1.03125,0.2813 1.5,1.2188 1.59375,0 1.875,-0.1875 l 0.5625,-0.2813 -0.0937,-0.8437 q 0,-0.375 -0.0937,-0.8438 0,-3.9375 3.28125,-9.5625 3.28125,-5.7187 7.6875,-15.6562 4.5,-9.9375 7.6875,-18.375 z m 18.75,1.875 q 1.40625,7.3125 2.34375,16.125 0.9375,8.8125 0.9375,17.3437 0,3.75 -3.09375,5.9063 -3,2.0625 -7.125,3.75 1.875,-0.1875 3.46875,-0.4688 1.59375,-0.375 3.1875,-0.375 2.625,0 3.5625,0.8438 1.03125,0.75 2.15625,0.75 1.40625,-0.9375 1.40625,-2.1563 0,-1.0312 -0.46875,-2.0625 -0.375,-1.0312 -0.46875,-2.1562 v -4.4063 q 0,-8.3437 -0.28125,-16.5937 -0.28125,-8.25 -1.125,-16.5 z m 12.375,-28.3125 q 0.46875,0.6562 0.84375,1.875 0.375,1.2187 0.375,2.3437 0,-0.375 0.0937,-0.75 l 0.1875,-0.75 v -0.8437 q 0,-0.4688 -0.28125,-1.125 -0.1875,-0.75 -0.65625,-1.125 l -0.9375,-1.2188 q -1.3125,-5.9062 -2.15625,-11.9062 -0.84375,-6 -2.34375,-11.9063 -3.375,-4.2187 -7.5,-7.6875 -4.125,-3.4687 -8.34375,-6.9375 l -0.375,2.1563 q -0.1875,1.125 -0.46875,2.25 9.28125,8.3437 12.1875,10.5 3,2.1562 4.78125,9 l 1.5,6.0937 q 0.84375,3.6563 2.4375,9.1875 -0.28125,0.2813 -0.5625,0.6563 l -0.375,0.5625 q -0.46875,0.6562 -0.9375,2.25 -0.375,1.5 -0.375,3.4687 0,0.8438 0,1.5938 0,0.6562 0.28125,1.0312 h 0.75 l -0.0937,-1.3125 q 0,-0.5625 -0.0937,-1.2187 0,-1.7813 0.375,-3.2813 0.375,-1.5 1.6875,-2.9062 z m -72.1875,-19.9688 -1.5,-2.9062 0.75,2.625 -2.71875,-0.2813 4.21875,1.875 10.6875,8.9063 q 4.78125,-2.3438 8.34375,-9.0938 3.65625,-6.75 4.40625,-8.0625 l -4.59375,-1.7812 -6.9375,15.1875 -0.9375,0.375 -1.03125,0.5625 z m -4.6875,-5.25 -0.0937,2.3438 1.5,0.2812 z m 15.9375,-25.0312 q -0.75,1.3125 -1.125,1.3125 -0.1875,0 -0.46875,-0.375 -0.1875,-0.4688 -0.1875,-0.9375 0,-0.375 0.375,-0.4688 0.28125,0 1.40625,0.4688 z"
         id="path5238"
         inkscape:connector-curvature="0" />
    </g>
  </g>
</svg>
