<?xml version="1.0" encoding="UTF-8" standalone="no"?>
<!-- Created with Inkscape (http://www.inkscape.org/) -->

<svg
   xmlns:dc="http://purl.org/dc/elements/1.1/"
   xmlns:cc="http://creativecommons.org/ns#"
   xmlns:rdf="http://www.w3.org/1999/02/22-rdf-syntax-ns#"
   xmlns:svg="http://www.w3.org/2000/svg"
   xmlns="http://www.w3.org/2000/svg"
   xmlns:sodipodi="http://sodipodi.sourceforge.net/DTD/sodipodi-0.dtd"
   xmlns:inkscape="http://www.inkscape.org/namespaces/inkscape"
   width="28.699062mm"
   height="38.496887mm"
   viewBox="0 0 28.699063 38.496887"
   version="1.1"
   id="svg4525"
   inkscape:version="0.92.4 (5da689c313, 2019-01-14)"
   sodipodi:docname="A2.svg">
  <defs
     id="defs4519" />
  <sodipodi:namedview
     id="base"
     pagecolor="#ffffff"
     bordercolor="#666666"
     borderopacity="1.0"
     inkscape:pageopacity="0.0"
     inkscape:pageshadow="2"
     inkscape:zoom="0.35"
     inkscape:cx="-50.804444"
     inkscape:cy="196.28594"
     inkscape:document-units="mm"
     inkscape:current-layer="layer1"
     showgrid="false"
     fit-margin-top="0"
     fit-margin-left="0"
     fit-margin-right="0"
     fit-margin-bottom="0"
     inkscape:window-width="1920"
     inkscape:window-height="1017"
     inkscape:window-x="-8"
     inkscape:window-y="-8"
     inkscape:window-maximized="1" />
  <metadata
     id="metadata4522">
    <rdf:RDF>
      <cc:Work
         rdf:about="">
        <dc:format>image/svg+xml</dc:format>
        <dc:type
           rdf:resource="http://purl.org/dc/dcmitype/StillImage" />
        <dc:title></dc:title>
      </cc:Work>
    </rdf:RDF>
  </metadata>
  <g
     inkscape:label="Layer 1"
     inkscape:groupmode="layer"
     id="layer1"
     transform="translate(73.870491,-162.27043)">
    <g
       aria-label="ð“€"
       transform="matrix(0.26458333,0,0,0.26458333,28.454593,52.771322)"
       style="font-style:normal;font-variant:normal;font-weight:normal;font-stretch:normal;font-size:192px;line-height:1.25;font-family:sans-serif;-inkscape-font-specification:sans-serif;font-variant-ligatures:normal;font-variant-caps:normal;font-variant-numeric:normal;font-feature-settings:normal;text-align:start;letter-spacing:0px;word-spacing:0px;writing-mode:lr-tb;text-anchor:start;fill:#000000;fill-opacity:1;stroke:none"
       id="flowRoot5081">
      <path
         d="m -331.70898,444.51117 -0.65625,-3.09375 -1.125,-0.65625 -1.21875,-0.5625 -0.375,-1.875 q 0.65625,-1.3125 1.21875,-2.90625 l 1.125,-3.1875 0.28125,-2.0625 0.46875,-2.8125 q 0,-0.1875 0.0937,-0.5625 0,-0.1875 0,-0.375 0,-0.1875 0.0937,-0.28125 3.84375,-12.28125 16.78125,-12.28125 15.46875,0 15.46875,16.59375 0,4.3125 -2.34375,8.8125 -2.25,4.40625 -5.625,7.78125 v 2.8125 q 13.59375,4.59375 21.375,18.28125 7.875,13.59375 7.875,29.8125 0,3.75 -1.59375,11.25 -1.5,7.40625 -1.5,11.15625 0,1.875 0.65625,5.53125 0.65625,3.65625 0.65625,5.4375 v 2.0625 q -1.03125,1.59375 -2.25,2.34375 -1.21875,0.65625 -3,0.75 -1.03125,1.40625 -3.46875,3 l -1.6875,-0.0937 q -0.46875,-2.0625 -0.65625,-3.375 -0.0937,-1.3125 -0.0937,-1.78125 0,-3.46875 0.9375,-14.90625 0.9375,-11.53125 2.53125,-20.8125 -0.75,-1.6875 -1.875,-4.96875 l -2.71875,-8.0625 q -1.21875,-3.5625 -2.53125,-6.46875 -1.21875,-2.90625 -2.71875,-5.0625 -3.09375,1.40625 -4.78125,11.15625 -1.6875,9.75 -1.6875,28.21875 l 0.0937,2.0625 v 3.75 q 0,2.25 0.0937,4.78125 0.0937,2.53125 0.0937,4.78125 0,2.34375 0.0937,4.125 v 2.53125 q 0,2.71875 -0.84375,5.53125 -0.75,2.71875 -2.25,5.4375 1.96875,0.9375 3.375,2.625 2.15625,0.75 4.3125,1.59375 l 4.3125,1.6875 q 2.90625,1.125 5.15625,2.53125 2.25,1.40625 3.65625,3.1875 l -0.9375,1.40625 q -8.34375,-0.1875 -19.21875,-2.15625 -10.78125,-1.96875 -16.875,-1.96875 -7.3125,0 -21.84375,0.5625 -14.53125,0.5625 -22.125,0.5625 -1.5,0 -3.75,0.375 -2.15625,0.375 -5.625,1.03125 l -7.6875,1.59375 -2.71875,-1.125 v -1.6875 l 1.96875,-3.09375 q 2.25,-0.1875 5.4375,-1.3125 3.28125,-1.125 7.78125,-3 0.375,-4.6875 2.8125,-7.3125 2.4375,-2.625 6.09375,-4.6875 l -3.5625,-14.625 q -2.25,-9.5625 -2.25,-16.5 0,-3.84375 2.625,-6.65625 2.71875,-2.8125 6.28125,-2.8125 7.3125,0 17.71875,11.34375 l 10.21875,13.03125 q 0.28125,-3 1.5,-9.65625 1.3125,-6.75 1.3125,-10.78125 0,-3.1875 -0.65625,-7.6875 -0.65625,-4.59375 -1.875,-9.9375 l -2.25,-10.3125 q -0.84375,-3.5625 -1.125,-5.625 l -9,4.3125 -9.1875,4.59375 q -4.6875,2.34375 -12.09375,4.78125 -7.40625,2.4375 -13.59375,2.4375 -1.6875,-3.65625 -1.6875,-4.5 0,-9.75 14.4375,-24.375 14.4375,-14.625 25.40625,-14.625 0.375,0 1.125,0.0937 0.75,0.0937 2.0625,0.375 l 0.75,0.9375 v 1.40625 l -0.65625,0.5625 -0.9375,-0.1875 h -0.84375 q -1.03125,0 -2.15625,0.46875 -1.125,0.375 -1.6875,1.125 l 0.375,0.65625 q 0.65625,-0.1875 1.40625,-0.28125 0.75,-0.1875 1.3125,-0.46875 l 0.9375,0.375 0.5625,1.3125 -0.46875,0.9375 q -1.40625,0.9375 -4.125,1.3125 -2.625,0.375 -3.5625,0.375 h -1.40625 q -5.0625,0.5625 -16.96875,19.21875 9.375,-6.46875 20.71875,-11.625 11.34375,-5.15625 19.125,-6.46875 -1.5,-3.46875 -5.8125,-3.75 z m 15.1875,-2.71875 v -1.5 q 0,-3.65625 1.40625,-5.90625 1.40625,-2.25 1.40625,-3.375 0,-0.28125 -0.0937,-0.75 -0.0937,-0.5625 -0.5625,-0.5625 -1.03125,0 -2.0625,1.6875 l -2.53125,0.84375 -2.90625,-1.3125 q -1.78125,-0.75 -3.375,-1.3125 l -3.9375,-1.3125 -0.5625,4.40625 -1.125,3.375 q -0.46875,1.21875 -0.9375,2.25 l 1.21875,0.65625 q 0.46875,0.28125 0.9375,0.46875 l 0.65625,3.5625 q 5.15625,0.75 7.59375,7.59375 l -1.125,1.875 q -11.0625,1.6875 -24.28125,8.25 -13.21875,6.46875 -22.875,14.4375 l -2.15625,-1.78125 q 7.96875,-13.125 14.15625,-20.53125 6.1875,-7.40625 10.875,-7.40625 h 1.3125 q 0,-1.6875 1.3125,-2.71875 l -0.28125,-0.375 q -7.3125,1.5 -20.0625,14.71875 -12.75,13.125 -12.75,21.46875 0,0.1875 0.1875,0.5625 l 0.375,0.9375 q 3.9375,-0.1875 9.09375,-1.78125 5.25,-1.59375 11.8125,-4.5 l 21.65625,-10.40625 2.25,1.3125 q 1.21875,7.5 3.65625,18.09375 2.4375,10.5 2.4375,17.71875 0,4.40625 -1.21875,11.0625 -1.21875,6.5625 -1.59375,11.8125 5.8125,-1.875 11.15625,-3.09375 5.4375,-1.21875 10.40625,-1.96875 v -4.96875 q 0,-38.0625 8.90625,-42 l 2.8125,0.65625 q 3.28125,4.96875 6.375,14.25 3.09375,9.1875 4.40625,12 -2.0625,12.46875 -2.90625,22.96875 -0.75,10.40625 -0.75,13.21875 0,0.46875 0.0937,0.75 0.1875,-0.375 0.46875,-0.75 0.375,-0.46875 0.5625,-0.9375 3,0 4.03125,-1.03125 v -1.03125 q 0,-1.5 -0.65625,-4.96875 -0.65625,-3.46875 -0.65625,-6.09375 0,-4.40625 1.5,-11.8125 1.59375,-7.40625 1.59375,-10.59375 0,-15.375 -7.3125,-28.03125 -7.21875,-12.75 -20.4375,-17.34375 l -1.5,-1.59375 v -4.03125 l -0.84375,-0.84375 -1.6875,-1.3125 q -0.65625,-0.46875 -1.40625,-0.9375 -0.75,-0.46875 -1.3125,-0.75 z m 9.5625,79.59375 q -9.46875,1.40625 -20.8125,4.875 -11.34375,3.46875 -25.125,9.65625 l -7.40625,3.375 q -1.03125,0.5625 -1.78125,1.03125 l -1.5,0.9375 4.875,7.125 q 13.3125,-4.21875 23.71875,-4.21875 4.3125,0 10.96875,1.5 6.65625,1.5 10.40625,1.5 0.1875,0 1.59375,-0.5625 l 2.0625,-0.84375 q 3.28125,-5.8125 3.28125,-10.40625 v -3.1875 q 0,-1.78125 -0.0937,-4.125 z m -46.96875,8.90625 -0.1875,2.90625 1.03125,-0.46875 q 0.28125,0 7.125,-2.90625 6.9375,-2.90625 13.3125,-5.15625 l -11.625,-15.09375 q -7.875,-8.625 -13.5,-9.84375 l 0.1875,1.40625 v 1.59375 q 0,1.6875 -0.46875,3.375 l -0.375,1.78125 0.65625,1.59375 q 0.46875,1.125 0.9375,2.53125 l 1.03125,2.90625 q 1.21875,3.75 1.59375,6.46875 0.375,2.71875 0.375,6.5625 0,0.9375 -0.0937,2.34375 z m 25.5,-104.71875 2.25,0.5625 q 1.03125,0.28125 1.96875,0.65625 l 4.5,1.78125 1.125,0.5625 q 0.75,-0.9375 1.6875,-1.6875 1.03125,-0.75 2.53125,-0.75 1.78125,0 2.71875,1.125 0.9375,1.125 0.9375,3.1875 0,1.3125 -0.46875,2.25 l -0.9375,1.875 q -0.84375,1.5 -1.125,2.625 -0.28125,1.03125 -0.28125,1.5 v 1.59375 q 0.46875,0.1875 1.6875,1.21875 1.21875,0.9375 2.8125,2.34375 6.46875,-6.28125 6.46875,-13.96875 0,-13.59375 -12.46875,-13.59375 -9.9375,0 -13.40625,8.71875 z m -32.25,125.53125 q -1.03125,-1.875 -2.34375,-3.84375 -1.3125,-1.96875 -2.8125,-4.125 l -0.5625,0.5625 q -1.875,2.15625 -2.15625,6.09375 0.84375,1.40625 1.40625,2.25 l 0.84375,1.3125 q 6.9375,0 21.28125,-0.5625 14.4375,-0.5625 22.03125,-0.5625 6.84375,0 18,2.0625 l 7.3125,1.40625 q 1.03125,0.28125 1.875,0.28125 0.9375,0 2.4375,0.0937 l -1.125,-0.5625 -1.40625,-0.46875 -4.78125,-1.875 -4.78125,-1.78125 q -0.84375,-1.40625 -3.84375,-2.53125 l -4.3125,1.3125 q -4.3125,0 -10.96875,-1.5 -6.65625,-1.5 -10.40625,-1.5 -9.84375,0 -24.09375,4.40625 z m 0.75,-15.1875 2.625,-1.3125 q 0.1875,-1.40625 0.28125,-3.46875 0.1875,-2.0625 0.1875,-3.1875 0,-4.21875 -0.28125,-6.46875 -0.28125,-2.25 -1.6875,-6 l -2.0625,-5.53125 q -0.375,-1.03125 -0.84375,-2.0625 0.28125,-0.65625 0.5625,-1.6875 l 0.375,-1.6875 q 0.1875,-0.9375 0.1875,-1.78125 v -1.59375 l -0.1875,-1.40625 q -2.15625,0.46875 -3.46875,2.25 -1.21875,1.78125 -1.21875,4.03125 0,3 0.5625,7.125 0.65625,4.125 1.6875,8.625 l 1.6875,7.03125 z m -9.84375,17.625 -0.46875,-0.75 q -0.28125,-0.28125 -0.46875,-0.65625 -2.4375,1.03125 -4.59375,1.875 -2.0625,0.75 -3.84375,1.3125 z m 44.25,-120.46875 q -1.5,0.9375 -2.0625,0.9375 -1.125,0 -1.125,-0.9375 0,-1.125 1.125,-1.125 1.03125,0 2.0625,1.125 z"
         id="path5089"
         inkscape:connector-curvature="0" />
    </g>
  </g>
</svg>
