<?xml version="1.0" encoding="UTF-8" standalone="no"?>
<!-- Created with Inkscape (http://www.inkscape.org/) -->

<svg
   xmlns:dc="http://purl.org/dc/elements/1.1/"
   xmlns:cc="http://creativecommons.org/ns#"
   xmlns:rdf="http://www.w3.org/1999/02/22-rdf-syntax-ns#"
   xmlns:svg="http://www.w3.org/2000/svg"
   xmlns="http://www.w3.org/2000/svg"
   xmlns:sodipodi="http://sodipodi.sourceforge.net/DTD/sodipodi-0.dtd"
   xmlns:inkscape="http://www.inkscape.org/namespaces/inkscape"
   width="26.565805mm"
   height="38.075207mm"
   viewBox="0 0 26.565805 38.075207"
   version="1.1"
   id="svg7911"
   inkscape:version="0.92.4 (5da689c313, 2019-01-14)"
   sodipodi:docname="A20.svg">
  <defs
     id="defs7905" />
  <sodipodi:namedview
     id="base"
     pagecolor="#ffffff"
     bordercolor="#666666"
     borderopacity="1.0"
     inkscape:pageopacity="0.0"
     inkscape:pageshadow="2"
     inkscape:zoom="0.35"
     inkscape:cx="-386.11518"
     inkscape:cy="-374.76042"
     inkscape:document-units="mm"
     inkscape:current-layer="layer1"
     showgrid="false"
     fit-margin-top="0"
     fit-margin-left="0"
     fit-margin-right="0"
     fit-margin-bottom="0"
     inkscape:window-width="1920"
     inkscape:window-height="1017"
     inkscape:window-x="-8"
     inkscape:window-y="-8"
     inkscape:window-maximized="1" />
  <metadata
     id="metadata7908">
    <rdf:RDF>
      <cc:Work
         rdf:about="">
        <dc:format>image/svg+xml</dc:format>
        <dc:type
           rdf:resource="http://purl.org/dc/dcmitype/StillImage" />
        <dc:title></dc:title>
      </cc:Work>
    </rdf:RDF>
  </metadata>
  <g
     inkscape:label="Layer 1"
     inkscape:groupmode="layer"
     id="layer1"
     transform="translate(-14.847142,-11.602764)">
    <g
       aria-label="𓀘"
       transform="scale(0.26458333)"
       style="font-style:normal;font-variant:normal;font-weight:normal;font-stretch:normal;font-size:192px;line-height:1.25;font-family:sans-serif;-inkscape-font-specification:'sans-serif, Normal';font-variant-ligatures:normal;font-variant-caps:normal;font-variant-numeric:normal;font-feature-settings:normal;text-align:start;letter-spacing:0px;word-spacing:0px;writing-mode:lr-tb;text-anchor:start;fill:#000000;fill-opacity:1;stroke:none"
       id="flowRoot8456">
      <path
         d="m 62.208984,173.79047 5.25,-87.562502 q -3.375,-0.65625 -3.375,-4.21875 0,-1.5 0.9375,-2.90625 1.03125,-1.5 2.625,-1.5 l 1.40625,-33.46875 h 3 l -1.40625,33.5625 q 1.59375,0 2.53125,1.125 1.03125,1.03125 1.5,1.96875 4.03125,2.15625 7.78125,4.59375 3.84375,2.4375 7.40625,5.0625 l 4.21875,-5.34375 q 4.40625,-5.625 8.718746,-9.75 4.40625,-4.21875 7.6875,-5.34375 l 0.84375,-0.84375 q 0.375,-0.375 0.75,-0.84375 l -1.875,0.1875 q -0.9375,0 -1.875,0.09375 -1.6875,0 -2.8125,-0.65625 -1.125,-0.65625 -1.59375,-2.625 h -1.40625 l -1.40625,-1.78125 q 0,-1.96875 0.28125,-3.9375 0.28125,-2.0625 1.59375,-3.65625 l 0.0937,-0.46875 0.0937,-3 q 1.59375,-4.03125 4.6875,-6.28125 3.09375,-2.34375 7.78125,-2.34375 5.8125,0 9.46875,3.1875 3.75,3.09375 3.75,9.5625 0,3.28125 -1.6875,6.09375 -1.59375,2.71875 -3.375,4.03125 h 4.03125 q 4.125,0 6.09375,1.03125 2.0625,0.9375 4.96875,4.03125 2.90625,3 5.71875,6.9375 l 2.71875,3.84375 q 3.28125,4.5 6.09375,8.15625 2.90625,3.5625 2.90625,10.218752 v 6.375 q 0,3.28125 -0.28125,6.65625 -0.1875,3.28125 -0.75,6.5625 1.21875,1.125 1.21875,3.1875 0,2.15625 -1.3125,4.40625 -1.3125,2.25 -4.125,2.25 -0.65625,0 -1.21875,-0.0937 h -0.84375 l -1.40625,-1.78125 q 0,-0.375 -0.28125,-0.65625 -0.1875,-0.375 -0.1875,-0.46875 l -0.0937,-0.84375 q 0,-0.28125 -0.0937,-0.75 0,-0.9375 0.28125,-1.78125 l 0.28125,-0.84375 0.65625,-1.59375 q 0.28125,-0.84375 1.03125,-1.3125 l -1.59375,-21.281252 q -2.15625,-3.65625 -5.625,-7.5 -3.46875,-3.9375 -7.125,-6.5625 -0.375,0 -0.375,0.65625 0,2.4375 1.96875,5.8125 2.0625,3.28125 2.8125,5.8125 l 0.65625,2.4375 q 1.96875,6.000002 1.96875,13.031252 0,4.125 -0.5625,13.96875 -0.5625,9.84375 -1.3125,17.0625 2.25,5.90625 3.09375,10.3125 0.84375,4.40625 0.84375,6 v 1.3125 l -1.03125,15.28125 v 1.40625 q 0,0.75 0.0937,1.5 0.9375,1.21875 0.9375,3 0,1.875 -1.21875,3.5625 -1.125,1.6875 -3.1875,1.6875 -0.75,0 -2.0625,-0.46875 -1.21875,-0.375 -1.875,-1.03125 h -0.84375 q -0.46875,0 -1.59375,0.1875 -1.125,0.1875 -1.21875,0.28125 l -2.8125,0.5625 q -1.96875,0.46875 -4.03125,0.46875 -2.15625,0 -3.375,-0.84375 -1.21875,-0.75 -1.40625,-2.625 0.1875,-0.5625 0.84375,-1.5 0.375,-0.1875 0.65625,-0.1875 l 0.9375,0.0937 q 1.6875,-0.65625 4.96875,-1.5 3.375,-0.84375 5.15625,-1.96875 1.875,-1.21875 2.4375,-2.25 0.65625,-1.03125 0.65625,-4.59375 0,-5.25 -1.96875,-12.84375 -1.875,-7.59375 -4.125,-14.15625 h -11.15625 q -0.375,2.71875 -1.21875,6.09375 -0.84375,3.375 -1.3125,5.0625 l -1.3125,3.9375 q -0.75,2.4375 -1.6875,4.875 -0.84375,2.34375 -1.6875,4.78125 l -2.625,7.875 q -0.375,1.21875 -0.5625,2.34375 l -0.375,2.4375 q -0.46875,2.4375 -1.40625,3.65625 -0.84375,1.3125 -2.4375,1.3125 -0.9375,0 -2.0625,-0.375 -1.03125,-0.375 -1.875,-1.125 -2.999996,0 -6.093746,0.65625 -3,0.65625 -6,0.84375 h -1.03125 q -1.59375,0 -2.4375,-0.5625 -0.75,-0.46875 -0.9375,-1.21875 l -0.1875,-0.65625 0.46875,-1.40625 q 1.03125,-1.03125 3,-1.21875 1.96875,-0.28125 6.5625,-2.25 4.59375,-2.0625 7.593746,-3 3.46875,-7.3125 4.5,-19.875 1.03125,-12.5625 1.125,-13.3125 0.0937,-0.84375 4.6875,-13.96875 4.59375,-13.125 8.90625,-19.875 -1.21875,-6.5625 -2.71875,-10.03125 -1.40625,-3.562502 -3.75,-6.656252 l -2.25,-2.90625 q -1.125,-1.40625 -2.15625,-2.90625 -1.03125,-1.5 -1.6875,-3.28125 l -7.874996,8.15625 q -3.9375,4.03125 -8.90625,7.03125 l -1.40625,0.187502 q -4.78125,-2.906252 -9.65625,-6.375002 -4.875,-3.5625 -9.46875,-7.21875 l -5.25,87.656252 4.5,12.9375 -2.90625,0.75 -3.375,-9.84375 -4.59375,9.28125 -2.71875,-1.125 z m 89.999996,-52.5 q -0.1875,0 -0.46875,0.5625 l -1.3125,2.25 q -0.28125,0.5625 -0.375,0.65625 l 0.5625,0.28125 1.21875,-1.96875 0.65625,0.65625 q 0,1.78125 -1.3125,3.5625 h 0.75 q 0.65625,-0.5625 1.125,-1.6875 0.5625,-1.125 0.5625,-2.0625 l -0.0937,-1.21875 q 0,-0.84375 -0.375,-0.9375 0,-3.75 0.1875,-7.59375 0.28125,-3.9375 0.28125,-9 0,-8.812502 -1.78125,-11.156252 -1.78125,-2.34375 -7.5,-9.9375 -5.625,-7.59375 -8.4375,-10.5 -2.8125,-3 -6.09375,-3.46875 -1.03125,0 -2.25,0.1875 -1.125,0.09375 -2.4375,0.09375 -1.96875,0 -3.46875,-0.65625 -1.5,-0.65625 -1.5,-3 l 0.0937,-0.5625 q -3,-1.5 -4.40625,-2.4375 -1.3125,-1.03125 -2.8125,-3.375 l 0.75,-2.15625 q 0.46875,-0.1875 1.03125,-0.65625 0.5625,-0.46875 0.5625,-0.84375 0,-0.28125 -0.28125,-0.28125 -0.84375,0 -1.6875,0.28125 -0.75,0.28125 -4.125,-0.46875 l -3.46875,-0.75 -1.3125,4.3125 q -0.1875,0.75 -0.1875,1.40625 l -0.1875,1.5 h 1.125 l 0.75,0.75 q 0.375,0.375 0.84375,0.75 0,0.46875 0,0.84375 0,0.375 0.28125,0.84375 l 4.40625,-0.28125 q 1.03125,0 1.96875,0.28125 0.9375,0.1875 1.6875,0.9375 l 0.28125,0.9375 q 0,3.65625 -5.71875,6.375 -5.71875,2.625 -18.374996,19.6875 h -1.125 l -1.125,0.1875 q -8.4375,-6.375 -12.84375,-8.53125 -4.3125,-2.25 -4.3125,-2.625 0,-0.375 -0.75,-1.3125 l -0.28125,0.375 q -0.1875,0.1875 -0.46875,0.375 h -2.25 l -0.75,-0.9375 q -0.28125,0.28125 -0.375,0.75 -0.09375,0.375 -0.09375,0.84375 0,0.5625 0.1875,1.03125 0.28125,0.46875 0.75,0.46875 h 2.71875 q 1.21875,0.65625 0.9375,0.46875 -0.1875,-0.28125 6.46875,4.40625 6.75,4.6875 12.09375,7.875 4.96875,-3 9.09375,-7.3125 4.218746,-4.40625 8.062496,-8.71875 l 2.4375,0.65625 q 1.59375,4.3125 6.5625,10.59375 4.96875,6.1875 6.65625,15.750002 3.9375,-2.25 7.125,-4.3125 3.28125,-2.0625 6.65625,-4.031252 l -0.1875,-0.9375 q -0.5625,-1.5 -0.375,-1.5 0.1875,0 -1.96875,-3.9375 -2.15625,-3.9375 -2.4375,-5.53125 l -0.28125,-2.0625 q 0,-1.03125 0.5625,-2.34375 0.5625,-1.3125 2.34375,-1.3125 1.5,0 3.84375,1.96875 2.4375,1.875 5.15625,4.875 l 3.9375,4.40625 q 3.09375,3.65625 3.28125,6.375 0.1875,2.718752 0.46875,6.375002 v 1.3125 q 0.28125,3.46875 0.65625,7.03125 0.375,3.5625 0.46875,7.125 z m -29.15625,-9.5625 q -3.9375,7.40625 -6.9375,15.09375 -3,7.59375 -5.71875,15.5625 h 26.71875 q 0.65625,-6.84375 1.21875,-16.21875 0.5625,-9.46875 0.5625,-13.59375 0,-2.625 -0.28125,-5.15625 -0.1875,-2.625 -0.9375,-4.96875 z m -16.5,-59.625002 7.59375,1.125 0.65625,-0.1875 q 0.75,-0.1875 1.5,-0.1875 1.21875,0 1.78125,0.65625 0.5625,0.65625 0.5625,1.6875 0,1.125 -0.65625,2.4375 -0.65625,1.21875 -1.59375,2.0625 1.3125,1.59375 3.09375,2.53125 1.78125,0.84375 3.5625,1.40625 1.875,-2.15625 2.15625,-4.03125 0.375,-1.875 0.375,-4.6875 0,-3.9375 -2.625,-5.90625 -2.625,-1.96875 -6.84375,-1.96875 -3.28125,0 -5.8125,1.21875 -2.4375,1.21875 -3.75,3.84375 z m -3.9375,128.062502 q -2.15625,0.65625 -5.156246,2.0625 -3,1.3125 -6,2.4375 2.4375,-0.375 4.875,-0.84375 2.4375,-0.5625 4.312496,-0.5625 1.03125,0 1.6875,0.75 0.65625,0.75 1.59375,0.75 0.75,0 1.03125,-0.75 0.28125,-0.75 0.375,-1.78125 v -2.34375 q 0.375,-2.71875 4.59375,-14.25 4.3125,-11.625 5.71875,-20.25 h -6 q -0.28125,2.0625 -1.21875,14.0625 -0.9375,11.90625 -4.78125,19.6875 z m 37.3125,-1.96875 v -2.25 q 0,-2.25 0.1875,-4.5 l 0.28125,-4.59375 0.375,-3.09375 q 0.1875,-1.59375 0.1875,-3.1875 0,-3.9375 -1.125,-7.6875 -1.03125,-3.84375 -2.34375,-7.5 h -4.40625 q 0.1875,0.75 3.09375,10.875 2.90625,10.03125 2.90625,16.40625 0,5.4375 -2.53125,7.6875 -2.4375,2.25 -7.59375,3.84375 1.3125,-0.28125 2.71875,-0.65625 1.40625,-0.375 2.71875,-0.375 1.875,0 3.09375,0.9375 l 0.9375,0.46875 q 0.28125,0.1875 1.03125,0.1875 0.75,0 0.9375,-0.75 0.28125,-0.84375 0.375,-1.59375 0,-0.1875 -0.46875,-1.125 -0.375,-1.03125 -0.375,-3.09375 z M 109.74023,57.727968 q -1.59375,1.21875 -2.53125,1.21875 -0.84375,0 -0.84375,-1.125 0,-1.21875 0.84375,-1.21875 0.84375,0 2.53125,1.125 z"
         id="path8464"
         inkscape:connector-curvature="0" />
    </g>
  </g>
</svg>
