<?xml version="1.0" encoding="UTF-8" standalone="no"?>
<!-- Created with Inkscape (http://www.inkscape.org/) -->

<svg
   xmlns:dc="http://purl.org/dc/elements/1.1/"
   xmlns:cc="http://creativecommons.org/ns#"
   xmlns:rdf="http://www.w3.org/1999/02/22-rdf-syntax-ns#"
   xmlns:svg="http://www.w3.org/2000/svg"
   xmlns="http://www.w3.org/2000/svg"
   xmlns:sodipodi="http://sodipodi.sourceforge.net/DTD/sodipodi-0.dtd"
   xmlns:inkscape="http://www.inkscape.org/namespaces/inkscape"
   width="22.398645mm"
   height="37.653515mm"
   viewBox="0 0 22.398645 37.653515"
   version="1.1"
   id="svg8473"
   inkscape:version="0.92.4 (5da689c313, 2019-01-14)"
   sodipodi:docname="A22.svg">
  <defs
     id="defs8467" />
  <sodipodi:namedview
     id="base"
     pagecolor="#ffffff"
     bordercolor="#666666"
     borderopacity="1.0"
     inkscape:pageopacity="0.0"
     inkscape:pageshadow="2"
     inkscape:zoom="0.35"
     inkscape:cx="-406.11523"
     inkscape:cy="-356.26047"
     inkscape:document-units="mm"
     inkscape:current-layer="layer1"
     showgrid="false"
     fit-margin-top="0"
     fit-margin-left="0"
     fit-margin-right="0"
     fit-margin-bottom="0"
     inkscape:window-width="1920"
     inkscape:window-height="1017"
     inkscape:window-x="-8"
     inkscape:window-y="-8"
     inkscape:window-maximized="1" />
  <metadata
     id="metadata8470">
    <rdf:RDF>
      <cc:Work
         rdf:about="">
        <dc:format>image/svg+xml</dc:format>
        <dc:type
           rdf:resource="http://purl.org/dc/dcmitype/StillImage" />
        <dc:title></dc:title>
      </cc:Work>
    </rdf:RDF>
  </metadata>
  <g
     inkscape:label="Layer 1"
     inkscape:groupmode="layer"
     id="layer1"
     transform="translate(-20.138822,-16.919236)">
    <g
       aria-label="𓀚"
       transform="scale(0.26458333)"
       style="font-style:normal;font-variant:normal;font-weight:normal;font-stretch:normal;font-size:192px;line-height:1.25;font-family:sans-serif;-inkscape-font-specification:'sans-serif, Normal';font-variant-ligatures:normal;font-variant-caps:normal;font-variant-numeric:normal;font-feature-settings:normal;text-align:start;letter-spacing:0px;word-spacing:0px;writing-mode:lr-tb;text-anchor:start;fill:#000000;fill-opacity:1;stroke:none"
       id="flowRoot9018">
      <path
         d="m 76.115234,206.25922 v -3 h 6.09375 l 1.40625,-52.6875 0.9375,-31.78125 q 0.1875,-7.40625 0.46875,-13.5 -1.6875,-0.75 -2.4375,-2.0625 -0.75,-1.40625 -0.75,-2.4375 0,-0.46875 0.09375,-0.937502 0.09375,-0.46875 0.28125,-0.9375 l -0.46875,-0.84375 0.46875,-1.3125 0.46875,-0.46875 0.9375,-0.375 h 1.6875 l 0.375,-9.09375 h 3 l -0.375,9.46875 1.125,2.0625 q 0.46875,0.75 0.84375,1.5 0.375,0.750002 0.5625,1.031252 3.9375,2.34375 7.6875,4.78125 l 7.593746,4.96875 17.625,-17.437502 q 0.375,-0.1875 1.03125,-0.375 l 1.3125,-0.28125 q 0.65625,0 1.125,-0.28125 0.46875,-0.28125 0.46875,-0.84375 0,-1.3125 -0.9375,-1.59375 -0.84375,-0.375 -2.0625,-0.375 -2.90625,0 -3.84375,-0.75 -0.84375,-0.75 -0.84375,-3.375 v -1.5 h -0.0937 l -1.40625,-1.78125 q 0,-1.96875 2.25,-4.5 2.25,-2.53125 2.25,-5.53125 l 0.1875,-1.03125 q 1.21875,-3.1875 4.875,-5.0625 3.65625,-1.96875 7.96875,-1.96875 5.71875,0 8.90625,3.1875 3.28125,3.09375 3.28125,8.53125 0,4.40625 -2.0625,8.71875 -1.96875,4.21875 -4.6875,7.21875 4.3125,0.65625 6.65625,2.34375 2.34375,1.59375 3.65625,3.84375 1.3125,2.250002 2.90625,9.843752 l 2.15625,10.40625 q 1.03125,5.15625 1.03125,9.65625 0,3.5625 -0.75,7.3125 -0.65625,3.65625 -2.4375,8.0625 v 1.96875 h 6.09375 v 3 h -6.75 q -0.46875,0.75 -1.03125,1.96875 -0.5625,1.125 -1.59375,2.71875 -0.9375,0.375 -1.3125,0.5625 -1.78125,0 -3.28125,-1.21875 -0.28125,2.53125 -0.75,5.0625 -0.375,2.53125 -0.375,5.15625 0.5625,2.4375 0.65625,4.96875 0.0937,2.4375 0.0937,4.875 l -0.375,16.125 q 0,3.46875 0.28125,5.53125 0.28125,1.96875 0.9375,3.75 l 0.84375,2.4375 q 0.1875,0.5625 0.1875,1.78125 v 1.5 h 1.875 v 3 z m 43.593746,-28.03125 q 0.375,-3.65625 0.9375,-7.21875 0.65625,-3.5625 1.78125,-7.125 h -10.125 l -1.40625,-1.78125 q 0.75,-3.28125 1.78125,-7.03125 1.03125,-3.75 2.0625,-7.03125 h -1.21875 l -2.15625,2.34375 q -1.21875,1.3125 -2.25,2.34375 l -0.84375,0.1875 q -0.46875,0 -0.9375,0.28125 l -5.90625,-2.90625 h -7.312496 l -1.40625,-1.78125 v -3.9375 l 1.40625,-1.78125 h 7.312496 l 5.90625,-2.90625 q 0.46875,0.1875 0.9375,0.28125 l 0.84375,0.1875 q 1.03125,1.03125 2.25,2.34375 l 2.15625,2.34375 h 2.71875 q 2.625,-5.4375 5.34375,-10.125 2.8125,-4.78125 2.625,-4.59375 -0.75,-2.15625 -1.3125,-4.40625 -0.5625,-2.34375 -0.5625,-4.6875 0,-2.34375 0.65625,-4.3125 l -1.125,-8.90625 q -3,2.71875 -6.5625,5.53125 -3.46875,2.71875 -8.15625,6.28125 l -1.40625,0.1875 q -4.5,-2.625 -10.406246,-7.5 -5.90625,-4.96875 -7.3125,-6.1875 0,1.78125 -0.1875,6.84375 l -1.40625,45.09375 -1.21875,45 h 14.71875 l 0.281246,-2.34375 q 0.84375,-0.84375 4.96875,-1.40625 4.125,-0.5625 10.6875,-3.65625 1.21875,-1.78125 1.96875,-5.15625 0.84375,-3.375 1.3125,-7.3125 l 0.46875,-4.03125 z m 29.25,-32.0625 1.125,-0.28125 v 0.5625 l -2.0625,2.71875 1.6875,1.21875 2.15625,-3.1875 v -4.40625 q 1.3125,-4.21875 2.25,-8.15625 0.9375,-3.9375 0.9375,-7.96875 0,-5.0625 -1.21875,-10.03125 l -2.4375,-9.9375 q -0.9375,-3.75 -2.34375,-7.406252 -1.3125,-3.65625 -9.5625,-4.96875 l -1.40625,-1.78125 v -0.375 q -2.0625,-1.40625 -3.375,-3.375 -1.3125,-1.96875 -2.4375,-4.21875 0,-0.28125 0.1875,-0.65625 l 0.5625,-1.5 q 1.03125,-0.375 1.59375,-0.75 0.5625,-0.375 0.75,-1.3125 l -1.40625,0.375 -0.84375,-0.84375 q -0.375,-0.375 -1.03125,-0.9375 0,-0.28125 0.0937,-0.75 0,-1.59375 -3,-2.8125 -2.90625,-1.21875 -3.375,-1.40625 l -0.375,1.40625 q -0.5625,1.96875 -1.78125,3.1875 -1.125,1.125 -1.875,2.71875 l 1.21875,1.03125 v 4.125 q 1.03125,0.375 2.25,0.375 h 0.84375 q 2.53125,0 3.5625,1.3125 1.125,1.21875 1.125,2.90625 0,1.96875 -1.21875,3.28125 -1.21875,1.21875 -3,1.3125 -1.6875,0.09375 -1.875,0.46875 -0.0937,0.375 -0.46875,0.75 l -16.6875,16.593752 -0.84375,0.1875 q -0.46875,0 -0.9375,0.28125 l -11.156246,-7.3125 -3.5625,-2.25 q -0.1875,0 -0.46875,-0.5625 l -0.75,-0.84375 -1.59375,-2.25 -0.09375,1.875 q 0.1875,0.1875 6.1875,5.53125 6.093746,5.25 11.906246,8.71875 4.21875,-3 7.96875,-6 3.75,-3 7.21875,-6.46875 l 0.84375,-0.375 2.25,0.9375 1.5,12.09375 q 0,0.75 -0.375,1.6875 -0.28125,0.9375 -0.28125,1.6875 0,2.15625 0.375,4.21875 0.375,2.0625 1.125,4.03125 1.40625,-0.65625 5.625,-2.8125 4.3125,-2.25 7.125,-3.65625 0,-5.0625 1.03125,-10.125 1.125,-5.0625 3.75,-9.28125 l 2.71875,0.28125 q 3.46875,16.875 4.78125,19.6875 1.3125,2.8125 1.3125,3.75 0,0.75 -0.375,2.53125 l -0.5625,2.71875 q -0.375,2.71875 -0.75,5.53125 -0.28125,2.71875 -0.28125,5.53125 z m -9.28125,49.59375 q -0.1875,-6.5625 -2.34375,-16.21875 -2.15625,-9.65625 -2.25,-15.65625 h -1.875 q -0.84375,4.40625 -2.25,8.625 -1.3125,4.125 -2.71875,8.25 l -2.90625,8.34375 q -2.25,6.84375 -2.71875,9.9375 -0.375,3.09375 -0.84375,4.21875 h 5.34375 q 0.9375,-3.5625 3.75,-3.5625 2.4375,-0.75 4.6875,-1.40625 2.34375,-0.65625 4.125,-2.53125 z m -21.75,-47.71875 q -1.03125,3 -1.96875,6.46875 -0.9375,3.375 -1.6875,6.375 h 28.40625 q 0.28125,-3 0.84375,-6.375 0.65625,-3.375 0.65625,-6.46875 z m 9.09375,-16.21875 q -1.875,2.71875 -3.84375,6.375 -1.96875,3.5625 -3.5625,6.84375 h 24.5625 l -0.1875,-4.96875 q -0.28125,-4.5 -1.125,-8.25 -0.84375,-3.84375 -2.4375,-6.75 z m 8.8125,-64.875002 q -2.71875,0 -5.4375,1.03125 -2.625,1.03125 -3.9375,3.09375 0.375,0.1875 4.5,1.96875 4.125,1.6875 4.125,4.40625 h 0.375 l 0.65625,-0.09375 q 1.21875,0 1.78125,0.9375 0.65625,0.9375 0.65625,2.15625 0,1.3125 -0.9375,2.4375 -0.84375,1.03125 -1.96875,1.6875 1.125,3 3.75,4.875 2.15625,-2.15625 3.9375,-6.1875 1.875,-4.125 1.875,-7.78125 0,-4.125 -2.53125,-6.28125 -2.53125,-2.25 -6.84375,-2.25 z m 6.75,55.781252 q 2.625,4.96875 3.46875,10.59375 0.84375,5.625 1.03125,11.15625 l 1.59375,-2.34375 q 0,-4.03125 0.28125,-7.96875 0.28125,-3.9375 1.125,-7.875 -1.875,-4.3125 -3,-8.8125 -1.125,-4.59375 -2.0625,-9.28125 -1.40625,3.46875 -1.96875,7.125 -0.46875,3.5625 -0.46875,7.40625 z m -20.4375,60.1875 q -1.875,14.25 -4.5,15.375 -2.625,1.125 -3.375,1.3125 l -2.4375,0.84375 q -1.125,0.375 -1.6875,0.65625 l 4.21875,-0.1875 0.75,0.1875 0.65625,0.28125 q 0.375,0.1875 0.9375,0.28125 0.5625,0.0937 1.59375,0.0937 0.5625,0 1.125,-1.875 0.65625,-1.875 1.125,-4.03125 l 0.65625,-3 q 0.75,-3.65625 4.125,-12.84375 3.375,-9.1875 4.96875,-16.125 h -4.78125 q -1.3125,3.5625 -1.875,7.21875 -0.5625,3.5625 -0.9375,7.40625 z m 19.125,17.53125 q 0.46875,0 1.21875,0.28125 0.75,0.1875 1.21875,1.03125 h 0.65625 q 0.1875,0 0.5625,-0.0937 0.375,-0.0937 0.375,-0.46875 0,-1.125 -0.9375,-4.3125 -0.9375,-3.28125 -0.9375,-9.28125 0,-3.1875 0.0937,-6 l 0.1875,-4.59375 v -3 q 0,-2.53125 -0.1875,-5.0625 -0.0937,-2.625 -0.5625,-5.0625 h -4.875 q 0.46875,6.28125 1.875,12.375 1.40625,6.09375 2.15625,12.375 l 0.46875,2.8125 q 0.28125,1.59375 0.28125,3.1875 0,2.15625 -1.3125,3.46875 -1.21875,1.21875 -3.28125,1.96875 l -2.15625,0.84375 z m -31.96875,-52.125 q 0.84375,-0.84375 1.6875,-1.78125 l -1.6875,-1.6875 q -0.84375,-0.84375 -1.6875,-1.78125 l -2.90625,1.40625 q -1.6875,0.84375 -2.625,1.125 -0.84375,0.1875 -2.531246,0.1875 h -3.84375 v 1.5 h 3.84375 q 1.687496,0 2.531246,0.28125 0.9375,0.1875 2.625,0.9375 l 2.90625,1.5 z m 17.53125,-71.437502 q 0.1875,0 0.75,0.1875 l 1.40625,0.65625 q -1.3125,0.9375 -2.0625,0.9375 -0.75,0 -0.75,-0.9375 0,-0.84375 0.65625,-0.84375 z m -42.187496,22.03125 -0.46875,2.343752 0.84375,1.125 0.1875,-3.750002 -1.21875,-0.9375 z"
         id="path9026"
         inkscape:connector-curvature="0" />
    </g>
  </g>
</svg>
