<?xml version="1.0" encoding="UTF-8" standalone="no"?>
<!-- Created with Inkscape (http://www.inkscape.org/) -->

<svg
   xmlns:dc="http://purl.org/dc/elements/1.1/"
   xmlns:cc="http://creativecommons.org/ns#"
   xmlns:rdf="http://www.w3.org/1999/02/22-rdf-syntax-ns#"
   xmlns:svg="http://www.w3.org/2000/svg"
   xmlns="http://www.w3.org/2000/svg"
   xmlns:sodipodi="http://sodipodi.sourceforge.net/DTD/sodipodi-0.dtd"
   xmlns:inkscape="http://www.inkscape.org/namespaces/inkscape"
   width="21.728907mm"
   height="38.422462mm"
   viewBox="0 0 21.728907 38.422462"
   version="1.1"
   id="svg9035"
   inkscape:version="0.92.4 (5da689c313, 2019-01-14)"
   sodipodi:docname="A23.svg">
  <defs
     id="defs9029" />
  <sodipodi:namedview
     id="base"
     pagecolor="#ffffff"
     bordercolor="#666666"
     borderopacity="1.0"
     inkscape:pageopacity="0.0"
     inkscape:pageshadow="2"
     inkscape:zoom="0.35"
     inkscape:cx="-317.54492"
     inkscape:cy="-357.33664"
     inkscape:document-units="mm"
     inkscape:current-layer="layer1"
     showgrid="false"
     fit-margin-top="0"
     fit-margin-left="0"
     fit-margin-right="0"
     fit-margin-bottom="0"
     inkscape:window-width="1920"
     inkscape:window-height="1017"
     inkscape:window-x="-8"
     inkscape:window-y="-8"
     inkscape:window-maximized="1" />
  <metadata
     id="metadata9032">
    <rdf:RDF>
      <cc:Work
         rdf:about="">
        <dc:format>image/svg+xml</dc:format>
        <dc:type
           rdf:resource="http://purl.org/dc/dcmitype/StillImage" />
        <dc:title></dc:title>
      </cc:Work>
    </rdf:RDF>
  </metadata>
  <g
     inkscape:label="Layer 1"
     inkscape:groupmode="layer"
     id="layer1"
     transform="translate(3.295406,-15.865553)">
    <g
       aria-label="𓀛"
       transform="scale(0.26458333)"
       style="font-style:normal;font-variant:normal;font-weight:normal;font-stretch:normal;font-size:192px;line-height:1.25;font-family:sans-serif;-inkscape-font-specification:'sans-serif, Normal';font-variant-ligatures:normal;font-variant-caps:normal;font-variant-numeric:normal;font-feature-settings:normal;text-align:start;letter-spacing:0px;word-spacing:0px;writing-mode:lr-tb;text-anchor:start;fill:#000000;fill-opacity:1;stroke:none"
       id="flowRoot9580">
      <path
         d="m 25.419922,89.964296 q 0.5625,-2.15625 1.21875,-4.40625 0.75,-2.34375 0.75,-4.59375 h -0.1875 l -1.40625,-1.78125 q 0,-1.40625 0.84375,-2.4375 l 1.6875,-2.15625 q 0.75,-1.03125 1.59375,-2.4375 0.84375,-1.40625 0.84375,-3.46875 -2.625,-0.75 -2.90625,-3.28125 -0.1875,-2.625 -1.03125,-2.625 -0.28125,0 -0.46875,0.1875 -0.1875,0.09375 -0.65625,0.09375 -0.65625,0 -0.65625,-0.84375 0,-0.375 0.28125,-1.3125 l 0.09375,-0.1875 1.40625,-0.375 q 0.5625,-0.1875 1.125,-0.28125 0.5625,-0.09375 0.84375,-0.09375 1.03125,0 1.5,0.5625 0.5625,0.46875 0.5625,1.78125 l -0.1875,1.5 q -0.1875,1.03125 -0.1875,1.3125 0,0.65625 0.65625,0.65625 h 0.65625 q 1.3125,-2.34375 4.125,-3.375 2.8125,-1.03125 5.71875,-1.03125 4.3125,0 7.96875,2.25 3.65625,2.25 5.71875,6.1875 l 3.84375,-3.65625 2.15625,5.25 h -5.4375 l 7.875,10.78125 -2.90625,2.25 -4.40625,-8.625 q 0,3 -1.3125,6 -1.21875,2.90625 -4.875,6.9375 4.59375,0.75 8.4375,4.6875 3.84375,3.9375 4.6875,9.937504 0.9375,5.90625 1.96875,10.59375 1.125,4.59375 1.21875,6.28125 v 2.0625 q 0,4.875 -0.75,9.75 -0.65625,4.875 -2.25,9.65625 v 2.34375 h 6.09375 v 3 h -6.75 q -0.5625,1.40625 -1.125,2.71875 -0.5625,1.21875 -1.5,2.53125 l -1.3125,0.5625 q -1.03125,0 -1.78125,-0.375 -0.75,-0.375 -1.5,-0.9375 l -0.75,4.59375 q -0.375,2.34375 -0.375,4.6875 0.75,2.90625 0.84375,6 0.09375,3 0.09375,6 0,1.96875 -0.09375,4.03125 v 7.875 q 0,3 0.09375,6 0.09375,2.90625 0.46875,5.90625 0.5625,0.9375 0.9375,1.96875 0.46875,0.9375 0.46875,1.96875 0,1.875 -1.40625,3.09375 -1.40625,1.3125 -3.1875,1.3125 -0.84375,0 -1.875,-0.9375 -0.9375,-0.9375 -1.875,-0.9375 -0.1875,0 -4.5,0.84375 -4.3125,0.9375 -7.6875,0.9375 l -1.40625,-1.21875 -0.1875,-1.03125 q 0,-1.96875 5.25,-3.375 5.25,-1.5 7.96875,-5.4375 0,-6.1875 -2.15625,-15.75 -2.15625,-9.5625 -2.34375,-15.5625 h -1.78125 q -1.21875,7.96875 -6.1875,19.125 -4.875,11.15625 -5.8125,17.34375 -0.9375,6.1875 -4.6875,6.1875 -0.84375,0 -2.25,-0.46875 -1.40625,-0.46875 -2.53125,-1.3125 -2.625,0 -5.0625,0.75 -2.4375,0.75 -5.0625,0.75 -0.7500001,0 -1.5937501,-0.1875 -0.84375,-0.1875 -1.3125,-0.75 l -0.375,-0.84375 q -0.28125,-0.375 -0.28125,-0.65625 0,-0.5625 0.1875,-0.9375 l 0.28125,-0.46875 q 0.84375,-0.84375 2.4375,-1.03125 1.5937501,-0.1875 5.8125001,-1.6875 4.21875,-1.5 7.3125,-3.46875 1.6875,-3.84375 2.53125,-7.875 0.9375,-4.03125 1.5,-8.15625 l 1.125,-8.15625 q 0.5625,-4.125 1.59375,-8.15625 h -10.125 l -1.21875,-2.25 2.71875,-6.65625 q 1.40625,-3.5625 2.53125,-6.5625 h -3.09375 q -1.5,2.4375 -3.09375,3.28125 -1.59375,0.75 -3.46875,0.75 -2.34375,0 -3.5625,-1.125 -1.2187501,-1.21875 -1.2187501,-2.90625 h -1.59375 v -3 h 1.59375 q 0,-1.59375 0.9375001,-2.8125 0.9375,-1.21875 3.84375,-1.21875 1.96875,0 3.75,1.125 1.875,1.03125 2.71875,2.90625 h 4.6875 q 1.125,-1.96875 2.25,-4.3125 l 4.40625,-9.28125 2.0625,-4.3125 -4.5,1.6875 v -6 l 5.15625,1.78125 -0.9375,-4.03125 q -0.5625,-2.15625 -1.125,-3.9375 l -2.4375,-6.375 -1.125,2.4375 -2.625,5.8125 q -2.4375,5.4375 -5.4375,6.75 -2.90625,1.3125 -7.3125,1.3125 -1.875,0 -4.0312501,-0.0937 -2.0625,-0.0937 -4.40625,-0.0937 -2.4375,0 -5.25000002,0.1875 -2.81249998,0.0937 -5.81249998,0.84375 v 78.46875 h -3 v -78.375 q -1.4062499,0 -2.4374999,-1.59375 -0.9375,-1.6875 -0.9375,-3.75 0,-0.46875 0.1875,-1.21875 l -0.375,-0.65625 q 0,-0.5625 0.1875,-0.84375 0.28125,-0.375 0.75,-0.84375 l 0.9375,-0.375 1.6874999,0.0937 V 84.526796 h 3 v 34.031254 l 3.1875,1.6875 q 5.0625,-0.75 9.84375,-1.875 4.8750001,-1.125 9.9375001,-1.125 1.59375,-6.84375 4.59375,-13.21875 3,-6.375004 4.78125,-8.625004 1.78125,-2.34375 2.53125,-3.09375 0.75,-0.84375 3.28125,-1.21875 2.625,-0.46875 3.46875,-0.9375 0.9375,-0.46875 0.9375,-1.3125 0,-0.75 -0.84375,-1.03125 -0.75,-0.375 -1.78125,-0.46875 l -2.15625,-0.1875 q -1.125,0 -1.59375,-0.1875 v 3 z m -7.875,55.218754 q -0.5625,-0.84375 -1.40625,-1.5 -0.84375,-0.65625 -2.0625,-0.65625 -1.78125,0 -1.78125,1.96875 v 1.125 q 0,1.96875 1.78125,1.96875 1.3125,0 2.15625,-0.375 0.84375,-0.46875 1.3125,-1.6875 z m 35.25,-73.593754 q -1.59375,-3.46875 -4.5,-5.34375 -2.90625,-1.875 -6.5625,-1.875 -2.25,0 -4.59375,0.75 -2.25,0.75 -3.1875,2.71875 z m -7.6875,11.15625 1.40625,2.0625 q 0.65625,1.03125 1.6875,1.78125 2.4375,-2.53125 3.84375,-5.25 1.40625,-2.8125 1.40625,-6.09375 v -0.5625 q -0.1875,0 -10.3125,-1.96875 0.84375,1.03125 0.84375,1.6875 v 0.375 l 0.75,-0.09375 q 0.9375,0 1.78125,0.65625 0.9375,0.65625 0.9375,1.96875 0,1.3125 -0.65625,2.4375 -0.65625,1.03125 -2.25,1.96875 z m 8.8125,23.812504 q -1.59375,3.9375 -2.0625,8.0625 -0.375,4.03125 -0.375,8.25 2.53125,4.59375 3.375,9.46875 0.84375,4.875 1.125,10.03125 l 1.59375,-1.59375 q 0,-3.9375 0.1875,-7.875 0.28125,-3.9375 1.21875,-7.875 -1.21875,-2.25 -2.0625,-4.6875 -0.75,-2.53125 -1.3125,-4.96875 l -0.375,-1.5 q -0.28125,-1.125 -0.5625,-2.53125 l -0.46875,-2.71875 q -0.28125,-1.3125 -0.28125,-2.0625 z m -0.84375,91.03125 q -0.46875,-3.28125 -0.5625,-6.375 -0.09375,-3.1875 -0.09375,-6.46875 v -4.3125 l 0.09375,-7.3125 q 0,-2.625 -0.09375,-5.25 -0.09375,-2.625 -0.5625,-5.34375 h -4.875 q 0.46875,6.28125 1.78125,12.375 1.3125,6 2.15625,12.1875 l 0.46875,3 q 0.1875,1.6875 0.1875,2.71875 0,2.71875 -2.0625,4.6875 -1.96875,1.875 -5.25,3.5625 1.03125,-0.28125 2.8125,-0.46875 1.78125,-0.28125 3,-0.28125 1.125,0 1.6875,0.84375 0.65625,0.75 1.3125,0.75 0.65625,0 0.9375,-0.46875 0.28125,-0.46875 0.28125,-0.9375 0,-0.375 -0.1875,-0.84375 -0.09375,-0.5625 -0.84375,-1.59375 z m -27.9375,-0.5625 q -1.21875,0.84375 -3,1.78125 -1.78125,0.9375 -3.75,1.875 1.40625,-0.28125 2.8125,-0.28125 l 1.3125,0.5625 q 0.9375,0.9375 2.625,0.9375 1.125,0 1.59375,-0.75 0.5625,-0.75 0.5625,-2.53125 0,-1.78125 0.9375,-4.6875 0.9375,-2.90625 3.1875,-8.625 l 2.90625,-7.5 q 1.40625,-3.75 2.71875,-7.5 1.3125,-3.84375 2.25,-7.78125 h -6.28125 q -1.78125,5.90625 -3,16.59375 -1.21875,10.59375 -4.3125,17.15625 z m 1.875,-49.96875 -5.0625,12.46875 h 29.625 q 0.1875,-2.71875 0.75,-6.1875 0.5625,-3.46875 0.75,-6.28125 z m 10.3125,-20.8125 q -2.25,4.21875 -4.40625,8.90625 -2.15625,4.6875 -4.3125,8.90625 h 24.46875 q -0.28125,-7.3125 -1.21875,-11.71875 -0.84375,-4.5 -2.625,-7.5 z m -43.2187501,-2.34375 1.40625,-0.28125 q 0.65625,-0.1875 1.3125,-0.28125 l 1.3125,-0.1875 q 0.5625,-0.1875 2.81249998,-0.28125 l 4.59375002,-0.0937 q 1.40625,0 3,-0.0937 1.5000001,0 3.2812501,-0.0937 1.5,0 6.46875,-0.375 5.0625,-0.375 10.59375,-18.84375 l 3.09375,0.28125 q 0.1875,3.46875 2.0625,7.875 1.96875,4.40625 3.5625,11.625 l 10.875,-1.21875 q 0,-5.34375 0.9375,-10.59375 1.03125,-5.25 3.84375,-10.03125 l 2.71875,0.28125 q 0.65625,3.28125 1.6875,9.09375 1.125,5.8125 2.15625,8.34375 l 0.9375,2.25 q 0.46875,1.21875 0.84375,2.34375 0.375,1.03125 0.375,1.6875 0,0.75 -0.84375,4.96875 -0.75,4.21875 -0.75,11.15625 l -0.09375,0.9375 -2.25,2.0625 1.40625,1.03125 -2.34375,3.28125 1.59375,1.03125 2.0625,-3.1875 v -4.875 q 0,-0.9375 1.3125,-5.90625 1.40625,-4.96875 1.40625,-15.09375 l -1.40625,-7.6875 q -0.1875,-0.9375 -2.15625,-10.5 -1.875,-9.656254 -11.53125,-11.062504 l -1.40625,-1.78125 v -0.375 q -1.96875,-1.125 -3.46875,-3.46875 -1.40625,-2.0625 -2.34375,-4.125 l 0.75,-2.15625 q 1.03125,0 1.6875,-0.46875 0.75,-0.5625 0.75,-1.59375 -0.65625,0 -1.5,0.375 l -1.875,-1.78125 0.09375,-0.375 q 0,-0.75 -0.9375,-1.78125 -0.9375,-1.03125 -4.03125,-1.96875 l -2.90625,-0.9375 q -0.46875,3 -2.25,4.96875 -1.6875,1.96875 -1.875,2.4375 0.84375,0.46875 1.125,1.40625 0.375,0.84375 0.375,1.96875 0,1.03125 -0.09375,1.3125 l 1.6875,0.75 2.90625,0.65625 q 2.34375,0.46875 3.1875,1.21875 0.9375,0.75 1.21875,1.3125 0.375,0.46875 0.375,1.40625 0,2.34375 -1.59375,3.5625 -1.5,1.21875 -3.84375,1.6875 l -3.28125,0.65625 q -3.65625,3.65625 -6.75,10.687504 -3.09375,6.9375 -4.6875,14.15625 l -1.5,1.03125 q -0.5625,0 -1.125,-0.0937 h -1.40625 q -3.5625,0 -9.0937501,0.65625 -5.53125,0.65625 -9.75,1.6875 l -2.71875,-1.3125 z M 37.888672,74.870546 q -2.0625,1.21875 -3.28125,1.21875 -0.75,0 -0.75,-0.65625 l 0.09375,-0.5625 q 0.28125,-1.125 1.3125,-1.125 0.9375,0 2.625,1.125 z m -47.4375001,44.906254 -0.5624999,2.625 1.1249999,1.21875 v -3.46875 z"
         id="path9588"
         inkscape:connector-curvature="0" />
    </g>
  </g>
</svg>
