<?xml version="1.0" encoding="UTF-8" standalone="no"?>
<!-- Created with Inkscape (http://www.inkscape.org/) -->

<svg
   xmlns:dc="http://purl.org/dc/elements/1.1/"
   xmlns:cc="http://creativecommons.org/ns#"
   xmlns:rdf="http://www.w3.org/1999/02/22-rdf-syntax-ns#"
   xmlns:svg="http://www.w3.org/2000/svg"
   xmlns="http://www.w3.org/2000/svg"
   xmlns:sodipodi="http://sodipodi.sourceforge.net/DTD/sodipodi-0.dtd"
   xmlns:inkscape="http://www.inkscape.org/namespaces/inkscape"
   width="22.993944mm"
   height="38.050388mm"
   viewBox="0 0 22.993945 38.050387"
   version="1.1"
   id="svg4525"
   inkscape:version="0.92.4 (5da689c313, 2019-01-14)"
   sodipodi:docname="A24.svg">
  <defs
     id="defs4519" />
  <sodipodi:namedview
     id="base"
     pagecolor="#ffffff"
     bordercolor="#666666"
     borderopacity="1.0"
     inkscape:pageopacity="0.0"
     inkscape:pageshadow="2"
     inkscape:zoom="0.35"
     inkscape:cx="898.07714"
     inkscape:cy="-231.85588"
     inkscape:document-units="mm"
     inkscape:current-layer="layer1"
     showgrid="false"
     fit-margin-top="0"
     fit-margin-left="0"
     fit-margin-right="0"
     fit-margin-bottom="0"
     inkscape:window-width="1920"
     inkscape:window-height="1017"
     inkscape:window-x="-8"
     inkscape:window-y="-8"
     inkscape:window-maximized="1" />
  <metadata
     id="metadata4522">
    <rdf:RDF>
      <cc:Work
         rdf:about="">
        <dc:format>image/svg+xml</dc:format>
        <dc:type
           rdf:resource="http://purl.org/dc/dcmitype/StillImage" />
        <dc:title></dc:title>
      </cc:Work>
    </rdf:RDF>
  </metadata>
  <g
     inkscape:label="Layer 1"
     inkscape:groupmode="layer"
     id="layer1"
     transform="translate(324.92875,-49.437733)">
    <g
       aria-label="𓀉"
       style="font-style:normal;font-variant:normal;font-weight:normal;font-stretch:normal;font-size:50.79999924px;line-height:1.25;font-family:sans-serif;-inkscape-font-specification:sans-serif;font-variant-ligatures:normal;font-variant-caps:normal;font-variant-numeric:normal;font-feature-settings:normal;text-align:start;letter-spacing:0px;word-spacing:0px;writing-mode:lr-tb;text-anchor:start;fill:#000000;fill-opacity:1;stroke:none;stroke-width:0.26458332"
       id="text5105" />
    <g
       aria-label="𓀆"
       transform="matrix(0.26458333,0,0,0.26458333,-199.96101,81.431167)"
       style="font-style:normal;font-variant:normal;font-weight:normal;font-stretch:normal;font-size:192px;line-height:1.25;font-family:sans-serif;-inkscape-font-specification:sans-serif;font-variant-ligatures:normal;font-variant-caps:normal;font-variant-numeric:normal;font-feature-settings:normal;text-align:start;letter-spacing:0px;word-spacing:0px;writing-mode:lr-tb;text-anchor:start;fill:#000000;fill-opacity:1;stroke:none"
       id="flowRoot5135" />
    <g
       aria-label="𓀜"
       transform="matrix(0.26458333,0,0,0.26458333,-294.41898,60.729178)"
       style="font-style:normal;font-variant:normal;font-weight:normal;font-stretch:normal;font-size:192px;line-height:1.25;font-family:sans-serif;-inkscape-font-specification:sans-serif;font-variant-ligatures:normal;font-variant-caps:normal;font-variant-numeric:normal;font-feature-settings:normal;text-align:start;letter-spacing:0px;word-spacing:0px;writing-mode:lr-tb;text-anchor:start;fill:#000000;fill-opacity:1;stroke:none"
       id="flowRoot5252">
      <path
         d="m -56.4375,18.917421 q -0.65625,-4.875 -2.4375,-7.78125 -1.78125,-2.9062502 -6.28125,-7.4062502 L -70.125,10.573671 q -2.90625,3.9375 -5.0625,6.65625 -2.0625,2.625 -3.46875,3.65625 l -14.625,5.625 q -1.6875,0.65625 -3.75,1.875 -1.96875,1.125 -3.5625,1.875 l 2.8125,10.3125 h -3.09375 l -2.71875,-9.75 q -2.0625,0 -2.90625,-1.40625 -0.75,-1.5 -1.03125,-2.4375 -0.75,-0.1875 -1.125,-0.5625 -0.28125,-0.46875 -0.28125,-1.3125 0,-0.46875 0.28125,-1.21875 0.375,-0.375 1.59375,-0.5625 l 1.59375,-0.28125 -4.6875,-22.96875019 -1.96875,-0.46875 q -1.40625,-0.28125 -2.34375,-1.31250001 -0.84375,-1.125 -0.84375,-2.53125 0,-3.5625 4.3125,-4.6875 -0.1875,-1.4062498 -0.375,-5.3437498 -0.0937,-3.9375 -0.0937,-9.375 0,-3.84375 0.0937,-7.875 0.1875,-4.03125 0.5625,-7.96875 h 3 l -0.375,6.375 q -0.1875,2.8125 -0.28125,6.375 -0.0937,3.46875 -0.0937,6.9375 0,3.28125 0.0937,6.1875 0.1875,2.90625 0.5625,4.7812498 l 2.15625,1.40625 q 2.25,1.40625 9.75,5.53125 7.5,4.03125 15.84375,10.3125 l 2.90625,-4.875 q 1.40625,-2.15625 2.53125,-3.18749999 1.21875,-1.125 3.1875,-5.06250001 1.96875,-4.03125 4.03125,-5.6249998 2.15625,-1.6875 2.4375,-2.625 0,-1.125 -2.15625,-2.4375 l -3.65625,-0.09375 q -1.875,0 -3.375,-0.75 -1.40625,-0.75 -1.40625,-2.25 0,-0.46875 0.1875,-1.03125 l 0.28125,-1.3125 -0.09375,-0.1875 q -1.125,-0.375 -2.25,-0.375 l -1.40625,-1.78125 q 0,-1.59375 1.5,-3.75 1.5,-2.25 1.5,-4.78125 v -0.5625 q 1.40625,-6.28125 4.5,-8.34375 3.1875,-2.0625 8.15625,-2.0625 6.375,0 9.1875,3.09375 2.8125,3.09375 2.8125,8.25 v 1.96875 q -0.1875,2.90625 -0.5625,4.96875 -0.375,2.0625 -1.03125,3 6.46875,9.1875 11.34375,20.81249981 4.875,11.62500019 5.8125,22.21875019 l 0.5625,6.75 q 0.5625,5.71875 1.03125,11.4375 0.46875,5.625 0.46875,11.34375 0.65625,2.90625 2.25,9.9375 1.59375,6.9375 1.875,12.09375 v 4.3125 l -0.09375,1.96875 q 0,3.46875 0.1875,6.84375 l 0.375,6.75 q 0.28125,0.75 0.46875,1.5 0.1875,0.75 0.1875,1.59375 0,2.0625 -1.125,3.46875 -1.03125,1.499999 -3.28125,1.499999 -1.3125,0 -2.71875,-0.375 -1.3125,-0.375 -2.625,-0.46875 h -0.75 l -7.875,0.75 h -0.9375 q -1.125,-0.1875 -1.6875,-0.65625 -0.5625,-0.468749 -0.84375,-2.062499 l 1.40625,-1.78125 q 3.375,-0.375 6.375,-1.125 3,-0.75 5.8125,-2.71875 l 0.09375,-0.65625 q 0,-8.4375 -2.71875,-19.6875 -2.625,-11.34375 -3.5625,-13.21875 -0.9375,-1.875 -1.21875,-4.96875 h -6.46875 l -0.5625,3.28125 q -1.03125,6.09375 -4.6875,14.53125 -3.5625,8.34375 -4.5,12.84375 l -2.0625,8.8125 -0.09375,0.5625 0.5625,3.09375 q 0,1.125 -1.125,2.4375 -1.125,1.312499 -3.75,1.312499 -1.59375,0 -3,-0.375 -1.3125,-0.375 -1.96875,-0.375 h -0.9375 q -2.15625,0 -4.5,0.28125 -2.34375,0.28125 -4.78125,0.28125 -1.6875,0 -2.53125,-0.375 -0.75,-0.375 -1.59375,-1.312499 l 0.9375,-2.625 0.9375,-0.1875 q 5.25,-1.21875 7.96875,-2.34375 2.8125,-1.21875 5.15625,-3 4.03125,-7.6875 6.1875,-19.40625 2.15625,-11.71875 5.25,-22.875 3.09375,-11.15625 3.28125,-24.75 v -1.5 q -0.28125,0 -0.84375,0.09375 -2.34375,0 -4.125,-0.5625 -1.6875,-0.5625 -1.6875,-2.25 0,-0.84375 1.03125,-1.21875 1.03125,-0.375 2.0625,-0.375 0.84375,0 1.78125,0.28125 0.9375,0.1875 1.6875,0.46875 z m -16.59375,-49.125 q -0.28125,3.375 -2.53125,6.09375 1.40625,0.375 2.34375,1.21875 1.03125,0.84375 1.03125,2.25 0,0.65625 -0.375,2.0625 1.21875,0.28125 2.25,0.28125 l 2.625,-0.09375 q 1.875,0 3.75,1.6875 1.875,1.6875 1.875,3.75 0,1.59375 -1.21875,2.71875 l -2.34375,2.1562498 q -2.15625,2.15625 -3.28125,4.875 -1.125,2.62500001 -3.28125,5.0625 -2.15625,2.34375 -5.0625,7.78125 -2.90625,5.3437502 -3.46875,6.1875002 -0.46875,0.75 -4.3125,2.4375 l -5.15625,2.34375 q -2.34375,1.21875 -4.125,1.875 -1.78125,0.65625 -4.21875,1.78125 l -1.6875,1.125 q -0.9375,0.65625 -1.6875,0.84375 l -1.21875,0.09375 q -1.125,0 -1.6875,0.46875 0.375,1.03125 0.84375,1.3125 h 2.8125 q 1.5,-1.6875 9.65625,-4.96875 8.25,-3.28125 11.625,-4.96875 L -66.65625,0.54242081 h 2.625 Q -60,3.9174208 -57,8.6049208 q 3,4.5937502 3.5625,10.3125002 l 13.5,-4.96875 q -1.78125,-9.1875002 -6.1875,-17.8125002 -4.3125,-8.7187498 -9.65625,-16.2187498 -5.25,-2.34375 -6.65625,-3.84375 -1.40625,-1.59375 -1.40625,-3.84375 0,-1.5 1.125,-2.25 -0.46875,-0.46875 -0.75,-0.46875 l -1.96875,1.5 z m 4.6875,2.71875 q -1.78125,1.21875 -2.625,1.21875 -0.84375,0 -0.84375,-1.21875 0,-1.125 0.84375,-1.125 0.9375,0 2.625,1.125 z m -14.0625,40.21875 0.84375,-1.59375 Q -88.5,5.8861708 -97.6875,0.26117081 -106.875,-5.3638292 -108.46875,-6.3013292 h -2.25 l -0.5625,0.09375 q -0.65625,0.46875 -0.84375,1.21875 -0.0937,0.75 -0.0937,1.5 0.65625,0.375 1.59375,0.375 l 6.1875,0.46875 z m 28.03125,45.5625 0.65625,-3.75 q -1.03125,0.1875 -2.15625,0.46875 -1.03125,0.28125 -2.25,0.46875 -1.96875,6.5625 -3.09375,13.21875 -1.03125,6.65625 -3,13.40625 l -1.125,3.84375 q -1.78125,5.625 -4.21875,7.6875 -2.34375,2.0625 -7.3125,3.84375 l 1.40625,-0.1875 h 1.40625 q 2.15625,0 4.125,0.375 1.96875,0.375 4.3125,0.375 l 0.375,-0.375 0.28125,-0.375 q 0,-0.84375 -0.1875,-1.59375 -0.1875,-0.84375 -0.1875,-1.875 l 1.21875,-5.53125 q 0.28125,-1.21875 0.75,-2.90625 l 1.03125,-4.3125 2.4375,-6.1875 q 1.03125,-2.71875 3,-8.0625 1.96875,-5.4375 2.53125,-8.53125 z m 18,-5.34375 q -1.21875,0.1875 -2.4375,0.46875 -1.125,0.28125 -2.34375,0.46875 0,0.9375 0.375,2.25 0.375,1.3125 0.84375,2.625 L -39,61.292421 q 0.84375,2.34375 2.25,9.1875 1.5,6.75 2.34375,11.8125 l 0.5625,3.75 q 0.1875,1.21875 0.28125,2.625 0.1875,1.3125 0.1875,2.4375 0,1.5 -0.28125,2.34375 l -0.65625,1.21875 q -2.15625,1.59375 -4.59375,2.625 h 0.75 q 1.5,0 2.90625,0.375 1.40625,0.375 2.90625,0.375 0.5625,-0.1875 0.75,-0.84375 0.28125,-0.65625 0.28125,-1.125 0,-0.75 -0.5625,-1.59375 -0.46875,-0.9375 -0.46875,-10.21875 v -3.65625 q 0,-7.03125 -0.65625,-11.53125 -0.65625,-4.59375 -3.375,-16.125 z m -36.28125,-86.15625 3.28125,0.5625 q 1.59375,0.375 3.1875,0.5625 0.84375,-1.3125 2.53125,-1.3125 1.3125,0 2.8125,0.9375 1.5,0.9375 1.5,1.96875 v 0.375 q 0,0.75 -0.375,1.40625 -0.375,0.65625 -1.125,1.03125 0,1.6875 1.96875,2.8125 1.96875,1.125 3.5625,1.6875 1.21875,-3.1875 1.21875,-7.125 0,-4.40625 -1.78125,-6.84375 -1.6875,-2.4375 -6.5625,-2.4375 -4.5,0 -6.75,1.3125 -2.25,1.3125 -3.46875,5.0625 z m -34.5,33.28124981 4.78125,22.78125019 1.78125,-0.375 6.75,-3.28125 q 3.09375,-1.59375 9,-4.5 l -20.25,-15.00000019 z m 54,21.93750019 v 0.84375 l 0.09375,0.75 v 0.9375 q 0,5.71875 -1.125,12.9375 -1.03125,7.125 -3,14.71875 1.59375,-0.46875 3.09375,-0.65625 1.5,-0.28125 3.9375,-0.46875 h 2.53125 l 1.78125,0.09375 H -42.75 q 1.5,0 3,-0.46875 1.5,-0.46875 3.09375,-0.75 0,-5.625 -1.21875,-18.5625 -1.21875,-12.9375 -1.5,-14.4375 z"
         id="path5260"
         inkscape:connector-curvature="0" />
    </g>
  </g>
</svg>
