<?xml version="1.0" encoding="UTF-8" standalone="no"?>
<!-- Created with Inkscape (http://www.inkscape.org/) -->

<svg
   xmlns:dc="http://purl.org/dc/elements/1.1/"
   xmlns:cc="http://creativecommons.org/ns#"
   xmlns:rdf="http://www.w3.org/1999/02/22-rdf-syntax-ns#"
   xmlns:svg="http://www.w3.org/2000/svg"
   xmlns="http://www.w3.org/2000/svg"
   xmlns:sodipodi="http://sodipodi.sourceforge.net/DTD/sodipodi-0.dtd"
   xmlns:inkscape="http://www.inkscape.org/namespaces/inkscape"
   width="25.747267mm"
   height="38.050377mm"
   viewBox="0 0 25.747267 38.050377"
   version="1.1"
   id="svg9597"
   inkscape:version="0.92.4 (5da689c313, 2019-01-14)"
   sodipodi:docname="A25.svg">
  <defs
     id="defs9591" />
  <sodipodi:namedview
     id="base"
     pagecolor="#ffffff"
     bordercolor="#666666"
     borderopacity="1.0"
     inkscape:pageopacity="0.0"
     inkscape:pageshadow="2"
     inkscape:zoom="0.35"
     inkscape:cx="-368.97261"
     inkscape:cy="-354.57297"
     inkscape:document-units="mm"
     inkscape:current-layer="layer1"
     showgrid="false"
     fit-margin-top="0"
     fit-margin-left="0"
     fit-margin-right="0"
     fit-margin-bottom="0"
     inkscape:window-width="1920"
     inkscape:window-height="1017"
     inkscape:window-x="-8"
     inkscape:window-y="-8"
     inkscape:window-maximized="1" />
  <metadata
     id="metadata9594">
    <rdf:RDF>
      <cc:Work
         rdf:about="">
        <dc:format>image/svg+xml</dc:format>
        <dc:type
           rdf:resource="http://purl.org/dc/dcmitype/StillImage" />
        <dc:title></dc:title>
      </cc:Work>
    </rdf:RDF>
  </metadata>
  <g
     inkscape:label="Layer 1"
     inkscape:groupmode="layer"
     id="layer1"
     transform="translate(-10.311502,-16.968858)">
    <g
       aria-label="ð“€"
       transform="scale(0.26458333)"
       style="font-style:normal;font-variant:normal;font-weight:normal;font-stretch:normal;font-size:192px;line-height:1.25;font-family:sans-serif;-inkscape-font-specification:'sans-serif, Normal';font-variant-ligatures:normal;font-variant-caps:normal;font-variant-numeric:normal;font-feature-settings:normal;text-align:start;letter-spacing:0px;word-spacing:0px;writing-mode:lr-tb;text-anchor:start;fill:#000000;fill-opacity:1;stroke:none"
       id="flowRoot10142">
      <path
         d="m 127.00391,135.85297 q 0,-1.59375 0.375,-2.8125 l 0.84375,-2.4375 q -1.03125,-2.625 -1.78125,-9.1875 -0.65625,-6.65625 -0.65625,-6.75 0,-1.6875 -2.90625,-6 -2.8125,-4.40625 -5.625,-5.90625 1.78125,4.6875 3.75,12.1875 1.96875,7.40625 3.75,12.65625 1.875,5.15625 1.875,9.75 l -0.46875,9.28125 q 0,11.8125 1.03125,13.875 1.03125,1.96875 2.34375,7.5 1.40625,5.4375 1.40625,14.53125 v 9.09375 q 0,7.21875 0.5625,8.625 0.5625,1.3125 0.5625,2.8125 0,1.59375 -0.75,2.90625 -0.75,1.3125 -2.53125,1.78125 l -1.59375,0.1875 q -1.78125,0 -3.75,-0.46875 -1.875,-0.46875 -3.75,-0.46875 -1.59375,0 -3.09375,0.375 -1.5,0.375 -2.8125,0.375 -1.21875,0 -2.15625,-0.5625 -0.84375,-0.5625 -1.40625,-2.15625 l 1.40625,-1.78125 q 3.28125,-0.46875 6.375,-1.125 3.09375,-0.65625 5.8125,-2.71875 0,-1.03125 0.0937,-2.90625 0,-12.65625 -3.75,-21.65625 -3.75,-9 -3.9375,-13.96875 h -6.1875 q -1.125,7.78125 -3.84375,15.09375 -2.71875,7.3125 -5.25,14.71875 l -1.593754,4.6875 q -0.9375,2.53125 -1.21875,4.875 v 0.5625 q 0,0.9375 0.1875,1.78125 0.28125,0.75 0.28125,1.5 l -0.09375,0.65625 q -0.375,1.78125 -1.6875,2.34375 -1.3125,0.65625 -2.90625,0.65625 -1.125,0 -2.25,-0.28125 l -1.96875,-0.375 q -0.46875,0 -1.59375,-0.0937 l -8.34375,0.84375 q -1.5,0 -2.8125,-0.46875 -1.3125,-0.375 -2.53125,-1.5 l 0.46875,-2.53125 7.5,-2.15625 q 3.46875,-0.9375 7.03125,-3.5625 4.21875,-7.59375 6.65625,-21.46875 2.4375,-13.96875 2.90625,-14.625 0.46875,-0.65625 3.750004,-17.25 l 2.90625,-14.90625 -1.78125,-3.65625 -5.625004,-10.3125 q -2.15625,-3.9375 -3.84375,-5.71875 -1.59375,-1.875 -3.28125,-1.875 -1.875,0 -3.65625,1.875 -1.6875,1.78125 -3.28125,4.125 l -3.09375,4.5 q -1.03125,1.5 -1.875,2.25 -0.84375,0.75 -2.53125,1.125 l -3.84375,0.9375 -2.53125,0.46875 -6.28125,1.5 q -1.125,0.28125 -2.25,0.46875 l -3,0.65625 -1.5,1.40625 5.34375,8.0625 h -3.46875 l -4.5,-7.40625 -1.96875,-0.1875 -0.65625,-0.375 -0.5625,-0.375 -1.21875,-2.53125 -1.59375,-0.375 -0.9375,-1.125 q 0,-0.75 -0.09375,-0.9375 0.1875,-0.46875 1.21875,-0.84375 1.125,-0.375 1.40625,-0.84375 -4.875,-5.90625 -8.0625,-12.1875 -3.1875,-6.28125 -3.1875,-11.625002 0,-3.28125 0.75,-4.96875 0.75,-1.78125 1.6875,-3.09375 h 3.5625 q -1.21875,1.3125 -2.15625,3.375 -0.84375,1.96875 -0.84375,4.59375 0,4.406252 3.375,11.062502 3.375,6.5625 7.21875,11.53125 0.9375,0.28125 2.4375,0.5625 1.5,0.28125 2.4375,0.65625 4.5,-1.21875 8.4375,-2.90625 4.03125,-1.6875 8.53125,-2.8125 l 2.4375,-4.6875 q 6.46875,-12.562502 12.1875,-13.593752 5.71875,-1.125 7.03125,-2.53125 -0.1875,-2.15625 -5.625,-2.53125 -5.4375,-0.375 -5.625,-2.8125 -0.09375,-2.53125 -1.5,-2.90625 h -0.375 l -1.40625,-1.78125 q 0,-1.59375 1.5,-3.84375 1.5,-2.25 1.5,-5.25 0,-4.78125 4.03125,-7.5 4.03125,-2.8125 10.78125,-2.8125 5.062504,0 8.062504,2.625 3,2.625 3,11.53125 0,2.34375 -0.84375,4.6875 -0.75,2.25 -2.8125,3.5625 -0.375,0.65625 -0.375,1.5 0,0.84375 0.375,1.6875 0.46875,0.75 1.03125,1.5 l 2.71875,-0.1875 q 1.3125,0 2.625,-0.09375 4.3125,0 6.46875,1.5 2.15625,1.40625 6.75,7.3125 4.59375,5.812502 6.28125,11.062502 1.78125,5.15625 1.78125,19.5 0.75,1.3125 1.3125,3.28125 0.5625,1.875 0.5625,3.84375 0,1.5 -0.46875,2.34375 -0.375,0.75 -1.40625,1.5 v 1.5 q -0.46875,0.375 -0.84375,0.75 l -0.75,0.75 q -2.53125,0 -4.21875,-2.625 -1.59375,-2.71875 -1.59375,-5.8125 z m -3.46875,1.5 q 0,-2.8125 -0.75,-5.90625 -0.75,-3.09375 -1.5,-4.875 l -1.875,0.46875 -3.84375,1.125 -7.125,2.25 q -1.3125,7.03125 -2.71875,13.78125 l -2.8125,13.6875 h 20.71875 q -0.28125,-2.71875 -0.375,-5.4375 l -0.1875,-5.15625 q 0,-1.03125 0.0937,-2.71875 l 0.1875,-3.28125 q 0,-0.9375 0.0937,-1.96875 0,-0.9375 0.0937,-1.96875 z M 99.722656,79.040468 q 0,1.125 1.875004,2.4375 1.875,1.21875 4.03125,2.25 1.21875,-1.03125 1.5,-2.90625 0.375,-1.96875 0.375,-3.75 0,-6.46875 -2.4375,-8.25 -2.34375,-1.78125 -6.562504,-1.78125 -4.21875,0 -7.3125,1.59375 -3.09375,1.5 -3.5625,4.875 l 2.71875,0.375 2.71875,0.5625 q 0.28125,0 1.21875,0.1875 0.84375,-1.3125 2.53125,-1.3125 1.03125,0 1.96875,0.65625 1.03125,0.5625 2.062504,1.3125 0,0.5625 0.0937,1.03125 0,0.75 -0.375,1.5 -0.375,0.65625 -0.843754,1.21875 z m -1.5,110.437502 q 2.437504,-7.03125 5.062504,-14.0625 2.625,-7.03125 3.65625,-14.53125 h -4.6875 q -1.40625,4.78125 -3.281254,15.5625 -1.78125,10.6875 -3.75,15.75 -1.875,5.0625 -3.75,7.59375 -1.78125,2.4375 -7.96875,4.40625 0.75,0 1.40625,-0.0937 h 1.125 q 2.4375,0 4.3125,0.375 1.875,0.28125 4.5,0.28125 0.375,0 0.75,-0.65625 0,-0.9375 -0.28125,-1.78125 -0.1875,-0.84375 -0.1875,-1.875 v -0.5625 q 0.375,-2.53125 1.3125,-5.25 z m 29.625004,-5.25 q 0,-6.46875 -0.75,-12 -0.75,-5.625 -2.8125,-11.34375 h -5.0625 q 0.1875,2.25 0.75,4.5 0.5625,2.15625 1.40625,4.3125 l 1.59375,4.3125 q 2.15625,5.53125 3,10.96875 0.9375,5.34375 0.9375,10.96875 v 2.0625 q 0,1.125 -0.0937,2.15625 l -0.65625,1.21875 q -2.25,1.6875 -4.59375,2.625 h 0.75 l 5.8125,0.75 q 0.1875,0 0.5625,-0.5625 0.46875,-0.65625 0.46875,-1.125 0,-0.65625 -0.65625,-1.875 -0.5625,-1.21875 -0.5625,-4.125 l 0.0937,-1.78125 q 0,-0.84375 -0.0937,-3.5625 -0.0937,-2.71875 -0.0937,-7.5 z m -70.218754,-60.9375 q 0.65625,0 2.53125,-0.5625 l 7.5,-1.96875 9,-2.0625 q 0.5625,0 2.625,-2.90625 2.0625,-3 2.0625,-3.28125 1.875,-3 4.3125,-5.25 2.53125,-2.34375 5.4375,-2.34375 4.59375,0 9.000004,7.3125 4.5,7.21875 7.875,15.1875 l 0.28125,-0.0937 q 0.1875,0 0.84375,-0.28125 l 1.96875,-0.65625 9.28125,-2.71875 q -0.65625,-1.59375 -2.71875,-9.46875 -1.96875,-7.875 -4.21875,-13.03125 l 0.5625,-1.125 q 0.28125,-0.562502 0.65625,-1.125002 4.03125,0.28125 7.5,3.750002 3.5625,3.46875 6.09375,9.375 l 0.46875,2.0625 q 0.28125,1.40625 0.28125,1.96875 0.46875,3.5625 0.5625,7.21875 0.1875,3.5625 1.40625,6.9375 v 0.9375 q -0.28125,0.46875 -0.5625,1.6875 -0.28125,1.125 -0.28125,1.03125 0,0.1875 -0.0937,0.46875 -0.0937,0.1875 -0.0937,0.75 v 1.03125 q 0,1.59375 0.5625,3.09375 0.65625,1.5 1.5,1.96875 -0.1875,-0.46875 -0.28125,-0.84375 l -0.1875,-0.75 q -0.46875,-1.59375 -0.46875,-2.71875 0,-0.375 0.0937,-0.75 0.1875,-0.46875 0.65625,-0.46875 0.46875,0.5625 0.75,1.3125 0.375,0.75 0.375,1.96875 0.28125,0 0.375,-0.84375 0.1875,-0.84375 0.1875,-2.0625 l -0.1875,-1.03125 q 0,-0.46875 -0.28125,-0.9375 -0.1875,-0.46875 -0.46875,-0.9375 l -0.65625,-1.6875 q -0.1875,-0.375 -0.1875,-1.96875 0,-11.4375 -1.3125,-16.3125 -1.3125,-4.875 -5.8125,-10.78125 -4.5,-6.000002 -7.5,-8.062502 h -9.9375 l -0.9375,-0.375 q -1.3125,-1.3125 -2.15625,-2.8125 -0.75,-1.5 -0.75,-3.09375 0,-1.21875 0.375,-1.96875 -3.5625,-1.6875 -5.343754,-3.09375 -1.6875,-1.40625 -1.6875,-4.03125 0,-1.40625 1.125,-2.25 -0.375,-0.375 -0.9375,-0.375 -0.65625,0 -1.125,0.5625 -0.46875,0.5625 -0.65625,0.84375 l -7.59375,-1.21875 -0.28125,1.78125 q -0.28125,1.5 -1.21875,2.71875 -0.84375,1.125 -1.125,1.6875 1.3125,0.5625 2.0625,1.875 0.75,1.3125 0.75,2.90625 1.59375,0.65625 4.21875,0.84375 2.625,0.09375 4.875,1.5 2.34375,1.3125 2.34375,3.75 0,2.625 -3.5625,3.75 -3.46875,1.125 -5.4375,1.3125 -1.875,0.1875 -5.4375,4.500002 -3.5625,4.21875 -7.78125,12.9375 l -1.03125,1.03125 -14.25,4.3125 q -2.53125,0.75 -3.9375,1.125 l -1.40625,-0.28125 q -0.375,0 -1.40625,-0.1875 -1.03125,-0.28125 -1.59375,-0.5625 l -1.21875,0.46875 0.65625,0.65625 1.03125,1.96875 h 1.5 z m 34.40625,-44.062502 q -1.59375,1.125 -2.53125,1.125 -0.84375,0 -0.84375,-1.125 0,-1.125 0.84375,-1.125 0.84375,0 2.53125,1.125 z"
         id="path10150"
         inkscape:connector-curvature="0" />
    </g>
  </g>
</svg>
