<?xml version="1.0" encoding="UTF-8" standalone="no"?>
<!-- Created with Inkscape (http://www.inkscape.org/) -->

<svg
   xmlns:dc="http://purl.org/dc/elements/1.1/"
   xmlns:cc="http://creativecommons.org/ns#"
   xmlns:rdf="http://www.w3.org/1999/02/22-rdf-syntax-ns#"
   xmlns:svg="http://www.w3.org/2000/svg"
   xmlns="http://www.w3.org/2000/svg"
   xmlns:sodipodi="http://sodipodi.sourceforge.net/DTD/sodipodi-0.dtd"
   xmlns:inkscape="http://www.inkscape.org/namespaces/inkscape"
   width="23.614048mm"
   height="38.099998mm"
   viewBox="0 0 23.614049 38.099997"
   version="1.1"
   id="svg4525"
   inkscape:version="0.92.4 (5da689c313, 2019-01-14)"
   sodipodi:docname="A26.svg">
  <defs
     id="defs4519" />
  <sodipodi:namedview
     id="base"
     pagecolor="#ffffff"
     bordercolor="#666666"
     borderopacity="1.0"
     inkscape:pageopacity="0.0"
     inkscape:pageshadow="2"
     inkscape:zoom="0.35"
     inkscape:cx="1084.8172"
     inkscape:cy="-329.2861"
     inkscape:document-units="mm"
     inkscape:current-layer="layer1"
     showgrid="false"
     fit-margin-top="0"
     fit-margin-left="0"
     fit-margin-right="0"
     fit-margin-bottom="0"
     inkscape:window-width="1920"
     inkscape:window-height="1017"
     inkscape:window-x="-8"
     inkscape:window-y="-8"
     inkscape:window-maximized="1" />
  <metadata
     id="metadata4522">
    <rdf:RDF>
      <cc:Work
         rdf:about="">
        <dc:format>image/svg+xml</dc:format>
        <dc:type
           rdf:resource="http://purl.org/dc/dcmitype/StillImage" />
        <dc:title></dc:title>
      </cc:Work>
    </rdf:RDF>
  </metadata>
  <g
     inkscape:label="Layer 1"
     inkscape:groupmode="layer"
     id="layer1"
     transform="translate(374.33706,-23.609708)">
    <g
       aria-label="𓀉"
       style="font-style:normal;font-variant:normal;font-weight:normal;font-stretch:normal;font-size:50.79999924px;line-height:1.25;font-family:sans-serif;-inkscape-font-specification:sans-serif;font-variant-ligatures:normal;font-variant-caps:normal;font-variant-numeric:normal;font-feature-settings:normal;text-align:start;letter-spacing:0px;word-spacing:0px;writing-mode:lr-tb;text-anchor:start;fill:#000000;fill-opacity:1;stroke:none;stroke-width:0.26458332"
       id="text5105" />
    <g
       aria-label="𓀆"
       transform="matrix(0.26458333,0,0,0.26458333,-199.96101,81.431167)"
       style="font-style:normal;font-variant:normal;font-weight:normal;font-stretch:normal;font-size:192px;line-height:1.25;font-family:sans-serif;-inkscape-font-specification:sans-serif;font-variant-ligatures:normal;font-variant-caps:normal;font-variant-numeric:normal;font-feature-settings:normal;text-align:start;letter-spacing:0px;word-spacing:0px;writing-mode:lr-tb;text-anchor:start;fill:#000000;fill-opacity:1;stroke:none"
       id="flowRoot5135" />
    <g
       aria-label="𓀞	"
       transform="matrix(0.26458333,0,0,0.26458333,-324.92875,49.437733)"
       style="font-style:normal;font-variant:normal;font-weight:normal;font-stretch:normal;font-size:192px;line-height:1.25;font-family:sans-serif;-inkscape-font-specification:sans-serif;font-variant-ligatures:normal;font-variant-caps:normal;font-variant-numeric:normal;font-feature-settings:normal;text-align:start;letter-spacing:0px;word-spacing:0px;writing-mode:lr-tb;text-anchor:start;fill:#000000;fill-opacity:1;stroke:none"
       id="flowRoot5263">
      <path
         d="m -108.55273,14.413515 q 0,2.34375 -0.0937,4.59375 0,1.875 -0.0937,3.9375 v 3.65625 q 0,2.8125 0.0937,5.625 0.1875,2.8125 0.5625,5.625 1.875,1.59375 1.875,4.03125 0,1.59375 -1.125,2.90625 -1.125,1.40625 -3,1.40625 -1.03125,0 -1.96875,-0.5625 -0.84375,-0.46875 -1.96875,-0.9375 l -11.8125,1.5 -1.40625,-1.21875 q -0.1875,-0.75 -0.28125,-0.9375 -0.0937,-0.28125 -0.0937,-0.5625 l 0.1875,-1.03125 q 0.375,-1.3125 4.875,-2.8125 4.5,-1.59375 7.40625,-4.5 0,-6.1875 -2.15625,-15.75 -2.15625,-9.5625004 -2.34375,-15.5625004 h -4.78125 l -1.3125,7.1250004 q -0.28125,1.59375 -1.40625,6.09375 l -2.71875,10.6875 q -0.375,1.40625 -0.65625,2.8125 l -0.5625,2.8125 q 0,0.375 -0.9375,6.75 -0.9375,6.28125 -4.875,6.28125 -1.03125,0 -2.34375,-0.46875 -1.3125,-0.46875 -2.15625,-1.21875 -2.625,0 -5.15625,0.65625 -2.53125,0.65625 -5.0625,0.65625 -2.0625,0 -3.75,-0.65625 l -0.75,-2.15625 0.375,-0.75 q 0.28125,-0.1875 0.75,-0.375 l 1.59375,-0.65625 q 3.65625,-0.84375 7.40625,-1.96875 3.84375,-1.125 6.9375,-3.375 1.59375,-3.28125 1.96875,-6.75 0.46875,-3.5625 0.46875,-7.21875 v -7.5 q 0,-3.28125 0.28125,-6.3750004 0.375,-3.1875 1.5,-6.1875 l 2.34375,-16.7812496 q 1.21875,-8.625 2.25,-16.875 l -1.21875,0.1875 q -0.75,0 -1.21875,0.09375 -1.875,0 -3.1875,-0.65625 -1.21875,-0.65625 -1.21875,-1.6875 0,-1.875 3,-1.875 1.03125,0 2.15625,0.5625 1.21875,0.5625 1.96875,1.21875 0.1875,-1.125 0.28125,-2.90625 v -4.3125 q -0.1875,-3.5625 -0.84375,-6.9375 -0.65625,-3.46875 -1.03125,-6.9375 -4.03125,3 -9.375,5.0625 -5.34375,2.0625 -10.03125,2.0625 -5.15625,0 -10.125,-2.0625 -4.96875,-2.0625 -11.625,-5.25 -2.8125,0.9375 -5.90625,0.9375 -1.6875,0 -3.375,-0.28125 -1.59375,-0.375 -3.28125,-0.84375 l -0.75,-0.65625 q -0.28125,-0.75 -0.375,-1.21875 -0.0937,-0.5625 -0.0937,-1.03125 0,-1.03125 0.46875,-2.25 l 1.6875,-0.65625 q 0.84375,0.1875 1.59375,0.5625 0.84375,0.375 1.59375,0.65625 l -0.28125,-0.5625 0.28125,-1.875 q 1.59375,-1.21875 3.5625,-1.21875 2.15625,0 4.125,1.21875 1.96875,1.21875 3.28125,2.90625 5.15625,1.03125 10.125,1.875 5.0625,0.75 10.125,2.34375 4.6875,-1.875 10.96875,-7.59375 6.28125,-5.8125 11.90625,-7.3125 0,-0.28125 0.0937,-0.46875 v -0.375 q -0.28125,-1.3125 -2.625,-1.59375 -2.34375,-0.28125 -3.1875,-1.125 0,-0.46875 -0.46875,-1.40625 v -2.71875 h -0.1875 l -1.40625,-1.78125 q 0,-2.0625 1.5,-4.875 1.59375,-2.90625 1.59375,-5.15625 l 0.1875,-1.03125 q 1.40625,-3.46875 4.96875,-5.25 3.65625,-1.78125 7.6875,-1.78125 5.4375,0 8.90625,2.90625 3.46875,2.90625 3.46875,8.34375 0,4.21875 -2.0625,8.71875 -1.96875,4.5 -4.78125,7.6875 4.78125,0.65625 8.15625,3.28125 3.375,2.53125 5.624996,14.15625 2.34375,11.625 2.34375,16.21875 0,3.9375 -0.75,9.28125 -0.75,5.25 -0.75,5.15625 0,0.375 -0.09375,0.75 l -0.5625,3.65625 q -0.468746,2.90625 -1.406246,5.625 -0.9375,2.6249996 -2.53125,4.5937496 -0.9375,0.375 -1.3125,0.5625 -2.15625,0 -3.5625,-1.40625 -0.5625,8.24999996 -0.84375,9.09375 -0.28125,0.75 0.1875,4.03125 0.5625,3.28125 0.5625,9.3750004 z m -61.59375,-71.0625 q 3.84375,1.96875 9.9375,4.03125 6.1875,2.0625 9.5625,2.0625 h 1.21875 q 3.84375,-0.28125 9.28125,-2.8125 5.4375,-2.625 8.625,-5.8125 l 2.53125,1.125 1.875,19.875 v 2.0625 q 0,1.03125 -0.1875,2.0625 l 11.90625,-1.125 q 0,-5.71875 0.9375,-11.4375 0.9375,-5.71875 3.75,-10.78125 l 2.71875,0.28125 q 0.46875,2.53125 1.40625,4.96875 l 1.96875,4.875 q 1.21875,3.09375 1.96875,5.8125 0.84375,2.71875 1.03125,6 v 2.0625 q 0,3.09375 -0.65625,9.5625 -0.65625,6.375 -2.15625,7.125 -1.40625,0.65625 -1.96875,2.8125 l 1.125,0.46875 q 0,-0.46875 0.28125,-0.9375 l 0.375,-0.75 q 0.28125,-0.375 0.65625,-0.65625 v 1.6875 q 0,0.375 -0.65625,1.6875 -0.65625,1.21875 -1.59375,1.875 0.5625,0.5624996 1.59375,0.7499996 l 0.65625,-1.4999996 q 0.375,-0.65625 0.75,-2.0625 0.46875,-1.40625 0.75,-3.1875 l 0.375,-2.4375 0.375,-3.75 q 0.75,-4.21875 0.9375,-7.40625 0.28125,-3.1875 0.28125,-6.1875 0,-5.53125 -1.59375,-12.28125 -1.5,-6.75 -3,-12.09375 -1.40625,-5.34375 -10.40625,-6.5625 l -1.40625,-1.78125 v -0.375 q -2.0625,-1.3125 -3.46875,-3.375 -1.40625,-2.0625 -2.4375,-4.21875 l 0.75,-2.15625 1.40625,-0.5625 q 0.65625,-0.28125 0.9375,-1.03125 l -0.375,-0.375 -1.03125,0.28125 -0.84375,-0.84375 q -0.375,-0.375 -1.03125,-0.9375 0.1875,-0.75 0.1875,-1.125 l -0.1875,-0.375 q -0.75,-1.125 -2.25,-1.875 -1.5,-0.84375 -2.4375,-1.125 l -1.5,-0.5625 q -0.28125,1.96875 -1.125,3.65625 -0.75,1.6875 -1.5,3.5625 l 0.65625,0.5625 q 0.28125,0.375 0.65625,0.65625 v 3.75 q 6.1875,1.40625 6.1875,4.875 v 0.9375 l -0.1875,0.9375 -0.5625,0.65625 q -0.28125,0.375 -0.5625,0.84375 -6,1.03125 -13.40625,7.875 -7.3125,6.75 -10.78125,7.3125 h -0.0937 q -0.46875,0 -1.59375,-0.375 l -5.0625,-1.5 -1.59375,-0.375 q -0.84375,0 -2.4375,-0.5625 l -7.03125,-1.78125 -2.53125,-0.5625 q -0.84375,-0.1875 -1.40625,-0.375 -0.46875,-0.28125 -0.75,-0.65625 l -0.75,-0.84375 q -0.5625,-0.5625 -1.96875,-1.40625 -1.3125,-0.84375 -2.625,-0.84375 -0.5625,0 -0.9375,0.09375 l -0.65625,0.1875 q -0.375,0 -0.5625,0.1875 l 0.65625,0.375 q 0.75,0.375 1.5,0.375 0.75,0 1.5,0.375 0.75,0.28125 0.75,0.9375 0,0.65625 -1.03125,1.21875 -0.9375,0.5625 -1.96875,0.5625 -0.9375,0 -3,-0.75 -2.0625,-0.84375 -3.09375,-1.3125 l -0.0937,0.46875 0.375,0.84375 0.5625,0.1875 q 0.75,0.46875 2.15625,0.84375 1.40625,0.375 2.4375,0.375 0.75,0 1.78125,-0.1875 l 2.0625,-0.375 q 1.125,-0.28125 2.34375,-0.65625 z m 42.46875,25.6875 q -2.15625,16.03125 -4.21875,31.78124956 h 19.59375 q 0.375,-2.99999996 0.65625,-6.56249996 0.28125,-3.65625 0.28125,-7.5937496 0,-5.34375 -0.75,-10.3125 -0.75,-5.0625 -2.625,-8.625 z m 9,-63.65625 q -2.8125,0 -5.53125,1.03125 -2.71875,1.03125 -4.125,2.90625 3.75,1.3125 5.90625,2.90625 2.25,1.59375 2.53125,3.9375 h 0.375 l 0.65625,-0.09375 q 1.3125,0 1.78125,0.9375 0.5625,0.84375 0.5625,1.875 0,1.3125 -0.9375,2.4375 -0.84375,1.03125 -1.96875,1.6875 0.75,1.3125 1.59375,2.625 0.84375,1.3125 2.15625,2.25 2.34375,-2.53125 4.125,-6.1875 1.78125,-3.65625 1.78125,-7.40625 0,-4.03125 -2.15625,-6.46875 -2.15625,-2.4375 -6.75,-2.4375 z m 8.8125,42.46875 q -1.59375,4.21875 -2.0625,8.90625 -0.46875,4.59375 -0.46875,9.09375 2.15625,4.03125 3,8.90625 0.84375,4.875 1.03125,10.03125 0.46875,-0.84375 1.03125,-1.59375 0.65625,-0.75 1.125,-1.21875 0.84375,-3.28125 1.125,-9 0.28125,-5.8125 0.28125,-9.9375 -0.28125,-1.40625 -0.5625,-2.4375 -0.28125,-1.125 -0.75,-2.4375 z m -1.03125,91.03125 q -0.46875,-3 -0.65625,-6 -0.1875,-3 -0.1875,-6 v -3.1875 q 0,-1.96875 0.0937,-3.9375 0,-2.34375 0.0937,-4.875 0,-2.71875 -0.1875,-5.5312504 -0.0937,-2.8125 -0.46875,-5.53125 h -4.6875 q 0.46875,5.90625 2.4375,16.0312504 2.0625,10.03125 2.0625,14.15625 0,4.59375 -5.34375,6.65625 -5.34375,1.96875 -6.28125,2.4375 2.53125,-0.28125 4.40625,-0.75 1.875,-0.5625 3.75,-0.5625 1.21875,0 2.4375,0.375 1.3125,0.28125 2.90625,1.03125 0.84375,0 1.03125,-0.65625 0.28125,-0.75 0.28125,-1.40625 z m -26.34375,-0.5625 q -1.21875,0.84375 -4.40625,2.0625 -3.09375,1.125 -6.09375,1.875 l -3.1875,0.84375 q 0.375,0 1.78125,-0.28125 l 3.09375,-0.46875 q 1.59375,-0.28125 3,-0.46875 1.40625,-0.1875 1.875,-0.1875 0.375,0.1875 1.3125,0.5625 0.375,0.375 1.03125,0.75 0.75,0.28125 1.5,0.28125 1.21875,0 1.59375,-1.21875 0.375,-1.21875 0.46875,-2.0625 l 0.28125,-3 q 1.21875,-7.6875 3.75,-17.15625 2.625,-9.5625 3.46875,-16.0312504 h -4.78125 q -0.84375,3 -1.03125,6.09375 -0.1875,3.0937504 -0.1875,6.2812504 v 4.6875 q 0,4.3125 -0.46875,8.53125 -0.46875,4.21875 -2.4375,8.15625 z m 29.90625,-49.875 q -0.1875,0 -0.46875,-0.1875 l -0.5625,-0.28125 v 1.21875 q 0.1875,0 0.5625,-0.375 z m -18.65625,-72.28125 q -1.59375,1.21875 -2.4375,1.21875 -0.46875,0 -0.46875,-0.5625 l 0.0937,-0.65625 1.03125,-1.125 q 0.65625,0 1.78125,1.125 z"
         id="path5275"
         inkscape:connector-curvature="0" />
    </g>
  </g>
</svg>
