<?xml version="1.0" encoding="UTF-8" standalone="no"?>
<!-- Created with Inkscape (http://www.inkscape.org/) -->

<svg
   xmlns:dc="http://purl.org/dc/elements/1.1/"
   xmlns:cc="http://creativecommons.org/ns#"
   xmlns:rdf="http://www.w3.org/1999/02/22-rdf-syntax-ns#"
   xmlns:svg="http://www.w3.org/2000/svg"
   xmlns="http://www.w3.org/2000/svg"
   xmlns:sodipodi="http://sodipodi.sourceforge.net/DTD/sodipodi-0.dtd"
   xmlns:inkscape="http://www.inkscape.org/namespaces/inkscape"
   width="21.381628mm"
   height="37.85194mm"
   viewBox="0 0 21.381628 37.85194"
   version="1.1"
   id="svg10159"
   inkscape:version="0.92.4 (5da689c313, 2019-01-14)"
   sodipodi:docname="A27.svg">
  <defs
     id="defs10153" />
  <sodipodi:namedview
     id="base"
     pagecolor="#ffffff"
     bordercolor="#666666"
     borderopacity="1.0"
     inkscape:pageopacity="0.0"
     inkscape:pageshadow="2"
     inkscape:zoom="0.35"
     inkscape:cx="-346.11556"
     inkscape:cy="-400.28698"
     inkscape:document-units="mm"
     inkscape:current-layer="layer1"
     showgrid="false"
     fit-margin-top="0"
     fit-margin-left="0"
     fit-margin-right="0"
     fit-margin-bottom="0"
     inkscape:window-width="1920"
     inkscape:window-height="1017"
     inkscape:window-x="-8"
     inkscape:window-y="-8"
     inkscape:window-maximized="1" />
  <metadata
     id="metadata10156">
    <rdf:RDF>
      <cc:Work
         rdf:about="">
        <dc:format>image/svg+xml</dc:format>
        <dc:type
           rdf:resource="http://purl.org/dc/dcmitype/StillImage" />
        <dc:title></dc:title>
      </cc:Work>
    </rdf:RDF>
  </metadata>
  <g
     inkscape:label="Layer 1"
     inkscape:groupmode="layer"
     id="layer1"
     transform="translate(-4.263908,-5.0721317)">
    <g
       aria-label="𓀟"
       transform="matrix(0.26458333,0,0,0.26458333,147.41071,-28.72619)"
       style="font-style:normal;font-variant:normal;font-weight:normal;font-stretch:normal;font-size:192px;line-height:1.25;font-family:sans-serif;-inkscape-font-specification:'sans-serif, Normal';font-variant-ligatures:normal;font-variant-caps:normal;font-variant-numeric:normal;font-feature-settings:normal;text-align:start;letter-spacing:0px;word-spacing:0px;writing-mode:lr-tb;text-anchor:start;fill:#000000;fill-opacity:1;stroke:none"
       id="flowRoot10704">
      <path
         d="m -473.05859,222.99164 -0.375,3.375 q 7.03125,11.15625 7.3125,16.125 0.375,4.875 2.625,8.625 l 1.40625,2.53125 q 0.75,1.40625 1.3125,2.8125 0.5625,1.40625 0.5625,2.625 0,1.875 -1.59375,2.90625 -1.5,1.03125 -3.1875,1.03125 -1.125,2.8125 -2.71875,4.875 -1.5,1.96875 -4.78125,2.53125 l -1.59375,0.1875 q -0.9375,0.1875 -1.875,0.1875 -1.40625,0 -2.25,-0.46875 -0.84375,-0.46875 -1.125,-1.125 l -0.46875,-0.84375 q 0.1875,-0.46875 0.46875,-0.84375 l 0.46875,-0.84375 3.5625,-1.3125 q 1.21875,-0.375 1.78125,-1.125 0.65625,-0.75 1.40625,-2.90625 l 0.65625,-1.6875 q 0.46875,-1.125 1.03125,-2.15625 0.5625,-1.03125 1.21875,-2.0625 -1.40625,-3.375 -3.5625,-6.75 l -4.3125,-6.75 q -2.25,-3.375 -4.125,-6.75 -1.875,-3.375 -2.625,-6.9375 h -9.46875 q -1.40625,11.25 -3.9375,18.5625 -2.4375,7.21875 -3,9.9375 l -0.65625,2.71875 q -0.28125,1.3125 -0.28125,1.96875 l -0.0937,2.53125 q 0,2.4375 -0.75,3.5625 -0.65625,1.03125 -2.34375,1.03125 -0.84375,0 -2.0625,-0.28125 -1.125,-0.28125 -1.96875,-0.5625 -2.625,0.84375 -5.34375,1.78125 -2.71875,1.03125 -7.59375,1.21875 -0.9375,0 -1.875,-0.375 -0.9375,-0.28125 -1.6875,-0.65625 l -0.46875,-0.84375 q -0.28125,-0.28125 -0.46875,-0.65625 l 0.375,-0.75 q 0.1875,-0.5625 0.46875,-0.75 0.375,-0.1875 1.03125,-0.46875 l 3.1875,-0.9375 0.84375,-0.1875 q 6.84375,-2.25 10.125,-5.53125 3.28125,-3.375 3.46875,-14.15625 0.1875,-10.875 1.78125,-16.3125 l 0.46875,-1.3125 q 0.28125,-0.75 0.375,-1.3125 l 4.40625,-33.46875 -5.0625,1.03125 v -6 l 4.59375,2.71875 q -2.0625,-5.34375 -3,-10.96875 -0.84375,-5.71875 -1.875,-11.34375 -5.625,7.3125 -9.9375,10.21875 -4.21875,2.8125 -7.875,2.8125 -0.9375,0 -5.15625,-6.1875 -4.125,-6.1875 -7.5,-12.09375 -2.0625,-0.28125 -3.84375,-2.0625 -1.6875,-1.78125 -1.6875,-3.84375 0,-1.40625 1.125,-2.71875 l 0.46875,0.375 0.9375,0.9375 q 0.46875,0.5625 1.03125,1.03125 0.5625,0.375 0.9375,0.375 0,-1.40625 -2.34375,-3.46875 -2.34375,-2.0625 -2.53125,-2.25 1.03125,-1.03125 1.875,-2.15625 l 1.40625,-0.28125 q 3.09375,0.75 5.34375,3.28125 2.34375,2.4375 2.34375,5.625 0,0.5625 -0.1875,1.5 2.8125,3 5.4375,6.09375 2.71875,3 4.96875,6.5625 3.1875,-4.3125 7.125,-9.09375 4.03125,-4.875 5.0625,-4.96875 1.125,-0.1875 5.15625,-2.4375 4.03125,-2.34375 4.875,-2.34375 -0.28125,-1.125 -0.84375,-1.5 -0.46875,-0.375 -1.03125,-0.46875 l -1.125,-0.0937 q -0.5625,0 -1.21875,-0.46875 -0.5625,-0.46875 -0.5625,-1.3125 l -0.0937,-1.3125 q 0,-0.5625 -0.28125,-1.03125 -0.28125,-0.46875 -1.03125,-0.46875 l -1.40625,-1.78125 q 0,-1.03125 0.1875,-1.59375 0.28125,-0.65625 0.65625,-1.125 l 0.5625,-0.9375 q 0.75,-1.03125 1.03125,-4.875 0.28125,-3.84375 3.1875,-6.1875 2.90625,-2.4375 7.78125,-2.4375 5.8125,0 9.5625,3.46875 3.84375,3.46875 3.84375,8.8125 0,3.28125 -1.59375,6.1875 -1.59375,2.90625 -4.03125,5.53125 v 1.03125 q 5.25,0.65625 9.46875,4.40625 4.21875,3.75 5.15625,4.96875 1.03125,1.21875 2.625,6.375 l 1.21875,3.75 q 0.46875,1.6875 0.46875,1.78125 0.75,2.25 1.40625,4.5 0.65625,2.25 1.40625,4.59375 l 0.75,2.15625 q 0.28125,1.03125 0.28125,1.875 0,0.9375 -0.5625,1.6875 -0.46875,0.65625 -1.78125,1.3125 l -1.40625,0.1875 q -3.9375,-1.96875 -7.96875,-3.5625 l -8.0625,-3.09375 v 6.46875 q 3.75,6.75 5.90625,14.25 2.15625,7.5 2.15625,15.28125 0,1.6875 -0.0937,3.28125 z m -12.84375,-44.625 4.125,1.875 q 4.3125,1.875 8.71875,3.46875 4.40625,1.5 8.625,3.5625 l 0.28125,-0.0937 q 0,-1.3125 -2.53125,-9 -2.53125,-7.6875 -4.96875,-14.0625 -1.6875,-1.59375 -5.34375,-4.96875 -3.5625,-3.46875 -8.625,-3.46875 l -1.40625,-1.78125 v -0.9375 q 0,-0.46875 -0.0937,-1.03125 -0.9375,-0.5625 -1.78125,-1.21875 l -1.78125,-1.125 -0.46875,-0.84375 q -0.28125,-0.375 -0.46875,-0.84375 0,-4.875 1.40625,-5.4375 1.5,-0.65625 1.5,-2.34375 0,-0.46875 -0.46875,-0.46875 -0.75,0 -0.9375,0.9375 l -1.03125,0.65625 q -0.5625,0.375 -1.03125,0.75 l -4.03125,-1.3125 -4.03125,-1.125 q -0.1875,1.03125 -0.5625,2.0625 -0.28125,0.9375 -1.03125,1.6875 0,0.28125 -0.28125,0.65625 1.78125,0.84375 1.875,2.15625 0.1875,1.3125 0.46875,2.15625 2.4375,0.1875 3.75,1.875 1.40625,1.6875 1.40625,4.03125 l -0.65625,1.21875 q -2.71875,1.875 -5.90625,3.28125 -3.09375,1.3125 -6.09375,2.8125 l -5.90625,7.03125 q -2.90625,3.46875 -5.53125,7.3125 l -1.21875,-0.1875 h -1.3125 q -3.1875,-5.90625 -6.5625,-9.84375 -3.28125,-3.9375 -4.125,-4.59375 -0.75,-0.65625 -1.125,-3.84375 -0.375,-3.28125 -3.5625,-4.6875 0.75,0.46875 1.78125,1.78125 1.125,1.3125 1.125,2.90625 0,1.3125 -0.5625,1.875 -0.5625,0.5625 -2.15625,0.5625 0.1875,0.46875 0.75,0.75 0.65625,0.1875 1.40625,0.375 l 1.21875,0.28125 q 0.9375,0.28125 0.84375,1.03125 -0.0937,0.65625 3.84375,6.84375 3.9375,6.09375 6.9375,9.375 3.1875,-0.375 7.03125,-3.46875 3.9375,-3.1875 9.375,-10.96875 l 2.8125,0.75 q 0.65625,4.875 1.40625,9.75 0.84375,4.875 2.15625,9.65625 l 2.0625,6.28125 12.1875,-1.03125 q 0,-0.46875 -0.0937,-1.5 l 0.375,-5.53125 -4.875,-2.4375 q -1.78125,0 -4.03125,-1.40625 -2.15625,-1.5 -3,-3.75 l -0.0937,-0.65625 1.6875,-1.125 2.25,0.5625 -0.75,-1.21875 -0.46875,-0.1875 h -0.84375 q -0.46875,0 -0.84375,-0.0937 h -0.28125 l -1.125,-0.75 q -0.5625,-0.28125 -1.125,-0.75 v -1.78125 l 1.40625,-1.78125 q 3.9375,0.28125 6.375,2.53125 2.53125,2.15625 3.9375,5.8125 l 2.34375,1.125 1.03125,-3.09375 q 0.84375,-2.625 2.34375,-4.6875 1.5,-2.0625 3.5625,-2.4375 0.375,0.1875 1.3125,0.5625 l 3.9375,7.03125 q 1.96875,3.46875 3.84375,7.125 l -1.5,1.96875 q -12.9375,-3.1875 -16.40625,-4.875 -3.46875,-1.78125 -3.46875,-2.71875 -0.375,-1.78125 -1.6875,-3.1875 -1.3125,-1.5 -3.46875,-2.4375 3.84375,2.8125 3.84375,4.3125 0,0.9375 -0.46875,1.21875 -0.375,0.1875 -1.3125,0.1875 h -1.3125 q 0.28125,0.65625 1.96875,1.03125 1.6875,0.28125 5.4375,1.875 z m 4.96875,18.75 -2.4375,-4.78125 -12.9375,1.125 q -1.125,7.96875 -2.15625,15.84375 l -2.0625,15.9375 h 24.1875 q 0.1875,-1.40625 0.28125,-2.8125 0.0937,-1.40625 0.0937,-2.90625 0,-5.53125 -1.3125,-11.53125 -1.21875,-6 -3.65625,-10.875 z m -18.9375,-60.5625 7.40625,2.25 q 0.5625,-0.75 1.5,-1.3125 1.03125,-0.65625 2.34375,-0.65625 1.40625,0 2.25,0.84375 0.84375,0.75 0.84375,2.15625 0,1.40625 -0.84375,2.8125 -0.75,1.40625 -1.875,2.0625 -0.1875,0.46875 -0.28125,1.21875 -0.0937,0.75 -0.0937,1.5 l 2.71875,1.6875 1.6875,-1.96875 q 1.21875,-1.5 1.96875,-3.28125 0.84375,-1.78125 0.84375,-3.65625 0,-4.40625 -3.28125,-6.84375 -3.1875,-2.4375 -8.4375,-2.4375 -2.34375,0 -4.21875,1.3125 -1.875,1.21875 -2.53125,4.3125 z m -2.4375,116.34375 q 1.875,-6.1875 3.375,-12.1875 1.59375,-6.09375 2.53125,-12.46875 h -4.59375 q -0.375,1.59375 -1.3125,5.4375 -0.9375,3.75 -0.9375,8.0625 v 2.71875 q 0,10.40625 -2.71875,14.71875 -2.71875,4.21875 -10.5,7.6875 l -1.59375,0.75 1.40625,-0.1875 q 0.84375,0 1.78125,-0.28125 1.03125,-0.375 2.53125,-1.03125 l 1.78125,-0.84375 q 1.03125,-0.46875 1.78125,-0.5625 0.65625,0 0.9375,0 0.28125,0 0.5625,0.1875 l 0.5625,0.1875 q 0.375,0.1875 1.21875,0.375 0.75,0 1.03125,-0.1875 0.28125,-0.1875 0.28125,-0.28125 0,-0.28125 0.0937,-0.9375 0,-0.1875 -0.0937,-0.5625 v -1.40625 q 0,-2.53125 0.65625,-4.78125 z m 26.53125,-24.65625 h -4.96875 q 0.9375,2.4375 2.0625,4.78125 1.21875,2.34375 2.4375,4.3125 l 5.34375,8.71875 q 2.71875,4.40625 4.875,9 -0.1875,0.9375 -0.1875,1.40625 l -1.40625,2.15625 q -1.125,1.6875 -2.0625,4.5 -0.84375,2.8125 -2.71875,4.21875 1.96875,-0.5625 2.8125,-1.6875 0.84375,-1.21875 2.34375,-4.875 l 0.5625,-0.375 0.65625,-0.375 q 1.5,0 2.53125,-0.46875 0.1875,0 0.1875,-0.1875 0,-0.28125 0.1875,-0.46875 l -3.09375,-6.375 q -3.09375,-6.1875 -3.09375,-10.03125 0,-3.84375 -6.46875,-14.25 z m -4.875,-51 q 2.15625,0.375 4.40625,0.84375 l 4.5,1.125 -2.625,-4.78125 -2.8125,-4.6875 q -1.40625,1.3125 -2.25,3.46875 -0.75,2.0625 -1.21875,4.03125 z m -15.5625,-34.96875 -1.21875,0.28125 q -0.46875,0.1875 -0.84375,0.1875 h -0.1875 q -0.65625,-0.28125 -0.84375,-0.84375 0,-0.46875 0.84375,-0.46875 0.9375,0 2.25,0.84375 z"
         id="path10712"
         inkscape:connector-curvature="0" />
    </g>
  </g>
</svg>
