<?xml version="1.0" encoding="UTF-8" standalone="no"?>
<!-- Created with Inkscape (http://www.inkscape.org/) -->

<svg
   xmlns:dc="http://purl.org/dc/elements/1.1/"
   xmlns:cc="http://creativecommons.org/ns#"
   xmlns:rdf="http://www.w3.org/1999/02/22-rdf-syntax-ns#"
   xmlns:svg="http://www.w3.org/2000/svg"
   xmlns="http://www.w3.org/2000/svg"
   xmlns:sodipodi="http://sodipodi.sourceforge.net/DTD/sodipodi-0.dtd"
   xmlns:inkscape="http://www.inkscape.org/namespaces/inkscape"
   width="22.745897mm"
   height="38.075195mm"
   viewBox="0 0 22.745897 38.075195"
   version="1.1"
   id="svg10721"
   inkscape:version="0.92.4 (5da689c313, 2019-01-14)"
   sodipodi:docname="A29.svg">
  <defs
     id="defs10715" />
  <sodipodi:namedview
     id="base"
     pagecolor="#ffffff"
     bordercolor="#666666"
     borderopacity="1.0"
     inkscape:pageopacity="0.0"
     inkscape:pageshadow="2"
     inkscape:zoom="0.35"
     inkscape:cx="-374.68778"
     inkscape:cy="-397.43123"
     inkscape:document-units="mm"
     inkscape:current-layer="layer1"
     showgrid="false"
     fit-margin-top="0"
     fit-margin-left="0"
     fit-margin-right="0"
     fit-margin-bottom="0"
     inkscape:window-width="1920"
     inkscape:window-height="1017"
     inkscape:window-x="-8"
     inkscape:window-y="-8"
     inkscape:window-maximized="1" />
  <metadata
     id="metadata10718">
    <rdf:RDF>
      <cc:Work
         rdf:about="">
        <dc:format>image/svg+xml</dc:format>
        <dc:type
           rdf:resource="http://purl.org/dc/dcmitype/StillImage" />
        <dc:title></dc:title>
      </cc:Work>
    </rdf:RDF>
  </metadata>
  <g
     inkscape:label="Layer 1"
     inkscape:groupmode="layer"
     id="layer1"
     transform="translate(-11.823642,-5.6044593)">
    <g
       aria-label="𓀡"
       transform="matrix(0.26458333,0,0,0.26458333,25.702381,-3.0238095)"
       style="font-style:normal;font-variant:normal;font-weight:normal;font-stretch:normal;font-size:192px;line-height:1.25;font-family:sans-serif;-inkscape-font-specification:'sans-serif, Normal';font-variant-ligatures:normal;font-variant-caps:normal;font-variant-numeric:normal;font-feature-settings:normal;text-align:start;letter-spacing:0px;word-spacing:0px;writing-mode:lr-tb;text-anchor:start;fill:#000000;fill-opacity:1;stroke:none"
       id="flowRoot11266">
      <path
         d="m -3.2363281,149.61078 q 2.43749998,2.8125 4.03124997,6.65625 1.68750003,3.75 1.68750003,7.5 0,5.53125 -3.9375,9.1875 -3.84375,3.5625 -9.6562499,3.5625 -5.53125,0 -9,-2.71875 -3.46875,-2.71875 -3.9375,-6.9375 v -1.96875 q 0,-1.21875 -0.75,-3 -0.65625,-1.875 -0.65625,-2.90625 l 1.40625,-1.78125 h 0.1875 q 0.28125,-1.96875 1.78125,-3.65625 0.75,-0.28125 1.21875,-0.375 h 0.75 q 1.21875,0 1.875,-0.1875 0.75,-0.28125 0.75,-1.03125 0,-1.59375 -2.34375,-3.28125 -2.25,-1.6875 -5.625,-2.625 l -16.5,-2.71875 v 9.65625 q 0,2.4375 -0.09375,4.875 l -0.28125,4.875 q 0.375,1.40625 0.65625,3.09375 0.28125,1.6875 0.28125,3.28125 0,1.875 -0.84375,3.375 -0.75,1.5 -2.8125,2.25 l -2.0625,-0.84375 -0.28125,1.40625 -2.4375,0.65625 q -0.46875,-0.5625 -1.03125,-1.125 l -1.125,-0.9375 q 0,-0.46875 -0.46875,-1.40625 0,-3 1.21875,-5.625 1.3125,-2.71875 3.375,-4.78125 -1.03125,-3.84375 -1.59375,-8.0625 -0.5625,-4.3125 -0.5625,-8.34375 v -1.40625 q 0.28125,-5.34375 1.78125,-7.21875 1.5,-1.96875 6.9375,-1.96875 2.4375,0 4.5,0.28125 l 8.34375,1.3125 q 2.15625,0.375 4.78125,0.375 l 0.09375,-1.21875 1.40625,-8.8125 1.21875,-8.8125 v -7.5 l -4.03125,1.21875 q -0.9375,0 -1.6875,-0.5625 -0.65625,-0.5625 -0.65625,-1.59375 0,-1.03125 0.75,-1.5 0.84375,-0.46875 1.6875,-0.5625 l 1.6875,0.375 q 0.65625,0.1875 1.21875,0.28125 h 0.5625 q -0.75,-9.75 -2.15625,-19.125 l -4.875,-30.9375 q -0.9375,-5.90625 -2.0625,-11.8125 0,-0.28125 -0.09375,-0.84375 l -0.46875,-2.4375 q -0.375,-1.125 -2.8125,-2.0625 -2.4375,-1.03125 -4.5,-1.5 l -3.75,-0.75 q -1.875,-0.375 -3.46875,-0.75 l -1.40625,-1.78125 q 0,-2.0625 1.59375,-2.8125 1.6875,-0.84375 3.46875,-0.84375 l 1.5,0.1875 q 1.875,0.1875 3.84375,0.75 2.0625,0.46875 3.9375,0.46875 1.875,0 3.09375,-0.75 1.21875,-0.75 2.90625,-0.75 1.6875,0 3.09375,1.03125 1.40625,0.9375 1.40625,2.53125 0,1.125 -0.375,2.34375 -0.28125,1.125 -0.46875,2.25 v 2.15625 q 0,4.78125 3.5625,17.90625 3.65625,13.03125 4.03125,17.34375 h 6.1874999 q 0.1875,-2.15625 0.65625,-4.21875 l 0.84375,-4.125 q 1.40625,-6.5625 3,-13.21875 1.59375,-6.65625 1.59375,-13.40625 -2.625,-2.25 -8.2499999,-3.75 -5.53125,-1.5 -6.09375,-1.6875 l -0.46875,-0.84375 q -0.28125,-0.375 -0.46875,-0.84375 0,-1.96875 1.6875,-2.625 1.6875,-0.75 3.375,-0.75 l 10.6874999,1.5 q 1.40625,0 2.90624998,-0.75 1.59375002,-0.84375 3.09375002,-0.84375 1.40625,0 2.25,1.21875 0.9375,1.125 0.9375,2.53125 -0.1875,2.15625 -1.3125,3.9375 -1.03125,1.6875 -1.21875,10.21875 -0.1875,8.53125 -2.0625,27.1875 l -2.06250002,19.3125 q 0,0.46875 -0.09375,0.75 v 0.75 q 0,1.3125 0.28125,2.25 l 0.93750001,3.5625 q 0.18750001,0.84375 0.18750001,1.78125 0,2.8125 -0.56250002,4.5 -0.5625,1.6875 -0.5625,2.71875 0,2.71875 -0.09374999,4.78125 l -0.37500001,7.96875 q 0,1.96875 -0.09375,4.21875 0,2.34375 0.65624999,4.40625 0.65625,2.0625 1.03125003,2.71875 h 2.4375 l 16.8750001,-2.25 h 2.34375 q 3.84375,0.1875 5.34375,3.09375 1.5,2.8125 1.5,10.3125 0,2.53125 -0.09375,4.5 l -0.375,6.5625 q 0,1.40625 -0.09375,2.90625 2.4375,2.25 3.375,4.40625 1.03125,2.15625 1.03125,5.4375 0,0.5625 -0.28125,1.21875 -0.28125,0.5625 -0.375,0.9375 -0.46875,0.46875 -0.84375,0.75 l -0.9375,0.75 -2.34375,-0.9375 q -0.28125,-1.21875 -0.65625,-2.53125 -0.375,-1.3125 -1.03125,-2.34375 l 0.1875,3.09375 q -0.46875,0.375 -0.84375,0.75 l -0.75,0.75 q -2.0625,0 -2.90625,-1.6875 -0.75,-1.6875 -0.75,-3.65625 0,-1.21875 0.1875,-2.8125 0.1875,-1.59375 0.5625,-2.34375 -0.75,-5.15625 -1.03125,-10.40625 -0.1875,-5.34375 -0.1875,-10.6875 l -8.25,0.75 q -7.4062501,0.65625 -10.8750001,1.6875 -3.37500003,1.03125 -4.5,1.59375 -1.125,0.5625 -1.125,2.34375 z M -21.986328,81.17328 q 0.375,2.71875 1.875,13.3125 1.5,10.5 1.6875,13.96875 l 16.0312499,2.53125 0.9375,-4.875 -1.21875,-7.40625 0.65625,-8.8125 0.75,-8.8125 z m 10.59375,92.15625 q 5.0624999,0 7.9687499,-2.53125 2.90624998,-2.625 2.90624998,-6.9375 0,-3.09375 -1.40624998,-6 -1.3125,-2.90625 -4.3125,-6.09375 -1.875,1.125 -2.53125,3.375 -0.5625,2.25 -0.5625,4.40625 1.125,0.75 1.6875,2.0625 0.65625,1.21875 0.65625,2.53125 0,1.40625 -0.84375,2.53125 -0.75,1.03125 -2.3437499,1.03125 -1.125,-0.5625 -1.5,-1.21875 l -4.40625,0.65625 q -2.25,0.375 -4.5,0.65625 0.375,2.4375 2.625,4.03125 2.34375,1.5 6.5625,1.5 z M 0.88867188,54.26703 1.5449219,42.36078 l 0.1875,-0.9375 q 0.1875,-0.84375 0.9375,-2.4375 0.84375,-1.59375 0.84375,-2.71875 -0.1875,-0.375 -0.28125,-0.46875 -0.09375,-0.09375 -0.375,-0.09375 -1.125,0 -2.25000003,0.75 -1.03125,0.65625 -2.15624997,0.75 -1.96875,0 -5.90625,-0.75 -3.8437499,-0.84375 -6.2812499,-0.84375 6.6562499,1.78125 8.9999999,3 2.4375,1.125 3.5625,2.15625 1.21874997,0.9375 1.21874997,3.84375 0,2.0625 -0.375,4.3125 l -0.5625,3.5625 q -0.84374997,4.59375 -1.87499997,9.09375 l -2.0625,9 q -0.46875,1.875 -0.84375,3.75 -0.375,1.875 -0.5625,3.84375 h 5.24999997 z M -25.736328,45.92328 q -0.375,-1.875 -0.375,-3.75 v -0.46875 q 0,-0.28125 0.09375,-0.9375 l 0.28125,-1.6875 0.5625,-2.90625 q -0.1875,-0.46875 -0.65625,-0.5625 h -0.75 q -1.125,0 -2.15625,0.75 -1.03125,0.75 -2.90625,0.75 -2.15625,0 -5.4375,-0.75 -3.28125,-0.75 -5.25,-0.75 h -0.75 l 3.1875,0.75 q 7.875,2.15625 9.65625,3.46875 1.78125,1.3125 2.625,5.90625 l 1.78125,9.9375 3.09375,20.25 0.28125,2.25 h 4.03125 q -0.46875,-3.65625 -1.3125,-7.21875 -0.84375,-3.5625 -1.78125,-7.125 l -1.96875,-7.03125 q -1.03125,-3.5625 -1.6875,-7.125 z m -19.40625,117.375 q -1.78125,1.3125 -3.1875,3.75 -1.40625,2.4375 -1.40625,4.96875 l 1.125,0.65625 q 0.1875,-1.59375 0.5625,-3.375 0.375,-1.875 1.96875,-2.625 l 0.9375,0.28125 q -0.1875,1.3125 -0.46875,2.71875 -0.28125,1.40625 -0.75,2.71875 0.9375,0 1.59375,-1.3125 0.65625,-1.40625 0.65625,-3.5625 0,-1.3125 -0.28125,-1.96875 -0.1875,-0.65625 -0.375,-2.25 0,-0.9375 -0.09375,-2.53125 l -0.09375,-2.0625 v -16.875 l 1.875,-1.6875 q 7.125,1.21875 14.34375,2.25 7.3125,1.03125 10.78125,3.9375 3.46875,2.90625 3.46875,6 0,1.6875 -1.21875,2.8125 -1.125,1.03125 -4.6875,1.03125 -0.5625,0.9375 -0.5625,2.53125 l -1.40625,1.21875 q 0.375,1.125 0.75,2.0625 0.375,0.9375 0.65625,2.8125 2.4375,-0.375 4.96875,-0.65625 2.53125,-0.28125 5.0625,-0.65625 0.1875,0.1875 0.375,0.5625 0.28125,0.375 0.46875,0.375 v -0.0937 l 0.09375,-0.28125 q 0,-0.5625 -0.28125,-1.21875 -0.28125,-0.65625 -1.125,-0.9375 l -0.9375,-1.6875 q 0,-3.84375 1.6875,-6.9375 1.78125,-3.09375 4.6875,-4.5 0,-3.1875 3.75,-4.59375 3.84375,-1.40625 6.28125,-1.78125 2.4375,-0.375 10.40625,-1.3125 l 8.4375,-1.03125 0.75,0.75 q 0.375,0.375 0.84375,0.75 0,5.71875 0.375,11.8125 0.375,6.09375 0.84375,11.53125 l -0.46875,1.40625 q -0.75,1.125 -0.75,2.90625 0,0.84375 0.09375,1.78125 0.1875,0.84375 0.65625,0.84375 v -1.21875 q 0,-2.0625 0.375,-3.65625 l 1.125,-0.9375 q 1.78125,1.03125 2.625,2.90625 0.84375,1.875 1.40625,3.84375 l 0.375,-0.1875 v -0.65625 q 0,-3 -2.25,-5.15625 -2.25,-2.15625 -2.8125,-2.8125 l 0.5625,-14.625 q -0.1875,-0.5625 -0.1875,-1.6875 l 0.09375,-1.5 q 0,-2.4375 -0.375,-4.5 -0.375,-2.0625 -1.3125,-3 l -2.15625,-0.375 q -1.125,-0.1875 -2.34375,-0.1875 -4.5,0.46875 -8.53125,1.5 -3.9375,0.9375 -7.78125,0.9375 -2.25,0 -4.31250003,-0.5625 l -0.75,-0.65625 q -1.03124997,-2.0625 -1.59374997,-6.1875 -0.46875,-4.21875 -0.46875,-7.6875 v -7.59375 q 0,-1.21875 0,-2.0625 0,-0.9375 0.1875,-1.6875 -1.5,-0.28125 -7.03125,-1.125 -5.4375,-0.9375 -8.0625,-1.40625 v 0.28125 q -0.46875,7.59375 -1.21875,14.4375 -0.75,6.75 -1.6875,12.28125 -0.46875,0.375 -0.84375,0.75 l -0.75,0.75 q -4.21875,0 -8.25,-0.75 -4.03125,-0.84375 -8.25,-1.21875 -4.5,0 -6.1875,0.46875 -1.59375,0.375 -1.78125,4.5 l -0.09375,1.5 v 1.875 q 0,3.75 0.46875,8.90625 0.5625,5.0625 1.40625,7.96875 z m 25.125,-1.21875 q 0,-1.59375 1.125,-1.59375 0.75,0 2.34375,1.03125 -1.875,1.875 -2.71875,1.875 -0.75,0 -0.75,-1.3125 z"
         id="path11274"
         inkscape:connector-curvature="0" />
    </g>
  </g>
</svg>
