<?xml version="1.0" encoding="UTF-8" standalone="no"?>
<!-- Created with Inkscape (http://www.inkscape.org/) -->

<svg
   xmlns:dc="http://purl.org/dc/elements/1.1/"
   xmlns:cc="http://creativecommons.org/ns#"
   xmlns:rdf="http://www.w3.org/1999/02/22-rdf-syntax-ns#"
   xmlns:svg="http://www.w3.org/2000/svg"
   xmlns="http://www.w3.org/2000/svg"
   xmlns:sodipodi="http://sodipodi.sourceforge.net/DTD/sodipodi-0.dtd"
   xmlns:inkscape="http://www.inkscape.org/namespaces/inkscape"
   width="28.302149mm"
   height="37.455078mm"
   viewBox="0 0 28.302149 37.455078"
   version="1.1"
   id="svg8"
   inkscape:version="0.92.4 (5da689c313, 2019-01-14)"
   sodipodi:docname="A3.svg">
  <defs
     id="defs2" />
  <sodipodi:namedview
     id="base"
     pagecolor="#ffffff"
     bordercolor="#666666"
     borderopacity="1.0"
     inkscape:pageopacity="0.0"
     inkscape:pageshadow="2"
     inkscape:zoom="0.35"
     inkscape:cx="-362.0625"
     inkscape:cy="-269.04758"
     inkscape:document-units="mm"
     inkscape:current-layer="layer1"
     showgrid="false"
     fit-margin-top="0"
     fit-margin-left="0"
     fit-margin-right="0"
     fit-margin-bottom="0"
     inkscape:window-width="1920"
     inkscape:window-height="1017"
     inkscape:window-x="-8"
     inkscape:window-y="-8"
     inkscape:window-maximized="1" />
  <metadata
     id="metadata5">
    <rdf:RDF>
      <cc:Work
         rdf:about="">
        <dc:format>image/svg+xml</dc:format>
        <dc:type
           rdf:resource="http://purl.org/dc/dcmitype/StillImage" />
        <dc:title></dc:title>
      </cc:Work>
    </rdf:RDF>
  </metadata>
  <g
     inkscape:label="Layer 1"
     inkscape:groupmode="layer"
     id="layer1"
     transform="translate(-8.483203,-40.19275)">
    <g
       aria-label="	𓀂"
       transform="scale(0.26458333)"
       style="font-style:normal;font-variant:normal;font-weight:normal;font-stretch:normal;font-size:192px;line-height:1.25;font-family:sans-serif;-inkscape-font-specification:'sans-serif, Normal';font-variant-ligatures:normal;font-variant-caps:normal;font-variant-numeric:normal;font-feature-settings:normal;text-align:start;letter-spacing:0px;word-spacing:0px;writing-mode:lr-tb;text-anchor:start;fill:#000000;fill-opacity:1;stroke:none"
       id="flowRoot4518">
      <path
         d="m 34.03125,188.19086 q 1.875,1.59375 3,2.34375 1.125,0.75 1.96875,1.40625 l -1.125,-1.59375 q -1.03125,-1.5 -2.53125,-2.53125 -1.40625,-1.125 -2.90625,-1.875 l -0.375,-1.96875 2.25,-2.53125 1.875,-0.46875 q 4.40625,1.96875 7.6875,6.65625 3.28125,4.59375 3.46875,8.25 5.15625,4.21875 13.5,15.09375 7.6875,-9 13.875,-15.09375 6.28125,-6.09375 16.3125,-9.28125 -0.28125,-2.8125 -3.9375,-3 -3.65625,-0.1875 -3.65625,-1.96875 0,-1.6875 -0.5625,-3 -0.5625,-1.3125 -1.78125,-1.78125 l -0.5625,-1.59375 q 0.1875,-1.40625 0.84375,-2.53125 0.65625,-1.21875 1.40625,-2.90625 l 0.28125,-2.4375 q 0,-0.65625 0.46875,-5.0625 0.5625,-4.5 4.3125,-7.40625 3.84375,-3 10.875,-3 6.84375,0 11.53125,4.59375 4.78125,4.5 4.78125,11.25 0,6.75 -7.40625,14.4375 v 3.9375 q 6.5625,0.46875 11.90625,4.6875 5.34375,4.21875 7.21875,6.375 1.96875,2.0625 6,13.125 4.03125,11.0625 6.28125,15.375 0,5.34375 -5.53125,8.15625 -4.125,-1.3125 -9.09375,-3.09375 -4.96875,-1.875 -12.1875,-4.875 -1.03125,3.375 -1.3125,7.03125 -0.28125,3.5625 -0.28125,8.8125 1.3125,3.09375 2.0625,7.40625 0.84375,4.3125 0.9375,9.65625 6.65625,0.84375 6.65625,8.625 -2.15625,3.28125 -2.15625,6.75 0,2.53125 0.0937,4.875 v 4.21875 q -5.15625,7.96875 -12,10.21875 -1.59375,-0.1875 -2.34375,-1.125 -0.75,-0.9375 -0.75,-2.4375 1.78125,-1.78125 2.8125,-2.90625 1.03125,-1.125 1.6875,-1.78125 l 1.5,-1.40625 q 0,-2.625 0.46875,-6.1875 0.46875,-3.5625 0.46875,-3.75 v -0.5625 q 0,-1.40625 -0.65625,-2.4375 -0.65625,-1.03125 -1.6875,-1.5 -1.40625,0.65625 -3.65625,1.78125 l -9.84375,4.96875 q -14.0625,7.3125 -23.8125,9.65625 -9.75,2.34375 -15.09375,7.6875 H 43.5 q -2.34375,-2.25 -2.34375,-3.28125 0,-0.5625 0.5625,-1.3125 0.65625,-0.84375 1.96875,-1.40625 6.46875,0 8.15625,-1.96875 1.78125,-1.96875 5.53125,-5.90625 -0.28125,-0.9375 -0.28125,-2.15625 0,-3.28125 3.65625,-7.125 -0.46875,-3.9375 -1.59375,-10.03125 -1.125,-6.1875 -2.90625,-14.90625 l -0.28125,-3.09375 q -0.1875,-1.40625 -0.1875,-2.71875 0,-9.28125 6.46875,-9.28125 1.03125,0 2.34375,0.375 1.3125,0.28125 2.90625,1.03125 l -0.09375,-0.0937 q 3.5625,1.59375 8.34375,5.90625 4.875,4.21875 11.25,11.625 0.1875,-1.78125 0.28125,-3.75 0.09375,-1.96875 0.09375,-3.75 0,-3.65625 -0.375,-7.3125 -0.375,-3.75 -1.21875,-7.59375 l -0.9375,-4.21875 -2.15625,-10.40625 q -0.75,-3.1875 -1.59375,-7.40625 -14.8125,17.71875 -21.84375,17.71875 -1.40625,0 -6.46875,-6.375 -4.96875,-6.375 -8.90625,-12.28125 -3.84375,-5.90625 -7.21875,-7.96875 -3.375,-2.15625 -3.75,-6.9375 z m 10.3125,8.34375 q 0,-3.46875 -2.8125,-7.3125 Q 38.8125,185.37836 36,184.06586 l -0.09375,0.1875 q 2.8125,2.0625 4.59375,4.6875 1.875,2.53125 1.875,4.59375 v 0.5625 q -0.1875,1.40625 -1.21875,1.40625 H 41.0625 q 0.9375,0.84375 1.6875,1.6875 l 1.3125,1.6875 q 2.15625,3.09375 8.34375,11.8125 6.1875,8.71875 6.84375,8.71875 5.53125,0 21.5625,-19.125 l 2.625,0.84375 q 1.59375,7.875 3.09375,14.4375 l 2.25,10.59375 q 0.84375,3.84375 1.21875,7.6875 0.375,3.84375 0.375,7.78125 0,3.9375 -0.5625,8.8125 10.125,-6.09375 17.8125,-9.375 0,-5.0625 0.46875,-8.8125 0.5625,-3.84375 1.59375,-7.40625 -2.15625,-0.84375 -3.9375,-1.875 -1.6875,-1.125 -2.4375,-1.59375 -0.75,-0.5625 -1.21875,-0.65625 -0.46875,-0.1875 -1.875,-1.03125 l -4.3125,-2.34375 H 96 q -5.25,-2.71875 -5.25,-5.25 l 0.75,-1.59375 -1.125,-0.28125 -0.84375,-1.125 v -3.65625 l 1.21875,-1.125 q 9.5625,0.5625 14.8125,10.6875 0.84375,0.1875 1.40625,0.375 l 3.65625,1.125 q 0.84375,-5.90625 2.90625,-9.28125 2.15625,-3.46875 5.4375,-4.21875 l 2.34375,1.21875 2.8125,5.8125 6.46875,14.25 -1.21875,1.3125 q -4.3125,-1.3125 -7.40625,-2.4375 l -5.90625,-2.15625 q -2.71875,-0.9375 -5.625,-1.78125 -2.8125,-0.9375 -6.46875,-1.78125 -2.34375,-4.875 -5.25,-7.21875 -2.8125,-2.4375 -6.1875,-2.8125 v 0.1875 q 3.75,1.03125 5.71875,3 1.96875,1.875 2.15625,3.375 0,1.5 -0.9375,1.96875 l 2.625,1.5 4.03125,2.34375 q 3.75,2.0625 12.28125,5.53125 8.53125,3.375 14.8125,5.34375 1.125,-0.75 1.875,-1.875 0.75,-1.125 0.9375,-2.4375 -1.78125,-3.28125 -6,-14.71875 -4.21875,-11.53125 -5.71875,-12.65625 -1.40625,-1.21875 -6.1875,-5.34375 -4.6875,-4.21875 -12.65625,-4.5 l -0.84375,-1.21875 v -5.34375 q -2.71875,-1.59375 -4.59375,-3.65625 l -0.46875,-2.71875 q -0.1875,-1.125 -0.1875,-2.0625 0,-2.15625 1.125,-3.46875 1.21875,-1.40625 2.25,-3.09375 0,-0.28125 -0.28125,-0.5625 -0.28125,-0.375 -0.65625,-0.375 -0.46875,0 -2.34375,2.71875 l -1.78125,0.1875 -2.4375,-1.125 -3.09375,-1.21875 q -1.6875,-0.65625 -3.28125,-1.125 -1.5,-0.5625 -2.625,-0.84375 l -0.46875,5.625 q -0.75,1.40625 -1.21875,2.4375 -0.375,1.03125 -0.5625,1.78125 1.21875,0.5625 1.78125,1.6875 0.65625,1.125 0.75,3.5625 l 0.75,0.5625 H 88.875 q 2.34375,0.28125 3.65625,1.875 1.3125,1.59375 1.5,4.875 l -1.21875,1.5 q -9.9375,3 -14.8125,7.6875 -4.78125,4.59375 -15.65625,17.0625 -0.75,0.1875 -1.6875,0.1875 -0.9375,0 -1.40625,0.0937 -4.40625,-5.71875 -7.875,-9.65625 -3.375,-4.03125 -6,-6.1875 z m 25.21875,86.34375 q 5.0625,-1.125 13.5,-4.875 8.4375,-3.75 15.09375,-7.125 6.75,-3.375 8.15625,-4.03125 1.5,-0.75 4.3125,-6.84375 0,-5.15625 -0.65625,-9.09375 -0.65625,-3.9375 -1.6875,-6.84375 -10.5,4.5 -27.1875,15.46875 -16.59375,10.96875 -18.84375,13.5 -2.15625,2.4375 -2.15625,4.40625 0,0.9375 1.03125,2.625 h -0.09375 q 2.25,2.8125 8.53125,2.8125 z M 64.03125,240.59711 Q 69,248.56586 69,259.06586 v 2.625 q 0,1.3125 -0.1875,2.625 l 9.09375,-6.1875 q 4.3125,-2.90625 8.25,-5.34375 -6.09375,-7.03125 -10.78125,-11.4375 -4.6875,-4.40625 -7.96875,-6.28125 z M 98.0625,166.06586 q 1.96875,-2.625 3.46875,-2.625 2.25,0 3.1875,1.5 1.03125,1.5 1.03125,3.5625 l -3.28125,4.6875 q 0,0.9375 0.0937,1.78125 l 0.28125,2.4375 q 0.5625,0.65625 1.40625,1.21875 l 1.59375,1.125 q 6.1875,-6.5625 6.1875,-12 0,-5.625 -4.03125,-9.1875 -3.9375,-3.65625 -9.28125,-3.65625 -10.875,0 -12.09375,7.3125 1.78125,0.375 4.3125,1.21875 2.53125,0.84375 4.78125,1.6875 z m -36.65625,72.9375 3.1875,-5.25 Q 63,233.28461 62.25,233.28461 q -3.46875,0 -3.46875,6.28125 0,1.03125 0.1875,2.34375 l 0.28125,2.90625 q 1.21875,6 2.34375,12.09375 1.125,6 1.875,11.25 l 0.5625,-0.5625 1.40625,-0.9375 Q 66,262.72211 66,259.06586 q 0,-9.28125 -4.6875,-17.0625 z m 52.125,-21.65625 q 1.40625,0.5625 2.53125,0.9375 l 5.53125,1.78125 q 1.78125,0.65625 4.59375,1.5 l -2.8125,-6.375 q -1.78125,-3.75 -4.5,-9.28125 -2.0625,0.46875 -3.375,3.75 -1.3125,3.1875 -1.96875,7.6875 z m -1.40625,67.59375 -1.59375,1.59375 q -1.21875,1.21875 -3.28125,3.375 2.15625,-1.03125 4.125,-2.90625 1.96875,-1.96875 3.84375,-4.5 v -7.6875 q 0,-2.625 0.46875,-4.59375 0.46875,-1.96875 1.59375,-3.75 -0.46875,-3.75 -4.40625,-4.59375 l -1.5,3 q -0.75,1.3125 -1.40625,2.34375 3.09375,1.875 3.09375,6.5625 0,1.03125 -0.46875,4.5 -0.46875,3.375 -0.46875,6.65625 z m -56.0625,0.5625 -2.25,2.53125 q -0.1875,0.28125 -2.71875,1.21875 -2.53125,0.9375 -6.28125,1.21875 h 9.375 q 3.5625,-3.46875 8.8125,-5.625 -2.625,-0.9375 -3.9375,-2.53125 z m 33.28125,-116.90625 1.6875,0.9375 q -1.875,1.125 -2.625,1.125 -0.84375,0 -0.84375,-1.125 0,-1.21875 0.75,-1.21875 0.28125,0 1.03125,0.28125 z"
         id="path4526"
         inkscape:connector-curvature="0" />
    </g>
  </g>
</svg>
