<?xml version="1.0" encoding="UTF-8" standalone="no"?>
<!-- Created with Inkscape (http://www.inkscape.org/) -->

<svg
   xmlns:dc="http://purl.org/dc/elements/1.1/"
   xmlns:cc="http://creativecommons.org/ns#"
   xmlns:rdf="http://www.w3.org/1999/02/22-rdf-syntax-ns#"
   xmlns:svg="http://www.w3.org/2000/svg"
   xmlns="http://www.w3.org/2000/svg"
   xmlns:sodipodi="http://sodipodi.sourceforge.net/DTD/sodipodi-0.dtd"
   xmlns:inkscape="http://www.inkscape.org/namespaces/inkscape"
   width="21.456055mm"
   height="38.099998mm"
   viewBox="0 0 21.456055 38.099997"
   version="1.1"
   id="svg4525"
   inkscape:version="0.92.4 (5da689c313, 2019-01-14)"
   sodipodi:docname="A30.svg">
  <defs
     id="defs4519" />
  <sodipodi:namedview
     id="base"
     pagecolor="#ffffff"
     bordercolor="#666666"
     borderopacity="1.0"
     inkscape:pageopacity="0.0"
     inkscape:pageshadow="2"
     inkscape:zoom="0.35"
     inkscape:cx="789.72737"
     inkscape:cy="-278.52743"
     inkscape:document-units="mm"
     inkscape:current-layer="layer1"
     showgrid="false"
     fit-margin-top="0"
     fit-margin-left="0"
     fit-margin-right="0"
     fit-margin-bottom="0"
     inkscape:window-width="1920"
     inkscape:window-height="1017"
     inkscape:window-x="-8"
     inkscape:window-y="-8"
     inkscape:window-maximized="1" />
  <metadata
     id="metadata4522">
    <rdf:RDF>
      <cc:Work
         rdf:about="">
        <dc:format>image/svg+xml</dc:format>
        <dc:type
           rdf:resource="http://purl.org/dc/dcmitype/StillImage" />
        <dc:title></dc:title>
      </cc:Work>
    </rdf:RDF>
  </metadata>
  <g
     inkscape:label="Layer 1"
     inkscape:groupmode="layer"
     id="layer1"
     transform="translate(296.26121,-37.039605)">
    <g
       aria-label="𓀉"
       style="font-style:normal;font-variant:normal;font-weight:normal;font-stretch:normal;font-size:50.79999924px;line-height:1.25;font-family:sans-serif;-inkscape-font-specification:sans-serif;font-variant-ligatures:normal;font-variant-caps:normal;font-variant-numeric:normal;font-feature-settings:normal;text-align:start;letter-spacing:0px;word-spacing:0px;writing-mode:lr-tb;text-anchor:start;fill:#000000;fill-opacity:1;stroke:none;stroke-width:0.26458332"
       id="text5105" />
    <g
       aria-label="𓀆"
       transform="matrix(0.26458333,0,0,0.26458333,-199.96101,81.431167)"
       style="font-style:normal;font-variant:normal;font-weight:normal;font-stretch:normal;font-size:192px;line-height:1.25;font-family:sans-serif;-inkscape-font-specification:sans-serif;font-variant-ligatures:normal;font-variant-caps:normal;font-variant-numeric:normal;font-feature-settings:normal;text-align:start;letter-spacing:0px;word-spacing:0px;writing-mode:lr-tb;text-anchor:start;fill:#000000;fill-opacity:1;stroke:none"
       id="flowRoot5135" />
    <g
       aria-label="𓀢"
       transform="matrix(0.26458333,0,0,0.26458333,-339.07875,56.064428)"
       style="font-style:normal;font-variant:normal;font-weight:normal;font-stretch:normal;font-size:192px;line-height:1.25;font-family:sans-serif;-inkscape-font-specification:sans-serif;font-variant-ligatures:normal;font-variant-caps:normal;font-variant-numeric:normal;font-feature-settings:normal;text-align:start;letter-spacing:0px;word-spacing:0px;writing-mode:lr-tb;text-anchor:start;fill:#000000;fill-opacity:1;stroke:none"
       id="flowRoot5289">
      <path
         d="m 205.04883,-27.279845 q -1.875,1.21875 -3.84375,2.71875 -1.96875,1.40625 -3.84375,1.40625 -1.6875,0 -2.90625,-1.40625 -2.0625,0.84375 -4.125,1.78125 -2.0625,0.9375 -4.5,0.9375 -5.0625,-0.1875 -10.6875,-9.46875 -5.53125,-9.28125 -7.125,-16.78125 -2.53125,-1.5 -4.40625,-4.3125 -1.78125,-2.90625 -1.78125,-4.59375 0,-1.03125 0.5625,-1.59375 0.65625,-0.5625 1.5,-0.5625 0.65625,0 1.21875,0.28125 l -1.6875,-3 0.75,-2.15625 1.5,-0.75 q 0.75,-0.28125 1.5,-0.75 0.46875,0.1875 0.9375,0.28125 l 0.84375,0.1875 q 1.40625,1.59375 2.0625,3.46875 0.65625,1.78125 1.125,3.75 l 0.75,3.9375 q 1.03125,5.53125 6.65625,13.21875 5.71875,7.6875 6.9375,9.375 l 2.15625,-1.125 q -2.8125,-4.78125 -5.25,-9.84375 -2.4375,-5.0625 -3.375,-10.6875 -1.03125,-1.5 -3.65625,-4.125 -2.53125,-2.625 -2.53125,-4.21875 0,-0.84375 0.46875,-1.6875 0.46875,-0.9375 1.3125,-0.9375 0.46875,0 1.21875,0.84375 l 0.75,0.9375 -1.78125,-2.34375 v -2.25 q 0.65625,-0.65625 1.125,-1.3125 0.5625,-0.65625 1.03125,-1.40625 l 2.25,0.1875 q 3.1875,3.1875 4.3125,7.03125 1.21875,3.84375 1.40625,8.34375 2.53125,4.5 5.0625,8.8125 l 5.15625,8.90625 q 0.5625,-0.28125 7.59375,-3.9375 7.125,-3.75 12.375,-4.3125 -0.1875,-1.125 -0.46875,-2.15625 -0.1875,-1.125 -1.21875,-1.78125 l -3.9375,-0.65625 -1.40625,-1.21875 -0.28125,-1.78125 -1.40625,-1.78125 0.65625,-2.34375 q 0.375,-1.3125 1.21875,-2.0625 l 1.40625,-6.1875 q 0.9375,-3.375 3.84375,-5.4375 2.90625,-2.0625 7.125,-2.0625 6.75,0 10.875,4.3125 4.21875,4.21875 4.21875,10.40625 0,3.1875 -1.40625,6 -1.3125,2.71875 -3.75,5.4375 1.03125,1.59375 4.875,3.46875 3.9375,1.875 3.9375,7.3125 0,2.71875 -1.96875,9.46875 -1.875,6.75 -2.625,14.0625 0.9375,2.7187502 0.9375,6.0000002 l -1.125,12.84375 q 0,2.7187498 0.5625,5.4374998 l 0.75,5.4375 q 1.3125,10.21875 2.34375,20.625 1.03125,10.40625 1.03125,20.625 0.75,1.96875 1.6875,4.125 0.9375,2.0625 0.9375,4.5 -0.1875,1.96875 -1.6875,2.90625 -1.5,0.9375 -3.375,0.9375 -2.34375,0 -4.21875,-1.3125 -3.375,0 -6.75,0.5625 -3.28125,0.65625 -7.5,0.65625 -1.5,-0.1875 -2.53125,-1.3125 -0.9375,-1.125 -0.9375,-2.34375 l 0.1875,-0.65625 q 0.375,-1.40625 2.25,-1.6875 1.875,-0.375 4.03125,-0.375 2.4375,0 5.25,-1.3125 2.8125,-1.3125 5.15625,-3.46875 l -0.84375,-10.6875 q -0.75,-9.09375 -3.09375,-13.59375 -2.25,-4.59375 -2.53125,-11.4375 h -7.125 q 0,5.15625 -2.15625,10.21875 -2.0625,5.0625 -3.75,14.15625 -1.6875,9.09375 -1.6875,12.09375 0,1.6875 0.5625,3.09375 0.65625,1.40625 0.65625,3 0,1.875 -1.40625,3.1875 -1.40625,1.3125 -3.75,1.3125 -2.25,0 -3.1875,-0.75 -0.9375,-0.75 -1.40625,-0.75 h -0.65625 q -1.875,0 -4.6875,0.5625 -2.8125,0.65625 -5.25,0.65625 -2.4375,0 -3.65625,-1.03125 -1.21875,-0.9375 -1.21875,-2.8125 0,-1.96875 3.1875,-2.0625 3.1875,-0.09375 7.59375,-2.0625 4.40625,-2.0625 5.4375,-6.1875 l 0.65625,-3 q 0.5625,-2.8125 1.03125,-6.1875 l 0.84375,-6.9375 0.75,-7.03125 q 0.75,-6.5625 2.71875,-19.78125 1.96875,-13.2187498 2.90625,-20.5312498 -0.84375,0.28125 -1.96875,0.28125 -1.5,0 -2.4375,-0.84375 -0.9375,-0.9375 -0.9375,-2.0625 0,-0.9375 0.84375,-1.5937502 0.84375,-0.75 2.0625,-0.75 0.75,0 1.5,0.1875 l 1.3125,0.375 q 0,-1.21875 -0.28125,-2.4375 l -0.46875,-2.34375 -1.96875,-15.1875 q -1.40625,0.65625 -2.71875,1.40625 z m 6,-6.46875 2.0625,1.40625 2.25,17.0625 0.46875,2.71875 q 0.1875,1.40625 0.28125,2.7187502 l 16.6875,-2.6250002 q 0,-0.84375 0.28125,-1.875 l 0.75,-4.21875 q 0.65625,-4.03125 2.0625,-8.90625 1.5,-4.96875 1.5,-7.21875 0,-4.5 -3.65625,-6 -3.65625,-1.5 -4.96875,-3.84375 l -1.875,-0.375 q -3.09375,-0.75 -4.40625,-3.65625 -1.21875,-2.90625 -1.78125,-6.1875 0.46875,-1.21875 0.375,-1.3125 -0.0937,-0.09375 0.9375,-0.65625 1.125,-0.65625 1.125,-1.40625 0,-0.1875 -0.1875,-0.75 l -1.3125,0.65625 -8.8125,-2.34375 -0.5625,1.40625 -0.375,1.3125 q -0.1875,0.65625 -0.1875,1.21875 -0.46875,0.46875 -0.65625,1.03125 l -0.375,1.21875 0.9375,0.84375 0.28125,1.78125 q 0.5625,0 3.46875,0.5625 3,0.5625 3.65625,5.90625 l 0.1875,2.25 q -0.46875,0.375 -0.84375,0.75 l -0.75,0.75 q -4.78125,0 -10.59375,3 -5.71875,3 -6.28125,3.28125 l -4.3125,2.25 -1.96875,0.9375 -1.875,1.03125 -2.90625,1.40625 -2.90625,1.5 -2.15625,-0.46875 q -1.40625,-2.34375 -3,-4.59375 l -3.28125,-4.40625 q -4.21875,-5.53125 -5.8125,-8.625 -1.5,-3.1875 -2.71875,-8.25 l -0.9375,-3.9375 q -0.5625,-1.96875 -1.5,-3.84375 l -0.5625,0.28125 q 1.125,2.0625 1.6875,4.21875 0.5625,2.15625 0.5625,3.09375 l -1.5,0.75 -1.96875,-1.3125 1.96875,2.90625 q 1.03125,1.125 2.625,2.0625 l 0.5625,0.75 q 1.59375,7.5 6.5625,15.9375 5.0625,8.34375 8.4375,8.71875 z m 22.875,52.3125 q -0.28125,-2.625 -0.84375,-5.25 -0.46875,-2.625 -0.46875,-5.7187498 0,-2.8125 0.65625,-6.1875 0.65625,-3.375 0.65625,-6.5625 0,-1.125 -0.28125,-2.15625 -0.1875,-1.125 -0.46875,-2.15625 l -17.25,2.71875 q -0.84375,7.31249999 -2.0625,14.4375 -1.125,7.0312498 -2.15625,14.3437498 h 22.59375 z m -4.875,-66.09375 q 1.6875,-1.875 3.28125,-4.21875 1.59375,-2.4375 1.59375,-5.0625 0,-5.34375 -3.28125,-8.625 -3.1875,-3.28125 -8.53125,-3.28125 -2.8125,0 -5.0625,0.9375 -2.15625,0.9375 -3.65625,4.125 l 4.125,1.03125 q 2.0625,0.5625 4.03125,1.21875 0.46875,-0.75 1.40625,-0.75 1.5,0 2.34375,1.21875 0.9375,1.21875 0.9375,2.53125 0,2.34375 -2.25,4.03125 l 1.5,4.875 q 0.9375,0.84375 1.59375,1.40625 0.65625,0.46875 1.96875,0.5625 z m 8.15625,102.84375 -0.375,-5.0625 -0.375,-5.90625 -0.75,-9.65625 q -0.46875,-4.875 -1.03125,-9.65625 h -5.34375 q 0,1.96875 0.28125,3.9375 0.375,1.96875 1.03125,3.84375 l 1.5,3.65625 q 1.21875,2.8125 1.96875,7.96875 0.84375,5.0625 1.6875,16.875 l -0.28125,0.9375 q -2.25,2.15625 -5.0625,3.5625 -2.71875,1.40625 -5.8125,2.0625 l -5.25,0.9375 q 0.375,0.28125 1.21875,0.28125 1.03125,0 2.71875,-0.28125 1.78125,-0.28125 4.03125,-0.46875 l 3.375,-0.46875 q 1.6875,-0.1875 3.375,-0.1875 0.1875,0.1875 1.40625,0.75 1.21875,0.46875 3.65625,0.46875 l 0.375,-0.28125 q 0.375,-0.375 0.375,-0.75 0,-1.125 -0.46875,-2.25 -0.375,-1.125 -0.84375,-2.25 l -0.9375,-2.15625 q -0.46875,-1.03125 -0.5625,-2.0625 z m -21.09375,-30.28125 h -4.78125 q -0.1875,0.65625 -0.1875,1.21875 l -1.78125,16.5 q -0.375,3.46875 -0.84375,6.1875 l -0.75,4.5 q -1.78125,11.15625 -7.59375,12.84375 -5.8125,1.6875 -8.625,2.625 l 11.0625,-1.3125 q 1.96875,0 2.71875,0.65625 0.84375,0.65625 3.65625,0.65625 0.46875,-0.1875 0.5625,-0.28125 l 0.1875,-0.5625 -1.125,-7.6875 q 0.75,-10.125 4.03125,-20.53125 3.28125,-10.5 3.46875,-14.8125 z m -33.09375,-77.53125 1.3125,4.21875 q 0.65625,2.15625 2.53125,6.28125 1.875,4.03125 4.5,8.15625 l 1.03125,-0.5625 1.125,-0.46875 -10.40625,-18.375 q 0,-0.5625 -0.0937,-1.40625 0,-0.84375 -0.0937,-1.59375 l -0.46875,-2.4375 q -0.84375,-4.03125 -3.375,-7.3125 l -0.5625,0.46875 q 1.21875,1.875 1.875,3.375 0.75,1.40625 0.9375,3.28125 l -1.03125,0.46875 -2.34375,-1.3125 3.84375,4.3125 0.75,1.125 z m 30.75,-6.75 q 0.375,0 1.03125,0.375 l 1.6875,1.21875 q -1.59375,1.03125 -2.34375,1.03125 -1.03125,0 -1.03125,-1.59375 0,-1.03125 0.65625,-1.03125 z"
         id="path5297"
         inkscape:connector-curvature="0" />
    </g>
  </g>
</svg>
