<?xml version="1.0" encoding="UTF-8" standalone="no"?>
<!-- Created with Inkscape (http://www.inkscape.org/) -->

<svg
   xmlns:dc="http://purl.org/dc/elements/1.1/"
   xmlns:cc="http://creativecommons.org/ns#"
   xmlns:rdf="http://www.w3.org/1999/02/22-rdf-syntax-ns#"
   xmlns:svg="http://www.w3.org/2000/svg"
   xmlns="http://www.w3.org/2000/svg"
   xmlns:sodipodi="http://sodipodi.sourceforge.net/DTD/sodipodi-0.dtd"
   xmlns:inkscape="http://www.inkscape.org/namespaces/inkscape"
   width="21.183203mm"
   height="37.802345mm"
   viewBox="0 0 21.183203 37.802344"
   version="1.1"
   id="svg4525"
   inkscape:version="0.92.4 (5da689c313, 2019-01-14)"
   sodipodi:docname="A32A.svg">
  <defs
     id="defs4519" />
  <sodipodi:namedview
     id="base"
     pagecolor="#ffffff"
     bordercolor="#666666"
     borderopacity="1.0"
     inkscape:pageopacity="0.0"
     inkscape:pageshadow="2"
     inkscape:zoom="0.35"
     inkscape:cx="1106.0672"
     inkscape:cy="-436.24731"
     inkscape:document-units="mm"
     inkscape:current-layer="layer1"
     showgrid="false"
     fit-margin-top="0"
     fit-margin-left="0"
     fit-margin-right="0"
     fit-margin-bottom="0"
     inkscape:window-width="1920"
     inkscape:window-height="1017"
     inkscape:window-x="-8"
     inkscape:window-y="-8"
     inkscape:window-maximized="1" />
  <metadata
     id="metadata4522">
    <rdf:RDF>
      <cc:Work
         rdf:about="">
        <dc:format>image/svg+xml</dc:format>
        <dc:type
           rdf:resource="http://purl.org/dc/dcmitype/StillImage" />
        <dc:title></dc:title>
      </cc:Work>
    </rdf:RDF>
  </metadata>
  <g
     inkscape:label="Layer 1"
     inkscape:groupmode="layer"
     id="layer1"
     transform="translate(379.95946,4.3927932)">
    <g
       aria-label="𓀉"
       style="font-style:normal;font-variant:normal;font-weight:normal;font-stretch:normal;font-size:50.79999924px;line-height:1.25;font-family:sans-serif;-inkscape-font-specification:sans-serif;font-variant-ligatures:normal;font-variant-caps:normal;font-variant-numeric:normal;font-feature-settings:normal;text-align:start;letter-spacing:0px;word-spacing:0px;writing-mode:lr-tb;text-anchor:start;fill:#000000;fill-opacity:1;stroke:none;stroke-width:0.26458332"
       id="text5105" />
    <g
       aria-label="𓀆"
       transform="matrix(0.26458333,0,0,0.26458333,-199.96101,81.431167)"
       style="font-style:normal;font-variant:normal;font-weight:normal;font-stretch:normal;font-size:192px;line-height:1.25;font-family:sans-serif;-inkscape-font-specification:sans-serif;font-variant-ligatures:normal;font-variant-caps:normal;font-variant-numeric:normal;font-feature-settings:normal;text-align:start;letter-spacing:0px;word-spacing:0px;writing-mode:lr-tb;text-anchor:start;fill:#000000;fill-opacity:1;stroke:none"
       id="flowRoot5135" />
    <g
       aria-label="𓀥"
       transform="matrix(0.26458333,0,0,0.26458333,-344.91405,-7.6379149)"
       style="font-style:normal;font-variant:normal;font-weight:normal;font-stretch:normal;font-size:192px;line-height:1.25;font-family:sans-serif;-inkscape-font-specification:sans-serif;font-variant-ligatures:normal;font-variant-caps:normal;font-variant-numeric:normal;font-feature-settings:normal;text-align:start;letter-spacing:0px;word-spacing:0px;writing-mode:lr-tb;text-anchor:start;fill:#000000;fill-opacity:1;stroke:none"
       id="flowRoot5311">
      <path
         d="m -73.486328,75.921327 q 2.34375,4.03125 3,5.8125 0.75,1.78125 0.75,3.09375 0,1.5 -0.375,3.84375 -0.375,2.34375 -0.375,10.5 v 29.625003 q 0.9375,1.03125 1.875,1.78125 l 1.6875,1.59375 q 1.125,1.03125 5.625,2.25 4.5,1.21875 4.5,4.40625 0,1.03125 -0.46875,2.34375 l -0.9375,2.25 q -0.84375,2.4375 -1.875,4.96875 -0.9375,2.4375 -1.3125,5.0625 -0.46875,0.375 -0.84375,0.75 l -0.75,0.75 h -1.40625 q -0.84375,0 -1.875,0.0937 -1.03125,0 -1.96875,-0.1875 -0.9375,-0.0937 -1.6875,-0.5625 -0.46875,0.28125 -1.3125,0.46875 -0.75,0.1875 -2.53125,0.1875 -1.03125,0 -2.0625,-0.5625 l -1.6875,-0.84375 q -4.40625,0 -7.40625,0.75 -2.90625,0.84375 -5.25,0.84375 -1.59375,0 -3.1875,-1.125 -1.5,-1.03125 -1.5,-2.625 0.375,-1.59375 1.875,-2.15625 1.5,-0.65625 4.03125,-0.65625 3.1875,0 5.90625,-1.3125 2.71875,-1.40625 4.96875,-3.5625 -0.1875,-3 -0.75,-5.90625 -0.46875,-3 -1.3125,-5.90625 -7.03125,-4.5 -13.875,-9.09375 -6.843752,-4.59375 -6.843752,-11.71875 v -2.25 q 0,-0.84375 0.46875,-2.34375 0.562502,-1.59375 3.375002,-12.375003 l 3.46875,-13.6875 -3.9375,0.28125 v -6.1875 l 4.875,2.90625 q 0.46875,-1.5 0.65625,-3.09375 0.1875,-1.59375 0.1875,-3.28125 0,-4.6875 -1.125,-9.46875 -1.03125,-4.875 -1.96875,-9.375 l -1.59375,1.875 q -4.218752,5.53125 -8.062502,8.15625 -3.84375,2.625 -6.75,2.625 -1.96875,0 -3.84375,-1.6875 -1.875,-1.6875 -3.46875,-4.21875 l -1.5,-2.0625 q -1.3125,-1.6875 -2.34375,-3.375 l -2.25,-3.46875 q -0.375,-0.5625 -0.75,-1.3125 -0.28125,-0.84375 -0.75,-1.3125 l -2.90625,-2.90625 q -1.5,-1.40625 -2.71875,-3.1875 v -1.5 l 0.1875,-0.375 1.21875,-0.1875 q -0.46875,-0.46875 -1.03125,-0.75 -0.46875,-0.375 -1.03125,-0.84375 v -2.25 l 1.125,-1.125 1.40625,-0.28125 q 3.84375,1.40625 5.71875,4.21875 1.96875,2.71875 2.90625,6.65625 6.375,4.78125 10.875,11.4375 7.59375,-10.03125 12.000002,-13.21875 4.5,-3.1875 10.3125,-5.0625 l -0.75,-1.3125 -4.21875,-0.9375 q -0.46875,-0.28125 -0.65625,-0.75 -0.1875,-0.5625 -0.28125,-1.21875 l -0.28125,-1.21875 q 0,-0.5625 -0.375,-0.9375 l -0.46875,-0.09375 -1.40625,-1.78125 q 0,-0.9375 1.21875,-3.84375 1.3125,-2.90625 1.5,-6.1875 0.1875,-3.375 3.375,-5.4375 3.1875,-2.0625 7.78125,-2.0625 5.4375,0 9.375,2.71875 4.03125,2.71875 4.03125,8.34375 0,3.5625 -1.6875,7.03125 -1.59375,3.46875 -3.84375,5.90625 v 1.5 q 4.59375,0.84375 8.0625,3.1875 3.46875,2.34375 5.0625,3.84375 1.59375,1.5 3.65625,6.65625 l 2.625,6.75 0.84375,2.25 0.5625,1.96875 0.65625,2.71875 q 0.375,1.59375 0.9375,4.3125 0,1.125 -0.46875,2.15625 -0.375,0.9375 -1.59375,1.6875 l -1.40625,0.1875 q -4.59375,-1.59375 -8.4375,-3 -3.75,-1.40625 -7.5,-2.90625 -0.375,1.875 -0.9375,4.125 -0.5625,2.25 -0.75,4.21875 z m -8.15625,-15.65625 q 1.03125,0.65625 2.53125,1.3125 l 2.8125,1.40625 3.46875,1.5 q 4.21875,1.96875 8.53125,3.1875 4.40625,1.21875 8.8125,2.71875 l 0.09375,-0.09375 q -0.375,-6.28125 -3.84375,-13.96875 -3.46875,-7.6875 -4.125,-8.625 -0.5625,-0.9375 -4.5,-3.84375 -3.9375,-3 -8.53125,-3.375 l -1.40625,-1.78125 -0.09375,-1.78125 q -1.875,-0.375 -3.28125,-1.6875 -1.3125,-1.3125 -1.3125,-3.9375 0,-1.5 0.65625,-3.1875 0.65625,-1.78125 1.21875,-1.875 0.5625,-0.1875 0.5625,-1.59375 0,-0.65625 -0.375,-0.65625 -0.46875,0 -0.75,0.46875 -0.1875,0.46875 -0.28125,0.75 l -0.9375,0.375 -1.03125,0.5625 -7.96875,-2.71875 q -0.65625,3.1875 -1.125,3.5625 -0.375,0.28125 -0.84375,2.0625 1.03125,0.5625 1.3125,1.78125 0.28125,1.125 0.84375,2.4375 2.71875,0.375 4.125,1.5 1.5,1.03125 2.25,3.75 l -1.03125,1.96875 q -10.875,2.90625 -16.781252,10.6875 -5.90625,7.6875 -6.65625,8.625 l -1.21875,-0.1875 h -1.3125 q -1.875,-3 -4.03125,-5.625 -2.0625,-2.71875 -4.6875,-5.0625 l -2.8125,-2.8125 q -0.65625,-0.65625 -1.40625,-3.84375 -0.75,-3.28125 -4.875,-5.8125 -0.1875,0 -0.28125,0.1875 l -0.28125,0.28125 1.78125,1.21875 q 1.21875,1.03125 1.6875,1.78125 0.46875,0.75 0.5625,1.875 l -0.75,0.46875 -3,-1.125 2.15625,1.40625 q 1.875,1.125 4.125,4.59375 2.34375,3.46875 3.46875,4.875 l 3.65625,4.59375 q 0.28125,0.46875 2.25,2.90625 2.0625,2.34375 2.625,2.34375 5.25,-0.5625 10.6875,-7.03125 5.531252,-6.46875 6.000002,-7.03125 l 2.53125,1.125 q 0.46875,3.09375 2.0625,10.125 1.6875,7.03125 1.6875,12.09375 0,1.59375 -0.1875,3.1875 -0.09375,1.5 -0.5625,3.09375 l 13.21875,-2.25 q 0,-0.9375 0.75,-4.5 0.75,-3.5625 0.84375,-4.3125 -3.5625,-1.5 -7.21875,-3.375 -3.65625,-1.875 -5.90625,-5.0625 l -0.1875,-1.03125 q 0.1875,-0.375 0.1875,-0.5625 l 0.5625,-0.1875 -0.75,-0.28125 -0.46875,-0.84375 q -0.28125,-0.375 -0.46875,-0.84375 v -1.59375 l 1.40625,-1.78125 q 3.9375,0.28125 6.375,2.34375 2.4375,2.0625 3.84375,5.71875 0.84375,0.46875 1.78125,0.84375 l 1.78125,0.75 0.65625,-3.375 q 0.65625,-3.09375 1.96875,-5.25 1.3125,-2.25 3.46875,-2.25 l 1.5,1.03125 q 1.59375,3.46875 3,7.125 1.5,3.5625 3.375,6.84375 -0.46875,0.5625 -0.9375,0.9375 -0.375,0.28125 -0.84375,0.9375 l -11.0625,-3 q -0.9375,-0.28125 -2.0625,-0.75 -1.125,-0.5625 -2.0625,-1.125 l -1.6875,-0.84375 -0.75,-0.28125 q -0.5625,-1.21875 -1.875,-3.75 -1.3125,-2.625 -5.0625,-3.5625 l -0.09375,0.9375 1.3125,0.65625 q 0.5625,0.28125 1.125,0.65625 l 0.84375,0.65625 q 1.03125,0.84375 1.125,1.3125 0.1875,0.46875 0.1875,0.5625 l -0.84375,0.75 -3,-1.78125 -0.1875,0.9375 z m 8.15625,46.312503 v -6.937503 q 0,-3.9375 0.09375,-7.78125 0.09375,-3.9375 0.5625,-7.875 -0.46875,-1.40625 -1.21875,-2.8125 -0.75,-1.5 -1.6875,-3.09375 l -7.40625,1.21875 q -3.65625,0.65625 -7.3125,1.40625 l -1.5,5.8125 -1.875,6.65625 q -0.9375,3.46875 -1.78125,6.937503 -0.84375,3.46875 -1.40625,6.46875 z m -18,7.3125 q -1.21875,-0.65625 -1.5,-1.40625 -0.1875,-0.75 -0.1875,-2.90625 h -4.21875 l -0.1875,2.71875 q 0,3.28125 1.6875,5.25 1.78125,1.875 6.375,4.78125 l 5.0625,3.09375 1.59375,1.125 q 1.21875,0.84375 3.09375,1.96875 l 9,5.8125 q 1.03125,1.3125 2.0625,2.71875 l 1.96875,2.8125 q 0.75,1.21875 1.40625,2.4375 0.75,1.21875 0.84375,4.40625 v 3.75 l -0.84375,0.65625 q -0.375,0.28125 -0.75,0.65625 -0.46875,0 -0.84375,0.0937 l -0.84375,0.1875 q 0.46875,0.1875 1.5,0.1875 h 1.03125 q 0.5625,0 1.03125,-0.0937 0.75,-3.5625 2.15625,-6.75 1.40625,-3.1875 2.15625,-6.65625 -0.65625,-0.9375 -1.78125,-1.40625 -1.125,-0.46875 -2.4375,-0.84375 l -2.53125,-0.75 q -1.5,-0.46875 -3.1875,-2.0625 -1.59375,-1.59375 -3.1875,-3.28125 l -4.21875,-4.21875 q -4.3125,-4.125 -7.125,-6.75 -2.71875,-2.625 -4.96875,-4.03125 z m 0.375,-93.468753 7.5,2.53125 q 0.5625,-0.84375 1.40625,-1.40625 0.9375,-0.65625 2.25,-0.65625 1.59375,0 2.15625,1.21875 0.65625,1.125 0.65625,2.625 0,1.03125 -0.375,2.15625 -0.375,1.03125 -1.3125,1.78125 -0.75,1.6875 -0.75,2.71875 0,1.96875 2.625,2.71875 l 1.78125,-2.25 q 1.21875,-1.3125 2.0625,-4.21875 0.84375,-3 0.84375,-4.5 0,-4.125 -3.1875,-6 -3.09375,-1.875 -7.21875,-1.875 -3.1875,0 -5.53125,1.125 -2.34375,1.125 -2.90625,4.03125 z m 12.84375,100.312503 4.78125,4.875 v -16.03125 h -6.1875 v 2.0625 q 0,3.28125 0.5625,5.53125 0.65625,2.15625 0.84375,3.5625 z m 4.78125,15.375 -2.90625,-1.6875 q 0.46875,2.4375 0.75,4.96875 0.375,2.4375 0.5625,4.96875 l -0.28125,0.9375 q -3.28125,3.09375 -7.3125,4.6875 -4.03125,1.5 -8.53125,1.875 0.9375,0.375 1.59375,0.375 2.25,0 5.15625,-0.84375 2.90625,-0.9375 5.53125,-0.9375 1.96875,0 3.1875,0.75 1.21875,0.75 3.28125,0.75 0.5625,0 0.9375,-0.5625 0,-1.875 -1.21875,-4.59375 -1.125,-2.71875 -1.125,-3.75 v -1.03125 q 0,-1.5 0.1875,-3 0.1875,-1.59375 0.1875,-2.90625 z m 5.25,-83.062503 q -0.84375,0.84375 -1.59375,3.46875 -0.75,2.625 -0.9375,4.78125 l 7.03125,1.875 q -1.21875,-2.53125 -2.25,-5.0625 z m -21.9375,58.500003 q 1.875,0.84375 3.84375,2.25 2.0625,1.40625 4.03125,3.1875 l -0.1875,-1.59375 q 0,-0.75 -0.09375,-1.59375 v -4.21875 h -7.59375 z m 21.1875,37.6875 q 0.65625,-0.28125 1.5,-0.28125 -0.1875,-2.15625 -0.1875,-3.1875 0,-1.78125 -0.65625,-3.09375 -0.65625,-1.3125 -2.4375,-3.5625 0,0.5625 -0.09375,1.03125 v 2.25 q 0,1.03125 0.75,3.46875 0.84375,2.34375 1.125,3.375 z m -20.4375,-123.843753 q 2.34375,0.375 3,1.3125 l -3,0.75 -1.125,-1.125 z"
         id="path5319"
         inkscape:connector-curvature="0" />
    </g>
  </g>
</svg>
