<?xml version="1.0" encoding="UTF-8" standalone="no"?>
<!-- Created with Inkscape (http://www.inkscape.org/) -->

<svg
   xmlns:dc="http://purl.org/dc/elements/1.1/"
   xmlns:cc="http://creativecommons.org/ns#"
   xmlns:rdf="http://www.w3.org/1999/02/22-rdf-syntax-ns#"
   xmlns:svg="http://www.w3.org/2000/svg"
   xmlns="http://www.w3.org/2000/svg"
   xmlns:sodipodi="http://sodipodi.sourceforge.net/DTD/sodipodi-0.dtd"
   xmlns:inkscape="http://www.inkscape.org/namespaces/inkscape"
   width="78.231499mm"
   height="118.15654mm"
   viewBox="0 0 78.231499 118.15654"
   version="1.1"
   id="svg11283"
   inkscape:version="0.92.4 (5da689c313, 2019-01-14)"
   sodipodi:docname="A33.svg">
  <defs
     id="defs11277" />
  <sodipodi:namedview
     id="base"
     pagecolor="#ffffff"
     bordercolor="#666666"
     borderopacity="1.0"
     inkscape:pageopacity="0.0"
     inkscape:pageshadow="2"
     inkscape:zoom="0.35"
     inkscape:cx="-337.284"
     inkscape:cy="-106.09529"
     inkscape:document-units="mm"
     inkscape:current-layer="layer1"
     showgrid="false"
     fit-margin-top="0"
     fit-margin-left="0"
     fit-margin-right="0"
     fit-margin-bottom="0"
     inkscape:window-width="1920"
     inkscape:window-height="1017"
     inkscape:window-x="-8"
     inkscape:window-y="-8"
     inkscape:window-maximized="1" />
  <metadata
     id="metadata11280">
    <rdf:RDF>
      <cc:Work
         rdf:about="">
        <dc:format>image/svg+xml</dc:format>
        <dc:type
           rdf:resource="http://purl.org/dc/dcmitype/StillImage" />
        <dc:title></dc:title>
      </cc:Work>
    </rdf:RDF>
  </metadata>
  <g
     inkscape:label="Layer 1"
     inkscape:groupmode="layer"
     id="layer1"
     transform="translate(-1.9272244,-2.6057503)">
    <g
       aria-label="𓀦"
       transform="matrix(0.82213725,0,0,0.82213725,45.052498,-83.006871)"
       style="font-style:normal;font-variant:normal;font-weight:normal;font-stretch:normal;font-size:192px;line-height:1.25;font-family:sans-serif;-inkscape-font-specification:'sans-serif, Normal';font-variant-ligatures:normal;font-variant-caps:normal;font-variant-numeric:normal;font-feature-settings:normal;text-align:start;letter-spacing:0px;word-spacing:0px;writing-mode:lr-tb;text-anchor:start;fill:#000000;fill-opacity:1;stroke:none"
       id="flowRoot11828">
      <path
         d="m 28.263672,120.35297 q 4.21875,3.28125 7.96875,7.875 3.75,4.5 6.46875,8.71875 l -1.03125,1.96875 -10.59375,4.5 -1.6875,-0.75 q -1.6875,-3.9375 -3,-9.9375 -1.3125,-6 -1.96875,-11.0625 l -21.0000001,6.5625 q 4.875,2.25 8.5312501,12.375 3.65625,10.03125 3.9375,10.6875 l 2.4375,6.375 q 2.25,2.8125 3.375,7.03125 1.21875,4.125 1.21875,13.125 0,9 -1.3125,26.625 1.6875,7.40625 2.0625,17.15625 l 0.1875,8.90625 q 0,4.5 0.65625,9 0.9375,1.21875 0.9375,3 0,1.875 -1.125,3.5625 -1.125,1.59375 -3.28125,1.59375 -1.3125,0 -2.53125,-0.84375 -1.125,-0.75 -2.25,-0.75 -0.84375,0 -2.15625,0.28125 l -5.4375001,1.125 q -1.3125,0.28125 -2.25,0.28125 -1.03125,0 -1.96875,-0.28125 -0.9375,-0.28125 -1.59375,-1.03125 l -0.84375,-1.6875 0.46875,-1.40625 q 0.375,-0.28125 1.125,-0.46875 0.84375,-0.28125 1.78125,-0.46875 l 1.78125,-0.375 q 1.875,-0.46875 4.9687501,-1.78125 3.09375,-1.40625 5.0625,-3.75 0.28125,-1.125 0.28125,-2.4375 0,-5.8125 -3.1875,-15.28125 -3.09375,-9.46875 -3.28125,-13.40625 H 0.32617188 l -0.65625001,6.9375 q -0.46874999,4.78125 -1.03124997,9.28125 l -1.3125,9.375 -0.75,5.0625 q -0.1875,0.65625 -0.9375,6.28125 -0.65625,5.53125 -4.40625,5.53125 -1.6874999,0 -3.4687499,-1.59375 -3,0 -6.09375,0.65625 -3.09375,0.65625 -7.03125,0.84375 -1.40625,0 -2.25,-0.46875 -0.84375,-0.375 -1.03125,-1.21875 l -0.28125,-0.75 0.1875,-0.84375 q 0.375,-1.5 3.46875,-1.6875 3.09375,-0.28125 7.03125,-2.4375 4.03125,-2.15625 7.03125,-2.90625 1.5937499,-3.84375 1.5937499,-8.34375 0,-3.84375 -1.2187499,-10.21875 -1.21875,-6.46875 -1.21875,-10.5 l 0.1875,-3 h -2.90625 l -1.21875,-2.25 q 2.90625,-5.4375 7.4999999,-13.78125 4.59375,-8.4375 6.375,-11.8125 l 2.15624997,-4.03125 q 0.93750001,-1.78125 1.68750003,-3.09375 -1.50000002,-3.5625 -3.46875,-6.46875 -1.96875,-3 -4.03125,-5.71875 l -4.3124999,-5.53125 q -2.15625,-2.71875 -4.03125,-6 l -1.40625,7.3125 q -0.9375,5.25 -2.625,7.96875 -1.6875,2.71875 -3.65625,2.71875 -2.90625,0 -7.125,-2.8125 -4.21875,-2.90625 -9.5625,-8.25 l -5.71875,-5.8125 -4.3125,-1.5 q -0.65625,-0.46875 -0.75,-0.65625 l -1.6875,0.84375 -1.5,-2.25 2.0625,-0.65625 q 0,-0.1875 -0.09375,-0.65625 0,-1.59375 1.78125,-3 1.875,-1.5 4.03125,-1.5 1.59375,0 3,1.40625 l 23.71875,-7.875 q 0.75,-0.75 1.78125,-1.40625 1.03125,-0.65625 2.53125,-1.125 h -0.9375 l -3.1875,0.375 -0.65625,-0.375 -0.5625,-0.375 q -0.84375,-0.9375 -1.40625,-2.25 h -1.875 l -1.40625,-1.78125 q 0.1875,-1.3125 0.46875,-2.625 0.28125,-1.40625 1.3125,-2.4375 l 0.09375,-1.21875 v -0.9375 l -0.375,-1.875 q 0.375,-4.59375 1.3125,-6.65625 1.03125,-2.0625 3.84375,-3.5625 2.90625,-1.59375 6.75,-1.59375 5.4374999,0 9.65624988,3.28125 4.21875002,3.1875 4.21875002,8.0625 0,2.53125 -1.03125,4.875 -1.03125,2.34375 -2.43750003,4.40625 l -0.65624999,0.28125 q 0.28124999,0.75 0.84375,1.3125 L 41.388672,113.41547 v 2.8125 z m -28.31250012,9.75 q -1.03124998,-1.03125 -2.34374998,-2.34375 -1.21875,-1.40625 -1.21875,-2.90625 l -3.46875,-1.03125 q -1.875,-0.5625 -3.6562499,-2.90625 l 0.65625,-1.78125 q 0.7499999,0 1.0312499,-0.65625 0.375,-0.75 0.375,-1.21875 v -0.75 q 0,-0.5625 -0.375,-0.5625 -0.75,0.1875 -0.9375,0.75 -0.1874999,0.5625 -0.1874999,1.03125 h -8.71875 v 0.84375 q 0,1.59375 -0.5625,2.625 -0.46875,1.03125 -0.9375,2.625 h 1.125 l 0.75,0.75 q 0.375,0.375 0.84375,0.75 0,0.46875 0.28125,0.75 l 0.46875,0.75 1.78125,-0.1875 q 0.9375,0 1.96875,-0.0937 1.3125,0 2.34375,0.375 1.0312499,0.375 1.0312499,1.59375 0,0.375 -0.4687499,1.78125 l -1.03125,1.03125 q -1.03125,0.28125 -2.15625,0.9375 -1.125,0.5625 -2.0625,0.84375 -3.28125,5.71875 -4.59375,11.625 -1.21875,5.8125 -2.15625,12.28125 l -2.0625,1.40625 q -2.8125,-1.78125 -10.59375,-7.6875 -7.78125,-6 -7.125,-5.4375 l -0.84375,-0.65625 -0.1875,-1.6875 -1.5,-1.78125 q -0.75,0 -1.6875,0.65625 -0.84375,0.65625 -1.3125,1.125 0.1875,0.5625 0.46875,0.84375 l 3.84375,1.40625 q 0.84375,0.9375 2.0625,2.25 1.3125,1.21875 2.8125,2.53125 l 2.90625,2.71875 q 3.1875,3 6,5.0625 2.8125,2.0625 7.5,3.84375 1.59375,-1.21875 2.8125,-4.875 1.3125,-3.75 2.25,-10.03125 l 0.46875,-3.375 q 0.1875,-1.40625 0.28125,-1.6875 l 2.90625,-0.1875 q 2.15625,5.8125 8.6249999,13.5 6.46875,7.59375 8.71875,13.125 l 11.2500001,-9.9375 q -0.375,-0.84375 -5.25,-14.0625 -4.8750001,-13.21875 -9.18750012,-13.59375 z m 4.68750002,41.625 -16.7812499,30.65625 h 30.84375 q 0.5625,-6.1875 0.84375,-12.375 0.375,-6.1875 0.375,-12.46875 0,-4.21875 -0.375,-8.625 -0.375,-4.5 -2.625,-8.15625 z m -24.9374999,-36.1875 -20.0625,6.5625 0.28125,0.75 0.09375,1.3125 q 3.9375,2.625 7.5,5.34375 3.5625,2.625 7.59375,5.0625 0.1875,-0.9375 1.40625,-7.78125 1.21875,-6.84375 3.1875,-11.25 z m 1.21875,-20.8125 h 7.875 q 0.1875,-0.9375 0.84375,-1.3125 0.7499999,-0.46875 1.4999999,-0.46875 1.59375,0 2.25,1.3125 0.65625,1.3125 0.65625,2.53125 0,2.15625 -1.40625,3.28125 0.75,0.5625 2.8125,1.40625 2.0625,0.75 2.8125,0.75 0.93749998,-1.5 1.59374998,-3.09375 0.74999999,-1.6875 0.74999999,-3.5625 0,-3.5625 -3.37499997,-6.09375 -3.375,-2.625 -7.6874999,-2.625 -3.375,0 -5.71875,1.78125 -2.34375,1.6875 -2.90625,6.09375 z m 9.3749999,125.4375 q -1.4062499,0.28125 -3.1874999,0.9375 l -7.6875,3 q -1.96875,0.75 -3.5625,1.125 l 6.46875,-1.21875 q 1.78125,-0.28125 3.375,-0.46875 1.6875,-0.28125 2.53125,-0.28125 0.46875,0 1.03125,0.46875 0.5625,0.375 2.2499999,1.03125 0.84375,0 1.125,-1.03125 0.28125,-1.125 0.28125,-2.625 v -1.21875 l 0.75,-4.6875 q 1.125,-7.40625 2.0625,-14.8125 1.03125,-7.40625 1.59375,-15 h -6.1875 q -0.1875,0.84375 -0.1875,1.6875 v 1.78125 q 0,2.625 0.28125,5.25 0.375,2.625 0.84375,5.25 l 0.75,5.15625 q 0.375,2.625 0.375,5.15625 0,2.4375 -0.46875,4.78125 -0.375,2.25 -1.40625,4.6875 z m 31.5937501,0.28125 q -0.65625,-5.34375 -0.84375,-16.59375 -0.1875,-11.34375 -2.0625,-18.46875 h -4.875 q 0.5625,4.125 2.71875,10.875 2.15625,6.75 2.71875,10.875 l 0.46875,3.28125 q 0.1875,1.96875 0.1875,3.84375 0,4.3125 -3,6.28125 -3,1.875 -10.0312501,4.3125 1.78125,-0.1875 4.5937501,-0.84375 2.90625,-0.65625 4.21875,-0.65625 0.84375,0 1.59375,0.1875 0.84375,0.0937 1.5,0.5625 l 1.03125,0.375 q 0.46875,0.1875 1.21875,0.1875 0.75,0 0.84375,-0.75 l 0.1875,-1.5 z m 17.4375,-103.78125 -3,-3.5625 -3.28125,-3.75 q -1.6875,-1.78125 -3.1875,-3.28125 -1.40625,-1.5 -2.34375,-2.53125 0.84375,4.5 1.78125,8.25 1.03125,3.75 2.0625,8.25 z m -54,-16.78125 q -1.5,1.21875 -2.53125,1.21875 -0.84375,0 -0.84375,-1.21875 0,-1.125 0.84375,-1.125 0.84375,0 2.53125,1.125 z"
         id="path11836"
         inkscape:connector-curvature="0" />
    </g>
  </g>
</svg>
