<?xml version="1.0" encoding="UTF-8" standalone="no"?>
<!-- Created with Inkscape (http://www.inkscape.org/) -->

<svg
   xmlns:dc="http://purl.org/dc/elements/1.1/"
   xmlns:cc="http://creativecommons.org/ns#"
   xmlns:rdf="http://www.w3.org/1999/02/22-rdf-syntax-ns#"
   xmlns:svg="http://www.w3.org/2000/svg"
   xmlns="http://www.w3.org/2000/svg"
   xmlns:sodipodi="http://sodipodi.sourceforge.net/DTD/sodipodi-0.dtd"
   xmlns:inkscape="http://www.inkscape.org/namespaces/inkscape"
   width="22.001757mm"
   height="38.075195mm"
   viewBox="0 0 22.001757 38.075195"
   version="1.1"
   id="svg11845"
   inkscape:version="0.92.4 (5da689c313, 2019-01-14)"
   sodipodi:docname="A34.svg">
  <defs
     id="defs11839" />
  <sodipodi:namedview
     id="base"
     pagecolor="#ffffff"
     bordercolor="#666666"
     borderopacity="1.0"
     inkscape:pageopacity="0.0"
     inkscape:pageshadow="2"
     inkscape:zoom="0.35"
     inkscape:cx="-374.68826"
     inkscape:cy="-397.43016"
     inkscape:document-units="mm"
     inkscape:current-layer="layer1"
     showgrid="false"
     fit-margin-top="0"
     fit-margin-left="0"
     fit-margin-right="0"
     fit-margin-bottom="0"
     inkscape:window-width="1920"
     inkscape:window-height="1017"
     inkscape:window-x="-8"
     inkscape:window-y="-8"
     inkscape:window-maximized="1" />
  <metadata
     id="metadata11842">
    <rdf:RDF>
      <cc:Work
         rdf:about="">
        <dc:format>image/svg+xml</dc:format>
        <dc:type
           rdf:resource="http://purl.org/dc/dcmitype/StillImage" />
        <dc:title></dc:title>
      </cc:Work>
    </rdf:RDF>
  </metadata>
  <g
     inkscape:label="Layer 1"
     inkscape:groupmode="layer"
     id="layer1"
     transform="translate(-11.823769,-5.6047414)">
    <g
       aria-label="𓀧"
       transform="matrix(0.26458333,0,0,0.26458333,119.44048,-27.214286)"
       style="font-style:normal;font-variant:normal;font-weight:normal;font-stretch:normal;font-size:192px;line-height:1.25;font-family:sans-serif;-inkscape-font-specification:'sans-serif, Normal';font-variant-ligatures:normal;font-variant-caps:normal;font-variant-numeric:normal;font-feature-settings:normal;text-align:start;letter-spacing:0px;word-spacing:0px;writing-mode:lr-tb;text-anchor:start;fill:#000000;fill-opacity:1;stroke:none"
       id="flowRoot12390">
      <path
         d="m -393.14648,166.41547 q -1.3125,-0.375 -2.25,-1.40625 -0.9375,-1.125 -0.9375,-2.90625 0,-1.875 1.03125,-2.90625 0.1875,-0.46875 0.28125,-0.84375 0.0937,-0.46875 0.28125,-0.9375 l 1.59375,0.0937 v -9.1875 h 3 v 10.3125 q 0.75,0.5625 1.3125,1.5 0.65625,0.9375 1.3125,2.25 3.75,1.59375 7.125,3.9375 3.46875,2.34375 6.75,4.78125 l 1.5,1.03125 q 4.5,-4.21875 8.71875,-8.625 l 8.53125,-8.71875 q 0.84375,-0.84375 1.875,-1.125 l 1.96875,-0.46875 q 0.9375,-0.1875 1.5,-0.65625 0.5625,-0.5625 0.5625,-1.875 0,-1.78125 -1.3125,-1.78125 -0.46875,0 -1.125,0.0937 l -1.78125,0.1875 q -1.3125,0 -1.6875,-0.9375 -0.375,-1.03125 -0.375,-2.53125 0,-0.84375 -0.28125,-1.3125 l -0.28125,-0.46875 -0.46875,-0.0937 -1.40625,-1.78125 q 0,-2.25 1.875,-4.875 1.96875,-2.71875 1.96875,-5.15625 0.375,-3.75 4.03125,-5.8125 3.65625,-2.15625 8.15625,-2.15625 5.8125,0 9.375,3.1875 3.5625,3.1875 3.5625,9 0,4.40625 -1.96875,8.34375 -1.875,3.9375 -4.78125,7.125 3.09375,1.21875 4.21875,3.5625 1.125,2.34375 1.125,4.96875 0,1.03125 -0.1875,2.25 -0.0937,1.125 -0.46875,2.90625 l -2.34375,11.15625 q -0.28125,1.875 -0.65625,3.75 -0.375,1.875 -0.375,4.03125 3.09375,5.8125 4.78125,14.0625 1.6875,8.15625 1.6875,16.96875 0,4.3125 -0.28125,6.46875 -0.28125,2.15625 0.0937,3.375 0.46875,1.21875 0.75,6.84375 l 0.0937,1.40625 v 9 q 0,4.3125 0.28125,8.53125 0.28125,4.125 1.40625,8.34375 1.78125,1.59375 1.78125,4.03125 0,1.78125 -1.21875,3.09375 -1.125,1.3125 -3.1875,1.3125 -0.46875,0 -1.21875,-0.28125 -0.65625,-0.1875 -2.0625,-1.21875 -3,0 -6.28125,0.84375 -3.1875,0.84375 -6.46875,0.84375 -2.4375,0 -3.9375,-0.75 l -0.46875,-0.84375 q -0.28125,-0.28125 -0.46875,-0.65625 0.1875,-0.375 0.28125,-0.65625 l 0.1875,-0.65625 q 0.75,-0.75 1.59375,-0.9375 0.84375,-0.1875 1.875,-0.1875 0.65625,-0.375 5.4375,-1.875 4.78125,-1.5 6.75,-4.5 -0.28125,-1.40625 -3,-12.65625 -2.71875,-11.25 -2.90625,-18.84375 h -7.6875 q -0.1875,2.625 -0.46875,5.15625 l -0.5625,5.0625 -1.3125,9.9375 q -0.84375,6.75 -1.21875,8.90625 -0.375,2.0625 -0.46875,3.1875 l -0.1875,2.625 q -0.5625,4.78125 -1.96875,6.09375 -1.3125,1.40625 -3.46875,1.40625 -2.4375,0 -4.40625,-1.5 -3,0 -5.8125,0.75 -2.8125,0.75 -5.8125,0.75 -1.03125,0 -1.96875,-0.28125 -0.84375,-0.28125 -1.21875,-1.125 -0.84375,0.75 -1.40625,1.40625 h -28.6875 l -1.40625,-1.78125 v -41.8125 l 1.40625,-1.78125 h 12.1875 v -36.09375 l -0.75,-0.1875 q -1.03125,-0.28125 -1.875,-1.03125 -0.75,-0.84375 -0.75,-2.0625 0,-1.40625 0.84375,-2.53125 -0.28125,-0.375 -0.375,-0.9375 l -0.0937,-0.65625 1.40625,-1.78125 1.59375,0.0937 z m 37.125,93.46875 q -1.3125,0.9375 -4.78125,2.25 -3.46875,1.21875 -8.625,2.71875 l 4.875,-0.9375 q 1.40625,-0.28125 2.8125,-0.46875 1.40625,-0.1875 1.78125,-0.1875 0.84375,0.1875 1.59375,0.84375 0.75,0.65625 1.6875,0.65625 2.15625,0 2.4375,-2.25 0.28125,-2.25 1.96875,-13.40625 1.6875,-11.25 2.90625,-23.71875 h -6 q 0.1875,4.125 0.9375,10.21875 0.84375,6.09375 0.84375,10.5 0,3.28125 -0.65625,6.46875 -0.65625,3.09375 -1.125,6.09375 z m 27.84375,0.5625 q -1.125,-4.125 -1.5,-8.25 -0.28125,-4.125 -0.28125,-8.34375 v -9.1875 q 0,-2.34375 -0.1875,-4.6875 -0.1875,-2.34375 -0.65625,-4.59375 h -4.875 q 0.5625,7.96875 2.34375,15.75 l 3.5625,15.5625 q -0.1875,0.9375 -0.1875,1.40625 -1.5,2.25 -5.0625,4.03125 -3.46875,1.78125 -7.59375,3 0.84375,0 2.25,-0.46875 l 2.90625,-0.65625 q 1.40625,-0.28125 2.71875,-0.46875 1.3125,-0.28125 1.96875,-0.28125 1.125,0 2.25,0.375 1.21875,0.28125 2.25,1.125 h 0.1875 q 1.40625,0 1.59375,-1.59375 0,-0.65625 -0.46875,-1.21875 -0.375,-0.5625 -0.75,-0.65625 z m -12.84375,-133.40625 q -2.71875,0 -5.34375,1.03125 -2.625,1.03125 -3.9375,3 0.375,0.1875 4.5,1.875 4.125,1.6875 4.40625,4.5 1.3125,0 2.15625,0.84375 0.84375,0.75 0.84375,2.0625 0,1.5 -0.84375,2.625 -0.75,1.03125 -1.96875,1.59375 0.75,1.3125 1.59375,2.625 0.84375,1.21875 2.15625,2.25 2.15625,-2.4375 4.03125,-6.1875 1.875,-3.75 1.875,-7.59375 0,-3.75 -2.625,-6.1875 -2.625,-2.4375 -6.84375,-2.4375 z m 9.9375,95.34375 q 0.1875,-1.59375 0.28125,-3.46875 0.0937,-1.875 0.0937,-3.75 0,-8.4375 -1.59375,-16.21875 -1.5,-7.78125 -4.125,-12.5625 -2.90625,0.75 -5.8125,1.3125 l -5.8125,1.3125 -3.46875,16.6875 q -1.78125,8.34375 -3.46875,16.6875 z m -72.65625,3 v 39.375 h 25.6875 v -39.375 z m 13.59375,-3 h 13.5 l 0.75,0.75 q 0.375,0.375 0.84375,0.75 v 39.9375 q 1.03125,-0.84375 2.625,-1.03125 1.59375,-0.1875 6.375,-1.5 4.78125,-1.40625 7.6875,-3.375 0.75,-3.75 1.3125,-7.125 0.65625,-3.46875 0.65625,-7.40625 0,-2.53125 -0.28125,-4.78125 l -1.3125,-9.46875 q -0.375,-2.53125 -0.375,-5.53125 l 7.59375,-36.1875 0.375,-2.4375 q 0.1875,-1.3125 0.1875,-2.625 0,-3.5625 -2.0625,-5.71875 -2.0625,-2.25 -2.625,-7.03125 l -3.09375,2.90625 q -9.28125,8.625 -12.65625,9.28125 -3.28125,0.5625 -16.59375,3.75 l -2.90625,0.65625 z m 0,-44.15625 q 0.28125,0.28125 0.5625,0.5625 0.375,0.1875 0.65625,0.46875 l 0.46875,0.46875 q 2.25,-1.40625 4.875,-2.0625 2.625,-0.75 5.0625,-1.59375 -3,-2.15625 -5.90625,-4.40625 -2.90625,-2.25 -5.71875,-4.6875 z m 3.9375,-11.34375 q 2.4375,2.15625 5.0625,4.125 2.625,1.96875 5.34375,3.75 0.1875,-0.1875 0.75,-0.46875 0.5625,-0.375 0.75,-0.5625 -1.96875,-1.40625 -3.84375,-2.8125 -1.78125,-1.40625 -3.9375,-2.71875 l -6.65625,-3.84375 -1.96875,-3 -2.15625,-1.875 -0.375,0.65625 3.09375,3.9375 v 1.03125 z m 31.3125,-1.5 2.53125,1.125 q 1.03125,7.3125 3,9.09375 2.0625,1.6875 2.0625,6.46875 v 1.875 l -0.1875,1.78125 10.3125,-2.34375 q 0,-1.3125 0.5625,-4.59375 0.5625,-3.375 1.125,-5.8125 l 1.125,-4.875 q 0.5625,-2.34375 0.9375,-4.40625 0.46875,-2.0625 0.46875,-3.375 0,-2.15625 -0.9375,-3.84375 -0.9375,-1.6875 -3.375,-2.15625 l -1.40625,-1.78125 v -0.375 q -2.15625,-1.40625 -3.5625,-3.375 -1.3125,-2.0625 -2.34375,-4.21875 0.1875,-0.75 0.375,-1.125 0.1875,-0.46875 0.375,-1.03125 l 0.9375,-0.375 q 0.46875,0 0.84375,-0.375 0.375,-0.46875 0.5625,-0.9375 v -0.375 q -0.75,0 -1.40625,0.375 l -1.6875,-2.25 v -0.9375 q -0.84375,-1.5 -3.46875,-2.34375 -2.53125,-0.9375 -3,-1.21875 -0.1875,1.96875 -1.125,3.28125 -0.84375,1.3125 -2.0625,2.625 -0.1875,0.5625 -0.375,1.3125 1.5,0.75 1.78125,2.15625 0.375,1.40625 0.375,2.8125 l 0.84375,-0.1875 h 0.75 q 2.8125,0 3.9375,1.78125 1.21875,1.78125 1.21875,3.5625 0,2.15625 -1.40625,3.375 -1.3125,1.21875 -3.1875,1.21875 -1.21875,0 -2.25,0.84375 -0.9375,0.84375 -5.25,5.4375 -4.3125,4.59375 -10.59375,10.5 -6.1875,5.8125 -11.15625,7.03125 -4.875,1.125 -8.625,2.71875 l -3.5625,-1.21875 -1.21875,-0.375 q -0.1875,0.1875 -0.375,0.65625 -0.0937,0.46875 -0.0937,0.75 l 0.0937,0.9375 h 4.21875 l 9,-2.25 4.6875,-1.21875 4.40625,-1.03125 q 0.46875,-0.0937 4.78125,-3.1875 4.40625,-3.1875 11.34375,-10.125 z m 7.125,-27.65625 q -1.78125,1.21875 -2.4375,1.21875 -0.46875,0 -0.46875,-0.5625 0,-0.65625 0.28125,-1.21875 0.375,-0.5625 0.84375,-0.5625 0.65625,0 1.78125,1.125 z m -45.375,24.75 q -0.1875,0 -0.375,0.1875 -0.1875,0.0937 -0.1875,0.28125 0,0.375 0.28125,0.46875 l 0.28125,0.0937 z"
         id="path12398"
         inkscape:connector-curvature="0" />
    </g>
  </g>
</svg>
