<?xml version="1.0" encoding="UTF-8" standalone="no"?>
<!-- Created with Inkscape (http://www.inkscape.org/) -->

<svg
   xmlns:dc="http://purl.org/dc/elements/1.1/"
   xmlns:cc="http://creativecommons.org/ns#"
   xmlns:rdf="http://www.w3.org/1999/02/22-rdf-syntax-ns#"
   xmlns:svg="http://www.w3.org/2000/svg"
   xmlns="http://www.w3.org/2000/svg"
   xmlns:sodipodi="http://sodipodi.sourceforge.net/DTD/sodipodi-0.dtd"
   xmlns:inkscape="http://www.inkscape.org/namespaces/inkscape"
   width="25.027929mm"
   height="38.174412mm"
   viewBox="0 0 25.027929 38.174412"
   version="1.1"
   id="svg12407"
   inkscape:version="0.92.4 (5da689c313, 2019-01-14)"
   sodipodi:docname="A35.svg">
  <defs
     id="defs12401" />
  <sodipodi:namedview
     id="base"
     pagecolor="#ffffff"
     bordercolor="#666666"
     borderopacity="1.0"
     inkscape:pageopacity="0.0"
     inkscape:pageshadow="2"
     inkscape:zoom="0.35"
     inkscape:cx="-343.25814"
     inkscape:cy="-348.85952"
     inkscape:document-units="mm"
     inkscape:current-layer="layer1"
     showgrid="false"
     fit-margin-top="0"
     fit-margin-left="0"
     fit-margin-right="0"
     fit-margin-bottom="0"
     inkscape:window-width="1920"
     inkscape:window-height="1017"
     inkscape:window-x="-8"
     inkscape:window-y="-8"
     inkscape:window-maximized="1" />
  <metadata
     id="metadata12404">
    <rdf:RDF>
      <cc:Work
         rdf:about="">
        <dc:format>image/svg+xml</dc:format>
        <dc:type
           rdf:resource="http://purl.org/dc/dcmitype/StillImage" />
        <dc:title></dc:title>
      </cc:Work>
    </rdf:RDF>
  </metadata>
  <g
     inkscape:label="Layer 1"
     inkscape:groupmode="layer"
     id="layer1"
     transform="translate(-3.507883,-18.356504)">
    <g
       aria-label="𓀨"
       transform="matrix(0.26458333,0,0,0.26458333,99.785714,-12.095238)"
       style="font-style:normal;font-variant:normal;font-weight:normal;font-stretch:normal;font-size:192px;line-height:1.25;font-family:sans-serif;-inkscape-font-specification:'sans-serif, Normal';font-variant-ligatures:normal;font-variant-caps:normal;font-variant-numeric:normal;font-feature-settings:normal;text-align:start;letter-spacing:0px;word-spacing:0px;writing-mode:lr-tb;text-anchor:start;fill:#000000;fill-opacity:1;stroke:none"
       id="flowRoot12952">
      <path
         d="m -335.10352,124.18695 v -4.5 h 3.84375 q 1.96875,-2.4375 4.6875,-2.4375 2.0625,0 3.65625,1.78125 1.6875,1.6875 1.6875,5.71875 0,1.03125 -0.0937,1.96875 l -0.1875,1.78125 q 3,5.0625 5.15625,10.3125 2.25,5.25 3.65625,10.96875 8.25,-0.9375 13.3125,-2.90625 5.15625,-2.0625 6.5625,-3.1875 1.40625,-1.125 1.6875,-2.90625 -0.1875,0 -0.84375,-0.28125 l -1.5,-0.28125 q -0.84375,0 -1.6875,-0.28125 -0.84375,-0.375 -1.5,-0.9375 0,-0.46875 -0.46875,-1.40625 0,-0.65625 -0.1875,-1.6875 -0.1875,-1.03125 -0.9375,-1.03125 h -0.5625 l -1.40625,-1.78125 q 0,-1.03125 0.46875,-2.15625 0.46875,-1.21875 1.40625,-1.875 1.03125,-2.34375 3.09375,-8.15625 2.15625,-5.8125 10.03125,-5.8125 5.625,0 9.75,3.28125 4.125,3.1875 4.125,8.15625 0,5.34375 -4.21875,8.90625 -4.21875,3.5625 -4.875,6.28125 4.96875,4.3125 6.84375,9.9375 1.875,5.625 1.875,13.78125 0,7.96875 0.75,12.5625 0.84375,4.59375 0.84375,7.40625 0,1.3125 -0.1875,3.75 -0.1875,2.34375 -0.46875,5.34375 l -1.40625,12.75 q -0.375,3.1875 -0.5625,5.90625 -0.1875,2.625 -0.1875,4.3125 0,1.78125 1.3125,7.59375 1.3125,5.8125 1.3125,25.40625 0.5625,1.125 0.75,2.25 0.28125,1.03125 0.28125,1.96875 0,2.15625 -1.21875,3.375 -1.125,1.3125 -3.1875,1.3125 -0.9375,0 -2.0625,-0.28125 -1.03125,-0.28125 -2.15625,-1.03125 -1.875,0 -4.40625,0.5625 -2.4375,0.65625 -4.875,0.65625 -1.59375,0 -2.90625,-0.46875 -1.3125,-0.46875 -2.25,-1.6875 -1.03125,2.0625 -4.03125,2.0625 -1.03125,0 -2.25,-0.28125 -1.125,-0.1875 -2.4375,-0.75 -2.25,0 -5.15625,0.5625 -2.90625,0.65625 -5.625,0.65625 -1.78125,0 -3.375,-0.46875 -1.5,-0.375 -2.71875,-1.59375 l 0.9375,-2.625 q 3.5625,0 8.4375,-1.78125 4.875,-1.875 7.21875,-2.53125 2.4375,-5.34375 2.90625,-14.4375 0.46875,-9.1875 0.9375,-12.375 l 0.46875,-2.8125 q 0.1875,-1.5 0.65625,-2.8125 l -2.71875,-0.65625 q -1.40625,-0.28125 -2.71875,-0.65625 -0.375,-0.5625 -0.65625,-1.125 l -0.5625,-1.125 13.40625,-34.3125 q 0,-3.9375 -1.3125,-7.5 -1.21875,-3.65625 -2.25,-7.3125 -3.75,9.5625 -7.78125,12.65625 -3.9375,3.09375 -10.40625,5.25 -6.375,2.0625 -13.125,7.6875 v 5.34375 h -4.5 v 18.5625 h 4.5 v 15.1875 h -4.5 v 18.46875 h 4.5 v 10.6875 h -10.59375 v -4.40625 h -18.1875 v 4.5 h -10.59375 V 248.5932 h 4.5 v -18.5625 h -4.5 v -15.1875 h 4.5 v -18.5625 h -4.5 v -13.59375 h 4.5 v -18.5625 h -4.5 v -15.1875 h 4.5 v -18.5625 h -4.5 v -10.6875 h 10.59375 v 4.5 z m 6.09375,6.1875 v 18.46875 h 4.5 v 15.1875 h -4.5 v 18.5625 h 2.90625 q 3.65625,0 11.4375,-5.53125 7.875,-5.53125 8.71875,-6 1.03125,-3.46875 2.625,-7.125 1.59375,-3.65625 3.09375,-6.9375 -0.84375,0 -2.15625,0.0937 l -6.5625,0.375 q -1.78125,0 -3.375,0.0937 -4.78125,0 -5.71875,-1.59375 -0.9375,-1.59375 -4.5,-10.125 -3.46875,-8.625 -5.0625,-15.46875 z m -27.375,-3.1875 v 124.5 h 24.375 v -124.5 z m 59.90625,28.78125 -3.65625,8.15625 q -2.34375,5.34375 -2.8125,7.21875 -0.375,1.78125 -1.59375,2.25 -1.125,0.375 -4.21875,2.4375 l -5.15625,3.5625 q -2.625,1.78125 -5.34375,3.375 -2.625,1.59375 -5.25,2.53125 v 1.59375 l 5.8125,-3.375 q 2.625,-1.59375 8.90625,-3.84375 6.28125,-2.34375 9.1875,-6.375 2.90625,-4.03125 4.21875,-7.78125 l 2.25,-6.9375 v -0.0937 q 0.1875,0 0.65625,0.0937 l 2.34375,0.28125 q 0,3.84375 1.875,9.75 1.875,5.8125 2.34375,7.875 l 0.28125,1.5 q 3,-1.21875 6.09375,-2.34375 3.09375,-1.21875 6.09375,-2.53125 l -0.1875,-4.78125 q 0,-1.59375 -0.46875,-10.125 -0.46875,-8.53125 -7.875,-14.90625 0,-0.46875 -0.46875,-1.40625 0,-1.40625 0.46875,-2.53125 0.5625,-1.125 1.3125,-2.15625 -1.96875,-0.75 -3.5625,-2.4375 -1.59375,-1.78125 -1.875,-3.84375 l 0.375,-1.21875 q 1.78125,-1.3125 1.78125,-3.65625 -0.46875,0 -1.03125,0.65625 -0.46875,0.65625 -0.9375,1.125 l -7.6875,-0.65625 -0.375,1.40625 -0.5625,1.40625 q -0.1875,0.65625 -0.65625,1.03125 -0.46875,0.375 -0.84375,0.9375 1.5,0.65625 2.0625,1.96875 0.65625,1.3125 0.84375,2.71875 3.46875,0.375 4.78125,1.40625 1.3125,1.03125 1.3125,2.625 0,1.6875 -1.40625,3.375 -1.3125,1.6875 -4.125,3.28125 z m 9.46875,25.59375 q -1.875,4.6875 -3.375,8.625 l -6,15.46875 -3.375,8.4375 q 4.6875,1.125 10.125,1.96875 5.4375,0.75 13.5,0.75 0,-3.1875 0.46875,-7.21875 l 1.96875,-16.125 q 0.46875,-3.84375 0.46875,-6.84375 0,-2.625 -0.375,-5.0625 -0.375,-2.53125 -0.65625,-5.15625 z m -5.53125,68.4375 q 0.375,1.3125 0.5625,2.4375 0.1875,1.125 0.1875,2.53125 3.375,-1.03125 6.5625,-2.15625 3.1875,-1.21875 6.46875,-2.34375 0.28125,-1.3125 0.375,-2.4375 0.0937,-1.21875 0.0937,-2.53125 0,-2.90625 -0.5625,-5.90625 l -1.3125,-6.09375 q -0.75,-3.1875 -1.40625,-6.5625 -0.5625,-3.46875 -0.5625,-7.21875 l -4.78125,-0.46875 q -0.1875,7.59375 -2.625,17.90625 -2.4375,10.21875 -3,12.84375 z m -1.125,-125.53125 5.90625,0.5625 q 0.375,-0.9375 1.21875,-1.40625 0.84375,-0.46875 1.78125,-0.46875 1.3125,0 2.15625,0.9375 0.84375,0.9375 0.84375,2.25 0,1.3125 -0.65625,2.625 -0.65625,1.3125 -1.5,2.34375 0.75,1.3125 1.875,2.4375 1.21875,1.03125 2.8125,1.125 1.875,-1.40625 3.375,-3.375 1.5,-1.96875 1.5,-4.40625 0,-4.03125 -3.1875,-6.46875 -3.09375,-2.53125 -7.6875,-2.53125 -3.28125,0 -5.25,1.3125 -1.96875,1.3125 -3.1875,5.0625 z m -1.96875,125.34375 q 0.75,-4.40625 3.1875,-14.0625 2.4375,-9.75 2.625,-16.78125 l -1.78125,-0.1875 q -0.84375,0 -1.6875,-0.28125 -1.03125,3.1875 -1.5,6.46875 -0.375,3.28125 -0.5625,6.5625 l -0.375,6.65625 q -0.28125,3.375 -0.9375,6.65625 l -0.375,2.0625 q -0.9375,5.0625 -2.71875,6 -1.6875,0.9375 -8.71875,2.8125 l -3.9375,1.03125 q 1.03125,0 2.71875,-0.375 l 3.46875,-0.5625 q 1.78125,-0.28125 3.28125,-0.46875 1.5,-0.1875 2.0625,-0.1875 1.3125,0 2.53125,0.5625 1.21875,0.46875 2.625,0.46875 l 0.46875,-0.28125 q 0.5625,-0.375 0.5625,-0.84375 z m 21.28125,-22.875 q -0.28125,-1.78125 -0.84375,-3.46875 -0.5625,-1.78125 -0.75,-3.65625 h -3.28125 l -0.0937,1.40625 q 0,4.03125 1.96875,10.59375 1.96875,6.5625 1.96875,13.03125 0,1.78125 -0.1875,3.5625 -0.0937,1.78125 -0.46875,3.65625 l -1.03125,1.03125 -2.53125,0.84375 q -1.40625,0.46875 -2.90625,0.84375 l -2.90625,0.84375 -2.625,0.84375 q 1.875,-0.1875 4.78125,-0.75 3,-0.65625 5.53125,-0.65625 1.03125,0.1875 1.875,0.65625 0.84375,0.375 1.875,0.46875 0.75,0 1.3125,-0.28125 0.5625,-0.375 0.5625,-1.125 l -1.125,-4.3125 q -0.1875,-3.84375 -0.1875,-7.59375 0,-3.84375 -0.28125,-7.6875 0,-0.75 -0.0937,-1.875 z m -51.65625,-99.5625 1.3125,3.5625 q 0.375,1.3125 1.03125,3 l 3.46875,9.46875 q 1.03125,2.625 2.0625,5.8125 1.125,3.09375 3,5.25 0.46875,0 1.125,0.0937 0.75,0.0937 1.6875,0.0937 1.5,0 3.375,-0.0937 l 7.3125,-0.375 2.71875,-0.1875 q 0.46875,-1.21875 0.84375,-2.4375 l 0.84375,-2.4375 q -3.9375,1.59375 -8.0625,2.4375 -4.03125,0.84375 -8.15625,1.40625 -1.03125,-0.75 -1.875,-1.21875 -2.625,-10.59375 -5.71875,-16.21875 -3.09375,-5.625 -3.28125,-6 l -0.0937,-0.75 v -0.75 q 0,-0.75 0.0937,-1.6875 l 0.0937,-3.375 q 0,-1.3125 -0.65625,-2.25 -0.5625,-0.9375 -1.875,-0.9375 -0.84375,0 -1.40625,0.46875 -0.5625,0.375 -0.9375,0.9375 h 3 z m 33.65625,1.21875 q 1.59375,0.46875 2.4375,1.125 -1.59375,1.21875 -2.4375,1.21875 -0.84375,0 -0.84375,-1.21875 z"
         id="path12960"
         inkscape:connector-curvature="0" />
    </g>
  </g>
</svg>
