<?xml version="1.0" encoding="UTF-8" standalone="no"?>
<!-- Created with Inkscape (http://www.inkscape.org/) -->

<svg
   xmlns:dc="http://purl.org/dc/elements/1.1/"
   xmlns:cc="http://creativecommons.org/ns#"
   xmlns:rdf="http://www.w3.org/1999/02/22-rdf-syntax-ns#"
   xmlns:svg="http://www.w3.org/2000/svg"
   xmlns="http://www.w3.org/2000/svg"
   xmlns:sodipodi="http://sodipodi.sourceforge.net/DTD/sodipodi-0.dtd"
   xmlns:inkscape="http://www.inkscape.org/namespaces/inkscape"
   width="36.14043mm"
   height="37.752735mm"
   viewBox="0 0 36.14043 37.752735"
   version="1.1"
   id="svg13531"
   inkscape:version="0.92.4 (5da689c313, 2019-01-14)"
   sodipodi:docname="A37.svg">
  <defs
     id="defs13525" />
  <sodipodi:namedview
     id="base"
     pagecolor="#ffffff"
     bordercolor="#666666"
     borderopacity="1.0"
     inkscape:pageopacity="0.0"
     inkscape:pageshadow="2"
     inkscape:zoom="0.35"
     inkscape:cx="-343.25837"
     inkscape:cy="-396.26019"
     inkscape:document-units="mm"
     inkscape:current-layer="layer1"
     showgrid="false"
     fit-margin-top="0"
     fit-margin-left="0"
     fit-margin-right="0"
     fit-margin-bottom="0"
     inkscape:window-width="1920"
     inkscape:window-height="1017"
     inkscape:window-x="-8"
     inkscape:window-y="-8"
     inkscape:window-maximized="1" />
  <metadata
     id="metadata13528">
    <rdf:RDF>
      <cc:Work
         rdf:about="">
        <dc:format>image/svg+xml</dc:format>
        <dc:type
           rdf:resource="http://purl.org/dc/dcmitype/StillImage" />
        <dc:title></dc:title>
      </cc:Work>
    </rdf:RDF>
  </metadata>
  <g
     inkscape:label="Layer 1"
     inkscape:groupmode="layer"
     id="layer1"
     transform="translate(-3.5079439,-6.2367575)">
    <g
       aria-label="𓀪"
       transform="matrix(0.26458333,0,0,0.26458333,9.0714286,-6.047619)"
       style="font-style:normal;font-variant:normal;font-weight:normal;font-stretch:normal;font-size:192px;line-height:1.25;font-family:sans-serif;-inkscape-font-specification:'sans-serif, Normal';font-variant-ligatures:normal;font-variant-caps:normal;font-variant-numeric:normal;font-feature-settings:normal;text-align:start;letter-spacing:0px;word-spacing:0px;writing-mode:lr-tb;text-anchor:start;fill:#000000;fill-opacity:1;stroke:none"
       id="flowRoot14076">
      <path
         d="m 110.50391,75.30414 v 7.6875 q 1.78125,0 3.28125,1.5 1.59375,1.40625 1.78125,2.71875 0,2.34375 -1.3125,4.21875 -1.21875,1.78125 -2.53125,3.09375 l -1.3125,0.5625 q -3.46875,39.84375 -13.218754,61.21875 -9.75,21.375 -27.65625,32.8125 h -48.1875 q -17.8124997,0 -26.6249997,-17.53125 -8.7187503,-17.53125 -10.1250003,-46.59375 l -1.5,-29.90625 -1.3125,-0.75 q -1.21875,-1.78125 -2.0625,-3.46875 -0.75,-1.6875 -0.75,-3.1875 0,-1.3125 0.75,-2.4375 0.84375,-1.125 2.8125,-2.15625 l 0.5625,0.09375 v -9.375 h 3.09375 v 10.59375 l 0.84375,0.46875 q 0.46875,0.1875 1.03125,1.21875 0.5625,1.03125 2.8125002,2.15625 l 2.8125001,1.5 q 4.5,2.15625 9.28125,3.5625 l 9.5624997,2.8125 q 8.15625,-7.78125 13.3125,-10.59375 5.25,-2.8125 7.59375,-3.28125 2.4375,-0.5625 4.3125,-2.34375 1.875,-1.875 1.875,-4.6875 v -0.75 q 0,-0.28125 -0.09375,-0.75 -4.21875,-0.1875 -5.34375,-1.21875 -1.125,-1.03125 -1.125,-4.78125 l -1.59375,-0.375 q -0.375,-0.5625 -0.65625,-1.125 l -0.5625,-1.125 q 2.53125,-3.5625 5.15625,-11.0625 2.625,-7.59375 12.46875,-7.59375 7.78125,0 11.25,4.03125 3.5625,4.03125 3.5625,11.25 0,6 -1.78125,8.8125 -1.6875,2.8125 -4.875,3.28125 1.03125,4.96875 8.34375,7.21875 7.40625,2.15625 18.375,13.5 2.625,-1.125 10.40625,-2.53125 7.781254,-1.40625 10.031254,-3.65625 2.34375,-2.34375 4.3125,-3.84375 v -9.1875 z m -105.2812538,101.25 9.2812498,2.0625 1.6875,-0.46875 q 2.0625,-4.96875 5.25,-16.875 3.28125,-12 7.3125,-18.46875 l 11.90625,-31.03125 q -1.03125,-5.0625 -2.34375,-9.9375 -1.21875,-4.875 -3,-9.65625 -4.59375,0.5625 -12.46875,6 -7.875,5.34375 -8.53125,5.71875 l -0.9375,0.28125 q -7.0312498,-1.59375 -13.78124975,-3.9375 -6.65624995,-2.34375 -13.40625025,-4.96875 0,26.53125 3.9375002,50.4375 4.0312501,23.8125 11.9062501,31.875 v -0.28125 l 0.09375,-0.1875 2.1562499,-0.5625 z M 82.191406,102.77289 q -2.0625,0 -8.90625,-3.9375 -6.75,-3.9375 -12.84375,-9.75 -1.21875,0.28125 -1.875,2.0625 -0.5625,1.6875 -0.5625,5.0625 0,1.125 0.09375,2.15625 l 0.09375,2.4375 q 0.28125,6.09375 1.5,13.5 1.3125,7.3125 1.6875,18.1875 0.375,10.78125 0.65625,11.0625 0.28125,0.1875 1.96875,6.1875 1.78125,6 4.3125,21.1875 l 1.78125,9.65625 q 0.1875,1.3125 0.1875,1.875 l -0.09375,2.15625 q 15.75,-10.40625 24.65625,-31.03125 9.000004,-20.625 12.468754,-58.3125 -6.1875,2.8125 -15.093754,5.15625 -8.90625,2.34375 -10.03125,2.34375 z m -33.375,82.125 q 2.25,-2.25 6.84375,-3 4.6875,-0.75 6.1875,-1.3125 -0.84375,-6.9375 -5.0625,-17.90625 -4.21875,-11.0625 -5.25,-17.625 h -14.15625 q -1.6875,6.65625 -7.03125,18.1875 -5.34375,11.53125 -5.8125,14.625 l -0.5625,3.75 -0.375,2.34375 q -0.28125,1.21875 -0.65625,2.0625 h 26.25 z m -13.875,-119.71875 1.125,1.40625 q 0,1.03125 0.09375,1.59375 v 0.9375 q 0,0.375 0,0.5625 0,0.09375 -0.09375,0.28125 1.03125,0.5625 2.25,0.65625 l 2.34375,0.1875 1.5,1.03125 q 0.375,1.78125 0.375,3.5625 0,4.03125 -2.53125,6.46875 -2.4375,2.4375 -3.84375,2.71875 -1.40625,0.1875 -1.59375,0.375 -5.71875,1.5 -10.78125,5.34375 -4.96875,3.75 -9.65625,8.4375 l -0.84375,0.1875 q -0.46875,0 -0.9375,0.28125 -0.75,-0.1875 -12.18749975,-3.65625 -11.43750025,-3.46875 -15.00000025,-8.34375 -0.28125,0 -0.5625,-0.28125 l -1.5,-0.75 q -0.28125,0.1875 -0.5625,0.46875 l -0.375,0.46875 q -0.28125,0.28125 -0.375,0.46875 0.5625,1.125 0.9375,2.34375 0.46875,1.125 1.21875,2.15625 3.46875,0 4.3125,0.65625 0.9375,0.5625 9.0000002,3.46875 8.0625,2.90625 15.9374998,4.875 0.75,-0.46875 8.625,-5.8125 7.875,-5.4375 14.34375,-6.1875 l 1.5,1.03125 q 1.59375,4.125 2.8125,8.34375 1.3125,4.125 2.25,8.4375 l 0.65625,3 q 3,-0.9375 6.09375,-1.78125 3.09375,-0.9375 6.1875,-1.96875 l -0.375,-4.03125 q -0.28125,-2.0625 -0.28125,-5.90625 0,-4.78125 1.40625,-7.5 1.5,-2.71875 4.5,-2.71875 0.375,0.1875 1.3125,0.5625 4.21875,4.21875 9.1875,7.40625 5.0625,3.09375 10.40625,5.625 14.53125,-2.90625 19.593754,-5.15625 5.0625,-2.34375 8.4375,-2.34375 1.03125,-0.9375 1.6875,-2.0625 0.75,-1.125 0.9375,-2.4375 -0.28125,-0.5625 -0.65625,-0.84375 -0.375,-0.28125 -1.125,-0.65625 l -2.15625,1.125 q -4.03125,5.71875 -13.218754,7.40625 -9.09375,1.6875 -12.5625,3.1875 -0.46875,-0.1875 -1.40625,-0.375 -11.71875,-12 -19.6875,-14.4375 -7.96875,-2.53125 -8.8125,-9.84375 -2.25,-1.875 -3.5625,-4.21875 -1.3125,-2.4375 -2.25,-5.15625 l 0.75,-2.15625 q 0.375,-0.1875 0.75,-0.46875 0.375,-0.28125 0.375,-0.75 0,-1.21875 -0.375,-1.78125 -0.375,-0.65625 -0.75,-0.65625 -0.46875,0 -0.65625,0.28125 l -0.375,0.65625 -0.9375,0.375 -1.03125,0.5625 q -3.9375,-1.125 -7.59375,-2.25 -0.75,1.59375 -1.59375,3.75 -0.84375,2.0625 -1.6875,3.5625 z m 24,76.875 q -0.5625,-5.4375 -0.5625,-11.25 0,-5.8125 -1.40625,-14.90625 l -0.9375,-6.75 -12.65625,3.84375 q -2.71875,7.3125 -5.53125,14.53125 l -5.625,14.53125 z m -11.25,-92.53125 q -2.8125,0 -5.25,0.84375 -2.4375,0.84375 -4.125,4.5 l 6.375,1.875 q 0.5625,-0.75 1.5,-1.21875 0.9375,-0.5625 1.78125,-0.5625 1.59375,0 2.625,1.59375 1.125,1.5 1.125,3.375 0,2.25 -1.59375,3.75 0.75,2.0625 1.78125,3.9375 1.03125,1.78125 2.90625,3.1875 2.25,0 3.5625,-2.0625 1.40625,-2.0625 1.40625,-6.1875 0,-6.5625 -2.625,-9.75 -2.625,-3.28125 -9.46875,-3.28125 z m -27.5625,135.1875 q 0.375,-1.21875 0.5625,-2.4375 l 0.375,-2.53125 q 2.0625,-9 6.65625,-17.90625 4.59375,-8.90625 6.65625,-16.78125 h -3.46875 q -2.25,3.9375 -3.84375,8.34375 -1.5,4.3125 -2.71875,8.8125 l -2.625,9 q -1.3125,4.5 -3,8.625 l -1.03125,1.03125 -2.90625,0.75 q -1.59375,-0.1875 -3.09375,-0.5625 l -2.6249997,-0.5625 q -1.4062501,-0.28125 -2.3437501,-0.5625 3.0000001,2.15625 6.2812498,3.375 3.375,1.21875 7.125,1.40625 z m 47.0625,-0.5625 q 0,-3.65625 -2.53125,-16.59375 -2.53125,-12.9375 -5.15625,-22.5 h -4.875 q 1.40625,5.15625 5.34375,16.875 3.9375,11.625 5.0625,19.59375 l -0.65625,1.21875 q -1.59375,0.84375 -3.46875,1.125 l -3.84375,0.65625 h 9.9375 z m -28.21875,-122.4375 -1.21875,-0.9375 0.46875,-1.21875 h 1.3125 l 1.59375,1.03125 z"
         id="path14084"
         inkscape:connector-curvature="0" />
    </g>
  </g>
</svg>
