<?xml version="1.0" encoding="UTF-8" standalone="no"?>
<!-- Created with Inkscape (http://www.inkscape.org/) -->

<svg
   xmlns:dc="http://purl.org/dc/elements/1.1/"
   xmlns:cc="http://creativecommons.org/ns#"
   xmlns:rdf="http://www.w3.org/1999/02/22-rdf-syntax-ns#"
   xmlns:svg="http://www.w3.org/2000/svg"
   xmlns="http://www.w3.org/2000/svg"
   xmlns:sodipodi="http://sodipodi.sourceforge.net/DTD/sodipodi-0.dtd"
   xmlns:inkscape="http://www.inkscape.org/namespaces/inkscape"
   width="37.975964mm"
   height="38.100002mm"
   viewBox="0 0 37.975964 38.100001"
   version="1.1"
   id="svg4525"
   inkscape:version="0.92.4 (5da689c313, 2019-01-14)"
   sodipodi:docname="A39.svg">
  <defs
     id="defs4519" />
  <sodipodi:namedview
     id="base"
     pagecolor="#ffffff"
     bordercolor="#666666"
     borderopacity="1.0"
     inkscape:pageopacity="0.0"
     inkscape:pageshadow="2"
     inkscape:zoom="0.35"
     inkscape:cx="670.97737"
     inkscape:cy="-264.41252"
     inkscape:document-units="mm"
     inkscape:current-layer="layer1"
     showgrid="false"
     fit-margin-top="0"
     fit-margin-left="0"
     fit-margin-right="0"
     fit-margin-bottom="0"
     inkscape:window-width="1920"
     inkscape:window-height="1017"
     inkscape:window-x="-8"
     inkscape:window-y="-8"
     inkscape:window-maximized="1" />
  <metadata
     id="metadata4522">
    <rdf:RDF>
      <cc:Work
         rdf:about="">
        <dc:format>image/svg+xml</dc:format>
        <dc:type
           rdf:resource="http://purl.org/dc/dcmitype/StillImage" />
        <dc:title></dc:title>
      </cc:Work>
    </rdf:RDF>
  </metadata>
  <g
     inkscape:label="Layer 1"
     inkscape:groupmode="layer"
     id="layer1"
     transform="translate(264.84194,-40.774173)">
    <g
       aria-label="𓀉"
       style="font-style:normal;font-variant:normal;font-weight:normal;font-stretch:normal;font-size:50.79999924px;line-height:1.25;font-family:sans-serif;-inkscape-font-specification:sans-serif;font-variant-ligatures:normal;font-variant-caps:normal;font-variant-numeric:normal;font-feature-settings:normal;text-align:start;letter-spacing:0px;word-spacing:0px;writing-mode:lr-tb;text-anchor:start;fill:#000000;fill-opacity:1;stroke:none;stroke-width:0.26458332"
       id="text5105" />
    <g
       aria-label="𓀆"
       transform="matrix(0.26458333,0,0,0.26458333,-199.96101,81.431167)"
       style="font-style:normal;font-variant:normal;font-weight:normal;font-stretch:normal;font-size:192px;line-height:1.25;font-family:sans-serif;-inkscape-font-specification:sans-serif;font-variant-ligatures:normal;font-variant-caps:normal;font-variant-numeric:normal;font-feature-settings:normal;text-align:start;letter-spacing:0px;word-spacing:0px;writing-mode:lr-tb;text-anchor:start;fill:#000000;fill-opacity:1;stroke:none"
       id="flowRoot5135" />
    <g
       aria-label="𓀬"
       transform="matrix(0.26458333,0,0,0.26458333,-382.49884,23.959324)"
       style="font-style:normal;font-variant:normal;font-weight:normal;font-stretch:normal;font-size:192px;line-height:1.25;font-family:sans-serif;-inkscape-font-specification:sans-serif;font-variant-ligatures:normal;font-variant-caps:normal;font-variant-numeric:normal;font-feature-settings:normal;text-align:start;letter-spacing:0px;word-spacing:0px;writing-mode:lr-tb;text-anchor:start;fill:#000000;fill-opacity:1;stroke:none"
       id="flowRoot5333">
      <path
         d="m 561.78125,92.989686 0.65625,-4.78125 q -0.75,-1.875 -1.5,-3.84375 -0.65625,-1.96875 -0.65625,-3.9375 0,-1.875 0.9375,-3.65625 l 2.71875,0.28125 1.125,3.28125 0.0937,-0.375 2.71875,-0.65625 q 0.1875,0.46875 0.46875,0.9375 0.28125,0.375 0.46875,0.84375 0.28125,-0.84375 0.65625,-1.59375 0.65625,0 1.3125,-0.09375 L 572,79.302186 q 0.375,0.75 0.46875,1.125 0.75,-1.3125 1.78125,-2.25 1.03125,-0.9375 2.34375,-1.78125 l 2.53125,1.125 q 0,0.375 0.0937,1.125 0,1.875 -0.75,3.375 -0.65625,1.5 -1.875,3 0.46875,0.5625 5.625,5.90625 5.25,5.34375 6,10.781254 l -0.5625,0.65625 q -0.28125,0.375 -0.5625,0.84375 -1.03125,0.375 -2.25,0.375 -2.15625,0 -4.03125,-0.9375 -1.78125,-0.9375 -3.65625,-2.4375 -1.96875,0 -3.65625,-0.656254 -1.59375,-0.75 -3.09375,-1.78125 0.28125,3.000004 0.46875,5.906254 0.1875,2.90625 0.1875,5.90625 0,9.375 -1.875,18.75 -1.875,9.28125 -3.5625,18.46875 4.21875,6.84375 4.6875,21.09375 0.5625,14.15625 7.03125,33 1.125,0.5625 1.875,1.6875 0.75,1.125 1.40625,3.46875 -0.46875,0.375 -0.84375,0.75 l -0.75,0.75 h -4.5 l -0.65625,-0.375 -0.5625,-0.375 q 0,-1.21875 -0.5625,-2.34375 -0.5625,-1.125 -1.3125,-1.40625 l -1.40625,-1.21875 q -1.03125,-6.84375 -2.4375,-13.59375 -1.3125,-6.75 -2.90625,-13.5 0.1875,4.875 1.125,14.71875 1.03125,9.75 1.21875,11.53125 0.9375,1.03125 1.59375,2.15625 0.65625,1.125 1.3125,2.4375 l -1.5,1.96875 h -4.875 l -1.40625,-1.78125 q 0,-1.3125 -0.75,-2.25 -0.75,-0.9375 -0.75,-1.6875 v -3.375 q 0,-1.59375 -0.0937,-3.5625 l -0.1875,-4.21875 q -0.1875,-4.5 -1.21875,-10.96875 -0.9375,-6.5625 -3.65625,-14.25 -3.5625,1.03125 -6.65625,2.8125 -3,1.78125 -6.09375,3.65625 l -1.5,0.9375 q -0.84375,0.5625 -1.6875,1.03125 -1.125,4.3125 -1.875,8.625 -0.65625,4.3125 -0.65625,8.8125 0,4.59375 1.03125,9.46875 2.0625,2.0625 3.1875,4.78125 l -1.5,1.96875 h -4.78125 l -1.40625,-1.78125 q 0,-1.875 -1.21875,-3.09375 0,-0.46875 -0.46875,-1.40625 v -6.09375 q 0,-3.84375 -0.1875,-7.59375 -0.0937,-3.75 -0.5625,-7.59375 -2.4375,3.28125 -3.65625,7.3125 -1.21875,3.9375 -1.21875,8.0625 0,2.71875 0.5625,5.34375 0.46875,0.46875 1.78125,1.875 1.40625,1.3125 1.40625,3.46875 -0.46875,0.375 -0.84375,0.75 l -0.75,0.75 h -5.34375 l -1.40625,-1.78125 q 0,-2.4375 -1.5,-4.5 l 0.75,-7.59375 q 0.65625,-8.53125 1.03125,-8.625 0.46875,-0.0937 1.5,-2.4375 1.125,-2.4375 1.125,-4.125 0,-1.59375 -0.46875,-2.8125 -0.375,-1.3125 -1.03125,-2.625 l -1.03125,-1.96875 q -0.46875,-0.9375 -0.46875,-2.15625 v -0.5625 q -1.03125,3.09375 -1.78125,6.375 -0.65625,3.1875 -2.15625,6.09375 l -0.9375,-0.1875 v -1.875 q 0,-9.9375 3,-16.03125 3.09375,-6.1875 10.03125,-10.96875 l -0.28125,-1.3125 q 1.78125,-1.40625 3.46875,-2.8125 1.6875,-1.40625 3.09375,-3.09375 l -5.625,-6 q -2.8125,-2.90625 -5.53125,-6.09375 l -1.5,-2.0625 q -0.5625,-0.65625 -1.125,-1.6875 -0.5625,-1.125 -0.5625,-1.3125 h -7.875 q -1.125,4.125 -5.8125,11.15625 -4.6875,7.03125 -5.15625,11.625 l -0.5625,1.03125 0.9375,0.5625 q 6.375,3.65625 9.65625,10.21875 3.375,6.5625 3.375,16.78125 v 1.875 l -0.9375,0.1875 q -1.5,-2.90625 -2.25,-6.09375 -0.65625,-3.28125 -1.6875,-6.375 v 0.5625 q 0,1.21875 -0.46875,2.15625 l -1.03125,1.96875 q -0.65625,1.3125 -1.125,2.625 -0.375,1.21875 -0.375,2.8125 0,1.78125 1.125,4.21875 1.21875,2.4375 1.5,2.625 0.375,0.0937 1.125,8.34375 l 0.65625,7.59375 q -1.5,2.0625 -1.5,4.5 l -1.40625,1.78125 H 504.5 l -0.75,-0.75 q -0.375,-0.375 -0.84375,-0.75 0,-2.15625 1.3125,-3.46875 1.40625,-1.40625 1.875,-1.875 0.5625,-2.625 0.5625,-5.34375 0,-4.125 -1.21875,-8.0625 -1.21875,-4.03125 -3.65625,-7.3125 -0.46875,3.84375 -0.65625,7.59375 -0.0937,3.75 -0.0937,7.59375 v 6.09375 q -0.375,0.9375 -0.46875,1.40625 -1.21875,1.21875 -1.21875,3.09375 l -1.40625,1.78125 h -4.78125 l -1.5,-1.96875 q 1.125,-2.71875 3.1875,-4.78125 1.03125,-4.875 1.03125,-9.46875 0,-4.5 -0.75,-8.8125 -0.65625,-4.3125 -1.78125,-8.625 -0.8438,-0.46875 -1.5938,-1.03125 l -1.59375,-0.9375 q -3.09375,-1.875 -6.1875,-3.65625 -3,-1.78125 -6.5625,-2.8125 -2.90625,8.15625 -4.03125,16.3125 -1.125,8.15625 -1.125,16.6875 v 3.375 q 0,0.75 -0.75,1.6875 -0.75,0.9375 -0.75,2.25 l -1.40625,1.78125 h -4.875 l -1.5,-1.96875 q 0.65625,-1.3125 1.3125,-2.4375 0.65625,-1.125 1.59375,-2.15625 0.1875,-1.78125 1.125,-11.53125 1.03125,-9.84375 1.21875,-14.71875 -1.59375,6.75 -3,13.5 -1.3125,6.75 -2.34375,13.59375 l -1.40625,1.21875 q -0.84375,0.28125 -1.3125,1.59375 -0.46875,1.21875 -0.5625,2.15625 l -0.5625,0.375 -0.65625,0.375 h -4.5 l -0.75,-0.75 q -0.375,-0.375 -0.84375,-0.75 0.65625,-2.34375 1.40625,-3.46875 0.75,-1.125 1.875,-1.6875 2.53125,-7.3125 4.6875,-17.25 2.25,-9.9375 2.625,-20.15625 0.375,-10.3125 4.40625,-16.6875 -1.6875,-9.1875 -3.5625,-18.46875 -1.875,-9.375 -1.875,-18.75 0,-3 0.1875,-5.90625 0.1875,-2.90625 0.46875,-5.906254 -1.5,1.03125 -3.1875,1.78125 -1.59375,0.656254 -3.5625,0.656254 -1.875,1.5 -3.75,2.4375 -1.78125,0.9375 -3.9375,0.9375 -1.21875,0 -2.25,-0.375 -0.28125,-0.46875 -0.5625,-0.84375 l -0.5625,-0.65625 q 0.375,-3.375004 3.65625,-6.843754 3.375,-3.5625 3.65625,-3.84375 0,-2.34375 1.875,-3.9375 1.96875,-1.59375 2.4375,-2.0625 -1.21875,-1.5 -1.96875,-3 -0.65625,-1.5 -0.65625,-3.375 0,-0.75 0.0937,-1.125 l 2.53125,-1.125 q 1.3125,0.84375 2.34375,1.78125 1.03125,0.9375 1.78125,2.25 0,-0.375 0.46875,-1.125 l 1.3125,0.09375 q 0.5625,0 1.21875,0.09375 0.375,0.75 0.65625,1.59375 0.1875,-0.46875 0.46875,-0.84375 0.28125,-0.46875 0.46875,-0.9375 l 2.71875,0.65625 0.0937,0.375 1.125,-3.28125 2.71875,-0.28125 q 0.9375,1.78125 0.9375,3.65625 0,1.96875 -0.75,3.9375 -0.65625,1.96875 -1.40625,3.84375 0.1875,1.5 0.28125,2.71875 0.0937,1.21875 0.28125,2.25 l 0.1875,-0.1875 q 1.03125,0.1875 1.96875,0.28125 1.03125,0.09375 2.0625,0.09375 l 12.1875,-0.46875 q 1.3125,0 2.625,0.1875 1.40625,0.1875 2.4375,0.375 3.9375,-1.78125 8.15625,-3.5625 4.21875,-1.78125 8.625,-1.78125 1.03125,-0.375 1.96875,-0.9375 1.03125,-0.65625 1.03125,-2.0625 -0.65625,-1.5 -3,-2.625 -2.34375,-1.125 -2.34375,-3.1875 l 0.1875,-1.5 h -0.46875 q -0.375,-0.5625 -0.65625,-1.125 l -0.5625,-1.125 1.21875,-3 q 2.34375,-5.4375 4.875,-7.21875 2.53125,-1.78125 5.625,-1.78125 3.9375,0 6.75,2.625 2.90625,2.625 2.90625,7.5 0,4.6875 -2.8125,8.71875 l -1.125,1.5 q -0.5625,0.75 -1.03125,1.59375 1.125,1.03125 4.96875,1.6875 3.84375,0.65625 13.5,6.9375 1.5,-0.28125 2.53125,-0.375 1.125,-0.1875 2.15625,-0.1875 l 10.03125,0.375 q 1.78125,0 3.375,-0.1875 1.6875,-0.1875 3.375,-0.75 z m 1.6875,94.312504 q -0.46875,-5.0625 -0.9375,-11.25 -0.375,-6.28125 -0.375,-12.1875 l 0.0937,-0.0937 q 0,-0.1875 0.1875,-0.28125 l 0.28125,-0.46875 H 564.5 l 0.65625,0.5625 q 0.75,4.125 3.1875,16.5 2.4375,12.28125 3.84375,20.0625 1.3125,0.5625 2.25,1.875 0.9375,1.21875 1.40625,2.53125 h 1.03125 q 0,-0.46875 -0.5625,-1.21875 -0.5625,-0.75 -1.3125,-1.40625 l -0.65625,-1.78125 q -0.46875,-1.125 -0.84375,-2.4375 l -0.75,-2.53125 q -1.3125,-4.3125 -3.09375,-12.9375 -1.6875,-8.625 -1.875,-11.53125 L 567.5,165.73969 q -0.5625,-9.75 -2.8125,-14.0625 -2.15625,-4.40625 -2.15625,-4.6875 1.125,-6.28125 3.1875,-18.46875 2.15625,-12.1875 2.15625,-14.71875 l 0.1875,-2.4375 v -2.4375 q 0,-3.5625 -0.28125,-7.21875 -0.28125,-3.656254 -0.75,-7.218754 0.5625,-0.46875 1.125,-0.75 0.65625,-0.375 1.21875,-0.75 2.0625,1.875 3.84375,3 1.875,1.125 3.65625,1.125 1.6875,0 3.84375,1.78125 2.15625,1.687504 4.125,1.687504 -1.03125,-4.031254 -5.625,-8.625004 -4.59375,-4.59375 -5.625,-5.71875 l 2.71875,-6.5625 -3.28125,5.4375 h -1.59375 l -0.75,-0.75 -0.75,0.75 h -1.5 l -0.5625,-0.28125 -0.5625,0.5625 q -0.28125,0.28125 -0.5625,0.65625 -0.28125,0 -0.65625,-0.65625 l -1.875,-3 q -0.46875,-0.75 -0.84375,-1.03125 l 2.15625,6.75 q -0.65625,5.0625 -1.5,10.125 l -1.6875,10.125004 q -3,17.90625 -7.21875,25.21875 -4.125,7.3125 -11.53125,12.375 -7.3125,5.0625 -14.34375,9.9375 -7.03125,4.78125 -8.625,9.65625 l -0.375,1.03125 -0.375,1.3125 0.28125,-0.0937 q 0.1875,-0.5625 0.75,-1.96875 0.5625,-1.40625 1.3125,-2.71875 l 1.59375,0.0937 q -0.28125,1.3125 -0.28125,2.34375 0,2.25 1.78125,5.25 1.875,2.90625 1.875,5.53125 0,1.96875 -0.84375,5.0625 -0.84375,3 -2.34375,5.53125 -0.375,3.5625 -0.65625,7.03125 l -0.5625,7.125 q 0.5625,0.75 1.03125,1.6875 0.5625,0.84375 0.75,1.78125 h 1.875 q -0.46875,-1.125 -1.5,-1.40625 -0.9375,-0.375 -0.9375,-3.75 0,-1.59375 0.0937,-3.375 0.1875,-1.78125 0.1875,-2.71875 0,-5.0625 2.0625,-9.65625 2.15625,-4.59375 4.6875,-8.15625 l 2.4375,0.65625 q 0.46875,6.375 0.46875,12.5625 0,6.09375 0.75,12.375 l 0.9375,1.6875 q 0.46875,0.84375 0.65625,1.78125 h 0.84375 q 0,-0.46875 -0.5625,-1.40625 -0.46875,-0.9375 -0.9375,-1.59375 -0.28125,-1.875 -0.5625,-4.03125 -0.1875,-2.25 -0.1875,-4.6875 0,-5.34375 0.5625,-10.96875 0.65625,-5.625 1.40625,-9.375 0.9375,-1.3125 1.125,-1.3125 0.28125,0 3.375,-1.875 l 7.21875,-4.21875 q 3.46875,-2.0625 7.78125,-2.90625 l 1.5,1.03125 q 2.15625,5.4375 3.5625,15.28125 1.40625,9.84375 1.96875,22.59375 l 1.03125,1.6875 q 0.46875,0.84375 0.65625,1.78125 H 566 l -0.375,-1.3125 -0.375,-1.03125 q -0.1875,-0.46875 -0.46875,-0.65625 z m -95.34375,14.25 q -0.46875,0.375 -0.84375,1.21875 -0.28125,0.84375 -0.375,1.78125 h 0.9375 q 0.1875,-0.9375 0.75,-1.78125 l 0.9375,-1.6875 q 0.5625,-12.75 1.96875,-22.59375 1.40625,-9.84375 3.5625,-15.28125 l 1.5,-1.03125 q 4.3125,0.84375 7.875,2.90625 l 7.125,4.21875 q 1.875,1.125 3.5625,2.0625 l 0.5625,0.5625 0.375,0.5625 q 0.75,3.75 1.3125,9.375 0.65625,5.625 0.65625,10.96875 0,2.4375 -0.28125,4.6875 -0.1875,2.15625 -0.46875,4.03125 -0.46875,0.65625 -0.9375,1.59375 -0.46875,0.9375 -0.5625,1.40625 h 0.84375 q 0.1875,-0.9375 0.65625,-1.78125 l 0.9375,-1.6875 q 0.65625,-6.28125 0.65625,-12.375 0,-6.1875 0.5625,-12.5625 l 2.4375,-0.65625 q 2.53125,3.5625 4.59375,8.15625 2.15625,4.59375 2.15625,9.65625 0,0.9375 0.0937,2.71875 0.1875,1.78125 0.1875,3.375 0,3.375 -1.03125,3.75 -0.9375,0.28125 -1.40625,1.40625 h 1.875 q 0.1875,-0.9375 0.65625,-1.78125 0.5625,-0.9375 1.125,-1.6875 l -0.5625,-7.125 q -0.28125,-3.46875 -0.65625,-7.03125 -1.3125,-1.96875 -2.25,-5.25 -0.9375,-3.28125 -0.9375,-5.34375 0,-2.625 1.78125,-5.53125 1.875,-3 1.875,-5.25 0,-1.03125 -0.28125,-2.34375 l 1.59375,-0.0937 q 0.75,1.3125 1.3125,2.71875 0.5625,1.40625 0.75,1.96875 l 0.28125,0.0937 -0.375,-1.3125 -0.375,-1.03125 q -1.59375,-4.875 -8.625,-9.65625 -7.03125,-4.875 -14.4375,-9.9375 -7.3125,-5.0625 -11.53125,-12.375 -4.125,-7.3125 -7.125,-25.21875 L 468.875,98.239686 q -0.84375,-5.0625 -1.5,-10.125 l 2.15625,-6.75 q -0.375,0.28125 -0.84375,1.03125 l -1.78125,3 q -0.46875,0.65625 -0.75,0.65625 -0.28125,-0.375 -0.5625,-0.65625 l -0.5625,-0.5625 -0.5625,0.28125 h -1.5 l -0.75,-0.75 -0.75,0.75 H 459.875 l -3.28125,-5.4375 2.71875,6.5625 q -1.3125,1.3125 -2.8125,2.71875 -1.5,1.3125 -1.5,3.28125 -0.75,0.75 -3.46875,3.375 -2.71875,2.53125 -3.46875,4.968754 1.96875,0 4.125,-1.687504 2.15625,-1.78125 3.84375,-1.78125 1.78125,0 3.5625,-1.125 1.875,-1.125 3.9375,-3 0.5625,0.375 1.125,0.75 0.65625,0.28125 1.21875,0.75 -0.46875,3.5625 -0.75,7.218754 -0.28125,3.65625 -0.28125,7.21875 l 0.1875,4.875 q 0,0.9375 0.1875,2.8125 0.28125,1.875 0.65625,4.40625 l 1.78125,11.15625 q 1.125,6.75 2.71875,14.8125 0,0.375 -2.15625,4.5 -2.15625,4.03125 -2.71875,14.25 l -0.375,4.96875 q -0.1875,2.90625 -1.96875,11.53125 -1.6875,8.625 -3,12.9375 l -0.75,2.53125 q -0.375,1.3125 -0.75,2.4375 l -0.75,1.78125 q -0.75,0.65625 -1.3125,1.40625 -0.46875,0.75 -0.5625,1.21875 h 1.03125 q 0.46875,-1.3125 1.40625,-2.53125 0.9375,-1.3125 2.25,-1.875 1.40625,-7.78125 3.84375,-20.0625 2.4375,-12.375 3.1875,-16.5 l 0.65625,-0.5625 h 1.78125 l 0.28125,0.46875 q 0.1875,0.375 0.28125,0.375 0,5.90625 -0.46875,12.1875 -0.375,6.1875 -0.84375,11.25 z m 3.84375,-102.656254 q 0,0.65625 0.375,2.812504 0.375,2.15625 0.5625,2.90625 l 0.5625,3 q 2.8125,16.6875 6.09375,23.0625 3.28125,6.375 8.53125,10.875 l 0.0937,-0.0937 0.9375,-0.375 q 1.78125,0 4.5,1.96875 2.8125,1.875 4.6875,1.875 3.375,-7.96875 6.65625,-16.125 3.375,-8.25 6.9375,-17.71875 l 0.65625,-1.875 q -0.75,-3.28125 -1.78125,-6.5625 -1.0312,-3.375054 -2.1562,-6.562554 l -7.3125,2.34375 q -3.84375,1.3125 -7.5,1.5 z m 88.96875,0.1875 -8.4375,0.937504 q -4.3125,0.5625 -8.53125,0.5625 -4.78125,0 -9.28125,-1.031254 -4.5,-1.03125 -8.625,-3.84375 -0.65625,1.40625 -0.9375,4.312504 -0.28125,2.8125 -0.28125,3.5625 0,6.65625 3,15.75 3.09375,9 3.375,9.84375 3.1875,1.3125 5.34375,6.09375 2.25,4.78125 4.03125,5.34375 1.78125,0.46875 2.71875,2.15625 5.25,-3.84375 8.53125,-9.65625 3.375,-5.90625 4.78125,-11.53125 1.40625,-5.71875 2.8125,-13.96875 z m -39.28125,6.187504 0.28125,-3.75 0.1875,-1.687504 q 0.375,-3.1875 1.3125,-5.34375 0.9375,-2.15625 2.34375,-2.15625 0.9375,0 4.96875,2.90625 4.125,2.8125 13.5,2.8125 4.3125,0 8.625,-0.5625 l 8.4375,-0.9375 0.0937,-0.84375 -1.5,0.1875 q -1.125,0.1875 -4.125,0.28125 -3,0.09375 -10.59375,0.09375 H 543.5 l -4.03125,0.375 q -3.28125,-2.15625 -6.65625,-3.84375 -3.28125,-1.6875 -6.9375,-2.90625 -2.90625,0 -5.625,-1.96875 -2.625,-1.96875 -0.375,-5.34375 l 1.6875,-2.4375 q 0.75,-1.125 1.5,-2.53125 0.75,-1.5 0.75,-3.5625 0,-3.28125 -1.59375,-5.34375 -1.59375,-2.0625 -5.34375,-2.0625 -3.9375,0 -5.71875,3.75 -1.6875,3.75 -2.34375,4.96875 0.84375,0.46875 1.03125,1.40625 0.28125,0.84375 0.28125,1.875 0,0.65625 0.1875,1.21875 2.4375,0.75 3.65625,2.34375 1.21875,1.59375 1.21875,3.28125 0,2.4375 -2.15625,4.125 -2.0625,1.6875 -4.3125,1.6875 l -0.5625,-0.09375 q -1.3125,0 -3.75,0.65625 -2.34375,0.65625 -4.5,1.59375 l -2.71875,1.125 q -1.40625,0.5625 -2.625,1.03125 -1.21875,0.375 -2.0625,0.375 -1.59375,0 -2.625,-0.09375 -1.03125,-0.09375 -2.8125,-0.1875 l -5.15625,-0.28125 q -3.375,0 -9.5625,-0.09375 l 0.0937,0.9375 12.9375,0.65625 7.40625,0.28125 q 3.46875,0 7.40625,-1.21875 4.03125,-1.3125 8.8125,-3.1875 0.46875,0.28125 1.03125,0.46875 l 0.9375,0.46875 q 0.84375,2.34375 1.59375,4.59375 l 1.40625,4.781254 q 0,0.1875 0.46875,1.59375 0.5625,1.3125 0.9375,2.625 z m 0.1875,3.09375 q -1.59375,0.46875 -3.28125,1.03125 l -3.28125,1.125 q -1.125,3.5625 -2.53125,7.03125 l -2.90625,6.84375 h 16.59375 q -1.21875,-3.75 -2.90625,-9.75 -1.6875,-6.09375 -1.6875,-6.28125 z m -11.25,19.03125 H 508.625 l -0.0937,0.28125 q -1.875,4.96875 -5.25,12 -3.28125,7.03125 -3.5625,7.125 -0.1875,0.1875 -0.46875,0.1875 -0.1875,0 -0.375,0.28125 -1.59375,-0.5625 -2.4375,-1.03125 l -2.90625,-1.59375 q -0.46875,-0.1875 -1.5,-0.65625 -1.03125,-0.46875 -1.3125,-0.46875 l 9,6 0.1875,-0.1875 q 1.125,-4.96875 5.15625,-11.25 4.03125,-6.28125 5.53125,-10.6875 z M 533,149.61469 q 1.96875,-1.3125 3.9375,-2.4375 1.96875,-1.21875 3.9375,-2.625 l -0.375,-0.75 q -0.28125,-0.375 -0.46875,-0.5625 -2.4375,-0.9375 -5.15625,-5.53125 -2.71875,-4.59375 -4.03125,-5.15625 -1.3125,-0.5625 -2.34375,-1.96875 l -0.5625,-1.59375 q -0.28125,-0.75 -0.46875,-1.59375 h -2.53125 q 0.5625,1.5 5.8125,7.40625 5.25,5.8125 7.96875,8.71875 l -0.28125,1.6875 -4.125,3.28125 z M 514.15625,73.020936 q -1.78125,1.78125 -2.625,1.78125 -0.84375,0 -0.84375,-1.5 l 0.9375,-1.21875 q 1.03125,0 2.53125,0.9375 z m 58.59375,17.53125 -1.21875,-0.9375 1.6875,-1.03125 q 0.5625,0 0.5625,1.125 z m -113.25,0.1875 q -0.5625,0 -0.5625,-1.125 0,-1.03125 0.46875,-1.03125 0.5625,0 1.78125,1.03125 z"
         id="path5341"
         inkscape:connector-curvature="0" />
    </g>
  </g>
</svg>
