<?xml version="1.0" encoding="UTF-8" standalone="no"?>
<!-- Created with Inkscape (http://www.inkscape.org/) -->

<svg
   xmlns:dc="http://purl.org/dc/elements/1.1/"
   xmlns:cc="http://creativecommons.org/ns#"
   xmlns:rdf="http://www.w3.org/1999/02/22-rdf-syntax-ns#"
   xmlns:svg="http://www.w3.org/2000/svg"
   xmlns="http://www.w3.org/2000/svg"
   xmlns:sodipodi="http://sodipodi.sourceforge.net/DTD/sodipodi-0.dtd"
   xmlns:inkscape="http://www.inkscape.org/namespaces/inkscape"
   width="23.514843mm"
   height="38.025585mm"
   viewBox="0 0 23.514843 38.025584"
   version="1.1"
   id="svg4525"
   inkscape:version="0.92.4 (5da689c313, 2019-01-14)"
   sodipodi:docname="A40.svg">
  <defs
     id="defs4519" />
  <sodipodi:namedview
     id="base"
     pagecolor="#ffffff"
     bordercolor="#666666"
     borderopacity="1.0"
     inkscape:pageopacity="0.0"
     inkscape:pageshadow="2"
     inkscape:zoom="0.35"
     inkscape:cx="912.00466"
     inkscape:cy="-284.88769"
     inkscape:document-units="mm"
     inkscape:current-layer="layer1"
     showgrid="false"
     fit-margin-top="0"
     fit-margin-left="0"
     fit-margin-right="0"
     fit-margin-bottom="0"
     inkscape:window-width="1920"
     inkscape:window-height="1017"
     inkscape:window-x="-8"
     inkscape:window-y="-8"
     inkscape:window-maximized="1" />
  <metadata
     id="metadata4522">
    <rdf:RDF>
      <cc:Work
         rdf:about="">
        <dc:format>image/svg+xml</dc:format>
        <dc:type
           rdf:resource="http://purl.org/dc/dcmitype/StillImage" />
        <dc:title></dc:title>
      </cc:Work>
    </rdf:RDF>
  </metadata>
  <g
     inkscape:label="Layer 1"
     inkscape:groupmode="layer"
     id="layer1"
     transform="translate(328.61374,-35.431202)">
    <g
       aria-label="𓀉"
       style="font-style:normal;font-variant:normal;font-weight:normal;font-stretch:normal;font-size:50.79999924px;line-height:1.25;font-family:sans-serif;-inkscape-font-specification:sans-serif;font-variant-ligatures:normal;font-variant-caps:normal;font-variant-numeric:normal;font-feature-settings:normal;text-align:start;letter-spacing:0px;word-spacing:0px;writing-mode:lr-tb;text-anchor:start;fill:#000000;fill-opacity:1;stroke:none;stroke-width:0.26458332"
       id="text5105" />
    <g
       aria-label="𓀆"
       transform="matrix(0.26458333,0,0,0.26458333,-199.96101,81.431167)"
       style="font-style:normal;font-variant:normal;font-weight:normal;font-stretch:normal;font-size:192px;line-height:1.25;font-family:sans-serif;-inkscape-font-specification:sans-serif;font-variant-ligatures:normal;font-variant-caps:normal;font-variant-numeric:normal;font-feature-settings:normal;text-align:start;letter-spacing:0px;word-spacing:0px;writing-mode:lr-tb;text-anchor:start;fill:#000000;fill-opacity:1;stroke:none"
       id="flowRoot5135" />
    <g
       aria-label="𓀭"
       transform="matrix(0.26458333,0,0,0.26458333,-264.84194,40.774173)"
       style="font-style:normal;font-variant:normal;font-weight:normal;font-stretch:normal;font-size:192px;line-height:1.25;font-family:sans-serif;-inkscape-font-specification:sans-serif;font-variant-ligatures:normal;font-variant-caps:normal;font-variant-numeric:normal;font-feature-settings:normal;text-align:start;letter-spacing:0px;word-spacing:0px;writing-mode:lr-tb;text-anchor:start;fill:#000000;fill-opacity:1;stroke:none"
       id="flowRoot5344">
      <path
         d="m -188.24609,31.368593 q -0.5625,-2.15625 -1.6875,-4.125 -1.03125,-1.96875 -3.28125,-4.21875 -4.59375,7.96875 -7.125,10.40625 -2.53125,2.34375 -3,2.53125 l -1.3125,0.09375 h -1.40625 q -1.59375,0 -2.25,-0.375 -0.65625,-0.46875 -0.65625,-1.59375 0,-0.9375 3.65625,-0.9375 2.4375,-1.59375 4.40625,-4.40625 2.0625,-2.8125 3.09375,-5.53125 -1.78125,-0.9375 -2.4375,-2.34375 -0.5625,-1.5 -0.5625,-2.71875 0,-1.03125 0.46875,-2.4375 -1.5,-0.75 -3,-1.03125 l -1.40625,-1.78125 3.84375,-9.1875003 q 0.46875,-1.5 0.46875,-3.00000001 l -0.0937,-1.6875 q 0,-6.84374999 5.90625,-13.03124969 5.90625,-6.1875 14.8125,-6.1875 13.21875,0 20.4375,14.5312497 7.21875,14.53125 7.21875,37.4062503 0,9.84375 -1.21875,19.5 -1.21875,9.5625 -3.09375,18.375 l -1.5,1.03125 h -6.09375 q -0.28125,9.1875 -2.0625,18.09375 -1.6875,8.90625 -3.75,17.906247 1.6875,2.4375 6,6.1875 4.40625,3.75 4.40625,9.1875 -0.46875,0.375 -0.84375,0.75 l -0.75,0.75 h -78.5625 l -1.40625,-1.78125 q 1.125,-5.0625 6.46875,-9.375 5.34375,-4.40625 5.90625,-4.875 0.75,-1.96875 1.03125,-3.9375 0.28125,-1.96875 0.28125,-3.937497 0,-6.09375 -3.9375,-17.90625 -3.84375,-11.90625 -3.84375,-18.46875 0,-5.25 2.625,-7.96875 2.71875,-2.8125 7.21875,-2.8125 10.125,0 15.5625,9.9375 5.4375,9.84375 5.71875,10.3125 l 1.96875,3.46875 q 0.84375,1.59375 2.25,3.46875 0.75,-0.28125 1.21875,-0.65625 1.125,-12.1875 4.03125,-24 3,-11.90625 6.28125,-23.625 z m 15.28125,75.281247 q 0.375,-1.78125 3.375,-16.124997 3.09375,-14.34375 3.09375,-34.40625 0,-9.375 -1.125,-15.84375 -1.125,-6.46875 -3.28125,-13.03125 -1.03125,0.375 -6.28125,2.25 -5.15625,1.875 -8.25,3.09375 -0.9375,3.84375 -4.59375,17.4375 -3.65625,13.5 -5.34375,26.625 l -0.28125,2.15625 q -0.28125,1.6875 -1.21875,2.71875 -0.9375,1.03125 -2.8125,1.03125 -2.625,0 -4.96875,-4.3125 -2.25,-4.40625 -5.53125,-10.78125 -3.1875,-6.46875 -6.75,-9.28125 -3.46875,-2.8125 -8.25,-2.8125 -3.5625,0 -5.34375,2.0625 -1.6875,1.96875 -1.6875,5.53125 0,6.1875 4.03125,17.8125 4.03125,11.53125 4.03125,19.687497 0,3.75 -1.125,6.65625 -1.03125,2.90625 -3.28125,4.59375 l -3.46875,2.4375 q -1.78125,1.3125 -3.375,2.8125 -1.5,1.40625 -2.15625,3.5625 h 75 q -0.46875,-3.46875 -4.6875,-6.84375 -4.21875,-3.375 -5.53125,-6 z m -23.90625,-111.0937473 17.53125,4.59374999 q 0.46875,-1.03125 1.40625,-1.78124999 1.03125,-0.75 2.0625,-0.75 2.15625,0 3.375,1.87499999 1.21875,1.78125001 1.21875,5.06250001 l -0.65625,1.21875 q -1.125,0.84375 -1.59375,2.0625 -0.375,1.21875 -0.375,2.5312503 0.28125,4.40625 5.34375,15.28125 5.0625,10.875 5.0625,30.375 v 4.03125 l -0.1875,5.25 -0.1875,2.34375 h 4.78125 q 1.59375,-8.15625 2.71875,-17.25 1.125,-9.1875 1.125,-18.5625 0,-22.0312503 -6.5625,-35.4375003 -6.46875,-13.4999997 -17.34375,-13.4999997 -6.5625,0 -11.25,3.375 -4.59375,3.28125 -6.46875,9.2812497 z m 19.875,6.84375 -1.03125,0.46875 q -0.46875,0.1875 -0.9375,0.46875 l -18.375,-4.78125 q -0.1875,4.875 -1.59375,7.78125 -1.40625,2.90625 -2.4375,5.8125003 1.78125,0.65625 2.90625,1.40625 1.125,0.65625 1.125,1.6875 0,0.75 -0.28125,1.59375 -0.1875,0.75 -0.1875,1.59375 0,1.6875 1.21875,1.78125 1.3125,0.09375 1.875,0.09375 0.84375,0 1.6875,0.09375 0.84375,0 1.3125,0.28125 0.5625,0.1875 3,3.1875 2.4375,2.90625 3.28125,5.53125 l 13.40625,-4.96875 -1.125,-2.34375 -1.125,-2.53125 q -1.125,-2.34375 -1.96875,-4.6875 -0.75,-2.34375 -0.75,-4.59375 V 9.6185927 q 0,-1.59375 0.65625,-3.09375 0.65625,-1.5 2.0625,-2.71875 v -0.84375 q 0,-0.9375 -0.46875,-1.59375 -0.375,-0.65625001 -0.9375,-0.65625001 -0.46875,0 -0.84375,0.56250001 -0.28125,0.5625 -0.46875,1.125 z m -12.65625,3.1875 q -3.65625,1.59375 -5.4375,1.59375 -0.84375,0 -1.125,-0.46875 -0.1875,-0.46875 -0.1875,-1.6875 0,-0.9375 0.5625,-1.40625 0.65625,-0.46875 1.5,-0.46875 1.40625,0 4.6875,2.4375 z"
         id="path5352"
         inkscape:connector-curvature="0" />
    </g>
  </g>
</svg>
