<?xml version="1.0" encoding="UTF-8" standalone="no"?>
<!-- Created with Inkscape (http://www.inkscape.org/) -->

<svg
   xmlns:dc="http://purl.org/dc/elements/1.1/"
   xmlns:cc="http://creativecommons.org/ns#"
   xmlns:rdf="http://www.w3.org/1999/02/22-rdf-syntax-ns#"
   xmlns:svg="http://www.w3.org/2000/svg"
   xmlns="http://www.w3.org/2000/svg"
   xmlns:sodipodi="http://sodipodi.sourceforge.net/DTD/sodipodi-0.dtd"
   xmlns:inkscape="http://www.inkscape.org/namespaces/inkscape"
   width="21.208008mm"
   height="38.124817mm"
   viewBox="0 0 21.208008 38.124817"
   version="1.1"
   id="svg14093"
   inkscape:version="0.92.4 (5da689c313, 2019-01-14)"
   sodipodi:docname="A41.svg">
  <defs
     id="defs14087" />
  <sodipodi:namedview
     id="base"
     pagecolor="#ffffff"
     bordercolor="#666666"
     borderopacity="1.0"
     inkscape:pageopacity="0.0"
     inkscape:pageshadow="2"
     inkscape:zoom="0.35"
     inkscape:cx="-354.68666"
     inkscape:cy="-380.47587"
     inkscape:document-units="mm"
     inkscape:current-layer="layer1"
     showgrid="false"
     fit-margin-top="0"
     fit-margin-left="0"
     fit-margin-right="0"
     fit-margin-bottom="0"
     inkscape:window-width="1920"
     inkscape:window-height="1017"
     inkscape:window-x="-8"
     inkscape:window-y="-8"
     inkscape:window-maximized="1" />
  <metadata
     id="metadata14090">
    <rdf:RDF>
      <cc:Work
         rdf:about="">
        <dc:format>image/svg+xml</dc:format>
        <dc:type
           rdf:resource="http://purl.org/dc/dcmitype/StillImage" />
        <dc:title></dc:title>
      </cc:Work>
    </rdf:RDF>
  </metadata>
  <g
     inkscape:label="Layer 1"
     inkscape:groupmode="layer"
     id="layer1"
     transform="translate(-6.5316786,-10.040941)">
    <g
       aria-label="𓀯"
       transform="matrix(0.26458333,0,0,0.26458333,34.017857,-19.654762)"
       style="font-style:normal;font-variant:normal;font-weight:normal;font-stretch:normal;font-size:192px;line-height:1.25;font-family:sans-serif;-inkscape-font-specification:'sans-serif, Normal';font-variant-ligatures:normal;font-variant-caps:normal;font-variant-numeric:normal;font-feature-settings:normal;text-align:start;letter-spacing:0px;word-spacing:0px;writing-mode:lr-tb;text-anchor:start;fill:#000000;fill-opacity:1;stroke:none"
       id="flowRoot14638">
      <path
         d="m -35.634766,158.54828 8.8125,24.5625 -1.5,1.96875 h -7.5 l 0.75,12.375 q 0.375,6.1875 0.375,12.46875 0,7.21875 -0.65625,14.34375 -0.65625,7.03125 -0.65625,12.5625 0,4.96875 6.09375,8.25 6.1875,3.28125 6.1875,9.75 -0.46875,0.375 -0.84375,0.75 l -0.75,0.75 h -72.84375 q -1.78125,0 -3.187504,-0.9375 -1.3125,-0.9375 -1.3125,-2.8125 0,-3.09375 3.468754,-6.84375 3.46875,-3.84375 4.21875,-5.0625 0,-7.78125 -4.5,-20.90625 -4.406254,-13.125 -4.406254,-21.09375 0,-6.9375 2.53125,-10.875 2.531254,-4.03125 6.937504,-4.03125 6,0 12.28125,10.3125 6.375,10.3125 7.5,12.09375 l 2.53125,4.03125 q 1.21875,2.0625 3.09375,3.5625 1.875,-1.21875 2.71875,-4.21875 0.84375,-3 1.03125,-6.5625 l 0.1875,-3.375 q 0,-0.46875 0.84375,-14.71875 0.9375,-14.34375 7.21875,-21.5625 0,-6.375 -1.40625,-8.53125 -1.40625,-2.15625 -3.9375,-2.90625 l -3.84375,8.90625 h -5.25 l 5.0625,-9.09375 q -0.9375,-0.65625 -1.3125,-1.875 -0.375,-1.21875 -0.5625,-2.625 l -0.46875,-2.625 q -0.28125,-1.21875 -0.9375,-1.875 l -0.46875,-0.1875 -0.65625,-0.65625 q -0.75,-0.75 -0.9375,-1.125 l 1.59375,-3.46875 q 1.03125,-2.34375 1.78125,-4.78125 0.75,-2.4375 1.40625,-4.875 l 0.5625,-2.0625 q -0.46875,0.375 -1.78125,0.5625 -1.3125,0.0937 -2.25,0.0937 -1.5,-0.65625 -1.5,-2.0625 0,-3.1875 2.0625,-7.21875 l -3.46875,1.125 -1.03125,-2.4375 q 1.03125,-1.875 3,-1.875 1.03125,0 2.34375,0.46875 1.3125,0.46875 1.78125,1.40625 -0.46875,2.34375 -0.9375,3.84375 -0.375,1.5 -0.5625,2.53125 l 0.46875,0.5625 q 0.46875,0 1.40625,-0.28125 1.03125,-0.375 1.5,-0.65625 2.625,-4.40625 7.6875,-6.84375 5.0625,-2.53125 10.5,-2.53125 9.75,0 16.03125,7.125 6.28125,7.125 6.28125,18.28125 0,6.9375 -2.8125,12.5625 -2.8125,5.625 -7.96875,8.34375 z m -11.34375,-0.5625 q -2.71875,4.21875 -6.09375,6.09375 -3.28125,1.875 -5.8125,9.375 -2.4375,7.40625 -2.8125,15.9375 l -0.46875,12.09375 -0.375,4.40625 q -0.28125,4.03125 -1.78125,7.03125 -1.5,3 -4.5,4.03125 l -1.40625,-0.375 q -0.65625,-0.1875 -3,-2.625 -2.25,-2.53125 -7.21875,-11.25 -4.96875,-8.8125 -7.03125,-11.25 -2.0625,-2.53125 -3.5625,-3.5625 -1.5,-1.125 -3,-1.125 -3.375,0 -5.15625,3.09375 -1.687504,3 -1.687504,8.8125 0,7.96875 4.500004,21.28125 4.5,13.21875 4.5,20.15625 0,1.96875 -0.65625,2.4375 -0.5625,0.375 -3.9375,4.40625 -3.28125,4.03125 -3.28125,5.53125 0,0.5625 0.5625,0.75 0.5625,0.0937 1.03125,0.0937 h 71.625 q 0,-3.28125 -6.28125,-6.75 -6.1875,-3.46875 -6.1875,-9.46875 0,-6.84375 0.65625,-13.40625 0.65625,-6.65625 0.65625,-14.25 0,-10.875 -1.03125,-24.1875 -1.03125,-13.3125 -1.03125,-18 v -1.40625 q 0,-0.9375 0.09375,-2.15625 l 0.1875,-2.4375 q 0,-1.21875 0.28125,-2.15625 z m 9.28125,-1.6875 q 4.59375,-2.0625 7.125,-7.125 2.53125,-5.0625 2.53125,-12.28125 0,-9.9375 -5.625,-15.75 -5.53125,-5.90625 -13.6875,-5.90625 -6.375,0 -11.25,3.65625 -4.78125,3.65625 -5.34375,8.90625 l 13.5,1.125 q 1.03125,-1.5 1.875,-2.15625 0.84375,-0.75 2.625,-0.65625 1.875,0.0937 2.53125,1.40625 0.75,1.3125 0.75,2.8125 0,2.15625 -1.03125,4.21875 -1.03125,2.0625 -2.90625,2.90625 l -0.09375,0.84375 q -0.1875,0.9375 -0.28125,2.4375 l -0.28125,3.375 q -0.1875,1.875 -0.1875,3.84375 0,2.0625 0.1875,3.9375 0.28125,1.875 0.75,3.1875 z m -16.21875,4.78125 q 0.75,-0.5625 1.6875,-1.5 0.9375,-1.03125 2.71875,-3.46875 l -0.46875,-2.34375 q -0.375,-1.96875 -0.375,-4.5 l 0.09375,-3.09375 q 0,-3.75 0.375,-6.5625 0.46875,-2.8125 1.125,-4.40625 1.3125,-0.75 2.15625,-1.875 0.84375,-1.21875 0.84375,-2.53125 0,-0.65625 -0.1875,-1.21875 -0.09375,-0.5625 -0.75,-0.5625 -0.1875,0 -0.75,0.375 -0.46875,0.375 -0.65625,1.59375 l -0.84375,0.65625 -0.65625,0.375 -15.09375,-1.3125 q -0.75,2.4375 -1.59375,4.78125 -0.84375,2.34375 -1.875,4.59375 1.03125,0.5625 1.40625,1.6875 0.46875,1.03125 0.65625,2.25 l 0.46875,2.53125 q 0.1875,1.3125 0.75,2.25 l 4.125,0.1875 q 3.9375,1.78125 5.34375,4.96875 1.5,3.1875 1.5,7.125 z m 17.25,3.1875 q 0,0.75 -0.09375,1.5 v 1.5 q 0,3.75 0.28125,7.5 0.375,3.65625 0.5625,7.3125 h 5.53125 z m -25.3125,-30.9375 q 1.96875,0.65625 3.46875,1.6875 -1.5,1.03125 -3.46875,1.6875 l -1.21875,-1.6875 z"
         id="path14646"
         inkscape:connector-curvature="0" />
    </g>
  </g>
</svg>
