<?xml version="1.0" encoding="UTF-8" standalone="no"?>
<!-- Created with Inkscape (http://www.inkscape.org/) -->

<svg
   xmlns:dc="http://purl.org/dc/elements/1.1/"
   xmlns:cc="http://creativecommons.org/ns#"
   xmlns:rdf="http://www.w3.org/1999/02/22-rdf-syntax-ns#"
   xmlns:svg="http://www.w3.org/2000/svg"
   xmlns="http://www.w3.org/2000/svg"
   xmlns:sodipodi="http://sodipodi.sourceforge.net/DTD/sodipodi-0.dtd"
   xmlns:inkscape="http://www.inkscape.org/namespaces/inkscape"
   width="20.091797mm"
   height="38.000782mm"
   viewBox="0 0 20.091797 38.000782"
   version="1.1"
   id="svg15217"
   inkscape:version="0.92.4 (5da689c313, 2019-01-14)"
   sodipodi:docname="A43.svg">
  <defs
     id="defs15211" />
  <sodipodi:namedview
     id="base"
     pagecolor="#ffffff"
     bordercolor="#666666"
     borderopacity="1.0"
     inkscape:pageopacity="0.0"
     inkscape:pageshadow="2"
     inkscape:zoom="0.35"
     inkscape:cx="-380.40207"
     inkscape:cy="-386.18876"
     inkscape:document-units="mm"
     inkscape:current-layer="layer1"
     showgrid="false"
     fit-margin-top="0"
     fit-margin-left="0"
     fit-margin-right="0"
     fit-margin-bottom="0"
     inkscape:window-width="1920"
     inkscape:window-height="1017"
     inkscape:window-x="-8"
     inkscape:window-y="-8"
     inkscape:window-maximized="1" />
  <metadata
     id="metadata15214">
    <rdf:RDF>
      <cc:Work
         rdf:about="">
        <dc:format>image/svg+xml</dc:format>
        <dc:type
           rdf:resource="http://purl.org/dc/dcmitype/StillImage" />
        <dc:title></dc:title>
      </cc:Work>
    </rdf:RDF>
  </metadata>
  <g
     inkscape:label="Layer 1"
     inkscape:groupmode="layer"
     id="layer1"
     transform="translate(-13.335546,-8.653442)">
    <g
       aria-label="𓀲"
       transform="matrix(0.26458333,0,0,0.26458333,43.089286,-24.946429)"
       style="font-style:normal;font-variant:normal;font-weight:normal;font-stretch:normal;font-size:192px;line-height:1.25;font-family:sans-serif;-inkscape-font-specification:'sans-serif, Normal';font-variant-ligatures:normal;font-variant-caps:normal;font-variant-numeric:normal;font-feature-settings:normal;text-align:start;letter-spacing:0px;word-spacing:0px;writing-mode:lr-tb;text-anchor:start;fill:#000000;fill-opacity:1;stroke:none"
       id="flowRoot15762">
      <path
         d="m -60.892578,198.14789 5.90625,17.625 -1.5,1.96875 h -5.90625 q 0.84375,9.46875 0.84375,18.84375 0,5.0625 -0.28125,10.125 -0.1875,4.96875 -0.65625,10.125 0,2.53125 4.59375,4.78125 4.6875,2.15625 4.6875,5.90625 0,0.375 -0.09375,0.75 0,0.375 -0.09375,0.84375 l -1.59375,1.5 h -52.968752 q -1.3125,0 -2.53125,-1.03125 -1.21875,-1.03125 -1.21875,-2.34375 0,-2.0625 2.71875,-4.5 2.71875,-2.53125 2.71875,-4.03125 0,-7.78125 -3.09375,-16.96875 -3.09375,-9.09375 -3.09375,-13.96875 0,-4.78125 2.15625,-8.34375 2.15625,-3.5625 4.96875,-3.5625 3.46875,0 7.218752,5.71875 1.875,2.90625 4.875,7.21875 3,4.21875 7.21875,10.03125 2.53125,-0.65625 2.71875,-6.28125 v -2.8125 q 0,-13.125 1.5,-18.46875 1.59375,-5.53125 4.21875,-9.1875 -0.375,-4.875 -1.78125,-6.5625 -1.40625,-1.6875 -4.21875,-1.6875 l -0.75,0.0937 q -0.75,0 -1.40625,-0.375 l -0.9375,-1.6875 0.65625,-4.03125 -1.5,-0.0937 -1.21875,-2.25 q 0.9375,-1.125 2.25,-3.65625 1.3125,-2.625 1.3125,-6.9375 -1.03125,0.5625 -1.96875,0.5625 -0.75,0 -1.03125,-0.75 -0.28125,-0.84375 -0.28125,-1.5 0,-2.71875 2.0625,-5.90625 -1.59375,0.84375 -2.25,0.84375 -0.375,0 -0.5625,-0.375 -0.1875,-0.46875 -0.1875,-0.9375 0,-1.03125 2.25,-1.03125 1.125,0 1.875,0.28125 0.84375,0.28125 0.84375,0.75 0,1.125 -0.28125,2.15625 -0.28125,1.03125 -0.65625,1.875 -0.375,0.75 -0.65625,1.3125 -0.28125,0.46875 -0.28125,0.5625 0,0.28125 0.375,0.28125 2.0625,0 4.875,-5.15625 3.09375,-5.34375 15.1875,-15 12.375,-9.75 14.8125,-15.9375 2.34375,-6.09375 6.5625,-8.53125 2.34375,-1.40625 4.03125,-1.40625 1.21875,0 1.96875,0.75 1.96875,2.25 1.96875,4.5 0,3.9375 -4.78125,9.9375 -4.6875,6 -5.25,10.5 -0.28125,2.25 -1.3125,6.75 -1.03125,4.5 -2.8125,11.34375 -1.78125,6.84375 -4.40625,13.6875 -2.53125,6.75 -5.8125,13.6875 z m -3.375,38.53125 -1.125,-18.09375 q 0,-1.875 -0.09375,-3.1875 0,-1.3125 0,-2.0625 v -5.90625 q 0.28125,-3.375 0.84375,-6 -1.21875,0.375 -2.625,0.5625 l -2.8125,0.28125 q -1.40625,0.1875 -2.71875,0.46875 -1.3125,0.28125 -2.4375,1.03125 h -0.09375 q -2.625,4.3125 -3.75,9.65625 -1.125,5.25 -1.125,16.5 0,6 -1.59375,8.8125 -1.5,2.8125 -4.5,3.1875 l -1.6875,-0.75 q -5.0625,-6.75 -8.15625,-11.15625 -3.09375,-4.5 -4.406252,-6.75 -2.53125,-4.5 -5.25,-4.5 -1.78125,0.75 -2.71875,3.375 -0.9375,2.625 -0.9375,6.1875 0,4.3125 1.78125,9 1.78125,4.5 3.09375,10.5 1.3125,6 1.3125,8.90625 0,2.625 -0.65625,4.03125 -0.65625,1.3125 -1.59375,2.25 l -1.78125,1.875 q -0.9375,0.9375 -1.5,2.71875 h 52.593752 q 0,-0.375 0.09375,-0.65625 0,-1.03125 -1.40625,-1.78125 l -3.28125,-1.6875 q -1.78125,-0.9375 -3.28125,-2.34375 -1.40625,-1.40625 -1.40625,-3.84375 l 0.65625,-7.59375 q 0.28125,-3 0.375,-6.46875 0.1875,-3.46875 0.1875,-6.5625 z m -8.4375,-59.8125 q 0.5625,-1.59375 1.5,-2.0625 0.9375,-0.5625 1.3125,-0.5625 1.40625,0 2.25,1.6875 0.84375,1.59375 0.84375,3.1875 0,1.3125 -0.84375,2.625 -0.84375,1.3125 -2.34375,2.0625 0.5625,2.4375 3.46875,6.1875 1.5,1.875 2.4375,3.09375 0.9375,1.21875 1.3125,1.6875 2.4375,-4.875 4.40625,-10.125 2.0625,-5.34375 3.65625,-11.0625 3.28125,-11.625 4.21875,-17.25 l 0.84375,-3.5625 q 0.75,-3.65625 1.5,-5.53125 0.84375,-1.875 2.15625,-3.5625 l 2.71875,-3.65625 q 1.3125,-1.78125 2.34375,-3.75 1.125,-1.96875 1.40625,-4.3125 0,-1.21875 -0.9375,-1.875 -4.40625,0 -7.125,6.65625 -1.3125,3.28125 -3.65625,6.375 -2.25,3 -5.4375,5.90625 -3.1875,2.90625 -6.1875,5.25 -3,2.34375 -5.71875,4.21875 -2.71875,1.875 -6.1875,5.8125 -3.375,3.9375 -7.40625,10.125 v 1.21875 z m -10.875,14.0625 q 8.71875,1.03125 9.09375,9.46875 1.21875,-0.375 2.71875,-0.5625 l 2.8125,-0.28125 q 1.40625,-0.1875 2.625,-0.5625 1.21875,-0.375 2.0625,-1.125 -1.03125,-1.96875 -4.96875,-6.5625 -3.84375,-4.6875 -3.84375,-8.0625 l 0.9375,-1.6875 q 1.59375,-0.65625 2.0625,-1.21875 0.46875,-0.5625 0.46875,-1.78125 0,-0.65625 -0.375,-0.65625 -0.5625,0 -0.65625,0.65625 -0.09375,0.5625 -0.1875,0.84375 l -0.84375,0.5625 -10.6875,-1.40625 q -0.1875,1.6875 -0.84375,3.1875 -0.5625,1.40625 -1.875,3.46875 0.84375,0.375 1.40625,0.9375 0.65625,0.5625 0.65625,1.59375 0,0.375 -0.09375,0.75 0,0.375 -0.09375,0.84375 z m 21.5625,13.59375 q -0.09375,0.75 -0.09375,1.6875 -0.09375,0.75 -0.09375,1.6875 0,0.9375 -0.09375,1.96875 -0.09375,1.96875 -0.1875,3.1875 0,1.21875 0,1.6875 h 4.03125 z m -15.1875,-23.0625 q -1.875,1.125 -2.625,1.125 -0.84375,0 -0.84375,-1.125 0,-1.125 0.84375,-1.125 0.75,0 2.625,1.125 z"
         id="path15770"
         inkscape:connector-curvature="0" />
    </g>
  </g>
</svg>
