<?xml version="1.0" encoding="UTF-8" standalone="no"?>
<svg
   xmlns:dc="http://purl.org/dc/elements/1.1/"
   xmlns:cc="http://creativecommons.org/ns#"
   xmlns:rdf="http://www.w3.org/1999/02/22-rdf-syntax-ns#"
   xmlns:svg="http://www.w3.org/2000/svg"
   xmlns="http://www.w3.org/2000/svg"
   xmlns:sodipodi="http://sodipodi.sourceforge.net/DTD/sodipodi-0.dtd"
   xmlns:inkscape="http://www.inkscape.org/namespaces/inkscape"
   sodipodi:docname="A43A.svg"
   inkscape:version="1.0 (4035a4fb49, 2020-05-01)"
   id="svg1414"
   version="1.1"
   viewBox="0 0 20.563084 38.000786"
   height="38.000786mm"
   width="20.563084mm">
  <defs
     id="defs1408" />
  <sodipodi:namedview
     inkscape:window-maximized="1"
     inkscape:window-y="-8"
     inkscape:window-x="-8"
     inkscape:window-height="1017"
     inkscape:window-width="1920"
     fit-margin-bottom="0"
     fit-margin-right="0"
     fit-margin-left="0"
     fit-margin-top="0"
     showgrid="false"
     inkscape:document-rotation="0"
     inkscape:current-layer="layer1"
     inkscape:document-units="mm"
     inkscape:cy="496.41072"
     inkscape:cx="375.3125"
     inkscape:zoom="0.35"
     inkscape:pageshadow="2"
     inkscape:pageopacity="0.0"
     borderopacity="1.0"
     bordercolor="#666666"
     pagecolor="#ffffff"
     id="base" />
  <metadata
     id="metadata1411">
    <rdf:RDF>
      <cc:Work
         rdf:about="">
        <dc:format>image/svg+xml</dc:format>
        <dc:type
           rdf:resource="http://purl.org/dc/dcmitype/StillImage" />
        <dc:title></dc:title>
      </cc:Work>
    </rdf:RDF>
  </metadata>
  <g
     transform="translate(-6.5319009,-16.824663)"
     id="layer1"
     inkscape:groupmode="layer"
     inkscape:label="Layer 1">
    <g
       style="font-style:normal;font-variant:normal;font-weight:normal;font-stretch:normal;font-size:50.8px;line-height:1.25;font-family:sans-serif;-inkscape-font-specification:sans-serif;font-variant-ligatures:normal;font-variant-caps:normal;font-variant-numeric:normal;font-feature-settings:normal;text-align:start;letter-spacing:0px;word-spacing:0px;writing-mode:lr-tb;text-anchor:start;fill:#000000;fill-opacity:1;stroke:none;stroke-width:0.264583"
       id="text1979"
       aria-label="𓀳">
      <path
         id="path1981"
         style="stroke-width:0.264583"
         d="m 20.248893,40.835605 q 0.223242,2.505273 0.223242,4.985742 0,1.339453 -0.07441,2.678906 -0.04961,1.314649 -0.173633,2.678907 0,0.669726 1.21543,1.265039 1.240234,0.570507 1.240234,1.562695 0,0.173633 -0.04961,0.42168 -0.124024,0.09922 -0.223242,0.198437 l -0.198438,0.198438 H 8.1938149 q -0.3472656,0 -0.6697266,-0.272852 -0.3224609,-0.272852 -0.3224609,-0.620117 0,-0.545703 0.7193359,-1.190625 0.719336,-0.669727 0.719336,-1.066602 0,-2.058789 -0.8185547,-4.489648 -0.8185547,-2.430859 -0.8185547,-3.695898 0,-1.141016 0.396875,-1.909961 0.396875,-0.79375 0.9425781,-1.066602 l -0.6449218,-9.847461 -0.4712891,1.141016 -0.6945312,-0.297656 1.5378906,-3.472656 0.6945312,0.37207 -0.3720703,0.79375 0.8433594,11.211718 q 0.7689452,0.173633 1.6371092,1.562696 0.892969,1.364257 3.125391,4.440039 0.347265,-0.09922 0.520898,-0.520899 0.173633,-0.421679 0.198438,-1.141015 v -0.744141 q 0,-3.423047 0.396875,-4.886523 0.396875,-1.463477 1.116211,-2.43086 -0.09922,-1.116211 -0.396875,-1.562695 -0.272852,-0.471289 -0.744141,-0.570508 l -0.967383,2.207617 h -1.389062 q 0.496093,-0.868164 0.818554,-1.463476 l 0.471289,-0.917774 -0.09922,-0.198437 q -0.04961,-0.07441 -0.09922,-0.198438 0,-0.272851 0.04961,-0.520898 0.04961,-0.272852 0.124024,-0.545703 -0.124024,0 -0.198438,-0.02481 h -0.198437 q -0.09922,-0.148828 -0.173633,-0.297656 l -0.148828,-0.297656 q 0.967383,-1.240235 0.917773,-2.158008 -0.0248,-0.942578 1.141016,-2.629297 1.190625,-1.686719 4.191992,-4.067969 3.026172,-2.406054 3.54707,-3.646289 0.520899,-1.265039 1.190625,-2.058789 0.669727,-0.818554 1.934766,-0.917773 0.322461,0.07441 0.595312,0.520898 0.297656,0.446485 0.297656,0.868164 0,1.016993 -1.265039,2.654102 -1.265039,1.612305 -1.339453,2.430859 -0.07441,0.818555 -0.818554,3.795117 -0.719336,2.951758 -1.736328,5.581055 -0.992188,2.629297 -1.265039,2.951758 -0.272852,0.297656 -0.396875,4.167187 0,0.744141 -0.02481,1.041797 z m -0.496094,5.010547 -0.173633,-2.703711 -0.09922,-2.083594 q -0.04961,-0.992187 -0.04961,-1.389062 l 0.04961,-1.562696 q 0,-0.421679 0.04961,-0.818554 0.04961,-0.42168 0.124023,-0.768945 -0.347265,0.124023 -0.694531,0.148828 l -0.74414,0.07441 q -0.372071,0.04961 -0.719336,0.124023 -0.347266,0.07441 -0.644922,0.272852 h -0.02481 q -0.694531,1.141015 -0.992187,2.554882 -0.297657,1.389063 -0.297657,4.365625 0,1.5875 -0.421679,2.331641 -0.396875,0.744141 -1.190625,0.843359 l -0.446485,-0.198437 q -2.629297,-3.54707 -3.323828,-4.737695 -0.6697264,-1.190625 -1.3890623,-1.190625 -0.471289,0.198437 -0.7193359,0.892968 -0.2480469,0.694532 -0.2480469,1.63711 0,1.116211 0.4712891,2.38125 0.4960937,1.240234 0.8185546,2.778125 0.3472657,1.53789 0.3472657,2.356445 0,0.694531 -0.1736329,1.066601 -0.1736328,0.347266 -0.4216796,0.595313 L 8.3674477,53.312363 Q 8.1194008,53.56041 7.9705727,54.031699 H 21.886002 q 0,-0.04961 0.0248,-0.173633 0,-0.272852 -0.37207,-0.471289 l -0.868164,-0.446485 q -0.47129,-0.248046 -0.868165,-0.620117 -0.37207,-0.37207 -0.37207,-1.016992 0,-0.09922 0.04961,-0.669727 l 0.124023,-1.339453 q 0.04961,-0.79375 0.09922,-1.711523 0.04961,-0.917773 0.04961,-1.736328 z M 17.520377,30.020761 q 0.148828,-0.421679 0.396875,-0.545703 0.248047,-0.148828 0.347266,-0.148828 0.37207,0 0.595312,0.446485 0.223243,0.421679 0.223243,0.843359 0,0.347266 -0.223243,0.694531 -0.223242,0.347266 -0.620117,0.545703 0.148828,0.620118 0.917774,1.63711 0.79375,0.992187 0.992187,1.265039 1.289844,-2.579688 2.133203,-5.60586 0.868164,-3.050976 1.141016,-4.564062 l 0.198437,-0.942578 q 0.198438,-0.967383 0.396875,-1.463477 0.223242,-0.496093 0.570508,-0.942578 l 0.719336,-0.967383 q 0.347266,-0.471289 0.620117,-0.992187 0.297656,-0.520898 0.372071,-1.141016 0,-0.297656 -0.248047,-0.496093 -1.265039,0 -2.00918,2.009179 -0.744141,1.984375 -4.564062,4.886524 -3.795118,2.877343 -4.464844,5.159375 z m -2.877343,3.720704 q 2.282031,0.248046 2.406054,2.505273 0.347266,-0.09922 0.719336,-0.148828 l 0.744141,-0.07441 q 0.37207,-0.04961 0.694531,-0.148828 0.322461,-0.09922 0.545703,-0.297657 -0.272851,-0.496093 -1.314648,-1.736328 -1.016992,-1.240234 -1.016992,-2.133203 0.04961,-0.124023 0.124023,-0.223242 L 17.669205,31.261 q 0.42168,-0.173633 0.545704,-0.322461 0.124023,-0.148828 0.124023,-0.471289 0,-0.04961 -0.02481,-0.09922 -0.0248,-0.07441 -0.07441,-0.07441 -0.148828,0 -0.173633,0.173633 -0.0248,0.148828 -0.04961,0.223242 l -0.223242,0.148828 -2.827735,-0.37207 q -0.04961,0.446484 -0.223242,0.843359 -0.148828,0.372071 -0.496093,0.917774 0.223242,0.09922 0.37207,0.248047 0.173633,0.148828 0.173633,0.421679 0,0.198438 -0.04961,0.42168 z m 1.686718,-2.505274 q -0.496093,0.297656 -0.694531,0.297656 -0.223242,0 -0.223242,-0.297656 0,-0.297656 0.223242,-0.297656 0.198438,0 0.694531,0.297656 z" />
    </g>
  </g>
</svg>
