<?xml version="1.0" encoding="UTF-8" standalone="no"?>
<!-- Created with Inkscape (http://www.inkscape.org/) -->

<svg
   xmlns:dc="http://purl.org/dc/elements/1.1/"
   xmlns:cc="http://creativecommons.org/ns#"
   xmlns:rdf="http://www.w3.org/1999/02/22-rdf-syntax-ns#"
   xmlns:svg="http://www.w3.org/2000/svg"
   xmlns="http://www.w3.org/2000/svg"
   xmlns:sodipodi="http://sodipodi.sourceforge.net/DTD/sodipodi-0.dtd"
   xmlns:inkscape="http://www.inkscape.org/namespaces/inkscape"
   width="30.11289mm"
   height="37.975975mm"
   viewBox="0 0 30.11289 37.975974"
   version="1.1"
   id="svg4525"
   inkscape:version="0.92.4 (5da689c313, 2019-01-14)"
   sodipodi:docname="A47.svg">
  <defs
     id="defs4519" />
  <sodipodi:namedview
     id="base"
     pagecolor="#ffffff"
     bordercolor="#666666"
     borderopacity="1.0"
     inkscape:pageopacity="0.0"
     inkscape:pageshadow="2"
     inkscape:zoom="0.35"
     inkscape:cx="876.11208"
     inkscape:cy="-21.075439"
     inkscape:document-units="mm"
     inkscape:current-layer="layer1"
     showgrid="false"
     fit-margin-top="0"
     fit-margin-left="0"
     fit-margin-right="0"
     fit-margin-bottom="0"
     inkscape:window-width="1920"
     inkscape:window-height="1017"
     inkscape:window-x="-8"
     inkscape:window-y="-8"
     inkscape:window-maximized="1"
     showguides="false" />
  <metadata
     id="metadata4522">
    <rdf:RDF>
      <cc:Work
         rdf:about="">
        <dc:format>image/svg+xml</dc:format>
        <dc:type
           rdf:resource="http://purl.org/dc/dcmitype/StillImage" />
        <dc:title></dc:title>
      </cc:Work>
    </rdf:RDF>
  </metadata>
  <g
     inkscape:label="Layer 1"
     inkscape:groupmode="layer"
     id="layer1"
     transform="translate(319.11717,-105.28114)">
    <g
       aria-label="𓀉"
       style="font-style:normal;font-variant:normal;font-weight:normal;font-stretch:normal;font-size:50.79999924px;line-height:1.25;font-family:sans-serif;-inkscape-font-specification:sans-serif;font-variant-ligatures:normal;font-variant-caps:normal;font-variant-numeric:normal;font-feature-settings:normal;text-align:start;letter-spacing:0px;word-spacing:0px;writing-mode:lr-tb;text-anchor:start;fill:#000000;fill-opacity:1;stroke:none;stroke-width:0.26458332"
       id="text5105" />
    <g
       aria-label="𓀆"
       transform="matrix(0.26458333,0,0,0.26458333,-199.96101,81.431167)"
       style="font-style:normal;font-variant:normal;font-weight:normal;font-stretch:normal;font-size:192px;line-height:1.25;font-family:sans-serif;-inkscape-font-specification:sans-serif;font-variant-ligatures:normal;font-variant-caps:normal;font-variant-numeric:normal;font-feature-settings:normal;text-align:start;letter-spacing:0px;word-spacing:0px;writing-mode:lr-tb;text-anchor:start;fill:#000000;fill-opacity:1;stroke:none"
       id="flowRoot5135" />
    <g
       aria-label="𓀸"
       transform="matrix(0.26458333,0,0,0.26458333,-247.78612,-5.3460678)"
       style="font-style:normal;font-variant:normal;font-weight:normal;font-stretch:normal;font-size:192px;line-height:1.25;font-family:sans-serif;-inkscape-font-specification:sans-serif;font-variant-ligatures:normal;font-variant-caps:normal;font-variant-numeric:normal;font-feature-settings:normal;text-align:start;letter-spacing:0px;word-spacing:0px;writing-mode:lr-tb;text-anchor:start;fill:#000000;fill-opacity:1;stroke:none"
       id="flowRoot5388">
      <path
         d="m -256.84766,478.96234 q -6.75,2.71875 -12.75,7.78125 1.6875,-3.65625 5.0625,-6.46875 3.375,-2.90625 8.71875,-4.59375 -6.09375,-16.21875 -6.09375,-24.375 0,-8.53125 6.84375,-8.53125 v 3 q -1.59375,0 -2.71875,1.03125 -1.125,1.03125 -1.125,4.125 0,4.03125 1.59375,10.125 1.59375,6.09375 4.40625,13.125 5.53125,-7.3125 10.78125,-11.8125 5.34375,-4.5 9,-4.5 2.25,0 3.9375,1.875 1.78125,1.875 1.78125,4.21875 0,4.3125 -6.75,6.9375 -6.65625,2.625 -9.84375,3.65625 l -7.875,2.71875 q 1.125,2.71875 2.25,4.875 1.125,2.15625 3,5.4375 h 3 q 6.75,0 8.53125,1.5 1.78125,1.5 4.96875,4.3125 3.1875,2.71875 11.90625,13.3125 l 9.09375,11.25 q 1.6875,2.15625 1.96875,2.625 3,-10.875 6.1875,-21.5625 3.1875,-10.78125 5.34375,-21.84375 l 1.875,-9.75 q 0.375,-2.4375 0.5625,-4.78125 0.28125,-2.34375 0.28125,-4.21875 0,-2.4375 -2.4375,-3.9375 -2.34375,-1.59375 -4.6875,-2.15625 l -3.46875,-0.9375 v 4.21875 h -3.46875 l 1.59375,-4.59375 -0.5625,-0.75 q -0.28125,-0.28125 -0.5625,-0.75 v -4.875 q -1.03125,-0.5625 -2.0625,-1.03125 l -0.75,-2.15625 q 0.75,-1.40625 2.4375,-4.21875 1.78125,-2.8125 1.78125,-4.6875 v -1.21875 q 0,-4.78125 4.125,-9 4.125,-4.21875 13.03125,-4.21875 10.59375,0 16.6875,10.125 6.1875,10.03125 7.03125,28.5 l -0.5625,0.65625 q -0.28125,0.375 -0.5625,0.84375 l -3.65625,0.375 q -1.78125,0.1875 -3.5625,0.28125 4.21875,10.03125 6.28125,21.9375 2.15625,11.90625 2.15625,24.28125 0,12.28125 -2.15625,24 -2.0625,11.625 -6.5625,21.28125 4.21875,2.15625 8.53125,4.21875 l 8.53125,4.3125 -0.46875,1.3125 q -0.28125,0.65625 -0.46875,1.40625 h -86.15625 q -0.375,-0.5625 -0.65625,-1.125 l -0.5625,-1.125 q 2.53125,-5.625 3.84375,-11.15625 1.3125,-5.625 1.3125,-11.53125 0,-3.65625 -0.75,-8.34375 -0.65625,-4.78125 -2.0625,-8.71875 l -2.34375,-6.1875 q -1.21875,-3.09375 -2.0625,-6.1875 -0.84375,-3.09375 -0.84375,-6.46875 0,-1.40625 0.1875,-2.8125 0.1875,-1.40625 0.5625,-2.90625 l -2.0625,-0.28125 q -2.25,-0.1875 -3.65625,-1.03125 -1.3125,-0.9375 -1.40625,-2.53125 0,-1.6875 0.84375,-2.53125 0.84375,-0.84375 2.4375,-1.125 -1.21875,-1.6875 -2.15625,-3.46875 -0.84375,-1.875 -1.875,-4.3125 l -5.71875,7.6875 q -2.15625,3 -2.625,4.59375 0.28125,-6 5.625,-13.125 z m 89.625,-23.53125 q -1.03125,-16.59375 -6.28125,-25.5 -5.25,-8.90625 -13.875,-8.90625 -6.46875,0 -9.9375,2.15625 -3.375,2.15625 -4.3125,5.90625 l 4.96875,1.125 4.875,1.3125 q 1.21875,-0.9375 2.71875,-0.9375 1.59375,0 2.90625,1.3125 1.40625,1.3125 1.40625,3.28125 0,1.3125 -0.65625,2.4375 -0.5625,1.03125 -1.40625,2.0625 1.59375,9.75 4.40625,12.84375 2.90625,3.09375 7.5,3.375 1.875,0 3.75,-0.0937 1.96875,-0.0937 3.9375,-0.375 z m -8.90625,94.875 q 4.5,-9.9375 6.75,-21.75 2.25,-11.8125 2.25,-24.09375 0,-12.1875 -2.15625,-23.8125 -2.15625,-11.71875 -6.46875,-21.65625 l -14.15625,1.21875 q -0.84375,8.90625 -3,18.84375 -2.15625,9.84375 -4.96875,19.6875 l -3.65625,12.65625 -3.5625,12.9375 -2.71875,0.28125 q -12.46875,-15.75 -17.0625,-21.09375 -4.59375,-5.4375 -7.96875,-8.4375 h -10.40625 q -0.84375,2.8125 -0.84375,5.625 0,6.09375 4.125,16.03125 4.21875,9.84375 4.21875,20.34375 0,11.34375 -4.6875,21.5625 h 77.4375 l -12.375,-6.1875 z m -73.03125,-76.59375 q 8.34375,-2.90625 12.09375,-4.6875 3.84375,-1.78125 5.25,-2.53125 1.40625,-0.84375 1.40625,-2.25 0,-1.03125 -0.65625,-2.25 -0.65625,-1.21875 -2.15625,-1.21875 -3.28125,0 -9.46875,6.28125 -6.09375,6.28125 -6.46875,6.65625 z m -1.3125,17.25 q 0,0.65625 1.40625,0.9375 1.5,0.1875 2.90625,0.1875 10.03125,0 8.53125,-0.84375 -1.5,-0.84375 -10.125,-0.84375 -0.9375,0 -1.875,0.0937 -0.84375,0.0937 -0.84375,0.46875 z m 68.25,-34.40625 q -3,-1.96875 -4.875,-6 -1.78125,-4.03125 -2.8125,-11.0625 0.375,-0.9375 0.46875,-1.40625 0.65625,-0.5625 1.125,-1.40625 0.46875,-0.84375 0.46875,-1.59375 0,-0.5625 -0.375,-1.03125 -0.375,-0.46875 -1.3125,-0.5625 -0.46875,0 -1.21875,0.5625 l -0.75,0.5625 -10.5,-2.53125 q -0.375,3.46875 -1.78125,5.71875 -1.3125,2.25 -2.15625,3.75 0.46875,0.1875 0.84375,0.46875 0.46875,0.28125 0.9375,0.46875 l 0.65625,1.21875 v 4.6875 l 1.59375,0.28125 6.9375,2.25 q 2.4375,0.75 3.5625,2.4375 1.125,1.6875 1.40625,3.84375 z m -15.28125,-20.34375 q -1.6875,1.6875 -2.53125,1.6875 -0.84375,0 -0.84375,-1.6875 0,-1.6875 0.84375,-1.6875 2.53125,0 2.53125,1.6875 z"
         id="path5396"
         inkscape:connector-curvature="0" />
    </g>
  </g>
</svg>
