<?xml version="1.0" encoding="UTF-8" standalone="no"?>
<!-- Created with Inkscape (http://www.inkscape.org/) -->

<svg
   xmlns:dc="http://purl.org/dc/elements/1.1/"
   xmlns:cc="http://creativecommons.org/ns#"
   xmlns:rdf="http://www.w3.org/1999/02/22-rdf-syntax-ns#"
   xmlns:svg="http://www.w3.org/2000/svg"
   xmlns="http://www.w3.org/2000/svg"
   xmlns:sodipodi="http://sodipodi.sourceforge.net/DTD/sodipodi-0.dtd"
   xmlns:inkscape="http://www.inkscape.org/namespaces/inkscape"
   width="25.003126mm"
   height="38.124805mm"
   viewBox="0 0 25.003126 38.124805"
   version="1.1"
   id="svg17465"
   inkscape:version="0.92.4 (5da689c313, 2019-01-14)"
   sodipodi:docname="A48.svg">
  <defs
     id="defs17459" />
  <sodipodi:namedview
     id="base"
     pagecolor="#ffffff"
     bordercolor="#666666"
     borderopacity="1.0"
     inkscape:pageopacity="0.0"
     inkscape:pageshadow="2"
     inkscape:zoom="0.35"
     inkscape:cx="-363.25977"
     inkscape:cy="-351.90305"
     inkscape:document-units="mm"
     inkscape:current-layer="layer1"
     showgrid="false"
     fit-margin-top="0"
     fit-margin-left="0"
     fit-margin-right="0"
     fit-margin-bottom="0"
     inkscape:window-width="1920"
     inkscape:window-height="1017"
     inkscape:window-x="-8"
     inkscape:window-y="-8"
     inkscape:window-maximized="1" />
  <metadata
     id="metadata17462">
    <rdf:RDF>
      <cc:Work
         rdf:about="">
        <dc:format>image/svg+xml</dc:format>
        <dc:type
           rdf:resource="http://purl.org/dc/dcmitype/StillImage" />
        <dc:title></dc:title>
      </cc:Work>
    </rdf:RDF>
  </metadata>
  <g
     inkscape:label="Layer 1"
     inkscape:groupmode="layer"
     id="layer1"
     transform="translate(-8.7999796,-17.600848)">
    <g
       aria-label="𓀹"
       transform="scale(0.26458333)"
       style="font-style:normal;font-variant:normal;font-weight:normal;font-stretch:normal;font-size:192px;line-height:1.25;font-family:sans-serif;-inkscape-font-specification:'sans-serif, Normal';font-variant-ligatures:normal;font-variant-caps:normal;font-variant-numeric:normal;font-feature-settings:normal;text-align:start;letter-spacing:0px;word-spacing:0px;writing-mode:lr-tb;text-anchor:start;fill:#000000;fill-opacity:1;stroke:none"
       id="flowRoot18010">
      <path
         d="m 34.853516,95.39789 11.8125,39.46875 q 5.90625,0.28125 9.84375,3.09375 3.9375,2.8125 6.75,7.78125 5.0625,1.875 9.75,6.375 4.78125,4.40625 8.25,9.1875 l 5.625,7.5 q 0,1.21875 1.875,-23.625 1.96875,-24.84375 12.843754,-38.15625 0,-3 -1.03125,-4.125 -0.937504,-1.125 -3.562504,-1.6875 l -3.09375,-0.75 q -1.59375,-0.375 -3.1875,-0.65625 l -1.40625,-1.21875 q -0.1875,-1.78125 -0.5625,-3.5625 -0.375,-1.875 -1.96875,-2.8125 l -0.75,-2.15625 q 1.21875,-2.34375 3.46875,-10.78125 2.25,-8.4375 6.65625,-10.59375 4.406254,-2.15625 10.031254,-2.15625 9.5625,0 15.5625,8.25 6,8.25 6,18.9375 0,3.9375 -1.3125,7.40625 -1.3125,3.375 -4.875,5.53125 2.53125,7.96875 3.5625,15.5625 1.125,7.59375 1.125,15.375 0,13.59375 -2.90625,29.4375 -2.8125,15.84375 -2.8125,23.4375 0,4.6875 1.3125,8.8125 1.3125,4.03125 4.78125,8.34375 l -0.84375,3 H 51.541016 q -0.375,-0.5625 -0.65625,-1.125 l -0.5625,-1.125 q 2.53125,-5.25 4.125,-10.6875 1.59375,-5.4375 1.59375,-11.0625 0,-7.59375 -4.125,-16.96875 -4.125,-9.46875 -4.125,-15.375 0,-1.59375 0.28125,-3.09375 0.28125,-1.5 1.03125,-2.90625 -2.53125,-0.46875 -4.3125,-1.96875 -1.78125,-1.5 -2.25,-4.3125 l -2.71875,-0.75 -0.75,-2.15625 q 1.5,-2.90625 3.9375,-3.75 -4.78125,-7.03125 -7.3125,-14.53125 -2.4375,-7.59375 -2.4375,-15 0,-5.0625 1.59375,-10.40625 z m 69.093754,13.6875 q -10.312504,11.71875 -12.375004,37.21875 -1.96875,25.5 -2.0625,26.4375 l -2.8125,0.75 -4.3125,-5.90625 q -7.875,-10.875 -14.0625,-15.46875 -6.09375,-4.6875 -12,-4.6875 -1.96875,0 -3.65625,0.65625 -1.875,2.4375 -1.875,6.09375 0,5.53125 4.03125,14.8125 4.125,9.1875 4.125,17.90625 0,5.34375 -1.3125,10.59375 -1.21875,5.15625 -3.65625,10.125 h 68.812504 q -3,-4.3125 -4.21875,-8.25 -1.125,-4.03125 -1.125,-8.625 0,-7.5 2.8125,-23.25 2.90625,-15.84375 2.90625,-29.53125 0,-7.59375 -1.03125,-15 -1.03125,-7.40625 -3.46875,-15.375 z m 3.84375,-20.71875 q 1.59375,9.375 4.3125,12.5625 2.8125,3.1875 7.3125,3.5625 3.09375,-1.96875 4.21875,-4.59375 1.21875,-2.71875 1.21875,-6 0,-10.5 -5.15625,-17.34375 -5.15625,-6.9375 -13.5,-6.9375 -5.25,0 -8.625004,1.6875 -3.28125,1.6875 -4.6875,7.21875 l 9.656254,0.9375 q 1.5,-1.5 3.5625,-1.5 1.875,0 3,1.40625 1.125,1.40625 1.125,3.28125 0,1.59375 -0.75,3.1875 -0.65625,1.5 -1.6875,2.53125 z m -15.562504,-6.9375 q -1.5,5.625 -3,8.8125 1.59375,1.3125 2.15625,3.1875 0.65625,1.78125 0.84375,3.65625 0.28125,0 6,1.21875 5.812504,1.125 6.468754,7.59375 l 7.78125,-0.65625 q -3,-2.0625 -4.875,-6 -1.875,-4.03125 -2.90625,-11.15625 0.375,-0.9375 0.46875,-1.40625 0.75,-0.75 1.40625,-1.875 0.65625,-1.125 0.65625,-2.15625 0,-0.65625 -0.375,-1.125 -0.28125,-0.5625 -1.21875,-0.5625 -0.75,0 -0.9375,0.5625 l -1.5,1.03125 q -2.71875,-0.28125 -5.531254,-0.46875 -2.71875,-0.28125 -5.4375,-0.65625 z m -48.09375,56.53125 q -0.75,0.375 -1.3125,1.03125 l 0.75,0.1875 0.75,0.28125 1.125,1.40625 q 0,2.53125 1.6875,3.5625 1.78125,1.03125 4.125,1.03125 2.4375,-1.03125 4.96875,-1.03125 1.5,0 2.90625,0.28125 -2.15625,-3.28125 -5.34375,-4.96875 -3.09375,-1.6875 -6.9375,-1.875 z m 50.90625,-54.84375 q 1.5,0.5625 2.53125,1.59375 -1.125,1.125 -2.53125,1.6875 l -0.9375,-1.59375 z"
         id="path18018"
         inkscape:connector-curvature="0" />
    </g>
  </g>
</svg>
