<?xml version="1.0" encoding="UTF-8" standalone="no"?>
<!-- Created with Inkscape (http://www.inkscape.org/) -->

<svg
   xmlns:dc="http://purl.org/dc/elements/1.1/"
   xmlns:cc="http://creativecommons.org/ns#"
   xmlns:rdf="http://www.w3.org/1999/02/22-rdf-syntax-ns#"
   xmlns:svg="http://www.w3.org/2000/svg"
   xmlns="http://www.w3.org/2000/svg"
   xmlns:sodipodi="http://sodipodi.sourceforge.net/DTD/sodipodi-0.dtd"
   xmlns:inkscape="http://www.inkscape.org/namespaces/inkscape"
   width="66.088623mm"
   height="100.01368mm"
   viewBox="0 0 66.088623 100.01368"
   version="1.1"
   id="svg18027"
   inkscape:version="0.92.4 (5da689c313, 2019-01-14)"
   sodipodi:docname="A49.svg">
  <defs
     id="defs18021" />
  <sodipodi:namedview
     id="base"
     pagecolor="#ffffff"
     bordercolor="#666666"
     borderopacity="1.0"
     inkscape:pageopacity="0.0"
     inkscape:pageshadow="2"
     inkscape:zoom="0.35"
     inkscape:cx="-342.99457"
     inkscape:cy="-160.47447"
     inkscape:document-units="mm"
     inkscape:current-layer="layer1"
     showgrid="false"
     fit-margin-top="0"
     fit-margin-left="0"
     fit-margin-right="0"
     fit-margin-bottom="0"
     inkscape:window-width="1920"
     inkscape:window-height="1017"
     inkscape:window-x="-8"
     inkscape:window-y="-8"
     inkscape:window-maximized="1" />
  <metadata
     id="metadata18024">
    <rdf:RDF>
      <cc:Work
         rdf:about="">
        <dc:format>image/svg+xml</dc:format>
        <dc:type
           rdf:resource="http://purl.org/dc/dcmitype/StillImage" />
        <dc:title></dc:title>
      </cc:Work>
    </rdf:RDF>
  </metadata>
  <g
     inkscape:label="Layer 1"
     inkscape:groupmode="layer"
     id="layer1"
     transform="translate(-3.4381461,-6.3607814)">
    <g
       aria-label="𓀺"
       transform="matrix(0.69589863,0,0,0.69589863,123.4494,-26.275396)"
       style="font-style:normal;font-variant:normal;font-weight:normal;font-stretch:normal;font-size:192px;line-height:1.25;font-family:sans-serif;-inkscape-font-specification:'sans-serif, Normal';font-variant-ligatures:normal;font-variant-caps:normal;font-variant-numeric:normal;font-feature-settings:normal;text-align:start;letter-spacing:0px;word-spacing:0px;writing-mode:lr-tb;text-anchor:start;fill:#000000;fill-opacity:1;stroke:none"
       id="flowRoot18572">
      <path
         d="m -146.58008,125.55414 q 8.53125,2.15625 16.6875,12.46875 8.15625,10.21875 8.71875,10.96875 l 1.96875,-20.4375 q 1.96875,-19.40625 5.15625,-27.5625 3.1875,-8.25 7.6875,-13.78125 0,-4.59375 -5.15625,-5.34375 -5.0625,-0.75 -6.09375,-1.21875 -0.1875,0.375 -0.46875,1.03125 -0.1875,0.5625 -0.375,1.21875 l -0.5625,1.5 h -3 l 2.0625,-5.90625 v -4.875 l -2.15625,-1.03125 -0.75,-2.15625 q 1.21875,-2.4375 2.53125,-4.3125 1.40625,-1.875 1.6875,-5.4375 0.375,-3.65625 2.25,-6.9375 1.875,-3.375 5.90625,-5.0625 4.125,-1.78125 8.53125,-1.78125 11.812502,0 18.093752,13.59375 6.375,13.59375 6.375,36.46875 0,5.53125 -1.40625,8.25 -1.3125,2.625 -3.9375,2.8125 0.5625,7.78125 0.5625,15.28125 v 17.0625 q 0,4.875 -2.71875,15.5625 -2.625,10.6875 -2.625,16.125 0,4.3125 1.125,7.59375 1.21875,3.1875 2.90625,5.34375 l 1.96875,2.625 -0.75,3 h -74.062502 q -0.375,-0.5625 -0.65625,-1.125 l -0.5625,-1.125 q 2.53125,-5.53125 4.21875,-11.34375 1.6875,-5.8125 1.6875,-11.8125 0,-3.5625 -0.75,-7.03125 -0.65625,-3.5625 -1.875,-6.65625 l -2.15625,-5.71875 q -1.125,-2.71875 -1.96875,-5.4375 -0.75,-2.71875 -0.75,-5.8125 0,-3.5625 1.3125,-7.40625 -5.90625,-0.65625 -5.90625,-6.09375 -3.65625,0 -3.65625,-1.125 0,-1.5 3.65625,-3.375 -3.75,-8.53125 -6.1875,-15.84375 -2.4375,-7.40625 -2.4375,-13.03125 0,-4.875 0.9375,-7.59375 1.03125,-2.8125 3.09375,-4.40625 l 2.34375,3.09375 q -3.1875,3.09375 -3.1875,9 0,8.15625 9,28.78125 3.65625,0.375 9.5625,3 2.0625,2.53125 4.125,6 z m 43.21875,-39.375 11.531252,-1.03125 q -3.75,-3.46875 -7.125,-7.5 -3.375002,-4.03125 -4.406252,-9.1875 0.375,-0.9375 0.46875,-1.40625 3.843752,-4.3125 -2.25,-6.46875 h -10.40625 l -0.28125,1.78125 q -0.46875,2.8125 -1.6875,4.6875 -1.125,1.875 -1.96875,3.46875 l 0.9375,0.375 0.9375,0.5625 0.65625,1.21875 v 4.78125 q 0.46875,0.375 1.3125,0.5625 l 1.78125,0.375 q 1.03125,0.1875 5.53125,0.9375 4.5,0.75 4.96875,6.84375 z m 16.500002,-0.28125 q 1.96875,6.375 2.90625,11.8125 0.9375,5.4375 1.59375,7.21875 l 0.09375,-0.0937 q 1.125,-1.125 1.5,-3.1875 0.375,-2.15625 0.375,-4.3125 0,-20.53125 -5.25,-33.9375 -5.25,-13.5 -15.187502,-13.5 -5.25,0 -9.46875,2.15625 -4.125,2.15625 -4.78125,5.71875 h 10.96875 q 2.34375,0.28125 4.312502,1.6875 2.0625,1.3125 2.0625,3.84375 0,2.53125 -2.531252,5.34375 0.750002,4.875 6.843752,10.875 6.09375,5.90625 6.5625,6.375 z m -2.4375,2.0625 -7.40625,0.5625 -7.500002,0.75 q -3.84375,4.78125 -6.9375,12.28125 -3,7.5 -5.0625,27.28125 l -2.34375,24 -2.53125,1.125 -5.8125,-7.3125 -7.21875,-8.8125 q -4.125,-4.96875 -8.4375,-7.5 -4.21875,-2.53125 -8.625,-2.53125 -1.96875,0 -4.03125,0.5625 -0.46875,1.59375 -0.75,3.09375 -0.1875,1.5 -0.1875,2.90625 0,5.625 3.75,14.4375 3.75,8.71875 3.75,16.5 0,5.8125 -1.5,11.53125 -1.5,5.71875 -3.84375,10.78125 h 68.531252 q -3,-4.03125 -4.125,-7.6875 -1.03125,-3.75 -1.03125,-7.96875 0,-3.75 0.75,-7.5 0.75,-3.75 1.6875,-7.5 l 1.78125,-7.5 q 0.65625,-2.8125 0.9375,-5.71875 0.375,-3 0.375,-6.1875 v -9.65625 q 0,-10.3125 -0.75,-20.4375 -0.65625,-10.125 -3.46875,-19.5 z m -65.625002,37.3125 q 0.5625,0 1.03125,-0.0937 l 0.9375,-0.1875 h 0.84375 l 1.03125,0.0937 h 0.75 l -2.15625,-3.1875 q -2.4375,-1.03125 -5.15625,-1.78125 -2.71875,-0.84375 -3.9375,-0.84375 l 0.46875,1.40625 q 0.75,2.34375 2.0625,3.1875 1.3125,0.84375 4.125,1.40625 z m 45.46875,-60.09375 q -1.6875,1.6875 -2.53125,1.6875 -0.84375,0 -0.84375,-1.6875 0,-1.6875 0.84375,-1.6875 0.84375,0 2.53125,1.6875 z"
         id="path18580"
         inkscape:connector-curvature="0" />
    </g>
  </g>
</svg>
