<?xml version="1.0" encoding="UTF-8" standalone="no"?>
<!-- Created with Inkscape (http://www.inkscape.org/) -->

<svg
   xmlns:dc="http://purl.org/dc/elements/1.1/"
   xmlns:cc="http://creativecommons.org/ns#"
   xmlns:rdf="http://www.w3.org/1999/02/22-rdf-syntax-ns#"
   xmlns:svg="http://www.w3.org/2000/svg"
   xmlns="http://www.w3.org/2000/svg"
   xmlns:sodipodi="http://sodipodi.sourceforge.net/DTD/sodipodi-0.dtd"
   xmlns:inkscape="http://www.inkscape.org/namespaces/inkscape"
   width="28.426172mm"
   height="38.0256mm"
   viewBox="0 0 28.426172 38.0256"
   version="1.1"
   id="svg4535"
   inkscape:version="0.92.4 (5da689c313, 2019-01-14)"
   sodipodi:docname="A5.svg">
  <defs
     id="defs4529" />
  <sodipodi:namedview
     id="base"
     pagecolor="#ffffff"
     bordercolor="#666666"
     borderopacity="1.0"
     inkscape:pageopacity="0.0"
     inkscape:pageshadow="2"
     inkscape:zoom="0.35"
     inkscape:cx="-374.68755"
     inkscape:cy="-383.23837"
     inkscape:document-units="mm"
     inkscape:current-layer="layer1"
     showgrid="false"
     fit-margin-top="0"
     fit-margin-left="0"
     fit-margin-right="0"
     fit-margin-bottom="0"
     inkscape:window-width="1920"
     inkscape:window-height="1017"
     inkscape:window-x="-8"
     inkscape:window-y="-8"
     inkscape:window-maximized="1" />
  <metadata
     id="metadata4532">
    <rdf:RDF>
      <cc:Work
         rdf:about="">
        <dc:format>image/svg+xml</dc:format>
        <dc:type
           rdf:resource="http://purl.org/dc/dcmitype/StillImage" />
        <dc:title></dc:title>
      </cc:Work>
    </rdf:RDF>
  </metadata>
  <g
     inkscape:label="Layer 1"
     inkscape:groupmode="layer"
     id="layer1"
     transform="translate(-11.82358,-9.4092473)">
    <g
       aria-label="𓀄"
       transform="matrix(0.26458333,0,0,0.26458333,216.95833,-1.5119048)"
       style="font-style:normal;font-variant:normal;font-weight:normal;font-stretch:normal;font-size:192px;line-height:1.25;font-family:sans-serif;-inkscape-font-specification:'sans-serif, Normal';font-variant-ligatures:normal;font-variant-caps:normal;font-variant-numeric:normal;font-feature-settings:normal;text-align:start;letter-spacing:0px;word-spacing:0px;writing-mode:lr-tb;text-anchor:start;fill:#000000;fill-opacity:1;stroke:none"
       id="flowRoot5080">
      <path
         d="m -773.90625,41.276796 h 46.875 l 0.75,0.75 q 0.375,0.375 0.84375,0.75 v 4.59375 h 27.09375 l 0.75,0.75 q 0.375,0.375 0.84375,0.75 v 6 q -0.46875,0.375 -0.84375,0.75 l -0.75,0.75 h -61.875 v 22.40625 q 0.75,-0.46875 1.40625,-0.75 0.75,-0.375 2.0625,-0.5625 3.375,0 6.75,4.96875 3.375,4.875 3.375,8.25 l 0.75,1.03125 q 3,4.21875 6.09375,8.0625 3.09375,3.843754 7.03125,7.125004 2.4375,-4.3125 5.0625,-8.250004 2.71875,-4.03125 5.71875,-7.96875 l -6.5625,0.375 q -2.25,0 -3.65625,-0.9375 -1.40625,-1.03125 -1.40625,-2.625 0,-0.75 -0.0937,-1.5 l -2.90625,-0.9375 -0.46875,-0.84375 q -0.28125,-0.375 -0.46875,-0.84375 0,-2.34375 1.21875,-3.9375 1.3125,-1.6875 2.34375,-3.75 l 0.75,-3 q 1.125,-4.78125 4.78125,-7.6875 3.75,-3 8.4375,-3 6.09375,0 10.3125,4.3125 4.3125,4.21875 4.3125,10.59375 0,2.71875 -0.5625,5.53125 -0.46875,2.71875 -1.21875,5.34375 3.46875,3.75 6.28125,7.78125 2.90625,4.03125 5.53125,8.062504 l 5.25,8.15625 q 4.78125,7.5 13.5,17.15625 8.71875,9.65625 8.71875,18.65625 0,4.5 -2.34375,8.0625 -2.34375,3.46875 -6.9375,5.0625 -4.59375,1.5 -5.90625,1.5 -0.5625,0 -0.65625,-0.0937 -1.40625,-0.375 -3.5625,-1.5 -2.15625,-1.21875 -5.25,-3.09375 l -2.625,-1.6875 q -4.3125,-2.8125 -8.0625,-5.34375 -3.65625,-2.625 -8.15625,-4.59375 2.71875,5.625 4.21875,11.25 l 3.375,13.03125 0.28125,2.0625 q 0.5625,3.375 1.78125,5.34375 1.21875,1.96875 1.21875,3.1875 0,1.59375 -1.6875,2.71875 -1.59375,1.21875 -3.75,1.21875 -0.84375,0 -1.78125,-0.28125 -0.84375,-0.1875 -1.59375,-0.75 -0.5625,0 -4.5,0.65625 -3.84375,0.65625 -6,0.65625 -1.6875,0 -3.5625,-0.84375 -1.875,-0.84375 -2.0625,-1.96875 l 1.40625,-1.78125 q 0.46875,0 5.90625,-0.84375 5.4375,-0.84375 7.6875,-4.03125 -2.15625,-6.84375 -4.59375,-13.40625 -2.34375,-6.65625 -5.34375,-13.125 l -1.3125,6.28125 -2.34375,10.3125 -2.90625,11.90625 v 0.28125 q 0,0.46875 0.28125,0.84375 l 0.375,0.84375 q 0.375,0.84375 0.375,2.0625 0,1.5 -0.9375,2.4375 -0.9375,0.9375 -2.90625,0.9375 -2.15625,0 -4.03125,-0.46875 -1.875,-0.375 -2.8125,-1.03125 l -9.84375,1.5 -1.03125,-0.0937 q -0.75,0 -1.6875,-0.375 -0.84375,-0.28125 -1.3125,-0.84375 l -0.375,-0.65625 q -0.28125,-0.28125 -0.28125,-0.75 0.1875,-0.65625 0.65625,-1.03125 l 0.75,-0.75 3.28125,-0.75 q 3.09375,-0.5625 6.65625,-1.78125 3.65625,-1.21875 5.25,-2.53125 l 2.8125,-22.6875 0.9375,-6.65625 q 0.46875,-3.375 0.84375,-6.75 l -0.28125,-4.5 q 0,-2.625 2.625,-4.3125 2.625,-1.78125 5.625,-1.78125 0.5625,0 1.21875,0.0937 l 1.96875,0.28125 3.375,0.75 5.71875,1.40625 q 3.46875,1.125 6.84375,2.53125 3.375,1.3125 6.65625,2.90625 -2.4375,-5.625 -6.28125,-11.0625 -3.84375,-5.4375 -9.46875,-11.8125 l -6.1875,-6.9375 q -4.3125,2.71875 -9.46875,8.25 -5.15625,5.4375 -7.21875,7.3125 h -1.125 l -1.125,0.1875 q -3.75,-2.71875 -8.34375,-8.0625 -4.59375,-5.34375 -7.78125,-8.15625 -1.40625,0 -3.84375,-1.6875 -2.4375,-1.6875 -3.1875,-3.65625 v 17.4375 q -0.46875,0.375 -0.84375,0.75 l -0.75,0.75 h -6 l -1.40625,-1.78125 V 91.151796 h -4.6875 l -1.40625,-1.78125 v -46.3125 z m 1.59375,3 v 43.875 h 4.5 l 0.75,0.75 q 0.375,0.375 0.84375,0.75 v 27.281254 h 3 V 55.151796 l 1.40625,-1.78125 h 62.0625 v -3 h -27.28125 l -1.40625,-1.78125 v -4.3125 z m 53.4375,87.656254 q 0,0.1875 0.1875,0.1875 l 0.1875,0.1875 q 1.59375,1.875 2.625,4.40625 1.03125,2.4375 2.15625,4.78125 4.21875,1.875 7.96875,4.125 3.75,2.25 7.6875,4.6875 l 7.3125,4.78125 q 3.65625,2.4375 7.6875,4.03125 l 3.65625,-0.9375 q 4.59375,-1.21875 6.5625,-3.84375 1.96875,-2.625 1.96875,-6.28125 0,-3.65625 -1.875,-7.875 -1.78125,-4.3125 -4.40625,-7.40625 l -7.21875,-8.0625 q -0.375,-0.28125 -0.75,-0.84375 l -1.40625,-1.78125 -9.84375,7.3125 q 2.8125,4.96875 4.125,9.65625 l -1.96875,1.875 -2.34375,-1.125 q -5.34375,-2.53125 -10.875,-4.78125 -5.53125,-2.34375 -11.4375,-3.09375 z m -10.59375,-61.218754 4.78125,1.96875 q 1.03125,-1.6875 2.71875,-1.6875 1.59375,0 3,1.5 1.5,1.40625 1.5,4.21875 0,1.03125 -0.75,2.0625 -0.75,1.03125 -1.78125,1.21875 0,1.21875 0.28125,2.625 0.46875,0.46875 1.5,0.9375 l 3.5625,1.6875 4.78125,1.03125 q 0.5625,-2.25 1.03125,-4.6875 0.5625,-2.4375 0.5625,-4.78125 0,-4.6875 -3.46875,-8.34375 -3.375,-3.75 -7.96875,-3.75 -3,0 -5.53125,1.59375 -2.4375,1.5 -4.21875,4.40625 z m 12.28125,70.218754 -1.3125,-3 q -1.3125,-2.625 -2.90625,-4.125 -1.5,-1.5 -3.5625,-1.78125 -0.75,0.46875 -1.3125,1.03125 -0.5625,0.5625 -0.84375,1.3125 l 0.28125,4.125 -4.40625,34.78125 -0.0937,1.5 q -0.1875,2.34375 -1.78125,3.46875 -1.59375,1.03125 -5.0625,2.15625 l 0.9375,-0.0937 q 1.21875,0 2.625,0.84375 1.40625,0.75 5.53125,0.75 l 0.0937,-0.8438 q -0.1875,-0.75 -0.5625,-1.6875 -0.375,-0.9375 -0.375,-1.6875 0,-1.03125 0.28125,-2.53125 0.375,-1.59375 0.84375,-3.375 l 1.03125,-3.5625 q 0.65625,-2.53125 1.96875,-8.25 1.40625,-5.71875 3.375,-16.125 0,-0.28125 0.46875,-1.03125 0.46875,-0.75 0.65625,-0.84375 0.9375,-1.125 3.1875,-1.125 z m -1.96875,3 -0.1875,0.28125 q 3.65625,7.59375 6.5625,15.28125 2.90625,7.6875 5.34375,15.84375 l -0.1875,1.40625 q -1.5,2.0625 -3.28125,3.1875 -1.78125,1.125 -3.84375,1.78125 1.875,-0.1875 3.28125,-0.46875 1.40625,-0.28125 2.0625,-0.65625 l 0.84375,0.1875 q 0.375,0 0.84375,0.28125 0.65625,0.84375 2.25,0.84375 l 1.03125,-0.5625 q 0.46875,-0.28125 0.9375,-0.75 l -1.3125,-2.15625 q -0.5625,-0.9375 -2.53125,-9.46875 -1.875,-8.625 -3.75,-14.15625 -1.78125,-5.625 -4.6875,-10.6875 z m -12.75,-66.281254 q -0.75,0.9375 -1.59375,2.4375 -0.84375,1.40625 -0.9375,2.53125 l 1.3125,0.375 1.3125,0.5625 1.125,1.40625 0.1875,2.71875 q 0.375,0.375 1.6875,0.375 1.59375,0 2.90625,-0.1875 1.3125,-0.28125 2.4375,-0.28125 0.84375,0 1.6875,0.09375 0.9375,0.09375 1.78125,0.28125 l 1.3125,-1.3125 q -0.75,-0.375 -1.6875,-1.03125 l -1.78125,-1.125 q -0.28125,-0.84375 -0.46875,-1.59375 -0.1875,-0.75 -0.1875,-1.78125 0,-2.15625 1.125,-3.09375 1.125,-1.03125 1.21875,-1.125 l 0.0937,-0.1875 q 0,-0.65625 -0.28125,-1.40625 -0.28125,-0.84375 -1.03125,-1.40625 l -0.84375,1.125 q -0.28125,0.1875 -0.9375,0.46875 -0.5625,0.1875 -1.03125,0.46875 -0.46875,0 -1.3125,-0.375 l -1.78125,-0.65625 q -1.03125,-0.28125 -1.875,-0.65625 l -1.21875,-0.5625 z m -13.3125,21.65625 q 2.0625,3.281254 4.125,6.656254 2.0625,3.375 4.96875,6 l 1.78125,-2.4375 q -2.25,-1.875 -5.0625,-4.96875 -2.71875,-3.09375 -7.03125,-8.718754 l -3,-3.9375 q -0.46875,-0.65625 -0.46875,-1.875 0,-2.15625 -2.15625,-5.4375 -2.0625,-3.375 -5.15625,-4.03125 2.34375,1.3125 4.03125,3.09375 1.6875,1.78125 2.0625,4.5 l -0.65625,1.21875 q -0.46875,0.1875 -0.9375,0.46875 -0.375,0.1875 -0.75,0.28125 0.75,0.46875 1.59375,0.84375 l 1.6875,0.9375 1.03125,1.5 3.09375,4.78125 q 0.65625,1.03125 0.84375,1.125 z m -6.65625,-5.4375 q -2.0625,-0.9375 -4.78125,-2.71875 -2.625,-1.78125 -3.5625,-3.65625 v 4.78125 q 0.1875,0 0.84375,-0.5625 2.71875,0.1875 5.34375,1.78125 2.625,1.59375 4.03125,3.1875 z m -6.28125,1.875 q 1.40625,0.1875 2.625,1.125 1.3125,0.84375 2.0625,1.6875 l 0.46875,0.65625 0.84375,2.531254 q -1.59375,0 -2.4375,-0.1875 -0.84375,-0.28125 -2.34375,-1.21875 1.875,2.8125 5.15625,3.28125 l 0.28125,0.1875 q 0.46875,0.46875 1.03125,0.9375 l 0.75,0.65625 q 3.5625,3.28125 6.5625,7.21875 3.09375,3.84375 7.03125,6.84375 1.96875,-1.875 7.40625,-7.5 5.4375,-5.71875 10.3125,-8.53125 0.46875,0.1875 0.9375,0.28125 l 0.84375,0.1875 q 4.5,5.34375 9.5625,10.96875 5.15625,5.625 9.09375,11.90625 l 9.5625,-7.125 q -2.53125,-3.28125 -8.25,-12.84375 -5.71875,-9.562504 -13.03125,-17.343754 -1.21875,-0.46875 -2.25,-0.75 -1.03125,-0.375 -2.0625,-0.5625 -2.15625,0 -3.5625,1.78125 -1.40625,1.6875 -4.03125,5.4375 -2.625,3.65625 -4.96875,7.312504 l -7.96875,12.375 -1.78125,0.46875 q -4.96875,-2.15625 -9.5625,-7.5 -4.59375,-5.4375 -4.96875,-6.1875 l -1.125,-3.093754 q -1.5,-2.15625 -2.8125,-2.90625 -1.21875,-0.84375 -3.65625,-1.03125 l -0.1875,0.46875 z m 3.65625,-8.8125 q -0.75,-1.6875 -2.34375,-2.8125 -1.59375,-1.125 -3.375,-1.78125 v 2.25 l 0.46875,-0.5625 0.9375,-0.375 q 1.59375,0 2.4375,1.21875 0.84375,1.21875 1.875,2.0625 z m 10.21875,19.406254 -0.84375,-1.59375 -1.59375,-2.625 -1.59375,-2.531254 -1.03125,-1.5 1.03125,2.906254 z M -726,78.495546 q -0.75,0.46875 -1.6875,0.75 -0.9375,0.28125 -1.40625,0.28125 -0.9375,0 -0.9375,-0.9375 0,-1.96875 1.21875,-1.96875 0.9375,0 2.8125,1.875 z"
         id="path5088"
         inkscape:connector-curvature="0" />
    </g>
  </g>
</svg>
