<?xml version="1.0" encoding="UTF-8" standalone="no"?>
<!-- Created with Inkscape (http://www.inkscape.org/) -->

<svg
   xmlns:dc="http://purl.org/dc/elements/1.1/"
   xmlns:cc="http://creativecommons.org/ns#"
   xmlns:rdf="http://www.w3.org/1999/02/22-rdf-syntax-ns#"
   xmlns:svg="http://www.w3.org/2000/svg"
   xmlns="http://www.w3.org/2000/svg"
   xmlns:sodipodi="http://sodipodi.sourceforge.net/DTD/sodipodi-0.dtd"
   xmlns:inkscape="http://www.inkscape.org/namespaces/inkscape"
   width="27.657227mm"
   height="38.124802mm"
   viewBox="0 0 27.657227 38.124802"
   version="1.1"
   id="svg8"
   inkscape:version="0.92.4 (5da689c313, 2019-01-14)"
   sodipodi:docname="A50.svg">
  <defs
     id="defs2" />
  <sodipodi:namedview
     id="base"
     pagecolor="#ffffff"
     bordercolor="#666666"
     borderopacity="1.0"
     inkscape:pageopacity="0.0"
     inkscape:pageshadow="2"
     inkscape:zoom="0.35"
     inkscape:cx="-323.25893"
     inkscape:cy="-344.21429"
     inkscape:document-units="mm"
     inkscape:current-layer="layer1"
     showgrid="false"
     fit-margin-top="0"
     fit-margin-left="0"
     fit-margin-right="0"
     fit-margin-bottom="0"
     inkscape:window-width="1920"
     inkscape:window-height="1017"
     inkscape:window-x="-8"
     inkscape:window-y="-8"
     inkscape:window-maximized="1" />
  <metadata
     id="metadata5">
    <rdf:RDF>
      <cc:Work
         rdf:about="">
        <dc:format>image/svg+xml</dc:format>
        <dc:type
           rdf:resource="http://purl.org/dc/dcmitype/StillImage" />
        <dc:title></dc:title>
      </cc:Work>
    </rdf:RDF>
  </metadata>
  <g
     inkscape:label="Layer 1"
     inkscape:groupmode="layer"
     id="layer1"
     transform="translate(1.7835748,-19.635169)">
    <g
       aria-label="𓀻"
       style="font-style:normal;font-variant:normal;font-weight:normal;font-stretch:normal;font-size:50.79999924px;line-height:1.25;font-family:sans-serif;-inkscape-font-specification:'sans-serif, Normal';font-variant-ligatures:normal;font-variant-caps:normal;font-variant-numeric:normal;font-feature-settings:normal;text-align:start;letter-spacing:0px;word-spacing:0px;writing-mode:lr-tb;text-anchor:start;fill:#000000;fill-opacity:1;stroke:none;stroke-width:0.26458332"
       id="text4520">
      <path
         d="m 24.906269,25.637899 q 0,1.488282 -0.744141,2.80293 -0.719336,1.289844 -2.306836,1.909961 0.124023,0.942578 0.322461,1.860352 l 0.37207,1.835546 q 0.173633,0.942579 0.322461,1.885157 0.148828,0.917773 0.173633,1.860351 l 0.843359,0.148828 0.84336,0.198438 0.223242,0.124023 q 0.496094,0.868164 0.694531,1.686719 0.223242,0.79375 0.223242,1.5875 0,1.438672 -0.818554,3.96875 -0.818555,2.530078 -0.818555,4.167187 l 1.190625,2.356446 v 0.248046 q -0.446484,1.041797 -0.620117,2.108399 -0.173633,1.041797 -0.173633,2.182812 -0.124023,0.09922 -0.223242,0.198438 l -0.198438,0.198437 h -0.892968 l -0.372071,0.79375 h -0.818554 v -0.79375 H 20.615058 L 20.242987,56.49493 q 0.297657,-0.917773 0.620118,-1.53789 0.32246,-0.620117 0.967382,-0.620117 0.173633,0 0.595313,0.124023 0.198437,-0.79375 0.198437,-1.438672 0,-0.744141 -0.272851,-1.537891 -0.272852,-0.818554 -0.768946,-1.289843 -0.496093,-0.471289 -0.768945,-1.240235 -0.248047,-0.79375 -0.719336,-1.389062 -0.471289,-0.620117 -1.16582,-1.016992 h -8.904883 q -1.2650388,1.934765 -2.1083982,3.96875 -0.8433593,2.033984 -0.9177734,4.365625 0.4712891,0.644921 0.4712891,1.438671 0,0.570508 -0.322461,1.016993 -0.2976562,0.421679 -0.9673828,0.421679 h -7.2429686 l -0.5208984,-0.223242 -0.1984375,-0.570508 0.471289,-0.719336 Q -0.46892642,56.048446 0.30001888,55.850008 1.0689642,55.626766 1.8875189,55.428329 l 1.6371093,-0.396875 q 0.8929687,-1.389063 1.2154297,-3.050977 0.3224609,-1.661914 0.3224609,-4.489648 0,-2.827734 0.9425781,-4.440039 0.9673828,-1.637109 1.4882812,-2.00918 0.5457032,-0.396875 3.1749999,-0.843359 2.629297,-0.471289 5.208984,-0.471289 0.396875,-2.43086 0.84336,-4.688086 0.446484,-2.257227 1.066601,-5.283398 -0.471289,-0.719336 -0.74414,-0.917774 -0.272852,-0.198437 -0.967383,-0.347265 l -0.347266,1.066601 h -0.843359 l 0.496094,-1.16582 -0.148828,-0.07441 q -0.07442,-0.02481 -0.198438,-0.322461 -0.09922,-0.297656 -0.09922,-0.744141 v -0.272851 q 0,-0.148829 0.0248,-0.272852 l -0.496094,-0.272852 -0.124023,-0.223242 q -0.07441,-0.09922 -0.124024,-0.223242 0,-0.818555 0.595313,-1.736328 0.620117,-0.917773 0.520898,-1.413867 -0.07441,-0.496094 1.041797,-1.835547 1.116211,-1.364258 3.199805,-1.364258 2.356445,0 3.844726,1.810742 1.488282,1.810743 1.488282,4.191992 z m -3.125391,8.557618 -0.396875,-1.909961 q -0.198438,-0.942578 -0.322461,-1.909961 -0.744141,-0.372071 -1.16582,-0.992188 -0.42168,-0.620117 -0.42168,-1.289843 0,-0.520899 0.297656,-1.016993 0.297657,-0.496093 0.942578,-0.868164 0.198438,-0.471289 0.198438,-0.992187 0,-0.272852 -0.09922,-0.595313 -0.09922,-0.322461 -0.446484,-0.322461 -0.173633,0 -0.347266,0.198438 -0.173633,0.198437 -0.223242,0.496094 L 19.15158,25.16661 16.125408,23.157431 q -0.09922,0.37207 -0.272851,0.694531 l -0.322461,0.669727 q -0.173633,0.322461 -0.322461,0.644921 -0.124024,0.322461 -0.173633,0.669727 0.148828,0.07441 0.272852,0.173633 0.148828,0.07441 0.322461,0.148828 l 0.173632,0.322461 q -0.07441,0.37207 -0.07441,0.74414 l 0.02481,0.446485 q 1.364258,0.09922 2.083594,0.868164 0.74414,0.768945 0.74414,1.265039 -0.09922,0.744141 -0.669726,3.274219 -0.570508,2.505273 -1.289844,7.044531 -0.124023,0.09922 -0.223242,0.198437 l -0.198438,0.198438 q -2.108398,0 -4.142382,0.272851 -2.033985,0.272852 -4.0431644,0.868164 -0.9673828,0.992188 -1.5130859,2.158008 -0.5208985,1.141016 -0.5457032,2.257227 l -0.049609,0.694531 q 0,0.248047 -0.1488282,3.59668 -0.1240234,3.348632 -1.8107421,5.357812 l -0.4960938,0.124023 q -0.3720703,0.07441 -0.8929687,0.198438 L 0.27522249,56.643758 Q -0.32009,56.792587 -0.79137905,56.891805 l -0.0496094,0.07441 H 6.3027532 q 0.1984375,-0.0496 0.2976562,-0.198433 0.099219,-0.148828 0.099219,-0.520899 Q 6.5259953,55.70118 6.3523625,55.353915 6.1787297,54.981844 6.1787297,54.485751 q 0,-0.347266 0.049609,-0.669727 l 0.099219,-0.595312 q 0.3472656,-2.00918 1.1658202,-3.770313 0.8433594,-1.785937 1.9595703,-3.497461 l 1.9843748,-1.413867 q 0.768946,0 1.5875,0.02481 l 3.22461,0.148828 q 0.74414,0 1.389062,0.02481 2.083594,0 3.026172,-0.496094 0.942578,-0.520899 1.265039,-2.455664 0.322461,-1.934766 0.322461,-3.745508 0,-0.967383 -0.148828,-1.909961 -0.124024,-0.967383 -0.322461,-1.934765 z m 2.604492,4.663281 -0.669726,-0.148828 -0.669727,-0.09922 q -0.173633,4.564062 -1.265039,5.729883 -1.066602,1.141015 -4.117578,1.141015 -0.496094,0 -0.992188,-0.0248 l -2.75332,-0.148829 -2.282031,-0.04961 -0.719336,0.496094 h 8.036719 q 0.843359,0.148828 1.562695,1.016992 0.719336,0.843359 1.091406,1.885156 l 0.173633,0.496094 q 1.637109,1.761133 1.637109,3.894336 0,1.091406 -0.396875,2.058789 l -0.248047,0.09922 -0.272851,0.148828 -0.272852,-0.148828 q -0.148828,-0.07442 -0.297656,-0.124024 -0.173633,0 -0.396875,0.347266 -0.223242,0.322461 -0.322461,0.719336 v 0.0248 h 2.629297 q 0,-2.133203 0.768945,-3.993554 L 24.38537,51.831649 Q 24.087714,51.36036 23.765253,50.715438 23.467597,50.070516 23.442792,49.673641 V 49.40079 q 0,-1.116211 0.818555,-3.745508 0.818554,-2.629297 0.818554,-4.092773 0,-0.694532 -0.173632,-1.364258 Q 24.75744,39.50372 24.38537,38.858798 Z M 16.323847,22.363681 q 0.79375,0.545703 1.463476,0.967383 l 1.463477,0.967382 q 0.322461,-0.496093 0.595312,-0.644921 0.272852,-0.173633 0.520899,-0.173633 0.669726,0 0.992187,0.520898 0.347266,0.496094 0.347266,1.364258 0,1.265039 -0.719336,1.661914 -0.719336,0.37207 -0.719336,1.091406 0.04961,0.595313 0.347266,0.967383 0.297656,0.347266 0.79375,0.595312 1.686718,-0.669726 2.207617,-1.686718 0.520898,-1.016992 0.520898,-2.232422 0,-2.033984 -1.289844,-3.671094 -1.289843,-1.661914 -3.150195,-1.661914 -0.74414,0 -1.637109,0.322461 -0.892969,0.322461 -1.736328,1.612305 z m 0.694531,2.108398 q -0.446484,0.297656 -0.669727,0.297656 -0.223242,0 -0.223242,-0.297656 0,-0.297656 0.198438,-0.297656 0.248047,0 0.694531,0.297656 z"
         style="stroke-width:0.26458332"
         id="path4522"
         inkscape:connector-curvature="0" />
    </g>
  </g>
</svg>
