<?xml version="1.0" encoding="UTF-8" standalone="no"?>
<!-- Created with Inkscape (http://www.inkscape.org/) -->

<svg
   xmlns:dc="http://purl.org/dc/elements/1.1/"
   xmlns:cc="http://creativecommons.org/ns#"
   xmlns:rdf="http://www.w3.org/1999/02/22-rdf-syntax-ns#"
   xmlns:svg="http://www.w3.org/2000/svg"
   xmlns="http://www.w3.org/2000/svg"
   xmlns:sodipodi="http://sodipodi.sourceforge.net/DTD/sodipodi-0.dtd"
   xmlns:inkscape="http://www.inkscape.org/namespaces/inkscape"
   width="27.657227mm"
   height="38.124805mm"
   viewBox="0 0 27.657227 38.124805"
   version="1.1"
   id="svg18589"
   inkscape:version="0.92.4 (5da689c313, 2019-01-14)"
   sodipodi:docname="A51.svg">
  <defs
     id="defs18583" />
  <sodipodi:namedview
     id="base"
     pagecolor="#ffffff"
     bordercolor="#666666"
     borderopacity="1.0"
     inkscape:pageopacity="0.0"
     inkscape:pageshadow="2"
     inkscape:zoom="0.35"
     inkscape:cx="-337.54548"
     inkscape:cy="-397.61733"
     inkscape:document-units="mm"
     inkscape:current-layer="layer1"
     showgrid="false"
     fit-margin-top="0"
     fit-margin-left="0"
     fit-margin-right="0"
     fit-margin-bottom="0"
     inkscape:window-width="1920"
     inkscape:window-height="1017"
     inkscape:window-x="-8"
     inkscape:window-y="-8"
     inkscape:window-maximized="1" />
  <metadata
     id="metadata18586">
    <rdf:RDF>
      <cc:Work
         rdf:about="">
        <dc:format>image/svg+xml</dc:format>
        <dc:type
           rdf:resource="http://purl.org/dc/dcmitype/StillImage" />
        <dc:title></dc:title>
      </cc:Work>
    </rdf:RDF>
  </metadata>
  <g
     inkscape:label="Layer 1"
     inkscape:groupmode="layer"
     id="layer1"
     transform="translate(-1.9964082,-5.5056098)">
    <g
       aria-label="𓀼"
       transform="matrix(0.26458333,0,0,0.26458333,14.363095,-12.095238)"
       style="font-style:normal;font-variant:normal;font-weight:normal;font-stretch:normal;font-size:192px;line-height:1.25;font-family:sans-serif;-inkscape-font-specification:'sans-serif, Normal';font-variant-ligatures:normal;font-variant-caps:normal;font-variant-numeric:normal;font-feature-settings:normal;text-align:start;letter-spacing:0px;word-spacing:0px;writing-mode:lr-tb;text-anchor:start;fill:#000000;fill-opacity:1;stroke:none"
       id="flowRoot19134">
      <path
         d="m 51.603516,180.05414 4.5,8.90625 v 0.9375 q -1.6875,3.9375 -2.34375,7.96875 -0.65625,3.9375 -0.65625,8.25 -0.46875,0.375 -0.84375,0.75 l -0.75,0.75 h -3.375 l -1.40625,3 h -3.09375 v -3 h -5.71875 l -1.40625,-1.78125 q 1.125,-3.46875 2.34375,-5.8125 1.21875,-2.34375 3.65625,-2.34375 0.65625,0 2.25,0.46875 0.75,-3 0.75,-5.4375 0,-2.8125 -1.03125,-5.8125 -1.03125,-3.09375 -2.90625,-4.875 -1.875,-1.78125 -2.90625,-4.6875 -0.9375,-3 -2.71875,-5.25 -1.78125,-2.34375 -4.40625,-3.84375 H -2.1152344 q -4.78125,7.3125 -7.9687496,15 -3.1875,7.6875 -3.46875,16.5 1.78125,2.4375 1.78125,5.4375 0,2.15625 -1.21875,3.84375 -1.125,1.59375 -3.65625,1.59375 h -27.375 q -0.46875,0 -1.03125,-0.28125 -0.5625,-0.1875 -0.9375,-0.5625 l -0.75,-2.15625 1.78125,-2.71875 q 3.1875,-0.75 6.09375,-1.5 2.90625,-0.84375 6,-1.59375 l 6.1875,-1.5 q 3.375,-5.25 4.59375,-11.53125 1.21875,-6.28125 1.21875,-16.96875 0,-10.6875 3.5625,-16.78125 3.65625,-6.1875 5.625,-7.59375 2.0624996,-1.5 11.99999963,-3.1875 9.93750037,-1.78125 19.68750037,-1.78125 l 0.375,-2.15625 0.28125,-2.25 q -4.5,0 -8.90625,-0.28125 -4.3125004,-0.375 -8.6250004,-1.125 -1.5,0.65625 -2.90624997,0.9375 -1.31250003,0.28125 -2.90625003,0.46875 l -1.40625,-0.375 q -0.1875,-0.1875 -0.46875,-0.75 -0.1875,-0.5625 -0.46875,-1.03125 l 0.46875,-0.46875 q 0.28125,-0.28125 1.3125,-0.9375 -1.3125,0.65625 -2.71875,1.125 l -2.8125,0.9375 -1.8749996,-1.78125 v -2.4375 q 0.1875,-0.46875 0.46875,-0.84375 l 0.4687496,-0.84375 q 2.0625,-0.75 4.03125,-1.21875 2.0625,-0.5625 4.125,-0.5625 1.59375002,0 3.1875,0.375 1.59375,0.375 3.1875,1.3125 4.21875,0 8.4375004,0.28125 4.3125,0.28125 8.53125,1.03125 l 0.28125,-1.40625 q -3.9375,0 -7.6875,-0.5625 -3.75,-0.65625 -7.4062504,-1.125 -0.375,0 -1.78125,-0.1875 l -5.90624997,-0.9375 q -2.15625003,-0.28125 -5.25000003,-2.8125 -3.09375,-2.53125 -3.28125,-6.5625 h -1.7812496 l -1.40625,-1.78125 q 0.46875,-1.59375 1.59375,-2.0625 1.2187496,-0.5625 2.6249996,-0.65625 l -10.8749996,-27.09375 -9.09375,43.6875 q 0,-3.46875 -3.28125,-3.46875 -0.9375,0 -2.8125,0.46875 -1.3125,-2.53125 -3.1875,-2.53125 -1.875,0 -4.40625,2.53125 l 21,-48.1875 h 1.6875 l 13.8749996,34.59375 h 0.375 l 1.3125,0.5625 q 2.81250002,3 5.625,6.9375 5.4375,0 10.7812504,0.375 5.34375,0.375 10.6875,1.21875 l 1.875,-9 q 0.84375,-4.5 1.875,-9.09375 -1.78125,-2.71875 -2.8125,-3.46875 -1.03125,-0.75 -3.65625,-1.3125 l -1.3125,4.03125 h -3.1875 l 1.875,-4.40625 -0.5625,-0.28125 q -0.28125,-0.09375 -0.75,-1.21875 -0.375,-1.125 -0.375,-2.8125 v -1.03125 q 0,-0.5625 0.09375,-1.03125 l -1.875,-1.03125 -0.46875,-0.84375 q -0.28125,-0.375 -0.46875,-0.84375 0,-3.09375 2.25,-6.5625 2.34375,-3.46875 1.96875,-5.34375 -0.28125,-1.875 3.9375,-6.9375 4.21875,-5.15625 12.09375,-5.15625 8.90625,0 14.53125,6.84375 5.625,6.84375 5.625,15.84375 0,5.625 -2.8125,10.59375 -2.71875,4.875 -8.71875,7.21875 0.46875,3.5625 1.21875,7.03125 l 1.40625,6.9375 q 0.65625,3.5625 1.21875,7.125 0.5625,3.46875 0.65625,7.03125 l 3.1875,0.5625 3.1875,0.75 0.84375,0.46875 q 1.875,3.28125 2.625,6.375 0.84375,3 0.84375,6 0,5.4375 -3.09375,15 -3.09375,9.5625 -3.09375,15.75 z m -9.28125,-58.5 -1.5,-7.21875 q -0.75,-3.5625 -1.21875,-7.21875 -2.8125,-1.40625 -4.40625,-3.75 -1.59375,-2.34375 -1.59375,-4.875 0,-1.96875 1.125,-3.84375 1.125,-1.875 3.5625,-3.28125 0.75,-1.78125 0.75,-3.75 0,-1.03125 -0.375,-2.25 -0.375,-1.21875 -1.6875,-1.21875 -0.65625,0 -1.3125,0.75 -0.65625,0.75 -0.84375,1.875 l -2.4375,0.65625 -11.4375,-7.59375 q -0.375,1.40625 -1.03125,2.625 l -1.21875,2.53125 q -0.65625,1.21875 -1.21875,2.4375 -0.46875,1.21875 -0.65625,2.53125 0.5625,0.28125 1.03125,0.65625 0.5625,0.28125 1.21875,0.5625 l 0.65625,1.21875 q -0.28125,1.40625 -0.28125,2.8125 l 0.09375,1.6875 q 5.15625,0.375 7.875,3.28125 2.8125,2.90625 2.8125,4.78125 -0.375,2.8125 -2.53125,12.375 -2.15625,9.46875 -4.875,26.625 -0.46875,0.375 -0.84375,0.75 l -0.75,0.75 q -7.96875,0 -15.6562504,1.03125 -7.6875,1.03125 -15.28125,3.28125 -3.6562496,3.75 -5.7187496,8.15625 -1.96875,4.3125 -2.0625,8.53125 l -0.1875,2.625 q 0,0.9375 -0.5625,13.59375 -0.46875,12.65625 -6.84375,20.25 l -4.40625,1.03125 -9.46875,2.4375 q -2.25,0.5625 -4.03125,0.9375 l -0.1875,0.28125 h 27 q 0.75,-0.1875 1.125,-0.75 0.375,-0.5625 0.375,-1.96875 -0.65625,-2.0625 -1.3125,-3.375 -0.65625,-1.40625 -0.65625,-3.28125 0,-1.3125 0.1875,-2.53125 l 0.375,-2.25 q 1.3125,-7.59375 4.40625,-14.25 3.1874996,-6.65625 7.4062496,-13.21875 l 1.3125,-1.03125 6.1875,-4.3125 q 2.90625,0 6,0.0937 l 12.1875004,0.5625 q 2.8125,0 5.25,0.0937 7.875,0 11.4375,-1.875 3.5625,-1.96875 4.78125,-9.28125 1.21875,-7.3125 1.21875,-14.15625 0,-3.65625 -0.5625,-7.21875 -0.46875,-3.65625 -1.21875,-7.3125 z m 9.84375,17.625 -2.53125,-0.5625 -2.53125,-0.375 q -0.65625,17.25 -4.78125,21.65625 -4.03125,4.3125 -15.5625,4.3125 -1.875,0 -3.75,-0.0937 l -10.40625,-0.5625 -8.6250004,-0.1875 -2.71875,1.875 H 31.634766 q 3.1875,0.5625 5.90625,3.84375 2.71875,3.1875 4.125,7.125 l 0.65625,1.875 q 6.1875,6.65625 6.1875,14.71875 0,4.125 -1.5,7.78125 l -0.9375,0.375 -1.03125,0.5625 -1.03125,-0.5625 q -0.5625,-0.28125 -1.125,-0.46875 -0.65625,0 -1.40625,1.03125 -0.65625,0.9375 -0.9375,1.96875 l -0.375,1.125 h 9.9375 q 0,-8.0625 2.90625,-15.09375 -4.21875,-7.21875 -4.40625,-9.46875 v -1.03125 q 0,-4.21875 3.09375,-14.15625 3.09375,-9.9375 3.09375,-15.46875 0,-2.625 -0.65625,-5.15625 -0.5625,-2.625 -1.96875,-5.0625 z M 21.697266,76.83539 q 3,2.0625 5.53125,3.65625 l 5.53125,3.65625 q 1.21875,-1.875 2.25,-2.4375 1.03125,-0.65625 1.96875,-0.65625 2.53125,0 3.75,1.96875 1.3125,1.875 1.3125,5.15625 0,4.78125 -2.71875,6.28125 -2.71875,1.40625 -2.71875,4.125 0.1875,2.25 1.3125,3.65625 1.125,1.3125 3,2.25 6.375,-2.53125 8.34375,-6.375 1.96875,-3.84375 1.96875,-8.4375 0,-7.6875 -4.875,-13.875 -4.875,-6.28125 -11.90625,-6.28125 -2.8125,0 -6.1875,1.21875 -3.375,1.21875 -6.5625,6.09375 z m -45.1875,16.5 -12.75,28.40625 q 0.75,0.1875 1.59375,0.75 0.84375,0.46875 1.125,1.3125 0.375,-0.1875 0.9375,-0.375 l 1.125,-0.1875 q 0.46875,0 1.40625,-0.0937 z m 46.125,34.125 0.28125,-1.6875 q -5.34375,-0.75 -10.875,-1.21875 -5.4375004,-0.46875 -10.7812504,-0.46875 l -0.65624998,-0.375 -0.5625,-0.375 q -1.21875002,-1.875 -2.62500002,-3.375 -1.3125,-1.59375 -2.90625,-3.1875 h -0.84375 q 0,3.65625 1.21875,4.96875 1.3125,1.21875 2.8125,2.25 1.50000002,1.03125 10.5,2.25 9.0000004,1.21875 14.4375004,1.21875 z m -14.4375004,6.9375 q 3.2812504,0.375 6.4687504,0.65625 3.28125,0.1875 6.5625,0.1875 l 0.09375,-0.65625 q -6.9375,-1.21875 -12.3750004,-1.3125 -5.34375,-0.0937 -6.84375,-1.03125 -1.49999998,-0.9375 -2.90624998,-0.9375 H -1.8339844 q -0.9375,0 -2.0625,0.28125 -1.03125,0.1875 -1.96875,0.46875 l -2.25,0.75 v 1.3125 l 1.96875,-0.75 q 1.78125,-0.5625 4.125,-1.03125 1.87500003,0 3.84375,0.75 l 0.09375,0.46875 q -1.21874998,1.125 -3.1875,1.6875 2.4375,0 3.09375,-0.9375 0.75,-0.9375 3.9375,-0.375 z M 24.322266,84.80414 q -1.6875,1.125 -2.53125,1.125 -0.84375,0 -0.84375,-1.125 0,-1.125 0.75,-1.125 0.9375,0 2.625,1.125 z"
         id="path19142"
         inkscape:connector-curvature="0" />
    </g>
  </g>
</svg>
