<?xml version="1.0" encoding="UTF-8" standalone="no"?>
<!-- Created with Inkscape (http://www.inkscape.org/) -->

<svg
   xmlns:dc="http://purl.org/dc/elements/1.1/"
   xmlns:cc="http://creativecommons.org/ns#"
   xmlns:rdf="http://www.w3.org/1999/02/22-rdf-syntax-ns#"
   xmlns:svg="http://www.w3.org/2000/svg"
   xmlns="http://www.w3.org/2000/svg"
   xmlns:sodipodi="http://sodipodi.sourceforge.net/DTD/sodipodi-0.dtd"
   xmlns:inkscape="http://www.inkscape.org/namespaces/inkscape"
   width="34.007225mm"
   height="38.099998mm"
   viewBox="0 0 34.007225 38.099998"
   version="1.1"
   id="svg19151"
   inkscape:version="0.92.4 (5da689c313, 2019-01-14)"
   sodipodi:docname="A52.svg">
  <defs
     id="defs19145" />
  <sodipodi:namedview
     id="base"
     pagecolor="#ffffff"
     bordercolor="#666666"
     borderopacity="1.0"
     inkscape:pageopacity="0.0"
     inkscape:pageshadow="2"
     inkscape:zoom="0.35"
     inkscape:cx="-371.83008"
     inkscape:cy="-297.24294"
     inkscape:document-units="mm"
     inkscape:current-layer="layer1"
     showgrid="false"
     fit-margin-top="0"
     fit-margin-left="0"
     fit-margin-right="0"
     fit-margin-bottom="0"
     inkscape:window-width="1920"
     inkscape:window-height="1017"
     inkscape:window-x="-8"
     inkscape:window-y="-8"
     inkscape:window-maximized="1" />
  <metadata
     id="metadata19148">
    <rdf:RDF>
      <cc:Work
         rdf:about="">
        <dc:format>image/svg+xml</dc:format>
        <dc:type
           rdf:resource="http://purl.org/dc/dcmitype/StillImage" />
        <dc:title></dc:title>
      </cc:Work>
    </rdf:RDF>
  </metadata>
  <g
     inkscape:label="Layer 1"
     inkscape:groupmode="layer"
     id="layer1"
     transform="translate(-11.067541,-32.087806)">
    <g
       aria-label="𓀽"
       transform="scale(0.26458333)"
       style="font-style:normal;font-variant:normal;font-weight:normal;font-stretch:normal;font-size:192px;line-height:1.25;font-family:sans-serif;-inkscape-font-specification:'sans-serif, Normal';font-variant-ligatures:normal;font-variant-caps:normal;font-variant-numeric:normal;font-feature-settings:normal;text-align:start;letter-spacing:0px;word-spacing:0px;writing-mode:lr-tb;text-anchor:start;fill:#000000;fill-opacity:1;stroke:none"
       id="flowRoot19696">
      <path
         d="m 81.111328,180.3393 -13.6875,-34.40625 -12,49.40625 q -1.21875,-3.1875 -3.09375,-3.1875 -0.9375,0 -2.15625,0.65625 -1.125,0.5625 -1.59375,1.03125 -1.5,-3.1875 -3.65625,-3.1875 -1.3125,0 -3.09375,1.6875 l 25.78125,-53.34375 16.40625,41.15625 0.5625,0.0937 0.46875,0.28125 q 2.4375,1.125 4.40625,3.84375 1.96875,2.625 3.1875,4.96875 l 3.28125,-0.0937 h 4.125002 q 1.40625,0 3.65625,0.0937 l 4.96875,0.375 q 2.625,0.1875 5.4375,0.46875 l 5.0625,0.5625 4.21875,-22.40625 q -1.6875,-3.1875 -3.375,-4.59375 -1.6875,-1.40625 -3.1875,-1.59375 h -0.75 l -1.40625,5.625 h -3.75 l 2.625,-5.625 q -1.40625,-0.375 -2.0625,-1.40625 -0.5625,-1.125 -0.5625,-2.53125 l 0.375,-4.125 q -1.3125,-0.1875 -1.875,-0.375 l -1.125,-0.375 -0.46875,-0.84375 q -0.28125,-0.375 -0.46875,-0.84375 0,-4.96875 2.625,-7.6875 2.71875,-2.8125 2.71875,-5.8125 0,-4.78125 6,-10.78125 6,-6.09375 15.1875,-6.09375 10.5,0 15.75,7.59375 5.34375,7.59375 5.34375,25.78125 0,3.1875 -0.28125,6.28125 -0.1875,3 -0.75,5.71875 l -0.375,1.96875 -1.5,1.03125 h -9.46875 q 4.59375,8.25 7.03125,18.375 2.4375,10.03125 2.4375,25.21875 0,8.53125 -0.65625,15.9375 -0.65625,7.40625 -1.96875,14.71875 2.71875,0.46875 4.03125,2.25 1.40625,1.6875 1.59375,4.40625 6.84375,6.46875 11.0625,7.6875 4.21875,1.21875 4.21875,3.65625 l -0.65625,1.21875 q -2.0625,1.78125 -5.0625,1.78125 -2.4375,0 -5.53125,-1.21875 -3.09375,-1.21875 -5.90625,-3.09375 l -3.09375,-1.875 q -2.15625,-0.375 -5.0625,-0.375 -7.96875,0 -16.59375,3 -8.625,2.90625 -16.21875,3.375 -7.59375,0.5625 -17.062502,0.5625 -7.03125,0 -15.09375,-0.1875 -8.0625,-0.1875 -12.65625,-0.1875 l -0.65625,-0.375 -0.5625,-0.375 q -1.125,-1.59375 -2.25,-4.125 -1.03125,-2.625 -1.03125,-4.78125 0,-13.40625 15.46875,-18.09375 15.5625,-4.78125 34.500002,-5.53125 0,-5.34375 0.9375,-10.59375 l 1.78125,-10.59375 q -5.34375,-0.1875 -10.5,-1.125 -5.156252,-1.03125 -10.218752,-1.875 -1.5,0.5625 -3.375,1.125 -1.78125,0.46875 -3.46875,0.46875 -2.15625,-0.1875 -2.8125,-1.21875 -0.5625,-1.03125 -0.5625,-1.125 l 0.75,-1.3125 1.59375,-0.5625 q -1.5,0 -3.46875,0.375 -1.96875,0.28125 -3.5625,0.75 l -1.875,-1.78125 v -3.9375 q 0.1875,-0.46875 0.46875,-0.84375 l 0.46875,-0.84375 q 1.40625,-0.5625 2.8125,-0.75 1.5,-0.28125 3.09375,-0.28125 3,0 6,0.75 3,0.65625 5.625,1.6875 5.343752,0 10.312502,0.1875 5.0625,0.1875 10.40625,1.03125 l 0.28125,-1.21875 q -5.34375,-0.5625 -13.3125,-1.875 -7.968752,-1.40625 -12.656252,-2.34375 -4.6875,-1.03125 -6.75,-2.25 -1.96875,-1.3125 -3.28125,-2.625 -1.21875,-1.3125 -1.3125,-1.96875 l -0.65625,-4.125 h -3.09375 q -0.375,-0.5625 -0.65625,-1.125 l -0.5625,-1.125 q 0.84375,-1.21875 2.34375,-1.6875 1.5,-0.46875 2.90625,-0.46875 z m 37.500002,13.3125 -2.8125,-0.375 -7.96875,-0.5625 q -4.21875,-0.1875 -8.250002,-0.28125 -3.9375,-0.0937 -7.96875,-0.0937 l -0.65625,-0.375 -0.5625,-0.375 q -1.21875,-2.4375 -2.8125,-4.59375 -1.59375,-2.15625 -3.84375,-3.75 h -1.125 q 0,3.375 1.03125,5.15625 1.125,1.6875 2.8125,2.71875 1.6875,1.03125 8.71875,2.4375 l 10.406252,1.875 q 5.90625,1.125 12.46875,1.5 z m -1.875,10.5 q -5.53125,-0.9375 -10.3125,-0.9375 -4.6875,0 -10.218752,-0.28125 -0.65625,0 -3.65625,-1.125 -2.90625,-1.21875 -7.21875,-1.21875 -1.03125,0 -2.15625,0.0937 -1.03125,0.0937 -2.0625,0.375 v 1.5 q 2.625,-0.5625 5.34375,-0.5625 3.1875,0 7.125,1.03125 l 0.09375,0.5625 q -0.46875,0.375 -1.875,0.9375 -1.3125,0.46875 -3.09375,1.21875 v 0.46875 l 6.375,-1.6875 16.687502,2.4375 q 3.28125,0.46875 4.40625,0.46875 z m 0.1875,16.78125 q -1.03125,6 -1.03125,12.1875 -0.46875,0.375 -0.84375,0.75 l -0.75,0.75 -5.4375,0.1875 q -8.8125,0.28125 -16.125002,1.78125 -7.21875,1.5 -14.15625,3.65625 1.40625,3.46875 3.46875,6.28125 2.15625,2.8125 5.4375,4.6875 10.5,-1.6875 20.906252,-2.25 10.40625,-0.5625 20.90625,-0.65625 1.3125,0 2.90625,0.0937 1.6875,0.0937 3.375,0.0937 3,0 5.90625,-0.65625 3,-0.75 4.6875,-3.1875 1.40625,-7.59375 2.15625,-15.09375 0.75,-7.59375 0.75,-15.1875 0,-16.21875 -2.53125,-25.96875 -2.53125,-9.84375 -7.40625,-18.75 h -6.65625 l -0.75,-0.65625 q -0.5625,-0.46875 -0.75,-0.5625 -0.46875,-2.0625 -0.75,-4.21875 -0.1875,-2.15625 -0.1875,-4.3125 0,-7.6875 3.75,-12.75 3.75,-5.15625 3.75,-8.8125 0,-0.375 -0.0937,-1.125 -0.0937,-0.75 -0.46875,-0.75 -0.84375,0 -1.78125,0.9375 l -1.5,1.5 q -0.65625,0.1875 -0.84375,0.28125 l -0.46875,0.28125 -16.59375,-1.40625 q 0,4.5 -2.625,7.03125 -2.625,2.53125 -2.8125,5.71875 l 1.875,0.375 0.5625,0.1875 0.84375,0.46875 q 0.65625,0.65625 0.65625,1.96875 0,1.03125 -0.28125,2.15625 -0.28125,1.125 -0.28125,2.0625 0,0.75 0.375,1.125 1.21875,0.28125 2.34375,0.28125 l 0.5625,-0.0937 q 2.4375,0 5.4375,2.71875 3,2.625 3.9375,5.625 l -0.9375,4.96875 q -0.46875,2.0625 -0.84375,4.21875 l -2.71875,15.46875 q -0.1875,1.875 -1.40625,8.0625 -1.21875,6.09375 -1.59375,8.53125 z M 75.767578,241.2768 q -4.59375,1.875 -7.21875,5.15625 -2.53125,3.1875 -2.53125,8.90625 0,1.5 0.375,2.71875 0.46875,1.21875 1.96875,3.84375 3.5625,0 12,0.1875 8.4375,0.1875 14.8125,0.1875 9.187502,0 15.937502,-0.46875 6.84375,-0.5625 12.09375,-1.96875 l 7.59375,-1.96875 q 3.75,-1.03125 7.59375,-1.78125 3.9375,-0.75 8.0625,-0.75 4.21875,0 6,1.40625 1.875,1.3125 5.25,3.28125 3.375,1.96875 6.65625,1.96875 1.40625,0 2.15625,-0.375 l -2.90625,-1.21875 q -3.375,-1.5 -7.125,-4.59375 -3.75,-3.1875 -4.03125,-4.40625 l -0.5625,-2.0625 q -0.28125,-0.9375 -0.9375,-1.59375 -0.65625,-0.65625 -2.53125,-0.9375 -2.4375,3 -6.09375,3.84375 -3.65625,0.75 -7.40625,0.75 -1.125,0 -2.4375,-0.0937 -1.3125,-0.0937 -2.8125,-0.0937 -10.125,0 -23.34375,1.03125 -13.218752,1.03125 -18.750002,2.15625 -3.375,-0.84375 -6.1875,-3.84375 -2.8125,-3 -5.625,-9.28125 z m 75.187502,-74.625 q 0.5625,-2.71875 0.75,-5.4375 0.28125,-2.71875 0.28125,-5.4375 0,-18.5625 -4.59375,-25.125 -4.59375,-6.5625 -13.3125,-6.5625 -5.90625,0 -10.59375,2.90625 -4.6875,2.8125 -6.9375,8.15625 3.46875,0.1875 9.28125,0.75 5.90625,0.5625 6.09375,0.5625 1.3125,-1.59375 2.625,-2.15625 1.40625,-0.65625 2.71875,-0.65625 1.59375,0 2.4375,1.3125 0.84375,1.3125 0.84375,4.3125 0,3.5625 -3.65625,8.53125 -3.65625,4.875 -3.65625,9.84375 0,3.28125 0.0937,5.34375 0.0937,1.96875 0.375,3.65625 z m -35.0625,-23.25 q 0,-1.3125 0.9375,-1.3125 1.125,0 3.5625,1.875 -2.25,1.03125 -3.09375,1.03125 -1.40625,0 -1.40625,-1.59375 z m -53.718752,13.21875 -14.71875,31.125 q 0.75,0.1875 1.59375,0.75 0.84375,0.46875 1.125,1.3125 0.5625,-0.375 1.40625,-0.46875 0.9375,-0.1875 1.59375,-0.1875 z"
         id="path19704"
         inkscape:connector-curvature="0" />
    </g>
  </g>
</svg>
