<?xml version="1.0" encoding="UTF-8" standalone="no"?>
<!-- Created with Inkscape (http://www.inkscape.org/) -->

<svg
   xmlns:dc="http://purl.org/dc/elements/1.1/"
   xmlns:cc="http://creativecommons.org/ns#"
   xmlns:rdf="http://www.w3.org/1999/02/22-rdf-syntax-ns#"
   xmlns:svg="http://www.w3.org/2000/svg"
   xmlns="http://www.w3.org/2000/svg"
   xmlns:sodipodi="http://sodipodi.sourceforge.net/DTD/sodipodi-0.dtd"
   xmlns:inkscape="http://www.inkscape.org/namespaces/inkscape"
   width="10.393164mm"
   height="38.124805mm"
   viewBox="0 0 10.393164 38.124805"
   version="1.1"
   id="svg19713"
   inkscape:version="0.92.4 (5da689c313, 2019-01-14)"
   sodipodi:docname="A53.svg">
  <defs
     id="defs19707" />
  <sodipodi:namedview
     id="base"
     pagecolor="#ffffff"
     bordercolor="#666666"
     borderopacity="1.0"
     inkscape:pageopacity="0.0"
     inkscape:pageshadow="2"
     inkscape:zoom="0.35"
     inkscape:cx="-328.97266"
     inkscape:cy="-291.90305"
     inkscape:document-units="mm"
     inkscape:current-layer="layer1"
     showgrid="false"
     fit-margin-top="0"
     fit-margin-left="0"
     fit-margin-right="0"
     fit-margin-bottom="0"
     inkscape:window-width="1920"
     inkscape:window-height="1017"
     inkscape:window-x="-8"
     inkscape:window-y="-8"
     inkscape:window-maximized="1" />
  <metadata
     id="metadata19710">
    <rdf:RDF>
      <cc:Work
         rdf:about="">
        <dc:format>image/svg+xml</dc:format>
        <dc:type
           rdf:resource="http://purl.org/dc/dcmitype/StillImage" />
        <dc:title></dc:title>
      </cc:Work>
    </rdf:RDF>
  </metadata>
  <g
     inkscape:label="Layer 1"
     inkscape:groupmode="layer"
     id="layer1"
     transform="translate(0.27181802,-33.475848)">
    <g
       aria-label="𓀾"
       transform="scale(0.26458333)"
       style="font-style:normal;font-variant:normal;font-weight:normal;font-stretch:normal;font-size:192px;line-height:1.25;font-family:sans-serif;-inkscape-font-specification:'sans-serif, Normal';font-variant-ligatures:normal;font-variant-caps:normal;font-variant-numeric:normal;font-feature-settings:normal;text-align:start;letter-spacing:0px;word-spacing:0px;writing-mode:lr-tb;text-anchor:start;fill:#000000;fill-opacity:1;stroke:none"
       id="flowRoot20258">
      <path
         d="m 38.253906,152.67914 v 16.59375 q 0,4.03125 -1.21875,6.46875 -1.125,2.4375 -3.28125,2.4375 -1.03125,0 -1.875,-0.5625 v 9.28125 q 1.875,4.5 2.625,8.90625 0.75,4.40625 0.75,8.8125 0,9.1875 -3.46875,23.8125 -3.46875,14.625 -3.46875,22.875 0,2.53125 0.46875,4.6875 0.46875,2.0625 1.03125,3.65625 l 0.9375,3.375 q 0.46875,1.59375 0.46875,3.1875 0,1.96875 -1.125,3.1875 -1.03125,1.21875 -3,1.21875 H 1.4101562 l -0.93749995,-0.375 q -0.65625,-0.84375 -1.49999995,-1.5 l 0.46874995,-2.53125 q 3.65625005,-0.75 7.03124995,-1.96875 3.3750001,-1.3125 5.9999998,-3.09375 2.71875,-1.78125 3.28125,-2.90625 0.65625,-1.21875 1.03125,-5.34375 0.46875,-4.21875 0.46875,-7.875 0,-9.5625 -2.71875,-25.5 -2.71875,-15.9375 -2.71875,-24.84375 0,-8.25 1.03125,-16.5 1.125,-8.34375 2.25,-16.40625 -1.5,-2.625 -2.53125,-3.84375 -0.9375,-1.3125 -2.34375,-1.3125 -1.3124997,3.375 -3.2812498,6.09375 -1.96875,2.625 -5.4375,3.28125 l -1.12499995,-1.5 q 0.65624995,-1.03125 1.12499995,-1.5 1.8750001,-0.75 3.46875,-2.34375 1.59375,-1.6875 2.34375,-5.15625 -0.375,-0.65625 -0.65625,-1.5 l -0.375,-1.6875 q -0.1875,-0.9375 -0.1875,-2.25 -0.75,-0.75 -1.59375,-1.21875 l -0.46875,-0.84375 q -0.2812499,-0.375 -0.4687499,-0.84375 0.375,-1.59375 0.9374999,-2.8125 0.5625,-1.3125 1.59375,-2.625 l 0.75,-2.25 q 2.5312501,-8.34375 5.5312498,-10.59375 3.09375,-2.34375 8.71875,-2.34375 8.53125,0 12.84375,6.28125 4.3125,6.1875 4.3125,19.875 z m -12.28125,8.90625 -0.84375,-1.3125 -7.03125,2.34375 q -0.9375,6.9375 -1.59375,13.21875 l -0.5625,5.4375 q -0.375,2.8125 -0.5625,5.34375 l -0.28125,4.875 q -0.1875,2.25 -0.1875,3.75 0,9.65625 2.71875,25.5 2.71875,15.75 2.71875,25.3125 0,4.03125 -0.65625,8.15625 -0.5625,4.125 -0.9375,4.78125 -0.375,0.65625 -1.96875,2.4375 -1.5,1.78125 -4.59375,3.46875 -2.9999997,1.6875 -6.7499998,2.71875 H 27.097656 q 0.46875,0 0.75,-0.375 0.375,-0.375 0.375,-1.03125 0,-1.6875 -0.46875,-3.375 l -0.9375,-3.375 q -0.5625,-1.6875 -1.03125,-3.65625 -0.46875,-2.0625 -0.46875,-4.40625 0,-7.3125 3.5625,-22.78125 3.65625,-15.46875 3.65625,-24.375 0,-5.625 -1.03125,-9.28125 -0.9375,-3.65625 -2.4375,-7.03125 l -0.09375,-2.25 v -4.96875 q 0,-3.1875 -0.09375,-7.40625 0,-3.1875 -0.65625,-6.09375 -0.5625,-2.90625 -2.25,-5.625 z m -15.09375,-25.21875 9.1875,3.46875 q 0.46875,-0.84375 1.3125,-1.21875 0.84375,-0.46875 1.875,-0.46875 1.59375,0 2.8125,1.03125 1.3125,1.03125 1.3125,2.8125 0,1.3125 -0.5625,2.71875 -0.5625,1.3125 -1.21875,2.25 -0.1875,1.125 -0.65625,2.53125 -0.375,1.3125 -0.375,2.625 0,1.03125 0.46875,2.34375 0.5625,1.3125 1.78125,3 l 1.40625,2.15625 q 1.6875,2.53125 2.4375,5.34375 0.84375,2.8125 1.125,6.46875 l 0.09375,1.96875 q 0.1875,0.46875 0.5625,1.125 0.46875,0.5625 1.03125,0.5625 0.84375,0 1.125,-1.21875 0.375,-1.21875 0.5625,-3.1875 v -18.75 q 0,-11.25 -2.8125,-16.125 -2.71875,-4.875 -8.8125,-5.90625 -6,-1.03125 -9.5625,1.59375 -1.125,0.84375 -1.875,2.0625 -0.65625,1.21875 -1.21875,2.8125 z m 9.75,6.84375 -10.59375,-4.03125 -1.2187497,3.65625 q -0.375,1.03125 -1.1250001,1.875 -0.75,0.75 -0.9375,1.96875 1.3125001,0.84375 1.7812501,2.25 0.5625,1.40625 0.5625,3.1875 0,0.46875 0.1875,0.9375 0.28125,0.375 0.5625,0.65625 2.0624997,0 3.7499997,1.125 1.6875,1.125 3.75,4.875 l 6,-1.96875 q -0.65625,-1.21875 -1.21875,-2.53125 -0.5625,-1.40625 -0.5625,-2.625 0,-1.875 0.375,-4.03125 0.46875,-2.25 0.9375,-3 l 0.9375,-1.5 q 0.46875,-0.65625 0.46875,-1.6875 0,-1.21875 -0.9375,-1.21875 -0.65625,0 -0.65625,0.65625 z m -8.0625,-1.21875 q 1.125,0.375 2.53125,1.3125 -0.9375,0.9375 -2.4375,1.3125 l -0.9375,-1.40625 z"
         id="path20266"
         inkscape:connector-curvature="0" />
    </g>
  </g>
</svg>
