<?xml version="1.0" encoding="UTF-8" standalone="no"?>
<!-- Created with Inkscape (http://www.inkscape.org/) -->

<svg
   xmlns:dc="http://purl.org/dc/elements/1.1/"
   xmlns:cc="http://creativecommons.org/ns#"
   xmlns:rdf="http://www.w3.org/1999/02/22-rdf-syntax-ns#"
   xmlns:svg="http://www.w3.org/2000/svg"
   xmlns="http://www.w3.org/2000/svg"
   xmlns:sodipodi="http://sodipodi.sourceforge.net/DTD/sodipodi-0.dtd"
   xmlns:inkscape="http://www.inkscape.org/namespaces/inkscape"
   width="38.124805mm"
   height="10.393164mm"
   viewBox="0 0 38.124805 10.393164"
   version="1.1"
   id="svg20275"
   inkscape:version="0.92.4 (5da689c313, 2019-01-14)"
   sodipodi:docname="A54.svg">
  <defs
     id="defs20269" />
  <sodipodi:namedview
     id="base"
     pagecolor="#ffffff"
     bordercolor="#666666"
     borderopacity="1.0"
     inkscape:pageopacity="0.0"
     inkscape:pageshadow="2"
     inkscape:zoom="0.35"
     inkscape:cx="-423.25976"
     inkscape:cy="-335.51047"
     inkscape:document-units="mm"
     inkscape:current-layer="layer1"
     showgrid="false"
     fit-margin-top="0"
     fit-margin-left="0"
     fit-margin-right="0"
     fit-margin-bottom="0"
     inkscape:window-width="1920"
     inkscape:window-height="1017"
     inkscape:window-x="-8"
     inkscape:window-y="-8"
     inkscape:window-maximized="1" />
  <metadata
     id="metadata20272">
    <rdf:RDF>
      <cc:Work
         rdf:about="">
        <dc:format>image/svg+xml</dc:format>
        <dc:type
           rdf:resource="http://purl.org/dc/dcmitype/StillImage" />
        <dc:title></dc:title>
      </cc:Work>
    </rdf:RDF>
  </metadata>
  <g
     inkscape:label="Layer 1"
     inkscape:groupmode="layer"
     id="layer1"
     transform="translate(-24.674979,-49.669691)">
    <g
       aria-label="𓀿"
       transform="scale(0.26458333)"
       style="font-style:normal;font-variant:normal;font-weight:normal;font-stretch:normal;font-size:192px;line-height:1.25;font-family:sans-serif;-inkscape-font-specification:'sans-serif, Normal';font-variant-ligatures:normal;font-variant-caps:normal;font-variant-numeric:normal;font-feature-settings:normal;text-align:start;letter-spacing:0px;word-spacing:0px;writing-mode:lr-tb;text-anchor:start;fill:#000000;fill-opacity:1;stroke:none"
       id="flowRoot20820">
      <path
         d="m 106.19727,195.60297 2.25,-0.75 q 1.3125,-1.03125 2.53125,-1.59375 1.3125,-0.5625 2.90625,-0.9375 l 0.84375,0.375 0.84375,0.5625 q 0.46875,0.84375 1.21875,1.59375 1.21875,0 2.25,0.1875 l 1.6875,0.46875 q 0.84375,0.28125 1.5,0.5625 3.46875,-0.75 5.0625,-2.34375 1.6875,-1.59375 2.4375,-3.46875 0.1875,0 0.75,-0.46875 0.65625,-0.5625 0.75,-0.65625 l 1.5,1.125 q -0.65625,3.46875 -3.375,5.4375 -2.625,1.96875 -6,3.28125 0,1.21875 1.125,2.34375 1.125,1.03125 2.4375,1.6875 l 1.59375,0.84375 q 8.0625,-1.125 16.3125,-2.15625 8.34375,-1.125 16.59375,-1.125 9,0 24.84375,2.71875 15.9375,2.71875 25.5,2.71875 3.65625,0 7.78125,-0.375 4.21875,-0.46875 5.34375,-1.03125 1.21875,-0.5625 2.90625,-3.09375 1.6875,-2.625 3,-6.09375 1.3125,-3.5625 2.15625,-7.21875 l 2.53125,-0.46875 q 0.65625,0.84375 1.5,1.5 l 0.375,0.9375 v 25.6875 q 0,1.96875 -1.21875,3.09375 -1.21875,1.03125 -3.1875,1.03125 -1.59375,0 -3.1875,-0.46875 l -3.28125,-1.03125 q -1.6875,-0.46875 -3.84375,-0.9375 -2.0625,-0.46875 -4.59375,-0.46875 -8.15625,0 -22.875,3.46875 -14.625,3.46875 -23.8125,3.46875 -4.40625,0 -8.8125,-0.75 -4.40625,-0.75 -8.90625,-2.625 h -9.28125 q 0.5625,0.84375 0.5625,1.875 0,2.15625 -2.4375,3.375 -2.4375,1.125 -6.46875,1.125 h -16.59375 q -13.6875,0 -19.968754,-4.3125 -6.1875,-4.3125 -6.1875,-12.84375 0,-4.5 1.21875,-6.9375 1.3125,-2.4375 3.375,-3.84375 2.156254,-1.40625 8.343754,-3.46875 z m 33.84375,22.03125 q 4.21875,0 7.40625,0.0937 h 5.0625 l 2.15625,0.0937 q 3.375,1.5 7.03125,2.53125 3.65625,0.9375 9.28125,0.9375 8.90625,0 24.375,-3.5625 15.46875,-3.65625 22.78125,-3.65625 2.34375,0 4.3125,0.46875 2.0625,0.46875 3.75,0.9375 l 3.46875,1.03125 q 1.59375,0.46875 3.28125,0.46875 0.65625,0 1.03125,-0.28125 0.375,-0.375 0.375,-0.84375 v -21.65625 l -1.03125,3.1875 q -1.5,4.21875 -4.03125,7.03125 -2.4375,2.71875 -3.9375,3.28125 -1.40625,0.46875 -5.25,0.9375 -3.75,0.46875 -7.3125,0.46875 -9.5625,0 -25.40625,-2.71875 -15.75,-2.71875 -25.40625,-2.71875 -1.59375,0 -3.84375,0.1875 -2.15625,0.0937 -4.6875,0.28125 l -10.875,1.125 -13.21875,1.59375 -2.34375,7.03125 1.40625,0.84375 q 2.625,1.6875 5.53125,2.34375 2.90625,0.5625 6.09375,0.5625 z m -21.375,6.28125 h 17.4375 l 1.3125,-0.0937 q 1.96875,0 3.1875,-0.375 1.21875,-0.375 1.21875,-1.21875 0,-0.5625 -0.65625,-0.9375 -0.5625,-0.46875 -1.03125,-0.65625 l -1.96875,-0.0937 q -7.96875,-0.65625 -12.28125,-3.9375 -4.3125,-3.28125 -7.03125,-3.28125 -1.3125,0 -2.71875,0.46875 -1.3125,0.375 -2.4375,0.5625 -0.9375,0.65625 -2.34375,1.21875 -1.3125,0.5625 -2.625,0.5625 -1.78125,0 -2.8125,-1.21875 -1.03125,-1.3125 -1.03125,-2.90625 0,-2.15625 1.6875,-3.1875 l -3.46875,-9.1875 q -4.875004,1.6875 -6.000004,5.15625 -1.125,3.46875 -0.5625,7.78125 0.5625,4.21875 4.781254,7.78125 4.3125,3.5625 17.34375,3.5625 z m -10.125,-12.46875 q -0.65625,0 -0.65625,0.65625 0,0.9375 1.21875,0.9375 1.03125,0 1.78125,-0.46875 l 1.40625,-0.9375 q 0.75,-0.46875 2.90625,-0.84375 2.25,-0.46875 4.125,-0.46875 1.21875,0 2.53125,0.5625 1.40625,0.5625 2.625,1.21875 l 1.96875,-6 q -3.75,-2.0625 -4.875,-3.75 -1.125,-1.6875 -1.125,-3.75 -0.28125,-0.28125 -0.75,-0.46875 -0.375,-0.28125 -0.84375,-0.28125 -1.78125,0 -3.1875,-0.46875 -1.40625,-0.5625 -2.25,-1.875 -1.21875,0.1875 -2.0625,0.9375 -0.75,0.75 -1.78125,1.125 l -3.65625,1.21875 4.03125,10.59375 z m 1.40625,-10.96875 1.40625,0.9375 q -0.46875,1.59375 -1.3125,2.4375 -0.9375,-1.40625 -1.3125,-2.53125 z"
         id="path20828"
         inkscape:connector-curvature="0" />
    </g>
  </g>
</svg>
