<?xml version="1.0" encoding="UTF-8" standalone="no"?>
<!-- Created with Inkscape (http://www.inkscape.org/) -->

<svg
   xmlns:dc="http://purl.org/dc/elements/1.1/"
   xmlns:cc="http://creativecommons.org/ns#"
   xmlns:rdf="http://www.w3.org/1999/02/22-rdf-syntax-ns#"
   xmlns:svg="http://www.w3.org/2000/svg"
   xmlns="http://www.w3.org/2000/svg"
   xmlns:sodipodi="http://sodipodi.sourceforge.net/DTD/sodipodi-0.dtd"
   xmlns:inkscape="http://www.inkscape.org/namespaces/inkscape"
   width="37.901562mm"
   height="23.986132mm"
   viewBox="0 0 37.901562 23.986132"
   version="1.1"
   id="svg20837"
   inkscape:version="0.92.4 (5da689c313, 2019-01-14)"
   sodipodi:docname="A55.svg">
  <defs
     id="defs20831" />
  <sodipodi:namedview
     id="base"
     pagecolor="#ffffff"
     bordercolor="#666666"
     borderopacity="1.0"
     inkscape:pageopacity="0.0"
     inkscape:pageshadow="2"
     inkscape:zoom="0.35"
     inkscape:cx="-368.97349"
     inkscape:cy="-450.54758"
     inkscape:document-units="mm"
     inkscape:current-layer="layer1"
     showgrid="false"
     fit-margin-top="0"
     fit-margin-left="0"
     fit-margin-right="0"
     fit-margin-bottom="0"
     inkscape:window-width="1920"
     inkscape:window-height="1017"
     inkscape:window-x="-8"
     inkscape:window-y="-8"
     inkscape:window-maximized="1" />
  <metadata
     id="metadata20834">
    <rdf:RDF>
      <cc:Work
         rdf:about="">
        <dc:format>image/svg+xml</dc:format>
        <dc:type
           rdf:resource="http://purl.org/dc/dcmitype/StillImage" />
        <dc:title></dc:title>
      </cc:Work>
    </rdf:RDF>
  </metadata>
  <g
     inkscape:label="Layer 1"
     inkscape:groupmode="layer"
     id="layer1"
     transform="translate(-10.311736,-5.6398212)">
    <g
       aria-label="ð“€"
       transform="matrix(0.26458333,0,0,0.26458333,40.065476,-26.458333)"
       style="font-style:normal;font-variant:normal;font-weight:normal;font-stretch:normal;font-size:192px;line-height:1.25;font-family:sans-serif;-inkscape-font-specification:'sans-serif, Normal';font-variant-ligatures:normal;font-variant-caps:normal;font-variant-numeric:normal;font-feature-settings:normal;text-align:start;letter-spacing:0px;word-spacing:0px;writing-mode:lr-tb;text-anchor:start;fill:#000000;fill-opacity:1;stroke:none"
       id="flowRoot21382">
      <path
         d="m 17.482422,205.87836 q 0,-6 7.59375,-6 1.6875,-4.3125 1.6875,-8.34375 0,-6.75 -4.6875,-12.84375 0,-2.4375 -0.75,-7.78125 -0.75,-5.34375 -2.25,-11.90625 h -115.21875 q -2.25,3.28125 -3.375,7.59375 -1.031252,4.3125 -1.031252,8.0625 0,3.75 0.843752,6.75 0.9375,2.90625 2.15625,6.46875 -0.46875,2.0625 -1.6875,2.0625 -0.46875,0 -0.75,-0.46875 l -0.375002,-0.5625 -7.59375,6.09375 v 16.96875 h -4.5 v -18.1875 q 5.625,-3.9375 9.09375,-9 -2.0625,-6.09375 -2.0625,-13.59375 0,-2.8125 -0.1875,-6.1875 -0.0937,-3.46875 -0.46875,-6.75 -2.8125,-3.9375 -4.5,-7.78125 -1.59375,-3.84375 -1.59375,-8.34375 0,-5.4375 2.8125,-9.09375 2.90625,-3.65625 8.25,-4.6875 1.500002,-1.3125 3.187502,-2.25 1.78125,-1.03125 3.65625,-1.875 0.1875,0.1875 0.5625,0.375 0.375,0.0937 1.40625,0.5625 l 0.65625,1.03125 q 0.28125,0.65625 0.84375,0.75 0.5625,0 1.59375,-0.5625 1.125,-0.5625 2.15625,-0.5625 0.75,0 1.40625,0.5625 0.75,0.5625 1.21875,2.15625 l 3.46875,-1.40625 q 3.9375,-1.5 4.125,-3.65625 0.1875,-2.15625 2.25,-2.15625 1.3125,0.0937 1.5,1.40625 0,1.59375 -1.03125,2.8125 -0.9375,1.21875 -2.90625,2.53125 l -2.625,1.5 q -0.75,0.46875 -1.40625,0.84375 -0.65625,0.375 -1.40625,0.75 l 0.65625,0.65625 q 1.40625,1.40625 3.1875,2.25 1.78125,0.75 4.21875,0.75 2.53125,0 5.15625,-0.65625 2.625,-0.75 5.34375,-0.75 5.90625,0 13.40625,1.125 7.5,1.125 16.78125,3.28125 9.28125,2.15625 16.78125,3.28125 7.4999999,1.125 13.4062499,1.125 15.6562501,0 19.4062501,-5.4375 1.875,-2.71875 3.09375,-4.5 1.21875,-1.875 1.78125,-2.71875 l 1.21875,-0.75 h 3.09375 l 1.59375,1.5 v 27.09375 q 0.75,2.625 1.03125,5.625 0.28125,3 0.28125,4.96875 0,1.3125 0,2.625 0,1.3125 -0.09375,2.625 l -0.1875,5.4375 q 3.09375,10.3125 3.09375,13.59375 -3.09375,9.28125 -3.09375,13.59375 h -3 q 0,6.09375 -1.5,6.09375 -3,0 -3,-6.09375 z m -124.125002,-71.4375 q -1.5,1.875 -2.15625,3.84375 -0.5625,1.96875 -0.5625,3.9375 0,3.5625 1.59375,7.03125 1.59375,3.46875 3.84375,6.75 H 23.669922 v -24.1875 h -0.84375 q -0.84375,1.21875 -1.59375,2.34375 -0.65625,1.03125 -1.40625,2.15625 -0.75,1.03125 -1.3125,1.96875 -4.6875,6.9375 -22.0312501,6.9375 -5.71875,0 -13.1249999,-1.125 -7.3125,-1.125 -16.59375,-3.28125 -18.65625,-4.40625 -29.8125,-4.40625 -2.34375,0 -3.9375,0.375 l -2.34375,0.5625 q -1.3125,0.28125 -3.375,0.5625 l -4.5,2.25 q -4.5,2.25 -8.0625,3.375 -3.46875,1.03125 -6.65625,1.03125 -5.0625,0 -8.906252,-2.8125 -3.75,-2.8125 -5.8125,-7.3125 z m 19.125002,-5.71875 q -1.875,1.03125 -3.1875,1.03125 -1.96875,0 -3.65625,-2.25 -1.40625,0.75 -2.90625,2.0625 -1.5,1.3125 -2.812502,1.6875 l -2.0625,0.375 q -0.65625,0.0937 -1.21875,0.28125 -0.5625,0.1875 -1.03125,0.375 1.6875,3.9375 4.968752,6.75 3.28125,2.71875 7.5,2.71875 3.46875,0 7.03125,-1.3125 3.65625,-1.40625 6.9375,-3.09375 -3.65625,-0.9375 -5.90625,-3.65625 -1.125,-1.3125 -1.875,-2.15625 -0.75,-0.9375 -1.21875,-1.40625 z m -9.75,6.1875 q -1.59375,-1.40625 -1.59375,-2.15625 0,-0.65625 1.5,-0.65625 1.21875,0 1.21875,0.75 0,0.65625 -1.125,2.0625 z"
         id="path21390"
         inkscape:connector-curvature="0" />
    </g>
  </g>
</svg>
