<?xml version="1.0" encoding="UTF-8" standalone="no"?>
<svg
   xmlns:dc="http://purl.org/dc/elements/1.1/"
   xmlns:cc="http://creativecommons.org/ns#"
   xmlns:rdf="http://www.w3.org/1999/02/22-rdf-syntax-ns#"
   xmlns:svg="http://www.w3.org/2000/svg"
   xmlns="http://www.w3.org/2000/svg"
   xmlns:sodipodi="http://sodipodi.sourceforge.net/DTD/sodipodi-0.dtd"
   xmlns:inkscape="http://www.inkscape.org/namespaces/inkscape"
   sodipodi:docname="A56.svg"
   inkscape:version="1.0 (4035a4fb49, 2020-05-01)"
   id="svg1990"
   version="1.1"
   viewBox="0 0 28.773441 37.752728"
   height="37.752728mm"
   width="28.773441mm">
  <defs
     id="defs1984" />
  <sodipodi:namedview
     inkscape:window-maximized="1"
     inkscape:window-y="-8"
     inkscape:window-x="-8"
     inkscape:window-height="1017"
     inkscape:window-width="1920"
     fit-margin-bottom="0"
     fit-margin-right="0"
     fit-margin-left="0"
     fit-margin-top="0"
     showgrid="false"
     inkscape:document-rotation="0"
     inkscape:current-layer="layer1"
     inkscape:document-units="mm"
     inkscape:cy="481.09375"
     inkscape:cx="358.16966"
     inkscape:zoom="0.35"
     inkscape:pageshadow="2"
     inkscape:pageopacity="0.0"
     borderopacity="1.0"
     bordercolor="#666666"
     pagecolor="#ffffff"
     id="base" />
  <metadata
     id="metadata1987">
    <rdf:RDF>
      <cc:Work
         rdf:about="">
        <dc:format>image/svg+xml</dc:format>
        <dc:type
           rdf:resource="http://purl.org/dc/dcmitype/StillImage" />
        <dc:title></dc:title>
      </cc:Work>
    </rdf:RDF>
  </metadata>
  <g
     transform="translate(-11.067612,-20.877278)"
     id="layer1"
     inkscape:groupmode="layer"
     inkscape:label="Layer 1">
    <g
       style="font-style:normal;font-variant:normal;font-weight:normal;font-stretch:normal;font-size:50.8px;line-height:1.25;font-family:sans-serif;-inkscape-font-specification:sans-serif;font-variant-ligatures:normal;font-variant-caps:normal;font-variant-numeric:normal;font-feature-settings:normal;text-align:start;letter-spacing:0px;word-spacing:0px;writing-mode:lr-tb;text-anchor:start;fill:#000000;fill-opacity:1;stroke:none;stroke-width:0.264583"
       id="text2555"
       aria-label="ð“">
      <path
         id="path2557"
         style="stroke-width:0.264583"
         d="m 31.754725,29.930989 q 0.694531,0.07441 1.53789,0.421679 l 4.638477,-6.002734 1.091406,-0.42168 -5.010547,6.77168 q 0.644922,0.347266 1.339453,0.892969 0.719336,0.520898 1.488281,1.240234 3.001368,6.374805 3.001368,8.830469 0,0.272851 -0.223243,0.520898 -0.198437,0.248047 -0.620117,0.545703 Q 38.700037,42.606184 38.45199,42.53177 L 35.3266,41.390754 q -1.339454,-0.471289 -2.455665,-0.942578 -0.37207,2.232422 -0.545703,4.167188 -0.173632,1.934765 -0.173632,3.646289 0,0.694531 0.223242,2.182812 v -0.02481 q 0.124023,0.719336 0.173633,1.289844 0.07441,0.570508 0.07441,0.992188 0,1.240234 -0.644922,2.455664 0.545703,0.248046 0.868164,0.74414 l 2.282031,0.84336 q 0.496094,0.198437 0.942578,0.421679 0.446484,0.223242 1.16582,0.694531 l 0.09922,0.148829 q 0.07441,0.124023 0.07441,0.173632 l -0.124023,0.446485 q -2.133203,-0.04961 -5.010547,-0.520899 -2.852539,-0.471289 -4.489648,-0.471289 -1.513086,0 -5.109766,0.297657 -3.59668,0.272851 -5.258594,0.272851 -0.74414,0 -1.265039,-0.37207 -1.116211,0.07441 -2.33164,0.421679 -1.21543,0.347266 -2.058789,0.347266 l -0.545703,-0.446484 0.322461,-0.520899 q 0.396875,-0.272851 0.74414,-0.421679 l 0.917774,-0.396875 q 0.570507,-0.198438 1.016992,-0.42168 l 0.818554,-0.42168 q 0.173633,-1.686719 2.331641,-3.12539 l -0.992187,-4.340821 q -0.744141,-3.224609 -0.744141,-4.588867 0,-0.843359 0.694531,-1.438672 0.694531,-0.595312 1.562695,-0.595312 1.21543,0.446484 2.530079,1.463476 1.314648,0.992188 2.70371,2.753321 l 2.058789,2.629297 q 0.520899,-2.604493 0.768946,-4.067969 0.248047,-1.463477 0.248047,-2.00918 0,-0.892969 -0.694532,-4.142383 l -0.694531,-3.274218 q -0.04961,-0.248047 -0.07441,-0.446485 -0.347266,0.347266 -0.669726,0.719336 l -0.669727,0.744141 -1.364258,1.463476 q -0.644922,0.694532 -1.637109,1.240235 -0.967383,0.545703 -1.835547,0.545703 -0.768945,0 -2.827734,-2.703711 -2.058789,-2.703711 -2.306836,-3.54707 l -0.545703,-0.520899 -0.42168,-0.396875 -1.016992,-1.240234 -0.04961,-0.37207 0.297657,-0.347266 0.768945,0.322461 -0.570508,-0.496094 q -0.347265,-0.272851 -0.768945,-0.570508 l -0.04961,-0.471289 0.669727,-0.595312 q 1.314648,0.471289 2.232422,1.339453 0.917773,0.868164 1.190625,2.430859 1.240234,0.942578 2.133203,2.083594 0.917773,1.141016 1.736328,2.356445 1.21543,-1.612304 2.033984,-2.604492 0.84336,-1.016992 1.314649,-1.463476 1.909961,-1.761133 4.911328,-2.654102 -0.09922,-0.272851 -0.223242,-0.446484 -0.124024,-0.173633 -0.223242,-0.272852 -0.272852,-0.09922 -1.413868,-0.223242 -0.173632,-0.198437 -0.347265,-0.719336 -0.148828,-0.545703 -0.173633,-0.694531 -0.02481,-0.148828 -0.446484,-0.148828 L 24.16449,27.07845 q 0.09922,-0.768946 0.471289,-1.438672 0.372071,-0.669727 0.372071,-1.21543 0,-3.54707 3.943945,-3.54707 4.737695,0 4.737695,3.54707 0,1.463477 -0.471289,2.654102 -0.446484,1.190625 -1.463476,2.182812 z m -0.79375,0.446484 V 29.4597 q -1.686719,-0.347266 -1.686719,-1.785938 0,-0.644922 0.42168,-1.686719 0.446484,-0.32246 0.446484,-0.768945 0,-0.198437 -0.07441,-0.322461 Q 30.0184,24.746809 29.96879,24.6972 l -0.272851,0.223242 q -0.148829,0.124023 -0.272852,0.297656 l -0.66973,0.248047 -2.951757,-0.967383 q -0.04961,0.570508 -0.396875,1.289844 -0.322461,0.719336 -0.396875,0.967383 0.248047,0.09922 0.446484,0.322461 0.198438,0.223242 0.272852,0.545703 l 0.09922,0.446484 q 0,0.198438 0.07441,0.297656 1.289844,0.173633 1.661914,0.595313 0.372071,0.42168 0.620118,1.314648 l -0.297657,0.396875 q -1.562695,0.471289 -2.802929,1.116211 -1.240235,0.644922 -2.158008,1.488281 -0.868164,0.79375 -3.646289,4.539258 l -0.570508,-0.0248 q -0.942578,-1.438672 -1.885156,-2.678907 -0.942578,-1.265039 -2.232422,-2.257226 -0.09922,-0.644922 -0.719336,-1.661914 -0.620117,-1.016992 -1.116211,-1.265039 0.198438,0.272851 0.347266,0.545703 l 0.248047,0.446484 0.124023,0.322461 -0.173633,0.297656 -0.471289,-0.0248 1.389063,1.463476 q 0.198437,0.768946 2.083593,3.249414 1.909961,2.480469 2.257227,2.480469 1.438672,0 3.249414,-1.835547 0.272852,-0.272851 0.496094,-0.545703 0.248047,-0.297656 0.496094,-0.570508 l 0.942578,-1.066601 q 0.570507,-0.620118 1.041796,-1.165821 l 0.595313,0.173633 q 0.248047,1.513086 0.917773,4.737695 0.694532,3.199805 0.694532,4.216797 0,0.744141 -0.272852,2.356446 -0.272851,1.612304 -0.768945,3.943945 1.488281,-0.570508 2.827734,-0.818555 1.364258,-0.272851 2.579688,-0.272851 0,-1.835547 0.173632,-3.59668 0.173633,-1.785938 0.595313,-4.142383 Q 29.94398,39.183145 28.802965,38.4142 27.661949,37.645254 27.240269,36.876309 l 0.396875,-0.396875 q -0.124023,-0.04961 -0.32246,-0.248047 -0.198438,-0.223242 -0.322461,-0.272851 v -0.818555 l 0.421679,-0.396875 q 1.091407,0 1.959571,0.669727 l 3.373437,-4.340821 q -0.79375,-0.297656 -1.488281,-0.37207 z M 17.293592,53.867512 q 0.297656,0.272851 0.644922,0.669726 0.37207,0.372071 0.79375,0.84336 1.265039,-0.347266 2.38125,-0.496094 1.141015,-0.148828 2.257226,-0.148828 0.644922,0 6.722071,0.719336 l 0.992187,-0.347266 q 0.744141,-1.339453 0.744141,-2.406054 0,-0.644922 -0.223243,-1.885157 -0.198437,-1.240234 -0.248046,-2.158007 -1.661914,0 -3.671094,0.595312 -2.00918,0.570508 -4.539258,1.736328 l -2.158008,0.992188 q -1.562695,0.74414 -2.356445,1.091406 -0.79375,0.347265 -1.339453,0.79375 z m 13.592969,-16.222266 0.545703,0.248047 0.396875,0.148828 q 0.223242,0.09922 0.644921,0.223243 l 0.148829,-0.79375 q 0.272851,-1.5875 0.694531,-2.282032 0.446484,-0.719336 1.091406,-0.868164 l 0.620117,0.42168 0.620117,1.389063 0.545704,1.141015 0.942578,2.083594 q 0.198437,0.446484 0.347265,0.74414 l -0.223242,0.297657 Q 35.748279,40.001692 34.408826,39.629621 33.094178,39.232746 32.176404,38.860676 L 30.51449,38.215754 q 0,-0.09922 -0.173633,-0.248047 -0.173632,-0.148828 -0.322461,-0.471289 -0.124023,-0.347265 -0.446484,-0.79375 l -0.148828,0.198438 q 0.223242,0.347265 0.37207,0.74414 l -0.248047,0.248047 q 1.909961,1.21543 5.506641,2.554883 3.59668,1.314648 3.819922,1.389063 l 0.173633,-0.173633 q 0,-1.041797 -0.446485,-2.455664 -0.446484,-1.413867 -1.339453,-3.547071 -0.892969,-2.133203 -1.016992,-2.257226 -0.09922,-0.148828 -0.992188,-0.843359 -0.892968,-0.719336 -1.761132,-1.141016 l -3.447852,4.663281 q 0.248047,0.322461 0.446485,0.719336 0.223242,0.37207 0.396875,0.843359 z m -12.625586,7.391797 q 0.694531,1.537891 0.992187,3.001367 0.322461,1.463477 0.322461,2.951758 v 0.396875 q 0,0.198438 -0.02481,0.396875 1.141016,-0.545703 2.579688,-1.190625 1.463476,-0.644922 2.604492,-1.190625 l -2.976562,-3.720703 q -1.364258,-1.488281 -2.604493,-2.282031 -0.223242,0.37207 -0.471289,0.79375 -0.223242,0.42168 -0.421679,0.843359 z m -2.455664,11.013281 0.272851,0.471289 0.471289,0.669727 q 0.297657,0.223242 0.868164,0.223242 1.63711,0 5.208985,-0.272851 3.596679,-0.297657 5.159375,-0.297657 0.843359,0 1.984375,0.124024 1.16582,0.09922 2.654101,0.347265 l 1.16582,0.198438 q 0.42168,0.07441 0.719336,0.09922 l 0.520899,0.07441 q 0.223242,0 0.595312,0.0248 l -3.12539,-1.16582 q -0.297657,-0.520891 -1.041797,-0.66972 l -1.066602,0.347266 q -3.423047,-0.37207 -4.985742,-0.520898 -1.53789,-0.173633 -1.835547,-0.173633 -1.141015,0 -2.232422,0.148828 -1.091406,0.148828 -2.430859,0.520898 l -0.42168,-0.124023 Q 17.839295,55.579035 17.417615,55.157356 17.02074,54.710871 16.698279,54.43802 15.929334,55.256574 15.805311,56.050324 Z M 28.951795,21.671028 q -2.703711,0 -3.075781,2.00918 l 2.902148,0.992187 q 0.37207,-0.496094 1.016992,-0.768945 1.141016,0 1.141016,1.314648 0,0.79375 -0.595313,1.289844 -0.124023,0.37207 -0.198437,0.644922 -0.07441,0.272851 -0.07441,0.520898 0,0.84336 1.16582,1.016992 1.661914,-1.761132 1.661914,-4.266406 0,-2.75332 -3.943945,-2.75332 z M 17.368006,45.086653 q 0.669727,-1.389063 1.091406,-2.083594 l -0.37207,-0.173633 -0.347266,-0.148828 q -0.520898,0 -0.917773,0.37207 -0.396875,0.372071 -0.396875,0.868164 0,0.570508 0.198437,1.686719 0.198438,1.116211 0.545704,2.703711 l 0.570507,2.530078 q 0.223243,0.992187 0.347266,1.612305 l 0.620117,-0.297657 q 0.07441,-0.595312 0.07441,-1.16582 0,-2.778125 -1.413867,-5.903515 z m 15.899804,-6.573243 0.595313,0.124024 1.21543,0.297656 1.091406,0.322461 -0.520899,-1.16582 -0.74414,-1.612305 Q 34.780896,36.18177 34.632068,35.859309 l -0.347265,-0.719336 q -0.372071,0.272852 -0.644922,1.265039 l -0.09922,0.620117 -0.124023,0.595313 z M 26.272889,25.044465 q 0.818554,0.148828 1.091406,0.496094 -0.272852,0.09922 -0.545703,0.148828 l -0.545703,0.124024 -0.396875,-0.42168 z M 15.284412,56.76966 14.862733,56.968098 q -0.297657,0.148828 -0.620118,0.272851 l -1.265039,0.496094 1.438672,-0.42168 0.644922,-0.148828 q 0.297656,-0.07441 0.446484,-0.09922 z m 12.476758,-21.158398 0.545703,0.248047 q 0.248047,0.124023 0.471289,0.322461 l 0.124024,-0.148828 Q 28.356482,35.660871 27.76117,35.536848 Z" />
    </g>
  </g>
</svg>
