<?xml version="1.0" encoding="UTF-8" standalone="no"?>
<svg
   xmlns:dc="http://purl.org/dc/elements/1.1/"
   xmlns:cc="http://creativecommons.org/ns#"
   xmlns:rdf="http://www.w3.org/1999/02/22-rdf-syntax-ns#"
   xmlns:svg="http://www.w3.org/2000/svg"
   xmlns="http://www.w3.org/2000/svg"
   xmlns:sodipodi="http://sodipodi.sourceforge.net/DTD/sodipodi-0.dtd"
   xmlns:inkscape="http://www.inkscape.org/namespaces/inkscape"
   sodipodi:docname="A58.svg"
   inkscape:version="1.0 (4035a4fb49, 2020-05-01)"
   id="svg2566"
   version="1.1"
   viewBox="0 0 27.830851 38.025589"
   height="38.025589mm"
   width="27.830851mm">
  <defs
     id="defs2560" />
  <sodipodi:namedview
     inkscape:window-maximized="1"
     inkscape:window-y="-8"
     inkscape:window-x="-8"
     inkscape:window-height="1017"
     inkscape:window-width="1920"
     fit-margin-bottom="0"
     fit-margin-right="0"
     fit-margin-left="0"
     fit-margin-top="0"
     showgrid="false"
     inkscape:document-rotation="0"
     inkscape:current-layer="layer1"
     inkscape:document-units="mm"
     inkscape:cy="462.12497"
     inkscape:cx="343.88393"
     inkscape:zoom="0.35"
     inkscape:pageshadow="2"
     inkscape:pageopacity="0.0"
     borderopacity="1.0"
     bordercolor="#666666"
     pagecolor="#ffffff"
     id="base" />
  <metadata
     id="metadata2563">
    <rdf:RDF>
      <cc:Work
         rdf:about="">
        <dc:format>image/svg+xml</dc:format>
        <dc:type
           rdf:resource="http://purl.org/dc/dcmitype/StillImage" />
        <dc:title></dc:title>
      </cc:Work>
    </rdf:RDF>
  </metadata>
  <g
     transform="translate(-14.847377,-25.896102)"
     id="layer1"
     inkscape:groupmode="layer"
     inkscape:label="Layer 1">
    <g
       style="font-style:normal;font-variant:normal;font-weight:normal;font-stretch:normal;font-size:50.8px;line-height:1.25;font-family:sans-serif;-inkscape-font-specification:sans-serif;font-variant-ligatures:normal;font-variant-caps:normal;font-variant-numeric:normal;font-feature-settings:normal;text-align:start;letter-spacing:0px;word-spacing:0px;writing-mode:lr-tb;text-anchor:start;opacity:1;fill:#000000;fill-opacity:1;stroke:none;stroke-width:0.264583"
       id="text3131"
       aria-label="ð“ƒ">
      <path
         id="path3133"
         style="stroke-width:0.264583"
         d="m 25.141322,62.681445 v 0.79375 h -7.763867 v -0.79375 h 3.844726 q -2.75332,-3.026172 -4.564062,-7.242968 -1.810742,-4.216797 -1.810742,-7.441406 0,-2.182813 0.322461,-5.258594 0.347265,-3.100586 0.719336,-5.035352 l -0.272852,-0.272851 0.545703,-0.570508 2.728516,2.902148 0.148828,-0.198437 q 0.248047,-0.272852 0.520898,-0.347266 0.272852,-0.07441 0.545703,-0.07441 h 0.248047 q 0.520899,0 0.818555,0.297656 0.297656,0.297657 0.520898,0.545704 l 0.992188,0.04961 q 1.066601,0 2.133203,-0.124023 1.066602,-0.148829 2.133203,-0.248047 l 0.719336,-0.09922 q 0.396875,-0.04961 0.818555,-0.04961 h 0.322461 l 0.297656,0.04961 q 1.389062,-2.083594 2.00918,-3.348633 0.620117,-1.265039 1.16582,-1.761133 l 0.446484,-0.396875 q 0.248047,-0.198437 0.248047,-0.322461 0,-0.124023 -0.198437,-0.32246 -0.173633,-0.223243 -0.372071,-0.322461 h -0.322461 q -0.198437,0 -0.421679,0.0248 -0.768946,0 -1.116211,-0.198437 -0.322461,-0.198438 -0.347266,-0.545703 0,-0.248047 0.0248,-0.42168 l 0.04961,-0.297656 -0.0248,-0.07441 q -0.124024,-0.04961 -0.272852,-0.07441 H 29.68058 l -0.372071,-0.471289 q 0,-0.446485 0.396875,-1.016993 0.396875,-0.595312 0.396875,-1.240234 0.248047,-1.5875 1.091407,-2.232422 0.843359,-0.644922 2.430859,-0.644922 1.562695,0 2.306836,0.892969 0.74414,0.892969 0.74414,2.530078 0,0.620117 -0.124023,1.190625 -0.09922,0.570508 -0.347266,0.992188 1.835547,2.703711 3.050977,5.705078 1.240234,2.976562 1.488281,5.680273 l 0.396875,4.464844 q 0.04961,0.694531 0.07441,1.240234 0.04961,0.520898 0.04961,0.719336 v 0.967383 q 0,0.496094 0.570507,2.75332 0.595313,2.232422 0.595313,5.432227 0,1.686718 0.07441,3.323828 0.173633,0.347265 0.173633,0.818554 0,0.471289 -0.248047,0.868164 -0.223242,0.372071 -0.744141,0.42168 L 39.230376,63.72325 q -0.272851,0 -0.644922,0.09922 -0.37207,0.09922 -0.719336,0.09922 -0.223242,0 -0.446484,-0.07441 -0.198437,-0.04961 -0.272851,-0.124024 -0.07442,-0.07441 -0.148829,-0.248047 l -0.09922,-0.297656 q 0.07441,-0.07441 0.148828,-0.173633 l 0.124023,-0.173633 q 0.04961,-0.07441 0.09922,-0.124023 0.892969,-0.124023 1.686719,-0.297656 0.818554,-0.173633 1.562695,-0.744141 l 0.04961,-0.347265 v -0.322461 q 0,-1.265039 -0.620117,-4.117578 Q 39.354408,53.999805 39.056751,53.404492 38.7839,52.784375 38.659876,52.337891 L 38.213392,50.42793 q -0.223242,-0.942578 -0.42168,-1.909961 l -0.570507,2.356445 H 37.1964 q -0.768945,3.249414 -1.736328,5.382617 -0.967383,2.133203 -1.21543,3.323828 -0.248047,1.190625 -0.545703,2.356446 l 0.09922,1.116211 q -0.124024,0.496093 -0.496094,0.669726 -0.37207,0.173633 -0.79375,0.173633 -0.42168,0 -0.818555,-0.09922 -0.37207,-0.09922 -0.79375,-0.09922 -0.545703,0 -1.16582,0.07442 -0.595312,0.07441 -1.16582,0.07441 -0.322461,0 -0.669727,-0.173633 -0.347265,-0.148828 -0.471289,-0.272852 l 0.248046,-0.69453 1.041797,-0.248047 q 0.79375,-0.198437 1.438672,-0.496094 0.669726,-0.297656 1.265039,-0.74414 1.016992,-1.810742 1.488281,-4.415235 0.496094,-2.629296 1.314648,-6.746874 0.84336,-4.117578 1.041797,-7.242969 -0.09922,0 -0.272851,0.02481 l -0.272852,0.0248 q -0.347265,0 -0.644922,-0.198437 -0.272851,-0.223242 -0.520898,-0.595313 0.644922,-0.07441 1.16582,-0.173632 l 0.520899,-0.07441 q -0.09922,-0.79375 -0.545703,-1.5875 -0.446485,-0.818554 -1.711524,-2.083593 l -0.198437,0.248047 -3.150196,4.142382 q -0.297656,0.173633 -0.992187,0.446485 l -3.125391,1.16582 q -0.471289,0.198438 -0.892968,0.396875 -0.396875,0.198438 -0.84336,0.396875 l 3.795117,4.018359 -0.37207,0.372071 -4.043164,-4.142383 q -0.644922,0 -1.041797,-0.322461 -0.396875,-0.347266 -0.396875,-0.892969 l 0.02481,-0.248047 -2.058789,-2.108398 q -0.07441,0 -0.07441,-0.04961 0,-0.04961 -0.272852,-0.09922 -0.272851,-0.04961 -0.520898,-0.37207 -0.223242,-0.322461 -0.223242,-0.595313 l -2.108399,-2.182812 q -0.297656,1.686718 -0.595312,4.71289 -0.297657,3.026172 -0.297657,5.060156 0,3.299024 1.909961,7.51582 1.934766,4.191993 4.81211,7.069336 z m -4.539258,-21.108788 1.810742,1.934765 q 0.545703,0 0.79375,-0.148828 0.248047,-0.148828 0.992188,-0.520898 l 2.654101,-1.314649 z M 30.995228,28.401368 q 0.42168,0.04961 0.843359,0.124023 l 0.84336,0.148828 q 0.272851,-0.347265 0.669726,-0.347265 0.272852,0 0.545704,0.148828 0.272851,0.148828 0.520898,0.37207 l 0.04961,0.37207 -0.37207,0.768946 q 0.07441,0.347265 0.545703,0.620117 0.471289,0.272851 0.892969,0.42168 0.173633,-0.322461 0.248047,-0.768946 0.07441,-0.446484 0.07441,-0.942578 0,-1.265039 -0.471289,-1.934765 -0.471289,-0.694532 -1.661914,-0.694532 -1.364258,0 -2.033985,0.446485 -0.644922,0.446484 -0.694531,1.265039 z m 5.481836,22.17539 0.595312,-2.480469 -1.612304,-0.198437 q -1.066602,4.216797 -1.389063,6.796484 -0.297656,2.579688 -1.041797,4.7625 -0.719335,2.182812 -1.364257,2.654102 -0.644922,0.446484 -2.331641,0.917773 l 0.644922,-0.07441 q 0.446484,-0.04961 0.620117,-0.04961 l 2.207617,0.198437 0.223242,-0.223242 q 0,-0.198438 -0.04961,-0.42168 -0.02481,-0.248047 -0.02481,-0.496094 0,-0.421679 0.545704,-2.530078 0.545703,-2.133203 1.364257,-3.844726 0.818555,-1.736328 1.612305,-5.010547 z M 40.3714,47.724219 40.148158,44.524414 q -0.124024,-1.562695 -0.396875,-3.150195 l -3.695899,1.21543 V 42.8625 q 0,1.041797 -0.173633,2.083594 -0.173632,1.041797 -0.297656,2.182812 l 1.736328,0.09922 0.223243,-0.768945 h 0.768945 q 0.644922,4.787305 1.240234,6.077148 0.620117,1.289844 1.190625,4.316016 0.595313,3.001367 0.595313,4.191992 v 0.42168 q 0,0.223242 -0.04961,0.421679 l -0.173633,0.322461 q -0.297656,0.223242 -1.041796,0.471289 -0.719336,0.223243 -1.63711,0.471289 l 0.669727,-0.09922 q 0.248047,0 0.496094,-0.04961 0.248046,-0.07441 0.496093,-0.09922 0.347266,0 0.719336,0.09922 0.396875,0.09922 0.79375,0.09922 0.297656,-0.173633 0.297656,-0.396875 0,-0.248047 -0.124023,-0.396875 -0.124023,-0.173633 -0.173633,-3.770312 -0.0248,-3.621485 -0.595312,-5.60586 -0.570508,-1.984375 -0.570508,-2.827734 z M 32.880384,29.492774 q -0.520898,-0.07441 -1.016992,-0.173633 l -0.992187,-0.148828 q -0.07441,0.719336 -0.347266,1.091406 -0.248047,0.372071 -0.322461,0.496094 0.322461,0.07441 0.570508,0.248047 0.272851,0.173633 0.322461,0.545703 l -0.09922,0.669727 q 0,0.07441 0.173633,0.124023 0.198437,0.02481 0.322461,0.02481 0.272851,0 0.471289,-0.02481 0.198437,-0.04961 0.42168,-0.04961 0.446484,0.04961 0.917773,0.520898 0.496094,0.446484 0.496094,0.917773 0,0.520899 -0.694531,1.091407 -0.694532,0.570507 -0.917774,1.091406 -0.223242,0.496094 -1.53789,2.678906 -1.289844,2.158008 -1.562696,2.505274 -0.248047,0.347265 -1.240234,0.768945 -0.992188,0.42168 -2.257227,1.041797 l -0.620117,0.322461 -0.669726,0.322461 q -0.372071,0.198437 -0.545704,0.272851 -0.173632,0.04961 -0.396875,0.148828 l -0.669726,0.347266 0.124023,0.124023 0.471289,-0.0248 q 1.413868,-0.719336 2.877344,-1.314649 l 2.902149,-1.141015 3.49746,-4.663282 0.669727,-0.04961 q 1.637109,1.637109 2.133203,2.554883 0.520898,0.892969 0.644922,1.860351 0.669726,-0.124023 1.5875,-0.322461 l 2.108398,-0.421679 q -0.446484,-2.530078 -1.637109,-4.7625 -1.16582,-2.257227 -2.604492,-4.316016 -1.314649,-0.545703 -1.711524,-0.917773 -0.396875,-0.396875 -0.396875,-0.892969 0,-0.37207 0.248047,-0.843359 -0.124023,-0.07441 -0.198437,-0.07441 -0.124024,0 -0.124024,0.09922 z M 20.502845,39.960352 q -0.347265,0 -0.620117,0 -0.272851,0 -0.37207,0.471289 l 0.347266,0.347266 h 8.458398 q 0,-0.04961 0.09922,-0.173633 0.09922,-0.148828 0.148828,-0.248047 h -0.570508 q -0.79375,0 -1.5875,0.09922 -0.768945,0.07441 -1.562695,0.124023 H 21.495034 Q 21.172573,40.53086 20.974136,40.357228 20.775698,40.15879 20.502846,39.960353 Z M 31.193666,29.889649 q 0,-0.297656 0.223242,-0.297656 0.248047,0 0.694531,0.297656 -0.471289,0.322461 -0.694531,0.322461 -0.223242,0 -0.223242,-0.322461 z" />
    </g>
  </g>
</svg>
