<?xml version="1.0" encoding="UTF-8" standalone="no"?>
<!-- Created with Inkscape (http://www.inkscape.org/) -->

<svg
   xmlns:dc="http://purl.org/dc/elements/1.1/"
   xmlns:cc="http://creativecommons.org/ns#"
   xmlns:rdf="http://www.w3.org/1999/02/22-rdf-syntax-ns#"
   xmlns:svg="http://www.w3.org/2000/svg"
   xmlns="http://www.w3.org/2000/svg"
   xmlns:sodipodi="http://sodipodi.sourceforge.net/DTD/sodipodi-0.dtd"
   xmlns:inkscape="http://www.inkscape.org/namespaces/inkscape"
   width="27.558001mm"
   height="38.22403mm"
   viewBox="0 0 27.558 38.224029"
   version="1.1"
   id="svg4525"
   inkscape:version="0.92.4 (5da689c313, 2019-01-14)"
   sodipodi:docname="A5A.svg">
  <defs
     id="defs4519" />
  <sodipodi:namedview
     id="base"
     pagecolor="#ffffff"
     bordercolor="#666666"
     borderopacity="1.0"
     inkscape:pageopacity="0.0"
     inkscape:pageshadow="2"
     inkscape:zoom="0.35"
     inkscape:cx="463.70432"
     inkscape:cy="874.22207"
     inkscape:document-units="mm"
     inkscape:current-layer="layer1"
     showgrid="false"
     fit-margin-top="0"
     fit-margin-left="0"
     fit-margin-right="0"
     fit-margin-bottom="0"
     inkscape:window-width="1920"
     inkscape:window-height="1017"
     inkscape:window-x="-8"
     inkscape:window-y="-8"
     inkscape:window-maximized="1" />
  <metadata
     id="metadata4522">
    <rdf:RDF>
      <cc:Work
         rdf:about="">
        <dc:format>image/svg+xml</dc:format>
        <dc:type
           rdf:resource="http://purl.org/dc/dcmitype/StillImage" />
        <dc:title></dc:title>
      </cc:Work>
    </rdf:RDF>
  </metadata>
  <g
     inkscape:label="Layer 1"
     inkscape:groupmode="layer"
     id="layer1"
     transform="translate(210.00093,-341.91389)">
    <g
       aria-label="𓀉"
       style="font-style:normal;font-variant:normal;font-weight:normal;font-stretch:normal;font-size:50.79999924px;line-height:1.25;font-family:sans-serif;-inkscape-font-specification:sans-serif;font-variant-ligatures:normal;font-variant-caps:normal;font-variant-numeric:normal;font-feature-settings:normal;text-align:start;letter-spacing:0px;word-spacing:0px;writing-mode:lr-tb;text-anchor:start;fill:#000000;fill-opacity:1;stroke:none;stroke-width:0.26458332"
       id="text5105" />
    <g
       aria-label="𓀅"
       style="font-style:normal;font-variant:normal;font-weight:normal;font-stretch:normal;font-size:50.79999924px;line-height:1.25;font-family:sans-serif;-inkscape-font-specification:sans-serif;font-variant-ligatures:normal;font-variant-caps:normal;font-variant-numeric:normal;font-feature-settings:normal;text-align:start;letter-spacing:0px;word-spacing:0px;writing-mode:lr-tb;text-anchor:start;fill:#000000;fill-opacity:1;stroke:none;stroke-width:0.26458332"
       id="text5112">
      <path
         d="m -183.33589,358.01213 q 0,0.57051 -0.17363,1.19062 -0.14883,0.59532 -0.42168,1.09141 l -0.74415,1.43867 q -0.84335,1.68672 -1.28984,3.96875 -0.42168,2.28203 -0.42168,5.90352 0,0.86816 0.0248,1.36425 0.0248,0.47129 0.0248,0.91778 0,0.79375 -0.12402,1.53789 -0.12403,0.74414 -0.54571,1.53789 0.42168,0.19844 0.69454,0.64492 1.68671,0.81856 2.77812,0.99219 1.09141,0.17363 1.09141,1.0418 -0.12403,0.0992 -0.22325,0.19843 l -0.19843,0.19844 q -0.86817,0 -1.73633,-0.12402 -0.86817,-0.0992 -1.71152,-0.24805 l -1.71153,-0.29766 q -0.76894,-0.0992 -1.43867,-0.14882 -0.64492,-0.0496 -0.69453,-0.0496 h -0.39688 q -1.48828,0 -4.61367,0.47129 -3.12539,0.49609 -3.74551,0.49609 -0.5457,0 -1.04179,-0.17363 -0.47129,-0.14883 -0.86817,-0.62012 -0.39687,0 -0.76894,0.12402 l -0.79375,0.22324 q -0.39688,0.12403 -0.81856,0.22325 -0.42168,0.0992 -0.86816,0.0992 l -0.17363,-0.0992 -0.14883,-0.0992 -0.12402,-0.19844 -0.14883,-0.14883 0.0744,-0.49609 q 0.27285,-0.24805 0.66973,-0.24805 0.37207,0 0.84336,-0.14883 0.47129,-0.17363 0.81855,-0.39687 l 0.89297,-0.4961 q 0,-1.01699 0.59531,-1.6371 0.59532,-0.64493 1.38907,-1.14102 -0.24805,-0.84336 -0.57051,-2.45566 -0.32246,-1.61231 -0.66973,-2.85254 -0.32246,-1.24024 -0.32246,-1.86035 0,-0.86817 0.42168,-1.46348 0.44648,-0.59531 1.24023,-0.59531 0.94258,0 2.33164,0.96738 1.38907,0.96738 2.72852,2.60449 l 1.5875,1.86035 q 0.32246,-1.68672 0.5209,-2.85254 0.22324,-1.16582 0.22324,-2.33164 0,-0.74414 -0.0992,-1.5875 -0.0992,-0.84336 -0.37207,-1.93476 l -0.96738,0.32246 q -0.5457,0.19844 -1.09141,0.24805 -0.44648,0 -1.04179,-0.44649 -0.57051,-0.44648 -0.99219,-1.0666 l -0.14883,0.12402 q -0.84336,0.71934 -1.6123,1.21543 -0.76895,0.47129 -1.38907,0.47129 l -0.24804,-0.0992 q -0.99219,-1.11621 -1.90996,-2.25722 -0.91778,-1.14102 -1.81075,-2.33164 -0.5705,-0.29766 -0.96738,-0.71934 -0.37207,-0.44648 -0.64492,-1.01699 v -0.39688 q 0.0496,-0.0496 0.14883,-0.19843 0.17363,0 0.34726,-0.0248 l 0.32246,-0.0248 q 0.12403,0.19843 0.37207,0.39687 -0.14882,-0.34726 -0.44648,-0.5457 -0.27285,-0.22324 -0.57051,-0.39688 l -0.12402,-0.22324 q -0.0744,-0.0992 -0.12403,-0.22324 0.12403,-0.39688 0.19844,-0.71934 l 0.4961,-0.29765 q 1.19062,0.39687 1.71152,1.26504 0.5457,0.84335 0.59531,2.05878 0.79375,0.74414 1.53789,1.51309 l 1.48828,1.5875 1.36426,-1.21543 q -1.71152,-2.30684 -2.38125,-3.29902 -0.64492,-1.017 -1.11621,-1.36426 -0.44648,-0.37207 -1.41387,-1.73633 v -0.39687 l 0.0744,-0.12403 h 0.29765 q 0.14883,0 0.32246,-0.0248 -0.27285,-0.22324 -0.59531,-0.29766 -0.0992,-0.14883 -0.17363,-0.29765 l -0.14883,-0.29766 0.12402,-0.29766 0.0992,-0.32246 0.14883,-0.0992 0.17363,-0.0992 q 1.26504,0 2.0836,1.017 0.81855,1.01699 0.81855,2.30683 0.81856,0.96739 1.66192,1.90996 0.84336,0.94258 1.71152,1.83555 1.14102,-1.14102 2.05879,-1.6123 0.94258,-0.47129 2.6293,-1.09141 l 0.29765,-0.0992 q -0.0744,-0.24805 -0.17363,-0.37207 l -0.69453,-0.0248 q -0.42168,0 -0.59531,-0.59532 -0.17364,-0.59531 -0.29766,-0.74414 -0.0992,0 -0.19844,-0.0248 l -0.37207,-0.47129 q 0,-0.64492 0.29766,-1.24024 0.32246,-0.62011 0.47129,-1.66191 0.14882,-1.0418 0.74414,-1.6123 0.62011,-0.57051 1.31465,-0.86817 0.71933,-0.29765 1.86035,-0.29765 1.46347,0 2.38125,1.16582 0.91777,1.16582 0.91777,2.62929 0,1.0418 -0.5209,1.93477 -0.49609,0.86816 -1.14101,1.5875 v 0.84336 l 1.14101,0.12402 q 1.24024,0.14883 1.98438,0.76895 0.74414,0.62011 0.74414,1.86035 z m -26.29297,-16.09824 h 12.40234 l 0.19844,0.19843 q 0.0992,0.0992 0.22324,0.19844 v 1.21543 h 7.16856 l 0.19843,0.19844 q 0.0992,0.0992 0.22325,0.19844 v 1.5875 q -0.12403,0.0992 -0.22325,0.19843 l -0.19843,0.19844 h -16.3711 v 16.4207 q -0.12402,0.0992 -0.22324,0.19844 l -0.19844,0.19844 h -1.5875 l -0.37207,-0.47129 v -7.14375 h -1.24023 l -0.37207,-0.47129 v -12.25351 z m 24.63105,17.11523 q -1.56269,0.89297 -3.22461,1.76113 -1.66191,0.86817 -3.37343,1.41387 0.19843,0.81855 0.37207,1.71152 0.19843,0.89297 0.19843,1.76114 v 0.29765 q 0,0.12403 -0.12402,1.24024 -0.12402,1.11621 -0.71933,4.09277 1.11621,-0.34727 2.20761,-0.5457 1.09141,-0.22324 2.13321,-0.22324 h 0.32246 q 0.17363,-5.87872 1.63711,-8.70645 1.46347,-2.85254 1.46347,-3.91914 0,-0.5457 -0.47129,-1.0418 -0.47129,-0.49609 -1.36425,-0.49609 -0.76895,0 -1.88516,0.59531 -1.09141,0.57051 -2.00918,1.21543 l -1.0418,0.71934 -0.91777,0.69453 q -0.49609,0.37207 -1.28984,0.84336 -0.76895,0.44648 -1.14102,0.69453 l -0.57051,-0.12402 -0.69453,-1.0418 -0.96738,-1.28985 q -1.83555,-1.83554 -2.87735,-3.00136 -1.01699,-1.19063 -1.01699,-1.61231 0,-0.71933 -0.42168,-1.48828 -0.39687,-0.76894 -1.16582,-0.96738 0.54571,0.27285 0.84336,0.76894 0.29766,0.47129 0.4961,1.017 l -0.0744,0.39687 -0.19844,0.0496 q -0.0992,0 -0.19843,0.0744 l 0.79375,0.74415 3.24941,4.56406 q 0.34727,0.42168 0.64492,0.81855 l 0.59531,0.81856 q 0.29766,0.39687 0.62012,0.74414 0.34727,0.32246 0.76895,0.5457 1.93476,-0.49609 3.62148,-1.14101 1.68672,-0.66973 5.40742,-2.67891 z m -24.20937,-16.32148 v 11.60859 h 1.19062 l 0.19844,0.19844 q 0.0992,0.0992 0.22324,0.19843 v 7.21817 h 0.79375 v -16.34629 l 0.37207,-0.47129 h 16.42071 v -0.79375 h -7.21817 l -0.37207,-0.47129 v -1.14101 z m 22.00176,28.6246 q -3.32383,0.0496 -7.09414,1.81075 -3.74551,1.73633 -5.08496,2.70371 0.34726,0.37207 0.66972,0.76894 0.34727,0.39688 0.64492,0.81856 0.24805,-0.12403 1.46348,-0.42168 1.24023,-0.29766 2.82773,-0.29766 1.33946,0 2.65411,0.22324 1.33945,0.22325 2.6789,0.24805 0.0496,-0.0496 0.0992,-0.0744 l 0.0992,-0.0496 q 0.12402,-0.0992 0.37207,-0.17364 0.47129,-0.79375 0.59531,-1.53789 0.14883,-0.74414 0.14883,-1.51308 z m -10.88926,-4.46484 q -0.29766,0.39688 -0.49609,0.79375 l -0.22325,0.47129 q 0.86817,1.61231 1.0666,3.10059 0.22325,1.48828 0.24805,2.60449 1.0418,-0.57051 2.1332,-1.09141 1.09141,-0.5457 2.25723,-0.99219 -3.62148,-4.19199 -4.98574,-4.88652 z m 10.09551,-12.35273 q -0.47129,-0.14883 -0.91778,-0.64492 -0.42168,-0.4961 -0.42168,-1.36426 0,-0.42168 0.22325,-0.76895 0.22324,-0.34726 0.22324,-0.74414 0,-0.0992 -0.0744,-0.17363 l -0.14882,0.12402 q -0.0744,0.0496 -0.12403,0.14883 -0.0496,0 -0.24804,0.0496 -0.19844,0.0496 -0.22325,0.0744 l -2.33164,-0.96738 -0.0496,0.29766 q 0,0.17363 -0.0744,0.32246 l -0.17363,0.62012 -0.17364,0.52089 q -0.0992,0.24805 -0.17363,0.5209 0.24805,0.0744 0.34727,0.22324 0.12402,0.14883 0.19843,0.32247 l 0.0992,0.37207 q 0.0496,0.19843 0.17364,0.37207 0.17363,0 0.34726,0.0248 h 0.34727 q 0.0992,0.0496 0.34726,0.14883 0.34727,0.49609 0.47129,1.14101 l -0.27285,0.5209 q -2.48047,0.81856 -3.34863,1.38907 -0.86817,0.5705 -1.68672,1.38906 0.17363,0.19844 0.32246,0.42168 0.14883,0.22324 0.29766,0.42168 0.39687,-0.24805 0.71933,-0.57051 l 0.62012,-0.62012 0.59531,0.0496 q 0.19844,0.22324 0.34727,0.47129 0.14882,0.24805 0.27285,0.5209 l 1.0418,-0.74414 q 1.24023,-0.91778 2.158,-1.48828 0.91778,-0.57051 1.68672,-0.89297 l -0.39687,-0.47129 z m -12.57598,23.53965 q 0,0.42167 0.42168,0.86816 0.42168,0.42168 1.09141,0.42168 0.34726,0 0.66972,-0.0248 0.32246,-0.0248 0.59532,-0.0744 l 0.59531,-0.0992 3.32383,-0.47129 q 0.86816,-0.12402 1.71152,-0.19844 0.86816,-0.0992 1.63711,-0.0992 h 0.39687 q 0.81856,0 2.67891,0.32246 1.88516,0.32246 2.90215,0.44648 -0.79375,-0.19844 -1.51309,-0.5209 -0.71933,-0.32246 -0.86816,-0.5209 l -0.14883,-0.22324 q -0.0992,-0.0992 -0.19844,-0.17363 -0.0992,-0.0744 -0.24804,-0.0744 -0.14883,0 -0.27286,0.0992 -0.0992,0.0744 -0.52089,0.24805 h -0.64493 q -0.66972,-0.0496 -2.1332,-0.24805 -1.46348,-0.22324 -3.49746,-0.22324 -0.89297,0 -1.78594,0.22324 -0.89297,0.22325 -1.73633,0.57051 l -0.37207,-0.17363 q -0.0496,0 -0.0744,-0.0248 l -1.41387,-1.73632 q -0.34726,0.34726 -0.47129,0.69453 -0.12402,0.34726 -0.12402,0.84336 z m 12.45195,-27.06192 q 0,0.42168 -0.19843,0.76895 -0.17364,0.34726 -0.17364,0.96738 0,0.24805 0.22325,0.5457 0.22324,0.27285 0.5705,0.4961 0.5209,-0.5209 0.94258,-1.36426 0.42168,-0.84336 0.42168,-1.5627 0,-1.33945 -0.76894,-2.1332 -0.76895,-0.79375 -1.90997,-0.79375 -0.89296,0 -1.66191,0.39688 -0.76894,0.37207 -1.19062,1.14101 l 0.0496,0.0248 q 0.19844,0.0496 0.4961,0.17363 l 1.36426,0.59531 q 0.12402,0.0744 0.27285,0.12402 0.14883,-0.12402 0.34726,-0.22324 0.22325,-0.12402 0.44649,-0.12402 0.29765,0 0.5209,0.32246 0.24804,0.29766 0.24804,0.64492 z m -11.18691,20.71192 0.29766,1.38906 q 0.14882,0.69453 0.34726,1.41386 0.0992,-0.0496 0.17363,-0.0992 0.0992,-0.0744 0.22325,-0.12403 -0.0496,-1.90996 -0.32246,-3.22461 -0.24805,-1.31464 -1.017,-2.70371 v -0.39687 q 0.0496,-0.0496 0.17364,-0.37207 0.14882,-0.34727 0.59531,-1.01699 -0.22324,-0.0744 -0.47129,-0.0744 -0.5209,0 -0.71934,0.42168 -0.19843,0.42168 -0.19843,0.79375 l 0.17363,0.76895 0.22324,0.91777 z m -0.12402,-9.25215 q 0.32246,-0.0992 0.86816,-0.44649 0.57051,-0.34726 1.0418,-0.71933 l 0.64492,-0.4961 -0.27285,-0.37207 q -0.14883,-0.17363 -0.27285,-0.37207 l -0.76895,0.69453 q -0.39687,0.34727 -0.74414,0.69453 h -0.29766 l -0.29765,0.0496 q -1.33946,-1.41386 -2.45567,-2.45566 -1.11621,-1.0666 -1.11621,-1.53789 v -0.27285 q 0,-0.29766 -0.0744,-0.57051 -0.0744,-0.27285 -0.17363,-0.49609 0.0744,0.17363 0.12402,0.34726 0.0496,0.14883 0.0496,0.34727 0,0.27285 -0.12403,0.59531 l -0.42167,0.12402 0.19843,0.14883 q 0.19844,0.14883 0.29766,0.14883 0.12402,0 1.21543,1.46348 1.11621,1.43867 2.57969,3.12539 z m 5.10976,-2.18282 q 0.27285,-0.17363 0.57051,-0.32246 0.29766,-0.17363 0.57051,-0.37207 0,-0.0992 -0.0496,-0.22324 -0.0496,-0.14883 -0.22324,-0.39687 -0.27286,0.27285 -0.54571,0.52089 -0.27285,0.24805 -0.59531,0.44649 l 0.14883,0.17363 q 0.0496,0.0992 0.12402,0.17363 z m -9.07851,-4.2416 q -0.32246,-0.59531 -0.99219,-0.94258 v 0.0248 q 0.66973,0.34727 0.99219,0.91777 z m 2.10839,22.52266 -0.14882,0.0992 q 0.0496,0 0.14882,-0.0248 z m 9.525,-27.55801 0.44649,0.34727 -0.22324,0.17363 q -0.12403,0.0992 -0.24805,0.14883 -0.14883,0 -0.14883,-0.39688 z"
         style="stroke-width:0.26458332"
         id="path5114"
         inkscape:connector-curvature="0" />
    </g>
  </g>
</svg>
