<?xml version="1.0" encoding="UTF-8" standalone="no"?>
<svg
   xmlns:dc="http://purl.org/dc/elements/1.1/"
   xmlns:cc="http://creativecommons.org/ns#"
   xmlns:rdf="http://www.w3.org/1999/02/22-rdf-syntax-ns#"
   xmlns:svg="http://www.w3.org/2000/svg"
   xmlns="http://www.w3.org/2000/svg"
   xmlns:sodipodi="http://sodipodi.sourceforge.net/DTD/sodipodi-0.dtd"
   xmlns:inkscape="http://www.inkscape.org/namespaces/inkscape"
   sodipodi:docname="A60.svg"
   inkscape:version="1.0 (4035a4fb49, 2020-05-01)"
   id="svg3718"
   version="1.1"
   viewBox="0 0 25.672852 38.397655"
   height="38.397655mm"
   width="25.672852mm">
  <defs
     id="defs3712">
    <rect
       id="rect4283"
       height="148.16667"
       width="101.29762"
       y="20.410713"
       x="18.898809" />
  </defs>
  <sodipodi:namedview
     inkscape:window-maximized="1"
     inkscape:window-y="-8"
     inkscape:window-x="-8"
     inkscape:window-height="1017"
     inkscape:window-width="1920"
     fit-margin-bottom="0"
     fit-margin-right="0"
     fit-margin-left="0"
     fit-margin-top="0"
     showgrid="false"
     inkscape:document-rotation="0"
     inkscape:current-layer="layer1"
     inkscape:document-units="mm"
     inkscape:cy="451.22308"
     inkscape:cx="323.88533"
     inkscape:zoom="0.35"
     inkscape:pageshadow="2"
     inkscape:pageopacity="0.0"
     borderopacity="1.0"
     bordercolor="#666666"
     pagecolor="#ffffff"
     id="base" />
  <metadata
     id="metadata3715">
    <rdf:RDF>
      <cc:Work
         rdf:about="">
        <dc:format>image/svg+xml</dc:format>
        <dc:type
           rdf:resource="http://purl.org/dc/dcmitype/StillImage" />
        <dc:title></dc:title>
      </cc:Work>
    </rdf:RDF>
  </metadata>
  <g
     transform="translate(-20.138672,-28.78056)"
     id="layer1"
     inkscape:groupmode="layer"
     inkscape:label="Layer 1">
    <g
       style="font-style:normal;font-variant:normal;font-weight:normal;font-stretch:normal;font-size:50.8px;line-height:1.25;font-family:sans-serif;-inkscape-font-specification:sans-serif;font-variant-ligatures:normal;font-variant-caps:normal;font-variant-numeric:normal;font-feature-settings:normal;text-align:start;letter-spacing:0px;word-spacing:0px;writing-mode:lr-tb;text-anchor:start;white-space:pre;shape-inside:url(#rect4283);fill:#000000;fill-opacity:1;stroke:none"
       id="text4281"
       aria-label="ð“…">
      <path
         id="path4287"
         d="m 38.642968,34.783294 q 0,0.843359 -0.446484,1.835547 -0.42168,0.992187 -1.141016,1.909961 0.248047,0.09922 0.545704,0.248047 0.297656,0.124023 0.719336,0.347265 0.892968,-0.322461 1.810742,-0.322461 0.148828,0 0.471289,0.02481 l 1.289843,0.173633 q 0.272852,0.04961 0.372071,0.04961 0.868164,0 1.066601,-0.768945 0.198438,-0.79375 0.595313,-1.984375 l 0.248047,-0.84336 q 0.09922,-0.396875 0.173632,-0.818554 -0.198437,-0.272852 -0.396875,-0.570508 -0.173632,-0.297656 -0.37207,-0.570508 l 0.248047,-0.446484 0.396875,0.148828 v -0.322461 l -0.471289,-0.272852 -0.223242,-0.396875 q 0.04961,-0.272851 0.173633,-0.446484 0.148828,-0.173633 0.347265,-0.173633 0.471289,0 0.992188,0.446485 0.545703,0.421679 0.644922,1.53789 0.124023,1.091407 0.124023,1.513086 -0.07441,0.719336 -0.198437,1.364258 -0.124024,0.644922 -0.223243,1.289844 L 45.26582,38.67763 q -0.173633,1.16582 -0.942578,1.810742 -0.768945,0.644922 -2.654102,0.719336 -1.860351,0.07441 -2.728515,0.446484 -0.84336,0.372071 -1.339453,1.835547 -0.471289,1.438672 -0.471289,3.943945 0.620117,0.967383 0.843359,2.282032 0.223242,1.289843 0.223242,2.654101 0,1.860352 -0.173633,2.902149 -0.148828,1.041796 0.02481,1.736328 0.173633,0.669726 0.173633,2.207617 v 1.637109 l -0.04961,1.909961 q 0,0.545703 0.02481,1.091406 0.02481,0.545703 0.09922,1.091406 0.198437,0.198438 0.297656,0.47129 0.124024,0.272851 0.124024,0.545703 0,0.446484 -0.272852,0.79375 -0.272852,0.37207 -0.818555,0.396875 -0.272851,0 -0.595312,-0.198438 -0.322461,-0.198437 -0.545703,-0.198437 h -0.223243 l -2.455664,0.396875 q -0.446484,0 -0.669726,-0.198438 -0.223242,-0.173633 -0.272852,-0.471289 l 0.124024,-0.37207 q 0.148828,-0.124024 0.347265,-0.173633 0.198438,-0.07441 0.396875,-0.173633 l 1.389063,-0.620117 q 0.719336,-0.322461 1.21543,-0.917773 0,-0.942579 -0.173633,-1.860352 -0.173633,-0.942578 -0.372071,-1.885156 l -0.42169,-1.860352 q -0.198438,-0.917773 -0.223242,-1.860351 h -0.868164 q -0.272852,2.33164 -1.141016,5.308203 -0.868164,2.951758 -0.868164,3.671093 0,0.570508 -0.347266,1.016993 -0.322461,0.421679 -0.967383,0.421679 -0.297656,0 -0.620117,-0.124023 -0.322461,-0.09922 -0.545703,-0.297656 -0.694531,0 -1.364258,0.198437 -0.644922,0.198438 -1.314648,0.198438 -0.322461,0 -0.644922,-0.148828 -0.297656,-0.124024 -0.297656,-0.496094 0.09922,-0.248047 0.124023,-0.372071 0.520899,-0.198437 1.041797,-0.37207 l 1.066602,-0.322461 q 0.520898,-0.173633 1.016992,-0.396875 0.520898,-0.223242 0.992187,-0.570508 0.42168,-0.74414 0.545703,-1.53789 0.148829,-0.818555 0.148829,-1.661914 v -1.984375 q 0,-1.339453 0.148828,-2.033985 0.148828,-0.719335 0.198437,-0.768945 0.07441,-0.04961 0.694531,-4.316015 l 0.570508,-4.092774 H 31.4 v -1.438672 l 1.364258,0.917774 0.09922,-0.719336 q 0,-0.322461 0.02481,-0.719336 0,-0.917773 -0.198437,-1.810742 -0.173633,-0.892969 -0.272852,-1.761133 -0.396875,0.520898 -0.719336,1.116211 l -0.644922,1.16582 q -0.620117,1.116211 -1.091406,1.686719 -0.446484,0.570508 -0.992188,0.818555 l -0.74414,0.322461 -3.869531,1.736328 q -0.322461,0.496093 -0.892969,0.843359 -0.570508,0.347266 -1.190625,0.347266 -0.917773,0 -1.16582,-0.520899 -0.223243,-0.520898 -0.322461,-0.719336 l 0.570508,-0.520898 q 0.04961,0.04961 0.09922,0.04961 l 0.07441,0.04961 q 0.09922,-0.446485 0.595313,-0.644922 0.496094,-0.198438 1.041797,-0.198438 l 0.37207,0.02481 h 0.223242 q 0.892969,-0.694531 1.934766,-1.240234 1.041797,-0.545704 2.33164,-1.190625 l 0.148828,-0.322461 0.124024,-0.322461 q 1.314648,-3.249414 2.505273,-4.712891 1.21543,-1.463476 2.678907,-1.860351 -0.04961,-0.124024 -0.223243,-0.173633 -0.148828,-0.07441 -0.322461,-0.09922 l -0.347265,-0.04961 q -0.347266,0 -0.520899,-0.248047 -0.173632,-0.272852 -0.173632,-0.79375 v -0.347266 l -0.372071,-0.471289 q 0,-0.496094 0.396875,-1.116211 0.42168,-0.620117 0.42168,-1.116211 l 0.04961,-0.272851 q 0.372071,-0.917774 1.21543,-1.364258 0.868164,-0.446484 1.810742,-0.446484 1.314649,0 2.257227,0.79375 0.967382,0.79375 0.967382,2.033984 z m -6.771679,26.218554 q 0,1.016992 -0.148828,2.033985 -0.148828,1.016992 -0.768946,2.033984 -0.173632,0.124023 -0.595312,0.297656 l -0.917773,0.37207 q -0.496094,0.198438 -0.967383,0.372071 -0.471289,0.173633 -0.744141,0.297656 l 1.785938,-0.396875 q 0.297656,-0.04961 0.396875,-0.04961 0.272851,0.07441 0.471289,0.248047 0.223242,0.148828 0.570507,0.148828 0.272852,0 0.396875,-0.173633 0.124024,-0.198438 0.124024,-0.719336 0,-0.198438 0.917773,-3.447852 0.917774,-3.249414 1.091407,-5.258593 H 32.19375 q -0.223242,0.694531 -0.272852,1.438672 -0.04961,0.719336 -0.04961,1.438671 z m 5.655469,4.216797 q -0.07442,-0.570508 -0.09922,-1.141016 -0.02481,-0.595312 -0.02481,-1.16582 0,-0.620117 0.02481,-1.240234 l 0.0248,-2.033985 q 0,-0.74414 -0.04961,-1.438671 -0.04961,-0.719336 -0.198437,-1.438672 h -1.265039 q 0.124023,1.488281 0.471289,2.926953 0.347265,1.413867 0.570507,2.902148 l 0.124024,0.644922 q 0.07441,0.396875 0.07441,0.768945 0,0.744141 -0.768945,1.21543 -0.744141,0.471289 -1.686719,0.868164 l -0.843359,0.347266 0.545703,-0.148828 1.339453,-0.297657 q 0.297656,-0.04961 0.496093,-0.04961 0.322461,0 0.620118,0.09922 0.322461,0.07441 0.620117,0.322461 0.148828,0 0.223242,-0.02481 0,-0.04961 0.124023,-0.124023 0.124024,-0.07441 0.124024,-0.272852 0,-0.148828 -0.09922,-0.322461 -0.09922,-0.198437 -0.347265,-0.396875 z M 35.244726,36.941302 q 0.297657,0.570508 0.545703,0.843359 0.248047,0.272852 0.496094,0.42168 0.694531,-0.818555 1.116211,-1.711524 0.42168,-0.917773 0.42168,-1.661914 0,-0.992187 -0.694531,-1.53789 -0.694532,-0.570508 -1.661914,-0.570508 -0.620118,0 -1.190625,0.248047 -0.570508,0.223242 -0.917774,0.669726 0.644922,0.124024 1.240234,0.496094 0.595313,0.347266 0.620118,0.967383 0.347265,0.04961 0.570507,0.223242 0.248047,0.148828 0.248047,0.496094 0,0.37207 -0.248047,0.694531 -0.248046,0.297656 -0.545703,0.42168 z m 1.909961,19.025195 q 0.09922,-0.719336 0.173633,-1.686719 0.07441,-0.967383 0.07441,-2.00918 0,-1.265039 -0.198437,-2.406054 -0.173633,-1.165821 -0.669727,-1.885157 -0.42168,0.09922 -1.364258,0.148829 -0.917773,0.04961 -1.686718,0.198437 l -1.116211,7.639844 z M 38.171679,39.942669 Q 37.055468,39.297747 36.1625,39.0497 35.294336,38.776849 34.376562,36.941302 L 34.575,36.370794 34.996679,36.197161 q 0.248047,-0.09922 0.248047,-0.248047 0,-0.09922 -0.148828,-0.09922 -0.09922,0 -0.148828,0.02481 l -0.124023,0.07441 q -0.124024,-0.148828 -0.223243,-0.297656 -0.09922,-0.148828 -0.223242,-0.272852 l 0.02481,-0.272851 q 0,-0.223242 -0.37207,-0.396875 -0.372071,-0.198438 -0.942578,-0.322461 -0.07442,0.471289 -0.347266,0.868164 -0.248047,0.37207 -0.37207,0.744141 l 0.173632,0.07441 0.198438,0.322461 v 0.992187 q 0.173633,0.04961 0.868164,0.248047 0.719336,0.173633 0.719336,1.116211 l -0.148828,0.173633 q -0.07441,0.09922 -0.148828,0.223242 -1.438672,0.272851 -2.480469,1.513086 -1.016992,1.215429 -1.909961,3.274218 -0.868164,2.033985 -0.942578,2.207618 -0.04961,0.148828 -1.537891,0.79375 -1.463476,0.620117 -3.323828,1.785937 -0.198437,-0.07441 -0.520898,-0.07441 -0.272852,0 -0.595313,0.09922 -0.297656,0.07441 -0.570507,0.297656 0.421679,-0.124023 0.620117,-0.124023 0.322461,0 0.421679,0.148828 -0.07441,0.173633 -0.322461,0.322461 -0.248046,0.148828 -0.595312,0.148828 -0.198438,0 -0.42168,-0.07441 l -0.0248,0.272851 q 0.248046,0.124024 0.545703,0.124024 0.37207,0 0.768945,-0.248047 0.396875,-0.272852 0.620117,-0.545703 l 0.173633,-0.248047 q 0.471289,-0.198438 1.141016,-0.520899 l 2.728515,-1.339453 1.141016,-0.545703 q 0.843359,-0.768945 1.761133,-2.554883 0.942578,-1.785937 1.761132,-2.604492 l 0.669727,0.297657 q 0,0.843359 0.272851,2.232421 0.272852,1.364258 0.272852,2.207618 0,0.37207 -0.02481,0.768945 -0.0248,0.37207 -0.07441,0.74414 l 2.753321,-0.297656 q 0,-0.967383 0.09922,-1.934765 0.09922,-0.967383 0.347266,-1.909961 0.272851,-0.967383 0.868164,-1.711524 0.620117,-0.768945 1.637109,-0.942578 1.016992,-0.198437 1.959571,-0.198437 0.942578,0 1.95957,-0.322461 1.016992,-0.347266 1.21543,-1.314649 l 0.396875,-1.909961 0.148828,-0.74414 0.173632,-1.21543 -0.07441,-1.885156 q 0,-0.297656 -0.198437,-0.570508 -0.173633,-0.297656 -0.520899,-0.446484 l -0.09922,0.0248 0.0248,0.198438 0.471289,0.347266 v 1.066601 l -0.37207,-0.124023 -0.07441,0.0248 q 0.198438,0.248047 0.446484,0.496094 0.248047,0.248047 0.248047,0.446484 0,0.173633 -0.04961,0.471289 l -0.09922,0.620118 -0.248047,0.967382 q -0.272851,0.818555 -0.570507,1.984375 -0.272852,1.141016 -1.885157,1.141016 -0.520898,0 -1.16582,-0.04961 -0.620117,-0.07441 -1.066602,-0.07441 -0.37207,0 -0.719335,0.04961 -0.347266,0.04961 -0.644922,0.198437 z m -4.241601,-4.787305 q -0.446484,0.297656 -0.620117,0.297656 -0.148828,0 -0.148828,-0.173632 0,-0.09922 0.07441,-0.248047 0.07441,-0.173633 0.223242,-0.173633 0.173633,0 0.471289,0.297656 z m -12.923242,9.252149 q 0.347266,0 0.595312,0.272851 0.248047,0.248047 0.248047,0.595313 0,0.347265 -0.248047,0.595312 -0.248046,0.248047 -0.595312,0.248047 -0.347266,0 -0.620117,-0.248047 -0.248047,-0.248047 -0.248047,-0.595312 0,-0.347266 0.248047,-0.595313 0.272851,-0.272851 0.620117,-0.272851 z m 0,-2.976563 q 0.347266,0 0.595312,0.272852 0.248047,0.248047 0.248047,0.595312 0,0.347266 -0.248047,0.595313 -0.248046,0.248046 -0.595312,0.248046 -0.347266,0 -0.620117,-0.248046 -0.248047,-0.248047 -0.248047,-0.595313 0,-0.347265 0.248047,-0.595312 0.272851,-0.272852 0.620117,-0.272852 z m 0.496094,-2.976562 q 0.347265,0 0.595312,0.272851 0.248047,0.248047 0.248047,0.595313 0,0.347265 -0.248047,0.595312 -0.248047,0.248047 -0.595312,0.248047 -0.347266,0 -0.620118,-0.248047 -0.248046,-0.248047 -0.248046,-0.595312 0,-0.347266 0.248046,-0.595313 0.272852,-0.272851 0.620118,-0.272851 z m 1.240234,-2.902149 q 0.347266,0 0.595312,0.272852 0.248047,0.248047 0.248047,0.595312 0,0.347266 -0.248047,0.595313 -0.248046,0.248047 -0.595312,0.248047 -0.347266,0 -0.620117,-0.248047 Q 21.875,36.767669 21.875,36.420403 q 0,-0.347265 0.248047,-0.595312 0.272851,-0.272852 0.620117,-0.272852 z m 1.5875,-2.678906 q 0.347266,0 0.595312,0.272852 0.248047,0.248046 0.248047,0.595312 0,0.347266 -0.248047,0.595313 -0.248046,0.248046 -0.595312,0.248046 -0.347266,0 -0.620117,-0.248046 -0.248047,-0.248047 -0.248047,-0.595313 0,-0.347266 0.248047,-0.595312 0.272851,-0.272852 0.620117,-0.272852 z m 1.984375,-2.356445 q 0.347266,0 0.595312,0.272851 0.248047,0.248047 0.248047,0.595313 0,0.347265 -0.248047,0.595312 -0.248046,0.248047 -0.595312,0.248047 -0.347266,0 -0.620117,-0.248047 -0.248047,-0.248047 -0.248047,-0.595312 0,-0.347266 0.248047,-0.595313 0.272851,-0.272851 0.620117,-0.272851 z m 2.778125,-1.240235 q 0.347266,0 0.595312,0.272852 0.248047,0.248047 0.248047,0.595312 0,0.347266 -0.248047,0.595313 -0.248046,0.248047 -0.595312,0.248047 -0.347266,0 -0.620117,-0.248047 Q 28.225,30.492083 28.225,30.144817 q 0,-0.347265 0.248047,-0.595312 0.272851,-0.272852 0.620117,-0.272852 z M 32.19375,28.78056 q 0.347265,0 0.595312,0.272851 0.248047,0.248047 0.248047,0.595313 0,0.347265 -0.248047,0.595312 -0.248047,0.248047 -0.595312,0.248047 -0.347266,0 -0.620117,-0.248047 -0.248047,-0.248047 -0.248047,-0.595312 0,-0.347266 0.248047,-0.595313 0.272851,-0.272851 0.620117,-0.272851 z m 3.12539,0.148828 q 0.347266,0 0.595313,0.272851 0.248047,0.248047 0.248047,0.595313 0,0.347265 -0.248047,0.595312 -0.248047,0.248047 -0.595313,0.248047 -0.347265,0 -0.620117,-0.248047 -0.248047,-0.248047 -0.248047,-0.595312 0,-0.347266 0.248047,-0.595313 0.272852,-0.272851 0.620117,-0.272851 z m 3.050977,0.347265 q 0.347266,0 0.595312,0.272852 0.248047,0.248047 0.248047,0.595312 0,0.347266 -0.248047,0.595313 -0.248046,0.248047 -0.595312,0.248047 -0.347266,0 -0.620117,-0.248047 -0.248047,-0.248047 -0.248047,-0.595313 0,-0.347265 0.248047,-0.595312 0.272851,-0.272852 0.620117,-0.272852 z m 2.976562,1.240235 q 0.347266,0 0.595313,0.272851 0.248047,0.248047 0.248047,0.595313 0,0.347265 -0.248047,0.595312 -0.248047,0.248047 -0.595313,0.248047 -0.347265,0 -0.620117,-0.248047 -0.248047,-0.248047 -0.248047,-0.595312 0,-0.347266 0.248047,-0.595313 0.272852,-0.272851 0.620117,-0.272851 z" />
    </g>
  </g>
</svg>
