<?xml version="1.0" encoding="UTF-8" standalone="no"?>
<svg
   xmlns:dc="http://purl.org/dc/elements/1.1/"
   xmlns:cc="http://creativecommons.org/ns#"
   xmlns:rdf="http://www.w3.org/1999/02/22-rdf-syntax-ns#"
   xmlns:svg="http://www.w3.org/2000/svg"
   xmlns="http://www.w3.org/2000/svg"
   xmlns:sodipodi="http://sodipodi.sourceforge.net/DTD/sodipodi-0.dtd"
   xmlns:inkscape="http://www.inkscape.org/namespaces/inkscape"
   sodipodi:docname="A61.svg"
   inkscape:version="1.0 (4035a4fb49, 2020-05-01)"
   id="svg4296"
   version="1.1"
   viewBox="0 0 17.313671 38.075188"
   height="38.075188mm"
   width="17.313671mm">
  <defs
     id="defs4290">
    <rect
       id="rect4861"
       height="143.63095"
       width="88.446426"
       y="12.85119"
       x="8.3154764" />
  </defs>
  <sodipodi:namedview
     inkscape:window-maximized="1"
     inkscape:window-y="-8"
     inkscape:window-x="-8"
     inkscape:window-height="1017"
     inkscape:window-width="1920"
     fit-margin-bottom="0"
     fit-margin-right="0"
     fit-margin-left="0"
     fit-margin-top="0"
     showgrid="false"
     inkscape:document-rotation="0"
     inkscape:current-layer="layer1"
     inkscape:document-units="mm"
     inkscape:cy="478.47843"
     inkscape:cx="363.88043"
     inkscape:zoom="0.35"
     inkscape:pageshadow="2"
     inkscape:pageopacity="0.0"
     borderopacity="1.0"
     bordercolor="#666666"
     pagecolor="#ffffff"
     id="base" />
  <metadata
     id="metadata4293">
    <rdf:RDF>
      <cc:Work
         rdf:about="">
        <dc:format>image/svg+xml</dc:format>
        <dc:type
           rdf:resource="http://purl.org/dc/dcmitype/StillImage" />
        <dc:title></dc:title>
      </cc:Work>
    </rdf:RDF>
  </metadata>
  <g
     transform="translate(-9.5566363,-21.569248)"
     id="layer1"
     inkscape:groupmode="layer"
     inkscape:label="Layer 1">
    <g
       style="font-style:normal;font-variant:normal;font-weight:normal;font-stretch:normal;font-size:50.8px;line-height:1.25;font-family:sans-serif;-inkscape-font-specification:sans-serif;font-variant-ligatures:normal;font-variant-caps:normal;font-variant-numeric:normal;font-feature-settings:normal;text-align:start;letter-spacing:0px;word-spacing:0px;writing-mode:lr-tb;text-anchor:start;white-space:pre;shape-inside:url(#rect4861);fill:#000000;fill-opacity:1;stroke:none"
       id="text4859"
       aria-label="ð“†">
      <path
         id="path4865"
         d="m 26.175781,36.724895 0.04961,0.520899 q 0,0.297656 0.02481,0.620117 0,0.843359 -0.02481,1.413867 l -0.04961,1.190625 q 0,0.694531 0.07441,1.389063 0.124023,0.173632 0.297656,0.520898 0.198438,0.322461 0.322461,0.496094 l -0.248047,0.347265 -0.322461,0.09922 0.42168,0.595313 -0.719336,0.818554 -0.42168,0.09922 -0.124023,-0.07441 q -0.04961,-0.04961 -0.09922,-0.07441 L 25.233198,44.6376 q -0.272852,-0.446485 -0.496094,-1.438672 -0.223242,-1.016992 -0.223242,-2.133203 v -0.79375 q -0.04961,-1.860352 -0.223242,-2.852539 -0.173633,-1.016993 -0.84336,-2.505274 -0.644921,-1.513086 -1.240234,-1.860351 -0.396875,0.992187 -0.620117,2.480468 -0.198438,1.463477 -0.198438,2.778125 0.620118,1.141016 0.84336,2.629297 0.223242,1.488281 0.223242,3.026172 0,1.513086 -0.148828,2.902148 -0.148828,1.364258 -0.07441,1.513086 0.09922,0.148828 0.09922,1.934766 l -0.0248,1.909961 v 1.289844 q 0,0.967382 0.04961,1.934765 0.04961,0.967383 0.198438,1.934766 0.471289,0.421679 0.471289,1.016992 0,0.396875 -0.272852,0.744141 -0.248047,0.32246 -0.818555,0.446484 -0.272851,0 -0.520898,-0.148828 l -0.520898,-0.248047 -3.125391,0.396875 -0.37207,-0.322461 q -0.04961,-0.198438 -0.07441,-0.248047 -0.02481,-0.07441 -0.02481,-0.148828 l 0.04961,-0.272852 q 0.07441,-0.396875 1.413868,-0.818554 1.339453,-0.42168 1.835546,-1.116211 0,-1.63711 -0.570507,-4.167188 -0.570508,-2.530078 -0.620118,-4.117578 h -1.265039 l -0.148828,0.868164 q -0.04961,0.372071 -0.248047,1.190625 -0.173632,0.818555 -0.272851,1.289844 l -0.669727,2.654102 q -0.37207,1.612304 -0.644922,3.447851 -0.272851,1.810742 -1.314648,1.810742 -0.248047,0 -0.620117,-0.124023 -0.372071,-0.124024 -0.570508,-0.322461 -0.694531,0 -1.364258,0.173633 -0.669726,0.173633 -1.314648,0.173633 -0.520899,0 -1.0169924,-0.173633 l -0.1984375,-0.570508 0.099219,-0.198438 q 0.6201169,-0.272851 2.0835939,-0.644921 1.488281,-0.372071 2.33164,-1.041797 0.42168,-0.868164 0.545703,-1.785938 0.124024,-0.942578 0.124024,-1.909961 0,-0.347265 -0.02481,-0.694531 v -1.289844 q 0,-0.868164 0.07441,-1.686718 0.09922,-0.84336 0.396875,-1.63711 l 0.37207,-2.654101 0.396875,-2.926953 q 0.148829,-1.016993 0.372071,-2.703711 0.248047,-1.686719 0.248047,-2.654102 -0.04961,-1.066601 -0.173633,-1.95957 -0.09922,-0.917773 -0.223242,-1.637109 -0.372071,0.520898 -0.595313,1.141015 -0.223242,0.595313 -0.42168,1.265039 l -0.396875,1.413867 q -0.471289,1.63711 -1.389062,2.728516 -0.917774,1.091406 -1.835547,2.430859 0,0.248047 0.07441,0.496094 l 0.04961,0.446484 q 0,0.272852 0.0248,0.47129 l -0.272851,0.272851 h -0.248047 q 0,-0.124023 -0.07441,-0.198437 l -0.124024,-0.09922 q -0.09922,-0.04961 -0.173633,-0.07441 -0.07441,0.148828 -0.09922,0.37207 -0.0248,0.223242 -0.0248,0.545703 l -0.818555,0.198438 -0.2976557,-0.07441 -0.099219,-0.446485 q -0.049609,-0.198437 -0.074414,-0.446484 -0.024805,-0.272852 -0.024805,-0.545703 0,-0.967383 0.8929687,-2.232422 0.892969,-1.265039 1.389063,-2.158008 0.520898,-0.917773 0.868164,-2.158008 0.37207,-1.240234 0.967383,-3.348632 0.620117,-2.133203 1.438672,-2.951758 0.818554,-0.818555 1.438671,-1.066602 0.644922,-0.248047 0.719336,-0.496093 v -0.496094 q -0.669726,-0.818555 -1.240234,-1.736328 -0.570508,-0.917774 -0.570508,-2.00918 0,-1.488281 0.917774,-2.257226 0.942578,-0.79375 2.505273,-0.79375 1.141016,0 2.00918,0.446484 0.892968,0.446484 1.240234,1.463476 0,0.471289 0.124023,0.84336 0.148829,0.37207 0.297657,0.694531 l 0.297656,0.669727 q 0.124023,0.347265 0.124023,0.719336 -0.124023,0.09922 -0.223242,0.198437 l -0.198437,0.198438 v 0.793749 l -0.173633,0.322461 q -0.347266,0.248047 -0.79375,0.297657 -0.42168,0.04961 -0.694531,0.322461 v 0.124023 l 0.0248,0.173633 q 1.885157,0.223242 3.299024,2.703711 1.438672,2.455664 1.95957,5.184179 z m -8.830469,2.455664 q -0.570507,4.241602 -1.116211,8.408789 h 5.208985 q 0.09922,-0.74414 0.148828,-1.686718 0.07441,-0.942579 0.07441,-1.984375 0,-1.438672 -0.198438,-2.80293 -0.198437,-1.389063 -0.694531,-2.282031 l -2.009179,0.198437 q -0.570508,0.04961 -1.413868,0.148828 z m 2.852539,-9.921874 q 0,-0.124024 -0.0248,-0.272852 l -0.02481,-0.248047 q 0,-0.967383 0.719336,-1.116211 0.744141,-0.173633 0.892969,-0.223242 V 26.48056 l 0.347265,-0.446485 -0.09922,-0.248047 -0.173633,-0.322461 Q 21.5125,24.84345 21.388476,24.148919 l -0.09922,-0.496094 -0.07441,-0.297656 q -0.372071,-0.520898 -1.091407,-0.744141 -0.694531,-0.248046 -1.488281,-0.248046 -1.116211,0 -1.736328,0.570507 -0.620117,0.570508 -0.620117,1.661914 0,0.84336 0.37207,1.5875 0.37207,0.719336 0.917774,1.289844 l 0.595312,0.644922 v 1.066601 l -0.148828,0.173633 q -0.07441,0.09922 -0.148828,0.223242 -0.272852,0.07442 -0.496094,0.173633 l -0.42168,0.173633 -0.37207,0.173633 q -0.843359,0.446484 -1.389062,1.513086 -0.545704,1.041797 -0.942579,2.604492 l -0.471289,1.761133 q -0.74414,2.902148 -2.182812,4.71289 -1.413867,1.810742 -1.413867,2.877344 v 0.272852 q 0,0.09922 0.0248,0.173632 l 0.148829,0.02481 q 0,-0.42168 0.148828,-0.79375 0.148828,-0.396875 0.297656,-0.644922 l 0.42168,0.818555 0.07441,-0.198438 -0.223242,-1.16582 q 0.570507,-0.843359 1.562695,-2.158008 1.016992,-1.339453 1.463476,-2.678906 L 14.6664,35.410252 q 0.297656,-0.942578 0.644922,-1.860352 0.37207,-0.917773 0.892969,-1.53789 h 0.79375 q 0,1.190625 0.248047,2.703711 0.248046,1.513086 0.248046,2.579687 v 0.520899 q 0,0.272851 -0.04961,0.545703 l 3.150195,-0.297657 q 0,-1.612304 0.297657,-3.249414 0.297656,-1.637109 0.79375,-2.480468 l 0.570507,-0.148828 q 1.016993,0.471289 1.785938,2.257226 0.768945,1.785938 0.868164,2.38125 l 0.09922,0.620117 q 0.04961,0.322461 0.07441,0.620117 0.0248,0.272852 0.0248,0.42168 0,1.909961 0.07441,3.398242 0.07442,1.463477 0.496094,2.232422 0.173633,-0.07441 0.372071,-0.248047 -0.198438,-0.198437 -0.322461,-0.446484 -0.09922,-0.272852 -0.173633,-0.768945 l 0.272851,0.09922 q 0.124024,0.07441 0.248047,0.248047 l 0.02481,-0.0248 q 0.04961,0 0.07441,-0.04961 -0.04961,-0.272851 -0.223242,-0.471289 -0.173633,-0.223242 -0.446485,-0.322461 l 0.02481,-1.16582 V 39.50302 l -0.04961,-2.083593 q -0.07441,-1.413868 -0.744141,-3.199805 -0.669726,-1.810742 -1.53789,-3.075781 -0.868165,-1.289844 -2.629297,-1.562696 z m 1.5875,28.401366 q -0.173632,-1.041797 -0.223242,-2.083593 -0.02481,-1.066602 -0.02481,-2.133204 v -3.720703 q 0,-0.347265 0,-0.669726 0,-0.347266 -0.07441,-0.669727 H 20.19785 q 0.124024,1.63711 0.471289,3.249414 0.347266,1.5875 0.570508,3.22461 l 0.173633,1.240234 q 0,0.198438 0.0248,0.297656 0,1.141016 -1.5875,1.785938 -1.562696,0.620117 -1.686719,0.669726 0.620117,-0.09922 1.21543,-0.248047 0.595312,-0.173632 1.091406,-0.173632 0.322461,0 0.644922,0.09922 0.347265,0.07441 0.768945,0.272852 0.223242,0 0.272852,-0.173633 0.07441,-0.173633 0.07441,-0.37207 0,-0.148828 -0.09922,-0.223242 -0.09922,-0.07441 -0.223242,-0.148829 z m -6.970117,-0.148828 q -0.223242,0.148828 -0.595312,0.322461 -0.372071,0.173633 -0.84336,0.322461 l -0.967382,0.322461 q -0.520899,0.173633 -1.016993,0.297656 l 0.446485,-0.09922 1.463476,-0.223242 q 0.347266,-0.04961 0.471289,-0.04961 0.272852,0.07441 0.446485,0.223242 0.173633,0.148828 0.496094,0.173633 0.595312,0 0.669726,-1.16582 0.09922,-1.165821 0.545703,-2.926953 l 0.520899,-2.108399 q 0.248046,-1.041797 0.471289,-2.083594 0.248047,-1.066601 0.396875,-2.133203 h -1.265039 q -0.223243,0.694532 -0.272852,1.711524 -0.04961,1.016992 -0.04961,2.802929 0,1.141016 -0.124024,2.257227 -0.124023,1.116211 -0.644922,2.158008 z m 5.506641,-32.568554 q 0.297656,-0.297656 0.471289,-0.297656 l 0.272851,0.297656 0.02481,0.173633 q 0,0.148828 -0.124023,0.148828 -0.223242,0 -0.644922,-0.322461 z" />
    </g>
  </g>
</svg>
