<?xml version="1.0" encoding="UTF-8" standalone="no"?>
<!-- Created with Inkscape (http://www.inkscape.org/) -->

<svg
   xmlns:dc="http://purl.org/dc/elements/1.1/"
   xmlns:cc="http://creativecommons.org/ns#"
   xmlns:rdf="http://www.w3.org/1999/02/22-rdf-syntax-ns#"
   xmlns:svg="http://www.w3.org/2000/svg"
   xmlns="http://www.w3.org/2000/svg"
   xmlns:sodipodi="http://sodipodi.sourceforge.net/DTD/sodipodi-0.dtd"
   xmlns:inkscape="http://www.inkscape.org/namespaces/inkscape"
   width="31.70039mm"
   height="38.174393mm"
   viewBox="0 0 31.700389 38.174392"
   version="1.1"
   id="svg4525"
   inkscape:version="0.92.4 (5da689c313, 2019-01-14)"
   sodipodi:docname="A6A.svg">
  <defs
     id="defs4519" />
  <sodipodi:namedview
     id="base"
     pagecolor="#ffffff"
     bordercolor="#666666"
     borderopacity="1.0"
     inkscape:pageopacity="0.0"
     inkscape:pageshadow="2"
     inkscape:zoom="0.35"
     inkscape:cx="427.58825"
     inkscape:cy="-152.84942"
     inkscape:document-units="mm"
     inkscape:current-layer="layer1"
     showgrid="false"
     fit-margin-top="0"
     fit-margin-left="0"
     fit-margin-right="0"
     fit-margin-bottom="0"
     inkscape:window-width="1920"
     inkscape:window-height="1017"
     inkscape:window-x="-8"
     inkscape:window-y="-8"
     inkscape:window-maximized="1" />
  <metadata
     id="metadata4522">
    <rdf:RDF>
      <cc:Work
         rdf:about="">
        <dc:format>image/svg+xml</dc:format>
        <dc:type
           rdf:resource="http://purl.org/dc/dcmitype/StillImage" />
        <dc:title></dc:title>
      </cc:Work>
    </rdf:RDF>
  </metadata>
  <g
     inkscape:label="Layer 1"
     inkscape:groupmode="layer"
     id="layer1"
     transform="translate(200.44522,-70.217526)">
    <g
       aria-label="𓀉"
       style="font-style:normal;font-variant:normal;font-weight:normal;font-stretch:normal;font-size:50.79999924px;line-height:1.25;font-family:sans-serif;-inkscape-font-specification:sans-serif;font-variant-ligatures:normal;font-variant-caps:normal;font-variant-numeric:normal;font-feature-settings:normal;text-align:start;letter-spacing:0px;word-spacing:0px;writing-mode:lr-tb;text-anchor:start;fill:#000000;fill-opacity:1;stroke:none;stroke-width:0.26458332"
       id="text5105" />
    <g
       aria-label="𓀇"
       style="font-style:normal;font-variant:normal;font-weight:normal;font-stretch:normal;font-size:50.79999924px;line-height:1.25;font-family:sans-serif;-inkscape-font-specification:sans-serif;font-variant-ligatures:normal;font-variant-caps:normal;font-variant-numeric:normal;font-feature-settings:normal;text-align:start;letter-spacing:0px;word-spacing:0px;writing-mode:lr-tb;text-anchor:start;fill:#000000;fill-opacity:1;stroke:none;stroke-width:0.26458332"
       id="text5119">
      <path
         d="m -182.95792,75.972213 q 0.19844,-0.04961 0.42168,-0.07441 0.24805,-0.04961 0.54571,-0.04961 1.53789,0 2.6789,1.141016 1.14102,1.116211 1.14102,2.728515 0,0.744141 -0.14883,1.513086 -0.14883,0.744141 -0.34727,1.463477 1.26504,1.339453 2.23243,2.80293 l 1.98437,3.050976 q 2.40606,3.795117 3.67109,5.481836 1.28985,1.661914 1.28985,3.819922 0,0.79375 -0.19844,1.53789 -0.17363,0.744139 -0.64492,1.438669 0.99219,0.0992 1.28984,0.74414 0.29766,0.62012 0.29766,0.96738 v 0.17364 q 0,0.12402 -0.0248,0.19843 l -0.39687,1.19063 q -0.22324,0.62012 -0.22324,1.31465 v 0.22324 q 0,0.12402 0.0248,0.24805 l 0.0744,0.24804 q 0,0.14883 0.0248,0.27285 -0.0744,0.84336 -0.49609,1.41387 -0.39688,0.5457 -1.017,0.5457 h -1.5875 l -0.37207,-0.47128 q 0,-0.5209 0.19844,-0.71934 0.22324,-0.19844 0.57051,-0.19844 0.24805,0 0.62012,0.0744 0.12402,-0.12403 0.19843,-0.32247 v -0.32246 q 0,-0.79375 -0.0248,-1.56269 -0.0248,-0.79375 -0.17363,-1.5875 -2.05879,0.64492 -6.59805,2.90215 -4.51445,2.23242 -7.81348,2.23242 -1.28984,0 -1.73632,-0.47129 -0.44649,-0.49609 -0.44649,-1.21543 0,-1.83555 1.98438,-3.57187 1.98437,-1.73633 4.21679,-3.447852 2.23242,-1.736329 4.83692,-2.852539 l 1.0666,-0.322461 q -0.44649,-0.768946 -2.0836,-3.59668 -1.6123,-2.852539 -3.29902,-4.886523 -0.24805,1.5875 -0.81855,3.299023 -0.57051,1.711523 -1.38907,3.447852 -0.81855,1.711523 -2.20761,3.993554 -1.36426,2.257226 -1.33946,2.480466 0.0248,0.19844 -0.34726,0.99219 -0.34727,0.76894 -0.71934,1.19062 -0.47129,0.57051 -1.24023,1.21543 -0.74414,0.62012 -0.96738,0.62012 h 1.31464 l 0.19844,0.19844 q 0.0992,0.0992 0.22324,0.19843 v 2.33164 q -0.12402,0.0992 -0.22324,0.19844 l -0.19844,0.19844 h -7.68945 l -0.37207,-0.47129 v -2.18281 l 0.37207,-0.47129 h 6.10195 q -0.12402,-0.0496 -0.24804,-0.12403 -0.0992,-0.0744 -0.19844,-0.12402 l -0.12402,-0.66973 q 0.12402,-0.12402 0.37207,-0.32246 0.27285,-0.22324 0.5705,-0.52089 l -0.0496,0.0248 -0.19843,-0.14883 -0.19844,-0.0992 -0.12402,-0.66972 q 1.33945,-1.61231 2.28203,-3.224609 0.96738,-1.612304 1.68672,-3.323828 -0.69453,0.818555 -1.41387,1.612305 -0.71934,0.79375 -1.46348,1.562695 -0.5457,1.413867 -1.6123,2.232417 -1.0666,0.81856 -2.43086,1.36426 -0.12402,-0.0496 -0.37207,-0.0992 l -0.44649,-0.37207 0.12403,-0.66973 0.47129,-0.27285 q 0.27285,-0.14883 0.62011,-0.37207 l -0.14882,0.0248 q -0.0744,-0.0992 -0.14883,-0.17364 l -0.19844,-0.14882 v -0.59532 q 5.23379,-4.2664 7.81348,-9.996282 2.60449,-5.754688 3.39824,-6.697266 -0.0992,0 -0.17363,-0.0248 h -0.17364 q -0.49609,0 -0.79375,0.07441 -0.29765,0.04961 -0.66972,0.04961 -0.57051,0 -0.94258,-0.272852 -0.34727,-0.272851 -0.34727,-0.79375 v -0.248046 l -0.39687,-0.148829 q -0.19844,-0.07441 -0.39688,-0.124023 l -0.12402,-0.223242 q -0.0744,-0.09922 -0.12402,-0.223242 0,-0.570508 0.32246,-1.041797 l 0.62011,-0.917774 q 0.14883,-0.223242 0.14883,-0.545703 l -0.0248,-0.124023 q 0,-0.595313 0.64492,-1.488281 0.66973,-0.892969 1.66191,-1.314649 z m 1.86035,10.814843 q 1.78594,2.182813 3.175,4.564063 1.41387,2.38125 2.82774,4.836914 l 4.01836,-1.190625 q -2.90215,-4.142383 -4.78731,-7.118945 -1.86035,-3.001368 -3.47265,-4.737696 -0.84336,-0.347265 -1.33946,-0.347265 -0.44648,0 -1.04179,0.818554 -0.57051,0.818555 -0.86817,1.562696 z m -5.20898,17.809764 q -0.12402,0.12403 -0.19844,0.24805 l -0.17363,0.24805 q -0.14883,0.24804 -0.34727,0.71933 -0.17363,0.47129 -0.17363,0.89297 0,0.47129 0.32246,0.69453 0.32246,0.22324 1.26504,0.22324 2.95176,0 7.56543,-2.30683 4.63848,-2.30684 6.74688,-2.90215 l 0.37207,0.0496 q 0.32246,0.19844 0.37207,0.57051 l 0.0992,0.74414 q 0.0496,0.32246 0.0496,0.47129 0,0.22324 0.0248,0.64492 0.0496,0.39687 0.0496,1.0666 0,0.49609 -0.0744,0.94258 -0.0744,0.42168 -0.34727,0.69453 0.27285,-0.0744 0.42168,-0.32246 0.17363,-0.27285 0.27285,-0.84336 -0.0744,-0.27285 -0.0992,-0.5209 -0.0248,-0.27285 -0.0248,-0.5457 0,-0.69453 0.17363,-1.36426 0.19844,-0.66973 0.47129,-1.31465 0,-0.57051 -0.22324,-0.81855 -0.19844,-0.27286 -1.26504,-0.27286 l -0.0248,0.0496 q -0.0496,0.0496 -0.91777,0.54571 -0.86816,0.47129 -2.53008,0.84336 l -2.60449,0.62011 q -0.66973,0.17364 -1.0666,0.29766 l -1.48828,0.49609 q -0.22325,0.0744 -0.44649,0.17364 l -0.57051,0.24804 q -1.28984,0.57051 -2.38125,1.26504 -1.0666,0.66973 -1.51308,0.66973 -0.47129,0 -0.89297,-0.5209 -0.42168,-0.5457 -0.62012,-1.11621 z m 10.54199,-2.1084 1.33946,-0.27285 q 1.73632,-0.37207 2.40605,-0.86816 0.69453,-0.4961 1.21543,-1.36426 0.5209,-0.868164 0.5209,-2.108399 0,-0.545703 -0.0992,-1.066601 -0.0744,-0.545703 -0.22324,-1.116211 -2.82774,0.917773 -5.8043,1.860352 -2.95176,0.917773 -7.14375,4.564059 l -2.08359,1.83555 q 0,0.17363 0.12402,0.5457 l 0.17363,0.54571 q 0.14883,0.32246 0.37207,0.59531 0.22325,0.24805 0.54571,0.34726 1.86035,-1.16582 4.2664,-2.10839 2.40606,-0.96739 4.39043,-1.38907 z m -8.78086,-24.30859 q 0.32246,0.124023 0.62012,0.272851 0.29766,0.124024 0.62012,0.248047 0.29765,-0.471289 0.79375,-0.471289 0.47129,0 0.81855,0.496094 0.34727,0.471289 0.34727,0.992187 0,0.297657 -0.14883,0.545704 -0.12402,0.223242 -0.47129,0.347265 -0.0496,0.124024 -0.0496,0.37207 0,0.322461 0.0248,0.372071 0.0496,0.04961 0.19843,0.09922 l 0.76895,0.396875 q 0.19844,0.09922 0.32246,0.173632 0.32246,0 0.62012,0.07441 0.29765,0.07441 0.69453,0.198438 0.17363,-0.570508 0.29765,-1.265039 0.12403,-0.694531 0.12403,-1.289844 0,-1.289844 -0.84336,-2.182812 -0.81856,-0.892969 -2.1332,-0.942578 -0.94258,0 -1.61231,0.471289 -0.64492,0.471289 -0.99219,1.091406 z m -11.6582,29.41836 h 6.8957 v -1.53789 h -6.8957 z m 11.80703,-18.901173 -1.28984,2.678906 q -1.09141,2.282032 -2.53008,4.216797 -1.43867,1.909961 -3.34863,3.695899 l 0.39687,0.248046 q 0,0.644925 -0.47129,1.141015 -0.47129,0.49609 -0.96738,0.81856 1.36426,-0.76895 1.83555,-1.736332 0.47129,-0.992188 0.5209,-1.041797 l 2.23242,-2.455664 q 2.05879,-2.282031 2.15801,-2.604492 0.12402,-0.347266 0.59531,-1.810743 0.49609,-1.488281 0.86816,-3.150195 z m 1.51309,-2.678906 -0.14883,0.545703 -0.44648,1.736328 -0.59532,2.133203 q -1.28984,4.588867 -2.35644,6.846094 -1.0666,2.232422 -2.38125,4.092771 0.12402,0.0496 0.22324,0.0744 l 0.22324,0.0496 q 0,0.0992 0.0248,0.29765 0,0.42168 -0.19844,0.84336 -0.17363,0.39688 -0.44649,0.74414 0.91778,-0.99219 1.0418,-1.76113 0.14883,-0.76895 0.29766,-1.01699 l 1.0666,-1.78594 q 1.26504,-2.108399 2.35644,-4.241602 1.09141,-2.158008 1.73633,-4.489648 l 0.22324,-0.768946 q 0.12403,-0.421679 0.24805,-0.992187 0.12403,-0.595313 0.14883,-1.16582 z m -2.43086,-5.705078 q -0.17363,0.248047 -0.34727,0.471289 -0.17363,0.223242 -0.22324,0.545703 l 0.34727,0.09922 0.34726,0.148828 0.29766,0.37207 0.0496,0.396875 v 0.322461 q 0.17363,0.07441 0.39687,0.07441 0.27285,0 0.54571,-0.04961 0.29765,-0.04961 0.59531,-0.04961 0.32246,0 0.62012,0 0.32246,0 0.62011,0.09922 0.14883,-0.198437 0.32246,-0.322461 -0.27285,-0.124023 -0.5457,-0.248047 -0.24805,-0.148828 -0.29766,-0.272851 -0.0496,-0.04961 -0.14882,-0.297656 -0.0992,-0.248047 -0.0992,-0.595313 0,-0.37207 0.14883,-0.669726 0.14882,-0.297657 0.49609,-0.496094 V 79.71772 q 0,-0.09922 -0.0496,-0.347265 -0.0248,-0.248047 -0.29766,-0.322461 l -0.0992,0.124023 q -0.0744,0.07441 -0.0992,0.148828 -0.0744,0.04961 -0.24805,0.124024 -0.14883,0.04961 -0.27285,0.124023 -0.22324,-0.04961 -0.71934,-0.223242 -0.47129,-0.173633 -0.89297,-0.37207 0,0.09922 -0.0496,0.322461 -0.0248,0.198437 -0.0744,0.347265 z m 4.21679,-5.630664 q -0.34726,0 -0.66972,0.173633 -0.32246,0.148828 -0.66973,0.520898 l -0.79375,-0.248047 v -1.53789 h -5.60586 l -1.41386,1.413867 -2.0836,0.595312 -1.11621,2.207618 -2.18281,0.595312 v 2.455664 l -1.5627,1.289844 0.4961,2.158008 -1.63711,2.480468 0.39687,2.232422 -1.53789,1.860352 1.19063,2.306836 -1.19063,2.406054 1.19063,2.207617 -1.19063,2.182813 1.53789,3.57187 -1.19062,4.44004 h -0.91778 l 1.14102,-4.41523 -1.53789,-3.59668 1.21543,-2.182813 -1.21543,-2.207617 1.21543,-2.406054 -1.21543,-2.38125 1.66191,-1.810743 -0.47129,-2.207617 1.73633,-2.480468 -0.5209,-2.306836 1.66192,-1.463477 v -2.75332 l 2.40605,-0.545703 1.11621,-2.43086 2.15801,-0.520898 q 0.34727,-0.07441 1.46348,-1.488281 h 6.00273 v -1.537891 q 0.34727,-0.173633 0.71934,-0.322461 0.27285,0.272852 0.5457,0.396875 0.29766,0.09922 0.59531,0.09922 0.69453,0 1.63711,-0.595313 0.94258,-0.620117 1.88516,-0.620117 1.14101,0 2.1332,0.570508 1.01699,0.570508 1.01699,2.207617 0,1.190625 -0.76894,1.959571 -0.76895,0.74414 -2.00918,0.74414 -1.46348,0 -2.23242,-0.496094 -0.74414,-0.520898 -1.38907,-0.520899 z m 3.44786,0.272852 q 1.0666,0 1.6123,-0.570508 0.5457,-0.570508 0.5457,-1.488282 0,-0.967382 -0.66972,-1.389062 -0.64492,-0.446484 -1.68672,-0.446484 -0.71934,0 -0.96738,0.198437 -0.22325,0.173633 -1.16582,0.595313 -0.94258,0.396875 -1.33946,0.396875 -0.5705,0 -1.11621,-0.272852 v 2.331641 q 0.34727,-0.248047 0.66973,-0.322461 0.32246,-0.09922 0.66972,-0.09922 0.64493,0 1.33946,0.37207 0.71933,0.372071 0.94258,0.545703 0.22324,0.148829 1.16582,0.14883 z m -6.00274,5.283398 q -0.59531,0.272851 -0.81855,0.272851 -0.24805,0 -0.24805,-0.248046 0,-0.520899 0.32246,-0.520899 0.24805,0 0.74414,0.496094 z"
         style="stroke-width:0.26458332"
         id="path5121"
         inkscape:connector-curvature="0" />
    </g>
  </g>
</svg>
