<?xml version="1.0" encoding="UTF-8" standalone="no"?>
<!-- Created with Inkscape (http://www.inkscape.org/) -->

<svg
   xmlns:dc="http://purl.org/dc/elements/1.1/"
   xmlns:cc="http://creativecommons.org/ns#"
   xmlns:rdf="http://www.w3.org/1999/02/22-rdf-syntax-ns#"
   xmlns:svg="http://www.w3.org/2000/svg"
   xmlns="http://www.w3.org/2000/svg"
   xmlns:sodipodi="http://sodipodi.sourceforge.net/DTD/sodipodi-0.dtd"
   xmlns:inkscape="http://www.inkscape.org/namespaces/inkscape"
   width="31.70039mm"
   height="38.174412mm"
   viewBox="0 0 31.700389 38.174411"
   version="1.1"
   id="svg4525"
   inkscape:version="0.92.4 (5da689c313, 2019-01-14)"
   sodipodi:docname="A6B.svg">
  <defs
     id="defs4519" />
  <sodipodi:namedview
     id="base"
     pagecolor="#ffffff"
     bordercolor="#666666"
     borderopacity="1.0"
     inkscape:pageopacity="0.0"
     inkscape:pageshadow="2"
     inkscape:zoom="0.35"
     inkscape:cx="425.75817"
     inkscape:cy="-110.46708"
     inkscape:document-units="mm"
     inkscape:current-layer="layer1"
     showgrid="false"
     fit-margin-top="0"
     fit-margin-left="0"
     fit-margin-right="0"
     fit-margin-bottom="0"
     inkscape:window-width="1920"
     inkscape:window-height="1017"
     inkscape:window-x="-8"
     inkscape:window-y="-8"
     inkscape:window-maximized="1" />
  <metadata
     id="metadata4522">
    <rdf:RDF>
      <cc:Work
         rdf:about="">
        <dc:format>image/svg+xml</dc:format>
        <dc:type
           rdf:resource="http://purl.org/dc/dcmitype/StillImage" />
        <dc:title></dc:title>
      </cc:Work>
    </rdf:RDF>
  </metadata>
  <g
     inkscape:label="Layer 1"
     inkscape:groupmode="layer"
     id="layer1"
     transform="translate(199.96101,-81.431167)">
    <g
       aria-label="𓀉"
       style="font-style:normal;font-variant:normal;font-weight:normal;font-stretch:normal;font-size:50.79999924px;line-height:1.25;font-family:sans-serif;-inkscape-font-specification:sans-serif;font-variant-ligatures:normal;font-variant-caps:normal;font-variant-numeric:normal;font-feature-settings:normal;text-align:start;letter-spacing:0px;word-spacing:0px;writing-mode:lr-tb;text-anchor:start;fill:#000000;fill-opacity:1;stroke:none;stroke-width:0.26458332"
       id="text5105" />
    <g
       aria-label="𓀈"
       transform="matrix(0.26458333,0,0,0.26458333,-200.44522,70.217526)"
       style="font-style:normal;font-variant:normal;font-weight:normal;font-stretch:normal;font-size:192px;line-height:1.25;font-family:sans-serif;-inkscape-font-specification:sans-serif;font-variant-ligatures:normal;font-variant-caps:normal;font-variant-numeric:normal;font-feature-settings:normal;text-align:start;letter-spacing:0px;word-spacing:0px;writing-mode:lr-tb;text-anchor:start;fill:#000000;fill-opacity:1;stroke:none"
       id="flowRoot5124">
      <path
         d="m 67.923828,64.132265 q 0.75,-0.1875 1.59375,-0.28125 0.9375,-0.1875 2.0625,-0.1875 5.8125,0 10.125,4.3125 4.3125,4.21875 4.3125,10.3125 0,2.8125 -0.5625,5.71875 -0.5625,2.8125 -1.3125,5.53125 4.78125,5.0625 8.4375,10.593745 l 7.500002,11.53125 q 9.09375,14.34375 13.875,20.71875 4.875,6.28125 4.875,14.4375 0,3 -0.75,5.8125 -0.65625,2.8125 -2.4375,5.4375 3.75,0.375 4.875,2.8125 1.125,2.34375 1.125,3.65625 v 0.65625 q 0,0.46875 -0.0937,0.75 l -1.5,4.5 q -0.84375,2.34375 -0.84375,4.96875 v 0.84375 q 0,0.46875 0.0937,0.9375 l 0.28125,0.9375 q 0,0.5625 0.0937,1.03125 -0.28125,3.1875 -1.875,5.34375 -1.5,2.0625 -3.84375,2.0625 h -6 l -1.40625,-1.78125 q 0,-1.96875 0.75,-2.71875 0.84375,-0.75 2.15625,-0.75 0.9375,0 2.34375,0.28125 0.46875,-0.46875 0.75,-1.21875 v -1.21875 q 0,-3 -0.0937,-5.90625 -0.0937,-3 -0.65625,-6 -7.78125,2.4375 -24.937502,10.96875 -17.0625,8.4375 -29.53125,8.4375 -4.875,0 -6.5625,-1.78125 -1.6875,-1.875 -1.6875,-4.59375 0,-6.9375 7.5,-13.5 7.5,-6.5625 15.9375,-13.03125 8.4375,-6.5625 18.28125,-10.78125 l 4.03125,-1.21875 q -1.6875,-2.90625 -7.875,-13.59375 -6.09375,-10.78125 -12.46875,-18.46875 -0.9375,6 -3.09375,12.46875 -2.15625,6.46875 -5.25,13.03125 -3.09375,6.46875 -8.34375,15.09375 -5.15625,8.53125 -5.0625,9.375 0.09375,0.75 -1.3125,3.75 -1.3125,2.90625 -2.71875,4.5 -1.78125,2.15625 -4.6875,4.59375 -2.8125,2.34375 -3.65625,2.34375 h -1.03125 q -0.46875,-0.1875 -0.9375,-0.46875 -0.375,-0.28125 -0.75,-0.46875 l -0.46875,-2.53125 q 0.46875,-0.46875 1.40625,-1.21875 1.03125,-0.84375 2.15625,-1.96875 l -0.1875,0.0937 -0.75,-0.5625 -0.75,-0.375 -0.46875,-2.53125 q 5.0625,-6.09375 8.625,-12.1875 3.65625,-6.09375 6.375,-12.5625 -2.625,3.09375 -5.34375,6.09375 -2.71875,3 -5.53125,5.90625 -2.0625,5.34375 -6.09375,8.4375 -4.03125,3.09375 -9.1875,5.15625 -0.46875,-0.1875 -1.40625,-0.375 l -1.6875,-1.40625 0.46875,-2.53125 1.78125,-1.03125 q 1.03125,-0.5625 2.34375,-1.40625 l -0.5625,0.0937 q -0.28125,-0.375 -0.5625,-0.65625 l -0.75,-0.5625 v -2.25 q 19.78125,-16.125 29.53125,-37.78125 9.84375,-21.749995 12.84375,-25.312495 -0.375,0 -0.65625,-0.09375 h -0.65625 q -1.875,0 -3,0.28125 -1.125,0.1875 -2.53125,0.1875 -2.15625,0 -3.5625,-1.03125 -1.3125,-1.03125 -1.3125,-3 v -0.9375 l -1.5,-0.5625 q -0.75,-0.28125 -1.5,-0.46875 l -0.46875,-0.84375 q -0.28125,-0.375 -0.46875,-0.84375 0,-2.15625 1.21875,-3.9375 l 2.34375,-3.46875 q 0.5625,-0.84375 0.5625,-2.0625 l -0.09375,-0.46875 q 0,-2.25 2.4375,-5.625 2.53125,-3.375 6.28125,-4.96875 z m 7.03125,40.874995 q 6.75,8.25 12,17.25 5.34375,9 10.6875,18.28125 l 15.187502,-4.5 q -10.96875,-15.65625 -18.093752,-26.90625 -7.03125,-11.343745 -13.125,-17.906245 -3.1875,-1.3125 -5.0625,-1.3125 -1.6875,0 -3.9375,3.09375 -2.15625,3.09375 -3.28125,5.90625 z m -19.6875,67.3125 q -0.46875,0.46875 -0.75,0.9375 l -0.65625,0.9375 q -0.5625,0.9375 -1.3125,2.71875 -0.65625,1.78125 -0.65625,3.375 0,1.78125 1.21875,2.625 1.21875,0.84375 4.78125,0.84375 11.15625,0 28.59375,-8.71875 17.531252,-8.71875 25.500002,-10.96875 l 1.40625,0.1875 q 1.21875,0.75 1.40625,2.15625 l 0.375,2.8125 q 0.1875,1.21875 0.1875,1.78125 0,0.84375 0.0937,2.4375 0.1875,1.5 0.1875,4.03125 0,1.875 -0.28125,3.5625 -0.28125,1.59375 -1.3125,2.625 1.03125,-0.28125 1.59375,-1.21875 0.65625,-1.03125 1.03125,-3.1875 -0.28125,-1.03125 -0.375,-1.96875 -0.0937,-1.03125 -0.0937,-2.0625 0,-2.625 0.65625,-5.15625 0.75,-2.53125 1.78125,-4.96875 0,-2.15625 -0.84375,-3.09375 -0.75,-1.03125 -4.78125,-1.03125 l -0.0937,0.1875 q -0.1875,0.1875 -3.46875,2.0625 -3.28125,1.78125 -9.562502,3.1875 l -9.84375,2.34375 q -2.53125,0.65625 -4.03125,1.125 l -5.625,1.875 q -0.84375,0.28125 -1.6875,0.65625 l -2.15625,0.9375 q -4.875,2.15625 -9,4.78125 -4.03125,2.53125 -5.71875,2.53125 -1.78125,0 -3.375,-1.96875 -1.59375,-2.0625 -2.34375,-4.21875 z m 39.84375,-7.96875 5.062502,-1.03125 q 6.5625,-1.40625 9.09375,-3.28125 2.625,-1.875 4.59375,-5.15625 1.96875,-3.28125 1.96875,-7.96875 0,-2.0625 -0.375,-4.03125 -0.28125,-2.0625 -0.84375,-4.21875 -10.6875,3.46875 -21.937502,7.03125 -11.15625,3.46875 -27,17.25 l -7.875,6.9375 q 0,0.65625 0.46875,2.0625 l 0.65625,2.0625 q 0.5625,1.21875 1.40625,2.25 0.84375,0.9375 2.0625,1.3125 7.03125,-4.40625 16.125,-7.96875 9.09375,-3.65625 16.59375,-5.25 z m -33.1875,-91.874995 q 1.21875,0.46875 2.34375,1.03125 1.125,0.46875 2.34375,0.9375 1.125,-1.78125 3,-1.78125 1.78125,0 3.09375,1.875 1.3125,1.78125 1.3125,3.75 0,1.125 -0.5625,2.0625 -0.46875,0.84375 -1.78125,1.3125 -0.1875,0.46875 -0.1875,1.40625 0,1.21875 0.09375,1.40625 0.1875,0.1875 0.75,0.375 l 2.90625,1.5 q 0.75,0.375 1.21875,0.65625 1.21875,0 2.34375,0.28125 1.125,0.28125 2.625,0.75 0.65625,-2.15625 1.125,-4.78125 0.46875,-2.625 0.46875,-4.875 0,-4.875 -3.1875,-8.25 -3.09375,-3.375 -8.0625,-3.5625 -3.5625,0 -6.09375,1.78125 -2.4375,1.78125 -3.75,4.125 z m 0.5625,39.749995 -4.875,10.125 q -4.125,8.625 -9.5625,15.9375 -5.4375,7.21875 -12.65625,13.96875 l 1.5,0.9375 q 0,2.4375 -1.78125,4.3125 -1.78125,1.875 -3.65625,3.09375 5.15625,-2.90625 6.9375,-6.5625 1.78125,-3.75 1.96875,-3.9375 l 8.4375,-9.28125 q 7.78125,-8.625 8.15625,-9.84375 0.46875,-1.3125 2.25,-6.84375 1.875,-5.625 3.28125,-11.90625 z m 5.71875,-10.125 -0.5625,2.0625 -1.6875,6.5625 -2.25,8.0625 q -4.875,17.34375 -8.90625,25.875 -4.03125,8.4375 -9,15.46875 0.46875,0.1875 0.84375,0.28125 l 0.84375,0.1875 q 0,0.375 0.09375,1.125 0,1.59375 -0.75,3.1875 -0.65625,1.5 -1.6875,2.8125 3.46875,-3.75 3.9375,-6.65625 0.5625,-2.90625 1.125,-3.84375 l 4.03125,-6.75 q 4.78125,-7.96875 8.90625,-16.03125 4.125,-8.15625 6.5625,-16.96875 l 0.84375,-2.90625 q 0.46875,-1.59375 0.9375,-3.75 0.46875,-2.25 0.5625,-4.40625 z m -9.1875,-21.562495 q -0.65625,0.9375 -1.3125,1.78125 -0.65625,0.84375 -0.84375,2.0625 l 1.3125,0.375 1.3125,0.5625 1.125,1.40625 0.1875,1.5 v 1.21875 q 0.65625,0.28125 1.5,0.28125 1.03125,0 2.0625,-0.1875 1.125,-0.1875 2.25,-0.1875 1.21875,0 2.34375,0 1.21875,0 2.34375,0.375 0.5625,-0.75 1.21875,-1.21875 -1.03125,-0.46875 -2.0625,-0.9375 -0.9375,-0.5625 -1.125,-1.03125 -0.1875,-0.1875 -0.5625,-1.125 -0.375,-0.9375 -0.375,-2.25 0,-1.40625 0.5625,-2.53125 0.5625,-1.125 1.875,-1.875 v -0.46875 q 0,-0.375 -0.1875,-1.3125 -0.09375,-0.9375 -1.125,-1.21875 l -0.375,0.46875 q -0.28125,0.28125 -0.375,0.5625 -0.28125,0.1875 -0.9375,0.46875 -0.5625,0.1875 -1.03125,0.46875 -0.84375,-0.1875 -2.71875,-0.84375 -1.78125,-0.65625 -3.375,-1.40625 0,0.375 -0.1875,1.21875 -0.09375,0.75 -0.28125,1.3125 z m 15.9375,-21.28125 q -1.3125,0 -2.53125,0.65625 -1.21875,0.5625 -2.53125,1.96875 l -3,-0.9375 v -5.8125 h -21.1875 l -5.34375,5.34375 -7.875,2.25 -4.21875,8.34375 -8.25,2.25 v 9.28125 l -5.90625,4.875 1.875,8.15625 -6.1874999,9.374995 1.4999999,8.4375 -5.8124999,7.03125 4.5,8.71875 -4.5,9.09375 4.5,8.34375 -4.5,8.25 5.8124999,13.5 -4.4999999,16.78125 h -3.46875 l 4.3125,-16.6875 -5.8125,-13.59375 4.59375,-8.25 -4.59375,-8.34375 4.59375,-9.09375 -4.59375,-9 6.28125,-6.84375 -1.78125,-8.34375 6.5624999,-9.374995 -1.96875,-8.71875 6.28125,-5.53125 v -10.40625 l 9.09375,-2.0625 4.21875,-9.1875 8.15625,-1.96875 q 1.3125,-0.28125 5.53125,-5.625 h 22.6875 v -5.8125 q 1.3125,-0.65625 2.71875,-1.21875 1.03125,1.03125 2.0625,1.5 1.125,0.375 2.25,0.375 2.625,0 6.1875,-2.25 3.5625,-2.34375 7.125,-2.34375 4.3125,0 8.0625,2.15625 3.84375,2.15625 3.84375,8.34375 0,4.5 -2.90625,7.40625 -2.90625,2.8125 -7.59375,2.8125 -5.53125,0 -8.4375,-1.875 -2.8125,-1.96875 -5.25,-1.96875 z m 13.03125,1.03125 q 4.03125,0 6.09375,-2.15625 2.0625,-2.15625 2.0625,-5.625 0,-3.65625 -2.53125,-5.25 -2.4375,-1.6875 -6.375,-1.6875 -2.71875,0 -3.65625,0.75 -0.84375,0.65625 -4.40625,2.25 -3.5625,1.5 -5.0625,1.5 -2.15625,0 -4.21875,-1.03125 v 8.8125 q 1.3125,-0.9375 2.53125,-1.21875 1.21875,-0.375 2.53125,-0.375 2.4375,0 5.0625,1.40625 2.71875,1.40625 3.5625,2.0625 0.84375,0.5625 4.40625,0.5625 z m -22.6875,19.96875 q -2.25,1.03125 -3.09375,1.03125 -0.9375,0 -0.9375,-0.9375 0,-1.96875 1.21875,-1.96875 0.9375,0 2.8125,1.875 z"
         id="path5132"
         inkscape:connector-curvature="0" />
    </g>
  </g>
</svg>
