<?xml version="1.0" encoding="UTF-8" standalone="no"?>
<!-- Created with Inkscape (http://www.inkscape.org/) -->

<svg
   xmlns:dc="http://purl.org/dc/elements/1.1/"
   xmlns:cc="http://creativecommons.org/ns#"
   xmlns:rdf="http://www.w3.org/1999/02/22-rdf-syntax-ns#"
   xmlns:svg="http://www.w3.org/2000/svg"
   xmlns="http://www.w3.org/2000/svg"
   xmlns:sodipodi="http://sodipodi.sourceforge.net/DTD/sodipodi-0.dtd"
   xmlns:inkscape="http://www.inkscape.org/namespaces/inkscape"
   width="37.182266mm"
   height="38.075195mm"
   viewBox="0 0 37.182266 38.075195"
   version="1.1"
   id="svg4525"
   inkscape:version="0.92.4 (5da689c313, 2019-01-14)"
   sodipodi:docname="A7.svg">
  <defs
     id="defs4519" />
  <sodipodi:namedview
     id="base"
     pagecolor="#ffffff"
     bordercolor="#666666"
     borderopacity="1.0"
     inkscape:pageopacity="0.0"
     inkscape:pageshadow="2"
     inkscape:zoom="0.35"
     inkscape:cx="105.5347"
     inkscape:cy="-230.97888"
     inkscape:document-units="mm"
     inkscape:current-layer="layer1"
     showgrid="false"
     fit-margin-top="0"
     fit-margin-left="0"
     fit-margin-right="0"
     fit-margin-bottom="0"
     inkscape:window-width="1920"
     inkscape:window-height="1017"
     inkscape:window-x="-8"
     inkscape:window-y="-8"
     inkscape:window-maximized="1" />
  <metadata
     id="metadata4522">
    <rdf:RDF>
      <cc:Work
         rdf:about="">
        <dc:format>image/svg+xml</dc:format>
        <dc:type
           rdf:resource="http://purl.org/dc/dcmitype/StillImage" />
        <dc:title></dc:title>
      </cc:Work>
    </rdf:RDF>
  </metadata>
  <g
     inkscape:label="Layer 1"
     inkscape:groupmode="layer"
     id="layer1"
     transform="translate(115.23522,-49.644972)">
    <g
       aria-label="𓀉"
       style="font-style:normal;font-variant:normal;font-weight:normal;font-stretch:normal;font-size:50.79999924px;line-height:1.25;font-family:sans-serif;-inkscape-font-specification:sans-serif;font-variant-ligatures:normal;font-variant-caps:normal;font-variant-numeric:normal;font-feature-settings:normal;text-align:start;letter-spacing:0px;word-spacing:0px;writing-mode:lr-tb;text-anchor:start;fill:#000000;fill-opacity:1;stroke:none;stroke-width:0.26458332"
       id="text5105">
      <path
         d="m -91.249051,49.644973 0.818554,0.04961 q 1.885157,0.173633 2.604493,1.364258 0.719335,1.190625 0.719335,2.703711 0,1.240234 -0.471289,2.33164 -0.471289,1.066602 -1.289843,1.761133 l -0.04961,0.396875 q 0,0.223242 -0.0248,0.496094 0,0.942578 1.810742,1.314648 1.835547,0.347266 2.703711,1.463477 0.892968,1.091406 1.438672,3.695898 0.545703,2.579688 0.545703,5.159375 0.719336,1.612305 1.16582,3.299024 0.471289,1.686718 0.992187,3.373437 0.694532,0.471289 1.240235,1.339453 0.545703,0.868164 0.992187,3.150195 l -0.396875,0.520899 h -1.016992 l -0.37207,-0.322461 -0.272852,-1.339453 -0.173633,0.223242 q -0.09922,0.09922 -0.173632,0.223242 h -0.396875 l -0.173633,-0.09922 -0.148828,-0.09922 q -0.868164,-2.182813 -2.083594,-4.911328 -1.21543,-2.753321 -1.711523,-5.457032 -0.496094,-2.728515 -1.835547,-5.953124 -0.347266,1.16582 -0.471289,2.33164 -0.124024,1.141016 -0.124024,2.629297 0,1.016992 0,1.984375 0,0.967383 0.07441,1.761133 l 0.09922,1.736328 q 0.496094,1.116211 0.768945,2.257226 0.297657,1.141016 0.297657,2.306836 0,1.909961 -0.868164,3.646289 0.496093,0.198438 0.843359,0.520899 0.37207,0.322461 0.669726,0.694531 l 0.620118,0.744141 q 0.843359,1.041796 1.909961,1.11621 1.066601,0.07442 1.513085,0.372071 0,0.124023 0.02481,0.272851 0.02481,0.148828 0.07441,0.297657 -0.248047,0.347265 -0.595312,0.471289 -0.347266,0.148828 -0.744141,0.173632 h -0.148828 q -0.446484,0 -1.116211,-0.148828 -0.644922,-0.124023 -1.16582,-0.347265 l -1.190625,-0.496094 q -0.570508,-0.248047 -1.190625,-0.42168 -0.620117,-0.198437 -1.364258,-0.198437 -2.033984,0 -6.622851,0.843359 -4.564065,0.84336 -6.647655,0.84336 -0.99219,0 -1.48828,-0.42168 -0.47129,-0.42168 -0.47129,-1.289844 0,-1.16582 0.84336,-2.406055 0.84335,-1.240234 3.323826,-3.100585 -0.868166,-0.471289 -1.686726,-1.016993 -0.79375,-0.545703 -1.51308,-1.190625 l -2.35645,3.59668 q -1.16582,1.785938 -2.33164,3.59668 l 0.0248,0.04961 0.0992,0.471289 q 0.0496,0.248047 0.0496,0.496094 0,0.620117 -0.42168,0.917773 -0.39688,0.297657 -1.017,0.297657 -0.47129,0 -0.91777,-0.198438 -0.42168,-0.173633 -0.91777,-0.446484 -0.22325,0 -0.54571,0.124023 l -0.71933,0.198438 q -0.37207,0.09922 -0.79375,0.173632 -0.39688,0.09922 -0.79375,0.09922 -0.57051,0 -0.94258,-0.223242 -0.37207,-0.223242 -0.49609,-0.818555 l 0.37207,-0.471289 q 1.28984,-0.223242 2.48047,-0.644922 1.19062,-0.421679 2.38125,-0.992187 0.5705,-1.661914 1.31464,-3.249414 0.74414,-1.612305 1.5627,-3.175 l 1.24023,-2.257227 q 0.22325,-0.421679 0.42168,-0.719336 0.19844,-0.32246 0.39688,-0.570507 l -1.43867,1.339453 q -0.59532,1.364258 -1.73633,2.158008 -1.11621,0.768945 -2.50528,1.190625 -0.12402,-0.04961 -0.37207,-0.09922 -0.17363,-0.223242 -0.39687,-0.396875 l 0.12402,-0.669727 q 0.24805,-0.148828 0.54571,-0.297656 l 0.5705,-0.272852 h -0.0992 l -0.14882,-0.198437 q -0.0744,-0.07441 -0.17364,-0.148828 v -0.595313 q 1.51309,-1.066601 2.87735,-2.306836 1.36426,-1.265039 2.48047,-2.554882 1.14101,-1.314649 2.87734,-4.167188 1.76113,-2.852539 2.678908,-4.539258 0.917774,-1.686718 2.331641,-2.579687 1.413867,-0.917773 2.629297,-1.041797 1.215429,-0.124023 1.215429,-0.570508 0,-0.148828 -0.198437,-0.223242 -0.198438,-0.07441 -0.744141,-0.124023 h -0.719336 l -0.37207,-0.322461 -0.272851,-1.041797 q -0.223243,-0.223242 -0.545704,-0.223242 l -0.37207,-0.471289 q 0,-0.322461 0.09922,-0.595313 0.124023,-0.297656 0.297656,-0.570508 l 0.322461,-0.520898 h -0.02481 q 0.322461,-0.520898 0.84336,-2.778125 0.545703,-2.282031 4.043164,-2.282031 z m -3.050977,27.756445 q 1.537891,-0.768946 3.075781,-1.463477 1.562696,-0.719336 3.175,-1.364258 v -0.347265 q 0,-0.818555 -0.09922,-2.033985 -0.07441,-1.215429 -0.07441,-2.877343 0,-1.63711 0.198437,-3.175 0.223242,-1.537891 0.843359,-3.075781 l 0.719336,0.07441 q 0.868164,1.860351 1.537891,4.067968 0.669726,2.207617 0.892969,3.720703 0.248047,1.513086 1.438672,4.291211 l 1.314648,3.125391 0.446484,-0.396875 q 0.570508,0.446484 0.967383,1.116211 0.42168,0.644922 0.744141,2.207617 h 0.223242 q -0.272852,-1.438672 -0.719336,-2.282031 -0.446484,-0.84336 -0.967383,-1.116211 -0.496094,-0.272852 -0.768945,-1.389063 -0.272852,-1.116211 -0.644922,-2.505273 -0.37207,-1.413867 -0.694531,-2.182813 l -0.496094,-1.141015 q -0.04961,-0.124024 -0.04961,-0.322461 0,-1.240234 -0.198438,-3.075781 -0.173633,-1.835547 -0.843359,-3.671094 -0.644922,-1.860352 -1.711524,-2.232422 -1.041796,-0.396875 -2.406054,-0.818555 -1.339453,-0.446484 -1.339453,-2.207617 0,-0.322461 0.0248,-0.471289 -0.818554,-0.644922 -1.389062,-1.091406 -0.570508,-0.446484 -0.570508,-1.413867 0,-0.347266 0.124023,-0.644922 0.124024,-0.322461 0.223243,-0.669727 l 0.04961,-0.198437 q 0,-0.09922 0.02481,-0.173633 0,-0.297656 -0.09922,-0.297656 -0.124023,0 -0.198438,0.148828 -0.07441,0.124023 -0.124023,0.297656 l -0.272852,0.124024 q -0.124023,0.04961 -0.248046,0.124023 -0.942579,-0.42168 -1.686719,-0.694531 -0.744141,-0.272852 -0.917774,-0.322461 -0.07441,0.322461 -0.223242,0.892969 -0.124023,0.570507 -0.322461,0.967382 l -0.347265,0.620118 q -0.173633,0.297656 -0.297657,0.620117 0.47129,0.223242 0.669727,0.496094 0.198438,0.248046 0.37207,1.016992 0.942578,0 1.537891,0.297656 0.620117,0.297656 0.620117,0.843359 0,1.091407 -1.736328,1.314649 -1.711523,0.223242 -2.877344,1.215429 -1.141015,0.967383 -1.835547,2.306836 -0.669726,1.314649 -2.778131,4.688086 -2.08359,3.348633 -3.59668,4.886524 -1.51308,1.53789 -2.80292,2.604492 l 0.19843,0.124023 q 0.0744,0.07441 0.17364,0.124024 0,0.620117 -0.47129,1.091406 -0.47129,0.471289 -0.96739,0.74414 1.38907,-0.694531 2.00918,-1.90996 0.64493,-1.240235 1.11621,-1.438672 0.4961,-0.223243 3.62149,-3.472657 3.150196,-3.249414 4.762501,-7.218163 0.173632,0 0.347265,-0.02481 l 0.322461,-0.0248 q 1.736328,2.406055 2.554883,4.861719 0.818555,2.430859 0.818555,5.184179 0,0.868164 -0.09922,1.761133 -0.09922,0.868164 -0.272852,1.785938 z m 6.424414,-2.00918 q -3.497461,1.463477 -7.242968,3.348633 -3.720704,1.860351 -4.316016,2.356445 l -0.620122,0.496094 q -0.96738,0.719336 -2.1332,1.909961 -1.14101,1.16582 -1.14101,2.75332 0,0.297656 0.22324,0.496094 0.22324,0.198437 0.99219,0.198437 1.86035,0 6.201168,-0.843359 4.34082,-0.843359 6.498828,-0.843359 1.091406,-1.314649 1.736328,-2.85254 0.669726,-1.562695 0.719336,-3.224609 0,-1.513086 -0.372071,-2.38125 -0.347265,-0.892969 -0.545703,-1.413867 z m -9.673828,-10.517187 q -0.942578,2.108398 -2.455668,4.167187 -1.48828,2.033984 -4.53925,5.010547 0.5457,-0.37207 1.5875,-0.37207 2.03398,0 4.117574,1.016992 2.108399,0.992187 3.770313,2.579687 0.148828,-0.917773 0.223242,-1.736328 0.09922,-0.843359 0.09922,-1.711523 0,-2.43086 -0.669727,-4.588867 -0.644922,-2.158008 -2.133203,-4.365625 z m -1.686719,15.130859 1.885157,-1.041797 q 0.917773,-0.496094 1.860351,-0.967383 -1.711523,-1.661914 -3.671093,-2.579687 -1.934764,-0.942578 -3.869534,-0.942578 -0.57051,0 -0.86816,0.09922 -0.29766,0.09922 -0.5209,0.396875 l 0.0248,0.198438 q 0,0.248047 0.29766,0.892969 0.29766,0.620117 0.96738,1.215429 z m -9.376169,5.233789 2.43086,-3.720703 2.40605,-3.745508 q -0.42168,-0.347266 -0.74414,-0.843359 -0.29766,-0.496094 -0.47129,-1.041797 -0.0496,0.09922 -0.12402,0.198437 -0.0496,0.07441 -0.0992,0.198438 l -0.22324,0.37207 -0.99219,1.810742 q -1.68672,3.274219 -2.25723,4.836914 -0.5705,1.562696 -0.69453,1.736328 -0.0992,0.173633 -1.63711,0.818555 -1.53789,0.620117 -3.12539,0.967383 0.24805,0.07441 0.57051,0.07441 0.32246,0 0.69453,-0.09922 l 1.38906,-0.42168 q 0.32246,-0.09922 0.54571,-0.09922 0.34726,0 0.91777,0.322461 0.59531,0.322461 1.01699,0.322461 0.27285,0 0.42168,-0.09922 0.14883,-0.124024 0.14883,-0.372071 0,-0.248046 -0.0992,-0.496093 -0.0744,-0.248047 -0.12402,-0.446485 z m 15.428513,-32.444531 0.942578,0.396875 q 0.173633,-0.272852 0.471289,-0.42168 0.297657,-0.173632 0.595313,-0.173632 0.272851,0 0.520898,0.223242 0.248047,0.223242 0.248047,0.719336 0,0.396875 -0.223242,0.818554 -0.223242,0.42168 -0.223242,0.868164 0,0.198438 0.0248,0.396875 0.04961,0.173633 0.09922,0.347266 l 0.719336,0.570508 q 0.347266,0.297656 0.719336,0.570508 l 0.719336,-0.868164 q 0.223242,-0.297657 0.42168,-1.141016 0.223242,-0.843359 0.223242,-1.389063 0,-1.513085 -0.644922,-2.306835 -0.644922,-0.818555 -1.810742,-0.917774 l -0.868164,-0.04961 q -1.289844,0 -2.182813,0.37207 -0.892968,0.347266 -1.190625,1.438672 z m 5.779492,30.931445 q -0.04961,0.124023 -0.124023,0.223242 -0.04961,0.09922 -0.09922,0.223242 l -0.322461,0.570508 q -0.09922,0.124024 -0.198437,0.272852 -0.07441,0.124023 -0.198438,0.248047 1.265039,0.09922 2.827734,0.868164 1.5875,0.74414 2.604493,0.74414 h 0.09922 q -1.16582,-0.198437 -1.661914,-0.446484 -0.471289,-0.272852 -1.289843,-1.364258 -0.818555,-1.091406 -1.63711,-1.339453 z m -6.374804,-29.269531 q -0.272852,0.322461 -0.818555,0.471289 l -0.248047,-0.37207 0.297656,-0.396875 q 0.272852,0 0.768946,0.297656 z"
         style="stroke-width:0.26458332"
         id="path5107"
         inkscape:connector-curvature="0" />
    </g>
  </g>
</svg>
