<?xml version="1.0" encoding="UTF-8" standalone="no"?>
<!-- Created with Inkscape (http://www.inkscape.org/) -->

<svg
   xmlns:dc="http://purl.org/dc/elements/1.1/"
   xmlns:cc="http://creativecommons.org/ns#"
   xmlns:rdf="http://www.w3.org/1999/02/22-rdf-syntax-ns#"
   xmlns:svg="http://www.w3.org/2000/svg"
   xmlns="http://www.w3.org/2000/svg"
   xmlns:sodipodi="http://sodipodi.sourceforge.net/DTD/sodipodi-0.dtd"
   xmlns:inkscape="http://www.inkscape.org/namespaces/inkscape"
   width="30.832228mm"
   height="38.273632mm"
   viewBox="0 0 30.832227 38.273631"
   version="1.1"
   id="svg4525"
   inkscape:version="0.92.4 (5da689c313, 2019-01-14)"
   sodipodi:docname="A8.svg">
  <defs
     id="defs4519" />
  <sodipodi:namedview
     id="base"
     pagecolor="#ffffff"
     bordercolor="#666666"
     borderopacity="1.0"
     inkscape:pageopacity="0.0"
     inkscape:pageshadow="2"
     inkscape:zoom="0.35"
     inkscape:cx="590.66833"
     inkscape:cy="-56.288475"
     inkscape:document-units="mm"
     inkscape:current-layer="layer1"
     showgrid="false"
     fit-margin-top="0"
     fit-margin-left="0"
     fit-margin-right="0"
     fit-margin-bottom="0"
     inkscape:window-width="1920"
     inkscape:window-height="1017"
     inkscape:window-x="-8"
     inkscape:window-y="-8"
     inkscape:window-maximized="1" />
  <metadata
     id="metadata4522">
    <rdf:RDF>
      <cc:Work
         rdf:about="">
        <dc:format>image/svg+xml</dc:format>
        <dc:type
           rdf:resource="http://purl.org/dc/dcmitype/StillImage" />
        <dc:title></dc:title>
      </cc:Work>
    </rdf:RDF>
  </metadata>
  <g
     inkscape:label="Layer 1"
     inkscape:groupmode="layer"
     id="layer1"
     transform="translate(243.59349,-95.666701)">
    <g
       aria-label="𓀉"
       style="font-style:normal;font-variant:normal;font-weight:normal;font-stretch:normal;font-size:50.79999924px;line-height:1.25;font-family:sans-serif;-inkscape-font-specification:sans-serif;font-variant-ligatures:normal;font-variant-caps:normal;font-variant-numeric:normal;font-feature-settings:normal;text-align:start;letter-spacing:0px;word-spacing:0px;writing-mode:lr-tb;text-anchor:start;fill:#000000;fill-opacity:1;stroke:none;stroke-width:0.26458332"
       id="text5105" />
    <g
       aria-label="𓀆"
       transform="matrix(0.26458333,0,0,0.26458333,-199.96101,81.431167)"
       style="font-style:normal;font-variant:normal;font-weight:normal;font-stretch:normal;font-size:192px;line-height:1.25;font-family:sans-serif;-inkscape-font-specification:sans-serif;font-variant-ligatures:normal;font-variant-caps:normal;font-variant-numeric:normal;font-feature-settings:normal;text-align:start;letter-spacing:0px;word-spacing:0px;writing-mode:lr-tb;text-anchor:start;fill:#000000;fill-opacity:1;stroke:none"
       id="flowRoot5135" />
    <g
       aria-label="𓀊"
       transform="matrix(0.26458333,0,0,0.26458333,-198.72078,92.644808)"
       style="font-style:normal;font-variant:normal;font-weight:normal;font-stretch:normal;font-size:192px;line-height:1.25;font-family:sans-serif;-inkscape-font-specification:sans-serif;font-variant-ligatures:normal;font-variant-caps:normal;font-variant-numeric:normal;font-feature-settings:normal;text-align:start;letter-spacing:0px;word-spacing:0px;writing-mode:lr-tb;text-anchor:start;fill:#000000;fill-opacity:1;stroke:none"
       id="flowRoot5146">
      <path
         d="m -145.03516,148.57758 q -8.0625,2.71875 -10.5,5.15625 -2.34375,2.34375 -5.34375,2.34375 l -6,-0.5625 -0.65625,-0.375 -0.5625,-0.375 -0.75,-1.40625 -0.75,-1.21875 0.28125,-1.875 q 0.46875,-0.46875 0.84375,-0.9375 l 0.65625,-0.9375 0.9375,-0.375 q 4.21875,-0.28125 7.3125,-2.0625 3.1875,-1.78125 6.28125,-4.5 -0.46875,-1.59375 -0.46875,-2.625 0,-1.875 0.9375,-3.375 1.03125,-1.5 2.625,-3.1875 -0.75,-4.875 -1.59375,-9.1875 l -1.59375,-7.875 q -0.75,-3.65625 -1.3125,-6.75 -0.46875,-3.09375 -0.46875,-5.8125 0,-5.250003 1.6875,-7.687503 1.6875,-2.53125 4.875,-2.53125 4.125,0 9.1875,3.65625 5.15625,3.5625 10.59375,9.468753 l 4.875,5.4375 q 0.28125,-4.21875 0.28125,-8.25 0,-5.156253 -0.5625,-10.218753 -0.46875,-5.0625 -1.6875,-10.21875 -2.625,1.03125 -9.75,2.25 -7.125,1.125 -11.625,1.125 -4.59375,0 -6.75,-1.21875 -2.15625,-1.3125 -2.15625,-3.65625 0,-1.6875 1.875,-5.71875 1.875,-4.125 13.59375,-13.875 11.8125,-9.84375 20.8125,-12.84375 0,-1.59375 -0.84375,-2.15625 -0.75,-0.5625 -2.25,-0.5625 -0.9375,0 -2.0625,-0.09375 l -0.65625,-0.375 -0.5625,-0.375 q -1.03125,-1.3125 -1.21875,-3.65625 -0.1875,-2.4375 -1.5,-2.4375 l -1.40625,-1.78125 q 0,-1.59375 0.375,-3.28125 0.46875,-1.78125 1.96875,-2.8125 l 0.84375,-3.5625 q 1.125,-4.96875 2.4375,-8.0625 1.3125,-3.09375 5.15625,-4.3125 3.9375,-1.3125 6.84375,-1.3125 6.5625,0 11.8125,4.3125 5.343754,4.3125 5.343754,11.0625 0,4.3125 -2.4375,8.15625 -2.343754,3.84375 -5.156254,6.9375 v 3.84375 q 3.09375,0 6.468754,0.28125 3.375,0.28125 6.1875,1.59375 2.0625,0 3.9375,-0.1875 1.96875,-0.1875 4.03125,-0.1875 4.78125,0 9.46875,1.03125 4.6875,1.03125 9.46875,1.78125 -0.46875,-5.90625 -1.40625,-11.625 -0.84375,-5.8125 -0.84375,-11.71875 -2.71875,-2.71875 -4.3125,-5.71875 -1.59375,-3 -1.59375,-6.5625 0,-1.78125 0.5625,-3.9375 l 0.75,-0.5625 0.65625,-0.65625 h 3 l 0.75,0.75 q 0.375,0.375 0.84375,0.75 l -0.1875,1.96875 q 0.5625,0 1.125,0.09375 h 1.03125 q 1.96875,2.8125 2.90625,6.28125 0.9375,3.46875 1.6875,6.84375 l 0.28125,1.3125 q 3.1875,15.09375 5.34375,30.5625 l -0.5625,0.65625 q -0.28125,0.375 -0.5625,0.84375 -5.71875,1.5 -11.71875,1.5 -2.8125,0 -5.625,-0.1875 l -5.8125,-0.375 q -2.71875,-0.1875 -5.53125,-0.65625 -2.8125,-0.46875 -5.53125,-0.46875 -3.375,0 -4.59375,1.21875 -1.21875,1.125 -2.53125,4.6875 -1.21875,3.5625 -2.90625,12.5625 -1.593754,8.90625 -1.593754,24.000003 1.687504,4.03125 2.343754,8.34375 0.65625,4.3125 0.65625,8.71875 2.4375,0.375 4.96875,3 2.625,2.53125 2.625,5.0625 0,1.59375 -1.5,4.3125 -1.40625,2.71875 -1.21875,8.15625 0.1875,5.4375 -4.3125,9.1875 -4.406254,3.75 -7.875004,4.96875 -0.46875,-0.1875 -1.40625,-0.375 -0.65625,-0.84375 -1.5,-1.5 v -2.25 q 1.5,-1.40625 2.90625,-2.8125 l 2.8125,-2.8125 q 0.1875,-2.34375 0.375,-4.5 0.28125,-2.15625 0.46875,-5.0625 0,-1.21875 -0.46875,-2.71875 -0.46875,-1.59375 -1.78125,-2.0625 l -9.46875,5.34375 q -9,5.0625 -16.78125,7.21875 -7.6875,2.0625 -12,3.375 z m 17.53125,-85.968753 1.78125,5.8125 q 0.9375,3 1.21875,6 l 5.25,-2.4375 q 2.625,-1.125 5.34375,-2.15625 0.28125,0 0.75,0.09375 l 0.84375,0.1875 q 0,0.46875 0.0937,1.03125 0,0.5625 0.1875,1.03125 l -0.9375,1.21875 q 0.28125,0 0.84375,-0.375 0.5625,-0.46875 1.21875,-0.84375 l 2.15625,-1.21875 h 0.375 q 0.28125,0 1.875,0.1875 l 1.5,1.96875 v 1.875 q -2.34375,3.65625 -5.90625,5.53125 -3.46875,1.78125 -10.21875,1.78125 -1.125,0 -1.78125,-0.09375 1.125,5.4375 1.59375,11.0625 0.5625,5.53125 0.5625,10.593753 0,2.15625 -0.0937,4.3125 -0.0937,2.0625 -0.28125,4.21875 4.40625,-2.71875 8.8125,-5.0625 4.5,-2.34375 9.1875,-4.3125 0,-0.75 0,-1.125 0,-0.46875 -0.0937,-1.59375 0,-7.781253 1.875,-20.250003 1.875004,-12.5625 3.656254,-15.84375 1.875,-3.375 3.46875,-4.59375 1.59375,-1.3125 5.15625,-1.3125 1.3125,0 2.8125,0.09375 l 3,0.28125 4.78125,0.65625 q 2.90625,0.28125 5.8125,0.46875 2.90625,0.1875 5.8125,0.1875 2.71875,0 5.34375,-0.1875 2.625,-0.28125 5.25,-0.9375 -1.03125,-8.4375 -2.625,-17.625 -1.5,-9.28125 -3.9375,-17.53125 h -1.125 l -1.03125,0.1875 q -3.46875,-3.09375 -3.46875,-8.25 0,-0.75 0.09375,-1.21875 h -0.28125 q -0.1875,0.5625 -0.1875,1.21875 0,0.5625 -0.09375,1.6875 0,2.8125 1.78125,5.34375 1.78125,2.4375 3.9375,4.59375 l 0.28125,0.9375 q 0,4.5 1.125,12.9375 1.125,8.34375 1.125,12.84375 -0.46875,0.375 -0.84375,0.75 l -0.75,0.75 q -5.0625,-0.84375 -10.125,-1.96875 -5.0625,-1.125 -10.21875,-1.125 -2.25,0 -4.21875,0.1875 -1.96875,0.1875 -4.03125,0.1875 -1.03125,0 -3.28125,-0.9375 -2.25,-0.9375 -10.687504,-0.9375 l -1.40625,-1.78125 v -5.0625 q -5.15625,-6 -5.53125,-7.40625 v -1.5 l 3.09375,-5.8125 q 0,-1.21875 -0.9375,-1.21875 -1.125,0 -1.3125,1.78125 l -1.875,1.21875 q -0.84375,-0.28125 -2.25,-0.84375 -1.40625,-0.65625 -3,-1.3125 l -3.1875,-1.125 -2.4375,-0.75 -0.75,2.625 h -0.0937 q -1.125,3.75 -1.96875,3.9375 -0.75,0.09375 -0.9375,2.34375 1.6875,0.65625 2.34375,3.28125 0.65625,2.625 0.9375,3.375 3.75,0.1875 5.53125,1.59375 1.78125,1.3125 1.78125,5.15625 l -0.5625,0.65625 q -0.28125,0.375 -0.5625,0.84375 -7.6875,2.625 -14.71875,7.59375 -6.9375,4.96875 -13.40625,11.25 -6.46875,6.1875 -7.125,11.53125 0,0.46875 0.84375,0.75 0.9375,0.1875 3,0.28125 l 1.6875,0.09375 q 5.0625,0 9.5625,-0.5625 4.59375,-0.5625 9.09375,-1.78125 4.5,-1.3125 3.84375,-1.125 -0.5625,0.1875 7.03125,0.1875 2.15625,0 5.34375,-1.21875 3.28125,-1.21875 4.78125,-3.75 -1.59375,1.5 -4.78125,2.625 -3.1875,1.125 -4.5,1.125 -0.1875,0 -0.46875,-0.09375 l -1.40625,-0.5625 q -0.46875,-0.65625 -0.65625,-1.5 l -5.625,2.4375 v 0.09375 q -1.03125,0.28125 -2.0625,0.46875 -0.9375,0.1875 -1.96875,0.1875 l -9.09375,-0.375 q -1.59375,0 -3.28125,0.1875 -1.6875,0.1875 -3.28125,0.9375 l -0.375,0.28125 -1.125,-2.90625 1.03125,-0.75 q 4.21875,-3.28125 8.25,-6.65625 4.125,-3.46875 7.40625,-7.6875 z m -15.28125,82.218753 q 13.78125,-2.90625 25.125,-8.71875 11.4375,-5.90625 14.53125,-7.96875 3.09375,-2.15625 3.09375,-6.28125 0,-4.875 -0.5625,-8.71875 -0.5625,-3.84375 -1.3125,-5.90625 l -0.5625,-1.21875 q -12.1875,5.4375 -27.84375,16.125 -15.65625,10.6875 -17.53125,12.09375 -1.875,1.3125 -2.90625,3.5625 0,2.71875 0.9375,4.21875 0.9375,1.40625 4.03125,2.25 3.1875,0.75 3,0.5625 z m 9.28125,-24.46875 q 4.21875,-2.90625 8.71875,-5.71875 -3.75,-4.3125 -7.59375,-8.625 -3.84375,-4.3125 -8.625,-7.593753 l -1.5,-1.03125 q -0.84375,-0.46875 -1.6875,-0.84375 -0.1875,1.5 -0.65625,3 -0.46875,1.500003 -1.03125,3.000003 0.375,1.59375 2.15625,7.78125 1.875,6.1875 1.875,11.4375 0,2.25 -0.28125,4.59375 z m 11.53125,-100.218753 -0.84375,4.125 q 2.4375,0.5625 4.78125,1.5 2.34375,0.9375 4.78125,1.96875 1.03125,-2.625 3.84375,-2.625 3.65625,0 3.65625,4.3125 0,1.03125 -0.9375,2.625 -0.84375,1.5 -2.0625,3.9375 0.84375,1.40625 1.875,2.90625 1.03125,1.5 2.0625,2.34375 2.4375,-2.71875 4.21875,-5.625 1.875004,-3 1.875004,-6.46875 0,-5.4375 -4.031254,-9 -3.9375,-3.5625 -9.5625,-3.5625 h -1.3125 l -1.3125,0.1875 q -1.96875,0.1875 -3.9375,0.9375 -1.875,0.65625 -3.09375,2.4375 z m -23.53125,108.656253 q 0,-0.28125 0.1875,-1.3125 l 0.46875,-4.125 q 0,-1.03125 0.0937,-1.5 0,-4.78125 -1.96875,-11.34375 -1.96875,-6.5625 -2.4375,-8.90625 l 1.78125,-6.093753 -0.9375,-0.09375 q -2.4375,0.28125 -3.1875,2.25 -0.75,1.875 -0.75,4.312503 0,2.8125 0.46875,6.28125 0.5625,3.375 1.40625,7.03125 l 1.59375,7.59375 q 0.75,3.84375 1.3125,7.3125 z m 48.375004,-4.96875 q 0,1.96875 -0.9375,3.5625 -0.84375,1.59375 -2.156254,2.4375 1.406254,1.3125 1.968754,3.09375 0.5625,1.78125 0.5625,3.9375 v 3 q -0.1875,6.1875 -1.03125,7.21875 -0.75,1.03125 -2.437504,2.71875 l -2.53125,2.34375 q 2.625,-1.03125 4.593754,-3.28125 2.0625,-2.25 3.5625,-4.40625 0,-3.9375 0.5625,-7.6875 0.5625,-3.84375 2.4375,-7.3125 -0.28125,-1.875 -1.5,-3.46875 -1.21875,-1.6875 -3.09375,-2.15625 z M -127.31641,75.546327 q -0.1875,-2.4375 -0.84375,-4.78125 -0.5625,-2.34375 -1.3125,-4.59375 -2.4375,2.53125 -5.0625,4.875 -2.53125,2.34375 -5.25,4.5 h 2.25 q 1.6875,0 3.09375,0.09375 1.21875,0 2.4375,0.09375 h 1.59375 l 1.59375,-0.09375 q 0.75,0 1.5,-0.09375 z m -21.46875,70.968753 q -1.875,-0.84375 -3.09375,-2.34375 -3.09375,2.71875 -6.5625,4.6875 -3.375,1.875 -7.59375,2.0625 -0.1875,0.375 -0.46875,0.65625 l 0.5625,0.9375 h 6.9375 q 4.21875,-3.84375 10.21875,-6 z m 26.4375,-116.437503 2.53125,1.125 -2.53125,1.125 -0.84375,-1.125 z"
         id="path5154"
         inkscape:connector-curvature="0" />
    </g>
  </g>
</svg>
