<?xml version="1.0" encoding="UTF-8" standalone="no"?>
<!-- Created with Inkscape (http://www.inkscape.org/) -->

<svg
   xmlns:dc="http://purl.org/dc/elements/1.1/"
   xmlns:cc="http://creativecommons.org/ns#"
   xmlns:rdf="http://www.w3.org/1999/02/22-rdf-syntax-ns#"
   xmlns:svg="http://www.w3.org/2000/svg"
   xmlns="http://www.w3.org/2000/svg"
   xmlns:sodipodi="http://sodipodi.sourceforge.net/DTD/sodipodi-0.dtd"
   xmlns:inkscape="http://www.inkscape.org/namespaces/inkscape"
   width="25.102343mm"
   height="38.174416mm"
   viewBox="0 0 25.102342 38.174415"
   version="1.1"
   id="svg4525"
   inkscape:version="0.92.4 (5da689c313, 2019-01-14)"
   sodipodi:docname="A9.svg">
  <defs
     id="defs4519" />
  <sodipodi:namedview
     id="base"
     pagecolor="#ffffff"
     bordercolor="#666666"
     borderopacity="1.0"
     inkscape:pageopacity="0.0"
     inkscape:pageshadow="2"
     inkscape:zoom="0.35"
     inkscape:cx="614.55309"
     inkscape:cy="37.709024"
     inkscape:document-units="mm"
     inkscape:current-layer="layer1"
     showgrid="false"
     fit-margin-top="0"
     fit-margin-left="0"
     fit-margin-right="0"
     fit-margin-bottom="0"
     inkscape:window-width="1920"
     inkscape:window-height="1017"
     inkscape:window-x="-8"
     inkscape:window-y="-8"
     inkscape:window-maximized="1" />
  <metadata
     id="metadata4522">
    <rdf:RDF>
      <cc:Work
         rdf:about="">
        <dc:format>image/svg+xml</dc:format>
        <dc:type
           rdf:resource="http://purl.org/dc/dcmitype/StillImage" />
        <dc:title></dc:title>
      </cc:Work>
    </rdf:RDF>
  </metadata>
  <g
     inkscape:label="Layer 1"
     inkscape:groupmode="layer"
     id="layer1"
     transform="translate(249.913,-120.63609)">
    <g
       aria-label="𓀉"
       style="font-style:normal;font-variant:normal;font-weight:normal;font-stretch:normal;font-size:50.79999924px;line-height:1.25;font-family:sans-serif;-inkscape-font-specification:sans-serif;font-variant-ligatures:normal;font-variant-caps:normal;font-variant-numeric:normal;font-feature-settings:normal;text-align:start;letter-spacing:0px;word-spacing:0px;writing-mode:lr-tb;text-anchor:start;fill:#000000;fill-opacity:1;stroke:none;stroke-width:0.26458332"
       id="text5105" />
    <g
       aria-label="𓀆"
       transform="matrix(0.26458333,0,0,0.26458333,-199.96101,81.431167)"
       style="font-style:normal;font-variant:normal;font-weight:normal;font-stretch:normal;font-size:192px;line-height:1.25;font-family:sans-serif;-inkscape-font-specification:sans-serif;font-variant-ligatures:normal;font-variant-caps:normal;font-variant-numeric:normal;font-feature-settings:normal;text-align:start;letter-spacing:0px;word-spacing:0px;writing-mode:lr-tb;text-anchor:start;fill:#000000;fill-opacity:1;stroke:none"
       id="flowRoot5135" />
    <g
       aria-label="𓀋"
       transform="matrix(0.26458333,0,0,0.26458333,-243.59349,95.666701)"
       style="font-style:normal;font-variant:normal;font-weight:normal;font-stretch:normal;font-size:192px;line-height:1.25;font-family:sans-serif;-inkscape-font-specification:sans-serif;font-variant-ligatures:normal;font-variant-caps:normal;font-variant-numeric:normal;font-feature-settings:normal;text-align:start;letter-spacing:0px;word-spacing:0px;writing-mode:lr-tb;text-anchor:start;fill:#000000;fill-opacity:1;stroke:none"
       id="flowRoot5157">
      <path
         d="m 23.927734,202.84125 q 0.375,-3.46875 1.59375,-9.09375 1.3125,-5.71875 1.3125,-8.0625 0,-1.40625 -0.1875,-2.90625 l -0.46875,-2.8125 q -0.75,-6.1875 -2.25,-12.09375 -1.40625,-5.90625 -3,-11.8125 -9.09375,-5.53125 -17.7187496,-11.34375 -8.625,-5.90625 -16.8750004,-12.5625 l -0.75,-2.0625 q -0.65625,-1.5 -0.75,-2.71875 0,-4.3125 4.40625,-10.03125 4.5000004,-5.71875 9.6562504,-10.96875 5.15625,-5.34375 10.3125,-7.218751 1.4999996,-2.625 4.2187496,-3.65625 2.71875,-1.125 5.71875,-1.125 1.3125,0 2.53125,0.1875 1.3125,0.1875 2.4375,0.46875 l 0.84375,1.03125 h 25.96875 l 1.5,1.96875 -5.625,15.562501 q 2.8125,1.6875 3.9375,4.5 1.21875,2.8125 1.21875,6 0,4.03125 -1.59375,7.78125 -1.59375,3.75 -5.34375,7.3125 v 2.53125 q 10.875,1.03125 18.375,13.6875 7.59375,12.5625 7.59375,25.78125 l -0.09375,2.25 v 1.3125 q -0.1875,4.125 -1.21875,10.21875 -1.03125,6.09375 -1.03125,9.75 v 1.125 q 0,1.40625 0.375,3.46875 0.375,1.96875 0.375,3.84375 0,2.15625 -0.84375,3.75 -0.84375,1.59375 -3.375,1.78125 -1.59375,1.03125 -3.1875,1.5 -1.03125,-0.75 -1.875,-1.21875 l -0.28125,-2.25 q -0.1875,-1.03125 -0.1875,-2.15625 0,-3.65625 1.125,-9 1.125,-5.4375 1.125,-9.1875 l 0.09375,-4.125 q 0,-2.0625 0.1875,-4.125 0.1875,-2.0625 0.84375,-3.9375 l -9.75,-21.46875 q -2.71875,0.375 -3.28125,8.15625 -0.5625,7.78125 -0.5625,8.15625 l -0.9375,11.90625 q -0.46875,5.90625 -0.46875,11.90625 v 2.53125 q 0,3.1875 0.28125,5.8125 0.375,2.53125 0.375,4.96875 0,2.625 -0.65625,5.25 -0.5625,2.53125 -2.15625,5.53125 1.96875,0.9375 3.1875,2.8125 1.96875,0.9375 7.5,2.15625 5.53125,1.21875 7.78125,4.125 l -0.65625,1.21875 q -0.375,0.5625 -0.65625,1.21875 -5.53125,0 -14.90625,-1.78125 -9.28125,-1.78125 -14.71875,-1.78125 -4.78125,0 -16.96875,1.6875 -12.1874996,1.6875 -18.3749996,1.6875 -1.5,0 -2.90625,-0.375 -1.40625,-0.28125 -2.53125,-1.40625 -2.34375,0.75 -5.9062504,1.40625 -3.46875,0.75 -6.375,0.75 l -1.125,-0.0937 q -1.3125,0 -1.875,-0.46875 -0.46875,-0.375 -1.21875,-0.75 l 0.46875,-2.53125 q 3,-1.3125 6.1875,-2.53125 l 6.1875,-2.4375 q 0,-4.3125 2.0625004,-6.75 2.0625,-2.53125 5.0625,-4.78125 l -0.46875,-2.4375 -2.25,-10.03125 q -0.75,-3.46875 -1.59375,-8.15625 -0.84375,-4.6875 -0.84375,-6.375 0,-3.65625 3.28125,-6.1875 3.375,-2.625 6.65624998,-2.625 3.37500002,0 10.03124962,6.46875 6.65625,6.46875 13.03125,13.875 z m 13.59375,-78.84375 -0.28125,1.3125 q -0.28125,0.1875 -0.9375,0.46875 -0.5625,0.1875 -1.03125,0.46875 l -0.46875,-0.0937 -4.6875,-1.3125 q -2.34375,-0.5625 -4.59375,-1.3125 -0.65625,1.78125 -1.21875,3.84375 l -1.125,3.65625 q 1.125,0.75 1.78125,2.0625 0.65625,1.21875 1.03125,2.34375 3.375,0.28125 4.59375,2.34375 1.3125,1.96875 2.15625,4.78125 l -1.03125,1.96875 q -2.71875,0.28125 -5.34375,1.21875 l -5.25,1.875 q -0.46875,-0.1875 -1.40625,-0.375 -6.1875,-5.625 -13.0312496,-10.3125 -6.75000002,-4.6875 -13.78125,-9.09375 l -0.75,-2.15625 q 1.03125,-1.875 2.4375,-3.46875 1.40625,-1.6875 2.71875,-3.375 L 7.5214844,105.81 q 2.5312496,-3.28125 2.9062496,-3.5625 0.46875,-0.375 3.75,-1.3125 l 3.28125,-0.84375 q 0,-0.187501 -0.1875,-0.562501 -0.09375,-0.46875 -0.09375,-0.65625 l 3.84375,-1.40625 -2.625,-0.28125 -0.75,0.1875 -1.59375,0.5625 q -0.84375,0.28125 -1.59375,0.46875 l -0.75,0.28125 q -1.21875,0.84375 -1.40625,1.406251 -0.09375,0.5625 -3.6562496,2.4375 -3.46875,1.78125 -7.96875003,6.1875 -4.40624997,4.40625 -8.53124997,9.84375 -4.0312504,5.4375 -4.3125004,9.1875 l 0.46875,1.125 0.375,1.3125 q 6.4687504,5.15625 13.1250004,9.84375 6.65625,4.6875 13.6874996,9.1875 l 1.78125,0.9375 q 5.25,3 6.09375,4.21875 0.84375,1.125 3.65625,12.84375 2.8125,11.625 2.8125,18.375 l -0.09375,1.6875 q -0.46875,4.78125 -1.6875,9.375 -1.21875,4.59375 -1.3125,9.375 1.5,-0.46875 3.84375,-1.03125 l 4.875,-1.03125 5.0625,-0.9375 q 2.4375,-0.46875 4.40625,-0.75 0.1875,-4.6875 1.03125,-14.15625 0.9375,-9.5625 1.40625,-18.9375 0.5625,-9.46875 6.5625,-9.46875 0.375,0.1875 1.3125,0.5625 2.8125,4.5 5.4375,11.71875 2.71875,7.21875 5.15625,11.0625 l 0.1875,1.40625 q -0.65625,1.875 -0.84375,3.9375 -0.1875,2.0625 -0.1875,4.125 l -0.09375,4.125 q 0,3.84375 -1.21875,9 -1.125,5.0625 -1.125,8.625 v 1.21875 q 0,0.65625 0.1875,1.21875 0.5625,-0.375 0.84375,-0.65625 l 0.9375,-0.375 h 0.46875 q 0.9375,-0.28125 1.21875,-0.9375 0.28125,-0.75 0.28125,-1.59375 v -1.40625 l -0.46875,-5.0625 q -0.1875,-1.78125 -0.1875,-3.65625 v -1.875 q 0,-0.9375 0.1875,-1.96875 l 0.75,-5.25 q 0.46875,-3 0.65625,-5.8125 0.28125,-2.8125 0.28125,-5.53125 0,-12.28125 -6.5625,-24.65625 -6.5625,-12.46875 -17.71875,-13.40625 l -1.40625,-1.78125 V 139.56 l -0.09375,-0.0937 q -1.40625,-0.46875 -3.28125,-2.4375 -1.78125,-1.96875 -1.78125,-4.3125 0,-1.03125 0.375,-2.0625 0.46875,-1.03125 0.9375,-2.0625 l 0.9375,-1.875 q 0.375,-0.84375 0.375,-1.6875 0,-1.40625 -1.59375,-1.40625 z m -16.3125,3.09375 q 1.21875,-4.5 2.90625,-7.96875 1.6875,-3.5625 3.84375,-5.4375 l -5.15625,-14.250001 h -0.46875 l 0.28125,1.593751 -5.0625,2.0625 q -2.53125,1.03125 -5.25,1.59375 l -16.7812496,21.28125 q 6.75,4.21875 13.125,8.71875 6.4687496,4.40625 12.3749996,9.75 l 4.125,-1.5 q 2.0625,-0.65625 4.21875,-1.125 l -0.5625,-1.3125 q -0.28125,-0.5625 -0.5625,-1.3125 -0.9375,-0.375 -1.6875,-0.5625 -0.75,-0.1875 -1.78125,-0.1875 l -1.40625,-1.21875 q -0.5625,-1.96875 -1.125,-2.8125 -0.46875,-0.84375 -0.9375,-1.03125 l -1.40625,-1.78125 z M -3.7285156,221.8725 q 0.5625,2.25 1.5,4.125 1.03125,1.875 2.15624998,3.09375 3.46875002,-1.3125 7.96875002,-2.34375 4.4999996,-1.03125 7.5937496,-1.03125 2.90625,0 6.28125,0.375 3.375,0.375 6.75,0.84375 l 6.28125,0.84375 q 2.90625,0.375 4.96875,0.375 0.5625,-0.46875 1.3125,-0.9375 0.75,-0.46875 1.5,-0.65625 1.875,-3 2.53125,-5.53125 0.65625,-2.53125 0.65625,-5.0625 0,-2.34375 -0.28125,-4.875 -0.28125,-2.53125 -0.46875,-5.71875 l -5.8125,0.9375 q -9.1875,1.40625 -19.3125,4.78125 -10.0312496,3.28125 -19.96874962,8.25 z m 27.1874996,-15 q -1.03125,-1.21875 -8.0625,-9.375 -7.0312496,-8.25 -13.4999996,-11.71875 l -0.65625,1.875 q -0.28125002,0.9375 -0.75000002,2.15625 -0.46875,1.125 -1.03125,2.71875 3.09375002,5.625 4.03125002,10.5 0.9375,4.875 0.9375,7.96875 0,0.46875 -0.09375,0.9375 l 0.09375,0.84375 q 0,0.5625 -0.1875,1.125 2.15625,-1.03125 4.21875,-1.875 2.1562496,-0.84375 4.3124996,-1.59375 z m 20.625,-94.5 q 1.125,-3.28125 2.34375,-6.65625 l 2.4375,-6.656251 h -22.96875 l 4.6875,13.312501 q 1.78125,-0.65625 3.46875,-0.84375 1.6875,-0.1875 3.5625,-0.1875 0.9375,0 2.625,0.28125 1.6875,0.1875 2.71875,0.46875 z m -0.84375,24.375 q 2.8125,-2.4375 4.21875,-5.8125 1.5,-3.46875 1.5,-6.84375 0,-5.625 -3.46875,-7.6875 -3.375,-2.15625 -7.875,-2.15625 -1.40625,0 -2.8125,0.1875 -1.3125,0.0937 -2.625,0.5625 l -1.5,0.5625 q -0.9375,0.46875 -1.875,1.5 -0.84375,1.03125 -2.15625,3.5625 l 4.03125,1.125 q 1.96875,0.5625 3.9375,1.21875 1.03125,-2.34375 3.75,-2.34375 1.6875,0 2.8125,1.125 1.21875,1.125 1.21875,3.1875 0,1.125 -0.375,2.0625 l -1.78125,3.84375 q -0.46875,0.9375 -0.46875,1.78125 0,1.21875 1.03125,2.34375 1.03125,1.125 2.4375,1.78125 z m -51.3749996,93.28125 q 0,2.625 2.34375,4.03125 2.4375,1.40625 5.53124997,1.40625 2.71875003,0 5.34375003,-0.375 l 3.75,-0.5625 q 6.4687496,-0.75 13.4062496,-1.59375 6.9375,-0.9375 13.59375,-0.9375 2.71875,0 5.4375,0.375 2.71875,0.375 5.4375,0.9375 l 5.4375,1.03125 q 2.71875,0.5625 5.4375,0.84375 -3,-1.125 -6.75,-1.78125 -3.65625,-0.65625 -4.6875,-2.34375 -0.9375,-1.6875 -2.25,-1.6875 -1.40625,0 -2.71875,0.84375 -1.3125,0.84375 -3.28125,0.84375 -1.59375,0 -4.125,-0.375 l -5.71875,-0.84375 q -3.09375,-0.46875 -6.28125,-0.84375 -3.1875,-0.375 -5.8125,-0.375 -3.5625,0 -9.0937496,1.5 -5.53125,1.5 -7.03125002,2.25 l -1.40624998,-0.375 q -0.1875,0 -0.65625,-0.5625 -0.375,-0.65625 -0.75,-1.3125 l -1.3125,-1.96875 q -0.375,-0.5625 -0.75,-1.40625 l -1.21875,-2.625 q -0.9375,1.125 -1.40625,2.71875 -0.375,1.5 -0.46875,3.1875 z M 0.95898438,215.4975 q 0.18750002,-0.46875 0.28125002,-1.78125 0.09375,-1.40625 0.09375,-2.34375 0,-4.6875 -1.31250002,-9.1875 -1.21874998,-4.59375 -3.46874998,-8.8125 v -1.5 l 2.15625,-6 -0.65625,0.28125 q -1.40625,0.65625 -2.71875,2.15625 -1.3125,1.40625 -1.3125,3.9375 0,3.84375 2.0625,12.84375 2.0625,9 2.625,11.53125 z M 26.083984,125.31 l 2.15625,1.125 q -0.9375,0.46875 -1.5,0.46875 -0.84375,0 -1.3125,-0.46875 z m -43.3125,110.15625 7.21875,-1.21875 -0.75,-1.21875 z"
         id="path5165"
         inkscape:connector-curvature="0" />
    </g>
  </g>
</svg>
