<?xml version="1.0" encoding="UTF-8" standalone="no"?>
<!-- Created with Inkscape (http://www.inkscape.org/) -->

<svg
   xmlns:dc="http://purl.org/dc/elements/1.1/"
   xmlns:cc="http://creativecommons.org/ns#"
   xmlns:rdf="http://www.w3.org/1999/02/22-rdf-syntax-ns#"
   xmlns:svg="http://www.w3.org/2000/svg"
   xmlns="http://www.w3.org/2000/svg"
   xmlns:sodipodi="http://sodipodi.sourceforge.net/DTD/sodipodi-0.dtd"
   xmlns:inkscape="http://www.inkscape.org/namespaces/inkscape"
   width="37.256641mm"
   height="9.872261mm"
   viewBox="0 0 37.256641 9.872261"
   version="1.1"
   id="svg8996"
   inkscape:version="0.92.4 (5da689c313, 2019-01-14)"
   sodipodi:docname="Aa14.svg">
  <defs
     id="defs8990" />
  <sodipodi:namedview
     id="base"
     pagecolor="#ffffff"
     bordercolor="#666666"
     borderopacity="1.0"
     inkscape:pageopacity="0.0"
     inkscape:pageshadow="2"
     inkscape:zoom="0.35"
     inkscape:cx="-334.6875"
     inkscape:cy="-371.42857"
     inkscape:document-units="mm"
     inkscape:current-layer="layer1"
     showgrid="false"
     fit-margin-top="0"
     fit-margin-left="0"
     fit-margin-right="0"
     fit-margin-bottom="0"
     inkscape:window-width="1920"
     inkscape:window-height="1017"
     inkscape:window-x="-8"
     inkscape:window-y="-8"
     inkscape:window-maximized="1" />
  <metadata
     id="metadata8993">
    <rdf:RDF>
      <cc:Work
         rdf:about="">
        <dc:format>image/svg+xml</dc:format>
        <dc:type
           rdf:resource="http://purl.org/dc/dcmitype/StillImage" />
        <dc:title></dc:title>
      </cc:Work>
    </rdf:RDF>
  </metadata>
  <g
     inkscape:label="Layer 1"
     inkscape:groupmode="layer"
     id="layer1"
     transform="translate(-1.2402344,-40.687262)">
    <g
       aria-label="ð“œ"
       style="font-style:normal;font-variant:normal;font-weight:normal;font-stretch:normal;font-size:50.79999924px;line-height:1.25;font-family:sans-serif;-inkscape-font-specification:'sans-serif, Normal';font-variant-ligatures:normal;font-variant-caps:normal;font-variant-numeric:normal;font-feature-settings:normal;text-align:start;letter-spacing:0px;word-spacing:0px;writing-mode:lr-tb;text-anchor:start;fill:#000000;fill-opacity:1;stroke:none;stroke-width:0.26458332"
       id="text9543">
      <path
         d="m 1.2402344,49.220068 q 0.5953124,-1.091407 1.6123046,-1.959571 1.0417969,-0.868164 2.3316406,-1.513086 1.3146484,-0.669726 2.8277343,-1.141015 1.5378906,-0.496094 3.1501951,-0.79375 1.63711,-0.297656 3.249414,-0.446485 1.63711,-0.148828 3.150195,-0.148828 0.396875,0 1.190625,0.04961 0.79375,0.0248 1.761133,0.09922 0.967383,0.07442 2.00918,0.148829 1.066601,0.04961 2.033984,0.124023 0.967383,0.07441 1.736328,0.124023 0.768946,0.02481 1.165821,0.02481 3.869531,0 6.176367,-0.694531 2.33164,-0.694531 4.861718,-2.406055 v 1.661914 q -4.29121,2.678906 -10.393163,2.678906 -0.396875,0 -1.240235,-0.0248 -0.818555,-0.04961 -1.860351,-0.09922 -1.016993,-0.07441 -2.158008,-0.148828 -1.116211,-0.07441 -2.133203,-0.124024 -1.016992,-0.07441 -1.835547,-0.09922 -0.79375,-0.04961 -1.16582,-0.04961 -7.218164,0 -12.8240236,2.926953 2.1083984,-0.32246 3.8943358,-0.471289 1.7859378,-0.148828 3.3486328,-0.148828 1.364258,0 3.125391,0.198438 1.785937,0.173633 3.770312,0.471289 1.984375,0.272851 4.067969,0.595312 2.083593,0.322461 4.067968,0.620117 2.00918,0.272852 3.795118,0.47129 1.810742,0.173632 3.224609,0.173632 0.917773,0 1.984375,-0.09922 1.066601,-0.124024 2.33164,-0.322461 v 1.314648 q -1.11621,0.173633 -1.90996,0.272852 -0.768946,0.07441 -1.240235,0.07441 -1.488281,0 -3.348633,-0.173633 -1.860351,-0.173633 -3.91914,-0.446484 -2.033985,-0.272852 -4.191992,-0.570508 -2.133203,-0.322461 -4.216797,-0.595313 -2.058789,-0.272851 -3.96875,-0.446484 -1.885156,-0.173633 -3.447852,-0.173633 -2.182812,0 -4.9113276,0.272852 -2.7285156,0.248046 -6.101953,0.79375 z"
         style="stroke-width:0.26458332"
         id="path9545"
         inkscape:connector-curvature="0" />
    </g>
  </g>
</svg>
