<?xml version="1.0" encoding="UTF-8" standalone="no"?>
<!-- Created with Inkscape (http://www.inkscape.org/) -->

<svg
   xmlns:dc="http://purl.org/dc/elements/1.1/"
   xmlns:cc="http://creativecommons.org/ns#"
   xmlns:rdf="http://www.w3.org/1999/02/22-rdf-syntax-ns#"
   xmlns:svg="http://www.w3.org/2000/svg"
   xmlns="http://www.w3.org/2000/svg"
   xmlns:sodipodi="http://sodipodi.sourceforge.net/DTD/sodipodi-0.dtd"
   xmlns:inkscape="http://www.inkscape.org/namespaces/inkscape"
   width="20.786327mm"
   height="25.226362mm"
   viewBox="0 0 20.786327 25.226362"
   version="1.1"
   id="svg5645"
   inkscape:version="0.92.4 (5da689c313, 2019-01-14)"
   sodipodi:docname="Aa18.svg">
  <defs
     id="defs5639" />
  <sodipodi:namedview
     id="base"
     pagecolor="#ffffff"
     bordercolor="#666666"
     borderopacity="1.0"
     inkscape:pageopacity="0.0"
     inkscape:pageshadow="2"
     inkscape:zoom="0.35"
     inkscape:cx="-323.25893"
     inkscape:cy="-389.92859"
     inkscape:document-units="mm"
     inkscape:current-layer="layer1"
     showgrid="false"
     fit-margin-top="0"
     fit-margin-left="0"
     fit-margin-right="0"
     fit-margin-bottom="0"
     inkscape:window-width="1920"
     inkscape:window-height="1017"
     inkscape:window-x="-8"
     inkscape:window-y="-8"
     inkscape:window-maximized="1" />
  <metadata
     id="metadata5642">
    <rdf:RDF>
      <cc:Work
         rdf:about="">
        <dc:format>image/svg+xml</dc:format>
        <dc:type
           rdf:resource="http://purl.org/dc/dcmitype/StillImage" />
        <dc:title></dc:title>
      </cc:Work>
    </rdf:RDF>
  </metadata>
  <g
     inkscape:label="Layer 1"
     inkscape:groupmode="layer"
     id="layer1"
     transform="translate(1.7835748,-20.438365)">
    <g
       aria-label="ð“ "
       style="font-style:normal;font-variant:normal;font-weight:normal;font-stretch:normal;font-size:50.79999924px;line-height:1.25;font-family:sans-serif;-inkscape-font-specification:'sans-serif, Normal';font-variant-ligatures:normal;font-variant-caps:normal;font-variant-numeric:normal;font-feature-settings:normal;text-align:start;letter-spacing:0px;word-spacing:0px;writing-mode:lr-tb;text-anchor:start;fill:#000000;fill-opacity:1;stroke:none;stroke-width:0.26458332"
       id="text6192">
      <path
         d="m 1.0193548,45.193443 v -5.159375 h -2.4308593 l -0.3720703,-0.471289 v -9.028907 l 0.3720703,-0.471289 h 9.1281248 l 4.3160157,-5.829101 q -0.198438,-0.545703 -0.198438,-0.967383 0,-1.016992 0.669727,-1.909961 0.669726,-0.917773 1.637109,-0.917773 1.562696,0 1.562696,1.116211 0,1.116211 -0.79375,2.158007 -0.768946,1.016993 -1.785938,1.016993 -0.223242,0 -0.347265,-0.02481 l -3.7951176,5.357812 h 9.5994136 l 0.42168,0.396875 v 9.177735 l -0.42168,0.396875 h -2.38125 v 5.233789 l -0.421679,0.396875 H 1.3914251 Z m 0.79375,-11.95586 V 44.870982 H 15.406073 V 33.237583 Z m -0.79375,6.002735 v -6.35 L 1.3914251,32.443833 H 15.778144 l 0.421679,0.396875 v 6.39961 h 2.00918 V 30.856333 H -0.98982485 v 8.383985 z M 14.90998,21.951451 q 0,-0.719336 -0.818555,-0.719336 -0.570508,0 -1.091406,0.694531 -0.496094,0.694531 -0.496094,1.289844 0,0.694531 0.595312,0.694531 0.620118,0 1.21543,-0.644922 0.595313,-0.669726 0.595313,-1.314648 z"
         style="stroke-width:0.26458332"
         id="path6194"
         inkscape:connector-curvature="0" />
    </g>
  </g>
</svg>
