<?xml version="1.0" encoding="UTF-8" standalone="no"?>
<!-- Created with Inkscape (http://www.inkscape.org/) -->

<svg
   xmlns:dc="http://purl.org/dc/elements/1.1/"
   xmlns:cc="http://creativecommons.org/ns#"
   xmlns:rdf="http://www.w3.org/1999/02/22-rdf-syntax-ns#"
   xmlns:svg="http://www.w3.org/2000/svg"
   xmlns="http://www.w3.org/2000/svg"
   xmlns:sodipodi="http://sodipodi.sourceforge.net/DTD/sodipodi-0.dtd"
   xmlns:inkscape="http://www.inkscape.org/namespaces/inkscape"
   width="18.553905mm"
   height="21.728907mm"
   viewBox="0 0 18.553905 21.728907"
   version="1.1"
   id="svg6203"
   inkscape:version="0.92.4 (5da689c313, 2019-01-14)"
   sodipodi:docname="Aa19.svg">
  <defs
     id="defs6197" />
  <sodipodi:namedview
     id="base"
     pagecolor="#ffffff"
     bordercolor="#666666"
     borderopacity="1.0"
     inkscape:pageopacity="0.0"
     inkscape:pageshadow="2"
     inkscape:zoom="0.35"
     inkscape:cx="-311.83036"
     inkscape:cy="-328.57143"
     inkscape:document-units="mm"
     inkscape:current-layer="layer1"
     showgrid="false"
     fit-margin-top="0"
     fit-margin-left="0"
     fit-margin-right="0"
     fit-margin-bottom="0"
     inkscape:window-width="1920"
     inkscape:window-height="1017"
     inkscape:window-x="-8"
     inkscape:window-y="-8"
     inkscape:window-maximized="1" />
  <metadata
     id="metadata6200">
    <rdf:RDF>
      <cc:Work
         rdf:about="">
        <dc:format>image/svg+xml</dc:format>
        <dc:type
           rdf:resource="http://purl.org/dc/dcmitype/StillImage" />
        <dc:title></dc:title>
      </cc:Work>
    </rdf:RDF>
  </metadata>
  <g
     inkscape:label="Layer 1"
     inkscape:groupmode="layer"
     id="layer1"
     transform="translate(4.807385,-40.169902)">
    <g
       aria-label="ð“¡"
       style="font-style:normal;font-variant:normal;font-weight:normal;font-stretch:normal;font-size:50.79999924px;line-height:1.25;font-family:sans-serif;-inkscape-font-specification:'sans-serif, Normal';font-variant-ligatures:normal;font-variant-caps:normal;font-variant-numeric:normal;font-feature-settings:normal;text-align:start;letter-spacing:0px;word-spacing:0px;writing-mode:lr-tb;text-anchor:start;fill:#000000;fill-opacity:1;stroke:none;stroke-width:0.26458332"
       id="text6750">
      <path
         d="m 12.20863,50.2158 q 1.537891,0.04961 1.537891,1.339453 0,1.463477 -1.537891,1.463477 v 8.880078 H 10.968396 V 50.662284 q 0,-1.016992 -0.173633,-2.083593 Q 10.645935,47.487284 10.298669,46.470292 9.9762085,45.428495 9.4305054,44.510722 8.909607,43.592948 8.1406617,42.898417 7.3965211,42.203886 6.4043336,41.807011 5.4369508,41.410136 4.2215211,41.410136 q -1.9099609,0 -3.1253906,0.843359 -1.21542962,0.818555 -1.90996086,2.133203 -0.66972654,1.314649 -0.91777344,2.976563 -0.2480469,1.661914 -0.2480469,3.299023 V 61.898808 H -3.219885 V 53.01873 q -1.5875,0 -1.5875,-1.389063 0,-1.389062 1.5875,-1.413867 0.074414,-5.010547 1.9099609,-7.51582 1.86035153,-2.530078 5.5066405,-2.530078 2.1083984,0 3.5966797,0.843359 1.5130859,0.843359 2.4804689,2.232422 0.967383,1.389062 1.413867,3.199804 0.471289,1.810743 0.520898,3.770313 z"
         style="stroke-width:0.26458332"
         id="path6752"
         inkscape:connector-curvature="0" />
    </g>
  </g>
</svg>
