<?xml version="1.0" encoding="UTF-8" standalone="no"?>
<!-- Created with Inkscape (http://www.inkscape.org/) -->

<svg
   xmlns:dc="http://purl.org/dc/elements/1.1/"
   xmlns:cc="http://creativecommons.org/ns#"
   xmlns:rdf="http://www.w3.org/1999/02/22-rdf-syntax-ns#"
   xmlns:svg="http://www.w3.org/2000/svg"
   xmlns="http://www.w3.org/2000/svg"
   xmlns:sodipodi="http://sodipodi.sourceforge.net/DTD/sodipodi-0.dtd"
   xmlns:inkscape="http://www.inkscape.org/namespaces/inkscape"
   width="34.081642mm"
   height="24.804688mm"
   viewBox="0 0 34.081642 24.804688"
   version="1.1"
   id="svg8435"
   inkscape:version="0.92.4 (5da689c313, 2019-01-14)"
   sodipodi:docname="Aa23.svg">
  <defs
     id="defs8429" />
  <sodipodi:namedview
     id="base"
     pagecolor="#ffffff"
     bordercolor="#666666"
     borderopacity="1.0"
     inkscape:pageopacity="0.0"
     inkscape:pageshadow="2"
     inkscape:zoom="0.35"
     inkscape:cx="-351.83036"
     inkscape:cy="-391.42857"
     inkscape:document-units="mm"
     inkscape:current-layer="layer1"
     showgrid="false"
     fit-margin-top="0"
     fit-margin-left="0"
     fit-margin-right="0"
     fit-margin-bottom="0"
     inkscape:window-width="1920"
     inkscape:window-height="1017"
     inkscape:window-x="-8"
     inkscape:window-y="-8"
     inkscape:window-maximized="1" />
  <metadata
     id="metadata8432">
    <rdf:RDF>
      <cc:Work
         rdf:about="">
        <dc:format>image/svg+xml</dc:format>
        <dc:type
           rdf:resource="http://purl.org/dc/dcmitype/StillImage" />
        <dc:title></dc:title>
      </cc:Work>
    </rdf:RDF>
  </metadata>
  <g
     inkscape:label="Layer 1"
     inkscape:groupmode="layer"
     id="layer1"
     transform="translate(-5.7759485,-20.463169)">
    <g
       aria-label="ð“¥"
       style="font-style:normal;font-variant:normal;font-weight:normal;font-stretch:normal;font-size:50.79999924px;line-height:1.25;font-family:sans-serif;-inkscape-font-specification:'sans-serif, Normal';font-variant-ligatures:normal;font-variant-caps:normal;font-variant-numeric:normal;font-feature-settings:normal;text-align:start;letter-spacing:0px;word-spacing:0px;writing-mode:lr-tb;text-anchor:start;fill:#000000;fill-opacity:1;stroke:none;stroke-width:0.26458332"
       id="text8982">
      <path
         d="m 15.970675,20.463169 -0.942578,5.18418 H 30.60544 l -1.041797,-5.18418 h 1.21543 l 1.041797,5.18418 h 4.663281 l 0.942578,-5.18418 h 1.240235 l -0.967383,5.18418 q 1.016992,0 1.5875,0.570508 0.570508,0.570508 0.570508,1.5875 0,1.116211 -0.768946,1.736328 -0.74414,0.620117 -2.083593,0.620117 L 34.127706,45.267857 31.275167,30.161802 H 14.283956 L 11.481027,45.267857 8.6284875,30.161802 q -1.3642578,0 -2.1083984,-0.620117 -0.7441406,-0.620117 -0.7441406,-1.736328 0,-1.016992 0.5705078,-1.5875 0.5705078,-0.570508 1.6123047,-0.570508 l -1.0169922,-5.18418 h 1.190625 l 0.9921875,5.18418 h 4.7128907 l 0.917773,-5.18418 z m 15.130859,8.458399 -0.322461,-2.033985 H 14.829659 l -0.37207,2.033985 z m 4.812109,0 0.347266,-2.033985 h -4.266406 l 0.322461,2.033985 z m -1.785937,9.847461 1.5875,-8.607227 h -3.224609 z m 3.050976,-9.847461 q 1.438672,0 1.438672,-1.016992 0,-0.942579 -1.091406,-1.016993 z m -27.4835929,0 H 13.217355 L 13.61423,26.887583 H 9.3230188 Z m 1.7859379,9.847461 1.562695,-8.607227 H 9.8687219 Z M 8.4548547,28.921568 8.1075891,26.887583 q -1.0914062,0.07441 -1.0914062,1.016993 0,1.016992 1.4386718,1.016992 z"
         style="stroke-width:0.26458332"
         id="path8984"
         inkscape:connector-curvature="0" />
    </g>
  </g>
</svg>
