<?xml version="1.0" encoding="UTF-8" standalone="no"?>
<!-- Created with Inkscape (http://www.inkscape.org/) -->

<svg
   xmlns:dc="http://purl.org/dc/elements/1.1/"
   xmlns:cc="http://creativecommons.org/ns#"
   xmlns:rdf="http://www.w3.org/1999/02/22-rdf-syntax-ns#"
   xmlns:svg="http://www.w3.org/2000/svg"
   xmlns="http://www.w3.org/2000/svg"
   xmlns:sodipodi="http://sodipodi.sourceforge.net/DTD/sodipodi-0.dtd"
   xmlns:inkscape="http://www.inkscape.org/namespaces/inkscape"
   width="28.599804mm"
   height="37.603905mm"
   viewBox="0 0 28.599804 37.603905"
   version="1.1"
   id="svg9551"
   inkscape:version="0.92.4 (5da689c313, 2019-01-14)"
   sodipodi:docname="Aa25.svg">
  <defs
     id="defs9545" />
  <sodipodi:namedview
     id="base"
     pagecolor="#ffffff"
     bordercolor="#666666"
     borderopacity="1.0"
     inkscape:pageopacity="0.0"
     inkscape:pageshadow="2"
     inkscape:zoom="0.35"
     inkscape:cx="-351.83036"
     inkscape:cy="-360.00001"
     inkscape:document-units="mm"
     inkscape:current-layer="layer1"
     showgrid="false"
     fit-margin-top="0"
     fit-margin-left="0"
     fit-margin-right="0"
     fit-margin-bottom="0"
     inkscape:window-width="1920"
     inkscape:window-height="1017"
     inkscape:window-x="-8"
     inkscape:window-y="-8"
     inkscape:window-maximized="1" />
  <metadata
     id="metadata9548">
    <rdf:RDF>
      <cc:Work
         rdf:about="">
        <dc:format>image/svg+xml</dc:format>
        <dc:type
           rdf:resource="http://purl.org/dc/dcmitype/StillImage" />
        <dc:title></dc:title>
      </cc:Work>
    </rdf:RDF>
  </metadata>
  <g
     inkscape:label="Layer 1"
     inkscape:groupmode="layer"
     id="layer1"
     transform="translate(-5.7759485,-15.979426)">
    <g
       aria-label="ð“§"
       style="font-style:normal;font-variant:normal;font-weight:normal;font-stretch:normal;font-size:50.79999924px;line-height:1.25;font-family:sans-serif;-inkscape-font-specification:'sans-serif, Normal';font-variant-ligatures:normal;font-variant-caps:normal;font-variant-numeric:normal;font-feature-settings:normal;text-align:start;letter-spacing:0px;word-spacing:0px;writing-mode:lr-tb;text-anchor:start;fill:#000000;fill-opacity:1;stroke:none;stroke-width:0.26458332"
       id="text10098">
      <path
         d="M 34.028487,40.064778 Q 31.02712,38.675715 27.951339,37.757942 24.900362,36.840168 21.626144,36.418489 l -1.190625,17.164843 h -0.79375 L 18.475948,36.418489 q -3.224609,0.347265 -6.250781,1.240234 -3.0261717,0.868164 -5.9531248,2.257226 L 5.7759485,39.295832 q 3.1253906,-2.951757 5.8539065,-4.464843 2.75332,-1.537891 6.399609,-2.331641 l -0.768945,-16.048633 0.37207,-0.471289 h 4.39043 l 0.421679,0.396875 -0.768945,16.098242 q 2.480469,0.471289 4.985742,1.785938 2.505273,1.289844 4.688086,2.852539 l 3.026172,2.182812 z M 18.550362,33.193879 q -3.026171,0.620117 -5.531445,1.810742 -2.480469,1.165821 -4.8369138,3.175 2.5300778,-1.116211 5.2089838,-1.711523 2.703711,-0.595313 5.432227,-0.892969 l 0.42168,0.396875 0.79375,11.807031 0.818554,-11.881445 0.496094,-0.297656 q 2.629297,0.322461 5.084961,0.967383 2.455664,0.620117 4.886523,1.513086 Q 29.01794,36.418489 26.512667,35.10384 24.032198,33.764387 21.229269,33.193879 L 20.857198,32.72259 21.626144,16.773176 h -3.547071 l 0.768946,16.023828 z"
         style="stroke-width:0.26458332"
         id="path10100"
         inkscape:connector-curvature="0" />
    </g>
  </g>
</svg>
