<?xml version="1.0" encoding="UTF-8" standalone="no"?>
<!-- Created with Inkscape (http://www.inkscape.org/) -->

<svg
   xmlns:dc="http://purl.org/dc/elements/1.1/"
   xmlns:cc="http://creativecommons.org/ns#"
   xmlns:rdf="http://www.w3.org/1999/02/22-rdf-syntax-ns#"
   xmlns:svg="http://www.w3.org/2000/svg"
   xmlns="http://www.w3.org/2000/svg"
   xmlns:sodipodi="http://sodipodi.sourceforge.net/DTD/sodipodi-0.dtd"
   xmlns:inkscape="http://www.inkscape.org/namespaces/inkscape"
   width="11.137305mm"
   height="38.050388mm"
   viewBox="0 0 11.137305 38.050388"
   version="1.1"
   id="svg10109"
   inkscape:version="0.92.4 (5da689c313, 2019-01-14)"
   sodipodi:docname="Aa26.svg">
  <defs
     id="defs10103" />
  <sodipodi:namedview
     id="base"
     pagecolor="#ffffff"
     bordercolor="#666666"
     borderopacity="1.0"
     inkscape:pageopacity="0.0"
     inkscape:pageshadow="2"
     inkscape:zoom="0.35"
     inkscape:cx="-360.40179"
     inkscape:cy="-341.35715"
     inkscape:document-units="mm"
     inkscape:current-layer="layer1"
     showgrid="false"
     fit-margin-top="0"
     fit-margin-left="0"
     fit-margin-right="0"
     fit-margin-bottom="0"
     inkscape:window-width="1920"
     inkscape:window-height="1017"
     inkscape:window-x="-8"
     inkscape:window-y="-8"
     inkscape:window-maximized="1" />
  <metadata
     id="metadata10106">
    <rdf:RDF>
      <cc:Work
         rdf:about="">
        <dc:format>image/svg+xml</dc:format>
        <dc:type
           rdf:resource="http://purl.org/dc/dcmitype/StillImage" />
        <dc:title></dc:title>
      </cc:Work>
    </rdf:RDF>
  </metadata>
  <g
     inkscape:label="Layer 1"
     inkscape:groupmode="layer"
     id="layer1"
     transform="translate(-8.0438061,-20.46553)">
    <g
       aria-label="ð“¨"
       style="font-style:normal;font-variant:normal;font-weight:normal;font-stretch:normal;font-size:50.79999924px;line-height:1.25;font-family:sans-serif;-inkscape-font-specification:'sans-serif, Normal';font-variant-ligatures:normal;font-variant-caps:normal;font-variant-numeric:normal;font-feature-settings:normal;text-align:start;letter-spacing:0px;word-spacing:0px;writing-mode:lr-tb;text-anchor:start;fill:#000000;fill-opacity:1;stroke:none;stroke-width:0.26458332"
       id="text10656">
      <path
         d="m 16.626228,20.936819 0.37207,-0.471289 h 1.761133 l 0.42168,0.396875 v 37.25664 l -0.42168,0.396875 h -1.761133 l -0.37207,-0.471289 V 36.960647 Q 12.756697,36.414944 10.49947,32.595022 8.2670482,28.7751 8.0438061,22.89639 L 8.4158764,22.4251 h 1.5874996 l 0.42168,0.396875 q 0.173633,4.688086 1.761133,7.838282 1.5875,3.12539 4.440039,3.745507 z m 0.37207,14.337109 Q 15.162751,34.951467 14.09615,34.207327 13.029548,33.463186 11.962947,31.826077 10.896345,30.164163 10.301033,27.906936 9.7057201,25.624905 9.6561107,23.21885 H 8.837556 q 0.074414,2.703711 0.719336,5.134571 0.669727,2.406054 1.835547,4.167187 1.16582,1.761133 2.38125,2.579688 1.215429,0.79375 3.348633,1.141015 l 0.297656,0.372071 V 57.72217 h 0.967383 V 21.25928 h -0.967383 v 13.617773 z"
         style="stroke-width:0.26458332"
         id="path10658"
         inkscape:connector-curvature="0" />
    </g>
  </g>
</svg>
