<?xml version="1.0" encoding="UTF-8" standalone="no"?>
<!-- Created with Inkscape (http://www.inkscape.org/) -->

<svg
   xmlns:dc="http://purl.org/dc/elements/1.1/"
   xmlns:cc="http://creativecommons.org/ns#"
   xmlns:rdf="http://www.w3.org/1999/02/22-rdf-syntax-ns#"
   xmlns:svg="http://www.w3.org/2000/svg"
   xmlns="http://www.w3.org/2000/svg"
   xmlns:sodipodi="http://sodipodi.sourceforge.net/DTD/sodipodi-0.dtd"
   xmlns:inkscape="http://www.inkscape.org/namespaces/inkscape"
   width="15.205273mm"
   height="37.603905mm"
   viewBox="0 0 15.205273 37.603905"
   version="1.1"
   id="svg10667"
   inkscape:version="0.92.4 (5da689c313, 2019-01-14)"
   sodipodi:docname="Aa27.svg">
  <defs
     id="defs10661" />
  <sodipodi:namedview
     id="base"
     pagecolor="#ffffff"
     bordercolor="#666666"
     borderopacity="1.0"
     inkscape:pageopacity="0.0"
     inkscape:pageshadow="2"
     inkscape:zoom="0.35"
     inkscape:cx="-317.54464"
     inkscape:cy="-285.7143"
     inkscape:document-units="mm"
     inkscape:current-layer="layer1"
     showgrid="false"
     fit-margin-top="0"
     fit-margin-left="0"
     fit-margin-right="0"
     fit-margin-bottom="0"
     inkscape:window-width="1920"
     inkscape:window-height="1017"
     inkscape:window-x="-8"
     inkscape:window-y="-8"
     inkscape:window-maximized="1" />
  <metadata
     id="metadata10664">
    <rdf:RDF>
      <cc:Work
         rdf:about="">
        <dc:format>image/svg+xml</dc:format>
        <dc:type
           rdf:resource="http://purl.org/dc/dcmitype/StillImage" />
        <dc:title></dc:title>
      </cc:Work>
    </rdf:RDF>
  </metadata>
  <g
     inkscape:label="Layer 1"
     inkscape:groupmode="layer"
     id="layer1"
     transform="translate(3.2954798,-35.634185)">
    <g
       aria-label="ð“©"
       style="font-style:normal;font-variant:normal;font-weight:normal;font-stretch:normal;font-size:50.79999924px;line-height:1.25;font-family:sans-serif;-inkscape-font-specification:'sans-serif, Normal';font-variant-ligatures:normal;font-variant-caps:normal;font-variant-numeric:normal;font-feature-settings:normal;text-align:start;letter-spacing:0px;word-spacing:0px;writing-mode:lr-tb;text-anchor:start;fill:#000000;fill-opacity:1;stroke:none;stroke-width:0.26458332"
       id="text11214">
      <path
         d="M 7.0728794,36.155083 5.5845982,39.15645 q 0.099219,0.148829 0.2976562,0.446485 0.2232422,0.272851 0.4216797,0.694531 0.2232422,0.396875 0.4216797,0.917773 0.1984375,0.520899 0.2728516,1.141016 l 4.4896486,-1.116211 0.421679,0.396875 v 4.415234 l -0.421679,0.396875 -4.3904299,-1.116211 q 0,0.520899 -0.1736328,1.141016 -0.1736328,0.595313 -0.4712891,1.141016 -0.2976562,0.520898 -0.6945312,0.917773 -0.396875,0.37207 -0.8185547,0.446485 V 73.238091 H 3.699442 V 49.028716 Q 3.1785435,48.904692 2.7816686,48.507817 2.4095982,48.110942 2.1367467,47.590044 1.8886998,47.069146 1.715067,46.473833 1.5662389,45.878521 1.5414342,45.357622 l -4.3408203,1.091406 -0.4960937,-0.471289 v -4.266406 l 0.4960937,-0.446484 4.440039,1.116211 Q 1.8390904,41.488091 2.1863561,40.570318 2.5584264,39.627739 3.0297154,39.181255 L 1.5662389,36.229497 1.8886998,35.634185 h 4.7873046 z m -0.7441406,6.72207 Q 6.2543248,42.33145 6.1054966,41.835357 5.9814732,41.339263 5.7830357,40.942388 L 5.3861607,40.198247 Q 5.2125279,39.875786 4.9396763,39.627739 4.6916295,39.379693 4.3939732,39.379693 h -0.099219 q -0.1240235,0.0248 -0.2728516,0.07441 -0.1488281,0.04961 -0.2728515,0.09922 -0.719336,0.818555 -1.0666016,2.058789 -0.2976562,1.190625 -0.3720703,1.314649 v 1.909961 q 0.074414,0.570508 0.1984375,1.190625 0.1488281,0.620117 0.3720703,1.141015 0.2480469,0.496094 0.5457031,0.84336 0.322461,0.322461 0.7441406,0.322461 0.5208985,0 0.9177735,-0.347266 0.396875,-0.347266 0.6697265,-0.868164 0.2976563,-0.520898 0.4464844,-1.116211 0.1488281,-0.620117 0.1488281,-1.141016 z m -8.8304686,2.678907 4.0183593,-1.016992 q 0,-0.124024 0,-0.223243 0,-0.124023 -0.024805,-0.248047 L 1.5166295,43.1252 -2.5017298,42.133013 Z M 11.116043,42.133013 7.0976841,43.150005 v 1.389063 l 4.0183589,1.016992 z m -8.5576166,-5.705078 1.1162109,2.282031 q 0.3720703,-0.124023 0.6449219,-0.124023 0.1240234,0 0.1984375,-0.02481 0.2728515,0 0.4464843,0.09922 l 1.0914063,-2.232422 z"
         style="stroke-width:0.26458332"
         id="path11216"
         inkscape:connector-curvature="0" />
    </g>
  </g>
</svg>
