<?xml version="1.0" encoding="UTF-8" standalone="no"?>
<!-- Created with Inkscape (http://www.inkscape.org/) -->

<svg
   xmlns:dc="http://purl.org/dc/elements/1.1/"
   xmlns:cc="http://creativecommons.org/ns#"
   xmlns:rdf="http://www.w3.org/1999/02/22-rdf-syntax-ns#"
   xmlns:svg="http://www.w3.org/2000/svg"
   xmlns="http://www.w3.org/2000/svg"
   xmlns:sodipodi="http://sodipodi.sourceforge.net/DTD/sodipodi-0.dtd"
   xmlns:inkscape="http://www.inkscape.org/namespaces/inkscape"
   width="37.926369mm"
   height="19.322849mm"
   viewBox="0 0 37.926369 19.322849"
   version="1.1"
   id="svg5090"
   inkscape:version="0.92.4 (5da689c313, 2019-01-14)"
   sodipodi:docname="Aa6.svg">
  <defs
     id="defs5084" />
  <sodipodi:namedview
     id="base"
     pagecolor="#ffffff"
     bordercolor="#666666"
     borderopacity="1.0"
     inkscape:pageopacity="0.0"
     inkscape:pageshadow="2"
     inkscape:zoom="0.35"
     inkscape:cx="-371.83036"
     inkscape:cy="-184.2143"
     inkscape:document-units="mm"
     inkscape:current-layer="layer1"
     showgrid="false"
     fit-margin-top="0"
     fit-margin-left="0"
     fit-margin-right="0"
     fit-margin-bottom="0"
     inkscape:window-width="1920"
     inkscape:window-height="1017"
     inkscape:window-x="-8"
     inkscape:window-y="-8"
     inkscape:window-maximized="1" />
  <metadata
     id="metadata5087">
    <rdf:RDF>
      <cc:Work
         rdf:about="">
        <dc:format>image/svg+xml</dc:format>
        <dc:type
           rdf:resource="http://purl.org/dc/dcmitype/StillImage" />
        <dc:title></dc:title>
      </cc:Work>
    </rdf:RDF>
  </metadata>
  <g
     inkscape:label="Layer 1"
     inkscape:groupmode="layer"
     id="layer1"
     transform="translate(-11.067615,-80.77045)">
    <g
       aria-label="ð“’"
       style="font-style:normal;font-variant:normal;font-weight:normal;font-stretch:normal;font-size:50.79999924px;line-height:1.25;font-family:sans-serif;-inkscape-font-specification:'sans-serif, Normal';font-variant-ligatures:normal;font-variant-caps:normal;font-variant-numeric:normal;font-feature-settings:normal;text-align:start;letter-spacing:0px;word-spacing:0px;writing-mode:lr-tb;text-anchor:start;fill:#000000;fill-opacity:1;stroke:none;stroke-width:0.26458332"
       id="text5637">
      <path
         d="m 18.533826,80.820059 11.683008,12.898438 11.335742,-12.948047 0.644922,0.173633 6.796484,16.147851 -0.272851,0.520899 -4.01836,0.818554 -0.496094,-0.322461 -2.75332,-13.940234 -9.624218,11.137305 0.74414,4.266406 -0.396875,0.520897 H 28.18285 l -0.372071,-0.471288 0.768946,-4.316015 -9.94668,-11.137305 -2.455664,13.989844 -0.396875,0.272851 -4.39043,-0.818554 L 11.067615,97.01752 17.8641,80.869669 Z m 10.864453,14.485938 -0.719336,3.993554 h 3.050977 l -0.719336,-4.043164 0.124023,-0.37207 10.269141,-11.881445 0.644922,0.173633 2.852539,14.386718 3.175,-0.644922 -6.374805,-15.106054 -11.162109,12.749609 -0.595313,0.04961 -11.608593,-12.824024 -6.374805,15.130859 3.522266,0.644922 2.505273,-14.337109 0.719336,-0.173633 10.641211,11.881445 z"
         style="stroke-width:0.26458332"
         id="path5639"
         inkscape:connector-curvature="0" />
    </g>
  </g>
</svg>
