<?xml version="1.0" encoding="UTF-8" standalone="no"?>
<!-- Created with Inkscape (http://www.inkscape.org/) -->

<svg
   xmlns:dc="http://purl.org/dc/elements/1.1/"
   xmlns:cc="http://creativecommons.org/ns#"
   xmlns:rdf="http://www.w3.org/1999/02/22-rdf-syntax-ns#"
   xmlns:svg="http://www.w3.org/2000/svg"
   xmlns="http://www.w3.org/2000/svg"
   xmlns:sodipodi="http://sodipodi.sourceforge.net/DTD/sodipodi-0.dtd"
   xmlns:inkscape="http://www.inkscape.org/namespaces/inkscape"
   width="22.12578mm"
   height="38.025585mm"
   viewBox="0 0 22.12578 38.025584"
   version="1.1"
   id="svg4525"
   inkscape:version="0.92.4 (5da689c313, 2019-01-14)"
   sodipodi:docname="B1.svg">
  <defs
     id="defs4519" />
  <sodipodi:namedview
     id="base"
     pagecolor="#ffffff"
     bordercolor="#666666"
     borderopacity="1.0"
     inkscape:pageopacity="0.0"
     inkscape:pageshadow="2"
     inkscape:zoom="0.35"
     inkscape:cx="1031.4246"
     inkscape:cy="-121.55059"
     inkscape:document-units="mm"
     inkscape:current-layer="layer1"
     showgrid="false"
     fit-margin-top="0"
     fit-margin-left="0"
     fit-margin-right="0"
     fit-margin-bottom="0"
     inkscape:window-width="1920"
     inkscape:window-height="1017"
     inkscape:window-x="-8"
     inkscape:window-y="-8"
     inkscape:window-maximized="1"
     showguides="false" />
  <metadata
     id="metadata4522">
    <rdf:RDF>
      <cc:Work
         rdf:about="">
        <dc:format>image/svg+xml</dc:format>
        <dc:type
           rdf:resource="http://purl.org/dc/dcmitype/StillImage" />
        <dc:title></dc:title>
      </cc:Work>
    </rdf:RDF>
  </metadata>
  <g
     inkscape:label="Layer 1"
     inkscape:groupmode="layer"
     id="layer1"
     transform="translate(360.21027,-78.647478)">
    <g
       aria-label="ð“€‰"
       style="font-style:normal;font-variant:normal;font-weight:normal;font-stretch:normal;font-size:50.79999924px;line-height:1.25;font-family:sans-serif;-inkscape-font-specification:sans-serif;font-variant-ligatures:normal;font-variant-caps:normal;font-variant-numeric:normal;font-feature-settings:normal;text-align:start;letter-spacing:0px;word-spacing:0px;writing-mode:lr-tb;text-anchor:start;fill:#000000;fill-opacity:1;stroke:none;stroke-width:0.26458332"
       id="text5105" />
    <g
       aria-label="ð“€†"
       transform="matrix(0.26458333,0,0,0.26458333,-199.96101,81.431167)"
       style="font-style:normal;font-variant:normal;font-weight:normal;font-stretch:normal;font-size:192px;line-height:1.25;font-family:sans-serif;-inkscape-font-specification:sans-serif;font-variant-ligatures:normal;font-variant-caps:normal;font-variant-numeric:normal;font-feature-settings:normal;text-align:start;letter-spacing:0px;word-spacing:0px;writing-mode:lr-tb;text-anchor:start;fill:#000000;fill-opacity:1;stroke:none"
       id="flowRoot5135" />
    <g
       aria-label="ð“"
       transform="matrix(0.26458333,0,0,0.26458333,-319.11717,105.28114)"
       style="font-style:normal;font-variant:normal;font-weight:normal;font-stretch:normal;font-size:192px;line-height:1.25;font-family:sans-serif;-inkscape-font-specification:sans-serif;font-variant-ligatures:normal;font-variant-caps:normal;font-variant-numeric:normal;font-feature-settings:normal;text-align:start;letter-spacing:0px;word-spacing:0px;writing-mode:lr-tb;text-anchor:start;fill:#000000;fill-opacity:1;stroke:none"
       id="flowRoot5399">
      <path
         d="m -77.875,-20.037657 q -1.125,8.34375 -4.59375,24.5624997 -3.375,16.2187503 -3.375,27.9375003 0,4.03125 2.90625,5.0625 2.90625,0.9375 3.5625,3.5625 l -1.5,1.96875 h -72.5625 q -1.875,-0.75 -1.875,-2.625 0,-3.5625 6.28125,-8.4375 6.28125,-4.96875 6.28125,-7.875 0,-5.4375 -4.59375,-21.0000003 -4.59375,-15.5624997 -4.59375,-21.2812497 0,-5.34375 2.15625,-8.34375 2.25,-3.09375 6.28125,-3.09375 6.1875,0 15.75,12.75 9.65625,12.6562497 12.09375,15.6562497 3.9375,-12.7499997 7.125,-25.4062497 3.1875,-12.75 6.5625,-25.59375 -0.75,-4.5 -4.59375,-7.6875 -3.75,-3.1875 -10.21875,-4.40625 l -0.65625,-0.375 -0.5625,-0.375 q -0.9375,-1.5 -0.9375,-3.46875 0,-2.0625 -0.1875,-3.65625 l -0.75,-0.28125 q -0.375,0 -0.75,-0.28125 l -0.46875,-0.84375 q -0.28125,-0.375 -0.46875,-0.84375 0.65625,-2.0625 3.1875,-6.28125 2.53125,-4.3125 3.375,-8.625 0.84375,-4.40625 7.03125,-7.875 6.1875,-3.468753 11.625,-3.468753 12.1875,0 18.375,15.843753 6.28125,15.84375 6.28125,53.0625 0,6.46875 -1.6875,9 -1.59375,2.53125 -4.21875,2.71875 z m -22.875,-23.15625 q -2.34375,7.5 -5.90625,21.5625 -3.5625,13.9687497 -7.6875,24.0937497 l -0.84375,0.1875 q -0.46875,0 -0.9375,0.28125 -1.78125,-1.6875 -12,-15.4687497 -10.125,-13.875 -15.375,-13.875 -2.71875,0 -4.03125,2.15625 -1.3125,2.0625 -1.3125,5.71875 0,7.21875 4.5,20.5312497 4.59375,13.3125003 4.59375,21.9375003 0,2.53125 -1.6875,4.6875 -1.59375,2.15625 -3.75,4.03125 l -4.21875,3.65625 q -2.0625,1.78125 -2.8125,3.75 h 67.78125 q -2.0625,0 -3.28125,-1.96875 -1.125,-1.96875 -1.125,-6 0,-12.09375 3.46875,-28.7812503 3.5625,-16.6874997 4.59375,-23.9062497 -1.59375,-0.5625 -2.4375,-1.59375 -0.75,-1.03125 -0.75,-5.15625 0,-3 0.375,-6.375 0.375,-3.46875 0.375,-6.375 v -1.96875 q 0,-2.25 -0.84375,-3.84375 -0.75,-1.6875 -2.0625,-1.6875 -1.5,0 -2.25,2.15625 -0.75,2.0625 -0.75,6.09375 0,3.28125 0.375,5.8125 0.46875,2.4375 0.46875,4.3125 0,2.4375 -2.15625,4.3125 -2.0625,1.875 -4.3125,1.875 -2.90625,0 -4.59375,-3.84375 -1.59375,-3.84375 -1.59375,-9.84375 z m 23.25,20.53125 q 0.84375,-0.46875 1.5,-1.21875 0.75,-0.84375 1.3125,-1.6875 v -12 q 0,-28.96875 -5.53125,-44.4375 -5.4375,-15.46875 -15.9375,-15.46875 H -96.25 q -4.78125,0 -8.8125,1.96875 -3.9375,1.96875 -6.75,6.1875 3.9375,1.03125 7.5,2.71875 3.65625,1.59375 6.9375,3.9375 1.21875,-0.5625 2.53125,-0.5625 2.0625,0 3.375,1.5 1.40625,1.40625 1.40625,4.03125 0,1.96875 -3.9375,9.09375 -3.9375,7.125 -3.9375,16.40625 l 0.09375,0.46875 v 1.6875 l 0.09375,4.125 v 7.59375 q 0,5.8125 0.65625,8.8125 0.75,2.90625 2.25,3.46875 1.21875,0 1.96875,-0.75 0.84375,-0.75 1.5,-1.6875 l -0.75,-11.4375 q 0,-4.78125 1.59375,-7.6875 1.6875,-2.90625 4.5,-2.90625 2.90625,0 4.40625,3.09375 1.59375,3 1.59375,8.34375 0,3.28125 -0.5625,6.5625 -0.46875,3.28125 -0.46875,5.8125 0,1.875 0.5625,3.375 z m -20.90625,-57.09375 q -6.46875,-4.59375 -14.34375,-6.84375 -0.46875,2.625 -2.625,6 -2.15625,3.28125 -2.8125,5.625 0.5625,0.1875 0.84375,0.375 l 1.125,1.40625 q 0.1875,1.5 0.1875,3 0,1.5 0.375,3.09375 5.15625,0.9375 9.09375,3.5625 4.03125,2.625 6,6.1875 0.84375,-5.90625 3.46875,-11.8125 2.71875,-5.90625 4.03125,-8.90625 0,-1.78125 -1.40625,-2.25 -1.03125,0 -2.0625,0.65625 z m -9.5625,0.375 q -2.53125,0.9375 -4.21875,0.9375 -1.6875,0 -1.6875,-1.21875 l 0.1875,-0.84375 1.59375,-1.40625 q 1.40625,0 4.125,2.53125 z"
         id="path5407"
         inkscape:connector-curvature="0" />
    </g>
  </g>
</svg>
