<?xml version="1.0" encoding="UTF-8" standalone="no"?>
<!-- Created with Inkscape (http://www.inkscape.org/) -->

<svg
   xmlns:dc="http://purl.org/dc/elements/1.1/"
   xmlns:cc="http://creativecommons.org/ns#"
   xmlns:rdf="http://www.w3.org/1999/02/22-rdf-syntax-ns#"
   xmlns:svg="http://www.w3.org/2000/svg"
   xmlns="http://www.w3.org/2000/svg"
   xmlns:sodipodi="http://sodipodi.sourceforge.net/DTD/sodipodi-0.dtd"
   xmlns:inkscape="http://www.inkscape.org/namespaces/inkscape"
   width="25.846483mm"
   height="37.926369mm"
   viewBox="0 0 25.846483 37.926368"
   version="1.1"
   id="svg4525"
   inkscape:version="0.92.4 (5da689c313, 2019-01-14)"
   sodipodi:docname="B2.svg">
  <defs
     id="defs4519" />
  <sodipodi:namedview
     id="base"
     pagecolor="#ffffff"
     bordercolor="#666666"
     borderopacity="1.0"
     inkscape:pageopacity="0.0"
     inkscape:pageshadow="2"
     inkscape:zoom="0.35"
     inkscape:cx="1072.4519"
     inkscape:cy="-147.64684"
     inkscape:document-units="mm"
     inkscape:current-layer="layer1"
     showgrid="false"
     fit-margin-top="0"
     fit-margin-left="0"
     fit-margin-right="0"
     fit-margin-bottom="0"
     inkscape:window-width="1920"
     inkscape:window-height="1017"
     inkscape:window-x="-8"
     inkscape:window-y="-8"
     inkscape:window-maximized="1"
     showguides="false" />
  <metadata
     id="metadata4522">
    <rdf:RDF>
      <cc:Work
         rdf:about="">
        <dc:format>image/svg+xml</dc:format>
        <dc:type
           rdf:resource="http://purl.org/dc/dcmitype/StillImage" />
        <dc:title></dc:title>
      </cc:Work>
    </rdf:RDF>
  </metadata>
  <g
     inkscape:label="Layer 1"
     inkscape:groupmode="layer"
     id="layer1"
     transform="translate(371.06542,-71.842064)">
    <g
       aria-label="ð“€‰"
       style="font-style:normal;font-variant:normal;font-weight:normal;font-stretch:normal;font-size:50.79999924px;line-height:1.25;font-family:sans-serif;-inkscape-font-specification:sans-serif;font-variant-ligatures:normal;font-variant-caps:normal;font-variant-numeric:normal;font-feature-settings:normal;text-align:start;letter-spacing:0px;word-spacing:0px;writing-mode:lr-tb;text-anchor:start;fill:#000000;fill-opacity:1;stroke:none;stroke-width:0.26458332"
       id="text5105" />
    <g
       aria-label="ð“€†"
       transform="matrix(0.26458333,0,0,0.26458333,-199.96101,81.431167)"
       style="font-style:normal;font-variant:normal;font-weight:normal;font-stretch:normal;font-size:192px;line-height:1.25;font-family:sans-serif;-inkscape-font-specification:sans-serif;font-variant-ligatures:normal;font-variant-caps:normal;font-variant-numeric:normal;font-feature-settings:normal;text-align:start;letter-spacing:0px;word-spacing:0px;writing-mode:lr-tb;text-anchor:start;fill:#000000;fill-opacity:1;stroke:none"
       id="flowRoot5135" />
    <g
       aria-label="ð“‘"
       transform="matrix(0.26458333,0,0,0.26458333,-360.21027,78.647478)"
       style="font-style:normal;font-variant:normal;font-weight:normal;font-stretch:normal;font-size:192px;line-height:1.25;font-family:sans-serif;-inkscape-font-specification:sans-serif;font-variant-ligatures:normal;font-variant-caps:normal;font-variant-numeric:normal;font-feature-settings:normal;text-align:start;letter-spacing:0px;word-spacing:0px;writing-mode:lr-tb;text-anchor:start;fill:#000000;fill-opacity:1;stroke:none"
       id="flowRoot5410">
      <path
         d="m 51.222656,82.747499 q 0.28125,1.03125 0.28125,1.96875 0,3.46875 -3.1875,7.875 -3.1875,4.3125 -3.46875,4.6875 l -0.84375,0.1875 q -0.46875,0 -0.9375,0.28125 -1.3125,-0.46875 -1.78125,-1.125 -0.46875,-0.75 -0.46875,-1.6875 0,-1.3125 0.65625,-2.8125 0.75,-1.5 1.78125,-3.28125 -0.75,0.65625 -1.78125,1.21875 l -2.34375,-0.9375 -0.09375,-0.84375 q 0,-2.53125 1.96875,-4.125 1.96875,-1.59375 4.125,-2.4375 -0.1875,-3 -0.5625,-6.09375 -0.375,-3.09375 -0.375,-6.09375 0,-3.375 0.65625,-6.28125 l -4.3125,-11.25 q -2.15625,-5.53125 -3.1875,-11.53125 h -7.21875 l 2.90625,43.5 q 0,3.9375 -0.5625,7.78125 -0.46875,3.84375 -1.78125,7.875 2.15625,0.375 3.46875,1.593751 1.40625,1.21875 1.78125,3.375 3.5625,1.78125 11.53125,4.5 8.0625,2.71875 9.1875,5.15625 l -0.1875,1.40625 q -1.125,1.125 -2.53125,1.5 -1.3125,0.46875 -2.71875,0.46875 -0.9375,0 -2.34375,-0.28125 l -6,-1.125 q -1.59375,-0.28125 -2.8125,-0.28125 -2.25,0 -4.3125,0.75 -2.0625,0.84375 -6.84375,0.84375 h -52.59375 q -3.1875,-0.1875 -6.28125,-3.46875 -3.09375,-3.375 -3.46875,-7.03125 0,-6.09375 9.5625,-13.031251 9.5625,-7.03125 16.1250003,-9.1875 0.28125,-7.59375 3,-14.25 2.8125,-6.65625 7.59375,-12.5625 0,-9.1875 -4.59375,-13.96875 -4.5,-4.78125 -5.34375,-6.9375 -0.5625,4.5 -2.7187501,11.4375 -2.1562502,6.9375 -8.9062502,17.625 l -3.9375,6.375 q -4.78125,7.125 -6.28125,10.40625 -1.5,3.1875 -2.71875,5.25 -1.40625,-0.5625 -2.71875,-1.21875 v -1.40625 l -1.59375,2.53125 q -0.84375,1.3125 -1.59375,2.34375 -0.9375,0.375 -1.3125,0.5625 l -1.03125,-0.375 q -1.125,-1.21875 -1.125,-3.5625 0,-3.28125 2.53125,-6.1875 2.53125,-3 6.84375,-5.15625 2.15625,-5.53125 4.78125,-10.875 2.625,-5.4375 6.28125,-10.03125 l 1.5,-10.03125 q 1.125,-7.78125 3.09375,-13.21875 2.0625,-5.53125 4.40625,-8.15625 2.3437502,-2.625 7.9687502,-4.40625 l 5.7187501,-1.875 q 2.9062499,-0.9375 4.8749999,-1.78125 1.9687501,-0.9375 1.9687501,-1.96875 0,-1.3125 -0.84375,-2.625 l -1.5937501,-2.1562501 -8.4374999,-1.5 -0.7500001,-0.65625 q -1.4062499,-2.71875 -1.7812499,-5.34375 h -1.875 l -1.40625,-1.78124996 q 0,-3.37500004 1.78125,-6.00000004 1.875,-2.71875 3.2812499,-8.5312499 1.5000001,-5.8125 4.9687501,-7.59375 3.4687499,-1.78125 10.0312497,-1.78125 5.8125,0 10.875,2.34375 5.15625,2.25 8.53125,7.3125 l 9.375,-10.78125 2.25,0.1875 q 0.75,1.21875 1.5,2.34375 l 1.5,2.25 q -0.1875,0.5625 -0.1875,1.125 0,0.5625 -0.1875,1.03125 l -8.625,6.375 5.8125,3.8437499 5.8125,3.9375 q 0,0.46875 0.09375,1.03125 0.09375,0.5625 0.28125,1.125 l -2.25,2.90625004 q -1.125,1.49999996 -2.25,3.09374996 l -1.21875,-0.1875 h -1.3125 q -1.03125,-1.59375 -2.15625,-3.09374996 l -2.25,-2.90625004 q 3.375,10.125 5.71875,20.4375001 2.4375,10.21875 4.3125,20.71875 l -1.125,1.40625 q 1.03125,4.59375 3.375,12.75 2.4375,8.0625 2.4375,10.5 0,4.875 -0.1875,9.84375 -0.1875,4.875 -1.21875,9.75 z m -6.5625,-45.28125 q -2.25,-11.90625 -5.15625,-23.8125 -2.8125,-12.0000001 -7.5,-23.3437501 l -1.78125,-2.0624999 q -3.46875,-5.34375 -7.6875,-7.59375 -4.21875,-2.25 -10.125,-2.25 -5.9062498,0 -8.5312497,1.21875 -2.6250001,1.21875 -3.18750005,3.9375 4.21874995,1.03125 8.15625005,2.71875 3.9374997,1.59375 7.0312497,4.5937499 1.21875,-2.5312499 3.84375,-2.5312499 1.96875,0 3.375,2.3437499 1.40625,2.25 1.40625,4.59375 0,1.875 -0.9375,3.46875 -0.9375,1.59375004 -2.53125,3 l 2.8125,35.7187501 z m 4.875,24.9375 -0.75,-3.46875 q -0.75,-3.5625 -2.4375,-9 -1.6875,-5.4375 -2.53125,-9.46875 h -3.46875 q 1.21875,6.28125 4.40625,14.0625 3.1875,7.78125 3.1875,8.8125 0,0.75 -0.375,2.4375 -0.375,1.6875 -0.375,2.71875 l 0.46875,14.25 -0.28125,0.5625 -0.65625,0.9375 q -1.21875,0 -2.625,0.75 -1.3125,0.75 -2.0625,1.5 l 0.28125,0.75 q 0.75,-0.28125 1.875,-1.03125 1.21875,-0.84375 1.78125,-0.84375 0.75,0 1.03125,0.46875 0.28125,0.375 0.28125,0.75 0,0.375 -0.375,1.21875 l -0.9375,1.875 -1.03125,1.875 q -0.5625,0.9375 -0.65625,1.3125 l 0.1875,0.5625 1.21875,-1.875 q 0.84375,-1.40625 1.78125,-3.375 1.03125,-1.96875 1.03125,-2.8125 l -0.09375,-2.25 0.09375,-0.65625 q 0.75,-4.78125 0.9375,-9.46875 0.1875,-4.6875 0.1875,-9.5625 z m -13.6875,-72.1875001 4.03125,4.78125 q 1.96875,2.4375 3.84375,5.06250004 l 2.25,-3.09375004 z m -0.5625,-4.7812499 7.78125,-5.8125 -1.125,-1.78125 z m -60.46875,85.40625 q 1.3125,-2.15625 6.5625,-10.78125 5.25,-8.625 7.21875,-17.0625 l 1.125,-4.875 q 1.4062502,-5.8125 3.3750003,-8.34375 1.96875,-2.625 5.0625,-2.90625 0.1875,0.75 0.46875,1.40625 l 0.46874995,1.3125 q -2.34375005,0.9375 -3.09375005,2.34375 -0.6562499,1.40625 -0.6562499,2.625 0,1.125 0.7499999,2.25 0.75,1.125 1.875,2.34375 l 2.34375005,2.53125 h -0.09375 q 3.09375005,3.375 4.31249995,7.59375 1.3125,4.21875 1.3125,7.875 0,1.125 -0.65625,2.4375 -0.65625,1.3125 -1.5937499,2.625 l -1.8750001,2.625 q -2.8124999,3.65625 -4.5,9.09375 -1.6874999,5.34375 -1.9687499,11.8125 l -0.65625,1.21875 -7.4062503,3.65625 q -6.5625,3.28125 -10.96875,7.21875 -4.40625,3.843751 -6.5625,9.187501 0.65625,2.4375 2.71875,4.96875 2.15625,2.53125 4.59375,2.53125 h 52.125 q 4.125,0 6.1875,-0.75 2.15625,-0.84375 5.15625,-0.84375 2.53125,0 5.25,0.84375 2.8125,0.84375 5.4375,0.84375 0.46875,0 0.84375,-0.0937 l 0.75,-0.1875 q -0.375,-0.1875 -2.625,-1.125 -2.15625,-0.9375 -4.03125,-1.5 l -4.40625,-1.4063 q -2.25,-0.65625 -4.40625,-1.5 -2.0625,-0.9375 -3.75,-2.25 l -0.46875,-0.84375 -0.1875,-1.21875 q -0.1875,-1.03125 -1.125,-1.5 -0.9375,-0.5625 -3.28125,-0.5625 -0.375,-0.5625 -0.65625,-1.125 l -0.5625,-1.125 q 1.59375,-4.031251 2.15625,-7.875001 0.65625,-3.84375 0.65625,-7.875 v -1.3125 q 0,-0.75 -0.09375,-2.34375 l -0.75,-12 -2.15625,-28.3125 h -4.6875 l -1.40625,-1.21875 -3,-37.8750001 0.46875,-1.40624996 q 1.125,-1.03125004 1.96875,-2.25000004 0.84375,-1.3125 1.03125,-3.1875 0,-0.75 -0.65625,-1.78125 -0.5625,-1.03125 -1.40625,-1.3125 -0.46875,0.46875 -0.75,1.125 l -0.75,1.5 -2.4375,0.65625 q -3,-3.1875 -6.5624997,-5.0624999 -3.4687501,-1.96875 -9.09375005,-3.28125 l -0.46875,2.25 q -0.46874995,2.1562499 -2.06250005,4.8749999 -1.4999999,2.625 -1.8749999,4.59375 h 1.3124999 l 1.5000001,1.03125004 q 0.46875,2.99999996 1.49999995,5.34374996 1.87499995,0.46875 3.93750005,0.75 l 4.1249999,0.5625 0.8437501,0.46875 q 0.9375,1.59375 2.0624997,3.375 1.21875,1.7812501 1.21875,3.6562501 0,2.4375 -2.5312497,4.03125 -2.5312501,1.59375 -9.37500005,3.5625 -6.74999995,1.875 -9.84375005,5.4375 -3.0000002,3.46875 -4.5937502,10.21875 -1.59375,6.65625 -2.25,13.40625 -0.65625,6.75 -2.4375,8.0625 -1.6875,1.21875 -7.59375,13.6875 l -0.65625,1.125 -2.0625,3.84375 q -0.5625,0.9375 -0.75,1.40625 l -4.125,3.09375 q -1.40625,1.03125 -2.53125,2.34375 -1.125,1.21875 -1.3125,2.71875 0.84375,-1.3125 2.71875,-2.8125 1.875,-1.59375 3,-2.625 l 0.46875,3.9375 2.0625,-5.71875 z M 5.8476562,-7.9087511 q -2.9999999,2.25 -4.125,2.25 -1.12499995,0 -1.12499995,-1.59375 0,-2.0625 1.68750005,-2.9062499 1.3125,0 3.5624999,2.2499999 z"
         id="path5418"
         inkscape:connector-curvature="0" />
    </g>
  </g>
</svg>
