<?xml version="1.0" encoding="UTF-8" standalone="no"?>
<!-- Created with Inkscape (http://www.inkscape.org/) -->

<svg
   xmlns:dc="http://purl.org/dc/elements/1.1/"
   xmlns:cc="http://creativecommons.org/ns#"
   xmlns:rdf="http://www.w3.org/1999/02/22-rdf-syntax-ns#"
   xmlns:svg="http://www.w3.org/2000/svg"
   xmlns="http://www.w3.org/2000/svg"
   xmlns:sodipodi="http://sodipodi.sourceforge.net/DTD/sodipodi-0.dtd"
   xmlns:inkscape="http://www.inkscape.org/namespaces/inkscape"
   width="25.573631mm"
   height="37.926365mm"
   viewBox="0 0 25.573631 37.926364"
   version="1.1"
   id="svg4525"
   inkscape:version="0.92.4 (5da689c313, 2019-01-14)"
   sodipodi:docname="B3.svg">
  <defs
     id="defs4519" />
  <sodipodi:namedview
     id="base"
     pagecolor="#ffffff"
     bordercolor="#666666"
     borderopacity="1.0"
     inkscape:pageopacity="0.0"
     inkscape:pageshadow="2"
     inkscape:zoom="0.35"
     inkscape:cx="1179.0984"
     inkscape:cy="-219.83294"
     inkscape:document-units="mm"
     inkscape:current-layer="layer1"
     showgrid="false"
     fit-margin-top="0"
     fit-margin-left="0"
     fit-margin-right="0"
     fit-margin-bottom="0"
     inkscape:window-width="1920"
     inkscape:window-height="1017"
     inkscape:window-x="-8"
     inkscape:window-y="-8"
     inkscape:window-maximized="1"
     showguides="false" />
  <metadata
     id="metadata4522">
    <rdf:RDF>
      <cc:Work
         rdf:about="">
        <dc:format>image/svg+xml</dc:format>
        <dc:type
           rdf:resource="http://purl.org/dc/dcmitype/StillImage" />
        <dc:title></dc:title>
      </cc:Work>
    </rdf:RDF>
  </metadata>
  <g
     inkscape:label="Layer 1"
     inkscape:groupmode="layer"
     id="layer1"
     transform="translate(399.2823,-52.742827)">
    <g
       aria-label="ð“€‰"
       style="font-style:normal;font-variant:normal;font-weight:normal;font-stretch:normal;font-size:50.79999924px;line-height:1.25;font-family:sans-serif;-inkscape-font-specification:sans-serif;font-variant-ligatures:normal;font-variant-caps:normal;font-variant-numeric:normal;font-feature-settings:normal;text-align:start;letter-spacing:0px;word-spacing:0px;writing-mode:lr-tb;text-anchor:start;fill:#000000;fill-opacity:1;stroke:none;stroke-width:0.26458332"
       id="text5105" />
    <g
       aria-label="ð“€†"
       transform="matrix(0.26458333,0,0,0.26458333,-199.96101,81.431167)"
       style="font-style:normal;font-variant:normal;font-weight:normal;font-stretch:normal;font-size:192px;line-height:1.25;font-family:sans-serif;-inkscape-font-specification:sans-serif;font-variant-ligatures:normal;font-variant-caps:normal;font-variant-numeric:normal;font-feature-settings:normal;text-align:start;letter-spacing:0px;word-spacing:0px;writing-mode:lr-tb;text-anchor:start;fill:#000000;fill-opacity:1;stroke:none"
       id="flowRoot5135" />
    <g
       aria-label="ð“’"
       transform="matrix(0.26458333,0,0,0.26458333,-371.06542,71.842064)"
       style="font-style:normal;font-variant:normal;font-weight:normal;font-stretch:normal;font-size:192px;line-height:1.25;font-family:sans-serif;-inkscape-font-specification:sans-serif;font-variant-ligatures:normal;font-variant-caps:normal;font-variant-numeric:normal;font-feature-settings:normal;text-align:start;letter-spacing:0px;word-spacing:0px;writing-mode:lr-tb;text-anchor:start;fill:#000000;fill-opacity:1;stroke:none"
       id="flowRoot5421">
      <path
         d="m -99.615234,46.313905 h -1.218746 q -4.59375,0 -5.25,-1.6875 l -0.5625,-1.6875 1.3125,-1.6875 q 3.28125,-0.75 6.281246,-1.78125 3.09375,-1.125 6.28125,-2.4375 1.78125,-5.15625 7.96875,-8.53125 0.9375,-0.46875 2.34375,-1.03125 1.5,-0.65625 3.28125,-1.3125 1.875,-0.65625 3.84375,-1.3125 2.0625,-0.65625 4.03125,-1.3125 4.59375,-1.5 9.9375,-3.09375 0,-4.21875 0.46875,-7.96875 0.46875,-3.7499998 0.46875,-7.6874998 0,-2.71875 -0.46875,-5.43750001 -0.375,-2.81249999 -1.6875,-5.53124999 -5.34375,-3.65625 -5.34375,-7.1250002 0,-2.15625 2.15625,-4.3125 2.15625,-2.0625 2.34375,-4.21875 0,-0.375 -0.09375,-0.5625 l -0.46875,-1.125 q -2.71875,3.375 -9.375,6.65625 -6.65625,3.28125 -9.375,6 l -8.90625,22.125 v 3.09375 q 0,4.59375 -0.75,6.65625 -0.65625,2.0625 -2.25,2.0625 -1.21875,0 -1.78125,-0.84375 -0.5625,-0.9375 -0.5625,-2.15625 0,-0.75 0.09375,-1.03125 -1.875,3.84375 -2.25,5.71875 -0.46875,1.96875 -2.531246,1.96875 -1.59375,0 -2.625,-0.9375 -0.9375,-0.9375 -0.9375,-2.4375 0,-4.125 1.78125,-8.34375 1.78125,-4.3125 4.499996,-6.4687498 1.875,-6.1875 3.375,-10.78125 1.5,-4.6875 2.71875,-7.6875 1.21875,-3.0000002 1.96875,-4.7812502 0.75,-1.875 1.03125,-2.4375 0.375,-0.5625 1.6875,-1.96875 1.3125,-1.5 3.75,-3.84375 l 9.75,-9.28125 q 1.96875,-2.15625 5.4375,-3.1875 3.5625,-1.03125 7.21875,-1.03125 l 0.9375,0.09375 q 1.21875,0 2.8125,-0.46875 -0.28125,-1.78125 -3.28125,-3.09375 -3.09375,-1.3125 -5.25,-1.3125 -0.46875,0 -0.75,0.09375 -1.40625,0 -2.15625,-1.40625 -0.75,-1.5 -0.75,-3.9375 h -1.59375 l -1.40625,-1.78125 q 0,-1.59375 1.3125,-3.46875 1.5,-1.875 1.875,-6.75 0.5625,-4.96875 5.625,-9.375 5.15625,-4.3125 12.375,-4.3125 13.96875,0 21.75,14.90625 7.78125,14.90625 8.4375,33 l 11.8125,16.2187502 0.2812496,0.9375 -4.4999996,26.9999998 q 0.09375,0.84375 0.28125,1.6875 0.1875,0.75 0.28125,1.59375 0.09375,0.75 0.09375,1.5 0,2.4375 -0.75,4.78125 -0.75,2.25 -2.625,2.71875 l -1.78125,-1.6875 q 0,2.53125 -1.03125,3.46875 -1.03125,0.84375 -2.90625,0.84375 -2.0625,0 -2.8125,-1.03125 -0.75,-1.125 -0.75,-3.75 0.28125,-3.5625 1.59375,-6.75 1.3125,-3.28125 4.3125,-5.4375 V -5.1548448 l -4.59375,-5.7187502 q -1.59375,1.3125002 -3.5625,1.3125002 -0.46875,0 -0.84375,-0.09375 -0.375,0 -0.65625,-0.09375 -1.59375,6.46875 -2.8125,12.75 -1.125,6.28125 -1.125,12.5624998 0.1875,3.28125 0.5625,6 0.46875,2.625 0.46875,5.71875 0,4.21875 -0.84375,8.53125 l 10.875,5.25 q 1.3125,0.1875 2.71875,0.75 1.5,0.46875 1.5,2.0625 0,0.84375 -1.125,1.40625 -1.125,0.46875 -1.875,0.46875 -1.59375,0 -3,-0.46875 -1.40625,-0.46875 -2.90625,-0.46875 -2.25,0 -4.875,0 -2.625,-0.09375 -4.875,-0.1875 -2.625,-0.09375 -5.34375,-0.09375 3.84375,6.09375 5.625,12.84375 l -0.1875,1.40625 q -4.40625,4.40625 -9.1875,7.6875 -0.84375,1.5 -2.25,2.625 -1.3125,1.125 -2.625,2.0625 l -1.875,-0.09375 q -0.65625,-0.84375 -1.5,-1.5 l 0.46875,-2.53125 -0.46875,-0.46875 0.46875,-2.53125 2.4375,-0.9375 q 0.84375,-0.375 2.15625,-0.65625 1.59375,-1.21875 3,-2.53125 1.40625,-1.40625 2.71875,-2.8125 -1.78125,-2.71875 -3.28125,-5.53125 -1.5,-2.90625 -2.90625,-5.8125 h -3.375 q 1.5,2.15625 1.5,4.59375 0,3.75 -2.15625,5.625 -2.15625,1.875 -5.625,1.875 -3.46875,0 -5.53125,-1.875 -2.0625,-1.875 -2.0625,-5.625 0,-2.53125 1.21875,-4.59375 h -1.59375 q -1.40625,2.90625 -2.90625,5.8125 -1.5,2.8125 -3.28125,5.53125 1.3125,1.40625 2.71875,2.8125 1.40625,1.3125 3,2.53125 0.65625,0.1875 1.21875,0.375 0.5625,0.09375 1.03125,0.28125 l 2.34375,0.9375 0.46875,2.53125 -0.46875,0.46875 0.46875,2.53125 q -0.84375,0.65625 -1.5,1.5 l -1.875,0.09375 q -1.3125,-0.9375 -2.71875,-2.0625 -1.3125,-1.125 -2.15625,-2.625 -4.78125,-3.28125 -9.1875,-7.6875 l -0.1875,-1.40625 q 0.9375,-3.46875 2.0625,-6.375 1.125,-2.90625 3,-5.90625 z m 80.53125,-54.2812498 1.78125,2.25 q -0.375,5.15624999 -0.5625,10.78125 -0.09375,5.5312498 -0.09375,13.4999998 l -0.65625,1.21875 q -3,2.25 -3.9375,5.34375 -0.9375,3.09375 -1.03125,6.65625 h 1.5 q 0,-1.6875 0.5625,-4.03125 0.65625,-2.34375 2.53125,-3.65625 0.65625,0.46875 0.75,1.96875 0.1875,1.40625 0.1875,2.34375 l 0.5625,0.375 q 0.9375,-2.15625 0.9375,-3.65625 0,-0.46875 -0.09375,-1.125 -0.09375,-0.75 -0.28125,-1.5 -0.1875,-0.84375 -0.375,-1.78125 l 4.21875,-27.4687498 q -2.53125,-3.5625002 -4.875,-6.6562502 -1.96875,-2.71875 -3.9375,-5.34375 -1.96875,-2.71875 -3,-4.125 -2.71875,-3.65625 -6.28125,-6.1875 -3.46875,-2.53125 -7.6875,-3.46875 l -0.5625,9.65625 q -0.1875,3.75 -0.5625,9.1875 l -1.03125,2.15625 q -1.3125,0.5625 -1.96875,0.75 -0.5625,0.1875 -1.03125,0.1875 -0.9375,0 -1.875,-0.375 -0.84375,-0.375 -1.40625,-1.125 l -0.46875,-1.40625 v -30.375 l 1.125,-2.90625 q 0.5625,-1.5 0.5625,-3.1875 0,-1.40625 -0.75,-2.90625 -0.65625,-1.5 -2.15625,-2.34375 -0.46875,0.28125 -0.84375,0.84375 -0.28125,0.5625 -0.5625,1.03125 -0.375,0.65625 -0.5625,1.3125 l -1.5,1.03125 h -1.59375 l -1.125,-0.75 q -2.4375,-3.75 -4.21875,-4.5 -1.6875,-0.84375 -4.875,-0.84375 h -3.28125 q -0.1875,2.15625 -0.84375,3.9375 -0.65625,1.6875 -1.59375,3.65625 h 0.9375 l 1.59375,1.5 v 2.34375 q 0,0.46875 0,0.84375 0.09375,0.375 0.28125,0.5625 l 0.84375,-0.09375 q 3.46875,0 7.21875,2.34375 3.84375,2.4375 3.84375,5.0625 0,2.0625 -1.5,2.8125 -1.5,0.75 -4.125,0.75 l -1.125,-0.09375 q -7.3125,0 -10.6875,3.375 -1.6875,1.59375 -2.53125,2.4375 -0.84375,0.84375 -0.9375,0.9375 l -5.625,5.625 q -1.40625,1.40625 -2.8125,2.8125 -1.40625,1.40625 -2.71875,2.90625 l -0.9375,2.53125 q -0.375,0.75 -0.65625,1.59375 -0.28125,0.75 -0.65625,1.8750002 l -3.375,8.53124999 q -0.5625,1.96875001 -1.125,3.84375001 -0.5625,1.875 -1.03125,3.75 -0.84375,3.6562498 -2.34375,4.4999998 -1.59375,0.84375 -3.093746,4.59375 -1.59375,3.9375 -1.59375,6.5625 0,0.75 0.0937,0.9375 0.65625,-2.4375 2.624996,-5.8125 2.15625,-3.5625 4.03125,-4.40625 0.1875,0.65625 0.28125,1.3125 0.09375,0.5625 0.1875,1.21875 v 3.5625 l 0.65625,-0.65625 q 0,-0.65625 0.09375,-1.40625 0.09375,-0.75 0.09375,-1.59375 0,-2.71875 -0.5625,-3.75 0.09375,-1.03125 0.65625,-3.1874998 0.65625,-2.15625 2.53125,-6.5625 l 5.0625,-12 q 1.125,-3.3750002 3.84375,-5.4375002 2.8125,-1.96875 8.71875,-5.0625 5.90625,-3.09375 8.90625,-6.65625 l 2.25,0.1875 q 2.15625,2.71875 2.15625,5.4375 0,2.34375 -2.15625,4.5 -2.15625,2.15625 -2.15625,3.375 0.375,2.4375 2.8125,3.9375002 2.4375,1.40625 3.5625,5.8125 1.21875,4.21874999 1.21875,8.625 l -1.125,16.7812498 -1.125,1.5 -12.84375,3.84375 q -9.84375,3 -13.59375,5.90625 -3.84375,3 -4.21875,6.5625 0,2.15625 1.78125,3.375 h 42.9375 l 1.125,-1.125 q 2.25,-1.03125 4.59375,-2.8125 2.34375,-1.6875 2.53125,-2.8125 0.28125,-1.125 0.65625,-3.65625 0.46875,-2.53125 0.46875,-5.25 0,-2.4375 -0.5625,-5.71875 -0.5625,-3.28125 -0.5625,-6.84375 0,-6.1874998 2.90625,-20.3437498 2.90625,-14.3437502 3.09375,-15.1875002 l 2.53125,-0.75 q 1.875,3 3,4.875 1.21875,1.78125 1.78125,2.53125 z m -47.625,-52.1250002 q 5.8125,0 7.6875,0.65625 2.0625,0.65625 5.71875,5.0625 1.875,-3.84375 4.78125,-3.84375 2.0625,0 3.75,2.625 1.6875,2.71875 1.6875,5.4375 0,1.78125 -0.46875,3.5625 -0.46875,1.6875 -1.21875,3.375 v 29.34375 q 0.375,0.28125 0.84375,0.28125 0.65625,-0.28125 0.75,-0.375 l 1.40625,-20.71875 1.875,-1.125 q 1.3125,0.375 2.625,0.84375 1.125,0.46875 2.34375,1.03125 1.3125,0.46875 2.34375,1.03125 4.21875,2.4375 7.3125,5.0625 l -0.09375,-1.875 q -0.84375,-13.125 -7.875,-26.34375 -7.03125,-13.21875 -19.125,-13.21875 -2.34375,0 -4.6875,0.65625 -2.25,0.65625 -4.21875,1.875 -1.875,1.21875 -3.375,2.90625 -1.40625,1.6875 -2.0625,3.75 z m 6.75,114.9375 q 2.4375,0 3.5625,-1.03125 1.125,-1.03125 1.125,-3.46875 0,-4.59375 -4.6875,-4.59375 -4.6875,0 -4.6875,4.59375 0,2.4375 1.125,3.46875 1.125,1.03125 3.5625,1.03125 z m 24.84375,-16.21875 q -0.5625,0.9375 -1.59375,1.78125 -0.9375,0.84375 -1.96875,1.5 0.84375,0.28125 1.96875,0.375 1.125,0.09375 2.25,0.09375 h 3.375 q 1.59375,0 3.46875,0.1875 1.96875,0.09375 4.21875,0.84375 l -6.375,-2.53125 q -4.125,-1.5 -5.34375,-2.25 z m -16.78125,29.71875 q 1.21875,-0.46875 2.625,-1.875 1.40625,-1.5 3.9375,-3.84375 l 5.15625,-4.78125 q -0.75,-3.09375 -2.25,-6.1875 -1.5,-3.1875 -3.1875,-5.90625 h -1.5 l 6,11.71875 -7.3125,6.84375 -3.84375,0.46875 0.75,0.65625 1.5,-0.1875 -2.4375,2.71875 z m -49.781246,-25.03125 q 0.0937,0.09375 0.46875,0.09375 h 1.687496 q 0.84375,0 2.0625,0 1.3125,-0.09375 2.53125,-0.1875 1.40625,-0.09375 2.8125,-0.28125 l -0.84375,-2.53125 z m 72.843746,-59.8125 -0.65625,3.84375 q 0.09375,0.09375 0.28125,0.09375 h 0.5625 q 0.65625,0 1.125,-0.28125 l 0.5625,-0.375 z m -32.53125,-37.5 q -2.4375,1.125 -3.375,1.125 -0.75,0 -0.75,-0.65625 0,-1.59375 1.40625,-1.59375 1.03125,0 2.71875,1.125 z m -4.40625,121.96875 -2.4375,-2.71875 1.5,0.1875 0.75,-0.65625 -3.84375,-0.46875 -7.3125,-6.84375 4.6875,-8.15625 1.3125,-3.5625 h -1.5 q -1.6875,2.71875 -3.1875,5.90625 -1.5,3.09375 -2.25,6.1875 l 5.15625,4.78125 q 2.53125,2.34375 3.9375,3.84375 1.40625,1.40625 2.625,1.875 z"
         id="path5429"
         inkscape:connector-curvature="0" />
    </g>
  </g>
</svg>
