<?xml version="1.0" encoding="UTF-8" standalone="no"?>
<!-- Created with Inkscape (http://www.inkscape.org/) -->

<svg
   xmlns:dc="http://purl.org/dc/elements/1.1/"
   xmlns:cc="http://creativecommons.org/ns#"
   xmlns:rdf="http://www.w3.org/1999/02/22-rdf-syntax-ns#"
   xmlns:svg="http://www.w3.org/2000/svg"
   xmlns="http://www.w3.org/2000/svg"
   xmlns:sodipodi="http://sodipodi.sourceforge.net/DTD/sodipodi-0.dtd"
   xmlns:inkscape="http://www.inkscape.org/namespaces/inkscape"
   width="20.116602mm"
   height="37.628708mm"
   viewBox="0 0 20.116602 37.628708"
   version="1.1"
   id="svg21399"
   inkscape:version="0.92.4 (5da689c313, 2019-01-14)"
   sodipodi:docname="B4.svg">
  <defs
     id="defs21393" />
  <sodipodi:namedview
     id="base"
     pagecolor="#ffffff"
     bordercolor="#666666"
     borderopacity="1.0"
     inkscape:pageopacity="0.0"
     inkscape:pageshadow="2"
     inkscape:zoom="0.35"
     inkscape:cx="-368.97266"
     inkscape:cy="-321.97537"
     inkscape:document-units="mm"
     inkscape:current-layer="layer1"
     showgrid="false"
     fit-margin-top="0"
     fit-margin-left="0"
     fit-margin-right="0"
     fit-margin-bottom="0"
     inkscape:window-width="1920"
     inkscape:window-height="1017"
     inkscape:window-x="-8"
     inkscape:window-y="-8"
     inkscape:window-maximized="1" />
  <metadata
     id="metadata21396">
    <rdf:RDF>
      <cc:Work
         rdf:about="">
        <dc:format>image/svg+xml</dc:format>
        <dc:type
           rdf:resource="http://purl.org/dc/dcmitype/StillImage" />
        <dc:title></dc:title>
      </cc:Work>
    </rdf:RDF>
  </metadata>
  <g
     inkscape:label="Layer 1"
     inkscape:groupmode="layer"
     id="layer1"
     transform="translate(-10.311515,-26.015308)">
    <g
       aria-label="ð““"
       transform="scale(0.26458333)"
       style="font-style:normal;font-variant:normal;font-weight:normal;font-stretch:normal;font-size:192px;line-height:1.25;font-family:sans-serif;-inkscape-font-specification:'sans-serif, Normal';font-variant-ligatures:normal;font-variant-caps:normal;font-variant-numeric:normal;font-feature-settings:normal;text-align:start;letter-spacing:0px;word-spacing:0px;writing-mode:lr-tb;text-anchor:start;fill:#000000;fill-opacity:1;stroke:none"
       id="flowRoot21944">
      <path
         d="m 111.44141,149.79437 h -2.15625 q 1.3125,5.25 2.53125,9.9375 1.3125,4.59375 1.3125,8.8125 0,3.375 -0.46875,7.125 -0.375,3.65625 -1.03125,5.8125 0.46875,1.21875 0.46875,2.15625 0,2.53125 -2.4375,5.625 -2.4375,3 -3,3.84375 -0.9375,0.375 -1.3125,0.5625 -1.59375,0 -2.25,-0.5625 -0.5625,-0.5625 -0.5625,-1.5 0,-0.9375 0.46875,-2.0625 0.46875,-1.125 1.21875,-2.15625 -0.375,0.1875 -0.65625,0.28125 -0.28125,0.0937 -0.65625,0.0937 -0.46875,0 -1.03125,-0.28125 l -0.75,-2.15625 q 0.75,-1.40625 2.0625,-2.4375 l 2.4375,-2.0625 q 0.5625,-3.46875 0.5625,-7.03125 0,-9 -3.84375,-20.53125 -3.750004,-11.625 -6.468754,-12.75 -0.5625,0 -0.84375,1.3125 -0.28125,1.3125 -0.28125,3.46875 0,1.6875 0.09375,4.875 0.1875,3.1875 0.46875,7.03125 l 0.5625,7.875 q 0.28125,4.03125 0.5625,7.40625 l 0.5625,6.28125 q 0.1875,2.625 0.1875,5.0625 0,2.53125 -0.375,5.25 -0.375,2.71875 -1.40625,6.28125 1.5,0 2.53125,1.125 1.125,1.125 1.40625,2.4375 1.687504,0.9375 3.562504,1.5 l 3.75,1.03125 q 3.46875,1.03125 5.90625,2.34375 2.4375,1.21875 2.4375,2.53125 0,1.03125 -0.9375,1.78125 -0.84375,0.75 -2.0625,0.75 -0.46875,0 -1.5,-0.28125 -1.03125,-0.28125 -2.25,-0.5625 l -2.625,-0.5625 q -1.3125,-0.28125 -2.34375,-0.28125 h -0.84375 l -0.9375,0.1875 q -1.21875,0.75 -2.531254,1.125 -1.3125,0.28125 -2.625,0.28125 h -3 v 22.6875 l 4.59375,9.09375 h -11.71875 l 4.125,-9.09375 v -22.6875 h -13.40625 v 22.6875 l 4.3125,9.09375 h -11.625 l 4.3125,-9.09375 v -22.6875 h -13.125 v 22.6875 l 4.40625,9.09375 h -11.71875 l 4.40625,-9.09375 v -22.6875 h -3.9375 q -4.40625,0 -6.46875,-1.96875 -2.0625,-1.96875 -2.34375,-4.5 -0.28125,-2.625 3.09375,-7.40625 3.375,-4.875 16.875,-11.4375 3.09375,-4.96875 5.90625,-11.15625 2.8125,-6.28125 2.8125,-10.21875 0,-1.78125 -0.75,-3.28125 -0.65625,-1.5 -1.59375,-2.90625 l -1.875,-2.71875 q -1.21875,-1.59375 -1.6875,-3.28125 -0.375,-1.78125 -0.375,-3.75 -2.15625,4.125 -4.875,12.1875 -2.71875,7.96875 -7.03125,13.875 l -6.09375,8.34375 q 0,1.40625 -0.9375,3.65625 -0.84375,2.25 -1.96875,3.5625 -0.375,0.1875 -0.75,0.28125 -0.375,0.0937 -0.84375,0.28125 l -0.9375,-0.375 q -0.65625,-0.65625 -0.75,-1.21875 -0.46875,0.84375 -0.84375,1.40625 -0.375,0.5625 -1.03125,0.75 l -0.84375,0.28125 -0.9375,-0.375 q -0.5625,-0.65625 -0.65625,-1.40625 -0.09375,-0.75 -0.09375,-1.59375 0.1875,-3.46875 2.34375,-6 2.25,-2.625 4.96875,-4.5 1.125,-4.5 3.5625,-8.53125 2.53125,-4.125 5.25,-7.875 2.25,-12.75 4.03125,-17.4375 1.875,-4.78125 3.5625,-6.9375 1.78125,-2.25 8.15625,-3.375 l 3.28125,-0.65625 q 1.59375,-0.28125 3.1875,-0.9375 0.65625,-0.65625 0.65625,-1.3125 0,-0.75 -0.5625,-1.59375 -0.46875,-0.9375 -1.5,-2.53125 h -1.59375 q -3.9375,0 -5.15625,-1.03125 -1.21875,-1.125 -1.96875,-3.46875 h -1.125 l -1.40625,-1.78125 q 0,-2.15625 1.3125,-5.15625 1.40625,-3.09375 1.59375,-5.625 0.1875,-2.625 1.96875,-4.78125 1.875,-2.15625 4.875,-2.999996 3.09375,-0.9375 6.09375,-0.9375 10.78125,0 18.5625,10.499996 7.875004,10.5 13.875004,39 z M 83.316406,113.13812 q -1.59375,-1.59375 -3.75,-2.53125 -2.0625,-1.03125 -5.4375,-1.875 l -3.5625,-0.84375 q -0.28125,1.875 -1.5,4.5 -1.125,2.53125 -1.3125,4.3125 1.6875,0.375 2.15625,1.875 0.46875,1.40625 0.75,2.0625 l 0.09375,0.0937 q 0.84375,0.28125 1.6875,0.28125 0.9375,0 1.875,0.0937 h 2.34375 q 0.375,0.1875 1.3125,0.5625 l 0.9375,1.5 0.9375,1.6875 q 0.65625,1.21875 0.84375,2.15625 0.28125,0.9375 0.28125,1.6875 0,2.90625 -4.6875,4.125 -4.59375,1.125 -7.96875,1.78125 -3.375,0.5625 -5.53125,6.09375 -2.0625,5.4375 -3.375,10.96875 -1.3125,5.53125 -1.6875,7.40625 -0.375,1.875 -2.625,4.6875 -2.25,2.71875 -4.5,8.0625 -2.15625,5.25 -3.75,6.1875 -2.34375,1.40625 -3.65625,3.375 -1.21875,1.96875 -1.96875,4.3125 l 0.375,1.03125 0.375,-0.28125 q 0.46875,-1.21875 1.5,-2.8125 1.03125,-1.59375 2.34375,-1.96875 -0.1875,0.5625 -0.46875,1.78125 -0.28125,1.125 -0.28125,2.0625 l 0.9375,-0.1875 0.28125,-0.46875 q 0.46875,-1.03125 0.5625,-1.96875 0.1875,-1.03125 0.1875,-1.78125 l -0.09375,-1.125 q 0,-0.75 4.875,-7.03125 4.96875,-6.28125 9.28125,-18.5625 4.40625,-12.375 7.875,-15 l 1.21875,0.84375 q 0.5625,0.375 1.21875,0.75 -0.9375,3.1875 -0.9375,5.34375 0,3.1875 3,7.21875 3.09375,4.03125 3.09375,9.5625 0,5.0625 -4.03125,13.5 -3.9375,8.4375 -5.71875,9.28125 -1.6875,0.84375 -8.90625,4.875 -7.21875,4.03125 -9.75,10.5 0.9375,3.09375 1.6875,3.84375 0.84375,0.65625 4.125,0.65625 h 42.375 q 1.125,0 1.875,-0.1875 0.75,-0.1875 1.5,-0.5625 l 1.125004,-0.46875 q 0.5625,-0.1875 1.59375,-0.1875 2.34375,0 4.6875,1.03125 2.34375,0.9375 4.59375,0.9375 l 0.28125,-0.1875 q -0.65625,-0.46875 -3.09375,-1.3125 -2.34375,-0.84375 -3.1875,-1.03125 l -3,-0.75 q -1.5,-0.28125 -3.000004,-0.75 -1.40625,-0.46875 -2.71875,-1.3125 l -0.5625,-1.5 q -0.46875,-0.75 -1.40625,-1.03125 -0.9375,-0.28125 -1.78125,-0.28125 -0.375,-0.5625 -0.65625,-1.125 l -0.5625,-1.125 q 1.3125,-3.46875 1.6875,-6.28125 0.46875,-2.8125 0.46875,-5.625 0,-2.4375 -0.1875,-5.15625 l -0.5625,-6.09375 q -0.46875,-5.71875 -0.75,-11.4375 l -0.75,-11.53125 h -3.9375 l -1.40625,-1.21875 q -1.3125,-15.375 -2.25,-30.1875 0.375,-0.9375 0.46875,-1.40625 1.125,-0.84375 1.6875,-1.59375 0.65625,-0.84375 0.75,-2.15625 l -0.375,-1.03125 q -0.28125,-0.46875 -0.75,-0.9375 l -0.375,1.21875 z m 24.750004,33.65625 h 1.59375 l -3.9375,-15.28125 q -3.375,-13.6875 -9.750004,-21.84375 -6.28125,-8.15625 -16.21875,-8.15625 -2.625,0 -4.875,0.84375 -2.25,0.75 -3.5625,2.71875 3.375,0.75 6.5625,1.59375 3.1875,0.84375 6,3 1.03125,-1.59375 2.53125,-1.59375 1.3125,0 2.4375,1.5 1.21875,1.40625 1.40625,4.03125 0,1.59375 -0.84375,2.90625 -0.75,1.21875 -2.0625,2.25 0.5625,8.0625 1.03125,14.71875 0.46875,6.65625 1.125,13.3125 h 2.25 l 0.28125,-5.71875 q 0.1875,-4.125 1.6875,-7.5 1.5,-3.375 4.78125,-3.375 4.031254,0 6.468754,7.5 2.4375,7.5 3.09375,9.09375 z m -12.656254,-9.28125 q 2.0625,0 3.84375,2.0625 1.781254,1.96875 2.812504,4.5 l 1.125,2.71875 q 2.25,5.71875 4.03125,12.84375 1.78125,7.03125 1.78125,14.53125 0,2.15625 -0.28125,4.03125 -0.1875,1.78125 -0.65625,3.375 -0.75,0.28125 -1.96875,1.40625 -1.21875,1.03125 -1.96875,1.96875 l -0.375,0.46875 0.5625,0.1875 1.40625,-1.21875 q 0.5625,-0.46875 0.84375,-0.46875 0.46875,0 0.5625,0.28125 l 0.1875,0.65625 0.0937,0.84375 v 0.5625 q -0.375,0.46875 -0.84375,1.21875 -0.375,0.65625 -0.75,1.40625 l -0.9375,1.78125 0.0937,0.1875 q 0,0.28125 0.1875,0.28125 0.28125,-0.46875 2.25,-3.28125 2.0625,-2.8125 2.0625,-4.125 0,-0.65625 -0.1875,-1.3125 -0.0937,-0.65625 -0.0937,-1.125 l 0.5625,-3.28125 0.1875,-1.40625 q 0.1875,-1.40625 0.28125,-3.5625 0.0937,-2.15625 0.0937,-6.375 -0.75,-7.40625 -4.96875,-20.4375 -4.125,-13.03125 -7.312504,-13.03125 -1.21875,0 -1.875,1.59375 -0.5625,1.5 -0.75,2.71875 z m -20.15625,-25.5 q -2.34375,1.78125 -3.28125,1.78125 -0.75,0 -0.75,-0.9375 v -0.46875 q 0,-0.28125 0.28125,-1.125 0.375,-0.9375 1.125,-0.9375 0.9375,0 2.625,1.6875 z"
         id="path21952"
         inkscape:connector-curvature="0" />
    </g>
  </g>
</svg>
