<?xml version="1.0" encoding="UTF-8" standalone="no"?>
<!-- Created with Inkscape (http://www.inkscape.org/) -->

<svg
   xmlns:dc="http://purl.org/dc/elements/1.1/"
   xmlns:cc="http://creativecommons.org/ns#"
   xmlns:rdf="http://www.w3.org/1999/02/22-rdf-syntax-ns#"
   xmlns:svg="http://www.w3.org/2000/svg"
   xmlns="http://www.w3.org/2000/svg"
   xmlns:sodipodi="http://sodipodi.sourceforge.net/DTD/sodipodi-0.dtd"
   xmlns:inkscape="http://www.inkscape.org/namespaces/inkscape"
   width="26.937891mm"
   height="38.323242mm"
   viewBox="0 0 26.937891 38.323241"
   version="1.1"
   id="svg4525"
   inkscape:version="0.92.4 (5da689c313, 2019-01-14)"
   sodipodi:docname="B5.svg">
  <defs
     id="defs4519" />
  <sodipodi:namedview
     id="base"
     pagecolor="#ffffff"
     bordercolor="#666666"
     borderopacity="1.0"
     inkscape:pageopacity="0.0"
     inkscape:pageshadow="2"
     inkscape:zoom="0.35"
     inkscape:cx="1145.8386"
     inkscape:cy="-316.41942"
     inkscape:document-units="mm"
     inkscape:current-layer="layer1"
     showgrid="false"
     fit-margin-top="0"
     fit-margin-left="0"
     fit-margin-right="0"
     fit-margin-bottom="0"
     inkscape:window-width="1920"
     inkscape:window-height="1017"
     inkscape:window-x="-8"
     inkscape:window-y="-8"
     inkscape:window-maximized="1"
     showguides="false" />
  <metadata
     id="metadata4522">
    <rdf:RDF>
      <cc:Work
         rdf:about="">
        <dc:format>image/svg+xml</dc:format>
        <dc:type
           rdf:resource="http://purl.org/dc/dcmitype/StillImage" />
        <dc:title></dc:title>
      </cc:Work>
    </rdf:RDF>
  </metadata>
  <g
     inkscape:label="Layer 1"
     inkscape:groupmode="layer"
     id="layer1"
     transform="translate(390.48232,-26.790778)">
    <g
       aria-label="ð“€‰"
       style="font-style:normal;font-variant:normal;font-weight:normal;font-stretch:normal;font-size:50.79999924px;line-height:1.25;font-family:sans-serif;-inkscape-font-specification:sans-serif;font-variant-ligatures:normal;font-variant-caps:normal;font-variant-numeric:normal;font-feature-settings:normal;text-align:start;letter-spacing:0px;word-spacing:0px;writing-mode:lr-tb;text-anchor:start;fill:#000000;fill-opacity:1;stroke:none;stroke-width:0.26458332"
       id="text5105" />
    <g
       aria-label="ð“€†"
       transform="matrix(0.26458333,0,0,0.26458333,-199.96101,81.431167)"
       style="font-style:normal;font-variant:normal;font-weight:normal;font-stretch:normal;font-size:192px;line-height:1.25;font-family:sans-serif;-inkscape-font-specification:sans-serif;font-variant-ligatures:normal;font-variant-caps:normal;font-variant-numeric:normal;font-feature-settings:normal;text-align:start;letter-spacing:0px;word-spacing:0px;writing-mode:lr-tb;text-anchor:start;fill:#000000;fill-opacity:1;stroke:none"
       id="flowRoot5135" />
    <g
       aria-label="ð“”"
       transform="matrix(0.26458333,0,0,0.26458333,-399.2823,52.742827)"
       style="font-style:normal;font-variant:normal;font-weight:normal;font-stretch:normal;font-size:192px;line-height:1.25;font-family:sans-serif;-inkscape-font-specification:sans-serif;font-variant-ligatures:normal;font-variant-caps:normal;font-variant-numeric:normal;font-feature-settings:normal;text-align:start;letter-spacing:0px;word-spacing:0px;writing-mode:lr-tb;text-anchor:start;fill:#000000;fill-opacity:1;stroke:none"
       id="flowRoot5432">
      <path
         d="m 34.853516,-12.305235 q 0.28125,-16.3125 3.84375,-26.34375 3.65625,-10.03125 8.25,-14.34375 4.59375,-4.40625 14.25,-5.15625 9.65625,-0.75 11.0625,-1.875 1.40625,-1.125 1.40625,-2.53125 0,-0.9375 -0.5625,-2.34375 -5.0625,-1.875 -6.5625,-3.375 -1.40625,-1.59375 -1.40625,-7.5 l -2.15625,-1.03125 -0.75,-2.15625 q 0.46875,-0.84375 1.40625,-2.25 1.03125,-1.5 2.15625,-3.09375 l 2.15625,-2.90625 q 1.96875,-2.625 3.28125,-4.875 1.40625,-2.34375 4.875,-4.125 3.5625,-1.875 9,-1.875 12.65625,0 19.125004,8.4375 6.46875,8.4375 6.46875,26.8125 0,1.3125 0,2.625 0,1.21875 -0.1875,2.25 8.15625,3.75 12.65625,11.53125 4.5,7.78125 8.15625,22.5 3.75,14.6249996 3.75,15.7499996 0,1.21875 -0.75,1.96875 -0.9375,0.375 -1.3125,0.5625 -6.09375,-0.28125 -12,-0.65625 l -12,-0.75 q 0.65625,5.8125 1.59375,11.4375 1.03125,5.6250004 1.03125,11.2500004 0,3.65625 -0.65625,7.3125 -0.65625,3.5625 -2.34375,7.125 2.53125,0 4.21875,1.6875 1.6875,1.6875 3.09375,3.65625 0.46875,0.1875 7.6875,2.25 7.21875,2.0625 7.96875,6.5625 l -2.0625,2.53125 H 39.259766 q -2.4375,-1.125 -4.21875,-4.3125 -1.78125,-3.1875 -1.78125,-6.9375 0,-5.0625 3.65625,-9.28125 3.65625,-4.3125 9.75,-6.5625 6.1875,-2.25 9.5625,-3.28125 -1.59375,-0.84375 -2.4375,-2.4375 -0.75,-1.6875 -0.75,-3.5625 V 9.5385146 l -1.3125,-3.5625 q -1.40625,-3.65625 -2.53125,-7.59375 -1.125,-4.03125 -1.125,-6.5625 l 0.09375,-1.125 h -13.3125 z m 13.6875,0.09375 q 0.75,-7.96875 2.15625,-12.65625 1.40625,-4.6875 3.84375,-7.21875 -2.53125,-0.5625 -4.125,-3.09375 -1.59375,-2.625 -1.59375,-6.375 0,-3.75 2.625,-6.28125 2.71875,-2.53125 6.75,-2.53125 2.625,0 4.125,1.3125 l 3.375,3 q 0.46875,0.46875 1.03125,0.84375 0.65625,0.28125 1.125,0.84375 l -0.84375,2.4375 q -0.46875,0 -1.03125,0.5625 0.75,1.03125 1.03125,1.59375 0.28125,0.5625 0.28125,0.9375 0,0.5625 -0.46875,1.125 -0.375,0.46875 -0.9375,0.84375 l -1.21875,0.84375 q -0.65625,0.46875 -0.9375,0.9375 0.1875,0 0.46875,0.09375 0.375,0.09375 1.03125,0.09375 l 3.5625,-0.1875 q 1.78125,0 3,0.9375 l 2.4375,2.0625 q 2.0625,1.96875 4.21875,4.5 2.25,2.53125 4.125,4.59375 -0.28125,-2.15625 -0.75,-4.875 -0.46875,-2.71875 -0.46875,-4.875 -0.375,-1.03125 -1.03125,-1.6875 -0.65625,-0.75 -0.65625,-1.875 0,-1.3125 0.84375,-2.0625 -0.28125,-0.28125 -0.84375,-0.65625 l -0.46875,-0.84375 q -0.28125,-0.375 -0.46875,-0.84375 0.375,-1.59375 1.03125,-2.25 0.65625,-0.65625 1.40625,-0.65625 0.9375,0 2.0625,0.9375 l 0.46875,-10.125 q 0.28125,-6.84375 1.21875,-15.9375 0.9375,-9.09375 2.0625,-9.5625 1.125,-0.46875 1.125,-1.96875 0,-0.65625 -0.46875,-1.5 -0.375,-0.9375 -0.84375,-0.9375 -0.375,0 -0.375,0.75 0,0.65625 -0.28125,1.21875 l -1.5,1.03125 h -3 l -1.40625,-1.78125 q 0,-1.875 -1.40625,-3 -1.40625,-1.21875 -3.9375,-1.875 l -3.09375,-0.75 q -0.75,1.40625 -1.5,2.4375 -0.65625,1.03125 -1.40625,1.875 l -1.5,1.875 q -0.84375,0.9375 -1.6875,2.15625 l 1.78125,0.84375 0.65625,1.21875 0.1875,4.6875 q 0,1.03125 0.28125,1.6875 2.25,1.40625 5.15625,2.53125 2.90625,1.03125 2.90625,5.15625 0,6.75 -11.90625,7.125 -11.90625,0.28125 -16.59375,5.34375 -4.59375,5.0625 -7.5,16.03125 -2.8125,10.875 -2.8125,21.9375 z m 19.96875,27.65625 q 0.84375,-0.375 -15.75,4.875 -16.5,5.15625 -16.5,16.21875 0,1.96875 0.75,3.9375 0.84375,1.96875 2.71875,3.28125 h 42.9375 q -0.46875,-0.46875 -0.65625,-1.3125 -0.09375,-0.84375 -0.09375,-1.6875 0,-1.03125 0.1875,-2.15625 l 0.28125,-3.5625 q -2.0625,-0.28125 -4.03125,-0.375 -1.96875,-0.09375 -3.9375,-0.09375 -6.1875,0 -12.1875,1.03125 -6,0.9375 -11.90625,2.53125 l -0.46875,-1.5 q -0.28125,-0.65625 -0.46875,-1.40625 6.1875,-1.59375 12.375,-2.625 6.1875,-1.03125 12.5625,-1.03125 1.96875,0 3.9375,0.09375 2.0625,0.09375 4.125,0.375 l -0.1875,-4.59375 q -0.28125,-1.78125 -0.28125,-3.9375 0,-2.34375 0.375,-4.59375 0.375,-2.34375 1.125,-4.40625 -3.84375,0.46875 -7.5,0.75 -3.65625,0.1875 -7.40625,0.1875 z m 4.78125,-105.09375 q 6.1875,1.59375 7.78125,3.1875 1.59375,1.5 2.0625,3.75 h 0.375 q 0.1875,-1.125 1.03125,-2.15625 0.9375,-1.03125 2.0625,-1.03125 1.6875,0 3,2.0625 1.40625,1.96875 1.40625,3.9375 0,2.34375 -1.96875,4.03125 -1.78125,9.9375 -2.34375,19.96875 -0.46875,10.03125 -0.46875,20.0625 h 9.28125 q 0.28125,-2.25 0.375,-4.5 0.09375,-2.34375 0.09375,-4.6875 v -1.96875 l -0.375,-5.4375 q 0.1875,-2.90625 2.53125,-4.40625 2.437504,-1.59375 6.000004,-1.78125 h 3.375 q 0.28125,-2.25 0.28125,-4.96875 0,-15.46875 -5.53125,-23.34375 -5.437504,-7.96875 -16.125004,-7.96875 -4.3125,0 -7.5,1.03125 -3.1875,0.9375 -5.34375,4.21875 z m 20.53125,98.1562496 q 0.75,2.1562504 1.03125,7.4062504 0.375,5.25 0.46875,8.8125 v 8.4375 l 9.468754,-2.25 q 2.15625,-4.3125 3,-8.0625 0.84375,-3.84375 0.84375,-7.59375 0,-5.25 -1.03125,-10.5937504 -0.9375,-5.34375004 -1.59375,-11.90625 -2.71875,-0.28125 -5.71875,-0.9375 -2.906254,-0.65625 -5.812504,-0.65625 -2.625,0 -5.15625,0.5625 -2.4375,0.46875 -5.34375,0.46875 -3,0 -4.96875,-1.21875 -1.96875,-1.3124996 -1.96875,-4.0312496 0,-1.6875 0.75,-2.8125 0.84375,-1.21875 1.03125,-1.21875 l 0.65625,-0.1875 q -1.6875,-1.40625 -3.28125,-2.90625 -1.5,-1.5 -3,-3.09375 0.375,1.59375 0.46875,3.375 0.1875,1.6875 0.1875,3.46875 l -0.375,5.625 v 5.4374996 q 0,1.59375 0.09375,3.09375 0.09375,1.40624996 0.375,2.99999996 2.34375,0.93750004 4.78125,1.50000004 l 4.875,1.125 q 2.34375,0.5625 4.6875,1.3125 2.34375,0.75 4.59375,2.0625 z M 121.75977,-43.055235 q -2.15625,-4.21875 -5.25,-7.21875 -3,-3.09375 -8.0625,-5.34375 l -1.5,-0.1875 h -1.59375 q -3.46875,0 -5.15625,1.03125 -1.593754,0.9375 -1.593754,3 0,1.03125 0.1875,2.34375 0.1875,1.21875 0.1875,3.65625 0,2.8125 -0.1875,5.71875 -0.09375,2.90625 -0.46875,5.71875 -0.46875,0.375 -0.84375,0.75 l -0.75,0.75 h -10.3125 q 0,2.53125 0.5625,4.78125 0.65625,2.25 1.21875,4.6875 l 0.65625,3.84375 q 1.3125,0.5625 2.4375,2.15625 1.21875,1.59375 1.875,2.625 h 12.937504 q 2.34375,-13.3125 5.4375,-18.9375 3.1875,-5.625 4.5,-7.03125 1.40625,-1.40625 5.71875,-2.34375 z m -37.968754,8.25 q 0,-1.875 -0.5625,-3.84375 -0.46875,-1.96875 -1.5,-2.71875 l -0.65625,0.9375 q 1.03125,1.21875 1.59375,2.15625 0.5625,0.9375 0.5625,1.78125 0,0.375 -0.1875,0.9375 -0.1875,-0.1875 -0.65625,-0.75 -0.375,-0.5625 -0.375,-0.84375 l -0.375,0.9375 1.5,1.875 q 0,1.125 0.375,2.90625 l 1.6875,12.375 -1.3125,0.84375 q -1.59375,-1.875 -3.46875,-3.75 l -3.5625,-3.46875 q -0.65625,-0.65625 -3.375,-3.75 -2.625,-3.1875 -5.71875,-3.1875 l -3,0.1875 q -1.03125,0 -2.0625,-0.09375 -0.9375,-0.1875 -1.6875,-0.9375 0,-0.46875 -0.46875,-1.40625 0,-2.15625 1.40625,-2.90625 1.40625,-0.75 1.96875,-1.3125 -1.03125,-1.125 -1.03125,-2.4375 0,-1.21875 1.03125,-2.25 -1.03125,-1.5 -2.4375,-2.625 -1.40625,-1.21875 -3,-1.21875 -2.90625,0 -4.78125,1.5 -1.875,1.5 -1.875,4.5 0,2.8125 1.5,4.875 1.59375,2.0625 4.59375,2.25 l 0.46875,2.625 q -4.125,2.625 -6,12 -1.78125,9.375 -1.78125,10.6874996 0,3 1.125,7.21875 1.125,4.125 3.46875,11.15625 -0.1875,0.7500004 -0.1875,1.5000004 0,0.9375 0.46875,2.0625 0.5625,1.125 2.4375,2.15625 h 0.65625 q -0.75,-0.84375 -1.40625,-1.78125 -0.5625,-1.03125 -0.84375,-1.875 1.03125,0.375 1.59375,1.03125 0.65625,0.65625 1.125,1.40625 0.1875,-0.1875 0.1875,-0.375 0,-0.65625 -0.84375,-1.875 -0.75,-1.21875 -2.53125,-2.2500004 -2.34375,-6.46875 -3.28125,-10.59375 -0.9375,-4.125 -0.9375,-7.40625 0,-3.7499996 1.5,-9.0937496 1.5,-5.34375 2.0625,-7.96875 l 2.34375,0.28125 q 0,3.28125 1.03125,6.65625 l 1.96875,6.9375 0.75,7.4999996 q 0.5625,4.87499996 2.15625,9.46875 1.6875,4.59375 5.15625,7.2187504 4.3125,0 8.53125,-0.28125 4.21875,-0.375 8.4375,-1.125 l 1.96875,-1.4062504 q 0.9375,-0.65625 1.875,-1.40625 -4.125,-1.78125 -8.71875,-2.53125 -4.5,-0.84375 -8.625,-2.4375 l -0.9375,-1.125 -0.46875,-4.59375 q -0.375,-2.71875 -0.375,-5.53125 0,-1.40625 0.1875,-2.6249996 0.28125,-1.3125 0.28125,-2.53125 0,-4.5 -0.375,-8.25 -0.375,-3.84375 -2.25,-7.96875 l 2.15625,-1.03125 q 3,4.3125 7.125,8.15625 4.21875,3.75 8.34375,6.9375 l 0.65625,-1.125 z m 33.375004,-1.96875 q -3.28125,5.0625 -5.15625,10.59375 -1.875,5.53125 -2.90625,11.4375 4.125,0.28125 8.0625,0.84375 4.03125,0.46875 8.0625,0.65625 z m -21.843754,73.96875 q 1.6875,0.46875 4.59375,2.15625 3.000004,1.59375 3.000004,2.90625 l -0.75,0.5625 q -0.375,0.375 -0.84375,0.9375 h 27.1875 v -0.28125 l -0.1875,-0.46875 q -1.59375,-1.875 -5.625,-2.90625 -4.03125,-1.125 -6.1875,-1.5 -2.0625,-0.375 -3.375,-1.96875 l -1.40625,-1.59375 q -0.75,-0.75 -1.5,-1.3125 -0.75,-0.65625 -1.40625,-0.65625 -3.375,0.65625 -6.65625,1.5 l -6.843754,1.78125 z m 24.375004,-76.5 8.8125,27.09375 -1.5,1.6875 -19.6875,-1.78125 H 92.228516 q -0.28125,0 -1.3125,-1.40625 -1.03125,-1.5 -1.78125,-2.90625 0,2.25 -0.65625,2.8125 -0.65625,0.5625 -1.875,0.5625 -1.96875,0 -3.1875,-0.5625 -1.125,-0.5625 -2.4375,-1.5 l -0.46875,1.03125 q -0.46875,0.9375 -0.46875,1.21875 0,0.65625 0.28125,1.5 1.40625,1.03125 4.125,1.03125 3.28125,0 6.1875,-0.5625 3,-0.5625 9,0.1875 l 4.125004,0.5625 q 5.0625,0.7499996 12.09375,1.2187496 7.03125,0.375 16.21875,0.65625 -1.125,-6.6562496 -3.09375,-13.6874996 -1.96875,-7.125 -5.90625,-18 z m -61.968754,29.4374996 -3.5625,0.9375 q 0,0.375 -0.09375,0.75 v 1.40625 q 0,3.9375 1.21875,7.68749996 1.21875,3.65625004 2.15625,7.40625004 1.5,0.75 2.53125,2.4375004 1.03125,1.59375 1.03125,2.90625 0,0.9375 -0.5625,1.3125 1.125,-0.375 2.25,-0.65625 1.21875,-0.375 2.34375,-0.84375 -2.71875,-3.09375 -4.21875,-7.1250004 -1.5,-4.03125 -2.25,-10.03125 z m 31.125,22.2187504 -0.65625,0.5625 q -0.375,0.28125 -0.84375,0.5625 -1.3125,2.0625 -1.96875,4.5 -0.5625,2.34375 -0.5625,6.5625 0,2.8125 0.28125,6.5625 0,1.21875 -0.09375,2.71875 l -0.1875,2.90625 q 0,1.5 -0.28125,2.71875 l -0.28125,1.875 q 2.34375,0 3.9375,0.46875 1.59375,0.375 3.09375,1.125 v -0.28125 l -0.09375,-0.375 q -0.1875,-0.1875 -1.6875,-0.75 -1.5,-0.65625 -3.5625,-1.03125 0,-0.375 -0.1875,-0.46875 -0.1875,-0.1875 -0.375,-0.5625 1.125,-6.65625 1.78125,-13.59375 0.65625,-7.03125 1.6875,-13.5 z m 3,-1.03125 q -0.1875,1.03125 -0.375,2.34375 -0.09375,1.3125 -0.28125,2.625 l -0.46875,2.53125 -0.28125,2.15625 v 1.59375 q 0,4.21875 0.84375,8.53125 0.84375,4.3125 1.59375,9.84375 0.375,-0.28125 0.9375,-0.28125 1.03125,0 2.4375,0.28125 1.40625,0.1875 2.53125,0.5625 l 1.218754,1.03125 q 0,-0.375 0.0937,-0.375 -1.687504,-1.40625 -3.093754,-1.96875 -1.40625,-0.65625 -3,-0.75 l -0.46875,-0.84375 q -0.28125,-0.375 -0.46875,-0.84375 v -6.1875 q 0,-5.53125 -0.375,-11.15625 -0.375,-5.71875 -0.84375,-9.09375 z m -3.9375,27.65625 q 0.46875,0.28125 1.125,0.5625 0.75,0.28125 1.5,0.75 -0.1875,-1.03125 -0.1875,-1.875 0,-0.9375 -0.1875,-1.5 l -0.5625,-3 q -0.28125,-1.40625 -0.46875,-2.71875 l -0.5625,3.75 q -0.28125,1.875 -0.65625,4.03125 z m -33.28125,-51 q 0.5625,-0.1875 1.21875,-0.28125 l 1.40625,-0.09375 -0.65625,-2.53125 q -0.375,-1.125 -0.65625,-2.34375 z m 40.96875,54.75 q -0.65625,0.46875 -1.40625,0.65625 v 0.375 h 5.4375 q -1.03125,-0.375 -2.0625,-0.65625 -0.9375,-0.28125 -1.96875,-0.375 z m -19.96875,-125.53125 q -1.875,1.875 -2.71875,1.875 -0.65625,0 -0.65625,-1.3125 0,-1.59375 1.03125,-1.59375 0.75,0 2.34375,1.03125 z"
         id="path5440"
         inkscape:connector-curvature="0" />
    </g>
  </g>
</svg>
