<?xml version="1.0" encoding="UTF-8" standalone="no"?>
<!-- Created with Inkscape (http://www.inkscape.org/) -->

<svg
   xmlns:dc="http://purl.org/dc/elements/1.1/"
   xmlns:cc="http://creativecommons.org/ns#"
   xmlns:rdf="http://www.w3.org/1999/02/22-rdf-syntax-ns#"
   xmlns:svg="http://www.w3.org/2000/svg"
   xmlns="http://www.w3.org/2000/svg"
   xmlns:sodipodi="http://sodipodi.sourceforge.net/DTD/sodipodi-0.dtd"
   xmlns:inkscape="http://www.inkscape.org/namespaces/inkscape"
   width="29.765625mm"
   height="38.224022mm"
   viewBox="0 0 29.765625 38.224021"
   version="1.1"
   id="svg4525"
   inkscape:version="0.92.4 (5da689c313, 2019-01-14)"
   sodipodi:docname="B5A.svg">
  <defs
     id="defs4519" />
  <sodipodi:namedview
     id="base"
     pagecolor="#ffffff"
     bordercolor="#666666"
     borderopacity="1.0"
     inkscape:pageopacity="0.0"
     inkscape:pageshadow="2"
     inkscape:zoom="0.35"
     inkscape:cx="1158.2937"
     inkscape:cy="-393.66215"
     inkscape:document-units="mm"
     inkscape:current-layer="layer1"
     showgrid="false"
     fit-margin-top="0"
     fit-margin-left="0"
     fit-margin-right="0"
     fit-margin-bottom="0"
     inkscape:window-width="1920"
     inkscape:window-height="1017"
     inkscape:window-x="-8"
     inkscape:window-y="-8"
     inkscape:window-maximized="1"
     showguides="false" />
  <metadata
     id="metadata4522">
    <rdf:RDF>
      <cc:Work
         rdf:about="">
        <dc:format>image/svg+xml</dc:format>
        <dc:type
           rdf:resource="http://purl.org/dc/dcmitype/StillImage" />
        <dc:title></dc:title>
      </cc:Work>
    </rdf:RDF>
  </metadata>
  <g
     inkscape:label="Layer 1"
     inkscape:groupmode="layer"
     id="layer1"
     transform="translate(393.77773,-6.4528567)">
    <g
       aria-label="ð“€‰"
       style="font-style:normal;font-variant:normal;font-weight:normal;font-stretch:normal;font-size:50.79999924px;line-height:1.25;font-family:sans-serif;-inkscape-font-specification:sans-serif;font-variant-ligatures:normal;font-variant-caps:normal;font-variant-numeric:normal;font-feature-settings:normal;text-align:start;letter-spacing:0px;word-spacing:0px;writing-mode:lr-tb;text-anchor:start;fill:#000000;fill-opacity:1;stroke:none;stroke-width:0.26458332"
       id="text5105" />
    <g
       aria-label="ð“€†"
       transform="matrix(0.26458333,0,0,0.26458333,-199.96101,81.431167)"
       style="font-style:normal;font-variant:normal;font-weight:normal;font-stretch:normal;font-size:192px;line-height:1.25;font-family:sans-serif;-inkscape-font-specification:sans-serif;font-variant-ligatures:normal;font-variant-caps:normal;font-variant-numeric:normal;font-feature-settings:normal;text-align:start;letter-spacing:0px;word-spacing:0px;writing-mode:lr-tb;text-anchor:start;fill:#000000;fill-opacity:1;stroke:none"
       id="flowRoot5135" />
    <g
       aria-label="ð“•"
       transform="matrix(0.26458333,0,0,0.26458333,-390.48232,26.790778)"
       style="font-style:normal;font-variant:normal;font-weight:normal;font-stretch:normal;font-size:192px;line-height:1.25;font-family:sans-serif;-inkscape-font-specification:sans-serif;font-variant-ligatures:normal;font-variant-caps:normal;font-variant-numeric:normal;font-feature-settings:normal;text-align:start;letter-spacing:0px;word-spacing:0px;writing-mode:lr-tb;text-anchor:start;fill:#000000;fill-opacity:1;stroke:none"
       id="flowRoot5443">
      <path
         d="m -11.048828,0.75726456 34.875,20.71875044 9.65625,-16.4062504 2.71875,1.40625 -9.84375,16.5000004 15.65625,9.28125 q -0.84375,-5.90625 -1.40625,-11.8125 -0.5625,-6 -0.5625,-12.0937504 0,-11.90625 2.4375,-19.4999996 2.53125,-7.6875 6.5625,-11.8125 4.125,-4.21875 4.125,-6.28125 -0.9375,-2.625 -2.4375,-4.78125 -1.40625,-2.25 -4.125,-3.28125 h -3.84375 l -0.9375,-0.375 q -1.5,-1.5 -2.0625,-4.96875 -0.46875,-3.5625 -1.40625,-3.9375 h -0.1875 l -1.40625,-1.78125 q 0.28125,-0.9375 0.75,-1.78125 l 0.84375,-1.6875 q 0.75,-1.78125 1.40625,-3.65625 l 1.125,-3.75 q 1.03125,-3.375 1.40625,-5.53125 0.375,-2.15625 2.90625,-5.25 2.53125,-3.1875 6.75,-4.96875 4.3125,-1.875 8.90625,-1.875 7.125,0 12.84375,3.9375 5.71875,3.84375 7.875,10.03125 3.375,-1.5 6.84375,-3.28125 0.46875,0.28125 1.03125,0.46875 l 0.9375,0.46875 2.625,6.5625 -1.03125,1.96875 -3.46875,1.21875 q -1.6875,0.65625 -3.375,1.40625 l 8.625,7.03125 q 0,0.46875 0.09375,1.03125 0.09375,0.5625 0.28125,1.125 l -4.21875,5.625 h -1.125 l -1.125,0.1875 -5.34375,-4.59375 q -1.78125,3.375 -5.25,6.375 -3.46875,2.90625 -5.71875,3.46875 l 0.1875,4.40625 q 5.15625,9.09375 7.6875,18.9375 2.53125,9.74999956 2.53125,26.0625 0,8.8125 -0.65625,16.125 -0.65625,7.3125 -1.96875,14.53125 2.71875,0.46875 4.03125,2.25 1.40625,1.6875 1.59375,4.40625 6.84375,6.46875 11.0625,7.6875 4.218748,1.21875 4.218748,3.65625 -1.593748,1.875 -2.999998,2.4375 -1.3125,0.5625 -2.71875,0.5625 -2.4375,0 -5.53125,-1.21875 -3.09375,-1.21875 -5.90625,-3.09375 l -3.09375,-1.875 q -1.21875,-0.1875 -2.53125,-0.28125 -1.21875,-0.09375 -2.53125,-0.09375 -7.78125,0 -17.71875,3.46875 -9.84375,3.46875 -32.15625,3.46875 -7.03125,0 -15.0937501,-0.1875 -8.0625,-0.1875 -12.65625,-0.1875 l -0.65625,-0.375 -0.5625,-0.375 q -0.9375,-1.6875 -1.96875,-3.9375 -1.03125,-2.34375 -1.3125,-4.96875 0,-4.5 2.15625,-8.53125 2.15625,-4.125 5.62499998,-6.28125 3.56250002,-2.25 13.96875012,-5.0625 l 7.96875,-13.59375 -34.78125,-20.6250004 z m 69.84375,-49.03124956 0.28125,-4.59375 0.9375,-1.125 q 2.8125,-1.78125 2.8125,-5.34375 0,-0.75 -0.5625,-0.75 -0.46875,0 -1.03125,0.65625 -0.46875,0.5625 -0.84375,1.3125 l -1.5,1.03125 q -2.71875,-0.1875 -8.15625,-0.65625 -5.4375,-0.5625 -6.9375,-0.65625 -0.75,2.4375 -1.59375,4.78125 -0.84375,2.34375 -1.96875,4.59375 1.96875,0.9375 2.53125,4.40625 0.5625,3.375 0.9375,4.3125 7.3125,0 9.84375,4.875 2.625,4.875 2.625,6.28125 0,3.28125 -4.3125,7.6875 -4.3125,4.3125 -6.46875,11.0625 -2.15625,6.6562496 -2.15625,16.6874996 0,4.8750004 0.75,15.2812504 0.75,10.40625 1.5,13.40625 l -1.5,1.96875 q -8.53125,0 -16.96875,1.3125 -8.34375,1.21875 -16.59375,3.65625 l -1.1250001,0.28125 -1.03125,0.375 q 1.40625,3.46875 3.4687501,6.28125 2.15625,2.8125 5.4375,4.6875 10.40625,-1.6875 20.8125,-2.25 10.5,-0.5625 21,-0.65625 h 6.28125 q 3,0 5.90625,-0.5625 3,-0.65625 4.6875,-3.09375 1.40625,-7.5 2.15625,-15.28125 0.75,-7.875 0.75,-17.25 0,-13.4062504 -2.25,-23.1562504 -2.25,-9.7499996 -8.0625,-20.0624996 v -6.375 z m -53.3437501,91.875 q -4.68750003,1.875 -7.21875,5.34375 -2.53125,3.46875 -2.53125,9.5625 0,1.3125 0.9375,3 l 1.40625,2.71875 q 3.5625,0 12.0000001,0.1875 8.4375,0.1875 14.8125,0.1875 9.09375,0 15.84375,-0.46875 6.84375,-0.5625 12.1875,-1.96875 l 7.59375,-1.96875 q 3.75,-1.03125 7.59375,-1.78125 3.9375,-0.75 8.0625,-0.75 3.9375,0 8.8125,3.375 4.96875,3.28125 9.09375,3.28125 1.3125,0 2.15625,-0.375 -0.84375,-0.46875 -2.4375,-0.84375 -1.5,-0.46875 -6.375,-4.125 -4.875,-3.65625 -5.34375,-5.25 -0.46875,-1.59375 -0.65625,-2.25 -0.09375,-0.65625 -0.75,-1.3125 -0.5625,-0.75 -2.53125,-1.03125 -2.25,2.8125 -5.625,3.65625 -3.28125,0.84375 -6.84375,0.84375 h -6.65625 q -9.46875,0 -19.6875,0.65625 -10.125,0.5625 -18.5625,1.78125 l -1.6875,0.375 q -0.9375,0.28125 -1.78125,0.28125 -2.15625,0 -5.71875,-3.375 -3.5625001,-3.46875 -6.0937501,-9.75 z m 65.3437501,-80.53125 q 5.34375,-2.71875 7.5,-6.375 2.15625,-3.65625 2.15625,-9.28125 0,-9.09375 -5.34375,-15.1875 -5.34375,-6.09375 -14.25,-6.09375 -5.71875,0 -10.78125,3.5625 -4.96875,3.5625 -5.53125,9 3.375,0.1875 6.75,0.46875 l 6.75,0.65625 q 0.65625,-1.21875 1.96875,-2.0625 1.3125,-0.84375 2.625,-0.84375 1.59375,0 2.4375,1.40625 0.84375,1.3125 0.84375,2.90625 0,2.15625 -1.125,4.125 -1.125,1.96875 -2.90625,3 v 2.71875 z m -46.03125,62.53125 -6.75,11.25 q 5.15625,-1.125 10.5,-1.78125 5.34375,-0.75 10.6875,-0.9375 z m 58.59375,-74.8125 q 0,1.125 -0.28125,2.25 l 5.34375,4.59375 q 0.65625,-0.75 1.3125,-1.59375 l 1.125,-1.59375 -3.65625,-3 q -2.0625,-1.59375 -3.65625,-3 z m -0.46875,-9.1875 q 0.1875,0.9375 0.28125,1.78125 l 3.28125,-1.21875 q 1.59375,-0.5625 3.1875,-1.21875 l -0.65625,-1.875 -0.84375,-1.78125 -2.625,1.21875 q -1.6875,0.75 -3,1.40625 z m -36.375,2.625 q 1.96875,0.65625 3.46875,1.6875 -1.5,1.03125 -3.46875,1.6875 l -1.21875,-1.6875 z"
         id="path5451"
         inkscape:connector-curvature="0" />
    </g>
  </g>
</svg>
