<?xml version="1.0" encoding="UTF-8" standalone="no"?>
<!-- Created with Inkscape (http://www.inkscape.org/) -->

<svg
   xmlns:dc="http://purl.org/dc/elements/1.1/"
   xmlns:cc="http://creativecommons.org/ns#"
   xmlns:rdf="http://www.w3.org/1999/02/22-rdf-syntax-ns#"
   xmlns:svg="http://www.w3.org/2000/svg"
   xmlns="http://www.w3.org/2000/svg"
   xmlns:sodipodi="http://sodipodi.sourceforge.net/DTD/sodipodi-0.dtd"
   xmlns:inkscape="http://www.inkscape.org/namespaces/inkscape"
   width="25.052721mm"
   height="38.000782mm"
   viewBox="0 0 25.052721 38.000782"
   version="1.1"
   id="svg21961"
   inkscape:version="0.92.4 (5da689c313, 2019-01-14)"
   sodipodi:docname="B6.svg">
  <defs
     id="defs21955" />
  <sodipodi:namedview
     id="base"
     pagecolor="#ffffff"
     bordercolor="#666666"
     borderopacity="1.0"
     inkscape:pageopacity="0.0"
     inkscape:pageshadow="2"
     inkscape:zoom="0.35"
     inkscape:cx="-417.54492"
     inkscape:cy="-357.61789"
     inkscape:document-units="mm"
     inkscape:current-layer="layer1"
     showgrid="false"
     fit-margin-top="0"
     fit-margin-left="0"
     fit-margin-right="0"
     fit-margin-bottom="0"
     inkscape:window-width="1920"
     inkscape:window-height="1017"
     inkscape:window-x="-8"
     inkscape:window-y="-8"
     inkscape:window-maximized="1" />
  <metadata
     id="metadata21958">
    <rdf:RDF>
      <cc:Work
         rdf:about="">
        <dc:format>image/svg+xml</dc:format>
        <dc:type
           rdf:resource="http://purl.org/dc/dcmitype/StillImage" />
        <dc:title></dc:title>
      </cc:Work>
    </rdf:RDF>
  </metadata>
  <g
     inkscape:label="Layer 1"
     inkscape:groupmode="layer"
     id="layer1"
     transform="translate(-23.162927,-16.212819)">
    <g
       aria-label="ð“–"
       transform="scale(0.26458333)"
       style="font-style:normal;font-variant:normal;font-weight:normal;font-stretch:normal;font-size:192px;line-height:1.25;font-family:sans-serif;-inkscape-font-specification:'sans-serif, Normal';font-variant-ligatures:normal;font-variant-caps:normal;font-variant-numeric:normal;font-feature-settings:normal;text-align:start;letter-spacing:0px;word-spacing:0px;writing-mode:lr-tb;text-anchor:start;fill:#000000;fill-opacity:1;stroke:none"
       id="flowRoot22506">
      <path
         d="m 138.82617,100.93305 q 2.25,-2.156254 4.6875,-3.843754 2.53125,-1.78125 5.625,-2.34375 0.1875,-0.75 0.28125,-1.40625 0.0937,-0.75 0.0937,-1.5 0,-1.03125 -0.375,-1.78125 -1.5,-0.5625 -4.875,-0.84375 -3.375,-0.28125 -3.375,-4.3125 0,-1.3125 0.28125,-2.4375 -1.03125,0 -2.15625,-0.375 -1.03125,-0.46875 -1.03125,-1.78125 0,-0.5625 2.34375,-5.0625 2.34375,-4.59375 4.03125,-7.875 1.6875,-3.28125 4.5,-4.6875 2.8125,-1.40625 6.09375,-1.40625 4.59375,0 10.875,2.8125 6.28125,2.71875 10.21875,11.4375 4.03125,8.625 4.78125,20.90625 l 0.9375,12.843754 0.46875,6.46875 q -0.46875,0.375 -0.84375,0.75 l -0.75,0.75 h -15.09375 q 0,5.8125 0.1875,11.625 0.1875,5.8125 0.9375,11.625 2.90625,-1.59375 6,-2.53125 3.09375,-1.03125 6.375,-1.03125 l 0.75,0.75 q 0.375,0.375 0.84375,0.75 v 28.6875 q -0.46875,0.375 -0.84375,0.75 l -0.75,0.75 h -5.90625 v 34.78125 q -0.46875,0.375 -0.84375,0.75 l -0.75,0.75 h -43.875 l -1.40625,-1.78125 V 162.7143 q -3.375,0.5625 -5.0625,2.71875 -1.6875,2.15625 -2.15625,5.90625 l -0.375,16.3125 q -0.1875,5.15625 -0.375,6.84375 -0.1875,1.59375 0.46875,3.75 0.65625,2.0625 0.65625,3.65625 0,1.3125 -0.84375,2.15625 -0.75,0.84375 -3,0.84375 H 89.888672 q -1.125,0 -1.875,-0.65625 0,-0.46875 -0.46875,-1.40625 0.5625,-2.8125 6.375,-2.90625 5.90625,-0.0937 6.562498,-8.8125 0.65625,-8.8125 2.8125,-22.03125 2.25,-13.21875 8.90625,-21.5625 -1.96875,-2.0625 -3,-4.21875 -1.03125,-2.15625 -1.03125,-7.59375 -1.59375,-4.125 -3.5625,-7.6875 -1.96875,-3.65625 -3.75,-6.09375 -1.031248,2.8125 -1.593748,5.8125 -0.46875,3 -0.46875,3.375 0,0.28125 1.406248,5.0625 l 3,9.09375 2.0625,5.53125 q 0.9375,2.71875 1.3125,5.71875 l -0.5625,0.65625 q -0.28125,0.375 -0.5625,0.84375 l -0.9375,0.1875 q -0.5625,0 -1.03125,0.28125 l -1.6875,-0.75 -0.375,-0.65625 q -0.28125,0.1875 -0.46875,0.46875 l -0.46875,0.46875 q -1.406248,-0.1875 -2.156248,-1.40625 -0.65625,-1.3125 -0.65625,-3.65625 0,-1.03125 0.1875,-1.96875 0.28125,-1.03125 0.65625,-2.0625 -2.4375,-5.625 -4.5,-11.4375 -2.0625,-5.90625 -2.0625,-7.3125 0,-1.40625 0.46875,-3.375 0.46875,-2.0625 1.21875,-4.21875 l 2.53125,-7.5 q 0.75,-2.15625 1.59375,-4.125 0.84375,-1.96875 2.531248,-3.65625 -3.187498,-1.03125 -5.343748,-3.84375 -2.0625,-2.90625 -2.0625,-6.375004 0.1875,-3.46875 2.90625,-5.90625 2.8125,-2.4375 6.093748,-2.4375 2.25,0 4.5,1.59375 2.25,1.5 6,6.28125 l -0.84375,2.4375 -0.375,0.1875 q 0.46875,0.46875 0.75,1.031254 0.28125,0.5625 0.28125,1.3125 -0.28125,1.03125 -1.03125,1.96875 1.21875,0.46875 2.25,1.5 1.03125,1.03125 2.34375,2.4375 l 11.8125,14.8125 11.15625,-21.375 z m 7.3125,58.96875 q -0.75,2.53125 -1.5,6.375 -0.75,3.75 -0.75,6.75 0,1.5 0.9375,3 0.9375,1.5 2.8125,3.28125 l 1.5,1.5 q 0.75,0.75 1.125,1.40625 0.375,0.5625 0.46875,1.40625 0,1.125 -0.375,1.59375 -0.28125,0.375 -0.65625,0.65625 l -1.40625,0.375 q -1.21875,-0.84375 -2.34375,-1.6875 l -2.0625,-1.5 -1.78125,-1.125 q -1.5,-1.03125 -3.9375,-1.96875 -2.34375,-1.03125 -2.34375,-3 0,-0.46875 0.1875,-0.9375 l 0.375,-0.9375 0.5625,-0.9375 q 0,-0.28125 0.46875,-2.0625 l 1.6875,-7.59375 q 0.375,-1.6875 0.46875,-1.96875 h -10.3125 v 39.375 h 40.875 v -34.5 l 1.40625,-1.78125 h 6.09375 v -25.6875 q -5.625,0.84375 -10.5,3.75 0.1875,0.84375 0.28125,1.5 0.0937,0.65625 0.0937,1.875 0,5.0625 -3.9375,8.71875 -3.84375,3.65625 -10.125,5.0625 v 4.3125 q 0,2.34375 1.5,5.0625 1.59375,2.625 5.0625,5.25 3.5625,2.53125 3.5625,5.25 0,1.40625 -0.5625,2.0625 -0.46875,0.65625 -1.6875,0.9375 l -1.3125,-0.375 -1.6875,-1.6875 q -5.25,-4.96875 -8.4375,-6.28125 -3.09375,-1.3125 -3.09375,-4.21875 0,-1.125 0.375,-2.25 0.375,-1.21875 0.375,-2.53125 0,-1.03125 -0.375,-3.09375 -0.28125,-2.15625 -1.03125,-3.375 z m 11.15625,-86.906254 q 0.9375,-1.21875 2.0625,-1.21875 1.40625,0 3,1.6875 1.59375,1.6875 1.59375,4.40625 0,1.125 -0.46875,1.96875 -0.375,0.75 -1.03125,1.3125 l -1.59375,1.3125 q -1.5,1.3125 -2.71875,3.375 -1.125,2.0625 -1.59375,8.8125 l 2.15625,0.09375 q 7.78125,0.46875 10.6875,1.96875 3,1.40625 3.84375,4.312504 0,2.15625 -1.96875,6.5625 -1.875,4.3125 -4.21875,6.65625 h 12.09375 q -0.28125,-2.71875 -0.46875,-5.53125 l -0.375,-5.53125 q -0.46875,-7.593754 -1.21875,-13.781254 -0.75,-6.28125 -3.75,-12.75 -2.90625,-6.5625 -8.4375,-9.46875 -5.53125,-3 -10.21875,-3 -5.71875,0 -8.34375,5.25 z M 125.51367,159.5268 h 14.34375 v -9.09375 l -9.375,-0.5625 -15.5625,-0.84375 q -4.03125,5.25 -6.65625,13.875 -2.625,8.625 -4.5,25.5 h 11.90625 q 0.1875,-2.34375 0.1875,-4.6875 l -0.0937,-3.1875 q 0,-12.46875 2.53125,-16.21875 2.53125,-3.75 7.21875,-4.78125 z m -9.65625,-40.03125 q -0.65625,-1.40625 -0.65625,-3.46875 0,-0.9375 0.0937,-1.96875 l 0.1875,-2.0625 -0.9375,-1.21875 q -0.5625,-0.5625 -2.0625,-2.4375 -1.5,-1.96875 -3.5625,-1.96875 -0.9375,0 -1.875,0.28125 -0.375,-0.65625 -0.375,-1.125 l 0.0937,-0.1875 q 0,-0.46875 -0.28125,-1.125 0.75,-0.46875 1.40625,-1.21875 0.65625,-0.75 1.125,-1.59375 l -0.9375,-0.9375 q -0.46875,-0.375 -0.46875,-1.312504 0,-1.40625 1.21875,-2.15625 -1.3125,-1.6875 -3.28125,-3.375 -1.875,-1.78125 -3.75,-1.78125 -2.249998,0 -4.218748,1.6875 -1.875,1.59375 -1.875,3.84375 0,3.000004 2.4375,5.156254 2.437498,2.0625 5.812498,2.71875 l 0.46875,2.625 q -2.25,1.5 -3.28125,3.28125 -1.03125,1.6875 -1.781248,4.125 1.406248,1.3125 2.437498,2.53125 l 0.1875,0.28125 q 0.28125,0.28125 2.625,4.21875 2.34375,3.9375 4.59375,8.53125 l 1.03125,0.0937 h 0.5625 l -0.65625,-0.46875 0.9375,-2.625 q 1.875,0 3.46875,0.9375 1.6875,0.84375 3.09375,1.96875 h 3.09375 z m 46.6875,1.5 q -2.4375,2.8125 -6,6.65625 -3.46875,3.84375 -6.9375,6.84375 0.84375,0.28125 1.3125,1.03125 0.5625,0.75 0.65625,1.78125 0,0.1875 0.0937,0.65625 0.0937,0.46875 0.28125,2.4375 l 1.3125,17.25 q 4.59375,-0.9375 7.875,-4.125 3.28125,-3.28125 3.28125,-7.5 0,-0.75 -0.0937,-1.3125 l -0.28125,-1.5 q -0.46875,-2.71875 -0.65625,-6.5625 l -0.46875,-7.3125 q -0.28125,-4.03125 -0.375,-8.34375 z m -51.1875,19.6875 q 0.1875,1.59375 1.21875,3 1.125,1.3125 2.25,2.34375 l 12,0.5625 13.3125,0.75 q 0.375,-2.625 1.21875,-5.25 0.84375,-2.71875 2.0625,-5.15625 h -32.0625 z m 34.78125,-26.53125 q -2.53125,-0.5625 -3.75,-2.25 l -7.125,11.4375 h 12 z m -16.03125,9.1875 h 1.6875 l 9.5625,-15 q -0.65625,-1.59375 -1.40625,-3 z m 11.53125,48.375 q 0,-0.65625 0.28125,-2.53125 l 0.75,-4.5 q 0.375,-2.53125 0.9375,-5.625 l 1.125,-6.09375 q 1.3125,-7.21875 3.09375,-15.9375 l -1.03125,-0.1875 q -1.59375,2.15625 -2.8125,5.34375 -1.125,3.09375 -1.6875,6.84375 v 11.90625 l -3.46875,15.84375 q 0,0.65625 1.21875,1.3125 1.3125,0.65625 2.53125,1.40625 l 2.53125,1.78125 q 1.40625,1.03125 2.90625,2.0625 -0.84375,-1.5 -1.875,-2.625 l -2.15625,-2.15625 q -1.03125,-1.03125 -1.78125,-2.25 -0.65625,-1.21875 -0.65625,-3 v -1.125 q 0,-0.28125 0.0937,-0.46875 z m -27.46875,19.6875 q 0,5.71875 -1.59375,7.5 -1.5,1.78125 -7.875,3.28125 l 11.8125,-0.28125 v -0.46875 q -0.375,-1.59375 -0.84375,-3.09375 -0.46875,-1.5 -0.46875,-3.09375 0,-0.9375 0.0937,-1.96875 l 0.1875,-1.875 z m -6.46875,0 q -0.46875,1.3125 -0.75,2.625 -0.1875,1.21875 -0.1875,2.53125 0,0.65625 0.46875,1.21875 0.5625,0.46875 0.5625,1.21875 1.875,-0.9375 2.90625,-1.96875 0.375,-1.3125 0.46875,-2.8125 v -2.8125 z m 41.4375,-76.6875 0.84375,7.125 5.625,-7.125 z m -49.499998,87.28125 q 0,-0.1875 0.09375,-0.375 0,-0.46875 0.562498,-0.75 0.5625,-0.28125 2.34375,-0.46875 h 1.78125 q 0.28125,-0.1875 0.46875,-0.9375 -1.21875,-1.59375 -1.21875,-3.75 0,-1.03125 0.28125,-2.15625 0.28125,-1.125 0.65625,-2.15625 h -1.125 q -0.28125,5.25 -2.90625,7.875 -2.624998,2.625 -7.312498,3.09375 z m 31.406248,-71.0625 q 4.21875,0 7.03125,-0.46875 2.90625,-0.46875 4.59375,-1.125 l 0.9375,-0.46875 h -11.8125 l -3.375,2.15625 z m -12.375,-15.1875 v 2.4375 l 7.3125,8.53125 h 18.9375 l 1.03125,-1.21875 h -19.21875 q -1.59375,-1.96875 -3.09375,-3.75 z m -22.874998,15.5625 q 0,-0.28125 -0.09375,-0.9375 0,-1.03125 0.28125,-2.4375 0.375,-1.5 0.84375,-3.09375 l 1.03125,-3.09375 q 0.46875,-1.5 0.9375,-2.625 l -0.5625,-0.65625 q -1.03125,2.8125 -2.15625,6.1875 -1.03125,3.28125 -1.03125,6.09375 l 0.9375,2.71875 1.40625,4.6875 1.78125,5.4375 q 0.937498,2.8125 1.781248,5.15625 0,0.1875 -0.1875,0.9375 -0.1875,0.75 -0.46875,1.59375 l -0.749998,2.25 0.562498,2.15625 1.03125,-3.75 1.96875,4.125 1.3125,-0.46875 z m 26.156248,-3.84375 1.6875,-0.65625 -4.03125,-4.6875 z m 23.15625,6.9375 q 8.53125,-6.9375 16.3125,-16.96875 7.875,-10.125 8.71875,-16.3125 -1.40625,-1.593754 -4.3125,-2.343754 -2.90625,-0.75 -8.0625,-1.03125 l -3.65625,-0.28125 q 0,-0.28125 -0.28125,-0.46875 l -0.46875,-0.46875 0.375,-5.71875 q 0,-2.71875 1.5,-6.09375 1.59375,-3.375 3.65625,-4.59375 2.0625,-1.3125 2.0625,-2.8125 0,-0.84375 -0.28125,-1.5 -0.28125,-0.75 -1.03125,-0.75 l -0.0937,0.1875 -0.0937,0.09375 -1.96875,0.9375 q -1.875,-0.5625 -3.9375,-1.3125 l -3.9375,-1.3125 q -2.25,-0.75 -4.6875,-1.5 -0.84375,1.875 -1.59375,3.75 -0.75,1.875 -1.78125,3.46875 0.375,0 0.75,0.09375 h 0.5625 l 1.5,1.96875 q -0.1875,0.75 -0.375,2.15625 -0.0937,1.3125 -0.0937,2.15625 0.1875,0.65625 1.5,0.65625 h 1.5 q 1.875,0 3.5625,1.03125 1.78125,1.03125 1.78125,4.5 l -0.375,4.59375 -1.03125,1.03125 q -2.71875,0.1875 -4.96875,1.5 -2.25,1.312504 -4.125,3.281254 2.53125,4.40625 2.8125,6.65625 0.375,2.25 2.8125,2.25 h 10.96875 l 1.5,-1.875 1.40625,-1.96875 2.53125,1.6875 q -3.84375,5.25 -7.78125,10.21875 -3.84375,4.875 -7.3125,9.375 -3.46875,4.5 -13.5,4.5 h -17.53125 l -4.59375,-3.09375 1.96875,2.53125 -3,0.28125 -0.5625,1.5 z m 3.84375,-58.031254 q -1.59375,1.03125 -2.34375,1.03125 -1.03125,0 -1.03125,-1.59375 0,-1.21875 0.75,-1.21875 0.84375,0 2.625,1.78125 z m -24.1875,52.500004 -1.40625,0.75 0.65625,1.3125 3.28125,-2.0625 z m 24.65625,16.78125 -1.78125,8.625 1.21875,5.34375 0.84375,4.03125 q 0.375,1.96875 0.375,2.4375 0,1.03125 -0.375,2.53125 -0.375,1.5 -0.375,2.4375 l 0.75,1.40625 q 1.78125,0.84375 4.40625,3 2.71875,2.0625 6.5625,5.53125 0.1875,-0.1875 0.1875,-0.46875 0,-1.78125 -4.78125,-5.25 -4.78125,-3.46875 -5.34375,-8.4375 z"
         id="path22514"
         inkscape:connector-curvature="0" />
    </g>
  </g>
</svg>
