<?xml version="1.0" encoding="UTF-8" standalone="no"?>
<svg
   xmlns:dc="http://purl.org/dc/elements/1.1/"
   xmlns:cc="http://creativecommons.org/ns#"
   xmlns:rdf="http://www.w3.org/1999/02/22-rdf-syntax-ns#"
   xmlns:svg="http://www.w3.org/2000/svg"
   xmlns="http://www.w3.org/2000/svg"
   xmlns:sodipodi="http://sodipodi.sourceforge.net/DTD/sodipodi-0.dtd"
   xmlns:inkscape="http://www.inkscape.org/namespaces/inkscape"
   version="1.0"
   width="369.01871pt"
   height="365.51599pt"
   viewBox="0 0 369.01871 365.51599"
   preserveAspectRatio="xMidYMid meet"
   id="svg10"
   sodipodi:docname="B8.svg"
   inkscape:version="0.92.4 (5da689c313, 2019-01-14)">
  <defs
     id="defs14" />
  <sodipodi:namedview
     pagecolor="#ffffff"
     bordercolor="#666666"
     borderopacity="1"
     objecttolerance="10"
     gridtolerance="10"
     guidetolerance="10"
     inkscape:pageopacity="0"
     inkscape:pageshadow="2"
     inkscape:window-width="1920"
     inkscape:window-height="1017"
     id="namedview12"
     showgrid="false"
     fit-margin-top="0"
     fit-margin-left="0"
     fit-margin-right="0"
     fit-margin-bottom="0"
     inkscape:zoom="0.43065693"
     inkscape:cx="-59.497175"
     inkscape:cy="250.8503"
     inkscape:window-x="-8"
     inkscape:window-y="-8"
     inkscape:window-maximized="1"
     inkscape:current-layer="svg10" />
  <metadata
     id="metadata2">
Created by potrace 1.10, written by Peter Selinger 2001-2011
<rdf:RDF>
  <cc:Work
     rdf:about="">
    <dc:format>image/svg+xml</dc:format>
    <dc:type
       rdf:resource="http://purl.org/dc/dcmitype/StillImage" />
    <dc:title></dc:title>
  </cc:Work>
</rdf:RDF>
</metadata>
  <g
     transform="matrix(0.1,0,0,-0.1,-11,382.87826)"
     id="g8"
     style="fill:#000000;stroke:none">
    <path
       d="m 1445,3813 c -95,-17 -182,-42 -210,-60 -32,-22 -63,-16 -77,15 -12,25 -19,27 -75,30 -54,3 -68,-1 -105,-25 -58,-37 -80,-51 -97,-59 -30,-15 -109,-107 -114,-133 -3,-14 -9,-39 -15,-56 -22,-63 -42,-143 -42,-168 0,-18 -17,-43 -58,-84 -32,-32 -75,-80 -97,-108 -22,-27 -45,-56 -52,-63 -32,-33 -301,-360 -316,-384 -26,-41 -22,-110 7,-146 27,-31 107,-62 160,-62 28,0 91,-8 311,-41 39,-6 93,-13 120,-16 98,-8 98,-8 91,-58 -14,-90 24,-174 124,-278 l 75,-78 -1,-202 c -1,-143 -6,-224 -18,-277 -9,-41 -16,-88 -16,-105 0,-42 -32,-140 -56,-171 l -19,-25 -25,23 c -14,13 -70,59 -125,103 -55,44 -138,111 -185,150 -83,69 -110,88 -140,100 -8,4 -30,13 -48,21 -47,20 -135,18 -180,-5 -52,-27 -82,-63 -104,-123 -26,-76 -24,-101 27,-293 15,-53 37,-143 61,-240 8,-33 21,-81 29,-106 22,-68 19,-81 -28,-115 -23,-17 -51,-49 -62,-70 -11,-21 -24,-45 -30,-53 -14,-20 -45,-122 -45,-151 0,-52 35,-125 85,-176 73,-73 157,-111 300,-135 122,-21 1936,-20 1981,0 40,19 57,65 39,107 -16,39 -29,48 -105,68 -137,37 -175,49 -188,58 -7,6 -30,20 -51,32 -21,11 -86,57 -145,101 -106,79 -107,81 -103,115 3,19 13,87 22,150 18,128 17,172 -25,700 -5,74 -10,276 -11,449 0,309 6,367 31,310 6,-13 19,-37 30,-54 11,-16 24,-39 30,-50 5,-11 14,-27 20,-35 37,-55 160,-274 170,-302 10,-27 10,-52 1,-112 -6,-42 -11,-103 -11,-134 0,-31 -5,-84 -10,-117 -6,-33 -15,-121 -20,-195 -11,-146 -23,-203 -63,-293 -50,-110 -52,-263 -5,-288 27,-15 38,2 38,63 0,61 15,98 38,98 44,0 53,-151 18,-274 -14,-47 -15,-64 -6,-86 11,-27 46,-50 76,-50 26,0 75,30 85,53 5,12 18,36 28,52 56,88 61,103 61,199 0,60 -5,105 -14,123 -49,102 -51,107 -51,187 0,45 8,108 17,141 32,117 78,471 78,608 0,57 -5,99 -16,124 -9,21 -22,53 -30,71 -120,288 -241,528 -329,657 -27,39 -61,88 -76,111 -16,22 -76,83 -134,134 -58,52 -105,97 -105,101 0,5 26,59 59,122 32,62 62,131 66,154 3,23 12,49 20,59 12,17 14,17 41,-1 45,-30 93,-55 105,-55 7,0 39,-10 73,-22 61,-23 146,-94 146,-123 0,-7 6,-26 14,-42 8,-15 28,-58 45,-94 18,-36 49,-82 69,-101 40,-38 141,-98 166,-98 9,0 34,-10 57,-22 55,-28 69,-64 69,-178 0,-58 5,-104 15,-127 8,-19 15,-42 15,-50 0,-35 58,-85 181,-159 71,-42 136,-86 144,-98 10,-14 15,-47 15,-107 0,-83 1,-89 26,-108 27,-21 59,-26 89,-15 31,12 45,59 45,152 0,91 -9,122 -52,185 -20,28 -131,107 -151,107 -22,0 -94,41 -119,67 -38,41 -56,106 -62,220 -3,63 -11,114 -20,132 -15,29 -125,121 -144,121 -5,0 -15,7 -22,15 -7,8 -21,15 -31,15 -40,0 -139,81 -139,113 0,6 -7,18 -16,28 -9,10 -14,26 -10,34 5,14 11,12 38,-14 18,-17 51,-40 73,-51 40,-21 174,-50 227,-50 68,0 138,-62 138,-123 0,-74 56,-196 114,-250 36,-33 167,-106 192,-107 5,-1 31,-16 57,-34 54,-36 87,-83 87,-122 0,-38 27,-82 60,-99 28,-15 33,-14 60,2 35,20 44,53 34,130 -13,112 -73,179 -235,261 -113,57 -149,80 -169,107 -16,22 -50,120 -50,147 0,58 -108,207 -150,208 -9,0 -24,6 -35,14 -11,7 -58,16 -105,20 -138,11 -199,37 -216,90 -4,12 -19,39 -33,61 -34,53 -52,87 -48,91 2,2 30,-18 62,-44 88,-70 136,-85 360,-109 28,-3 58,-13 69,-22 18,-15 96,-127 96,-137 0,-3 18,-29 40,-59 62,-84 107,-105 282,-131 82,-13 157,-29 166,-36 25,-20 51,-52 52,-63 0,-24 46,-94 71,-109 40,-23 62,-20 87,14 23,30 30,84 12,95 -5,3 -14,23 -20,44 -13,48 -60,118 -91,136 -63,37 -97,44 -265,63 -44,5 -93,15 -110,23 -18,9 -55,53 -101,123 -40,60 -87,122 -105,138 -63,56 -189,98 -294,98 -83,0 -108,12 -194,93 -126,119 -174,137 -385,147 -155,7 -218,19 -247,48 -7,7 -17,12 -23,12 -6,0 -16,5 -23,12 -12,12 -43,24 -146,58 -71,24 -218,25 -341,3 z m 135,-180 c 73,-24 139,-90 165,-165 19,-57 19,-59 0,-115 -11,-32 -33,-83 -49,-113 -78,-147 -106,-207 -106,-231 0,-52 29,-97 97,-153 38,-29 95,-81 128,-115 l 59,-61 -35,-32 c -41,-38 -43,-42 -64,-162 -21,-126 -22,-1023 0,-1206 19,-160 19,-360 0,-475 -20,-122 -19,-199 2,-233 26,-41 81,-93 144,-135 31,-21 74,-53 95,-72 l 39,-35 -795,3 -795,2 -65,32 c -87,42 -100,53 -115,96 -19,55 13,158 58,187 72,46 253,151 317,184 41,21 102,53 135,72 33,18 67,37 75,41 51,24 162,109 179,136 11,18 32,49 46,69 66,98 116,305 136,558 15,194 8,313 -23,377 -38,78 -73,127 -113,157 -50,38 -78,100 -62,137 7,15 56,74 109,131 114,122 153,172 196,250 37,67 43,140 15,191 -22,39 -73,97 -87,97 -5,0 -17,6 -25,14 -9,8 -37,17 -63,20 -76,9 -120,35 -145,86 -36,74 -26,137 37,235 11,17 24,39 29,50 14,31 120,135 137,135 8,0 25,6 37,12 79,46 219,59 307,31 z m 785,-114 c 4,-5 18,-14 31,-19 13,-5 24,-14 24,-20 0,-15 -26,-12 -40,5 -7,8 -21,15 -31,15 -19,0 -32,13 -22,24 10,10 31,7 38,-5 z m -13,-196 c 41,-39 36,-62 -6,-26 -19,15 -35,34 -35,41 -1,19 10,15 41,-15 z M 874,3146 c 9,-19 16,-39 16,-45 0,-20 116,-129 154,-145 22,-9 63,-19 93,-23 92,-10 104,-43 48,-126 -61,-91 -56,-87 -126,-87 -35,0 -104,7 -154,15 -49,8 -124,15 -165,16 -150,2 -200,17 -168,50 21,22 134,172 141,189 10,22 28,50 60,91 15,20 27,40 27,44 0,13 35,54 46,55 7,0 19,-15 28,-34 z M 403,1511 c 21,-8 68,-45 147,-115 14,-12 54,-44 90,-71 36,-27 73,-56 82,-65 9,-8 44,-35 77,-60 87,-64 82,-76 -56,-144 -28,-15 -55,-31 -58,-36 -3,-6 -14,-10 -24,-10 -10,0 -24,-7 -31,-15 -7,-8 -20,-15 -30,-15 -10,0 -23,-7 -30,-15 -7,-8 -19,-15 -28,-15 -8,0 -23,-7 -32,-15 -10,-9 -34,-18 -53,-22 -33,-5 -36,-3 -42,23 -3,16 -10,49 -16,74 -7,25 -15,63 -19,85 -8,44 -25,114 -45,190 -18,66 -29,178 -21,210 5,20 13,25 36,25 16,0 40,-4 53,-9 z"
       id="path4"
       inkscape:connector-curvature="0" />
    <path
       d="m 1116,3385 c -24,-36 -20,-70 10,-94 33,-26 50,-26 92,-1 38,23 42,55 11,94 -28,36 -89,37 -113,1 z"
       id="path6"
       inkscape:connector-curvature="0" />
  </g>
</svg>
