<?xml version="1.0" encoding="UTF-8" standalone="no"?>
<!-- Created with Inkscape (http://www.inkscape.org/) -->

<svg
   xmlns:dc="http://purl.org/dc/elements/1.1/"
   xmlns:cc="http://creativecommons.org/ns#"
   xmlns:rdf="http://www.w3.org/1999/02/22-rdf-syntax-ns#"
   xmlns:svg="http://www.w3.org/2000/svg"
   xmlns="http://www.w3.org/2000/svg"
   xmlns:sodipodi="http://sodipodi.sourceforge.net/DTD/sodipodi-0.dtd"
   xmlns:inkscape="http://www.inkscape.org/namespaces/inkscape"
   width="19.744532mm"
   height="38.075195mm"
   viewBox="0 0 19.744532 38.075195"
   version="1.1"
   id="svg23085"
   inkscape:version="0.92.4 (5da689c313, 2019-01-14)"
   sodipodi:docname="C1.svg">
  <defs
     id="defs23079" />
  <sodipodi:namedview
     id="base"
     pagecolor="#ffffff"
     bordercolor="#666666"
     borderopacity="1.0"
     inkscape:pageopacity="0.0"
     inkscape:pageshadow="2"
     inkscape:zoom="0.35"
     inkscape:cx="-354.68694"
     inkscape:cy="-406.18988"
     inkscape:document-units="mm"
     inkscape:current-layer="layer1"
     showgrid="false"
     fit-margin-top="0"
     fit-margin-left="0"
     fit-margin-right="0"
     fit-margin-bottom="0"
     inkscape:window-width="1920"
     inkscape:window-height="1017"
     inkscape:window-x="-8"
     inkscape:window-y="-8"
     inkscape:window-maximized="1" />
  <metadata
     id="metadata23082">
    <rdf:RDF>
      <cc:Work
         rdf:about="">
        <dc:format>image/svg+xml</dc:format>
        <dc:type
           rdf:resource="http://purl.org/dc/dcmitype/StillImage" />
        <dc:title></dc:title>
      </cc:Work>
    </rdf:RDF>
  </metadata>
  <g
     inkscape:label="Layer 1"
     inkscape:groupmode="layer"
     id="layer1"
     transform="translate(-6.5317537,-3.2870666)">
    <g
       aria-label="ð“š"
       transform="matrix(0.26458333,0,0,0.26458333,17.386905,-6.047619)"
       style="font-style:normal;font-variant:normal;font-weight:normal;font-stretch:normal;font-size:192px;line-height:1.25;font-family:sans-serif;-inkscape-font-specification:'sans-serif, Normal';font-variant-ligatures:normal;font-variant-caps:normal;font-variant-numeric:normal;font-feature-settings:normal;text-align:start;letter-spacing:0px;word-spacing:0px;writing-mode:lr-tb;text-anchor:start;fill:#000000;fill-opacity:1;stroke:none"
       id="flowRoot23630">
      <path
         d="m 2.9414063,102.0307 q -0.46875,-1.96875 -1.5937501,-3.374998 -1.03124995,-1.5 -2.6249999,-2.8125 -0.1875,0.28125 -3.28125,5.343748 -3.09375,4.96875 -6.9375003,4.96875 -2.53125,0 -2.53125,-1.875 0,-1.03125 2.25,-1.03125 4.6875003,-3.09375 7.0312503,-8.624998 -1.59375,-0.1875 -2.15625,-2.625 -0.46875,-2.53125 -0.84375,-3.09375 l -0.5625001,-0.28125 -1.03125,-0.1875 -1.4062502,-1.78125 q 0.46875,-1.6875 1.8750002,-5.0625 1.5000001,-3.46875 1.5000001,-5.90625 0,-3.75 2.625,-8.25 2.7187499,-4.59375 7.3125,-6.75 -0.8437501,-0.46875 -1.68750005,-1.125 -0.84375,-0.75 -1.3125,-1.3125 -1.21874995,1.03125 -2.53125005,1.40625 -1.3124999,0.28125 -2.4374999,0.28125 -2.8125001,0 -4.6875003,-3.9375 -1.875,-3.9375 -1.875,-8.53125 0,-0.9375 0.375,-1.59375 -1.21875,0 -1.21875,-0.65625 0,-1.3125 2.34375,-1.3125 4.4062503,0 4.4062503,4.03125 0,1.125 -0.5625,3.1875 -0.46875,2.0625 -0.46875,3.5625 0,3 2.625,3.09375 1.2187499,0 2.8125,-0.84375 -1.3125001,-1.59375 -1.8750001,-3.46875 -0.5624999,-1.96875 -0.5624999,-4.03125 0,-6 3.65624995,-10.03125 3.75000005,-4.125 9.37500005,-4.125 5.6249997,0 9.2812497,3.9375 3.75,3.84375 3.75,9.65625 v 0.75 q 0.46875,3.28125 3,5.53125 2.53125,2.25 7.03125,3.65625 -6.75,-1.03125 -8.53125,-2.25 -1.6875,-1.21875 -2.34375,-2.8125 -0.9375,2.625 -2.15625,4.125 -1.21875,1.40625 -2.625,2.15625 8.34375,2.625 12.75,13.21875 4.5,10.59375 4.5,29.437498 0,8.15625 -1.03125,16.125 -0.9375,7.96875 -2.53125,15.28125 l -1.5,1.03125 h -4.875 q -0.28125,7.59375 -1.6875,14.90625 -1.3125,7.3125 -3.09375,14.625 0.375,0.375 4.5,4.59375 4.125,4.125 4.125,8.4375 l -1.59375,1.5 h -65.53125 l -1.40625,-1.78125 q 0.75,-3 2.34375,-5.15625 1.59375,-2.15625 4.59375,-4.40625 l 3.375,-2.4375 q 0.65625,-2.0625 1.03125,-4.03125 0.375,-1.96875 0.375,-4.125 0,-5.53125 -3.46875,-13.78125 -3.375,-8.25 -3.375,-13.96875 0,-4.5 2.25,-7.21875 2.25,-2.8125 6.65625,-2.8125 4.59375,0 8.34375,3.1875 3.84375,3.09375 8.34375,11.90625 l 2.2500002,4.5 q 1.0312501,2.0625 1.9687501,3 l 0.5625,-0.0937 q 0.28125,-0.1875 1.125,-7.6875 0.9374999,-7.59375 7.59375,-32.25 z m 2.8124999,1.125 q -4.03125,14.90625 -6.65624995,27.5625 l -0.93749995,5.15625 q -0.1875001,1.03125 -0.1875001,1.3125 0,0.28125 -0.65625,4.125 -0.5625,3.75 -3.5624999,3.75 -2.8125001,0 -4.8750003,-5.34375 -2.0625,-5.4375 -6.46875,-11.4375 -4.40625,-6 -9.75,-6 -3.09375,0 -4.40625,1.78125 -1.21875,1.6875 -1.21875,4.59375 0,6 3.28125,14.8125 3.375,8.8125 3.375,14.71875 0,7.59375 -5.15625,11.25 l -2.4375,1.96875 q -1.40625,1.125 -2.25,2.34375 -0.84375,1.21875 -1.40625,2.4375 h 61.96875 q -0.9375,-3.28125 -4.3125,-6.375 -3.375,-3.09375 -3.84375,-3.5625 l -0.46875,-1.40625 q 2.4375,-10.125 3.9375,-20.25 1.5,-10.21875 1.5,-20.71875 0,-6.5625 -0.9375,-12.9375 -0.9375,-6.46875 -3.28125,-12.468748 z m 18.4687498,21.28125 q 0,1.875 -0.09375,3.84375 -0.09375,1.96875 -0.28125,3.84375 h 3.5625 q 1.875,-9.09375 2.34375,-17.15625 0.46875,-8.15625 0.46875,-16.031248 0,-16.875 -5.25,-27.09375 -5.25,-10.21875 -14.71875,-10.21875 -4.3124998,0 -8.4374998,2.90625 -4.03125,2.90625 -5.34375,7.5 1.6875001,0.375 7.78125,1.78125 6.1874998,1.3125 6.4687498,1.40625 0.46875,-0.1875 1.125,-0.28125 0.65625,-0.1875 1.96875,-0.375 1.59375,0 2.15625,0.84375 0.65625,0.75 0.65625,1.875 0,1.59375 -0.5625,3.375 -0.5625,1.78125 -0.65625,2.90625 0,3.75 2.625,9.28125 2.71875,5.4375 4.40625,14.062498 1.78125,8.625 1.78125,17.53125 z m -8.34375,-28.781248 q -1.59375,-3.5625 -2.625,-6.46875 -0.9375,-3 -0.9375,-4.78125 0,-1.78125 0.5625,-3.09375 0.5625,-1.3125 0.5625,-3.65625 -1.3125,0 -1.6875,0.375 -0.28125,0.28125 -0.9375,0.28125 -3.8437498,-0.75 -7.4999997,-1.59375 -3.65625005,-0.9375 -7.40625,-1.78125 -0.28125,2.90625 -1.40625,5.53125 -1.03125,2.625 -1.875,5.34375 1.5,0.65625 2.34375,1.59375 0.84375,0.9375 0.84375,3 0,0.65625 0.2812499,1.3125 3.00000005,0.28125 5.53125,2.71875 2.625,2.34375 4.03125,5.53125 z m 3.09375,-46.6875 q 0,-4.40625 -2.90625,-7.59375 -2.90625,-3.1875 -7.2187497,-3.1875 -4.5000001,0 -7.3125001,3.28125 -2.7187499,3.1875 -2.7187499,7.875 0,4.21875 2.9062499,6.9375 3,2.71875 7.3125001,2.71875 4.3124997,0 7.1249997,-2.8125 2.8125,-2.90625 2.8125,-7.21875 z m -22.4999998,31.125 q 0,-1.6875 1.21875,-1.6875 0.5625001,0 1.59375005,0.5625 l 2.81250005,1.59375 q -0.7500001,0.375 -1.59375005,0.65625 l -1.96874995,0.65625 q -0.7500001,0.1875 -0.9375001,0.1875 -1.125,0 -1.125,-1.96875 z"
         id="path23638"
         inkscape:connector-curvature="0" />
    </g>
  </g>
</svg>
