<?xml version="1.0" encoding="UTF-8" standalone="no"?>
<!-- Created with Inkscape (http://www.inkscape.org/) -->

<svg
   xmlns:dc="http://purl.org/dc/elements/1.1/"
   xmlns:cc="http://creativecommons.org/ns#"
   xmlns:rdf="http://www.w3.org/1999/02/22-rdf-syntax-ns#"
   xmlns:svg="http://www.w3.org/2000/svg"
   xmlns="http://www.w3.org/2000/svg"
   xmlns:sodipodi="http://sodipodi.sourceforge.net/DTD/sodipodi-0.dtd"
   xmlns:inkscape="http://www.inkscape.org/namespaces/inkscape"
   width="18.033009mm"
   height="37.951172mm"
   viewBox="0 0 18.033009 37.951172"
   version="1.1"
   id="svg26457"
   inkscape:version="0.92.4 (5da689c313, 2019-01-14)"
   sodipodi:docname="C10.svg">
  <defs
     id="defs26451" />
  <sodipodi:namedview
     id="base"
     pagecolor="#ffffff"
     bordercolor="#666666"
     borderopacity="1.0"
     inkscape:pageopacity="0.0"
     inkscape:pageshadow="2"
     inkscape:zoom="0.35"
     inkscape:cx="-357.5452"
     inkscape:cy="-394.76186"
     inkscape:document-units="mm"
     inkscape:current-layer="layer1"
     showgrid="false"
     fit-margin-top="0"
     fit-margin-left="0"
     fit-margin-right="0"
     fit-margin-bottom="0"
     inkscape:window-width="1920"
     inkscape:window-height="1017"
     inkscape:window-x="-8"
     inkscape:window-y="-8"
     inkscape:window-maximized="1" />
  <metadata
     id="metadata26454">
    <rdf:RDF>
      <cc:Work
         rdf:about="">
        <dc:format>image/svg+xml</dc:format>
        <dc:type
           rdf:resource="http://purl.org/dc/dcmitype/StillImage" />
        <dc:title></dc:title>
      </cc:Work>
    </rdf:RDF>
  </metadata>
  <g
     inkscape:label="Layer 1"
     inkscape:groupmode="layer"
     id="layer1"
     transform="translate(-7.2880011,-6.4347518)">
    <g
       aria-label="ð“¦"
       transform="matrix(0.26458333,0,0,0.26458333,9.827381,-1.5119048)"
       style="font-style:normal;font-variant:normal;font-weight:normal;font-stretch:normal;font-size:192px;line-height:1.25;font-family:sans-serif;-inkscape-font-specification:'sans-serif, Normal';font-variant-ligatures:normal;font-variant-caps:normal;font-variant-numeric:normal;font-feature-settings:normal;text-align:start;letter-spacing:0px;word-spacing:0px;writing-mode:lr-tb;text-anchor:start;fill:#000000;fill-opacity:1;stroke:none"
       id="flowRoot27002">
      <path
         d="m 48.058594,171.97211 q -0.28125,0.28125 -0.65625,0.46875 -0.28125,0.28125 -0.46875,0.5625 l -0.46875,0.46875 H -8.0039063 l -0.65625,-0.375 -0.5625,-0.375 q -0.375,-0.65625 -0.375,-1.5 0,-2.8125 4.2187501,-6.75 4.3125,-4.03125 5.06249995,-5.0625 0,-7.40625 -3.00000005,-16.6875 -2.9999999,-9.375 -2.9999999,-17.0625 0,-3.84375 1.40625,-5.90625 1.4999999,-2.15625 5.53124995,-2.15625 4.40624995,0 7.40625005,4.5 3.0000002,4.5 5.8125002,9 2.90625,4.5 6.84375,8.4375 2.0625,-3.28125 3.46875,-12.65625 1.5,-9.46875 7.125,-25.6875 -1.3125,-4.687502 -3.65625,-6.937502 -2.25,-2.25 -6.84375,-2.4375 l -0.65625,-0.375 -0.5625,-0.375 q -0.46875,-0.65625 -0.75,-1.59375 -0.28125,-1.03125 -0.28125,-1.96875 0,-0.9375 0.375,-1.59375 -0.28125,0 -0.5625,-0.09375 h -0.65625 l -1.40625,-1.78125 q 0.46875,-1.875 2.0625,-3.75 1.6875,-1.875 1.96875,-2.8125 0.375,-1.03125 0.375,-3.75 0,-3.46875 3.5625,-6.09375 3.65625,-2.71875 7.5,-2.90625 l 5.71875,-27.5625 q 0.65625,-3 2.90625,-5.0625 2.34375,-2.0625 5.34375,-2.0625 2.4375,0 3.75,1.59375 1.40625,1.59375 1.40625,3.46875 0,1.6875 -1.125,3.28125 -1.03125,1.5 -3.28125,1.96875 -0.46875,4.59375 -0.84375,9.84375 -0.375,5.15625 -0.65625,8.34375 l -1.96875,0.84375 h -1.96875 q -1.03125,0 -2.0625,0.375 -0.9375,0.375 -1.6875,1.125 l -0.9375,3.75 q 3,0 5.90625,1.125 2.90625,1.03125 4.5,4.03125 l 3,-4.40625 2.53125,-0.1875 3,3.09375 -0.375,2.15625 -4.6875,3.28125 q 3.28125,3.09375 5.625,9.28125 2.4375,6.09375 2.71875,6.84375 l -1.03125,1.96875 -3.46875,1.125 v 29.156252 q 0,2.15625 -1.40625,3.1875 -1.40625,1.03125 -3.28125,1.21875 l -3,18.1875 q -0.1875,0.9375 -1.59375,9.65625 -1.40625,8.71875 -1.40625,9.5625 0,4.21875 2.34375,5.15625 2.34375,0.9375 2.34375,2.90625 z m -27.28125,-29.25 q -1.96875,0 -7.40625,-7.5 -5.3437502,-7.5 -7.5000003,-11.15625 -2.1562499,-3.75 -5.53124995,-3.75 -1.78124995,0 -2.90625005,0.9375 -1.03125,0.9375 -1.03125,4.3125 0,7.59375 3.09375005,16.5 3.18750005,8.8125 3.18750005,17.8125 0,1.21875 -1.2187501,2.53125 -1.12499995,1.3125 -2.6249999,2.625 l -3.09375,2.71875 q -1.5,1.40625 -2.15625,2.71875 H 42.433594 q -1.03125,-1.03125 -1.59375,-2.8125 -0.46875,-1.875 -0.46875,-3.5625 0,-1.40625 2.4375,-16.875 2.53125,-15.5625 3.65625,-21.84375 -0.75,-1.21875 -1.125,-2.25 -0.28125,-1.03125 -0.28125,-2.15625 v -14.25 q 0,-0.46875 -0.375,-1.03125 -0.28125,-0.5625 -1.21875,-0.5625 -0.5625,0 -1.03125,0.375 -0.46875,0.28125 -0.46875,1.03125 v 12.5625 l -0.28125,0.9375 q -0.9375,1.21875 -2.71875,2.15625 -1.78125,0.9375 -3.09375,0.9375 -0.9375,0 -2.15625,-0.65625 -1.125,-0.75 -2.0625,-3 v -9.75 q -0.5625,1.6875 -1.125,3.75 l -2.15625,8.4375 q -0.75,2.71875 -2.625,11.8125 -1.78125,9 -4.96875,9 z m 3.09375,-70.031252 q 2.8125,0.9375 5.4375,1.96875 2.71875,1.03125 5.15625,3.09375 1.03125,-0.65625 2.15625,-0.65625 1.59375,0 2.625,1.21875 1.03125,1.21875 1.03125,2.90625 0,2.34375 -1.96875,4.5 -1.96875,2.0625 -2.90625,6.84375 -0.9375,4.6875 -0.9375,10.312502 v 15.9375 q 0,0.28125 0.375,0.84375 0.375,0.46875 1.125,0.46875 0.75,0 1.5,-0.46875 0.75,-0.46875 1.5,-1.21875 v -11.71875 q 0,-2.53125 1.40625,-3.5625 1.5,-1.125 3,-1.125 1.875,0 3.1875,1.21875 1.40625,1.125 1.40625,3.1875 v 14.15625 l 0.09375,0.65625 q 0,0.75 0.375,1.5 0.46875,0.75 1.40625,0.75 l 0.75,-0.46875 q 0.375,-0.1875 0.46875,-0.65625 V 92.097108 l -2.25,-8.90625 q -1.125,-4.3125 -2.15625,-8.71875 l -1.125,-1.21875 q -2.15625,-2.4375 -3.375,-4.03125 -1.125,-1.59375 -9.28125,-1.59375 -3,0.1875 -5.15625,1.40625 -2.0625,1.21875 -3.84375,3.65625 z m 14.34375,-24.84375 -2.0625,9.9375 q 1.21875,-0.84375 2.8125,-1.03125 1.59375,-0.28125 3.1875,-0.28125 l 1.40625,-17.8125 0.75,-0.5625 0.65625,-0.65625 q 1.6875,0 2.25,-0.84375 0.5625,-0.84375 0.5625,-2.15625 0,-0.5625 -0.65625,-1.03125 -0.65625,-0.5625 -1.21875,-0.5625 -4.5,0 -5.8125,6 -1.21875,6 -1.875,9 z m 16.96875,41.53125 -2.0625,-5.4375 q -0.75,-2.0625 -1.59375,-3.9375 -0.75,-1.875 -1.03125,-2.34375 l 3.375,12.28125 z m -3.9375,-21.1875 -2.625,3.5625 3.5625,-2.71875 z m -17.71875,12.84375 q -2.15625,-2.0625 -4.875,-3.46875 -2.71875,-1.5 -5.15625,-2.0625 0,0.28125 -0.09375,0.65625 0,0.28125 -0.09375,0.5625 0,0.65625 -0.46875,1.59375 -0.375,0.84375 -1.125,2.0625 l -2.0625,2.625 q 1.125,0 1.78125,0.84375 0.65625,0.75 0.65625,1.875 0,0.65625 -0.28125,1.125 -0.1875,0.375 -0.1875,0.9375 0,0.75 0.09375,0.9375 0,0.28125 0.09375,0.375 3.5625,0 6.28125,2.0625 2.8125,2.0625 4.125,4.5 1.3125,-7.96875 3.28125,-10.5 2.0625,-2.53125 2.0625,-3.75 0,-0.46875 -0.375,-0.9375 -0.28125,-0.46875 -0.84375,-0.46875 -0.46875,0 -0.9375,0.46875 l -0.28125,0.46875 z m -5.0625,-0.5625 q -2.625,1.03125 -3.75,1.03125 -1.03125,0 -1.03125,-0.75 0,-2.15625 1.78125,-2.15625 1.125,0 3,1.875 z"
         id="path27010"
         inkscape:connector-curvature="0" />
    </g>
  </g>
</svg>
