<?xml version="1.0" encoding="UTF-8" standalone="no"?>
<!-- Created with Inkscape (http://www.inkscape.org/) -->

<svg
   xmlns:dc="http://purl.org/dc/elements/1.1/"
   xmlns:cc="http://creativecommons.org/ns#"
   xmlns:rdf="http://www.w3.org/1999/02/22-rdf-syntax-ns#"
   xmlns:svg="http://www.w3.org/2000/svg"
   xmlns="http://www.w3.org/2000/svg"
   xmlns:sodipodi="http://sodipodi.sourceforge.net/DTD/sodipodi-0.dtd"
   xmlns:inkscape="http://www.inkscape.org/namespaces/inkscape"
   width="21.952148mm"
   height="37.951172mm"
   viewBox="0 0 21.952149 37.951171"
   version="1.1"
   id="svg4525"
   inkscape:version="0.92.4 (5da689c313, 2019-01-14)"
   sodipodi:docname="C10A.svg">
  <defs
     id="defs4519" />
  <sodipodi:namedview
     id="base"
     pagecolor="#ffffff"
     bordercolor="#666666"
     borderopacity="1.0"
     inkscape:pageopacity="0.0"
     inkscape:pageshadow="2"
     inkscape:zoom="0.35"
     inkscape:cx="757.93831"
     inkscape:cy="-208.70559"
     inkscape:document-units="mm"
     inkscape:current-layer="layer1"
     showgrid="false"
     fit-margin-top="0"
     fit-margin-left="0"
     fit-margin-right="0"
     fit-margin-bottom="0"
     inkscape:window-width="1920"
     inkscape:window-height="1017"
     inkscape:window-x="-8"
     inkscape:window-y="-8"
     inkscape:window-maximized="1"
     showguides="false" />
  <metadata
     id="metadata4522">
    <rdf:RDF>
      <cc:Work
         rdf:about="">
        <dc:format>image/svg+xml</dc:format>
        <dc:type
           rdf:resource="http://purl.org/dc/dcmitype/StillImage" />
        <dc:title></dc:title>
      </cc:Work>
    </rdf:RDF>
  </metadata>
  <g
     inkscape:label="Layer 1"
     inkscape:groupmode="layer"
     id="layer1"
     transform="translate(287.85034,-55.662131)">
    <g
       aria-label="ð“€‰"
       style="font-style:normal;font-variant:normal;font-weight:normal;font-stretch:normal;font-size:50.79999924px;line-height:1.25;font-family:sans-serif;-inkscape-font-specification:sans-serif;font-variant-ligatures:normal;font-variant-caps:normal;font-variant-numeric:normal;font-feature-settings:normal;text-align:start;letter-spacing:0px;word-spacing:0px;writing-mode:lr-tb;text-anchor:start;fill:#000000;fill-opacity:1;stroke:none;stroke-width:0.26458332"
       id="text5105" />
    <g
       aria-label="ð“€†"
       transform="matrix(0.26458333,0,0,0.26458333,-199.96101,81.431167)"
       style="font-style:normal;font-variant:normal;font-weight:normal;font-stretch:normal;font-size:192px;line-height:1.25;font-family:sans-serif;-inkscape-font-specification:sans-serif;font-variant-ligatures:normal;font-variant-caps:normal;font-variant-numeric:normal;font-feature-settings:normal;text-align:start;letter-spacing:0px;word-spacing:0px;writing-mode:lr-tb;text-anchor:start;fill:#000000;fill-opacity:1;stroke:none"
       id="flowRoot5135" />
    <g
       aria-label="ð“•"
       transform="matrix(0.26458333,0,0,0.26458333,-390.48232,26.790778)"
       style="font-style:normal;font-variant:normal;font-weight:normal;font-stretch:normal;font-size:192px;line-height:1.25;font-family:sans-serif;-inkscape-font-specification:sans-serif;font-variant-ligatures:normal;font-variant-caps:normal;font-variant-numeric:normal;font-feature-settings:normal;text-align:start;letter-spacing:0px;word-spacing:0px;writing-mode:lr-tb;text-anchor:start;fill:#000000;fill-opacity:1;stroke:none"
       id="flowRoot5443" />
    <g
       aria-label="ð“§"
       transform="matrix(0.26458333,0,0,0.26458333,-298.16186,86.373062)"
       style="font-style:normal;font-variant:normal;font-weight:normal;font-stretch:normal;font-size:192px;line-height:1.25;font-family:sans-serif;-inkscape-font-specification:sans-serif;font-variant-ligatures:normal;font-variant-caps:normal;font-variant-numeric:normal;font-feature-settings:normal;text-align:start;letter-spacing:0px;word-spacing:0px;writing-mode:lr-tb;text-anchor:start;fill:#000000;fill-opacity:1;stroke:none"
       id="flowRoot5531">
      <path
         d="m 65.878906,-28.416564 q 4.125,1.125 8.53125,8.90625 4.40625,7.6875 9.65625,12.9375004 2.0625,-3.28125 3.46875,-12.6562504 1.5,-9.46875 7.125,-25.6875 -1.3125,-4.6875 -3.65625,-6.9375 -2.25,-2.25 -6.84375,-2.4375 l -0.65625,-0.375 -0.5625,-0.375 q -0.46875,-0.65625 -0.75,-1.59375 -0.28125,-1.03125 -0.28125,-1.96875 0,-0.9375 0.375,-1.59375 -0.28125,0 -0.5625,-0.09375 h -0.65625 l -1.40625,-1.78125 q 0.46875,-1.875 2.0625,-3.75 1.6875,-1.875 1.96875,-2.8125 0.375,-1.03125 0.375,-3.75 0,-3.46875 3.5625,-6.09375 3.65625,-2.71875 7.5,-2.90625 l 5.718754,-27.562496 q 0.65625,-3 2.90625,-5.0625 2.34375,-2.0625 5.34375,-2.0625 2.4375,0 3.75,1.59375 1.40625,1.59375 1.40625,3.46875 0,1.6875 -1.125,3.28125 -1.03125,1.5 -3.28125,1.96875 -0.46875,4.59375 -0.84375,9.843746 -0.375,5.15625 -0.65625,8.34375 l -1.96875,0.84375 h -1.96875 q -1.03125,0 -2.0625,0.375 -0.9375,0.375 -1.6875,1.125 l -0.937504,3.75 q 3.000004,0 5.906254,1.125 2.90625,1.03125 4.5,4.03125 l 3,-4.40625 2.53125,-0.1875 3,3.09375 -0.375,2.15625 -4.6875,3.28125 q 3.28125,3.09375 5.625,9.28125 2.4375,6.09375 2.71875,6.84375 l -1.03125,1.96875 -3.46875,1.125 v 29.15625 q 0,2.15625 -1.40625,3.1875 -1.40625,1.03125 -3.28125,1.21875 l -3,18.1875004 q -0.1875,0.93750004 -1.59375,9.65625 -1.40625,8.7187496 -1.40625,9.5624996 0,4.21875 2.34375,5.15625 2.34375,0.9375 2.34375,2.90625 -0.28125,0.28125 -0.65625,0.46875 -0.28125,0.28125 -0.46875,0.5625 l -0.46875,0.46875 H 55.378906 l -0.65625,-0.375 -0.5625,-0.375 q -0.375,-0.65625 -0.375,-1.5 0,-2.8125 4.21875,-6.75 4.3125,-4.03125 5.0625,-5.0625 0,-7.4062496 -3,-16.6874996 -3,-9.3750004 -3,-17.0625004 0,-0.84375 0.09375,-1.59375 v -1.21875 q -0.46875,-0.75 -1.21875,-2.25 -0.75,-1.59375 -1.21875,-2.25 l 0.375,-1.6875 q -1.59375,-0.1875 -2.4375,-1.5 l 2.625,-2.71875 -4.78125,-12.65625 -7.03125,4.03125 -1.5,-3 7.96875,-2.625 q -3.28125,-1.40625 -7.125,-5.90625 -3.84375,-4.5 -3.84375,-8.25 0,-3.84375 2.0625,-5.8125 2.0625,-1.96875 4.5,-1.96875 3.28125,0 5.71875,2.4375 2.4375,2.4375 2.4375,6.375 0,1.875 -0.375,4.78125 -0.375,2.90625 -1.125,7.3125 l 7.96875,-3.84375 1.5,3.09375 -8.8125,2.71875 5.90625,12.9375 2.4375,0.1875 q 1.40625,0.1875 2.625,2.0625 1.21875,1.78125 2.0625,3.375 z m 18.28125,25.0312504 q -1.96875,0 -7.40625,-7.5000004 -5.34375,-7.5 -7.5,-11.15625 -2.15625,-3.75 -5.53125,-3.75 -1.78125,0 -2.90625,0.9375 -1.03125,0.9375 -1.03125,4.3125 0,7.59375 3.09375,16.5000004 3.1875,8.8125 3.1875,17.8124996 0,1.21875 -1.21875,2.53125 -1.125,1.3125 -2.625,2.625 l -3.09375,2.71875 q -1.5,1.40625 -2.15625,2.71875 h 48.843754 q -1.03125,-1.03125 -1.59375,-2.8125 -0.46875,-1.875 -0.46875,-3.5625 0,-1.40625 2.4375,-16.8749996 2.53125,-15.5625004 3.65625,-21.8437504 -0.75,-1.21875 -1.125,-2.25 -0.28125,-1.03125 -0.28125,-2.15625 v -14.25 q 0,-0.46875 -0.375,-1.03125 -0.28125,-0.5625 -1.21875,-0.5625 -0.5625,0 -1.03125,0.375 -0.46875,0.28125 -0.46875,1.03125 v 12.5625 l -0.28125,0.9375 q -0.9375,1.21875 -2.71875,2.15625 -1.78125,0.9375 -3.093754,0.9375 -0.9375,0 -2.15625,-0.65625 -1.125,-0.75 -2.0625,-3 v -9.75 q -0.5625,1.6875 -1.125,3.75 l -2.15625,8.4375 q -0.75,2.71875 -2.625,11.8125 -1.78125,9.0000004 -4.96875,9.0000004 z m 3.09375,-70.0312504 q 2.8125,0.9375 5.4375,1.96875 2.71875,1.03125 5.15625,3.09375 1.03125,-0.65625 2.156254,-0.65625 1.59375,0 2.625,1.21875 1.03125,1.21875 1.03125,2.90625 0,2.34375 -1.96875,4.5 -1.968754,2.0625 -2.906254,6.84375 -0.9375,4.6875 -0.9375,10.3125 v 15.9375 q 0,0.28125 0.375,0.84375 0.375,0.46875 1.125,0.46875 0.750004,0 1.500004,-0.46875 0.75,-0.46875 1.5,-1.21875 v -11.71875 q 0,-2.53125 1.40625,-3.5625 1.5,-1.125 3,-1.125 1.875,0 3.1875,1.21875 1.40625,1.125 1.40625,3.1875 v 14.15625 l 0.0937,0.65625 q 0,0.75 0.375,1.5 0.46875,0.75 1.40625,0.75 l 0.75,-0.46875 q 0.375,-0.1875 0.46875,-0.65625 v -30.28125 l -2.25,-8.90625 q -1.125,-4.3125 -2.15625,-8.71875 l -1.125,-1.21875 q -2.15625,-2.4375 -3.375,-4.03125 -1.125,-1.59375 -9.281254,-1.59375 -3,0.1875 -5.15625,1.40625 -2.0625,1.21875 -3.84375,3.65625 z m 9.65625,8.34375 q -2.15625,-2.0625 -4.875,-3.46875 -2.71875,-1.5 -5.15625,-2.0625 0,0.28125 -0.09375,0.65625 0,0.28125 -0.09375,0.5625 0,0.65625 -0.46875,1.59375 -0.375,0.84375 -1.125,2.0625 l -2.0625,2.625 q 1.125,0 1.78125,0.84375 0.65625,0.75 0.65625,1.875 0,0.65625 -0.28125,1.125 -0.1875,0.375 -0.1875,0.9375 0,0.75 0.09375,0.9375 0,0.28125 0.09375,0.375 3.5625,0 6.28125,2.0625 2.8125,2.0625 4.125,4.5 1.3125,-7.96875 3.28125,-10.5 2.062504,-2.53125 2.062504,-3.75 0,-0.46875 -0.375,-0.9375 -0.28125,-0.46875 -0.843754,-0.46875 -0.46875,0 -0.9375,0.46875 l -0.28125,0.46875 z m 4.687504,-33.1875 -2.062504,9.9375 q 1.218754,-0.84375 2.812504,-1.03125 1.59375,-0.28125 3.1875,-0.28125 l 1.40625,-17.812496 0.75,-0.5625 0.65625,-0.65625 q 1.6875,0 2.25,-0.84375 0.5625,-0.84375 0.5625,-2.15625 0,-0.5625 -0.65625,-1.03125 -0.65625,-0.5625 -1.21875,-0.5625 -4.5,0 -5.8125,6 -1.21875,6 -1.875,8.999996 z m -51.656254,47.15625 q 0.375,-1.875 0.65625,-4.5 0.28125,-2.625 0.28125,-5.25 0,-2.71875 -1.59375,-4.3125 -1.5,-1.6875 -3.46875,-1.6875 -2.0625,0 -3,1.59375 -0.84375,1.59375 -0.84375,3.375 0,2.34375 2.4375,5.8125 2.53125,3.375 5.53125,4.96875 z m 9.9375,19.5 q -0.75,0 -1.78125,0.28125 -1.03125,0.1875 -1.40625,0.5625 l 1.125,0.75 -0.28125,1.78125 0.84375,1.96875 q 0.84375,-1.125 1.875,-1.59375 1.125,-0.46875 2.4375,-0.5625 -1.40625,-2.625 -1.875,-2.90625 -0.46875,-0.28125 -0.9375,-0.28125 z m 58.687504,-25.125 -2.0625,-5.4375 q -0.75,-2.0625 -1.59375,-3.9375 -0.75,-1.875 -1.03125,-2.34375 l 3.375,12.28125 z m -26.718754,-8.90625 q -2.625,1.03125 -3.75,1.03125 -1.03125,0 -1.03125,-0.75 0,-2.15625 1.78125,-2.15625 1.125,0 3,1.875 z m 22.781254,-12.28125 -2.625,3.5625 3.5625,-2.71875 z"
         id="path5539"
         inkscape:connector-curvature="0" />
    </g>
  </g>
</svg>
