<?xml version="1.0" encoding="UTF-8" standalone="no"?>
<!-- Created with Inkscape (http://www.inkscape.org/) -->

<svg
   xmlns:dc="http://purl.org/dc/elements/1.1/"
   xmlns:cc="http://creativecommons.org/ns#"
   xmlns:rdf="http://www.w3.org/1999/02/22-rdf-syntax-ns#"
   xmlns:svg="http://www.w3.org/2000/svg"
   xmlns="http://www.w3.org/2000/svg"
   xmlns:sodipodi="http://sodipodi.sourceforge.net/DTD/sodipodi-0.dtd"
   xmlns:inkscape="http://www.inkscape.org/namespaces/inkscape"
   width="98.074135mm"
   height="114.83508mm"
   viewBox="0 0 98.074135 114.83508"
   version="1.1"
   id="svg27019"
   inkscape:version="0.92.4 (5da689c313, 2019-01-14)"
   sodipodi:docname="C11.svg">
  <defs
     id="defs27013" />
  <sodipodi:namedview
     id="base"
     pagecolor="#ffffff"
     bordercolor="#666666"
     borderopacity="1.0"
     inkscape:pageopacity="0.0"
     inkscape:pageshadow="2"
     inkscape:zoom="0.35"
     inkscape:cx="-350.2409"
     inkscape:cy="-104.78251"
     inkscape:document-units="mm"
     inkscape:current-layer="layer1"
     showgrid="false"
     fit-margin-top="0"
     fit-margin-left="0"
     fit-margin-right="0"
     fit-margin-bottom="0"
     inkscape:window-width="1920"
     inkscape:window-height="1017"
     inkscape:window-x="-8"
     inkscape:window-y="-8"
     inkscape:window-maximized="1" />
  <metadata
     id="metadata27016">
    <rdf:RDF>
      <cc:Work
         rdf:about="">
        <dc:format>image/svg+xml</dc:format>
        <dc:type
           rdf:resource="http://purl.org/dc/dcmitype/StillImage" />
        <dc:title></dc:title>
      </cc:Work>
    </rdf:RDF>
  </metadata>
  <g
     inkscape:label="Layer 1"
     inkscape:groupmode="layer"
     id="layer1"
     transform="translate(-5.3554045,-6.2745552)">
    <g
       aria-label="ð“¨"
       transform="matrix(0.80533033,0,0,0.80533033,52.201407,-49.638837)"
       style="font-style:normal;font-variant:normal;font-weight:normal;font-stretch:normal;font-size:192px;line-height:1.25;font-family:sans-serif;-inkscape-font-specification:'sans-serif, Normal';font-variant-ligatures:normal;font-variant-caps:normal;font-variant-numeric:normal;font-feature-settings:normal;text-align:start;letter-spacing:0px;word-spacing:0px;writing-mode:lr-tb;text-anchor:start;fill:#000000;fill-opacity:1;stroke:none"
       id="flowRoot27564">
      <path
         d="m -2.5761719,80.58539 v -7.5 q 0,-1.6875 1.03125,-2.625 1.12500002,-1.03125 3.46875,-1.03125 1.6875,0 2.625,1.5 1.03125,1.5 1.40625,2.625 -2.25,-1.125 -3.5625,-1.125 -1.96874997,0 -1.96874997,2.53125 v 19.21875 q 5.43749997,0.5625 9.18749997,3.65625 3.8437499,3.09375 4.9687499,6.84375 1.125,3.75 1.125,15.09375 v 6.1875 q 6.46875,0 13.03125,0.1875 6.5625,0.1875 13.03125,1.125 2.25,-8.25 4.21875,-16.5 1.96875,-8.34375 4.40625,-16.59375 l -0.75,-3.375 q -0.5625,-2.15625 -0.5625,-4.21875 0,-1.3125 0.375,-2.4375 0.375,-1.125 1.40625,-1.6875 l 1.40625,0.1875 q 0.65625,0.375 1.125,1.40625 0.46875,0.9375 0.75,1.6875 0.84375,-2.625 2.15625,-4.21875 1.40625,-1.59375 3,-1.59375 1.875,0 3.09375,1.59375 1.21875,1.5 1.21875,3.375 0,1.125 -0.65625,2.34375 -0.65625,1.21875 -1.59375,2.4375 l -1.875,2.53125 q -0.9375,1.3125 -1.59375,2.53125 l -0.65625,4.21875 -2.25,11.53125 q -1.03125,4.59375 -1.875,9.1875 -0.75,4.5 -1.875,9 l -0.46875,2.4375 q -0.46875,1.78125 -1.59375,2.90625 -1.125,1.03125 -3.28125,1.03125 h -22.3125 q -3.84375,1.96875 -5.8125,7.6875 -1.875,5.625 -2.0625,6.1875 v 32.8125 l 0.1875,6.9375 v 4.03125 q 0,1.6875 -0.09375,3.09375 -0.09375,1.40625 -0.5625,2.71875 2.15625,0 3.09375,1.03125 1.03125,1.03125 1.03125,2.4375 1.40625,1.3125 3.46875,2.25 2.15625,0.9375 5.4375,1.875 l 4.59375,1.21875 q 0.84375,0.28125 1.5,0.84375 l 0.28125,0.9375 q 0,0.75 -0.375,1.3125 -0.28125,0.5625 -0.75,1.03125 -0.9375,0.375 -1.3125,0.5625 -2.0625,0 -3.46875,-0.0937 -1.40625,-0.0937 -3.28125,-0.5625 l -0.5625,-0.0937 q -0.46875,0 -1.03125,-0.28125 l -1.40625,-0.375 h -77.90625 q -0.28125,-0.28125 -0.5625,-0.65625 l -0.84375,-1.125 q 0.5625,-1.96875 4.03125,-3.46875 3.46875,-1.59375 8.25,-2.15625 0.1875,-2.15625 1.21875,-4.03125 1.125,-1.96875 2.8125,-3 l -2.15625,-9.1875 q -4.59375,-18.9375 -4.875,-20.8125 -0.1875,-1.875 -0.1875,-3.9375 0,-4.40625 1.78125,-6.9375 1.875,-2.53125 5.25,-2.53125 3.09375,0 5.53125,1.96875 2.53125,1.875 6.9375,5.71875 4.40625,3.75 13.40625,13.78125 l 4.78125,5.4375 q 0,-4.875 -0.09375,-8.4375 l -0.1875,-6 -0.375,-8.0625 q -0.5625,-9.84375 -2.625,-16.03125 -2.0625,-6.1875 -6.75,-6.1875 l -4.3125,6.09375 q -1.6875,1.125 -2.8125,1.125 -1.96875,0 -1.96875,-2.25 0,-0.75 0.84375,-0.75 0.84375,0 1.6875,0.375 l 3.28125,-4.3125 q -1.5,0.1875 -4.59375,0.46875 -3.09375,0.28125 -6.375,0.28125 -6.5625,0 -9.28125,-1.3125 -2.625,-1.40625 -2.625,-2.4375 0,-1.125 -0.46875,-2.53125 l -1.125,-6.65625 q -0.1875,-0.84375 -3,-14.8125 -2.71875,-13.96875 -3.84375,-15.9375 l -1.40625,-2.53125 q -0.75,-1.21875 -1.40625,-2.53125 -0.5625,-1.40625 -0.65625,-3 0,-1.6875 0.84375,-2.53125 0.9375,-0.9375 2.25,-0.9375 1.78125,0 3.09375,1.21875 1.40625,1.125 2.15625,2.8125 0.375,-1.03125 0.9375,-1.78125 0.5625,-0.84375 1.59375,-0.84375 1.3125,0 1.875,1.3125 0.5625,1.3125 0.5625,3.28125 0,1.875 -0.46875,3.84375 -0.375,1.875 -0.84375,3.5625 l 8.53125,33 q 4.59375,-0.9375 9.28125,-1.03125 4.6875,-0.1875 9.46875,-0.1875 h 2.25 l 1.40625,-2.0625 -0.375,-0.5625 q -0.28125,-0.28125 -0.46875,-0.65625 v -3.9375 q -0.1875,-0.28125 -0.65625,-0.375 h -0.9375 l -1.40625,-1.78125 q 0,-2.0625 1.5,-5.0625 1.5,-3 1.5,-5.4375 0.5625,-6.75 4.21875,-9.375 3.6562501,-2.71875 9.2812501,-2.71875 v -8.8125 l -3,-3.09375 z m -10.6875001,27.28125 q -0.46875,2.25 -1.59375,4.03125 -1.03125,1.78125 -1.125,3.65625 2.4375,0.46875 3,2.8125 l -0.09375,1.875 v 1.21875 h 1.5 q 3.8437501,0 5.5312501,0.84375 1.78125,0.84375 1.78125,2.4375 0,2.625 -2.15625,3.375 -2.0625,0.65625 -6.4687501,0.75 l -2.8125,0.0937 -2.53125,3.46875 1.59375,0.375 q 4.3125,1.875 6.5625,8.90625 2.3437501,6.9375 2.9062501,27.9375 l 0.1875,6.5625 v 5.625 l 2.25,-1.125 q 1.125,-0.5625 2.25,-1.21875 l 3.84375,-1.96875 q 3.5625,-1.78125 6.5625,-3.84375 3.0937499,-2.0625 4.7812499,-4.3125 v -21 q 2.15625,-7.59375 4.96875,-11.90625 2.8125,-4.40625 5.4375,-4.40625 h 22.78125 q 0.46875,0 0.75,-0.0937 0.375,-0.0937 0.9375,-0.5625 l 2.34375,-10.78125 q 1.59375,-7.40625 2.4375,-12.28125 0.84375,-4.96875 1.21875,-6.9375 l 0.75,-4.125 q 0.28125,-1.78125 0.28125,-1.96875 l 0.28125,-1.03125 q 0.1875,-1.03125 3,-4.6875 2.8125,-3.65625 2.8125,-4.78125 0,-0.65625 -0.375,-1.125 -0.375,-0.46875 -1.125,-0.46875 -1.21875,0 -4.03125,5.8125 l -1.5,0.1875 q -0.1875,-0.65625 -0.65625,-1.59375 -0.46875,-0.9375 -1.03125,-1.78125 0,0.375 -0.09375,1.03125 0,1.875 0.75,3.75 0.75,1.875 0.75,3.46875 -0.46875,3.28125 -1.40625,6.375 -0.84375,3 -1.59375,5.8125 l -3,11.625 q -1.5,5.71875 -3.09375,11.53125 l -1.5,1.03125 q -7.03125,-1.03125 -14.15625,-1.21875 -7.03125,-0.28125 -14.0625,-0.28125 -2.15625,0.46875 -3.65625,1.03125 -1.4062499,0.5625 -2.1562499,2.71875 0,1.03125 0.09375,2.0625 0.1875,1.03125 0.1875,1.5 0,3 -2.4375,4.6875 -2.34375,1.59375 -6.09374998,1.59375 l -1.40625,-1.78125 v -28.125 q 0,-1.03125 0.37500001,-1.875 0.375,-0.84375 0.84375,-1.6875 l 0.74999997,-1.5 q 0.375,-0.65625 0.375,-1.3125 0,-0.1875 -0.1875,-0.375 -0.1875,-0.28125 -0.65624998,-0.28125 -0.46875,0 -0.65624999,0.28125 -0.18750001,0.28125 -0.18750001,0.46875 -0.46874999,0.375 -0.84375002,0.75 l -0.75,0.75 z m -17.90625,87.9375 q 1.5,5.34375 3.5625,6.375 2.0625,0.9375 4.21875,0.9375 H 3.5175781 q 3.9375,0 6.6562499,-2.90625 2.8125,-2.90625 2.8125,-6.5625 v -1.5 q 0,-0.65625 -0.09375,-1.875 -0.09375,-1.3125 -0.09375,-6.1875 0,-3.84375 -0.09375,-10.59375 -6.4687499,4.78125 -14.7187499,9.09375 -8.2500001,4.3125 -17.8125001,8.34375 z m -5.90625,-26.71875 5.25,23.625 q 5.4375,-2.15625 10.6875,-4.40625 5.34375,-2.25 10.6875,-4.78125 l -8.90625,-9.75 q -4.5,-4.875 -9.09375,-9.65625 l -5.4375,3.09375 z m 24.09375,-64.21875 h 9.9375001 q 0.46875,-1.125 1.59375,-1.6875 1.12500002,-0.65625 2.34375003,-0.65625 1.59374997,0 2.53124997,1.21875 1.03125,1.125 1.03125,2.71875 0,1.6875 -0.84375,3.1875 -0.84375,1.40625 -1.5,3 v 26.8125 q 1.6875,-0.1875 2.71875,-0.75 1.03125,-0.5625 1.03125,-2.71875 v -2.8125 q 0,-3.28125 1.96875,-4.6875 2.0625,-1.5 4.8749999,-2.15625 v -6.28125 q 0,-2.90625 -0.09375,-6.46875 0,-10.40625 -4.7812499,-13.5 -4.78125,-3.09375 -10.59375,-3.09375 -3.84375,0 -6.75,1.78125 -2.9062501,1.6875 -3.4687501,6.09375 z m 26.4375,96.65625 q -2.15625,2.15625 -5.0624999,3.375 -2.8125,1.21875 -4.875,1.21875 H -23.669922 q -2.34375,0 -4.96875,-1.3125 -2.625,-1.3125 -3.46875,-2.71875 -0.84375,-1.5 -1.78125,-5.25 l -2.625,0.75 q -2.71875,0.75 -4.03125,2.71875 -1.21875,1.875 -1.21875,3.9375 0,1.3125 0.5625,2.34375 0.65625,1.03125 1.6875,1.03125 h 60.1875 q 0.75,0 1.875,0.28125 l 1.78125,0.5625 q 0.46875,0.1875 1.875,0.46875 1.5,0.1875 3.9375,0.375 l -3.375,-1.125 q -2.90625,-0.84375 -5.90625,-2.0625 -2.90625,-1.3125 -4.03125,-2.4375 0,-0.28125 -0.09375,-0.65625 0,-0.5625 -0.375,-1.03125 -0.375,-0.46875 -1.3125,-0.46875 z m -52.78125,-34.59375 q 1.59375,-0.84375 3.1875,-1.78125 l 5.4375,-3.09375 -2.34375,-1.6875 q -1.125,-0.75 -3.375,-2.71875 -2.25,-2.0625 -4.5,-2.0625 -2.15625,0 -2.90625,1.96875 -0.75,1.96875 -0.75,4.5 0,0.9375 0.1875,2.8125 0.28125,1.78125 0.75,3.9375 l 0.84375,4.40625 q 0.375,2.0625 1.03125,4.875 0.75,2.71875 1.96875,7.96875 l 1.96875,8.90625 q 0.75,-0.375 1.59375,-0.65625 l 1.5,-0.5625 q -0.75,-3.1875 -1.6875,-7.5 l -3.84375,-17.625 z m 18.28125,-34.78125 2.34375,-3.1875 q -5.0625,0 -10.03125,0.28125 -4.875,0.1875 -9.65625,1.21875 -1.03125,-0.75 -1.875,-1.21875 -2.15625,-8.8125 -4.59375,-17.34375 -2.4375,-8.625 -4.40625,-17.4375 v -0.46875 q 0,-0.65625 0.28125,-1.59375 l 0.65625,-1.875 q 0.28125,-0.9375 0.5625,-1.96875 0.28125,-1.125 0.28125,-2.15625 v -1.03125 q 0,-0.46875 -0.1875,-0.46875 -0.1875,0.1875 -0.375,0.84375 -0.1875,0.5625 -0.28125,1.3125 l -0.28125,1.5 q -0.1875,0.75 -0.1875,1.125 l -1.78125,0.75 q -0.28125,-0.5625 -1.78125,-3.65625 -1.40625,-3.1875 -2.625,-3.1875 -0.28125,0.28125 -0.28125,0.75 0,0.65625 0.375,1.3125 l 0.46875,1.03125 q 1.21875,2.53125 2.71875,4.875 1.59375,2.25 8.25,39.65625 1.3125,1.03125 3,1.40625 1.78125,0.375 3.84375,0.375 3,0 6.46875,-0.46875 3.5625,-0.46875 7.78125,-0.46875 0.84375,0 1.3125,0.0937 z m 13.6875001,-7.03125 q -1.03125,-0.5625 -2.4375,-0.65625 -1.4062501,-0.0937 -2.7187501,-0.0937 l -1.03125,1.59375 q 1.78125,0 3.46875,-0.1875 1.6875001,-0.1875 2.7187501,-0.65625 z m -37.3125001,81.09375 q -1.3125,0.1875 -2.625,0.65625 -1.21875,0.375 -2.53125,0.75 h 5.71875 q -0.1875,-0.28125 -0.28125,-0.65625 -0.09375,-0.375 -0.28125,-0.75 z m 36.1875001,-95.34375 q -1.40625,0.46875 -2.1562501,0.46875 -1.21875,0 -1.21875,-1.03125 0,-0.75 0.65625,-0.75 0.65625,0 2.7187501,1.3125 z"
         id="path27572"
         inkscape:connector-curvature="0" />
    </g>
  </g>
</svg>
