<?xml version="1.0" encoding="UTF-8" standalone="no"?>
<!-- Created with Inkscape (http://www.inkscape.org/) -->

<svg
   xmlns:dc="http://purl.org/dc/elements/1.1/"
   xmlns:cc="http://creativecommons.org/ns#"
   xmlns:rdf="http://www.w3.org/1999/02/22-rdf-syntax-ns#"
   xmlns:svg="http://www.w3.org/2000/svg"
   xmlns="http://www.w3.org/2000/svg"
   xmlns:sodipodi="http://sodipodi.sourceforge.net/DTD/sodipodi-0.dtd"
   xmlns:inkscape="http://www.inkscape.org/namespaces/inkscape"
   width="21.158411mm"
   height="38.000782mm"
   viewBox="0 0 21.158411 38.000781"
   version="1.1"
   id="svg4525"
   inkscape:version="0.92.4 (5da689c313, 2019-01-14)"
   sodipodi:docname="C15.svg">
  <defs
     id="defs4519" />
  <sodipodi:namedview
     id="base"
     pagecolor="#ffffff"
     bordercolor="#666666"
     borderopacity="1.0"
     inkscape:pageopacity="0.0"
     inkscape:pageshadow="2"
     inkscape:zoom="0.35"
     inkscape:cx="837.13364"
     inkscape:cy="-141.08545"
     inkscape:document-units="mm"
     inkscape:current-layer="layer1"
     showgrid="false"
     fit-margin-top="0"
     fit-margin-left="0"
     fit-margin-right="0"
     fit-margin-bottom="0"
     inkscape:window-width="1920"
     inkscape:window-height="1017"
     inkscape:window-x="-8"
     inkscape:window-y="-8"
     inkscape:window-maximized="1"
     showguides="false" />
  <metadata
     id="metadata4522">
    <rdf:RDF>
      <cc:Work
         rdf:about="">
        <dc:format>image/svg+xml</dc:format>
        <dc:type
           rdf:resource="http://purl.org/dc/dcmitype/StillImage" />
        <dc:title></dc:title>
      </cc:Work>
    </rdf:RDF>
  </metadata>
  <g
     inkscape:label="Layer 1"
     inkscape:groupmode="layer"
     id="layer1"
     transform="translate(308.8041,-73.503683)">
    <g
       aria-label="ð“€‰"
       style="font-style:normal;font-variant:normal;font-weight:normal;font-stretch:normal;font-size:50.79999924px;line-height:1.25;font-family:sans-serif;-inkscape-font-specification:sans-serif;font-variant-ligatures:normal;font-variant-caps:normal;font-variant-numeric:normal;font-feature-settings:normal;text-align:start;letter-spacing:0px;word-spacing:0px;writing-mode:lr-tb;text-anchor:start;fill:#000000;fill-opacity:1;stroke:none;stroke-width:0.26458332"
       id="text5105" />
    <g
       aria-label="ð“€†"
       transform="matrix(0.26458333,0,0,0.26458333,-199.96101,81.431167)"
       style="font-style:normal;font-variant:normal;font-weight:normal;font-stretch:normal;font-size:192px;line-height:1.25;font-family:sans-serif;-inkscape-font-specification:sans-serif;font-variant-ligatures:normal;font-variant-caps:normal;font-variant-numeric:normal;font-feature-settings:normal;text-align:start;letter-spacing:0px;word-spacing:0px;writing-mode:lr-tb;text-anchor:start;fill:#000000;fill-opacity:1;stroke:none"
       id="flowRoot5135" />
    <g
       aria-label="ð“•"
       transform="matrix(0.26458333,0,0,0.26458333,-390.48232,26.790778)"
       style="font-style:normal;font-variant:normal;font-weight:normal;font-stretch:normal;font-size:192px;line-height:1.25;font-family:sans-serif;-inkscape-font-specification:sans-serif;font-variant-ligatures:normal;font-variant-caps:normal;font-variant-numeric:normal;font-feature-settings:normal;text-align:start;letter-spacing:0px;word-spacing:0px;writing-mode:lr-tb;text-anchor:start;fill:#000000;fill-opacity:1;stroke:none"
       id="flowRoot5443" />
    <g
       aria-label="ð“«"
       transform="matrix(-0.26458333,0,0,0.26458333,-248.60777,-63.953969)"
       style="font-style:normal;font-variant:normal;font-weight:normal;font-stretch:normal;font-size:192px;line-height:1.25;font-family:sans-serif;-inkscape-font-specification:sans-serif;font-variant-ligatures:normal;font-variant-caps:normal;font-variant-numeric:normal;font-feature-settings:normal;text-align:start;letter-spacing:0px;word-spacing:0px;writing-mode:lr-tb;text-anchor:start;fill:#000000;fill-opacity:1;stroke:none"
       id="flowRoot5553">
      <path
         d="m 157.57617,614.02484 q -0.28125,-0.65625 -0.28125,-1.3125 0,-1.21875 0.65625,-2.4375 -1.59375,0 -3.1875,-0.84375 -1.5,-0.9375 -1.5,-1.5 0,-0.75 3.1875,-0.75 h 0.75 q -0.28125,-4.875 -3.65625,-6.46875 -3.28125,-1.6875 -3.28125,-2.90625 0,-0.5625 1.125,-1.3125 1.21875,-0.75 3.46875,-1.59375 l -0.75,-3.09375 -5.15625,1.59375 q -0.84375,-2.25 -1.125,-3.9375 -0.28125,-1.6875 -0.28125,-3.5625 0,-6.09375 2.625,-10.3125 2.71875,-4.21875 6.46875,-7.3125 l 1.6875,0.1875 q -0.46875,0.46875 -1.78125,5.34375 -1.3125,4.875 -1.3125,8.15625 0,3.375 0.84375,7.875 0.84375,4.5 1.125,4.5 0.84375,-0.1875 1.6875,-0.46875 l 1.59375,-0.375 q 0.75,-0.1875 1.40625,-0.1875 1.21875,0 1.21875,0.75 0,1.125 -1.96875,3.75 -1.875,2.625 -1.875,9.375 h 0.1875 q 2.8125,0 3.9375,2.625 1.21875,2.625 2.0625,3.65625 0.375,0 0.75,-0.0937 0.28125,0 0.75,-0.0937 0.375,0.1875 1.3125,0.5625 0.75,1.125 6.28125,10.03125 5.625,8.90625 7.78125,8.90625 0.75,-1.6875 0.9375,-3.5625 0.28125,-1.875 0.28125,-3.75 0,-1.875 -0.1875,-3.9375 -0.1875,-2.0625 -0.1875,-4.78125 0,-4.59375 1.03125,-9.28125 1.125,-4.6875 4.03125,-8.25 0,-2.15625 -0.75,-4.21875 -0.75,-2.15625 -2.90625,-2.90625 l -2.625,5.15625 q -2.4375,4.6875 -4.78125,5.71875 -2.34375,0.9375 -3.28125,0.9375 -1.125,0 -1.21875,-0.84375 l -0.0937,-0.46875 q 0,-1.40625 2.0625,-1.40625 3.1875,-1.125 4.78125,-4.59375 1.59375,-3.46875 2.15625,-4.6875 -1.03125,-0.28125 -1.5,-1.125 -0.375,-0.9375 -0.375,-3.09375 l -0.65625,-0.0937 q -0.28125,-0.28125 -0.5625,-0.65625 l -0.84375,-1.125 q 0,-1.875 1.40625,-4.3125 1.40625,-2.4375 1.59375,-6.1875 v -11.625 l 0.1875,-1.03125 7.40625,-14.71875 q 1.125,-2.34375 3.46875,-6.9375 2.34375,-4.6875 3,-6 l 5.8125,-11.625 q 0.65625,-1.5 3.28125,-2.625 2.71875,-1.21875 5.625,-1.21875 2.0625,0 3.5625,0.84375 1.59375,0.75 1.875,2.625 3,-1.875 6,-1.875 2.71875,0 4.6875,1.78125 1.96875,1.78125 1.96875,5.71875 -2.4375,6.9375 -4.875,14.15625 l -4.78125,13.6875 q -2.625,7.5 -5.15625,14.53125 5.71875,0.46875 5.71875,4.5 v 87.65625 h -3 v -84.65625 q 0,-3.84375 -3.84375,-4.40625 l -8.15625,22.6875 q 1.03125,4.21875 1.40625,8.625 0.375,4.3125 0.375,8.8125 0,4.03125 -0.1875,7.96875 l -0.375,7.96875 q -0.1875,5.25 -0.5625,10.40625 -0.28125,5.0625 -0.75,10.3125 0.5625,1.78125 2.0625,2.53125 l 3.09375,1.6875 q 1.6875,0.9375 2.8125,2.34375 1.125,1.40625 1.125,4.21875 -0.46875,0.375 -0.84375,0.75 l -0.75,0.75 h -49.875 q -1.5,0 -2.8125,-1.125 -1.21875,-1.03125 -1.21875,-2.53125 0,-2.15625 2.625,-4.6875 2.71875,-2.53125 2.90625,-2.71875 -0.46875,-2.71875 -0.46875,-3.84375 0,-1.21875 -2.0625,-7.59375 -1.96875,-6.375 -2.8125,-9.9375 -0.75,-3.5625 -0.75,-6.65625 0,-2.25 0.46875,-4.21875 0.5625,-1.96875 1.875,-3.375 z m 41.34375,-14.53125 q -8.4375,1.40625 -10.5,5.0625 -2.0625,3.65625 -2.34375,13.21875 l 0.46875,8.625 q 0,3.75 -1.125,6.75 -1.125,3 -3.1875,3 -3.28125,0 -9.5625,-9.75 -6.28125,-9.75 -6.46875,-10.125 -3.9375,0.1875 -5.4375,2.53125 -1.5,2.25 -1.5,5.4375 0,4.6875 2.53125,12 2.625,7.3125 3.75,16.3125 l -0.28125,0.9375 -1.125,1.03125 -1.875,1.59375 q -1.03125,0.9375 -1.78125,1.78125 -0.75,0.84375 -0.75,1.21875 0,0.75 1.6875,0.9375 1.6875,0.0937 3.28125,0.0937 h 44.53125 q -0.375,-1.21875 -1.78125,-2.25 l -3.09375,-2.0625 q -1.59375,-1.125 -2.90625,-2.4375 -1.21875,-1.40625 -1.21875,-3.46875 0,-1.59375 0.28125,-3.09375 0.28125,-1.5 0.28125,-1.96875 l 0.5625,-7.875 q 0,-0.46875 0.375,-7.59375 0.375,-7.125 0.375,-13.875 0,-1.78125 -0.0937,-3.9375 l -0.1875,-4.3125 q -0.1875,-2.15625 -0.5625,-4.21875 -0.28125,-2.15625 -0.65625,-3.9375 z m -5.15625,-56.0625 -9.1875,18.46875 h 13.21875 q 3.28125,-8.90625 6.65625,-17.71875 l 6.65625,-17.8125 q 0.75,-1.96875 0.75,-2.71875 0,-0.84375 -0.65625,-1.03125 -0.65625,-0.28125 -1.96875,-0.28125 -1.78125,0 -3.46875,0.84375 -1.59375,0.84375 -2.71875,1.875 z m 7.21875,18.46875 h 11.8125 q 2.90625,-8.0625 6.46875,-18.375 3.5625,-10.40625 5.25,-15.09375 -0.1875,-2.4375 -1.21875,-3.375 -0.9375,-1.03125 -2.25,-1.03125 -1.78125,0 -3.84375,1.3125 -1.96875,1.21875 -3.46875,2.625 z m 10.78125,3 h -28.125 v 9 l 8.25,1.125 q 0.46875,-1.03125 1.5,-1.96875 1.125,-0.9375 2.4375,-0.9375 1.40625,0 2.15625,1.3125 0.84375,1.21875 0.84375,2.8125 0,1.59375 -0.9375,3.1875 -0.9375,1.5 -2.25,2.0625 v 1.21875 q 0,2.8125 2.4375,5.4375 2.4375,2.625 3.65625,4.40625 z m -26.625,24.1875 q 3,0.65625 4.3125,3.28125 1.40625,2.53125 1.6875,5.15625 2.15625,-0.5625 4.5,-0.65625 2.34375,-0.0937 4.5,-0.84375 -0.75,-1.875 -2.0625,-3.46875 l -2.53125,-3 q -1.21875,-1.5 -2.15625,-3.09375 -0.84375,-1.59375 -0.84375,-3.65625 l 0.1875,-1.96875 q 0.1875,-0.46875 0.46875,-0.84375 l 0.46875,-0.84375 q 0.75,-0.28125 1.5,-0.75 0.75,-0.5625 0.75,-1.40625 0,-0.46875 -0.0937,-0.84375 0,-0.28125 -0.0937,-0.5625 0,-0.28125 -0.1875,-0.28125 -0.46875,0 -0.84375,0.65625 -0.28125,0.65625 -0.5625,1.125 l -1.5,1.03125 -9.09375,-1.21875 v 0.84375 q 0,1.6875 -1.21875,3.65625 -1.125,1.96875 -1.5,3.46875 1.3125,0.46875 1.40625,1.6875 0.0937,1.21875 0.46875,2.53125 z m 2.53125,-8.15625 q -1.875,1.875 -2.71875,1.875 -0.75,0 -0.75,-1.3125 0,-1.59375 1.125,-1.59375 0.75,0 2.34375,1.03125 z m -27.5625,31.875 0.9375,2.0625 1.6875,-0.75 -1.125,-2.34375 -1.21875,-1.3125 z m -6.65625,-23.8125 q -0.28125,-1.875 -0.46875,-3.5625 -0.1875,-1.6875 -0.1875,-3.28125 0,-1.875 0.28125,-3.65625 0.28125,-1.875 0.84375,-3.9375 -1.40625,1.59375 -2.625,4.5 -1.21875,2.8125 -1.21875,6.75 0,2.0625 0.375,3.9375 z"
         id="path5561"
         inkscape:connector-curvature="0" />
    </g>
  </g>
</svg>
