<?xml version="1.0" encoding="UTF-8" standalone="no"?>
<!-- Created with Inkscape (http://www.inkscape.org/) -->

<svg
   xmlns:dc="http://purl.org/dc/elements/1.1/"
   xmlns:cc="http://creativecommons.org/ns#"
   xmlns:rdf="http://www.w3.org/1999/02/22-rdf-syntax-ns#"
   xmlns:svg="http://www.w3.org/2000/svg"
   xmlns="http://www.w3.org/2000/svg"
   xmlns:sodipodi="http://sodipodi.sourceforge.net/DTD/sodipodi-0.dtd"
   xmlns:inkscape="http://www.inkscape.org/namespaces/inkscape"
   width="24.25901mm"
   height="38.025585mm"
   viewBox="0 0 24.25901 38.025584"
   version="1.1"
   id="svg4525"
   inkscape:version="0.92.4 (5da689c313, 2019-01-14)"
   sodipodi:docname="C16.svg">
  <defs
     id="defs4519" />
  <sodipodi:namedview
     id="base"
     pagecolor="#ffffff"
     bordercolor="#666666"
     borderopacity="1.0"
     inkscape:pageopacity="0.0"
     inkscape:pageshadow="2"
     inkscape:zoom="0.35"
     inkscape:cx="1161.0184"
     inkscape:cy="-198.70319"
     inkscape:document-units="mm"
     inkscape:current-layer="layer1"
     showgrid="false"
     fit-margin-top="0"
     fit-margin-left="0"
     fit-margin-right="0"
     fit-margin-bottom="0"
     inkscape:window-width="1920"
     inkscape:window-height="1017"
     inkscape:window-x="-8"
     inkscape:window-y="-8"
     inkscape:window-maximized="1"
     showguides="false" />
  <metadata
     id="metadata4522">
    <rdf:RDF>
      <cc:Work
         rdf:about="">
        <dc:format>image/svg+xml</dc:format>
        <dc:type
           rdf:resource="http://purl.org/dc/dcmitype/StillImage" />
        <dc:title></dc:title>
      </cc:Work>
    </rdf:RDF>
  </metadata>
  <g
     inkscape:label="Layer 1"
     inkscape:groupmode="layer"
     id="layer1"
     transform="translate(394.49861,-58.234186)">
    <g
       aria-label="ð“€‰"
       style="font-style:normal;font-variant:normal;font-weight:normal;font-stretch:normal;font-size:50.79999924px;line-height:1.25;font-family:sans-serif;-inkscape-font-specification:sans-serif;font-variant-ligatures:normal;font-variant-caps:normal;font-variant-numeric:normal;font-feature-settings:normal;text-align:start;letter-spacing:0px;word-spacing:0px;writing-mode:lr-tb;text-anchor:start;fill:#000000;fill-opacity:1;stroke:none;stroke-width:0.26458332"
       id="text5105" />
    <g
       aria-label="ð“€†"
       transform="matrix(0.26458333,0,0,0.26458333,-199.96101,81.431167)"
       style="font-style:normal;font-variant:normal;font-weight:normal;font-stretch:normal;font-size:192px;line-height:1.25;font-family:sans-serif;-inkscape-font-specification:sans-serif;font-variant-ligatures:normal;font-variant-caps:normal;font-variant-numeric:normal;font-feature-settings:normal;text-align:start;letter-spacing:0px;word-spacing:0px;writing-mode:lr-tb;text-anchor:start;fill:#000000;fill-opacity:1;stroke:none"
       id="flowRoot5135" />
    <g
       aria-label="ð“•"
       transform="matrix(0.26458333,0,0,0.26458333,-390.48232,26.790778)"
       style="font-style:normal;font-variant:normal;font-weight:normal;font-stretch:normal;font-size:192px;line-height:1.25;font-family:sans-serif;-inkscape-font-specification:sans-serif;font-variant-ligatures:normal;font-variant-caps:normal;font-variant-numeric:normal;font-feature-settings:normal;text-align:start;letter-spacing:0px;word-spacing:0px;writing-mode:lr-tb;text-anchor:start;fill:#000000;fill-opacity:1;stroke:none"
       id="flowRoot5443" />
    <g
       aria-label="ð“«"
       transform="matrix(-0.26458333,0,0,0.26458333,-248.60777,-63.953969)"
       style="font-style:normal;font-variant:normal;font-weight:normal;font-stretch:normal;font-size:192px;line-height:1.25;font-family:sans-serif;-inkscape-font-specification:sans-serif;font-variant-ligatures:normal;font-variant-caps:normal;font-variant-numeric:normal;font-feature-settings:normal;text-align:start;letter-spacing:0px;word-spacing:0px;writing-mode:lr-tb;text-anchor:start;fill:#000000;fill-opacity:1;stroke:none"
       id="flowRoot5553" />
    <g
       aria-label="ð“­"
       transform="matrix(0.26458333,0,0,0.26458333,-308.8041,73.503683)"
       style="font-style:normal;font-variant:normal;font-weight:normal;font-stretch:normal;font-size:192px;line-height:1.25;font-family:sans-serif;-inkscape-font-specification:sans-serif;font-variant-ligatures:normal;font-variant-caps:normal;font-variant-numeric:normal;font-feature-settings:normal;text-align:start;letter-spacing:0px;word-spacing:0px;writing-mode:lr-tb;text-anchor:start;fill:#000000;fill-opacity:1;stroke:none"
       id="flowRoot5564">
      <path
         d="m -250.94727,-22.836485 q -2.0625,8.8125 -4.96875,17.7187496 -2.8125,8.8125 -5.90625,14.8125 -3,5.9062504 -3,17.2500004 0,5.25 0.5625,11.8125 0.5625,6.5625 0.5625,13.125 0,5.8125 -0.46875,11.4375 -0.46875,5.53125 -0.75,8.625 -0.1875,3 4.5,5.0625 4.78125,1.96875 4.78125,5.90625 v 0.75 l -0.1875,0.84375 q -0.46875,0.375 -0.84375,0.75 l -0.75,0.75 h -52.96875 q -1.3125,0 -2.53125,-1.03125 -1.21875,-1.03125 -1.21875,-2.34375 0,-2.0625 2.71875,-4.59375 2.71875,-2.53125 2.71875,-3.9375 0,-7.78125 -3.09375,-16.96875 -3.09375,-9.1875 -3.09375,-13.96875 0,-4.21875 1.21875,-7.125 1.21875,-2.90625 3.375,-4.03125 l -3.9375,-8.90625 -4.21875,2.4375 -1.5,-3 4.875,-1.3125 q -4.125,-1.78125 -6.46875,-4.59375 -2.34375,-2.8125 -2.34375,-6.1875 0,-2.7187504 1.59375,-4.5000004 1.6875,-1.78125 4.125,-1.78125 3,0 5.0625,1.96875 2.15625,1.96875 2.15625,6.2812504 0,1.875 -0.5625,4.3125 -0.5625,2.4375 -1.03125,3.75 l 4.6875,-2.53125 1.5,3.09375 -5.53125,1.40625 4.78125,8.8125 q 3,0.375 7.21875,6.65625 4.3125,6.28125 4.96875,7.125 l 5.25,7.6875 q 0.9375,1.40625 1.21875,1.5 1.5,-0.375 2.0625,-2.4375 0.65625,-2.15625 0.65625,-8.625 0,-10.5 1.3125,-16.03125 1.3125,-5.625 4.40625,-9.65625 -0.375,-4.21875 -1.5,-5.90625 -1.03125,-1.7812504 -2.8125,-2.1562504 l -3.65625,8.3437504 h -5.25 q 1.875,-3.28125 3.09375,-5.53125 l 1.78125,-3.4687504 -0.375,-0.75 q -0.1875,-0.28125 -0.375,-0.75 0,-1.03125 0.1875,-1.96875 0.1875,-1.03125 0.46875,-2.0625 -0.46875,0 -0.75,-0.09375 h -0.75 q -0.375,-0.5625 -0.65625,-1.125 l -0.5625,-1.12500004 q 2.25,-3.46874996 3,-5.62499996 0.84375,-2.25 0.84375,-4.21875 0,-1.4062496 -0.1875,-3.5624996 -0.0937,-2.15625 -0.0937,-5.8125 l 1.40625,-1.78125 2.4375,0.09375 q 1.125,0 2.15625,0.28125 0.84375,-1.21875 1.875,-2.25 l 1.96875,-2.0625 q -6.375,-4.5 -10.3125,-10.40625 -3.9375,-6 -3.9375,-11.4375 0,-3.375 1.78125,-6 1.875,-2.71875 5.34375,-2.71875 2.4375,0 4.03125,1.59375 1.59375,1.5 1.59375,3.9375 0,1.96875 -1.21875,3.375 -1.21875,1.40625 -3.09375,1.40625 -1.40625,0 -2.53125,-0.9375 -1.03125,-0.9375 -1.03125,-2.53125 l 1.59375,-1.03125 q 0.1875,0.65625 0.46875,1.21875 0.375,0.5625 1.21875,0.5625 0.9375,0 1.21875,-0.65625 0.375,-0.65625 0.375,-1.6875 0,-0.75 -0.75,-1.59375 -0.65625,-0.84375 -1.875,-0.84375 -1.96875,0 -3.09375,1.78125 -1.125,1.6875 -1.125,4.5 0,5.0625 3.5625,10.125 3.65625,4.96875 9.5625,9.75 1.40625,-1.21875 2.8125,-2.34375 l 2.8125,-2.15625 8.625,-7.125 q 5.625,-4.5 9,-12.09375 3.46875,-7.6875 10.40625,-8.25 l 1.3125,0.5625 q 2.0625,2.0625 2.0625,4.6875 l -0.0937,0.9375 v 0.5625 l 3.75,-6.84375 h 3.09375 l -18.5625,34.3125 z m -16.21875,39.65625 q -1.21875,0.375 -2.53125,0.46875 l -2.625,0.28125 q -5.0625,0.5625 -6.375,2.8125 -1.21875,2.25 -2.625,6.65625 -1.3125,4.3125 -1.3125,18.28125 0,6 -1.59375,8.8125 -1.5,2.8125 -4.5,3.1875 l -1.6875,-0.75 q -10.3125,-13.96875 -12.65625,-18.1875 -2.34375,-4.21875 -5.15625,-4.21875 -1.78125,0.75 -2.71875,3.375 -0.9375,2.625 -0.9375,6.1875 0,4.3125 2.71875,12 2.8125,7.6875 3.46875,17.34375 0,1.96875 -0.65625,3.28125 -0.65625,1.21875 -1.59375,2.25 l -1.875,2.0625 q -0.9375,1.03125 -1.40625,2.71875 h 52.5 q 0.1875,-0.28125 0.1875,-0.84375 0,-1.78125 -2.8125,-2.71875 -2.71875,-1.03125 -4.6875,-3.1875 -1.96875,-2.25 -1.96875,-4.96875 0,-1.40625 0.5625,-4.6875 0.65625,-3.375 0.65625,-13.59375 0,-3.1875 -0.1875,-6.1875 l -0.75,-12.46875 q -0.1875,-3.1875 -0.1875,-6.84375 l 0.1875,-5.0625 0.28125,-3.46875 q 0,-1.6875 0.28125,-2.53125 z m 24.28125,-71.34375 q -5.0625,0.5625 -7.875,7.96875 -2.8125,7.3125 -14.25,15.9375 -11.4375,8.625 -14.625,13.3125 -0.9375,0.375 -1.3125,0.5625 l -3.65625,-0.28125 q 0,2.625 0.0937,4.5 0.0937,1.875 0.0937,3.5624996 l 9.28125,1.21875 q 0.1875,-1.03125 1.03125,-1.78125 0.84375,-0.8437496 1.78125,-0.8437496 1.40625,0 2.25,1.6874996 0.84375,1.59375 0.84375,3.1875 0,1.3125 -0.84375,2.625 -0.84375,1.3125 -2.34375,2.06249996 0.5625,2.43750004 3.5625,6.28125004 3,3.75 3.65625,4.5937504 3.84375,-7.3125004 7.125,-18.1875004 3.28125,-10.9687496 3.84375,-13.9687496 0.5625,-3.09375 3.28125,-8.25 l 1.78125,-3.375 3.28125,-7.3125 q 3,-6.5625 3.375,-8.53125 0.46875,-1.96875 0.5625,-2.8125 0.0937,-0.84375 -0.9375,-2.15625 z m -43.125,60.8437496 q 8.625,0.9375 9.09375,9.4687504 1.3125,-0.375 2.71875,-0.5625 l 2.8125,-0.28125 q 1.40625,-0.1875 2.625,-0.5625 1.21875,-0.375 2.0625,-1.125 -1.03125,-1.875 -4.96875,-6.5625004 -3.84375,-4.6875 -3.84375,-8.0625 0.1875,-0.46875 0.46875,-0.84375 l 0.46875,-0.84375 q 0.65625,-0.28125 1.59375,-1.125 0.9375,-0.9375 0.9375,-1.96875 0,-0.28125 -0.1875,-0.84375 -0.0937,-0.65625 -0.65625,-0.65625 l -0.5625,1.125 q -0.1875,0.375 -0.1875,0.65625 l -1.5,1.03125 -9.5625,-1.21875 q -0.1875,1.5 -0.84375,3 -0.65625,1.5 -1.96875,3.65624996 0.84375,0.375 1.40625,0.93750004 0.65625,0.5625 0.65625,1.59375 0,0.75 -0.1875,1.59375 z m -28.96875,11.8125004 q 0,-0.84375 0.28125,-2.0625 0.375,-1.21875 0.375,-3.46875 0,-2.7187504 -1.03125,-4.2187504 -0.9375,-1.59375 -2.90625,-1.59375 -0.9375,0 -1.78125,0.9375 -0.84375,0.84375 -0.84375,2.15625 0,2.0625004 0.9375,3.8437504 1.03125,1.78125 2.0625,2.4375 l 1.3125,1.03125 q 0.75,0.46875 1.59375,0.9375 z m 34.40625,-20.3437504 q -1.875,1.125 -2.625,1.125 -0.84375,0 -0.84375,-1.125 0,-1.125 0.84375,-1.125 0.75,0 2.625,1.125 z"
         id="path5572"
         inkscape:connector-curvature="0" />
    </g>
  </g>
</svg>
