<?xml version="1.0" encoding="UTF-8" standalone="no"?>
<!-- Created with Inkscape (http://www.inkscape.org/) -->

<svg
   xmlns:dc="http://purl.org/dc/elements/1.1/"
   xmlns:cc="http://creativecommons.org/ns#"
   xmlns:rdf="http://www.w3.org/1999/02/22-rdf-syntax-ns#"
   xmlns:svg="http://www.w3.org/2000/svg"
   xmlns="http://www.w3.org/2000/svg"
   xmlns:sodipodi="http://sodipodi.sourceforge.net/DTD/sodipodi-0.dtd"
   xmlns:inkscape="http://www.inkscape.org/namespaces/inkscape"
   width="18.801952mm"
   height="38.224022mm"
   viewBox="0 0 18.801952 38.224022"
   version="1.1"
   id="svg27581"
   inkscape:version="0.92.4 (5da689c313, 2019-01-14)"
   sodipodi:docname="C17.svg">
  <defs
     id="defs27575" />
  <sodipodi:namedview
     id="base"
     pagecolor="#ffffff"
     bordercolor="#666666"
     borderopacity="1.0"
     inkscape:pageopacity="0.0"
     inkscape:pageshadow="2"
     inkscape:zoom="0.35"
     inkscape:cx="-351.8298"
     inkscape:cy="-377.61873"
     inkscape:document-units="mm"
     inkscape:current-layer="layer1"
     showgrid="false"
     fit-margin-top="0"
     fit-margin-left="0"
     fit-margin-right="0"
     fit-margin-bottom="0"
     inkscape:window-width="1920"
     inkscape:window-height="1017"
     inkscape:window-x="-8"
     inkscape:window-y="-8"
     inkscape:window-maximized="1" />
  <metadata
     id="metadata27578">
    <rdf:RDF>
      <cc:Work
         rdf:about="">
        <dc:format>image/svg+xml</dc:format>
        <dc:type
           rdf:resource="http://purl.org/dc/dcmitype/StillImage" />
        <dc:title></dc:title>
      </cc:Work>
    </rdf:RDF>
  </metadata>
  <g
     inkscape:label="Layer 1"
     inkscape:groupmode="layer"
     id="layer1"
     transform="translate(-5.7758011,-10.697688)">
    <g
       aria-label="ð“®"
       transform="matrix(0.26458333,0,0,0.26458333,21.922619,2.2678571)"
       style="font-style:normal;font-variant:normal;font-weight:normal;font-stretch:normal;font-size:192px;line-height:1.25;font-family:sans-serif;-inkscape-font-specification:'sans-serif, Normal';font-variant-ligatures:normal;font-variant-caps:normal;font-variant-numeric:normal;font-feature-settings:normal;text-align:start;letter-spacing:0px;word-spacing:0px;writing-mode:lr-tb;text-anchor:start;fill:#000000;fill-opacity:1;stroke:none"
       id="flowRoot28126">
      <path
         d="m -47.058594,124.01703 -0.84375,-1.40625 q -0.65625,-0.9375 -1.125,-1.40625 l 0.28125,-1.5 q -1.40625,-0.1875 -2.0625,-1.3125 l 1.3125,-1.875 -3.28125,-7.40625 -3.65625,2.0625 -1.21875,-2.625 4.125,-1.125 q -3.75,-1.59375 -5.625,-3.9375 -1.875,-2.34375 -1.875,-5.15625 0,-2.34375 1.40625,-3.84375 1.40625,-1.59375 3.46875,-1.59375 2.625,0 4.3125,1.78125 1.78125,1.6875 1.78125,5.25 0,1.6875 -0.46875,3.75 -0.375,2.0625 -0.84375,3.09375 l 3.9375,-2.0625 1.3125,2.625 -4.6875,1.21875 4.5,8.15625 h 0.75 q 1.3125,0 2.25,1.40625 1.03125,1.3125 1.6875,2.625 3.375,0 6.9375,2.53125 3.5625,2.53125 6.09375,7.21875 l 2.15625,4.03125 q 1.125,2.0625 2.34375,4.125 1.21875,1.96875 2.625,4.125 0.65625,-3.1875 0.65625,-7.5 l -0.09375,-1.96875 q 0,-9 1.03125,-15.09375 1.03125,-6.1875 4.21875,-9 -0.375,-3.5625 -3.28125,-7.03125 -2.90625,-3.5625 -4.03125,-7.875 -1.59375,-0.65625 -3.1875,-0.84375 -1.59375,-0.28125 -3.1875,-0.28125 l -0.9375,-0.375 q -0.9375,-0.9375 -0.9375,-2.0625 0,-1.40625 1.5,-3.09375 1.5,-1.6875 3.5625,-2.90625 0.1875,-2.15625 1.78125,-3.28125 1.6875,-1.125 3.65625,-1.59375 -0.46875,-0.65625 -0.75,-1.40625 -0.28125,-0.75 -0.28125,-1.5 l 3.09375,-39.9375 q 1.3125,-2.15625 3.46875,-3.65625 2.15625,-1.5 3.84375,-1.5 1.03125,0 1.9687502,0.5625 1.03125,0.5625 1.6875001,1.96875 2.25,-2.34375 4.9687499,-2.34375 3.00000005,0 5.3437501,2.90625 l 0.75,1.03125 q 0.5625,0.75 0.5625,1.3125 v 39.28125 q 0,2.0625 -1.40625,3.5625 -1.4062501,1.5 -3.18750005,2.53125 l 0.65625,0.46875 0.5625,0.5625 q 3.18750005,3.1875 5.24999995,7.96875 2.0625,4.78125 3.0937501,17.53125 l 0.1875,2.8125 0.9374997,11.4375 q -0.4687497,0.375 -0.8437497,0.75 l -0.75,0.75 H 5.6289062 q 0.1875,1.78125 0.28125,3.5625 0.09375,1.6875 0.09375,3.375 0,8.0625 -1.5,16.03125 -1.4999999,7.96875 -3.375,15.65625 1.1250001,0.75 4.96875,3.375 3.9374998,2.625 3.9374998,7.875 -0.4687497,0.375 -0.8437497,0.75 l -0.75,0.75 H -52.027344 l -1.40625,-1.78125 q 0,-3.84375 2.25,-6.09375 2.34375,-2.25 5.625,-3.84375 1.59375,-3.1875 1.59375,-6.75 0,-4.6875 -3.1875,-12.46875 -3.09375,-7.78125 -3.09375,-12.375 0,-2.15625 0.65625,-4.3125 0.65625,-2.25 2.53125,-4.6875 z m 2.34375,1.875 q -1.40625,1.875 -2.0625,3.84375 -0.5625,1.875 -0.5625,3.75 0,4.3125 3.1875,12 3.1875,7.59375 3.1875,12.75 l -0.1875,2.15625 q -0.84375,6.75 -4.78125,8.15625 -3.9375,1.3125 -4.40625,4.78125 H 6.9414062 q 0,-2.625 -3.5624999,-4.6875 -3.56250005,-2.15625 -4.5,-3 l -0.9375001,-1.6875 q 1.87500005,-7.6875 3.46875,-15.75 1.5937501,-8.0625 1.5937501,-16.125 0,-4.21875 -0.5625,-8.34375 l 1.40625,-1.78125 h 3.0937499 l -0.75,-11.15625 q -0.46875,-8.625 -2.4374999,-15.75 -1.9687501,-7.125 -6.7500001,-10.125 0.375,0.46875 0.75,1.03125 l 0.5625001,1.21875 q 0.84374995,1.96875 0.84374995,4.5 0,4.125 -2.06250005,6.9375 -2.0624999,2.8125 -5.71875,4.21875 -3.6562502,1.40625 -4.0312502,7.03125 l -0.65625,1.21875 q -3.84375,2.0625 -4.3125,15.28125 -0.46875,13.21875 -0.46875,13.875 0,2.15625 -0.46875,4.125 -0.46875,1.875 -1.59375,2.625 l -1.875,-0.0937 q -3.1875,-3.1875 -6.65625,-10.5 -3.46875,-7.3125 -7.03125,-10.125 -3.5625,-2.8125 -6.28125,-2.8125 -1.5,0 -2.25,0.84375 z M -8.2460938,65.98578 q 3.4687501,0 5.625,2.25 2.25000005,2.15625 2.25000005,5.34375 0,2.15625 -1.21874995,4.125 -1.2187501,1.96875 -3.5625,2.90625 0.46875,0 1.4062499,0.46875 l 1.5,-0.84375 q 1.59375005,-0.9375 2.34375005,-1.875 0.84375,-1.03125 0.84375,-2.0625 V 37.76703 q -0.75,-1.03125 -1.6875,-1.96875 -0.84374995,-0.9375 -2.34375005,-0.9375 -1.0312499,0 -2.0624999,1.125 -0.9375,1.03125 -1.78125,2.25 l -2.7187501,-0.65625 q -0.1875,-0.65625 -0.6562502,-1.6875 -0.375,-1.125 -1.21875,-1.125 -1.3125,0 -2.34375,1.03125 -1.03125,0.9375 -1.78125,2.0625 l -3.09375,38.90625 q 0,0.9375 0.5625,1.59375 0.5625,0.5625 1.3125,1.125 0.65625,0 1.3125,-0.09375 h 2.53125 q -1.40625,-1.125 -2.15625,-2.71875 -0.65625,-1.6875 -0.65625,-3.46875 0,-3 1.96875,-5.0625 2.0625,-2.15625 5.6250002,-2.15625 z m -9.3750002,32.53125 1.78125,2.625 q 0.84375,1.3125 1.59375,2.71875 0.1875,-0.46875 0.5625,-0.84375 l 0.65625,-0.84375 q 0.65625,-0.75 1.5,-1.21875 0.9375,-0.5625 1.8750002,-1.03125 l 1.7812501,-0.84375 q 1.6875,-0.75 2.8125,-2.625 1.2187499,-1.96875 1.2187499,-4.5 0,-3.65625 -2.8124999,-6.46875 -2.8125001,-2.90625 -7.1250003,-2.90625 h -3.46875 q -2.90625,0 -4.40625,0.75 -1.40625,0.65625 -1.59375,2.25 l -0.65625,1.21875 q -1.21875,0.75 -2.25,1.59375 -1.03125,0.75 -1.875,1.78125 7.40625,0.75 7.59375,2.53125 0.28125,1.78125 2.8125,5.8125 z m 4.78125,-25.03125 q 0,1.78125 1.125,3.1875 1.21875,1.40625 3.3750002,1.40625 2.1562501,0 3.4687501,-1.03125 1.3124999,-1.125 1.3124999,-3.28125 0,-2.0625 -1.3124999,-3.375 -1.21875,-1.40625 -3.3750001,-1.40625 -2.3437502,0 -3.4687502,1.5 -1.125,1.40625 -1.125,3 z m -40.59375,31.3125 q 0,-0.5625 0.28125,-1.3125 l 0.1875,-1.5 q 0,-0.75 0.09375,-1.78125 0,-4.96875 -3.28125,-4.96875 -0.84375,0 -1.59375,0.84375 -0.75,0.75 -0.75,1.78125 0,1.3125 0.75,3.09375 0.75,1.6875 2.90625,3.09375 z m 40.78125,-17.625 q -2.71875,2.15625 -4.125,2.15625 -1.59375,0 -1.59375,-2.71875 0,-2.4375 1.3125,-2.4375 1.40625,0 4.40625,3 z m -31.21875,33.5625 q -0.1875,-0.46875 -0.84375,-1.125 -0.5625,-0.65625 -0.9375,-0.9375 l -0.46875,-0.1875 q -0.28125,0 -0.46875,-0.0937 -0.46875,0 -0.84375,0.1875 l -0.375,0.0937 0.9375,0.5625 -0.09375,1.3125 0.75,1.21875 q 0.46875,-0.46875 1.03125,-0.65625 0.5625,-0.1875 1.3125,-0.375 z"
         id="path28134"
         inkscape:connector-curvature="0" />
    </g>
  </g>
</svg>
