<?xml version="1.0" encoding="UTF-8" standalone="no"?>
<!-- Created with Inkscape (http://www.inkscape.org/) -->

<svg
   xmlns:dc="http://purl.org/dc/elements/1.1/"
   xmlns:cc="http://creativecommons.org/ns#"
   xmlns:rdf="http://www.w3.org/1999/02/22-rdf-syntax-ns#"
   xmlns:svg="http://www.w3.org/2000/svg"
   xmlns="http://www.w3.org/2000/svg"
   xmlns:sodipodi="http://sodipodi.sourceforge.net/DTD/sodipodi-0.dtd"
   xmlns:inkscape="http://www.inkscape.org/namespaces/inkscape"
   width="85.674026mm"
   height="149.78252mm"
   viewBox="0 0 85.674026 149.78252"
   version="1.1"
   id="svg28143"
   inkscape:version="0.92.4 (5da689c313, 2019-01-14)"
   sodipodi:docname="C18.svg">
  <defs
     id="defs28137" />
  <sodipodi:namedview
     id="base"
     pagecolor="#ffffff"
     bordercolor="#666666"
     borderopacity="1.0"
     inkscape:pageopacity="0.0"
     inkscape:pageshadow="2"
     inkscape:zoom="0.35"
     inkscape:cx="-356.61055"
     inkscape:cy="9.2210945"
     inkscape:document-units="mm"
     inkscape:current-layer="layer1"
     showgrid="false"
     fit-margin-top="0"
     fit-margin-left="0"
     fit-margin-right="0"
     fit-margin-bottom="0"
     inkscape:window-width="1920"
     inkscape:window-height="1017"
     inkscape:window-x="-8"
     inkscape:window-y="-8"
     inkscape:window-maximized="1" />
  <metadata
     id="metadata28140">
    <rdf:RDF>
      <cc:Work
         rdf:about="">
        <dc:format>image/svg+xml</dc:format>
        <dc:type
           rdf:resource="http://purl.org/dc/dcmitype/StillImage" />
        <dc:title></dc:title>
      </cc:Work>
    </rdf:RDF>
  </metadata>
  <g
     inkscape:label="Layer 1"
     inkscape:groupmode="layer"
     id="layer1"
     transform="translate(-7.0407074,-1.4905703)">
    <g
       aria-label="ð“¯"
       transform="matrix(1.0456022,0,0,1.0456022,-6.8237331,-61.161259)"
       style="font-style:normal;font-variant:normal;font-weight:normal;font-stretch:normal;font-size:192px;line-height:1.25;font-family:sans-serif;-inkscape-font-specification:'sans-serif, Normal';font-variant-ligatures:normal;font-variant-caps:normal;font-variant-numeric:normal;font-feature-settings:normal;text-align:start;letter-spacing:0px;word-spacing:0px;writing-mode:lr-tb;text-anchor:start;fill:#000000;fill-opacity:1;stroke:none"
       id="flowRoot28688">
      <path
         d="m 61.634766,67.513124 q 2.53125,-7.59375 12.09375,-7.59375 4.5,0 4.5,6.09375 -0.84375,1.6875 -3.28125,1.6875 l -2.53125,-0.28125 q -3.1875,0 -3.1875,6.09375 l 4.5,24.28125 q 0,2.718746 2.0625,2.718746 1.5,0 3.9375,-1.312496 1.21875,1.406246 3.1875,1.406246 1.875,0 4.40625,-1.406246 2.25,1.218746 4.125,1.406246 h 0.09375 q 1.78125,0 1.78125,-4.406246 1.875,2.71875 1.875,4.312496 0,2.25 -3.65625,2.25 -0.84375,0 -1.875,-0.1875 l -2.34375,-0.28125 q -1.5,1.5 -3.75,1.5 -2.34375,0 -5.34375,-1.5 -4.3125,1.125 -11.15625,1.40625 6,3.28125 9.75,14.25 3.75,10.96875 3.75,22.96875 0,3.1875 -0.28125,6.1875 -0.1875,2.90625 -0.65625,5.53125 l -1.5,1.03125 h -2.90625 q 0,8.53125 -0.28125,16.875 -0.28125,8.34375 -1.125,16.6875 1.59375,0.65625 2.25,2.0625 0.65625,1.40625 0.65625,3 2.15625,1.78125 4.5,3.09375 2.34375,1.21875 4.96875,2.25 l 0.46875,1.125 0.375,1.21875 q -0.84375,0.65625 -1.5,1.5 -0.9375,0.375 -1.3125,0.5625 -3.1875,0 -6,-1.21875 -2.71875,-1.125 -5.0625,-3.28125 -7.21875,0 -21.75,2.8125 -14.4375,2.8125 -22.40625,2.8125 -9.9375,0 -12.84375,-1.59375 -2.90625,-1.59375 -2.90625,-6 0,-4.96875 2.8125,-8.90625 2.8125,-4.03125 11.0625,-5.4375 l 3.9375,-0.65625 q 4.3125,-0.75 8.4375,-1.5 4.125,-0.84375 8.625,-1.21875 0.28125,-10.78125 1.96875,-21.28125 1.6875,-10.5 3.9375,-21 l -0.84375,-3 -1.21875,-0.0937 q -1.59375,4.03125 -3.28125,5.34375 -1.59375,1.21875 -3.09375,1.21875 -1.6875,0 -2.25,-0.5625 -0.5625,-0.65625 -0.5625,-1.03125 0,-0.375 0.65625,-0.375 2.71875,0 3.65625,-0.84375 0.9375,-0.9375 1.875,-3.65625 -1.59375,-0.9375 -1.78125,-3.46875 -0.09375,-2.625 -2.53125,-3.375 l -0.46875,-0.84375 q -0.28125,-0.375 -0.46875,-0.84375 0,-1.78125 1.3125,-3.65625 1.40625,-1.875 1.40625,-4.03125 l -0.09375,-0.65625 q 0,-3 2.15625,-6.65625 2.25,-3.75 5.90625,-5.34375 -3.1875,-0.1875 -5.53125,-0.46875 -2.34375,-0.375 -3.84375,-0.9375 -2.4375,1.125 -4.59375,1.125 -2.4375,0 -4.5,-1.125 -2.0625,0.46875 -3.1875,0.46875 -3.5625,0 -3.5625,-3.187496 0,-1.5 0.65625,-3.375 1.125,4.406246 2.625,4.406246 h 0.09375 q 1.5,0 4.875,-1.406246 1.59375,1.593746 3,1.593746 1.40625,0 3,-1.593746 1.5,0.843746 2.90625,0.843746 2.0625,0 3.1875,-2.249996 l 4.5,-24.28125 q 0,-6.09375 -3.09375,-6.09375 -0.5625,0 -1.21875,0.1875 -0.65625,0.09375 -1.125,0.09375 -1.5,0 -2.25,-1.5 -0.75,-1.59375 -0.75,-3.1875 0,-3.09375 5.4375,-3.09375 8.0625,0 10.59375,7.59375 z m 10.59375,78.281246 q 0,-2.625 -0.9375,-4.875 -0.9375,-2.25 -3.5625,-2.25 -1.03125,1.96875 -1.3125,4.40625 -0.28125,2.4375 -0.28125,4.875 v 4.21875 q -0.46875,0.375 -0.84375,0.75 l -0.75,0.75 h -3 l -1.40625,-1.78125 q 0,-30.65625 2.15625,-32.25 2.15625,-1.6875 2.15625,-3.84375 0,-0.375 -0.09375,-0.75 l -0.1875,-0.65625 q -0.75,0.28125 -1.3125,0.9375 -0.9375,0.375 -1.3125,0.5625 h -11.90625 l -0.1875,1.40625 q -0.28125,1.96875 -1.3125,3.46875 -0.9375,1.40625 -1.21875,2.53125 2.15625,1.03125 2.53125,2.53125 l 0.84375,3.65625 q 4.03125,0 5.25,0.9375 1.3125,0.84375 1.3125,4.21875 0,0.84375 -0.1875,2.25 -0.1875,1.40625 -0.46875,3 l -1.40625,6.65625 q -1.59375,8.25 -2.625,16.40625 -0.9375,8.0625 -1.125,16.40625 -0.46875,0.375 -0.84375,0.75 l -0.75,0.75 q -5.15625,0 -12,1.5 -6.84375,1.5 -10.875,1.96875 -3.9375,0.46875 -6.9375,2.71875 -2.90625,2.25 -3.375,9 0,0.75 0.84375,2.34375 0.9375,1.5 9.09375,1.6875 l 3,0.0937 q 8.25,0 22.59375,-2.8125 14.4375,-2.8125 20.71875,-2.8125 0.65625,0 1.59375,0.65625 l 2.25,1.5 q 1.21875,0.84375 2.90625,1.6875 1.6875,0.75 3.9375,1.03125 l -2.15625,-1.125 -2.4375,-1.40625 q -1.21875,-0.65625 -2.4375,-1.40625 -1.125,-0.75 -1.96875,-1.40625 0,-0.46875 -0.46875,-1.40625 0,-0.75 -0.1875,-1.40625 -0.09375,-0.65625 -0.65625,-1.125 l -0.75,-0.1875 -1.40625,-1.78125 q 0.9375,-9 1.21875,-17.8125 0.28125,-8.90625 0.28125,-17.90625 z m -11.25,-32.90625 q 1.5,-1.5 3.09375,-1.5 1.3125,0 2.15625,0.9375 0.9375,0.9375 1.125,2.8125 0,2.15625 -0.75,3.5625 -0.75,1.40625 -2.0625,2.4375 -0.84375,6.9375 -1.125,13.78125 -0.28125,6.75 -0.28125,13.6875 0,-1.59375 0.1875,-3.1875 l 0.28125,-3.1875 q 0.65625,-3.9375 1.875,-5.15625 1.3125,-1.3125 3.46875,-1.3125 2.4375,0.1875 4.3125,2.25 1.96875,2.0625 1.96875,8.0625 v 4.59375 h 1.6875 q 0.375,-2.4375 0.5625,-4.875 0.1875,-2.53125 0.1875,-5.15625 0,-12.9375 -4.40625,-24.09375 -4.40625,-11.15625 -12.1875,-11.15625 -3.75,0 -7.125,2.15625 -3.375,2.0625 -3.84375,5.34375 z M 48.509766,64.044374 q 0,0.65625 0.9375,0.65625 l 2.0625,-0.28125 q 2.53125,0 3.84375,2.71875 1.40625,2.625 1.40625,6.09375 v 0.5625 l -1.03125,5.90625 q -0.46875,2.8125 -1.40625,7.6875 1.3125,-1.6875 3.1875,-2.53125 1.96875,-0.9375 4.125,-0.9375 1.78125,0 3.65625,0.84375 1.96875,0.84375 3.28125,2.4375 l -1.96875,-12.09375 q -0.28125,-1.5 -0.28125,-2.0625 l -0.09375,-0.84375 q 0,-3.5625 1.78125,-5.625 1.78125,-2.15625 4.875,-2.15625 l 1.78125,0.1875 q 0.5625,0 0.5625,-0.46875 0,-0.65625 -0.75,-0.9375 -0.75,-0.28125 -2.0625,-0.28125 -3.5625,0 -6.09375,2.0625 -2.4375,1.96875 -3.5625,5.25 h -2.34375 q -1.5,-3.5625 -3.9375,-5.4375 -2.34375,-1.875 -5.15625,-1.875 -1.03125,0 -1.96875,0.1875 -0.84375,0.09375 -0.84375,0.9375 z m 7.21875,28.78125 q 0,2.71875 1.6875,4.125 1.6875,1.40625 4.21875,1.40625 2.15625,0 3.9375,-1.3125 1.875,-1.40625 1.875,-4.21875 0,-2.90625 -1.875,-4.40625 -1.78125,-1.5 -3.9375,-1.5 -2.4375,0 -4.21875,1.5 -1.6875,1.40625 -1.6875,4.40625 z m 3.5625,8.343746 q -2.25,-0.46875 -4.03125,-1.968746 -1.6875,-1.5 -2.34375,-4.21875 l -0.9375,5.437496 q 1.3125,0 2.34375,0.28125 1.125,0.1875 2.34375,0.28125 z m 3.5625,0.0937 q 1.3125,0 2.625,-0.28125 l 2.53125,-0.375 q 1.3125,-0.28125 2.71875,-0.656246 l -0.75,-4.3125 q -0.84375,2.625 -2.90625,4.03125 -2.0625,1.312496 -4.21875,1.593746 z m -9.28125,17.4375 q -1.03125,0.75 -1.875,0.75 -0.84375,0 -0.9375,-1.3125 0,-0.9375 0.84375,-0.9375 1.03125,0 1.96875,1.5 z"
         id="path28696"
         inkscape:connector-curvature="0" />
    </g>
  </g>
</svg>
