<?xml version="1.0" encoding="UTF-8" standalone="no"?>
<!-- Created with Inkscape (http://www.inkscape.org/) -->

<svg
   xmlns:dc="http://purl.org/dc/elements/1.1/"
   xmlns:cc="http://creativecommons.org/ns#"
   xmlns:rdf="http://www.w3.org/1999/02/22-rdf-syntax-ns#"
   xmlns:svg="http://www.w3.org/2000/svg"
   xmlns="http://www.w3.org/2000/svg"
   xmlns:sodipodi="http://sodipodi.sourceforge.net/DTD/sodipodi-0.dtd"
   xmlns:inkscape="http://www.inkscape.org/namespaces/inkscape"
   width="13.419335mm"
   height="37.703125mm"
   viewBox="0 0 13.419335 37.703124"
   version="1.1"
   id="svg4525"
   inkscape:version="0.92.4 (5da689c313, 2019-01-14)"
   sodipodi:docname="C19.svg">
  <defs
     id="defs4519" />
  <sodipodi:namedview
     id="base"
     pagecolor="#ffffff"
     bordercolor="#666666"
     borderopacity="1.0"
     inkscape:pageopacity="0.0"
     inkscape:pageshadow="2"
     inkscape:zoom="0.35"
     inkscape:cx="1216.3309"
     inkscape:cy="-249.25061"
     inkscape:document-units="mm"
     inkscape:current-layer="layer1"
     showgrid="false"
     fit-margin-top="0"
     fit-margin-left="0"
     fit-margin-right="0"
     fit-margin-bottom="0"
     inkscape:window-width="1920"
     inkscape:window-height="1017"
     inkscape:window-x="-8"
     inkscape:window-y="-8"
     inkscape:window-maximized="1"
     showguides="false" />
  <metadata
     id="metadata4522">
    <rdf:RDF>
      <cc:Work
         rdf:about="">
        <dc:format>image/svg+xml</dc:format>
        <dc:type
           rdf:resource="http://purl.org/dc/dcmitype/StillImage" />
        <dc:title></dc:title>
      </cc:Work>
    </rdf:RDF>
  </metadata>
  <g
     inkscape:label="Layer 1"
     inkscape:groupmode="layer"
     id="layer1"
     transform="translate(409.13338,-45.182641)">
    <g
       aria-label="ð“€‰"
       style="font-style:normal;font-variant:normal;font-weight:normal;font-stretch:normal;font-size:50.79999924px;line-height:1.25;font-family:sans-serif;-inkscape-font-specification:sans-serif;font-variant-ligatures:normal;font-variant-caps:normal;font-variant-numeric:normal;font-feature-settings:normal;text-align:start;letter-spacing:0px;word-spacing:0px;writing-mode:lr-tb;text-anchor:start;fill:#000000;fill-opacity:1;stroke:none;stroke-width:0.26458332"
       id="text5105" />
    <g
       aria-label="ð“€†"
       transform="matrix(0.26458333,0,0,0.26458333,-199.96101,81.431167)"
       style="font-style:normal;font-variant:normal;font-weight:normal;font-stretch:normal;font-size:192px;line-height:1.25;font-family:sans-serif;-inkscape-font-specification:sans-serif;font-variant-ligatures:normal;font-variant-caps:normal;font-variant-numeric:normal;font-feature-settings:normal;text-align:start;letter-spacing:0px;word-spacing:0px;writing-mode:lr-tb;text-anchor:start;fill:#000000;fill-opacity:1;stroke:none"
       id="flowRoot5135" />
    <g
       aria-label="ð“•"
       transform="matrix(0.26458333,0,0,0.26458333,-390.48232,26.790778)"
       style="font-style:normal;font-variant:normal;font-weight:normal;font-stretch:normal;font-size:192px;line-height:1.25;font-family:sans-serif;-inkscape-font-specification:sans-serif;font-variant-ligatures:normal;font-variant-caps:normal;font-variant-numeric:normal;font-feature-settings:normal;text-align:start;letter-spacing:0px;word-spacing:0px;writing-mode:lr-tb;text-anchor:start;fill:#000000;fill-opacity:1;stroke:none"
       id="flowRoot5443" />
    <g
       aria-label="ð“«"
       transform="matrix(-0.26458333,0,0,0.26458333,-248.60777,-63.953969)"
       style="font-style:normal;font-variant:normal;font-weight:normal;font-stretch:normal;font-size:192px;line-height:1.25;font-family:sans-serif;-inkscape-font-specification:sans-serif;font-variant-ligatures:normal;font-variant-caps:normal;font-variant-numeric:normal;font-feature-settings:normal;text-align:start;letter-spacing:0px;word-spacing:0px;writing-mode:lr-tb;text-anchor:start;fill:#000000;fill-opacity:1;stroke:none"
       id="flowRoot5553" />
    <g
       aria-label="ð“°"
       transform="matrix(0.26458333,0,0,0.26458333,-394.49861,58.234186)"
       style="font-style:normal;font-variant:normal;font-weight:normal;font-stretch:normal;font-size:192px;line-height:1.25;font-family:sans-serif;-inkscape-font-specification:sans-serif;font-variant-ligatures:normal;font-variant-caps:normal;font-variant-numeric:normal;font-feature-settings:normal;text-align:start;letter-spacing:0px;word-spacing:0px;writing-mode:lr-tb;text-anchor:start;fill:#000000;fill-opacity:1;stroke:none"
       id="flowRoot5575">
      <path
         d="m -45.28125,90.171327 q 3.46875,-1.78125 7.21875,-2.25 3.75,-0.5625 7.5,-1.5 l 3.65625,-1.03125 q 2.71875,-0.75 3.28125,-2.625 0.65625,-1.96875 1.3125,-5.90625 0.75,-3.9375 0.75,-9.375 0,-9.28125 -2.4375,-20.8125 -2.4375,-11.53125 -10.21875,-32.625 l -4.40625,-1.40625 -2.8125,1.6875 v 66.75 q 1.40625,0.75 2.15625,2.90625 -0.375,1.3125 -1.03125,2.25 -0.65625,0.9375 -1.40625,1.6875 l 0.1875,-2.25 q 0,-1.59375 -1.40625,-3.46875 -1.5,1.59375 -1.5,4.03125 0,0.46875 0.09375,0.84375 l 0.09375,0.84375 q -0.75,-0.75 -1.40625,-1.6875 -0.65625,-0.9375 -1.03125,-2.25 0.75,-2.15625 2.34375,-2.90625 v -66.9375 q -1.3125,-0.28125 -2.0625,-1.03125 -0.65625,-0.84375 -1.3125,-2.4375 V 9.1713271 l 0.46875,-0.75 q -1.3125,-1.59375 -1.3125,-3.46875 0.375,-2.15625 1.40625,-3 1.125,-0.9375 2.8125,-1.12500004 V -20.547423 q 0,-1.6875 -0.65625,-2.34375 -0.65625,-0.75 -2.71875,-0.75 -1.59375,1.59375 -3.09375,3.9375 -1.5,2.25 -3,5.15625 l -1.5,-1.40625 q 1.125,-3.28125 3.375,-6.9375 2.25,-3.75 3.65625,-3.75 1.875,-3 4.03125,-4.5 2.15625,-1.59375 4.03125,-1.59375 -4.21875,4.21875 -5.71875,7.21875 2.4375,0 3.46875,1.3125 1.03125,1.21875 1.03125,3.65625 V 0.73382706 q 0.28125,0.1875 0.46875,0.1875 L -40.5,1.2025771 q 0.46875,0.75 1.03125,1.3125 l 1.03125,1.3125 q 1.5,0 3,-0.09375 h 2.90625 q 3,-5.53125 4.21875,-14.7187501 1.3125,-9.1875 1.6875,-9.28125 0.46875,-0.09375 1.21875,-2.25 l 0.375,-1.03125 q 0.1875,-0.46875 0.1875,-0.84375 -0.46875,-0.46875 -1.21875,-0.5625 -0.75,-0.1875 -1.5,-0.1875 -0.28125,3.5625 -1.875,5.625 -1.5,1.96875 -3.65625,2.71875 l -1.875,-0.9375 1.875,-1.40625 q 2.71875,0 3,-6 h -0.09375 l -1.40625,-1.78125 q 0,-1.96875 -1.3125,-3.5625 l -0.1875,-1.03125 q 0.46875,-1.875 1.59375,-4.40625 1.21875,-2.53125 1.78125,-5.625 0.65625,-3.09375 2.34375,-4.6875 1.78125,-1.6875 3.84375,-2.25 2.0625,-0.5625 4.96875,-0.84375 5.4375,0 8.4375,2.71875 3,2.71875 3,7.3125 0,3.09375 -1.40625,6 -1.40625,2.90625 -3.09375,5.34375 l 0.75,2.4375 3,-1.03125 2.0625,1.40625 q 0,4.59375 -0.09375,8.8125 0,3.5625 -0.09375,7.4062501 v 6.28125 q 0,3.46874996 -1.40625,11.53125 -1.40625,7.9687499 -1.40625,13.8749999 0,3.46875 0.28125,7.6875 0.375,4.21875 0.375,9.5625 0,3.5625 -0.375,7.875 l -0.75,8.90625 q -0.46875,4.6875 -0.84375,9.5625 -0.375,4.78125 -0.375,9.28125 0,3.75 1.875,7.5 1.875,3.65625 4.03125,7.03125 v 3 H -52.875 l 1.59375,-3 z m 34.125,-112.5 q -2.71875,2.4375 -6.09375,3.46875 -3.375,1.03125 -6.9375,1.21875 -2.25,16.1250001 -4.875,20.7187501 -2.53125,4.59375 -2.53125,9.5624999 8.53125,23.53125 10.6875,34.78125 2.15625,11.15625 2.15625,19.40625 0,4.21875 -0.5625,9.28125 -0.5625,4.96875 -1.6875,8.15625 -1.03125,3.1875 -7.59375,4.3125 l -8.625,1.59375 h 29.625 q -3.65625,-5.53125 -4.6875,-8.25 -0.9375,-2.71875 -0.9375,-6.65625 0,-3.375 0.375,-7.96875 l 1.40625,-18.65625 q 0.28125,-4.40625 0.28125,-7.6875 0,-2.71875 -0.09375,-4.875 -0.09375,-2.15625 -0.1875,-4.21875 l -0.28125,-3.75 q 0,-1.78125 -0.09375,-3.9375 0,-5.53125 1.40625,-14.5312499 Q -9,0.64007706 -9,-1.9849229 l 0.09375,-11.2500001 q 0,-2.8125 0.09375,-5.34375 v -4.5 z m -2.8125,-7.5 q 1.40625,-2.15625 2.625,-4.5 1.21875,-2.4375 1.21875,-5.0625 0,-3.5625 -2.53125,-5.34375 -2.4375,-1.875 -5.71875,-1.875 -2.71875,0 -5.25,1.3125 -2.4375,1.21875 -3.1875,3.75 7.40625,1.78125 8.34375,6.28125 0.9375,4.5 4.5,5.4375 z m -8.90625,9.09375 q 2.53125,-0.1875 4.875,-0.9375 2.34375,-0.84375 4.40625,-2.4375 l -0.84375,-2.8125 q -3.375,-0.75 -5.0625,-2.90625 -1.59375,-2.15625 -2.15625,-4.96875 -0.5625,-2.8125 -5.625,-3.84375 l -0.28125,0.9375 q -0.46875,1.59375 -1.21875,3.09375 -0.75,1.40625 -1.21875,3 0.5625,0.75 0.84375,1.6875 0.28125,0.84375 0.46875,1.78125 h 0.46875 q 3.375,0 4.78125,1.03125 1.5,0.9375 1.5,2.8125 0,1.6875 -0.9375,3.5625 z M -33.65625,6.1713271 h -1.875 q -1.03125,0 -1.875,-0.09375 -1.03125,0 -1.96875,-0.09375 l -3.1875,-2.8125 h -0.65625 q -0.28125,0 -0.46875,-0.09375 h -0.28125 q -0.65625,0 -1.03125,0.46875 -0.375,0.46875 -0.5625,1.125 0,0.84375 0.375,1.40625 0.46875,0.5625 0.75,1.03125 h 10.5 z m -0.9375,5.0624999 q 0,-0.46875 0.09375,-0.9375 l 0.09375,-0.8437499 H -45 q 0.1875,0.7499999 0.46875,1.4062499 0.375,0.5625 0.9375,0.9375 h 1.3125 q 1.40625,-0.9375 2.25,-1.21875 0.84375,-0.28125 1.59375,-0.28125 0.75,0 1.59375,0.28125 0.84375,0.1875 2.25,0.65625 z m 10.125,-46.5 q -1.03125,0.75 -2.25,0.84375 l -0.5625,-0.84375 q 0,-1.40625 0.75,-1.40625 0.75,0 2.0625,1.40625 z"
         id="path5583"
         inkscape:connector-curvature="0" />
    </g>
  </g>
</svg>
