<?xml version="1.0" encoding="UTF-8" standalone="no"?>
<!-- Created with Inkscape (http://www.inkscape.org/) -->

<svg
   xmlns:dc="http://purl.org/dc/elements/1.1/"
   xmlns:cc="http://creativecommons.org/ns#"
   xmlns:rdf="http://www.w3.org/1999/02/22-rdf-syntax-ns#"
   xmlns:svg="http://www.w3.org/2000/svg"
   xmlns="http://www.w3.org/2000/svg"
   xmlns:sodipodi="http://sodipodi.sourceforge.net/DTD/sodipodi-0.dtd"
   xmlns:inkscape="http://www.inkscape.org/namespaces/inkscape"
   width="18.628321mm"
   height="37.256641mm"
   viewBox="0 0 18.628321 37.256641"
   version="1.1"
   id="svg28705"
   inkscape:version="0.92.4 (5da689c313, 2019-01-14)"
   sodipodi:docname="C20.svg">
  <defs
     id="defs28699" />
  <sodipodi:namedview
     id="base"
     pagecolor="#ffffff"
     bordercolor="#666666"
     borderopacity="1.0"
     inkscape:pageopacity="0.0"
     inkscape:pageshadow="2"
     inkscape:zoom="0.35"
     inkscape:cx="-343.25951"
     inkscape:cy="-404.8319"
     inkscape:document-units="mm"
     inkscape:current-layer="layer1"
     showgrid="false"
     fit-margin-top="0"
     fit-margin-left="0"
     fit-margin-right="0"
     fit-margin-bottom="0"
     inkscape:window-width="1920"
     inkscape:window-height="1017"
     inkscape:window-x="-8"
     inkscape:window-y="-8"
     inkscape:window-maximized="1" />
  <metadata
     id="metadata28702">
    <rdf:RDF>
      <cc:Work
         rdf:about="">
        <dc:format>image/svg+xml</dc:format>
        <dc:type
           rdf:resource="http://purl.org/dc/dcmitype/StillImage" />
        <dc:title></dc:title>
      </cc:Work>
    </rdf:RDF>
  </metadata>
  <g
     inkscape:label="Layer 1"
     inkscape:groupmode="layer"
     id="layer1"
     transform="translate(-3.508245,-4.4649203)">
    <g
       aria-label="ð“±"
       transform="matrix(0.26458333,0,0,0.26458333,201.83929,-49.892857)"
       style="font-style:normal;font-variant:normal;font-weight:normal;font-stretch:normal;font-size:192px;line-height:1.25;font-family:sans-serif;-inkscape-font-specification:'sans-serif, Normal';font-variant-ligatures:normal;font-variant-caps:normal;font-variant-numeric:normal;font-feature-settings:normal;text-align:start;letter-spacing:0px;word-spacing:0px;writing-mode:lr-tb;text-anchor:start;fill:#000000;fill-opacity:1;stroke:none"
       id="flowRoot29250">
      <path
         d="m -745.09766,217.44672 h -4.5 v -2.90625 h 6.09375 q 3.75,-2.25 6.9375,-3.9375 3.1875,-1.78125 6,-2.90625 2.90625,-1.125 5.625,-1.6875 2.71875,-0.5625 5.625,-0.5625 4.40625,0 8.625,1.6875 4.3125,1.59375 8.15625,3.65625 3.84375,1.96875 7.21875,3.65625 3.46875,1.59375 6.1875,1.59375 h 9.9375 v 2.90625 h -8.4375 v 127.3125 h -55.875 V 222.04047 h -1.59375 z m 6.09375,0 v 4.59375 h -1.5 v 121.21875 h 4.5 l 1.5,-3 h 3.9375 q 1.6875,-1.59375 4.3125,-2.15625 2.625,-0.65625 4.875,-0.75 2.4375,0 6,-1.125 3.28125,-1.03125 5.25,-2.71875 0.75,-3.1875 0.9375,-5.71875 0.28125,-2.625 0.28125,-6.09375 0,-10.875 -3.09375,-23.71875 -3.09375,-12.75 -8.4375,-24.75 -0.84375,-0.46875 -1.6875,-0.65625 -0.84375,-0.1875 -1.78125,-0.1875 -0.46875,0 -1.03125,0.28125 -0.46875,0.1875 -0.9375,0.375 -0.46875,0.28125 -1.03125,0.5625 v 57.1875 q 1.03125,0 1.59375,1.125 0.5625,1.125 0.5625,2.53125 0,1.3125 -0.65625,1.96875 0,-4.125 -2.4375,-4.125 -2.8125,0 -2.8125,4.5 -0.75,-1.6875 -0.75,-2.625 0,-3.375 2.15625,-3.375 v -57.09375 l -0.5625,-0.1875 q -1.03125,-0.375 -2.0625,-1.5 -0.9375,-1.21875 -0.9375,-2.4375 0,-0.75 0.46875,-1.40625 0.1875,-0.375 0.46875,-0.65625 -0.46875,-0.5625 -0.84375,-1.125 -0.28125,-0.46875 -0.5625,-1.03125 -0.1875,-0.65625 -0.1875,-1.40625 0,-1.40625 1.125,-2.34375 1.21875,-1.03125 3.09375,-1.40625 v -18.375 q 0,-2.71875 -3.375,-2.71875 l -2.15625,3.375 q -0.65625,0.9375 -1.3125,1.875 -0.65625,0.9375 -1.40625,1.96875 0,-4.875 2.53125,-7.59375 0,-3 1.5,-3 2.25,-2.625 8.0625,-4.5 v 1.5 q -1.59375,0.5625 -3.28125,1.21875 -1.6875,0.5625 -2.90625,2.90625 4.6875,0 4.6875,4.96875 v 18.28125 l 1.21875,0.46875 1.875,2.4375 h 5.0625 l 2.34375,-4.59375 q 0.375,-0.5625 1.78125,-8.4375 0.65625,-3.9375 1.125,-5.90625 0.28125,-1.125 0.375,-2.0625 0.5625,-0.84375 1.03125,-1.59375 0.46875,-0.65625 0.75,-1.3125 0.375,-0.65625 0.5625,-1.125 l -2.625,-0.65625 q -0.46875,7.3125 -5.90625,9 -1.59375,0 -1.59375,-0.75 0,-0.65625 1.59375,-2.25 2.71875,0 2.90625,-6.09375 l -1.40625,-1.78125 v -0.84375 q 0,-0.28125 -0.1875,-0.46875 l -1.3125,-1.6875 q 0,-1.59375 0.75,-2.8125 0.75,-1.21875 1.5,-2.53125 l 0.9375,-4.21875 q 0.84375,-1.6875 2.0625,-2.90625 1.3125,-1.3125 2.90625,-2.15625 1.59375,-0.84375 3.375,-1.3125 1.78125,-0.46875 3.46875,-0.46875 1.40625,0 3,0.9375 1.59375,0.84375 3,2.15625 1.40625,1.3125 2.25,2.90625 0.9375,1.59375 0.9375,3.09375 0,2.34375 -1.21875,4.78125 -1.125,2.4375 -3.1875,4.6875 l 0.75,2.25 3.09375,-1.03125 2.15625,1.40625 v 10.875 q 0,3.5625 -0.0937,7.21875 -0.0937,3.5625 -0.375,7.125 l -2.71875,19.21875 q 0.0937,0.65625 0.1875,1.78125 0.1875,1.125 0.28125,2.4375 0.0937,1.3125 0.0937,2.625 0.0937,1.21875 0.0937,2.15625 v 4.03125 q 0,1.125 -0.0937,2.4375 0,1.3125 -0.0937,3.65625 -0.0937,2.34375 -0.375,6.09375 -0.1875,3.75 -0.5625,9.65625 -0.28125,4.21875 -0.75,7.21875 -0.375,3 -0.375,5.4375 0,3 1.125,5.53125 1.21875,2.53125 4.78125,5.53125 v 3 h 1.78125 v -124.3125 q -2.71875,-0.28125 -6.1875,-1.96875 -3.46875,-1.78125 -7.3125,-3.75 -3.75,-1.96875 -7.6875,-3.46875 -3.84375,-1.59375 -7.5,-1.59375 -4.875,0 -10.40625,2.4375 -5.53125,2.34375 -12.28125,6.84375 z m 42.375,38.4375 -17.0625,3.84375 q -0.46875,1.5 -1.96875,3.84375 -1.3125,2.25 -1.96875,4.03125 l -0.1875,4.6875 q 0.5625,0.84375 1.21875,2.25 0.65625,1.40625 1.21875,2.90625 l 1.78125,4.96875 q 3.09375,9 5.4375,19.03125 2.4375,10.03125 2.4375,20.15625 0,0.46875 -0.0937,2.25 -0.0937,1.6875 -0.375,3.75 -0.1875,1.96875 -0.46875,3.9375 -0.28125,1.875 -0.65625,2.625 -0.5625,1.21875 -2.15625,2.15625 -1.59375,0.9375 -3.5625,1.59375 -1.875,0.65625 -3.84375,1.03125 -1.875,0.375 -3.28125,0.375 -4.03125,0.0937 -4.6875,0.9375 h 28.875 q -2.4375,-2.4375 -3.84375,-4.78125 -1.40625,-2.4375 -1.40625,-6.1875 l 1.125,-13.03125 q 0.375,-4.40625 0.5625,-7.21875 0.28125,-2.8125 0.375,-4.96875 0.0937,-2.25 0.0937,-4.21875 0,-1.96875 0,-4.78125 l -0.65625,-10.21875 q 0,-1.03125 0,-1.6875 0,-0.75 -0.0937,-1.21875 0.0937,-0.5625 0.1875,-1.3125 0.0937,-0.75 0.28125,-1.96875 0.1875,-1.3125 0.46875,-3.1875 0.375,-1.96875 0.9375,-5.0625 0.5625,-3.46875 0.84375,-7.125 0.375,-3.65625 0.46875,-7.40625 z m 0,-16.59375 -1.21875,0.375 q -1.125,0.28125 -4.21875,2.625 -3.28125,2.25 -8.53125,2.53125 -0.5625,2.90625 -1.03125,5.90625 -0.46875,2.90625 -1.21875,5.71875 l 16.3125,-3.75 z m -15.5625,-16.5 q 5.25,1.40625 6.09375,4.59375 0.46875,1.59375 0.84375,2.625 0.375,1.03125 0.75,1.6875 1.03125,0.84375 2.625,1.03125 1.78125,-1.96875 2.71875,-3.84375 1.03125,-1.96875 1.03125,-3.65625 0,-2.8125 -3,-4.78125 -1.96875,-1.3125 -4.125,-1.3125 -1.875,0 -3.65625,1.03125 -1.78125,1.03125 -3.28125,2.625 z m -4.03125,9 q 1.21875,0.9375 1.3125,2.4375 1.78125,0 3.375,0.375 1.6875,0.375 3.28125,1.3125 l 0.65625,1.21875 q 0,1.21875 -0.46875,2.34375 -0.46875,1.125 -1.03125,2.15625 4.21875,-0.5625 7.59375,-3.375 l -0.84375,-2.53125 q -4.5,-0.5625 -5.8125,-4.96875 l -0.28125,-1.5 q -0.75,-2.90625 -5.0625,-3.84375 -0.375,1.875 -1.3125,3.28125 -0.9375,1.3125 -1.40625,3.09375 z m -14.25,32.15625 q 0,0.75 0.5625,1.5 0.65625,0.65625 1.21875,1.125 h 8.25 q 0,-0.375 0.1875,-0.75 l 0.1875,-0.375 h -3.09375 q -1.40625,0 -2.34375,-0.375 -0.9375,-0.375 -2.15625,-2.0625 h -1.3125 q -0.9375,0.375 -1.3125,0.65625 z m 9.65625,6.46875 v -1.96875 h -7.875 l -1.03125,1.125 0.46875,1.03125 h 1.78125 q 0.5625,-0.1875 1.125,-0.46875 0.46875,-0.1875 1.125,-0.375 0.65625,-0.1875 1.21875,-0.1875 0.75,0 1.40625,0.1875 0.75,0.1875 1.6875,0.5625 z m 9.9375,-41.8125 q -1.5,1.21875 -2.4375,1.21875 -0.46875,0 -0.46875,-0.5625 0,-0.5625 0.28125,-1.125 0.28125,-0.65625 0.84375,-0.65625 0.65625,0 1.78125,1.125 z m -22.5,115.125 h 38.25 v -1.125 h -37.6875 z"
         id="path29258"
         inkscape:connector-curvature="0" />
    </g>
  </g>
</svg>
