<?xml version="1.0" encoding="UTF-8" standalone="no"?>
<!-- Created with Inkscape (http://www.inkscape.org/) -->

<svg
   xmlns:dc="http://purl.org/dc/elements/1.1/"
   xmlns:cc="http://creativecommons.org/ns#"
   xmlns:rdf="http://www.w3.org/1999/02/22-rdf-syntax-ns#"
   xmlns:svg="http://www.w3.org/2000/svg"
   xmlns="http://www.w3.org/2000/svg"
   xmlns:sodipodi="http://sodipodi.sourceforge.net/DTD/sodipodi-0.dtd"
   xmlns:inkscape="http://www.inkscape.org/namespaces/inkscape"
   width="25.858521mm"
   height="48.592289mm"
   viewBox="0 0 25.858521 48.592289"
   version="1.1"
   id="svg2033"
   inkscape:version="0.92.4 (5da689c313, 2019-01-14)"
   sodipodi:docname="C21.svg">
  <defs
     id="defs2027" />
  <sodipodi:namedview
     id="base"
     pagecolor="#ffffff"
     bordercolor="#666666"
     borderopacity="1.0"
     inkscape:pageopacity="0.0"
     inkscape:pageshadow="2"
     inkscape:zoom="2"
     inkscape:cx="-42.384993"
     inkscape:cy="21.662089"
     inkscape:document-units="mm"
     inkscape:current-layer="layer1"
     showgrid="false"
     fit-margin-top="0"
     fit-margin-left="0"
     fit-margin-right="0"
     fit-margin-bottom="0"
     inkscape:window-width="1920"
     inkscape:window-height="1017"
     inkscape:window-x="-8"
     inkscape:window-y="-8"
     inkscape:window-maximized="1" />
  <metadata
     id="metadata2030">
    <rdf:RDF>
      <cc:Work
         rdf:about="">
        <dc:format>image/svg+xml</dc:format>
        <dc:type
           rdf:resource="http://purl.org/dc/dcmitype/StillImage" />
        <dc:title></dc:title>
      </cc:Work>
    </rdf:RDF>
  </metadata>
  <g
     inkscape:label="Layer 1"
     inkscape:groupmode="layer"
     id="layer1"
     transform="translate(0.47610722,-0.8309412)">
    <g
       aria-label="ð“³"
       transform="matrix(0.26458333,0,0,0.26458333,164.59549,27.931664)"
       style="font-style:normal;font-weight:normal;font-size:192px;line-height:1.25;font-family:sans-serif;letter-spacing:0px;word-spacing:0px;fill:#000000;fill-opacity:1;stroke:none"
       id="flowRoot6024">
      <path
         id="path6032"
         transform="translate(-785.59322,-265.5685)"
         d="m 224.27734,163.14062 c -4.5,0 -8.65625,1.62501 -12.46875,4.875 -3.75,3.25 -5.625,7.06251 -5.625,11.4375 0,2.8125 0.59375,5.46876 1.78125,7.96876 1.1875,2.43749 2.8125,4.53125 4.875,6.28124 -1.8125,-0.37499 -3.625,-0.8125 -5.4375,-1.3125 -1.75,-0.49999 -3.53125,-1.03125 -5.34375,-1.59374 l -4.40625,-1.6875 c -0.9375,-0.3125 -1.90625,-0.59376 -2.90625,-0.84376 -1,-0.31249 -1.90625,-0.46874 -2.71875,-0.46874 -0.9375,-10e-6 -1.625,0.21875 -2.0625,0.65624 l -0.375,1.3125 c 0.4375,2.5625 3.0625,5.18751 7.875,7.875 4.875,2.6875 10,4.53126 15.375,5.53126 7.68748,1.40624 0,0 7.68748,1.40624 11.81248,-0.84379 0,0 11.81248,-0.84379 7.6875,-1 14.125,-3.09376 19.3125,-6.28126 5.1875,-3.18749 7.78125,-5.8125 7.78125,-7.875 l -0.28125,-0.9375 c -0.5,-0.49999 -1.28125,-0.75 -2.34375,-0.75 -1.5625,1e-5 -4.4375,0.84376 -8.625,2.53126 -4.125,1.62499 -8.6875,2.8125 -13.6875,3.5625 2,-1.6875 3.59375,-3.71876 4.78125,-6.09376 1.1875,-2.43749 1.78125,-4.96875 1.78125,-7.59374 0,-4.25 -1.625,-8.06251 -4.875,-11.4375 -3.1875,-3.4375 -7.15625,-5.34376 -11.90625,-5.71876 z m 0,3 c 3.6875,0.25 6.875,1.68751 9.5625,4.3125 2.6875,2.625 4.03125,5.75001 4.03125,9.375 0,1.8125 -0.3125,3.59376 -0.9375,5.34376 -1.6875,4.49999 -4.71875,7.5 -9.09375,9 -4.3125,1.49999 -8.5,0.68749 -12.5625,-2.4375 -4,-3.1875 -6,-7.25001 -6,-12.1875 0,-3.5 1.53125,-6.59376 4.59375,-9.28126 3.125,-2.74999 6.59375,-4.125 10.40625,-4.125 z m -30.46875,25.03126 c 1.875,0.81249 5.8125,2.15625 11.8125,4.03124 6,1.8125 11.96875,2.71876 17.90625,2.71876 5.75,0 11.15625,-0.65626 16.21875,-1.96876 5.125,-1.31249 10.125,-2.84375 15,-4.59374 -4.9375,4.37499 -11.375,7.34375 -19.3125,8.90624 -7.9375,1.5 -15.84375,1.4375 -23.71875,-0.1875 -7.8125,-1.68749 -13.78125,-4.65625 -17.90625,-8.90624 z"
         inkscape:connector-curvature="0"
         sodipodi:nodetypes="ccsccccccccccccccccccccscccccscccsccccsccccc" />
    </g>
    <g
       aria-label="ð“Ÿ"
       transform="matrix(0.26458333,0,0,0.26458333,308.79237,-26.032483)"
       style="font-style:normal;font-weight:normal;font-size:192px;line-height:1.25;font-family:sans-serif;letter-spacing:0px;word-spacing:0px;fill:#d38d5f;fill-opacity:1;stroke:none"
       id="flowRoot2586">
      <path
         d="m -1151.5,194.3432 -2.9063,-0.84375 q 3.9375,-13.21875 9.6563,-22.3125 5.8125,-9.1875 15,-16.96875 2.4375,-6 7.3125,-9.28125 4.9687,-3.375 11.3437,-3.375 12.9375,0 19.7813,11.25 6.8437,11.15625 6.8437,39 0,2.8125 -0.094,5.53125 l -0.5625,18.5625 q 0,1.21875 0.2812,2.34375 l -1.5,1.96875 h -4.0312 v 7.125 q 0,10.6875 -1.4063,21.1875 -1.4062,10.40625 -3.4687,20.90625 l 4.6875,3.75 q 2.9062,2.4375 4.0312,4.40625 1.2188,1.96875 1.7813,6.09375 -0.4688,0.375 -0.8438,0.75 l -0.75,0.75 h -75.5625 l -1.4062,-1.78125 q 0.5625,-3.1875 2.3437,-5.8125 1.7813,-2.625 8.5313,-6.9375 0.9375,-2.25 1.3125,-4.59375 0.375,-2.4375 0.375,-4.875 0,-3.1875 -0.75,-7.21875 -0.6563,-4.03125 -2.0625,-8.53125 l -1.6875,-5.53125 q -0.8438,-2.8125 -1.4063,-5.71875 -0.5625,-3 -0.5625,-5.8125 0,-4.40625 2.4375,-7.78125 2.5313,-3.375 6.5625,-3.375 4.3125,0 9.5625,3.5625 5.3438,3.5625 7.875,8.0625 2.625,4.5 6.4688,13.21875 0.5625,0.375 0.8437,0.46875 l 0.8438,-0.1875 q 0.5625,-4.3125 1.125,-19.03125 0.6562,-14.8125 6.1875,-22.78125 -1.3125,-2.15625 -1.875,-4.3125 -0.5625,-2.15625 -0.5625,-4.40625 0,-3.84375 2.0625,-12.75 2.1562,-9 2.1562,-13.03125 -1.4062,-2.90625 -3.4687,-4.3125 -1.9688,-1.40625 -9.4688,-1.40625 -13.9687,12.09375 -18.375,19.03125 -4.4062,6.84375 -6.6562,15 z m 38.8125,7.125 q -4.9688,5.8125 -5.7188,20.25 -0.6562,14.4375 -1.4062,22.125 -0.4688,0.84375 -1.4063,1.3125 -0.8437,0.375 -1.875,0.375 -3.0937,0 -4.2187,-2.625 -1.0313,-2.71875 -3.9375,-8.625 -2.9063,-6 -7.125,-9.9375 -4.125,-4.03125 -9.8438,-4.03125 -3.0937,0 -4.6875,2.71875 -1.5,2.71875 -1.5,6.375 0,5.53125 3.2813,14.34375 3.2812,8.71875 3.2812,18.1875 0,10.78125 -4.875,12.84375 -4.875,1.96875 -7.125,7.40625 h 72 q -0.375,-2.25 -2.3437,-4.5 -1.9688,-2.25 -4.6875,-4.3125 l -3,-2.15625 q 0,-0.46875 -0.4688,-1.40625 2.0625,-10.59375 3.4688,-21.09375 1.5,-10.59375 1.5,-21.46875 0,-6.1875 -0.75,-12.75 -0.6563,-6.65625 -1.125,-13.40625 -0.5625,-0.84375 -1.5938,-1.40625 -0.9375,-0.5625 -2.1562,-0.5625 v 19.59375 l -1.5938,1.5 h -5.3437 l -1.4063,-1.6875 v -19.3125 l -0.6562,0.1875 q -0.375,0 -1.2188,0.5625 l -1.9687,-0.1875 q -0.8438,-1.03125 -1.5938,-3.9375 -0.75,-3 -0.75,-4.5 0,-3.46875 1.2188,-7.875 l 2.5312,-9.1875 q 1.3125,-4.875 2.4375,-9.9375 1.2188,-5.15625 1.2188,-10.125 -0.1875,-2.4375 -1.0313,-4.875 -0.75,-2.4375 -2.7187,-4.96875 -5.25,0 -9.75,2.25 -4.4063,2.15625 -6.5625,6.75 l -0.8438,1.59375 q -0.6562,1.21875 -5.0625,5.0625 -4.3125,3.75 -8.9062,9.75 l 8.0625,-7.40625 q 5.1562,-4.78125 5.8125,-4.96875 0.75,-0.28125 1.875,-0.28125 7.5,0 10.4062,2.34375 3,2.25 4.4063,6.5625 0,3.46875 -2.1563,11.90625 -2.1562,8.34375 -2.1562,13.59375 0,2.15625 0.2812,4.21875 0.2813,1.96875 1.7813,3.84375 z m 21.9375,15.75 h 2.7187 q 0,-0.5625 -0.094,-1.3125 v -1.6875 q 0,-2.53125 0.094,-6 l 0.5625,-13.78125 q 0,-3.28125 0.094,-5.625 0,-19.96875 -4.5938,-30.75 -4.5937,-10.875 -13.875,-13.21875 1.5938,2.625 2.1563,5.25 0.6562,2.625 0.6562,5.53125 0,6.9375 -3.75,18.65625 -3.75,11.625 -3.8437,16.40625 0,1.21875 0.094,3 0.1875,1.78125 0.75,3.09375 0.5625,-0.28125 1.4063,-0.46875 0.8437,-0.28125 2.4375,-0.28125 l 1.5937,1.5 v 19.6875 H -1102 v -19.40625 l 1.4062,-1.78125 q 2.7188,0 4.5938,0.84375 1.875,0.84375 3.4687,2.71875 z m -22.6875,-66.5625 q -2.25,2.25 -3.375,2.25 -1.125,0 -1.125,-2.25 0,-2.25 1.125,-2.25 1.125,0 3.375,2.25 z"
         id="path2594"
         inkscape:connector-curvature="0"
         style="fill:#000000" />
    </g>
    <g
       aria-label="ð“Œ€"
       style="font-style:normal;font-weight:normal;font-size:96.39597321px;line-height:1.25;font-family:sans-serif;letter-spacing:0px;word-spacing:0px;fill:#000300;fill-opacity:1;stroke:none;stroke-width:0.50206232"
       id="text1404-7"
       transform="matrix(0.30033784,0,0,0.30033784,98.446927,29.961825)">
      <path
         d="m -315.67564,9.7482 c -2.35342,0 0,0 -2.35342,0 v -40.478778 c 0,-0.784472 -0.31379,-1.41205 -0.94136,-1.882733 -0.5962,-0.502063 -1.42774,-0.86292 -2.49463,-1.082572 -2.03963,1.757218 -4.03219,4.863729 -5.97768,9.319532 -1.16101,-0.502062 -1.80428,-1.12964 -1.9298,-1.882734 0.43931,-1.537566 1.16102,-3.232026 2.16515,-5.083381 0.53344,-0.972746 0.92567,-1.757218 1.1767,-2.353417 0.28241,-0.596199 0.43931,-1.019815 0.47069,-1.270846 0.0314,-0.470683 0.40795,-1.12964 1.12964,-1.97687 0.69033,-0.878609 1.69446,-1.506187 3.01237,-1.882734 0.47069,-0.502063 1.00413,-1.035504 1.60033,-1.600324 0.59619,-0.596199 1.25515,-1.208087 1.97687,-1.835665 0.81585,-0.721715 1.44342,-1.286535 1.88273,-1.694461 0.43931,-0.407925 0.7531,-0.706025 0.94137,-0.894298 0.40793,-0.407926 0.92568,-0.611889 1.55325,-0.611889 0.69034,0 1.03551,0.376547 1.03551,1.12964 0,0.313789 -0.0471,0.658957 -0.14121,1.035504 -2.72996,1.914113 -4.87941,4.236151 -6.44836,6.966115 1.1924,0.596199 2.03963,1.349293 2.54169,2.259281 0.50206,0.909988 0.75309,1.99256 0.75309,3.247716 z"
         style="fill:#000300;fill-opacity:1;stroke-width:0.50206232"
         id="path1406-6"
         inkscape:connector-curvature="0"
         sodipodi:nodetypes="ccscccccccccccssssccscc" />
    </g>
  </g>
</svg>
