<?xml version="1.0" encoding="UTF-8" standalone="no"?>
<svg
   xmlns:dc="http://purl.org/dc/elements/1.1/"
   xmlns:cc="http://creativecommons.org/ns#"
   xmlns:rdf="http://www.w3.org/1999/02/22-rdf-syntax-ns#"
   xmlns:svg="http://www.w3.org/2000/svg"
   xmlns="http://www.w3.org/2000/svg"
   xmlns:sodipodi="http://sodipodi.sourceforge.net/DTD/sodipodi-0.dtd"
   xmlns:inkscape="http://www.inkscape.org/namespaces/inkscape"
   version="1.0"
   width="193.85776pt"
   height="379.88455pt"
   viewBox="0 0 193.85776 379.88455"
   preserveAspectRatio="xMidYMid meet"
   id="svg10"
   sodipodi:docname="C22.svg"
   inkscape:version="0.92.4 (5da689c313, 2019-01-14)">
  <defs
     id="defs14" />
  <sodipodi:namedview
     pagecolor="#ffffff"
     bordercolor="#666666"
     borderopacity="1"
     objecttolerance="10"
     gridtolerance="10"
     guidetolerance="10"
     inkscape:pageopacity="0"
     inkscape:pageshadow="2"
     inkscape:window-width="1920"
     inkscape:window-height="1017"
     id="namedview12"
     showgrid="false"
     fit-margin-top="0"
     fit-margin-left="0"
     fit-margin-right="0"
     fit-margin-bottom="0"
     inkscape:zoom="0.41549296"
     inkscape:cx="-176.10169"
     inkscape:cy="259.84608"
     inkscape:window-x="-8"
     inkscape:window-y="-8"
     inkscape:window-maximized="1"
     inkscape:current-layer="svg10" />
  <metadata
     id="metadata2">
Created by potrace 1.10, written by Peter Selinger 2001-2011
<rdf:RDF>
  <cc:Work
     rdf:about="">
    <dc:format>image/svg+xml</dc:format>
    <dc:type
       rdf:resource="http://purl.org/dc/dcmitype/StillImage" />
    <dc:title></dc:title>
  </cc:Work>
</rdf:RDF>
</metadata>
  <g
     transform="matrix(0.1,0,0,-0.1,-15,398)"
     id="g8"
     style="fill:#000000;stroke:none">
    <path
       d="m 1016,3949 c -28,-33 -31,-49 -17,-77 5,-9 24,-53 41,-97 18,-44 39,-96 48,-115 8,-19 21,-48 28,-65 6,-16 18,-43 25,-58 12,-26 11,-30 -23,-64 -45,-45 -69,-40 -67,14 2,62 -17,142 -39,166 -14,15 -44,28 -82,35 -55,12 -65,11 -98,-5 -23,-11 -41,-29 -47,-47 -8,-25 -6,-31 18,-52 16,-13 41,-24 57,-24 27,0 31,-5 45,-52 8,-28 15,-58 15,-65 0,-16 25,-58 53,-89 23,-26 21,-33 -53,-224 -52,-133 -51,-224 6,-307 31,-46 112,-117 154,-136 8,-4 31,-17 50,-28 19,-12 56,-32 82,-46 56,-29 61,-35 77,-90 8,-31 9,-59 1,-105 -5,-35 -10,-90 -10,-122 0,-55 -10,-103 -46,-217 -8,-26 -14,-55 -14,-64 0,-10 -6,-41 -14,-69 -8,-28 -22,-87 -31,-131 -9,-44 -23,-105 -30,-135 -7,-30 -21,-91 -30,-135 -9,-44 -23,-105 -31,-136 -8,-30 -14,-73 -15,-95 0,-48 -20,-109 -35,-109 -13,0 -146,153 -181,209 -14,21 -29,44 -34,50 -5,6 -45,58 -89,116 -192,253 -243,309 -315,351 -83,48 -167,36 -215,-31 -25,-35 -50,-125 -50,-179 0,-50 28,-234 40,-267 6,-14 10,-39 10,-56 0,-17 7,-56 16,-87 39,-139 44,-159 44,-178 0,-11 6,-39 14,-64 13,-42 21,-76 62,-278 17,-79 17,-87 0,-155 -25,-102 -45,-156 -75,-196 -33,-45 -49,-70 -60,-97 -6,-11 -15,-24 -20,-28 -6,-3 -11,-26 -11,-51 0,-39 4,-47 32,-64 32,-20 49,-20 831,-18 l 799,3 24,30 c 33,41 30,60 -19,136 -24,36 -51,84 -60,107 -22,54 -23,201 -2,309 8,43 15,98 15,123 0,25 5,63 10,85 6,22 14,81 19,130 9,92 20,178 47,365 8,58 14,133 14,167 0,66 15,93 51,93 29,0 90,36 105,62 50,88 48,73 52,431 4,360 -13,657 -44,767 -9,30 -23,80 -31,110 -9,30 -22,69 -29,85 -6,17 -20,50 -29,75 -48,128 -71,169 -121,215 l -44,41 66,154 c 36,85 70,159 75,164 5,6 9,31 9,57 0,39 -5,51 -26,68 -26,20 -37,21 -449,21 h -423 z m 713,-138 c 16,-11 11,-31 -38,-134 l -36,-77 -190,2 -189,3 -12,25 c -7,14 -20,45 -29,70 -10,25 -22,55 -28,67 -5,12 -7,29 -4,37 6,14 39,16 259,16 139,0 259,-4 267,-9 z m -139,-390 c 36,-10 80,-27 97,-36 36,-18 103,-94 103,-117 0,-7 4,-18 9,-24 11,-11 39,-85 51,-134 4,-19 13,-48 18,-65 29,-86 35,-123 48,-313 7,-114 17,-333 20,-487 7,-274 7,-281 -15,-322 -24,-49 -33,-52 -55,-21 -14,19 -16,66 -16,310 0,371 -9,417 -90,458 -54,28 -68,26 -125,-18 l -50,-38 -5,-339 c -3,-217 -9,-340 -15,-340 -17,0 -26,227 -23,625 3,417 1,399 62,468 18,21 38,52 44,70 27,79 -46,151 -168,166 -30,4 -71,16 -90,26 -19,10 -44,23 -55,29 -11,5 -33,21 -50,35 -38,31 -28,44 58,67 84,23 169,23 247,0 z m -328,-204 c 71,-49 136,-77 176,-77 82,-1 92,-29 33,-88 l -39,-39 -12,-139 c -14,-166 -19,-204 -27,-204 -4,0 -18,11 -33,25 -26,25 -60,45 -185,110 -44,22 -82,51 -103,77 -30,37 -33,47 -29,88 8,72 36,164 78,257 30,64 33,63 141,-10 z m 448,-1627 c -6,-85 -18,-207 -26,-270 -8,-63 -21,-167 -30,-230 -8,-63 -19,-146 -25,-185 -6,-38 -15,-108 -19,-155 -5,-47 -14,-107 -20,-133 -5,-26 -8,-60 -5,-75 15,-68 29,-119 41,-137 19,-33 25,-72 11,-77 -6,-3 -93,-1 -192,3 -103,5 -281,5 -415,-1 -216,-8 -624,1 -637,14 -3,3 3,22 13,42 11,20 27,52 38,72 51,99 70,293 41,405 -8,32 -15,70 -15,85 0,15 -6,47 -14,72 -8,25 -21,71 -30,103 -49,180 -65,241 -76,302 -5,22 -13,56 -19,75 -13,40 -18,280 -7,299 15,23 108,-63 171,-158 29,-44 159,-215 266,-351 28,-36 67,-89 86,-119 20,-30 60,-79 90,-110 l 54,-56 h 63 c 72,0 87,9 115,69 26,57 66,202 81,296 7,43 12,64 41,185 6,28 15,70 19,95 4,25 12,66 19,93 6,26 16,68 22,95 7,26 15,71 20,101 14,99 42,94 53,-11 11,-97 72,-168 144,-168 35,0 47,7 86,46 l 46,46 v 308 c 0,169 3,323 8,341 12,57 15,-742 2,-911 z"
       id="path4"
       inkscape:connector-curvature="0" />
    <path
       d="m 1144,3104 c -49,-26 -59,-67 -24,-99 29,-26 111,-26 139,-1 61,56 -36,141 -115,100 z"
       id="path6"
       inkscape:connector-curvature="0" />
  </g>
</svg>
