<?xml version="1.0" encoding="UTF-8" standalone="no"?>
<!-- Created with Inkscape (http://www.inkscape.org/) -->

<svg
   xmlns:dc="http://purl.org/dc/elements/1.1/"
   xmlns:cc="http://creativecommons.org/ns#"
   xmlns:rdf="http://www.w3.org/1999/02/22-rdf-syntax-ns#"
   xmlns:svg="http://www.w3.org/2000/svg"
   xmlns="http://www.w3.org/2000/svg"
   xmlns:sodipodi="http://sodipodi.sourceforge.net/DTD/sodipodi-0.dtd"
   xmlns:inkscape="http://www.inkscape.org/namespaces/inkscape"
   width="19.14922mm"
   height="38.050388mm"
   viewBox="0 0 19.149219 38.050387"
   version="1.1"
   id="svg4525"
   inkscape:version="0.92.4 (5da689c313, 2019-01-14)"
   sodipodi:docname="C23.svg">
  <defs
     id="defs4519" />
  <sodipodi:namedview
     id="base"
     pagecolor="#ffffff"
     bordercolor="#666666"
     borderopacity="1.0"
     inkscape:pageopacity="0.0"
     inkscape:pageshadow="2"
     inkscape:zoom="0.35"
     inkscape:cx="1280.2157"
     inkscape:cy="-209.81953"
     inkscape:document-units="mm"
     inkscape:current-layer="layer1"
     showgrid="false"
     fit-margin-top="0"
     fit-margin-left="0"
     fit-margin-right="0"
     fit-margin-bottom="0"
     inkscape:window-width="1920"
     inkscape:window-height="1017"
     inkscape:window-x="-8"
     inkscape:window-y="-8"
     inkscape:window-maximized="1"
     showguides="false" />
  <metadata
     id="metadata4522">
    <rdf:RDF>
      <cc:Work
         rdf:about="">
        <dc:format>image/svg+xml</dc:format>
        <dc:type
           rdf:resource="http://purl.org/dc/dcmitype/StillImage" />
        <dc:title></dc:title>
      </cc:Work>
    </rdf:RDF>
  </metadata>
  <g
     inkscape:label="Layer 1"
     inkscape:groupmode="layer"
     id="layer1"
     transform="translate(426.03622,-55.268185)">
    <g
       aria-label="ð“€‰"
       style="font-style:normal;font-variant:normal;font-weight:normal;font-stretch:normal;font-size:50.79999924px;line-height:1.25;font-family:sans-serif;-inkscape-font-specification:sans-serif;font-variant-ligatures:normal;font-variant-caps:normal;font-variant-numeric:normal;font-feature-settings:normal;text-align:start;letter-spacing:0px;word-spacing:0px;writing-mode:lr-tb;text-anchor:start;fill:#000000;fill-opacity:1;stroke:none;stroke-width:0.26458332"
       id="text5105" />
    <g
       aria-label="ð“€†"
       transform="matrix(0.26458333,0,0,0.26458333,-199.96101,81.431167)"
       style="font-style:normal;font-variant:normal;font-weight:normal;font-stretch:normal;font-size:192px;line-height:1.25;font-family:sans-serif;-inkscape-font-specification:sans-serif;font-variant-ligatures:normal;font-variant-caps:normal;font-variant-numeric:normal;font-feature-settings:normal;text-align:start;letter-spacing:0px;word-spacing:0px;writing-mode:lr-tb;text-anchor:start;fill:#000000;fill-opacity:1;stroke:none"
       id="flowRoot5135" />
    <g
       aria-label="ð“•"
       transform="matrix(0.26458333,0,0,0.26458333,-390.48232,26.790778)"
       style="font-style:normal;font-variant:normal;font-weight:normal;font-stretch:normal;font-size:192px;line-height:1.25;font-family:sans-serif;-inkscape-font-specification:sans-serif;font-variant-ligatures:normal;font-variant-caps:normal;font-variant-numeric:normal;font-feature-settings:normal;text-align:start;letter-spacing:0px;word-spacing:0px;writing-mode:lr-tb;text-anchor:start;fill:#000000;fill-opacity:1;stroke:none"
       id="flowRoot5443" />
    <g
       aria-label="ð“«"
       transform="matrix(-0.26458333,0,0,0.26458333,-248.60777,-63.953969)"
       style="font-style:normal;font-variant:normal;font-weight:normal;font-stretch:normal;font-size:192px;line-height:1.25;font-family:sans-serif;-inkscape-font-specification:sans-serif;font-variant-ligatures:normal;font-variant-caps:normal;font-variant-numeric:normal;font-feature-settings:normal;text-align:start;letter-spacing:0px;word-spacing:0px;writing-mode:lr-tb;text-anchor:start;fill:#000000;fill-opacity:1;stroke:none"
       id="flowRoot5553" />
    <g
       aria-label="ð“´"
       transform="matrix(0.26458333,0,0,0.26458333,-409.13338,45.182641)"
       style="font-style:normal;font-variant:normal;font-weight:normal;font-stretch:normal;font-size:192px;line-height:1.25;font-family:sans-serif;-inkscape-font-specification:sans-serif;font-variant-ligatures:normal;font-variant-caps:normal;font-variant-numeric:normal;font-feature-settings:normal;text-align:start;letter-spacing:0px;word-spacing:0px;writing-mode:lr-tb;text-anchor:start;fill:#000000;fill-opacity:1;stroke:none"
       id="flowRoot5586">
      <path
         d="m -25.166016,59.774843 q -1.3125,-1.59375 -1.875,-3.46875 -0.5625,-1.96875 -0.5625,-4.03125 0,-6 3.65625,-10.03125 3.75,-4.125 9.375,-4.125 5.6250004,0 9.2812504,3.9375 3.75,3.84375 3.75,9.65625 v 0.75 q 0.46875,3.28125 3,5.90625 2.53125,2.53125 7.03125,3.28125 -6.75,-1.03125 -8.53125002,-2.25 -1.68749998,-1.21875 -2.34374998,-2.8125 -0.9375,2.53125 -2.15625,4.03125 -1.125,1.40625 -2.71875,2.25 7.12499998,2.25 10.96875,11.0625 3.9375,8.71875 3.9375,17.71875 v 33.562497 q 0,2.4375 -1.6875,3.46875 -1.6875,1.03125 -3.65625,1.21875 l -6.65625,40.5 q -0.1875,0.75 -0.1875,1.40625 0,4.59375 2.625,5.4375 2.71874998,0.84375 2.71874998,3.1875 -0.46875,0.375 -0.84375,0.75 l -0.75,0.75 H -62.384766 l -0.65625,-0.375 -0.5625,-0.375 q -0.28125,-0.84375 -0.28125,-1.59375 0,-3.09375 4.6875,-7.40625 4.6875,-4.3125 5.625,-5.625 0,-3.46875 -0.5625,-6.65625 -0.46875,-3.28125 -2.4375,-9.75 l -1.6875,-5.53125 q -1.03125,-3.9375 -1.59375,-8.25 -0.5625,-4.3125 -0.5625,-9.75 0,-3.09375 2.25,-4.59375 2.25,-1.59375 5.0625,-1.59375 5.625,0 8.71875,5.25 3.1875,5.15625 7.5,11.25 4.3125,6 6.9375,7.875 1.125,0 3.1875,-9.9375 2.0625,-10.03125 2.4375,-11.71875 l -1.59375,-3.5625 q -0.75,-1.6875 -0.75,-3.65625 0,-3.75 3.65625,-7.59375 3.65625,-3.84375 5.34375,-6.75 -0.75,-2.531247 -1.875,-4.406247 -1.03125,-1.96875 -3.1875,-1.96875 -1.3125,0 -2.8125,0.75 l -2.15625,-0.46875 q -0.75,-1.3125 -1.3125,-2.0625 -0.46875,-0.84375 -0.46875,-1.875 v -0.5625 q 0,-0.1875 0.09375,-0.28125 l -1.3125,-0.75 q -0.75,-0.9375 -1.40625,-1.96875 l -1.21875,-1.875 q -0.75,-1.03125 -1.125,-1.6875 -0.375,-0.75 -0.375,-1.5 0,-1.03125 0.375,-1.59375 0.375,-0.65625 1.5,-1.96875 l 1.78125,-2.0625 q 1.5,-3.1875 1.5,-6 0,-2.8125 2.71875,-5.0625 2.8125,-2.25 5.53125,-3.1875 -0.84375,-0.46875 -1.40625,-0.9375 -0.5625,-0.46875 -1.125,-1.03125 -1.21875,1.03125 -2.53125,1.40625 -1.3125,0.28125 -2.4375,0.28125 -2.8125,0 -4.6875,-3.9375 -1.875,-3.9375 -1.875,-8.53125 0,-0.9375 0.375,-1.59375 -1.21875,0 -1.21875,-0.65625 0,-1.3125 2.34375,-1.3125 4.40625,0 4.40625,4.03125 0,1.125 -0.5625,3.1875 -0.46875,2.0625 -0.46875,3.5625 0,3 2.625,3.09375 1.21875,0 2.8125,-0.84375 z m 7.6875,47.156247 q -0.46875,0.5625 -3.375,3.28125 -2.8125,2.71875 -2.8125,5.53125 0,1.03125 0.28125,1.96875 0.375,0.84375 0.84375,1.78125 l 0.84375,1.78125 q 0.65625,1.5 0.375,2.53125 -0.28125,0.9375 -1.40625,6.75 -1.03125,5.8125 -2.25,10.03125 -1.21875,4.125 -2.34375,5.71875 -1.03125,1.59375 -2.34375,1.59375 -2.25,0 -7.03125,-5.90625 -4.78125,-5.90625 -8.0625,-11.34375 l -1.40625,-2.34375 q -1.3125,-2.25 -2.90625,-3.5625 -1.59375,-1.40625 -3.65625,-1.40625 -3,0 -3.9375,1.3125 -0.84375,1.3125 -0.84375,3.65625 0,2.15625 0.75,8.25 0.84375,6.09375 2.34375,10.6875 1.59375,4.59375 2.8125,9 1.21875,4.3125 1.21875,8.625 0,3.09375 -1.40625,4.6875 -1.40625,1.5 -5.0625,4.59375 -3.65625,3 -4.03125,4.78125 h 55.8750004 q -1.125,-1.3125 -1.875,-3.1875 -0.65625,-1.875 -0.65625,-3.75 v -0.9375 q 0,-0.46875 0.1875,-0.9375 l 6.74999998,-41.34375 q -1.03124998,-1.5 -1.31249998,-3.09375 -0.28125,-1.6875 -0.28125,-6.09375 v -11.53125 q 0,-1.40625 -0.65625,-2.0625 -0.5625,-0.65625 -1.21875,-0.65625 -0.75,0 -1.40625,0.84375 -0.5625,0.75 -0.5625,2.34375 v 14.25 l -0.65625,1.21875 q -1.21875,1.03125 -2.625,1.59375 -1.3125004,0.5625 -2.7187504,0.5625 -1.78125,0 -3.5625,-1.21875 -1.78125,-1.21875 -1.96875,-3.375 z m -1.21875,-41.624997 q 2.90625,0.84375 4.875,3.09375 1.125,-0.5625 2.25,-0.5625 1.8750004,0 3.2812504,1.5 1.5,1.5 1.5,3.65625 0,2.625 -2.25,4.875 1.125,3.5625 1.125,6.75 0,4.78125 -1.96875,9 -1.9687504,4.21875 -4.6875004,8.812497 v 19.125 q 0.84375,1.6875 2.625,1.6875 1.5,0 2.9062504,-1.21875 v -13.5 q 0,-3.09375 1.3125,-4.6875 1.40625,-1.59375 3.65625,-1.59375 1.96875,0 3.37499998,1.5 1.5,1.40625 1.5,4.03125 v 16.96875 l 1.03125002,2.25 q 0.75,0 1.40625,-0.1875 0.65625,-0.1875 1.21875,-0.75 l 0.09375,-7.6875 v -8.625 l 0.09375,-17.812497 q 0,-11.8125 -5.06250003,-19.5 -4.96874997,-7.6875 -14.15625037,-7.6875 -2.34375,0 -4.125,0.5625 z m 3.28125,6 q -1.3125,-2.15625 -3.46875,-2.90625 -2.15625,-0.84375 -4.40625,-1.03125 -1.875,1.125 -3.28125,3 0,6.65625 -2.625,9 -2.53125,2.34375 -2.53125,3.65625 l 3.1875,4.6875 h 3.65625 l 0.84375,1.875 -2.4375,1.96875 0.65625,1.21875 q 1.6875,-0.75 2.90625,-0.75 2.4375,0 4.3125,1.875 1.875,1.875 2.90625,4.3125 l 2.34375,-3.9375 q 2.4375,-4.6875 2.4375,-9.375 0,-3.375 -1.3125,-7.125 0.375,-0.9375 0.46875,-1.40625 0.75,-0.75 1.21875,-1.40625 0.5625004,-0.75 0.9375004,-1.78125 l -0.09375,-0.9375 q -0.4687504,-0.65625 -0.8437504,-0.9375 -0.28125,-0.28125 -1.03125,-0.46875 h -0.375 q -0.5625,0.28125 -0.9375,0.65625 l -1.21875,-0.1875 z m 10.8750004,-19.5 q 0,-4.40625 -2.90625,-7.59375 -2.9062504,-3.1875 -7.2187504,-3.1875 -4.5,0 -7.3125,3.28125 -2.71875,3.1875 -2.71875,7.875 0,4.21875 2.90625,6.9375 3,2.71875 7.3125,2.71875 4.3125,0 7.1250004,-2.8125 2.8125,-2.90625 2.8125,-7.21875 z m -16.5000004,25.5 q -3,1.125 -4.3125,1.125 -1.125,0 -1.125,-0.84375 0,-2.34375 1.96875,-2.34375 1.21875,0 3.46875,2.0625 z"
         id="path5594"
         inkscape:connector-curvature="0" />
    </g>
  </g>
</svg>
