<?xml version="1.0" encoding="UTF-8" standalone="no"?>
<!-- Created with Inkscape (http://www.inkscape.org/) -->

<svg
   xmlns:dc="http://purl.org/dc/elements/1.1/"
   xmlns:cc="http://creativecommons.org/ns#"
   xmlns:rdf="http://www.w3.org/1999/02/22-rdf-syntax-ns#"
   xmlns:svg="http://www.w3.org/2000/svg"
   xmlns="http://www.w3.org/2000/svg"
   xmlns:sodipodi="http://sodipodi.sourceforge.net/DTD/sodipodi-0.dtd"
   xmlns:inkscape="http://www.inkscape.org/namespaces/inkscape"
   width="19.174025mm"
   height="38.025585mm"
   viewBox="0 0 19.174025 38.025584"
   version="1.1"
   id="svg4525"
   inkscape:version="0.92.4 (5da689c313, 2019-01-14)"
   sodipodi:docname="C2A.svg">
  <defs
     id="defs4519" />
  <sodipodi:namedview
     id="base"
     pagecolor="#ffffff"
     bordercolor="#666666"
     borderopacity="1.0"
     inkscape:pageopacity="0.0"
     inkscape:pageshadow="2"
     inkscape:zoom="0.35"
     inkscape:cx="1209.946"
     inkscape:cy="-306.3298"
     inkscape:document-units="mm"
     inkscape:current-layer="layer1"
     showgrid="false"
     fit-margin-top="0"
     fit-margin-left="0"
     fit-margin-right="0"
     fit-margin-bottom="0"
     inkscape:window-width="1920"
     inkscape:window-height="1017"
     inkscape:window-x="-8"
     inkscape:window-y="-8"
     inkscape:window-maximized="1"
     showguides="false" />
  <metadata
     id="metadata4522">
    <rdf:RDF>
      <cc:Work
         rdf:about="">
        <dc:format>image/svg+xml</dc:format>
        <dc:type
           rdf:resource="http://purl.org/dc/dcmitype/StillImage" />
        <dc:title></dc:title>
      </cc:Work>
    </rdf:RDF>
  </metadata>
  <g
     inkscape:label="Layer 1"
     inkscape:groupmode="layer"
     id="layer1"
     transform="translate(407.44406,-29.757979)">
    <g
       aria-label="ð“€‰"
       style="font-style:normal;font-variant:normal;font-weight:normal;font-stretch:normal;font-size:50.79999924px;line-height:1.25;font-family:sans-serif;-inkscape-font-specification:sans-serif;font-variant-ligatures:normal;font-variant-caps:normal;font-variant-numeric:normal;font-feature-settings:normal;text-align:start;letter-spacing:0px;word-spacing:0px;writing-mode:lr-tb;text-anchor:start;fill:#000000;fill-opacity:1;stroke:none;stroke-width:0.26458332"
       id="text5105" />
    <g
       aria-label="ð“€†"
       transform="matrix(0.26458333,0,0,0.26458333,-199.96101,81.431167)"
       style="font-style:normal;font-variant:normal;font-weight:normal;font-stretch:normal;font-size:192px;line-height:1.25;font-family:sans-serif;-inkscape-font-specification:sans-serif;font-variant-ligatures:normal;font-variant-caps:normal;font-variant-numeric:normal;font-feature-settings:normal;text-align:start;letter-spacing:0px;word-spacing:0px;writing-mode:lr-tb;text-anchor:start;fill:#000000;fill-opacity:1;stroke:none"
       id="flowRoot5135" />
    <g
       aria-label="ð“•"
       transform="matrix(0.26458333,0,0,0.26458333,-390.48232,26.790778)"
       style="font-style:normal;font-variant:normal;font-weight:normal;font-stretch:normal;font-size:192px;line-height:1.25;font-family:sans-serif;-inkscape-font-specification:sans-serif;font-variant-ligatures:normal;font-variant-caps:normal;font-variant-numeric:normal;font-feature-settings:normal;text-align:start;letter-spacing:0px;word-spacing:0px;writing-mode:lr-tb;text-anchor:start;fill:#000000;fill-opacity:1;stroke:none"
       id="flowRoot5443" />
    <g
       aria-label="ð“œ"
       transform="matrix(0.26458333,0,0,0.26458333,-374.66622,26.104083)"
       style="font-style:normal;font-variant:normal;font-weight:normal;font-stretch:normal;font-size:192px;line-height:1.25;font-family:sans-serif;-inkscape-font-specification:sans-serif;font-variant-ligatures:normal;font-variant-caps:normal;font-variant-numeric:normal;font-feature-settings:normal;text-align:start;letter-spacing:0px;word-spacing:0px;writing-mode:lr-tb;text-anchor:start;fill:#000000;fill-opacity:1;stroke:none"
       id="flowRoot5476">
      <path
         d="m -87.603516,118.9975 q 0,-0.9375 0.9375,-17.15625 0.9375,-16.312501 6.46875,-21.843751 -0.75,-3.375 -5.0625,-8.34375 -4.3125,-5.0625 -5.25,-9.9375 -1.03125,-0.5625 -2.34375,-0.75 -1.21875,-0.1875 -2.4375,-0.1875 l -1.40625,-1.21875 q 0,-3.09375 1.3125,-4.59375 1.40625,-1.59375 3.46875,-2.71875 0.75,-2.4375 2.71875,-3.65625 1.96875,-1.3125 4.3125,-1.96875 -4.03125,-2.15625 -6.46875,-6.1875 -2.34375,-4.03125 -2.34375,-9.1875 0,-7.40625 4.96875,-12.375 4.96875,-5.0625 12.1875,-5.0625 7.21875,0 12.46875,5.25 5.25,5.15625 5.25,12.1875 0,5.4375 -2.90625,9.65625 -2.90625,4.21875 -7.40625,6.28125 8.25,3.5625 12.09375,12.28125 3.84375,8.71875 4.59375,22.125 l 1.03125,15.46875 q -0.46875,0.375 -0.84375,0.75 l -0.75,0.75 h -4.21875 q 0.1875,2.062501 0.28125,4.125001 0.09375,1.96875 0.09375,4.03125 0,9.1875 -1.5,18.375 -1.5,9.09375 -3.375,18.09375 l 3.9375,2.53125 q 2.90625,1.875 4.59375,4.5 1.78125,2.53125 1.78125,5.8125 -0.46875,0.375 -0.84375,0.75 l -0.75,0.75 h -69.468754 l -1.40625,-1.78125 q 0,-3.46875 1.875,-6.09375 1.875,-2.625 7.59375,-5.34375 1.5,-3.65625 1.5,-7.40625 0,-5.25 -3.375,-13.78125 -3.375,-8.53125 -3.375,-13.96875 0,-4.125 2.25,-9.375001 2.25,-5.25 5.34375,-5.25 6,0 11.25,4.59375 5.343754,4.500001 13.218754,19.875001 z m 21.1875,-67.031251 q 2.25,3.28125 2.25,7.125 0,3.65625 -2.0625,7.21875 -1.96875,3.46875 -6.75,6 -4.6875,2.4375 -4.6875,5.625 2.71875,-1.96875 6,-1.96875 l 0.75,0.75 q 0.375,0.375 0.84375,0.75 v 18.09375 h 1.5 v -17.8125 l 1.40625,-1.78125 q 2.4375,0 4.59375,0.75 2.15625,0.65625 3.5625,2.8125 0.28125,3.84375 0.75,7.96875 l 0.75,8.0625 h 2.90625 q 0,-0.1875 -1.21875,-17.71875 -1.125,-17.625 -10.59375,-25.875 z m -21.1875,8.8125 q 0.46875,3.75 3.75,7.96875 3.28125,4.125 4.125,5.53125 0.84375,-1.21875 2.15625,-2.25 1.3125,-1.03125 2.8125,-2.0625 l 3,-1.96875 q 2.4375,-1.6875 3.5625,-3.75 1.125,-2.15625 1.125,-4.59375 0,-4.6875 -3.5625,-7.78125 -3.5625,-3.09375 -8.71875,-3.09375 -3.9375,0 -6.1875,1.125 -2.25,1.125 -3,2.53125 l -0.46875,1.125 h -0.09375 q -0.28125,0.84375 -2.0625,1.875 -1.78125,1.03125 -2.625,2.4375 1.59375,0.1875 2.90625,0.5625 1.3125,0.28125 2.625,1.125 z m 3.1875,-7.96875 q 1.125,0 4.78125,1.78125 -3.28125,1.875 -4.78125,1.875 -1.40625,0 -1.40625,-1.875 z m -1.40625,4.125 q 0,0.1875 0.375,0.375 0.46875,0.09375 1.21875,0.09375 1.03125,0 3.09375,-0.9375 2.15625,-1.03125 3.46875,-1.875 l -2.4375,-1.21875 q -1.03125,-0.46875 -2.15625,-0.84375 -1.03125,-0.46875 -1.78125,-0.46875 -0.65625,0.28125 -1.21875,0.75 -0.5625,0.375 -1.03125,1.03125 l -0.5625,-0.9375 q 0.65625,-1.03125 2.15625,-1.875 1.5,-0.84375 5.53125,-0.84375 4.6875,0 7.6875,2.625 3,2.625 3,4.96875 0,3.65625 -3.1875,6.1875 -3.1875,2.4375 -7.875,3.5625 v -1.5 l 3.5625,-1.6875 q 1.78125,-0.84375 3.09375,-2.625 1.40625,-1.875 1.40625,-3.9375 0,-1.3125 -0.75,-1.96875 -0.75,-0.65625 -1.40625,-0.65625 -1.6875,0 -4.03125,1.21875 -2.25,1.125 -3.9375,2.0625 l -1.6875,8.0625 -2.0625,-7.59375 q -0.375,0 -0.84375,-0.375 -0.46875,-0.375 -0.5625,-0.5625 z m 9.375,-11.25 q 5.71875,0 10.125,-4.21875 4.5,-4.21875 4.5,-10.21875 0,-6 -4.5,-10.21875 -4.40625,-4.21875 -10.125,-4.21875 -5.8125,0 -10.03125,4.40625 -4.21875,4.40625 -4.21875,10.03125 0,5.625 4.21875,10.03125 4.21875,4.40625 10.03125,4.40625 z m -13.21875,76.312501 q -0.375,-0.84375 -5.625,-11.15625 -5.156254,-10.3125 -15.281254,-13.500001 -1.78125,0 -2.625,0.84375 l -0.375,0.65625 q -1.40625,2.812501 -2.25,5.250001 -0.84375,2.34375 -0.84375,5.4375 0,4.96875 3.375,13.40625 3.375,8.4375 3.375,13.59375 0,4.40625 -0.9375,7.5 -0.9375,3.09375 -5.25,4.78125 -4.3125,1.59375 -4.6875,5.71875 h 66.281254 q -0.5625,-3.65625 -4.875,-6.28125 -4.21875,-2.625 -4.59375,-2.90625 l -0.46875,-0.84375 q -0.28125,-0.375 -0.46875,-0.84375 1.96875,-9.75 3.46875,-18.65625 1.59375,-8.90625 1.59375,-18 v -2.71875 q 0,-1.875 -0.28125,-5.156251 -0.28125,-3.28125 -0.5625,-6.375 l -1.03125,-11.8125 q -0.75,-1.03125 -1.6875,-1.40625 -0.9375,-0.375 -2.15625,-0.46875 v 18 q -0.46875,0.375 -0.84375,0.75 l -0.75,0.75 h -4.5 l -1.40625,-1.78125 v -17.71875 q -5.25,2.0625 -7.59375,7.40625 -2.34375,5.34375 -3.09375,18.187501 -0.75,12.75 -0.9375,14.71875 -0.09375,1.96875 -3.28125,3.375 z"
         id="path5484"
         inkscape:connector-curvature="0" />
    </g>
  </g>
</svg>
