<?xml version="1.0" encoding="UTF-8" standalone="no"?>
<!-- Created with Inkscape (http://www.inkscape.org/) -->

<svg
   xmlns:dc="http://purl.org/dc/elements/1.1/"
   xmlns:cc="http://creativecommons.org/ns#"
   xmlns:rdf="http://www.w3.org/1999/02/22-rdf-syntax-ns#"
   xmlns:svg="http://www.w3.org/2000/svg"
   xmlns="http://www.w3.org/2000/svg"
   xmlns:sodipodi="http://sodipodi.sourceforge.net/DTD/sodipodi-0.dtd"
   xmlns:inkscape="http://www.inkscape.org/namespaces/inkscape"
   width="19.174036mm"
   height="38.025585mm"
   viewBox="0 0 19.174036 38.025584"
   version="1.1"
   id="svg4525"
   inkscape:version="0.92.4 (5da689c313, 2019-01-14)"
   sodipodi:docname="C2B.svg">
  <defs
     id="defs4519" />
  <sodipodi:namedview
     id="base"
     pagecolor="#ffffff"
     bordercolor="#666666"
     borderopacity="1.0"
     inkscape:pageopacity="0.0"
     inkscape:pageshadow="2"
     inkscape:zoom="0.35"
     inkscape:cx="1030.9734"
     inkscape:cy="-423.94753"
     inkscape:document-units="mm"
     inkscape:current-layer="layer1"
     showgrid="false"
     fit-margin-top="0"
     fit-margin-left="0"
     fit-margin-right="0"
     fit-margin-bottom="0"
     inkscape:window-width="1920"
     inkscape:window-height="1017"
     inkscape:window-x="-8"
     inkscape:window-y="-8"
     inkscape:window-maximized="1"
     showguides="false" />
  <metadata
     id="metadata4522">
    <rdf:RDF>
      <cc:Work
         rdf:about="">
        <dc:format>image/svg+xml</dc:format>
        <dc:type
           rdf:resource="http://purl.org/dc/dcmitype/StillImage" />
        <dc:title></dc:title>
      </cc:Work>
    </rdf:RDF>
  </metadata>
  <g
     inkscape:label="Layer 1"
     inkscape:groupmode="layer"
     id="layer1"
     transform="translate(360.09089,1.3617143)">
    <g
       aria-label="ð“€‰"
       style="font-style:normal;font-variant:normal;font-weight:normal;font-stretch:normal;font-size:50.79999924px;line-height:1.25;font-family:sans-serif;-inkscape-font-specification:sans-serif;font-variant-ligatures:normal;font-variant-caps:normal;font-variant-numeric:normal;font-feature-settings:normal;text-align:start;letter-spacing:0px;word-spacing:0px;writing-mode:lr-tb;text-anchor:start;fill:#000000;fill-opacity:1;stroke:none;stroke-width:0.26458332"
       id="text5105" />
    <g
       aria-label="ð“€†"
       transform="matrix(0.26458333,0,0,0.26458333,-199.96101,81.431167)"
       style="font-style:normal;font-variant:normal;font-weight:normal;font-stretch:normal;font-size:192px;line-height:1.25;font-family:sans-serif;-inkscape-font-specification:sans-serif;font-variant-ligatures:normal;font-variant-caps:normal;font-variant-numeric:normal;font-feature-settings:normal;text-align:start;letter-spacing:0px;word-spacing:0px;writing-mode:lr-tb;text-anchor:start;fill:#000000;fill-opacity:1;stroke:none"
       id="flowRoot5135" />
    <g
       aria-label="ð“•"
       transform="matrix(0.26458333,0,0,0.26458333,-390.48232,26.790778)"
       style="font-style:normal;font-variant:normal;font-weight:normal;font-stretch:normal;font-size:192px;line-height:1.25;font-family:sans-serif;-inkscape-font-specification:sans-serif;font-variant-ligatures:normal;font-variant-caps:normal;font-variant-numeric:normal;font-feature-settings:normal;text-align:start;letter-spacing:0px;word-spacing:0px;writing-mode:lr-tb;text-anchor:start;fill:#000000;fill-opacity:1;stroke:none"
       id="flowRoot5443" />
    <g
       aria-label="ð“"
       transform="matrix(0.26458333,0,0,0.26458333,-407.44406,29.757979)"
       style="font-style:normal;font-variant:normal;font-weight:normal;font-stretch:normal;font-size:192px;line-height:1.25;font-family:sans-serif;-inkscape-font-specification:sans-serif;font-variant-ligatures:normal;font-variant-caps:normal;font-variant-numeric:normal;font-feature-settings:normal;text-align:start;letter-spacing:0px;word-spacing:0px;writing-mode:lr-tb;text-anchor:start;fill:#000000;fill-opacity:1;stroke:none"
       id="flowRoot5487">
      <path
         d="m 215.16016,-12.430235 q 7.875,-15.375 13.125,-19.875 5.34375,-4.59375 11.34375,-4.59375 3.09375,0 5.34375,5.25 2.25,5.25 2.25,9.375 0,5.15625 -3.375,13.6874996 -3.375,8.53124996 -3.375,14.0625 0,3.75 1.5,7.4062504 5.71875,2.71875 7.59375,5.34375 1.875,2.625 1.875,6.09375 l -1.40625,1.78125 h -69.46875 l -0.75,-0.75 q -0.375,-0.375 -0.84375,-0.75 0,-3 1.5,-5.625 1.5,-2.71875 8.8125,-7.21875 -1.875,-9.0000004 -3.375,-18.0937504 -1.5,-9.1874996 -1.5,-18.3749996 0,-2.0625 0.0937,-4.03125 0.0937,-2.0625 0.28125,-4.125 h -4.21875 l -0.75,-0.75 q -0.375,-0.375 -0.84375,-0.75 l 0.9375,-15.46875 q 0.84375,-13.40625 4.6875,-22.125 3.84375,-8.71875 12.09375,-12.28125 -4.5,-2.0625 -7.40625,-6.28125 -2.90625,-4.21875 -2.90625,-9.656255 0,-7.3125 5.34375,-12.375 5.34375,-5.0625 12.375,-5.0625 7.21875,0 12.1875,5.0625 4.96875,4.96875 4.96875,12.375 0,5.156255 -2.4375,9.187505 -2.34375,4.03125 -6.375,6.1875 2.34375,0.65625 4.3125,1.96875 1.96875,1.21875 2.71875,3.65625 2.0625,1.125 3.375,2.71875 1.40625,1.5 1.40625,4.59375 l -1.40625,1.21875 q -1.21875,0 -2.53125,0.1875 -1.21875,0.1875 -2.25,0.75 -0.9375,4.875 -5.25,9.9375 -4.3125,4.96875 -5.0625,8.34375 5.53125,5.53125 6.46875,21.84375 0.9375,16.3125 0.9375,17.15625 z m -21.1875,-67.03125 q -9.46875,8.25 -10.6875,25.875 -1.125,17.53125 -1.125,17.71875 h 2.90625 l 0.84375,-8.0625 q 0.375,-4.125 0.65625,-7.96875 1.40625,-2.15625 3.5625,-2.8125 2.15625,-0.75 4.59375,-0.75 l 1.40625,1.78125 v 17.8125 h 1.5 v -18.09375 q 0.46875,-0.375 0.84375,-0.75 l 0.75,-0.75 q 3.28125,0 6,1.96875 0,-3.1875 -4.78125,-5.625 -4.6875,-2.53125 -6.75,-6 -1.96875,-3.5625 -1.96875,-7.21875 0,-3.84375 2.25,-7.125 z m 21.84375,7.59375 q 1.3125,-0.84375 2.625,-1.125 1.3125,-0.375 2.90625,-0.5625 -0.84375,-1.40625 -2.625,-2.4375 -1.78125,-1.03125 -2.0625,-1.875 l -0.5625,-1.125 q -0.75,-1.40625 -3,-2.53125 -2.25,-1.125 -6.1875,-1.125 -5.15625,0 -8.71875,3.09375 -3.5625,3.09375 -3.5625,7.78125 0,2.4375 1.125,4.59375 1.125,2.0625 3.5625,3.75 l 3,1.96875 q 1.5,1.03125 2.8125,2.0625 1.3125,1.03125 2.15625,2.25 0.84375,-1.40625 4.125,-5.53125 3.28125,-4.21875 3.75,-7.96875 z m -2.4375,-4.96875 q 0,1.875 -1.40625,1.875 -1.5,0 -4.78125,-1.875 3.65625,-1.78125 4.78125,-1.78125 z m 0.9375,3.375 q 0,0.1875 -0.375,0.375 -0.28125,0.1875 -1.03125,0.5625 l -2.0625,7.59375 -1.6875,-8.0625 q -1.6875,-0.9375 -4.03125,-2.0625 -2.25,-1.21875 -3.9375,-1.21875 -0.65625,0 -1.40625,0.65625 -0.75,0.65625 -0.75,1.96875 0,2.0625 1.3125,3.9375 1.40625,1.78125 3.1875,2.625 l 3.5625,1.6875 v 1.5 q -4.6875,-1.125 -7.875,-3.5625 -3.1875,-2.4375 -3.1875,-6.1875 0,-2.34375 3,-4.96875 3,-2.625 7.6875,-2.625 4.03125,0 5.53125,0.84375 1.5,0.84375 2.15625,1.875 l -0.5625,0.9375 -0.75,-0.75 -0.65625,-0.5625 q -0.375,-0.28125 -0.84375,-0.46875 -0.75,0 -1.875,0.46875 -1.03125,0.375 -2.0625,0.84375 l -2.4375,1.21875 q 1.21875,0.75 3.28125,1.78125 2.15625,1.03125 3.28125,1.03125 0.46875,0 0.9375,-0.09375 0.5625,-0.09375 0.65625,-0.375 z m -10.3125,-41.156255 q -5.71875,0 -10.21875,4.21875 -4.40625,4.21875 -4.40625,10.21875 0,6.000005 4.40625,10.218755 4.5,4.21875 10.21875,4.21875 5.8125,0 10.03125,-4.40625 4.21875,-4.40625 4.21875,-10.031255 0,-5.625 -4.21875,-10.03125 -4.21875,-4.40625 -10.03125,-4.40625 z m 13.21875,105.1875046 -1.6875,0.75 q -3.1875,-1.4062496 -3.375,-3.3749996 -0.0937,-1.96875 -0.84375,-14.71875 -0.75,-12.84375 -3.09375,-18.1875 -2.34375,-5.34375 -7.59375,-7.40625 v 17.71875 l -1.40625,1.78125 h -4.5 l -0.75,-0.75 q -0.375,-0.375 -0.84375,-0.75 v -18 q -1.21875,0 -2.15625,0.46875 -0.9375,0.375 -1.6875,1.40625 l -1.03125,11.8125 q -0.28125,3.09375 -0.5625,6.375 -0.1875,3.28125 -0.1875,5.15625 l -0.0937,2.71875 q 0,9.09375 1.5,17.9999996 1.59375,8.90625 3.5625,18.6562504 l -0.375,0.84375 -0.5625,0.84375 q -0.375,0.1875 -4.6875,2.90625 -4.21875,2.625 -4.78125,6.28125 h 66.28125 q -0.375,-4.125 -4.6875,-5.71875 -4.3125,-1.6875 -5.25,-4.78125 -0.9375,-3.0937504 -0.9375,-7.5000004 0,-5.34375004 3.375,-13.78125 3.375,-8.4374996 3.375,-13.2187496 0,-3.09375 -0.84375,-5.4375 -0.84375,-2.4375 -2.25,-5.25 l -0.375,-0.65625 q -0.84375,-0.84375 -2.625,-0.84375 -10.125,3.1875 -15.375,13.5 -5.15625,10.3125 -5.53125,11.1562496 z"
         id="path5495"
         inkscape:connector-curvature="0" />
    </g>
  </g>
</svg>
