<?xml version="1.0" encoding="UTF-8" standalone="no"?>
<!-- Created with Inkscape (http://www.inkscape.org/) -->

<svg
   xmlns:dc="http://purl.org/dc/elements/1.1/"
   xmlns:cc="http://creativecommons.org/ns#"
   xmlns:rdf="http://www.w3.org/1999/02/22-rdf-syntax-ns#"
   xmlns:svg="http://www.w3.org/2000/svg"
   xmlns="http://www.w3.org/2000/svg"
   xmlns:sodipodi="http://sodipodi.sourceforge.net/DTD/sodipodi-0.dtd"
   xmlns:inkscape="http://www.inkscape.org/namespaces/inkscape"
   width="20.860743mm"
   height="38.000782mm"
   viewBox="0 0 20.860743 38.000781"
   version="1.1"
   id="svg4525"
   inkscape:version="0.92.4 (5da689c313, 2019-01-14)"
   sodipodi:docname="C3.svg">
  <defs
     id="defs4519" />
  <sodipodi:namedview
     id="base"
     pagecolor="#ffffff"
     bordercolor="#666666"
     borderopacity="1.0"
     inkscape:pageopacity="0.0"
     inkscape:pageshadow="2"
     inkscape:zoom="0.35"
     inkscape:cx="593.02615"
     inkscape:cy="-124.89785"
     inkscape:document-units="mm"
     inkscape:current-layer="layer1"
     showgrid="false"
     fit-margin-top="0"
     fit-margin-left="0"
     fit-margin-right="0"
     fit-margin-bottom="0"
     inkscape:window-width="1920"
     inkscape:window-height="1017"
     inkscape:window-x="-8"
     inkscape:window-y="-8"
     inkscape:window-maximized="1"
     showguides="false" />
  <metadata
     id="metadata4522">
    <rdf:RDF>
      <cc:Work
         rdf:about="">
        <dc:format>image/svg+xml</dc:format>
        <dc:type
           rdf:resource="http://purl.org/dc/dcmitype/StillImage" />
        <dc:title></dc:title>
      </cc:Work>
    </rdf:RDF>
  </metadata>
  <g
     inkscape:label="Layer 1"
     inkscape:groupmode="layer"
     id="layer1"
     transform="translate(244.21734,-77.786651)">
    <g
       aria-label="ð“€‰"
       style="font-style:normal;font-variant:normal;font-weight:normal;font-stretch:normal;font-size:50.79999924px;line-height:1.25;font-family:sans-serif;-inkscape-font-specification:sans-serif;font-variant-ligatures:normal;font-variant-caps:normal;font-variant-numeric:normal;font-feature-settings:normal;text-align:start;letter-spacing:0px;word-spacing:0px;writing-mode:lr-tb;text-anchor:start;fill:#000000;fill-opacity:1;stroke:none;stroke-width:0.26458332"
       id="text5105" />
    <g
       aria-label="ð“€†"
       transform="matrix(0.26458333,0,0,0.26458333,-199.96101,81.431167)"
       style="font-style:normal;font-variant:normal;font-weight:normal;font-stretch:normal;font-size:192px;line-height:1.25;font-family:sans-serif;-inkscape-font-specification:sans-serif;font-variant-ligatures:normal;font-variant-caps:normal;font-variant-numeric:normal;font-feature-settings:normal;text-align:start;letter-spacing:0px;word-spacing:0px;writing-mode:lr-tb;text-anchor:start;fill:#000000;fill-opacity:1;stroke:none"
       id="flowRoot5135" />
    <g
       aria-label="ð“•"
       transform="matrix(0.26458333,0,0,0.26458333,-390.48232,26.790778)"
       style="font-style:normal;font-variant:normal;font-weight:normal;font-stretch:normal;font-size:192px;line-height:1.25;font-family:sans-serif;-inkscape-font-specification:sans-serif;font-variant-ligatures:normal;font-variant-caps:normal;font-variant-numeric:normal;font-feature-settings:normal;text-align:start;letter-spacing:0px;word-spacing:0px;writing-mode:lr-tb;text-anchor:start;fill:#000000;fill-opacity:1;stroke:none"
       id="flowRoot5443" />
    <g
       aria-label="ð“Ÿ"
       transform="matrix(0.26458333,0,0,0.26458333,-367.16591,9.0959003)"
       style="font-style:normal;font-variant:normal;font-weight:normal;font-stretch:normal;font-size:192px;line-height:1.25;font-family:sans-serif;-inkscape-font-specification:sans-serif;font-variant-ligatures:normal;font-variant-caps:normal;font-variant-numeric:normal;font-feature-settings:normal;text-align:start;letter-spacing:0px;word-spacing:0px;writing-mode:lr-tb;text-anchor:start;fill:#000000;fill-opacity:1;stroke:none"
       id="flowRoot5509">
      <path
         d="m 476.5,312.39984 -2.90625,-0.84375 q 3.9375,-13.21875 9.65625,-22.3125 5.8125,-9.1875 15,-16.96875 2.4375,-6 7.3125,-9.28125 4.96875,-3.375 11.34375,-3.375 12.9375,0 19.78125,11.25 6.84375,11.15625 6.84375,39 0,2.8125 -0.0937,5.53125 l -0.5625,18.5625 q 0,1.21875 0.28125,2.34375 l -1.5,1.96875 h -4.0313 v 7.125 q 0,10.6875 -1.40625,21.1875 -1.40625,10.40625 -3.46875,20.90625 l 4.6875,3.75 q 2.90625,2.4375 4.03125,4.40625 1.21875,1.96875 1.78125,6.09375 -0.46875,0.375 -0.84375,0.75 l -0.75,0.75 h -75.5625 l -1.40625,-1.78125 q 0.5625,-3.1875 2.34375,-5.8125 1.78125,-2.625 8.53125,-6.9375 0.9375,-2.25 1.3125,-4.59375 0.375,-2.4375 0.375,-4.875 0,-3.1875 -0.75,-7.21875 -0.65625,-4.03125 -2.0625,-8.53125 l -1.6875,-5.53125 q -0.84375,-2.8125 -1.40625,-5.71875 -0.5625,-3 -0.5625,-5.8125 0,-4.40625 2.4375,-7.78125 2.53125,-3.375 6.5625,-3.375 4.3125,0 9.5625,3.5625 5.34375,3.5625 7.875,8.0625 2.625,4.5 6.46875,13.21875 0.5625,0.375 0.84375,0.46875 l 0.84375,-0.1875 q 0.5625,-4.3125 1.125,-19.03125 0.65625,-14.8125 6.1875,-22.78125 -1.3125,-2.15625 -1.875,-4.3125 -0.5625,-2.15625 -0.5625,-4.40625 0,-3.84375 2.0625,-12.75 2.15625,-9 2.15625,-13.03125 -1.40625,-2.90625 -3.46875,-4.3125 -1.96875,-1.40625 -9.46875,-1.40625 -13.96875,12.09375 -18.375,19.03125 -4.40625,6.84375 -6.65625,15 z m 38.8125,7.125 q -4.96875,5.8125 -5.71875,20.25 -0.65625,14.4375 -1.40625,22.125 -0.46875,0.84375 -1.40625,1.3125 -0.84375,0.375 -1.875,0.375 -3.09375,0 -4.21875,-2.625 -1.03125,-2.71875 -3.9375,-8.625 -2.90625,-6 -7.125,-9.9375 -4.125,-4.03125 -9.84375,-4.03125 -3.09375,0 -4.6875,2.71875 -1.5,2.71875 -1.5,6.375 0,5.53125 3.28125,14.34375 3.28125,8.71875 3.28125,18.1875 0,10.78125 -4.875,12.84375 -4.875,1.96875 -7.125,7.40625 h 72 q -0.375,-2.25 -2.34375,-4.5 -1.96875,-2.25 -4.6875,-4.3125 l -3,-2.15625 q 0,-0.46875 -0.46875,-1.40625 2.0625,-10.59375 3.46875,-21.09375 1.5,-10.59375 1.5,-21.46875 0,-6.1875 -0.75,-12.75 -0.65625,-6.65625 -1.125,-13.40625 -0.5625,-0.84375 -1.59375,-1.40625 -0.9375,-0.5625 -2.15625,-0.5625 v 19.59375 l -1.59375,1.5 h -5.34375 l -1.40625,-1.6875 v -19.3125 L 520,317.46234 q -0.375,0 -1.21875,0.5625 l -1.96875,-0.1875 q -0.84375,-1.03125 -1.59375,-3.9375 -0.75,-3 -0.75,-4.5 0,-3.46875 1.21875,-7.875 l 2.53125,-9.1875 q 1.3125,-4.875 2.4375,-9.9375 1.21875,-5.15625 1.21875,-10.125 -0.1875,-2.4375 -1.03125,-4.875 -0.75,-2.4375 -2.71875,-4.96875 -5.25,0 -9.75,2.25 -4.40625,2.15625 -6.5625,6.75 l -0.84375,1.59375 q -0.65625,1.21875 -5.0625,5.0625 -4.3125,3.75 -8.90625,9.75 l 8.0625,-7.40625 q 5.15625,-4.78125 5.8125,-4.96875 0.75,-0.28125 1.875,-0.28125 7.5,0 10.40625,2.34375 3,2.25 4.40625,6.5625 0,3.46875 -2.15625,11.90625 -2.15625,8.34375 -2.15625,13.59375 0,2.15625 0.28125,4.21875 0.28125,1.96875 1.78125,3.84375 z m 21.9375,15.75 h 2.71875 q 0,-0.5625 -0.0937,-1.3125 v -1.6875 q 0,-2.53125 0.0937,-6 l 0.5625,-13.78125 q 0,-3.28125 0.0937,-5.625 0,-19.96875 -4.59375,-30.75 -4.59375,-10.875 -13.875,-13.21875 1.59375,2.625 2.15625,5.25 0.65625,2.625 0.65625,5.53125 0,6.9375 -3.75,18.65625 -3.75,11.625 -3.84375,16.40625 0,1.21875 0.0937,3 0.1875,1.78125 0.75,3.09375 0.5625,-0.28125 1.40625,-0.46875 0.84375,-0.28125 2.4375,-0.28125 l 1.59375,1.5 v 19.6875 H 526 v -19.40625 l 1.40625,-1.78125 q 2.71875,0 4.59375,0.84375 1.875,0.84375 3.46875,2.71875 z m -22.6875,-66.5625 q -2.25,2.25 -3.375,2.25 -1.125,0 -1.125,-2.25 0,-2.25 1.125,-2.25 1.125,0 3.375,2.25 z"
         id="path5517"
         inkscape:connector-curvature="0" />
    </g>
  </g>
</svg>
