<?xml version="1.0" encoding="UTF-8" standalone="no"?>
<!-- Created with Inkscape (http://www.inkscape.org/) -->

<svg
   xmlns:dc="http://purl.org/dc/elements/1.1/"
   xmlns:cc="http://creativecommons.org/ns#"
   xmlns:rdf="http://www.w3.org/1999/02/22-rdf-syntax-ns#"
   xmlns:svg="http://www.w3.org/2000/svg"
   xmlns="http://www.w3.org/2000/svg"
   xmlns:sodipodi="http://sodipodi.sourceforge.net/DTD/sodipodi-0.dtd"
   xmlns:inkscape="http://www.inkscape.org/namespaces/inkscape"
   width="20.389452mm"
   height="37.926365mm"
   viewBox="0 0 20.389452 37.926365"
   version="1.1"
   id="svg25333"
   inkscape:version="0.92.4 (5da689c313, 2019-01-14)"
   sodipodi:docname="C7.svg">
  <defs
     id="defs25327" />
  <sodipodi:namedview
     id="base"
     pagecolor="#ffffff"
     bordercolor="#666666"
     borderopacity="1.0"
     inkscape:pageopacity="0.0"
     inkscape:pageshadow="2"
     inkscape:zoom="0.35"
     inkscape:cx="-354.68834"
     inkscape:cy="-391.90305"
     inkscape:document-units="mm"
     inkscape:current-layer="layer1"
     showgrid="false"
     fit-margin-top="0"
     fit-margin-left="0"
     fit-margin-right="0"
     fit-margin-bottom="0"
     inkscape:window-width="1920"
     inkscape:window-height="1017"
     inkscape:window-x="-8"
     inkscape:window-y="-8"
     inkscape:window-maximized="1" />
  <metadata
     id="metadata25330">
    <rdf:RDF>
      <cc:Work
         rdf:about="">
        <dc:format>image/svg+xml</dc:format>
        <dc:type
           rdf:resource="http://purl.org/dc/dcmitype/StillImage" />
        <dc:title></dc:title>
      </cc:Work>
    </rdf:RDF>
  </metadata>
  <g
     inkscape:label="Layer 1"
     inkscape:groupmode="layer"
     id="layer1"
     transform="translate(-6.5321228,-7.2159515)">
    <g
       aria-label="ð“£"
       transform="matrix(0.26458333,0,0,0.26458333,13.607143,-21.166667)"
       style="font-style:normal;font-variant:normal;font-weight:normal;font-stretch:normal;font-size:192px;line-height:1.25;font-family:sans-serif;-inkscape-font-specification:'sans-serif, Normal';font-variant-ligatures:normal;font-variant-caps:normal;font-variant-numeric:normal;font-feature-settings:normal;text-align:start;letter-spacing:0px;word-spacing:0px;writing-mode:lr-tb;text-anchor:start;fill:#000000;fill-opacity:1;stroke:none"
       id="flowRoot25878">
      <path
         d="m 34.103516,141.02289 q 10.3125,3.84375 13.125,23.8125 2.90625,19.875 3.09375,20.8125 -0.46875,0.375 -0.84375,0.75 l -0.75,0.75 h -4.21875 q 0,1.59375 0.09375,3 0.09375,1.3125 0.09375,4.3125 0,10.21875 -1.40625,20.34375 -1.40625,10.125 -3.375,20.0625 l 3.65625,2.8125 q 3.1875,2.53125 4.96875,5.34375 1.78125,2.71875 1.78125,6.09375 -0.46875,0.375 -0.84375,0.75 l -0.75,0.75 h -74.0625 l -1.40625,-1.78125 q 0.65625,-3.28125 2.53125,-5.8125 1.875,-2.625 4.59375,-4.5 l 3.75,-2.53125 q 1.59375,-4.40625 1.59375,-9.375 0,-6.46875 -3.1875,-18.09375 -3.1875,-11.71875 -3.1875,-14.15625 0,-4.875 2.625,-7.40625 2.71875,-2.625 6.1875,-2.625 5.9999996,0 11.34374962,5.25 5.34374998,5.15625 11.25000038,19.40625 0.5625,0.375 0.84375,0.46875 l 0.9375,-0.375 0.65625,-13.59375 h -0.09375 q 0.46875,-8.625 1.875,-16.03125 1.5,-7.5 5.0625,-11.0625 l -0.46875,-2.4375 q -0.375,-1.6875 -0.84375,-5.15625 -0.375,-3.5625 -3.09375,-3.9375 -5.4375,1.40625 -10.5937504,4.125 -5.06249998,2.625 -11.25,6.1875 l -1.40625,0.1875 q -0.75,-0.46875 -1.59375,-0.75 -0.75,-0.375 -1.4999996,-0.75 l -0.75,-2.15625 q 0.9375,-1.78125 2.0624996,-3.46875 l 2.15625,-3.28125 q 6.46875003,-9.375 12.84375,-14.15625 6.3750004,-4.78125 14.7187504,-6.75 0.1875,-1.6875 0.28125,-3.375 0.09375,-1.78125 0.09375,-3.5625 0,-5.15625 -0.65625,-10.21875 -0.65625,-5.0625 -1.40625,-10.125 0.5625,-0.46875 1.125,-0.75 0.65625,-0.375 1.21875,-0.75 3.65625,2.71875 5.90625,6.5625 l 0.84375,-5.625 2.71875,-0.65625 q 3.5625,3.375 4.96875,6.65625 1.40625,3.28125 1.40625,6.75 0,4.40625 -2.15625,11.625 -2.0625,7.21875 -2.25,8.0625 z m 5.71875,28.40625 q -0.46875,-0.65625 -1.6875,-1.3125 -1.125,-0.65625 -2.90625,-0.65625 v 18.1875 l -1.59375,1.5 h -4.5 l -1.40625,-1.78125 v -17.8125 q -2.34375,0 -5.34375,2.8125 -2.90625,2.71875 -4.5,10.03125 -1.59375,7.3125 -1.875,17.625 -0.1875,10.21875 -0.9375,12.375 -0.75,2.15625 -3.375,2.15625 -1.7812504,0 -2.8125004,-1.3125 -0.9375,-1.40625 -1.59375,-2.90625 l -3,-6.65625 q -2.8125,-6.09375 -6.9375,-10.21875 -4.125,-4.21875 -8.9999996,-4.21875 -2.53125,0 -4.3125,2.4375 -1.78125,2.34375 -1.78125,5.25 0,1.6875 3.28125,13.6875 3.28125,11.90625 3.28125,19.3125 0,3.9375 -0.84375,6.46875 -0.75,2.53125 -1.3125,3.28125 -0.46875,0.65625 -2.90625,2.25 l -2.25,1.5 q -2.4375,1.59375 -3.375,3.1875 -0.9375,1.59375 -1.40625,3 h 70.5 q -0.375,-2.34375 -2.15625,-4.40625 -1.78125,-2.15625 -4.78125,-4.40625 l -3.09375,-2.15625 q 0,-0.46875 -0.46875,-1.40625 2.15625,-10.40625 3.5625,-20.8125 1.40625,-10.40625 1.40625,-22.03125 l -0.46875,-7.6875 -0.46875,-5.625 z m -17.8125,-30.65625 q -12.0937504,2.8125 -19.5000004,10.875 -7.3125,7.96875 -10.6875,14.15625 0.5625,0 1.03125,0.46875 4.21875,-2.4375 8.4375,-4.6875 4.21875,-2.25 8.8125004,-4.125 l 2.8125,-1.03125 q 1.5,-0.5625 3.1875,-0.5625 2.25,0 3.75,1.875 1.5,1.875 2.4375,7.6875 l 3.375,-7.6875 q 3.1875,-7.5 3.28125,-11.71875 0.1875,-4.21875 2.53125,-11.4375 2.4375,-7.3125 2.4375,-11.8125 0,-2.34375 -0.84375,-4.59375 -0.75,-2.25 -2.8125,-4.59375 l -1.125,7.5 q -1.125,4.78125 -2.625,9.5625 -1.40625,4.6875 -3.46875,9.09375 z m 9.9375,4.875 q 0,3.375 -1.125,6.84375 -1.03125,3.375 -2.4375,6.5625 l -1.125,2.4375 -1.78125,3.46875 q -0.46875,0.9375 -1.125,2.4375 0.5625,-0.1875 1.96875,-0.5625 1.5,-0.375 2.8125,-0.375 l 1.59375,1.5 v 18.1875 h 1.5 v -18 l 0.65625,-0.84375 q 0.28125,-0.375 0.5625,-0.65625 3.9375,0 6.46875,1.40625 2.53125,1.3125 2.90625,2.90625 l 1.40625,15.1875 h 2.8125 q -0.1875,-0.9375 -3,-18.65625 -2.8125,-17.8125 -10.40625,-21.46875 z m -9.75,-31.3125 q 0.5625,3.84375 0.9375,7.875 0.375,3.9375 0.46875,7.96875 0.75,-2.25 1.3125,-4.5 0.65625,-2.25 1.125,-4.5 -0.65625,-1.875 -1.59375,-3.5625 -0.9375,-1.6875 -2.25,-3.28125 z m -6.5625,34.03125 q -2.34375,1.78125 -3.46875,1.78125 -1.125,0 -1.125,-1.78125 0,-1.6875 1.125,-1.6875 1.21875,0 3.46875,1.6875 z"
         id="path25886"
         inkscape:connector-curvature="0" />
    </g>
  </g>
</svg>
