<?xml version="1.0" encoding="UTF-8" standalone="no"?>
<!-- Created with Inkscape (http://www.inkscape.org/) -->

<svg
   xmlns:dc="http://purl.org/dc/elements/1.1/"
   xmlns:cc="http://creativecommons.org/ns#"
   xmlns:rdf="http://www.w3.org/1999/02/22-rdf-syntax-ns#"
   xmlns:svg="http://www.w3.org/2000/svg"
   xmlns="http://www.w3.org/2000/svg"
   xmlns:sodipodi="http://sodipodi.sourceforge.net/DTD/sodipodi-0.dtd"
   xmlns:inkscape="http://www.inkscape.org/namespaces/inkscape"
   width="37.207031mm"
   height="26.838671mm"
   viewBox="0 0 37.20703 26.838669"
   version="1.1"
   id="svg4525"
   inkscape:version="0.92.4 (5da689c313, 2019-01-14)"
   sodipodi:docname="D10.svg">
  <defs
     id="defs4519" />
  <sodipodi:namedview
     id="base"
     pagecolor="#ffffff"
     bordercolor="#666666"
     borderopacity="1.0"
     inkscape:pageopacity="0.0"
     inkscape:pageshadow="2"
     inkscape:zoom="0.35"
     inkscape:cx="1383.5203"
     inkscape:cy="-250.1021"
     inkscape:document-units="mm"
     inkscape:current-layer="layer1"
     showgrid="false"
     fit-margin-top="0"
     fit-margin-left="0"
     fit-margin-right="0"
     fit-margin-bottom="0"
     inkscape:window-width="1920"
     inkscape:window-height="1017"
     inkscape:window-x="-8"
     inkscape:window-y="-8"
     inkscape:window-maximized="1"
     showguides="false" />
  <metadata
     id="metadata4522">
    <rdf:RDF>
      <cc:Work
         rdf:about="">
        <dc:format>image/svg+xml</dc:format>
        <dc:type
           rdf:resource="http://purl.org/dc/dcmitype/StillImage" />
        <dc:title></dc:title>
      </cc:Work>
    </rdf:RDF>
  </metadata>
  <g
     inkscape:label="Layer 1"
     inkscape:groupmode="layer"
     id="layer1"
     transform="translate(453.36892,-55.821806)">
    <g
       aria-label="ð“€‰"
       style="font-style:normal;font-variant:normal;font-weight:normal;font-stretch:normal;font-size:50.79999924px;line-height:1.25;font-family:sans-serif;-inkscape-font-specification:sans-serif;font-variant-ligatures:normal;font-variant-caps:normal;font-variant-numeric:normal;font-feature-settings:normal;text-align:start;letter-spacing:0px;word-spacing:0px;writing-mode:lr-tb;text-anchor:start;fill:#000000;fill-opacity:1;stroke:none;stroke-width:0.26458332"
       id="text5105" />
    <g
       aria-label="ð“€†"
       transform="matrix(0.26458333,0,0,0.26458333,-199.96101,81.431167)"
       style="font-style:normal;font-variant:normal;font-weight:normal;font-stretch:normal;font-size:192px;line-height:1.25;font-family:sans-serif;-inkscape-font-specification:sans-serif;font-variant-ligatures:normal;font-variant-caps:normal;font-variant-numeric:normal;font-feature-settings:normal;text-align:start;letter-spacing:0px;word-spacing:0px;writing-mode:lr-tb;text-anchor:start;fill:#000000;fill-opacity:1;stroke:none"
       id="flowRoot5135" />
    <g
       aria-label="ð“•"
       transform="matrix(0.26458333,0,0,0.26458333,-390.48232,26.790778)"
       style="font-style:normal;font-variant:normal;font-weight:normal;font-stretch:normal;font-size:192px;line-height:1.25;font-family:sans-serif;-inkscape-font-specification:sans-serif;font-variant-ligatures:normal;font-variant-caps:normal;font-variant-numeric:normal;font-feature-settings:normal;text-align:start;letter-spacing:0px;word-spacing:0px;writing-mode:lr-tb;text-anchor:start;fill:#000000;fill-opacity:1;stroke:none"
       id="flowRoot5443" />
    <g
       aria-label="ð“«"
       transform="matrix(-0.26458333,0,0,0.26458333,-248.60777,-63.953969)"
       style="font-style:normal;font-variant:normal;font-weight:normal;font-stretch:normal;font-size:192px;line-height:1.25;font-family:sans-serif;-inkscape-font-specification:sans-serif;font-variant-ligatures:normal;font-variant-caps:normal;font-variant-numeric:normal;font-feature-settings:normal;text-align:start;letter-spacing:0px;word-spacing:0px;writing-mode:lr-tb;text-anchor:start;fill:#000000;fill-opacity:1;stroke:none"
       id="flowRoot5553" />
    <g
       aria-label="ð“‚€"
       transform="matrix(0.26458333,0,0,0.26458333,-432.68646,83.607334)"
       style="font-style:normal;font-variant:normal;font-weight:normal;font-stretch:normal;font-size:192px;line-height:1.25;font-family:sans-serif;-inkscape-font-specification:sans-serif;font-variant-ligatures:normal;font-variant-caps:normal;font-variant-numeric:normal;font-feature-settings:normal;text-align:start;letter-spacing:0px;word-spacing:0px;writing-mode:lr-tb;text-anchor:start;fill:#000000;fill-opacity:1;stroke:none"
       id="flowRoot5652">
      <path
         d="m 62.267578,-62.547423 q -0.75,0 -1.59375,0 -0.84375,-0.09375 -1.875,-0.1875 l -4.96875,-0.375 q -2.8125,-0.1875 -4.96875,-0.375 -2.0625,-0.1875 -3.5625,-0.1875 -5.34375,0 -13.03125,0.5625 -7.6875,0.46875 -17.90625,2.0625 -10.1249999,1.59375 -17.8124999,2.71875 -7.5937501,1.03125 -12.6562501,1.3125 10.1250001,12.46875 16.87500012,20.25 6.74999998,7.78125 10.21874988,11.0625 18.375,17.4375001 35.25,17.4375001 12.1875,0 12.1875,-12.1875001 0,-6.75 -7.78125,-6.75 -5.0625,0 -5.0625,3.65625 0,2.15625 3.09375,2.15625 l 1.78125,-0.1875 v 3.75 h -2.8125 q -6.46875,0 -6.46875,-5.625 0,-7.59375 9.375,-7.59375 11.8125,0 11.8125,10.59375 0,6.84375 -4.40625,11.5312501 -4.3125,4.59375 -11.53125,4.59375 -11.53125,0 -23.25,-6.8437501 -11.71875,-6.9375 -22.49999988,-18.9375 -5.34375002,-6.09375 -11.06250012,-12.65625 -5.625,-6.5625 -11.8125,-13.78125 v 52.9687501 h -4.3125 q 0,-17.7187501 -7.5,-33.1875001 4.21875,-6.9375 4.3125,-10.125 0.09375,-1.6875 0.09375,-4.03125 0.09375,-2.34375 0.09375,-5.71875 -3.9375,-0.46875 -9.46875,-1.40625 -5.53125,-1.03125 -12.28125,-2.34375 -13.5,-2.53125 -20.71875,-2.53125 -1.6875,0 -3.28125,0.09375 -1.5,0.09375 -2.90625,0.28125 0.9375,-0.9375 4.21875,-2.15625 3.28125,-1.3125 7.78125,-2.625 10.6875,-13.59375 20.25,-19.78125 9.5625,-6.1875 19.21875,-6.1875 7.03125,0 16.5,2.625 9.56250013,2.625 21.84375,8.4375 12.28125,5.71875 20.90625,9.1875 8.71875,3.46875 14.15625,5.25 5.4375,1.78125 9.28125,3.09375 3.84375,1.21875 6.28125,2.15625 z m 0.1875,-18.09375 q -15.09375,0 -43.875,-9.84375 -28.6875,-9.843747 -43.875,-9.843747 -14.53125,0 -30.09375,5.062497 -15.5625,5.0625 -22.78125,13.125 v -4.6875 q 3.84375,-4.5 10.3125,-7.875 6.5625,-3.46875 14.0625,-5.718747 7.5,-2.34375 15,-3.46875 7.59375,-1.125 13.5,-1.125 15.6562501,0 44.625,10.312497 14.53125,5.15625 25.21875,7.6875 10.78125,2.4375 17.90625,2.8125 z m -101.90625,5.71875 q 0,5.0625 4.03125,9.375 4.03125,4.3125 8.90625,4.3125 6.5625,0 10.96875,-4.03125 4.5,-4.03125 4.5,-9.65625 0,-6 -4.5,-9.84375 -4.40625,-3.84375 -9.5625,-3.84375 -6.65625,0 -10.5,4.125 -3.84375,4.125 -3.84375,9.5625 z m 27.5625,12.75 q 2.1562501,-0.1875 7.1250001,-0.84375 4.96875003,-0.75 12.5625,-1.78125 14.9999999,-2.25 24.1874999,-2.25 -12.28125,-6.75 -22.7812499,-11.34375 -10.5,-4.6875 -19.03125,-7.3125 3.46875,4.3125 3.46875,10.78125 0,7.5 -5.5312501,12.75 z m -48.75,-4.6875 q 6.09375,1.59375 11.53125,2.71875 5.4375,1.03125 9.9375,1.78125 -4.96875,-5.53125 -4.96875,-12.5625 0,-5.0625 2.25,-9.1875 -4.5,2.53125 -9.09375,6.9375 -4.59375,4.40625 -9.65625,10.3125 z"
         id="path5660"
         inkscape:connector-curvature="0" />
    </g>
  </g>
</svg>
