<?xml version="1.0" encoding="UTF-8" standalone="no"?>
<!-- Created with Inkscape (http://www.inkscape.org/) -->

<svg
   xmlns:dc="http://purl.org/dc/elements/1.1/"
   xmlns:cc="http://creativecommons.org/ns#"
   xmlns:rdf="http://www.w3.org/1999/02/22-rdf-syntax-ns#"
   xmlns:svg="http://www.w3.org/2000/svg"
   xmlns="http://www.w3.org/2000/svg"
   xmlns:sodipodi="http://sodipodi.sourceforge.net/DTD/sodipodi-0.dtd"
   xmlns:inkscape="http://www.inkscape.org/namespaces/inkscape"
   width="13.047265mm"
   height="13.047265mm"
   viewBox="0 0 13.047265 13.047265"
   version="1.1"
   id="svg5097"
   inkscape:version="0.92.4 (5da689c313, 2019-01-14)"
   sodipodi:docname="D12.svg">
  <defs
     id="defs5091" />
  <sodipodi:namedview
     id="base"
     pagecolor="#ffffff"
     bordercolor="#666666"
     borderopacity="1.0"
     inkscape:pageopacity="0.0"
     inkscape:pageshadow="2"
     inkscape:zoom="0.35"
     inkscape:cx="-334.6875"
     inkscape:cy="-373.40305"
     inkscape:document-units="mm"
     inkscape:current-layer="layer1"
     showgrid="false"
     fit-margin-top="0"
     fit-margin-left="0"
     fit-margin-right="0"
     fit-margin-bottom="0"
     inkscape:window-width="1920"
     inkscape:window-height="1017"
     inkscape:window-x="-8"
     inkscape:window-y="-8"
     inkscape:window-maximized="1" />
  <metadata
     id="metadata5094">
    <rdf:RDF>
      <cc:Work
         rdf:about="">
        <dc:format>image/svg+xml</dc:format>
        <dc:type
           rdf:resource="http://purl.org/dc/dcmitype/StillImage" />
        <dc:title></dc:title>
      </cc:Work>
    </rdf:RDF>
  </metadata>
  <g
     inkscape:label="Layer 1"
     inkscape:groupmode="layer"
     id="layer1"
     transform="translate(-1.2402344,-36.989845)">
    <g
       aria-label="𓂂"
       transform="scale(0.26458333)"
       style="font-style:normal;font-variant:normal;font-weight:normal;font-stretch:normal;font-size:192px;line-height:1.25;font-family:sans-serif;-inkscape-font-specification:'sans-serif, Normal';font-variant-ligatures:normal;font-variant-caps:normal;font-variant-numeric:normal;font-feature-settings:normal;text-align:start;letter-spacing:0px;word-spacing:0px;writing-mode:lr-tb;text-anchor:start;fill:#000000;fill-opacity:1;stroke:none"
       id="flowRoot5642">
      <path
         d="m 4.6875,164.46039 q 0,-5.15625 1.875,-9.65625 1.96875,-4.5 5.25,-7.78125 3.375,-3.375 7.875,-5.25 4.5,-1.96875 9.65625,-1.96875 5.15625,0 9.65625,1.96875 4.5,1.875 7.78125,5.25 3.375,3.28125 5.25,7.78125 1.96875,4.5 1.96875,9.65625 0,5.15625 -1.96875,9.65625 -1.875,4.5 -5.25,7.875 -3.28125,3.28125 -7.78125,5.25 -4.5,1.875 -9.65625,1.875 -5.15625,0 -9.65625,-1.875 -4.5,-1.96875 -7.875,-5.25 -3.28125,-3.375 -5.25,-7.875 -1.875,-4.5 -1.875,-9.65625 z m 4.6875,0 q 0,4.125 1.5,7.78125 1.59375,3.65625 4.3125,6.375 2.71875,2.71875 6.375,4.3125 3.65625,1.5 7.78125,1.5 4.125,0 7.78125,-1.5 3.65625,-1.59375 6.375,-4.3125 2.71875,-2.71875 4.21875,-6.375 1.59375,-3.65625 1.59375,-7.78125 0,-4.125 -1.59375,-7.78125 -1.5,-3.65625 -4.21875,-6.375 -2.71875,-2.71875 -6.375,-4.21875 -3.65625,-1.59375 -7.78125,-1.59375 -4.125,0 -7.78125,1.59375 -3.65625,1.5 -6.375,4.21875 -2.71875,2.71875 -4.3125,6.375 -1.5,3.65625 -1.5,7.78125 z"
         id="path5650"
         inkscape:connector-curvature="0" />
    </g>
  </g>
</svg>
