<?xml version="1.0" encoding="UTF-8" standalone="no"?>
<!-- Created with Inkscape (http://www.inkscape.org/) -->

<svg
   xmlns:dc="http://purl.org/dc/elements/1.1/"
   xmlns:cc="http://creativecommons.org/ns#"
   xmlns:rdf="http://www.w3.org/1999/02/22-rdf-syntax-ns#"
   xmlns:svg="http://www.w3.org/2000/svg"
   xmlns="http://www.w3.org/2000/svg"
   xmlns:sodipodi="http://sodipodi.sourceforge.net/DTD/sodipodi-0.dtd"
   xmlns:inkscape="http://www.inkscape.org/namespaces/inkscape"
   width="36.586914mm"
   height="18.628321mm"
   viewBox="0 0 36.586914 18.628321"
   version="1.1"
   id="svg6783"
   inkscape:version="0.92.4 (5da689c313, 2019-01-14)"
   sodipodi:docname="D15.svg">
  <defs
     id="defs6777" />
  <sodipodi:namedview
     id="base"
     pagecolor="#ffffff"
     bordercolor="#666666"
     borderopacity="1.0"
     inkscape:pageopacity="0.0"
     inkscape:pageshadow="2"
     inkscape:zoom="0.35"
     inkscape:cx="-324.28516"
     inkscape:cy="-344.83274"
     inkscape:document-units="mm"
     inkscape:current-layer="layer1"
     showgrid="false"
     fit-margin-top="0"
     fit-margin-left="0"
     fit-margin-right="0"
     fit-margin-bottom="0"
     inkscape:window-width="1920"
     inkscape:window-height="1017"
     inkscape:window-x="-8"
     inkscape:window-y="-8"
     inkscape:window-maximized="1" />
  <metadata
     id="metadata6780">
    <rdf:RDF>
      <cc:Work
         rdf:about="">
        <dc:format>image/svg+xml</dc:format>
        <dc:type
           rdf:resource="http://purl.org/dc/dcmitype/StillImage" />
        <dc:title></dc:title>
      </cc:Work>
    </rdf:RDF>
  </metadata>
  <g
     inkscape:label="Layer 1"
     inkscape:groupmode="layer"
     id="layer1"
     transform="translate(1.5120524,-38.968018)">
    <g
       aria-label="𓂅"
       transform="scale(0.26458333)"
       style="font-style:normal;font-variant:normal;font-weight:normal;font-stretch:normal;font-size:192px;line-height:1.25;font-family:sans-serif;-inkscape-font-specification:'sans-serif, Normal';font-variant-ligatures:normal;font-variant-caps:normal;font-variant-numeric:normal;font-feature-settings:normal;text-align:start;letter-spacing:0px;word-spacing:0px;writing-mode:lr-tb;text-anchor:start;fill:#000000;fill-opacity:1;stroke:none"
       id="flowRoot7328">
      <path
         d="m 120.47266,184.31195 q 6.09375,0 9.09375,3.09375 3,3.09375 3,8.4375 0,9.84375 -6,15.84375 -6,6 -15.84375,6 -22.687504,0 -56.531254,-21.65625 -34.03125,-21.75 -59.9062497,-48.75 h 7.2187499 q 5.625,6 12.1874998,12 6.5625,6 13.78125,11.8125 7.21875,5.8125 14.90625,11.34375 7.78125,5.53125 15.75,10.59375 31.875,19.96875 52.312504,19.96875 3.9375,0 7.125,-1.03125 3.1875,-1.125 5.4375,-3.09375 2.34375,-2.0625 3.5625,-4.875 1.3125,-2.8125 1.3125,-6.28125 0,-4.40625 -1.875,-6.5625 -1.875,-2.15625 -5.15625,-2.15625 -4.78125,0 -6.5625,1.875 -1.6875,1.78125 -1.6875,4.78125 0,1.03125 0.5625,1.78125 0.65625,0.75 2.53125,0.75 0.75,0 1.59375,-0.28125 0.9375,-0.28125 2.4375,-0.84375 v 4.875 q -2.53125,0.9375 -5.25,0.9375 -2.90625,0 -4.78125,-1.78125 -1.78125,-1.875 -1.78125,-5.4375 0,-2.4375 0.9375,-4.5 0.9375,-2.0625 2.53125,-3.5625 1.6875,-1.59375 3.9375,-2.4375 2.34375,-0.84375 5.15625,-0.84375 z"
         id="path7336"
         inkscape:connector-curvature="0" />
    </g>
  </g>
</svg>
