<?xml version="1.0" encoding="UTF-8" standalone="no"?>
<!-- Created with Inkscape (http://www.inkscape.org/) -->

<svg
   xmlns:dc="http://purl.org/dc/elements/1.1/"
   xmlns:cc="http://creativecommons.org/ns#"
   xmlns:rdf="http://www.w3.org/1999/02/22-rdf-syntax-ns#"
   xmlns:svg="http://www.w3.org/2000/svg"
   xmlns="http://www.w3.org/2000/svg"
   xmlns:sodipodi="http://sodipodi.sourceforge.net/DTD/sodipodi-0.dtd"
   xmlns:inkscape="http://www.inkscape.org/namespaces/inkscape"
   width="36.710938mm"
   height="18.628321mm"
   viewBox="0 0 36.710938 18.628321"
   version="1.1"
   id="svg8"
   inkscape:version="0.92.4 (5da689c313, 2019-01-14)"
   sodipodi:docname="D17.svg">
  <defs
     id="defs2" />
  <sodipodi:namedview
     id="base"
     pagecolor="#ffffff"
     bordercolor="#666666"
     borderopacity="1.0"
     inkscape:pageopacity="0.0"
     inkscape:pageshadow="2"
     inkscape:zoom="0.35"
     inkscape:cx="-300.40234"
     inkscape:cy="-319.11789"
     inkscape:document-units="mm"
     inkscape:current-layer="layer1"
     showgrid="false"
     fit-margin-top="0"
     fit-margin-left="0"
     fit-margin-right="0"
     fit-margin-bottom="0"
     inkscape:window-width="1920"
     inkscape:window-height="1017"
     inkscape:window-x="-8"
     inkscape:window-y="-8"
     inkscape:window-maximized="1" />
  <metadata
     id="metadata5">
    <rdf:RDF>
      <cc:Work
         rdf:about="">
        <dc:format>image/svg+xml</dc:format>
        <dc:type
           rdf:resource="http://purl.org/dc/dcmitype/StillImage" />
        <dc:title></dc:title>
      </cc:Work>
    </rdf:RDF>
  </metadata>
  <g
     inkscape:label="Layer 1"
     inkscape:groupmode="layer"
     id="layer1"
     transform="translate(7.8310464,-45.771739)">
    <g
       aria-label="𓂇"
       transform="scale(0.26458333)"
       style="font-style:normal;font-variant:normal;font-weight:normal;font-stretch:normal;font-size:192px;line-height:1.25;font-family:sans-serif;-inkscape-font-specification:'sans-serif, Normal';font-variant-ligatures:normal;font-variant-caps:normal;font-variant-numeric:normal;font-feature-settings:normal;text-align:start;letter-spacing:0px;word-spacing:0px;writing-mode:lr-tb;text-anchor:start;fill:#000000;fill-opacity:1;stroke:none"
       id="flowRoot815">
      <path
         d="m -16.378906,243.4018 h -3.5625 q -0.84375,-10.21875 -3,-21.375 -2.15625,-11.15625 -6.65625,-23.53125 l 5.34375,-8.25 q 0.375,-3.375 0.5625,-7.59375 0.1875,-4.3125 0.1875,-9.65625 h 10.40625 q 21.1874998,22.5 50.15625,44.25 28.96875,21.65625 50.90625,21.65625 16.593746,0 16.593746,-16.5 0,-5.90625 -1.78125,-7.40625 -1.875,-1.6875 -5.249996,-1.6875 -6.5625,0 -6.5625,6 0,3.75 2.25,3.75 1.125,0 2.34375,-0.65625 v 4.03125 q -1.875,0.5625 -3.46875,0.5625 -5.53125,0 -5.53125,-7.5 0,-10.6875 11.34375,-10.6875 11.249996,0 11.249996,13.59375 0,9.46875 -5.71875,15.1875 -5.812496,5.8125 -15.468746,5.8125 -19.96875,0 -46.125,-16.78125 -26.0625,-16.875 -58.21875,-50.71875 z"
         id="path823"
         inkscape:connector-curvature="0" />
    </g>
  </g>
</svg>
