<?xml version="1.0" encoding="UTF-8" standalone="no"?>
<!-- Created with Inkscape (http://www.inkscape.org/) -->

<svg
   xmlns:dc="http://purl.org/dc/elements/1.1/"
   xmlns:cc="http://creativecommons.org/ns#"
   xmlns:rdf="http://www.w3.org/1999/02/22-rdf-syntax-ns#"
   xmlns:svg="http://www.w3.org/2000/svg"
   xmlns="http://www.w3.org/2000/svg"
   xmlns:sodipodi="http://sodipodi.sourceforge.net/DTD/sodipodi-0.dtd"
   xmlns:inkscape="http://www.inkscape.org/namespaces/inkscape"
   width="15.726171mm"
   height="19.645311mm"
   viewBox="0 0 15.726171 19.64531"
   version="1.1"
   id="svg4525"
   inkscape:version="0.92.4 (5da689c313, 2019-01-14)"
   sodipodi:docname="D18.svg">
  <defs
     id="defs4519" />
  <sodipodi:namedview
     id="base"
     pagecolor="#ffffff"
     bordercolor="#666666"
     borderopacity="1.0"
     inkscape:pageopacity="0.0"
     inkscape:pageshadow="2"
     inkscape:zoom="0.35"
     inkscape:cx="1332.3133"
     inkscape:cy="-227.31462"
     inkscape:document-units="mm"
     inkscape:current-layer="layer1"
     showgrid="false"
     fit-margin-top="0"
     fit-margin-left="0"
     fit-margin-right="0"
     fit-margin-bottom="0"
     inkscape:window-width="1920"
     inkscape:window-height="1017"
     inkscape:window-x="-8"
     inkscape:window-y="-8"
     inkscape:window-maximized="1"
     showguides="false" />
  <metadata
     id="metadata4522">
    <rdf:RDF>
      <cc:Work
         rdf:about="">
        <dc:format>image/svg+xml</dc:format>
        <dc:type
           rdf:resource="http://purl.org/dc/dcmitype/StillImage" />
        <dc:title></dc:title>
      </cc:Work>
    </rdf:RDF>
  </metadata>
  <g
     inkscape:label="Layer 1"
     inkscape:groupmode="layer"
     id="layer1"
     transform="translate(439.82039,-69.044349)">
    <g
       aria-label="ð“€‰"
       style="font-style:normal;font-variant:normal;font-weight:normal;font-stretch:normal;font-size:50.79999924px;line-height:1.25;font-family:sans-serif;-inkscape-font-specification:sans-serif;font-variant-ligatures:normal;font-variant-caps:normal;font-variant-numeric:normal;font-feature-settings:normal;text-align:start;letter-spacing:0px;word-spacing:0px;writing-mode:lr-tb;text-anchor:start;fill:#000000;fill-opacity:1;stroke:none;stroke-width:0.26458332"
       id="text5105" />
    <g
       aria-label="ð“€†"
       transform="matrix(0.26458333,0,0,0.26458333,-199.96101,81.431167)"
       style="font-style:normal;font-variant:normal;font-weight:normal;font-stretch:normal;font-size:192px;line-height:1.25;font-family:sans-serif;-inkscape-font-specification:sans-serif;font-variant-ligatures:normal;font-variant-caps:normal;font-variant-numeric:normal;font-feature-settings:normal;text-align:start;letter-spacing:0px;word-spacing:0px;writing-mode:lr-tb;text-anchor:start;fill:#000000;fill-opacity:1;stroke:none"
       id="flowRoot5135" />
    <g
       aria-label="ð“•"
       transform="matrix(0.26458333,0,0,0.26458333,-390.48232,26.790778)"
       style="font-style:normal;font-variant:normal;font-weight:normal;font-stretch:normal;font-size:192px;line-height:1.25;font-family:sans-serif;-inkscape-font-specification:sans-serif;font-variant-ligatures:normal;font-variant-caps:normal;font-variant-numeric:normal;font-feature-settings:normal;text-align:start;letter-spacing:0px;word-spacing:0px;writing-mode:lr-tb;text-anchor:start;fill:#000000;fill-opacity:1;stroke:none"
       id="flowRoot5443" />
    <g
       aria-label="ð“«"
       transform="matrix(-0.26458333,0,0,0.26458333,-248.60777,-63.953969)"
       style="font-style:normal;font-variant:normal;font-weight:normal;font-stretch:normal;font-size:192px;line-height:1.25;font-family:sans-serif;-inkscape-font-specification:sans-serif;font-variant-ligatures:normal;font-variant-caps:normal;font-variant-numeric:normal;font-feature-settings:normal;text-align:start;letter-spacing:0px;word-spacing:0px;writing-mode:lr-tb;text-anchor:start;fill:#000000;fill-opacity:1;stroke:none"
       id="flowRoot5553" />
    <g
       aria-label="ð“‚ˆ"
       transform="matrix(0.26458333,0,0,0.26458333,-452.39998,86.644453)"
       style="font-style:normal;font-variant:normal;font-weight:normal;font-stretch:normal;font-size:192px;line-height:1.25;font-family:sans-serif;-inkscape-font-specification:sans-serif;font-variant-ligatures:normal;font-variant-caps:normal;font-variant-numeric:normal;font-feature-settings:normal;text-align:start;letter-spacing:0px;word-spacing:0px;writing-mode:lr-tb;text-anchor:start;fill:#000000;fill-opacity:1;stroke:none"
       id="flowRoot5685">
      <path
         d="m 70.326172,-17.957579 q 0.9375,0 1.40625,-0.09375 l 1.40625,-2.71875 q 1.21875,-2.25 1.96875,-4.21875 0.84375,-2.0625 0.9375,-3.375 0,-3.46875 -4.3125,-4.78125 -4.21875,-1.3125 -5.8125,-5.15625 -1.5,-3.9375 -1.5,-11.71875 1.96875,-7.6875 8.0625,-12.09375 6.09375,-4.40625 12.84375,-4.40625 9.5625,0 15.562498,5.90625 6.09375,5.90625 6.09375,14.90625 0,3.5625 -1.125,7.03125 -1.03125,3.46875 -3.46875,7.59375 -2.34375,4.03125 -5.531248,7.875 -3.09375,3.75 -6.84375,7.5 -3.65625,3.75 -7.96875,7.0312498 -4.3125,3.28125 -5.625,5.25 -1.3125,1.875 -5.0625,5.0625 -3.65625,3.1875 -6.65625,4.78125 -2.625,1.3125 -4.6875,1.3125 -4.5,0 -8.53125,-4.21875 -3.9375,-4.31249999 -3.9375,-9 0,-4.9687498 5.25,-13.8749998 5.34375,-9 11.4375,-9 2.90625,0 4.5,1.875 1.59375,1.875 1.59375,5.8125 z m 8.71875,-10.3125 q 1.59375,-2.71875 1.6875,-5.15625 0,-0.65625 -0.09375,-1.125 -6.84375,-3.28125 -8.625,-5.4375 -1.6875,-2.25 -1.6875,-5.71875 0,-4.3125 4.875,-8.625 4.96875,-4.40625 10.3125,-4.40625 4.78125,0 8.0625,2.8125 3.28125,2.71875 4.875,6.75 1.593748,4.03125 1.874998,6.5625 0.28125,2.53125 -3.843748,10.03125 -4.03125,7.40625 -11.625,12.46875 -7.5,4.96875 -16.125,5.15625 l -0.65625,-0.9375 q -0.375,-0.375 -0.65625,-0.84375 v -3.5625 q 0,-5.53125 -3.84375,-5.0625 -3.84375,0.46875 -6.84375,5.4375 l -1.6875,2.71875 q -1.875,3 -3,6.09375 -1.125,3.0937498 -1.125,5.9062498 0,2.34375 2.71875,5.71875001 2.8125,3.28124999 6.09375,4.21874999 3.65625,-0.84375 7.03125,-3.09375 3.375,-2.34374999 5.90625,-5.53125 2.625,-3.28125 6.1875,-6.09375 3.65625,-2.8124998 7.21875,-6.0937498 3.65625,-3.375 6.75,-6.75 3.09375,-3.46875 5.625,-7.125 2.531248,-3.75 3.937498,-7.5 1.5,-3.84375 1.5,-7.59375 0,-8.4375 -5.062498,-13.3125 -4.96875,-4.96875 -13.3125,-4.96875 -6.75,0.375 -11.71875,3.9375 -4.96875,3.5625 -6.5625,9.65625 l 0.09375,3.09375 q 0,4.5 1.3125,7.3125 1.40625,2.71875 3.46875,3.46875 l 1.875,0.65625 q 2.0625,0.75 3.28125,2.4375 1.3125,1.59375 1.78125,4.5 z m -3.375,9.5625 q 7.40625,-2.15625 13.59375,-9 6.28125,-6.84375 8.25,-14.4375 -1.125,-6 -4.21875,-9.75 -3.09375,-3.84375 -7.5,-3.84375 -4.3125,0 -7.78125,2.625 -3.375,2.53125 -4.6875,6.75 0,2.625 1.125,4.21875 1.125,1.59375 3.09375,2.625 l 2.8125,1.5 1.6875,0.75 q 1.21875,0.65625 1.40625,1.40625 0.28125,0.75 0.28125,2.34375 0,3.75 -2.8125,7.5 -2.71875,3.65625 -3.1875,4.40625 z"
         id="path5693"
         inkscape:connector-curvature="0" />
    </g>
  </g>
</svg>
