<?xml version="1.0" encoding="UTF-8" standalone="no"?>
<!-- Created with Inkscape (http://www.inkscape.org/) -->

<svg
   xmlns:dc="http://purl.org/dc/elements/1.1/"
   xmlns:cc="http://creativecommons.org/ns#"
   xmlns:rdf="http://www.w3.org/1999/02/22-rdf-syntax-ns#"
   xmlns:svg="http://www.w3.org/2000/svg"
   xmlns="http://www.w3.org/2000/svg"
   xmlns:sodipodi="http://sodipodi.sourceforge.net/DTD/sodipodi-0.dtd"
   xmlns:inkscape="http://www.inkscape.org/namespaces/inkscape"
   width="18.950781mm"
   height="19.42207mm"
   viewBox="0 0 18.950781 19.42207"
   version="1.1"
   id="svg7345"
   inkscape:version="0.92.4 (5da689c313, 2019-01-14)"
   sodipodi:docname="D19.svg">
  <defs
     id="defs7339" />
  <sodipodi:namedview
     id="base"
     pagecolor="#ffffff"
     bordercolor="#666666"
     borderopacity="1.0"
     inkscape:pageopacity="0.0"
     inkscape:pageshadow="2"
     inkscape:zoom="0.35"
     inkscape:cx="-320.40234"
     inkscape:cy="-383.33274"
     inkscape:document-units="mm"
     inkscape:current-layer="layer1"
     showgrid="false"
     fit-margin-top="0"
     fit-margin-left="0"
     fit-margin-right="0"
     fit-margin-bottom="0"
     inkscape:window-width="1920"
     inkscape:window-height="1017"
     inkscape:window-x="-8"
     inkscape:window-y="-8"
     inkscape:window-maximized="1" />
  <metadata
     id="metadata7342">
    <rdf:RDF>
      <cc:Work
         rdf:about="">
        <dc:format>image/svg+xml</dc:format>
        <dc:type
           rdf:resource="http://purl.org/dc/dcmitype/StillImage" />
        <dc:title></dc:title>
      </cc:Work>
    </rdf:RDF>
  </metadata>
  <g
     inkscape:label="Layer 1"
     inkscape:groupmode="layer"
     id="layer1"
     transform="translate(2.5393799,-27.98781)">
    <g
       aria-label="𓂉"
       transform="scale(0.26458333)"
       style="font-style:normal;font-variant:normal;font-weight:normal;font-stretch:normal;font-size:192px;line-height:1.25;font-family:sans-serif;-inkscape-font-specification:'sans-serif, Normal';font-variant-ligatures:normal;font-variant-caps:normal;font-variant-numeric:normal;font-feature-settings:normal;text-align:start;letter-spacing:0px;word-spacing:0px;writing-mode:lr-tb;text-anchor:start;fill:#000000;fill-opacity:1;stroke:none"
       id="flowRoot7890">
      <path
         d="m 24.621094,179.18695 q -3.9375,0 -7.78125,-0.65625 -3.75,-0.65625 -5.625,-1.96875 -1.8750002,1.21875 -4.2187503,1.78125 -2.34375,0.5625 -4.8749999,0.5625 -5.1562501,0 -8.4375,-2.15625 -3.2812501,-2.15625 -3.2812501,-5.8125 0,-1.78125 1.5,-5.71875 1.5937501,-3.9375 4.0312501,-8.71875 l 3.18749995,-6.1875 5.71874995,-10.6875 q 1.21875,-2.15625 7.1250003,-13.125 5.90625,-10.96875 11.625,-18.46875 l 0.5625,-0.375 0.65625,-0.375 24.1875,-1.5 1.5,1.03125 4.03125,9.75 q 3.5625,8.625 5.53125,16.59375 1.96875,7.875 1.96875,15 0,7.96875 -2.8125,15.28125 -2.71875,7.3125 -7.40625,13.59375 -0.9375,0.375 -1.3125,0.5625 z m -11.0625,-6.9375 -0.1875,0.9375 q -0.1875,0.46875 -0.28125,1.03125 1.78125,1.40625 4.59375,1.6875 2.90625,0.28125 6.84375,0.28125 6.28125,0 12.28125,-0.75 6.09375,-0.84375 13.03125,-0.84375 4.125,-5.8125 6.65625,-12.375 2.625,-6.65625 2.625,-13.96875 0,-6.09375 -1.96875,-14.0625 -1.875,-8.0625 -9,-25.3125 l -11.25,0.5625 -11.25,0.75 q -1.78125,1.875 -7.40625,11.4375 -5.53125,9.46875 -10.6875003,19.03125 l -3.7499999,7.03125 q -1.5,2.8125 -1.5,3 -0.28125,0.65625 -4.3125001,8.25 -3.9374999,7.59375 -4.8749999,12.46875 1.21875,2.4375 3.6562499,3.65625 2.53125005,1.125 5.3437501,1.125 3.0937499,0 5.2499999,-1.03125 2.2500001,-1.03125 2.6250001,-1.5 0.4687502,-0.46875 0.6562502,-2.34375 0,-0.9375 -0.28125,-1.875 -0.28125,-0.9375 -0.3750002,-1.59375 1.3125002,-0.65625 2.7187502,-1.21875 0.5625,1.5 0.75,2.53125 0.1875,1.03125 0.1875,2.25 0,0.46875 -0.09375,0.84375 z m 35.4375,-36.5625 q -1.875,0 -3.65625,0.28125 l -3.65625,0.75 q -1.875,0.375 -3.75,0.75 -1.875,0.28125 -3.84375,0.28125 -3.9375,0 -7.40625,-1.03125 -3.46875,-1.03125 -6.9375,-2.625 v -2.8125 q 5.90625,-2.90625 12.46875,-2.90625 4.5,0 9,1.21875 4.5,1.21875 8.71875,3.375 z m -0.46875,-7.59375 q -2.4375,-0.84375 -7.40625,-1.78125 -4.875,-1.03125 -7.5,-1.03125 -2.625,0 -5.4375,0.375 -2.71875,0.375 -5.90625,1.03125 l -0.46875,-3 q 1.03125,-0.46875 4.5,-0.9375 3.46875,-0.5625 6.1875,-0.5625 3.9375,0 9.28125,1.125 5.4375,1.125 7.6875,1.96875 z m -5.4375,5.25 q -2.71875,-0.9375 -5.4375,-1.40625 -2.625,-0.5625 -5.34375,-0.5625 -4.3125,0 -8.34375,1.40625 2.15625,0.9375 4.40625,1.5 2.25,0.5625 4.59375,0.5625 2.15625,0 5.625,-0.65625 3.5625,-0.65625 4.5,-0.84375 z"
         id="path7898"
         inkscape:connector-curvature="0" />
    </g>
  </g>
</svg>
