<?xml version="1.0" encoding="UTF-8" standalone="no"?>
<!-- Created with Inkscape (http://www.inkscape.org/) -->

<svg
   xmlns:dc="http://purl.org/dc/elements/1.1/"
   xmlns:cc="http://creativecommons.org/ns#"
   xmlns:rdf="http://www.w3.org/1999/02/22-rdf-syntax-ns#"
   xmlns:svg="http://www.w3.org/2000/svg"
   xmlns="http://www.w3.org/2000/svg"
   xmlns:sodipodi="http://sodipodi.sourceforge.net/DTD/sodipodi-0.dtd"
   xmlns:inkscape="http://www.inkscape.org/namespaces/inkscape"
   width="19.347656mm"
   height="18.801952mm"
   viewBox="0 0 19.347656 18.801951"
   version="1.1"
   id="svg4525"
   inkscape:version="0.92.4 (5da689c313, 2019-01-14)"
   sodipodi:docname="D20.svg">
  <defs
     id="defs4519" />
  <sodipodi:namedview
     id="base"
     pagecolor="#ffffff"
     bordercolor="#666666"
     borderopacity="1.0"
     inkscape:pageopacity="0.0"
     inkscape:pageshadow="2"
     inkscape:zoom="0.35"
     inkscape:cx="1379.8582"
     inkscape:cy="-163.98205"
     inkscape:document-units="mm"
     inkscape:current-layer="layer1"
     showgrid="false"
     fit-margin-top="0"
     fit-margin-left="0"
     fit-margin-right="0"
     fit-margin-bottom="0"
     inkscape:window-width="1920"
     inkscape:window-height="1017"
     inkscape:window-x="-8"
     inkscape:window-y="-8"
     inkscape:window-maximized="1"
     showguides="false" />
  <metadata
     id="metadata4522">
    <rdf:RDF>
      <cc:Work
         rdf:about="">
        <dc:format>image/svg+xml</dc:format>
        <dc:type
           rdf:resource="http://purl.org/dc/dcmitype/StillImage" />
        <dc:title></dc:title>
      </cc:Work>
    </rdf:RDF>
  </metadata>
  <g
     inkscape:label="Layer 1"
     inkscape:groupmode="layer"
     id="layer1"
     transform="translate(452.39998,-86.644453)">
    <g
       aria-label="ð“€‰"
       style="font-style:normal;font-variant:normal;font-weight:normal;font-stretch:normal;font-size:50.79999924px;line-height:1.25;font-family:sans-serif;-inkscape-font-specification:sans-serif;font-variant-ligatures:normal;font-variant-caps:normal;font-variant-numeric:normal;font-feature-settings:normal;text-align:start;letter-spacing:0px;word-spacing:0px;writing-mode:lr-tb;text-anchor:start;fill:#000000;fill-opacity:1;stroke:none;stroke-width:0.26458332"
       id="text5105" />
    <g
       aria-label="ð“€†"
       transform="matrix(0.26458333,0,0,0.26458333,-199.96101,81.431167)"
       style="font-style:normal;font-variant:normal;font-weight:normal;font-stretch:normal;font-size:192px;line-height:1.25;font-family:sans-serif;-inkscape-font-specification:sans-serif;font-variant-ligatures:normal;font-variant-caps:normal;font-variant-numeric:normal;font-feature-settings:normal;text-align:start;letter-spacing:0px;word-spacing:0px;writing-mode:lr-tb;text-anchor:start;fill:#000000;fill-opacity:1;stroke:none"
       id="flowRoot5135" />
    <g
       aria-label="ð“•"
       transform="matrix(0.26458333,0,0,0.26458333,-390.48232,26.790778)"
       style="font-style:normal;font-variant:normal;font-weight:normal;font-stretch:normal;font-size:192px;line-height:1.25;font-family:sans-serif;-inkscape-font-specification:sans-serif;font-variant-ligatures:normal;font-variant-caps:normal;font-variant-numeric:normal;font-feature-settings:normal;text-align:start;letter-spacing:0px;word-spacing:0px;writing-mode:lr-tb;text-anchor:start;fill:#000000;fill-opacity:1;stroke:none"
       id="flowRoot5443" />
    <g
       aria-label="ð“«"
       transform="matrix(-0.26458333,0,0,0.26458333,-248.60777,-63.953969)"
       style="font-style:normal;font-variant:normal;font-weight:normal;font-stretch:normal;font-size:192px;line-height:1.25;font-family:sans-serif;-inkscape-font-specification:sans-serif;font-variant-ligatures:normal;font-variant-caps:normal;font-variant-numeric:normal;font-feature-settings:normal;text-align:start;letter-spacing:0px;word-spacing:0px;writing-mode:lr-tb;text-anchor:start;fill:#000000;fill-opacity:1;stroke:none"
       id="flowRoot5553" />
    <g
       aria-label="ð“‚Š"
       transform="matrix(0.26458333,0,0,0.26458333,-434.74163,54.573675)"
       style="font-style:normal;font-variant:normal;font-weight:normal;font-stretch:normal;font-size:192px;line-height:1.25;font-family:sans-serif;-inkscape-font-specification:sans-serif;font-variant-ligatures:normal;font-variant-caps:normal;font-variant-numeric:normal;font-feature-settings:normal;text-align:start;letter-spacing:0px;word-spacing:0px;writing-mode:lr-tb;text-anchor:start;fill:#000000;fill-opacity:1;stroke:none"
       id="flowRoot5674">
      <path
         d="m 6.3847656,155.24359 q -16.21875,-10.6875 -33.6562496,-10.6875 -3.75,0 -6.84375,0.84375 -3,0.75 -5.90625,2.34375 l -1.78125,2.4375 -1.96875,2.53125 -12.375,16.3125 q -4.03125,5.34375 -5.53125,8.625 -1.40625,3.1875 -1.40625,7.03125 0,2.15625 4.03125,3.375 4.03125,1.21875 9.375,1.21875 l 3.65625,-0.0937 q 3.65625,0 6.46875,-1.03125 2.8125,-1.125 2.8125,-3.28125 0,-1.40625 -0.9375,-2.4375 -0.9375,-1.03125 -3.375,-1.40625 v -3.65625 q 2.90625,0.28125 5.34375,2.4375 2.53125,2.15625 2.53125,4.6875 0,3.28125 -3.09375,5.53125 -3,2.25 -6.28125,2.25 -12.5625,0 -18.375,-1.59375 -5.8125,-1.6875 -5.8125,-6 0,-3 1.96875,-7.5 1.96875,-4.59375 6.75,-11.0625 l 12.46875,-16.6875 q 9.28125,-12.5625 13.3125,-16.96875 4.125,-4.40625 12.46875,-7.21875 8.34375,-2.8125 19.59374963,-4.03125 v 3.5625 q -10.68749963,1.3125 -17.43749963,3.46875 -6.65625,2.15625 -10.03125,4.6875 -3.28125,2.53125 -8.53125,9.5625 1.96875,-0.75 4.03125,-1.125 2.15625,-0.46875 4.78125,-0.46875 17.5312496,0 33.7499996,10.78125 z m -9.75,8.25 q -4.5,0 -11.0624996,1.3125 -6.46875,1.21875 -10.875,1.21875 -0.75,0 -1.40625,-0.0937 l -1.5,-0.0937 q -3.65625,-0.46875 -7.03125,-1.96875 -3.375,-1.59375 -6.375,-3.46875 v -2.8125 q 3.375,-1.6875 7.03125,-2.8125 3.65625,-1.125 7.5,-1.125 5.15625,0 13.59375,3.375 8.5312496,3.28125 10.5937496,3.5625 z m -7.6874996,-2.4375 q -4.3125,-1.59375 -8.34375,-2.90625 -3.9375,-1.3125 -8.25,-1.3125 -2.4375,0 -4.96875,0.5625 -2.4375,0.46875 -5.25,1.78125 3.84375,2.15625 7.03125,2.90625 3.28125,0.75 6.28125,0.75 3.28125,0 6.5625,-0.5625 3.28125,-0.65625 6.9375,-1.21875 z"
         id="path5682"
         inkscape:connector-curvature="0" />
    </g>
  </g>
</svg>
