<?xml version="1.0" encoding="UTF-8" standalone="no"?>
<!-- Created with Inkscape (http://www.inkscape.org/) -->

<svg
   xmlns:dc="http://purl.org/dc/elements/1.1/"
   xmlns:cc="http://creativecommons.org/ns#"
   xmlns:rdf="http://www.w3.org/1999/02/22-rdf-syntax-ns#"
   xmlns:svg="http://www.w3.org/2000/svg"
   xmlns="http://www.w3.org/2000/svg"
   xmlns:sodipodi="http://sodipodi.sourceforge.net/DTD/sodipodi-0.dtd"
   xmlns:inkscape="http://www.inkscape.org/namespaces/inkscape"
   width="37.207031mm"
   height="8.4087887mm"
   viewBox="0 0 37.207032 8.4087881"
   version="1.1"
   id="svg4525"
   inkscape:version="0.92.4 (5da689c313, 2019-01-14)"
   sodipodi:docname="D21.svg">
  <defs
     id="defs4519" />
  <sodipodi:namedview
     id="base"
     pagecolor="#ffffff"
     bordercolor="#666666"
     borderopacity="1.0"
     inkscape:pageopacity="0.0"
     inkscape:pageshadow="2"
     inkscape:zoom="0.35"
     inkscape:cx="1447.6258"
     inkscape:cy="-163.57493"
     inkscape:document-units="mm"
     inkscape:current-layer="layer1"
     showgrid="false"
     fit-margin-top="0"
     fit-margin-left="0"
     fit-margin-right="0"
     fit-margin-bottom="0"
     inkscape:window-width="1920"
     inkscape:window-height="1017"
     inkscape:window-x="-8"
     inkscape:window-y="-8"
     inkscape:window-maximized="1"
     showguides="false" />
  <metadata
     id="metadata4522">
    <rdf:RDF>
      <cc:Work
         rdf:about="">
        <dc:format>image/svg+xml</dc:format>
        <dc:type
           rdf:resource="http://purl.org/dc/dcmitype/StillImage" />
        <dc:title></dc:title>
      </cc:Work>
    </rdf:RDF>
  </metadata>
  <g
     inkscape:label="Layer 1"
     inkscape:groupmode="layer"
     id="layer1"
     transform="translate(470.33016,-97.145332)">
    <g
       aria-label="ð“€‰"
       style="font-style:normal;font-variant:normal;font-weight:normal;font-stretch:normal;font-size:50.79999924px;line-height:1.25;font-family:sans-serif;-inkscape-font-specification:sans-serif;font-variant-ligatures:normal;font-variant-caps:normal;font-variant-numeric:normal;font-feature-settings:normal;text-align:start;letter-spacing:0px;word-spacing:0px;writing-mode:lr-tb;text-anchor:start;fill:#000000;fill-opacity:1;stroke:none;stroke-width:0.26458332"
       id="text5105" />
    <g
       aria-label="ð“€†"
       transform="matrix(0.26458333,0,0,0.26458333,-199.96101,81.431167)"
       style="font-style:normal;font-variant:normal;font-weight:normal;font-stretch:normal;font-size:192px;line-height:1.25;font-family:sans-serif;-inkscape-font-specification:sans-serif;font-variant-ligatures:normal;font-variant-caps:normal;font-variant-numeric:normal;font-feature-settings:normal;text-align:start;letter-spacing:0px;word-spacing:0px;writing-mode:lr-tb;text-anchor:start;fill:#000000;fill-opacity:1;stroke:none"
       id="flowRoot5135" />
    <g
       aria-label="ð“•"
       transform="matrix(0.26458333,0,0,0.26458333,-390.48232,26.790778)"
       style="font-style:normal;font-variant:normal;font-weight:normal;font-stretch:normal;font-size:192px;line-height:1.25;font-family:sans-serif;-inkscape-font-specification:sans-serif;font-variant-ligatures:normal;font-variant-caps:normal;font-variant-numeric:normal;font-feature-settings:normal;text-align:start;letter-spacing:0px;word-spacing:0px;writing-mode:lr-tb;text-anchor:start;fill:#000000;fill-opacity:1;stroke:none"
       id="flowRoot5443" />
    <g
       aria-label="ð“«"
       transform="matrix(-0.26458333,0,0,0.26458333,-248.60777,-63.953969)"
       style="font-style:normal;font-variant:normal;font-weight:normal;font-stretch:normal;font-size:192px;line-height:1.25;font-family:sans-serif;-inkscape-font-specification:sans-serif;font-variant-ligatures:normal;font-variant-caps:normal;font-variant-numeric:normal;font-feature-settings:normal;text-align:start;letter-spacing:0px;word-spacing:0px;writing-mode:lr-tb;text-anchor:start;fill:#000000;fill-opacity:1;stroke:none"
       id="flowRoot5553" />
    <g
       aria-label="ð“‚‹"
       transform="matrix(0.26458333,0,0,0.26458333,-439.82039,69.044349)"
       style="font-style:normal;font-variant:normal;font-weight:normal;font-stretch:normal;font-size:192px;line-height:1.25;font-family:sans-serif;-inkscape-font-specification:sans-serif;font-variant-ligatures:normal;font-variant-caps:normal;font-variant-numeric:normal;font-feature-settings:normal;text-align:start;letter-spacing:0px;word-spacing:0px;writing-mode:lr-tb;text-anchor:start;fill:#000000;fill-opacity:1;stroke:none"
       id="flowRoot5696">
      <path
         d="m -115.3125,122.89594 q 2.8125,-0.65625 5.34375,-1.3125 2.53125,-0.65625 5.90625,-1.59375 3.46875,-0.9375 8.15625,-2.4375 4.78125,-1.5 11.90625,-3.9375 21.65625,-7.40625 39.75,-7.40625 2.71875,0 6,0.28125 3.375,0.28125 7.5,0.9375 8.15625,1.125 29.8125,7.875 l 14.15625,4.5 q 2.625,0.84375 5.53125,1.59375 3,0.75 6.5625,1.5 -3.5625,0.75 -6.75,1.5 -3.09375,0.75 -5.34375,1.5 -37.59375,12.09375 -57.46875,12.09375 -11.625,0 -26.90625,-3.46875 -7.6875,-1.6875 -13.78125,-3.1875 -6,-1.59375 -10.5,-3.09375 -3.1875,-1.03125 -5.625,-1.59375 -2.34375,-0.65625 -4.5,-1.125 -2.15625,-0.46875 -4.5,-1.03125 -2.25,-0.5625 -5.25,-1.59375 z m 19.96875,-0.1875 q 7.125,2.4375 14.15625,4.40625 7.125,1.96875 13.6875,3.375 6.65625,1.3125 12.46875,2.0625 5.90625,0.75 10.59375,0.75 3.28125,0 8.34375,-0.75 5.0625,-0.75 11.53125,-2.0625 6.46875,-1.40625 14.0625,-3.375 7.59375,-1.96875 15.84375,-4.40625 -7.875,-2.71875 -15.28125,-4.875 -7.40625,-2.15625 -13.875,-3.65625 -6.46875,-1.59375 -11.71875,-2.4375 -5.25,-0.84375 -8.90625,-0.84375 -3.9375,0 -9.375,0.84375 -5.4375,0.84375 -12.09375,2.4375 -6.5625,1.5 -14.0625,3.65625 -7.5,2.15625 -15.375,4.875 z"
         id="path5704"
         inkscape:connector-curvature="0" />
    </g>
  </g>
</svg>
