<?xml version="1.0" encoding="UTF-8" standalone="no"?>
<!-- Created with Inkscape (http://www.inkscape.org/) -->

<svg
   xmlns:dc="http://purl.org/dc/elements/1.1/"
   xmlns:cc="http://creativecommons.org/ns#"
   xmlns:rdf="http://www.w3.org/1999/02/22-rdf-syntax-ns#"
   xmlns:svg="http://www.w3.org/2000/svg"
   xmlns="http://www.w3.org/2000/svg"
   xmlns:sodipodi="http://sodipodi.sourceforge.net/DTD/sodipodi-0.dtd"
   xmlns:inkscape="http://www.inkscape.org/namespaces/inkscape"
   width="37.207031mm"
   height="5.8539062mm"
   viewBox="0 0 37.207031 5.8539062"
   version="1.1"
   id="svg1956"
   inkscape:version="0.92.4 (5da689c313, 2019-01-14)"
   sodipodi:docname="D24.svg">
  <defs
     id="defs1950" />
  <sodipodi:namedview
     id="base"
     pagecolor="#ffffff"
     bordercolor="#666666"
     borderopacity="1.0"
     inkscape:pageopacity="0.0"
     inkscape:pageshadow="2"
     inkscape:zoom="0.35"
     inkscape:cx="-334.6875"
     inkscape:cy="-376.26047"
     inkscape:document-units="mm"
     inkscape:current-layer="layer1"
     showgrid="false"
     fit-margin-top="0"
     fit-margin-left="0"
     fit-margin-right="0"
     fit-margin-bottom="0"
     inkscape:window-width="1920"
     inkscape:window-height="1017"
     inkscape:window-x="-8"
     inkscape:window-y="-8"
     inkscape:window-maximized="1" />
  <metadata
     id="metadata1953">
    <rdf:RDF>
      <cc:Work
         rdf:about="">
        <dc:format>image/svg+xml</dc:format>
        <dc:type
           rdf:resource="http://purl.org/dc/dcmitype/StillImage" />
        <dc:title></dc:title>
      </cc:Work>
    </rdf:RDF>
  </metadata>
  <g
     inkscape:label="Layer 1"
     inkscape:groupmode="layer"
     id="layer1"
     transform="translate(-1.2402344,-43.427178)">
    <g
       aria-label="𓂎"
       transform="scale(0.26458333)"
       style="font-style:normal;font-variant:normal;font-weight:normal;font-stretch:normal;font-size:192px;line-height:1.25;font-family:sans-serif;-inkscape-font-specification:'sans-serif, Normal';font-variant-ligatures:normal;font-variant-caps:normal;font-variant-numeric:normal;font-feature-settings:normal;text-align:start;letter-spacing:0px;word-spacing:0px;writing-mode:lr-tb;text-anchor:start;fill:#000000;fill-opacity:1;stroke:none"
       id="flowRoot2501">
      <path
         d="m 4.6875,186.25922 q 7.3125,-5.15625 15.65625,-9.28125 8.34375,-4.125 17.34375,-6.9375 9.09375,-2.90625 18.5625,-4.40625 9.46875,-1.5 18.9375,-1.5 9.28125,0 19.125,1.875 9.84375,1.78125 19.125,4.875 9.375,3.09375 17.53125,7.125 8.25,3.9375 14.34375,8.25 l -21.9375,-7.125 q -0.65625,2.15625 -2.34375,3.5625 -1.6875,1.40625 -4.40625,1.40625 -2.90625,0 -4.21875,-0.5625 -1.3125,-0.65625 -2.34375,-1.875 -1.03125,1.125 -2.625,1.78125 -1.59375,0.5625 -3.1875,0.5625 -2.0625,0 -3.84375,-1.03125 -1.6875,-1.125 -2.53125,-3 -0.75,1.59375 -2.15625,2.71875 -1.40625,1.03125 -3.65625,1.21875 -1.96875,0 -3.1875,-0.9375 -1.125,-1.03125 -1.875,-2.8125 -0.65625,1.875 -2.4375,3 -1.6875,1.03125 -3.375,1.03125 -1.96875,0 -3.5625,-1.3125 -1.59375,-1.40625 -2.4375,-3.28125 -0.9375,1.96875 -2.8125,3.28125 -1.78125,1.21875 -3.65625,1.21875 -2.15625,0 -3.5625,-1.3125 -1.3125,-1.40625 -2.0625,-3.375 -0.84375,2.0625 -2.71875,3.375 -1.78125,1.21875 -3.75,1.21875 -1.6875,0 -3.28125,-1.125 -1.5,-1.21875 -2.25,-3.09375 -0.75,1.875 -2.53125,3.09375 -1.6875,1.125 -3.65625,1.125 -3.1875,0 -5.4375,-2.53125 -1.875,2.71875 -6.65625,2.71875 -2.71875,0 -4.40625,-1.6875 -1.59375,-1.78125 -1.59375,-4.5 -5.625,1.96875 -11.34375,4.125 -5.625,2.0625 -10.78125,4.125 z m 69.09375,-17.4375 q -4.78125,0.1875 -9.09375,0.5625 0,5.90625 1.125,8.71875 1.21875,2.8125 3.5625,2.8125 2.15625,0 3.28125,-2.8125 1.125,-2.8125 1.125,-9.28125 z m 3,0 q 0,6.84375 1.21875,9.46875 1.21875,2.625 3.65625,2.625 0.9375,0 1.6875,-0.84375 0.84375,-0.9375 1.40625,-2.4375 0.5625,-1.59375 0.84375,-3.65625 0.28125,-2.15625 0.28125,-4.5 z m -15.1875,0.84375 q -4.5,0.5625 -9,1.40625 0,4.5 1.03125,7.21875 1.125,2.625 3.28125,2.625 2.34375,0 3.46875,-2.4375 1.21875,-2.4375 1.21875,-8.8125 z m 34.875,1.6875 -7.5,-1.40625 q 0,1.03125 -0.09375,2.4375 -0.09375,1.40625 -0.09375,2.71875 0,2.34375 0.5625,4.21875 0.5625,1.78125 2.71875,1.78125 2.25,0 3.28125,-2.71875 1.125,-2.8125 1.125,-7.03125 z m -46.875,0.375 q -2.4375,0.46875 -4.78125,1.03125 -2.25,0.5625 -4.40625,1.21875 0.375,4.03125 1.5,5.53125 1.125,1.5 3,1.5 2.0625,-0.375 3.1875,-2.15625 1.125,-1.78125 1.3125,-4.21875 z m 58.96875,2.71875 q -1.03125,-0.375 -2.15625,-0.65625 -1.03125,-0.28125 -2.0625,-0.5625 l -4.875,-1.21875 q 0,4.21875 1.21875,6.65625 1.3125,2.34375 3.9375,2.34375 2.4375,0 3.1875,-1.875 0.75,-1.96875 0.75,-4.6875 z m -78.75,2.625 -0.09375,0.65625 q 0,1.5 0.9375,2.4375 0.9375,0.9375 2.53125,0.9375 1.875,0 3,-1.5 1.21875,-1.5 1.21875,-4.78125 z m 81.75,-1.78125 q 0,2.0625 0.75,3.9375 0.84375,1.78125 3.65625,1.78125 1.59375,0 2.8125,-0.65625 1.3125,-0.65625 1.78125,-2.15625 z"
         id="path2509"
         inkscape:connector-curvature="0" />
    </g>
  </g>
</svg>
