<?xml version="1.0" encoding="UTF-8" standalone="no"?>
<!-- Created with Inkscape (http://www.inkscape.org/) -->

<svg
   xmlns:dc="http://purl.org/dc/elements/1.1/"
   xmlns:cc="http://creativecommons.org/ns#"
   xmlns:rdf="http://www.w3.org/1999/02/22-rdf-syntax-ns#"
   xmlns:svg="http://www.w3.org/2000/svg"
   xmlns="http://www.w3.org/2000/svg"
   xmlns:sodipodi="http://sodipodi.sourceforge.net/DTD/sodipodi-0.dtd"
   xmlns:inkscape="http://www.inkscape.org/namespaces/inkscape"
   width="21.133593mm"
   height="18.925976mm"
   viewBox="0 0 21.133593 18.925976"
   version="1.1"
   id="svg3080"
   inkscape:version="0.92.4 (5da689c313, 2019-01-14)"
   sodipodi:docname="D26.svg">
  <defs
     id="defs3074" />
  <sodipodi:namedview
     id="base"
     pagecolor="#ffffff"
     bordercolor="#666666"
     borderopacity="1.0"
     inkscape:pageopacity="0.0"
     inkscape:pageshadow="2"
     inkscape:zoom="0.35"
     inkscape:cx="-360.40234"
     inkscape:cy="-364.83274"
     inkscape:document-units="mm"
     inkscape:current-layer="layer1"
     showgrid="false"
     fit-margin-top="0"
     fit-margin-left="0"
     fit-margin-right="0"
     fit-margin-bottom="0"
     inkscape:window-width="1920"
     inkscape:window-height="1017"
     inkscape:window-x="-8"
     inkscape:window-y="-8"
     inkscape:window-maximized="1" />
  <metadata
     id="metadata3077">
    <rdf:RDF>
      <cc:Work
         rdf:about="">
        <dc:format>image/svg+xml</dc:format>
        <dc:type
           rdf:resource="http://purl.org/dc/dcmitype/StillImage" />
        <dc:title></dc:title>
      </cc:Work>
    </rdf:RDF>
  </metadata>
  <g
     inkscape:label="Layer 1"
     inkscape:groupmode="layer"
     id="layer1"
     transform="translate(-8.0439534,-33.378695)">
    <g
       aria-label="ð“‚"
       transform="scale(0.26458333)"
       style="font-style:normal;font-variant:normal;font-weight:normal;font-stretch:normal;font-size:192px;line-height:1.25;font-family:sans-serif;-inkscape-font-specification:'sans-serif, Normal';font-variant-ligatures:normal;font-variant-caps:normal;font-variant-numeric:normal;font-feature-settings:normal;text-align:start;letter-spacing:0px;word-spacing:0px;writing-mode:lr-tb;text-anchor:start;fill:#000000;fill-opacity:1;stroke:none"
       id="flowRoot3625">
      <path
         d="m 67.527344,148.56195 8.8125,-2.15625 q -1.3125,-2.8125 -2.15625,-5.53125 -0.75,-2.71875 -0.75,-5.71875 0,-2.4375 0.84375,-4.6875 0.84375,-2.25 2.8125,-4.3125 l 2.25,0.1875 q 4.875,6.65625 11.71875,10.40625 6.84375,3.65625 14.624996,6.09375 2.25,0 3.375,1.5 1.21875,1.5 1.21875,3.375 0,1.875 -1.21875,3.375 -1.125,1.5 -3.375,1.5 -10.031246,3.1875 -16.218746,7.125 -6.09375,3.9375 -10.125,9.375 h -1.125 l -1.125,0.1875 q -1.96875,-1.3125 -2.71875,-3 -0.75,-1.78125 -0.75,-3.65625 0,-2.34375 1.125,-6.46875 1.125,-4.21875 1.6875,-6.65625 l -3.1875,0.46875 q -1.96875,0.375 -4.59375,1.21875 l -4.21875,6.75 -7.3125,1.125 -3.09375,7.875 -9.1875,2.25 -4.3125,5.25 0.375,9.1875 -7.6875,7.21875 v 6.84375 h -2.8125 v -7.96875 l 7.5,-7.21875 -0.5625,-9.1875 6.5625,-6.75 8.0625,-1.78125 3.375,-7.96875 6.9375,-1.59375 z m 12.09375,0.65625 -2.25,8.90625 -0.46875,2.25 q -0.28125,1.125 -0.28125,2.15625 0,1.03125 0.28125,1.96875 0.28125,0.84375 1.03125,1.59375 4.03125,-4.6875 8.25,-7.78125 4.21875,-3.1875 11.15625,-6 l 5.343746,-1.96875 3.9375,-1.21875 q 0.75,-0.28125 0.75,-1.3125 0,-0.65625 -0.28125,-1.21875 -0.28125,-0.5625 -0.9375,-0.75 l -4.21875,-1.125 q -5.062496,-1.3125 -12.374996,-5.25 -7.3125,-3.9375 -11.53125,-9.84375 -0.9375,1.125 -1.3125,2.4375 -0.28125,1.3125 -0.28125,2.71875 0,2.34375 0.75,4.6875 0.75,2.34375 1.5,4.40625 l 0.9375,2.4375 15.65625,0.65625 v 1.40625 z"
         id="path3633"
         inkscape:connector-curvature="0" />
    </g>
  </g>
</svg>
