<?xml version="1.0" encoding="UTF-8" standalone="no"?>
<!-- Created with Inkscape (http://www.inkscape.org/) -->

<svg
   xmlns:dc="http://purl.org/dc/elements/1.1/"
   xmlns:cc="http://creativecommons.org/ns#"
   xmlns:rdf="http://www.w3.org/1999/02/22-rdf-syntax-ns#"
   xmlns:svg="http://www.w3.org/2000/svg"
   xmlns="http://www.w3.org/2000/svg"
   xmlns:sodipodi="http://sodipodi.sourceforge.net/DTD/sodipodi-0.dtd"
   xmlns:inkscape="http://www.inkscape.org/namespaces/inkscape"
   width="24.631054mm"
   height="24.680664mm"
   viewBox="0 0 24.631054 24.680662"
   version="1.1"
   id="svg4525"
   inkscape:version="0.92.4 (5da689c313, 2019-01-14)"
   sodipodi:docname="D28.svg">
  <defs
     id="defs4519" />
  <sodipodi:namedview
     id="base"
     pagecolor="#ffffff"
     bordercolor="#666666"
     borderopacity="1.0"
     inkscape:pageopacity="0.0"
     inkscape:pageshadow="2"
     inkscape:zoom="0.35"
     inkscape:cx="649.67908"
     inkscape:cy="8.7359168"
     inkscape:document-units="mm"
     inkscape:current-layer="layer1"
     showgrid="false"
     fit-margin-top="0"
     fit-margin-left="0"
     fit-margin-right="0"
     fit-margin-bottom="0"
     inkscape:window-width="1920"
     inkscape:window-height="1017"
     inkscape:window-x="-8"
     inkscape:window-y="-8"
     inkscape:window-maximized="1"
     showguides="true" />
  <metadata
     id="metadata4522">
    <rdf:RDF>
      <cc:Work
         rdf:about="">
        <dc:format>image/svg+xml</dc:format>
        <dc:type
           rdf:resource="http://purl.org/dc/dcmitype/StillImage" />
        <dc:title></dc:title>
      </cc:Work>
    </rdf:RDF>
  </metadata>
  <g
     inkscape:label="Layer 1"
     inkscape:groupmode="layer"
     id="layer1"
     transform="translate(489.50057,-81.10689)">
    <g
       aria-label="ð“€‰"
       style="font-style:normal;font-variant:normal;font-weight:normal;font-stretch:normal;font-size:50.79999924px;line-height:1.25;font-family:sans-serif;-inkscape-font-specification:sans-serif;font-variant-ligatures:normal;font-variant-caps:normal;font-variant-numeric:normal;font-feature-settings:normal;text-align:start;letter-spacing:0px;word-spacing:0px;writing-mode:lr-tb;text-anchor:start;fill:#000000;fill-opacity:1;stroke:none;stroke-width:0.26458332"
       id="text5105" />
    <g
       aria-label="ð“€†"
       transform="matrix(0.26458333,0,0,0.26458333,-199.96101,81.431167)"
       style="font-style:normal;font-variant:normal;font-weight:normal;font-stretch:normal;font-size:192px;line-height:1.25;font-family:sans-serif;-inkscape-font-specification:sans-serif;font-variant-ligatures:normal;font-variant-caps:normal;font-variant-numeric:normal;font-feature-settings:normal;text-align:start;letter-spacing:0px;word-spacing:0px;writing-mode:lr-tb;text-anchor:start;fill:#000000;fill-opacity:1;stroke:none"
       id="flowRoot5135" />
    <g
       aria-label="ð“•"
       transform="matrix(0.26458333,0,0,0.26458333,-390.48232,26.790778)"
       style="font-style:normal;font-variant:normal;font-weight:normal;font-stretch:normal;font-size:192px;line-height:1.25;font-family:sans-serif;-inkscape-font-specification:sans-serif;font-variant-ligatures:normal;font-variant-caps:normal;font-variant-numeric:normal;font-feature-settings:normal;text-align:start;letter-spacing:0px;word-spacing:0px;writing-mode:lr-tb;text-anchor:start;fill:#000000;fill-opacity:1;stroke:none"
       id="flowRoot5443" />
    <g
       aria-label="ð“«"
       transform="matrix(-0.26458333,0,0,0.26458333,-248.60777,-63.953969)"
       style="font-style:normal;font-variant:normal;font-weight:normal;font-stretch:normal;font-size:192px;line-height:1.25;font-family:sans-serif;-inkscape-font-specification:sans-serif;font-variant-ligatures:normal;font-variant-caps:normal;font-variant-numeric:normal;font-feature-settings:normal;text-align:start;letter-spacing:0px;word-spacing:0px;writing-mode:lr-tb;text-anchor:start;fill:#000000;fill-opacity:1;stroke:none"
       id="flowRoot5553" />
    <g
       aria-label="ð“‚“"
       transform="matrix(0.26458333,0,0,0.26458333,-470.33016,97.145332)"
       style="font-style:normal;font-variant:normal;font-weight:normal;font-stretch:normal;font-size:192px;line-height:1.25;font-family:sans-serif;-inkscape-font-specification:sans-serif;font-variant-ligatures:normal;font-variant-caps:normal;font-variant-numeric:normal;font-feature-settings:normal;text-align:start;letter-spacing:0px;word-spacing:0px;writing-mode:lr-tb;text-anchor:start;fill:#000000;fill-opacity:1;stroke:none"
       id="flowRoot5707">
      <path
         d="m -60.830078,32.663515 q -9.75,0 -9.75,-20.71875 0,-6.8437504 0.5625,-15.5625004 0.5625,-8.8124996 1.59375,-19.6874996 -4.03125,-10.59375 -4.03125,-18.84375 0,-8.4375 4.03125,-17.4375 l 1.6875,-1.03125 q 0.375,0.28125 0.84375,1.125 0.46875,0.75 0.46875,2.90625 0,1.96875 -1.125,6.375 -1.03125,4.40625 -1.03125,6.46875 0,6.28125 2.15625,12.9375 5.90625,0 5.90625,-9.28125 0,-4.6875 -1.3125,-8.90625 1.125,-1.6875 2.15625,-1.6875 3.28125,0 3.28125,13.21875 0,7.21875 -5.4375,12.65625 -0.375,3.28125 -0.5625,7.3125 -0.09375,3.9375 -0.09375,8.5312496 l 0.1875,8.81249996 q 0,7.68750004 0.46875,22.21875044 0.5625,0 5.0625,0.375 l 12.84375,0.9375 q 5.90625,0.375 10.03125,1.21875 4.21875,0.75 6.84375,1.96875 2.625,-1.21875 6.84375,-1.96875 4.21875,-0.84375 10.2187499,-1.21875 l 13.125,-0.9375 q 4.5,-0.28125 4.96875,-0.375 l 0.5625,-23.4375004 0.09375,-7.59375 q 0,-4.5937496 -0.1875,-8.5312496 -0.09375,-4.03125 -0.46875,-7.3125 -5.4375,-5.4375 -5.4375,-12.65625 0,-13.21875 3.28125,-13.21875 1.03125,0 2.15625,1.6875 -1.3125,4.21875 -1.3125,8.90625 0,4.875 1.5,7.125 1.5000001,2.15625 4.4062501,2.15625 2.15625,-6.65625 2.15625,-12.84375 0,-2.25 -1.125,-6.5625 -1.03125,-4.40625 -1.03125,-6.375 0,-2.4375 1.3125,-4.03125 l 1.6875,1.03125 q 3.9375,9.1875 3.9375,17.4375 0,8.15625 -3.9375,18.84375 1.03125,10.96875 1.59375,19.7812496 0.5625,8.71875 0.5625,15.4687504 0,20.71875 -9.7500001,20.71875 z"
         id="path5715"
         inkscape:connector-curvature="0" />
    </g>
  </g>
</svg>
