<?xml version="1.0" encoding="UTF-8" standalone="no"?>
<!-- Created with Inkscape (http://www.inkscape.org/) -->

<svg
   xmlns:dc="http://purl.org/dc/elements/1.1/"
   xmlns:cc="http://creativecommons.org/ns#"
   xmlns:rdf="http://www.w3.org/1999/02/22-rdf-syntax-ns#"
   xmlns:svg="http://www.w3.org/2000/svg"
   xmlns="http://www.w3.org/2000/svg"
   xmlns:sodipodi="http://sodipodi.sourceforge.net/DTD/sodipodi-0.dtd"
   xmlns:inkscape="http://www.inkscape.org/namespaces/inkscape"
   width="37.256641mm"
   height="18.653124mm"
   viewBox="0 0 37.256641 18.653124"
   version="1.1"
   id="svg29267"
   inkscape:version="0.92.4 (5da689c313, 2019-01-14)"
   sodipodi:docname="D3.svg">
  <defs
     id="defs29261" />
  <sodipodi:namedview
     id="base"
     pagecolor="#ffffff"
     bordercolor="#666666"
     borderopacity="1.0"
     inkscape:pageopacity="0.0"
     inkscape:pageshadow="2"
     inkscape:zoom="0.35"
     inkscape:cx="-348.97266"
     inkscape:cy="-373.3093"
     inkscape:document-units="mm"
     inkscape:current-layer="layer1"
     showgrid="false"
     fit-margin-top="0"
     fit-margin-left="0"
     fit-margin-right="0"
     fit-margin-bottom="0"
     inkscape:window-width="1920"
     inkscape:window-height="1017"
     inkscape:window-x="-8"
     inkscape:window-y="-8"
     inkscape:window-maximized="1" />
  <metadata
     id="metadata29264">
    <rdf:RDF>
      <cc:Work
         rdf:about="">
        <dc:format>image/svg+xml</dc:format>
        <dc:type
           rdf:resource="http://purl.org/dc/dcmitype/StillImage" />
        <dc:title></dc:title>
      </cc:Work>
    </rdf:RDF>
  </metadata>
  <g
     inkscape:label="Layer 1"
     inkscape:groupmode="layer"
     id="layer1"
     transform="translate(-5.0198485,-31.40879)">
    <g
       aria-label="ð“¸"
       transform="scale(0.26458333)"
       style="font-style:normal;font-variant:normal;font-weight:normal;font-stretch:normal;font-size:192px;line-height:1.25;font-family:sans-serif;-inkscape-font-specification:'sans-serif, Normal';font-variant-ligatures:normal;font-variant-caps:normal;font-variant-numeric:normal;font-feature-settings:normal;text-align:start;letter-spacing:0px;word-spacing:0px;writing-mode:lr-tb;text-anchor:start;fill:#000000;fill-opacity:1;stroke:none"
       id="flowRoot29812">
      <path
         d="m 153.78516,184.89789 q 0,-0.9375 0.65625,-1.875 0.75,-0.9375 2.34375,-0.9375 3,0 3,2.8125 0,2.0625 -1.3125,3.1875 -1.3125,1.03125 -2.71875,1.03125 -3.1875,0 -4.59375,-1.3125 -1.40625,-1.3125 -2.0625,-4.03125 -0.65625,-2.71875 -2.625,-9.09375 -1.875,-6.46875 -5.15625,-16.78125 -6.46875,-20.625 -16.3125,-29.34375 h -22.125 q 7.875,5.625 14.90625,20.25 3.5625,7.3125 6.5625,16.3125 3,9 5.4375,19.78125 0.5625,-1.40625 1.5,-2.0625 0.9375,-0.75 2.625,-0.75 1.5,0 2.4375,0.75 0.9375,0.65625 0.9375,2.0625 0,1.875 -1.5,3.09375 -1.5,1.21875 -2.71875,1.21875 -3.75,0 -5.625,-0.9375 -1.875,-1.03125 -2.34375,-3 -0.46875,-1.96875 -1.5,-5.90625 -1.03125,-4.03125 -2.8125,-10.125 -3.46875,-12.1875 -9.28125,-22.5 -5.71875,-10.3125 -14.812504,-18.1875 h -26.0625 q 23.0625,9.65625 33.750004,56.34375 0,-1.03125 0.9375,-1.875 0.9375,-0.9375 2.53125,-0.9375 2.15625,0 3,0.75 0.9375,0.65625 0.9375,2.0625 0,1.78125 -1.6875,3 -1.6875,1.21875 -3.75,1.21875 -2.90625,0 -4.6875,-2.0625 -1.687504,-2.15625 -3.000004,-6.46875 -2.625,-8.8125 -6.1875,-18.75 -3.5625,-10.21875 -10.59375,-18.75 -6.9375,-8.625 -18,-14.53125 h -44.90625 v -9.84375 h 89.812504 q 14.71875,0 24.84375,12.5625 10.21875,12.5625 20.15625,53.625 z M 21.972656,125.55414 h 99.656254 q -2.25,-1.6875 -5.8125,-2.71875 -3.5625,-1.125 -7.21875,-1.125 H 21.972656 Z"
         id="path29820"
         inkscape:connector-curvature="0" />
    </g>
  </g>
</svg>
