<?xml version="1.0" encoding="UTF-8" standalone="no"?>
<!-- Created with Inkscape (http://www.inkscape.org/) -->

<svg
   xmlns:dc="http://purl.org/dc/elements/1.1/"
   xmlns:cc="http://creativecommons.org/ns#"
   xmlns:rdf="http://www.w3.org/1999/02/22-rdf-syntax-ns#"
   xmlns:svg="http://www.w3.org/2000/svg"
   xmlns="http://www.w3.org/2000/svg"
   xmlns:sodipodi="http://sodipodi.sourceforge.net/DTD/sodipodi-0.dtd"
   xmlns:inkscape="http://www.inkscape.org/namespaces/inkscape"
   width="37.132614mm"
   height="37.207031mm"
   viewBox="0 0 37.132614 37.207031"
   version="1.1"
   id="svg5328"
   inkscape:version="0.92.4 (5da689c313, 2019-01-14)"
   sodipodi:docname="D30.svg">
  <defs
     id="defs5322" />
  <sodipodi:namedview
     id="base"
     pagecolor="#ffffff"
     bordercolor="#666666"
     borderopacity="1.0"
     inkscape:pageopacity="0.0"
     inkscape:pageshadow="2"
     inkscape:zoom="0.35"
     inkscape:cx="-169.58234"
     inkscape:cy="-359.11789"
     inkscape:document-units="mm"
     inkscape:current-layer="layer1"
     showgrid="false"
     fit-margin-top="0"
     fit-margin-left="0"
     fit-margin-right="0"
     fit-margin-bottom="0"
     inkscape:window-width="1920"
     inkscape:window-height="1017"
     inkscape:window-x="-8"
     inkscape:window-y="-8"
     inkscape:window-maximized="1" />
  <metadata
     id="metadata5325">
    <rdf:RDF>
      <cc:Work
         rdf:about="">
        <dc:format>image/svg+xml</dc:format>
        <dc:type
           rdf:resource="http://purl.org/dc/dcmitype/StillImage" />
        <dc:title></dc:title>
      </cc:Work>
    </rdf:RDF>
  </metadata>
  <g
     inkscape:label="Layer 1"
     inkscape:groupmode="layer"
     id="layer1"
     transform="translate(-8.0439534,-16.609694)">
    <g
       aria-label="𓂕"
       transform="scale(0.26458333)"
       style="font-style:normal;font-variant:normal;font-weight:normal;font-stretch:normal;font-size:192px;line-height:1.25;font-family:sans-serif;-inkscape-font-specification:'sans-serif, Normal';font-variant-ligatures:normal;font-variant-caps:normal;font-variant-numeric:normal;font-feature-settings:normal;text-align:start;letter-spacing:0px;word-spacing:0px;writing-mode:lr-tb;text-anchor:start;fill:#000000;fill-opacity:1;stroke:none"
       id="flowRoot5873">
      <path
         d="m 113.08984,108.24555 q -3.09375,-5.90625 -3.09375,-12.656254 0,-2.4375 0.75,-8.90625 0.84375,-6.5625 0.84375,-8.625 0,-4.59375 -6,-4.59375 -0.46875,0 -1.5,0.09375 l -4.874996,0.46875 q -1.3125,0 -1.96875,0.09375 -1.59375,0 -4.6875,-0.1875 l -12.84375,-0.75 q -3.09375,-0.1875 -4.59375,-0.1875 -5.34375,0 -10.40625,0.5625 -5.25,5.25 -11.0625,5.625 -5.8125,0.375 -10.125,0.375 -2.90625,-1.40625 -3.1875,-3.46875 l 1.6875,-1.03125 4.96875,0.28125 q 1.40625,0 2.25,0.09375 9.375,0 9.375,-4.96875 -4.59375,-2.90625 -9.84375,-2.90625 -1.59375,0 -3.65625,0.46875 l -4.125,0.9375 -3.84375,1.03125 q -1.78125,0.46875 -2.71875,0.46875 -3.65625,0 -3.65625,-2.25 l 0.65625,-2.25 q 8.34375,-3.1875 16.3125,-3.1875 8.8125,0 18.46875,4.6875 10.875,-1.03125 18.65625,-1.59375 7.78125,-0.5625 12.65625,-0.5625 21.656246,0 21.656246,9.75 v 30.187504 q 13.5,0.1875 25.21875,10.125 11.8125,9.9375 19.03125,26.625 7.3125,16.6875 7.3125,30.75 0,10.3125 -1.59375,20.53125 -1.59375,10.125 -4.6875,10.125 -2.0625,0 -2.0625,-15.5625 0,-26.90625 -11.15625,-52.40625 -11.0625,-25.59375 -32.0625,-25.59375 v 31.6875 q 0,9.75 -21.656246,9.75 -4.875,0 -12.65625,-0.5625 -7.78125,-0.5625 -18.65625,-1.59375 -10.59375,4.03125 -19.3125,4.03125 -7.5,0 -15.46875,-4.03125 l -1.03125,-1.6875 q 1.3125,-1.3125 4.03125,-1.3125 1.3125,0 6.1875,1.125 4.96875,1.03125 6.375,1.03125 6,0 11.625,-2.15625 0,-3.9375 -6.5625,-4.6875 l -10.03125,0.0937 -1.6875,-1.21875 q 0.1875,-3.28125 3.1875,-3.28125 10.5,0 13.875,1.125 3.46875,1.03125 7.3125,4.875 l 33.1875,-0.46875 q 2.999996,0 5.531246,0.1875 2.625,0.0937 5.0625,0.28125 3.09375,-1.5 3.09375,-4.5 0,-1.96875 -0.84375,-8.4375 -0.75,-6.46875 -0.75,-9.09375 0,-6.65625 3.09375,-12.75 z"
         id="path5881"
         inkscape:connector-curvature="0" />
    </g>
  </g>
</svg>
