<?xml version="1.0" encoding="UTF-8" standalone="no"?>
<!-- Created with Inkscape (http://www.inkscape.org/) -->

<svg
   xmlns:dc="http://purl.org/dc/elements/1.1/"
   xmlns:cc="http://creativecommons.org/ns#"
   xmlns:rdf="http://www.w3.org/1999/02/22-rdf-syntax-ns#"
   xmlns:svg="http://www.w3.org/2000/svg"
   xmlns="http://www.w3.org/2000/svg"
   xmlns:sodipodi="http://sodipodi.sourceforge.net/DTD/sodipodi-0.dtd"
   xmlns:inkscape="http://www.inkscape.org/namespaces/inkscape"
   width="25.127148mm"
   height="37.603905mm"
   viewBox="0 0 25.127148 37.603905"
   version="1.1"
   id="svg5890"
   inkscape:version="0.92.4 (5da689c313, 2019-01-14)"
   sodipodi:docname="D31.svg">
  <defs
     id="defs5884" />
  <sodipodi:namedview
     id="base"
     pagecolor="#ffffff"
     bordercolor="#666666"
     borderopacity="1.0"
     inkscape:pageopacity="0.0"
     inkscape:pageshadow="2"
     inkscape:zoom="0.35"
     inkscape:cx="-400.40234"
     inkscape:cy="-340.47532"
     inkscape:document-units="mm"
     inkscape:current-layer="layer1"
     showgrid="false"
     fit-margin-top="0"
     fit-margin-left="0"
     fit-margin-right="0"
     fit-margin-bottom="0"
     inkscape:window-width="1920"
     inkscape:window-height="1017"
     inkscape:window-x="-8"
     inkscape:window-y="-8"
     inkscape:window-maximized="1" />
  <metadata
     id="metadata5887">
    <rdf:RDF>
      <cc:Work
         rdf:about="">
        <dc:format>image/svg+xml</dc:format>
        <dc:type
           rdf:resource="http://purl.org/dc/dcmitype/StillImage" />
        <dc:title></dc:title>
      </cc:Work>
    </rdf:RDF>
  </metadata>
  <g
     inkscape:label="Layer 1"
     inkscape:groupmode="layer"
     id="layer1"
     transform="translate(-18.627287,-21.145334)">
    <g
       aria-label="𓂖"
       transform="scale(0.26458333)"
       style="font-style:normal;font-variant:normal;font-weight:normal;font-stretch:normal;font-size:192px;line-height:1.25;font-family:sans-serif;-inkscape-font-specification:'sans-serif, Normal';font-variant-ligatures:normal;font-variant-caps:normal;font-variant-numeric:normal;font-feature-settings:normal;text-align:start;letter-spacing:0px;word-spacing:0px;writing-mode:lr-tb;text-anchor:start;fill:#000000;fill-opacity:1;stroke:none"
       id="flowRoot6435">
      <path
         d="m 102.65234,89.013124 q -6.656246,7.78125 -14.437496,21.843746 -7.6875,14.0625 -7.6875,20.4375 0,9.1875 4.875,22.125 l 8.15625,21.75 q 3.1875,3 5.0625,6.75 l 2.531246,6.84375 h -3.093746 q -1.78125,-5.34375 -3.1875,-6.9375 -1.40625,-1.59375 -2.8125,-2.0625 -1.125,1.6875 -1.125,3.75 0,5.71875 5.625,11.34375 0,0.28125 0.09375,0.75 0,0.75 -1.3125,1.40625 -1.21875,0.65625 -1.3125,0.84375 -8.0625,-4.96875 -8.0625,-15.09375 0,-0.9375 1.03125,-3 1.03125,-2.15625 2.0625,-3.09375 -2.90625,-6.28125 -5.71875,-12.5625 l -5.625,-12.46875 q -7.3125,-16.6875 -7.3125,-25.40625 0,-0.375 0.75,-2.0625 l 1.96875,-4.125 q 1.21875,-2.53125 2.8125,-5.625 l 6.28125,-12.46875 3.375,-6.562496 q 1.6875,-3.28125 4.3125,-6.28125 2.71875,-3.09375 5.8125,-5.0625 3.09375,-1.96875 6.843746,-2.8125 3.84375,-0.84375 7.59375,-1.03125 3.84375,-0.28125 7.59375,-0.28125 9,0 14.90625,1.5 5.90625,1.40625 10.59375,6.1875 4.6875,4.6875 8.8125,11.8125 4.21875,7.031246 8.71875,15.093746 4.59375,8.0625 4.59375,11.15625 0,4.03125 -7.96875,25.40625 -7.96875,21.375 -9.46875,25.59375 0.46875,2.0625 0.46875,4.03125 0,12.46875 -9.46875,17.15625 -1.40625,-0.9375 -1.5,-3 6.375,-6.375 6.375,-12.46875 l -0.375,-2.625 q -2.71875,1.03125 -4.21875,3.28125 l -3,5.71875 q -0.1875,0.46875 -0.9375,0.46875 -0.75,-0.1875 -0.9375,-0.46875 2.71875,-10.40625 9.09375,-13.59375 0.84375,-3.84375 6.28125,-23.53125 5.53125,-19.78125 5.53125,-25.3125 0,-4.03125 -8.34375,-17.15625 -8.34375,-13.218746 -14.0625,-20.156246 z m 5.53125,133.031246 -1.21875,-2.25 q 2.71875,-7.21875 3.5625,-14.71875 0.9375,-7.59375 0.9375,-15.46875 0,-13.96875 -3.1875,-36 -3.1875,-22.125 -3.1875,-35.4375 0,-9.28125 3.375,-14.625 3.375,-5.437496 9.28125,-5.437496 6.09375,0 9.375,5.624996 3.28125,5.625 3.28125,14.4375 0,13.3125 -3.1875,35.4375 -3.1875,22.03125 -3.1875,36 0,7.875 0.84375,15.46875 0.9375,7.5 3.65625,14.71875 l -1.21875,2.25 z m 16.875,-3 q -2.4375,-7.125 -3.28125,-14.625 -0.75,-7.59375 -0.75,-15.09375 0,-13.59375 3.1875,-36.46875 3.1875,-22.875 3.1875,-34.3125 0,-9.375 -2.4375,-13.40625 -2.4375,-4.03125 -7.21875,-4.03125 -4.78125,0 -7.21875,4.03125 -2.4375,4.03125 -2.4375,13.40625 0,11.4375 3.1875,34.3125 3.1875,22.875 3.1875,36.46875 0,7.5 -0.84375,15.09375 -0.75,7.5 -3.1875,14.625 z"
         id="path6443"
         inkscape:connector-curvature="0" />
    </g>
  </g>
</svg>
