<?xml version="1.0" encoding="UTF-8" standalone="no"?>
<!-- Created with Inkscape (http://www.inkscape.org/) -->

<svg
   xmlns:dc="http://purl.org/dc/elements/1.1/"
   xmlns:cc="http://creativecommons.org/ns#"
   xmlns:rdf="http://www.w3.org/1999/02/22-rdf-syntax-ns#"
   xmlns:svg="http://www.w3.org/2000/svg"
   xmlns="http://www.w3.org/2000/svg"
   xmlns:sodipodi="http://sodipodi.sourceforge.net/DTD/sodipodi-0.dtd"
   xmlns:inkscape="http://www.inkscape.org/namespaces/inkscape"
   width="24.631069mm"
   height="37.851952mm"
   viewBox="0 0 24.631069 37.851948"
   version="1.1"
   id="svg4525"
   inkscape:version="0.92.4 (5da689c313, 2019-01-14)"
   sodipodi:docname="D31A.svg">
  <defs
     id="defs4519" />
  <sodipodi:namedview
     id="base"
     pagecolor="#ffffff"
     bordercolor="#666666"
     borderopacity="1.0"
     inkscape:pageopacity="0.0"
     inkscape:pageshadow="2"
     inkscape:zoom="0.35"
     inkscape:cx="807.65445"
     inkscape:cy="-85.447113"
     inkscape:document-units="mm"
     inkscape:current-layer="layer1"
     showgrid="false"
     fit-margin-top="0"
     fit-margin-left="0"
     fit-margin-right="0"
     fit-margin-bottom="0"
     inkscape:window-width="1920"
     inkscape:window-height="1017"
     inkscape:window-x="-8"
     inkscape:window-y="-8"
     inkscape:window-maximized="1"
     showguides="true" />
  <metadata
     id="metadata4522">
    <rdf:RDF>
      <cc:Work
         rdf:about="">
        <dc:format>image/svg+xml</dc:format>
        <dc:type
           rdf:resource="http://purl.org/dc/dcmitype/StillImage" />
        <dc:title></dc:title>
      </cc:Work>
    </rdf:RDF>
  </metadata>
  <g
     inkscape:label="Layer 1"
     inkscape:groupmode="layer"
     id="layer1"
     transform="translate(531.29822,-43.016341)">
    <g
       aria-label="𓂗"
       style="font-style:normal;font-variant:normal;font-weight:normal;font-stretch:normal;font-size:50.79999924px;line-height:1.25;font-family:sans-serif;-inkscape-font-specification:sans-serif;font-variant-ligatures:normal;font-variant-caps:normal;font-variant-numeric:normal;font-feature-settings:normal;text-align:start;letter-spacing:0px;word-spacing:0px;writing-mode:lr-tb;text-anchor:start;fill:#000000;fill-opacity:1;stroke:none;stroke-width:0.26458332"
       id="text5728">
      <path
         d="m -521.35154,75.808138 -0.32246,-0.595313 q 0.71934,-1.909961 0.94258,-3.894336 0.24805,-2.009179 0.24805,-4.092773 0,-3.695899 -0.84336,-9.525 -0.84336,-5.853906 -0.84336,-9.376172 0,-2.455664 0.89297,-3.869531 0.89296,-1.438672 2.45566,-1.438672 1.6123,0 2.48047,1.488281 0.86816,1.488282 0.86816,3.819922 0,3.522266 -0.84336,9.376172 -0.84336,5.829101 -0.84336,9.525 0,2.083594 0.22325,4.092773 0.24804,1.984375 0.96738,3.894336 l -0.32246,0.595313 z m 4.46485,-0.79375 q -0.64493,-1.885157 -0.86817,-3.869532 -0.19844,-2.009179 -0.19844,-3.993554 0,-3.59668 0.84336,-9.649024 0.84336,-6.052343 0.84336,-9.078515 0,-2.480469 -0.64492,-3.54707 -0.64492,-1.066602 -1.90996,-1.066602 -1.26504,0 -1.90996,1.066602 -0.64492,1.066601 -0.64492,3.54707 0,3.026172 0.84336,9.078515 0.84336,6.052344 0.84336,9.649024 0,1.984375 -0.22325,3.993554 -0.19843,1.984375 -0.84336,3.869532 z m -11.33575,5.853906 q -2.57968,0 -2.57968,-5.481836 0,-1.810742 0.14882,-4.117578 0.14883,-2.331641 0.42168,-5.208984 -1.0666,-2.80293 -1.0666,-4.985743 0,-2.232421 1.0666,-4.613671 l 0.44649,-0.272852 q 0.0992,0.07441 0.22324,0.297656 0.12402,0.198438 0.12402,0.768946 0,0.520898 -0.29765,1.686718 -0.27285,1.165821 -0.27285,1.711524 0,1.661914 0.5705,3.423047 1.5627,0 1.5627,-2.455664 0,-1.240235 -0.34727,-2.356446 0.29766,-0.446484 0.57051,-0.446484 0.86817,0 0.86817,3.497461 0,1.909961 -1.43868,3.348633 -0.0992,0.868164 -0.14882,1.934765 -0.0248,1.041797 -0.0248,2.257227 l 0.0496,2.33164 q 0,2.033985 0.12402,5.878711 0.14883,0 1.33946,0.09922 l 3.39824,0.248047 q 1.56269,0.09922 2.6541,0.322461 1.11621,0.198437 1.81074,0.520898 0.69453,-0.322461 1.81074,-0.520898 1.11622,-0.223243 2.70372,-0.322461 l 3.47265,-0.248047 q 1.19063,-0.07441 1.31465,-0.09922 l 0.14883,-6.201172 0.0248,-2.009179 q 0,-1.21543 -0.0496,-2.257227 -0.0248,-1.066601 -0.12402,-1.934765 -1.43867,-1.438672 -1.43867,-3.348633 0,-3.497461 0.86816,-3.497461 0.27285,0 0.57051,0.446484 -0.34727,1.116211 -0.34727,2.356446 0,1.289843 0.39688,1.885156 0.39687,0.570508 1.16582,0.570508 0.57051,-1.761133 0.57051,-3.398243 0,-0.595312 -0.29766,-1.736328 -0.27285,-1.16582 -0.27285,-1.686718 0,-0.644922 0.34727,-1.066602 l 0.44648,0.272852 q 1.0418,2.430859 1.0418,4.613671 0,2.158008 -1.0418,4.985743 0.27285,2.902148 0.42168,5.233789 0.14883,2.306835 0.14883,4.092773 0,5.481836 -2.57969,5.481836 z"
         style="stroke-width:0.26458332"
         id="path5751"
         inkscape:connector-curvature="0" />
    </g>
  </g>
</svg>
