<?xml version="1.0" encoding="UTF-8" standalone="no"?>
<!-- Created with Inkscape (http://www.inkscape.org/) -->

<svg
   xmlns:dc="http://purl.org/dc/elements/1.1/"
   xmlns:cc="http://creativecommons.org/ns#"
   xmlns:rdf="http://www.w3.org/1999/02/22-rdf-syntax-ns#"
   xmlns:svg="http://www.w3.org/2000/svg"
   xmlns="http://www.w3.org/2000/svg"
   xmlns:sodipodi="http://sodipodi.sourceforge.net/DTD/sodipodi-0.dtd"
   xmlns:inkscape="http://www.inkscape.org/namespaces/inkscape"
   width="37.132614mm"
   height="36.214844mm"
   viewBox="0 0 37.132614 36.214841"
   version="1.1"
   id="svg4525"
   inkscape:version="0.92.4 (5da689c313, 2019-01-14)"
   sodipodi:docname="D33.svg">
  <defs
     id="defs4519" />
  <sodipodi:namedview
     id="base"
     pagecolor="#ffffff"
     bordercolor="#666666"
     borderopacity="1.0"
     inkscape:pageopacity="0.0"
     inkscape:pageshadow="2"
     inkscape:zoom="0.35"
     inkscape:cx="1086.8518"
     inkscape:cy="-35.112264"
     inkscape:document-units="mm"
     inkscape:current-layer="layer1"
     showgrid="false"
     fit-margin-top="0"
     fit-margin-left="0"
     fit-margin-right="0"
     fit-margin-bottom="0"
     inkscape:window-width="1920"
     inkscape:window-height="1017"
     inkscape:window-x="-8"
     inkscape:window-y="-8"
     inkscape:window-maximized="1"
     showguides="true" />
  <metadata
     id="metadata4522">
    <rdf:RDF>
      <cc:Work
         rdf:about="">
        <dc:format>image/svg+xml</dc:format>
        <dc:type
           rdf:resource="http://purl.org/dc/dcmitype/StillImage" />
        <dc:title></dc:title>
      </cc:Work>
    </rdf:RDF>
  </metadata>
  <g
     inkscape:label="Layer 1"
     inkscape:groupmode="layer"
     id="layer1"
     transform="translate(605.16919,-57.97121)">
    <g
       aria-label="𓂙"
       transform="matrix(0.26458333,0,0,0.26458333,-551.98068,51.557793)"
       style="font-style:normal;font-variant:normal;font-weight:normal;font-stretch:normal;font-size:192px;line-height:1.25;font-family:sans-serif;-inkscape-font-specification:sans-serif;font-variant-ligatures:normal;font-variant-caps:normal;font-variant-numeric:normal;font-feature-settings:normal;text-align:start;letter-spacing:0px;word-spacing:0px;writing-mode:lr-tb;text-anchor:start;fill:#000000;fill-opacity:1;stroke:none"
       id="flowRoot5765">
      <path
         d="m -180.21484,97.270936 q -2.25,0.5625 -3.1875,0.5625 -0.65625,0 -0.65625,-0.375 0,-0.1875 0.0937,-0.28125 0.0937,-0.1875 0.0937,-0.375 0,-0.375 -0.75,-0.375 -1.03125,0 -3.09375,0.5625 -2.25,0 -2.53125,-1.5 0,-0.75 0.84375,-1.21875 0.84375,-0.5625 2.53125,-1.21875 l -11.8125,-5.8125 q -2.34375,-0.84375 -2.34375,-2.25 0,-1.03125 0.65625,-1.78125 0.65625,-0.75 1.40625,-0.75 0.75,0 1.78125,0.5625 l 15.28125,8.34375 7.875,-0.65625 q 7.96875,-2.34375 16.59375,-5.4375 8.625,-3.1875 18.09375,-7.3125 l 4.125,-15 q -7.3125,-7.21875 -13.40625,-14.625 -6,-7.5 -10.3125,-16.03125 0,-3.28125 1.96875,-5.15625 1.96875,-1.96875 4.96875,-1.96875 1.78125,0 5.25,0.75 l 7.40625,1.78125 q 3.9375,0.9375 7.78125,1.78125 3.84375,0.75 6.28125,0.75 4.125,0 7.6875,-0.9375 3.5625,-0.9375 6.46875,-2.0625 l 5.625,-2.0625 q 2.53125,-0.9375 4.875,-0.9375 6.187496,0 9.281246,2.15625 3.1875,2.15625 3.84375,14.71875 0.75,12.5625 4.78125,23.90625 4.125,11.25 8.71875,16.03125 4.59375,4.78125 4.59375,8.0625 0,2.4375 -1.78125,3.9375 -1.6875,1.5 -4.78125,1.5 -7.59375,-3.375 -19.21875,-8.25 -11.624996,-4.96875 -15.468746,-6.65625 v 16.5 q -5.625,13.125004 -15.09375,22.593754 l -1.5,3.09375 40.874996,22.6875 q 0.9375,-0.1875 2.625,-0.1875 15.65625,0 23.0625,16.78125 -21.46875,0 -27.1875,-13.59375 l -40.218746,-22.125 q -0.5625,2.4375 -2.15625,2.4375 -1.21875,-1.78125 -2.15625,-1.78125 -0.84375,0 -1.6875,1.6875 -0.75,1.59375 -1.96875,1.59375 -0.75,0 -1.3125,-0.46875 -0.5625,-0.46875 -0.5625,-1.3125 0,-1.96875 2.8125,-6.375 z m 48.46875,21.468754 3,-1.5 q 3.75,-7.59375 6.375,-13.125 2.625,-5.625004 4.21875,-9.562504 v -17.90625 l -10.96875,-9.1875 -4.125,16.59375 q -5.625,2.34375 -19.78125,5.15625 -14.15625,2.8125 -21.09375,6.5625 z m 56.156246,-27.187504 q 0.9375,0 2.0625,-0.375 1.21875,-0.375 1.21875,-1.875 0,-0.46875 -0.09375,-0.84375 0,-0.84375 -3.09375,-4.3125 -3,-3.46875 -7.40625,-12.09375 -4.3125,-8.625 -6.09375,-19.59375 -1.6875,-10.96875 -1.6875,-15.65625 0,-4.78125 -2.0625,-7.125 -2.0625,-2.4375 -7.03125,-2.4375 -3.468746,0 -11.156246,3 -7.6875,3 -14.34375,3 -3,0 -6.65625,-0.75 -3.65625,-0.84375 -7.3125,-1.78125 l -6.9375,-1.78125 q -3.28125,-0.75 -5.53125,-0.75 -2.53125,0 -3.375,1.03125 -0.84375,0.9375 -0.84375,3 5.8125,10.21875 13.125,18.46875 7.40625,8.25 8.71875,9.28125 1.40625,0.9375 6.375,5.0625 l 10.3125,8.625 z m -8.8125,56.156254 q 1.5,2.71875 4.59375,5.53125 3.1875,2.71875 9.9375,4.125 l 4.3125,0.75 q -4.78125,-6.5625 -8.25,-8.53125 -3.375,-1.96875 -8.53125,-1.96875 h -0.84375 z"
         id="path5773"
         inkscape:connector-curvature="0" />
    </g>
  </g>
</svg>
