<?xml version="1.0" encoding="UTF-8" standalone="no"?>
<!-- Created with Inkscape (http://www.inkscape.org/) -->

<svg
   xmlns:dc="http://purl.org/dc/elements/1.1/"
   xmlns:cc="http://creativecommons.org/ns#"
   xmlns:rdf="http://www.w3.org/1999/02/22-rdf-syntax-ns#"
   xmlns:svg="http://www.w3.org/2000/svg"
   xmlns="http://www.w3.org/2000/svg"
   xmlns:sodipodi="http://sodipodi.sourceforge.net/DTD/sodipodi-0.dtd"
   xmlns:inkscape="http://www.inkscape.org/namespaces/inkscape"
   width="37.603905mm"
   height="31.998045mm"
   viewBox="0 0 37.603905 31.998045"
   version="1.1"
   id="svg6452"
   inkscape:version="0.92.4 (5da689c313, 2019-01-14)"
   sodipodi:docname="D34.svg">
  <defs
     id="defs6446" />
  <sodipodi:namedview
     id="base"
     pagecolor="#ffffff"
     bordercolor="#666666"
     borderopacity="1.0"
     inkscape:pageopacity="0.0"
     inkscape:pageshadow="2"
     inkscape:zoom="0.35"
     inkscape:cx="-357.54492"
     inkscape:cy="-360.47522"
     inkscape:document-units="mm"
     inkscape:current-layer="layer1"
     showgrid="false"
     fit-margin-top="0"
     fit-margin-left="0"
     fit-margin-right="0"
     fit-margin-bottom="0"
     inkscape:window-width="1920"
     inkscape:window-height="1017"
     inkscape:window-x="-8"
     inkscape:window-y="-8"
     inkscape:window-maximized="1" />
  <metadata
     id="metadata6449">
    <rdf:RDF>
      <cc:Work
         rdf:about="">
        <dc:format>image/svg+xml</dc:format>
        <dc:type
           rdf:resource="http://purl.org/dc/dcmitype/StillImage" />
        <dc:title></dc:title>
      </cc:Work>
    </rdf:RDF>
  </metadata>
  <g
     inkscape:label="Layer 1"
     inkscape:groupmode="layer"
     id="layer1"
     transform="translate(-7.2879272,-21.459553)">
    <g
       aria-label="𓂚"
       transform="scale(0.26458333)"
       style="font-style:normal;font-variant:normal;font-weight:normal;font-stretch:normal;font-size:192px;line-height:1.25;font-family:sans-serif;-inkscape-font-specification:'sans-serif, Normal';font-variant-ligatures:normal;font-variant-caps:normal;font-variant-numeric:normal;font-feature-settings:normal;text-align:start;letter-spacing:0px;word-spacing:0px;writing-mode:lr-tb;text-anchor:start;fill:#000000;fill-opacity:1;stroke:none"
       id="flowRoot6997">
      <path
         d="m 169.66992,181.23187 v 4.21875 h -10.875 q -1.96875,1.5 -5.8125,1.5 l -1.5,1.5 h -1.5 l 1.03125,-3 H 59.326172 v -4.21875 h 9.1875 q 0.46875,-4.21875 3,-7.125 2.625,-2.90625 7.5,-2.90625 3.84375,0 6.1875,2.71875 2.34375,2.71875 2.8125,7.3125 h 64.499998 q 0.75,-1.96875 3.5625,-4.5 0.28125,-5.15625 0.28125,-9.65625 0,-11.0625 -2.34375,-18.46875 -2.34375,-7.5 -2.34375,-18.46875 l -28.875,-36.843746 q -1.3125,-1.125 -2.34375,-1.125 -0.75,0 -1.96875,0.9375 -1.21875,0.84375 -7.21875,14.718746 -5.90625,13.875 -9.65625,19.875 -3.749998,5.90625 -7.593748,7.875 -6.75,2.15625 -15.9375,2.15625 -2.4375,0 -5.53125,-0.0937 -3,-0.0937 -5.90625,-0.28125 l -5.625,-0.28125 q -2.625,0 -4.03125,-0.0937 h -3 v 63.5625 l -1.59375,1.5 h -23.4375 l -1.40625,-1.78125 v -74.0625 q 0,-23.53125 7.875,-34.312496 7.875,-10.78125 17.71875,-10.78125 5.90625,0 10.21875,3.75 4.3125,3.65625 4.3125,8.53125 0,6.843746 -6.84375,12.281246 -6.84375,5.4375 -6.84375,9.5625 v 14.90625 l 34.40625,-1.125 3.09375,-5.4375 q 5.53125,-9.84375 9.281248,-19.40625 3.75,-9.656246 8.625,-15.656246 4.875,-6.09375 10.5,-6.09375 5.25,0 10.59375,6.1875 l 17.15625,19.406246 q 7.125,8.0625 10.78125,16.59375 3.65625,8.4375 3.65625,27 0,5.0625 -0.375,11.34375 -0.375,6.1875 -1.125,13.78125 0.9375,1.875 0.9375,3.5625 l -0.0937,0.65625 v 0.28125 z M 50.982422,116.26312 q 0,-6.09375 6.75,-11.53125 6.75,-5.437496 6.75,-11.343746 0,-4.03125 -3.375,-6.65625 -3.375,-2.625 -7.78125,-2.625 -11.34375,1.3125 -17.0625,12.1875 -5.71875,10.781246 -5.71875,30.187496 v 72.5625 h 20.4375 z m 33.65625,63.46875 q -0.1875,-2.4375 -1.96875,-3.9375 -1.6875,-1.5 -4.03125,-1.5 -2.34375,0 -4.3125,1.5 -1.875,1.40625 -2.625,3.9375 z"
         id="path7005"
         inkscape:connector-curvature="0" />
    </g>
  </g>
</svg>
