<?xml version="1.0" encoding="UTF-8" standalone="no"?>
<!-- Created with Inkscape (http://www.inkscape.org/) -->

<svg
   xmlns:dc="http://purl.org/dc/elements/1.1/"
   xmlns:cc="http://creativecommons.org/ns#"
   xmlns:rdf="http://www.w3.org/1999/02/22-rdf-syntax-ns#"
   xmlns:svg="http://www.w3.org/2000/svg"
   xmlns="http://www.w3.org/2000/svg"
   xmlns:sodipodi="http://sodipodi.sourceforge.net/DTD/sodipodi-0.dtd"
   xmlns:inkscape="http://www.inkscape.org/namespaces/inkscape"
   width="37.678322mm"
   height="32.047657mm"
   viewBox="0 0 37.678322 32.047657"
   version="1.1"
   id="svg7014"
   inkscape:version="0.92.4 (5da689c313, 2019-01-14)"
   sodipodi:docname="D34A.svg">
  <defs
     id="defs7008" />
  <sodipodi:namedview
     id="base"
     pagecolor="#ffffff"
     bordercolor="#666666"
     borderopacity="1.0"
     inkscape:pageopacity="0.0"
     inkscape:pageshadow="2"
     inkscape:zoom="0.35"
     inkscape:cx="-388.97266"
     inkscape:cy="-363.33279"
     inkscape:document-units="mm"
     inkscape:current-layer="layer1"
     showgrid="false"
     fit-margin-top="0"
     fit-margin-left="0"
     fit-margin-right="0"
     fit-margin-bottom="0"
     inkscape:window-width="1920"
     inkscape:window-height="1017"
     inkscape:window-x="-8"
     inkscape:window-y="-8"
     inkscape:window-maximized="1" />
  <metadata
     id="metadata7011">
    <rdf:RDF>
      <cc:Work
         rdf:about="">
        <dc:format>image/svg+xml</dc:format>
        <dc:type
           rdf:resource="http://purl.org/dc/dcmitype/StillImage" />
        <dc:title></dc:title>
      </cc:Work>
    </rdf:RDF>
  </metadata>
  <g
     inkscape:label="Layer 1"
     inkscape:groupmode="layer"
     id="layer1"
     transform="translate(-15.603182,-20.653878)">
    <g
       aria-label="𓂛"
       transform="scale(0.26458333)"
       style="font-style:normal;font-variant:normal;font-weight:normal;font-stretch:normal;font-size:192px;line-height:1.25;font-family:sans-serif;-inkscape-font-specification:'sans-serif, Normal';font-variant-ligatures:normal;font-variant-caps:normal;font-variant-numeric:normal;font-feature-settings:normal;text-align:start;letter-spacing:0px;word-spacing:0px;writing-mode:lr-tb;text-anchor:start;fill:#000000;fill-opacity:1;stroke:none"
       id="flowRoot7559">
      <path
         d="m 139.12891,185.5932 q -9.65625,6.375 -14.34375,6.375 -4.40625,0 -6.75,-5.625 h -1.5 v -4.5 h 1.5 q 1.6875,-5.8125 6.28125,-5.8125 5.90625,0 14.8125,5.8125 h 41.0625 q 1.5,-2.4375 2.90625,-3.84375 1.96875,-8.90625 3.375,-25.875 1.5,-17.0625 3.09375,-24.9375 l -18.84375,-14.8125 q -11.25,-8.90625 -17.25,-16.593748 -4.03125,25.968748 -12.75,39.843748 -1.6875,0.1875 -3.5625,0.28125 -1.78125,0.0937 -3.65625,0.0937 -1.96875,0 -5.90625,-0.28125 l -16.78125,-1.03125 q -4.125,-0.28125 -6.375,-0.375 0,16.03125 0.9375,31.78125 0.9375,15.65625 2.0625,31.59375 l -1.59375,1.5 H 60.378906 l -1.40625,-1.78125 q 1.21875,-15.75 1.96875,-31.21875 0.75,-15.46875 0.75,-31.125 0,-12.75 -0.65625,-25.3125 -0.5625,-12.562498 -2.0625,-25.406248 l 0.9375,-1.6875 q 6.28125,-2.25 12.1875,-3.375 6,-1.21875 11.90625,-1.21875 11.53125,0 23.812504,4.59375 l 1.03125,1.875 q -2.15625,10.78125 -3.1875,21.656248 -1.03125,10.875 -1.21875,21.84375 h 30.1875 q 0.1875,-0.65625 5.8125,-22.03125 5.625,-21.468748 10.78125,-21.468748 6.9375,0 23.0625,14.90625 16.125,14.812498 23.90625,25.593748 0,5.34375 -1.03125,12.65625 -0.9375,7.21875 -6.09375,27.1875 l -3.375,13.125 0.75,3.84375 h 12.9375 v 3.75 h -15.28125 q -1.21875,0.84375 -2.71875,1.21875 -1.5,0.28125 -3.375,0.28125 l -0.9375,0.84375 q -0.65625,0.5625 -1.5,0.9375 l -0.28125,-0.28125 q 0,-0.5625 0.1875,-1.21875 0.28125,-0.75 0.75,-1.78125 z m -33.375,-100.593748 q -10.875004,-3.9375 -21.656254,-3.9375 -5.625,0 -11.0625,1.03125 -5.4375,1.03125 -10.96875,3 1.40625,12.5625 1.96875,25.124998 0.65625,12.46875 0.65625,25.03125 0,15.375 -0.75,30.46875 -0.75,15.09375 -1.875,30.46875 h 42.281254 l -1.125,-16.78125 q -0.75,-11.4375 -1.3125,-23.34375 -0.46875,-12 -0.46875,-22.03125 0,-12.375 0.9375,-24.5625 0.9375,-12.187498 3.375,-24.468748 z m 30.65625,98.718748 q -3.375,-2.15625 -6.46875,-3.375 -3,-1.3125 -4.96875,-1.3125 -2.15625,0 -3.09375,1.5 -0.84375,1.5 -0.84375,3.65625 0,2.15625 1.03125,3.46875 1.125,1.3125 2.90625,1.3125 2.0625,0 5.25,-1.59375 3.1875,-1.59375 6.1875,-3.65625 z"
         id="path7567"
         inkscape:connector-curvature="0" />
    </g>
  </g>
</svg>
