<?xml version="1.0" encoding="UTF-8" standalone="no"?>
<!-- Created with Inkscape (http://www.inkscape.org/) -->

<svg
   xmlns:dc="http://purl.org/dc/elements/1.1/"
   xmlns:cc="http://creativecommons.org/ns#"
   xmlns:rdf="http://www.w3.org/1999/02/22-rdf-syntax-ns#"
   xmlns:svg="http://www.w3.org/2000/svg"
   xmlns="http://www.w3.org/2000/svg"
   xmlns:sodipodi="http://sodipodi.sourceforge.net/DTD/sodipodi-0.dtd"
   xmlns:inkscape="http://www.inkscape.org/namespaces/inkscape"
   width="37.603905mm"
   height="12.724805mm"
   viewBox="0 0 37.603904 12.724804"
   version="1.1"
   id="svg4525"
   inkscape:version="0.92.4 (5da689c313, 2019-01-14)"
   sodipodi:docname="D38.svg">
  <defs
     id="defs4519" />
  <sodipodi:namedview
     id="base"
     pagecolor="#ffffff"
     bordercolor="#666666"
     borderopacity="1.0"
     inkscape:pageopacity="0.0"
     inkscape:pageshadow="2"
     inkscape:zoom="0.35"
     inkscape:cx="1162.3889"
     inkscape:cy="-193.92891"
     inkscape:document-units="mm"
     inkscape:current-layer="layer1"
     showgrid="false"
     fit-margin-top="0"
     fit-margin-left="0"
     fit-margin-right="0"
     fit-margin-bottom="0"
     inkscape:window-width="1920"
     inkscape:window-height="1017"
     inkscape:window-x="-8"
     inkscape:window-y="-8"
     inkscape:window-maximized="1"
     showguides="true" />
  <metadata
     id="metadata4522">
    <rdf:RDF>
      <cc:Work
         rdf:about="">
        <dc:format>image/svg+xml</dc:format>
        <dc:type
           rdf:resource="http://purl.org/dc/dcmitype/StillImage" />
        <dc:title></dc:title>
      </cc:Work>
    </rdf:RDF>
  </metadata>
  <g
     inkscape:label="Layer 1"
     inkscape:groupmode="layer"
     id="layer1"
     transform="translate(625.15505,-39.441013)">
    <g
       aria-label="𓂟"
       transform="matrix(0.26458333,0,0,0.26458333,-636.97862,57.797143)"
       style="font-style:normal;font-variant:normal;font-weight:normal;font-stretch:normal;font-size:192px;line-height:1.25;font-family:sans-serif;-inkscape-font-specification:sans-serif;font-variant-ligatures:normal;font-variant-caps:normal;font-variant-numeric:normal;font-feature-settings:normal;text-align:start;letter-spacing:0px;word-spacing:0px;writing-mode:lr-tb;text-anchor:start;fill:#000000;fill-opacity:1;stroke:none"
       id="flowRoot5809">
      <path
         d="m 44.6875,-25.221251 v -8.0625 q 0,-18.75 4.3125,-27.375 4.40625,-8.71875 12.65625,-8.71875 9,0 13.40625,7.40625 4.40625,7.40625 4.40625,25.40625 v 7.96875 q 10.78125,-0.5625 20.71875,-1.21875 l 20.625,-1.40625 q 12.09375,-0.84375 25.5,-0.84375 5.0625,0 10.3125,0.09375 l 10.5,0.375 6.09375,-36.28125 h 13.59375 v 43.875 H 77.96875 q -4.03125,1.59375 -7.96875,2.15625 -3.9375,0.5625 -8.53125,0.5625 -4.6875,0 -7.96875,-0.65625 -3.28125,-0.75 -7.3125,-2.53125 z m 3,-3.5625 q 1.3125,-1.3125 3,-1.3125 7.59375,3 21.1875,3 -6.09375,-4.5 -15.09375,-4.5 -1.125,0 -1.125,-0.75 0,-0.75 1.125,-0.75 3.375,-0.5625 6.1875,-0.5625 2.8125,0 5.25,0.65625 2.53125,0.65625 8.25,3.46875 v -7.125 q 0,-17.0625 -3.75,-23.34375 -3.65625,-6.375 -11.0625,-6.375 -6.84375,0 -10.40625,8.8125 -3.5625,8.71875 -3.5625,24.65625 z m 136.125,2.25 v -38.34375 H 175.75 l -5.53125,33.46875 z"
         id="path5817"
         inkscape:connector-curvature="0" />
    </g>
  </g>
</svg>
