<?xml version="1.0" encoding="UTF-8" standalone="no"?>
<!-- Created with Inkscape (http://www.inkscape.org/) -->

<svg
   xmlns:dc="http://purl.org/dc/elements/1.1/"
   xmlns:cc="http://creativecommons.org/ns#"
   xmlns:rdf="http://www.w3.org/1999/02/22-rdf-syntax-ns#"
   xmlns:svg="http://www.w3.org/2000/svg"
   xmlns="http://www.w3.org/2000/svg"
   xmlns:sodipodi="http://sodipodi.sourceforge.net/DTD/sodipodi-0.dtd"
   xmlns:inkscape="http://www.inkscape.org/namespaces/inkscape"
   width="985.17126mm"
   height="257.45816mm"
   viewBox="0 0 985.17125 257.45816"
   version="1.1"
   id="svg4218"
   inkscape:version="0.92.4 (5da689c313, 2019-01-14)"
   sodipodi:docname="D4.svg">
  <defs
     id="defs4212" />
  <sodipodi:namedview
     id="base"
     pagecolor="#ffffff"
     bordercolor="#666666"
     borderopacity="1.0"
     inkscape:pageopacity="0.0"
     inkscape:pageshadow="2"
     inkscape:zoom="0.35"
     inkscape:cx="1761.9326"
     inkscape:cy="-225.28821"
     inkscape:document-units="mm"
     inkscape:current-layer="layer1"
     showgrid="false"
     fit-margin-top="0"
     fit-margin-left="0"
     fit-margin-right="0"
     fit-margin-bottom="0"
     inkscape:window-width="1920"
     inkscape:window-height="1017"
     inkscape:window-x="-8"
     inkscape:window-y="-8"
     inkscape:window-maximized="1" />
  <metadata
     id="metadata4215">
    <rdf:RDF>
      <cc:Work
         rdf:about="">
        <dc:format>image/svg+xml</dc:format>
        <dc:type
           rdf:resource="http://purl.org/dc/dcmitype/StillImage" />
        <dc:title></dc:title>
      </cc:Work>
    </rdf:RDF>
  </metadata>
  <g
     inkscape:label="Layer 1"
     inkscape:groupmode="layer"
     id="layer1"
     transform="translate(751.95987,9.0735683)">
    <flowRoot
       xml:space="preserve"
       id="flowRoot4519"
       style="font-style:normal;font-variant:normal;font-weight:normal;font-stretch:normal;font-size:192px;line-height:1.25;font-family:sans-serif;-inkscape-font-specification:sans-serif;font-variant-ligatures:normal;font-variant-caps:normal;font-variant-numeric:normal;font-feature-settings:normal;text-align:start;letter-spacing:0px;word-spacing:0px;writing-mode:lr-tb;text-anchor:start;fill:#000000;fill-opacity:1;stroke:none"
       transform="matrix(0.26458333,0,0,0.26458333,8.0439534,29.498829)"><flowRegion
         id="flowRegion4521"><rect
           id="rect4523"
           width="654.28571"
           height="800"
           x="-77.14286"
           y="-55.160725" /></flowRegion><flowPara
         id="flowPara4525" /></flowRoot>    <g
       aria-label="ð“¹"
       style="font-style:normal;font-variant:normal;font-weight:normal;font-stretch:normal;font-size:50.79999924px;line-height:1.25;font-family:sans-serif;-inkscape-font-specification:sans-serif;font-variant-ligatures:normal;font-variant-caps:normal;font-variant-numeric:normal;font-feature-settings:normal;text-align:start;letter-spacing:0px;word-spacing:0px;writing-mode:lr-tb;text-anchor:start;fill:#000000;fill-opacity:1;stroke:none;stroke-width:0.26458332"
       id="text4529"
       transform="matrix(26.478095,0,0,26.478095,-777.60951,-1147.0597)">
      <path
         d="m 14.958555,52.701839 q -2.554883,-0.07441 -6.3996091,-0.917773 -1.9347656,-0.42168 -3.3982422,-0.595312 -1.4634765,-0.173633 -2.455664,-0.173633 -0.4464844,0 -0.8929687,0.04961 -0.4216797,0.02481 -0.8433594,0.07441 0.2480469,-0.272851 1.1162109,-0.595312 0.8681641,-0.347266 2.058789,-0.694532 1.4138672,-1.835546 2.778125,-3.12539 1.3642578,-1.314649 2.7037109,-2.133203 1.3394536,-0.84336 2.6789066,-1.21543 1.339453,-0.396875 2.728515,-0.396875 2.604492,0 9.202539,3.075781 l 2.480469,1.165821 q 2.33164,1.116211 4.018359,1.637109 1.686719,0.520898 2.80293,0.818555 l 2.926953,0.768945 q 1.141015,0.297656 1.711523,0.79375 -1.513086,-0.198438 -2.604492,-0.297656 -1.066601,-0.124024 -1.761133,-0.124024 -1.513086,0 -3.869531,0.198438 -2.33164,0.173633 -5.55625,0.669726 -3.224609,0.496094 -5.581054,0.768946 -2.331641,0.248046 -3.844727,0.248046 z m -3.745508,-4.861718 q 0,0.694531 0.297657,1.339453 0.297656,0.644922 0.79375,1.16582 0.496093,0.496094 1.141015,0.818555 0.644922,0.297656 1.339453,0.297656 0.719336,0 1.413867,-0.272851 0.719336,-0.297657 1.26504,-0.768946 0.570507,-0.496094 0.917773,-1.16582 0.347266,-0.669727 0.347266,-1.413867 0,-0.818555 -0.322461,-1.463477 -0.322461,-0.669726 -0.868164,-1.141015 -0.545704,-0.496094 -1.265039,-0.744141 -0.719336,-0.272852 -1.488282,-0.272852 -0.719336,0 -1.364257,0.297657 -0.644922,0.297656 -1.141016,0.818554 -0.496094,0.496094 -0.79375,1.165821 -0.272852,0.644922 -0.272852,1.339453 z m 7.317383,3.373437 q 0.868164,-0.09922 2.282031,-0.272851 1.413867,-0.198438 3.22461,-0.471289 1.810742,-0.272852 3.323828,-0.396875 1.513086,-0.148829 2.75332,-0.148829 -1.488281,-0.396875 -5.283398,-2.232421 -1.885157,-0.917774 -3.323828,-1.513086 -1.438672,-0.620117 -2.282032,-0.942578 0.744141,1.116211 0.744141,2.604492 0,1.95957 -1.438672,3.373437 z M 5.6071881,49.973324 q 1.5626953,0.42168 3.0261718,0.74414 1.4882811,0.297657 2.6789061,0.42168 -1.339453,-1.488281 -1.339453,-3.299023 0,-1.339453 0.620117,-2.406055 -1.1906248,0.669727 -2.4060544,1.785938 -1.2154297,1.116211 -2.5796875,2.75332 z"
         style="stroke-width:0.26458332"
         id="path4531"
         inkscape:connector-curvature="0" />
    </g>
  </g>
</svg>
