<?xml version="1.0" encoding="UTF-8" standalone="no"?>
<!-- Created with Inkscape (http://www.inkscape.org/) -->

<svg
   xmlns:dc="http://purl.org/dc/elements/1.1/"
   xmlns:cc="http://creativecommons.org/ns#"
   xmlns:rdf="http://www.w3.org/1999/02/22-rdf-syntax-ns#"
   xmlns:svg="http://www.w3.org/2000/svg"
   xmlns="http://www.w3.org/2000/svg"
   xmlns:sodipodi="http://sodipodi.sourceforge.net/DTD/sodipodi-0.dtd"
   xmlns:inkscape="http://www.inkscape.org/namespaces/inkscape"
   width="37.157421mm"
   height="12.377539mm"
   viewBox="0 0 37.15742 12.377538"
   version="1.1"
   id="svg4525"
   inkscape:version="0.92.4 (5da689c313, 2019-01-14)"
   sodipodi:docname="D40.svg">
  <defs
     id="defs4519" />
  <sodipodi:namedview
     id="base"
     pagecolor="#ffffff"
     bordercolor="#666666"
     borderopacity="1.0"
     inkscape:pageopacity="0.0"
     inkscape:pageshadow="2"
     inkscape:zoom="0.35"
     inkscape:cx="1141.5862"
     inkscape:cy="-27.947686"
     inkscape:document-units="mm"
     inkscape:current-layer="layer1"
     showgrid="false"
     fit-margin-top="0"
     fit-margin-left="0"
     fit-margin-right="0"
     fit-margin-bottom="0"
     inkscape:window-width="1920"
     inkscape:window-height="1017"
     inkscape:window-x="-8"
     inkscape:window-y="-8"
     inkscape:window-maximized="1"
     showguides="true" />
  <metadata
     id="metadata4522">
    <rdf:RDF>
      <cc:Work
         rdf:about="">
        <dc:format>image/svg+xml</dc:format>
        <dc:type
           rdf:resource="http://purl.org/dc/dcmitype/StillImage" />
        <dc:title></dc:title>
      </cc:Work>
    </rdf:RDF>
  </metadata>
  <g
     inkscape:label="Layer 1"
     inkscape:groupmode="layer"
     id="layer1"
     transform="translate(619.65099,-83.704145)">
    <g
       aria-label="𓂡"
       transform="matrix(0.26458333,0,0,0.26458333,-663.22456,53.603828)"
       style="font-style:normal;font-variant:normal;font-weight:normal;font-stretch:normal;font-size:192px;line-height:1.25;font-family:sans-serif;-inkscape-font-specification:sans-serif;font-variant-ligatures:normal;font-variant-caps:normal;font-variant-numeric:normal;font-feature-settings:normal;text-align:start;letter-spacing:0px;word-spacing:0px;writing-mode:lr-tb;text-anchor:start;fill:#000000;fill-opacity:1;stroke:none"
       id="flowRoot5831">
      <path
         d="m 169,144.04633 q -1.03125,-0.5625 -1.6875,-1.03125 -0.65625,-0.46875 -1.21875,-1.21875 l 1.40625,-0.75 q 1.6875,0.28125 3.46875,0.75 1.875,0.375 3.84375,1.03125 l -10.125,-22.03125 q 0,-5.625 3,-5.625 l 0.75,0.0937 q 0.28125,0 0.5625,0.0937 v 1.5 q -1.96875,0.28125 -1.96875,2.625 0,1.125 10.78125,24.1875 6.46875,2.8125 11.625,7.96875 3.1875,-0.1875 11.625,-0.84375 l 22.03125,-1.78125 q 20.625,-1.6875 33.75,-1.6875 6.46875,0 13.21875,0.28125 6.75,0.28125 13.875,0.9375 l 6,-34.78125 h 15.1875 v 42.375 H 183.4375 l 2.4375,4.40625 h -2.34375 l -2.4375,-4.40625 Q 175,156.14008 169,144.04633 Z m 9.9375,8.0625 q -0.75,-1.03125 -2.25,-2.0625 -1.5,-1.03125 -2.34375,-1.03125 0.1875,0.28125 0.65625,0.84375 0.46875,0.5625 0.65625,0.75 l 0.84375,0.84375 q 0.75,0.75 1.6875,1.3125 1.03125,0.46875 1.6875,0.65625 z m -4.21875,-5.53125 q 0.84375,0.46875 2.8125,1.59375 2.0625,1.125 3.5625,3.375 l 1.21875,1.96875 3.75,-0.46875 q -1.21875,-1.96875 -3.375,-3.65625 -2.15625,-1.78125 -5.4375,-3.09375 l -2.34375,-0.9375 q -1.3125,-0.46875 -2.71875,-1.125 0,0.28125 0.28125,0.84375 0.28125,0.5625 0.375,0.5625 z m 127.40625,6 v -35.8125 h -9.5625 l -5.53125,32.25 z"
         id="path5839"
         inkscape:connector-curvature="0" />
    </g>
  </g>
</svg>
