<?xml version="1.0" encoding="UTF-8" standalone="no"?>
<!-- Created with Inkscape (http://www.inkscape.org/) -->

<svg
   xmlns:dc="http://purl.org/dc/elements/1.1/"
   xmlns:cc="http://creativecommons.org/ns#"
   xmlns:rdf="http://www.w3.org/1999/02/22-rdf-syntax-ns#"
   xmlns:svg="http://www.w3.org/2000/svg"
   xmlns="http://www.w3.org/2000/svg"
   xmlns:sodipodi="http://sodipodi.sourceforge.net/DTD/sodipodi-0.dtd"
   xmlns:inkscape="http://www.inkscape.org/namespaces/inkscape"
   width="37.207031mm"
   height="16.867188mm"
   viewBox="0 0 37.207031 16.867188"
   version="1.1"
   id="svg7576"
   inkscape:version="0.92.4 (5da689c313, 2019-01-14)"
   sodipodi:docname="D41.svg">
  <defs
     id="defs7570" />
  <sodipodi:namedview
     id="base"
     pagecolor="#ffffff"
     bordercolor="#666666"
     borderopacity="1.0"
     inkscape:pageopacity="0.0"
     inkscape:pageshadow="2"
     inkscape:zoom="0.35"
     inkscape:cx="-363.25977"
     inkscape:cy="-356.63547"
     inkscape:document-units="mm"
     inkscape:current-layer="layer1"
     showgrid="false"
     fit-margin-top="0"
     fit-margin-left="0"
     fit-margin-right="0"
     fit-margin-bottom="0"
     inkscape:window-width="1920"
     inkscape:window-height="1017"
     inkscape:window-x="-8"
     inkscape:window-y="-8"
     inkscape:window-maximized="1" />
  <metadata
     id="metadata7573">
    <rdf:RDF>
      <cc:Work
         rdf:about="">
        <dc:format>image/svg+xml</dc:format>
        <dc:type
           rdf:resource="http://purl.org/dc/dcmitype/StillImage" />
        <dc:title></dc:title>
      </cc:Work>
    </rdf:RDF>
  </metadata>
  <g
     inkscape:label="Layer 1"
     inkscape:groupmode="layer"
     id="layer1"
     transform="translate(-8.7999796,-37.606345)">
    <g
       aria-label="𓂢"
       transform="scale(0.26458333)"
       style="font-style:normal;font-variant:normal;font-weight:normal;font-stretch:normal;font-size:192px;line-height:1.25;font-family:sans-serif;-inkscape-font-specification:'sans-serif, Normal';font-variant-ligatures:normal;font-variant-caps:normal;font-variant-numeric:normal;font-feature-settings:normal;text-align:start;letter-spacing:0px;word-spacing:0px;writing-mode:lr-tb;text-anchor:start;fill:#000000;fill-opacity:1;stroke:none"
       id="flowRoot8121">
      <path
         d="m 87.728516,186.57172 q 15.750004,-1.125 31.593754,-1.125 15.9375,0 31.875,1.125 l -9.1875,-18.28125 q -6.84375,-13.78125 -6.84375,-17.8125 0,-3.5625 3.09375,-5.90625 3.1875,-2.4375 7.40625,-2.4375 2.625,0 5.90625,1.5 3.28125,1.5 4.125,3.65625 l 18.1875,48.28125 H 90.728516 q -3.1875,9.09375 -11.15625,9.09375 l -5.53125,-0.1875 q -1.875,0 -4.125,-0.28125 -5.0625,0 -10.96875,0.5625 l -3,1.125 -0.28125,-0.1875 q 0.28125,-0.65625 1.6875,-2.25 1.5,-1.59375 1.59375,-1.6875 0.09375,-0.0937 3.46875,-0.65625 l 9.75,-1.5 q 8.4375,-1.21875 9.46875,-5.90625 -6.84375,-4.59375 -14.625,-4.59375 -12.5625,0 -29.25,11.0625 -2.90625,0 -4.5,-3 13.3125,-15 35.625,-15 9.75,0 18.84375,4.40625 z m 81.937504,6 -8.34375,-22.21875 -8.25,-21.75 q -0.5625,-1.40625 -3.09375,-2.4375 -2.4375,-1.03125 -4.21875,-1.03125 -2.90625,0 -5.25,1.5 -2.25,1.40625 -2.25,3.84375 0,1.59375 1.78125,6.09375 1.78125,4.5 7.78125,16.40625 l 3.28125,6.5625 q 1.78125,3.75 3.75,7.5 l -1.78125,2.25 -11.0625,-0.375 q -6,-0.1875 -11.90625,-0.28125 -5.8125,-0.1875 -10.96875,-0.1875 -3.84375,0 -9.1875,0.1875 l -22.593754,1.03125 q -0.75,0 -2.53125,-0.9375 -1.6875,-0.9375 -6.46875,-2.34375 -4.78125,-1.40625 -10.3125,-1.40625 -6.46875,0 -12.84375,2.0625 -6.28125,2.0625 -11.4375,6 6.75,-3.84375 12.65625,-5.15625 5.90625,-1.40625 10.6875,-1.40625 4.78125,0 9.28125,1.59375 4.59375,1.59375 7.78125,3.75 l 0.65625,1.96875 q -1.21875,3.5625 -3.28125,5.25 -2.0625,1.59375 -5.90625,2.8125 5.71875,0 8.25,-1.78125 2.625,-1.78125 3.75,-6.09375 0.28125,-0.28125 0.5625,-0.65625 l 0.46875,-0.46875 q 0.1875,-0.1875 0.1875,-0.28125 l 1.875,-0.0937 h 29.906254 l 19.5,0.0937 z"
         id="path8129"
         inkscape:connector-curvature="0" />
    </g>
  </g>
</svg>
