<?xml version="1.0" encoding="UTF-8" standalone="no"?>
<!-- Created with Inkscape (http://www.inkscape.org/) -->

<svg
   xmlns:dc="http://purl.org/dc/elements/1.1/"
   xmlns:cc="http://creativecommons.org/ns#"
   xmlns:rdf="http://www.w3.org/1999/02/22-rdf-syntax-ns#"
   xmlns:svg="http://www.w3.org/2000/svg"
   xmlns="http://www.w3.org/2000/svg"
   xmlns:sodipodi="http://sodipodi.sourceforge.net/DTD/sodipodi-0.dtd"
   xmlns:inkscape="http://www.inkscape.org/namespaces/inkscape"
   width="37.207031mm"
   height="12.377539mm"
   viewBox="0 0 37.20703 12.377538"
   version="1.1"
   id="svg4525"
   inkscape:version="0.92.4 (5da689c313, 2019-01-14)"
   sodipodi:docname="D42.svg">
  <defs
     id="defs4519" />
  <sodipodi:namedview
     id="base"
     pagecolor="#ffffff"
     bordercolor="#666666"
     borderopacity="1.0"
     inkscape:pageopacity="0.0"
     inkscape:pageshadow="2"
     inkscape:zoom="0.35"
     inkscape:cx="1365.471"
     inkscape:cy="73.219684"
     inkscape:document-units="mm"
     inkscape:current-layer="layer1"
     showgrid="false"
     fit-margin-top="0"
     fit-margin-left="0"
     fit-margin-right="0"
     fit-margin-bottom="0"
     inkscape:window-width="1920"
     inkscape:window-height="1017"
     inkscape:window-x="-8"
     inkscape:window-y="-8"
     inkscape:window-maximized="1"
     showguides="true" />
  <metadata
     id="metadata4522">
    <rdf:RDF>
      <cc:Work
         rdf:about="">
        <dc:format>image/svg+xml</dc:format>
        <dc:type
           rdf:resource="http://purl.org/dc/dcmitype/StillImage" />
        <dc:title></dc:title>
      </cc:Work>
    </rdf:RDF>
  </metadata>
  <g
     inkscape:label="Layer 1"
     inkscape:groupmode="layer"
     id="layer1"
     transform="translate(678.88717,-110.47134)">
    <g
       aria-label="𓂣"
       transform="matrix(0.26458333,0,0,0.26458333,-619.65099,83.704145)"
       style="font-style:normal;font-variant:normal;font-weight:normal;font-stretch:normal;font-size:192px;line-height:1.25;font-family:sans-serif;-inkscape-font-specification:sans-serif;font-variant-ligatures:normal;font-variant-caps:normal;font-variant-numeric:normal;font-feature-settings:normal;text-align:start;letter-spacing:0px;word-spacing:0px;writing-mode:lr-tb;text-anchor:start;fill:#000000;fill-opacity:1;stroke:none"
       id="flowRoot5842">
      <path
         d="m -187.60352,137.44867 q 19.03125,-1.03125 34.5,-2.25 15.5625,-1.3125 30.1875,-1.3125 4.78125,0 9.75,0.0937 l 10.21875,0.375 6.093754,-33.1875 h 13.59375 v 40.78125 H -189.10352 q -3.84375,2.71875 -8.625,3.75 -4.78125,1.03125 -6,1.21875 l -5.0625,1.03125 q 0,-3.09375 1.5,-3.09375 l 6.46875,-2.0625 q 2.71875,-1.125 5.625,-3.84375 -3.75,-1.59375 -7.03125,-1.59375 -4.6875,0 -10.5,3.75 -5.71875,3.65625 -9.65625,6.84375 l -0.75,-0.1875 q -0.75,-0.28125 -0.75,-1.40625 9.84375,-12.5625 22.21875,-12.5625 6.5625,0 14.0625,3.65625 z m 101.343754,1.5 v -34.78125 h -8.0625 l -5.53125,30.65625 z"
         id="path5850"
         inkscape:connector-curvature="0" />
    </g>
  </g>
</svg>
