<?xml version="1.0" encoding="UTF-8" standalone="no"?>
<!-- Created with Inkscape (http://www.inkscape.org/) -->

<svg
   xmlns:dc="http://purl.org/dc/elements/1.1/"
   xmlns:cc="http://creativecommons.org/ns#"
   xmlns:rdf="http://www.w3.org/1999/02/22-rdf-syntax-ns#"
   xmlns:svg="http://www.w3.org/2000/svg"
   xmlns="http://www.w3.org/2000/svg"
   xmlns:sodipodi="http://sodipodi.sourceforge.net/DTD/sodipodi-0.dtd"
   xmlns:inkscape="http://www.inkscape.org/namespaces/inkscape"
   width="37.15741mm"
   height="14.262695mm"
   viewBox="0 0 37.157408 14.262695"
   version="1.1"
   id="svg4525"
   inkscape:version="0.92.4 (5da689c313, 2019-01-14)"
   sodipodi:docname="D43.svg">
  <defs
     id="defs4519" />
  <sodipodi:namedview
     id="base"
     pagecolor="#ffffff"
     bordercolor="#666666"
     borderopacity="1.0"
     inkscape:pageopacity="0.0"
     inkscape:pageshadow="2"
     inkscape:zoom="0.35"
     inkscape:cx="1155.0686"
     inkscape:cy="34.10195"
     inkscape:document-units="mm"
     inkscape:current-layer="layer1"
     showgrid="false"
     fit-margin-top="0"
     fit-margin-left="0"
     fit-margin-right="0"
     fit-margin-bottom="0"
     inkscape:window-width="1920"
     inkscape:window-height="1017"
     inkscape:window-x="-8"
     inkscape:window-y="-8"
     inkscape:window-maximized="1"
     showguides="true" />
  <metadata
     id="metadata4522">
    <rdf:RDF>
      <cc:Work
         rdf:about="">
        <dc:format>image/svg+xml</dc:format>
        <dc:type
           rdf:resource="http://purl.org/dc/dcmitype/StillImage" />
        <dc:title></dc:title>
      </cc:Work>
    </rdf:RDF>
  </metadata>
  <g
     inkscape:label="Layer 1"
     inkscape:groupmode="layer"
     id="layer1"
     transform="translate(623.21822,-98.236283)">
    <g
       aria-label="𓂤"
       transform="matrix(0.26458333,0,0,0.26458333,-678.88717,110.47134)"
       style="font-style:normal;font-variant:normal;font-weight:normal;font-stretch:normal;font-size:192px;line-height:1.25;font-family:sans-serif;-inkscape-font-specification:sans-serif;font-variant-ligatures:normal;font-variant-caps:normal;font-variant-numeric:normal;font-feature-settings:normal;text-align:start;letter-spacing:0px;word-spacing:0px;writing-mode:lr-tb;text-anchor:start;fill:#000000;fill-opacity:1;stroke:none"
       id="flowRoot5853">
      <path
         d="M 233.65234,-39.305235 220.80859,4.6635146 q 0,-1.6875 -1.125,-3 -1.03125,-1.40625004 -2.4375,-1.40625004 -1.21875,0 -2.53125,1.31250004 0,-3.1875 -2.53125,-3.1875 -0.46875,0 -0.9375,0.1875 -0.375,0.1875 -0.84375,0.74999996 l 23.25,-45.56249956 15,29.71875 h 0.0937 q 6.46875,0 9.75,2.8125 3.375,2.8125 5.53125,4.5937496 7.125,-2.3437496 22.96875,-3.6562496 15.9375,-1.3125 27.28125,-1.3125 4.5,0 9,0.28125 4.59375,0.28125 9.375,0.75 l 3,-32.15625 h 15.1875 v 40.7812496 h -86.15625 q -1.78125,0 -3.375,0.84375 -1.59375,0.84375 -3.46875,2.15625 l 4.5,9.09375 h -3.75 l -4.5,-9.09375 q -4.59375,-2.34375 -6.09375,-3.9375 -1.5,-1.6875 -3,-6.6562496 -1.03125,0.46875 -2.15625,0.9375 -1.125,0.375 -2.34375,0.5625 -0.75,-0.75 -0.75,-1.5 0,-0.9375 1.40625,-2.0625 1.5,-1.21875 3.75,-2.4375 z m 114.1875,31.8749996 V -42.211485 h -9.46875 l -2.90625,30.09375 z m -86.625,0.375 -1.40625,-1.3125 q -0.75,-0.65625 -3,-2.3437496 -2.25,-1.6875 -2.71875,-2.15625 -0.84375,-0.28125 -1.59375,-0.46875 -0.75,-0.1875 -1.5,-0.1875 -1.40625,0 -2.8125,0.46875 0,3.2812496 2.625,5.9999996 2.625,2.71875 4.875,2.71875 0.46875,0 1.40625,-0.46875 l 1.78125,-0.84375 1.125,-0.65625 q 0.5625,-0.28125 1.21875,-0.75 z m -33,-22.5937496 -12.9375,26.2499996 q 0.46875,0 0.75,0.5625 0.28125,0.46875 0.28125,0.9375 l 0.9375,-0.1875 q 0.375,0 0.9375,-0.09375 0.28125,0 0.65625,0.1875 0.375,0.09375 0.65625,0.28125 z"
         id="path5861"
         inkscape:connector-curvature="0" />
    </g>
  </g>
</svg>
