<?xml version="1.0" encoding="UTF-8" standalone="no"?>
<!-- Created with Inkscape (http://www.inkscape.org/) -->

<svg
   xmlns:dc="http://purl.org/dc/elements/1.1/"
   xmlns:cc="http://creativecommons.org/ns#"
   xmlns:rdf="http://www.w3.org/1999/02/22-rdf-syntax-ns#"
   xmlns:svg="http://www.w3.org/2000/svg"
   xmlns="http://www.w3.org/2000/svg"
   xmlns:sodipodi="http://sodipodi.sourceforge.net/DTD/sodipodi-0.dtd"
   xmlns:inkscape="http://www.inkscape.org/namespaces/inkscape"
   width="37.603905mm"
   height="18.901171mm"
   viewBox="0 0 37.603905 18.901171"
   version="1.1"
   id="svg8138"
   inkscape:version="0.92.4 (5da689c313, 2019-01-14)"
   sodipodi:docname="D44.svg">
  <defs
     id="defs8132" />
  <sodipodi:namedview
     id="base"
     pagecolor="#ffffff"
     bordercolor="#666666"
     borderopacity="1.0"
     inkscape:pageopacity="0.0"
     inkscape:pageshadow="2"
     inkscape:zoom="0.35"
     inkscape:cx="-357.54492"
     inkscape:cy="-312.92649"
     inkscape:document-units="mm"
     inkscape:current-layer="layer1"
     showgrid="false"
     fit-margin-top="0"
     fit-margin-left="0"
     fit-margin-right="0"
     fit-margin-bottom="0"
     inkscape:window-width="1920"
     inkscape:window-height="1017"
     inkscape:window-x="-8"
     inkscape:window-y="-8"
     inkscape:window-maximized="1" />
  <metadata
     id="metadata8135">
    <rdf:RDF>
      <cc:Work
         rdf:about="">
        <dc:format>image/svg+xml</dc:format>
        <dc:type
           rdf:resource="http://purl.org/dc/dcmitype/StillImage" />
        <dc:title></dc:title>
      </cc:Work>
    </rdf:RDF>
  </metadata>
  <g
     inkscape:label="Layer 1"
     inkscape:groupmode="layer"
     id="layer1"
     transform="translate(-7.2879272,-47.137028)">
    <g
       aria-label="𓂥"
       transform="scale(0.26458333)"
       style="font-style:normal;font-variant:normal;font-weight:normal;font-stretch:normal;font-size:192px;line-height:1.25;font-family:sans-serif;-inkscape-font-specification:'sans-serif, Normal';font-variant-ligatures:normal;font-variant-caps:normal;font-variant-numeric:normal;font-feature-settings:normal;text-align:start;letter-spacing:0px;word-spacing:0px;writing-mode:lr-tb;text-anchor:start;fill:#000000;fill-opacity:1;stroke:none"
       id="flowRoot8683">
      <path
         d="m 45.638672,237.5932 q -5.34375,-2.25 -7.125,-3.65625 -1.6875,-1.5 -3.375,-6.84375 -2.25,1.03125 -4.59375,1.5 -0.75,-0.65625 -0.75,-1.5 0,-1.5 2.25,-2.34375 2.25,-0.9375 9.09375,-2.25 l -1.5,-6 -7.21875,-6.09375 -1.875,-1.78125 0.5625,-3.84375 q 0.1875,-1.59375 0.46875,-3.375 l 0.46875,-3 q -1.125,-4.21875 -2.25,-8.25 l -2.25,-8.15625 q 0.1875,-0.46875 0.46875,-0.84375 l 0.46875,-0.84375 q 1.875,-0.46875 3.84375,-1.03125 l 3.75,-1.125 q 0.46875,0.28125 1.03125,0.46875 l 0.9375,0.46875 4.5,17.0625 1.78125,2.625 q 0.375,0.65625 1.875,3 1.59375,2.34375 2.25,3.1875 l -0.84375,2.4375 -4.96875,9.09375 1.5,6 q 2.0625,0 6.46875,3.84375 4.40625,3.75 7.125,3.75 16.78125,-3.28125 34.78125,-4.78125 17.999998,-1.59375 37.312498,-1.59375 6.1875,0 11.15625,0.46875 4.96875,0.46875 9,1.3125 l 6.09375,-34.78125 h 13.59375 v 43.875 H 56.232422 q -1.3125,0 -7.5,3 l 3,12 h -4.5 z m -0.9375,-32.71875 q -3.65625,-5.15625 -4.6875,-7.125 -1.03125,-1.96875 -1.875,-5.625 l -0.9375,-4.125 q -0.5625,-2.53125 -1.59375,-6.5625 l -4.78125,1.3125 2.90625,9.9375 q 0.65625,2.0625 0.9375,3.1875 0.28125,1.125 0.28125,2.34375 0,1.03125 -0.375,3.5625 -0.28125,2.53125 -0.75,5.25 2.71875,-0.46875 5.4375,-1.03125 z M 166.66992,231.5932 v -37.875 h -8.0625 l -5.4375,33.1875 z m -113.718748,0.375 q -1.59375,-1.3125 -3.09375,-2.34375 l -2.625,-1.875 q -1.3125,-0.9375 -2.0625,-1.59375 -0.84375,-0.28125 -1.875,-0.46875 -1.03125,-0.1875 -1.78125,-0.1875 -0.65625,0 -1.59375,0.0937 -0.84375,0.0937 -1.59375,0.375 0,3.09375 2.71875,5.90625 2.8125,2.8125 5.15625,2.8125 0.46875,0 1.5,-0.46875 l 2.25,-0.84375 q 1.3125,-0.5625 3,-1.40625 z"
         id="path8691"
         inkscape:connector-curvature="0" />
    </g>
  </g>
</svg>
