<?xml version="1.0" encoding="UTF-8" standalone="no"?>
<!-- Created with Inkscape (http://www.inkscape.org/) -->

<svg
   xmlns:dc="http://purl.org/dc/elements/1.1/"
   xmlns:cc="http://creativecommons.org/ns#"
   xmlns:rdf="http://www.w3.org/1999/02/22-rdf-syntax-ns#"
   xmlns:svg="http://www.w3.org/2000/svg"
   xmlns="http://www.w3.org/2000/svg"
   xmlns:sodipodi="http://sodipodi.sourceforge.net/DTD/sodipodi-0.dtd"
   xmlns:inkscape="http://www.inkscape.org/namespaces/inkscape"
   width="38.050392mm"
   height="20.513477mm"
   viewBox="0 0 38.05039 20.513477"
   version="1.1"
   id="svg4525"
   inkscape:version="0.92.4 (5da689c313, 2019-01-14)"
   sodipodi:docname="D45.svg">
  <defs
     id="defs4519" />
  <sodipodi:namedview
     id="base"
     pagecolor="#ffffff"
     bordercolor="#666666"
     borderopacity="1.0"
     inkscape:pageopacity="0.0"
     inkscape:pageshadow="2"
     inkscape:zoom="0.35"
     inkscape:cx="1196.096"
     inkscape:cy="132.41195"
     inkscape:document-units="mm"
     inkscape:current-layer="layer1"
     showgrid="false"
     fit-margin-top="0"
     fit-margin-left="0"
     fit-margin-right="0"
     fit-margin-bottom="0"
     inkscape:window-width="1920"
     inkscape:window-height="1017"
     inkscape:window-x="-8"
     inkscape:window-y="-8"
     inkscape:window-maximized="1"
     showguides="true" />
  <metadata
     id="metadata4522">
    <rdf:RDF>
      <cc:Work
         rdf:about="">
        <dc:format>image/svg+xml</dc:format>
        <dc:type
           rdf:resource="http://purl.org/dc/dcmitype/StillImage" />
        <dc:title></dc:title>
      </cc:Work>
    </rdf:RDF>
  </metadata>
  <g
     inkscape:label="Layer 1"
     inkscape:groupmode="layer"
     id="layer1"
     transform="translate(634.07337,-117.99669)">
    <g
       aria-label="𓂦"
       transform="matrix(0.26458333,0,0,0.26458333,-623.21822,98.236283)"
       style="font-style:normal;font-variant:normal;font-weight:normal;font-stretch:normal;font-size:192px;line-height:1.25;font-family:sans-serif;-inkscape-font-specification:sans-serif;font-variant-ligatures:normal;font-variant-caps:normal;font-variant-numeric:normal;font-feature-settings:normal;text-align:start;letter-spacing:0px;word-spacing:0px;writing-mode:lr-tb;text-anchor:start;fill:#000000;fill-opacity:1;stroke:none"
       id="flowRoot5864">
      <path
         d="m -31.933594,134.4975 q -0.9375,-0.9375 -1.96875,-1.6875 -0.9375,-0.75 -0.9375,-1.875 0,-1.6875 1.59375,-3.375 1.6875,-1.6875 3.5625,-2.15625 -2.34375,-4.40625 -4.875,-6.84375 -2.53125,-2.53125 -5.53125,-4.21875 l -0.46875,-0.84375 q -0.28125,-0.375 -0.46875,-0.84375 0.9375,-4.125 1.78125,-8.0625 0.84375,-4.03125 0.9375,-9.187501 0,-6.65625 -0.9375,-10.125 -0.84375,-3.46875 1.40625,-6.46875 2.34375,-3 4.78125,-3 5.4375,0 8.0625,8.34375 2.625,8.34375 5.53125,13.78125 3,5.343751 6.84375,9.562501 v 1.875 q -2.15625,2.71875 -3.84375,5.625 -1.6875,2.90625 -1.6875,6.09375 0,2.34375 1.03125,4.40625 4.96875,3.28125 8.7187502,4.40625 3.8437501,1.125 7.68750005,1.125 2.06249995,0 22.40624975,-2.0625 20.4375,-2.15625 31.6875,-7.40625 6.46875,-7.3125 13.40625,-13.78125 7.03125,-6.46875 15.1875,-11.812501 3.9375,-5.90625 8.34375,-11.25 4.5,-5.4375 9.937504,-10.03125 l 2.53125,1.125 q 0,4.5 -0.5625,8.90625 -0.46875,4.40625 -0.84375,8.90625 v 2.53125 q 0,2.4375 -5.812504,8.625001 -5.71875,6.1875 -19.78125,17.53125 -14.0625,11.34375 -15.5625,13.125 -1.40625,1.78125 -9,3.75 -7.59375,1.875 -24.375,2.25 l -9.84375,0.28125 -9.2812498,0.375 q -11.0625,0.46875 -15.2812499,2.34375 -4.1250003,1.875 -9.0937503,3.28125 l 0.65625,4.5 h -3.5625 l -1.40625,-5.71875 q -5.71875,-2.71875 -8.25,-5.53125 -2.4375,-2.90625 -2.71875,-6.46875 z m 0.375,-3.65625 q 2.4375,1.125 2.71875,4.40625 0.28125,3.1875 4.59375,6.09375 4.3125,2.8125 7.40625,3.28125 4.3125,-1.5 8.2500002,-3.375 3.9375001,-1.96875 25.9687498,-2.53125 22.125,-0.65625 30,-2.15625 7.875,-1.5 9.1875,-2.25 1.40625,-0.75 2.25,-1.59375 l 0.9375,-1.03125 q 0.46875,-0.46875 1.125,-1.03125 l 10.03125,-8.15625 9.84375,-8.15625 q 4.875,-3.9375 9.28125,-8.34375 4.5,-4.40625 8.25,-9.468751 0,-4.40625 0.46875,-8.71875 0.5625,-4.3125 0.9375,-8.71875 -4.5,4.21875 -8.25,9 -3.75,4.78125 -7.125,9.84375 l -3.375,2.343751 q -2.625,1.875 -6.46875,4.875 -3.84375,3 -7.96875,7.03125 l -3.9375,3.84375 q -6.75,6.75 -7.03125,7.5 -0.1875,0.75 -5.25,2.8125 -5.0625,2.0625 -10.96875,3.1875 -5.90625,1.03125 -14.71875,2.0625 L 14.378906,132.81 q -4.9687497,0.5625 -9.0937498,0.9375 -4.03125,0.28125 -5.90624995,0.28125 -3.56249995,0 -7.31249995,-0.75 -3.7500003,-0.84375 -11.0625003,-5.25 h -8.53125 q -1.40625,0 -2.4375,0.84375 -0.9375,0.84375 -1.59375,1.96875 z m -6.28125,-18.65625 q 3.65625,2.15625 6.1875,4.96875 2.53125,2.8125 5.0625,7.875 h 6.09375 q -0.65625,-1.875 -0.65625,-3.9375 0,-3.46875 1.59375,-6.5625 1.59375,-3.09375 3.75,-6 -4.96875,-5.71875 -7.875,-12.562501 -2.90625,-6.84375 -5.0625,-14.0625 -0.84375,-1.03125 -1.78125,-1.875 -0.9375,-0.84375 -2.25,-1.3125 -1.59375,0 -2.34375,1.5 -0.75,1.40625 -1.3125,2.71875 1.125,5.625 1.125,11.15625 0,4.59375 -0.65625,9.093751 -0.65625,4.5 -1.875,9 z"
         id="path5872"
         inkscape:connector-curvature="0" />
    </g>
  </g>
</svg>
