<?xml version="1.0" encoding="UTF-8" standalone="no"?>
<!-- Created with Inkscape (http://www.inkscape.org/) -->

<svg
   xmlns:dc="http://purl.org/dc/elements/1.1/"
   xmlns:cc="http://creativecommons.org/ns#"
   xmlns:rdf="http://www.w3.org/1999/02/22-rdf-syntax-ns#"
   xmlns:svg="http://www.w3.org/2000/svg"
   xmlns="http://www.w3.org/2000/svg"
   xmlns:sodipodi="http://sodipodi.sourceforge.net/DTD/sodipodi-0.dtd"
   xmlns:inkscape="http://www.inkscape.org/namespaces/inkscape"
   width="38.000782mm"
   height="10.169922mm"
   viewBox="0 0 38.00078 10.169922"
   version="1.1"
   id="svg4525"
   inkscape:version="0.92.4 (5da689c313, 2019-01-14)"
   sodipodi:docname="D46.svg">
  <defs
     id="defs4519" />
  <sodipodi:namedview
     id="base"
     pagecolor="#ffffff"
     bordercolor="#666666"
     borderopacity="1.0"
     inkscape:pageopacity="0.0"
     inkscape:pageshadow="2"
     inkscape:zoom="0.35"
     inkscape:cx="1362.8362"
     inkscape:cy="-85.299539"
     inkscape:document-units="mm"
     inkscape:current-layer="layer1"
     showgrid="false"
     fit-margin-top="0"
     fit-margin-left="0"
     fit-margin-right="0"
     fit-margin-bottom="0"
     inkscape:window-width="1920"
     inkscape:window-height="1017"
     inkscape:window-x="-8"
     inkscape:window-y="-8"
     inkscape:window-maximized="1"
     showguides="true" />
  <metadata
     id="metadata4522">
    <rdf:RDF>
      <cc:Work
         rdf:about="">
        <dc:format>image/svg+xml</dc:format>
        <dc:type
           rdf:resource="http://purl.org/dc/dcmitype/StillImage" />
        <dc:title></dc:title>
      </cc:Work>
    </rdf:RDF>
  </metadata>
  <g
     inkscape:label="Layer 1"
     inkscape:groupmode="layer"
     id="layer1"
     transform="translate(678.19006,-70.737415)">
    <g
       aria-label="𓂧"
       transform="matrix(0.26458333,0,0,0.26458333,-634.07337,117.99669)"
       style="font-style:normal;font-variant:normal;font-weight:normal;font-stretch:normal;font-size:192px;line-height:1.25;font-family:sans-serif;-inkscape-font-specification:sans-serif;font-variant-ligatures:normal;font-variant-caps:normal;font-variant-numeric:normal;font-feature-settings:normal;text-align:start;letter-spacing:0px;word-spacing:0px;writing-mode:lr-tb;text-anchor:start;fill:#000000;fill-opacity:1;stroke:none"
       id="flowRoot5875">
      <path
         d="m -142.74023,-169.24274 h 2.8125 q 1.3125,0 2.625,0.0937 -0.65625,-1.125 -1.03125,-2.4375 -0.375,-1.3125 -0.375,-2.53125 0,-2.15625 1.21875,-3.28125 1.3125,-1.21875 3.46875,-1.21875 1.21875,0 2.53125,0.28125 1.40625,0.28125 2.8125,0.65625 l 2.71875,0.84375 q 1.3125,0.375 2.4375,0.46875 l 3,0.1875 q 3.1875,0 10.03125,-0.9375 6.9375,-1.03125 16.124996,-1.03125 11.8125,0 23.4375,3.65625 11.71875,3.65625 19.3125,5.4375 7.59375,1.78125 26.90625,1.78125 l 1.59375,1.5 v 19.6875 l -1.59375,1.5 -5.71875,-0.375 q -2.8125,-0.1875 -5.71875,-0.1875 h -3.09375 l -3.1875,0.1875 q -3.84375,0.28125 -7.6875,0.84375 -3.75,0.5625 -7.5,1.21875 l -7.59375,1.5 q -3.84375,0.75 -7.6875,1.21875 h -81.374996 q -5.15625,0 -8.8125,-3.75 -3.65625,-3.75 -3.65625,-10.6875 0,-5.625 3,-9.46875 3,-3.84375 8.71875,-4.5 5.8125,-0.65625 12.28125,-0.65625 z m 55.968746,4.59375 -11.71875,-0.375 q -2.999996,0 -5.531246,-0.28125 -2.53125,0 -5.4375,-0.1875 l -7.59375,-0.28125 q -6.65625,-0.28125 -13.875,-0.375 -7.21875,-0.0937 -14.34375,-0.0937 -12.5625,0 -15.5625,3.375 -3,3.375 -3,8.625 0,5.0625 2.8125,8.15625 2.90625,3 9.28125,3 h 76.312496 q 5.53125,0 16.5,-2.4375 11.0625,-2.53125 24.1875,-2.53125 2.15625,0 4.3125,0.0937 2.15625,0.0937 4.3125,0.28125 v -16.59375 q -16.21875,0 -24.1875,-1.5 -7.96875,-1.59375 -21,-5.625 -13.03125,-4.03125 -23.15625,-4.03125 -4.78125,0 -13.218746,1.03125 -8.4375,1.03125 -13.5,1.03125 -1.40625,0 -3.28125,-0.28125 -1.78125,-0.375 -3.65625,-0.84375 l -3.5625,-0.75 q -1.6875,-0.375 -2.71875,-0.375 -1.125,0 -1.125,2.25 0,2.34375 1.40625,3.46875 1.40625,1.03125 3.5625,1.125 h 2.90625 l 11.4375,-0.1875 q 5.8125,0 11.625,-0.0937 4.687496,0 9.187496,0.28125 4.59375,0.1875 9.09375,1.59375 z"
         id="path5883"
         inkscape:connector-curvature="0" />
    </g>
  </g>
</svg>
