<?xml version="1.0" encoding="UTF-8" standalone="no"?>
<!-- Created with Inkscape (http://www.inkscape.org/) -->

<svg
   xmlns:dc="http://purl.org/dc/elements/1.1/"
   xmlns:cc="http://creativecommons.org/ns#"
   xmlns:rdf="http://www.w3.org/1999/02/22-rdf-syntax-ns#"
   xmlns:svg="http://www.w3.org/2000/svg"
   xmlns="http://www.w3.org/2000/svg"
   xmlns:sodipodi="http://sodipodi.sourceforge.net/DTD/sodipodi-0.dtd"
   xmlns:inkscape="http://www.inkscape.org/namespaces/inkscape"
   width="37.926361mm"
   height="10.86444mm"
   viewBox="0 0 37.926359 10.86444"
   version="1.1"
   id="svg4525"
   inkscape:version="0.92.4 (5da689c313, 2019-01-14)"
   sodipodi:docname="D47.svg">
  <defs
     id="defs4519" />
  <sodipodi:namedview
     id="base"
     pagecolor="#ffffff"
     bordercolor="#666666"
     borderopacity="1.0"
     inkscape:pageopacity="0.0"
     inkscape:pageshadow="2"
     inkscape:zoom="0.35"
     inkscape:cx="915.2916"
     inkscape:cy="884.77182"
     inkscape:document-units="mm"
     inkscape:current-layer="layer1"
     showgrid="false"
     fit-margin-top="0"
     fit-margin-left="0"
     fit-margin-right="0"
     fit-margin-bottom="0"
     inkscape:window-width="1920"
     inkscape:window-height="1017"
     inkscape:window-x="-8"
     inkscape:window-y="-8"
     inkscape:window-maximized="1"
     showguides="true" />
  <metadata
     id="metadata4522">
    <rdf:RDF>
      <cc:Work
         rdf:about="">
        <dc:format>image/svg+xml</dc:format>
        <dc:type
           rdf:resource="http://purl.org/dc/dcmitype/StillImage" />
        <dc:title></dc:title>
      </cc:Work>
    </rdf:RDF>
  </metadata>
  <g
     inkscape:label="Layer 1"
     inkscape:groupmode="layer"
     id="layer1"
     transform="translate(559.77722,-326.70761)">
    <g
       aria-label="𓂩"
       style="font-style:normal;font-variant:normal;font-weight:normal;font-stretch:normal;font-size:50.79999924px;line-height:1.25;font-family:sans-serif;-inkscape-font-specification:sans-serif;font-variant-ligatures:normal;font-variant-caps:normal;font-variant-numeric:normal;font-feature-settings:normal;text-align:start;letter-spacing:0px;word-spacing:0px;writing-mode:lr-tb;text-anchor:start;fill:#000000;fill-opacity:1;stroke:none;stroke-width:0.26458332"
       id="text5888">
      <path
         d="m -522.27253,333.97537 q -1.36426,-0.0496 -2.55489,-0.12403 l -2.82773,-0.14883 h -0.59531 q -1.33946,0 -2.57969,0.19844 -1.24024,0.19844 -3.05098,1.19063 l -1.31465,0.71933 q -1.31465,0.69453 -3.91914,1.24024 -2.60449,0.5209 -5.18418,0.5209 -2.90215,0 -6.27558,-0.59532 -3.37344,-0.62011 -6.30039,-1.36425 -2.90215,-0.74415 -2.90215,-3.47266 0,-0.86816 0.37207,-1.61231 0.37207,-0.74414 1.28984,-1.38906 l 0.37207,-0.0744 q 0.91778,0.22324 7.31739,1.46347 6.42441,1.21543 9.05371,1.21543 0.94257,0 1.83554,-0.17363 0.89297,-0.17363 1.5627,-0.66972 -0.42168,-0.71934 -1.11621,-0.96739 -0.66973,-0.24804 -1.46348,-0.24804 -0.86816,0 -1.81074,0.14882 -0.91777,0.14883 -1.83555,0.14883 -1.6123,0 -2.53008,-0.49609 -0.89297,-0.4961 -0.89297,-1.28985 0,-0.66972 0.69454,-1.46347 l 0.49609,-0.0248 q 0.71934,0.34727 1.43867,0.71934 0.86817,-0.12402 1.71153,-0.17363 0.84335,-0.0744 1.71152,-0.0744 1.36426,0 2.70371,0.19844 1.33945,0.17363 2.6293,0.49609 l 2.03398,0.5209 q 0.96738,0.27285 1.88516,0.47129 0.94258,0.19844 1.81074,0.19844 0.69453,0 1.71152,-0.0744 1.0418,-0.0992 2.18281,-0.24804 l 2.28204,-0.27285 2.05879,-0.22325 0.42167,0.39688 v 4.93613 z m -6.05235,-1.017 q 1.41387,0 2.82774,0.0992 1.43867,0.0992 2.85253,0.12403 v -4.09278 q -1.93476,0.17364 -3.91914,0.47129 -1.98437,0.27285 -4.29121,0.27285 -1.33945,0 -2.60449,-0.37207 -1.24023,-0.39687 -3.59668,-0.94257 -2.33164,-0.57051 -4.31601,-0.57051 -1.5627,0 -2.38125,0.14883 -0.81856,0.14882 -1.09141,0.14882 -0.17363,0 -0.32246,-0.0248 -0.14883,-0.0496 -0.69453,-0.34727 l -0.69453,-0.34726 q -0.22325,0.24804 -0.29766,0.62011 0.0992,0.47129 0.69453,0.76895 0.62012,0.27285 1.83555,0.27285 0.96738,0 1.95957,-0.12402 0.99219,-0.14883 1.86035,-0.14883 1.0666,0 1.93477,0.42168 0.86816,0.39687 1.48828,1.5627 l -0.14883,0.44648 q -0.94258,0.69453 -2.03399,0.91777 -1.0914,0.22325 -2.23242,0.22325 -0.69453,0 -1.36426,-0.0496 l -1.33945,-0.0992 q -2.23242,-0.19844 -7.56543,-1.26504 -5.33301,-1.0666 -5.97793,-1.21543 -0.69453,0.47129 -0.94258,1.01699 -0.24804,0.5209 -0.24804,1.31465 0,1.5875 1.0666,2.15801 1.0666,0.5705 3.1998,0.99218 l 2.50528,0.4961 1.78593,0.34726 q 0.96739,0.19844 2.6045,0.39688 1.66191,0.19844 3.29902,0.19844 2.55488,0 5.35781,-0.57051 2.80293,-0.57051 4.58887,-1.63711 1.81074,-1.0666 3.00137,-1.33945 1.19062,-0.27286 3.1998,-0.27286 z"
         style="stroke-width:0.26458332"
         id="path5890"
         inkscape:connector-curvature="0" />
    </g>
  </g>
</svg>
