<?xml version="1.0" encoding="UTF-8" standalone="no"?>
<!-- Created with Inkscape (http://www.inkscape.org/) -->

<svg
   xmlns:dc="http://purl.org/dc/elements/1.1/"
   xmlns:cc="http://creativecommons.org/ns#"
   xmlns:rdf="http://www.w3.org/1999/02/22-rdf-syntax-ns#"
   xmlns:svg="http://www.w3.org/2000/svg"
   xmlns="http://www.w3.org/2000/svg"
   xmlns:sodipodi="http://sodipodi.sourceforge.net/DTD/sodipodi-0.dtd"
   xmlns:inkscape="http://www.inkscape.org/namespaces/inkscape"
   width="38.050392mm"
   height="7.5902476mm"
   viewBox="0 0 38.050392 7.5902476"
   version="1.1"
   id="svg9262"
   inkscape:version="0.92.4 (5da689c313, 2019-01-14)"
   sodipodi:docname="D48.svg">
  <defs
     id="defs9256" />
  <sodipodi:namedview
     id="base"
     pagecolor="#ffffff"
     bordercolor="#666666"
     borderopacity="1.0"
     inkscape:pageopacity="0.0"
     inkscape:pageshadow="2"
     inkscape:zoom="0.35"
     inkscape:cx="-388.97266"
     inkscape:cy="-289.04753"
     inkscape:document-units="mm"
     inkscape:current-layer="layer1"
     showgrid="false"
     fit-margin-top="0"
     fit-margin-left="0"
     fit-margin-right="0"
     fit-margin-bottom="0"
     inkscape:window-width="1920"
     inkscape:window-height="1017"
     inkscape:window-x="-8"
     inkscape:window-y="-8"
     inkscape:window-maximized="1" />
  <metadata
     id="metadata9259">
    <rdf:RDF>
      <cc:Work
         rdf:about="">
        <dc:format>image/svg+xml</dc:format>
        <dc:type
           rdf:resource="http://purl.org/dc/dcmitype/StillImage" />
        <dc:title></dc:title>
      </cc:Work>
    </rdf:RDF>
  </metadata>
  <g
     inkscape:label="Layer 1"
     inkscape:groupmode="layer"
     id="layer1"
     transform="translate(-15.603182,-64.765927)">
    <g
       aria-label="𓂪"
       transform="scale(0.26458333)"
       style="font-style:normal;font-variant:normal;font-weight:normal;font-stretch:normal;font-size:192px;line-height:1.25;font-family:sans-serif;-inkscape-font-specification:'sans-serif, Normal';font-variant-ligatures:normal;font-variant-caps:normal;font-variant-numeric:normal;font-feature-settings:normal;text-align:start;letter-spacing:0px;word-spacing:0px;writing-mode:lr-tb;text-anchor:start;fill:#000000;fill-opacity:1;stroke:none"
       id="flowRoot9807">
      <path
         d="m 74.160156,273.47211 q -8.34375,-0.75 -11.8125,-4.875 -3.375,-4.125 -3.375,-9.1875 0,-5.90625 4.3125,-10.21875 4.40625,-4.40625 10.875,-4.40625 h 80.812504 q 2.4375,0 4.875,0.5625 2.4375,0.5625 4.875,1.3125 l 4.875,1.5 q 4.96875,1.6875 9.28125,2.15625 4.40625,0.46875 10.3125,0.46875 h 12 l 1.59375,1.5 v 15.1875 l -1.59375,1.5 q -2.71875,-0.1875 -5.25,-0.28125 -2.4375,-0.0937 -4.96875,-0.0937 -4.59375,0 -9.1875,0.46875 -4.5,0.375 -10.125,1.59375 l -5.4375,1.3125 q -2.8125,0.65625 -5.53125,1.03125 -2.71875,0.46875 -5.53125,0.46875 z m 81.000004,-3 q 2.8125,0 6.65625,-0.84375 l 8.4375,-1.78125 q 4.59375,-0.9375 9.75,-1.6875 5.25,-0.84375 10.875,-0.84375 1.3125,0 2.34375,0 1.125,0 2.15625,0.1875 l 4.40625,0.375 v -12.09375 h -7.875 q -8.25,0 -13.5,-0.5625 -5.25,-0.65625 -9.1875,-2.0625 l -4.6875,-1.5 q -2.34375,-0.75 -4.78125,-1.3125 -2.34375,-0.5625 -4.78125,-0.5625 H 74.160156 q -4.96875,0 -8.625,3.46875 -3.5625,3.375 -3.5625,8.15625 0,3.9375 2.8125,7.3125 2.90625,3.28125 9.375,3.75 z"
         id="path9815"
         inkscape:connector-curvature="0" />
    </g>
  </g>
</svg>
