<?xml version="1.0" encoding="UTF-8" standalone="no"?>
<!-- Created with Inkscape (http://www.inkscape.org/) -->

<svg
   xmlns:dc="http://purl.org/dc/elements/1.1/"
   xmlns:cc="http://creativecommons.org/ns#"
   xmlns:rdf="http://www.w3.org/1999/02/22-rdf-syntax-ns#"
   xmlns:svg="http://www.w3.org/2000/svg"
   xmlns="http://www.w3.org/2000/svg"
   xmlns:sodipodi="http://sodipodi.sourceforge.net/DTD/sodipodi-0.dtd"
   xmlns:inkscape="http://www.inkscape.org/namespaces/inkscape"
   width="33.486328mm"
   height="14.485924mm"
   viewBox="0 0 33.486326 14.485924"
   version="1.1"
   id="svg4525"
   inkscape:version="0.92.4 (5da689c313, 2019-01-14)"
   sodipodi:docname="D48A.svg">
  <defs
     id="defs4519" />
  <sodipodi:namedview
     id="base"
     pagecolor="#ffffff"
     bordercolor="#666666"
     borderopacity="1.0"
     inkscape:pageopacity="0.0"
     inkscape:pageshadow="2"
     inkscape:zoom="0.35"
     inkscape:cx="1227.7467"
     inkscape:cy="-7.1329118"
     inkscape:document-units="mm"
     inkscape:current-layer="layer1"
     showgrid="false"
     fit-margin-top="0"
     fit-margin-left="0"
     fit-margin-right="0"
     fit-margin-bottom="0"
     inkscape:window-width="1920"
     inkscape:window-height="1017"
     inkscape:window-x="-8"
     inkscape:window-y="-8"
     inkscape:window-maximized="1"
     showguides="true" />
  <metadata
     id="metadata4522">
    <rdf:RDF>
      <cc:Work
         rdf:about="">
        <dc:format>image/svg+xml</dc:format>
        <dc:type
           rdf:resource="http://purl.org/dc/dcmitype/StillImage" />
        <dc:title></dc:title>
      </cc:Work>
    </rdf:RDF>
  </metadata>
  <g
     inkscape:label="Layer 1"
     inkscape:groupmode="layer"
     id="layer1"
     transform="translate(642.44763,-87.103)">
    <g
       aria-label="𓂫"
       transform="matrix(0.26458333,0,0,0.26458333,-559.77722,326.70761)"
       style="font-style:normal;font-variant:normal;font-weight:normal;font-stretch:normal;font-size:192px;line-height:1.25;font-family:sans-serif;-inkscape-font-specification:sans-serif;font-variant-ligatures:normal;font-variant-caps:normal;font-variant-numeric:normal;font-feature-settings:normal;text-align:start;letter-spacing:0px;word-spacing:0px;writing-mode:lr-tb;text-anchor:start;fill:#000000;fill-opacity:1;stroke:none"
       id="flowRoot5893">
      <path
         d="m -187.48633,-864.43609 -8.71875,-0.375 q -1.875,0 -2.71875,-0.0937 -4.21875,0 -7.21875,0.84375 -2.90625,0.84375 -5.4375,2.15625 l -6.75,3.46875 q -7.78125,4.03125 -16.96875,5.8125 -9.09375,1.78125 -18.375,1.78125 -8.34375,0 -17.8125,-1.40625 -9.375,-1.3125 -14.34375,-2.4375 l -8.0625,-1.78125 -4.21875,-1.03125 q -10.3125,-2.71875 -12.375,-6 -1.96875,-3.375 -1.96875,-5.71875 0,-3.1875 3.46875,-4.78125 3.5625,-1.6875 8.8125,-2.625 -1.96875,-1.59375 -2.90625,-3.28125 -0.84375,-1.78125 -0.84375,-3.46875 0,-5.8125 9.9375,-10.21875 9.9375,-4.5 27.9375,-4.5 h 0.1875 q -1.59375,-1.21875 -1.96875,-3.09375 l 0.9375,-1.6875 q 5.4375,-1.5 11.15625,-1.875 5.71875,-0.46875 7.21875,-0.5625 l 3.75,-0.1875 q 1.875,0 2.90625,-0.0937 12.1875,0 20.25,7.3125 8.15625,7.3125 10.3125,9.1875 l 4.21875,3.46875 q 2.0625,1.78125 4.6875,2.53125 1.875,0 5.0625,-0.5625 3.28125,-0.5625 6.1875,-1.40625 l 3.65625,-1.03125 1.59375,1.5 v 18.65625 z m -6.28125,-3.375 4.875,0.375 v -15.28125 q -0.75,0 -5.15625,1.3125 -4.40625,1.3125 -7.40625,1.3125 -2.25,0 -4.6875,-1.3125 -2.4375,-1.3125 -4.5,-3.1875 l -2.53125,-2.15625 -6.9375,-6.1875 q -5.53125,-5.0625 -9.75,-7.3125 -4.21875,-2.34375 -10.59375,-2.34375 h -1.96875 l -1.6875,0.0937 q -0.9375,0 -1.78125,0.0937 l -9.28125,0.375 q -4.78125,0.1875 -9.28125,1.40625 1.125,2.0625 5.625,2.71875 4.5,0.5625 4.78125,0.5625 l 6.5625,1.03125 q 8.4375,1.40625 13.96875,4.96875 5.53125,3.5625 5.53125,7.96875 0,7.125 -11.8125,10.96875 -11.71875,3.84375 -25.03125,3.84375 -7.78125,0 -15.46875,-1.3125 -7.6875,-1.40625 -15.09375,-3.9375 h -0.9375 l -3.375,0.1875 q -3.1875,0.28125 -5.71875,1.125 -2.53125,0.84375 -3.84375,2.4375 l -0.1875,0.5625 q 0.375,3.375 2.90625,5.4375 2.53125,1.96875 8.90625,3.65625 l 4.21875,1.03125 q 1.875,0.5625 3.84375,0.9375 l 9.09375,1.78125 q 7.125,1.3125 13.59375,2.0625 6.5625,0.75 13.125,0.75 9.375,0 18.28125,-1.78125 8.90625,-1.78125 15.75,-5.4375 l 7.21875,-3.75 q 3.28125,-1.6875 6.5625,-2.34375 3.375,-0.75 6.9375,-0.75 3.09375,0 5.25,0.0937 z m -61.6875,-26.71875 q -6.1875,-0.65625 -10.59375,-0.65625 -14.90625,0 -24.9375,3.5625 -9.9375,3.46875 -9.9375,8.25 0,5.15625 11.625,8.53125 11.71875,3.375 22.59375,3.375 12.9375,0 24.28125,-3.375 11.4375,-3.375 11.4375,-8.34375 0,-3.75 -5.4375,-6.46875 -5.4375,-2.71875 -19.03125,-4.875 z"
         id="path5901"
         inkscape:connector-curvature="0" />
    </g>
  </g>
</svg>
