<?xml version="1.0" encoding="UTF-8" standalone="no"?>
<!-- Created with Inkscape (http://www.inkscape.org/) -->

<svg
   xmlns:dc="http://purl.org/dc/elements/1.1/"
   xmlns:cc="http://creativecommons.org/ns#"
   xmlns:rdf="http://www.w3.org/1999/02/22-rdf-syntax-ns#"
   xmlns:svg="http://www.w3.org/2000/svg"
   xmlns="http://www.w3.org/2000/svg"
   xmlns:sodipodi="http://sodipodi.sourceforge.net/DTD/sodipodi-0.dtd"
   xmlns:inkscape="http://www.inkscape.org/namespaces/inkscape"
   width="14.213086mm"
   height="41.399025mm"
   viewBox="0 0 14.213086 41.399025"
   version="1.1"
   id="svg6221"
   inkscape:version="0.92.4 (5da689c313, 2019-01-14)"
   sodipodi:docname="D50D.svg">
  <defs
     id="defs6215" />
  <sodipodi:namedview
     id="base"
     pagecolor="#ffffff"
     bordercolor="#666666"
     borderopacity="1.0"
     inkscape:pageopacity="0.0"
     inkscape:pageshadow="2"
     inkscape:zoom="0.35"
     inkscape:cx="-348.97266"
     inkscape:cy="-354.76047"
     inkscape:document-units="mm"
     inkscape:current-layer="layer1"
     showgrid="false"
     fit-margin-top="0"
     fit-margin-left="0"
     fit-margin-right="0"
     fit-margin-bottom="0"
     inkscape:window-width="1920"
     inkscape:window-height="1017"
     inkscape:window-x="-8"
     inkscape:window-y="-8"
     inkscape:window-maximized="1" />
  <metadata
     id="metadata6218">
    <rdf:RDF>
      <cc:Work
         rdf:about="">
        <dc:format>image/svg+xml</dc:format>
        <dc:type
           rdf:resource="http://purl.org/dc/dcmitype/StillImage" />
        <dc:title></dc:title>
      </cc:Work>
    </rdf:RDF>
  </metadata>
  <g
     inkscape:label="Layer 1"
     inkscape:groupmode="layer"
     id="layer1"
     transform="translate(-5.0198485,-13.570603)">
    <g
       aria-label="𓂱"
       transform="scale(0.26458333)"
       style="font-style:normal;font-variant:normal;font-weight:normal;font-stretch:normal;font-size:192px;line-height:1.25;font-family:sans-serif;-inkscape-font-specification:sans-serif;font-variant-ligatures:normal;font-variant-caps:normal;font-variant-numeric:normal;font-feature-settings:normal;text-align:start;letter-spacing:0px;word-spacing:0px;writing-mode:lr-tb;text-anchor:start;fill:#000000;fill-opacity:1;stroke:none"
       id="flowRoot6766">
      <path
         d="m 41.472656,201.47797 0.09375,1.875 q 0,1.03125 0.1875,2.90625 l -1.59375,1.5 h -10.40625 l -1.40625,-1.78125 q 0,-4.5 0.46875,-9.5625 0.5625,-5.15625 1.125,-10.21875 l 1.125,-9.46875 q 0.46875,-4.40625 0.46875,-7.59375 0,-4.59375 -0.375,-7.875 -0.375,-3.375 -0.84375,-6 l -0.84375,-4.78125 q -0.375,-2.25 -0.375,-5.15625 0,-6.375 2.4375,-10.40625 2.53125,-4.125 7.125,-4.125 2.15625,0 3.46875,1.3125 1.40625,1.21875 1.40625,3.5625 0,0.9375 -0.375,2.25 l -0.9375,2.71875 q -0.46875,1.5 -0.9375,3 -0.375,1.5 -0.375,2.71875 0,3.375 1.5,8.53125 1.59375,5.0625 1.59375,8.53125 0,7.78125 -1.3125,19.125 -1.21875,11.34375 -1.21875,18.9375 z m -3.09375,-1.96875 q 0,-2.53125 0.46875,-7.3125 l 1.78125,-20.625 q 0.375,-5.0625 0.375,-8.4375 0,-3 -1.59375,-8.15625 -1.5,-5.25 -1.5,-8.625 v -1.78125 q -1.875,-0.28125 -2.8125,-1.3125 -0.84375,-1.03125 -1.03125,-3 0,-1.3125 0.375,-2.53125 0.375,-1.3125 0.9375,-2.625 -1.875,1.875 -2.53125,4.59375 -0.65625,2.625 -0.65625,5.90625 0,4.59375 1.21875,10.21875 1.21875,5.53125 1.21875,13.21875 0,2.4375 -0.46875,6.65625 l -1.125,9.28125 q -0.5625,5.0625 -1.125,10.3125 -0.46875,5.15625 -0.46875,9.46875 h 7.125 q 0,-1.03125 -0.09375,-2.0625 0,-0.84375 -0.09375,-1.78125 z m 0,-57.84375 q 0.65625,0 1.3125,-1.78125 0.65625,-1.875 0.84375,-3.9375 0,-1.5 -1.21875,-1.875 l -0.65625,1.21875 q -0.46875,1.03125 -0.9375,2.25 -0.46875,1.21875 -0.5625,2.53125 0,1.3125 1.21875,1.59375 z m 22.3125,59.8125 0.09375,1.875 q 0,1.03125 0.1875,2.90625 l -1.59375,1.5 h -10.40625 l -1.40625,-1.78125 q 0,-4.5 0.46875,-9.5625 0.5625,-5.15625 1.125,-10.21875 l 1.125,-9.46875 q 0.46875,-4.40625 0.46875,-7.59375 0,-4.59375 -0.375,-7.875 -0.375,-3.375 -0.84375,-6 l -0.84375,-4.78125 q -0.375,-2.25 -0.375,-5.15625 0,-6.375 2.4375,-10.40625 2.53125,-4.125 7.125,-4.125 2.15625,0 3.46875,1.3125 1.40625,1.21875 1.40625,3.5625 0,0.9375 -0.375,2.25 l -0.9375,2.71875 q -0.46875,1.5 -0.9375,3 -0.375,1.5 -0.375,2.71875 0,3.375 1.5,8.53125 1.59375,5.0625 1.59375,8.53125 0,7.78125 -1.3125,19.125 -1.21875,11.34375 -1.21875,18.9375 z m -3.09375,-1.96875 q 0,-2.53125 0.46875,-7.3125 l 1.78125,-20.625 q 0.375,-5.0625 0.375,-8.4375 0,-3 -1.59375,-8.15625 -1.5,-5.25 -1.5,-8.625 v -1.78125 q -1.875,-0.28125 -2.8125,-1.3125 -0.84375,-1.03125 -1.03125,-3 0,-1.3125 0.375,-2.53125 0.375,-1.3125 0.9375,-2.625 -1.875,1.875 -2.53125,4.59375 -0.65625,2.625 -0.65625,5.90625 0,4.59375 1.21875,10.21875 1.21875,5.53125 1.21875,13.21875 0,2.4375 -0.46875,6.65625 l -1.125,9.28125 q -0.5625,5.0625 -1.125,10.3125 -0.46875,5.15625 -0.46875,9.46875 h 7.125 q 0,-1.03125 -0.09375,-2.0625 0,-0.84375 -0.09375,-1.78125 z m 0,-57.84375 q 0.65625,0 1.3125,-1.78125 0.65625,-1.875 0.84375,-3.9375 0,-1.5 -1.21875,-1.875 l -0.65625,1.21875 q -0.46875,1.03125 -0.9375,2.25 -0.46875,1.21875 -0.5625,2.53125 0,1.3125 1.21875,1.59375 z m -25.5,-19.6875 0.09375,1.875 q 0,1.03125 0.1875,2.90625 l -1.59375,1.5 h -10.40625 l -1.40625,-1.78125 q 0,-4.5 0.46875,-9.5625 0.5625,-5.15625 1.125,-10.21875 l 1.125,-9.468752 q 0.46875,-4.40625 0.46875,-7.59375 0,-4.59375 -0.375,-7.875 -0.375,-3.375 -0.84375,-6 l -0.84375,-4.78125 q -0.375,-2.25 -0.375,-5.15625 0,-6.375 2.4375,-10.40625 2.53125,-4.125 7.125,-4.125 2.15625,0 3.46875,1.3125 1.40625,1.21875 1.40625,3.5625 0,0.9375 -0.375,2.25 l -0.9375,2.71875 q -0.46875,1.5 -0.9375,3 -0.375,1.5 -0.375,2.71875 0,3.375 1.5,8.53125 1.59375,5.0625 1.59375,8.53125 0,7.78125 -1.3125,19.125002 -1.21875,11.34375 -1.21875,18.9375 z m -3.09375,-1.96875 q 0,-2.53125 0.46875,-7.3125 l 1.78125,-20.625002 q 0.375,-5.0625 0.375,-8.4375 0,-3 -1.59375,-8.15625 -1.5,-5.25 -1.5,-8.625 v -1.78125 q -1.875,-0.28125 -2.8125,-1.3125 -0.84375,-1.03125 -1.03125,-3 0,-1.3125 0.375,-2.53125 0.375,-1.3125 0.9375,-2.625 -1.875,1.875 -2.53125,4.59375 -0.65625,2.625 -0.65625,5.90625 0,4.59375 1.21875,10.21875 1.21875,5.53125 1.21875,13.21875 0,2.4375 -0.46875,6.65625 l -1.125,9.281252 q -0.5625,5.0625 -1.125,10.3125 -0.46875,5.15625 -0.46875,9.46875 h 7.125 q 0,-1.03125 -0.09375,-2.0625 0,-0.84375 -0.09375,-1.78125 z m 0,-57.843752 q 0.65625,0 1.3125,-1.78125 0.65625,-1.875 0.84375,-3.9375 0,-1.5 -1.21875,-1.875 l -0.65625,1.21875 q -0.46875,1.03125 -0.9375,2.25 -0.46875,1.21875 -0.5625,2.53125 0,1.3125 1.21875,1.59375 z m 22.3125,59.812502 0.09375,1.875 q 0,1.03125 0.1875,2.90625 l -1.59375,1.5 h -10.40625 l -1.40625,-1.78125 q 0,-4.5 0.46875,-9.5625 0.5625,-5.15625 1.125,-10.21875 l 1.125,-9.468752 q 0.46875,-4.40625 0.46875,-7.59375 0,-4.59375 -0.375,-7.875 -0.375,-3.375 -0.84375,-6 l -0.84375,-4.78125 q -0.375,-2.25 -0.375,-5.15625 0,-6.375 2.4375,-10.40625 2.53125,-4.125 7.125,-4.125 2.15625,0 3.46875,1.3125 1.40625,1.21875 1.40625,3.5625 0,0.9375 -0.375,2.25 l -0.9375,2.71875 q -0.46875,1.5 -0.9375,3 -0.375,1.5 -0.375,2.71875 0,3.375 1.5,8.53125 1.59375,5.0625 1.59375,8.53125 0,7.78125 -1.3125,19.125002 -1.21875,11.34375 -1.21875,18.9375 z m -3.09375,-1.96875 q 0,-2.53125 0.46875,-7.3125 l 1.78125,-20.625002 q 0.375,-5.0625 0.375,-8.4375 0,-3 -1.59375,-8.15625 -1.5,-5.25 -1.5,-8.625 v -1.78125 q -1.875,-0.28125 -2.8125,-1.3125 -0.84375,-1.03125 -1.03125,-3 0,-1.3125 0.375,-2.53125 0.375,-1.3125 0.9375,-2.625 -1.875,1.875 -2.53125,4.59375 -0.65625,2.625 -0.65625,5.90625 0,4.59375 1.21875,10.21875 1.21875,5.53125 1.21875,13.21875 0,2.4375 -0.46875,6.65625 l -1.125,9.281252 q -0.5625,5.0625 -1.125,10.3125 -0.46875,5.15625 -0.46875,9.46875 h 7.125 q 0,-1.03125 -0.09375,-2.0625 0,-0.84375 -0.09375,-1.78125 z m 0,-57.843752 q 0.65625,0 1.3125,-1.78125 0.65625,-1.875 0.84375,-3.9375 0,-1.5 -1.21875,-1.875 l -0.65625,1.21875 q -0.46875,1.03125 -0.9375,2.25 -0.46875,1.21875 -0.5625,2.53125 0,1.3125 1.21875,1.59375 z m 21.9375,59.812502 0.09375,1.875 q 0,1.03125 0.1875,2.90625 l -1.59375,1.5 h -10.40625 l -1.40625,-1.78125 q 0,-4.5 0.46875,-9.5625 0.5625,-5.15625 1.125,-10.21875 l 1.125,-9.468752 q 0.46875,-4.40625 0.46875,-7.59375 0,-4.59375 -0.375,-7.875 -0.375,-3.375 -0.84375,-6 l -0.84375,-4.78125 q -0.375,-2.25 -0.375,-5.15625 0,-6.375 2.4375,-10.40625 2.53125,-4.125 7.125,-4.125 2.15625,0 3.46875,1.3125 1.40625,1.21875 1.40625,3.5625 0,0.9375 -0.375,2.25 l -0.9375,2.71875 q -0.46875,1.5 -0.9375,3 -0.375,1.5 -0.375,2.71875 0,3.375 1.5,8.53125 1.59375,5.0625 1.59375,8.53125 0,7.78125 -1.3125,19.125002 -1.21875,11.34375 -1.21875,18.9375 z m -3.09375,-1.96875 q 0,-2.53125 0.46875,-7.3125 l 1.78125,-20.625002 q 0.375,-5.0625 0.375,-8.4375 0,-3 -1.59375,-8.15625 -1.5,-5.25 -1.5,-8.625 v -1.78125 q -1.875,-0.28125 -2.8125,-1.3125 -0.84375,-1.03125 -1.03125,-3 0,-1.3125 0.375,-2.53125 0.375,-1.3125 0.9375,-2.625 -1.875,1.875 -2.53125,4.59375 -0.65625,2.625 -0.65625,5.90625 0,4.59375 1.21875,10.21875 1.21875,5.53125 1.21875,13.21875 0,2.4375 -0.46875,6.65625 l -1.125,9.281252 q -0.5625,5.0625 -1.125,10.3125 -0.46875,5.15625 -0.46875,9.46875 h 7.125 q 0,-1.03125 -0.09375,-2.0625 0,-0.84375 -0.09375,-1.78125 z m 0,-57.843752 q 0.65625,0 1.3125,-1.78125 0.65625,-1.875 0.84375,-3.9375 0,-1.5 -1.21875,-1.875 l -0.65625,1.21875 q -0.46875,1.03125 -0.9375,2.25 -0.46875,1.21875 -0.5625,2.53125 0,1.3125 1.21875,1.59375 z"
         id="path6774"
         inkscape:connector-curvature="0" />
    </g>
  </g>
</svg>
