<?xml version="1.0" encoding="UTF-8" standalone="no"?>
<!-- Created with Inkscape (http://www.inkscape.org/) -->

<svg
   xmlns:dc="http://purl.org/dc/elements/1.1/"
   xmlns:cc="http://creativecommons.org/ns#"
   xmlns:rdf="http://www.w3.org/1999/02/22-rdf-syntax-ns#"
   xmlns:svg="http://www.w3.org/2000/svg"
   xmlns="http://www.w3.org/2000/svg"
   xmlns:sodipodi="http://sodipodi.sourceforge.net/DTD/sodipodi-0.dtd"
   xmlns:inkscape="http://www.inkscape.org/namespaces/inkscape"
   width="10.145117mm"
   height="44.07793mm"
   viewBox="0 0 10.145117 44.07793"
   version="1.1"
   id="svg8469"
   inkscape:version="0.92.4 (5da689c313, 2019-01-14)"
   sodipodi:docname="D50H.svg">
  <defs
     id="defs8463" />
  <sodipodi:namedview
     id="base"
     pagecolor="#ffffff"
     bordercolor="#666666"
     borderopacity="1.0"
     inkscape:pageopacity="0.0"
     inkscape:pageshadow="2"
     inkscape:zoom="0.35"
     inkscape:cx="-323.25977"
     inkscape:cy="-388.86008"
     inkscape:document-units="mm"
     inkscape:current-layer="layer1"
     showgrid="false"
     fit-margin-top="0"
     fit-margin-left="0"
     fit-margin-right="0"
     fit-margin-bottom="0"
     inkscape:window-width="1920"
     inkscape:window-height="1017"
     inkscape:window-x="-8"
     inkscape:window-y="-8"
     inkscape:window-maximized="1" />
  <metadata
     id="metadata8466">
    <rdf:RDF>
      <cc:Work
         rdf:about="">
        <dc:format>image/svg+xml</dc:format>
        <dc:type
           rdf:resource="http://purl.org/dc/dcmitype/StillImage" />
        <dc:title></dc:title>
      </cc:Work>
    </rdf:RDF>
  </metadata>
  <g
     inkscape:label="Layer 1"
     inkscape:groupmode="layer"
     id="layer1"
     transform="translate(1.7833537,-1.8695083)">
    <g
       aria-label="𓂵"
       transform="scale(0.26458333)"
       style="font-style:normal;font-variant:normal;font-weight:normal;font-stretch:normal;font-size:192px;line-height:1.25;font-family:sans-serif;-inkscape-font-specification:sans-serif;font-variant-ligatures:normal;font-variant-caps:normal;font-variant-numeric:normal;font-feature-settings:normal;text-align:start;letter-spacing:0px;word-spacing:0px;writing-mode:lr-tb;text-anchor:start;fill:#000000;fill-opacity:1;stroke:none"
       id="flowRoot9014">
      <path
         d="m 16.509766,55.628358 v 2.34375 q 0,1.21875 0.1875,2.4375 l -1.59375,1.5 H 7.8847656 l -1.40625,-1.78125 q 0,-2.53125 0.375,-6.1875 0.375,-3.75 0.84375,-7.40625 l 0.75,-6.65625 q 0.28125,-3 0.28125,-4.03125 0,-3.09375 -0.28125,-5.4375 -0.28125,-2.4375 -0.5625,-4.6875 l -0.65625,-3.84375 q -0.28125,-1.78125 -0.28125,-3.9375 0,-4.78125 1.875,-7.78125 1.8750004,-3.0937497 5.3437504,-3.0937497 1.59375,0 2.8125,1.03125 1.21875,1.03125 1.21875,2.7187497 0,1.40625 -1.125,3.9375 -1.03125,2.53125 -1.03125,3.9375 0,1.125 0.375,2.53125 l 0.84375,2.90625 q 0.375,1.5 0.75,3.09375 0.375,1.59375 0.375,3.1875 0,3.75 -0.9375,13.125 -0.9375,9.375 -0.9375,12.09375 z m -3,3.28125 q 0,-0.46875 -0.09375,-0.9375 v -1.59375 q 0,-1.78125 0.375,-5.34375 l 1.3125,-15.09375 q 0.28125,-3.65625 0.28125,-5.8125 0,-1.21875 -0.375,-2.71875 l -1.59375,-6 q -0.375,-1.5 -0.375,-2.90625 0,-0.5625 0.09375,-0.84375 -1.125,0 -1.875,-0.84375 -0.75,-0.84375 -0.75,-2.625 l 0.1875,-1.6875 q -0.46875,1.03125 -0.65625,2.625 -0.1875004,1.5 -0.1875004,2.34375 0,3.84375 0.9375004,8.0625 0.9375,4.125 0.9375,11.34375 0,1.03125 -0.28125,3.65625 l -1.5000004,12.65625 q -0.375,3.375 -0.375,5.71875 z m 1.5,-48.28125 -0.1875,-0.375 q -0.1875,-0.1875 -0.28125,-0.3749997 -0.9375,0.4687497 -1.5,1.4999997 -0.5625,0.9375 -0.5625,1.96875 0,0.65625 0.1875,1.5 0.1875,0.75 0.84375,0.75 0.46875,0 1.03125,-1.6875 0.5625,-1.6875 0.5625,-2.8125 0,-0.1875 -0.09375,-0.46875 z m -11.7187504,45 v 2.34375 q 0,1.21875 0.1875,2.4375 l -1.59375,1.5 h -7.21875 l -1.40625,-1.78125 q 0,-2.53125 0.375,-6.1875 0.375,-3.75 0.84375,-7.40625 l 0.75,-6.65625 q 0.28125,-3 0.28125,-4.03125 0,-3.09375 -0.28125,-5.4375 -0.28125,-2.4375 -0.5625,-4.6875 l -0.65625,-3.84375 q -0.28125,-1.78125 -0.28125,-3.9375 0,-4.78125 1.875,-7.78125 1.875,-3.0937497 5.34375003,-3.0937497 1.59374997,0 2.81249997,1.03125 1.21875,1.03125 1.21875,2.7187497 0,1.40625 -1.125,3.9375 -1.03125,2.53125 -1.03125,3.9375 0,1.125 0.375,2.53125 l 0.84375,2.90625 q 0.375,1.5 0.75,3.09375 0.375,1.59375 0.375,3.1875 0,3.75 -0.9375,13.125 -0.9375,9.375 -0.9375,12.09375 z m -2.99999997,3.28125 q 0,-0.46875 -0.09375,-0.9375 v -1.59375 q 0,-1.78125 0.375,-5.34375 L 1.8847656,35.940858 q 0.28125,-3.65625 0.28125,-5.8125 0,-1.21875 -0.375,-2.71875 l -1.59374998,-6 q -0.37499999,-1.5 -0.37499999,-2.90625 0,-0.5625 0.09375,-0.84375 -1.12500003,0 -1.87500003,-0.84375 -0.75,-0.84375 -0.75,-2.625 l 0.1875,-1.6875 q -0.46875,1.03125 -0.65625,2.625 -0.1875,1.5 -0.1875,2.34375 0,3.84375 0.9375,8.0625 0.9375,4.125 0.9375,11.34375 0,1.03125 -0.28125,3.65625 l -1.5,12.65625 q -0.375,3.375 -0.375,5.71875 z m 1.49999997,-48.28125 -0.1875,-0.375 q -0.1875,-0.1875 -0.28125,-0.3749997 -0.93749997,0.4687497 -1.49999997,1.4999997 -0.5625,0.9375 -0.5625,1.96875 0,0.65625 0.1875,1.5 0.18749999,0.75 0.84375,0.75 0.46874999,0 1.03124997,-1.6875 0.5625,-1.6875 0.5625,-2.8125 0,-0.1875 -0.09375,-0.46875 z m 27.9375004,45 v 2.34375 q 0,1.21875 0.1875,2.4375 l -1.59375,1.5 h -7.21875 l -1.40625,-1.78125 q 0,-2.53125 0.375,-6.1875 0.375,-3.75 0.84375,-7.40625 l 0.75,-6.65625 q 0.28125,-3 0.28125,-4.03125 0,-3.09375 -0.28125,-5.4375 -0.28125,-2.4375 -0.5625,-4.6875 l -0.65625,-3.84375 q -0.28125,-1.78125 -0.28125,-3.9375 0,-4.78125 1.875,-7.78125 1.875,-3.0937497 5.34375,-3.0937497 1.59375,0 2.8125,1.03125 1.21875,1.03125 1.21875,2.7187497 0,1.40625 -1.125,3.9375 -1.03125,2.53125 -1.03125,3.9375 0,1.125 0.375,2.53125 l 0.84375,2.90625 q 0.375,1.5 0.75,3.09375 0.375,1.59375 0.375,3.1875 0,3.75 -0.9375,13.125 -0.9375,9.375 -0.9375,12.09375 z m -3,3.28125 q 0,-0.46875 -0.09375,-0.9375 v -1.59375 q 0,-1.78125 0.375,-5.34375 l 1.3125,-15.09375 q 0.28125,-3.65625 0.28125,-5.8125 0,-1.21875 -0.375,-2.71875 l -1.59375,-6 q -0.375,-1.5 -0.375,-2.90625 0,-0.5625 0.09375,-0.84375 -1.125,0 -1.875,-0.84375 -0.75,-0.84375 -0.75,-2.625 l 0.1875,-1.6875 q -0.46875,1.03125 -0.65625,2.625 -0.1875,1.5 -0.1875,2.34375 0,3.84375 0.9375,8.0625 0.9375,4.125 0.9375,11.34375 0,1.03125 -0.28125,3.65625 l -1.5,12.65625 q -0.375,3.375 -0.375,5.71875 z m 1.5,-48.28125 -0.1875,-0.375 q -0.1875,-0.1875 -0.28125,-0.3749997 -0.9375,0.4687497 -1.5,1.4999997 -0.5625,0.9375 -0.5625,1.96875 0,0.65625 0.1875,1.5 0.1875,0.75 0.84375,0.75 0.46875,0 1.03125,-1.6875 0.5625,-1.6875 0.5625,-2.8125 0,-0.1875 -0.09375,-0.46875 z M 16.509766,111.50336 v 2.34375 q 0,1.21875 0.1875,2.4375 l -1.59375,1.5 H 7.8847656 l -1.40625,-1.78125 q 0,-2.53125 0.375,-6.1875 0.375,-3.75 0.84375,-7.40625 l 0.75,-6.656252 q 0.28125,-3 0.28125,-4.03125 0,-3.09375 -0.28125,-5.4375 -0.28125,-2.4375 -0.5625,-4.6875 l -0.65625,-3.84375 q -0.28125,-1.78125 -0.28125,-3.9375 0,-4.78125 1.875,-7.78125 1.8750004,-3.09375 5.3437504,-3.09375 1.59375,0 2.8125,1.03125 1.21875,1.03125 1.21875,2.71875 0,1.40625 -1.125,3.9375 -1.03125,2.53125 -1.03125,3.9375 0,1.125 0.375,2.53125 l 0.84375,2.90625 q 0.375,1.5 0.75,3.09375 0.375,1.59375 0.375,3.1875 0,3.75 -0.9375,13.125 -0.9375,9.375002 -0.9375,12.093752 z m -3,3.28125 q 0,-0.46875 -0.09375,-0.9375 v -1.59375 q 0,-1.78125 0.375,-5.34375 l 1.3125,-15.093752 q 0.28125,-3.65625 0.28125,-5.8125 0,-1.21875 -0.375,-2.71875 l -1.59375,-6 q -0.375,-1.5 -0.375,-2.90625 0,-0.5625 0.09375,-0.84375 -1.125,0 -1.875,-0.84375 -0.75,-0.84375 -0.75,-2.625 l 0.1875,-1.6875 q -0.46875,1.03125 -0.65625,2.625 -0.1875004,1.5 -0.1875004,2.34375 0,3.84375 0.9375004,8.0625 0.9375,4.125 0.9375,11.34375 0,1.03125 -0.28125,3.65625 L 9.9472656,109.06586 q -0.375,3.375 -0.375,5.71875 z m 1.5,-48.281252 -0.1875,-0.375 q -0.1875,-0.1875 -0.28125,-0.375 -0.9375,0.46875 -1.5,1.5 -0.5625,0.9375 -0.5625,1.96875 0,0.65625 0.1875,1.5 0.1875,0.75 0.84375,0.75 0.46875,0 1.03125,-1.6875 0.5625,-1.6875 0.5625,-2.8125 0,-0.1875 -0.09375,-0.46875 z M 3.2910156,111.50336 v 2.34375 q 0,1.21875 0.1875,2.4375 l -1.59375,1.5 h -7.21875 l -1.40625,-1.78125 q 0,-2.53125 0.375,-6.1875 0.375,-3.75 0.84375,-7.40625 l 0.75,-6.656252 q 0.28125,-3 0.28125,-4.03125 0,-3.09375 -0.28125,-5.4375 -0.28125,-2.4375 -0.5625,-4.6875 l -0.65625,-3.84375 q -0.28125,-1.78125 -0.28125,-3.9375 0,-4.78125 1.875,-7.78125 1.875,-3.09375 5.34375003,-3.09375 1.59374997,0 2.81249997,1.03125 1.21875,1.03125 1.21875,2.71875 0,1.40625 -1.125,3.9375 -1.03125,2.53125 -1.03125,3.9375 0,1.125 0.375,2.53125 l 0.84375,2.90625 q 0.375,1.5 0.75,3.09375 0.375,1.59375 0.375,3.1875 0,3.75 -0.9375,13.125 -0.9375,9.375002 -0.9375,12.093752 z m -2.99999997,3.28125 q 0,-0.46875 -0.09375,-0.9375 v -1.59375 q 0,-1.78125 0.375,-5.34375 L 1.8847656,91.815858 q 0.28125,-3.65625 0.28125,-5.8125 0,-1.21875 -0.375,-2.71875 l -1.59374998,-6 q -0.37499999,-1.5 -0.37499999,-2.90625 0,-0.5625 0.09375,-0.84375 -1.12500003,0 -1.87500003,-0.84375 -0.75,-0.84375 -0.75,-2.625 l 0.1875,-1.6875 q -0.46875,1.03125 -0.65625,2.625 -0.1875,1.5 -0.1875,2.34375 0,3.84375 0.9375,8.0625 0.9375,4.125 0.9375,11.34375 0,1.03125 -0.28125,3.65625 l -1.5,12.656252 q -0.375,3.375 -0.375,5.71875 z m 1.49999997,-48.281252 -0.1875,-0.375 q -0.1875,-0.1875 -0.28125,-0.375 -0.93749997,0.46875 -1.49999997,1.5 -0.5625,0.9375 -0.5625,1.96875 0,0.65625 0.1875,1.5 0.18749999,0.75 0.84375,0.75 0.46874999,0 1.03124997,-1.6875 0.5625,-1.6875 0.5625,-2.8125 0,-0.1875 -0.09375,-0.46875 z M 29.728516,111.50336 v 2.34375 q 0,1.21875 0.1875,2.4375 l -1.59375,1.5 h -7.21875 l -1.40625,-1.78125 q 0,-2.53125 0.375,-6.1875 0.375,-3.75 0.84375,-7.40625 l 0.75,-6.656252 q 0.28125,-3 0.28125,-4.03125 0,-3.09375 -0.28125,-5.4375 -0.28125,-2.4375 -0.5625,-4.6875 l -0.65625,-3.84375 q -0.28125,-1.78125 -0.28125,-3.9375 0,-4.78125 1.875,-7.78125 1.875,-3.09375 5.34375,-3.09375 1.59375,0 2.8125,1.03125 1.21875,1.03125 1.21875,2.71875 0,1.40625 -1.125,3.9375 -1.03125,2.53125 -1.03125,3.9375 0,1.125 0.375,2.53125 l 0.84375,2.90625 q 0.375,1.5 0.75,3.09375 0.375,1.59375 0.375,3.1875 0,3.75 -0.9375,13.125 -0.9375,9.375002 -0.9375,12.093752 z m -3,3.28125 q 0,-0.46875 -0.09375,-0.9375 v -1.59375 q 0,-1.78125 0.375,-5.34375 l 1.3125,-15.093752 q 0.28125,-3.65625 0.28125,-5.8125 0,-1.21875 -0.375,-2.71875 l -1.59375,-6 q -0.375,-1.5 -0.375,-2.90625 0,-0.5625 0.09375,-0.84375 -1.125,0 -1.875,-0.84375 -0.75,-0.84375 -0.75,-2.625 l 0.1875,-1.6875 q -0.46875,1.03125 -0.65625,2.625 -0.1875,1.5 -0.1875,2.34375 0,3.84375 0.9375,8.0625 0.9375,4.125 0.9375,11.34375 0,1.03125 -0.28125,3.65625 l -1.5,12.656252 q -0.375,3.375 -0.375,5.71875 z m 1.5,-48.281252 -0.1875,-0.375 q -0.1875,-0.1875 -0.28125,-0.375 -0.9375,0.46875 -1.5,1.5 -0.5625,0.9375 -0.5625,1.96875 0,0.65625 0.1875,1.5 0.1875,0.75 0.84375,0.75 0.46875,0 1.03125,-1.6875 0.5625,-1.6875 0.5625,-2.8125 0,-0.1875 -0.09375,-0.46875 z M 16.509766,167.37836 v 2.34375 q 0,1.21875 0.1875,2.4375 l -1.59375,1.5 H 7.8847656 l -1.40625,-1.78125 q 0,-2.53125 0.375,-6.1875 0.375,-3.75 0.84375,-7.40625 l 0.75,-6.65625 q 0.28125,-3 0.28125,-4.03125 0,-3.09375 -0.28125,-5.4375 -0.28125,-2.4375 -0.5625,-4.6875 l -0.65625,-3.84375 q -0.28125,-1.78125 -0.28125,-3.9375 0,-4.78125 1.875,-7.78125 1.8750004,-3.09375 5.3437504,-3.09375 1.59375,0 2.8125,1.03125 1.21875,1.03125 1.21875,2.71875 0,1.40625 -1.125,3.9375 -1.03125,2.53125 -1.03125,3.9375 0,1.125 0.375,2.53125 l 0.84375,2.90625 q 0.375,1.5 0.75,3.09375 0.375,1.59375 0.375,3.1875 0,3.75 -0.9375,13.125 -0.9375,9.375 -0.9375,12.09375 z m -3,3.28125 q 0,-0.46875 -0.09375,-0.9375 v -1.59375 q 0,-1.78125 0.375,-5.34375 l 1.3125,-15.09375 q 0.28125,-3.65625 0.28125,-5.8125 0,-1.21875 -0.375,-2.71875 l -1.59375,-6 q -0.375,-1.5 -0.375,-2.90625 0,-0.5625 0.09375,-0.84375 -1.125,0 -1.875,-0.84375 -0.75,-0.84375 -0.75,-2.625 l 0.1875,-1.6875 q -0.46875,1.03125 -0.65625,2.625 -0.1875004,1.5 -0.1875004,2.34375 0,3.84375 0.9375004,8.0625 0.9375,4.125 0.9375,11.34375 0,1.03125 -0.28125,3.65625 l -1.5000004,12.65625 q -0.375,3.375 -0.375,5.71875 z m 1.5,-48.28125 -0.1875,-0.375 q -0.1875,-0.1875 -0.28125,-0.375 -0.9375,0.46875 -1.5,1.5 -0.5625,0.9375 -0.5625,1.96875 0,0.65625 0.1875,1.5 0.1875,0.75 0.84375,0.75 0.46875,0 1.03125,-1.6875 0.5625,-1.6875 0.5625,-2.8125 0,-0.1875 -0.09375,-0.46875 z m -11.7187504,45 v 2.34375 q 0,1.21875 0.1875,2.4375 l -1.59375,1.5 h -7.21875 l -1.40625,-1.78125 q 0,-2.53125 0.375,-6.1875 0.375,-3.75 0.84375,-7.40625 l 0.75,-6.65625 q 0.28125,-3 0.28125,-4.03125 0,-3.09375 -0.28125,-5.4375 -0.28125,-2.4375 -0.5625,-4.6875 l -0.65625,-3.84375 q -0.28125,-1.78125 -0.28125,-3.9375 0,-4.78125 1.875,-7.78125 1.875,-3.09375 5.34375003,-3.09375 1.59374997,0 2.81249997,1.03125 1.21875,1.03125 1.21875,2.71875 0,1.40625 -1.125,3.9375 -1.03125,2.53125 -1.03125,3.9375 0,1.125 0.375,2.53125 l 0.84375,2.90625 q 0.375,1.5 0.75,3.09375 0.375,1.59375 0.375,3.1875 0,3.75 -0.9375,13.125 -0.9375,9.375 -0.9375,12.09375 z m -2.99999997,3.28125 q 0,-0.46875 -0.09375,-0.9375 v -1.59375 q 0,-1.78125 0.375,-5.34375 L 1.8847656,147.69086 q 0.28125,-3.65625 0.28125,-5.8125 0,-1.21875 -0.375,-2.71875 l -1.59374998,-6 q -0.37499999,-1.5 -0.37499999,-2.90625 0,-0.5625 0.09375,-0.84375 -1.12500003,0 -1.87500003,-0.84375 -0.75,-0.84375 -0.75,-2.625 l 0.1875,-1.6875 q -0.46875,1.03125 -0.65625,2.625 -0.1875,1.5 -0.1875,2.34375 0,3.84375 0.9375,8.0625 0.9375,4.125 0.9375,11.34375 0,1.03125 -0.28125,3.65625 l -1.5,12.65625 q -0.375,3.375 -0.375,5.71875 z m 1.49999997,-48.28125 -0.1875,-0.375 q -0.1875,-0.1875 -0.28125,-0.375 -0.93749997,0.46875 -1.49999997,1.5 -0.5625,0.9375 -0.5625,1.96875 0,0.65625 0.1875,1.5 0.18749999,0.75 0.84375,0.75 0.46874999,0 1.03124997,-1.6875 0.5625,-1.6875 0.5625,-2.8125 0,-0.1875 -0.09375,-0.46875 z m 27.9375004,45 v 2.34375 q 0,1.21875 0.1875,2.4375 l -1.59375,1.5 h -7.21875 l -1.40625,-1.78125 q 0,-2.53125 0.375,-6.1875 0.375,-3.75 0.84375,-7.40625 l 0.75,-6.65625 q 0.28125,-3 0.28125,-4.03125 0,-3.09375 -0.28125,-5.4375 -0.28125,-2.4375 -0.5625,-4.6875 l -0.65625,-3.84375 q -0.28125,-1.78125 -0.28125,-3.9375 0,-4.78125 1.875,-7.78125 1.875,-3.09375 5.34375,-3.09375 1.59375,0 2.8125,1.03125 1.21875,1.03125 1.21875,2.71875 0,1.40625 -1.125,3.9375 -1.03125,2.53125 -1.03125,3.9375 0,1.125 0.375,2.53125 l 0.84375,2.90625 q 0.375,1.5 0.75,3.09375 0.375,1.59375 0.375,3.1875 0,3.75 -0.9375,13.125 -0.9375,9.375 -0.9375,12.09375 z m -3,3.28125 q 0,-0.46875 -0.09375,-0.9375 v -1.59375 q 0,-1.78125 0.375,-5.34375 l 1.3125,-15.09375 q 0.28125,-3.65625 0.28125,-5.8125 0,-1.21875 -0.375,-2.71875 l -1.59375,-6 q -0.375,-1.5 -0.375,-2.90625 0,-0.5625 0.09375,-0.84375 -1.125,0 -1.875,-0.84375 -0.75,-0.84375 -0.75,-2.625 l 0.1875,-1.6875 q -0.46875,1.03125 -0.65625,2.625 -0.1875,1.5 -0.1875,2.34375 0,3.84375 0.9375,8.0625 0.9375,4.125 0.9375,11.34375 0,1.03125 -0.28125,3.65625 l -1.5,12.65625 q -0.375,3.375 -0.375,5.71875 z m 1.5,-48.28125 -0.1875,-0.375 q -0.1875,-0.1875 -0.28125,-0.375 -0.9375,0.46875 -1.5,1.5 -0.5625,0.9375 -0.5625,1.96875 0,0.65625 0.1875,1.5 0.1875,0.75 0.84375,0.75 0.46875,0 1.03125,-1.6875 0.5625,-1.6875 0.5625,-2.8125 0,-0.1875 -0.09375,-0.46875 z"
         id="path9022"
         inkscape:connector-curvature="0" />
    </g>
  </g>
</svg>
