<?xml version="1.0" encoding="UTF-8" standalone="no"?>
<!-- Created with Inkscape (http://www.inkscape.org/) -->

<svg
   xmlns:dc="http://purl.org/dc/elements/1.1/"
   xmlns:cc="http://creativecommons.org/ns#"
   xmlns:rdf="http://www.w3.org/1999/02/22-rdf-syntax-ns#"
   xmlns:svg="http://www.w3.org/2000/svg"
   xmlns="http://www.w3.org/2000/svg"
   xmlns:sodipodi="http://sodipodi.sourceforge.net/DTD/sodipodi-0.dtd"
   xmlns:inkscape="http://www.inkscape.org/namespaces/inkscape"
   width="44.896484mm"
   height="37.975975mm"
   viewBox="0 0 44.896484 37.975975"
   version="1.1"
   id="svg9031"
   inkscape:version="0.92.4 (5da689c313, 2019-01-14)"
   sodipodi:docname="D50I.svg">
  <defs
     id="defs9025" />
  <sodipodi:namedview
     id="base"
     pagecolor="#ffffff"
     bordercolor="#666666"
     borderopacity="1.0"
     inkscape:pageopacity="0.0"
     inkscape:pageshadow="2"
     inkscape:zoom="0.35"
     inkscape:cx="-326.11523"
     inkscape:cy="-329.04758"
     inkscape:document-units="mm"
     inkscape:current-layer="layer1"
     showgrid="false"
     fit-margin-top="0"
     fit-margin-left="0"
     fit-margin-right="0"
     fit-margin-bottom="0"
     inkscape:window-width="1920"
     inkscape:window-height="1017"
     inkscape:window-x="-8"
     inkscape:window-y="-8"
     inkscape:window-maximized="1" />
  <metadata
     id="metadata9028">
    <rdf:RDF>
      <cc:Work
         rdf:about="">
        <dc:format>image/svg+xml</dc:format>
        <dc:type
           rdf:resource="http://purl.org/dc/dcmitype/StillImage" />
        <dc:title></dc:title>
      </cc:Work>
    </rdf:RDF>
  </metadata>
  <g
     inkscape:label="Layer 1"
     inkscape:groupmode="layer"
     id="layer1"
     transform="translate(1.0278442,-23.796852)">
    <g
       aria-label="𓂶"
       transform="scale(0.26458333)"
       style="font-style:normal;font-variant:normal;font-weight:normal;font-stretch:normal;font-size:192px;line-height:1.25;font-family:sans-serif;-inkscape-font-specification:sans-serif;font-variant-ligatures:normal;font-variant-caps:normal;font-variant-numeric:normal;font-feature-settings:normal;text-align:start;letter-spacing:0px;word-spacing:0px;writing-mode:lr-tb;text-anchor:start;fill:#000000;fill-opacity:1;stroke:none"
       id="flowRoot9576">
      <path
         d="m 22.083984,172.72211 -2.25,27.5625 q -0.5625,6.75 -0.9375,12.75 -0.28125,5.90625 -0.28125,10.21875 v 4.3125 q 0,2.25 0.1875,4.40625 l -1.59375,1.5 H -2.4785156 l -1.40625,-1.78125 q 0.65625,-8.34375 1.40625,-21.375 0.75,-13.03125 2.71874998,-26.34375 1.96875002,-13.3125 1.96875002,-23.25 0,-13.21875 -2.25000002,-24.75 -2.24999998,-11.53125 -2.24999998,-18.9375 0,-12.5625 4.3125,-19.781252 4.3125,-7.3125 12.4687496,-7.3125 3.84375,0 5.90625,2.15625 2.0625,2.0625 2.0625,5.90625 0,3.281252 -2.625,9.562502 -2.625,6.1875 -2.625,10.125 0,5.53125 3,16.03125 3.09375,10.5 3.09375,16.59375 0,4.125 -0.375,9.9375 -0.28125,5.8125 -0.84375,12.46875 z m -6.5625,52.03125 q 0,-14.625 2.34375,-38.25 2.4375,-23.625 2.4375,-36.46875 0,-4.78125 -3.09375,-16.125 -3,-11.34375 -3,-15.75 0,-1.21875 0.09375,-2.53125 0.09375,-1.3125 0.46875,-2.53125 -0.1875,0 -0.46875,0.0937 l -1.125,0.0937 q -2.4375,0 -4.2187496,-1.875 -1.78125,-1.875 -1.78125,-5.0625 0,-3.1875 1.3125,-6.656252 1.40625,-3.46875 2.9999996,-6.46875 -5.4374996,1.59375 -8.2499996,7.968752 -2.71875003,6.375 -2.71875003,15.46875 0,6.9375 2.34375003,18.75 2.34375,11.8125 2.34375,26.34375 0,9.5625 -1.875,21.28125 -1.78125,11.71875 -2.81250003,26.71875 l -1.31249999,20.71875 H 15.708984 q -0.1875,-2.90625 -0.1875,-5.71875 z M 15.052734,92.940858 q -1.6875,3 -3.1875,6.09375 -1.40625,3.000002 -1.6875,6.281252 0,1.5 0.84375,3.28125 0.9375,1.6875 2.25,1.6875 1.21875,0 2.8125,-0.9375 l 2.15625,-5.8125 q 1.125,-3 1.125,-5.437502 0,-2.71875 -1.21875,-3.9375 -1.125,-1.21875 -3.09375,-1.21875 z m 42.65625,79.781252 -2.25,27.5625 q -0.5625,6.75 -0.9375,12.75 -0.28125,5.90625 -0.28125,10.21875 v 4.3125 q 0,2.25 0.1875,4.40625 l -1.59375,1.5 h -19.6875 l -1.40625,-1.78125 q 0.65625,-8.34375 1.40625,-21.375 0.75,-13.03125 2.71875,-26.34375 1.96875,-13.3125 1.96875,-23.25 0,-13.21875 -2.25,-24.75 -2.25,-11.53125 -2.25,-18.9375 0,-12.5625 4.3125,-19.781252 4.3125,-7.3125 12.46875,-7.3125 3.84375,0 5.90625,2.15625 2.0625,2.0625 2.0625,5.90625 0,3.281252 -2.625,9.562502 -2.625,6.1875 -2.625,10.125 0,5.53125 3,16.03125 3.09375,10.5 3.09375,16.59375 0,4.125 -0.375,9.9375 -0.28125,5.8125 -0.84375,12.46875 z m -6.5625,52.03125 q 0,-14.625 2.34375,-38.25 2.4375,-23.625 2.4375,-36.46875 0,-4.78125 -3.09375,-16.125 -3,-11.34375 -3,-15.75 0,-1.21875 0.09375,-2.53125 0.09375,-1.3125 0.46875,-2.53125 -0.1875,0 -0.46875,0.0937 l -1.125,0.0937 q -2.4375,0 -4.21875,-1.875 -1.78125,-1.875 -1.78125,-5.0625 0,-3.1875 1.3125,-6.656252 1.40625,-3.46875 3,-6.46875 -5.4375,1.59375 -8.25,7.968752 -2.71875,6.375 -2.71875,15.46875 0,6.9375 2.34375,18.75 2.34375,11.8125 2.34375,26.34375 0,9.5625 -1.875,21.28125 -1.78125,11.71875 -2.8125,26.71875 l -1.3125,20.71875 h 16.5 q -0.1875,-2.90625 -0.1875,-5.71875 z M 50.677734,92.940858 q -1.6875,3 -3.1875,6.09375 -1.40625,3.000002 -1.6875,6.281252 0,1.5 0.84375,3.28125 0.9375,1.6875 2.25,1.6875 1.21875,0 2.8125,-0.9375 l 2.15625,-5.8125 q 1.125,-3 1.125,-5.437502 0,-2.71875 -1.21875,-3.9375 -1.125,-1.21875 -3.09375,-1.21875 z m 42.65625,79.781252 -2.25,27.5625 q -0.5625,6.75 -0.9375,12.75 -0.28125,5.90625 -0.28125,10.21875 v 4.3125 q 0,2.25 0.1875,4.40625 l -1.59375,1.5 h -19.6875 l -1.40625,-1.78125 q 0.65625,-8.34375 1.40625,-21.375 0.75,-13.03125 2.71875,-26.34375 1.96875,-13.3125 1.96875,-23.25 0,-13.21875 -2.25,-24.75 -2.25,-11.53125 -2.25,-18.9375 0,-12.5625 4.3125,-19.781252 4.3125,-7.3125 12.46875,-7.3125 3.84375,0 5.90625,2.15625 2.0625,2.0625 2.0625,5.90625 0,3.281252 -2.625,9.562502 -2.625,6.1875 -2.625,10.125 0,5.53125 3,16.03125 3.09375,10.5 3.09375,16.59375 0,4.125 -0.375,9.9375 -0.28125,5.8125 -0.84375,12.46875 z m -6.5625,52.03125 q 0,-14.625 2.34375,-38.25 2.4375,-23.625 2.4375,-36.46875 0,-4.78125 -3.09375,-16.125 -3,-11.34375 -3,-15.75 0,-1.21875 0.09375,-2.53125 0.09375,-1.3125 0.46875,-2.53125 -0.1875,0 -0.46875,0.0937 l -1.125,0.0937 q -2.4375,0 -4.21875,-1.875 -1.78125,-1.875 -1.78125,-5.0625 0,-3.1875 1.3125,-6.656252 1.40625,-3.46875 3,-6.46875 -5.4375,1.59375 -8.25,7.968752 -2.71875,6.375 -2.71875,15.46875 0,6.9375 2.34375,18.75 2.34375,11.8125 2.34375,26.34375 0,9.5625 -1.875,21.28125 -1.78125,11.71875 -2.8125,26.71875 l -1.3125,20.71875 h 16.5 q -0.1875,-2.90625 -0.1875,-5.71875 z M 86.302734,92.940858 q -1.6875,3 -3.1875,6.09375 -1.40625,3.000002 -1.6875,6.281252 0,1.5 0.84375,3.28125 0.9375,1.6875 2.25,1.6875 1.21875,0 2.8125,-0.9375 l 2.15625,-5.8125 q 1.125,-3 1.125,-5.437502 0,-2.71875 -1.21875,-3.9375 -1.125,-1.21875 -3.09375,-1.21875 z m 42.656246,79.781252 -2.25,27.5625 q -0.5625,6.75 -0.9375,12.75 -0.28125,5.90625 -0.28125,10.21875 v 4.3125 q 0,2.25 0.1875,4.40625 l -1.59375,1.5 h -19.6875 l -1.40625,-1.78125 q 0.65625,-8.34375 1.40625,-21.375 0.75,-13.03125 2.71875,-26.34375 1.96875,-13.3125 1.96875,-23.25 0,-13.21875 -2.25,-24.75 -2.25,-11.53125 -2.25,-18.9375 0,-12.5625 4.3125,-19.781252 4.3125,-7.3125 12.46875,-7.3125 3.84375,0 5.90625,2.15625 2.0625,2.0625 2.0625,5.90625 0,3.281252 -2.625,9.562502 -2.625,6.1875 -2.625,10.125 0,5.53125 3,16.03125 3.09375,10.5 3.09375,16.59375 0,4.125 -0.375,9.9375 -0.28125,5.8125 -0.84375,12.46875 z m -6.5625,52.03125 q 0,-14.625 2.34375,-38.25 2.4375,-23.625 2.4375,-36.46875 0,-4.78125 -3.09375,-16.125 -3,-11.34375 -3,-15.75 0,-1.21875 0.0937,-2.53125 0.0937,-1.3125 0.46875,-2.53125 -0.1875,0 -0.46875,0.0937 l -1.125,0.0937 q -2.4375,0 -4.21875,-1.875 -1.78125,-1.875 -1.78125,-5.0625 0,-3.1875 1.3125,-6.656252 1.40625,-3.46875 3,-6.46875 -5.4375,1.59375 -8.25,7.968752 -2.71875,6.375 -2.71875,15.46875 0,6.9375 2.34375,18.75 2.34375,11.8125 2.34375,26.34375 0,9.5625 -1.875,21.28125 -1.78125,11.71875 -2.8125,26.71875 l -1.3125,20.71875 h 16.5 q -0.1875,-2.90625 -0.1875,-5.71875 z M 121.92773,92.940858 q -1.6875,3 -3.1875,6.09375 -1.40625,3.000002 -1.6875,6.281252 0,1.5 0.84375,3.28125 0.9375,1.6875 2.25,1.6875 1.21875,0 2.8125,-0.9375 l 2.15625,-5.8125 q 1.125,-3 1.125,-5.437502 0,-2.71875 -1.21875,-3.9375 -1.125,-1.21875 -3.09375,-1.21875 z m 42.65625,79.781252 -2.25,27.5625 q -0.5625,6.75 -0.9375,12.75 -0.28125,5.90625 -0.28125,10.21875 v 4.3125 q 0,2.25 0.1875,4.40625 l -1.59375,1.5 h -19.6875 l -1.40625,-1.78125 q 0.65625,-8.34375 1.40625,-21.375 0.75,-13.03125 2.71875,-26.34375 1.96875,-13.3125 1.96875,-23.25 0,-13.21875 -2.25,-24.75 -2.25,-11.53125 -2.25,-18.9375 0,-12.5625 4.3125,-19.781252 4.3125,-7.3125 12.46875,-7.3125 3.84375,0 5.90625,2.15625 2.0625,2.0625 2.0625,5.90625 0,3.281252 -2.625,9.562502 -2.625,6.1875 -2.625,10.125 0,5.53125 3,16.03125 3.09375,10.5 3.09375,16.59375 0,4.125 -0.375,9.9375 -0.28125,5.8125 -0.84375,12.46875 z m -6.5625,52.03125 q 0,-14.625 2.34375,-38.25 2.4375,-23.625 2.4375,-36.46875 0,-4.78125 -3.09375,-16.125 -3,-11.34375 -3,-15.75 0,-1.21875 0.0937,-2.53125 0.0937,-1.3125 0.46875,-2.53125 -0.1875,0 -0.46875,0.0937 l -1.125,0.0937 q -2.4375,0 -4.21875,-1.875 -1.78125,-1.875 -1.78125,-5.0625 0,-3.1875 1.3125,-6.656252 1.40625,-3.46875 3,-6.46875 -5.4375,1.59375 -8.25,7.968752 -2.71875,6.375 -2.71875,15.46875 0,6.9375 2.34375,18.75 2.34375,11.8125 2.34375,26.34375 0,9.5625 -1.875,21.28125 -1.78125,11.71875 -2.8125,26.71875 l -1.3125,20.71875 h 16.5 q -0.1875,-2.90625 -0.1875,-5.71875 z M 157.55273,92.940858 q -1.6875,3 -3.1875,6.09375 -1.40625,3.000002 -1.6875,6.281252 0,1.5 0.84375,3.28125 0.9375,1.6875 2.25,1.6875 1.21875,0 2.8125,-0.9375 l 2.15625,-5.8125 q 1.125,-3 1.125,-5.437502 0,-2.71875 -1.21875,-3.9375 -1.125,-1.21875 -3.09375,-1.21875 z"
         id="path9584"
         inkscape:connector-curvature="0" />
    </g>
  </g>
</svg>
