<?xml version="1.0" encoding="UTF-8" standalone="no"?>
<!-- Created with Inkscape (http://www.inkscape.org/) -->

<svg
   xmlns:dc="http://purl.org/dc/elements/1.1/"
   xmlns:cc="http://creativecommons.org/ns#"
   xmlns:rdf="http://www.w3.org/1999/02/22-rdf-syntax-ns#"
   xmlns:svg="http://www.w3.org/2000/svg"
   xmlns="http://www.w3.org/2000/svg"
   xmlns:sodipodi="http://sodipodi.sourceforge.net/DTD/sodipodi-0.dtd"
   xmlns:inkscape="http://www.inkscape.org/namespaces/inkscape"
   width="38.000778mm"
   height="9.0536976mm"
   viewBox="0 0 38.000778 9.0536976"
   version="1.1"
   id="svg9824"
   inkscape:version="0.92.4 (5da689c313, 2019-01-14)"
   sodipodi:docname="D51.svg">
  <defs
     id="defs9818" />
  <sodipodi:namedview
     id="base"
     pagecolor="#ffffff"
     bordercolor="#666666"
     borderopacity="1.0"
     inkscape:pageopacity="0.0"
     inkscape:pageshadow="2"
     inkscape:zoom="0.35"
     inkscape:cx="-346.11523"
     inkscape:cy="-349.04763"
     inkscape:document-units="mm"
     inkscape:current-layer="layer1"
     showgrid="false"
     fit-margin-top="0"
     fit-margin-left="0"
     fit-margin-right="0"
     fit-margin-bottom="0"
     inkscape:window-width="1920"
     inkscape:window-height="1017"
     inkscape:window-x="-8"
     inkscape:window-y="-8"
     inkscape:window-maximized="1" />
  <metadata
     id="metadata9821">
    <rdf:RDF>
      <cc:Work
         rdf:about="">
        <dc:format>image/svg+xml</dc:format>
        <dc:type
           rdf:resource="http://purl.org/dc/dcmitype/StillImage" />
        <dc:title></dc:title>
      </cc:Work>
    </rdf:RDF>
  </metadata>
  <g
     inkscape:label="Layer 1"
     inkscape:groupmode="layer"
     id="layer1"
     transform="translate(-4.2638223,-47.427451)">
    <g
       aria-label="𓂷"
       transform="scale(0.26458333)"
       style="font-style:normal;font-variant:normal;font-weight:normal;font-stretch:normal;font-size:192px;line-height:1.25;font-family:sans-serif;-inkscape-font-specification:'sans-serif, Normal';font-variant-ligatures:normal;font-variant-caps:normal;font-variant-numeric:normal;font-feature-settings:normal;text-align:start;letter-spacing:0px;word-spacing:0px;writing-mode:lr-tb;text-anchor:start;fill:#000000;fill-opacity:1;stroke:none"
       id="flowRoot10369">
      <path
         d="m 40.865234,186.47211 3.28125,-2.0625 q 5.53125,-3.46875 12.5625,-4.3125 7.03125,-0.84375 15,-0.84375 4.875,0 9.65625,0.0937 l 9.5625,0.28125 33.656246,0.375 q 16.6875,0.1875 33.5625,0.1875 l 1.59375,1.5 v 16.6875 l -1.59375,1.5 H 59.240234 q -6.09375,0.375 -15.75,7.03125 -9.65625,6.5625 -19.875,6.5625 -3.28125,0 -5.4375,-2.34375 -2.0625,-2.4375 -2.0625,-6.09375 0,-7.125 9.375,-11.0625 9.46875,-3.9375 15.375,-7.5 z m -9.09375,8.15625 0.375,1.40625 q 0.1875,0.65625 0.28125,1.5 0.1875,0.84375 0.1875,1.59375 0,2.71875 -2.53125,5.15625 -2.53125,2.4375 -7.96875,6.09375 0.84375,0.28125 1.875,0.28125 4.5,0 8.90625,-1.59375 4.40625,-1.6875 8.15625,-4.125 l 4.3125,-2.8125 q 3.5625,-2.34375 7.21875,-3.75 3.75,-1.5 7.3125,-1.5 h 96.843746 v -13.6875 q -16.59375,0 -32.90625,-0.1875 l -32.906246,-0.375 -9.375,-0.28125 q -4.78125,0 -9.65625,-0.0937 -8.15625,0 -14.15625,0.75 -6,0.75 -10.78125,3.46875 l -7.6875,4.5 q -1.875,1.03125 -3.75,1.875 z m -12.75,10.5 q 0,1.6875 0.75,3.1875 0.28125,-0.1875 5.0625,-3.5625 4.875,-3.46875 4.875,-5.25 0,-0.75 -0.1875,-1.5 -0.1875,-0.84375 -0.65625,-2.0625 -0.65625,0.375 -5.25,2.71875 -4.59375,2.25 -4.59375,6.46875 z"
         id="path10377"
         inkscape:connector-curvature="0" />
    </g>
  </g>
</svg>
