<?xml version="1.0" encoding="UTF-8" standalone="no"?>
<!-- Created with Inkscape (http://www.inkscape.org/) -->

<svg
   xmlns:dc="http://purl.org/dc/elements/1.1/"
   xmlns:cc="http://creativecommons.org/ns#"
   xmlns:rdf="http://www.w3.org/1999/02/22-rdf-syntax-ns#"
   xmlns:svg="http://www.w3.org/2000/svg"
   xmlns="http://www.w3.org/2000/svg"
   xmlns:sodipodi="http://sodipodi.sourceforge.net/DTD/sodipodi-0.dtd"
   xmlns:inkscape="http://www.inkscape.org/namespaces/inkscape"
   width="24.13496mm"
   height="18.628334mm"
   viewBox="0 0 24.13496 18.628334"
   version="1.1"
   id="svg9593"
   inkscape:version="0.92.4 (5da689c313, 2019-01-14)"
   sodipodi:docname="D54.svg">
  <defs
     id="defs9587" />
  <sodipodi:namedview
     id="base"
     pagecolor="#ffffff"
     bordercolor="#666666"
     borderopacity="1.0"
     inkscape:pageopacity="0.0"
     inkscape:pageshadow="2"
     inkscape:zoom="0.35"
     inkscape:cx="-328.97266"
     inkscape:cy="-321.97527"
     inkscape:document-units="mm"
     inkscape:current-layer="layer1"
     showgrid="false"
     fit-margin-top="0"
     fit-margin-left="0"
     fit-margin-right="0"
     fit-margin-bottom="0"
     inkscape:window-width="1920"
     inkscape:window-height="1017"
     inkscape:window-x="-8"
     inkscape:window-y="-8"
     inkscape:window-maximized="1" />
  <metadata
     id="metadata9590">
    <rdf:RDF>
      <cc:Work
         rdf:about="">
        <dc:format>image/svg+xml</dc:format>
        <dc:type
           rdf:resource="http://purl.org/dc/dcmitype/StillImage" />
        <dc:title></dc:title>
      </cc:Work>
    </rdf:RDF>
  </metadata>
  <g
     inkscape:label="Layer 1"
     inkscape:groupmode="layer"
     id="layer1"
     transform="translate(0.27181802,-45.01571)">
    <g
       aria-label="𓂻"
       transform="scale(0.26458333)"
       style="font-style:normal;font-variant:normal;font-weight:normal;font-stretch:normal;font-size:192px;line-height:1.25;font-family:sans-serif;-inkscape-font-specification:sans-serif;font-variant-ligatures:normal;font-variant-caps:normal;font-variant-numeric:normal;font-feature-settings:normal;text-align:start;letter-spacing:0px;word-spacing:0px;writing-mode:lr-tb;text-anchor:start;fill:#000000;fill-opacity:1;stroke:none"
       id="flowRoot10146">
      <path
         d="m 57.472656,181.57562 q -2.90625,11.625 -14.34375,28.6875 -11.4375,16.96875 -14.34375,22.6875 0,7.59375 -6.09375,7.59375 -2.625,-1.59375 -3.9375,-1.59375 -2.0625,0 -6.5625,0.84375 -4.4062498,0.75 -6.7499998,0.75 -6.18749995,0 -6.4687499,-2.4375 0.93749995,-0.75 2.4374999,-0.75 h 0.8437501 l 0.84375,0.1875 6.9374997,-1.875 q 4.125,-1.125 9.65625,-2.71875 9.09375,-11.90625 19.875,-34.6875 10.875,-22.78125 12.75,-25.40625 1.96875,-2.71875 6.375,-2.71875 2.15625,0 4.875,0.84375 14.4375,17.4375 26.625,66 0,3.5625 -4.125,3.5625 -1.03125,0 -3.375,-1.3125 l -2.25,-0.375 q -1.03125,0 -1.6875,-0.0937 -1.125,0 -6.09375,0.9375 -4.96875,0.84375 -7.6875,0.84375 -3,0 -3,-1.96875 v -0.1875 l 1.125,-0.5625 q 9.375,-0.9375 18.84375,-5.34375 l 0.09375,-2.8125 q 0,-7.59375 -6.75,-20.8125 -6.75,-13.21875 -17.8125,-27.28125 z"
         id="path10154"
         inkscape:connector-curvature="0" />
    </g>
  </g>
</svg>
