<?xml version="1.0" encoding="UTF-8" standalone="no"?>
<!-- Created with Inkscape (http://www.inkscape.org/) -->

<svg
   xmlns:dc="http://purl.org/dc/elements/1.1/"
   xmlns:cc="http://creativecommons.org/ns#"
   xmlns:rdf="http://www.w3.org/1999/02/22-rdf-syntax-ns#"
   xmlns:svg="http://www.w3.org/2000/svg"
   xmlns="http://www.w3.org/2000/svg"
   xmlns:sodipodi="http://sodipodi.sourceforge.net/DTD/sodipodi-0.dtd"
   xmlns:inkscape="http://www.inkscape.org/namespaces/inkscape"
   width="24.531836mm"
   height="23.291615mm"
   viewBox="0 0 24.531836 23.291615"
   version="1.1"
   id="svg10163"
   inkscape:version="0.92.4 (5da689c313, 2019-01-14)"
   sodipodi:docname="D54A.svg">
  <defs
     id="defs10157" />
  <sodipodi:namedview
     id="base"
     pagecolor="#ffffff"
     bordercolor="#666666"
     borderopacity="1.0"
     inkscape:pageopacity="0.0"
     inkscape:pageshadow="2"
     inkscape:zoom="0.35"
     inkscape:cx="-303.25977"
     inkscape:cy="-359.11784"
     inkscape:document-units="mm"
     inkscape:current-layer="layer1"
     showgrid="false"
     fit-margin-top="0"
     fit-margin-left="0"
     fit-margin-right="0"
     fit-margin-bottom="0"
     inkscape:window-width="1920"
     inkscape:window-height="1017"
     inkscape:window-x="-8"
     inkscape:window-y="-8"
     inkscape:window-maximized="1" />
  <metadata
     id="metadata10160">
    <rdf:RDF>
      <cc:Work
         rdf:about="">
        <dc:format>image/svg+xml</dc:format>
        <dc:type
           rdf:resource="http://purl.org/dc/dcmitype/StillImage" />
        <dc:title></dc:title>
      </cc:Work>
    </rdf:RDF>
  </metadata>
  <g
     inkscape:label="Layer 1"
     inkscape:groupmode="layer"
     id="layer1"
     transform="translate(7.0750202,-30.525124)">
    <g
       aria-label="𓂼"
       transform="scale(0.26458333)"
       style="font-style:normal;font-variant:normal;font-weight:normal;font-stretch:normal;font-size:192px;line-height:1.25;font-family:sans-serif;-inkscape-font-specification:sans-serif;font-variant-ligatures:normal;font-variant-caps:normal;font-variant-numeric:normal;font-feature-settings:normal;text-align:start;letter-spacing:0px;word-spacing:0px;writing-mode:lr-tb;text-anchor:start;fill:#000000;fill-opacity:1;stroke:none"
       id="flowRoot10708">
      <path
         d="m 33.259766,144.43305 q -2.90625,11.625 -14.34375,28.6875 -11.4375004,16.96875 -14.3437504,22.6875 0,7.59375 -6.09375,7.59375 -2.625,-1.59375 -3.9375,-1.59375 -2.0625,0 -6.5624996,0.84375 -4.40625,0.75 -6.75,0.75 -6.1875,0 -6.46875,-2.4375 0.9375,-0.75 2.4375,-0.75 h 0.84375 l 0.84375,0.1875 6.9375,-1.875 q 4.125,-1.125 9.6562496,-2.71875 8.25,-10.875 17.0625004,-28.875 l 2.4375,-5.0625 q 1.125,-2.53125 2.4375,-4.96875 l -22.9687504,-20.71875 2.0625,-4.03125 q 0.75,-1.59375 1.40625,-3.1875 0.65625,-1.6875 0.65625,-2.53125 0,-1.6875 -5.4375,-5.15625 -5.3437496,-3.46875 -8.4374996,-3.46875 -2.15625,0 -4.875,2.625 -2.71875,2.53125 -4.6875,5.625 l -1.875,-1.78125 q 2.71875,-3.9375 5.71875,-6.375 3,-2.53125 5.71875,-2.53125 3.9375,0 10.2187496,4.59375 6.28125,4.5 6.28125,6.75 0,1.40625 -0.84374997,3.46875 -0.75000001,1.96875 -2.43750003,5.15625 l 20.8125004,18.84375 q 6.9375,-14.15625 8.90625,-17.625 1.96875,-3.5625 6.84375,-3.5625 2.15625,0 4.875,0.84375 14.71875,17.8125 26.625,66.09375 0,3.46875 -4.125,3.46875 -1.03125,0 -3.375,-1.3125 l -2.25,-0.375 q -1.03125,0 -1.6875,-0.0937 -1.125,0 -6.09375,0.9375 -4.96875,0.84375 -7.6875,0.84375 -3,0 -3,-1.96875 v -0.1875 l 1.125,-0.5625 q 9.375,-0.9375 18.84375,-5.34375 v -3.09375 q 0,-7.59375 -6.75,-20.71875 -6.75,-13.21875 -17.71875,-27.09375 z"
         id="path10716"
         inkscape:connector-curvature="0" />
    </g>
  </g>
</svg>
