<?xml version="1.0" encoding="UTF-8" standalone="no"?>
<!-- Created with Inkscape (http://www.inkscape.org/) -->

<svg
   xmlns:dc="http://purl.org/dc/elements/1.1/"
   xmlns:cc="http://creativecommons.org/ns#"
   xmlns:rdf="http://www.w3.org/1999/02/22-rdf-syntax-ns#"
   xmlns:svg="http://www.w3.org/2000/svg"
   xmlns="http://www.w3.org/2000/svg"
   xmlns:sodipodi="http://sodipodi.sourceforge.net/DTD/sodipodi-0.dtd"
   xmlns:inkscape="http://www.inkscape.org/namespaces/inkscape"
   width="18.578711mm"
   height="38.075195mm"
   viewBox="0 0 18.578711 38.075195"
   version="1.1"
   id="svg11287"
   inkscape:version="0.92.4 (5da689c313, 2019-01-14)"
   sodipodi:docname="D56.svg">
  <defs
     id="defs11281" />
  <sodipodi:namedview
     id="base"
     pagecolor="#ffffff"
     bordercolor="#666666"
     borderopacity="1.0"
     inkscape:pageopacity="0.0"
     inkscape:pageshadow="2"
     inkscape:zoom="0.35"
     inkscape:cx="-340.40234"
     inkscape:cy="-328.57883"
     inkscape:document-units="mm"
     inkscape:current-layer="layer1"
     showgrid="false"
     fit-margin-top="0"
     fit-margin-left="0"
     fit-margin-right="0"
     fit-margin-bottom="0"
     inkscape:window-width="1920"
     inkscape:window-height="1017"
     inkscape:window-x="-8"
     inkscape:window-y="-8"
     inkscape:window-maximized="1" />
  <metadata
     id="metadata11284">
    <rdf:RDF>
      <cc:Work
         rdf:about="">
        <dc:format>image/svg+xml</dc:format>
        <dc:type
           rdf:resource="http://purl.org/dc/dcmitype/StillImage" />
        <dc:title></dc:title>
      </cc:Work>
    </rdf:RDF>
  </metadata>
  <g
     inkscape:label="Layer 1"
     inkscape:groupmode="layer"
     id="layer1"
     transform="translate(-2.7522868,-23.821656)">
    <g
       aria-label="𓂾"
       transform="scale(0.26458333)"
       style="font-style:normal;font-variant:normal;font-weight:normal;font-stretch:normal;font-size:192px;line-height:1.25;font-family:sans-serif;-inkscape-font-specification:sans-serif;font-variant-ligatures:normal;font-variant-caps:normal;font-variant-numeric:normal;font-feature-settings:normal;text-align:start;letter-spacing:0px;word-spacing:0px;writing-mode:lr-tb;text-anchor:start;fill:#000000;fill-opacity:1;stroke:none"
       id="flowRoot11832">
      <path
         d="m 48.183594,206.84711 q 0,-10.78125 -2.8125,-25.40625 -2.71875,-14.71875 -3.375,-18.5625 l -1.03125,-5.8125 q -1.21875,-6.65625 -1.78125,-11.25 -0.46875,-4.6875 -0.46875,-8.53125 0,-9.1875 7.78125,-20.625 7.875,-11.53125 22.3125,-26.625002 l 2.25,0.1875 9.5625,12.000002 v 1.875 q -1.78125,2.8125 -4.21875,6 l -10.125,13.125 q -4.125,5.34375 -6.5625,9.46875 -2.34375,4.125 -2.34375,6.375 0,3.65625 1.3125,7.59375 l 2.53125,7.59375 q 0.84375,2.4375 1.3125,9.28125 0.5625,6.75 0.5625,17.4375 0,18.84375 -0.84375,27.375 -0.75,8.53125 0,11.25 0.75,2.625 0.75,5.53125 0,4.40625 -2.90625,6.5625 -2.8125,2.0625 -7.6875,2.0625 -1.3125,0 -2.4375,-0.375 l -2.34375,-0.84375 q -1.59375,-0.46875 -3.09375,-0.75 -1.5,-0.375 -3.46875,-0.375 -3.84375,0 -8.0625,0.75 -4.125,0.75 -7.6875,1.21875 l -3.65625,0.375 q -1.875,0.1875 -3.75,0.1875 l -1.96875,-0.0937 q -2.0625,0 -3.84375,-0.75 -1.6875,-0.75 -1.6875,-2.25 0,-1.40625 1.40625,-2.0625 1.5,-0.65625 4.78125,-1.6875 l 4.125,-1.3125 q 7.59375,-2.25 14.53125,-5.0625 6.9375,-2.90625 13.03125,-7.125 z m -33.75,23.8125 q 1.03125,0.28125 2.15625,0.375 1.125,0.0937 2.25,0.0937 1.96875,0 4.03125,-0.1875 2.15625,-0.28125 4.21875,-0.65625 l 4.03125,-0.75 q 1.875,-0.28125 3.46875,-0.46875 l 3.46875,-0.46875 q 1.78125,-0.1875 3.5625,-0.1875 2.8125,0 6.1875,1.21875 3.46875,1.125 6.09375,1.125 2.34375,0 4.21875,-1.125 1.875,-1.125 1.875,-4.6875 0,-2.25 -0.65625,-4.5 -0.5625,-2.25 -0.5625,-3.375 0.75,-8.15625 1.03125,-17.0625 0.375,-9 0.375,-17.4375 0,-8.71875 -0.5625,-16.78125 -0.46875,-8.0625 -1.5,-11.25 l -2.4375,-7.59375 q -1.3125,-4.03125 -1.3125,-7.96875 0,-5.71875 9.46875,-17.53125 9.46875,-11.90625 13.875,-18.09375 l -7.96875,-9.937502 -4.78125,5.25 h -0.09375 q -11.25,12.281252 -17.15625,21.656252 -5.90625,9.28125 -5.90625,16.875 0,9.46875 4.6875,33.1875 4.6875,23.71875 4.6875,36.46875 v 3.75 q 0,1.96875 -0.09375,3.84375 l -0.65625,1.21875 q -5.90625,4.125 -12.375,7.03125 -6.375,2.8125 -13.21875,4.96875 z"
         id="path11840"
         inkscape:connector-curvature="0" />
    </g>
  </g>
</svg>
