<?xml version="1.0" encoding="UTF-8" standalone="no"?>
<!-- Created with Inkscape (http://www.inkscape.org/) -->

<svg
   xmlns:dc="http://purl.org/dc/elements/1.1/"
   xmlns:cc="http://creativecommons.org/ns#"
   xmlns:rdf="http://www.w3.org/1999/02/22-rdf-syntax-ns#"
   xmlns:svg="http://www.w3.org/2000/svg"
   xmlns="http://www.w3.org/2000/svg"
   xmlns:sodipodi="http://sodipodi.sourceforge.net/DTD/sodipodi-0.dtd"
   xmlns:inkscape="http://www.inkscape.org/namespaces/inkscape"
   width="19.42207mm"
   height="31.898827mm"
   viewBox="0 0 19.42207 31.898827"
   version="1.1"
   id="svg12411"
   inkscape:version="0.92.4 (5da689c313, 2019-01-14)"
   sodipodi:docname="D58.svg">
  <defs
     id="defs12405" />
  <sodipodi:namedview
     id="base"
     pagecolor="#ffffff"
     bordercolor="#666666"
     borderopacity="1.0"
     inkscape:pageopacity="0.0"
     inkscape:pageshadow="2"
     inkscape:zoom="0.35"
     inkscape:cx="-346.11523"
     inkscape:cy="-360.28782"
     inkscape:document-units="mm"
     inkscape:current-layer="layer1"
     showgrid="false"
     fit-margin-top="0"
     fit-margin-left="0"
     fit-margin-right="0"
     fit-margin-bottom="0"
     inkscape:window-width="1920"
     inkscape:window-height="1017"
     inkscape:window-x="-8"
     inkscape:window-y="-8"
     inkscape:window-maximized="1" />
  <metadata
     id="metadata12408">
    <rdf:RDF>
      <cc:Work
         rdf:about="">
        <dc:format>image/svg+xml</dc:format>
        <dc:type
           rdf:resource="http://purl.org/dc/dcmitype/StillImage" />
        <dc:title></dc:title>
      </cc:Work>
    </rdf:RDF>
  </metadata>
  <g
     inkscape:label="Layer 1"
     inkscape:groupmode="layer"
     id="layer1"
     transform="translate(-4.2638223,-21.608355)">
    <g
       aria-label="𓃀"
       transform="scale(0.26458333)"
       style="font-style:normal;font-variant:normal;font-weight:normal;font-stretch:normal;font-size:192px;line-height:1.25;font-family:sans-serif;-inkscape-font-specification:sans-serif;font-variant-ligatures:normal;font-variant-caps:normal;font-variant-numeric:normal;font-feature-settings:normal;text-align:start;letter-spacing:0px;word-spacing:0px;writing-mode:lr-tb;text-anchor:start;fill:#000000;fill-opacity:1;stroke:none"
       id="flowRoot12956">
      <path
         d="m 70.865234,81.669374 h 16.59375 l 1.59375,1.5 -0.9375,27.374996 q -0.1875,6.84375 -0.375,13.6875 -0.09375,6.84375 -0.09375,13.78125 0,8.4375 0.28125,16.3125 0.28125,7.875 0.65625,15 0.375,7.125 0.65625,13.3125 0.28125,6.1875 0.28125,11.25 0,5.25 -3.5625,6.84375 -2.90625,1.3125 -4.21875,1.3125 -1.03125,0 -3.09375,-0.65625 -1.96875,-0.5625 -6,-1.5 -7.5,-1.6875 -14.625,-1.6875 -6.375,0 -15.28125,2.0625 -9,1.96875 -16.59375,1.96875 -5.34375,0 -7.6875,-1.96875 -2.34375,-1.96875 -2.34375,-4.96875 0,-2.71875 3.9375,-3.75 l 2.0625,-0.375 q 1.3125,-0.28125 3.75,-0.65625 2.4375,-0.46875 6.1875,-0.9375 3.75,-0.46875 7.78125,-1.40625 4.125,-1.03125 8.625,-2.34375 9.09375,-2.71875 13.6875,-6.75 4.78125,-4.125 7.3125,-12 2.625,-7.96875 3.375,-16.21875 0.75,-8.25 0.75,-16.5 0,-12.9375 -1.40625,-25.5 -1.40625,-12.656246 -2.71875,-25.406246 z m 1.78125,3 q 0.09375,1.03125 0.5625,5.90625 0.5625,4.875 1.5,13.687496 0.9375,8.8125 1.40625,16.3125 0.46875,7.5 0.46875,13.96875 0,17.0625 -2.71875,28.40625 -2.71875,11.25 -7.5,16.59375 -4.78125,5.25 -16.21875,8.8125 -11.34375,3.5625 -30.84375,6.5625 0,0.5625 -0.09375,0.9375 0,1.5 1.59375,2.4375 1.59375,0.84375 5.53125,0.84375 6.1875,0 16.21875,-1.96875 5.0625,-1.03125 9.09375,-1.5 4.03125,-0.5625 7.125,-0.5625 5.90625,0 11.625,1.21875 5.71875,1.21875 11.15625,2.71875 2.90625,-0.375 3.9375,-1.78125 0.9375,-1.3125 0.9375,-5.71875 -0.1875,-7.6875 -0.5625,-15.46875 l -0.84375,-19.3125 q -0.1875,-4.78125 -0.375,-9.5625 -0.09375,-4.875 -0.09375,-9.75 0,-6.75 0.09375,-13.3125 0.1875,-6.5625 0.375,-13.125 l 0.9375,-26.343746 z"
         id="path12964"
         inkscape:connector-curvature="0" />
    </g>
  </g>
</svg>
