<?xml version="1.0" encoding="UTF-8" standalone="no"?>
<!-- Created with Inkscape (http://www.inkscape.org/) -->

<svg
   xmlns:dc="http://purl.org/dc/elements/1.1/"
   xmlns:cc="http://creativecommons.org/ns#"
   xmlns:rdf="http://www.w3.org/1999/02/22-rdf-syntax-ns#"
   xmlns:svg="http://www.w3.org/2000/svg"
   xmlns="http://www.w3.org/2000/svg"
   xmlns:sodipodi="http://sodipodi.sourceforge.net/DTD/sodipodi-0.dtd"
   xmlns:inkscape="http://www.inkscape.org/namespaces/inkscape"
   width="37.281445mm"
   height="27.930079mm"
   viewBox="0 0 37.281445 27.930079"
   version="1.1"
   id="svg1958"
   inkscape:version="0.92.4 (5da689c313, 2019-01-14)"
   sodipodi:docname="D61.svg">
  <defs
     id="defs1952" />
  <sodipodi:namedview
     id="base"
     pagecolor="#ffffff"
     bordercolor="#666666"
     borderopacity="1.0"
     inkscape:pageopacity="0.0"
     inkscape:pageshadow="2"
     inkscape:zoom="0.35"
     inkscape:cx="-377.54492"
     inkscape:cy="-340.41672"
     inkscape:document-units="mm"
     inkscape:current-layer="layer1"
     showgrid="false"
     fit-margin-top="0"
     fit-margin-left="0"
     fit-margin-right="0"
     fit-margin-bottom="0"
     inkscape:window-width="1920"
     inkscape:window-height="1017"
     inkscape:window-x="-8"
     inkscape:window-y="-8"
     inkscape:window-maximized="1" />
  <metadata
     id="metadata1955">
    <rdf:RDF>
      <cc:Work
         rdf:about="">
        <dc:format>image/svg+xml</dc:format>
        <dc:type
           rdf:resource="http://purl.org/dc/dcmitype/StillImage" />
        <dc:title></dc:title>
      </cc:Work>
    </rdf:RDF>
  </metadata>
  <g
     inkscape:label="Layer 1"
     inkscape:groupmode="layer"
     id="layer1"
     transform="translate(-12.579594,-30.834666)">
    <g
       aria-label="𓃃"
       transform="scale(0.26458333)"
       style="font-style:normal;font-variant:normal;font-weight:normal;font-stretch:normal;font-size:192px;line-height:1.25;font-family:sans-serif;-inkscape-font-specification:'sans-serif, Normal';font-variant-ligatures:normal;font-variant-caps:normal;font-variant-numeric:normal;font-feature-settings:normal;text-align:start;letter-spacing:0px;word-spacing:0px;writing-mode:lr-tb;text-anchor:start;fill:#000000;fill-opacity:1;stroke:none"
       id="flowRoot2506">
      <path
         d="m 169.79492,200.16547 -1.59375,1.5 h -10.5 v 4.59375 l -1.59375,1.5 h -12.1875 l -1.40625,-1.78125 v -4.3125 h -25.875 v 4.59375 l -1.59375,1.5 h -12.1875 l -1.40625,-1.78125 v -4.3125 H 75.576172 v 4.59375 l -1.59375,1.5 h -12.1875 l -1.40625,-1.78125 v -4.3125 h -4.6875 l -1.40625,-1.78125 v -11.625 l 1.40625,-1.78125 h 4.6875 v -48.75 q -1.03125,3.75 -2.8125,6.5625 -1.78125,2.8125 -4.5,2.8125 -5.53125,0 -5.53125,-5.53125 0,-2.8125 2.53125,-5.90625 2.625,-3.09375 10.3125,-7.59375 v -9.75 l 1.40625,-1.78125 h 12.1875 l 1.59375,1.5 v 68.4375 h 25.874998 v -48.75 q -1.03125,3.75 -2.812498,6.5625 -1.78125,2.8125 -4.5,2.8125 -5.53125,0 -5.53125,-5.53125 0,-2.8125 2.53125,-5.90625 2.625,-3.09375 10.312498,-7.59375 v -9.75 l 1.40625,-1.78125 h 12.1875 l 1.59375,1.5 v 68.4375 h 25.875 v -48.75 q -1.03125,3.75 -2.8125,6.5625 -1.78125,2.8125 -4.5,2.8125 -5.53125,0 -5.53125,-5.53125 0,-2.8125 2.53125,-5.90625 2.625,-3.09375 10.3125,-7.59375 v -9.75 l 1.40625,-1.78125 h 12.1875 l 1.59375,1.5 v 68.4375 h 10.5 l 1.59375,1.5 v 4.5 q 3.84375,2.25 11.25,11.0625 7.40625,8.71875 7.40625,14.15625 0,2.0625 -1.78125,3.1875 -1.78125,1.21875 -3.65625,1.21875 -3.9375,0 -7.03125,-5.34375 -3,-5.25 -3,-11.34375 0,-0.75 0.0937,-1.40625 0.0937,-0.65625 0.0937,-1.5 0,-1.78125 -1.03125,-3.1875 -0.9375,-1.5 -2.34375,-2.625 z m -3,-10.6875 H 57.294922 v 9.1875 H 166.79492 Z m -103.406248,-3 h 9.1875 v -66.9375 h -9.1875 z m 41.062498,0 h 9.1875 v -66.9375 h -9.1875 z m 41.0625,0 h 9.1875 v -66.9375 h -9.1875 z m 37.3125,32.34375 q 2.625,-0.46875 2.625,-2.4375 0,-2.25 -3,-6.375 -2.90625,-4.03125 -4.96875,-5.34375 -1.96875,0 -1.96875,2.25 0,2.53125 2.53125,7.21875 2.625,4.6875 4.78125,4.6875 z m -42.375,-86.53125 q -3.5625,2.34375 -5.71875,4.78125 -2.0625,2.34375 -2.0625,4.125 0,2.90625 2.15625,2.90625 2.25,0 3.9375,-4.6875 1.6875,-4.6875 1.6875,-7.125 z m -82.124998,0 q -3.5625,2.34375 -5.71875,4.78125 -2.0625,2.34375 -2.0625,4.125 0,2.90625 2.15625,2.90625 2.25,0 3.9375,-4.6875 1.6875,-4.6875 1.6875,-7.125 z m 41.0625,0 q -3.5625,2.34375 -5.71875,4.78125 -2.0625,2.34375 -2.0625,4.125 0,2.90625 2.15625,2.90625 2.25,0 3.9375,-4.6875 1.6875,-4.6875 1.6875,-7.125 z m 14.249998,72.46875 v -3.09375 h -9.1875 v 3.09375 z m -41.062498,0 v -3.09375 h -9.1875 v 3.09375 z m 82.124998,0 v -3.09375 h -9.1875 v 3.09375 z"
         id="path2514"
         inkscape:connector-curvature="0" />
    </g>
  </g>
</svg>
