<?xml version="1.0" encoding="UTF-8" standalone="no"?>
<!-- Created with Inkscape (http://www.inkscape.org/) -->

<svg
   xmlns:dc="http://purl.org/dc/elements/1.1/"
   xmlns:cc="http://creativecommons.org/ns#"
   xmlns:rdf="http://www.w3.org/1999/02/22-rdf-syntax-ns#"
   xmlns:svg="http://www.w3.org/2000/svg"
   xmlns="http://www.w3.org/2000/svg"
   xmlns:sodipodi="http://sodipodi.sourceforge.net/DTD/sodipodi-0.dtd"
   xmlns:inkscape="http://www.inkscape.org/namespaces/inkscape"
   width="35.495533mm"
   height="27.930079mm"
   viewBox="0 0 35.495533 27.930079"
   version="1.1"
   id="svg2523"
   inkscape:version="0.92.4 (5da689c313, 2019-01-14)"
   sodipodi:docname="D62.svg">
  <defs
     id="defs2517" />
  <sodipodi:namedview
     id="base"
     pagecolor="#ffffff"
     bordercolor="#666666"
     borderopacity="1.0"
     inkscape:pageopacity="0.0"
     inkscape:pageshadow="2"
     inkscape:zoom="0.35"
     inkscape:cx="-488.97256"
     inkscape:cy="-260.41672"
     inkscape:document-units="mm"
     inkscape:current-layer="layer1"
     showgrid="false"
     fit-margin-top="0"
     fit-margin-left="0"
     fit-margin-right="0"
     fit-margin-bottom="0"
     inkscape:window-width="1920"
     inkscape:window-height="1017"
     inkscape:window-x="-8"
     inkscape:window-y="-8"
     inkscape:window-maximized="1" />
  <metadata
     id="metadata2520">
    <rdf:RDF>
      <cc:Work
         rdf:about="">
        <dc:format>image/svg+xml</dc:format>
        <dc:type
           rdf:resource="http://purl.org/dc/dcmitype/StillImage" />
        <dc:title></dc:title>
      </cc:Work>
    </rdf:RDF>
  </metadata>
  <g
     inkscape:label="Layer 1"
     inkscape:groupmode="layer"
     id="layer1"
     transform="translate(-42.061489,-52.001332)">
    <g
       aria-label="𓃄"
       transform="scale(0.26458333)"
       style="font-style:normal;font-variant:normal;font-weight:normal;font-stretch:normal;font-size:192px;line-height:1.25;font-family:sans-serif;-inkscape-font-specification:'sans-serif, Normal';font-variant-ligatures:normal;font-variant-caps:normal;font-variant-numeric:normal;font-feature-settings:normal;text-align:start;letter-spacing:0px;word-spacing:0px;writing-mode:lr-tb;text-anchor:start;fill:#000000;fill-opacity:1;stroke:none"
       id="flowRoot3071">
      <path
         d="m 158.97266,267.97797 1.59375,-1.5 h 4.5 v -68.4375 l 1.59375,-1.5 h 12.1875 l 1.40625,1.78125 v 9.75 q 7.6875,4.5 10.21875,7.59375 2.625,3.09375 2.625,5.90625 0,5.53125 -5.53125,5.53125 -2.71875,0 -4.5,-2.8125 -1.78125,-2.8125 -2.8125,-6.5625 v 48.75 h 25.875 v -68.4375 l 1.59375,-1.5 h 12.1875 l 1.40625,1.78125 v 9.75 q 7.6875,4.5 10.21875,7.59375 2.625,3.09375 2.625,5.90625 0,5.53125 -5.53125,5.53125 -2.71875,0 -4.5,-2.8125 -1.78125,-2.8125 -2.8125,-6.5625 v 48.75 h 25.875 v -68.4375 l 1.59375,-1.5 h 12.1875 l 1.40625,1.78125 v 9.75 q 7.6875,4.5 10.21875,7.59375 2.625,3.09375 2.625,5.90625 0,5.53125 -5.53125,5.53125 -2.71875,0 -4.5,-2.8125 -1.78125,-2.8125 -2.8125,-6.5625 v 48.75 h 10.6875 l 1.40625,1.78125 v 4.21875 q 3.84375,2.25 11.25,11.0625 7.40625,8.71875 7.40625,14.15625 0,2.0625 -1.78125,3.1875 -1.78125,1.21875 -3.65625,1.21875 -3.9375,0 -7.03125,-5.34375 -3,-5.25 -3,-11.34375 0,-0.75 0.0937,-1.40625 0.0937,-0.65625 0.0937,-1.5 0,-1.78125 -1.03125,-3.1875 -0.9375,-1.5 -2.34375,-2.625 v 3.1875 l -1.40625,1.78125 h -10.6875 v 4.3125 l -1.40625,1.78125 h -12.1875 l -0.75,-0.75 q -0.375,-0.375 -0.84375,-0.75 v -4.59375 h -25.875 v 4.3125 l -1.40625,1.78125 h -12.1875 l -0.75,-0.75 q -0.375,-0.375 -0.84375,-0.75 v -4.59375 h -25.875 v 4.3125 l -1.40625,1.78125 h -12.1875 l -0.75,-0.75 q -0.375,-0.375 -0.84375,-0.75 v -4.59375 h -4.5 l -1.59375,-1.5 z m 3,10.6875 h 109.5 v -9.1875 h -109.5 z m 56.34375,-79.125 h -9.1875 v 66.9375 h 9.1875 z m -41.0625,0 h -9.1875 v 66.9375 h 9.1875 z m 82.125,0 h -9.1875 v 66.9375 h 9.1875 z m 28.125,99.28125 q 2.625,-0.46875 2.625,-2.4375 0,-2.25 -3,-6.375 -2.90625,-4.03125 -4.96875,-5.34375 -1.96875,0 -1.96875,2.25 0,2.53125 2.53125,7.21875 2.625,4.6875 4.78125,4.6875 z m -105.1875,-86.53125 q 0,2.4375 1.6875,7.125 1.6875,4.6875 3.9375,4.6875 2.15625,0 2.15625,-2.90625 0,-1.78125 -2.15625,-4.125 -2.0625,-2.4375 -5.625,-4.78125 z m 41.0625,0 q 0,2.4375 1.6875,7.125 1.6875,4.6875 3.9375,4.6875 2.15625,0 2.15625,-2.90625 0,-1.78125 -2.15625,-4.125 -2.0625,-2.4375 -5.625,-4.78125 z m 41.0625,0 q 0,2.4375 1.6875,7.125 1.6875,4.6875 3.9375,4.6875 2.15625,0 2.15625,-2.90625 0,-1.78125 -2.15625,-4.125 -2.0625,-2.4375 -5.625,-4.78125 z m -5.0625,72.46875 v -3.09375 h -9.1875 v 3.09375 z m -82.125,0 v -3.09375 h -9.1875 v 3.09375 z m 41.0625,0 v -3.09375 h -9.1875 v 3.09375 z"
         id="path3079"
         inkscape:connector-curvature="0" />
    </g>
  </g>
</svg>
