<?xml version="1.0" encoding="UTF-8" standalone="no"?>
<!-- Created with Inkscape (http://www.inkscape.org/) -->

<svg
   xmlns:dc="http://purl.org/dc/elements/1.1/"
   xmlns:cc="http://creativecommons.org/ns#"
   xmlns:rdf="http://www.w3.org/1999/02/22-rdf-syntax-ns#"
   xmlns:svg="http://www.w3.org/2000/svg"
   xmlns="http://www.w3.org/2000/svg"
   xmlns:sodipodi="http://sodipodi.sourceforge.net/DTD/sodipodi-0.dtd"
   xmlns:inkscape="http://www.inkscape.org/namespaces/inkscape"
   width="23.688477mm"
   height="23.415625mm"
   viewBox="0 0 23.688477 23.415625"
   version="1.1"
   id="svg3088"
   inkscape:version="0.92.4 (5da689c313, 2019-01-14)"
   sodipodi:docname="D63.svg">
  <defs
     id="defs3082" />
  <sodipodi:namedview
     id="base"
     pagecolor="#ffffff"
     bordercolor="#666666"
     borderopacity="1.0"
     inkscape:pageopacity="0.0"
     inkscape:pageshadow="2"
     inkscape:zoom="0.35"
     inkscape:cx="-414.6875"
     inkscape:cy="-363.19407"
     inkscape:document-units="mm"
     inkscape:current-layer="layer1"
     showgrid="false"
     fit-margin-top="0"
     fit-margin-left="0"
     fit-margin-right="0"
     fit-margin-bottom="0"
     inkscape:window-width="1920"
     inkscape:window-height="1017"
     inkscape:window-x="-8"
     inkscape:window-y="-8"
     inkscape:window-maximized="1" />
  <metadata
     id="metadata3085">
    <rdf:RDF>
      <cc:Work
         rdf:about="">
        <dc:format>image/svg+xml</dc:format>
        <dc:type
           rdf:resource="http://purl.org/dc/dcmitype/StillImage" />
        <dc:title></dc:title>
      </cc:Work>
    </rdf:RDF>
  </metadata>
  <g
     inkscape:label="Layer 1"
     inkscape:groupmode="layer"
     id="layer1"
     transform="translate(-22.406901,-29.322612)">
    <g
       aria-label="𓃅"
       transform="scale(0.26458333)"
       style="font-style:normal;font-variant:normal;font-weight:normal;font-stretch:normal;font-size:192px;line-height:1.25;font-family:sans-serif;-inkscape-font-specification:'sans-serif, Normal';font-variant-ligatures:normal;font-variant-caps:normal;font-variant-numeric:normal;font-feature-settings:normal;text-align:start;letter-spacing:0px;word-spacing:0px;writing-mode:lr-tb;text-anchor:start;fill:#000000;fill-opacity:1;stroke:none"
       id="flowRoot3636">
      <path
         d="m 146,127.41937 -25.6875,-3 v -9.09375 l 28.6875,-4.5 v 65.8125 h 11.34375 q 5.34375,0 9.5625,4.5 4.3125,4.5 4.3125,10.78125 0,3 -1.3125,4.59375 -1.3125,1.5 -4.03125,2.8125 -4.40625,0 -6.84375,-5.0625 -2.4375,-5.0625 -2.4375,-14.625 h -74.0625 v -3 H 110.375 v -49.21875 l -25.6875,-3 v -9.09375 l 28.6875,-4.5 v 65.8125 H 146 Z m 16.96875,53.15625 q -0.375,1.21875 -0.375,4.78125 0,4.96875 1.96875,7.96875 2.0625,3 4.5,3 0.46875,0 1.3125,-0.84375 0.84375,-0.84375 0.84375,-2.53125 0,-4.875 -2.4375,-8.625 -2.4375,-3.75 -5.8125,-3.75 z M 146,124.32562 v -9.46875 l -22.6875,3.09375 v 3.84375 z m -35.625,0 v -9.46875 l -22.6875,3.09375 v 3.84375 z"
         id="path3644"
         inkscape:connector-curvature="0" />
    </g>
  </g>
</svg>
