<?xml version="1.0" encoding="UTF-8" standalone="no"?>
<svg
   xmlns:dc="http://purl.org/dc/elements/1.1/"
   xmlns:cc="http://creativecommons.org/ns#"
   xmlns:rdf="http://www.w3.org/1999/02/22-rdf-syntax-ns#"
   xmlns:svg="http://www.w3.org/2000/svg"
   xmlns="http://www.w3.org/2000/svg"
   xmlns:sodipodi="http://sodipodi.sourceforge.net/DTD/sodipodi-0.dtd"
   xmlns:inkscape="http://www.inkscape.org/namespaces/inkscape"
   version="1.0"
   width="345.81799pt"
   height="249.83107pt"
   viewBox="0 0 345.81799 249.83107"
   preserveAspectRatio="xMidYMid meet"
   id="svg10"
   sodipodi:docname="D65.svg"
   inkscape:version="0.92.4 (5da689c313, 2019-01-14)">
  <defs
     id="defs14" />
  <sodipodi:namedview
     pagecolor="#ffffff"
     bordercolor="#666666"
     borderopacity="1"
     objecttolerance="10"
     gridtolerance="10"
     guidetolerance="10"
     inkscape:pageopacity="0"
     inkscape:pageshadow="2"
     inkscape:window-width="1920"
     inkscape:window-height="1017"
     id="namedview12"
     showgrid="false"
     fit-margin-top="0"
     fit-margin-left="0"
     fit-margin-right="0"
     fit-margin-bottom="0"
     inkscape:zoom="0.58789063"
     inkscape:cx="11.658106"
     inkscape:cy="173.95009"
     inkscape:window-x="-8"
     inkscape:window-y="-8"
     inkscape:window-maximized="1"
     inkscape:current-layer="svg10" />
  <metadata
     id="metadata2">
Created by potrace 1.10, written by Peter Selinger 2001-2011
<rdf:RDF>
  <cc:Work
     rdf:about="">
    <dc:format>image/svg+xml</dc:format>
    <dc:type
       rdf:resource="http://purl.org/dc/dcmitype/StillImage" />
    <dc:title></dc:title>
  </cc:Work>
</rdf:RDF>
</metadata>
  <g
     transform="matrix(0.1,0,0,-0.1,-13.582002,267.86851)"
     id="g8"
     style="fill:#000000;stroke:none">
    <path
       d="m 3340,2662 c -50,-24 -62,-54 -56,-134 5,-68 -3,-89 -27,-70 -20,15 -72,-14 -95,-52 -35,-60 -48,-144 -32,-213 7,-32 20,-71 28,-87 16,-32 17,-68 13,-404 -2,-127 -6,-234 -10,-237 -4,-2 -36,0 -72,5 -98,14 -306,31 -490,39 -146,6 -167,9 -185,27 -61,61 -69,106 -26,153 27,30 77,122 103,191 22,58 23,233 3,291 -29,80 -151,199 -229,222 -11,3 -54,17 -95,31 -129,45 -307,34 -411,-25 -66,-38 -179,-195 -179,-250 0,-9 -25,-66 -55,-125 -34,-68 -55,-122 -55,-142 0,-55 29,-137 60,-172 28,-31 97,-70 125,-70 16,0 95,-36 116,-52 28,-23 41,-56 29,-78 -12,-23 -18,-24 -165,-40 -125,-13 -171,-35 -208,-98 -40,-67 -48,-134 -56,-444 -5,-224 -10,-300 -21,-313 -11,-13 -28,-15 -111,-9 -56,4 -172,1 -273,-6 -154,-12 -180,-11 -213,2 -130,52 -208,60 -301,31 -64,-20 -99,-58 -108,-114 -5,-32 -10,-39 -23,-33 -9,4 -37,9 -63,12 -42,3 -50,0 -85,-31 -36,-34 -38,-38 -37,-97 1,-71 14,-89 99,-135 132,-73 277,-73 416,1 30,15 62,35 73,44 22,19 215,17 546,-5 304,-21 300,-21 351,17 48,37 64,80 78,208 5,41 14,111 20,155 29,202 41,295 47,358 3,39 12,73 21,82 12,13 117,15 797,15 865,0 820,-3 886,65 l 35,36 -3,192 c -2,106 -9,288 -17,405 l -13,213 61,122 61,122 -1,97 c 0,62 -6,106 -15,125 -8,15 -23,46 -33,68 -25,53 -63,94 -104,111 -42,18 -58,17 -101,-4 z m 122,-172 c 56,-113 52,-144 -40,-325 l -45,-90 2,-180 c 1,-99 8,-259 16,-355 21,-248 20,-285 -7,-304 -20,-14 -117,-16 -845,-16 h -822 l -21,-31 c -16,-22 -24,-53 -30,-117 -9,-96 -24,-208 -46,-352 -8,-52 -14,-111 -14,-130 0,-19 -7,-72 -16,-117 -23,-117 -25,-117 -212,-104 -196,14 -468,26 -567,25 -85,-1 -89,-2 -205,-65 -72,-40 -78,-41 -160,-40 -95,1 -168,22 -202,58 -20,22 -21,25 -6,40 15,14 23,14 61,4 54,-15 178,-10 229,11 57,22 88,56 88,95 0,39 12,41 81,18 37,-13 104,-15 399,-13 l 355,3 7,210 c 4,116 12,257 17,315 6,58 11,135 11,172 0,132 36,162 208,172 112,7 152,22 186,72 30,45 32,77 10,136 -17,46 -86,118 -113,118 -9,0 -25,7 -35,15 -11,8 -28,15 -38,15 -24,0 -76,26 -105,53 -19,17 -23,31 -23,77 0,34 6,64 15,76 8,10 15,26 15,35 0,9 7,22 15,29 8,7 15,20 15,29 1,9 11,28 23,42 18,21 34,28 82,32 124,13 362,-30 398,-71 10,-11 16,-47 19,-108 3,-65 10,-101 24,-130 12,-21 29,-70 39,-109 10,-38 26,-88 36,-110 24,-51 105,-155 122,-155 83,-1 559,-30 566,-34 14,-9 263,-28 288,-21 35,9 45,57 33,171 -11,102 -6,298 10,415 8,51 7,75 -4,100 -20,50 -30,129 -16,129 7,0 27,7 46,16 26,12 42,31 61,73 29,60 32,99 18,229 l -8,74 24,-4 c 19,-2 32,-20 61,-78 z M 2076,2345 c 77,-15 97,-22 178,-61 63,-30 129,-103 146,-160 18,-62 17,-102 -4,-187 -59,-237 -139,-228 -148,16 -6,145 -1,140 -213,210 -36,13 -85,17 -177,17 -127,0 -128,0 -128,23 0,34 82,114 128,126 143,36 123,34 218,16 z"
       id="path4"
       inkscape:connector-curvature="0" />
    <path
       d="m 1748,1998 c -17,-13 -21,-27 -19,-64 1,-24 33,-37 69,-27 18,4 22,12 22,48 0,36 -4,44 -22,49 -31,8 -32,8 -50,-6 z"
       id="path6"
       inkscape:connector-curvature="0" />
  </g>
</svg>
