<?xml version="1.0" encoding="UTF-8" standalone="no"?>
<svg
   xmlns:dc="http://purl.org/dc/elements/1.1/"
   xmlns:cc="http://creativecommons.org/ns#"
   xmlns:rdf="http://www.w3.org/1999/02/22-rdf-syntax-ns#"
   xmlns:svg="http://www.w3.org/2000/svg"
   xmlns="http://www.w3.org/2000/svg"
   xmlns:sodipodi="http://sodipodi.sourceforge.net/DTD/sodipodi-0.dtd"
   xmlns:inkscape="http://www.inkscape.org/namespaces/inkscape"
   version="1.0"
   width="207.5pt"
   height="392.39188pt"
   viewBox="0 0 207.5 392.39188"
   preserveAspectRatio="xMidYMid meet"
   id="svg8"
   sodipodi:docname="D66.svg"
   inkscape:version="0.92.4 (5da689c313, 2019-01-14)">
  <defs
     id="defs12" />
  <sodipodi:namedview
     pagecolor="#ffffff"
     bordercolor="#666666"
     borderopacity="1"
     objecttolerance="10"
     gridtolerance="10"
     guidetolerance="10"
     inkscape:pageopacity="0"
     inkscape:pageshadow="2"
     inkscape:window-width="1920"
     inkscape:window-height="1017"
     id="namedview10"
     showgrid="false"
     fit-margin-top="0"
     fit-margin-left="0"
     fit-margin-right="0"
     fit-margin-bottom="0"
     inkscape:zoom="0.38815789"
     inkscape:cx="-201.31073"
     inkscape:cy="284"
     inkscape:window-x="-8"
     inkscape:window-y="-8"
     inkscape:window-maximized="1"
     inkscape:current-layer="svg8" />
  <metadata
     id="metadata2">
Created by potrace 1.10, written by Peter Selinger 2001-2011
<rdf:RDF>
  <cc:Work
     rdf:about="">
    <dc:format>image/svg+xml</dc:format>
    <dc:type
       rdf:resource="http://purl.org/dc/dcmitype/StillImage" />
    <dc:title></dc:title>
  </cc:Work>
</rdf:RDF>
</metadata>
  <g
     transform="matrix(0.1,0,0,-0.1,-17,407.39188)"
     id="g6"
     style="fill:#000000;stroke:none">
    <path
       d="m 1186,4072 c -11,-2 -73,-45 -138,-94 -200,-150 -252,-238 -293,-488 -20,-123 -48,-251 -66,-300 -14,-37 -124,-210 -156,-245 -10,-11 -36,-42 -58,-70 -22,-27 -46,-57 -55,-66 -52,-55 -79,-92 -99,-136 -5,-11 -15,-24 -20,-28 -7,-4 -11,-45 -11,-102 0,-113 13,-141 90,-198 48,-35 130,-58 170,-48 21,6 31,-9 54,-74 29,-86 26,-140 -12,-194 -35,-52 -38,-72 -17,-109 17,-30 19,-76 4,-119 -15,-42 -6,-70 37,-122 39,-47 40,-57 9,-139 -13,-35 -15,-62 -10,-126 5,-66 4,-83 -9,-93 -9,-8 -16,-17 -16,-22 0,-4 -19,-36 -42,-71 -24,-35 -47,-71 -53,-80 -5,-9 -30,-49 -55,-88 -25,-39 -50,-79 -55,-88 -11,-18 -37,-59 -110,-172 -23,-36 -52,-86 -64,-112 -13,-27 -27,-50 -32,-54 -5,-3 -9,-18 -9,-35 0,-34 84,-129 116,-129 10,0 28,-7 38,-15 11,-8 28,-15 39,-15 10,0 31,-6 45,-14 54,-27 98,-39 157,-43 56,-4 62,-2 86,24 14,15 34,55 44,88 10,33 25,83 33,110 8,28 20,66 27,85 7,19 20,62 30,95 9,33 23,76 30,95 29,81 37,107 45,135 17,60 38,109 48,113 6,2 37,-4 70,-12 33,-9 75,-16 93,-16 74,0 283,-64 409,-124 109,-53 149,-84 275,-211 129,-131 156,-171 255,-375 28,-58 57,-118 65,-133 8,-16 15,-35 15,-42 0,-20 58,-65 83,-65 40,1 72,34 72,78 0,44 -17,87 -87,227 -59,119 -65,129 -100,176 -16,20 -28,40 -28,44 0,3 -21,34 -47,68 -150,197 -267,301 -432,383 -64,32 -132,61 -151,65 -19,4 -66,17 -105,29 -38,11 -98,25 -131,30 -34,5 -74,14 -88,20 -15,5 -39,10 -54,10 -35,0 -139,33 -154,48 -7,7 -17,12 -23,12 -6,0 -25,15 -43,33 -37,38 -42,86 -17,157 8,23 15,69 15,102 0,50 -5,67 -30,105 -17,24 -28,49 -25,54 4,5 39,9 78,9 74,1 95,9 115,46 28,53 -30,97 -121,94 -29,-2 -58,-2 -64,-1 -18,1 -16,36 1,51 8,6 20,35 26,63 10,43 9,66 -4,132 -27,127 -29,119 30,116 76,-4 204,54 204,92 0,6 7,19 16,28 15,17 15,20 0,43 -9,14 -25,30 -37,36 -21,12 -28,8 -82,-44 -17,-16 -28,-18 -86,-11 -36,4 -125,10 -197,14 -137,6 -185,22 -183,59 1,43 152,265 273,402 17,19 46,64 64,100 18,36 37,72 41,80 17,30 65,201 85,300 42,207 50,241 63,251 7,6 13,16 13,21 0,11 48,74 91,122 15,16 57,50 95,75 92,63 125,127 89,178 -16,23 -40,31 -69,25 z M 727,1151 c -9,-16 -17,-38 -17,-50 0,-11 -6,-35 -14,-53 -8,-18 -22,-60 -31,-93 -10,-33 -24,-75 -31,-93 -8,-18 -14,-41 -14,-52 0,-11 -6,-34 -14,-52 -7,-18 -21,-60 -31,-93 -35,-123 -40,-127 -111,-96 -25,12 -54,21 -63,21 -21,0 -41,19 -41,39 0,8 11,29 25,47 14,18 25,35 25,38 0,3 20,35 45,72 25,36 45,67 45,69 0,2 19,32 43,67 24,35 46,70 50,78 11,22 27,47 81,128 35,52 52,70 59,63 8,-8 6,-19 -6,-40 z"
       id="path4"
       inkscape:connector-curvature="0" />
  </g>
</svg>
