<?xml version="1.0" encoding="UTF-8" standalone="no"?>
<svg
   xmlns:dc="http://purl.org/dc/elements/1.1/"
   xmlns:cc="http://creativecommons.org/ns#"
   xmlns:rdf="http://www.w3.org/1999/02/22-rdf-syntax-ns#"
   xmlns:svg="http://www.w3.org/2000/svg"
   xmlns="http://www.w3.org/2000/svg"
   xmlns:sodipodi="http://sodipodi.sourceforge.net/DTD/sodipodi-0.dtd"
   xmlns:inkscape="http://www.inkscape.org/namespaces/inkscape"
   version="1.0"
   width="250.03564pt"
   height="296.92722pt"
   viewBox="0 0 250.03564 296.92722"
   preserveAspectRatio="xMidYMid meet"
   id="svg10"
   sodipodi:docname="D67.svg"
   inkscape:version="0.92.4 (5da689c313, 2019-01-14)">
  <defs
     id="defs14" />
  <sodipodi:namedview
     pagecolor="#ffffff"
     bordercolor="#666666"
     borderopacity="1"
     objecttolerance="10"
     gridtolerance="10"
     guidetolerance="10"
     inkscape:pageopacity="0"
     inkscape:pageshadow="2"
     inkscape:window-width="1920"
     inkscape:window-height="1017"
     id="namedview12"
     showgrid="false"
     fit-margin-top="0"
     fit-margin-left="0"
     fit-margin-right="0"
     fit-margin-bottom="0"
     inkscape:zoom="0.52678571"
     inkscape:cx="-91.864974"
     inkscape:cy="201.33333"
     inkscape:window-x="-8"
     inkscape:window-y="-8"
     inkscape:window-maximized="1"
     inkscape:current-layer="svg10" />
  <metadata
     id="metadata2">
Created by potrace 1.10, written by Peter Selinger 2001-2011
<rdf:RDF>
  <cc:Work
     rdf:about="">
    <dc:format>image/svg+xml</dc:format>
    <dc:type
       rdf:resource="http://purl.org/dc/dcmitype/StillImage" />
    <dc:title></dc:title>
  </cc:Work>
</rdf:RDF>
</metadata>
  <g
     transform="matrix(0.1,0,0,-0.1,-25.042798,313.92722)"
     id="g8"
     style="fill:#000000;stroke:none">
    <path
       d="m 1800,3123 c -19,-9 -45,-20 -56,-25 -43,-20 -95,-82 -135,-162 -22,-44 -48,-94 -59,-111 -46,-73 -60,-112 -60,-166 0,-73 16,-124 47,-153 29,-27 144,-86 167,-86 8,0 27,-10 42,-23 34,-30 27,-67 -14,-67 -69,0 -263,-75 -505,-196 -49,-24 -98,-44 -110,-44 -13,1 -54,31 -102,76 -44,42 -110,99 -146,128 -210,164 -219,173 -219,220 0,43 -39,104 -81,128 -36,20 -39,25 -39,64 0,47 -38,104 -69,104 -26,0 -59,-41 -69,-85 -7,-34 -12,-40 -51,-53 -54,-18 -80,-68 -81,-155 0,-50 5,-66 34,-110 19,-29 48,-60 65,-70 l 31,-18 V 1447 574 l -50,-37 c -74,-55 -82,-73 -88,-187 -7,-144 8,-180 73,-180 52,0 65,27 65,132 0,114 11,138 63,138 63,0 76,-25 77,-141 0,-105 11,-129 62,-129 49,0 58,25 58,156 0,136 -9,161 -79,210 l -41,29 v 818 c 0,449 3,817 8,817 4,0 70,-61 147,-136 258,-251 305,-289 378,-313 53,-18 108,-4 262,64 54,25 140,59 195,80 67,24 125,47 158,61 18,8 43,14 55,14 12,1 33,7 47,15 19,11 72,14 236,15 232,0 239,-2 254,-60 8,-33 14,-52 45,-140 27,-75 47,-126 61,-153 17,-34 18,-83 3,-92 -5,-4 -15,-17 -20,-28 -5,-12 -18,-35 -28,-52 -11,-16 -32,-52 -47,-80 -49,-89 -55,-100 -74,-130 -11,-16 -24,-39 -30,-50 -6,-11 -19,-33 -30,-50 -11,-16 -24,-39 -29,-51 -5,-12 -34,-48 -63,-80 -114,-125 -123,-141 -123,-216 0,-66 2,-70 33,-94 31,-25 32,-27 18,-49 -9,-13 -18,-41 -22,-63 -5,-35 -3,-41 25,-65 71,-59 150,-46 238,41 86,83 109,138 122,284 l 8,94 106,142 c 59,78 107,144 107,148 0,3 14,23 30,44 17,21 30,41 30,45 0,3 19,32 43,63 82,111 92,151 63,256 -23,82 -37,138 -45,181 -4,22 -12,56 -18,75 -16,52 -33,119 -42,168 -4,24 -13,48 -19,54 -7,7 -12,21 -12,33 0,26 -61,83 -115,110 -89,43 -144,86 -166,130 l -22,43 44,59 c 52,69 73,109 93,182 20,69 20,96 -1,162 -29,93 -111,183 -208,227 -114,53 -111,52 -253,51 -102,0 -146,-4 -172,-16 z m 235,-94 c 102,-12 154,-33 217,-89 48,-41 68,-89 68,-156 -1,-51 -21,-130 -44,-173 l -18,-34 -21,22 c -19,18 -23,35 -26,113 -3,96 -10,112 -59,137 -62,32 -124,44 -266,50 -111,4 -151,9 -154,19 -6,20 81,97 125,109 52,14 74,15 178,2 z m 20,-236 c 28,-9 56,-17 63,-19 8,-2 12,-30 12,-94 0,-87 9,-121 37,-145 7,-5 19,-48 29,-95 9,-47 23,-92 30,-101 8,-8 14,-20 14,-25 0,-11 117,-90 180,-120 71,-35 89,-67 130,-239 7,-27 16,-68 20,-90 9,-47 26,-120 46,-191 20,-71 17,-123 -9,-166 -51,-85 -256,-366 -306,-420 -56,-60 -71,-105 -71,-209 0,-105 -11,-145 -56,-198 -24,-28 -54,-42 -54,-23 0,4 14,34 30,66 38,76 38,113 0,161 -16,21 -30,39 -30,41 0,1 14,16 30,33 25,25 129,188 153,241 4,8 16,29 27,45 11,17 24,39 30,50 6,11 19,34 30,50 10,17 25,41 33,55 67,121 87,162 87,183 0,13 -12,55 -26,93 -14,38 -29,83 -34,99 -11,39 -29,91 -46,133 -8,18 -14,39 -14,47 0,34 -54,127 -79,137 -16,6 -133,8 -301,6 -272,-4 -276,-5 -345,-32 -38,-15 -81,-31 -95,-36 -14,-5 -50,-18 -80,-30 -30,-12 -66,-25 -80,-30 -14,-5 -50,-18 -80,-30 -30,-12 -68,-25 -85,-30 -30,-7 -39,-11 -122,-45 l -42,-18 -73,64 c -61,53 -117,105 -202,185 -6,6 -54,49 -106,95 -52,47 -128,117 -167,157 -40,40 -79,72 -85,72 -29,1 -66,45 -69,80 -4,70 -4,70 56,70 43,0 58,-5 75,-22 11,-12 20,-29 20,-37 1,-9 15,-45 33,-81 31,-60 44,-73 163,-163 71,-53 177,-142 236,-197 89,-84 113,-101 140,-102 22,0 76,21 158,62 69,34 141,68 160,77 19,8 49,21 65,28 88,39 175,68 224,75 71,11 119,31 151,65 21,22 25,36 25,86 0,52 -4,62 -30,88 -34,32 -136,91 -159,91 -32,0 -85,41 -91,71 -9,39 1,94 20,109 8,7 15,19 15,27 0,7 10,28 23,45 l 22,30 160,-6 c 103,-4 178,-12 210,-23 z"
       id="path4"
       inkscape:connector-curvature="0" />
    <path
       d="m 1747,2732 c -10,-10 -17,-24 -17,-30 0,-20 31,-42 60,-42 32,0 46,25 36,66 -8,30 -54,33 -79,6 z"
       id="path6"
       inkscape:connector-curvature="0" />
  </g>
</svg>
