<?xml version="1.0" encoding="UTF-8" standalone="no"?>
<!-- Created with Inkscape (http://www.inkscape.org/) -->

<svg
   xmlns:dc="http://purl.org/dc/elements/1.1/"
   xmlns:cc="http://creativecommons.org/ns#"
   xmlns:rdf="http://www.w3.org/1999/02/22-rdf-syntax-ns#"
   xmlns:svg="http://www.w3.org/2000/svg"
   xmlns="http://www.w3.org/2000/svg"
   xmlns:sodipodi="http://sodipodi.sourceforge.net/DTD/sodipodi-0.dtd"
   xmlns:inkscape="http://www.inkscape.org/namespaces/inkscape"
   width="8.2599611mm"
   height="19.47168mm"
   viewBox="0 0 8.2599611 19.47168"
   version="1.1"
   id="svg12973"
   inkscape:version="0.92.4 (5da689c313, 2019-01-14)"
   sodipodi:docname="D67A.svg">
  <defs
     id="defs12967" />
  <sodipodi:namedview
     id="base"
     pagecolor="#ffffff"
     bordercolor="#666666"
     borderopacity="1.0"
     inkscape:pageopacity="0.0"
     inkscape:pageshadow="2"
     inkscape:zoom="0.35"
     inkscape:cx="-320.40234"
     inkscape:cy="-360.38157"
     inkscape:document-units="mm"
     inkscape:current-layer="layer1"
     showgrid="false"
     fit-margin-top="0"
     fit-margin-left="0"
     fit-margin-right="0"
     fit-margin-bottom="0"
     inkscape:window-width="1920"
     inkscape:window-height="1017"
     inkscape:window-x="-8"
     inkscape:window-y="-8"
     inkscape:window-maximized="1" />
  <metadata
     id="metadata12970">
    <rdf:RDF>
      <cc:Work
         rdf:about="">
        <dc:format>image/svg+xml</dc:format>
        <dc:type
           rdf:resource="http://purl.org/dc/dcmitype/StillImage" />
        <dc:title></dc:title>
      </cc:Work>
    </rdf:RDF>
  </metadata>
  <g
     inkscape:label="Layer 1"
     inkscape:groupmode="layer"
     id="layer1"
     transform="translate(2.5393799,-34.010697)">
    <g
       aria-label="𓃊"
       transform="scale(0.26458333)"
       style="font-style:normal;font-variant:normal;font-weight:normal;font-stretch:normal;font-size:192px;line-height:1.25;font-family:sans-serif;-inkscape-font-specification:sans-serif;font-variant-ligatures:normal;font-variant-caps:normal;font-variant-numeric:normal;font-feature-settings:normal;text-align:start;letter-spacing:0px;word-spacing:0px;writing-mode:lr-tb;text-anchor:start;fill:#000000;fill-opacity:1;stroke:none"
       id="flowRoot13518">
      <path
         d="m 5.9648437,128.54437 q 6.4687503,0 11.0625003,4.59375 4.59375,4.59375 4.59375,11.0625 0,6.5625 -4.6875,11.0625 -4.6875,4.5 -10.9687503,4.5 -6.46874995,0 -11.0624999,-4.5 -4.5000001,-4.59375 -4.5000001,-11.0625 0,-6.28125 4.5000001,-10.96875 4.49999995,-4.6875 11.0624999,-4.6875 z m 0,28.21875 q 5.1562503,0 8.9062503,-3.65625 3.75,-3.65625 3.75,-8.90625 0,-5.25 -3.75,-8.90625 -3.65625,-3.75 -8.9062503,-3.75 -5.24999995,0 -8.90625,3.75 -3.6562499,3.75 -3.6562499,8.90625 0,5.25 3.6562499,8.90625 3.65625005,3.65625 8.90625,3.65625 z m 0,14.15625 q 6.4687503,0 11.0625003,4.59375 4.59375,4.59375 4.59375,11.0625 0,6.5625 -4.6875,11.0625 -4.6875,4.5 -10.9687503,4.5 -6.46874995,0 -11.0624999,-4.5 -4.5000001,-4.59375 -4.5000001,-11.0625 0,-6.28125 4.5000001,-10.96875 4.49999995,-4.6875 11.0624999,-4.6875 z m 0,28.21875 q 5.1562503,0 8.9062503,-3.65625 3.75,-3.65625 3.75,-8.90625 0,-5.25 -3.75,-8.90625 -3.65625,-3.75 -8.9062503,-3.75 -5.24999995,0 -8.90625,3.75 -3.6562499,3.75 -3.6562499,8.90625 0,5.25 3.6562499,8.90625 3.65625005,3.65625 8.90625,3.65625 z"
         id="path13526"
         inkscape:connector-curvature="0" />
    </g>
  </g>
</svg>
