<?xml version="1.0" encoding="UTF-8" standalone="no"?>
<!-- Created with Inkscape (http://www.inkscape.org/) -->

<svg
   xmlns:dc="http://purl.org/dc/elements/1.1/"
   xmlns:cc="http://creativecommons.org/ns#"
   xmlns:rdf="http://www.w3.org/1999/02/22-rdf-syntax-ns#"
   xmlns:svg="http://www.w3.org/2000/svg"
   xmlns="http://www.w3.org/2000/svg"
   xmlns:sodipodi="http://sodipodi.sourceforge.net/DTD/sodipodi-0.dtd"
   xmlns:inkscape="http://www.inkscape.org/namespaces/inkscape"
   width="19.397264mm"
   height="19.47168mm"
   viewBox="0 0 19.397264 19.47168"
   version="1.1"
   id="svg13535"
   inkscape:version="0.92.4 (5da689c313, 2019-01-14)"
   sodipodi:docname="D67B.svg">
  <defs
     id="defs13529" />
  <sodipodi:namedview
     id="base"
     pagecolor="#ffffff"
     bordercolor="#666666"
     borderopacity="1.0"
     inkscape:pageopacity="0.0"
     inkscape:pageshadow="2"
     inkscape:zoom="0.35"
     inkscape:cx="-308.97266"
     inkscape:cy="-337.52414"
     inkscape:document-units="mm"
     inkscape:current-layer="layer1"
     showgrid="false"
     fit-margin-top="0"
     fit-margin-left="0"
     fit-margin-right="0"
     fit-margin-bottom="0"
     inkscape:window-width="1920"
     inkscape:window-height="1017"
     inkscape:window-x="-8"
     inkscape:window-y="-8"
     inkscape:window-maximized="1" />
  <metadata
     id="metadata13532">
    <rdf:RDF>
      <cc:Work
         rdf:about="">
        <dc:format>image/svg+xml</dc:format>
        <dc:type
           rdf:resource="http://purl.org/dc/dcmitype/StillImage" />
        <dc:title></dc:title>
      </cc:Work>
    </rdf:RDF>
  </metadata>
  <g
     inkscape:label="Layer 1"
     inkscape:groupmode="layer"
     id="layer1"
     transform="translate(5.5634847,-40.058392)">
    <g
       aria-label="𓃋"
       transform="scale(0.26458333)"
       style="font-style:normal;font-variant:normal;font-weight:normal;font-stretch:normal;font-size:192px;line-height:1.25;font-family:sans-serif;-inkscape-font-specification:sans-serif;font-variant-ligatures:normal;font-variant-caps:normal;font-variant-numeric:normal;font-feature-settings:normal;text-align:start;letter-spacing:0px;word-spacing:0px;writing-mode:lr-tb;text-anchor:start;fill:#000000;fill-opacity:1;stroke:none"
       id="flowRoot14080">
      <path
         d="m -5.4648437,151.4018 q 6.4687499,0 11.0624999,4.59375 4.5937498,4.59375 4.5937498,11.0625 0,6.5625 -4.6874998,11.0625 -4.68749995,4.5 -10.9687499,4.5 -6.4687503,0 -11.0625003,-4.5 -4.5,-4.59375 -4.5,-11.0625 0,-6.28125 4.5,-10.96875 4.5,-4.6875 11.0625003,-4.6875 z m 0,28.21875 q 5.15624995,0 8.90625,-3.65625 3.7499999,-3.65625 3.7499999,-8.90625 0,-5.25 -3.7499999,-8.90625 -3.65625005,-3.75 -8.90625,-3.75 -5.2500003,0 -8.9062503,3.75 -3.65625,3.75 -3.65625,8.90625 0,5.25 3.65625,8.90625 3.65625,3.65625 8.9062503,3.65625 z M 15.628906,193.7768 q 6.46875,0 11.0625,4.59375 4.59375,4.59375 4.59375,11.0625 0,6.5625 -4.6875,11.0625 -4.6875,4.5 -10.96875,4.5 -6.4687497,0 -11.0624998,-4.5 -4.49999995,-4.59375 -4.49999995,-11.0625 0,-6.28125 4.49999995,-10.96875 4.5000001,-4.6875 11.0624998,-4.6875 z m 0,28.21875 q 5.15625,0 8.90625,-3.65625 3.75,-3.65625 3.75,-8.90625 0,-5.25 -3.75,-8.90625 -3.65625,-3.75 -8.90625,-3.75 -5.25,0 -8.9062498,3.75 -3.6562499,3.75 -3.6562499,8.90625 0,5.25 3.6562499,8.90625 3.6562498,3.65625 8.9062498,3.65625 z m 21,-70.59375 q 6.46875,0 11.0625,4.59375 4.59375,4.59375 4.59375,11.0625 0,6.5625 -4.6875,11.0625 -4.6875,4.5 -10.96875,4.5 -6.46875,0 -11.0625,-4.5 -4.5,-4.59375 -4.5,-11.0625 0,-6.28125 4.5,-10.96875 4.5,-4.6875 11.0625,-4.6875 z m 0,28.21875 q 5.15625,0 8.90625,-3.65625 3.75,-3.65625 3.75,-8.90625 0,-5.25 -3.75,-8.90625 -3.65625,-3.75 -8.90625,-3.75 -5.25,0 -8.90625,3.75 -3.65625,3.75 -3.65625,8.90625 0,5.25 3.65625,8.90625 3.65625,3.65625 8.90625,3.65625 z"
         id="path14088"
         inkscape:connector-curvature="0" />
    </g>
  </g>
</svg>
