<?xml version="1.0" encoding="UTF-8" standalone="no"?>
<!-- Created with Inkscape (http://www.inkscape.org/) -->

<svg
   xmlns:dc="http://purl.org/dc/elements/1.1/"
   xmlns:cc="http://creativecommons.org/ns#"
   xmlns:rdf="http://www.w3.org/1999/02/22-rdf-syntax-ns#"
   xmlns:svg="http://www.w3.org/2000/svg"
   xmlns="http://www.w3.org/2000/svg"
   xmlns:sodipodi="http://sodipodi.sourceforge.net/DTD/sodipodi-0.dtd"
   xmlns:inkscape="http://www.inkscape.org/namespaces/inkscape"
   width="37.951172mm"
   height="19.47168mm"
   viewBox="0 0 37.951172 19.47168"
   version="1.1"
   id="svg15783"
   inkscape:version="0.92.4 (5da689c313, 2019-01-14)"
   sodipodi:docname="D67F.svg">
  <defs
     id="defs15777" />
  <sodipodi:namedview
     id="base"
     pagecolor="#ffffff"
     bordercolor="#666666"
     borderopacity="1.0"
     inkscape:pageopacity="0.0"
     inkscape:pageshadow="2"
     inkscape:zoom="0.35"
     inkscape:cx="-268.97321"
     inkscape:cy="-544.12054"
     inkscape:document-units="mm"
     inkscape:current-layer="layer1"
     showgrid="false"
     fit-margin-top="0"
     fit-margin-left="0"
     fit-margin-right="0"
     fit-margin-bottom="0"
     inkscape:window-width="1920"
     inkscape:window-height="1017"
     inkscape:window-x="-8"
     inkscape:window-y="-8"
     inkscape:window-maximized="1" />
  <metadata
     id="metadata15780">
    <rdf:RDF>
      <cc:Work
         rdf:about="">
        <dc:format>image/svg+xml</dc:format>
        <dc:type
           rdf:resource="http://purl.org/dc/dcmitype/StillImage" />
        <dc:title></dc:title>
      </cc:Work>
    </rdf:RDF>
  </metadata>
  <g
     inkscape:label="Layer 1"
     inkscape:groupmode="layer"
     id="layer1"
     transform="translate(16.146671,14.603571)">
    <g
       aria-label="ð“ƒ"
       style="font-style:normal;font-variant:normal;font-weight:normal;font-stretch:normal;font-size:50.79999924px;line-height:1.25;font-family:sans-serif;-inkscape-font-specification:sans-serif;font-variant-ligatures:normal;font-variant-caps:normal;font-variant-numeric:normal;font-feature-settings:normal;text-align:start;letter-spacing:0px;word-spacing:0px;writing-mode:lr-tb;text-anchor:start;fill:#000000;fill-opacity:1;stroke:none;stroke-width:0.26458332"
       id="text16330">
      <path
         d="m -12.029093,-14.603571 q 1.711523,0 2.9269528,1.215429 1.2154297,1.21543 1.2154297,2.926953 0,1.7363284 -1.2402344,2.9269534 -1.2402341,1.190625 -2.9021481,1.190625 -1.711524,0 -2.926953,-1.190625 -1.190625,-1.2154297 -1.190625,-2.9269534 0,-1.661914 1.190625,-2.902148 1.190625,-1.240234 2.926953,-1.240234 z m 0,7.4662104 q 1.364258,0 2.356445,-0.9673828 0.9921875,-0.9673828 0.9921875,-2.3564456 0,-1.389062 -0.9921875,-2.356445 -0.967383,-0.992187 -2.356445,-0.992187 -1.389063,0 -2.356446,0.992187 -0.967382,0.992188 -0.967382,2.356445 0,1.3890628 0.967382,2.3564456 0.967383,0.9673828 2.356446,0.9673828 z m 4.8369137,3.7455078 q 1.7115235,0 2.9269531,1.2154296 1.2154297,1.21542971 1.2154297,2.92695312 0,1.73632808 -1.2402344,2.92695308 -1.2402343,1.190625 -2.9021484,1.190625 -1.7115234,0 -2.9269527,-1.190625 -1.190625,-1.2154297 -1.190625,-2.92695308 0,-1.66191404 1.190625,-2.90214842 1.1906246,-1.2402343 2.9269527,-1.2402343 z m 0,7.4662108 q 1.3642578,0 2.3564453,-0.9673828 0.9921875,-0.9673828 0.9921875,-2.35644528 0,-1.38906248 -0.9921875,-2.35644532 -0.9673828,-0.9921874 -2.3564453,-0.9921874 -1.3890624,0 -2.3564452,0.9921874 -0.9673825,0.99218752 -0.9673825,2.35644532 0,1.38906248 0.9673825,2.35644528 0.9673828,0.9673828 2.3564452,0.9673828 z m 5.0601562,-18.677929 q 1.71152343,0 2.92695309,1.215429 1.21542971,1.21543 1.21542971,2.926953 0,1.7363284 -1.24023439,2.9269534 -1.24023436,1.190625 -2.90214841,1.190625 -1.7115234,0 -2.9269531,-1.190625 -1.1906249,-1.2154297 -1.1906249,-2.9269534 0,-1.661914 1.1906249,-2.902148 1.190625,-1.240234 2.9269531,-1.240234 z m 0,7.4662104 q 1.36425781,0 2.35644529,-0.9673828 0.99218751,-0.9673828 0.99218751,-2.3564456 0,-1.389062 -0.99218751,-2.356445 -0.9673828,-0.992187 -2.35644529,-0.992187 -1.3890625,0 -2.3564453,0.992187 -0.9673828,0.992188 -0.9673828,2.356445 0,1.3890628 0.9673828,2.3564456 0.9673828,0.9673828 2.3564453,0.9673828 z m 5.3330077,3.7455078 q 1.7115235,0 2.9269531,1.2154296 1.2154297,1.21542971 1.2154297,2.92695312 0,1.73632808 -1.2402344,2.92695308 -1.2402343,1.190625 -2.9021484,1.190625 -1.7115234,0 -2.92695304,-1.190625 -1.19062498,-1.2154297 -1.19062498,-2.92695308 0,-1.66191404 1.19062498,-2.90214842 1.19062494,-1.2402343 2.92695304,-1.2402343 z m 0,7.4662108 q 1.3642578,0 2.3564453,-0.9673828 0.9921875,-0.9673828 0.9921875,-2.35644528 0,-1.38906248 -0.9921875,-2.35644532 -0.9673828,-0.9921874 -2.3564453,-0.9921874 -1.3890624,0 -2.35644523,0.9921874 -0.9673828,0.99218752 -0.9673828,2.35644532 0,1.38906248 0.9673828,2.35644528 Q 1.8119222,4.074358 3.2009846,4.074358 Z m 4.5640625,-18.677929 q 1.7115234,0 2.9269529,1.215429 1.21543,1.21543 1.21543,2.926953 0,1.7363284 -1.240235,2.9269534 -1.2402339,1.190625 -2.9021479,1.190625 -1.7115234,0 -2.9269531,-1.190625 -1.190625,-1.2154297 -1.190625,-2.9269534 0,-1.661914 1.190625,-2.902148 1.190625,-1.240234 2.9269531,-1.240234 z m 0,7.4662104 q 1.3642578,0 2.3564449,-0.9673828 0.992188,-0.9673828 0.992188,-2.3564456 0,-1.389062 -0.992188,-2.356445 -0.9673824,-0.992187 -2.3564449,-0.992187 -1.3890625,0 -2.3564453,0.992187 -0.9673828,0.992188 -0.9673828,2.356445 0,1.3890628 0.9673828,2.3564456 0.9673828,0.9673828 2.3564453,0.9673828 z m 5.6058589,3.7455078 q 1.711524,0 2.926953,1.2154296 1.21543,1.21542971 1.21543,2.92695312 0,1.73632808 -1.240234,2.92695308 -1.240235,1.190625 -2.902149,1.190625 -1.711523,0 -2.926953,-1.190625 -1.1906247,-1.2154297 -1.1906247,-2.92695308 0,-1.66191404 1.1906247,-2.90214842 1.190625,-1.2402343 2.926953,-1.2402343 z m 0,7.4662108 q 1.364258,0 2.356446,-0.9673828 0.992187,-0.9673828 0.992187,-2.35644528 0,-1.38906248 -0.992187,-2.35644532 -0.967383,-0.9921874 -2.356446,-0.9921874 -1.389062,0 -2.356445,0.9921874 -0.967383,0.99218752 -0.967383,2.35644532 0,1.38906248 0.967383,2.35644528 0.967383,0.9673828 2.356445,0.9673828 z m 4.291211,-18.677929 q 1.711524,0 2.926953,1.215429 1.21543,1.21543 1.21543,2.926953 0,1.7363284 -1.240234,2.9269534 -1.240235,1.190625 -2.902149,1.190625 -1.711523,0 -2.926953,-1.190625 -1.190625,-1.2154297 -1.190625,-2.9269534 0,-1.661914 1.190625,-2.902148 1.190625,-1.240234 2.926953,-1.240234 z m 0,7.4662104 q 1.364258,0 2.356446,-0.9673828 0.992187,-0.9673828 0.992187,-2.3564456 0,-1.389062 -0.992187,-2.356445 -0.967383,-0.992187 -2.356446,-0.992187 -1.389062,0 -2.356445,0.992187 -0.967383,0.992188 -0.967383,2.356445 0,1.3890628 0.967383,2.3564456 0.967383,0.9673828 2.356445,0.9673828 z"
         style="stroke-width:0.26458332"
         id="path16332"
         inkscape:connector-curvature="0" />
    </g>
  </g>
</svg>
