<?xml version="1.0" encoding="UTF-8" standalone="no"?>
<!-- Created with Inkscape (http://www.inkscape.org/) -->

<svg
   xmlns:dc="http://purl.org/dc/elements/1.1/"
   xmlns:cc="http://creativecommons.org/ns#"
   xmlns:rdf="http://www.w3.org/1999/02/22-rdf-syntax-ns#"
   xmlns:svg="http://www.w3.org/2000/svg"
   xmlns="http://www.w3.org/2000/svg"
   xmlns:sodipodi="http://sodipodi.sourceforge.net/DTD/sodipodi-0.dtd"
   xmlns:inkscape="http://www.inkscape.org/namespaces/inkscape"
   width="37.951172mm"
   height="19.47168mm"
   viewBox="0 0 37.951172 19.47168"
   version="1.1"
   id="svg16341"
   inkscape:version="0.92.4 (5da689c313, 2019-01-14)"
   sodipodi:docname="D67G.svg">
  <defs
     id="defs16335" />
  <sodipodi:namedview
     id="base"
     pagecolor="#ffffff"
     bordercolor="#666666"
     borderopacity="1.0"
     inkscape:pageopacity="0.0"
     inkscape:pageshadow="2"
     inkscape:zoom="0.35"
     inkscape:cx="-348.97266"
     inkscape:cy="-346.09641"
     inkscape:document-units="mm"
     inkscape:current-layer="layer1"
     showgrid="false"
     fit-margin-top="0"
     fit-margin-left="0"
     fit-margin-right="0"
     fit-margin-bottom="0"
     inkscape:window-width="1920"
     inkscape:window-height="1017"
     inkscape:window-x="-8"
     inkscape:window-y="-8"
     inkscape:window-maximized="1" />
  <metadata
     id="metadata16338">
    <rdf:RDF>
      <cc:Work
         rdf:about="">
        <dc:format>image/svg+xml</dc:format>
        <dc:type
           rdf:resource="http://purl.org/dc/dcmitype/StillImage" />
        <dc:title></dc:title>
      </cc:Work>
    </rdf:RDF>
  </metadata>
  <g
     inkscape:label="Layer 1"
     inkscape:groupmode="layer"
     id="layer1"
     transform="translate(-5.0198485,-37.790313)">
    <g
       aria-label="ð“ƒ"
       transform="scale(0.26458333)"
       style="font-style:normal;font-variant:normal;font-weight:normal;font-stretch:normal;font-size:192px;line-height:1.25;font-family:sans-serif;-inkscape-font-specification:sans-serif;font-variant-ligatures:normal;font-variant-caps:normal;font-variant-numeric:normal;font-feature-settings:normal;text-align:start;letter-spacing:0px;word-spacing:0px;writing-mode:lr-tb;text-anchor:start;fill:#000000;fill-opacity:1;stroke:none"
       id="flowRoot16886">
      <path
         d="m 34.535156,142.82953 q 6.46875,0 11.0625,4.59375 4.59375,4.59375 4.59375,11.0625 0,6.5625 -4.6875,11.0625 -4.6875,4.5 -10.96875,4.5 -6.46875,0 -11.0625,-4.5 -4.5,-4.59375 -4.5,-11.0625 0,-6.28125 4.5,-10.96875 4.5,-4.6875 11.0625,-4.6875 z m 0,28.21875 q 5.15625,0 8.90625,-3.65625 3.75,-3.65625 3.75,-8.90625 0,-5.25 -3.75,-8.90625 -3.65625,-3.75 -8.90625,-3.75 -5.25,0 -8.90625,3.75 -3.65625,3.75 -3.65625,8.90625 0,5.25 3.65625,8.90625 3.65625,3.65625 8.90625,3.65625 z m 37.40625,-28.21875 q 6.46875,0 11.0625,4.59375 4.59375,4.59375 4.59375,11.0625 0,6.5625 -4.6875,11.0625 -4.6875,4.5 -10.96875,4.5 -6.46875,0 -11.0625,-4.5 -4.5,-4.59375 -4.5,-11.0625 0,-6.28125 4.5,-10.96875 4.5,-4.6875 11.0625,-4.6875 z m 0,28.21875 q 5.15625,0 8.90625,-3.65625 3.75,-3.65625 3.75,-8.90625 0,-5.25 -3.75,-8.90625 -3.65625,-3.75 -8.90625,-3.75 -5.25,0 -8.90625,3.75 -3.65625,3.75 -3.65625,8.90625 0,5.25 3.65625,8.90625 3.65625,3.65625 8.90625,3.65625 z m 37.406254,-28.21875 q 6.46875,0 11.0625,4.59375 4.59375,4.59375 4.59375,11.0625 0,6.5625 -4.6875,11.0625 -4.6875,4.5 -10.96875,4.5 -6.46875,0 -11.062504,-4.5 -4.5,-4.59375 -4.5,-11.0625 0,-6.28125 4.5,-10.96875 4.500004,-4.6875 11.062504,-4.6875 z m 0,28.21875 q 5.15625,0 8.90625,-3.65625 3.75,-3.65625 3.75,-8.90625 0,-5.25 -3.75,-8.90625 -3.65625,-3.75 -8.90625,-3.75 -5.25,0 -8.90625,3.75 -3.656254,3.75 -3.656254,8.90625 0,5.25 3.656254,8.90625 3.65625,3.65625 8.90625,3.65625 z m 37.40625,-28.21875 q 6.46875,0 11.0625,4.59375 4.59375,4.59375 4.59375,11.0625 0,6.5625 -4.6875,11.0625 -4.6875,4.5 -10.96875,4.5 -6.46875,0 -11.0625,-4.5 -4.5,-4.59375 -4.5,-11.0625 0,-6.28125 4.5,-10.96875 4.5,-4.6875 11.0625,-4.6875 z m 0,28.21875 q 5.15625,0 8.90625,-3.65625 3.75,-3.65625 3.75,-8.90625 0,-5.25 -3.75,-8.90625 -3.65625,-3.75 -8.90625,-3.75 -5.25,0 -8.90625,3.75 -3.65625,3.75 -3.65625,8.90625 0,5.25 3.65625,8.90625 3.65625,3.65625 8.90625,3.65625 z M 34.535156,185.20453 q 6.46875,0 11.0625,4.59375 4.59375,4.59375 4.59375,11.0625 0,6.5625 -4.6875,11.0625 -4.6875,4.5 -10.96875,4.5 -6.46875,0 -11.0625,-4.5 -4.5,-4.59375 -4.5,-11.0625 0,-6.28125 4.5,-10.96875 4.5,-4.6875 11.0625,-4.6875 z m 0,28.21875 q 5.15625,0 8.90625,-3.65625 3.75,-3.65625 3.75,-8.90625 0,-5.25 -3.75,-8.90625 -3.65625,-3.75 -8.90625,-3.75 -5.25,0 -8.90625,3.75 -3.65625,3.75 -3.65625,8.90625 0,5.25 3.65625,8.90625 3.65625,3.65625 8.90625,3.65625 z m 37.40625,-28.21875 q 6.46875,0 11.0625,4.59375 4.59375,4.59375 4.59375,11.0625 0,6.5625 -4.6875,11.0625 -4.6875,4.5 -10.96875,4.5 -6.46875,0 -11.0625,-4.5 -4.5,-4.59375 -4.5,-11.0625 0,-6.28125 4.5,-10.96875 4.5,-4.6875 11.0625,-4.6875 z m 0,28.21875 q 5.15625,0 8.90625,-3.65625 3.75,-3.65625 3.75,-8.90625 0,-5.25 -3.75,-8.90625 -3.65625,-3.75 -8.90625,-3.75 -5.25,0 -8.90625,3.75 -3.65625,3.75 -3.65625,8.90625 0,5.25 3.65625,8.90625 3.65625,3.65625 8.90625,3.65625 z m 37.406254,-28.21875 q 6.46875,0 11.0625,4.59375 4.59375,4.59375 4.59375,11.0625 0,6.5625 -4.6875,11.0625 -4.6875,4.5 -10.96875,4.5 -6.46875,0 -11.062504,-4.5 -4.5,-4.59375 -4.5,-11.0625 0,-6.28125 4.5,-10.96875 4.500004,-4.6875 11.062504,-4.6875 z m 0,28.21875 q 5.15625,0 8.90625,-3.65625 3.75,-3.65625 3.75,-8.90625 0,-5.25 -3.75,-8.90625 -3.65625,-3.75 -8.90625,-3.75 -5.25,0 -8.90625,3.75 -3.656254,3.75 -3.656254,8.90625 0,5.25 3.656254,8.90625 3.65625,3.65625 8.90625,3.65625 z m 37.40625,-28.21875 q 6.46875,0 11.0625,4.59375 4.59375,4.59375 4.59375,11.0625 0,6.5625 -4.6875,11.0625 -4.6875,4.5 -10.96875,4.5 -6.46875,0 -11.0625,-4.5 -4.5,-4.59375 -4.5,-11.0625 0,-6.28125 4.5,-10.96875 4.5,-4.6875 11.0625,-4.6875 z m 0,28.21875 q 5.15625,0 8.90625,-3.65625 3.75,-3.65625 3.75,-8.90625 0,-5.25 -3.75,-8.90625 -3.65625,-3.75 -8.90625,-3.75 -5.25,0 -8.90625,3.75 -3.65625,3.75 -3.65625,8.90625 0,5.25 3.65625,8.90625 3.65625,3.65625 8.90625,3.65625 z"
         id="path16894"
         inkscape:connector-curvature="0" />
    </g>
  </g>
</svg>
