<?xml version="1.0" encoding="UTF-8" standalone="no"?>
<!-- Created with Inkscape (http://www.inkscape.org/) -->

<svg
   xmlns:dc="http://purl.org/dc/elements/1.1/"
   xmlns:cc="http://creativecommons.org/ns#"
   xmlns:rdf="http://www.w3.org/1999/02/22-rdf-syntax-ns#"
   xmlns:svg="http://www.w3.org/2000/svg"
   xmlns="http://www.w3.org/2000/svg"
   xmlns:sodipodi="http://sodipodi.sourceforge.net/DTD/sodipodi-0.dtd"
   xmlns:inkscape="http://www.inkscape.org/namespaces/inkscape"
   width="37.256641mm"
   height="13.716992mm"
   viewBox="0 0 37.25664 13.716991"
   version="1.1"
   id="svg4525"
   inkscape:version="0.92.4 (5da689c313, 2019-01-14)"
   sodipodi:docname="D7.svg">
  <defs
     id="defs4519" />
  <sodipodi:namedview
     id="base"
     pagecolor="#ffffff"
     bordercolor="#666666"
     borderopacity="1.0"
     inkscape:pageopacity="0.0"
     inkscape:pageshadow="2"
     inkscape:zoom="0.35"
     inkscape:cx="1384.3231"
     inkscape:cy="-231.86467"
     inkscape:document-units="mm"
     inkscape:current-layer="layer1"
     showgrid="false"
     fit-margin-top="0"
     fit-margin-left="0"
     fit-margin-right="0"
     fit-margin-bottom="0"
     inkscape:window-width="1920"
     inkscape:window-height="1017"
     inkscape:window-x="-8"
     inkscape:window-y="-8"
     inkscape:window-maximized="1"
     showguides="false" />
  <metadata
     id="metadata4522">
    <rdf:RDF>
      <cc:Work
         rdf:about="">
        <dc:format>image/svg+xml</dc:format>
        <dc:type
           rdf:resource="http://purl.org/dc/dcmitype/StillImage" />
        <dc:title></dc:title>
      </cc:Work>
    </rdf:RDF>
  </metadata>
  <g
     inkscape:label="Layer 1"
     inkscape:groupmode="layer"
     id="layer1"
     transform="translate(453.58131,-73.768803)">
    <g
       aria-label="ð“€‰"
       style="font-style:normal;font-variant:normal;font-weight:normal;font-stretch:normal;font-size:50.79999924px;line-height:1.25;font-family:sans-serif;-inkscape-font-specification:sans-serif;font-variant-ligatures:normal;font-variant-caps:normal;font-variant-numeric:normal;font-feature-settings:normal;text-align:start;letter-spacing:0px;word-spacing:0px;writing-mode:lr-tb;text-anchor:start;fill:#000000;fill-opacity:1;stroke:none;stroke-width:0.26458332"
       id="text5105" />
    <g
       aria-label="ð“€†"
       transform="matrix(0.26458333,0,0,0.26458333,-199.96101,81.431167)"
       style="font-style:normal;font-variant:normal;font-weight:normal;font-stretch:normal;font-size:192px;line-height:1.25;font-family:sans-serif;-inkscape-font-specification:sans-serif;font-variant-ligatures:normal;font-variant-caps:normal;font-variant-numeric:normal;font-feature-settings:normal;text-align:start;letter-spacing:0px;word-spacing:0px;writing-mode:lr-tb;text-anchor:start;fill:#000000;fill-opacity:1;stroke:none"
       id="flowRoot5135" />
    <g
       aria-label="ð“•"
       transform="matrix(0.26458333,0,0,0.26458333,-390.48232,26.790778)"
       style="font-style:normal;font-variant:normal;font-weight:normal;font-stretch:normal;font-size:192px;line-height:1.25;font-family:sans-serif;-inkscape-font-specification:sans-serif;font-variant-ligatures:normal;font-variant-caps:normal;font-variant-numeric:normal;font-feature-settings:normal;text-align:start;letter-spacing:0px;word-spacing:0px;writing-mode:lr-tb;text-anchor:start;fill:#000000;fill-opacity:1;stroke:none"
       id="flowRoot5443" />
    <g
       aria-label="ð“«"
       transform="matrix(-0.26458333,0,0,0.26458333,-248.60777,-63.953969)"
       style="font-style:normal;font-variant:normal;font-weight:normal;font-stretch:normal;font-size:192px;line-height:1.25;font-family:sans-serif;-inkscape-font-specification:sans-serif;font-variant-ligatures:normal;font-variant-caps:normal;font-variant-numeric:normal;font-feature-settings:normal;text-align:start;letter-spacing:0px;word-spacing:0px;writing-mode:lr-tb;text-anchor:start;fill:#000000;fill-opacity:1;stroke:none"
       id="flowRoot5553" />
    <g
       aria-label="ð“¼"
       transform="matrix(0.26458333,0,0,0.26458333,-385.27385,62.470413)"
       style="font-style:normal;font-variant:normal;font-weight:normal;font-stretch:normal;font-size:192px;line-height:1.25;font-family:sans-serif;-inkscape-font-specification:sans-serif;font-variant-ligatures:normal;font-variant-caps:normal;font-variant-numeric:normal;font-feature-settings:normal;text-align:start;letter-spacing:0px;word-spacing:0px;writing-mode:lr-tb;text-anchor:start;fill:#000000;fill-opacity:1;stroke:none"
       id="flowRoot5630">
      <path
         d="m -258.16992,82.265077 q 9.75,0 30.09375,3.84375 10.125,1.875 17.71875,2.8125 7.6875,0.9375 13.03125,0.9375 8.90625,0 23.90625,-4.03125 15.28125,-4.21875 27.375,-6.1875 12.1875,-1.96875 20.15625,-1.96875 h 8.53125 v 4.6875 h -13.03125 q -11.4375,0 -33.84375,6.09375 -22.21875,6.09375 -34.03125,6.09375 -5.53125,0 -13.21875,-0.84375 -7.6875,-0.84375 -17.71875,-2.625 -19.875,-3.375 -28.96875,-4.21875 z m 52.875,-2.8125 q -9.65625,-0.28125 -24.1875,-3.46875 -7.3125,-1.59375 -12.84375,-2.25 -5.53125,-0.65625 -9.28125,-0.65625 -1.6875,0 -3.375,0.1875 -1.59375,0.09375 -3.1875,0.28125 0.9375,-1.03125 4.21875,-2.25 3.28125,-1.3125 7.78125,-2.625 5.34375,-6.9375 10.5,-11.8125 5.15625,-4.96875 10.21875,-8.0625 5.0625,-3.1875 10.125,-4.59375 5.0625,-1.5 10.3125,-1.5 9.84375,0 34.78125,11.625 l 9.375,4.40625 q 8.8125,4.21875 15.1875,6.1875 6.375,1.96875 10.59375,3.09375 l 11.0625,2.90625 q 4.3125,1.125 6.46875,3 -5.71875,-0.75 -9.84375,-1.125 -4.03125,-0.46875 -6.65625,-0.46875 -5.71875,0 -14.625,0.75 -8.8125,0.65625 -21,2.53125 -12.1875,1.875 -21.09375,2.90625 -8.8125,0.9375 -14.53125,0.9375 z m -14.15625,-18.375 q 0,2.625 1.125,5.0625 1.125,2.4375 3,4.40625 1.875,1.875 4.3125,3.09375 2.4375,1.125 5.0625,1.125 2.71875,0 5.34375,-1.03125 2.71875,-1.125 4.78125,-2.90625 2.15625,-1.875 3.46875,-4.40625 1.3125,-2.53125 1.3125,-5.34375 0,-3.09375 -1.21875,-5.53125 -1.21875,-2.53125 -3.28125,-4.3125 -2.0625,-1.875 -4.78125,-2.8125 -2.71875,-1.03125 -5.625,-1.03125 -2.71875,0 -5.15625,1.125 -2.4375,1.125 -4.3125,3.09375 -1.875,1.875 -3,4.40625 -1.03125,2.4375 -1.03125,5.0625 z m 27.65625,12.75 q 3.28125,-0.375 8.625,-1.03125 5.34375,-0.75 12.1875,-1.78125 6.84375,-1.03125 12.5625,-1.5 5.71875,-0.5625 10.40625,-0.5625 -5.625,-1.5 -19.96875,-8.4375 -7.125,-3.46875 -12.5625,-5.71875 -5.4375,-2.34375 -8.625,-3.5625 2.8125,4.21875 2.8125,9.84375 0,7.40625 -5.4375,12.75 z m -48.84375,-4.6875 q 5.90625,1.59375 11.4375,2.8125 5.625,1.125 10.125,1.59375 -5.0625,-5.625 -5.0625,-12.46875 0,-5.0625 2.34375,-9.09375 -4.5,2.53125 -9.09375,6.75 -4.59375,4.21875 -9.75,10.40625 z"
         id="path5638"
         inkscape:connector-curvature="0" />
    </g>
  </g>
</svg>
