<?xml version="1.0" encoding="UTF-8" standalone="no"?>
<!-- Created with Inkscape (http://www.inkscape.org/) -->

<svg
   xmlns:dc="http://purl.org/dc/elements/1.1/"
   xmlns:cc="http://creativecommons.org/ns#"
   xmlns:rdf="http://www.w3.org/1999/02/22-rdf-syntax-ns#"
   xmlns:svg="http://www.w3.org/2000/svg"
   xmlns="http://www.w3.org/2000/svg"
   xmlns:sodipodi="http://sodipodi.sourceforge.net/DTD/sodipodi-0.dtd"
   xmlns:inkscape="http://www.inkscape.org/namespaces/inkscape"
   width="37.256641mm"
   height="12.427148mm"
   viewBox="0 0 37.25664 12.427147"
   version="1.1"
   id="svg4525"
   inkscape:version="0.92.4 (5da689c313, 2019-01-14)"
   sodipodi:docname="D8.svg">
  <defs
     id="defs4519" />
  <sodipodi:namedview
     id="base"
     pagecolor="#ffffff"
     bordercolor="#666666"
     borderopacity="1.0"
     inkscape:pageopacity="0.0"
     inkscape:pageshadow="2"
     inkscape:zoom="0.35"
     inkscape:cx="1305.3504"
     inkscape:cy="-199.55467"
     inkscape:document-units="mm"
     inkscape:current-layer="layer1"
     showgrid="false"
     fit-margin-top="0"
     fit-margin-left="0"
     fit-margin-right="0"
     fit-margin-bottom="0"
     inkscape:window-width="1920"
     inkscape:window-height="1017"
     inkscape:window-x="-8"
     inkscape:window-y="-8"
     inkscape:window-maximized="1"
     showguides="false" />
  <metadata
     id="metadata4522">
    <rdf:RDF>
      <cc:Work
         rdf:about="">
        <dc:format>image/svg+xml</dc:format>
        <dc:type
           rdf:resource="http://purl.org/dc/dcmitype/StillImage" />
        <dc:title></dc:title>
      </cc:Work>
    </rdf:RDF>
  </metadata>
  <g
     inkscape:label="Layer 1"
     inkscape:groupmode="layer"
     id="layer1"
     transform="translate(432.68646,-83.607334)">
    <g
       aria-label="ð“€‰"
       style="font-style:normal;font-variant:normal;font-weight:normal;font-stretch:normal;font-size:50.79999924px;line-height:1.25;font-family:sans-serif;-inkscape-font-specification:sans-serif;font-variant-ligatures:normal;font-variant-caps:normal;font-variant-numeric:normal;font-feature-settings:normal;text-align:start;letter-spacing:0px;word-spacing:0px;writing-mode:lr-tb;text-anchor:start;fill:#000000;fill-opacity:1;stroke:none;stroke-width:0.26458332"
       id="text5105" />
    <g
       aria-label="ð“€†"
       transform="matrix(0.26458333,0,0,0.26458333,-199.96101,81.431167)"
       style="font-style:normal;font-variant:normal;font-weight:normal;font-stretch:normal;font-size:192px;line-height:1.25;font-family:sans-serif;-inkscape-font-specification:sans-serif;font-variant-ligatures:normal;font-variant-caps:normal;font-variant-numeric:normal;font-feature-settings:normal;text-align:start;letter-spacing:0px;word-spacing:0px;writing-mode:lr-tb;text-anchor:start;fill:#000000;fill-opacity:1;stroke:none"
       id="flowRoot5135" />
    <g
       aria-label="ð“•"
       transform="matrix(0.26458333,0,0,0.26458333,-390.48232,26.790778)"
       style="font-style:normal;font-variant:normal;font-weight:normal;font-stretch:normal;font-size:192px;line-height:1.25;font-family:sans-serif;-inkscape-font-specification:sans-serif;font-variant-ligatures:normal;font-variant-caps:normal;font-variant-numeric:normal;font-feature-settings:normal;text-align:start;letter-spacing:0px;word-spacing:0px;writing-mode:lr-tb;text-anchor:start;fill:#000000;fill-opacity:1;stroke:none"
       id="flowRoot5443" />
    <g
       aria-label="ð“«"
       transform="matrix(-0.26458333,0,0,0.26458333,-248.60777,-63.953969)"
       style="font-style:normal;font-variant:normal;font-weight:normal;font-stretch:normal;font-size:192px;line-height:1.25;font-family:sans-serif;-inkscape-font-specification:sans-serif;font-variant-ligatures:normal;font-variant-caps:normal;font-variant-numeric:normal;font-feature-settings:normal;text-align:start;letter-spacing:0px;word-spacing:0px;writing-mode:lr-tb;text-anchor:start;fill:#000000;fill-opacity:1;stroke:none"
       id="flowRoot5553" />
    <g
       aria-label="ð“½"
       transform="matrix(0.26458333,0,0,0.26458333,-453.58131,73.768803)"
       style="font-style:normal;font-variant:normal;font-weight:normal;font-stretch:normal;font-size:192px;line-height:1.25;font-family:sans-serif;-inkscape-font-specification:sans-serif;font-variant-ligatures:normal;font-variant-caps:normal;font-variant-numeric:normal;font-feature-settings:normal;text-align:start;letter-spacing:0px;word-spacing:0px;writing-mode:lr-tb;text-anchor:start;fill:#000000;fill-opacity:1;stroke:none"
       id="flowRoot5641">
      <path
         d="m 196.34766,37.184999 q 10.125,0 16.78125,6.65625 6.65625,6.65625 6.65625,16.78125 0,10.59375 -6.46875,17.0625 -6.46875,6.46875 -16.96875,6.46875 h -93.9375 q -9.656254,0 -16.500004,-6 -6.9375,-6.09375 -6.9375,-17.53125 0,-11.0625 6.1875,-17.25 6.1875,-6.1875 17.250004,-6.1875 z m 0,4.6875 h -93.9375 q -4.125004,0 -7.593754,1.40625 -3.375,1.40625 -5.90625,3.9375 -2.4375,2.4375 -3.84375,5.90625 -1.40625,3.46875 -1.40625,7.5 0,8.90625 4.875,13.875 4.96875,4.96875 13.875004,4.96875 h 93.9375 q 8.8125,0 13.78125,-4.875 4.96875,-4.96875 4.96875,-13.96875 0,-8.8125 -4.96875,-13.78125 -4.96875,-4.96875 -13.78125,-4.96875 z m -100.312504,28.3125 q 0.65625,-0.65625 7.968754,-3.65625 16.3125,-21 33.28125,-21 4.6875,0 10.21875,1.59375 5.53125,1.59375 14.15625,5.4375 l 10.875,4.96875 q 5.71875,2.625 13.21875,5.90625 7.59375,3.28125 16.96875,6.75 -8.71875,-1.125 -12.75,-1.125 -4.6875,0 -11.4375,0.75 -6.65625,0.65625 -15.46875,2.15625 -17.625,2.8125 -26.625,2.8125 -6.5625,0 -18.1875,-2.4375 -11.4375,-2.53125 -17.0625,-2.53125 -1.312504,0 -2.625004,0.09375 -1.3125,0.09375 -2.53125,0.28125 z m 29.343754,-9.75 q 0,1.96875 0.84375,3.84375 0.84375,1.875 2.25,3.375 1.40625,1.40625 3.28125,2.34375 1.875,0.84375 3.84375,0.84375 2.15625,0 4.125,-0.75 2.0625,-0.84375 3.65625,-2.25 1.59375,-1.40625 2.53125,-3.28125 1.03125,-1.875 1.03125,-4.125 0,-2.15625 -0.84375,-4.03125 -0.84375,-1.875 -2.4375,-3.28125 -1.5,-1.40625 -3.5625,-2.25 -2.0625,-0.84375 -4.5,-0.84375 -2.0625,0 -3.9375,0.84375 -1.875,0.84375 -3.28125,2.34375 -1.40625,1.40625 -2.25,3.28125 -0.75,1.875 -0.75,3.9375 z m 21.375,9.65625 q 7.6875,-1.125 13.03125,-1.78125 5.34375,-0.75 9.09375,-1.125 3.84375,-0.46875 6.28125,-0.65625 2.53125,-0.1875 4.40625,-0.1875 -9.09375,-4.78125 -14.4375,-7.40625 -5.34375,-2.71875 -6.9375,-3.46875 -3.28125,-1.59375 -10.21875,-3.65625 1.3125,1.78125 2.0625,4.03125 0.84375,2.15625 0.84375,4.59375 0,5.53125 -4.125,9.65625 z m -23.4375,-16.6875 q -4.125,2.90625 -7.3125,6 -3.1875,3.09375 -6.65625,7.125 8.90625,2.34375 15.9375,3.46875 -3.84375,-4.40625 -3.84375,-9.5625 0,-3.75 1.875,-7.03125 z"
         id="path5649"
         inkscape:connector-curvature="0" />
    </g>
  </g>
</svg>
