<?xml version="1.0" encoding="UTF-8" standalone="no"?>
<!-- Created with Inkscape (http://www.inkscape.org/) -->

<svg
   xmlns:dc="http://purl.org/dc/elements/1.1/"
   xmlns:cc="http://creativecommons.org/ns#"
   xmlns:rdf="http://www.w3.org/1999/02/22-rdf-syntax-ns#"
   xmlns:svg="http://www.w3.org/2000/svg"
   xmlns="http://www.w3.org/2000/svg"
   xmlns:sodipodi="http://sodipodi.sourceforge.net/DTD/sodipodi-0.dtd"
   xmlns:inkscape="http://www.inkscape.org/namespaces/inkscape"
   width="37.256641mm"
   height="14.907617mm"
   viewBox="0 0 37.256641 14.907617"
   version="1.1"
   id="svg8"
   inkscape:version="0.92.4 (5da689c313, 2019-01-14)"
   sodipodi:docname="D8A.svg">
  <defs
     id="defs2" />
  <sodipodi:namedview
     id="base"
     pagecolor="#ffffff"
     bordercolor="#666666"
     borderopacity="1.0"
     inkscape:pageopacity="0.0"
     inkscape:pageshadow="2"
     inkscape:zoom="0.35"
     inkscape:cx="-334.6875"
     inkscape:cy="-321.97532"
     inkscape:document-units="mm"
     inkscape:current-layer="layer1"
     showgrid="false"
     inkscape:window-width="1920"
     inkscape:window-height="1017"
     inkscape:window-x="-8"
     inkscape:window-y="-8"
     inkscape:window-maximized="1"
     fit-margin-top="0"
     fit-margin-left="0"
     fit-margin-right="0"
     fit-margin-bottom="0" />
  <metadata
     id="metadata5">
    <rdf:RDF>
      <cc:Work
         rdf:about="">
        <dc:format>image/svg+xml</dc:format>
        <dc:type
           rdf:resource="http://purl.org/dc/dcmitype/StillImage" />
        <dc:title></dc:title>
      </cc:Work>
    </rdf:RDF>
  </metadata>
  <g
     inkscape:label="Layer 1"
     inkscape:groupmode="layer"
     id="layer1"
     transform="translate(-1.2402344,-48.736413)">
    <g
       aria-label="ð“¾"
       transform="scale(0.26458333)"
       style="font-style:normal;font-variant:normal;font-weight:normal;font-stretch:normal;font-size:192px;line-height:1.25;font-family:sans-serif;-inkscape-font-specification:'sans-serif, Normal';font-variant-ligatures:normal;font-variant-caps:normal;font-variant-numeric:normal;font-feature-settings:normal;text-align:start;letter-spacing:0px;word-spacing:0px;writing-mode:lr-tb;text-anchor:start;fill:#000000;fill-opacity:1;stroke:none"
       id="flowRoot4518">
      <path
         d="m 122.0625,184.20062 q 5.15625,0 9.46875,2.625 4.3125,2.625 7.40625,6.75 3.09375,4.03125 4.78125,9 1.78125,4.96875 1.78125,9.75 0,4.96875 -1.6875,10.03125 -1.59375,4.96875 -4.6875,9.09375 -3.09375,4.03125 -7.40625,6.5625 -4.3125,2.53125 -9.65625,2.53125 H 28.125 q -5.34375,0 -9.65625,-2.53125 -4.3125,-2.53125 -7.40625,-6.5625 -3.09375,-4.03125 -4.78125,-9.09375 -1.59375,-5.0625 -1.59375,-10.03125 0,-5.15625 1.59375,-10.21875 1.59375,-5.0625 4.59375,-9 3,-4.03125 7.3125,-6.46875 4.40625,-2.4375 9.9375,-2.4375 z m -93.9375,4.6875 q -4.125,0 -7.59375,2.25 -3.46875,2.25 -6,5.71875 -2.4375,3.46875 -3.84375,7.59375 -1.3125,4.125 -1.3125,7.875 0,4.21875 1.21875,8.4375 1.21875,4.21875 3.5625,7.59375 2.4375,3.28125 5.90625,5.4375 3.5625,2.0625 8.0625,2.0625 h 93.9375 q 4.875,0 8.4375,-1.96875 3.5625,-1.96875 5.8125,-5.15625 2.34375,-3.28125 3.375,-7.5 1.125,-4.3125 1.125,-8.90625 0,-4.59375 -1.125,-8.8125 -1.125,-4.3125 -3.46875,-7.5 -2.25,-3.28125 -5.8125,-5.15625 -3.5625,-1.96875 -8.34375,-1.96875 z m 99.46875,27.75 q -8.4375,-1.125 -11.53125,-1.125 -4.5,0 -11.15625,0.75 -6.65625,0.65625 -15.5625,2.15625 -17.71875,2.8125 -27.28125,2.8125 -6.28125,0 -17.8125,-2.53125 -11.625,-2.4375 -16.96875,-2.4375 -1.3125,0 -2.625,0.0937 -1.21875,0.0937 -2.25,0.28125 0.65625,-0.9375 3.65625,-1.96875 l 4.3125,-1.59375 q 16.03125,-20.625 32.15625,-20.625 3,0 7.3125,1.03125 4.21875,1.125 19.96875,8.4375 7.96875,3.75 14.15625,6.375 6.28125,2.53125 11.0625,4.03125 4.78125,1.5 7.875,2.53125 3.09375,1.03125 4.6875,1.78125 z m -105.1875,6.09375 q 7.59375,0 22.6875,2.8125 15,2.8125 22.875,2.8125 3.375,0 7.125,-0.5625 3.84375,-0.65625 9,-1.96875 l 7.78125,-1.96875 q 8.71875,-2.25 16.59375,-3.375 7.875,-1.21875 12.9375,-1.21875 h 6.375 v 3.75 h -9.5625 q -9,0 -25.3125,4.59375 -16.3125,4.59375 -25.6875,4.59375 -4.21875,0 -10.125,-0.65625 -5.90625,-0.65625 -13.5,-1.96875 -7.59375,-1.3125 -12.9375,-2.0625 -5.25,-0.84375 -8.25,-1.125 z m 28.96875,-15.75 q 0,3.9375 3.09375,7.125 3.09375,3.1875 7.03125,3.1875 2.4375,0 4.3125,-0.75 1.96875,-0.75 3.5625,-2.34375 3.28125,-3.09375 3.28125,-7.21875 0,-4.5 -3.1875,-7.3125 -3.1875,-2.8125 -7.96875,-2.8125 -4.125,0 -7.125,3 -3,3 -3,7.125 z m 21.28125,9.5625 10.875,-1.59375 q 7.3125,-1.03125 12.75,-1.6875 5.53125,-0.75 9.28125,-0.75 -2.4375,-0.65625 -6.1875,-2.15625 -3.65625,-1.5 -8.8125,-3.9375 -5.15625,-2.4375 -9.1875,-4.21875 -4.03125,-1.78125 -7.03125,-2.8125 1.03125,1.59375 1.59375,3.5625 0.65625,1.875 0.65625,4.03125 0,5.53125 -3.9375,9.5625 z m -37.125,-3.46875 q 9,2.25 15.65625,3.375 -3.75,-4.3125 -3.75,-9.46875 0,-3.75 1.59375,-6.65625 -2.0625,1.3125 -5.25,4.21875 -3.1875,2.8125 -8.25,8.53125 z"
         id="path4526"
         inkscape:connector-curvature="0" />
    </g>
  </g>
</svg>
