<?xml version="1.0" encoding="UTF-8" standalone="no"?>
<!-- Created with Inkscape (http://www.inkscape.org/) -->

<svg
   xmlns:dc="http://purl.org/dc/elements/1.1/"
   xmlns:cc="http://creativecommons.org/ns#"
   xmlns:rdf="http://www.w3.org/1999/02/22-rdf-syntax-ns#"
   xmlns:svg="http://www.w3.org/2000/svg"
   xmlns="http://www.w3.org/2000/svg"
   xmlns:sodipodi="http://sodipodi.sourceforge.net/DTD/sodipodi-0.dtd"
   xmlns:inkscape="http://www.inkscape.org/namespaces/inkscape"
   width="37.207031mm"
   height="22.274609mm"
   viewBox="0 0 37.207031 22.274609"
   version="1.1"
   id="svg8"
   inkscape:version="0.92.4 (5da689c313, 2019-01-14)"
   sodipodi:docname="D9.svg">
  <defs
     id="defs2" />
  <sodipodi:namedview
     id="base"
     pagecolor="#ffffff"
     bordercolor="#666666"
     borderopacity="1.0"
     inkscape:pageopacity="0.0"
     inkscape:pageshadow="2"
     inkscape:zoom="0.35"
     inkscape:cx="-340.40234"
     inkscape:cy="-373.40305"
     inkscape:document-units="mm"
     inkscape:current-layer="layer1"
     showgrid="false"
     fit-margin-top="0"
     fit-margin-left="0"
     fit-margin-right="0"
     fit-margin-bottom="0"
     inkscape:window-width="1920"
     inkscape:window-height="1017"
     inkscape:window-x="-8"
     inkscape:window-y="-8"
     inkscape:window-maximized="1" />
  <metadata
     id="metadata5">
    <rdf:RDF>
      <cc:Work
         rdf:about="">
        <dc:format>image/svg+xml</dc:format>
        <dc:type
           rdf:resource="http://purl.org/dc/dcmitype/StillImage" />
        <dc:title></dc:title>
      </cc:Work>
    </rdf:RDF>
  </metadata>
  <g
     inkscape:label="Layer 1"
     inkscape:groupmode="layer"
     id="layer1"
     transform="translate(-2.7522868,-27.762501)">
    <g
       aria-label="ð“¿"
       transform="scale(0.26458333)"
       style="font-style:normal;font-variant:normal;font-weight:normal;font-stretch:normal;font-size:192px;line-height:1.25;font-family:sans-serif;-inkscape-font-specification:'sans-serif, Normal';font-variant-ligatures:normal;font-variant-caps:normal;font-variant-numeric:normal;font-feature-settings:normal;text-align:start;letter-spacing:0px;word-spacing:0px;writing-mode:lr-tb;text-anchor:start;fill:#000000;fill-opacity:1;stroke:none"
       id="flowRoot4518">
      <path
         d="m 51.277344,140.55414 -12.1875,47.0625 -4.5,-1.5 12.28125,-46.3125 q -1.875,-0.28125 -3.84375,-0.65625 -1.875,-0.375 -3.9375,-0.84375 -7.3125,-1.59375 -12.84375,-2.25 -5.53125,-0.75 -9.28125,-0.75 -1.6875,0 -3.375,0.1875 -1.59375,0.0937 -3.1875,0.28125 0.9375,-1.03125 4.21875,-2.25 3.28125,-1.3125 7.78125,-2.625 5.34375,-6.9375 10.5,-11.8125 5.15625,-4.96875 10.21875,-8.0625 5.0625,-3.1875 10.125,-4.59375 5.0625,-1.5 10.3125,-1.5 9.84375,0 34.78125,11.625 l 9.374996,4.40625 q 8.8125,4.21875 15.1875,6.1875 6.375,1.96875 10.59375,3.09375 l 11.0625,2.90625 q 4.3125,1.125 6.46875,3 -5.71875,-0.75 -9.84375,-1.125 -4.03125,-0.46875 -6.65625,-0.46875 -5.71875,0 -14.625,0.75 -8.8125,0.65625 -20.999996,2.53125 -5.71875,0.9375 -9.9375,1.5 -4.21875,0.5625 -7.78125,1.03125 l 12.375,45.75 -4.59375,1.5 -12.28125,-46.78125 q -6.28125,0.65625 -11.0625,0.84375 v 47.4375 h -4.59375 v -47.53125 q -2.15625,-0.1875 -4.59375,-0.375 -2.4375,-0.28125 -5.15625,-0.65625 z m -2.15625,-17.25 q 0,2.625 1.125,5.0625 1.125,2.4375 3,4.40625 1.875,1.875 4.3125,3.09375 2.4375,1.125 5.0625,1.125 2.71875,0 5.34375,-1.03125 2.71875,-1.125 4.78125,-2.90625 2.15625,-1.875 3.46875,-4.40625 1.3125,-2.53125 1.3125,-5.34375 0,-3.09375 -1.21875,-5.53125 -1.21875,-2.53125 -3.28125,-4.3125 -2.0625,-1.875 -4.78125,-2.8125 -2.71875,-1.03125 -5.625,-1.03125 -2.71875,0 -5.15625,1.125 -2.4375,1.125 -4.3125,3.09375 -1.875,1.875 -3,4.40625 -1.03125,2.4375 -1.03125,5.0625 z m 27.65625,12.75 q 3.28125,-0.375 8.625,-1.03125 5.34375,-0.75 12.1875,-1.78125 6.843746,-1.03125 12.562496,-1.5 5.71875,-0.5625 10.40625,-0.5625 -5.625,-1.5 -19.96875,-8.4375 -7.124996,-3.46875 -12.562496,-5.71875 -5.4375,-2.34375 -8.625,-3.5625 2.8125,4.21875 2.8125,9.84375 0,7.40625 -5.4375,12.75 z m -48.84375,-4.6875 q 5.90625,1.59375 11.4375,2.8125 5.625,1.125 10.125,1.59375 -5.0625,-5.625 -5.0625,-12.46875 0,-5.0625 2.34375,-9.09375 -4.5,2.53125 -9.09375,6.75 -4.59375,4.21875 -9.75,10.40625 z"
         id="path4526"
         inkscape:connector-curvature="0" />
    </g>
  </g>
</svg>
