<?xml version="1.0" encoding="UTF-8" standalone="no"?>
<!-- Created with Inkscape (http://www.inkscape.org/) -->

<svg
   xmlns:dc="http://purl.org/dc/elements/1.1/"
   xmlns:cc="http://creativecommons.org/ns#"
   xmlns:rdf="http://www.w3.org/1999/02/22-rdf-syntax-ns#"
   xmlns:svg="http://www.w3.org/2000/svg"
   xmlns="http://www.w3.org/2000/svg"
   xmlns:sodipodi="http://sodipodi.sourceforge.net/DTD/sodipodi-0.dtd"
   xmlns:inkscape="http://www.inkscape.org/namespaces/inkscape"
   width="37.603905mm"
   height="29.864855mm"
   viewBox="0 0 37.603905 29.864855"
   version="1.1"
   id="svg20275"
   inkscape:version="0.92.4 (5da689c313, 2019-01-14)"
   sodipodi:docname="E10.svg">
  <defs
     id="defs20269" />
  <sodipodi:namedview
     id="base"
     pagecolor="#ffffff"
     bordercolor="#666666"
     borderopacity="1.0"
     inkscape:pageopacity="0.0"
     inkscape:pageshadow="2"
     inkscape:zoom="0.35"
     inkscape:cx="-340.40234"
     inkscape:cy="-380.47527"
     inkscape:document-units="mm"
     inkscape:current-layer="layer1"
     showgrid="false"
     fit-margin-top="0"
     fit-margin-left="0"
     fit-margin-right="0"
     fit-margin-bottom="0"
     inkscape:window-width="1920"
     inkscape:window-height="1017"
     inkscape:window-x="-8"
     inkscape:window-y="-8"
     inkscape:window-maximized="1" />
  <metadata
     id="metadata20272">
    <rdf:RDF>
      <cc:Work
         rdf:about="">
        <dc:format>image/svg+xml</dc:format>
        <dc:type
           rdf:resource="http://purl.org/dc/dcmitype/StillImage" />
        <dc:title></dc:title>
      </cc:Work>
    </rdf:RDF>
  </metadata>
  <g
     inkscape:label="Layer 1"
     inkscape:groupmode="layer"
     id="layer1"
     transform="translate(-2.7522868,-18.301063)">
    <g
       aria-label="ð“ƒ"
       transform="scale(0.26458333)"
       style="font-style:normal;font-variant:normal;font-weight:normal;font-stretch:normal;font-size:192px;line-height:1.25;font-family:sans-serif;-inkscape-font-specification:sans-serif;font-variant-ligatures:normal;font-variant-caps:normal;font-variant-numeric:normal;font-feature-settings:normal;text-align:start;letter-spacing:0px;word-spacing:0px;writing-mode:lr-tb;text-anchor:start;fill:#000000;fill-opacity:1;stroke:none"
       id="flowRoot20820">
      <path
         d="m 32.996094,109.38812 3.1875,-4.5 q -1.6875,-0.46875 -3.1875,-0.84375 -1.3125,-0.375 -2.53125,-0.65625 -1.125,-0.375 -1.59375,-0.75 -0.46875,-0.375 -0.84375,-0.5625 -0.375,-0.28125 -0.5625,-0.46875 -0.28125,-0.1875 -0.46875,-0.375 l -0.375,-1.499996 q 0.375,-4.21875 5.34375,-8.90625 2.4375,-2.34375 6.9375,-5.25 4.5,-2.90625 11.53125,-6.46875 -0.5625,-0.5625 -1.3125,-1.21875 -0.65625,-0.65625 -1.5,-1.21875 -0.75,-0.65625 -1.59375,-1.03125 -0.84375,-0.46875 -1.59375,-0.5625 -2.0625,0.65625 -4.03125,1.125 -1.875,0.46875 -3.75,0.46875 -1.59375,0 -3.09375,-0.375 -1.5,-0.375 -3.1875,-0.9375 -2.25,-0.75 -3.84375,-1.03125 -1.5,-0.375 -2.71875,-0.375 -1.59375,0 -3.5625,0.5625 -1.96875,0.46875 -3.46875,0.46875 -2.4375,0 -4.40625,-2.53125 l -1.96875,-2.53125 0.75,-0.75 q 1.03125,1.125 2.0625,2.0625 0.84375,0.75 1.78125,1.40625 0.9375,0.5625 1.6875,0.5625 0.375,0 1.125,-0.28125 0.75,-0.375 1.6875,-0.75 1.03125,-0.375 2.15625,-0.65625 1.125,-0.375 2.15625,-0.375 0.9375,0 2.625,0.375 1.6875,0.28125 3.5625,0.65625 1.96875,0.375 3.75,0.75 1.78125,0.28125 3.09375,0.28125 0.65625,0 1.59375,-0.1875 1.03125,-0.1875 2.0625,-0.46875 1.03125,-0.28125 2.0625,-0.5625 1.03125,-0.375 1.78125,-0.75 3.28125,0.46875 5.625,2.25 2.4375,1.78125 3.5625,3.84375 3.46875,-3.375 5.90625,-4.6875 2.53125,-1.40625 4.59375,-1.40625 2.34375,1.21875 4.21875,1.78125 1.96875,0.5625 3,0.5625 1.03125,0 2.34375,-0.1875 1.40625,-0.28125 3.28125,-0.9375 3.65625,-1.21875 6.65625,-1.21875 1.78125,0 3.84375,0.65625 2.15625,0.65625 4.03125,0.65625 0.65625,0 1.40625,-0.1875 0.75,-0.28125 1.40625,-0.65625 0.75,-0.375 1.5,-0.84375 0.1875,0.09375 0.375,0.28125 0.1875,0.1875 0.28125,0.375 0.09375,0.09375 0.28125,0.1875 -1.78125,1.6875 -3.65625,2.15625 -1.875,0.46875 -5.25,0.46875 -1.96875,0 -3.28125,0.09375 -1.3125,0 -2.25,0.09375 -0.84375,0.09375 -1.59375,0.28125 -0.65625,0.09375 -1.40625,0.375 -1.875,0.5625 -3.1875,0.9375 -1.21875,0.375 -2.15625,0.65625 -0.9375,0.1875 -1.6875,0.28125 -0.75,0.09375 -1.40625,0.09375 -1.40625,0 -3,-0.46875 -1.59375,-0.5625 -3.75,-1.59375 -2.71875,0 -4.59375,1.40625 -1.875,1.3125 -2.90625,2.625 1.3125,0.5625 3.1875,1.59375 1.875,0.9375 3.1875,1.96875 2.71875,1.96875 2.34375,1.96875 -0.09375,0 2.8125,4.3125 l 4.6875,6.9375 q 14.15625,6.281246 24.09375,8.156246 5.062496,0.9375 9.468746,1.40625 4.5,0.46875 8.71875,0.46875 2.625,0 5.25,-0.0937 2.71875,-0.1875 5.4375,-0.5625 2.71875,-0.375 4.875,-0.5625 2.25,-0.1875 3.84375,-0.1875 2.71875,0 5.53125,0.75 2.8125,0.75 4.96875,2.71875 2.15625,1.96875 3.46875,5.4375 1.40625,3.46875 1.875,7.59375 0.1875,1.875 0.375,3.375 0.1875,1.40625 0.28125,2.625 0.1875,1.21875 0.28125,2.34375 0.1875,1.03125 0.375,2.15625 0.28125,2.25 0.5625,4.40625 0.375,2.0625 0.375,3.5625 0,0.75 -0.0937,1.21875 -0.0937,0.375 -0.1875,0.75 -0.0937,0.375 -0.1875,0.65625 l -1.21875,0.1875 -1.3125,-8.71875 q -0.5625,-3.375 -1.03125,-6.65625 -0.375,-3.375 -0.9375,-6.375 -0.5625,-3 -1.5,-5.4375 -0.84375,-2.53125 -2.25,-4.125 0.28125,0.65625 0.46875,1.875 0.28125,1.21875 0.375,2.53125 0.1875,1.21875 0.28125,2.4375 0.0937,1.125 0.0937,1.78125 0,3.5625 -0.5625,6.9375 -0.46875,3.375 -0.46875,6 v 1.5 q 0.0937,3.75 3.46875,9.09375 3.28125,5.25 3.28125,10.125 0,2.4375 -0.84375,10.125 -0.84375,7.78125 -0.84375,12.65625 l -1.59375,1.5 q -1.3125,0.46875 -1.78125,1.125 -0.46875,0.65625 -1.21875,2.34375 l -1.5,1.03125 h -6.09375 l -1.40625,-1.78125 q 0,-0.84375 0.84375,-2.4375 1.125,-1.6875 5.53125,-4.40625 1.6875,-5.4375 1.6875,-9.5625 0,-4.78125 -1.96875,-8.90625 -1.875,-4.125 -5.25,-9.1875 -3.5625,1.3125 -9,10.875 -5.25,9.5625 -7.125,18.28125 l -1.03125,1.03125 -1.21875,0.1875 q -0.65625,0 -1.125,0.375 -0.75,0.9375 -0.9375,1.96875 -0.1875,1.03125 -0.1875,2.0625 l -1.59375,1.5 h -6 l -1.21875,-2.25 q 1.125,-3 3,-5.34375 1.875,-2.4375 4.78125,-4.03125 3.28125,-7.5 5.0625,-15.65625 1.78125,-8.25 3.28125,-16.5 -3.5625,0.5625 -7.21875,1.5 -3.5625,0.84375 -7.5,1.3125 -0.46875,0 -2.625,-0.9375 -2.15625,-1.03125 -6.093746,-1.03125 -3.65625,0 -6.46875,0.375 -2.71875,0.28125 -5.4375,0.28125 -1.78125,0 -3.5625,-0.1875 -1.78125,-0.28125 -3.46875,-0.84375 -0.375,4.59375 -0.5625,9.09375 -0.1875,4.5 -0.1875,9.09375 0,4.5 0.1875,8.8125 0.28125,4.21875 0.75,8.71875 l -1.59375,1.5 q -2.4375,0 -3.1875,1.5 -0.65625,1.40625 -1.40625,3.5625 l -1.5,1.03125 h -4.5 l -1.40625,-1.78125 q 0.28125,-3.28125 1.78125,-5.53125 1.5,-2.25 4.21875,-4.03125 0,-7.59375 -0.75,-14.90625 -0.75,-7.40625 -1.875,-14.8125 -4.78125,4.78125 -6.09375,14.71875 -1.21875,9.75 -3.09375,11.625 -1.875,1.875 -1.875,7.125 l -1.125,1.5 q -2.25,0.1875 -3.46875,1.59375 -1.125,1.3125 -1.59375,3.46875 l -1.5,1.03125 h -6.09375 l -1.40625,-1.78125 q 0.75,-3.28125 3.09375,-5.25 2.4375,-1.96875 5.25,-3.46875 2.90625,-8.8125 5.0625,-17.53125 2.15625,-8.71875 3.1875,-18.09375 -3.84375,-1.5 -6.5625,-5.90625 -2.53125,-4.3125 -4.21875,-17.53125 -0.28125,-1.96875 -0.46875,-3.28125 -0.1875,-1.3125 -0.28125,-2.15625 -0.09375,-0.84375 -0.1875,-1.40625 -0.09375,-0.5625 -0.09375,-1.03125 l -8.53125,0.5625 q -1.59375,1.96875 -2.625,3.28125 -1.03125,1.21875 -1.59375,1.96875 -0.65625,0.9375 -1.03125,1.3125 l -1.875,-0.0937 z m 113.906246,58.40625 0.46875,-4.125 q 0.28125,-2.25 0.375,-4.6875 0.0937,-2.4375 0.0937,-4.875 0,-2.34375 -0.46875,-4.03125 -0.46875,-1.78125 -1.3125,-3.46875 l -2.0625,-3.9375 q -0.84375,-1.6875 -1.5,-2.90625 -0.5625,-1.3125 -0.9375,-2.4375 -0.375,-1.21875 -0.5625,-2.34375 -0.0937,-1.21875 -0.0937,-2.71875 0,-2.625 0.5625,-5.71875 0.5625,-3.1875 0.5625,-6.5625 0,-1.59375 -0.0937,-3.65625 -0.0937,-2.15625 -0.75,-4.03125 -0.65625,-1.96875 -2.0625,-3.28125 -1.3125,-1.40625 -3.84375,-1.40625 h -1.6875 q -2.0625,0 -4.5,0.1875 -2.4375,0.1875 -4.5,0.375 -2.53125,0.28125 -4.21875,0.46875 -1.59375,0.0937 -2.625,0.1875 -1.03125,0 -1.6875,0.0937 -0.5625,0 -1.03125,0 -9.65625,-0.1875 -19.218746,-2.0625 -9.46875,-1.875 -17.34375,-5.0625 -7.875,-3.281246 -9.46875,-4.874996 -0.84375,-0.84375 -1.875,-2.53125 -1.03125,-1.6875 -1.96875,-3.5625 l -8.625,2.53125 -0.65625,-1.21875 6.1875,-6.1875 q -1.96875,-1.6875 -3.65625,-2.53125 -1.59375,-0.9375 -3.5625,-1.6875 l -2.8125,0.09375 q -4.3125,1.875 -8.15625,4.125 -3.84375,2.25 -7.125,4.96875 -6.65625,5.34375 -7.03125,8.53125 0.9375,1.218746 4.03125,1.874996 3.09375,0.65625 7.3125,0.65625 1.5,0 2.90625,0 1.40625,-0.0937 2.71875,-0.1875 l 3.65625,-0.1875 1.59375,1.5 1.21875,9.09375 q 0.84375,6.46875 1.96875,10.875 1.125,4.3125 2.71875,6.5625 3.28125,4.5 8.71875,5.15625 -0.75,-0.75 -1.96875,-3.75 -1.3125,-3.1875 -1.3125,-5.53125 0,-2.71875 0.84375,-5.90625 0.9375,-3.28125 1.96875,-6.09375 1.21875,-3.28125 2.8125,-6.65625 l 2.71875,1.21875 q -1.59375,3.1875 -2.71875,6.1875 -1.03125,2.625 -1.875,5.4375 -0.75,2.71875 -0.75,4.875 0,4.3125 1.96875,7.40625 2.0625,3.09375 4.3125,4.78125 l 0.65625,1.21875 q 1.3125,8.53125 1.96875,16.78125 0.75,8.15625 0.75,16.6875 l -0.46875,0.9375 q -2.71875,1.78125 -3.75,3.375 -0.9375,1.5 -1.3125,3.28125 h 1.78125 q 0.9375,-2.625 2.0625,-4.03125 1.125,-1.5 3.46875,-1.875 -0.46875,-4.03125 -0.65625,-7.96875 -0.09375,-4.03125 -0.09375,-7.96875 0,-5.34375 0.1875,-10.5 0.1875,-5.15625 0.65625,-10.5 l 2.34375,-0.9375 q 1.96875,1.03125 4.03125,1.40625 2.0625,0.28125 4.21875,0.28125 2.90625,0 5.53125,-0.375 2.625,-0.375 6.093746,-0.375 2.15625,0 4.21875,0.375 2.0625,0.375 4.125,1.40625 3.46875,-0.75 6.9375,-1.40625 3.46875,-0.65625 7.03125,-1.21875 -1.125,-2.34375 -1.59375,-4.125 -0.46875,-1.78125 -0.46875,-3.75 v -2.90625 l 3,-0.28125 q 0,1.3125 -0.0937,1.59375 0,5.34375 3.1875,9.75 3.28125,4.3125 8.53125,6.09375 l 3.28125,1.40625 q 2.0625,3.09375 3.5625,5.90625 1.5,2.8125 2.4375,5.53125 1.03125,2.625 1.40625,5.4375 0.46875,2.71875 0.46875,5.8125 -0.5625,3.9375 -1.03125,6.5625 -0.46875,2.625 -2.4375,3.84375 -1.3125,0.75 -2.15625,1.3125 -0.75,0.5625 -1.3125,1.5 h 2.90625 q 0.65625,-1.40625 1.875,-2.625 1.21875,-1.21875 2.71875,-1.6875 0,-0.9375 0,-1.6875 0,-0.84375 0.0937,-1.59375 z m -29.15625,2.15625 q -0.46875,1.40625 -0.84375,2.0625 -0.375,0.5625 -1.03125,0.75 -0.5625,0.28125 -1.40625,0.9375 -0.84375,0.65625 -1.6875,1.5 -0.75,0.84375 -1.5,1.875 -0.65625,1.03125 -0.9375,1.96875 h 2.4375 q 0.375,-4.40625 4.78125,-5.53125 0.375,-1.5 1.03125,-2.90625 0.65625,-1.40625 0.9375,-2.71875 1.875,-4.78125 4.125,-9.65625 2.25,-4.96875 4.875,-8.71875 0.75,-1.125 1.5,-2.0625 0.84375,-1.03125 1.5,-1.78125 0.75,-0.84375 1.5,-1.59375 -1.96875,-0.9375 -3.84375,-1.96875 -1.78125,-1.03125 -3.375,-2.53125 -0.46875,2.71875 -1.40625,6.65625 -0.84375,3.84375 -2.0625,8.90625 -1.21875,5.0625 -2.15625,7.96875 -0.9375,2.90625 -1.3125,3.84375 z m -63.281246,3.375 q -0.75,0.46875 -1.6875,1.21875 -0.9375,0.65625 -1.96875,1.5 -0.9375,0.75 -1.78125,1.59375 -0.75,0.75 -1.125,1.40625 h 2.8125 q 1.03125,-2.25 2.25,-3.46875 1.21875,-1.3125 3.65625,-2.34375 0.1875,-2.53125 1.03125,-4.875 0.9375,-2.34375 2.53125,-4.21875 0.09375,-0.75 1.96875,-10.78125 0.9375,-4.96875 2.4375,-8.625 1.59375,-3.75 4.03125,-6.1875 l -4.875,-1.59375 q -0.28125,1.875 -0.75,4.40625 -0.375,2.4375 -0.9375,5.0625 -0.46875,2.625 -1.125,5.34375 -0.5625,2.625 -1.21875,4.875 -0.28125,1.125 -0.75,2.8125 -0.46875,1.59375 -0.9375,3.09375 -0.375,1.5 -0.75,2.625 -0.28125,1.125 -0.375,1.3125 z m -7.875,-84.843746 2.25,0.9375 q -1.125,1.125 -2.625,1.875 l -0.75,-1.21875 z"
         id="path20828"
         inkscape:connector-curvature="0" />
    </g>
  </g>
</svg>
