<?xml version="1.0" encoding="UTF-8" standalone="no"?>
<!-- Created with Inkscape (http://www.inkscape.org/) -->

<svg
   xmlns:dc="http://purl.org/dc/elements/1.1/"
   xmlns:cc="http://creativecommons.org/ns#"
   xmlns:rdf="http://www.w3.org/1999/02/22-rdf-syntax-ns#"
   xmlns:svg="http://www.w3.org/2000/svg"
   xmlns="http://www.w3.org/2000/svg"
   xmlns:sodipodi="http://sodipodi.sourceforge.net/DTD/sodipodi-0.dtd"
   xmlns:inkscape="http://www.inkscape.org/namespaces/inkscape"
   width="28.550196mm"
   height="37.97599mm"
   viewBox="0 0 28.550196 37.97599"
   version="1.1"
   id="svg21399"
   inkscape:version="0.92.4 (5da689c313, 2019-01-14)"
   sodipodi:docname="E13.svg">
  <defs
     id="defs21393" />
  <sodipodi:namedview
     id="base"
     pagecolor="#ffffff"
     bordercolor="#666666"
     borderopacity="1.0"
     inkscape:pageopacity="0.0"
     inkscape:pageshadow="2"
     inkscape:zoom="0.35"
     inkscape:cx="-277.54492"
     inkscape:cy="-334.76047"
     inkscape:document-units="mm"
     inkscape:current-layer="layer1"
     showgrid="false"
     fit-margin-top="0"
     fit-margin-left="0"
     fit-margin-right="0"
     fit-margin-bottom="0"
     inkscape:window-width="1920"
     inkscape:window-height="1017"
     inkscape:window-x="-8"
     inkscape:window-y="-8"
     inkscape:window-maximized="1" />
  <metadata
     id="metadata21396">
    <rdf:RDF>
      <cc:Work
         rdf:about="">
        <dc:format>image/svg+xml</dc:format>
        <dc:type
           rdf:resource="http://purl.org/dc/dcmitype/StillImage" />
        <dc:title></dc:title>
      </cc:Work>
    </rdf:RDF>
  </metadata>
  <g
     inkscape:label="Layer 1"
     inkscape:groupmode="layer"
     id="layer1"
     transform="translate(13.878739,-22.285303)">
    <g
       aria-label="𓃠"
       transform="scale(0.26458333)"
       style="font-style:normal;font-variant:normal;font-weight:normal;font-stretch:normal;font-size:192px;line-height:1.25;font-family:sans-serif;-inkscape-font-specification:sans-serif;font-variant-ligatures:normal;font-variant-caps:normal;font-variant-numeric:normal;font-feature-settings:normal;text-align:start;letter-spacing:0px;word-spacing:0px;writing-mode:lr-tb;text-anchor:start;fill:#000000;fill-opacity:1;stroke:none"
       id="flowRoot21944">
      <path
         d="m 22.638672,219.60297 q -4.125,-5.4375 -6.1875,-12.09375 -2.0625,-6.65625 -3.28125,-13.21875 -7.6875001,-1.5 -14.15625013,-5.34375 -6.46874997,-3.84375 -12.09374987,-9.28125 -0.1875,12.65625 -3.75,24.375 -3.5625,11.625 -9.1875,22.6875 l -1.5,1.03125 h -17.4375 l -1.40625,-1.78125 v -0.65625 q 0,-3 0.9375,-4.6875 0.9375,-1.78125 2.90625,-1.78125 1.40625,0 4.125,0.84375 2.625,0.84375 3.84375,0.84375 0.65625,0 0.9375,-0.0937 7.96875,-14.53125 7.96875,-25.5 0,-3.28125 -0.84375,-8.34375 -0.75,-5.15625 -2.625,-12.75 l -2.34375,-9.1875 q -1.78125,-6.75 -2.53125,-12.84375 -0.65625,-6.09375 -0.9375,-12.5625 l -0.65625,-16.125 q -1.875,0.1875 -3.9375,0.46875 -2.0625,0.28125 -4.03125,0.28125 -3.9375,0 -6.28125,-1.78125 -2.25,-1.875 -2.625,-7.03125 0,-2.8125 5.71875,-8.53125 5.71875,-5.90625 8.0625,-5.90625 0.28125,0 0.75,0.0937 0.5625,0.0937 1.59375,0.0937 1.3125,-0.1875 2.625,-0.65625 1.3125,-0.562502 2.53125,-1.218752 v -12.09375 l 3,-0.9375 q 1.125,1.3125 2.15625,2.8125 0.9375,1.3125 1.875,3.09375 0.9375,1.6875 1.5,3.65625 1.5,-2.25 2.0625,-5.0625 0.65625,-2.8125 0.84375,-5.53125 l 2.71875,-0.65625 q 0.9375,1.3125 1.59375,2.90625 0.65625,1.5 1.03125,3.28125 0.84375,3.9375 1.40625,7.03125 0.5625,3.093752 1.03125,5.812502 0.5625,2.625 0.9375,5.15625 0.46875,2.53125 0.9375,5.34375 1.6874999,10.96875 8.6249999,21.28125 7.03125,10.21875 20.7187501,18.28125 6.84375,4.03125 12.375,7.875 5.53125,3.84375 9,7.3125 1.03125,-4.5 1.875,-9.28125 0.9375,-4.78125 1.40625,-9.5625 l 0.9375,-0.28125 q 0.28125,0.9375 0.46875,2.4375 0.1875,1.40625 0.1875,3.09375 0,2.0625 -0.09375,4.40625 -0.09375,2.34375 -0.28125,4.59375 -0.1875,2.25 -0.5625,4.3125 -0.28125,1.96875 -0.65625,3.375 3,2.90625 5.15625,6.65625 2.25,3.75 3.65625,7.875 1.40625,4.03125 2.0625,8.25 0.65625,4.21875 0.65625,8.15625 0,5.34375 -2.53125,11.34375 -2.4375,5.90625 -6.9375,13.3125 l -1.3125,0.5625 H -0.89257813 l -1.40624997,-1.21875 -0.5625,-3.84375 q 0,-2.53125 1.3125,-3.375 1.31249997,-0.9375 3.28125,-0.9375 2.625,0 7.03125,1.3125 4.3125001,1.40625 6.5625001,1.40625 1.6875,0 3.65625,-0.375 1.96875,-0.46875 3.65625,-1.125 z m -51.9375,-118.21875 -3.1875,1.5 q -0.84375,0.375 -1.6875,0.65625 -0.84375,0.1875 -1.6875,0.28125 -0.84375,0 -1.3125,-0.0937 -0.46875,-0.0937 -0.84375,-0.0937 -0.46875,0 -1.3125,0.46875 -0.75,0.46875 -1.6875,1.21875 -0.9375,0.65625 -1.875,1.59375 -0.9375,0.84375 -1.59375,1.6875 l -4.96875,5.8125 q 0.1875,3.9375 1.96875,5.34375 1.78125,1.3125 4.5,1.3125 1.96875,0 4.21875,-0.375 2.25,-0.46875 4.5,-0.65625 0.75,0.75 1.03125,1.03125 0.375,0.28125 0.5625,0.46875 0.09375,3.28125 0.28125,7.875 0.1875,4.59375 0.375,10.5 0.1875,5.90625 1.03125,11.90625 0.84375,5.90625 2.4375,12.1875 l 2.4375,9.28125 q 1.875,7.3125 2.625,12.65625 0.84375,5.25 0.84375,8.8125 0,2.71875 -0.46875,5.625 -0.375,2.8125 -1.40625,6.1875 -0.9375,3.28125 -2.625,7.21875 -1.59375,3.84375 -4.125,8.53125 l -1.03125,1.03125 h -2.15625 q -2.625,0 -4.78125,-0.75 -2.15625,-0.84375 -2.71875,-0.84375 -0.46875,0 -0.65625,0.0937 -0.75,1.21875 -0.75,2.90625 h 15 q 6,-11.8125 9.09375,-23.625 3.09375,-11.90625 3.28125,-25.21875 l 2.71875,-0.65625 q 6.8437499,6.84375 13.12499988,10.78125 6.37500002,3.84375 13.12500012,5.25 l 0.1875,-2.71875 q 0.28125,-4.78125 2.625,-7.78125 2.4375,-3.09375 6.375,-3.09375 2.8125,0 5.15625,1.40625 2.4375,1.40625 4.96875,3.84375 3,-2.53125 4.6875,-5.0625 1.78125,-2.625 2.8125,-6 -4.78125,-4.78125 -10.78125,-9 -5.90625,-4.3125 -12.5625,-8.0625 -13.3125001,-7.59375 -20.7187501,-18.5625 -7.4062499,-11.0625 -9.6562499,-26.34375 -2.25,-15.281252 -3.65625,-19.500002 -0.5625,2.8125 -1.78125,5.34375 -1.125,2.53125 -3.375,4.21875 z m 45.28125,91.59375 q 1.40625,7.125 3.5625,13.875 2.25,6.65625 6.75,12.5625 l -0.84375,2.4375 q -1.96875,0.5625 -3.84375,0.9375 -1.59375,0.375 -3.375,0.65625 -1.6875,0.1875 -3,0.1875 -0.5625,0 -1.5,0 -0.9375,-0.0937 -1.96875,-0.1875 -1.03125,-0.1875 -2.0625001,-0.28125 -0.9375,-0.1875 -1.5,-0.375 -3.1875,-0.84375 -4.875,-1.125 -1.6875,-0.28125 -2.34375002,-0.28125 -0.84375001,0 -0.84375001,1.78125 0,0.9375 0.28125001,1.59375 H 43.919922 q 1.78125,-3.1875 3.28125,-5.8125 1.59375,-2.71875 2.71875,-5.25 1.21875,-2.625 1.875,-5.25 0.65625,-2.71875 0.65625,-5.8125 0,-8.4375 -2.71875,-15.75 -2.71875,-7.40625 -6.84375,-12 -1.875,5.4375 -4.78125,8.0625 -2.8125,2.625 -5.4375,3.9375 l -2.25,-0.28125 q -0.375,-1.125 -1.3125,-2.25 -0.84375,-1.125 -2.0625,-1.96875 -1.21875,-0.84375 -2.53125,-1.3125 -1.3125,-0.5625 -2.53125,-0.5625 -1.5,0 -2.90625,1.3125 -1.40625,1.3125 -1.875,2.71875 l -0.65625,2.0625 q -0.28125,0.9375 -0.46875,2.625 -0.09375,1.59375 -0.09375,2.25 z m -41.25,-95.343752 q -0.375,-1.96875 -1.125,-3.5625 -0.75,-1.6875 -1.78125,-3.28125 v 7.40625 z m -10.59375,8.625002 q 1.875,0.5625 3.1875,1.59375 -1.59375,1.59375 -3.5625,2.4375 l -1.03125,-1.875 q 0,-1.40625 1.40625,-2.15625 z"
         id="path21952"
         inkscape:connector-curvature="0" />
    </g>
  </g>
</svg>
