<?xml version="1.0" encoding="UTF-8" standalone="no"?>
<!-- Created with Inkscape (http://www.inkscape.org/) -->

<svg
   xmlns:dc="http://purl.org/dc/elements/1.1/"
   xmlns:cc="http://creativecommons.org/ns#"
   xmlns:rdf="http://www.w3.org/1999/02/22-rdf-syntax-ns#"
   xmlns:svg="http://www.w3.org/2000/svg"
   xmlns="http://www.w3.org/2000/svg"
   xmlns:sodipodi="http://sodipodi.sourceforge.net/DTD/sodipodi-0.dtd"
   xmlns:inkscape="http://www.inkscape.org/namespaces/inkscape"
   width="38.050392mm"
   height="37.727928mm"
   viewBox="0 0 38.050392 37.727928"
   version="1.1"
   id="svg23647"
   inkscape:version="0.92.4 (5da689c313, 2019-01-14)"
   sodipodi:docname="E16A.svg">
  <defs
     id="defs23641" />
  <sodipodi:namedview
     id="base"
     pagecolor="#ffffff"
     bordercolor="#666666"
     borderopacity="1.0"
     inkscape:pageopacity="0.0"
     inkscape:pageshadow="2"
     inkscape:zoom="0.35"
     inkscape:cx="-351.83008"
     inkscape:cy="-369.04758"
     inkscape:document-units="mm"
     inkscape:current-layer="layer1"
     showgrid="false"
     fit-margin-top="0"
     fit-margin-left="0"
     fit-margin-right="0"
     fit-margin-bottom="0"
     inkscape:window-width="1920"
     inkscape:window-height="1017"
     inkscape:window-x="-8"
     inkscape:window-y="-8"
     inkscape:window-maximized="1" />
  <metadata
     id="metadata23644">
    <rdf:RDF>
      <cc:Work
         rdf:about="">
        <dc:format>image/svg+xml</dc:format>
        <dc:type
           rdf:resource="http://purl.org/dc/dcmitype/StillImage" />
        <dc:title></dc:title>
      </cc:Work>
    </rdf:RDF>
  </metadata>
  <g
     inkscape:label="Layer 1"
     inkscape:groupmode="layer"
     id="layer1"
     transform="translate(-5.7758747,-13.461565)">
    <g
       aria-label="𓃤"
       transform="scale(0.26458333)"
       style="font-style:normal;font-variant:normal;font-weight:normal;font-stretch:normal;font-size:192px;line-height:1.25;font-family:sans-serif;-inkscape-font-specification:sans-serif;font-variant-ligatures:normal;font-variant-caps:normal;font-variant-numeric:normal;font-feature-settings:normal;text-align:start;letter-spacing:0px;word-spacing:0px;writing-mode:lr-tb;text-anchor:start;fill:#000000;fill-opacity:1;stroke:none"
       id="flowRoot24192">
      <path
         d="m 113.89258,88.753358 h -0.375 q -3.375,0 -3.375,3.1875 v 0.46875 q -0.65625,-0.1875 -1.21875,-0.1875 -0.46875,-0.09375 -1.21875,-0.09375 -0.9375,0 -1.6875,0.46875 -0.75,0.46875 -1.78125,2.25 l -7.968752,-26.53125 -15.65625,36.843752 q 1.21875,0.65625 3.75,0.65625 1.6875,0 3.65625,-0.1875 1.96875,-0.28125 3.9375,-0.5625 1.96875,-0.375 3.84375,-0.75 1.875,-0.46875 3.28125,-0.75 l 7.968752,-1.875 q 3.75,-0.84375 7.78125,-1.3125 4.03125,-0.562502 6.65625,-0.562502 3.1875,0 5.53125,0.656252 2.34375,0.65625 4.59375,2.15625 3.75,2.625 5.8125,5.0625 2.15625,2.34375 3.75,4.21875 3.28125,3.9375 6.5625,10.78125 3.375,6.84375 6.375,16.5 1.3125,4.21875 2.53125,8.8125 1.3125,4.5 2.53125,9.1875 1.3125,4.59375 2.4375,9.09375 1.125,4.5 2.15625,8.625 0.9375,3.75 1.40625,6.375 0.46875,2.53125 0.46875,4.125 0,2.8125 -1.125,4.6875 -1.125,1.875 -3.375,1.875 -2.625,0 -3.9375,-2.0625 -1.3125,-2.15625 -2.4375,-7.78125 -1.78125,-8.71875 -2.90625,-15.84375 -1.03125,-7.21875 -1.78125,-13.21875 -0.65625,-6 -1.3125,-10.875 -0.65625,-4.96875 -1.59375,-9.1875 h -5.53125 l -4.3125,1.5 q -3.9375,1.3125 -7.40625,3.46875 -3.375,2.0625 -4.59375,4.59375 v 49.40625 l -1.59375,1.5 H 39.830078 l -1.40625,-1.78125 v -49.3125 q -2.4375,-4.21875 -6.5625,-6.28125 -4.03125,-2.0625 -8.625,-3.09375 l -1.40625,-1.78125 q 0.375,-2.71875 4.6875,-4.125 4.3125,-1.5 11.34375,-1.5 h 18.28125 q 4.03125,-2.4375 6,-5.625 1.96875,-3.28125 2.25,-8.0625 0,-5.0625 -1.125,-8.71875 -1.03125,-3.656252 -3.1875,-6.656252 -4.40625,-6.09375 -18.375,-6.1875 -1.5,0 -4.125,0.09375 -2.53125,0 -5.0625,0.09375 -3,0.09375 -6.28125,0.1875 l -1.40625,-1.21875 q -0.28125,-1.125 -0.375,-1.59375 -0.09375,-0.5625 -0.09375,-1.03125 0,-0.375 0.09375,-0.84375 0.09375,-0.5625 0.375,-1.6875 l 1.40625,-1.21875 6.9375,-0.9375 q 6.1875,-0.84375 8.0625,-2.90625 1.875,-1.875 4.03125,-2.625 l 6.65625,-1.78125 q 0.75,-0.1875 1.3125,-0.28125 0.5625,-0.1875 0.84375,-0.28125 2.71875,-5.15625 3.375,-11.0625 0.65625,-5.90625 0.65625,-11.625 l 2.90625,-0.75 q 2.4375,5.4375 3.75,11.0625 1.3125,5.53125 1.3125,11.15625 0,1.6875 -0.1875,3.375 -0.09375,1.6875 -0.28125,3.46875 3.09375,10.96875 6,15.75 2.90625,4.968752 6.46875,7.593752 l 18.9375,-44.531252 1.3125,-0.09375 z m 8.4375,54.843752 H 41.423828 v 46.875 h 27.28125 v -28.5 l 1.40625,-1.78125 h 23.53125 l 1.59375,1.5 v 28.78125 h 27.093752 z m 0.1875,-24.84375 -4.5,-6.09375 2.4375,-1.40625 9.9375,13.21875 q 0,0.1875 0,0.5625 0.0937,0.375 0.1875,0.84375 -0.46875,2.15625 -2.34375,2.8125 -1.875,0.5625 -4.40625,0.5625 -2.34375,0 -4.125,-0.1875 -1.78125,-0.1875 -3.5625,-0.375 -1.6875,-0.28125 -3.65625,-0.46875 -1.96875,-0.1875 -4.78125,-0.1875 -0.75,0.1875 -2.0625,0.84375 -1.3125,0.65625 -2.71875,1.125 h 36.28125 q -0.28125,-1.03125 -0.84375,-3.28125 -0.46875,-2.34375 -1.21875,-5.90625 -0.375,-1.6875 -0.9375,-3.65625 -0.5625,-1.96875 -1.21875,-3.75 -0.5625,-1.875 -1.125,-3.375 -0.46875,-1.5 -0.75,-2.25 -2.34375,-3.09375 -5.8125,-3.9375 -3.46875,-0.9375 -7.6875,-0.9375 h -1.3125 q -6.09375,0.28125 -16.96875,3.1875 -11.156252,2.8125 -16.968752,2.8125 -4.03125,0 -6.375,-1.78125 -1.21875,-0.9375 -2.625,-2.25 -1.40625,-1.3125 -3,-2.90625 -3.375,-3.281252 -6.5625,-11.906252 -3.28125,-8.8125 -3.28125,-10.59375 0.1875,-1.59375 0.375,-3.375 0.28125,-1.875 0.28125,-2.90625 -0.1875,-3.9375 -0.65625,-7.59375 -0.46875,-3.65625 -1.59375,-7.3125 -0.28125,4.3125 -1.40625,9.65625 -1.125,5.4375 -2.625,7.59375 -1.40625,2.25 -6.375,3.28125 l -5.15625,1.03125 q -3.09375,3.84375 -10.125,4.96875 -6.84375,0.9375 -7.6875,1.125 0,0.1875 -0.09375,0.46875 -0.09375,0.28125 -0.1875,0.46875 l 0.28125,0.84375 q 3.28125,0 6.65625,-0.09375 3.375,-0.1875 6.1875,-0.1875 h 2.71875 q 13.5,0.28125 18.84375,6.65625 5.34375,6.375002 5.34375,16.031252 0,9 -4.40625,13.6875 -4.5,4.78125 -7.3125,4.78125 -2.15625,0 -4.96875,0 -2.8125,0 -5.34375,-0.0937 -3,-0.0937 -6.09375,-0.1875 -3.1875,0 -6.375,0.375 -3.09375,0.375 -5.71875,1.3125 h 37.6875 q 1.78125,-3.65625 3.75,-4.78125 1.96875,-1.125 4.3125,-1.125 2.4375,0 4.78125,0.5625 2.34375,0.5625 3.9375,0.5625 4.6875,0 14.71875,-4.21875 9.937502,-4.21875 15.468752,-4.21875 2.25,0 4.78125,0.46875 2.625,0.46875 4.875,1.125 z m -81.843752,21.84375 h 82.312502 q 1.59375,-2.71875 4.21875,-4.5 2.71875,-1.78125 5.71875,-3.09375 H 32.423828 q 2.53125,1.3125 4.6875,3.28125 2.15625,1.875 3.5625,4.3125 z m 31.03125,49.875 h 20.53125 v -27.28125 h -20.53125 z m 55.875002,-64.6875 -2.8125,-3.5625 q -2.4375,-0.65625 -4.78125,-1.21875 -1.96875,-0.46875 -4.125,-0.84375 -2.15625,-0.375 -3.46875,-0.375 -5.90625,0 -15.750002,4.3125 -9.84375,4.21875 -15.1875,4.21875 -1.125,0 -2.4375,-0.1875 -1.21875,-0.1875 -2.4375,-0.375 -1.125,-0.28125 -2.15625,-0.46875 -1.03125,-0.1875 -1.59375,-0.1875 -1.3125,0 -2.4375,0.65625 -1.03125,0.5625 -2.15625,2.25 h 30.84375 q 1.312502,-2.4375 4.031252,-3.46875 2.8125,-1.125 5.4375,-1.125 1.875,0 3.84375,0.1875 1.96875,0.1875 4.125,0.5625 2.25,0.375 3.75,0.5625 1.59375,0.0937 2.4375,0.0937 1.125,0 2.71875,-0.1875 1.59375,-0.28125 2.15625,-0.84375 z m 23.34375,12 q 0.0937,1.40625 0.375,3.65625 0.375,2.15625 0.65625,4.3125 0.28125,2.15625 0.46875,3.84375 0.28125,1.6875 0.375,2.25 0.375,3.5625 0.75,6.5625 0.46875,2.90625 0.75,5.15625 0.375,2.25 0.5625,3.65625 0.28125,1.3125 0.375,1.59375 1.03125,4.96875 1.6875,8.71875 0.75,3.65625 1.3125,6.09375 0.65625,2.71875 1.21875,4.03125 0.65625,1.21875 1.6875,1.3125 0.46875,0 0.9375,-0.75 0.46875,-0.84375 0.46875,-1.96875 0,-3 -0.5625,-6.09375 -0.5625,-3.09375 -1.5,-6.46875 -0.9375,-3.46875 -2.25,-8.71875 -1.21875,-5.25 -2.625,-10.59375 -1.3125,-5.34375 -2.625,-9.84375 -1.21875,-4.59375 -2.0625,-6.75 z m -52.875002,-73.593752 7.500002,25.59375 q 0.1875,-0.09375 0.46875,-0.1875 0.5625,-0.1875 0.84375,-0.1875 0.65625,0 1.40625,0.28125 0.0937,-0.46875 0.375,-0.84375 0.28125,-0.46875 0.5625,-0.75 l 0.65625,-0.65625 z m 39.562502,48.562502 q 2.34375,6.1875 3.1875,10.5 0.9375,4.21875 1.5,6.75 h 4.03125 q -0.46875,-1.40625 -1.21875,-3.46875 -0.75,-2.0625 -1.875,-4.40625 -1.125,-2.34375 -2.53125,-4.78125 -1.40625,-2.4375 -3.09375,-4.59375 z"
         id="path24200"
         inkscape:connector-curvature="0" />
    </g>
  </g>
</svg>
