<?xml version="1.0" encoding="UTF-8" standalone="no"?>
<!-- Created with Inkscape (http://www.inkscape.org/) -->

<svg
   xmlns:dc="http://purl.org/dc/elements/1.1/"
   xmlns:cc="http://creativecommons.org/ns#"
   xmlns:rdf="http://www.w3.org/1999/02/22-rdf-syntax-ns#"
   xmlns:svg="http://www.w3.org/2000/svg"
   xmlns="http://www.w3.org/2000/svg"
   xmlns:sodipodi="http://sodipodi.sourceforge.net/DTD/sodipodi-0.dtd"
   xmlns:inkscape="http://www.inkscape.org/namespaces/inkscape"
   width="31.625977mm"
   height="32.543777mm"
   viewBox="0 0 31.625977 32.543777"
   version="1.1"
   id="svg24771"
   inkscape:version="0.92.4 (5da689c313, 2019-01-14)"
   sodipodi:docname="E17A.svg">
  <defs
     id="defs24765" />
  <sodipodi:namedview
     id="base"
     pagecolor="#ffffff"
     bordercolor="#666666"
     borderopacity="1.0"
     inkscape:pageopacity="0.0"
     inkscape:pageshadow="2"
     inkscape:zoom="0.35"
     inkscape:cx="-374.6875"
     inkscape:cy="-328.95373"
     inkscape:document-units="mm"
     inkscape:current-layer="layer1"
     showgrid="false"
     fit-margin-top="0"
     fit-margin-left="0"
     fit-margin-right="0"
     fit-margin-bottom="0"
     inkscape:window-width="1920"
     inkscape:window-height="1017"
     inkscape:window-x="-8"
     inkscape:window-y="-8"
     inkscape:window-maximized="1" />
  <metadata
     id="metadata24768">
    <rdf:RDF>
      <cc:Work
         rdf:about="">
        <dc:format>image/svg+xml</dc:format>
        <dc:type
           rdf:resource="http://purl.org/dc/dcmitype/StillImage" />
        <dc:title></dc:title>
      </cc:Work>
    </rdf:RDF>
  </metadata>
  <g
     inkscape:label="Layer 1"
     inkscape:groupmode="layer"
     id="layer1"
     transform="translate(-11.823568,-29.253883)">
    <g
       aria-label="𓃦"
       transform="scale(0.26458333)"
       style="font-style:normal;font-variant:normal;font-weight:normal;font-stretch:normal;font-size:192px;line-height:1.25;font-family:sans-serif;-inkscape-font-specification:sans-serif;font-variant-ligatures:normal;font-variant-caps:normal;font-variant-numeric:normal;font-feature-settings:normal;text-align:start;letter-spacing:0px;word-spacing:0px;writing-mode:lr-tb;text-anchor:start;fill:#000000;fill-opacity:1;stroke:none"
       id="flowRoot25316">
      <path
         d="m 55.28125,220.90961 8.90625,-39.75 q -2.90625,-2.8125 -6.65625,-10.03125 -3.75,-7.125 -3.75,-14.0625 0,-3.28125 0.84375,-6.65625 0.9375,-3.375 2.8125,-6.375 l 2.34375,-3.75 q 1.125,-1.875 1.96875,-3.5625 0.9375,-1.6875 0.9375,-2.4375 -0.28125,-1.59375 -0.9375,-3.375 -0.65625,-1.78125 -0.65625,-4.3125 0,-1.3125 0.1875,-3.09375 0.28125,-1.875 0.5625,-3.28125 l 0.5625,-4.125 q 0.28125,-1.96875 0.28125,-4.03125 0.5625,-0.46875 1.125,-0.75 0.65625,-0.375 1.21875,-0.75 1.3125,0.65625 2.0625,2.71875 0.84375,2.0625 1.5,6.84375 0.75,-2.34375 1.59375,-4.875 0.84375,-2.625 1.59375,-3.9375 l 3,0.46875 v 19.03125 q 3.75,3.1875 11.0625,4.3125 7.125,0.9375 10.5,2.4375 l 1.125,1.40625 q 0,3.28125 -1.3125,4.875 -1.21875,1.5 -6.65625,1.78125 -1.3125,0 -3,0 -1.59375,0 -3.1875,-0.0937 -1.78125,0 -3.65625,-0.0937 -2.4375,0 -4.6875,0.375 -2.25,0.375 -3.9375,1.40625 -1.6875,0.9375 -2.71875,2.8125 -1.03125,1.78125 -1.03125,4.6875 0,1.21875 0.28125,2.34375 l 0.84375,1.125 q 3.84375,2.71875 9.9375,4.21875 6.1875,1.5 16.03125,1.5 0.375,-0.1875 2.8125,-0.84375 2.4375,-0.65625 7.03125,-1.875 4.59375,-1.21875 7.875,-1.875 3.375,-0.65625 5.53125,-0.65625 12.9375,0 22.875,15.28125 10.03125,15.46875 16.875,33.65625 6.84375,18.28125 6.84375,20.71875 v 0.75 q -0.28125,1.875 -1.125,3.1875 -0.84375,1.3125 -1.875,1.3125 -1.78125,0 -4.3125,-3.1875 -2.4375,-3.28125 -4.21875,-8.90625 l -1.3125,-3.9375 q -0.375,-1.03125 -0.9375,-3.28125 -0.5625,-2.34375 -1.3125,-5.34375 -0.65625,-3.09375 -1.5,-6.75 -0.84375,-3.75 -1.78125,-7.59375 -1.875,-7.875 -4.5,-13.21875 -2.625,-5.34375 -6.09375,-9 0.28125,3.375 0.9375,7.3125 0.65625,3.9375 1.59375,7.96875 0.9375,3.9375 2.15625,7.6875 1.21875,3.75 2.53125,6.65625 1.03125,0.75 1.59375,1.40625 0.65625,0.5625 1.125,1.21875 2.25,2.71875 2.25,4.6875 v 9.5625 q 0.0937,1.125 0.28125,2.15625 0.1875,0.84375 0.28125,1.6875 0.0937,0.84375 0.0937,1.3125 0,3.09375 -0.28125,5.15625 -0.1875,2.0625 -0.46875,3.28125 l -1.5,1.03125 h -10.5 l -1.40625,-1.78125 q 0,-2.8125 1.125,-4.21875 1.125,-1.40625 2.90625,-1.40625 1.03125,0 2.34375,0.5625 0.28125,-2.625 0.28125,-5.25 0,-2.0625 -0.28125,-5.25 -0.28125,-3.28125 -0.375,-7.78125 l -1.03125,-1.3125 q -3.9375,-4.78125 -7.59375,-9.5625 -3.5625,-4.875 -6.46875,-10.3125 l -3.5625,6 q -2.90625,4.6875 -2.90625,8.53125 0,1.40625 0.28125,2.625 -0.0937,0.46875 -0.1875,0.84375 0,0.375 0,0.5625 -1.59375,2.4375 -3.1875,5.90625 -1.59375,3.375 -3.1875,7.875 -1.59375,4.5 -3,7.875 -1.40625,3.28125 -2.71875,5.53125 -0.46875,0.1875 -0.84375,0.28125 -0.28125,0.1875 -0.46875,0.28125 h -10.5937 l -1.40625,-1.78125 v -0.84375 q 0.1875,-2.4375 1.125,-3.46875 0.9375,-1.125 2.71875,-1.125 0.84375,0 2.15625,0.375 1.3125,0.28125 2.625,0.65625 1.875,-2.25 3.1875,-5.53125 1.3125,-3.375 2.34375,-8.15625 0.1875,-1.03125 0.5625,-2.625 0.375,-1.59375 0.75,-3.1875 0.375,-1.78125 0.84375,-3.9375 l 4.59375,-27.84375 q -13.21875,0 -18.75,3.84375 -5.4375,3.75 -15.1875,3.75 2.53125,7.6875 3.375,12.84375 0.46875,2.53125 0.65625,6.375 0.28125,3.84375 0.28125,9.1875 v 2.15625 q 0,0.9375 -0.09375,3 0,1.96875 -0.09375,5.0625 -0.09375,3.09375 -0.1875,5.53125 0,2.4375 0,4.21875 l -1.59375,1.5 H 73.28125 L 71.875,231.69086 q 0,-1.5 0.46875,-2.8125 0.46875,-1.40625 1.5,-2.53125 l 0.9375,-0.375 q 0.75,0 1.5,0.28125 0.84375,0.28125 1.59375,0.65625 -0.28125,-9.09375 -1.40625,-17.90625 -1.03125,-8.90625 -3.75,-17.71875 -4.03125,5.15625 -5.34375,13.875 -1.3125,8.625 -2.0625,9.84375 l -2.15625,3.1875 q -1.5,2.25 -3,6.84375 -1.59375,4.78125 -3.65625,7.875 l -1.3125,0.5625 h -9.09375 l -1.40625,-1.78125 q 0,-2.71875 0.9375,-4.3125 0.9375,-1.59375 2.4375,-1.59375 0.84375,0.0937 1.5,0.46875 0.65625,0.375 1.40625,1.03125 1.6875,-0.5625 2.8125,-3 z m 51.75,4.875 q 0.65625,-1.875 1.6875,-4.78125 1.125,-2.90625 2.25,-6 1.21875,-3.09375 2.34375,-5.90625 1.21875,-2.8125 2.25,-4.5 -0.28125,-1.21875 -0.28125,-2.625 0,-2.4375 1.03125,-5.25 1.03125,-2.8125 2.34375,-5.15625 1.6875,-3 2.53125,-4.59375 0.84375,-1.59375 1.3125,-2.34375 l 0.5625,-1.03125 q -0.65625,-1.6875 -1.59375,-3.09375 -0.75,-1.21875 -1.875,-2.34375 -1.125,-1.125 -2.71875,-1.59375 l -4.59375,27.75 q -0.9375,3.65625 -1.78125,6.75 -0.75,2.625 -1.3125,4.96875 -0.5625,2.34375 -0.75,2.8125 -0.1875,0.5625 -0.84375,2.15625 -0.65625,1.5 -1.5,3.28125 -0.75,1.6875 -1.59375,3.28125 -0.75,1.5 -1.125,2.0625 l -1.78125,0.0937 -5.0625,-0.5625 -0.46875,1.3125 h 8.53125 L 106,228.12836 q 0.1875,-0.5625 0.46875,-1.125 0.28125,-0.5625 0.5625,-1.21875 z M 148,192.31586 q 1.3125,4.3125 2.0625,8.8125 0.84375,4.5 2.0625,8.8125 l 1.40625,4.78125 q 1.5,4.96875 3.375,9.28125 1.875,4.3125 4.03125,6.1875 0.1875,-0.75 0.1875,-1.21875 v -1.21875 q -6,-17.90625 -8.4375,-23.8125 -1.3125,-3 -2.34375,-6 -1.03125,-3 -2.34375,-5.625 z m -9.84375,9.65625 q 0.375,0.46875 1.125,1.40625 0.84375,0.84375 1.5,1.96875 0.75,1.03125 1.3125,2.0625 0.5625,0.9375 0.5625,1.5 v 2.90625 l 1.03125,8.8125 v 1.59375 q 0,1.78125 -0.1875,3.375 -0.1875,1.5 -0.65625,3.375 l -2.0625,0.5625 -2.90625,-0.9375 -0.84375,1.875 h 7.875 q 0.375,-1.59375 0.375,-3.5625 0,-0.84375 -0.0937,-3.28125 -0.0937,-2.4375 -0.28125,-5.15625 -0.1875,-3.09375 -0.28125,-6.84375 0,-0.75 0,-1.21875 0.0937,-0.5625 0.1875,-1.03125 -0.28125,-0.84375 -0.46875,-1.40625 -0.0937,-0.65625 -0.375,-1.21875 -0.28125,-0.65625 -1.03125,-1.40625 -0.75,-0.75 -2.25,-1.875 -0.84375,-1.21875 -1.5,-2.53125 -1.40625,-2.4375 -2.25,-5.34375 -2.0625,-6.5625 -3.28125,-13.21875 -1.125,-6.65625 -1.125,-13.6875 -2.90625,-3.375 -6.65625,-5.25 -3.65625,-1.875 -8.71875,-1.875 -2.34375,0 -5.8125,0.84375 -3.46875,0.84375 -7.125,1.96875 -3.5625,1.03125 -6.65625,1.875 -3.09375,0.84375 -4.59375,0.84375 -1.59375,0 -4.40625,-0.28125 -2.8125,-0.28125 -7.03125,-0.9375 -8.34375,-1.3125 -12,-3.375 -3.65625,-2.15625 -4.3125,-3.375 -0.375,-0.65625 -0.65625,-1.40625 -0.1875,-0.84375 -0.1875,-2.4375 0,-6.375 3.28125,-9.65625 3.375,-3.28125 11.4375,-3.46875 0.75,0 1.40625,0.0937 0.65625,0 1.59375,0.0937 1.03125,0.0937 2.53125,0.1875 1.5,0.0937 3.9375,0.0937 1.3125,0 2.53125,-0.0937 1.3125,-0.1875 2.625,-0.375 0.5625,-0.9375 0.75,-2.15625 -4.3125,-1.21875 -8.71875,-1.875 -4.3125,-0.65625 -8.53125,-2.34375 -1.875,-0.75 -3.75,-2.0625 -1.78125,-1.40625 -3.28125,-3.09375 -1.5,-1.6875 -2.53125,-3.65625 -1.03125,-1.96875 -1.3125,-4.03125 -0.09375,-0.46875 -0.28125,-1.59375 -0.1875,-1.125 -0.375,-2.4375 -0.28125,-1.5 -0.46875,-3.1875 -0.28125,2.625 -0.65625,6 -0.375,3.28125 -0.375,5.90625 0,1.03125 0.28125,1.96875 l 0.65625,1.875 q 0.1875,0.65625 0.375,1.5 0.1875,0.75 0.1875,1.40625 0,1.125 -0.65625,2.625 -0.5625,1.40625 -2.53125,4.59375 l -2.15625,3.28125 q -0.75,1.125 -1.40625,2.625 -0.65625,1.40625 -1.21875,2.90625 -0.46875,1.5 -0.84375,3 -0.28125,1.5 -0.28125,2.625 0,3.28125 0.84375,6.375 0.84375,3.09375 2.34375,6.5625 2.90625,6.84375 6.9375,10.40625 0.75,0.375 2.8125,1.96875 2.0625,1.5 4.125,4.3125 l 0.9375,1.5 q 1.59375,5.34375 2.625,10.5 1.125,5.0625 1.6875,10.125 0.65625,5.0625 0.9375,10.21875 0.375,5.0625 0.46875,10.40625 l -1.40625,1.125 q -0.46875,-0.0937 -1.03125,-0.1875 -0.5625,-0.0937 -1.125,-0.1875 -0.65625,-0.0937 -1.3125,-0.0937 l -0.46875,1.40625 h 6.1875 q 0,-2.0625 0,-4.40625 0.09375,-2.34375 0.1875,-4.59375 0.09375,-2.25 0.09375,-4.3125 0.09375,-2.0625 0.09375,-3.65625 v -2.8125 q 0,-3.375 -0.28125,-6.46875 -0.28125,-3.09375 -0.65625,-6 -0.375,-2.90625 -1.40625,-6.84375 -0.9375,-3.9375 -2.71875,-9 l 1.40625,-1.78125 q 6.9375,0 10.59375,-1.03125 3.375,-1.125 5.90625,-2.71875 2.34375,-1.6875 8.25,-2.8125 5.71875,-1.125 9.75,-1.125 2.625,0 4.40625,0.65625 1.875,0.5625 3.1875,1.5 1.3125,0.84375 2.15625,1.875 0.9375,0.9375 1.59375,1.59375 0.9375,1.3125 1.6875,2.90625 0.75,1.59375 1.875,4.125 1.21875,2.53125 3.9375,6.75 2.71875,4.21875 6.9375,9.65625 z m -68.25,-76.40625 q 0.5625,0.75 1.03125,1.3125 l 1.125,1.3125 v -10.6875 z m -11.8125,95.25 -3.375,6.75 q -0.28125,0.5625 -0.75,0.9375 -0.46875,0.375 -0.9375,0.5625 Q 52.5625,229.34711 52,229.53461 h -1.875 l -1.96875,-0.75 -0.46875,1.6875 h 6.75 q 0.46875,-0.75 1.125,-1.59375 0.65625,-0.84375 0.9375,-1.6875 l 1.40625,-3.75 q 0.375,-1.03125 0.9375,-2.4375 0.5625,-1.5 1.21875,-3 0.65625,-1.5 1.40625,-2.8125 0.75,-1.3125 1.5,-2.0625 l 1.125,-7.125 q 0.75,-5.15625 2.4375,-9.28125 1.6875,-4.21875 4.96875,-8.71875 -0.75,-1.59375 -2.25,-2.90625 -1.5,-1.3125 -2.4375,-2.0625 z"
         id="path25324"
         inkscape:connector-curvature="0" />
    </g>
  </g>
</svg>
