<?xml version="1.0" encoding="UTF-8" standalone="no"?>
<!-- Created with Inkscape (http://www.inkscape.org/) -->

<svg
   xmlns:dc="http://purl.org/dc/elements/1.1/"
   xmlns:cc="http://creativecommons.org/ns#"
   xmlns:rdf="http://www.w3.org/1999/02/22-rdf-syntax-ns#"
   xmlns:svg="http://www.w3.org/2000/svg"
   xmlns="http://www.w3.org/2000/svg"
   xmlns:sodipodi="http://sodipodi.sourceforge.net/DTD/sodipodi-0.dtd"
   xmlns:inkscape="http://www.inkscape.org/namespaces/inkscape"
   width="36.611717mm"
   height="37.504688mm"
   viewBox="0 0 36.611717 37.504688"
   version="1.1"
   id="svg6478"
   inkscape:version="0.92.4 (5da689c313, 2019-01-14)"
   sodipodi:docname="E18.svg">
  <defs
     id="defs6472" />
  <sodipodi:namedview
     id="base"
     pagecolor="#ffffff"
     bordercolor="#666666"
     borderopacity="1.0"
     inkscape:pageopacity="0.0"
     inkscape:pageshadow="2"
     inkscape:zoom="0.35"
     inkscape:cx="-306.11523"
     inkscape:cy="-359.11789"
     inkscape:document-units="mm"
     inkscape:current-layer="layer1"
     showgrid="false"
     fit-margin-top="0"
     fit-margin-left="0"
     fit-margin-right="0"
     fit-margin-bottom="0"
     inkscape:window-width="1920"
     inkscape:window-height="1017"
     inkscape:window-x="-8"
     inkscape:window-y="-8"
     inkscape:window-maximized="1" />
  <metadata
     id="metadata6475">
    <rdf:RDF>
      <cc:Work
         rdf:about="">
        <dc:format>image/svg+xml</dc:format>
        <dc:type
           rdf:resource="http://purl.org/dc/dcmitype/StillImage" />
        <dc:title></dc:title>
      </cc:Work>
    </rdf:RDF>
  </metadata>
  <g
     inkscape:label="Layer 1"
     inkscape:groupmode="layer"
     id="layer1"
     transform="translate(6.3195109,-16.312037)">
    <g
       aria-label="𓃧"
       transform="scale(0.26458333)"
       style="font-style:normal;font-variant:normal;font-weight:normal;font-stretch:normal;font-size:192px;line-height:1.25;font-family:sans-serif;-inkscape-font-specification:'sans-serif, Normal';font-variant-ligatures:normal;font-variant-caps:normal;font-variant-numeric:normal;font-feature-settings:normal;text-align:start;letter-spacing:0px;word-spacing:0px;writing-mode:lr-tb;text-anchor:start;fill:#000000;fill-opacity:1;stroke:none"
       id="flowRoot7026">
      <path
         d="M 8.2714844,161.0268 H 85.896484 q 0,-1.6875 0.65625,-2.4375 0.75,-0.75 2.4375,-0.75 0.46875,0 1.21875,0.375 0.75,0.375 1.3125,0.65625 0.09375,-0.65625 0.09375,-2.25 0.09375,-1.59375 0.09375,-2.53125 -0.1875,-3.9375 -0.375,-6.1875 -0.09375,-2.34375 -0.1875,-3.5625 -0.09375,-1.21875 -0.09375,-1.59375 0,-0.46875 0,-0.65625 -2.625,-2.625 -5.15625,-5.15625 -2.4375,-2.625 -4.875,-5.25 -4.78125,-5.0625 -7.125,-10.59375 -2.25,-5.34375 -6.5625,-5.625 h -0.9375 q -2.0625,0 -5.53125,0.75 -3.46875,0.65625 -7.40625,1.875 l -4.6875,1.5 q -2.71875,0.9375 -4.6875,1.5 -1.875,0.46875 -3.09375,0.65625 -2.15625,0.375 -4.6875,0.375 -2.4375,-0.0937 -3.9375,-0.0937 -1.40625,-0.0937 -2.625,-0.28125 -5.90625,7.875 -8.8125,13.6875 -2.8125,5.8125 -3.28125,9.375 -0.375,3.375 -2.0625,4.40625 -1.40625,0.9375 -3.84375,5.625 -2.3437496,4.78125 -3.4687496,6.1875 z M 113.08398,173.68305 q -1.3125,-0.375 -3.09375,-2.4375 -1.6875,-2.0625 -3.5625,-6.84375 -0.75,-1.96875 -1.6875,-4.96875 -0.9375,-3 -1.96875,-6.75 -1.03125,-3.84375 -2.25,-8.15625 -1.124996,-4.40625 -2.343746,-9.09375 -0.65625,-2.625 -1.6875,-5.71875 -1.03125,-3.1875 -2.34375,-6.1875 -1.3125,-3.09375 -3,-5.8125 -1.59375,-2.71875 -3.5625,-4.6875 0,0.0937 0,0.84375 0.09375,0.65625 0.1875,1.6875 0.09375,1.03125 0.28125,2.34375 0.1875,1.21875 0.375,2.34375 0.46875,2.34375 1.5,6.1875 1.125,3.75 3.28125,9.09375 2.34375,1.3125 3.46875,3.375 1.21875,2.0625 1.78125,4.21875 0,0.46875 -0.09375,1.59375 -0.09375,1.03125 -0.1875,2.34375 0,1.21875 -0.09375,2.53125 -0.09375,1.21875 -0.09375,2.15625 0,0.9375 0.46875,3.09375 0.46875,2.15625 0.46875,3.75 0,1.21875 -0.375,2.4375 h 3.562496 v 4.6875 H 71.083984 v 37.6875 h -4.6875 v -37.6875 h -77.25 q -1.5,0 -2.625,-1.78125 -1.125,-1.78125 -2.0625,-6.375 -1.6875,-9.09375 -1.6875,-17.8125 0,-4.96875 1.875,-8.90625 l -3.75,-0.65625 q -2.34375,-0.65625 -2.34375,-2.34375 2.90625,-0.9375 4.125,-1.40625 1.3125,-0.5625 2.71875,-0.5625 3.375,0 3.375,4.96875 2.9062504,1.96875 2.9062504,4.59375 0,1.875 -2.8125004,7.78125 -1.3125,2.90625 -1.59375,5.625 -0.1875,2.71875 -0.1875,5.25 0,4.03125 1.96875,6.9375 h 8.2500004 q 0,-1.59375 0.65625,-3 0.65625,-1.5 1.96874998,-1.5 0.84374999,0 1.31250002,0.28125 0.46875,0.28125 1.03125,0.9375 3.28125,-1.59375 5.0625,-7.40625 l 9.4687496,-32.8125 q -5.71875,-7.78125 -8.6249996,-15.28125 -3,-7.781254 -6.65625,-9.656254 -3.75,-1.875 -11.8125004,-1.875 -1.03125,0 -2.0625,0 -1.03125,0 -2.0625,-0.09375 l -3.375,-0.1875 q -2.4375,0 -3.9375,-1.03125 -1.5,-1.03125 -2.15625,-3.65625 l 0.9375,-1.6875 q 1.21875,-0.46875 2.4375,-0.75 1.3125,-0.375 2.625,-0.5625 l 5.34375,-0.65625 q 2.6250004,-0.28125 5.1562504,-0.9375 2.53125,-0.65625 4.6875,-2.25 0.75,-0.65625 1.03125,-0.9375 0.28125,-0.28125 0.46875,-0.46875 v -14.71875 q 1.40624998,1.40625 2.4375,4.21875 0.46875,1.3125 0.75,2.34375 0.28125,1.03125 0.46875,1.6875 l 2.34375,-5.4375 q 0.375,-0.75 0.84375,-1.96875 0.46875,-1.21875 1.21875,-1.96875 l 2.53125,1.125 q 0.09375,1.03125 0.28125,3 0.1875,1.875 0.4687496,4.78125 0.375,2.90625 0.46875,4.5 0.1875,1.59375 0.1875,1.78125 0,1.125 -0.28125,2.0625 -0.28125,0.9375 -0.8437496,2.0625 1.0312496,1.3125 1.9687496,2.71875 0.9375,1.40625 1.96875,2.8125 l 3.75,5.53125 q 2.8125,4.21875 4.96875,6.9375 2.25,2.625004 4.125,3.656254 1.875,1.03125 5.25,1.6875 3.375,0.65625 8.25,0.65625 3.65625,0 6.28125,-0.0937 2.71875,-0.0937 4.78125,-0.28125 2.0625,-0.1875 3.75,-0.46875 1.6875,-0.375 3.28125,-0.9375 6.46875,-2.0625 11.25,-2.0625 10.59375,0 19.875,9.28125 2.53125,2.53125 5.0625,7.125 2.625,4.5 5.0625,9.9375 2.437496,5.34375 4.499996,11.0625 2.15625,5.625 3.75,10.40625 1.6875,4.78125 2.71875,8.0625 1.03125,3.1875 1.21875,3.84375 0.375,1.5 0.9375,3.09375 0.5625,1.5 0.9375,2.90625 0.46875,1.3125 0.75,2.4375 0.375,1.03125 0.375,1.59375 0,0.84375 -0.375,1.875 -0.28125,0.9375 -1.03125,0.9375 z M 8.8339844,153.80805 q -0.28125,0.375 -0.9375,1.21875 -0.5625,0.84375 -1.3125,1.78125 -0.75,0.9375 -1.40625,1.6875 -0.5625,0.75 -0.84375,1.03125 h 1.875 q 0.75,-0.46875 1.59375,-2.0625 0.9375,-1.6875 1.96875,-3.75 1.0312496,-2.0625 2.1562496,-4.03125 1.125,-1.96875 2.25,-3.09375 1.875,-8.15625 5.25,-14.53125 3.46875,-6.375 8.25,-12.5625 l 1.21875,-0.75 q 1.59375,0.0937 3,0.1875 1.21875,0.0937 2.34375,0.1875 1.21875,0 1.78125,0 1.6875,0 3.28125,-0.0937 1.59375,-0.1875 3.28125,-0.84375 9.65625,-3.46875 15.28125,-4.59375 5.625,-1.125 8.625,-1.125 6.9375,0 10.3125,7.3125 1.59375,3.5625 4.40625,7.59375 2.8125,4.03125 7.3125,8.53125 l 4.59375,4.5 0.46875,1.03125 q 0.1875,3.75 0.375,6.65625 0.1875,2.4375 0.28125,4.40625 0.1875,1.875 0.1875,1.59375 0,1.875 -0.1875,3.09375 -0.1875,1.21875 -0.5625,2.34375 h 2.625 l 0.1875,-0.9375 q 0,-0.375 -0.1875,-1.3125 -0.09375,-1.03125 -0.375,-2.15625 -0.1875,-1.21875 -0.375,-2.4375 -0.09375,-1.3125 -0.09375,-2.4375 0,-1.40625 0.1875,-3 0.1875,-1.6875 0.375,-4.03125 -0.46875,-1.6875 -1.6875,-3.28125 -1.21875,-1.6875 -3.375,-3.09375 -1.125,-2.90625 -2.34375,-6.09375 -1.125,-3.1875 -2.0625,-6.375 -0.84375,-3.28125 -1.40625,-6.375 -0.5625,-3.09375 -0.5625,-5.90625 v -2.4375 q -1.03125,-0.9375 -2.71875,-1.875 -1.6875,-0.9375 -3.84375,-1.6875 -2.0625,-0.84375 -4.40625,-1.3125 -2.34375,-0.46875 -4.59375,-0.46875 -4.6875,0 -11.53125,2.0625 -6.75,2.0625 -14.53125,2.0625 -8.0625,0 -14.25,-1.6875 -6.28125,-1.875 -11.4375,-9.562504 l -10.6874996,-15.46875 0.28125,-1.875 q 0.46875,-0.75 0.75,-1.5 0.28125,-0.84375 0.28125,-2.15625 -0.1875,-1.78125 -0.375,-4.40625 -0.09375,-2.71875 -0.375,-4.59375 l -4.03125,9.09375 q -1.5,3.375 -4.3125,5.15625 -2.71875,1.6875 -6,2.625 -3.2812504,0.84375 -6.8437504,1.21875 -3.46875,0.375 -6.46875,1.125 0.1875,0.1875 0.1875,0.375 0,0.09375 0.28125,0.28125 2.8125,0.5625 5.8125,0.5625 12.2812504,0 16.6875004,2.0625 4.59375,2.15625 7.5,9.1875 l 1.4999996,3.468754 q 1.59375,3.84375 3.65625,7.3125 2.0625,3.375 4.5,6.65625 0,0.1875 0,0.5625 0.09375,0.375 0.1875,0.84375 -0.9375,3.28125 -1.78125,6.46875 -0.84375,3.09375 -1.78125,6.28125 l -3.84375,12.65625 q -0.28125,1.03125 -0.75,2.4375 -0.46875,1.40625 -1.03125,2.90625 -0.46875,1.40625 -0.9374996,2.8125 -0.46875,1.40625 -0.84375,2.53125 z"
         id="path7034"
         inkscape:connector-curvature="0" />
    </g>
  </g>
</svg>
