<?xml version="1.0" encoding="UTF-8" standalone="no"?>
<!-- Created with Inkscape (http://www.inkscape.org/) -->

<svg
   xmlns:dc="http://purl.org/dc/elements/1.1/"
   xmlns:cc="http://creativecommons.org/ns#"
   xmlns:rdf="http://www.w3.org/1999/02/22-rdf-syntax-ns#"
   xmlns:svg="http://www.w3.org/2000/svg"
   xmlns="http://www.w3.org/2000/svg"
   xmlns:sodipodi="http://sodipodi.sourceforge.net/DTD/sodipodi-0.dtd"
   xmlns:inkscape="http://www.inkscape.org/namespaces/inkscape"
   width="31.477148mm"
   height="37.579102mm"
   viewBox="0 0 31.477148 37.579102"
   version="1.1"
   id="svg7043"
   inkscape:version="0.92.4 (5da689c313, 2019-01-14)"
   sodipodi:docname="E19.svg">
  <defs
     id="defs7037" />
  <sodipodi:namedview
     id="base"
     pagecolor="#ffffff"
     bordercolor="#666666"
     borderopacity="1.0"
     inkscape:pageopacity="0.0"
     inkscape:pageshadow="2"
     inkscape:zoom="0.35"
     inkscape:cx="-377.54409"
     inkscape:cy="-379.11873"
     inkscape:document-units="mm"
     inkscape:current-layer="layer1"
     showgrid="false"
     fit-margin-top="0"
     fit-margin-left="0"
     fit-margin-right="0"
     fit-margin-bottom="0"
     inkscape:window-width="1920"
     inkscape:window-height="1017"
     inkscape:window-x="-8"
     inkscape:window-y="-8"
     inkscape:window-maximized="1" />
  <metadata
     id="metadata7040">
    <rdf:RDF>
      <cc:Work
         rdf:about="">
        <dc:format>image/svg+xml</dc:format>
        <dc:type
           rdf:resource="http://purl.org/dc/dcmitype/StillImage" />
        <dc:title></dc:title>
      </cc:Work>
    </rdf:RDF>
  </metadata>
  <g
     inkscape:label="Layer 1"
     inkscape:groupmode="layer"
     id="layer1"
     transform="translate(-12.579373,-10.945735)">
    <g
       aria-label="𓃨"
       transform="matrix(0.26458333,0,0,0.26458333,23.434524,-3.0238095)"
       style="font-style:normal;font-variant:normal;font-weight:normal;font-stretch:normal;font-size:192px;line-height:1.25;font-family:sans-serif;-inkscape-font-specification:'sans-serif, Normal';font-variant-ligatures:normal;font-variant-caps:normal;font-variant-numeric:normal;font-feature-settings:normal;text-align:start;letter-spacing:0px;word-spacing:0px;writing-mode:lr-tb;text-anchor:start;fill:#000000;fill-opacity:1;stroke:none"
       id="flowRoot7591">
      <path
         d="M 5.7539062,169.51703 H 33.878906 v -30.1875 h -54.1875 q -19.6875,0 -19.6875,-17.0625 0,-21.1875 16.59375,-21.1875 12.375,0 12.375,9.9375 0,5.90625 -3.09375,9.65625 -3.09375,3.65625 -10.59375,6.09375 -7.5,2.4375 -7.5,4.59375 0,4.5 10.40625,4.5 h 8.4375 q 0,-0.5625 0.09375,-1.21875 0.1875,-0.75 0.75,-0.75 0.46875,0 1.3125,0.28125 0.9375,0.1875 1.4062502,0.1875 0.65625,0 1.40625,-0.65625 0.7500001,-0.75 1.4062501,-1.6875 0.65625,-1.03125 1.125,-2.15625 0.46875,-1.21875 0.75,-2.25 l 0.375,-1.78125 q 0.375,-2.15625 0.5625,-4.125 0.1874999,-1.96875 0.1874999,-3.75 v -1.59375 q -0.09375,-2.0625 -0.1874999,-4.125 0,-2.15625 -0.46875,-4.59375 l -1.03125,-6.09375 q -2.7187501,-2.71875 -5.0625003,-6.28125 -2.34375,-3.65625 -3.46875,-6.9375 -2.15625,-6.65625 -5.71875,-8.71875 -1.78125,-1.03125 -4.6875,-1.40625 -2.90625,-0.46875 -7.3125,-0.65625 -2.0625,0.09375 -2.53125,0.09375 -0.46875,0 -0.65625,0 -3.28125,0 -4.5,-1.21875 l -1.40625,-1.40625 q 0.1875,-0.65625 0.1875,-1.21875 0,-0.65625 0.28125,-1.3125 0.9375,-0.375 1.96875,-0.65625 1.03125,-0.375 2.34375,-0.5625 l 4.59375,-0.84375 q 3.9375,-0.75 5.8125,-1.6875 1.875,-1.03125 2.4375,-1.78125 v -14.0625 h 1.78125 q 0.46875,1.59375 0.84375,3.09375 0.375,1.3125 0.75,2.53125 0.375,1.21875 0.65625,1.96875 1.125,-2.71875 2.0625,-4.78125 0.9375,-2.15625 2.4375,-2.90625 l 2.0625,1.40625 0.46875,7.40625 v 2.15625 q 0,1.3125 -0.09375,2.625 -0.09375,1.3125 -0.28125,2.625 l 10.0312502,15.84375 q 3.28125005,2.0625 7.59375,3.1875 4.4062501,1.03125 10.0312498,1.03125 3.28125,0 6.65625,-0.46875 3.375,-0.46875 6.46875,-1.125 6.28125,-1.40625 10.59375,-1.40625 4.875,0.09375 8.25,2.0625 3.46875,1.875 6.09375,5.625 2.625,3.75 4.78125,8.4375 2.15625,4.59375 4.03125,9.9375 1.96875,5.34375 3.84375,11.34375 1.875,5.90625 4.03125,12.375 h 7.6875 v 3.46875 h -6.46875 q 0.46875,1.5 1.5,4.5 1.03125,2.90625 2.625,7.40625 2.90625,8.71875 2.90625,9.375 v 0.65625 q 0,0.75 -0.46875,1.5 -0.375,0.75 -0.84375,0.75 -0.65625,0 -1.96875,-1.03125 -1.21875,-1.125 -2.25,-2.625 -1.78125,-2.625 -3.46875,-6.9375 -1.59375,-4.3125 -2.90625,-10.5 l -0.75,-3.09375 h -27.75 v 30.1875 h 23.53125 v 3.65625 h -23.53125 v 21.65625 h -3.65625 V 173.17328 H 5.7539062 q -3.84375,0 -8.25,4.125 -4.3124999,4.03125 -8.0625002,4.03125 -1.875,0 -3.5625,-0.65625 -1.59375,-0.65625 -2.90625,-1.78125 -1.21875,-1.125 -1.96875,-2.53125 -0.65625,-1.5 -0.65625,-3.1875 l -3.65625,0.9375 v -4.59375 l 3.65625,0.9375 q 0,-8.15625 9.09375,-8.15625 4.5000003,0 8.3437502,3.65625 3.84375,3.5625 7.96875,3.5625 z m 1.59375,-65.0625 -4.5937499,-0.375 q -0.75,0.75 -1.3125001,1.6875 -0.46874995,0.9375 -0.84374995,1.96875 -0.375,0.9375 -0.5625,1.78125 -0.1875,0.84375 -0.1875,1.40625 v 8.71875 q 0,2.34375 -0.46875,4.21875 -0.46874995,1.78125 -1.21874995,4.125 l -1.3125001,4.03125 q -0.375,1.21875 -1.3124999,2.15625 -0.9375,0.9375 -1.6875,1.6875 H 50.660156 q 0,-0.5625 0.1875,-1.40625 0.28125,-0.84375 1.78125,-0.84375 1.125,0 2.625,0.75 0.46875,-0.9375 0.75,-2.34375 0.375,-1.40625 0.375,-3.84375 0,-1.125 -0.1875,-3.1875 -0.1875,-2.15625 -0.46875,-3.9375 -4.5,-4.5 -8.25,-8.15625 -3.65625,-3.75 -5.4375,-6.9375 -3.46875,-6.46875 -4.5,-7.21875 -0.46875,-0.375 -1.21875,-0.5625 -0.65625,-0.28125 -1.5,-0.28125 -2.71875,0 -5.90625,0.84375 -3.09375,0.84375 -7.21875,2.4375 -8.34375,3.375 -12.8437497,3.375 -0.375,0 -0.75,0 -0.3750001,0 -0.7500001,-0.0937 z m -4.4999999,-3.28125 q 2.1562499,0 3.3749999,0.1875 1.3125,0.0937 2.2500001,0.0937 4.2187497,0 9.6562497,-2.15625 4.40625,-1.6875 8.625,-3 4.21875,-1.40625 7.5,-1.40625 5.8125,0 8.625,6.1875 0.65625,1.5 1.3125,2.8125 0.65625,1.21875 1.5,2.53125 0.9375,1.3125 2.25,3 1.40625,1.59375 3.5625,3.9375 -1.21875,-2.625 -1.875,-4.6875 -0.5625,-2.0625 -0.84375,-4.03125 -0.1875,-1.96875 -0.28125,-4.03125 0,-2.15625 -0.09375,-4.875 v -3.375 l -1.5,-1.3125 q -1.6875,-1.125 -3.75,-1.59375 -1.96875,-0.46875 -4.5,-0.46875 -1.59375,0 -3.5625,0.28125 -1.96875,0.1875 -3.84375,0.5625 l -4.875,1.03125 q -2.625,0.5625 -5.625,0.84375 -3,0.28125 -6,0.28125 -4.5,0 -7.5937498,-0.375 -3.09375,-0.46875 -5.34375,-1.125 -2.15624995,-0.75 -3.84375,-1.6875 -1.59375,-0.9375 -3.1874999,-2.0625 -0.46875,-0.75 -2.15625,-3.28125 -1.5937501,-2.625 -3.4687503,-5.53125 -2.15625,-3.375 -4.78125,-7.5 -0.09375,-0.09375 -0.09375,-0.46875 v -1.59375 q 0,-1.875 0,-3.09375 0.09375,-1.3125 0.09375,-2.25 0,-0.9375 0,-1.6875 0.09375,-0.84375 0.09375,-1.875 l -2.34375,4.875 q -3.46875,7.03125 -10.3125,8.34375 -3.375,0.65625 -5.4375,1.03125 -2.0625,0.375 -2.8125,0.5625 l 8.4375,0.65625 q 3.5625,0.28125 6.09375,0.9375 2.53125,0.5625 4.125,1.59375 3.28125,2.0625 5.71875,8.15625 l 1.21875,3.09375 q 1.7812502,3.84375 3.6562503,6.28125 1.03125,1.125 1.78125,1.96875 0.75,0.84375 1.21875,1.5 0.5624999,0.5625 0.9374999,2.0625 0.46875,1.5 0.75,3.09375 0.375,1.875 0.5625001,4.125 0.65625,-1.78125 1.49999995,-3.28125 0.75,-1.21875 1.49999995,-2.25 0.84375,-1.03125 1.7812501,-1.03125 z m 56.9062497,19.6875 q -0.28125,1.03125 -0.375,2.4375 -0.09375,1.3125 -0.09375,2.625 0,1.78125 0,3.28125 0.09375,1.40625 0.1875,2.0625 l 0.09375,2.34375 -0.5625,2.25 h 5.4375 l -5.34375,-21.65625 q -0.28125,-1.125 -0.84375,-2.90625 -0.5625,-1.78125 -1.5,-4.21875 -0.46875,-1.21875 -1.21875,-2.71875 -0.65625,-1.5 -1.40625,-2.90625 -0.75,-1.5 -1.5,-2.71875 -0.75,-1.3125 -1.3125,-2.15625 v 4.5 q 0,1.40625 0.75,5.15625 0.75,3.65625 3.375,9 z m -95.15625,7.3125 q 1.21875,-1.125 2.90625,-2.15625 1.3125,-0.9375 3.1875,-1.78125 1.875,-0.9375 4.03125,-1.5 2.34375,-0.5625 4.21875,-1.6875 1.96875,-1.21875 3.28125,-2.625 1.40625,-1.5 2.15625,-3.1875 0.75,-1.78125 0.75,-3.46875 0,-3.375 -2.34375,-5.34375 -2.34375,-2.0625 -6.1875,-2.0625 -3.9375,0 -6.46875,1.875 -2.4375,1.875 -3.84375,4.6875 -1.3125,2.8125 -1.875,6.09375 -0.46875,3.1875 -0.46875,5.8125 0,2.0625 0.1875,3.46875 0.1875,1.40625 0.46875,1.875 z m 37.8750003,43.03125 q -0.6562501,-0.1875 -1.3125001,-0.375 -0.56249995,-0.1875 -1.12499995,-0.375 -1.03125,-0.375 -2.06250005,-0.84375 -0.9375,-0.46875 -1.5,-1.125 -1.2187499,-1.3125 -2.9999999,-2.25 -1.7812501,-0.9375 -4.2187503,-0.9375 -2.4375,0 -4.21875,1.5 -1.78125,1.40625 -1.78125,4.6875 0,3.28125 1.59375,5.0625 1.59375,1.78125 4.5,1.78125 1.5000002,0 2.6250002,-0.46875 1.2187501,-0.46875 2.1562501,-1.125 0.9375,-0.75 1.59375,-1.5 0.7499999,-0.75 1.3124999,-1.3125 0.46875,-0.46875 1.4062501,-0.9375 0.93749995,-0.5625 1.87499995,-0.9375 0.46875,-0.1875 1.03124995,-0.375 0.5625,-0.28125 1.1250001,-0.46875 z"
         id="path7599"
         inkscape:connector-curvature="0" />
    </g>
  </g>
</svg>
