<?xml version="1.0" encoding="UTF-8" standalone="no"?>
<!-- Created with Inkscape (http://www.inkscape.org/) -->

<svg
   xmlns:dc="http://purl.org/dc/elements/1.1/"
   xmlns:cc="http://creativecommons.org/ns#"
   xmlns:rdf="http://www.w3.org/1999/02/22-rdf-syntax-ns#"
   xmlns:svg="http://www.w3.org/2000/svg"
   xmlns="http://www.w3.org/2000/svg"
   xmlns:sodipodi="http://sodipodi.sourceforge.net/DTD/sodipodi-0.dtd"
   xmlns:inkscape="http://www.inkscape.org/namespaces/inkscape"
   width="37.678307mm"
   height="37.926365mm"
   viewBox="0 0 37.678307 37.926365"
   version="1.1"
   id="svg25333"
   inkscape:version="0.92.4 (5da689c313, 2019-01-14)"
   sodipodi:docname="E20.svg">
  <defs
     id="defs25327" />
  <sodipodi:namedview
     id="base"
     pagecolor="#ffffff"
     bordercolor="#666666"
     borderopacity="1.0"
     inkscape:pageopacity="0.0"
     inkscape:pageshadow="2"
     inkscape:zoom="0.35"
     inkscape:cx="-371.83008"
     inkscape:cy="-363.33274"
     inkscape:document-units="mm"
     inkscape:current-layer="layer1"
     showgrid="false"
     fit-margin-top="0"
     fit-margin-left="0"
     fit-margin-right="0"
     fit-margin-bottom="0"
     inkscape:window-width="1920"
     inkscape:window-height="1017"
     inkscape:window-x="-8"
     inkscape:window-y="-8"
     inkscape:window-maximized="1" />
  <metadata
     id="metadata25330">
    <rdf:RDF>
      <cc:Work
         rdf:about="">
        <dc:format>image/svg+xml</dc:format>
        <dc:type
           rdf:resource="http://purl.org/dc/dcmitype/StillImage" />
        <dc:title></dc:title>
      </cc:Work>
    </rdf:RDF>
  </metadata>
  <g
     inkscape:label="Layer 1"
     inkscape:groupmode="layer"
     id="layer1"
     transform="translate(-11.067541,-14.77518)">
    <g
       aria-label="𓃩"
       transform="scale(0.26458333)"
       style="font-style:normal;font-variant:normal;font-weight:normal;font-stretch:normal;font-size:192px;line-height:1.25;font-family:sans-serif;-inkscape-font-specification:sans-serif;font-variant-ligatures:normal;font-variant-caps:normal;font-variant-numeric:normal;font-feature-settings:normal;text-align:start;letter-spacing:0px;word-spacing:0px;writing-mode:lr-tb;text-anchor:start;fill:#000000;fill-opacity:1;stroke:none"
       id="flowRoot25878">
      <path
         d="m 125.08008,188.9682 q -2.4375,-4.78125 -4.125,-8.4375 -1.59375,-3.65625 -2.53125,-6.375 -1.6875,-5.4375 -1.6875,-8.71875 0,-1.59375 0.28125,-2.90625 -10.03125,-2.15625 -15.65625,-6.75 -5.531252,-4.5 -9.187502,-4.5 -1.125,0 -1.78125,0.375 -0.65625,0.375 -1.6875,1.40625 l -3.375,16.40625 q -3,13.96875 -3.9375,17.15625 -0.46875,1.59375 -1.3125,3.75 -0.75,2.0625 -1.96875,4.78125 l -1.5,1.03125 q -1.03125,0 -1.875,0.5625 -0.75,0.5625 -1.21875,1.40625 l -1.5,1.03125 h -9 l -1.21875,-0.75 q -0.65625,-1.21875 -0.65625,-2.53125 0,-2.25 1.40625,-3.75 1.40625,-1.59375 3.46875,-1.59375 1.21875,0 2.71875,0.75 2.25,-2.625 3.84375,-6.46875 1.6875,-3.9375 2.71875,-8.25 l 1.125,-5.15625 q 1.59375,-7.3125 2.34375,-14.53125 0.84375,-7.21875 0.84375,-13.96875 0,-5.71875 -0.5625,-11.15625 -0.5625,-5.53125 -1.59375,-10.96875 -2.15625,-10.875 -8.625,-15.28125 -3.9375,0.9375 -7.6875,2.625 -3.75,1.59375 -7.5,3.9375 -7.21875,4.59375 -8.71875,4.59375 h -0.1875 q -1.40625,-0.28125 -2.15625,-1.03125 -0.75,-0.75 -0.75,-2.53125 0,-6.9375 11.25,-16.687498 11.4375,-9.75 20.71875,-11.8125 0.5625,-3.75 0.5625,-7.5 0,-1.96875 -0.1875,-4.3125 -0.1875,-2.4375 -0.5625,-5.34375 -0.1875,-1.40625 -0.46875,-3.09375 -0.1875,-1.78125 -0.375,-3.375 -0.28125,-1.78125 -0.5625,-3.65625 l 2.34375,-1.5 q 1.21875,1.125 2.34375,2.25 1.03125,1.03125 1.96875,2.15625 0.9375,1.125 1.59375,2.0625 l 0.75,-5.53125 2.71875,-0.65625 q 3.46875,3.28125 4.96875,6.375 1.5,3 1.5,6.5625 0,3 -1.6875,10.03125 -0.84375,3.5625 -1.59375,6.28125 -0.65625,2.71875 -1.3125,4.78125 1.96875,3 3.5625,6.1875 1.59375,3.1875 3,6.374998 1.5,3.28125 2.4375,5.53125 1.03125,2.15625 1.875,4.03125 0.9375,1.78125 1.78125,3.65625 0.9375,1.78125 2.250002,4.21875 1.875,3.5625 10.40625,11.4375 4.40625,4.03125 10.6875,10.03125 6.28125,5.90625 14.71875,14.0625 l 4.875,4.78125 q 3.1875,3.5625 5.25,9.84375 0.75,2.15625 1.59375,6.09375 0.9375,3.9375 0.9375,8.71875 0,4.6875 -1.21875,9.46875 0.75,-2.34375 2.15625,-6.46875 1.40625,-4.125 3.1875,-9.28125 1.78125,-5.25 3.84375,-11.15625 2.0625,-5.90625 4.03125,-11.71875 4.6875,-13.59375 10.21875,-29.34375 0.0937,-0.1875 0.0937,-0.65625 0,-0.46875 0,-1.03125 v -2.34375 q 0.1875,-2.4375 0.46875,-4.6875 0.375,-2.34375 0.9375,-4.03125 0.5625,-1.78125 1.40625,-2.8125 0.9375,-1.03125 2.34375,-1.03125 v -6.09375 l 3,6.09375 4.59375,-3 -3.09375,4.5 q 0.375,0.375 0.65625,0.9375 0.28125,0.5625 0.28125,1.40625 0,1.3125 -0.65625,2.8125 -0.65625,1.40625 -1.96875,3.5625 -0.84375,1.5 -2.15625,3.28125 -1.21875,1.78125 -2.53125,3 l -24.65625,72.65625 H 94.705078 l -1.40625,-1.78125 v -1.21875 q 0.375,-2.8125 1.78125,-4.3125 1.5,-1.5 3.46875,-1.5 1.781252,0 4.218752,1.3125 h 20.4375 q 0.84375,-0.46875 1.21875,-1.125 0.46875,-0.75 0.65625,-1.59375 z M 75.580078,87.343202 q -10.125,2.34375 -20.53125,11.34375 -10.21875,8.812498 -10.21875,13.687498 0,0.375 0,0.65625 0.09375,0.28125 0.1875,0.65625 h 0.1875 q 0.65625,-0.65625 1.3125,-1.21875 0.75,-0.5625 1.6875,-1.03125 l 3.375,-1.6875 q 4.21875,-2.25 8.4375,-4.21875 4.21875,-1.96875 9,-3.09375 l 0.9375,0.28125 q 7.59375,5.0625 10.125,15.9375 2.53125,10.875 2.53125,23.15625 0,12.46875 -2.90625,28.40625 -3,16.21875 -9.375,23.90625 -0.84375,0.1875 -1.21875,0.28125 -0.375,0 -0.5625,0.1875 -0.46875,-0.375 -1.03125,-0.5625 -0.5625,-0.28125 -1.125,-0.46875 -1.40625,0 -1.875,0.65625 -0.375,0.65625 -0.375,1.96875 h 7.03125 q 0.84375,-1.125 1.96875,-1.875 1.21875,-0.84375 2.53125,-1.03125 3.375,-8.0625 5.90625,-20.34375 1.3125,-6.28125 2.0625,-10.5 0.84375,-4.21875 1.125,-6.5625 0.46875,-3.46875 2.34375,-5.53125 1.875,-2.15625 4.875,-2.15625 1.5,0 3.375,0.75 1.875,0.75 3.375,1.6875 1.593752,0.9375 2.625002,1.6875 1.03125,0.65625 0.9375,0.65625 3.09375,1.96875 4.03125,2.625 1.03125,0.5625 1.5,0.75 1.96875,0.9375 3.375,1.5 1.5,0.5625 2.71875,0.9375 1.21875,0.28125 2.25,0.5625 1.125,0.1875 2.34375,0.46875 0.84375,-0.28125 2.4375,-0.9375 1.59375,-0.75 2.90625,-0.75 1.125,0 1.78125,0.375 0.65625,0.28125 1.3125,1.03125 l 5.34375,5.4375 -2.25,2.0625 q -2.15625,-2.15625 -3.46875,-3.28125 -1.21875,-1.21875 -1.875,-1.78125 -0.5625,-0.65625 -0.84375,-0.75 -0.1875,-0.1875 -0.28125,-0.1875 -2.34375,0 -3.1875,1.3125 -0.75,1.3125 -0.75,3.28125 0,4.96875 4.21875,13.78125 4.3125,8.71875 4.3125,9.75 0,1.59375 -1.59375,3.65625 -1.59375,1.875 -3.09375,1.875 h -21.1875 q -1.21875,0 -2.0625,-0.5625 -0.843752,-0.5625 -1.968752,-0.5625 -1.3125,0 -1.59375,0.9375 -0.28125,0.9375 -0.375,1.6875 h 48.750002 q 0.5625,-3.28125 0.75,-5.25 0.28125,-2.0625 0.375,-3.75 v -1.59375 q 0,-5.8125 -1.875,-12.1875 -0.9375,-3.09375 -1.6875,-5.0625 -0.75,-1.96875 -1.21875,-2.90625 -1.03125,-1.875 -4.6875,-5.4375 l -20.8125,-19.78125 q -5.90625,-5.625 -9.5625,-9.09375 -3.5625,-3.46875 -5.0625,-4.875 -0.75,-0.65625 -1.687502,-2.0625 -0.9375,-1.5 -2.34375,-4.125 -1.40625,-2.625 -3.28125,-6.5625 -1.875,-3.9375 -4.40625,-9.65625 -4.6875,-10.218748 -5.71875,-11.343748 -0.65625,-0.65625 -0.84375,-1.125 -0.1875,-0.5625 -0.28125,-1.3125 0.65625,-2.15625 1.40625,-4.96875 0.75,-2.8125 1.59375,-6.375 0.84375,-3.5625 1.21875,-6 0.46875,-2.53125 0.46875,-4.6875 -0.1875,-1.96875 -1.03125,-3.84375 -0.84375,-1.96875 -2.625,-3.9375 l -1.03125,7.40625 -2.625,9.75 q -0.75,2.34375 -1.6875,4.59375 -0.84375,2.15625 -1.78125,4.3125 z m 0.1875,-26.4375 0.9375,7.78125 q 0.1875,1.96875 0.28125,3.9375 0.09375,1.96875 0.1875,3.9375 0.75,-2.34375 1.3125,-4.5 0.65625,-2.15625 1.125,-4.40625 -1.3125,-3.9375 -3.84375,-6.75 z m -6.65625,34.03125 q -2.25,1.6875 -3.375,1.6875 -1.125,0 -1.125,-1.6875 0,-1.6875 1.125,-1.6875 1.125,0 3.375,1.6875 z"
         id="path25886"
         inkscape:connector-curvature="0" />
    </g>
  </g>
</svg>
