<?xml version="1.0" encoding="UTF-8" standalone="no"?>
<!-- Created with Inkscape (http://www.inkscape.org/) -->

<svg
   xmlns:dc="http://purl.org/dc/elements/1.1/"
   xmlns:cc="http://creativecommons.org/ns#"
   xmlns:rdf="http://www.w3.org/1999/02/22-rdf-syntax-ns#"
   xmlns:svg="http://www.w3.org/2000/svg"
   xmlns="http://www.w3.org/2000/svg"
   xmlns:sodipodi="http://sodipodi.sourceforge.net/DTD/sodipodi-0.dtd"
   xmlns:inkscape="http://www.inkscape.org/namespaces/inkscape"
   width="34.280079mm"
   height="40.258007mm"
   viewBox="0 0 34.280079 40.258007"
   version="1.1"
   id="svg25895"
   inkscape:version="0.92.4 (5da689c313, 2019-01-14)"
   sodipodi:docname="E20A.svg">
  <defs
     id="defs25889" />
  <sodipodi:namedview
     id="base"
     pagecolor="#ffffff"
     bordercolor="#666666"
     borderopacity="1.0"
     inkscape:pageopacity="0.0"
     inkscape:pageshadow="2"
     inkscape:zoom="0.35"
     inkscape:cx="-328.97266"
     inkscape:cy="-339.01633"
     inkscape:document-units="mm"
     inkscape:current-layer="layer1"
     showgrid="false"
     fit-margin-top="0"
     fit-margin-left="0"
     fit-margin-right="0"
     fit-margin-bottom="0"
     inkscape:window-width="1920"
     inkscape:window-height="1017"
     inkscape:window-x="-8"
     inkscape:window-y="-8"
     inkscape:window-maximized="1" />
  <metadata
     id="metadata25892">
    <rdf:RDF>
      <cc:Work
         rdf:about="">
        <dc:format>image/svg+xml</dc:format>
        <dc:type
           rdf:resource="http://purl.org/dc/dcmitype/StillImage" />
        <dc:title></dc:title>
      </cc:Work>
    </rdf:RDF>
  </metadata>
  <g
     inkscape:label="Layer 1"
     inkscape:groupmode="layer"
     id="layer1"
     transform="translate(0.27181802,-18.877255)">
    <g
       aria-label="𓃪"
       transform="scale(0.26458333)"
       style="font-style:normal;font-variant:normal;font-weight:normal;font-stretch:normal;font-size:192px;line-height:1.25;font-family:sans-serif;-inkscape-font-specification:sans-serif;font-variant-ligatures:normal;font-variant-caps:normal;font-variant-numeric:normal;font-feature-settings:normal;text-align:start;letter-spacing:0px;word-spacing:0px;writing-mode:lr-tb;text-anchor:start;fill:#000000;fill-opacity:1;stroke:none"
       id="flowRoot26440">
      <path
         d="M 0.37890625,175.97211 H 30.378906 v -0.375 q 0,-1.5 1.125,-2.8125 1.125,-1.3125 2.53125,-1.3125 0.9375,0 1.40625,0.1875 0.5625,0.0937 1.03125,0.28125 4.03125,-5.625 5.90625,-17.34375 0.9375,-5.90625 1.40625,-10.59375 0.46875,-4.78125 0.46875,-8.53125 0,-6.75 -1.59375,-15.28125 -1.59375,-8.34375 -6.1875,-11.15625 -4.40625,1.03125 -9.5625,3.9375 -4.96875,2.8125 -6.09375,3.5625 -1.03125,0.75 -1.96875,0.75 h -0.375 q -1.3125,-0.1875 -1.875,-0.84375 -0.46875,-0.75 -0.46875,-2.15625 0,-5.25 7.96875,-12.375 7.875,-7.031252 15.75,-9.187502 0.1875,-1.3125 0.28125,-2.71875 0.09375,-1.40625 0.09375,-2.71875 -0.1875,-3.28125 -0.46875,-6.1875 -0.1875,-2.4375 -0.5625,-4.78125 -0.28125,-2.4375 -0.5625,-3.46875 l 2.34375,-1.5 q 2.4375,1.875 3.9375,4.03125 l 0.375,-3.09375 2.71875,-0.65625 q 2.4375,2.4375 3.5625,4.875 1.21875,2.34375 1.21875,5.25 0,1.125 -0.375,3.28125 -0.375,2.15625 -0.9375,4.5 -0.46875,2.25 -1.03125,4.40625 -0.5625,2.0625 -0.9375,3.1875 1.96875,3.000002 3.375,6.187502 l 2.8125,6.5625 q 4.3125,10.125 7.875,13.40625 1.3125,1.21875 3.65625,3.46875 2.34375,2.15625 4.3125,4.03125 l 8.90625,8.4375 q 2.625,2.53125 5.25,4.96875 2.71875,2.34375 5.15625,5.0625 1.78125,2.8125 2.90625,5.0625 1.21875,2.25 1.96875,4.40625 0.75,2.0625 1.21875,4.21875 0.46875,2.15625 0.84375,4.6875 l 14.906254,-43.21875 q 0,-6.84375 1.03125,-9.65625 1.125,-2.8125 2.8125,-2.8125 v -4.5 l 2.25,4.5 q 1.125,-0.75 2.0625,-1.40625 1.03125,-0.65625 1.40625,-0.84375 l -2.34375,3.375 q 0.28125,0.28125 0.46875,0.75 0.28125,0.375 0.28125,1.03125 0,1.03125 -0.65625,2.4375 -0.65625,1.3125 -1.59375,2.71875 -0.9375,1.40625 -1.875,2.625 -0.84375,1.125 -1.3125,1.6875 l -17.625004,51.65625 h 29.343754 q 0.75,0.75 1.03125,1.03125 0.375,0.28125 0.5625,0.46875 0,4.21875 -1.78125,9.28125 -1.78125,4.96875 -5.4375,10.125 -3.5625,5.0625 -8.90625,9.9375 -5.34375,4.78125 -12.562504,8.4375 -7.21875,3.75 -16.3125,6 -9,2.25 -19.875,2.25 -10.875,0 -19.875,-2.25 -9,-2.15625 -16.21875,-5.90625 -7.21875,-3.65625 -12.5625,-8.4375 -5.3437497,-4.78125 -8.9062498,-9.84375 -3.5624999,-5.0625 -5.34374995,-10.03125 -1.78124995,-5.0625 -1.78124995,-9.28125 z m 1.78125005,3 q 1.3125,8.8125 6.46875,16.40625 5.2499997,7.59375 13.4062497,13.21875 8.15625,5.53125 18.75,8.71875 10.6875,3.1875 22.875,3.1875 12.1875,0 22.875,-3.1875 10.6875,-3.1875 18.843754,-8.71875 8.25,-5.625 13.40625,-13.21875 5.25,-7.59375 6.5625,-16.40625 z M 41.628906,95.440858 q -8.4375,2.625 -15.375,8.718752 -6.65625,6 -7.125,9.84375 4.03125,-2.625 8.34375,-4.78125 4.40625,-2.25 9.1875,-3.28125 l 0.9375,0.28125 q 6,3.75 7.875,13.3125 1.875,9.65625 1.875,16.59375 0,4.6875 -0.65625,10.03125 -0.65625,5.25 -1.96875,11.4375 -2.34375,12.09375 -6.75,17.0625 l -2.15625,0.1875 q -0.5625,-0.375 -1.3125,-0.375 -1.125,0 -1.125,1.21875 h 5.15625 q 0.46875,-0.65625 1.03125,-1.125 0.65625,-0.5625 1.6875,-0.75 1.21875,-2.71875 2.25,-6.1875 1.125,-3.5625 1.96875,-7.78125 0.9375,-4.21875 1.5,-7.59375 0.5625,-3.46875 1.03125,-6.375 0.84375,-5.71875 5.8125,-5.71875 2.0625,0 3.84375,0.9375 1.875,0.84375 3.75,2.34375 4.03125,3 8.25,4.125 l 3.75,1.03125 q 0.75,-0.46875 1.59375,-0.84375 0.84375,-0.46875 1.78125,-0.46875 1.3125,0 2.34375,0.65625 1.03125,0.65625 1.96875,1.59375 l 2.90625,3 -2.25,2.0625 -2.34375,-2.53125 q -0.5625,-0.65625 -1.21875,-1.125 -0.65625,-0.5625 -1.40625,-0.5625 -0.5625,0 -1.03125,0.28125 -0.375,0.28125 -0.75,0.46875 -0.375,1.125 -0.375,2.53125 0,3.84375 3.09375,9.84375 3.1875,6 3.1875,7.125 v 0.5625 q -0.28125,1.59375 -1.40625,2.53125 -1.03125,0.84375 -2.34375,0.84375 h -15.75 q -0.75,-0.0937 -1.3125,-0.28125 -0.5625,-0.1875 -1.125,-0.28125 -0.46875,-0.0937 -0.65625,-0.0937 -0.5625,0 -0.75,0.84375 -0.1875,0.84375 -0.1875,0.9375 h 36 q 0.375,-0.5625 0.75,-2.90625 0.46875,-2.34375 0.46875,-4.59375 0,-4.3125 -1.59375,-8.34375 -1.5,-4.125 -3.5625,-7.21875 -2.15625,-3.46875 -5.25,-6 -3.09375,-2.625 -6,-5.34375 l -8.90625,-8.53125 q -4.3125,-4.03125 -6.65625,-6.1875 -2.25,-2.25 -2.625,-2.71875 -1.875,-2.53125 -3.375,-5.34375 -1.40625,-2.90625 -1.96875,-4.125 l -5.15625,-11.0625 q -0.09375,-0.0937 -0.5625,-1.03125 -0.375,-0.9375 -0.9375,-1.96875 l -1.5,-2.812502 v -0.1875 q 0,-0.09375 -0.09375,-0.09375 0,-0.09375 0,-0.1875 0.375,-1.03125 0.65625,-2.15625 0.375,-1.125 0.65625,-2.15625 0.375,-1.5 0.75,-3.09375 0.46875,-1.59375 0.75,-3.09375 0.28125,-1.5 0.46875,-2.625 0.1875,-1.21875 0.1875,-1.96875 0,-1.5 -0.46875,-3 -0.46875,-1.59375 -1.59375,-3.09375 l -0.65625,4.875 q 0,0.46875 -0.5625,2.15625 -0.46875,1.59375 -1.03125,3.46875 -0.65625,2.25 -1.5,4.875 z m 33.65625,69.375002 q -1.875,-4.03125 -2.71875,-6.5625 -0.84375,-2.53125 -0.84375,-4.78125 0,-0.5625 0,-1.125 0.09375,-0.5625 0.1875,-1.03125 -7.125,-1.6875 -11.71875,-4.96875 -4.59375,-3.28125 -6.375,-3.28125 -0.65625,0 -1.3125,0.375 -0.5625,0.375 -0.9375,0.75 -0.375,1.5 -1.03125,4.78125 -0.5625,3.28125 -1.59375,8.53125 -0.9375,5.15625 -2.25,9.65625 -1.3125,4.40625 -2.90625,8.25 l -0.84375,0.5625 h 11.34375 q 0.28125,-2.25 1.40625,-3.375 1.21875,-1.125 2.90625,-1.125 1.40625,0 3.28125,0.84375 h 15 q 0.84375,-0.5625 1.125,-1.59375 -0.84375,-1.5 -1.40625,-2.90625 z m -33.375,-88.687502 q 0.1875,2.4375 0.375,4.5 0.1875,1.78125 0.28125,3.46875 0.1875,1.6875 0.1875,2.25 l -0.09375,2.4375 1.78125,-9.375 z m -7.6875,23.34375 q 1.03125,0 2.53125,1.218752 -1.875,1.3125 -2.53125,1.3125 -0.84375,0 -0.84375,-1.3125 0,-1.218752 0.84375,-1.218752 z"
         id="path26448"
         inkscape:connector-curvature="0" />
    </g>
  </g>
</svg>
