<?xml version="1.0" encoding="UTF-8" standalone="no"?>
<!-- Created with Inkscape (http://www.inkscape.org/) -->

<svg
   xmlns:dc="http://purl.org/dc/elements/1.1/"
   xmlns:cc="http://creativecommons.org/ns#"
   xmlns:rdf="http://www.w3.org/1999/02/22-rdf-syntax-ns#"
   xmlns:svg="http://www.w3.org/2000/svg"
   xmlns="http://www.w3.org/2000/svg"
   xmlns:sodipodi="http://sodipodi.sourceforge.net/DTD/sodipodi-0.dtd"
   xmlns:inkscape="http://www.inkscape.org/namespaces/inkscape"
   width="37.529491mm"
   height="25.226366mm"
   viewBox="0 0 37.529491 25.226366"
   version="1.1"
   id="svg7608"
   inkscape:version="0.92.4 (5da689c313, 2019-01-14)"
   sodipodi:docname="E21.svg">
  <defs
     id="defs7602" />
  <sodipodi:namedview
     id="base"
     pagecolor="#ffffff"
     bordercolor="#666666"
     borderopacity="1.0"
     inkscape:pageopacity="0.0"
     inkscape:pageshadow="2"
     inkscape:zoom="0.35"
     inkscape:cx="-334.6875"
     inkscape:cy="-354.76047"
     inkscape:document-units="mm"
     inkscape:current-layer="layer1"
     showgrid="false"
     fit-margin-top="0"
     fit-margin-left="0"
     fit-margin-right="0"
     fit-margin-bottom="0"
     inkscape:window-width="1920"
     inkscape:window-height="1017"
     inkscape:window-x="-8"
     inkscape:window-y="-8"
     inkscape:window-maximized="1" />
  <metadata
     id="metadata7605">
    <rdf:RDF>
      <cc:Work
         rdf:about="">
        <dc:format>image/svg+xml</dc:format>
        <dc:type
           rdf:resource="http://purl.org/dc/dcmitype/StillImage" />
        <dc:title></dc:title>
      </cc:Work>
    </rdf:RDF>
  </metadata>
  <g
     inkscape:label="Layer 1"
     inkscape:groupmode="layer"
     id="layer1"
     transform="translate(-1.2402344,-29.743259)">
    <g
       aria-label="𓃫"
       transform="scale(0.26458333)"
       style="font-style:normal;font-variant:normal;font-weight:normal;font-stretch:normal;font-size:192px;line-height:1.25;font-family:sans-serif;-inkscape-font-specification:'sans-serif, Normal';font-variant-ligatures:normal;font-variant-caps:normal;font-variant-numeric:normal;font-feature-settings:normal;text-align:start;letter-spacing:0px;word-spacing:0px;writing-mode:lr-tb;text-anchor:start;fill:#000000;fill-opacity:1;stroke:none"
       id="flowRoot8156">
      <path
         d="m 61.21875,125.63422 -9.09375,20.4375 q 3.5625,2.34375 5.53125,7.03125 1.96875,4.6875 3,10.03125 l 1.125,5.90625 q 5.71875,3.5625 10.875,5.4375 5.25,1.875 8.71875,1.875 4.3125,0 9.5625,-1.78125 2.71875,-0.9375 8.625,-2.0625 6,-1.21875 15.375,-2.53125 2.0625,0 9.84375,4.5 1.96875,1.125 4.125,3.375 2.25,2.15625 4.3125,4.78125 2.15625,2.625 4.03125,5.4375 1.96875,2.8125 3.28125,5.34375 v -62.71875 q -0.1875,-0.75 -0.65625,-2.25 -0.46875,-1.59375 -1.03125,-3.28125 -0.46875,-1.6875 -0.9375,-3.1875 -0.375,-1.5 -0.375,-2.34375 0,-1.875 2.15625,-2.625 l -3,-4.5 5.53125,4.5 3.84375,-4.59375 -1.6875,4.59375 q 1.03125,0.46875 1.59375,1.125 0.5625,0.5625 0.5625,1.96875 0,0.84375 -0.28125,2.34375 -0.28125,1.40625 -0.75,3 -0.375,1.59375 -0.9375,3 -0.46875,1.40625 -0.84375,2.15625 v 70.40625 q 0,1.40625 -0.46875,3.09375 -0.375,1.6875 -1.3125,3.09375 -0.46875,0.1875 -0.84375,0.28125 -0.28125,0.1875 -0.46875,0.28125 H 93.5625 q -1.40625,0 -2.0625,-0.9375 -0.65625,-0.84375 -0.65625,-1.96875 0,-1.125 0.65625,-2.0625 0.65625,-0.9375 2.0625,-1.03125 l 29.53125,-1.5 0.28125,-0.65625 -0.65625,-1.78125 -8.4375,-6.65625 q -6.09375,0.1875 -10.6875,0.65625 -4.5,0.46875 -7.59375,1.21875 -3,0.75 -5.34375,1.5 -2.25,0.75 -3.75,1.5 -2.90625,1.40625 -10.875,1.96875 l -6.46875,0.46875 q -3.28125,0.28125 -6.5625,0.65625 -3.1875,0.28125 -6.375,0.9375 l -7.03125,7.125 -1.3125,0.5625 h -39.375 q -1.5,0 -2.90625,-0.65625 -1.3125,-0.5625 -1.3125,-1.78125 0,-0.1875 0.375,-0.84375 0.375,-0.75 1.59375,-2.25 l 32.0625,-2.4375 q 2.25,-3.375 3.9375,-6.09375 1.6875,-2.71875 2.8125,-5.15625 1.125,-2.53125 1.6875,-4.875 0.65625,-2.34375 0.65625,-5.0625 0,-6.28125 -2.53125,-9.5625 -2.4375,-3.375 -6.375,-3.375 -3.375,0 -8.4375,2.4375 -2.4375,1.21875 -4.5,2.53125 -2.0625,1.3125 -3.65625,2.625 -3.28125,2.71875 -5.34375,2.71875 -1.3125,0 -2.71875,-1.03125 -1.3125,-1.03125 -1.3125,-2.53125 0,-1.59375 1.21875,-3.28125 1.21875,-1.78125 2.15625,-2.90625 l 5.90625,-6.84375 q 4.78125,-5.625 10.125,-9.09375 5.4375,-3.46875 12.84375,-4.5 l -1.40625,-22.6875 h 4.78125 v 22.96875 L 57,123.47797 Z m -15.5625,23.15625 q -3.28125,0.5625 -5.90625,1.5 -2.53125,0.84375 -4.78125,2.0625 l -1.78125,1.03125 q -4.03125,3 -7.125,6.09375 -3,3.09375 -6.28125,6.84375 -3.84375,4.40625 -3.84375,6 0.1875,0.65625 1.59375,0.65625 2.90625,-2.34375 5.90625,-4.125 3,-1.875 6.1875,-3.375 6.46875,-3 9.65625,-3 3.84375,0 7.6875,3.9375 3.84375,3.84375 3.84375,11.71875 0,8.4375 -4.21875,14.90625 -2.0625,3.28125 -3.5625,5.34375 -1.5,2.0625 -2.53125,3.65625 l -0.84375,0.5625 q -0.5625,0.0937 -2.25,0.1875 -1.59375,0.0937 -3.9375,0.28125 -2.25,0.0937 -4.96875,0.28125 -2.71875,0.0937 -5.53125,0.1875 -6.5625,0.375 -14.53125,0.65625 l -0.28125,0.5625 h 39.5625 q 2.71875,-2.71875 4.3125,-4.40625 1.6875,-1.6875 2.34375,-2.4375 1.21875,-1.40625 5.53125,-1.40625 22.3125,-1.96875 23.71875,-2.625 4.03125,-1.59375 7.03125,-2.4375 3.09375,-0.9375 6.09375,-1.59375 3,-0.65625 6.9375,-1.03125 3.9375,-0.375 9,-0.5625 l -1.5,-4.3125 q -0.75,-2.0625 -0.84375,-4.21875 v -0.375 l 3,-0.28125 v 1.03125 q 0.375,2.4375 1.21875,4.5 0.84375,2.0625 1.59375,4.21875 l 4.6875,3.46875 q 2.15625,1.6875 3.75,3.28125 1.59375,1.59375 1.59375,4.21875 0,3.1875 -2.34375,3.46875 -0.28125,0 -1.78125,0.0937 -1.40625,0 -3.5625,0.0937 -2.15625,0.0937 -4.78125,0.1875 -2.625,0 -5.34375,0.0937 -6.46875,0.1875 -14.34375,0.375 v 0.65625 h 46.5 v -6.46875 q -1.40625,-2.25 -3,-4.6875 -1.5,-2.4375 -3.09375,-4.59375 -1.5,-2.25 -3,-4.125 -1.40625,-1.96875 -2.71875,-3.28125 -5.25,-5.25 -14.0625,-8.625 l -9.75,1.5 q -3.65625,0.5625 -7.03125,1.3125 -3.375,0.75 -6.5625,1.6875 -6.1875,1.78125 -10.03125,1.78125 -5.34375,0 -13.03125,-3.375 -7.59375,-3.375 -9.28125,-5.625 l -1.125,-5.90625 q -0.9375,-5.15625 -2.71875,-9.28125 -1.78125,-4.125 -4.40625,-6.28125 z m -7.875,7.59375 q -1.21875,0.9375 -2.25,0.9375 -1.21875,0 -1.21875,-2.0625 0,-1.40625 0.65625,-1.40625 0.84375,0 2.8125,2.53125 z"
         id="path8164"
         inkscape:connector-curvature="0" />
    </g>
  </g>
</svg>
