<?xml version="1.0" encoding="UTF-8" standalone="no"?>
<!-- Created with Inkscape (http://www.inkscape.org/) -->

<svg
   xmlns:dc="http://purl.org/dc/elements/1.1/"
   xmlns:cc="http://creativecommons.org/ns#"
   xmlns:rdf="http://www.w3.org/1999/02/22-rdf-syntax-ns#"
   xmlns:svg="http://www.w3.org/2000/svg"
   xmlns="http://www.w3.org/2000/svg"
   xmlns:sodipodi="http://sodipodi.sourceforge.net/DTD/sodipodi-0.dtd"
   xmlns:inkscape="http://www.inkscape.org/namespaces/inkscape"
   width="37.529491mm"
   height="16.395899mm"
   viewBox="0 0 37.529491 16.395899"
   version="1.1"
   id="svg27581"
   inkscape:version="0.92.4 (5da689c313, 2019-01-14)"
   sodipodi:docname="E24.svg">
  <defs
     id="defs27575" />
  <sodipodi:namedview
     id="base"
     pagecolor="#ffffff"
     bordercolor="#666666"
     borderopacity="1.0"
     inkscape:pageopacity="0.0"
     inkscape:pageshadow="2"
     inkscape:zoom="0.35"
     inkscape:cx="-414.68745"
     inkscape:cy="-291.80925"
     inkscape:document-units="mm"
     inkscape:current-layer="layer1"
     showgrid="false"
     fit-margin-top="0"
     fit-margin-left="0"
     fit-margin-right="0"
     fit-margin-bottom="0"
     inkscape:window-width="1920"
     inkscape:window-height="1017"
     inkscape:window-x="-8"
     inkscape:window-y="-8"
     inkscape:window-maximized="1" />
  <metadata
     id="metadata27578">
    <rdf:RDF>
      <cc:Work
         rdf:about="">
        <dc:format>image/svg+xml</dc:format>
        <dc:type
           rdf:resource="http://purl.org/dc/dcmitype/StillImage" />
        <dc:title></dc:title>
      </cc:Work>
    </rdf:RDF>
  </metadata>
  <g
     inkscape:label="Layer 1"
     inkscape:groupmode="layer"
     id="layer1"
     transform="translate(-22.406888,-55.229571)">
    <g
       aria-label="𓃮"
       transform="scale(0.26458333)"
       style="font-style:normal;font-variant:normal;font-weight:normal;font-stretch:normal;font-size:192px;line-height:1.25;font-family:sans-serif;-inkscape-font-specification:sans-serif;font-variant-ligatures:normal;font-variant-caps:normal;font-variant-numeric:normal;font-feature-settings:normal;text-align:start;letter-spacing:0px;word-spacing:0px;writing-mode:lr-tb;text-anchor:start;fill:#000000;fill-opacity:1;stroke:none"
       id="flowRoot28126">
      <path
         d="m 218.1875,258.05414 q -3,0 -6,-1.59375 -2.90625,-1.59375 -5.625,-4.59375 -3.09375,-3.28125 -6,-7.96875 -2.8125,-4.6875 -5.53125,-10.3125 l 4.5,12.5625 q 0.75,2.15625 1.3125,3.5625 0.5625,1.3125 0.9375,1.96875 0.75,1.3125 0.75,2.34375 v 10.59375 q 0,3.28125 -1.96875,4.59375 -1.875,1.40625 -4.96875,1.40625 h -3.75 l -1.40625,-1.78125 q 0,-2.53125 1.03125,-3.9375 1.03125,-1.5 3.5625,-1.78125 0,-0.65625 0,-1.21875 0,-0.5625 0.0937,-1.21875 0,-1.21875 -0.1875,-2.34375 -0.0937,-1.21875 -0.28125,-2.34375 -0.375,-2.15625 -1.21875,-3 -0.84375,-0.84375 -3.375,-2.4375 l -4.875,-3.1875 q -1.21875,-0.75 -2.4375,-1.5 -1.125,-0.84375 -2.34375,-1.6875 -0.65625,1.21875 -2.34375,3.75 -1.59375,2.4375 -4.21875,6.375 -5.0625,7.59375 -6.375,12 -1.125,4.3125 -10.40625,4.3125 l -1.40625,-1.78125 q 0,-2.15625 0.46875,-3.09375 0.46875,-1.03125 2.0625,-1.59375 l 2.4375,-0.75 q 0.65625,-1.21875 4.78125,-9.5625 4.125,-8.15625 5.15625,-15.1875 -1.875,-0.0937 -3.9375,-0.28125 -1.78125,-0.0937 -4.03125,-0.1875 -2.25,-0.0937 -4.59375,-0.0937 -9.375,0 -15.09375,1.6875 -5.71875,1.6875 -6.84375,5.15625 2.71875,7.59375 3.5625,12.28125 0.9375,4.59375 0.9375,6.9375 0,3.375 -1.6875,4.96875 -1.6875,1.59375 -5.625,1.59375 h -3.375 l -1.40625,-1.875 q 0,-2.4375 1.3125,-3.375 1.40625,-1.03125 3.375,-1.875 0.28125,-1.40625 0.28125,-2.90625 0,-3.1875 -1.40625,-7.3125 -1.3125,-4.21875 -4.40625,-9.84375 -5.0625,0 -8.71875,10.3125 -3.5625,10.3125 -4.5,13.5 -1.03125,3.28125 -10.21875,3.28125 l -1.40625,-1.78125 q 0,-2.53125 1.21875,-3.5625 1.3125,-1.125 3.65625,-1.875 0.1875,-0.65625 1.03125,-2.8125 0.9375,-2.15625 2.53125,-6 3.09375,-7.6875 3.09375,-13.3125 0,-2.53125 -0.5625,-5.0625 -2.71875,0.75 -5.34375,0.9375 -2.625,0.1875 -5.34375,0.1875 -2.625,1.3125 -4.5,3.09375 -1.78125,1.78125 -3.65625,3.9375 l -1.78125,0.46875 -1.96875,-0.75 q -6.46875,-2.71875 -6.46875,-6.09375 0,-1.875 2.25,-5.15625 1.125,-1.59375 2.0625,-3.46875 0.9375,-1.875 1.6875,-3.9375 1.5,-4.21875 4.21875,-5.0625 2.625,-0.84375 6.46875,-2.8125 1.96875,-1.03125 4.875,-2.34375 2.90625,-1.40625 6.84375,-3.09375 7.875,-3.375 9.28125,-3.375 0.84375,0 2.34375,0.1875 1.59375,0.0937 3.1875,0.28125 1.59375,0.0937 2.90625,0.28125 1.40625,0.0937 1.96875,0.1875 6.5625,0.75 11.8125,1.125 5.34375,0.28125 10.40625,0.28125 2.53125,0 5.8125,-0.1875 3.375,-0.28125 6.5625,-0.5625 3.1875,-0.375 5.90625,-0.5625 2.71875,-0.28125 4.125,-0.28125 3.46875,0 5.0625,0.5625 1.6875,0.46875 2.90625,1.3125 l 1.875,1.59375 q 1.21875,1.125 2.15625,2.8125 0.9375,1.6875 1.875,3.84375 1.03125,2.0625 2.0625,4.5 1.125,2.4375 2.625,5.15625 1.3125,2.4375 2.53125,4.59375 1.21875,2.15625 2.4375,4.3125 3.09375,5.4375 6.375,9.46875 1.5,1.875 2.8125,3.1875 1.3125,1.21875 2.8125,2.25 1.3125,1.03125 3,1.78125 1.78125,0.65625 4.3125,0.65625 0.9375,-0.46875 2.15625,-0.9375 1.21875,-0.46875 2.53125,-0.46875 0.65625,0 1.125,0.28125 0.46875,0.28125 0.46875,1.21875 0,1.59375 -0.75,2.15625 -0.65625,0.46875 -1.875,0.46875 -0.28125,0 -0.9375,0 -0.5625,-0.0937 -1.21875,-0.1875 -0.75,-0.0937 -1.5,-0.1875 -0.28125,0.0937 -0.65625,0.0937 -0.28125,0.0937 -0.65625,0.0937 -0.375,0 -0.75,0 z m -88.5,-17.0625 q 3.09375,6.09375 4.78125,11.0625 1.6875,4.96875 1.6875,8.53125 v 1.875 q 0,2.4375 -0.46875,2.90625 -0.84375,0.75 -3.9375,2.25 0.46875,0 1.125,0 0.75,0 1.78125,0.1875 1.21875,0 1.96875,-0.65625 0.75,-0.75 0.84375,-1.875 l 0.0937,-1.125 q 0,-2.71875 -0.375,-5.625 -0.375,-3 -1.5,-6.28125 -1.125,-3.28125 -1.875,-4.96875 -0.65625,-1.6875 -0.65625,-2.71875 0,-3.28125 5.34375,-6.375 5.4375,-3.09375 18.375,-3.09375 2.15625,0 4.875,0.1875 2.71875,0.0937 5.15625,0.28125 2.8125,0.1875 5.71875,0.375 l 16.5,10.5 q 2.25,1.40625 3.84375,2.625 1.6875,1.21875 2.8125,2.71875 1.125,1.40625 1.6875,3.375 0.5625,1.96875 0.5625,4.875 v 4.59375 l -1.6875,1.5 q -1.96875,0 -2.4375,0.375 -0.46875,0.375 -0.46875,1.3125 0.46875,0 0.84375,0 0.375,0 0.75,0.0937 3.28125,0 4.03125,-1.3125 0.75,-1.3125 0.75,-5.625 0,-2.53125 -0.1875,-4.3125 -0.0937,-1.875 -0.0937,-2.34375 l -4.3125,-10.96875 q -1.875,-4.78125 -2.625,-8.0625 -0.65625,-3.375 -0.84375,-3.9375 -0.28125,-1.3125 -0.65625,-2.90625 -0.28125,-1.59375 -0.9375,-3.5625 -0.65625,-2.0625 -1.875,-4.5 -1.21875,-2.53125 -3.375,-5.625 -2.15625,-1.6875 -4.125,-1.96875 -1.96875,-0.28125 -4.5,-0.28125 -4.5,0 -9.09375,0.75 -4.5,0.65625 -9,0.75 h -3.5625 q -7.875,0 -16.21875,-0.75 -8.25,-0.75 -15.84375,-1.59375 l -9.375,3.75 q -2.34375,0.9375 -5.25,2.25 -2.8125,1.3125 -4.875,2.34375 0.0937,1.3125 0.375,2.34375 0.28125,0.9375 0.28125,2.15625 0,1.21875 -0.5625,2.15625 -1.03125,-0.46875 -1.6875,-1.3125 -0.375,-0.46875 -0.5625,-0.84375 -0.0937,-0.46875 -0.28125,-0.9375 -0.28125,-0.28125 -0.46875,-0.375 -0.65625,-0.46875 -2.53125,-0.46875 -0.09375,0 -0.46875,0.1875 -0.28125,0.0937 -0.75,0.28125 l -1.125,0.375 q -1.3125,0.46875 -2.53125,4.125 -1.125,3.84375 -3.09375,5.90625 -1.96875,2.15625 -1.96875,3.75 0,1.6875 3,3.28125 l 2.53125,1.125 q 0.9375,-1.3125 2.15625,-2.625 1.3125,-1.3125 2.71875,-2.34375 1.40625,-1.125 3,-1.78125 1.6875,-0.75 3.46875,-0.75 h 2.34375 q 3.375,0 7.3125,-1.3125 2.34375,0.28125 4.3125,1.125 2.0625,0.75 3.84375,1.875 0.84375,0.46875 2.0625,1.3125 1.3125,0.84375 2.4375,1.6875 1.3125,1.03125 2.8125,2.0625 z m -12.75,-4.3125 q 0.1875,1.3125 0.28125,2.53125 0.1875,1.125 0.1875,2.15625 0,6.1875 -3.375,14.4375 -1.6875,4.125 -2.71875,6.46875 -0.9375,2.25 -1.125,2.8125 l -1.03125,1.03125 -1.40625,0.375 q -0.75,0.1875 -1.125,0.375 -0.375,0.1875 -0.75,0.75 5.34375,0 5.8125,-1.59375 0.1875,-0.75 0.9375,-2.90625 0.75,-2.15625 1.96875,-5.71875 l 1.59375,-4.78125 q 1.40625,-3.9375 3.5625,-7.125 2.25,-3.1875 5.34375,-4.3125 -2.4375,-1.875 -4.21875,-2.8125 -1.6875,-0.9375 -3.9375,-1.6875 z m 56.4375,3.09375 q -0.75,4.3125 -2.4375,8.8125 -1.6875,4.40625 -4.59375,10.03125 l -3.28125,6.46875 -1.03125,1.03125 -3.1875,0.84375 -0.1875,0.65625 1.875,-0.1875 q 4.6875,-0.46875 4.96875,-3.46875 0.28125,-3.09375 5.71875,-11.0625 2.71875,-4.03125 4.3125,-6.5625 1.6875,-2.625 2.34375,-3.84375 z m -75.1875,-9.9375 q -1.875,1.875 -2.71875,1.875 -0.65625,0 -0.65625,-1.3125 0,-1.59375 1.03125,-1.59375 0.75,0 2.34375,1.03125 z"
         id="path28134"
         inkscape:connector-curvature="0" />
    </g>
  </g>
</svg>
