<?xml version="1.0" encoding="UTF-8" standalone="no"?>
<!-- Created with Inkscape (http://www.inkscape.org/) -->

<svg
   xmlns:dc="http://purl.org/dc/elements/1.1/"
   xmlns:cc="http://creativecommons.org/ns#"
   xmlns:rdf="http://www.w3.org/1999/02/22-rdf-syntax-ns#"
   xmlns:svg="http://www.w3.org/2000/svg"
   xmlns="http://www.w3.org/2000/svg"
   xmlns:sodipodi="http://sodipodi.sourceforge.net/DTD/sodipodi-0.dtd"
   xmlns:inkscape="http://www.inkscape.org/namespaces/inkscape"
   width="38.323242mm"
   height="21.580118mm"
   viewBox="0 0 38.323242 21.580118"
   version="1.1"
   id="svg8173"
   inkscape:version="0.92.4 (5da689c313, 2019-01-14)"
   sodipodi:docname="E25.svg">
  <defs
     id="defs8167" />
  <sodipodi:namedview
     id="base"
     pagecolor="#ffffff"
     bordercolor="#666666"
     borderopacity="1.0"
     inkscape:pageopacity="0.0"
     inkscape:pageshadow="2"
     inkscape:zoom="0.35"
     inkscape:cx="-374.6875"
     inkscape:cy="-349.04753"
     inkscape:document-units="mm"
     inkscape:current-layer="layer1"
     showgrid="false"
     fit-margin-top="0"
     fit-margin-left="0"
     fit-margin-right="0"
     fit-margin-bottom="0"
     inkscape:window-width="1920"
     inkscape:window-height="1017"
     inkscape:window-x="-8"
     inkscape:window-y="-8"
     inkscape:window-maximized="1" />
  <metadata
     id="metadata8170">
    <rdf:RDF>
      <cc:Work
         rdf:about="">
        <dc:format>image/svg+xml</dc:format>
        <dc:type
           rdf:resource="http://purl.org/dc/dcmitype/StillImage" />
        <dc:title></dc:title>
      </cc:Work>
    </rdf:RDF>
  </metadata>
  <g
     inkscape:label="Layer 1"
     inkscape:groupmode="layer"
     id="layer1"
     transform="translate(-11.823568,-34.901057)">
    <g
       aria-label="𓃯"
       transform="scale(0.26458333)"
       style="font-style:normal;font-variant:normal;font-weight:normal;font-stretch:normal;font-size:192px;line-height:1.25;font-family:sans-serif;-inkscape-font-specification:'sans-serif, Normal';font-variant-ligatures:normal;font-variant-caps:normal;font-variant-numeric:normal;font-feature-settings:normal;text-align:start;letter-spacing:0px;word-spacing:0px;writing-mode:lr-tb;text-anchor:start;fill:#000000;fill-opacity:1;stroke:none"
       id="flowRoot8721">
      <path
         d="m 141.4375,210.94086 q 0.75,-2.15625 3,-5.25 2.34375,-3.1875 2.625,-5.8125 l 0.1875,-2.71875 -1.59375,0.0937 q -0.75,0 -1.59375,0.0937 -1.3125,0 -3,-0.0937 -1.6875,-0.0937 -4.3125,-0.1875 l -6.65625,-0.0937 q -4.03125,0 -9.84375,-0.0937 0.1875,2.15625 0.46875,4.21875 0.375,2.0625 0.375,4.125 0,2.15625 -0.65625,4.125 -0.5625,1.875 -2.15625,3.5625 -0.9375,0.375 -1.3125,0.5625 H 107.875 l -1.40625,-1.78125 v -1.03125 h -0.0937 l 0.0937,-0.1875 q 0.28125,-2.34375 1.125,-4.40625 0.9375,-2.15625 1.125,-4.5 v -0.5625 q 0,-1.03125 -0.65625,-1.875 -0.65625,-0.9375 -1.03125,-2.25 -1.3125,0 -2.8125,-0.1875 -1.40625,-0.28125 -2.71875,-0.75 -1.03125,4.3125 -2.625,8.4375 -1.5,4.125 -3.09375,8.0625 l -1.5,1.03125 H 83.6875 l -1.40625,-1.78125 q 1.6875,-5.0625 4.125,-9.75 2.4375,-4.6875 4.59375,-9.1875 -2.15625,-1.59375 -3.375,-3.65625 -1.21875,-2.0625 -1.78125,-4.5 -0.28125,0.28125 -4.78125,3.75 -4.5,3.46875 -7.875,10.40625 0,3.09375 -1.5,5.0625 -1.40625,1.875 -3.84375,1.875 -1.875,0 -4.03125,-1.3125 -8.0625,0 -10.96875,-2.4375 -2.90625,-2.4375 -3.75,-7.21875 -2.4375,-1.59375 -3.46875,-3 -0.9375,-1.40625 -0.9375,-2.90625 0,-1.875 3.09375,-8.625 3.09375,-6.84375 5.53125,-11.8125 -1.6875,-2.25 -1.6875,-4.6875 0,-3.1875 2.53125,-5.90625 2.53125,-2.8125 6.1875,-3.1875 l 3.09375,-4.875 q 3.5625,-5.4375 7.21875,-8.625 3.75,-3.1875 6.65625,-3.1875 1.21875,0 2.71875,0.0937 l 2.8125,0.1875 q 1.3125,0 1.875,0.0937 1.875,0 3.65625,0.0937 h 3.65625 q 12.375,0 27.65625,-3.1875 15.375,-3.1875 16.875,-3.28125 h 0.65625 q 5.625,0 15.375,3 9.75,2.90625 18.46875,8.4375 8.71875,5.4375 11.625,8.15625 2.90625,2.625 4.78125,12.28125 1.875,9.5625 2.0625,12.375 v 0.5625 q 0,1.78125 -1.40625,3.375 -1.3125,1.59375 -3.28125,1.59375 -1.40625,0 -2.71875,-0.84375 -1.21875,-0.9375 -2.0625,-2.4375 l -1.21875,2.34375 -1.125,2.4375 q 2.4375,3.5625 4.3125,7.59375 1.875,3.9375 1.875,8.15625 0,3.84375 -1.875,7.3125 v 5.71875 q -0.46875,0.375 -0.84375,0.75 l -0.75,0.75 h -10.59375 l -1.40625,-1.78125 0.46875,-3.28125 q 0.1875,-1.6875 0.5625,-3.375 l 0.75,-3.1875 q 0.28125,-1.21875 0.28125,-2.34375 0,-1.21875 -0.5625,-2.4375 -0.5625,-1.3125 -2.15625,-3.1875 l -8.71875,1.21875 q -1.125,4.59375 -2.25,9.28125 -1.03125,4.59375 -3.75,8.53125 -0.9375,0.375 -1.3125,0.5625 h -9.09375 L 141.25,211.69086 Z m 28.21875,-19.59375 1.3125,1.6875 q 1.3125,1.875 1.875,3.65625 0.65625,1.6875 0.65625,3.09375 0,1.875 -0.9375,4.875 -0.9375,3 -0.9375,5.8125 h 7.40625 q 0,-1.3125 -0.0937,-2.71875 l -0.0937,-0.5625 q 0,-1.78125 1.03125,-3.9375 1.125,-2.15625 1.21875,-3.9375 v -0.75 q 0,-2.4375 -1.125,-4.96875 -1.03125,-2.625 -2.15625,-4.6875 l -0.75,-1.5 -0.5625,-0.9375 -1.78125,-2.4375 v -1.5 q 1.03125,-2.15625 2.0625,-4.21875 1.125,-2.0625 2.15625,-4.21875 l -1.40625,-8.71875 1.125,-0.0937 q 0.5625,0 1.875,-0.1875 l 0.1875,1.5 q 0.1875,1.40625 0.46875,3 l 0.5625,3.09375 q 0.1875,1.40625 0.28125,1.5 0,1.6875 1.03125,3.09375 1.03125,1.3125 1.875,1.59375 l 0.28125,-0.0937 q 1.03125,-0.84375 1.3125,-1.78125 l -0.75,-5.90625 q -0.9375,-7.3125 -2.53125,-11.8125 -1.5,-4.5 -3,-5.8125 -1.5,-1.40625 -7.5,-5.53125 -6,-4.125 -13.6875,-7.40625 -7.59375,-3.28125 -14.4375,-4.5 -6.84375,-1.21875 -8.625,-1.21875 -0.75,0 -2.625,0.5625 -1.875,0.5625 -15.84375,3.375 -13.96875,2.71875 -25.96875,2.71875 -3.84375,0 -7.5,-0.1875 l -7.5,-0.375 q -5.625,2.90625 -9.75,9.1875 -4.03125,6.1875 -4.5,6.84375 -0.9375,0.375 -1.3125,0.5625 -2.625,0 -4.5,1.875 -1.78125,1.78125 -1.78125,4.125 0,2.0625 1.59375,3.65625 0,0.46875 0.1875,1.40625 -2.25,4.78125 -4.96875,10.03125 -2.71875,5.25 -3.9375,10.5 0.46875,0.75 1.03125,1.5 0.5625,0.65625 1.3125,1.125 l 0.375,-0.84375 0.46875,-0.84375 q 1.3125,0.65625 2.71875,1.21875 -0.46875,0.65625 -0.75,1.40625 -0.28125,0.65625 -0.75,1.40625 0.5625,3.1875 1.6875,4.5 1.125,1.3125 2.4375,1.96875 1.3125,0.5625 7.21875,0.84375 1.5,-2.34375 2.625,-4.875 1.21875,-2.625 1.21875,-5.4375 h 0.28125 q 0.375,0 1.3125,-0.0937 0.9375,-0.1875 1.40625,-0.1875 v 0.75 q -0.1875,2.15625 -0.75,4.21875 -0.5625,1.96875 -1.59375,3.84375 l -1.40625,2.53125 1.21875,0.375 q 0.28125,0 0.5625,0.0937 0.375,0 0.75,-0.0937 l 0.1875,-0.1875 q 0,-0.1875 0.28125,-0.46875 0.375,-0.375 0.5625,-1.125 l 0.1875,-1.5 q 0.28125,-2.90625 3.84375,-7.6875 3.5625,-4.78125 6.84375,-6.75 3.28125,-2.0625 4.40625,-4.875 v -1.40625 q 0,-1.59375 -0.46875,-3.28125 -0.375,-1.78125 -0.84375,-3.28125 l 2.71875,-1.21875 q 0.1875,0.75 0.46875,1.40625 0.28125,0.65625 0.46875,1.40625 l 0.46875,2.71875 q 0.1875,1.5 0.1875,3.9375 0.28125,5.25 2.8125,8.53125 2.53125,3.28125 5.53125,3.28125 3,0 4.875,0.84375 1.875,0.84375 4.21875,0.9375 -1.875,-5.0625 -2.8125,-8.90625 -0.9375,-3.84375 -0.9375,-6.75 v -2.15625 q 0.84375,0 1.5,-0.0937 0.65625,-0.1875 1.5,-0.1875 v 1.96875 q 2.4375,14.25 4.5,17.0625 2.15625,2.71875 2.15625,5.8125 0,2.4375 -0.9375,4.78125 -0.84375,2.25 -1.125,5.15625 h 6.84375 q 1.03125,-1.03125 1.40625,-2.4375 0.375,-1.5 0.375,-3.1875 0,-2.4375 -0.46875,-4.96875 -0.46875,-2.53125 -0.65625,-4.21875 v -0.5625 q 0,-1.40625 0.5625,-3.46875 0.5625,-2.0625 0.65625,-3.375 l 0.28125,-1.6875 3,-0.28125 q 0,1.78125 -0.75,4.3125 -0.65625,2.53125 -0.65625,3.28125 l 8.90625,0.0937 q 4.3125,0 8.8125,0.0937 h 5.4375 q 2.625,0 5.34375,-0.1875 l 8.53125,-1.5 q 4.21875,-0.75 8.71875,-1.21875 -0.46875,-0.5625 -0.84375,-1.5 l -0.84375,-1.78125 q -0.46875,-0.9375 -0.75,-1.78125 l -0.5625,-1.3125 -1.96875,-5.8125 2.90625,-0.75 0.9375,3.09375 q 0,-0.375 1.59375,4.03125 1.59375,4.3125 3.28125,6 z m -71.0625,3.9375 q -1.6875,-0.1875 -3.09375,-0.46875 -1.40625,-0.28125 -1.96875,-0.5625 -1.96875,4.03125 -4.03125,8.0625 -2.0625,3.9375 -3.65625,8.15625 h 7.5 q 1.59375,-3.75 2.90625,-7.5 1.3125,-3.75 2.34375,-7.6875 z m -40.3125,-17.34375 q 0,-0.1875 1.875,-2.53125 1.875,-2.4375 2.53125,-3.28125 0,-4.6875 1.5,-6.5625 1.59375,-1.96875 4.40625,-1.96875 l 0.75,0.75 q 0.375,0.375 0.84375,0.75 0,2.8125 -1.125,5.15625 -1.125,2.34375 -3.84375,3.65625 -1.03125,1.5 -2.25,2.90625 -1.125,1.3125 -2.15625,2.8125 z m 91.96875,18.75 q 0,5.90625 -2.25,9 -2.25,3.09375 -3.09375,4.78125 h 6.1875 q 2.15625,-3.28125 3,-7.125 l 1.6875,-7.59375 z M 67,166.87836 q -0.65625,0.46875 -0.9375,1.125 -0.28125,0.5625 -0.28125,1.3125 v 0.46875 q 0.46875,-0.375 0.75,-0.9375 Q 66.8125,168.19086 67,166.87836 Z"
         id="path8729"
         inkscape:connector-curvature="0" />
    </g>
  </g>
</svg>
