<?xml version="1.0" encoding="UTF-8" standalone="no"?>
<!-- Created with Inkscape (http://www.inkscape.org/) -->

<svg
   xmlns:dc="http://purl.org/dc/elements/1.1/"
   xmlns:cc="http://creativecommons.org/ns#"
   xmlns:rdf="http://www.w3.org/1999/02/22-rdf-syntax-ns#"
   xmlns:svg="http://www.w3.org/2000/svg"
   xmlns="http://www.w3.org/2000/svg"
   xmlns:sodipodi="http://sodipodi.sourceforge.net/DTD/sodipodi-0.dtd"
   xmlns:inkscape="http://www.inkscape.org/namespaces/inkscape"
   width="20.910351mm"
   height="37.207035mm"
   viewBox="0 0 20.910351 37.207035"
   version="1.1"
   id="svg28705"
   inkscape:version="0.92.4 (5da689c313, 2019-01-14)"
   sodipodi:docname="E27.svg">
  <defs
     id="defs28699" />
  <sodipodi:namedview
     id="base"
     pagecolor="#ffffff"
     bordercolor="#666666"
     borderopacity="1.0"
     inkscape:pageopacity="0.0"
     inkscape:pageshadow="2"
     inkscape:zoom="0.35"
     inkscape:cx="-440.40178"
     inkscape:cy="-425.71427"
     inkscape:document-units="mm"
     inkscape:current-layer="layer1"
     showgrid="false"
     fit-margin-top="0"
     fit-margin-left="0"
     fit-margin-right="0"
     fit-margin-bottom="0"
     inkscape:window-width="1920"
     inkscape:window-height="1017"
     inkscape:window-x="-8"
     inkscape:window-y="-8"
     inkscape:window-maximized="1" />
  <metadata
     id="metadata28702">
    <rdf:RDF>
      <cc:Work
         rdf:about="">
        <dc:format>image/svg+xml</dc:format>
        <dc:type
           rdf:resource="http://purl.org/dc/dcmitype/StillImage" />
        <dc:title></dc:title>
      </cc:Work>
    </rdf:RDF>
  </metadata>
  <g
     inkscape:label="Layer 1"
     inkscape:groupmode="layer"
     id="layer1"
     transform="translate(-29.210472,1.0106005)">
    <flowRoot
       xml:space="preserve"
       id="flowRoot29250"
       style="font-style:normal;font-variant:normal;font-weight:normal;font-stretch:normal;font-size:192px;line-height:1.25;font-family:sans-serif;-inkscape-font-specification:sans-serif;font-variant-ligatures:normal;font-variant-caps:normal;font-variant-numeric:normal;font-feature-settings:normal;text-align:start;letter-spacing:0px;word-spacing:0px;writing-mode:lr-tb;text-anchor:start;fill:#000000;fill-opacity:1;stroke:none"
       transform="scale(0.26458333)"><flowRegion
         id="flowRegion29252"><rect
           id="rect29254"
           width="405.71429"
           height="602.85712"
           x="20"
           y="8.2339706" /></flowRegion><flowPara
         id="flowPara29256"></flowPara></flowRoot>    <g
       aria-label="𓃱"
       style="font-style:normal;font-variant:normal;font-weight:normal;font-stretch:normal;font-size:50.79999924px;line-height:1.25;font-family:sans-serif;-inkscape-font-specification:sans-serif;font-variant-ligatures:normal;font-variant-caps:normal;font-variant-numeric:normal;font-feature-settings:normal;text-align:start;letter-spacing:0px;word-spacing:0px;writing-mode:lr-tb;text-anchor:start;fill:#000000;fill-opacity:1;stroke:none;stroke-width:0.26458332"
       id="text29260">
      <path
         d="m 49.699144,28.110102 0.421679,0.892969 H 49.699144 L 49.57512,29.499165 49.20305,29.003071 H 48.806175 L 49.20305,28.110102 V 27.88686 q 0,-0.694531 -0.148828,-1.686719 -0.148828,-1.016992 -0.396875,-1.785937 -0.04961,0.347265 -0.198438,0.818554 -0.148828,0.446485 -0.347265,0.917774 -0.198438,0.471289 -0.42168,0.892969 -0.223242,0.421679 -0.446484,0.719336 0,1.041796 0.272851,1.761132 0.272852,0.694532 0.496094,1.091407 l 0.396875,4.365625 q -0.173633,0.272851 -0.297656,0.471289 -0.09922,0.198437 -0.09922,0.74414 H 46.40012 q 0,-0.396875 0.148828,-0.595312 0.173633,-0.198438 0.669727,-0.595313 0.09922,-0.570508 0.124023,-1.16582 0.04961,-0.620117 0.04961,-1.116211 0,-0.496094 -0.02481,-0.992187 -0.02481,-0.520899 -0.198437,-1.066602 -0.173633,-0.570508 -0.545704,-1.16582 -0.347265,-0.620117 -1.016992,-1.289844 -0.148828,0.79375 -0.223242,1.686719 -0.07441,0.868164 -0.124023,1.761132 -0.02481,0.892969 -0.04961,1.761133 0,0.84336 0,1.5875 -0.173633,0 -0.272851,0.223242 -0.07441,0.198438 -0.09922,0.446485 -0.02481,0.248047 -0.02481,0.396875 v 0.124023 h -1.612304 q 0,-0.173633 0.124023,-0.37207 0.124023,-0.198438 0.272852,-0.396875 0.173632,-0.223242 0.421679,-0.42168 0.347266,-0.644922 0.42168,-1.488281 0.07441,-0.843359 0.07441,-1.637109 0,-1.314649 -0.42168,-2.629297 -0.396875,-1.314649 -0.818554,-2.356445 -0.79375,-0.396875 -1.612305,-0.744141 -0.818555,-0.37207 -1.537891,-0.868164 l -0.07441,-0.520899 0.02481,-0.07441 q 0,-0.09922 -0.446484,-0.272851 -0.42168,-0.173633 -0.942578,-0.198438 -0.347266,1.041797 -0.669727,2.133203 -0.297656,1.066602 -0.570508,2.083594 -0.248047,0.992188 -0.421679,1.909961 -0.148829,0.892969 -0.173633,1.612305 -0.02481,0.843359 -0.04961,1.364257 0,0.496094 0,0.818555 0,0.297656 0,0.496094 0,0.173633 0,0.37207 -0.223242,0.173633 -0.322461,0.545703 -0.07441,0.372071 -0.07441,0.644922 h -1.5875 q 0,-0.297656 0.223243,-0.471289 0.248046,-0.173633 0.520898,-0.520898 0.570508,-2.753321 0.719336,-4.440039 0.173633,-1.711524 0.173633,-2.530078 0,-0.248047 -0.02481,-0.79375 -0.02481,-0.545703 -0.07441,-1.165821 -0.04961,-0.644922 -0.148828,-1.289843 -0.07441,-0.644922 -0.198438,-1.141016 -0.297656,1.190625 -0.620117,2.654102 -0.297656,1.463476 -0.570508,2.976562 -0.272851,1.513086 -0.496093,2.951758 -0.223243,1.438672 -0.322461,2.579687 -0.173633,0 -0.347266,0.07441 -0.148828,0.04961 -0.173633,0.198438 l -0.272851,0.917773 h -1.190625 q 0,-0.446484 0.198437,-0.644922 0.223242,-0.223242 0.595313,-0.545703 0.768945,-2.778125 1.240234,-5.208984 0.471289,-2.430859 0.595313,-4.489648 0.124023,-2.058789 0.248046,-3.646289 0.124024,-1.5875 0.644922,-2.629297 -0.992187,-1.289844 -1.314648,-2.976563 -0.297656,-1.686718 -0.297656,-3.472656 0,-0.496094 0,-0.992187 0.0248,-0.520899 0.04961,-1.016993 l 0.19844,-3.8447261 q 0.0248,-0.9921875 0.148828,-2.0091797 -0.396875,0.2728516 -0.868164,0.4712891 -0.446485,0.1984375 -0.942579,0.1984375 -0.421679,0.1984375 -1.041796,0.6697265 -0.644922,0.4464844 -1.066602,0.4464844 -0.223242,0 -0.471289,-0.074414 -0.248047,-0.099219 -0.595312,-0.3472657 0,-0.074414 -0.124024,-0.3720703 0,-0.9921875 1.16582,-2.0339843 1.141016,-1.0666016 1.190625,-1.3394531 0.02481,-0.1488281 0.42168,-0.6201172 0.42168,-0.4712891 0.967383,-1.01699217 -0.396875,-0.59531249 -0.545703,-0.86816405 -0.124024,-0.29765625 -0.124024,-0.49609375 0,-0.0744141 0,-0.14882812 0.02481,-0.0744141 0.124024,-0.19843751 0.421679,0.24804689 0.644922,0.37207032 0.223242,0.12402344 0.396875,0.47128906 0.04961,0.14882812 0.07441,0.27285156 0.0248,0.12402343 0.04961,0.24804687 0.02481,0.12402343 0.02481,0.24804687 h 0.396875 V -0.5889208 h 0.545703 v 1.19062498 h 0.148828 l 0.59531,-1.19062498 h 0.520899 l -0.595313,1.19062498 0.545703,0.0992188 1.041797,-1.71152348 q 0.198438,0 0.248047,0.14882819 0.07441,0.14882812 0.07441,0.34726562 0,0.62011718 -0.148828,1.04179686 -0.124023,0.42167968 -0.322461,0.91777333 0.372071,0.1984375 0.620117,0.644922 0.248047,0.4464844 0.396875,1.0417969 0.173633,0.5705078 0.248047,1.2154295 0.07441,0.6201173 0.09922,1.190625 0.04961,1.3146484 0.09922,2.3068359 0.07441,0.9921876 0.124023,1.7611329 0.07441,0.7689453 0.148828,1.3642573 0.07441,0.570508 0.173633,1.066602 0.42168,2.033984 1.5875,3.894336 1.240234,1.934765 3.274219,2.778125 2.083594,0.868164 3.695898,2.158008 0.917774,0.719335 1.413867,1.53789 0.520899,0.79375 0.768946,1.711524 0.248047,0.892968 0.297656,1.90996 0.07441,0.992188 0.09922,2.083594 z M 47.541136,22.305805 Q 45.829612,20.594282 43.324339,19.52768 40.84387,18.461079 39.578831,16.526313 38.363402,14.616352 37.916917,12.656782 37.693675,11.664595 37.520042,10.225923 37.371214,8.7624462 37.271995,6.802876 L 37.222386,5.7362744 Q 37.197581,5.1657666 37.123167,4.5704541 37.048753,3.9503369 36.899925,3.4294385 36.775902,2.8837354 36.552659,2.437251 36.354222,1.9907667 36.056566,1.7179151 L 35.535667,1.246626 H 33.526488 Q 32.360667,2.4124463 32.211839,2.8093213 32.063011,3.2061963 31.095628,4.024751 30.15305,4.8681104 30.004222,5.5874463 l 0.471289,0.1736328 q 0.37207,-0.1984375 1.016992,-0.6945312 0.694532,-0.4960938 1.116211,-0.4960938 0.768946,0 1.934766,-1.0666015 l 0.669726,0.2976562 q -0.124023,1.3890625 -0.223242,2.8773437 -0.09922,1.2898438 -0.173633,2.852539 -0.04961,1.5626955 -0.04961,3.1253905 0,2.282031 0.37207,3.671094 0.372071,1.364258 1.091407,2.33164 0.272851,-0.570507 0.644921,-1.041796 0.396875,-0.496094 0.868164,-0.917774 0.347266,0.446484 0.396875,0.545703 0.07442,0.07441 0.09922,0.07441 -0.719336,0.396875 -1.364258,1.860352 -0.322461,0.719336 -0.446484,1.463476 -0.124023,0.744141 -0.124023,1.537891 0,0.198437 0.04961,0.496094 0.07441,0.272851 0.148828,0.595312 0.09922,0.297656 0.173633,0.620117 0.07441,0.297657 0.124023,0.520899 0.148828,0.868164 0.173633,1.637109 0.02481,0.744141 0.07441,1.562695 0.09922,-0.644921 0.173633,-1.091406 0.09922,-0.446484 0.198438,-0.843359 0.09922,-0.396875 0.223242,-0.843359 0.148828,-0.446485 0.37207,-1.116211 l 0.37207,-0.322461 q 0.84336,0 1.661914,0.37207 0.84336,0.322461 0.84336,0.917773 0,0.09922 -0.0248,0.148829 0.322461,0.198437 0.719336,0.396874 0.42168,0.198438 0.917773,0.396875 0.496094,0.198438 0.744141,0.372071 0.272852,0.173633 0.446484,0.297656 0.372071,0.272852 0.620118,1.488281 0.0248,0.124024 0.09922,0.347266 0.07441,0.223242 0.173633,0.471289 0.09922,0.272852 0.223242,0.620117 0.02481,-0.322461 0.04961,-0.595312 0.0248,-0.248047 0.04961,-0.471289 0.02481,-0.248047 0.04961,-0.396875 -0.496093,-0.694532 -0.843359,-1.438672 -0.322461,-0.768946 -0.496094,-2.058789 l 0.79375,-0.07441 q 0.04961,0.471289 0.124024,1.041796 0.09922,0.545704 0.396875,1.190625 0.173633,0.347266 0.421679,0.694532 0.248047,0.347265 0.595313,0.694531 l 0.644922,0.620117 v -1.041797 q 0,-0.248047 0.124023,-0.446484 0.148828,-0.198438 0.322461,-0.446484 l 0.198438,-0.272852 q 0.148828,-0.223242 0.297656,-0.595313 0.173633,-0.396875 0.297656,-0.818554 0.148828,-0.42168 0.223242,-0.818555 0.09922,-0.396875 0.09922,-0.669726 l -0.17364,-0.347266 q -0.07441,-0.148828 -0.198437,-0.322461 -0.09922,-0.198437 -0.248047,-0.347266 z M 33.997777,2.5860791 q -0.272852,0.2728516 -0.42168,0.2728516 -0.173633,0 -0.173633,-0.4216797 0,-0.3224609 0.124024,-0.3224609 0.148828,0 0.471289,0.471289 z m 1.661914,19.9925779 q -0.02481,-0.173633 -0.02481,-0.37207 -0.02481,-0.148828 -0.02481,-0.322461 0,-0.198438 0,-0.372071 v -0.223242 q 0,-0.124023 0,-0.297656 0.02481,-0.173633 0.02481,-0.396875 -0.124023,0.396875 -0.198437,1.091406 -0.07442,0.669727 -0.124024,1.314649 -0.04961,0.79375 -0.07441,1.637109 z"
         style="stroke-width:0.26458332"
         id="path29262"
         inkscape:connector-curvature="0" />
    </g>
  </g>
</svg>
