<?xml version="1.0" encoding="UTF-8" standalone="no"?>
<!-- Created with Inkscape (http://www.inkscape.org/) -->

<svg
   xmlns:dc="http://purl.org/dc/elements/1.1/"
   xmlns:cc="http://creativecommons.org/ns#"
   xmlns:rdf="http://www.w3.org/1999/02/22-rdf-syntax-ns#"
   xmlns:svg="http://www.w3.org/2000/svg"
   xmlns="http://www.w3.org/2000/svg"
   xmlns:sodipodi="http://sodipodi.sourceforge.net/DTD/sodipodi-0.dtd"
   xmlns:inkscape="http://www.inkscape.org/namespaces/inkscape"
   width="32.866222mm"
   height="37.603909mm"
   viewBox="0 0 32.866222 37.603909"
   version="1.1"
   id="svg29271"
   inkscape:version="0.92.4 (5da689c313, 2019-01-14)"
   sodipodi:docname="E28.svg">
  <defs
     id="defs29265" />
  <sodipodi:namedview
     id="base"
     pagecolor="#ffffff"
     bordercolor="#666666"
     borderopacity="1.0"
     inkscape:pageopacity="0.0"
     inkscape:pageshadow="2"
     inkscape:zoom="0.35"
     inkscape:cx="-371.83003"
     inkscape:cy="-357.61789"
     inkscape:document-units="mm"
     inkscape:current-layer="layer1"
     showgrid="false"
     fit-margin-top="0"
     fit-margin-left="0"
     fit-margin-right="0"
     fit-margin-bottom="0"
     inkscape:window-width="1920"
     inkscape:window-height="1017"
     inkscape:window-x="-8"
     inkscape:window-y="-8"
     inkscape:window-maximized="1" />
  <metadata
     id="metadata29268">
    <rdf:RDF>
      <cc:Work
         rdf:about="">
        <dc:format>image/svg+xml</dc:format>
        <dc:type
           rdf:resource="http://purl.org/dc/dcmitype/StillImage" />
        <dc:title></dc:title>
      </cc:Work>
    </rdf:RDF>
  </metadata>
  <g
     inkscape:label="Layer 1"
     inkscape:groupmode="layer"
     id="layer1"
     transform="translate(-11.067528,-16.609694)">
    <g
       aria-label="𓃲"
       transform="scale(0.26458333)"
       style="font-style:normal;font-variant:normal;font-weight:normal;font-stretch:normal;font-size:192px;line-height:1.25;font-family:sans-serif;-inkscape-font-specification:sans-serif;font-variant-ligatures:normal;font-variant-caps:normal;font-variant-numeric:normal;font-feature-settings:normal;text-align:start;letter-spacing:0px;word-spacing:0px;writing-mode:lr-tb;text-anchor:start;fill:#000000;fill-opacity:1;stroke:none"
       id="flowRoot29816">
      <path
         d="m 140.92383,126.24555 q 1.78125,0 3.46875,0.0937 1.78125,0.0937 3.65625,0.46875 1.875,0.375 4.03125,1.125 2.15625,0.65625 4.6875,1.78125 1.875,0.84375 3.5625,2.71875 1.6875,1.875 2.90625,4.3125 1.3125,2.4375 2.0625,5.25 0.75,2.8125 0.75,5.53125 0,1.21875 -0.1875,3 -0.0937,1.78125 -0.375,3.65625 -0.1875,1.78125 -0.5625,3.46875 -0.28125,1.6875 -0.65625,2.71875 -0.375,1.03125 -0.75,1.6875 -0.375,0.5625 -1.03125,0.5625 -0.5625,0 -0.75,-0.65625 -0.1875,-0.75 -0.1875,-1.5 0,-1.5 0.28125,-3.09375 0.375,-1.6875 0.75,-3.28125 0.375,-1.6875 0.65625,-3.28125 0.375,-1.59375 0.375,-3 0,-1.5 -0.28125,-3.28125 -0.28125,-1.78125 -1.125,-3.65625 0.0937,0.65625 0.1875,1.21875 0.0937,0.46875 0.1875,1.03125 0.0937,0.46875 0.0937,0.75 0,2.4375 -1.40625,5.34375 -1.5,3.09375 -3,11.625 2.90625,8.625 2.90625,16.96875 0,5.34375 -1.21875,10.6875 -1.125,5.25 -3.375,10.875 l -1.21875,0.375 0.0937,0.75 q 0,0.28125 -0.1875,0.46875 l -0.0937,2.4375 -1.59375,1.5 h -6 l -1.21875,-2.25 q 1.03125,-1.96875 2.34375,-3.9375 1.40625,-1.96875 3.75,-2.625 l 0.9375,-3.75 q 1.03125,-3.9375 1.5,-7.59375 0.5625,-3.75 0.5625,-6.5625 0,-4.6875 -1.875,-7.03125 -1.6875,-2.15625 -5.34375,-4.875 -7.59375,16.6875 -15.84375,33.09375 -0.375,0.1875 -0.75,0.1875 -0.28125,0 -0.46875,0.28125 -0.0937,0.46875 -0.1875,0.9375 0,0.46875 0,0.84375 v 1.78125 l -1.59375,1.5 h -7.59375 l -1.40625,-1.78125 q 0.75,-4.875 4.40625,-6.75 3.9375,-2.0625 8.53125,-11.25 4.59375,-9.28125 6.46875,-22.5 -5.90625,0.1875 -11.34375,1.3125 -5.4375,1.03125 -10.21875,4.40625 l -1.875,-0.0937 q -2.53125,-1.78125 -5.25,-2.25 -2.71875,-0.5625 -5.53125,-0.5625 h -6.375002 q 0,0.75 0,1.5 0,0.75 0.09375,1.5 l 0.09375,1.875 q 0.375,6.84375 1.125002,13.59375 0.75,6.65625 1.78125,13.40625 -1.3125,0.84375 -1.78125,1.6875 -0.46875,0.75 -0.46875,1.5 0,0.5625 0.1875,1.3125 0.28125,0.65625 0.46875,1.125 l -1.500002,1.96875 h -7.59375 l -1.21875,-2.25 q 0,-1.40625 1.6875,-3.375 1.78125,-1.96875 4.125,-3.09375 l -0.5625,-7.3125 q -0.375,-5.0625 -0.84375,-8.8125 -0.46875,-3.75 -1.03125,-6.375 -0.9375,-5.0625 -3,-9.5625 h -5.90625 q -3.375,5.4375 -6.28125,12.09375 -2.90625,6.65625 -5.25,14.0625 l -2.90625,9.09375 -2.34375,0.65625 q 0,0.5625 -0.9375,1.6875 -0.84375,1.125 -1.21875,2.15625 l -1.5,1.03125 h -6.09375 l -1.21875,-2.25 q 3.09375,-5.625 9.09375,-7.96875 2.15625,-8.8125 4.59375,-17.53125 2.4375,-8.71875 5.625,-17.4375 -1.40625,-2.25 -2.34375,-3.9375 -0.9375,-1.6875 -1.875,-3.375 -0.9375,-1.78125 -2.0625,-3.75 -1.03125,-2.0625 -2.53125,-5.0625 -2.0625,-4.03125 -3.28125,-7.78125 -1.125,-3.84375 -1.3125,-7.40625 -3.09375,0.9375 -5.53125,1.5 -2.4375,0.46875 -4.40625,0.9375 -1.875,0.375 -3.375,0.75 -1.5,0.28125 -2.90625,0.75 l -1.40625,-0.375 -3.09375,-3 q 0,-0.1875 -0.09375,-0.46875 -0.09375,-0.1875 -0.1875,-0.375 -0.09375,-0.28125 -0.1875,-0.5625 0,-3.46875 1.875,-6.5625 1.96875,-3.09375 5.34375,-6 l 3.75,-3.28125 3,-5.0625 q 1.6875,-2.71875 3.46875,-4.78125 l 0.9375,-1.03125 q 0.1875,-0.1875 0.5625,-0.375 0.46875,-0.28125 0.9375,-0.562504 l 1.3125,-0.75 q 0.1875,-1.875 0.84375,-4.125 0.65625,-2.25 1.40625,-4.3125 0.9375,-2.4375 1.96875,-4.78125 2.8125,-5.34375 6.46875,-9.09375 3.65625,-3.84375 7.59375,-6.375 3.9375,-2.625 7.875,-4.125 4.03125,-1.5 7.5,-2.25 3.562502,-0.84375 6.375002,-1.03125 2.90625,-0.28125 4.5,-0.28125 0.46875,0 0.75,0.09375 0.375,0 0.5625,0 h 0.46875 q -5.4375,1.21875 -10.687502,3 -4.5,1.59375 -9.65625,4.125 -5.0625,2.4375 -9.09375,6 -3.46875,3.09375 -5.8125,6.5625 -2.34375,3.375 -3.84375,6.375 -1.6875,3.46875 -2.71875,6.75 2.53125,-5.90625 6.46875,-10.125 3.9375,-4.3125 9.65625,-7.21875 5.71875,-3 13.21875,-4.875 7.593752,-1.875 17.156252,-2.90625 -3.28125,1.125 -7.125,2.25 -3.84375,1.03125 -7.968752,2.4375 -4.03125,1.3125 -8.15625,3.28125 -4.03125,1.875 -7.875,4.6875 -3.75,2.71875 -7.03125,6.5625 -3.28125,3.75 -5.71875,9 l 3.5625,3.000004 q 2.4375,-1.875004 5.15625,-3.000004 2.71875,-1.21875 5.15625,-1.21875 l 1.3125,2.4375 q -1.5,2.531254 -3.28125,4.593754 -1.78125,2.0625 -3.84375,3.84375 3,11.4375 9.46875,16.40625 6.65625,4.96875 12.1875,4.96875 1.312502,0 2.437502,-0.0937 1.21875,-0.0937 2.25,-0.0937 11.25,0 21.09375,-1.6875 9.84375,-1.6875 15.28125,-1.6875 z m -10.875,69.1875 q -0.46875,0.65625 -0.84375,1.03125 -0.28125,0.28125 -0.75,0.5625 l -2.625,2.15625 q -1.3125,0.9375 -2.0625,2.71875 h 4.21875 q 0,-1.3125 0.1875,-2.625 0.28125,-1.40625 1.6875,-2.15625 l 0.75,0.0937 q 1.78125,-3.375 3.28125,-6.1875 1.3125,-2.4375 2.34375,-4.5 1.125,-2.15625 1.40625,-2.71875 l 5.53125,-12.375 q 0.46875,-1.3125 0.9375,-2.625 0.46875,-1.125 0.84375,-2.25 0.46875,-1.21875 0.9375,-2.15625 l -2.90625,-3 q -0.46875,4.3125 -1.3125,7.875 -0.84375,3.46875 -2.25,7.6875 -0.1875,0.65625 -1.3125,3.1875 -1.03125,2.4375 -2.53125,5.4375 -1.5,2.90625 -3.09375,5.71875 -1.5,2.8125 -2.4375,4.125 z m -61.875002,0.9375 q -0.84375,0.375 -1.96875,1.03125 -1.03125,0.65625 -2.0625,1.5 -1.03125,0.75 -1.96875,1.59375 -0.84375,0.75 -1.40625,1.40625 h 2.8125 q 0.28125,-0.5625 0.84375,-1.21875 0.65625,-0.75 1.3125,-1.40625 0.75,-0.75 1.5,-1.21875 0.75,-0.5625 1.3125,-0.75 1.125,-3.1875 2.53125,-7.6875 1.5,-4.59375 3.1875,-9.375 1.6875,-4.78125 3.5625,-9.28125 1.96875,-4.5 4.03125,-7.59375 l -3,-1.6875 q -1.21875,3.28125 -2.71875,7.875 -1.5,4.5 -3,9.375 -1.5,4.78125 -2.8125,9.46875 -1.3125,4.59375 -2.15625,7.96875 z m 85.500002,1.40625 q -0.75,0.375 -2.15625,1.5 -1.40625,1.125 -1.875,2.625 h 2.90625 l 0.46875,-2.8125 q 0,-0.0937 0.84375,-0.375 0.9375,-0.375 1.40625,-1.875 0.65625,-2.0625 1.21875,-4.5 0.65625,-2.4375 1.125,-4.78125 0.46875,-2.4375 0.75,-4.5 0.28125,-2.0625 0.28125,-3.375 v -3.375 q 0,-1.3125 -0.5625,-4.6875 -0.5625,-3.375 -1.6875,-6.9375 l -0.5625,-1.59375 q -0.5625,-1.125 -0.5625,-2.34375 1.40625,-8.625 2.90625,-11.71875 1.5,-3.09375 1.5,-5.53125 0,-1.875 -0.375,-4.78125 -0.28125,-2.90625 -2.15625,-5.34375 -3.9375,-2.4375 -7.78125,-3.1875 -3.84375,-0.84375 -7.78125,-0.84375 -5.0625,0 -15.75,1.6875 -5.34375,0.75 -10.6875,1.21875 -5.25,0.375 -10.59375,0.375 h -3.75 q -6.562502,0 -10.593752,-2.53125 -3.9375,-2.4375 -7.5,-5.71875 -3.375,-3.1875 -7.03125,-13.78125 l -2.8125,1.78125 -1.3125,-2.25 q 2.90625,-1.78125 5.25,-4.125 2.34375,-2.34375 4.21875,-4.875 -0.75,0.28125 -1.96875,0.75 -1.125,0.46875 -2.625,1.5 -1.40625,0.9375 -3,2.53125 -1.59375,1.59375 -3.1875,4.125 l -2.53125,-1.125 q 0.46875,-0.84375 1.03125,-1.78125 0.46875,-0.75 1.125,-1.59375 0.75,-0.9375 1.59375,-1.78125 -0.1875,-0.1875 -0.5625,-0.46875 -0.28125,-0.375 -0.5625,-0.5625 l -0.75,-0.5625 h -6.09375 q -1.6875,1.125 -2.8125,2.53125 -1.03125,1.40625 -1.875,2.90625 l -1.59375,3.09375 q -1.6875,3.1875 -7.03125,7.40625 -5.34375,4.21875 -5.34375,9 l 1.96875,2.15625 q 4.6875,-1.21875 8.0625,-1.6875 3.375,-0.5625 5.71875,-1.3125 2.4375,-0.75 4.03125,-2.15625 1.6875,-1.5 3.09375,-4.59375 l 2.8125,1.125 q -0.28125,0.46875 -0.5625,1.03125 -0.1875,0.46875 -0.5625,1.125 -0.28125,0.5625 -0.5625,1.125 -1.21875,2.25 -2.8125,3.28125 0,5.34375 2.15625,10.96875 2.15625,5.625 5.90625,11.90625 l 5.0625,8.34375 5.34375,2.71875 h 4.78125 q -2.4375,-5.0625 -4.5,-9.9375 -2.0625,-4.96875 -2.53125,-10.3125 v -1.125 q 0,-1.5 0,-2.625 0.09375,-1.21875 0.1875,-1.96875 0.09375,-0.9375 0.1875,-1.5 l 2.90625,0.65625 q -0.09375,0.75 -0.1875,1.5 -0.09375,0.65625 -0.1875,1.40625 0,0.65625 0,1.21875 0,7.3125 4.875,16.96875 2.4375,4.875 3.9375,8.90625 1.5,3.9375 2.25,7.40625 l 2.25,24.5625 -0.84375,1.6875 q -0.9375,0.1875 -2.25,1.59375 -1.21875,1.3125 -1.78125,2.34375 h 4.3125 q 0,-0.84375 -0.09375,-1.21875 0,-0.46875 0.375,-1.6875 0.375,-1.21875 1.5,-2.53125 l -2.8125,-27.375 q -0.09375,-0.75 -0.09375,-1.5 -0.09375,-0.65625 -0.09375,-1.3125 0,-0.75 0,-1.3125 0,-0.9375 0.1875,-2.625 0.1875,-1.6875 0.375,-3.375 0.28125,-1.96875 0.5625,-4.21875 l 3.000002,0.28125 -1.218752,7.40625 h 7.125002 q 2.8125,0 5.53125,0.5625 2.71875,0.46875 5.15625,2.34375 3.9375,-2.8125 9.09375,-4.125 5.34375,-1.40625 15,-1.6875 -0.28125,-0.375 -0.5625,-0.75 -0.28125,-0.46875 -0.65625,-0.9375 l -7.59375,-11.15625 2.53125,-1.6875 6.75,9.9375 q 4.96875,7.21875 10.59375,10.875 2.90625,1.875 4.125,5.25 1.21875,3.28125 1.21875,8.34375 0,0.75 -0.375,2.8125 -0.28125,1.96875 -0.75,4.5 -0.46875,2.53125 -1.125,5.15625 -0.65625,2.625 -1.3125,4.59375 -0.375,1.03125 -0.5625,1.125 -0.0937,0.0937 -0.0937,0.1875 z m -90.656252,-83.625 q -1.59375,1.03125 -2.4375,1.03125 -1.03125,0 -1.03125,-1.59375 0,-1.21875 0.75,-1.21875 0.9375,0 2.71875,1.78125 z"
         id="path29824"
         inkscape:connector-curvature="0" />
    </g>
  </g>
</svg>
