<?xml version="1.0" encoding="UTF-8" standalone="no"?>
<!-- Created with Inkscape (http://www.inkscape.org/) -->

<svg
   xmlns:dc="http://purl.org/dc/elements/1.1/"
   xmlns:cc="http://creativecommons.org/ns#"
   xmlns:rdf="http://www.w3.org/1999/02/22-rdf-syntax-ns#"
   xmlns:svg="http://www.w3.org/2000/svg"
   xmlns="http://www.w3.org/2000/svg"
   xmlns:sodipodi="http://sodipodi.sourceforge.net/DTD/sodipodi-0.dtd"
   xmlns:inkscape="http://www.inkscape.org/namespaces/inkscape"
   width="33.684803mm"
   height="35.66914mm"
   viewBox="0 0 33.684803 35.66914"
   version="1.1"
   id="svg29833"
   inkscape:version="0.92.4 (5da689c313, 2019-01-14)"
   sodipodi:docname="E28A.svg">
  <defs
     id="defs29827" />
  <sodipodi:namedview
     id="base"
     pagecolor="#ffffff"
     bordercolor="#666666"
     borderopacity="1.0"
     inkscape:pageopacity="0.0"
     inkscape:pageshadow="2"
     inkscape:zoom="0.35"
     inkscape:cx="-352.85742"
     inkscape:cy="-279.11394"
     inkscape:document-units="mm"
     inkscape:current-layer="layer1"
     showgrid="false"
     fit-margin-top="0"
     fit-margin-left="0"
     fit-margin-right="0"
     fit-margin-bottom="0"
     inkscape:window-width="1920"
     inkscape:window-height="1017"
     inkscape:window-x="-8"
     inkscape:window-y="-8"
     inkscape:window-maximized="1" />
  <metadata
     id="metadata29830">
    <rdf:RDF>
      <cc:Work
         rdf:about="">
        <dc:format>image/svg+xml</dc:format>
        <dc:type
           rdf:resource="http://purl.org/dc/dcmitype/StillImage" />
        <dc:title></dc:title>
      </cc:Work>
    </rdf:RDF>
  </metadata>
  <g
     inkscape:label="Layer 1"
     inkscape:groupmode="layer"
     id="layer1"
     transform="translate(-6.0476928,-39.315297)">
    <g
       aria-label="𓃳"
       transform="scale(0.26458333)"
       style="font-style:normal;font-variant:normal;font-weight:normal;font-stretch:normal;font-size:192px;line-height:1.25;font-family:sans-serif;-inkscape-font-specification:sans-serif;font-variant-ligatures:normal;font-variant-caps:normal;font-variant-numeric:normal;font-feature-settings:normal;text-align:start;letter-spacing:0px;word-spacing:0px;writing-mode:lr-tb;text-anchor:start;fill:#000000;fill-opacity:1;stroke:none"
       id="flowRoot30378">
      <path
         d="m 50.419922,248.06195 h 15.9375 l -0.46875,-1.03125 q 1.03125,-1.875 2.4375,-3.375 1.5,-1.59375 3.65625,-2.34375 1.3125,-6.28125 2.8125,-12 1.59375,-5.8125 3.9375,-11.71875 -0.46875,-0.65625 -1.03125,-1.5 -0.46875,-0.9375 -0.84375,-1.6875 l -1.125,-2.53125 q -0.9375,-2.0625 -2.0625,-4.03125 -1.03125,-1.96875 -1.96875,-3.9375 -0.9375,-2.0625 -1.6875,-4.125 -0.65625,-2.0625 -0.84375,-4.5 -2.53125,0.75 -5.4375,1.03125 -2.8125,0.1875 -5.15625,1.3125 l -1.875,-0.0937 q -1.03125,-1.125 -2.15625,-2.15625 0,-0.28125 -0.46875,-1.40625 0,-3.84375 4.125,-7.6875 4.03125,-3.75 5.34375,-5.90625 l 1.40625,-2.4375 q 0.65625,-1.125 1.40625,-2.15625 0.84375,-1.125 2.15625,-1.875 l 0.9375,-0.375 q 2.4375,-11.4375 11.15625,-18.1875 8.8125,-6.75 22.031248,-6.75 -13.499998,3.1875 -19.874998,8.34375 -6.375,4.96875 -9.75,14.34375 2.625,-6.28125 9,-10.5 6.375,-4.125 23.812498,-6.84375 -18.187498,5.4375 -23.156248,9.9375 -4.78125,4.40625 -7.59375,9.84375 1.125,0.28125 2.25,1.5 1.5,-1.03125 3.28125,-1.875 1.875,-0.9375 3.75,-0.9375 l 1.3125,2.4375 q -1.03125,1.6875 -2.25,3.1875 -1.21875,1.40625 -2.625,2.8125 l 1.03125,3.1875 q 1.3125,4.21875 5.53125,7.875 4.3125,3.75 12.375,3.75 2.437498,0 5.624998,-0.375 3.28125,-0.46875 6.65625,-1.03125 3.46875,-0.5625 6.84375,-0.9375 3.46875,-0.46875 6.375,-0.46875 8.8125,0 13.03125,4.21875 4.3125,4.21875 4.3125,12.1875 0,0.65625 -0.0937,1.3125 0,0.65625 -0.0937,1.3125 l -0.28125,2.15625 q -0.375,2.71875 -0.84375,3.84375 -0.46875,1.03125 -1.21875,1.03125 -0.65625,0 -0.65625,-1.6875 0,-2.15625 0.75,-4.40625 0.75,-2.25 0.75,-4.96875 0,-0.5625 -0.0937,-1.3125 -0.0937,-0.84375 -0.28125,-1.3125 0,1.59375 -0.5625,3.1875 -0.5625,1.5 -1.21875,3.09375 -0.65625,1.5 -1.21875,3.09375 -0.5625,1.59375 -0.5625,3.1875 0.5625,1.59375 0.84375,3.46875 0.28125,1.78125 0.46875,3.5625 0.1875,1.6875 0.1875,3.09375 0.0937,1.40625 0.0937,2.0625 0,5.25 -1.59375,10.3125 -1.59375,4.96875 -1.78125,4.96875 -0.1875,0 -0.84375,0.46875 -0.0937,0.1875 -0.0937,0.5625 v 1.78125 h 15.9375 v 4.78125 h -10.59375 v 8.15625 h 10.59375 v 4.6875 h -10.59375 v 13.03125 h 10.59375 v 4.6875 H 22.857422 v -4.6875 h 10.6875 V 265.687 h -10.6875 v -4.6875 h 10.6875 v -8.15625 h -10.6875 V 248.062 h 11.53125 l -3.75,-25.125 1.40625,-1.78125 h 20.625 l 1.59375,1.5 z m 24.84375,-59.15625 q 0,1.40625 -1.03125,2.90625 -1.03125,1.40625 -2.15625,2.15625 0.1875,3.9375 2.25,9.1875 2.15625,5.15625 6.9375,12.46875 0.84375,0.375 1.6875,0.9375 0.9375,0.46875 1.875,0.84375 h 1.5 q -1.125,-2.15625 -1.96875,-4.59375 -0.75,-2.15625 -1.3125,-4.78125 -0.5625,-2.625 -0.5625,-5.53125 0,-1.875 0.46875,-4.21875 0.1875,0.1875 0.84375,0.28125 0.65625,0.0937 2.0625,0.46875 -0.1875,0.9375 -0.1875,1.78125 0,0.84375 0,1.6875 0,3.5625 0.75,6.46875 0.84375,2.90625 1.96875,5.71875 1.125,2.71875 2.34375,5.4375 1.21875,2.71875 2.0625,5.8125 0,-0.375 -0.09375,-1.03125 0,-0.75 -0.09375,-1.59375 0,-0.84375 0,-1.59375 0,-0.75 0,-1.125 0,-3.46875 0.28125,-5.4375 0.09375,-1.125 0.28125,-2.0625 l 2.53125,0.65625 -0.46875,4.6875 h 4.40625 q 2.156248,0 4.218748,0.28125 2.0625,0.28125 4.125,1.59375 3.28125,-2.15625 7.3125,-2.90625 4.03125,-0.75 7.96875,-0.9375 l -4.59375,-9.1875 2.34375,-1.125 5.71875,11.25 q -0.5625,2.625 -0.84375,3.9375 -0.28125,1.21875 -0.375,1.875 0,0.5625 -0.0937,0.75 0,0.1875 -0.0937,0.65625 l 2.8125,-5.4375 2.0625,0.0937 q 2.0625,1.3125 3.65625,2.90625 1.59375,1.5 2.34375,3.09375 l -1.78125,-8.25 q 0.28125,-2.34375 0.84375,-4.21875 0.5625,-1.96875 1.125,-3.5625 0.5625,-1.59375 1.03125,-2.8125 0.5625,-1.21875 0.65625,-2.15625 0.0937,-0.46875 0.0937,-0.65625 0,-0.1875 0,-0.65625 0,-0.5625 -0.46875,-1.6875 -0.375,-1.21875 -1.40625,-2.0625 -1.875,-1.5 -4.59375,-2.4375 -2.625,-1.03125 -6.5625,-1.03125 -2.25,0 -5.71875,0.46875 -3.375,0.375 -7.03125,0.84375 -3.65625,0.46875 -7.03125,0.9375 -3.375,0.375 -5.531248,0.375 -9.28125,0 -14.25,-4.03125 -4.96875,-4.125 -6.65625,-9.5625 l -1.3125,-4.125 q 0.1875,-0.46875 0.28125,-0.84375 0.09375,-0.375 0.1875,-0.5625 l 2.53125,-2.625 -2.71875,1.78125 -1.96875,-0.0937 -1.21875,-1.6875 q -0.65625,-0.375 -1.59375,-0.375 -0.28125,0 -1.125,0.1875 -0.84375,0.0937 -1.96875,0.0937 -1.03125,0.75 -1.78125,1.78125 -0.65625,0.9375 -1.21875,1.96875 l -1.21875,2.15625 q -1.03125,1.78125 -4.96875,5.4375 -3.75,3.375 -3.75,5.8125 l 1.03125,0.9375 q 1.03125,-0.46875 2.8125,-0.84375 1.78125,-0.375 4.40625,-0.75 2.625,-0.375 3.84375,-0.9375 1.3125,-0.5625 1.78125,-1.3125 0.375,-0.5625 0.65625,-1.03125 0.28125,-0.46875 0.46875,-0.84375 0.28125,-0.375 0.375,-0.75 z m 20.4375,58.40625 -0.5625,0.75 h 15.656248 q -0.0937,-0.1875 -0.0937,-0.28125 -0.0937,-0.0937 -0.0937,-0.28125 0,-3.1875 3.46875,-5.25 3.375,-2.0625 6.09375,-8.71875 1.3125,-3.28125 2.15625,-6.84375 0.9375,-3.5625 1.6875,-7.3125 -3.9375,0.28125 -7.96875,1.03125 -4.03125,0.65625 -7.21875,2.90625 l -1.875,-0.0937 q -1.59375,-1.21875 -3.28125,-1.5 -1.6875,-0.375 -3.5625,-0.375 -1.124998,0 -2.156248,0.0937 -0.9375,0 -1.6875,0 h -1.59375 q 0.1875,5.53125 0.84375,11.0625 0.75,5.53125 1.6875,10.96875 l -1.40625,1.3125 -0.375,1.59375 z m -22.875,-1.59375 q -0.5625,0.375 -1.03125,1.125 -0.375,0.65625 -0.65625,1.21875 h 18.75 l -0.46875,-1.03125 q 0.5625,-1.3125 1.5,-2.625 0.9375,-1.3125 2.25,-1.96875 0,-0.375 -0.28125,-2.625 -0.28125,-2.25 -0.75,-6.46875 -0.46875,-4.21875 -1.59375,-7.40625 -1.125,-3.28125 -2.34375,-5.53125 h -3.84375 q -2.34375,3.5625 -4.3125,8.15625 -1.96875,4.59375 -3.75,10.21875 l -2.0625,6.28125 z m -25.125,0.5625 3.28125,-22.125 h -17.15625 l 3.28125,22.125 z m 69.468748,1.78125 h 12.1875 q 0,-0.1875 -0.0937,-0.46875 -0.0937,-0.375 -0.1875,-0.5625 0.28125,-1.5 1.21875,-2.8125 0.9375,-1.40625 2.25,-1.96875 l 1.875,-6.1875 q 0.84375,-2.90625 0.84375,-5.71875 0,-2.34375 -1.21875,-4.5 -1.125,-2.25 -4.5,-4.5 -1.3125,3.09375 -3.28125,7.21875 -1.875,4.03125 -4.03125,8.34375 -1.03125,2.15625 -1.875,3.75 -0.84375,1.59375 -1.40625,2.625 -0.65625,1.21875 -1.21875,2.0625 l -0.5625,0.28125 z m -16.96875,30.65625 h 15.9375 v -13.03125 h -15.9375 z m -21.281248,0 h 16.59375 v -13.03125 h -16.59375 z m -20.71875,0 h 15.9375 v -13.03125 h -15.9375 z m -19.96875,0 h 15.28125 v -13.03125 h -15.28125 z m 82.593748,0 h 13.96875 v -13.03125 h -13.96875 z m -4.6875,-25.875 h -15.9375 v 8.15625 h 15.9375 z m -41.999998,0 h -15.9375 v 8.15625 h 15.9375 z m 21.375,0 h -16.59375 v 8.15625 h 16.59375 z m -42,0 h -15.28125 v 8.15625 h 15.28125 z m 81.281248,0 h -13.96875 v 8.15625 h 13.96875 z m -57.468748,-23.25 q 1.03125,-2.625 2.15625,-5.0625 1.21875,-2.53125 2.71875,-4.96875 l -1.21875,-0.65625 q -2.15625,5.25 -3.65625,10.6875 z m -7.78125,-45 q -1.3125,0.75 -1.78125,0.75 -0.65625,0 -0.65625,-1.125 0,-0.84375 0.46875,-0.84375 0.75,0 1.96875,1.21875 z m 45.843748,59.71875 q -1.5,0.65625 -2.34375,1.96875 h 2.0625 l 0.0937,-1.03125 q 0,-0.375 0.1875,-0.9375 z m -21.562498,0.28125 q -0.75,0.46875 -1.3125,1.03125 -0.375,0.375 -0.5625,0.65625 h 1.875 z m -23.8125,1.6875 1.03125,-1.96875 q -1.03125,0.46875 -1.6875,1.125 -0.375,0.375 -0.75,0.84375 z m 62.624998,-1.78125 q -0.1875,0.1875 -0.75,0.65625 -0.46875,0.46875 -0.65625,1.125 h 1.3125 z"
         id="path30386"
         inkscape:connector-curvature="0" />
    </g>
  </g>
</svg>
