<?xml version="1.0" encoding="UTF-8" standalone="no"?>
<!-- Created with Inkscape (http://www.inkscape.org/) -->

<svg
   xmlns:dc="http://purl.org/dc/elements/1.1/"
   xmlns:cc="http://creativecommons.org/ns#"
   xmlns:rdf="http://www.w3.org/1999/02/22-rdf-syntax-ns#"
   xmlns:svg="http://www.w3.org/2000/svg"
   xmlns="http://www.w3.org/2000/svg"
   xmlns:sodipodi="http://sodipodi.sourceforge.net/DTD/sodipodi-0.dtd"
   xmlns:inkscape="http://www.inkscape.org/namespaces/inkscape"
   width="31.799608mm"
   height="37.727955mm"
   viewBox="0 0 31.799608 37.727955"
   version="1.1"
   id="svg8738"
   inkscape:version="0.92.4 (5da689c313, 2019-01-14)"
   sodipodi:docname="E29.svg">
  <defs
     id="defs8732" />
  <sodipodi:namedview
     id="base"
     pagecolor="#ffffff"
     bordercolor="#666666"
     borderopacity="1.0"
     inkscape:pageopacity="0.0"
     inkscape:pageshadow="2"
     inkscape:zoom="0.35"
     inkscape:cx="-340.40234"
     inkscape:cy="-354.76032"
     inkscape:document-units="mm"
     inkscape:current-layer="layer1"
     showgrid="false"
     fit-margin-top="0"
     fit-margin-left="0"
     fit-margin-right="0"
     fit-margin-bottom="0"
     inkscape:window-width="1920"
     inkscape:window-height="1017"
     inkscape:window-x="-8"
     inkscape:window-y="-8"
     inkscape:window-maximized="1" />
  <metadata
     id="metadata8735">
    <rdf:RDF>
      <cc:Work
         rdf:about="">
        <dc:format>image/svg+xml</dc:format>
        <dc:type
           rdf:resource="http://purl.org/dc/dcmitype/StillImage" />
        <dc:title></dc:title>
      </cc:Work>
    </rdf:RDF>
  </metadata>
  <g
     inkscape:label="Layer 1"
     inkscape:groupmode="layer"
     id="layer1"
     transform="translate(-2.7522868,-17.24171)">
    <g
       aria-label="𓃴"
       transform="scale(0.26458333)"
       style="font-style:normal;font-variant:normal;font-weight:normal;font-stretch:normal;font-size:192px;line-height:1.25;font-family:sans-serif;-inkscape-font-specification:'sans-serif, Normal';font-variant-ligatures:normal;font-variant-caps:normal;font-variant-numeric:normal;font-feature-settings:normal;text-align:start;letter-spacing:0px;word-spacing:0px;writing-mode:lr-tb;text-anchor:start;fill:#000000;fill-opacity:1;stroke:none"
       id="flowRoot9286">
      <path
         d="m 96.652344,205.79047 -1.5,1.96875 h -7.59375 l -1.40625,-1.78125 q 0,-4.59375 5.0625,-7.3125 4.96875,-2.625 8.25,-13.3125 3.281246,-10.6875 3.281246,-18.375 0,-1.78125 -0.375,-3.375 -0.375,-1.6875 -1.40625,-2.71875 -4.781246,0.46875 -9.187496,0.75 -4.3125,0.1875 -8.8125,0.1875 -3.28125,0 -6.65625,-0.0937 -3.28125,-0.1875 -6.75,-0.65625 0,9.9375 0.75,19.59375 0.75,9.65625 2.25,19.5 l -1.78125,1.59375 q -0.46875,0.75 -0.46875,1.40625 0,1.03125 0.1875,1.78125 0.28125,0.65625 0.46875,0.84375 l -1.5,1.96875 h -7.59375 l -1.21875,-2.25 q 0,-1.96875 2.0625,-4.03125 2.15625,-2.15625 3.84375,-2.53125 0,-9.9375 -1.96875,-18.84375 -1.875,-9 -7.5,-17.15625 -2.71875,2.15625 -4.40625,5.34375 l -3.375,6.09375 q -3.9375,7.125 -7.125,14.4375 -3.1875,7.3125 -6,14.90625 l -2.4375,0.65625 q -1.03125,0.84375 -1.59375,1.6875 -0.375,0.46875 -0.65625,1.125 l -1.3125,0.5625 h -6.09375 l -1.21875,-2.25 0.46875,-0.75 q 1.59375,-2.15625 3.65625,-3.28125 2.0625,-1.125 4.5,-2.15625 1.3125,-3.5625 3.09375,-7.59375 1.78125,-4.03125 3.65625,-7.96875 1.96875,-4.03125 3.84375,-7.78125 1.96875,-3.75 3.5625,-6.84375 1.59375,-3.09375 2.71875,-5.25 1.125,-2.15625 1.40625,-3 -4.125,-9.28125 -11.15625,-20.71875 -3.46875,-5.71875 -5.8125,-9.65625 -2.34375,-4.03125 -3.65625,-6.375 -0.9375,-0.65625 -1.59375,-0.84375 -0.65625,-0.28125 -1.3125,-0.28125 -0.46875,0 -1.5,0.28125 -0.9375,0.1875 -3.1875,0.9375 l -4.96875,1.6875 q -1.59375,0.46875 -2.625,0.46875 -1.59375,0 -2.625,-0.9375 -0.9375,-1.03125 -0.9375,-2.53125 0,-1.59375 1.40625,-4.5 1.40625,-3 3.9375,-6.375 l 2.25,-3.09375 q 2.71875,-3.5625 5.25,-6.9375 2.625,-3.375002 4.03125,-6.468752 1.5,-3.1875 2.71875,-5.625 1.3125,-2.4375 2.625,-4.3125 1.3125,-1.875 2.8125,-3.28125 1.59375,-1.5 3.5625,-2.625 2.0625,-1.21875 4.125,-3.46875 2.15625,-2.25 3.75,-4.59375 1.59375,-2.34375 2.25,-3.1875 0.65625,-0.9375 1.125,-1.78125 0.46875,-0.75 0.65625,-1.125 0.28125,-0.375 0.75,-0.375 0.65625,0 0.65625,1.5 0,0.28125 -0.28125,1.125 -0.28125,0.75 -0.84375,1.875 -0.46875,1.03125 -1.21875,2.25 -0.75,1.21875 -1.59375,2.34375 -2.0625,2.625 -3.9375,4.21875 -1.875,1.59375 -3.46875,2.53125 -2.0625,1.125 -3.5625,2.625 -1.40625,1.5 -2.53125,3.375 -1.21875,1.96875 -1.78125,4.59375 -0.46875,2.625 -0.46875,5.90625 1.875,0 3.09375,0.5625 1.21875,0.46875 1.96875,0.9375 0.375,-0.46875 1.125,-1.5 0.75,-1.125 1.96875,-2.90625 2.53125,-3.65625 5.53125,-4.6875 l 1.96875,0.9375 q 0.46875,1.125 0.46875,1.96875 0,2.71875 -3.375,7.312502 -3.28125,4.6875 -3.28125,8.0625 0,4.21875 3.375,9 3.46875,4.6875 7.875,7.40625 2.25,0 4.6875,-0.0937 2.0625,0 4.3125,0 2.34375,-0.0937 4.3125,-0.0937 11.25,0 17.15625,1.03125 6,0.9375 7.875,1.6875 l 5.4375,1.78125 q 2.34375,0.84375 9.749996,0.84375 7.5,0 13.78125,3.75 6.375,3.75 8.625,10.21875 0.75,2.15625 1.03125,3.375 0.28125,1.125 0.28125,2.0625 0,0.84375 -0.1875,1.3125 -0.1875,0.375 -0.5625,0.75 -0.46875,0.1875 -0.84375,0.375 -0.28125,0.0937 -0.46875,0.1875 -1.125,0 -2.25,-0.1875 -1.125,-0.28125 -2.0625,-0.84375 -1.03125,2.0625 -2.15625,4.03125 -1.125,1.875 -1.125,4.3125 2.53125,7.125 5.71875,10.125 0.5625,0.5625 1.125,1.21875 0.65625,0.65625 1.125,1.21875 0.5625,0.65625 1.125,1.3125 -0.0937,5.53125 -0.28125,10.78125 -0.0937,2.25 -0.1875,4.6875 -0.0937,2.4375 -0.28125,4.78125 -0.1875,2.34375 -0.375,4.59375 -0.1875,2.15625 -0.375,3.9375 -0.1875,0.1875 -0.75,0.375 -0.28125,0.0937 -0.46875,0.1875 l -0.28125,3.9375 -1.59375,1.5 h -6.09375 l -1.40625,-1.78125 0.65625,-2.0625 q 1.40625,-4.40625 4.03125,-5.0625 0.84375,-6.1875 1.03125,-12.375 0.28125,-6.1875 0.375,-12.375 -1.875,-0.75 -3.375,-2.0625 -1.5,-1.3125 -2.8125,-2.8125 l -2.71875,-2.8125 q -1.3125,-1.3125 -3,-2.25 -2.71875,3.9375 -6.5625,18.65625 -3.65625,14.34375 -7.593746,19.875 l -1.875,0.1875 z m -62.25,-4.03125 q 0.65625,-2.4375 2.15625,-6.1875 1.5,-3.75 3.46875,-7.96875 1.96875,-4.21875 4.125,-8.625 2.25,-4.40625 4.40625,-8.0625 2.15625,-3.75 4.03125,-6.46875 1.875,-2.71875 3.1875,-3.5625 -0.46875,-1.03125 -1.5,-2.90625 -1.03125,-1.875 -2.34375,-4.3125 -2.53125,-4.875 -2.53125,-10.21875 0,-1.03125 0,-2.0625 0.09375,-1.03125 0.1875,-1.875 0.09375,-0.9375 0.28125,-1.78125 l 3,0.28125 q -0.09375,1.40625 -0.1875,2.90625 -0.09375,1.3125 -0.09375,2.8125 0,1.40625 0,2.625 0,1.59375 0.9375,3.9375 1.03125,2.34375 2.53125,4.96875 1.5,2.625 2.90625,5.15625 1.5,2.53125 2.8125,4.78125 0.75,1.3125 1.875,4.03125 1.21875,2.625 2.34375,6.9375 1.125,4.21875 1.875,10.125 0.84375,5.90625 0.84375,13.59375 0,0.5625 -0.75,1.21875 -0.75,0.5625 -1.6875,1.21875 -0.9375,0.5625 -1.6875,1.21875 -0.75,0.65625 -0.84375,1.21875 h 4.3125 l -0.1875,-2.25 q 0.28125,-0.5625 0.65625,-1.03125 0.28125,-0.46875 0.65625,-0.9375 0.46875,-0.5625 0.9375,-1.03125 -0.1875,-1.40625 -0.5625,-4.5 -0.28125,-3.1875 -0.65625,-7.125 -0.375,-3.9375 -0.84375,-8.25 -0.375,-4.40625 -0.75,-8.34375 -0.28125,-3.9375 -0.5625,-7.03125 -0.1875,-3.1875 -0.1875,-4.59375 l 1.875,-1.6875 q 3.28125,0.375 7.125,0.75 3.84375,0.375 7.03125,0.375 l 14.625,-1.03125 q 1.03125,0 1.875,0 0.937496,0 1.687496,-0.0937 l 5.0625,-2.90625 -7.406246,-13.03125 2.531246,-1.6875 12,21 q 1.21875,0.65625 2.4375,1.96875 1.21875,1.21875 2.71875,2.90625 1.6875,1.875 3.1875,3.375 1.59375,1.5 3.65625,2.53125 l 1.125,1.3125 q 0,1.96875 -0.0937,5.4375 0,3.46875 -0.1875,7.40625 -0.0937,3.84375 -0.375,7.6875 -0.1875,3.75 -0.65625,6.375 l -1.5,1.3125 q -0.9375,0 -1.5,1.5 l -0.65625,1.59375 h 3.28125 l 0.1875,-1.6875 q 0.46875,-0.5625 0.84375,-1.125 0.375,-0.46875 0.65625,-0.9375 0.375,-0.46875 0.5625,-0.75 0.28125,-1.96875 0.46875,-4.875 0.1875,-3 0.28125,-6.1875 0.1875,-3.28125 0.28125,-6.46875 0.0937,-3.1875 0.0937,-5.71875 0,-1.03125 -0.0937,-1.875 0,-0.84375 0,-1.5 -1.5,-1.6875 -3.1875,-3.84375 -1.6875,-2.15625 -3.1875,-4.21875 -1.40625,-2.15625 -2.34375,-4.03125 -0.9375,-1.96875 -0.9375,-3.28125 0,-2.8125 1.875,-5.8125 2.0625,-3.09375 2.4375,-5.0625 -1.03125,-3 -2.15625,-6.28125 -1.03125,-3.375 -3.09375,-6 -2.0625,-0.84375 -4.21875,-1.3125 -2.15625,-0.46875 -4.5,-0.65625 l -4.78125,-0.375 q -7.499996,-0.5625 -8.999996,-1.5 -1.5,-0.9375 -7.40625,-2.25 -5.8125,-1.40625 -12.84375,-1.40625 h -2.90625 q -2.34375,0 -5.34375,0.0937 -3,0.0937 -6.375,0.0937 -3.75,0 -7.40625,-0.28125 -6,-3.5625 -9.5625,-8.90625 -3.5625,-5.4375 -3.5625,-11.90625 -2.15625,-6.09375 -7.03125,-6.09375 -1.03125,0 -2.0625,0.28125 -1.03125,0.28125 -1.96875,0.65625 -0.84375,0.375 -1.5,0.75 -0.65625,0.375 -0.9375,0.46875 l -2.53125,4.125 -4.96875,6.5625 q -4.59375,6.09375 -4.59375,9.9375 l 0.9375,-0.0937 q 0.5625,-0.0937 1.96875,-0.5625 1.40625,-0.46875 3.75,-1.21875 4.78125,-1.59375 6.09375,-1.59375 3.84375,0 5.8125,3.375 0.9375,1.59375 1.6875,2.90625 0.75,1.21875 1.21875,2.0625 l 3.09375,5.15625 q 4.03125,6.75 7.6875,13.21875 3.75,6.46875 6.9375,13.78125 v 0.9375 q -0.46875,0.1875 -2.0625,3 -1.59375,2.71875 -3.75,6.84375 -2.15625,4.03125 -4.59375,8.90625 -2.34375,4.78125 -4.3125,9.09375 -1.96875,4.3125 -3.28125,7.5 -1.3125,3.1875 -1.3125,4.03125 l -2.625,1.125 -1.78125,1.40625 -1.59375,1.5 h 1.96875 l 0.65625,-1.03125 q 0.46875,-0.65625 1.5,-1.3125 1.125,-0.65625 2.4375,-0.65625 z m 91.218746,-53.8125 q 0.65625,0.84375 1.78125,0.84375 -0.5625,-5.53125 -4.5,-9.46875 0.75,2.0625 1.3125,3.75 z m -85.499996,-45.9375 0.375,0.75 q 1.21875,-2.25 2.71875,-4.406252 1.59375,-2.25 2.15625,-4.59375 -1.875,1.40625 -3.09375,3.75 -1.125,2.25 -2.625,3.937502 z m -12.9375,7.5 q -1.875,2.4375 -2.625,2.4375 -0.75,0 -0.75,-1.875 0,-2.15625 1.03125,-2.15625 0.75,0 2.34375,1.59375 z m 80.062496,47.8125 -3.28125,2.4375 1.5,4.40625 v 0.65625 q 0,0.75 -0.0937,2.25 0,1.40625 -0.28125,3.28125 -0.1875,1.59375 -0.75,3.84375 -0.46875,2.15625 -1.125,4.5 -0.5625,2.25 -1.3125,4.59375 -0.65625,2.34375 -1.3125,4.21875 -0.5625,1.78125 -1.031246,3.09375 -0.375,1.21875 -0.46875,1.40625 -1.03125,2.34375 -2.53125,4.6875 -1.5,2.25 -3.1875,3.28125 -1.59375,0.9375 -2.8125,2.25 -1.21875,1.21875 -1.6875,2.53125 h 4.78125 q -0.09375,-0.375 -0.1875,-0.65625 0,-0.375 0,-0.84375 0,-1.78125 0.5625,-2.15625 0.65625,-0.375 1.21875,-0.375 0.46875,0 0.65625,0.1875 0.1875,0.0937 0.375,0.1875 0.375,-0.65625 0.84375,-1.59375 0.5625,-0.9375 1.03125,-1.96875 0.5625,-1.03125 1.03125,-2.0625 0.5625,-1.03125 0.843746,-1.875 0.28125,-0.65625 0.75,-2.34375 0.5625,-1.78125 1.21875,-4.125 0.75,-2.34375 1.5,-5.0625 0.84375,-2.8125 1.6875,-5.625 1.875,-6.5625 4.125,-14.4375 z"
         id="path9294"
         inkscape:connector-curvature="0" />
    </g>
  </g>
</svg>
