<?xml version="1.0" encoding="UTF-8" standalone="no"?>
<!-- Created with Inkscape (http://www.inkscape.org/) -->

<svg
   xmlns:dc="http://purl.org/dc/elements/1.1/"
   xmlns:cc="http://creativecommons.org/ns#"
   xmlns:rdf="http://www.w3.org/1999/02/22-rdf-syntax-ns#"
   xmlns:svg="http://www.w3.org/2000/svg"
   xmlns="http://www.w3.org/2000/svg"
   xmlns:sodipodi="http://sodipodi.sourceforge.net/DTD/sodipodi-0.dtd"
   xmlns:inkscape="http://www.inkscape.org/namespaces/inkscape"
   width="37.752731mm"
   height="30.112904mm"
   viewBox="0 0 37.752731 30.112904"
   version="1.1"
   id="svg18027"
   inkscape:version="0.92.4 (5da689c313, 2019-01-14)"
   sodipodi:docname="E3.svg">
  <defs
     id="defs18021" />
  <sodipodi:namedview
     id="base"
     pagecolor="#ffffff"
     bordercolor="#666666"
     borderopacity="1.0"
     inkscape:pageopacity="0.0"
     inkscape:pageshadow="2"
     inkscape:zoom="0.35"
     inkscape:cx="-340.40234"
     inkscape:cy="-371.903"
     inkscape:document-units="mm"
     inkscape:current-layer="layer1"
     showgrid="false"
     fit-margin-top="0"
     fit-margin-left="0"
     fit-margin-right="0"
     fit-margin-bottom="0"
     inkscape:window-width="1920"
     inkscape:window-height="1017"
     inkscape:window-x="-8"
     inkscape:window-y="-8"
     inkscape:window-maximized="1" />
  <metadata
     id="metadata18024">
    <rdf:RDF>
      <cc:Work
         rdf:about="">
        <dc:format>image/svg+xml</dc:format>
        <dc:type
           rdf:resource="http://purl.org/dc/dcmitype/StillImage" />
        <dc:title></dc:title>
      </cc:Work>
    </rdf:RDF>
  </metadata>
  <g
     inkscape:label="Layer 1"
     inkscape:groupmode="layer"
     id="layer1"
     transform="translate(-2.7522868,-20.321095)">
    <g
       aria-label="𓃔"
       transform="scale(0.26458333)"
       style="font-style:normal;font-variant:normal;font-weight:normal;font-stretch:normal;font-size:192px;line-height:1.25;font-family:sans-serif;-inkscape-font-specification:sans-serif;font-variant-ligatures:normal;font-variant-caps:normal;font-variant-numeric:normal;font-feature-settings:normal;text-align:start;letter-spacing:0px;word-spacing:0px;writing-mode:lr-tb;text-anchor:start;fill:#000000;fill-opacity:1;stroke:none"
       id="flowRoot18572">
      <path
         d="m 30.652344,187.61664 q 1.59375,-2.90625 3.84375,-5.4375 2.34375,-2.53125 4.875,-3.375 3.28125,-7.6875 6.1875,-15.28125 2.90625,-7.6875 5.625,-15.65625 l -0.1875,-4.6875 q -0.1875,-2.71875 -1.21875,-4.21875 -1.21875,-1.6875 -2.8125,-2.34375 -1.59375,-0.75 -2.34375,-2.71875 l -3.9375,-9 q -1.5,-3.375 -3.1875,-6 -1.6875,-2.625 -3.5625,-4.78125 -3.65625,-4.3125 -5.90625,-4.3125 -0.84375,0 -1.78125,0.28125 l -3.1875,1.03125 q -1.875,0.5625 -3.46875,0.5625 -3.46875,0 -6.46875,-3.28125 l -2.71875,-3.5625 v -1.5 q 7.875,-9.65625 9.28125,-14.8125 0.75,-2.53125 2.0625,-4.40625 1.3125,-1.875 2.90625,-3.09375 1.6875,-1.3125 3.46875,-1.96875 1.875,-0.65625 3.5625,-0.65625 1.5,0 3.5625,0.46875 2.0625,0.46875 4.03125,1.96875 1.40625,1.21875 1.875,1.6875 0.46875,0.46875 0.84375,0.84375 1.03125,-1.5 2.4375,-2.71875 1.5,-1.3125 4.21875,-3.5625 l 1.40625,-0.28125 q 2.0625,0.5625 2.8125,1.5 0.84375,0.9375 0.84375,2.0625 0,1.3125 -0.75,2.71875 -0.65625,1.3125 -1.6875,2.8125 -0.5625,0.75 -1.03125,1.3125 -0.46875,0.5625 -0.75,0.9375 -0.375,0.375 -0.5625,0.75 l 11.8125,9.09375 q 5.0625,0 9.9375,1.5 4.875,1.40625 9.65625,3.09375 7.78125,0 20.249996,-2.71875 3.09375,-0.65625 6.28125,-1.21875 3.1875,-0.65625 6.1875,-1.125 3.09375,-0.5625 5.71875,-0.84375 2.625,-0.28125 4.5,-0.28125 4.3125,0 8.4375,0.84375 2.0625,0.5625 3,0.75 0.9375,0.09375 1.59375,0.09375 h 6 q 3.09375,0 5.15625,0.65625 2.15625,0.65625 3.375,1.875 1.21875,1.21875 1.6875,3 0.5625,1.6875 0.5625,3.75 0,1.6875 -0.28125,4.5 -0.28125,2.71875 -1.03125,6.28125 -1.03125,4.78125 -1.875,10.03125 -0.84375,5.25 -0.84375,10.875 0.65625,1.59375 1.03125,3.65625 0.375,1.96875 0.5625,4.03125 0.28125,1.96875 0.375,3.9375 0.0937,1.875 0.0937,3.28125 0,2.15625 -0.0937,4.40625 0,2.15625 -0.1875,3.9375 -0.1875,1.78125 -0.46875,2.90625 -0.28125,1.125 -0.84375,1.125 -1.6875,-0.46875 -2.53125,-2.34375 -0.84375,-1.96875 -0.84375,-7.03125 v -6 q 0,-5.4375 0.1875,-11.25 0.1875,-5.90625 1.21875,-12.375 2.0625,-12.75 2.25,-13.5 0.28125,-1.5 0.375,-2.4375 0.1875,-1.03125 0.1875,-1.6875 0.0937,-0.65625 0.0937,-1.03125 0.0937,-0.375 0.0937,-0.75 0,-1.125 -0.28125,-2.25 -0.28125,-1.21875 -0.9375,-2.15625 -0.65625,-0.9375 -1.6875,-1.5 -1.03125,-0.65625 -2.53125,-0.65625 -0.75,0 -1.78125,0 -0.9375,0 -1.125,-0.0937 0.84375,1.3125 1.5,3.375 0.75,1.96875 0.75,3.65625 0,1.59375 -0.28125,3.28125 l -0.5625,3.75 q -0.1875,1.3125 -0.84375,4.125 -0.5625,2.8125 -1.59375,7.125 -0.9375,4.3125 -1.40625,8.0625 -0.46875,3.75 -0.46875,7.03125 0,3.28125 0.375,7.5 0.46875,4.125 1.21875,9.28125 0.75,5.15625 1.125,9.375 0.46875,4.21875 0.46875,7.5 0,1.6875 -0.0937,3.46875 -0.0937,1.6875 -0.28125,3.375 l -0.65625,1.21875 q -1.40625,0.75 -3.375,1.96875 -1.875,1.125 -1.875,3.75 l -1.59375,1.5 h -7.5 l -1.40625,-1.78125 q 0.28125,-2.53125 2.25,-4.96875 2.0625,-2.4375 6.84375,-4.78125 0.1875,-1.96875 0.28125,-4.03125 0.1875,-2.0625 0.1875,-4.21875 0,-16.03125 -7.875,-23.53125 -6.46875,8.8125 -11.625,18.09375 -5.15625,9.1875 -8.53125,19.6875 l -1.5,1.03125 q -1.875,0 -2.90625,0.9375 -0.9375,0.9375 -1.6875,2.53125 l -1.499996,1.03125 h -7.5 l -0.75,-1.59375 q 0,-1.21875 2.25,-3.9375 2.8125,-3.375 6.656246,-4.78125 4.21875,-7.59375 6.75,-13.21875 2.625,-5.71875 3.84375,-9.65625 2.34375,-7.6875 2.53125,-14.25 -2.8125,-0.5625 -5.625,-0.5625 -3.46875,0 -7.03125,1.125 -3.468746,1.125 -7.687496,4.03125 l -2.34375,-0.9375 q -0.75,-2.4375 -4.6875,-3.75 -4.125,-1.5 -8.15625,-1.875 l -4.03125,-0.46875 -0.28125,7.59375 q -0.09375,1.875 -0.1875,3.84375 0,1.875 0,3.84375 0,6.84375 0.46875,13.59375 0.46875,6.65625 1.59375,13.40625 l -1.59375,1.5 q -2.0625,0 -2.4375,0.75 -0.375,0.65625 -0.375,1.96875 l -0.09375,1.875 -1.59375,1.5 h -7.59375 l -1.21875,-2.25 q 1.03125,-2.25 2.4375,-4.21875 1.40625,-2.0625 3.46875,-3.46875 v -6.9375 q 0,-6.09375 -0.75,-11.71875 -0.75,-5.625 -3.9375,-11.15625 -4.5,6.46875 -7.21875,11.25 -2.71875,4.6875 -3.84375,7.78125 -2.15625,6 -2.625,11.625 l -1.125,1.5 q -2.4375,0.75 -3.65625,2.0625 -1.125,1.3125 -1.3125,4.03125 l -1.59375,1.5 h -9 l -1.21875,-2.25 z m 7.875,-98.25 1.6875,-3.46875 q -1.6875,-2.15625 -3.75,-3.375 -1.96875,-1.21875 -4.125,-1.21875 -2.25,0 -4.5,1.3125 -2.25,1.3125 -4.125,3.9375 -0.5625,2.15625 -1.6875,4.6875 -1.03125,2.53125 -3.375,6 -0.46875,0.75 -1.3125,1.96875 -0.84375,1.125 -1.6875,2.25 -1.03125,1.3125 -2.0625,2.71875 l 0.9375,1.3125 q 0.9375,1.3125 2.0625,2.25 1.21875,0.9375 2.25,1.03125 1.6875,0 2.8125,-0.375 l 3.28125,-1.03125 q 0.75,-0.1875 1.59375,-0.375 0.84375,-0.1875 1.59375,-0.28125 1.78125,0 3.65625,1.3125 1.875,1.21875 4.21875,3.75 4.59375,5.0625 8.71875,14.53125 l 3.09375,7.03125 q 3.28125,1.59375 4.6875,4.5 1.5,2.90625 1.6875,6.28125 l 0.1875,3 q 0,0.375 -0.28125,1.21875 -0.1875,0.75 -0.46875,1.6875 -0.28125,0.9375 -0.65625,1.78125 -0.28125,0.84375 -0.46875,1.3125 -1.125,2.90625 -1.78125,4.6875 -0.65625,1.78125 -1.125,3 -0.375,1.125 -0.65625,1.875 -0.1875,0.65625 -0.46875,1.3125 -1.59375,4.03125 -2.53125,6.5625 -0.9375,2.4375 -1.6875,4.125 -0.65625,1.6875 -1.21875,3 -0.46875,1.21875 -1.125,2.8125 l -1.03125,1.03125 q -2.34375,0.65625 -4.125,2.90625 -0.46875,0.5625 -0.9375,1.125 -0.375,0.5625 -0.75,1.03125 -0.375,0.5625 -0.75,1.03125 h 4.875 q 0.46875,-2.625 1.78125,-4.40625 1.40625,-1.875 4.21875,-2.8125 0.375,-5.625 2.8125,-12 2.53125,-6.28125 12.09375,-20.25 -3.09375,-5.34375 -4.78125,-10.6875 -1.6875,-5.4375 -1.6875,-11.625 0,-2.4375 0.28125,-6.09375 0.1875,-1.875 0.65625,-4.6875 0.46875,-2.8125 1.21875,-6.75 l 2.90625,0.75 q -0.75,2.71875 -1.40625,7.96875 -0.375,2.71875 -0.5625,4.96875 -0.09375,2.15625 -0.09375,4.03125 0,5.90625 1.78125,11.4375 1.875,5.4375 4.78125,9.9375 3,4.40625 4.6875,10.59375 1.59375,6.1875 1.59375,17.8125 v 5.71875 l -0.65625,1.21875 q -1.5,0.9375 -2.625,2.25 -1.03125,1.21875 -1.875,2.625 h 3.65625 q 0,-4.96875 4.21875,-5.90625 -0.9375,-6.46875 -1.3125,-12.9375 -0.375,-6.5625 -0.375,-13.125 0,-2.15625 0,-4.21875 0.09375,-2.15625 0.1875,-4.3125 l 0.28125,-8.4375 1.875,-1.125 q 0.28125,0 2.4375,0.28125 2.15625,0.28125 6.375,0.9375 8.25,1.3125 11.25,5.625 4.03125,-2.53125 7.499996,-3.5625 3.46875,-1.03125 7.03125,-1.03125 3.5625,0 7.5,0.84375 3.9375,0.84375 9,2.15625 -0.5625,-0.9375 -1.6875,-2.71875 -1.03125,-1.78125 -2.25,-3.84375 -1.125,-2.0625 -2.34375,-4.125 -1.21875,-2.15625 -2.0625,-3.9375 -1.6875,-3.5625 -2.15625,-5.625 0.28125,-0.1875 0.75,-0.1875 0.46875,0 2.15625,-0.5625 0.1875,1.125 1.5,4.3125 1.40625,3.1875 5.34375,9.46875 1.3125,2.15625 2.15625,3.5625 0.9375,1.3125 1.5,2.34375 0.5625,0.9375 0.84375,1.59375 0.375,0.5625 0.65625,1.125 5.0625,4.21875 7.3125,10.96875 2.34375,6.65625 2.34375,15.75 0,4.78125 -0.5625,9.09375 l -0.65625,1.21875 q -2.15625,1.125 -4.40625,2.71875 -2.25,1.5 -3.28125,3.65625 h 4.21875 q 0.46875,-2.4375 2.15625,-3.84375 1.78125,-1.40625 4.03125,-2.53125 0.1875,-1.59375 0.28125,-3.09375 0.0937,-1.59375 0.0937,-3.1875 0,-6.375 -1.6875,-17.0625 -0.75,-5.34375 -1.3125,-9.75 -0.5625,-4.40625 -0.5625,-6.9375 0,-7.40625 2.625,-17.8125 2.625,-10.40625 2.625,-16.96875 -0.1875,-1.03125 -0.9375,-1.875 -0.75,-0.9375 -1.5,-1.6875 -0.75,-0.5625 -1.59375,-1.125 -0.84375,-0.65625 -1.3125,-0.65625 -1.5,0 -4.78125,-0.84375 -3.28125,-0.9375 -8.0625,-0.9375 -6.65625,0 -19.96875,3.1875 -6.749996,1.59375 -11.906246,2.4375 -5.15625,0.75 -8.8125,0.75 -0.75,0 -1.40625,0 -0.65625,0 -1.3125,-0.0937 -0.84375,0 -3,-0.75 -2.15625,-0.84375 -6.28125,-2.34375 -0.65625,-0.1875 -2.4375,-0.375 -1.6875,-0.28125 -3.5625,-0.46875 -1.78125,-0.28125 -3.375,-0.46875 -1.59375,-0.28125 -1.96875,-0.46875 -0.28125,-0.1875 -1.59375,-1.125 -1.3125,-1.03125 -3.65625,-2.90625 l -7.40625,-5.71875 -3.46875,2.625 -1.3125,-1.875 q 2.71875,-1.875 5.25,-4.78125 2.53125,-3 3.65625,-6.28125 v -0.28125 l -0.75,-0.46875 -2.4375,1.59375 q -1.6875,1.40625 -3.5625,3.5625 -1.78125,2.15625 -3.28125,5.34375 z m 66.374996,93.84375 q 3.5625,-10.21875 8.4375,-19.3125 4.96875,-9.09375 11.25,-17.90625 l -8.15625,-2.0625 q 0,5.0625 -1.78125,10.6875 -1.78125,5.625 -4.03125,11.25 -1.03125,2.71875 -2.34375,5.34375 -1.21875,2.625 -2.625,5.0625 -1.3125,2.4375 -2.0625,3.84375 -0.75,1.3125 -1.03125,1.6875 -0.375,0.65625 -2.624996,1.96875 -1.3125,0.75 -2.53125,1.6875 -1.125,0.84375 -2.15625,2.15625 h 3.5625 q 0.84375,-1.96875 2.437496,-3.09375 1.6875,-1.125 3.65625,-1.3125 z M 25.871094,93.02289 q 0.1875,-1.875 1.6875,-1.875 0.75,0 2.4375,0.75 -2.34375,2.34375 -3.46875,2.34375 -0.65625,0 -0.65625,-1.21875 z"
         id="path18580"
         inkscape:connector-curvature="0" />
    </g>
  </g>
</svg>
