<?xml version="1.0" encoding="UTF-8" standalone="no"?>
<!-- Created with Inkscape (http://www.inkscape.org/) -->

<svg
   xmlns:dc="http://purl.org/dc/elements/1.1/"
   xmlns:cc="http://creativecommons.org/ns#"
   xmlns:rdf="http://www.w3.org/1999/02/22-rdf-syntax-ns#"
   xmlns:svg="http://www.w3.org/2000/svg"
   xmlns="http://www.w3.org/2000/svg"
   xmlns:sodipodi="http://sodipodi.sourceforge.net/DTD/sodipodi-0.dtd"
   xmlns:inkscape="http://www.inkscape.org/namespaces/inkscape"
   width="33.982449mm"
   height="37.802341mm"
   viewBox="0 0 33.982449 37.802341"
   version="1.1"
   id="svg30395"
   inkscape:version="0.92.4 (5da689c313, 2019-01-14)"
   sodipodi:docname="E31.svg">
  <defs
     id="defs30389" />
  <sodipodi:namedview
     id="base"
     pagecolor="#ffffff"
     bordercolor="#666666"
     borderopacity="1.0"
     inkscape:pageopacity="0.0"
     inkscape:pageshadow="2"
     inkscape:zoom="0.35"
     inkscape:cx="-383.25962"
     inkscape:cy="-380.47532"
     inkscape:document-units="mm"
     inkscape:current-layer="layer1"
     showgrid="false"
     fit-margin-top="0"
     fit-margin-left="0"
     fit-margin-right="0"
     fit-margin-bottom="0"
     inkscape:window-width="1920"
     inkscape:window-height="1017"
     inkscape:window-x="-8"
     inkscape:window-y="-8"
     inkscape:window-maximized="1" />
  <metadata
     id="metadata30392">
    <rdf:RDF>
      <cc:Work
         rdf:about="">
        <dc:format>image/svg+xml</dc:format>
        <dc:type
           rdf:resource="http://purl.org/dc/dcmitype/StillImage" />
        <dc:title></dc:title>
      </cc:Work>
    </rdf:RDF>
  </metadata>
  <g
     inkscape:label="Layer 1"
     inkscape:groupmode="layer"
     id="layer1"
     transform="translate(-14.091607,-10.363563)">
    <g
       aria-label="𓃶"
       transform="scale(0.26458333)"
       style="font-style:normal;font-variant:normal;font-weight:normal;font-stretch:normal;font-size:192px;line-height:1.25;font-family:sans-serif;-inkscape-font-specification:sans-serif;font-variant-ligatures:normal;font-variant-caps:normal;font-variant-numeric:normal;font-feature-settings:normal;text-align:start;letter-spacing:0px;word-spacing:0px;writing-mode:lr-tb;text-anchor:start;fill:#000000;fill-opacity:1;stroke:none"
       id="flowRoot30940">
      <path
         d="m 95.072266,91.481874 q 10.406254,4.96875 21.937504,7.5 5.90625,1.218746 13.40625,1.874996 7.5,0.5625 16.875,0.5625 10.5,0 14.34375,0.9375 2.15625,0.5625 4.875,1.875 2.71875,1.3125 4.78125,2.53125 1.03125,-0.75 2.4375,-2.15625 1.40625,-1.5 3.28125,-3.65625 1.03125,-1.031246 1.6875,-1.874996 0.75,-0.9375 1.3125,-1.5 0.5625,-0.65625 1.125,-1.125 0.0937,0.375 0.28125,0.75 0.0937,0.375 0.1875,0.84375 0.0937,0.46875 0.0937,0.9375 0,0.65625 -0.46875,1.593746 -0.375,0.84375 -1.03125,1.78125 -0.65625,0.84375 -1.3125,1.6875 -0.65625,0.75 -1.21875,1.21875 l -3.09375,2.8125 q -0.1875,3.75 -1.03125,8.34375 -0.84375,4.5 -2.15625,8.0625 -1.21875,3.5625 -1.96875,6.1875 -0.75,2.53125 -0.9375,4.125 l 2.25,4.5 q 0.5625,1.125 1.125,2.25 0.5625,1.125 1.03125,2.25 v 0.9375 q -2.15625,5.90625 -3,11.8125 -0.84375,5.90625 -0.84375,12.09375 v 2.15625 q 0,2.71875 -0.28125,5.15625 -0.28125,2.4375 -0.84375,3 l -1.78125,0.46875 -1.78125,-1.03125 -0.5625,2.625 -1.5,1.03125 h -4.59375 l -1.40625,-1.78125 q 0,-2.34375 2.34375,-4.6875 1.21875,-1.3125 1.875,-2.0625 0.65625,-0.75 0.84375,-0.9375 l 1.96875,-12.46875 q 0.46875,-3.09375 0.65625,-6.1875 0.28125,-3.09375 0.28125,-6.1875 -2.0625,-2.34375 -4.21875,-5.0625 -2.0625,-2.8125 -4.96875,-4.3125 -0.65625,0.65625 -1.40625,2.0625 -0.75,1.3125 -1.59375,3.09375 -0.75,1.6875 -1.59375,3.75 -0.75,1.96875 -1.5,3.9375 -1.6875,4.6875 -3.46875,10.21875 -0.84375,2.4375 -1.78125,4.78125 -0.84375,2.34375 -1.78125,4.78125 l -0.84375,2.4375 q -0.9375,2.53125 -2.0625,3.9375 -1.125,1.40625 -2.25,1.40625 -0.65625,0 -1.5,-0.5625 l -0.28125,2.34375 -1.59375,1.5 h -7.5 l -1.21875,-2.25 q 0.375,-1.03125 1.40625,-2.15625 1.03125,-1.125 2.34375,-2.25 1.40625,-1.125 2.90625,-2.0625 1.59375,-1.03125 3,-1.875 3.5625,-9.09375 6.1875,-18.09375 2.71875,-9 4.875,-18.375 -3,0 -6.1875,0.1875 -3.09375,0.0937 -6.09375,0.5625 l -5.625,0.84375 q -1.03125,0 -4.96875,-1.3125 -1.875,-0.65625 -4.125,-1.125 -2.25,-0.46875 -4.96875,-0.65625 -1.21875,4.3125 -1.21875,9.375 0,6.1875 1.21875,12.375 1.21875,6.09375 1.78125,12.28125 0,0.46875 0.0937,1.875 0.1875,1.40625 0.1875,3 0,3.1875 -0.75,4.40625 -0.65625,1.21875 -1.6875,1.21875 -0.46875,0 -1.03125,-0.1875 -0.28125,-0.0937 -0.46875,-0.28125 l -0.65625,3 -1.59375,1.5 h -6.1875 l -1.40625,-1.78125 q 0,-1.125 0.9375,-2.25 1.03125,-1.125 2.25,-2.15625 1.40625,-1.125 3.1875,-2.25 0.0937,-0.84375 0.1875,-1.6875 0.0937,-0.75 0.1875,-1.40625 0.0937,-0.75 0.0937,-1.3125 0,-3.9375 -1.03125,-8.25 -1.21875,-5.0625 -2.15625,-8.53125 -0.84375,-3.5625 -1.59375,-6.1875 -0.65625,-2.625 -1.21875,-4.59375 -0.5625,-1.96875 -1.125,-3.84375 l -17.625004,39.28125 -1.5,1.03125 h -1.78125 l -1.6875,2.90625 -1.5,1.03125 h -7.59375 l -1.40625,-1.78125 q 0,-3.46875 4.40625,-4.59375 4.3125,-1.125 5.0625,-2.15625 0.375,-0.5625 1.96875,-4.78125 1.6875,-4.21875 4.6875,-12.1875 3,-7.96875 4.59375,-14.0625 1.6875,-6.1875 2.0625,-10.5 -1.3125,-7.6875 -2.53125,-12.375 -1.21875,-4.78125 -2.8125,-6.84375 l -3.65625,4.125 1.6875,1.40625 -3,4.59375 -3.09375,-2.71875 -0.9375,3.1875 -4.21875,-3.5625 2.71875,-1.78125 -3,-2.53125 3,-4.5 1.6875,1.5 2.15625,-6.375 -6.375,-6.937496 q -1.3125,1.031246 -2.625,2.062496 -1.3125,1.03125 -2.625,2.0625 l -7.125,5.25 q -0.1875,0.65625 -0.5625,2.0625 -0.375,1.40625 -0.9375,3.5625 -0.46875,1.6875 -0.65625,2.0625 -0.1875,0.375 -0.375,0.5625 l -2.0625,-0.46875 q 0.09375,-1.5 0.28125,-2.53125 0.1875,-1.03125 0.375,-1.875 0.28125,-0.9375 0.46875,-1.78125 0.28125,-0.9375 0.28125,-2.15625 l -2.53125,-2.4375 q -0.9375,-0.65625 -1.21875,-1.40625 -0.1875,-0.75 -0.1875,-1.6875 0,-2.906246 2.53125,-7.406246 2.625,-4.6875 4.40625,-8.90625 1.875,-4.40625 4.875,-7.59375 3.09375,-3.28125 8.34375,-4.40625 1.21875,-5.90625 5.34375,-10.125 4.125,-4.21875 11.0625,-8.0625 6.9375,-3.9375 11.156254,-8.15625 4.3125,-4.3125 6.65625,-8.625 l 0.84375,0.46875 q -0.65625,2.34375 -1.96875,4.3125 -1.21875,1.875 -2.8125,3.9375 -2.71875,3.65625 -7.031254,7.03125 -4.21875,3.28125 -8.4375,6.5625 -4.21875,3.1875 -7.5,6.46875 -3.1875,3.1875 -3.65625,6.65625 0.28125,0 1.40625,0.65625 0.5625,0.375 1.21875,0.65625 0.84375,-3.1875 2.0625,-5.4375 1.21875,-2.34375 2.71875,-3.9375 1.59375,-1.59375 3.28125,-2.625 1.78125,-1.125 3.75,-2.0625 1.5,-0.75 3.1875,-1.5 1.78125,-0.75 3.28125,-1.40625 1.59375,-0.75 2.812504,-1.3125 1.3125,-0.65625 2.0625,-0.9375 2.25,-1.03125 4.125,-2.15625 1.96875,-1.125 3.5625,-2.53125 1.6875,-1.5 3.1875,-3.46875 1.5,-1.96875 3,-4.59375 l 0.75,0.28125 q -1.03125,3.1875 -2.90625,6.375 -1.875,3.1875 -4.78125,5.4375 -1.78125,1.40625 -4.03125,2.4375 -2.15625,1.03125 -4.59375,2.4375 -3.000004,1.78125 -5.812504,3.1875 -2.71875,1.40625 -5.0625,3.1875 -2.4375,1.875 -4.40625,4.21875 -1.875,2.34375 -2.90625,5.53125 1.59375,-1.21875 3,-1.78125 1.40625,-0.5625 2.25,-0.9375 l 3.84375,-1.3125 1.96875,1.875 q -1.03125,4.125 -2.4375,5.71875 -0.75,0.75 -1.875,1.6875 -1.03125,0.84375 -2.625,1.78125 1.125,1.78125 2.90625,3.09375 1.875,1.21875 3.46875,2.625 z m -20.0625,5.71875 11.0625,11.999996 q 3.46875,-4.78125 4.78125,-8.53125 1.3125,-3.843746 1.78125,-7.687496 -1.03125,-0.84375 -2.34375,-1.875 -1.21875,-1.03125 -2.53125,-2.15625 -1.21875,-1.125 -2.34375,-2.25 -1.03125,-1.21875 -1.59375,-2.4375 l 0.75,-2.15625 2.34375,-1.40625 q 1.40625,-0.84375 2.15625,-1.59375 0.75,-0.84375 1.3125,-2.4375 -2.0625,0.75 -3.9375,1.6875 -1.78125,0.9375 -3.375,3.28125 l -7.875,-3.84375 -2.0625,-0.28125 q -4.59375,1.3125 -7.21875,4.59375 -2.625,3.1875 -4.59375,8.34375 -1.875,4.875 -3.5625,7.3125 -1.5,2.0625 -1.5,5.062496 l 1.96875,1.875 h 2.0625 q 1.78125,-1.5 4.21875,-3.1875 2.53125,-1.687496 4.6875,-3.374996 2.15625,-1.6875 3.65625,-3.28125 1.59375,-1.6875 1.59375,-3.1875 v -0.375 l 3,-0.28125 q 0,1.21875 -0.375,2.34375 -0.375,1.125 -0.84375,1.96875 -0.5625,1.03125 -1.21875,1.875 z m 4.03125,78.562496 q -0.75,0.28125 -1.875,0.75 -1.125,0.375 -2.25,0.84375 -1.125,0.375 -1.96875,0.84375 -0.84375,0.46875 -0.9375,0.84375 h 4.5 l 1.875,-2.15625 3.09375,-1.78125 q 9.28125,-20.625 18.562504,-41.625 -3.093754,-7.6875 -3.093754,-16.21875 0,-6.84375 1.78125,-12.84375 l 2.906254,0.75 q -0.84375,2.8125 -1.3125,6.09375 -0.375004,3.28125 -0.375004,5.8125 0,6.09375 1.500004,10.875 1.59375,5.0625 1.6875,5.25 2.34375,7.96875 3.84375,13.96875 1.59375,5.90625 2.53125,9.9375 1.875,8.25 1.875,12.375 0,1.3125 -0.0937,2.53125 -0.0937,1.21875 -0.375,2.4375 -0.375,0.28125 -1.21875,1.03125 -0.84375,0.75 -1.78125,1.5 -1.03125,0.9375 -2.34375,2.0625 h 2.53125 l 1.03125,-2.34375 3.28125,-1.96875 q 0,-0.46875 0.0937,-0.84375 0,-0.375 0,-0.65625 0.0937,-0.375 0.0937,-0.75 v -1.5 q -0.375,-5.25 -1.96875,-14.15625 -1.5,-8.625 -1.5,-14.34375 0,-2.90625 0.46875,-5.71875 0.46875,-2.8125 1.5,-5.53125 l 1.21875,-0.75 q 4.40625,0 10.03125,1.78125 2.15625,0.75 3.9375,1.03125 1.78125,0.28125 3.09375,0.28125 0.9375,0 5.25,-0.46875 4.40625,-0.5625 10.59375,-0.5625 5.15625,0 12.09375,4.125 3.46875,2.0625 5.8125,4.6875 2.4375,2.625 3.9375,5.8125 0,1.21875 -0.1875,3.84375 -0.1875,2.53125 -0.46875,5.15625 -0.1875,2.625 -0.46875,4.6875 -0.1875,1.96875 -0.1875,2.15625 -0.28125,2.25 -0.46875,3.65625 -0.0937,1.40625 -0.28125,2.34375 -0.0937,0.84375 -0.1875,1.5 -0.0937,0.5625 -0.1875,1.125 -0.375,2.34375 -1.03125,3.09375 l -1.96875,2.15625 q -1.125,1.03125 -1.875,2.15625 h 1.875 l 0.1875,-1.03125 2.15625,-2.25 1.40625,1.21875 0.75,-5.8125 q 0.28125,-2.15625 0.375,-3.84375 0.1875,-1.78125 0.28125,-3 0.46875,-5.71875 1.03125,-10.59375 0.65625,-4.875 2.0625,-9.375 -1.21875,-2.34375 -2.71875,-4.59375 -1.5,-2.25 -1.6875,-4.96875 0,-2.34375 2.34375,-8.8125 0.9375,-2.625 1.5,-4.6875 0.65625,-2.0625 0.9375,-3.84375 0.375,-1.875 0.5625,-3.5625 0.28125,-1.78125 0.46875,-3.75 -3,-1.78125 -6.1875,-3.28125 -3.1875,-1.5 -6.1875,-1.875 -4.40625,-0.5625 -11.625,-0.5625 -9.1875,0 -16.59375,-0.5625 -7.40625,-0.65625 -13.3125,-1.875 -5.90625,-1.21875 -11.71875,-3.093746 -5.718754,-1.96875 -10.968754,-4.3125 -0.65625,4.78125 -2.34375,8.531246 -1.59375,3.75 -4.59375,7.40625 1.21875,1.59375 2.625,4.96875 1.40625,3.375 2.15625,7.40625 1.59375,8.25 1.59375,8.8125 -0.28125,5.15625 -2.0625,11.71875 -1.78125,6.5625 -4.40625,13.3125 l -2.90625,7.5 q -0.28125,0.75 -0.84375,1.96875 -0.46875,1.21875 -1.21875,2.8125 -0.75,1.59375 -1.6875,3.375 -0.9375,1.6875 -1.96875,3.375 z m 55.781254,-1.03125 q -2.4375,1.3125 -3.9375,2.53125 -1.40625,1.21875 -1.96875,1.78125 h 3.84375 q 0.1875,-0.75 0.46875,-1.40625 0.46875,-1.3125 0.75,-1.6875 0.1875,0 0.65625,0 0.46875,-0.0937 0.9375,-0.1875 0.46875,-0.0937 1.03125,-0.1875 0.84375,-1.6875 1.875,-3.75 0.84375,-1.78125 1.78125,-4.125 0.9375,-2.4375 1.96875,-5.4375 1.96875,-5.90625 3.375,-10.21875 1.5,-4.40625 2.71875,-7.21875 0.375,-1.03125 1.03125,-2.34375 0.65625,-1.3125 1.3125,-2.4375 0.75,-1.3125 1.59375,-2.625 l -3.9375,-1.59375 q -2.4375,10.78125 -4.6875,17.90625 -2.25,7.125 -3.84375,11.0625 -1.59375,3.9375 -2.25,6.09375 -0.5625,2.0625 -0.75,2.34375 -0.1875,0.1875 -0.65625,0.65625 -0.46875,0.375 -1.3125,0.84375 z m -54.187504,-66.9375 -1.96875,6 1.96875,1.78125 3.5625,-4.21875 z M 70.041016,86.513124 q -2.4375,2.4375 -3.46875,2.4375 -1.03125,0 -1.03125,-1.78125 0,-2.15625 1.5,-2.15625 1.5,0 3,1.5 z m 10.03125,33.281246 0.84375,-1.125 -5.15625,-4.5 -0.84375,1.125 z"
         id="path30948"
         inkscape:connector-curvature="0" />
    </g>
  </g>
</svg>
