<?xml version="1.0" encoding="UTF-8" standalone="no"?>
<!-- Created with Inkscape (http://www.inkscape.org/) -->

<svg
   xmlns:dc="http://purl.org/dc/elements/1.1/"
   xmlns:cc="http://creativecommons.org/ns#"
   xmlns:rdf="http://www.w3.org/1999/02/22-rdf-syntax-ns#"
   xmlns:svg="http://www.w3.org/2000/svg"
   xmlns="http://www.w3.org/2000/svg"
   xmlns:sodipodi="http://sodipodi.sourceforge.net/DTD/sodipodi-0.dtd"
   xmlns:inkscape="http://www.inkscape.org/namespaces/inkscape"
   width="37.603909mm"
   height="29.666393mm"
   viewBox="0 0 37.603909 29.666393"
   version="1.1"
   id="svg9868"
   inkscape:version="0.92.4 (5da689c313, 2019-01-14)"
   sodipodi:docname="E32.svg">
  <defs
     id="defs9862" />
  <sodipodi:namedview
     id="base"
     pagecolor="#ffffff"
     bordercolor="#666666"
     borderopacity="1.0"
     inkscape:pageopacity="0.0"
     inkscape:pageshadow="2"
     inkscape:zoom="0.35"
     inkscape:cx="-343.25987"
     inkscape:cy="-371.6216"
     inkscape:document-units="mm"
     inkscape:current-layer="layer1"
     showgrid="false"
     fit-margin-top="0"
     fit-margin-left="0"
     fit-margin-right="0"
     fit-margin-bottom="0"
     inkscape:window-width="1920"
     inkscape:window-height="1017"
     inkscape:window-x="-8"
     inkscape:window-y="-8"
     inkscape:window-maximized="1" />
  <metadata
     id="metadata9865">
    <rdf:RDF>
      <cc:Work
         rdf:about="">
        <dc:format>image/svg+xml</dc:format>
        <dc:type
           rdf:resource="http://purl.org/dc/dcmitype/StillImage" />
        <dc:title></dc:title>
      </cc:Work>
    </rdf:RDF>
  </metadata>
  <g
     inkscape:label="Layer 1"
     inkscape:groupmode="layer"
     id="layer1"
     transform="translate(-3.5083395,-20.84206)">
    <g
       aria-label="𓃷"
       transform="scale(0.26458333)"
       style="font-style:normal;font-variant:normal;font-weight:normal;font-stretch:normal;font-size:192px;line-height:1.25;font-family:sans-serif;-inkscape-font-specification:'sans-serif, Normal';font-variant-ligatures:normal;font-variant-caps:normal;font-variant-numeric:normal;font-feature-settings:normal;text-align:start;letter-spacing:0px;word-spacing:0px;writing-mode:lr-tb;text-anchor:start;fill:#000000;fill-opacity:1;stroke:none"
       id="flowRoot10416">
      <path
         d="m 153.60352,150.21039 q -2.4375,-1.875 -3.5625,-5.15625 -1.03125,-3.375 -1.03125,-7.3125 0,-3 0.28125,-5.90625 0.375,-2.90625 0.5625,-5.4375 l 1.03125,-10.21875 q 0,-0.46875 -0.0937,-1.5 -0.0937,-1.125 -0.5625,-1.6875 -0.1875,-0.375 -0.65625,-0.46875 -0.375,-0.0937 -0.5625,-0.28125 l -6.1875,4.3125 q 0,3 -0.375,5.34375 -0.375,2.25 -1.21875,4.40625 -0.75,2.0625 -2.0625,4.03125 -1.21875,1.96875 -3,4.21875 -1.78125,2.15625 -2.90625,3.65625 -1.125,1.40625 -1.59375,2.0625 -1.03125,1.3125 -1.6875,6.1875 -0.1875,1.3125 -0.28125,2.53125 -0.0937,1.21875 -0.0937,2.4375 0,6.1875 2.25,10.96875 1.21875,2.4375 1.875,3.84375 0.65625,1.3125 0.65625,1.6875 l -4.96875,19.40625 q -1.125,3.5625 -9,3.5625 -1.875,0 -3.5625,-0.1875 -1.59375,-0.0937 -2.4375,-0.0937 l -1.21875,-0.75 q -0.75,-1.5 -0.75,-2.90625 0,-1.21875 0.65625,-1.96875 0.75,-0.75 1.875,-0.75 1.03125,0 1.875,0.375 0.84375,0.375 1.78125,0.375 2.71875,0 4.03125,-3.65625 l 3.9375,-10.40625 q -1.875,-5.34375 -4.125,-10.21875 -2.25,-4.875 -4.6875,-9.9375 -0.65625,1.59375 -2.4375,4.59375 -1.6875,3 -4.40625,7.5 -3.5625,5.8125 -5.90625,11.15625 -2.25,5.25 -3.9375,10.40625 -0.46875,0.84375 -0.75,1.3125 -0.1875,0.375 -1.218754,1.875 -2.0625,2.8125 -6.09375,3 l -4.125,0.1875 q -1.03125,0 -2.0625,0 -0.9375,0 -1.875,-0.0937 l -2.25,-0.0937 -1.40625,-1.78125 q 0,-2.25 1.21875,-3.84375 1.3125,-1.6875 3.46875,-1.6875 1.03125,0 2.34375,0.375 1.40625,0.28125 2.0625,0.28125 3.375,0 5.0625,-5.4375 0.9375,-2.71875 1.5,-4.59375 0.5625,-1.96875 0.9375,-3 l 2.156254,-6.28125 q 0.65625,-2.0625 3.9375,-12.09375 3.1875,-9.9375 10.21875,-20.34375 -7.03125,1.21875 -13.6875,3 -6.656254,1.78125 -13.406254,3.75 l -13.40625,3.9375 q -3.375,1.03125 -6.75,1.96875 -3.375,0.84375 -6.84375,1.59375 0.46875,9.9375 0.84375,19.40625 0.375,9.375 0.65625,18.75 0,1.03125 -2.0625,3.65625 -2.0625,2.625 -6.1875,2.625 -1.40625,0 -3.09375,-0.1875 -1.6875,-0.0937 -3.84375,-0.0937 l -1.21875,-0.75 q -0.65625,-1.3125 -0.65625,-2.34375 0,-2.34375 3.75,-2.34375 l 2.625,0.1875 q 1.21875,-0.375 1.875,-1.03125 0.65625,-0.65625 1.21875,-1.6875 -0.09375,-0.84375 -0.375,-2.8125 -0.1875,-2.0625 -0.5625,-4.6875 -0.28125,-2.71875 -0.65625,-5.625 -0.28125,-2.90625 -0.65625,-5.53125 -0.28125,-2.71875 -0.46875,-4.78125 -0.1875,-2.0625 -0.1875,-2.90625 -3.75,5.90625 -6.5625,10.3125 -2.71875,4.40625 -4.78125,7.59375 -1.96875,3.1875 -3.375,5.34375 -1.40625,2.0625 -2.34375,3.5625 -0.9375,1.40625 -1.5,2.34375 -0.5625,0.84375 -1.03125,1.5 -2.71875,3.9375 -8.34375,3.9375 -1.78125,0 -3.84375,-0.1875 -2.0625,-0.0937 -4.6875,-0.0937 l -1.40625,-1.78125 q 0,-2.15625 1.125,-3.375 1.21875,-1.3125 2.71875,-1.3125 0.65625,0 1.40625,0.28125 h 0.84375 q 4.03125,0 6.75,-4.5 2.71875,-4.5 7.5,-13.03125 4.875,-8.625 10.875,-20.90625 -5.15625,-2.4375 -7.3125,-5.0625 -2.0625,-2.625 -2.0625,-6.1875 0,-1.78125 0.375,-3.375 0.84375,-4.03125 1.40625,-6.375 0.5625,-2.4375 0.84375,-3.84375 0.28125,-1.5 0.375,-2.25 0.1875,-0.84375 0.375,-1.59375 0.375,-1.5 0.46875,-2.4375 0.1875,-0.9375 0.1875,-1.3125 l -0.09375,-0.75 q 0,-1.03125 0.375,-2.71875 0.375,-1.6875 0.375,-3.1875 -0.1875,-0.65625 -0.84375,-0.75 -0.5625,-0.1875 -1.21875,-0.1875 l -13.96875,4.59375 q -1.59375,0 -3.375,-2.90625 -1.6875,-2.90625 -1.6875,-4.96875 0,-1.125 1.40625,-2.625 1.40625,-1.59375 3.9375,-4.59375 l 4.03125,-4.78125 -1.03125,-2.15625 0.28125,-1.875 q 4.3125,-3 9,-5.34375 4.6875,-2.34375 10.125,-2.53125 1.40625,0 6.46875,2.4375 4.96875,2.34375 10.125,7.78125 5.15625,5.34375 12.75,11.0625 7.6875,5.71875 18.9375,8.0625 11.625004,2.4375 20.812504,2.4375 6.1875,0 10.21875,-0.46875 4.03125,-0.46875 6,-0.46875 1.78125,0 3.09375,0.28125 1.3125,0.1875 2.34375,0.5625 1.03125,0.375 1.96875,0.9375 1.03125,0.46875 2.15625,1.03125 l 2.71875,-2.0625 q 0.46875,-0.375 1.3125,-0.84375 0.84375,-0.5625 1.6875,-0.9375 0.9375,-0.46875 1.78125,-0.75 0.84375,-0.375 1.40625,-0.375 1.125,0 2.0625,0.65625 1.03125,0.65625 1.6875,1.6875 0.65625,0.9375 1.03125,2.15625 0.375,1.125 0.375,2.25 0,3.84375 -0.5625,7.03125 -0.5625,3.09375 -1.59375,7.125 -0.75,2.71875 -1.21875,4.5 -0.375,1.6875 -0.5625,3.09375 -0.1875,1.3125 -0.28125,2.4375 0,1.125 0,2.53125 0,2.4375 0.84375,4.59375 0.84375,2.15625 2.15625,4.3125 z m -37.6875,-3.375 q 0,-0.84375 -0.0937,-1.5 0,-0.65625 -0.0937,-1.125 -0.46875,-1.875 -0.5625,-2.625 -0.0937,-0.84375 -0.1875,-1.5 0,-1.21875 0,-1.96875 0,-0.84375 0.0937,-1.59375 -4.21875,6.84375 -7.03125,14.25 -2.71875,7.40625 -5.25,15 l -1.96875,5.90625 q 0,0.46875 -2.531254,7.875 -1.21875,3.75 -3.09375,5.25 -1.875,1.40625 -4.40625,1.40625 -1.03125,0 -2.25,0.0937 -1.125,0 -2.71875,0 -1.125,0.46875 -1.40625,1.3125 h 9.375 q 1.21875,-0.1875 1.875,-0.5625 0.65625,-0.5625 1.3125,-1.3125 0.65625,-0.84375 0.9375,-1.59375 0.1875,-0.46875 0.375,-0.84375 0.1875,-0.375 0.375,-0.9375 0.1875,-0.5625 0.5625,-1.40625 0.375,-0.9375 0.937504,-2.53125 1.21875,-3.1875 2.15625,-5.625 1.03125,-2.4375 1.96875,-4.3125 1.96875,-3.84375 5.0625,-8.625 3.1875,-5.0625 4.5,-7.3125 1.21875,-2.25 2.0625,-5.71875 z m -65.250004,4.78125 -3.75,-3.84375 q -5.4375,10.5 -9,17.15625 -3.46875,6.5625 -5.71875,10.5 -2.15625,3.84375 -3.375,5.71875 -1.21875,1.78125 -1.96875,2.625 -1.5,1.78125 -3.5625,2.34375 -1.96875,0.5625 -4.5,0.65625 h -1.59375 l -0.75,1.03125 q 2.34375,0 4.03125,0.1875 1.78125,0.0937 3.09375,0.0937 3.84375,0 5.90625,-3.28125 z m 64.687504,35.71875 0.0937,0.84375 h 8.0625 q 0.9375,0 2.0625,-0.75 1.125,-0.84375 1.40625,-1.875 l 4.3125,-17.4375 q -1.96875,-4.21875 -3.375,-8.625 -1.40625,-4.5 -1.40625,-9.09375 0,-3.1875 0.84375,-6.84375 0.9375,-3.75 1.40625,-4.21875 0.75,-0.75 4.96875,-6.46875 4.40625,-6 5.25,-8.90625 0.84375,-2.90625 0.84375,-6.1875 0,-0.5625 -0.0937,-1.3125 0,-0.84375 -0.0937,-1.5 -2.4375,-1.3125 -4.40625,-1.78125 -1.96875,-0.5625 -3.84375,-0.5625 -1.59375,0 -5.25,0.46875 -3.65625,0.46875 -10.59375,0.46875 -6.28125,0 -12.28125,-0.75 -5.906254,-0.75 -11.250004,-2.15625 -5.34375,-1.5 -9.9375,-3.5625 -4.59375,-2.0625 -8.25,-4.6875 -7.3125,-5.25 -13.40625,-11.71875 -6.09375,-6.5625 -14.0625,-8.90625 -4.5,0.1875 -8.53125,2.0625 -3.9375,1.78125 -7.59375,4.40625 l 1.03125,2.15625 -0.1875,1.40625 -9.28125,10.78125 q 0,1.125 0.65625,2.625 0.65625,1.5 1.5,2.15625 2.15625,-0.65625 4.3125,-1.40625 2.15625,-0.75 4.3125,-1.5 4.5,-1.59375 5.25,-1.59375 2.0625,0 3.46875,1.125 1.40625,1.03125 1.40625,3.5625 l -0.5625,4.6875 q -0.1875,0.75 -0.1875,1.3125 l 0.09375,0.65625 q 0,0.75 -0.375,2.25 -0.28125,1.5 -0.375,1.96875 l -2.25,10.125 q -0.375,1.59375 -0.65625,3.09375 -0.28125,1.40625 -0.28125,2.8125 0,1.5 0.375,2.71875 0.375,1.21875 1.40625,2.34375 1.125,1.03125 2.90625,2.15625 1.78125,1.125 4.59375,2.34375 l 6.375,6.375 0.28125,0.9375 v 3.84375 q 0,0.1875 0,0.65625 0.09375,0.375 0.1875,2.0625 0.1875,1.6875 0.5625,5.0625 0.375,3.28125 1.03125,9.1875 0.1875,1.875 0.65625,4.3125 0.5625,2.34375 0.5625,4.59375 0,1.40625 -0.375,2.625 -0.28125,1.125 -1.3125,1.96875 -1.03125,0.84375 -2.90625,1.3125 -1.875,0.375 -4.96875,0.375 v 0.46875 h 8.25 q 1.125,-0.46875 1.78125,-1.5 0.65625,-1.03125 1.125,-2.0625 l -1.5,-38.71875 1.40625,-1.78125 q 4.59375,-1.03125 11.4375,-2.90625 6.9375,-1.96875 16.3125,-4.6875 18.937504,-5.71875 31.125004,-7.5 l 1.5,1.96875 q -0.375,1.5 -0.65625,3.5625 -0.28125,2.0625 -0.28125,3.75 0,0.46875 0,0.84375 0,0.375 0.0937,0.84375 l 0.5625,5.15625 q 0.0937,1.78125 1.875,4.96875 1.78125,3 5.90625,12.84375 0.84375,2.0625 1.40625,3.375 0.5625,1.3125 0.9375,2.15625 0.375,0.84375 0.5625,1.40625 0.1875,0.46875 0.28125,0.9375 0,0.84375 -0.28125,1.875 -0.28125,0.9375 -0.65625,1.875 l -2.71875,6.65625 q -1.3125,3.28125 -2.4375,4.6875 -1.03125,1.3125 -2.8125,1.78125 z M 38.947266,90.86664 q -1.6875,1.6875 -2.53125,1.6875 -0.84375,0 -0.84375,-1.6875 0,-1.6875 0.84375,-1.6875 0.84375,0 2.53125,1.6875 z"
         id="path10424"
         inkscape:connector-curvature="0" />
    </g>
  </g>
</svg>
