<?xml version="1.0" encoding="UTF-8" standalone="no"?>
<!-- Created with Inkscape (http://www.inkscape.org/) -->

<svg
   xmlns:dc="http://purl.org/dc/elements/1.1/"
   xmlns:cc="http://creativecommons.org/ns#"
   xmlns:rdf="http://www.w3.org/1999/02/22-rdf-syntax-ns#"
   xmlns:svg="http://www.w3.org/2000/svg"
   xmlns="http://www.w3.org/2000/svg"
   xmlns:sodipodi="http://sodipodi.sourceforge.net/DTD/sodipodi-0.dtd"
   xmlns:inkscape="http://www.inkscape.org/namespaces/inkscape"
   width="37.653522mm"
   height="29.195103mm"
   viewBox="0 0 37.653522 29.195103"
   version="1.1"
   id="svg30957"
   inkscape:version="0.92.4 (5da689c313, 2019-01-14)"
   sodipodi:docname="E33.svg">
  <defs
     id="defs30951" />
  <sodipodi:namedview
     id="base"
     pagecolor="#ffffff"
     bordercolor="#666666"
     borderopacity="1.0"
     inkscape:pageopacity="0.0"
     inkscape:pageshadow="2"
     inkscape:zoom="0.35"
     inkscape:cx="-451.83039"
     inkscape:cy="-364.12057"
     inkscape:document-units="mm"
     inkscape:current-layer="layer1"
     showgrid="false"
     fit-margin-top="0"
     fit-margin-left="0"
     fit-margin-right="0"
     fit-margin-bottom="0"
     inkscape:window-width="1920"
     inkscape:window-height="1017"
     inkscape:window-x="-8"
     inkscape:window-y="-8"
     inkscape:window-maximized="1" />
  <metadata
     id="metadata30954">
    <rdf:RDF>
      <cc:Work
         rdf:about="">
        <dc:format>image/svg+xml</dc:format>
        <dc:type
           rdf:resource="http://purl.org/dc/dcmitype/StillImage" />
        <dc:title></dc:title>
      </cc:Work>
    </rdf:RDF>
  </metadata>
  <g
     inkscape:label="Layer 1"
     inkscape:groupmode="layer"
     id="layer1"
     transform="translate(-32.234292,-23.297996)">
    <flowRoot
       xml:space="preserve"
       id="flowRoot31502"
       style="font-style:normal;font-variant:normal;font-weight:normal;font-stretch:normal;font-size:192px;line-height:1.25;font-family:sans-serif;-inkscape-font-specification:sans-serif;font-variant-ligatures:normal;font-variant-caps:normal;font-variant-numeric:normal;font-feature-settings:normal;text-align:start;letter-spacing:0px;word-spacing:0px;writing-mode:lr-tb;text-anchor:start;fill:#000000;fill-opacity:1;stroke:none"
       transform="scale(0.26458333)"><flowRegion
         id="flowRegion31504"><rect
           id="rect31506"
           width="685.71429"
           height="440"
           x="37.142857"
           y="76.805397" /></flowRegion><flowPara
         id="flowPara31508"></flowPara></flowRoot>    <g
       aria-label="𓃸"
       style="font-style:normal;font-variant:normal;font-weight:normal;font-stretch:normal;font-size:50.79999924px;line-height:1.25;font-family:sans-serif;-inkscape-font-specification:sans-serif;font-variant-ligatures:normal;font-variant-caps:normal;font-variant-numeric:normal;font-feature-settings:normal;text-align:start;letter-spacing:0px;word-spacing:0px;writing-mode:lr-tb;text-anchor:start;fill:#000000;fill-opacity:1;stroke:none;stroke-width:0.26458332"
       id="text31512">
      <path
         d="m 40.915922,43.538618 0.868164,-2.331641 q 0,-0.198437 0,-0.471289 0.02481,-0.297656 0.02481,-1.016992 0,-1.513086 -0.396875,-2.207617 -0.42168,-0.744141 -1.314649,-1.438672 -0.917773,0 -2.158007,0.644922 -1.240235,0.644922 -1.934766,0.644922 -0.644922,0 -1.21543,-0.496094 -0.520898,-0.471289 -0.520898,-0.744141 0,-0.07441 -0.0248,-0.124023 0.07441,-0.223242 0.09922,-0.42168 0.02481,-0.223242 0.02481,-0.421679 0,-0.595313 -0.248047,-1.513086 -0.223242,-0.917774 -0.223242,-2.108399 l 0.471289,-1.289843 q 0.446484,-1.21543 1.240234,-1.686719 0.79375,-0.496094 1.562695,-0.496094 0.868164,0 1.661914,0.595313 l 0.992188,0.719335 q 0.396875,0.322461 0.967383,0.322461 0.04961,0 2.554882,-0.297656 1.265039,-0.173633 2.629297,-0.248047 1.364258,-0.07441 2.902149,-0.07441 1.53789,0 2.802929,0.07441 1.289844,0.07441 2.530078,0.248047 1.265039,0.173633 2.579688,0.446485 1.314648,0.248046 2.951758,0.644921 1.885156,0.446485 3.91914,0.768946 2.058789,0.322461 3.919141,0.496093 0.396875,-1.066601 0.74414,-2.182812 0.372071,-1.141016 0.471289,-2.282031 -0.496093,-0.892969 -0.917773,-1.463477 -0.42168,-0.570508 -0.942578,-0.892969 -0.520899,-0.32246 -1.21543,-0.446484 -0.669726,-0.124023 -1.637109,-0.124023 -0.595313,0 -1.21543,0.09922 -0.595312,0.07441 -1.141015,0.148829 -2.108399,0.421679 -4.167188,0.74414 -0.868164,0.148828 -1.835547,0.272852 -0.942578,0.124023 -1.885156,0.223242 -0.942578,0.09922 -1.835547,0.173633 -0.892969,0.04961 -1.637109,0.04961 l 0.09922,-0.595312 q 1.265039,0 2.604492,-0.148829 1.339453,-0.173632 2.629297,-0.421679 1.289843,-0.248047 2.505273,-0.520899 1.21543,-0.272851 2.257226,-0.520898 1.041797,-0.248047 1.860352,-0.396875 0.818555,-0.173633 1.314648,-0.173633 1.686719,0 2.877344,0.396875 1.190625,0.396875 1.934766,1.016992 0.74414,0.620117 1.091406,1.413867 0.347266,0.768946 0.347266,1.513086 0,0.272852 -0.09922,0.79375 -0.07441,0.520899 -0.198438,1.116211 -0.124023,0.595313 -0.272851,1.165821 -0.148828,0.570507 -0.272852,0.917773 -0.07441,0.198438 -0.09922,0.595313 0,0.396874 0,0.570507 0,0.173633 -0.04961,0.496094 -0.04961,0.297656 -0.198437,1.016992 -0.272852,1.438672 -0.892969,2.827735 -0.620117,1.364257 -1.537891,2.629296 -0.892968,1.21543 -1.215429,2.133203 -0.322461,0.892969 -0.322461,1.364258 v 0.347266 q 0,1.141016 0.446484,2.207617 0.322461,0.843359 0.496094,1.314648 0.173633,0.446485 0.272851,0.694532 0.09922,0.272851 0.124024,0.37207 0,0.545703 -0.04961,1.016992 -0.04961,0.446485 -0.198437,0.917774 -0.148828,0.471289 -0.446484,0.992187 -0.297657,0.520899 -0.818555,1.190625 -0.124024,0.04961 -0.223242,0.07441 -0.07441,0.04961 -0.124024,0.07441 h -3.993554 l -0.322461,-0.198437 q -0.124024,-0.297657 -0.124024,-0.446485 0,-0.396875 0.322461,-0.719336 0.347266,-0.347265 1.413867,-0.347265 1.116211,0 1.785938,-0.446485 0.669726,-0.446484 0.669726,-1.141015 0,-0.09922 -0.04961,-0.248047 -0.42168,-1.141016 -0.818555,-2.530078 -0.396875,-1.413867 -0.818554,-2.778125 -0.04961,-0.148828 -0.09922,-0.37207 -0.04961,-0.223243 -0.04961,-0.496094 0,-0.79375 0.471289,-1.909961 0.471289,-1.141016 0.595312,-1.637109 -0.942578,0.644921 -1.810742,1.488281 -0.868164,0.818554 -1.637109,1.885156 -0.768946,1.066602 -1.562696,2.75332 -0.79375,1.686719 -1.5875,4.01836 0,0.421679 -0.148828,0.868164 -0.124023,0.446484 -0.347265,0.868164 -0.223243,0.421679 -0.520899,0.79375 -0.272851,0.37207 -0.595312,0.595312 h -4.365625 l -0.322461,-0.198437 q -0.124024,-0.297657 -0.124024,-0.496094 0,-0.570508 0.471289,-0.818555 0.496094,-0.248047 1.562696,-0.248047 2.083593,0 2.852539,-2.827734 0.421679,-1.463476 0.644922,-2.356445 0.223242,-0.892969 0.272851,-1.240235 0.124024,-0.74414 1.637109,-2.778125 1.513086,-2.058789 2.703711,-2.951757 0.223243,-0.396875 0.347266,-0.768946 0.124023,-0.396875 0.124023,-0.620117 0,-0.09922 -0.04961,-0.248047 -0.173633,-0.09922 -0.496094,-0.09922 -0.322461,0.0248 -0.496093,0.04961 -0.148829,0 -0.248047,0 -0.446485,0 -0.818555,-0.02481 -0.347266,-0.04961 -0.520898,-0.04961 -0.297657,0 -1.091407,0.148828 -0.768945,0.148828 -1.785937,0.37207 -0.992188,0.198438 -2.083594,0.471289 -1.091406,0.248047 -2.033984,0.471289 -0.917774,0.223243 -1.537891,0.372071 -0.620117,0.148828 -0.694531,0.173633 -0.322461,0.07441 -0.694531,0.545703 -0.347266,0.446484 -0.347266,1.116211 0,0.496093 0.322461,1.810742 0.347266,1.389062 0.347266,2.257226 0,0.620117 -0.248047,1.339453 -0.223242,0.694532 -0.496094,1.289844 -0.322461,0.719336 -0.719336,1.413867 -0.198437,0.372071 -0.396875,0.967383 -0.198437,0.570508 -0.396875,1.364258 -0.37207,1.5875 -2.00918,1.5875 -0.818554,0 -1.240234,-0.248047 -0.42168,-0.223242 -0.694531,-0.223242 h -0.198438 q -0.173632,0.02481 -0.347265,0.04961 -0.173633,0.02481 -0.347266,0.07441 L 40.32062,52.46829 39.824526,51.997001 q 0,-0.917773 0.37207,-1.21543 0.396875,-0.32246 0.992188,-0.32246 0.446484,0 0.892968,0.09922 0.471289,0.07441 0.967383,0.07441 0.768945,0 1.21543,-0.520898 0.471289,-0.545703 1.240234,-2.678906 0.818555,-2.158008 0.818555,-4.067969 0,-1.041797 -0.297656,-1.909961 -0.297657,-0.868164 -1.066602,-1.389062 -1.240234,0.79375 -1.95957,3.671093 -0.694532,2.852539 -1.63711,3.96875 -0.942578,1.091407 -1.562695,2.083594 0,1.413867 -0.694531,2.033984 -0.694531,0.620118 -1.835547,0.620118 -0.79375,0 -1.314648,-0.173633 -0.520899,-0.173633 -0.818555,-0.198438 h -0.272852 q -0.496093,0 -1.016992,0.124024 -0.496094,0.148828 -1.116211,0.272851 l -0.496093,-0.471289 q 0,-0.620117 0.37207,-1.066601 0.37207,-0.446485 1.314648,-0.520899 l 1.860352,0.223242 q 1.190625,0 2.579687,-1.984375 0.694531,-1.016992 1.339453,-2.282031 0.644922,-1.265039 1.21543,-2.827734 z m 2.282031,7.763867 q -0.07441,0 -0.322461,0 -0.248047,-0.02481 -0.545703,-0.02481 -0.297656,-0.0248 -0.595312,-0.0248 -0.272852,-0.02481 -0.396875,-0.02481 -0.198438,0 -0.322461,0.02481 -0.09922,0.07441 -0.223242,0.198437 -0.04961,0.04961 -0.07441,0.09922 0.198437,0 0.446484,-0.0248 0.198437,-0.02481 0.42168,-0.02481 0.223242,-0.0248 0.421679,-0.0248 0.471289,0 1.041797,0.124023 0.570508,0.09922 1.240234,0.09922 1.141016,0 1.339454,-1.21543 l 0.09922,-0.520898 q 0.07441,-0.446485 1.066602,-2.455664 0.992187,-2.058789 0.992187,-3.026172 0,-0.570508 -0.322461,-1.95957 -0.297656,-1.438672 -0.297656,-2.083594 0,-0.843359 0.322461,-1.389063 0.322461,-0.545703 0.694531,-0.74414 0.322461,-0.148828 1.785938,-0.545703 2.033984,-0.496094 3.423047,-0.818555 1.389062,-0.347266 2.306836,-0.545703 0.942578,-0.223242 1.488281,-0.297656 0.545703,-0.09922 0.892969,-0.09922 0.198437,0 0.570507,0.04961 0.372071,0.02481 0.84336,0.02481 0.173632,0 0.347265,0 0.198438,0 0.471289,-0.02481 1.265039,0 1.265039,1.091407 0,0.694531 -0.396875,1.463476 -0.37207,0.744141 -0.967382,1.141016 -0.595313,0.396875 -1.909961,2.182812 -0.644922,0.917774 -0.992188,1.438672 -0.347265,0.496094 -0.37207,0.620117 -0.0248,0.124024 -0.148828,0.620117 -0.124024,0.496094 -0.347266,1.389063 -0.446484,1.736328 -1.016992,3.100586 -0.272852,0.644922 -0.570508,1.116211 -0.272851,0.446484 -0.595312,0.694531 -0.595313,0.446484 -1.885157,0.570508 -0.421679,0.04961 -0.694531,0.07441 -0.248047,0.0248 -0.396875,0.04961 -0.148828,0 -0.223242,0.02481 -0.04961,0.02481 -0.09922,0.04961 h 3.819922 q 0,-0.124023 0.471289,-0.768945 0.471289,-0.694531 0.471289,-1.190625 0,-0.248047 0.07441,-0.520899 l 0.42168,-1.190624 q 1.314648,-3.819922 3.125391,-6.201172 1.810742,-2.406055 4.191992,-3.770313 l 0.545703,0.372071 q 0,0.818554 -0.570508,2.257226 -0.570508,1.438672 -0.570508,2.306836 0.446485,1.761133 0.768945,2.902148 0.347266,1.116211 0.570508,1.835547 0.223242,0.694532 0.322461,1.066602 0.124024,0.37207 0.124024,0.595312 0,0.942578 -1.016993,1.5875 -0.992187,0.620117 -2.058789,0.620117 -0.347265,0 -0.570507,0.02481 -0.198438,0 -0.471289,0.07441 h 3.423046 q 0.744141,-0.843359 0.967383,-1.562695 0.248047,-0.669727 0.248047,-1.934766 -0.570508,-1.190625 -0.942578,-2.257226 -0.37207,-1.091406 -0.37207,-2.232422 0,-0.917773 0.37207,-2.00918 0.347266,-0.917773 0.545703,-1.289843 0.223242,-0.396875 0.446484,-0.644922 0.446485,-0.446485 1.389063,-2.182813 0.942578,-1.785937 1.240234,-3.497461 0.04961,-0.272851 0.07441,-0.446484 0.02481,-0.198438 0.04961,-0.322461 0.0248,-0.124023 0.04961,-0.223242 L 67.432131,32.55015 q -2.257227,-0.248046 -4.340821,-0.570507 -2.058789,-0.347266 -3.943945,-0.79375 -1.885156,-0.446485 -3.299023,-0.694532 -1.413867,-0.272851 -2.38125,-0.37207 -0.967383,-0.09922 -2.207617,-0.148828 -1.21543,-0.04961 -2.703711,-0.04961 -1.389063,0 -2.728516,0.09922 -1.314648,0.07441 -2.406055,0.173633 -1.066601,0.09922 -1.785937,0.198438 -0.719336,0.07441 -0.868164,0.07441 -0.892969,0 -1.95957,-0.79375 -1.041797,-0.818555 -2.108399,-0.818555 -1.016992,0.42168 -1.413867,1.389063 -0.198437,0.496093 -0.347266,0.818554 -0.148828,0.322461 -0.248046,0.496094 0,0.868164 0.248046,1.736328 0.248047,0.843359 0.248047,1.785938 0,0.223242 -0.0248,0.471289 -0.02481,0.223242 -0.09922,0.446484 0.148828,0.198437 0.347265,0.396875 0.198438,0.198437 0.47129,0.198437 0.396875,0 0.843359,-0.198437 0.446484,-0.223242 0.942578,-0.471289 0.496094,-0.272852 1.066602,-0.471289 0.595312,-0.223242 1.265039,-0.223242 0.570507,0 1.5875,1.091406 0.992187,1.066601 0.992187,3.54707 0,0.347266 0.02481,0.620117 0.04961,0.272852 0.04961,0.396875 0,0.570508 -1.810742,4.81211 -0.892969,2.133203 -1.860352,3.423046 -0.942578,1.289844 -2.033984,1.984375 -0.272851,0.148829 -0.570508,0.173633 -0.173633,0.04961 -0.347265,0.04961 -0.04961,0 -0.372071,-0.02481 -0.297656,-0.02481 -0.669726,-0.02481 -0.372071,-0.0248 -0.694531,-0.0248 -0.322461,-0.02481 -0.372071,-0.02481 -0.198437,0 -0.347265,0.07441 -0.148828,0.04961 -0.248047,0.09922 -0.09922,0.07441 -0.198438,0.148828 l 1.165821,-0.09922 q 0.297656,0 0.768945,0.04961 0.471289,0.02481 0.942578,0.09922 0.496094,0.04961 0.892969,0.09922 0.421679,0.02481 0.595312,0.02481 0.570508,0 0.967383,-0.322461 0.396875,-0.347266 0.471289,-1.066602 l 0.04961,-0.446484 q 0,-0.496094 1.141016,-1.810742 1.141016,-1.339454 1.488281,-2.530079 0.322461,-1.190624 0.744141,-2.33164 l 0.446484,-1.265039 q 0.42168,-1.289844 0.992188,-1.984375 0.570508,-0.719336 1.16582,-0.719336 0.694531,0.07441 1.413867,1.190625 0.694531,1.066601 0.694531,2.852539 0,2.778125 -1.141015,5.457031 -0.570508,1.364258 -1.265039,1.95957 -0.669727,0.595313 -1.463477,0.595313 z"
         style="stroke-width:0.26458332"
         id="path31514"
         inkscape:connector-curvature="0" />
    </g>
  </g>
</svg>
