<?xml version="1.0" encoding="UTF-8" standalone="no"?>
<!-- Created with Inkscape (http://www.inkscape.org/) -->

<svg
   xmlns:dc="http://purl.org/dc/elements/1.1/"
   xmlns:cc="http://creativecommons.org/ns#"
   xmlns:rdf="http://www.w3.org/1999/02/22-rdf-syntax-ns#"
   xmlns:svg="http://www.w3.org/2000/svg"
   xmlns="http://www.w3.org/2000/svg"
   xmlns:sodipodi="http://sodipodi.sourceforge.net/DTD/sodipodi-0.dtd"
   xmlns:inkscape="http://www.inkscape.org/namespaces/inkscape"
   width="37.628708mm"
   height="23.589285mm"
   viewBox="0 0 37.628708 23.589285"
   version="1.1"
   id="svg31523"
   inkscape:version="0.92.4 (5da689c313, 2019-01-14)"
   sodipodi:docname="E34.svg">
  <defs
     id="defs31517" />
  <sodipodi:namedview
     id="base"
     pagecolor="#ffffff"
     bordercolor="#666666"
     borderopacity="1.0"
     inkscape:pageopacity="0.0"
     inkscape:pageshadow="2"
     inkscape:zoom="0.35"
     inkscape:cx="-386.11523"
     inkscape:cy="-231.903"
     inkscape:document-units="mm"
     inkscape:current-layer="layer1"
     showgrid="false"
     fit-margin-top="0"
     fit-margin-left="0"
     fit-margin-right="0"
     fit-margin-bottom="0"
     inkscape:window-width="1920"
     inkscape:window-height="1017"
     inkscape:window-x="-8"
     inkscape:window-y="-8"
     inkscape:window-maximized="1" />
  <metadata
     id="metadata31520">
    <rdf:RDF>
      <cc:Work
         rdf:about="">
        <dc:format>image/svg+xml</dc:format>
        <dc:type
           rdf:resource="http://purl.org/dc/dcmitype/StillImage" />
        <dc:title></dc:title>
      </cc:Work>
    </rdf:RDF>
  </metadata>
  <g
     inkscape:label="Layer 1"
     inkscape:groupmode="layer"
     id="layer1"
     transform="translate(-14.847155,-63.886381)">
    <g
       aria-label="𓃹"
       transform="scale(0.26458333)"
       style="font-style:normal;font-variant:normal;font-weight:normal;font-stretch:normal;font-size:192px;line-height:1.25;font-family:sans-serif;-inkscape-font-specification:sans-serif;font-variant-ligatures:normal;font-variant-caps:normal;font-variant-numeric:normal;font-feature-settings:normal;text-align:start;letter-spacing:0px;word-spacing:0px;writing-mode:lr-tb;text-anchor:start;fill:#000000;fill-opacity:1;stroke:none"
       id="flowRoot32068">
      <path
         d="m 175.92773,260.96039 q -10.03125,9 -20.15625,14.25 -10.03125,5.25 -28.40625,9.65625 l -12.09375,2.53125 q -0.1875,0 -4.5,0.75 -4.3125,0.75 -4.59375,3.1875 v 0.375 q 0,3.28125 4.40625,5.71875 4.5,2.4375 15.75,2.90625 h 1.6875 q 5.25,0 15.1875,-2.53125 9.9375,-2.53125 15.28125,-2.71875 h 1.59375 q 10.21875,0 19.21875,6.46875 9.09375,6.46875 9.5625,16.03125 0.5625,0.1875 0.75,0.375 1.5,0 2.71875,-1.40625 1.21875,-1.40625 2.0625,-3 l 0.9375,-1.78125 2.8125,0.75 0.1875,1.96875 v 1.875 q 0,5.34375 -2.34375,7.875 -2.34375,2.53125 -7.125,2.53125 -1.59375,0 -3.09375,-0.28125 0,0.84375 -0.28125,1.40625 -0.1875,0.5625 -0.75,1.6875 l -1.5,1.03125 h -44.25 q -1.40625,0 -2.34375,-0.9375 -0.9375,-0.9375 -0.9375,-2.4375 v -0.46875 q 0.1875,-2.0625 2.25,-3.09375 2.0625,-1.125 7.59375,-1.125 2.625,0 9.1875,0.65625 6.65625,0.65625 10.03125,0.65625 1.59375,0 3.09375,-0.28125 1.5,-0.28125 2.71875,-1.125 l 0.0937,-0.0937 q -1.875,-0.84375 -3.5625,-2.0625 -1.6875,-1.3125 -3,-3 -8.53125,2.71875 -17.4375,4.40625 -8.90625,1.6875 -18.28125,1.6875 -5.4375,0 -10.96875,-0.65625 -5.53125,-0.65625 -11.15625,-2.15625 0.375,1.59375 0.375,3 0,1.96875 -1.03125,3.1875 -1.03125,1.21875 -3.09375,3.28125 -0.9375,0.375 -1.3125,0.5625 H 58.552734 q -1.21875,0 -1.875,-1.125 -0.5625,-1.125 -0.5625,-2.71875 v -0.65625 q 0,-1.21875 0.65625,-1.96875 0.75,-0.84375 2.25,-1.03125 h 0.46875 q 0.46875,0 1.03125,0.0937 0.65625,0.0937 1.40625,0.0937 4.21875,0.1875 7.96875,0.46875 3.75,0.1875 7.6875,0.1875 h 2.8125 q 1.40625,0 2.90625,-0.1875 l 4.40625,-0.46875 q 0.9375,0 2.53125,-0.65625 1.59375,-0.65625 1.59375,-0.84375 l 0.09375,-0.28125 q 0.1875,-0.75 0.1875,-1.5 0,-3.1875 -4.3125,-9.46875 -4.3125,-6.375 -5.625,-9.65625 l -3.75,1.78125 -1.40625,7.21875 -1.5,1.03125 h -4.59375 l -1.40625,-1.78125 v -3.09375 q -2.25,-0.9375 -3.84375,-2.4375 -1.59375,-1.5 -2.0625,-3.9375 l -0.28125,-0.28125 q -0.28125,0 -0.9375,-0.65625 l -2.0625,-1.6875 -3.9375,-3.09375 0.84375,-1.125 q 0.28125,-0.375 0.5625,-0.65625 0.375,-0.375 0.46875,-0.5625 l 6.46875,5.15625 5.625,-7.21875 q 3.9375,-5.15625 8.90625,-9 4.96875,-3.84375 10.59375,-4.21875 8.53125,-12.75 17.999996,-19.03125 9.5625,-6.375 28.125,-8.71875 18.5625,-2.34375 31.3125,-7.125 l 1.96875,1.875 q -1.875,4.5 -4.3125,8.4375 -2.4375,3.9375 -5.4375,7.5 4.03125,-0.46875 8.0625,-0.65625 4.125,-0.1875 8.34375,-0.84375 z m -77.156246,17.15625 q 16.874996,-12.5625 31.406246,-15.46875 14.53125,-3 24.84375,-3 6.28125,-6.28125 10.03125,-14.15625 -10.78125,3.84375 -28.96875,6.28125 -18.1875,2.34375 -26.90625,8.15625 -8.71875,5.8125 -17.249996,18.75 -0.9375,0.375 -1.3125,0.5625 -8.8125,0.5625 -16.3125,10.21875 -7.40625,9.5625 -7.6875,9.84375 0.375,1.59375 1.5,2.625 1.125,0.9375 2.71875,1.40625 0.1875,0 3.84375,-1.96875 3.75,-2.0625 7.875,-3.9375 0.46875,0.28125 1.03125,0.46875 l 0.9375,0.46875 q 1.03125,3.9375 5.8125,10.78125 4.78125,6.75 4.78125,10.96875 0,2.625 -2.15625,4.40625 -2.15625,1.78125 -8.4375,2.15625 l -3.84375,0.28125 q -1.59375,0 -3,0.0937 l -5.4375,-0.1875 q -3.28125,0 -6.5625,-0.375 -3.1875,-0.375 -6.46875,-0.375 l -0.1875,0.46875 v 0.5625 q 0,0.1875 0.09375,0.28125 l 0.09375,0.1875 h 41.437496 q 0.9375,-0.9375 1.6875,-1.78125 0.84375,-0.9375 1.5,-2.0625 l -1.03125,-4.96875 q 0.46875,-0.46875 0.9375,-0.84375 0.46875,-0.375 0.9375,-0.84375 13.3125,3.46875 24.84375,3.46875 8.0625,0 15.9375,-1.5 7.96875,-1.5 17.0625,-4.40625 l -2.0625,-3.46875 -1.125,-1.78125 q -0.375,-0.5625 -0.375,-0.75 l -0.0937,-0.0937 1.875,-2.8125 5.25,8.8125 q 1.3125,2.0625 3.1875,3.375 1.875,1.3125 4.03125,2.34375 l 0.65625,1.21875 q -0.375,2.8125 -2.71875,4.03125 -2.25,1.21875 -7.3125,1.21875 -4.03125,0 -9.5625,-0.46875 -5.53125,-0.5625 -7.875,-0.75 h -2.0625 q -1.5,0 -3,0.28125 -1.40625,0.1875 -2.53125,0.9375 -0.1875,0.375 -0.1875,0.75 l 43.78125,0.0937 q 0.1875,-0.1875 0.1875,-0.375 0.1875,-0.75 0.28125,-1.5 l 0.0937,-1.40625 1.875,-1.125 q 1.875,0.65625 3.9375,0.65625 2.71875,0 4.5,-1.5 1.875,-1.5 2.0625,-4.875 -2.53125,3.28125 -5.25,3.28125 -0.65625,0 -1.96875,-0.28125 -1.21875,-0.375 -2.15625,-1.6875 -0.46875,-9 -8.4375,-14.8125 -7.875,-5.90625 -17.90625,-5.90625 h -1.125 q -3.1875,0.1875 -6.375,0.75 -3.09375,0.5625 -6.1875,1.3125 l -6.1875,1.5 q -5.15625,1.21875 -7.59375,1.5 -2.4375,0.1875 -4.5,0.1875 -10.03125,0 -17.25,-2.90625 -7.21875,-2.90625 -7.21875,-8.34375 0,-2.90625 1.875,-4.6875 1.875,-1.875 7.3125,-2.625 l 2.4375,-0.375 4.125,-0.84375 q 11.625,-2.15625 24.46875,-6.375 12.9375,-4.3125 26.25,-14.8125 l -10.21875,2.4375 q -4.40625,1.03125 -15.375,3.375 -10.875,2.34375 -18.75,5.25 l -3.84375,1.40625 q -3.5625,1.21875 -6.1875,3.1875 -2.625,1.96875 -3.46875,4.6875 l -2.90625,-0.75 q 1.875,-6.1875 10.40625,-9.75 8.625,-3.5625 15.1875,-5.15625 l 13.6875,-3.09375 5.53125,-1.21875 -8.53125,0.65625 q -16.03125,1.3125 -25.78125,5.8125 -9.75,4.5 -18.75,11.25 z m -24.9375,27.09375 q -0.65625,0.375 -1.3125,0.65625 v 2.0625 h 1.875 l 0.65625,-3.375 z m 10.03125,-16.875 q -1.03125,1.03125 -2.53125,1.40625 l -1.03125,-1.59375 1.03125,-1.59375 q 1.875,0.5625 2.53125,1.78125 z"
         id="path32076"
         inkscape:connector-curvature="0" />
    </g>
  </g>
</svg>
