<?xml version="1.0" encoding="UTF-8" standalone="no"?>
<!-- Created with Inkscape (http://www.inkscape.org/) -->

<svg
   xmlns:dc="http://purl.org/dc/elements/1.1/"
   xmlns:cc="http://creativecommons.org/ns#"
   xmlns:rdf="http://www.w3.org/1999/02/22-rdf-syntax-ns#"
   xmlns:svg="http://www.w3.org/2000/svg"
   xmlns="http://www.w3.org/2000/svg"
   xmlns:sodipodi="http://sodipodi.sourceforge.net/DTD/sodipodi-0.dtd"
   xmlns:inkscape="http://www.inkscape.org/namespaces/inkscape"
   width="23.539663mm"
   height="32.990261mm"
   viewBox="0 0 23.539663 32.990261"
   version="1.1"
   id="svg32647"
   inkscape:version="0.92.4 (5da689c313, 2019-01-14)"
   sodipodi:docname="E36.svg">
  <defs
     id="defs32641" />
  <sodipodi:namedview
     id="base"
     pagecolor="#ffffff"
     bordercolor="#666666"
     borderopacity="1.0"
     inkscape:pageopacity="0.0"
     inkscape:pageshadow="2"
     inkscape:zoom="0.35"
     inkscape:cx="-348.97261"
     inkscape:cy="-333.30925"
     inkscape:document-units="mm"
     inkscape:current-layer="layer1"
     showgrid="false"
     fit-margin-top="0"
     fit-margin-left="0"
     fit-margin-right="0"
     fit-margin-bottom="0"
     inkscape:window-width="1920"
     inkscape:window-height="1017"
     inkscape:window-x="-8"
     inkscape:window-y="-8"
     inkscape:window-maximized="1" />
  <metadata
     id="metadata32644">
    <rdf:RDF>
      <cc:Work
         rdf:about="">
        <dc:format>image/svg+xml</dc:format>
        <dc:type
           rdf:resource="http://purl.org/dc/dcmitype/StillImage" />
        <dc:title></dc:title>
      </cc:Work>
    </rdf:RDF>
  </metadata>
  <g
     inkscape:label="Layer 1"
     inkscape:groupmode="layer"
     id="layer1"
     transform="translate(-5.0198353,-27.655001)">
    <g
       aria-label="𓃻"
       transform="scale(0.26458333)"
       style="font-style:normal;font-variant:normal;font-weight:normal;font-stretch:normal;font-size:192px;line-height:1.25;font-family:sans-serif;-inkscape-font-specification:sans-serif;font-variant-ligatures:normal;font-variant-caps:normal;font-variant-numeric:normal;font-feature-settings:normal;text-align:start;letter-spacing:0px;word-spacing:0px;writing-mode:lr-tb;text-anchor:start;fill:#000000;fill-opacity:1;stroke:none"
       id="flowRoot33192">
      <path
         d="m 76.441406,131.61664 q 8.53125,4.21875 12.75,14.25 4.21875,10.03125 4.21875,30.375 0,8.625 -0.84375,19.96875 -0.84375,11.25 -0.84375,16.125 0,2.0625 -0.1875,4.875 -0.1875,2.8125 -1.3125,5.4375 h 0.65625 q 3.9375,0 6.09375,-2.15625 2.25,-2.25 2.25,-6.75 0,-1.3125 -0.09375,-3.46875 -0.09375,-2.25 -0.375,-5.4375 -0.1875,-3.1875 -0.375,-6.28125 -0.1875,-3.09375 -0.1875,-6.28125 0,-3.9375 1.3125,-7.3125 1.312504,-3.46875 3.281254,-7.6875 l 2.53125,-5.25 2.625,1.78125 q -0.84375,1.78125 -2.0625,4.21875 -1.125,2.34375 -2.15625,4.875 -1.03125,2.53125 -1.78125,5.0625 -0.75,2.53125 -0.75,4.59375 0,2.15625 0.0937,4.96875 0.1875,2.8125 0.375,5.71875 0.28125,2.8125 0.375,5.4375 0.1875,2.625 0.1875,4.5 0,6.28125 -3.093754,9.65625 -3.09375,3.375 -9.65625,3.375 -0.46875,0 -0.9375,0 -0.375,0 -0.84375,-0.0937 -1.5,1.3125 -3.84375,2.25 -2.25,0.84375 -5.53125,0.84375 -9.375,0 -18,-3.09375 -8.625,-3.1875 -16.03125,-9.46875 -0.1875,3.1875 -0.65625,6.5625 -0.46875,3.28125 -1.125,6 h -23.53125 q 0,-11.15625 5.0625,-11.15625 0.65625,0 1.5,0.1875 0.9375,0.1875 1.78125,0.46875 0.84375,0.1875 1.40625,0.46875 0.65625,0.28125 0.9375,0.375 0.5625,-4.59375 0.65625,-9.9375 0.09375,-5.4375 0.09375,-10.21875 0,-5.625 -2.25,-14.0625 -2.25,-8.4375 -2.25,-13.78125 v -2.15625 q 0,-0.75 0.09375,-1.21875 l -6,-2.4375 q 3.5625,-7.125 6.75,-10.875 3,-3.5625 5.34375,-3.5625 l 2.0625,0.0937 q 0.28125,-2.4375 0.65625,-4.21875 0.46875,-1.875 0.9375,-3.1875 1.125,-2.625 4.21875,-5.71875 l 5.90625,-5.71875 q -0.84375,-1.875 -1.875,-2.4375 -1.03125,-0.5625 -3.1875,-0.75 l -8.25,-0.65625 q -3.28125,-0.28125 -5.34375,-1.21875 -1.96875,-0.9375 -2.25,-2.15625 l -3.9375,-13.21875 q 2.53125,0.1875 4.59375,0.28125 2.0625,0.0937 3.65625,0.0937 3.9375,0 5.71875,-0.28125 1.875,-0.375 2.4375,-0.65625 0.5625,-0.28125 0.9375,-1.59375 0.375,-1.3125 0.375,-2.53125 4.5,-1.21875 9,-2.0625 4.5,-0.84375 7.6875,-0.84375 12.75,0 18.375,4.03125 5.71875,4.03125 5.71875,11.53125 0,4.59375 -1.03125,7.3125 -0.9375,2.71875 -2.0625,4.21875 z m -39.1875,19.875 q 4.5,9.5625 9.28125,17.4375 4.875,7.875 10.78125,14.34375 6,6.375 13.59375,11.4375 7.6875,4.96875 18,8.71875 l 0.84375,-12.1875 q 0.1875,-3.28125 0.375,-6.75 0.1875,-3.46875 0.1875,-7.21875 0,-10.6875 -1.125,-18 -1.03125,-7.40625 -3.09375,-12.375 -2.0625,-5.0625 -4.96875,-8.0625 -2.8125,-3 -6.46875,-4.875 -0.84375,0.5625 -2.34375,1.40625 -1.40625,0.84375 -3.28125,1.59375 -1.875,0.65625 -4.125,1.21875 -2.15625,0.46875 -4.40625,0.46875 -3.9375,0 -7.21875,-1.21875 -3.1875,-1.3125 -4.875,-2.90625 l -1.78125,1.59375 q -5.90625,5.0625 -7.40625,8.0625 -1.59375,3.09375 -1.96875,7.3125 z m 7.3125,41.25 v 19.78125 q 7.3125,7.03125 15.75,10.40625 8.4375,3.28125 18,3.28125 4.78125,0 7.5,-2.90625 2.71875,-2.90625 2.71875,-10.96875 v -5.90625 q -5.15625,-2.0625 -9.84375,-4.21875 -4.6875,-2.15625 -9.09375,-4.875 -4.40625,-2.8125 -8.625,-6.46875 -4.21875,-3.65625 -8.4375,-8.625 -4.125,-4.96875 -8.25,-11.625 -4.125,-6.65625 -8.4375,-15.375 -4.5,3.1875 -5.4375,7.59375 -1.03125,4.59375 -1.03125,11.53125 0,4.21875 2.0625,11.25 2.15625,7.3125 2.15625,13.78125 v 5.625 q 0,2.0625 -0.09375,4.40625 -0.09375,2.25 -0.28125,4.875 -0.28125,5.0625 -0.84375,8.15625 l -1.6875,0.1875 q -1.59375,0 -3.375,-0.75 -1.78125,-0.75 -3.28125,-0.75 -1.875,0 -1.875,4.96875 h 17.90625 q 0.1875,-0.65625 0.28125,-2.15625 0.1875,-1.5 0.375,-3.84375 0.1875,-2.34375 0.375,-4.78125 0.28125,-2.4375 0.28125,-5.0625 v -17.53125 z m 3.1875,-84.1875 q 2.4375,0.65625 4.5,1.59375 2.15625,0.84375 4.03125,1.875 3.75,2.0625 3.75,4.03125 0,2.25 -1.6875,4.21875 -1.59375,1.96875 -3.65625,3.75 -1.96875,1.78125 -3.65625,3.375 -1.59375,1.59375 -1.59375,3.1875 0,1.6875 2.8125,3.375 2.90625,1.6875 8.25,1.6875 3.9375,0 6.75,-1.03125 2.90625,-1.03125 4.78125,-2.25 l 1.03125,-1.125 q 1.3125,-1.40625 2.34375,-4.3125 1.03125,-2.90625 1.03125,-6.84375 0,-12.46875 -21,-12.46875 -1.40625,0 -2.8125,0.1875 -1.3125,0.0937 -2.4375,0.28125 -1.3125,0.28125 -2.4375,0.46875 z m -4.96875,0.9375 -0.84375,0.28125 q 0,1.59375 -1.78125,3.65625 -1.78125,2.0625 -11.90625,2.0625 h -3 l 2.8125,9 q 0.1875,0.5625 2.15625,0.9375 2.0625,0.28125 5.0625,0.46875 l 5.4375,0.46875 q 2.0625,0.1875 3.46875,0.375 1.40625,0.1875 2.8125,1.875 0.5625,-1.96875 2.15625,-3.46875 1.59375,-1.59375 3.375,-3 1.78125,-1.5 3.09375,-2.90625 1.40625,-1.5 1.40625,-3.09375 0,-1.3125 -4.875,-3.28125 -4.96875,-2.15625 -9.375,-3.375 z m 8.53125,7.03125 q 0,0.9375 -0.65625,1.59375 -0.65625,0.5625 -1.6875,0.5625 -0.9375,0 -1.59375,-0.5625 -0.5625,-0.65625 -0.5625,-1.59375 0,-0.9375 0.5625,-1.59375 0.65625,-0.65625 1.59375,-0.65625 1.03125,0 1.6875,0.65625 0.65625,0.65625 0.65625,1.59375 z"
         id="path33200"
         inkscape:connector-curvature="0" />
    </g>
  </g>
</svg>
