<?xml version="1.0" encoding="UTF-8" standalone="no"?>
<!-- Created with Inkscape (http://www.inkscape.org/) -->

<svg
   xmlns:dc="http://purl.org/dc/elements/1.1/"
   xmlns:cc="http://creativecommons.org/ns#"
   xmlns:rdf="http://www.w3.org/1999/02/22-rdf-syntax-ns#"
   xmlns:svg="http://www.w3.org/2000/svg"
   xmlns="http://www.w3.org/2000/svg"
   xmlns:sodipodi="http://sodipodi.sourceforge.net/DTD/sodipodi-0.dtd"
   xmlns:inkscape="http://www.inkscape.org/namespaces/inkscape"
   width="37.975975mm"
   height="35.371483mm"
   viewBox="0 0 37.975975 35.371483"
   version="1.1"
   id="svg33209"
   inkscape:version="0.92.4 (5da689c313, 2019-01-14)"
   sodipodi:docname="E37.svg">
  <defs
     id="defs33203" />
  <sodipodi:namedview
     id="base"
     pagecolor="#ffffff"
     bordercolor="#666666"
     borderopacity="1.0"
     inkscape:pageopacity="0.0"
     inkscape:pageshadow="2"
     inkscape:zoom="0.35"
     inkscape:cx="-351.83008"
     inkscape:cy="-349.04758"
     inkscape:document-units="mm"
     inkscape:current-layer="layer1"
     showgrid="false"
     fit-margin-top="0"
     fit-margin-left="0"
     fit-margin-right="0"
     fit-margin-bottom="0"
     inkscape:window-width="1920"
     inkscape:window-height="1017"
     inkscape:window-x="-8"
     inkscape:window-y="-8"
     inkscape:window-maximized="1" />
  <metadata
     id="metadata33206">
    <rdf:RDF>
      <cc:Work
         rdf:about="">
        <dc:format>image/svg+xml</dc:format>
        <dc:type
           rdf:resource="http://purl.org/dc/dcmitype/StillImage" />
        <dc:title></dc:title>
      </cc:Work>
    </rdf:RDF>
  </metadata>
  <g
     inkscape:label="Layer 1"
     inkscape:groupmode="layer"
     id="layer1"
     transform="translate(-5.7758747,-21.109677)">
    <g
       aria-label="𓃼"
       transform="scale(0.26458333)"
       style="font-style:normal;font-variant:normal;font-weight:normal;font-stretch:normal;font-size:192px;line-height:1.25;font-family:sans-serif;-inkscape-font-specification:sans-serif;font-variant-ligatures:normal;font-variant-caps:normal;font-variant-numeric:normal;font-feature-settings:normal;text-align:start;letter-spacing:0px;word-spacing:0px;writing-mode:lr-tb;text-anchor:start;fill:#000000;fill-opacity:1;stroke:none"
       id="flowRoot33754">
      <path
         d="m 80.142578,101.62836 q 5.4375,2.71875 8.15625,9.28125 2.8125,6.5625 2.8125,19.6875 0,3.84375 -0.1875,7.59375 l -0.75,11.71875 q -0.1875,2.15625 -0.1875,4.03125 0,1.3125 -0.09375,3.1875 -0.09375,1.875 -0.84375,3.46875 h 0.65625 q 2.4375,0 3.75,-1.5 1.40625,-1.5 1.40625,-4.21875 0,-1.78125 -0.375,-6.09375 -0.28125,-4.40625 -0.28125,-7.78125 0,-3.46875 1.96875,-7.59375 1.96875,-4.125 2.15625,-4.59375 l 0.46875,-0.9375 0.375,0.1875 1.312502,0.9375 -0.562502,0.9375 -1.21875,2.25 q -1.40625,2.71875 -2.0625,4.40625 -0.5625,1.6875 -0.5625,4.03125 l 0.09375,0.5625 q 0,2.25 0.28125,4.6875 l 0.46875,4.875 q 0.1875,2.34375 0.1875,3.75 0,4.03125 -2.15625,6.28125 -2.15625,2.15625 -6.09375,2.15625 -0.75,0 -1.5,-0.0937 -0.46875,0.46875 -0.75,0.65625 H 112.11133 V 81.284608 q 0.5625,-0.46875 1.125,-0.75 0.65625,-0.375 1.21875,-0.75 l 14.71875,11.90625 13.5,-11.8125 2.53125,1.125 v 22.687502 q 6.65625,0.46875 10.6875,4.40625 4.03125,3.84375 4.03125,10.78125 h -0.28125 q -2.625,0 -3.28125,-2.4375 -0.5625,-2.4375 -2.71875,-5.8125 -2.15625,-3.375 -8.4375,-4.78125 v 57.65625 h 18.65625 l 1.5,1.96875 q -13.03125,25.125 -29.25,35.34375 -16.21875,10.21875 -41.437502,12.65625 h -0.46875 q -19.78125,-1.875 -32.4375,-7.21875 -12.65625,-5.4375 -22.03125,-14.53125 -9.28125,-9.09375 -17.90625,-25.96875 l 0.5625,-1.125 q 0.28125,-0.5625 0.65625,-1.125 h 19.78125 q 0.28125,-5.8125 3.28125,-5.8125 1.21875,0 2.90625,0.5625 0.1875,0.1875 0.375,0.1875 l 0.375,0.1875 q 0.375,-3 0.46875,-6.5625 v -6.46875 q 0,-4.03125 -1.5,-9.46875 -1.40625,-5.4375 -1.40625,-8.625 v -1.3125 q 0,-0.375 0.09375,-0.84375 l -2.15625,-0.9375 q -1.125,-0.46875 -1.6875,-0.65625 2.15625,-4.21875 4.125,-6.75 1.96875,-2.625 3.65625,-2.625 l 0.84375,0.0937 h 0.46875 q 0.1875,-1.78125 0.84375,-4.03125 0.65625,-2.34375 2.90625,-4.5 l 1.78125,-1.6875 q 1.03125,-1.03125 2.0625,-1.96875 -0.5625,-1.78125 -2.34375,-1.875 -1.6875,-0.1875 -6.1875,-0.656252 -4.5,-0.46875 -4.96875,-2.15625 h 0.09375 q -0.1875,-0.375 -0.5625,-1.78125 l -0.9375,-2.90625 q -0.5625,-1.78125 -1.125,-3.9375 l 2.0625,0.1875 q 0.84375,0 1.78125,0.09375 h 1.3125 q 4.125,0 5.15625,-0.375 1.125,-0.46875 1.125,-2.90625 2.34375,-0.65625 5.4375,-1.21875 3.09375,-0.65625 5.4375,-0.65625 8.34375,0 11.90625,2.625 3.65625,2.625 3.65625,7.5 0,3 -0.65625,4.78125 -0.5625,1.687502 -1.3125,2.625002 z m 14.0625,108.84375 q 19.125002,-1.78125 30.562502,-6.84375 11.53125,-5.15625 20.53125,-14.25 9,-9.09375 16.21875,-22.875 H 25.580078 q 6.75,13.3125 15.9375,22.59375 9.1875,9.1875 20.8125,14.4375 11.625,5.15625 32.34375,7.03125 z m 48.000002,-47.15625 v -58.21875 h -27.09375 v 58.21875 z m -87.468752,-48.75 2.4375,4.21875 h -0.09375 q 3.9375,7.03125 7.78125,12.84375 3.84375,5.8125 9.75,9.84375 5.90625,3.9375 10.40625,5.53125 l 3.1875,1.21875 q 0.1875,-3.65625 0.46875,-7.875 0.375,-4.3125 0.46875,-9.1875 0,-11.8125 -2.71875,-18.75 -2.71875,-6.9375 -7.96875,-9.5625 -1.21875,0.9375 -3.46875,1.96875 -2.25,0.9375 -5.15625,0.9375 -2.625,0 -4.78125,-0.5625 -2.0625,-0.65625 -3.09375,-1.6875 -3.84375,3.09375 -5.34375,5.25 -1.40625,2.0625 -1.875,5.8125 z m 4.6875,26.71875 v 12.75 q 4.21875,4.21875 9.84375,6.5625 5.71875,2.25 12.09375,2.25 3.1875,0 4.875,-1.78125 1.6875,-1.875 1.6875,-7.125 l 0.1875,-3.84375 q -3.46875,-0.46875 -10.875,-4.6875 -7.3125,-4.21875 -11.4375,-8.8125 -4.03125,-4.59375 -9.75,-15.46875 l -2.25,-4.125 q -2.8125,2.0625 -3.5625,4.875 -0.65625,2.8125 -0.65625,7.5 0,2.53125 1.40625,7.40625 1.40625,4.78125 1.40625,8.8125 0,3.375 -0.09375,7.59375 -0.09375,4.125 -0.75,7.3125 l -1.125,0.0937 q -0.9375,0 -2.15625,-0.46875 -1.21875,-0.46875 -2.15625,-0.46875 -1.21875,0 -1.21875,3.1875 h 11.625 q 0.1875,-0.84375 0.375,-3.75 0.28125,-3 0.46875,-6.46875 l 0.65625,-11.625 z m 55.687502,-39.1875 h 27.09375 V 84.284608 q -2.90625,2.625 -6.75,5.90625 -3.75,3.1875 -5.4375,4.6875 l -1.875,-0.09375 -6.46875,-5.34375 -6.5625,-5.25 z M 66.548828,86.065858 q -1.3125,0 -2.625,0.1875 l -2.625,0.46875 q 2.90625,0.75 5.4375,2.15625 2.53125,1.40625 2.53125,2.71875 0,1.875 -3.375,4.875 -3.28125,2.90625 -3.28125,4.500002 0,1.125 1.875,2.25 1.96875,1.03125 5.34375,1.03125 4.40625,0 7.3125,-2.25 3,-2.250002 3,-7.781252 0,-4.03125 -3.46875,-6.09375 -3.375,-2.0625 -10.125,-2.0625 z m -8.8125,1.40625 q -0.46875,3.09375 -3.5625,3.46875 -3,0.28125 -5.25,0.28125 h -1.96875 q 0.375,1.40625 0.75,2.53125 l 0.5625,1.96875 q 0.46875,1.5 1.125,1.78125 0.65625,0.28125 4.125,0.46875 l 3.5625,0.28125 q 1.59375,0.1875 2.34375,0.46875 0.84375,0.1875 1.78125,1.125 0.65625,-1.5 3.46875,-4.40625 2.90625,-2.90625 2.90625,-3.84375 0,-0.75 -3.46875,-2.15625 -3.46875,-1.5 -5.8125,-2.15625 l -0.375,0.1875 z m 1.125,72.656252 q -0.1875,1.78125 -0.46875,3.375 h 12.84375 q -3.9375,-1.21875 -7.03125,-3.09375 -3,-1.875 -4.96875,-3.65625 z m 3.46875,-69.750002 q 0.65625,0 1.03125,0.46875 0.46875,0.46875 0.46875,1.03125 0,0.5625 -0.46875,1.03125 -0.375,0.375 -1.03125,0.375 -0.65625,0 -1.03125,-0.375 -0.375,-0.46875 -0.375,-1.03125 0,-0.5625 0.375,-1.03125 0.375,-0.46875 1.03125,-0.46875 z"
         id="path33762"
         inkscape:connector-curvature="0" />
    </g>
  </g>
</svg>
