<?xml version="1.0" encoding="UTF-8" standalone="no"?>
<!-- Created with Inkscape (http://www.inkscape.org/) -->

<svg
   xmlns:dc="http://purl.org/dc/elements/1.1/"
   xmlns:cc="http://creativecommons.org/ns#"
   xmlns:rdf="http://www.w3.org/1999/02/22-rdf-syntax-ns#"
   xmlns:svg="http://www.w3.org/2000/svg"
   xmlns="http://www.w3.org/2000/svg"
   xmlns:sodipodi="http://sodipodi.sourceforge.net/DTD/sodipodi-0.dtd"
   xmlns:inkscape="http://www.inkscape.org/namespaces/inkscape"
   width="37.281445mm"
   height="29.889648mm"
   viewBox="0 0 37.281445 29.889648"
   version="1.1"
   id="svg33771"
   inkscape:version="0.92.4 (5da689c313, 2019-01-14)"
   sodipodi:docname="E38.svg">
  <defs
     id="defs33765" />
  <sodipodi:namedview
     id="base"
     pagecolor="#ffffff"
     bordercolor="#666666"
     borderopacity="1.0"
     inkscape:pageopacity="0.0"
     inkscape:pageshadow="2"
     inkscape:zoom="0.35"
     inkscape:cx="-311.83008"
     inkscape:cy="-334.76052"
     inkscape:document-units="mm"
     inkscape:current-layer="layer1"
     showgrid="false"
     fit-margin-top="0"
     fit-margin-left="0"
     fit-margin-right="0"
     fit-margin-bottom="0"
     inkscape:window-width="1920"
     inkscape:window-height="1017"
     inkscape:window-x="-8"
     inkscape:window-y="-8"
     inkscape:window-maximized="1" />
  <metadata
     id="metadata33768">
    <rdf:RDF>
      <cc:Work
         rdf:about="">
        <dc:format>image/svg+xml</dc:format>
        <dc:type
           rdf:resource="http://purl.org/dc/dcmitype/StillImage" />
        <dc:title></dc:title>
      </cc:Work>
    </rdf:RDF>
  </metadata>
  <g
     inkscape:label="Layer 1"
     inkscape:groupmode="layer"
     id="layer1"
     transform="translate(4.8074585,-30.371632)">
    <g
       aria-label="𓃽"
       transform="scale(0.26458333)"
       style="font-style:normal;font-variant:normal;font-weight:normal;font-stretch:normal;font-size:192px;line-height:1.25;font-family:sans-serif;-inkscape-font-specification:sans-serif;font-variant-ligatures:normal;font-variant-caps:normal;font-variant-numeric:normal;font-feature-settings:normal;text-align:start;letter-spacing:0px;word-spacing:0px;writing-mode:lr-tb;text-anchor:start;fill:#000000;fill-opacity:1;stroke:none"
       id="flowRoot34316">
      <path
         d="m 28.986328,115.35297 q -3,1.875 -4.6875,3.46875 -1.59375,1.5 -2.53125,3 -0.9375,1.40625 -1.5,2.90625 -0.46875,1.5 -1.21875,3.375 -1.5,3.65625 -2.625,5.71875 -1.125,2.0625 -2.90625,3.375 2.625,1.03125 5.90625,2.71875 3.375,1.6875 5.90625,3.28125 2.53125,1.59375 5.90625,3.09375 3.375,1.5 7.6875,3 4.3125,1.5 8.53125,2.25 4.21875,0.75 9,0.75 3.1875,0 6.28125,-0.28125 3.1875,-0.28125 6.75,-0.84375 3.5625,-0.65625 7.21875,-0.9375 3.75,-0.28125 7.5,-0.28125 2.25,0 4.5,0.0937 2.25,0 4.59375,0.1875 2.4375,0.0937 5.0625,0.28125 2.718752,0.1875 5.906252,0.5625 12.5625,1.40625 16.78125,17.15625 0.375,1.125 0.65625,3.09375 0.375,1.96875 0.5625,4.03125 0.1875,1.96875 0.28125,3.65625 0.1875,1.6875 0.1875,2.25 0,8.15625 -0.84375,12.84375 -0.75,4.59375 -1.21875,5.8125 -0.46875,1.3125 -1.03125,1.6875 -0.5625,0.375 -0.84375,0.375 -0.28125,0 -0.75,-0.375 -0.46875,-0.46875 -0.46875,-3 0,-1.03125 0.1875,-3.09375 0.28125,-2.0625 0.75,-5.15625 0.375,-2.4375 0.46875,-4.6875 0.0937,-2.25 0.0937,-4.3125 v -2.34375 q 0,-2.53125 -0.1875,-5.0625 -0.0937,-2.625 -0.65625,-5.0625 -0.46875,-2.4375 -1.40625,-4.59375 -0.84375,-2.25 -2.34375,-4.03125 -0.65625,2.8125 -1.5,6.75 -0.75,3.9375 -1.40625,7.875 -0.65625,3.9375 -1.125,7.3125 -0.46875,3.28125 -0.46875,4.875 0,4.875 1.78125,9 1.78125,4.21875 2.625,4.5 0.46875,0.46875 0.65625,2.53125 0.1875,1.96875 0.1875,6.28125 0,3.46875 1.03125,7.3125 l -0.5625,1.6875 q -0.1875,0.1875 -0.46875,0.375 l -0.5625,0.375 q -0.375,0.75 -0.375,1.875 l 0.46875,3.75 0.0937,1.5 -1.59375,1.5 h -9.75 l -1.21875,-2.25 4.40625,-5.8125 v -15.75 l -3.84375,-5.0625 h -2.906252 q -1.21875,2.8125 -2.25,6 -0.9375,3.1875 -1.6875,6.75 -0.75,3.5625 -1.125,5.53125 -0.375,1.875 -0.46875,2.0625 -0.09375,0.375 -1.875,1.59375 -1.875,1.3125 -4.21875,5.90625 l -1.5,1.03125 h -7.59375 l -0.9375,-2.625 q 4.21875,-4.5 6.65625,-10.3125 2.53125,-5.90625 4.03125,-12.65625 l 2.25,-10.03125 q -2.71875,-1.40625 -5.71875,-1.40625 -4.6875,0 -10.03125,1.59375 -5.0625,1.5 -7.96875,1.96875 -0.1875,-0.0937 -0.5625,-0.1875 -0.375,-0.0937 -0.84375,-0.1875 -1.3125,-1.40625 -2.71875,-2.71875 -2.71875,-0.46875 -5.34375,-0.65625 -2.625,-0.1875 -5.25,-0.28125 -5.0625,0 -9.9375,0.84375 0.46875,5.90625 2.0625,11.4375 1.6875,5.4375 3.84375,11.0625 -0.09375,0.46875 -0.1875,0.84375 0,0.375 0,0.5625 -1.875,1.875 -2.71875,5.625 -0.28125,1.21875 -0.65625,2.34375 -0.28125,1.03125 -0.46875,1.875 l -0.46875,1.875 -1.5,1.03125 h -7.59375 l -1.21875,-2.25 q 0.375,-0.84375 1.125,-1.96875 0.75,-1.125 1.5,-2.53125 0.75,-1.5 1.3125,-3.28125 0.65625,-1.875 0.65625,-4.03125 0,-4.40625 -2.4375,-11.15625 l -1.6875,-4.5 q -0.9375,-2.25 -1.5,-4.96875 -4.3125,5.34375 -6.5625,11.53125 -2.15625,6.1875 -3.46875,13.03125 l -1.03125,1.03125 q -2.71875,1.03125 -3.75,2.90625 -0.9375,1.875 -1.125,4.6875 l -1.59375,1.5 H 6.2050781 l -0.9375,-2.625 q 4.03125,-4.78125 6.9374999,-9.84375 3,-5.15625 5.0625,-10.78125 4.125,-11.25 4.125,-15.75 0,-5.4375 -3.84375,-10.96875 -1.875,-2.71875 -3.1875,-4.78125 -1.21875,-2.15625 -1.6875,-3.65625 -2.34375,-2.0625 -4.1249999,-2.8125 -1.78125,-0.84375 -3.84375,-0.84375 -2.25,0 -7.125,1.40625 -4.96875,1.40625 -6.1875,1.40625 -1.21875,0 -2.3437501,-0.84375 l -5.0625,-4.125 q 0,-0.28125 -0.46875,-1.40625 0,-4.40625 3.5625,-7.125 1.875,-1.3125 3.5625001,-3.28125 1.6875,-1.96875 3.28125,-4.40625 1.59375,-2.4375 3.5625,-4.78125 2.06250002,-2.34375 4.03125,-3.65625 -2.625,-0.75 -4.59375,-2.53125 -1.875,-1.875 -3,-4.3125 l -2.25,-4.96875 q -1.3125,-2.53125 -3.8437501,-5.15625 -2.4375,-2.625 -6,-3.65625 l 0.09375,-0.65625 q 5.0625,0.375 7.875,2.90625 2.8125001,2.53125 4.4062501,6.5625 1.59375,4.03125 4.87500002,6.09375 3.28124998,1.96875 7.59374998,1.96875 7.0312499,0 9.0937499,-6.28125 2.0625,-6.375 5.0625,-9.46875 3.09375,-3.1875 7.96875,-4.59375 z m 62.71875,102.46875 q 1.03125,-5.15625 2.25,-10.21875 1.3125,-5.0625 3.28125,-9.9375 -0.9375,-0.84375 -1.6875,-1.78125 -0.75,-0.9375 -1.6875,-1.875 l -1.78125,8.15625 q -1.5,6.75 -3.84375,12.375 -2.25,5.625 -5.71875,10.21875 h 3.46875 q 1.03125,-2.15625 2.34375,-3.84375 1.40625,-1.78125 3.375,-3.09375 z m 21.468752,-1.21875 q -0.46875,-1.40625 -0.9375,-5.34375 -0.375,-4.03125 -0.375,-8.8125 -2.625,-3.9375 -3.65625,-7.6875 -1.03125,-3.84375 -1.03125,-8.0625 0,-2.34375 0.375,-5.25 0.375,-3 0.84375,-5.71875 l 2.8125,-15 q 0.0937,-0.375 0.0937,-1.03125 0,-1.5 -1.03125,-2.15625 l 1.03125,-1.40625 q -3.9375,-2.15625 -11.343752,-2.625 -7.3125,-0.46875 -17.0625,-0.46875 -6.46875,0 -13.78125,1.125 -7.21875,1.125 -11.625,1.125 -3.9375,0 -7.59375,-0.5625 -3.5625,-0.5625 -7.78125,-1.5 -4.21875,-0.9375 -8.0625,-2.4375 -3.75,-1.5 -7.3125,-3.5625 -6.9375,-4.03125 -10.3125,-5.34375 -1.59375,-0.65625 -3,-1.21875 -1.40625,-0.5625 -2.53125,-1.03125 -1.4062499,0.1875 -2.8124999,0.5625 -1.40625,0.28125 -2.34375,0.5625 -4.87499997,0.9375 -9.1875,7.6875 -4.21875,6.84375 -7.1250001,8.71875 -2.90625,1.78125 -2.90625,4.5 l 4.8750001,3.84375 q 0.9375,-0.1875 2.25,-0.5625 1.40625,-0.375 3.28125,-0.9375 3.75000002,-1.125 7.03125,-1.40625 3.84375,0 6.9374999,1.6875 3.09375,1.59375 4.78125,4.59375 l 6.46875,11.15625 q 1.3125,2.15625 1.875,4.6875 0.5625,2.4375 0.5625,4.5 0,3.75 -4.21875,15.65625 -4.125,11.71875 -10.8749999,19.875 h 4.5937499 q 0.46875,-6.28125 6.09375,-8.625 1.3125,-7.59375 4.03125,-14.34375 2.71875,-6.84375 7.875,-12.46875 -0.46875,-3.1875 -0.84375,-6.46875 -0.28125,-3.28125 -0.28125,-6.5625 0,-5.34375 1.78125,-9.28125 1.875,-4.03125 4.5,-7.21875 l 2.25,2.0625 q -5.53125,6.375 -5.53125,15.28125 0,11.0625 3.84375,21.46875 3.84375,10.40625 3.84375,15.09375 0,1.96875 -0.46875,3.65625 -0.46875,1.59375 -1.125,3 -0.5625,1.3125 -1.3125,2.4375 -0.65625,1.125 -1.03125,1.96875 h 3.9375 l 0.84375,-2.8125 q 0.09375,-0.46875 0.28125,-1.3125 0.28125,-0.9375 0.65625,-2.25 0.75,-2.8125 2.25,-4.59375 -2.15625,-5.90625 -3.9375,-11.625 -1.6875,-5.8125 -1.96875,-12.09375 l 1.40625,-1.78125 q 1.875,-0.28125 3.84375,-0.5625 1.96875,-0.28125 3.75,-0.375 1.875,-0.1875 3.375,-0.28125 1.59375,-0.0937 2.71875,-0.0937 3.75,0 7.3125,0.75 3.375,0.75 3.9375,1.6875 0.5625,0.84375 1.5,1.78125 3.65625,-0.65625 8.53125,-1.96875 4.875,-1.40625 8.4375,-1.40625 4.6875,0 8.34375,1.875 3.65625,1.78125 6.9375,6.1875 h 0.562502 q -4.781252,-5.90625 -9.281252,-12.5625 -4.40625,-6.65625 -8.625,-15.5625 l 2.71875,-1.21875 q 1.59375,3.09375 2.71875,5.34375 1.21875,2.15625 2.15625,3.84375 0.9375,1.6875 1.6875,3.09375 0.84375,1.3125 1.78125,2.71875 1.875,2.90625 3.75,5.625 1.96875,2.625 4.031252,5.0625 2.0625,2.53125 3.46875,4.3125 1.40625,1.6875 2.34375,2.90625 0.9375,1.21875 1.5,2.0625 0.5625,0.75 1.03125,1.40625 v 17.25 l -3.09375,4.59375 h 5.15625 q -0.1875,-2.0625 -0.1875,-2.8125 0,-0.75 0,-1.59375 0,-2.15625 1.59375,-3.75 z M 1.6113281,150.13422 q 0.5625,0 1.6875,1.6875 -1.125,1.6875 -1.6875,1.6875 -0.5625,0 -0.5625,-1.6875 0,-1.6875 0.5625,-1.6875 z"
         id="path34324"
         inkscape:connector-curvature="0" />
    </g>
  </g>
</svg>
