<?xml version="1.0" encoding="UTF-8" standalone="no"?>
<!-- Created with Inkscape (http://www.inkscape.org/) -->

<svg
   xmlns:dc="http://purl.org/dc/elements/1.1/"
   xmlns:cc="http://creativecommons.org/ns#"
   xmlns:rdf="http://www.w3.org/1999/02/22-rdf-syntax-ns#"
   xmlns:svg="http://www.w3.org/2000/svg"
   xmlns="http://www.w3.org/2000/svg"
   xmlns:sodipodi="http://sodipodi.sourceforge.net/DTD/sodipodi-0.dtd"
   xmlns:inkscape="http://www.inkscape.org/namespaces/inkscape"
   width="38.075195mm"
   height="36.810154mm"
   viewBox="0 0 38.075195 36.810154"
   version="1.1"
   id="svg4218"
   inkscape:version="0.92.4 (5da689c313, 2019-01-14)"
   sodipodi:docname="E4.svg">
  <defs
     id="defs4212" />
  <sodipodi:namedview
     id="base"
     pagecolor="#ffffff"
     bordercolor="#666666"
     borderopacity="1.0"
     inkscape:pageopacity="0.0"
     inkscape:pageshadow="2"
     inkscape:zoom="0.35"
     inkscape:cx="-360.40234"
     inkscape:cy="-311.90305"
     inkscape:document-units="mm"
     inkscape:current-layer="layer1"
     showgrid="false"
     fit-margin-top="0"
     fit-margin-left="0"
     fit-margin-right="0"
     fit-margin-bottom="0"
     inkscape:window-width="1920"
     inkscape:window-height="1017"
     inkscape:window-x="-8"
     inkscape:window-y="-8"
     inkscape:window-maximized="1" />
  <metadata
     id="metadata4215">
    <rdf:RDF>
      <cc:Work
         rdf:about="">
        <dc:format>image/svg+xml</dc:format>
        <dc:type
           rdf:resource="http://purl.org/dc/dcmitype/StillImage" />
        <dc:title></dc:title>
      </cc:Work>
    </rdf:RDF>
  </metadata>
  <g
     inkscape:label="Layer 1"
     inkscape:groupmode="layer"
     id="layer1"
     transform="translate(-8.0439534,-29.498829)">
    <g
       aria-label="𓃕"
       transform="scale(0.26458333)"
       style="font-style:normal;font-variant:normal;font-weight:normal;font-stretch:normal;font-size:192px;line-height:1.25;font-family:sans-serif;-inkscape-font-specification:'sans-serif, Normal';font-variant-ligatures:normal;font-variant-caps:normal;font-variant-numeric:normal;font-feature-settings:normal;text-align:start;letter-spacing:0px;word-spacing:0px;writing-mode:lr-tb;text-anchor:start;fill:#000000;fill-opacity:1;stroke:none"
       id="flowRoot4766">
      <path
         d="m 174.30859,249.11664 -1.59375,1.5 H 47.183594 l -1.40625,-1.78125 0.1875,-2.90625 q 0.28125,-4.5 2.34375,-6.84375 2.15625,-2.34375 7.5,-2.34375 h 19.875 q -1.96875,-2.0625 -3.9375,-4.96875 -1.96875,-3 -3.84375,-6.09375 -1.78125,-3.1875 -3.375,-6.375 -1.59375,-3.1875 -2.90625,-5.90625 0,0.46875 -0.09375,0.9375 -0.09375,0.375 -0.65625,0.9375 -1.3125,1.40625 -3,2.15625 -1.59375,0.65625 -3,1.03125 -1.6875,0.375 -3.375,0.375 l 4.5,3.09375 -3,3 -3,-4.5 -4.59375,6 -3,-3 6.09375,-4.59375 -4.59375,-3 3,-3 3.09375,4.5 q 0.28125,-2.71875 0.84375,-4.59375 0.5625,-1.875 1.3125,-3 0.75,-1.21875 1.5,-1.6875 0.75,-0.5625 1.3125,-0.5625 1.03125,0 1.6875,0.28125 0.75,0.28125 1.21875,0.5625 0.5625,0.375 0.9375,0.84375 -1.59375,-4.03125 -4.21875,-6.1875 -2.625,-2.25 -6.9375,-2.25 h -3.5625 q -4.96875,0 -7.03125,-2.34375 -1.96875,-2.53125 -1.96875,-5.25 0,-2.8125 2.4375,-6.375 1.3125,-1.78125 2.25,-2.90625 0.9375,-1.125 1.6875,-1.78125 1.40625,-1.21875 2.8125,-4.6875 0.75,-1.6875 2.15625,-3.09375 1.5,-1.5 4.125,-2.53125 -2.71875,-0.375 -4.59375,-1.6875 -1.875,-1.3125 -3.1875,-3.1875 -1.21875,-1.875 -2.0625,-4.3125 -0.75,-2.4375 -1.3125,-5.15625 -1.03125,-5.25 -1.59375,-9.375 -0.46875,-4.125 -1.03125,-8.625 -0.46875,-4.21875 -1.78125,-7.03125 -1.3125,-2.90625 -4.59375,-3.5625 l 0.28125,-1.125 q 3.9375,0 6.1875,3.28125 2.34375,3.28125 3.09375,8.4375 0.46875,3.09375 0.84375,5.71875 0.46875,2.53125 0.84375,4.78125 0.46875,2.25 0.84375,4.3125 0.46875,2.0625 0.9375,4.125 0.28125,0.84375 0.65625,2.34375 0.46875,1.40625 1.21875,2.90625 0.84375,1.40625 2.0625,2.71875 1.3125,1.3125 3.1875,1.96875 -3,-2.625 -4.03125,-5.53125 -1.03125,-2.90625 -1.03125,-5.4375 0,-4.96875 2.625,-8.25 2.71875,-3.375 6.65625,-4.21875 -0.09375,0 -0.28125,-0.28125 -0.1875,-0.375 -0.375,-0.84375 -0.28125,-0.46875 -0.5625,-1.21875 l 1.03125,-2.0625 q 0.46875,-1.03125 1.21875,-2.34375 0.75,-1.3125 1.6875,-3.09375 3.65625,-7.03125 4.21875,-11.4375 -3.375,-3.46875 -3.375,-6.375 0,-2.625 1.6875,-4.125 1.78125,-1.59375 4.5,-1.59375 1.21875,0 2.53125,0.28125 1.3125,0.28125 2.4375,1.03125 1.21875,0.65625 2.0625,1.78125 0.84375,1.125 1.125,2.8125 1.125,-1.125 2.53125,-1.96875 1.5,-0.9375 2.90625,-0.9375 2.71875,0 5.0625,2.0625 2.4375,1.96875 2.4375,4.875 0,2.53125 -1.875,4.40625 -0.84375,0.84375 -1.59375,1.3125 -0.75,0.375 -1.40625,0.5625 -0.65625,0.1875 -1.40625,0.28125 -0.75,0 -1.59375,0.1875 -1.125,1.125 -1.59375,3.46875 -0.5625,2.4375 -0.9375,4.03125 -0.375,1.5 -0.65625,3.46875 l -1.59375,10.21875 -2.0625,1.40625 q 0.9375,1.40625 1.21875,3 0.375,1.5 0.5625,3.09375 0,1.21875 -0.28125,2.53125 -0.1875,1.3125 -0.46875,2.34375 0.65625,-0.9375 1.875,-2.4375 1.21875,-1.59375 4.125,-5.0625 2.4375,-2.625 4.125,-4.59375 1.78125,-2.0625 3.375,-3.46875 1.59375,-1.40625 3.375,-2.0625 1.875,-0.75 4.59375,-0.75 0.46875,0 1.125,0.0937 0.65625,0.0937 1.21875,0.28125 0.65625,0.1875 1.3125,0.28125 l -0.28125,1.59375 q -0.375,0 -0.84375,-0.0937 -0.46875,-0.0937 -1.03125,-0.0937 -0.46875,-0.0937 -1.21875,-0.28125 -2.4375,0 -4.03125,1.21875 -1.59375,1.125 -2.90625,2.90625 l -11.25,14.15625 q -2.4375,3.09375 -4.875,5.15625 -2.34375,2.0625 -4.96875,2.8125 l 4.40625,3.375 q 2.625,-1.59375 5.71875,-2.15625 3.1875,-0.5625 6.1875,-0.5625 l 1.5,1.96875 q -1.03125,2.71875 -2.8125,4.875 -1.6875,2.15625 -3.84375,3.84375 3.5625,3.46875 7.40625,5.90625 3.9375,2.34375 8.8125,4.40625 l 7.312496,3.09375 26.71875,-45.28125 34.40625,38.90625 -0.375,2.15625 -8.625,7.03125 -2.15625,-0.46875 -23.25,-41.0625 -23.8125,39.9375 q 3,0.9375 6.1875,1.78125 3.28125,0.75 6.375,1.40625 3.09375,0.65625 5.8125,1.21875 2.71875,0.5625 4.6875,1.125 4.875,1.3125 8.71875,2.4375 3.84375,1.125 6.84375,1.96875 6,1.6875 14.34375,6.46875 8.15625,4.59375 13.5,12.1875 2.625,3.75 3.5625,7.21875 1.03125,3.375 1.03125,6.65625 z M 76.902344,186.77289 q -1.6875,7.96875 -4.96875,13.59375 -3.28125,5.53125 -8.90625,10.03125 0.46875,0.65625 2.4375,3.9375 1.96875,3.1875 4.21875,7.6875 4.6875,9.09375 10.59375,15.5625 -0.375,0.65625 -0.65625,1.03125 -0.1875,0.375 -0.375,0.5625 -0.1875,0.28125 -0.28125,0.375 h -22.96875 q -2.15625,0 -3.5625,0.5625 -1.3125,0.46875 -2.0625,1.5 -0.75,0.9375 -1.125,2.53125 -0.28125,1.5 -0.375,3.46875 H 171.30859 v -11.8125 q -4.5,-12.375 -16.21875,-19.40625 -11.53125,-7.03125 -37.3125,-12.28125 -6.46875,-1.3125 -12.375,-3.1875 -5.906246,-1.875 -11.156246,-4.125 -5.15625,-2.25 -9.5625,-4.78125 -4.40625,-2.53125 -7.78125,-5.25 z m -31.21875,-5.25 q -0.46875,1.03125 -3.5625,4.40625 -3.09375,3.375 -3.9375,6.5625 v 0.28125 q 0,0.375 0.09375,0.84375 0.09375,0.46875 0.09375,1.03125 0.46875,2.0625 2.25,2.71875 1.78125,0.5625 3.9375,0.5625 1.6875,0 2.90625,-0.0937 1.3125,-0.0937 1.96875,-0.0937 2.8125,0 6.65625,2.53125 3.65625,2.4375 5.53125,7.125 2.4375,-1.125 4.59375,-3.9375 2.25,-2.90625 3.9375,-6.28125 1.6875,-3.46875 2.8125,-6.84375 1.125,-3.46875 1.40625,-5.71875 -0.84375,0.75 -2.53125,1.875 -1.59375,1.125 -2.53125,1.875 -0.28125,0 -0.375,-0.375 l -1.5,-1.96875 3.1875,-2.34375 q 0.9375,-0.65625 2.25,-1.59375 1.3125,-1.03125 2.625,-2.0625 1.3125,-1.125 2.4375,-2.34375 1.125,-1.21875 1.78125,-2.53125 -6.375,0.46875 -9.09375,3 -1.3125,1.3125 -2.71875,2.625 -1.40625,1.3125 -2.71875,2.71875 l -0.5625,-0.5625 q -0.5625,-0.375 -1.6875,-1.5 l 4.78125,-4.6875 q -1.3125,-0.84375 -2.34375,-1.78125 -0.84375,-1.03125 -1.40625,-1.5 -0.5625,-0.5625 -1.03125,-0.84375 -0.46875,-0.375 -0.75,-0.46875 -0.65625,0.0937 -1.3125,0.1875 -0.5625,0.0937 -1.3125,0.1875 -0.65625,0 -1.3125,0 -0.46875,0 -0.9375,0 -0.375,0 -0.84375,-0.0937 -0.46875,0 -0.9375,-0.0937 l -2.4375,1.3125 q -1.03125,0.5625 -1.875,1.125 -0.84375,0.46875 -1.21875,0.65625 -1.40625,0.65625 -2.53125,2.4375 z m 24,-24.375 q -0.1875,-2.15625 -1.03125,-4.03125 -0.75,-1.96875 -2.53125,-3.375 -1.78125,-1.40625 -3.375,-1.875 -1.59375,-0.5625 -3.375,-0.5625 -1.875,0 -3.75,0.5625 -1.875,0.46875 -3.375,1.6875 -1.5,1.21875 -2.53125,3.375 -0.9375,2.0625 -0.9375,5.15625 v 1.03125 q 0.1875,3.9375 2.8125,6.375 2.625,2.4375 6.84375,2.4375 5.25,0 8.25,-2.53125 3,-2.625 3,-8.25 z m 64.218746,6.28125 18.09375,31.96875 6.09375,-4.875 z m -69.468746,-18.1875 5.8125,2.0625 q 1.6875,-13.125 3.28125,-17.53125 1.5,-4.125 4.125,-4.59375 2.625,-0.46875 3.65625,-1.21875 1.125,-0.84375 1.125,-2.625 0,-2.15625 -1.40625,-2.90625 -1.40625,-0.75 -2.53125,-0.75 -1.78125,0 -3.375,1.59375 -1.5,1.5 -2.25,3.28125 z m 5.53125,-23.4375 v -2.71875 q 0,-2.625 -1.78125,-3.5625 -1.6875,-0.9375 -3.375,-0.9375 -1.3125,0 -2.4375,0.46875 -1.03125,0.46875 -1.03125,2.0625 0,1.40625 0.46875,2.25 0.46875,0.84375 1.125,1.40625 1.78125,1.5 1.78125,2.625 -0.1875,3 -1.6875,6.65625 -1.5,3.65625 -3.84375,8.15625 l -2.25,4.21875 4.6875,1.78125 z m -11.90625,88.6875 q -0.65625,-0.5625 -1.03125,-0.65625 -0.375,-0.1875 -0.84375,-0.1875 -0.65625,0 -1.3125,0.75 -0.5625,0.65625 -1.125,1.78125 -0.5625,1.03125 -1.03125,2.34375 -0.46875,1.3125 -0.84375,2.53125 1.40625,-0.0937 2.625,-0.5625 1.3125,-0.46875 2.25,-1.125 1.03125,-0.65625 1.59375,-1.5 0.65625,-0.84375 0.65625,-1.59375 0,-0.84375 -0.9375,-1.78125 z m -6.1875,-29.4375 q -2.15625,1.59375 -3.1875,1.59375 -0.9375,0 -0.9375,-1.40625 0,-0.9375 0.28125,-1.6875 0.375,-0.84375 0.9375,-0.84375 1.125,0 2.90625,2.34375 z"
         id="path4774"
         inkscape:connector-curvature="0" />
    </g>
  </g>
</svg>
