<?xml version="1.0" encoding="UTF-8" standalone="no"?>
<!-- Created with Inkscape (http://www.inkscape.org/) -->

<svg
   xmlns:dc="http://purl.org/dc/elements/1.1/"
   xmlns:cc="http://creativecommons.org/ns#"
   xmlns:rdf="http://www.w3.org/1999/02/22-rdf-syntax-ns#"
   xmlns:svg="http://www.w3.org/2000/svg"
   xmlns="http://www.w3.org/2000/svg"
   xmlns:sodipodi="http://sodipodi.sourceforge.net/DTD/sodipodi-0.dtd"
   xmlns:inkscape="http://www.inkscape.org/namespaces/inkscape"
   width="37.579102mm"
   height="27.632421mm"
   viewBox="0 0 37.579102 27.632421"
   version="1.1"
   id="svg4783"
   inkscape:version="0.92.4 (5da689c313, 2019-01-14)"
   sodipodi:docname="E5.svg">
  <defs
     id="defs4777" />
  <sodipodi:namedview
     id="base"
     pagecolor="#ffffff"
     bordercolor="#666666"
     borderopacity="1.0"
     inkscape:pageopacity="0.0"
     inkscape:pageshadow="2"
     inkscape:zoom="0.35"
     inkscape:cx="-328.97266"
     inkscape:cy="-363.33274"
     inkscape:document-units="mm"
     inkscape:current-layer="layer1"
     showgrid="false"
     fit-margin-top="0"
     fit-margin-left="0"
     fit-margin-right="0"
     fit-margin-bottom="0"
     inkscape:window-width="1920"
     inkscape:window-height="1017"
     inkscape:window-x="-8"
     inkscape:window-y="-8"
     inkscape:window-maximized="1" />
  <metadata
     id="metadata4780">
    <rdf:RDF>
      <cc:Work
         rdf:about="">
        <dc:format>image/svg+xml</dc:format>
        <dc:type
           rdf:resource="http://purl.org/dc/dcmitype/StillImage" />
        <dc:title></dc:title>
      </cc:Work>
    </rdf:RDF>
  </metadata>
  <g
     inkscape:label="Layer 1"
     inkscape:groupmode="layer"
     id="layer1"
     transform="translate(0.27181802,-25.069126)">
    <g
       aria-label="𓃖"
       transform="scale(0.26458333)"
       style="font-style:normal;font-variant:normal;font-weight:normal;font-stretch:normal;font-size:192px;line-height:1.25;font-family:sans-serif;-inkscape-font-specification:'sans-serif, Normal';font-variant-ligatures:normal;font-variant-caps:normal;font-variant-numeric:normal;font-feature-settings:normal;text-align:start;letter-spacing:0px;word-spacing:0px;writing-mode:lr-tb;text-anchor:start;fill:#000000;fill-opacity:1;stroke:none"
       id="flowRoot5331">
      <path
         d="m 133.22266,176.68695 -1.03125,14.90625 q -0.1875,1.03125 -0.9375,1.875 -0.65625,0.84375 -0.65625,1.3125 0,0.46875 0.1875,0.84375 0.1875,0.28125 0.375,0.5625 0.28125,0.375 0.5625,0.5625 l -1.3125,2.4375 h -9.09375 l -1.40625,-1.78125 q 0,-1.40625 0.46875,-2.34375 0.46875,-1.03125 1.5,-1.875 1.03125,-0.84375 1.6875,-1.40625 0.65625,-0.5625 1.03125,-0.9375 0.5625,-1.59375 1.03125,-4.03125 0.5625,-2.4375 0.5625,-4.5 0,-4.96875 -3,-9.46875 -3,-4.59375 -7.5,-7.875 -2.34375,3.09375 -4.3125,7.125 -1.875,3.9375 -3.375,9 -3,9.84375 -3.375,10.96875 l -1.03125,1.03125 q -1.78125,0.1875 -2.53125,1.59375 -0.65625,1.40625 -0.84375,3 l -1.593754,1.5 h -7.59375 l -1.40625,-1.78125 q 0,-0.1875 0,-0.375 0.09375,-0.1875 0.28125,-0.84375 0.75,-1.96875 2.53125,-3.28125 1.78125,-1.3125 3.65625,-2.34375 2.15625,-4.3125 3.65625,-7.96875 1.500004,-3.75 2.343754,-6.9375 1.6875,-6.28125 1.6875,-13.3125 0,-1.78125 -0.0937,-3.5625 -0.0937,-1.875 -0.28125,-3.84375 l -7.593754,-2.53125 q -5.0625,1.6875 -6.1875,4.78125 -0.5625,1.59375 -1.125,3.1875 -0.5625,1.59375 -1.21875,2.71875 l 4.3125,3.375 q 2.90625,2.34375 4.03125,4.78125 1.125,2.4375 1.125,6.75 0.65625,0.9375 1.3125,1.5 0.65625,0.46875 0.65625,1.59375 -0.28125,0.1875 -0.46875,0.28125 -0.1875,0 -0.375,0.0937 -0.1875,0.0937 -0.28125,0.0937 l -3,-1.59375 -0.65625,-1.6875 q -0.09375,-0.75 -0.1875,-1.5 -0.09375,-0.65625 -0.1875,-1.21875 -0.09375,-0.5625 -0.09375,-0.9375 -0.28125,-1.78125 -0.9375,-2.8125 -0.65625,-1.125 -1.59375,-1.96875 -0.84375,-0.84375 -2.15625,-1.6875 -1.21875,-0.84375 -2.8125,-2.0625 -0.09375,0.1875 -0.375,0.5625 -0.28125,0.375 -0.65625,0.84375 -0.28125,0.46875 -0.5625,0.9375 -0.1875,0.375 -0.28125,0.5625 3.1875,1.6875 4.96875,3.9375 1.78125,2.15625 2.8125,6.28125 l 1.40625,5.625 q 0.9375,0.75 1.40625,1.40625 0.46875,0.65625 0.46875,1.875 l -0.84375,0.5625 -3.28125,-1.59375 q -0.9375,-4.5 -2.0625,-7.78125 -1.125,-3.28125 -2.15625,-4.5 -1.03125,-1.21875 -2.25,-2.0625 -1.21875,-0.9375 -2.71875,-1.6875 -1.59375,1.125 -3.84375,2.34375 -2.15625,1.21875 -4.59375,2.25 -2.34375,1.03125 -4.78125,1.875 -2.34375,0.84375 -4.3125,1.40625 1.78125,3.09375 3,6.46875 1.21875,3.28125 2.0625,6.65625 1.78125,0.65625 1.78125,2.625 l -4.21875,-0.28125 q 0,-1.5 -0.65625,-3.5625 -0.65625,-2.15625 -1.59375,-4.3125 -0.84375,-2.25 -1.96875,-4.21875 -1.03125,-1.96875 -1.96875,-3.09375 l -3.5625,-1.6875 q -1.125,2.15625 -2.0625,5.53125 -0.84375,3.375 -0.9375,6.28125 0,1.40625 0.375,2.4375 1.03125,0.1875 1.5,1.125 0.46875,0.84375 0.46875,1.78125 l -4.6875,0.28125 q -0.65625,-2.71875 -0.65625,-6 0,-1.5 0.09375,-2.71875 0.09375,-1.21875 0.375,-2.71875 0.1875,-1.21875 0.375,-2.4375 0.1875,-1.03125 0.28125,-2.25 0.09375,-1.3125 0.09375,-2.53125 0,-0.84375 -0.09375,-1.59375 -0.09375,-0.75 -0.28125,-1.21875 -0.46875,1.3125 -0.84375,2.8125 -0.375,1.3125 -0.65625,3.09375 -0.28125,1.6875 -0.28125,3.65625 l -2.34375,-0.5625 q 0,-3.84375 0.9375,-7.3125 1.03125,-3.5625 2.4375,-6.46875 h -0.46875 q -3.28125,0 -8.0625,-2.53125 -2.34375,-1.21875 -3.65625,-1.875 -1.21875,-0.65625 -1.40625,-0.75 -0.75,3 -1.21875,5.90625 -0.375,2.90625 -0.65625,5.90625 0,3.9375 0.1875,7.59375 0.28125,3.65625 0.65625,7.59375 l 0.09375,1.03125 -0.9375,1.40625 q -0.1875,0.28125 -1.125,1.3125 -0.9375,0.9375 -0.9375,3.375 l -1.59375,1.5 h -7.59375 l -1.40625,-1.78125 q 0,-1.40625 0.84375,-2.90625 0.84375,-1.5 2.15625,-2.15625 l 1.5,-1.40625 q 0,-8.4375 -0.1875,-16.6875 -0.1875,-8.25 -1.21875,-16.5 -0.65625,-0.46875 -1.40625,-0.84375 -0.75,-0.46875 -1.5,-0.9375 -2.15625,2.90625 -3.84375,8.15625 -1.59375,5.25 -3.375,12.84375 -1.125,4.96875 -2.34375,9.28125 -1.125,4.3125 -1.59375,6.5625 l -2.6249997,1.78125 v 3.09375 l -1.5937501,1.5 H 0.37890625 L -1.0273437,197.4057 q 0,-3.28125 2.1562499,-4.875 2.2500001,-1.6875 4.03125,-6.5625 1.03125,-2.625 2.15625,-6 1.2187501,-3.375 2.7187498,-7.6875 3,-8.71875 3,-16.78125 0,-1.3125 -0.09375,-2.625 -0.09375,-1.40625 -0.28125,-2.71875 -8.1562498,-5.25 -10.7812498,-11.15625 -2.71874995,-6 -2.71874995,-12.46875 0,-9.84375 5.15624995,-17.625 5.1562501,-7.875 12.0937498,-10.968748 6.75,-3.1875 12.28125,-3.1875 1.5,0 3.1875,0.46875 1.78125,0.46875 3.9375,0.75 l 38.25,4.406248 q 1.59375,0.1875 3.1875,0.375 1.6875,0.1875 3.28125,0.1875 1.5,0 3.9375,-0.1875 2.53125,-0.28125 5.53125,-0.5625 3,-0.374998 6.28125,-0.749998 3.28125,-0.375 6.281254,-0.65625 3.09375,-0.375 5.625,-0.5625 2.53125,-0.28125 4.03125,-0.28125 3.46875,0 7.21875,1.03125 3.75,1.03125 7.125,2.999998 3.375,1.875 6.1875,4.6875 2.90625,2.71875 4.6875,6.28125 1.59375,3.28125 2.53125,7.5 1.03125,4.125 1.03125,9.28125 0,4.6875 -0.28125,9.28125 -0.1875,4.5 -0.46875,8.0625 -0.375,4.21875 -0.75,8.0625 0.28125,1.59375 0.46875,3.65625 0.1875,1.96875 0.28125,4.125 0.1875,2.0625 0.28125,4.21875 0.0937,2.0625 0.0937,3.84375 0,5.625 -1.03125,7.875 -0.9375,2.25 -3,2.25 -1.03125,0 -1.5,-0.75 -0.46875,-0.84375 -0.46875,-1.96875 0,-1.21875 0.0937,-3.1875 0.1875,-1.96875 0.46875,-3.46875 0.1875,-1.03125 0.375,-2.90625 0.28125,-1.96875 0.46875,-4.21875 0.1875,-2.25 0.28125,-4.59375 0.1875,-2.4375 0.1875,-4.59375 0.375,-4.875 0.75,-9.75 0.28125,-4.21875 0.46875,-9 0.28125,-4.78125 0.28125,-8.8125 0,-5.15625 -1.59375,-9.375 -1.59375,-4.21875 -3.09375,-6.5625 0.1875,1.03125 0.375,2.0625 0.1875,0.9375 0.28125,2.0625 0.0937,1.125 0.0937,2.4375 0,3.84375 -1.125,9 -1.125,5.15625 -3.9375,10.21875 -2.71875,4.875 -4.59375,15.9375 z m -98.250004,-60.1875 q -0.28125,2.25 -0.5625,4.21875 -0.1875,1.6875 -0.375,3.375 -0.1875,1.6875 -0.1875,2.53125 0.375,0.1875 0.84375,0.65625 0.5625,0.46875 0.9375,0.75 1.5,-2.90625 2.71875,-6.46875 1.3125,-3.5625 1.3125,-6.84375 0,-4.5 -2.4375,-6.9375 v -2.15625 q 2.625,1.6875 4.03125,4.6875 1.40625,2.90625 1.40625,5.90625 0,3.9375 -0.84375,7.3125 -0.84375,3.28125 -2.15625,6.84375 l 2.625,2.71875 q 2.34375,1.3125 4.3125,3.84375 l 1.6875,2.15625 q 1.3125,-1.59375 3.28125,-3 1.96875,-1.5 4.125,-2.71875 1.03125,-0.5625 3.28125,-1.3125 2.34375,-0.84375 4.21875,-0.84375 2.71875,0 4.6875,0.65625 1.96875,0.5625 3,1.125 -0.1875,0.1875 -0.5625,0.28125 -0.28125,0.0937 -0.46875,0.28125 l -2.4375,-0.46875 q -2.25,0 -4.5,0.84375 -4.3125,1.59375 -7.125,3.5625 -2.8125,1.96875 -5.25,4.40625 0.09375,0 0.375,0.9375 0.375,0.84375 0.75,1.96875 0.46875,1.125 0.75,2.15625 0.375,0.9375 0.46875,1.03125 5.90625,1.03125 11.8125,1.21875 5.90625,0.0937 12,0.0937 h 1.6875 l -0.84375,-2.0625 v -0.65625 l 2.0625,-1.6875 2.71875,0.65625 q 1.21875,-1.03125 2.71875,-1.5 1.59375,-0.5625 3.1875,-0.5625 3.1875,0 6.1875,1.59375 3.09375,1.59375 3.09375,4.78125 l 9.843754,3.46875 1.3125,-0.28125 -11.250004,-21.1875 2.718754,-1.21875 11.8125,22.125 0.9375,2.90625 q 2.0625,5.15625 5.15625,7.5 3.1875,2.4375 6.9375,7.3125 3.9375,5.0625 4.03125,9 v 2.71875 l -0.28125,2.71875 q -0.46875,4.6875 -1.59375,6.75 -1.03125,1.96875 -2.8125,3.28125 -0.28125,0.375 -0.5625,0.65625 -0.28125,0.28125 -0.46875,0.5625 h 4.5 q -0.28125,-0.84375 -0.28125,-1.59375 0,-1.78125 1.59375,-3.65625 l 1.40625,-14.25 -7.96875,-18.75 q -0.28125,-0.84375 -0.5625,-1.59375 -0.1875,-0.65625 -0.375,-1.21875 -0.1875,-0.65625 -0.1875,-1.125 0.375,-4.875 1.59375,-9.375 1.3125,-4.59375 3.46875,-8.8125 1.40625,-2.71875 2.15625,-4.96875 0.84375,-2.25 1.3125,-4.3125 0.46875,-2.15625 0.65625,-4.3125 0.28125,-2.25 0.46875,-4.96875 0,-1.78125 -0.5625,-3.9375 -0.5625,-2.25 -2.0625,-4.40625 -1.40625,-2.25 -4.03125,-4.125 -2.625,-1.875 -6.75,-3 -1.96875,-0.46875 -3.9375,-0.5625 -1.96875,-0.1875 -3.84375,-0.1875 -0.9375,0 -3.46875,0.28125 -2.4375,0.1875 -5.625,0.46875 -3.187504,0.28125 -6.750004,0.75 -3.46875,0.375 -6.46875,0.65625 -2.90625,0.28125 -4.875,0.5625 -1.96875,0.1875 -2.15625,0.1875 -1.6875,-0.1875 -3.5625,-0.375 -1.78125,-0.1875 -3.84375,-0.375 l -16.40625,-1.875 q -3.84375,-0.46875 -8.25,-0.84375 -4.40625,-0.468748 -9.5625,-1.124998 -5.0625,-0.65625 -7.96875,-0.9375 -2.8125,-0.375 -3.46875,-0.375 -5.25,0 -11.25,3.468748 -6.1875,3.46875 -10.2187498,10.40625 -4.125,6.9375 -4.125,14.15625 0,6.09375 3,12.28125 2.90625,6 10.8749998,10.125 3.9375,2.0625 7.125,3.84375 3.1875,1.78125 5.625,3.375 l 1.6875,0.84375 q 1.125,0.65625 2.4375,1.3125 1.40625,0.5625 2.71875,1.21875 l 2.25,1.125 q 0.46875,0.1875 1.78125,0.9375 1.3125,0.75 3.46875,1.96875 4.59375,2.4375 7.59375,2.4375 1.6875,0 3.375,-0.75 0.65625,-1.3125 0.65625,-2.625 0,-1.78125 -1.96875,-5.0625 -1.03125,-1.6875 -1.875,-3.09375 -0.84375,-1.40625 -1.59375,-2.4375 l 0.28125,-1.875 q 0.1875,-0.0937 0.75,-0.65625 l -2.53125,-5.4375 q -0.65625,-1.125 -1.125,-1.875 -0.375,-0.75 -0.65625,-1.125 l -0.84375,-1.125 q -1.125,-1.40625 -3.28125,-3.46875 -2.0625,-2.0625 -5.625,-2.90625 l -3.75,1.125 q -0.75,-2.625 -1.03125,-4.78125 -0.1875,-2.25 -0.1875,-4.03125 0,-1.40625 0.09375,-3.09375 0.1875,-1.6875 0.375,-3.1875 0.28125,-1.6875 0.5625,-3.375 z m 52.5,38.71875 q 0.75,-1.78125 2.53125,-3.09375 1.78125,-1.3125 4.40625,-2.25 0,-1.59375 -1.875,-2.34375 -1.78125,-0.84375 -4.03125,-0.84375 -1.875,0 -3.28125,0.75 -1.3125,0.65625 -1.875,1.3125 l -2.625,-1.125 q 0,0.65625 0.46875,1.03125 l 1.40625,1.03125 q 0,1.125 0.375,2.15625 -2.25,2.8125 -4.875,5.0625 -2.625,2.25 -6.09375,4.03125 -6.9375,3.5625 -8.25,3.5625 l -1.125,-0.0937 q -1.21875,0.0937 -2.4375,0.28125 -1.125,0.1875 -2.34375,0.84375 -1.125,0.5625 -2.25,1.78125 -1.125,1.125 -2.25,3.1875 0.84375,1.3125 1.21875,2.34375 0.375,1.03125 0.375,2.25 l -0.1875,3 q 0.65625,-1.03125 1.5,-1.96875 0.9375,-1.03125 1.875,-1.03125 1.78125,0.84375 2.8125,1.21875 1.03125,0.28125 1.6875,0.28125 0.75,0 1.21875,-0.0937 4.21875,-1.03125 8.15625,-2.71875 4.03125,-1.78125 7.59375,-4.40625 1.59375,-1.5 2.90625,-3.84375 1.40625,-2.34375 2.53125,-4.6875 1.21875,-2.625 2.4375,-5.625 z m -23.8125,6.1875 q 3.84375,-1.59375 8.0625,-3.65625 4.21875,-2.15625 7.21875,-5.4375 -6.75,0 -13.40625,-0.1875 -6.65625,-0.1875 -13.21875,-1.21875 v 0.0937 q 2.71875,3.9375 3.9375,6.75 1.21875,2.71875 1.3125,4.78125 1.21875,-0.46875 2.71875,-0.75 1.5,-0.375 3.375,-0.375 z m -30.84375,13.6875 q 0.28125,-3.28125 0.84375,-6.375 0.5625,-3.1875 1.3125,-6.46875 l -5.53125,-2.71875 q 0.84375,8.15625 1.03125,16.125 0.1875,7.96875 0.1875,15.9375 0,0.1875 -0.1875,0.5625 -0.09375,0.1875 -0.09375,0.375 -2.15625,1.875 -3,2.71875 -0.75,0.75 -0.84375,0.9375 h 4.21875 q 0.1875,-1.59375 0.84375,-2.8125 0.75,-1.21875 2.0625,-2.53125 -0.375,-3.9375 -0.65625,-7.59375 -0.1875,-3.65625 -0.1875,-7.59375 z m 73.687504,-18.75 q 0.28125,3.375 0.28125,6.28125 0,6.375 -1.59375,12.75 -0.75,3 -2.25,6.65625 -1.40625,3.5625 -3.375004,7.78125 l -1.125,2.34375 -5.15625,4.03125 h 4.125 q 0.1875,-1.875 1.40625,-3.46875 1.312504,-1.6875 3.187504,-2.34375 l 2.15625,-7.3125 q 1.6875,-6 3.75,-10.6875 2.15625,-4.78125 5.4375,-9.28125 -1.3125,-1.40625 -1.96875,-2.625 -0.65625,-1.21875 -1.03125,-2.15625 -0.28125,-1.03125 -0.375,-1.59375 -0.0937,-0.65625 -0.0937,-0.84375 l -1.875,0.46875 z M 9.8476563,190.56195 q 1.2187497,-3 2.1562497,-7.78125 0.9375,-4.78125 2.25,-9.65625 1.6875,-6.46875 3.1875,-11.34375 1.5,-4.875 3.375,-7.3125 -0.75,-0.375 -1.59375,-0.84375 -0.84375,-0.46875 -1.59375,-0.84375 -0.9375,-0.375 -1.78125,-0.84375 v 0.9375 q 0,0.46875 0,1.125 0.09375,0.5625 0.09375,1.21875 0,2.15625 -0.375,4.96875 -0.375,2.71875 -1.03125,5.71875 -0.65625,2.90625 -1.40625,5.71875 -0.75,2.8125 -1.5,4.875 -1.40625,3.9375 -2.4374997,6.84375 -0.9375,2.8125 -1.6875001,4.78125 -0.75,1.875 -1.3125,3 -0.5625,1.125 -1.125,1.59375 -2.2499999,1.96875 -2.6249999,2.4375 l -0.28125,1.03125 h 4.4062499 l -0.1875,-1.875 q 0.1875,-0.46875 0.28125,-0.84375 0.09375,-0.375 0.1875,-0.5625 z m 79.5937497,-41.8125 q 0.46875,-0.46875 0.75,-0.5625 0.28125,0 0.28125,0.5625 0,0.46875 -0.28125,0.5625 -0.375,0 -0.75,-0.5625 z m -46.59375,-2.4375 q 0.84375,-0.28125 1.40625,-0.28125 1.5,0 1.5,1.6875 0,0.5625 -0.1875,1.3125 -0.09375,0.75 -0.5625,0.75 -0.75,0 -2.15625,-3.46875 z"
         id="path5339"
         inkscape:connector-curvature="0" />
    </g>
  </g>
</svg>
