<?xml version="1.0" encoding="UTF-8" standalone="no"?>
<!-- Created with Inkscape (http://www.inkscape.org/) -->

<svg
   xmlns:dc="http://purl.org/dc/elements/1.1/"
   xmlns:cc="http://creativecommons.org/ns#"
   xmlns:rdf="http://www.w3.org/1999/02/22-rdf-syntax-ns#"
   xmlns:svg="http://www.w3.org/2000/svg"
   xmlns="http://www.w3.org/2000/svg"
   xmlns:sodipodi="http://sodipodi.sourceforge.net/DTD/sodipodi-0.dtd"
   xmlns:inkscape="http://www.inkscape.org/namespaces/inkscape"
   width="36.388477mm"
   height="37.504684mm"
   viewBox="0 0 36.388477 37.504684"
   version="1.1"
   id="svg18589"
   inkscape:version="0.92.4 (5da689c313, 2019-01-14)"
   sodipodi:docname="E6.svg">
  <defs
     id="defs18583" />
  <sodipodi:namedview
     id="base"
     pagecolor="#ffffff"
     bordercolor="#666666"
     borderopacity="1.0"
     inkscape:pageopacity="0.0"
     inkscape:pageshadow="2"
     inkscape:zoom="0.35"
     inkscape:cx="-377.54492"
     inkscape:cy="-340.75657"
     inkscape:document-units="mm"
     inkscape:current-layer="layer1"
     showgrid="false"
     fit-margin-top="0"
     fit-margin-left="0"
     fit-margin-right="0"
     fit-margin-bottom="0"
     inkscape:window-width="1920"
     inkscape:window-height="1017"
     inkscape:window-x="-8"
     inkscape:window-y="-8"
     inkscape:window-maximized="1" />
  <metadata
     id="metadata18586">
    <rdf:RDF>
      <cc:Work
         rdf:about="">
        <dc:format>image/svg+xml</dc:format>
        <dc:type
           rdf:resource="http://purl.org/dc/dcmitype/StillImage" />
        <dc:title></dc:title>
      </cc:Work>
    </rdf:RDF>
  </metadata>
  <g
     inkscape:label="Layer 1"
     inkscape:groupmode="layer"
     id="layer1"
     transform="translate(-12.579594,-21.170139)">
    <g
       aria-label="𓃗"
       transform="scale(0.26458333)"
       style="font-style:normal;font-variant:normal;font-weight:normal;font-stretch:normal;font-size:192px;line-height:1.25;font-family:sans-serif;-inkscape-font-specification:sans-serif;font-variant-ligatures:normal;font-variant-caps:normal;font-variant-numeric:normal;font-feature-settings:normal;text-align:start;letter-spacing:0px;word-spacing:0px;writing-mode:lr-tb;text-anchor:start;fill:#000000;fill-opacity:1;stroke:none"
       id="flowRoot19134">
      <path
         d="m 64.138672,219.79437 q 0.375,-4.03125 1.875,-7.21875 1.5,-3.28125 4.3125,-6.28125 l 2.25,-19.3125 q 0.375,-3.1875 1.5,-6 1.125,-2.8125 3,-5.25 3.84375,-5.25 4.96875,-7.59375 -4.96875,3.65625 -9.84375,9.28125 -2.4375,2.71875 -3.75,4.40625 -1.3125,1.59375 -1.5,2.0625 -0.1875,0.46875 -0.65625,1.40625 -0.375,0.9375 -0.84375,2.25 -0.46875,1.21875 -1.03125,2.71875 -0.5625,1.40625 -1.125,2.8125 -3.28125,8.34375 -3.65625,15.375 0,0.65625 -0.5625,1.5 -0.46875,0.75 -0.46875,2.15625 0.09375,1.40625 0.375,2.25 0.28125,0.75 0.5625,1.21875 l -0.5625,1.6875 -9.09375,4.5 -2.34375,-1.5 q 0,-3.375 1.3125,-6.46875 1.40625,-3.09375 3.28125,-5.90625 1.59375,-8.53125 5.90625,-21.75 4.5,-13.5 8.625,-18.75 4.3125,-5.34375 10.78125,-9.1875 -2.4375,-4.5 -3.46875,-8.625 -0.9375,-4.21875 -0.9375,-8.4375 0,-6.09375 2.0625,-14.25 2.0625,-8.4375 5.0625,-16.59375 -3.1875,0.46875 -3.84375,1.6875 -0.65625,1.21875 -2.90625,2.0625 -2.15625,0.84375 -4.3125,0.84375 -3.375,0 -6,-2.0625 0,-0.28125 -0.46875,-1.40625 0,-3.28125 1.40625,-6.5625 1.40625,-3.375 3.9375,-3.65625 2.0625,-1.968746 4.21875,-3.656246 l 4.3125,-3.375 2.0625,-3.9375 q -0.28125,-0.9375 -0.75,-2.15625 -0.375,-1.3125 -0.9375,-2.53125 -0.5625,-1.3125 -1.125,-2.34375 -0.46875,-1.125 -0.84375,-1.78125 1.125,0.5625 2.15625,1.5 1.125,0.9375 2.0625,1.96875 1.03125,1.03125 1.78125,2.15625 0.84375,1.03125 1.3125,1.96875 l 1.5,-1.5 q 0,-0.375 -0.1875,-1.40625 -0.1875,-1.03125 -0.46875,-2.15625 -0.28125,-1.21875 -0.75,-2.25 -0.375,-1.125 -0.9375,-1.6875 1.3125,0 2.25,0.65625 0.9375,0.65625 1.5,1.59375 0.65625,0.9375 1.03125,1.96875 0.375,0.9375 0.46875,1.78125 h 2.15625 l 1.3125,-3.75 2.15625,-0.46875 q 3,1.3125 5.90625,3.84375 2.999998,2.4375 4.874998,5.0625 1.03125,1.40625 1.96875,3.75 1.03125,2.25 1.78125,5.812496 0.75,3.5625 1.125,8.625 0.46875,4.96875 0.46875,11.90625 l -0.375,6 -1.125,1.5 q -0.46875,0 -1.21875,0.1875 -0.65625,0.1875 -1.3125,0.46875 -0.5625,0.28125 -1.03125,0.65625 -0.375,0.375 -0.375,0.75 0,0.84375 2.15625,2.71875 2.0625,1.875 7.59375,3.9375 5.625,2.15625 11.0625,2.15625 6.9375,0 15.75,-5.4375 8.90625,-5.53125 18.5625,-5.53125 2.71875,0 5.25,0.65625 2.625,0.5625 4.875,1.96875 1.59375,-1.59375 3.46875,-2.34375 1.96875,-0.75 3.84375,-0.75 2.0625,0 3.84375,0.9375 1.78125,0.84375 3,2.34375 1.3125,1.40625 1.96875,3.28125 0.75,1.78125 0.75,3.75 0,4.78125 -1.21875,9.9375 -1.125,5.0625 -2.71875,9.75 -1.96875,6.1875 -2.625,13.21875 -0.65625,6.9375 -0.65625,12.9375 0,1.03125 0,2.34375 0.0937,1.21875 0.1875,2.53125 0.0937,1.5 0.1875,3 l -1.125,0.28125 q -1.3125,-4.78125 -1.875,-9.65625 -0.5625,-4.96875 -0.5625,-9.75 0,-4.5 0.46875,-8.90625 0.5625,-4.40625 1.96875,-8.4375 1.875,-5.0625 2.8125,-8.8125 1.03125,-3.75 1.03125,-6.28125 0,-1.40625 -0.1875,-2.90625 -0.1875,-1.59375 -0.84375,-2.8125 -0.5625,-1.3125 -1.78125,-2.0625 -1.125,-0.84375 -3,-0.84375 -1.5,0 -2.4375,0.9375 -0.9375,0.9375 -1.40625,1.40625 0.375,1.125 0.75,2.53125 0.375,1.40625 0.5625,2.8125 0.28125,1.40625 0.375,2.71875 0.1875,1.3125 0.1875,2.25 0,4.125 -2.90625,9.84375 -1.40625,2.90625 -2.625,5.71875 -1.21875,2.8125 -2.53125,5.4375 l -1.78125,4.5 q -0.75,1.96875 -0.75,3.5625 0,1.03125 0.1875,2.0625 0.1875,1.03125 0.75,2.25 0.65625,1.125 1.78125,2.53125 1.125,1.40625 2.90625,3.1875 l 0.1875,1.40625 -6.75,13.59375 q -3.1875,6.46875 -4.96875,10.03125 -1.78125,3.46875 -2.15625,4.125 -0.1875,0.28125 -0.5625,0.65625 -0.28125,0.28125 -0.5625,0.5625 -0.375,0.375 -0.75,0.65625 l 0.5625,1.21875 -0.5625,1.6875 -7.5,4.5 -2.15625,-0.46875 q -0.28125,-0.65625 -0.46875,-1.21875 -0.46875,-1.125 -0.46875,-2.15625 0,-1.875 1.40625,-3.46875 1.5,-1.78125 2.0625,-1.875 0.65625,-0.28125 4.6875,-7.40625 2.0625,-3.5625 4.3125,-8.34375 2.25,-4.875 4.6875,-10.875 -1.6875,-3.375 -7.21875,-7.78125 -2.71875,-2.15625 -4.6875,-3.75 -1.875,-1.59375 -2.90625,-2.625 0.28125,3.46875 1.21875,6.75 0.9375,3.28125 2.90625,6.28125 l 0.1875,1.40625 q -1.78125,4.40625 -5.90625,9.75 -2.0625,2.53125 -3.65625,4.6875 -1.59375,2.0625 -2.625,3.75 -2.15625,3.46875 -2.4375,5.0625 -0.28125,1.6875 -2.625,2.625 -2.34375,0.9375 -2.34375,3.9375 l -0.65625,1.21875 -7.5,4.5 -2.34375,-0.9375 q -0.1875,-0.75 -0.28125,-1.5 -0.1875,-0.65625 -0.28125,-1.21875 0,-0.65625 0,-1.125 0,-2.90625 2.71875,-4.59375 2.90625,-1.6875 3.28125,-2.53125 0.46875,-0.84375 3.84375,-4.78125 3.1875,-3.75 7.3125,-9.5625 4.21875,-5.90625 4.875,-9.28125 -1.21875,-1.40625 -1.96875,-2.90625 -0.75,-1.59375 -1.3125,-3.1875 l -1.03125,-3.1875 q -0.1875,-0.375 -0.46875,-0.9375 -0.1875,-0.5625 -0.375,-1.03125 -0.28125,-0.5625 -0.5625,-1.21875 -1.03125,0.1875 -1.96875,0.375 -0.75,0.1875 -1.59375,0.28125 -0.84375,0 -1.3125,0 -1.59375,-0.1875 -1.96875,-1.03125 -0.28125,-0.84375 -0.375,-1.03125 0.1875,-0.375 0.28125,-0.5625 0.1875,-0.28125 0.28125,-0.46875 -2.25,-0.46875 -5.53125,-1.03125 -3.1875,-0.5625 -7.5,-1.03125 -8.4375,-0.9375 -16.312498,-4.125 -1.03125,3.28125 -3.46875,5.625 -1.21875,1.21875 -3.46875,2.625 -2.15625,1.3125 -5.34375,2.90625 -4.6875,7.03125 -6.28125,14.34375 -0.75,3.5625 -1.21875,6.65625 -0.46875,3 -0.65625,5.625 -0.46875,5.34375 -1.59375,6.375 -1.21875,1.125 -1.21875,2.4375 0,1.03125 0.65625,2.25 l -0.5625,1.6875 -8.71875,6.09375 -1.875,-1.125 z m 20.25,-46.03125 q 6.9375,-3.28125 8.90625,-5.625 2.0625,-2.34375 2.625,-5.15625 l -0.28125,-2.8125 3,-0.28125 0.1875,2.25 q 4.218748,1.6875 8.156248,2.53125 4.03125,0.84375 8.25,1.40625 0.46875,0.0937 1.78125,0.375 1.40625,0.1875 2.8125,0.375 1.6875,0.28125 3.5625,0.5625 2.0625,0.375 4.03125,0.84375 2.0625,0.375 4.125,1.03125 l 0.28125,1.875 3.28125,-0.5625 6,-3.5625 q -0.1875,-1.40625 -0.375,-2.90625 -0.1875,-1.21875 -0.28125,-2.53125 -0.0937,-1.40625 -0.0937,-2.4375 0,-1.5 0.0937,-3.375 0.1875,-1.875 0.5625,-4.03125 0.75,-4.59375 1.96875,-7.5 0.46875,0.1875 1.3125,0.65625 0.84375,0.375 1.40625,0.5625 -1.21875,3.28125 -1.6875,7.21875 -0.46875,3.9375 -0.5625,7.875 0,0.75 0.0937,1.96875 0.0937,1.21875 0.5625,4.40625 1.875,2.625 4.40625,4.59375 l 5.34375,4.3125 q 2.625,2.15625 4.875,4.40625 2.34375,2.25 3.5625,5.0625 v 0.9375 q -3.09375,7.59375 -5.90625,13.5 -2.71875,5.90625 -5.625,10.5 l -1.78125,2.90625 q -0.9375,1.6875 -2.25,2.34375 -1.21875,0.65625 -1.78125,1.96875 v 0.65625 q 0,0.1875 0.0937,0.28125 l 4.875,-2.90625 -0.46875,-1.59375 0.84375,-1.5 1.875,-1.78125 4.875,-9.75 q 2.0625,-4.03125 4.21875,-8.53125 2.25,-4.5 3.9375,-7.78125 -3,-3 -4.21875,-5.71875 -1.21875,-2.8125 -1.21875,-5.53125 0,-4.40625 3.1875,-11.15625 1.59375,-3.5625 2.90625,-6.1875 1.3125,-2.71875 2.34375,-4.59375 2.0625,-3.75 2.0625,-7.59375 0,-1.5 -0.46875,-3.65625 -0.46875,-2.15625 -0.9375,-3.84375 l -1.40625,-2.25 q -1.78125,-1.59375 -4.125,-2.0625 -2.34375,-0.5625 -4.78125,-0.5625 -6.84375,0 -11.90625,2.25 -4.875,2.15625 -9.65625,5.0625 -1.125,0.75 -2.8125,1.40625 -1.6875,0.5625 -3.5625,1.03125 -1.78125,0.375 -3.75,0.65625 -1.875,0.28125 -3.375,0.28125 -4.3125,0 -8.15625,-0.9375 -3.75,-1.03125 -7.6875,-2.90625 -7.59375,-3.75 -7.59375,-7.875 0,-3.09375 5.0625,-4.6875 0.1875,-1.78125 0.28125,-3.46875 0.0937,-1.78125 0.0937,-3.5625 0,-8.625 -1.125,-15.28125 -1.125,-6.749996 -3.1875,-10.312496 -1.499998,-2.71875 -3.749998,-4.5 -2.15625,-1.875 -5.15625,-3.375 l -1.03125,2.8125 -1.5,1.03125 h -3 l -5.90625,3 q -0.1875,2.8125 -4.96875,6.65625 -2.4375,1.874996 -3.9375,3.093746 -1.40625,1.21875 -1.96875,1.78125 l -1.78125,0.65625 q -1.3125,1.03125 -1.96875,3.1875 -0.5625,2.0625 -0.5625,3.5625 l 0.65625,0.5625 q 1.125,0.375 2.34375,0.375 1.125,0 2.4375,-0.375 1.40625,-0.375 2.625,-0.9375 1.6875,-2.625 6.09375,-3.09375 4.5,-0.46875 7.40625,-2.625 2.90625,-2.15625 2.90625,-6.093746 0,-0.1875 -0.09375,-0.5625 0,-0.375 0,-0.65625 -0.09375,-0.375 -0.09375,-0.65625 l 3,-0.28125 q 0,0.65625 0.09375,1.21875 0,0.46875 0,1.03125 0.09375,0.5625 0.09375,1.03125 -0.1875,2.999996 -2.4375,5.812496 -2.25,2.8125 -7.3125,4.3125 -1.21875,3.375 -2.4375,7.40625 -1.21875,3.9375 -2.53125,8.71875 -2.4375,9.5625 -2.4375,14.90625 0,4.03125 1.03125,7.96875 1.03125,3.9375 3.46875,8.71875 l 6.09375,5.90625 0.1875,1.40625 q -0.65625,2.25 -1.875,4.3125 -1.125,1.96875 -2.4375,3.84375 l -2.71875,3.84375 q -2.625,3.75 -3.46875,7.40625 -0.46875,1.875 -1.125,5.15625 -0.5625,3.28125 -1.03125,8.0625 -0.28125,2.4375 -0.46875,4.21875 -0.1875,1.78125 -0.375,3 -0.1875,1.40625 -0.375,2.4375 -0.375,0.65625 -0.75,1.3125 -0.375,0.5625 -0.9375,1.3125 -0.46875,0.65625 -0.9375,1.3125 -1.96875,2.34375 -2.71875,6.09375 l 4.96875,-3.46875 q -0.375,-1.03125 -0.375,-2.15625 0,-2.25 2.4375,-4.6875 0.9375,-7.5 1.875,-13.40625 0.9375,-6 1.875,-8.4375 2.0625,-5.8125 5.34375,-10.78125 z m -5.25,-13.125 q -0.9375,0.75 -2.53125,1.96875 -1.59375,1.21875 -4.03125,3.09375 -4.78125,3.46875 -7.3125,10.03125 l -2.71875,6.84375 q -1.59375,4.3125 -3.1875,8.71875 -1.5,4.3125 -2.625,8.90625 -1.125,4.59375 -1.5,6.84375 -0.375,2.25 -0.375,2.15625 0,-0.0937 -1.78125,2.90625 -1.78125,3 -2.34375,5.90625 l 5.53125,-2.71875 q -0.5625,-1.5 -0.5625,-3.1875 0,-2.25 0.9375,-4.03125 0,-1.40625 0.5625,-3.9375 0.5625,-2.625 1.40625,-5.53125 0.84375,-2.90625 1.78125,-5.71875 0.9375,-2.8125 1.6875,-4.6875 l 2.34375,-6.1875 q 0.75,-1.96875 1.6875,-2.625 0.46875,-0.375 1.875,-1.875 1.5,-1.59375 3.9375,-4.3125 4.875,-5.4375 10.875,-9 z m 66.468748,25.3125 q -2.25,-3.46875 -3.1875,-7.40625 -0.9375,-3.9375 -1.125,-7.96875 l -4.03125,2.34375 q 0.1875,0.5625 0.46875,1.125 0.1875,0.46875 0.375,1.03125 0.1875,0.5625 0.375,0.9375 l 1.03125,3.09375 q 1.03125,2.90625 2.4375,4.59375 0.28125,0.375 0.46875,0.65625 0.1875,0.1875 0.375,0.375 0.1875,0.28125 0.28125,0.375 l 0.1875,0.65625 q -0.5625,4.21875 -4.6875,9.75 l -7.3125,9.75 q -1.03125,1.40625 -1.96875,2.53125 -0.75,1.03125 -1.5,1.96875 -0.75,0.9375 -0.9375,1.3125 -1.03125,1.6875 -3.375,2.90625 -2.4375,1.3125 -2.4375,3.09375 v 0.65625 q 0,0.28125 0.0937,0.46875 l 4.96875,-3 q 0,-2.34375 1.40625,-3.84375 1.5,-1.59375 3.46875,-2.53125 0.75,-2.15625 2.71875,-5.15625 2.0625,-3 4.78125,-6.375 2.71875,-3.375 4.40625,-6.1875 1.78125,-2.90625 2.71875,-5.15625 z M 83.826172,99.606874 q -1.6875,1.687496 -2.53125,1.687496 -0.84375,0 -0.84375,-1.687496 0,-1.6875 0.84375,-1.6875 0.84375,0 2.53125,1.6875 z"
         id="path19142"
         inkscape:connector-curvature="0" />
    </g>
  </g>
</svg>
