<?xml version="1.0" encoding="UTF-8" standalone="no"?>
<svg
   xmlns:dc="http://purl.org/dc/elements/1.1/"
   xmlns:cc="http://creativecommons.org/ns#"
   xmlns:rdf="http://www.w3.org/1999/02/22-rdf-syntax-ns#"
   xmlns:svg="http://www.w3.org/2000/svg"
   xmlns="http://www.w3.org/2000/svg"
   xmlns:sodipodi="http://sodipodi.sourceforge.net/DTD/sodipodi-0.dtd"
   xmlns:inkscape="http://www.inkscape.org/namespaces/inkscape"
   version="1.0"
   width="506.93643pt"
   height="437.8194pt"
   viewBox="0 0 506.93643 437.8194"
   preserveAspectRatio="xMidYMid meet"
   id="svg10"
   sodipodi:docname="E65.svg"
   inkscape:version="0.92.4 (5da689c313, 2019-01-14)">
  <defs
     id="defs14" />
  <sodipodi:namedview
     pagecolor="#ffffff"
     bordercolor="#666666"
     borderopacity="1"
     objecttolerance="10"
     gridtolerance="10"
     guidetolerance="10"
     inkscape:pageopacity="0"
     inkscape:pageshadow="2"
     inkscape:window-width="1920"
     inkscape:window-height="1017"
     id="namedview12"
     showgrid="false"
     fit-margin-top="0"
     fit-margin-left="0"
     fit-margin-right="0"
     fit-margin-bottom="0"
     inkscape:zoom="0.46825397"
     inkscape:cx="971.33919"
     inkscape:cy="305.99138"
     inkscape:window-x="-8"
     inkscape:window-y="-8"
     inkscape:window-maximized="1"
     inkscape:current-layer="svg10" />
  <metadata
     id="metadata2">
Created by potrace 1.10, written by Peter Selinger 2001-2011
<rdf:RDF>
  <cc:Work
     rdf:about="">
    <dc:format>image/svg+xml</dc:format>
    <dc:type
       rdf:resource="http://purl.org/dc/dcmitype/StillImage" />
    <dc:title></dc:title>
  </cc:Work>
</rdf:RDF>
</metadata>
  <g
     transform="matrix(0.1,0,0,-0.1,1253.0617,351.12357)"
     id="g8"
     style="fill:#000000;stroke:none">
    <path
       d="m 510,3261 c -89,-19 -221,-116 -285,-208 -43,-62 -67,-210 -44,-270 6,-15 14,-51 19,-80 12,-70 35,-103 71,-103 18,0 32,7 39,19 5,11 10,85 10,169 0,121 3,152 15,162 8,7 15,18 15,25 0,14 54,64 97,88 18,10 61,20 97,24 54,5 71,2 110,-16 67,-33 128,-99 154,-165 31,-82 29,-120 -8,-147 -16,-13 -43,-51 -60,-88 -17,-36 -37,-78 -45,-93 -14,-28 -34,-145 -57,-338 -7,-58 -13,-185 -13,-284 v -178 l 44,-39 c 38,-34 50,-39 92,-39 77,0 139,39 223,140 32,38 64,70 70,70 6,0 19,-26 29,-58 22,-73 22,-237 2,-417 -8,-71 -15,-174 -15,-229 0,-121 16,-155 82,-176 63,-20 68,-26 68,-89 0,-44 -9,-79 -46,-166 -78,-184 -183,-393 -206,-410 -13,-8 -43,-15 -70,-15 -38,0 -52,-5 -74,-27 -22,-22 -25,-32 -21,-66 11,-83 90,-107 217,-67 77,25 90,39 163,185 85,171 157,325 157,338 0,7 5,18 11,24 12,12 25,33 64,108 14,28 35,64 45,80 29,47 111,218 124,263 14,42 42,25 100,-61 31,-46 64,-92 73,-102 26,-28 76,-105 88,-135 17,-41 55,-148 65,-185 8,-29 17,-56 45,-135 20,-55 45,-152 48,-185 2,-28 0,-30 -38,-33 -56,-4 -82,-28 -90,-82 -5,-37 -3,-50 15,-73 20,-25 27,-27 88,-27 40,0 79,6 96,15 15,8 34,15 40,15 7,0 25,14 42,31 28,29 29,34 28,118 -1,84 -14,142 -50,229 -8,18 -14,39 -14,47 0,8 -6,29 -14,47 -7,18 -20,58 -29,88 -8,30 -22,80 -30,110 -9,30 -21,75 -27,98 -6,24 -14,99 -17,166 -9,179 -50,162 419,171 428,8 440,7 446,-50 2,-16 -3,-54 -11,-85 -25,-91 -47,-203 -48,-240 0,-19 -6,-53 -14,-75 -8,-22 -15,-49 -15,-59 0,-22 -173,-376 -204,-418 -15,-22 -28,-28 -57,-28 -53,0 -85,-17 -109,-57 -26,-45 -25,-63 5,-96 24,-25 32,-27 100,-27 157,0 203,43 320,305 57,127 68,152 102,220 19,39 43,84 53,100 11,17 24,39 30,50 27,50 115,181 128,189 4,3 26,-11 47,-31 22,-20 64,-47 94,-61 48,-22 58,-24 85,-12 64,26 93,24 135,-9 22,-17 60,-41 85,-52 25,-11 50,-28 55,-37 18,-34 23,-103 11,-155 -6,-28 -18,-79 -25,-112 -8,-33 -16,-71 -19,-85 -9,-48 -34,-104 -52,-117 -10,-7 -32,-13 -49,-13 -93,0 -149,-97 -89,-156 24,-25 30,-26 112,-22 80,3 91,6 134,37 25,18 51,45 56,60 5,14 15,42 21,61 7,19 17,51 21,70 4,19 13,49 18,65 33,98 72,276 72,328 0,67 -47,218 -105,343 -43,91 -48,113 -37,143 8,22 12,16 51,-60 55,-109 78,-138 151,-194 51,-39 66,-46 98,-43 31,3 40,9 57,40 17,33 18,39 5,63 -8,15 -24,32 -35,37 -11,5 -43,36 -70,69 -75,91 -85,136 -85,399 0,245 -11,321 -66,435 -18,39 -50,90 -70,113 -42,50 -159,141 -204,158 -26,10 -84,36 -112,51 -14,7 -34,13 -44,13 -10,0 -36,6 -59,14 -183,63 -442,83 -1303,101 -218,5 -292,10 -365,26 -147,31 -179,42 -237,80 -31,20 -65,41 -77,48 -25,13 -21,34 12,73 45,52 93,126 104,161 17,50 0,102 -43,128 -40,24 -78,24 -146,-2 -30,-12 -65,-23 -77,-26 -12,-3 -28,-11 -34,-19 -6,-8 -16,-14 -21,-14 -6,0 -26,-13 -45,-30 -56,-50 -68,-36 -34,42 20,47 54,82 116,119 33,20 52,23 125,23 185,-1 248,-86 237,-326 -4,-92 -2,-121 10,-137 21,-30 58,-27 83,9 26,36 59,160 60,221 0,122 -112,309 -220,364 -19,10 -48,25 -65,34 -22,11 -58,15 -135,15 -108,-1 -109,-1 -208,-59 -53,-31 -83,-60 -103,-100 -20,-39 -49,-61 -49,-37 0,5 -25,36 -55,70 -71,78 -152,118 -251,126 -38,2 -85,1 -104,-3 z m 622,-604 c -4,-52 -4,-52 47,-99 60,-55 183,-138 205,-138 8,0 17,-4 21,-10 3,-5 20,-14 38,-19 18,-5 63,-21 101,-35 48,-18 89,-26 135,-26 36,0 125,-7 196,-15 89,-10 243,-15 490,-15 198,-1 396,-5 440,-10 44,-6 132,-14 195,-19 112,-9 161,-18 266,-47 28,-8 61,-14 73,-14 21,0 67,-22 126,-60 17,-11 39,-24 50,-30 63,-34 77,-46 147,-130 25,-30 50,-70 57,-89 14,-43 14,-144 0,-190 -36,-113 -81,-225 -128,-319 -28,-56 -31,-72 -31,-152 0,-63 5,-100 17,-125 18,-38 11,-56 -15,-37 -9,7 -36,22 -60,34 -38,20 -46,21 -75,9 -65,-27 -89,-25 -126,11 -18,18 -37,42 -42,53 -12,28 -27,51 -75,115 -91,121 -129,142 -289,159 -44,5 -97,12 -117,16 -20,4 -99,2 -175,-4 -76,-7 -230,-12 -343,-12 -216,-1 -284,-11 -342,-51 -38,-26 -68,-99 -68,-164 0,-41 -4,-54 -15,-54 -8,0 -15,5 -15,11 0,6 -13,28 -30,49 -16,21 -30,41 -30,45 0,4 -13,24 -30,45 -16,21 -30,41 -30,45 0,4 -13,24 -30,45 -16,21 -30,41 -30,46 0,4 -6,15 -13,23 -12,15 -40,96 -51,151 -3,14 -17,39 -30,55 -24,30 -25,30 -53,13 -25,-15 -28,-22 -28,-70 1,-59 18,-131 48,-196 l 19,-43 -29,-42 c -17,-23 -47,-82 -68,-132 -20,-49 -40,-97 -44,-105 -12,-22 -40,-24 -48,-3 -10,30 -45,63 -67,63 -50,1 -56,22 -40,135 7,50 13,174 13,276 1,150 -3,205 -19,283 -11,53 -24,105 -29,114 -46,94 -68,120 -110,128 -66,13 -159,-52 -231,-161 -43,-65 -71,-96 -81,-89 -13,7 -11,202 1,244 6,19 17,89 25,155 24,206 26,219 43,260 9,22 31,59 49,81 29,37 38,42 89,49 31,4 75,15 98,25 22,10 44,19 47,19 3,1 4,-23 1,-52 z m 1928,-1412 21,-34 -22,-31 c -35,-47 -49,-39 -43,23 6,56 11,77 18,77 2,0 14,-16 26,-35 z"
       id="path4"
       inkscape:connector-curvature="0"
       style="fill:#000000" />
    <path
       d="m 906,2461 c -10,-11 -20,-37 -23,-59 -4,-33 -2,-42 18,-56 38,-26 83,-21 113,15 14,17 26,37 26,44 0,7 -12,27 -26,44 -31,37 -81,42 -108,12 z"
       id="path6"
       inkscape:connector-curvature="0"
       style="fill:#000000" />
  </g>
  <g
     aria-label="ð“ƒ™"
     transform="matrix(3.9650871,0,0,3.9650871,6288.5354,171.76544)"
     style="font-style:normal;font-variant:normal;font-weight:normal;font-stretch:normal;font-size:192px;line-height:1.25;font-family:sans-serif;-inkscape-font-specification:sans-serif;font-variant-ligatures:normal;font-variant-caps:normal;font-variant-numeric:normal;font-feature-settings:normal;text-align:start;letter-spacing:0px;word-spacing:0px;writing-mode:lr-tb;text-anchor:start;fill:#800000;fill-opacity:1;stroke:none"
     id="flowRoot4517">
    <path
       id="path4525"
       transform="matrix(0.18915095,0,0,0.18915095,-1265.6126,-37.109366)"
       style="fill:#000000;stroke-width:5.28678274"
       d="m -1464.9219,19.751953 c -7.5999,4.295516 -15.6961,8.423589 -24.2871,12.388672 -8.591,3.965083 -18.8332,9.250903 -30.7285,15.859375 -4.626,2.973822 -18.3396,7.105788 -41.1387,12.392578 -22.7993,5.286777 -41.9624,25.110519 -57.4922,59.474612 -15.5301,34.69451 -29.0799,57.82578 -40.6445,69.39062 -0.3296,0.66084 -0.6589,1.65095 -0.9902,2.97266 -0.3306,1.32169 -0.8255,2.81077 -1.4864,4.46289 0,8.92145 2.8085,16.35315 8.4258,22.30078 5.9476,5.94763 12.7208,11.07168 20.3203,15.36719 0.9915,-0.33042 2.3129,-0.49805 3.9649,-0.49805 2.6434,0 8.2606,-2.47723 16.8515,-7.43359 8.9217,-4.95636 15.3651,-10.40784 19.3301,-16.35547 7.2694,-2.31297 14.3757,-5.12154 21.3145,-8.42578 7.2693,-3.30424 13.7107,-7.43427 19.3281,-12.39063 12.3067,54.48855 16.196,38.89483 15.8652,-4.46289 0,-2.97382 0.1648,-5.94416 0.4961,-8.91797 0.3306,-3.30424 0.9913,-6.94116 1.9825,-10.90625 l -15.3633,-4.45898 c -6.2782,12.88652 -17.1812,21.97299 -32.711,27.25976 -15.5301,5.61721 -23.7921,10.07662 -24.7832,13.38086 -0.6609,2.97382 -4.9565,6.77446 -12.8867,11.40039 l -9.9121,5.45118 c -8.591,-4.62594 -14.0443,-11.2332 -16.3574,-19.82422 10.2433,-10.24315 21.6431,-28.74739 34.1992,-55.51172 12.2254,-26.10349 22.3042,-43.615671 30.2344,-52.537111 7.5998,-8.591019 21.8065,-15.200235 42.623,-19.826171 l 14.8692,-2.972657 c -0.9911,0 7.4364,-4.295687 25.2793,-12.886719 17.182,-8.260586 29.0751,-14.209087 35.6836,-17.84375 5.9476,4.956357 8.9238,11.3999 8.9238,19.330079 -21.808,18.173312 -34.3656,30.56339 -37.6699,37.171875 -3.3042,6.608471 -4.9551,13.052024 -4.9551,19.330074 0,10.99307 9.6455,21.98553 21.832,32.97852 0.3999,-0.35427 0.8171,-0.68657 1.2559,-0.98633 0.027,-0.0182 0.082,-0.0365 0.1133,-0.0547 -0.068,-0.75962 0.066,-1.45741 0.5761,-1.97265 1.4247,-1.43871 3.6798,-2.42122 5.666,-2.39844 1.0783,0.0124 2.0739,0.32555 2.8184,1.01953 0.791,0.21962 1.5866,0.43516 2.3027,0.82617 0.3072,0.16768 0.5911,0.37992 0.8535,0.59766 1.1629,-0.0571 2.3297,-0.0615 3.4864,-0.19141 0.8283,-0.093 1.638,-0.25312 2.4453,-0.42578 -13.6701,-10.93286 -25.4961,-20.57082 -25.4961,-28.89648 0,-2.31297 0.3313,-4.79021 0.9922,-7.4336 0.9911,-2.64338 2.9733,-6.278357 5.9472,-10.904293 3.3043,-4.956357 9.4186,-10.739172 18.3399,-17.347656 9.5814,-7.599746 14.5339,-11.895445 14.8652,-12.886719 l 2.4805,-4.957031 c -0.6608,-12.886523 -3.6351,-22.46803 -8.9219,-28.746094 -4.9565,-6.608472 -10.903,-10.24149 -17.8418,-10.902344 z m -110.5215,83.263667 c -3.965,0 -5.9472,3.96631 -5.9472,11.89649 0,7.93017 2.1458,11.89648 6.4414,11.89648 3.9651,0 9.7481,-3.96631 17.3476,-11.89648 -7.9301,-7.93018 -13.8766,-11.89649 -17.8418,-11.89649 z m 104.9414,45.125 c -0.071,-0.0112 -0.079,0.006 0.014,0.0703 0.039,0.0271 0.082,0.0479 0.1211,0.0742 0.1226,0.001 0.2417,3e-4 0.3652,0.002 -0.2184,-0.0729 -0.4087,-0.13218 -0.5,-0.14649 z m 24.5997,1.26172 c 0,0.0241 -0.01,0.0524 -0.012,0.0762 0.413,0.29254 0.8208,0.58837 1.2051,0.90429 -0.397,-0.32952 -0.7954,-0.65304 -1.1933,-0.98047 z m 1.4082,1.15821 c 0.4153,0.36393 0.7906,0.76257 1.0761,1.23633 0.72,1.19452 0.3622,2.29503 0.08,3.39843 0.6007,-0.43725 1.3323,-0.98507 2.291,-1.72656 -1.14,-0.97854 -2.2915,-1.94747 -3.4472,-2.9082 z"
       inkscape:connector-curvature="0" />
  </g>
  <g
     aria-label="ð“ƒ"
     transform="matrix(3.5028601,0,0,3.5028601,6020.948,-504.43356)"
     style="font-style:normal;font-variant:normal;font-weight:normal;font-stretch:normal;font-size:192px;line-height:1.25;font-family:sans-serif;-inkscape-font-specification:sans-serif;font-variant-ligatures:normal;font-variant-caps:normal;font-variant-numeric:normal;font-feature-settings:normal;text-align:start;letter-spacing:0px;word-spacing:0px;writing-mode:lr-tb;text-anchor:start;fill:#000000;fill-opacity:1;stroke:none"
     id="flowRoot4528">
    <path
       id="path4536"
       transform="matrix(0.21411075,0,0,0.21411075,-1356.2279,151.03576)"
       style="stroke-width:4.67048025"
       d="m -1477.3281,143.35352 c 4.9622,4.96238 37.7046,22.55285 62.2246,32.76953 24.52,9.92477 51.5213,17.80643 81.0039,23.64453 29.7743,5.8381 59.6937,9.049 89.7598,9.63281 h 4.8164 c 2.0431,-0.29175 4.6697,-0.4375 7.8808,-0.4375 3.2108,-0.29206 7.2972,-0.5852 12.2598,-0.87695 5.2543,-0.58381 11.8238,-1.31374 19.7051,-2.18946 6.4219,-0.58381 13.4261,-1.16619 21.0156,-1.75 7.5895,-0.58381 14.5957,-0.87695 21.0176,-0.87695 h 7.8808 c 7.8816,0 13.8665,2.18979 17.9532,6.56836 4.3784,4.08667 7.5893,9.19421 9.6328,15.32422 2.0425,5.8381 3.2112,12.11431 3.5039,18.82812 0.2927,6.42191 0.4375,12.11379 0.4375,17.07618 0,10.50858 -0.8756,20.72562 -2.627,30.65039 -1.7514,9.63286 -2.6269,18.53564 -2.6269,26.70898 0,4.67048 0.1467,8.90445 0.4394,12.69922 0.5838,3.50286 1.4594,7.15055 2.627,10.94531 1.1676,3.50286 2.6274,7.2981 4.3789,11.38477 2.0432,3.79476 4.3785,8.31993 7.0058,13.57422 l 9.6329,18.38867 c 2.6269,5.25429 4.6692,10.65498 6.1289,16.20117 1.4593,5.25429 2.1894,11.5305 2.1894,18.82813 0,7.58953 -0.1468,15.18 -0.4394,22.76953 -0.2921,7.58953 -0.8745,14.88685 -1.75,21.89258 l -2.1895,19.26562 -0.8789,17.07617 c -0.2927,2.33524 -0.4375,4.81622 -0.4375,7.44336 v 7.88086 c -4.6705,1.45953 -8.9043,4.08609 -12.6992,7.88086 -3.7946,3.79477 -6.7143,7.88119 -8.7578,12.25977 h -13.5723 c 1.7514,-2.91905 3.7937,-5.25248 6.1289,-7.00391 2.627,-1.75143 5.9856,-3.79562 10.0723,-6.13086 6.1301,-3.79477 9.9234,-9.77978 11.3828,-17.95313 1.4597,-8.17334 3.065,-18.38842 4.8164,-30.64843 0,-9.63287 -0.7298,-18.68319 -2.1895,-27.14844 -1.1676,-8.75715 -3.3556,-17.22119 -6.5664,-25.39453 -2.919,-8.46525 -6.7143,-17.07684 -11.3847,-25.83399 -4.6705,-8.75715 -10.2168,-17.95307 -16.6387,-27.58593 l -15.3242,-6.56641 c -16.3467,-5.54619 -29.6292,-15.03331 -39.8457,-28.46094 -9.9248,-13.71953 -14.8867,-28.89852 -14.8867,-45.53711 0.2926,-0.87571 0.4394,-3.35669 0.4394,-7.44336 l -14.0117,1.3125 v 13.57422 c 0,6.13001 0.7298,11.96748 2.1894,17.51368 1.4594,5.54619 3.9405,11.96799 7.4434,19.26562 -11.0924,1.75143 -22.0395,3.65002 -32.8398,5.69336 -10.8007,2.04333 -21.6001,4.23117 -32.4004,6.56641 -6.4219,-3.21096 -12.8437,-5.39879 -19.2657,-6.56641 -6.4219,-1.16762 -12.9911,-1.75195 -19.705,-1.75195 -10.8004,0 -20.2876,0.58433 -28.461,1.75195 -8.1733,1.16762 -16.7847,1.75 -25.834,1.75 -6.7136,0 -13.2812,-0.43679 -19.7031,-1.3125 -6.4219,-1.16762 -12.6979,-3.3574 -18.8281,-6.56836 l -10.9453,4.37891 c -1.4597,16.63858 -2.4826,32.98428 -3.0664,49.03906 -0.5838,16.05477 -0.875,32.40243 -0.875,49.04101 0,12.26001 0.1467,24.66489 0.4394,37.2168 0.5838,12.26001 1.6051,24.66684 3.0645,37.21875 -7.2975,1.16762 -12.6983,4.08733 -16.2012,8.75781 -3.5029,4.37858 -6.7138,10.65284 -9.6328,18.82618 h -8.3184 c 1.1677,-5.5462 3.2099,-10.65374 6.1289,-15.32422 3.2112,-4.96239 9.0506,-10.21748 17.5157,-15.76368 l 2.1894,-4.37695 c 0,-26.56335 -1.1686,-52.54372 -3.5039,-77.93945 -2.0435,-25.68764 -5.1086,-51.8136 -9.1953,-78.37695 l -3.0645,-5.69141 c -7.0057,-5.25429 -13.7187,-12.69721 -20.1406,-22.33008 -6.1301,-9.63286 -9.1953,-21.16417 -9.1953,-34.5918 0,-6.71381 1.1667,-14.30233 3.502,-22.76757 2.6273,-8.75715 5.547,-17.22315 8.7578,-25.39649 3.5028,-9.34096 7.7347,-18.97367 12.6972,-28.89844 l -12.6972,-5.6914 c -4.9623,10.50858 -9.3418,20.87121 -13.1367,31.08789 -3.2108,8.75715 -6.2744,18.24231 -9.1934,28.45898 -2.6273,9.92477 -3.9414,19.1207 -3.9414,27.58594 0,7.29763 2.0422,15.90921 6.1289,25.83399 3.7949,9.34096 6.8601,15.17843 9.1953,17.51367 -16.9305,-2.04334 -30.5039,-10.07059 -40.7207,-24.08203 -4.9622,-7.00572 -9.1944,-17.22276 -12.6973,-30.6504 -3.5028,-13.71953 -6.568,-30.64956 -9.1953,-50.79101 l -5.6914,-42.47266 -7.4433,-7.00586 c -30.8313,-3.84032 0,0 -5.6934,14.01172 0,1.45953 0.1468,3.06498 0.4395,4.81641 0.2911,1.75143 0.5823,3.94121 0.875,6.56836 0.292,2.62714 0.7306,5.98364 1.3144,10.07031 0.5838,4.08667 1.3139,9.19617 2.1895,15.32617 5.2543,41.15861 11.8215,68.45128 19.7031,81.87891 8.4651,13.71953 18.6821,22.9135 30.6504,27.58398 -3.2111,29.1905 -8.1731,57.36065 -14.8867,84.50782 -6.714,27.14716 -14.5957,54.43983 -23.6446,81.8789 -8.7571,4.67048 -16.93,10.07117 -24.5195,16.20117 -7.2978,6.13001 -12.1159,14.30286 -14.4512,24.51954 l 6.5684,8.31835 h 28.4609 l 7.0059,-4.8164 c 1.4597,-6.71382 3.9405,-12.11255 7.4433,-16.19922 3.7947,-4.37858 9.1955,-6.8615 16.2012,-7.44531 l 5.2539,-7.00391 c 0,-16.34668 2.9197,-27.43924 8.7578,-33.27734 5.8381,-5.8381 10.6543,-23.9368 14.4492,-54.29493 4.0867,-30.94193 13.574,-53.85698 28.461,-68.74414 3.5028,23.0605 6.4206,46.12115 8.7558,69.18164 2.3353,22.7686 3.504,45.97484 3.504,69.61915 -8.4651,5.54619 -15.0327,11.8224 -19.7032,18.82812 -4.6705,7.00572 -7.4444,15.61731 -8.3203,25.83399 l 6.5684,8.31835 h 21.0176 l 7.0058,-4.8164 c 2.3353,-6.71382 4.5232,-12.2601 6.5664,-16.63867 2.3353,-4.67048 7.2972,-7.00586 14.8867,-7.00586 l 7.4454,-7.00391 c -1.4597,-14.01144 -2.6284,-27.58693 -3.504,-40.72266 -0.5838,-13.42763 -0.875,-27.14676 -0.875,-41.1582 0,-14.30334 0.2912,-28.45926 0.875,-42.4707 0.5839,-14.01144 1.4594,-28.16931 2.627,-42.47266 5.2543,1.75143 10.6551,3.06374 16.2012,3.93945 5.5463,0.58382 11.0926,0.87696 16.6386,0.87696 8.4654,0 16.9314,-0.43874 25.3965,-1.31446 8.7572,-1.16762 18.8265,-1.75 30.211,-1.75 12.26,10e-6 21.7472,1.60546 28.4609,4.81641 6.714,2.91905 10.8004,4.37695 12.2598,4.37695 12.26,-1.45952 23.9369,-3.50176 35.0293,-6.1289 11.3844,-2.91905 22.6224,-5.25443 33.7148,-7.00586 -4.6705,25.68764 -9.7779,51.37486 -15.3242,77.0625 -5.5461,25.39573 -13.4277,49.77064 -23.6445,73.12305 -9.0489,4.96238 -16.494,11.23859 -22.3321,18.82812 -5.8381,7.29763 -10.5069,15.61607 -14.0097,24.95703 l 5.6914,10.50781 h 28.0234 l 7.4434,-7.00585 c 0,-3.21096 0.2912,-6.42186 0.875,-9.63282 0.5838,-3.21095 2.0436,-6.27431 4.3789,-9.19336 1.4593,-1.16762 3.2104,-1.75195 5.2539,-1.75195 l 5.6914,-0.87695 4.8183,-4.81641 c 5.8381,-27.14717 16.9288,-55.60655 33.2754,-85.38086 16.9305,-29.77431 30.9428,-46.70434 42.0352,-50.79101 10.5086,15.76287 18.6814,30.06438 24.5195,42.9082 6.1299,12.84382 9.1953,26.7105 9.1953,41.59766 0,12.84382 -2.6265,27.73161 -7.8808,44.6621 -13.7194,8.46525 -22.3312,15.32384 -25.834,20.57813 -2.6273,4.96238 -3.9414,8.75762 -3.9414,11.38477 l 6.5683,8.31835 h 28.461 l 7.0058,-4.8164 c 2.3353,-5.25429 4.2318,-8.90198 5.6914,-10.94531 1.4594,-2.04334 4.2337,-3.79439 8.3204,-5.25391 l 7.4433,-7.00586 c 0,-15.17906 1.3125,-34.88321 3.9395,-59.11133 2.6273,-23.93621 3.9414,-39.69953 3.9414,-47.28906 0,-15.17906 -5.1074,-30.94238 -15.3242,-47.28906 -10.5077,-16.63859 -15.9085,-30.79451 -16.2012,-42.47071 v -7.00586 c 0,-8.17334 0.7301,-17.51485 2.1894,-28.02343 1.7515,-10.50858 2.627,-21.30996 2.627,-32.40235 0,-2.04333 -0.1468,-4.8155 -0.4395,-8.31836 -0.292,-3.79476 -0.7287,-7.59 -1.3125,-11.38476 -0.2917,-4.08667 -0.876,-8.0275 -1.7519,-11.82227 -0.5838,-3.79476 -1.3139,-6.71252 -2.1895,-8.75586 4.3785,4.96239 7.8805,11.38419 10.5078,19.26563 2.9191,7.58953 5.2545,16.05357 7.0059,25.39453 1.7514,9.34096 3.2113,19.26681 4.3789,29.77539 1.4594,10.21668 3.065,20.57931 4.8164,31.08789 l 6.1309,40.7207 5.6914,-0.87695 c 0.2911,-0.87571 0.5823,-1.89683 0.875,-3.06445 0.2911,-1.16762 0.5843,-2.33434 0.8769,-3.50196 0.2927,-1.45952 0.4395,-3.35811 0.4395,-5.69336 0,-4.67048 -0.5843,-10.21676 -1.752,-16.63867 -0.8755,-6.71381 -1.751,-13.5724 -2.6269,-20.57812 -0.5838,-3.50286 -1.1682,-6.86131 -1.752,-10.07227 -0.2917,-3.50286 -0.7287,-7.15054 -1.3125,-10.94531 -0.292,-3.79477 -0.7306,-7.88119 -1.3144,-12.25977 -0.5838,-4.67048 -1.1682,-9.92557 -1.752,-15.76367 -1.4593,-12.84382 -4.3771,-24.66631 -8.7558,-35.46679 -4.0867,-10.80049 -9.4875,-19.26453 -16.2012,-25.39454 -6.714,-6.13 -14.4499,-10.36397 -23.207,-12.69921 -8.7572,-2.33524 -17.3689,-3.50196 -25.834,-3.50196 -4.9626,0 -10.9455,0.29119 -17.9512,0.875 -6.7137,0.58381 -14.3041,1.45934 -22.7695,2.62696 -8.4651,1.16762 -16.9292,2.04509 -25.3946,2.6289 -8.1733,0.29175 -16.3481,0.4375 -24.5214,0.4375 -13.1356,0 -26.7093,-0.72993 -40.7207,-2.18945 -13.7197,-1.45953 -28.4598,-3.64931 -44.2227,-6.56836 -30.9419,-5.8381 -86.4518,-28.53611 -130.5293,-48.09375 -0.1572,-0.65065 -52.4983,-46.334423 -17.5156,4.81641 z m -6.5196,196.96679 22.7696,7.44336 c -7.5896,7.58953 -13.8656,17.22224 -18.8281,28.89844 -4.6705,11.38429 -8.4658,24.81224 -11.3848,40.2832 -5.8372,31.23384 -8.9026,48.01828 -9.1953,50.35352 -4.9626,5.8381 -8.9032,12.4055 -11.8223,19.70312 -2.627,7.29763 -4.2326,14.88615 -4.8164,22.76758 -7.5895,3.21096 -13.2813,6.8606 -17.0762,10.94727 -3.7946,3.79476 -7.2967,9.19545 -10.5078,16.20117 h -13.1367 c 1.1676,-2.04334 2.9206,-4.23312 5.2559,-6.56836 2.6273,-2.62715 5.3993,-5.10812 8.3183,-7.44336 3.2108,-2.62715 6.2763,-4.96252 9.1953,-7.00586 2.9191,-2.33524 5.5456,-4.23188 7.8809,-5.69141 l 11.3848,-31.96484 c 0.292,-0.58381 0.8763,-2.62605 1.7519,-6.12891 1.1676,-3.50286 2.3343,-7.58928 3.502,-12.25976 1.4596,-4.67048 2.9195,-9.48879 4.3789,-14.45117 1.4596,-5.25429 2.6264,-9.63191 3.5019,-13.13477 2.0435,-7.00572 3.9419,-14.59619 5.6934,-22.76953 2.0432,-8.46525 3.7942,-16.78369 5.2539,-24.95703 1.7514,-8.17334 3.2113,-16.055 4.3789,-23.64453 1.4594,-7.88144 2.6261,-14.74003 3.5019,-20.57813 z m 289.8633,12.25977 c 4.9623,4.67048 10.2154,8.61131 15.7617,11.82226 5.8381,3.21096 11.8233,6.27431 17.9532,9.19336 -2.3353,2.33524 -4.6707,4.81817 -7.0059,7.44532 -2.0432,2.33524 -4.3785,5.1074 -7.0058,8.31836 -2.3353,2.91905 -4.6707,6.12995 -7.0059,9.63281 -8.1733,11.6762 -15.7638,25.24974 -22.7695,40.7207 -7.0058,15.17906 -13.4276,30.21245 -19.2657,45.09961 -0.8755,4.08667 -2.3354,8.31869 -4.3789,12.69727 -2.0432,4.37857 -3.6488,8.90373 -4.8164,13.57421 -13.7197,3.50286 -21.1624,12.11445 -22.3301,25.83399 h -11.3847 c 0.8758,-2.91905 2.3357,-5.98436 4.3789,-9.19531 2.3352,-3.21096 4.6706,-6.13067 7.0058,-8.75782 2.6273,-2.62714 5.2539,-4.96252 7.8809,-7.00586 2.6273,-2.04333 4.8169,-3.50319 6.5684,-4.3789 2.0431,-0.58381 3.6487,-1.75052 4.8164,-3.50196 1.1676,-2.04333 2.4817,-5.25423 3.9414,-9.63281 l 5.2539,-14.01172 c 1.1676,-2.91905 3.2118,-8.90211 6.1308,-17.95117 2.9191,-9.04905 6.2757,-21.45588 10.0704,-37.21875 3.7949,-15.76287 7.0058,-29.6276 9.6328,-41.5957 2.919,-12.26001 5.1086,-22.62265 6.5683,-31.08789 z"
       inkscape:connector-curvature="0"
       sodipodi:nodetypes="ccccccccssscccscsccccccsccccscccccccccccccccccscccccscscccssccccccccccccsccccccsccccccccccscccccccccccccsccccsccccccccscccscscccccccccccscccccccsccccccccccsccscscccccsccccccscccccccccscccscccccccccccccccccccccccccccccccccccccccccccccccccc" />
  </g>
  <path
     style="fill:#000000;stroke:none;stroke-width:0.75px;stroke-linecap:butt;stroke-linejoin:miter;stroke-opacity:1"
     d="m 127.3474,75.122596 c 0,0 -101.7203,-165.775424 -127.3474,-4.80508 0,0 36.6356,-115.32204 99.1017,4.80508 z"
     id="path4580"
     inkscape:connector-curvature="0"
     sodipodi:nodetypes="cccc" />
  <path
     style="fill:#000000;stroke:none;stroke-width:0.75px;stroke-linecap:butt;stroke-linejoin:miter;stroke-opacity:1"
     d="m 99.1017,75.122596 c 0,0 101.7203,-165.775414 127.3474,-4.805081 0,0 -36.6356,-115.322036 -99.1017,4.805081 z"
     id="path4580-9"
     inkscape:connector-curvature="0"
     sodipodi:nodetypes="cccc" />
  <path
     style="fill:#000000;fill-opacity:1;stroke:none;stroke-width:0.75px;stroke-linecap:butt;stroke-linejoin:miter;stroke-opacity:1"
     d="m 462.46283,298.58158 4.43123,-19.33001 c 0,0 12.01271,43.24576 40.04237,13.6144 0,0 -18.47263,37.05833 -44.4736,5.71561 z"
     id="path4623"
     inkscape:connector-curvature="0" />
</svg>
