<?xml version="1.0" encoding="UTF-8" standalone="no"?>
<svg
   xmlns:dc="http://purl.org/dc/elements/1.1/"
   xmlns:cc="http://creativecommons.org/ns#"
   xmlns:rdf="http://www.w3.org/1999/02/22-rdf-syntax-ns#"
   xmlns:svg="http://www.w3.org/2000/svg"
   xmlns="http://www.w3.org/2000/svg"
   xmlns:sodipodi="http://sodipodi.sourceforge.net/DTD/sodipodi-0.dtd"
   xmlns:inkscape="http://www.inkscape.org/namespaces/inkscape"
   version="1.0"
   width="351.12604pt"
   height="213.42386pt"
   viewBox="0 0 351.12604 213.42386"
   preserveAspectRatio="xMidYMid meet"
   id="svg10"
   sodipodi:docname="E66.svg"
   inkscape:version="0.92.4 (5da689c313, 2019-01-14)">
  <defs
     id="defs14" />
  <sodipodi:namedview
     pagecolor="#ffffff"
     bordercolor="#666666"
     borderopacity="1"
     objecttolerance="10"
     gridtolerance="10"
     guidetolerance="10"
     inkscape:pageopacity="0"
     inkscape:pageshadow="2"
     inkscape:window-width="1920"
     inkscape:window-height="1017"
     id="namedview12"
     showgrid="false"
     fit-margin-top="0"
     fit-margin-left="0"
     fit-margin-right="0"
     fit-margin-bottom="0"
     inkscape:zoom="0.53747258"
     inkscape:cx="343.70518"
     inkscape:cy="124.16029"
     inkscape:window-x="-8"
     inkscape:window-y="-8"
     inkscape:window-maximized="1"
     inkscape:current-layer="svg10" />
  <metadata
     id="metadata2">
Created by potrace 1.10, written by Peter Selinger 2001-2011
<rdf:RDF>
  <cc:Work
     rdf:about="">
    <dc:format>image/svg+xml</dc:format>
    <dc:type
       rdf:resource="http://purl.org/dc/dcmitype/StillImage" />
    <dc:title></dc:title>
  </cc:Work>
</rdf:RDF>
</metadata>
  <g
     transform="matrix(0.1,0,0,-0.1,425.88097,229.7359)"
     id="g8"
     style="fill:#000000;stroke:none">
    <path
       d="m 163,1917 c -34,-15 -28,-39 25,-109 58,-76 162,-227 162,-235 0,-4 7,-14 15,-23 16,-18 23,-99 11,-119 -4,-6 -35,-30 -69,-53 -84,-56 -143,-119 -172,-183 -51,-110 -22,-156 124,-199 39,-12 96,-16 211,-16 h 157 l 37,-32 c 36,-31 59,-71 77,-133 4,-16 17,-61 28,-100 11,-38 21,-83 21,-98 0,-58 -51,-100 -145,-118 -22,-4 -56,-12 -75,-19 -19,-7 -51,-18 -70,-25 -19,-7 -51,-18 -70,-25 -19,-6 -48,-15 -65,-19 -18,-4 -36,-19 -48,-39 l -20,-33 30,-37 c 18,-22 44,-40 64,-45 19,-5 234,-11 479,-14 l 445,-5 27,22 c 38,30 37,69 -2,98 -28,21 -37,22 -289,22 -157,0 -262,4 -266,10 -3,5 7,12 22,15 15,3 53,12 83,20 159,40 210,45 452,45 236,0 242,-1 293,-25 51,-24 54,-24 99,-9 25,9 48,20 52,25 3,5 81,9 173,9 150,0 170,-2 189,-19 27,-22 27,-33 4,-54 -16,-15 -52,-17 -299,-17 -277,0 -280,0 -306,-23 -36,-30 -35,-69 1,-97 27,-22 31,-22 262,-16 358,9 600,22 653,36 75,20 83,40 63,148 -10,48 -24,115 -32,148 -29,118 -4,316 45,350 12,9 23,14 25,13 36,-48 36,-47 36,-356 V 280 l 26,-12 c 24,-11 29,-9 50,15 l 24,28 v 272 c -1,388 -10,467 -63,552 -20,34 -110,115 -127,115 -8,0 -33,7 -55,15 -33,12 -133,14 -557,15 -420,0 -533,3 -600,15 -100,19 -179,41 -235,65 -40,18 -41,20 -36,59 5,35 2,44 -25,71 -34,33 -63,37 -106,15 -41,-22 -73,-19 -91,8 -25,39 -2,97 103,254 75,112 84,143 46,157 -29,11 -71,-23 -141,-116 -39,-51 -100,-123 -135,-160 -61,-65 -66,-68 -110,-68 -60,0 -102,34 -194,158 -104,141 -171,197 -211,179 z m 565,-479 c 37,-23 38,-25 16,-56 -32,-46 17,-71 67,-34 53,39 91,54 102,43 8,-8 0,-27 -30,-69 -31,-44 -39,-62 -31,-75 13,-24 23,-22 68,19 l 41,37 67,-28 c 236,-95 180,-89 802,-92 576,-4 624,-7 668,-46 30,-27 28,-41 -12,-90 -79,-98 -88,-132 -95,-352 l -6,-190 -51,-3 c -46,-3 -53,0 -82,30 -17,18 -49,67 -70,108 -22,41 -49,91 -60,110 -11,19 -32,55 -45,80 -14,25 -34,61 -46,80 -11,19 -24,42 -27,50 -14,32 -38,50 -66,50 -24,0 -28,-4 -28,-29 0,-17 4,-32 9,-35 5,-3 20,-27 34,-53 13,-27 34,-64 45,-83 11,-19 32,-55 45,-80 14,-25 34,-61 46,-80 31,-52 34,-59 27,-75 -4,-13 -34,-15 -184,-15 -141,0 -182,-3 -198,-15 -24,-18 -66,-19 -82,-2 -10,9 -87,13 -288,17 -331,6 -308,-5 -298,145 6,81 12,112 37,165 17,36 39,77 50,91 42,58 -12,109 -60,57 -51,-54 -113,-233 -113,-324 0,-24 -37,-104 -49,-104 -29,1 -50,51 -71,170 -16,94 -38,150 -85,213 -68,91 -71,92 -316,112 -117,9 -217,19 -221,21 -5,3 -8,20 -8,39 0,28 10,43 71,99 39,36 77,66 83,66 21,0 81,65 100,107 15,34 24,43 50,46 60,8 160,-5 194,-25 z"
       id="path4"
       inkscape:connector-curvature="0" />
    <path
       d="m 466,1298 c -23,-32 -20,-54 10,-77 31,-24 43,-26 79,-9 39,18 44,56 11,85 -35,30 -80,30 -100,1 z"
       id="path6"
       inkscape:connector-curvature="0" />
  </g>
  <g
     aria-label="𓃜 "
     transform="matrix(2.1351977,0,0,2.1351977,1571.4926,-106.91494)"
     style="font-style:normal;font-variant:normal;font-weight:normal;font-stretch:normal;font-size:192px;line-height:1.25;font-family:sans-serif;-inkscape-font-specification:sans-serif;font-variant-ligatures:normal;font-variant-caps:normal;font-variant-numeric:normal;font-feature-settings:normal;text-align:start;letter-spacing:0px;word-spacing:0px;writing-mode:lr-tb;text-anchor:start;fill:#000000;fill-opacity:1;stroke:none"
     id="flowRoot814">
    <path
       id="path822"
       transform="matrix(0.35125553,0,0,0.35125553,-531.30527,67.465256)"
       style="stroke-width:2.84693027"
       d="m -447.15039,-49.515625 c -9.07459,2.668997 -16.81316,6.938753 -23.21875,12.810547 -6.22766,5.871793 -11.30032,14.947223 -15.21484,27.2246092 -4.09247,12.0994533 -12.72162,18.1484376 -25.88868,18.1484376 -8.18492,0 -15.39148,-1.8669198 -21.61914,-5.6035157 -6.22766,-3.91452888 -10.85404,-9.6984852 -13.8789,-17.3496091 -3.02487,-7.651125 -7.29462,-13.789754 -12.81055,-18.416016 -5.33799,-4.804195 -12.81153,-7.561705 -22.41992,-8.273437 l -0.53321,3.46875 c 6.4056,2.31313 11.92062,5.339578 16.54688,9.076171 4.80419,3.558663 8.4523,7.828419 10.94336,12.810547 l 6.93945,14.1464848 c 2.1352,4.6262614 5.07005,8.8960172 8.80664,12.8105472 3.7366,3.736596 8.27529,6.316769 13.61328,7.740234 -1.60139,1.067599 -3.38062,2.579845 -5.33789,4.537109 -1.77933,1.779332 -3.64822,3.735896 -5.60546,5.871094 -1.95727,2.135198 -3.91383,4.448389 -5.8711,6.939453 -1.77933,2.313131 -3.47087,4.626323 -5.07226,6.939453 -3.02487,4.626262 -6.139,8.808326 -9.3418,12.544922 -3.2028,3.736596 -6.58196,6.850733 -10.14063,9.341797 -6.76146,5.160065 -10.14257,11.920346 -10.14257,20.283203 l 1.33398,4.003906 c 1.24553,0.889666 2.58044,1.957592 4.00391,3.203126 1.24553,1.067596 2.66813,2.312863 4.26953,3.736328 1.77933,1.423465 3.82554,3.025362 6.13867,4.804684 1.0676,0.88967 2.04588,1.51132 2.93555,1.86719 0.88966,0.35587 2.13688,0.53516 3.73828,0.53516 1.0676,0 2.31286,-0.0897 3.73633,-0.26758 1.60139,-0.35587 3.7353,-0.88983 6.40429,-1.60156 2.84693,-0.88967 6.49503,-1.957597 10.94336,-3.203129 4.44833,-1.423465 10.053,-3.202693 16.81446,-5.33789 1.42344,-0.355867 2.58103,-0.533203 3.4707,-0.533203 l 21.61914,32.294922 c 4.44833,6.40559 9.42938,12.45458 14.94531,18.14844 5.51593,5.69386 10.76592,11.5655 15.74805,17.61523 -6.22766,2.84693 -11.21067,4.7158 -14.94727,5.60547 -3.73659,0.71173 -6.93842,1.06836 -9.60742,1.06836 -1.95726,0 -4.89406,-0.35663 -8.80859,-1.06836 -3.7366,-0.88967 -6.93845,-1.33398 -9.60742,-1.33398 -5.16007,0 -10.23272,1.3349 -15.21485,4.0039 -4.98213,2.49107 -9.34153,5.6052 -13.07812,9.3418 -0.17803,0.35587 -0.35537,0.88788 -0.53321,1.59961 -0.17793,0.71173 -0.44491,1.51268 -0.80078,2.40234 0,1.95727 -0.17733,3.82614 -0.5332,5.60547 -0.17784,1.6014 -0.26758,2.84666 -0.26758,3.73633 0,4.09246 1.69154,7.02926 5.07227,8.80859 3.38073,1.77933 6.13824,2.66797 8.27343,2.66797 h 111.29688 c 3.55866,1.24553 7.47374,1.86914 11.74414,1.86914 3.55866,0 7.11712,-0.35662 10.67578,-1.06836 3.55866,-0.5338 6.93978,-0.80078 10.14258,-0.80078 h 2.40234 l 4.26953,-5.60351 -7.47265,-14.94727 13.61133,1.60156 c 4.71786,0.5698 12.30941,4.20774 16.40429,4.48828 2.80459,0.17534 6.81431,-2.46226 9.75196,-2.35351 9.43045,0.17793 16.45967,0.44491 21.08593,0.80078 -4.09246,1.77933 -8.36417,4.62651 -12.8125,8.54101 l 2.66993,7.47266 25.62109,4.27149 2.66992,-0.80079 c 3.02486,-2.13519 6.139,-4.09371 9.3418,-5.87304 l 10.14258,2.66992 c 6.93939,1.95736 16.81381,3.02529 29.625,3.20312 12.98911,0.5338 23.22018,0.80079 30.69335,0.80079 22.95338,0 40.48063,-2.49249 52.58008,-7.47461 12.09946,-4.98213 18.14844,-11.47543 18.14844,-19.48243 0,-20.81817 -3.55846,-39.14637 -10.67578,-54.98242 -2.83054,-4.29395 -0.36615,12.6629 -2.66846,16.37455 3.96149,12.23155 3.83627,22.2159 4.80314,38.0727 0,0.88966 -0.0897,1.69061 -0.26757,2.40234 -0.17803,0.71173 -0.35537,1.24569 -0.53321,1.60156 -0.35596,0.71182 -0.62294,1.15614 -0.80078,1.33399 -6.76146,5.69386 -16.10191,9.34196 -28.02344,10.94336 -11.9215,1.6014 -25.62333,2.40234 -41.10351,2.40234 h -2.93555 c -1.0676,-0.17784 -2.40251,-0.26562 -4.0039,-0.26562 h -6.13868 c -2.31313,-0.17784 -5.33762,-0.26758 -9.07421,-0.26758 -1.0676,-0.17785 -2.31287,-0.26758 -3.73633,-0.26758 h -4.80469 c -7.11733,0 -13.3456,-0.80094 -18.68359,-2.40234 -5.338,-1.77933 -9.16344,-2.66797 -11.47657,-2.66797 -1.95726,0 -3.91383,0.44432 -5.87109,1.33398 -1.95726,0.71174 -4.62708,2.31363 -8.00781,4.80469 L -317.17,196.29881 c 3.38073,-2.1352 7.11847,-3.64745 11.21094,-4.53711 4.09246,-1.0676 8.18488,-1.60156 12.27734,-1.60156 h 13.61133 c 2.49106,0 6.67313,0.17929 12.54492,0.53515 5.87179,0.35596 12.3651,0.62295 19.48242,0.80078 2.84693,0 5.87142,-0.17929 9.07422,-0.53515 3.2028,-0.35587 7.29522,-0.97752 12.27734,-1.86719 4.44833,-0.88967 7.47478,-2.22457 9.07618,-4.00391 1.77933,-1.95726 2.66796,-3.91383 2.66796,-5.87109 0,-5.51593 -5.42732,-11.56686 -16.28125,-18.15039 -10.67598,-6.40559 -20.10609,-13.69984 -28.29101,-21.88477 -2.84693,-2.84693 -5.16012,-5.07243 -6.93945,-6.67382 -1.77934,-1.77934 -3.29158,-3.20194 -4.53711,-4.26954 -1.0676,-1.24553 -2.04588,-2.22381 -2.93555,-2.93554 -0.71173,-0.88967 -1.51268,-1.86795 -2.40234,-2.93555 l -8.27344,3.73633 26.42187,26.15625 2.66993,2.66797 c 1.06757,0.71173 2.31286,1.69001 3.73632,2.93554 2.1352,1.77934 4.53804,3.55858 7.20703,5.33789 2.84693,1.6014 5.60444,3.29294 8.27344,5.07227 2.669,1.77933 5.07184,3.55856 7.20703,5.33789 2.31313,1.77933 4.00272,3.55856 5.07032,5.33789 -4.09247,1.6014 -8.6292,2.75702 -13.61133,3.46875 -4.98213,0.5338 -11.30005,0.80078 -18.95117,0.80078 h -6.13868 c -2.31313,-0.17802 -4.62632,-0.35536 -6.93945,-0.5332 -2.669,-0.17803 -5.33686,-0.35536 -8.00586,-0.5332 -3.02486,-0.17794 -6.93994,-0.44492 -11.74414,-0.80078 -4.62626,-0.35587 -9.42998,-0.7125 -14.41211,-1.06836 -4.80419,-0.5338 -9.4306,-0.97812 -13.8789,-1.33399 -4.44833,-0.35586 -8.00679,-0.5332 -10.67579,-0.5332 -6.75907,-0.31292 -13.88415,2.13428 -19.47656,1.77734 -0.0152,-9.7e-4 -0.0298,-8.9e-4 -0.0449,-0.002 -0.001,0.004 -0.003,0.008 -0.004,0.0117 -8.31603,-0.5935 -18.56591,-4.30111 -23.98047,-4.99024 -9.96425,-1.60139 -17.61513,-2.40234 -22.95312,-2.40234 -4.09246,0 -8.45186,0.35663 -13.07813,1.06836 -4.62626,0.5338 -9.60731,1.68942 -14.94531,3.46875 h -55.24805 c -9.7863,0 -17.88346,0.80094 -24.28906,2.40234 -6.40559,1.42347 -11.03197,4.27062 -13.8789,8.54102 l 8.00781,3.73633 c 2.31313,-3.38073 6.04892,-5.3373 11.20898,-5.8711 5.16006,-0.71173 10.58739,-1.06836 16.28125,-1.06836 2.1352,0 4.44839,0.0897 6.93946,0.26758 2.66899,0 6.76141,0.0878 12.27734,0.26563 5.69386,0 13.34476,0.0897 22.95312,0.26757 h 38.70118 c 0.71173,1.95727 1.77966,3.37987 3.20312,4.26954 1.42347,0.71173 2.93571,1.06836 4.53711,1.06836 3.2028,0 5.69333,-0.89059 7.47266,-2.66993 l 3.20312,6.67383 c -1.95726,0.35596 -3.91383,0.62294 -5.87109,0.80078 -1.6014,0.35596 -3.29294,0.62295 -5.07227,0.80078 h -4.0039 c -2.1352,0 -4.2691,-0.35662 -6.4043,-1.06836 -1.95726,-0.71171 -4.18276,-1.06835 -6.67383,-1.06835 h -72.5957 -13.07813 c -4.27039,0 -8.36281,-0.0878 -12.27734,-0.26563 -3.91453,-0.17793 -7.47298,-0.44491 -10.67578,-0.80078 -3.2028,-0.35587 -5.78297,-0.80214 -7.74024,-1.33594 l 0.53321,-9.07422 c 3.73659,-3.73659 7.20736,-6.31677 10.41015,-7.74023 3.38073,-1.6014 6.7599,-2.40039 10.14063,-2.40039 l 19.75195,1.59961 h 2.40235 c 5.33799,-0.17794 10.49638,-1.06657 15.47851,-2.66797 5.16006,-1.6014 10.14307,-3.64761 14.94727,-6.13867 0.35586,-0.88967 0.5332,-1.86795 0.5332,-2.93555 0,-1.0676 0.17929,-2.13555 0.53516,-3.20312 -2.31313,-3.02487 -5.24993,-6.49563 -8.8086,-10.41016 -3.38073,-4.09246 -7.3835,-8.71885 -12.00976,-13.87891 -4.62626,-5.16005 -8.80835,-10.05147 -12.54492,-14.67773 -3.7366,-4.62626 -6.85074,-8.98566 -9.3418,-13.07813 l -13.87891,-21.886716 c -0.88966,-0.355961 -1.69061,-0.622943 -2.40234,-0.800781 -0.5338,-0.355961 -0.97812,-0.622943 -1.33399,-0.800781 -3.20279,0 -7.20557,0.623611 -12.00976,1.86914 -4.62626,1.067599 -11.65548,3.113809 -21.08594,6.138672 -1.95726,0.711735 -3.82614,1.333388 -5.60547,1.867188 l -4.80273,1.068359 c -2.1352,-1.957266 -4.44839,-3.826137 -6.93946,-5.605469 -2.49106,-1.779329 -4.80425,-3.558559 -6.93945,-5.33789 0,-5.160061 2.75751,-9.429817 8.27344,-12.810547 5.51593,-3.558667 12.27818,-11.833146 20.28515,-24.822266 4.09247,-6.405593 8.53956,-11.653631 13.34376,-15.746093 4.80417,-4.092463 9.0759,-6.138672 12.8125,-6.138672 h 18.14843 l -3.73633,4.001953 6.13868,5.873047 5.60546,-5.605469 c 1.0676,-1.423465 3.55813,-3.292338 7.47266,-5.605469 3.38073,-2.135197 6.0486,-3.201172 8.00586,-3.201172 h 1.06836 c 0.35587,0 0.71249,0.08769 1.06836,0.265625 0,0.711733 -0.35663,2.046642 -1.06836,4.003907 -0.71173,1.957264 -3.20226,5.071403 -7.47266,9.341796 l -8.54101,8.541016 6.40429,5.871094 12.54493,-12.810547 c 15.48018,9.07459 31.2282,16.368838 47.24218,21.884766 16.01399,5.337994 33.18461,8.274794 51.51172,8.808593 6.76146,0 17.61417,-1.067927 32.56055,-3.203125 14.94638,-2.135197 29.62648,-3.203125 44.03906,-3.203125 16.8718,0 32.01163,1.602934 45.44336,4.783204 0.90877,-0.459487 2.13454,-1.092982 3.06836,-1.421876 1.19687,-1.47819 2.82047,-2.601068 4.74414,-2.896484 0.51215,-0.07865 1.03682,-0.03383 1.55469,-0.05078 1.14596,0.240717 2.30614,0.13614 3.4668,0.111328 0.81844,-0.0047 1.63675,-8.13e-4 2.45507,0.002 -17.68365,-6.040192 -37.83482,-9.068359 -60.46484,-9.068359 -13.52292,0 -27.22473,1.067927 -41.10352,3.203125 -13.70083,2.135197 -25.62148,3.203125 -35.76367,3.203125 -17.25951,-0.355867 -33.63114,-3.113377 -49.11133,-8.273438 -15.30222,-5.337994 -30.24737,-12.277568 -44.83789,-20.818359 0.5338,-1.245532 0.97812,-2.580441 1.33399,-4.003906 0.5338,-1.423465 0.80078,-2.581038 0.80078,-3.470704 0,-1.779329 -0.7113,-3.735896 -2.13477,-5.871093 -1.24553,-2.135198 -4.537,-3.203125 -9.875,-3.203125 -2.84693,0 -5.4271,0.623608 -7.74023,1.86914 -2.31313,1.067599 -4.35934,2.135527 -6.13867,3.203125 l -7.47461,-0.535156 c 2.84693,-2.135198 5.16012,-4.181407 6.93945,-6.138672 1.77933,-2.1351968 3.29353,-4.3587439 4.53906,-6.6718748 1.42347,-2.3131306 2.66873,-4.8036591 3.73633,-7.4726562 1.24553,-2.6689971 2.57849,-5.7831339 4.00196,-9.341797 3.02486,-7.117325 7.11728,-13.522936 12.27734,-19.216797 5.33799,-5.69386 11.12195,-10.587225 17.34961,-14.679687 z m -78.73438,100.888672 c -1.06759,0 -1.60156,1.601891 -1.60156,4.804687 0,3.202797 0.53397,4.802735 1.60156,4.802735 1.0676,0 2.66949,-1.599938 4.80469,-4.802735 -2.1352,-3.202796 -3.73709,-4.804687 -4.80469,-4.804687 z m 283.05274,11.185547 c 0.0368,-0.0091 -0.0828,-0.0085 -0.11328,0.01367 -0.007,0.0049 -0.0128,0.01071 -0.0195,0.01563 0.0442,-0.01017 0.0888,-0.0185 0.13281,-0.0293 z m -154.67383,117.994136 11.20898,0.53321 -5.33789,3.73633 z"
       inkscape:connector-curvature="0"
       sodipodi:nodetypes="cccsccccccccccccccscccccccsccccccsccscscccccssscscsccccccccccccccsssccccccsscsccsscsccccsscccccscscccccccccscccscccccccccccsccsccccscccccsccccscscscsccccccccsccsccccccccccccccscccccsscsccccccssccscccscccccscsccccccccccssscsccccccccc" />
  </g>
  <g
     aria-label="𓃒"
     transform="matrix(2.6069814,0,0,2.6069814,2680.6065,-279.64542)"
     style="font-style:normal;font-variant:normal;font-weight:normal;font-stretch:normal;font-size:192px;line-height:1.25;font-family:sans-serif;-inkscape-font-specification:sans-serif;font-variant-ligatures:normal;font-variant-caps:normal;font-variant-numeric:normal;font-feature-settings:normal;text-align:start;letter-spacing:0px;word-spacing:0px;writing-mode:lr-tb;text-anchor:start;fill:#000000;fill-opacity:1;stroke:none"
     id="flowRoot832-4">
    <path
       id="path840-6"
       transform="matrix(0.28768905,0,0,0.28768905,-860.59521,122.71735)"
       style="fill:#000000;stroke-width:3.47597504"
       d="m -249.47852,50.330078 c -20.52461,-0.231703 -7.42231,1.733618 -0.0371,9.6875 0.4779,0.0038 0.69409,0.01155 1.88671,0.02148 13.14376,0.78927 27.35049,1.581132 40.51563,2.347661 l 25.0918,1.628906 c 3.91047,0 8.03784,0.653541 12.38281,1.957031 4.56222,1.303491 9.55902,3.14933 14.99023,5.539063 v 15.966797 c -1.52074,7.820944 -2.82391,15.099284 -3.91015,21.833984 -1.08625,5.86571 -2.17353,11.62302 -3.25977,17.27148 -1.08624,5.64846 0.37002,8.13312 -0.28172,11.1746 11.08019,-2.60745 6.09521,13.54315 8.75449,-0.74689 0.86899,-4.77947 1.73842,-9.66735 2.60742,-14.66406 1.08624,-5.21397 2.0646,-10.10185 2.93359,-14.66407 0.869,-4.56221 1.62951,-8.689585 2.28125,-12.382809 0.869,-3.910472 1.62951,-7.061439 2.28125,-9.451172 6.08296,6.951951 10.21033,15.860231 12.38281,26.722661 2.38974,10.64517 3.58399,22.91836 3.58399,36.82226 0,7.1692 -0.21785,14.66539 -0.65234,22.48633 -0.4345,7.6037 -1.30198,17.37946 -2.60547,29.32812 -0.4345,2.82423 -0.87019,5.75735 -1.30469,8.79883 -0.4345,3.04148 -0.65234,5.9746 -0.65234,8.79883 0,5.64846 0.43569,9.12424 1.30468,10.42774 1.08625,1.08624 2.17157,1.6289 3.25782,1.6289 0.65174,0 1.52118,-0.43374 2.60742,-1.30273 1.08624,-0.869 1.95567,-2.17217 2.60742,-3.91016 l 1.95508,-5.86719 c 0.65174,-1.95523 1.19441,-4.34374 1.6289,-7.16797 0.65175,-3.04147 1.30334,-6.7351 1.95508,-11.08007 0.65175,-4.56222 1.30333,-10.10169 1.95508,-16.61914 0.4345,-3.25873 0.65234,-6.62754 0.65234,-10.10352 v -11.4043 c 0,-14.55564 -1.62994,-29.43714 -4.88867,-44.64453 -3.04148,-15.20739 -7.92936,-28.460891 -14.66406,-39.757811 -1.08624,-1.520739 -2.71423,-3.475501 -4.88672,-5.865234 -1.95524,-2.606981 -4.67246,-5.104408 -8.14844,-7.494141 -3.47597,-2.389733 -7.60334,-4.562342 -12.38281,-6.517578 -4.77947,-2.172484 -10.31894,-3.584583 -16.61914,-4.236328 -12.38316,-1.520739 -24.65831,-2.60802 -36.82422,-3.259766 -12.16591,-0.868993 -24.33213,-1.302734 -36.49805,-1.302734 z"
       inkscape:connector-curvature="0"
       sodipodi:nodetypes="cccccccccscccccccsccsscsccccccssccccccccc" />
  </g>
</svg>
