<?xml version="1.0" encoding="UTF-8" standalone="no"?>
<svg
   xmlns:dc="http://purl.org/dc/elements/1.1/"
   xmlns:cc="http://creativecommons.org/ns#"
   xmlns:rdf="http://www.w3.org/1999/02/22-rdf-syntax-ns#"
   xmlns:svg="http://www.w3.org/2000/svg"
   xmlns="http://www.w3.org/2000/svg"
   xmlns:sodipodi="http://sodipodi.sourceforge.net/DTD/sodipodi-0.dtd"
   xmlns:inkscape="http://www.inkscape.org/namespaces/inkscape"
   version="1.0"
   width="322.08618pt"
   height="312.11066pt"
   viewBox="0 0 322.08618 312.11066"
   preserveAspectRatio="xMidYMid meet"
   id="svg12"
   sodipodi:docname="E9.svg"
   inkscape:version="0.92.4 (5da689c313, 2019-01-14)">
  <defs
     id="defs16" />
  <sodipodi:namedview
     pagecolor="#ffffff"
     bordercolor="#666666"
     borderopacity="1"
     objecttolerance="10"
     gridtolerance="10"
     guidetolerance="10"
     inkscape:pageopacity="0"
     inkscape:pageshadow="2"
     inkscape:window-width="1920"
     inkscape:window-height="1017"
     id="namedview14"
     showgrid="false"
     fit-margin-top="0"
     fit-margin-left="0"
     fit-margin-right="0"
     fit-margin-bottom="0"
     inkscape:zoom="0.48760331"
     inkscape:cx="-303.78115"
     inkscape:cy="212.03433"
     inkscape:window-x="-8"
     inkscape:window-y="-8"
     inkscape:window-maximized="1"
     inkscape:current-layer="svg12" />
  <metadata
     id="metadata2">
Created by potrace 1.10, written by Peter Selinger 2001-2011
<rdf:RDF>
  <cc:Work
     rdf:about="">
    <dc:format>image/svg+xml</dc:format>
    <dc:type
       rdf:resource="http://purl.org/dc/dcmitype/StillImage" />
    <dc:title></dc:title>
  </cc:Work>
</rdf:RDF>
</metadata>
  <g
     transform="matrix(0.1,0,0,-0.1,-35.263832,334.58491)"
     id="g10"
     style="fill:#000000;stroke:none">
    <path
       d="m 1385,3335 c -33,-8 -78,-14 -101,-15 -22,0 -63,-7 -90,-15 -27,-8 -57,-15 -67,-15 -16,0 -188,-81 -242,-113 -72,-44 -110,-73 -184,-143 -75,-71 -157,-167 -174,-204 -4,-8 -16,-28 -27,-45 -11,-16 -23,-37 -26,-45 -3,-8 -12,-28 -19,-45 -96,-219 -124,-457 -86,-720 20,-141 28,-176 61,-295 19,-64 29,-93 70,-200 12,-30 24,-64 27,-75 3,-11 11,-27 17,-35 7,-8 29,-49 50,-90 123,-246 334,-515 526,-672 25,-20 63,-53 85,-72 22,-20 43,-36 47,-36 4,0 35,-19 70,-42 91,-61 102,-68 116,-73 6,-3 18,-7 25,-10 6,-3 19,-9 27,-14 60,-36 209,-87 340,-118 108,-25 442,-24 555,1 44,10 95,24 113,32 18,8 39,14 47,14 8,0 31,7 52,16 21,9 53,22 71,30 273,114 494,269 628,439 21,28 41,52 45,55 43,40 169,295 186,380 2,14 11,45 18,70 38,128 38,434 0,564 -8,27 -15,62 -15,77 0,16 -6,43 -14,61 -8,18 -21,52 -30,76 -49,129 -71,179 -108,242 -11,19 -30,53 -41,75 -74,136 -325,419 -467,525 -50,38 -185,128 -235,157 -59,35 -270,136 -298,143 -18,5 -57,18 -87,30 -30,12 -66,24 -80,27 -14,3 -45,11 -70,18 -46,13 -168,34 -320,56 -128,18 -324,20 -395,4 z m 305,-125 c 63,-5 151,-17 195,-25 217,-42 248,-51 343,-91 18,-8 39,-14 47,-14 42,0 296,-133 430,-225 123,-83 269,-217 350,-320 22,-27 43,-52 46,-55 17,-15 91,-122 114,-165 14,-27 35,-63 45,-80 23,-36 60,-114 60,-126 0,-8 9,-30 45,-114 7,-16 21,-64 30,-105 9,-41 23,-103 31,-137 28,-122 14,-349 -32,-513 C 3359,1116 3277,958 3201,865 3142,794 2996,659 2928,614 2767,506 2588,425 2400,374 c -109,-30 -401,-20 -560,18 -25,6 -64,14 -88,18 -24,4 -48,12 -54,18 -7,7 -20,12 -29,12 -10,0 -30,6 -46,14 -15,8 -48,22 -73,32 -25,10 -78,38 -118,61 -41,24 -76,43 -79,43 -5,0 -97,70 -153,116 -96,81 -201,191 -278,294 -90,119 -105,141 -122,175 -6,11 -19,34 -30,50 -27,42 -150,292 -150,306 0,6 -6,23 -14,37 -7,15 -21,54 -31,87 -9,33 -23,75 -31,93 -8,18 -14,44 -14,58 0,15 -7,54 -17,88 -23,87 -23,477 1,551 9,28 16,60 16,72 0,22 17,67 46,126 8,16 14,34 14,41 0,26 121,195 181,251 174,165 339,239 594,265 54,6 101,13 104,15 7,8 97,6 221,-5 z"
       id="path4"
       inkscape:connector-curvature="0" />
    <path
       d="m 1660,3065 c -14,-8 -34,-14 -45,-15 -11,0 -49,-25 -83,-55 -35,-30 -66,-55 -70,-55 -4,0 -24,11 -44,25 -39,26 -120,35 -133,15 -4,-6 21,-36 54,-67 79,-72 79,-86 1,-154 -42,-36 -57,-56 -50,-63 17,-17 99,-8 127,14 32,25 46,25 92,1 44,-24 153,-51 204,-51 20,0 37,-5 37,-10 0,-6 -23,-58 -51,-116 -28,-58 -55,-118 -59,-132 -5,-15 -18,-52 -30,-82 -12,-30 -25,-71 -30,-90 -4,-19 -13,-48 -19,-63 -6,-17 -11,-90 -11,-177 0,-145 -1,-149 -30,-204 -16,-31 -48,-82 -72,-114 -113,-151 -128,-209 -89,-342 29,-98 47,-134 75,-150 23,-12 31,-11 61,3 33,16 59,50 100,131 11,22 44,63 73,93 51,52 53,53 111,53 59,0 59,0 123,-62 35,-35 86,-92 113,-128 27,-36 56,-72 64,-81 9,-8 30,-31 46,-50 44,-50 98,-89 139,-100 20,-5 36,-14 36,-19 0,-6 15,-10 34,-10 42,0 68,-9 60,-21 -8,-14 -58,-11 -80,6 -10,8 -34,15 -53,15 -19,0 -58,7 -88,15 -29,8 -77,22 -106,30 -30,8 -63,15 -74,15 -11,0 -39,6 -64,14 -96,30 -150,39 -172,28 -12,-6 -29,-13 -37,-16 -8,-3 -22,-10 -30,-15 -8,-5 -87,-44 -175,-86 -88,-42 -167,-81 -175,-86 -8,-5 -22,-12 -30,-15 -8,-3 -31,-14 -50,-24 -45,-24 -53,-70 -19,-106 26,-27 40,-29 77,-11 15,8 42,21 60,30 46,23 64,22 62,-5 -4,-46 1,-58 30,-73 38,-20 44,-17 185,98 138,112 142,114 186,88 19,-11 57,-32 84,-46 28,-14 77,-41 110,-60 80,-45 183,-95 194,-95 18,0 71,52 71,70 0,22 -61,69 -127,99 -13,6 -23,15 -23,21 0,15 45,13 125,-6 110,-25 176,-41 230,-55 28,-7 73,-14 100,-17 62,-5 82,13 87,78 l 3,44 63,13 c 79,16 99,31 157,119 47,71 104,119 155,131 36,8 118,91 140,141 34,76 36,132 7,195 -25,51 -29,55 -70,60 -25,4 -60,2 -78,-3 -19,-6 -35,-10 -36,-10 -1,0 -43,42 -95,93 -51,50 -109,99 -128,109 -82,39 -170,78 -176,78 -3,0 -26,14 -51,30 -24,17 -48,30 -52,30 -4,0 -24,17 -44,37 -53,52 -51,90 6,136 23,19 57,41 75,50 17,10 45,24 61,32 16,8 39,15 51,15 32,0 90,29 128,64 28,26 32,36 32,81 0,43 -4,55 -27,77 -46,43 -67,48 -185,48 -109,0 -179,-14 -227,-44 -8,-5 -43,-24 -78,-43 -63,-32 -141,-93 -234,-181 -51,-48 -70,-48 -103,2 -19,30 -22,149 -5,193 6,15 15,44 19,63 8,37 24,85 45,135 61,150 68,279 19,357 -29,45 -55,70 -121,114 -50,33 -53,34 -155,34 -70,-1 -111,-5 -128,-15 z m 216,-126 c 18,-11 47,-37 64,-59 25,-32 30,-47 30,-91 -1,-30 -7,-65 -15,-79 -8,-14 -14,-35 -15,-46 0,-12 -7,-27 -15,-34 -8,-7 -15,-23 -15,-35 0,-12 -7,-28 -15,-35 -8,-7 -15,-25 -15,-41 0,-15 -4,-30 -9,-33 -5,-3 -19,-47 -31,-98 -23,-91 -23,-92 -5,-165 10,-40 24,-78 32,-84 7,-6 13,-16 13,-21 0,-6 18,-30 40,-55 38,-44 39,-46 25,-74 -21,-39 -19,-65 7,-83 33,-23 42,-20 90,30 97,104 237,242 275,272 86,68 198,111 288,111 h 50 l -55,-25 c -30,-14 -71,-33 -90,-42 -133,-61 -218,-181 -190,-269 31,-98 81,-163 152,-193 13,-5 30,-14 38,-19 8,-5 33,-16 55,-24 161,-62 156,-58 260,-166 137,-142 183,-169 237,-140 31,17 43,-2 28,-48 -12,-37 -46,-83 -61,-83 -4,0 -34,-15 -66,-34 -69,-40 -124,-92 -160,-149 -43,-71 -88,-92 -146,-68 -18,7 -57,97 -57,132 0,9 -9,24 -19,33 -24,22 -55,14 -77,-20 -14,-20 -14,-29 -4,-55 31,-75 -38,-49 -101,38 -24,34 -36,68 -51,141 -33,170 -7,225 68,142 41,-45 77,-52 94,-19 18,32 3,67 -46,112 -91,83 -155,91 -205,24 -22,-30 -23,-40 -23,-172 0,-112 4,-148 17,-175 39,-76 -20,-47 -76,39 -76,115 -191,234 -267,278 -62,35 -184,37 -245,4 -69,-38 -78,-45 -132,-98 -29,-29 -55,-53 -58,-53 -13,0 -3,51 19,93 29,53 127,187 138,187 4,0 13,-7 20,-16 51,-62 76,-69 102,-32 21,29 20,50 -2,79 -10,13 -26,49 -37,79 -27,79 -26,325 3,425 22,77 72,197 102,248 11,17 24,42 29,54 5,11 15,24 20,28 6,3 11,17 11,30 0,13 7,28 16,33 11,6 14,22 12,62 -3,50 -6,56 -37,74 -21,12 -80,26 -153,37 -138,20 -148,23 -148,43 0,22 80,96 105,96 11,1 30,6 42,13 39,22 121,20 159,-4 z"
       id="path6"
       inkscape:connector-curvature="0" />
    <path
       d="m 1748,2929 c -26,-15 -24,-75 3,-90 29,-15 86,-3 94,20 7,24 -11,71 -27,71 -7,0 -22,2 -33,5 -11,3 -28,0 -37,-6 z"
       id="path8"
       inkscape:connector-curvature="0" />
  </g>
</svg>
