<?xml version="1.0" encoding="UTF-8" standalone="no"?>
<!-- Created with Inkscape (http://www.inkscape.org/) -->

<svg
   xmlns:dc="http://purl.org/dc/elements/1.1/"
   xmlns:cc="http://creativecommons.org/ns#"
   xmlns:rdf="http://www.w3.org/1999/02/22-rdf-syntax-ns#"
   xmlns:svg="http://www.w3.org/2000/svg"
   xmlns="http://www.w3.org/2000/svg"
   xmlns:sodipodi="http://sodipodi.sourceforge.net/DTD/sodipodi-0.dtd"
   xmlns:inkscape="http://www.inkscape.org/namespaces/inkscape"
   width="40.332424mm"
   height="23.886927mm"
   viewBox="0 0 40.332424 23.886927"
   version="1.1"
   id="svg19713"
   inkscape:version="0.92.4 (5da689c313, 2019-01-14)"
   sodipodi:docname="E9A.svg">
  <defs
     id="defs19707" />
  <sodipodi:namedview
     id="base"
     pagecolor="#ffffff"
     bordercolor="#666666"
     borderopacity="1.0"
     inkscape:pageopacity="0.0"
     inkscape:pageshadow="2"
     inkscape:zoom="0.35"
     inkscape:cx="-328.97266"
     inkscape:cy="-360.47532"
     inkscape:document-units="mm"
     inkscape:current-layer="layer1"
     showgrid="false"
     fit-margin-top="0"
     fit-margin-left="0"
     fit-margin-right="0"
     fit-margin-bottom="0"
     inkscape:window-width="1920"
     inkscape:window-height="1017"
     inkscape:window-x="-8"
     inkscape:window-y="-8"
     inkscape:window-maximized="1" />
  <metadata
     id="metadata19710">
    <rdf:RDF>
      <cc:Work
         rdf:about="">
        <dc:format>image/svg+xml</dc:format>
        <dc:type
           rdf:resource="http://purl.org/dc/dcmitype/StillImage" />
        <dc:title></dc:title>
      </cc:Work>
    </rdf:RDF>
  </metadata>
  <g
     inkscape:label="Layer 1"
     inkscape:groupmode="layer"
     id="layer1"
     transform="translate(0.27181802,-29.570645)">
    <g
       aria-label="𓃜"
       transform="scale(0.26458333)"
       style="font-style:normal;font-variant:normal;font-weight:normal;font-stretch:normal;font-size:192px;line-height:1.25;font-family:sans-serif;-inkscape-font-specification:sans-serif;font-variant-ligatures:normal;font-variant-caps:normal;font-variant-numeric:normal;font-feature-settings:normal;text-align:start;letter-spacing:0px;word-spacing:0px;writing-mode:lr-tb;text-anchor:start;fill:#000000;fill-opacity:1;stroke:none"
       id="flowRoot20258">
      <path
         d="m 73.785156,149.35687 q 5.34375,0 12.5625,-1.125 7.3125,-1.125 14.437504,-1.125 23.0625,0 36.375,11.90625 6.75,5.90625 10.5,14.25 3.75,8.34375 3.75,19.3125 0,4.21875 -6.375,6.84375 -6.375,2.625 -18.46875,2.625 -3.9375,0 -10.78125,-0.28125 -6.75,-0.0937 -10.40625,-1.125 l -3.5625,-0.9375 q -1.6875,0.9375 -3.281254,2.0625 l -0.9375,0.28125 -9,-1.5 -0.9375,-2.625 q 2.34375,-2.0625 4.5,-3 -2.4375,-0.1875 -7.40625,-0.28125 -2.53125,-0.0937 -4.875,-0.28125 -2.25,-0.1875 -4.3125,-0.46875 l -4.78125,-0.5625 2.625,5.25 -1.5,1.96875 h -0.84375 q -1.6875,0 -3.5625,0.28125 -1.875,0.375 -3.75,0.375 -2.25,0 -4.125,-0.65625 h -39.09375 q -1.125,0 -2.90625,-0.9375 -1.78125,-0.9375 -1.78125,-3.09375 0,-0.46875 0.09375,-1.3125 0.1875,-0.9375 0.1875,-1.96875 0.1875,-0.46875 0.28125,-0.84375 0.09375,-0.375 0.1875,-0.5625 1.96875,-1.96875 4.59375,-3.28125 2.625,-1.40625 5.34375,-1.40625 1.40625,0 3.375,0.46875 2.0625,0.375 3.09375,0.375 1.40625,0 3.375,-0.375 1.96875,-0.46875 5.25,-1.96875 -2.625,-3.1875 -5.53125,-6.1875 -2.90625,-3 -5.25,-6.375 l -7.59375,-11.34375 q -0.46875,0 -1.21875,0.1875 -3.5625,1.125 -5.90625,1.875 -2.34375,0.65625 -3.84375,1.125 -1.40625,0.375 -2.25,0.5625 -0.7499997,0.0937 -1.3124997,0.0937 -0.8437501,0 -1.3125001,-0.1875 -0.46875,-0.1875 -1.03125,-0.65625 -1.21875,-0.9375 -2.15625,-1.6875 -0.8437499,-0.75 -1.4999999,-1.3125 -0.7500001,-0.65625 -1.4062501,-1.125 l -0.46874995,-1.40625 q 0,-4.40625 3.56249995,-7.125 1.875,-1.3125 3.5625,-3.28125 1.6875001,-1.96875 3.2812498,-4.40625 0.84375,-1.21875 1.78125,-2.4375 1.03125,-1.3125 2.0625,-2.4375 1.03125,-1.125 1.96875,-2.0625 1.03125,-1.03125 1.875,-1.59375 -2.8125,-0.75 -4.78125,-2.71875 -1.96875,-2.0625 -3.09375,-4.5 l -2.4374997,-4.96875 q -1.3125001,-2.625 -3.8437501,-4.5 -2.4374999,-1.96875 -5.8124999,-3.1875 l 0.18749995,-1.21875 q 5.06249995,0.375 7.87499995,2.90625 2.9062501,2.4375 4.4999998,6.46875 1.59375,4.03125 4.875,6.09375 3.28125,1.96875 7.59375,1.96875 6.9375,0 9.09375,-6.375 2.0625,-6.46875 5.34375,-9.5625 3.375,-3.09375 8.15625,-4.5 l 0.375,0.84375 q -3.28125,2.15625 -6.09375,5.15625 -2.71875,3 -4.3125,6.75 -0.75,1.875 -1.40625,3.28125 -0.5625,1.40625 -1.3125,2.625 -0.65625,1.21875 -1.59375,2.34375 -0.9375,1.03125 -2.4375,2.15625 l 2.625,0.1875 q 0.9375,-0.5625 2.15625,-1.125 1.21875,-0.65625 2.71875,-0.65625 2.8125,0 3.46875,1.125 0.75,1.125 0.75,2.0625 0,0.46875 -0.28125,1.21875 -0.1875,0.75 -0.46875,1.40625 7.6875,4.5 15.75,7.3125 8.15625,2.71875 17.25,2.90625 z m 0,3 q -9.65625,-0.28125 -18.09375,-3.09375 -8.4375,-2.90625 -16.59375,-7.6875 l -4.40625,4.5 -2.25,-2.0625 3,-3 q 2.25,-2.25 2.625,-3.28125 0.375,-1.03125 0.375,-1.40625 -0.1875,-0.0937 -0.375,-0.0937 -0.1875,0 -0.375,0 -1.03125,0 -2.8125,1.125 -2.0625,1.21875 -2.625,1.96875 l -1.96875,1.96875 -2.15625,-2.0625 1.3125,-1.40625 h -6.375 q -1.96875,0 -4.5,2.15625 -2.53125,2.15625 -4.6875,5.53125 -4.2187497,6.84375 -7.1249998,8.71875 -2.9062499,1.78125 -2.9062499,4.5 1.1249999,0.9375 2.4374999,1.875 1.3125,0.9375 2.4375001,1.96875 0.84375,-0.1875 1.6874997,-0.375 0.9375,-0.28125 1.96875,-0.65625 4.96875,-1.59375 7.40625,-2.15625 2.53125,-0.65625 4.21875,-0.65625 0.1875,0.0937 0.46875,0.28125 0.375,0.0937 0.84375,0.28125 l 4.875,7.6875 q 1.3125,2.15625 3.28125,4.59375 1.96875,2.4375 4.40625,5.15625 2.4375,2.71875 4.21875,4.875 1.875,2.0625 3.09375,3.65625 -0.1875,0.5625 -0.1875,1.125 0,0.5625 -0.1875,1.03125 -2.53125,1.3125 -5.25,2.15625 -2.625,0.84375 -5.4375,0.9375 h -0.84375 l -6.9375,-0.5625 q -1.78125,0 -3.5625,0.84375 -1.6875,0.75 -3.65625,2.71875 l -0.1875,3.1875 q 1.03125,0.28125 2.71875,0.46875 1.6875,0.1875 3.75,0.28125 2.0625,0.0937 4.3125,0.0937 2.34375,0 4.59375,0 h 25.5 q 1.3125,0 2.34375,0.375 1.125,0.375 2.25,0.375 0.46875,0 1.40625,0 0.9375,-0.0937 1.78125,-0.28125 1.03125,-0.0937 2.0625,-0.28125 l -1.125,-2.34375 q -0.9375,0.9375 -2.625,0.9375 -0.84375,0 -1.59375,-0.375 -0.75,-0.46875 -1.125,-1.5 -8.4375,0 -13.59375,0 -5.0625,-0.0937 -8.0625,-0.0937 -2.90625,-0.0937 -4.3125,-0.0937 -1.3125,-0.0937 -2.4375,-0.0937 -3,0 -5.71875,0.375 -2.71875,0.28125 -3.9375,2.0625 l -2.8125,-1.3125 q 1.5,-2.25 4.875,-3 3.375,-0.84375 8.53125,-0.84375 h 19.40625 q 2.8125,-0.9375 5.25,-1.21875 2.4375,-0.375 4.59375,-0.375 2.8125,0 8.0625,0.84375 5.15625,0.65625 15.28125,1.125 1.40625,0 3.75,0.1875 2.34375,0.1875 4.875,0.46875 2.625,0.1875 5.062504,0.375 2.53125,0.1875 4.125,0.28125 1.40625,0.0937 2.8125,0.1875 1.21875,0.0937 2.4375,0.1875 1.21875,0 2.15625,0 4.03125,0 6.65625,-0.28125 2.625,-0.375 4.78125,-1.21875 -0.5625,-0.9375 -1.78125,-1.875 -1.125,-0.9375 -2.53125,-1.875 -1.40625,-0.9375 -2.90625,-1.78125 -1.40625,-0.9375 -2.53125,-1.875 -0.75,-0.65625 -1.3125,-1.03125 -0.46875,-0.46875 -0.9375,-0.9375 l -9.28125,-9.1875 2.90625,-1.3125 q 0.46875,0.5625 0.84375,1.03125 0.46875,0.375 1.03125,1.03125 0.65625,0.5625 1.59375,1.5 0.9375,0.84375 2.4375,2.34375 4.3125,4.3125 9.9375,7.6875 5.71875,3.46875 5.71875,6.375 0,1.03125 -0.9375,2.0625 -0.84375,0.9375 -3.1875,1.40625 -2.625,0.46875 -4.3125,0.65625 -1.6875,0.1875 -3.1875,0.1875 -3.75,-0.0937 -6.84375,-0.28125 -3.09375,-0.1875 -4.40625,-0.1875 h -4.78125 q -2.156254,0 -4.312504,0.5625 -2.15625,0.46875 -3.9375,1.59375 l 5.0625,0.9375 q 1.78125,-1.3125 2.812504,-1.6875 1.03125,-0.46875 2.0625,-0.46875 1.21875,0 4.03125,0.9375 2.8125,0.84375 6.5625,0.84375 0.9375,0 1.6875,0 0.75,0 1.3125,0.0937 1.96875,0 3.1875,0.0937 1.3125,0 2.15625,0 0.84375,0 1.40625,0.0937 0.5625,0 1.03125,0 8.15625,0 14.4375,-0.84375 6.28125,-0.84375 9.84375,-3.84375 0.0937,-0.0937 0.28125,-0.46875 0.0937,-0.1875 0.1875,-0.5625 0.0937,-0.375 0.0937,-0.84375 -0.9375,-15.375 -7.21875,-24.28125 -6.28125,-8.90625 -16.03125,-13.40625 -9.75,-4.59375 -24.46875,-4.59375 -7.593754,0 -15.468754,1.125 -7.875,1.125 -11.4375,1.125 z m -9.75,40.21875 2.0625,1.5 1.875,-1.3125 z m -43.40625,-43.6875 q -1.125,1.6875 -1.6875,1.6875 -0.5625,0 -0.5625,-1.6875 0,-1.6875 0.5625,-1.6875 0.5625,0 1.6875,1.6875 z"
         id="path20266"
         inkscape:connector-curvature="0" />
    </g>
  </g>
</svg>
