<?xml version="1.0" encoding="UTF-8" standalone="no"?>
<!-- Created with Inkscape (http://www.inkscape.org/) -->

<svg
   xmlns:dc="http://purl.org/dc/elements/1.1/"
   xmlns:cc="http://creativecommons.org/ns#"
   xmlns:rdf="http://www.w3.org/1999/02/22-rdf-syntax-ns#"
   xmlns:svg="http://www.w3.org/2000/svg"
   xmlns="http://www.w3.org/2000/svg"
   xmlns:sodipodi="http://sodipodi.sourceforge.net/DTD/sodipodi-0.dtd"
   xmlns:inkscape="http://www.inkscape.org/namespaces/inkscape"
   width="18.330664mm"
   height="19.47168mm"
   viewBox="0 0 18.330664 19.47168"
   version="1.1"
   id="svg34333"
   inkscape:version="0.92.4 (5da689c313, 2019-01-14)"
   sodipodi:docname="F1.svg">
  <defs
     id="defs34327" />
  <sodipodi:namedview
     id="base"
     pagecolor="#ffffff"
     bordercolor="#666666"
     borderopacity="1.0"
     inkscape:pageopacity="0.0"
     inkscape:pageshadow="2"
     inkscape:zoom="0.35"
     inkscape:cx="-334.6875"
     inkscape:cy="-337.61789"
     inkscape:document-units="mm"
     inkscape:current-layer="layer1"
     showgrid="false"
     fit-margin-top="0"
     fit-margin-left="0"
     fit-margin-right="0"
     fit-margin-bottom="0"
     inkscape:window-width="1920"
     inkscape:window-height="1017"
     inkscape:window-x="-8"
     inkscape:window-y="-8"
     inkscape:window-maximized="1" />
  <metadata
     id="metadata34330">
    <rdf:RDF>
      <cc:Work
         rdf:about="">
        <dc:format>image/svg+xml</dc:format>
        <dc:type
           rdf:resource="http://purl.org/dc/dcmitype/StillImage" />
        <dc:title></dc:title>
      </cc:Work>
    </rdf:RDF>
  </metadata>
  <g
     inkscape:label="Layer 1"
     inkscape:groupmode="layer"
     id="layer1"
     transform="translate(-1.2402344,-40.033588)">
    <g
       aria-label="𓃾"
       transform="scale(0.26458333)"
       style="font-style:normal;font-variant:normal;font-weight:normal;font-stretch:normal;font-size:192px;line-height:1.25;font-family:sans-serif;-inkscape-font-specification:sans-serif;font-variant-ligatures:normal;font-variant-caps:normal;font-variant-numeric:normal;font-feature-settings:normal;text-align:start;letter-spacing:0px;word-spacing:0px;writing-mode:lr-tb;text-anchor:start;fill:#000000;fill-opacity:1;stroke:none"
       id="flowRoot34878">
      <path
         d="m 58.21875,179.62055 q 0.9375,-0.375 2.0625,-0.75 1.21875,-0.375 2.53125,-0.375 2.15625,0 3.1875,0.9375 1.125,0.9375 1.125,2.15625 0,1.3125 -1.5,3.46875 -1.6875,2.4375 -7.125,6.65625 3.46875,3.28125 5.53125,8.71875 2.15625,5.34375 2.15625,11.34375 0,1.03125 -0.09375,1.96875 0,0.84375 -0.09375,1.78125 -0.75,5.0625 -1.96875,7.03125 -1.125,1.96875 -2.90625,2.0625 -3.5625,0.28125 -6.75,0.28125 H 43.96875 L 42.375,224.43305 q -1.3125,-0.28125 -2.4375,-0.9375 -1.125,-0.5625 -2.34375,-1.125 -1.21875,-0.5625 -2.625,-0.9375 -1.3125,-0.46875 -2.90625,-0.46875 -3.1875,0 -6,0.65625 -2.8125,0.65625 -5.53125,1.59375 L 17.25,223.4018 15.84375,223.0268 8.25,216.93305 q 0,-0.1875 -0.09375,-0.46875 -0.09375,-0.1875 -0.1875,-0.375 -0.09375,-0.28125 -0.1875,-0.5625 0.5625,-6.28125 6.28125,-13.78125 2.90625,-3.9375 4.6875,-6.75 1.78125,-2.90625 2.90625,-4.875 l 1.125,-1.96875 q 0.375,-0.75 0.65625,-1.3125 0.375,-0.65625 0.5625,-1.21875 l 1.21875,-3.09375 q 0.09375,-0.46875 0.46875,-0.84375 0.375,-0.46875 0.84375,-0.84375 Q 27,180.4643 27.5625,179.99555 24.75,178.9643 22.59375,177.4643 20.53125,175.87055 19.03125,172.87055 18,169.5893 17.0625,166.2143 16.125,162.8393 15.09375,159.4643 12.75,152.80805 4.6875,152.3393 l 0.1875,-1.03125 q 2.53125,0 4.59375,0.65625 2.0625,0.65625 3.65625,1.6875 1.6875,1.03125 2.8125,2.34375 1.21875,1.3125 2.0625,2.625 l 5.25,11.625 q 4.03125,6.28125 15.375,6.28125 12.1875,0 17.0625,-6.28125 1.40625,-2.90625 2.8125,-5.8125 1.40625,-2.90625 2.90625,-5.8125 1.875,-3 4.875,-4.96875 3.09375,-1.96875 7.6875,-2.15625 v 0.9375 q -3.75,0 -6.1875,2.25 -2.34375,2.15625 -3.46875,4.875 -1.21875,3.5625 -2.34375,7.03125 -1.03125,3.46875 -2.4375,6.9375 -0.46875,1.125 -1.5,2.34375 -1.03125,1.21875 -2.4375,2.34375 -1.3125,1.125 -3,2.0625 -1.59375,0.84375 -3.1875,1.40625 l 1.5,1.03125 z m 5.90625,2.0625 q -0.1875,0 -0.375,-0.0937 -0.375,-0.1875 -0.5625,-0.1875 -2.625,0 -6.65625,2.0625 -1.03125,0.46875 -1.96875,0.9375 -0.84375,0.375 -1.59375,0.75 -0.84375,0.375 -1.59375,0.75 -0.5625,-0.375 -1.5,-1.03125 -0.9375,-0.65625 -1.875,-1.21875 -0.9375,-0.65625 -1.78125,-1.03125 -0.75,-0.46875 -1.03125,-0.46875 l -9.9375,-1.5 h -2.15625 q -0.75,0 -1.6875,0.46875 -0.9375,0.375 -1.78125,1.03125 -0.84375,0.65625 -1.5,1.40625 -0.65625,0.75 -0.84375,1.3125 -0.65625,2.25 -2.71875,6.28125 -1.96875,3.9375 -6.46875,10.125 l -2.25,3.09375 q -2.0625,2.8125 -3.46875,5.53125 -1.40625,2.71875 -1.5,5.15625 l 7.59375,5.8125 q 4.78125,-1.6875 8.15625,-2.34375 3.375,-0.65625 6,-0.65625 1.875,0 3.65625,0.65625 1.875,0.65625 3.375,1.40625 1.6875,0.9375 3.28125,1.96875 h 17.25 q 1.875,-1.6875 2.4375,-4.3125 0.5625,-2.71875 0.5625,-5.15625 0,-5.15625 -1.875,-10.40625 -1.78125,-5.25 -5.25,-8.4375 l -5.0625,3.8437 -1.875,-2.0625 q 0.75,-0.65625 1.78125,-1.5 0.9375,-0.75 2.15625,-1.78125 1.3125,-1.03125 3.1875,-2.4375 7.21875,-5.53125 7.875,-7.96875 z m -36,15.84375 q 0.75,0.375 1.78125,0.9375 1.125,0.5625 1.6875,1.3125 -0.28125,0.46875 -0.84375,0.84375 -0.5625,0.28125 -1.125,0.65625 -0.65625,0.375 -1.5,0.75 -0.84375,-0.65625 -0.84375,-2.25 0,-1.5 0.84375,-2.25 z"
         id="path34886"
         inkscape:connector-curvature="0" />
    </g>
  </g>
</svg>
