<?xml version="1.0" encoding="UTF-8" standalone="no"?>
<!-- Created with Inkscape (http://www.inkscape.org/) -->

<svg
   xmlns:dc="http://purl.org/dc/elements/1.1/"
   xmlns:cc="http://creativecommons.org/ns#"
   xmlns:rdf="http://www.w3.org/1999/02/22-rdf-syntax-ns#"
   xmlns:svg="http://www.w3.org/2000/svg"
   xmlns="http://www.w3.org/2000/svg"
   xmlns:sodipodi="http://sodipodi.sourceforge.net/DTD/sodipodi-0.dtd"
   xmlns:inkscape="http://www.inkscape.org/namespaces/inkscape"
   width="14.858007mm"
   height="37.405468mm"
   viewBox="0 0 14.858007 37.405468"
   version="1.1"
   id="svg8"
   inkscape:version="0.92.4 (5da689c313, 2019-01-14)"
   sodipodi:docname="F10.svg">
  <defs
     id="defs2" />
  <sodipodi:namedview
     id="base"
     pagecolor="#ffffff"
     bordercolor="#666666"
     borderopacity="1.0"
     inkscape:pageopacity="0.0"
     inkscape:pageshadow="2"
     inkscape:zoom="0.35"
     inkscape:cx="-351.83008"
     inkscape:cy="-330.54758"
     inkscape:document-units="mm"
     inkscape:current-layer="layer1"
     showgrid="false"
     fit-margin-top="0"
     fit-margin-left="0"
     fit-margin-right="0"
     fit-margin-bottom="0"
     inkscape:window-width="1920"
     inkscape:window-height="1017"
     inkscape:window-x="-8"
     inkscape:window-y="-8"
     inkscape:window-maximized="1" />
  <metadata
     id="metadata5">
    <rdf:RDF>
      <cc:Work
         rdf:about="">
        <dc:format>image/svg+xml</dc:format>
        <dc:type
           rdf:resource="http://purl.org/dc/dcmitype/StillImage" />
        <dc:title></dc:title>
      </cc:Work>
    </rdf:RDF>
  </metadata>
  <g
     inkscape:label="Layer 1"
     inkscape:groupmode="layer"
     id="layer1"
     transform="translate(-5.7758747,-23.970485)">
    <g
       aria-label="𓄈"
       transform="scale(0.26458333)"
       style="font-style:normal;font-variant:normal;font-weight:normal;font-stretch:normal;font-size:192px;line-height:1.25;font-family:sans-serif;-inkscape-font-specification:'sans-serif, Normal';font-variant-ligatures:normal;font-variant-caps:normal;font-variant-numeric:normal;font-feature-settings:normal;text-align:start;letter-spacing:0px;word-spacing:0px;writing-mode:lr-tb;text-anchor:start;fill:#000000;fill-opacity:1;stroke:none"
       id="flowRoot4518">
      <path
         d="m 22.955078,90.597108 q 3.09375,0.28125 5.0625,1.03125 2.0625,0.65625 3.28125,1.6875 1.3125,0.9375 1.96875,1.96875 0.65625,1.03125 1.125,1.875 0.1875,0.46875 0.5625,1.40625 0.46875,0.84375 0.9375,1.593752 0.46875,1.03125 1.03125,1.96875 1.3125,2.71875 2.4375,4.59375 1.21875,1.78125 2.25,2.53125 1.59375,1.125 4.21875,2.0625 2.625,0.9375 6.375,0.9375 3.09375,0 5.8125,-0.75 2.71875,-0.75 4.59375,-2.53125 1.3125,-1.21875 1.96875,-2.8125 0.65625,-1.6875 1.40625,-3.375 1.125,-2.71875 1.96875,-4.781252 0.9375,-2.0625 1.96875,-3.375 1.03125,-1.3125 2.71875,-2.4375 1.78125,-1.21875 5.0625,-1.59375 l 0.28125,1.40625 q -2.71875,0.09375 -4.6875,1.875 -1.96875,1.78125 -2.8125,4.78125 -0.5625,1.968752 -1.125,4.218752 -0.46875,2.15625 -0.84375,3.65625 -0.84375,3.84375 -2.625,6.28125 -1.6875,2.4375 -6,3.75 l 1.875,3.1875 q 0.75,-0.46875 2.25,-1.40625 1.59375,-1.03125 3.84375,-2.625 4.59375,-3.1875 8.25,-3.1875 1.59375,0.1875 1.59375,2.53125 0,1.5 -0.375,3 -1.125,5.25 -3.9375,7.5 -2.71875,2.15625 -7.40625,3.1875 0.84375,3.5625 0.84375,6.75 0,5.4375 -3.09375,8.8125 -3.09375,3.375 -9,4.3125 h -1.78125 v 69.1875 h 12.75 v 4.6875 h -12.75 v 9.46875 h -4.6875 v -9.46875 h -12.46875 v -4.6875 h 12.46875 v -69.1875 l -10.875,-1.125 q -2.15625,-0.1875 -3.9375,-0.1875 -1.6875,-0.0937 -3.28125,-0.5625 -3.9375,-1.3125 -6,-4.03125 -2.0625,-2.71875 -2.34375,-7.21875 0,-1.5 2.25,-1.96875 2.34375,-0.46875 6,-2.625 3.65625,-2.15625 7.03125,-5.625 l 0.375,-1.03125 q 0.9375,-2.4375 2.0625,-4.6875 1.125,-2.25 3.28125,-3.5625 -3.9375,-1.875 -5.90625,-5.0625 -1.96875,-3.1875 -3.46875,-8.0625 -1.5,-4.875002 -4.03125,-7.781252 -2.4375,-2.90625 -6,-3.1875 h -0.5625 z m 16.125,37.125002 q -2.71875,2.90625 -6.46875,5.34375 -3.75,2.4375 -7.6875,3.375 0,3.09375 1.875,5.25 1.96875,2.25 9.84375,3.09375 0.65625,0.0937 2.53125,0.28125 1.875,0.0937 3.9375,0.28125 2.4375,0.1875 5.15625,0.375 l 3.1875,0.46875 q 2.0625,0 3.5625,-0.46875 1.5,-0.5625 3.9375,-1.78125 4.96875,-2.4375 4.96875,-8.4375 v -0.9375 q -0.09375,-2.8125 -1.3125,-6.65625 0,-1.6875 2.8125,-2.15625 2.90625,-0.375 5.71875,-2.25 2.90625,-1.78125 3.375,-7.6875 -1.5,0.375 -3.1875,1.40625 -1.6875,0.9375 -3.375,2.0625 l -3.375,2.15625 q -1.6875,1.125 -3.09375,1.6875 -1.40625,0 -2.0625,-1.40625 -0.65625,-1.40625 -1.6875,-2.71875 -1.03125,-1.40625 -1.03125,-2.15625 -1.5,0.1875 -2.53125,0.1875 -0.9375,0 -1.875,0 -0.75,0 -1.59375,0 -0.75,0 -1.78125,-0.0937 -2.25,0 -3.84375,1.21875 -1.59375,1.21875 -2.71875,3 -1.125,1.6875 -1.96875,3.5625 -0.75,1.78125 -1.3125,3 z m 6.46875,-0.0937 q -2.34375,1.78125 -3.28125,1.78125 -0.75,0 -0.75,-1.40625 v -0.375 l 1.3125,-1.6875 q 1.03125,0 2.71875,1.6875 z"
         id="path4526"
         inkscape:connector-curvature="0" />
    </g>
  </g>
</svg>
