<?xml version="1.0" encoding="UTF-8" standalone="no"?>
<!-- Created with Inkscape (http://www.inkscape.org/) -->

<svg
   xmlns:dc="http://purl.org/dc/elements/1.1/"
   xmlns:cc="http://creativecommons.org/ns#"
   xmlns:rdf="http://www.w3.org/1999/02/22-rdf-syntax-ns#"
   xmlns:svg="http://www.w3.org/2000/svg"
   xmlns="http://www.w3.org/2000/svg"
   xmlns:sodipodi="http://sodipodi.sourceforge.net/DTD/sodipodi-0.dtd"
   xmlns:inkscape="http://www.inkscape.org/namespaces/inkscape"
   width="41.572716mm"
   height="96.791435mm"
   viewBox="0 0 41.572716 96.791435"
   version="1.1"
   id="svg8"
   inkscape:version="0.92.4 (5da689c313, 2019-01-14)"
   sodipodi:docname="F11.svg">
  <defs
     id="defs2" />
  <sodipodi:namedview
     id="base"
     pagecolor="#ffffff"
     bordercolor="#666666"
     borderopacity="1.0"
     inkscape:pageopacity="0.0"
     inkscape:pageshadow="2"
     inkscape:zoom="0.35"
     inkscape:cx="-335.40028"
     inkscape:cy="-191.90389"
     inkscape:document-units="mm"
     inkscape:current-layer="layer1"
     showgrid="false"
     fit-margin-top="0"
     fit-margin-left="0"
     fit-margin-right="0"
     fit-margin-bottom="0"
     inkscape:window-width="1920"
     inkscape:window-height="1017"
     inkscape:window-x="-8"
     inkscape:window-y="-8"
     inkscape:window-maximized="1" />
  <metadata
     id="metadata5">
    <rdf:RDF>
      <cc:Work
         rdf:about="">
        <dc:format>image/svg+xml</dc:format>
        <dc:type
           rdf:resource="http://purl.org/dc/dcmitype/StillImage" />
        <dc:title></dc:title>
      </cc:Work>
    </rdf:RDF>
  </metadata>
  <g
     inkscape:label="Layer 1"
     inkscape:groupmode="layer"
     id="layer1"
     transform="translate(-1.4288236,-1.2673308)">
    <g
       aria-label="𓄉 "
       transform="matrix(0.67701113,0,0,0.67701113,5.9920373,-11.647079)"
       style="font-style:normal;font-variant:normal;font-weight:normal;font-stretch:normal;font-size:192px;line-height:1.25;font-family:sans-serif;-inkscape-font-specification:'sans-serif, Normal';font-variant-ligatures:normal;font-variant-caps:normal;font-variant-numeric:normal;font-feature-settings:normal;text-align:start;letter-spacing:0px;word-spacing:0px;writing-mode:lr-tb;text-anchor:start;fill:#000000;fill-opacity:1;stroke:none"
       id="flowRoot4518">
      <path
         d="m -5.7089844,19.075624 q 6.00000003,4.03125 8.34375,7.875 2.34375,3.75 3.09375,7.21875 0.84375,3.75 1.125,6.46875 0.28125,2.71875 1.03125,4.96875 0.5625,1.96875 1.78125,3.84375 1.2187504,1.78125 3.6562504,3.75 h 14.25 q 3.75,-2.34375 5.90625,-6.5625 2.15625,-4.3125 4.21875,-10.96875 2.0625,-6.75 4.875,-10.6875 2.90625,-4.03125 8.34375,-5.8125 l 0.5625,1.21875 q -2.53125,0.9375 -4.21875,2.34375 -1.59375,1.40625 -2.625,3.28125 -1.03125,1.78125 -1.6875,3.9375 -0.5625,2.15625 -0.9375,4.59375 -0.84375,4.875 -1.21875,7.5 -0.375,2.53125 -0.46875,2.90625 -0.28125,1.5 -1.03125,3.5625 -0.75,2.0625 -2.625,4.59375 0.28125,-0.09375 0.84375,-0.5625 0.65625,-0.5625 1.3125,-1.125 0.65625,-0.5625 1.3125,-1.03125 0.65625,-0.46875 1.03125,-0.46875 h 9 q 1.78125,0 3.09375,0.5625 1.40625,0.46875 1.40625,1.78125 0,1.875 -2.25,3.9375 -2.15625,1.96875 -7.21875,4.03125 -1.3125,0.5625 -2.15625,0.9375 -0.84375,0.375 -1.5,0.65625 -0.75,0.375 -1.21875,0.46875 3.09375,2.0625 4.59375,6.75 1.6875,4.78125 1.6875,15.1875 v 76.312496 l -1.59375,1.5 h -11.71875 l -1.40625,-1.78125 v -53.625 q 0,-0.375 0,-0.75 0,-0.46875 -0.09375,-1.40625 0,-0.9375 -0.09375,-2.4375 -0.09375,-1.59375 -0.1875,-4.124996 -0.28125,-5.8125 -2.15625,-11.0625 -1.78125,-5.15625 -5.53125,-6.46875 -3.9375,0.65625 -8.625,1.21875 -4.59375,0.46875 -8.5312504,0.46875 -3.5625,0 -5.4375,-0.28125 -1.78124997,-0.375 -3,-1.125 l -0.9375,-1.125 -0.46875,-2.4375 q 0,-0.65625 -0.09375,-0.9375 0,-2.4375 3.09375003,-6.28125 1.59374997,-1.875 3.28124997,-3.5625 1.6875,-1.78125 3.375,-3.46875 l 3.09375,-3.1875 -0.75,-3 q -1.03125,-0.75 -2.34375,-1.875 -1.3125,-1.125 -2.4375,-2.71875 -1.125,-1.59375 -1.5,-4.21875 -0.375,-2.71875 -0.375,-6.375 v -3.5625 q 0,-5.34375 -2.34374997,-9.28125 -2.25000003,-4.03125 -6.56250003,-8.34375 z m 38.1562504,35.71875 q -1.03125,0.28125 -2.15625,0.5625 -1.03125,0.28125 -1.78125,0.46875 -1.03125,0.28125 -1.78125,0.375 l -12.75,-0.46875 -1.5,1.3125 q 0.09375,0.5625 0.1875,1.125 0.09375,0.46875 0.09375,1.03125 0.09375,0.46875 0.09375,0.84375 0,1.03125 -0.75,1.875 -0.65625,0.75 -2.2500004,1.5 -1.21875,1.6875 -2.53125,3 l -2.90625,2.8125 q -1.5,1.5 -2.8125,3.09375 -1.21874997,1.5 -1.87499998,3.375 0,1.5 0.375,2.53125 1.03124998,0.75 2.34374998,0.75 0.65625,0 1.3125,0 0.65625,0 1.3125,-0.09375 3.28125,0 6.5625004,-0.1875 3.28125,-0.28125 6.5625,-0.5625 0.46875,0 1.40625,-0.09375 1.03125,-0.09375 2.0625,-0.28125 1.125,-0.1875 2.53125,-0.375 1.78125,0 3.84375,1.96875 2.15625,1.96875 3.375,4.78125 1.03125,2.53125 1.6875,5.25 0.75,2.625 1.125,5.625 0.375,2.90625 0.46875,6.374996 0.1875,3.46875 0.1875,7.59375 v 50.0625 h 8.71875 V 79.450624 q 0,-5.0625 -1.21875,-8.90625 -1.21875,-3.9375 -3.75,-6.09375 l -1.59375,-0.5625 -1.125,0.09375 -0.375,-3.09375 q 0.84375,-0.28125 1.875,-0.65625 0.9375,-0.375 2.25,-0.84375 1.3125,-0.46875 3.09375,-1.21875 6.9375,-2.71875 8.625,-5.0625 -1.3125,-0.1875 -2.71875,-0.28125 -1.40625,-0.09375 -2.90625,-0.1875 h -0.84375 q -2.15625,0 -4.78125,0.46875 -1.6875,1.3125 -4.03125,2.90625 -2.15625,1.40625 -2.25,1.40625 z m -14.53125,10.5 q -1.125,1.125 -2.71875,1.78125 -0.9375,0 -1.21875,-1.78125 l 0.75,-1.6875 q 0.9375,0 3.1875,1.6875 z"
         id="path4526"
         inkscape:connector-curvature="0" />
    </g>
  </g>
</svg>
