<?xml version="1.0" encoding="UTF-8" standalone="no"?>
<!-- Created with Inkscape (http://www.inkscape.org/) -->

<svg
   xmlns:dc="http://purl.org/dc/elements/1.1/"
   xmlns:cc="http://creativecommons.org/ns#"
   xmlns:rdf="http://www.w3.org/1999/02/22-rdf-syntax-ns#"
   xmlns:svg="http://www.w3.org/2000/svg"
   xmlns="http://www.w3.org/2000/svg"
   xmlns:sodipodi="http://sodipodi.sourceforge.net/DTD/sodipodi-0.dtd"
   xmlns:inkscape="http://www.inkscape.org/namespaces/inkscape"
   width="13.196094mm"
   height="37.504688mm"
   viewBox="0 0 13.196094 37.504688"
   version="1.1"
   id="svg4535"
   inkscape:version="0.92.4 (5da689c313, 2019-01-14)"
   sodipodi:docname="F12.svg">
  <defs
     id="defs4529" />
  <sodipodi:namedview
     id="base"
     pagecolor="#ffffff"
     bordercolor="#666666"
     borderopacity="1.0"
     inkscape:pageopacity="0.0"
     inkscape:pageshadow="2"
     inkscape:zoom="0.35"
     inkscape:cx="-351.83064"
     inkscape:cy="-396.26186"
     inkscape:document-units="mm"
     inkscape:current-layer="layer1"
     showgrid="false"
     fit-margin-top="0"
     fit-margin-left="0"
     fit-margin-right="0"
     fit-margin-bottom="0"
     inkscape:window-width="1920"
     inkscape:window-height="1017"
     inkscape:window-x="-8"
     inkscape:window-y="-8"
     inkscape:window-maximized="1" />
  <metadata
     id="metadata4532">
    <rdf:RDF>
      <cc:Work
         rdf:about="">
        <dc:format>image/svg+xml</dc:format>
        <dc:type
           rdf:resource="http://purl.org/dc/dcmitype/StillImage" />
        <dc:title></dc:title>
      </cc:Work>
    </rdf:RDF>
  </metadata>
  <g
     inkscape:label="Layer 1"
     inkscape:groupmode="layer"
     id="layer1"
     transform="translate(-5.7760226,-6.4843612)">
    <g
       aria-label="𓄊"
       transform="matrix(0.26458333,0,0,0.26458333,9.0714286,-6.8035714)"
       style="font-style:normal;font-variant:normal;font-weight:normal;font-stretch:normal;font-size:192px;line-height:1.25;font-family:sans-serif;-inkscape-font-specification:'sans-serif, Normal';font-variant-ligatures:normal;font-variant-caps:normal;font-variant-numeric:normal;font-feature-settings:normal;text-align:start;letter-spacing:0px;word-spacing:0px;writing-mode:lr-tb;text-anchor:start;fill:#000000;fill-opacity:1;stroke:none"
       id="flowRoot5080">
      <path
         d="m -2.4238281,86.503358 q 7.3125,-1.125 12.4687501,-3.09375 5.25,-2.0625 8.8125,-5.53125 0.375,-6.5625 0.5625,-13.59375 0,-6.46875 -0.5625,-12.65625 l 2.90625,-0.75 5.8125,15.375 q 0.09375,-0.84375 0.28125,-1.875 0.1875,-0.9375 0.375,-2.25 0.1875,-1.40625 0.5625,-3.09375 1.21875,-6.84375 4.125,-8.8125 l 2.53125,1.125 q -0.1875,1.21875 -0.28125,2.53125 -0.09375,1.3125 -0.09375,2.625 v 1.875 q 0,2.34375 0.375,5.625 0.375,3.28125 0.75,6.75 0.46875,3.46875 0.84375,6.75 0.375,3.1875 0.375,5.4375 0,1.875 -0.46875,3.9375 -0.375,2.0625 -1.3125,3.9375 -0.9375,1.78125 -2.53125,3.28125 -1.5,1.5 -3.75,2.25 v 95.625002 h -4.6875 V 96.909608 q -1.03125,0.1875 -3.75,0.375 -2.625,0.09375 -5.53125,0.09375 H 9.8574219 q -5.15625,0 -8.15625,0.1875 -3,0.09375 -4.78125,0.28125 -1.6875,0.09375 -2.53125,0.28125 -0.84375,0.09375 -1.78125,0.09375 -1.3125,0 -2.25,-0.46875 -0.9374999,-0.5625 -1.5937499,-1.3125 -0.5625,-0.75 -0.9375,-1.59375 -0.28125,-0.9375 -0.28125,-1.78125 0.09375,-2.4375 1.21875,-4.59375 l 1.21875,-0.75 z m 24.0000001,-7.03125 q -3.9375,3.9375 -9.375,6.28125 -5.3437501,2.25 -12.93750012,3.46875 l -8.15624998,1.3125 q -0.5625,1.59375 -0.5625,2.4375 0,1.6875 1.21875,2.25 4.03125,-0.46875 8.06249998,-0.5625 4.12500002,-0.1875 8.34375002,-0.1875 4.2187501,0 8.2500001,-0.09375 4.03125,-0.1875 8.25,-0.65625 4.78125,0 7.03125,-2.25 2.34375,-2.34375 2.625,-6.65625 l 0.09375,-1.78125 q 0,-4.59375 -1.125,-11.90625 -0.5625,-3.75 -0.9375,-6.9375 -0.28125,-3.28125 -0.375,-6.09375 -0.1875,0.84375 -0.375,1.78125 -0.09375,0.84375 -0.28125,1.78125 l -0.5625,3.75 q -0.28125,1.875 -0.65625,3.46875 -0.28125,1.59375 -0.84375,2.625 l -2.71875,0.28125 -4.125,-10.875 q 0,8.8125 -0.5625,17.625 z"
         id="path5088"
         inkscape:connector-curvature="0" />
    </g>
  </g>
</svg>
