<?xml version="1.0" encoding="UTF-8" standalone="no"?>
<!-- Created with Inkscape (http://www.inkscape.org/) -->

<svg
   xmlns:dc="http://purl.org/dc/elements/1.1/"
   xmlns:cc="http://creativecommons.org/ns#"
   xmlns:rdf="http://www.w3.org/1999/02/22-rdf-syntax-ns#"
   xmlns:svg="http://www.w3.org/2000/svg"
   xmlns="http://www.w3.org/2000/svg"
   xmlns:sodipodi="http://sodipodi.sourceforge.net/DTD/sodipodi-0.dtd"
   xmlns:inkscape="http://www.inkscape.org/namespaces/inkscape"
   width="31.551561mm"
   height="21.406445mm"
   viewBox="0 0 31.551561 21.406445"
   version="1.1"
   id="svg38829"
   inkscape:version="0.92.4 (5da689c313, 2019-01-14)"
   sodipodi:docname="F13.svg">
  <defs
     id="defs38823" />
  <sodipodi:namedview
     id="base"
     pagecolor="#ffffff"
     bordercolor="#666666"
     borderopacity="1.0"
     inkscape:pageopacity="0.0"
     inkscape:pageshadow="2"
     inkscape:zoom="0.35"
     inkscape:cx="-337.54492"
     inkscape:cy="-357.61789"
     inkscape:document-units="mm"
     inkscape:current-layer="layer1"
     showgrid="false"
     fit-margin-top="0"
     fit-margin-left="0"
     fit-margin-right="0"
     fit-margin-bottom="0"
     inkscape:window-width="1920"
     inkscape:window-height="1017"
     inkscape:window-x="-8"
     inkscape:window-y="-8"
     inkscape:window-maximized="1" />
  <metadata
     id="metadata38826">
    <rdf:RDF>
      <cc:Work
         rdf:about="">
        <dc:format>image/svg+xml</dc:format>
        <dc:type
           rdf:resource="http://purl.org/dc/dcmitype/StillImage" />
        <dc:title></dc:title>
      </cc:Work>
    </rdf:RDF>
  </metadata>
  <g
     inkscape:label="Layer 1"
     inkscape:groupmode="layer"
     id="layer1"
     transform="translate(-1.9962606,-32.807156)">
    <g
       aria-label="𓄋"
       transform="scale(0.26458333)"
       style="font-style:normal;font-variant:normal;font-weight:normal;font-stretch:normal;font-size:192px;line-height:1.25;font-family:sans-serif;-inkscape-font-specification:sans-serif;font-variant-ligatures:normal;font-variant-caps:normal;font-variant-numeric:normal;font-feature-settings:normal;text-align:start;letter-spacing:0px;word-spacing:0px;writing-mode:lr-tb;text-anchor:start;fill:#000000;fill-opacity:1;stroke:none"
       id="flowRoot39374">
      <path
         d="m 126.41992,126.99555 q -5.8125,4.40625 -9.84375,12.84375 -4.03125,8.34375 -8.71875,29.0625 l -0.46875,2.0625 -1.59375,5.8125 q -0.46875,1.5 -0.65625,3.65625 -0.1875,2.15625 -11.343748,9.5625 -11.15625,7.40625 -12.75,9.75 -1.59375,2.25 -1.59375,3.65625 l -1.59375,1.5 h -21.46875 l -1.40625,-1.21875 q -0.5625,-5.625 -10.125,-11.53125 -9.46875,-5.90625 -10.125,-6.375 l -2.34375,-1.78125 q -2.15625,-1.5 -2.71875,-3.28125 -0.5625,-1.875 -3.84375,-17.625 -3.28125,-15.75 -7.59375,-23.8125 -4.21875,-8.0625 -10.6875001,-12.65625 l 1.40625,-2.53125 q 7.6875001,1.3125 10.1250001,2.90625 2.4375,1.59375 4.96875,4.21875 2.625,2.53125 5.53125,7.96875 2.90625,5.34375 5.53125,18.375 2.625,12.9375 4.96875,18.5625 4.59375,4.03125 13.6875,8.25 9.09375,4.125 13.96875,8.15625 2.71875,-3 6,-5.0625 3.375,-2.0625 6.9375,-3.84375 l 7.03125,-3.46875 q 3.5625,-1.6875 6.75,-4.125 3,-6.09375 5.906248,-20.71875 2.90625,-14.71875 8.15625,-21.75 5.34375,-7.03125 12.84375,-8.625 l 4.5,-0.9375 0.9375,2.71875 z m -58.406248,70.59375 -2.90625,-0.75 0.75,-1.96875 q -4.125,-3.46875 -11.0625,-6.9375 -6.9375,-3.46875 -9.28125,-4.78125 l -1.875,-1.03125 q -4.21875,-2.25 -5.53125,-3.65625 -1.21875,-1.40625 -2.53125,-5.34375 -1.21875,-3.9375 -3.1875,-13.40625 -1.875,-9.46875 -3.1875,-13.78125 -1.3125,-4.3125 -3.46875,-7.96875 -2.15625,-3.65625 -4.875,-6.09375 -2.625,-2.4375 -6.65625,-3.65625 4.21875,4.40625 7.5,11.15625 3.28125,6.65625 6.9375,22.78125 l 1.78125,7.875 q 0.28125,1.3125 0.5625,2.15625 l 0.46875,1.96875 1.21875,6 q 2.53125,3.1875 13.3125,9.28125 10.875,6.09375 11.8125,12.46875 h 18.9375 q 0.84375,-3.09375 3.9375,-6 3.1875,-2.90625 7.59375,-5.71875 l 5.0625,-3.1875 q 2.4375,-1.59375 4.6875,-3.28125 2.249998,-1.78125 3.749998,-3.5625 l 2.8125,-10.40625 q 0.1875,-0.84375 4.59375,-17.4375 4.40625,-16.59375 11.53125,-24.1875 -6,1.96875 -10.3125,8.0625 -4.21875,6.09375 -7.03125,18.84375 l -1.6875,7.78125 q -2.437498,11.15625 -4.218748,14.0625 -1.78125,2.90625 -8.625,6.09375 l -2.625,1.21875 q -11.53125,5.625 -14.625,8.625 -3,2.90625 -3.5625,4.78125 z"
         id="path39382"
         inkscape:connector-curvature="0" />
    </g>
  </g>
</svg>
