<?xml version="1.0" encoding="UTF-8" standalone="no"?>
<!-- Created with Inkscape (http://www.inkscape.org/) -->

<svg
   xmlns:dc="http://purl.org/dc/elements/1.1/"
   xmlns:cc="http://creativecommons.org/ns#"
   xmlns:rdf="http://www.w3.org/1999/02/22-rdf-syntax-ns#"
   xmlns:svg="http://www.w3.org/2000/svg"
   xmlns="http://www.w3.org/2000/svg"
   xmlns:sodipodi="http://sodipodi.sourceforge.net/DTD/sodipodi-0.dtd"
   xmlns:inkscape="http://www.inkscape.org/namespaces/inkscape"
   width="31.32832mm"
   height="17.164843mm"
   viewBox="0 0 31.32832 17.164843"
   version="1.1"
   id="svg39391"
   inkscape:version="0.92.4 (5da689c313, 2019-01-14)"
   sodipodi:docname="F13A.svg">
  <defs
     id="defs39385" />
  <sodipodi:namedview
     id="base"
     pagecolor="#ffffff"
     bordercolor="#666666"
     borderopacity="1.0"
     inkscape:pageopacity="0.0"
     inkscape:pageshadow="2"
     inkscape:zoom="0.35"
     inkscape:cx="-337.54492"
     inkscape:cy="-389.04758"
     inkscape:document-units="mm"
     inkscape:current-layer="layer1"
     showgrid="false"
     fit-margin-top="0"
     fit-margin-left="0"
     fit-margin-right="0"
     fit-margin-bottom="0"
     inkscape:window-width="1920"
     inkscape:window-height="1017"
     inkscape:window-x="-8"
     inkscape:window-y="-8"
     inkscape:window-maximized="1" />
  <metadata
     id="metadata39388">
    <rdf:RDF>
      <cc:Work
         rdf:about="">
        <dc:format>image/svg+xml</dc:format>
        <dc:type
           rdf:resource="http://purl.org/dc/dcmitype/StillImage" />
        <dc:title></dc:title>
      </cc:Work>
    </rdf:RDF>
  </metadata>
  <g
     inkscape:label="Layer 1"
     inkscape:groupmode="layer"
     id="layer1"
     transform="translate(-1.9962606,-28.732985)">
    <g
       aria-label="𓄌"
       transform="scale(0.26458333)"
       style="font-style:normal;font-variant:normal;font-weight:normal;font-stretch:normal;font-size:192px;line-height:1.25;font-family:sans-serif;-inkscape-font-specification:sans-serif;font-variant-ligatures:normal;font-variant-caps:normal;font-variant-numeric:normal;font-feature-settings:normal;text-align:start;letter-spacing:0px;word-spacing:0px;writing-mode:lr-tb;text-anchor:start;fill:#000000;fill-opacity:1;stroke:none"
       id="flowRoot39936">
      <path
         d="m 125.95117,111.50336 -1.96875,1.125 q -4.59375,5.15625 -7.5,11.4375 -2.8125,6.1875 -4.78125,12.75 l -1.21875,4.5 -0.65625,2.625 -0.46875,2.0625 -0.1875,2.0625 q -0.46875,3.65625 -4.5,5.15625 -3.9375,1.5 -9.562498,4.59375 -5.625,3.09375 -10.875,7.125 -5.25,3.9375 -5.25,7.03125 l -1.59375,1.5 h -21.46875 l -1.40625,-1.21875 q -0.28125,-3.1875 -3.65625,-6.84375 -3.375,-3.65625 -12.9375,-8.0625 -9.46875,-4.40625 -11.4375,-5.34375 -1.875,-0.9375 -2.34375,-6.09375 l -0.28125,-2.71875 q -0.5625,-7.40625 -4.875,-17.34375 -4.21875,-10.03125 -11.4375001,-14.4375 l 0.9375,-2.8125 q 7.8750001,1.3125 10.9687501,3.46875 3.1875,2.0625 6.28125,5.71875 3.1875,3.65625 5.625,13.875 l 1.59375,6.375 q 0.75,3.28125 2.0625,6.65625 1.6875,1.40625 6.09375,3.09375 4.5,1.59375 12.46875,5.0625 8.0625,3.375 13.78125,7.96875 6,-6.65625 17.4375,-10.6875 11.53125,-4.125 13.875,-5.625 2.062498,-4.6875 3.843748,-12.375 1.875,-7.78125 4.5,-12.375 2.71875,-4.59375 6.5625,-7.21875 3.84375,-2.625 11.4375,-3.9375 z m -59.437498,52.5 q -3.1875,-3 -7.6875,-5.4375 -4.40625,-2.4375 -9.46875,-4.40625 l -6.09375,-2.4375 -8.25,-3.28125 q -3,-1.21875 -4.125,-6 -1.125,-4.875 -2.0625,-8.8125 -0.84375,-4.03125 -2.53125,-8.34375 -1.59375,-4.40625 -4.5,-7.5 -2.90625,-3.09375 -7.59375,-4.875 5.53125,5.53125 8.90625,15.1875 3.46875,9.65625 4.40625,20.625 1.21875,1.125 3.1875,1.96875 l 3.1875,1.40625 6.1875,2.90625 q 6.5625,3.09375 11.625,7.21875 5.0625,4.03125 5.625,8.25 h 18.9375 q 1.40625,-5.15625 10.21875,-10.875 8.90625,-5.8125 12.84375,-7.3125 3.937498,-1.5 6.656248,-3.5625 1.6875,-11.15625 5.25,-20.25 3.5625,-9.1875 8.34375,-15.375 -6.46875,2.34375 -9.5625,7.5 -3.09375,5.0625 -4.96875,13.21875 -1.875,8.0625 -2.90625,10.96875 -1.03125,2.8125 -7.406248,4.96875 l -3.375,1.125 q -6.28125,2.0625 -12.75,5.34375 -6.375,3.1875 -9.84375,7.59375 z"
         id="path39944"
         inkscape:connector-curvature="0" />
    </g>
  </g>
</svg>
