<?xml version="1.0" encoding="UTF-8" standalone="no"?>
<!-- Created with Inkscape (http://www.inkscape.org/) -->

<svg
   xmlns:dc="http://purl.org/dc/elements/1.1/"
   xmlns:cc="http://creativecommons.org/ns#"
   xmlns:rdf="http://www.w3.org/1999/02/22-rdf-syntax-ns#"
   xmlns:svg="http://www.w3.org/2000/svg"
   xmlns="http://www.w3.org/2000/svg"
   xmlns:sodipodi="http://sodipodi.sourceforge.net/DTD/sodipodi-0.dtd"
   xmlns:inkscape="http://www.inkscape.org/namespaces/inkscape"
   width="31.452343mm"
   height="37.479881mm"
   viewBox="0 0 31.452343 37.479881"
   version="1.1"
   id="svg39953"
   inkscape:version="0.92.4 (5da689c313, 2019-01-14)"
   sodipodi:docname="F14.svg">
  <defs
     id="defs39947" />
  <sodipodi:namedview
     id="base"
     pagecolor="#ffffff"
     bordercolor="#666666"
     borderopacity="1.0"
     inkscape:pageopacity="0.0"
     inkscape:pageshadow="2"
     inkscape:zoom="0.35"
     inkscape:cx="-337.54492"
     inkscape:cy="-340.47532"
     inkscape:document-units="mm"
     inkscape:current-layer="layer1"
     showgrid="false"
     fit-margin-top="0"
     fit-margin-left="0"
     fit-margin-right="0"
     fit-margin-bottom="0"
     inkscape:window-width="1920"
     inkscape:window-height="1017"
     inkscape:window-x="-8"
     inkscape:window-y="-8"
     inkscape:window-maximized="1" />
  <metadata
     id="metadata39950">
    <rdf:RDF>
      <cc:Work
         rdf:about="">
        <dc:format>image/svg+xml</dc:format>
        <dc:type
           rdf:resource="http://purl.org/dc/dcmitype/StillImage" />
        <dc:title></dc:title>
      </cc:Work>
    </rdf:RDF>
  </metadata>
  <g
     inkscape:label="Layer 1"
     inkscape:groupmode="layer"
     id="layer1"
     transform="translate(-1.9962606,-21.269358)">
    <g
       aria-label="ð“„"
       transform="scale(0.26458333)"
       style="font-style:normal;font-variant:normal;font-weight:normal;font-stretch:normal;font-size:192px;line-height:1.25;font-family:sans-serif;-inkscape-font-specification:sans-serif;font-variant-ligatures:normal;font-variant-caps:normal;font-variant-numeric:normal;font-feature-settings:normal;text-align:start;letter-spacing:0px;word-spacing:0px;writing-mode:lr-tb;text-anchor:start;fill:#000000;fill-opacity:1;stroke:none"
       id="flowRoot40498">
      <path
         d="m 126.41992,144.13812 q -5.71875,4.3125 -9.84375,12.84375 -2.0625,4.21875 -4.125,11.53125 -1.96875,7.21875 -4.59375,17.53125 -0.84375,3.375 -1.40625,5.625 -0.5625,2.25 -0.84375,3.5625 -0.375,1.59375 -0.46875,2.34375 -0.46875,1.21875 -3.09375,3.5625 -2.624998,2.25 -8.249998,6 -5.625,3.75 -8.8125,6.1875 -3.1875,2.34375 -3.9375,3.5625 -1.59375,2.34375 -1.59375,3.65625 l -1.59375,1.5 h -21.46875 l -1.40625,-1.21875 q -0.5625,-5.625 -10.125,-11.53125 -4.6875,-2.90625 -7.59375,-4.6875 -2.8125,-1.875 -4.875,-3.46875 -2.25,-1.59375 -2.71875,-3.28125 -0.28125,-0.9375 -1.3125,-5.25 -0.9375,-4.40625 -2.53125,-12.375 -3.28125,-15.84375 -7.59375,-23.8125 -4.21875,-7.96875 -10.6875001,-12.65625 l 1.40625,-2.53125 q 3.9375001,0.65625 6.3750001,1.40625 2.53125,0.75 3.75,1.5 2.53125,1.59375 4.96875,4.21875 2.53125,2.4375 5.53125,7.96875 1.5,2.71875 2.8125,7.3125 1.40625,4.5 2.71875,11.0625 1.3125,6.46875 2.53125,11.15625 1.21875,4.59375 2.4375,7.40625 4.59375,4.03125 13.6875,8.25 8.90625,4.03125 13.96875,8.15625 2.71875,-3 6,-5.0625 3.375,-2.0625 6.9375,-3.84375 l 7.03125,-3.46875 q 3.375,-1.59375 6.75,-4.125 2.90625,-6 5.906248,-20.71875 2.90625,-14.71875 8.15625,-21.75 5.34375,-7.03125 12.84375,-8.625 l 4.5,-0.9375 z M 91.451172,82.825624 v 4.5 q -7.78125,-2.25 -11.53125,-2.25 -2.25,0 -4.125,0.5625 -1.78125,0.5625 -3.09375,1.96875 -1.3125,1.3125 -2.0625,3.65625 -0.65625,2.34375 -0.65625,6 V 202.82562 h -4.6875 v -51.84375 q -4.875,-0.1875 -7.96875,-3.09375 -3,-2.90625 -3,-7.3125 0,-2.0625 0.75,-3.9375 0.84375,-1.875 2.34375,-3.1875 1.5,-1.40625 3.46875,-2.15625 1.96875,-0.84375 4.40625,-0.9375 V 97.263124 q 0,-8.53125 3.28125,-12.65625 3.375,-4.21875 11.15625,-4.21875 5.71875,0 11.71875,2.4375 z m -23.4375,131.906246 -2.90625,-0.75 0.75,-1.96875 q -2.0625,-1.78125 -4.875,-3.46875 -2.71875,-1.6875 -6.1875,-3.46875 -6.9375,-3.46875 -9.28125,-4.78125 l -1.875,-1.03125 q -4.3125,-2.34375 -5.53125,-3.65625 -1.3125,-1.40625 -2.53125,-5.34375 -0.65625,-1.96875 -1.40625,-5.25 -0.75,-3.375 -1.78125,-8.15625 -0.9375,-4.78125 -1.78125,-8.15625 -0.75,-3.46875 -1.40625,-5.625 -0.65625,-2.15625 -1.59375,-4.125 -0.84375,-1.96875 -1.875,-3.84375 -2.15625,-3.65625 -4.875,-6.09375 -2.625,-2.4375 -6.65625,-3.65625 4.3125,4.40625 7.5,11.15625 3.28125,6.75 6.9375,22.78125 l 1.78125,7.875 q 0.28125,1.40625 0.5625,2.15625 l 1.6875,7.96875 q 2.53125,3.28125 13.3125,9.28125 10.78125,6 11.8125,12.46875 h 18.9375 q 0.84375,-3.09375 3.9375,-6 3.09375,-2.90625 7.59375,-5.71875 l 5.0625,-3.1875 q 2.4375,-1.59375 4.6875,-3.28125 2.249998,-1.78125 3.749998,-3.5625 l 2.8125,-10.40625 q 0.0937,-0.46875 1.21875,-4.78125 1.21875,-4.3125 3.375,-12.65625 4.3125,-16.59375 11.53125,-24.1875 -5.90625,1.875 -10.3125,8.0625 -4.21875,6.09375 -7.03125,18.84375 l -1.6875,7.78125 q -2.437498,11.15625 -4.218748,14.0625 -1.78125,2.90625 -8.625,6.09375 l -2.625,1.21875 q -11.4375,5.53125 -14.625,8.625 -3,3 -3.5625,4.78125 z m -10.59375,-74.15625 q 0,3.28125 1.96875,5.25 2.0625,1.96875 5.90625,2.15625 v -14.625 q -3.75,0.1875 -5.8125,2.34375 -2.0625,2.0625 -2.0625,4.875 z"
         id="path40506"
         inkscape:connector-curvature="0" />
    </g>
  </g>
</svg>
