<?xml version="1.0" encoding="UTF-8" standalone="no"?>
<!-- Created with Inkscape (http://www.inkscape.org/) -->

<svg
   xmlns:dc="http://purl.org/dc/elements/1.1/"
   xmlns:cc="http://creativecommons.org/ns#"
   xmlns:rdf="http://www.w3.org/1999/02/22-rdf-syntax-ns#"
   xmlns:svg="http://www.w3.org/2000/svg"
   xmlns="http://www.w3.org/2000/svg"
   xmlns:sodipodi="http://sodipodi.sourceforge.net/DTD/sodipodi-0.dtd"
   xmlns:inkscape="http://www.inkscape.org/namespaces/inkscape"
   width="37.603905mm"
   height="37.901562mm"
   viewBox="0 0 37.603905 37.901562"
   version="1.1"
   id="svg5097"
   inkscape:version="0.92.4 (5da689c313, 2019-01-14)"
   sodipodi:docname="F15.svg">
  <defs
     id="defs5091" />
  <sodipodi:namedview
     id="base"
     pagecolor="#ffffff"
     bordercolor="#666666"
     borderopacity="1.0"
     inkscape:pageopacity="0.0"
     inkscape:pageshadow="2"
     inkscape:zoom="0.35"
     inkscape:cx="-334.6875"
     inkscape:cy="-377.61789"
     inkscape:document-units="mm"
     inkscape:current-layer="layer1"
     showgrid="false"
     fit-margin-top="0"
     fit-margin-left="0"
     fit-margin-right="0"
     fit-margin-bottom="0"
     inkscape:window-width="1920"
     inkscape:window-height="1017"
     inkscape:window-x="-8"
     inkscape:window-y="-8"
     inkscape:window-maximized="1" />
  <metadata
     id="metadata5094">
    <rdf:RDF>
      <cc:Work
         rdf:about="">
        <dc:format>image/svg+xml</dc:format>
        <dc:type
           rdf:resource="http://purl.org/dc/dcmitype/StillImage" />
        <dc:title></dc:title>
      </cc:Work>
    </rdf:RDF>
  </metadata>
  <g
     inkscape:label="Layer 1"
     inkscape:groupmode="layer"
     id="layer1"
     transform="translate(-1.2402344,-11.020371)">
    <g
       aria-label="𓄎"
       transform="scale(0.26458333)"
       style="font-style:normal;font-variant:normal;font-weight:normal;font-stretch:normal;font-size:192px;line-height:1.25;font-family:sans-serif;-inkscape-font-specification:'sans-serif, Normal';font-variant-ligatures:normal;font-variant-caps:normal;font-variant-numeric:normal;font-feature-settings:normal;text-align:start;letter-spacing:0px;word-spacing:0px;writing-mode:lr-tb;text-anchor:start;fill:#000000;fill-opacity:1;stroke:none"
       id="flowRoot5642">
      <path
         d="m 99.5625,44.089296 v 4.5 q -7.78125,-2.25 -11.53125,-2.25 -4.5,0 -7.21875,2.8125 -2.71875,2.71875 -2.71875,9.375 V 118.7143 q 11.25,0.84375 17.0625,7.78125 5.8125,6.9375 5.8125,16.3125 0,3.9375 -1.21875,7.6875 -1.125,3.65625 -3.5625,6.75 l -1.875,2.0625 4.21875,-1.78125 q 11.0625,-4.78125 13.875,-12.75 1.5,-4.03125 2.71875,-9.65625 1.3125,-5.71875 2.53125,-13.03125 2.4375,-14.8125 8.34375,-23.343754 6,-8.625 19.875,-10.5 l 0.9375,2.90625 q -8.15625,5.25 -10.3125,8.15625 -2.15625,2.718754 -4.78125,10.687504 -2.71875,8.15625 -7.3125,29.71875 l -1.21875,5.90625 q -0.9375,4.3125 -1.5,6.9375 -0.5625,2.53125 -0.84375,3.5625 -0.46875,1.96875 -4.125,4.40625 l -4.125,2.8125 q -0.65625,0.46875 -3.5625,2.25 -2.8125,1.78125 -7.96875,4.96875 -10.3125,6.375 -10.6875,12.84375 l -1.59375,1.5 H 63.09375 L 61.6875,183.68305 Q 61.125,175.7143 47.90625,169.1518 q -13.03125,-6.5625 -15.75,-11.0625 -1.3125,-2.25 -2.4375,-6.46875 -1.125,-4.3125 -2.53125,-11.0625 l -3.75,-18.65625 Q 22.5,117.30805 21,112.99555 19.59375,108.5893 17.34375,104.6518 15.1875,100.7143 12,97.245546 8.90625,93.683046 4.6875,90.776796 l 1.40625,-2.53125 q 7.125,0.84375 13.03125,3.9375 5.90625,3 9.9375,10.875004 4.125,7.875 6.1875,21.375 1.03125,6.75 1.96875,11.34375 1.03125,4.59375 1.875,7.3125 1.875,5.4375 5.0625,8.90625 3.46875,3.65625 15,8.90625 -3.9375,-3.46875 -6.09375,-7.96875 Q 51,148.3393 51,143.2768 q 0,-9 5.625,-16.21875 5.8125,-7.21875 16.78125,-8.34375 v -9.5625 q -4.875,-0.1875 -7.96875,-3.09375 -3,-2.90625 -3,-7.312504 0,-2.0625 0.75,-3.9375 0.84375,-1.875 2.34375,-3.1875 1.5,-1.40625 3.46875,-2.15625 1.96875,-0.84375 4.40625,-0.9375 v -30 q 0,-8.53125 3.28125,-12.65625 3.375,-4.21875 11.15625,-4.21875 5.71875,0 11.71875,2.4375 z M 72.28125,121.5268 q -7.875,0.46875 -13.03125,6.9375 -5.15625,6.375 -5.15625,14.8125 0,8.625 6.09375,14.53125 6.1875,5.90625 15,5.90625 10.5,0 16.59375,-6.1875 6.09375,-6.28125 6.09375,-15 0,-7.6875 -5.0625,-14.15625 -2.625,-3.28125 -6.65625,-5.0625 Q 82.125,121.5268 76.6875,121.5268 Z m 4.40625,54.75 -2.90625,-0.75 0.9375,-2.53125 q -5.25,-4.6875 -18.09375,-10.125 -12.9375,-5.4375 -17.15625,-12 -4.125,-6.5625 -6.09375,-21 -1.96875,-14.8125 -6.28125,-24.1875 -4.21875,-9.468754 -15.375,-13.312504 11.15625,10.031254 14.625,28.031254 1.78125,9.09375 2.53125,13.40625 0.84375,4.3125 0.75,3.84375 l 0.75,4.21875 q 2.53125,13.78125 5.71875,16.40625 3.1875,2.71875 15.1875,9.28125 Q 63.1875,174.2143 64.5,181.9018 h 22.96875 q 0.09375,-3.46875 4.3125,-7.96875 4.21875,-4.40625 13.6875,-9.75 9.5625,-5.34375 12.28125,-8.625 l 5.34375,-23.8125 q 4.875,-21.46875 7.59375,-28.125 2.8125,-6.656254 8.34375,-10.875004 -6.1875,1.96875 -11.15625,8.625004 -4.875,6.5625 -7.6875,22.78125 l -1.59375,9 q -1.96875,11.4375 -6,17.625 -4.125,6.375 -16.6875,11.25 Q 83.25,166.99555 78,173.74555 Z M 65.53125,98.745546 q 0,3.281254 1.96875,5.250004 2.0625,1.96875 5.90625,2.15625 V 91.526796 q -3.75,0.1875 -5.8125,2.34375 -2.0625,2.0625 -2.0625,4.875 z M 70.125,166.24555 q 1.78125,1.03125 3.375,2.0625 1.6875,1.03125 3.09375,2.34375 1.21875,-1.3125 2.4375,-2.4375 1.3125,-1.125 2.71875,-2.15625 -1.59375,0.375 -3.28125,0.5625 -1.6875,0.0937 -3.28125,0.0937 -0.65625,0 -1.3125,0 -0.5625,-0.0937 -1.21875,-0.1875 z"
         id="path5650"
         inkscape:connector-curvature="0" />
    </g>
  </g>
</svg>
