<?xml version="1.0" encoding="UTF-8" standalone="no"?>
<!-- Created with Inkscape (http://www.inkscape.org/) -->

<svg
   xmlns:dc="http://purl.org/dc/elements/1.1/"
   xmlns:cc="http://creativecommons.org/ns#"
   xmlns:rdf="http://www.w3.org/1999/02/22-rdf-syntax-ns#"
   xmlns:svg="http://www.w3.org/2000/svg"
   xmlns="http://www.w3.org/2000/svg"
   xmlns:sodipodi="http://sodipodi.sourceforge.net/DTD/sodipodi-0.dtd"
   xmlns:inkscape="http://www.inkscape.org/namespaces/inkscape"
   width="37.752731mm"
   height="19.397264mm"
   viewBox="0 0 37.752731 19.397264"
   version="1.1"
   id="svg5659"
   inkscape:version="0.92.4 (5da689c313, 2019-01-14)"
   sodipodi:docname="F16.svg">
  <defs
     id="defs5653" />
  <sodipodi:namedview
     id="base"
     pagecolor="#ffffff"
     bordercolor="#666666"
     borderopacity="1.0"
     inkscape:pageopacity="0.0"
     inkscape:pageshadow="2"
     inkscape:zoom="0.35"
     inkscape:cx="-346.11523"
     inkscape:cy="-374.76047"
     inkscape:document-units="mm"
     inkscape:current-layer="layer1"
     showgrid="false"
     fit-margin-top="0"
     fit-margin-left="0"
     fit-margin-right="0"
     fit-margin-bottom="0"
     inkscape:window-width="1920"
     inkscape:window-height="1017"
     inkscape:window-x="-8"
     inkscape:window-y="-8"
     inkscape:window-maximized="1" />
  <metadata
     id="metadata5656">
    <rdf:RDF>
      <cc:Work
         rdf:about="">
        <dc:format>image/svg+xml</dc:format>
        <dc:type
           rdf:resource="http://purl.org/dc/dcmitype/StillImage" />
        <dc:title></dc:title>
      </cc:Work>
    </rdf:RDF>
  </metadata>
  <g
     inkscape:label="Layer 1"
     inkscape:groupmode="layer"
     id="layer1"
     transform="translate(-4.2638223,-30.280694)">
    <g
       aria-label="ð“„"
       transform="scale(0.26458333)"
       style="font-style:normal;font-variant:normal;font-weight:normal;font-stretch:normal;font-size:192px;line-height:1.25;font-family:sans-serif;-inkscape-font-specification:'sans-serif, Normal';font-variant-ligatures:normal;font-variant-caps:normal;font-variant-numeric:normal;font-feature-settings:normal;text-align:start;letter-spacing:0px;word-spacing:0px;writing-mode:lr-tb;text-anchor:start;fill:#000000;fill-opacity:1;stroke:none"
       id="flowRoot6204">
      <path
         d="m 158.80273,171.16547 v 15.09375 l -1.59375,1.5 q -28.03125,-0.375 -39.5625,-2.15625 -11.4375,-1.78125 -20.437496,-5.25 -9,-3.46875 -18.46875,-9.46875 -9.375,-6.09375 -22.21875,-21.09375 -12.84375,-15 -19.3125,-19.96875 -6.46875,-4.96875 -21.09375,-12.5625 l 0.9375,-2.8125 q 16.21875,1.96875 24,5.71875 7.78125,3.75 17.8125,13.6875 10.125,9.9375 20.15625,16.6875 10.03125,6.65625 26.437496,11.90625 16.5,5.15625 51.75,7.21875 z m -3,13.59375 v -12.09375 q -33,-1.96875 -50.53125,-7.3125 -17.437496,-5.34375 -28.031246,-12.375 -10.59375,-7.125 -20.53125,-16.96875 -9.84375,-9.9375 -16.875,-13.03125 -7.03125,-3.1875 -14.90625,-4.5 18.1875,10.125 28.5,23.34375 10.40625,13.21875 21.9375,22.78125 11.53125,9.46875 28.031246,14.625 16.5,5.15625 52.40625,5.53125 z"
         id="path6212"
         inkscape:connector-curvature="0" />
    </g>
  </g>
</svg>
