<?xml version="1.0" encoding="UTF-8" standalone="no"?>
<!-- Created with Inkscape (http://www.inkscape.org/) -->

<svg
   xmlns:dc="http://purl.org/dc/elements/1.1/"
   xmlns:cc="http://creativecommons.org/ns#"
   xmlns:rdf="http://www.w3.org/1999/02/22-rdf-syntax-ns#"
   xmlns:svg="http://www.w3.org/2000/svg"
   xmlns="http://www.w3.org/2000/svg"
   xmlns:sodipodi="http://sodipodi.sourceforge.net/DTD/sodipodi-0.dtd"
   xmlns:inkscape="http://www.inkscape.org/namespaces/inkscape"
   width="37.752735mm"
   height="22.721094mm"
   viewBox="0 0 37.752735 22.721094"
   version="1.1"
   id="svg6221"
   inkscape:version="0.92.4 (5da689c313, 2019-01-14)"
   sodipodi:docname="F17.svg">
  <defs
     id="defs6215" />
  <sodipodi:namedview
     id="base"
     pagecolor="#ffffff"
     bordercolor="#666666"
     borderopacity="1.0"
     inkscape:pageopacity="0.0"
     inkscape:pageshadow="2"
     inkscape:zoom="0.35"
     inkscape:cx="-363.25977"
     inkscape:cy="-346.19016"
     inkscape:document-units="mm"
     inkscape:current-layer="layer1"
     showgrid="false"
     fit-margin-top="0"
     fit-margin-left="0"
     fit-margin-right="0"
     fit-margin-bottom="0"
     inkscape:window-width="1920"
     inkscape:window-height="1017"
     inkscape:window-x="-8"
     inkscape:window-y="-8"
     inkscape:window-maximized="1" />
  <metadata
     id="metadata6218">
    <rdf:RDF>
      <cc:Work
         rdf:about="">
        <dc:format>image/svg+xml</dc:format>
        <dc:type
           rdf:resource="http://purl.org/dc/dcmitype/StillImage" />
        <dc:title></dc:title>
      </cc:Work>
    </rdf:RDF>
  </metadata>
  <g
     inkscape:label="Layer 1"
     inkscape:groupmode="layer"
     id="layer1"
     transform="translate(-8.7999796,-34.516094)">
    <g
       aria-label="ð“„"
       transform="scale(0.26458333)"
       style="font-style:normal;font-variant:normal;font-weight:normal;font-stretch:normal;font-size:192px;line-height:1.25;font-family:sans-serif;-inkscape-font-specification:'sans-serif, Normal';font-variant-ligatures:normal;font-variant-caps:normal;font-variant-numeric:normal;font-feature-settings:normal;text-align:start;letter-spacing:0px;word-spacing:0px;writing-mode:lr-tb;text-anchor:start;fill:#000000;fill-opacity:1;stroke:none"
       id="flowRoot6766">
      <path
         d="m 126.44727,160.54828 q -3,0 -5.15625,1.21875 -2.15625,1.125 -4.125,3.65625 l -3,-0.84375 v -12.9375 h -11.4375 l -15.187504,4.5 3.375,13.03125 -4.21875,3.09375 q 14.718754,12 32.625004,18 17.90625,6 55.03125,7.96875 l 1.59375,1.5 v 15.09375 l -1.59375,1.5 q -31.21875,0 -46.5,-3.28125 -15.1875,-3.375 -26.34375,-9.28125 -11.156254,-5.90625 -26.718754,-22.78125 l -1.6875,1.21875 5.53125,11.34375 -5.53125,9.75 v 11.53125 h -4.59375 v -11.53125 l 5.34375,-9.75 -6.28125,-12.65625 4.40625,-3.09375 q -8.53125,-9.09375 -18.1875,-17.53125 -9.5625,-8.53125 -20.53125,-14.4375 l 0.9375,-2.8125 q 9.375,1.03125 16.40625,3.5625 7.125,2.4375 13.40625,6.84375 6.28125,4.40625 11.53125,9.09375 l 8.15625,7.03125 2.4375,-1.6875 -3.5625,-14.4375 18.093754,-5.8125 h 13.5 v -11.15625 l 2.34375,-1.5 q 2.53125,2.34375 4.6875,3.28125 2.15625,0.9375 4.3125,0.9375 2.71875,0 7.5,-1.96875 4.875,-1.96875 7.21875,-3.09375 l 5.0625,-2.34375 q 2.53125,-1.125 5.90625,-1.3125 h 1.03125 q 8.25,0 14.4375,4.78125 6.28125,4.78125 6.28125,13.96875 0,8.34375 -5.8125,13.96875 -5.71875,5.625 -15.375,5.625 -6.5625,0 -9.1875,-1.6875 -2.625,-1.78125 -7.3125,-4.125 -4.6875,-2.4375 -8.8125,-2.4375 z m -35.156254,18.75 q -1.5,-1.03125 -3.5625,-2.53125 -1.96875,-1.59375 -3.28125,-2.8125 l -7.03125,5.4375 q 13.5,15.09375 24.843754,21.375 11.4375,6.28125 26.4375,9.46875 15,3.09375 44.25,3.09375 v -12.1875 q -21.46875,-1.03125 -36.5625,-3.75 -15,-2.8125 -26.53125,-7.6875 z m 60.375004,-13.5 q 8.4375,0 13.3125,-4.59375 4.96875,-4.6875 4.96875,-12 0,-7.21875 -4.78125,-11.4375 -4.78125,-4.21875 -12.75,-4.21875 h -1.21875 q -4.59375,0.28125 -12.1875,4.5 -7.59375,4.21875 -13.6875,4.21875 l -0.75,-0.0937 q -3.75,0 -7.40625,-2.71875 v 21.5625 q 2.0625,-1.78125 4.21875,-2.625 2.15625,-0.9375 4.875,-0.9375 4.40625,0 9.65625,2.625 5.34375,2.53125 7.59375,4.125 2.34375,1.59375 8.15625,1.59375 z M 41.228516,146.95453 q 7.21875,4.6875 15.46875,11.8125 8.34375,7.125 18,17.34375 l 6.75,-4.875 -9.1875,-7.78125 q -7.6875,-6.375 -15.375,-10.59375 -7.59375,-4.3125 -15.65625,-5.90625 z"
         id="path6774"
         inkscape:connector-curvature="0" />
    </g>
  </g>
</svg>
