<?xml version="1.0" encoding="UTF-8" standalone="no"?>
<!-- Created with Inkscape (http://www.inkscape.org/) -->

<svg
   xmlns:dc="http://purl.org/dc/elements/1.1/"
   xmlns:cc="http://creativecommons.org/ns#"
   xmlns:rdf="http://www.w3.org/1999/02/22-rdf-syntax-ns#"
   xmlns:svg="http://www.w3.org/2000/svg"
   xmlns="http://www.w3.org/2000/svg"
   xmlns:sodipodi="http://sodipodi.sourceforge.net/DTD/sodipodi-0.dtd"
   xmlns:inkscape="http://www.inkscape.org/namespaces/inkscape"
   width="37.951172mm"
   height="18.380274mm"
   viewBox="0 0 37.951172 18.380274"
   version="1.1"
   id="svg6783"
   inkscape:version="0.92.4 (5da689c313, 2019-01-14)"
   sodipodi:docname="F19.svg">
  <defs
     id="defs6777" />
  <sodipodi:namedview
     id="base"
     pagecolor="#ffffff"
     bordercolor="#666666"
     borderopacity="1.0"
     inkscape:pageopacity="0.0"
     inkscape:pageshadow="2"
     inkscape:zoom="0.35"
     inkscape:cx="-331.83008"
     inkscape:cy="-326.19016"
     inkscape:document-units="mm"
     inkscape:current-layer="layer1"
     showgrid="false"
     fit-margin-top="0"
     fit-margin-left="0"
     fit-margin-right="0"
     fit-margin-bottom="0"
     inkscape:window-width="1920"
     inkscape:window-height="1017"
     inkscape:window-x="-8"
     inkscape:window-y="-8"
     inkscape:window-maximized="1" />
  <metadata
     id="metadata6780">
    <rdf:RDF>
      <cc:Work
         rdf:about="">
        <dc:format>image/svg+xml</dc:format>
        <dc:type
           rdf:resource="http://purl.org/dc/dcmitype/StillImage" />
        <dc:title></dc:title>
      </cc:Work>
    </rdf:RDF>
  </metadata>
  <g
     inkscape:label="Layer 1"
     inkscape:groupmode="layer"
     id="layer1"
     transform="translate(-0.48420816,-44.148581)">
    <g
       aria-label="𓄒"
       transform="scale(0.26458333)"
       style="font-style:normal;font-variant:normal;font-weight:normal;font-stretch:normal;font-size:192px;line-height:1.25;font-family:sans-serif;-inkscape-font-specification:'sans-serif, Normal';font-variant-ligatures:normal;font-variant-caps:normal;font-variant-numeric:normal;font-feature-settings:normal;text-align:start;letter-spacing:0px;word-spacing:0px;writing-mode:lr-tb;text-anchor:start;fill:#000000;fill-opacity:1;stroke:none"
       id="flowRoot7328">
      <path
         d="m 59.861328,221.14203 q 19.6875,-2.34375 28.78125,-5.4375 9.1875,-3.09375 16.593752,-8.53125 7.5,-5.4375 14.0625,-14.71875 l -10.125,-15.84375 v -1.5 q 1.78125,-3.375 3.5625,-4.96875 1.78125,-1.59375 7.78125,-3.28125 l 1.78125,0.46875 q 2.0625,2.4375 3.1875,5.625 1.21875,3.1875 2.25,6.1875 4.78125,-5.625 7.96875,-6.84375 3.28125,-1.21875 5.71875,-1.21875 h 0.5625 q 1.5,0 3.28125,1.78125 l -1.40625,11.25 q -0.5625,4.21875 -1.03125,9.09375 -0.46875,4.875 -0.46875,9.375 0,6.65625 -5.0625,15.375 -4.96875,8.625 -16.78125,13.5 -11.71875,4.875 -23.718752,4.875 H 6.0488281 l -1.40625,-1.78125 v -8.53125 l -2.8125,-7.03125 0.5625,-1.125 q 0.28125,-0.5625 0.65625,-1.125 2.71875,0 4.875,1.125 2.2499999,1.125 4.1249999,2.8125 2.25,-2.71875 3.1875,-5.8125 l 1.875,-1.125 q 3.09375,0.28125 5.53125,1.875 2.4375,1.5 4.59375,3.5625 1.40625,-1.40625 2.625,-3.09375 l 2.25,-3.1875 q 0.5625,-0.1875 1.03125,-0.1875 0.5625,0 1.125,-0.28125 1.875,1.125 3.46875,2.4375 1.6875,1.3125 3.28125,2.90625 l 6.46875,-5.25 1.40625,-0.28125 q 3.46875,1.40625 6,3.65625 2.625,2.25 4.96875,5.25 z m -3.46875,3.09375 q -11.15625,0 -22.40625,0.84375 -11.15625,0.75 -22.21875,1.6875 l -4.0312499,0.375 v 2.15625 q 0,1.40625 -0.09375,4.03125 H 96.798828 q 11.156252,0 22.125002,-4.5 11.0625,-4.5 15.75,-12.375 4.78125,-7.875 4.78125,-14.53125 0,-6.1875 0.84375,-13.78125 0.84375,-7.59375 1.78125,-13.96875 -5.71875,0 -8.90625,3.46875 -3.09375,3.46875 -4.875,5.25 l -3.09375,5.25 -2.90625,5.25 q -7.21875,10.21875 -14.71875,15.9375 -7.40625,5.625 -16.593752,8.90625 -9.09375,3.28125 -31.5,6 z m 69.000002,-42.375 q -1.03125,-3.09375 -2.15625,-6.09375 -1.03125,-3.09375 -2.71875,-5.8125 -3.75,1.03125 -4.96875,1.6875 -1.21875,0.65625 -3.375,4.125 l 8.8125,13.78125 z m -107.625002,34.875 q -0.84375,1.96875 -1.875,3.65625 -0.9375,1.6875 -2.34375,3.1875 l 8.34375,-0.65625 q 12.65625,-0.9375 22.3125,-1.3125 9.65625,-0.375 10.03125,-0.375 h 1.875 q -1.59375,-1.875 -3.375,-3.375 -1.6875,-1.5 -3.9375,-2.53125 l -7.03125,5.625 -1.875,-0.0937 q -1.40625,-1.40625 -2.90625,-2.71875 -1.40625,-1.40625 -3.09375,-2.53125 -2.25,3.375 -5.34375,6.5625 h -1.125 l -1.125,0.1875 q -1.875,-1.78125 -3.9375,-3.375 -1.96875,-1.6875 -4.59375,-2.25 z m -12.2812499,3.375 q 0.5625,1.5 0.9375,2.4375 0.46875,0.9375 0.65625,1.59375 l 4.0312499,-0.375 q -1.3124999,-1.21875 -2.7187499,-2.0625 -1.3125,-0.9375 -2.90625,-1.59375 z"
         id="path7336"
         inkscape:connector-curvature="0" />
    </g>
  </g>
</svg>
