<?xml version="1.0" encoding="UTF-8" standalone="no"?>
<!-- Created with Inkscape (http://www.inkscape.org/) -->

<svg
   xmlns:dc="http://purl.org/dc/elements/1.1/"
   xmlns:cc="http://creativecommons.org/ns#"
   xmlns:rdf="http://www.w3.org/1999/02/22-rdf-syntax-ns#"
   xmlns:svg="http://www.w3.org/2000/svg"
   xmlns="http://www.w3.org/2000/svg"
   xmlns:sodipodi="http://sodipodi.sourceforge.net/DTD/sodipodi-0.dtd"
   xmlns:inkscape="http://www.inkscape.org/namespaces/inkscape"
   width="16.966406mm"
   height="13.196094mm"
   viewBox="0 0 16.966406 13.196094"
   version="1.1"
   id="svg34895"
   inkscape:version="0.92.4 (5da689c313, 2019-01-14)"
   sodipodi:docname="F1A.svg">
  <defs
     id="defs34889" />
  <sodipodi:namedview
     id="base"
     pagecolor="#ffffff"
     bordercolor="#666666"
     borderopacity="1.0"
     inkscape:pageopacity="0.0"
     inkscape:pageshadow="2"
     inkscape:zoom="0.35"
     inkscape:cx="-340.40234"
     inkscape:cy="-366.09641"
     inkscape:document-units="mm"
     inkscape:current-layer="layer1"
     showgrid="false"
     fit-margin-top="0"
     fit-margin-left="0"
     fit-margin-right="0"
     fit-margin-bottom="0"
     inkscape:window-width="1920"
     inkscape:window-height="1017"
     inkscape:window-x="-8"
     inkscape:window-y="-8"
     inkscape:window-maximized="1" />
  <metadata
     id="metadata34892">
    <rdf:RDF>
      <cc:Work
         rdf:about="">
        <dc:format>image/svg+xml</dc:format>
        <dc:type
           rdf:resource="http://purl.org/dc/dcmitype/StillImage" />
        <dc:title></dc:title>
      </cc:Work>
    </rdf:RDF>
  </metadata>
  <g
     inkscape:label="Layer 1"
     inkscape:groupmode="layer"
     id="layer1"
     transform="translate(-2.7522868,-38.774232)">
    <g
       aria-label="𓃿"
       transform="scale(0.26458333)"
       style="font-style:normal;font-variant:normal;font-weight:normal;font-stretch:normal;font-size:192px;line-height:1.25;font-family:sans-serif;-inkscape-font-specification:sans-serif;font-variant-ligatures:normal;font-variant-caps:normal;font-variant-numeric:normal;font-feature-settings:normal;text-align:start;letter-spacing:0px;word-spacing:0px;writing-mode:lr-tb;text-anchor:start;fill:#000000;fill-opacity:1;stroke:none"
       id="flowRoot35440">
      <path
         d="m 45.652344,146.54828 q 3.5625,0.1875 6.5625,1.59375 3,1.40625 4.3125,5.0625 l 2.34375,-1.6875 q 1.96875,-1.5 4.6875,-3 2.71875,-1.5 4.3125,-1.59375 h 0.375 q 2.53125,0 4.40625,1.875 1.875,1.875 1.875,4.5 v 0.28125 q 0,1.875 -1.59375,3.65625 -1.59375,1.6875 -8.625,4.78125 2.625,2.625 3.65625,5.34375 1.125,2.71875 1.125,5.625 0,6 -3.28125,11.90625 -3.28125,5.90625 -7.59375,8.71875 -4.21875,2.8125 -12,2.8125 h -1.6875 q -2.25,0 -4.40625,-0.0937 h -5.8125 q -5.0625,0 -11.4375,-1.3125 -6.375,-1.21875 -9.46875,-4.125 -3,-3 -3,-5.0625 0,-1.6875 1.59375,-4.6875 1.6875,-3.09375 6.1875,-6.5625 l 5.15625,-3.9375 q 5.15625,-4.03125 6.75,-10.03125 1.6875,-6 5.15625,-10.03125 3.46875,-4.03125 10.40625,-4.03125 z m 0,3 q -8.90625,0 -11.90625,9.9375 -2.90625,9.9375 -10.5,15 -7.59375,5.0625 -9.84375,11.25 1.5,3.84375 7.03125,5.71875 5.53125,1.78125 12.9375,1.78125 2.0625,0 4.6875,0.1875 2.71875,0.1875 5.4375,0.28125 h 1.78125 q 6.75,0 10.3125,-1.96875 3.65625,-2.0625 7.125,-7.5 3.46875,-5.53125 3.46875,-11.0625 0,-2.625 -1.125,-5.15625 -1.125,-2.625 -4.40625,-5.34375 0.1875,-0.65625 0.1875,-1.21875 0,-0.65625 0.28125,-1.3125 0.28125,0 4.78125,-1.875 4.5,-1.96875 5.4375,-4.5 -0.1875,-0.84375 -0.1875,-1.59375 0,-0.5625 -0.46875,-1.21875 -0.375,-0.65625 -1.3125,-0.84375 l -1.3125,-0.1875 q -1.6875,0.46875 -3.9375,1.78125 -2.15625,1.21875 -4.96875,3.28125 l -2.625,1.78125 q -0.5625,-0.1875 -1.21875,-0.46875 -0.5625,-0.28125 -1.125,-0.46875 -0.9375,-3.65625 -3,-4.875 -1.96875,-1.21875 -5.53125,-1.40625 z m -3.5625,19.59375 q -1.125,1.125 -2.625,1.6875 -0.84375,0 -0.84375,-1.6875 l 0.84375,-1.6875 q 0.9375,0 2.625,1.6875 z"
         id="path35448"
         inkscape:connector-curvature="0" />
    </g>
  </g>
</svg>
