<?xml version="1.0" encoding="UTF-8" standalone="no"?>
<!-- Created with Inkscape (http://www.inkscape.org/) -->

<svg
   xmlns:dc="http://purl.org/dc/elements/1.1/"
   xmlns:cc="http://creativecommons.org/ns#"
   xmlns:rdf="http://www.w3.org/1999/02/22-rdf-syntax-ns#"
   xmlns:svg="http://www.w3.org/2000/svg"
   xmlns="http://www.w3.org/2000/svg"
   xmlns:sodipodi="http://sodipodi.sourceforge.net/DTD/sodipodi-0.dtd"
   xmlns:inkscape="http://www.inkscape.org/namespaces/inkscape"
   width="31.576366mm"
   height="28.054102mm"
   viewBox="0 0 31.576366 28.054102"
   version="1.1"
   id="svg10433"
   inkscape:version="0.92.4 (5da689c313, 2019-01-14)"
   sodipodi:docname="F2.svg">
  <defs
     id="defs10427" />
  <sodipodi:namedview
     id="base"
     pagecolor="#ffffff"
     bordercolor="#666666"
     borderopacity="1.0"
     inkscape:pageopacity="0.0"
     inkscape:pageshadow="2"
     inkscape:zoom="0.35"
     inkscape:cx="-366.11523"
     inkscape:cy="-377.71164"
     inkscape:document-units="mm"
     inkscape:current-layer="layer1"
     showgrid="false"
     fit-margin-top="0"
     fit-margin-left="0"
     fit-margin-right="0"
     fit-margin-bottom="0"
     inkscape:window-width="1920"
     inkscape:window-height="1017"
     inkscape:window-x="-8"
     inkscape:window-y="-8"
     inkscape:window-maximized="1" />
  <metadata
     id="metadata10430">
    <rdf:RDF>
      <cc:Work
         rdf:about="">
        <dc:format>image/svg+xml</dc:format>
        <dc:type
           rdf:resource="http://purl.org/dc/dcmitype/StillImage" />
        <dc:title></dc:title>
      </cc:Work>
    </rdf:RDF>
  </metadata>
  <g
     inkscape:label="Layer 1"
     inkscape:groupmode="layer"
     id="layer1"
     transform="translate(-9.5554889,-20.843027)">
    <g
       aria-label="𓄀"
       transform="scale(0.26458333)"
       style="font-style:normal;font-variant:normal;font-weight:normal;font-stretch:normal;font-size:192px;line-height:1.25;font-family:sans-serif;-inkscape-font-specification:'sans-serif, Normal';font-variant-ligatures:normal;font-variant-caps:normal;font-variant-numeric:normal;font-feature-settings:normal;text-align:start;letter-spacing:0px;word-spacing:0px;writing-mode:lr-tb;text-anchor:start;fill:#000000;fill-opacity:1;stroke:none"
       id="flowRoot10981">
      <path
         d="m 36.490234,98.089296 q 4.21875,1.875 6.5625,3.562504 2.34375,1.6875 3.9375,3.28125 1.6875,1.6875 2.71875,3.65625 1.125,2.71875 1.875,4.5 0.75,1.6875 1.21875,2.8125 0.5625,1.03125 0.84375,1.59375 0.375,0.46875 0.75,0.84375 0.5625,0.5625 1.40625,1.125 0.84375,0.5625 1.78125,0.75 l 11.0625,-5.15625 q 6.09375,-2.8125 8.625,-5.34375 2.625,-2.625 2.625,-5.15625 0,-0.5625 -0.1875,-1.03125 -0.09375,-0.5625 -0.28125,-1.3125 -1.59375,-1.78125 -2.53125,-3.843754 -0.84375,-2.0625 -0.84375,-3.9375 0,-0.5625 0,-2.0625 0,-1.5 0.09375,-3.5625 0.09375,-2.15625 0.09375,-4.6875 0.09375,-2.53125 0.28125,-5.34375 h 1.21875 q 0,4.78125 1.21875,9.1875 1.21875,4.3125 2.625,8.25 1.40625,3.937504 2.625,7.406254 1.21875,3.375 1.21875,6.1875 0,1.125 -0.5625,2.25 -0.5625,1.03125 -1.3125,2.0625 l 8.4375,1.125 q 17.999996,-10.40625 32.343746,-14.71875 14.34375,-4.312504 29.8125,-4.781254 l 1.3125,2.4375 q -9,11.250004 -12.65625,20.812504 -3.65625,9.46875 -3.65625,21.5625 0,8.53125 1.6875,18.1875 0.84375,4.875 2.25,10.875 1.40625,6 3.46875,13.3125 l -1.96875,1.875 q -3.84375,-2.15625 -8.15625,-4.96875 -4.3125,-2.8125 -8.71875,-5.8125 -4.3125,-3 -8.4375,-5.90625 -4.125,-2.90625 -7.59375,-5.15625 -3.375,-2.25 -5.90625,-3.65625 -2.4375,-1.40625 -3.5625,-1.40625 -2.718746,0 -6.374996,2.71875 -3.5625,2.71875 -7.5,7.5 l -2.25,2.90625 q -4.6875,6.09375 -7.125,8.53125 -2.34375,2.34375 -3.9375,2.34375 -12.375,-1.5 -14.25,-5.625 v -1.5 l 1.125,-2.15625 q -2.53125,-10.96875 -3.375,-22.6875 -0.84375,-11.8125 -1.03125,-22.875 -4.125,-1.40625 -6.46875,-4.6875 -2.25,-3.375 -3.84375,-8.90625 -1.59375,-5.625 -4.5,-9.28125 -2.8125,-3.65625 -6.5625,-5.343754 z m 24,29.343754 q 0.1875,8.53125 0.65625,16.875 0.46875,8.34375 1.6875,16.875 0.1875,1.03125 0.375,2.8125 0.28125,1.6875 0.65625,3.28125 0.375,1.875 0.84375,4.03125 0.09375,0.65625 0.09375,1.125 0.09375,0.46875 0.09375,0.65625 -0.46875,1.3125 -1.125,2.4375 1.40625,2.34375 5.625,2.90625 2.15625,0.28125 3.5625,0.375 1.40625,0.0937 2.15625,0.0937 3,-2.34375 11.625,-13.21875 8.625,-10.875 15.468746,-10.875 2.90625,0 8.34375,3.75 8.90625,6.09375 14.4375,9.9375 5.625,3.75 9,6.09375 3.375,2.25 5.25,3.5625 1.875,1.21875 3.46875,2.15625 -1.6875,-6.28125 -2.90625,-11.625 -1.21875,-5.4375 -1.96875,-9.9375 -1.40625,-9 -1.40625,-17.53125 0,-12.28125 3.09375,-22.03125 3.09375,-9.75 11.625,-20.343754 -9,0.1875 -17.625,2.062504 -8.53125,1.875 -16.875,5.34375 -5.625,2.34375 -9.09375,3.9375 -3.46875,1.59375 -5.90625,2.90625 -2.343746,1.3125 -4.218746,2.53125 -1.875,1.21875 -4.40625,2.8125 l -13.78125,-1.78125 -2.4375,-2.8125 q -1.6875,1.125 -3,1.875 -1.3125,0.75 -2.53125,1.40625 -1.21875,0.65625 -2.4375,1.21875 -1.125,0.5625 -2.53125,1.21875 -1.5,0.75 -2.53125,1.21875 -1.03125,0.46875 -1.78125,0.75 -0.84375,0.375 -1.5,0.5625 z m 12.09375,15.1875 q 2.0625,2.0625 2.0625,4.5 0,3 -3.5625,3 -1.125,0 -2.53125,-0.9375 -1.3125,-0.9375 -1.3125,-2.0625 0,-3.1875 5.34375,-4.5 z"
         id="path10989"
         inkscape:connector-curvature="0" />
    </g>
  </g>
</svg>
