<?xml version="1.0" encoding="UTF-8" standalone="no"?>
<!-- Created with Inkscape (http://www.inkscape.org/) -->

<svg
   xmlns:dc="http://purl.org/dc/elements/1.1/"
   xmlns:cc="http://creativecommons.org/ns#"
   xmlns:rdf="http://www.w3.org/1999/02/22-rdf-syntax-ns#"
   xmlns:svg="http://www.w3.org/2000/svg"
   xmlns="http://www.w3.org/2000/svg"
   xmlns:sodipodi="http://sodipodi.sourceforge.net/DTD/sodipodi-0.dtd"
   xmlns:inkscape="http://www.inkscape.org/namespaces/inkscape"
   width="37.008591mm"
   height="30.360937mm"
   viewBox="0 0 37.008591 30.360937"
   version="1.1"
   id="svg7345"
   inkscape:version="0.92.4 (5da689c313, 2019-01-14)"
   sodipodi:docname="F20.svg">
  <defs
     id="defs7339" />
  <sodipodi:namedview
     id="base"
     pagecolor="#ffffff"
     bordercolor="#666666"
     borderopacity="1.0"
     inkscape:pageopacity="0.0"
     inkscape:pageshadow="2"
     inkscape:zoom="0.35"
     inkscape:cx="-340.40234"
     inkscape:cy="-384.83274"
     inkscape:document-units="mm"
     inkscape:current-layer="layer1"
     showgrid="false"
     fit-margin-top="0"
     fit-margin-left="0"
     fit-margin-right="0"
     fit-margin-bottom="0"
     inkscape:window-width="1920"
     inkscape:window-height="1017"
     inkscape:window-x="-8"
     inkscape:window-y="-8"
     inkscape:window-maximized="1" />
  <metadata
     id="metadata7342">
    <rdf:RDF>
      <cc:Work
         rdf:about="">
        <dc:format>image/svg+xml</dc:format>
        <dc:type
           rdf:resource="http://purl.org/dc/dcmitype/StillImage" />
        <dc:title></dc:title>
      </cc:Work>
    </rdf:RDF>
  </metadata>
  <g
     inkscape:label="Layer 1"
     inkscape:groupmode="layer"
     id="layer1"
     transform="translate(-2.7522868,-16.652068)">
    <g
       aria-label="𓄓"
       transform="scale(0.26458333)"
       style="font-style:normal;font-variant:normal;font-weight:normal;font-stretch:normal;font-size:192px;line-height:1.25;font-family:sans-serif;-inkscape-font-specification:'sans-serif, Normal';font-variant-ligatures:normal;font-variant-caps:normal;font-variant-numeric:normal;font-feature-settings:normal;text-align:start;letter-spacing:0px;word-spacing:0px;writing-mode:lr-tb;text-anchor:start;fill:#000000;fill-opacity:1;stroke:none"
       id="flowRoot7890">
      <path
         d="m 21.746094,93.499452 q -2.8125,0 -4.96875,-0.5625 -2.15625,-0.5625 -3.5625,-1.875 -1.40625,-1.40625 -2.15625,-3.65625 -0.65625,-2.25 -0.65625,-5.53125 0,-10.59375 7.59375,-18.9375 l 3.75,3.75 q -3.28125,3.65625 -4.96875,7.3125 -1.6875,3.65625 -1.6875,7.96875 0,3.1875 1.5,5.25 1.59375,2.0625 4.59375,2.0625 2.53125,0 6.09375,-0.1875 3.65625,-0.1875 8.15625,-0.46875 4.5,-0.375 9.65625,-0.84375 5.15625,-0.5625 10.6875,-1.21875 11.0625,-1.3125 19.03125,-1.96875 8.0625,-0.75 13.21875,-0.75 27.843746,0 53.718746,11.90625 v 4.593748 q -3.65625,-1.874998 -7.6875,-3.374998 -4.03125,-1.5 -7.875,-2.625 -3.75,-1.21875 -7.125,-2.0625 -3.28125,-0.84375 -5.4375,-1.3125 4.875,4.03125 9.28125,10.687498 4.40625,6.65625 6.75,15.1875 l 6.28125,30.375 q 1.96875,9.375 5.625,16.96875 3.65625,7.59375 8.71875,13.5 h -5.90625 q -4.03125,-4.78125 -7.21875,-11.34375 -3.09375,-6.65625 -4.96875,-14.625 -1.96875,-7.875 -4.21875,-19.875 -1.03125,-5.90625 -2.0625,-10.21875 -0.9375,-4.3125 -1.78125,-7.03125 -0.84375,-2.8125 -2.34375,-5.71875 -1.5,-3 -3.46875,-5.8125 -1.96875,-2.8125 -4.40625,-5.343748 -2.34375,-2.53125 -4.875,-4.40625 -5.0625,-3.65625 -7.40625,-4.21875 -2.437496,-0.5625 -14.343746,-0.5625 -10.78125,0 -32.53125,2.53125 -10.96875,1.21875 -19.21875,1.875 -8.15625,0.5625 -13.78125,0.5625 z"
         id="path7898"
         inkscape:connector-curvature="0" />
    </g>
  </g>
</svg>
