<?xml version="1.0" encoding="UTF-8" standalone="no"?>
<!-- Created with Inkscape (http://www.inkscape.org/) -->

<svg
   xmlns:dc="http://purl.org/dc/elements/1.1/"
   xmlns:cc="http://creativecommons.org/ns#"
   xmlns:rdf="http://www.w3.org/1999/02/22-rdf-syntax-ns#"
   xmlns:svg="http://www.w3.org/2000/svg"
   xmlns="http://www.w3.org/2000/svg"
   xmlns:sodipodi="http://sodipodi.sourceforge.net/DTD/sodipodi-0.dtd"
   xmlns:inkscape="http://www.inkscape.org/namespaces/inkscape"
   width="24.531836mm"
   height="19.521288mm"
   viewBox="0 0 24.531836 19.521288"
   version="1.1"
   id="svg7907"
   inkscape:version="0.92.4 (5da689c313, 2019-01-14)"
   sodipodi:docname="F21.svg">
  <defs
     id="defs7901" />
  <sodipodi:namedview
     id="base"
     pagecolor="#ffffff"
     bordercolor="#666666"
     borderopacity="1.0"
     inkscape:pageopacity="0.0"
     inkscape:pageshadow="2"
     inkscape:zoom="0.35"
     inkscape:cx="-354.6875"
     inkscape:cy="-357.89914"
     inkscape:document-units="mm"
     inkscape:current-layer="layer1"
     showgrid="false"
     fit-margin-top="0"
     fit-margin-left="0"
     fit-margin-right="0"
     fit-margin-bottom="0"
     inkscape:window-width="1920"
     inkscape:window-height="1017"
     inkscape:window-x="-8"
     inkscape:window-y="-8"
     inkscape:window-maximized="1" />
  <metadata
     id="metadata7904">
    <rdf:RDF>
      <cc:Work
         rdf:about="">
        <dc:format>image/svg+xml</dc:format>
        <dc:type
           rdf:resource="http://purl.org/dc/dcmitype/StillImage" />
        <dc:title></dc:title>
      </cc:Work>
    </rdf:RDF>
  </metadata>
  <g
     inkscape:label="Layer 1"
     inkscape:groupmode="layer"
     id="layer1"
     transform="translate(-6.531901,-34.617898)">
    <g
       aria-label="𓄔"
       transform="scale(0.26458333)"
       style="font-style:normal;font-variant:normal;font-weight:normal;font-stretch:normal;font-size:192px;line-height:1.25;font-family:sans-serif;-inkscape-font-specification:'sans-serif, Normal';font-variant-ligatures:normal;font-variant-caps:normal;font-variant-numeric:normal;font-feature-settings:normal;text-align:start;letter-spacing:0px;word-spacing:0px;writing-mode:lr-tb;text-anchor:start;fill:#000000;fill-opacity:1;stroke:none"
       id="flowRoot8452">
      <path
         d="m 117.40625,132.3393 q -0.65625,28.96875 -15,46.3125 -14.34375,17.34375 -26.8125,17.34375 -6.65625,0 -17.4375,0.84375 -10.78125,0.84375 -19.96875,7.78125 l -2.15625,-0.46875 q -2.0625,-3.9375 -4.78125,-7.3125 -2.625,-3.46875 -6.5625,-5.625 v -2.8125 q 13.03125,-5.90625 23.71875,-17.25 10.6875,-11.34375 19.6875,-20.90625 9,-9.5625 21,-14.34375 12.09375,-4.78125 26.71875,-5.0625 z m -3.09375,2.34375 q -2.34375,0.9375 -11.53125,6 -9.1875,5.0625 -20.0625,14.90625 -10.78125,9.84375 -22.78125,26.625 0.84375,0 1.6875,0.0937 1.03125,0 4.59375,0.375 3.65625,0.375 6.28125,1.125 -0.5625,1.21875 -0.9375,2.8125 -0.1875,0 -1.125,-0.1875 -0.84375,-0.28125 -1.78125,-0.46875 L 66.78125,185.683 65.75,185.5893 q -2.15625,-0.28125 -4.40625,-0.375 l -2.25,-0.0937 q -1.03125,0 -2.15625,0.0937 -0.375,-0.5625 -0.65625,-1.125 l -0.5625,-1.125 2.4375,-3.5625 q 9.46875,-13.40625 21.75,-25.125 12.28125,-11.71875 28.3125,-19.96875 -13.78125,1.59375 -23.90625,7.03125 -10.03125,5.4375 -25.78125,23.8125 -15.65625,18.375 -30.09375,24.84375 3,2.15625 5.34375,5.0625 2.34375,2.8125 4.03125,6.09375 6.5625,-4.78125 14.15625,-6.28125 7.6875,-1.5 14.15625,-1.5 l 3.65625,0.0937 2.25,-0.0937 q 8.90625,-0.1875 14.25,-3.75 5.4375,-3.65625 12,-10.6875 6.65625,-7.03125 10.96875,-18 4.40625,-11.0625 5.0625,-26.25 z"
         id="path8460"
         inkscape:connector-curvature="0" />
    </g>
  </g>
</svg>
