<?xml version="1.0" encoding="UTF-8" standalone="no"?>
<!-- Created with Inkscape (http://www.inkscape.org/) -->

<svg
   xmlns:dc="http://purl.org/dc/elements/1.1/"
   xmlns:cc="http://creativecommons.org/ns#"
   xmlns:rdf="http://www.w3.org/1999/02/22-rdf-syntax-ns#"
   xmlns:svg="http://www.w3.org/2000/svg"
   xmlns="http://www.w3.org/2000/svg"
   xmlns:sodipodi="http://sodipodi.sourceforge.net/DTD/sodipodi-0.dtd"
   xmlns:inkscape="http://www.inkscape.org/namespaces/inkscape"
   width="24.730272mm"
   height="19.496485mm"
   viewBox="0 0 24.730272 19.496485"
   version="1.1"
   id="svg40515"
   inkscape:version="0.92.4 (5da689c313, 2019-01-14)"
   sodipodi:docname="F21A.svg">
  <defs
     id="defs40509" />
  <sodipodi:namedview
     id="base"
     pagecolor="#ffffff"
     bordercolor="#666666"
     borderopacity="1.0"
     inkscape:pageopacity="0.0"
     inkscape:pageshadow="2"
     inkscape:zoom="0.35"
     inkscape:cx="-366.11523"
     inkscape:cy="-312.18435"
     inkscape:document-units="mm"
     inkscape:current-layer="layer1"
     showgrid="false"
     fit-margin-top="0"
     fit-margin-left="0"
     fit-margin-right="0"
     fit-margin-bottom="0"
     inkscape:window-width="1920"
     inkscape:window-height="1017"
     inkscape:window-x="-8"
     inkscape:window-y="-8"
     inkscape:window-maximized="1" />
  <metadata
     id="metadata40512">
    <rdf:RDF>
      <cc:Work
         rdf:about="">
        <dc:format>image/svg+xml</dc:format>
        <dc:type
           rdf:resource="http://purl.org/dc/dcmitype/StillImage" />
        <dc:title></dc:title>
      </cc:Work>
    </rdf:RDF>
  </metadata>
  <g
     inkscape:label="Layer 1"
     inkscape:groupmode="layer"
     id="layer1"
     transform="translate(-9.5554889,-46.738074)">
    <g
       aria-label="𓄕"
       transform="scale(0.26458333)"
       style="font-style:normal;font-variant:normal;font-weight:normal;font-stretch:normal;font-size:192px;line-height:1.25;font-family:sans-serif;-inkscape-font-specification:sans-serif;font-variant-ligatures:normal;font-variant-caps:normal;font-variant-numeric:normal;font-feature-settings:normal;text-align:start;letter-spacing:0px;word-spacing:0px;writing-mode:lr-tb;text-anchor:start;fill:#000000;fill-opacity:1;stroke:none"
       id="flowRoot41060">
      <path
         d="m 44.177734,210.30414 1.125,-3.46875 7.3125,17.4375 q 4.21875,-3.375 8.0625,-7.21875 3.84375,-3.9375 7.59375,-7.96875 l 7.40625,-8.15625 q 6.28125,-6.84375 9.75,-9.75 3.5625,-3 11.25,-8.25 1.59375,-1.125 2.53125,-1.5 1.031246,-0.375 1.687496,-0.375 0.375,0 0.75,0.0937 l 1.03125,1.875 q 0,0.46875 -0.75,1.59375 -0.75,1.125 -1.78125,2.625 l -6.093746,8.34375 -0.75,0.9375 -4.96875,7.125 q 8.25,-8.25 17.718746,-14.90625 9.46875,-6.65625 21.46875,-12.09375 l 2.0625,1.40625 q -0.65625,28.96875 -15,46.3125 -14.34375,17.34375 -26.812496,17.34375 -6.65625,0 -17.4375,0.84375 -10.78125,0.84375 -19.96875,7.78125 l -2.15625,-0.46875 q -2.0625,-3.9375 -4.78125,-7.3125 -2.625,-3.46875 -6.5625,-5.625 v -2.8125 q 1.3125,-0.65625 2.625,-1.21875 1.40625,-0.65625 2.71875,-1.40625 l -6.09375,-14.53125 1.125,-3.46875 7.3125,16.5 h 0.09375 q 1.5,-0.9375 2.90625,-1.875 1.40625,-0.9375 2.71875,-1.96875 z m 82.312496,-29.90625 q -15.84375,7.3125 -28.499996,18.1875 -12.5625,10.78125 -25.875,29.34375 3.1875,0 6.28125,0.375 3.1875,0.28125 6.28125,1.21875 l -0.9375,2.8125 q -2.625,-0.5625 -5.8125,-1.03125 -3.1875,-0.5625 -5.8125,-0.5625 -1.5,0 -3,0.1875 l -1.21875,-2.25 11.34375,-16.96875 q 10.21875,-15.28125 13.40625,-19.3125 3.1875,-4.03125 5.0625,-6.75 -2.71875,1.59375 -6.46875,4.6875 -3.75,3 -6.375,5.625 l -3.375,3.28125 q -2.90625,3 -15.75,16.96875 -12.75,13.96875 -25.125,19.5 3,2.15625 5.34375,5.0625 2.34375,2.8125 4.03125,6.09375 6.5625,-4.78125 14.15625,-6.28125 7.6875,-1.5 14.15625,-1.5 l 3.65625,0.0937 2.25,-0.0937 q 8.90625,-0.1875 14.25,-3.75 5.437496,-3.65625 11.999996,-10.6875 6.65625,-7.03125 10.96875,-18 4.40625,-11.0625 5.0625,-26.25 z"
         id="path41068"
         inkscape:connector-curvature="0" />
    </g>
  </g>
</svg>
