<?xml version="1.0" encoding="UTF-8" standalone="no"?>
<!-- Created with Inkscape (http://www.inkscape.org/) -->

<svg
   xmlns:dc="http://purl.org/dc/elements/1.1/"
   xmlns:cc="http://creativecommons.org/ns#"
   xmlns:rdf="http://www.w3.org/1999/02/22-rdf-syntax-ns#"
   xmlns:svg="http://www.w3.org/2000/svg"
   xmlns="http://www.w3.org/2000/svg"
   xmlns:sodipodi="http://sodipodi.sourceforge.net/DTD/sodipodi-0.dtd"
   xmlns:inkscape="http://www.inkscape.org/namespaces/inkscape"
   width="37.901562mm"
   height="12.799218mm"
   viewBox="0 0 37.901562 12.799218"
   version="1.1"
   id="svg9031"
   inkscape:version="0.92.4 (5da689c313, 2019-01-14)"
   sodipodi:docname="F23.svg">
  <defs
     id="defs9025" />
  <sodipodi:namedview
     id="base"
     pagecolor="#ffffff"
     bordercolor="#666666"
     borderopacity="1.0"
     inkscape:pageopacity="0.0"
     inkscape:pageshadow="2"
     inkscape:zoom="0.35"
     inkscape:cx="-343.25977"
     inkscape:cy="-369.04758"
     inkscape:document-units="mm"
     inkscape:current-layer="layer1"
     showgrid="false"
     fit-margin-top="0"
     fit-margin-left="0"
     fit-margin-right="0"
     fit-margin-bottom="0"
     inkscape:window-width="1920"
     inkscape:window-height="1017"
     inkscape:window-x="-8"
     inkscape:window-y="-8"
     inkscape:window-maximized="1" />
  <metadata
     id="metadata9028">
    <rdf:RDF>
      <cc:Work
         rdf:about="">
        <dc:format>image/svg+xml</dc:format>
        <dc:type
           rdf:resource="http://purl.org/dc/dcmitype/StillImage" />
        <dc:title></dc:title>
      </cc:Work>
    </rdf:RDF>
  </metadata>
  <g
     inkscape:label="Layer 1"
     inkscape:groupmode="layer"
     id="layer1"
     transform="translate(-3.508313,-38.390277)">
    <g
       aria-label="𓄗"
       transform="scale(0.26458333)"
       style="font-style:normal;font-variant:normal;font-weight:normal;font-stretch:normal;font-size:192px;line-height:1.25;font-family:sans-serif;-inkscape-font-specification:'sans-serif, Normal';font-variant-ligatures:normal;font-variant-caps:normal;font-variant-numeric:normal;font-feature-settings:normal;text-align:start;letter-spacing:0px;word-spacing:0px;writing-mode:lr-tb;text-anchor:start;fill:#000000;fill-opacity:1;stroke:none"
       id="flowRoot9576">
      <path
         d="m 153.22852,147.62836 q 3.28125,7.6875 3.28125,15.84375 v 1.21875 q -0.28125,8.90625 -3.28125,17.15625 l -1.5,1.03125 h -24.9375 l -8.25,0.0937 q -8.34375,0 -16.6875,-0.0937 -5.531254,0 -13.968754,-4.3125 -8.34375,-4.3125 -21.1875,-13.96875 l -5.625,-4.125 q -7.03125,4.5 -12.1875,10.78125 -5.15625,6.28125 -9,13.59375 l -2.71875,0.28125 q -0.65625,-0.9375 -1.5,-1.3125 -0.46875,0.5625 -1.21875,3.1875 -0.75,2.53125 -2.15625,5.4375 l -1.5,1.03125 h -16.59375 l -0.9375,-2.625 q 10.78125,-11.0625 21.75,-21.5625 10.96875,-10.5 25.125,-23.8125 l 1.40625,-0.28125 q 8.53125,3.1875 13.5,8.90625 4.96875,5.71875 9.09375,5.71875 1.875,0 4.96875,-1.125 3.1875,-1.125 4.03125,-2.25 0.9375,-1.125 4.3125,-3.9375 3.375004,-2.90625 8.062504,-4.6875 4.78125,-1.78125 7.6875,-2.15625 l 3.75,-0.5625 q 8.90625,0.1875 18.75,0.75 9.84375,0.46875 16.03125,0.75 z m -4.21875,1.875 q -4.21875,-0.28125 -8.15625,-0.46875 -3.84375,-0.28125 -8.0625,-0.375 l -7.125,-0.1875 q -4.6875,0 -8.625,-0.1875 -3.84375,-0.1875 -10.875,2.71875 -6.937504,2.90625 -9.093754,5.8125 -2.15625,2.90625 -6.09375,4.5 -3.9375,1.5 -6.46875,1.5 -5.8125,0 -10.40625,-5.53125 -4.59375,-5.53125 -12.65625,-8.90625 l -22.03125,20.71875 q -10.96875,10.40625 -21.5625,21.375 h 12.09375 q 0.28125,-0.5625 1.78125,-5.15625 1.5,-4.59375 3.84375,-4.59375 1.03125,0 2.53125,1.03125 l 0.09375,0.0937 q 4.21875,-7.59375 9.5625,-13.6875 5.34375,-6.1875 12.84375,-10.875 l 1.40625,0.1875 11.71875,8.53125 q 8.4375,6.1875 15.5625,10.03125 7.125,3.84375 12.750004,3.84375 7.78125,0 15.5625,0.0937 l 7.78125,-0.0937 h 23.4375 l -10.40625,-14.34375 v -1.5 z m 2.34375,28.6875 q 2.25,-6.375 2.25,-13.5 0,-7.03125 -2.25,-13.40625 l -9.75,13.5 z"
         id="path9584"
         inkscape:connector-curvature="0" />
    </g>
  </g>
</svg>
