<?xml version="1.0" encoding="UTF-8" standalone="no"?>
<!-- Created with Inkscape (http://www.inkscape.org/) -->

<svg
   xmlns:dc="http://purl.org/dc/elements/1.1/"
   xmlns:cc="http://creativecommons.org/ns#"
   xmlns:rdf="http://www.w3.org/1999/02/22-rdf-syntax-ns#"
   xmlns:svg="http://www.w3.org/2000/svg"
   xmlns="http://www.w3.org/2000/svg"
   xmlns:sodipodi="http://sodipodi.sourceforge.net/DTD/sodipodi-0.dtd"
   xmlns:inkscape="http://www.inkscape.org/namespaces/inkscape"
   width="37.901562mm"
   height="12.799218mm"
   viewBox="0 0 37.901562 12.799218"
   version="1.1"
   id="svg9593"
   inkscape:version="0.92.4 (5da689c313, 2019-01-14)"
   sodipodi:docname="F24.svg">
  <defs
     id="defs9587" />
  <sodipodi:namedview
     id="base"
     pagecolor="#ffffff"
     bordercolor="#666666"
     borderopacity="1.0"
     inkscape:pageopacity="0.0"
     inkscape:pageshadow="2"
     inkscape:zoom="0.35"
     inkscape:cx="-368.97266"
     inkscape:cy="-320.47532"
     inkscape:document-units="mm"
     inkscape:current-layer="layer1"
     showgrid="false"
     fit-margin-top="0"
     fit-margin-left="0"
     fit-margin-right="0"
     fit-margin-bottom="0"
     inkscape:window-width="1920"
     inkscape:window-height="1017"
     inkscape:window-x="-8"
     inkscape:window-y="-8"
     inkscape:window-maximized="1" />
  <metadata
     id="metadata9590">
    <rdf:RDF>
      <cc:Work
         rdf:about="">
        <dc:format>image/svg+xml</dc:format>
        <dc:type
           rdf:resource="http://purl.org/dc/dcmitype/StillImage" />
        <dc:title></dc:title>
      </cc:Work>
    </rdf:RDF>
  </metadata>
  <g
     inkscape:label="Layer 1"
     inkscape:groupmode="layer"
     id="layer1"
     transform="translate(-10.311515,-51.241687)">
    <g
       aria-label="𓄘"
       transform="scale(0.26458333)"
       style="font-style:normal;font-variant:normal;font-weight:normal;font-stretch:normal;font-size:192px;line-height:1.25;font-family:sans-serif;-inkscape-font-specification:'sans-serif, Normal';font-variant-ligatures:normal;font-variant-caps:normal;font-variant-numeric:normal;font-feature-settings:normal;text-align:start;letter-spacing:0px;word-spacing:0px;writing-mode:lr-tb;text-anchor:start;fill:#000000;fill-opacity:1;stroke:none"
       id="flowRoot10138">
      <path
         d="m 43.753906,195.16937 q 6.1875,-0.28125 16.03125,-0.75 9.84375,-0.5625 18.75,-0.75 l 3.84375,0.5625 q 2.8125,0.375 7.5,2.15625 4.78125,1.78125 8.15625,4.6875 3.375004,2.8125 4.218754,3.9375 0.9375,1.125 4.03125,2.25 3.1875,1.125 4.96875,1.125 4.3125,0 9.1875,-5.71875 4.96875,-5.71875 13.5,-8.90625 l 1.40625,0.28125 q 14.15625,13.3125 25.125,23.8125 10.96875,10.5 21.75,21.5625 l -0.9375,2.625 h -16.59375 l -1.5,-1.03125 q -1.40625,-2.90625 -2.15625,-5.4375 -0.75,-2.625 -1.21875,-3.1875 -0.84375,0.375 -1.5,1.3125 l -2.71875,-0.28125 q -3.84375,-7.3125 -9,-13.59375 -5.15625,-6.28125 -12.1875,-10.78125 l -5.53125,4.125 q -12.9375,9.65625 -21.375,13.96875 -8.343754,4.3125 -13.875004,4.3125 -8.34375,0 -16.6875,0.0937 l -8.25,-0.0937 h -24.9375 q -0.28125,-1.03125 -1.3125,-1.03125 h -0.1875 q -3,-8.25 -3.28125,-17.15625 v -1.21875 q 0,-8.15625 3.28125,-15.84375 z m 13.3125,17.4375 v 1.5 l -10.40625,14.34375 h 23.4375 l 7.78125,0.0937 q 7.78125,0 15.5625,-0.0937 5.625,0 12.750004,-3.84375 7.125,-3.84375 15.5625,-10.03125 l 11.71875,-8.53125 1.40625,-0.1875 q 7.5,4.6875 12.84375,10.875 5.34375,6.09375 9.5625,13.6875 l 0.0937,-0.0937 q 1.40625,-1.03125 2.4375,-1.03125 2.4375,0 3.9375,4.59375 1.5,4.59375 1.78125,5.15625 h 12.09375 q -10.59375,-10.96875 -21.5625,-21.375 l -22.03125,-20.71875 q -8.0625,3.375 -12.65625,8.90625 -4.59375,5.53125 -10.40625,5.53125 -2.53125,0 -6.5625,-1.59375 -3.9375,-1.59375 -6.000004,-4.40625 -1.96875,-2.8125 -9.09375,-5.71875 -7.03125,-3 -10.96875,-2.8125 l -8.4375,0.1875 -7.21875,0.1875 q -4.21875,0 -8.15625,0.28125 -3.84375,0.28125 -8.0625,0.5625 z m -3.1875,0.75 -9.75,-13.5 q -2.25,6.375 -2.25,13.40625 0,7.125 2.25,13.5 z"
         id="path10146"
         inkscape:connector-curvature="0" />
    </g>
  </g>
</svg>
