<?xml version="1.0" encoding="UTF-8" standalone="no"?>
<!-- Created with Inkscape (http://www.inkscape.org/) -->

<svg
   xmlns:dc="http://purl.org/dc/elements/1.1/"
   xmlns:cc="http://creativecommons.org/ns#"
   xmlns:rdf="http://www.w3.org/1999/02/22-rdf-syntax-ns#"
   xmlns:svg="http://www.w3.org/2000/svg"
   xmlns="http://www.w3.org/2000/svg"
   xmlns:sodipodi="http://sodipodi.sourceforge.net/DTD/sodipodi-0.dtd"
   xmlns:inkscape="http://www.inkscape.org/namespaces/inkscape"
   width="11.53418mm"
   height="37.926365mm"
   viewBox="0 0 11.53418 37.926365"
   version="1.1"
   id="svg41077"
   inkscape:version="0.92.4 (5da689c313, 2019-01-14)"
   sodipodi:docname="F25.svg">
  <defs
     id="defs41071" />
  <sodipodi:namedview
     id="base"
     pagecolor="#ffffff"
     bordercolor="#666666"
     borderopacity="1.0"
     inkscape:pageopacity="0.0"
     inkscape:pageshadow="2"
     inkscape:zoom="0.35"
     inkscape:cx="-386.11523"
     inkscape:cy="-331.9031"
     inkscape:document-units="mm"
     inkscape:current-layer="layer1"
     showgrid="false"
     fit-margin-top="0"
     fit-margin-left="0"
     fit-margin-right="0"
     fit-margin-bottom="0"
     inkscape:window-width="1920"
     inkscape:window-height="1017"
     inkscape:window-x="-8"
     inkscape:window-y="-8"
     inkscape:window-maximized="1" />
  <metadata
     id="metadata41074">
    <rdf:RDF>
      <cc:Work
         rdf:about="">
        <dc:format>image/svg+xml</dc:format>
        <dc:type
           rdf:resource="http://purl.org/dc/dcmitype/StillImage" />
        <dc:title></dc:title>
      </cc:Work>
    </rdf:RDF>
  </metadata>
  <g
     inkscape:label="Layer 1"
     inkscape:groupmode="layer"
     id="layer1"
     transform="translate(-14.847155,-23.090939)">
    <g
       aria-label="𓄙"
       transform="scale(0.26458333)"
       style="font-style:normal;font-variant:normal;font-weight:normal;font-stretch:normal;font-size:192px;line-height:1.25;font-family:sans-serif;-inkscape-font-specification:sans-serif;font-variant-ligatures:normal;font-variant-caps:normal;font-variant-numeric:normal;font-feature-settings:normal;text-align:start;letter-spacing:0px;word-spacing:0px;writing-mode:lr-tb;text-anchor:start;fill:#000000;fill-opacity:1;stroke:none"
       id="flowRoot41622">
      <path
         d="m 95.396484,210.17914 q -0.5625,-0.9375 -2.15625,-0.1875 -1.59375,0.65625 -3.84375,2.90625 0.75,1.875 1.3125,4.125 0.65625,2.15625 0.65625,4.21875 0,3.9375 -2.8125,6.1875 -2.8125,2.25 -17.4375,2.8125 l -6.9375,0.28125 h -2.34375 l -1.03125,0.0937 h -3.46875 l -1.21875,-2.25 q 2.4375,-3.09375 9.46875,-11.25 7.03125,-8.25 11.4375,-16.96875 4.5,-8.8125 4.5,-22.21875 0,-10.3125 -3.84375,-33.46875 -3.84375,-23.15625 -6.65625,-55.6875 l 2.34375,-1.5 25.6875,16.6875 0.65625,1.21875 q -0.65625,8.15625 -3.28125,28.3125 -2.53125,20.15625 -2.53125,32.71875 0,10.125 1.59375,19.96875 1.59375,9.84375 2.71875,13.5 l 0.84375,2.90625 q 0.28125,1.03125 0.46875,2.15625 0.1875,1.03125 0.1875,1.6875 0,1.3125 -0.65625,1.96875 -0.5625,0.5625 -0.9375,1.03125 z m -8.15625,0.65625 q 1.875,-1.875 3.9375,-3 2.0625,-1.21875 3.46875,-1.21875 0.84375,0 1.59375,0.375 l 0.375,-0.375 q -1.78125,-6.375 -3.75,-17.8125 -1.96875,-11.53125 -1.96875,-23.25 0,-12.28125 2.4375,-31.78125 2.53125,-19.59375 3.28125,-27.84375 l -22.3125,-14.53125 q 2.25,26.8125 4.59375,41.0625 2.34375,14.25 3.09375,19.96875 l 1.5,10.59375 q 0.5625,3.75 0.75,7.59375 0.28125,3.75 0.28125,7.125 0,9.9375 -2.0625,16.6875 -2.0625,6.75 -6,12.75 z m -12.5625,-1.03125 q -3.28125,4.6875 -7.03125,9 -3.65625,4.3125 -7.125,8.8125 4.96875,0 9.9375,-0.1875 4.96875,-0.1875 9.9375,-0.84375 l 1.875,-0.1875 q 3.28125,-0.28125 4.59375,-1.40625 1.40625,-1.21875 1.59375,-3.375 v -0.65625 q 0,-1.40625 -0.46875,-3.09375 -0.375,-1.6875 -1.40625,-4.125 z"
         id="path41630"
         inkscape:connector-curvature="0" />
    </g>
  </g>
</svg>
