<?xml version="1.0" encoding="UTF-8" standalone="no"?>
<!-- Created with Inkscape (http://www.inkscape.org/) -->

<svg
   xmlns:dc="http://purl.org/dc/elements/1.1/"
   xmlns:cc="http://creativecommons.org/ns#"
   xmlns:rdf="http://www.w3.org/1999/02/22-rdf-syntax-ns#"
   xmlns:svg="http://www.w3.org/2000/svg"
   xmlns="http://www.w3.org/2000/svg"
   xmlns:sodipodi="http://sodipodi.sourceforge.net/DTD/sodipodi-0.dtd"
   xmlns:inkscape="http://www.inkscape.org/namespaces/inkscape"
   width="38.496876mm"
   height="25.945704mm"
   viewBox="0 0 38.496876 25.945704"
   version="1.1"
   id="svg10155"
   inkscape:version="0.92.4 (5da689c313, 2019-01-14)"
   sodipodi:docname="F26.svg">
  <defs
     id="defs10149" />
  <sodipodi:namedview
     id="base"
     pagecolor="#ffffff"
     bordercolor="#666666"
     borderopacity="1.0"
     inkscape:pageopacity="0.0"
     inkscape:pageshadow="2"
     inkscape:zoom="0.35"
     inkscape:cx="-343.25977"
     inkscape:cy="-377.61789"
     inkscape:document-units="mm"
     inkscape:current-layer="layer1"
     showgrid="false"
     fit-margin-top="0"
     fit-margin-left="0"
     fit-margin-right="0"
     fit-margin-bottom="0"
     inkscape:window-width="1920"
     inkscape:window-height="1017"
     inkscape:window-x="-8"
     inkscape:window-y="-8"
     inkscape:window-maximized="1" />
  <metadata
     id="metadata10152">
    <rdf:RDF>
      <cc:Work
         rdf:about="">
        <dc:format>image/svg+xml</dc:format>
        <dc:type
           rdf:resource="http://purl.org/dc/dcmitype/StillImage" />
        <dc:title></dc:title>
      </cc:Work>
    </rdf:RDF>
  </metadata>
  <g
     inkscape:label="Layer 1"
     inkscape:groupmode="layer"
     id="layer1"
     transform="translate(-3.508313,-22.97623)">
    <g
       aria-label="𓄚"
       transform="scale(0.26458333)"
       style="font-style:normal;font-variant:normal;font-weight:normal;font-stretch:normal;font-size:192px;line-height:1.25;font-family:sans-serif;-inkscape-font-specification:'sans-serif, Normal';font-variant-ligatures:normal;font-variant-caps:normal;font-variant-numeric:normal;font-feature-settings:normal;text-align:start;letter-spacing:0px;word-spacing:0px;writing-mode:lr-tb;text-anchor:start;fill:#000000;fill-opacity:1;stroke:none"
       id="flowRoot10700">
      <path
         d="m 117.32227,178.9018 q -0.5625,0.84375 -0.9375,1.59375 0,0.65625 0.1875,1.5 0.28125,0.75 0.46875,0.9375 l -1.5,1.96875 h -7.40625 l -1.40625,-1.78125 q 0.5625,-2.8125 1.6875,-4.875 1.125,-2.0625 3.65625,-3.75 6.9375,-13.3125 9,-21.375 2.15625,-8.15625 2.15625,-15.09375 -0.1875,-1.21875 -0.1875,-2.4375 v -2.53125 q -3.65625,0.28125 -9.75,1.6875 -6,1.3125 -9.65625,1.3125 l -0.65625,-0.375 -0.5625,-0.375 -0.9375,-2.0625 q -5.343754,1.6875 -10.968754,1.875 l -1.5,0.0937 q -4.875,0 -9.5625,-1.3125 2.15625,5.71875 3.46875,13.5 1.40625,7.78125 2.4375,10.96875 l 0.9375,2.90625 q 0.375,1.40625 0.65625,2.71875 0.375,1.21875 0.375,1.78125 v 0.28125 l -3,13.40625 -1.875,0.84375 q -0.375,0 -0.9375,-0.0937 -0.375,0.5625 -0.5625,0.75 l 0.1875,1.03125 q 0,0.46875 0.28125,0.9375 l -1.5,1.96875 h -7.5 l -1.40625,-1.78125 q 0.9375,-2.8125 4.3125,-6.9375 3.46875,-4.125 3.46875,-9.1875 v -0.84375 q -0.46875,-7.40625 -3.75,-15.5625 -3.28125,-8.25 -7.875,-11.0625 -5.25,9.84375 -9.75,19.78125 -4.5,9.84375 -8.71875,20.15625 l -1.5,1.03125 -0.84375,-0.1875 h -0.9375 q 0,0.46875 0.09375,0.84375 v 0.84375 q 0,0.375 0.1875,0.9375 l -1.5,1.96875 h -8.90625 l -0.84375,-2.0625 0.1875,-0.9375 q 1.59375,-1.875 3.375,-3.46875 l 3.65625,-3.28125 q 0.9375,-2.25 7.6875,-17.0625 6.75,-14.8125 8.25,-26.0625 -7.125,-8.0625 -17.0625,-14.8125 -9.9375,-6.75 -26.53125,-13.875 l -0.75,-2.15625 6,-13.312504 1.21875,-0.75 q 0.75,-0.1875 1.6875,-0.1875 4.875,0 14.15625,3 9.375,3 9.46875,3 3.65625,-1.03125 7.3125,-1.59375 3.65625,-0.5625 6.9375,-0.5625 3.46875,0 7.3125,0.65625 3.84375,0.5625 6.84375,1.3125 l 6.09375,1.59375 q 3.09375,0.84375 6.1875,1.40625 3.09375,0.5625 6.28125,0.65625 h 1.5 q 3.28125,0 6.656254,-0.375 3.46875,-0.375 6.75,-0.9375 l 7.40625,-1.40625 q 3.46875,-0.65625 9.75,-1.40625 6.28125,-0.84375 8.90625,-0.84375 4.3125,0 7.875,1.125 3.5625,1.125 7.6875,3.9375 2.71875,-1.875 4.5,-4.125 1.78125,-2.25 1.96875,-5.53125 l 3,0.09375 v 0.1875 q 0,3.75 -0.84375,7.40625 -0.75,3.65625 -3.46875,6.375004 0.65625,2.4375 0.65625,4.875 0,1.875 -0.5625,4.5 -0.46875,2.625 -1.125,4.96875 l -2.15625,7.03125 q -0.75,2.25 -1.125,4.6875 -0.375,2.34375 -0.375,4.6875 0,5.53125 2.25,12.09375 2.34375,6.5625 2.34375,7.96875 l -0.46875,7.875 q 0,0.65625 -0.28125,8.25 -0.28125,7.5 -2.34375,11.625 l -1.5,1.03125 h -1.3125 q -0.84375,0 -1.21875,0.28125 -0.375,0.1875 -0.375,0.28125 l -0.28125,0.5625 q 0,0.84375 0.1875,1.3125 l -1.5,1.96875 h -7.40625 l -1.40625,-1.78125 q 0,-0.1875 0.0937,-0.46875 0,-0.75 1.3125,-3 1.3125,-2.34375 4.5,-4.3125 2.90625,-4.59375 3.28125,-11.71875 0.375,-7.125 0.65625,-9.375 l -3.46875,-4.5 -3.65625,-4.40625 q -1.40625,0.75 -3,0.75 -1.78125,0 -3.375,-0.65625 -3.1875,8.25 -6.375,16.3125 l -6.375,16.21875 -1.5,1.03125 q -0.375,0 -0.65625,-0.0937 z M 81.697266,166.43305 v 1.03125 q 0,4.96875 -3.09375,8.90625 -3,3.84375 -3.84375,5.53125 h 3.375 v -0.375 q 0,-1.59375 0.75,-2.90625 0.84375,-1.40625 2.4375,-1.40625 h 0.375 l 2.625,-11.53125 q -2.0625,-5.90625 -3.9375,-16.3125 -1.78125,-10.5 -4.78125,-17.15625 0.46875,-0.5625 0.84375,-1.125 0.375,-0.5625 0.84375,-1.03125 5.53125,2.0625 11.25,2.0625 h 0.9375 q 6.1875,-0.1875 12.281254,-2.0625 0.46875,0.28125 1.03125,0.46875 l 0.9375,0.46875 q 0.1875,0.5625 0.46875,1.125 0.28125,0.46875 0.46875,0.9375 2.53125,0 4.96875,-0.65625 l 4.875,-1.03125 q 2.4375,-0.5625 4.875,-0.9375 2.53125,-0.46875 5.0625,-0.46875 4.96875,1.21875 9.375,4.78125 4.5,3.5625 6.84375,7.6875 l 4.3125,5.25 q 4.125,5.15625 4.21875,5.71875 0.0937,0.46875 0.1875,0.5625 -0.375,2.4375 -0.46875,4.875 l -0.28125,4.78125 q -0.1875,2.4375 -0.5625,4.875 -0.375,2.34375 -1.3125,4.6875 l -0.9375,2.15625 q -0.9375,2.25 -3,3.28125 -2.0625,0.9375 -2.90625,3.28125 h 3.5625 v -0.1875 q 0,-2.0625 1.59375,-3 1.6875,-0.9375 3.75,-1.125 1.21875,-3.09375 1.6875,-8.0625 0.5625,-5.0625 0.5625,-12.46875 0,-3.46875 0.1875,-6 -2.71875,-7.3125 -3.5625,-11.90625 -0.84375,-4.6875 -0.84375,-8.25 0,-5.8125 2.625,-12.9375 2.625,-7.21875 2.625,-12.09375 0,-2.53125 -0.84375,-5.15625 0.375,-0.937504 0.46875,-1.406254 1.59375,-1.3125 2.4375,-3 -1.78125,1.59375 -4.03125,3.1875 l -1.875,-0.09375 q -3.84375,-2.625 -7.3125,-3.75 -3.375,-1.21875 -7.21875,-1.21875 -4.6875,0 -18,2.34375 -13.3125,2.34375 -20.250004,2.625 h -1.875 q -3.46875,0 -7.21875,-0.65625 -3.75,-0.65625 -7.21875,-1.5 l -8.0625,-1.96875 q -3,-0.65625 -6.1875,-1.125 -3.09375,-0.46875 -5.15625,-0.46875 -2.25,0 -5.25,0.46875 -2.90625,0.46875 -5.25,1.03125 l -3.09375,0.84375 q -0.375,0 -0.84375,0.09375 -2.4375,0 -10.6875,-3.09375 -8.15625,-3.09375 -11.90625,-3.09375 -0.5625,0 -1.125,0.09375 l -5.0625,11.156254 q 10.21875,4.5 19.5,9.84375 9.28125,5.34375 17.4375,12.65625 l -0.46875,-2.0625 q -0.1875,-0.84375 -0.1875,-3 0,-5.34375 2.53125,-9.1875 2.53125,-3.9375 5.71875,-7.125 l 1.875,2.34375 q -2.90625,2.53125 -5.0625,6.5625 -2.0625,4.03125 -2.0625,7.40625 0,3.46875 1.125,6.28125 1.125,2.8125 3.28125,5.34375 l 1.5,1.5 q 0.375,0.375 1.3125,1.21875 1.03125,0.84375 1.3125,1.03125 l 1.03125,0.84375 4.03125,2.625 q 3.65625,2.25 7.5,9.9375 3.9375,7.6875 4.78125,19.03125 z M 132.79102,142.1518 q 0.75,0.46875 1.6875,0.65625 0.9375,0.1875 1.875,0.1875 0.5625,0 1.125,-0.0937 -1.21875,-2.0625 -4.875,-5.71875 -3.65625,-3.75 -6.09375,-3.75 h -0.375 v 4.03125 l -0.1875,6.375 q -0.46875,8.71875 -5.625,20.625 -5.0625,11.90625 -7.40625,13.40625 -2.34375,1.40625 -2.90625,4.03125 h 3.5625 q -0.1875,-0.84375 -0.1875,-1.78125 l -0.0937,-0.375 q 0,-1.78125 0.75,-2.8125 0.84375,-1.125 2.625,-1.125 0.46875,0 1.03125,0.0937 3.28125,-8.34375 6.46875,-16.59375 l 6.46875,-16.6875 z m -73.218754,-8.34375 -2.34375,8.4375 -2.15625,7.125 q -1.6875,5.625 -5.0625,13.3125 -3.375,7.59375 -6.1875,13.40625 l -5.34375,5.34375 3.75,0.1875 0.28125,-2.8125 3.28125,-0.75 3.5625,-8.4375 q 1.3125,-3 3.46875,-8.0625 2.15625,-5.0625 4.40625,-9.5625 l 7.5,-14.4375 z"
         id="path10708"
         inkscape:connector-curvature="0" />
    </g>
  </g>
</svg>
