<?xml version="1.0" encoding="UTF-8" standalone="no"?>
<!-- Created with Inkscape (http://www.inkscape.org/) -->

<svg
   xmlns:dc="http://purl.org/dc/elements/1.1/"
   xmlns:cc="http://creativecommons.org/ns#"
   xmlns:rdf="http://www.w3.org/1999/02/22-rdf-syntax-ns#"
   xmlns:svg="http://www.w3.org/2000/svg"
   xmlns="http://www.w3.org/2000/svg"
   xmlns:sodipodi="http://sodipodi.sourceforge.net/DTD/sodipodi-0.dtd"
   xmlns:inkscape="http://www.inkscape.org/namespaces/inkscape"
   width="15.354101mm"
   height="37.975979mm"
   viewBox="0 0 15.354101 37.975979"
   version="1.1"
   id="svg41639"
   inkscape:version="0.92.4 (5da689c313, 2019-01-14)"
   sodipodi:docname="F27.svg">
  <defs
     id="defs41633" />
  <sodipodi:namedview
     id="base"
     pagecolor="#ffffff"
     bordercolor="#666666"
     borderopacity="1.0"
     inkscape:pageopacity="0.0"
     inkscape:pageshadow="2"
     inkscape:zoom="0.35"
     inkscape:cx="-351.83008"
     inkscape:cy="-357.52414"
     inkscape:document-units="mm"
     inkscape:current-layer="layer1"
     showgrid="false"
     fit-margin-top="0"
     fit-margin-left="0"
     fit-margin-right="0"
     fit-margin-bottom="0"
     inkscape:window-width="1920"
     inkscape:window-height="1017"
     inkscape:window-x="-8"
     inkscape:window-y="-8"
     inkscape:window-maximized="1" />
  <metadata
     id="metadata41636">
    <rdf:RDF>
      <cc:Work
         rdf:about="">
        <dc:format>image/svg+xml</dc:format>
        <dc:type
           rdf:resource="http://purl.org/dc/dcmitype/StillImage" />
        <dc:title></dc:title>
      </cc:Work>
    </rdf:RDF>
  </metadata>
  <g
     inkscape:label="Layer 1"
     inkscape:groupmode="layer"
     id="layer1"
     transform="translate(-5.7758747,-16.262428)">
    <g
       aria-label="𓄛"
       transform="scale(0.26458333)"
       style="font-style:normal;font-variant:normal;font-weight:normal;font-stretch:normal;font-size:192px;line-height:1.25;font-family:sans-serif;-inkscape-font-specification:sans-serif;font-variant-ligatures:normal;font-variant-caps:normal;font-variant-numeric:normal;font-feature-settings:normal;text-align:start;letter-spacing:0px;word-spacing:0px;writing-mode:lr-tb;text-anchor:start;fill:#000000;fill-opacity:1;stroke:none"
       id="flowRoot42184">
      <path
         d="m 75.548828,69.151796 0.5625,1.6875 q -1.03125,6.1875 -1.6875,12.28125 -0.5625,6.09375 -0.65625,12.28125 v 3.5625 q 0,5.343754 0.1875,10.687504 0.28125,5.25 0.75,10.59375 l -2.0625,1.40625 q -0.1875,-0.0937 -1.5,-0.9375 -1.3125,-0.9375 -3.84375,-2.90625 -2.53125,-1.96875 -6.28125,-5.25 -3.75,-3.28125 -8.625,-8.15625 0.65625,10.78125 2.0625,20.8125 1.40625,9.9375 3.84375,19.3125 2.4375,9.375 5.15625,17.4375 2.71875,8.0625 5.90625,15.09375 3.1875,7.03125 5.71875,13.03125 2.625,5.90625 4.78125,10.96875 v 0.9375 q -0.75,1.5 -2.0625,2.25 -1.21875,0.75 -3.375,0.75 -4.3125,0 -9.28125,-4.40625 -4.875,-4.40625 -8.625,-13.875 -4.59375,-11.625 -7.03125,-25.875 -2.4375,-14.25 -3.28125,-31.59375 -0.1875,-3.75 -0.28125,-6.46875 -0.09375,-2.71875 -0.1875,-5.25 0,-2.625 -0.09375,-5.53125 0,-3 -0.09375,-7.40625 -4.78125,4.59375 -9.65625,8.90625 -4.875,4.3125 -10.21875,7.96875 l -2.34375,-1.5 q 0.46875,-5.15625 0.65625,-10.21875 0.28125,-5.15625 0.28125,-10.312504 v -4.21875 q 0,-6.1875 -0.75,-12.28125 -0.65625,-6.09375 -1.6875,-12.28125 l 0.9375,-1.6875 q 6.75,-4.03125 13.6875,-5.71875 6.9375,-1.78125 14.25,-1.78125 7.40625,0 13.59375,2.0625 6.1875,1.96875 11.25,5.625 z M 48.642578,101.2143 q 0,3.28125 0,7.21875 0,3.9375 0.09375,7.875 0.09375,3.84375 0.09375,7.21875 0.09375,3.375 0.28125,5.4375 0.75,13.03125 2.53125,25.875 1.875,12.75 5.8125,25.3125 1.875,6 3.9375,10.21875 2.0625,4.125 4.125,6.75 2.15625,2.53125 4.40625,3.65625 2.25,1.125 4.5,1.125 1.40625,0 2.34375,-0.46875 -0.09375,-0.1875 -3.28125,-7.5 -3.1875,-7.40625 -9.46875,-22.125 -6.28125,-14.8125 -9.84375,-32.34375 -3.5625,-17.53125 -4.78125,-38.25 l 2.53125,-1.500004 q 4.78125,4.781254 9.46875,9.187504 4.6875,4.40625 10.03125,8.34375 -0.375,-4.59375 -0.5625,-9.09375 -0.09375,-4.5 -0.09375,-9.000004 0,-8.53125 0.5625,-15.09375 0.5625,-6.65625 1.6875,-13.03125 -4.3125,-3.09375 -9.9375,-4.875 -5.53125,-1.78125 -12.375,-1.78125 -6.84375,0 -13.21875,1.59375 -6.375,1.59375 -12.5625,5.15625 1.21875,7.125 1.78125,14.34375 0.65625,7.125 0.65625,14.812504 0,4.21875 -0.1875,8.4375 -0.1875,4.21875 -0.5625,8.4375 5.34375,-3.9375 10.125,-8.34375 4.875,-4.5 9.65625,-9.281254 z"
         id="path42192"
         inkscape:connector-curvature="0" />
    </g>
  </g>
</svg>
