<?xml version="1.0" encoding="UTF-8" standalone="no"?>
<!-- Created with Inkscape (http://www.inkscape.org/) -->

<svg
   xmlns:dc="http://purl.org/dc/elements/1.1/"
   xmlns:cc="http://creativecommons.org/ns#"
   xmlns:rdf="http://www.w3.org/1999/02/22-rdf-syntax-ns#"
   xmlns:svg="http://www.w3.org/2000/svg"
   xmlns="http://www.w3.org/2000/svg"
   xmlns:sodipodi="http://sodipodi.sourceforge.net/DTD/sodipodi-0.dtd"
   xmlns:inkscape="http://www.inkscape.org/namespaces/inkscape"
   width="14.361914mm"
   height="37.951172mm"
   viewBox="0 0 14.361914 37.951172"
   version="1.1"
   id="svg42201"
   inkscape:version="0.92.4 (5da689c313, 2019-01-14)"
   sodipodi:docname="F28.svg">
  <defs
     id="defs42195" />
  <sodipodi:namedview
     id="base"
     pagecolor="#ffffff"
     bordercolor="#666666"
     borderopacity="1.0"
     inkscape:pageopacity="0.0"
     inkscape:pageshadow="2"
     inkscape:zoom="0.35"
     inkscape:cx="-351.83008"
     inkscape:cy="-369.04758"
     inkscape:document-units="mm"
     inkscape:current-layer="layer1"
     showgrid="false"
     fit-margin-top="0"
     fit-margin-left="0"
     fit-margin-right="0"
     fit-margin-bottom="0"
     inkscape:window-width="1920"
     inkscape:window-height="1017"
     inkscape:window-x="-8"
     inkscape:window-y="-8"
     inkscape:window-maximized="1" />
  <metadata
     id="metadata42198">
    <rdf:RDF>
      <cc:Work
         rdf:about="">
        <dc:format>image/svg+xml</dc:format>
        <dc:type
           rdf:resource="http://purl.org/dc/dcmitype/StillImage" />
        <dc:title></dc:title>
      </cc:Work>
    </rdf:RDF>
  </metadata>
  <g
     inkscape:label="Layer 1"
     inkscape:groupmode="layer"
     id="layer1"
     transform="translate(-5.7758747,-13.238323)">
    <g
       aria-label="𓄜"
       transform="scale(0.26458333)"
       style="font-style:normal;font-variant:normal;font-weight:normal;font-stretch:normal;font-size:192px;line-height:1.25;font-family:sans-serif;-inkscape-font-specification:sans-serif;font-variant-ligatures:normal;font-variant-caps:normal;font-variant-numeric:normal;font-feature-settings:normal;text-align:start;letter-spacing:0px;word-spacing:0px;writing-mode:lr-tb;text-anchor:start;fill:#000000;fill-opacity:1;stroke:none"
       id="flowRoot42746">
      <path
         d="m 75.548828,57.722108 0.5625,1.6875 q -0.65625,3.84375 -1.125,7.875 -0.46875,3.46875 -0.84375,7.6875 -0.375,4.125 -0.375,8.25 v 3.75 q 0,5.4375 0.1875,10.875 0.28125,5.437502 0.75,10.968752 l -2.0625,1.40625 q -0.46875,-0.375 -1.21875,-0.84375 -0.65625,-0.46875 -1.6875,-1.125 -1.03125,-0.75 -2.625,-1.96875 -2.8125,-2.0625 -6.28125,-5.34375 -3.46875,-3.375002 -7.6875,-7.593752 1.40625,11.531252 1.78125,22.875002 0.46875,11.34375 0.46875,22.875 v 3.5625 q -0.28125,24.75 -3.375,49.3125 l -1.59375,1.5 h -1.5 l -1.40625,-1.21875 q -1.03125,-7.03125 -1.875,-14.15625 -0.75,-7.125 -1.3125,-14.4375 -1.125,-14.71875 -1.125,-26.0625 0,-4.875 0.09375,-10.59375 0.1875,-5.71875 0.46875,-11.625 0.28125,-6 0.5625,-11.71875 0.375,-5.718752 0.84375,-10.593752 -4.78125,4.78125 -9.46875,9.093752 -4.59375,4.21875 -10.03125,7.875 l -2.34375,-1.5 q 0.46875,-5.15625 0.65625,-10.218752 0.28125,-5.15625 0.28125,-10.21875 v -4.3125 q 0,-6.1875 -0.75,-12.28125 -0.65625,-6.09375 -1.6875,-12.28125 l 0.9375,-1.6875 q 6.75,-4.03125 13.6875,-5.71875 6.9375,-1.78125 14.25,-1.78125 7.40625,0 13.59375,2.0625 6.1875,1.96875 11.25,5.625 z m -23.15625,30.84375 q 4.78125,4.78125 9.375,9.28125 4.6875,4.406252 9.65625,7.968752 -0.375,-4.59375 -0.5625,-9.093752 -0.09375,-4.5 -0.09375,-9 0,-8.53125 0.5625,-15.09375 0.5625,-6.65625 1.6875,-13.03125 -4.3125,-3.09375 -9.9375,-4.875 -5.53125,-1.78125 -12.375,-1.78125 -6.28125,0 -12.9375,1.59375 -6.65625,1.59375 -12.84375,5.15625 1.21875,7.03125 1.78125,13.96875 0.5625,6.9375 0.5625,14.90625 0,4.3125 -0.1875,8.625 -0.09375,4.218752 -0.46875,8.531252 5.15625,-3.9375 9.65625,-8.250002 4.59375,-4.3125 9.1875,-8.90625 l 3,1.59375 q -0.5625,5.625 -0.9375,12.000002 -0.375,6.375 -0.65625,12.84375 -0.28125,6.46875 -0.46875,12.84375 -0.09375,6.28125 -0.09375,12 0,6.65625 0.1875,12.65625 0.28125,6 0.75,11.4375 0.46875,5.4375 1.03125,11.0625 0.65625,5.53125 1.40625,11.4375 1.3125,-11.34375 1.96875,-22.40625 0.75,-11.15625 0.75,-22.3125 v -3.65625 q -0.1875,-12.09375 -0.75,-23.71875 -0.46875,-11.71875 -2.0625,-24.000002 z"
         id="path42754"
         inkscape:connector-curvature="0" />
    </g>
  </g>
</svg>
