<?xml version="1.0" encoding="UTF-8" standalone="no"?>
<!-- Created with Inkscape (http://www.inkscape.org/) -->

<svg
   xmlns:dc="http://purl.org/dc/elements/1.1/"
   xmlns:cc="http://creativecommons.org/ns#"
   xmlns:rdf="http://www.w3.org/1999/02/22-rdf-syntax-ns#"
   xmlns:svg="http://www.w3.org/2000/svg"
   xmlns="http://www.w3.org/2000/svg"
   xmlns:sodipodi="http://sodipodi.sourceforge.net/DTD/sodipodi-0.dtd"
   xmlns:inkscape="http://www.inkscape.org/namespaces/inkscape"
   width="26.317774mm"
   height="38.000782mm"
   viewBox="0 0 26.317774 38.000782"
   version="1.1"
   id="svg42763"
   inkscape:version="0.92.4 (5da689c313, 2019-01-14)"
   sodipodi:docname="F29.svg">
  <defs
     id="defs42757" />
  <sodipodi:namedview
     id="base"
     pagecolor="#ffffff"
     bordercolor="#666666"
     borderopacity="1.0"
     inkscape:pageopacity="0.0"
     inkscape:pageshadow="2"
     inkscape:zoom="0.35"
     inkscape:cx="-348.97266"
     inkscape:cy="-369.04758"
     inkscape:document-units="mm"
     inkscape:current-layer="layer1"
     showgrid="false"
     fit-margin-top="0"
     fit-margin-left="0"
     fit-margin-right="0"
     fit-margin-bottom="0"
     inkscape:window-width="1920"
     inkscape:window-height="1017"
     inkscape:window-x="-8"
     inkscape:window-y="-8"
     inkscape:window-maximized="1" />
  <metadata
     id="metadata42760">
    <rdf:RDF>
      <cc:Work
         rdf:about="">
        <dc:format>image/svg+xml</dc:format>
        <dc:type
           rdf:resource="http://purl.org/dc/dcmitype/StillImage" />
        <dc:title></dc:title>
      </cc:Work>
    </rdf:RDF>
  </metadata>
  <g
     inkscape:label="Layer 1"
     inkscape:groupmode="layer"
     id="layer1"
     transform="translate(-5.0198485,-13.188714)">
    <g
       aria-label="ð“„"
       transform="scale(0.26458333)"
       style="font-style:normal;font-variant:normal;font-weight:normal;font-stretch:normal;font-size:192px;line-height:1.25;font-family:sans-serif;-inkscape-font-specification:sans-serif;font-variant-ligatures:normal;font-variant-caps:normal;font-variant-numeric:normal;font-feature-settings:normal;text-align:start;letter-spacing:0px;word-spacing:0px;writing-mode:lr-tb;text-anchor:start;fill:#000000;fill-opacity:1;stroke:none"
       id="flowRoot43308">
      <path
         d="m 118.44141,80.128358 v 1.5 h -4.59375 v 6 q -9.1875,-2.25 -16.593754,-5.90625 h -26.25 q 0,3 -0.09375,6 0,5.0625 0.1875,10.40625 0.28125,5.343752 0.75,10.687502 l -2.34375,1.03125 q -5.8125,-3.9375 -10.59375,-7.96875 -4.78125,-4.125002 -9.28125,-8.625002 2.8125,24.468752 2.8125,49.031252 0,24.9375 -3.28125,49.6875 -0.46875,0.375 -0.84375,0.75 l -0.75,0.75 h -1.5 l -1.40625,-1.21875 q -2.25,-12.375 -3.1875,-24.75 -0.9375,-12.375 -0.9375,-24.75 0,-12.375 0.65625,-24.75 0.75,-12.46875 1.6875,-24.937502 -4.78125,4.6875 -9.75,9.000002 -4.875,4.21875 -10.3125,7.96875 l -2.34375,-1.5 q 0.75,-11.718752 0.75,-24.000002 0,-13.03125 -2.25,-25.3125 l 0.9375,-1.6875 q 6,-3.75 12.75,-5.625 6.75,-1.96875 13.875,-2.0625 7.03125,0 13.6875,1.96875 6.65625,1.875 12.46875,5.90625 l 0.5625,1.6875 q -0.84375,4.875 -1.40625,9.65625 -0.46875,4.78125 -0.75,9.5625 h 26.15625 q 3.468754,-1.59375 8.156254,-2.71875 l 8.4375,-1.875 v 6.09375 z M 68.566406,105.72211 q -0.65625,-9.187502 -0.65625,-18.093752 0,-8.25 0.5625,-14.8125 0.5625,-6.65625 1.6875,-13.125 -5.25,-3.46875 -11.34375,-5.15625 -6.09375,-1.78125 -12.5625,-1.78125 -6.46875,0 -12.65625,1.78125 -6.1875,1.78125 -11.53125,5.15625 1.96875,11.4375 2.15625,22.96875 v 4.59375 q 0,9.28125 -0.5625,18.562502 10.40625,-7.968752 19.59375,-17.343752 l 2.90625,0.75 2.71875,-0.9375 q 4.78125,4.78125 9.5625,9.1875 4.78125,4.312502 10.125,8.250002 z m -21.75,81 q 2.625,-22.5 2.625,-44.8125 v -3.75 q -0.28125,-24.09375 -3.28125,-48.375002 l -0.09375,0.09375 q -0.9375,12.187502 -1.6875,24.375002 -0.65625,12.09375 -0.75,24.1875 v 2.8125 q 0,11.53125 0.65625,22.78125 0.75,11.25 2.53125,22.6875 z"
         id="path43316"
         inkscape:connector-curvature="0" />
    </g>
  </g>
</svg>
