<?xml version="1.0" encoding="UTF-8" standalone="no"?>
<!-- Created with Inkscape (http://www.inkscape.org/) -->

<svg
   xmlns:dc="http://purl.org/dc/elements/1.1/"
   xmlns:cc="http://creativecommons.org/ns#"
   xmlns:rdf="http://www.w3.org/1999/02/22-rdf-syntax-ns#"
   xmlns:svg="http://www.w3.org/2000/svg"
   xmlns="http://www.w3.org/2000/svg"
   xmlns:sodipodi="http://sodipodi.sourceforge.net/DTD/sodipodi-0.dtd"
   xmlns:inkscape="http://www.inkscape.org/namespaces/inkscape"
   width="28.872658mm"
   height="19.446875mm"
   viewBox="0 0 28.872658 19.446875"
   version="1.1"
   id="svg10998"
   inkscape:version="0.92.4 (5da689c313, 2019-01-14)"
   sodipodi:docname="F3.svg">
  <defs
     id="defs10992" />
  <sodipodi:namedview
     id="base"
     pagecolor="#ffffff"
     bordercolor="#666666"
     borderopacity="1.0"
     inkscape:pageopacity="0.0"
     inkscape:pageshadow="2"
     inkscape:zoom="0.35"
     inkscape:cx="-363.25977"
     inkscape:cy="-311.9031"
     inkscape:document-units="mm"
     inkscape:current-layer="layer1"
     showgrid="false"
     fit-margin-top="0"
     fit-margin-left="0"
     fit-margin-right="0"
     fit-margin-bottom="0"
     inkscape:window-width="1920"
     inkscape:window-height="1017"
     inkscape:window-x="-8"
     inkscape:window-y="-8"
     inkscape:window-maximized="1" />
  <metadata
     id="metadata10995">
    <rdf:RDF>
      <cc:Work
         rdf:about="">
        <dc:format>image/svg+xml</dc:format>
        <dc:type
           rdf:resource="http://purl.org/dc/dcmitype/StillImage" />
        <dc:title></dc:title>
      </cc:Work>
    </rdf:RDF>
  </metadata>
  <g
     inkscape:label="Layer 1"
     inkscape:groupmode="layer"
     id="layer1"
     transform="translate(-8.7999796,-46.862097)">
    <g
       aria-label="ð“„"
       transform="scale(0.26458333)"
       style="font-style:normal;font-variant:normal;font-weight:normal;font-stretch:normal;font-size:192px;line-height:1.25;font-family:sans-serif;-inkscape-font-specification:'sans-serif, Normal';font-variant-ligatures:normal;font-variant-caps:normal;font-variant-numeric:normal;font-feature-settings:normal;text-align:start;letter-spacing:0px;word-spacing:0px;writing-mode:lr-tb;text-anchor:start;fill:#000000;fill-opacity:1;stroke:none"
       id="flowRoot11546">
      <path
         d="m 139.75977,241.80414 q -2.8125,0.375 -18.75,1.6875 -15.9375,1.21875 -22.125004,4.03125 -6.09375,2.8125 -9.84375,3 l -0.46875,0.0937 q -5.25,0 -7.125,-4.875 -1.78125,-4.96875 -8.25,-12.09375 -1.6875,-0.75 -3.28125,-0.75 -2.625,0 -7.3125,2.15625 -4.59375,2.0625 -7.125,2.0625 -2.90625,0 -6.28125,-2.71875 -3.375,-2.71875 -3.75,-8.625 -7.40625,-3.84375 -9.84375,-7.6875 -2.34375,-3.9375 -2.34375,-9.5625 0.1875,-0.46875 0.46875,-0.84375 l 0.46875,-0.84375 q 4.5,-2.4375 9.65625,-5.0625 5.25,-2.71875 9.84375,-5.71875 l 2.71875,-1.875 q 1.6875,-1.125 6.5625,-5.625 4.875,-4.59375 17.90625,-4.59375 2.25,-3.46875 6.09375,-5.15625 3.9375,-1.6875 8.71875,-1.6875 l 1.59375,0.0937 q 3.187504,0.1875 6.093754,0.75 l 1.03125,1.875 q -1.03125,3.28125 -2.25,6.09375 7.03125,1.21875 9.65625,2.8125 2.625,1.5 6.28125,4.21875 3.65625,2.625 7.125,6.65625 3.5625,4.03125 7.6875,11.625 4.21875,7.5 9.46875,28.40625 l -1.03125,1.96875 z M 48.447266,226.33539 q 0.46875,2.8125 1.875,4.6875 1.40625,1.78125 4.40625,3 2.53125,0 4.875,-0.84375 l 4.59375,-1.6875 q 1.59375,-0.5625 3.28125,-0.9375 1.6875,-0.46875 2.90625,-0.46875 1.59375,0 3.28125,0.5625 3.5625,-3.75 10.875,-3.75 7.3125,0 11.15625,-2.71875 3.84375,-2.71875 3.84375,-8.71875 0,-4.21875 -2.34375,-7.78125 -2.34375,-3.5625 -5.8125,-6 l 1.875,-2.34375 q 4.21875,2.8125 6.750004,6.84375 2.53125,4.03125 2.53125,8.90625 0,6.09375 -3.375004,10.03125 -3.28125,3.9375 -11.8125,4.40625 -8.4375,0.375 -11.0625,3 1.3125,1.3125 2.53125,2.8125 1.21875,1.40625 2.25,3 l 1.40625,2.15625 q 1.59375,2.71875 2.15625,4.96875 0.65625,2.15625 5.90625,2.15625 11.531254,-5.53125 28.125004,-6.9375 16.59375,-1.40625 20.4375,-1.875 -3.9375,-15.1875 -7.03125,-22.21875 -3.09375,-7.03125 -6.09375,-11.34375 -3,-4.3125 -6.28125,-7.5 -3.28125,-3.1875 -6.65625,-5.0625 -3.375,-1.875 -6.375,-2.8125 -3,-0.9375 -3.65625,-0.9375 l -2.4375,-0.28125 q -1.875004,2.15625 -5.156254,3.65625 -3.1875,1.40625 -5.625,2.25 l -0.9375,-2.90625 q 2.71875,-1.03125 5.15625,-2.25 2.53125,-1.3125 4.78125,-3.375 l 2.250004,-5.53125 q -2.531254,-0.28125 -5.062504,-0.28125 -4.40625,0 -7.6875,1.5 -3.28125,1.5 -5.34375,4.6875 l -1.3125,0.5625 q -12.46875,0 -16.125,3.375 -3.5625,3.28125 -4.6875,4.21875 l -3.84375,2.90625 -1.6875,1.125 q -4.5,3 -9.5625,5.53125 -4.96875,2.53125 -9.46875,4.96875 0,4.59375 2.4375,7.96875 2.4375,3.375 8.625,6.375 1.03125,0 2.0625,-0.1875 l 1.96875,-0.28125 q 6.65625,-1.5 11.15625,-5.53125 4.5,-4.125 7.03125,-4.125 1.5,0 3.09375,1.03125 1.6875,0.9375 2.71875,1.96875 l -2.25,2.0625 q -0.65625,-0.65625 -1.6875,-1.3125 -1.03125,-0.65625 -2.0625,-0.65625 -1.6875,0 -6.46875,4.40625 -4.6875,4.40625 -14.4375,5.53125 z m 27.28125,-30.28125 q -3.375,2.25 -5.4375,2.25 -1.96875,0 -1.96875,-2.25 0,-2.15625 1.875,-2.15625 1.6875,0 5.53125,2.15625 z"
         id="path11554"
         inkscape:connector-curvature="0" />
    </g>
  </g>
</svg>
