<?xml version="1.0" encoding="UTF-8" standalone="no"?>
<!-- Created with Inkscape (http://www.inkscape.org/) -->

<svg
   xmlns:dc="http://purl.org/dc/elements/1.1/"
   xmlns:cc="http://creativecommons.org/ns#"
   xmlns:rdf="http://www.w3.org/1999/02/22-rdf-syntax-ns#"
   xmlns:svg="http://www.w3.org/2000/svg"
   xmlns="http://www.w3.org/2000/svg"
   xmlns:sodipodi="http://sodipodi.sourceforge.net/DTD/sodipodi-0.dtd"
   xmlns:inkscape="http://www.inkscape.org/namespaces/inkscape"
   width="38.050392mm"
   height="25.598463mm"
   viewBox="0 0 38.050392 25.598463"
   version="1.1"
   id="svg10717"
   inkscape:version="0.92.4 (5da689c313, 2019-01-14)"
   sodipodi:docname="F30.svg">
  <defs
     id="defs10711" />
  <sodipodi:namedview
     id="base"
     pagecolor="#ffffff"
     bordercolor="#666666"
     borderopacity="1.0"
     inkscape:pageopacity="0.0"
     inkscape:pageshadow="2"
     inkscape:zoom="0.35"
     inkscape:cx="-348.97266"
     inkscape:cy="-371.903"
     inkscape:document-units="mm"
     inkscape:current-layer="layer1"
     showgrid="false"
     fit-margin-top="0"
     fit-margin-left="0"
     fit-margin-right="0"
     fit-margin-bottom="0"
     inkscape:window-width="1920"
     inkscape:window-height="1017"
     inkscape:window-x="-8"
     inkscape:window-y="-8"
     inkscape:window-maximized="1" />
  <metadata
     id="metadata10714">
    <rdf:RDF>
      <cc:Work
         rdf:about="">
        <dc:format>image/svg+xml</dc:format>
        <dc:type
           rdf:resource="http://purl.org/dc/dcmitype/StillImage" />
        <dc:title></dc:title>
      </cc:Work>
    </rdf:RDF>
  </metadata>
  <g
     inkscape:label="Layer 1"
     inkscape:groupmode="layer"
     id="layer1"
     transform="translate(-5.0198485,-24.835535)">
    <g
       aria-label="𓄞"
       transform="scale(0.26458333)"
       style="font-style:normal;font-variant:normal;font-weight:normal;font-stretch:normal;font-size:192px;line-height:1.25;font-family:sans-serif;-inkscape-font-specification:'sans-serif, Normal';font-variant-ligatures:normal;font-variant-caps:normal;font-variant-numeric:normal;font-feature-settings:normal;text-align:start;letter-spacing:0px;word-spacing:0px;writing-mode:lr-tb;text-anchor:start;fill:#000000;fill-opacity:1;stroke:none"
       id="flowRoot11262">
      <path
         d="m 137.09766,188.83539 q 0.84375,-7.59375 0.84375,-14.90625 0,-14.0625 -3,-26.53125 -3,-12.5625 -9.46875,-24.84375 -0.375,0 -0.65625,0.0937 h -0.65625 q -3.28125,0.1875 -16.96875,3.5625 -13.687504,3.28125 -23.718754,3.28125 -5.90625,0 -12.28125,-1.21875 -6.375,-1.3125 -17.8125,-5.25 l -0.75,3.375 q -1.3125,5.8125 -3.375,8.625 -1.96875,2.71875 -4.6875,2.71875 -1.40625,0 -2.4375,-0.75 -1.03125,-0.84375 -1.03125,-2.8125 0,-1.59375 0.9375,-4.03125 1.03125,-2.53125 2.4375,-4.6875 l 1.59375,-2.53125 q -1.03125,0.28125 -1.875,0.75 l -3.375,1.96875 q -1.125,0.65625 -2.90625,1.125 -1.6875,0.46875 -3.65625,0.46875 h -1.03125 q -6.1875,-0.375 -10.21875,-3.9375 -4.03125,-3.5625 -4.03125,-7.96875 0,-4.78125 4.40625,-7.78125 4.40625,-3.09375 10.3125,-3.09375 4.125,0 7.5,1.5 3.46875,1.40625 4.96875,1.875 -1.78125,-1.78125 -3.46875,-4.6875 -1.6875,-2.90625 -1.6875,-4.5 0,-1.6875 1.21875,-3.1875 1.3125,-1.59375 3.1875,-1.59375 2.53125,0 4.5,2.25 1.96875,2.15625 2.53125,5.4375 l 0.9375,5.90625 q 1.875,-0.1875 3.75,-0.5625 l 3.65625,-0.75 q 2.0625,-0.375 10.5,-2.25 8.53125,-1.875 14.53125,-1.875 h 1.3125 q 9.5625,0.28125 20.250004,2.53125 10.6875,2.25 16.5,4.03125 5.8125,1.6875 13.6875,1.6875 4.21875,0 8.15625,-0.375 l 7.78125,-0.5625 q 3.84375,-0.28125 7.6875,-0.28125 l 1.59375,1.5 v 10.5 l -1.59375,1.5 -7.125,-0.0937 q -3.65625,0 -7.21875,-0.0937 8.71875,18 11.8125,27.5625 3.1875,9.5625 4.125,18 l -1.59375,1.5 h -10.40625 q 0,2.8125 0.0937,5.625 0,2.25 -0.0937,5.90625 -0.0937,3.5625 -0.0937,8.15625 l -1.59375,1.5 h -10.59375 z m -86.906254,-67.125 -1.96875,2.8125 q -1.78125,2.4375 -3,5.0625 -1.125,2.625 -1.125,4.875 0,0.1875 0.09375,0.1875 0.28125,0 0.46875,0.0937 h 0.1875 l 0.75,-0.28125 q 2.53125,-2.625 3.46875,-6.375 1.03125,-3.84375 1.6875,-7.3125 l 1.875,-1.125 q 14.15625,4.78125 20.15625,5.8125 6.09375,1.03125 10.6875,1.03125 7.59375,0 15.28125,-1.5 7.781254,-1.59375 16.687504,-3.65625 l 4.21875,-1.03125 q 3.09375,-0.65625 7.96875,-0.9375 4.96875,-0.28125 8.8125,-0.28125 2.90625,0 9.09375,0.28125 6.1875,0.1875 14.25,0.1875 v -7.5 q -3.75,0 -10.03125,0.5625 -6.1875,0.5625 -12.5625,0.5625 -7.78125,0 -13.875,-1.78125 -6,-1.78125 -16.6875,-3.9375 -10.593754,-2.25 -19.500004,-2.4375 h -1.3125 q -6.84375,0 -18.1875,2.71875 -11.34375,2.71875 -15.46875,2.71875 l -1.40625,-1.21875 -1.125,1.21875 q -0.84375,0 -1.59375,0.28125 -0.65625,0.28125 -1.21875,0.28125 -1.6875,0 -5.71875,-1.78125 -4.03125,-1.78125 -7.03125,-1.78125 -4.59375,0 -8.4375,2.15625 -3.75,2.0625 -3.75,5.4375 v 0.1875 q 0.1875,3.5625 3.84375,6.375 3.75,2.71875 7.96875,2.71875 1.3125,0 2.90625,-0.46875 1.6875,-0.5625 3.09375,-1.21875 l 4.21875,-2.0625 q 2.15625,-1.03125 5.25,-1.03125 z m 97.500004,65.90625 q 0,-4.40625 0.0937,-7.96875 0.0937,-3.5625 0.0937,-5.71875 0,-2.71875 -0.0937,-5.4375 v -2.0625 l -0.1875,-2.0625 q -0.5625,-8.34375 -3.5625,-18.375 -3,-10.125 -9.65625,-23.4375 h -5.53125 q 6.46875,11.8125 9.28125,24.46875 2.90625,12.5625 2.90625,26.4375 0,7.03125 -0.75,14.15625 z m -2.90625,-48.75 q 2.4375,6.75 4.03125,13.6875 1.6875,6.84375 1.875,13.875 h 8.90625 q -0.84375,-7.40625 -3.84375,-16.125 -3,-8.71875 -7.125,-17.34375 l -4.96875,-10.40625 h -5.8125 v 0.0937 l 1.6875,3.46875 q 0.5625,1.21875 1.96875,4.6875 1.5,3.46875 1.6875,3.84375 l 0.75,1.6875 0.5625,1.78125 z M 44.097656,97.99164 q 0.28125,3.09375 2.25,5.34375 2.0625,2.15625 4.125,4.3125 0,-0.375 -1.03125,-5.34375 -0.9375,-4.96875 -4.5,-5.34375 -0.65625,0.46875 -0.84375,1.03125 z"
         id="path11270"
         inkscape:connector-curvature="0" />
    </g>
  </g>
</svg>
