<?xml version="1.0" encoding="UTF-8" standalone="no"?>
<!-- Created with Inkscape (http://www.inkscape.org/) -->

<svg
   xmlns:dc="http://purl.org/dc/elements/1.1/"
   xmlns:cc="http://creativecommons.org/ns#"
   xmlns:rdf="http://www.w3.org/1999/02/22-rdf-syntax-ns#"
   xmlns:svg="http://www.w3.org/2000/svg"
   xmlns="http://www.w3.org/2000/svg"
   xmlns:sodipodi="http://sodipodi.sourceforge.net/DTD/sodipodi-0.dtd"
   xmlns:inkscape="http://www.inkscape.org/namespaces/inkscape"
   width="17.412889mm"
   height="37.355858mm"
   viewBox="0 0 17.412889 37.355858"
   version="1.1"
   id="svg43325"
   inkscape:version="0.92.4 (5da689c313, 2019-01-14)"
   sodipodi:docname="F31.svg">
  <defs
     id="defs43319" />
  <sodipodi:namedview
     id="base"
     pagecolor="#ffffff"
     bordercolor="#666666"
     borderopacity="1.0"
     inkscape:pageopacity="0.0"
     inkscape:pageshadow="2"
     inkscape:zoom="0.35"
     inkscape:cx="-334.6875"
     inkscape:cy="-385.02024"
     inkscape:document-units="mm"
     inkscape:current-layer="layer1"
     showgrid="false"
     fit-margin-top="0"
     fit-margin-left="0"
     fit-margin-right="0"
     fit-margin-bottom="0"
     inkscape:window-width="1920"
     inkscape:window-height="1017"
     inkscape:window-x="-8"
     inkscape:window-y="-8"
     inkscape:window-maximized="1" />
  <metadata
     id="metadata43322">
    <rdf:RDF>
      <cc:Work
         rdf:about="">
        <dc:format>image/svg+xml</dc:format>
        <dc:type
           rdf:resource="http://purl.org/dc/dcmitype/StillImage" />
        <dc:title></dc:title>
      </cc:Work>
    </rdf:RDF>
  </metadata>
  <g
     inkscape:label="Layer 1"
     inkscape:groupmode="layer"
     id="layer1"
     transform="translate(-1.2402344,-9.6075372)">
    <g
       aria-label="𓄟"
       transform="scale(0.26458333)"
       style="font-style:normal;font-variant:normal;font-weight:normal;font-stretch:normal;font-size:192px;line-height:1.25;font-family:sans-serif;-inkscape-font-specification:sans-serif;font-variant-ligatures:normal;font-variant-caps:normal;font-variant-numeric:normal;font-feature-settings:normal;text-align:start;letter-spacing:0px;word-spacing:0px;writing-mode:lr-tb;text-anchor:start;fill:#000000;fill-opacity:1;stroke:none"
       id="flowRoot43870">
      <path
         d="m 63.28125,83.936952 -1.5,-4.5 -2.25,3.375 -21.9375,-22.875 3.5625,30.09375 h -3.5625 l 2.625,21.093748 h -2.625 l 2.625,19.6875 h -2.625 q 0.46875,5.25 0.75,10.96875 0.375,5.71875 0.46875,11.4375 0.1875,5.625 0.1875,11.15625 0.09375,5.53125 0.09375,10.3125 0,1.3125 -0.84375,2.0625 -0.75,0.75 -1.78125,0.75 -1.21875,0 -1.6875,-0.65625 -0.375,-0.75 -0.375,-2.15625 0,-11.71875 0.375,-23.0625 0.375,-11.34375 1.3125,-20.8125 H 33.375 l 2.71875,-19.6875 H 33.375 L 36.09375,90.030702 H 33.375 l 2.71875,-30.09375 -22.03125,22.6875 -2.15625,-3.1875 -1.5,4.5 2.625,24.187498 H 9.5625 l 3.46875,22.6875 H 9.9375 q 0.5625,5.25 0.84375,11.0625 0.375,5.8125 0.5625,11.71875 0.1875,5.8125 0.1875,11.25 0.09375,5.4375 0.09375,9.84375 0,1.5 -0.84375,2.15625 -0.75,0.65625 -1.78125,0.65625 -1.3125,0 -1.78125,-0.65625 -0.375,-0.75 -0.375,-2.15625 0,-12.84375 0.28125,-23.625 0.28125,-10.78125 1.3125,-20.25 h -3.75 l 3.375,-22.6875 h -3.375 l 5.71875,-30.187498 -2.25,-3.1875 27.9375,-15 -16.6875,-11.25 q -0.84375,-1.5 -0.84375,-2.0625 0,-2.8125 1.96875,-2.8125 0.84375,0 15.65625,13.40625 l -1.125,-18.46875 q 0.5625,-1.125 1.03125,-1.6875 0.46875,-0.5625 1.40625,-0.5625 0.75,0 1.21875,0.5625 0.46875,0.5625 1.03125,1.6875 l -2.0625,18.46875 Q 52.5,43.624452 53.25,43.624452 q 2.25,0 2.25,2.8125 0,0.75 -0.375,1.21875 -0.28125,0.375 -0.9375,0.84375 l -16.59375,11.25 27.75,15 -2.0625,3.1875 L 69,108.12445 H 65.90625 L 70.5,130.81195 h -4.21875 q 0.5625,5.25 0.84375,10.875 0.28125,5.625 0.375,11.25 0.1875,5.625 0.1875,11.15625 0,5.53125 0,10.59375 0,1.3125 -0.84375,2.0625 -0.75,0.75 -1.78125,0.75 -1.21875,0 -1.6875,-0.65625 -0.375,-0.75 -0.375,-2.15625 0,-5.53125 0.09375,-11.25 0.09375,-5.8125 0.28125,-11.53125 0.28125,-5.71875 0.5625,-11.0625 0.375,-5.34375 0.84375,-10.03125 h -4.125 l 3.75,-22.6875 h -3.75 z"
         id="path43878"
         inkscape:connector-curvature="0" />
    </g>
  </g>
</svg>
