<?xml version="1.0" encoding="UTF-8" standalone="no"?>
<!-- Created with Inkscape (http://www.inkscape.org/) -->

<svg
   xmlns:dc="http://purl.org/dc/elements/1.1/"
   xmlns:cc="http://creativecommons.org/ns#"
   xmlns:rdf="http://www.w3.org/1999/02/22-rdf-syntax-ns#"
   xmlns:svg="http://www.w3.org/2000/svg"
   xmlns="http://www.w3.org/2000/svg"
   xmlns:sodipodi="http://sodipodi.sourceforge.net/DTD/sodipodi-0.dtd"
   xmlns:inkscape="http://www.inkscape.org/namespaces/inkscape"
   width="37.603905mm"
   height="9.0785151mm"
   viewBox="0 0 37.603905 9.0785151"
   version="1.1"
   id="svg891"
   inkscape:version="0.92.4 (5da689c313, 2019-01-14)"
   sodipodi:docname="F32.svg">
  <defs
     id="defs885" />
  <sodipodi:namedview
     id="base"
     pagecolor="#ffffff"
     bordercolor="#666666"
     borderopacity="1.0"
     inkscape:pageopacity="0.0"
     inkscape:pageshadow="2"
     inkscape:zoom="0.35"
     inkscape:cx="1242.4551"
     inkscape:cy="-316.26047"
     inkscape:document-units="mm"
     inkscape:current-layer="layer1"
     showgrid="false"
     fit-margin-top="0"
     fit-margin-left="0"
     fit-margin-right="0"
     fit-margin-bottom="0"
     inkscape:window-width="1920"
     inkscape:window-height="1017"
     inkscape:window-x="-8"
     inkscape:window-y="-8"
     inkscape:window-maximized="1" />
  <metadata
     id="metadata888">
    <rdf:RDF>
      <cc:Work
         rdf:about="">
        <dc:format>image/svg+xml</dc:format>
        <dc:type
           rdf:resource="http://purl.org/dc/dcmitype/StillImage" />
        <dc:title></dc:title>
      </cc:Work>
    </rdf:RDF>
  </metadata>
  <g
     inkscape:label="Layer 1"
     inkscape:groupmode="layer"
     id="layer1"
     transform="translate(416.04541,-56.077569)">
    <g
       aria-label="𓄡"
       transform="scale(0.26458333)"
       style="font-style:normal;font-variant:normal;font-weight:normal;font-stretch:normal;font-size:192px;line-height:1.25;font-family:sans-serif;-inkscape-font-specification:sans-serif;font-variant-ligatures:normal;font-variant-caps:normal;font-variant-numeric:normal;font-feature-settings:normal;text-align:start;letter-spacing:0px;word-spacing:0px;writing-mode:lr-tb;text-anchor:start;fill:#000000;fill-opacity:1;stroke:none"
       id="flowRoot1436">
      <path
         d="m -1501.4863,233.88422 q -3.2813,0.1875 -4.875,0.46875 -1.5938,0.1875 -2.25,0.1875 -3.75,0.1875 -7.4063,0.65625 -3.6562,0.375 -7.3125,0.46875 0.1875,0.75 0.2813,1.40625 0.1875,0.65625 0.1875,0.9375 l -1.125,2.4375 -1.5938,0.5625 q -1.9687,-0.65625 -3,-2.25 -0.4687,0.1875 -3.8437,0.9375 -3.2813,0.75 -9.75,2.0625 0,4.5 -2.25,4.5 -2.3438,0 -2.3438,-4.5 -5.7187,0 -12,-3 -1.125,1.59375 -3,2.4375 -1.9687,0 -1.9687,-1.875 0,-1.03125 0.375,-2.0625 -2.25,-1.875 -3.2813,-3 -0.9375,-1.21875 -1.3125,-3.09375 -2.4375,0 -4.5,-1.5 0,-3.09375 4.5,-3.09375 0.6563,-1.40625 4.5938,-4.5 -0.4688,-2.0625 -0.4688,-3.28125 v -0.65625 q 0,-1.40625 2.1563,-1.40625 1.6875,0.65625 2.9062,2.34375 2.9063,-1.5 12,-1.5 0,-5.625 2.3438,-5.625 2.25,0 2.25,5.625 10.5937,0 13.5937,3 1.2188,-1.59375 3.0938,-2.34375 2.625,0 2.625,2.4375 0,1.03125 -0.2813,1.59375 4.7813,0.84375 9.375,1.3125 4.6875,0.375 8.7188,0.375 11.7187,0 22.5,-3.1875 10.9687,-3.1875 20.5312,-3.1875 1.9688,0 5.0625,0.1875 3.0938,0.1875 6.6563,0.65625 3.5625,0.46875 7.0312,1.3125 3.5625,0.75 6.4688,2.15625 2.9062,1.3125 4.6875,3.28125 1.7812,1.96875 1.7812,4.59375 0,2.25 -1.5937,4.03125 -1.5938,1.78125 -4.3125,3.09375 -2.625,1.3125 -6,2.25 -3.2813,0.9375 -6.75,1.5 -3.4688,0.5625 -6.75,0.84375 -3.2813,0.28125 -5.8125,0.28125 -10.9688,0 -24.5625,-3.9375 -13.6875,-3.9375 -15.375,-3.9375 z m 68.1562,-3.9375 q 0,-1.59375 -1.4062,-2.90625 -1.3125,-1.3125 -3.5625,-2.34375 -2.25,-1.03125 -5.1563,-1.78125 -2.9062,-0.75 -6,-1.21875 -3.0937,-0.5625 -6.1875,-0.84375 -3,-0.28125 -5.5312,-0.28125 -9.75,0 -20.25,3.09375 -5.3438,1.59375 -10.9688,2.34375 -5.625,0.75 -12.375,0.75 -3.2812,0 -5.5312,-0.0937 -2.25,-0.1875 -4.4063,-0.375 -1.5,-0.1875 -2.9062,-0.1875 -1.3125,-0.0937 -2.3438,-0.1875 -1.2187,-0.0937 -2.3437,-0.0937 l 2.8125,3.84375 -3.375,3.28125 q 0.8437,0 1.6875,-0.0937 0.75,-0.0937 1.5,-0.0937 0.8437,0 1.5937,-0.1875 l 17.1563,-1.59375 q 0.8437,0.0937 1.5,0.1875 0.6562,0.0937 1.5937,0.375 1.0313,0.28125 2.4375,0.75 1.5,0.46875 3.9375,1.125 l 7.5938,2.15625 q 5.0625,1.5 9.75,2.34375 4.6875,0.84375 10.5937,0.84375 0.4688,0 2.9063,-0.0937 2.4375,-0.1875 5.7187,-0.5625 3.375,-0.375 7.125,-1.03125 3.8438,-0.65625 7.0313,-1.59375 3.1875,-0.9375 5.25,-2.34375 2.1562,-1.40625 2.1562,-3.1875 z m -129.75,-1.78125 h 36.8438 q -5.9063,-6.75 -18.1875,-6.75 -17.5313,0 -18.6563,6.75 z m 36.5625,3 h -36.5625 q 0.8438,3 6.75,4.78125 5.7188,1.78125 11.9063,1.78125 10.5,0 17.9062,-6.5625 z"
         id="path1444"
         inkscape:connector-curvature="0" />
    </g>
  </g>
</svg>
