<?xml version="1.0" encoding="UTF-8" standalone="no"?>
<!-- Created with Inkscape (http://www.inkscape.org/) -->

<svg
   xmlns:dc="http://purl.org/dc/elements/1.1/"
   xmlns:cc="http://creativecommons.org/ns#"
   xmlns:rdf="http://www.w3.org/1999/02/22-rdf-syntax-ns#"
   xmlns:svg="http://www.w3.org/2000/svg"
   xmlns="http://www.w3.org/2000/svg"
   xmlns:sodipodi="http://sodipodi.sourceforge.net/DTD/sodipodi-0.dtd"
   xmlns:inkscape="http://www.inkscape.org/namespaces/inkscape"
   width="37.529491mm"
   height="23.514856mm"
   viewBox="0 0 37.529491 23.514856"
   version="1.1"
   id="svg11279"
   inkscape:version="0.92.4 (5da689c313, 2019-01-14)"
   sodipodi:docname="F33.svg">
  <defs
     id="defs11273" />
  <sodipodi:namedview
     id="base"
     pagecolor="#ffffff"
     bordercolor="#666666"
     borderopacity="1.0"
     inkscape:pageopacity="0.0"
     inkscape:pageshadow="2"
     inkscape:zoom="0.35"
     inkscape:cx="-348.97266"
     inkscape:cy="-371.903"
     inkscape:document-units="mm"
     inkscape:current-layer="layer1"
     showgrid="false"
     fit-margin-top="0"
     fit-margin-left="0"
     fit-margin-right="0"
     fit-margin-bottom="0"
     inkscape:window-width="1920"
     inkscape:window-height="1017"
     inkscape:window-x="-8"
     inkscape:window-y="-8"
     inkscape:window-maximized="1" />
  <metadata
     id="metadata11276">
    <rdf:RDF>
      <cc:Work
         rdf:about="">
        <dc:format>image/svg+xml</dc:format>
        <dc:type
           rdf:resource="http://purl.org/dc/dcmitype/StillImage" />
        <dc:title></dc:title>
      </cc:Work>
    </rdf:RDF>
  </metadata>
  <g
     inkscape:label="Layer 1"
     inkscape:groupmode="layer"
     id="layer1"
     transform="translate(-5.0198485,-26.919142)">
    <g
       aria-label="𓄢"
       transform="scale(0.26458333)"
       style="font-style:normal;font-variant:normal;font-weight:normal;font-stretch:normal;font-size:192px;line-height:1.25;font-family:sans-serif;-inkscape-font-specification:'sans-serif, Normal';font-variant-ligatures:normal;font-variant-caps:normal;font-variant-numeric:normal;font-feature-settings:normal;text-align:start;letter-spacing:0px;word-spacing:0px;writing-mode:lr-tb;text-anchor:start;fill:#000000;fill-opacity:1;stroke:none"
       id="flowRoot11824">
      <path
         d="m 18.972656,101.74164 70.21875,40.125 q 0.75,-0.0937 1.875,-0.1875 1.21875,-0.1875 2.4375,-0.28125 1.3125,-0.0937 2.4375,-0.1875 1.21875,-0.0937 1.96875,-0.0937 4.781254,0 9.562504,0.9375 4.78125,0.84375 9.28125,2.71875 4.59375,1.875 8.90625,4.875 4.3125,3 8.0625,7.21875 l 6.65625,7.5 q 5.0625,5.71875 10.03125,11.625 5.0625,5.90625 10.40625,12.1875 l -1.3125,2.4375 -11.15625,-2.34375 q -24.46875,-5.0625 -38.25,-13.59375 -3.46875,-2.15625 -6.5625,-4.78125 -3,-2.71875 -5.718754,-6.1875 -2.71875,-3.5625 -5.15625,-7.96875 -2.4375,-4.5 -4.78125,-10.21875 l -68.90625,-39.5625 z m 72,43.21875 q 1.875,4.96875 3.65625,8.4375 1.875,3.46875 3.65625,6 1.781254,2.53125 3.468754,4.3125 1.6875,1.78125 3.375,3.28125 6.5625,5.90625 17.0625,10.5 10.40625,4.5 33.5625,9.28125 -2.15625,-2.625 -4.40625,-5.15625 -2.15625,-2.625 -4.3125,-5.15625 l -13.875,-15.65625 q -4.125,-4.6875 -8.15625,-7.78125 -3.9375,-3.09375 -7.875,-4.875 -7.59375,-3.46875 -19.406254,-3.75 -0.84375,0 -2.0625,0.0937 -1.125,0.0937 -2.15625,0.1875 -1.21875,0.1875 -2.53125,0.28125 z"
         id="path11832"
         inkscape:connector-curvature="0" />
    </g>
  </g>
</svg>
