<?xml version="1.0" encoding="UTF-8" standalone="no"?>
<!-- Created with Inkscape (http://www.inkscape.org/) -->

<svg
   xmlns:dc="http://purl.org/dc/elements/1.1/"
   xmlns:cc="http://creativecommons.org/ns#"
   xmlns:rdf="http://www.w3.org/1999/02/22-rdf-syntax-ns#"
   xmlns:svg="http://www.w3.org/2000/svg"
   xmlns="http://www.w3.org/2000/svg"
   xmlns:sodipodi="http://sodipodi.sourceforge.net/DTD/sodipodi-0.dtd"
   xmlns:inkscape="http://www.inkscape.org/namespaces/inkscape"
   width="19.000391mm"
   height="19.42207mm"
   viewBox="0 0 19.000391 19.42207"
   version="1.1"
   id="svg1453"
   inkscape:version="0.92.4 (5da689c313, 2019-01-14)"
   sodipodi:docname="F34.svg">
  <defs
     id="defs1447" />
  <sodipodi:namedview
     id="base"
     pagecolor="#ffffff"
     bordercolor="#666666"
     borderopacity="1.0"
     inkscape:pageopacity="0.0"
     inkscape:pageshadow="2"
     inkscape:zoom="0.35"
     inkscape:cx="-346.11523"
     inkscape:cy="-326.19016"
     inkscape:document-units="mm"
     inkscape:current-layer="layer1"
     showgrid="false"
     fit-margin-top="0"
     fit-margin-left="0"
     fit-margin-right="0"
     fit-margin-bottom="0"
     inkscape:window-width="1920"
     inkscape:window-height="1017"
     inkscape:window-x="-8"
     inkscape:window-y="-8"
     inkscape:window-maximized="1" />
  <metadata
     id="metadata1450">
    <rdf:RDF>
      <cc:Work
         rdf:about="">
        <dc:format>image/svg+xml</dc:format>
        <dc:type
           rdf:resource="http://purl.org/dc/dcmitype/StillImage" />
        <dc:title></dc:title>
      </cc:Work>
    </rdf:RDF>
  </metadata>
  <g
     inkscape:label="Layer 1"
     inkscape:groupmode="layer"
     id="layer1"
     transform="translate(-4.2638223,-43.106784)">
    <g
       aria-label="𓄣"
       transform="scale(0.26458333)"
       style="font-style:normal;font-variant:normal;font-weight:normal;font-stretch:normal;font-size:192px;line-height:1.25;font-family:sans-serif;-inkscape-font-specification:sans-serif;font-variant-ligatures:normal;font-variant-caps:normal;font-variant-numeric:normal;font-feature-settings:normal;text-align:start;letter-spacing:0px;word-spacing:0px;writing-mode:lr-tb;text-anchor:start;fill:#000000;fill-opacity:1;stroke:none"
       id="flowRoot1998">
      <path
         d="m 66.083984,174.26703 q 1.40625,0.9375 2.53125,2.625 1.125,1.6875 1.96875,3.75 l 12.375,-5.625 1.96875,0.9375 3,12 -0.5625,1.6875 -11.34375,7.125 q -0.28125,10.6875 -3.65625,20.34375 -3.28125,9.5625 -8.625,18.65625 l -1.3125,0.5625 h -20.90625 l -1.21875,-0.75 q -4.5,-9.375 -7.5,-18.84375 -2.90625,-9.5625 -3.1875,-19.875 l -12.5625,-7.03125 -0.9375,-1.6875 3,-12 2.34375,-0.9375 12,5.25 q 1.125,-1.875 2.625,-3.375 1.59375,-1.59375 3.46875,-2.71875 l -5.25,-9.1875 1.21875,-2.25 h 34.40625 l 1.3125,2.4375 z m -3.375,-0.0937 4.6875,-8.25 h -29.25 l 4.6875,8.0625 -0.375,2.15625 q -2.25,1.21875 -4.03125,2.90625 -1.78125,1.59375 -2.90625,3.84375 l -1.96875,0.9375 -11.90625,-5.34375 -2.34375,9.1875 12.65625,7.03125 0.65625,1.21875 q 0.28125,10.03125 2.90625,19.21875 2.71875,9.1875 7.03125,18.1875 h 19.125 q 5.15625,-8.90625 8.15625,-18.09375 3,-9.1875 3.1875,-19.59375 l 0.9375,-1.125 10.875,-6.75 -2.34375,-9.28125 -11.625,5.15625 -2.15625,-0.46875 q -0.9375,-1.875 -2.15625,-3.84375 -1.21875,-1.96875 -3.09375,-3 z"
         id="path2006"
         inkscape:connector-curvature="0" />
    </g>
  </g>
</svg>
