<?xml version="1.0" encoding="UTF-8" standalone="no"?>
<!-- Created with Inkscape (http://www.inkscape.org/) -->

<svg
   xmlns:dc="http://purl.org/dc/elements/1.1/"
   xmlns:cc="http://creativecommons.org/ns#"
   xmlns:rdf="http://www.w3.org/1999/02/22-rdf-syntax-ns#"
   xmlns:svg="http://www.w3.org/2000/svg"
   xmlns="http://www.w3.org/2000/svg"
   xmlns:sodipodi="http://sodipodi.sourceforge.net/DTD/sodipodi-0.dtd"
   xmlns:inkscape="http://www.inkscape.org/namespaces/inkscape"
   width="11.807031mm"
   height="37.752735mm"
   viewBox="0 0 11.807031 37.752735"
   version="1.1"
   id="svg2015"
   inkscape:version="0.92.4 (5da689c313, 2019-01-14)"
   sodipodi:docname="F35.svg">
  <defs
     id="defs2009" />
  <sodipodi:namedview
     id="base"
     pagecolor="#ffffff"
     bordercolor="#666666"
     borderopacity="1.0"
     inkscape:pageopacity="0.0"
     inkscape:pageshadow="2"
     inkscape:zoom="0.35"
     inkscape:cx="-380.40234"
     inkscape:cy="-337.99294"
     inkscape:document-units="mm"
     inkscape:current-layer="layer1"
     showgrid="false"
     fit-margin-top="0"
     fit-margin-left="0"
     fit-margin-right="0"
     fit-margin-bottom="0"
     inkscape:window-width="1920"
     inkscape:window-height="1017"
     inkscape:window-x="-8"
     inkscape:window-y="-8"
     inkscape:window-maximized="1" />
  <metadata
     id="metadata2012">
    <rdf:RDF>
      <cc:Work
         rdf:about="">
        <dc:format>image/svg+xml</dc:format>
        <dc:type
           rdf:resource="http://purl.org/dc/dcmitype/StillImage" />
        <dc:title></dc:title>
      </cc:Work>
    </rdf:RDF>
  </metadata>
  <g
     inkscape:label="Layer 1"
     inkscape:groupmode="layer"
     id="layer1"
     transform="translate(-13.33562,-21.6533)">
    <g
       aria-label="𓄤"
       transform="scale(0.26458333)"
       style="font-style:normal;font-variant:normal;font-weight:normal;font-stretch:normal;font-size:192px;line-height:1.25;font-family:sans-serif;-inkscape-font-specification:sans-serif;font-variant-ligatures:normal;font-variant-caps:normal;font-variant-numeric:normal;font-feature-settings:normal;text-align:start;letter-spacing:0px;word-spacing:0px;writing-mode:lr-tb;text-anchor:start;fill:#000000;fill-opacity:1;stroke:none"
       id="flowRoot2560">
      <path
         d="m 78.152344,102.4643 v 56.625 q 8.25,5.0625 12.46875,12.5625 4.21875,7.40625 4.40625,16.96875 v 1.03125 q 0,12.28125 -6.1875,23.25 -6.1875,10.96875 -15.375,11.53125 l -0.84375,0.0937 q -4.21875,0 -10.03125,-3.28125 -5.8125,-3.375 -9,-12.65625 -3.1875,-9.28125 -3.1875,-18.375 0,-9.9375 4.3125,-17.8125 4.40625,-7.96875 12.9375,-13.3125 v -56.625 h -13.78125 v -4.500004 h 13.78125 v -16.125 h 10.5 v 16.125 h 13.59375 v 4.500004 z m -3,-18.187504 h -4.5 v 75.656254 l -0.65625,1.21875 q -8.90625,5.625 -12.5625,12.1875 -3.5625,6.5625 -3.9375,16.125 v 1.96875 q 0,5.25 1.125,10.59375 1.21875,5.25 4.6875,11.4375 1.96875,-7.5 5.34375,-12.09375 3.46875,-4.59375 7.59375,-6.5625 6.28125,3.5625 9,7.5 2.71875,3.9375 4.125,10.78125 3.09375,-4.59375 4.875,-10.6875 1.875,-6.1875 1.875,-12.5625 0,-9.09375 -3.84375,-16.21875 -3.84375,-7.125 -12.1875,-12.28125 l -0.9375,-1.6875 z m -2.34375,137.156254 q 2.4375,0 5.0625,-1.3125 2.625,-1.3125 4.78125,-3.65625 -0.1875,-5.8125 -2.8125,-10.78125 -2.53125,-4.96875 -7.59375,-7.6875 -3.9375,2.71875 -6.09375,6.46875 -2.15625,3.75 -3.46875,7.96875 l -0.5625,2.15625 q -0.28125,1.125 -0.46875,2.15625 2.53125,1.96875 5.4375,3.375 3,1.3125 5.71875,1.3125 z m 8.625,-36.5625 q -3.09375,-4.875 -5.0625,-6 -1.96875,-1.21875 -3.75,-1.21875 h -0.75 q -2.8125,0.375 -4.875,2.4375 -1.96875,2.0625 -4.21875,4.96875 l -2.53125,-1.6875 q 4.3125,-5.34375 6.84375,-6.9375 2.53125,-1.59375 4.875,-1.96875 h 0.84375 q 3.09375,0 6.1875,2.53125 3.09375,2.4375 4.96875,6.1875 z"
         id="path2568"
         inkscape:connector-curvature="0" />
    </g>
  </g>
</svg>
