<?xml version="1.0" encoding="UTF-8" standalone="no"?>
<!-- Created with Inkscape (http://www.inkscape.org/) -->

<svg
   xmlns:dc="http://purl.org/dc/elements/1.1/"
   xmlns:cc="http://creativecommons.org/ns#"
   xmlns:rdf="http://www.w3.org/1999/02/22-rdf-syntax-ns#"
   xmlns:svg="http://www.w3.org/2000/svg"
   xmlns="http://www.w3.org/2000/svg"
   xmlns:sodipodi="http://sodipodi.sourceforge.net/DTD/sodipodi-0.dtd"
   xmlns:inkscape="http://www.inkscape.org/namespaces/inkscape"
   width="12.501562mm"
   height="37.703125mm"
   viewBox="0 0 12.501562 37.703125"
   version="1.1"
   id="svg11841"
   inkscape:version="0.92.4 (5da689c313, 2019-01-14)"
   sodipodi:docname="F36.svg">
  <defs
     id="defs11835" />
  <sodipodi:namedview
     id="base"
     pagecolor="#ffffff"
     bordercolor="#666666"
     borderopacity="1.0"
     inkscape:pageopacity="0.0"
     inkscape:pageshadow="2"
     inkscape:zoom="0.35"
     inkscape:cx="-334.6875"
     inkscape:cy="-380.38157"
     inkscape:document-units="mm"
     inkscape:current-layer="layer1"
     showgrid="false"
     fit-margin-top="0"
     fit-margin-left="0"
     fit-margin-right="0"
     fit-margin-bottom="0"
     inkscape:window-width="1920"
     inkscape:window-height="1017"
     inkscape:window-x="-8"
     inkscape:window-y="-8"
     inkscape:window-maximized="1" />
  <metadata
     id="metadata11838">
    <rdf:RDF>
      <cc:Work
         rdf:about="">
        <dc:format>image/svg+xml</dc:format>
        <dc:type
           rdf:resource="http://purl.org/dc/dcmitype/StillImage" />
        <dc:title></dc:title>
      </cc:Work>
    </rdf:RDF>
  </metadata>
  <g
     inkscape:label="Layer 1"
     inkscape:groupmode="layer"
     id="layer1"
     transform="translate(-1.2402344,-10.487587)">
    <g
       aria-label="𓄥"
       transform="scale(0.26458333)"
       style="font-style:normal;font-variant:normal;font-weight:normal;font-stretch:normal;font-size:192px;line-height:1.25;font-family:sans-serif;-inkscape-font-specification:'sans-serif, Normal';font-variant-ligatures:normal;font-variant-caps:normal;font-variant-numeric:normal;font-feature-settings:normal;text-align:start;letter-spacing:0px;word-spacing:0px;writing-mode:lr-tb;text-anchor:start;fill:#000000;fill-opacity:1;stroke:none"
       id="flowRoot12386">
      <path
         d="m 8.625,39.638124 h 37.78125 v 4.875 H 35.8125 l -3.65625,81.374996 q 1.125,-0.46875 2.34375,-0.75 l 2.34375,-0.5625 q 1.3125,-0.28125 2.71875,-0.28125 7.40625,0 9.84375,2.8125 2.53125,2.71875 2.53125,6.75 v 0.46875 q 0,2.90625 -0.75,6.1875 -0.65625,3.1875 -3,9.84375 l -0.9375,2.8125 -2.4375,6.1875 q -0.65625,1.6875 -1.40625,3.28125 l -5.25,13.03125 -0.5625,1.875 q -0.28125,1.125 -3.09375,2.90625 -2.71875,1.6875 -7.03125,1.6875 h -0.9375 q -7.125,-0.1875 -9.1875,-5.8125 -2.0625,-5.625 -2.53125,-6.84375 l -5.90625,-16.5 -1.6875,-5.15625 q -0.9375,-2.90625 -1.6875,-6 Q 4.875,138.73187 4.6875,135.73187 v -1.03125 q 0,-4.96875 2.71875,-7.6875 2.8125,-2.8125 9.1875,-2.8125 h 0.5625 q 1.21875,0 2.53125,0.375 1.40625,0.28125 2.25,0.5625 l 1.78125,0.5625 L 20.8125,44.513124 H 8.625 Z m 12,136.874996 q 1.125,1.21875 2.71875,1.875 1.59375,0.65625 3.375,0.84375 l -2.8125,-50.4375 q -1.96875,-0.75 -3.75,-1.125 -1.78125,-0.375 -3.09375,-0.46875 h -0.46875 q -4.5,0 -6.75,1.59375 -2.15625,1.59375 -2.15625,5.34375 0,2.4375 1.125,7.59375 1.125,5.15625 3,10.5 l 5.71875,16.03125 z m 11.34375,-47.4375 -2.15625,49.875 q 3.9375,-0.84375 4.875,-2.90625 1.03125,-2.0625 3.375,-8.0625 l 2.625,-6.5625 1.40625,-3.28125 q 0.375,-1.03125 1.125,-2.90625 0.84375,-1.96875 1.21875,-3 l 0.84375,-2.625 q 2.0625,-5.53125 2.8125,-9.1875 0.75,-3.75 0.84375,-6.28125 v -0.46875 q 0,-3 -1.875,-4.6875 -1.78125,-1.6875 -7.3125,-1.6875 -1.40625,0 -3.5625,0.5625 -2.15625,0.46875 -4.21875,1.21875 z m -5.25,-2.25 q 0.375,0.1875 0.75,0.28125 0.375,0.0937 0.75,0.28125 0.5625,-0.1875 0.84375,-0.375 l 3.75,-82.499996 h -9 z m 1.03125,3.5625 q -0.5625,-0.1875 -0.84375,-0.375 l 1.03125,21 1.03125,-20.71875 z"
         id="path12394"
         inkscape:connector-curvature="0" />
    </g>
  </g>
</svg>
