<?xml version="1.0" encoding="UTF-8" standalone="no"?>
<!-- Created with Inkscape (http://www.inkscape.org/) -->

<svg
   xmlns:dc="http://purl.org/dc/elements/1.1/"
   xmlns:cc="http://creativecommons.org/ns#"
   xmlns:rdf="http://www.w3.org/1999/02/22-rdf-syntax-ns#"
   xmlns:svg="http://www.w3.org/2000/svg"
   xmlns="http://www.w3.org/2000/svg"
   xmlns:sodipodi="http://sodipodi.sourceforge.net/DTD/sodipodi-0.dtd"
   xmlns:inkscape="http://www.inkscape.org/namespaces/inkscape"
   width="24.804688mm"
   height="18.801952mm"
   viewBox="0 0 24.804688 18.801952"
   version="1.1"
   id="svg12965"
   inkscape:version="0.92.4 (5da689c313, 2019-01-14)"
   sodipodi:docname="F38.svg">
  <defs
     id="defs12959" />
  <sodipodi:namedview
     id="base"
     pagecolor="#ffffff"
     bordercolor="#666666"
     borderopacity="1.0"
     inkscape:pageopacity="0.0"
     inkscape:pageshadow="2"
     inkscape:zoom="0.35"
     inkscape:cx="-337.54492"
     inkscape:cy="-387.03391"
     inkscape:document-units="mm"
     inkscape:current-layer="layer1"
     showgrid="false"
     fit-margin-top="0"
     fit-margin-left="0"
     fit-margin-right="0"
     fit-margin-bottom="0"
     inkscape:window-width="1920"
     inkscape:window-height="1017"
     inkscape:window-x="-8"
     inkscape:window-y="-8"
     inkscape:window-maximized="1" />
  <metadata
     id="metadata12962">
    <rdf:RDF>
      <cc:Work
         rdf:about="">
        <dc:format>image/svg+xml</dc:format>
        <dc:type
           rdf:resource="http://purl.org/dc/dcmitype/StillImage" />
        <dc:title></dc:title>
      </cc:Work>
    </rdf:RDF>
  </metadata>
  <g
     inkscape:label="Layer 1"
     inkscape:groupmode="layer"
     id="layer1"
     transform="translate(-1.9962606,-27.628659)">
    <g
       aria-label="𓄨"
       transform="scale(0.26458333)"
       style="font-style:normal;font-variant:normal;font-weight:normal;font-stretch:normal;font-size:192px;line-height:1.25;font-family:sans-serif;-inkscape-font-specification:'sans-serif, Normal';font-variant-ligatures:normal;font-variant-caps:normal;font-variant-numeric:normal;font-feature-settings:normal;text-align:start;letter-spacing:0px;word-spacing:0px;writing-mode:lr-tb;text-anchor:start;fill:#000000;fill-opacity:1;stroke:none"
       id="flowRoot13510">
      <path
         d="m 18.794922,162.73578 h 6.9375 v -4.3125 q 0.09375,-1.78125 0.46875,-3.5625 0.375,-1.78125 1.125,-3.375 0.75,-1.59375 1.875,-2.90625 1.21875,-1.3125 2.90625,-2.0625 L 7.5449219,104.42328 h 5.4375001 l 24.09375,41.4375 q 5.34375,0.75 8.4375,4.03125 3.09375,3.1875 4.03125,7.40625 0.09375,-1.40625 0.375,-2.90625 0.28125,-1.59375 0.9375,-3 0.75,-1.5 1.875,-2.71875 1.125,-1.3125 2.90625,-2.0625 l -24.5625,-42.1875 h 5.34375 l 24.28125,41.4375 q 5.0625,0.5625 8.0625,3.5625 3.09375,2.90625 4.125,6.46875 0.1875,-1.21875 0.5625,-2.625 0.46875,-1.5 1.21875,-2.71875 0.84375,-1.3125 1.875,-2.34375 1.125,-1.03125 2.71875,-1.59375 l -24.75,-42.1875 h 5.34375 l 24.375,41.4375 q 3.09375,0.28125 5.53125,1.6875 2.4375,1.3125 4.03125,3.5625 1.6875,2.25 2.53125,5.25 0.84375,3 0.84375,6.375 h 4.124998 v 4.6875 h -5.812498 q -1.03125,3.75 -3.84375,5.90625 -2.8125,2.15625 -6.9375,2.15625 -3.28125,0 -6.46875,-2.0625 -3.09375,-2.0625 -4.40625,-6 h -1.40625 q -1.5,3.9375 -4.40625,6 -2.90625,1.96875 -6.84375,1.96875 -3.375,0 -6.46875,-1.96875 -3.09375,-2.0625 -4.40625,-6 h -1.125 q -1.59375,3.9375 -4.96875,6 -3.28125,2.0625 -6.75,2.0625 -3.46875,0 -6.46875,-2.0625 -2.90625,-2.0625 -3.65625,-6 h -8.53125 z m 57,0 h 18.375 v -1.6875 q 0,-2.34375 -0.75,-4.59375 -0.75,-2.25 -2.15625,-3.9375 -1.40625,-1.78125 -3.375,-2.8125 -1.96875,-1.03125 -4.40625,-1.03125 -3.65625,0 -5.625,2.8125 -1.96875,2.71875 -2.0625,7.21875 z m -23.53125,0 h 18.375 v -1.125 q 0,-2.25 -0.75,-4.5 -0.65625,-2.34375 -1.96875,-4.21875 -1.3125,-1.96875 -3.375,-3.09375 -1.96875,-1.21875 -4.5,-1.21875 -3.5625,0 -5.53125,2.71875 -1.96875,2.71875 -2.25,7.5 z m -5.0625,0 q 0,-2.71875 -0.65625,-5.25 -0.65625,-2.53125 -2.0625,-4.40625 -1.3125,-1.96875 -3.28125,-3.09375 -1.96875,-1.125 -4.5,-1.125 -7.78125,0 -7.96875,9.84375 v 4.03125 z m 22.21875,4.6875 h -15.9375 q 1.21875,2.53125 3.375,3.84375 2.25,1.3125 4.6875,1.3125 0.84375,0 1.875,-0.0937 1.03125,-0.1875 2.0625,-0.75 1.125,-0.5625 2.0625,-1.59375 1.03125,-1.03125 1.875,-2.71875 z m 23.4375,0 h -15.9375 q 1.21875,2.53125 3.46875,3.84375 2.25,1.21875 4.6875,1.21875 1.875,0 3.9375,-0.84375 2.15625,-0.84375 3.84375,-4.21875 z m -46.875,0 h -16.03125 q 1.3125,2.90625 3.375,4.03125 2.0625,1.03125 4.21875,1.03125 2.25,0 4.5,-1.125 2.34375,-1.21875 3.9375,-3.9375 z"
         id="path13518"
         inkscape:connector-curvature="0" />
    </g>
  </g>
</svg>
