<?xml version="1.0" encoding="UTF-8" standalone="no"?>
<!-- Created with Inkscape (http://www.inkscape.org/) -->

<svg
   xmlns:dc="http://purl.org/dc/elements/1.1/"
   xmlns:cc="http://creativecommons.org/ns#"
   xmlns:rdf="http://www.w3.org/1999/02/22-rdf-syntax-ns#"
   xmlns:svg="http://www.w3.org/2000/svg"
   xmlns="http://www.w3.org/2000/svg"
   xmlns:sodipodi="http://sodipodi.sourceforge.net/DTD/sodipodi-0.dtd"
   xmlns:inkscape="http://www.inkscape.org/namespaces/inkscape"
   width="31.353127mm"
   height="29.195118mm"
   viewBox="0 0 31.353127 29.195118"
   version="1.1"
   id="svg3139"
   inkscape:version="0.92.4 (5da689c313, 2019-01-14)"
   sodipodi:docname="F38A.svg">
  <defs
     id="defs3133" />
  <sodipodi:namedview
     id="base"
     pagecolor="#ffffff"
     bordercolor="#666666"
     borderopacity="1.0"
     inkscape:pageopacity="0.0"
     inkscape:pageshadow="2"
     inkscape:zoom="0.35"
     inkscape:cx="-328.97266"
     inkscape:cy="-357.14914"
     inkscape:document-units="mm"
     inkscape:current-layer="layer1"
     showgrid="false"
     fit-margin-top="0"
     fit-margin-left="0"
     fit-margin-right="0"
     fit-margin-bottom="0"
     inkscape:window-width="1920"
     inkscape:window-height="1017"
     inkscape:window-x="-8"
     inkscape:window-y="-8"
     inkscape:window-maximized="1" />
  <metadata
     id="metadata3136">
    <rdf:RDF>
      <cc:Work
         rdf:about="">
        <dc:format>image/svg+xml</dc:format>
        <dc:type
           rdf:resource="http://purl.org/dc/dcmitype/StillImage" />
        <dc:title></dc:title>
      </cc:Work>
    </rdf:RDF>
  </metadata>
  <g
     inkscape:label="Layer 1"
     inkscape:groupmode="layer"
     id="layer1"
     transform="translate(0.27181803,-25.142506)">
    <g
       aria-label="𓄩"
       transform="scale(0.26458333)"
       style="font-style:normal;font-variant:normal;font-weight:normal;font-stretch:normal;font-size:192px;line-height:1.25;font-family:sans-serif;-inkscape-font-specification:sans-serif;font-variant-ligatures:normal;font-variant-caps:normal;font-variant-numeric:normal;font-feature-settings:normal;text-align:start;letter-spacing:0px;word-spacing:0px;writing-mode:lr-tb;text-anchor:start;fill:#000000;fill-opacity:1;stroke:none"
       id="flowRoot3684">
      <path
         d="m 55.316406,100.37055 q 1.96875,-2.437504 3.9375,-3.750004 1.96875,-1.40625 3.84375,-1.40625 1.6875,0 3.5625,1.3125 1.875,1.3125 3.1875,6.562504 l 10.59375,41.8125 q 13.03125,3.1875 20.906254,12 7.875,8.71875 12,19.3125 4.125,10.5 4.125,18.65625 0,3.84375 -0.84375,6.09375 -0.75,2.25 -2.71875,2.25 -3.1875,0 -5.90625,-4.125 -2.71875,-4.125 -6,-14.0625 -3.281254,-9.9375 -3.468754,-13.6875 -0.09375,-3.75 -4.125,-8.0625 -3.9375,-4.3125 -13.78125,-8.53125 l -9.09375,35.15625 q -3.46875,15.375 -8.34375,15.375 -1.875,0 -3.84375,-1.40625 -1.96875,-1.3125 -4.03125,-3.84375 -0.75,2.15625 -2.34375,3.75 -1.59375,1.59375 -3.75,1.59375 -1.6875,0 -3.65625,-1.125 -1.875,-1.03125 -3.9375,-3.09375 -0.65625,1.6875 -1.96875,2.8125 -1.21875,1.125 -3,1.125 -1.78125,0 -3.9375,-1.40625 -2.0625,-1.3125 -4.5,-3.9375 -0.75,1.96875 -2.15625,3.75 -1.3125,1.78125 -3.5625,1.78125 -1.78125,0 -3.9375,-1.5 -2.15625,-1.40625 -4.03125,-3.75 -0.9375,1.875 -2.15625,3.46875 -1.21875,1.6875 -3.6562497,1.6875 -3.0937501,0 -6.375,-3.5625 -3.28125005,-3.65625 -3.28125005,-4.59375 0,-0.1875 -0.09375,-0.46875 l 11.6249997,-46.3125 q -11.34375,-45.1875 -11.6249997,-46.40625 0,-0.28125 0.09375,-0.5625 0,-0.84375 3.28125005,-4.406254 3.2812499,-3.65625 6.375,-3.65625 2.4374997,0 3.6562497,1.6875 1.21875,1.59375 2.15625,3.468754 1.875,-2.343754 4.03125,-3.750004 2.15625,-1.5 3.9375,-1.5 2.25,0 3.5625,1.78125 1.40625,1.78125 2.15625,3.750004 2.4375,-2.625004 4.5,-3.937504 2.15625,-1.40625 3.9375,-1.40625 1.78125,0 3,1.125 1.3125,1.125 1.96875,2.8125 2.0625,-2.0625 3.9375,-3.09375 1.96875,-1.125 3.5625,-1.125 1.96875,0 3.5625,1.40625 1.6875,1.40625 2.625,3.937504 z m -3.75,51.84375 h -10.96875 l -11.25,44.8125 q 1.78125,2.53125 3.65625,4.03125 1.96875,1.5 3.65625,1.5 0.28125,0 0.65625,-0.0937 1.03125,-0.65625 1.59375,-1.96875 l 1.03125,-2.34375 z m -11.625,-49.96875 -1.03125,-2.437504 q -0.5625,-1.21875 -1.59375,-1.875 -0.375,0 -0.65625,-0.09375 -1.6875,0 -3.65625,1.5 -1.875,1.500004 -3.65625,4.031254 l 11.25,44.8125 h 10.96875 z m -15.9375,49.96875 H 13.410156 L 2.0664063,197.0268 q 1.5,2.25 2.9062499,3.75 1.5,1.5 2.90625,1.6875 l 0.4687501,0.0937 q 1.21875,0 2.2499997,-1.21875 1.125,-1.3125 1.96875,-4.3125 z m -11.4375,-48.84375 q -0.84375,-2.90625 -1.96875,-4.218754 -1.0312497,-1.3125 -2.2499997,-1.3125 H 7.8789062 q -1.40625,0.28125 -2.90625,1.78125 -1.4062499,1.500004 -2.9062499,3.750004 l 11.3437497,44.8125 h 10.59375 z m 65.8125,44.8125 -11.4375,-44.8125 q -1.03125,-4.125004 -2.0625,-4.875004 -1.03125,-0.84375 -1.875,-0.84375 -1.3125,0 -3.09375,1.59375 -1.6875,1.500004 -3.28125,3.937504 l 11.25,45 z m -10.5,4.03125 -11.25,45 q 1.6875,2.53125 3.375,4.03125 1.78125,1.5 3,1.5 0.65625,0 1.78125,-0.75 1.125,-0.75 2.15625,-4.96875 l 11.4375,-44.8125 z m -40.78125,-4.03125 h 10.40625 l -11.34375,-44.8125 q -0.84375,-2.90625 -1.96875,-4.218754 -1.03125,-1.3125 -2.25,-1.3125 -1.3125,0 -2.90625,1.40625 -1.59375,1.406254 -3.28125,3.937504 z m 10.40625,4.03125 h -10.40625 l -11.34375,45 q 1.6875,2.53125 3.28125,3.9375 1.59375,1.40625 2.90625,1.40625 1.21875,0 2.25,-1.21875 1.125,-1.3125 1.96875,-4.3125 z m 17.15625,-4.03125 h 10.125 l -11.25,-44.34375 q -2.15625,-5.812504 -4.40625,-6.281254 h -0.46875 q -2.15625,0 -5.625,4.031254 z m 10.125,4.03125 h -10.125 l -11.625,46.59375 q 3.46875,4.03125 5.625,4.03125 l 0.46875,-0.0937 q 2.25,-0.375 4.40625,-6.1875 z m 16.40625,-0.46875 q 7.125,2.71875 11.4375,5.90625 4.3125,3.09375 6.5625,6.75 2.250004,3.5625 2.531254,7.6875 0.28125,4.03125 2.71875,11.25 2.53125,7.125 4.5,11.25 1.96875,4.03125 4.6875,5.625 h 0.28125 q 0.65625,-1.3125 0.65625,-3.5625 0,-2.15625 -0.28125,-4.5 -0.28125,-2.34375 -0.75,-4.5 l -0.75,-3.46875 q -3.09375,-12.375 -11.90625,-22.6875 -8.812504,-10.40625 -19.687504,-13.3125 z"
         id="path3692"
         inkscape:connector-curvature="0" />
    </g>
  </g>
</svg>
