<?xml version="1.0" encoding="UTF-8" standalone="no"?>
<!-- Created with Inkscape (http://www.inkscape.org/) -->

<svg
   xmlns:dc="http://purl.org/dc/elements/1.1/"
   xmlns:cc="http://creativecommons.org/ns#"
   xmlns:rdf="http://www.w3.org/1999/02/22-rdf-syntax-ns#"
   xmlns:svg="http://www.w3.org/2000/svg"
   xmlns="http://www.w3.org/2000/svg"
   xmlns:sodipodi="http://sodipodi.sourceforge.net/DTD/sodipodi-0.dtd"
   xmlns:inkscape="http://www.inkscape.org/namespaces/inkscape"
   width="28.426163mm"
   height="28.847853mm"
   viewBox="0 0 28.426163 28.847853"
   version="1.1"
   id="svg8"
   inkscape:version="0.92.4 (5da689c313, 2019-01-14)"
   sodipodi:docname="F39.svg">
  <defs
     id="defs2" />
  <sodipodi:namedview
     id="base"
     pagecolor="#ffffff"
     bordercolor="#666666"
     borderopacity="1.0"
     inkscape:pageopacity="0.0"
     inkscape:pageshadow="2"
     inkscape:zoom="0.35"
     inkscape:cx="-354.6875"
     inkscape:cy="-376.2991"
     inkscape:document-units="mm"
     inkscape:current-layer="layer1"
     showgrid="false"
     fit-margin-top="0"
     fit-margin-left="0"
     fit-margin-right="0"
     fit-margin-bottom="0"
     inkscape:window-width="1920"
     inkscape:window-height="1017"
     inkscape:window-x="-8"
     inkscape:window-y="-8"
     inkscape:window-maximized="1" />
  <metadata
     id="metadata5">
    <rdf:RDF>
      <cc:Work
         rdf:about="">
        <dc:format>image/svg+xml</dc:format>
        <dc:type
           rdf:resource="http://purl.org/dc/dcmitype/StillImage" />
        <dc:title></dc:title>
      </cc:Work>
    </rdf:RDF>
  </metadata>
  <g
     inkscape:label="Layer 1"
     inkscape:groupmode="layer"
     id="layer1"
     transform="translate(-6.5319009,-20.42301)">
    <g
       aria-label="𓄪"
       style="font-style:normal;font-variant:normal;font-weight:normal;font-stretch:normal;font-size:50.79999924px;line-height:1.25;font-family:sans-serif;-inkscape-font-specification:sans-serif;font-variant-ligatures:normal;font-variant-caps:normal;font-variant-numeric:normal;font-feature-settings:normal;text-align:start;letter-spacing:0px;word-spacing:0px;writing-mode:lr-tb;text-anchor:start;fill:#000000;fill-opacity:1;stroke:none;stroke-width:0.26458332"
       id="text4520">
      <path
         d="m 9.3348305,22.581018 q 0.2232422,-0.917774 0.5953125,-1.513086 0.37207,-0.620117 1.066602,-0.620117 0.595312,0 1.215429,0.421679 0.620117,0.396875 0.992188,0.917774 0.347265,-0.744141 0.768945,-1.041797 0.42168,-0.322461 0.868164,-0.322461 h 0.07441 q 0.471289,0 0.942578,0.322461 0.496094,0.322461 0.942578,0.768945 0.297657,-0.545703 0.644922,-0.768945 0.347266,-0.248047 0.744141,-0.248047 0.496094,0 1.041797,0.37207 0.570507,0.347266 1.141015,0.992188 0.297657,-0.719336 0.719336,-1.041797 0.42168,-0.347266 0.892969,-0.347266 h 0.07441 q 0.496094,0 0.992187,0.372071 0.520899,0.347265 0.942579,0.942578 0.322461,-0.694532 0.719336,-1.016992 0.421679,-0.347266 0.892968,-0.347266 0.719336,0 1.537891,0.818555 l 0.297656,0.297656 q 0.42168,0.471289 0.520899,0.719336 0.124023,0.223242 0.124023,0.421679 v 0.09922 L 25.78033,33.96637 q 2.678906,0.843359 4.7625,3.001367 2.108398,2.158008 3.249414,5.060156 1.16582,2.877344 1.16582,5.035352 0,1.016992 -0.223242,1.612305 -0.198437,0.595312 -0.719336,0.595312 -0.892969,0 -1.612304,-1.16582 -0.719336,-1.190625 -1.165821,-2.554883 l -0.421679,-1.21543 -0.42168,-1.438672 q -0.272852,-0.843359 -0.694531,-2.802929 -0.396875,-1.984375 -3.274219,-3.175 l -0.992188,-0.396875 -0.09922,0.917773 -0.42168,0.396875 h -0.396875 v 0.669727 h -2.38125 V 37.8359 H 10.12858 v 0.669727 H 7.7225258 V 37.8359 H 6.9039712 L 6.5319009,37.364611 6.9039712,34.115197 Z M 7.6729165,34.636096 7.3752602,37.04215 H 24.589713 l 0.297656,-2.406054 z m 5.2337885,-11.90625 q -0.644921,-0.917774 -1.041796,-1.21543 -0.396875,-0.297656 -0.719336,-0.297656 -0.248047,0 -0.545703,0.272851 -0.272852,0.272852 -0.496094,1.289844 L 7.8217446,33.842346 h 2.7533204 q 2.356445,-11.16211 2.33164,-11.1125 z m -1.513085,11.1125 h 2.778124 l 2.306836,-11.48457 q -0.446484,-0.520899 -0.843359,-0.818555 -0.396875,-0.297656 -0.744141,-0.297656 -0.37207,0 -0.669726,0.37207 -0.297656,0.347266 -0.520899,1.16582 z m 14.287499,0.892968 -0.148828,0.992188 q 2.207617,0.843359 3.050977,1.513086 0.868164,0.644922 1.413867,1.463476 0.545703,0.818555 0.719336,2.00918 0.173633,1.190625 0.818554,3.224609 0.669727,2.033985 1.165821,3.075782 0.496094,1.041796 1.240234,1.463476 h 0.07441 q 0.173633,-0.223242 0.173633,-0.843359 0,-3.919141 -2.455664,-7.912695 -2.455664,-4.01836 -6.052344,-4.985743 z M 14.94069,33.842346 h 2.778125 l 2.306836,-11.48457 q -0.446485,-0.520899 -0.84336,-0.818555 -0.396875,-0.297656 -0.74414,-0.297656 -0.372071,0 -0.669727,0.37207 -0.297656,0.347266 -0.520898,1.16582 z m 3.720703,0 h 2.778125 l 2.306836,-11.48457 q -0.446485,-0.520899 -0.84336,-0.818555 -0.396875,-0.297656 -0.74414,-0.297656 -0.372071,0 -0.669727,0.37207 -0.297656,0.347266 -0.520898,1.16582 z m 3.59668,0 h 2.778124 l 2.306836,-11.48457 q -0.446484,-0.520899 -0.843359,-0.818555 -0.396875,-0.297656 -0.744141,-0.297656 -0.37207,0 -0.669726,0.37207 -0.297656,0.347266 -0.520899,1.16582 z"
         style="stroke-width:0.26458332"
         id="path4522"
         inkscape:connector-curvature="0" />
    </g>
  </g>
</svg>
