<?xml version="1.0" encoding="UTF-8" standalone="no"?>
<!-- Created with Inkscape (http://www.inkscape.org/) -->

<svg
   xmlns:dc="http://purl.org/dc/elements/1.1/"
   xmlns:cc="http://creativecommons.org/ns#"
   xmlns:rdf="http://www.w3.org/1999/02/22-rdf-syntax-ns#"
   xmlns:svg="http://www.w3.org/2000/svg"
   xmlns="http://www.w3.org/2000/svg"
   xmlns:sodipodi="http://sodipodi.sourceforge.net/DTD/sodipodi-0.dtd"
   xmlns:inkscape="http://www.inkscape.org/namespaces/inkscape"
   width="37.504684mm"
   height="23.291601mm"
   viewBox="0 0 37.504684 23.291601"
   version="1.1"
   id="svg35457"
   inkscape:version="0.92.4 (5da689c313, 2019-01-14)"
   sodipodi:docname="F4.svg">
  <defs
     id="defs35451" />
  <sodipodi:namedview
     id="base"
     pagecolor="#ffffff"
     bordercolor="#666666"
     borderopacity="1.0"
     inkscape:pageopacity="0.0"
     inkscape:pageshadow="2"
     inkscape:zoom="0.35"
     inkscape:cx="-380.40234"
     inkscape:cy="-383.42649"
     inkscape:document-units="mm"
     inkscape:current-layer="layer1"
     showgrid="false"
     fit-margin-top="0"
     fit-margin-left="0"
     fit-margin-right="0"
     fit-margin-bottom="0"
     inkscape:window-width="1920"
     inkscape:window-height="1017"
     inkscape:window-x="-8"
     inkscape:window-y="-8"
     inkscape:window-maximized="1" />
  <metadata
     id="metadata35454">
    <rdf:RDF>
      <cc:Work
         rdf:about="">
        <dc:format>image/svg+xml</dc:format>
        <dc:type
           rdf:resource="http://purl.org/dc/dcmitype/StillImage" />
        <dc:title></dc:title>
      </cc:Work>
    </rdf:RDF>
  </metadata>
  <g
     inkscape:label="Layer 1"
     inkscape:groupmode="layer"
     id="layer1"
     transform="translate(-13.33562,-24.093474)">
    <g
       aria-label="𓄂"
       transform="scale(0.26458333)"
       style="font-style:normal;font-variant:normal;font-weight:normal;font-stretch:normal;font-size:192px;line-height:1.25;font-family:sans-serif;-inkscape-font-specification:sans-serif;font-variant-ligatures:normal;font-variant-caps:normal;font-variant-numeric:normal;font-feature-settings:normal;text-align:start;letter-spacing:0px;word-spacing:0px;writing-mode:lr-tb;text-anchor:start;fill:#000000;fill-opacity:1;stroke:none"
       id="flowRoot36002">
      <path
         d="m 146.68359,136.24945 q 0,-1.40625 0.375,-2.4375 -1.875,1.125 -3.84375,1.96875 -1.96875,0.84375 -3.75,0.9375 -2.4375,0 -3.65625,-1.96875 -1.21875,-2.0625 -1.21875,-6.375 -1.78125,-2.15625 -4.21875,-3.46875 -2.4375,-1.3125 -4.40625,-3.1875 v -2.25 q 3,-3 6.375,-5.625 3.375,-2.625 6.9375,-5.0625 0.5625,-2.8125 3.28125,-5.34375 2.8125,-2.625 6.75,-4.874998 l 3.84375,-2.15625 q 1.59375,-2.625 4.6875,-3.9375 3.1875,-1.40625 7.03125,-1.40625 h 0.75 q 11.53125,0.46875 19.03125,13.781248 7.5,13.3125 7.5,25.21875 v 0.65625 q 0,6.1875 -2.0625,10.78125 -2.0625,4.5 -4.6875,6.9375 -2.53125,2.4375 -8.8125,4.6875 -1.6875,6 -2.625,12.1875 -0.84375,6.1875 -1.59375,12.375 l -2.0625,1.40625 q -4.6875,-3 -9.75,-4.6875 -4.96875,-1.78125 -10.5,-1.78125 h -1.6875 q -5.4375,0.28125 -14.71875,2.53125 -9.28125,2.25 -14.71875,2.53125 h -1.5 q -3.46875,0 -10.96875,-1.40625 -7.499996,-1.5 -20.437496,-1.59375 h -16.125 l -3.65625,1.6875 q -1.96875,0.9375 -4.03125,1.5 -1.96875,0.65625 -3.9375,0.75 h -0.46875 q -3.1875,0 -5.15625,-1.59375 -1.96875,-1.59375 -2.15625,-4.78125 l -0.09375,-0.84375 q 0,-4.875 3.09375,-7.6875 3.1875,-2.8125 7.59375,-2.8125 h 0.9375 q 2.71875,0.1875 4.96875,0.28125 l 4.40625,0.0937 5.71875,0.375 3.75,0.1875 q 3.75,0.1875 9,0.46875 5.25,0.28125 8.34375,0.28125 14.906246,0 32.343746,-5.15625 17.53125,-5.25 17.53125,-12.46875 0,-1.5 -0.65625,-3.65625 -0.65625,-2.15625 -0.75,-4.125 z m 6.84375,-5.53125 -1.5,0.0937 q -0.9375,1.3125 -1.6875,2.71875 -0.65625,1.3125 -0.65625,3 v 0.375 q 0,1.5 0.75,3.75 0.75,2.15625 0.84375,4.03125 v 0.46875 q 0,4.6875 -6,8.90625 -5.90625,4.21875 -19.03125,7.78125 -13.125,3.5625 -30.468746,3.5625 -7.5,0 -14.53125,-0.46875 -7.03125,-0.46875 -14.25,-0.75 l -5.90625,-0.1875 q -3.9375,0 -5.8125,2.53125 -1.875,2.4375 -1.875,5.25 0,2.4375 1.5,3.1875 1.5,0.65625 3.1875,0.65625 h 0.75 q 3,-0.28125 6.75,-2.25 3.84375,-1.96875 5.53125,-1.96875 0.46875,0 1.5,0.1875 1.125,0.0937 2.53125,0.0937 h 6.5625 l 7.6875,0.1875 7.6875,0.28125 q 4.874996,0.1875 11.062496,1.40625 6.28125,1.125 9.28125,1.125 h 1.5 q 5.8125,-0.28125 14.90625,-2.625 9.1875,-2.4375 15.65625,-2.4375 5.34375,0 10.3125,1.40625 5.0625,1.40625 9.75,4.125 0.9375,-7.3125 2.25,-14.71875 1.40625,-7.40625 1.875,-8.25 0.46875,-0.9375 1.125,-1.59375 9.09375,-3.375 11.71875,-8.0625 2.625,-4.78125 2.625,-11.625 0,-11.15625 -6.9375,-24 -6.84375,-12.937498 -17.25,-12.937498 -2.625,0 -4.5,0.5625 -1.78125,0.5625 -3.28125,1.6875 l -0.65625,0.65625 q 4.3125,2.0625 6.28125,4.218748 1.96875,2.15625 2.625,4.03125 l 1.875,-1.5 q 0.9375,-0.75 2.34375,-1.3125 1.40625,-0.65625 2.4375,-0.65625 1.21875,0 2.25,1.125 1.03125,1.03125 1.03125,3.1875 0,3 -1.59375,5.15625 -1.59375,2.0625 -4.3125,2.0625 h -0.65625 q 0.28125,0.75 0.375,1.5 0.1875,0.65625 0.1875,1.5 l -0.0937,1.03125 q -0.46875,4.59375 -4.875,8.34375 -4.3125,3.65625 -8.0625,4.5 z m -0.375,-3 q 5.53125,-0.75 9.09375,-4.03125 3.5625,-3.28125 4.03125,-7.6875 0,-2.625 -1.21875,-4.125 v -0.0937 l 1.6875,-2.0625 q 1.5,0.5625 2.53125,0.5625 1.3125,0 2.0625,-1.03125 0.84375,-1.03125 1.03125,-4.125 0,-0.28125 -0.28125,-0.46875 -0.9375,0 -2.71875,1.21875 -1.6875,1.21875 -3.28125,3.1875 l -2.71875,-0.65625 q -1.03125,-3.5625 -3.1875,-5.625 -2.0625,-2.0625 -5.34375,-3.374998 l -0.46875,-0.1875 q -1.40625,0.843748 -5.53125,3.281248 -4.03125,2.34375 -5.34375,4.6875 l -1.5,2.8125 q -0.75,1.3125 -5.25,4.5 -4.5,3.1875 -7.59375,6.09375 1.78125,1.3125 3.84375,2.4375 2.0625,1.125 3.5625,2.90625 2.625,-1.3125 4.40625,-2.0625 1.78125,-0.75 3.28125,-0.75 1.03125,0 2.0625,0.28125 l 1.59375,0.75 q 0.75,0.46875 1.5,1.21875 l -1.03125,1.03125 q -0.75,0.75 -1.21875,1.03125 -1.03125,-1.03125 -2.71875,-1.5 -1.59375,0.84375 -3.28125,1.5 l -3.375,1.40625 q 0.1875,1.21875 0.1875,2.4375 0,0.75 0.375,1.6875 0.375,0.84375 0.5625,0.84375 l 0.0937,-0.0937 0.1875,0.0937 q 3,-0.375 7.03125,-3 4.125,-2.71875 4.5,-2.90625 z m -3.46875,-16.59375 q -0.75,0.375 -1.40625,0.5625 l -1.3125,0.46875 -1.21875,-1.59375 1.125,-1.3125 q 1.6875,0.75 2.8125,1.875 z"
         id="path36010"
         inkscape:connector-curvature="0" />
    </g>
  </g>
</svg>
