<?xml version="1.0" encoding="UTF-8" standalone="no"?>
<!-- Created with Inkscape (http://www.inkscape.org/) -->

<svg
   xmlns:dc="http://purl.org/dc/elements/1.1/"
   xmlns:cc="http://creativecommons.org/ns#"
   xmlns:rdf="http://www.w3.org/1999/02/22-rdf-syntax-ns#"
   xmlns:svg="http://www.w3.org/2000/svg"
   xmlns="http://www.w3.org/2000/svg"
   xmlns:sodipodi="http://sodipodi.sourceforge.net/DTD/sodipodi-0.dtd"
   xmlns:inkscape="http://www.inkscape.org/namespaces/inkscape"
   width="38.298412mm"
   height="31.37793mm"
   viewBox="0 0 38.298412 31.37793"
   version="1.1"
   id="svg3701"
   inkscape:version="0.92.4 (5da689c313, 2019-01-14)"
   sodipodi:docname="F40.svg">
  <defs
     id="defs3695" />
  <sodipodi:namedview
     id="base"
     pagecolor="#ffffff"
     bordercolor="#666666"
     borderopacity="1.0"
     inkscape:pageopacity="0.0"
     inkscape:pageshadow="2"
     inkscape:zoom="0.35"
     inkscape:cx="216.74022"
     inkscape:cy="-86.096411"
     inkscape:document-units="mm"
     inkscape:current-layer="layer1"
     showgrid="false"
     fit-margin-top="0"
     fit-margin-left="0"
     fit-margin-right="0"
     fit-margin-bottom="0"
     inkscape:window-width="1920"
     inkscape:window-height="1017"
     inkscape:window-x="-8"
     inkscape:window-y="-8"
     inkscape:window-maximized="1" />
  <metadata
     id="metadata3698">
    <rdf:RDF>
      <cc:Work
         rdf:about="">
        <dc:format>image/svg+xml</dc:format>
        <dc:type
           rdf:resource="http://purl.org/dc/dcmitype/StillImage" />
        <dc:title></dc:title>
      </cc:Work>
    </rdf:RDF>
  </metadata>
  <g
     inkscape:label="Layer 1"
     inkscape:groupmode="layer"
     id="layer1"
     transform="translate(144.65835,-94.675729)">
    <g
       aria-label="𓄫"
       transform="scale(0.26458333)"
       style="font-style:normal;font-variant:normal;font-weight:normal;font-stretch:normal;font-size:192px;line-height:1.25;font-family:sans-serif;-inkscape-font-specification:sans-serif;font-variant-ligatures:normal;font-variant-caps:normal;font-variant-numeric:normal;font-feature-settings:normal;text-align:start;letter-spacing:0px;word-spacing:0px;writing-mode:lr-tb;text-anchor:start;fill:#000000;fill-opacity:1;stroke:none"
       id="flowRoot4246">
      <path
         d="m -452.24023,432.17328 v -2.71875 h -44.25 v 2.71875 h -9.09375 v -2.71875 h -3.1875 l -1.40625,-1.78125 0.5625,-4.21875 q -6.375,1.40625 -11.25,7.5 -4.875,6.09375 -8.53125,20.90625 l -2.8125,11.25 q -1.5,5.71875 -4.03125,9.5625 -2.4375,3.75 -6.09375,3.75 -2.15625,0 -3.28125,-2.15625 -1.125,-2.15625 -1.125,-5.8125 0,-16.5 11.8125,-35.4375 11.8125,-19.03125 26.4375,-19.59375 l 3.9375,-23.34375 q 2.625,-15.375 4.03125,-23.625 1.5,-8.34375 8.15625,-8.625 h 0.375 q 1.96875,0 3.75,1.03125 1.78125,0.9375 2.90625,2.625 1.125,-1.6875 2.53125,-2.625 1.40625,-0.9375 2.90625,-0.9375 h 0.75 q 1.78125,0.28125 3.5625,1.6875 1.78125,1.3125 3.28125,3.9375 2.90625,-5.625 6.46875,-5.625 h 0.1875 q 3.65625,0.1875 6.84375,5.53125 1.5,-2.8125 3.375,-4.21875 1.875,-1.40625 3.84375,-1.40625 1.78125,0 3.375,1.3125 1.6875,1.21875 3.28125,3.75 1.03125,-2.34375 2.71875,-3.65625 1.78125,-1.3125 3.75,-1.3125 3.09375,0 5.90625,2.34375 2.8125,2.34375 2.8125,5.25 0,0.65625 -8.53125,48 l 2.0625,0.1875 q 7.78125,1.125 15.46875,9.46875 7.6875,8.25 12.84375,21.375 5.15625,13.125 5.71875,23.625 0,0.75 0.0937,1.6875 l 0.0937,1.03125 -0.0937,0.9375 q -0.28125,2.53125 -1.78125,3.46875 -1.5,1.03125 -3,1.03125 h -0.28125 q -6.09375,-0.28125 -8.71875,-9.9375 -2.625,-9.65625 -4.40625,-17.15625 -1.6875,-7.59375 -6.375,-14.90625 -4.6875,-7.3125 -13.03125,-10.6875 l -0.5625,4.3125 -1.59375,1.5 h -1.40625 v 2.71875 z m -54.75,-5.71875 h 63.9375 l 1.3125,-10.125 h -64.125 z m 60.84375,-59.34375 q -1.78125,-4.5 -3.09375,-5.34375 -1.3125,-0.9375 -2.25,-0.9375 -1.59375,0 -3.375,1.96875 -1.6875,1.96875 -2.0625,4.03125 l -7.5,46.5 h 10.875 z m -48.65625,46.21875 7.40625,-46.3125 0.0937,-0.84375 q 0,-0.46875 0.0937,-0.9375 0,-2.25 -1.5,-3.28125 -1.5,-1.03125 -4.3125,-1.03125 -1.875,0 -3.46875,2.4375 -1.5,2.4375 -8.90625,49.96875 z m 34.78125,-46.03125 q -1.125,-1.875 -2.15625,-3.65625 -0.9375,-1.875 -3.09375,-2.71875 -1.3125,0 -2.53125,1.40625 -1.21875,1.3125 -2.0625,3.09375 l -0.9375,1.96875 -7.3125,45.9375 h 10.6875 z m -13.78125,-0.28125 q -1.21875,-2.90625 -2.71875,-4.5 -1.5,-1.59375 -3,-1.59375 -1.96875,0 -3.28125,1.875 -1.21875,1.875 -1.5,4.125 l -7.5,46.40625 h 10.6875 z m 23.25,46.3125 h 9.28125 l 8.4375,-47.15625 v -0.28125 q -0.28125,-1.96875 -1.78125,-3.46875 -1.5,-1.5 -3.5625,-1.5 -1.125,0 -2.625,0.9375 -1.40625,0.9375 -2.25,5.0625 z m 13.6875,3.28125 -1.875,-0.1875 -0.5625,4.21875 q 9.28125,4.125 14.34375,11.15625 5.15625,7.03125 7.875,17.71875 l 3.375,13.40625 0.9375,3 q 1.03125,3.375 2.53125,5.53125 1.59375,2.0625 3,2.0625 1.5,0 1.875,-0.75 0.375,-0.84375 0.375,-2.4375 0,-4.40625 -1.875,-12.75 -1.875,-8.34375 -6.375,-17.8125 -4.5,-9.5625 -11.0625,-15.9375 -6.5625,-6.46875 -12.5625,-7.21875 z m -97.125,41.15625 3,-12 q 2.4375,-9.28125 7.40625,-16.03125 5.0625,-6.75 14.34375,-9.375 l 0.375,-3.9375 q -11.0625,1.03125 -20.15625,13.125 -9.09375,12 -13.03125,26.90625 l -0.75,3.5625 q -0.46875,1.96875 -0.75,4.21875 -0.28125,2.15625 -0.28125,4.03125 0,2.0625 0.28125,3.1875 0.28125,1.125 0.84375,1.78125 0.28125,0 0.65625,0.0937 2.15625,0 3.9375,-3.1875 1.875,-3.28125 3.1875,-8.53125 z"
         id="path4254"
         inkscape:connector-curvature="0" />
    </g>
  </g>
</svg>
