<?xml version="1.0" encoding="UTF-8" standalone="no"?>
<!-- Created with Inkscape (http://www.inkscape.org/) -->

<svg
   xmlns:dc="http://purl.org/dc/elements/1.1/"
   xmlns:cc="http://creativecommons.org/ns#"
   xmlns:rdf="http://www.w3.org/1999/02/22-rdf-syntax-ns#"
   xmlns:svg="http://www.w3.org/2000/svg"
   xmlns="http://www.w3.org/2000/svg"
   xmlns:sodipodi="http://sodipodi.sourceforge.net/DTD/sodipodi-0.dtd"
   xmlns:inkscape="http://www.inkscape.org/namespaces/inkscape"
   width="24.804688mm"
   height="20.860743mm"
   viewBox="0 0 24.804688 20.860743"
   version="1.1"
   id="svg13527"
   inkscape:version="0.92.4 (5da689c313, 2019-01-14)"
   sodipodi:docname="F41.svg">
  <defs
     id="defs13521" />
  <sodipodi:namedview
     id="base"
     pagecolor="#ffffff"
     bordercolor="#666666"
     borderopacity="1.0"
     inkscape:pageopacity="0.0"
     inkscape:pageshadow="2"
     inkscape:zoom="0.35"
     inkscape:cx="-334.6875"
     inkscape:cy="-380.28782"
     inkscape:document-units="mm"
     inkscape:current-layer="layer1"
     showgrid="false"
     fit-margin-top="0"
     fit-margin-left="0"
     fit-margin-right="0"
     fit-margin-bottom="0"
     inkscape:window-width="1920"
     inkscape:window-height="1017"
     inkscape:window-x="-8"
     inkscape:window-y="-8"
     inkscape:window-maximized="1" />
  <metadata
     id="metadata13524">
    <rdf:RDF>
      <cc:Work
         rdf:about="">
        <dc:format>image/svg+xml</dc:format>
        <dc:type
           rdf:resource="http://purl.org/dc/dcmitype/StillImage" />
        <dc:title></dc:title>
      </cc:Work>
    </rdf:RDF>
  </metadata>
  <g
     inkscape:label="Layer 1"
     inkscape:groupmode="layer"
     id="layer1"
     transform="translate(-1.2402344,-27.354773)">
    <g
       aria-label="𓄬"
       transform="scale(0.26458333)"
       style="font-style:normal;font-variant:normal;font-weight:normal;font-stretch:normal;font-size:192px;line-height:1.25;font-family:sans-serif;-inkscape-font-specification:'sans-serif, Normal';font-variant-ligatures:normal;font-variant-caps:normal;font-variant-numeric:normal;font-feature-settings:normal;text-align:start;letter-spacing:0px;word-spacing:0px;writing-mode:lr-tb;text-anchor:start;fill:#000000;fill-opacity:1;stroke:none"
       id="flowRoot14072">
      <path
         d="m 98.4375,166.95062 h -24.375 q -2.0625,4.40625 -4.59375,7.3125 -2.4375,2.90625 -5.25,4.6875 -2.8125,1.78125 -6,2.53125 -3.1875,0.75 -6.5625,0.75 -3.65625,0 -7.03125,-0.84375 -3.375,-0.75 -6.28125,-2.53125 -2.90625,-1.875 -5.34375,-4.78125 -2.34375,-2.90625 -3.84375,-7.125 H 4.6875 v -3.65625 h 24 L 27.46875,150.26312 H 4.6875 v -3.65625 h 24 L 27.46875,133.57562 H 4.6875 v -3.65625 h 24 L 27.46875,116.88812 H 4.6875 v -3.65625 h 36.46875 q 0.46875,-5.15625 3.1875,-7.5 2.71875,-2.34375 7.875,-2.34375 h 0.9375 q 3.9375,0.28125 6.84375,2.4375 3,2.15625 3.65625,7.40625 H 98.4375 v 3.65625 H 77.25 l -2.53125,13.03125 H 98.4375 v 3.65625 H 77.25 l -2.53125,13.03125 H 98.4375 v 3.65625 H 77.25 l -2.53125,13.03125 H 98.4375 Z M 31.78125,129.91937 H 71.625 l 2.71875,-13.03125 h -43.875 z m 0,33.375 H 71.625 l 2.71875,-13.03125 h -43.875 z m 0,-16.6875 H 71.625 l 2.71875,-13.03125 h -43.875 z m 0.65625,20.34375 q 2.4375,5.71875 7.03125,9 4.59375,3.28125 12.1875,3.28125 3.75,0 6.5625,-0.84375 2.90625,-0.84375 5.0625,-2.4375 2.25,-1.59375 4.03125,-3.84375 1.78125,-2.34375 3.5625,-5.15625 z M 44.15625,113.23187 H 60.5625 q -0.28125,-2.0625 -1.125,-3.375 -0.84375,-1.40625 -2.0625,-2.15625 -1.125,-0.84375 -2.53125,-1.125 -1.3125,-0.28125 -2.71875,-0.28125 -3.28125,0 -5.625,1.875 -2.25,1.78125 -2.34375,5.0625 z"
         id="path14080"
         inkscape:connector-curvature="0" />
    </g>
  </g>
</svg>
