<?xml version="1.0" encoding="UTF-8" standalone="no"?>
<!-- Created with Inkscape (http://www.inkscape.org/) -->

<svg
   xmlns:dc="http://purl.org/dc/elements/1.1/"
   xmlns:cc="http://creativecommons.org/ns#"
   xmlns:rdf="http://www.w3.org/1999/02/22-rdf-syntax-ns#"
   xmlns:svg="http://www.w3.org/2000/svg"
   xmlns="http://www.w3.org/2000/svg"
   xmlns:sodipodi="http://sodipodi.sourceforge.net/DTD/sodipodi-0.dtd"
   xmlns:inkscape="http://www.inkscape.org/namespaces/inkscape"
   width="18.801952mm"
   height="17.140039mm"
   viewBox="0 0 18.801952 17.140039"
   version="1.1"
   id="svg14651"
   inkscape:version="0.92.4 (5da689c313, 2019-01-14)"
   sodipodi:docname="F43.svg">
  <defs
     id="defs14645" />
  <sodipodi:namedview
     id="base"
     pagecolor="#ffffff"
     bordercolor="#666666"
     borderopacity="1.0"
     inkscape:pageopacity="0.0"
     inkscape:pageshadow="2"
     inkscape:zoom="0.35"
     inkscape:cx="-311.83008"
     inkscape:cy="-374.76047"
     inkscape:document-units="mm"
     inkscape:current-layer="layer1"
     showgrid="false"
     fit-margin-top="0"
     fit-margin-left="0"
     fit-margin-right="0"
     fit-margin-bottom="0"
     inkscape:window-width="1920"
     inkscape:window-height="1017"
     inkscape:window-x="-8"
     inkscape:window-y="-8"
     inkscape:window-maximized="1" />
  <metadata
     id="metadata14648">
    <rdf:RDF>
      <cc:Work
         rdf:about="">
        <dc:format>image/svg+xml</dc:format>
        <dc:type
           rdf:resource="http://purl.org/dc/dcmitype/StillImage" />
        <dc:title></dc:title>
      </cc:Work>
    </rdf:RDF>
  </metadata>
  <g
     inkscape:label="Layer 1"
     inkscape:groupmode="layer"
     id="layer1"
     transform="translate(4.8074585,-32.537921)">
    <g
       aria-label="𓄮"
       transform="scale(0.26458333)"
       style="font-style:normal;font-variant:normal;font-weight:normal;font-stretch:normal;font-size:192px;line-height:1.25;font-family:sans-serif;-inkscape-font-specification:'sans-serif, Normal';font-variant-ligatures:normal;font-variant-caps:normal;font-variant-numeric:normal;font-feature-settings:normal;text-align:start;letter-spacing:0px;word-spacing:0px;writing-mode:lr-tb;text-anchor:start;fill:#000000;fill-opacity:1;stroke:none"
       id="flowRoot15196">
      <path
         d="m -18.169922,145.47797 q 0,-3.9375 3.5625,-4.78125 -1.78125,-0.28125 -2.71875,-1.5 -0.84375,-1.21875 -0.84375,-2.53125 0,-1.59375 1.21875,-3 1.3125,-1.40625 3.28125,-1.40625 1.6875,0 4.5937501,1.3125 3.65625,-0.65625 7.125,-0.9375 3.5625,-0.375 6.9375,-0.375 2.90625,0 6.1874999,0.28125 3.375,0.28125 7.21875,0.9375 3.84375,0.5625 10.125,1.40625 6.28125,0.75 15.28125,1.78125 l 1.5,-1.3125 q -0.65625,-0.375 -2.15625,-1.40625 -1.40625,-1.125 -2.53125,-1.5 -0.65625,-0.1875 -4.3125,-0.84375 -3.65625,-0.75 -8.625,-1.5 -4.96875,-0.75 -10.5,-1.3125 -5.4375,-0.5625 -9.7499999,-0.5625 -4.5,0 -8.625,0.28125 -4.125,0.1875 -7.875,1.3125 -1.4062501,0.65625 -2.5312501,1.40625 -1.125,0.65625 -1.96875,0.65625 -2.34375,0 -3.46875,-0.84375 -1.125,-0.84375 -1.125,-3.75 0,-1.59375 1.21875,-2.90625 1.3125,-1.40625 3.1875,-1.40625 0.9375,0 2.15625,0.46875 1.21875,0.46875 2.6250001,1.125 3.375,-0.375 6.65625,-0.65625 3.375,-0.28125 6.1875,-0.28125 5.90625,0 15.4687499,1.3125 9.65625,1.21875 24,2.90625 1.03125,-1.03125 2.15625,-1.78125 1.21875,-0.84375 2.15625,-0.84375 1.78125,0 3.46875,1.40625 1.78125,1.3125 1.78125,3.9375 0,0.75 -0.375,1.5 -0.28125,0.75 -0.75,1.40625 -0.46875,0.65625 -0.9375,1.125 -0.46875,0.375 -0.75,0.46875 0.1875,0.65625 0.46875,1.03125 0.375,0.375 0.75,0.75 0.75,0.75 1.125,0.9375 0.46875,0.1875 0.46875,1.59375 0,0.84375 -1.59375,2.625 -0.84375,0.84375 -1.5,1.21875 -0.375,0.28125 -0.75,0.46875 l 1.03125,0.65625 q 1.40625,1.125 2.0625,1.5 0.75,0.375 0.75,2.0625 0,0.84375 -1.59375,2.625 -1.59375,1.59375 -2.25,1.6875 l 0.84375,0.375 q 0.65625,0.375 1.78125,1.125 1.21875,0.75 1.21875,3 0,0.46875 -0.1875,0.65625 -0.09375,0.1875 -0.46875,0.375 -0.375,0.1875 -1.03125,0.5625 -0.65625,0.28125 -1.6875,0.9375 -2.0625,1.3125 -2.71875,1.6875 -0.65625,0.28125 -1.5,0.28125 -1.3125,0 -1.875,-0.9375 -0.75,1.96875 -2.15625,4.875 -1.3125,2.8125 -3.09375,5.8125 -1.6875,3 -3.65625,5.71875 -1.96875,2.71875 -3.9375,4.40625 -7.6875,6.65625 -15.5625,6.65625 -8.1562499,0 -15.84374988,-8.71875 -1.96875002,-2.25 -3.65625002,-4.96875 -1.6875,-2.71875 -3.09375,-5.625 -1.40625,-2.90625 -2.4375001,-5.625 -0.9375,-2.71875 -1.40625,-4.96875 -0.28125,0.0937 -0.5625,0.0937 -0.1875,0.0937 -0.46875,0.0937 -0.1875,0 -0.375,0 -0.9375,0 -1.875,-0.0937 -0.9375,-0.0937 -1.78125,-0.46875 -0.75,-0.46875 -1.21875,-1.3125 -0.46875,-0.84375 -0.46875,-2.25 0,-1.59375 1.21875,-2.90625 1.3125,-1.40625 3.1875,-1.40625 1.78125,0 4.6875001,1.3125 3.75,-0.65625 7.21875,-0.9375 3.5625,-0.375 7.03125,-0.375 4.40625,0 8.6249999,0.46875 4.21875,0.46875 8.71875,1.125 4.59375,0.65625 9.75,1.40625 5.15625,0.75 11.53125,1.3125 1.3125,-1.3125 2.4375,-1.6875 -2.25,-0.5625 -5.4375,-2.8125 -4.21875,-0.75 -8.71875,-1.40625 -4.40625,-0.65625 -9.1875,-1.3125 -4.78125,-0.65625 -8.4375,-0.9375 -3.65625,-0.28125 -6.3749999,-0.28125 -2.15625,0 -4.59375,0.0937 -2.34375,0 -4.5,0.1875 -2.0625,0.0937 -3.65625,0.28125 -1.5,0.0937 -2.0625,0.28125 -3,0.9375 -4.5000001,1.875 -1.5,0.84375 -1.875,0.84375 -2.0625,0 -3.5625,-0.84375 -1.5,-0.9375 -1.5,-2.71875 z m 58.59375,12.75 q -9.375,-1.875 -17.15625,-2.90625 -7.78125,-1.03125 -13.9687499,-1.03125 -4.875,0 -9.56249998,0.46875 -4.59375002,0.375 -8.62500002,1.40625 0.5625,1.96875 1.59375,4.6875 1.03125,2.625 2.34375,5.4375 1.3125,2.8125 2.90625,5.53125 1.68750002,2.625 3.46875,4.6875 7.125,8.25 13.5937499,8.25 8.15625,0 15.75,-7.96875 1.875,-1.96875 3.5625,-4.5 1.6875,-2.53125 2.90625,-5.0625 1.3125,-2.53125 2.0625,-4.875 0.84375,-2.4375 1.125,-4.125 z m -52.125,-17.8125 2.6250001,0.46875 q 0.84375,-0.0937 2.15625,-0.0937 1.40625,-0.0937 2.8125,-0.1875 1.40625,-0.0937 2.625,-0.0937 1.31250003,-0.0937 1.87500003,-0.0937 4.21874997,0.1875 7.59374997,0.46875 3.3749999,0.28125 6.3749999,0.65625 3,0.375 5.90625,0.84375 2.90625,0.46875 6.28125,0.9375 3.46875,0.46875 7.59375,1.03125 4.21875,0.5625 9.65625,1.125 1.21875,-1.21875 2.53125,-1.78125 -2.34375,-0.5625 -5.53125,-2.8125 -4.21875,-0.75 -8.71875,-1.40625 -4.40625,-0.65625 -9.1875,-1.3125 -4.78125,-0.65625 -8.4375,-0.9375 -3.65625,-0.28125 -6.3749999,-0.28125 -4.5,0 -8.53124998,0.28125 -3.93750002,0.1875 -8.15625002,1.40625 -0.46875,0.1875 -1.03125,0.46875 -0.4687501,0.28125 -0.9375001,0.5625 -0.5625,0.375 -1.125,0.75 z"
         id="path15204"
         inkscape:connector-curvature="0" />
    </g>
  </g>
</svg>
