<?xml version="1.0" encoding="UTF-8" standalone="no"?>
<!-- Created with Inkscape (http://www.inkscape.org/) -->

<svg
   xmlns:dc="http://purl.org/dc/elements/1.1/"
   xmlns:cc="http://creativecommons.org/ns#"
   xmlns:rdf="http://www.w3.org/1999/02/22-rdf-syntax-ns#"
   xmlns:svg="http://www.w3.org/2000/svg"
   xmlns="http://www.w3.org/2000/svg"
   xmlns:sodipodi="http://sodipodi.sourceforge.net/DTD/sodipodi-0.dtd"
   xmlns:inkscape="http://www.inkscape.org/namespaces/inkscape"
   width="38.000782mm"
   height="17.88418mm"
   viewBox="0 0 38.000782 17.88418"
   version="1.1"
   id="svg4263"
   inkscape:version="0.92.4 (5da689c313, 2019-01-14)"
   sodipodi:docname="F44.svg">
  <defs
     id="defs4257" />
  <sodipodi:namedview
     id="base"
     pagecolor="#ffffff"
     bordercolor="#666666"
     borderopacity="1.0"
     inkscape:pageopacity="0.0"
     inkscape:pageshadow="2"
     inkscape:zoom="0.35"
     inkscape:cx="71.027335"
     inkscape:cy="-320.56902"
     inkscape:document-units="mm"
     inkscape:current-layer="layer1"
     showgrid="false"
     fit-margin-top="0"
     fit-margin-left="0"
     fit-margin-right="0"
     fit-margin-bottom="0"
     inkscape:window-width="1920"
     inkscape:window-height="1017"
     inkscape:window-x="-8"
     inkscape:window-y="-8"
     inkscape:window-maximized="1" />
  <metadata
     id="metadata4260">
    <rdf:RDF>
      <cc:Work
         rdf:about="">
        <dc:format>image/svg+xml</dc:format>
        <dc:type
           rdf:resource="http://purl.org/dc/dcmitype/StillImage" />
        <dc:title></dc:title>
      </cc:Work>
    </rdf:RDF>
  </metadata>
  <g
     inkscape:label="Layer 1"
     inkscape:groupmode="layer"
     id="layer1"
     transform="translate(106.10515,-46.131935)">
    <g
       aria-label="𓄯"
       transform="scale(0.26458333)"
       style="font-style:normal;font-variant:normal;font-weight:normal;font-stretch:normal;font-size:192px;line-height:1.25;font-family:sans-serif;-inkscape-font-specification:sans-serif;font-variant-ligatures:normal;font-variant-caps:normal;font-variant-numeric:normal;font-feature-settings:normal;text-align:start;letter-spacing:0px;word-spacing:0px;writing-mode:lr-tb;text-anchor:start;fill:#000000;fill-opacity:1;stroke:none"
       id="flowRoot4808">
      <path
         d="m -377.49609,198.63812 q -1.875,-1.21875 -3.65625,-1.96875 -1.78125,0.375 -4.125,0.375 l -1.875,-0.0937 q -5.34375,-0.0937 -9.65625,-3 -4.21875,-2.8125 -4.21875,-9.46875 0,-5.34375 2.34375,-7.6875 2.4375,-2.4375 6.09375,-2.4375 3.9375,0 8.0625,2.53125 4.03125,2.53125 5.625,6.1875 h 1.78125 l 19.03125,-4.875 q 3.9375,-1.03125 7.96875,-1.78125 4.03125,-0.75 7.96875,-0.84375 h 1.40625 q 18.28125,0 41.8125,9 23.4375,9 28.875,26.8125 1.59375,-0.5625 3.375,-0.84375 1.78125,-0.28125 3.09375,-0.28125 2.53125,0 4.3125,2.0625 1.875,1.96875 1.875,7.40625 v 1.875 q -0.28125,10.03125 -1.96875,13.78125 -1.5,3.75 -3.84375,3.75 -1.875,0 -3.375,-2.25 -0.75,-1.125 -1.21875,-1.96875 -0.46875,-0.84375 -0.75,-1.3125 -6.1875,3.9375 -13.5,6.1875 -7.21875,2.15625 -14.25,2.15625 -15.375,0 -30.9375,-8.0625 -15.65625,-8.25 -28.6875,-18.65625 -6.65625,-5.34375 -11.25,-8.8125 -4.5,-3.5625 -7.03125,-5.4375 z m 104.90625,14.53125 q -4.3125,-16.875 -27.46875,-25.78125 -22.96875,-8.8125 -40.78125,-8.8125 h -1.3125 q -3.5625,0 -7.6875,0.84375 -4.03125,0.84375 -7.78125,1.78125 -4.21875,1.03125 -7.03125,1.6875 -2.8125,0.65625 -4.6875,1.21875 -1.78125,0.46875 -3,0.84375 -1.21875,0.28125 -2.25,0.5625 l 0.375,0.65625 q 1.03125,1.40625 2.34375,1.6875 1.40625,0.28125 3.1875,0.65625 1.78125,0.28125 5.4375,1.40625 3.65625,1.03125 8.8125,2.90625 5.15625,1.78125 11.625,4.3125 6.5625,2.53125 14.15625,5.71875 l 12.375,5.25 q 5.53125,2.4375 10.96875,3.84375 5.53125,1.40625 11.0625,2.34375 5.625,0.9375 10.03125,1.40625 4.40625,0.46875 7.6875,0.46875 h 1.96875 z m 2.34375,18 -4.3125,-5.25 q -13.78125,0 -24.5625,-2.34375 -10.6875,-2.34375 -19.6875,-5.625 -8.90625,-3.375 -16.875,-6.9375 -7.96875,-3.65625 -16.3125,-6.28125 -3.375,-1.3125 -7.3125,-2.625 -3.9375,-1.40625 -7.3125,-2.53125 -3.9375,-1.21875 -7.875,-2.4375 1.78125,1.3125 4.40625,3.28125 2.25,1.6875 5.625,4.40625 3.46875,2.625 8.34375,6.46875 18.46875,14.4375 32.8125,21.09375 14.0625,6.5625 26.8125,6.5625 6.75,0 13.40625,-2.0625 6.65625,-2.0625 12.84375,-5.71875 z m -107.4375,-45.09375 h -2.25 l -1.21875,-0.75 q -1.5,-3.5625 -4.78125,-5.71875 -3.1875,-2.25 -6.5625,-2.25 -3.28125,0 -4.40625,1.96875 -1.125,1.96875 -1.125,5.15625 0,5.15625 3.75,7.40625 3.75,2.25 8.90625,2.25 l 2.25,-0.1875 q 1.59375,-0.1875 2.53125,-0.28125 0.9375,-0.1875 1.6875,-0.1875 0.84375,0 1.5,0.0937 0.75,0.0937 1.5,0.28125 2.0625,0.375 5.4375,1.3125 3.375,0.9375 6.9375,2.0625 3.65625,1.125 6.9375,2.25 3.375,1.125 5.4375,1.875 9,3.28125 17.4375,7.03125 8.53125,3.75 17.4375,7.03125 8.90625,3.1875 18.65625,5.34375 9.84375,2.15625 21.46875,2.15625 h 1.96875 q 0.5625,0.375 1.3125,0.5625 3.1875,4.5 4.96875,7.03125 1.78125,2.4375 2.71875,3.65625 0.9375,1.125 1.3125,1.40625 0.375,0.28125 0.84375,0.28125 0.65625,0 1.59375,-3.375 1.03125,-3.375 1.03125,-11.15625 0,-1.6875 -0.1875,-3.1875 -0.0937,-1.5 -0.5625,-2.53125 -0.375,-1.125 -1.21875,-1.78125 -0.84375,-0.65625 -2.34375,-0.65625 -2.71875,0 -3.9375,0.5625 -1.21875,0.46875 -1.96875,1.96875 -1.125,1.96875 -1.40625,2.4375 -0.28125,0.46875 -0.375,0.46875 -0.46875,0.1875 -0.84375,0.375 -0.28125,0.0937 -0.46875,0.1875 -1.96875,-0.0937 -2.90625,-0.0937 -0.84375,-0.0937 -2.34375,-0.0937 -8.53125,0 -15.84375,-1.3125 -7.21875,-1.3125 -13.96875,-3.46875 -6.75,-2.25 -13.40625,-5.0625 -6.65625,-2.8125 -13.875,-5.8125 -7.125,-3.09375 -15.28125,-6.09375 -8.15625,-3.09375 -17.90625,-5.625 -4.3125,-1.125 -5.25,-2.0625 -0.46875,-0.46875 -1.3125,-1.125 -0.84375,-0.65625 -1.875,-2.34375 z"
         id="path4816"
         inkscape:connector-curvature="0" />
    </g>
  </g>
</svg>
