<?xml version="1.0" encoding="UTF-8" standalone="no"?>
<!-- Created with Inkscape (http://www.inkscape.org/) -->

<svg
   xmlns:dc="http://purl.org/dc/elements/1.1/"
   xmlns:cc="http://creativecommons.org/ns#"
   xmlns:rdf="http://www.w3.org/1999/02/22-rdf-syntax-ns#"
   xmlns:svg="http://www.w3.org/2000/svg"
   xmlns="http://www.w3.org/2000/svg"
   xmlns:sodipodi="http://sodipodi.sourceforge.net/DTD/sodipodi-0.dtd"
   xmlns:inkscape="http://www.inkscape.org/namespaces/inkscape"
   width="37.182224mm"
   height="9.9466791mm"
   viewBox="0 0 37.182224 9.9466791"
   version="1.1"
   id="svg15775"
   inkscape:version="0.92.4 (5da689c313, 2019-01-14)"
   sodipodi:docname="F46.svg">
  <defs
     id="defs15769" />
  <sodipodi:namedview
     id="base"
     pagecolor="#ffffff"
     bordercolor="#666666"
     borderopacity="1.0"
     inkscape:pageopacity="0.0"
     inkscape:pageshadow="2"
     inkscape:zoom="0.35"
     inkscape:cx="-326.11523"
     inkscape:cy="-393.40305"
     inkscape:document-units="mm"
     inkscape:current-layer="layer1"
     showgrid="false"
     fit-margin-top="0"
     fit-margin-left="0"
     fit-margin-right="0"
     fit-margin-bottom="0"
     inkscape:window-width="1920"
     inkscape:window-height="1017"
     inkscape:window-x="-8"
     inkscape:window-y="-8"
     inkscape:window-maximized="1" />
  <metadata
     id="metadata15772">
    <rdf:RDF>
      <cc:Work
         rdf:about="">
        <dc:format>image/svg+xml</dc:format>
        <dc:type
           rdf:resource="http://purl.org/dc/dcmitype/StillImage" />
        <dc:title></dc:title>
      </cc:Work>
    </rdf:RDF>
  </metadata>
  <g
     inkscape:label="Layer 1"
     inkscape:groupmode="layer"
     id="layer1"
     transform="translate(1.0278442,-34.798764)">
    <g
       aria-label="𓄲"
       transform="scale(0.26458333)"
       style="font-style:normal;font-variant:normal;font-weight:normal;font-stretch:normal;font-size:192px;line-height:1.25;font-family:sans-serif;-inkscape-font-specification:'sans-serif, Normal';font-variant-ligatures:normal;font-variant-caps:normal;font-variant-numeric:normal;font-feature-settings:normal;text-align:start;letter-spacing:0px;word-spacing:0px;writing-mode:lr-tb;text-anchor:start;fill:#000000;fill-opacity:1;stroke:none"
       id="flowRoot16320">
      <path
         d="m 127.45898,131.52289 q 9.1875,0 9.1875,11.15625 0,10.03125 -9.1875,10.03125 H 12.240234 v -4.6875 H 127.36523 q 2.34375,0 3.46875,-1.5 1.125,-1.5 1.125,-4.21875 0,-2.71875 -1.125,-4.40625 -1.125,-1.6875 -3.46875,-1.6875 H 14.208984 q -5.9999996,0 -9.7499996,3.375 -3.65625002,3.28125 -3.65625002,10.78125 0,6.84375 3.56250002,10.5 3.5625,3.5625 9.8437496,3.5625 H 136.64648 v 4.6875 H 14.115234 q -8.3437496,0 -13.21874962,-4.875 -4.78124998,-4.875 -4.78124998,-13.875 0,-4.21875 1.21875,-7.6875 1.21875,-3.46875 3.46874998,-5.90625 2.34375002,-2.53125 5.62500002,-3.84375 3.375,-1.40625 7.6874996,-1.40625 z"
         id="path16328"
         inkscape:connector-curvature="0" />
    </g>
  </g>
</svg>
