<?xml version="1.0" encoding="UTF-8" standalone="no"?>
<!-- Created with Inkscape (http://www.inkscape.org/) -->

<svg
   xmlns:dc="http://purl.org/dc/elements/1.1/"
   xmlns:cc="http://creativecommons.org/ns#"
   xmlns:rdf="http://www.w3.org/1999/02/22-rdf-syntax-ns#"
   xmlns:svg="http://www.w3.org/2000/svg"
   xmlns="http://www.w3.org/2000/svg"
   xmlns:sodipodi="http://sodipodi.sourceforge.net/DTD/sodipodi-0.dtd"
   xmlns:inkscape="http://www.inkscape.org/namespaces/inkscape"
   width="37.182228mm"
   height="9.9466791mm"
   viewBox="0 0 37.182228 9.9466791"
   version="1.1"
   id="svg5387"
   inkscape:version="0.92.4 (5da689c313, 2019-01-14)"
   sodipodi:docname="F46A.svg">
  <defs
     id="defs5381" />
  <sodipodi:namedview
     id="base"
     pagecolor="#ffffff"
     bordercolor="#666666"
     borderopacity="1.0"
     inkscape:pageopacity="0.0"
     inkscape:pageshadow="2"
     inkscape:zoom="0.35"
     inkscape:cx="-351.83008"
     inkscape:cy="-364.83274"
     inkscape:document-units="mm"
     inkscape:current-layer="layer1"
     showgrid="false"
     fit-margin-top="0"
     fit-margin-left="0"
     fit-margin-right="0"
     fit-margin-bottom="0"
     inkscape:window-width="1920"
     inkscape:window-height="1017"
     inkscape:window-x="-8"
     inkscape:window-y="-8"
     inkscape:window-maximized="1" />
  <metadata
     id="metadata5384">
    <rdf:RDF>
      <cc:Work
         rdf:about="">
        <dc:format>image/svg+xml</dc:format>
        <dc:type
           rdf:resource="http://purl.org/dc/dcmitype/StillImage" />
        <dc:title></dc:title>
      </cc:Work>
    </rdf:RDF>
  </metadata>
  <g
     inkscape:label="Layer 1"
     inkscape:groupmode="layer"
     id="layer1"
     transform="translate(-5.7758747,-42.357992)">
    <g
       aria-label="𓄳"
       transform="scale(0.26458333)"
       style="font-style:normal;font-variant:normal;font-weight:normal;font-stretch:normal;font-size:192px;line-height:1.25;font-family:sans-serif;-inkscape-font-specification:sans-serif;font-variant-ligatures:normal;font-variant-caps:normal;font-variant-numeric:normal;font-feature-settings:normal;text-align:start;letter-spacing:0px;word-spacing:0px;writing-mode:lr-tb;text-anchor:start;fill:#000000;fill-opacity:1;stroke:none"
       id="flowRoot5932">
      <path
         d="m 144.36133,160.0932 q 8.34375,0 13.125,4.875 4.875,4.875 4.875,13.875 0,4.21875 -1.21875,7.6875 -1.21875,3.46875 -3.5625,6 -2.25,2.4375 -5.625,3.84375 -3.28125,1.3125 -7.59375,1.3125 H 31.017578 q -9.1875,0 -9.1875,-11.15625 0,-10.03125 9.1875,-10.03125 H 146.23633 v 4.6875 H 31.111328 q -2.34375,0 -3.46875,1.5 -1.125,1.5 -1.125,4.21875 0,2.71875 1.125,4.40625 1.125,1.6875 3.46875,1.6875 H 144.26758 q 6,0 9.65625,-3.28125 3.75,-3.375 3.75,-10.875 0,-6.84375 -3.5625,-10.40625 -3.5625,-3.65625 -9.84375,-3.65625 H 21.830078 v -4.6875 z"
         id="path5940"
         inkscape:connector-curvature="0" />
    </g>
  </g>
</svg>
