<?xml version="1.0" encoding="UTF-8" standalone="no"?>
<!-- Created with Inkscape (http://www.inkscape.org/) -->

<svg
   xmlns:dc="http://purl.org/dc/elements/1.1/"
   xmlns:cc="http://creativecommons.org/ns#"
   xmlns:rdf="http://www.w3.org/1999/02/22-rdf-syntax-ns#"
   xmlns:svg="http://www.w3.org/2000/svg"
   xmlns="http://www.w3.org/2000/svg"
   xmlns:sodipodi="http://sodipodi.sourceforge.net/DTD/sodipodi-0.dtd"
   xmlns:inkscape="http://www.inkscape.org/namespaces/inkscape"
   width="37.182228mm"
   height="9.9466791mm"
   viewBox="0 0 37.182228 9.9466791"
   version="1.1"
   id="svg16337"
   inkscape:version="0.92.4 (5da689c313, 2019-01-14)"
   sodipodi:docname="F47.svg">
  <defs
     id="defs16331" />
  <sodipodi:namedview
     id="base"
     pagecolor="#ffffff"
     bordercolor="#666666"
     borderopacity="1.0"
     inkscape:pageopacity="0.0"
     inkscape:pageshadow="2"
     inkscape:zoom="0.35"
     inkscape:cx="-348.97266"
     inkscape:cy="-373.40305"
     inkscape:document-units="mm"
     inkscape:current-layer="layer1"
     showgrid="false"
     fit-margin-top="0"
     fit-margin-left="0"
     fit-margin-right="0"
     fit-margin-bottom="0"
     inkscape:window-width="1920"
     inkscape:window-height="1017"
     inkscape:window-x="-8"
     inkscape:window-y="-8"
     inkscape:window-maximized="1" />
  <metadata
     id="metadata16334">
    <rdf:RDF>
      <cc:Work
         rdf:about="">
        <dc:format>image/svg+xml</dc:format>
        <dc:type
           rdf:resource="http://purl.org/dc/dcmitype/StillImage" />
        <dc:title></dc:title>
      </cc:Work>
    </rdf:RDF>
  </metadata>
  <g
     inkscape:label="Layer 1"
     inkscape:groupmode="layer"
     id="layer1"
     transform="translate(-5.0198485,-40.090431)">
    <g
       aria-label="𓄴"
       transform="scale(0.26458333)"
       style="font-style:normal;font-variant:normal;font-weight:normal;font-stretch:normal;font-size:192px;line-height:1.25;font-family:sans-serif;-inkscape-font-specification:'sans-serif, Normal';font-variant-ligatures:normal;font-variant-caps:normal;font-variant-numeric:normal;font-feature-settings:normal;text-align:start;letter-spacing:0px;word-spacing:0px;writing-mode:lr-tb;text-anchor:start;fill:#000000;fill-opacity:1;stroke:none"
       id="flowRoot16882">
      <path
         d="m 141.50391,151.52289 q 4.3125,0 7.59375,1.40625 3.375,1.3125 5.625,3.84375 2.34375,2.4375 3.5625,5.90625 1.21875,3.46875 1.21875,7.6875 0,9 -4.875,13.875 -4.78125,4.875 -13.125,4.875 H 18.972656 v -4.6875 H 141.41016 q 6.28125,0 9.84375,-3.5625 3.5625,-3.65625 3.5625,-10.5 0,-7.5 -3.75,-10.78125 -3.65625,-3.375 -9.65625,-3.375 H 28.253906 q -2.34375,0 -3.46875,1.6875 -1.125,1.6875 -1.125,4.40625 0,2.71875 1.125,4.21875 1.125,1.5 3.46875,1.5 H 143.37891 v 4.6875 H 28.160156 q -9.1875,0 -9.1875,-10.03125 0,-11.15625 9.1875,-11.15625 z"
         id="path16890"
         inkscape:connector-curvature="0" />
    </g>
  </g>
</svg>
