<?xml version="1.0" encoding="UTF-8" standalone="no"?>
<!-- Created with Inkscape (http://www.inkscape.org/) -->

<svg
   xmlns:dc="http://purl.org/dc/elements/1.1/"
   xmlns:cc="http://creativecommons.org/ns#"
   xmlns:rdf="http://www.w3.org/1999/02/22-rdf-syntax-ns#"
   xmlns:svg="http://www.w3.org/2000/svg"
   xmlns="http://www.w3.org/2000/svg"
   xmlns:sodipodi="http://sodipodi.sourceforge.net/DTD/sodipodi-0.dtd"
   xmlns:inkscape="http://www.inkscape.org/namespaces/inkscape"
   width="37.256641mm"
   height="10.74043mm"
   viewBox="0 0 37.256641 10.74043"
   version="1.1"
   id="svg6511"
   inkscape:version="0.92.4 (5da689c313, 2019-01-14)"
   sodipodi:docname="F48.svg">
  <defs
     id="defs6505" />
  <sodipodi:namedview
     id="base"
     pagecolor="#ffffff"
     bordercolor="#666666"
     borderopacity="1.0"
     inkscape:pageopacity="0.0"
     inkscape:pageshadow="2"
     inkscape:zoom="0.35"
     inkscape:cx="468.16991"
     inkscape:cy="-141.97532"
     inkscape:document-units="mm"
     inkscape:current-layer="layer1"
     showgrid="false"
     fit-margin-top="0"
     fit-margin-left="0"
     fit-margin-right="0"
     fit-margin-bottom="0"
     inkscape:window-width="1920"
     inkscape:window-height="1017"
     inkscape:window-x="-8"
     inkscape:window-y="-8"
     inkscape:window-maximized="1" />
  <metadata
     id="metadata6508">
    <rdf:RDF>
      <cc:Work
         rdf:about="">
        <dc:format>image/svg+xml</dc:format>
        <dc:type
           rdf:resource="http://purl.org/dc/dcmitype/StillImage" />
        <dc:title></dc:title>
      </cc:Work>
    </rdf:RDF>
  </metadata>
  <g
     inkscape:label="Layer 1"
     inkscape:groupmode="layer"
     id="layer1"
     transform="translate(211.18246,-100.5286)">
    <g
       aria-label="𓄶"
       transform="scale(0.26458333)"
       style="font-style:normal;font-variant:normal;font-weight:normal;font-stretch:normal;font-size:192px;line-height:1.25;font-family:sans-serif;-inkscape-font-specification:sans-serif;font-variant-ligatures:normal;font-variant-caps:normal;font-variant-numeric:normal;font-feature-settings:normal;text-align:start;letter-spacing:0px;word-spacing:0px;writing-mode:lr-tb;text-anchor:start;fill:#000000;fill-opacity:1;stroke:none"
       id="flowRoot7056">
      <path
         d="m -788.88867,402.63812 q -1.875,0 -3.1875,1.875 -1.3125,1.78125 -1.3125,4.78125 0,3.1875 1.40625,4.875 1.40625,1.6875 3.1875,1.6875 h 131.4375 v 4.6875 h -131.53125 q -2.4375,0 -4.21875,-1.03125 -1.6875,-1.03125 -2.8125,-2.71875 -1.125,-1.6875 -1.6875,-3.65625 -0.46875,-2.0625 -0.46875,-4.03125 0,-2.71875 0.75,-4.78125 0.84375,-2.0625 2.0625,-3.46875 1.3125,-1.40625 2.90625,-2.15625 1.6875,-0.75 3.46875,-0.75 h 122.15625 q 2.15625,0 3.46875,-1.875 1.3125,-1.875 1.3125,-4.78125 0,-2.625 -1.6875,-4.59375 -1.6875,-1.96875 -4.5,-1.96875 h -130.03125 v -4.78125 h 130.125 q 5.34375,0 7.96875,3 2.71875,2.90625 2.71875,8.34375 0,5.0625 -2.53125,8.25 -2.4375,3.09375 -6.65625,3.09375 z"
         id="path7064"
         inkscape:connector-curvature="0" />
    </g>
  </g>
</svg>
