<?xml version="1.0" encoding="UTF-8" standalone="no"?>
<!-- Created with Inkscape (http://www.inkscape.org/) -->

<svg
   xmlns:dc="http://purl.org/dc/elements/1.1/"
   xmlns:cc="http://creativecommons.org/ns#"
   xmlns:rdf="http://www.w3.org/1999/02/22-rdf-syntax-ns#"
   xmlns:svg="http://www.w3.org/2000/svg"
   xmlns="http://www.w3.org/2000/svg"
   xmlns:sodipodi="http://sodipodi.sourceforge.net/DTD/sodipodi-0.dtd"
   xmlns:inkscape="http://www.inkscape.org/namespaces/inkscape"
   width="37.256638mm"
   height="10.74043mm"
   viewBox="0 0 37.256638 10.74043"
   version="1.1"
   id="svg16899"
   inkscape:version="0.92.4 (5da689c313, 2019-01-14)"
   sodipodi:docname="F49.svg">
  <defs
     id="defs16893" />
  <sodipodi:namedview
     id="base"
     pagecolor="#ffffff"
     bordercolor="#666666"
     borderopacity="1.0"
     inkscape:pageopacity="0.0"
     inkscape:pageshadow="2"
     inkscape:zoom="0.35"
     inkscape:cx="-340.40234"
     inkscape:cy="-370.54758"
     inkscape:document-units="mm"
     inkscape:current-layer="layer1"
     showgrid="false"
     fit-margin-top="0"
     fit-margin-left="0"
     fit-margin-right="0"
     fit-margin-bottom="0"
     inkscape:window-width="1920"
     inkscape:window-height="1017"
     inkscape:window-x="-8"
     inkscape:window-y="-8"
     inkscape:window-maximized="1" />
  <metadata
     id="metadata16896">
    <rdf:RDF>
      <cc:Work
         rdf:about="">
        <dc:format>image/svg+xml</dc:format>
        <dc:type
           rdf:resource="http://purl.org/dc/dcmitype/StillImage" />
        <dc:title></dc:title>
      </cc:Work>
    </rdf:RDF>
  </metadata>
  <g
     inkscape:label="Layer 1"
     inkscape:groupmode="layer"
     id="layer1"
     transform="translate(-2.7522868,-40.052191)">
    <g
       aria-label="𓄷"
       transform="scale(0.26458333)"
       style="font-style:normal;font-variant:normal;font-weight:normal;font-stretch:normal;font-size:192px;line-height:1.25;font-family:sans-serif;-inkscape-font-specification:'sans-serif, Normal';font-variant-ligatures:normal;font-variant-caps:normal;font-variant-numeric:normal;font-feature-settings:normal;text-align:start;letter-spacing:0px;word-spacing:0px;writing-mode:lr-tb;text-anchor:start;fill:#000000;fill-opacity:1;stroke:none"
       id="flowRoot17444">
      <path
         d="m 19.589844,174.06586 q -4.21875,0 -6.75,-3.09375 -2.4375,-3.1875 -2.4375,-8.25 0,-5.4375 2.625,-8.34375 2.71875,-3 8.0625,-3 H 151.21484 v 4.78125 H 21.183594 q -2.8125,0 -4.5,1.96875 -1.6875,1.96875 -1.6875,4.59375 0,2.90625 1.3125,4.78125 1.3125,1.875 3.46875,1.875 H 141.93359 q 1.78125,0 3.375,0.75 1.6875,0.75 2.90625,2.15625 1.3125,1.40625 2.0625,3.46875 0.84375,2.0625 0.84375,4.78125 0,1.96875 -0.5625,4.03125 -0.46875,1.96875 -1.59375,3.65625 -1.125,1.6875 -2.90625,2.71875 -1.6875,1.03125 -4.125,1.03125 H 10.402344 v -4.6875 H 141.83984 q 1.78125,0 3.1875,-1.6875 1.40625,-1.6875 1.40625,-4.875 0,-3 -1.3125,-4.78125 -1.3125,-1.875 -3.1875,-1.875 z"
         id="path17452"
         inkscape:connector-curvature="0" />
    </g>
  </g>
</svg>
