<?xml version="1.0" encoding="UTF-8" standalone="no"?>
<!-- Created with Inkscape (http://www.inkscape.org/) -->

<svg
   xmlns:dc="http://purl.org/dc/elements/1.1/"
   xmlns:cc="http://creativecommons.org/ns#"
   xmlns:rdf="http://www.w3.org/1999/02/22-rdf-syntax-ns#"
   xmlns:svg="http://www.w3.org/2000/svg"
   xmlns="http://www.w3.org/2000/svg"
   xmlns:sodipodi="http://sodipodi.sourceforge.net/DTD/sodipodi-0.dtd"
   xmlns:inkscape="http://www.inkscape.org/namespaces/inkscape"
   width="29.939257mm"
   height="37.703125mm"
   viewBox="0 0 29.939257 37.703125"
   version="1.1"
   id="svg36019"
   inkscape:version="0.92.4 (5da689c313, 2019-01-14)"
   sodipodi:docname="F5.svg">
  <defs
     id="defs36013" />
  <sodipodi:namedview
     id="base"
     pagecolor="#ffffff"
     bordercolor="#666666"
     borderopacity="1.0"
     inkscape:pageopacity="0.0"
     inkscape:pageshadow="2"
     inkscape:zoom="0.35"
     inkscape:cx="-334.6875"
     inkscape:cy="-363.61399"
     inkscape:document-units="mm"
     inkscape:current-layer="layer1"
     showgrid="false"
     fit-margin-top="0"
     fit-margin-left="0"
     fit-margin-right="0"
     fit-margin-bottom="0"
     inkscape:window-width="1920"
     inkscape:window-height="1017"
     inkscape:window-x="-8"
     inkscape:window-y="-8"
     inkscape:window-maximized="1" />
  <metadata
     id="metadata36016">
    <rdf:RDF>
      <cc:Work
         rdf:about="">
        <dc:format>image/svg+xml</dc:format>
        <dc:type
           rdf:resource="http://purl.org/dc/dcmitype/StillImage" />
        <dc:title></dc:title>
      </cc:Work>
    </rdf:RDF>
  </metadata>
  <g
     inkscape:label="Layer 1"
     inkscape:groupmode="layer"
     id="layer1"
     transform="translate(-1.2402344,-14.924008)">
    <g
       aria-label="𓄃"
       transform="scale(0.26458333)"
       style="font-style:normal;font-variant:normal;font-weight:normal;font-stretch:normal;font-size:192px;line-height:1.25;font-family:sans-serif;-inkscape-font-specification:sans-serif;font-variant-ligatures:normal;font-variant-caps:normal;font-variant-numeric:normal;font-feature-settings:normal;text-align:start;letter-spacing:0px;word-spacing:0px;writing-mode:lr-tb;text-anchor:start;fill:#000000;fill-opacity:1;stroke:none"
       id="flowRoot36564">
      <path
         d="m 99.9375,56.968202 q -3.46875,1.875 -6.1875,4.3125 -2.71875,2.4375 -4.5,5.4375 -1.78125,3 -2.90625,8.0625 -1.125,4.96875 -2.4375,12.28125 -0.65625,3.5625 -1.3125,6.84375 -0.65625,3.1875 -1.78125,6.281248 -1.125,3.09375 -2.90625,6 -1.6875,2.90625 -4.5,5.8125 0.28125,-0.0937 1.3125,-0.46875 1.125,-0.46875 2.34375,-0.9375 1.3125,-0.5625 2.34375,-0.9375 1.125,-0.46875 1.40625,-0.5625 l 2.25,-0.75 q 4.03125,-1.21875 14.34375,-3.9375 10.3125,-2.8125 16.96875,-6.374998 l 1.78125,2.343748 q -4.78125,5.8125 -9.09375,10.40625 -4.3125,4.5 -8.4375,7.78125 -8.15625,6.5625 -17.0625,10.125 7.03125,6 12.46875,11.53125 5.53125,5.4375 9.65625,10.59375 8.15625,10.125 14.15625,22.21875 l -1.03125,1.96875 q -8.53125,2.25 -18.375,6.9375 -4.875,2.34375 -11.90625,6.5625 -6.9375,4.21875 -16.125,10.40625 l -2.34375,-0.9375 q -0.84375,-8.53125 -1.96875,-17.4375 -1.125,-9 -4.5,-17.34375 -3.375,-8.4375 -9.09375,-15 -0.84375,0.375 -1.96875,0.75 -1.125,0.375 -2.15625,0.75 l -1.96875,0.75 q -1.78125,0.65625 -4.59375,2.25 -2.71875,1.5 -6,3.46875 l -14.34375,8.8125 q -1.5,0.9375 -1.875,0.9375 -0.84375,0 -1.21875,0.0937 -3.09375,0 -5.34375,-2.15625 -2.15625,-2.15625 -2.15625,-5.53125 0,-2.15625 1.21875,-5.0625 1.21875,-3 4.125,-7.21875 l 3,-4.3125 q 3.65625,-5.1562 4.78125,-9.2812 1.125,-4.125 5.4375,-5.625 2.34375,-2.25 2.53125,-6.9375 -4.59375,-3.09375 -7.03125,-6.28125 -2.34375,-3.1875 -4.03125,-6.75 -1.21875,-2.625 -2.0625,-7.687498 -0.75,-5.0625 -1.40625,-10.96875 -0.65625,-5.90625 -1.59375,-10.40625 -0.9375,-4.59375 -2.34375,-7.96875 -1.40625,-3.375 -3.5625,-6.46875 -2.0625,-3.1875 -5.25,-6.1875 l 0.375,-0.75 q 3.65625,1.875 6.5625,4.875 2.90625,2.90625 5.25,6.1875 2.4375,3.46875 3.5625,9.09375 1.21875,5.53125 2.53125,13.5 0.65625,3.9375 1.6875,7.5 Q 25.6875,101.0307 27,104.0307 q 1.3125,3 2.8125,5.34375 1.5,2.25 3.1875,3.65625 h 29.15625 q 3.65625,-1.96875 6.09375,-4.5 2.4375,-2.53125 4.3125,-6 1.875,-3.562498 3.46875,-8.437498 1.6875,-4.875 3.1875,-11.34375 1.5,-6.46875 3.28125,-10.96875 1.78125,-4.5 4.125,-7.125 2.34375,-2.71875 5.4375,-4.78125 3.09375,-2.0625 7.6875,-3.46875 z M 78.09375,126.7182 q 8.53125,-2.8125 16.40625,-8.625 7.875,-5.8125 15.1875,-14.53125 -7.03125,2.90625 -18.09375,5.53125 -5.625,1.3125 -10.6875,3.28125 -5.0625,1.96875 -8.625,3.84375 l -10.875,5.625 -1.40625,-2.625 2.0625,-1.03125 -1.21875,-2.15625 h -24.375 l -2.34375,3.375 0.65625,1.21875 q 0,6.75 -4.125,8.90625 -3.9375,2.15625 -3.9375,3.46875 v 0.375 q 0,1.3125 -1.125,3.65625 l -1.03125,1.875 q -0.65625,1.03125 -1.96875,3.09375 -1.3125,1.96875 -3.46875,4.96875 -4.125,6 -5.4375,11.34375 1.03125,3.1875 1.78125,3.84375 0.9375,0.75 3.84375,0.75 0.5625,-0.375 3.5625,-2.15625 3,-1.875 8.4375,-5.34375 10.875,-6.84375 20.71875,-10.40625 2.4375,-2.90625 3.09375,-6.65625 0.75,-3.84375 0.84375,-7.59375 v -2.34375 l 3,-0.28125 q 0,3.28125 -0.28125,7.21875 -0.28125,3.84375 -1.59375,7.21875 l -0.9375,1.96875 q -0.375,0.84375 -1.21875,1.875 6.46875,7.03125 10.3125,18 1.875,5.34375 3.1875,13.03125 1.40625,7.59375 2.34375,17.625 18.46875,-12.28125 27.375,-16.40625 4.5,-2.0625 8.4375,-3.5625 4.03125,-1.5 7.6875,-2.53125 -2.625,-5.34375 -6,-10.5 -3.375,-5.25 -7.6875,-10.40625 -8.4375,-10.3125 -22.96875,-22.40625 z m -36.28125,4.40625 q -3.375,2.8125 -5.25,2.8125 -1.875,0 -2.15625,-2.8125 0,-2.8125 1.875,-2.8125 1.59375,0 5.53125,2.8125 z"
         id="path36572"
         inkscape:connector-curvature="0" />
    </g>
  </g>
</svg>
