<?xml version="1.0" encoding="UTF-8" standalone="no"?>
<!-- Created with Inkscape (http://www.inkscape.org/) -->

<svg
   xmlns:dc="http://purl.org/dc/elements/1.1/"
   xmlns:cc="http://creativecommons.org/ns#"
   xmlns:rdf="http://www.w3.org/1999/02/22-rdf-syntax-ns#"
   xmlns:svg="http://www.w3.org/2000/svg"
   xmlns="http://www.w3.org/2000/svg"
   xmlns:sodipodi="http://sodipodi.sourceforge.net/DTD/sodipodi-0.dtd"
   xmlns:inkscape="http://www.inkscape.org/namespaces/inkscape"
   width="37.182224mm"
   height="37.256641mm"
   viewBox="0 0 37.182224 37.256641"
   version="1.1"
   id="svg17461"
   inkscape:version="0.92.4 (5da689c313, 2019-01-14)"
   sodipodi:docname="F50.svg">
  <defs
     id="defs17455" />
  <sodipodi:namedview
     id="base"
     pagecolor="#ffffff"
     bordercolor="#666666"
     borderopacity="1.0"
     inkscape:pageopacity="0.0"
     inkscape:pageshadow="2"
     inkscape:zoom="0.35"
     inkscape:cx="-346.11523"
     inkscape:cy="-373.40305"
     inkscape:document-units="mm"
     inkscape:current-layer="layer1"
     showgrid="false"
     fit-margin-top="0"
     fit-margin-left="0"
     fit-margin-right="0"
     fit-margin-bottom="0"
     inkscape:window-width="1920"
     inkscape:window-height="1017"
     inkscape:window-x="-8"
     inkscape:window-y="-8"
     inkscape:window-maximized="1" />
  <metadata
     id="metadata17458">
    <rdf:RDF>
      <cc:Work
         rdf:about="">
        <dc:format>image/svg+xml</dc:format>
        <dc:type
           rdf:resource="http://purl.org/dc/dcmitype/StillImage" />
        <dc:title></dc:title>
      </cc:Work>
    </rdf:RDF>
  </metadata>
  <g
     inkscape:label="Layer 1"
     inkscape:groupmode="layer"
     id="layer1"
     transform="translate(-4.2638223,-12.78047)">
    <g
       aria-label="𓄸"
       transform="scale(0.26458333)"
       style="font-style:normal;font-variant:normal;font-weight:normal;font-stretch:normal;font-size:192px;line-height:1.25;font-family:sans-serif;-inkscape-font-specification:'sans-serif, Normal';font-variant-ligatures:normal;font-variant-caps:normal;font-variant-numeric:normal;font-feature-settings:normal;text-align:start;letter-spacing:0px;word-spacing:0px;writing-mode:lr-tb;text-anchor:start;fill:#000000;fill-opacity:1;stroke:none"
       id="flowRoot18006">
      <path
         d="m 74.521484,189.11664 v -66.46875 h -40.40625 q -8.34375,0 -13.21875,-4.875 -4.78125,-4.875 -4.78125,-13.875 0,-4.21875 1.21875,-7.6875 1.21875,-3.46875 3.46875,-5.90625 2.34375,-2.53125 5.625,-3.84375 3.375,-1.40625 7.6875,-1.40625 h 40.40625 v -23.25 q 0,-6.1875 3.65625,-9.65625 3.65625,-3.46875 11.53125,-3.84375 15.093746,1.03125 15.093746,13.5 v 23.25 h 42.65625 q 9.1875,0 9.1875,11.15625 0,10.03125 -9.1875,10.03125 h -42.65625 v 11.71875 h 51.84375 v 4.6875 h -51.84375 v 20.71875 h -4.6875 V 122.64789 H 79.208984 v 66.46875 z m 0,-71.15625 v -11.71875 h -42.28125 v -4.6875 h 42.28125 v -11.8125 h -40.3125 q -6,0 -9.75,3.375 -3.65625,3.28125 -3.65625,10.78125 0,6.84375 3.5625,10.5 3.5625,3.5625 9.84375,3.5625 z m 25.593746,-56.0625 q 0,-4.21875 -2.812496,-6.5625 -2.71875,-2.34375 -7.78125,-2.34375 -4.5,0 -7.40625,2.34375 -2.90625,2.34375 -2.90625,6.5625 v 23.15625 h 20.906246 z m 4.6875,39.65625 h 42.5625 q 2.34375,0 3.46875,-1.5 1.125,-1.5 1.125,-4.21875 0,-2.71875 -1.125,-4.40625 -1.125,-1.6875 -3.46875,-1.6875 h -42.5625 z M 79.208984,117.96039 H 100.11523 V 106.24164 H 79.208984 Z m 0,-16.40625 H 100.11523 V 89.74164 H 79.208984 Z"
         id="path18014"
         inkscape:connector-curvature="0" />
    </g>
  </g>
</svg>
