<?xml version="1.0" encoding="UTF-8" standalone="no"?>
<!-- Created with Inkscape (http://www.inkscape.org/) -->

<svg
   xmlns:dc="http://purl.org/dc/elements/1.1/"
   xmlns:cc="http://creativecommons.org/ns#"
   xmlns:rdf="http://www.w3.org/1999/02/22-rdf-syntax-ns#"
   xmlns:svg="http://www.w3.org/2000/svg"
   xmlns="http://www.w3.org/2000/svg"
   xmlns:sodipodi="http://sodipodi.sourceforge.net/DTD/sodipodi-0.dtd"
   xmlns:inkscape="http://www.inkscape.org/namespaces/inkscape"
   width="15.577344mm"
   height="18.677929mm"
   viewBox="0 0 15.577344 18.677929"
   version="1.1"
   id="svg18023"
   inkscape:version="0.92.4 (5da689c313, 2019-01-14)"
   sodipodi:docname="F51.svg">
  <defs
     id="defs18017" />
  <sodipodi:namedview
     id="base"
     pagecolor="#ffffff"
     bordercolor="#666666"
     borderopacity="1.0"
     inkscape:pageopacity="0.0"
     inkscape:pageshadow="2"
     inkscape:zoom="0.35"
     inkscape:cx="-374.68745"
     inkscape:cy="-366.19016"
     inkscape:document-units="mm"
     inkscape:current-layer="layer1"
     showgrid="false"
     fit-margin-top="0"
     fit-margin-left="0"
     fit-margin-right="0"
     fit-margin-bottom="0"
     inkscape:window-width="1920"
     inkscape:window-height="1017"
     inkscape:window-x="-8"
     inkscape:window-y="-8"
     inkscape:window-maximized="1" />
  <metadata
     id="metadata18020">
    <rdf:RDF>
      <cc:Work
         rdf:about="">
        <dc:format>image/svg+xml</dc:format>
        <dc:type
           rdf:resource="http://purl.org/dc/dcmitype/StillImage" />
        <dc:title></dc:title>
      </cc:Work>
    </rdf:RDF>
  </metadata>
  <g
     inkscape:label="Layer 1"
     inkscape:groupmode="layer"
     id="layer1"
     transform="translate(-11.823554,-33.267591)">
    <g
       aria-label="𓄹"
       transform="scale(0.26458333)"
       style="font-style:normal;font-variant:normal;font-weight:normal;font-stretch:normal;font-size:192px;line-height:1.25;font-family:sans-serif;-inkscape-font-specification:'sans-serif, Normal';font-variant-ligatures:normal;font-variant-caps:normal;font-variant-numeric:normal;font-feature-settings:normal;text-align:start;letter-spacing:0px;word-spacing:0px;writing-mode:lr-tb;text-anchor:start;fill:#000000;fill-opacity:1;stroke:none"
       id="flowRoot18568">
      <path
         d="m 44.6875,142.42328 q 0,-7.78125 4.125,-12.1875 4.21875,-4.5 12.9375,-4.5 12.28125,0 22.59375,13.3125 10.40625,13.21875 16.125,33.28125 l 0.5625,1.96875 q 0.75,2.34375 1.21875,6 0.5625,3.5625 0.65625,4.03125 l 0.5625,3.9375 q 0,1.125 0.0937,2.15625 0,2.15625 -1.78125,4.03125 -1.6875,1.875 -3.5625,1.875 -2.4375,0 -4.78125,-3.65625 -2.34375,-3.75 -9.09375,-9.09375 -6.75,-5.34375 -13.5,-9.375 -6.75,-4.125 -14.0625,-9.5625 -7.21875,-5.4375 -9.65625,-10.875 -2.4375,-5.4375 -2.4375,-11.34375 z m 3.09375,-0.0937 q 0,7.6875 4.21875,13.6875 4.3125,6 19.78125,15.375 15.46875,9.375 22.40625,17.15625 l 1.5,1.875 q 0.9375,1.03125 1.5,1.96875 0.5625,0.84375 1.125,0.84375 0.84375,0 1.78125,-1.3125 0.9375,-1.40625 -1.03125,-12.84375 -1.96875,-11.53125 -9.375,-25.59375 -7.3125,-14.15625 -14.34375,-19.40625 -6.9375,-5.25 -13.875,-5.25 -6.9375,0 -10.21875,3.1875 -1.875,1.78125 -2.71875,4.59375 -0.75,2.71875 -0.75,5.71875 z"
         id="path18576"
         inkscape:connector-curvature="0" />
    </g>
  </g>
</svg>
