<?xml version="1.0" encoding="UTF-8" standalone="no"?>
<!-- Created with Inkscape (http://www.inkscape.org/) -->

<svg
   xmlns:dc="http://purl.org/dc/elements/1.1/"
   xmlns:cc="http://creativecommons.org/ns#"
   xmlns:rdf="http://www.w3.org/1999/02/22-rdf-syntax-ns#"
   xmlns:svg="http://www.w3.org/2000/svg"
   xmlns="http://www.w3.org/2000/svg"
   xmlns:sodipodi="http://sodipodi.sourceforge.net/DTD/sodipodi-0.dtd"
   xmlns:inkscape="http://www.inkscape.org/namespaces/inkscape"
   width="15.502924mm"
   height="18.603516mm"
   viewBox="0 0 15.502924 18.603516"
   version="1.1"
   id="svg8197"
   inkscape:version="0.92.4 (5da689c313, 2019-01-14)"
   sodipodi:docname="F51C.svg">
  <defs
     id="defs8191" />
  <sodipodi:namedview
     id="base"
     pagecolor="#ffffff"
     bordercolor="#666666"
     borderopacity="1.0"
     inkscape:pageopacity="0.0"
     inkscape:pageshadow="2"
     inkscape:zoom="0.35"
     inkscape:cx="708.16989"
     inkscape:cy="-183.33274"
     inkscape:document-units="mm"
     inkscape:current-layer="layer1"
     showgrid="false"
     fit-margin-top="0"
     fit-margin-left="0"
     fit-margin-right="0"
     fit-margin-bottom="0"
     inkscape:window-width="1920"
     inkscape:window-height="1017"
     inkscape:window-x="-8"
     inkscape:window-y="-8"
     inkscape:window-maximized="1" />
  <metadata
     id="metadata8194">
    <rdf:RDF>
      <cc:Work
         rdf:about="">
        <dc:format>image/svg+xml</dc:format>
        <dc:type
           rdf:resource="http://purl.org/dc/dcmitype/StillImage" />
        <dc:title></dc:title>
      </cc:Work>
    </rdf:RDF>
  </metadata>
  <g
     inkscape:label="Layer 1"
     inkscape:groupmode="layer"
     id="layer1"
     transform="translate(274.68245,-81.723031)">
    <g
       aria-label="𓄼"
       transform="scale(0.26458333)"
       style="font-style:normal;font-variant:normal;font-weight:normal;font-stretch:normal;font-size:192px;line-height:1.25;font-family:sans-serif;-inkscape-font-specification:sans-serif;font-variant-ligatures:normal;font-variant-caps:normal;font-variant-numeric:normal;font-feature-settings:normal;text-align:start;letter-spacing:0px;word-spacing:0px;writing-mode:lr-tb;text-anchor:start;fill:#000000;fill-opacity:1;stroke:none"
       id="flowRoot8742">
      <path
         d="m -1033.1074,308.87445 q 0.1875,0.0937 0.4687,0.28125 0.375,0.0937 0.8438,0.28125 11.9062,12 16.0312,15.1875 2.1563,1.6875 5.7188,3.9375 3.5625,2.25 8.7187,4.96875 10.40628,5.625 16.03128,13.125 5.71875,7.5 5.71875,16.59375 0,8.15625 -4.78125,12.09375 -4.6875,3.84375 -12.5625,3.84375 -10.96878,0 -19.40628,-9.65625 -5.0625,-5.71875 -9,-12.5625 -3.9375,-6.9375 -6.9375,-15.1875 -5.9062,-16.3125 -5.9062,-26.15625 0,-2.53125 1.0312,-4.3125 1.0313,-1.78125 4.0313,-2.4375 z m -0.375,3.09375 q -1.125,0.75 -1.6875,1.78125 0.2812,13.3125 5.7187,26.8125 5.4375,13.6875 13.0313,24.1875 7.6875,10.59375 19.87498,11.625 2.90625,-0.28125 5.4375,-1.03125 2.625,-0.75 4.5,-2.25 1.875,-1.5 2.90625,-3.84375 1.125,-2.34375 1.125,-5.71875 0,-8.4375 -5.4375,-15.46875 -5.34375,-7.125 -15.75003,-12.5625 -10.125,-5.25 -16.125,-10.40625 -2.9062,-2.53125 -6.2812,-5.8125 -3.375,-3.28125 -7.3125,-7.3125 z"
         id="path8750"
         inkscape:connector-curvature="0" />
    </g>
  </g>
</svg>
