<?xml version="1.0" encoding="UTF-8" standalone="no"?>
<!-- Created with Inkscape (http://www.inkscape.org/) -->

<svg
   xmlns:dc="http://purl.org/dc/elements/1.1/"
   xmlns:cc="http://creativecommons.org/ns#"
   xmlns:rdf="http://www.w3.org/1999/02/22-rdf-syntax-ns#"
   xmlns:svg="http://www.w3.org/2000/svg"
   xmlns="http://www.w3.org/2000/svg"
   xmlns:sodipodi="http://sodipodi.sourceforge.net/DTD/sodipodi-0.dtd"
   xmlns:inkscape="http://www.inkscape.org/namespaces/inkscape"
   width="15.899804mm"
   height="19.521288mm"
   viewBox="0 0 15.899804 19.521288"
   version="1.1"
   id="svg18585"
   inkscape:version="0.92.4 (5da689c313, 2019-01-14)"
   sodipodi:docname="F52.svg">
  <defs
     id="defs18579" />
  <sodipodi:namedview
     id="base"
     pagecolor="#ffffff"
     bordercolor="#666666"
     borderopacity="1.0"
     inkscape:pageopacity="0.0"
     inkscape:pageshadow="2"
     inkscape:zoom="0.35"
     inkscape:cx="-328.97266"
     inkscape:cy="-377.61789"
     inkscape:document-units="mm"
     inkscape:current-layer="layer1"
     showgrid="false"
     fit-margin-top="0"
     fit-margin-left="0"
     fit-margin-right="0"
     fit-margin-bottom="0"
     inkscape:window-width="1920"
     inkscape:window-height="1017"
     inkscape:window-x="-8"
     inkscape:window-y="-8"
     inkscape:window-maximized="1" />
  <metadata
     id="metadata18582">
    <rdf:RDF>
      <cc:Work
         rdf:about="">
        <dc:format>image/svg+xml</dc:format>
        <dc:type
           rdf:resource="http://purl.org/dc/dcmitype/StillImage" />
        <dc:title></dc:title>
      </cc:Work>
    </rdf:RDF>
  </metadata>
  <g
     inkscape:label="Layer 1"
     inkscape:groupmode="layer"
     id="layer1"
     transform="translate(0.27181802,-29.400645)">
    <g
       aria-label="𓄽"
       transform="scale(0.26458333)"
       style="font-style:normal;font-variant:normal;font-weight:normal;font-stretch:normal;font-size:192px;line-height:1.25;font-family:sans-serif;-inkscape-font-specification:'sans-serif, Normal';font-variant-ligatures:normal;font-variant-caps:normal;font-variant-numeric:normal;font-feature-settings:normal;text-align:start;letter-spacing:0px;word-spacing:0px;writing-mode:lr-tb;text-anchor:start;fill:#000000;fill-opacity:1;stroke:none"
       id="flowRoot19130">
      <path
         d="m 1.1289062,111.12055 q 6.75,4.5 14.1562498,7.6875 7.5,3.09375 19.5,5.34375 l 6.46875,1.3125 q 0.9375,0.1875 1.96875,0.1875 1.96875,0 4.96875,3.46875 3.09375,3.46875 3.09375,7.21875 0,2.15625 -0.9375,4.40625 -0.9375,2.25 -2.625,4.6875 6.1875,4.96875 8.71875,9.5625 2.625,4.5 2.625,9.46875 0,8.15625 -6.46875,14.34375 -6.375,6.09375 -16.6875,6.09375 -11.0625,0 -19.59375,-6.65625 -8.5312498,-6.75 -8.5312498,-16.6875 l 0.1875,-2.71875 q 0.7500001,-5.90625 5.1562498,-11.15625 4.40625,-5.25 5.25,-5.25 0.84375,0 4.40625,-2.25 3.5625,-2.25 4.59375,-5.625 0,-0.84375 -0.09375,-1.125 -0.09375,-0.375 -0.75,-1.6875 l -8.15625,-3.46875 q -6.46875,-2.625 -11.2499998,-6.28125 -4.7812499,-3.65625 -8.1562499,-8.90625 z M 43.503906,128.8393 q -13.5,-2.15625 -21.46875,-4.59375 -7.875,-2.4375 -14.9062498,-6.09375 2.7187501,2.53125 6.1874998,4.5 3.46875,1.875 7.03125,3.1875 l 3.1875,1.125 q 1.59375,0.65625 3.375,1.59375 1.875,0.84375 2.4375,1.96875 l 0.46875,1.125 q 0.46875,1.21875 0.46875,2.4375 0,3.375 -3.5625,6.75 -3.46875,3.375 -7.5,4.59375 -4.96875,4.96875 -6.75,8.71875 -1.6875,3.75 -1.6875,7.59375 0,8.4375 7.78125,14.34375 7.875,5.90625 17.25,5.90625 8.4375,0 14.34375,-5.15625 5.90625,-5.25 5.90625,-12.375 0,-4.125 -2.15625,-8.0625 -2.15625,-3.9375 -9.28125,-9.65625 v -2.25 q 1.875,-2.25 2.8125,-4.125 0.9375,-1.875 0.9375,-3.75 0,-3.75 -4.875,-7.78125 z"
         id="path19138"
         inkscape:connector-curvature="0" />
    </g>
  </g>
</svg>
