<?xml version="1.0" encoding="UTF-8" standalone="no"?>
<svg
   xmlns:dc="http://purl.org/dc/elements/1.1/"
   xmlns:cc="http://creativecommons.org/ns#"
   xmlns:rdf="http://www.w3.org/1999/02/22-rdf-syntax-ns#"
   xmlns:svg="http://www.w3.org/2000/svg"
   xmlns="http://www.w3.org/2000/svg"
   xmlns:sodipodi="http://sodipodi.sourceforge.net/DTD/sodipodi-0.dtd"
   xmlns:inkscape="http://www.inkscape.org/namespaces/inkscape"
   version="1.0"
   width="496.78415pt"
   height="138.04248pt"
   viewBox="0 0 496.78415 138.04248"
   preserveAspectRatio="xMidYMid meet"
   id="svg12"
   sodipodi:docname="F53.svg"
   inkscape:version="0.92.4 (5da689c313, 2019-01-14)">
  <defs
     id="defs16" />
  <sodipodi:namedview
     pagecolor="#ffffff"
     bordercolor="#666666"
     borderopacity="1"
     objecttolerance="10"
     gridtolerance="10"
     guidetolerance="10"
     inkscape:pageopacity="0"
     inkscape:pageshadow="2"
     inkscape:window-width="1920"
     inkscape:window-height="1017"
     id="namedview14"
     showgrid="false"
     fit-margin-top="0"
     fit-margin-left="0"
     fit-margin-right="0"
     fit-margin-bottom="0"
     inkscape:zoom="0.54295699"
     inkscape:cx="358.65809"
     inkscape:cy="71.416815"
     inkscape:window-x="-8"
     inkscape:window-y="-8"
     inkscape:window-maximized="1"
     inkscape:current-layer="svg12" />
  <metadata
     id="metadata2">
Created by potrace 1.10, written by Peter Selinger 2001-2011
<rdf:RDF>
  <cc:Work
     rdf:about="">
    <dc:format>image/svg+xml</dc:format>
    <dc:type
       rdf:resource="http://purl.org/dc/dcmitype/StillImage" />
    <dc:title></dc:title>
  </cc:Work>
</rdf:RDF>
</metadata>
  <g
     transform="matrix(0.1,0,0,-0.1,645.76414,139.85721)"
     id="g10"
     style="fill:#000000;stroke:none">
    <path
       d="M 690,1088 C 640,1063 516,946 500,909 c -5,-13 -21,-42 -35,-64 -56,-93 -42,-179 43,-264 31,-31 67,-62 79,-70 12,-8 29,-31 38,-50 14,-32 14,-40 1,-71 -18,-43 -45,-73 -96,-105 -35,-22 -51,-25 -131,-25 -54,0 -117,7 -155,17 -59,16 -66,16 -99,0 -32,-15 -35,-20 -35,-62 0,-29 4,-45 13,-46 6,0 149,0 317,0 306,1 420,10 577,47 34,8 73,14 86,14 13,0 43,6 68,14 153,48 292,57 409,27 25,-7 68,-18 95,-26 85,-23 166,-36 265,-45 52,-5 115,-13 140,-19 35,-8 424,-15 643,-11 27,0 28,2 25,42 -2,31 -10,46 -31,62 -27,20 -29,20 -91,3 -91,-24 -230,-23 -287,2 -71,32 -119,92 -119,151 0,26 15,46 93,123 103,101 124,140 113,210 -13,80 -110,210 -219,294 -55,42 -67,47 -112,47 -65,0 -95,-21 -265,-194 -156,-157 -177,-169 -339,-180 -127,-9 -224,2 -291,33 -46,21 -130,94 -185,159 -53,65 -96,104 -158,146 -65,43 -110,49 -167,20 z m 80,-82 c 0,-13 -6,-29 -14,-35 -8,-7 -17,-28 -21,-47 -5,-30 -1,-44 30,-90 36,-54 36,-55 19,-82 -27,-42 -117,-128 -141,-136 -17,-6 -22,-2 -25,16 -3,20 -8,23 -40,20 -34,-2 -38,0 -58,42 l -23,44 24,47 c 44,86 50,95 60,95 5,0 9,6 9,13 0,26 134,137 166,137 8,0 14,-10 14,-24 z m 1363,13 c 70,-37 190,-181 209,-252 10,-39 9,-48 -8,-78 -17,-28 -26,-34 -55,-34 -28,0 -35,-4 -37,-22 -2,-13 -9,-23 -16,-23 -26,0 -128,91 -150,134 -13,27 -13,33 4,67 11,21 24,40 30,44 16,10 12,101 -5,115 -17,14 -20,60 -4,60 6,0 20,-5 32,-11 z M 933,901 c 50,-52 77,-88 77,-102 0,-28 -272,-299 -301,-299 -10,0 -24,10 -30,22 -10,19 -8,25 22,51 83,71 121,112 139,152 27,59 25,75 -10,123 -16,23 -30,51 -30,63 0,23 30,68 45,69 6,0 45,-36 88,-79 z m 1110,48 c 23,-42 22,-55 -13,-99 -16,-21 -30,-49 -30,-64 0,-43 38,-102 111,-171 52,-49 69,-72 67,-88 -5,-36 -34,-31 -96,17 -72,55 -232,237 -232,264 0,20 145,172 164,172 6,0 19,-14 29,-31 z M 1105,730 c 3,-6 40,-26 82,-46 l 76,-35 176,3 c 175,3 176,3 243,35 37,18 69,37 73,43 16,25 52,8 99,-47 69,-81 168,-176 232,-225 33,-24 57,-51 61,-67 3,-14 16,-45 29,-69 39,-70 36,-73 -58,-67 -46,4 -112,12 -148,20 -36,8 -102,21 -147,30 -46,8 -118,22 -160,30 -213,40 -291,40 -453,0 -90,-22 -171,-37 -240,-45 -36,-4 -94,-12 -130,-18 -114,-19 -180,-22 -180,-8 0,7 11,36 25,64 14,29 25,58 25,66 0,14 33,46 143,135 37,30 97,90 133,133 48,56 72,78 89,78 13,0 27,-5 30,-10 z"
       id="path4"
       inkscape:connector-curvature="0" />
    <path
       d="m 612,874 c -44,-31 -13,-115 37,-99 42,13 50,65 15,100 -19,19 -24,19 -52,-1 z"
       id="path6"
       inkscape:connector-curvature="0" />
    <path
       d="m 2185,865 c -31,-30 -31,-46 -2,-73 28,-27 49,-28 70,-4 24,26 21,60 -5,83 -30,24 -34,24 -63,-6 z"
       id="path8"
       inkscape:connector-curvature="0" />
  </g>
  <g
     aria-label="𓃭"
     transform="matrix(2.3151724,0,0,2.3151724,2036.4072,-195.39999)"
     style="font-style:normal;font-variant:normal;font-weight:normal;font-stretch:normal;font-size:192px;line-height:1.25;font-family:sans-serif;-inkscape-font-specification:sans-serif;font-variant-ligatures:normal;font-variant-caps:normal;font-variant-numeric:normal;font-feature-settings:normal;text-align:start;letter-spacing:0px;word-spacing:0px;writing-mode:lr-tb;text-anchor:start;fill:#000000;fill-opacity:1;stroke:none"
     id="flowRoot815">
    <path
       id="path823"
       transform="matrix(0.32394995,0,0,0.32394995,-595.91376,97.04203)"
       style="stroke-width:3.08689666"
       d="m -724.33008,-39.025391 c -12.73345,0 -25.85225,6.173898 -39.35742,18.521485 -13.50517,12.1546548 -20.25781,22.4758835 -20.25781,30.964844 0.19293,0.964654 0.28906,2.316355 0.28906,4.052734 l -7.52539,8.103516 c -5.01621,5.594999 -9.16353,10.99594 -12.44336,16.205078 -3.27983,5.209138 -4.91992,9.358416 -4.91992,12.445312 0,3.472759 1.93044,6.172252 5.78906,8.101563 4.05155,1.92931 8.19888,3.377141 12.44336,4.341797 l 7.23438,2.02539 c 0.38585,5.402069 2.02595,9.164868 4.91992,11.28711 3.08689,1.929309 6.65548,2.894531 10.70703,2.894531 4.43741,0 8.49056,-1.543963 12.15625,-4.63086 0.19293,3.858621 0.48132,7.717551 0.86719,11.576172 0.57879,3.858621 1.54401,7.523335 2.89453,10.996094 -3.27983,3.665685 -6.56002,7.620755 -9.83985,11.865235 -3.27982,4.24448 -7.23489,7.33241 -11.86523,9.26172 h -66.56055 c -1.54345,-3.27983 -3.66615,-5.59675 -6.36719,-6.94727 -2.70103,-1.54345 -5.49861,-2.31445 -8.39257,-2.31445 -2.89397,0 -5.59542,0.57874 -8.10352,1.73633 -2.5081,0.96465 -4.72694,2.31635 -6.65625,4.05273 -1.92931,1.73638 -3.47327,3.761 -4.63086,6.07617 -1.15758,2.12225 -1.73633,4.34108 -1.73633,6.65625 0,2.50811 0.67683,5.01729 2.02735,7.52539 1.54345,2.50811 3.95454,4.91921 7.23437,7.23438 1.54345,0.96475 2.6048,1.5434 3.1836,1.73633 0.77172,0.19293 1.35046,0.28906 1.73632,0.28906 h 124.43946 c 0.38586,-0.19293 0.86847,-0.48328 1.44726,-0.86914 0.77173,-0.19293 1.64082,-0.48133 2.60547,-0.86719 l 29.51758,-29.51953 c 8.29603,3.27983 16.49651,5.69288 24.59961,7.23633 8.29603,1.54345 16.49456,2.31445 24.59765,2.31445 18.71432,0 39.06838,-3.28019 61.0625,-9.83984 21.99414,-6.55966 38.58735,-9.83985 49.77735,-9.83985 1.27644,0 2.54683,0.0418 3.8125,0.11719 -2.2202,-2.9017 13.97225,-2.42545 6.91992,-5.742186 -0.39964,-0.187953 -0.78599,-0.408984 -1.19727,-0.568359 -0.1846,-0.01349 -0.27163,-0.01308 -0.5625,-0.04297 -0.073,-0.0075 0.002,-0.02038 0.11329,-0.02734 0.11093,-0.007 0.25683,-0.0064 0.32617,0.01758 0.0422,0.01462 0.0815,0.03661 0.12304,0.05273 1.33612,0.09765 0.439,-0.12479 2.89063,0.568359 0.036,0.01013 -0.0741,0.0077 -0.11133,0.01172 0.41826,0.132293 0.83565,0.26614 1.25391,0.398438 0.066,0.04672 0.1222,0.113963 0.19922,0.138671 0.43376,0.139162 0.89258,0.190938 1.32031,0.347657 2.97112,2.90591 6.41723,0.974256 9.73047,3.54493 1.12926,0.0655 2.12237,0.24589 3.27929,0.88281 0.0179,1.10462 -0.0358,0.26865 2.69336,1.31641 0.3245,0.12457 -0.63516,-0.29454 -0.91406,-0.50195 -0.16556,-0.12312 0.37721,0.16646 0.56836,0.24414 1.13852,0.46264 1.04062,0.40993 2.26758,0.83593 0.049,0.0198 0.0794,0.0319 0.12695,0.0508 0.78669,-0.007 1.56509,0.0994 2.32227,0.34179 1.05535,0.0861 2.56514,0.56335 2.99219,0.90821 0.11066,0.0893 -0.27734,-0.0624 -0.41602,-0.0937 0.45527,0.13173 0.6132,0.19087 0.66992,0.22461 0.21084,0.0304 0.27012,0.0317 0.75,0.11328 0.2555,0.0434 0.50589,0.11718 0.75586,0.18554 0.14905,0.0408 0.53078,0.0165 0.44141,0.14258 -0.015,0.0211 -0.0393,0.0283 -0.0586,0.043 0.42714,-0.0848 0.85453,-0.17058 1.28711,-0.1582 1.55419,0.0445 2.13961,0.30319 3.41407,0.99609 0.0478,0.026 0.13651,0.072 0.21093,0.10938 0.0953,0.0112 0.12274,0.004 0.24024,0.0195 0.33216,0.0446 0.65905,0.12672 0.98828,0.18945 0.128,0.0405 0.2526,0.0974 0.38476,0.12109 3.42906,0.61438 -0.21784,-0.17916 2.9668,0.54883 3.45517,0.63084 2.82819,0.51295 2.23438,0.41016 -22.14649,-5.23248 -2.23438,-0.41016 -41.89455,-14.716804 -2.89397,-0.578947 -5.9819,-0.867187 -9.26172,-0.867187 -11.7688,0 -29.4214,3.37632 -52.95899,10.128901 -23.15172,6.75259 -42.34829,10.12891 -57.58984,10.12891 -16.785,0 -33.57047,-3.37632 -50.35547,-10.12891 l -4.33984,0.86719 c -5.01621,5.20914 -10.12876,10.32168 -15.3379,15.33789 l -15.6289,15.62695 h -121.54688 c -4.05155,-1.92931 -6.07617,-4.34041 -6.07617,-7.23437 0,-2.12225 1.15749,-4.24495 3.47266,-6.36719 2.5081,-2.31517 5.40181,-3.47266 8.68164,-3.47266 2.70103,0 4.72761,1.25557 6.07812,3.76367 l 1.44727,3.47266 3.76172,2.31445 h 68.875 c 6.75258,0 13.98783,-4.72606 21.70508,-14.17968 3.85862,-4.82328 8.29629,-10.03391 13.3125,-15.628905 5.20913,-5.787931 10.99655,-11.961829 17.36328,-18.521484 6.36672,-6.559656 12.54062,-12.152859 18.52148,-16.783204 5.98086,-4.630343 12.05863,-8.393143 18.23242,-11.287109 6.1738,-2.893965 12.44383,-4.920539 18.81055,-6.078125 6.55966,-1.350517 13.60264,-2.025391 21.12695,-2.02539 14.2769,2.893964 28.55319,5.401196 42.83008,7.523437 14.2769,2.122241 28.84353,3.183594 43.69922,3.183594 h 17.36328 l 8.39259,3e-6 c 88.79491,-10.707099 53.62408,-9.946783 0,-9.548834 l -8.9707,0.578125 h -12.44532 c -14.66275,0 -29.32552,-0.965221 -43.98828,-2.894532 -14.66276,-2.122241 -29.22743,-4.629472 -43.69726,-7.523437 l -17.6543,-26.9140626 c -9.26069,-14.0839658 -19.38965,-25.4665404 -30.38672,-34.1484374 -10.80414,-8.681897 -22.28284,-13.023438 -34.4375,-13.023438 z m 232.89649,148.417971 c -0.32539,-0.0559 -0.37673,-0.0583 0.0527,0.0332 -0.017,-0.0106 -0.0338,-0.0226 -0.0508,-0.0332 h -0.002 z M -724.61914,-29.763672 c 10.41828,0 20.44915,3.856977 30.0957,11.574219 9.83949,7.717241 19.48779,18.90756007 28.94141,33.570312 l 12.44336,19.679688 c -6.55966,0.385862 -12.54129,1.156867 -17.94336,2.314453 -5.20914,1.157586 -9.74294,2.509286 -13.60156,4.052734 -7.91018,3.279828 -18.42366,10.320862 -31.54297,21.125 l -27.78321,27.783204 c -0.77172,-3.086897 -1.35046,-7.041959 -1.73632,-11.865235 -0.19293,-2.122241 -0.28907,-4.341077 -0.28907,-6.65625 v -7.236328 c 8.87483,-2.315172 16.68882,-7.619981 23.44141,-15.916016 7.13845,-8.296034 10.70703,-16.7849 10.70703,-25.466797 0,-4.437412 -1.06135,-8.778954 -3.18359,-13.023437 4.05155,-0.7717242 7.524,-3.0866917 10.41797,-6.9453125 2.89396,-3.85862075 4.34179,-8.2962925 4.34179,-13.3125005 0,-0.964654 -0.19226,-2.410533 -0.57812,-4.339843 -5.01621,-3.472759 -9.35775,-5.208985 -13.02344,-5.208985 -5.01621,0 -9.84036,2.989841 -14.4707,8.970704 -2.12224,-1.73638 -4.53334,-3.376474 -7.23438,-4.919922 -2.70103,-1.543449 -5.69087,-2.700932 -8.9707,-3.472657 l -5.20899,-1.158203 c 3.66569,-2.701034 7.62076,-4.91987 11.86524,-6.65625 4.43741,-1.92931 8.87509,-2.892578 13.3125,-2.892578 z m -35.30664,18.230469 h 2.02539 c 5.40207,0 9.93587,0.772958 13.60156,2.3164061 3.66569,1.3505173 7.81302,4.3403582 12.44336,8.97070315 l 8.39258,-0.86718745 c 1.15759,-2.3151725 2.60542,-4.1494829 4.3418,-5.5 1.92931,-1.3505173 4.14814,-2.5080006 6.65625,-3.4726568 l 2.60351,1.1582036 c -0.96465,6.1737932 -4.53324,9.74237607 -10.70703,10.7070313 l -2.89453,0.2890625 -2.89258,8.1035156 c 1.92931,2.122241 3.27906,4.244947 4.05078,6.367187 0.96466,2.122242 1.44727,4.533341 1.44727,7.234376 0,2.701033 -0.48261,5.306349 -1.44727,7.814453 -0.96465,2.315172 -2.21827,4.534008 -3.76172,6.65625 -1.35051,2.122241 -2.79834,4.05073 -4.34179,5.787109 -1.54345,1.736379 -2.98933,3.280342 -4.33985,4.630859 -0.77172,0.578793 -2.02729,1.44593 -3.76367,2.603516 -1.54345,0.964655 -3.6642,2.220224 -6.36523,3.763672 l -9.83985,4.628906 c -1.54345,2.701035 -3.3758,4.919871 -5.49804,6.65625 -1.92931,1.736379 -3.95589,3.376474 -6.07813,4.919922 -2.12224,0 -4.24494,-0.674873 -6.36719,-2.025391 -0.57894,-1.157586 -0.86718,-2.31507 -0.86718,-3.472656 2.70103,-0.578793 4.91987,-2.41115 6.65625,-5.498047 1.92931,-3.279827 3.95393,-5.789011 6.07617,-7.52539 l 5.20898,2.027343 4.05274,-4.919922 c -4.24449,-3.279826 -7.52467,-4.919921 -9.83985,-4.919921 -2.5081,0 -4.72694,1.157483 -6.65625,3.472656 -1.73638,2.315172 -4.43782,5.11275 -8.10351,8.392578 -0.77173,0.385862 -1.63886,0.578125 -2.60352,0.578125 l -10.99805,-2.603516 c -2.89395,-0.771724 -5.97993,-2.219556 -9.25976,-4.341796 0.57879,-2.315173 1.83241,-4.920488 3.76172,-7.814454 1.92931,-2.893965 4.14814,-5.883806 6.65625,-8.970703 2.12224,-2.701034 4.43721,-5.306349 6.94531,-7.814453 l 6.94531,-6.945312 v -1.736328 c 0.19303,-0.771725 0.3852,-1.638861 0.57813,-2.603516 -0.19303,-0.771724 -0.3852,-1.446598 -0.57813,-2.025391 v -1.736328 c 0,-2.7010281 0.96522,-5.4986124 2.89453,-8.392578 2.12225,-3.0868966 4.05073,-5.5960802 5.78711,-7.5253906 z m -5.49805,24.310547 -1.73633,4.919922 c 0.5788,2.701034 1.44593,4.050781 2.60352,4.050781 1.35052,0 3.37709,-1.92849 6.07812,-5.787109 l -2.89453,-1.447266 c -1.15758,-0.578793 -2.50733,-1.157535 -4.05078,-1.736328 z m 245.43555,89.640626 c 0.2916,0.005 0.5554,0.0131 0.82422,0.0215 -0.001,-0.001 -0.002,-0.003 -0.004,-0.004 -0.25365,-0.10222 -0.54699,-0.0288 -0.82022,-0.0175 z"
       inkscape:connector-curvature="0"
       sodipodi:nodetypes="cccccssccccscccccccscscscccscccccsssccccccccccccccccccccccccccccccccccccscscccccscscccsccsssccssccccscccccccccccsccccccccsccsccscscccccscsccccccccccsccsccccccccccccscccccscsccccscccccsccccccc" />
  </g>
  <g
     aria-label="𓃭"
     transform="matrix(-2.3151724,0,0,2.3151724,-1539.6223,-195.39999)"
     style="font-style:normal;font-variant:normal;font-weight:normal;font-stretch:normal;font-size:192px;line-height:1.25;font-family:sans-serif;-inkscape-font-specification:sans-serif;font-variant-ligatures:normal;font-variant-caps:normal;font-variant-numeric:normal;font-feature-settings:normal;text-align:start;letter-spacing:0px;word-spacing:0px;writing-mode:lr-tb;text-anchor:start;fill:#ff0000;fill-opacity:1;stroke:none"
     id="flowRoot815-1">
    <path
       id="path823-3"
       transform="matrix(-0.32394995,0,0,0.32394995,-965.53777,96.39413)"
       style="fill:#000000;stroke-width:3.08689666"
       d="m -416.66016,-37.025391 c -12.15465,0 -23.63531,4.341541 -34.43945,13.023438 -10.99707,8.681897 -21.12603,20.064472 -30.38672,34.148437 l -17.65234,26.914063 c -14.46983,2.893965 -29.03646,5.401196 -43.69922,7.523437 -14.66276,1.929311 -29.32552,2.894532 -43.98828,2.894532 h -3.15039 c -0.62651,1.035767 -1.57018,2.330829 -3.26563,5.236328 -0.14055,0.24087 -0.80841,1.366268 -1.33398,2.273437 -0.0291,0.149463 -0.0809,0.363637 -0.0996,0.482422 -1.03589,1.526779 -0.57784,0.686899 0.0996,-0.482422 0.34757,-1.784012 1.31213,-5.388183 0.62695,-4.126953 -0.96274,1.77215 -1.6495,3.670226 -2.29492,5.587891 h 13.75976 c 14.85569,0 29.42233,-1.061353 43.69922,-3.183594 14.2769,-2.122241 28.55319,-4.629473 42.83008,-7.523437 7.52431,0 14.56535,0.674873 21.125,2.02539 6.36673,1.157586 12.63676,3.18416 18.81055,6.078125 6.17379,2.893966 12.25156,6.656766 18.23242,11.287109 5.98086,4.630345 12.15476,10.223548 18.52149,16.783204 6.36671,6.559655 12.15414,12.733553 17.36328,18.521484 5.0162,5.595 9.45388,10.80563 13.3125,15.62891 7.71724,9.45362 14.95249,14.17968 21.70507,14.17968 h 68.87696 l 3.76172,-2.31445 1.44726,-3.47266 c 1.35052,-2.5081 3.37709,-3.76367 6.07813,-3.76367 3.27982,0 6.17353,1.15749 8.68164,3.47266 2.31517,2.12224 3.47265,4.24494 3.47265,6.36719 0,2.89396 -2.02657,5.30506 -6.07812,7.23437 h -121.54688 l -15.62695,-15.62695 c -5.20914,-5.01621 -10.32168,-10.12875 -15.33789,-15.33789 l -4.3418,-0.86719 c -16.785,6.75259 -33.56851,10.12891 -50.35351,10.12891 -15.24155,0 -34.43812,-3.37632 -57.58985,-10.12891 -23.53758,-6.752586 -41.19214,-10.128906 -52.96093,-10.128906 -2.75017,0 -5.35533,0.216328 -7.83399,0.623047 0.003,2.098993 0.008,4.197879 -0.0156,6.296879 -3.8e-4,1.17012 0.031,2.34336 0.0566,3.51562 2.85977,-0.39384 5.74644,-0.59766 8.66211,-0.59766 11.19,0 27.78125,3.28019 49.77539,9.83985 21.99414,6.55965 42.34819,9.83984 61.0625,9.83984 8.1031,0 16.30357,-0.771 24.59961,-2.31445 8.1031,-1.54345 16.30162,-3.9565 24.59765,-7.23633 l 29.51953,29.51953 c 0.96466,0.38586 1.8318,0.67426 2.60352,0.86719 0.57879,0.38586 1.0614,0.67621 1.44727,0.86914 h 124.4414 c 0.38586,0 0.96461,-0.0962 1.73633,-0.28906 0.57879,-0.19283 1.64015,-0.77157 3.18359,-1.73633 3.27983,-2.31517 5.69093,-4.72627 7.23438,-7.23438 1.35052,-2.5081 2.02539,-5.01728 2.02539,-7.52539 0,-2.31517 -0.57874,-4.534 -1.73633,-6.65625 -1.15758,-2.31517 -2.70155,-4.33979 -4.63086,-6.07617 -1.92931,-1.73638 -4.14814,-3.08808 -6.65625,-4.05273 -2.5081,-1.15759 -5.2076,-1.73633 -8.10156,-1.73633 -2.89397,0 -5.69154,0.771 -8.39258,2.31445 -2.70103,1.35052 -4.82374,3.66744 -6.36719,6.94727 h -66.56054 c -4.63035,-1.92931 -8.58541,-5.01724 -11.86524,-9.26172 -3.27983,-4.24448 -6.56001,-8.19955 -9.83984,-11.865235 1.35052,-3.472759 2.31378,-7.137473 2.89258,-10.996094 0.38586,-3.858621 0.67621,-7.717551 0.86914,-11.576172 3.66569,3.086897 7.71688,4.63086 12.15429,4.63086 4.05156,0 7.62209,-0.965222 10.70899,-2.894531 2.89396,-2.122242 4.53211,-5.885041 4.91797,-11.28711 l 7.23633,-2.02539 c 4.24448,-0.964656 8.39181,-2.412487 12.44335,-4.341797 3.85863,-1.929311 5.78711,-4.628804 5.78711,-8.101563 0,-3.086896 -1.63814,-7.236174 -4.91796,-12.445312 -3.27983,-5.209138 -7.42911,-10.610079 -12.44532,-16.205078 l -7.52343,-8.103516 c 0,-1.736379 0.0962,-3.08808 0.28906,-4.052734 0,-8.4889605 -6.75264,-18.8101892 -20.25781,-30.964844 -13.50518,-12.347587 -26.62398,-18.521485 -39.35743,-18.521485 z m 0.28907,9.261719 c 4.43741,0 8.87508,0.963268 13.3125,2.892578 4.24448,1.73638 8.19954,3.955216 11.86523,6.65625 l -5.20898,1.158203 c -3.27983,0.771725 -6.27163,1.929208 -8.97266,3.472657 -2.70103,1.543448 -5.11213,3.183542 -7.23438,4.9199215 -4.63033,-5.9808625 -9.45255,-8.9707035 -14.46874,-8.9707035 -3.66569,0 -8.00724,1.736226 -13.02344,5.208985 -0.38586,1.92931 -0.57813,3.3751883 -0.57813,4.3398435 0,5.016207 1.44588,9.4538792 4.33985,13.3125 2.89396,3.8586208 6.36642,6.1735945 10.41796,6.9453125 -2.12223,4.244483 -3.18359,8.586025 -3.18359,13.023437 0,8.681897 3.57054,17.170763 10.70899,25.466797 6.75258,8.296035 14.56657,13.600844 23.4414,15.916016 v 7.236328 c 0,2.315173 -0.0982,4.534009 -0.29101,6.65625 -0.38587,4.823276 -0.96461,8.778338 -1.73633,11.865235 l -27.78125,-27.783204 c -13.11931,-10.804138 -23.63475,-17.845172 -31.54492,-21.125 -3.85862,-1.543448 -8.39243,-2.895148 -13.60157,-4.052734 -5.40207,-1.157586 -11.38175,-1.928591 -17.9414,-2.314453 l 12.44336,-19.679688 c 9.45362,-14.6627519 19.09997,-25.8530707 28.93945,-33.570312 9.64655,-7.717242 19.67938,-11.574219 30.09766,-11.574219 z m 33.28125,18.2304689 h 2.02539 l 6.07617,6.3671875 c 1.73638,1.9293104 3.66682,4.438494 5.78906,7.5253906 1.92931,2.8939656 2.89258,5.69155 2.89258,8.392578 v 1.736328 c -0.19283,0.578793 -0.38509,1.253667 -0.57813,2.025391 0.19283,0.964655 0.3851,1.831791 0.57813,2.603516 v 1.736328 l 6.94726,6.945312 c 2.50811,2.508104 4.82308,5.113419 6.94532,7.814453 2.5081,3.086897 4.72694,6.076738 6.65625,8.970703 1.92931,2.893966 3.18292,5.499281 3.76172,7.814454 -3.27983,2.12224 -6.36776,3.570072 -9.26172,4.341796 l -10.9961,2.603516 c -0.96465,0 -1.83374,-0.192263 -2.60547,-0.578125 -3.66567,-3.279828 -6.36518,-6.077406 -8.10156,-8.392578 -1.92931,-2.315173 -4.14814,-3.472656 -6.65625,-3.472656 -2.31517,0 -5.59536,1.640095 -9.83984,4.919921 l 4.05078,4.919922 5.20898,-2.027343 c 2.12225,1.736379 4.14882,4.245563 6.07813,7.52539 1.73638,3.086897 3.95521,4.919254 6.65625,5.498047 0,1.157586 -0.29035,2.31507 -0.86914,3.472656 -2.12224,1.350518 -4.24299,2.025391 -6.36524,2.025391 -2.12224,-1.543448 -4.14881,-3.183543 -6.07812,-4.919922 -2.12224,-1.736379 -3.9546,-3.955215 -5.49805,-6.65625 l -9.83984,-4.628906 c -2.70104,-1.543448 -4.82374,-2.799017 -6.36719,-3.763672 -1.73638,-1.157586 -2.98999,-2.024723 -3.76172,-2.603516 -1.35051,-1.350517 -2.79835,-2.89448 -4.34179,-4.630859 -1.54345,-1.736379 -2.98933,-3.664868 -4.33985,-5.787109 -1.54345,-2.122242 -2.79706,-4.341078 -3.76172,-6.65625 -0.96465,-2.508104 -1.44726,-5.11342 -1.44726,-7.814453 0,-2.701035 0.48261,-5.112134 1.44726,-7.234376 0.77173,-2.12224 2.12147,-4.244946 4.05078,-6.367187 l -2.89453,-8.1035156 -2.89453,-0.2890625 c -6.17379,-0.9646552 -9.74237,-4.53323805 -10.70703,-10.7070313 l 2.60547,-1.1582031 c 2.5081,0.9646552 4.72694,2.122139 6.65625,3.4726563 1.73638,1.3505171 3.18226,3.1848275 4.33984,5.49999995 l 8.39258,0.86718745 c 4.63035,-4.6303448 8.77962,-7.6201858 12.44531,-8.9707031 3.66569,-1.5434483 8.1995,-2.3164062 13.60157,-2.3164062 z m 7.52343,24.3105471 c -1.54344,0.578793 -2.89319,1.157535 -4.05078,1.736328 l -2.89453,1.447266 c 2.70104,3.858619 4.72566,5.787109 6.07617,5.787109 1.15759,0 2.02668,-1.349747 2.60547,-4.050781 z"
       inkscape:connector-curvature="0"
       sodipodi:nodetypes="cccccscccccccssccsscccscccscscccccscscccssscccccscccscscscccscccsccccscccccccscccscscsccsccsccccccccsscccsccccccscccccscccccccccccccccsccccccccccscccscc" />
  </g>
</svg>
