<?xml version="1.0" encoding="UTF-8" standalone="no"?>
<svg
   xmlns:dc="http://purl.org/dc/elements/1.1/"
   xmlns:cc="http://creativecommons.org/ns#"
   xmlns:rdf="http://www.w3.org/1999/02/22-rdf-syntax-ns#"
   xmlns:svg="http://www.w3.org/2000/svg"
   xmlns="http://www.w3.org/2000/svg"
   xmlns:sodipodi="http://sodipodi.sourceforge.net/DTD/sodipodi-0.dtd"
   xmlns:inkscape="http://www.inkscape.org/namespaces/inkscape"
   version="1.0"
   width="375.03598pt"
   height="614.15765pt"
   viewBox="0 0 375.03598 614.15766"
   preserveAspectRatio="xMidYMid meet"
   id="svg8"
   sodipodi:docname="F54.svg"
   inkscape:version="0.92.4 (5da689c313, 2019-01-14)">
  <defs
     id="defs12" />
  <sodipodi:namedview
     pagecolor="#ffffff"
     bordercolor="#666666"
     borderopacity="1"
     objecttolerance="10"
     gridtolerance="10"
     guidetolerance="10"
     inkscape:pageopacity="0"
     inkscape:pageshadow="2"
     inkscape:window-width="1920"
     inkscape:window-height="1017"
     id="namedview10"
     showgrid="false"
     fit-margin-top="0"
     fit-margin-left="0"
     fit-margin-right="0"
     fit-margin-bottom="0"
     inkscape:zoom="0.28380476"
     inkscape:cx="335.27696"
     inkscape:cy="454.96586"
     inkscape:window-x="-8"
     inkscape:window-y="-8"
     inkscape:window-maximized="1"
     inkscape:current-layer="svg8" />
  <metadata
     id="metadata2">
Created by potrace 1.10, written by Peter Selinger 2001-2011
<rdf:RDF>
  <cc:Work
     rdf:about="">
    <dc:format>image/svg+xml</dc:format>
    <dc:type
       rdf:resource="http://purl.org/dc/dcmitype/StillImage" />
    <dc:title></dc:title>
  </cc:Work>
</rdf:RDF>
</metadata>
  <g
     transform="matrix(0.1,0,0,-0.1,1231.9379,846.56277)"
     id="g6"
     style="fill:#000000;stroke:none">
    <path
       d="m 2129,4082 c -72,-49 -89,-86 -89,-200 0,-98 -9,-123 -37,-106 -10,6 -23,21 -29,34 -7,12 -31,42 -55,66 -43,44 -43,44 -115,44 -68,0 -73,-2 -114,-37 -40,-37 -42,-42 -60,-141 l -19,-103 -238,-232 C 861,2909 917,2969 918,2916 c 0,-26 6,-55 14,-64 8,-9 24,-37 36,-62 13,-25 36,-67 52,-95 30,-51 31,-83 5,-115 -6,-8 -15,-22 -19,-30 -3,-8 -14,-27 -24,-42 -34,-53 -106,-174 -120,-201 -19,-37 -36,-43 -75,-24 -91,44 -123,52 -201,52 -55,0 -91,-5 -111,-16 -95,-51 -105,-53 -138,-40 -47,19 -97,32 -141,38 -33,5 -41,2 -62,-23 -60,-74 -11,-142 126,-174 19,-4 50,-13 68,-20 43,-16 84,-9 168,30 57,27 76,31 116,27 26,-3 57,-12 70,-20 13,-8 47,-23 76,-33 45,-16 58,-16 95,-5 23,7 79,19 124,28 147,29 149,5 11,-100 -96,-73 -172,-132 -208,-160 -8,-7 -62,-48 -120,-92 -172,-130 -240,-215 -240,-300 0,-57 36,-111 92,-139 20,-10 31,-27 58,-86 12,-26 56,-42 92,-32 24,6 39,19 54,48 19,36 25,40 75,47 30,5 106,7 169,4 101,-3 120,-7 153,-28 50,-32 56,-60 72,-309 13,-212 17,-232 67,-340 17,-36 37,-81 45,-100 8,-19 21,-48 29,-63 8,-16 14,-34 14,-40 0,-7 16,-35 36,-64 39,-56 78,-74 128,-57 14,5 92,75 173,155 221,218 330,306 528,426 36,22 159,81 203,97 104,39 129,51 160,80 48,45 43,72 -27,164 -108,141 -234,250 -432,377 -33,20 -149,117 -149,123 0,4 -17,25 -38,47 -20,23 -43,50 -49,60 -30,48 -70,143 -83,195 -5,19 -12,45 -15,58 -9,28 7,29 82,5 47,-15 60,-15 101,-4 26,8 63,17 82,22 19,4 56,15 82,24 45,16 49,16 90,-3 61,-29 134,-52 164,-52 54,0 161,35 214,70 60,40 70,62 50,111 -23,55 -108,61 -203,13 -36,-18 -62,-18 -95,0 -37,19 -101,43 -136,51 -45,10 -13,25 54,25 43,0 59,5 72,20 28,32 58,97 58,126 0,15 6,50 14,78 8,28 22,87 31,131 9,44 23,105 30,135 34,144 45,196 45,212 0,45 31,93 75,117 53,28 105,83 105,111 0,10 5,22 10,25 6,3 10,19 10,35 0,16 -4,32 -10,35 -5,3 -10,14 -10,23 0,51 -119,122 -204,122 -30,0 -58,5 -61,10 -12,20 25,59 82,87 107,52 158,134 131,211 -15,45 -34,70 -70,88 -16,8 -28,21 -28,30 0,8 -23,37 -50,65 l -50,50 -80,-2 c -62,-1 -84,2 -98,15 -25,22 -100,21 -133,-2 z m 249,-174 c 7,-7 12,-32 12,-56 0,-30 5,-49 17,-57 21,-15 11,-42 -21,-56 -20,-10 -33,-7 -81,17 -66,33 -119,79 -110,94 3,5 25,10 49,10 34,0 48,6 71,30 31,33 45,36 63,18 z m -518,-212 c 39,-82 35,-89 -221,-361 -99,-105 -148,-160 -149,-166 0,-3 -10,-17 -21,-30 -12,-13 -33,-42 -47,-64 -19,-30 -215,-295 -239,-325 -5,-5 -52,51 -53,63 0,4 -10,21 -21,37 -15,19 -20,36 -15,53 3,14 143,159 336,348 355,347 352,343 348,441 -1,27 3,53 11,62 13,15 15,15 32,0 10,-9 28,-35 39,-58 z m 361,-39 c 37,-20 45,-29 47,-57 2,-18 -1,-37 -6,-42 -10,-10 -100,31 -135,60 -16,15 -16,17 5,39 27,29 34,29 89,0 z m -102,-183 c 62,-31 115,-63 118,-71 3,-8 -1,-31 -10,-51 -8,-20 -23,-64 -32,-97 -10,-33 -23,-76 -30,-95 -7,-19 -20,-60 -29,-90 -32,-110 -58,-186 -82,-240 -14,-30 -32,-70 -40,-87 -7,-18 -22,-50 -31,-70 -9,-21 -22,-51 -29,-68 -99,-233 -134,-295 -168,-295 -46,0 -51,14 -26,67 33,68 38,158 12,209 -23,45 -60,81 -117,114 -34,19 -55,23 -135,23 -91,1 -97,0 -145,-32 -60,-39 -87,-77 -105,-148 -14,-52 -10,-83 21,-204 15,-60 12,-69 -23,-69 -17,0 -54,7 -82,15 -28,8 -64,17 -79,20 -32,6 -45,31 -29,54 13,19 93,145 107,169 6,9 37,54 70,100 33,45 76,104 95,131 40,56 38,54 181,244 59,78 128,165 155,193 234,246 318,334 320,334 1,0 52,-25 113,-56 z m 409,-106 c 23,-23 11,-43 -38,-67 -88,-44 -102,-70 -145,-276 -9,-44 -23,-105 -30,-135 -7,-30 -21,-91 -30,-135 -9,-44 -23,-105 -31,-135 -7,-30 -15,-66 -16,-80 -3,-24 -5,-25 -90,-28 -80,-3 -88,-1 -88,16 0,10 7,27 15,38 8,10 15,25 15,31 0,7 14,43 31,80 50,111 55,125 86,203 41,104 54,139 63,180 4,19 12,46 17,60 6,14 18,52 28,85 28,97 45,143 58,153 24,20 137,28 155,10 z m -919,-784 c 32,-19 61,-67 61,-101 0,-17 -23,-56 -62,-107 -77,-101 -83,-106 -134,-106 -38,0 -43,3 -53,33 -19,52 -32,168 -25,214 5,33 13,47 38,63 39,25 135,27 175,4 z m 510,-233 c 12,-8 8,-11 -15,-17 -16,-4 -42,-13 -57,-21 -37,-19 -51,-8 -30,22 19,26 73,34 102,16 z m -605,-269 c 3,-5 -23,-30 -57,-55 -34,-25 -80,-63 -102,-84 -53,-50 -135,-157 -135,-177 0,-8 -4,-17 -9,-20 -14,-9 -20,-58 -10,-84 10,-25 67,-82 84,-82 5,0 25,-9 44,-21 l 34,-20 -27,-28 c -14,-15 -26,-32 -26,-39 0,-6 -16,-23 -35,-37 l -34,-27 -58,22 c -145,53 -175,60 -272,60 -53,0 -127,-7 -166,-15 -38,-8 -89,-15 -112,-15 -39,0 -43,2 -43,24 0,28 63,96 130,141 25,16 47,32 50,36 19,20 321,241 326,237 2,-3 -1,-17 -7,-32 -15,-33 -2,-66 35,-85 23,-13 30,-12 61,5 30,16 35,24 35,55 0,41 -19,63 -65,74 l -30,7 40,35 c 53,46 131,96 180,116 42,17 160,23 169,9 z m 102,-128 c -7,-27 -138,-206 -172,-235 -23,-20 -83,-41 -95,-33 -12,7 -11,41 1,46 5,2 26,26 47,54 39,52 196,194 215,194 6,0 8,-10 4,-26 z m 133,-204 c 31,-55 174,-189 309,-289 131,-99 322,-274 322,-297 0,-8 -10,-18 -22,-23 -13,-5 -43,-16 -68,-26 -57,-21 -111,-45 -130,-56 -8,-5 -24,-14 -35,-19 -11,-6 -33,-19 -50,-30 -16,-11 -37,-23 -45,-27 -17,-8 -148,-106 -199,-149 -115,-98 -222,-200 -289,-277 -33,-39 -59,-45 -72,-17 -35,74 -78,182 -105,264 -21,64 -24,92 -27,278 l -3,207 31,33 c 17,18 45,64 63,102 l 32,68 -25,38 c -26,40 -25,50 6,50 27,0 119,63 160,108 19,21 44,59 57,85 23,47 23,47 46,29 13,-9 33,-33 44,-52 z"
       id="path4"
       inkscape:connector-curvature="0" />
  </g>
  <g
     aria-label="𓄾"
     transform="matrix(4.7830819,0,0,4.7830819,8820.1149,-46.979309)"
     style="font-style:normal;font-variant:normal;font-weight:normal;font-stretch:normal;font-size:192px;line-height:1.25;font-family:sans-serif;-inkscape-font-specification:sans-serif;font-variant-ligatures:normal;font-variant-caps:normal;font-variant-numeric:normal;font-feature-settings:normal;text-align:start;letter-spacing:0px;word-spacing:0px;writing-mode:lr-tb;text-anchor:start;fill:#000000;fill-opacity:1;stroke:none"
     id="flowRoot4519">
    <path
       d="m -1799.7734,94.536561 c -0.3125,0.3125 -0.7813,0.6875 -1.4063,1.125 -0.625,0.4375 -1.1875,0.78125 -1.6875,1.03125 0,0.4375 -0.031,0.8125 -0.094,1.125 0,1.25 -0.5625,3.031249 -1.6875,5.343749 -0.5625,1.1875 -1.1875,2.09375 -1.875,2.71875 -0.6875,0.5625 -1.4688,1 -2.3438,1.3125 v 1.5 c 0,0.5625 -0.031,1.0625 -0.094,1.5 0,3.625 0.5937,7.5625 1.7812,11.8125 1.25,4.1875 3,8.4375 5.25,12.75 4.625,-5.375 9.4688,-9.8125 14.5313,-13.3125 5.125,-3.5625 10.9687,-6.46875 17.5312,-8.71875 -2.3125,-3.75 -6.2187,-7.15625 -11.7187,-10.21875 -5.5625,-3.187499 -8.9375,-6.031249 -10.125,-8.531249 -1.25,-2.5 -2.4688,-4.1875 -3.6563,-5.0625 l -1.6875,1.6875 -1.5937,2.71875 z m -2.8125,-9 -4.5938,-1.59375 -8.3437,4.40625 c -1.8125,0.9375 -3.5625,1.96875 -5.25,3.09375 -1.625,1.0625 -3.2188,2.21875 -4.7813,3.46875 -3,2.5625 -4.6562,5.406249 -4.9687,8.531249 0.3125,0.375 0.7812,0.59375 1.4062,0.65625 0.625,0.0625 1.1563,0.0937 1.5938,0.0937 1,-0.5625 2,-1.0625 3,-1.5 1.0625,-0.5 2.0625,-0.75 3,-0.75 0.875,0 2.4375,0.34375 4.6875,1.03125 2.375,0.6875 4.3125,1.03125 5.8125,1.03125 1.75,0 2.9687,-0.625 3.6562,-1.875 0.75,-1.25 1.2188,-2.71875 1.4063,-4.406249 -0.3125,0.125 -0.6563,0.21875 -1.0313,0.28125 -0.375,0 -0.75,0.03125 -1.125,0.09375 -0.4375,0.0625 -0.875,0.09375 -1.3125,0.09375 l -1.4062,-1.78125 c 0.3125,-0.9375 0.6562,-1.84375 1.0312,-2.71875 0.3125,-0.75 0.6875,-1.5 1.125,-2.25 0.4375,-0.8125 0.9063,-1.46875 1.4063,-1.96875 0.8125,-0.8125 1.5312,-1.40625 2.1562,-1.78125 0.625,-0.4375 1.2188,-0.8125 1.7813,-1.125 z m 4.4062,1.6875 -1.4062,-0.5625 -0.75,1.125 c -0.8125,1.1875 -1.875,2.0625 -3.1875,2.625 -1.3125,0.5625 -2.3438,1.71875 -3.0938,3.46875 l -0.4687,1.125 c 0.6875,0 1.375,-0.125 2.0625,-0.375 0.6875,-0.3125 1.3125,-0.6875 1.875,-1.125 0.5625,-0.4375 1.0312,-0.875 1.4062,-1.3125 0.4375,-0.4375 0.75,-0.8125 0.9375,-1.125 0.6875,-1.25 1.0938,-2 1.2188,-2.25 0.1875,-0.3125 0.3125,-0.5 0.375,-0.5625 z m -13.125,2.53125 c -1.0625,1.0625 -1.8125,1.59375 -2.25,1.59375 -0.4375,0 -0.6562,-0.40625 -0.6562,-1.21875 0,-0.9375 0.2812,-1.40625 0.8437,-1.40625 0.5,0 1.1875,0.34375 2.0625,1.03125 z m 0.8438,-7.3125 c -0.3125,0 -0.625,-0.09375 -0.9375,-0.28125 -0.3125,-0.125 -0.6875,-0.28125 -1.125,-0.46875 -0.4375,-0.25 -1,-0.53125 -1.6875,-0.84375 -1.5,0.75 -2.9063,1.25 -4.2188,1.5 -1.3125,0.25 -2.5625,0.375 -3.75,0.375 -1.1875,0 -2.4375,-0.1875 -3.75,-0.5625 -1.3125,-0.375 -2.6875,-0.8125 -4.125,-1.3125 -2.25,0.375 -4.4062,0.5625 -6.4687,0.5625 h -1.0313 c -0.3125,0 -0.625,-0.03125 -0.9375,-0.09375 -2.625,-0.0625 -4.4687,-1.875 -5.5312,-5.4375 2.5625,1.5 4.7812,2.4375 6.6562,2.8125 0.5625,0.1875 1.1563,0.28125 1.7813,0.28125 1.4375,0 3.2812,-0.34375 5.5312,-1.03125 1.4375,0.5 2.7813,0.90625 4.0313,1.21875 1.25,0.3125 2.4062,0.46875 3.4687,0.46875 1.0625,0 2.2813,-0.09375 3.6563,-0.28125 1.375,-0.1875 2.9375,-0.53125 4.6875,-1.03125 1.3125,0 2.7812,0.5 4.4062,1.5 1.625,1 3.0938,1.5 4.4063,1.5 0.5,-0.3125 1.1562,-0.65625 1.9687,-1.03125 0.875,-0.4375 1.9063,-0.90625 3.0938,-1.40625 3.75,1.3125 6.7187,1.96875 8.9062,1.96875 0.5625,-0.0625 2.125,-0.625 4.6875,-1.6875 1.875,-0.8125 3.2813,-1.21875 4.2188,-1.21875 1.5,0.5 2.875,0.84375 4.125,1.03125 1.25,0.1875 2.375,0.28125 3.375,0.28125 1.8125,0 4.2812,-0.78125 7.4062,-2.34375 -1,3.3125 -2.9687,4.96875 -5.9062,4.96875 -1.5,0 -3,-0.09375 -4.5,-0.28125 l -4.5,-0.75 c -1.8125,0 -4.4375,0.875 -7.875,2.625 h -2.4375 c -0.875,0 -1.8438,-0.03125 -2.9063,-0.09375 l -4.125,-1.3125 -2.1562,0.9375 c 1.75,0.25 3.3125,0.71875 4.6875,1.40625 1.375,0.625 2.5625,1.34375 3.5625,2.15625 1.0625,0.75 1.9062,1.5625 2.5312,2.4375 0.625,0.8125 1.0938,1.5625 1.4063,2.25 1.25,2.75 4.875,5.84375 10.875,9.281249 6,3.3125 10.25,7.5 12.75,12.5625 l -1.0313,1.96875 c -6.1875,1.9375 -11.6562,4.34375 -16.4062,7.21875 -4.6875,2.875 -9.0938,6.46875 -13.2188,10.78125 -4.6875,5.15625 0,0 -4.6875,5.15625 h -0.9375 c -0.4375,0 -0.8125,-0.0312 -1.125,-0.0937 -3,-6 -5.1562,-11.21875 -6.4687,-15.65625 -1.3125,-4.4375 -1.9688,-8.5625 -1.9688,-12.375 v -1.59375 c 0.063,-0.5625 0.1252,-1.09375 0.1875,-1.59375 -2.0625,0 -3.9062,-0.34375 -5.5312,-1.03125 -1.5625,-0.6875 -2.8125,-1.03125 -3.75,-1.03125 -0.3125,0 -0.6875,0.0937 -1.125,0.28125 -0.375,0.125 -0.7813,0.28125 -1.2188,0.46875 -0.5,0.25 -1,0.46875 -1.5,0.65625 v 0.375 0.5625 c 0,0.1875 0.031,0.40625 0.094,0.65625 0,1.5 -0.25,2.25 -0.75,2.25 -0.5,0 -0.9375,-1 -1.3125,-3 -0.5,0.125 -0.9063,0.1875 -1.2188,0.1875 -1.25,0 -2.4687,-0.34375 -3.6562,-1.03125 -1.125,-0.75 -1.6875,-1.71875 -1.6875,-2.90625 0,-1.25 0.25,-2.5 0.75,-3.749999 0.5625,-1.3125 1.2812,-2.5625 2.1562,-3.75 0.9375,-1.1875 2,-2.3125 3.1875,-3.375 1.1875,-1.0625 2.4375,-2 3.75,-2.8125 0.75,-0.5 1.8438,-1.125 3.2813,-1.875 1.5,-0.8125 2.9687,-1.625 4.4062,-2.4375 1.6875,-0.9375 3.5313,-1.90625 5.5313,-2.90625 z"
       id="path4527"
       inkscape:connector-curvature="0"
       sodipodi:nodetypes="cscccccsccccccccccccccccccccscsccccccccccccccccccccccccccsssccccccsccsscccscssscsccccccsscscccscccccccccccccsccscccsccccscscscscccccccc" />
  </g>
  <g
     aria-label="𓋚"
     transform="matrix(2.82914,0,0,2.82914,6025.9122,-845.9335)"
     style="font-style:normal;font-variant:normal;font-weight:normal;font-stretch:normal;font-size:192px;line-height:1.25;font-family:sans-serif;-inkscape-font-specification:sans-serif;font-variant-ligatures:normal;font-variant-caps:normal;font-variant-numeric:normal;font-feature-settings:normal;text-align:start;letter-spacing:0px;word-spacing:0px;writing-mode:lr-tb;text-anchor:start;fill:#000000;fill-opacity:1;stroke:none"
     id="flowRoot4530">
    <path
       id="path4538"
       transform="matrix(0.23312354,0,0,0.23312354,-1733.7002,449.63652)"
       style="fill:#000000;stroke-width:4.28957129"
       d="m -1256.957,-646.13477 c -4.0214,0 -7.6403,1.47475 -10.8575,4.42383 -2.9492,2.94908 -4.4238,7.23908 -4.4238,12.86914 0,2.14479 0.535,5.36082 1.6074,9.65039 1.0724,4.28957 1.8779,9.78579 2.4141,16.48829 l 0.8027,12.06445 c 0,2.68098 -0.2665,6.56824 -0.8027,11.66211 -0.5362,5.09386 -1.4761,9.38386 -2.8164,12.86914 l -29.3555,35.38867 c -4.2895,-18.76687 -11.1264,-34.58437 -20.5097,-47.45313 -9.3836,-12.86871 -20.5102,-19.30273 -33.3789,-19.30273 -10.4557,0 -19.8392,3.75302 -28.1504,11.25977 -8.043,7.77484 -12.0645,15.41512 -12.0645,22.92187 0,4.82577 1.8775,10.32202 5.6309,16.48828 4.0216,4.82577 6.0312,9.78504 6.0312,14.87891 0,2.68098 -0.4006,5.36199 -1.2051,8.04297 -0.8041,2.68098 -1.744,5.76472 -2.8164,9.25 l -204.291,217.16015 v 9.65039 c 9.3833,9.11534 19.1697,17.69534 29.3574,25.73829 10.1878,7.77484 20.2424,16.35289 30.1622,25.73632 -6.1664,12.86872 -12.0654,26.0072 -17.6954,39.41211 -5.6302,13.40491 -10.9833,41.40275 -12.3236,55.34385 -0.7083,0.15739 -1.3996,0.30135 -2.0899,0.44336 6.0564,10.96028 12.4968,22.9878 17.1069,1.49219 0.037,-0.16192 0.08,-0.30994 0.1211,-0.46289 l -1.8691,-0.66797 c 1.6086,-11.26013 5.6232,-35.90768 8.3041,-45.29111 2.681,-9.65158 6.0312,-18.76657 10.0528,-27.34571 4.0213,-8.57914 8.4457,-17.02489 13.2715,-25.33594 5.094,-8.57914 10.7245,-17.55992 16.8906,-26.94335 l 199.0625,-244.10352 c 2.4127,-2.94908 4.8252,-5.76433 7.2383,-8.44531 2.4127,-2.94908 4.8252,-5.89858 7.2382,-8.84766 l 71.1797,38.60547 -94.9062,321.71875 c -1.8766,4.55767 -4.2891,9.65119 -7.2383,15.28125 -2.9489,5.36196 -5.8984,10.45548 -8.8477,15.28125 -1.953,3.15511 -3.9996,6.30961 -6.121,9.46484 2.4759,0.0817 4.4562,0.88071 6.6757,3.04493 0.4229,0.51742 0.5058,0.61756 0.6661,0.81054 0.1989,0.10225 0.3955,0.20813 0.5488,0.36719 0.2716,0.28197 0.5279,0.57658 0.7812,0.875 0.016,7.8e-4 0.031,8.5e-4 0.047,0.002 0.7505,0.21561 1.5048,0.42015 2.252,0.64649 0.1113,0.008 0.1803,0.0114 0.291,0.0195 3.0974,-5.09134 6.3425,-10.03442 9.7383,-14.82813 4.8257,-6.70245 8.7131,-13.93999 11.6621,-21.71484 12.8687,0 25.3358,-0.40274 37.4004,-1.20703 12.3325,-1.07239 24.6655,-2.81563 36.998,-5.22852 l 4.4238,-4.42383 45.4414,-224.79882 c 0.5362,-4.55767 2.5481,-9.11616 6.0332,-13.67383 3.7534,-4.55767 9.2495,-7.90795 16.4883,-10.05274 14.4773,-4.02147 21.7149,-14.47895 21.7149,-31.36914 0,-9.91963 -2.5467,-18.22918 -7.6407,-24.93164 -4.8257,-6.70245 -11.5282,-10.05468 -20.1074,-10.05468 -7.2385,0 -15.4159,1.07201 -24.5312,3.21679 l -21.7149,5.22852 c 1.3404,-10.18773 2.6809,-19.16851 4.0215,-26.94336 1.3404,-8.04295 2.6809,-14.87971 4.0215,-20.50977 2.681,-11.52822 8.1774,-21.44872 16.4883,-29.75976 8.5791,-8.57915 18.3633,-13.67266 29.3554,-15.28125 11.2602,-1.87669 16.8907,-6.56747 16.8907,-14.07422 0,-2.14479 -1.072,-7.23831 -3.2168,-15.28125 l -6.4336,-4.42383 c -3.4854,0 -6.9719,0.66927 -10.4571,2.00977 l -10.455,4.02148 c -3.2172,-0.5362 -5.3632,-2.01094 -6.4356,-4.42383 -1.0724,-2.41288 -1.6074,-6.30014 -1.6074,-11.66211 0,-6.97055 -1.3405,-13.40457 -4.0215,-19.30273 -2.681,-6.16626 -7.6421,-9.25 -14.8808,-9.25 -10.4557,0 -17.8277,2.94949 -22.1172,8.84765 -4.2896,5.89816 -8.4452,8.84766 -12.4668,8.84766 -8.5792,0 -13.8071,-4.02151 -15.6836,-12.06445 -2.1448,-8.04295 -7.1039,-12.06446 -14.8789,-12.06446 z m -1.2071,12.86915 c 2.681,0 5.6305,4.15575 8.8477,12.46679 3.4851,8.04295 10.4561,12.06445 20.9121,12.06445 9.6515,0 16.0856,-2.94949 19.3027,-8.84765 3.7534,-6.16626 10.1874,-9.25 19.3028,-9.25 1.6086,1.07239 2.6806,2.81563 3.2168,5.22851 0.8041,2.14479 1.207,4.5573 1.207,7.23829 v 10.05273 c 0,6.43436 2.144,11.79637 6.4336,16.08594 4.5578,4.28957 9.2504,6.43554 14.0762,6.43554 2.9489,0 5.8984,-0.80547 8.8476,-2.41406 2.949,-1.87669 5.63,-3.08294 8.043,-3.61914 1.0724,0.8043 1.6074,1.87826 1.6074,3.21875 0,1.60859 -0.4026,2.81485 -1.207,3.61914 -12.3325,2.14479 -22.5196,5.62931 -30.5625,10.45508 -7.7747,4.82577 -15.1467,12.86878 -22.1172,24.12891 l -4.8242,7.23828 c -3.7534,-1.60859 -8.0434,-3.75261 -12.8692,-6.4336 -4.5578,-2.14478 -10.0539,-4.82579 -16.4882,-8.04296 -6.4344,-3.21722 -13.9424,-7.10445 -22.5215,-11.66211 1.6086,-5.89816 2.414,-13.13766 2.414,-21.7168 0,-4.82577 -0.1355,-9.38231 -0.4043,-13.67188 -0.2682,-4.55767 -0.6688,-8.17839 -1.205,-10.85937 l -1.2071,-4.82617 c -1.3406,-4.02148 -2.0117,-8.04298 -2.0117,-12.06446 0,-1.87668 0.4026,-3.48372 1.207,-4.82421 z m -97.7207,48.66015 c 9.1154,0 17.6934,5.09352 25.7364,15.28125 8.0429,9.91963 14.4769,26.67494 19.3027,50.26758 l -218.3652,268.63476 -48.6602,-42.2246 201.8789,-214.34571 c 1.8768,-2.14478 3.2173,-4.96003 4.0215,-8.44531 0.8044,-3.48528 1.2051,-7.37254 1.2051,-11.66211 0,-4.82577 -0.5351,-9.3823 -1.6074,-13.67187 -0.8045,-4.55767 -2.145,-7.90991 -4.0215,-10.05469 -3.4855,-4.55767 -5.2285,-9.51694 -5.2285,-14.87891 2.9492,-6.16626 6.7022,-10.85899 11.2597,-14.07617 4.5578,-3.21718 9.3848,-4.82422 14.4785,-4.82422 z m 92.0918,30.5625 55.0938,27.3457 -4.8262,24.53125 -64.3437,-34.98632 z m 101.3399,83.24414 5.6308,0.40235 c 3.7534,0.26809 6.9694,2.68061 9.6504,7.23828 2.681,4.55767 4.0215,9.91968 4.0215,16.08593 0,5.36197 -1.7411,9.65193 -5.2266,12.86915 -3.2171,2.94908 -7.91,5.49583 -14.0761,7.64062 -6.1664,2.14479 -11.2599,5.62931 -15.2813,10.45508 -3.7533,4.55767 -6.5685,11.12593 -8.4453,19.70508 l -46.2461,220.77929 c -5.3619,1.34049 -11.6635,2.28021 -18.9023,2.81641 -6.9706,0.5362 -13.8055,1.07122 -20.5078,1.60742 -7.775,0.5362 -15.6856,0.80469 -23.7286,0.80469 l 86.4629,-289.94727 c 8.3109,-1.87668 15.817,-3.61992 22.5196,-5.22851 5.6299,-1.34049 10.8578,-2.54675 15.6836,-3.61914 5.094,-1.0724 7.9091,-1.60938 8.4453,-1.60938 z m -252.9512,216.75781 c -18.4986,0 -33.6451,6.29974 -45.4414,18.9004 -11.7963,12.60061 -17.6953,27.74887 -17.6953,45.44335 0,4.82577 0.6714,10.05354 2.0117,15.6836 1.3406,5.36196 3.3503,10.58973 6.0313,15.68359 2.6809,4.82577 5.7648,9.38231 9.25,13.67188 3.7533,4.02147 8.0433,6.97097 12.8691,8.84765 -4.2517,1.00044 -8.3759,1.87336 -12.3945,2.64063 1.2847,1.03582 2.6604,2.0131 3.4492,3.53515 0.2154,0.41588 0.3558,0.86219 0.4844,1.31446 0.061,0.053 0.1057,0.0901 0.1894,0.16406 0.421,0.23316 0.891,0.52336 0.1836,0.0918 2.0071,1.05634 2.5795,2.25237 4.2246,2.63086 0.063,0.0144 0.1049,-0.0737 0.1563,-0.11133 0.5126,0.1475 1.0245,0.2939 1.5371,0.4414 2.6034,-0.35892 5.0984,0.35719 7.5312,1.21875 0.258,0.0893 0.5035,0.24208 0.7754,0.26758 0.104,0.01 -0.2539,-0.11423 -0.2266,-0.21484 0.028,-0.10093 0.2003,-0.0803 0.3047,-0.0742 1.9143,0.11089 3.8037,0.42581 5.7149,0.5625 1.0836,0.11574 2.1259,0.43537 3.1894,0.65039 0.1227,0.003 0.2543,0.019 0.5176,0.0644 0.086,0.0149 -0.175,0.0102 -0.2617,-0.006 -0.086,-0.0157 -0.1702,-0.0413 -0.2559,-0.0586 -0.111,-0.003 -0.213,0.006 -0.4121,0.0156 1.2279,0.13462 2.4539,0.26967 3.6817,0.40429 0.2718,0.0602 0.5492,0.10196 0.8164,0.17969 0.6462,0.18796 1.274,0.43512 1.9218,0.61719 0.2959,0.0831 0.6006,0.14651 0.9063,0.17773 0.1824,0.0186 0.6675,0.0216 0.5391,-0.10937 -0.04,-0.0406 -0.1134,-0.009 -0.17,-0.0137 2.659,-0.38334 5.3474,-0.16469 8.0215,-0.15429 1.8834,-0.12931 3.5864,0.0809 5.4492,0.44922 0.469,0.0927 1.4073,0.51282 1.9981,0.31445 0.2832,-0.0217 0.5663,-0.0456 0.8496,-0.0664 2.1584,-0.15888 2.5504,-0.13427 5.1172,0.53125 0.053,0.0138 0.098,0.0363 0.1504,0.0527 1.3878,-1.59295 1.4267,-1.54256 3.1582,-2.52539 0.2604,-0.12197 0.5205,-0.24393 0.7812,-0.36524 -0.1472,0.0677 -0.3476,0.16235 -0.2676,0.10938 0.7205,-0.47656 1.428,-1.0031 2.2344,-1.3125 0.4388,-0.16834 0.8998,-0.26108 1.3653,-0.33985 -2.8364,-0.47689 -5.6067,-0.9526 -8.2305,-1.42968 -2.681,-0.5362 -4.4241,-0.80469 -5.2285,-0.80469 11.5283,-0.8043 21.046,-3.35105 28.5527,-7.64063 7.7747,-4.28957 13.9422,-9.38309 18.5,-15.28125 4.5575,-6.16625 7.7736,-12.73452 9.6504,-19.70507 1.8765,-6.97056 2.8145,-13.67307 2.8145,-20.10743 0,-17.15828 -6.0315,-32.1723 -18.0957,-45.04101 -11.7968,-12.86871 -27.213,-19.30274 -46.2481,-19.30274 z m 0,12.86914 c 15.0135,0 27.3461,5.49626 36.9981,16.48829 9.9197,10.72392 14.8808,23.05498 14.8808,36.99609 0,16.62209 -5.6305,29.08935 -16.8906,37.40039 -10.9922,8.31104 -22.2532,12.4668 -33.7813,12.4668 -6.9705,0 -13.673,-1.3405 -20.1074,-4.02149 -6.1664,-2.68098 -11.6625,-6.3017 -16.4883,-10.85937 -4.5575,-4.55767 -8.1764,-10.05197 -10.8574,-16.48633 -2.681,-6.43436 -4.0215,-13.40536 -4.0215,-20.91211 0,-7.23865 1.2064,-13.94116 3.6192,-20.10742 2.413,-6.16626 5.7651,-11.52827 10.0547,-16.08594 4.5575,-4.82577 9.9195,-8.44454 16.0859,-10.85742 6.1661,-2.68098 13.0011,-4.02145 20.5078,-4.02149 z m -41.2617,113.45704 c 0.107,0.38956 0.218,0.77698 0.3711,1.14843 0.088,0.21415 -0.033,-0.46039 -0.049,-0.6914 -0.094,-0.15747 -0.2106,-0.3066 -0.3222,-0.45703 z m 131.6367,5.99023 c 0.1529,0.009 0.306,0.0164 0.459,0.0234 0,-0.008 -0.01,-0.0158 -0.012,-0.0234 -0.1142,0.0121 -0.282,0.007 -0.4473,0 z"
       inkscape:connector-curvature="0"
       sodipodi:nodetypes="ccssccscccscscscccccccccccccccccccccccccccccccccccccccscsccccccscccccscscscccccscccsscsccscccccscscccscsccccccsccccscccccccssccccccccccccccsccccccccccccccccccccccccccccccccccccccccccccscccccscsccsscccccccccccccc" />
  </g>
</svg>
