<?xml version="1.0" encoding="UTF-8" standalone="no"?>
<svg
   xmlns:osb="http://www.openswatchbook.org/uri/2009/osb"
   xmlns:dc="http://purl.org/dc/elements/1.1/"
   xmlns:cc="http://creativecommons.org/ns#"
   xmlns:rdf="http://www.w3.org/1999/02/22-rdf-syntax-ns#"
   xmlns:svg="http://www.w3.org/2000/svg"
   xmlns="http://www.w3.org/2000/svg"
   xmlns:xlink="http://www.w3.org/1999/xlink"
   xmlns:sodipodi="http://sodipodi.sourceforge.net/DTD/sodipodi-0.dtd"
   xmlns:inkscape="http://www.inkscape.org/namespaces/inkscape"
   version="1.0"
   width="372.18356pt"
   height="488.1203pt"
   viewBox="0 0 372.18357 488.1203"
   preserveAspectRatio="xMidYMid meet"
   id="svg8"
   sodipodi:docname="F56.svg"
   inkscape:version="0.92.4 (5da689c313, 2019-01-14)">
  <defs
     id="defs12">
    <linearGradient
       inkscape:collect="always"
       xlink:href="#linearGradient1391"
       id="linearGradient1393"
       x1="106.58928"
       y1="159.41667"
       x2="142.875"
       y2="159.41667"
       gradientUnits="userSpaceOnUse"
       gradientTransform="matrix(2.1182782,0,0,2.1182782,-91.397582,-158.70773)" />
    <linearGradient
       id="linearGradient1391"
       osb:paint="solid">
      <stop
         style="stop-color:#000000;stop-opacity:1;"
         offset="0"
         id="stop1389" />
    </linearGradient>
  </defs>
  <sodipodi:namedview
     pagecolor="#ffffff"
     bordercolor="#666666"
     borderopacity="1"
     objecttolerance="10"
     gridtolerance="10"
     guidetolerance="10"
     inkscape:pageopacity="0"
     inkscape:pageshadow="2"
     inkscape:window-width="1920"
     inkscape:window-height="1017"
     id="namedview10"
     showgrid="false"
     fit-margin-top="0"
     fit-margin-left="0"
     fit-margin-right="0"
     fit-margin-bottom="0"
     inkscape:zoom="0.28771931"
     inkscape:cx="172.97073"
     inkscape:cy="356.92309"
     inkscape:window-x="-8"
     inkscape:window-y="-8"
     inkscape:window-maximized="1"
     inkscape:current-layer="svg8" />
  <metadata
     id="metadata2">
Created by potrace 1.10, written by Peter Selinger 2001-2011
<rdf:RDF>
  <cc:Work
     rdf:about="">
    <dc:format>image/svg+xml</dc:format>
    <dc:type
       rdf:resource="http://purl.org/dc/dcmitype/StillImage" />
    <dc:title></dc:title>
  </cc:Work>
</rdf:RDF>
</metadata>
  <g
     transform="matrix(0.1,0,0,-0.1,727.84125,411.33537)"
     id="g6"
     style="fill:#000000;stroke:none">
    <path
       d="m 1660,4010 c -25,-3 -61,-13 -81,-23 -42,-19 -119,-103 -119,-130 0,-10 -8,-32 -17,-50 -16,-29 -18,-79 -21,-554 -3,-497 -4,-523 -21,-523 -17,0 -19,27 -24,518 -6,571 -6,572 -71,657 -61,79 -115,105 -219,105 -66,0 -79,-3 -132,-35 -32,-20 -66,-46 -74,-58 -29,-40 -52,-121 -52,-184 -1,-55 3,-68 34,-115 20,-29 44,-62 55,-74 45,-48 46,-60 17,-189 -7,-33 -21,-105 -30,-160 -16,-102 -34,-198 -56,-315 -7,-36 -15,-90 -19,-120 -4,-30 -12,-77 -17,-105 -6,-27 -18,-95 -27,-150 -10,-55 -24,-131 -32,-170 -8,-38 -14,-78 -14,-87 0,-25 -12,-28 -49,-9 -33,16 -60,68 -61,114 0,17 40,114 61,147 5,8 12,22 15,30 3,8 10,22 15,30 5,8 12,22 15,30 4,8 19,43 35,78 25,54 29,73 29,155 -1,84 -4,98 -33,155 -26,50 -45,72 -102,113 l -69,50 -96,-4 c -123,-5 -185,-29 -223,-87 -23,-36 -8,-87 43,-146 28,-31 39,-52 35,-67 -2,-12 -11,-54 -20,-94 -8,-40 -15,-88 -15,-107 0,-19 -7,-65 -16,-103 -16,-68 -15,-230 1,-295 7,-26 5,-28 -23,-28 -17,0 -43,5 -58,10 -55,21 -124,-38 -110,-94 17,-70 184,-142 296,-129 52,6 168,42 176,54 9,15 35,10 101,-21 55,-26 77,-31 157,-33 74,-2 97,1 119,16 32,21 140,28 158,10 12,-12 -17,-42 -109,-111 -26,-20 -63,-49 -83,-66 -19,-17 -66,-56 -104,-86 -37,-30 -73,-60 -79,-65 -6,-6 -42,-36 -81,-66 -91,-73 -170,-152 -201,-200 -19,-31 -24,-52 -24,-103 0,-65 0,-65 50,-116 28,-27 55,-50 60,-50 6,0 10,-10 10,-23 0,-26 29,-57 76,-80 29,-15 32,-14 59,7 15,12 35,38 44,57 15,32 19,34 81,41 36,3 76,8 90,9 42,6 160,-12 199,-30 84,-37 99,-80 106,-310 5,-153 15,-219 47,-321 6,-19 15,-51 19,-70 10,-49 26,-88 84,-204 40,-80 59,-107 91,-129 l 41,-29 39,21 c 21,11 105,89 185,173 81,85 184,186 230,225 85,71 260,195 301,213 13,6 31,14 41,20 9,5 25,15 35,20 9,6 24,13 32,16 8,4 56,26 105,50 50,24 94,44 98,44 31,0 97,78 97,115 0,21 -110,166 -175,230 -102,101 -227,204 -282,233 -38,20 -186,152 -233,208 -25,29 -56,74 -69,101 -12,26 -27,56 -32,65 -16,31 -47,132 -52,170 -7,45 4,54 38,32 38,-25 205,-26 232,-2 11,10 26,18 34,18 9,0 24,7 35,15 29,22 58,18 121,-15 51,-27 65,-30 149,-30 86,0 100,3 166,34 66,31 103,59 122,93 10,19 -30,75 -65,90 -33,14 -59,9 -137,-23 -53,-23 -108,-17 -181,18 -78,37 -164,43 -219,14 -35,-18 -52,-14 -52,12 0,9 -6,49 -14,87 -15,70 -34,168 -62,320 -8,44 -21,109 -29,145 -9,36 -15,76 -15,88 0,13 -7,51 -15,85 -8,34 -21,106 -30,160 -8,53 -22,139 -30,190 -26,166 -26,173 4,211 15,18 44,59 66,90 36,53 38,60 38,128 -2,183 -127,290 -313,268 z m -511,-171 c 67,-24 66,-11 69,-643 l 3,-569 -30,-31 c -16,-17 -44,-56 -61,-86 -31,-52 -32,-57 -27,-140 3,-47 9,-100 12,-117 l 7,-33 h -58 c -57,0 -108,-9 -148,-26 -18,-7 -19,-4 -12,47 21,145 25,168 61,354 26,134 38,200 45,250 4,28 12,79 19,115 7,36 19,99 26,140 7,41 19,102 26,135 7,33 14,117 16,188 5,138 2,148 -63,222 -46,53 -56,81 -44,125 20,74 76,98 159,69 z m 627,-7 c 63,-50 59,-100 -15,-192 -85,-107 -87,-125 -46,-350 7,-41 21,-120 30,-175 9,-55 22,-134 30,-175 14,-79 33,-190 60,-355 9,-55 22,-138 30,-185 8,-47 17,-108 20,-135 l 5,-50 h -104 c -57,0 -107,3 -111,7 -4,4 0,17 9,30 22,32 22,177 -1,238 -9,25 -36,68 -60,97 l -44,51 3,559 c 3,504 5,562 20,595 11,22 28,40 45,46 44,16 106,13 129,-6 z M 520,3000 c 0,-5 -9,-10 -19,-10 -11,0 -23,5 -26,10 -4,6 5,10 19,10 14,0 26,-4 26,-10 z m 133,-188 c -1,-57 -9,-78 -75,-210 l -73,-147 -1,-113 c 0,-120 -7,-142 -41,-123 -14,7 -22,25 -27,58 -3,26 -7,55 -8,63 -5,33 14,260 28,335 27,144 50,181 124,196 71,14 75,11 73,-59 z m 867,-294 c 46,-36 60,-68 60,-139 0,-47 -4,-70 -15,-79 -8,-7 -15,-18 -15,-25 0,-7 -18,-29 -39,-48 -52,-47 -98,-55 -168,-32 -44,15 -59,27 -88,69 -75,110 -32,234 99,282 39,14 133,-2 166,-28 z m 20,-538 c 0,-6 -44,-54 -99,-108 -99,-98 -176,-193 -199,-245 -17,-41 -15,-97 7,-132 17,-30 67,-57 124,-69 35,-8 34,-17 -7,-74 -73,-101 -86,-105 -176,-71 -137,52 -184,55 -496,33 -103,-7 -115,-1 -87,47 20,34 154,152 283,249 47,35 87,66 90,70 3,3 36,30 73,59 66,52 94,60 69,21 -19,-31 -14,-56 18,-89 25,-25 34,-28 53,-20 12,5 30,12 40,15 12,5 17,17 17,46 0,48 -29,77 -77,78 -18,0 -33,3 -33,8 0,10 131,108 180,133 22,12 43,25 46,30 3,5 26,10 52,10 26,1 61,5 77,9 43,11 45,11 45,0 z m 123,-121 c -4,-29 -30,-90 -49,-112 -10,-12 -32,-40 -49,-62 -70,-94 -121,-135 -168,-135 -42,0 -43,19 -3,87 17,31 147,155 202,194 24,18 44,37 44,42 0,5 6,7 13,4 6,-2 11,-10 10,-18 z m 118,-205 c 13,-25 30,-57 38,-71 30,-56 178,-197 273,-260 54,-35 103,-69 110,-76 7,-7 36,-30 63,-52 58,-46 64,-52 133,-128 29,-31 52,-61 52,-66 0,-6 -35,-26 -77,-46 -90,-42 -134,-65 -183,-93 -19,-12 -52,-30 -73,-42 -94,-51 -291,-213 -434,-357 -84,-84 -159,-153 -167,-153 -8,0 -17,10 -21,23 -6,22 -26,74 -50,132 -24,58 -41,111 -66,210 -6,22 -11,132 -12,245 l -2,205 41,60 c 46,67 84,148 84,176 0,10 -9,24 -20,31 -30,19 -24,31 23,52 69,32 100,60 173,161 38,52 74,95 80,95 6,0 21,-21 35,-46 z"
       id="path4"
       inkscape:connector-curvature="0" />
  </g>
  <g
     aria-label="ð“„¾"
     transform="matrix(4.7830819,0,0,4.7830819,8820.1149,-173.01672)"
     style="font-style:normal;font-variant:normal;font-weight:normal;font-stretch:normal;font-size:192px;line-height:1.25;font-family:sans-serif;-inkscape-font-specification:sans-serif;font-variant-ligatures:normal;font-variant-caps:normal;font-variant-numeric:normal;font-feature-settings:normal;text-align:start;letter-spacing:0px;word-spacing:0px;writing-mode:lr-tb;text-anchor:start;fill:#000000;fill-opacity:1;stroke:none"
     id="flowRoot4519">
    <path
       d="m -1799.7734,94.536561 c -0.3125,0.3125 -0.7813,0.6875 -1.4063,1.125 -0.625,0.4375 -1.1875,0.78125 -1.6875,1.03125 0,0.4375 -0.031,0.8125 -0.094,1.125 0,1.25 -0.5625,3.031249 -1.6875,5.343749 -0.5625,1.1875 -1.1875,2.09375 -1.875,2.71875 -0.6875,0.5625 -1.4688,1 -2.3438,1.3125 v 1.5 c 0,0.5625 -0.031,1.0625 -0.094,1.5 0,3.625 0.5937,7.5625 1.7812,11.8125 1.25,4.1875 3,8.4375 5.25,12.75 4.625,-5.375 9.4688,-9.8125 14.5313,-13.3125 5.125,-3.5625 10.9687,-6.46875 17.5312,-8.71875 -2.3125,-3.75 -6.2187,-7.15625 -11.7187,-10.21875 -5.5625,-3.187499 -8.9375,-6.031249 -10.125,-8.531249 -1.25,-2.5 -2.4688,-4.1875 -3.6563,-5.0625 l -1.6875,1.6875 -1.5937,2.71875 z m -2.8125,-9 -4.5938,-1.59375 -8.3437,4.40625 c -1.8125,0.9375 -3.5625,1.96875 -5.25,3.09375 -1.625,1.0625 -3.2188,2.21875 -4.7813,3.46875 -3,2.5625 -4.6562,5.406249 -4.9687,8.531249 0.3125,0.375 0.7812,0.59375 1.4062,0.65625 0.625,0.0625 1.1563,0.0937 1.5938,0.0937 1,-0.5625 2,-1.0625 3,-1.5 1.0625,-0.5 2.0625,-0.75 3,-0.75 0.875,0 2.4375,0.34375 4.6875,1.03125 2.375,0.6875 4.3125,1.03125 5.8125,1.03125 1.75,0 2.9687,-0.625 3.6562,-1.875 0.75,-1.25 1.2188,-2.71875 1.4063,-4.406249 -0.3125,0.125 -0.6563,0.21875 -1.0313,0.28125 -0.375,0 -0.75,0.03125 -1.125,0.09375 -0.4375,0.0625 -0.875,0.09375 -1.3125,0.09375 l -1.4062,-1.78125 c 0.3125,-0.9375 0.6562,-1.84375 1.0312,-2.71875 0.3125,-0.75 0.6875,-1.5 1.125,-2.25 0.4375,-0.8125 0.9063,-1.46875 1.4063,-1.96875 0.8125,-0.8125 1.5312,-1.40625 2.1562,-1.78125 0.625,-0.4375 1.2188,-0.8125 1.7813,-1.125 z m 4.4062,1.6875 -1.4062,-0.5625 -0.75,1.125 c -0.8125,1.1875 -1.875,2.0625 -3.1875,2.625 -1.3125,0.5625 -2.3438,1.71875 -3.0938,3.46875 l -0.4687,1.125 c 0.6875,0 1.375,-0.125 2.0625,-0.375 0.6875,-0.3125 1.3125,-0.6875 1.875,-1.125 0.5625,-0.4375 1.0312,-0.875 1.4062,-1.3125 0.4375,-0.4375 0.75,-0.8125 0.9375,-1.125 0.6875,-1.25 1.0938,-2 1.2188,-2.25 0.1875,-0.3125 0.3125,-0.5 0.375,-0.5625 z m -13.125,2.53125 c -1.0625,1.0625 -1.8125,1.59375 -2.25,1.59375 -0.4375,0 -0.6562,-0.40625 -0.6562,-1.21875 0,-0.9375 0.2812,-1.40625 0.8437,-1.40625 0.5,0 1.1875,0.34375 2.0625,1.03125 z m 0.8438,-7.3125 c -0.3125,0 -0.625,-0.09375 -0.9375,-0.28125 -0.3125,-0.125 -0.6875,-0.28125 -1.125,-0.46875 -0.4375,-0.25 -1,-0.53125 -1.6875,-0.84375 -1.5,0.75 -2.9063,1.25 -4.2188,1.5 -1.3125,0.25 -2.5625,0.375 -3.75,0.375 -1.1875,0 -2.4375,-0.1875 -3.75,-0.5625 -1.3125,-0.375 -2.6875,-0.8125 -4.125,-1.3125 -2.25,0.375 -4.4062,0.5625 -6.4687,0.5625 h -1.0313 c -0.3125,0 -0.625,-0.03125 -0.9375,-0.09375 -2.625,-0.0625 -4.4687,-1.875 -5.5312,-5.4375 2.5625,1.5 4.7812,2.4375 6.6562,2.8125 0.5625,0.1875 1.1563,0.28125 1.7813,0.28125 1.4375,0 3.2812,-0.34375 5.5312,-1.03125 1.4375,0.5 2.7813,0.90625 4.0313,1.21875 1.25,0.3125 2.4062,0.46875 3.4687,0.46875 1.0625,0 2.2813,-0.09375 3.6563,-0.28125 1.375,-0.1875 2.9375,-0.53125 4.6875,-1.03125 1.3125,0 2.7812,0.5 4.4062,1.5 1.625,1 3.0938,1.5 4.4063,1.5 0.5,-0.3125 1.1562,-0.65625 1.9687,-1.03125 0.875,-0.4375 1.9063,-0.90625 3.0938,-1.40625 3.75,1.3125 6.7187,1.96875 8.9062,1.96875 0.5625,-0.0625 2.125,-0.625 4.6875,-1.6875 1.875,-0.8125 3.2813,-1.21875 4.2188,-1.21875 1.5,0.5 2.875,0.84375 4.125,1.03125 1.25,0.1875 2.375,0.28125 3.375,0.28125 1.8125,0 4.2812,-0.78125 7.4062,-2.34375 -1,3.3125 -2.9687,4.96875 -5.9062,4.96875 -1.5,0 -3,-0.09375 -4.5,-0.28125 l -4.5,-0.75 c -1.8125,0 -4.4375,0.875 -7.875,2.625 h -2.4375 c -0.875,0 -1.8438,-0.03125 -2.9063,-0.09375 l -4.125,-1.3125 -2.1562,0.9375 c 1.75,0.25 3.3125,0.71875 4.6875,1.40625 1.375,0.625 2.5625,1.34375 3.5625,2.15625 1.0625,0.75 1.9062,1.5625 2.5312,2.4375 0.625,0.8125 1.0938,1.5625 1.4063,2.25 1.25,2.75 4.875,5.84375 10.875,9.281249 6,3.3125 10.25,7.5 12.75,12.5625 l -1.0313,1.96875 c -6.1875,1.9375 -11.6562,4.34375 -16.4062,7.21875 -4.6875,2.875 -9.0938,6.46875 -13.2188,10.78125 -4.6875,5.15625 0,0 -4.6875,5.15625 h -0.9375 c -0.4375,0 -0.8125,-0.0312 -1.125,-0.0937 -3,-6 -5.1562,-11.21875 -6.4687,-15.65625 -1.3125,-4.4375 -1.9688,-8.5625 -1.9688,-12.375 v -1.59375 c 0.063,-0.5625 0.1252,-1.09375 0.1875,-1.59375 -2.0625,0 -3.9062,-0.34375 -5.5312,-1.03125 -1.5625,-0.6875 -2.8125,-1.03125 -3.75,-1.03125 -0.3125,0 -0.6875,0.0937 -1.125,0.28125 -0.375,0.125 -0.7813,0.28125 -1.2188,0.46875 -0.5,0.25 -1,0.46875 -1.5,0.65625 v 0.375 0.5625 c 0,0.1875 0.031,0.40625 0.094,0.65625 0,1.5 -0.25,2.25 -0.75,2.25 -0.5,0 -0.9375,-1 -1.3125,-3 -0.5,0.125 -0.9063,0.1875 -1.2188,0.1875 -1.25,0 -2.4687,-0.34375 -3.6562,-1.03125 -1.125,-0.75 -1.6875,-1.71875 -1.6875,-2.90625 0,-1.25 0.25,-2.5 0.75,-3.749999 0.5625,-1.3125 1.2812,-2.5625 2.1562,-3.75 0.9375,-1.1875 2,-2.3125 3.1875,-3.375 1.1875,-1.0625 2.4375,-2 3.75,-2.8125 0.75,-0.5 1.8438,-1.125 3.2813,-1.875 1.5,-0.8125 2.9687,-1.625 4.4062,-2.4375 1.6875,-0.9375 3.5313,-1.90625 5.5313,-2.90625 z"
       id="path4527"
       inkscape:connector-curvature="0"
       sodipodi:nodetypes="cscccccsccccccccccccccccccccscsccccccccccccccccccccccccccsssccccccsccsscccscssscsccccccsscscccscccccccccccccsccscccsccccscscscscccccccc" />
  </g>
  <g
     aria-label="ð“¯"
     transform="matrix(4.5586786,0,0,4.5586786,8525.3176,302.91535)"
     style="font-style:normal;font-variant:normal;font-weight:normal;font-stretch:normal;font-size:192px;line-height:1.25;font-family:sans-serif;-inkscape-font-specification:sans-serif;font-variant-ligatures:normal;font-variant-caps:normal;font-variant-numeric:normal;font-feature-settings:normal;text-align:start;letter-spacing:0px;word-spacing:0px;writing-mode:lr-tb;text-anchor:start;fill:#008000;fill-opacity:1;stroke:none"
     id="flowRoot824">
    <path
       d="m -1962.1914,-86.94586 q 2.5312,-7.59375 12.0937,-7.59375 4.5,0 4.5,6.09375 -0.8437,1.6875 -3.2812,1.6875 l -2.5313,-0.28125 q -3.1875,0 -3.1875,6.09375 l 4.5,24.28125 q 0,2.71875 2.0625,2.71875 1.5,0 3.9375,-1.3125 1.2188,1.40625 3.1875,1.40625 1.875,0 4.4063,-1.40625 2.25,1.21875 4.125,1.40625 h 0.094 q 1.7813,0 1.7813,-4.40625 1.875,2.71875 1.875,4.3125 0,2.25 -3.6563,2.25 -0.8437,0 -1.875,-0.1875 l -2.3437,-0.28125 q -1.5,1.5 -3.75,1.5 -2.3438,0 -5.3438,-1.5 -4.3125,1.125 -11.1562,1.40625 6,3.28125 9.75,14.25 3.75,10.96875 3.75,22.96875 0,3.1875 -0.2813,6.1874996 -0.1875,2.90625 -0.6562,5.53125 l -1.5,1.03124996 h -2.9063 q 0,8.53125004 -0.2812,16.87500044 -0.2813,8.34375 -1.125,16.6875 1.5937,0.65625 2.25,2.0625 0.6562,1.40625 0.6562,3 2.1563,1.78125 4.5,3.09375 2.3438,1.21875 4.9688,2.25 l 0.4687,1.125 0.375,1.21875 q -0.8437,0.65625 -1.5,1.5 -0.9375,0.375 -1.3125,0.5625 -3.1875,0 -6,-1.21875 -2.7187,-1.125 -5.0625,-3.28125 -7.2187,0 -21.75,2.8125 -14.4375,2.8125 -22.4062,2.8125 -9.9375,0 -12.8438,-1.59375 -2.9062,-1.59375 -2.9062,-6 0,-4.96875 2.8125,-8.90625 2.8125,-4.03125 11.0625,-5.4375 l 3.9375,-0.65625 q 4.3125,-0.75 8.4375,-1.5 4.125,-0.84375 8.625,-1.21875 0.2812,-10.78125 1.9687,-21.2812504 1.6875,-10.5 3.9375,-20.9999996 l -0.8437,-3 -1.2188,-0.09375 q -1.5937,4.03125 -3.2812,5.34375 -1.5938,1.21875 -3.0938,1.21875 -1.6875,0 -2.25,-0.5625 -0.5625,-0.65625 -0.5625,-1.03125 0,-0.375 0.6563,-0.375 2.7187,0 3.6562,-0.84375 0.9375,-0.9375 1.875,-3.65625 -1.5937,-0.9375 -1.7812,-3.46875 -0.094,-2.625 -2.5313,-3.375 l -0.4687,-0.84375 q -0.2813,-0.375 -0.4688,-0.84375 0,-1.78125 1.3125,-3.65625 1.4063,-1.875 1.4063,-4.03125 l -0.094,-0.65625 q 0,-3 2.1563,-6.65625 2.25,-3.75 5.9062,-5.34375 -3.1875,-0.1875 -5.5312,-0.46875 -2.3438,-0.375 -3.8438,-0.9375 -2.4375,1.125 -4.5937,1.125 -2.4375,0 -4.5,-1.125 -2.0625,0.46875 -3.1875,0.46875 -3.5625,0 -3.5625,-3.1875 0,-1.5 0.6562,-3.375 1.125,4.40625 2.625,4.40625 h 0.094 q 1.5,0 4.875,-1.40625 1.5937,1.59375 3,1.59375 1.4062,0 3,-1.59375 1.5,0.84375 2.9062,0.84375 2.0625,0 3.1875,-2.25 l 4.5,-24.28125 q 0,-6.09375 -3.0937,-6.09375 -0.5625,0 -1.2188,0.1875 -0.6562,0.09375 -1.125,0.09375 -1.5,0 -2.25,-1.5 -0.75,-1.59375 -0.75,-3.1875 0,-3.09375 5.4375,-3.09375 8.0625,0 10.5938,7.59375 z m 10.5937,78.2812496 q 0,-2.6249996 -0.9375,-4.8749996 -0.9375,-2.25 -3.5625,-2.25 -1.0312,1.96875 -1.3125,4.40625 -0.2812,2.4374996 -0.2812,4.8749996 v 4.21875 q -0.4688,0.375 -0.8438,0.75 l -0.75,0.74999996 h -3 l -1.4062,-1.78124996 q 0,-30.6562496 2.1562,-32.2499996 2.1563,-1.6875 2.1563,-3.84375 0,-0.375 -0.094,-0.75 l -0.1875,-0.65625 q -0.75,0.28125 -1.3125,0.9375 -0.9375,0.375 -1.3125,0.5625 h -11.9062 l -0.1875,1.40625 q -0.2813,1.96875 -1.3125,3.46875 -0.9375,1.40625 -1.2188,2.53125 2.1563,1.03125 2.5313,2.53125 l 0.8437,3.65625 q 4.0313,0 5.25,0.9375 1.3125,0.84375 1.3125,4.21875 0,0.84375 -0.1875,2.25 -0.1875,1.40625 -0.4687,3 l -1.4063,6.6562496 q -1.5937,8.24999996 -2.625,16.40625 -0.9375,8.0625004 -1.125,16.4062504 -0.4687,0.375 -0.8437,0.75 l -0.75,0.75 q -5.1563,0 -12,1.5 -6.8438,1.5 -10.875,1.96875 -3.9375,0.46875 -6.9375,2.71875 -2.9063,2.25 -3.375,9 0,0.75 0.8437,2.34375 0.9375,1.5 9.0938,1.6875 l 3,0.09375 q 8.25,0 22.5937,-2.8125 14.4375,-2.8125 20.7188,-2.8125 0.6562,0 1.5937,0.65625 l 2.25,1.5 q 1.2188,0.84375 2.9063,1.6875 1.6875,0.75 3.9375,1.03125 l -2.1563,-1.125 -2.4375,-1.40625 q -1.2187,-0.65625 -2.4375,-1.40625 -1.125,-0.75 -1.9687,-1.40625 0,-0.46875 -0.4688,-1.40625 0,-0.75 -0.1875,-1.40625 -0.094,-0.65625 -0.6562,-1.125 l -0.75,-0.1875 -1.4063,-1.78125 q 0.9375,-9 1.2188,-17.8125 0.2812,-8.9062504 0.2812,-17.9062504 z m -11.25,-32.9062496 q 1.5,-1.5 3.0938,-1.5 1.3125,0 2.1562,0.9375 0.9375,0.9375 1.125,2.8125 0,2.15625 -0.75,3.5625 -0.75,1.40625 -2.0625,2.4375 -0.8437,6.9375 -1.125,13.78125 -0.2812,6.75 -0.2812,13.6874996 0,-1.59375 0.1875,-3.1875 l 0.2812,-3.1874996 q 0.6563,-3.9375 1.875,-5.15625 1.3125,-1.3125 3.4688,-1.3125 2.4375,0.1875 4.3125,2.25 1.9687,2.0625 1.9687,8.0624996 v 4.59375 h 1.6875 q 0.375,-2.4375 0.5625,-4.875 0.1875,-2.5312496 0.1875,-5.1562496 0,-12.9375 -4.4062,-24.09375 -4.4063,-11.15625 -12.1875,-11.15625 -3.75,0 -7.125,2.15625 -3.375,2.0625 -3.8438,5.34375 z m -12.4687,-48.84375 q 0,0.65625 0.9375,0.65625 l 2.0625,-0.28125 q 2.5312,0 3.8437,2.71875 1.4063,2.625 1.4063,6.09375 v 0.5625 l -1.0313,5.90625 q -0.4687,2.8125 -1.4062,7.6875 1.3125,-1.6875 3.1875,-2.53125 1.9687,-0.9375 4.125,-0.9375 1.7812,0 3.6562,0.84375 1.9688,0.84375 3.2813,2.4375 l -1.9688,-12.09375 q -0.2812,-1.5 -0.2812,-2.0625 l -0.094,-0.84375 q 0,-3.5625 1.7813,-5.625 1.7812,-2.15625 4.875,-2.15625 l 1.7812,0.1875 q 0.5625,0 0.5625,-0.46875 0,-0.65625 -0.75,-0.9375 -0.75,-0.28125 -2.0625,-0.28125 -3.5625,0 -6.0937,2.0625 -2.4375,1.96875 -3.5625,5.25 h -2.3438 q -1.5,-3.5625 -3.9375,-5.4375 -2.3437,-1.875 -5.1562,-1.875 -1.0313,0 -1.9688,0.1875 -0.8437,0.09375 -0.8437,0.9375 z m 7.2187,28.78125 q 0,2.71875 1.6875,4.125 1.6875,1.40625 4.2188,1.40625 2.1562,0 3.9375,-1.3125 1.875,-1.40625 1.875,-4.21875 0,-2.90625 -1.875,-4.40625 -1.7813,-1.5 -3.9375,-1.5 -2.4375,0 -4.2188,1.5 -1.6875,1.40625 -1.6875,4.40625 z m 3.5625,8.34375 q -2.25,-0.46875 -4.0312,-1.96875 -1.6875,-1.5 -2.3438,-4.21875 l -0.9375,5.4375 q 1.3125,0 2.3438,0.28125 1.125,0.1875 2.3437,0.28125 z m 3.5625,0.09375 q 1.3125,0 2.625,-0.28125 l 2.5313,-0.375 q 1.3125,-0.28125 2.7187,-0.65625 l -0.75,-4.3125 q -0.8437,2.625 -2.9062,4.03125 -2.0625,1.3125 -4.2188,1.59375 z m -9.2812,17.4375 q -1.0313,0.75 -1.875,0.75 -0.8438,0 -0.9375,-1.3125 0,-0.9375 0.8437,-0.9375 1.0313,0 1.9688,1.5 z"
       id="path832"
       inkscape:connector-curvature="0"
       style="fill:#008000" />
  </g>
  <path
     style="color:#000000;font-style:normal;font-variant:normal;font-weight:normal;font-stretch:normal;font-size:medium;line-height:normal;font-family:sans-serif;font-variant-ligatures:normal;font-variant-position:normal;font-variant-caps:normal;font-variant-numeric:normal;font-variant-alternates:normal;font-feature-settings:normal;text-indent:0;text-align:start;text-decoration:none;text-decoration-line:none;text-decoration-style:solid;text-decoration-color:#000000;letter-spacing:normal;word-spacing:normal;text-transform:none;writing-mode:lr-tb;direction:ltr;text-orientation:mixed;dominant-baseline:auto;baseline-shift:baseline;text-anchor:start;white-space:normal;shape-padding:0;clip-rule:nonzero;display:inline;overflow:visible;visibility:visible;opacity:1;isolation:auto;mix-blend-mode:normal;color-interpolation:sRGB;color-interpolation-filters:linearRGB;solid-color:#000000;solid-opacity:1;vector-effect:none;fill:url(#linearGradient1393);fill-opacity:1;fill-rule:nonzero;stroke:none;stroke-width:1.88866425;stroke-linecap:butt;stroke-linejoin:miter;stroke-miterlimit:4;stroke-dasharray:none;stroke-dashoffset:0;stroke-opacity:1;color-rendering:auto;image-rendering:auto;shape-rendering:auto;text-rendering:auto;enable-background:accumulate"
     d="m 172.82099,136.38722 c -25.46489,0 -47.39647,18.48347 -47.39647,42.5931 0,24.10963 21.93158,42.59312 47.39647,42.59312 25.46491,0 47.39649,-18.48349 47.39649,-42.59312 0,-24.10963 -21.93158,-42.5931 -47.39649,-42.5931 z m 0,17.93089 c 16.98549,0 29.46559,11.62775 29.46559,24.66221 0,13.03447 -12.4801,24.66222 -29.46559,24.66222 -16.98547,0 -29.46558,-11.62775 -29.46558,-24.66222 0,-13.03446 12.48011,-24.66221 29.46558,-24.66221 z"
     id="path1387"
     inkscape:connector-curvature="0" />
  <path
     style="color:#000000;font-style:normal;font-variant:normal;font-weight:normal;font-stretch:normal;font-size:medium;line-height:normal;font-family:sans-serif;font-variant-ligatures:normal;font-variant-position:normal;font-variant-caps:normal;font-variant-numeric:normal;font-variant-alternates:normal;font-feature-settings:normal;text-indent:0;text-align:start;text-decoration:none;text-decoration-line:none;text-decoration-style:solid;text-decoration-color:#000000;letter-spacing:normal;word-spacing:normal;text-transform:none;writing-mode:lr-tb;direction:ltr;text-orientation:mixed;dominant-baseline:auto;baseline-shift:baseline;text-anchor:start;white-space:normal;shape-padding:0;clip-rule:nonzero;display:inline;overflow:visible;visibility:visible;opacity:1;isolation:auto;mix-blend-mode:normal;color-interpolation:sRGB;color-interpolation-filters:linearRGB;solid-color:#000000;solid-opacity:1;vector-effect:none;fill:#000000;fill-opacity:1;fill-rule:nonzero;stroke:none;stroke-width:1.88866425;stroke-linecap:butt;stroke-linejoin:miter;stroke-miterlimit:4;stroke-dasharray:none;stroke-dashoffset:0;stroke-opacity:1;color-rendering:auto;image-rendering:auto;shape-rendering:auto;text-rendering:auto;enable-background:accumulate"
     d="m 126.99879,0.02486632 c -2.24425,0.10194 -5.35076,0.560327 -8.7867,1.99197298 -6.87184,2.863253 -15.35923,9.5173927 -22.722982,23.7189367 -3.89941,7.520288 -4.01885,14.487299 -1.5493,20.000689 2.46954,5.51339 7.121882,9.413519 11.973832,12.283688 7.0806,4.188521 13.45872,5.8856 17.18978,6.735732 -4.38809,23.744703 -16.12628,59.395005 -27.289712,89.851725 -11.58277,31.60079 -22.1549,57.1616 -22.1549,57.1616 l -2.02885,4.9061 80.017372,-0.54594 -0.0517,-7.04559 -69.526452,0.47217 c 1.59637,-3.88203 9.71922,-23.48437 20.362182,-52.52112 11.63723,-31.74938 24.29683,-69.452472 28.43323,-94.270892 l 0.57544,-3.445328 -3.43794,-0.604981 c 0,0 -10.28709,-1.897775 -18.50302,-6.757865 -4.10795,-2.430079 -7.5332,-5.523891 -9.13347,-9.096571 -1.600252,-3.572706 -1.787962,-7.775739 1.37964,-13.884622 6.7701,-13.056678 13.93142,-18.266139 19.17436,-20.4507195 5.24293,-2.1845422 8.28504,-1.4459982 8.28504,-1.4459982 l 0.27311,0.0589 0.28783,0.01506 c 0,0 7.65536,0.269696 16.32659,6.8021327 8.67123,6.53233 18.2482,19.27643 20.70153,45.527159 l 7.00872,-0.656617 C 171.20797,31.063504 160.59239,16.052631 150.3343,8.3248635 140.31044,0.77356632 130.7975,0.19038632 130.35578,0.16522732 c -0.18584,-0.03025 -1.27719,-0.23457 -3.35683,-0.140145 z"
     id="path1428"
     inkscape:connector-curvature="0" />
  <path
     style="color:#000000;font-style:normal;font-variant:normal;font-weight:normal;font-stretch:normal;font-size:medium;line-height:normal;font-family:sans-serif;font-variant-ligatures:normal;font-variant-position:normal;font-variant-caps:normal;font-variant-numeric:normal;font-variant-alternates:normal;font-feature-settings:normal;text-indent:0;text-align:start;text-decoration:none;text-decoration-line:none;text-decoration-style:solid;text-decoration-color:#000000;letter-spacing:normal;word-spacing:normal;text-transform:none;writing-mode:lr-tb;direction:ltr;text-orientation:mixed;dominant-baseline:auto;baseline-shift:baseline;text-anchor:start;white-space:normal;shape-padding:0;clip-rule:nonzero;display:inline;overflow:visible;visibility:visible;opacity:1;isolation:auto;mix-blend-mode:normal;color-interpolation:sRGB;color-interpolation-filters:linearRGB;solid-color:#000000;solid-opacity:1;vector-effect:none;fill:#000000;fill-opacity:1;fill-rule:nonzero;stroke:none;stroke-width:1.88866425;stroke-linecap:butt;stroke-linejoin:miter;stroke-miterlimit:4;stroke-dasharray:none;stroke-dashoffset:0;stroke-opacity:1;color-rendering:auto;image-rendering:auto;shape-rendering:auto;text-rendering:auto;enable-background:accumulate"
     d="m 174.25873,56.785645 -7.47994,2.481515 2.52313,77.23601 7.03822,-0.22853 z"
     id="path1430"
     inkscape:connector-curvature="0"
     sodipodi:nodetypes="ccccc" />
  <path
     style="color:#000000;font-style:normal;font-variant:normal;font-weight:normal;font-stretch:normal;font-size:medium;line-height:normal;font-family:sans-serif;font-variant-ligatures:normal;font-variant-position:normal;font-variant-caps:normal;font-variant-numeric:normal;font-variant-alternates:normal;font-feature-settings:normal;text-indent:0;text-align:start;text-decoration:none;text-decoration-line:none;text-decoration-style:solid;text-decoration-color:#000000;letter-spacing:normal;word-spacing:normal;text-transform:none;writing-mode:lr-tb;direction:ltr;text-orientation:mixed;dominant-baseline:auto;baseline-shift:baseline;text-anchor:start;white-space:normal;shape-padding:0;clip-rule:nonzero;display:inline;overflow:visible;visibility:visible;opacity:1;isolation:auto;mix-blend-mode:normal;color-interpolation:sRGB;color-interpolation-filters:linearRGB;solid-color:#000000;solid-opacity:1;vector-effect:none;fill:#000000;fill-opacity:1;fill-rule:nonzero;stroke:none;stroke-width:1.88866425;stroke-linecap:butt;stroke-linejoin:miter;stroke-miterlimit:4;stroke-dasharray:none;stroke-dashoffset:0;stroke-opacity:1;color-rendering:auto;image-rendering:auto;shape-rendering:auto;text-rendering:auto;enable-background:accumulate"
     d="m 218.64327,0.02486632 c -2.07964,-0.09448 -3.17106,0.10847 -3.35679,0.140131 -0.44173,0.02652 -9.9547,0.60834 -19.97851,8.15963618 -10.25814,7.7277685 -20.87368,22.7386545 -23.46814,50.4996375 l 7.00872,0.656605 c 2.4533,-26.25073 12.03031,-38.99483 20.70155,-45.52716 8.67119,-6.5323167 16.32658,-6.8021327 16.32658,-6.8021327 l 0.28784,-0.01506 0.2731,-0.0589 c 0,0 3.04211,-0.738543 8.28503,1.4459982 5.24294,2.1845815 12.40422,7.3940555 19.17437,20.4507195 3.16756,6.108883 2.97989,10.311916 1.3796,13.884636 -1.60027,3.572667 -5.02551,6.666492 -9.13343,9.096557 -8.21592,4.860104 -18.50303,6.757866 -18.50303,6.757866 l -3.43795,0.604981 0.57542,3.44534 c 4.13645,24.818407 16.79605,62.521509 28.43329,94.270899 10.64296,29.03673 18.76575,48.63907 20.36213,52.52112 l -69.52646,-0.47218 -0.0518,7.04559 80.01741,0.54593 -2.02883,-4.90611 c 0,0 -10.57218,-25.5608 -22.15494,-57.16159 -11.16341,-30.45671 -22.90164,-66.107022 -27.28973,-89.851725 3.73106,-0.850132 10.1092,-2.54721 17.18979,-6.735732 4.85195,-2.870169 9.50432,-6.770298 11.97387,-12.283688 2.4695,-5.51339 2.35006,-12.4804 -1.54931,-20.000688 C 242.78932,11.534003 234.30193,4.8798633 227.43007,2.0166103 223.99416,0.58496332 220.88765,0.12651032 218.64336,0.02463632 Z"
     id="path1428-8"
     inkscape:connector-curvature="0" />
  <path
     style="color:#000000;font-style:normal;font-variant:normal;font-weight:normal;font-stretch:normal;font-size:medium;line-height:normal;font-family:sans-serif;font-variant-ligatures:normal;font-variant-position:normal;font-variant-caps:normal;font-variant-numeric:normal;font-variant-alternates:normal;font-feature-settings:normal;text-indent:0;text-align:start;text-decoration:none;text-decoration-line:none;text-decoration-style:solid;text-decoration-color:#000000;letter-spacing:normal;word-spacing:normal;text-transform:none;writing-mode:lr-tb;direction:ltr;text-orientation:mixed;dominant-baseline:auto;baseline-shift:baseline;text-anchor:start;white-space:normal;shape-padding:0;clip-rule:nonzero;display:inline;overflow:visible;visibility:visible;opacity:1;isolation:auto;mix-blend-mode:normal;color-interpolation:sRGB;color-interpolation-filters:linearRGB;solid-color:#000000;solid-opacity:1;vector-effect:none;fill:#000000;fill-opacity:1;fill-rule:nonzero;stroke:none;stroke-width:1.88866425;stroke-linecap:butt;stroke-linejoin:miter;stroke-miterlimit:4;stroke-dasharray:none;stroke-dashoffset:0;stroke-opacity:1;color-rendering:auto;image-rendering:auto;shape-rendering:auto;text-rendering:auto;enable-background:accumulate"
     d="m 172.13424,55.46059 -2.83232,80.81372 7.03822,0.22852 2.52315,-77.236016 z"
     id="path1430-4"
     inkscape:connector-curvature="0"
     sodipodi:nodetypes="ccccc" />
  <g
     aria-label="ð“†š"
     transform="matrix(2.4429288,0,0,2.4429288,2629.094,753.27751)"
     style="font-style:normal;font-variant:normal;font-weight:normal;font-stretch:normal;font-size:192px;line-height:1.25;font-family:sans-serif;-inkscape-font-specification:sans-serif;font-variant-ligatures:normal;font-variant-caps:normal;font-variant-numeric:normal;font-feature-settings:normal;text-align:start;letter-spacing:0px;word-spacing:0px;writing-mode:lr-tb;text-anchor:start;fill:#000000;fill-opacity:1;stroke:none"
     id="flowRoot855">
    <path
       id="path863"
       transform="matrix(0.30700854,0,0,0.30700854,-773.67633,-304.23601)"
       style="stroke-width:3.25723839"
       d="m -911.97461,113.02734 c -2.6464,0.20347 -5.39406,0.30469 -8.24414,0.30469 l -9.16211,1.22266 c -6.31101,1.01788 -12.51963,2.13595 -18.62695,3.35742 l -18.32227,3.66601 -4.58008,5.80079 c 0,8.55025 1.52653,14.35259 4.58008,17.40625 3.25724,3.05366 8.55012,4.58007 15.87891,4.58007 l 3.35937,-0.30468 c 4.071,0 8.55046,0.30544 13.43555,0.91601 -6.71816,18.11839 -10.07617,37.04987 -10.07617,56.79688 0,22.16053 0.62429,41.59772 1.86914,58.32617 3.21212,-0.38228 6.43194,-0.57649 9.6543,-0.60547 -1.16444,-16.29842 -1.75391,-35.51201 -1.75391,-57.71875 0,-10.38245 0.91769,-20.46071 2.75,-30.23242 2.03577,-9.77172 5.08861,-19.44163 9.16016,-29.00977 l -3.35938,-6.10742 c -3.46071,-0.61073 -6.92189,-1.11823 -10.38281,-1.52539 -3.25724,-0.61073 -6.61547,-0.91601 -10.07617,-0.91601 l -8.2461,0.30468 c -2.23924,0 -3.96799,-0.20417 -5.18945,-0.61133 -0.81431,-1.22146 -1.22266,-2.5437 -1.22266,-3.96875 l -0.60937,-4.27539 16.79492,-3.35937 c 3.86808,-0.61073 9.36318,-1.52658 16.48828,-2.74805 7.12532,-1.22146 12.62237,-1.83203 16.49024,-1.83203 5.90385,0 10.38199,1.73059 13.43554,5.19141 3.25724,3.46081 5.1919,9.87372 5.80274,19.23828 1.01778,1.22146 1.52734,2.13731 1.52734,2.74805 5.70017,5.08943 9.66874,9.87285 11.9082,14.35156 2.44293,4.27512 3.66407,8.65215 3.66407,13.13086 0,9.36456 -7.42976,28.90856 -22.29102,58.63086 -5.3397,10.60632 -9.7039,20.24889 -13.125,28.96289 2.91674,0.003 5.83359,0.004 8.75,0.002 0.52211,-5e-5 1.04427,-8e-5 1.56641,0 3.31989,-8.28488 7.50035,-17.41726 12.58203,-27.43945 14.86126,-29.11157 22.29101,-49.46836 22.29101,-61.07227 0,-5.29301 -1.32213,-10.58589 -3.96875,-15.8789 -2.44293,-5.29302 -6.82006,-10.79007 -13.13086,-16.49024 -0.81431,-11.80749 -3.76592,-19.84792 -8.85546,-24.12305 -5.08933,-4.4787 -12.01169,-6.71875 -20.76563,-6.71875 z"
       inkscape:connector-curvature="0"
       sodipodi:nodetypes="ccccccccccsccscccccccccccsccccscccccsccccc" />
  </g>
</svg>
