<?xml version="1.0" encoding="UTF-8" standalone="no"?>
<svg
   xmlns:dc="http://purl.org/dc/elements/1.1/"
   xmlns:cc="http://creativecommons.org/ns#"
   xmlns:rdf="http://www.w3.org/1999/02/22-rdf-syntax-ns#"
   xmlns:svg="http://www.w3.org/2000/svg"
   xmlns="http://www.w3.org/2000/svg"
   xmlns:sodipodi="http://sodipodi.sourceforge.net/DTD/sodipodi-0.dtd"
   xmlns:inkscape="http://www.inkscape.org/namespaces/inkscape"
   version="1.0"
   width="176.80533pt"
   height="124.5906pt"
   viewBox="0 0 176.80533 124.5906"
   preserveAspectRatio="xMidYMid meet"
   id="svg10"
   sodipodi:docname="F57.svg"
   inkscape:version="0.92.4 (5da689c313, 2019-01-14)">
  <defs
     id="defs14" />
  <sodipodi:namedview
     pagecolor="#ffffff"
     bordercolor="#666666"
     borderopacity="1"
     objecttolerance="10"
     gridtolerance="10"
     guidetolerance="10"
     inkscape:pageopacity="0"
     inkscape:pageshadow="2"
     inkscape:window-width="1920"
     inkscape:window-height="1017"
     id="namedview12"
     showgrid="false"
     fit-margin-top="0"
     fit-margin-left="0"
     fit-margin-right="0"
     fit-margin-bottom="0"
     inkscape:zoom="1.1066176"
     inkscape:cx="0.93216111"
     inkscape:cy="84.120795"
     inkscape:window-x="-8"
     inkscape:window-y="-8"
     inkscape:window-maximized="1"
     inkscape:current-layer="svg10" />
  <metadata
     id="metadata2">
Created by potrace 1.10, written by Peter Selinger 2001-2011
<rdf:RDF>
  <cc:Work
     rdf:about="">
    <dc:format>image/svg+xml</dc:format>
    <dc:type
       rdf:resource="http://purl.org/dc/dcmitype/StillImage" />
    <dc:title></dc:title>
  </cc:Work>
</rdf:RDF>
</metadata>
  <g
     transform="matrix(0.1,0,0,-0.1,-11.161344,135)"
     id="g8"
     style="fill:#000000;stroke:none">
    <path
       d="m 327,1330 c -32,-25 -67,-81 -67,-107 0,-13 34,-44 104,-95 103,-76 103,-77 110,-126 3,-27 2,-61 -4,-76 -13,-34 -47,-35 -60,-1 -8,20 -16,25 -44,25 -18,0 -39,-6 -45,-14 -7,-8 -31,-18 -54,-21 -41,-7 -97,-53 -97,-79 0,-6 -14,-26 -30,-44 -37,-41 -38,-65 -2,-107 15,-17 39,-53 54,-78 24,-42 31,-47 62,-47 20,0 52,-9 73,-20 44,-23 80,-17 85,13 4,26 26,34 34,12 5,-12 -2,-25 -22,-41 -16,-13 -33,-23 -37,-24 -4,0 -53,-34 -107,-75 -103,-78 -113,-93 -87,-138 27,-49 79,-107 96,-107 15,0 215,151 246,185 6,7 30,27 55,45 25,19 55,44 68,56 30,29 40,30 265,24 186,-5 188,-5 207,-30 17,-22 43,-73 148,-289 34,-69 58,-80 109,-54 82,44 103,59 109,77 4,12 -28,86 -91,212 -55,109 -95,200 -91,209 7,21 71,43 209,74 85,19 157,9 201,-28 52,-45 85,-186 86,-376 1,-176 10,-204 55,-155 16,17 17,37 12,192 -2,103 -10,187 -17,208 -55,151 -86,190 -172,219 -34,12 -81,21 -104,21 -24,0 -55,5 -71,11 -15,6 -46,14 -68,19 -66,14 -120,38 -117,52 3,15 48,55 77,69 11,5 27,13 35,18 49,27 80,41 97,41 21,0 106,29 141,48 31,18 28,51 -10,122 -36,65 -60,80 -99,59 -13,-7 -37,-16 -54,-20 -108,-27 -254,-96 -346,-164 l -61,-45 H 899 690 l -20,40 c -11,21 -20,46 -20,55 0,16 -22,60 -53,106 -9,14 -37,40 -62,58 -24,17 -52,39 -61,49 -35,35 -78,62 -100,62 -12,0 -33,-9 -47,-20 z m 75,-63 c 7,-7 40,-34 74,-60 66,-52 91,-89 125,-187 35,-102 26,-99 301,-100 h 236 l 81,60 c 45,33 87,60 94,60 7,0 17,4 22,9 10,10 74,35 130,51 17,5 52,17 78,26 52,18 62,14 72,-26 5,-22 1,-28 -30,-43 -20,-9 -42,-17 -50,-17 -8,0 -31,-7 -52,-16 -94,-40 -109,-47 -123,-55 -8,-5 -25,-13 -37,-18 -38,-17 -94,-81 -91,-104 3,-22 72,-76 99,-77 8,0 26,-11 39,-24 l 23,-25 -29,-6 c -47,-10 -108,-43 -121,-64 -13,-21 -9,-41 22,-106 88,-188 122,-256 143,-287 24,-37 23,-58 -2,-58 -8,0 -19,-7 -26,-15 -7,-8 -16,-15 -21,-15 -5,0 -25,35 -45,78 -19,42 -40,84 -45,92 -5,8 -12,22 -15,30 -37,90 -75,147 -115,170 -34,18 -54,20 -238,20 -168,0 -207,-3 -234,-16 -32,-17 -144,-98 -162,-118 -5,-6 -54,-47 -108,-90 -95,-77 -98,-78 -117,-61 -32,29 -24,51 38,94 31,23 85,61 119,86 102,73 112,104 51,164 -39,38 -91,43 -108,10 -10,-17 -18,-20 -53,-14 -55,8 -85,24 -93,48 -3,10 -15,28 -25,38 -24,24 -24,44 1,69 11,11 20,27 20,35 0,18 32,39 84,55 36,12 41,11 57,-9 25,-30 88,-29 126,3 45,38 59,93 43,163 -16,73 -30,91 -124,154 -42,28 -76,56 -76,61 0,19 21,48 35,48 7,0 20,-6 27,-13 z"
       id="path4"
       inkscape:connector-curvature="0" />
    <path
       d="m 308,805 c -26,-35 -23,-106 5,-147 21,-32 23,-32 40,-15 13,13 15,22 7,37 -13,24 -13,81 -1,113 8,20 6,27 -5,31 -23,9 -28,7 -46,-19 z"
       id="path6"
       inkscape:connector-curvature="0" />
  </g>
</svg>
