<?xml version="1.0" encoding="UTF-8" standalone="no"?>
<svg
   xmlns:dc="http://purl.org/dc/elements/1.1/"
   xmlns:cc="http://creativecommons.org/ns#"
   xmlns:rdf="http://www.w3.org/1999/02/22-rdf-syntax-ns#"
   xmlns:svg="http://www.w3.org/2000/svg"
   xmlns="http://www.w3.org/2000/svg"
   xmlns:sodipodi="http://sodipodi.sourceforge.net/DTD/sodipodi-0.dtd"
   xmlns:inkscape="http://www.inkscape.org/namespaces/inkscape"
   version="1.0"
   width="377.85284pt"
   height="155.82161pt"
   viewBox="0 0 377.85284 155.82161"
   preserveAspectRatio="xMidYMid meet"
   id="svg8"
   sodipodi:docname="F58.svg"
   inkscape:version="0.92.4 (5da689c313, 2019-01-14)">
  <defs
     id="defs12" />
  <sodipodi:namedview
     pagecolor="#ffffff"
     bordercolor="#666666"
     borderopacity="1"
     objecttolerance="10"
     gridtolerance="10"
     guidetolerance="10"
     inkscape:pageopacity="0"
     inkscape:pageshadow="2"
     inkscape:window-width="1920"
     inkscape:window-height="1017"
     id="namedview10"
     showgrid="false"
     fit-margin-top="0"
     fit-margin-left="0"
     fit-margin-right="0"
     fit-margin-bottom="0"
     inkscape:zoom="0.55740741"
     inkscape:cx="16.498102"
     inkscape:cy="123.09548"
     inkscape:window-x="-8"
     inkscape:window-y="-8"
     inkscape:window-maximized="1"
     inkscape:current-layer="svg8" />
  <metadata
     id="metadata2">
Created by potrace 1.10, written by Peter Selinger 2001-2011
<rdf:RDF>
  <cc:Work
     rdf:about="">
    <dc:format>image/svg+xml</dc:format>
    <dc:type
       rdf:resource="http://purl.org/dc/dcmitype/StillImage" />
    <dc:title></dc:title>
  </cc:Work>
</rdf:RDF>
</metadata>
  <g
     transform="matrix(0.1,0,0,-0.1,-11.172935,164)"
     id="g6"
     style="fill:#000000;stroke:none">
    <path
       d="m 1396,1616 c -40,-22 -49,-34 -115,-161 -21,-38 -55,-97 -77,-130 -21,-33 -41,-64 -44,-70 -14,-28 -82,-127 -98,-143 -10,-10 -47,-55 -83,-101 C 944,966 895,903 870,871 845,840 773,767 710,710 647,653 586,598 575,587 543,558 218,341 175,321 131,301 109,265 112,219 c 3,-42 4,-43 58,-60 197,-63 506,-94 685,-68 39,5 99,14 135,18 137,19 379,100 480,162 8,5 22,12 30,16 8,4 43,26 78,50 35,24 66,43 70,43 4,0 67,58 140,130 l 132,130 965,2 c 958,3 965,3 985,24 20,20 21,30 20,440 0,230 0,435 0,455 0,33 -5,39 -40,58 -41,21 -41,21 -1228,21 l -1187,-1 z m 2334,-480 c 0,-286 -2,-325 -16,-330 -9,-3 -432,-6 -941,-6 -835,0 -927,-2 -951,-16 -15,-9 -56,-52 -92,-95 -71,-86 -240,-220 -325,-258 -27,-13 -75,-35 -105,-50 -30,-15 -82,-35 -115,-45 -33,-10 -76,-25 -95,-32 -74,-29 -178,-39 -405,-39 -144,0 -232,4 -235,10 -3,6 45,48 107,95 180,137 192,148 328,285 187,187 224,230 320,370 81,117 129,189 140,207 66,113 130,214 139,220 6,4 514,8 1129,8 h 1117 z"
       id="path4"
       inkscape:connector-curvature="0" />
  </g>
</svg>
