<?xml version="1.0" encoding="UTF-8" standalone="no"?>
<svg
   xmlns:dc="http://purl.org/dc/elements/1.1/"
   xmlns:cc="http://creativecommons.org/ns#"
   xmlns:rdf="http://www.w3.org/1999/02/22-rdf-syntax-ns#"
   xmlns:svg="http://www.w3.org/2000/svg"
   xmlns="http://www.w3.org/2000/svg"
   xmlns:sodipodi="http://sodipodi.sourceforge.net/DTD/sodipodi-0.dtd"
   xmlns:inkscape="http://www.inkscape.org/namespaces/inkscape"
   version="1.0"
   width="82.054688pt"
   height="48.65625pt"
   viewBox="0 0 82.054687 48.65625"
   preserveAspectRatio="xMidYMid meet"
   id="svg8"
   sodipodi:docname="F59.svg"
   inkscape:version="0.92.4 (5da689c313, 2019-01-14)">
  <defs
     id="defs12" />
  <sodipodi:namedview
     pagecolor="#ffffff"
     bordercolor="#666666"
     borderopacity="1"
     objecttolerance="10"
     gridtolerance="10"
     guidetolerance="10"
     inkscape:pageopacity="0"
     inkscape:pageshadow="2"
     inkscape:window-width="1920"
     inkscape:window-height="1017"
     id="namedview10"
     showgrid="false"
     fit-margin-top="0"
     fit-margin-left="0"
     fit-margin-right="0"
     fit-margin-bottom="0"
     inkscape:zoom="2.3035714"
     inkscape:cx="144.93547"
     inkscape:cy="-17.060196"
     inkscape:window-x="-8"
     inkscape:window-y="-8"
     inkscape:window-maximized="1"
     inkscape:current-layer="svg8" />
  <metadata
     id="metadata2">
Created by potrace 1.10, written by Peter Selinger 2001-2011
<rdf:RDF>
  <cc:Work
     rdf:about="">
    <dc:format>image/svg+xml</dc:format>
    <dc:type
       rdf:resource="http://purl.org/dc/dcmitype/StillImage" />
    <dc:title></dc:title>
  </cc:Work>
</rdf:RDF>
</metadata>
  <g
     transform="matrix(0.1,0,0,-0.1,184.72485,95.451398)"
     id="g6"
     style="fill:#000000;stroke:none">
    <path
       d="m 316,598 c -18,-29 -37,-60 -42,-69 -8,-15 -20,-11 -94,32 -91,52 -124,61 -118,32 2,-10 37,-37 78,-61 41,-23 81,-47 89,-51 12,-7 7,-22 -28,-76 -23,-37 -40,-74 -37,-81 11,-30 37,-11 72,54 21,37 39,69 40,71 4,4 174,-88 174,-95 0,-2 -18,-34 -41,-69 -23,-36 -38,-72 -35,-80 12,-33 34,-15 77,63 18,34 37,62 40,62 4,0 43,-21 88,-46 l 82,-46 -32,-56 c -18,-31 -36,-63 -42,-69 -5,-7 -7,-20 -3,-28 10,-27 35,-4 75,68 l 37,66 84,-49 c 84,-49 113,-59 125,-41 9,15 -18,35 -105,80 l -81,42 32,57 c 18,31 37,65 43,74 7,12 7,21 -1,29 -17,17 -28,5 -73,-71 l -40,-69 -83,51 c -45,28 -83,51 -84,52 0,0 17,31 39,68 37,62 44,98 19,98 -6,0 -30,-33 -54,-74 l -43,-74 -82,46 c -45,26 -82,50 -82,54 0,3 18,37 39,74 22,38 37,72 35,76 -13,20 -37,4 -68,-44 z"
       id="path4"
       inkscape:connector-curvature="0" />
  </g>
  <g
     aria-label="𓄧"
     style="font-style:normal;font-variant:normal;font-weight:normal;font-stretch:normal;font-size:144px;line-height:1.25;font-family:sans-serif;-inkscape-font-specification:sans-serif;font-variant-ligatures:normal;font-variant-caps:normal;font-variant-numeric:normal;font-feature-settings:normal;text-align:start;letter-spacing:0px;word-spacing:0px;writing-mode:lr-tb;text-anchor:start;fill:#000000;fill-opacity:1;stroke:none;stroke-width:0.75"
     id="text818"
     transform="matrix(-1,0,0,1,-90.590836,30.409286)">
    <path
       d="m -159.49709,-8.4717865 3.16407,-1.4765625 5.48437,11.7421875 18.5625,-8.71875 -5.48437,-11.8124995 3.16406,-1.40625 5.48437,11.742187 18.70313,-8.789062 -5.55469,-11.8125 3.16406,-1.40625 5.48438,11.742187 15.187499,-7.101562 1.546875,3.164062 -15.187504,7.101563 5.55469,11.8124995 -3.16406,1.40625 -5.55469,-11.8124995 -18.63281,8.8593745 5.55469,11.8125 -3.16407,1.40625 -5.55468,-11.8125 -18.5625,8.7890625 5.55468,11.8125 -3.16406,1.476563 -5.55469,-11.8125005 -18.63281,8.7890625 c -1.54687,-3.164062 0,0 -1.54687,-3.164062 l 18.70312,-8.789063 z"
       style="stroke-width:0.75"
       id="path820"
       inkscape:connector-curvature="0"
       sodipodi:nodetypes="ccccccccccccccccccccccccccccc" />
  </g>
</svg>
