<?xml version="1.0" encoding="UTF-8" standalone="no"?>
<!-- Created with Inkscape (http://www.inkscape.org/) -->

<svg
   xmlns:dc="http://purl.org/dc/elements/1.1/"
   xmlns:cc="http://creativecommons.org/ns#"
   xmlns:rdf="http://www.w3.org/1999/02/22-rdf-syntax-ns#"
   xmlns:svg="http://www.w3.org/2000/svg"
   xmlns="http://www.w3.org/2000/svg"
   xmlns:sodipodi="http://sodipodi.sourceforge.net/DTD/sodipodi-0.dtd"
   xmlns:inkscape="http://www.inkscape.org/namespaces/inkscape"
   width="33.213474mm"
   height="37.802357mm"
   viewBox="0 0 33.213474 37.802357"
   version="1.1"
   id="svg36581"
   inkscape:version="0.92.4 (5da689c313, 2019-01-14)"
   sodipodi:docname="F6.svg">
  <defs
     id="defs36575" />
  <sodipodi:namedview
     id="base"
     pagecolor="#ffffff"
     bordercolor="#666666"
     borderopacity="1.0"
     inkscape:pageopacity="0.0"
     inkscape:pageshadow="2"
     inkscape:zoom="0.35"
     inkscape:cx="-326.11523"
     inkscape:cy="-354.76042"
     inkscape:document-units="mm"
     inkscape:current-layer="layer1"
     showgrid="false"
     fit-margin-top="0"
     fit-margin-left="0"
     fit-margin-right="0"
     fit-margin-bottom="0"
     inkscape:window-width="1920"
     inkscape:window-height="1017"
     inkscape:window-x="-8"
     inkscape:window-y="-8"
     inkscape:window-maximized="1" />
  <metadata
     id="metadata36578">
    <rdf:RDF>
      <cc:Work
         rdf:about="">
        <dc:format>image/svg+xml</dc:format>
        <dc:type
           rdf:resource="http://purl.org/dc/dcmitype/StillImage" />
        <dc:title></dc:title>
      </cc:Work>
    </rdf:RDF>
  </metadata>
  <g
     inkscape:label="Layer 1"
     inkscape:groupmode="layer"
     id="layer1"
     transform="translate(1.0278442,-17.167282)">
    <g
       aria-label="𓄄"
       transform="scale(0.26458333)"
       style="font-style:normal;font-variant:normal;font-weight:normal;font-stretch:normal;font-size:192px;line-height:1.25;font-family:sans-serif;-inkscape-font-specification:sans-serif;font-variant-ligatures:normal;font-variant-caps:normal;font-variant-numeric:normal;font-feature-settings:normal;text-align:start;letter-spacing:0px;word-spacing:0px;writing-mode:lr-tb;text-anchor:start;fill:#000000;fill-opacity:1;stroke:none"
       id="flowRoot37126">
      <path
         d="m 25.365234,115.60297 h 17.34375 q 4.3125,-1.59375 7.125,-3.9375 2.90625,-2.4375 4.78125,-5.34375 1.96875,-3 3.1875,-6.375002 1.21875,-3.375 2.25,-6.9375 1.21875,-4.40625 2.34375,-8.8125 1.125,-4.40625 3.09375,-8.15625 1.96875,-3.84375 5.15625,-6.75 3.1875,-2.90625 8.625,-4.40625 l 0.1875,0.75 q -3.46875,1.5 -5.71875,3.65625 -2.25,2.15625 -3.75,4.78125 -1.40625,2.625 -2.25,5.71875 -0.75,3.09375 -1.21875,6.46875 -0.75,5.15625 -1.40625,8.90625 -0.5625,3.75 -1.21875,6.562502 -0.65625,2.71875 -1.40625,4.78125 -0.75,1.96875 -1.6875,3.65625 l 1.78125,-0.0937 q 3.84375,-1.3125 9.84375,-2.0625 6.09375,-0.75 9.375,-1.78125 3.375,-1.03125 10.59375,-5.71875 l 1.78125,2.34375 q -6.46875,8.34375 -13.875,15 -7.3125,6.5625 -16.6875,10.5 5.625,6.65625 15.375,9.46875 3.1875,0.9375 5.71875,1.59375 2.625,0.5625 5.8125,0.9375 3.1875,0.28125 7.40625,0.46875 4.218746,0.0937 10.687496,0.0937 3.375,0 5.25,1.3125 1.875,1.3125 1.875,3.1875 0,1.3125 -0.375,2.71875 -0.375,1.3125 -0.84375,2.53125 -1.59375,4.5 -3.09375,8.53125 -1.5,3.9375 -3.28125,8.71875 -3.5625,9.5625 -3.5625,13.21875 0,1.21875 0.375,1.96875 l -1.5,1.96875 q -4.781246,0 -9.281246,-0.1875 -4.5,-0.28125 -9,-1.03125 -0.46875,3.65625 -2.4375,5.90625 -1.875,2.25 -4.78125,3.5625 0.75,0.1875 3.28125,0.65625 2.625,0.46875 7.125,1.40625 8.625,1.78125 24.187496,1.78125 l 1.40625,1.03125 q 1.03125,-1.125 2.15625,-2.15625 l 1.875,-0.0937 q 1.78125,1.21875 2.71875,3.46875 0.9375,2.25 0.9375,6.84375 l -1.59375,1.5 -8.8125,-1.96875 q -5.90625,-1.3125 -11.437496,-1.875 -5.4375,-0.65625 -9.375,-0.65625 -0.84375,0 -1.875,0.0937 -1.03125,0 -3.375,0.28125 -2.34375,0.1875 -6.46875,0.65625 -4.125,0.375 -11.15625,1.125 -5.34375,0.75 -9.84375,1.21875 -1.875,0.1875 -3.84375,0.375 -1.875,0.28125 -3.46875,0.375 -1.59375,0.1875 -2.8125,0.28125 -1.125,0.0937 -1.59375,0.0937 -5.25,0 -8.625,-3.65625 -1.03125,-1.03125 -1.5,-2.15625 -0.375,-1.21875 -0.375,-2.34375 0,-1.6875 1.125,-3.65625 2.625,-4.3125 11.0625,-7.59375 8.4375,-3.28125 15.1875,-3.28125 0,-1.875 0.1875,-4.03125 0.28125,-2.25 0.375,-5.625 0,-5.25 -1.40625,-7.6875 -0.65625,-1.21875 -2.0625,-2.71875 -1.40625,-1.59375 -4.6875,-4.3125 -4.21875,-3.75 -8.71875,-7.21875 -4.40625,-3.46875 -8.4375,-7.5 -2.90625,0.75 -5.53125,1.875 -2.625,1.03125 -5.0625,2.53125 l -9.9375,5.90625 -3.75,2.53125 q -1.875,1.3125 -2.90625,1.78125 -1.0312496,0.375 -2.5312496,0.375 -3.65625,0 -5.625,-2.4375 -1.96875002,-2.53125 -1.96875002,-3.9375 0.37500002,-4.21875 2.53125002,-8.0625 2.15625,-3.84375 5.4375,-6.28125 0.1875,-0.46875 0.84375,-2.15625 0.6562496,-1.6875 1.8749996,-4.6875 2.34375,-6 6.5625,-7.03125 0.84375,-0.84375 1.6875,-2.53125 0.9375,-1.78125 1.125,-2.90625 -4.21875,-2.71875 -6.65625,-5.71875 -2.4375,-3.09375 -3.75,-6.375 -1.3124996,-3.375 -1.8749996,-6.84375 -0.46875,-3.562502 -0.84375,-7.218752 -0.375,-3.46875 -0.84375,-7.125 -0.46875,-3.65625 -1.6875,-7.3125 -1.125,-3.65625 -3.28125,-7.40625 -2.15625003,-3.75 -5.8125,-7.40625 l 0.28125,-0.375 q 4.78125,2.15625 7.78125,5.34375 3.09375,3.09375 4.96875,6.84375 1.8749996,3.65625 2.9062496,7.78125 1.125,4.125 1.875,8.34375 0.9375,4.96875 1.78125,8.531252 0.84375,3.46875 2.0625,6.09375 1.21875,2.53125 3,4.3125 1.78125,1.78125 4.59375,3.1875 z m -0.75,3 q -0.46875,2.71875 -1.21875,4.6875 -0.75,1.96875 -1.40625,3.09375 l -1.875,2.25 q -1.21875,0.9375 -3,1.875 -1.78125,0.9375 -3.65625,6.28125 l -0.9375,2.71875 q -1.125,2.8125 -2.8124996,3.9375 -1.6875,1.125 -3.375,3.9375 -1.59375,2.8125 -2.4375,7.3125 1.03125,2.0625 2.0625,2.625 1.03125,0.5625 3.46875,0.5625 1.5937496,-1.03125 3.4687496,-2.15625 1.59375,-1.03125 3.65625,-2.25 2.0625,-1.21875 4.3125,-2.625 9,-5.625 16.875,-7.875 1.21875,-1.5 2.53125,-4.875 1.40625,-3.375 1.40625,-7.875 0,-0.46875 0,-1.03125 0,-0.5625 -0.09375,-1.21875 l 3,-0.28125 v 1.78125 q 0,1.3125 -0.1875,2.90625 -0.09375,1.59375 -0.46875,3.5625 -0.5625,4.03125 -2.25,6.65625 l -1.03125,1.59375 q 1.78125,1.6875 4.59375,4.21875 2.8125,2.4375 6.84375,5.71875 8.0625,6.46875 11.15625,10.03125 3.1875,3.46875 3.1875,11.625 0,3.5625 -0.28125,6.09375 -0.28125,2.53125 -0.375,4.6875 l -1.59375,1.5 q -8.34375,0 -16.78125,3.75 -8.4375,3.65625 -8.90625,8.0625 1.40625,2.71875 3.1875,3.84375 1.78125,1.03125 4.21875,1.03125 2.53125,0 7.78125,-0.5625 5.34375,-0.65625 14.0625,-1.6875 8.71875,-1.03125 13.875,-1.59375 5.25,-0.5625 7.125,-0.5625 5.34375,0 12.937496,1.03125 7.6875,0.9375 16.96875,3 0,-1.40625 -0.375,-2.71875 -0.375,-1.40625 -1.125,-2.53125 -0.9375,1.03125 -1.3125,1.5 -0.375,0.375 -0.5625,0.75 -0.46875,0.1875 -0.84375,0.375 -0.28125,0.0937 -0.46875,0.1875 -0.75,0 -1.3125,-0.5625 -0.5625,-0.65625 -0.9375,-1.21875 -15.937496,0 -24.937496,-1.96875 -9,-2.0625 -12.5625,-2.25 h -1.59375 q -4.3125,0 -8.8125,0.9375 -4.40625,0.9375 -8.625,2.0625 l -1.875,-1.78125 q 0,-1.875 2.0625,-2.90625 2.0625,-1.03125 4.6875,-1.03125 6.28125,0 10.59375,-0.75 4.3125,-0.75 6.84375,-2.15625 2.625,-1.40625 3.75,-3.375 1.125,-2.0625 1.125,-4.59375 l 1.875,-1.6875 q 4.3125,0.75 8.53125,1.125 4.3125,0.28125 8.812496,0.28125 0,-0.75 -0.0937,-1.03125 0,-4.03125 4.03125,-15 2.0625,-5.625 3.46875,-9.1875 1.40625,-3.65625 2.15625,-5.53125 1.5,-3.65625 1.5,-5.8125 0,-0.46875 -0.65625,-0.75 -0.5625,-0.375 -1.5,-0.5625 -0.9375,-0.1875 -2.0625,-0.1875 -1.03125,-0.0937 -1.875,-0.0937 h -8.062496 q -5.53125,0 -10.875,-0.9375 -5.34375,-1.03125 -10.6875,-2.625 -10.6875,-3.375 -17.0625,-11.90625 l 0.75,-2.15625 q 7.96875,-3 14.25,-7.875 6.28125,-4.96875 11.71875,-11.15625 -3,1.59375 -6.5625,2.625 -3.5625,1.03125 -7.78125,1.40625 -8.25,0.65625 -12.5625,3.46875 -2.15625,1.3125 -3.5625,2.34375 -1.3125,0.9375 -2.0625,1.5 l -2.71875,-3.9375 q -1.5,1.125 -2.90625,1.96875 -1.21875,0.75 -2.53125,1.40625 -1.21875,0.5625 -1.96875,0.5625 z m 4.3125,12.09375 q -2.71875,2.15625 -4.21875,2.15625 -1.78125,0 -2.0625,-2.71875 v -0.75 q 0,-1.6875 1.125,-1.6875 1.59375,0 5.15625,3 z"
         id="path37134"
         inkscape:connector-curvature="0" />
    </g>
  </g>
</svg>
