<?xml version="1.0" encoding="UTF-8" standalone="no"?>
<svg
   xmlns:dc="http://purl.org/dc/elements/1.1/"
   xmlns:cc="http://creativecommons.org/ns#"
   xmlns:rdf="http://www.w3.org/1999/02/22-rdf-syntax-ns#"
   xmlns:svg="http://www.w3.org/2000/svg"
   xmlns="http://www.w3.org/2000/svg"
   xmlns:sodipodi="http://sodipodi.sourceforge.net/DTD/sodipodi-0.dtd"
   xmlns:inkscape="http://www.inkscape.org/namespaces/inkscape"
   version="1.0"
   width="254.43713pt"
   height="252.88051pt"
   viewBox="0 0 254.43713 252.88051"
   preserveAspectRatio="xMidYMid meet"
   id="svg8"
   sodipodi:docname="F60.svg"
   inkscape:version="0.92.4 (5da689c313, 2019-01-14)">
  <defs
     id="defs12" />
  <sodipodi:namedview
     pagecolor="#ffffff"
     bordercolor="#666666"
     borderopacity="1"
     objecttolerance="10"
     gridtolerance="10"
     guidetolerance="10"
     inkscape:pageopacity="0"
     inkscape:pageshadow="2"
     inkscape:window-width="1920"
     inkscape:window-height="1017"
     id="namedview10"
     showgrid="false"
     fit-margin-top="0"
     fit-margin-left="0"
     fit-margin-right="0"
     fit-margin-bottom="0"
     inkscape:zoom="0.60824742"
     inkscape:cx="-49.327684"
     inkscape:cy="180.50734"
     inkscape:window-x="-8"
     inkscape:window-y="-8"
     inkscape:window-maximized="1"
     inkscape:current-layer="svg8" />
  <metadata
     id="metadata2">
Created by potrace 1.10, written by Peter Selinger 2001-2011
<rdf:RDF>
  <cc:Work
     rdf:about="">
    <dc:format>image/svg+xml</dc:format>
    <dc:type
       rdf:resource="http://purl.org/dc/dcmitype/StillImage" />
    <dc:title></dc:title>
  </cc:Work>
</rdf:RDF>
</metadata>
  <g
     transform="matrix(0.1,0,0,-0.1,-11,263)"
     id="g6"
     style="fill:#000000;stroke:none">
    <path
       d="m 1778,2589 c -22,-23 -44,-51 -49,-63 -14,-29 -30,-55 -59,-96 -14,-19 -29,-42 -35,-52 -30,-52 -138,-202 -192,-268 -7,-8 -25,-32 -40,-52 -90,-119 -143,-182 -223,-267 -9,-9 -54,-59 -100,-111 C 973,1561 992,1582 875,1454 820,1394 698,1266 604,1170 404,966 404,966 329,858 230,715 163,564 140,430 c -5,-25 -13,-58 -19,-73 -6,-16 -11,-52 -11,-81 0,-44 4,-56 28,-79 26,-25 34,-27 118,-27 49,0 161,7 249,15 88,8 200,15 249,15 48,0 144,7 211,16 68,9 130,14 138,11 8,-3 17,-21 21,-40 3,-18 18,-45 32,-58 l 26,-24 616,-3 c 339,-2 640,0 668,3 68,8 104,41 104,96 0,38 -16,77 -60,144 -11,17 -24,39 -30,50 -5,11 -26,47 -45,80 -19,33 -39,69 -45,80 -6,11 -20,36 -31,55 -62,103 -89,184 -89,260 0,32 7,63 15,74 8,11 15,25 15,32 0,7 23,50 51,96 27,46 56,92 62,103 23,38 72,100 126,157 29,32 69,82 87,112 34,54 34,54 18,93 -9,21 -20,45 -25,53 -5,8 -14,24 -19,35 -6,11 -18,32 -28,47 -17,27 -183,296 -205,333 -7,11 -30,45 -52,75 -22,30 -44,63 -50,72 -14,23 -79,118 -145,209 -30,43 -73,103 -95,135 -22,32 -57,75 -79,96 -33,33 -45,38 -84,38 -40,0 -50,-5 -84,-41 z m 177,-280 c 44,-62 105,-146 136,-188 30,-42 80,-116 110,-164 30,-48 62,-100 71,-115 10,-15 22,-36 28,-47 5,-11 39,-65 75,-120 35,-55 72,-115 81,-133 16,-31 16,-33 -10,-65 -109,-134 -242,-320 -262,-367 -37,-85 -51,-110 -60,-110 -12,0 -89,49 -129,82 -11,9 -111,84 -221,166 -111,83 -208,157 -215,164 -8,8 -46,38 -85,68 -153,119 -194,154 -194,168 0,13 45,77 79,113 20,20 46,51 96,114 22,28 46,57 55,66 16,16 49,57 97,121 15,20 49,63 74,95 25,32 49,65 52,73 21,45 121,190 132,190 6,0 46,-50 90,-111 z m -745,-786 c 14,-9 39,-28 56,-42 99,-84 186,-154 277,-223 50,-40 67,-59 67,-77 0,-13 -34,-94 -76,-180 -42,-86 -117,-239 -166,-341 -50,-102 -97,-199 -105,-215 -14,-29 -22,-32 -97,-44 -44,-7 -126,-17 -181,-22 -55,-5 -131,-13 -170,-19 -38,-5 -113,-10 -165,-10 -52,-1 -151,-7 -220,-14 -69,-7 -128,-11 -133,-9 -12,7 -8,57 8,103 8,23 15,51 15,62 0,38 130,274 170,308 3,3 23,28 44,55 20,28 121,137 224,244 201,208 236,245 339,363 38,42 73,77 78,77 6,1 22,-7 35,-16 z m 714,-553 c 169,-129 184,-144 197,-195 26,-105 150,-365 215,-452 50,-67 80,-63 -501,-63 -289,0 -525,3 -525,8 0,11 398,802 411,819 7,7 18,13 25,11 7,-2 87,-59 178,-128 z"
       id="path4"
       inkscape:connector-curvature="0" />
  </g>
</svg>
