<?xml version="1.0" encoding="UTF-8" standalone="no"?>
<!-- Created with Inkscape (http://www.inkscape.org/) -->

<svg
   xmlns:dc="http://purl.org/dc/elements/1.1/"
   xmlns:cc="http://creativecommons.org/ns#"
   xmlns:rdf="http://www.w3.org/1999/02/22-rdf-syntax-ns#"
   xmlns:svg="http://www.w3.org/2000/svg"
   xmlns="http://www.w3.org/2000/svg"
   xmlns:sodipodi="http://sodipodi.sourceforge.net/DTD/sodipodi-0.dtd"
   xmlns:inkscape="http://www.inkscape.org/namespaces/inkscape"
   width="31.179491mm"
   height="25.052734mm"
   viewBox="0 0 31.179491 25.052734"
   version="1.1"
   id="svg37143"
   inkscape:version="0.92.4 (5da689c313, 2019-01-14)"
   sodipodi:docname="F7.svg">
  <defs
     id="defs37137" />
  <sodipodi:namedview
     id="base"
     pagecolor="#ffffff"
     bordercolor="#666666"
     borderopacity="1.0"
     inkscape:pageopacity="0.0"
     inkscape:pageshadow="2"
     inkscape:zoom="0.35"
     inkscape:cx="-346.11523"
     inkscape:cy="-363.89524"
     inkscape:document-units="mm"
     inkscape:current-layer="layer1"
     showgrid="false"
     fit-margin-top="0"
     fit-margin-left="0"
     fit-margin-right="0"
     fit-margin-bottom="0"
     inkscape:window-width="1920"
     inkscape:window-height="1017"
     inkscape:window-x="-8"
     inkscape:window-y="-8"
     inkscape:window-maximized="1" />
  <metadata
     id="metadata37140">
    <rdf:RDF>
      <cc:Work
         rdf:about="">
        <dc:format>image/svg+xml</dc:format>
        <dc:type
           rdf:resource="http://purl.org/dc/dcmitype/StillImage" />
        <dc:title></dc:title>
      </cc:Work>
    </rdf:RDF>
  </metadata>
  <g
     inkscape:label="Layer 1"
     inkscape:groupmode="layer"
     id="layer1"
     transform="translate(-4.2638223,-27.499984)">
    <g
       aria-label="𓄅"
       transform="scale(0.26458333)"
       style="font-style:normal;font-variant:normal;font-weight:normal;font-stretch:normal;font-size:192px;line-height:1.25;font-family:sans-serif;-inkscape-font-specification:sans-serif;font-variant-ligatures:normal;font-variant-caps:normal;font-variant-numeric:normal;font-feature-settings:normal;text-align:start;letter-spacing:0px;word-spacing:0px;writing-mode:lr-tb;text-anchor:start;fill:#000000;fill-opacity:1;stroke:none"
       id="flowRoot37688">
      <path
         d="m 109.58398,138.43695 q 5.25,3.5625 8.8125,5.90625 3.65625,2.34375 6.375,4.6875 2.71875,2.25 4.78125,4.96875 2.15625,2.71875 4.40625,6.9375 -0.1875,0.5625 -0.5625,1.03125 -0.28125,0.46875 -0.46875,0.9375 -8.4375,2.53125 -15.65625,6 -7.125,3.46875 -13.40625,7.875 -6.281246,4.40625 -11.999996,9.84375 -5.625,5.4375 -11.0625,12 l -2.53125,-0.1875 q -2.15625,-4.40625 -4.40625,-9.65625 -2.15625,-5.25 -4.03125,-10.78125 -1.78125,-5.53125 -3,-10.96875 -1.125,-5.53125 -1.125,-10.40625 0,-1.03125 0,-2.15625 0.09375,-1.125 0.1875,-2.4375 -1.875,-0.46875 -3.65625,-0.9375 -1.6875,-0.46875 -3.46875,-1.125 l -3.75,-1.59375 q -0.9375,-0.375 -1.875,-0.5625 -0.9375,-0.28125 -1.96875,-0.375 h -0.5625 q -1.6875,0 -3.1875,0.84375 -1.40625,0.75 -2.34375,1.21875 0.1875,0.84375 0.1875,1.78125 0,0.84375 0,2.4375 0,1.3125 -0.46875,1.875 -0.46875,0.5625 -0.75,0.5625 -0.375,0 -1.125,-1.3125 -0.65625,-1.40625 -0.84375,-3.9375 -9.375,0 -9.375,-5.34375 0,-2.71875 1.6875,-6.5625 1.59375,-3.75 4.6875,-6.65625 3.1875,-3 8.8125,-6.28125 l 18.84375,-10.96875 q -1.3125,-0.375 -2.8125,-1.40625 -1.40625,-1.125 -2.625,-1.59375 -2.71875,1.3125 -5.4375,1.78125 -2.625,0.46875 -5.25,0.46875 h -1.3125 q -3,-0.1875 -6.09375,-0.84375 -3,-0.65625 -6.1875,-1.875 -2.4375,0.46875 -4.875,0.65625 -2.34375,0.1875 -4.78125,0.1875 -4.96875,0 -7.40625,-1.96875 -2.4375,-2.0625 -3.84375,-6.5625 l 3.65625,2.15625 q 2.15625,1.3125 4.5,2.0625 2.34375,0.75 4.125,0.75 0.375,0 0.75,0 0.375,-0.0937 1.125,-0.1875 0.84375,-0.1875 2.15625,-0.46875 1.40625,-0.28125 3.84375,-0.84375 0.9375,0 1.21875,-0.0937 0.5625,0.0937 2.15625,0.65625 1.6875,0.46875 3.65625,1.03125 1.96875,0.5625 3.84375,1.03125 1.96875,0.375 3.09375,0.375 4.59375,0 7.3125,-0.84375 2.8125,-0.84375 3.84375,-0.84375 1.6875,0 3.09375,0.5625 1.5,0.5625 3.09375,1.6875 1.59375,1.125 3.09375,1.59375 1.59375,0.375 2.8125,0.375 3.9375,-2.25 6.1875,-3.1875 2.34375,-0.9375 3.1875,-0.9375 3.46875,0.5625 6.5625,1.78125 3.1875,1.125 6.65625,1.125 3.28125,-0.9375 6.468746,-2.4375 3.28125,-1.59375 6.84375,-2.0625 3.375,0.75 5.25,1.21875 1.96875,0.46875 3.09375,0.65625 1.125,0.1875 1.6875,0.28125 0.5625,0 1.125,0 2.8125,0 6.09375,-1.125 3.28125,-1.21875 5.71875,-2.53125 -0.84375,3.5625 -3.28125,5.53125 -2.34375,1.875 -6.65625,1.875 -1.21875,0 -3,-0.1875 -1.6875,-0.1875 -3.9375,-0.5625 -4.5,-0.84375 -7.03125,-0.84375 -3.5625,0 -7.21875,1.78125 -1.874996,0.9375 -3.843746,1.3125 -1.875,0.28125 -3.75,0.28125 -1.78125,0 -2.90625,0.0937 -1.03125,0 -3,0.375 1.40625,0.84375 2.34375,1.78125 1.03125,0.84375 1.875,1.96875 0.84375,1.03125 1.78125,2.4375 0.9375,1.3125 2.34375,3.1875 2.4375,3.28125 4.031246,6.09375 0.84375,1.40625 1.78125,2.4375 1.03125,0.9375 2.15625,1.78125 1.21875,0.75 2.53125,1.59375 1.40625,0.75 3,1.78125 z m -22.499996,-12.84375 -2.90625,4.78125 q -0.09375,0.1875 -0.75,0.9375 -0.5625,0.75 -1.5,1.59375 -0.84375,0.75 -1.875,1.5 -1.03125,0.75 -2.0625,0.9375 v 1.125 q 0,5.4375 -2.625,9.375 -2.53125,3.84375 -6.46875,6 -0.1875,1.5 -0.28125,3 -0.09375,1.40625 -0.09375,2.90625 0,7.03125 2.71875,16.03125 2.71875,8.90625 8.71875,21.09375 5.34375,-5.90625 10.5,-10.875 5.15625,-5.0625 10.968746,-9.28125 5.90625,-4.3125 12.9375,-7.78125 7.03125,-3.5625 16.03125,-6.46875 -1.59375,-3.28125 -4.125,-6 -2.53125,-2.71875 -5.625,-5.0625 -3.09375,-2.34375 -6.65625,-4.40625 -3.5625,-2.0625 -7.3125,-4.21875 -3.5625,-2.0625 -6.65625,-5.0625 -2.999996,-3.09375 -4.593746,-6.28125 -1.59375,-2.625 -2.8125,-4.59375 -1.21875,-1.96875 -2.4375,-3.375 -1.125,-1.40625 -2.34375,-2.34375 -1.21875,-1.03125 -2.71875,-1.6875 -0.46875,0.1875 -1.03125,0.9375 -0.5625,0.65625 -1.03125,1.40625 -0.5625,0.9375 -1.125,1.96875 -0.5625,0.75 -1.3125,1.5 -0.65625,0.65625 -1.6875,1.125 -1.03125,0.46875 -1.78125,0.9375 -0.65625,0.375 -0.9375,0.5625 l -3.375,4.125 q -0.5625,1.03125 -0.9375,2.0625 -0.375,1.03125 -0.84375,2.0625 2.625,-0.28125 4.59375,-0.9375 2.0625,-0.75 3.5625,-1.875 1.59375,-1.21875 2.8125,-2.90625 1.21875,-1.6875 2.34375,-4.03125 z m -2.71875,-11.25 q -0.5625,-0.28125 -1.125,-0.5625 -0.46875,-0.1875 -1.125,-0.375 -0.65625,-0.28125 -1.21875,-0.28125 -1.21875,0.84375 -2.4375,1.5 -1.03125,0.5625 -2.4375,1.03125 -1.40625,0.375 -2.71875,0.375 -1.03125,0 -1.875,-0.28125 l -11.0625,6.28125 q -1.59375,1.03125 -12.65625,7.3125 -10.875,6.28125 -11.90625,16.59375 0.9375,1.3125 2.53125,1.59375 1.6875,0.28125 3.09375,0.28125 0.65625,-0.28125 0.75,-0.375 l 3.65625,-1.875 q 2.4375,-1.21875 4.96875,-1.21875 1.21875,0 2.53125,0.375 1.40625,0.375 2.71875,0.84375 l 6,2.4375 q 0.65625,0.1875 1.59375,0.46875 1.03125,0.28125 3.5625,0.84375 3.46875,-1.6875 5.4375,-4.96875 2.0625,-3.375 2.34375,-7.875 -0.75,0.1875 -2.34375,0.46875 -1.59375,0.1875 -3,0.28125 h -0.75 q -0.46875,-0.0937 -1.40625,-1.6875 l 0.9375,-3.09375 q 0.65625,-2.15625 2.71875,-4.96875 2.15625,-2.90625 7.40625,-6.5625 0.28125,-0.46875 0.84375,-1.21875 0.5625,-0.75 0.84375,-1.03125 0.46875,-1.03125 1.125,-1.875 0.5625,-0.75 1.21875,-1.40625 0.75,-0.65625 1.78125,-1.03125 z m -18.375,10.78125 q -2.4375,2.4375 -3.5625,2.4375 -0.9375,0 -0.9375,-1.875 0,-2.15625 1.3125,-2.15625 1.03125,0 3.1875,1.59375 z"
         id="path37696"
         inkscape:connector-curvature="0" />
    </g>
  </g>
</svg>
