<?xml version="1.0" encoding="UTF-8" standalone="no"?>
<!-- Created with Inkscape (http://www.inkscape.org/) -->

<svg
   xmlns:dc="http://purl.org/dc/elements/1.1/"
   xmlns:cc="http://creativecommons.org/ns#"
   xmlns:rdf="http://www.w3.org/1999/02/22-rdf-syntax-ns#"
   xmlns:svg="http://www.w3.org/2000/svg"
   xmlns="http://www.w3.org/2000/svg"
   xmlns:sodipodi="http://sodipodi.sourceforge.net/DTD/sodipodi-0.dtd"
   xmlns:inkscape="http://www.inkscape.org/namespaces/inkscape"
   width="35.966797mm"
   height="37.851952mm"
   viewBox="0 0 35.966797 37.851952"
   version="1.1"
   id="svg8"
   inkscape:version="0.92.4 (5da689c313, 2019-01-14)"
   sodipodi:docname="G1.svg">
  <defs
     id="defs2" />
  <sodipodi:namedview
     id="base"
     pagecolor="#ffffff"
     bordercolor="#666666"
     borderopacity="1.0"
     inkscape:pageopacity="0.0"
     inkscape:pageshadow="2"
     inkscape:zoom="0.35"
     inkscape:cx="-337.54492"
     inkscape:cy="-275.51047"
     inkscape:document-units="mm"
     inkscape:current-layer="layer1"
     showgrid="false"
     fit-margin-top="0"
     fit-margin-left="0"
     fit-margin-right="0"
     fit-margin-bottom="0"
     inkscape:window-width="1920"
     inkscape:window-height="1017"
     inkscape:window-x="-8"
     inkscape:window-y="-8"
     inkscape:window-maximized="1" />
  <metadata
     id="metadata5">
    <rdf:RDF>
      <cc:Work
         rdf:about="">
        <dc:format>image/svg+xml</dc:format>
        <dc:type
           rdf:resource="http://purl.org/dc/dcmitype/StillImage" />
        <dc:title></dc:title>
      </cc:Work>
    </rdf:RDF>
  </metadata>
  <g
     inkscape:label="Layer 1"
     inkscape:groupmode="layer"
     id="layer1"
     transform="translate(-1.9962606,-38.085903)">
    <g
       aria-label="𓄿"
       transform="scale(0.26458333)"
       style="font-style:normal;font-variant:normal;font-weight:normal;font-stretch:normal;font-size:192px;line-height:1.25;font-family:sans-serif;-inkscape-font-specification:sans-serif;font-variant-ligatures:normal;font-variant-caps:normal;font-variant-numeric:normal;font-feature-settings:normal;text-align:start;letter-spacing:0px;word-spacing:0px;writing-mode:lr-tb;text-anchor:start;fill:#000000;fill-opacity:1;stroke:none"
       id="flowRoot815">
      <path
         d="m 66.138672,143.94672 q 0,0.28125 0.1875,1.6875 0.28125,1.3125 0.65625,3.375 0.375,1.96875 0.75,4.5 0.375,2.4375 0.84375,4.96875 1.03125,5.90625 2.25,13.40625 14.71875,16.125 25.78125,29.53125 11.156248,13.40625 19.031248,24.375 15.5625,21.84375 27.84375,49.21875 l -2.4375,1.59375 q -1.59375,-1.78125 -3.28125,-3.46875 -1.6875,-1.6875 -3.375,-3.46875 1.59375,3.375 2.625,6.9375 1.03125,3.5625 1.96875,7.5 l -1.03125,1.96875 q -3.09375,0.9375 -6.28125,0.9375 -9.28125,0 -17.90625,-8.15625 -8.53125,-8.25 -15.562498,-24 l -4.78125,-10.78125 q -0.46875,5.625 -1.6875,10.78125 -1.21875,5.15625 -2.625,10.5 l -1.96875,0.9375 -10.3125,-4.5 -4.3125,18.1875 h 24.28125 q 2.4375,0 3.468748,1.5 1.03125,1.40625 1.125,4.40625 v 0.375 h -0.84375 v -0.65625 q 0,-1.03125 -0.843748,-1.40625 -0.75,-0.375 -1.125,-0.375 h -86.8125 q -1.3125,0 -2.4375001,0.84375 -1.03125,0.84375 -1.40625,1.78125 l -0.375,-0.1875 q 0,-1.3125 0.375,-2.25 0.46875,-1.03125 0.9375,-1.40625 0.65625,-0.46875 1.2187501,-0.9375 0.5625,-0.46875 1.03125,-0.84375 0.46875,-0.375 0.9375,-0.84375 h 31.875 q 0.1875,-0.65625 0.5625,-2.25 0.46875,-1.59375 1.03125,-3.84375 0.65625,-2.34375 1.40625,-5.15625 0.84375,-2.90625 1.6875,-6 1.78125,-6.375 2.34375,-11.625 0.65625,-5.34375 0.65625,-10.59375 v -1.96875 q 0,-4.59375 -1.125,-9.09375 -1.03125,-4.59375 -2.34375,-9.1875 -1.3125,-4.59375 -2.90625,-8.71875 -1.59375,-4.21875 -3.375,-8.0625 -3.46875,-7.59375 -3.46875,-21 v -3 q 0.09375,-4.875 0.46875,-9.75 0.46875,-4.875 0.46875,-9.75 -1.5,-0.84375 -2.90625,-1.5 -1.40625,-0.65625 -2.90625,-1.03125 -1.40625,-0.46875 -3.09375,-0.65625 -1.6875,-0.28125 -3.84375,-0.28125 -3.09375,0 -6.84375,1.03125 -3.75,0.9375 -6.84375,2.71875 l -2.15625,-1.96875 q 0.9375,-1.6875 1.96875,-3.1875 0.84375,-1.3125 1.78125,-2.53125 1.03125,-1.3125 1.96875,-1.96875 1.5,-1.03125 3.1875,-1.21875 1.6875,-0.28125 3.84375,-0.28125 1.125,0 2.625,0.28125 1.59375,0.1875 2.53125,0.1875 1.78125,0 3.375,-0.46875 1.59375,-0.46875 2.8125,-1.125 1.3125,-0.75 2.25,-1.40625 0.9375,-0.75 1.40625,-1.21875 0.75,-0.75 1.03125,-1.03125 0.375,-0.375 0.84375,-0.375 z m 10.21875,115.78125 1.125,-0.75 9.1875,3.84375 q 1.6875,-6.1875 2.8125,-12.28125 1.21875,-6.09375 1.21875,-12.5625 -5.34375,-3.5625 -9.84375,-6.84375 -4.5,-3.28125 -8.25,-6.28125 -3.75,-3 -7.125,-6.46875 -3.375,-3.5625 -6.375,-7.78125 -6.09375,-8.34375 -7.5,-19.125 l -0.1875,-1.875 3,-0.28125 0.09375,0.9375 q 0.9375,12.28125 10.3125,22.78125 4.78125,5.25 11.15625,10.59375 6.46875,5.25 14.53125,10.59375 2.34375,1.3125 5.53125,3.375 3.1875,1.96875 6.093748,3.84375 3.375,2.25 6.9375,4.5 8.15625,5.0625 13.3125,8.8125 5.25,3.75 7.59375,6.09375 2.34375,2.34375 4.03125,4.125 1.78125,1.78125 3.09375,3 -6.9375,-15.375 -18.46875,-32.71875 -5.90625,-8.8125 -13.40625,-18.5625 -7.406248,-9.75 -16.781248,-20.71875 -1.40625,-1.875 -3.9375,-4.78125 -2.53125,-2.90625 -5.0625,-5.625 -3,-3.1875 -6.28125,-6.65625 -0.5625,-0.5625 -1.5,-1.5 -0.84375,-1.03125 -1.6875,-2.0625 -1.03125,-1.125 -2.15625,-2.4375 l -4.3125,-25.96875 h -22.125 q -1.03125,0.9375 -2.4375,1.875 -1.3125,0.9375 -3,1.78125 -1.59375,0.75 -3.375,1.3125 -1.6875,0.46875 -3.375,0.46875 -1.125,0 -2.34375,-0.1875 -1.125,-0.1875 -3,-0.1875 -2.71875,0 -4.59375,0.75 -1.78125,0.65625 -3.28125,2.8125 2.34375,-0.84375 5.34375,-1.40625 3.09375,-0.5625 5.4375,-0.5625 3.9375,0 7.59375,1.03125 3.75,1.03125 7.3125,3.1875 l 0.65625,1.21875 q 0,4.875 -0.375,9.75 -0.375,4.875 -0.46875,9.9375 v 4.5 q 0,10.125 2.15625,16.40625 2.25,6.75 6.84375,12.9375 2.34375,3.09375 5.15625,7.125 2.8125,3.9375 6.28125,8.8125 1.6875,2.4375 3.46875,5.34375 1.875,2.90625 3.65625,6 1.78125,3 3.28125,6.1875 1.59375,3.09375 2.71875,5.90625 z m -23.0625,-3.84375 q 3.375,0 6.9375,1.3125 3.65625,1.21875 6.65625,2.53125 l 2.53125,-12.75 q -0.1875,-0.28125 -0.46875,-0.65625 -0.1875,-0.46875 -0.75,-1.78125 -3.65625,-6.9375 -9.375,-14.71875 -2.90625,-4.03125 -4.5,-6.1875 -1.5,-2.15625 -1.78125,-2.625 l -1.875,-2.625 q 1.40625,4.875 2.625,10.03125 1.3125,5.0625 1.3125,10.40625 v 1.96875 q 0,3 -0.28125,5.71875 -0.1875,2.625 -0.375,4.78125 -0.375,2.4375 -0.65625,4.59375 z m 82.499998,27.5625 q -1.59375,-6.5625 -3.65625,-11.625 -2.15625,-5.25 -4.96875,-8.8125 -2.8125,-3.65625 -8.625,-7.40625 l -13.875,-8.90625 q -5.343748,-3.46875 -9.562498,-6.1875 l 6.187498,13.875 q 6.46875,14.4375 13.96875,21.9375 7.59375,7.40625 16.59375,7.40625 1.96875,0 3.9375,-0.28125 z m -67.031248,-3.46875 4.5,-19.59375 -1.59375,-9.1875 -2.25,11.15625 -1.96875,0.9375 q -3.09375,-1.40625 -6.65625,-2.90625 -3.46875,-1.5 -7.5,-1.5 l -5.71875,21.09375 z m -22.3125,-127.3125 q 1.96875,0.46875 3.46875,1.59375 -1.5,1.03125 -3.46875,1.6875 l -1.21875,-1.6875 z"
         id="path823"
         inkscape:connector-curvature="0" />
    </g>
  </g>
</svg>
