<?xml version="1.0" encoding="UTF-8" standalone="no"?>
<!-- Created with Inkscape (http://www.inkscape.org/) -->

<svg
   xmlns:dc="http://purl.org/dc/elements/1.1/"
   xmlns:cc="http://creativecommons.org/ns#"
   xmlns:rdf="http://www.w3.org/1999/02/22-rdf-syntax-ns#"
   xmlns:svg="http://www.w3.org/2000/svg"
   xmlns="http://www.w3.org/2000/svg"
   xmlns:sodipodi="http://sodipodi.sourceforge.net/DTD/sodipodi-0.dtd"
   xmlns:inkscape="http://www.inkscape.org/namespaces/inkscape"
   width="37.355858mm"
   height="36.810154mm"
   viewBox="0 0 37.355858 36.810154"
   version="1.1"
   id="svg21961"
   inkscape:version="0.92.4 (5da689c313, 2019-01-14)"
   sodipodi:docname="G10.svg">
  <defs
     id="defs21955" />
  <sodipodi:namedview
     id="base"
     pagecolor="#ffffff"
     bordercolor="#666666"
     borderopacity="1.0"
     inkscape:pageopacity="0.0"
     inkscape:pageshadow="2"
     inkscape:zoom="0.35"
     inkscape:cx="-334.6875"
     inkscape:cy="-384.83274"
     inkscape:document-units="mm"
     inkscape:current-layer="layer1"
     showgrid="false"
     fit-margin-top="0"
     fit-margin-left="0"
     fit-margin-right="0"
     fit-margin-bottom="0"
     inkscape:window-width="1920"
     inkscape:window-height="1017"
     inkscape:window-x="-8"
     inkscape:window-y="-8"
     inkscape:window-maximized="1" />
  <metadata
     id="metadata21958">
    <rdf:RDF>
      <cc:Work
         rdf:about="">
        <dc:format>image/svg+xml</dc:format>
        <dc:type
           rdf:resource="http://purl.org/dc/dcmitype/StillImage" />
        <dc:title></dc:title>
      </cc:Work>
    </rdf:RDF>
  </metadata>
  <g
     inkscape:label="Layer 1"
     inkscape:groupmode="layer"
     id="layer1"
     transform="translate(-1.2402344,-10.20285)">
    <g
       aria-label="𓅋"
       transform="scale(0.26458333)"
       style="font-style:normal;font-variant:normal;font-weight:normal;font-stretch:normal;font-size:192px;line-height:1.25;font-family:sans-serif;-inkscape-font-specification:'sans-serif, Normal';font-variant-ligatures:normal;font-variant-caps:normal;font-variant-numeric:normal;font-feature-settings:normal;text-align:start;letter-spacing:0px;word-spacing:0px;writing-mode:lr-tb;text-anchor:start;fill:#000000;fill-opacity:1;stroke:none"
       id="flowRoot22506">
      <path
         d="m 56.34375,63.593202 h -2.25 l -0.5625,-1.03125 q 0.5625,-0.75 1.03125,-1.59375 0.46875,-0.9375 1.5,-1.5 0,-2.90625 2.8125,-4.3125 2.90625,-1.40625 7.40625,-1.40625 5.34375,0 8.71875,2.15625 3.46875,2.0625 4.96875,5.8125 5.0625,3.09375 11.0625,10.78125 6,7.6875 17.71875,23.4375 l 15.09375,20.343748 -1.6875,2.15625 4.96875,-2.71875 -6.65625,-10.59375 h 2.15625 l 6.1875,9.375 5.90625,-3.375 -4.59375,-7.5 h 1.96875 l 3.9375,6.5625 q 4.21875,-1.3125 4.3125,-1.3125 4.6875,0 4.6875,4.59375 0,3.46875 -4.40625,7.03125 l 1.59375,2.71875 q 3.65625,1.875 3.65625,7.59375 -4.78125,-2.25 -4.78125,-6.9375 l -1.5,-2.25 -4.875,4.6875 1.5,3 q 3.9375,1.96875 3.9375,6 l -0.28125,1.5 q -4.875,-1.5 -4.875,-6.9375 l -1.59375,-2.625 Q 117.75,136.1557 104.4375,139.9057 v 14.53125 h 4.59375 v 3.75 h -4.59375 v 11.34375 h 6.09375 v 3.75 h -6.09375 v 4.40625 H 100.875 V 173.2807 H 81.75 v 4.40625 H 78.1875 V 173.2807 H 59.15625 v 4.40625 H 55.5 V 173.2807 H 45 q -12.1875,0 -17.8125,-2.15625 -5.625,-2.15625 -5.625,-7.3125 0,-1.125 0.28125,-1.875 0.375,-0.84375 1.40625,-0.84375 1.96875,0 2.0625,3.75 0.09375,2.4375 4.21875,3.5625 4.21875,1.125 11.71875,1.125 0.375,-3.09375 1.21875,-5.625 0.9375,-2.625 2.625,-4.59375 1.6875,-1.96875 4.21875,-3.1875 2.625,-1.3125 6.1875,-1.6875 V 134.6557 q -6,-4.3125 -11.0625,-11.0625 -5.0625,-6.84375 -8.25,-15.46875 L 21.75,106.3432 19.78125,150.49945 h -1.5 L 20.25,106.1557 12.28125,105.12445 v -1.5 l 8.0625,1.03125 0.1875,-5.249998 -9.75,-1.875 v -1.5 l 9.84375,1.96875 0.1875,-5.0625 -11.625,-2.90625 v -1.59375 l 11.71875,3 0.1875,-4.125 -13.40625,-3.375 v -1.5 l 13.5,3.375 0.1875,-4.875 -15.1875,-4.59375 v -1.40625 l 15.1875,4.59375 0.28125,-4.6875 -16.96875,-6 v -1.5 l 17.0625,6 0.1875,-4.875 -17.25,-7.21875 v -1.5 l 17.34375,7.3125 0.1875,-5.25 -17.53125,-8.0625 v -1.5 l 17.625,8.0625 0.28125,-4.59375 -17.90625,-9.5625 v -1.5 l 17.90625,9.5625 0.28125,-5.0625 -15.1875,-9 v -1.59375 l 22.6875,13.6875 9.46875,1.875 q 7.21875,1.875 7.21875,4.125 l -4.125,-0.1875 q -5.34375,0.1875 -5.34375,12 0,6.375 1.3125,14.25 1.40625,7.875 3.9375,15.65625 2.625,7.687498 6.28125,14.343748 3.65625,6.65625 8.25,10.40625 0.5625,-0.46875 1.40625,-0.65625 0.9375,-0.28125 1.6875,-0.28125 0.75,0 1.40625,0.375 0.65625,0.375 1.78125,0.65625 H 66.75 q 1.125,-2.4375 1.96875,-6 0.9375,-3.65625 0.9375,-7.03125 0,-1.3125 -0.28125,-2.90625 -0.1875,-1.6875 -0.84375,-4.40625 -0.1875,-0.9375 -0.5625,-3.1875 -0.375,-2.249998 -0.5625,-4.968748 0,-1.03125 0,-1.96875 0.09375,-0.9375 0.28125,-1.875 l -2.625,-4.21875 q -3.9375,-6.28125 -5.34375,-14.0625 -0.75,-3.9375 -1.59375,-6.65625 -0.84375,-2.71875 -1.78125,-3.9375 z M 118.78125,114.5932 98.4375,87.030702 q -1.40625,-1.96875 -3,-3.9375 -1.5,-1.96875 -2.90625,-3.65625 -1.3125,-1.78125 -2.4375,-3.09375 -1.03125,-1.3125 -1.59375,-2.0625 l -3.65625,-4.125 -1.40625,-1.40625 -0.28125,1.59375 q -0.46875,-0.09375 -0.9375,-0.09375 -0.46875,-0.09375 -1.78125,-0.28125 h -1.03125 q -2.15625,0 -4.96875,0.46875 -2.8125,0.375 -7.875,1.59375 l -4.21875,1.03125 0.375,1.21875 q 0.65625,3.375 2.53125,7.78125 1.875,4.40625 4.03125,7.125 l 0.09375,-0.09375 q 2.625,3.09375 5.25,5.625 2.71875,2.53125 5.625,4.5 5.71875,3.749998 11.0625,6.374998 1.3125,0.65625 3.28125,1.40625 1.96875,0.65625 4.59375,1.59375 2.625,0.9375 5.53125,1.875 2.90625,0.84375 6.09375,1.78125 z m -60.9375,-53.156248 0.9375,0.375 q 0.65625,0.9375 1.125,2.34375 0.5625,1.3125 1.03125,2.625 0.46875,1.59375 0.84375,3.28125 l 4.875,-1.21875 q 7.5,-1.875 12.1875,-1.875 0.375,0 0.84375,0.09375 0.5625,0 1.03125,0 0.5625,0.09375 1.125,0.09375 l -1.40625,-1.3125 q -1.125,-1.125 -1.96875,-1.3125 -0.84375,-0.28125 -2.4375,-3.84375 -1.6875,-3.65625 -9.46875,-3.9375 h -0.84375 q -3.28125,0 -4.96875,0.84375 -1.6875,0.84375 -1.6875,2.15625 -0.1875,0.28125 -0.46875,0.84375 -0.28125,0.5625 -0.75,0.84375 z M 93.9375,126.12445 q 1.59375,-0.1875 3.84375,-0.28125 2.25,-0.1875 3.65625,-0.375 -2.90625,-4.78125 -5.8125,-8.8125 -2.90625,-4.125 -7.125,-7.6875 -0.75,1.875 -1.3125,3.65625 -0.46875,1.6875 -0.9375,3.5625 l -2.4375,0.65625 -1.59375,-1.5 q -0.1875,1.40625 -0.28125,2.4375 -0.09375,1.03125 -0.1875,1.875 0,0.84375 0,1.125 v 0.65625 q 0,0.5625 0,1.125 0.09375,0.5625 0.46875,1.03125 0.65625,0.28125 1.78125,0.5625 1.125,0.1875 2.25,0.375 1.21875,0.0937 2.4375,0.1875 1.21875,0.0937 2.15625,0.0937 L 91.5,124.1557 q 1.40625,0 1.78125,0.75 0.46875,0.65625 0.65625,1.21875 z m 17.34375,-10.5 q -4.3125,-1.21875 -8.71875,-2.53125 -4.3125,-1.40625 -8.625,-3.09375 2.90625,2.90625 5.15625,6.28125 2.34375,3.28125 4.59375,6.84375 3,-0.46875 5.90625,-1.5 3,-1.125 5.71875,-2.0625 z M 86.25,106.5307 q -4.21875,-2.0625 -7.96875,-4.59375 -3.65625,-2.531248 -6.9375,-5.812498 l 0.75,1.78125 1.5,2.812498 3.75,6.09375 q 0.9375,1.78125 1.6875,3.5625 0.75,1.6875 1.03125,3.1875 0,-0.1875 0,-0.375 0,-0.1875 0.09375,-0.375 0,-0.1875 0.09375,-0.375 l 2.71875,-0.65625 q 0,0.0937 0.1875,0.28125 0.46875,0.46875 0.84375,0.75 0.375,-1.21875 0.75,-2.34375 0.375,-1.03125 0.65625,-2.0625 0.375,-1.03125 0.84375,-1.875 z m -15.84375,-6.09375 q 0.28125,1.3125 0.5625,2.53125 0.375,1.125 0.75,2.4375 0.375,1.21875 0.5625,2.625 0.28125,1.40625 0.28125,3.09375 0.65625,0.46875 1.59375,1.125 0.9375,0.5625 1.78125,1.125 1.03125,0.65625 2.0625,1.40625 -0.5625,-1.3125 -1.03125,-2.4375 -0.46875,-1.03125 -0.9375,-2.0625 -0.46875,-1.03125 -0.9375,-1.78125 -0.46875,-0.75 -1.125,-1.875 -0.5625,-1.125 -1.21875,-2.25 -0.65625,-1.125 -1.3125,-2.15625 -0.65625,-1.125 -1.03125,-1.78125 z M 78.75,123.2182 q 0.1875,-1.03125 0.375,-2.90625 0.1875,-1.875 0.375,-3.1875 l -1.6875,0.46875 -5.0625,-3.375 q -0.5625,1.125 -0.9375,2.625 -0.28125,1.5 -0.46875,3 -0.09375,1.5 -0.09375,2.90625 0,1.3125 0,2.15625 2.34375,-0.28125 4.21875,-0.65625 1.96875,-0.375 3.28125,-1.03125 z m -17.625,-63.187498 0.5625,-1.3125 h 1.5 l 1.96875,1.03125 q -1.40625,1.125 -3,1.5 z m 60.75,58.593748 -4.6875,-1.3125 2.15625,1.96875 -0.0937,0.65625 z M 55.5,169.5307 v -11.34375 q -2.25,0 -4.21875,1.03125 -1.875,0.9375 -3.28125,2.625 -1.40625,1.59375 -2.25,3.65625 Q 45,167.4682 45,169.5307 Z m 3.65625,0 h 6.9375 v -11.34375 h -6.9375 z m 10.5,0 h 8.53125 v -11.34375 h -8.53125 z m 12.09375,0 h 7.03125 V 158.18695 H 81.75 Z m 10.59375,0 h 8.53125 v -11.34375 h -8.53125 z m 0,-28.125 v 13.03125 H 100.875 V 140.2807 Z m -10.59375,0 v 13.03125 h 7.03125 V 141.4057 Z m -12.09375,-1.5 v 14.53125 H 78.1875 V 141.4057 Z m -10.5,-3.84375 v 18.375 h 6.9375 v -15.75 z m -0.09375,-9.75 H 61.5 l -0.65625,-0.65625 q -0.75,-0.75 -1.03125,-0.75 -0.1875,0 -0.46875,0.0937 -0.28125,0.0937 -0.46875,0.1875 l -0.5625,0.1875 z M 22.875,81.405702 l -0.28125,4.78125 8.8125,2.15625 q -0.1875,-1.125 -0.28125,-2.25 -0.09375,-1.125 -0.28125,-2.34375 z m 7.78125,0.9375 -0.375,-4.40625 -7.21875,-2.53125 -0.1875,4.59375 z m 3.5625,19.781248 -12.1875,-2.437498 -0.1875,5.156248 13.78125,1.78125 z m -1.5,-6.281248 -10.40625,-2.53125 -0.1875,4.96875 11.71875,2.343748 z m -1.03125,-5.8125 -9.09375,-2.34375 -0.1875,4.125 10.03125,2.4375 q -0.1875,-1.03125 -0.375,-2.0625 -0.1875,-1.125 -0.375,-2.15625 z m -8.0625,-27.5625 -0.1875,5.15625 6.46875,2.71875 v -5.0625 z m -0.28125,6.65625 -0.1875,4.78125 7.03125,2.4375 -0.1875,-4.5 z M 30,58.155702 l 0.1875,-4.40625 -5.90625,-3.75 L 24,54.968202 Z m -0.09375,5.625 v -4.125 L 24,56.468202 l -0.28125,4.5 z m 25.5,66.937498 q 0.84375,0.5625 2.15625,1.3125 1.3125,0.65625 2.71875,1.3125 1.5,0.5625 2.90625,1.125 1.40625,0.5625 2.53125,0.9375 3.65625,1.21875 8.625,2.15625 4.96875,0.84375 10.6875,0.84375 6.84375,0 12.9375,-1.03125 6.09375,-1.03125 11.34375,-2.71875 5.34375,-1.6875 9.84375,-3.84375 4.5,-2.15625 8.15625,-4.40625 4.3125,-2.625 7.78125,-5.625 3.5625,-3 6.65625,-6.28125 l -1.21875,-2.34375 q -4.21875,2.4375 -8.4375,4.6875 -4.125,2.15625 -8.34375,4.125 -3.5625,1.6875 -7.59375,3.1875 -3.9375,1.5 -7.96875,2.625 -4.03125,1.125 -8.0625,1.78125 -3.9375,0.65625 -7.5,0.65625 -0.9375,0 -2.90625,0 -1.96875,0 -4.59375,0.0937 -2.53125,0 -5.53125,0 -3,0 -6,0 h -14.625 L 57.375,128.4682 q -4.40625,-2.53125 -8.53125,-8.625 -4.03125,-6.09375 -7.21875,-14.15625 -3.09375,-8.062498 -4.96875,-17.062498 -1.875,-9.09375 -1.875,-17.53125 v -1.40625 q 0,-1.96875 0.1875,-4.03125 0.1875,-2.0625 0.5625,-3.75 0.46875,-1.78125 1.125,-3 0.65625,-1.3125 1.59375,-1.875 l -5.4375,-1.3125 v 10.3125 q 0,4.96875 0.28125,10.5 0.28125,5.53125 1.3125,11.90625 0.9375,5.34375 2.4375,11.25 1.59375,5.906248 4.21875,12.374998 1.875,4.59375 4.3125,8.0625 2.4375,3.375 4.6875,5.8125 2.625,2.8125 5.34375,4.78125 z m 35.625,-4.5 2.53125,-0.0937 -1.21875,-0.5625 z"
         id="path22514"
         inkscape:connector-curvature="0" />
    </g>
  </g>
</svg>
