<?xml version="1.0" encoding="UTF-8" standalone="no"?>
<!-- Created with Inkscape (http://www.inkscape.org/) -->

<svg
   xmlns:dc="http://purl.org/dc/elements/1.1/"
   xmlns:cc="http://creativecommons.org/ns#"
   xmlns:rdf="http://www.w3.org/1999/02/22-rdf-syntax-ns#"
   xmlns:svg="http://www.w3.org/2000/svg"
   xmlns="http://www.w3.org/2000/svg"
   xmlns:sodipodi="http://sodipodi.sourceforge.net/DTD/sodipodi-0.dtd"
   xmlns:inkscape="http://www.inkscape.org/namespaces/inkscape"
   width="31.030664mm"
   height="29.815233mm"
   viewBox="0 0 31.030664 29.815233"
   version="1.1"
   id="svg8"
   inkscape:version="0.92.4 (5da689c313, 2019-01-14)"
   sodipodi:docname="G11A.svg">
  <defs
     id="defs2" />
  <sodipodi:namedview
     id="base"
     pagecolor="#ffffff"
     bordercolor="#666666"
     borderopacity="1.0"
     inkscape:pageopacity="0.0"
     inkscape:pageshadow="2"
     inkscape:zoom="0.35"
     inkscape:cx="-343.25977"
     inkscape:cy="-344.83274"
     inkscape:document-units="mm"
     inkscape:current-layer="layer1"
     showgrid="false"
     fit-margin-top="0"
     fit-margin-left="0"
     fit-margin-right="0"
     fit-margin-bottom="0"
     inkscape:window-width="1920"
     inkscape:window-height="1017"
     inkscape:window-x="-8"
     inkscape:window-y="-8"
     inkscape:window-maximized="1" />
  <metadata
     id="metadata5">
    <rdf:RDF>
      <cc:Work
         rdf:about="">
        <dc:format>image/svg+xml</dc:format>
        <dc:type
           rdf:resource="http://purl.org/dc/dcmitype/StillImage" />
        <dc:title></dc:title>
      </cc:Work>
    </rdf:RDF>
  </metadata>
  <g
     inkscape:label="Layer 1"
     inkscape:groupmode="layer"
     id="layer1"
     transform="translate(-3.508313,-27.781104)">
    <g
       aria-label="ð“…"
       transform="scale(0.26458333)"
       style="font-style:normal;font-variant:normal;font-weight:normal;font-stretch:normal;font-size:192px;line-height:1.25;font-family:sans-serif;-inkscape-font-specification:sans-serif;font-variant-ligatures:normal;font-variant-caps:normal;font-variant-numeric:normal;font-feature-settings:normal;text-align:start;letter-spacing:0px;word-spacing:0px;writing-mode:lr-tb;text-anchor:start;fill:#000000;fill-opacity:1;stroke:none"
       id="flowRoot4518">
      <path
         d="m 13.259766,154.0307 h 33.5625 l -3.9375,-6.1875 q -2.0625,-3.09375 -3.375,-6.28125 -1.21875,-3.28125 -1.3125,-6.65625 0,-1.875 0.375,-3.5625 0.46875,-1.6875 1.3125,-3.46875 -4.78125,-1.6875 -6.28125,-5.15625 -1.59375,-3.5625 -3.46875,-4.40625 -1.3125,0 -2.4375,0.46875 -1.03125,0.46875 -2.0625,1.21875 -0.5625,-0.375 -1.21875,-0.65625 -0.5625,-0.375 -1.125,-0.84375 0.46875,-2.25 1.875,-3.65625 1.40625,-1.40625 3.28125,-2.4375 0.84375,-3.1875 4.5,-5.25 3.75,-2.15625 7.59375,-2.15625 3.09375,0 6.5625,1.875 3.5625,1.875 7.78125,5.25 l 11.25,8.8125 q 2.4375,1.875 4.6875,3.84375 2.34375,1.96875 4.78125,3.9375 l 9.375,7.5 q 5.90625,4.78125 9.75,7.6875 3.84375,2.90625 5.625004,3.9375 1.875,1.03125 5.71875,2.25 3.9375,1.21875 9.9375,2.71875 12,3 14.53125,9.375 l -0.0937,1.6875 q -0.0937,0.0937 -0.65625,0.84375 v 1.78125 H 95.666016 q 0.65625,1.3125 1.78125,3.75 1.125,2.4375 2.25,5.34375 1.125004,2.8125 1.875004,5.71875 0.84375,2.8125 0.84375,4.78125 0,1.96875 -0.75,3.375 -0.75,1.3125 -1.875004,2.15625 -1.125,0.75 -2.53125,1.125 -1.40625,0.375 -2.625,0.375 -1.21875,0 -2.0625,-0.28125 -0.46875,-0.1875 -0.84375,-0.375 0,0.375 0.09375,0.75 0.1875,0.9375 0.1875,1.40625 0,0.9375 -0.1875,2.25 -0.1875,1.21875 -0.9375,2.34375 -0.65625,1.125 -1.96875,1.96875 -1.3125,0.75 -3.5625,0.75 -2.71875,0 -5.4375,-1.3125 -2.625,-1.40625 -5.15625,-3.75 v 20.8125 h -4.6875 V 191.9057 q -2.90625,-3.46875 -5.4375,-7.3125 -2.53125,-3.9375 -4.5,-7.5 -1.96875,-3.65625 -3.375,-6.46875 -1.40625,-2.8125 -1.96875,-4.125 h -41.53125 z m 79.6875,-7.96875 -29.4375,-23.34375 q -2.53125,-2.0625 -5.15625,-4.03125 -2.625,-2.0625 -5.34375,-4.03125 l -4.21875,-3.1875 q -1.96875,-1.40625 -4.03125,-2.25 -2.0625,-0.9375 -4.3125,-1.03125 -2.625,0 -5.25,1.125 -2.71875,1.03125 -3.28125,3.09375 -0.5625,1.875 -2.4375,2.90625 4.21875,0 6,4.59375 1.78125,4.5 7.03125,5.625 l 1.03125,1.875 q -1.125,2.25 -1.78125,4.125 -0.65625,1.78125 -0.65625,3.46875 0.28125,3.28125 2.71875,7.96875 2.4375,4.59375 6.9375,11.625 l -1.3125,2.4375 h -33.65625 v 5.15625 H 127.25977 q -2.0625,-3.375 -10.875,-6.09375 -4.3125,-1.3125 -7.40625,-2.15625 -3.09375,-0.9375 -4.96875,-1.40625 -3.5625,-0.84375 -11.062504,-6.46875 z m -18.1875,46.6875 q 2.625,2.90625 5.34375,4.59375 2.71875,1.59375 5.4375,1.59375 1.96875,0 2.71875,-0.75 0.84375,-0.84375 0.84375,-2.8125 -0.1875,-1.125 -0.65625,-2.90625 -0.375,-1.875 -1.03125,-4.125 -0.5625,-2.25 -1.3125,-4.6875 -0.75,-2.53125 -1.5,-4.96875 -1.78125,-5.71875 -3.9375,-12.1875 h -5.90625 z m 16.21875,-3.28125 q 0.28125,0.1875 0.65625,0.375 0.65625,0.28125 2.625,0.28125 2.8125,0 3.9375,-0.9375 1.21875,-0.9375 1.21875,-3.375 0,-2.0625 -0.84375,-4.78125 -0.75,-2.8125 -1.875,-5.625 -1.125,-2.8125 -2.25,-5.15625 -1.125,-2.4375 -1.78125,-3.75 h -9 z m -20.90625,-22.96875 h -12 q 0.46875,1.125 1.59375,3.375 1.125,2.15625 2.71875,5.0625 1.59375,2.8125 3.5625,6 1.96875,3.1875 4.125,6.1875 z m -33.28125,-52.6875 0.9375,-1.40625 q 0.75,0 1.96875,0.9375 -1.59375,1.6875 -2.34375,1.6875 -0.5625,0 -0.5625,-1.21875 z"
         id="path4526"
         inkscape:connector-curvature="0" />
    </g>
  </g>
</svg>
