<?xml version="1.0" encoding="UTF-8" standalone="no"?>
<!-- Created with Inkscape (http://www.inkscape.org/) -->

<svg
   xmlns:dc="http://purl.org/dc/elements/1.1/"
   xmlns:cc="http://creativecommons.org/ns#"
   xmlns:rdf="http://www.w3.org/1999/02/22-rdf-syntax-ns#"
   xmlns:svg="http://www.w3.org/2000/svg"
   xmlns="http://www.w3.org/2000/svg"
   xmlns:sodipodi="http://sodipodi.sourceforge.net/DTD/sodipodi-0.dtd"
   xmlns:inkscape="http://www.inkscape.org/namespaces/inkscape"
   width="37.504688mm"
   height="19.198828mm"
   viewBox="0 0 37.504688 19.198828"
   version="1.1"
   id="svg22523"
   inkscape:version="0.92.4 (5da689c313, 2019-01-14)"
   sodipodi:docname="G12.svg">
  <defs
     id="defs22517" />
  <sodipodi:namedview
     id="base"
     pagecolor="#ffffff"
     bordercolor="#666666"
     borderopacity="1.0"
     inkscape:pageopacity="0.0"
     inkscape:pageshadow="2"
     inkscape:zoom="0.35"
     inkscape:cx="-314.6875"
     inkscape:cy="-383.33274"
     inkscape:document-units="mm"
     inkscape:current-layer="layer1"
     showgrid="false"
     fit-margin-top="0"
     fit-margin-left="0"
     fit-margin-right="0"
     fit-margin-bottom="0"
     inkscape:window-width="1920"
     inkscape:window-height="1017"
     inkscape:window-x="-8"
     inkscape:window-y="-8"
     inkscape:window-maximized="1" />
  <metadata
     id="metadata22520">
    <rdf:RDF>
      <cc:Work
         rdf:about="">
        <dc:format>image/svg+xml</dc:format>
        <dc:type
           rdf:resource="http://purl.org/dc/dcmitype/StillImage" />
        <dc:title></dc:title>
      </cc:Work>
    </rdf:RDF>
  </metadata>
  <g
     inkscape:label="Layer 1"
     inkscape:groupmode="layer"
     id="layer1"
     transform="translate(4.0514322,-28.211052)">
    <g
       aria-label="𓅎"
       transform="scale(0.26458333)"
       style="font-style:normal;font-variant:normal;font-weight:normal;font-stretch:normal;font-size:192px;line-height:1.25;font-family:sans-serif;-inkscape-font-specification:'sans-serif, Normal';font-variant-ligatures:normal;font-variant-caps:normal;font-variant-numeric:normal;font-feature-settings:normal;text-align:start;letter-spacing:0px;word-spacing:0px;writing-mode:lr-tb;text-anchor:start;fill:#000000;fill-opacity:1;stroke:none"
       id="flowRoot23068">
      <path
         d="m 65.59375,112.24945 -17.8125,17.625 23.0625,16.875 7.6875,5.4375 q 3.84375,2.8125 7.875,5.4375 l 3,1.875 Q 91.375,160.9057 94,161.8432 q 2.625,0.84375 4.875,1.40625 l 6.5625,1.59375 q 10.875,2.71875 15.28125,5.25 4.40625,2.53125 5.71875,6.09375 l -0.28125,1.6875 -0.9375,1.3125 H -15.3125 V 167.0932 h 40.96875 q -3.75,-5.15625 -7.125,-10.875 -3.375,-5.71875 -3.5625,-9.5625 L 14.875,145.81195 q 0,-1.78125 0.5625,-3.65625 0.5625,-1.96875 1.6875,-4.3125 -6.09375,-1.96875 -8.0625,-6.28125 -1.875,-4.3125 -4.96875,-4.3125 H 3.4375 q -1.125,0.1875 -2.25,0.75 -1.03125,0.46875 -2.0625,1.03125 l -2.34375,-1.5 q 0.375,-2.53125 2.25,-4.125 1.96875,-1.6875 4.125,-2.71875 1.125,-3.75 5.15625,-5.8125 4.125,-2.15625 10.59375,-2.15625 3.28125,0 8.0625,3 4.78125,2.90625 10.78125,7.03125 l 6.46875,4.5 21.84375,-20.625 33.28125,37.78125 q -2.625,-2.625 -5.53125,-2.625 -3.75,0 -3.75,3.75 0,0.84375 0.1875,1.875 -1.40625,-1.96875 -2.90625,-1.96875 -4.6875,1.875 -4.6875,6.5625 z m -78.375,63.9375 h 135.9375 q -3,-4.875 -16.875,-7.96875 -13.875,-3.1875 -18.375,-6.09375 l -3.375,-2.15625 Q 66.53125,147.49945 55,138.87445 43.5625,130.1557 32.96875,123.0307 L 26.875,118.9057 Q 25,117.68695 22.75,116.74945 20.5,115.7182 19.1875,115.7182 h -0.75 q -1.125,0 -1.59375,0.0937 -4.78125,0.28125 -7.21875,1.78125 -2.4375,1.40625 -3.1875,2.90625 -0.65625,1.5 -0.84375,1.96875 Q 5.5,122.84315 2.40625,124.4369 3.25,124.2494 4.1875,124.2494 H 5.125 q 1.40625,0.1875 2.71875,1.03125 1.40625,0.75 2.71875,2.8125 L 11.5,129.8744 q 0.9375,1.875 2.8125,3.375 1.96875,1.5 5.53125,2.25 l 0.84375,2.34375 q -1.40625,2.25 -2.15625,4.125 -0.65625,1.875 -0.65625,3.75 0,3.75 3.1875,9.1875 3.28125,5.4375 8.71875,12.75 l -1.3125,2.4375 h -41.25 z m 29.25,-54.46875 q -1.875,1.875 -2.8125,1.875 Q 13,123.5932 13,122.2807 l 1.125,-1.59375 q 0.75,0 2.34375,1.03125 z m 66.84375,22.03125 q 0.28125,-0.28125 0.65625,-0.46875 0.28125,-0.1875 0.46875,-0.28125 0.28125,-0.0937 0.46875,-0.1875 0.46875,-0.0937 0.9375,0 0.46875,0 0.9375,0.0937 0.46875,0.0937 1.125,0.28125 v -0.9375 q 0,-0.46875 0,-0.84375 0.09375,-0.375 0.28125,-0.65625 0.1875,-0.375 0.5625,-0.65625 0.375,-0.28125 0.75,-0.46875 0.375,-0.28125 0.75,-0.46875 l -19.40625,-22.4062 z"
         id="path23076"
         inkscape:connector-curvature="0" />
    </g>
  </g>
</svg>
