<?xml version="1.0" encoding="UTF-8" standalone="no"?>
<!-- Created with Inkscape (http://www.inkscape.org/) -->

<svg
   xmlns:dc="http://purl.org/dc/elements/1.1/"
   xmlns:cc="http://creativecommons.org/ns#"
   xmlns:rdf="http://www.w3.org/1999/02/22-rdf-syntax-ns#"
   xmlns:svg="http://www.w3.org/2000/svg"
   xmlns="http://www.w3.org/2000/svg"
   xmlns:sodipodi="http://sodipodi.sourceforge.net/DTD/sodipodi-0.dtd"
   xmlns:inkscape="http://www.inkscape.org/namespaces/inkscape"
   width="37.479881mm"
   height="31.874023mm"
   viewBox="0 0 37.479881 31.874023"
   version="1.1"
   id="svg1394"
   inkscape:version="0.92.4 (5da689c313, 2019-01-14)"
   sodipodi:docname="G13.svg">
  <defs
     id="defs1388" />
  <sodipodi:namedview
     id="base"
     pagecolor="#ffffff"
     bordercolor="#666666"
     borderopacity="1.0"
     inkscape:pageopacity="0.0"
     inkscape:pageshadow="2"
     inkscape:zoom="0.35"
     inkscape:cx="-314.6875"
     inkscape:cy="-309.04758"
     inkscape:document-units="mm"
     inkscape:current-layer="layer1"
     showgrid="false"
     fit-margin-top="0"
     fit-margin-left="0"
     fit-margin-right="0"
     fit-margin-bottom="0"
     inkscape:window-width="1920"
     inkscape:window-height="1017"
     inkscape:window-x="-8"
     inkscape:window-y="-8"
     inkscape:window-maximized="1" />
  <metadata
     id="metadata1391">
    <rdf:RDF>
      <cc:Work
         rdf:about="">
        <dc:format>image/svg+xml</dc:format>
        <dc:type
           rdf:resource="http://purl.org/dc/dcmitype/StillImage" />
        <dc:title></dc:title>
      </cc:Work>
    </rdf:RDF>
  </metadata>
  <g
     inkscape:label="Layer 1"
     inkscape:groupmode="layer"
     id="layer1"
     transform="translate(4.0514322,-35.190472)">
    <g
       aria-label="ð“…"
       transform="scale(0.26458333)"
       style="font-style:normal;font-variant:normal;font-weight:normal;font-stretch:normal;font-size:192px;line-height:1.25;font-family:sans-serif;-inkscape-font-specification:sans-serif;font-variant-ligatures:normal;font-variant-caps:normal;font-variant-numeric:normal;font-feature-settings:normal;text-align:start;letter-spacing:0px;word-spacing:0px;writing-mode:lr-tb;text-anchor:start;fill:#000000;fill-opacity:1;stroke:none"
       id="flowRoot1939">
      <path
         d="m 126.15625,252.15961 -0.46875,0.5625 q -0.28125,0.375 -0.46875,0.75 H -15.3125 v -12.09375 h 40.875 q -4.78125,-6.28125 -7.59375,-11.4375 -2.8125,-5.15625 -3,-8.71875 L 14.875,220.37836 q 0,-1.96875 0.5625,-3.9375 0.5625,-1.96875 1.6875,-4.21875 -4.96875,-1.59375 -6.09375,-3 -1.03125,-1.5 -2.71875,-4.21875 -1.6875,-2.8125 -4.03125,-3.5625 -2.90625,0.46875 -5.15625,1.875 l -2.34375,-1.5 q 0.375,-2.625 2.25,-4.03125 1.96875,-1.5 4.125,-2.8125 0.75,-2.25 2.4375,-3.84375 1.78125,-1.6875 3.84375,-3 -0.9375,-1.03125 -1.875,-2.34375 -0.9375,-1.40625 -1.78125,-3.28125 0,-0.84375 0.28125,-3.375 l 2.625,-32.4375 q 0.65625,-8.34375 0.9375,-8.90625 0.28125,-0.5625 0.375,-0.75 l 0.75,-1.03125 q 1.125,-1.3125 2.625,-1.96875 1.59375,-0.75 3.28125,-0.75 1.6875,0 3.28125,0.65625 1.59375,0.65625 2.71875,1.96875 1.3125,-1.3125 2.90625,-2.0625 1.6875,-0.75 3.46875,-0.84375 1.78125,0 3.28125,0.75 1.5,0.75 2.625,2.34375 l 0.65625,1.03125 q 0.46875,0.9375 0.46875,1.40625 v 43.875 q 0,2.71875 -1.96875,4.78125 -1.96875,1.96875 -4.40625,3.28125 2.8125,2.53125 5.8125,4.78125 3.09375,2.15625 6.28125,4.21875 l 6.375,4.03125 q 8.25,5.25 20.4375,15.75 12.28125,10.40625 22.59375,15 l 2.25,0.9375 q 0.9375,0.46875 1.96875,0.84375 l 2.0625,0.75 q 3.65625,1.40625 14.90625,4.125 11.34375,2.71875 13.96875,9.5625 z M 4.28125,197.87836 3.25,198.44086 h 0.84375 q 2.8125,0 5.25,3.375 2.4375,3.28125 3.75,5.15625 1.3125,1.875 6.75,2.8125 l 0.84375,2.34375 q -1.40625,2.25 -2.15625,4.21875 -0.65625,1.96875 -0.65625,3.84375 0,3.65625 3.28125,9.28125 3.375,5.625 8.625,12.46875 l -1.3125,2.4375 h -41.25 v 6.09375 H 123.0625 q -2.90625,-4.5 -12.75,-6.9375 -9.84375,-2.53125 -10.96875,-2.90625 l -5.0625,-1.78125 q -12.09375,-4.40625 -26.625,-16.5 -14.53125,-12.1875 -21.84375,-16.875 l -6.84375,-4.40625 q -8.34375,-5.25 -11.4375,-8.34375 -3.09375,-3.1875 -8.25,-3.375 h -0.75 q -3.09375,0 -5.15625,0.46875 -1.96875,0.375 -4.40625,2.34375 -2.34375,1.96875 -2.71875,3.375 -0.28125,1.40625 -1.96875,2.34375 z m 18.1875,-24.1875 q 3,0.5625 4.59375,2.71875 1.6875,2.0625 1.6875,4.59375 0,1.875 -0.9375,3.65625 -0.84375,1.6875 -2.71875,2.8125 1.21875,0.46875 2.0625,0.9375 2.4375,-0.9375 4.125,-2.625 1.78125,-1.6875 1.78125,-3.65625 v -43.125 q -0.84375,-1.59375 -1.96875,-2.25 -1.03125,-0.75 -2.15625,-0.75 h -0.375 q -1.21875,0.1875 -2.4375,1.03125 -1.125,0.75 -2.15625,2.53125 z m -3,-0.1875 1.5,-34.59375 q -0.75,-1.21875 -1.96875,-1.875 -1.125,-0.75 -2.4375,-0.84375 -4.21875,0 -4.40625,5.15625 -0.1875,5.15625 -3.28125,40.78125 0.65625,1.3125 1.5,2.53125 0.84375,1.125 1.875,2.15625 0.75,-0.1875 1.59375,-0.28125 l 1.59375,-0.1875 q -1.125,-1.125 -1.6875,-2.53125 -0.5625,-1.5 -0.5625,-3.1875 0,-2.15625 1.3125,-4.21875 1.40625,-2.15625 4.96875,-2.90625 z m -3.1875,7.40625 v 0.28125 q 0,1.6875 1.21875,3 1.21875,1.3125 3.375,1.3125 2.25,0 3.46875,-1.125 1.21875,-1.125 1.21875,-3.1875 0,-4.40625 -3.5625,-4.59375 -3.46875,-0.28125 -4.6875,1.40625 -1.03125,1.40625 -1.03125,2.90625 z m 0.1875,15.09375 q -1.21875,1.21875 -2.71875,1.875 l -0.75,-1.3125 1.125,-1.59375 q 0.65625,0.1875 1.21875,0.46875 0.65625,0.1875 1.125,0.5625 z"
         id="path1947"
         inkscape:connector-curvature="0" />
    </g>
  </g>
</svg>
