<?xml version="1.0" encoding="UTF-8" standalone="no"?>
<!-- Created with Inkscape (http://www.inkscape.org/) -->

<svg
   xmlns:dc="http://purl.org/dc/elements/1.1/"
   xmlns:cc="http://creativecommons.org/ns#"
   xmlns:rdf="http://www.w3.org/1999/02/22-rdf-syntax-ns#"
   xmlns:svg="http://www.w3.org/2000/svg"
   xmlns="http://www.w3.org/2000/svg"
   xmlns:sodipodi="http://sodipodi.sourceforge.net/DTD/sodipodi-0.dtd"
   xmlns:inkscape="http://www.inkscape.org/namespaces/inkscape"
   width="37.678322mm"
   height="37.85194mm"
   viewBox="0 0 37.678322 37.85194"
   version="1.1"
   id="svg2518"
   inkscape:version="0.92.4 (5da689c313, 2019-01-14)"
   sodipodi:docname="G15.svg">
  <defs
     id="defs2512" />
  <sodipodi:namedview
     id="base"
     pagecolor="#ffffff"
     bordercolor="#666666"
     borderopacity="1.0"
     inkscape:pageopacity="0.0"
     inkscape:pageshadow="2"
     inkscape:zoom="0.35"
     inkscape:cx="-408.97266"
     inkscape:cy="-310.54758"
     inkscape:document-units="mm"
     inkscape:current-layer="layer1"
     showgrid="false"
     fit-margin-top="0"
     fit-margin-left="0"
     fit-margin-right="0"
     fit-margin-bottom="0"
     inkscape:window-width="1920"
     inkscape:window-height="1017"
     inkscape:window-x="-8"
     inkscape:window-y="-8"
     inkscape:window-maximized="1" />
  <metadata
     id="metadata2515">
    <rdf:RDF>
      <cc:Work
         rdf:about="">
        <dc:format>image/svg+xml</dc:format>
        <dc:type
           rdf:resource="http://purl.org/dc/dcmitype/StillImage" />
        <dc:title></dc:title>
      </cc:Work>
    </rdf:RDF>
  </metadata>
  <g
     inkscape:label="Layer 1"
     inkscape:groupmode="layer"
     id="layer1"
     transform="translate(-20.894848,-28.815681)">
    <g
       aria-label="𓅑"
       transform="scale(0.26458333)"
       style="font-style:normal;font-variant:normal;font-weight:normal;font-stretch:normal;font-size:192px;line-height:1.25;font-family:sans-serif;-inkscape-font-specification:sans-serif;font-variant-ligatures:normal;font-variant-caps:normal;font-variant-numeric:normal;font-feature-settings:normal;text-align:start;letter-spacing:0px;word-spacing:0px;writing-mode:lr-tb;text-anchor:start;fill:#000000;fill-opacity:1;stroke:none"
       id="flowRoot3063">
      <path
         d="m 204.78516,131.78461 15.09375,33 q -3.1875,-3.1875 -6.1875,-3.1875 -2.8125,0 -2.8125,4.6875 -1.59375,-3.09375 -3.375,-3.09375 -0.84375,0 -1.59375,0.65625 -2.625,2.0625 -2.625,5.4375 l -2.4375,-36 -5.34375,-14.15625 -28.125,33.28125 20.71875,20.25 q 0.75,0.65625 1.78125,1.875 1.03125,1.21875 2.625,2.8125 3.1875,3.1875 3.1875,13.59375 4.5,5.0625 8.625,9.9375 4.21875,4.78125 8.34375,9.65625 8.15625,9.5625 8.71875,21.75 l -1.59375,1.5 -3.375,-0.5625 -3.375,-0.375 5.15625,14.15625 -1.5,1.96875 q -1.5,-0.375 -4.03125,-0.9375 -2.4375,-0.5625 -5.90625,-1.5 -3.46875,-0.9375 -6.75,-1.40625 -3.1875,-0.5625 -7.40625,-0.75 l -1.40625,-1.21875 -2.90625,-12.5625 q -0.46875,-0.0937 -1.03125,-0.1875 -0.46875,-0.1875 -1.3125,-0.46875 -0.75,-0.28125 -1.96875,-0.65625 -1.125,-0.375 -2.90625,-1.03125 -5.34375,-1.78125 -10.21875,-3.9375 -4.875,-2.25 -9.375,-5.25 0.375,2.0625 0.5625,4.03125 0.28125,1.96875 0.28125,3.84375 0,2.71875 -0.75,5.4375 -0.65625,2.71875 -2.53125,5.4375 l -2.53125,-0.1875 q -1.875,-2.71875 -3.375,-5.15625 -1.40625,-2.53125 -3.375,-3.5625 0.1875,1.03125 0.1875,2.25 0,1.125 0.0937,1.875 0,2.15625 -0.46875,5.8125 -0.46875,3.5625 -1.6875,10.125 h 14.53125 q 1.21875,-0.84375 3,-1.40625 1.875,-0.5625 4.21875,-0.5625 2.90625,0 4.59375,1.03125 1.78125,1.03125 1.78125,3.9375 -0.5625,-0.84375 -1.3125,-1.5 -0.65625,-0.5625 -1.5,-1.03125 -0.84375,-0.5625 -1.875,-0.5625 -1.03125,0 -2.34375,0.28125 -1.21875,0.28125 -2.34375,0.5625 -1.3125,0.375 -2.71875,0.75 l 6,1.5 H 98.941406 l 6.000004,-1.5 q -1.40625,-0.375 -2.71875,-0.75 -1.125,-0.28125 -2.437504,-0.5625 -1.21875,-0.28125 -2.25,-0.28125 -1.3125,0 -2.4375,0.5625 -1.125,0.46875 -1.96875,1.03125 -1.03125,0.65625 -1.78125,1.5 0,-4.96875 7.40625,-4.96875 1.593754,0 3.656254,0.375 2.15625,0.375 4.03125,1.59375 h 15.28125 q 1.6875,-4.125 2.90625,-7.96875 1.21875,-3.84375 1.6875,-6 0.46875,-2.15625 0.84375,-4.40625 0.46875,-2.25 0.46875,-4.125 0,-2.8125 -0.28125,-6.1875 -0.28125,-3.375 -0.75,-6.65625 -0.375,-3.28125 -0.9375,-6.09375 -0.46875,-2.8125 -0.84375,-4.59375 -0.75,-3.5625 -1.78125,-8.4375 -1.03125,-4.875 -2.53125,-11.15625 -1.5,-6.375 -2.625,-10.6875 -1.125,-4.40625 -2.0625,-6.84375 -1.59375,-4.78125 -1.78125,-10.78125 -2.25,0 -7.21875,-3 -4.875,-2.90625 -4.875,-15.375 v -8.90625 l -5.625004,-0.9375 q -1.59375,-0.28125 -3.1875,-0.375 -1.59375,-0.0937 -3.1875,-0.0937 -2.625,0 -4.78125,0.5625 -2.15625,0.5625 -3.1875,2.0625 l -2.71875,-0.65625 q -0.28125,-1.40625 -0.28125,-2.71875 0,-2.53125 1.21875,-4.5 1.3125,-1.96875 3.46875,-3.375 2.15625,-1.40625 4.96875,-2.34375 2.90625,-0.9375 6.1875,-1.59375 2.15625,-0.46875 2.90625,-0.5625 0.75,-0.1875 1.125,-0.375 0.28125,-0.1875 0.9375,-0.65625 0.656254,-0.46875 2.625004,-1.40625 4.21875,-1.875 7.6875,-1.875 4.3125,0 7.125,3.09375 1.40625,1.5 2.0625,3.09375 0.75,1.59375 0.75,3.75 1.03125,-0.9375 2.4375,-1.5 1.5,-0.5625 3.1875,-0.5625 2.4375,0 4.78125,1.21875 0.65625,0.28125 1.40625,0.75 0.84375,0.46875 1.96875,1.3125 1.21875,0.84375 2.8125,2.25 1.59375,1.40625 3.84375,3.65625 l 23.71875,23.34375 32.34375,-37.3125 z m 13.5,98.71875 q -0.46875,-6.5625 -4.5,-13.21875 -2.0625,-3.28125 -4.40625,-6.28125 -2.25,-3.09375 -4.6875,-5.8125 -2.53125,-2.8125 -4.78125,-4.96875 -2.15625,-2.25 -3.84375,-4.03125 -1.59375,-1.78125 -2.53125,-3.09375 -0.9375,-1.3125 -0.9375,-2.34375 l 0.0937,-1.03125 q 0,-7.78125 -3.375,-11.625 -3.375,-3.84375 -10.59375,-10.875 l -40.5,-39.75 q -4.03125,-3.9375 -7.03125,-5.8125 -2.90625,-1.96875 -5.625,-1.96875 -3.09375,0 -4.59375,2.8125 -0.84375,1.59375 -0.84375,3.1875 0,1.3125 0.375,2.4375 1.03125,3.09375 1.03125,5.90625 0,2.15625 -0.84375,4.03125 -0.75,1.78125 -2.8125,3.28125 -0.5625,-0.1875 -1.125,-0.1875 -0.46875,0 -1.03125,-0.28125 -1.21875,-1.78125 -1.6875,-3.46875 -0.46875,-1.78125 -0.46875,-3.46875 0,-1.78125 0.375,-3.65625 0.46875,-1.875 1.03125,-3.75 l 1.125,-3.75 q 0.46875,-1.3125 0.5625,-2.34375 0.1875,-1.125 0.1875,-1.875 -0.0937,-1.875 -1.78125,-4.21875 -1.59375,-2.4375 -4.96875,-2.4375 -4.21875,0 -7.40625,2.25 -3.187504,2.0625 -7.125004,2.53125 -1.875,0.1875 -4.03125,0.84375 -2.0625,0.5625 -4.40625,1.59375 -4.78125,2.15625 -5.15625,6 1.6875,-1.03125 3.75,-1.40625 2.0625,-0.375 4.3125,-0.375 3.1875,0 6.5625,0.5625 3.375,0.46875 7.218754,1.21875 l 1.125,1.40625 v 10.40625 q 0,10.5 3.75,12.84375 3.84375,2.4375 6.9375,2.4375 1.3125,0 3.5625,-1.3125 2.34375,-1.3125 4.40625,-2.8125 l 1.875,2.34375 -3.28125,2.34375 q -1.21875,0.84375 -2.625,1.5 -1.3125,0.5625 -1.78125,0.5625 l -0.75,0.1875 q 0,4.21875 1.21875,8.0625 1.3125,3.84375 3.1875,7.78125 4.125,8.25 8.15625,14.90625 4.03125,6.65625 7.6875,12.9375 3.65625,6.28125 6.65625,12.75 3,6.375 5.0625,14.0625 l 1.21875,-0.46875 q 2.25,1.78125 3.5625,3.28125 1.40625,1.5 2.4375,3.1875 l 1.5,2.53125 q 0.9375,-1.875 1.3125,-3.65625 0.375,-1.78125 0.375,-3.65625 0,-2.53125 -0.5625,-5.15625 -0.46875,-2.71875 -0.9375,-5.625 0.5625,-0.46875 1.125,-0.75 0.65625,-0.375 1.21875,-0.75 7.03125,5.71875 17.53125,9.46875 5.34375,1.875 8.34375,2.8125 3.09375,0.9375 3.84375,1.03125 6.28125,0.46875 11.90625,0.84375 2.34375,0.1875 4.78125,0.46875 2.4375,0.1875 4.59375,0.46875 2.25,0.1875 4.03125,0.46875 1.875,0.1875 3,0.46875 z m -87,-5.71875 q 3.09375,0 4.96875,1.3125 1.96875,1.3125 3.65625,3.75 l 5.625,-5.34375 q -0.9375,-3.375 -2.0625,-6.1875 -1.03125,-2.8125 -2.4375,-5.625 -1.3125,-2.90625 -3,-6.09375 -1.6875,-3.1875 -4.03125,-7.21875 -2.25,-4.03125 -5.15625,-9.1875 -2.90625,-5.25 -6.65625,-12.1875 2.25,8.15625 4.03125,16.3125 0.75,3.5625 1.5,7.40625 0.84375,3.84375 1.5,7.78125 0.75,3.9375 1.21875,7.875 0.5625,3.84375 0.84375,7.40625 z m 0,3 q -1.03125,5.0625 -2.71875,10.40625 -1.59375,5.34375 -3.46875,10.78125 h 19.40625 q 0.28125,-2.0625 0.75,-4.3125 0.46875,-2.25 0.84375,-4.3125 0.46875,-2.15625 0.75,-3.84375 0.375,-1.6875 0.375,-2.53125 0,-0.84375 -0.1875,-1.875 -0.0937,-1.125 -0.28125,-2.0625 -0.28125,-1.03125 -0.46875,-2.15625 l -5.34375,5.34375 -2.53125,-0.1875 q -0.75,-1.03125 -1.40625,-1.96875 -0.5625,-0.9375 -1.3125,-1.6875 -0.75,-0.75 -1.875,-1.125 -1.03125,-0.46875 -2.53125,-0.46875 z m 83.15625,17.625 -4.59375,-12.9375 q -2.25,-0.1875 -4.3125,-0.375 -1.78125,-0.1875 -3.75,-0.28125 -1.96875,-0.1875 -3.375,-0.375 l -6.9375,-0.46875 2.34375,10.40625 q 5.34375,0.1875 10.40625,1.5 5.0625,1.3125 10.21875,2.53125 z m -8.8125,-84.9375 q 0.28125,0 0.65625,-0.0937 0.75,-0.1875 1.21875,-0.1875 1.3125,0 2.625,1.40625 0.1875,-1.21875 1.125,-1.96875 0.9375,-0.75 1.59375,-0.84375 0.28125,-0.0937 0.9375,-0.0937 l -10.125,-23.0625 z m -88.21875,-22.59375 q 1.125,-1.40625 1.125,-3.46875 0,-1.3125 -0.375,-2.71875 -0.28125,-1.40625 -0.65625,-2.71875 -0.46875,1.3125 -0.84375,2.625 -0.28125,1.3125 -0.28125,2.625 0,1.875 1.03125,3.65625 z m -10.5,-21.46875 q 0.9375,0 3.1875,1.03125 -2.625,1.875 -3.65625,1.875 -0.9375,0 -0.9375,-1.3125 0,-1.59375 1.40625,-1.59375 z"
         id="path3071"
         inkscape:connector-curvature="0" />
    </g>
  </g>
</svg>
