<?xml version="1.0" encoding="UTF-8" standalone="no"?>
<!-- Created with Inkscape (http://www.inkscape.org/) -->

<svg
   xmlns:dc="http://purl.org/dc/elements/1.1/"
   xmlns:cc="http://creativecommons.org/ns#"
   xmlns:rdf="http://www.w3.org/1999/02/22-rdf-syntax-ns#"
   xmlns:svg="http://www.w3.org/2000/svg"
   xmlns="http://www.w3.org/2000/svg"
   xmlns:sodipodi="http://sodipodi.sourceforge.net/DTD/sodipodi-0.dtd"
   xmlns:inkscape="http://www.inkscape.org/namespaces/inkscape"
   width="42.416016mm"
   height="37.851952mm"
   viewBox="0 0 42.416016 37.851952"
   version="1.1"
   id="svg19147"
   inkscape:version="0.92.4 (5da689c313, 2019-01-14)"
   sodipodi:docname="G2.svg">
  <defs
     id="defs19141" />
  <sodipodi:namedview
     id="base"
     pagecolor="#ffffff"
     bordercolor="#666666"
     borderopacity="1.0"
     inkscape:pageopacity="0.0"
     inkscape:pageshadow="2"
     inkscape:zoom="0.35"
     inkscape:cx="-380.40178"
     inkscape:cy="-367.82145"
     inkscape:document-units="mm"
     inkscape:current-layer="layer1"
     showgrid="false"
     fit-margin-top="0"
     fit-margin-left="0"
     fit-margin-right="0"
     fit-margin-bottom="0"
     inkscape:window-width="1920"
     inkscape:window-height="1017"
     inkscape:window-x="-8"
     inkscape:window-y="-8"
     inkscape:window-maximized="1" />
  <metadata
     id="metadata19144">
    <rdf:RDF>
      <cc:Work
         rdf:about="">
        <dc:format>image/svg+xml</dc:format>
        <dc:type
           rdf:resource="http://purl.org/dc/dcmitype/StillImage" />
        <dc:title></dc:title>
      </cc:Work>
    </rdf:RDF>
  </metadata>
  <g
     inkscape:label="Layer 1"
     inkscape:groupmode="layer"
     id="layer1"
     transform="translate(-13.335472,-13.661954)">
    <flowRoot
       xml:space="preserve"
       id="flowRoot19692"
       style="font-style:normal;font-variant:normal;font-weight:normal;font-stretch:normal;font-size:192px;line-height:1.25;font-family:sans-serif;-inkscape-font-specification:'sans-serif, Normal';font-variant-ligatures:normal;font-variant-caps:normal;font-variant-numeric:normal;font-feature-settings:normal;text-align:start;letter-spacing:0px;word-spacing:0px;writing-mode:lr-tb;text-anchor:start;fill:#000000;fill-opacity:1;stroke:none"
       transform="scale(0.26458333)"><flowRegion
         id="flowRegion19694"><rect
           id="rect19696"
           width="1142.8572"
           height="1297.1428"
           x="5.7142859"
           y="2.519685" /></flowRegion><flowPara
         id="flowPara19698"></flowPara></flowRoot>    <g
       aria-label="𓅀"
       style="font-style:normal;font-variant:normal;font-weight:normal;font-stretch:normal;font-size:50.79999924px;line-height:1.25;font-family:sans-serif;-inkscape-font-specification:'sans-serif, Normal';font-variant-ligatures:normal;font-variant-caps:normal;font-variant-numeric:normal;font-feature-settings:normal;text-align:start;letter-spacing:0px;word-spacing:0px;writing-mode:lr-tb;text-anchor:start;fill:#000000;fill-opacity:1;stroke:none;stroke-width:0.26458332"
       id="text19702">
      <path
         d="m 14.451684,50.670554 q -0.347266,0 -0.644922,0.223242 -0.272851,0.223242 -0.37207,0.471289 l -0.09922,-0.04961 q 0,-0.347265 0.09922,-0.595312 0.124023,-0.272852 0.248047,-0.37207 0.173632,-0.124024 0.322461,-0.223243 0.148828,-0.124023 0.272851,-0.223242 0.124024,-0.09922 0.248047,-0.198437 h 8.433594 q 0.04961,-0.173633 0.148828,-0.595313 0.124023,-0.446484 0.272851,-1.041797 0.173633,-0.620117 0.372071,-1.389062 0.223242,-0.768945 0.446484,-1.5875 0.471289,-1.686719 0.620117,-3.075781 0.173633,-1.413867 0.173633,-2.80293 V 38.68989 q 0,-1.21543 -0.297656,-2.406055 -0.272852,-1.21543 -0.620117,-2.430859 -0.347266,-1.21543 -0.768946,-2.306836 -0.421679,-1.116211 -0.892968,-2.133203 -0.917774,-2.00918 -0.917774,-5.55625 v -0.79375 q 0.02481,-1.289844 0.124024,-2.579688 0.124023,-1.289843 0.124023,-2.579687 -0.396875,-0.223242 -0.768945,-0.396875 -0.372071,-0.173633 -0.768946,-0.272852 -0.37207,-0.124023 -0.818554,-0.173632 -0.446485,-0.07442 -1.016992,-0.07442 -0.818555,0 -1.810743,0.272852 -0.992187,0.248047 -1.810742,0.719336 l -0.570508,-0.520898 q 0.248047,-0.446485 0.520899,-0.84336 0.223242,-0.347265 0.471289,-0.669726 0.272851,-0.347266 0.520898,-0.520899 0.396875,-0.272851 0.84336,-0.322461 0.446484,-0.07441 1.016992,-0.07441 0.297656,0 0.694531,0.07441 0.42168,0.04961 0.669727,0.04961 0.471289,0 0.892968,-0.124024 0.42168,-0.124023 0.744141,-0.297656 0.347266,-0.198438 0.595312,-0.37207 0.248047,-0.198438 0.372071,-0.322461 0.198437,-0.198438 0.272851,-0.272852 0.09922,-0.09922 0.223243,-0.09922 h 6.821288 l 0.223243,1.240235 h 6.225976 q 0,0.07441 0.04961,0.446484 0.07441,0.347266 0.173632,0.892969 0.09922,0.520898 0.198438,1.190625 0.09922,0.644922 0.223242,1.314648 0.272852,1.562696 0.595313,3.547071 3.894335,4.266406 6.821288,7.813476 2.951758,3.54707 5.035352,6.449219 4.117578,5.779492 7.366992,13.02246 l -0.644922,0.42168 -1.761133,-1.835547 q 0.223243,0.446485 0.322461,0.694531 0.124024,0.223243 0.198438,0.446485 0.07441,0.198437 0.148828,0.471289 0.07441,0.272851 0.198437,0.79375 l -0.272851,0.520898 q -0.818555,0.248047 -1.661914,0.248047 -1.190625,0 -2.257227,-0.297656 -1.066601,-0.297656 -2.083593,-1.016992 l 0.173632,0.719336 -0.272851,0.520898 q -0.818555,0.248047 -1.661914,0.248047 -1.63711,0 -3.199805,-0.967383 0.04961,0.148828 0.04961,0.347266 0.0248,0.173633 0.04961,0.37207 v 0.09922 h -0.223242 v -0.173633 q 0,-0.272852 -0.223242,-0.37207 -0.198438,-0.09922 -0.297657,-0.09922 h -4.216797 q 0.02481,0.124023 0.02481,0.248047 0.02481,0.124023 0.02481,0.248047 v 0.09922 h -0.223242 v -0.173632 q 0,-0.173633 -0.09922,-0.272852 -0.09922,-0.09922 -0.223242,-0.148828 H 21.173754 q -0.347265,0 -0.644922,0.223242 -0.272851,0.223242 -0.37207,0.471289 l -0.09922,-0.04961 q 0,-0.322461 0.07441,-0.520899 0.04961,-0.09922 0.09922,-0.173632 z m 23.539648,-5.134571 0.297656,-0.198437 2.43086,1.016992 q 0.446484,-1.637109 0.74414,-3.249414 0.322461,-1.612305 0.322461,-3.323828 Q 40.372582,38.838718 39.181957,37.970554 37.991332,37.10239 36.999145,36.30864 36.006957,35.51489 35.113988,34.597116 34.22102,33.654538 33.42727,32.538327 31.814965,30.33071 31.442895,27.478171 l -0.04961,-0.496094 0.79375,-0.07441 0.02481,0.248047 q 0.248047,3.249414 2.728516,6.027539 1.265039,1.389063 2.951757,2.80293 1.711524,1.389062 3.844727,2.802929 0.620117,0.347266 1.463476,0.892969 0.84336,0.520899 1.612305,1.016992 0.892969,0.595313 1.835547,1.190625 2.158008,1.339453 3.522265,2.331641 1.389063,0.992187 2.00918,1.612305 0.620117,0.620117 1.066602,1.091406 0.471289,0.471289 0.818554,0.79375 -1.835547,-4.067969 -4.886523,-8.656836 -1.562695,-2.331641 -3.54707,-4.911328 Q 43.67161,31.570949 41.191142,28.6688 40.819071,28.172706 40.149345,27.403761 39.479618,26.634816 38.809892,25.91548 38.016142,25.07212 37.147978,24.154347 36.99915,24.005519 36.751103,23.757472 36.527861,23.484621 36.304618,23.211769 36.031767,22.914113 35.734111,22.566847 L 34.59309,15.695945 h -5.853906 q -0.272852,0.248047 -0.471289,0.496093 -0.173633,0.248047 -0.372071,0.47129 -0.173632,0.198437 -0.396875,0.347265 -0.198437,0.124024 -0.496093,0.124024 -0.297657,0 -0.620118,-0.04961 -0.297656,-0.04961 -0.79375,-0.04961 -0.719335,0 -1.215429,0.198437 -0.471289,0.173633 -0.868164,0.744141 0.620117,-0.223242 1.413867,-0.37207 0.818555,-0.148828 1.438672,-0.148828 0.272851,0 0.496094,0.07441 0.248046,0.04961 0.520898,0.198437 0.272852,0.124024 0.620117,0.347266 0.347266,0.198437 0.818555,0.496093 l 0.173633,0.322461 q 0,1.289844 -0.09922,2.579688 -0.09922,1.289844 -0.124024,2.629297 v 1.190625 q 0,2.678906 0.570508,4.34082 0.595313,1.785937 1.810742,3.423047 0.620118,0.818554 1.364258,1.885156 0.744141,1.041797 1.661914,2.331641 0.446485,0.644921 0.917774,1.413867 0.496093,0.768945 0.967382,1.5875 0.47129,0.79375 0.868165,1.637109 0.421679,0.818555 0.719335,1.562695 z M 22.31477,22.864499 v 1.190625 q 0,2.678907 0.570508,4.340821 0.595312,1.785937 1.810742,3.423046 0.620117,0.818555 1.364258,1.885157 0.74414,1.041796 1.661914,2.33164 0.446484,0.644922 0.967382,1.438672 0.545703,0.768945 1.041797,1.612305 0.520899,0.843359 0.942578,1.711523 0.446485,0.868164 0.719336,1.661914 0,-0.223242 0.02481,-0.496094 0,-0.248046 0,-0.620117 0.02481,-0.37207 0.02481,-0.892968 v -0.520899 q 0,-1.240234 -0.297657,-2.455664 -0.272851,-1.21543 -0.644921,-2.430859 -0.967383,-0.79375 -1.860352,-1.711524 -0.868164,-0.917773 -1.661914,-2.033984 -1.612305,-2.207617 -1.984375,-5.060156 l -0.04961,-0.496094 0.79375,-0.07441 0.0248,0.248047 q 0.248047,3.249414 2.728516,6.027539 0.520898,0.595312 0.892969,0.967383 0.37207,0.347265 0.644921,0.620117 -0.272851,-0.768946 -0.570507,-1.488281 -0.297657,-0.719336 -0.595313,-1.389063 -0.917773,-2.00918 -0.917773,-5.55625 v -0.79375 q 0.0248,-1.289844 0.124023,-2.579687 0.124024,-1.289844 0.124024,-2.579688 -0.396875,-0.223242 -0.644922,-0.396875 -0.223242,-0.173633 -0.42168,-0.272851 -0.173633,-0.124024 -0.37207,-0.173633 -0.173633,-0.07441 -0.446485,-0.07441 -0.818554,0 -1.810742,0.272851 -0.992187,0.248047 -1.810742,0.719336 l -0.198437,-0.173632 q -0.04961,0.942578 -0.124024,1.90996 -0.04961,0.942579 -0.04961,1.909961 z m 31.055468,27.533203 q -0.09922,-0.42168 -0.173633,-0.595312 -0.04961,-0.198438 -0.09922,-0.297657 -0.04961,-0.124023 -0.124024,-0.272851 -0.07441,-0.148828 -0.223242,-0.496094 -0.570508,-1.389062 -1.314649,-2.331641 -0.74414,-0.967382 -2.282031,-1.95957 L 45.482348,42.088132 Q 44.06848,41.170358 42.952269,40.451023 l 1.63711,3.671093 q 0.843359,1.909961 1.711523,3.150195 0.868164,1.21543 1.810742,1.934766 0.967383,0.694531 1.984375,0.992188 1.041797,0.272851 2.232422,0.272851 0.520899,0 1.041797,-0.07441 z m -23.068359,-8.334375 -0.595312,2.926953 -0.520899,0.248047 q -0.818555,-0.37207 -1.761133,-0.768945 -0.917773,-0.396875 -1.984375,-0.396875 l -1.513086,5.630664 h 5.754688 l 0.967383,-3.373438 q 0.04961,-0.198437 0.124023,-0.520898 0.09922,-0.347266 0.173633,-0.694531 0.09922,-0.396875 0.173633,-0.868164 z m 15.924609,8.582422 q 0.520899,0 1.041797,-0.07441 -0.09922,-0.37207 -0.198437,-0.744141 -0.07442,-0.37207 -0.198438,-0.719336 -0.818555,-0.818554 -1.612305,-2.009179 -0.768945,-1.190625 -1.488281,-2.852539 l -1.265039,-2.852539 q -0.124023,1.488281 -0.446484,2.852539 -0.322461,1.364257 -0.694532,2.778125 l -0.520898,0.248046 -0.322461,-0.124023 q 2.554883,3.497461 5.705078,3.497461 z M 31.889379,44.518991 q 0.892969,0 1.835547,0.347266 0.967383,0.322461 1.761133,0.669726 l 0.669726,-3.373437 q -0.04961,-0.07441 -0.124023,-0.173633 -0.04961,-0.124023 -0.198438,-0.471289 -0.967383,-1.835547 -2.480468,-3.894336 -0.768946,-1.066601 -1.190625,-1.637109 -0.396875,-0.570508 -0.471289,-0.694531 l -0.496094,-0.694532 q 0.37207,1.289844 0.694531,2.654102 0.347266,1.339453 0.347266,2.75332 v 0.520899 q 0,0.79375 -0.07441,1.513085 -0.04961,0.694532 -0.09922,1.26504 -0.09922,0.644921 -0.173633,1.215429 z M 25.44016,43.278757 q 0.892969,0 1.835547,0.347265 0.967383,0.322461 1.761133,0.669727 l 0.694531,-3.447852 -0.347265,-0.570507 q -0.967383,-1.835547 -2.480469,-3.894336 -0.768945,-1.066602 -1.190625,-1.63711 -0.396875,-0.570507 -0.471289,-0.694531 l -0.496094,-0.694531 q 0.37207,1.289844 0.694531,2.654102 0.347266,1.339453 0.347266,2.75332 v 0.520898 q 0,0.79375 -0.07441,1.513086 -0.04961,0.694531 -0.09922,1.265039 -0.09922,0.644922 -0.173633,1.21543 z m 10.814844,6.424414 0.917773,-3.993555 -0.421679,-2.430859 -0.595313,2.951758 -0.520898,0.248046 q -0.818555,-0.37207 -1.761133,-0.768945 -0.917773,-0.396875 -1.984375,-0.396875 l -1.240234,4.39043 z M 22.289965,14.45571 q -0.272851,0.248047 -0.644922,0.496094 -0.347265,0.248047 -0.79375,0.471289 -0.421679,0.198438 -0.892968,0.347266 -0.446485,0.124023 -0.892969,0.124023 -0.297656,0 -0.620117,-0.04961 -0.297657,-0.04961 -0.79375,-0.04961 -0.719336,0 -1.21543,0.198438 -0.471289,0.173633 -0.868164,0.744141 0.620117,-0.223243 1.413867,-0.372071 0.818555,-0.148828 1.438672,-0.148828 1.041797,0 2.00918,0.272852 0.992187,0.272851 1.934765,0.843359 l 0.173633,0.322461 v 0.347266 q 0.223242,-0.372071 0.520898,-0.744141 0.297657,-0.396875 0.570508,-0.595312 0.396875,-0.272852 0.84336,-0.322461 0.446484,-0.07441 1.016992,-0.07441 0.297656,0 0.694531,0.07441 0.42168,0.04961 0.669727,0.04961 0.471289,0 0.694531,-0.347266 0.223242,-0.37207 0.421679,-0.768945 0.148829,-0.248047 0.272852,-0.322461 L 28.14387,14.45571 Z m 16.941601,32.12207 -1.116211,-0.496094 -0.868164,3.621485 h 4.613672 Q 40.52141,48.537351 39.231566,46.57778 Z M 30.500317,16.688132 q 0.520898,0.124024 0.917773,0.42168 -0.396875,0.272851 -0.917773,0.446484 L 30.177856,17.109812 Z M 23.85266,15.199851 q 0.520899,0.124023 0.917774,0.42168 -0.396875,0.272851 -0.917774,0.446484 l -0.322461,-0.446484 z"
         style="stroke-width:0.26458332"
         id="path19704"
         inkscape:connector-curvature="0" />
    </g>
  </g>
</svg>
