<?xml version="1.0" encoding="UTF-8" standalone="no"?>
<!-- Created with Inkscape (http://www.inkscape.org/) -->

<svg
   xmlns:dc="http://purl.org/dc/elements/1.1/"
   xmlns:cc="http://creativecommons.org/ns#"
   xmlns:rdf="http://www.w3.org/1999/02/22-rdf-syntax-ns#"
   xmlns:svg="http://www.w3.org/2000/svg"
   xmlns="http://www.w3.org/2000/svg"
   xmlns:sodipodi="http://sodipodi.sourceforge.net/DTD/sodipodi-0.dtd"
   xmlns:inkscape="http://www.inkscape.org/namespaces/inkscape"
   width="41.47345mm"
   height="39.241028mm"
   viewBox="0 0 41.47345 39.241028"
   version="1.1"
   id="svg5328"
   inkscape:version="0.92.4 (5da689c313, 2019-01-14)"
   sodipodi:docname="G20.svg">
  <defs
     id="defs5322" />
  <sodipodi:namedview
     id="base"
     pagecolor="#ffffff"
     bordercolor="#666666"
     borderopacity="1.0"
     inkscape:pageopacity="0.0"
     inkscape:pageshadow="2"
     inkscape:zoom="0.35"
     inkscape:cx="-371.83003"
     inkscape:cy="-335.78782"
     inkscape:document-units="mm"
     inkscape:current-layer="layer1"
     showgrid="false"
     fit-margin-top="0"
     fit-margin-left="0"
     fit-margin-right="0"
     fit-margin-bottom="0"
     inkscape:window-width="1920"
     inkscape:window-height="1017"
     inkscape:window-x="-8"
     inkscape:window-y="-8"
     inkscape:window-maximized="1" />
  <metadata
     id="metadata5325">
    <rdf:RDF>
      <cc:Work
         rdf:about="">
        <dc:format>image/svg+xml</dc:format>
        <dc:type
           rdf:resource="http://purl.org/dc/dcmitype/StillImage" />
        <dc:title></dc:title>
      </cc:Work>
    </rdf:RDF>
  </metadata>
  <g
     inkscape:label="Layer 1"
     inkscape:groupmode="layer"
     id="layer1"
     transform="translate(-11.067528,-20.748446)">
    <g
       aria-label="𓅖"
       transform="scale(0.26458333)"
       style="font-style:normal;font-variant:normal;font-weight:normal;font-stretch:normal;font-size:192px;line-height:1.25;font-family:sans-serif;-inkscape-font-specification:sans-serif;font-variant-ligatures:normal;font-variant-caps:normal;font-variant-numeric:normal;font-feature-settings:normal;text-align:start;letter-spacing:0px;word-spacing:0px;writing-mode:lr-tb;text-anchor:start;fill:#000000;fill-opacity:1;stroke:none"
       id="flowRoot5873">
      <path
         d="m 168.01758,107.01312 h 13.59375 v 43.875 h -27 q 4.21875,6.9375 7.78125,12.65625 3.65625,5.625 6.84375,10.21875 5.0625,7.21875 12.28125,16.40625 7.3125,9.09375 17.0625,20.4375 l -1.3125,2.4375 h -3.65625 q 0.5625,1.125 1.125,2.4375 0.5625,1.3125 1.03125,2.625 0.46875,1.21875 0.75,2.34375 0.28125,1.03125 0.28125,1.78125 0,0.46875 -0.1875,1.03125 -0.1875,0.5625 -0.375,1.03125 l -0.5625,1.40625 -1.5,1.03125 -30.1875,-4.6875 -1.21875,-0.75 q -4.125,-6.46875 -6.65625,-10.78125 -2.53125,-4.40625 -4.5,-7.6875 -1.96875,-3.375 -3.75,-6.28125 -1.78125,-3 -4.40625,-6.75 -1.03125,-1.5 -1.78125,-2.53125 -0.75,-1.03125 -1.21875,-1.78125 -0.5625,-0.84375 -1.03125,-1.3125 -0.0937,0.9375 -0.1875,2.15625 -0.0937,1.125 -0.1875,2.8125 -0.0937,1.59375 -0.28125,3.75 -0.1875,2.25 -0.65625,4.40625 -0.46875,2.0625 -1.3125,4.03125 l -1.96875,0.9375 q -1.6875,-0.9375 -3.5625,-2.15625 -1.78125,-1.3125 -3.75,-2.53125 -1.875,-1.3125 -3.75,-2.625 -1.78125,-1.3125 -3.28125,-2.4375 0.375,3 0.65625,5.15625 0.28125,2.0625 0.46875,3.65625 0.1875,1.5 0.1875,2.625 0.0937,1.03125 0.0937,1.875 0,2.53125 -0.46875,5.15625 -0.375,2.625 -1.40625,4.78125 -1.03125,2.0625 -3,3.46875 -1.875,1.3125 -4.78125,1.3125 -3.65625,0 -8.25,-0.28125 -4.593752,-0.28125 -10.500002,-0.75 -5.90625,-0.46875 -10.59375,-0.65625 -4.6875,-0.1875 -7.6875,-0.1875 -4.21875,0 -7.40625,0.1875 -3.09375,0.1875 -5.34375,0.46875 -2.15625,0.28125 -3.5625,0.65625 -1.3125,0.28125 -2.15625,0.5625 0,-1.21875 1.78125,-2.0625 1.875,-0.9375 4.6875,-1.5 2.90625,-0.65625 6.375,-0.9375 3.46875,-0.375 6.84375,-0.375 2.15625,0 4.59375,0.0937 2.4375,0.0937 4.5,0.1875 2.4375,0.0937 4.78125,0.1875 0.75,-3.1875 1.5,-6.375 0.65625,-2.71875 1.40625,-6 0.75,-3.28125 1.5,-6.28125 0.375,-2.34375 0.5625,-5.0625 0.1875,-2.8125 0.1875,-5.71875 0.09375,-2.90625 0.09375,-5.71875 0.09375,-2.8125 0.28125,-5.25 0.09375,-2.0625 0.28125,-5.25 0.28125,-3.1875 0.46875,-6.65625 0.1875,-3.46875 0.375,-6.84375 0.28125,-3.46875 0.375,-6.09375 h -24.5625 q -6.65625,2.8125 -14.25,2.8125 -7.5,0 -16.03125,-2.8125 l -0.65625,-1.78125 q 0,-1.875 0.9375,-3 0.9375,-1.21875 2.71875,-1.21875 7.6875,3 21.1875,3 -6.09375,-4.5 -15.09375,-4.5 l -1.125,-0.75 1.125,-0.84375 q 3.1875,-0.5625 5.8125,-0.5625 6.84375,0 15.375,5.15625 l 21.375,-1.5 q -4.78125,-4.78125 -8.53125,-10.125 -3.75,-5.34375 -6.375,-10.96875 -6.1875,-12.9375 -6.1875,-27.093746 0,-7.21875 0.84375,-11.15625 0.84375,-4.03125 2.71875,-6.375 l 1.21875,-0.75 h 30.187502 q 1.875,0 3,2.34375 1.125,2.34375 1.125,7.6875 v 3.5625 q 0,2.15625 0.0937,3.5625 0.0937,1.40625 0.375,2.4375 0.28125,0.9375 0.65625,1.6875 0.46875,0.656246 1.125,1.218746 l 2.0625,1.96875 q 13.875,5.8125 28.40625,31.21875 1.3125,2.25 2.53125,4.40625 1.21875,2.0625 2.4375,4.21875 3.09375,0.0937 6.09375,0.28125 3,0.1875 6,0.375 z m -67.40625,18.1875 q 0,-3.46875 2.90625,-5.4375 3,-1.96875 7.59375,-1.96875 l 0.46875,2.90625 q -4.3125,0.5625 -6.1875,1.6875 -1.78125,1.125 -1.78125,3.1875 0,3 3.65625,7.6875 3.65625,4.59375 9.75,10.21875 8.34375,-0.46875 14.25,-0.65625 5.90625,-0.28125 9.46875,-0.28125 1.5,0 2.90625,0 1.40625,0 2.90625,0.0937 -5.25,-9 -9.46875,-15.1875 -4.125,-6.28125 -7.21875,-9.9375 -6.65625,-7.78125 -11.625,-10.40625 -4.96875,-2.625 -6.1875,-4.21875 -1.125,-1.5 -1.96875,-2.8125 -0.75,-1.499996 -0.75,-8.531246 0,-2.8125 -0.1875,-5.4375 -0.1875,-2.71875 -1.3125,-4.6875 H 78.673828 q -1.5,1.875 -2.0625,6.09375 -0.5625,4.125 -0.5625,9.46875 0,13.218746 5.90625,25.687496 2.8125,5.90625 6.9375,11.53125 4.21875,5.625 9.375,10.40625 3.937502,-0.1875 7.500002,-0.375 3.5625,-0.28125 6.75,-0.46875 -5.34375,-5.34375 -8.625,-10.125 -3.28125,-4.78125 -3.28125,-8.4375 z m 17.71875,65.90625 2.71875,-1.96875 q 3.28125,2.53125 6.65625,4.96875 3.375,2.4375 6.9375,4.59375 0.28125,-1.125 0.46875,-2.25 0.28125,-1.125 0.46875,-2.625 0.1875,-1.59375 0.375,-3.5625 0.1875,-2.0625 0.375,-4.875 0,-2.15625 0.5625,-4.40625 l 2.34375,-0.9375 q 3.46875,2.0625 11.90625,16.3125 4.3125,7.125 7.6875,12.84375 3.46875,5.625 6.1875,10.03125 l 28.21875,4.40625 0.46875,-1.21875 q -0.1875,-0.9375 -0.75,-2.4375 -0.5625,-1.59375 -1.3125,-3.375 -0.65625,-1.875 -1.5,-3.9375 -0.84375,-2.0625 -1.6875,-4.03125 -1.96875,-4.59375 -4.40625,-9.84375 l -15.09375,-11.0625 q -3.84375,-2.8125 -9.65625,-6.84375 -5.71875,-4.125 -12.375,-9 -6.65625,-4.875 -13.59375,-10.21875 -6.9375,-5.4375 -13.03125,-10.78125 h -18.5625 z m 59.625,-0.65625 q -9.09375,-11.53125 -14.71875,-20.0625 -5.625,-8.53125 -9.1875,-14.71875 l -2.8125,-4.78125 h -25.875 q 6.09375,5.15625 12.9375,10.5 6.9375,5.34375 13.875,10.5 7.03125,5.15625 13.59375,9.9375 6.65625,4.6875 12.1875,8.625 z m -68.8125,7.3125 -6.375,-1.96875 q -1.03125,0 -2.812502,2.0625 -1.78125,2.0625 -3,5.34375 -1.03125,3 -1.875,6 -0.84375,2.90625 -1.59375,6.9375 4.5,0.65625 9.843752,1.03125 5.4375,0.375 9.9375,0.375 1.125,-0.5625 2.0625,-1.3125 0.9375,-0.75 1.5,-1.96875 0.65625,-1.21875 1.03125,-2.90625 0.375,-1.78125 0.375,-4.40625 0,-4.78125 -1.40625,-13.78125 -1.59375,1.875 -3.5625,3.09375 -1.875,1.125 -3.1875,1.59375 z m 69.46875,-49.3125 v -38.4375 h -8.0625 l -5.53125,33.5625 z m -69,46.40625 q 1.40625,-0.46875 2.90625,-1.6875 1.59375,-1.21875 2.25,-2.8125 l -14.53125,-35.15625 q 0,1.40625 -0.1875,3.9375 -0.187502,2.4375 -0.375002,5.4375 -0.1875,2.90625 -0.46875,5.90625 -0.1875,2.90625 -0.375,5.15625 -0.1875,2.71875 -0.28125,5.53125 -0.09375,2.8125 -0.1875,5.4375 0,2.625 -0.09375,4.96875 -0.09375,2.25 -0.28125,3.75 1.3125,-1.59375 2.437502,-1.96875 1.21875,-0.46875 2.34375,-0.46875 1.21875,0 3.28125,0.75 2.0625,0.65625 3.5625,1.21875 z M 92.548828,98.950624 q 0.5625,-1.875 1.59375,-3.84375 1.03125,-2.0625 2.4375,-2.8125 1.3125,-1.59375 3.09375,-1.59375 1.781252,0 3.093752,1.875 v 1.875 q -1.03125,1.96875 -2.625,1.96875 -1.875002,0 -2.906252,-0.9375 -1.5,1.3125 -2.15625,3.75 -0.5625,2.343746 -0.5625,5.062496 v 2.90625 l -3,0.1875 -1.03125,-5.8125 q -0.5625,-3.093746 -2.15625,-5.624996 -0.9375,0.46875 -1.6875,0.46875 -2.15625,0 -3.375,-2.15625 v -1.5 q 1.21875,-1.96875 3.1875,-2.0625 h 0.1875 q 1.875,0 3.5625,2.4375 0.9375,1.21875 1.5,2.90625 0.5625,1.59375 0.84375,2.90625 z M 192.20508,210.04437 h 1.875 l -3,-3.46875 z"
         id="path5881"
         inkscape:connector-curvature="0" />
    </g>
  </g>
</svg>
