<?xml version="1.0" encoding="UTF-8" standalone="no"?>
<!-- Created with Inkscape (http://www.inkscape.org/) -->

<svg
   xmlns:dc="http://purl.org/dc/elements/1.1/"
   xmlns:cc="http://creativecommons.org/ns#"
   xmlns:rdf="http://www.w3.org/1999/02/22-rdf-syntax-ns#"
   xmlns:svg="http://www.w3.org/2000/svg"
   xmlns="http://www.w3.org/2000/svg"
   xmlns:sodipodi="http://sodipodi.sourceforge.net/DTD/sodipodi-0.dtd"
   xmlns:inkscape="http://www.inkscape.org/namespaces/inkscape"
   width="37.529491mm"
   height="39.241016mm"
   viewBox="0 0 37.529491 39.241016"
   version="1.1"
   id="svg5890"
   inkscape:version="0.92.4 (5da689c313, 2019-01-14)"
   sodipodi:docname="G20A.svg">
  <defs
     id="defs5884" />
  <sodipodi:namedview
     id="base"
     pagecolor="#ffffff"
     bordercolor="#666666"
     borderopacity="1.0"
     inkscape:pageopacity="0.0"
     inkscape:pageshadow="2"
     inkscape:zoom="0.35"
     inkscape:cx="-363.25977"
     inkscape:cy="-310.07297"
     inkscape:document-units="mm"
     inkscape:current-layer="layer1"
     showgrid="false"
     fit-margin-top="0"
     fit-margin-left="0"
     fit-margin-right="0"
     fit-margin-bottom="0"
     inkscape:window-width="1920"
     inkscape:window-height="1017"
     inkscape:window-x="-8"
     inkscape:window-y="-8"
     inkscape:window-maximized="1" />
  <metadata
     id="metadata5887">
    <rdf:RDF>
      <cc:Work
         rdf:about="">
        <dc:format>image/svg+xml</dc:format>
        <dc:type
           rdf:resource="http://purl.org/dc/dcmitype/StillImage" />
        <dc:title></dc:title>
      </cc:Work>
    </rdf:RDF>
  </metadata>
  <g
     inkscape:label="Layer 1"
     inkscape:groupmode="layer"
     id="layer1"
     transform="translate(-8.7999796,-27.552179)">
    <g
       aria-label="𓅗"
       transform="scale(0.26458333)"
       style="font-style:normal;font-variant:normal;font-weight:normal;font-stretch:normal;font-size:192px;line-height:1.25;font-family:sans-serif;-inkscape-font-specification:sans-serif;font-variant-ligatures:normal;font-variant-caps:normal;font-variant-numeric:normal;font-feature-settings:normal;text-align:start;letter-spacing:0px;word-spacing:0px;writing-mode:lr-tb;text-anchor:start;fill:#000000;fill-opacity:1;stroke:none"
       id="flowRoot6435">
      <path
         d="m 33.259766,167.41547 q 2.625,-0.65625 4.96875,-1.21875 2.4375,-0.65625 5.53125,-1.5 3.09375,-0.84375 7.21875,-2.0625 4.21875,-1.3125 10.3125,-3.375 -3.28125,-4.875 -5.53125,-9.75 -6.1875,-12.9375 -6.1875,-27.09375 0,-7.21875 0.84375,-11.15625 0.84375,-4.03125 2.71875,-6.375 l 1.21875,-0.75 h 30.1875 q 1.875,0 3,2.34375 1.125,2.34375 1.125,7.6875 v 3.5625 q 0,2.15625 0.09375,3.5625 0.09375,1.40625 0.375,2.4375 0.28125,0.9375 0.65625,1.6875 0.46875,0.65625 1.125,1.21875 l 2.0625,1.96875 q 11.343754,4.6875 23.437504,23.15625 0.46875,0 1.40625,0.1875 8.15625,1.125 29.8125,7.875 l 14.15625,4.5 q 2.625,0.84375 5.53125,1.59375 3,0.75 6.5625,1.5 -3.5625,0.75 -6.75,1.5 -3.09375,0.75 -5.34375,1.5 -8.25,2.71875 -15.5625,4.78125 -7.3125,1.96875 -13.78125,3.46875 3.75,6.1875 7.03125,11.4375 3.28125,5.15625 6.28125,9.375 5.0625,7.21875 12.28125,16.40625 7.3125,9.09375 17.0625,20.4375 l -1.3125,2.4375 h -3.65625 q 0.5625,1.125 1.125,2.4375 0.5625,1.3125 1.03125,2.625 0.46875,1.21875 0.75,2.34375 0.28125,1.03125 0.28125,1.78125 0,0.46875 -0.1875,1.03125 -0.1875,0.5625 -0.375,1.03125 l -0.5625,1.40625 -1.5,1.03125 -30.1875,-4.6875 -1.21875,-0.75 q -4.125,-6.46875 -6.65625,-10.78125 -2.53125,-4.40625 -4.5,-7.6875 -1.96875,-3.375 -3.75,-6.28125 -1.78125,-3 -4.40625,-6.75 -1.03125,-1.5 -1.78125,-2.53125 -0.75,-1.03125 -1.21875,-1.78125 -0.5625,-0.84375 -1.03125,-1.3125 -0.0937,0.9375 -0.1875,2.15625 -0.0937,1.125 -0.1875,2.8125 -0.0937,1.59375 -0.28125,3.75 -0.1875,2.25 -0.65625,4.40625 -0.46875,2.0625 -1.3125,4.03125 l -1.96875,0.9375 q -1.6875,-0.9375 -3.5625,-2.15625 -1.78125,-1.3125 -3.75,-2.53125 -1.875,-1.3125 -3.75,-2.625 -1.781254,-1.3125 -3.281254,-2.4375 0.375,3 0.65625,5.15625 0.28125,2.0625 0.46875,3.65625 0.1875,1.5 0.1875,2.625 0.09375,1.03125 0.09375,1.875 0,2.53125 -0.46875,5.15625 -0.375,2.625 -1.40625,4.78125 -1.03125,2.0625 -3,3.46875 -1.875,1.3125 -4.78125,1.3125 -3.65625,0 -8.25,-0.28125 -4.59375,-0.28125 -10.5,-0.75 -5.90625,-0.46875 -10.59375,-0.65625 -4.6875,-0.1875 -7.6875,-0.1875 -4.21875,0 -7.40625,0.1875 -3.09375,0.1875 -5.34375,0.46875 -2.15625,0.28125 -3.5625,0.65625 -1.3125,0.28125 -2.15625,0.5625 0,-1.21875 1.78125,-2.0625 1.875,-0.9375 4.6875,-1.5 2.90625,-0.65625 6.375,-0.9375 3.46875,-0.375 6.84375,-0.375 2.15625,0 4.59375,0.0937 2.4375,0.0937 4.5,0.1875 2.4375,0.0937 4.78125,0.1875 0.75,-3.1875 1.5,-6.375 0.65625,-2.71875 1.40625,-6 0.75,-3.28125 1.5,-6.28125 0.375,-2.34375 0.5625,-5.0625 0.1875,-2.8125 0.1875,-5.71875 0.09375,-2.90625 0.09375,-5.71875 0.09375,-2.8125 0.28125,-5.25 0.09375,-1.96875 0.28125,-4.78125 0.1875,-2.90625 0.375,-6.09375 0.28125,-3.1875 0.46875,-6.375 0.1875,-3.28125 0.28125,-5.90625 -6.46875,-1.5 -11.625,-2.8125 -5.0625,-1.40625 -9,-2.71875 -3.1875,-1.03125 -5.625,-1.59375 -2.34375,-0.65625 -4.5,-1.125 -2.15625,-0.46875 -4.5,-1.03125 -2.25,-0.5625 -5.25,-1.59375 z m 61.59375,49.40625 2.71875,-1.96875 q 3.281254,2.53125 6.656254,4.96875 3.375,2.4375 6.9375,4.59375 0.28125,-1.125 0.46875,-2.25 0.28125,-1.125 0.46875,-2.625 0.1875,-1.59375 0.375,-3.5625 0.1875,-2.0625 0.375,-4.875 0,-2.15625 0.5625,-4.40625 l 2.34375,-0.9375 q 3.46875,2.0625 11.90625,16.3125 4.3125,7.125 7.6875,12.84375 3.46875,5.625 6.1875,10.03125 l 28.21875,4.40625 0.46875,-1.21875 q -0.1875,-0.9375 -0.75,-2.4375 -0.5625,-1.59375 -1.3125,-3.375 -0.65625,-1.875 -1.5,-3.9375 -0.84375,-2.0625 -1.6875,-4.03125 -1.96875,-4.59375 -4.40625,-9.84375 l -15.09375,-11.0625 q -3.28125,-2.34375 -8.0625,-5.71875 -4.78125,-3.46875 -10.40625,-7.5 -5.53125,-4.03125 -11.53125,-8.53125 -6,-4.5 -11.71875,-9.1875 -10.312504,0 -24.281254,-3 z m -17.71875,-65.90625 q 0,-3.46875 2.90625,-5.4375 3,-1.96875 7.59375,-1.96875 l 0.46875,2.90625 q -4.3125,0.5625 -6.1875,1.6875 -1.78125,1.125 -1.78125,3.1875 0,1.03125 0.46875,2.25 12.65625,-2.8125 23.718754,-2.8125 3.375,0 8.0625,0.5625 -1.6875,-2.4375 -3.1875,-4.40625 -1.5,-2.0625 -2.8125,-3.65625 -6.656254,-7.78125 -11.625004,-10.40625 -4.96875,-2.625 -6.1875,-4.21875 -1.125,-1.5 -1.96875,-2.8125 -0.75,-1.5 -0.75,-8.53125 0,-2.8125 -0.1875,-5.4375 -0.1875,-2.71875 -1.3125,-4.6875 h -29.15625 q -1.5,1.875 -2.0625,6.09375 -0.5625,4.125 -0.5625,9.46875 0,13.21875 5.90625,25.6875 2.25,4.875 5.8125,9.84375 0.1875,0 0.28125,-0.0937 6.75,-2.25 13.21875,-3.9375 -0.65625,-1.59375 -0.65625,-3.28125 z m 26.250004,26.90625 h 0.75 q 3.65625,0 9.28125,-0.84375 5.71875,-0.9375 13.03125,-2.625 l -10.40625,-17.53125 q -3.5625,-0.65625 -6.5625,-1.03125 -3,-0.375 -5.34375,-0.375 -3.9375,0 -9.187504,0.84375 -5.15625,0.75 -11.4375,2.25 3,4.03125 8.15625,9 5.25,4.875 11.718754,10.3125 z m -17.718754,45.65625 -6.375,-1.96875 q -1.03125,0 -2.8125,2.0625 -1.78125,2.0625 -3,5.34375 -1.03125,3 -1.875,6 -0.84375,2.90625 -1.59375,6.9375 4.5,0.65625 9.84375,1.03125 5.4375,0.375 9.9375,0.375 1.125,-0.5625 2.0625,-1.3125 0.9375,-0.75 1.5,-1.96875 0.65625,-1.21875 1.03125,-2.90625 0.375,-1.78125 0.375,-4.40625 0,-4.78125 -1.40625,-13.78125 -1.59375,1.875 -3.5625,3.09375 -1.875,1.125 -3.1875,1.59375 z m 68.812504,-7.3125 q -9.09375,-11.53125 -14.71875,-20.0625 -5.625,-8.53125 -9.1875,-14.71875 l -1.21875,-2.0625 q -11.625,2.53125 -20.4375,3.09375 5.625,4.5 11.71875,9.09375 6.09375,4.5 12,8.8125 6,4.21875 11.53125,8.25 5.625,4.03125 10.3125,7.59375 z m -68.343754,4.40625 q 1.40625,-0.46875 2.90625,-1.6875 1.59375,-1.21875 2.25,-2.8125 l -14.53125,-35.15625 q 0,1.40625 -0.1875,3.9375 -0.1875,2.4375 -0.375,5.4375 -0.1875,2.90625 -0.46875,5.90625 -0.1875,2.90625 -0.375,5.15625 -0.1875,2.71875 -0.28125,5.53125 -0.09375,2.8125 -0.1875,5.4375 0,2.625 -0.09375,4.96875 -0.09375,2.25 -0.28125,3.75 1.3125,-1.59375 2.4375,-1.96875 1.21875,-0.46875 2.34375,-0.46875 1.21875,0 3.28125,0.75 2.0625,0.65625 3.5625,1.21875 z m -5.71875,-61.21875 q -3,0.75 -6.1875,1.59375 -3.09375,0.84375 -6.46875,1.875 1.875,2.34375 3.9375,4.59375 2.15625,2.15625 4.5,4.125 l 0.9375,2.4375 q 5.71875,1.3125 10.875,2.25 5.25,0.9375 9.84375,1.3125 -5.625,-4.78125 -10.21875,-9.375 -4.5,-4.6875 -7.21875,-8.8125 z m 48.937504,14.25 q 5.34375,-1.3125 11.25,-2.90625 5.90625,-1.59375 12.375,-3.46875 -9.375,-3.1875 -17.71875,-5.53125 -8.25,-2.4375 -15.1875,-4.03125 z m -60.281254,-48.9375 q 0.5625,-1.875 1.59375,-3.84375 1.03125,-2.0625 2.4375,-2.8125 1.3125,-1.59375 3.09375,-1.59375 1.78125,0 3.09375,1.875 v 1.875 q -1.03125,1.96875 -2.625,1.96875 -1.875,0 -2.90625,-0.9375 -1.5,1.3125 -2.15625,3.75 -0.5625,2.34375 -0.5625,5.0625 v 2.90625 l -3,0.1875 -1.03125,-5.8125 q -0.5625,-3.09375 -2.15625,-5.625 -0.9375,0.46875 -1.6875,0.46875 -2.15625,0 -3.375,-2.15625 v -1.5 q 1.21875,-1.96875 3.1875,-2.0625 h 0.1875 q 1.875,0 3.5625,2.4375 0.9375,1.21875 1.5,2.90625 0.5625,1.59375 0.84375,2.90625 z m -14.90625,42.5625 q 4.78125,1.6875 9.46875,3.09375 4.78125,1.40625 9.46875,2.625 -2.34375,-2.15625 -4.5,-4.40625 -2.0625,-2.25 -3.9375,-4.6875 -2.625,0.75 -5.25,1.59375 -2.53125,0.84375 -5.25,1.78125 z m 114.562504,68.53125 h 1.875 l -3,-3.46875 z"
         id="path6443"
         inkscape:connector-curvature="0" />
    </g>
  </g>
</svg>
