<?xml version="1.0" encoding="UTF-8" standalone="no"?>
<!-- Created with Inkscape (http://www.inkscape.org/) -->

<svg
   xmlns:dc="http://purl.org/dc/elements/1.1/"
   xmlns:cc="http://creativecommons.org/ns#"
   xmlns:rdf="http://www.w3.org/1999/02/22-rdf-syntax-ns#"
   xmlns:svg="http://www.w3.org/2000/svg"
   xmlns="http://www.w3.org/2000/svg"
   xmlns:sodipodi="http://sodipodi.sourceforge.net/DTD/sodipodi-0.dtd"
   xmlns:inkscape="http://www.inkscape.org/namespaces/inkscape"
   width="35.32188mm"
   height="37.827145mm"
   viewBox="0 0 35.32188 37.827145"
   version="1.1"
   id="svg23085"
   inkscape:version="0.92.4 (5da689c313, 2019-01-14)"
   sodipodi:docname="G21.svg">
  <defs
     id="defs23079" />
  <sodipodi:namedview
     id="base"
     pagecolor="#ffffff"
     bordercolor="#666666"
     borderopacity="1.0"
     inkscape:pageopacity="0.0"
     inkscape:pageshadow="2"
     inkscape:zoom="0.35"
     inkscape:cx="-360.40179"
     inkscape:cy="-488.57143"
     inkscape:document-units="mm"
     inkscape:current-layer="layer1"
     showgrid="false"
     fit-margin-top="0"
     fit-margin-left="0"
     fit-margin-right="0"
     fit-margin-bottom="0"
     inkscape:window-width="1920"
     inkscape:window-height="1017"
     inkscape:window-x="-8"
     inkscape:window-y="-8"
     inkscape:window-maximized="1" />
  <metadata
     id="metadata23082">
    <rdf:RDF>
      <cc:Work
         rdf:about="">
        <dc:format>image/svg+xml</dc:format>
        <dc:type
           rdf:resource="http://purl.org/dc/dcmitype/StillImage" />
        <dc:title></dc:title>
      </cc:Work>
    </rdf:RDF>
  </metadata>
  <g
     inkscape:label="Layer 1"
     inkscape:groupmode="layer"
     id="layer1"
     transform="translate(-8.0438061,18.261668)">
    <g
       aria-label="𓅘"
       style="font-style:normal;font-variant:normal;font-weight:normal;font-stretch:normal;font-size:50.79999924px;line-height:1.25;font-family:sans-serif;-inkscape-font-specification:'sans-serif, Normal';font-variant-ligatures:normal;font-variant-caps:normal;font-variant-numeric:normal;font-feature-settings:normal;text-align:start;letter-spacing:0px;word-spacing:0px;writing-mode:lr-tb;text-anchor:start;fill:#000000;fill-opacity:1;stroke:none;stroke-width:0.26458332"
       id="text23632">
      <path
         d="m 14.393806,-16.550149 h 2.554883 l 0.74414,-1.562695 0.173633,0.04961 v 1.488281 q 0.297656,0.09922 0.744141,0.322461 0.446484,0.198438 0.644922,0.520899 0.396875,0.595312 0.669726,1.240234 0.297656,0.620117 0.297656,1.736328 0,1.066602 -0.297656,2.480469 -0.124023,0.7193358 -0.198437,1.1658201 -0.07441,0.4464844 -0.07441,0.6449219 0,0.5457031 0.248047,0.8929687 0.272851,0.322461 0.917773,0.6201172 l 0.595312,0.2728516 q 2.703711,1.1658203 7.664649,5.5810546 0.818554,0.7441406 1.909961,1.86035152 1.091406,1.11621088 2.33164,2.48046868 1.240235,1.3642578 2.554883,2.9269531 1.339453,1.5378906 2.654102,3.1253906 1.314648,1.5875 2.554882,3.150195 1.240235,1.562696 2.282032,2.951758 l -0.09922,0.570508 -0.496094,0.446484 -0.37207,0.04961 -0.818555,-0.223243 q 0.07441,0.272852 0.124023,0.620118 0.07441,0.32246 0.07441,0.620117 0,0.421679 -0.173633,0.694531 -0.148828,0.272852 -0.595313,0.272852 h -4.415234 q -0.694531,0 -1.141016,-1.165821 -0.446484,-1.190625 -0.446484,-2.951758 -1.488281,-0.446484 -2.852539,-0.967382 -1.364258,-0.520899 -2.703711,-1.190625 0.07441,0.347265 0.07441,0.694531 0,0.620117 -0.272851,1.5875 -0.272852,0.942578 -0.272852,1.190625 l -0.744141,0.198437 q -0.347265,-0.421679 -0.892968,-0.694531 -0.520899,-0.297656 -1.265039,-0.347265 -0.04961,0.917773 -0.173633,2.033984 -0.09922,1.091406 -0.223242,2.00918 h 5.680273 q 0.198437,-0.198438 0.347266,-0.272852 0.173632,-0.09922 0.446484,-0.09922 0.570508,0 0.992187,0.248047 0.42168,0.248047 0.644922,0.843359 -0.347265,-0.124023 -0.719336,-0.297656 -0.347265,-0.173633 -0.917773,-0.173633 -0.347266,0 -0.520898,0.148829 -0.148829,0.124023 -0.272852,0.32246 H 11.640486 L 10.945954,19.1686 q -0.198437,0.0248 -0.421679,0.09922 -0.198438,0.04961 -0.446485,0.124024 -0.2232418,0.07441 -0.4216793,0.173632 0.1488281,-0.520898 0.4960933,-0.74414 0.372071,-0.248047 0.868165,-0.347266 l 0.595312,0.372071 h 7.689453 q 0.322461,-1.339454 0.570508,-2.629297 0.272851,-1.289844 0.272851,-2.331641 0,-1.091406 -0.272851,-2.282031 Q 19.60279,10.412546 19.131501,9.1971162 18.660212,7.9568819 17.990486,6.7166475 17.345564,5.4516085 16.576618,4.1865694 15.013923,1.6316867 14.04654,-0.52632111 13.103962,-2.7091336 12.831111,-4.6438992 q -0.223243,0.4216797 -0.396875,0.8929688 -0.148828,0.4464843 -0.347266,0.8929687 -0.173633,0.4464844 -0.42168,0.8681641 -0.223242,0.4216796 -0.595312,0.7441406 l -0.248047,-0.4712891 q 0,-0.5208984 0.198438,-1.0914062 0.198437,-0.5705078 0.496093,-1.0666016 0.297657,-0.5208984 0.644922,-0.8929687 0.37207,-0.3720703 0.719336,-0.4464844 0.04961,-0.79375 0.297656,-1.6371093 0.272852,-0.8433594 0.620117,-1.6619141 0.719336,-1.6619136 0.719336,-2.5300776 0,-0.992188 -0.768945,-1.562696 -0.744141,-0.595312 -2.406055,-0.595312 -0.768945,0 -1.4634761,0.223242 -0.6945312,0.198437 -1.1162109,0.669727 -0.1984375,-0.07441 -0.3720703,-0.148829 -0.1736328,-0.07441 -0.3472656,-0.173632 0.1984375,-0.942579 0.8929687,-1.537891 0.7193359,-0.595313 1.6867192,-1.041797 l 2.852539,-1.041797 v -1.984375 l 0.198437,-0.0248 z m 0.07441,0.79375 -1.141016,0.42168 q -0.471289,0.173632 -0.992187,0.347265 -0.520898,0.173633 -1.016992,0.372071 -0.471289,0.173632 -0.917774,0.396875 -0.4216793,0.198437 -0.7193356,0.446484 0.7441406,-0.198438 1.4386716,-0.198438 1.562696,0 2.902149,0.644922 1.314648,0.644922 1.314648,2.306836 0,1.2154299 -0.843359,3.0013674 -0.84336,1.7611328 -0.84336,2.9765624 l 0.0248,0.3472657 q 0.173633,2.9765624 3.497461,8.4087889 1.066601,1.6371093 1.885156,3.3734374 0.347266,0.7441407 0.694531,1.5875 0.347266,0.8433594 0.595313,1.7363282 0.272851,0.892969 0.42168,1.835547 0.173632,0.917773 0.173632,1.835547 0.396875,0 0.768946,-0.02481 0.297656,0 0.595312,0 0.297656,-0.02481 0.42168,-0.04961 0.223242,-0.02481 0.37207,-0.173633 0.223242,-0.223242 0.223242,-0.942578 0.173633,-0.09922 0.347266,-0.173633 0.173633,-0.07441 0.37207,-0.148828 0.347266,0.37207 0.744141,0.868164 0.42168,0.471289 0.892969,0.79375 l 0.396875,-0.198438 q 1.364257,0 2.207617,0.768946 0.124023,-0.520899 0.297656,-1.041797 0.173633,-0.545703 0.173633,-1.041797 0,-1.016992 -0.967383,-1.537891 Q 27.317048,10.90864 26.548103,10.338132 25.803962,9.767624 24.762165,8.8498506 23.224275,7.5103975 21.884821,5.9973116 20.545368,4.4842257 19.528376,3.0703585 18.536189,1.6316867 17.940876,0.416257 q -0.570508,-1.21542967 -0.570508,-1.9595703 0,-0.9425781 0.570508,-1.4386718 0.570508,-0.4960938 1.513086,-0.4960938 0.297656,0 0.79375,0.1488281 0.496094,0.1240235 0.992188,0.2976563 0.496093,0.1736328 0.892968,0.3224609 0.42168,0.1240235 0.545703,0.1240235 0.42168,0 0.868165,-0.099219 0.471289,-0.1240234 0.719335,-0.471289 l 0.595313,0.5457031 q -0.496094,0.4960937 -0.967383,0.6449218 -0.446484,0.1488282 -0.892969,0.1488282 -0.471289,0 -0.942578,-0.1240235 -0.446484,-0.1488281 -0.917773,-0.3224609 -0.446485,-0.1736328 -0.917774,-0.2976563 -0.471289,-0.1488281 -0.942578,-0.1488281 -0.446484,0 -0.768945,0.322461 -0.297656,0.3224609 -0.297656,0.8929687 0,0.396875 0.07441,0.74414061 0.09922,0.34726562 0.272851,0.69453124 0.173633,0.34726562 0.42168,0.7689453 0.248047,0.42167965 0.595313,0.96738275 0.917773,1.4882813 1.90996,2.6789063 1.016993,1.1658202 1.736329,1.9347656 0.37207,0.3720703 0.917773,0.8929687 0.545703,0.5208984 1.265039,1.1658203 1.488281,1.3394531 2.976563,2.2820313 0.768945,0.496094 1.637109,0.917774 0.868164,0.421679 1.835547,0.818554 0.967382,0.396875 1.711523,0.669727 0.768945,0.248047 1.314649,0.421679 l 4.241601,1.289844 q 1.041797,0.322461 1.95957,0.570508 0.942578,0.248047 1.364258,0.322461 l 0.04961,-0.04961 -4.440039,-5.6554693 Q 36.916462,8.502585 35.428181,6.7910616 33.939899,5.0547335 32.079548,3.0455538 28.38365,-0.99761016 25.407087,-3.230032 q -2.951758,-2.2324218 -4.737695,-2.9021484 -1.761133,-0.7193359 -1.761133,-2.1332031 0,-0.8433594 0.272852,-2.2820315 0.297656,-1.364258 0.297656,-2.182812 0,-1.141016 -0.520899,-1.984375 -0.496093,-0.84336 -1.240234,-1.091406 l -0.942578,-0.07441 z m 9.525,29.517578 q -0.148828,0.520898 -0.570508,0.818554 -0.198437,0.148828 -0.79375,0.223243 -0.570508,0.07441 -1.761133,0.07441 -0.173633,0.892968 -0.396875,2.009179 -0.223242,1.091406 -0.421679,1.959571 h 4.886523 q 0.07441,-0.917774 0.173633,-1.711524 0.07441,-0.669726 0.124023,-1.289844 0.04961,-0.644921 0.07441,-0.892968 -0.421679,-0.272852 -0.74414,-0.570508 -0.322461,-0.322461 -0.570508,-0.620117 z m 11.807031,0.79375 q 0,0.248047 0.0248,0.37207 0,0.694531 0.297656,1.612305 0.347266,0.967382 1.190625,1.066601 0.446484,0.04961 0.868164,0.09922 0.42168,0.0248 0.843359,0.0248 h 1.959571 L 40.686774,15.968796 Z M 16.105329,-15.086672 q -0.322461,0.32246 -0.74414,0.471289 l -0.173633,-0.297657 0.297656,-0.421679 q 0.223242,0 0.620117,0.248047 z"
         style="stroke-width:0.26458332"
         id="path23634"
         inkscape:connector-curvature="0" />
    </g>
  </g>
</svg>
