<?xml version="1.0" encoding="UTF-8" standalone="no"?>
<!-- Created with Inkscape (http://www.inkscape.org/) -->

<svg
   xmlns:dc="http://purl.org/dc/elements/1.1/"
   xmlns:cc="http://creativecommons.org/ns#"
   xmlns:rdf="http://www.w3.org/1999/02/22-rdf-syntax-ns#"
   xmlns:svg="http://www.w3.org/2000/svg"
   xmlns="http://www.w3.org/2000/svg"
   xmlns:sodipodi="http://sodipodi.sourceforge.net/DTD/sodipodi-0.dtd"
   xmlns:inkscape="http://www.inkscape.org/namespaces/inkscape"
   width="37.479881mm"
   height="34.007221mm"
   viewBox="0 0 37.479881 34.007221"
   version="1.1"
   id="svg23643"
   inkscape:version="0.92.4 (5da689c313, 2019-01-14)"
   sodipodi:docname="G23.svg">
  <defs
     id="defs23637" />
  <sodipodi:namedview
     id="base"
     pagecolor="#ffffff"
     bordercolor="#666666"
     borderopacity="1.0"
     inkscape:pageopacity="0.0"
     inkscape:pageshadow="2"
     inkscape:zoom="0.35"
     inkscape:cx="-343.25893"
     inkscape:cy="-545.71429"
     inkscape:document-units="mm"
     inkscape:current-layer="layer1"
     showgrid="false"
     fit-margin-top="0"
     fit-margin-left="0"
     fit-margin-right="0"
     fit-margin-bottom="0"
     inkscape:window-width="1920"
     inkscape:window-height="1017"
     inkscape:window-x="-8"
     inkscape:window-y="-8"
     inkscape:window-maximized="1" />
  <metadata
     id="metadata23640">
    <rdf:RDF>
      <cc:Work
         rdf:about="">
        <dc:format>image/svg+xml</dc:format>
        <dc:type
           rdf:resource="http://purl.org/dc/dcmitype/StillImage" />
        <dc:title></dc:title>
      </cc:Work>
    </rdf:RDF>
  </metadata>
  <g
     inkscape:label="Layer 1"
     inkscape:groupmode="layer"
     id="layer1"
     transform="translate(-3.5080914,29.560792)">
    <g
       aria-label="𓅚"
       style="font-style:normal;font-variant:normal;font-weight:normal;font-stretch:normal;font-size:50.79999924px;line-height:1.25;font-family:sans-serif;-inkscape-font-specification:'sans-serif, Normal';font-variant-ligatures:normal;font-variant-caps:normal;font-variant-numeric:normal;font-feature-settings:normal;text-align:start;letter-spacing:0px;word-spacing:0px;writing-mode:lr-tb;text-anchor:start;fill:#000000;fill-opacity:1;stroke:none;stroke-width:0.26458332"
       id="text24190">
      <path
         d="M 27.667857,4.4464283 H 12.611412 l 0.818554,-0.7193359 h 4.737696 l 1.190625,-6.8708984 -2.158008,-5.4074218 -3.547071,-2.1083982 q -1.488281,-0.892969 -2.728515,-2.133203 -0.620117,-0.620117 -1.0914064,-1.339453 -0.471289,-0.744141 -0.8185546,-1.537891 -0.3472656,-0.79375 -0.6201172,-1.637109 -0.2728516,-0.84336 -0.4960937,-1.661914 -0.1736329,-0.570508 -0.7441407,-0.942578 -0.5705078,-0.396875 -1.1658203,-0.396875 -0.2480468,0 -0.9921874,0.09922 -0.719336,0.07441 -1.4882813,0.248047 0.049609,-0.223242 0.1984375,-0.471289 0.1488282,-0.272851 0.4712891,-0.496094 0.3472656,-0.223242 0.9177734,-0.396875 0.5953125,-0.173632 1.4882812,-0.223242 0.719336,-1.091406 1.2650391,-1.562695 0.5705078,-0.471289 1.0666015,-0.595313 0.4960938,-0.124023 1.4634768,-0.173632 0.992187,-0.07441 2.009179,-0.07441 0.570508,-1.339454 0.79375,-2.753321 0.248047,-1.413867 0.248047,-2.852539 0.471289,0.173633 0.595313,0.744141 0.148828,0.545703 0.148828,1.289844 0,1.265039 -0.223242,2.356445 -0.198438,1.091406 -0.42168,2.033984 l -0.09922,0.396875 1.091407,3.59668 q 3.522265,0.248047 8.383984,3.621484 2.455664,1.686719 4.613672,3.026172 2.182812,1.314648 4.142382,2.306836 1.959571,0.9921874 3.943946,1.8603514 2.009179,0.8681641 4.067968,1.6123047 v 0.3720703 q -0.248047,0.074414 -0.545703,0.1240234 -0.297656,0.049609 -0.570508,0.074414 -0.297656,0.024805 -0.620117,0.024805 l 3.050977,1.4386718 -0.148828,0.79375 -4.067969,2.3564453 -2.480469,-1.1658203 q -2.703711,-1.265039 -4.588867,-1.6867187 -1.860351,-0.4464844 -2.926953,-0.4464844 -0.396875,0 -0.768945,0.024805 -0.372071,0 -0.669727,0.024805 -0.347266,0.024805 -0.669726,0.024805 0.248046,0.868164 0.37207,1.265039 0.07441,0.2480469 0.07441,0.4216797 l 0.595312,6.7964843 h 1.190625 z m -3.894336,-9.3761717 -0.79375,-1.6123047 0.719336,-0.3224609 0.644922,1.3394531 q 0.347265,0 0.719336,-0.024805 0.297656,-0.024805 0.644921,-0.024805 0.372071,-0.024805 0.644922,-0.024805 1.785938,0 3.869531,0.5457031 0.248047,0.074414 0.669727,0.2232422 0.446484,0.1488281 0.942578,0.3720703 0.520899,0.1984375 1.091406,0.4464844 0.570508,0.2232422 1.116211,0.4464844 1.289844,0.5457031 2.753321,1.1906249 l 3.249414,-1.8851562 q -1.016993,-0.471289 -2.00918,-0.9177734 -0.843359,-0.396875 -1.785938,-0.8185547 -0.917773,-0.4216797 -1.562695,-0.7689453 L 28.560825,-7.335799 q -3.224609,-0.2976562 -6.697265,-1.2154297 -3.54707,-0.9177734 -5.655469,-2.4556643 -2.133203,-1.53789 -3.026172,-2.505273 -0.892968,-0.967383 -0.892968,-2.033985 0,-0.545703 0.347265,-0.768945 0.347266,-0.248047 0.868164,-0.248047 0.09922,0 0.669727,0.09922 0.570508,0.09922 1.21543,0.223242 0.768945,0.148828 1.686718,0.322461 l -0.124023,0.768945 q -0.892969,-0.173632 -1.612305,-0.32246 -0.620117,-0.124024 -1.190625,-0.223243 -0.545703,-0.09922 -0.694531,-0.09922 -0.198438,0 -0.272852,0.0248 -0.09922,0.09922 -0.09922,0.396875 0,0.272852 0.124023,0.545703 0.148828,0.248047 0.322461,0.496094 0.198438,0.223242 0.42168,0.42168 0.223242,0.198437 0.396875,0.347265 1.389062,1.314649 2.629297,2.158008 1.240234,0.818555 2.654101,1.389063 1.438672,0.5457029 3.249414,0.9425779 1.810742,0.3720703 4.34082,0.7689453 1.761133,0.2728516 3.075782,0.3720703 1.314648,0.074414 2.182812,0.1240235 1.761133,0.099219 2.480469,0.2976562 0.570508,0.1984375 1.091406,0.3720703 0.520898,0.1488281 0.917773,0.2728516 0.446485,0.1240234 0.84336,0.2480468 -1.934766,-0.8185546 -3.671094,-1.6371093 -0.744141,-0.3224609 -1.537891,-0.6945312 -0.768945,-0.3720704 -1.513085,-0.719336 -0.744141,-0.3472654 -1.389063,-0.6697264 -0.644922,-0.347266 -1.091406,-0.620117 -1.835547,-1.091407 -3.720703,-2.257227 -1.885156,-1.190625 -3.894336,-2.505273 -3.96875,-2.629297 -6.821289,-2.629297 l -0.37207,-0.322461 q -0.124024,-0.347266 -0.347266,-1.066602 -0.198438,-0.719336 -0.42168,-1.438672 -0.272851,-0.818554 -0.545703,-1.785937 l -0.42168,-0.198437 h -1.066601 q -1.5626953,0 -2.2572266,0.446484 -0.6697265,0.446484 -1.3394531,1.413867 v 0.595313 q 0.396875,0.198437 0.8185547,0.620117 0.4216797,0.421679 0.6945312,1.488281 0.1984375,0.942578 0.5208985,1.761133 0.3224609,0.79375 0.8185543,1.785937 0.992188,1.909961 2.951758,3.150195 0.347266,0.223243 0.892969,0.545704 0.545703,0.322461 1.091406,0.644921 0.644922,0.372071 1.314648,0.7689459 0.396875,0.2480468 0.818555,0.5208984 0.42168,0.2728516 0.84336,0.7193359 0.421679,0.4464844 1.240234,1.2154297 0.843359,0.7441406 2.182812,1.6867187 l 2.455664,1.7363281 z m 1.116211,8.6568358 -0.595313,-6.6972656 -4.092773,-2.852539 q 0,0.1736328 0.02481,0.3720703 0,0.1736328 0,0.4216797 0.0248,0.2232422 0.0248,0.4960938 0,0.396875 -0.0248,0.8185546 -0.02481,0.4216797 -0.07442,0.8433594 L 18.961412,3.7270924 Z M 19.407896,-6.39322 l -0.892969,-0.8433593 1.041797,2.7533202 z m -9.15293,-15.155664 q -0.3224606,0.322461 -0.7193356,0.496094 l -0.1736328,-0.347266 0.2728516,-0.421679 q 0.1736328,0.04961 0.3224609,0.124023 0.1736329,0.04961 0.2976559,0.148828 z"
         style="stroke-width:0.26458332"
         id="path24192"
         inkscape:connector-curvature="0" />
    </g>
  </g>
</svg>
