<?xml version="1.0" encoding="UTF-8" standalone="no"?>
<!-- Created with Inkscape (http://www.inkscape.org/) -->

<svg
   xmlns:dc="http://purl.org/dc/elements/1.1/"
   xmlns:cc="http://creativecommons.org/ns#"
   xmlns:rdf="http://www.w3.org/1999/02/22-rdf-syntax-ns#"
   xmlns:svg="http://www.w3.org/2000/svg"
   xmlns="http://www.w3.org/2000/svg"
   xmlns:sodipodi="http://sodipodi.sourceforge.net/DTD/sodipodi-0.dtd"
   xmlns:inkscape="http://www.inkscape.org/namespaces/inkscape"
   width="37.479881mm"
   height="25.176754mm"
   viewBox="0 0 37.479881 25.176754"
   version="1.1"
   id="svg24201"
   inkscape:version="0.92.4 (5da689c313, 2019-01-14)"
   sodipodi:docname="G24.svg">
  <defs
     id="defs24195" />
  <sodipodi:namedview
     id="base"
     pagecolor="#ffffff"
     bordercolor="#666666"
     borderopacity="1.0"
     inkscape:pageopacity="0.0"
     inkscape:pageshadow="2"
     inkscape:zoom="0.35"
     inkscape:cx="-374.6875"
     inkscape:cy="-389.92857"
     inkscape:document-units="mm"
     inkscape:current-layer="layer1"
     showgrid="false"
     fit-margin-top="0"
     fit-margin-left="0"
     fit-margin-right="0"
     fit-margin-bottom="0"
     inkscape:window-width="1920"
     inkscape:window-height="1017"
     inkscape:window-x="-8"
     inkscape:window-y="-8"
     inkscape:window-maximized="1" />
  <metadata
     id="metadata24198">
    <rdf:RDF>
      <cc:Work
         rdf:about="">
        <dc:format>image/svg+xml</dc:format>
        <dc:type
           rdf:resource="http://purl.org/dc/dcmitype/StillImage" />
        <dc:title></dc:title>
      </cc:Work>
    </rdf:RDF>
  </metadata>
  <g
     inkscape:label="Layer 1"
     inkscape:groupmode="layer"
     id="layer1"
     transform="translate(-11.823567,-20.487979)">
    <g
       aria-label="𓅛"
       style="font-style:normal;font-variant:normal;font-weight:normal;font-stretch:normal;font-size:50.79999924px;line-height:1.25;font-family:sans-serif;-inkscape-font-specification:'sans-serif, Normal';font-variant-ligatures:normal;font-variant-caps:normal;font-variant-numeric:normal;font-feature-settings:normal;text-align:start;letter-spacing:0px;word-spacing:0px;writing-mode:lr-tb;text-anchor:start;fill:#000000;fill-opacity:1;stroke:none;stroke-width:0.26458332"
       id="text24748">
      <path
         d="m 48.807356,36.387779 q -0.694531,-0.347266 -1.240234,-0.520899 -0.520899,-0.173633 -1.240235,-0.198437 -0.148828,0.148828 -0.148828,0.496093 0,0.198438 0.02481,0.396875 0.0248,0.173633 0.04961,0.297657 l -0.669726,0.297656 Q 45.309895,36.883872 44.962629,36.66063 44.615364,36.412583 44.193684,36.362974 v 0.124023 q 0,0.248047 0.148828,0.570508 0.148828,0.297656 0.272852,0.496094 l -0.644922,0.42168 q -0.570508,-0.272852 -1.016992,-0.496094 -0.446485,-0.223242 -0.892969,-0.42168 -0.42168,-0.223242 -0.868164,-0.446484 -0.446484,-0.248047 -1.016992,-0.545703 -2.182813,-1.141016 -3.22461,-2.629297 -0.992187,0.768945 -1.810742,1.736328 l -0.719336,0.868164 3.199805,2.852539 q 3.199805,0.644922 5.13457,1.041797 1.959571,0.396875 3.001367,0.620117 1.041797,0.198438 1.364258,0.272852 0.347266,0.04961 0.37207,0.04961 0.07441,0 0.272852,0.148828 0.173633,0.347266 0.223242,0.694531 0.07441,0.322461 0.07441,0.644922 0,1.16582 -0.868164,2.232422 -0.868164,1.041797 -1.637109,1.066602 -0.272852,-0.124024 -0.694531,-0.297657 -0.42168,-0.148828 -0.967383,-0.396875 l -7.689453,-3.274218 -4.092774,0.768945 v 2.331641 L 20.455598,42.440122 q 0.47129,0.942578 1.240235,1.463477 0.768945,0.496094 1.736328,0.843359 -1.041797,-0.198437 -1.711523,-0.42168 -0.669727,-0.223242 -0.967383,-0.446484 -0.347266,-0.248047 -0.669727,-0.644922 -0.297656,-0.421679 -0.644922,-0.942578 l -1.53789,-0.223242 q -0.967383,0.644922 -1.984375,1.438672 -0.992188,0.79375 -1.661914,1.761133 0.347265,-1.041797 0.818554,-1.686719 0.471289,-0.669727 1.141016,-1.190625 -0.79375,0 -1.364258,0.198437 -0.545703,0.173633 -1.016992,0.520899 -0.446484,0.322461 -0.917773,0.768945 -0.471289,0.446484 -1.091407,0.992188 0.347266,-0.868164 0.818555,-1.463477 0.496094,-0.595312 1.289844,-1.16582 0.79375,-0.595313 1.661914,-0.818555 0.892969,-0.223242 1.761133,-0.223242 0.148828,0 0.768945,0.124023 0.620117,0.09922 1.513086,0.272852 0.917773,0.148828 2.033984,0.37207 1.141016,0.223242 2.282031,0.446485 2.678907,0.520898 6.002735,1.190625 v -1.141016 q -0.84336,-0.04961 -1.488282,-0.272852 -0.644921,-0.223242 -1.190625,-0.545703 -0.545703,-0.347265 -1.364257,-0.843359 -0.818555,-0.496094 -1.934766,-1.16582 -2.158008,-1.314649 -3.100586,-2.530078 -0.917773,-1.21543 -1.513086,-2.678907 -0.570508,-1.488281 -1.066601,-3.373437 -0.347266,-0.644922 -0.84336,-0.992188 -0.471289,-0.347265 -1.041797,-0.347265 -0.124023,0 -0.421679,0.0248 -0.297656,0.02481 -0.669727,0.07442 -0.37207,0.04961 -0.768945,0.124023 -0.37207,0.04961 -0.694531,0.124023 0.198437,-0.79375 1.066601,-1.16582 0.868164,-0.396875 2.033985,-0.396875 0.272851,-0.37207 0.570507,-0.744141 0.322461,-0.37207 0.620118,-0.669726 0.322461,-0.297656 0.620117,-0.496094 0.297656,-0.198437 0.545703,-0.272851 0.496094,-0.124024 1.488281,-0.173633 0.992188,-0.07441 2.00918,-0.07441 0.570508,-1.339453 0.818554,-2.728516 0.248047,-1.413867 0.248047,-2.852539 0.248047,0.07441 0.396875,0.297656 0.148828,0.223243 0.223242,0.496094 0.09922,0.272852 0.124024,0.595313 0.0248,0.297656 0.0248,0.595312 0,0.446484 -0.07441,1.041797 -0.04961,0.570508 -0.148829,1.190625 -0.09922,0.620117 -0.248046,1.265039 -0.148829,0.644922 -0.322461,1.240234 l 0.768945,3.96875 q 0.248047,0.02481 0.471289,0.04961 0.198437,0.0248 0.37207,0.0248 0.173633,0 0.297657,0 0.917773,0 2.158007,-0.74414 1.240235,-0.768946 2.852539,-2.108399 1.612305,-1.339453 2.480469,-2.083593 0.868164,-0.744141 1.041797,-0.868164 0.446484,-1.63711 1.066601,-2.108399 0.620118,-0.471289 1.265039,-0.471289 0.694532,0 1.141016,0.520899 0.471289,0.520898 0.471289,1.339453 L 49.30345,35.767661 Z m -11.757422,3.026171 -3.249414,-2.877343 -1.339453,0.644922 -0.37207,-0.694532 q 0.297656,-0.173632 0.570508,-0.297656 0.223242,-0.124023 0.421679,-0.198437 0.198438,-0.07441 0.248047,-0.09922 0.248047,-0.04961 0.79375,-0.744141 0.595313,-0.719336 1.289844,-1.389062 0.694531,-0.669727 1.364258,-1.190625 l 0.595312,0.04961 q 0.42168,0.768945 1.190625,1.463477 0.79375,0.694531 1.984375,1.314648 1.190625,0.620117 1.810742,0.942578 0.644922,0.297656 0.744141,0.347266 l 0.37207,0.148828 q -0.07441,-0.297656 -0.07441,-0.520898 0,-0.372071 0.198438,-0.545704 0.198437,-0.173632 0.496093,-0.173632 0.297657,0 0.620118,0.124023 0.347265,0.124023 0.694531,0.322461 l 0.0248,-0.37207 q 0,-0.223243 0.272852,-0.520899 0.297656,-0.297656 0.892969,-0.297656 0.446484,0 0.768945,0.09922 L 37.570833,25.17606 q 0,-0.07441 -0.124024,-0.37207 0,-0.694532 -0.272851,-0.917774 -0.272852,-0.248047 -0.620118,-0.248047 -0.694531,0 -1.190625,1.240235 -0.446484,1.215429 -0.520898,1.16582 -0.09922,-0.04961 -2.356445,1.95957 -2.257227,2.00918 -3.894336,3.026172 -1.637109,1.016992 -2.852539,1.016992 -0.322461,0 -0.620117,-0.0248 -0.272852,-0.02481 -0.496094,-0.07441 -0.272852,-0.04961 -0.496094,-0.09922 l -0.248047,-0.297656 -0.818554,-4.117578 -0.446485,-0.570508 h -1.190625 q -1.612304,0 -2.306836,0.446484 -0.669726,0.446484 -1.339453,1.413867 v 0.595313 q 0.248047,0.198437 0.496094,0.446484 0.198438,0.198438 0.396875,0.446485 0.223242,0.248046 0.347266,0.520898 l 0.496093,1.711523 q 0.496094,1.63711 1.091407,2.753321 0.620117,1.116211 1.190625,1.761132 0.570507,0.620118 1.438671,1.240235 0.868164,0.620117 1.686719,1.141015 0.967383,0.620118 1.984375,1.165821 0.744141,0.471289 1.537891,0.79375 0.79375,0.297656 1.612304,0.396875 h 2.033985 q 3.671093,-0.719336 3.993554,-0.818555 0.372071,-0.124023 0.669727,-0.520898 0.297656,-0.42168 0.297656,-0.942579 z m 0.07441,1.711524 8.35918,3.720703 q 0.37207,-0.148828 0.719336,-0.42168 0.347265,-0.297656 0.595312,-0.644922 0.248047,-0.37207 0.396875,-0.74414 0.148828,-0.372071 0.148828,-0.719336 0,-0.07441 -0.0248,-0.173633 -0.02481,-0.124023 -0.04961,-0.248047 -0.04961,-0.124023 -0.07441,-0.248047 l -9.376172,-1.860351 q -0.04961,0.272851 -0.173632,0.520898 -0.09922,0.223242 -0.223243,0.42168 -0.124023,0.223242 -0.297656,0.396875 z M 20.654036,28.475083 q -0.496094,0.496094 -0.744141,0.496094 -0.173632,0 -0.173632,-0.347265 l 0.272851,-0.42168 q 0.223242,0 0.644922,0.272851 z m 10.790039,15.403711 v -1.389062 h -0.79375 v 1.240234 z"
         style="stroke-width:0.26458332"
         id="path24750"
         inkscape:connector-curvature="0" />
    </g>
  </g>
</svg>
