<?xml version="1.0" encoding="UTF-8" standalone="no"?>
<!-- Created with Inkscape (http://www.inkscape.org/) -->

<svg
   xmlns:dc="http://purl.org/dc/elements/1.1/"
   xmlns:cc="http://creativecommons.org/ns#"
   xmlns:rdf="http://www.w3.org/1999/02/22-rdf-syntax-ns#"
   xmlns:svg="http://www.w3.org/2000/svg"
   xmlns="http://www.w3.org/2000/svg"
   xmlns:sodipodi="http://sodipodi.sourceforge.net/DTD/sodipodi-0.dtd"
   xmlns:inkscape="http://www.inkscape.org/namespaces/inkscape"
   width="37.777538mm"
   height="33.883202mm"
   viewBox="0 0 37.777538 33.883202"
   version="1.1"
   id="svg7014"
   inkscape:version="0.92.4 (5da689c313, 2019-01-14)"
   sodipodi:docname="G25.svg">
  <defs
     id="defs7008" />
  <sodipodi:namedview
     id="base"
     pagecolor="#ffffff"
     bordercolor="#666666"
     borderopacity="1.0"
     inkscape:pageopacity="0.0"
     inkscape:pageshadow="2"
     inkscape:zoom="0.35"
     inkscape:cx="-326.11523"
     inkscape:cy="-324.83274"
     inkscape:document-units="mm"
     inkscape:current-layer="layer1"
     showgrid="false"
     fit-margin-top="0"
     fit-margin-left="0"
     fit-margin-right="0"
     fit-margin-bottom="0"
     inkscape:window-width="1920"
     inkscape:window-height="1017"
     inkscape:window-x="-8"
     inkscape:window-y="-8"
     inkscape:window-maximized="1" />
  <metadata
     id="metadata7011">
    <rdf:RDF>
      <cc:Work
         rdf:about="">
        <dc:format>image/svg+xml</dc:format>
        <dc:type
           rdf:resource="http://purl.org/dc/dcmitype/StillImage" />
        <dc:title></dc:title>
      </cc:Work>
    </rdf:RDF>
  </metadata>
  <g
     inkscape:label="Layer 1"
     inkscape:groupmode="layer"
     id="layer1"
     transform="translate(1.0278442,-29.004802)">
    <g
       aria-label="𓅜"
       transform="scale(0.26458333)"
       style="font-style:normal;font-variant:normal;font-weight:normal;font-stretch:normal;font-size:192px;line-height:1.25;font-family:sans-serif;-inkscape-font-specification:sans-serif;font-variant-ligatures:normal;font-variant-caps:normal;font-variant-numeric:normal;font-feature-settings:normal;text-align:start;letter-spacing:0px;word-spacing:0px;writing-mode:lr-tb;text-anchor:start;fill:#000000;fill-opacity:1;stroke:none"
       id="flowRoot7559">
      <path
         d="m 138.89648,204.9682 q -0.1875,1.21875 -0.84375,2.25 -0.5625,0.9375 -1.875,1.59375 -1.21875,0.65625 -3.375,1.03125 -2.0625,0.28125 -5.15625,0.28125 -4.5,0 -10.03125,-1.3125 -5.15625,-1.40625 -15.28125,-5.34375 l -2.343746,-0.9375 q -2.25,-0.84375 -4.59375,-1.40625 -2.34375,-0.65625 -4.21875,-0.65625 -2.8125,0 -4.5,1.03125 -1.59375,0.9375 -2.71875,4.40625 l -3.5625,25.59375 1.3125,-1.40625 q 0.75,0.28125 1.3125,0.9375 0.46875,0.5625 0.9375,1.5 0.46875,0.9375 0.65625,2.4375 -0.46875,-0.46875 -1.125,-1.125 -0.5625,-0.65625 -1.3125,-1.3125 -0.84375,0.0937 -1.40625,0.65625 -0.5625,0.5625 -0.9375,1.3125 -0.375,0.75 -0.65625,1.6875 -0.1875,0.84375 -0.28125,1.5 h -52.125 q -2.0625,-2.0625 -3.9375,-3 -1.78125,-0.9375 -3.09375,-0.9375 -1.59375,0 -3.375,1.125 -1.78125,1.125 -3.46875,2.8125 0.65625,-3.28125 2.90625,-4.6875 2.25,-1.5 5.53125,-1.5 2.15625,0 3.84375,0.65625 1.78125,0.65625 3.09375,2.4375 h 29.15625 l 6.65625,-27.375 -10.875,-18.5625 -4.59375,-2.8125 h -0.09375 q -2.4375,-1.40625 -4.96875,-2.8125 -2.4375,-1.40625 -5.0625,-2.71875 -2.625,-1.3125 -5.4375,-2.8125 -2.8125,-1.59375 -5.8125,-3.1875 -6,-3.375 -6,-10.875 0,-6 5.90625,-16.59375 5.90625,-10.5 5.90625,-15.84375 0,-3 -2.25,-5.4375 -2.15625,-2.4375 -6.28125,-2.4375 -5.15625,0 -9.375,2.25 -4.125,2.15625 -7.5937496,5.90625 -3.46875,3.75 -6.28125,8.8125 -2.8125,4.96875 -5.15625,10.6875 1.3125,-6.09375 3.18749998,-11.15625 1.87500002,-5.15625 4.50000002,-9.09375 2.71875,-4.03125 6.3749996,-6.75 3.65625,-2.8125 8.625,-4.40625 1.21875,-5.0625 5.625,-7.40625 4.40625,-2.34375 10.875,-2.34375 11.8125,0 20.15625,6.65625 8.34375,6.65625 11.15625,28.40625 l -1.59375,1.5 h -29.71875 q -0.75,1.5 -1.5,3.84375 -0.75,2.34375 -0.75,3.84375 0,3.375 3.1875,5.4375 3.28125,1.96875 8.34375,2.625 0.9375,0.1875 2.8125,0.46875 1.875,0.28125 3.75,0.5625 2.15625,0.375 4.59375,0.75 18.375,3.9375 35.53125,10.78125 17.156246,6.84375 34.499996,16.21875 l -0.9375,2.71875 h -1.125 l 14.34375,9.46875 z M 39.990234,117.49945 q -0.1875,-1.875 -1.21875,-3.375 -0.9375,-1.5 -3.5625,-1.5 -5.0625,0 -8.625,1.59375 -3.46875,1.59375 -4.59375,5.0625 -0.09375,0.1875 -0.09375,0.5625 0,0.65625 1.21875,0.65625 0.46875,0 0.84375,-0.0937 0.375,-0.0937 1.125,-0.0937 2.53125,0 4.5,0.9375 2.0625,0.84375 3.46875,2.34375 1.5,1.5 2.25,3.5625 0.75,2.0625 0.75,4.40625 0,1.3125 -0.46875,3.28125 -0.46875,1.875 -1.3125,4.125 -0.75,2.15625 -1.875,4.5 -1.03125,2.25 -2.15625,4.21875 -5.90625,10.03125 -5.90625,15.84375 0,6 5.15625,8.625 2.625,1.3125 6.5625,3.375 3.9375,2.0625 9.28125,5.0625 l 6.1875,3.46875 q 3,1.6875 7.5,4.6875 4.5,2.90625 10.6875,7.125 3,2.15625 5.15625,3.75 2.25,1.5 3.65625,2.53125 l 2.625,1.96875 q 1.40625,-4.03125 3.65625,-5.34375 2.34375,-1.3125 6.5625,-1.3125 4.59375,0 16.124996,4.875 11.625,4.78125 21,4.78125 2.34375,0 4.59375,-0.375 2.25,-0.46875 2.71875,-1.78125 l -17.53125,-11.53125 h -3.09375 q -5.0625,0 -10.125,-0.375 -5.062496,-0.375 -10.124996,-0.9375 -3.9375,-0.46875 -6.84375,-0.75 -2.8125,-0.375 -4.78125,-0.65625 -1.96875,-0.28125 -3.1875,-0.46875 -1.21875,-0.1875 -1.875,-0.375 -3.65625,-0.65625 -7.21875,-1.40625 -3.09375,-0.65625 -6.5625,-1.40625 -3.46875,-0.75 -6.1875,-1.6875 -8.25,-2.53125 -12.9375,-5.8125 -4.6875,-3.28125 -4.6875,-7.875 0,-2.0625 1.40625,-3.84375 1.5,-1.875 3.09375,-2.90625 -4.3125,-0.75 -7.21875,-1.6875 -2.90625,-1.03125 -4.6875,-2.34375 -1.78125,-1.3125 -2.53125,-3 -0.75,-1.6875 -0.75,-3.75 0,-2.15625 0.9375,-4.96875 1.03125,-2.8125 2.90625,-6.1875 1.875,-3.375 3,-6.5625 1.21875,-3.1875 1.875,-6.1875 1.40625,-6 1.40625,-8.4375 z m 78.937496,72.9375 q -12.5625,-6.75 -25.499996,-12 -12.9375,-5.34375 -26.71875,-9 -1.125,-0.28125 -3.1875,-0.75 -1.96875,-0.46875 -3.84375,-0.9375 -2.25,-0.46875 -4.6875,-1.125 -1.03125,-0.1875 -2.34375,-0.46875 -1.3125,-0.28125 -2.8125,-0.5625 -0.1875,0 -3.375,1.6875 -3.09375,1.6875 -3.09375,4.78125 0,4.21875 7.03125,7.40625 7.125,3.28125 15.46875,5.0625 2.15625,0.46875 5.15625,1.03125 3,0.5625 5.8125,1.03125 2.8125,0.46875 4.96875,0.84375 2.25,0.28125 2.8125,0.375 2.625,0.375 4.40625,0.65625 1.78125,0.1875 3.1875,0.375 1.40625,0.1875 2.71875,0.375 1.3125,0.0937 3,0.1875 2.906246,0.28125 4.312496,0.375 1.40625,0.0937 2.15625,0.1875 0.84375,0 1.5,0.0937 0.65625,0 2.0625,0.0937 1.03125,0 2.8125,0.0937 1.78125,0 3.65625,0.0937 2.15625,0.0937 4.5,0.0937 z M 43.177734,120.7807 q 0,4.875 -1.6875,11.15625 -0.84375,3.1875 -2.0625,6 -1.21875,2.8125 -2.4375,5.25 h 26.4375 q -2.0625,-14.15625 -6.75,-20.90625 -4.78125,-6.84375 -14.8125,-9 0.28125,0.84375 0.65625,1.96875 0.1875,1.03125 0.375,2.4375 0.28125,1.3125 0.28125,3.09375 z m 17.25,113.8125 h 16.21875 l 4.03125,-27.1875 -11.34375,-8.15625 z m 4.59375,-31.125 1.5,-6 -8.25,-5.53125 z m -31.3125,-87.75 q -0.9375,0.65625 -2.4375,1.125 l -1.3125,-1.125 1.3125,-1.21875 q 1.59375,0.46875 2.4375,1.21875 z"
         id="path7567"
         inkscape:connector-curvature="0" />
    </g>
  </g>
</svg>
