<?xml version="1.0" encoding="UTF-8" standalone="no"?>
<!-- Created with Inkscape (http://www.inkscape.org/) -->

<svg
   xmlns:dc="http://purl.org/dc/elements/1.1/"
   xmlns:cc="http://creativecommons.org/ns#"
   xmlns:rdf="http://www.w3.org/1999/02/22-rdf-syntax-ns#"
   xmlns:svg="http://www.w3.org/2000/svg"
   xmlns="http://www.w3.org/2000/svg"
   xmlns:sodipodi="http://sodipodi.sourceforge.net/DTD/sodipodi-0.dtd"
   xmlns:inkscape="http://www.inkscape.org/namespaces/inkscape"
   width="37.653515mm"
   height="37.603905mm"
   viewBox="0 0 37.653515 37.603905"
   version="1.1"
   id="svg7576"
   inkscape:version="0.92.4 (5da689c313, 2019-01-14)"
   sodipodi:docname="G26A.svg">
  <defs
     id="defs7570" />
  <sodipodi:namedview
     id="base"
     pagecolor="#ffffff"
     bordercolor="#666666"
     borderopacity="1.0"
     inkscape:pageopacity="0.0"
     inkscape:pageshadow="2"
     inkscape:zoom="0.35"
     inkscape:cx="-391.83008"
     inkscape:cy="-316.26047"
     inkscape:document-units="mm"
     inkscape:current-layer="layer1"
     showgrid="false"
     fit-margin-top="0"
     fit-margin-left="0"
     fit-margin-right="0"
     fit-margin-bottom="0"
     inkscape:window-width="1920"
     inkscape:window-height="1017"
     inkscape:window-x="-8"
     inkscape:window-y="-8"
     inkscape:window-maximized="1" />
  <metadata
     id="metadata7573">
    <rdf:RDF>
      <cc:Work
         rdf:about="">
        <dc:format>image/svg+xml</dc:format>
        <dc:type
           rdf:resource="http://purl.org/dc/dcmitype/StillImage" />
        <dc:title></dc:title>
      </cc:Work>
    </rdf:RDF>
  </metadata>
  <g
     inkscape:label="Layer 1"
     inkscape:groupmode="layer"
     id="layer1"
     transform="translate(-16.359208,-27.552179)">
    <g
       aria-label="𓅞"
       transform="scale(0.26458333)"
       style="font-style:normal;font-variant:normal;font-weight:normal;font-stretch:normal;font-size:192px;line-height:1.25;font-family:sans-serif;-inkscape-font-specification:sans-serif;font-variant-ligatures:normal;font-variant-caps:normal;font-variant-numeric:normal;font-feature-settings:normal;text-align:start;letter-spacing:0px;word-spacing:0px;writing-mode:lr-tb;text-anchor:start;fill:#000000;fill-opacity:1;stroke:none"
       id="flowRoot8121">
      <path
         d="m 61.830078,147.44672 q 1.03125,-5.25 2.90625,-10.3125 1.875,-5.0625 4.78125,-9.5625 0.75,-1.21875 1.6875,-2.53125 1.03125,-1.3125 2.0625,-2.625 1.03125,-1.3125 2.0625,-2.53125 1.03125,-1.21875 1.96875,-2.15625 1.875,-1.875 2.71875,-3.1875 0.84375,-1.40625 0.9375,-1.78125 0.1875,-0.46875 0.375,-1.21875 0.28125,-0.84375 1.21875,-1.875 1.96875,-2.0625 3.65625,-3.09375 1.78125,-1.03125 4.40625,-1.6875 2.625,-0.75 4.59375,-0.75 3.9375,0 5.625002,1.875 1.6875,1.78125 1.6875,4.125 0,1.40625 -0.84375,6.5625 -0.375,2.625 -1.21875,5.53125 -0.750002,2.8125 -1.968752,6 -2.4375,6.46875 -2.4375,9.28125 0,3.375 3.28125,4.96875 3.281252,1.5 6.843752,1.5 4.40625,0 10.78125,-2.625 6.46875,-2.625 10.03125,-2.625 4.59375,0 18.375,4.21875 13.6875,4.21875 29.0625,12.9375 7.6875,4.3125 15,9.5625 7.40625,5.25 14.71875,11.53125 l -0.46875,2.71875 -2.625,0.84375 1.59375,1.03125 v 2.4375 q -1.40625,0.9375 -4.96875,2.15625 -3.65625,1.3125 -5.53125,1.3125 -1.6875,0 -6.9375,-3.28125 -5.25,-3.375 -10.5,-3.375 -0.75,0 -3.1875,0.46875 -2.34375,0.375 -6.28125,1.125 -3.9375,0.75 -8.34375,1.3125 -4.40625,0.5625 -7.875,0.75 l 5.90625,58.6875 h 7.5 l 3,3.09375 h -36.1875 q 0,-0.75 -0.46875,-1.21875 -0.46875,-0.5625 -1.78125,-0.5625 -1.125,0 -3.28125,0.5625 -2.15625,0.46875 -3.5625,1.21875 H 83.861328 q -0.1875,-0.65625 -1.03125,-1.21875 -0.84375,-0.5625 -2.34375,-0.5625 -1.21875,0 -3,0.46875 -1.6875,0.375 -2.71875,1.3125 0,-1.40625 0.65625,-2.25 0.75,-0.9375 1.78125,-1.40625 1.125,-0.5625 2.25,-0.75 1.21875,-0.28125 2.15625,-0.28125 2.15625,0 2.25,1.59375 h 22.125002 l 25.875,-54.1875 q -2.71875,-6.375 -7.78125,-12.09375 -4.96875,-5.8125 -10.96875,-10.125 l -7.5,-5.4375 q -3.28125,-2.4375 -6.375002,-4.5 -3.09375,-2.15625 -5.90625,-3.9375 -5.53125,-3.5625 -5.53125,-9.375 0,-2.4375 0.65625,-4.5 l 1.125,-4.3125 q 0.75,-2.71875 1.3125,-5.25 0.65625,-2.625 1.21875,-5.34375 -0.84375,-1.5 -1.6875,-2.53125 -0.84375,-1.03125 -2.0625,-1.6875 -1.125,-0.65625 -2.90625,-0.9375 -1.78125,-0.28125 -4.5,-0.28125 -3.5625,3.1875 -6,6.09375 -2.34375,2.8125 -4.40625,5.71875 -1.40625,2.25 -2.90625,4.96875 -1.3125,2.34375 -2.90625,5.4375 -1.5,3.09375 -2.90625,6.5625 z m 73.125002,26.8125 q 1.03125,1.03125 2.71875,2.15625 1.6875,1.03125 4.03125,2.25 4.5,2.15625 6.9375,2.625 2.8125,0 4.78125,-0.1875 1.96875,-0.1875 4.6875,-0.65625 l 7.125,-1.125 q 3.1875,-0.5625 5.34375,-0.84375 2.25,-0.375 4.125,-0.375 3,0 6.84375,1.21875 3.9375,1.125 10.125,4.96875 1.875,0 3.65625,-0.46875 1.78125,-0.46875 3.46875,-1.21875 -0.1875,-0.1875 -0.65625,-0.375 -0.375,-0.28125 -1.5,-1.03125 -0.0937,0 -0.84375,-0.375 -0.75,-0.375 -2.0625,-0.65625 -3.65625,-0.65625 -7.3125,-1.40625 -3.65625,-0.75 -7.03125,-1.40625 -3.375,-0.65625 -6.1875,-1.21875 -2.8125,-0.5625 -4.78125,-0.9375 -10.03125,-1.96875 -17.90625,-3.9375 -7.875,-1.96875 -13.78125,-4.40625 -3.5625,-1.59375 -6.75,-3.09375 -3.1875,-1.5 -5.53125,-3.1875 -1.5,-1.03125 -2.625,-2.0625 -1.03125,-1.125 -1.59375,-2.4375 -0.375,-0.75 -0.375,-1.59375 0,-2.15625 3.09375,-3.1875 1.59375,-0.65625 3.09375,-1.21875 1.59375,-0.5625 2.90625,-1.03125 1.40625,-0.46875 2.71875,-0.9375 l 0.9375,2.90625 q -2.34375,0.75 -4.03125,1.3125 -1.40625,0.5625 -2.71875,0.84375 -0.65625,0.1875 -1.3125,0.375 -1.03125,0.5625 -1.5,1.125 0.375,1.03125 1.5,2.15625 1.125,1.03125 2.4375,1.96875 1.03125,0.75 1.96875,1.3125 1.03125,0.5625 1.78125,0.9375 0.75,0.375 1.03125,0.5625 0.375,0.1875 0.0937,0 l 7.125,2.8125 q 7.03125,2.71875 15.5625,4.6875 8.53125,1.875 18.65625,4.03125 l 24,5.0625 3,-0.75 q -11.53125,-9.9375 -26.71875,-18.5625 -15.1875,-8.625 -28.03125,-12.84375 -12.84375,-4.21875 -17.8125,-4.21875 -4.03125,0 -9.65625,2.625 -5.625,2.53125 -10.875,2.53125 -6.28125,0 -10.031252,-2.34375 -3.65625,-2.4375 -3.65625,-6.9375 0,-0.5625 0,-1.125 0.09375,-0.65625 0.28125,-1.5 0.1875,-0.9375 0.5625,-2.25 0.375,-1.40625 1.03125,-3.46875 0.1875,-0.75 0.75,-2.625 0.5625,-1.875 1.59375,-4.875 1.03125,-3 1.3125,-5.625 0.375,-2.71875 0.375,-4.875 0,-2.625 -0.75,-3.5625 -0.65625,-0.9375 -3.09375,-0.9375 -2.8125,0 -6.75,1.875 -3.75,1.78125 -4.78125,4.03125 -0.9375,1.96875 -2.34375,3.375 1.03125,-0.1875 1.5,-0.1875 0.5625,-0.0937 1.03125,-0.1875 6,0 9.46875,5.625 0.75,1.3125 0.84375,1.78125 0.1875,0.46875 0.1875,0.75 -0.28125,2.71875 -0.9375,5.4375 -0.5625,2.625 -1.5,5.53125 -0.9375,2.90625 -1.3125,4.96875 -0.375,2.0625 -0.375,3.375 0,1.875 0.65625,3.28125 0.65625,1.3125 1.6875,2.25 1.03125,0.9375 4.125,3.09375 3.187502,2.15625 8.531252,5.71875 5.34375,3.5625 9.65625,6.84375 4.3125,3.1875 7.78125,6.5625 3.46875,3.28125 6,6.9375 2.625,3.5625 4.5,7.78125 l 3.09375,-6.28125 q -0.5625,-0.28125 -1.59375,-1.03125 -0.9375,-0.75 -2.25,-2.0625 z m 11.34375,17.625 -5.25,-9.9375 -1.96875,-1.03125 -29.53125,62.25 h 7.59375 l 3,2.8125 q 0.375,-1.03125 1.21875,-1.875 0.9375,-0.84375 2.0625,-1.40625 1.125,-0.5625 2.34375,-0.84375 1.21875,-0.28125 2.34375,-0.28125 1.21875,0 1.875,0.28125 0.75,0.28125 0.75,1.3125 h 20.90625 z M 92.955078,111.72797 q -1.875,1.6875 -2.625,1.6875 -0.84375,0 -0.84375,-1.6875 0,-1.6875 0.84375,-1.6875 0.75,0 2.625,1.6875 z"
         id="path8129"
         inkscape:connector-curvature="0" />
    </g>
  </g>
</svg>
