<?xml version="1.0" encoding="UTF-8" standalone="no"?>
<!-- Created with Inkscape (http://www.inkscape.org/) -->

<svg
   xmlns:dc="http://purl.org/dc/elements/1.1/"
   xmlns:cc="http://creativecommons.org/ns#"
   xmlns:rdf="http://www.w3.org/1999/02/22-rdf-syntax-ns#"
   xmlns:svg="http://www.w3.org/2000/svg"
   xmlns="http://www.w3.org/2000/svg"
   xmlns:sodipodi="http://sodipodi.sourceforge.net/DTD/sodipodi-0.dtd"
   xmlns:inkscape="http://www.inkscape.org/namespaces/inkscape"
   width="50.303905mm"
   height="24.829506mm"
   viewBox="0 0 50.303905 24.829506"
   version="1.1"
   id="svg8700"
   inkscape:version="0.92.4 (5da689c313, 2019-01-14)"
   sodipodi:docname="G28.svg">
  <defs
     id="defs8694" />
  <sodipodi:namedview
     id="base"
     pagecolor="#ffffff"
     bordercolor="#666666"
     borderopacity="1.0"
     inkscape:pageopacity="0.0"
     inkscape:pageshadow="2"
     inkscape:zoom="0.35"
     inkscape:cx="-366.11518"
     inkscape:cy="-318.93039"
     inkscape:document-units="mm"
     inkscape:current-layer="layer1"
     showgrid="false"
     fit-margin-top="0"
     fit-margin-left="0"
     fit-margin-right="0"
     fit-margin-bottom="0"
     inkscape:window-width="1920"
     inkscape:window-height="1017"
     inkscape:window-x="-8"
     inkscape:window-y="-8"
     inkscape:window-maximized="1" />
  <metadata
     id="metadata8697">
    <rdf:RDF>
      <cc:Work
         rdf:about="">
        <dc:format>image/svg+xml</dc:format>
        <dc:type
           rdf:resource="http://purl.org/dc/dcmitype/StillImage" />
        <dc:title></dc:title>
      </cc:Work>
    </rdf:RDF>
  </metadata>
  <g
     inkscape:label="Layer 1"
     inkscape:groupmode="layer"
     id="layer1"
     transform="translate(-9.5554756,-39.620163)">
    <g
       aria-label="𓅠"
       transform="scale(0.26458333)"
       style="font-style:normal;font-variant:normal;font-weight:normal;font-stretch:normal;font-size:192px;line-height:1.25;font-family:sans-serif;-inkscape-font-specification:sans-serif;font-variant-ligatures:normal;font-variant-caps:normal;font-variant-numeric:normal;font-feature-settings:normal;text-align:start;letter-spacing:0px;word-spacing:0px;writing-mode:lr-tb;text-anchor:start;fill:#000000;fill-opacity:1;stroke:none"
       id="flowRoot9245">
      <path
         d="m 213.86523,194.18305 0.5625,0.9375 0.1875,1.5 v 1.40625 q 0,1.6875 -0.46875,2.8125 -0.375,1.03125 -1.5,1.78125 -1.125,0.65625 -3.09375,1.03125 -1.875,0.375 -4.96875,0.65625 -0.46875,0 -1.21875,-0.28125 -0.75,-0.28125 -2.4375,-1.21875 -1.6875,-1.03125 -4.6875,-2.8125 -2.90625,-1.78125 -7.78125,-4.875 -3.09375,0.65625 -6.46875,1.3125 -3.28125,0.5625 -6.75,1.125 -3.46875,0.46875 -6.84375,1.03125 -3.375,0.46875 -6.46875,0.84375 0.9375,0.75 2.34375,2.0625 1.40625,1.3125 2.71875,2.8125 2.71875,2.90625 2.71875,6.375 0,0.46875 -0.1875,1.21875 -0.0937,0.65625 -0.375,1.40625 -0.1875,0.65625 -0.375,1.3125 -0.1875,0.5625 -0.28125,0.84375 l -6.9375,20.4375 q 0.5625,0.5625 1.3125,1.78125 0.84375,1.21875 0.84375,2.53125 0,1.03125 -0.1875,1.78125 -0.1875,0.65625 -0.65625,1.59375 -0.375,-2.34375 -1.6875,-3.65625 -0.65625,-0.65625 -1.40625,-1.03125 -0.28125,1.03125 -0.65625,2.0625 -0.28125,0.9375 -0.9375,2.4375 H 97.146484 q -0.75,-0.84375 -1.6875,-1.125 -0.9375,-0.28125 -1.40625,-0.28125 -1.3125,0 -3,1.40625 0,-1.875 0.46875,-2.53125 0.46875,-0.75 1.96875,-0.75 0.65625,0 1.125,0.1875 0.5625,0.0937 1.59375,0.28125 0.5625,0.0937 1.5,0.0937 0.9375,0 1.78125,0 h 23.062496 l 17.25,-29.0625 q 0.0937,-0.46875 0.0937,-0.84375 0,-0.375 0,-0.84375 0,-2.0625 -0.65625,-4.5 -0.65625,-2.53125 -1.78125,-5.0625 -1.125,-2.53125 -2.71875,-5.0625 -1.5,-2.53125 -3.1875,-4.875 -3.75,-5.15625 -8.71875,-7.59375 -4.875,-2.53125 -9.375,-2.53125 -0.9375,0 -2.25,0.1875 -1.21875,0.1875 -2.25,0.375 -3.46875,0.75 -5.0625,1.03125 -1.59375,0.28125 -3.09375,0.28125 -4.124996,0 -7.874996,-0.75 -3.5625,-0.84375 -5.0625,-1.6875 -1.5,-0.9375 -4.3125,-5.4375 l -2.34375,-3.75 q -0.5625,-0.9375 -1.03125,-1.59375 -0.46875,-0.65625 -0.9375,-1.125 -3.75,0 -7.5,1.03125 -3.75,0.9375 -7.59375,0.9375 -0.9375,0 -2.53125,-0.1875 -1.59375,-0.1875 -2.71875,-1.125 -3.46875,0.84375 -6.75,2.625 -3.28125,1.6875 -4.875,3.1875 -1.875,1.6875 -4.6875,5.34375 -2.71875,3.65625 -6.46875,10.875 1.5,-6.09375 3.46875,-10.03125 2.0625,-4.03125 4.96875,-7.03125 2.90625,-3 6,-4.96875 3.1875,-2.0625 7.96875,-3.5625 1.03125,-2.8125 3.375,-5.0625 2.34375,-2.25 5.0625,-4.125 5.4375,-3.75 10.59375,-3.75 4.21875,0 6.75,2.8125 2.625,2.71875 3.09375,7.78125 2.53125,2.53125 5.625,4.40625 3.1875,1.78125 6.5625,1.78125 7.031246,0 17.812496,-9.46875 10.6875,-9.5625 20.8125,-9.5625 10.125,0 26.90625,7.59375 16.78125,7.5 31.78125,15.1875 15,7.6875 28.96875,16.78125 0,1.125 0.375,2.15625 -1.6875,1.6875 -4.125,2.25 -2.34375,0.46875 -5.25,0.46875 z m -88.40625,-30.09375 2.71875,1.21875 q -0.5625,1.875 -0.5625,3.46875 0,3.65625 2.8125,6.75 2.8125,3 7.78125,5.15625 6.9375,3 12.9375,4.3125 6,1.21875 12.1875,1.875 6.1875,0.65625 9.84375,1.125 3.65625,0.375 5.625,0.5625 1.96875,0.1875 2.8125,0.28125 0.9375,0.0937 1.6875,0.0937 9.84375,0.75 15.84375,1.21875 6,0.46875 9.46875,0.75 3.46875,0.1875 5.15625,0.28125 1.78125,0.0937 3.09375,0.0937 1.5,0 2.8125,-0.0937 1.40625,-0.1875 2.53125,-0.65625 -21.09375,-13.3125 -47.53125,-25.59375 -26.4375,-12.28125 -36.5625,-12.28125 -9.375,0 -19.6875,9.65625 -10.3125,9.65625 -18.375,9.65625 -5.062496,0 -10.499996,-3.46875 -5.4375,-3.46875 -5.4375,-6.28125 l 0.09375,-0.46875 q 0,-2.53125 -1.96875,-4.59375 -1.875,-2.15625 -5.15625,-2.15625 -1.59375,0 -3.375,0.5625 -1.6875,0.5625 -4.6875,2.53125 l -2.53125,1.6875 q -1.6875,1.3125 -2.90625,2.8125 -1.125,1.5 -2.15625,3.28125 l 0.28125,0.75 q 0.5625,0.0937 1.03125,0.0937 0.46875,0 0.84375,0.0937 0.46875,0 0.84375,0 3,0 7.40625,-0.9375 2.34375,-0.46875 4.3125,-0.75 1.96875,-0.28125 3.65625,-0.28125 0.1875,0.0937 0.46875,0.28125 0.375,0.0937 0.84375,0.28125 2.34375,2.71875 4.125,6 1.875,3.1875 4.5,5.8125 2.4375,0.84375 4.96875,1.5 2.625,0.5625 5.0625,0.5625 3.281246,0 7.031246,-0.9375 4.3125,-1.03125 6.46875,-1.03125 4.6875,0 8.34375,1.59375 3.65625,1.5 6.28125,3.46875 2.71875,1.96875 4.40625,3.84375 1.6875,1.875 2.53125,2.625 4.78125,3 10.3125,5.25 5.53125,2.15625 11.25,2.4375 0.46875,0 1.125,0.0937 0.65625,0 1.40625,0 0.375,0 0.75,0 0.375,0 0.84375,-0.0937 3.1875,-0.46875 6.375,-0.9375 3.28125,-0.46875 6.75,-0.9375 3.46875,-0.46875 5.8125,-0.84375 2.34375,-0.46875 3.65625,-0.75 l 3.5625,-0.75 q -33.5625,-2.4375 -47.90625,-7.96875 -14.4375,-5.71875 -14.4375,-14.90625 0,-2.0625 0.84375,-4.5 z m 35.25,38.4375 -3,-2.8125 q -6.75,-0.46875 -11.625,-2.15625 -4.78125,-1.6875 -8.53125,-3.5625 1.59375,2.15625 3.1875,5.625 1.59375,3.46875 2.0625,6.5625 0.1875,1.3125 0.28125,2.25 0.0937,0.84375 0.0937,1.40625 0.0937,0.5625 0.0937,1.03125 0,0.375 0,0.75 l -13.40625,22.40625 q 1.40625,1.125 1.59375,3.1875 0.28125,2.0625 0.28125,3.46875 h 24.09375 l 9.5625,-25.96875 q 0.28125,-0.75 0.5625,-1.78125 0.28125,-1.03125 0.28125,-1.78125 0,-2.625 -1.875,-4.6875 -1.78125,-2.15625 -3.65625,-3.9375 z m 47.25,-8.8125 q -2.25,-0.1875 -4.6875,-0.28125 -2.4375,-0.1875 -5.0625,-0.375 -1.3125,-0.0937 -2.8125,-0.1875 -1.40625,-0.0937 -2.625,-0.1875 -1.40625,-0.0937 -2.8125,-0.1875 l 14.25,8.625 q 1.78125,0 3.28125,-0.1875 1.3125,-0.1875 2.4375,-0.375 1.21875,-0.1875 1.6875,-0.65625 v -3.9375 z M 73.802734,160.24555 q -1.21875,1.21875 -2.71875,1.875 l -0.9375,-1.59375 1.3125,-1.3125 q 0.65625,0.1875 1.21875,0.46875 0.65625,0.1875 1.125,0.5625 z m 56.812496,80.4375 q -0.1875,-0.5625 -0.375,-1.125 -0.1875,-0.46875 -0.375,-0.9375 -0.0937,-0.46875 -0.28125,-0.75 -0.28125,-0.375 -0.75,-0.46875 -0.375,-0.0937 -0.5625,-0.0937 h -0.0937 l -1.6875,3.375 z"
         id="path9253"
         inkscape:connector-curvature="0" />
    </g>
  </g>
</svg>
