<?xml version="1.0" encoding="UTF-8" standalone="no"?>
<!-- Created with Inkscape (http://www.inkscape.org/) -->

<svg
   xmlns:dc="http://purl.org/dc/elements/1.1/"
   xmlns:cc="http://creativecommons.org/ns#"
   xmlns:rdf="http://www.w3.org/1999/02/22-rdf-syntax-ns#"
   xmlns:svg="http://www.w3.org/2000/svg"
   xmlns="http://www.w3.org/2000/svg"
   xmlns:sodipodi="http://sodipodi.sourceforge.net/DTD/sodipodi-0.dtd"
   xmlns:inkscape="http://www.inkscape.org/namespaces/inkscape"
   width="50.675976mm"
   height="38.12479mm"
   viewBox="0 0 50.675976 38.12479"
   version="1.1"
   id="svg9824"
   inkscape:version="0.92.4 (5da689c313, 2019-01-14)"
   sodipodi:docname="G30.svg">
  <defs
     id="defs9818" />
  <sodipodi:namedview
     id="base"
     pagecolor="#ffffff"
     bordercolor="#666666"
     borderopacity="1.0"
     inkscape:pageopacity="0.0"
     inkscape:pageshadow="2"
     inkscape:zoom="0.35"
     inkscape:cx="-351.83008"
     inkscape:cy="-340.00657"
     inkscape:document-units="mm"
     inkscape:current-layer="layer1"
     showgrid="false"
     fit-margin-top="0"
     fit-margin-left="0"
     fit-margin-right="0"
     fit-margin-bottom="0"
     inkscape:window-width="1920"
     inkscape:window-height="1017"
     inkscape:window-x="-8"
     inkscape:window-y="-8"
     inkscape:window-maximized="1" />
  <metadata
     id="metadata9821">
    <rdf:RDF>
      <cc:Work
         rdf:about="">
        <dc:format>image/svg+xml</dc:format>
        <dc:type
           rdf:resource="http://purl.org/dc/dcmitype/StillImage" />
        <dc:title></dc:title>
      </cc:Work>
    </rdf:RDF>
  </metadata>
  <g
     inkscape:label="Layer 1"
     inkscape:groupmode="layer"
     id="layer1"
     transform="translate(-5.7758747,-20.748472)">
    <g
       aria-label="𓅢"
       transform="scale(0.26458333)"
       style="font-style:normal;font-variant:normal;font-weight:normal;font-stretch:normal;font-size:192px;line-height:1.25;font-family:sans-serif;-inkscape-font-specification:sans-serif;font-variant-ligatures:normal;font-variant-caps:normal;font-variant-numeric:normal;font-feature-settings:normal;text-align:start;letter-spacing:0px;word-spacing:0px;writing-mode:lr-tb;text-anchor:start;fill:#000000;fill-opacity:1;stroke:none"
       id="flowRoot10369">
      <path
         d="m 29.611328,222.41937 7.21875,-2.8125 h 29.625 l 12.28125,-30.84375 -5.4375,-19.3125 q -13.96875,-9.28125 -21.5625,-18.84375 -7.59375,-9.5625 -9.5625,-21.1875 -3.28125,1.5 -5.53125,2.90625 -2.25,1.3125 -3.9375,3 -1.6875,1.59375 -3.09375,3.75 -1.3125,2.15625 -2.71875,5.15625 l -0.375,-0.0937 q 1.21875,-7.125 5.15625,-11.15625 3.9375,-4.125 10.3125,-6.9375 0.46875,-3.46875 2.34375,-7.96875 1.875,-4.5 4.875,-9 l 3.375,-4.96875 -6,2.8125 -0.375,-0.65625 8.34375,-5.15625 q 1.78125,-2.906246 2.8125,-4.781246 0,-1.6875 -1.125,-2.625 -1.21875,-1.03125 -2.90625,-1.03125 l -0.75,0.09375 -30.375,14.156246 -0.375,-0.65625 q 0.9375,-0.5625 2.90625,-1.78125 2.0625,-1.3125 4.6875,-2.90625 2.625,-1.593746 5.4375,-3.374996 2.90625,-1.78125 5.4375,-3.375 2.625,-1.59375 4.6875,-2.8125 2.0625,-1.3125 2.90625,-1.96875 0.28125,-3.375 1.6875,-5.4375 1.5,-2.0625 3.46875,-3.375 3.9375,-2.8125 8.8125,-2.8125 4.96875,0 7.78125,2.8125 2.90625,2.8125 3,6.5625 0.5625,-2.34375 1.875,-3.84375 1.3125,-1.59375 2.90625,-2.71875 3.9375,-2.8125 8.8125,-2.8125 4.96875,0 7.78125,2.8125 2.90625,2.8125 3,6.5625 0.5625,-2.34375 1.875,-3.84375 1.312502,-1.59375 2.906252,-2.71875 3.9375,-2.8125 8.8125,-2.8125 5.0625,0 7.875,2.90625 2.90625,2.8125 2.90625,6.5625 0,1.3125 -0.65625,2.90625 -0.5625,1.59375 -1.59375,3.375 l -1.3125,2.0625 q -1.3125,2.0625 -3.9375,4.968746 -2.53125,2.90625 -6.28125,6.75 -7.40625,7.5 -7.40625,11.71875 0,1.125 0.28125,2.34375 4.78125,6.65625 16.5,8.8125 11.8125,1.96875 23.71875,6.46875 6.09375,2.34375 13.875,6.84375 7.875,4.5 17.53125,11.25 l 8.71875,6.09375 q 7.3125,5.15625 14.625,8.34375 7.3125,3.09375 14.625,3.46875 l 1.3125,-0.28125 -0.28125,1.6875 -0.375,1.59375 -3.1875,0.5625 q 2.8125,1.3125 4.21875,2.8125 1.40625,1.40625 1.40625,1.6875 l 0.1875,0.65625 q -0.375,2.25 -1.96875,3.375 -1.59375,1.125 -3.9375,1.40625 l -2.90625,0.375 q -0.46875,0 -1.125,0 -0.5625,0 -1.21875,0.0937 -12.9375,0 -23.4375,-5.34375 -10.59375,-5.34375 -17.34375,-5.34375 -1.78125,0 -3.09375,0.28125 -1.21875,0.1875 -2.25,0.5625 -1.03125,0.375 -1.96875,0.9375 -0.9375,0.46875 -1.875,0.9375 l 0.1875,3.84375 q 0,0.46875 -0.0937,2.625 0,2.15625 -0.0937,4.59375 -0.0937,2.90625 -0.1875,6.375 l -6.09375,21.09375 2.8125,4.6875 -3.1875,-2.34375 -1.125,2.25 z m 83.718752,-85.03125 -0.9375,2.4375 q -0.75,1.78125 -1.21875,4.6875 0,6.5625 8.0625,12.46875 8.25,6 27.75,10.59375 9.9375,2.34375 18.9375,3.84375 9,1.40625 17.25,1.96875 1.59375,0.1875 3.1875,0.375 1.6875,0.0937 3.28125,0.28125 l 11.0625,0.5625 q -6.28125,-1.59375 -12.84375,-5.15625 -6.5625,-3.65625 -13.875,-9 l -8.4375,-6 q -23.34375,-16.3125 -46.125,-20.15625 -11.34375,-1.875 -16.6875,-5.625 -5.343752,-3.75 -5.343752,-9.46875 0,-1.21875 0.65625,-2.90625 0.75,-1.6875 1.968752,-3.5625 1.3125,-1.96875 3,-4.03125 1.78125,-2.15625 3.75,-4.125 9.9375,-9.656246 11.625,-17.156246 -0.84375,-3.1875 -3.09375,-4.59375 -2.15625,-1.40625 -4.78125,-1.40625 -3.28125,0 -6.375,1.875 -3,1.78125 -4.218752,5.34375 l 3.187502,1.78125 h 0.28125 q 0.28125,0 0.46875,-0.09375 0.9375,0 1.875,0.5625 0.9375,0.46875 1.6875,1.3125 0.84375,0.84375 1.3125,1.875 0.46875,1.03125 0.46875,1.96875 0,0.84375 -0.46875,1.875 -0.46875,1.03125 -1.03125,1.875 l -1.59375,2.531246 q -0.65625,1.03125 -2.4375,3.46875 -1.78125,2.34375 -4.312502,6.09375 -2.53125,3.75 -3.84375,7.21875 -1.21875,3.375 -1.6875,6.65625 0.09375,2.71875 0.5625,5.71875 0.5625,2.90625 1.875,6.1875 1.40625,3.28125 3.65625,7.03125 2.343752,3.75 6.093752,7.96875 4.96875,5.53125 15.5625,13.03125 1.6875,1.21875 3.75,2.8125 2.15625,1.5 4.40625,3.28125 2.34375,1.6875 4.6875,3.5625 2.34375,1.78125 4.5,3.46875 5.15625,4.03125 10.59375,8.25 v -1.78125 q 0,-0.75 -0.0937,-1.5 0,-0.84375 0,-1.3125 l -0.375,-4.03125 q 2.4375,-2.71875 5.625,-3.65625 3.28125,-1.03125 6.65625,-1.03125 h 1.40625 l -5.25,-0.9375 q -1.40625,-0.1875 -4.78125,-0.9375 -3.28125,-0.75 -8.625,-2.0625 -10.78125,-2.71875 -16.03125,-5.15625 l -5.8125,-2.625 q -6.28125,-2.8125 -10.21875,-7.3125 -3.84375,-4.5 -3.84375,-9.5625 0,-2.71875 0.65625,-4.96875 0.75,-2.34375 1.96875,-4.5 z m -64.687502,-18.1875 q 0,-1.21875 0.65625,-2.90625 0.75,-1.6875 1.96875,-3.5625 1.3125,-1.96875 3,-4.03125 1.78125,-2.15625 3.75,-4.125 3,-2.8125 4.96875,-5.343746 l -5.25,2.531246 -0.375,0.5625 q -0.65625,1.03125 -2.4375,3.46875 -1.78125,2.34375 -4.3125,6.09375 -2.53125,3.75 -3.84375,7.21875 -1.21875,3.375 -1.6875,6.65625 0.09375,2.71875 0.5625,5.71875 0.5625,2.90625 1.875,6.1875 1.40625,3.28125 3.65625,7.03125 2.34375,3.75 6.09375,7.96875 4.96875,5.53125 15.5625,13.03125 1.96875,1.40625 4.6875,3.46875 2.8125,2.0625 5.8125,4.40625 3,2.34375 6.09375,4.78125 3.09375,2.34375 5.71875,4.5 2.71875,2.0625 4.78125,3.75 2.062502,1.59375 3.093752,2.4375 l 0.0937,-0.28125 -5.250002,-18.46875 -2.53125,-0.46875 q -10.78125,-2.71875 -16.03125,-5.15625 l -5.8125,-2.625 q -6.28125,-2.8125 -10.21875,-7.3125 -3.84375,-4.5 -3.84375,-9.5625 0,-2.71875 0.65625,-4.96875 0.75,-2.34375 1.96875,-4.5 l 2.53125,1.6875 -0.9375,2.4375 q -0.75,1.78125 -1.21875,4.6875 0,6.5625 8.0625,12.46875 3.5625,2.625 9.1875,4.96875 5.625,2.25 13.40625,4.40625 -10.40625,-7.59375 -16.6875,-15.28125 -6.28125,-7.6875 -8.8125,-16.78125 l -6.28125,-2.15625 -0.46875,0.28125 q -1.6875,1.03125 -3,2.25 -1.3125,1.125 -2.4375,2.53125 -1.125,1.40625 -2.15625,3.09375 -0.9375,1.6875 -1.96875,3.9375 l -0.375,-0.0937 q 0.75,-4.5 2.53125,-7.6875 1.875,-3.1875 4.6875,-5.53125 -9.46875,-4.21875 -9.46875,-11.71875 z m 55.031252,45.46875 -5.812502,-2.625 q -6.28125,-2.8125 -10.21875,-7.3125 -3.84375,-4.5 -3.84375,-9.5625 0,-2.71875 0.65625,-4.96875 0.75,-2.34375 1.96875,-4.5 l 2.53125,1.6875 -0.9375,2.4375 q -0.75,1.78125 -1.21875,4.6875 0,6.5625 8.0625,12.46875 3.5625,2.625 9.187502,4.96875 5.625,2.25 13.40625,4.40625 -10.40625,-7.59375 -16.6875,-15.28125 -6.187502,-7.6875 -8.812502,-16.78125 l -6.375,-2.15625 q -3.5625,2.15625 -5.71875,4.875 -2.15625,2.625 -4.21875,7.21875 l -0.375,-0.0937 q 0.75,-4.5 2.53125,-7.59375 1.875,-3.1875 4.6875,-5.625 -9.46875,-4.03125 -9.46875,-11.71875 0,-1.21875 0.65625,-2.90625 0.75,-1.6875 1.96875,-3.5625 1.3125,-1.96875 3,-4.03125 1.78125,-2.15625 3.75,-4.125 3,-2.8125 4.96875,-5.343746 l -5.25,2.531246 -0.375,0.5625 q -0.65625,1.03125 -2.4375,3.46875 -1.78125,2.34375 -4.3125,6.09375 -2.53125,3.75 -3.84375,7.21875 -1.21875,3.375 -1.6875,6.65625 0.09375,2.71875 0.5625,5.71875 0.5625,2.90625 1.875,6.1875 1.40625,3.28125 3.65625,7.03125 2.34375,3.75 6.09375,7.96875 4.96875,5.53125 15.5625,13.03125 2.0625,1.5 4.875002,3.5625 2.8125,2.0625 5.8125,4.40625 3.09375,2.34375 6.1875,4.78125 3.09375,2.4375 5.71875,4.59375 2.71875,2.0625 4.6875,3.65625 2.0625,1.5 2.90625,2.25 l 0.0937,-0.1875 -5.15625,-18.28125 -2.625,-0.65625 q -10.78125,-2.71875 -16.03125,-5.15625 z m 29.71875,13.5 q -0.28125,1.6875 -1.03125,4.3125 -0.75,2.625 -1.875,5.90625 -1.03125,3.1875 -2.34375,6.75 -1.3125,3.5625 -2.625,7.03125 -3.09375,8.15625 -7.03125,17.4375 h 23.8125 l 6.65625,-22.875 0.28125,-6 z m -39.281252,41.4375 h 21.093752 l 11.0625,-27.75 -17.25,-13.6875 q -0.28125,1.6875 -1.03125,4.3125 -0.75,2.625 -1.875,5.90625 -1.03125,3.1875 -2.34375,6.75 -1.3125,3.5625 -2.625,7.03125 -3.093752,8.15625 -7.031252,17.4375 z m -24.375,0 h 21.09375 L 101.79883,191.95062 84.642578,178.16937 q -0.28125,1.6875 -1.03125,4.3125 -0.75,2.625 -1.875,5.90625 -1.03125,3.1875 -2.34375,6.75 -1.3125,3.5625 -2.625,7.03125 -3.09375,8.15625 -7.03125,17.4375 z m 13.5,-111.65625 q -7.40625,7.5 -7.40625,11.71875 0,1.125 0.28125,2.34375 3.1875,4.5 9.1875,6.84375 1.3125,-0.75 2.625,-1.40625 1.3125,-0.65625 2.8125,-1.40625 0.46875,-3.46875 2.34375,-7.96875 1.875,-4.5 4.875,-9 6.281252,-9 8.156252,-12.749996 0,-1.6875 -1.125,-2.625 -1.21875,-1.03125 -2.90625,-1.03125 l -0.75,0.09375 -8.062502,3.75 q -2.8125,4.031246 -10.03125,11.437496 z m -24.375,0 q -7.40625,7.5 -7.40625,11.71875 0,1.125 0.28125,2.34375 3.09375,4.40625 9.28125,6.84375 2.34375,-1.5 5.34375,-2.8125 0.46875,-3.46875 2.34375,-7.96875 1.875,-4.5 4.875,-9 l 3.375,-4.96875 -6,2.8125 -0.375,-0.65625 8.34375,-5.15625 q 1.78125,-2.906246 2.8125,-4.781246 0,-1.6875 -1.125,-2.625 -1.21875,-1.03125 -2.90625,-1.03125 l -0.75,0.09375 -8.0625,3.75 q -2.8125,4.031246 -10.03125,11.437496 z m 35.15625,-20.531246 q -0.84375,-3.1875 -3.09375,-4.59375 -2.15625,-1.40625 -4.78125,-1.40625 -3.28125,0 -6.375,1.875 -3,1.78125 -4.21875,5.34375 l 3.1875,1.78125 h 0.28125 q 0.28125,0 0.46875,-0.09375 0.9375,0 1.875,0.5625 0.9375,0.46875 1.6875,1.3125 0.84375,0.84375 1.3125,1.875 0.46875,1.03125 0.46875,1.96875 0,0.65625 -0.46875,1.78125 l 7.21875,-4.5 q 1.78125,-3.28125 2.4375,-5.90625 z m -24.375,0 q -0.84375,-3.1875 -3.09375,-4.59375 -2.15625,-1.40625 -4.78125,-1.40625 -3.28125,0 -6.375,1.875 -3,1.78125 -4.21875,5.34375 l 3.1875,1.78125 h 0.28125 q 0.28125,0 0.46875,-0.09375 0.9375,0 1.875,0.5625 0.9375,0.46875 1.6875,1.3125 0.84375,0.84375 1.3125,1.875 0.46875,1.03125 0.46875,1.96875 0,0.65625 -0.46875,1.78125 l 7.21875,-4.5 q 1.78125,-3.28125 2.4375,-5.90625 z M 210.26758,182.38812 q -1.5,-1.875 -3.75,-2.71875 -2.25,-0.9375 -4.21875,-1.875 -3.84375,-0.1875 -7.78125,-0.46875 -3.9375,-0.28125 -8.15625,-0.65625 -4.21875,-0.375 -8.8125,-0.84375 -4.59375,-0.5625 -9.75,-1.21875 0.1875,0.0937 1.03125,0.375 0.84375,0.28125 1.96875,0.65625 1.125,0.28125 2.34375,0.75 1.21875,0.375 2.0625,0.75 l 5.625,2.4375 q 5.15625,2.15625 10.6875,3.375 5.625,1.21875 10.78125,1.21875 4.3125,0 5.90625,-0.46875 1.6875,-0.5625 2.0625,-1.3125 z m -84.84375,-10.40625 3.5625,12 1.875,-7.59375 z m -48.750002,0 3.5625,12 1.875,-7.59375 z m 24.375002,0 3.5625,12 1.875,-7.59375 z M 82.955078,85.544374 q 1.125,0.46875 1.875,1.59375 -0.9375,0.9375 -1.6875,1.3125 l -1.21875,-1.40625 z m 24.375002,0 q 1.125,0.46875 1.875,1.59375 -0.9375,0.9375 -1.6875,1.3125 l -1.21875,-1.40625 z m -48.750002,0 q 1.125,0.46875 1.875,1.59375 -0.9375,0.9375 -1.6875,1.3125 l -1.21875,-1.40625 z m 32.34375,43.874996 -1.78125,0.84375 2.0625,0.75 z m -24.375,0 -1.6875,0.84375 1.96875,0.65625 z"
         id="path10377"
         inkscape:connector-curvature="0" />
    </g>
  </g>
</svg>
