<?xml version="1.0" encoding="UTF-8" standalone="no"?>
<!-- Created with Inkscape (http://www.inkscape.org/) -->

<svg
   xmlns:dc="http://purl.org/dc/elements/1.1/"
   xmlns:cc="http://creativecommons.org/ns#"
   xmlns:rdf="http://www.w3.org/1999/02/22-rdf-syntax-ns#"
   xmlns:svg="http://www.w3.org/2000/svg"
   xmlns="http://www.w3.org/2000/svg"
   xmlns:sodipodi="http://sodipodi.sourceforge.net/DTD/sodipodi-0.dtd"
   xmlns:inkscape="http://www.inkscape.org/namespaces/inkscape"
   width="38.124805mm"
   height="37.628708mm"
   viewBox="0 0 38.124805 37.628708"
   version="1.1"
   id="svg25879"
   inkscape:version="0.92.4 (5da689c313, 2019-01-14)"
   sodipodi:docname="G32.svg">
  <defs
     id="defs25873" />
  <sodipodi:namedview
     id="base"
     pagecolor="#ffffff"
     bordercolor="#666666"
     borderopacity="1.0"
     inkscape:pageopacity="0.0"
     inkscape:pageshadow="2"
     inkscape:zoom="0.35"
     inkscape:cx="-351.83036"
     inkscape:cy="-414.28574"
     inkscape:document-units="mm"
     inkscape:current-layer="layer1"
     showgrid="false"
     fit-margin-top="0"
     fit-margin-left="0"
     fit-margin-right="0"
     fit-margin-bottom="0"
     inkscape:window-width="1920"
     inkscape:window-height="1017"
     inkscape:window-x="-8"
     inkscape:window-y="-8"
     inkscape:window-maximized="1" />
  <metadata
     id="metadata25876">
    <rdf:RDF>
      <cc:Work
         rdf:about="">
        <dc:format>image/svg+xml</dc:format>
        <dc:type
           rdf:resource="http://purl.org/dc/dcmitype/StillImage" />
        <dc:title></dc:title>
      </cc:Work>
    </rdf:RDF>
  </metadata>
  <g
     inkscape:label="Layer 1"
     inkscape:groupmode="layer"
     id="layer1"
     transform="translate(-5.7759487,-1.5915235)">
    <g
       aria-label="𓅤"
       style="font-style:normal;font-variant:normal;font-weight:normal;font-stretch:normal;font-size:50.79999924px;line-height:1.25;font-family:sans-serif;-inkscape-font-specification:'sans-serif, Normal';font-variant-ligatures:normal;font-variant-caps:normal;font-variant-numeric:normal;font-feature-settings:normal;text-align:start;letter-spacing:0px;word-spacing:0px;writing-mode:lr-tb;text-anchor:start;fill:#000000;fill-opacity:1;stroke:none;stroke-width:0.26458332"
       id="text26426">
      <path
         d="m 15.176925,38.004804 h 3.720703 L 17.062081,33.986445 Z M 36.632979,5.7091016 q -1.041797,0 -2.282031,-0.1240234 Q 33.110714,5.4610547 31.82087,5.2626172 30.555831,5.0641797 29.315597,4.8161329 28.100167,4.568086 27.083175,4.3200391 27.653683,4.6425001 28.348214,4.964961 29.06755,5.2874219 29.81169,5.6098829 30.580636,5.9323438 31.324776,6.23 q 0.768946,0.2976563 1.488281,0.5705078 1.661915,0.6449219 3.398243,1.2154297 v 0.099219 Q 34.499776,7.743086 32.837862,7.2966016 31.423995,6.8997266 29.81169,6.3540235 28.199386,5.8083204 26.934347,5.1385938 26.63669,5.6346875 26.165401,6.0563672 q -0.446484,0.4216797 -0.992187,0.79375 -0.545703,0.3472656 -1.116211,0.6449219 -0.545703,0.2728515 -1.041797,0.5208984 -0.272851,0.1240234 -0.595312,0.2976563 -0.297657,0.1736328 -0.595313,0.396875 -0.272851,0.1984374 -0.496094,0.471289 -0.223242,0.2480469 -0.297656,0.5457031 0.297656,0.1984375 0.644922,0.2976561 0.347266,0.07441 0.719336,0.124024 0.37207,0.04961 0.74414,0.07441 0.372071,0.0248 0.694532,0.09922 1.934765,0.42168 3.646289,1.289844 1.885156,0.967383 3.671093,2.158008 1.810743,1.16582 3.497461,2.480469 1.711524,1.314648 3.299024,2.75332 1.612304,1.413867 3.12539,2.902148 0.396875,0.04961 0.892969,0.148828 0.496094,0.07441 0.917773,0.148829 0.496094,0.09922 1.016993,0.198437 l -1.934766,0.347266 q 0.148828,0.198437 0.347266,0.421679 0.223242,0.198438 0.396875,0.42168 0.198437,0.198438 0.322461,0.42168 0.148828,0.198437 0.148828,0.347265 0,0.198438 -0.124024,0.396875 -0.124023,0.173633 -0.297656,0.347266 -0.173633,0.148828 -0.37207,0.272852 -0.173633,0.09922 -0.322461,0.173632 -0.09922,0.04961 -0.42168,0.04961 -0.322461,0 -0.520898,0 -1.21543,0 -2.604492,-0.520899 -1.364258,-0.545703 -2.480469,-1.513086 -0.694531,-0.198437 -1.661914,-0.471289 -0.942578,-0.297656 -1.885156,-0.297656 -0.396875,0 -0.818555,0.124023 -0.42168,0.124024 -0.79375,0.372071 -0.37207,0.248047 -0.644922,0.620117 -0.272852,0.347266 -0.37207,0.79375 -0.07441,0.37207 -0.07441,0.744141 0,0.148828 0,0.32246 0,0.148829 0.0248,0.297657 0,0.173633 0.02481,0.347265 -2.75332,-0.917773 -5.13457,-1.711523 -1.016992,-0.322461 -2.058789,-0.669727 -1.016992,-0.347265 -1.934766,-0.644921 -0.917773,-0.322461 -1.661914,-0.570508 -0.74414,-0.248047 -1.16582,-0.396875 1.488281,0.719336 2.530078,1.215429 1.041797,0.496094 1.785937,0.917774 1.190625,0.669726 1.934766,1.413867 0.744141,0.719336 1.314648,1.637109 -0.818554,-0.669726 -1.761132,-1.289843 -0.942578,-0.620118 -1.959571,-1.165821 -1.016992,-0.570507 -2.058789,-1.041797 -1.016992,-0.496093 -2.009179,-0.892968 v 9.177734 l 2.579687,5.605859 h 5.208984 v -2.778125 h 1.190625 v 3.993555 H 7.0409875 v -3.993555 h 1.2154297 v 2.778125 h 5.5810548 l 2.604492,-5.581054 v -9.15293 q -1.016992,0.09922 -1.984375,0.42168 -0.942578,0.322461 -1.860352,0.818554 -0.917773,0.47129 -1.810742,1.091407 -0.8681637,0.595312 -1.7363278,1.215429 1.1906248,-1.810742 3.1005858,-2.902148 1.934766,-1.116211 4.39043,-1.686719 -0.223242,-0.0248 -0.446485,-0.0248 -0.223242,0 -0.446484,0 -1.389062,0 -2.579687,0.173632 -1.190625,0.173633 -2.207618,0.446485 -1.0169918,0.248047 -1.8851559,0.570508 -0.8433593,0.32246 -1.5378906,0.620117 1.2898438,-0.892969 2.5796875,-1.413867 1.289844,-0.545704 2.505273,-0.818555 1.240235,-0.297656 2.38125,-0.37207 1.141016,-0.07441 2.108399,-0.07441 1.389062,0.42168 2.902148,0.942579 1.537891,0.496093 3.075781,1.016992 1.562696,0.520898 3.075782,1.041797 1.53789,0.496093 2.926953,0.942578 -0.09922,-0.744141 -0.520899,-1.438672 -0.396875,-0.694531 -0.942578,-1.289844 -0.520898,-0.620117 -1.091406,-1.091406 -0.570508,-0.496094 -0.992188,-0.843359 -0.868164,-0.694532 -1.835546,-1.389063 -0.942579,-0.719336 -1.835547,-1.537891 -0.892969,-0.818554 -1.686719,-1.761132 -0.768945,-0.942578 -1.289844,-2.133203 -0.124023,0.272851 -0.173633,0.719336 -0.04961,0.421679 -0.04961,0.620117 0,0.620117 0.124023,1.265039 0.148829,0.644922 0.347266,1.215429 -0.644922,-1.016992 -0.892969,-1.612304 -0.223242,-0.620117 -0.223242,-1.240235 0,-0.719336 0.496094,-1.562695 -0.223242,-0.272851 -0.446484,-0.719336 -0.223243,-0.446484 -0.347266,-0.74414 -0.09922,-0.297657 -0.148828,-0.545704 -0.04961,-0.248046 -0.04961,-0.471289 0,-0.694531 0.372071,-1.1410152 Q 18.203097,9.1073437 18.7488,8.7600781 19.319308,8.3880078 19.939425,8.0407422 20.559542,7.6934766 21.055636,7.1973828 21.006026,6.8005078 20.584347,6.4780469 20.162667,6.1307813 19.592159,5.8827344 19.046456,5.6346875 18.500753,5.5106641 17.95505,5.361836 17.657394,5.3370313 q -0.744141,-0.074414 -1.513086,-0.074414 -1.240235,0 -2.728516,0.2232422 -1.488281,0.2232422 -2.902148,0.5953125 -1.4138674,0.3472656 -2.6292971,0.79375 -1.2154297,0.4216797 -1.8851562,0.8433594 -0.024805,0 -0.049609,-0.024805 -0.024805,-0.024805 -0.074414,-0.049609 -0.049609,-0.024805 -0.099219,-0.099219 0,-0.2480469 0.2728516,-0.4960938 Q 6.3216516,6.7757032 6.7185266,6.552461 7.1154016,6.3044141 7.5370813,6.1059766 7.9835657,5.9075391 8.3060266,5.8083204 9.1245813,5.5602735 10.166378,5.3122266 11.208175,5.0641797 12.299581,4.8657422 13.415792,4.6673047 14.482394,4.5432813 15.5738,4.4192579 16.441964,4.4192579 q 1.488281,-1.4138672 2.902148,-2.1083984 1.438672,-0.719336 2.951758,-0.719336 0.620117,0 1.21543,0.1488282 0.595312,0.1488281 1.265039,0.4464843 0.669726,0.2976563 1.364258,0.6449219 0.719336,0.3224609 1.413867,0.6201172 0.719336,0.2976562 1.389062,0.471289 1.066602,0.2728516 1.984375,0.4960938 0.942578,0.2232422 1.835547,0.4216797 0.917774,0.1984375 1.835547,0.396875 0.942578,0.1736328 2.033984,0.3720703 z m 3.59668,16.5447264 q -2.455664,-0.520899 -4.613672,-1.16582 -2.158008,-0.644922 -4.092773,-1.314649 -1.63711,-0.570508 -3.175,-1.190625 -1.537891,-0.644922 -2.728516,-1.364258 -1.190625,-0.74414 -1.909961,-1.5875 -0.719336,-0.843359 -0.719336,-1.810742 0,-0.37207 0.124024,-0.79375 0.148828,-0.446484 0.322461,-0.79375 0.09922,-0.198437 0.223242,-0.396875 0.124023,-0.223242 0.248047,-0.421679 l 0.694531,0.421679 q -0.223242,0.297657 -0.347266,0.595313 -0.124023,0.272851 -0.223242,0.644922 -0.09922,0.347265 -0.09922,0.74414 0,0.719336 0.620118,1.413867 0.620117,0.694532 1.661914,1.364258 1.066601,0.644922 2.480468,1.265039 1.413868,0.595313 3.001368,1.141016 1.860351,0.644922 3.795117,1.190625 1.934765,0.545703 3.745507,1.041797 -1.413867,-1.339453 -2.852539,-2.579688 -1.413867,-1.265039 -2.976562,-2.455664 -1.141016,-0.868164 -2.306836,-1.637109 -1.16582,-0.768945 -2.430859,-1.463477 -0.768946,-0.421679 -1.537891,-0.768945 -0.74414,-0.347266 -1.53789,-0.669726 -0.669727,-0.272852 -1.289844,-0.396875 -0.595313,-0.148829 -1.289844,-0.248047 -0.347266,-0.04961 -0.669726,-0.09922 -0.322461,-0.07441 -0.644922,-0.148828 -0.198438,-0.04961 -0.372071,-0.09922 -0.173632,-0.04961 -0.37207,-0.09922 -0.768945,-0.322461 -0.768945,-0.8185544 0,-0.3472656 0.297656,-0.7193359 0.297656,-0.3720703 0.694531,-0.6945313 0.396875,-0.3472656 0.79375,-0.5953124 0.42168,-0.2728516 0.669727,-0.396875 0.248047,-0.1240235 0.496093,-0.2232422 0.272852,-0.1240235 0.545704,-0.2480469 0.396875,-0.1984375 0.620117,-0.3224609 0.248047,-0.1240235 0.669726,-0.396875 0.620118,-0.396875 0.992188,-0.8433594 0.396875,-0.471289 0.396875,-1.1410156 0,-0.1240234 -0.0248,-0.2232422 0,-0.1240234 -0.02481,-0.2480468 -0.917773,-0.4216797 -1.934765,-0.8433594 -1.016992,-0.4464844 -1.934766,-0.4464844 -0.868164,0 -1.885156,0.2976563 -0.992187,0.2976562 -1.785937,0.79375 -0.372071,0.2232421 -0.719336,0.5705078 -0.322461,0.3472656 -0.694532,0.5457031 1.116211,0.099219 2.033985,0.4216797 0.917773,0.3224609 1.637109,0.8185546 0.471289,0.3472657 0.644922,0.6449219 0.198437,0.2728516 0.198437,0.5457031 0,0.4712891 -0.471289,0.8929687 -0.471289,0.396875 -1.091406,0.7689454 -0.595312,0.3720703 -1.190625,0.7441406 -0.570508,0.3720703 -0.768945,0.7441406 -0.148828,0.272852 -0.148828,0.545703 0,0.496094 0.272851,0.967383 0.272852,0.471289 0.496094,0.868164 l 0.446484,0.520898 q 0.396875,1.165821 1.116211,2.108399 0.744141,0.942578 1.63711,1.761133 0.892968,0.818554 1.885156,1.562695 0.992187,0.719336 1.885156,1.463476 0.471289,0.396875 0.868164,0.768946 0.396875,0.37207 0.768945,0.719336 0.570508,0.545703 1.091407,0.942578 0.520898,0.396875 1.016992,0.570508 0.396875,-0.248047 0.843359,-0.47129 0.372071,-0.198437 0.84336,-0.347265 0.496093,-0.148828 1.016992,-0.148828 0.644922,0 1.289844,0.124023 0.669726,0.124024 1.265039,0.272852 0.347265,0.07441 0.818554,0.198437 0.496094,0.124024 0.694531,0.272852 0.545704,0.421679 1.116211,0.843359 0.570508,0.42168 1.165821,0.620117 0.74414,0.248047 1.463476,0.347266 0.744141,0.09922 1.537891,0.124023 0.148828,-0.07441 0.322461,-0.173632 0.198437,-0.124024 0.297656,-0.272852 -0.124023,-0.198437 -0.347266,-0.446484 -0.198437,-0.272852 -0.446484,-0.520899 -0.223242,-0.248047 -0.496094,-0.471289 -0.248047,-0.223242 -0.421679,-0.37207 z M 21.849386,4.0223829 q -0.372071,0.4464844 -0.719336,0.6449218 -0.198438,0 -0.198438,-0.4960937 0,-0.3720703 0.272852,-0.5705078 0.446484,0.2232422 0.644922,0.4216797 z"
         style="stroke-width:0.26458332"
         id="path26428"
         inkscape:connector-curvature="0" />
    </g>
  </g>
</svg>
