<?xml version="1.0" encoding="UTF-8" standalone="no"?>
<!-- Created with Inkscape (http://www.inkscape.org/) -->

<svg
   xmlns:dc="http://purl.org/dc/elements/1.1/"
   xmlns:cc="http://creativecommons.org/ns#"
   xmlns:rdf="http://www.w3.org/1999/02/22-rdf-syntax-ns#"
   xmlns:svg="http://www.w3.org/2000/svg"
   xmlns="http://www.w3.org/2000/svg"
   xmlns:sodipodi="http://sodipodi.sourceforge.net/DTD/sodipodi-0.dtd"
   xmlns:inkscape="http://www.inkscape.org/namespaces/inkscape"
   width="38.174412mm"
   height="36.363674mm"
   viewBox="0 0 38.174412 36.363674"
   version="1.1"
   id="svg26437"
   inkscape:version="0.92.4 (5da689c313, 2019-01-14)"
   sodipodi:docname="G33.svg">
  <defs
     id="defs26431" />
  <sodipodi:namedview
     id="base"
     pagecolor="#ffffff"
     bordercolor="#666666"
     borderopacity="1.0"
     inkscape:pageopacity="0.0"
     inkscape:pageshadow="2"
     inkscape:zoom="0.35"
     inkscape:cx="-352.625"
     inkscape:cy="-377.14286"
     inkscape:document-units="mm"
     inkscape:current-layer="layer1"
     showgrid="false"
     fit-margin-top="0"
     fit-margin-left="0"
     fit-margin-right="0"
     fit-margin-bottom="0"
     inkscape:window-width="1920"
     inkscape:window-height="1017"
     inkscape:window-x="-8"
     inkscape:window-y="-8"
     inkscape:window-maximized="1" />
  <metadata
     id="metadata26434">
    <rdf:RDF>
      <cc:Work
         rdf:about="">
        <dc:format>image/svg+xml</dc:format>
        <dc:type
           rdf:resource="http://purl.org/dc/dcmitype/StillImage" />
        <dc:title></dc:title>
      </cc:Work>
    </rdf:RDF>
  </metadata>
  <g
     inkscape:label="Layer 1"
     inkscape:groupmode="layer"
     id="layer1"
     transform="translate(-5.9861978,-12.683943)">
    <g
       aria-label="𓅥"
       style="font-style:normal;font-variant:normal;font-weight:normal;font-stretch:normal;font-size:50.79999924px;line-height:1.25;font-family:sans-serif;-inkscape-font-specification:'sans-serif, Normal';font-variant-ligatures:normal;font-variant-caps:normal;font-variant-numeric:normal;font-feature-settings:normal;text-align:start;letter-spacing:0px;word-spacing:0px;writing-mode:lr-tb;text-anchor:start;fill:#000000;fill-opacity:1;stroke:none;stroke-width:0.26458332"
       id="text26984">
      <path
         d="m 32.229557,49.047619 q -0.595313,-0.595313 -1.190625,-0.595313 -0.272852,0 -0.620117,0.148828 -0.347266,0.148829 -0.570508,0.446485 H 15.808854 q -1.488281,-0.768945 -2.257227,-0.768945 -0.37207,0 -0.843359,0.223242 -0.446484,0.198437 -0.868164,0.545703 0.545703,-0.818555 1.016992,-1.16582 0.496094,-0.372071 1.141016,-0.372071 0.868164,0 1.835547,0.744141 h 3.373437 l 4.39043,-13.146484 -1.116211,-3.646289 -3.547071,-4.39043 q -0.79375,-0.967383 -1.53789,-1.661914 -0.744141,-0.719336 -1.537891,-1.16582 -0.79375,-0.471289 -1.661914,-0.868164 -0.868164,-0.42168 -1.810742,-0.79375 -1.885156,-0.768946 -1.885156,-2.356446 0,-0.620117 0.37207,-1.265039 l 0.297656,-0.446484 q 0.07441,-0.09922 0.148828,-0.198437 0.09922,-0.09922 0.198438,-0.198438 l 1.141016,-1.116211 q 0.545703,-0.545703 1.041796,-1.190625 l -1.066601,-0.09922 q -0.79375,0.322461 -1.5875,0.644922 -0.79375,0.322461 -1.5875001,0.669727 l -3.3982421,1.53789 -0.074414,-0.09922 q 0.6449219,-0.471289 1.2898438,-0.917774 0.5457031,-0.37207 1.1162109,-0.74414 0.5705078,-0.396875 0.9921875,-0.620118 1.21543,-0.644921 1.934765,-1.091406 0.744141,-0.471289 0.84336,-0.520898 0.446484,-0.545703 0.843359,-0.892969 0.396875,-0.37207 0.818555,-0.595312 0.446484,-0.223243 0.917773,-0.297657 0.471289,-0.09922 1.066602,-0.09922 1.265039,0 2.058789,0.496093 0.79375,0.496094 0.79375,1.537891 0,0.669726 -0.446484,1.637109 -0.446485,0.942578 -1.339454,2.058789 5.109766,1.562696 10.169922,4.489649 5.060156,2.926953 10.343555,6.994921 l 6.275585,4.836914 -0.124023,0.719336 -0.644922,0.198438 1.265039,1.53789 -0.347265,0.644922 h -2.579688 l -1.934765,-1.95957 q -1.686719,-1.686719 -2.728516,-2.257227 -1.091406,-0.595312 -2.852539,-0.595312 -0.644922,0 -1.389063,0.07441 -0.719335,0.04961 -1.463476,0.124023 -0.719336,0.07442 -1.413867,0.148829 -0.694531,0.07441 -1.240235,0.09922 l -1.190625,14.783594 h 2.406055 q 0.620117,-0.620117 1.116211,-0.620117 0.272852,0 0.669727,0.272851 0.396875,0.248047 1.016992,1.141016 z m -18.529102,-34.925 -0.421679,0.372071 q -0.198438,0.198437 -0.372071,0.446484 l 0.322461,-0.02481 q 0.372071,0 0.768946,0.148829 0.396875,0.148828 0.496093,0.396874 0,0.04961 0,0.148829 0.02481,0.09922 0.04961,0.223242 -0.322461,0.74414 -1.785938,2.133203 -0.719336,0.669726 -1.116211,1.240234 -0.396875,0.545703 -0.396875,0.967383 0,1.141016 1.661914,1.761133 0.84336,0.322461 1.711524,0.74414 0.892969,0.42168 1.810742,0.967383 1.835547,1.091406 3.472656,3.323828 0.84336,1.116211 1.438672,1.909961 0.595313,0.768946 0.942578,1.190625 0.79375,0.892969 3.348633,2.257227 0.322461,0.124023 0.620117,0.223242 0.272852,0.09922 0.545703,0.173633 0.297656,0.04961 0.496094,0.04961 0.744141,0 1.389062,-0.07441 0.669727,-0.07441 1.364258,-0.148828 0.694532,-0.09922 1.438672,-0.173633 0.768945,-0.07441 1.711524,-0.07441 1.711523,0 3.050976,0.396875 1.339453,0.396875 2.38125,1.438672 l 0.868164,0.868164 q 0.148828,0.148828 0.396875,0.396875 0.248047,0.223242 0.520898,0.496094 0.297657,0.272851 0.595313,0.570507 0.297656,0.297657 0.570508,0.570508 h 1.438672 l -3.621485,-4.638476 q -0.620117,-0.520899 -1.612304,-1.265039 -0.967383,-0.744141 -2.108399,-1.537891 -1.116211,-0.818555 -2.306836,-1.637109 -1.190625,-0.84336 -2.232422,-1.562695 -1.041796,-0.719336 -1.860351,-1.240235 -0.79375,-0.545703 -1.16582,-0.768945 -2.877344,-1.736328 -5.729883,-3.050977 -1.413867,-0.644922 -3.001367,-1.215429 -1.562695,-0.570508 -3.299024,-1.116211 l -0.198437,-0.570508 1.016992,-1.413867 q 0.942578,-1.314649 0.942578,-2.282031 0,-0.744141 -0.74414,-1.016993 -0.719336,-0.297656 -1.364258,-0.297656 -0.669727,0 -1.21543,0.223242 z m 6.523633,34.13125 h 5.853906 q 0.272852,-3.001367 0.620117,-6.126758 0.372071,-3.12539 0.496094,-6.275586 -0.124023,-0.570507 -0.248047,-1.141015 -0.09922,-0.570508 -0.223242,-1.21543 l -1.413867,-0.396875 z m 3.299024,-16.197461 0.570507,1.785938 0.42168,-1.240235 z m 18.851562,2.951758 0.248047,-0.09922 -1.314649,-1.16582 z M 14.444596,14.469885 14.221354,14.197033 14.345377,13.998596 q 0.248047,0.124023 0.496094,0.347266 z"
         style="stroke-width:0.26458332"
         id="path26986"
         inkscape:connector-curvature="0" />
    </g>
  </g>
</svg>
