<?xml version="1.0" encoding="UTF-8" standalone="no"?>
<!-- Created with Inkscape (http://www.inkscape.org/) -->

<svg
   xmlns:dc="http://purl.org/dc/elements/1.1/"
   xmlns:cc="http://creativecommons.org/ns#"
   xmlns:rdf="http://www.w3.org/1999/02/22-rdf-syntax-ns#"
   xmlns:svg="http://www.w3.org/2000/svg"
   xmlns="http://www.w3.org/2000/svg"
   xmlns:sodipodi="http://sodipodi.sourceforge.net/DTD/sodipodi-0.dtd"
   xmlns:inkscape="http://www.inkscape.org/namespaces/inkscape"
   width="28.47578mm"
   height="37.603909mm"
   viewBox="0 0 28.47578 37.603909"
   version="1.1"
   id="svg26995"
   inkscape:version="0.92.4 (5da689c313, 2019-01-14)"
   sodipodi:docname="G34.svg">
  <defs
     id="defs26989" />
  <sodipodi:namedview
     id="base"
     pagecolor="#ffffff"
     bordercolor="#666666"
     borderopacity="1.0"
     inkscape:pageopacity="0.0"
     inkscape:pageshadow="2"
     inkscape:zoom="0.35"
     inkscape:cx="-414.6875"
     inkscape:cy="-368.57143"
     inkscape:document-units="mm"
     inkscape:current-layer="layer1"
     showgrid="false"
     fit-margin-top="0"
     fit-margin-left="0"
     fit-margin-right="0"
     fit-margin-bottom="0"
     inkscape:window-width="1920"
     inkscape:window-height="1017"
     inkscape:window-x="-8"
     inkscape:window-y="-8"
     inkscape:window-maximized="1" />
  <metadata
     id="metadata26992">
    <rdf:RDF>
      <cc:Work
         rdf:about="">
        <dc:format>image/svg+xml</dc:format>
        <dc:type
           rdf:resource="http://purl.org/dc/dcmitype/StillImage" />
        <dc:title></dc:title>
      </cc:Work>
    </rdf:RDF>
  </metadata>
  <g
     inkscape:label="Layer 1"
     inkscape:groupmode="layer"
     id="layer1"
     transform="translate(-22.4069,-13.71157)">
    <g
       aria-label="𓅦"
       style="font-style:normal;font-variant:normal;font-weight:normal;font-stretch:normal;font-size:50.79999924px;line-height:1.25;font-family:sans-serif;-inkscape-font-specification:'sans-serif, Normal';font-variant-ligatures:normal;font-variant-caps:normal;font-variant-numeric:normal;font-feature-settings:normal;text-align:start;letter-spacing:0px;word-spacing:0px;writing-mode:lr-tb;text-anchor:start;fill:#000000;fill-opacity:1;stroke:none;stroke-width:0.26458332"
       id="text27542">
      <path
         d="m 25.185025,15.67114 0.620118,-0.0248 q 0.124023,0 0.272851,0 0.148828,0 0.297656,-0.0248 0.719336,0 1.463477,0.248047 0.768945,0.248046 1.265039,1.041796 0,1.289844 -0.446484,2.505274 -0.446485,1.190625 -1.21543,2.505273 -1.488281,2.530078 -1.488281,5.481836 0,2.654102 1.240234,4.34082 1.240234,1.686719 3.770312,1.686719 0.669727,0 1.513086,-0.198437 l 0.248047,0.07441 2.033985,1.711523 q 1.463476,1.21543 2.579687,1.785937 1.066602,0.520899 1.289844,0.520899 0.04961,0 0.198437,0.223242 0.148828,0.223242 0.322461,0.496094 0.198438,0.322461 0.42168,0.719336 0.42168,-0.198438 0.818555,-0.372071 0.32246,-0.148828 0.644921,-0.272851 0.322461,-0.124024 0.471289,-0.124024 0.272852,0 0.744141,0.223243 0.496094,0.198437 1.091406,0.496093 0.372071,-0.198437 0.744141,-0.520898 0.396875,-0.322461 0.744141,-0.42168 l 0.248046,0.07441 q 0.520899,0.272852 1.165821,0.694532 l 3.695898,0.322461 Q 48.129361,33.977 45.698502,31.992625 q -2.406055,-1.95957 -5.283399,-1.95957 -1.53789,0 -5.481836,1.016992 l 0.09922,-0.843359 q 0.347266,-0.124024 0.669727,-0.223242 0.347265,-0.09922 0.694531,-0.198438 l 1.413867,-0.396875 q 0.124024,-0.347266 0.248047,-0.843359 0.148828,-0.520899 0.148828,-1.016992 0,-0.272852 -0.07441,-0.545704 -0.04961,-0.272851 -0.198437,-0.471289 -1.885157,0.07441 -3.695899,1.066602 -1.810742,0.992187 -2.33164,2.505273 -0.496094,1.488282 -2.083594,1.488282 -1.413867,0 -2.43086,-1.835547 -0.496093,-0.917774 -0.694531,-1.761133 -0.173633,-0.843359 -0.173633,-1.637109 0,-1.860352 1.438672,-4.514454 1.488282,-2.70371 1.488282,-4.316015 0,-1.488281 -0.620118,-2.331641 -0.595312,-0.868164 -1.810742,-0.868164 -0.471289,0 -1.041797,0.248047 -0.545703,0.223242 -0.992187,0.84336 z m 12.129492,35.644335 q 0.124024,-0.496093 0.396875,-0.79375 0.272852,-0.32246 0.694532,-0.32246 0.223242,0 0.545703,0.04961 0.347265,0.02481 0.719336,0.07441 0.37207,0.04961 0.74414,0.124023 0.372071,0.04961 0.669727,0.09922 L 42.845963,39.2852 41.506509,38.739497 39.844595,39.384419 36.446353,51.315473 q -0.421679,0 -0.967382,-0.04961 -0.545704,-0.07441 -1.141016,-0.148828 -0.595313,-0.07441 -1.190625,-0.124023 -0.570508,-0.07442 -1.041797,-0.07442 -0.446484,0 -0.694531,0.124024 -0.223242,0.09922 -0.496094,0.248047 0,-0.124024 -0.02481,-0.223242 -0.0248,-0.09922 -0.04961,-0.198438 0,-0.37207 0.248047,-0.570508 0.272851,-0.198437 0.892969,-0.198437 0.421679,0 0.892968,0.09922 0.496094,0.07441 0.967383,0.173632 l 0.917774,0.173633 q 0.198437,0.04961 0.520898,0.07441 0.322461,0.02481 0.496094,0.02481 l 3.19981,-11.162103 -0.74414,-1.438672 Q 37.11608,37.697702 36.049478,36.978366 34.982877,36.25903 33.742642,35.217234 l -1.364257,-1.141016 q -0.719336,0.148828 -1.413868,0.148828 -2.852539,0 -4.29121,-1.860352 -1.463477,-1.885156 -1.463477,-4.936132 0,-0.868164 0.148828,-1.711524 0.148828,-0.868164 0.37207,-1.612304 0.248047,-0.768946 0.520899,-1.389063 0.297656,-0.620117 0.545703,-1.041797 0.79375,-1.289843 1.21543,-2.38125 0.421679,-1.091406 0.471289,-2.282031 -0.322461,-0.496094 -0.868164,-0.669726 -0.545703,-0.198438 -1.190625,-0.198438 -0.595313,0 -1.63711,0.09922 -1.041797,0.07441 -2.306836,0.37207 L 22.4069,16.489695 q 0.496094,-0.496094 0.942578,-0.79375 0.446485,-0.297656 1.141016,-0.496094 0.37207,-0.79375 1.041797,-1.141016 0.694531,-0.347265 1.389062,-0.347265 1.562696,0 2.38125,0.942578 0.84336,0.942578 0.84336,2.80293 0,0.868164 -0.396875,2.033984 -0.372071,1.16582 -1.091406,2.554883 -0.719336,1.389062 -1.041797,2.505273 -0.297657,1.091406 -0.347266,1.95957 0,0.620118 0.148828,1.265039 0.148828,0.644922 0.570508,1.438672 0.843359,1.562696 1.736328,1.562696 0.545703,0 1.240234,-0.496094 0.644922,-2.033985 2.654102,-3.274219 2.033984,-1.289844 4.464844,-1.289844 0.04961,0.02481 0.124023,0.07441 0.09922,0.02481 0.223242,0.07441 0.322461,0.322461 0.446485,0.744141 0.124023,0.396875 0.124023,0.868164 0,0.471289 -0.09922,0.942578 -0.09922,0.446485 -0.223242,0.868164 l 1.240234,-0.07441 q 1.661915,0 3.249415,0.545703 1.587499,0.545703 3.001367,1.686719 1.463476,1.190625 2.356445,2.554883 0.992187,1.438672 2.356445,5.184179 l -0.396875,0.520899 q -0.570508,-0.04961 -1.041797,-0.07441 -0.446484,-0.02481 -0.79375,-0.04961 -0.644921,-0.0248 -1.066601,-0.0248 -0.396875,-0.02481 -0.669727,-0.04961 -0.248047,-0.0248 -0.396875,-0.04961 -0.124023,-0.02481 -0.223242,-0.04961 -0.322461,-0.09922 -1.488281,-0.79375 -0.07441,0.04961 -0.248047,0.173632 -0.173633,0.09922 -0.347266,0.248047 -0.173632,0.124024 -0.322461,0.248047 -0.148828,0.09922 -0.198437,0.173633 l -1.885156,11.85664 q -1.041797,-0.07441 -1.810742,-0.198437 -0.768946,-0.148828 -1.413868,-0.148828 -0.272851,0 -0.496093,0.07441 -0.223243,0.04961 -0.396875,0.09922 -0.198438,0.09922 -0.372071,0.173632 z M 26.896549,15.199851 q -0.198438,0 -0.198438,-0.42168 0,-0.347265 0.124024,-0.347265 0.148828,0 0.496093,0.496093 z"
         style="stroke-width:0.26458332"
         id="path27544"
         inkscape:connector-curvature="0" />
    </g>
  </g>
</svg>
