<?xml version="1.0" encoding="UTF-8" standalone="no"?>
<!-- Created with Inkscape (http://www.inkscape.org/) -->

<svg
   xmlns:dc="http://purl.org/dc/elements/1.1/"
   xmlns:cc="http://creativecommons.org/ns#"
   xmlns:rdf="http://www.w3.org/1999/02/22-rdf-syntax-ns#"
   xmlns:svg="http://www.w3.org/2000/svg"
   xmlns="http://www.w3.org/2000/svg"
   xmlns:sodipodi="http://sodipodi.sourceforge.net/DTD/sodipodi-0.dtd"
   xmlns:inkscape="http://www.inkscape.org/namespaces/inkscape"
   width="37.380665mm"
   height="29.567186mm"
   viewBox="0 0 37.380665 29.567186"
   version="1.1"
   id="svg27553"
   inkscape:version="0.92.4 (5da689c313, 2019-01-14)"
   sodipodi:docname="G35.svg">
  <defs
     id="defs27547" />
  <sodipodi:namedview
     id="base"
     pagecolor="#ffffff"
     bordercolor="#666666"
     borderopacity="1.0"
     inkscape:pageopacity="0.0"
     inkscape:pageshadow="2"
     inkscape:zoom="0.35"
     inkscape:cx="-394.6875"
     inkscape:cy="-360.00001"
     inkscape:document-units="mm"
     inkscape:current-layer="layer1"
     showgrid="false"
     fit-margin-top="0"
     fit-margin-left="0"
     fit-margin-right="0"
     fit-margin-bottom="0"
     inkscape:window-width="1920"
     inkscape:window-height="1017"
     inkscape:window-x="-8"
     inkscape:window-y="-8"
     inkscape:window-maximized="1" />
  <metadata
     id="metadata27550">
    <rdf:RDF>
      <cc:Work
         rdf:about="">
        <dc:format>image/svg+xml</dc:format>
        <dc:type
           rdf:resource="http://purl.org/dc/dcmitype/StillImage" />
        <dc:title></dc:title>
      </cc:Work>
    </rdf:RDF>
  </metadata>
  <g
     inkscape:label="Layer 1"
     inkscape:groupmode="layer"
     id="layer1"
     transform="translate(-17.115234,-24.016145)">
    <g
       aria-label="𓅧"
       style="font-style:normal;font-variant:normal;font-weight:normal;font-stretch:normal;font-size:50.79999924px;line-height:1.25;font-family:sans-serif;-inkscape-font-specification:'sans-serif, Normal';font-variant-ligatures:normal;font-variant-caps:normal;font-variant-numeric:normal;font-feature-settings:normal;text-align:start;letter-spacing:0px;word-spacing:0px;writing-mode:lr-tb;text-anchor:start;fill:#000000;fill-opacity:1;stroke:none;stroke-width:0.26458332"
       id="text28100">
      <path
         d="m 33.659961,53.583332 q -0.347266,-0.124023 -0.79375,-0.173633 -0.446485,-0.07441 -0.84336,-0.124023 l -1.562695,-0.124024 q -0.297656,0.173633 -0.496094,0.272852 -0.198437,0.09922 -0.297656,0.148828 l 0.272852,-0.42168 q -0.545704,-0.07441 -0.868164,-0.272851 -0.297657,-0.198438 -0.520899,-0.396875 -0.471289,0.471289 -1.116211,0.644922 -0.644922,0.148828 -1.215429,0.148828 -0.768946,0 -1.513086,-0.09922 -0.719336,-0.124023 -1.438672,-0.124023 -0.520899,0 -1.016992,0.09922 -0.496094,0.09922 -1.066602,0.396875 0.42168,-0.545703 1.339453,-0.74414 0.917774,-0.198438 2.058789,-0.198438 1.289844,0 2.158008,-0.198437 0.868164,-0.223242 1.463477,-0.620117 l 2.356445,-5.581055 q -0.570508,-0.917773 -1.909961,-2.654102 -1.314649,-1.761132 -3.175,-3.993554 -3.695898,-4.489649 -3.695898,-7.069336 0,-1.265039 0.868164,-1.785937 0.868164,-0.520899 2.38125,-0.620118 0.620117,0 1.041796,0.02481 0.446485,0 0.768946,0.04961 0.347265,0.04961 0.595312,0.124024 0.248047,0.07441 0.520899,0.198437 1.190625,0 1.190625,-0.471289 0,-0.248047 -0.272852,-0.644922 -0.248047,-0.396875 -0.595312,-0.768945 -0.496094,0.07441 -0.992188,0.07441 -0.694531,0 -1.463476,-0.09922 -0.744141,-0.124023 -1.190625,-0.248046 L 23.638867,28.059309 Q 23.117969,27.910481 22.621875,27.736848 22.125781,27.538411 21.85293,27.364778 20.662305,27.16634 19.47168,26.992707 18.305859,26.819075 17.115234,26.819075 v -0.496094 q 0.992188,-0.173633 1.959571,-0.471289 0.967382,-0.322461 1.909961,-0.644922 0.496093,-0.223242 1.016992,-0.396875 0.520898,-0.198438 1.091406,-0.42168 0.917773,-0.37207 1.810742,-0.37207 1.265039,0 2.282031,0.818555 1.016993,0.79375 1.885157,2.207617 0.818554,0.248047 1.53789,1.463476 0.694531,1.165821 0.694531,2.232422 0,0.818555 -0.446484,1.21543 -0.42168,0.396875 -1.116211,0.396875 -0.322461,0 -0.644922,-0.07441 l -0.620117,-0.124024 q -0.173633,-0.0248 -0.322461,-0.0248 -0.148828,-0.0248 -0.297656,-0.0248 -0.347266,0 -0.620117,0.09922 l -0.09922,0.173633 q 0,0.79375 2.728516,1.389062 2.70371,0.595313 5.382617,1.835547 1.339453,0.620117 2.579687,1.314648 1.265039,0.694532 2.455664,1.488282 1.190625,0.79375 2.778125,1.90996 1.5875,1.116211 3.59668,2.604493 H 47.1041 q 0.892969,0 1.711524,0.124023 0.843359,0.09922 1.612304,0.37207 0.79375,0.248047 1.5875,0.694532 0.79375,0.421679 1.612305,1.091406 l -0.496094,0.620117 q -1.95957,-1.537891 -3.323828,-1.810742 l -0.570508,-0.09922 q -0.570508,-0.09922 -1.339453,-0.09922 0.297656,0.198438 0.595313,0.42168 0.297656,0.223242 0.620117,0.42168 l 2.877343,1.95957 q 0.42168,0.272852 0.818555,0.520898 0.42168,0.248047 0.818555,0.520899 0.74414,0.471289 0.868164,1.5875 v 0.173633 q 0,0.570507 -0.322461,0.942578 -0.297656,0.37207 -0.868164,0.37207 -0.520899,0 -1.016992,-0.248047 L 48.939648,48.96966 q -1.95957,-0.892968 -3.447852,-1.265039 -1.488281,-0.396875 -2.678906,-0.396875 -1.389062,0 -2.554883,0.545703 -1.190625,0.570508 -2.257226,2.356446 -0.248047,0.04961 -0.347266,0.07441 -0.07441,0.0248 -0.124023,0.04961 -0.347266,-0.124023 -0.818555,-0.396875 -0.446484,-0.272852 -0.74414,-0.496094 l -1.339454,2.877344 q 0.322461,0.322461 0.644922,0.396875 0.322461,0.07441 0.570508,0.07441 0.347266,0 0.644922,-0.04961 0.297656,-0.04961 0.744141,-0.04961 0.496093,0 0.917773,0.223243 0.446484,0.223242 0.744141,0.669726 -0.42168,-0.223242 -0.744141,-0.297656 -0.297656,-0.07441 -0.694531,-0.07441 -0.248047,0 -0.446485,0.04961 -0.198437,0.02481 -0.396875,0.07441 -0.198437,0.02481 -0.446484,0.07441 -0.223242,0.0248 -0.545703,0.0248 -0.595313,0 -0.942578,-0.198438 -0.347266,-0.198437 -0.620117,-0.446484 -0.719336,0.148828 -1.413868,0.148828 0.223243,0.124024 0.42168,0.223242 0.198438,0.09922 0.322461,0.198438 0.148828,0.09922 0.272852,0.223242 z m -9.94668,-28.599804 q -0.520898,0.124023 -0.843359,0.297656 l -0.372071,0.248047 q -0.37207,0.297656 -0.37207,0.768945 l 0.148828,0.42168 q 1.190625,0.446484 2.38125,0.818555 1.21543,0.37207 2.480469,0.37207 0.272852,0 0.595312,-0.02481 0.322461,-0.04961 0.669727,-0.09922 0.04961,0.02481 0.124023,0.07442 0.09922,0.0248 0.223243,0.07441 l 0.446484,0.520898 q 0.42168,0.545703 0.570508,0.917773 0.173633,0.347266 0.173633,0.694532 0,0.496093 -0.42168,0.768945 -0.42168,0.272852 -1.16582,0.347266 -0.42168,0 -0.719336,-0.07441 -0.297657,-0.09922 -0.669727,-0.148829 l -0.620117,-0.09922 q -0.173633,0 -0.347266,0 -0.148828,0 -0.322461,-0.02481 -1.066601,0 -2.108398,0.322461 -1.041797,0.347266 -1.041797,1.389062 0,1.141016 1.265039,3.249414 1.240235,2.083594 3.720703,5.010547 2.43086,2.877344 3.547071,4.737695 0,0.09922 0.07441,0.223243 0.09922,0.09922 0.595312,0.37207 0.272852,0.471289 0.496094,0.942578 0.248047,0.471289 0.520898,0.967383 l 1.314649,0.520898 V 46.36516 l 0.79375,-0.496094 v 0.471289 q 0.248047,1.661914 2.654101,3.125391 0.570508,-0.892969 1.190625,-1.463477 0.620117,-0.570507 1.265039,-0.892968 0.669727,-0.347266 1.364258,-0.471289 0.719336,-0.148828 1.463477,-0.148828 2.654101,0 6.374804,1.686718 1.860352,0.84336 2.827734,1.289844 0.967383,0.446484 1.091407,0.496094 0.496093,0 0.620117,-0.42168 0,-1.091406 -0.942578,-1.5875 -0.892969,-0.471289 -2.654102,-1.661914 l -1.488281,-1.016992 q -0.545703,-0.347266 -1.066602,-0.719336 -0.496093,-0.396875 -1.016992,-0.768945 -0.198437,0 -0.421679,0 -0.223243,0 -0.446485,-0.02481 l -0.868164,-0.04961 Q 43.557027,43.686243 41.795894,43.48781 40.92773,43.38859 40.158785,43.289373 39.389839,43.190153 38.695308,43.066131 L 36.438086,42.66927 Q 35.71875,42.545246 35.049023,42.346809 34.379297,42.148371 33.734375,41.949934 L 31.898828,41.329817 29.765625,40.387239 Q 28.798242,39.965559 27.979687,39.469465 27.185937,38.973371 26.491406,38.502082 25.796875,38.030793 25.4,37.757942 25.02793,37.460285 24.928711,37.361067 l 0.496094,-0.620117 q 3.100585,2.306835 5.655468,3.398242 1.314649,0.570507 2.629297,0.992187 1.314648,0.42168 2.703711,0.744141 1.413867,0.322461 2.926953,0.545703 1.537891,0.198437 3.249414,0.322461 1.016992,0.07441 1.637109,0.124023 0.620118,0.02481 0.744141,0.02481 h 0.347266 Q 38.422461,37.85716 35.371484,36.492903 33.858398,35.823176 32.841406,35.451106 31.824414,35.079035 31.32832,34.979817 30.832226,34.880598 30.137695,34.706965 29.443164,34.508528 28.575,34.210871 L 27.830859,33.93802 q -0.719336,-0.248047 -1.116211,-0.620117 -0.37207,-0.372071 -0.37207,-0.942578 0,-0.496094 0.520898,-0.719336 0.545704,-0.248047 1.265039,-0.248047 0.272852,0 0.719336,0.07441 0.471289,0.04961 1.016993,0.04961 0.223242,0 0.421679,-0.148828 0.223242,-0.148828 0.223242,-0.669726 0,-0.84336 -0.545703,-1.785938 -0.545703,-0.967383 -0.967383,-1.016992 -0.396875,-0.02481 -0.942578,-0.917774 -0.545703,-0.868164 -1.314648,-1.513085 -0.744141,-0.669727 -1.661914,-0.669727 -0.09922,0 -0.198438,0 -0.07441,0 -0.198437,0.02481 z m -2.33164,1.612304 q -0.0248,-0.04961 -0.04961,-0.148828 -0.02481,-0.124023 -0.02481,-0.248047 0,-0.198437 0,-0.248046 0.02481,-0.07441 0.04961,-0.124024 l -1.810742,0.496094 z m 13.468945,21.679297 v 0.917773 l -0.545703,0.347266 q -0.496094,-0.198437 -0.868165,-0.322461 -0.37207,-0.124023 -0.644921,-0.248047 -0.272852,-0.148828 -0.471289,-0.297656 -0.198438,-0.148828 -0.347266,-0.42168 l -0.818555,-1.513086 -2.158008,5.233789 q 0.198438,0.272852 0.545704,0.545704 0.37207,0.248046 1.091406,0.248046 0.322461,-0.124023 0.768945,-0.248046 0.471289,-0.148829 0.868164,-0.173633 l 1.463477,-0.04961 q 0.173633,-0.347265 0.446484,-0.892968 0.272852,-0.570508 0.545703,-1.116211 0.297656,-0.644922 0.644922,-1.339453 z M 24.779883,25.529231 q -0.42168,0.322461 -0.669727,0.322461 -0.223242,0 -0.223242,-0.322461 l 0.347266,-0.347266 z"
         style="stroke-width:0.26458332"
         id="path28102"
         inkscape:connector-curvature="0" />
    </g>
  </g>
</svg>
