<?xml version="1.0" encoding="UTF-8" standalone="no"?>
<!-- Created with Inkscape (http://www.inkscape.org/) -->

<svg
   xmlns:dc="http://purl.org/dc/elements/1.1/"
   xmlns:cc="http://creativecommons.org/ns#"
   xmlns:rdf="http://www.w3.org/1999/02/22-rdf-syntax-ns#"
   xmlns:svg="http://www.w3.org/2000/svg"
   xmlns="http://www.w3.org/2000/svg"
   xmlns:sodipodi="http://sodipodi.sourceforge.net/DTD/sodipodi-0.dtd"
   xmlns:inkscape="http://www.inkscape.org/namespaces/inkscape"
   width="37.727928mm"
   height="25.176758mm"
   viewBox="0 0 37.727928 25.176758"
   version="1.1"
   id="svg11510"
   inkscape:version="0.92.4 (5da689c313, 2019-01-14)"
   sodipodi:docname="G37.svg">
  <defs
     id="defs11504" />
  <sodipodi:namedview
     id="base"
     pagecolor="#ffffff"
     bordercolor="#666666"
     borderopacity="1.0"
     inkscape:pageopacity="0.0"
     inkscape:pageshadow="2"
     inkscape:zoom="0.35"
     inkscape:cx="-351.83008"
     inkscape:cy="-316.26047"
     inkscape:document-units="mm"
     inkscape:current-layer="layer1"
     showgrid="false"
     fit-margin-top="0"
     fit-margin-left="0"
     fit-margin-right="0"
     fit-margin-bottom="0"
     inkscape:window-width="1920"
     inkscape:window-height="1017"
     inkscape:window-x="-8"
     inkscape:window-y="-8"
     inkscape:window-maximized="1" />
  <metadata
     id="metadata11507">
    <rdf:RDF>
      <cc:Work
         rdf:about="">
        <dc:format>image/svg+xml</dc:format>
        <dc:type
           rdf:resource="http://purl.org/dc/dcmitype/StillImage" />
        <dc:title></dc:title>
      </cc:Work>
    </rdf:RDF>
  </metadata>
  <g
     inkscape:label="Layer 1"
     inkscape:groupmode="layer"
     id="layer1"
     transform="translate(-5.7758747,-39.979327)">
    <g
       aria-label="𓅪"
       transform="scale(0.26458333)"
       style="font-style:normal;font-variant:normal;font-weight:normal;font-stretch:normal;font-size:192px;line-height:1.25;font-family:sans-serif;-inkscape-font-specification:sans-serif;font-variant-ligatures:normal;font-variant-caps:normal;font-variant-numeric:normal;font-feature-settings:normal;text-align:start;letter-spacing:0px;word-spacing:0px;writing-mode:lr-tb;text-anchor:start;fill:#000000;fill-opacity:1;stroke:none"
       id="flowRoot12055">
      <path
         d="m 55.673828,244.75922 h -27.1875 q -1.21875,0 -1.78125,0.28125 -0.5625,0.28125 -1.3125,1.21875 0,-1.5 0.5625,-3 0.5625,-1.5 2.4375,-1.5 h 30.375 q 1.03125,-2.53125 1.6875,-4.3125 0.75,-1.78125 1.21875,-2.8125 0.46875,-1.21875 0.75,-2.0625 1.03125,-3.1875 1.96875,-6.1875 0.75,-2.53125 1.40625,-5.0625 0.65625,-2.625 0.65625,-4.21875 v -1.03125 q -5.625,-4.5 -11.15625,-10.3125 -5.53125,-5.90625 -9.5625,-11.90625 -4.03125,-6.09375 -7.125,-11.15625 -3,-5.15625 -5.15625,-9.46875 -2.15625,-4.3125 -4.96875,-6.9375 -2.71875,-2.625 -6.1875,-2.625 l -0.46875,-1.03125 7.3125,-3.75 q 3.09375,-3.65625 7.03125,-5.71875 4.03125,-2.0625 8.625,-2.0625 3.375,0 6.28125,0.84375 2.90625,0.75 3.5625,1.875 l 4.6875,6 q 7.03125,9.1875 12.75,11.53125 5.90625,2.34375 15.375,7.59375 9.5625,5.4375 15.375002,10.21875 l 5.34375,4.5 q 4.78125,4.125 9,7.125 4.21875,2.90625 8.15625,4.6875 7.875,3.5625 22.5,6.09375 l 0.1875,2.90625 -13.125,0.9375 1.5,0.65625 q 7.03125,2.71875 14.25,5.8125 7.3125,3 13.21875,6.5625 l 0.5625,1.6875 q -0.46875,2.0625 -3,2.8125 -2.4375,0.75 -5.4375,0.75 -2.4375,0 -4.6875,-0.28125 -2.25,-0.375 -3.5625,-0.75 -0.46875,0.0937 -1.03125,0.1875 -0.5625,0 -1.21875,0 -3.9375,0 -10.5,-2.34375 l -3.5625,-1.3125 q -5.90625,-2.15625 -11.625,-4.3125 -5.625,-2.25 -11.53125,-4.125 l -3.1875,-1.03125 q -3.28125,-1.03125 -7.031252,-1.5 h -1.125 q -1.875,0 -3.84375,0.5625 -1.875,0.46875 -3.65625,1.40625 l -6.5625,3.5625 v 2.8125 l -5.8125,15.1875 h 16.78125 q 1.5,0 2.0625,0.9375 0.5625,0.9375 0.5625,1.5 0,0.28125 -0.1875,0.84375 -0.1875,0.5625 -1.21875,1.21875 0.28125,-0.375 0.28125,-0.75 0,-0.46875 -0.46875,-0.5625 -0.46875,-0.1875 -1.03125,-0.1875 h -28.03125 q -0.1875,0.1875 -0.375,0.46875 -0.1875,0.1875 -0.375,0.5625 -0.09375,0.28125 -0.28125,0.46875 0.1875,-0.5625 0.1875,-0.75 0,-0.75 -1.3125,-0.75 h -6.75 q -0.28125,0.0937 -0.5625,0.28125 -0.1875,0.1875 -0.46875,0.46875 -0.1875,0.28125 -0.1875,0.75 z m 68.625002,-31.96875 q 1.59375,0 3.1875,0 1.6875,-0.0937 3.28125,-0.1875 l 6.46875,-0.28125 q -7.875,-2.0625 -14.8125,-5.15625 -6.84375,-3.1875 -11.34375,-7.21875 l -6.09375,-5.34375 q -4.21875,-3.65625 -9.750002,-7.3125 -5.53125,-3.75 -12,-7.21875 -3.28125,-1.78125 -6.46875,-3.375 -3.09375,-1.59375 -6.28125,-2.90625 -6.28125,-2.8125 -11.25,-9.1875 -2.4375,-3.1875 -4.3125,-5.4375 -1.78125,-2.34375 -3.09375,-3.84375 -1.6875,-0.5625 -3.46875,-0.84375 -1.78125,-0.375 -3.5625,-0.375 -2.71875,0 -5.8125,0.9375 -3.09375,0.9375 -5.53125,3.65625 -2.34375,2.625 -3,2.71875 -0.28125,0.0937 -1.03125,0.375 -0.65625,0.28125 -1.6875,0.84375 4.40625,1.875 7.96875,8.625 1.875,3.375 2.90625,5.25 1.03125,1.875 1.21875,2.25 l 1.875,3.09375 q 3.5625,6 7.875,12.28125 4.40625,6.1875 10.03125,11.8125 2.15625,2.0625 3.1875,3.09375 1.125,1.03125 2.34375,2.0625 l 14.90625,13.125 v -1.21875 l 0.9375,-1.5 q 1.125,-0.65625 2.25,-1.3125 1.03125,-0.5625 2.25,-1.21875 1.21875,-0.75 2.53125,-1.5 4.3125,-2.25 8.90625,-2.25 6.093752,0 23.531252,6.75 17.625,6.9375 24.65625,7.875 0.9375,0 1.40625,-0.0937 0.5625,-0.0937 0.9375,-0.0937 0.1875,0 0.9375,0.1875 0.75,0.1875 1.875,0.375 1.21875,0.1875 2.625,0.375 1.5,0.1875 3,0.1875 1.3125,0 2.4375,-0.0937 1.21875,-0.1875 2.34375,-0.65625 -3.46875,-1.875 -8.0625,-3.9375 -4.59375,-2.15625 -10.3125,-4.5 -11.4375,-4.59375 -14.34375,-5.625 h -6.84375 q -4.875,-0.28125 -12.28125,-1.3125 -7.3125,-1.03125 -15.468752,-2.90625 -8.15625,-1.875 -16.3125,-4.6875 -8.0625,-2.8125 -14.625,-6.5625 -6.46875,-3.84375 -10.59375,-8.625 -4.03125,-4.875 -4.03125,-10.875 0,-3.28125 1.3125,-4.6875 1.40625,-1.40625 3.65625,-1.40625 1.5,0 2.71875,-0.1875 1.21875,-0.1875 2.25,-0.375 1.03125,-0.28125 2.0625,-0.46875 l 0.75,2.8125 q -1.3125,0.375 -2.8125,0.75 -1.3125,0.28125 -2.8125,0.5625 -1.5,0.1875 -2.8125,0.1875 -0.75,0 -1.03125,0.65625 -0.28125,0.65625 -0.28125,1.125 0,4.40625 2.15625,8.0625 2.25,3.5625 6,6.5625 3.75,3 8.8125,5.4375 5.0625,2.4375 10.78125,4.5 3.84375,1.40625 9.28125,2.90625 5.4375,1.40625 11.34375,2.625 5.906252,1.125 11.718752,1.96875 5.90625,0.75 10.6875,0.75 z m -50.437502,28.96875 5.34375,-14.34375 q -1.96875,-1.6875 -3.65625,-3.28125 -1.5,-1.3125 -3.09375,-2.71875 -1.5,-1.40625 -2.4375,-2.25 -2.0625,5.15625 -4.21875,11.25 -2.15625,6 -3.9375,11.34375 z m -28.78125,-81.65625 q -1.59375,1.59375 -3.5625,2.4375 -1.03125,0 -1.03125,-1.875 0,-1.40625 1.3125,-2.15625 1.125,0 3.28125,1.59375 z"
         id="path12063"
         inkscape:connector-curvature="0" />
    </g>
  </g>
</svg>
