<?xml version="1.0" encoding="UTF-8" standalone="no"?>
<!-- Created with Inkscape (http://www.inkscape.org/) -->

<svg
   xmlns:dc="http://purl.org/dc/elements/1.1/"
   xmlns:cc="http://creativecommons.org/ns#"
   xmlns:rdf="http://www.w3.org/1999/02/22-rdf-syntax-ns#"
   xmlns:svg="http://www.w3.org/2000/svg"
   xmlns="http://www.w3.org/2000/svg"
   xmlns:sodipodi="http://sodipodi.sourceforge.net/DTD/sodipodi-0.dtd"
   xmlns:inkscape="http://www.inkscape.org/namespaces/inkscape"
   width="37.777538mm"
   height="20.761526mm"
   viewBox="0 0 37.777538 20.761526"
   version="1.1"
   id="svg5082"
   inkscape:version="0.92.4 (5da689c313, 2019-01-14)"
   sodipodi:docname="G37A.svg">
  <defs
     id="defs5076" />
  <sodipodi:namedview
     id="base"
     pagecolor="#ffffff"
     bordercolor="#666666"
     borderopacity="1.0"
     inkscape:pageopacity="0.0"
     inkscape:pageshadow="2"
     inkscape:zoom="0.35"
     inkscape:cx="-426.11607"
     inkscape:cy="-342.85713"
     inkscape:document-units="mm"
     inkscape:current-layer="layer1"
     showgrid="false"
     fit-margin-top="0"
     fit-margin-left="0"
     fit-margin-right="0"
     fit-margin-bottom="0"
     inkscape:window-width="1920"
     inkscape:window-height="1017"
     inkscape:window-x="-8"
     inkscape:window-y="-8"
     inkscape:window-maximized="1" />
  <metadata
     id="metadata5079">
    <rdf:RDF>
      <cc:Work
         rdf:about="">
        <dc:format>image/svg+xml</dc:format>
        <dc:type
           rdf:resource="http://purl.org/dc/dcmitype/StillImage" />
        <dc:title></dc:title>
      </cc:Work>
    </rdf:RDF>
  </metadata>
  <g
     inkscape:label="Layer 1"
     inkscape:groupmode="layer"
     id="layer1"
     transform="translate(-25.430711,-37.357523)">
    <g
       aria-label="𓅫"
       style="font-style:normal;font-variant:normal;font-weight:normal;font-stretch:normal;font-size:50.79999924px;line-height:1.25;font-family:sans-serif;-inkscape-font-specification:sans-serif;font-variant-ligatures:normal;font-variant-caps:normal;font-variant-numeric:normal;font-feature-settings:normal;text-align:start;letter-spacing:0px;word-spacing:0px;writing-mode:lr-tb;text-anchor:start;fill:#000000;fill-opacity:1;stroke:none;stroke-width:0.26458332"
       id="text5629">
      <path
         d="M 36.518407,58.119045 V 57.72217 h -6.920508 q -0.07441,0.02481 -0.297656,0.07441 -0.198438,0.04961 -0.37207,0.322461 0,-0.496093 0.173632,-0.843359 0.198438,-0.347266 0.595313,-0.347266 h 7.590234 l 1.339453,-3.770312 q -1.637109,-0.942578 -3.224609,-2.306836 -1.5875,-1.364258 -2.976563,-2.976563 -1.389062,-1.612304 -2.108398,-2.455664 -0.719336,-0.843359 -0.818555,-0.967382 l -0.768945,-0.84336 q -0.347266,-0.396875 -0.967383,-1.116211 -0.322461,-0.37207 -0.768945,-0.669726 -0.446484,-0.322461 -1.016992,-0.322461 -0.04961,0 -0.148828,0.02481 -0.07441,0 -0.148828,0 h -0.198438 l -0.04961,-0.297657 1.562695,-1.190625 q 0.868164,-1.488281 1.909961,-2.083593 1.066601,-0.595313 2.480469,-0.595313 0.992187,0 1.661914,0.396875 0.694531,0.396875 1.289843,0.917774 l 1.265039,1.16582 q 1.190625,1.116211 3.398243,1.612305 2.133203,0.446484 4.960937,1.612304 2.827734,1.16582 4.663281,2.38125 1.885156,1.265039 4.167188,1.860352 2.282031,0.595312 4.613671,0.595312 0.173633,0 0.322461,0 0.173633,0 0.347266,-0.02481 l 0.669727,-0.0248 0.79375,-0.198438 -0.669727,0.992188 -1.885156,0.471289 q 0.768945,0.124023 1.438672,0.297656 l 1.438671,0.322461 q 0.719336,0.173633 1.438672,0.297656 0.744141,0.09922 1.488282,0.09922 l 0.421679,0.396875 q -0.07441,1.190625 -0.942578,1.785937 -0.843359,0.595313 -2.703711,0.595313 -0.198437,0 -0.471289,0 -0.272851,-0.02481 -0.992187,-0.07441 -1.785938,-0.124024 -3.497461,-0.42168 -1.686719,-0.322461 -3.472656,-0.421679 h -0.347266 q -0.818555,0 -1.661914,0.198437 -0.843359,0.198438 -1.885156,0.42168 -1.785938,0.37207 -2.728516,0.644922 -0.917773,0.272851 -1.339453,0.446484 l -1.240234,3.224609 h 4.365625 l 0.272851,0.595313 -0.07441,0.272851 -0.471289,0.322461 0.198438,-0.297656 -0.198438,-0.09922 H 39.32134 l -0.520899,0.396875 q 0.04961,-0.148828 0.04961,-0.173633 0,-0.223242 -0.297656,-0.223242 h -1.711523 q -0.04961,0 -0.198438,0.07441 -0.124023,0.07441 -0.124023,0.322461 z M 56.709422,48.61885 Q 55.69243,48.544436 54.601024,48.370803 53.534422,48.19717 52.492625,47.949124 51.450829,47.676272 50.50825,47.329006 49.590477,46.956936 48.895946,46.510452 47.482079,45.592678 46.068211,44.898147 44.679149,44.178811 43.265282,43.633108 41.851415,43.087405 40.586376,42.69053 39.346141,42.293655 38.22993,42.045608 q -2.232422,-0.496094 -3.844726,-2.207617 -1.612305,-1.711524 -3.026172,-1.711524 -1.16582,0 -2.083594,0.595313 -0.942578,0.595312 -1.265039,1.21543 -0.347265,0.620117 -1.141015,1.091406 0.570507,0.148828 0.992187,0.496094 0.42168,0.347265 0.917773,0.868164 l 2.530079,3.001367 q 1.265039,1.488281 2.33164,2.629297 1.066602,1.141015 1.934766,1.909961 1.761133,1.513085 3.54707,2.530078 l 1.265039,-0.868164 0.496094,-0.02481 q 0.496094,0.322461 0.992187,0.644922 0.520899,0.297656 1.041797,0.644922 l 4.191992,-1.041797 q 1.463477,-0.347266 2.406055,-0.496094 0.967383,-0.148828 1.785937,-0.148828 0.768946,0 1.736329,0.124023 0.992187,0.124024 2.257226,0.372071 2.430859,0.471289 4.167187,0.471289 2.579688,0 2.902149,-1.21543 -0.719336,0 -1.413867,-0.09922 -0.669727,-0.124023 -1.339453,-0.297656 l -1.364258,-0.347266 q -0.644922,-0.148828 -1.289844,-0.272851 -0.644922,-0.124024 -1.289844,-0.124024 -0.198437,0 -0.421679,0 -0.198438,0 -0.396875,0.02481 l -0.79375,0.04961 q -1.711524,0.198438 -3.125391,0.297657 -1.389062,0.07441 -2.728515,0.07441 -0.347266,0 -0.669727,0 -0.322461,-0.02481 -0.917773,-0.02481 -2.80293,0 -5.010547,-0.223242 -2.207617,-0.223242 -4.142383,-0.868164 -0.942578,-0.322461 -1.885156,-0.768945 -0.917774,-0.446485 -1.63711,-1.091407 -0.570507,-0.520898 -0.967382,-1.240234 -0.372071,-0.744141 -0.372071,-1.438672 0,-0.570508 0.272852,-0.942578 0.297656,-0.396875 0.545703,-0.520898 0.471289,-0.198438 0.79375,-0.322461 0.347266,-0.148829 0.545703,-0.223243 0.248047,-0.09922 0.37207,-0.148828 l 0.644922,0.545703 q -0.04961,0.04961 -0.148828,0.09922 l -0.396875,0.198438 q -0.148828,0.04961 -0.471289,0.148828 -0.297656,0.07441 -0.620117,0.223242 -0.297656,0.124023 -0.545703,0.347266 -0.223242,0.223242 -0.223242,0.545703 0,0.719336 0.37207,1.339453 0.396875,0.620117 1.066601,1.141015 0.669727,0.520899 1.562696,0.917774 0.892968,0.396875 1.885156,0.644922 1.934766,0.496093 4.266406,0.669726 2.356445,0.148828 4.688086,0.148828 0.992188,0 1.835547,0 0.843359,-0.0248 1.612305,-0.04961 0.79375,-0.04961 1.5875,-0.09922 0.79375,-0.07441 1.711523,-0.173633 0.347266,-0.04961 0.818555,-0.09922 0.471289,-0.07441 0.892968,-0.148828 0.496094,-0.09922 1.041797,-0.198438 z m -15.626953,8.30957 1.314649,-3.398242 -1.711524,-1.141015 -1.364257,1.091406 -1.21543,3.447851 z M 30.168407,39.391506 q 0.545703,0.07442 0.868164,0.248047 -0.322461,0.446485 -0.768945,0.744141 L 29.92036,39.986819 V 39.8876 q 0,-0.322461 0.248047,-0.496094 z"
         style="stroke-width:0.26458332"
         id="path5631"
         inkscape:connector-curvature="0" />
    </g>
  </g>
</svg>
