<?xml version="1.0" encoding="UTF-8" standalone="no"?>
<!-- Created with Inkscape (http://www.inkscape.org/) -->

<svg
   xmlns:dc="http://purl.org/dc/elements/1.1/"
   xmlns:cc="http://creativecommons.org/ns#"
   xmlns:rdf="http://www.w3.org/1999/02/22-rdf-syntax-ns#"
   xmlns:svg="http://www.w3.org/2000/svg"
   xmlns="http://www.w3.org/2000/svg"
   xmlns:sodipodi="http://sodipodi.sourceforge.net/DTD/sodipodi-0.dtd"
   xmlns:inkscape="http://www.inkscape.org/namespaces/inkscape"
   width="38.075195mm"
   height="38.100014mm"
   viewBox="0 0 38.075195 38.100014"
   version="1.1"
   id="svg28673"
   inkscape:version="0.92.4 (5da689c313, 2019-01-14)"
   sodipodi:docname="G39.svg">
  <defs
     id="defs28667" />
  <sodipodi:namedview
     id="base"
     pagecolor="#ffffff"
     bordercolor="#666666"
     borderopacity="1.0"
     inkscape:pageopacity="0.0"
     inkscape:pageshadow="2"
     inkscape:zoom="0.35"
     inkscape:cx="-371.83008"
     inkscape:cy="-367.69021"
     inkscape:document-units="mm"
     inkscape:current-layer="layer1"
     showgrid="false"
     fit-margin-top="0"
     fit-margin-left="0"
     fit-margin-right="0"
     fit-margin-bottom="0"
     inkscape:window-width="1920"
     inkscape:window-height="1017"
     inkscape:window-x="-8"
     inkscape:window-y="-8"
     inkscape:window-maximized="1" />
  <metadata
     id="metadata28670">
    <rdf:RDF>
      <cc:Work
         rdf:about="">
        <dc:format>image/svg+xml</dc:format>
        <dc:type
           rdf:resource="http://purl.org/dc/dcmitype/StillImage" />
        <dc:title></dc:title>
      </cc:Work>
    </rdf:RDF>
  </metadata>
  <g
     inkscape:label="Layer 1"
     inkscape:groupmode="layer"
     id="layer1"
     transform="translate(-11.067541,-13.44862)">
    <g
       aria-label="𓅭"
       transform="scale(0.26458333)"
       style="font-style:normal;font-variant:normal;font-weight:normal;font-stretch:normal;font-size:192px;line-height:1.25;font-family:sans-serif;-inkscape-font-specification:'sans-serif, Normal';font-variant-ligatures:normal;font-variant-caps:normal;font-variant-numeric:normal;font-feature-settings:normal;text-align:start;letter-spacing:0px;word-spacing:0px;writing-mode:lr-tb;text-anchor:start;fill:#000000;fill-opacity:1;stroke:none"
       id="flowRoot29218">
      <path
         d="m 175.42383,153.39203 q -1.03125,0 -2.25,0 -1.21875,0 -3.09375,0 -1.78125,0 -4.5,0.0937 -2.71875,0 -6.9375,0 5.625,5.34375 12.5625,8.90625 7.03125,3.46875 14.53125,6.65625 l -0.84375,3 q -2.625,-0.9375 -12.28125,-2.25 -4.78125,-0.65625 -8.90625,-1.03125 -4.03125,-0.375 -7.59375,-0.46875 -6.75,-0.0937 -12.65625,-2.4375 -1.96875,1.3125 -4.21875,1.875 -2.25,0.46875 -4.59375,0.46875 -1.03125,0 -3,-0.1875 -1.96875,-0.28125 -3.28125,-0.46875 0.1875,2.25 0.5625,4.40625 0.46875,2.15625 0.65625,4.59375 l -1.5,15.46875 q 1.125,0 2.0625,0.375 0.9375,0.28125 1.6875,1.21875 -1.21875,0.75 -2.53125,1.03125 -1.3125,0.1875 -2.90625,0.1875 h -18.375 q -1.03125,-0.75 -2.625,-1.5 -1.59375,-0.75 -4.125,-0.75 -1.125,0 -2.250002,0.375 -1.03125,0.375 -1.96875,1.3125 l -1.3125,-0.5625 q -0.84375,0.46875 -2.15625,0.65625 -1.3125,0.1875 -2.90625,0.375 -1.5,0.0937 -3.28125,0.0937 -1.6875,0 -3.375,0 h -11.15625 q -0.46875,-0.46875 -2.25,-1.21875 -1.78125,-0.75 -4.125,-0.75 -1.21875,0 -2.8125,0.5625 -1.59375,0.46875 -2.34375,1.40625 h -0.65625 q 0,-4.3125 5.53125,-4.3125 4.03125,0 6.75,1.59375 h 16.96875 l 5.90625,-14.0625 q 0,-2.4375 0.46875,-4.875 0.5625,-2.4375 0.5625,-4.6875 0,-1.59375 -1.21875,-3.09375 -1.21875,-1.59375 -2.34375,-3.09375 -5.90625,-3.375 -11.15625,-7.96875 -5.15625,-4.59375 -9.9375,-9.46875 l -5.71875,-6.46875 q -3,-3.1875 -5.625,-6.75 l -3.1875,-4.40625 q -2.34375,-3.1875 -3.65625,-6.5625 -1.3125,-3.375 -1.3125,-6 0,-5.0625 3.46875,-11.0625 1.78125,-3 3.75,-5.8125 2.0625,-2.8125 4.5,-5.34375 l 10.40625,-11.25 q 0.5625,-0.65625 1.40625,-1.6875 0.84375,-1.03125 1.59375,-2.15625 0.84375,-1.21875 1.40625,-2.25 0.5625,-1.125 0.65625,-1.96875 0,-0.9375 -2.25,-0.9375 h -0.9375 q -3.28125,0 -9.65625,-2.34375 -6.5625,-2.4375 -15.9375,-2.4375 -3.09375,0 -5.53125,0.09375 -2.4375,0.09375 -3.375,0.09375 l -0.375,-2.4375 q 1.40625,-0.5625 3.375,-1.3125 1.6875,-0.65625 4.125,-1.5 2.53125,-0.9375 5.90625,-2.0625 10.59375,-9.46875 19.125,-9.46875 6.1875,0 10.21875,5.15625 3.9375,5.0625 3.9375,11.625 0,3.9375 -1.78125,8.15625 -1.78125,4.125 -4.875,8.34375 l -3.65625,4.875 q -0.1875,0.1875 -1.03125,1.21875 -0.75,1.03125 -2.34375,2.90625 -3,3.75 -3,6.5625 0,1.125 0.375,2.25 0.46875,1.125 1.59375,2.0625 1.125,0.9375 3.09375,1.59375 1.96875,0.65625 5.0625,0.9375 l 2.8125,0.28125 q 13.875,1.3125 21.375002,3.9375 3.75,1.3125 7.5,3.28125 3.84375,1.875 7.78125,4.40625 3.9375,2.53125 8.4375,5.8125 4.5,3.28125 9.65625,7.40625 10.3125,8.25 18.9375,12.9375 8.625,4.6875 17.15625,5.90625 h 3.1875 z M 83.455078,120.29828 v 0.0937 q -0.28125,0.65625 -1.21875,2.8125 -0.9375,2.15625 -0.9375,6.09375 0.09375,0.75 0.46875,1.6875 0.46875,0.9375 1.125,1.875 0.65625,0.9375 1.40625,1.6875 0.75,0.75 1.5,1.21875 5.34375,3.65625 13.40625,6.375 8.156252,2.71875 19.031252,4.6875 12.9375,2.34375 22.5,3.09375 9.5625,0.65625 15.375,0.65625 1.875,0 3.375,0 1.5,0 2.53125,-0.0937 1.125,-0.0937 1.96875,-0.1875 -4.875,-1.78125 -11.71875,-6 -6.75,-4.21875 -14.625,-10.40625 -7.875,-6.28125 -14.15625,-10.59375 -6.28125,-4.3125 -11.15625,-6.75 -4.875,-2.4375 -11.8125,-4.21875 -6.937502,-1.78125 -16.218752,-2.71875 l -3.9375,-0.375 q -5.90625,-0.65625 -8.8125,-3.28125 -2.8125,-2.71875 -2.8125,-6 0,-4.6875 8.34375,-14.4375 8.4375,-9.65625 8.4375,-18.46875 0,-5.53125 -3.46875,-9.28125 -3.375,-3.84375 -8.625,-3.84375 -4.78125,0 -9.46875,3.1875 -4.6875,3 -5.4375,4.40625 -0.46875,0.9375 -4.21875,1.875 l -5.53125,1.40625 q 2.25,0 4.78125,0.1875 2.625,0.09375 5.15625,0.375 2.53125,0.28125 4.875,0.75 2.34375,0.375 4.125,0.9375 7.03125,2.34375 10.6875,2.34375 1.875,0 3.09375,1.03125 1.3125,0.9375 1.3125,2.71875 0,1.96875 -1.59375,4.59375 -1.5,2.53125 -3.84375,5.15625 l -7.6875,8.53125 q -3.5625,3.9375 -6.1875,7.125 -2.625,3.1875 -4.40625,5.90625 -1.6875,2.71875 -2.53125,5.25 -0.84375,2.53125 -0.84375,5.0625 0,8.15625 15,24 7.5,7.96875 12.75,12.75 5.34375,4.6875 8.53125,6.5625 1.78125,1.03125 2.90625,1.875 1.125,0.75 2.15625,1.5 1.03125,0.65625 2.15625,1.40625 1.125002,0.65625 2.812502,1.5 1.59375,0.46875 3.09375,0.84375 1.5,0.375 3.09375,0.5625 1.125,0.0937 2.0625,0.0937 0.9375,0 1.875,0 3.28125,0 5.34375,-0.1875 2.0625,-0.28125 4.03125,-0.46875 0.1875,0.0937 0.46875,0.28125 0.375,0.0937 0.84375,0.28125 l 3.75,0.28125 1.875,-1.6875 q 2.71875,0.9375 6.1875,0.9375 1.78125,0 3.46875,-0.375 1.78125,-0.375 3.28125,-1.21875 l -0.9375,-1.78125 2.71875,-1.21875 1.21875,2.34375 q 2.53125,1.03125 5.53125,1.6875 3.09375,0.5625 6.65625,0.65625 3.5625,0.0937 7.78125,0.46875 4.3125,0.375 9.1875,1.03125 -5.34375,-2.625 -10.21875,-5.8125 -4.875,-3.1875 -8.90625,-7.5 l -5.34375,-0.1875 q -6.75,-0.1875 -13.40625,-0.9375 -6.5625,-0.75 -12.5625,-1.6875 -5.90625,-1.03125 -11.15625,-2.15625 -5.15625,-1.125 -9.09375,-2.15625 -4.875002,-1.21875 -9.093752,-3.09375 -4.21875,-1.875 -7.96875,-4.3125 -7.5,-4.96875 -7.5,-9.375 v -1.78125 q 0,-1.6875 0.375,-3.28125 0.375,-1.59375 1.125,-3.46875 l 0.9375,-2.0625 z m 12.46875,72.84375 q 1.03125,-2.0625 2.625,-2.53125 1.593752,-0.46875 3.468752,-0.46875 1.875,0 3.28125,0.46875 1.40625,0.46875 2.90625,1.5 h 17.0625 l 1.5,-15.5625 q -0.84375,-2.25 -1.875,-4.5 -0.9375,-2.25 -2.25,-3.9375 -1.96875,0.28125 -4.78125,0.5625 -2.8125,0.1875 -4.6875,0.1875 -2.71875,0 -5.71875,-0.28125 -3,-0.375 -6.28125,-1.40625 -0.28125,1.3125 -0.5625,2.4375 -0.28125,1.03125 -0.5625,2.25 -0.187502,1.21875 -0.468752,2.71875 -0.28125,1.5 -0.5625,3.5625 -0.375,0.75 -1.40625,3 -1.03125,2.25 -2.0625,4.6875 -1.21875,2.90625 -2.71875,6.28125 0.65625,0 1.125,0.1875 0.5625,0.1875 1.03125,0.375 z m -27.75,-132.5625 q 0.65625,0.375 1.21875,0.84375 0.65625,0.375 1.125,1.03125 l -2.34375,1.59375 -1.3125,-1.59375 z"
         id="path29226"
         inkscape:connector-curvature="0" />
    </g>
  </g>
</svg>
