<?xml version="1.0" encoding="UTF-8" standalone="no"?>
<!-- Created with Inkscape (http://www.inkscape.org/) -->

<svg
   xmlns:dc="http://purl.org/dc/elements/1.1/"
   xmlns:cc="http://creativecommons.org/ns#"
   xmlns:rdf="http://www.w3.org/1999/02/22-rdf-syntax-ns#"
   xmlns:svg="http://www.w3.org/2000/svg"
   xmlns="http://www.w3.org/2000/svg"
   xmlns:sodipodi="http://sodipodi.sourceforge.net/DTD/sodipodi-0.dtd"
   xmlns:inkscape="http://www.inkscape.org/namespaces/inkscape"
   width="38.000778mm"
   height="35.64431mm"
   viewBox="0 0 38.000778 35.64431"
   version="1.1"
   id="svg12072"
   inkscape:version="0.92.4 (5da689c313, 2019-01-14)"
   sodipodi:docname="G40.svg">
  <defs
     id="defs12066" />
  <sodipodi:namedview
     id="base"
     pagecolor="#ffffff"
     bordercolor="#666666"
     borderopacity="1.0"
     inkscape:pageopacity="0.0"
     inkscape:pageshadow="2"
     inkscape:zoom="0.35"
     inkscape:cx="-346.11523"
     inkscape:cy="-333.12175"
     inkscape:document-units="mm"
     inkscape:current-layer="layer1"
     showgrid="false"
     fit-margin-top="0"
     fit-margin-left="0"
     fit-margin-right="0"
     fit-margin-bottom="0"
     inkscape:window-width="1920"
     inkscape:window-height="1017"
     inkscape:window-x="-8"
     inkscape:window-y="-8"
     inkscape:window-maximized="1" />
  <metadata
     id="metadata12069">
    <rdf:RDF>
      <cc:Work
         rdf:about="">
        <dc:format>image/svg+xml</dc:format>
        <dc:type
           rdf:resource="http://purl.org/dc/dcmitype/StillImage" />
        <dc:title></dc:title>
      </cc:Work>
    </rdf:RDF>
  </metadata>
  <g
     inkscape:label="Layer 1"
     inkscape:groupmode="layer"
     id="layer1"
     transform="translate(-4.2638223,-25.050562)">
    <g
       aria-label="𓅮"
       transform="scale(0.26458333)"
       style="font-style:normal;font-variant:normal;font-weight:normal;font-stretch:normal;font-size:192px;line-height:1.25;font-family:sans-serif;-inkscape-font-specification:sans-serif;font-variant-ligatures:normal;font-variant-caps:normal;font-variant-numeric:normal;font-feature-settings:normal;text-align:start;letter-spacing:0px;word-spacing:0px;writing-mode:lr-tb;text-anchor:start;fill:#000000;fill-opacity:1;stroke:none"
       id="flowRoot12617">
      <path
         d="m 128.05273,210.64789 v -15.1875 l -14.4375,-4.78125 q -0.46875,1.59375 -1.03125,2.8125 -0.46875,1.21875 -1.5,2.53125 l -6.1875,16.6875 q 1.03125,1.59375 1.21875,3.65625 0.1875,1.96875 0.1875,3.46875 l -0.65625,-0.0937 q 0,-0.75 -0.28125,-2.0625 -0.28125,-1.40625 -2.15625,-2.34375 -1.875,1.5 -3.281246,3.75 -1.40625,2.25 -1.78125,3.46875 -0.75,2.53125 -0.75,6.5625 l -0.84375,0.28125 q -0.28125,-1.125 -0.375,-2.25 -0.09375,-1.125 -0.09375,-2.15625 0,-3.9375 1.40625,-7.03125 1.40625,-3.09375 4.593746,-5.34375 l 6,-16.6875 0.84375,-7.21875 q -0.28125,-0.0937 -0.84375,-0.28125 -0.46875,-0.28125 -1.03125,-0.5625 -0.5625,-0.28125 -1.125,-0.46875 -0.46875,-0.28125 -0.65625,-0.375 l -3.1875,-1.21875 q -0.75,2.4375 -1.78125,4.5 -1.031246,2.0625 -2.906246,3.9375 l -6.28125,16.6875 q 1.03125,1.40625 1.21875,3.375 0.28125,1.96875 0.28125,3.5625 l -0.65625,-0.0937 q 0,-0.375 -0.375,-1.6875 -0.375,-1.40625 -2.15625,-2.53125 -3.28125,2.4375 -4.59375,5.4375 -1.21875,3 -1.21875,8.4375 l -0.75,-0.0937 q -0.28125,-1.125 -0.375,-2.25 -0.09375,-1.125 -0.09375,-2.25 0,-3.9375 1.40625,-6.84375 1.5,-2.90625 4.5,-5.34375 l 6.65625,-17.53125 q 0,-2.0625 0.28125,-3.375 0.28125,-1.40625 0.75,-2.4375 0.46875,-1.125 0.9375,-2.15625 0.5625,-1.125 1.125,-2.53125 -3.375,-2.15625 -7.3125,-5.0625 -3.84375,-2.90625 -6.75,-5.625 -3.84375,1.6875 -7.40625,4.03125 -3.46875,2.34375 -6.65625,5.0625 -3.09375,2.625 -5.8125,5.625 -2.71875,2.90625 -4.78125,5.8125 -4.125,5.71875 -4.3125,6.375 -0.1875,0.65625 -1.21875,2.53125 l -1.03125,1.96875 q -0.46875,0.84375 -1.125,1.5 -0.65625,0.65625 -2.90625,2.25 -5.34375,3.75 -8.8125,6 -3.375,2.15625 -6,3.5625 -3.09375,1.6875 -4.78125,2.4375 -1.6875,0.65625 -3.375,1.3125 -3.09375,1.21875 -4.03125,1.21875 -1.125,0 -2.15625,-0.46875 -0.9375,-0.46875 -1.78125,-1.21875 -0.75,-0.84375 -1.21875,-1.78125 -0.46875,-0.9375 -0.46875,-1.875 0,-1.3125 6.9375,-15.9375 3.5625,-7.3125 5.4375,-11.34375 1.96875,-4.03125 2.4375,-4.78125 0.84375,-1.5 7.78125,-9.75 3.46875,-4.21875 6.9375,-7.78125 3.46875,-3.5625 7.03125,-6.65625 7.03125,-6.1875 11.53125,-9.84375 -1.5,-3.65625 -4.5,-14.25 -3,-10.40625 -6.75,-16.03125 -3.375,-2.0625 -6.84375,-3.375 -3.46875,-1.3125 -7.40625,-2.34375 l -21.09375,1.5 -0.46875,-2.90625 9,-5.0625 q 10.21875,-5.71875 11.0625,-7.125 0.9375,-1.5 3.375,-2.90625 2.53125,-1.5 6.46875,-1.5 3.9375,0 7.5,1.78125 3.65625,1.6875 5.53125,4.96875 l 11.34375,20.34375 q 1.21875,2.15625 2.8125,3.9375 1.59375,1.78125 3.46875,3 1.96875,1.21875 3.1875,1.6875 1.21875,0.375 2.53125,0.375 1.21875,0 3,-0.46875 1.78125,-0.46875 3.65625,-1.03125 3.84375,-1.21875 8.53125,-3.9375 2.343746,-1.40625 4.218746,-2.71875 1.96875,-1.3125 3.5625,-2.53125 1.40625,-1.03125 3.5625,-2.71875 2.15625,-1.78125 5.15625,-4.21875 1.78125,-1.40625 3.65625,-2.90625 1.96875,-1.59375 3.75,-3 1.78125,-1.40625 3.1875,-2.34375 1.5,-1.03125 2.25,-1.3125 1.5,-0.5625 1.875,-0.65625 0.46875,-0.1875 1.125,-0.375 0.65625,-0.28125 2.0625,-0.75 1.40625,-0.5625 4.875,-1.875 4.3125,-1.59375 9.1875,-3.28125 4.96875,-1.6875 10.6875,-3.46875 l 1.96875,1.875 q -3,10.03125 -7.96875,18.9375 -4.875,8.90625 -6.65625,9.375 -0.75,0.1875 -4.3125,2.0625 -3.5625,1.78125 -9.84375,5.34375 -12.46875,7.03125 -15,15.28125 1.875,8.0625 9,19.875 7.40625,11.90625 8.90625,20.8125 2.0625,-0.1875 3.9375,-0.28125 1.875,-0.1875 3.75,-0.375 l 7.59375,-0.75 1.59375,1.5 0.1875,1.5 v 1.5 q 0,3.5625 -1.40625,7.5 -1.3125,3.9375 -3.1875,6.75 l 12.5625,13.96875 -0.75,0.75 -13.5,-12.65625 q -3.375,2.625 -6.28125,3.84375 -2.90625,1.21875 -6,1.21875 -1.40625,0 -2.90625,-0.28125 z m -13.96875,-23.0625 15.28125,4.96875 q 0.5625,-0.65625 0.9375,-1.3125 0.46875,-0.65625 0.84375,-1.6875 -0.65625,-2.4375 -1.21875,-4.6875 -0.5625,-2.34375 -1.125,-4.03125 -2.0625,-5.0625 -4.96875,-9.5625 -2.8125,-4.59375 -5.25,-9.28125 l -1.875,-3.5625 q -1.6875,-3.1875 -2.625,-6.09375 -0.9375,-2.90625 -0.9375,-4.6875 0,-4.21875 5.25,-9.75 5.53125,-5.625 14.0625,-9.9375 l 11.25,-5.8125 q 4.03125,-5.625 7.03125,-11.4375 3.09375,-5.90625 5.34375,-12.375 -3.75,1.21875 -7.40625,2.4375 -3.5625,1.21875 -7.125,2.53125 -3.5625,1.3125 -6.28125,2.25 -2.71875,0.9375 -4.59375,1.59375 -3.65625,1.21875 -12.84375,9 -9.1875,7.78125 -13.5,10.6875 -2.15625,1.5 -4.499996,2.8125 -2.25,1.3125 -4.59375,2.53125 -5.625,2.90625 -12.1875,3.1875 -0.46875,0 -1.21875,-0.0937 -0.65625,-0.1875 -2.53125,-0.84375 -6.5625,-2.25 -11.0625,-10.875 -2.34375,-4.40625 -4.59375,-8.53125 -2.25,-4.125 -4.59375,-8.0625 -4.5,-7.875 -12.5625,-7.875 -3.75,0 -5.8125,2.25 -1.96875,2.15625 -3.28125,3.09375 v 0.1875 q 0.375,2.0625 0.9375,3.5625 0.65625,1.40625 1.5,3.09375 0.75,0.0937 1.59375,0.375 0.9375,0.1875 1.96875,0.5625 l 4.78125,1.875 q 5.8125,2.4375 6.9375,3.65625 1.21875,1.3125 3.09375,5.15625 1.03125,1.96875 2.15625,5.34375 1.21875,3.28125 2.53125,8.0625 1.3125,4.78125 2.25,7.78125 1.03125,3 1.59375,4.5 1.3125,2.90625 6.1875,8.625 2.4375,2.90625 5.25,5.625 2.8125,2.625 5.90625,5.25 1.3125,1.59375 3.5625,3.5625 2.25,1.875 4.875,3.84375 2.0625,1.59375 4.03125,3.09375 1.96875,1.40625 3.562496,2.4375 1.78125,1.3125 3.5625,2.34375 z M 78.177734,166.67914 q -3.46875,-3.28125 -6.65625,-6.65625 -3.1875,-3.375 -5.8125,-7.3125 -6.75,5.4375 -12.9375,11.15625 -6.09375,5.71875 -11.71875,12.46875 l -4.5,5.34375 q -3.5625,4.21875 -8.15625,14.25 -2.34375,5.15625 -4.59375,10.125 -2.25,4.875 -4.59375,9.75 0,2.71875 2.8125,2.71875 7.875,-2.53125 14.53125,-6.75 6.75,-4.21875 13.21875,-9.28125 4.78125,-10.5 13.03125,-18.9375 8.34375,-8.4375 18.75,-13.78125 z m 55.968746,24.5625 q 0.84375,1.03125 2.15625,2.625 1.40625,1.59375 2.8125,3.375 1.5,1.6875 2.90625,3.28125 1.40625,1.59375 2.34375,2.71875 1.40625,-2.34375 2.4375,-5.71875 1.125,-3.375 1.125,-6.28125 v -1.3125 z m -3.09375,18.375 h 1.125 q 2.53125,0 5.0625,-0.9375 2.53125,-0.9375 5.25,-3.09375 l -11.4375,-10.125 z m -94.687496,-98.625 q -0.46875,-1.21875 -1.03125,-2.34375 -0.46875,-1.21875 -0.75,-2.4375 -1.3125,0.75 -2.625,1.5 -1.3125,0.75 -2.625,1.5 l -5.25,3 12.46875,-0.9375 z m 6.65625,-6.75 q 0,-1.59375 1.03125,-1.59375 0.75,0 2.34375,1.03125 l -1.21875,1.96875 q -0.28125,0 -0.65625,0 -0.28125,0 -0.65625,-0.0937 -0.84375,0 -0.84375,-1.3125 z"
         id="path12625"
         inkscape:connector-curvature="0" />
    </g>
  </g>
</svg>
