<?xml version="1.0" encoding="UTF-8" standalone="no"?>
<!-- Created with Inkscape (http://www.inkscape.org/) -->

<svg
   xmlns:dc="http://purl.org/dc/elements/1.1/"
   xmlns:cc="http://creativecommons.org/ns#"
   xmlns:rdf="http://www.w3.org/1999/02/22-rdf-syntax-ns#"
   xmlns:svg="http://www.w3.org/2000/svg"
   xmlns="http://www.w3.org/2000/svg"
   xmlns:sodipodi="http://sodipodi.sourceforge.net/DTD/sodipodi-0.dtd"
   xmlns:inkscape="http://www.inkscape.org/namespaces/inkscape"
   width="38.248829mm"
   height="33.163868mm"
   viewBox="0 0 38.248829 33.163868"
   version="1.1"
   id="svg12634"
   inkscape:version="0.92.4 (5da689c313, 2019-01-14)"
   sodipodi:docname="G41.svg">
  <defs
     id="defs12628" />
  <sodipodi:namedview
     id="base"
     pagecolor="#ffffff"
     bordercolor="#666666"
     borderopacity="1.0"
     inkscape:pageopacity="0.0"
     inkscape:pageshadow="2"
     inkscape:zoom="0.35"
     inkscape:cx="-371.83008"
     inkscape:cy="-353.40305"
     inkscape:document-units="mm"
     inkscape:current-layer="layer1"
     showgrid="false"
     fit-margin-top="0"
     fit-margin-left="0"
     fit-margin-right="0"
     fit-margin-bottom="0"
     inkscape:window-width="1920"
     inkscape:window-height="1017"
     inkscape:window-x="-8"
     inkscape:window-y="-8"
     inkscape:window-maximized="1" />
  <metadata
     id="metadata12631">
    <rdf:RDF>
      <cc:Work
         rdf:about="">
        <dc:format>image/svg+xml</dc:format>
        <dc:type
           rdf:resource="http://purl.org/dc/dcmitype/StillImage" />
        <dc:title></dc:title>
      </cc:Work>
    </rdf:RDF>
  </metadata>
  <g
     inkscape:label="Layer 1"
     inkscape:groupmode="layer"
     id="layer1"
     transform="translate(-11.067541,-22.16491)">
    <g
       aria-label="𓅯"
       transform="scale(0.26458333)"
       style="font-style:normal;font-variant:normal;font-weight:normal;font-stretch:normal;font-size:192px;line-height:1.25;font-family:sans-serif;-inkscape-font-specification:sans-serif;font-variant-ligatures:normal;font-variant-caps:normal;font-variant-numeric:normal;font-feature-settings:normal;text-align:start;letter-spacing:0px;word-spacing:0px;writing-mode:lr-tb;text-anchor:start;fill:#000000;fill-opacity:1;stroke:none"
       id="flowRoot13179">
      <path
         d="m 41.830078,88.46039 17.15625,4.78125 q 0.46875,-0.28125 2.34375,-0.9375 1.875,-0.65625 3.46875,-1.125 3.1875,-0.84375 6.09375,-0.84375 6.65625,0 10.6875,2.90625 4.21875,2.90625 5.4375,6 1.21875,3 1.21875,9.375 0,5.90625 0.5625,12.09375 0.375,6 7.125,12.5625 4.218752,-2.15625 7.875002,-5.8125 3.65625,-3.65625 5.625,-7.3125 2.15625,-3.84375 15.09375,-12.09375 6.5625,-4.21875 17.34375,-10.21875 10.78125,-6.09375 25.875,-14.0625 l 2.0625,1.40625 v 13.03125 q 1.125,-0.28125 3.09375,-0.84375 2.0625,-0.5625 4.21875,-1.125 2.25,-0.65625 4.21875,-1.125 2.0625,-0.5625 3.09375,-0.84375 l 1.96875,1.875 q -1.875,8.90625 -5.90625,15.1875 -4.125,6.28125 -10.96875,11.4375 -3.46875,2.625 -8.0625,5.25 -4.5,2.625 -10.40625,5.34375 -11.71875,5.34375 -12.65625,6.46875 -0.46875,0.46875 -1.21875,1.40625 -0.65625,0.84375 -1.6875,2.0625 -1.96875,2.4375 -1.96875,6.09375 2.625,2.0625 4.5,5.15625 1.875,3.09375 4.3125,7.6875 0.375,0.84375 1.03125,1.6875 0.375,0.5625 5.8125,4.3125 2.625,1.78125 5.34375,3.375 2.71875,1.59375 5.625,3 l 0.65625,1.21875 v 3.65625 q 0,1.59375 -0.375,3.75 -0.28125,2.15625 -1.40625,4.03125 0.46875,1.03125 1.03125,2.25 0.65625,1.125 1.125,2.15625 0.5625,1.21875 1.125,2.34375 -0.5625,-0.375 -1.40625,-0.9375 -0.75,-0.46875 -1.96875,-1.125 -1.125,-0.65625 -2.8125,-1.6875 -3.28125,1.875 -6.1875,2.625 -2.8125,0.75 -5.4375,1.125 -0.46875,-0.375 -0.9375,-0.65625 -0.46875,-0.375 -0.9375,-0.5625 -2.0625,-7.03125 -5.90625,-9.75 -3.84375,-2.71875 -13.03125,-2.71875 l -5.25,4.59375 q -2.15625,2.8125 -4.03125,5.4375 -1.59375,2.25 -3.375,4.6875 -1.6875,2.4375 -2.8125,4.03125 2.34375,0.9375 2.34375,3.84375 0,0.375 -0.0937,1.21875 -0.0937,0.75 -0.28125,1.6875 -0.1875,0.9375 -0.46875,1.875 -0.1875,0.84375 -0.46875,1.40625 l -0.65625,-0.1875 q 0.0937,-0.5625 0.0937,-1.03125 0,-0.5625 0,-1.125 0,-1.875 -0.46875,-3.5625 -0.46875,-1.6875 -1.78125,-2.71875 -1.125,0.5625 -1.875,1.125 -0.65625,0.46875 -1.21875,1.21875 -0.46875,0.65625 -0.84375,1.78125 -0.28125,1.03125 -0.5625,2.625 l -0.75,-0.1875 q 0,-2.53125 0.1875,-4.03125 0.1875,-1.5 0.75,-2.4375 0.5625,-0.9375 1.5,-1.5 0.9375,-0.65625 2.4375,-1.3125 2.0625,-3.5625 4.03125,-7.125 2.0625,-3.65625 3.375,-7.59375 l -3.84375,-2.71875 q -3.46875,3.84375 -7.03125,7.875 -3.562502,4.03125 -7.125002,8.0625 0.375,0.75 0.5625,1.78125 0.28125,0.9375 0.28125,1.6875 0,1.96875 -0.5625,3.375 -0.5625,1.3125 -1.59375,3.09375 l -0.65625,-0.28125 q 0.46875,-1.125 0.75,-2.25 0.375,-1.125 0.375,-2.15625 0,-1.96875 -1.21875,-4.125 -6.1875,2.90625 -6.46875,7.3125 l -0.65625,-0.1875 q 0.5625,-5.15625 2.34375,-6.75 1.03125,-0.9375 1.96875,-1.40625 1.03125,-0.46875 2.8125,-1.21875 1.21875,-1.40625 2.15625,-2.71875 1.03125,-1.3125 1.96875,-2.625 0.9375,-1.3125 1.96875,-2.8125 1.125002,-1.5 2.437502,-3.1875 3.1875,-4.03125 4.125,-7.5 -4.78125,-4.125 -9.468752,-8.71875 -4.6875,-4.6875 -7.96875,-9.46875 -3.28125,-4.875 -5.34375,-7.875 -1.96875,-3 -2.71875,-4.3125 -1.5,-2.4375 -1.5,-9.84375 0,-0.9375 0,-1.78125 0,-0.84375 0.09375,-1.6875 0,-4.5 -0.65625,-7.40625 -0.65625,-3 -2.0625,-5.8125 -13.96875,-11.625 -16.6875,-15.46875 -1.3125,-1.875 -2.0625,-3.5625 -0.65625,-1.6875 -1.125,-2.0625 z m 43.3125,23.15625 v -8.0625 q -0.9375,-3.09375 -2.4375,-5.0625 -1.40625,-1.96875 -3.28125,-3.09375 -1.78125,-1.125 -3.9375,-1.59375 -2.15625,-0.46875 -4.59375,-0.46875 -2.4375,0 -4.78125,0.46875 -2.25,0.46875 -4.125,1.5 -0.28125,0.46875 -0.5625,0.9375 -0.28125,0.375 -0.5625,0.84375 l -1.125,1.6875 q 3.9375,6.1875 11.15625,11.90625 3.5625,2.71875 5.4375,4.40625 1.875,1.6875 2.25,2.15625 0.375,0.46875 0.84375,1.59375 0.5625,1.125 1.21875,2.90625 1.40625,3.5625 1.40625,13.21875 0,3.9375 0.375,6 0.46875,2.0625 0.5625,2.8125 0.1875,0.9375 1.78125,3.1875 0.46875,0.75 1.59375,2.4375 1.125,1.59375 2.625,3.75 1.5,2.15625 3.28125,4.59375 1.78125,2.4375 3.5625,4.78125 1.875,2.34375 3.5625,4.3125 1.781252,1.96875 3.281252,3.1875 l 14.53125,11.90625 4.40625,-3.84375 1.21875,-0.75 q 11.0625,0 15.75,3.375 4.6875,3.28125 6.65625,10.125 5.625,-0.75 9.09375,-3.1875 3.5625,-2.53125 3.5625,-7.875 v -3 q -3,-1.5 -5.90625,-3.1875 -2.90625,-1.78125 -5.8125,-3.75 -5.53125,-3.9375 -6,-5.0625 -0.46875,-1.125 -1.40625,-3 -0.84375,-1.875 -2.15625,-3.84375 -1.21875,-2.0625 -2.71875,-3.84375 -1.40625,-1.78125 -2.90625,-2.8125 0,-0.28125 -0.46875,-1.40625 0,-2.71875 0.84375,-5.15625 0.84375,-2.53125 2.8125,-4.78125 2.0625,-2.34375 5.34375,-4.5 3.28125,-2.15625 8.25,-4.3125 4.96875,-2.15625 9.375,-4.40625 4.40625,-2.25 8.34375,-4.6875 7.96875,-4.875 12.75,-12.65625 4.78125,-7.6875 4.78125,-11.625 -4.59375,1.3125 -7.5,2.15625 -2.8125,0.84375 -4.03125,1.03125 -2.15625,0.375 -20.0625,7.875 -3.9375,1.6875 -6.84375,3 -2.90625,1.3125 -5.25,2.4375 -2.25,1.125 -4.125,2.25 -1.875,1.03125 -3.65625,2.15625 -6.84375,4.3125 -12.375,9.46875 -2.15625,2.15625 -3.1875,3.375 -1.03125,1.21875 -1.78125,1.96875 -1.5,1.6875 -2.0625,2.25 -0.46875,0.5625 -0.75,0.84375 l -2.25,0.65625 -6.375,0.46875 q -7.500002,0 -10.312502,-3.1875 -1.3125,-1.59375 -2.625,-3.65625 -1.21875,-2.15625 -2.4375,-4.59375 -2.25,-4.875 -2.25,-14.625 z m 14.15625,22.875 q 0.65625,0.0937 1.312502,0.1875 0.65625,0 1.40625,0 1.6875,0 3.84375,-0.28125 2.15625,-0.375 4.125,-0.75 1.3125,-1.5 2.15625,-2.4375 0.84375,-0.9375 1.40625,-1.5 0.5625,-0.5625 0.9375,-0.84375 0.375,-0.375 0.65625,-0.65625 1.78125,-1.59375 2.90625,-2.625 1.125,-1.03125 1.875,-1.78125 0.75,-0.75 1.3125,-1.3125 0.65625,-0.5625 1.40625,-1.125 3.46875,-2.53125 6.46875,-4.5 3,-1.96875 6.1875,-3.75 3.28125,-1.78125 6.9375,-3.5625 3.75,-1.78125 8.71875,-3.9375 6.75,-3 10.6875,-4.59375 3.9375,-1.6875 5.15625,-2.0625 v -11.25 l -23.4375,12.9375 q -5.53125,3 -10.6875,6.1875 -5.15625,3.09375 -10.125,6.375 -9.84375,6.65625 -9.75,7.3125 0.0937,0.75 -4.5,5.90625 -2.34375,2.625 -4.59375,4.59375 -2.25,1.96875 -4.406252,3.46875 z m -29.25,-35.71875 q 1.875,-1.875 2.71875,-1.875 0.65625,0 0.65625,1.3125 0,1.59375 -1.03125,1.59375 -0.75,0 -2.34375,-1.03125 z"
         id="path13187"
         inkscape:connector-curvature="0" />
    </g>
  </g>
</svg>
