<?xml version="1.0" encoding="UTF-8" standalone="no"?>
<!-- Created with Inkscape (http://www.inkscape.org/) -->

<svg
   xmlns:dc="http://purl.org/dc/elements/1.1/"
   xmlns:cc="http://creativecommons.org/ns#"
   xmlns:rdf="http://www.w3.org/1999/02/22-rdf-syntax-ns#"
   xmlns:svg="http://www.w3.org/2000/svg"
   xmlns="http://www.w3.org/2000/svg"
   xmlns:sodipodi="http://sodipodi.sourceforge.net/DTD/sodipodi-0.dtd"
   xmlns:inkscape="http://www.inkscape.org/namespaces/inkscape"
   width="37.827148mm"
   height="26.069727mm"
   viewBox="0 0 37.827148 26.069727"
   version="1.1"
   id="svg13196"
   inkscape:version="0.92.4 (5da689c313, 2019-01-14)"
   sodipodi:docname="G42.svg">
  <defs
     id="defs13190" />
  <sodipodi:namedview
     id="base"
     pagecolor="#ffffff"
     bordercolor="#666666"
     borderopacity="1.0"
     inkscape:pageopacity="0.0"
     inkscape:pageshadow="2"
     inkscape:zoom="0.35"
     inkscape:cx="-348.97266"
     inkscape:cy="-336.26042"
     inkscape:document-units="mm"
     inkscape:current-layer="layer1"
     showgrid="false"
     fit-margin-top="0"
     fit-margin-left="0"
     fit-margin-right="0"
     fit-margin-bottom="0"
     inkscape:window-width="1920"
     inkscape:window-height="1017"
     inkscape:window-x="-8"
     inkscape:window-y="-8"
     inkscape:window-maximized="1" />
  <metadata
     id="metadata13193">
    <rdf:RDF>
      <cc:Work
         rdf:about="">
        <dc:format>image/svg+xml</dc:format>
        <dc:type
           rdf:resource="http://purl.org/dc/dcmitype/StillImage" />
        <dc:title></dc:title>
      </cc:Work>
    </rdf:RDF>
  </metadata>
  <g
     inkscape:label="Layer 1"
     inkscape:groupmode="layer"
     id="layer1"
     transform="translate(-5.0198485,-33.794705)">
    <g
       aria-label="𓅰"
       transform="scale(0.26458333)"
       style="font-style:normal;font-variant:normal;font-weight:normal;font-stretch:normal;font-size:192px;line-height:1.25;font-family:sans-serif;-inkscape-font-specification:sans-serif;font-variant-ligatures:normal;font-variant-caps:normal;font-variant-numeric:normal;font-feature-settings:normal;text-align:start;letter-spacing:0px;word-spacing:0px;writing-mode:lr-tb;text-anchor:start;fill:#000000;fill-opacity:1;stroke:none"
       id="flowRoot13741">
      <path
         d="m 111.12891,223.25922 q -0.1875,0.1875 -1.21875,0.65625 -0.9375,0.375 -1.96875,0.9375 -1.21875,0.65625 -2.8125,1.40625 H 88.535156 q 0,-1.6875 1.21875,-2.34375 1.21875,-0.65625 3.375,-0.65625 1.40625,0 3,0.28125 1.59375,0.1875 2.71875,0.1875 1.125,0 2.437504,-0.0937 1.40625,-0.1875 2.71875,-0.65625 1.3125,-0.5625 2.4375,-1.5 1.125,-1.03125 1.6875,-2.71875 0,-4.21875 -1.875,-7.40625 -1.875,-3.1875 -4.875,-5.25 -3.000004,-2.15625 -6.937504,-3.1875 -3.84375,-1.125 -7.875,-1.125 h -1.03125 l -3.1875,0.28125 q -0.1875,1.5 -1.125,3 -0.9375,1.5 -3.5625,1.5 l -1.21875,13.59375 1.78125,2.8125 -0.28125,0.28125 -3,-1.5 q -1.59375,2.8125 -3.65625,3.65625 -2.0625,0.84375 -4.3125,0.84375 -2.71875,0 -6.09375,-0.75 -3.28125,-0.75 -6.28125,-0.75 -1.5,0 -2.8125,0.375 -1.3125,0.28125 -2.625,1.125 0,-2.15625 1.5,-3.09375 1.5,-0.9375 3.75,-0.9375 2.8125,0 5.0625,0.46875 2.25,0.375 4.40625,0.375 1.78125,0 4.03125,-0.375 2.34375,-0.375 3.9375,-0.9375 0.65625,-1.40625 1.125,-3.1875 0.5625,-1.875 0.9375,-3.84375 0.375,-2.0625 0.5625,-4.125 0.1875,-2.15625 0.1875,-4.125 -1.59375,-0.5625 -2.8125,-1.59375 -1.125,-1.03125 -1.96875,-2.34375 -0.75,-1.40625 -1.3125,-2.8125 -0.5625,-1.5 -0.9375,-2.8125 -1.21875,-0.75 -2.4375,-1.5 -1.125,-0.75 -2.25,-1.5 l -10.875,-6.9375 q -11.53125,-7.3125 -15.5625,-13.78125 -4.03125,-6.5625 -4.03125,-8.71875 0,-2.15625 3.9375,-7.6875 3.9375,-5.53125 15.5625,-8.71875 -3.5625,-0.375 -7.21875,-0.65625 -3.5625,-0.375 -7.125,-0.375 -4.21875,0 -8.34375,0.75 -4.03125,0.65625 -7.96875,2.625 -0.5625,-0.375 -1.21875,-0.65625 -0.5625,-0.375 -1.125,-0.84375 1.21875,-4.03125 5.25,-6.1875 3.84375,-2.15625 14.71875,-2.625 1.3125,-4.875 3,-7.125 1.59375,-2.0625 4.78125,-3.65625 3.28125,-1.59375 8.0625,-1.59375 3.09375,0 6.09375,0.75 3,0.65625 5.625,1.875 l 3.1875,1.5 q 3.65625,1.78125 6,4.21875 2.34375,2.4375 2.34375,6.75 0,2.4375 -0.75,4.875 -0.75,2.34375 -1.96875,4.59375 1.03125,-0.28125 1.875,-0.375 0.9375,-0.0937 1.875,-0.0937 3.375,0 8.15625,1.96875 2.4375,1.03125 4.3125,1.875 1.875,0.84375 3.375,1.59375 l 6.093754,3.1875 q 14.0625,7.3125 27.46875,15.375 13.5,7.96875 27.375,15.9375 l -0.9375,2.71875 h -7.5 l 14.53125,10.875 -1.40625,2.71875 q -3.75,0.1875 -7.78125,0.46875 -3.9375,0.1875 -7.875,0.1875 -4.78125,0 -9.28125,-0.9375 -4.40625,-1.03125 -8.34375,-4.21875 -3.1875,0.1875 -5.53125,0.65625 -2.34375,0.375 -4.3125,1.03125 -1.96875,0.5625 -3.75,1.5 -1.78125,0.9375 -3.75,2.25 l 1.21875,11.15625 3.09375,3.09375 z m 38.25,-31.78125 q -12.65625,-7.125 -24.84375,-14.34375 -12.09375,-7.3125 -24.937504,-14.0625 l -6.46875,-3.46875 -5.15625,-2.25 q -2.71875,-1.21875 -4.875,-1.875 -2.15625,-0.75 -4.3125,-0.75 -2.90625,0 -7.21875,2.15625 -4.03125,2.0625 -9.5625,2.0625 h -1.21875 q -1.875,0 -2.90625,-0.1875 -0.9375,-0.1875 -2.71875,-0.5625 l 0.46875,-2.90625 q 0.9375,0.1875 2.15625,0.375 1.3125,0.1875 2.90625,0.1875 1.96875,0 4.5,-0.375 2.53125,-0.375 5.625,-1.40625 1.59375,-2.34375 2.90625,-5.34375 1.3125,-3 1.3125,-5.8125 0,-2.4375 -1.03125,-3.9375 -1.03125,-1.5 -4.3125,-3.75 -3.1875,-2.25 -7.21875,-3.375 -3.9375,-1.125 -7.6875,-1.125 -3.9375,0 -6.75,1.3125 -2.53125,1.21875 -3.84375,2.8125 -0.5625,0.75 -1.21875,2.4375 -0.65625,1.59375 -1.40625,4.5 l -1.5,1.03125 q -0.1875,0 -1.875,0.0937 -1.59375,0.0937 -4.59375,0.28125 -3,0.1875 -5.15625,0.9375 -2.15625,0.75 -3.65625,1.78125 3.375,-1.03125 6.84375,-1.3125 3.5625,-0.375 7.125,-0.375 2.90625,0 5.71875,0.28125 2.90625,0.1875 5.8125,0.5625 l 11.34375,1.5 v 2.625 q -6,0.84375 -10.5,2.25 -4.40625,1.3125 -7.5,3.1875 -3.09375,1.875 -5.0625,4.3125 -1.96875,2.34375 -2.90625,5.34375 1.03125,3.375 2.90625,6.375 1.875,2.90625 4.78125,5.8125 2.90625,2.8125 6.84375,5.71875 4.03125,2.8125 9.1875,5.90625 10.3125,6.28125 10.59375,6.84375 0.1875,0.28125 0.5625,1.3125 0.375,0.9375 1.03125,2.71875 1.40625,3.46875 4.21875,4.875 l 0.84375,0.0937 q 0.46875,0 1.3125,-0.375 1.6875,-0.84375 1.6875,-1.875 0,-0.28125 -0.1875,-0.84375 l 1.40625,-1.78125 q 0.46875,0 1.125,0 0.75,0 1.6875,-0.0937 4.78125,0 8.71875,0.75 3.9375,0.75 6.9375,1.96875 3.000004,1.21875 4.968754,2.625 2.0625,1.40625 3.09375,2.71875 3.1875,-2.71875 8.4375,-4.59375 5.34375,-1.875 11.90625,-1.875 l 0.9375,0.28125 q 3.5625,3 7.78125,4.03125 4.21875,1.03125 8.71875,1.03125 2.8125,0 5.8125,-0.28125 l 5.8125,-0.375 -14.4375,-10.78125 h -17.71875 q -0.5625,0 -1.40625,0 -0.75,0 -1.59375,0 -0.75,0 -1.40625,0 -0.5625,-0.0937 -0.84375,-0.0937 l -11.0625,-0.9375 q -2.4375,-0.1875 -4.78125,-0.65625 -2.34375,-0.46875 -4.687504,-1.03125 -3.375,-1.03125 -5.34375,-1.59375 -1.96875,-0.65625 -3,-1.03125 -1.03125,-0.375 -1.40625,-0.46875 -0.375,-0.1875 -0.65625,-0.28125 l -8.71875,-4.125 q 0,-0.1875 -1.6875,-0.84375 -1.6875,-0.75 -4.96875,-2.90625 l -1.125,-0.75 q -1.59375,-1.03125 -2.34375,-2.34375 -0.75,-1.3125 -0.75,-2.25 0,-0.5625 -0.09375,-0.84375 0,-0.9375 0.375,-1.59375 0.46875,-0.65625 1.03125,-1.03125 0.65625,-0.375 1.21875,-0.5625 0.65625,-0.1875 1.03125,-0.1875 0.84375,0 1.96875,0.0937 1.21875,0.0937 2.25,0.28125 1.78125,0.46875 2.90625,0.75 1.125,0.1875 1.875,0.375 0.75,0.1875 1.21875,0.375 0.46875,0.0937 0.9375,0.1875 1.59375,0.375 2.53125,0.375 h 0.84375 v 3 h -0.75 q -2.625,0 -5.15625,-0.65625 -2.4375,-0.75 -4.875,-1.21875 l -1.3125,-0.28125 q -0.65625,0 -0.84375,-0.0937 -1.59375,0 -1.875,0.0937 -0.28125,0 -0.375,0.0937 0,0.5625 0.28125,0.9375 0.46875,1.03125 0.75,1.3125 0.28125,0.28125 0.5625,0.46875 l 3.75,2.34375 q 3.375,1.6875 6.5625,3.46875 3.1875,1.6875 6.75,3 2.71875,1.03125 5.53125,1.875 2.8125,0.84375 5.250004,1.5 2.4375,0.5625 4.21875,0.9375 1.78125,0.28125 2.4375,0.375 5.15625,0.65625 9.75,0.84375 4.59375,0.1875 9.75,0.1875 z M 56.753906,137.00922 q -1.03125,1.03125 -2.71875,1.78125 -0.9375,0 -1.21875,-1.78125 l 0.75,-1.6875 q 0.9375,0 3.1875,1.6875 z"
         id="path13749"
         inkscape:connector-curvature="0" />
    </g>
  </g>
</svg>
