<?xml version="1.0" encoding="UTF-8" standalone="no"?>
<!-- Created with Inkscape (http://www.inkscape.org/) -->

<svg
   xmlns:dc="http://purl.org/dc/elements/1.1/"
   xmlns:cc="http://creativecommons.org/ns#"
   xmlns:rdf="http://www.w3.org/1999/02/22-rdf-syntax-ns#"
   xmlns:svg="http://www.w3.org/2000/svg"
   xmlns="http://www.w3.org/2000/svg"
   xmlns:sodipodi="http://sodipodi.sourceforge.net/DTD/sodipodi-0.dtd"
   xmlns:inkscape="http://www.inkscape.org/namespaces/inkscape"
   width="33.511127mm"
   height="37.752735mm"
   viewBox="0 0 33.511127 37.752735"
   version="1.1"
   id="svg29235"
   inkscape:version="0.92.4 (5da689c313, 2019-01-14)"
   sodipodi:docname="G44.svg">
  <defs
     id="defs29229" />
  <sodipodi:namedview
     id="base"
     pagecolor="#ffffff"
     bordercolor="#666666"
     borderopacity="1.0"
     inkscape:pageopacity="0.0"
     inkscape:pageshadow="2"
     inkscape:zoom="0.35"
     inkscape:cx="-394.68751"
     inkscape:cy="-354.28573"
     inkscape:document-units="mm"
     inkscape:current-layer="layer1"
     showgrid="false"
     showguides="false"
     fit-margin-top="0"
     fit-margin-left="0"
     fit-margin-right="0"
     fit-margin-bottom="0"
     inkscape:window-width="1920"
     inkscape:window-height="1017"
     inkscape:window-x="-8"
     inkscape:window-y="-8"
     inkscape:window-maximized="1" />
  <metadata
     id="metadata29232">
    <rdf:RDF>
      <cc:Work
         rdf:about="">
        <dc:format>image/svg+xml</dc:format>
        <dc:type
           rdf:resource="http://purl.org/dc/dcmitype/StillImage" />
        <dc:title></dc:title>
      </cc:Work>
    </rdf:RDF>
  </metadata>
  <g
     inkscape:label="Layer 1"
     inkscape:groupmode="layer"
     id="layer1"
     transform="translate(-17.115238,-17.3425)">
    <g
       aria-label="𓅳"
       style="font-style:normal;font-variant:normal;font-weight:normal;font-stretch:normal;font-size:50.79999924px;line-height:1.25;font-family:sans-serif;-inkscape-font-specification:'sans-serif, Normal';font-variant-ligatures:normal;font-variant-caps:normal;font-variant-numeric:normal;font-feature-settings:normal;text-align:start;letter-spacing:0px;word-spacing:0px;writing-mode:lr-tb;text-anchor:start;fill:#000000;fill-opacity:1;stroke:none;stroke-width:0.26458332"
       id="text29782">
      <path
         d="m 18.529102,21.559297 q 1.95957,-2.257227 4.018359,-2.257227 1.438672,0 2.976562,1.240235 l 1.389063,-0.595313 q 1.265039,-1.339453 2.232422,-1.95957 0.967382,-0.644922 2.009179,-0.644922 1.364258,0 2.678906,1.091406 1.289844,1.066602 1.612305,1.5875 0.297656,0.496094 0.669727,1.885157 l 0.322461,1.240234 q 0.07441,0.322461 0.124023,0.545703 0.07441,0.223242 0.124023,0.37207 2.728516,2.356446 4.365625,5.55625 1.141016,0.768946 1.984375,1.711524 0.84336,0.917773 1.661914,2.257226 l 0.992188,1.5875 q 0.942578,1.513086 1.711523,2.629297 0.768946,1.116211 1.041797,1.562695 0.297656,0.42168 1.240235,1.016992 0.942578,0.595313 0.942578,1.686719 0,1.314649 -1.016993,1.612305 -0.992187,0.297656 -2.158007,0.520898 -1.165821,0.223242 -2.654102,0.223242 -0.942578,0 -2.108398,-0.124023 -1.141016,-0.148828 -2.058789,-0.347266 0.248047,0.471289 0.496093,0.917774 0.272852,0.42168 0.47129,0.892969 0.198437,0.471289 0.32246,1.016992 0.124024,0.545703 0.124024,1.240234 0,0.595313 -0.04961,0.79375 -0.0248,0.198438 -0.07441,0.297656 l -2.381249,5.159375 h 2.406054 l 0.79375,0.818555 H 18.330664 l 0.818555,-0.818555 h 5.184179 q 0.248047,-0.570508 0.719336,-1.686718 0.496094,-1.116211 1.141016,-2.480469 0.669726,-1.364258 1.066601,-2.654102 0.396875,-1.289843 0.396875,-2.33164 0,-0.744141 -0.198437,-1.339453 -0.173633,-0.595313 -0.446484,-1.116211 -0.248047,-0.520899 -0.545704,-0.992188 -0.297656,-0.471289 -0.520898,-0.967383 L 23.39082,35.301094 q -2.951758,-6.201172 -3.050976,-6.548438 -0.07441,-0.322461 -0.07441,-0.545703 0,-0.198437 -0.0248,-0.347266 0,-0.173632 -0.02481,-0.297656 l -0.148828,-1.240234 q -0.124023,-1.116211 -0.471289,-1.909961 -0.347266,-0.79375 -1.041797,-1.364258 0,0.0248 -0.223242,-0.07441 -0.223242,-0.09922 -0.496094,-0.223242 -0.322461,-0.124024 -0.719336,-0.297656 v -0.297657 z m 26.119335,22.051367 q 2.554883,0 5.010547,-0.84336 0.148828,-0.297656 0.148828,-0.669726 0,-0.396875 -0.198438,-0.744141 l -0.74414,-0.595312 -0.79375,-0.570508 q -0.347266,-0.347266 -0.644922,-0.768945 -0.272852,-0.42168 -0.570508,-0.892969 -0.297656,-0.496094 -0.644922,-1.066602 -0.347265,-0.570507 -0.79375,-1.215429 L 44.276367,34.43293 q -0.272852,-0.396875 -0.818555,-1.339454 -0.570508,-0.992187 -2.75332,-2.728515 -0.892969,0.545703 -1.438672,0.868164 -0.520898,0.322461 -0.79375,0.520898 l -0.446484,0.297657 0.37207,1.11621 q 0.124023,0.570508 0.248047,1.116211 0.124023,0.520899 0.124023,0.84336 0,1.240234 -0.992187,1.513086 l -0.545703,-0.04961 q -0.148829,-0.124023 -0.471289,-0.347265 -0.322461,-0.223242 -0.446485,-0.347266 -0.272851,-0.223242 -0.520898,-0.446484 -0.223242,-0.223242 -0.570508,-0.570508 -0.322461,-0.347266 -0.644922,-0.719336 -0.322461,-0.396875 -0.396875,-0.545703 -0.396875,-0.694531 -0.669726,-1.488281 -0.272852,-0.79375 -0.446485,-1.513086 -0.173633,-0.744141 -0.248047,-1.289844 -0.07441,-0.545703 -0.07441,-0.719336 0,-0.124023 0.02481,-0.223242 0.02481,-0.124024 0.09922,-0.396875 0.396875,-0.37207 0.694531,-0.570508 0.322461,-0.198437 0.719336,-0.272851 0.198437,0 0.37207,0 0.198438,-0.02481 0.471289,-0.04961 v 0.79375 h -0.644922 q -0.198437,0 -0.471289,0.173633 -0.272851,0.173633 -0.471289,0.37207 0,0.297657 0,0.545703 0.02481,0.223243 0.07441,0.471289 0.04961,0.248047 0.124024,0.545704 0.07441,0.297656 0.198437,0.719335 0.198438,0.570508 0.347266,1.041797 0.173633,0.446485 0.347265,0.942578 0.47129,0.694532 0.868165,1.190625 0.396875,0.496094 0.74414,0.868164 0.347266,0.347266 0.669727,0.620118 0.322461,0.248047 0.669726,0.471289 0.198438,0 0.272852,-0.223242 0.07441,-0.248047 0.07441,-0.570508 0,-0.520899 -0.124024,-1.116211 -0.124023,-0.595313 -0.223242,-0.868164 l -0.37207,-0.992188 0.04961,-0.471289 q 0.595313,-0.396875 1.141016,-0.768945 0.471289,-0.322461 0.942578,-0.620117 0.496094,-0.297657 0.818555,-0.471289 -0.471289,-0.79375 -0.719336,-1.314649 -0.248047,-0.520898 -1.438672,-1.909961 -1.190625,-1.364257 -1.637109,-1.637109 -0.396875,-0.248047 -0.595313,-0.942578 -0.248047,-0.942578 -0.42168,-1.513086 -0.148828,-0.595313 -0.272851,-0.967383 -0.09922,-0.37207 -0.173633,-0.570508 -0.04961,-0.223242 -0.09922,-0.396875 -0.396875,-0.446484 -0.818554,-0.868164 -0.42168,-0.446484 -0.868164,-0.768945 -0.446485,-0.322461 -0.917774,-0.520898 -0.471289,-0.198438 -0.992187,-0.198438 -0.868164,0 -1.810743,0.644922 l -2.207617,1.909961 q 0.570508,0.173633 1.21543,1.265039 0.322461,0.545703 0.496094,1.16582 0.198437,0.595313 0.297656,1.289844 0.173633,1.389062 0.223242,2.158008 0.02481,0.768945 0.322461,1.289843 0.04961,0.07441 0.272852,0.545704 0.223242,0.446484 0.471289,0.992187 0.272851,0.520898 0.496093,0.992188 0.223243,0.471289 0.297657,0.595312 0.421679,0.868164 0.74414,1.562695 0.347266,0.694532 0.620117,1.289844 0.272852,0.595313 0.520899,1.116211 0.248047,0.496094 0.496094,0.992187 l 1.141015,2.306836 q 0.297657,0.595313 0.446485,0.942578 0.173632,0.322461 0.297656,0.570508 0.124023,0.248047 0.248047,0.496094 0.124023,0.223242 0.322461,0.620117 0.223242,0.496094 0.719336,0.868164 0.496093,0.372071 1.141015,0.644922 0.644922,0.272852 1.389063,0.471289 0.74414,0.198438 1.488281,0.347266 1.736328,0.322461 3.795117,0.396875 z M 26.317773,29.099922 q -0.942578,0 -1.5875,0.570508 0,1.116211 0.471289,2.554882 0.248047,0.744141 0.396875,1.190625 0.148828,0.42168 0.248047,0.545703 0,0.07441 0.07441,0.248047 0.09922,0.173633 0.347266,0.446485 0.272851,0.272851 0.719336,0.694531 0.446484,0.396875 1.190625,0.917773 l 0.595312,0.372071 q 0.0248,-0.04961 0.04961,-0.04961 0.0248,-0.0248 0.04961,-0.04961 0.09922,-0.124023 0.09922,-0.37207 l -0.02481,-0.42168 q -0.07441,-0.471288 -0.24804,-0.992187 -0.173633,-0.520898 -0.272851,-1.016992 l -0.07441,-0.570508 0.124023,-0.37207 0.496094,-0.446484 q 0.74414,-0.496094 1.041797,-0.694531 0.297656,-0.198438 0.545703,-0.347266 l -0.496094,-0.992188 q -0.198437,-0.421679 -0.347266,-0.669726 -0.124023,-0.272852 -0.173632,-0.396875 -0.04961,-0.124024 -0.148829,-0.297656 -0.07441,-0.198438 -0.198437,-0.42168 l -0.37207,-0.768945 Q 27.40918,26.569844 27.161133,26.024141 27.037109,25.70168 26.888281,25.28 26.739453,24.85832 26.590625,24.287813 l -0.322461,-1.26504 q -0.09922,-0.297656 -0.173633,-0.520898 -0.04961,-0.223242 -0.09922,-0.37207 -0.79375,-0.84336 -1.661914,-1.438672 -0.843359,-0.620117 -1.835547,-0.620117 -0.446484,0 -1.016992,0.198437 -0.545703,0.198438 -1.141015,0.744141 -0.520899,0.446484 -0.719336,0.620117 -0.198438,0.148828 -0.372071,0.322461 -0.297656,0.297656 -0.446484,0.347266 0.322461,0.07441 0.644922,0.446484 0.322461,0.347266 0.545703,0.719336 l 0.248047,0.446484 q 0.322461,0.620117 0.520898,1.612305 0.198438,0.967383 0.272852,1.934765 l 0.09922,1.141016 q 1.5875,3.497461 2.976562,6.474023 0.669727,1.488282 1.413867,3.050977 0.744141,1.562695 1.612305,3.249414 0.322461,0.620117 1.339453,1.190625 0.694531,0.37207 1.637109,0.719336 0.942579,0.347265 1.984375,0.595312 1.041797,0.248047 2.108399,0.396875 1.066601,0.148828 2.033984,0.148828 -0.223242,-1.711523 -0.79375,-2.976562 -0.272851,-0.620117 -0.644922,-1.339453 -0.347265,-0.719336 -0.79375,-1.562695 -0.868164,-1.661914 -1.413867,-2.902149 -0.272851,-0.620117 -0.620117,-1.364258 -0.347266,-0.74414 -0.768945,-1.661914 L 30.90664,32.026875 q -0.124023,0 -0.669726,0.37207 -0.545703,0.347266 -1.091406,0.84336 0,0.297656 0.297656,1.215429 0.297656,0.942578 0.297656,1.488281 v 0.248047 q 0,0.496094 -0.297656,0.892969 -0.297656,0.37207 -0.84336,0.37207 l -1.215429,-0.79375 Q 26.317773,35.946015 25.722461,35.276289 25.151953,34.606562 24.903906,33.58957 L 24.23418,31.555586 q -0.124024,-0.496094 -0.223243,-0.967383 -0.07441,-0.496094 -0.07441,-1.016992 0.04961,-0.124024 0.07441,-0.223242 0.02481,-0.09922 0.04961,-0.148828 l 0.694531,-0.520899 q 0.694531,-0.37207 1.562695,-0.37207 z m 14.585156,20.191015 q 0.09922,-0.223242 0.148828,-0.595312 0.07441,-0.396875 0.07441,-0.719336 0,-0.744141 -0.223242,-1.314649 -0.198437,-0.570508 -0.644922,-1.438672 l -0.694531,-1.339453 q -0.37207,-0.124023 -0.74414,-0.248047 -0.322461,-0.124023 -0.694532,-0.272851 -0.37207,-0.173633 -0.694531,-0.37207 0.09922,0.496093 0.173633,0.917773 0.07441,0.396875 0.07441,0.843359 0,1.116211 -0.37207,2.207618 -0.347266,1.066601 -0.992188,2.505273 -0.322461,0.719336 -0.620117,1.438672 -0.297656,0.719336 -0.570508,1.389062 -0.248047,0.644922 -0.471289,1.165821 -0.198437,0.520898 -0.322461,0.818554 h 4.142383 z m -11.211718,4.985742 1.190625,-2.406054 q 0.421679,-0.868164 0.669726,-1.389063 0.248047,-0.545703 0.372071,-0.818555 0.124023,-0.297656 0.198437,-0.768945 0.07441,-0.496094 0.07441,-0.843359 0,-0.942578 -0.37207,-1.860352 -0.37207,-0.917773 -0.84336,-1.810742 -0.272851,-0.02481 -0.669726,-0.148828 -0.37207,-0.148828 -0.744141,-0.322461 -0.37207,-0.173633 -0.694531,-0.322461 -0.322461,-0.173633 -0.446484,-0.272851 0.0248,0.09922 0.248047,0.32246 0.223242,0.198438 0.223242,0.396875 0,1.21543 -0.471289,2.753321 -0.446485,1.513086 -1.265039,3.299023 -0.818555,1.785938 -1.314649,2.951758 -0.496094,1.141015 -0.545703,1.240234 z m 2.505273,-9.723437 q 0.992188,1.810742 0.992188,3.274219 0,0.471289 -0.07441,0.917773 -0.07442,0.42168 -0.248047,0.892969 -0.148828,0.446484 -0.396875,0.992187 -0.248047,0.545703 -0.595313,1.265039 l -1.141015,2.38125 h 2.654101 q 0.07441,-0.173633 0.471289,-1.215429 0.42168,-1.066602 1.116211,-2.654102 0.694531,-1.5875 1.16582,-2.852539 0.496094,-1.289844 0.496094,-2.306836 -1.190625,0 -2.38125,-0.223242 -1.16582,-0.248047 -2.058789,-0.471289 z M 28.624609,26.470625 q -0.07441,-1.091406 -0.223242,-1.885156 -0.124023,-0.79375 -0.322461,-1.364258 -0.198437,-0.595313 -0.496094,-1.016992 -0.272851,-0.42168 -0.644922,-0.768946 -0.173632,-0.04961 -0.471289,-0.198437 -0.297656,-0.173633 -0.446484,-0.223242 0.04961,0.04961 0.248047,0.248047 0.198437,0.198437 0.396875,0.396875 0.07441,0.07441 0.148828,0.297656 0.09922,0.198437 0.223242,0.669726 0.148828,0.446485 0.347266,1.190625 0.198437,0.744141 0.496094,1.885157 z m 2.108399,-5.779492 q -0.446485,0.471289 -0.644922,0.471289 -0.124024,0 -0.124024,-0.223242 0,-0.248047 0.07441,-0.471289 0.07441,-0.223242 0.223243,-0.223242 0.173632,0 0.471289,0.446484 z m -9.276953,1.16582 q 0.148828,0 0.496093,0.446485 -0.496093,0.446484 -0.644922,0.446484 -0.148828,0 -0.148828,-0.248047 0,-0.173633 0.07441,-0.396875 0.07441,-0.248047 0.223243,-0.248047 z"
         style="stroke-width:0.26458332"
         id="path29784"
         inkscape:connector-curvature="0" />
    </g>
  </g>
</svg>
