<?xml version="1.0" encoding="UTF-8" standalone="no"?>
<!-- Created with Inkscape (http://www.inkscape.org/) -->

<svg
   xmlns:dc="http://purl.org/dc/elements/1.1/"
   xmlns:cc="http://creativecommons.org/ns#"
   xmlns:rdf="http://www.w3.org/1999/02/22-rdf-syntax-ns#"
   xmlns:svg="http://www.w3.org/2000/svg"
   xmlns="http://www.w3.org/2000/svg"
   xmlns:sodipodi="http://sodipodi.sourceforge.net/DTD/sodipodi-0.dtd"
   xmlns:inkscape="http://www.inkscape.org/namespaces/inkscape"
   width="36.983776mm"
   height="37.727928mm"
   viewBox="0 0 36.983776 37.727928"
   version="1.1"
   id="svg14882"
   inkscape:version="0.92.4 (5da689c313, 2019-01-14)"
   sodipodi:docname="G45.svg">
  <defs
     id="defs14876" />
  <sodipodi:namedview
     id="base"
     pagecolor="#ffffff"
     bordercolor="#666666"
     borderopacity="1.0"
     inkscape:pageopacity="0.0"
     inkscape:pageshadow="2"
     inkscape:zoom="0.35"
     inkscape:cx="-411.83013"
     inkscape:cy="-316.26042"
     inkscape:document-units="mm"
     inkscape:current-layer="layer1"
     showgrid="false"
     fit-margin-top="0"
     fit-margin-left="0"
     fit-margin-right="0"
     fit-margin-bottom="0"
     inkscape:window-width="1920"
     inkscape:window-height="1017"
     inkscape:window-x="-8"
     inkscape:window-y="-8"
     inkscape:window-maximized="1" />
  <metadata
     id="metadata14879">
    <rdf:RDF>
      <cc:Work
         rdf:about="">
        <dc:format>image/svg+xml</dc:format>
        <dc:type
           rdf:resource="http://purl.org/dc/dcmitype/StillImage" />
        <dc:title></dc:title>
      </cc:Work>
    </rdf:RDF>
  </metadata>
  <g
     inkscape:label="Layer 1"
     inkscape:groupmode="layer"
     id="layer1"
     transform="translate(-21.650888,-27.428168)">
    <g
       aria-label="𓅴"
       transform="scale(0.26458333)"
       style="font-style:normal;font-variant:normal;font-weight:normal;font-stretch:normal;font-size:192px;line-height:1.25;font-family:sans-serif;-inkscape-font-specification:sans-serif;font-variant-ligatures:normal;font-variant-caps:normal;font-variant-numeric:normal;font-feature-settings:normal;text-align:start;letter-spacing:0px;word-spacing:0px;writing-mode:lr-tb;text-anchor:start;fill:#000000;fill-opacity:1;stroke:none"
       id="flowRoot15427">
      <path
         d="m 208.01758,121.85297 h 13.59375 v 43.875 h -41.25 q 2.34375,3.65625 4.78125,7.5 2.4375,3.84375 4.875,7.3125 2.53125,3.375 4.875,6.09375 2.34375,2.71875 4.5,4.21875 3.09375,2.15625 3.09375,5.8125 0,5.25 -5.34375,7.21875 -5.34375,1.96875 -15.28125,2.0625 -1.59375,0 -3.09375,-0.0937 -1.40625,-0.0937 -3.65625,-0.28125 -2.25,-0.1875 -5.15625,-0.5625 -2.8125,-0.375 -4.6875,-0.75 l 3.1875,6.65625 q 0.375,0.84375 0.65625,1.96875 0.375,1.03125 0.65625,2.0625 0.28125,1.03125 0.375,1.96875 0.1875,0.84375 0.1875,1.40625 0,3.9375 -1.40625,7.59375 -1.40625,3.5625 -3.46875,7.6875 l -4.78125,9.5625 h 9.09375 l 3,3.09375 h -60.46875 l 3.09375,-3.09375 h 21.09375 l 5.53125,-12.1875 q 3,-6.5625 5.0625,-12.1875 2.0625,-5.625 2.0625,-11.625 0,-1.5 -0.0937,-2.90625 -0.0937,-1.40625 -0.46875,-2.8125 -0.28125,-1.5 -0.9375,-3.1875 -0.5625,-1.78125 -1.6875,-3.9375 l -14.34375,-28.59375 h -18.84375 q -6.65625,2.8125 -14.250002,2.8125 -7.5,0 -16.03125,-2.8125 l -0.65625,-1.78125 q 0,-1.875 0.9375,-3 0.9375,-1.21875 2.71875,-1.21875 7.6875,3 21.187502,3 -6.09375,-4.5 -15.093752,-4.5 l -1.125,-0.75 1.125,-0.84375 q 3.1875,-0.5625 5.8125,-0.5625 6.843752,0 15.375002,5.15625 8.53125,-0.5625 16.03125,-1.125 l -8.71875,-17.4375 q -1.78125,-3.75 -2.0625,-11.71875 -0.28125,-8.25 -4.875,-11.90625 -0.75,-0.28125 -1.6875,-0.65625 -0.9375,-0.375 -1.78125,-0.75 -1.03125,-0.375 -1.96875,-0.84375 v -1.125 l 5.34375,-2.25 q 5.15625,-5.34375 8.71875,-7.5 3.75,-2.25 8.625,-2.25 6.1875,0 10.125,4.59375 4.03125,4.5 6.65625,12.46875 l 2.71875,8.25 q 10.125,8.90625 16.40625,21 2.0625,1.59375 4.125,3.46875 2.0625,1.78125 3.9375,4.03125 1.875,-0.0937 3.46875,-0.0937 1.59375,0 2.90625,0 11.15625,0 21.1875,0.84375 z m -61.6875,66.28125 q 0.46875,1.03125 1.875,2.90625 1.40625,1.78125 3.375,3.375 1.21875,1.03125 2.15625,1.6875 1.03125,0.65625 1.875,1.21875 0.9375,0.46875 1.78125,0.9375 0.84375,0.375 1.875,0.9375 1.03125,0.5625 2.4375,1.03125 1.5,0.46875 3.09375,0.9375 1.6875,0.375 3.375,0.75 1.78125,0.28125 3.28125,0.46875 3,0.375 5.625,0.5625 2.71875,0.0937 5.0625,0.0937 9.375,0 13.3125,-1.59375 3.9375,-1.6875 3.9375,-4.6875 0,-1.125 -0.5625,-2.4375 -7.5,-6.09375 -16.59375,-20.71875 -1.3125,-2.15625 -2.625,-4.03125 -1.3125,-1.96875 -2.625,-3.84375 h -19.96875 q 0.28125,1.21875 0.46875,2.34375 0.28125,1.125 0.46875,2.34375 0,1.21875 -1.59375,3.75 -1.6875,2.53125 -2.8125,2.53125 -3.65625,-0.84375 -8.90625,-6.5625 -1.6875,-1.875 -3.375,-4.40625 h -6.28125 z m -2.34375,-44.71875 h -0.65625 q -1.40625,0.1875 -2.71875,0.65625 -1.3125,0.375 -2.625,1.5 0,7.125 3.09375,13.6875 3,-0.1875 5.71875,-0.28125 2.71875,-0.1875 5.15625,-0.375 l 0.1875,-1.125 11.0625,-7.03125 q -5.71875,-10.6875 -16.96875,-20.4375 v -0.5625 q 0,-1.5 -0.84375,-4.125 -0.84375,-2.71875 -2.34375,-6.9375 -1.875,-5.34375 -5.0625,-8.53125 -3.1875,-3.1875 -8.53125,-3.1875 -3.28125,0 -6.5625,1.96875 -3.1875,1.875 -5.25,4.40625 -2.34375,2.8125 -3.5625,3.1875 3.65625,1.96875 5.34375,6.28125 1.6875,4.3125 1.6875,9.09375 0,3.28125 0.46875,5.71875 0.46875,2.4375 1.21875,4.125 l 9.28125,18.46875 q 1.59375,-0.0937 3,-0.1875 1.5,-0.0937 2.90625,-0.1875 -1.40625,-3.28125 -2.25,-6.65625 -0.75,-3.375 -0.75,-6.46875 0,-1.125 0.46875,-2.53125 0.75,-1.03125 1.875,-1.6875 1.21875,-0.65625 2.4375,-1.03125 1.21875,-0.46875 2.34375,-0.5625 1.125,-0.1875 1.875,-0.1875 z m 16.40625,60 q -1.3125,-0.5625 -2.71875,-1.3125 -1.3125,-0.75 -2.625,-1.5 -1.21875,-0.75 -2.25,-1.40625 -1.03125,-0.65625 -1.59375,-1.21875 0.75,1.875 1.125,3.28125 0.46875,1.3125 0.65625,2.4375 0.28125,1.125 0.375,2.15625 0.0937,0.9375 0.0937,2.0625 0,3.28125 -1.3125,8.34375 -1.21875,4.96875 -3.9375,10.59375 -1.3125,2.8125 -2.53125,5.4375 -1.21875,2.625 -2.25,4.78125 -0.9375,2.15625 -1.6875,3.75 -0.65625,1.59375 -0.9375,2.34375 h 15.65625 l 5.4375,-10.59375 q 0.46875,-0.84375 1.21875,-2.53125 0.75,-1.78125 1.5,-3.75 0.75,-2.0625 1.3125,-4.03125 0.5625,-1.96875 0.5625,-3.375 0,-1.59375 -0.65625,-3.84375 -0.5625,-2.25 -1.875,-4.78125 z m 58.21875,-40.125 v -38.4375 h -8.0625 l -5.53125,33.5625 z m -65.34375,10.21875 q 1.6875,-1.03125 1.6875,-3.84375 0,-0.9375 -0.28125,-1.96875 -0.1875,-1.03125 -0.46875,-1.96875 h -9.28125 q 1.78125,2.34375 3.84375,4.3125 2.0625,1.875 4.5,3.46875 z m 11.8125,-20.71875 -8.8125,5.625 14.15625,-0.75 q -2.625,-2.8125 -5.34375,-4.875 z m -39.65625,-38.15625 q 1.3125,0.5625 2.0625,1.59375 -1.125,1.125 -2.25,1.5 l -0.65625,-1.5 z"
         id="path15435"
         inkscape:connector-curvature="0" />
    </g>
  </g>
</svg>
