<?xml version="1.0" encoding="UTF-8" standalone="no"?>
<!-- Created with Inkscape (http://www.inkscape.org/) -->

<svg
   xmlns:dc="http://purl.org/dc/elements/1.1/"
   xmlns:cc="http://creativecommons.org/ns#"
   xmlns:rdf="http://www.w3.org/1999/02/22-rdf-syntax-ns#"
   xmlns:svg="http://www.w3.org/2000/svg"
   xmlns="http://www.w3.org/2000/svg"
   xmlns:sodipodi="http://sodipodi.sourceforge.net/DTD/sodipodi-0.dtd"
   xmlns:inkscape="http://www.inkscape.org/namespaces/inkscape"
   width="37.207031mm"
   height="37.727943mm"
   viewBox="0 0 37.207031 37.727943"
   version="1.1"
   id="svg15444"
   inkscape:version="0.92.4 (5da689c313, 2019-01-14)"
   sodipodi:docname="G45A.svg">
  <defs
     id="defs15438" />
  <sodipodi:namedview
     id="base"
     pagecolor="#ffffff"
     bordercolor="#666666"
     borderopacity="1.0"
     inkscape:pageopacity="0.0"
     inkscape:pageshadow="2"
     inkscape:zoom="0.35"
     inkscape:cx="-303.25977"
     inkscape:cy="-387.69011"
     inkscape:document-units="mm"
     inkscape:current-layer="layer1"
     showgrid="false"
     fit-margin-top="0"
     fit-margin-left="0"
     fit-margin-right="0"
     fit-margin-bottom="0"
     inkscape:window-width="1920"
     inkscape:window-height="1017"
     inkscape:window-x="-8"
     inkscape:window-y="-8"
     inkscape:window-maximized="1" />
  <metadata
     id="metadata15441">
    <rdf:RDF>
      <cc:Work
         rdf:about="">
        <dc:format>image/svg+xml</dc:format>
        <dc:type
           rdf:resource="http://purl.org/dc/dcmitype/StillImage" />
        <dc:title></dc:title>
      </cc:Work>
    </rdf:RDF>
  </metadata>
  <g
     inkscape:label="Layer 1"
     inkscape:groupmode="layer"
     id="layer1"
     transform="translate(7.0750202,-8.52905)">
    <g
       aria-label="𓅵"
       transform="scale(0.26458333)"
       style="font-style:normal;font-variant:normal;font-weight:normal;font-stretch:normal;font-size:192px;line-height:1.25;font-family:sans-serif;-inkscape-font-specification:sans-serif;font-variant-ligatures:normal;font-variant-caps:normal;font-variant-numeric:normal;font-feature-settings:normal;text-align:start;letter-spacing:0px;word-spacing:0px;writing-mode:lr-tb;text-anchor:start;fill:#000000;fill-opacity:1;stroke:none"
       id="flowRoot15989">
      <path
         d="m -11.646484,50.42328 12.09374963,36.28125 4.59374997,3 q 8.5312504,-0.375 16.0312504,-0.84375 l -8.71875,-17.625 q -1.78125,-3.75 -2.0625,-11.71875 -0.28125,-8.25 -4.8750004,-11.90625 -0.75,-0.28125 -1.6875,-0.65625 -0.9375,-0.375 -1.78125,-0.75 -1.03124997,-0.375 -1.96874998,-0.84375 v -1.125 l 5.34374998,-2.25 q 5.1562504,-5.34375 8.7187504,-7.5 3.75,-2.25 8.625,-2.25 6.1875,0 10.125,4.59375 4.03125,4.5 6.65625,12.46875 l 2.71875,8.25 q 10.125,8.90625 16.40625,21 2.15625,1.59375 4.21875,3.46875 2.0625,1.875 4.03125,4.3125 1.6875,-0.09375 3.28125,-0.09375 1.6875,0 3.28125,0 2.53125,0 5.0625,0 2.625,0 5.25,0.09375 l 10.5,0.375 6.093754,-36.28125 h 13.59375 v 43.875 H 72.634766 q 2.34375,3.65625 4.78125,7.5 2.4375,3.84375 4.875,7.3125 2.53125,3.375 4.875,6.09375 2.34375,2.71875 4.5,4.21875 3.09375,2.15625 3.09375,5.8125 0,5.25 -5.34375,7.21875 -5.34375,1.96875 -15.28125,2.0625 -1.59375,0 -3.09375,-0.0937 -1.40625,-0.0937 -3.65625,-0.28125 -2.25,-0.1875 -5.15625,-0.5625 -2.8125,-0.375 -4.6875,-0.75 l 3.1875,6.65625 q 0.375,0.84375 0.65625,1.96875 0.375,1.03125 0.65625,2.0625 0.28125,1.03125 0.375,1.96875 0.1875,0.84375 0.1875,1.40625 0,3.9375 -1.40625,7.59375 -1.40625,3.5625 -3.46875,7.6875 l -4.78125,9.5625 h 9.09375 l 3,3.09375 H 4.5722656 l 3.09375,-3.09375 H 28.759766 l 5.53125,-12.1875 q 3,-6.5625 5.0625,-12.1875 2.0625,-5.625 2.0625,-11.625 0,-1.5 -0.09375,-2.90625 -0.09375,-1.40625 -0.46875,-2.8125 -0.28125,-1.5 -0.9375,-3.1875 -0.5625,-1.78125 -1.6875,-3.9375 L 23.884766,94.29828 H 6.5410156 q -6.93749998,2.8125 -14.625,2.8125 -5.0624996,0 -10.0312496,-0.75 -4.875,-0.75 -8.625,-2.0625 0,-6.09375 3,-6.09375 z m 50.25,66.28125 q 0.46875,1.03125 1.875,2.90625 1.40625,1.78125 3.375,3.375 1.21875,1.03125 2.15625,1.6875 1.03125,0.65625 1.875,1.21875 0.9375,0.46875 1.78125,0.9375 0.84375,0.375 1.875,0.9375 1.03125,0.5625 2.4375,1.03125 1.5,0.46875 3.09375,0.9375 1.6875,0.375 3.375,0.75 1.78125,0.28125 3.28125,0.46875 3,0.375 5.625,0.5625 2.71875,0.0937 5.0625,0.0937 9.375,0 13.3125,-1.59375 3.9375,-1.6875 3.9375,-4.6875 0,-1.125 -0.5625,-2.4375 -7.5,-6.09375 -16.59375,-20.71875 -1.3125,-2.15625 -2.625,-4.03125 -1.3125,-1.96875 -2.625,-3.84375 h -19.96875 q 0.28125,1.21875 0.46875,2.34375 0.28125,1.125 0.46875,2.34375 0,1.125 -1.6875,3.75 -1.6875,2.53125 -2.71875,2.53125 -3.65625,-0.84375 -8.90625,-6.5625 -1.6875,-1.875 -3.375,-4.40625 h -6.28125 z m -2.34375,-44.71875 h -0.65625 q -1.40625,0.1875 -2.71875,0.65625 -1.3125,0.375 -2.625,1.5 0,7.3125 3.1875,13.96875 2.625,-0.1875 5.0625,-0.375 2.4375,-0.1875 4.78125,-0.375 h 0.9375 l 0.1875,-1.3125 11.0625,-7.03125 q -5.71875,-10.6875 -16.96875,-20.4375 v -0.5625 q 0,-1.5 -0.84375,-4.125 -0.84375,-2.71875 -2.34375,-6.9375 -1.875,-5.34375 -5.0625,-8.53125 -3.1875,-3.1875 -8.53125,-3.1875 -3.28125,0 -6.5625,1.96875 -3.1875,1.875 -5.2500004,4.40625 -2.34375,2.8125 -3.5625,3.1875 3.6562504,1.96875 5.3437504,6.28125 1.6875,4.3125 1.6875,9.09375 0,3.28125 0.46875,5.71875 0.46875,2.4375 1.21875,4.125 l 9.375,18.65625 q 1.5,-0.1875 2.90625,-0.1875 1.40625,-0.09375 2.90625,-0.1875 -1.40625,-3.28125 -2.25,-6.75 -0.75,-3.46875 -0.75,-6.5625 0,-1.125 0.46875,-2.53125 0.75,-1.03125 1.875,-1.6875 1.21875,-0.65625 2.4375,-1.03125 1.21875,-0.46875 2.34375,-0.5625 1.125,-0.1875 1.875,-0.1875 z m 16.40625,60 q -1.3125,-0.5625 -2.71875,-1.3125 -1.3125,-0.75 -2.625,-1.5 -1.21875,-0.75 -2.25,-1.40625 -1.03125,-0.65625 -1.59375,-1.21875 0.75,1.875 1.125,3.28125 0.46875,1.3125 0.65625,2.4375 0.28125,1.125 0.375,2.15625 0.09375,0.9375 0.09375,2.0625 0,3.28125 -1.3125,8.34375 -1.21875,4.96875 -3.9375,10.59375 -1.3125,2.8125 -2.53125,5.4375 -1.21875,2.625 -2.25,4.78125 -0.9375,2.15625 -1.6875,3.75 -0.65625,1.59375 -0.9375,2.34375 h 15.65625 l 5.4375,-10.59375 q 0.46875,-0.84375 1.21875,-2.53125 0.75,-1.78125 1.5,-3.75 0.75,-2.0625 1.3125,-4.03125 0.5625,-1.96875 0.5625,-3.375 0,-1.59375 -0.65625,-3.84375 -0.5625,-2.25 -1.875,-4.78125 z M 110.88477,91.76703 V 53.42328 h -8.0625 l -5.625004,33.46875 z m -127.031254,-2.0625 0.9375,-2.25 q -0.75,0 -1.40625,-0.1875 -0.65625,-0.1875 -0.65625,-0.9375 0,-0.75 0.84375,-0.9375 0.84375,-0.1875 1.78125,-0.1875 l 3,-9.09375 3.0937496,9.09375 5.625,0.9375 -8.6249996,-26.4375 -9.1875,29.25 z m 61.6875,12.375 q 0.9375,-0.5625 1.3125,-1.40625 0.375,-0.84375 0.375,-2.4375 0,-1.03125 -0.28125,-1.96875 -0.1875,-1.03125 -0.46875,-1.96875 h -9.28125 q 1.78125,2.34375 3.84375,4.3125 2.0625,1.875 4.5,3.46875 z m 11.8125,-20.71875 -8.90625,5.625 q 7.3125,-0.375 14.34375,-0.5625 -1.40625,-1.5 -2.8125,-2.71875 -1.3125,-1.3125 -2.625,-2.34375 z M 17.697266,43.20453 q 1.3125,0.5625 2.0625,1.59375 -1.125,1.125 -2.25,1.5 l -0.65625,-1.5 z"
         id="path15997"
         inkscape:connector-curvature="0" />
    </g>
  </g>
</svg>
