<?xml version="1.0" encoding="UTF-8" standalone="no"?>
<!-- Created with Inkscape (http://www.inkscape.org/) -->

<svg
   xmlns:dc="http://purl.org/dc/elements/1.1/"
   xmlns:cc="http://creativecommons.org/ns#"
   xmlns:rdf="http://www.w3.org/1999/02/22-rdf-syntax-ns#"
   xmlns:svg="http://www.w3.org/2000/svg"
   xmlns="http://www.w3.org/2000/svg"
   xmlns:sodipodi="http://sodipodi.sourceforge.net/DTD/sodipodi-0.dtd"
   xmlns:inkscape="http://www.inkscape.org/namespaces/inkscape"
   width="37.727928mm"
   height="34.056824mm"
   viewBox="0 0 37.727928 34.056824"
   version="1.1"
   id="svg16568"
   inkscape:version="0.92.4 (5da689c313, 2019-01-14)"
   sodipodi:docname="G47.svg">
  <defs
     id="defs16562" />
  <sodipodi:namedview
     id="base"
     pagecolor="#ffffff"
     bordercolor="#666666"
     borderopacity="1.0"
     inkscape:pageopacity="0.0"
     inkscape:pageshadow="2"
     inkscape:zoom="0.35"
     inkscape:cx="-334.6875"
     inkscape:cy="-369.61008"
     inkscape:document-units="mm"
     inkscape:current-layer="layer1"
     showgrid="false"
     fit-margin-top="0"
     fit-margin-left="0"
     fit-margin-right="0"
     fit-margin-bottom="0"
     inkscape:window-width="1920"
     inkscape:window-height="1017"
     inkscape:window-x="-8"
     inkscape:window-y="-8"
     inkscape:window-maximized="1" />
  <metadata
     id="metadata16565">
    <rdf:RDF>
      <cc:Work
         rdf:about="">
        <dc:format>image/svg+xml</dc:format>
        <dc:type
           rdf:resource="http://purl.org/dc/dcmitype/StillImage" />
        <dc:title></dc:title>
      </cc:Work>
    </rdf:RDF>
  </metadata>
  <g
     inkscape:label="Layer 1"
     inkscape:groupmode="layer"
     id="layer1"
     transform="translate(-1.2402344,-16.983844)">
    <g
       aria-label="𓅷"
       transform="scale(0.26458333)"
       style="font-style:normal;font-variant:normal;font-weight:normal;font-stretch:normal;font-size:192px;line-height:1.25;font-family:sans-serif;-inkscape-font-specification:sans-serif;font-variant-ligatures:normal;font-variant-caps:normal;font-variant-numeric:normal;font-feature-settings:normal;text-align:start;letter-spacing:0px;word-spacing:0px;writing-mode:lr-tb;text-anchor:start;fill:#000000;fill-opacity:1;stroke:none"
       id="flowRoot17113">
      <path
         d="m 48.28125,91.659608 v 1.59375 q 0,1.03125 0,2.15625 0,1.03125 -0.09375,2.0625 l -0.375,4.125002 q 0,0.46875 0,0.84375 0,0.375 -0.09375,0.75 0,4.875 4.40625,6.75 4.5,1.96875 7.125,1.96875 1.3125,-1.03125 2.53125,-2.25 1.21875,-1.21875 2.4375,-2.34375 l 7.6875,-7.406252 q 4.5,-4.21875 9.46875,-6.65625 5.0625,-2.53125 9.28125,-2.53125 3,0 5.53125,1.59375 2.625,1.5 4.21875,5.4375 l -1.03125,1.96875 q -3.5625,0.750002 -6.28125,2.625002 -2.71875,1.78125 -5.625,5.0625 l -5.625,6.375 q -0.65625,0.75 -1.3125,1.40625 -0.65625,0.65625 -1.40625,1.21875 2.71875,0.75 5.625,1.40625 2.4375,0.5625 5.25,1.125 2.90625,0.5625 5.625,0.84375 8.8125,1.03125 19.3125,9.28125 10.59375,8.15625 22.5,25.03125 1.3125,-0.1875 2.53125,-0.75 1.3125,-0.65625 2.71875,-0.65625 0.1875,0.0937 0.46875,0.28125 0.375,0.0937 0.84375,0.28125 0.84375,0.65625 1.40625,1.6875 0.65625,0.9375 1.03125,2.0625 0.46875,1.03125 0.65625,2.0625 0.1875,0.9375 0.1875,1.6875 0,2.4375 -2.0625,4.03125 -2.0625,1.5 -4.5,1.5 -2.25,0 -4.21875,1.40625 -1.96875,1.40625 -3.09375,3.84375 l -3.28125,7.125 q -2.25,5.15625 -5.625,7.96875 -3.28125,2.71875 -10.40625,3.65625 v 1.6875 q -3.5625,-0.84375 -10.03125,-2.15625 -5.625,-1.125 -14.8125,-2.8125 -9.1875,-1.6875 -23.34375,-3.9375 1.125,0.5625 3.65625,1.78125 2.625,1.125 5.4375,2.4375 2.90625,1.3125 5.4375,2.53125 2.625,1.125 3.75,1.6875 l -0.75,1.40625 q -6.65625,-2.25 -11.0625,-3.9375 -4.3125,-1.6875 -7.21875,-2.90625 -2.8125,-1.21875 -4.6875,-1.96875 Q 58.6875,183.25336 57,182.69086 q -2.53125,0.75 -5.625,1.6875 -3,0.9375 -6.09375,1.96875 -3.09375,0.9375 -6.09375,1.875 -3,0.9375 -5.53125,1.59375 l -1.3125,-0.46875 4.78125,-2.8125 q -0.1875,0 -0.5625,-0.0937 -0.75,-0.1875 -1.5,-0.1875 -1.59375,0 -3.1875,1.03125 -1.5,0.9375 -2.15625,2.15625 l -0.375,-0.1875 q 0,-1.40625 0.65625,-2.34375 0.75,-1.03125 1.875,-1.59375 1.125,-0.65625 2.53125,-0.9375 1.40625,-0.28125 2.71875,-0.28125 1.03125,0 1.6875,0.1875 0.75,0.0937 1.5,0.375 l 18,-6.28125 q 8.0625,1.59375 15.5625,2.90625 3.1875,0.5625 6.5625,1.21875 3.46875,0.5625 6.75,1.125 3.28125,0.46875 6.28125,0.9375 3,0.375 5.4375,0.65625 -6.5625,-3.1875 -11.4375,-7.125 -4.875,-4.03125 -8.15625,-8.15625 -6.75,-8.4375 -11.8125,-16.6875 -2.71875,-4.3125 -5.25,-6.09375 -2.53125,-1.875 -4.875,-1.875 -2.4375,0 -4.21875,1.3125 -1.6875,1.21875 -2.8125,3.1875 -1.03125,1.875 -1.5,4.3125 -0.46875,2.34375 -0.9375,5.0625 l -0.5625,3.09375 q -1.125,5.8125 -5.4375,7.03125 -0.1875,-0.0937 -0.5625,-0.1875 -0.375,-0.0937 -0.84375,-0.1875 -3.9375,-4.21875 -6,-10.3125 -1.96875,-6.1875 -1.96875,-12.65625 0,-5.4375 1.59375,-10.59375 1.6875,-5.25 6.28125,-9.5625 -2.53125,-1.40625 -4.3125,-3.375 -1.78125,-1.96875 -3.09375,-4.3125 -1.21875,-2.4375 -2.15625,-5.0625 -0.84375,-2.625 -1.40625,-5.4375 l 1.40625,-7.781252 q 0.28125,-1.5 0.28125,-2.0625 -0.375,-3.1875 -1.125,-6.375 -0.75,-3.1875 -1.59375,-6.28125 -1.96875,0.75 -3.375,0.75 -1.78125,0 -3.46875,-1.40625 -1.6875,-1.5 -3.5625,-1.6875 -1.6875,0 -3.9375,0.28125 -2.15625,0.1875 -4.125,0.46875 -2.34375,0.375 -4.78125,0.65625 l -0.28125,-1.6875 6.46875,-3.5625 -4.6875,-1.3125 v -1.21875 l 4.6875,-0.9375 -6.65625,-5.53125 0.65625,-1.21875 8.71875,0.75 q 5.90625,-3.28125 9.375,-4.3125 3.1875,-0.9375 6.1875,-0.9375 6.65625,0 11.0625,4.78125 4.5,4.78125 6,11.4375 1.59375,6.9375 1.59375,11.25 z M 106.125,186.44086 q 1.125,0.1875 1.96875,0.375 0.84375,0.1875 1.40625,0.28125 0.65625,0.1875 1.21875,0.1875 l -1.40625,-8.25 2.90625,-0.75 q 0.375,2.0625 0.75,3.84375 0.28125,1.59375 0.5625,3.09375 0.28125,1.5 0.28125,2.15625 6.1875,-0.84375 9.09375,-3.375 3.09375,-2.71875 6.46875,-11.34375 3.46875,-8.71875 10.3125,-9.375 l 2.0625,-0.1875 q 0.84375,0 1.59375,-0.5625 0.84375,-0.5625 0.9375,-1.875 0,-2.4375 -2.15625,-4.875 -1.40625,0.1875 -2.71875,0.84375 -1.21875,0.5625 -2.71875,0.5625 l -1.21875,-0.75 q -8.4375,-11.90625 -14.625,-18.28125 -6.09375,-6.28125 -13.125,-10.6875 -6.75,-4.21875 -13.03125,-4.96875 -3,-0.375 -7.03125,-1.125 -4.03125,-0.75 -9.09375,-2.0625 l -1.5,-0.46875 q -1.6875,-0.46875 -2.34375,-2.15625 0.09375,-0.1875 0.1875,-0.375 0.09375,-0.28125 0.28125,-0.9375 l 3.46875,-3.09375 q 4.03125,-3.75 8.25,-8.53125 4.21875,-4.875002 9.9375,-6.562502 -1.21875,-1.875 -2.90625,-2.625 -1.6875,-0.75 -3.5625,-0.75 -6.375,0 -12.75,5.15625 -3.28125,2.625002 -6.09375,5.250002 -2.8125,2.625 -5.25,5.34375 -4.78125,5.34375 -7.875,5.34375 -2.53125,0 -8.15625,-2.625 -5.71875,-2.625 -5.71875,-9.375 0,-2.34375 0.28125,-4.687502 0.28125,-2.34375 0.375,-4.21875 v -1.40625 q 0,-11.0625 -4.125,-18.28125 -4.125,-7.21875 -10.96875,-7.21875 -3.46875,0 -6.84375,1.21875 -1.78125,0.5625 -3.1875,1.3125 -1.3125,0.65625 -2.4375,1.3125 -1.125,0.5625 -2.15625,1.03125 -0.9375,0.375 -1.875,0.375 -0.375,0 -1.21875,0 -0.75,-0.09375 -1.21875,-0.1875 L 15,75.253358 v 3.1875 l -1.96875,1.6875 q 0.9375,-0.09375 1.78125,-0.1875 0.75,-0.09375 1.40625,-0.09375 0.75,0 1.03125,-0.09375 1.21875,0 2.8125,0.28125 1.59375,0.28125 2.71875,1.40625 l 0.9375,0.84375 q 0.375,0.375 1.21875,0.375 1.40625,0 3.9375,-0.9375 h 1.6875 l 1.59375,5.71875 q 0.9375,3.1875 1.3125,5.71875 0.375,2.4375 0.375,4.875 0,1.968752 -0.28125,4.218752 -0.28125,2.25 -1.03125,5.0625 l 1.5,5.0625 q 1.125,3.9375 3.46875,7.03125 2.34375,3.09375 5.90625,4.59375 0.1875,0.65625 0.1875,1.3125 0,0.65625 0.28125,1.3125 -4.875,3.9375 -6.5625,8.8125 -1.6875,4.78125 -1.6875,10.78125 0,5.625 1.59375,11.0625 1.59375,5.34375 4.6875,8.71875 2.34375,-1.21875 2.8125,-5.90625 0.375,-4.40625 1.875,-9.28125 1.59375,-4.78125 4.96875,-6.65625 3.46875,-2.0625 6.46875,-2.0625 2.8125,0 5.34375,1.96875 2.625,1.875 5.15625,5.4375 l 2.90625,4.21875 q 4.78125,7.03125 7.96875,11.34375 3.1875,4.3125 4.78125,6.1875 1.6875,1.875 3.5625,3.46875 1.875,1.59375 3.65625,2.90625 1.78125,1.21875 3.375,2.15625 1.59375,0.84375 2.71875,1.3125 l 3.46875,1.125 -7.6875,-18.09375 q -0.9375,-0.5625 -1.6875,-1.59375 -0.75,-1.03125 -1.3125,-2.15625 -0.5625,-1.21875 -0.9375,-2.34375 -0.28125,-1.125 -0.28125,-1.875 0,-3 0.84375,-5.34375 0.84375,-2.34375 2.15625,-3.9375 1.3125,-1.59375 2.90625,-2.4375 1.59375,-0.84375 3,-0.84375 1.78125,0 3.1875,0.65625 1.5,0.5625 3.5625,2.90625 -0.1875,0.1875 -0.46875,0.46875 -0.28125,0.28125 -0.75,0.65625 -0.46875,0.375 -1.03125,0.9375 -1.59375,-1.6875 -2.4375,-2.25 -0.75,-0.5625 -1.78125,-0.5625 -1.125,0 -2.25,0.84375 -1.03125,0.84375 -1.96875,2.0625 -0.84375,1.125 -1.40625,2.53125 -0.5625,1.40625 -0.5625,2.53125 0,1.6875 0.46875,3 0.46875,1.3125 1.125,2.34375 0.75,1.125 1.6875,1.96875 z M 27.9375,74.034608 q -2.25,1.03125 -3.09375,1.03125 -0.9375,0 -0.9375,-0.9375 0,-1.96875 1.21875,-1.96875 0.9375,0 2.8125,1.875 z"
         id="path17121"
         inkscape:connector-curvature="0" />
    </g>
  </g>
</svg>
