<?xml version="1.0" encoding="UTF-8" standalone="no"?>
<!-- Created with Inkscape (http://www.inkscape.org/) -->

<svg
   xmlns:dc="http://purl.org/dc/elements/1.1/"
   xmlns:cc="http://creativecommons.org/ns#"
   xmlns:rdf="http://www.w3.org/1999/02/22-rdf-syntax-ns#"
   xmlns:svg="http://www.w3.org/2000/svg"
   xmlns="http://www.w3.org/2000/svg"
   xmlns:sodipodi="http://sodipodi.sourceforge.net/DTD/sodipodi-0.dtd"
   xmlns:inkscape="http://www.inkscape.org/namespaces/inkscape"
   width="42.242382mm"
   height="18.305872mm"
   viewBox="0 0 42.242382 18.305872"
   version="1.1"
   id="svg29793"
   inkscape:version="0.92.4 (5da689c313, 2019-01-14)"
   sodipodi:docname="G48.svg">
  <defs
     id="defs29787" />
  <sodipodi:namedview
     id="base"
     pagecolor="#ffffff"
     bordercolor="#666666"
     borderopacity="1.0"
     inkscape:pageopacity="0.0"
     inkscape:pageshadow="2"
     inkscape:zoom="0.35"
     inkscape:cx="-366.11528"
     inkscape:cy="-346.00296"
     inkscape:document-units="mm"
     inkscape:current-layer="layer1"
     showgrid="false"
     fit-margin-top="0"
     fit-margin-left="0"
     fit-margin-right="0"
     fit-margin-bottom="0"
     inkscape:window-width="1920"
     inkscape:window-height="1017"
     inkscape:window-x="-8"
     inkscape:window-y="-8"
     inkscape:window-maximized="1" />
  <metadata
     id="metadata29790">
    <rdf:RDF>
      <cc:Work
         rdf:about="">
        <dc:format>image/svg+xml</dc:format>
        <dc:type
           rdf:resource="http://purl.org/dc/dcmitype/StillImage" />
        <dc:title></dc:title>
      </cc:Work>
    </rdf:RDF>
  </metadata>
  <g
     inkscape:label="Layer 1"
     inkscape:groupmode="layer"
     id="layer1"
     transform="translate(-9.5555021,-38.980845)">
    <g
       aria-label="𓅸"
       transform="scale(0.26458333)"
       style="font-style:normal;font-variant:normal;font-weight:normal;font-stretch:normal;font-size:192px;line-height:1.25;font-family:sans-serif;-inkscape-font-specification:'sans-serif, Normal';font-variant-ligatures:normal;font-variant-caps:normal;font-variant-numeric:normal;font-feature-settings:normal;text-align:start;letter-spacing:0px;word-spacing:0px;writing-mode:lr-tb;text-anchor:start;fill:#000000;fill-opacity:1;stroke:none"
       id="flowRoot30338">
      <path
         d="m 62.646484,198.23578 11.90625,4.40625 q -1.6875,-1.59375 -3.28125,-3.28125 -1.59375,-1.78125 -2.34375,-2.8125 l -3.09375,-3.9375 q -2.15625,-2.90625 -3.84375,-4.40625 -1.59375,-1.59375 -2.25,-1.59375 -0.28125,0 -0.84375,0.1875 -0.46875,0.1875 -0.9375,0.28125 -0.75,0.75 -0.75,1.96875 0,3.375 -0.65625,5.15625 -0.65625,1.78125 -3,2.71875 -0.1875,-0.0937 -0.5625,-0.1875 -0.375,-0.0937 -0.84375,-0.1875 -1.875,-1.875 -2.8125,-4.5 -0.9375,-2.625 -0.9375,-5.34375 0,-5.15625 2.90625,-8.90625 -1.96875,-1.5 -3.09375,-4.40625 -1.125,-2.8125 -1.125,-3.84375 l 0.75,-3.28125 q 0,-0.46875 -0.09375,-0.65625 l -0.75,-4.125 q -1.3125,0 -2.25,-0.65625 l -2.25,-1.3125 q -0.46875,0 -1.21875,0.0937 -0.65625,0 -1.40625,0.0937 -0.65625,0.0937 -1.21875,0.1875 -0.5625,0.0937 -0.65625,0.0937 l 2.15625,-2.34375 -1.96875,-0.65625 1.875,-0.75 -2.25,-2.34375 q 4.03125,0 5.625,-1.5 1.78125,-1.59375 4.59375,-1.59375 4.40625,0 6.1875,2.53125 1.78125,2.53125 2.0625,6.84375 l 0.1875,4.125 0.28125,2.0625 q 0.1875,1.875 0.9375,3.09375 0.84375,1.21875 2.625,1.5 l 4.6875,-4.6875 q 4.3125,-4.3125 8.4375,-4.3125 2.34375,0 3.5625,1.03125 1.3125,0.9375 1.875,2.53125 l -0.5625,1.6875 q -1.40625,0.9375 -2.15625,1.96875 l -1.875,2.25 q -1.03125,1.21875 -2.71875,2.25 10.125,4.03125 14.90625,7.5 4.875,3.46875 7.6875,7.59375 l 1.3125,-0.1875 q 0.46875,0 0.65625,0.0937 v -1.125 q 0,-4.875 2.8125,-8.625 -1.875,-1.5 -3.09375,-4.3125 -1.03125,-2.90625 -1.03125,-3.84375 l 0.75,-3.1875 q 0,-0.1875 -0.09375,-0.75 -0.09375,-0.46875 -0.28125,-1.40625 -0.1875,-1.03125 -0.5625,-2.71875 -1.03125,0 -2.0625,-0.75 -1.03125,-0.84375 -2.15625,-1.3125 -1.125,0 -2.15625,0.0937 -0.84375,0.0937 -1.6875,0.1875 -0.84375,0 -1.3125,0 l 3.1875,-1.96875 -2.25,-0.75 2.15625,-0.84375 -2.8125,-2.34375 q 0.9375,0 1.40625,-0.0937 1.3125,0 1.6875,0 0.46875,0 0.65625,0.0937 1.03125,-0.65625 2.53125,-1.875 1.59375,-1.21875 4.125,-1.21875 4.03125,0 5.906246,2.4375 1.96875,2.34375 2.15625,6.5625 l 0.28125,6.75 q 0.28125,1.875 1.125,3.09375 0.84375,1.125 2.625,1.40625 l 4.78125,-4.78125 q 4.21875,-4.21875 8.4375,-4.21875 1.6875,0 3.09375,0.84375 1.5,0.84375 2.25,2.71875 l -0.5625,1.6875 q -0.75,0.46875 -1.5,1.3125 -0.65625,0.84375 -1.5,1.78125 -0.84375,0.9375 -1.78125,1.875 -0.84375,0.9375 -1.96875,1.5 5.53125,2.25 9.28125,4.21875 3.84375,1.96875 6,3.5625 4.3125,3.1875 7.3125,7.21875 l 1.21875,-0.1875 q 0.46875,0 0.65625,0.0937 -1.40625,-3.09375 -1.40625,-6.75 0,-2.34375 0.65625,-4.5 0.65625,-2.25 2.15625,-4.125 -1.875,-1.40625 -3.09375,-4.21875 -1.125,-2.8125 -1.125,-3.84375 l 0.75,-3.28125 q 0,-0.46875 -0.0937,-0.65625 l -0.75,-4.21875 h -0.28125 q -0.9375,0 -1.96875,-0.5625 -1.03125,-0.65625 -2.0625,-1.125 h -4.96875 l 3.9375,-2.0625 -3.1875,-0.5625 3,-0.75 -3.9375,-2.8125 q 0.46875,0 0.84375,0 0.375,0 0.75,0.0937 h 1.3125 q 1.5,0 3.28125,-1.5 2.0625,-1.59375 5.25,-1.59375 3.09375,0 4.875,2.25 1.875,2.25 2.25,6.28125 l 0.5625,7.3125 q 0.28125,3.9375 3.65625,4.5 2.8125,-3 4.78125,-4.78125 2.0625,-1.875 3.28125,-2.625 2.34375,-1.5 5.15625,-1.5 1.78125,0 3.1875,0.84375 1.5,0.84375 2.25,2.71875 l -0.5625,1.6875 q -2.4375,1.6875 -3.75,3.375 -1.21875,1.59375 -3.1875,3 5.25,2.0625 8.90625,3.9375 3.75,1.875 6,3.46875 4.5,3.28125 7.78125,7.6875 0.9375,-0.1875 1.40625,-0.1875 1.5,0 2.34375,0.9375 0.9375,0.84375 0.9375,2.0625 0,2.625 -2.90625,3.75 -2.8125,1.03125 -4.125,3.84375 -0.65625,1.3125 -1.125,2.25 -0.375,0.84375 -0.65625,1.3125 l 3.09375,-0.375 q 0.75,0 1.40625,0 0.65625,0 1.40625,-0.0937 1.78125,0 3.1875,0.28125 1.5,0.1875 2.4375,0.75 0,1.125 0.375,2.15625 -1.03125,1.6875 -3,2.34375 l -3.65625,1.3125 q -6.1875,2.15625 -13.78125,4.03125 -7.59375,1.875 -16.96875,3.46875 -9.375,1.59375 -19.59375,2.34375 -10.125,0.84375 -21.46875,0.84375 -6.84375,0 -14.0625,-0.28125 -7.218746,-0.28125 -14.999996,-1.125 -7.78125,-0.75 -16.21875,-2.15625 -8.34375,-1.5 -17.625,-3.84375 -5.71875,-1.5 -9.46875,-2.625 -3.65625,-1.21875 -5.34375,-1.96875 -3.28125,-1.6875 -3.46875,-3.09375 0,-1.21875 1.59375,-1.78125 1.59375,-0.65625 3.375,-0.65625 1.40625,0 4.125,0.375 2.71875,0.28125 5.4375,0.65625 3.09375,0.375 6.75,0.9375 z m -20.15625,-41.25 q 0.84375,0 1.5,0.375 1.21875,0.65625 1.59375,0.84375 0.46875,0.0937 0.75,0.1875 0.46875,0 0.65625,0 0.28125,-0.0937 0.46875,-0.1875 0.1875,0.1875 0.5625,0.375 0.375,0.0937 1.40625,0.5625 0.5625,1.78125 0.84375,3.46875 0.375,1.6875 0.375,3.375 0,1.40625 -0.46875,3.75 0.5625,1.6875 1.3125,3.65625 0.75,1.875 2.625,2.71875 0.1875,0.65625 0.1875,1.3125 0,0.65625 0.28125,1.3125 -1.59375,1.5 -2.4375,3.5625 -0.75,1.96875 -0.75,4.21875 0,4.03125 2.15625,7.03125 0.65625,-0.9375 0.65625,-2.15625 v -2.34375 q 0,-3 1.6875,-4.21875 1.6875,-1.21875 3.1875,-1.21875 4.40625,0 9.84375,8.25 5.34375,8.15625 11.15625,10.3125 l 3.75,0.65625 q 3.5625,-0.75 5.25,-4.78125 1.875,-4.125 6,-5.53125 l 0.65625,-1.03125 -0.9375,0.0937 q -0.5625,0 -0.9375,0.28125 l -1.6875,-0.75 q -3.28125,-4.78125 -7.78125,-7.875 -4.40625,-3.09375 -9.84375,-5.25 l -7.21875,-2.8125 v -2.8125 q 1.59375,-0.75 2.625,-1.5 1.125,-0.84375 1.96875,-1.6875 l 1.59375,-1.78125 q 0.5625,-0.75 1.96875,-1.78125 -0.75,-0.84375 -1.875,-0.84375 -1.125,0 -3,1.03125 -1.875,1.03125 -3.65625,2.8125 l -4.875,4.78125 q -0.46875,0.1875 -0.84375,0.375 -0.28125,0.0937 -0.46875,0.1875 -3.75,-0.46875 -5.53125,-2.71875 -1.875,-2.4375 -1.875,-9.09375 -0.1875,-2.25 -0.28125,-3.09375 -0.09375,-0.84375 -0.09375,-1.3125 -0.65625,-2.25 -1.875,-3.09375 -1.125,-0.9375 -2.71875,-0.9375 -1.3125,0 -2.4375,0.375 -1.03125,0.28125 -1.875,0.75 -1.03125,0.46875 -1.78125,1.125 z m 95.906246,-5.4375 -1.03125,0.5625 q -0.75,0.375 -1.125,0.46875 l 0.0937,1.40625 h 0.46875 l 0.46875,0.1875 q 0.65625,0.0937 1.5,0.46875 l 1.5,0.5625 h 0.5625 q 0.375,0 0.46875,-0.0937 l 1.96875,0.84375 q 0.5625,1.78125 0.84375,3.46875 0.375,1.6875 0.375,3.375 0,1.40625 -0.46875,3.75 0.65625,2.0625 1.40625,3.84375 0.84375,1.6875 2.625,2.4375 0.1875,0.65625 0.1875,1.3125 0,0.65625 0.28125,1.3125 -1.78125,1.3125 -2.53125,3.28125 -0.75,1.96875 -0.75,4.125 0,4.125 2.15625,7.40625 0.5625,-0.9375 0.5625,-2.0625 v -2.15625 q 0,-1.5 0.46875,-2.53125 0.5625,-1.125 1.3125,-1.78125 0.75,-0.75 1.59375,-1.03125 0.84375,-0.28125 1.59375,-0.28125 4.3125,0 9.9375,8.34375 5.71875,8.4375 11.53125,10.21875 0.5625,0.1875 1.21875,0.46875 0.75,0.28125 1.40625,0.28125 3.9375,-0.375 5.90625,-4.78125 2.0625,-4.5 4.3125,-5.15625 l 2.4375,-0.9375 -0.0937,-0.65625 q -0.46875,0 -0.84375,0.0937 -0.9375,0.1875 -1.03125,0.28125 l -1.6875,-0.75 q -2.625,-3.75 -7.125,-7.21875 -2.15625,-1.78125 -6.5625,-3.84375 -4.40625,-2.15625 -11.15625,-4.78125 v -2.8125 q 1.3125,-0.46875 2.34375,-1.21875 1.125,-0.84375 2.0625,-1.78125 l 1.875,-1.96875 q 0.46875,-0.46875 0.9375,-0.84375 0.5625,-0.46875 1.03125,-0.9375 -0.75,-0.84375 -1.875,-0.84375 -1.125,0 -2.90625,1.03125 -1.78125,1.03125 -3.75,2.8125 l -4.96875,4.6875 q -0.46875,0.1875 -0.84375,0.375 -0.28125,0.0937 -0.46875,0.1875 -3.84375,-0.46875 -5.625,-2.71875 -1.78125,-2.34375 -1.78125,-9.09375 l -0.1875,-2.25 q -0.0937,-0.5625 -0.1875,-1.125 0,-0.5625 0,-1.03125 -1.125,-3.9375 -4.5,-3.9375 -0.75,0 -1.21875,0.0937 z m -47.906246,5.4375 -0.1875,1.6875 q 1.59375,0 2.4375,0.46875 0.9375,0.375 1.40625,0.46875 0.46875,0 0.65625,-0.0937 0.1875,0 0.375,-0.0937 0.09375,0.0937 0.46875,0.28125 0.1875,0.1875 0.5625,0.375 0.46875,0.0937 0.9375,0.28125 0.46875,1.875 0.84375,3.5625 0.375,1.6875 0.375,3.46875 0,0.46875 0,0.9375 0,0.375 -0.09375,0.84375 l -0.375,1.875 q 0.65625,2.15625 1.5,3.75 0.937496,1.59375 2.906246,2.71875 v 2.4375 q -1.78125,1.3125 -2.531246,3.28125 -0.75,1.875 -0.75,4.03125 0,4.125 2.156246,7.40625 0.65625,-0.9375 0.65625,-2.15625 v -2.34375 q 0,-3 1.59375,-4.125 1.6875,-1.21875 3.1875,-1.21875 1.125,0 2.15625,0.46875 1.125,0.375 2.34375,1.40625 1.21875,0.9375 2.625,2.625 1.40625,1.6875 3.28125,4.21875 1.875,2.625 3.46875,4.5 1.6875,1.78125 3.28125,3 3.09375,2.4375 5.0625,2.53125 2.0625,0.1875 2.53125,0.5625 3.75,-0.5625 5.90625,-5.34375 2.0625,-4.875 5.25,-4.875 0.28125,0 0.46875,-0.0937 l 0.28125,-0.28125 0.0937,-0.28125 v -0.5625 l -1.78125,0.375 -1.6875,-0.75 q -1.5,-2.15625 -3.5625,-4.03125 -1.96875,-1.875 -4.40625,-3.65625 -2.4375,-1.78125 -6.65625,-3.84375 -4.21875,-2.0625 -10.3125,-4.40625 v -2.8125 q 1.5,-0.5625 2.71875,-1.5 1.3125,-1.03125 2.25,-1.96875 1.03125,-1.03125 1.78125,-1.875 0.84375,-0.9375 1.40625,-1.40625 -0.75,-0.84375 -1.78125,-0.84375 -1.03125,0 -3,1.125 -1.875,1.03125 -3.75,2.71875 l -4.78125,4.78125 q -0.46875,0.1875 -0.84375,0.375 -0.28125,0.0937 -0.46875,0.1875 -3.84375,-0.46875 -5.625,-2.71875 -1.78125,-2.34375 -1.78125,-9.09375 0,-3.46875 -1.124996,-5.90625 -1.03125,-2.53125 -4.03125,-2.53125 -2.34375,0 -3.65625,0.9375 -1.3125,0.9375 -1.78125,1.125 z m -49.40625,44.90625 q 2.71875,1.40625 7.5,2.71875 4.78125,1.21875 12.28125,3.09375 2.15625,0.5625 6.46875,1.5 4.3125,0.84375 10.96875,1.78125 6.65625,0.84375 15.65625,1.5 9.093746,0.65625 20.718746,0.65625 h 3.9375 q 8.8125,0 16.59375,-0.375 7.875,-0.46875 14.90625,-1.21875 15.1875,-1.78125 32.53125,-6.75 4.40625,-1.21875 6.09375,-1.78125 1.6875,-0.65625 2.71875,-1.125 -1.03125,0 -1.59375,0 -0.46875,0 -0.9375,0.0937 l -16.96875,2.625 q -13.875,2.15625 -27.46875,3.1875 -13.5,0.9375 -27.5625,0.9375 -14.25,0 -26.531246,-0.75 -12.28125,-0.75 -22.875,-2.4375 -3.28125,-0.5625 -6.9375,-1.125 -3.65625,-0.5625 -7.21875,-1.03125 -3.46875,-0.46875 -6.75,-0.84375 -3.1875,-0.46875 -5.53125,-0.65625 z m 104.718746,2.90625 8.4375,-5.625 q 2.0625,0.1875 4.5,0.375 2.15625,0.1875 4.875,0.375 2.8125,0.0937 6.09375,0.1875 -1.03125,-0.5625 -2.34375,-1.6875 -1.3125,-1.21875 -2.625,-2.625 -1.3125,-1.5 -2.625,-3.09375 -1.3125,-1.6875 -2.4375,-3.1875 -4.5,-6.09375 -6.09375,-6.09375 -0.375,0 -0.9375,0.1875 -0.5625,0.1875 -0.84375,0.28125 l -0.5625,0.5625 q -0.375,1.03125 -0.375,2.0625 l -0.0937,1.96875 q -0.0937,1.875 -0.65625,3.09375 -0.46875,1.21875 -2.71875,2.15625 l -0.9375,-0.28125 q -0.28125,1.125 -1.3125,2.15625 -1.03125,0.9375 -2.90625,1.40625 -1.78125,1.3125 -2.71875,4.03125 -0.9375,2.71875 -3.1875,4.21875 z m -58.312496,0 q 0.84375,0.1875 2.53125,0.28125 1.78125,0 3.5625,0.1875 2.0625,0.1875 4.3125,0.28125 l 10.499996,-3.84375 q 3.9375,0.75 7.03125,1.21875 2.71875,0.46875 4.875,0.84375 2.15625,0.375 2.15625,0.28125 -0.84375,-0.84375 -2.0625,-2.0625 -1.21875,-1.3125 -2.53125,-2.71875 -1.3125,-1.5 -2.53125,-3 -1.21875,-1.59375 -2.15625,-2.90625 -3.5625,-5.34375 -6.1875,-5.34375 -1.40625,0 -1.875,0.65625 -0.46875,0.5625 -0.46875,2.15625 v 1.96875 q 0,1.78125 -0.65625,3.09375 -0.5625,1.3125 -2.8125,2.25 -0.1875,-0.0937 -0.5625,-0.1875 -0.375,-0.0937 -0.843746,-0.1875 -1.3125,-1.5 -2.25,-3.46875 -0.84375,0.84375 -2.71875,1.5 -1.96875,0.75 -3.46875,4.21875 -1.59375,3.5625 -3.84375,4.78125 z m 67.218746,-3.375 -4.96875,3.09375 9.375,-1.21875 z m -42.1875,4.3125 -4.3125,-1.5 -4.875,1.3125 z m -66.843746,-50.25 q 0,-0.84375 0.375,-0.84375 0.1875,0 1.3125,0.84375 l -0.84375,0.1875 q -0.46875,0 -0.84375,-0.1875 z m 47.71875,1.59375 q 0,-0.9375 0.375,-0.9375 0.1875,0 1.3125,0.84375 l -1.125,0.1875 q -0.46875,0 -0.5625,-0.0937 z m 46.124996,-4.5 q 0.28125,-0.65625 0.5625,-0.75 h 0.375 l 0.84375,0.65625 q -0.46875,0.375 -1.03125,0.375 -0.46875,0 -0.75,-0.28125 z m -70.687496,50.4375 -6,-2.25 -2.0625,0.84375 z m 46.312496,2.625 h 4.40625 l -7.03125,-1.21875 z m 44.25,-4.03125 3.1875,1.40625 3.9375,-0.65625 z"
         id="path30346"
         inkscape:connector-curvature="0" />
    </g>
  </g>
</svg>
