<?xml version="1.0" encoding="UTF-8" standalone="no"?>
<!-- Created with Inkscape (http://www.inkscape.org/) -->

<svg
   xmlns:dc="http://purl.org/dc/elements/1.1/"
   xmlns:cc="http://creativecommons.org/ns#"
   xmlns:rdf="http://www.w3.org/1999/02/22-rdf-syntax-ns#"
   xmlns:svg="http://www.w3.org/2000/svg"
   xmlns="http://www.w3.org/2000/svg"
   xmlns:sodipodi="http://sodipodi.sourceforge.net/DTD/sodipodi-0.dtd"
   xmlns:inkscape="http://www.inkscape.org/namespaces/inkscape"
   width="37.331055mm"
   height="36.611717mm"
   viewBox="0 0 37.331055 36.611717"
   version="1.1"
   id="svg8"
   inkscape:version="0.92.4 (5da689c313, 2019-01-14)"
   sodipodi:docname="G5.svg">
  <defs
     id="defs2" />
  <sodipodi:namedview
     id="base"
     pagecolor="#ffffff"
     bordercolor="#666666"
     borderopacity="1.0"
     inkscape:pageopacity="0.0"
     inkscape:pageshadow="2"
     inkscape:zoom="0.35"
     inkscape:cx="-371.83008"
     inkscape:cy="-331.90305"
     inkscape:document-units="mm"
     inkscape:current-layer="layer1"
     showgrid="false"
     fit-margin-top="0"
     fit-margin-left="0"
     fit-margin-right="0"
     fit-margin-bottom="0"
     inkscape:window-width="1920"
     inkscape:window-height="1017"
     inkscape:window-x="-8"
     inkscape:window-y="-8"
     inkscape:window-maximized="1" />
  <metadata
     id="metadata5">
    <rdf:RDF>
      <cc:Work
         rdf:about="">
        <dc:format>image/svg+xml</dc:format>
        <dc:type
           rdf:resource="http://purl.org/dc/dcmitype/StillImage" />
        <dc:title></dc:title>
      </cc:Work>
    </rdf:RDF>
  </metadata>
  <g
     inkscape:label="Layer 1"
     inkscape:groupmode="layer"
     id="layer1"
     transform="translate(-11.067541,-24.4056)">
    <g
       aria-label="𓅃"
       transform="scale(0.26458333)"
       style="font-style:normal;font-variant:normal;font-weight:normal;font-stretch:normal;font-size:192px;line-height:1.25;font-family:sans-serif;-inkscape-font-specification:sans-serif;font-variant-ligatures:normal;font-variant-caps:normal;font-variant-numeric:normal;font-feature-settings:normal;text-align:start;letter-spacing:0px;word-spacing:0px;writing-mode:lr-tb;text-anchor:start;fill:#000000;fill-opacity:1;stroke:none"
       id="flowRoot815">
      <path
         d="m 73.423828,161.14789 q -3.9375,-5.4375 -6.5625,-10.03125 -2.53125,-4.6875 -3.75,-7.96875 -2.25,-6.5625 -2.25,-14.4375 0,-3.28125 -0.375,-5.90625 -0.375,-2.71875 -1.125,-6 -1.59375,-6.65625 -8.71875,-6.65625 l -1.21875,-0.75 q -0.375,-1.125 -0.375,-2.34375 0,-1.96875 1.5,-3.75 1.59375,-1.875 3.46875,-3.09375 1.6875,-4.21875 5.71875,-6.09375 4.03125,-1.875 10.875,-1.875 9.9375,0 17.15625,4.40625 7.3125,4.40625 10.40625,12.375 3.656252,2.0625 6.562502,4.3125 3,2.15625 5.625,4.6875 2.625,2.53125 4.875,5.53125 2.34375,2.90625 4.59375,6.375 2.34375,3.5625 3.84375,6.09375 1.59375,2.4375 2.71875,4.125 1.125,1.6875 1.875,2.90625 0.75,1.21875 1.5,2.25 0.65625,0.9375 1.3125,1.96875 0.65625,0.9375 1.5,2.25 0.9375,1.21875 2.15625,3 1.21875,1.78125 2.90625,4.3125 10.5,15.09375 21.65625,28.96875 11.25,13.875 23.625,27.5625 l -1.78125,2.34375 -16.21875,-6.5625 q 2.625,3 4.59375,5.15625 2.0625,2.0625 3.375,3.5625 1.59375,1.6875 2.625,2.90625 l -0.375,2.15625 q -3.28125,3 -7.125,4.5 -3.84375,1.5 -9.1875,1.96875 l -14.4375,1.21875 -1.21875,-0.75 -6.46875,-10.03125 q -5.71875,-8.71875 -11.0625,-15.1875 -5.34375,-6.5625 -11.53125,-11.71875 -1.125,3.9375 -2.0625,7.96875 -0.9375,3.9375 -1.78125,7.96875 l -2.4375,0.65625 -5.4375,-3.9375 q -0.375,1.96875 -0.65625,4.5 -0.28125,2.53125 -0.46875,4.40625 v 1.3125 q 0,3.65625 0.28125,5.15625 0.28125,1.5 1.40625,2.53125 1.6875,1.03125 5.34375,1.6875 3.75,0.65625 9.375,1.03125 0.65625,-0.65625 1.5,-1.21875 0.9375,-0.5625 1.78125,-0.65625 2.0625,0 2.90625,1.6875 0.9375,1.59375 0.9375,3.1875 l -3.5625,-2.25 -2.15625,2.0625 q -4.03125,0 -7.875,-0.0937 -3.84375,-0.1875 -6.84375,-1.21875 -0.9375,0.5625 -2.0625,0.84375 -1.125,0.1875 -2.343752,0.1875 -2.0625,0 -3.5625,-0.28125 -1.5,-0.375 -2.625,-0.84375 -1.96875,0.5625 -5.4375,1.03125 -3.375,0.375 -6.84375,0.46875 h -2.53125 l -2.53125,-1.96875 q -0.84375,0.28125 -1.59375,0.65625 -0.65625,0.28125 -1.6875,1.3125 h -26.8125 l -1.59375,-1.96875 q -0.5625,0.1875 -1.03125,0.5625 -0.46875,0.28125 -0.9375,0.65625 -0.46875,0.28125 -0.9375,0.75 0.46875,-1.6875 1.78125,-2.90625 1.3125,-1.3125 4.125,-1.3125 3.09375,0 6,1.3125 2.4375,0 4.78125,-0.0937 2.4375,-0.1875 4.875,-0.375 l 11.15625,-1.03125 q 2.625,-5.53125 3.9375,-10.6875 1.3125,-5.25 1.3125,-11.8125 0,-3.1875 -0.65625,-6.84375 -0.5625,-3.75 -1.40625,-7.59375 -0.84375,-3.9375 -1.6875,-7.78125 -0.84375,-3.84375 -1.21875,-7.3125 z m 86.343752,42.75 16.59375,6.65625 q -11.0625,-12.65625 -21.375,-25.40625 -10.21875,-12.84375 -19.78125,-26.8125 -5.15625,-7.5 -8.53125,-12.46875 -3.28125,-4.96875 -5.34375,-8.15625 -2.0625,-3.28125 -3.28125,-5.0625 -1.125,-1.875 -1.96875,-3.09375 l -0.375,1.3125 q -2.25,-0.9375 -6.46875,-2.0625 -4.21875,-1.125 -10.031252,-2.0625 -5.71875,-0.9375 -12.75,-1.59375 -7.03125,-0.65625 -14.90625,-0.65625 -1.5,0.65625 -3.1875,3.28125 -1.59375,2.53125 -1.59375,6.75 0,4.21875 0.75,7.6875 0.84375,3.375 2.15625,6.46875 1.3125,3 3,5.71875 1.78125,2.71875 3.65625,5.34375 1.78125,2.53125 5.4375,6.09375 3.75,3.5625 9.09375,7.59375 5.4375,3.9375 12.562502,8.0625 7.125,4.03125 15.84375,7.6875 5.625,2.34375 11.15625,4.59375 5.53125,2.15625 10.78125,4.125 5.25,1.875 9.9375,3.46875 4.6875,1.5 8.625,2.53125 z m -45.9375,-77.34375 -3.65625,-4.40625 q -1.6875,-2.15625 -5.25,-5.0625 -3.375,-2.8125 -5.062502,-3.5625 l -1.59375,-0.84375 q -3,-1.5 -3.5625,-3.9375 -0.5625,-2.34375 -4.21875,-6.1875 -3.84375,-3.9375 -10.5,-6.28125 3.28125,2.0625 5.0625,4.6875 1.6875,2.4375 1.6875,7.78125 0,5.625 -3.65625,8.34375 -3.65625,2.71875 -9.84375,2.71875 -0.75,0 -1.59375,0 -0.84375,-0.0937 -1.6875,-0.1875 l 0.1875,-2.8125 q 0.75,0.0937 1.40625,0.1875 0.65625,0 1.3125,0 4.40625,0 7.5,-1.96875 3.09375,-2.0625 3.09375,-6.46875 0,-5.34375 -3.46875,-8.8125 -3.375,-3.5625 -9.84375,-3.5625 -2.25,0 -4.125,0.1875 -1.875,0.1875 -3.28125,0.84375 -1.40625,0.65625 -2.15625,1.78125 -0.75,1.125 -0.75,3.09375 0,2.71875 2.34375,4.03125 2.4375,1.3125 6.65625,1.3125 l -1.59375,11.34375 -2.71875,-0.1875 1.03125,-9.1875 h -0.46875 q -2.90625,0 -5.25,-1.875 -2.34375,-1.875 -3.28125,-5.53125 -1.21875,1.125 -2.8125,2.34375 -1.5,1.125 -1.875,2.90625 5.90625,0.375 8.53125,4.6875 2.71875,4.3125 3.1875,11.34375 l 0.5625,8.0625 0.75,-2.90625 q 0.84375,-2.90625 2.90625,-5.0625 2.0625,-2.15625 6.28125,-2.25 h 1.3125 q 4.875,0 12.46875,0.75 7.59375,0.75 18.656252,3.46875 l 7.96875,2.0625 z m 44.15625,79.875 q -5.8125,-1.96875 -10.96875,-3.5625 -5.0625,-1.59375 -9.9375,-3.1875 -4.875,-1.6875 -9.75,-3.5625 -4.875,-1.96875 -10.3125,-4.59375 5.90625,4.78125 11.25,11.53125 5.4375,6.75 10.78125,14.90625 l 6.1875,9.65625 7.78125,-0.375 q 2.53125,-0.0937 5.15625,-0.46875 2.71875,-0.375 5.25,-1.03125 2.53125,-0.65625 4.78125,-1.6875 2.25,-1.03125 3.9375,-2.4375 z m -55.3125,-4.5 5.15625,3.84375 4.21875,-16.59375 q -1.59375,-0.65625 -3.28125,-1.5 -1.5,-0.75 -3.375,-1.6875 -1.875,-0.9375 -3.75,-2.0625 -3.937502,-2.15625 -6.750002,-3.9375 -2.8125,-1.78125 -4.6875,-3.28125 -3.375,-2.625 -5.34375,-4.21875 -1.96875,-1.6875 -3.28125,-2.71875 -1.21875,-1.03125 -2.0625,-1.78125 -0.75,-0.75 -1.6875,-1.78125 1.03125,3.375 3.1875,7.6875 2.15625,4.21875 4.96875,9.1875 2.8125,4.875 6,10.40625 3.28125,5.53125 6.375,11.34375 z M 78.017578,174.64789 q 1.3125,6.84375 2.8125,12.84375 1.5,6 2.15625,11.625 v 2.15625 l 2.90625,2.8125 6.1875,5.0625 3.09375,-4.03125 z m 2.53125,50.0625 q 1.59375,0 3.46875,0 1.96875,-0.0937 3.9375,-0.28125 1.96875,-0.1875 3.84375,-0.46875 1.96875,-0.28125 3.65625,-0.75 0.5625,-1.40625 0.9375,-2.625 0.46875,-1.3125 0.65625,-2.8125 0.1875,-1.59375 0.28125,-3.5625 0.09375,-1.96875 0.09375,-4.6875 0,-0.375 -0.09375,-0.75 0,-0.375 0,-0.75 v -0.75 l -3.75,4.96875 -2.25,0.1875 -6.9375,-5.625 q -2.0625,4.125 -3,9 -0.84375,4.875 -0.84375,8.90625 z m -8.90625,-122.0625 q -3.5625,2.53125 -5.25,2.53125 -2.625,0 -2.625,-2.625 0,-3.1875 2.625,-3.1875 1.78125,0 5.25,3.28125 z"
         id="path823"
         inkscape:connector-curvature="0" />
    </g>
  </g>
</svg>
