<?xml version="1.0" encoding="UTF-8" standalone="no"?>
<!-- Created with Inkscape (http://www.inkscape.org/) -->

<svg
   xmlns:dc="http://purl.org/dc/elements/1.1/"
   xmlns:cc="http://creativecommons.org/ns#"
   xmlns:rdf="http://www.w3.org/1999/02/22-rdf-syntax-ns#"
   xmlns:svg="http://www.w3.org/2000/svg"
   xmlns="http://www.w3.org/2000/svg"
   xmlns:sodipodi="http://sodipodi.sourceforge.net/DTD/sodipodi-0.dtd"
   xmlns:inkscape="http://www.inkscape.org/namespaces/inkscape"
   width="38.199215mm"
   height="26.813866mm"
   viewBox="0 0 38.199215 26.813866"
   version="1.1"
   id="svg30355"
   inkscape:version="0.92.4 (5da689c313, 2019-01-14)"
   sodipodi:docname="G50.svg">
  <defs
     id="defs30349" />
  <sodipodi:namedview
     id="base"
     pagecolor="#ffffff"
     bordercolor="#666666"
     borderopacity="1.0"
     inkscape:pageopacity="0.0"
     inkscape:pageshadow="2"
     inkscape:zoom="0.35"
     inkscape:cx="-411.83037"
     inkscape:cy="-342.85715"
     inkscape:document-units="mm"
     inkscape:current-layer="layer1"
     showgrid="false"
     fit-margin-top="0"
     fit-margin-left="0"
     fit-margin-right="0"
     fit-margin-bottom="0"
     inkscape:window-width="1920"
     inkscape:window-height="1017"
     inkscape:window-x="-8"
     inkscape:window-y="-8"
     inkscape:window-maximized="1" />
  <metadata
     id="metadata30352">
    <rdf:RDF>
      <cc:Work
         rdf:about="">
        <dc:format>image/svg+xml</dc:format>
        <dc:type
           rdf:resource="http://purl.org/dc/dcmitype/StillImage" />
        <dc:title></dc:title>
      </cc:Work>
    </rdf:RDF>
  </metadata>
  <g
     inkscape:label="Layer 1"
     inkscape:groupmode="layer"
     id="layer1"
     transform="translate(-21.650951,-31.305179)">
    <g
       aria-label="𓅺"
       style="font-style:normal;font-variant:normal;font-weight:normal;font-stretch:normal;font-size:50.79999924px;line-height:1.25;font-family:sans-serif;-inkscape-font-specification:'sans-serif, Normal';font-variant-ligatures:normal;font-variant-caps:normal;font-variant-numeric:normal;font-feature-settings:normal;text-align:start;letter-spacing:0px;word-spacing:0px;writing-mode:lr-tb;text-anchor:start;fill:#000000;fill-opacity:1;stroke:none;stroke-width:0.26458332"
       id="text30902">
      <path
         d="m 43.355051,47.725881 1.215429,0.42168 1.066602,0.124023 q 0.09922,0 0.322461,0.02481 0.223242,0.02481 0.79375,0.07441 0.570508,0.04961 1.637109,0.148828 1.066602,0.07441 2.877344,0.223243 1.339453,0.124023 3.100586,0.248046 1.785937,0.09922 4.142383,0.297657 -0.396875,-0.446485 -0.892969,-0.768946 -0.471289,-0.322461 -1.21543,-0.74414 -0.37207,-0.198438 -0.570508,-0.297657 -0.198437,-0.09922 -0.37207,-0.09922 -0.124023,0 -0.347266,0 -0.198437,-0.02481 -0.396875,-0.04961 -0.248046,-0.0248 -0.471289,-0.0248 l -0.818554,-0.868164 q 0.496093,0 1.513086,0.07441 1.041796,0.07441 2.455664,0.248047 -0.372071,-0.124024 -0.744141,-0.272852 -0.347266,-0.173633 -0.694531,-0.347266 L 54.541965,45.44385 Q 53.773019,45.046975 52.383957,44.327639 51.019699,43.608303 49.010519,42.492092 45.041769,40.30928 42.263644,39.93721 39.48552,39.565139 39.48552,38.151272 q 0,-1.041797 0.09922,-1.860351 0.124024,-0.818555 0.124024,-1.612305 0,-0.768945 -0.148828,-1.265039 -0.148829,-0.520899 -0.42168,-0.79375 -0.272852,-0.297656 -0.669727,-0.396875 -0.37207,-0.124024 -0.843359,-0.124024 -0.496094,0 -1.116211,0.223243 -0.595312,0.198437 -1.413867,0.768945 -0.42168,0.37207 -0.595313,0.520898 -0.148828,0.148828 -0.272851,0.198438 0.719336,0.148828 1.141015,0.42168 0.42168,0.248046 0.719336,0.520898 0.446485,0.396875 0.644922,1.116211 0.223242,0.719336 0.223242,1.661914 0,0.644922 -0.07441,1.116211 0,0.124023 -0.04961,0.248047 -0.04961,0.124023 -0.09922,0.248047 -0.07441,0.124023 -0.124023,0.272851 -0.07441,0.148828 -0.297656,0.446485 -0.198438,0.272851 -0.272852,0.396875 v 0.818554 q 0,0.868164 0.124023,1.289844 0.124024,0.347266 0.42168,0.768945 0.148828,0.198438 0.42168,0.446485 0.272851,0.248046 0.669726,0.570507 0.818555,0.620118 1.711524,1.141016 0.892968,0.520898 1.934765,1.240234 z m -8.160742,-7.317382 q -0.694532,-0.173633 -1.289844,-0.198438 l -2.331641,-0.148828 q -1.53789,-0.124023 -1.53789,-1.289844 0,-0.223242 0.04961,-0.570508 0.04961,-0.37207 0.09922,-0.669726 l 0.42168,-2.083594 q 0.04961,-0.347265 0.124023,-0.669726 0.07441,-0.322461 0.148828,-0.644922 -0.148828,-0.669727 -0.347266,-1.066602 -0.173632,-0.396875 -0.421679,-0.620117 -0.223242,-0.223242 -0.545703,-0.272851 -0.297657,-0.07442 -0.669727,-0.07442 -0.272851,0 -0.595312,0.07442 -0.322461,0.04961 -0.595313,0.09922 -0.74414,0.173633 -1.289844,0.644922 -0.520898,0.471289 -1.141015,0.967383 1.339453,0.173633 1.984375,0.967383 0.644922,0.768945 0.644922,1.909961 0,0.942578 -0.396875,2.505273 -0.396875,1.562695 -0.396875,2.38125 0,0.892969 0.471289,1.5875 0.446484,0.669727 2.083593,1.761133 1.5875,1.091406 2.00918,1.265039 0.198438,0.09922 0.868164,0.446484 0.669727,0.322461 1.785938,0.892969 0.992187,0.42168 1.413867,0.669726 l 3.497461,0.248047 H 41.44509 L 40.700949,47.105764 38.022043,45.44385 q -1.413867,-0.868164 -2.158008,-1.860351 -0.74414,-1.016993 -0.74414,-2.356446 0,-0.37207 0.07441,-0.818554 z m 8.061523,17.710546 0.694531,-0.520898 0.09922,-0.07441 h 2.80293 V 51.79385 q 0,-1.041797 -0.595313,-1.785937 -0.595312,-0.768946 -1.537891,-1.041797 l -1.612304,-0.471289 q -0.322461,0.843359 -0.396875,1.909961 -0.04961,1.041796 -0.04961,2.158007 v 3.943946 q 0,0.421679 0,0.843359 0,0.396875 0.02481,0.768945 h -4.167187 q 0.248047,-0.173633 0.496093,-0.37207 0.124024,-0.09922 0.248047,-0.223242 h 2.778125 V 49.660647 L 41.89158,49.313381 h -2.75332 q -0.223242,0.79375 -0.37207,1.488282 -0.124024,0.694531 -0.198438,1.389062 -0.07441,0.669727 -0.09922,1.389063 0,0.694531 0,1.463476 v 3.075781 h -3.993554 l 0.396875,-0.595312 h 2.976562 v -4.613672 q 0,-0.967383 -0.173633,-1.637109 -0.173632,-0.694532 -0.595312,-1.190625 -0.396875,-0.520899 -1.091406,-0.892969 -0.694532,-0.396875 -1.736328,-0.768945 -0.223243,0.37207 -0.42168,1.016992 -0.198438,0.644922 -0.248047,1.314648 -0.04961,0.644922 -0.09922,1.16582 -0.0248,0.520899 -0.04961,0.942579 0,0.421679 -0.02481,0.79375 0,0.37207 0,0.74414 0,0.917774 0.02481,1.860352 0.04961,0.942578 0.09922,1.860351 h -4.291211 l 0.818554,-0.595312 h 2.728516 v -7.887891 q 0,-0.198437 -0.198438,-0.620117 -0.173632,-0.42168 -0.37207,-0.843359 -0.248047,-0.471289 -0.545703,-1.041797 -2.80293,-1.389063 -4.092773,-2.75332 -1.265039,-1.364258 -1.265039,-2.778125 0,-0.545703 0.09922,-1.091407 0.124024,-0.570507 0.272852,-1.141015 0.297656,-1.21543 0.37207,-1.736328 0.09922,-0.545703 0.09922,-0.768946 0,-0.967382 -0.79375,-1.686718 -0.768945,-0.744141 -2.455664,-0.744141 -0.496094,0 -1.16582,0.04961 -0.669727,0.04961 -1.066602,0.173633 l -0.02481,-0.124023 q 0.669727,-0.272852 1.314649,-0.471289 0.644922,-0.198438 1.289844,-0.322461 0.719336,-0.694531 1.314648,-1.141016 0.595313,-0.471289 1.091406,-0.74414 0.496094,-0.297657 0.917774,-0.396875 0.446484,-0.124024 0.868164,-0.124024 0.818554,0 1.686718,0.297656 0.868165,0.272852 1.240235,1.389063 l 0.148828,0.42168 q 0.04961,0.124023 0.07441,0.446484 0.04961,0.322461 0.07441,0.446484 0.446484,-0.198437 0.868164,-0.347265 0.446484,-0.148828 0.942578,-0.272852 0.79375,-0.942578 1.463477,-1.463476 0.694531,-0.545704 1.16582,-0.669727 0.967383,-0.272852 1.661914,-0.272852 1.289844,0 1.984375,0.892969 0.719336,0.868164 0.719336,2.654102 -0.09922,1.16582 -0.198438,1.761133 -0.07441,0.595312 -0.07441,1.016992 0,0.843359 0.570508,1.141015 0.644922,0.322461 2.554883,0.570508 0.992187,0.124024 2.629297,0.843359 1.637109,0.719336 4.043164,1.959571 l 4.960937,2.604492 q 0.892969,0.471289 1.488281,0.768945 0.595313,0.272852 1.041797,0.471289 0.446485,0.173633 0.818555,0.322461 0.37207,0.148828 0.868164,0.347266 l 0.669727,0.719336 -2.926953,-0.322461 q 0.868164,0.520898 1.53789,1.116211 0.694531,0.570508 1.041797,1.190625 l 0.148828,0.223242 -0.396875,0.520898 q -0.694531,-0.04961 -1.463476,-0.09922 -0.768946,-0.04961 -2.00918,-0.124024 -1.21543,-0.09922 -3.100586,-0.223242 -1.860351,-0.148828 -4.737695,-0.347266 -0.347266,1.066602 -0.42168,2.182813 -0.04961,1.091406 -0.04961,2.207617 v 4.415234 z M 36.161691,37.407132 q 0,-1.339454 -0.644921,-2.182813 -0.620118,-0.843359 -2.058789,-0.843359 -0.42168,0 -0.942579,0.04961 -0.520898,0.04961 -0.942578,0.09922 -0.09922,0.520898 -0.248047,1.091406 -0.124023,0.545703 -0.248046,1.141016 -0.09922,0.570507 -0.173633,1.116211 -0.07441,0.545703 -0.07441,1.016992 0.0248,0.173633 0.223242,0.322461 0.223242,0.124023 0.620117,0.124023 0.124023,0 0.248047,0 0.124023,0 0.248047,-0.02481 1.041797,0.04961 1.810742,0.124024 0.768945,0.04961 1.488281,0.223242 l 0.595313,-0.843359 q 0.04961,-0.148828 0.04961,-0.297657 0.02481,-0.148828 0.04961,-0.322461 z m -8.086328,-4.489649 q -0.446484,0.297656 -0.620117,0.297656 -0.148828,0 -0.148828,-0.173632 0,-0.42168 0.297656,-0.42168 0.173633,0 0.471289,0.297656 z m 9.202539,0 q -0.496093,0.297656 -0.694531,0.297656 -0.223242,0 -0.223242,-0.297656 0,-0.297656 0.198437,-0.297656 0.272852,0 0.719336,0.297656 z m 0.84336,17.437695 q 0.07441,-0.272851 0.124023,-0.471289 0.07441,-0.198437 0.124024,-0.347265 0.07441,-0.173633 0.124023,-0.297657 l -1.537891,-0.124023 q 0.198438,0.124023 0.42168,0.297656 0.42168,0.347266 0.744141,0.942578 z m -4.836914,-1.339453 q 0.09922,-0.396875 0.198437,-0.669726 0.04961,-0.124024 0.07441,-0.248047 -0.198437,-0.09922 -0.37207,-0.198438 -0.148828,-0.07441 -0.272852,-0.124023 -0.124023,-0.07441 -0.148828,-0.07441 0.124024,0.173632 0.223242,0.396875 0.173633,0.347265 0.297657,0.917773 z m 9.053711,0.07441 0.272851,-0.917773 q -0.272851,-0.148828 -0.471289,-0.248047 -0.198437,-0.09922 -0.347266,-0.173633 -0.124023,-0.07441 -0.148828,-0.07441 z m 4.762499,1.141016 0.223243,-0.967383 -1.165821,-0.124023 q 0.173633,0.124023 0.347266,0.297656 0.148828,0.148828 0.297656,0.347265 0.173633,0.198438 0.297656,0.446485 z"
         style="stroke-width:0.26458332"
         id="path30904"
         inkscape:connector-curvature="0" />
    </g>
  </g>
</svg>
