<?xml version="1.0" encoding="UTF-8" standalone="no"?>
<!-- Created with Inkscape (http://www.inkscape.org/) -->

<svg
   xmlns:dc="http://purl.org/dc/elements/1.1/"
   xmlns:cc="http://creativecommons.org/ns#"
   xmlns:rdf="http://www.w3.org/1999/02/22-rdf-syntax-ns#"
   xmlns:svg="http://www.w3.org/2000/svg"
   xmlns="http://www.w3.org/2000/svg"
   xmlns:sodipodi="http://sodipodi.sourceforge.net/DTD/sodipodi-0.dtd"
   xmlns:inkscape="http://www.inkscape.org/namespaces/inkscape"
   width="37.703125mm"
   height="32.171665mm"
   viewBox="0 0 37.703125 32.171665"
   version="1.1"
   id="svg17692"
   inkscape:version="0.92.4 (5da689c313, 2019-01-14)"
   sodipodi:docname="G51.svg">
  <defs
     id="defs17686" />
  <sodipodi:namedview
     id="base"
     pagecolor="#ffffff"
     bordercolor="#666666"
     borderopacity="1.0"
     inkscape:pageopacity="0.0"
     inkscape:pageshadow="2"
     inkscape:zoom="0.35"
     inkscape:cx="-363.25977"
     inkscape:cy="-333.44407"
     inkscape:document-units="mm"
     inkscape:current-layer="layer1"
     showgrid="false"
     fit-margin-top="0"
     fit-margin-left="0"
     fit-margin-right="0"
     fit-margin-bottom="0"
     inkscape:window-width="1920"
     inkscape:window-height="1017"
     inkscape:window-x="-8"
     inkscape:window-y="-8"
     inkscape:window-maximized="1" />
  <metadata
     id="metadata17689">
    <rdf:RDF>
      <cc:Work
         rdf:about="">
        <dc:format>image/svg+xml</dc:format>
        <dc:type
           rdf:resource="http://purl.org/dc/dcmitype/StillImage" />
        <dc:title></dc:title>
      </cc:Work>
    </rdf:RDF>
  </metadata>
  <g
     inkscape:label="Layer 1"
     inkscape:groupmode="layer"
     id="layer1"
     transform="translate(-8.7999796,-28.437924)">
    <g
       aria-label="𓅻"
       transform="scale(0.26458333)"
       style="font-style:normal;font-variant:normal;font-weight:normal;font-stretch:normal;font-size:192px;line-height:1.25;font-family:sans-serif;-inkscape-font-specification:sans-serif;font-variant-ligatures:normal;font-variant-caps:normal;font-variant-numeric:normal;font-feature-settings:normal;text-align:start;letter-spacing:0px;word-spacing:0px;writing-mode:lr-tb;text-anchor:start;fill:#000000;fill-opacity:1;stroke:none"
       id="flowRoot18237">
      <path
         d="m 175.75977,136.91937 q -15.28125,5.625 -31.5,9.84375 -16.125,4.125 -32.34375,5.625 v 40.03125 l 4.21875,0.9375 q 1.125,0.28125 1.6875,0.5625 0.5625,0.1875 0.9375,0.46875 0.375,0.28125 0.65625,0.65625 0.28125,0.375 0.75,0.9375 5.0625,1.3125 10.6875,2.4375 5.71875,1.125 10.78125,1.875 2.625,0.375 4.40625,0.65625 1.78125,0.1875 2.90625,0.28125 1.21875,0.0937 1.96875,0.1875 0.75,0 1.40625,0 0.46875,0 1.03125,0 0.65625,0 2.25,-0.1875 1.875,-0.1875 3.9375,-0.84375 2.15625,-0.65625 4.40625,-1.875 4.6875,-2.4375 6.65625,-2.4375 l 1.3125,2.4375 q -0.75,0.75 -1.21875,1.21875 -0.46875,0.46875 -0.84375,0.84375 -0.28125,0.375 -0.5625,0.75 -0.28125,0.375 -0.65625,0.84375 -1.21875,1.59375 -1.6875,2.90625 -0.46875,1.3125 -0.46875,2.625 0,2.71875 1.6875,5.0625 l 3.75,5.34375 -1.3125,2.4375 q -3,0 -9.5625,-4.03125 -6.5625,-4.03125 -15.1875,-4.03125 -5.53125,0 -11.15625,1.59375 1.03125,1.03125 2.0625,2.0625 1.125,1.03125 2.15625,2.0625 l 4.21875,4.125 -1.3125,2.4375 q -2.71875,-0.28125 -4.78125,-0.46875 -1.96875,-0.1875 -3.5625,-0.46875 -1.59375,-0.1875 -2.8125,-0.5625 -1.21875,-0.28125 -2.34375,-0.84375 l -8.0625,-4.59375 q -6.46875,1.78125 -12.84375,2.8125 -6.28125,1.125 -13.031254,1.3125 l 2.8125,4.6875 -1.3125,2.4375 q -0.46875,0 -1.21875,-0.0937 -1.3125,-0.1875 -3.75,-0.28125 -2.90625,0 -4.6875,-1.5 -1.875,-1.40625 -5.71875,-5.15625 -1.875,-1.875 -3.84375,-3.28125 -1.96875,-1.5 -3.9375,-2.53125 h -4.96875 q -4.5,-0.0937 -8.15625,-1.3125 -3.65625,-1.21875 -5.71875,-3.9375 l -1.03125,-1.5 q -0.1875,-0.1875 -0.46875,-0.65625 -0.28125,-0.5625 -0.65625,-1.125 -0.28125,-0.5625 -0.5625,-1.03125 -0.28125,-0.5625 -0.375,-0.84375 -5.34375,-1.875 -8.4375,-3.75 -3.09375,-1.875 -4.40625,-3.75 -2.0625,-2.71875 -3.375,-5.53125 -1.3125,-2.8125 -1.3125,-5.71875 0,-3.09375 1.78125,-5.625 1.78125,-2.625 5.34375,-4.03125 v -53.90625 q 0,-2.71875 1.59375,-5.71875 1.6875,-2.90625 9.46875,-6.46875 3.9375,-1.78125 9.09375,-2.8125 5.15625,-1.03125 11.71875,-1.03125 6.46875,0 12.375,0.9375 5.90625,0.84375 13.03125,2.71875 14.156254,3.65625 23.906254,6.75 l 17.8125,5.71875 q 9,2.90625 17.8125,5.625 8.90625,2.625 18.1875,4.59375 z m -133.125004,60.65625 8.53125,7.40625 q 3.5625,-3.84375 13.125,-6.84375 4.78125,-1.5 8.90625,-2.625 4.125,-1.125 7.6875,-1.6875 0.28125,-1.40625 1.5,-1.40625 0.28125,0 1.125,0.1875 0.9375,0.1875 1.5,0.1875 0.84375,0 1.875,-0.1875 1.03125,-0.1875 1.875,-0.5625 l 4.03125,-36.65625 -5.34375,-6.375 q -1.78125,-0.1875 -7.03125,-1.6875 -5.25,-1.5 -12,-3.9375 -6.75,-2.4375 -11.71875,-3.65625 -4.875,-1.3125 -7.59375,-1.40625 -1.59375,0 -1.78125,0.75 -0.09375,0.375 -0.5625,2.8125 -0.375,2.34375 -1.125,6.84375 -1.59375,9.09375 -1.59375,16.40625 v 2.15625 q 0,2.25 0.28125,4.40625 0.375,2.15625 0.65625,4.3125 0.375,2.0625 0.65625,4.125 0.375,2.0625 0.375,4.125 0,2.90625 -0.5625,5.90625 -0.5625,2.90625 -2.15625,6.09375 z m 6.84375,-82.03125 q 7.78125,5.4375 13.875,8.71875 6.09375,3.28125 11.90625,5.0625 7.875,2.25 13.96875,3.46875 6.09375,1.21875 11.906254,1.78125 5.90625,0.5625 12,0.75 6.09375,0.0937 13.875,0.0937 h 12.375 q 3.75,0 8.25,-0.0937 4.59375,-0.1875 8.53125,-0.375 4.59375,-0.1875 9.28125,-0.46875 -8.4375,-2.15625 -19.96875,-5.625 -11.53125,-3.46875 -26.625,-8.53125 -29.812504,-9.9375 -46.593754,-9.9375 -5.34375,0 -10.5,0.9375 -5.0625,0.9375 -9.84375,3.09375 z m 31.6875,81.375 h -0.09375 q -3.28125,0.46875 -6.9375,1.5 -3.65625,0.9375 -7.78125,2.25 -4.03125,1.3125 -6.75,2.4375 -2.625,1.03125 -3.9375,1.96875 -0.65625,0.46875 -0.84375,0.75 -0.1875,0.1875 -0.28125,0.375 0.65625,1.59375 1.6875,2.90625 1.03125,1.21875 2.625,2.15625 1.59375,0.84375 3.84375,1.40625 2.34375,0.46875 5.625,0.46875 1.03125,0 1.40625,0 0.46875,0 0.9375,-0.0937 1.03125,0 1.5,0.0937 0.46875,0 0.84375,0.0937 2.25,-0.65625 3.09375,-1.6875 0.9375,-1.03125 0.9375,-2.4375 -0.1875,-1.6875 -0.84375,-3.1875 -0.65625,-1.59375 -1.59375,-3.28125 l 2.53125,-1.6875 1.40625,2.90625 q 0.375,0.65625 0.84375,2.15625 0.46875,1.40625 0.5625,2.90625 0,0.75 -0.09375,1.6875 -0.09375,0.9375 -0.28125,1.125 -0.65625,1.875 -2.90625,3.1875 l 7.03125,1.96875 q 2.0625,0.65625 4.875,1.3125 2.8125,0.65625 4.875,0.65625 0.9375,0 2.53125,0 1.6875,-0.0937 3.46875,-0.1875 1.875004,-0.0937 3.843754,-0.28125 1.96875,-0.1875 3.65625,-0.5625 4.59375,-1.03125 8.90625,-1.96875 4.40625,-1.03125 10.03125,-2.53125 2.34375,-0.5625 4.5,-1.125 l 1.875,-0.5625 q 6.46875,-2.0625 13.3125,-2.0625 4.875,0 9.28125,1.21875 4.5,1.125 8.0625,3.09375 l 3.65625,2.0625 q -1.40625,-2.15625 -2.34375,-4.21875 -0.84375,-2.0625 -0.84375,-4.21875 0,-3.1875 2.53125,-6.75 l -4.21875,1.875 q -1.875,0.84375 -4.125,1.40625 -2.15625,0.46875 -4.96875,0.46875 -1.5,0 -2.90625,-0.0937 -1.40625,-0.1875 -2.90625,-0.375 l -5.625,-0.75 q -5.34375,-0.75 -11.71875,-2.0625 -6.375,-1.3125 -13.96875,-3.1875 -8.90625,-2.25 -19.125004,-2.25 -7.21875,0 -15.1875,1.125 z m -34.5,-79.6875 q -1.875,1.3125 -2.625,3.09375 -0.65625,1.6875 -0.65625,3.46875 v 23.25 q 0.1875,-1.21875 0.375,-2.53125 0.1875,-1.125 0.375,-2.34375 0.1875,-1.3125 0.46875,-2.53125 0.46875,-2.25 1.59375,-3.1875 1.21875,-1.03125 4.3125,-1.03125 3.84375,0 15.09375,3.9375 11.4375,3.9375 16.6875,5.0625 l 5.71875,1.21875 q 3.46875,0.75 6.84375,1.40625 3.46875,0.5625 6.843754,1.125 6.65625,1.21875 10.125,1.21875 4.21875,0 10.125,-0.84375 5.90625,-0.84375 13.59375,-2.625 7.78125,-1.78125 15.09375,-3.84375 7.3125,-2.0625 14.34375,-4.5 -7.875,0.375 -13.78125,0.65625 -5.8125,0.1875 -10.3125,0.375 -4.40625,0.0937 -7.875,0.1875 -3.375,0 -6.375,0 -3,0 -6.9375,-0.0937 -3.84375,-0.1875 -10.21875,-0.5625 -7.6875,-0.46875 -15.562504,-1.40625 -7.875,-1.03125 -14.90625,-3 -7.59375,-2.15625 -13.59375,-4.96875 -5.90625,-2.90625 -10.125,-5.4375 -4.96875,-3 -8.625,-6.09375 z m 45.09375,74.8125 q 2.15625,0 4.03125,-0.375 1.96875,-0.46875 2.625,-0.46875 0.65625,0 1.21875,0.375 0.656254,0.375 0.937504,1.875 0.1875,-0.75 0.46875,-1.40625 0.28125,-0.75 1.40625,-0.75 0.84375,0 1.59375,0.375 0.84375,0.28125 1.59375,0.375 0.46875,0.1875 1.03125,0.28125 0.65625,0 1.21875,0.0937 0.65625,0.0937 1.3125,0.0937 v -37.21875 l -5.4375,-4.125 -7.875004,-1.03125 z m -51.46875,5.8125 q 0,-0.65625 -0.09375,-1.03125 0,-0.65625 -0.09375,-0.9375 1.59375,-3.28125 2.25,-6.375 0.65625,-3.09375 0.65625,-6.1875 0,-2.15625 -0.28125,-4.59375 -0.5625,0.5625 -0.9375,1.21875 -2.90625,1.125 -4.40625,3 -1.5,1.875 -1.5,4.6875 0,0.46875 0,0.84375 0,0.375 0.09375,0.84375 0,0.46875 0.65625,2.71875 0.75,2.15625 2.34375,4.3125 z m 84.187504,18.9375 6.46875,3.65625 6.84375,0.84375 -6.375,-6.28125 z m -31.406254,8.8125 -2.34375,-3.84375 -8.15625,-2.0625 q 1.21875,1.03125 2.53125,2.25 1.3125,1.3125 3,2.8125 2.4375,0.46875 3.375,0.5625 0.9375,0.1875 1.59375,0.28125 z m -54.375,-34.5 q 1.3125,1.3125 1.3125,1.875 0,0.65625 -1.3125,0.65625 -1.21875,0 -1.21875,-0.65625 0,-0.65625 1.21875,-1.875 z m 29.0625,11.71875 q -1.59375,1.125 -2.34375,1.125 -0.75,0 -0.75,-1.03125 0,-1.03125 0.84375,-1.03125 0.75,0 2.25,0.9375 z"
         id="path18245"
         inkscape:connector-curvature="0" />
    </g>
  </g>
</svg>
