<?xml version="1.0" encoding="UTF-8" standalone="no"?>
<!-- Created with Inkscape (http://www.inkscape.org/) -->

<svg
   xmlns:dc="http://purl.org/dc/elements/1.1/"
   xmlns:cc="http://creativecommons.org/ns#"
   xmlns:rdf="http://www.w3.org/1999/02/22-rdf-syntax-ns#"
   xmlns:svg="http://www.w3.org/2000/svg"
   xmlns="http://www.w3.org/2000/svg"
   xmlns:sodipodi="http://sodipodi.sourceforge.net/DTD/sodipodi-0.dtd"
   xmlns:inkscape="http://www.inkscape.org/namespaces/inkscape"
   width="38.025585mm"
   height="21.381639mm"
   viewBox="0 0 38.025585 21.381639"
   version="1.1"
   id="svg18254"
   inkscape:version="0.92.4 (5da689c313, 2019-01-14)"
   sodipodi:docname="G52.svg">
  <defs
     id="defs18248" />
  <sodipodi:namedview
     id="base"
     pagecolor="#ffffff"
     bordercolor="#666666"
     borderopacity="1.0"
     inkscape:pageopacity="0.0"
     inkscape:pageshadow="2"
     inkscape:zoom="0.35"
     inkscape:cx="-314.6875"
     inkscape:cy="-341.50662"
     inkscape:document-units="mm"
     inkscape:current-layer="layer1"
     showgrid="false"
     fit-margin-top="0"
     fit-margin-left="0"
     fit-margin-right="0"
     fit-margin-bottom="0"
     inkscape:window-width="1920"
     inkscape:window-height="1017"
     inkscape:window-x="-8"
     inkscape:window-y="-8"
     inkscape:window-maximized="1" />
  <metadata
     id="metadata18251">
    <rdf:RDF>
      <cc:Work
         rdf:about="">
        <dc:format>image/svg+xml</dc:format>
        <dc:type
           rdf:resource="http://purl.org/dc/dcmitype/StillImage" />
        <dc:title></dc:title>
      </cc:Work>
    </rdf:RDF>
  </metadata>
  <g
     inkscape:label="Layer 1"
     inkscape:groupmode="layer"
     id="layer1"
     transform="translate(4.0514322,-37.094734)">
    <g
       aria-label="𓅼"
       transform="scale(0.26458333)"
       style="font-style:normal;font-variant:normal;font-weight:normal;font-stretch:normal;font-size:192px;line-height:1.25;font-family:sans-serif;-inkscape-font-specification:sans-serif;font-variant-ligatures:normal;font-variant-caps:normal;font-variant-numeric:normal;font-feature-settings:normal;text-align:start;letter-spacing:0px;word-spacing:0px;writing-mode:lr-tb;text-anchor:start;fill:#000000;fill-opacity:1;stroke:none"
       id="flowRoot18799">
      <path
         d="m 126.53125,185.66937 q -3.65625,0 -7.6875,-0.46875 -3.9375,-0.5625 -7.21875,-1.125 l -5.71875,-0.9375 q -3,-0.46875 -6.1875,-0.75 -3.09375,-0.375 -6.1875,-0.375 -8.34375,0 -13.3125,2.90625 -4.96875,2.8125 -6.28125,10.03125 l -4.40625,22.875 q 0.75,-0.1875 2.53125,-0.46875 1.78125,-0.375 2.53125,-0.375 0.375,0 0.75,0.0937 0.375,0 0.65625,0.375 0.375,0.28125 0.65625,1.03125 0.28125,0.75 0.46875,2.0625 H 17.96875 q 0,-2.71875 0.65625,-3.375 0.65625,-0.65625 2.625,-0.65625 0.65625,0 1.125,0.1875 0.5625,0.1875 1.21875,0.46875 0.75,0.28125 1.78125,0.46875 1.125,0.1875 3,0.1875 h 9.375 l 6.75,-22.21875 q -1.5,-5.90625 -4.5,-11.625 -2.90625,-5.71875 -7.21875,-11.90625 -8.625,-12.28125 -16.40625,-12.28125 -3.75,0 -7.3125,2.71875 -3.28125,2.625 -4.875,6.46875 l -1.40625,3.375 q -0.5625,16.59375 -4.21875,26.25 -1.875,4.875 -3.46875,8.15625 -1.5,3.1875 -1.5,5.34375 0,2.15625 -0.09375,4.5 -0.09375,2.34375 -0.75,4.40625 l -0.9375,-0.1875 q -0.9375,-2.90625 -1.125,-5.15625 -0.1875,-2.34375 -0.1875,-4.875 v -3.9375 q -3.28125,-4.59375 -4.59375,-8.90625 -1.21875,-4.3125 -1.21875,-7.6875 0,-13.3125 16.125,-31.6875 16.125,-18.375 42.9375,-18.375 14.25,0 29.4375,5.25 15.1875,5.25 26.625,11.53125 5.90625,3.1875 12.46875,7.03125 6.5625,3.84375 14.15625,8.34375 l -0.9375,2.71875 h -5.34375 q 2.0625,2.15625 4.03125,4.21875 2.0625,1.96875 4.21875,3.9375 z M 120.25,172.07562 q -9.84375,-5.8125 -17.25,-9.9375 -7.40625,-4.125 -12.65625,-6.5625 -5.15625,-2.53125 -11.15625,-4.6875 -5.90625,-2.25 -12,-3.9375 -6,-1.6875 -11.8125,-2.625 -5.71875,-1.03125 -10.5,-1.03125 -4.21875,0 -7.125,0.28125 -2.8125,0.1875 -4.96875,0.65625 l 1.59375,1.5 -0.75,0.75 q -1.03125,1.03125 -1.96875,2.625 -0.9375,1.59375 -0.9375,3.46875 0,1.40625 0.75,3.375 0.75,1.96875 2.71875,4.3125 l 3.9375,1.96875 q 5.0625,2.4375 13.96875,5.0625 9.09375,2.625 32.53125,3.65625 3.375,0.1875 6.46875,0.375 2.71875,0.1875 5.4375,0.28125 2.71875,0 4.59375,0 1.875,0 5.15625,0.0937 3.28125,0.0937 6.375,0.1875 3.65625,0.0937 7.59375,0.1875 z m -4.5,2.90625 q -2.0625,0 -4.125,0 -1.96875,-0.0937 -3.9375,-0.1875 -4.59375,-0.0937 -9.5625,-0.28125 -4.21875,-0.1875 -9.375,-0.28125 -5.15625,-0.0937 -10.21875,-0.28125 -14.15625,-0.375 -25.125,-2.90625 -10.875,-2.53125 -19.96875,-7.6875 -0.9375,-0.65625 -1.6875,-1.40625 -0.65625,-0.84375 -1.875,-2.4375 -0.5625,-0.9375 -1.40625,-2.8125 -0.75,-1.96875 -0.75,-4.03125 0,-2.90625 1.5,-5.34375 1.5,-2.4375 2.25,-2.90625 -13.125,2.71875 -22.78125,10.96875 -9.5625,8.25 -15.46875,18.65625 -5.71875,10.21875 -5.71875,17.625 0,2.34375 1.125,5.53125 0.65625,1.59375 1.21875,2.71875 0.65625,1.03125 1.21875,1.6875 0.375,0.75 0.5625,1.21875 0.1875,0.375 0.28125,0.75 0.1875,0.28125 0.375,0.75 0.1875,0.46875 0.5625,1.21875 0.1875,0.28125 0.84375,-1.78125 0.65625,-2.15625 2.25,-6.65625 3.1875,-9 3.5625,-18.84375 l 0.28125,-6.46875 q 0.09375,-1.59375 1.3125,-3.84375 1.3125,-2.25 3.65625,-5.15625 4.59375,-5.90625 12.09375,-5.90625 4.96875,0 10.21875,4.125 2.625,2.0625 5.71875,5.90625 3.1875,3.75 6.46875,9.375 3.28125,5.625 4.875,8.90625 1.59375,3.28125 2.15625,6 3.28125,-4.59375 6.65625,-6.28125 3.375,-1.6875 7.875,-1.6875 2.90625,0 4.875,0.65625 1.96875,0.5625 3.28125,1.5 1.3125,0.9375 2.0625,1.96875 0.84375,1.03125 1.3125,1.875 1.59375,-2.71875 3.46875,-4.59375 1.875,-1.96875 4.3125,-3.1875 2.53125,-1.21875 5.71875,-1.78125 3.28125,-0.5625 7.6875,-0.5625 2.625,0 5.90625,0.375 3.28125,0.28125 7.3125,0.9375 4.03125,0.65625 6.5625,1.03125 2.53125,0.28125 3.65625,0.46875 l 6.375,0.65625 z m -54.65625,11.34375 q -2.15625,0 -4.59375,0.5625 -2.34375,0.46875 -4.59375,2.53125 -1.59375,1.5 -2.90625,3.9375 -1.3125,2.34375 -2.53125,6.1875 l -5.53125,18.28125 h 25.5 l 4.5,-23.0625 v -0.28125 q 0,-0.1875 0,-0.28125 0.09375,-0.0937 0.09375,-0.28125 0,-0.46875 -0.09375,-1.21875 -0.09375,-0.75 -0.46875,-1.5 -0.65625,-1.59375 -2.15625,-2.8125 -1.125,-0.9375 -2.90625,-1.5 -1.78125,-0.5625 -4.3125,-0.5625 z m -70.875,6.375 q -1.21875,0 -1.21875,-0.9375 0,-0.9375 1.6875,-3.09375 1.59375,1.78125 1.59375,2.90625 0,0.9375 -1.59375,1.125 z"
         id="path18807"
         inkscape:connector-curvature="0" />
    </g>
  </g>
</svg>
