<?xml version="1.0" encoding="UTF-8" standalone="no"?>
<!-- Created with Inkscape (http://www.inkscape.org/) -->

<svg
   xmlns:dc="http://purl.org/dc/elements/1.1/"
   xmlns:cc="http://creativecommons.org/ns#"
   xmlns:rdf="http://www.w3.org/1999/02/22-rdf-syntax-ns#"
   xmlns:svg="http://www.w3.org/2000/svg"
   xmlns="http://www.w3.org/2000/svg"
   xmlns:sodipodi="http://sodipodi.sourceforge.net/DTD/sodipodi-0.dtd"
   xmlns:inkscape="http://www.inkscape.org/namespaces/inkscape"
   width="34.528126mm"
   height="37.975975mm"
   viewBox="0 0 34.528126 37.975975"
   version="1.1"
   id="svg8"
   inkscape:version="0.92.4 (5da689c313, 2019-01-14)"
   sodipodi:docname="G53.svg">
  <defs
     id="defs2" />
  <sodipodi:namedview
     id="base"
     pagecolor="#ffffff"
     bordercolor="#666666"
     borderopacity="1.0"
     inkscape:pageopacity="0.0"
     inkscape:pageshadow="2"
     inkscape:zoom="0.35"
     inkscape:cx="-337.54464"
     inkscape:cy="-401.6384"
     inkscape:document-units="mm"
     inkscape:current-layer="layer1"
     showgrid="false"
     fit-margin-top="0"
     fit-margin-left="0"
     fit-margin-right="0"
     fit-margin-bottom="0"
     inkscape:window-width="1920"
     inkscape:window-height="1017"
     inkscape:window-x="-8"
     inkscape:window-y="-8"
     inkscape:window-maximized="1" />
  <metadata
     id="metadata5">
    <rdf:RDF>
      <cc:Work
         rdf:about="">
        <dc:format>image/svg+xml</dc:format>
        <dc:type
           rdf:resource="http://purl.org/dc/dcmitype/StillImage" />
        <dc:title></dc:title>
      </cc:Work>
    </rdf:RDF>
  </metadata>
  <g
     inkscape:label="Layer 1"
     inkscape:groupmode="layer"
     id="layer1"
     transform="translate(-1.9961868,-4.5905313)">
    <g
       aria-label="𓅽"
       style="font-style:normal;font-variant:normal;font-weight:normal;font-stretch:normal;font-size:50.79999924px;line-height:1.25;font-family:sans-serif;-inkscape-font-specification:'sans-serif, Normal';font-variant-ligatures:normal;font-variant-caps:normal;font-variant-numeric:normal;font-feature-settings:normal;text-align:start;letter-spacing:0px;word-spacing:0px;writing-mode:lr-tb;text-anchor:start;fill:#000000;fill-opacity:1;stroke:none;stroke-width:0.26458332"
       id="text4520"
       transform="translate(0,4.5357143)">
      <path
         d="M 24.593257,37.708332 H 9.3879835 l 0.8185545,-0.396875 q -0.07441,-0.02481 -0.173633,-0.07441 -0.099218,-0.02481 -0.2232418,-0.04961 -0.099219,-0.02481 -0.2728515,-0.02481 -0.2976563,0 -0.7441407,0.09922 -0.4216796,0.09922 -0.9921874,0.446484 0.4960937,-0.719336 0.9425781,-1.066601 0.471289,-0.372071 1.0417968,-0.372071 0.3224605,0 0.6697265,0.223242 0.347266,0.198438 0.545703,0.396875 h 3.199805 q 0.272851,-2.33164 0.42168,-3.621484 0.173632,-1.314648 0.248046,-1.95957 0.07441,-0.644922 0.07441,-0.84336 0.0248,-0.198437 0.0248,-0.297656 0,-0.843359 -0.322461,-1.835547 -0.322461,-1.016992 -0.719336,-2.257226 -0.396875,-1.265039 -0.843359,-2.505274 -0.42168,-1.240234 -0.843359,-2.530078 -0.79375,-2.505273 -1.165821,-3.075781 L 10.454585,16.500325 Q 10.032905,15.508137 9.8096632,14.615168 9.586421,13.697395 9.586421,12.730012 q 0,-0.496094 0.049609,-1.016992 Q 9.685639,11.192122 9.7848581,10.572004 9.512007,9.9022778 8.7678664,9.5798169 8.0485304,9.2325512 7.1803664,9.2325512 7.0563429,9.2821606 6.9075148,9.406184 6.7834914,9.5302075 6.6346633,9.6542309 6.4610305,9.803059 6.2873976,9.9766919 L 5.4440383,9.5550122 Q 5.6672805,9.406184 5.8409133,9.2573559 5.9897414,9.1333325 6.1137648,9.0093091 6.262593,8.8604809 6.262593,8.7364575 6.262593,8.6124341 6.188179,8.3891919 6.1385695,8.1659497 6.0641555,7.9179028 5.9897414,7.6450513 5.9153273,7.3970044 5.8409133,7.1241528 5.8161086,6.9009106 H 5.3696242 L 4.9975539,6.4296216 Q 5.0471633,6.15677 5.1959914,5.8343091 5.3696242,5.4870435 5.6176711,5.0901685 6.1137648,4.2964185 6.1137648,3.701106 q 0,-0.9425781 1.3146485,-2.3068359 Q 8.718257,0.054817 11.198726,0.054817 q 2.629297,0 3.869531,1.4882812 1.265039,1.4882813 1.438672,4.2416015 v 0.4464844 q 0,0.8433594 -0.173633,1.6867187 -0.173633,0.8185547 -0.471289,1.6123047 2.629297,1.2898435 4.663281,3.6710935 1.016992,1.190625 2.033984,2.703711 1.016993,1.513086 2.083594,3.373438 2.108399,3.745507 4.266406,5.92832 2.207617,2.232422 4.886524,4.440039 l 2.579687,2.108398 -0.223242,0.471289 -2.505273,-0.719336 2.877343,3.150196 -0.09922,0.570507 -3.59668,2.80293 -0.496094,-0.02481 -7.9375,-9.822656 q -0.37207,1.488281 -0.79375,2.579688 -0.421679,1.091406 -0.644922,1.463476 l -0.644921,0.173633 -1.835547,-1.835547 q 0.07441,0.37207 0.09922,0.694531 0.04961,0.322461 0.07441,0.620118 0.04961,0.297656 0.04961,0.620117 0.02481,0.297656 0.02481,0.694531 0,0.868164 -0.04961,1.860352 -0.04961,0.967382 -0.07441,1.835546 h 2.38125 q 0.396875,-0.272851 0.744141,-0.446484 0.347265,-0.173633 0.694531,-0.173633 0.471289,0 0.992187,0.396875 0.520899,0.396875 1.190625,1.041797 -0.719336,-0.223242 -1.240234,-0.396875 -0.520898,-0.173633 -0.79375,-0.173633 -0.09922,0 -0.272851,0.04961 -0.148829,0.04961 -0.496094,0.124023 z M 11.719624,26.74466 q -0.942578,1.339453 -1.5875,2.827735 -0.620117,1.488281 -1.1658201,3.050976 l -0.396875,0.272852 H 4.5758742 L 4.2038039,32.573762 Q 3.9309524,30.986262 3.3852493,29.622004 2.8643508,28.232942 1.9961868,26.893488 l 0.1736328,-0.79375 H 4.9727492 Q 4.8239211,23.916926 4.0797805,22.056574 3.3604446,20.171418 2.2442336,18.311067 l 0.5705078,-0.520899 q 2.2324219,1.686719 3.6462891,3.720703 1.4138671,2.033985 2.4060546,4.588867 H 11.372359 Z M 13.60478,9.2573559 q 0.272852,0 0.620118,0.024805 0.347265,0.024805 0.892968,0.024805 0.272852,-0.7689453 0.446485,-1.661914 0.173632,-0.8929688 0.173632,-1.7859375 0,-2.3068359 -1.141015,-3.646289 -1.141016,-1.36425781 -3.447852,-1.36425781 -1.141015,0 -2.1828121,0.42167971 -1.0169922,0.4216797 -1.7611328,1.7115234 1.0417968,0.2232422 1.8355468,0.6697265 0.8185547,0.4464844 1.5626951,1.116211 0,-0.2728516 0.04961,-0.5457032 0.07441,-0.2976562 0.198437,-0.5208984 0.124024,-0.2480469 0.297656,-0.396875 0.198438,-0.1488281 0.471289,-0.1488281 0.248047,0 0.520899,0.1240234 0.272851,0.1240235 0.496094,0.322461 0.223242,0.1984375 0.37207,0.471289 0.148828,0.2480469 0.148828,0.4960938 -0.02481,0.3224609 -0.09922,0.5208984 -0.04961,0.1984375 -0.173633,0.396875 l -0.297656,0.3720703 v 0.396875 q 0,0.396875 0.148828,0.9177734 0.148828,0.4960938 0.347266,0.9673828 0.223242,0.5457031 0.520898,1.1162109 z M 28.487593,29.448371 q -0.04961,-0.0248 -0.396875,-0.148828 -0.347266,-0.148828 -0.992188,-0.396875 -1.314648,-0.520898 -1.711523,-0.74414 0.917773,1.141015 1.810742,2.257226 0.917773,1.116211 1.835547,2.232422 l 3.646289,4.514453 2.951758,-2.306836 q -0.694532,-0.768945 -1.364258,-1.513086 -0.570508,-0.644922 -1.21543,-1.314648 -0.620117,-0.669727 -1.091406,-1.165821 -0.917774,-0.396875 -1.736328,-0.719336 z M 2.9139602,26.893488 q 1.5130859,2.43086 2.0091797,5.208985 H 8.321382 Q 8.7430617,30.688606 9.3135695,29.423567 9.8840773,28.158528 10.653023,26.893488 Z M 7.1555617,8.5876294 q 0.5705078,0 1.0169922,0.049609 0.4464843,0.024805 0.8185546,0.1736329 Q 9.3631789,8.934895 9.6856398,9.2077466 10.008101,9.4805981 10.355366,9.9270825 10.85146,9.6294262 11.397163,9.4805981 11.942866,9.33177 12.662202,9.2573559 12.43896,8.6620434 12.290132,8.3147778 12.166108,7.9427075 12.06689,7.6450513 11.992476,7.347395 11.918062,7.0497388 11.868452,6.7520825 11.794038,6.3055982 V 5.7846997 Q 11.893257,5.4870435 12.06689,5.2141919 12.265327,4.9165357 12.389351,4.6436841 12.290132,4.3956372 12.116499,4.2220044 11.967671,4.0483716 11.620405,3.9491529 11.397163,4.4700513 11.397163,4.9909497 v 0.322461 l -0.421679,0.396875 H 10.702632 Q 10.231343,5.3382154 9.8344679,5.0157544 9.4375929,4.6932935 9.0159132,4.4700513 8.5942336,4.2220044 8.0981398,4.0483716 7.6268508,3.8747388 6.9571242,3.7507154 6.8827101,4.3956372 6.5354445,4.9413404 6.2129836,5.4870435 5.9649367,6.1071607 h 0.1984375 q 0.1984375,0.1984375 0.2728516,0.2728515 0.099219,0.074414 0.1488281,0.1240235 0,0.1984375 0.049609,0.4464843 0.049609,0.2480469 0.099219,0.5457031 0.049609,0.2728516 0.099219,0.5457032 0.074414,0.2480468 0.099219,0.4216796 z M 16.754976,23.495246 16.060444,22.974348 q 1.066602,2.033984 1.661914,3.150195 0.595313,1.116211 0.719336,1.339453 0.124024,0.198438 0.223243,0.396875 0.09922,0.173633 0.173632,0.322461 l 0.496094,0.917774 q 0.297656,0.198437 0.545703,0.297656 0.248047,0.07441 0.42168,0.07441 0.148828,0 0.223242,-0.0248 l 1.934766,1.984375 q 0.421679,-0.942578 0.719336,-1.934765 0.322461,-0.992188 0.570507,-2.033985 L 22.75771,26.992707 Q 20.525288,25.95091 19.012202,25.008332 17.499116,24.065754 16.754976,23.495246 Z M 14.720991,21.882942 Q 14.175288,21.411653 13.65439,20.915559 13.158296,20.419465 12.662202,19.873762 l 3.125391,9.078516 2.232422,1.389062 0.520898,-1.016992 Q 18.41689,29.101106 18.268062,28.877863 18.144038,28.654621 18.020015,28.406574 l -0.496094,-0.917773 q -0.248047,-0.396875 -0.446484,-0.768945 -0.198438,-0.396875 -0.396875,-0.818555 z m 5.084961,15.006835 q 0.04961,-1.364257 0.0248,-2.207617 0,-0.868164 0.02481,-1.190625 0,-0.768945 -0.04961,-1.265039 -0.02481,-0.496094 -0.124023,-0.868164 -0.07441,-0.396875 -0.198438,-0.719336 -0.09922,-0.347265 -0.248047,-0.79375 l -0.669726,1.190625 -0.520899,0.248047 -1.885156,-1.116211 q -0.07441,0.744141 -0.198437,1.5875 -0.09922,0.84336 -0.223243,1.711524 -0.124023,0.868164 -0.248046,1.736328 -0.124024,0.868164 -0.248047,1.686718 z M 4.0549758,19.824153 q 0.7193359,1.562695 1.1658203,3.075781 0.4464844,1.488281 0.5457031,3.199804 H 8.0237257 Q 7.3539992,24.313801 6.3618117,22.751106 5.3944289,21.18841 4.0549758,19.824153 Z M 8.5942336,5.7102857 q -0.4712891,0.2480468 -0.7689454,0.2480468 -0.4216796,0 -0.4216796,-0.5457031 0,-0.3720703 0.1984375,-0.3720703 0.3224609,0 0.9921875,0.6697266 z m 4.3160154,4.3408203 q -0.892969,0 -1.463476,0.297656 -0.570508,0.297656 -0.818555,0.520899 l -0.09922,0.396875 q -0.09922,0.37207 -0.09922,1.066601 0,1.711524 0.744141,3.522266 0.744141,1.785937 2.257227,3.522265 1.513085,1.736328 3.472656,3.150196 1.95957,1.389062 4.365625,2.678906 2.406054,1.289843 5.55625,2.654101 3.175,1.364258 7.143749,2.80293 -1.413867,-1.141016 -2.728515,-2.282031 -1.314649,-1.165821 -2.554883,-2.356446 -2.455664,-2.430859 -3.745508,-4.663281 -0.669726,-1.16582 -1.438671,-2.406054 -0.768946,-1.265039 -1.63711,-2.629297 -0.868164,-1.364258 -1.661914,-2.331641 -0.768945,-0.992187 -1.488281,-1.5875 -1.413867,-1.215429 -2.306836,-1.661914 -0.892969,-0.471289 -0.992187,-0.496094 z"
         style="stroke-width:0.26458332"
         id="path4522"
         inkscape:connector-curvature="0" />
    </g>
  </g>
</svg>
