<?xml version="1.0" encoding="UTF-8" standalone="no"?>
<!-- Created with Inkscape (http://www.inkscape.org/) -->

<svg
   xmlns:dc="http://purl.org/dc/elements/1.1/"
   xmlns:cc="http://creativecommons.org/ns#"
   xmlns:rdf="http://www.w3.org/1999/02/22-rdf-syntax-ns#"
   xmlns:svg="http://www.w3.org/2000/svg"
   xmlns="http://www.w3.org/2000/svg"
   xmlns:sodipodi="http://sodipodi.sourceforge.net/DTD/sodipodi-0.dtd"
   xmlns:inkscape="http://www.inkscape.org/namespaces/inkscape"
   width="38.025597mm"
   height="32.891014mm"
   viewBox="0 0 38.025597 32.891014"
   version="1.1"
   id="svg18816"
   inkscape:version="0.92.4 (5da689c313, 2019-01-14)"
   sodipodi:docname="G54.svg">
  <defs
     id="defs18810" />
  <sodipodi:namedview
     id="base"
     pagecolor="#ffffff"
     bordercolor="#666666"
     borderopacity="1.0"
     inkscape:pageopacity="0.0"
     inkscape:pageshadow="2"
     inkscape:zoom="0.35"
     inkscape:cx="-346.11518"
     inkscape:cy="-361.60032"
     inkscape:document-units="mm"
     inkscape:current-layer="layer1"
     showgrid="false"
     fit-margin-top="0"
     fit-margin-left="0"
     fit-margin-right="0"
     fit-margin-bottom="0"
     inkscape:window-width="1920"
     inkscape:window-height="1017"
     inkscape:window-x="-8"
     inkscape:window-y="-8"
     inkscape:window-maximized="1" />
  <metadata
     id="metadata18813">
    <rdf:RDF>
      <cc:Work
         rdf:about="">
        <dc:format>image/svg+xml</dc:format>
        <dc:type
           rdf:resource="http://purl.org/dc/dcmitype/StillImage" />
        <dc:title></dc:title>
      </cc:Work>
    </rdf:RDF>
  </metadata>
  <g
     inkscape:label="Layer 1"
     inkscape:groupmode="layer"
     id="layer1"
     transform="translate(-4.263809,-20.268902)">
    <g
       aria-label="𓅾"
       transform="scale(0.26458333)"
       style="font-style:normal;font-variant:normal;font-weight:normal;font-stretch:normal;font-size:192px;line-height:1.25;font-family:sans-serif;-inkscape-font-specification:sans-serif;font-variant-ligatures:normal;font-variant-caps:normal;font-variant-numeric:normal;font-feature-settings:normal;text-align:start;letter-spacing:0px;word-spacing:0px;writing-mode:lr-tb;text-anchor:start;fill:#000000;fill-opacity:1;stroke:none"
       id="flowRoot19361">
      <path
         d="m 16.115234,124.23187 q 0,-3.28125 0.75,-7.96875 0.84375,-4.6875 2.90625,-6.28125 2.0625,-1.59375 6.1875,-4.78125 4.125,-3.28125 8.34375,-5.249996 4.3125,-2.0625 8.15625,-2.15625 0.46875,-1.96875 0.75,-4.40625 0.375,-2.4375 2.71875,-4.6875 2.4375,-2.34375 4.875,-4.59375 l 4.21875,-3.75 3.09375,-2.34375 q 1.6875,-1.3125 3.5625,-1.40625 h 0.5625 q 3,0 4.59375,1.78125 1.59375,1.78125 1.59375,3.9375 0,1.96875 -1.40625,3.84375 -1.40625,1.78125 -4.21875,2.25 l -3.09375,6.09375 q 8.53125,-0.65625 16.96875,-1.125 8.4375,-0.46875 16.96875,-0.46875 6.468746,0 12.843746,0.375 6.375,0.28125 12.84375,1.21875 l 0.65625,-1.40625 q 0.75,-1.875 3.46875,-4.21875 2.71875,-2.34375 3.65625,-2.90625 1.03125,-0.5625 3.1875,-0.5625 l 1.5,0.09375 q 1.125,0 9.28125,-0.375 8.25,-0.375 13.78125,-2.4375 0.46875,0.28125 1.03125,0.46875 l 0.9375,0.46875 q 0.75,1.3125 1.21875,2.8125 0.46875,1.5 0.46875,3 0,2.71875 -1.875,4.6875 -0.9375,0.375 -1.3125,0.5625 -5.71875,0 -10.5,1.125 -4.6875,1.03125 -6.1875,3 0,0.9375 1.03125,2.062496 1.125,1.03125 2.53125,1.96875 l 5.53125,4.21875 q 2.15625,1.6875 4.21875,3.5625 l 2.71875,2.53125 q 2.25,2.25 3.65625,5.53125 1.5,3.1875 1.5,6.09375 0,6.84375 -7.6875,13.96875 -7.6875,7.03125 -16.5,11.4375 -0.1875,0.5625 -0.28125,1.21875 -0.0937,0.5625 -0.28125,1.125 0.1875,0.46875 0.28125,0.9375 0.0937,0.375 0.28125,0.84375 2.625,2.0625 7.03125,4.6875 4.40625,2.53125 5.15625,2.53125 0.84375,0 3.9375,1.5 0,0.46875 0.0937,1.03125 0.0937,0.5625 0.28125,1.125 -1.3125,2.15625 -3.28125,4.3125 -1.96875,2.0625 -3.5625,2.25 h -0.46875 q -2.90625,0 -13.40625,-5.4375 -10.40625,-5.4375 -15.375,-6.65625 l -0.65625,-0.375 -0.5625,-0.375 -1.5,-3.28125 q -0.84375,-1.59375 -1.40625,-3.28125 -5.15625,0.75 -10.125,1.03125 -4.968746,0.28125 -10.031246,0.28125 -7.59375,0 -15.1875,-0.65625 -7.5,-0.65625 -15.1875,-1.875 1.3125,1.96875 3.28125,3.5625 l 3.9375,3.09375 q 1.875,1.5 3.28125,3.09375 1.40625,1.5 1.59375,3.375 v 0.28125 q 0,2.34375 -2.25,4.125 -2.15625,1.6875 -4.125,1.6875 -1.6875,0 -3.375,-1.40625 -1.6875,-1.40625 -2.34375,-1.96875 l -6.1875,-4.875 q -4.5,-3.46875 -6.375,-7.3125 -1.78125,-3.84375 -2.0625,-10.59375 -4.125,-1.21875 -7.6875,-3.46875 -3.5625,-2.34375 -6.65625,-5.15625 0,1.21875 -0.09375,2.625 0,4.78125 1.59375,10.96875 1.6875,6.09375 4.125,11.0625 2.53125,4.96875 6.9375,6 4.40625,0.9375 9,3.1875 4.6875,2.25 10.40625,11.25 5.8125,9 9.65625,12.1875 3.9375,3.1875 4.6875,5.71875 l -0.1875,1.40625 -0.46875,0.46875 -1.78125,0.46875 q -11.25,-7.5 -25.3125,-14.0625 -14.0625,-6.65625 -24.09375,-24.375 -10.03125,-17.8125 -10.78125,-37.6875 z m 99.468746,29.625 1.59375,3 q 5.8125,1.5 14.15625,6 8.4375,4.40625 13.5,5.8125 1.3125,-0.65625 2.25,-1.59375 0.9375,-1.03125 1.6875,-2.15625 -0.75,-0.28125 -1.5,-0.375 -0.75,-0.0937 -1.40625,-0.375 l -2.90625,-1.5 q -9.46875,-4.96875 -10.21875,-7.5 -0.75,-2.53125 -0.75,-2.90625 0,-0.75 0.28125,-1.5 0.375,-0.84375 0.5625,-1.875 0.9375,-0.84375 1.125,-1.03125 0.28125,-0.28125 4.3125,-2.53125 4.125,-2.34375 7.03125,-4.5 3,-2.15625 4.96875,-4.125 2.0625,-1.96875 3.65625,-4.21875 1.6875,-2.25 2.34375,-4.125 0.65625,-1.875 0.65625,-3.75 0,-7.3125 -10.59375,-14.71875 -10.5,-7.5 -10.5,-11.062496 0,-1.96875 2.25,-3.46875 2.25,-1.5 5.53125,-2.15625 l 2.71875,-0.5625 q 2.15625,-0.375 4.21875,-0.5625 2.0625,-0.28125 4.21875,-0.375 0.75,-0.84375 0.75,-2.53125 l -0.28125,-1.6875 q -0.1875,-0.75 -0.5625,-1.5 -5.71875,2.0625 -15.46875,2.34375 -9.65625,0.28125 -10.5,0.28125 l -4.21875,3.375 q -0.84375,0.9375 -1.59375,1.96875 -0.75,0.9375 -0.75,2.25 -0.375,1.03125 -0.75,2.25 -0.28125,1.125 -0.28125,2.156246 0,0.46875 0.0937,0.9375 l 0.0937,0.5625 q 0,0.1875 0.1875,1.125 0.28125,0.84375 0.65625,1.6875 l -1.40625,0.65625 -1.3125,0.5625 q -0.65625,-1.21875 -0.9375,-2.53125 -0.28125,-1.3125 -0.28125,-2.53125 v -0.75 q 0,-0.749996 0.0937,-1.406246 0.0937,-0.65625 0.28125,-1.40625 -6.46875,-0.84375 -12.84375,-1.125 -6.281246,-0.375 -12.749996,-0.375 -9.09375,0 -18,0.5625 -8.90625,0.46875 -17.90625,1.125 l -1.21875,-2.25 4.59375,-9.09375 1.21875,-0.75 q 1.96875,-0.375 2.90625,-1.3125 0.9375,-1.03125 0.9375,-2.0625 0,-1.03125 -0.9375,-1.78125 -0.9375,-0.84375 -2.4375,-0.84375 h -0.65625 q -4.6875,2.4375 -9.65625,7.40625 -4.875,4.96875 -5.34375,5.4375 -0.28125,1.6875 -0.5625,3.5625 -0.1875,1.78125 -0.84375,3.46875 0,1.218746 0.9375,3.187496 0.9375,1.96875 1.6875,3.09375 l 0.28125,0.5625 -2.71875,1.21875 q -0.5625,-1.03125 -1.03125,-2.0625 l -0.84375,-1.96875 q -0.28125,-0.65625 -1.125,-2.71875 -4.3125,0.375 -9.1875,3 -4.78125,2.53125 -12.375,9.84375 l -1.03125,5.4375 q -0.5625,2.71875 -0.5625,5.4375 0.5625,14.71875 5.8125,27.28125 5.34375,12.5625 12.09375,20.53125 6.84375,7.875 19.78125,14.15625 1.59375,-0.75 2.25,-1.78125 0.75,-1.125 0.9375,-1.875 l 0.28125,-2.25 q -3.1875,-5.15625 -5.625,-7.125 -2.4375,-2.0625 -7.125,-3.375 l -3.84375,-1.125 q -6.375,-1.6875 -10.03125,-11.0625 -3.65625,-9.375 -4.03125,-19.03125 l -0.09375,-2.0625 q 0,-1.21875 0.09375,-2.34375 0.09375,-1.125 0.375,-2.25 l 2.71875,-0.65625 q 3,3.1875 6.46875,5.71875 3.5625,2.53125 7.78125,3.84375 1.3125,-2.8125 3.65625,-3.9375 l 1.40625,2.625 q -1.3125,0.65625 -1.78125,1.40625 -0.46875,0.75 -0.46875,1.21875 l -0.09375,0.65625 q 0.28125,4.21875 1.21875,9.09375 0.9375,4.78125 15.84375,15.09375 1.125,0 1.96875,-0.46875 0.84375,-0.5625 1.5,-1.3125 l 0.28125,-0.84375 q -0.375,-1.59375 -1.78125,-2.90625 -1.40625,-1.40625 -3.1875,-2.625 l -2.0625,-1.3125 q -2.25,-1.6875 -3.84375,-3.65625 -1.5,-2.0625 -2.4375,-4.6875 l 1.875,-1.6875 q 8.53125,1.40625 16.21875,2.15625 7.78125,0.75 15.65625,0.75 5.0625,0 10.218746,-0.28125 5.15625,-0.375 10.59375,-1.03125 0,-1.59375 1.5,-3.65625 1.5,-2.15625 2.0625,-3.09375 0.65625,-0.9375 4.3125,-3.65625 l 1.875,2.34375 -1.59375,1.21875 q -0.75,0.5625 -1.5,1.3125 l -1.21875,1.21875 q -0.375,0.375 -0.65625,0.75 -0.1875,0.375 -0.46875,0.65625 -0.375,1.125 -0.9375,2.0625 -0.46875,0.9375 -0.46875,2.15625 0,1.5 0.9375,3.1875 z m -55.593746,34.125 3.1875,1.59375 q 1.59375,0.84375 3.1875,1.78125 l 1.96875,1.125 1.96875,1.21875 q -2.15625,-2.34375 -4.03125,-4.78125 -1.78125,-2.4375 -3.5625,-4.96875 -0.65625,1.78125 -1.3125,2.53125 -0.65625,0.65625 -1.125,1.21875 z"
         id="path19369"
         inkscape:connector-curvature="0" />
    </g>
  </g>
</svg>
