<?xml version="1.0" encoding="UTF-8" standalone="no"?>
<!-- Created with Inkscape (http://www.inkscape.org/) -->

<svg
   xmlns:dc="http://purl.org/dc/elements/1.1/"
   xmlns:cc="http://creativecommons.org/ns#"
   xmlns:rdf="http://www.w3.org/1999/02/22-rdf-syntax-ns#"
   xmlns:svg="http://www.w3.org/2000/svg"
   xmlns="http://www.w3.org/2000/svg"
   xmlns:sodipodi="http://sodipodi.sourceforge.net/DTD/sodipodi-0.dtd"
   xmlns:inkscape="http://www.inkscape.org/namespaces/inkscape"
   width="26.739452mm"
   height="37.628712mm"
   viewBox="0 0 26.739452 37.628712"
   version="1.1"
   id="svg832"
   inkscape:version="0.92.4 (5da689c313, 2019-01-14)"
   sodipodi:docname="G7.svg">
  <defs
     id="defs826" />
  <sodipodi:namedview
     id="base"
     pagecolor="#ffffff"
     bordercolor="#666666"
     borderopacity="1.0"
     inkscape:pageopacity="0.0"
     inkscape:pageshadow="2"
     inkscape:zoom="0.35"
     inkscape:cx="-334.6875"
     inkscape:cy="-336.26047"
     inkscape:document-units="mm"
     inkscape:current-layer="layer1"
     showgrid="false"
     fit-margin-top="0"
     fit-margin-left="0"
     fit-margin-right="0"
     fit-margin-bottom="0"
     inkscape:window-width="1920"
     inkscape:window-height="1017"
     inkscape:window-x="-8"
     inkscape:window-y="-8"
     inkscape:window-maximized="1" />
  <metadata
     id="metadata829">
    <rdf:RDF>
      <cc:Work
         rdf:about="">
        <dc:format>image/svg+xml</dc:format>
        <dc:type
           rdf:resource="http://purl.org/dc/dcmitype/StillImage" />
        <dc:title></dc:title>
      </cc:Work>
    </rdf:RDF>
  </metadata>
  <g
     inkscape:label="Layer 1"
     inkscape:groupmode="layer"
     id="layer1"
     transform="translate(-1.2402344,-22.235707)">
    <g
       aria-label="𓅆"
       transform="scale(0.26458333)"
       style="font-style:normal;font-variant:normal;font-weight:normal;font-stretch:normal;font-size:192px;line-height:1.25;font-family:sans-serif;-inkscape-font-specification:sans-serif;font-variant-ligatures:normal;font-variant-caps:normal;font-variant-numeric:normal;font-feature-settings:normal;text-align:start;letter-spacing:0px;word-spacing:0px;writing-mode:lr-tb;text-anchor:start;fill:#000000;fill-opacity:1;stroke:none"
       id="flowRoot1377">
      <path
         d="m 101.25,173.10297 q -3.09375,2.0625 -7.03125,2.8125 -3.84375,0.75 -9.28125,0.9375 l -5.53125,0.28125 -0.9375,-0.5625 v 4.125 h -11.8125 v 45.5625 h -4.5 v -16.3125 l -21.75,-29.25 H 27.375 l -3.09375,7.125 H 15.1875 l -3,-7.125 h -7.5 v -4.6875 q 0,-4.78125 1.96875,-7.5 2.0625,-2.8125 5.4375,-2.8125 2.25,0 5.53125,2.4375 3.375,2.4375 6.28125,8.0625 l 8.0625,-0.65625 q 0.9375,-1.78125 1.6875,-3.84375 0.84375,-2.0625 1.40625,-4.21875 0.5625,-2.15625 0.84375,-4.21875 0.375,-2.0625 0.375,-3.84375 0,-2.15625 -0.375,-4.3125 -0.28125,-2.25 -1.3125,-5.8125 -0.46875,-1.6875 -0.9375,-3.5625 -0.375,-1.875 -0.75,-3.65625 -0.375,-1.875 -0.5625,-3.46875 -0.1875,-1.59375 -0.1875,-2.8125 0,-0.46875 -0.09375,-1.21875 0,-0.84375 0,-1.6875 -0.09375,-1.03125 -0.09375,-2.0625 -1.875,-2.34375 -3.09375,-4.3125 -1.21875,-1.96875 -2.4375,-4.6875 -1.21875,-2.71875 -2.0625,-6.46875 -0.84375,-3.75 -1.03125,-8.625 v -0.5625 q 0,-1.96875 -0.84375,-4.21875 l -1.6875,-4.031252 q -1.21875,-0.09375 -2.4375,-0.75 l -2.34375,-1.125 q -0.84375,-1.5 -0.9375,-1.6875 0,-1.6875 1.03125,-2.90625 1.125,-1.3125 2.53125,-2.0625 1.125,-2.25 3.65625,-3.65625 2.53125,-1.40625 7.59375,-1.6875 6.84375,0 12.09375,3.1875 5.25,3.09375 7.5,8.4375 4.875,2.71875 8.53125,6.656252 3.65625,3.84375 7.40625,9.75 4.5,7.03125 8.71875,13.03125 4.3125,5.90625 9,12 4.6875,6 10.125,12.84375 5.53125,6.75 12.46875,15.65625 l -1.5,2.0625 -9.75,-3.9375 q 0.5625,0.65625 1.5,1.78125 0.9375,1.03125 1.96875,2.25 1.03125,1.125 1.96875,2.15625 0.9375,1.03125 1.5,1.59375 z m -78,-77.156252 q 1.3125,2.15625 2.0625,5.156252 0.84375,3 1.03125,6.9375 0.65625,-2.4375 2.34375,-3.09375 1.6875,-0.65625 3.5625,-0.65625 5.53125,0 11.71875,0.375 6.28125,0.28125 14.34375,2.0625 -2.4375,-3 -4.6875,-4.6875 -2.15625,-1.78125 -4.03125,-2.718752 -3.65625,-1.78125 -4.40625,-4.40625 -0.5625,-2.4375 -4.40625,-5.15625 -3.84375,-2.71875 -9.84375,-2.71875 -4.21875,0 -6.28125,0.75 -2.0625,0.75 -2.8125,1.96875 -0.65625,1.21875 -1.125,1.6875 -0.46875,0.46875 -1.03125,0.9375 -0.46875,0.28125 -0.9375,0.65625 -0.375,0.28125 -0.5625,0.75 0.84375,0.46875 1.6875,0.84375 0.84375,0.28125 1.875,0.28125 z m 23.0625,84.750002 15.84375,22.21875 V 180.69672 Z M 7.875,173.47797 7.78125,176.19672 h 11.625 q -0.65625,-1.5 -1.6875,-2.90625 -0.9375,-1.40625 -2.0625,-2.4375 -1.03125,-1.03125 -2.15625,-1.59375 -1.125,-0.65625 -1.96875,-0.65625 -1.78125,0 -2.71875,1.6875 -0.84375,1.6875 -0.9375,3.1875 z m 9.1875,11.34375 h 5.53125 l 1.78125,-4.125 H 15.28125 Z M 30.84375,91.446718 q -2.90625,1.78125 -4.03125,1.78125 -1.21875,0 -1.21875,-1.875 0,-2.34375 1.125,-2.34375 1.40625,0 4.125,2.4375 z M 36.375,175.35297 q 0.9375,0 2.25,-0.0937 1.40625,-0.0937 2.8125,-0.28125 1.40625,-0.1875 2.71875,-0.375 1.3125,-0.1875 2.34375,-0.46875 0.75,-1.3125 1.21875,-3.65625 0.5625,-2.34375 0.5625,-5.625 0,-0.28125 -0.09375,-1.03125 -0.09375,-0.84375 -0.1875,-1.03125 -0.46875,0.46875 -0.9375,0.9375 -0.375,0.46875 -0.84375,1.03125 l -1.96875,0.1875 q -1.03125,-0.75 -2.53125,-1.59375 -1.5,-0.9375 -2.4375,-1.6875 -0.5625,1.78125 -1.03125,3.65625 -0.46875,1.875 -0.84375,3.75 -0.375,1.78125 -0.65625,3.46875 -0.1875,1.59375 -0.375,2.8125 z m 23.34375,-22.875 q -0.46875,1.40625 -0.84375,3.1875 -0.375,1.6875 -0.75,3.28125 -0.375,1.78125 -0.84375,3.65625 l -1.59375,0.46875 -4.03125,-2.0625 q -0.1875,1.3125 -0.375,2.53125 -0.1875,1.125 -0.375,2.4375 -0.09375,1.21875 -0.1875,2.25 0,1.875 0.09375,3.46875 0.1875,1.59375 1.03125,2.25 0.9375,0.65625 2.4375,1.03125 1.59375,0.28125 2.90625,0.46875 l 4.78125,0.46875 q 0.46875,-0.46875 0.65625,-0.84375 0.28125,-0.375 1.03125,-0.375 0.65625,0 1.125,0.28125 0.5625,0.1875 1.03125,1.21875 H 78.375 q -2.15625,-3.375 -4.3125,-6.5625 -2.15625,-3.28125 -4.40625,-6.28125 -2.25,-3 -4.6875,-5.71875 -2.4375,-2.71875 -5.25,-5.15625 z m -8.53125,5.0625 3.65625,1.875 q 0.46875,-2.0625 0.84375,-3.9375 0.375,-1.59375 0.65625,-3.1875 0.375,-1.59375 0.65625,-2.53125 -1.40625,-0.65625 -2.71875,-1.3125 -1.21875,-0.65625 -2.4375,-1.40625 -1.21875,-0.75 -2.53125,-1.59375 -1.3125,-0.84375 -2.90625,-1.875 -1.5,-0.9375 -2.625,-1.6875 -1.125,-0.84375 -2.15625,-1.59375 -1.03125,-0.84375 -2.0625,-1.6875 -1.03125,-0.9375 -2.34375,-2.25 l 1.40625,3.5625 q 0.09375,0.28125 0.375,0.9375 0.375,0.65625 0.75,1.40625 0.46875,0.65625 0.84375,1.3125 0.375,0.5625 0.5625,0.84375 1.78125,3.09375 3,5.15625 1.3125,1.96875 2.0625,3.1875 0.75,1.21875 1.03125,1.78125 0.375,0.46875 0.46875,0.65625 l 1.875,3.5625 z m -13.78125,-9.5625 q 0.375,2.15625 0.84375,4.78125 0.5625,2.625 0.75,4.6875 l 0.1875,1.59375 2.53125,0.1875 3.1875,2.53125 1.78125,-1.6875 q -0.46875,-1.21875 -1.96875,-3.84375 -1.5,-2.71875 -3.28125,-5.625 -1.78125,-3 -3.46875,-5.625 -1.59375,-2.625 -2.15625,-3.9375 0.09375,0.75 0.28125,1.96875 0.28125,1.125 0.5625,2.25 0.375,1.3125 0.75,2.71875 z M 88.5,161.57172 q -2.625,-0.75 -6.5625,-1.96875 -3.9375,-1.3125 -7.78125,-2.71875 -5.0625,-1.875 -7.59375,-3.09375 -2.53125,-1.21875 -3.1875,-1.5 6.28125,5.25 12.375,14.53125 1.5,2.25 2.4375,3.65625 0.9375,1.3125 1.40625,2.0625 0.5625,0.65625 0.75,1.03125 0.1875,0.28125 0.375,0.46875 h 3.75 q 4.21875,0 7.96875,-0.5625 3.75,-0.65625 5.34375,-1.875 z m 10.03125,0 q -3.09375,-4.40625 -6,-8.15625 -2.90625,-3.84375 -5.90625,-7.5 -2.90625,-3.65625 -6.09375,-7.5 -3.09375,-3.9375 -6.46875,-8.53125 -2.34375,-3.1875 -3.9375,-5.34375 -1.5,-2.25 -2.8125,-4.21875 -1.875,-2.8125 -3.09375,-4.6875 -1.125,-1.875 -1.875,-3 -0.65625,-1.21875 -1.03125,-1.78125 -0.375,-0.65625 -0.65625,-1.03125 l -0.28125,0.65625 q -3.09375,-1.125 -7.03125,-1.6875 -3.84375,-0.65625 -7.6875,-0.9375 -3.84375,-0.375 -7.21875,-0.46875 -3.28125,-0.0937 -5.25,-0.0937 -1.78125,0 -2.90625,0.28125 -1.125,0.46875 -2.15625,1.59375 -1.03125,1.03125 -1.03125,3.75 0,1.96875 0.65625,4.03125 0.75,2.0625 1.78125,4.21875 1.125,2.0625 2.4375,4.125 1.40625,1.96875 2.71875,3.75 1.78125,2.4375 4.59375,5.0625 2.8125,2.53125 6.1875,4.96875 3.46875,2.4375 7.40625,4.78125 3.9375,2.25 8.0625,4.125 11.0625,4.96875 20.4375,7.96875 9.375,2.90625 17.15625,5.625 z"
         id="path1385"
         inkscape:connector-curvature="0" />
    </g>
  </g>
</svg>
