<?xml version="1.0" encoding="UTF-8" standalone="no"?>
<!-- Created with Inkscape (http://www.inkscape.org/) -->

<svg
   xmlns:dc="http://purl.org/dc/elements/1.1/"
   xmlns:cc="http://creativecommons.org/ns#"
   xmlns:rdf="http://www.w3.org/1999/02/22-rdf-syntax-ns#"
   xmlns:svg="http://www.w3.org/2000/svg"
   xmlns="http://www.w3.org/2000/svg"
   xmlns:sodipodi="http://sodipodi.sourceforge.net/DTD/sodipodi-0.dtd"
   xmlns:inkscape="http://www.inkscape.org/namespaces/inkscape"
   width="28.202929mm"
   height="37.678322mm"
   viewBox="0 0 28.202929 37.678322"
   version="1.1"
   id="svg21399"
   inkscape:version="0.92.4 (5da689c313, 2019-01-14)"
   sodipodi:docname="G7B.svg">
  <defs
     id="defs21393" />
  <sodipodi:namedview
     id="base"
     pagecolor="#ffffff"
     bordercolor="#666666"
     borderopacity="1.0"
     inkscape:pageopacity="0.0"
     inkscape:pageshadow="2"
     inkscape:zoom="0.35"
     inkscape:cx="-323.25977"
     inkscape:cy="-379.11789"
     inkscape:document-units="mm"
     inkscape:current-layer="layer1"
     showgrid="false"
     fit-margin-top="0"
     fit-margin-left="0"
     fit-margin-right="0"
     fit-margin-bottom="0"
     inkscape:window-width="1920"
     inkscape:window-height="1017"
     inkscape:window-x="-8"
     inkscape:window-y="-8"
     inkscape:window-maximized="1" />
  <metadata
     id="metadata21396">
    <rdf:RDF>
      <cc:Work
         rdf:about="">
        <dc:format>image/svg+xml</dc:format>
        <dc:type
           rdf:resource="http://purl.org/dc/dcmitype/StillImage" />
        <dc:title></dc:title>
      </cc:Work>
    </rdf:RDF>
  </metadata>
  <g
     inkscape:label="Layer 1"
     inkscape:groupmode="layer"
     id="layer1"
     transform="translate(1.7833537,-10.846738)">
    <g
       aria-label="𓅈"
       transform="scale(0.26458333)"
       style="font-style:normal;font-variant:normal;font-weight:normal;font-stretch:normal;font-size:192px;line-height:1.25;font-family:sans-serif;-inkscape-font-specification:'sans-serif, Normal';font-variant-ligatures:normal;font-variant-caps:normal;font-variant-numeric:normal;font-feature-settings:normal;text-align:start;letter-spacing:0px;word-spacing:0px;writing-mode:lr-tb;text-anchor:start;fill:#000000;fill-opacity:1;stroke:none"
       id="flowRoot21944">
      <path
         d="m 99.853516,91.808046 q 0,6.46875 -0.9375,12.562504 -0.9375,6 -3.09375,12 l -0.84375,0.1875 q 1.125,1.40625 1.875,2.34375 0.75,0.9375 1.21875,1.59375 0.46875,0.5625 0.84375,0.9375 0.375,0.375 0.65625,0.65625 l -2.0625,2.25 q -1.5,-1.125 -3.28125,-1.875 -1.78125,-0.84375 -3.75,-1.59375 l -1.03125,1.03125 q 2.15625,2.4375 4.59375,4.6875 2.53125,2.15625 5.15625,4.125 l 0.375,2.15625 -4.5,4.59375 q -3,3 -6.1875,5.25 -3.1875,2.15625 -6.84375,2.90625 l -1.6875,-0.75 q -0.46875,-1.21875 -1.03125,-2.34375 -0.46875,-1.125 -0.9375,-2.25 l -2.0625,-4.3125 q -1.3125,1.03125 -3.28125,2.34375 -1.96875,1.21875 -3.375,2.0625 v 38.34375 h 29.15625 v 4.6875 H -5.2402344 v -4.6875 H 24.197266 v -37.6875 q -14.4375004,-6.75 -22.3125004,-18.9375 -7.875,-12.28125 -8.625,-30.000004 l 2.90625,-0.75 q 7.3125,15.468754 12.84375,22.406254 2.7187504,3.46875 6.3750004,7.03125 3.65625,3.46875 6.65625,5.8125 0.9375,0.46875 1.96875,0.75 1.125,0.1875 1.875,0.1875 1.03125,0 1.78125,-1.03125 0.84375,-1.125 1.5,-2.8125 l 0.9375,-2.625 q 0.65625,-1.875 1.03125,-3.84375 0.375,-1.96875 0.375,-2.71875 0,-0.9375 -0.1875,-2.25 -0.1875,-1.40625 -0.46875,-2.8125 -0.1875,-1.5 -0.5625,-3 -0.28125,-1.5 -0.5625,-2.625 -0.75,-2.8125 -1.3125,-5.437504 -0.46875,-2.625 -0.46875,-4.78125 0,-1.5 0,-2.25 0.09375,-0.84375 0.09375,-1.78125 -3.5625,-4.3125 -5.90625,-8.0625 -2.34375,-3.75 -3,-6 -1.40625,-4.59375 -1.40625,-11.53125 0,-2.25 -0.75,-4.875 -0.65625,-2.625 -1.875,-4.3125 -1.03125,-1.03125 -2.25,-1.21875 -1.125,-0.28125 -2.15625,-0.28125 l -0.8437504,-0.5625 q -0.09375,-0.28125 -0.09375,-0.65625 0,-0.28125 -0.09375,-0.46875 0,-0.1875 0,-0.375 0,-0.65625 0.5625004,-1.5 0.5625,-0.9375 1.59375,-1.96875 1.03125,-1.03125 1.6875,-1.6875 0.75,-0.75 1.21875,-1.3125 0.9375,-1.125 2.0625,-1.78125 1.21875,-0.75 2.53125,-1.21875 1.6875,-0.5625 3.28125,-0.65625 1.59375,-0.09375 2.71875,-0.09375 6.1875,0 11.15625,2.90625 4.96875,2.8125 7.3125,9 4.96875,2.625 8.625,6.84375 3.75,4.125 7.78125,10.5 4.03125,6.46875 10.78125,15.5625 6.84375,9 16.40625,21.000004 2.71875,-3.9375 5.0625,-7.687504 2.4375,-3.84375 4.59375,-8.0625 z m -66.09375,-0.375 q 2.4375,2.34375 4.96875,4.125 2.53125,1.78125 5.8125,3.9375 1.6875,1.125004 4.03125,2.343754 2.34375,1.21875 4.6875,2.34375 2.4375,1.125 4.59375,2.0625 2.15625,0.9375 3.46875,1.5 3.84375,1.59375 8.0625,3.1875 4.3125,1.5 8.34375,2.8125 5.25,1.6875 9.28125,3 4.125,1.3125 5.71875,1.875 l -3.1875,-4.21875 q -1.125,-1.5 -2.15625,-2.8125 -0.9375,-1.3125 -1.875,-2.4375 L 74.728516,95.464296 q -4.875,-6.1875 -8.4375,-10.96875 -3.5625,-4.78125 -5.71875,-8.34375 -2.15625,-3.5625 -3.65625,-5.8125 -1.5,-2.34375 -2.34375,-3.5625 l -0.1875,0.75 q -2.4375,-0.65625 -5.34375,-1.3125 -2.8125,-0.75 -7.40625,-1.3125 -1.875,-0.1875 -4.40625,-0.375 -2.53125,-0.1875 -5.625,-0.1875 -3.375,0 -5.25,0.1875 -1.875,0.09375 -2.90625,0.46875 -0.9375,0.375 -1.3125,1.125 -0.375,0.65625 -0.75,1.78125 0,0.1875 -0.09375,0.65625 0,0.375 0,1.125 0,1.21875 0.28125,2.90625 0.375,1.875 1.3125,4.03125 1.03125,2.0625 2.34375,4.40625 1.3125,2.0625 2.71875,3.9375 1.21875,1.59375 2.71875,3.375 1.5,1.78125 3.09375,3.09375 z m 31.21875,87.281254 v -36.09375 q -4.3125,1.3125 -8.625,2.25 -4.3125,0.84375 -9.28125,0.84375 -5.34375,0 -9.9375,-0.84375 -4.59375,-0.9375 -8.25,-2.0625 v 35.90625 z m 6.1875,-50.34375 q -3,1.96875 -6.46875,3.5625 -3.46875,1.59375 -6.9375,2.71875 -3.375,1.125 -6.65625,1.6875 -3.28125,0.5625 -6,0.5625 -14.25,0 -26.34375,-9 -12.0000004,-9 -21.8437504,-28.125004 2.71875002,19.125004 16.7812504,31.125004 14.15625,11.90625 32.8125,11.90625 7.875,0 15,-2.34375 7.21875,-2.34375 13.125,-6.84375 z m -13.59375,-18.9375 q 7.875,5.90625 14.4375,14.34375 6.65625,8.4375 10.59375,18.65625 4.3125,-1.03125 8.625,-5.4375 l 4.875,-4.875 q -3.75,-2.90625 -7.125,-6.1875 -3.375,-3.28125 -6.09375,-7.21875 -0.375,-0.0937 -2.53125,-0.75 -2.15625,-0.65625 -6.1875,-1.96875 -4.03125,-1.3125 -8.34375,-3.09375 -4.3125,-1.78125 -8.25,-3.46875 z m -1.59375,21.75 q 0.65625,-0.84375 1.125,-1.3125 0.5625,-0.46875 1.875,-0.46875 0.9375,0 1.21875,0.1875 0.28125,0.0937 0.84375,0.46875 1.875,-0.75 4.3125,-1.96875 2.53125,-1.3125 4.40625,-2.4375 -3.28125,-4.3125 -7.3125,-8.15625 -3.9375,-3.84375 -8.71875,-7.40625 l -1.875,8.90625 -1.96875,0.9375 -4.125,-2.15625 q -0.1875,0.75 -0.375,1.6875 -0.09375,0.9375 -0.1875,1.875 -0.09375,0.9375 -0.1875,1.78125 -0.09375,0.75 -0.09375,1.125 0,0.9375 0.28125,2.25 0.28125,1.3125 0.84375,2.4375 0.9375,0.375 2.15625,0.75 1.3125,0.375 2.625,0.75 1.40625,0.28125 2.71875,0.5625 1.3125,0.1875 2.4375,0.1875 z m -35.8125,-69.562504 0.1875,3.375 q 0.1875,-0.65625 0.5625,-1.21875 0.28125,-0.46875 0.75,-1.03125 0.46875,-0.5625 1.125,-0.84375 0.84375,-0.375 2.25,-0.46875 1.40625,-0.09375 4.6875,-0.09375 2.625,0 5.34375,0.1875 2.71875,0.09375 4.5,0.28125 3.09375,0.28125 6.09375,0.84375 3,0.46875 6.75,1.21875 -2.34375,-2.90625 -4.5,-4.59375 -2.0625,-1.6875 -3.75,-2.625 -1.59375,-0.84375 -2.625,-1.78125 -0.9375,-1.03125 -1.59375,-3.1875 -0.65625,-2.0625 -2.4375,-3.5625 -1.78125,-1.5 -5.0625,-3 0.65625,0.46875 1.3125,1.03125 0.65625,0.5625 1.125,1.40625 0.46875,0.84375 0.75,2.0625 0.375,1.125 0.375,2.90625 0,1.40625 -0.5625,2.71875 -0.5625,1.3125 -1.6875,2.34375 -1.125,1.03125 -2.90625,1.6875 -1.78125,0.5625 -4.21875,0.5625 -0.46875,0 -0.65625,0 -0.09375,-0.09375 -1.125,-0.1875 v -3 q 0.75,0 0.9375,0.09375 0.1875,0 0.65625,0 2.0625,0 3.28125,-0.28125 1.3125,-0.375 1.96875,-1.03125 0.75,-0.65625 1.03125,-1.6875 0.28125,-1.03125 0.28125,-2.53125 0,-0.46875 -0.375,-1.6875 -0.375,-1.3125 -0.75,-1.96875 -1.03125,-1.6875 -3.1875,-2.625 -2.0625,-0.9375 -3.9375,-0.9375 h -2.25 q -2.71875,0 -3.75,0.9375 -1.03125,0.9375 -1.03125,2.90625 0,2.15625 1.40625,2.90625 1.40625,0.65625 3.375,0.65625 h 1.5 l -1.03125,7.78125 -2.71875,-0.09375 0.65625,-5.34375 q -4.6875,-0.5625 -6,-5.25 -0.84375,0.5625 -1.59375,1.21875 -0.75,0.65625 -0.75,1.5 2.15625,0.09375 3.46875,1.125 1.40625,1.03125 1.78125,1.5 0.375,0.46875 1.03125,1.875 0.75,1.40625 0.9375,2.90625 z m 23.625,54.656254 3.09375,-1.21875 2.53125,1.3125 1.78125,-9.46875 q -0.9375,-0.46875 -2.0625,-1.125 -1.03125,-0.5625 -2.4375,-1.3125 -1.3125,-0.84375 -3.09375,-1.875 -6.9375,-4.031254 -12.375,-9.562504 1.03125,2.8125 2.34375,5.34375 1.40625,2.531254 2.90625,5.062504 0.46875,0.75 1.125,1.875 0.75,1.125 1.40625,2.15625 0.75,1.21875 1.5,2.4375 1.6875,2.625 2.90625,5.53125 z m -10.03125,-11.53125 q -0.5625,-0.84375 -0.75,-1.21875 -0.1875,-0.375 -0.375,-0.5625 -0.09375,-0.1875 -0.1875,-0.28125 0,-0.1875 -0.28125,-0.65625 0.09375,0.75 0.1875,1.3125 0.1875,0.46875 0.28125,1.03125 0.1875,0.5625 0.28125,1.3125 0.1875,0.65625 0.46875,1.78125 0.1875,0.9375 0.28125,1.59375 0.1875,0.65625 0.28125,1.3125 0.09375,0.5625 0.09375,1.3125 0.09375,0.65625 0.1875,1.6875 0,0.46875 0,1.03125 0.09375,0.46875 0.09375,0.9375 0,0.5625 0.09375,1.125 l 1.3125,-0.28125 3.375,2.625 1.6875,-1.6875 q -1.59375,-3.46875 -3.375,-6.46875 z m 0.28125,13.875 q -2.8125,4.6875 -2.8125,8.71875 0.46875,0.28125 1.125,0.65625 0.65625,0.375 1.3125,1.6875 l 1.875,0.46875 q 0.28125,-0.0937 1.21875,-0.375 1.03125,-0.28125 2.0625,-0.5625 1.21875,-0.375 2.71875,-0.65625 0.375,-1.59375 0.75,-3.28125 0.28125,-1.40625 0.46875,-3 0.28125,-1.6875 0.28125,-3.1875 l -2.53125,2.625 -2.25,0.1875 z m 59.8125,-5.8125 q 1.03125,-3.65625 1.78125,-7.3125 0.75,-3.65625 1.03125,-7.593754 -1.59375,2.718754 -3.09375,5.062504 l -3.28125,4.96875 z m -71.4375,-66.656254 h 0.46875 q 0.9375,0 1.6875,0.28125 0.84375,0.28125 1.78125,1.125 -1.96875,1.875 -4.3125,1.96875 l -1.21875,-1.96875 z m 9.9375,86.062504 q -0.375,-0.75 -0.75,-1.40625 -0.375,-0.46875 -0.9375,-0.9375 -0.5625,-0.46875 -1.3125,-0.46875 -0.75,0 -1.21875,0.0937 -0.46875,0.0937 -0.75,0.1875 -0.375,0.1875 -0.46875,0.28125 z m 0.46875,0.1875 q 2.15625,0.375 4.3125,0.75 1.875,0.28125 3.84375,0.5625 2.0625,0.1875 3.65625,0.1875 3.28125,0 5.15625,-0.28125 1.03125,-0.1875 1.96875,-0.375 -0.9375,-0.0937 -1.78125,-0.1875 -0.75,-0.0937 -1.59375,-0.1875 -0.75,-0.1875 -1.21875,-0.5625 -0.28125,0.1875 -0.65625,0.28125 -0.75,0.28125 -2.0625,0.28125 -1.5,0 -2.71875,-0.46875 -0.65625,-0.1875 -1.3125,-0.46875 -1.21875,0.1875 -2.53125,0.28125 -1.3125,0 -2.4375,0.0937 -1.3125,0.0937 -2.625,0.0937 z"
         id="path21952"
         inkscape:connector-curvature="0" />
    </g>
  </g>
</svg>
