<?xml version="1.0" encoding="UTF-8" standalone="no"?>
<!-- Created with Inkscape (http://www.inkscape.org/) -->

<svg
   xmlns:dc="http://purl.org/dc/elements/1.1/"
   xmlns:cc="http://creativecommons.org/ns#"
   xmlns:rdf="http://www.w3.org/1999/02/22-rdf-syntax-ns#"
   xmlns:svg="http://www.w3.org/2000/svg"
   xmlns="http://www.w3.org/2000/svg"
   xmlns:sodipodi="http://sodipodi.sourceforge.net/DTD/sodipodi-0.dtd"
   xmlns:inkscape="http://www.inkscape.org/namespaces/inkscape"
   width="17.586523mm"
   height="19.595703mm"
   viewBox="0 0 17.586523 19.595703"
   version="1.1"
   id="svg19378"
   inkscape:version="0.92.4 (5da689c313, 2019-01-14)"
   sodipodi:docname="H1.svg">
  <defs
     id="defs19372" />
  <sodipodi:namedview
     id="base"
     pagecolor="#ffffff"
     bordercolor="#666666"
     borderopacity="1.0"
     inkscape:pageopacity="0.0"
     inkscape:pageshadow="2"
     inkscape:zoom="0.35"
     inkscape:cx="-326.11523"
     inkscape:cy="-377.61789"
     inkscape:document-units="mm"
     inkscape:current-layer="layer1"
     showgrid="false"
     fit-margin-top="0"
     fit-margin-left="0"
     fit-margin-right="0"
     fit-margin-bottom="0"
     inkscape:window-width="1920"
     inkscape:window-height="1017"
     inkscape:window-x="-8"
     inkscape:window-y="-8"
     inkscape:window-maximized="1" />
  <metadata
     id="metadata19375">
    <rdf:RDF>
      <cc:Work
         rdf:about="">
        <dc:format>image/svg+xml</dc:format>
        <dc:type
           rdf:resource="http://purl.org/dc/dcmitype/StillImage" />
        <dc:title></dc:title>
      </cc:Work>
    </rdf:RDF>
  </metadata>
  <g
     inkscape:label="Layer 1"
     inkscape:groupmode="layer"
     id="layer1"
     transform="translate(1.0278442,-29.326231)">
    <g
       aria-label="𓅿"
       transform="scale(0.26458333)"
       style="font-style:normal;font-variant:normal;font-weight:normal;font-stretch:normal;font-size:192px;line-height:1.25;font-family:sans-serif;-inkscape-font-specification:sans-serif;font-variant-ligatures:normal;font-variant-caps:normal;font-variant-numeric:normal;font-feature-settings:normal;text-align:start;letter-spacing:0px;word-spacing:0px;writing-mode:lr-tb;text-anchor:start;fill:#000000;fill-opacity:1;stroke:none"
       id="flowRoot19923">
      <path
         d="m 23.302734,183.68305 q -0.5625,-2.8125 -0.5625,-5.25 0,-10.125 9.1875,-21 9.1875,-10.96875 11.90625,-17.53125 -0.1875,-0.5625 -0.65625,-1.125 -0.375,-0.5625 -0.84375,-0.9375 l -4.96875,-1.125 q -3.1875,-0.65625 -8.90625,-2.0625 -5.71875,-1.5 -9.46875,-1.5 -3.28125,0 -8.53125,1.78125 -5.2499996,1.6875 -8.7187496,1.6875 -2.53125002,0 -4.03125,-0.9375 -1.5,-1.03125 -1.5,-1.96875 0,-0.1875 -0.09375,-0.46875 0.5625,-2.15625 3.65624997,-3.46875 3.18750003,-1.3125 10.96874963,-3 7.78125,-1.78125 8.625,-2.0625 0.9375,-0.28125 6.1875,-4.96875 5.34375,-4.6875 10.21875,-6.75 4.96875,-2.15625 10.03125,-2.15625 7.3125,0 11.90625,4.6875 4.6875,4.6875 4.875,10.40625 v 0.5625 q 0,8.0625 -7.40625,21.375 -7.40625,13.21875 -7.40625,24.84375 0,4.78125 1.125,10.21875 l -1.5,1.96875 h -22.6875 z m 2.4375,-4.96875 q 0,1.5 0.28125,3.1875 h 19.59375 q -0.84375,-4.59375 -0.84375,-8.90625 0,-12.375 7.40625,-25.6875 7.40625,-13.40625 7.40625,-20.71875 0,-5.625 -4.3125,-9.1875 -4.21875,-3.65625 -9.46875,-3.65625 -6.9375,0 -12.75,4.21875 -5.71875,4.125 -8.8125,7.125 -3,3 -12.09375,4.40625 -9.0937496,1.3125 -12.37499963,3.9375 0.75,0.1875 1.68750003,0.1875 2.53125,0 8.6249996,-1.6875 6.09375,-1.78125 9,-1.78125 h 0.5625 q 3,0 5.90625,0.65625 2.90625,0.65625 5.71875,1.40625 l 2.90625,0.5625 q 0.5625,0 6.46875,1.5 6,1.40625 6,5.8125 0,3.9375 -10.5,16.40625 -10.40625,12.46875 -10.40625,22.21875 z m 17.25,-55.78125 q -1.21875,1.125 -2.625,1.6875 l -0.84375,-1.6875 0.84375,-1.6875 q 1.5,0.5625 2.625,1.6875 z"
         id="path19931"
         inkscape:connector-curvature="0" />
    </g>
  </g>
</svg>
