<?xml version="1.0" encoding="UTF-8" standalone="no"?>
<svg
   xmlns:dc="http://purl.org/dc/elements/1.1/"
   xmlns:cc="http://creativecommons.org/ns#"
   xmlns:rdf="http://www.w3.org/1999/02/22-rdf-syntax-ns#"
   xmlns:svg="http://www.w3.org/2000/svg"
   xmlns="http://www.w3.org/2000/svg"
   xmlns:sodipodi="http://sodipodi.sourceforge.net/DTD/sodipodi-0.dtd"
   xmlns:inkscape="http://www.inkscape.org/namespaces/inkscape"
   version="1.0"
   width="470.90863pt"
   height="120.45117pt"
   viewBox="0 0 470.90863 120.45117"
   preserveAspectRatio="xMidYMid meet"
   id="svg8"
   sodipodi:docname="H10.svg"
   inkscape:version="0.92.4 (5da689c313, 2019-01-14)">
  <defs
     id="defs12" />
  <sodipodi:namedview
     pagecolor="#ffffff"
     bordercolor="#666666"
     borderopacity="1"
     objecttolerance="10"
     gridtolerance="10"
     guidetolerance="10"
     inkscape:pageopacity="0"
     inkscape:pageshadow="2"
     inkscape:window-width="1920"
     inkscape:window-height="1017"
     id="namedview10"
     showgrid="false"
     fit-margin-top="0"
     fit-margin-left="0"
     fit-margin-right="0"
     fit-margin-bottom="0"
     inkscape:zoom="0.4505988"
     inkscape:cx="24.170543"
     inkscape:cy="83.181139"
     inkscape:window-x="-8"
     inkscape:window-y="-8"
     inkscape:window-maximized="1"
     inkscape:current-layer="svg8" />
  <metadata
     id="metadata2">
Created by potrace 1.10, written by Peter Selinger 2001-2011
<rdf:RDF>
  <cc:Work
     rdf:about="">
    <dc:format>image/svg+xml</dc:format>
    <dc:type
       rdf:resource="http://purl.org/dc/dcmitype/StillImage" />
    <dc:title></dc:title>
  </cc:Work>
</rdf:RDF>
</metadata>
  <g
     transform="matrix(0.1,0,0,-0.1,-11,137.56532)"
     id="g6"
     style="fill:#000000;stroke:none">
    <path
       d="m 2375,1370 c -49,-7 -87,-19 -153,-46 -27,-12 -209,-14 -1037,-14 -552,0 -1010,-3 -1019,-6 -9,-3 -25,-21 -36,-39 l -20,-33 20,-133 C 163,875 184,821 305,644 421,474 527,378 688,300 c 125,-61 204,-82 442,-119 162,-26 989,4 1022,37 7,7 18,12 26,12 8,0 31,14 52,30 44,35 60,37 97,13 35,-23 236,-25 300,-4 40,13 44,13 75,-10 18,-14 53,-34 78,-44 42,-19 70,-20 625,-20 534,0 583,1 612,18 18,9 40,17 50,17 10,0 75,29 145,64 95,48 151,84 219,143 107,91 223,237 269,339 17,38 37,83 45,99 33,70 62,193 71,300 6,66 5,73 -19,100 l -25,30 -1019,5 -1018,5 -67,27 c -74,29 -205,42 -293,28 z m 205,-167 c 118,-34 163,-66 226,-163 51,-78 67,-133 65,-232 0,-57 -6,-99 -16,-118 -8,-16 -15,-34 -15,-40 0,-6 -19,-36 -42,-66 -42,-57 -141,-130 -188,-140 -14,-3 -42,-12 -63,-20 -97,-36 -231,-1 -340,91 -58,49 -104,121 -123,192 -16,62 -18,171 -5,205 5,13 12,34 15,48 9,43 70,127 129,176 106,89 209,109 357,67 z M 665,1149 c 8,-12 -23,-49 -41,-49 -7,0 -30,-7 -51,-16 -79,-34 -99,-42 -143,-59 -25,-9 -57,-23 -72,-30 -40,-20 -57,-2 -64,72 -10,98 -21,93 185,93 116,0 182,-4 186,-11 z m 1331,-3 c 3,-8 -1,-29 -10,-45 -38,-74 -44,-91 -56,-174 -7,-48 -19,-92 -26,-98 -9,-7 -135,-9 -401,-7 -360,4 -392,6 -441,25 -29,11 -58,25 -65,32 -6,6 -16,11 -23,11 -28,0 -144,141 -144,176 0,8 -7,28 -15,45 -9,16 -13,34 -10,39 4,6 225,10 596,10 506,0 590,-2 595,-14 z m 2136,-20 c -4,-32 -36,-100 -59,-125 -62,-68 -110,-111 -137,-124 -117,-56 -83,-52 -486,-55 -229,-2 -386,1 -402,7 -23,9 -26,15 -30,83 -4,67 -25,130 -69,211 -5,10 -7,22 -4,27 4,7 225,9 598,8 l 592,-3 z m 506,-11 c 2,-22 1,-59 -3,-82 -9,-59 -11,-59 -202,23 -56,24 -97,41 -125,52 -27,11 -36,31 -21,46 4,3 84,5 177,4 l 171,-3 z M 4328,961 c 9,-5 53,-24 97,-41 102,-41 145,-63 145,-72 0,-5 -11,-26 -25,-48 -14,-22 -25,-43 -25,-46 0,-4 -16,-27 -36,-51 -31,-38 -38,-42 -53,-31 -47,33 -241,227 -241,241 0,9 9,31 20,50 l 20,34 40,-13 c 22,-8 48,-18 58,-23 z M 742,950 c 9,-19 17,-38 18,-42 0,-12 -246,-258 -257,-258 -13,0 -81,89 -116,152 l -26,47 33,20 c 18,12 39,21 46,21 6,0 24,6 38,14 15,8 47,22 72,31 25,9 56,22 70,28 78,35 100,32 122,-13 z M 901,787 c 43,-30 43,-25 -17,-222 -8,-27 -20,-69 -25,-92 -11,-45 -32,-69 -51,-59 -77,38 -198,125 -198,143 0,19 222,253 241,253 9,0 31,-10 50,-23 z m 3324,-94 c 63,-65 115,-123 115,-129 0,-12 -103,-94 -117,-94 -4,0 -31,-12 -61,-27 -51,-26 -53,-26 -67,-7 -8,10 -17,35 -21,54 -4,19 -11,43 -16,53 -9,17 -15,39 -47,152 -5,17 -12,37 -16,47 -5,12 5,23 37,42 24,14 51,26 60,26 10,0 69,-53 133,-117 z m -2982,8 c 4,-1 6,-79 5,-173 l -3,-173 -90,-3 c -50,-1 -108,1 -130,6 -59,12 -59,21 1,212 8,25 14,53 14,63 0,10 7,32 16,48 l 15,30 82,-5 c 45,-3 85,-5 90,-5 z M 1575,530 V 355 h -100 -100 l -3,165 c -1,90 0,170 3,177 3,11 28,13 102,11 l 98,-3 z m 1648,170 c 4,0 6,-78 5,-172 l -3,-173 h -185 c -164,0 -185,2 -188,17 -2,9 5,24 16,35 44,43 122,183 122,220 0,13 28,63 41,73 5,4 125,4 192,0 z M 3555,530 V 355 h -100 -100 l -3,165 c -1,90 0,170 3,177 3,11 28,13 102,11 l 98,-3 z m 329,168 c 7,-26 38,-135 51,-178 32,-110 38,-141 28,-151 -6,-6 -68,-11 -139,-12 l -129,-2 v 170 170 l 70,6 c 39,3 80,6 93,7 12,1 24,-4 26,-10 z M 1930,681 c 5,-11 10,-28 10,-39 0,-18 24,-77 55,-131 7,-13 35,-45 61,-72 51,-52 51,-59 -5,-78 -35,-11 -297,-16 -325,-5 -14,5 -16,30 -16,168 0,90 3,166 7,169 3,4 50,7 104,7 87,0 99,-2 109,-19 z"
       id="path4"
       inkscape:connector-curvature="0" />
  </g>
</svg>
