<?xml version="1.0" encoding="UTF-8" standalone="no"?>
<!-- Created with Inkscape (http://www.inkscape.org/) -->

<svg
   xmlns:dc="http://purl.org/dc/elements/1.1/"
   xmlns:cc="http://creativecommons.org/ns#"
   xmlns:rdf="http://www.w3.org/1999/02/22-rdf-syntax-ns#"
   xmlns:svg="http://www.w3.org/2000/svg"
   xmlns="http://www.w3.org/2000/svg"
   xmlns:sodipodi="http://sodipodi.sourceforge.net/DTD/sodipodi-0.dtd"
   xmlns:inkscape="http://www.inkscape.org/namespaces/inkscape"
   width="27.806055mm"
   height="19.446882mm"
   viewBox="0 0 27.806055 19.446882"
   version="1.1"
   id="svg30913"
   inkscape:version="0.92.4 (5da689c313, 2019-01-14)"
   sodipodi:docname="H2.svg">
  <defs
     id="defs30907" />
  <sodipodi:namedview
     id="base"
     pagecolor="#ffffff"
     bordercolor="#666666"
     borderopacity="1.0"
     inkscape:pageopacity="0.0"
     inkscape:pageshadow="2"
     inkscape:zoom="0.35"
     inkscape:cx="-366.11607"
     inkscape:cy="-421.35713"
     inkscape:document-units="mm"
     inkscape:current-layer="layer1"
     showgrid="false"
     fit-margin-top="0"
     fit-margin-left="0"
     fit-margin-right="0"
     fit-margin-bottom="0"
     inkscape:window-width="1920"
     inkscape:window-height="1017"
     inkscape:window-x="-8"
     inkscape:window-y="-8"
     inkscape:window-maximized="1" />
  <metadata
     id="metadata30910">
    <rdf:RDF>
      <cc:Work
         rdf:about="">
        <dc:format>image/svg+xml</dc:format>
        <dc:type
           rdf:resource="http://purl.org/dc/dcmitype/StillImage" />
        <dc:title></dc:title>
      </cc:Work>
    </rdf:RDF>
  </metadata>
  <g
     inkscape:label="Layer 1"
     inkscape:groupmode="layer"
     id="layer1"
     transform="translate(-9.5557108,-17.902378)">
    <g
       aria-label="𓆀"
       style="font-style:normal;font-variant:normal;font-weight:normal;font-stretch:normal;font-size:50.79999924px;line-height:1.25;font-family:sans-serif;-inkscape-font-specification:'sans-serif, Normal';font-variant-ligatures:normal;font-variant-caps:normal;font-variant-numeric:normal;font-feature-settings:normal;text-align:start;letter-spacing:0px;word-spacing:0px;writing-mode:lr-tb;text-anchor:start;fill:#000000;fill-opacity:1;stroke:none;stroke-width:0.26458332"
       id="text31460">
      <path
         d="m 24.68657,24.996518 q 0,-0.570508 -0.09922,-1.240234 -0.09922,-0.669727 -0.520898,-1.116211 -0.471289,-0.198438 -0.917774,-0.248047 -0.446484,-0.07441 -0.892968,-0.07441 -0.570508,0 -1.141016,0.07441 -0.545703,0.04961 -1.141016,0.07441 H 19.50239 q -0.297656,0 -0.768945,-0.0248 -0.446484,-0.04961 -0.967383,-0.09922 -0.496094,-0.07441 -0.967383,-0.124024 -0.446484,-0.04961 -0.74414,-0.09922 L 9.6301248,23.607456 9.5557108,23.409018 16.377,21.126987 q 0.446484,-0.768945 1.041797,-1.364258 0.620117,-0.620117 1.314648,-1.016992 0.719336,-0.42168 1.488281,-0.620117 0.768946,-0.223242 1.513086,-0.223242 0.595313,0 1.066602,0.09922 0.496093,0.09922 1.016992,0.297657 0.520898,0.173632 1.116211,0.421679 0.595312,0.248047 1.389062,0.520899 1.612305,0.545703 3.199805,0.917773 1.5875,0.347266 3.12539,0.347266 1.984375,0 3.919141,-0.595313 v 0.620117 q -1.041797,0.248047 -2.033984,0.372071 -0.992188,0.124023 -2.058789,0.124023 -0.471289,0 -1.190625,-0.0248 -0.719336,-0.04961 -1.537891,-0.148828 -0.818555,-0.124023 -1.686719,-0.297656 -0.868164,-0.173633 -1.637109,-0.446484 1.537891,0.992187 2.703711,1.53789 1.190625,0.545703 2.133203,0.818555 0.942578,0.248047 1.736328,0.322461 0.79375,0.04961 1.5875,0.04961 0.694531,0 1.389063,-0.07441 0.694531,-0.07441 1.389062,-0.248047 v 0.570508 q -0.818555,0.124024 -1.562695,0.223242 -0.744141,0.07441 -1.463477,0.07441 -1.95957,0 -3.720703,-0.570507 -1.736328,-0.570508 -3.646289,-1.537891 0.272852,1.240234 0.272852,1.984375 0,1.934766 -1.066602,4.241602 -1.041797,2.282031 -1.909961,3.54707 -0.868164,1.240234 -1.16582,3.497461 l -0.173633,1.265039 q -0.04961,0.322461 -0.124023,0.644922 -0.04961,0.297656 -0.124024,0.620117 L 22.280515,37.34926 H 18.70864 l -0.37207,-0.471289 q 0.496094,-2.38125 1.041797,-3.522265 0.570508,-1.190625 1.562695,-2.282032 0.496094,-0.570507 1.041797,-1.339453 0.545703,-0.79375 1.16582,-1.785937 0.620117,-0.992188 0.992188,-1.711524 0.37207,-0.74414 0.545703,-1.240234 z m -7.416602,-3.646289 q 0.644922,0.124024 1.016993,0.198438 0.37207,0.04961 0.570507,0.09922 0.198438,0.02481 0.272852,0.02481 0.07441,0 0.124023,0 0.868164,0 1.5875,-0.09922 0.719336,-0.09922 1.513086,-0.09922 0.892969,0 1.488282,0.223242 0.620117,0.223242 0.967382,0.644922 0.372071,0.421679 0.520899,1.041796 0.148828,0.595313 0.148828,1.389063 0,0.446484 -0.223242,1.041797 -0.223242,0.570508 -0.595313,1.240234 -0.347265,0.644922 -0.79375,1.314649 -0.446484,0.669726 -0.868164,1.265039 -0.719336,1.016992 -1.314648,1.761132 -0.570508,0.744141 -0.992188,1.240235 -0.818554,1.016992 -1.488281,3.91914 h 2.778125 q 0.173633,-0.967382 0.37207,-2.604492 0.173633,-1.612304 1.091407,-3.026172 0.446484,-0.694531 0.917773,-1.5875 0.496094,-0.917773 1.041797,-2.058789 1.066601,-2.232422 1.066601,-4.067968 0,-0.892969 -0.347265,-1.711524 -0.322461,-0.818554 -0.917774,-1.438672 -0.595312,-0.620117 -1.438672,-0.967382 -0.843359,-0.372071 -1.835546,-0.372071 -0.79375,0 -1.413868,0.148828 -0.595312,0.148829 -1.066601,0.372071 -0.446484,0.198437 -0.744141,0.421679 -0.297656,0.198438 -0.446484,0.347266 -0.42168,0.42168 -0.595313,0.719336 -0.148828,0.272851 -0.396875,0.620117 z m 3.844727,-1.438672 q -0.719336,0.42168 -0.992188,0.42168 -0.248046,0 -0.248046,-0.272852 0,-0.223242 0.124023,-0.496093 0.124023,-0.297657 0.322461,-0.297657 0.297656,0 0.79375,0.644922 z"
         style="stroke-width:0.26458332"
         id="path31462"
         inkscape:connector-curvature="0" />
    </g>
  </g>
</svg>
