<?xml version="1.0" encoding="UTF-8" standalone="no"?>
<!-- Created with Inkscape (http://www.inkscape.org/) -->

<svg
   xmlns:dc="http://purl.org/dc/elements/1.1/"
   xmlns:cc="http://creativecommons.org/ns#"
   xmlns:rdf="http://www.w3.org/1999/02/22-rdf-syntax-ns#"
   xmlns:svg="http://www.w3.org/2000/svg"
   xmlns="http://www.w3.org/2000/svg"
   xmlns:sodipodi="http://sodipodi.sourceforge.net/DTD/sodipodi-0.dtd"
   xmlns:inkscape="http://www.inkscape.org/namespaces/inkscape"
   width="13.245703mm"
   height="17.487305mm"
   viewBox="0 0 13.245703 17.487305"
   version="1.1"
   id="svg31471"
   inkscape:version="0.92.4 (5da689c313, 2019-01-14)"
   sodipodi:docname="H3.svg">
  <defs
     id="defs31465" />
  <sodipodi:namedview
     id="base"
     pagecolor="#ffffff"
     bordercolor="#666666"
     borderopacity="1.0"
     inkscape:pageopacity="0.0"
     inkscape:pageshadow="2"
     inkscape:zoom="0.35"
     inkscape:cx="-428.97321"
     inkscape:cy="-367.07143"
     inkscape:document-units="mm"
     inkscape:current-layer="layer1"
     showgrid="false"
     fit-margin-top="0"
     fit-margin-left="0"
     fit-margin-right="0"
     fit-margin-bottom="0"
     inkscape:window-width="1920"
     inkscape:window-height="1017"
     inkscape:window-x="-8"
     inkscape:window-y="-8"
     inkscape:window-maximized="1" />
  <metadata
     id="metadata31468">
    <rdf:RDF>
      <cc:Work
         rdf:about="">
        <dc:format>image/svg+xml</dc:format>
        <dc:type
           rdf:resource="http://purl.org/dc/dcmitype/StillImage" />
        <dc:title></dc:title>
      </cc:Work>
    </rdf:RDF>
  </metadata>
  <g
     inkscape:label="Layer 1"
     inkscape:groupmode="layer"
     id="layer1"
     transform="translate(-26.186663,-34.225046)">
    <g
       aria-label="ð“†"
       style="font-style:normal;font-variant:normal;font-weight:normal;font-stretch:normal;font-size:50.79999924px;line-height:1.25;font-family:sans-serif;-inkscape-font-specification:'sans-serif, Normal';font-variant-ligatures:normal;font-variant-caps:normal;font-variant-numeric:normal;font-feature-settings:normal;text-align:start;letter-spacing:0px;word-spacing:0px;writing-mode:lr-tb;text-anchor:start;fill:#000000;fill-opacity:1;stroke:none;stroke-width:0.26458332"
       id="text32018">
      <path
         d="m 38.638616,51.71235 h -3.547071 l -0.37207,-0.471289 q 0,-0.967382 0.198438,-1.934765 0.223242,-0.967383 0.496093,-1.934766 l 0.570508,-1.909961 q 0.198438,-0.694531 0.37207,-1.463476 0.173633,-0.768946 0.173633,-1.488281 0,-1.141016 -0.421679,-1.686719 -0.42168,-0.570508 -1.091407,-0.570508 -1.934765,0 -3.795117,4.216797 -1.835547,4.191992 -3.497461,4.191992 -0.79375,-0.04961 -1.16582,-0.595313 -0.37207,-0.570507 -0.37207,-1.265039 0,-0.496093 0.198437,-1.041796 0.223242,-0.570508 0.545703,-1.041797 l 0.84336,-1.21543 q 0.248047,-0.322461 0.446484,-0.620117 0.223242,-0.297656 0.496094,-0.620117 l 1.5875,-1.934766 q 0.79375,-0.967383 1.562695,-1.95957 0.148828,-2.058789 1.116211,-3.100586 0.967383,-1.041797 2.80293,-1.041797 1.612304,0 2.629296,1.016992 1.016993,0.992188 1.016993,2.877344 0,0.644922 -0.09922,1.314648 -0.07441,0.669727 -0.173633,1.314649 l -0.223242,1.265039 q -0.148828,0.818554 -0.223242,1.810742 -0.07441,0.967383 -0.07441,1.637109 0,1.488282 0.148828,2.926953 l 0.272851,2.926953 z M 35.513225,50.9186 h 2.703711 q -0.248047,-2.554882 -0.322461,-4.018359 -0.07441,-1.463476 -0.07441,-1.885156 0,-1.16582 0.37207,-3.646289 0.372071,-2.505273 0.372071,-3.199805 0,-1.711523 -0.768946,-2.455664 -0.768945,-0.74414 -1.686718,-0.74414 h -0.09922 q -1.761133,0.07441 -2.530078,0.942578 -0.744141,0.868164 -0.744141,1.5875 l 0.02481,0.07441 v 0.37207 q 0,0.396875 -0.04961,0.595313 -0.04961,0.173632 -0.79375,1.141015 -0.719336,0.967383 -1.785937,2.108399 -1.041797,1.141015 -2.058789,2.678906 l -0.297656,0.446484 q -0.42168,0.644922 -0.595313,1.16582 -0.173633,0.520899 -0.173633,0.942579 0,0.347265 0.148828,0.595312 0.173633,0.248047 0.520899,0.248047 1.016992,0 2.108398,-2.38125 1.091407,-2.406055 2.331641,-4.191992 1.240234,-1.785938 2.951758,-1.785938 0.942578,0 1.5875,0.744141 0.669726,0.719336 0.669726,2.356445 0,1.438672 -0.868164,4.117578 -0.843359,2.654102 -0.942578,4.191992 z m 0.669727,-13.841015 q -0.496094,0.37207 -0.768946,0.37207 -0.297656,0 -0.297656,-0.496093 l 0.248047,-0.42168 q 0.570508,0.272851 0.818555,0.545703 z"
         style="stroke-width:0.26458332"
         id="path32020"
         inkscape:connector-curvature="0" />
    </g>
  </g>
</svg>
