<?xml version="1.0" encoding="UTF-8" standalone="no"?>
<!-- Created with Inkscape (http://www.inkscape.org/) -->

<svg
   xmlns:dc="http://purl.org/dc/elements/1.1/"
   xmlns:cc="http://creativecommons.org/ns#"
   xmlns:rdf="http://www.w3.org/1999/02/22-rdf-syntax-ns#"
   xmlns:svg="http://www.w3.org/2000/svg"
   xmlns="http://www.w3.org/2000/svg"
   xmlns:sodipodi="http://sodipodi.sourceforge.net/DTD/sodipodi-0.dtd"
   xmlns:inkscape="http://www.inkscape.org/namespaces/inkscape"
   width="12.774414mm"
   height="19.570898mm"
   viewBox="0 0 12.774414 19.570898"
   version="1.1"
   id="svg19940"
   inkscape:version="0.92.4 (5da689c313, 2019-01-14)"
   sodipodi:docname="H4.svg">
  <defs
     id="defs19934" />
  <sodipodi:namedview
     id="base"
     pagecolor="#ffffff"
     bordercolor="#666666"
     borderopacity="1.0"
     inkscape:pageopacity="0.0"
     inkscape:pageshadow="2"
     inkscape:zoom="0.35"
     inkscape:cx="-357.54492"
     inkscape:cy="-334.76042"
     inkscape:document-units="mm"
     inkscape:current-layer="layer1"
     showgrid="false"
     fit-margin-top="0"
     fit-margin-left="0"
     fit-margin-right="0"
     fit-margin-bottom="0"
     inkscape:window-width="1920"
     inkscape:window-height="1017"
     inkscape:window-x="-8"
     inkscape:window-y="-8"
     inkscape:window-maximized="1" />
  <metadata
     id="metadata19937">
    <rdf:RDF>
      <cc:Work
         rdf:about="">
        <dc:format>image/svg+xml</dc:format>
        <dc:type
           rdf:resource="http://purl.org/dc/dcmitype/StillImage" />
        <dc:title></dc:title>
      </cc:Work>
    </rdf:RDF>
  </metadata>
  <g
     inkscape:label="Layer 1"
     inkscape:groupmode="layer"
     id="layer1"
     transform="translate(-7.2879272,-40.690408)">
    <g
       aria-label="𓆂"
       transform="scale(0.26458333)"
       style="font-style:normal;font-variant:normal;font-weight:normal;font-stretch:normal;font-size:192px;line-height:1.25;font-family:sans-serif;-inkscape-font-specification:sans-serif;font-variant-ligatures:normal;font-variant-caps:normal;font-variant-numeric:normal;font-feature-settings:normal;text-align:start;letter-spacing:0px;word-spacing:0px;writing-mode:lr-tb;text-anchor:start;fill:#000000;fill-opacity:1;stroke:none"
       id="flowRoot20485">
      <path
         d="m 75.638672,173.66547 q -1.03125,7.40625 -9,15.375 -7.96875,7.96875 -10.3125,11.15625 0.9375,0 1.875,-0.0937 7.40625,0 11.8125,3.375 4.5,3.375 4.5,8.90625 0,5.90625 -5.34375,10.6875 -5.25,4.6875 -13.21875,4.6875 -8.53125,0 -13.3125,-4.875 -4.6875,-4.96875 -4.6875,-14.34375 0,-4.78125 2.0625,-8.90625 2.0625,-4.125 7.125,-9.375 l 4.21875,-4.40625 1.6875,-1.6875 q 1.78125,-1.59375 2.8125,-3.28125 1.03125,-1.78125 1.03125,-3.1875 v -0.28125 l -0.375,-0.65625 q -2.71875,-2.4375 -7.875,-3 -5.15625,-0.5625 -8.15625,-0.5625 -3.1875,0 -5.53125,1.125 -2.25,1.125 -4.6875,4.5 l -2.71875,-1.21875 q 0.46875,-11.15625 7.03125,-17.4375 6.65625,-6.375 18,-6.375 11.4375,0 17.34375,4.5 5.90625,4.40625 5.90625,12.46875 v 1.40625 z m -23.71875,27.65625 q 2.8125,-4.875 11.90625,-13.59375 9.09375,-8.71875 9.09375,-17.4375 0,-6.5625 -5.25,-10.03125 -5.15625,-3.46875 -15,-3.46875 -8.53125,0 -14.34375,4.125 -5.8125,4.125 -7.3125,12.5625 2.25,-1.875 4.6875,-2.625 2.4375,-0.75 5.34375,-0.75 7.59375,0 13.21875,1.96875 5.71875,1.96875 5.71875,5.90625 0,1.6875 -1.6875,4.3125 -1.59375,2.53125 -4.6875,5.625 l -4.6875,4.96875 q -3.65625,3.84375 -5.90625,8.0625 -2.25,4.21875 -2.25,8.4375 0,6.46875 3.75,10.96875 3.75,4.5 10.96875,4.5 6.84375,0 11.34375,-3.84375 4.59375,-3.84375 4.59375,-8.8125 0,-3.65625 -3.09375,-6.28125 -3,-2.71875 -11.25,-2.71875 -1.59375,0 -2.34375,0.0937 0,7.40625 1.6875,9.5625 1.78125,2.15625 3.46875,3.5625 l -1.125,2.15625 q -4.5,-2.625 -5.71875,-5.71875 -1.21875,-3.09375 -1.21875,-5.4375 0,-1.125 -0.09375,-2.4375 v -2.625 z m 5.8125,-37.03125 q -2.625,1.59375 -4.03125,1.59375 -1.59375,0 -1.59375,-2.15625 l 1.21875,-1.875 q 1.40625,0 4.40625,2.4375 z"
         id="path20493"
         inkscape:connector-curvature="0" />
    </g>
  </g>
</svg>
