<?xml version="1.0" encoding="UTF-8" standalone="no"?>
<!-- Created with Inkscape (http://www.inkscape.org/) -->

<svg
   xmlns:dc="http://purl.org/dc/elements/1.1/"
   xmlns:cc="http://creativecommons.org/ns#"
   xmlns:rdf="http://www.w3.org/1999/02/22-rdf-syntax-ns#"
   xmlns:svg="http://www.w3.org/2000/svg"
   xmlns="http://www.w3.org/2000/svg"
   xmlns:sodipodi="http://sodipodi.sourceforge.net/DTD/sodipodi-0.dtd"
   xmlns:inkscape="http://www.inkscape.org/namespaces/inkscape"
   width="38.000782mm"
   height="11.608607mm"
   viewBox="0 0 38.000782 11.608607"
   version="1.1"
   id="svg20502"
   inkscape:version="0.92.4 (5da689c313, 2019-01-14)"
   sodipodi:docname="H5.svg">
  <defs
     id="defs20496" />
  <sodipodi:namedview
     id="base"
     pagecolor="#ffffff"
     bordercolor="#666666"
     borderopacity="1.0"
     inkscape:pageopacity="0.0"
     inkscape:pageshadow="2"
     inkscape:zoom="0.35"
     inkscape:cx="-368.97266"
     inkscape:cy="-343.33269"
     inkscape:document-units="mm"
     inkscape:current-layer="layer1"
     showgrid="false"
     fit-margin-top="0"
     fit-margin-left="0"
     fit-margin-right="0"
     fit-margin-bottom="0"
     inkscape:window-width="1920"
     inkscape:window-height="1017"
     inkscape:window-x="-8"
     inkscape:window-y="-8"
     inkscape:window-maximized="1" />
  <metadata
     id="metadata20499">
    <rdf:RDF>
      <cc:Work
         rdf:about="">
        <dc:format>image/svg+xml</dc:format>
        <dc:type
           rdf:resource="http://purl.org/dc/dcmitype/StillImage" />
        <dc:title></dc:title>
      </cc:Work>
    </rdf:RDF>
  </metadata>
  <g
     inkscape:label="Layer 1"
     inkscape:groupmode="layer"
     id="layer1"
     transform="translate(-10.311515,-46.38462)">
    <g
       aria-label="𓆃"
       transform="scale(0.26458333)"
       style="font-style:normal;font-variant:normal;font-weight:normal;font-stretch:normal;font-size:192px;line-height:1.25;font-family:sans-serif;-inkscape-font-specification:sans-serif;font-variant-ligatures:normal;font-variant-caps:normal;font-variant-numeric:normal;font-feature-settings:normal;text-align:start;letter-spacing:0px;word-spacing:0px;writing-mode:lr-tb;text-anchor:start;fill:#000000;fill-opacity:1;stroke:none"
       id="flowRoot21047">
      <path
         d="m 60.535156,219.18695 -1.875,-1.78125 v -0.65625 l -3.65625,1.125 -3.5625,1.3125 -1.875,-1.78125 v -0.75 l -8.71875,2.53125 -1.875,-1.78125 v -34.21875 l 1.40625,-1.78125 q 11.53125,0 22.875,-0.65625 11.34375,-0.75 22.875,-1.59375 l 22.500004,-1.6875 q 10.875,-0.84375 16.6875,-1.5 5.90625,-0.65625 6.75,-0.65625 0.75,0 1.875,0.28125 1.125,0.1875 10.03125,1.3125 l 6,0.75 q 8.625,0.9375 16.3125,1.875 7.78125,0.9375 15.1875,1.96875 l 1.125,1.40625 q -0.5625,4.125 -4.3125,7.03125 -3.65625,2.8125 -10.125,4.6875 l 1.40625,0.1875 q 0.5625,0 1.3125,0.28125 l 1.03125,1.875 q -1.78125,4.21875 -4.6875,7.125 -2.90625,2.8125 -7.78125,2.8125 0,0.375 0.1875,1.125 -3.65625,3.5625 -7.875,5.15625 -4.125,1.59375 -8.90625,2.53125 l -0.65625,1.96875 q -4.125,0.84375 -8.15625,0.84375 -4.59375,0 -9.09375,-1.125 l -1.40625,1.78125 -6.65625,-0.0937 q -3.28125,0 -6.1875,-0.75 -2.8125,-0.65625 -4.125,-1.96875 l -11.250004,2.8125 -1.875,-1.78125 V 216.562 q -2.53125,0.65625 -5.15625,1.21875 -2.53125,0.65625 -5.0625,1.40625 l -1.875,-1.78125 V 216.562 q -2.53125,0.65625 -5.15625,1.21875 -2.53125,0.65625 -5.0625,1.40625 l -1.875,-1.78125 v -0.75 z m 22.5,-19.59375 q 0.375,0 1.96875,-0.28125 l 9.46875,-1.21875 q 0.5625,0 2.34375,-0.5625 1.875,-0.65625 3.937504,-1.40625 l 4.03125,-1.3125 q 1.5,-0.46875 2.15625,-0.65625 0.75,-0.28125 1.59375,-1.21875 l 1.875,-1.96875 2.8125,-2.71875 2.0625,-6.9375 q 0.28125,-1.03125 0.28125,-1.21875 v -0.0937 q -10.21875,0.5625 -34.218754,2.53125 -24,1.875 -39.375,1.875 v 15.1875 z m 48.000004,-21.1875 q -3.09375,0.1875 -6.1875,0.75 -3.09375,0.46875 -6.09375,0.75 l -0.9375,3.46875 q 1.40625,0.28125 4.59375,1.03125 l 7.3125,1.6875 q 0.9375,0.1875 14.0625,3.28125 13.21875,3.09375 11.8125,2.71875 l 5.71875,1.40625 q 8.4375,-1.96875 12.5625,-4.21875 4.21875,-2.34375 5.4375,-5.0625 -7.03125,-0.9375 -14.25,-1.78125 -7.125,-0.9375 -15.5625,-1.875 l -12,-1.40625 q -1.59375,-0.1875 -3.09375,-0.46875 -1.40625,-0.28125 -2.625,-0.28125 z m 24.75,29.0625 q -0.9375,-0.5625 -3,-1.21875 -1.96875,-0.75 -18,-7.3125 l -19.96875,-8.15625 -3.9375,3.9375 25.59375,15.9375 q 2.4375,1.59375 4.03125,2.53125 4.40625,-0.75 8.0625,-1.875 3.65625,-1.125 7.21875,-3.84375 z m 5.53125,-10.96875 -5.4375,-1.3125 -4.40625,-0.9375 -6.84375,-1.6875 q -5.90625,-1.40625 -9.375,-2.0625 -3.46875,-0.65625 -7.3125,-1.6875 l -10.875,-2.625 -0.75,2.0625 q 1.21875,0.5625 4.21875,1.875 3.09375,1.21875 7.03125,2.71875 l 27.9375,11.25 q 6.1875,0 8.71875,-1.59375 2.625,-1.59375 4.125,-4.875 z m -56.34375,1.78125 -3.46875,0.75 3.75,7.875 3.1875,7.21875 q 2.625,1.6875 6.1875,1.875 3.5625,0.1875 6.5625,0.1875 l -0.28125,-0.5625 -9.84375,-10.78125 q -0.65625,-0.65625 -1.40625,-1.5 z m 18.1875,15.28125 q 2.34375,1.125 5.4375,1.40625 3.1875,0.28125 5.90625,0.28125 h 3.75 l -3.5625,-2.15625 -11.8125,-7.3125 -11.34375,-7.125 q -2.25,-1.3125 -3.09375,-1.875 -0.1875,0 -0.28125,0.0937 l -0.28125,0.0937 z m -38.812504,2.25 9.09375,-2.25 v -12.375 q -0.375,0 -1.5,0.1875 l -7.59375,1.03125 z m -12.09375,0 9.09375,-2.25 V 202.5932 h -9.09375 z m -10.59375,-0.0937 7.59375,-2.15625 v -10.9688 h -7.59375 z m -19.6875,0 7.59375,-2.15625 v -10.9688 h -7.59375 z m 56.625,-15.84375 q -0.46875,0.1875 -1.125,0.375 -0.5625,0.0937 -1.03125,0.375 v 15.1875 q 2.15625,-0.46875 4.218754,-1.03125 l 4.21875,-1.125 z m -46.03125,15.75 3,-1.03125 3.09375,-0.9375 v -11.0625 h -6.09375 z"
         id="path21055"
         inkscape:connector-curvature="0" />
    </g>
  </g>
</svg>
