<?xml version="1.0" encoding="UTF-8" standalone="no"?>
<!-- Created with Inkscape (http://www.inkscape.org/) -->

<svg
   xmlns:dc="http://purl.org/dc/elements/1.1/"
   xmlns:cc="http://creativecommons.org/ns#"
   xmlns:rdf="http://www.w3.org/1999/02/22-rdf-syntax-ns#"
   xmlns:svg="http://www.w3.org/2000/svg"
   xmlns="http://www.w3.org/2000/svg"
   xmlns:sodipodi="http://sodipodi.sourceforge.net/DTD/sodipodi-0.dtd"
   xmlns:inkscape="http://www.inkscape.org/namespaces/inkscape"
   width="31.923645mm"
   height="29.443163mm"
   viewBox="0 0 31.923645 29.443163"
   version="1.1"
   id="svg32587"
   inkscape:version="0.92.4 (5da689c313, 2019-01-14)"
   sodipodi:docname="H7.svg">
  <defs
     id="defs32581" />
  <sodipodi:namedview
     id="base"
     pagecolor="#ffffff"
     bordercolor="#666666"
     borderopacity="1.0"
     inkscape:pageopacity="0.0"
     inkscape:pageshadow="2"
     inkscape:zoom="0.35"
     inkscape:cx="-374.6875"
     inkscape:cy="-341.03782"
     inkscape:document-units="mm"
     inkscape:current-layer="layer1"
     showgrid="false"
     fit-margin-top="0"
     fit-margin-left="0"
     fit-margin-right="0"
     fit-margin-bottom="0"
     inkscape:window-width="1920"
     inkscape:window-height="1017"
     inkscape:window-x="-8"
     inkscape:window-y="-8"
     inkscape:window-maximized="1" />
  <metadata
     id="metadata32584">
    <rdf:RDF>
      <cc:Work
         rdf:about="">
        <dc:format>image/svg+xml</dc:format>
        <dc:type
           rdf:resource="http://purl.org/dc/dcmitype/StillImage" />
        <dc:title></dc:title>
      </cc:Work>
    </rdf:RDF>
  </metadata>
  <g
     inkscape:label="Layer 1"
     inkscape:groupmode="layer"
     id="layer1"
     transform="translate(-11.823568,-29.157247)">
    <g
       aria-label="𓆆"
       transform="scale(0.26458333)"
       style="font-style:normal;font-variant:normal;font-weight:normal;font-stretch:normal;font-size:192px;line-height:1.25;font-family:sans-serif;-inkscape-font-specification:'sans-serif, Normal';font-variant-ligatures:normal;font-variant-caps:normal;font-variant-numeric:normal;font-feature-settings:normal;text-align:start;letter-spacing:0px;word-spacing:0px;writing-mode:lr-tb;text-anchor:start;fill:#000000;fill-opacity:1;stroke:none"
       id="flowRoot33132">
      <path
         d="m 109.65625,193.63812 v -6.9375 l -0.9375,-46.78125 -0.1875,-11.625 -0.28125,-9.65625 q 0,-4.21875 -0.0937,-6.65625 l 1.40625,-1.78125 h 9.09375 l 1.59375,1.5 -2.15625,80.0625 q 5.4375,7.6875 8.71875,9 3.28125,1.3125 7.5,1.3125 2.34375,0 4.6875,-0.1875 2.34375,-0.1875 4.78125,-0.1875 6.46875,0 11.15625,3.1875 4.6875,3.1875 10.40625,11.71875 l -2.25,2.0625 q -6.46875,-4.59375 -13.3125,-6.75 -6.75,-2.15625 -15.1875,-2.15625 -7.78125,0 -12.28125,-1.125 -4.40625,-1.125 -9.28125,-4.3125 -3.65625,4.03125 -8.53125,6.75 -4.875,2.71875 -9.375,2.90625 l -12.46875,0.65625 q -9.09375,0.65625 -12.1875,2.4375 -3.09375,1.78125 -4.875,4.40625 l -2.7188,-1.21875 q 0.46875,-7.21875 5.25,-10.125 4.78125,-3 10.96875,-3 h 8.0625 q 4.21875,0 8.0625,-0.65625 3.84375,-0.75 7.125,-3.5625 -2.15625,-0.46875 -4.21875,-0.46875 -3.28125,0 -6.5625,0.46875 -3.28125,0.46875 -5.8125,0.46875 h -0.84375 q -3.65625,0 -9.75,-0.46875 -6.09375,-0.5625 -8.4375,-0.5625 -6.1875,0 -10.59375,3.5625 -4.3125,3.5625 -8.71875,9.46875 l -2.71875,-1.21875 0.65625,-6.09375 1.59375,-3.09375 q 1.59375,-2.8125 3.1875,-4.3125 1.59375,-1.5 3.9375,-2.71875 2.4375,-1.3125 5.71875,-2.25 3.375,-1.03125 10.6875,-1.03125 3.5625,0 7.03125,0.1875 l 6.65625,0.46875 q 4.5,0.28125 9.1875,0.28125 H 95.875 q 1.21875,0 2.53125,-0.0937 l 5.71875,-0.46875 q 3,-0.1875 5.53125,-1.40625 z m 1.5,-80.4375 0.75,38.53125 q 0,7.3125 0.28125,14.4375 l 0.46875,27.5625 q 0,2.15625 -3.28125,3.375 -3.1875,1.125 -7.59375,1.21875 l -6.84375,0.28125 h -1.5 q -5.0625,0 -10.5,-0.5625 -5.34375,-0.5625 -10.96875,-0.5625 -10.40625,0 -16.40625,3.09375 -6,3 -7.3125,8.90625 l 3.09375,-3.1875 q 2.53125,-2.71875 5.625,-4.6875 3.1875,-2.0625 8.15625,-2.34375 h 2.0625 q 4.78125,0 9.46875,0.5625 4.6875,0.5625 9.46875,0.5625 h 1.5 q 1.21875,0 4.5,-0.375 3.375,-0.46875 6.1875,-0.46875 2.71875,0 4.875,0.65625 2.25,0.5625 2.8125,2.25 -0.1875,0.9375 -0.1875,1.40625 -3,3.28125 -6.84375,4.6875 -3.84375,1.40625 -8.625,1.40625 L 82,210.04437 q -4.6875,0 -8.90625,1.125 -4.125,1.03125 -6,4.5 3.46875,-2.53125 8.4375,-3.46875 5.0625,-0.9375 12.46875,-0.9375 9.09375,0 13.6875,-1.96875 4.59375,-1.96875 10.03125,-8.0625 l 1.875,-0.0937 q 5.0625,3.375 9.75,4.5 4.6875,1.125 11.71875,1.125 5.15625,0 11.25,1.21875 6.09375,1.21875 12.375,4.5 -2.90625,-3.5625 -6.46875,-5.71875 -3.46875,-2.25 -9.28125,-2.25 -2.4375,0 -4.78125,0.1875 -2.34375,0.1875 -4.78125,0.1875 -8.25,0 -13.3125,-5.53125 -4.96875,-5.53125 -4.96875,-7.40625 0.375,-15.65625 0.9375,-37.3125 0.65625,-21.75 1.125,-41.4375 z"
         id="path33140"
         inkscape:connector-curvature="0" />
    </g>
  </g>
</svg>
