<?xml version="1.0" encoding="UTF-8" standalone="no"?>
<!-- Created with Inkscape (http://www.inkscape.org/) -->

<svg
   xmlns:dc="http://purl.org/dc/elements/1.1/"
   xmlns:cc="http://creativecommons.org/ns#"
   xmlns:rdf="http://www.w3.org/1999/02/22-rdf-syntax-ns#"
   xmlns:svg="http://www.w3.org/2000/svg"
   xmlns="http://www.w3.org/2000/svg"
   xmlns:sodipodi="http://sodipodi.sourceforge.net/DTD/sodipodi-0.dtd"
   xmlns:inkscape="http://www.inkscape.org/namespaces/inkscape"
   width="13.940234mm"
   height="19.099609mm"
   viewBox="0 0 13.940234 19.099609"
   version="1.1"
   id="svg21626"
   inkscape:version="0.92.4 (5da689c313, 2019-01-14)"
   sodipodi:docname="H8.svg">
  <defs
     id="defs21620" />
  <sodipodi:namedview
     id="base"
     pagecolor="#ffffff"
     bordercolor="#666666"
     borderopacity="1.0"
     inkscape:pageopacity="0.0"
     inkscape:pageshadow="2"
     inkscape:zoom="0.35"
     inkscape:cx="-308.97266"
     inkscape:cy="-235.22922"
     inkscape:document-units="mm"
     inkscape:current-layer="layer1"
     showgrid="false"
     fit-margin-top="0"
     fit-margin-left="0"
     fit-margin-right="0"
     fit-margin-bottom="0"
     inkscape:window-width="1920"
     inkscape:window-height="1017"
     inkscape:window-x="-8"
     inkscape:window-y="-8"
     inkscape:window-maximized="1" />
  <metadata
     id="metadata21623">
    <rdf:RDF>
      <cc:Work
         rdf:about="">
        <dc:format>image/svg+xml</dc:format>
        <dc:type
           rdf:resource="http://purl.org/dc/dcmitype/StillImage" />
        <dc:title></dc:title>
      </cc:Work>
    </rdf:RDF>
  </metadata>
  <g
     inkscape:label="Layer 1"
     inkscape:groupmode="layer"
     id="layer1"
     transform="translate(5.5634847,-67.495993)">
    <g
       aria-label="𓆇"
       transform="scale(0.26458333)"
       style="font-style:normal;font-variant:normal;font-weight:normal;font-stretch:normal;font-size:192px;line-height:1.25;font-family:sans-serif;-inkscape-font-specification:sans-serif;font-variant-ligatures:normal;font-variant-caps:normal;font-variant-numeric:normal;font-feature-settings:normal;text-align:start;letter-spacing:0px;word-spacing:0px;writing-mode:lr-tb;text-anchor:start;fill:#000000;fill-opacity:1;stroke:none"
       id="flowRoot22171">
      <path
         d="m -5.3710937,255.10297 q 7.0312499,0 14.0625,6.1875 9.8437497,8.4375 16.4999997,24.09375 6.46875,15.375 6.46875,26.53125 0,7.6875 -3.1875,11.53125 -3.09375,3.84375 -9,3.84375 -7.59375,0 -14.5312498,-4.96875 -6.9374999,-4.96875 -13.3125,-14.8125 -12.6562502,-19.5 -12.6562502,-34.5 0,-8.34375 4.03125,-13.125 4.125,-4.78125 11.6250003,-4.78125 z m 24.3749997,69.1875 q 4.78125,0 7.21875,-2.90625 2.53125,-3 2.53125,-9.1875 0,-11.8125 -7.6875,-28.40625 -7.78125,-16.78125 -16.8749998,-22.40625 -5.3437499,-3.375 -10.0312499,-3.375 -3.0000001,0 -5.3437503,1.21875 -2.25,1.125 -3.84375,3.1875 -1.5,1.96875 -2.34375,4.6875 -0.75,2.71875 -0.75,5.8125 0,13.96875 12.0937503,32.625 12.0937499,18.65625 25.0312497,18.75 z"
         id="path22179"
         inkscape:connector-curvature="0" />
    </g>
  </g>
</svg>
