<?xml version="1.0" encoding="UTF-8" standalone="no"?>
<!-- Created with Inkscape (http://www.inkscape.org/) -->

<svg
   xmlns:dc="http://purl.org/dc/elements/1.1/"
   xmlns:cc="http://creativecommons.org/ns#"
   xmlns:rdf="http://www.w3.org/1999/02/22-rdf-syntax-ns#"
   xmlns:svg="http://www.w3.org/2000/svg"
   xmlns="http://www.w3.org/2000/svg"
   xmlns:sodipodi="http://sodipodi.sourceforge.net/DTD/sodipodi-0.dtd"
   xmlns:inkscape="http://www.inkscape.org/namespaces/inkscape"
   width="37.926395mm"
   height="36.115665mm"
   viewBox="0 0 37.926395 36.115665"
   version="1.1"
   id="svg22188"
   inkscape:version="0.92.4 (5da689c313, 2019-01-14)"
   sodipodi:docname="I1.svg">
  <defs
     id="defs22182" />
  <sodipodi:namedview
     id="base"
     pagecolor="#ffffff"
     bordercolor="#666666"
     borderopacity="1.0"
     inkscape:pageopacity="0.0"
     inkscape:pageshadow="2"
     inkscape:zoom="0.35"
     inkscape:cx="-403.25977"
     inkscape:cy="-332.6529"
     inkscape:document-units="mm"
     inkscape:current-layer="layer1"
     showgrid="false"
     fit-margin-top="0"
     fit-margin-left="0"
     fit-margin-right="0"
     fit-margin-bottom="0"
     inkscape:window-width="1920"
     inkscape:window-height="1017"
     inkscape:window-x="-8"
     inkscape:window-y="-8"
     inkscape:window-maximized="1" />
  <metadata
     id="metadata22185">
    <rdf:RDF>
      <cc:Work
         rdf:about="">
        <dc:format>image/svg+xml</dc:format>
        <dc:type
           rdf:resource="http://purl.org/dc/dcmitype/StillImage" />
        <dc:title></dc:title>
      </cc:Work>
    </rdf:RDF>
  </metadata>
  <g
     inkscape:label="Layer 1"
     inkscape:groupmode="layer"
     id="layer1"
     transform="translate(-19.383313,-24.703257)">
    <g
       aria-label="𓆈"
       transform="scale(0.26458333)"
       style="font-style:normal;font-variant:normal;font-weight:normal;font-stretch:normal;font-size:192px;line-height:1.25;font-family:sans-serif;-inkscape-font-specification:sans-serif;font-variant-ligatures:normal;font-variant-caps:normal;font-variant-numeric:normal;font-feature-settings:normal;text-align:start;letter-spacing:0px;word-spacing:0px;writing-mode:lr-tb;text-anchor:start;fill:#000000;fill-opacity:1;stroke:none"
       id="flowRoot22733">
      <path
         d="m 162.13477,160.58539 q 0.46875,0.375 1.03125,0.84375 0.5625,0.375 1.59375,0.9375 1.03125,0.5625 2.53125,1.40625 1.59375,0.75 4.03125,1.875 2.34375,0 3.75,-0.46875 1.5,-0.46875 2.25,-1.03125 0.46875,-0.28125 0.65625,-0.5625 0.28125,-0.375 0.46875,-0.5625 0.1875,-0.28125 0.28125,-0.5625 h 0.375 q 1.3125,0 1.3125,1.875 l -4.5,2.8125 q 0.375,0.46875 0.9375,0.84375 0.5625,0.375 1.21875,0.375 0.65625,0 0.84375,-0.0937 0.1875,0 0.28125,-0.0937 0.375,0.0937 0.75,0.28125 0.28125,0.1875 0.5625,0.46875 0.28125,0.1875 0.28125,0.46875 0,0.46875 -0.46875,0.9375 -0.46875,0.46875 -0.9375,0.9375 -0.65625,-0.5625 -2.0625,-1.03125 -1.3125,-0.46875 -2.15625,-0.75 l 0.1875,4.03125 q -0.1875,1.03125 -0.5625,1.40625 -0.375,0.28125 -0.75,0.28125 -0.75,0 -1.21875,-0.65625 -0.46875,-0.65625 -0.65625,-1.125 l 1.3125,-3.9375 q -0.46875,-1.59375 -2.90625,-2.34375 -2.34375,-0.75 -5.4375,-1.40625 -3.5625,-0.75 -6.84375,-2.15625 -3.1875,-1.5 -4.6875,-3.9375 0.375,-1.59375 0.75,-2.53125 0.46875,-1.03125 1.5,-2.53125 l 3.65625,-5.625 q -9.65625,0 -19.125,-0.65625 -9.375,-0.75 -18.75,-2.71875 l -2.53125,-0.46875 2.34375,2.4375 q -3.84375,4.875 -6.75,7.3125 -2.90625,2.4375 -5.34375,4.21875 -0.75,0.5625 -1.5,1.03125 -0.75,0.46875 -1.5,0.9375 -0.65625,0.46875 -1.21875,0.9375 -0.46875,0.46875 -0.65625,1.03125 l 1.21875,3.5625 q -0.375,0.5625 -0.84375,1.125 -0.375,0.46875 -0.84375,0.46875 -0.9375,0 -1.5,-1.96875 0.1875,-0.75 0.375,-1.6875 0.1875,-0.9375 0.375,-1.96875 -0.75,0 -1.3125,0.1875 -0.5625,0.1875 -1.125,0.375 -0.843754,0.375 -1.593754,0.9375 -0.75,0.46875 -1.59375,1.125 -1.59375,-0.65625 -1.59375,-1.6875 0,-0.1875 0.1875,-0.5625 0.1875,-0.28125 0.375,-0.5625 0.28125,-0.28125 0.9375,-0.5625 0.75,-0.0937 1.78125,-0.375 1.125004,-0.375 2.531254,-0.84375 -0.1875,-0.28125 -0.5625,-0.65625 -0.28125,-0.1875 -0.75,-0.375 -0.375,-0.28125 -1.125004,-0.28125 -0.28125,0 -0.5625,0.0937 -0.1875,0 -0.5625,0.0937 -0.84375,-0.1875 -1.21875,-0.65625 -0.28125,-0.46875 -0.28125,-0.84375 0,-0.9375 0.46875,-1.21875 0.5625,-0.28125 0.9375,-0.46875 1.968754,1.3125 3.468754,1.6875 1.59375,0.375 2.625,0.375 0.375,0 1.125,-0.0937 0.75,-0.0937 1.125,-0.1875 l 9.375,-9.5625 q -2.625,-2.4375 -6.28125,-4.6875 -3.5625,-2.25 -6.75,-3.84375 -4.031254,0 -7.968754,0.9375 -3.84375,0.9375 -7.5,0.9375 -4.5,0 -7.78125,-2.15625 -3.1875,-2.25 -4.875,-5.4375 l -1.5,-2.625 v -1.5 q 2.71875,-4.5 7.21875,-6.375 4.59375,-1.96875 9.65625,-1.96875 h 0.9375 q 1.125,0 3.75,1.78125 2.625,1.78125 7.593754,1.78125 1.5,0 3.09375,-0.28125 4.21875,-3.9375 9.1875,-8.15625 5.0625,-4.21875 9.65625,-7.78125 -2.4375,-1.125 -4.5,-2.71875 -2.0625,-1.6875 -3.65625,-4.21875 -1.78125,0 -3,0.75 -1.03125,0.5625 -1.5,1.40625 -0.46875,0.84375 -0.84375,1.40625 -0.0937,0.0937 -0.1875,0.0937 h -0.46875 q -0.1875,0 -1.03125,-0.1875 -0.75,-0.1875 -0.75,-1.21875 0,-0.28125 0.1875,-0.65625 l 0.1875,-0.375 3.5625,-2.8125 q -0.9375,-0.46875 -1.78125,-0.75 -0.84375,-0.28125 -1.59375,-0.46875 -0.84375,-0.28125 -1.59375,-0.375 l -0.1875,-0.375 q -0.0937,-0.1875 -0.0937,-0.65625 0,-0.375 0.375,-0.75 0.375,-0.46875 1.40625,-0.46875 0.46875,0.375 1.21875,0.75 0.65625,0.375 1.5,0.75 0.9375,0.375 2.25,0.84375 -0.1875,-0.5625 -0.5625,-1.40625 -0.28125,-0.84375 -0.65625,-1.59375 -0.375,-0.9375 -0.84375,-1.875 0.28125,-0.375 0.46875,-0.5625 0.28125,-0.28125 0.84375,-0.28125 0.1875,0 0.46875,0.09375 0.28125,0.09375 0.46875,0.1875 0.28125,0.09375 0.375,0.1875 0.1875,1.125 0.5625,2.34375 0.46875,1.125 0.9375,2.15625 0.46875,1.125 1.03125,2.25 0.5625,0.28125 1.125,0.46875 0.65625,0.1875 1.40625,0.65625 0.84375,0.375 1.875,1.125 1.125,0.65625 2.71875,1.78125 2.34375,1.6875 3.28125,2.34375 0.9375,0.5625 1.6875,1.21875 0.84375,0.84375 1.21875,1.875 0.46875,1.03125 0.46875,1.875 0,1.3125 -0.5625,2.4375 -0.5625,1.125 -2.25,2.90625 l -4.5,4.5 q -0.46875,0.46875 -0.75,0.65625 1.6875,-0.1875 3.375,-0.28125 1.6875,-0.0937 3.375,-0.0937 8.25,0 16.125,1.59375 7.96875,1.5 15.9375,3.5625 -0.28125,-0.46875 -0.75,-1.875 -0.46875,-1.5 -0.9375,-3.1875 -0.375,-1.6875 -0.75,-3.09375 -0.28125,-1.5 -0.28125,-2.0625 0,-2.0625 1.40625,-2.90625 1.40625,-0.9375 3.5625,-0.9375 2.8125,0 6.75,1.40625 1.40625,0.46875 3.5625,1.21875 2.15625,0.65625 3.46875,0.9375 0.75,0.1875 2.15625,0.375 1.5,0.1875 2.25,0.1875 1.03125,-0.28125 3.09375,-0.84375 2.15625,-0.5625 5.25,-2.15625 0.65625,0.28125 0.75,0.5625 0.1875,0.1875 0.1875,0.46875 0,0.1875 -0.0937,0.46875 -0.0937,0.1875 -0.1875,0.375 -0.1875,0.28125 -0.28125,0.375 -1.5,0.0937 -2.34375,0.375 -0.84375,0.1875 -1.3125,0.5625 -0.375,0.28125 -0.46875,0.65625 -0.0937,0.375 -0.0937,0.65625 0.9375,0.46875 2.25,0.46875 0.5625,0 1.21875,-0.0937 0.65625,-0.0937 1.21875,-0.375 0.75,0.46875 0.84375,0.84375 0.0937,0.375 0.0937,0.65625 0,0.65625 -0.75,1.40625 -0.46875,0 -0.84375,-0.0937 -0.9375,-0.1875 -1.78125,-0.1875 -0.84375,0 -1.59375,0.1875 -0.75,0.1875 -0.9375,0.65625 0.75,0.9375 1.21875,1.40625 0.5625,0.46875 0.9375,0.9375 0.28125,0.84375 0.28125,1.40625 0,1.125 -1.03125,1.125 -0.46875,0 -1.03125,-0.1875 -0.28125,-0.0937 -0.375,-0.1875 l -1.125,-4.78125 q -0.46875,-0.75 -1.96875,-1.21875 -1.5,-0.46875 -3.46875,-0.75 -1.96875,-0.375 -4.21875,-0.46875 -2.15625,-0.1875 -4.03125,-0.28125 -1.125,-0.0937 -2.34375,-0.1875 -1.21875,-0.0937 -2.25,-0.1875 0.28125,2.15625 1.21875,4.3125 1.03125,2.15625 2.0625,3.75 l 3.84375,5.8125 q 17.0625,9.1875 24.65625,23.53125 7.6875,14.34375 11.15625,37.96875 1.78125,12 3.46875,20.53125 1.78125,8.53125 3.46875,13.875 l -2.71875,1.21875 q -3.28125,-5.15625 -5.4375,-11.71875 -2.15625,-6.5625 -3.75,-13.5 -0.0937,-0.375 -0.28125,-0.9375 -0.0937,-0.5625 -0.46875,-1.875 -0.28125,-1.40625 -0.84375,-3.84375 -0.5625,-2.4375 -1.59375,-6.5625 -5.90625,-24.09375 -12.84375,-32.90625 -6.9375,-8.71875 -18.28125,-9.5625 -1.125,1.125 -2.34375,2.53125 -1.21875,1.40625 -2.34375,2.90625 -1.125,1.5 -2.0625,3.09375 -0.9375,1.59375 -1.5,3.09375 z m -5.34375,-1.21875 q 0.5625,0.84375 1.6875,1.03125 1.21875,0.1875 1.21875,0.28125 0,-0.1875 -0.1875,-0.46875 -0.0937,-0.28125 -0.0937,-0.75 0,-1.125 0.5625,-2.4375 0.5625,-1.3125 1.5,-2.625 0.9375,-1.40625 2.0625,-2.71875 1.21875,-1.3125 2.4375,-2.53125 l 2.8125,-2.8125 0.9375,-0.375 q 9.9375,0.5625 15.375,4.875 5.625,4.3125 10.03125,12.46875 4.5,8.34375 6.9375,18.09375 1.21875,4.59375 2.15625,8.625 0.9375,3.9375 1.78125,7.3125 0.75,4.03125 1.6875,7.96875 0.75,3.375 1.6875,7.3125 1.03125,3.9375 2.0625,7.3125 -0.65625,-3.84375 -1.59375,-9.375 -0.9375,-5.53125 -2.0625,-11.625 -1.125,-6.09375 -2.4375,-12.09375 -1.21875,-6.09375 -2.53125,-10.96875 -5.15625,-19.59375 -16.40625,-30.5625 -5.53125,-5.4375 -10.40625,-7.875 -4.96875,-2.53125 -5.34375,-3.65625 -0.46875,-1.125 -3.375,-5.90625 -3.1875,-5.0625 -3.5625,-8.8125 0,-1.03125 0.5625,-1.5 0.65625,-0.5625 1.5,-0.65625 0.84375,-0.1875 1.78125,-0.1875 0.9375,0 1.59375,-0.0937 -1.3125,-0.28125 -3,-0.65625 -1.59375,-0.375 -3,-0.375 -1.40625,0 -1.40625,1.875 0,2.15625 1.125,5.34375 1.21875,3.09375 2.34375,6.09375 l -1.96875,1.875 q -8.4375,-2.15625 -16.875,-3.9375 -8.34375,-1.78125 -16.875,-1.78125 -3,0 -6.09375,0.28125 -3.09375,0.28125 -6.09375,0.9375 -0.46875,-1.5 -0.65625,-1.96875 -0.1875,-0.5625 -0.28125,-0.9375 2.0625,-1.21875 3.84375,-2.8125 1.78125,-1.59375 3.375,-3.375 l 1.875,-1.875 q 2.34375,-2.15625 2.34375,-3.5625 0,-0.46875 -0.1875,-0.84375 -0.1875,-0.46875 -0.65625,-0.65625 l -14.25,12.28125 q -0.75,0.65625 -1.6875,1.59375 -0.9375,0.84375 -2.0625,2.0625 -2.0625,2.34375 -5.71875,2.34375 -3.281254,0 -6.937504,-1.21875 -3.75,-1.3125 -5.53125,-2.53125 -3.375,0.1875 -5.8125,0.65625 -2.34375,0.46875 -4.03125,1.21875 -1.6875,0.75 -2.8125,1.875 -1.125,1.03125 -1.875,2.4375 1.59375,3.46875 4.5,5.71875 2.90625,2.25 6.9375,2.25 2.34375,0 7.03125,-1.03125 4.6875,-1.03125 6.937504,-1.03125 2.53125,0 7.6875,3.28125 2.53125,1.59375 4.21875,2.625 1.6875,1.03125 2.53125,1.5 0.5625,-0.75 1.5,-1.125 0.9375,-0.46875 1.125,-1.125 4.40625,1.125 9.5625,1.875 5.25,0.75 10.875,1.21875 5.625,0.46875 11.4375,0.65625 5.90625,0.1875 11.53125,0.1875 l 1.3125,2.4375 q -0.1875,0.46875 -3.375,4.96875 -1.59375,2.34375 -2.34375,3.5625 -0.75,1.125 -0.9375,2.4375 z"
         id="path22741"
         inkscape:connector-curvature="0" />
    </g>
  </g>
</svg>
