<?xml version="1.0" encoding="UTF-8" standalone="no"?>
<!-- Created with Inkscape (http://www.inkscape.org/) -->

<svg
   xmlns:dc="http://purl.org/dc/elements/1.1/"
   xmlns:cc="http://creativecommons.org/ns#"
   xmlns:rdf="http://www.w3.org/1999/02/22-rdf-syntax-ns#"
   xmlns:svg="http://www.w3.org/2000/svg"
   xmlns="http://www.w3.org/2000/svg"
   xmlns:sodipodi="http://sodipodi.sourceforge.net/DTD/sodipodi-0.dtd"
   xmlns:inkscape="http://www.inkscape.org/namespaces/inkscape"
   width="37.678322mm"
   height="37.579102mm"
   viewBox="0 0 37.678322 37.579102"
   version="1.1"
   id="svg26684"
   inkscape:version="0.92.4 (5da689c313, 2019-01-14)"
   sodipodi:docname="I10.svg">
  <defs
     id="defs26678" />
  <sodipodi:namedview
     id="base"
     pagecolor="#ffffff"
     bordercolor="#666666"
     borderopacity="1.0"
     inkscape:pageopacity="0.0"
     inkscape:pageshadow="2"
     inkscape:zoom="0.35"
     inkscape:cx="-343.25977"
     inkscape:cy="-363.42649"
     inkscape:document-units="mm"
     inkscape:current-layer="layer1"
     showgrid="false"
     showguides="false"
     fit-margin-top="0"
     fit-margin-left="0"
     fit-margin-right="0"
     fit-margin-bottom="0"
     inkscape:window-width="1920"
     inkscape:window-height="1017"
     inkscape:window-x="-8"
     inkscape:window-y="-8"
     inkscape:window-maximized="1" />
  <metadata
     id="metadata26681">
    <rdf:RDF>
      <cc:Work
         rdf:about="">
        <dc:format>image/svg+xml</dc:format>
        <dc:type
           rdf:resource="http://purl.org/dc/dcmitype/StillImage" />
        <dc:title></dc:title>
      </cc:Work>
    </rdf:RDF>
  </metadata>
  <g
     inkscape:label="Layer 1"
     inkscape:groupmode="layer"
     id="layer1"
     transform="translate(-3.508313,-15.097641)">
    <g
       aria-label="𓆓"
       transform="scale(0.26458333)"
       style="font-style:normal;font-variant:normal;font-weight:normal;font-stretch:normal;font-size:192px;line-height:1.25;font-family:sans-serif;-inkscape-font-specification:sans-serif;font-variant-ligatures:normal;font-variant-caps:normal;font-variant-numeric:normal;font-feature-settings:normal;text-align:start;letter-spacing:0px;word-spacing:0px;writing-mode:lr-tb;text-anchor:start;fill:#000000;fill-opacity:1;stroke:none"
       id="flowRoot27229">
      <path
         d="m 13.259766,70.374452 q 1.3125,-4.40625 4.125,-7.03125 2.8125,-2.71875 7.03125,-4.5 l 2.8125,-1.21875 q 1.21875,-0.5625 2.25,-0.5625 2.53125,0 7.125,2.25 4.6875,2.25 7.5,7.3125 2.90625,4.96875 2.90625,12.1875 0,3.09375 -0.5625,6.09375 -0.46875,3 -1.5,5.71875 0,2.25 0.75,3.46875 0.84375,1.125 2.8125,1.59375 l 2.625,0.75 q 14.34375,-2.71875 25.03125,-3.46875 10.78125,-0.84375 19.875,-0.84375 16.593754,0 29.062504,3.09375 12.46875,3.09375 18,13.968748 5.53125,10.875 5.53125,28.40625 0,4.21875 -0.28125,8.4375 l -0.375,5.625 q -0.1875,2.8125 -0.1875,5.625 0,9.5625 3.9375,20.8125 3.9375,11.15625 3.9375,16.3125 0,0.9375 -0.0937,1.875 -0.0937,0.9375 -0.28125,1.875 l -0.9375,0.375 -1.03125,0.5625 q -8.90625,-4.59375 -12.46875,-21.09375 -3.5625,-16.5 -3.5625,-36.1875 0,-12.9375 -3.84375,-21.1875 -3.84375,-8.25 -9.9375,-10.6875 -6,-2.53125 -22.03125,-2.90625 h -4.593754 q -9.09375,0 -18.1875,0.375 -9,0.375 -18.1875,0.375 -2.4375,0 -5.0625,0.1875 -2.53125,0.0937 -5.15625,0.0937 -8.34375,0 -12.9375,-2.8125 -4.59375,-2.8125 -4.59375,-8.156248 0,-3.28125 1.40625,-7.6875 1.5,-4.40625 1.5,-7.125 0,-3 -1.875,-4.40625 -1.78125,-1.5 -4.21875,-1.5 -2.34375,0 -4.78125,0.84375 -2.4375,0.75 -4.6875,0.75 -4.78125,0 -6.84375,-7.03125 z m 16.6875,-10.3125 q -7.125,2.34375 -9.84375,4.78125 -2.625,2.4375 -3.84375,5.8125 l 0.84375,2.15625 q 0.375,1.125 1.21875,1.6875 0.84375,0.5625 2.15625,0.65625 1.5,0 3.5625,-0.84375 2.0625,-0.84375 4.59375,-0.84375 3.9375,0 7.03125,2.0625 3.09375,1.96875 3.09375,6.09375 0,2.90625 -1.59375,7.875 -1.5,4.875 -1.5,7.59375 0,4.406248 4.21875,6.187498 4.21875,1.6875 11.53125,1.6875 2.25,0 4.5,-0.0937 2.34375,-0.0937 4.59375,-0.0937 9.1875,0 18.1875,-0.375 9.09375,-0.375 18.1875,-0.375 h 4.593754 l 9.84375,0.375 q 10.03125,0.5625 15.75,3.9375 5.71875,3.28125 9.375,11.8125 3.75,8.53125 3.84375,23.71875 0.0937,15.09375 2.71875,29.53125 l 1.21875,5.90625 q 1.03125,4.96875 3.1875,9.28125 2.15625,4.3125 5.4375,6.65625 0,-0.1875 0.0937,-0.375 0,-0.375 0.0937,-0.75 l -0.0937,-0.9375 q -0.28125,-2.53125 -4.125,-13.875 -3.84375,-11.4375 -3.84375,-22.125 0,-3.375 0.1875,-6.75 l 0.28125,-6.9375 q 0,-1.3125 0.0937,-4.03125 0,-25.21875 -9.46875,-34.875 -9.375,-9.656248 -40.125004,-9.656248 -6,0 -11.625,0.375 -5.625,0.28125 -10.6875,0.75 l -6.75,0.75 q -6.75,0.9375 -10.03125,1.6875 -3.28125,0.75 -5.4375,0.75 -2.71875,0 -6,-1.5 -3.28125,-1.5 -3.28125,-5.4375 0,-2.15625 0.84375,-5.4375 0.9375,-3.375 0.9375,-7.6875 0,-6.84375 -3.09375,-12 -3.09375,-5.15625 -10.875,-7.125 z"
         id="path27237"
         inkscape:connector-curvature="0" />
    </g>
  </g>
</svg>
