<?xml version="1.0" encoding="UTF-8" standalone="no"?>
<!-- Created with Inkscape (http://www.inkscape.org/) -->

<svg
   xmlns:dc="http://purl.org/dc/elements/1.1/"
   xmlns:cc="http://creativecommons.org/ns#"
   xmlns:rdf="http://www.w3.org/1999/02/22-rdf-syntax-ns#"
   xmlns:svg="http://www.w3.org/2000/svg"
   xmlns="http://www.w3.org/2000/svg"
   xmlns:sodipodi="http://sodipodi.sourceforge.net/DTD/sodipodi-0.dtd"
   xmlns:inkscape="http://www.inkscape.org/namespaces/inkscape"
   width="38.000782mm"
   height="37.975975mm"
   viewBox="0 0 38.000782 37.975975"
   version="1.1"
   id="svg27246"
   inkscape:version="0.92.4 (5da689c313, 2019-01-14)"
   sodipodi:docname="I10A.svg">
  <defs
     id="defs27240" />
  <sodipodi:namedview
     id="base"
     pagecolor="#ffffff"
     bordercolor="#666666"
     borderopacity="1.0"
     inkscape:pageopacity="0.0"
     inkscape:pageshadow="2"
     inkscape:zoom="0.35"
     inkscape:cx="-240.40235"
     inkscape:cy="-343.42654"
     inkscape:document-units="mm"
     inkscape:current-layer="layer1"
     showgrid="false"
     fit-margin-top="0"
     fit-margin-left="0"
     fit-margin-right="0"
     fit-margin-bottom="0"
     inkscape:window-width="1920"
     inkscape:window-height="1017"
     inkscape:window-x="-8"
     inkscape:window-y="-8"
     inkscape:window-maximized="1" />
  <metadata
     id="metadata27243">
    <rdf:RDF>
      <cc:Work
         rdf:about="">
        <dc:format>image/svg+xml</dc:format>
        <dc:type
           rdf:resource="http://purl.org/dc/dcmitype/StillImage" />
        <dc:title></dc:title>
      </cc:Work>
    </rdf:RDF>
  </metadata>
  <g
     inkscape:label="Layer 1"
     inkscape:groupmode="layer"
     id="layer1"
     transform="translate(23.706046,-19.99242)">
    <g
       aria-label="𓆔"
       transform="scale(0.26458333)"
       style="font-style:normal;font-variant:normal;font-weight:normal;font-stretch:normal;font-size:192px;line-height:1.25;font-family:sans-serif;-inkscape-font-specification:sans-serif;font-variant-ligatures:normal;font-variant-caps:normal;font-variant-numeric:normal;font-feature-settings:normal;text-align:start;letter-spacing:0px;word-spacing:0px;writing-mode:lr-tb;text-anchor:start;fill:#000000;fill-opacity:1;stroke:none"
       id="flowRoot27791">
      <path
         d="m -89.597656,90.374452 q 1.3125,-4.5 4.125,-7.125 2.8125,-2.625 7.03125,-4.40625 2.71875,-1.21875 3.65625,-1.5 0.9375,-0.28125 1.40625,-0.28125 2.25,0 6.75,2.0625 4.78125,2.15625 7.6875,7.78125 3,5.8125 3,12.65625 0,2.812498 -0.5625,5.624998 -0.46875,2.8125 -1.40625,5.4375 0,1.3125 0.1875,2.25 0.28125,0.84375 0.9375,1.5 0.75,0.65625 1.96875,1.21875 1.21875,0.46875 3.09375,0.84375 11.25,-2.15625 22.3125,-3 11.15625,-0.84375 22.4999998,-0.84375 6.37499995,0 10.78125,0.0937 4.40625,0.0937 7.2187502,0.28125 2.8125,0.0937 4.21875,0.28125 1.40625,0.0937 1.96875,0.1875 2.15625,0.46875 7.5,3.65625 l 14.34375,-36.187498 q 1.03125,-2.4375 3.5625,-3.84375 2.625,-1.5 6.09375,-1.5 2.90625,0 4.03125,1.40625 1.21875,1.40625 1.21875,3 0,1.6875 -1.125,3.1875 -1.03125,1.40625 -3.65625,3.75 l -5.90625,20.906248 -1.5,1.03125 q -0.65625,0 -2.0625,0.28125 -1.40625,0.28125 -3.09375,0.75 -1.6875,0.375 -3.375,0.84375 -1.6875,0.46875 -2.8125,0.9375 l -2.90625,7.3125 q 9.65625,6.84375 14.25,15.84375 4.6875,8.90625 4.6875,19.96875 0,2.4375 -0.28125,6.1875 -0.28125,3.65625 -0.65625,7.59375 -0.375,3.9375 -0.65625,7.59375 -0.28125,3.65625 -0.28125,6 0,4.78125 0.84375,9.46875 0.9375,4.59375 2.8125,8.90625 1.5,3.375 2.34375,5.625 0.9375,2.25 1.40625,3.75 0.46875,1.5 0.5625,2.53125 0.1875,1.03125 0.1875,1.96875 0,0.9375 -0.09375,1.875 -0.09375,0.9375 -0.28125,1.875 l -1.96875,0.9375 q -8.71875,-4.5 -12.375,-21.1875 -3.5625,-16.96875 -3.84375,-35.15625 -0.09375,-9.28125 -1.875,-15.9375 -1.78125,-6.75 -5.53125,-11.0625 -3.65625,-4.40625 -9.375,-6.46875 -5.71875,-2.15625 -13.5937502,-2.15625 h -10.21875 q -9.7499998,0.375 -18.7499998,0.65625 -3.84375,0.0937 -7.875,0.1875 -4.03125,0.0937 -7.875,0.1875 -3.75,0.0937 -7.125,0.1875 -3.375,0 -5.8125,0 -3.1875,-0.1875 -6,-0.84375 -2.8125,-0.65625 -5.25,-1.875 -4.96875,-2.4375 -4.96875,-7.875 0,-2.4375 0.65625,-4.78125 l 1.875,-7.78125 q 0.28125,-1.21875 0.28125,-2.625 0,-2.718748 -2.0625,-4.406248 -1.96875,-1.6875 -4.6875,-1.6875 -2.34375,0 -4.59375,0.84375 -2.15625,0.75 -4.3125,0.75 -1.21875,0 -2.25,-0.46875 -0.9375,-0.46875 -1.6875,-1.125 -0.75,-0.75 -1.21875,-1.5 -0.46875,-0.84375 -0.75,-1.5 l -0.84375,-2.53125 z m 133.3125,64.406248 q -0.09375,-8.34375 -2.625,-14.4375 -2.53125,-6.09375 -6.09375,-10.59375 -2.4375,-2.90625 -5.0625,-5.0625 -2.53125,-2.25 -5.0625,-3.84375 -2.4375,-1.6875 -4.59375,-2.71875 -2.15625,-1.03125 -3.65625,-1.6875 -2.34375,-0.1875 -5.25,-0.375 -2.9062502,-0.1875 -6.0937503,-0.28125 -3.0937499,-0.1875 -6.2812499,-0.1875 -3.09375,-0.0937 -5.90625,-0.0937 -9.2812498,0 -17.0624998,0.46875 -7.6875,0.46875 -14.15625,1.40625 -6.46875,0.9375 -9.84375,1.40625 -3.375,0.375 -3.75,0.375 -3.09375,0 -6.09375,-1.5 -3,-1.59375 -3,-5.71875 0,-2.8125 0.84375,-5.8125 0.9375,-3.09375 0.9375,-6.281248 0,-7.875 -3.28125,-12.84375 -3.28125,-4.96875 -10.59375,-6.84375 -2.25,0.65625 -4.40625,1.59375 -2.15625,0.84375 -3.9375,2.0625 -1.78125,1.21875 -3.1875,2.90625 -1.3125,1.6875 -2.15625,3.9375 0.9375,2.625 1.875,3.5625 0.9375,0.9375 1.96875,0.9375 1.21875,0 3.46875,-0.9375 2.34375,-0.9375 4.875,-0.9375 3.46875,0 6.75,2.34375 3.46875,2.34375 3.46875,6.656248 0,1.59375 -0.46875,3.65625 l -1.96875,7.6875 q -0.46875,2.0625 -0.46875,3.5625 0,2.4375 1.3125,4.03125 1.40625,1.59375 3.84375,2.53125 2.53125,0.9375 5.90625,1.40625 3.375,0.375 7.5,0.375 2.25,0 5.4375,0 3.1875,-0.0937 6.9375,-0.1875 3.84375,-0.0937 7.875,-0.1875 4.03125,-0.0937 7.96875,-0.28125 9.1875,-0.28125 19.2187498,-0.65625 6.8437499,0 11.8125002,0.65625 4.96875,0.5625 8.625,1.96875 3.65625,1.3125 6.28125,3.46875 2.625,2.15625 4.78125,5.25 7.125,10.21875 7.125,27.5625 0,8.0625 0.65625,15.375 0.65625,7.3125 2.15625,15.375 2.90625,16.125 9.65625,21.375 0,-0.375 0.09375,-0.65625 0,-2.25 -1.40625,-5.90625 -1.3125,-3.65625 -3.5625,-8.25 -0.84375,-1.6875 -1.5,-3.84375 -0.5625,-2.15625 -1.03125,-4.40625 -0.46875,-2.25 -0.75,-4.40625 -0.1875,-2.15625 -0.1875,-3.84375 0,-3.375 0.28125,-7.21875 0.375,-3.84375 0.75,-7.6875 0.375,-3.84375 0.65625,-7.5 0.375,-3.75 0.375,-6.75 z m -11.90625,-46.6875 q 2.71875,-1.125 4.78125,-1.5 2.0625,-0.46875 4.21875,-0.65625 l 5.625,-20.062498 q 0.28125,-1.125 2.15625,-2.71875 1.875,-1.59375 2.4375,-2.90625 0,-1.96875 -2.25,-1.96875 -1.03125,0 -2.15625,0.375 -1.03125,0.375 -2.0625,0.9375 -0.9375,0.5625 -1.6875,1.3125 -0.75,0.65625 -1.03125,1.21875 z"
         id="path27799"
         inkscape:connector-curvature="0" />
    </g>
  </g>
</svg>
