<?xml version="1.0" encoding="UTF-8" standalone="no"?>
<!-- Created with Inkscape (http://www.inkscape.org/) -->

<svg
   xmlns:dc="http://purl.org/dc/elements/1.1/"
   xmlns:cc="http://creativecommons.org/ns#"
   xmlns:rdf="http://www.w3.org/1999/02/22-rdf-syntax-ns#"
   xmlns:svg="http://www.w3.org/2000/svg"
   xmlns="http://www.w3.org/2000/svg"
   xmlns:sodipodi="http://sodipodi.sourceforge.net/DTD/sodipodi-0.dtd"
   xmlns:inkscape="http://www.inkscape.org/namespaces/inkscape"
   width="37.77755mm"
   height="37.554298mm"
   viewBox="0 0 37.77755 37.554298"
   version="1.1"
   id="svg8"
   inkscape:version="0.92.4 (5da689c313, 2019-01-14)"
   sodipodi:docname="I11.svg">
  <defs
     id="defs2" />
  <sodipodi:namedview
     id="base"
     pagecolor="#ffffff"
     bordercolor="#666666"
     borderopacity="1.0"
     inkscape:pageopacity="0.0"
     inkscape:pageshadow="2"
     inkscape:zoom="0.35"
     inkscape:cx="-394.6875"
     inkscape:cy="-421.4509"
     inkscape:document-units="mm"
     inkscape:current-layer="layer1"
     showgrid="false"
     fit-margin-top="0"
     fit-margin-left="0"
     fit-margin-right="0"
     fit-margin-bottom="0"
     inkscape:window-width="1920"
     inkscape:window-height="1017"
     inkscape:window-x="-8"
     inkscape:window-y="-8"
     inkscape:window-maximized="1" />
  <metadata
     id="metadata5">
    <rdf:RDF>
      <cc:Work
         rdf:about="">
        <dc:format>image/svg+xml</dc:format>
        <dc:type
           rdf:resource="http://purl.org/dc/dcmitype/StillImage" />
        <dc:title></dc:title>
      </cc:Work>
    </rdf:RDF>
  </metadata>
  <g
     inkscape:label="Layer 1"
     inkscape:groupmode="layer"
     id="layer1"
     transform="translate(-17.115234,0.22984895)">
    <g
       aria-label="𓆕"
       style="font-style:normal;font-variant:normal;font-weight:normal;font-stretch:normal;font-size:50.79999924px;line-height:1.25;font-family:sans-serif;-inkscape-font-specification:'sans-serif, Normal';font-variant-ligatures:normal;font-variant-caps:normal;font-variant-numeric:normal;font-feature-settings:normal;text-align:start;letter-spacing:0px;word-spacing:0px;writing-mode:lr-tb;text-anchor:start;fill:#000000;fill-opacity:1;stroke:none;stroke-width:0.26458332"
       id="text4520">
      <path
         d="M 17.115234,3.2676122 Q 17.4625,2.1017919 18.206641,1.4072607 18.950781,0.68792474 20.066992,0.21663568 l 0.744141,-0.32246093 q 0.347265,-0.12402343 0.644922,-0.12402343 h 0.148828 q 1.909961,0.27285155 3.150195,1.78593748 1.240234,1.4882812 1.240234,4.1175781 0,0.7937499 -0.148828,1.5626952 -0.124023,0.7441407 -0.347265,1.3890625 0,0.3472656 0.04961,0.6201172 0.07441,0.2728516 0.272852,0.5208984 0.32246,0.1240235 0.644921,0.1984375 l 0.669727,0.1984373 q 1.413867,-0.2728513 2.80293,-0.4712888 1.413867,-0.1984375 2.827734,-0.322461 0.124023,-0.4960937 0.248047,-1.1162109 0.148828,-0.6449219 0.148828,-1.2402343 0,-1.0417969 -0.545703,-1.5875 -0.520899,-0.5705078 -1.289844,-0.5705078 -0.570508,0 -1.16582,0.2232422 -0.570508,0.1984375 -1.141016,0.1984375 -0.843359,0 -1.364258,-0.7689453 -0.520898,-0.79375 -0.520898,-1.2154297 l 0.02481,-0.099219 q 0.04961,-0.868164 0.942578,-1.7363281 0.917773,-0.8929687 2.604492,-1.41386713 l 0.471289,-0.14882812 q 0.198437,-0.0496094 0.396875,-0.0744141 0.198437,-0.0496094 0.322461,-0.0496094 h 0.124023 q 2.108399,0.52089842 3.050977,2.33164055 0.967383,1.8107422 0.967383,4.3160156 0,1.4634765 -0.347266,2.7781249 l 0.148828,-0.024805 h 0.173633 q 0.744141,-0.049609 1.488281,-0.049609 h 1.488281 q 1.041797,0 2.083594,0.024805 1.041797,0.024805 2.083594,0.074414 l 1.463476,0.074414 q 1.190625,0.049609 2.554883,0.9425779 1.389063,0.868164 2.579688,1.909961 1.215429,1.016992 1.95957,2.331641 0.768945,1.289844 1.116211,2.827734 0.347265,1.537891 0.347265,3.125391 v 0.719336 q 0,0.347265 -0.07441,1.041796 -0.07441,0.669727 -0.173632,1.240235 l -0.272852,1.562695 q -0.09922,0.595313 -0.198437,1.314649 -0.09922,0.694531 -0.09922,1.289843 0,2.678906 1.265039,4.985742 1.265039,2.306836 1.265039,3.59668 0,0.520898 -0.198438,0.892969 l -0.248047,0.09922 -0.272851,0.148828 q -2.00918,-0.967383 -3.175,-5.357813 -1.141016,-4.390429 -1.141016,-6.672461 0,-0.297656 0.04961,-0.694531 0.04961,-0.42168 0.04961,-0.917773 l 0.02481,-1.041797 q 0,-3.249414 -0.942578,-5.432227 -0.917774,-2.207617 -4.043164,-3.844726 -2.951758,-0.37207 -5.928321,-0.37207 h -0.868164 q -2.182812,0.04961 -4.316015,0.173632 -2.108399,0.124024 -4.266406,0.124024 h -0.967383 l -2.033984,-0.04961 q -1.761133,-0.04961 -3.075782,-0.545703 -1.289843,-0.496093 -1.289843,-2.058789 0,-0.8185545 0.248046,-1.6619139 0.248047,-0.868164 0.396875,-1.4634765 l 0.124009,-0.47129 q 0.04961,-0.2728515 0.04961,-0.5457031 0,-0.7193359 -0.545703,-1.1658203 -0.520898,-0.471289 -1.21543,-0.471289 -0.620117,0 -1.240234,0.2232422 -0.595312,0.2232421 -1.16582,0.2232421 -0.644922,0 -1.041797,-0.4216796 Q 17.4625,4.4334325 17.338477,4.0861669 L 17.115234,3.4164403 Z m 15.949414,6.8460938 -1.488281,0.148828 q -0.768945,0.07441 -1.537891,0.198437 l -1.513086,0.248047 q -0.347265,0.04961 -0.669726,0.124024 -0.297656,0.07441 -0.644922,0.124023 -0.545703,0 -1.513086,-0.396875 -0.967383,-0.396875 -0.967383,-1.488281 0,-0.5457031 0.223242,-1.3394531 0.248047,-0.8185547 0.248047,-2.0835937 0,-2.0091797 -0.917773,-3.2990234 -0.917773,-1.3146484 -2.75332,-1.7859375 -1.686719,0.4960937 -2.505274,1.1658203 -0.79375,0.6697266 -1.091406,1.6123047 0.07441,0.1488281 0.248047,0.6697265 0.198437,0.4960938 0.79375,0.4960938 0.396875,0 0.892969,-0.2232422 0.520898,-0.2480469 1.141015,-0.2480469 1.165821,0 1.984375,0.6449219 0.84336,0.6201171 0.84336,1.8107421 0,0.79375 -0.396875,2.1332031 -0.396875,1.3146484 -0.396875,1.9843754 0,1.141015 1.091406,1.488281 1.116211,0.347265 3.423047,0.37207 l 2.257226,0.04961 q 2.455664,0 4.836914,-0.148828 2.406055,-0.173632 4.861719,-0.173632 l 1.16582,0.0248 2.257227,0.09922 q 2.38125,0.148828 3.175,0.669727 0.79375,0.520898 1.835546,1.413867 1.066602,0.892968 1.934766,2.951757 0.868164,2.033985 0.868164,5.680274 v 0.719336 q 0,0.520898 -0.04961,0.868164 -0.02481,0.347265 -0.02481,0.669726 v 0.396875 q 0.07441,1.240235 0.272852,2.43086 0.198437,1.190625 0.496093,2.38125 l 0.396875,1.463476 q 0.347266,1.389063 0.917774,2.579688 0.570508,1.16582 1.339453,1.785937 v -0.198437 q 0,-0.992188 -1.265039,-3.447852 -1.240235,-2.480469 -1.240235,-4.787304 0,-0.768946 0.07441,-1.513086 0.09922,-0.768946 0.223242,-1.537891 l 0.248047,-1.513086 q 0.124023,-0.694531 0.198437,-1.488281 0.07441,-0.79375 0.07441,-1.513086 0,-3.075781 -1.364258,-5.457031 -1.364257,-2.38125 -5.630664,-4.712891 -1.736328,-0.124023 -3.447851,-0.1736326 -1.711524,-0.074414 -3.447852,-0.074414 -1.934765,0 -3.472656,0.099219 -1.513086,0.07441 -1.95957,0.124024 z m 0.84336,-2.9269532 q -0.04961,0.5457031 -0.124024,1.0666015 -0.07441,0.5208984 -0.173633,1.0666016 0.322461,-0.049609 0.620117,-0.074414 l 0.620118,-0.024805 q 0.421679,-1.265039 0.421679,-2.7781249 0,-2.2076172 -0.892968,-3.8199219 Q 33.511133,1.0103857 31.923633,0.53909662 29.864844,1.059995 28.996679,1.7545263 28.15332,2.4242528 28.029297,2.8707372 q -0.09922,0.4464844 0.223242,1.0417969 0.347265,0.5953125 0.917773,0.5953125 0.322461,0 0.818555,-0.2232422 0.496094,-0.2480469 1.16582,-0.2480469 1.165821,0 1.959571,0.8433594 0.818554,0.8185546 0.818554,2.0091796 z"
         style="stroke-width:0.26458332"
         id="path4522"
         inkscape:connector-curvature="0" />
    </g>
  </g>
</svg>
