<?xml version="1.0" encoding="UTF-8" standalone="no"?>
<!-- Created with Inkscape (http://www.inkscape.org/) -->

<svg
   xmlns:dc="http://purl.org/dc/elements/1.1/"
   xmlns:cc="http://creativecommons.org/ns#"
   xmlns:rdf="http://www.w3.org/1999/02/22-rdf-syntax-ns#"
   xmlns:svg="http://www.w3.org/2000/svg"
   xmlns="http://www.w3.org/2000/svg"
   xmlns:sodipodi="http://sodipodi.sourceforge.net/DTD/sodipodi-0.dtd"
   xmlns:inkscape="http://www.inkscape.org/namespaces/inkscape"
   width="37.802341mm"
   height="37.603905mm"
   viewBox="0 0 37.802341 37.603905"
   version="1.1"
   id="svg27808"
   inkscape:version="0.92.4 (5da689c313, 2019-01-14)"
   sodipodi:docname="I11A.svg">
  <defs
     id="defs27802" />
  <sodipodi:namedview
     id="base"
     pagecolor="#ffffff"
     bordercolor="#666666"
     borderopacity="1.0"
     inkscape:pageopacity="0.0"
     inkscape:pageshadow="2"
     inkscape:zoom="0.35"
     inkscape:cx="-326.11523"
     inkscape:cy="-340.47532"
     inkscape:document-units="mm"
     inkscape:current-layer="layer1"
     showgrid="false"
     fit-margin-top="0"
     fit-margin-left="0"
     fit-margin-right="0"
     fit-margin-bottom="0"
     inkscape:window-width="1920"
     inkscape:window-height="1017"
     inkscape:window-x="-8"
     inkscape:window-y="-8"
     inkscape:window-maximized="1" />
  <metadata
     id="metadata27805">
    <rdf:RDF>
      <cc:Work
         rdf:about="">
        <dc:format>image/svg+xml</dc:format>
        <dc:type
           rdf:resource="http://purl.org/dc/dcmitype/StillImage" />
        <dc:title></dc:title>
      </cc:Work>
    </rdf:RDF>
  </metadata>
  <g
     inkscape:label="Layer 1"
     inkscape:groupmode="layer"
     id="layer1"
     transform="translate(1.0278442,-21.145334)">
    <g
       aria-label="𓆖"
       transform="scale(0.26458333)"
       style="font-style:normal;font-variant:normal;font-weight:normal;font-stretch:normal;font-size:192px;line-height:1.25;font-family:sans-serif;-inkscape-font-specification:sans-serif;font-variant-ligatures:normal;font-variant-caps:normal;font-variant-numeric:normal;font-feature-settings:normal;text-align:start;letter-spacing:0px;word-spacing:0px;writing-mode:lr-tb;text-anchor:start;fill:#000000;fill-opacity:1;stroke:none"
       id="flowRoot28353">
      <path
         d="m -3.6972656,93.231874 q 1.3125,-4.40625 4.12499998,-7.03125 2.81250002,-2.71875 7.03125002,-4.5 l 2.8124996,-1.21875 q 1.21875,-0.5625 2.25,-0.5625 2.15625,0 6.75,2.0625 4.6875,2.0625 7.6875,7.78125 3,5.71875 3,12.656246 0,2.8125 -0.5625,5.625 -0.46875,2.8125 -1.40625,5.4375 0,2.625 0.84375,3.75 0.84375,1.03125 2.625,1.40625 l 2.71875,0.65625 q 11.15625,-2.15625 22.3125,-3 11.15625,-0.84375 22.5,-0.84375 h 4.5 q 2.25,0 4.5,0.0937 l 8.0625,0.1875 q 7.124996,0.28125 8.249996,0.84375 1.21875,0.46875 6.1875,3.5625 5.0625,3 9.09375,6.84375 4.125,3.75 7.125,8.53125 3,4.6875 4.5,10.21875 1.5,5.4375 1.5,11.625 0,5.71875 -1.59375,13.78125 -1.5,8.0625 -1.5,13.78125 l 0.1875,3.75 q 0.46875,3.9375 1.6875,7.59375 1.21875,3.5625 2.71875,7.125 l 3.09375,6.9375 q 1.5,3.5625 1.6875,7.40625 v 0.375 q 0,0.65625 -0.28125,1.40625 -0.1875,0.65625 -0.375,1.5 l -0.9375,0.375 -1.03125,0.5625 q -8.71875,-4.5 -12.375,-21.1875 -3.5625,-16.78125 -3.84375,-35.15625 -0.1875,-18.46875 -7.40625,-27 -7.125,-8.625 -22.968746,-8.625 h -10.21875 q -8.90625,0 -17.71875,0.65625 -8.8125,0.5625 -17.71875,0.5625 h -2.34375 l -9.65625,-0.28125 q -6.28125,0 -11.25,-2.4375 -4.96875,-2.4375 -4.96875,-7.875 0,-2.25 0.65625,-4.78125 l 1.875,-7.78125 q 0.28125,-1.3125 0.28125,-2.625 0,-2.71875 -2.0625,-4.40625 -1.96875,-1.687496 -4.6875,-1.687496 -2.3437496,0 -4.5937496,0.843746 -2.15625,0.75 -4.3125,0.75 -2.43750003,0 -3.93750003,-1.593746 -1.49999997,-1.6875 -1.96874997,-3 l -0.84375,-2.53125 z M 109.36523,206.95062 q 3.75,0 5.625,2.34375 1.875,2.34375 1.875,5.15625 0,2.8125 -1.875,5.25 -1.875,2.34375 -5.625,2.34375 H 2.7714844 q -3.28125002,0 -4.96875,-2.25 -1.6875,-2.34375 -1.6875,-5.15625 0,-2.71875 1.59375,-4.96875 1.68749998,-2.34375 5.0625,-2.71875 z M 12.990234,83.013124 q -4.5937496,1.3125 -8.3437496,3.65625 -3.75000002,2.25 -5.34375002,6.84375 0.9375,2.625 1.87500002,3.5625 0.9375,0.9375 1.96875,0.9375 1.21875,0 3.46875,-0.9375 2.34375,-0.9375 4.8749996,-0.9375 3.375,0 6.75,2.34375 3.46875,2.343746 3.46875,6.656246 0,1.78125 -0.46875,3.65625 l -1.96875,7.6875 q -0.46875,1.875 -0.46875,3.5625 0,4.78125 5.15625,6.5625 5.25,1.78125 13.40625,1.78125 2.53125,0 4.96875,-0.0937 2.4375,-0.0937 4.6875,-0.0937 9.5625,0 18.9375,-0.5625 9.375,-0.5625 18.84375,-0.5625 h 3.75 l 5.625,0.1875 q 14.999996,0.84375 22.124996,11.15625 7.125,10.21875 7.125,27.5625 l -0.0937,2.34375 q 0,12.09375 2.90625,28.3125 2.90625,16.21875 9.65625,21.375 l 0.0937,-0.375 q -0.46875,-3.46875 -1.78125,-6.65625 l -2.71875,-6.375 q -3.28125,-7.875 -4.125,-11.90625 -0.75,-4.125 -0.75,-6 v -2.15625 q 0,-3.28125 0.375,-6.5625 0.46875,-3.375 1.03125,-6.65625 l 1.03125,-6.65625 q 0.375,-2.4375 0.5625,-4.96875 0.1875,-2.53125 0.1875,-3.9375 0,-8.8125 -5.53125,-18.375 -5.4375,-9.65625 -21.09375,-18.09375 -6.093746,-0.46875 -12.093746,-0.65625 -6,-0.28125 -12.09375,-0.28125 -18.375,0 -31.21875,1.875 -12.84375,1.78125 -13.59375,1.78125 -3,0 -6.09375,-1.5 -3,-1.5 -3,-5.71875 0,-2.8125 0.84375,-5.8125 0.9375,-3.09375 0.9375,-6.28125 0,-7.781246 -3.28125,-12.749996 -3.28125,-5.0625 -10.59375,-6.9375 z M 3.2402344,209.95062 q -2.34375002,0 -3.18750003,1.03125 -0.84374999,1.03125 -0.84374999,3 0,2.90625 1.31249999,4.5 1.12500003,0.5625 2.34375003,0.5625 H 109.36523 q 2.25,0 3.375,-1.40625 1.125,-1.5 1.125,-3.1875 0,-1.6875 -1.125,-3.09375 -1.125,-1.40625 -3.375,-1.40625 z m 77.6249996,-28.6875 h -56.8125 l -1.40625,-1.78125 q 0.5625,-7.6875 10.125,-13.96875 9.5625,-6.375 18.9375,-6.375 9.46875,0 19.78125,6 10.3125,6 10.96875,14.625 z m -55.03125,-3 h 53.34375 q -1.40625,-6.375 -10.5,-11.25 -9.09375,-4.875 -16.59375,-4.875 -7.59375,0 -16.03125,4.875 -8.4375,4.78125 -10.21875,11.25 z"
         id="path28361"
         inkscape:connector-curvature="0" />
    </g>
  </g>
</svg>
