<?xml version="1.0" encoding="UTF-8" standalone="no"?>
<!-- Created with Inkscape (http://www.inkscape.org/) -->

<svg
   xmlns:dc="http://purl.org/dc/elements/1.1/"
   xmlns:cc="http://creativecommons.org/ns#"
   xmlns:rdf="http://www.w3.org/1999/02/22-rdf-syntax-ns#"
   xmlns:svg="http://www.w3.org/2000/svg"
   xmlns="http://www.w3.org/2000/svg"
   xmlns:sodipodi="http://sodipodi.sourceforge.net/DTD/sodipodi-0.dtd"
   xmlns:inkscape="http://www.inkscape.org/namespaces/inkscape"
   width="26.14414mm"
   height="42.862495mm"
   viewBox="0 0 26.14414 42.862495"
   version="1.1"
   id="svg4531"
   inkscape:version="0.92.4 (5da689c313, 2019-01-14)"
   sodipodi:docname="I12.svg">
  <defs
     id="defs4525" />
  <sodipodi:namedview
     id="base"
     pagecolor="#ffffff"
     bordercolor="#666666"
     borderopacity="1.0"
     inkscape:pageopacity="0.0"
     inkscape:pageshadow="2"
     inkscape:zoom="0.35"
     inkscape:cx="-386.11607"
     inkscape:cy="-391.45985"
     inkscape:document-units="mm"
     inkscape:current-layer="layer1"
     showgrid="false"
     fit-margin-top="0"
     fit-margin-left="0"
     fit-margin-right="0"
     fit-margin-bottom="0"
     inkscape:window-width="1920"
     inkscape:window-height="1017"
     inkscape:window-x="-8"
     inkscape:window-y="-8"
     inkscape:window-maximized="1" />
  <metadata
     id="metadata4528">
    <rdf:RDF>
      <cc:Work
         rdf:about="">
        <dc:format>image/svg+xml</dc:format>
        <dc:type
           rdf:resource="http://purl.org/dc/dcmitype/StillImage" />
        <dc:title></dc:title>
      </cc:Work>
    </rdf:RDF>
  </metadata>
  <g
     inkscape:label="Layer 1"
     inkscape:groupmode="layer"
     id="layer1"
     transform="translate(-14.847377,-2.3970881)">
    <g
       aria-label="𓆗"
       style="font-style:normal;font-variant:normal;font-weight:normal;font-stretch:normal;font-size:50.79999924px;line-height:1.25;font-family:sans-serif;-inkscape-font-specification:'sans-serif, Normal';font-variant-ligatures:normal;font-variant-caps:normal;font-variant-numeric:normal;font-feature-settings:normal;text-align:start;letter-spacing:0px;word-spacing:0px;writing-mode:lr-tb;text-anchor:start;fill:#000000;fill-opacity:1;stroke:none;stroke-width:0.26458332"
       id="text5078">
      <path
         d="m 28.04347,8.2757985 0.84336,0.7689453 q 0.421679,0.396875 0.620117,0.9177734 0.223242,0.5208988 0.223242,1.2650388 0,1.463477 -0.818555,3.720703 -0.79375,2.232422 -2.158007,4.514453 l -1.438672,2.406055 q -2.083594,3.398242 -3.075781,5.680273 -0.992188,2.282032 -0.992188,3.844727 0,0.272851 0.02481,0.545703 0.0248,0.272852 0.07441,0.545703 0.768945,-0.148828 1.389062,-0.148828 0.719336,0 1.364258,0.248047 0.644922,0.248047 1.364258,0.892969 1.016992,-0.198438 2.033984,-0.297657 l 1.63711,-0.173632 2.158007,-0.124024 h 0.768946 l 0.620117,-0.02481 h 0.719336 q 3.026172,0 4.415234,0.694532 1.413867,0.694531 1.413867,1.835547 0,0.32246 -0.173633,0.843359 -0.148828,0.496094 -0.272851,0.79375 0.74414,0.347266 0.992187,1.091406 0.248047,0.719336 0.248047,1.488281 v 0.446485 q -0.04961,0.496093 -0.148828,0.917773 -0.09922,0.42168 -0.124023,0.768945 v 0.223243 q 0,0.79375 0.347265,1.438671 0.372071,0.644922 0.892969,1.240235 l -0.471289,0.620117 Q 39.602455,44.813103 38.982337,43.870525 38.387025,42.927946 37.99015,41.662907 L 37.518861,40.24904 q -2.331641,0 -4.415234,-0.148828 -2.083594,-0.148828 -3.943946,-0.148828 H 28.04347 q -2.108398,0.04961 -4.241601,0.198437 -2.108399,0.173633 -4.241602,0.173633 -3.199804,0 -3.96875,-0.570508 -0.74414,-0.570507 -0.74414,-1.612304 0,-0.818555 0.396875,-1.562695 0.421679,-0.744141 1.488281,-1.016993 -0.868164,-0.818554 -1.21543,-1.513086 -0.322461,-0.694531 -0.322461,-1.488281 0,-0.719336 0.223243,-1.736328 0.223242,-1.041797 0.37207,-1.810742 l 0.42168,-2.306836 q 0.322461,-1.761133 0.496093,-3.993555 0.198438,-2.232421 0.198438,-4.7625 v -1.413867 l -0.07441,-2.778125 q 0,-0.669726 -0.02481,-1.364257 0,-2.6541019 0.595313,-3.5718754 Q 17.997572,7.8789235 19.064174,7.4324391 18.94015,7.3828298 18.171205,7.0107595 17.40226,6.6386892 16.906166,6.5642751 l -0.545703,-0.049609 q -0.595313,0 -0.917774,-0.2728515 -0.297656,-0.2728516 -0.297656,-0.6697266 0,-0.79375 1.314648,-1.4386718 1.339454,-0.6697266 2.753321,-1.190625 1.413867,-0.5457031 2.802929,-0.5457031 2.753321,0 3.844727,2.0835937 1.116211,2.0835937 2.182812,3.7951167 z m 0.892969,2.9765625 q 0,-1.6867188 -1.612305,-2.6292969 -1.5875,-0.9673828 -4.092773,-0.9673828 l -0.644922,0.049609 q -0.396875,0 -0.818554,0.074414 L 20.15558,7.9781423 Q 19.064174,8.1517751 18.51847,8.6726735 17.997572,9.1935719 17.799135,9.8881032 17.600697,10.55783 17.600697,12.467791 l 0.04961,2.579687 0.04961,1.5875 v 1.612305 q 0,1.95957 -0.124024,3.894336 -0.09922,1.909961 -0.446484,3.844726 l -0.173633,1.091406 -0.347265,1.934766 q -0.148829,0.768945 -0.396875,1.860351 -0.223243,1.091407 -0.223243,1.711524 0,1.240234 1.339454,2.480469 1.339453,1.215429 2.75332,1.637109 1.438672,0.42168 3.844726,0.42168 h 0.967383 l 2.356445,-0.09922 q 2.207618,-0.04961 3.398243,-0.198438 1.215429,-0.148828 1.562695,-0.148828 0.322461,0 0.620117,-0.04961 l 0.644922,-0.04961 q 0.297656,0 0.644922,-0.02481 h 1.116211 q 0.471289,0 1.016992,0.04961 l 1.389062,0.148828 q 0.173633,0 0.372071,0.07441 0.124023,-0.347265 0.223242,-0.669726 0.09922,-0.347266 0.148828,-0.694531 0,-0.917774 -1.141016,-1.289844 -1.116211,-0.37207 -2.133203,-0.42168 l -1.091407,-0.0496 q -0.347266,0 -1.066602,-0.02481 -3.91914,0 -6.325195,0.446484 -2.406054,0.446485 -2.976562,0.446485 -0.347266,0 -0.992188,-0.173633 -0.644922,-0.173633 -1.116211,-0.545703 l -0.545703,-0.396875 -0.347265,-0.446484 q -0.198438,-0.84336 -0.198438,-1.562696 0,-3.299023 4.241602,-10.045898 4.241601,-6.77168 4.241601,-10.145117 z M 18.890541,37.098845 q -0.372071,-0.173633 -0.694531,-0.37207 -0.322461,-0.223243 -0.669727,-0.471289 -0.942578,0.07441 -1.413867,0.520898 -0.446485,0.42168 -0.446485,1.438672 0,0.620117 0.446485,0.942578 0.471289,0.297656 1.53789,0.297656 h 0.79375 q 2.406055,0 4.787305,-0.124023 2.406055,-0.124024 4.812109,-0.173633 h 1.091407 q 1.934765,0 4.092773,0.148828 2.158008,0.148828 4.564062,0.148828 l 0.396875,0.272852 q 0.198438,0.545703 0.347266,1.141015 0.173633,0.620118 0.42168,1.190625 0,-0.07441 -0.02481,-0.124023 l 0.02481,-0.272852 q 0.04961,-0.545703 0.148828,-1.141015 0.124023,-0.570508 0.124023,-1.141016 0,-0.545703 -0.223242,-0.992187 Q 38.7839,37.9174 38.138978,37.644548 L 37.097181,37.49572 36.055384,37.3965 q -0.496093,-0.04961 -0.967382,-0.07441 h -0.347266 q -0.471289,0 -0.669727,0.0248 -0.198437,0.02481 -0.347265,0.02481 -0.198438,0 -1.984375,0.223242 -1.761133,0.198437 -3.993555,0.198437 -0.892969,0 -1.934765,0.02481 -1.041797,0.02481 -2.182813,0.02481 h -1.562695 q -0.396875,0 -1.041797,-0.124024 -0.620117,-0.148828 -0.967383,-0.248047 z M 26.50558,7.3580251 Q 26.232728,6.9363454 26.034291,6.5146657 L 25.042103,4.6047048 Q 24.620424,3.9101736 23.752259,3.5381033 22.884095,3.166033 21.817494,3.166033 q -1.265039,0 -2.902149,0.7193359 -1.612304,0.7193359 -1.785937,0.79375 l -0.223242,0.1240234 q -0.272852,0.1488281 -0.620117,0.3472656 -0.322461,0.1736328 -0.322461,0.4464844 v 0.099219 q 0.198437,0.1240235 0.471289,0.1240235 0.09922,0 0.198437,0 0.124024,0 0.248047,-0.024805 0.396875,0 1.314649,0.3720703 0.917773,0.3472656 1.934765,1.0169922 0.198438,-0.049609 0.396875,-0.074414 l 0.37207,-0.049609 1.810743,-0.1736328 1.934765,0.024805 q 0.322461,0.049609 0.992188,0.1736328 z M 24.446791,33.700603 q -0.446485,-0.322461 -0.868164,-0.446485 -0.396875,-0.124023 -0.892969,-0.124023 h -0.347266 q -0.198437,0 -0.396875,0.04961 0.347266,0.272852 0.744141,0.446485 0.396875,0.148828 0.967383,0.148828 l 0.223242,-0.02481 q 0.297656,0 0.570508,-0.04961 z"
         style="stroke-width:0.26458332"
         id="path5080"
         inkscape:connector-curvature="0" />
    </g>
  </g>
</svg>
