<?xml version="1.0" encoding="UTF-8" standalone="no"?>
<svg
   xmlns:dc="http://purl.org/dc/elements/1.1/"
   xmlns:cc="http://creativecommons.org/ns#"
   xmlns:rdf="http://www.w3.org/1999/02/22-rdf-syntax-ns#"
   xmlns:svg="http://www.w3.org/2000/svg"
   xmlns="http://www.w3.org/2000/svg"
   xmlns:sodipodi="http://sodipodi.sourceforge.net/DTD/sodipodi-0.dtd"
   xmlns:inkscape="http://www.inkscape.org/namespaces/inkscape"
   version="1.0"
   width="263.31308pt"
   height="379.9014pt"
   viewBox="0 0 263.31308 379.9014"
   preserveAspectRatio="xMidYMid meet"
   id="svg8"
   sodipodi:docname="I12A.svg"
   inkscape:version="0.92.4 (5da689c313, 2019-01-14)">
  <defs
     id="defs12" />
  <sodipodi:namedview
     pagecolor="#ffffff"
     bordercolor="#666666"
     borderopacity="1"
     objecttolerance="10"
     gridtolerance="10"
     guidetolerance="10"
     inkscape:pageopacity="0"
     inkscape:pageshadow="2"
     inkscape:window-width="1920"
     inkscape:window-height="1017"
     id="namedview10"
     showgrid="false"
     fit-margin-top="0"
     fit-margin-left="0"
     fit-margin-right="0"
     fit-margin-bottom="0"
     inkscape:zoom="0.42142857"
     inkscape:cx="-143.84245"
     inkscape:cy="256"
     inkscape:window-x="-8"
     inkscape:window-y="-8"
     inkscape:window-maximized="1"
     inkscape:current-layer="svg8" />
  <metadata
     id="metadata2">
Created by potrace 1.10, written by Peter Selinger 2001-2011
<rdf:RDF>
  <cc:Work
     rdf:about="">
    <dc:format>image/svg+xml</dc:format>
    <dc:type
       rdf:resource="http://purl.org/dc/dcmitype/StillImage" />
    <dc:title></dc:title>
  </cc:Work>
</rdf:RDF>
</metadata>
  <g
     transform="matrix(0.1,0,0,-0.1,-19.686919,397.90141)"
     id="g6"
     style="fill:#000000;stroke:none">
    <path
       d="m 622,3969 c -13,-5 -47,-13 -75,-18 -54,-9 -130,-36 -182,-63 -16,-9 -44,-24 -61,-33 -17,-8 -48,-33 -69,-55 -35,-36 -39,-45 -38,-91 1,-40 7,-61 30,-92 40,-58 131,-128 200,-156 32,-13 62,-27 67,-31 4,-5 -12,-50 -36,-102 -24,-51 -52,-127 -60,-168 -40,-183 -48,-226 -48,-245 0,-11 -6,-51 -14,-90 -8,-38 -22,-115 -31,-170 -9,-55 -23,-133 -31,-173 -8,-40 -14,-94 -14,-120 -1,-26 -5,-67 -10,-92 -5,-25 -19,-164 -31,-310 -33,-412 -16,-707 58,-995 29,-113 88,-258 134,-330 10,-16 22,-37 26,-46 23,-49 128,-158 213,-222 93,-70 147,-97 290,-146 51,-18 214,-41 284,-41 63,0 195,24 227,40 10,6 27,10 39,10 12,0 34,6 48,14 15,7 45,22 66,32 66,31 169,104 209,148 44,48 106,136 123,176 3,8 12,29 19,45 7,17 20,47 29,68 9,21 16,49 16,63 0,14 5,35 11,46 12,23 26,140 36,308 6,108 -6,329 -33,620 -19,197 -15,474 7,534 19,51 91,126 122,126 92,0 156,-64 194,-194 33,-118 24,-486 -19,-696 -6,-30 -14,-82 -18,-115 -8,-63 -21,-130 -48,-255 -11,-52 -16,-122 -15,-225 1,-180 3,-188 104,-398 44,-93 142,-230 202,-284 41,-37 98,-63 136,-63 75,1 151,70 151,138 0,29 -34,119 -61,162 -5,8 -14,26 -20,40 -6,14 -20,38 -33,55 -12,16 -30,50 -40,75 -10,25 -24,60 -32,78 -8,18 -14,41 -14,51 0,10 -7,35 -15,54 -19,46 -19,153 0,237 8,36 22,101 30,145 9,44 23,103 31,131 8,28 14,61 14,74 0,13 6,46 14,74 39,137 70,382 70,546 1,192 -27,321 -101,478 -53,110 -154,230 -226,264 -174,86 -182,88 -281,88 -104,0 -167,-15 -265,-62 -64,-32 -171,-126 -206,-183 -40,-63 -77,-143 -97,-205 -11,-36 -24,-76 -30,-90 -6,-14 -14,-54 -19,-90 -4,-36 -12,-92 -18,-125 -14,-75 -14,-298 -1,-385 9,-60 20,-208 39,-515 4,-66 3,-138 -1,-160 -5,-22 -11,-58 -15,-80 -15,-97 -122,-215 -219,-243 -222,-64 -479,123 -540,393 -15,65 -34,246 -35,335 -2,107 25,273 57,348 8,18 14,41 14,50 0,10 7,27 15,38 8,10 15,26 15,34 0,8 20,55 44,105 24,49 71,149 106,220 34,72 66,137 71,145 5,8 12,22 15,30 3,8 10,22 15,30 5,8 12,22 15,30 4,8 39,83 79,165 85,175 117,254 148,365 49,172 50,370 3,485 -61,150 -142,260 -251,343 -5,5 -17,11 -25,15 -22,11 -56,31 -71,43 -15,10 -84,32 -185,58 -66,18 -166,20 -202,5 z m 293,-187 c 68,-34 180,-136 169,-153 -3,-5 -21,-9 -40,-9 -20,0 -63,-6 -97,-14 -139,-33 -197,-41 -287,-41 -106,1 -149,17 -250,92 l -51,38 28,22 c 15,13 33,23 40,23 7,0 27,6 45,14 51,21 100,37 138,46 54,13 270,0 305,-18 z m 281,-299 c 25,-56 44,-201 33,-254 -4,-24 -8,-67 -9,-96 0,-29 -6,-67 -14,-85 -8,-18 -22,-53 -31,-78 -31,-80 -181,-401 -215,-460 -5,-8 -11,-22 -14,-30 -3,-8 -10,-22 -15,-30 -19,-29 -161,-329 -161,-338 0,-6 -6,-23 -14,-39 -8,-15 -22,-48 -31,-73 -10,-25 -23,-58 -30,-75 -7,-16 -21,-57 -30,-90 -9,-33 -22,-76 -28,-95 -6,-19 -14,-57 -18,-85 -3,-27 -12,-86 -19,-130 -28,-184 27,-480 120,-640 37,-65 177,-212 225,-238 112,-59 205,-86 301,-87 55,0 190,32 207,49 6,6 18,11 27,11 24,0 114,84 152,142 38,59 61,127 79,234 12,74 10,183 -11,599 -15,290 -8,622 14,685 9,25 16,51 16,57 0,12 55,129 85,182 26,47 128,139 184,167 103,51 219,43 332,-25 19,-11 41,-24 49,-28 70,-31 138,-123 171,-231 11,-37 25,-82 31,-101 17,-55 37,-229 38,-323 0,-88 -8,-160 -37,-318 -14,-79 -21,-107 -58,-245 -7,-27 -20,-84 -29,-125 -9,-41 -23,-108 -32,-149 -11,-47 -17,-120 -17,-205 0,-112 3,-141 23,-199 12,-37 27,-70 31,-73 5,-3 9,-12 9,-21 0,-8 24,-53 53,-100 91,-148 108,-189 67,-160 -38,26 -100,120 -154,232 -45,92 -56,127 -70,215 -15,100 -15,113 3,260 11,85 25,182 31,215 6,33 18,96 26,140 8,44 20,103 25,130 10,47 19,128 35,303 8,84 -12,289 -32,341 -8,18 -14,40 -14,48 0,8 -18,51 -40,96 -69,143 -145,196 -291,204 -60,4 -78,1 -88,-11 -8,-9 -19,-16 -25,-16 -24,-1 -119,-98 -133,-136 -58,-159 -57,-154 -56,-404 0,-154 6,-276 17,-355 12,-89 16,-202 16,-447 0,-342 0,-341 -45,-443 -8,-16 -24,-52 -36,-80 -77,-172 -297,-313 -514,-329 -88,-6 -225,5 -295,25 -151,41 -325,161 -399,274 -63,97 -143,260 -152,310 -4,22 -13,60 -19,85 -7,25 -18,70 -25,100 -13,52 -29,321 -29,490 0,135 15,444 25,500 6,30 14,100 19,155 11,122 27,252 42,325 5,30 14,75 18,100 4,25 12,65 18,90 6,25 19,81 28,125 35,172 55,243 97,350 37,95 85,124 277,165 119,26 254,62 265,72 16,14 24,9 41,-29 z"
       id="path4"
       inkscape:connector-curvature="0" />
  </g>
</svg>
