<?xml version="1.0" encoding="UTF-8" standalone="no"?>
<!-- Created with Inkscape (http://www.inkscape.org/) -->

<svg
   xmlns:dc="http://purl.org/dc/elements/1.1/"
   xmlns:cc="http://creativecommons.org/ns#"
   xmlns:rdf="http://www.w3.org/1999/02/22-rdf-syntax-ns#"
   xmlns:svg="http://www.w3.org/2000/svg"
   xmlns="http://www.w3.org/2000/svg"
   xmlns:sodipodi="http://sodipodi.sourceforge.net/DTD/sodipodi-0.dtd"
   xmlns:inkscape="http://www.inkscape.org/namespaces/inkscape"
   width="37.901562mm"
   height="16.643946mm"
   viewBox="0 0 37.901562 16.643946"
   version="1.1"
   id="svg822"
   inkscape:version="0.92.4 (5da689c313, 2019-01-14)"
   sodipodi:docname="I14.svg">
  <defs
     id="defs816" />
  <sodipodi:namedview
     id="base"
     pagecolor="#ffffff"
     bordercolor="#666666"
     borderopacity="1.0"
     inkscape:pageopacity="0.0"
     inkscape:pageshadow="2"
     inkscape:zoom="0.35"
     inkscape:cx="-320.40234"
     inkscape:cy="-348.86008"
     inkscape:document-units="mm"
     inkscape:current-layer="layer1"
     showgrid="false"
     fit-margin-top="0"
     fit-margin-left="0"
     fit-margin-right="0"
     fit-margin-bottom="0"
     inkscape:window-width="1920"
     inkscape:window-height="1017"
     inkscape:window-x="-8"
     inkscape:window-y="-8"
     inkscape:window-maximized="1" />
  <metadata
     id="metadata819">
    <rdf:RDF>
      <cc:Work
         rdf:about="">
        <dc:format>image/svg+xml</dc:format>
        <dc:type
           rdf:resource="http://purl.org/dc/dcmitype/StillImage" />
        <dc:title></dc:title>
      </cc:Work>
    </rdf:RDF>
  </metadata>
  <g
     inkscape:label="Layer 1"
     inkscape:groupmode="layer"
     id="layer1"
     transform="translate(2.5393799,-39.886826)">
    <g
       aria-label="𓆙"
       transform="scale(0.26458333)"
       style="font-style:normal;font-variant:normal;font-weight:normal;font-stretch:normal;font-size:192px;line-height:1.25;font-family:sans-serif;-inkscape-font-specification:sans-serif;font-variant-ligatures:normal;font-variant-caps:normal;font-variant-numeric:normal;font-feature-settings:normal;text-align:start;letter-spacing:0px;word-spacing:0px;writing-mode:lr-tb;text-anchor:start;fill:#000000;fill-opacity:1;stroke:none"
       id="flowRoot1370">
      <path
         d="m 132.15234,213.37836 q -2.25,-0.9375 -7.78125,-3.46875 -5.53125,-2.625 -9.84375,-2.625 -2.34375,0 -4.6875,0.65625 -2.25,0.5625 -5.8125,2.0625 l -3.5625,1.40625 q -2.812496,1.125 -5.062496,1.59375 -2.25,0.5625 -3.1875,0.5625 -2.625,0 -6.1875,-3.84375 -3.46875,-3.84375 -3.46875,-10.3125 0,-6.5625 -2.4375,-9.46875 -2.71875,1.6875 -3.375,8.90625 -0.65625,7.125 -5.0625,10.96875 -4.40625,3.84375 -7.03125,3.84375 -2.8125,0 -8.25,-3.375 -5.4375,-3.46875 -5.90625,-15.84375 0,-1.03125 -0.09375,-2.53125 v -0.5625 q 0,-1.21875 0.28125,-2.15625 0,-1.5 0.09375,-3 0.1875,-1.5 0.1875,-3 0,-2.4375 -0.75,-4.59375 -0.75,-2.25 -3,-2.25 -4.03125,0 -5.53125,13.21875 -1.5,13.21875 -5.4375,18.5625 -3.9375,5.34375 -11.34375,5.34375 -8.53125,0 -12.09375,-3.9375 -3.5625002,-4.03125 -3.5625002,-10.40625 l 0.09375,-1.59375 q 0,-3.09375 1.4062502,-9.84375 1.5,-6.84375 1.5,-12.28125 0,-2.53125 -0.375,-5.0625 -0.375,-2.53125 -1.3125,-5.0625 -1.5937502,0.75 -3.2812503,1.21875 -1.6875,0.375 -3.3749999,0.46875 l -3.84375005,0.1875 q -5.06249995,0 -7.40624995,-2.53125 -2.2500001,-2.53125 -2.2500001,-5.34375 0,-3.75 3.7500001,-6.09375 3.8437499,-2.4375 9.75,-2.4375 9.4687502,0 13.4062502,6.28125 3.9375,6.1875 3.9375,16.5 0,7.96875 -1.6875,15.09375 -1.59375,7.03125 -1.59375,9.46875 0,2.8125 1.5,4.59375 1.59375,1.78125 6,1.78125 2.71875,0 4.3125,-1.875 1.6875,-1.875 2.34375,-7.125 l 1.125,-8.4375 q 1.40625,-9.1875 3.28125,-12.46875 1.875,-3.375 4.875,-5.25 3,-1.96875 5.15625,-1.96875 4.03125,0 8.53125,4.3125 4.5,4.21875 4.5,13.96875 v 2.0625 l -0.1875,2.15625 -0.375,3.46875 q -0.1875,1.875 -0.1875,3.65625 0,2.625 1.03125,4.875 1.125,2.15625 4.78125,2.625 2.71875,-1.125 3.5625,-3 0.84375,-1.96875 0.84375,-4.59375 v -1.875 q 0,-0.9375 -0.09375,-1.96875 0,-6.375 3.65625,-9.375 3.75,-3.09375 7.59375,-3.09375 3.5625,0 6.28125,2.71875 2.71875,2.625 3.09375,10.5 0.375,7.78125 3.28125,10.6875 2.625,0 5.15625,-0.46875 2.624996,-0.5625 5.249996,-1.3125 l 5.15625,-1.3125 q 2.53125,-0.65625 5.15625,-0.84375 l 2.4375,-0.0937 h 1.03125 q 1.125,0 2.25,0.375 1.125,0.375 14.34375,9.9375 z m -119.343746,-50.625 q 1.3125,3.09375 1.78125,6.1875 0.5625,3.09375 0.5625,6.1875 0,5.34375 -1.5,13.3125 -1.40625,7.875 -1.40625,9.28125 v 1.59375 q 0,5.15625 2.625,8.15625 2.71875,3 10.03125,3 4.59375,0 7.6875,-2.71875 3.1875,-2.8125 5.15625,-13.03125 l 1.78125,-10.5 q 1.40625,-7.21875 3.375,-9 2.0625,-1.875 4.125,-1.875 l 0.65625,0.0937 q 3.09375,0.28125 4.59375,2.71875 1.5,2.34375 1.59375,6.1875 v 1.5 q 0,1.3125 -0.09375,2.53125 l 0.09375,2.15625 q 0,0.84375 -0.28125,1.3125 0,8.0625 0.84375,11.53125 0.84375,3.375 3.28125,5.90625 2.4375,2.4375 7.40625,3.1875 3.65625,-1.6875 5.90625,-4.5 2.34375,-2.90625 2.625,-7.03125 0.28125,-4.125 1.6875,-7.59375 1.40625,-3.5625 4.6875,-4.59375 0.46875,0.1875 0.9375,0.28125 l 0.84375,0.1875 q 3.46875,3.46875 3.5625,9.46875 0.09375,5.90625 1.03125,8.4375 1.03125,2.4375 5.25,5.34375 4.40625,0 11.156246,-3 6.75,-3.09375 11.15625,-3.375 h 0.5625 q 2.71875,0 5.53125,0.75 l -1.125,-0.84375 q -1.78125,-0.375 -3.84375,-0.375 -4.21875,0 -11.4375,1.96875 -7.218746,1.875 -11.437496,1.875 l -0.9375,-0.375 q -2.625,-2.625 -3.5625,-6.46875 -0.84375,-3.9375 -1.5,-10.5 -0.65625,-6.5625 -5.625,-6.5625 -2.8125,0 -5.8125,2.34375 -3,2.25 -3,6.65625 0,1.78125 0.09375,3.28125 0.1875,1.40625 0.1875,2.0625 0,4.5 -2.90625,7.125 -2.8125,2.53125 -4.96875,2.53125 -1.78125,0 -5.0625,-1.96875 -3.1875,-2.0625 -3.1875,-8.53125 v -1.78125 q 0,-0.75 0.28125,-3.9375 0.28125,-3.28125 0.28125,-6.375 0,-6.84375 -2.53125,-10.21875 -2.53125,-3.46875 -7.5,-4.5 -10.03125,3 -10.78125,20.15625 -0.75,17.0625 -10.03125,17.0625 h -0.75 q -5.90625,-0.46875 -7.875,-2.90625 -1.96875,-2.4375 -1.96875,-6.375 0,-2.34375 1.5,-10.125 1.59375,-7.875 1.59375,-13.5 0,-1.59375 -0.09375,-3.1875 l -0.375,-3.375 q -0.84375,-6.28125 -2.25,-8.71875 -1.40625,-2.4375 -4.21875,-4.03125 -2.7187502,-1.59375 -6.6562503,-1.59375 -3.09375,0 -7.125,1.3125 -3.9374999,1.3125 -3.9374999,4.5 0,3.09375 2.0625,3.9375 2.0624999,0.84375 4.49999995,0.84375 1.03124995,0 2.06250005,-0.0937 l 1.78125,-0.1875 q 3.6562499,-0.28125 6.9375002,-2.15625 z"
         id="path1378"
         inkscape:connector-curvature="0" />
    </g>
  </g>
</svg>
