<?xml version="1.0" encoding="UTF-8" standalone="no"?>
<svg
   xmlns:dc="http://purl.org/dc/elements/1.1/"
   xmlns:cc="http://creativecommons.org/ns#"
   xmlns:rdf="http://www.w3.org/1999/02/22-rdf-syntax-ns#"
   xmlns:svg="http://www.w3.org/2000/svg"
   xmlns="http://www.w3.org/2000/svg"
   xmlns:sodipodi="http://sodipodi.sourceforge.net/DTD/sodipodi-0.dtd"
   xmlns:inkscape="http://www.inkscape.org/namespaces/inkscape"
   version="1.0"
   width="507.87024pt"
   height="379.59503pt"
   viewBox="0 0 507.87024 379.59503"
   preserveAspectRatio="xMidYMid meet"
   id="svg8"
   sodipodi:docname="I14A.svg"
   inkscape:version="0.92.4 (5da689c313, 2019-01-14)">
  <defs
     id="defs12" />
  <sodipodi:namedview
     pagecolor="#ffffff"
     bordercolor="#666666"
     borderopacity="1"
     objecttolerance="10"
     gridtolerance="10"
     guidetolerance="10"
     inkscape:pageopacity="0"
     inkscape:pageshadow="2"
     inkscape:window-width="1920"
     inkscape:window-height="1017"
     id="namedview10"
     showgrid="false"
     fit-margin-top="0"
     fit-margin-left="0"
     fit-margin-right="0"
     fit-margin-bottom="0"
     inkscape:zoom="0.39597315"
     inkscape:cx="7.8714737"
     inkscape:cy="257.46006"
     inkscape:window-x="-8"
     inkscape:window-y="-8"
     inkscape:window-maximized="1"
     inkscape:current-layer="svg8" />
  <metadata
     id="metadata2">
Created by potrace 1.10, written by Peter Selinger 2001-2011
<rdf:RDF>
  <cc:Work
     rdf:about="">
    <dc:format>image/svg+xml</dc:format>
    <dc:type
       rdf:resource="http://purl.org/dc/dcmitype/StillImage" />
    <dc:title></dc:title>
  </cc:Work>
</rdf:RDF>
</metadata>
  <g
     transform="matrix(0.1,0,0,-0.1,-13.685378,410)"
     id="g6"
     style="fill:#000000;stroke:none">
    <path
       d="m 561,4065 -31,-36 V 3900 3770 H 394 c -138,0 -159,-5 -201,-43 -18,-16 -23,-31 -23,-73 0,-29 6,-65 14,-81 7,-15 21,-46 31,-68 24,-56 39,-91 70,-160 52,-116 67,-150 80,-180 7,-16 27,-59 43,-95 45,-97 46,-106 20,-124 -12,-9 -31,-16 -41,-16 -24,0 -127,-52 -172,-86 -50,-38 -78,-104 -78,-186 -1,-50 3,-72 16,-86 9,-10 17,-23 17,-28 0,-16 50,-64 68,-64 9,0 26,-7 36,-15 11,-8 31,-15 45,-15 14,0 44,-7 66,-16 38,-14 47,-14 130,6 142,34 150,35 184,11 32,-23 52,-57 82,-140 34,-98 42,-207 36,-506 -9,-433 -27,-966 -32,-976 -11,-17 45,-246 73,-296 30,-55 150,-167 205,-191 62,-28 159,-43 199,-31 18,5 48,9 66,9 27,0 45,12 105,72 79,79 129,168 160,283 8,33 21,80 29,105 10,35 13,174 13,625 1,546 2,583 20,625 42,101 102,150 181,150 72,0 111,-31 145,-115 43,-105 44,-126 44,-730 0,-564 1,-583 22,-678 13,-54 34,-122 48,-151 29,-62 91,-136 138,-164 42,-26 166,-46 202,-32 14,6 39,10 55,10 67,0 170,80 207,161 57,125 78,325 62,604 -17,306 4,532 55,600 30,39 99,75 145,75 47,0 105,-34 130,-75 35,-61 43,-145 51,-595 4,-277 11,-448 19,-470 6,-19 11,-48 11,-63 0,-16 16,-52 36,-83 83,-125 223,-187 366,-162 35,6 70,17 79,24 8,8 20,14 25,14 5,0 32,20 59,44 56,48 82,102 109,226 12,57 16,129 16,305 0,219 2,233 25,300 34,96 72,120 142,92 44,-17 60,-53 72,-172 18,-159 57,-388 79,-460 22,-73 18,-63 70,-148 57,-91 202,-167 382,-200 160,-30 322,-40 441,-28 123,13 135,16 144,39 6,16 -38,61 -62,62 -6,0 -24,6 -40,14 -26,13 -61,23 -215,62 -32,8 -84,20 -115,28 -194,48 -259,73 -324,123 -39,29 -59,53 -70,84 -34,91 -48,168 -53,289 -6,136 -19,225 -40,280 -8,19 -17,42 -20,50 -4,8 -15,29 -26,45 -11,17 -23,37 -26,45 -10,22 -46,60 -57,60 -6,0 -18,6 -26,14 -23,19 -145,49 -178,43 -32,-5 -91,-26 -113,-38 -8,-5 -22,-12 -30,-16 -36,-17 -83,-72 -109,-128 -40,-86 -51,-169 -61,-461 -10,-312 -20,-351 -102,-385 -59,-24 -142,26 -179,110 -18,41 -19,70 -19,470 -1,234 -5,444 -9,466 -5,22 -14,64 -20,93 -17,84 -59,158 -124,218 -32,29 -70,57 -85,60 -15,4 -33,12 -41,18 -20,15 -189,13 -232,-3 -87,-34 -122,-56 -164,-104 -25,-29 -45,-56 -45,-62 0,-6 -5,-16 -11,-22 -15,-15 -45,-105 -55,-168 -5,-27 -9,-214 -9,-415 -2,-545 -14,-615 -117,-663 -48,-23 -61,-22 -97,8 -34,29 -54,66 -80,145 -41,126 -45,180 -35,567 16,659 8,781 -60,926 -39,84 -101,145 -198,196 -52,28 -68,31 -143,31 -92,0 -131,-13 -200,-65 -65,-50 -135,-131 -135,-158 0,-8 -7,-20 -15,-27 -8,-7 -15,-21 -15,-31 0,-10 -4,-20 -9,-23 -19,-12 -23,-141 -22,-644 1,-445 -1,-528 -14,-558 -8,-20 -15,-46 -15,-58 0,-23 -27,-111 -41,-136 -5,-8 -13,-24 -18,-36 -13,-28 -69,-84 -86,-84 -40,0 -125,60 -125,87 0,8 -6,24 -14,36 -23,37 -39,213 -32,343 11,212 31,417 57,589 6,39 15,111 20,160 5,50 13,128 18,175 6,47 10,153 10,237 1,204 -24,334 -93,472 -56,114 -225,247 -340,267 -76,13 -72,-22 -63,552 5,283 6,524 3,537 -8,32 -55,75 -82,75 -13,0 -35,-15 -53,-35 z m -33,-657 c 2,-141 -1,-208 -8,-208 -6,0 -13,8 -16,18 -13,39 -113,278 -140,333 -29,61 -18,70 78,67 l 83,-3 z m 164,-674 c 15,-8 31,-14 37,-14 5,0 37,-16 70,-36 83,-49 150,-134 106,-134 -8,0 -15,6 -15,13 0,18 -124,97 -152,97 -13,0 -38,4 -57,10 -21,6 -50,6 -75,1 -132,-29 -180,-33 -218,-17 -21,9 -38,18 -38,20 0,15 123,72 165,77 64,8 142,0 177,-17 z"
       id="path4"
       inkscape:connector-curvature="0" />
  </g>
</svg>
