<?xml version="1.0" encoding="UTF-8" standalone="no"?>
<!-- Created with Inkscape (http://www.inkscape.org/) -->

<svg
   xmlns:dc="http://purl.org/dc/elements/1.1/"
   xmlns:cc="http://creativecommons.org/ns#"
   xmlns:rdf="http://www.w3.org/1999/02/22-rdf-syntax-ns#"
   xmlns:svg="http://www.w3.org/2000/svg"
   xmlns="http://www.w3.org/2000/svg"
   xmlns:sodipodi="http://sodipodi.sourceforge.net/DTD/sodipodi-0.dtd"
   xmlns:inkscape="http://www.inkscape.org/namespaces/inkscape"
   width="38.025585mm"
   height="21.505651mm"
   viewBox="0 0 38.025585 21.505651"
   version="1.1"
   id="svg1387"
   inkscape:version="0.92.4 (5da689c313, 2019-01-14)"
   sodipodi:docname="I15.svg">
  <defs
     id="defs1381" />
  <sodipodi:namedview
     id="base"
     pagecolor="#ffffff"
     bordercolor="#666666"
     borderopacity="1.0"
     inkscape:pageopacity="0.0"
     inkscape:pageshadow="2"
     inkscape:zoom="0.35"
     inkscape:cx="-374.6875"
     inkscape:cy="-331.80935"
     inkscape:document-units="mm"
     inkscape:current-layer="layer1"
     showgrid="false"
     fit-margin-top="0"
     fit-margin-left="0"
     fit-margin-right="0"
     fit-margin-bottom="0"
     inkscape:window-width="1920"
     inkscape:window-height="1017"
     inkscape:window-x="-8"
     inkscape:window-y="-8"
     inkscape:window-maximized="1" />
  <metadata
     id="metadata1384">
    <rdf:RDF>
      <cc:Work
         rdf:about="">
        <dc:format>image/svg+xml</dc:format>
        <dc:type
           rdf:resource="http://purl.org/dc/dcmitype/StillImage" />
        <dc:title></dc:title>
      </cc:Work>
    </rdf:RDF>
  </metadata>
  <g
     inkscape:label="Layer 1"
     inkscape:groupmode="layer"
     id="layer1"
     transform="translate(-11.823568,-39.536459)">
    <g
       aria-label="𓆚"
       transform="scale(0.26458333)"
       style="font-style:normal;font-variant:normal;font-weight:normal;font-stretch:normal;font-size:192px;line-height:1.25;font-family:sans-serif;-inkscape-font-specification:sans-serif;font-variant-ligatures:normal;font-variant-caps:normal;font-variant-numeric:normal;font-feature-settings:normal;text-align:start;letter-spacing:0px;word-spacing:0px;writing-mode:lr-tb;text-anchor:start;fill:#000000;fill-opacity:1;stroke:none"
       id="flowRoot1935">
      <path
         d="M 56.125,160.77289 Q 53.875,160.49164 52,160.49164 l -1.03125,0.0937 q -3.375,0 -4.875,-1.40625 -1.40625,-1.40625 -1.40625,-5.34375 l 1.40625,-1.78125 5.625,-1.125 q 2.8125,-0.5625 5.71875,-1.03125 l 2.8125,-0.375 q 1.3125,0 2.53125,-0.0937 4.03125,0 6.375,2.0625 2.34375,1.96875 2.71875,7.40625 2.90625,2.625 4.03125,5.0625 1.21875,2.4375 1.21875,4.875 0,5.34375 -6.84375,18.75 -6.75,13.3125 -6.75,19.96875 0,6.1875 5.8125,10.03125 5.90625,3.75 10.78125,3.75 4.5,0 6.5625,-3.28125 2.15625,-3.28125 2.625,-7.59375 l 0.375,-3.1875 q 0.1875,-1.875 0.28125,-3.84375 0.1875,-1.96875 0.1875,-3.9375 l -0.09375,-3.46875 q 0,-3.375 -0.375,-7.40625 -0.28125,-4.03125 -0.28125,-8.4375 0,-11.625 3.9375,-17.25 4.03125,-5.625 14.25,-5.625 7.6875,0 12.5625,3.9375 4.96875,3.84375 4.96875,12.75 0,6 -2.15625,14.625 -2.15625,8.625 -2.625,10.96875 l -0.65625,3.65625 q -0.375,2.0625 -0.375,4.125 0,4.59375 3.375,7.21875 3.375,2.625 7.3125,3.84375 l 3.46875,1.21875 q 3.65625,-1.875 5.4375,-5.625 1.78125,-3.75 1.78125,-10.59375 0,-4.3125 -1.125,-11.4375 -1.03125,-7.21875 -1.03125,-11.34375 0,-7.78125 3.09375,-12.65625 3.1875,-4.875 8.4375,-6.46875 5.25,-1.6875 6.1875,-1.6875 3.28125,0 9.5625,4.59375 6.375,4.59375 6.375,12.46875 v 0.5625 q 0,3.09375 -0.65625,6.09375 -0.65625,3 -1.5,6 l -1.6875,6 q -1.21875,3.9375 -1.78125,6.65625 -0.46875,2.71875 -0.46875,4.875 0,2.15625 0.5625,4.21875 0.5625,1.96875 1.875,3.84375 2.71875,1.21875 7.6875,1.96875 4.96875,0.65625 7.59375,2.4375 2.625,1.6875 4.59375,7.125 l -1.5,1.96875 q -1.125,-0.1875 -2.0625,-0.75 l -3.9375,-2.25 q -1.125,-0.5625 -2.8125,-0.84375 Q 176.5,224.52289 175,224.52289 l -1.03125,0.0937 q -8.15625,0 -12.5625,-4.3125 -4.3125,-4.40625 -4.3125,-12.46875 0,-5.625 2.8125,-14.71875 2.90625,-9.09375 2.90625,-14.25 0,-3.1875 -1.40625,-5.625 -1.40625,-2.4375 -5.15625,-4.125 -4.03125,0.375 -6.09375,2.90625 -1.96875,2.53125 -1.96875,7.40625 0,4.6875 1.125,11.90625 1.125,7.21875 1.125,12.65625 0,7.875 -2.625,13.3125 -2.625,5.34375 -7.5,8.625 -4.875,3.1875 -6.09375,3.1875 H 133.75 q -11.34375,-2.0625 -17.71875,-7.03125 -6.375,-5.0625 -6.375,-14.53125 0,-6.375 3.1875,-17.0625 3.1875,-10.78125 3.1875,-15.5625 0,-4.3125 -2.25,-6.375 -2.25,-2.15625 -6.65625,-2.15625 h -0.65625 q -2.0625,0.1875 -3.375,1.40625 -1.21875,1.21875 -2.34375,4.78125 -1.125,3.46875 -1.125,8.71875 0,3.75 0.28125,8.90625 0.375,5.0625 0.375,10.40625 0,15.09375 -5.15625,22.59375 -5.15625,7.5 -14.53125,7.5 -6.1875,0 -12.75,-3.1875 -6.46875,-3.1875 -10.6875,-12.5625 -4.125,-9.375 -4.125,-36.75 0,-9.09375 3.09375,-17.4375 z m 24.1875,66.9375 q 8.53125,0 12.75,-7.125 4.3125,-7.125 4.3125,-19.125 0,-4.59375 -0.375,-9.1875 -0.28125,-4.6875 -0.28125,-9.375 0,-10.6875 2.53125,-15.09375 2.625,-4.40625 8.15625,-4.40625 4.96875,0 8.25,2.8125 3.28125,2.71875 3.28125,8.8125 0,5.90625 -3.1875,16.6875 -3.09375,10.6875 -3.09375,16.03125 0,4.78125 1.875,8.15625 1.96875,3.28125 5.71875,5.4375 l 1.21875,0.65625 q 0.9375,0.5625 3.9375,1.78125 3,1.125 8.25,2.25 7.21875,-2.90625 10.40625,-7.96875 3.28125,-5.15625 3.28125,-13.59375 0,-4.6875 -1.03125,-12.1875 -1.03125,-7.59375 -1.03125,-12.65625 0,-5.4375 1.96875,-8.71875 1.96875,-3.28125 5.71875,-4.21875 l 1.96875,-0.5625 q 0.46875,0 0.9375,-0.0937 1.21875,0 3.9375,1.59375 2.71875,1.5 4.5,4.6875 1.78125,3.1875 1.78125,6.75 0,4.78125 -3,13.78125 -2.90625,9 -3,13.125 v 1.3125 q 0,5.90625 2.0625,9.375 2.0625,3.375 6.375,4.21875 4.3125,0.75 7.78125,0.75 3.5625,0 7.6875,2.71875 -2.71875,-4.59375 -9.65625,-4.875 -6.84375,-0.375 -9.09375,-3.75 -2.25,-3.46875 -2.25,-8.71875 0,-5.71875 3,-15.46875 3.09375,-9.75 3.09375,-14.25 0,-4.03125 -2.0625,-7.59375 -2.0625,-3.65625 -10.125,-6.75 -5.8125,0.84375 -7.5,1.875 -1.6875,0.9375 -3.5625,2.53125 -1.78125,1.59375 -3,5.34375 -1.21875,3.65625 -1.21875,8.4375 0,4.78125 1.03125,12 1.03125,7.21875 1.03125,10.6875 0,8.8125 -3.28125,13.875 -3.28125,4.96875 -7.3125,4.96875 -2.53125,0 -9.65625,-4.03125 -7.125,-4.03125 -7.125,-11.53125 0,-4.3125 2.90625,-16.6875 3,-12.375 3,-16.96875 0,-4.3125 -1.78125,-7.21875 -1.78125,-2.90625 -4.40625,-4.3125 -2.625,-1.40625 -9.28125,-1.6875 h -0.46875 q -4.78125,0 -7.96875,2.15625 -3.09375,2.15625 -4.125,4.6875 -1.03125,2.53125 -1.5,8.8125 l -0.09375,2.53125 q 0,1.21875 -0.09375,2.53125 0,4.5 0.28125,8.53125 0.28125,3.9375 0.28125,7.5 v 2.0625 q -0.1875,5.15625 -0.65625,10.125 -0.375,4.875 -2.90625,10.03125 -2.53125,5.15625 -8.71875,5.15625 -3.75,0 -8.15625,-1.6875 -4.40625,-1.78125 -6.46875,-3.84375 l -2.25,-2.15625 q -1.875,-1.96875 -2.71875,-4.3125 -0.75,-2.34375 -0.75,-4.78125 0,-6.84375 6.84375,-20.4375 6.84375,-13.6875 6.84375,-18 0,-2.0625 -1.125,-4.03125 -1.03125,-2.0625 -3.65625,-4.40625 0,-0.28125 -0.46875,-0.84375 -0.28125,-4.3125 -1.78125,-5.90625 -1.40625,-1.59375 -4.125,-1.59375 -1.78125,0 -5.0625,0.5625 -3.28125,0.5625 -5.0625,0.84375 l -5.15625,1.03125 0.1875,1.3125 q 0,0.65625 0.375,1.21875 0.5625,0.1875 1.59375,0.1875 l 2.53125,-0.0937 q 1.59375,0 3.09375,0.28125 1.59375,0.1875 3.1875,0.46875 l 1.03125,1.875 q -1.875,4.40625 -2.8125,8.90625 -0.84375,4.5 -0.84375,9.28125 0,22.21875 2.53125,31.59375 2.53125,9.375 8.71875,13.6875 6.1875,4.21875 13.03125,4.21875 z"
         id="path1943"
         inkscape:connector-curvature="0" />
    </g>
  </g>
</svg>
