<?xml version="1.0" encoding="UTF-8" standalone="no"?>
<!-- Created with Inkscape (http://www.inkscape.org/) -->

<svg
   xmlns:dc="http://purl.org/dc/elements/1.1/"
   xmlns:cc="http://creativecommons.org/ns#"
   xmlns:rdf="http://www.w3.org/1999/02/22-rdf-syntax-ns#"
   xmlns:svg="http://www.w3.org/2000/svg"
   xmlns="http://www.w3.org/2000/svg"
   xmlns:sodipodi="http://sodipodi.sourceforge.net/DTD/sodipodi-0.dtd"
   xmlns:inkscape="http://www.inkscape.org/namespaces/inkscape"
   width="29.567188mm"
   height="19.645309mm"
   viewBox="0 0 29.567188 19.645309"
   version="1.1"
   id="svg33149"
   inkscape:version="0.92.4 (5da689c313, 2019-01-14)"
   sodipodi:docname="I2.svg">
  <defs
     id="defs33143" />
  <sodipodi:namedview
     id="base"
     pagecolor="#ffffff"
     bordercolor="#666666"
     borderopacity="1.0"
     inkscape:pageopacity="0.0"
     inkscape:pageshadow="2"
     inkscape:zoom="0.35"
     inkscape:cx="-383.25893"
     inkscape:cy="-395.64285"
     inkscape:document-units="mm"
     inkscape:current-layer="layer1"
     showgrid="false"
     fit-margin-top="0"
     fit-margin-left="0"
     fit-margin-right="0"
     fit-margin-bottom="0"
     inkscape:window-width="1920"
     inkscape:window-height="1017"
     inkscape:window-x="-8"
     inkscape:window-y="-8"
     inkscape:window-maximized="1" />
  <metadata
     id="metadata33146">
    <rdf:RDF>
      <cc:Work
         rdf:about="">
        <dc:format>image/svg+xml</dc:format>
        <dc:type
           rdf:resource="http://purl.org/dc/dcmitype/StillImage" />
        <dc:title></dc:title>
      </cc:Work>
    </rdf:RDF>
  </metadata>
  <g
     inkscape:label="Layer 1"
     inkscape:groupmode="layer"
     id="layer1"
     transform="translate(-14.091425,-24.50752)">
    <g
       aria-label="𓆉"
       style="font-style:normal;font-variant:normal;font-weight:normal;font-stretch:normal;font-size:50.79999924px;line-height:1.25;font-family:sans-serif;-inkscape-font-specification:'sans-serif, Normal';font-variant-ligatures:normal;font-variant-caps:normal;font-variant-numeric:normal;font-feature-settings:normal;text-align:start;letter-spacing:0px;word-spacing:0px;writing-mode:lr-tb;text-anchor:start;fill:#000000;fill-opacity:1;stroke:none;stroke-width:0.26458332"
       id="text33696">
      <path
         d="m 24.236542,39.46474 q -0.992188,-0.644922 -1.661914,-1.513086 -0.669727,-0.892969 -1.240234,-1.934765 -0.768946,-0.496094 -1.339454,-0.79375 -0.570507,-0.297657 -1.612304,-0.297657 -0.248047,0 -0.620117,0.02481 -0.372071,0.0248 -0.84336,0.0248 -1.389062,0 -2.108398,-0.570508 -0.719336,-0.595313 -0.719336,-1.21543 0,-0.992187 1.091406,-1.5875 1.116211,-0.595312 3.001367,-0.669726 h 0.272852 q 1.364258,0 1.711523,1.041797 0.372071,1.041796 0.768946,1.190625 0.124023,-0.04961 0.223242,-0.04961 0.09922,0 0.223242,-0.07441 0.496094,-1.041797 1.21543,-2.00918 0.74414,-0.992187 1.661914,-1.711523 -0.545703,-0.595312 -0.79375,-1.041797 -0.223243,-0.446484 -0.248047,-0.942578 v -0.173633 q 0,-0.297656 0.04961,-0.669726 0.198438,-0.248047 0.37207,-0.347266 0.173633,-0.124023 0.917774,-0.471289 0.768945,-0.347266 1.339453,-0.347266 0.42168,0 0.694531,0.272852 0.272852,0.248047 0.272852,0.967383 l -0.148828,0.173633 q -0.07441,0.09922 -0.148828,0.223242 -0.669727,0.148828 -0.942579,0.322461 -0.272851,0.148828 -0.272851,0.396875 0,0.223242 0.173633,0.347265 0.198437,0.124024 0.868164,0.124024 1.265039,-0.446485 2.530078,-0.620117 1.289844,-0.173633 2.604492,-0.173633 1.16582,0 2.306836,0.09922 1.141015,0.09922 2.306836,0.223243 -0.297656,-0.570508 -0.372071,-1.141016 v -0.198437 q 0,-0.719336 0.620118,-1.265039 0.620117,-0.570508 1.041797,-0.570508 0.09922,0 0.198437,0.0248 l 0.545703,0.07441 q 0.868164,0.04961 1.463477,0.47129 0.620117,0.396875 0.620117,1.11621 0,0.198438 -0.04961,0.42168 -0.04961,0.223242 -0.173632,0.471289 l -0.248047,0.09922 -0.272852,0.148828 q -0.248047,-0.09922 -0.595312,-0.198437 -0.347266,-0.09922 -0.595313,-0.09922 -0.124023,0 -0.272851,0.0248 0,0.322461 0.248047,0.644922 l 0.421679,0.545703 q 2.678906,1.761133 3.795117,3.323829 1.141016,1.562695 1.141016,3.050976 0,1.661914 -1.265039,3.125391 -1.240234,1.463476 -3.621484,2.678906 l -0.198438,0.719336 q -0.124023,0.471289 -0.322461,0.868164 l 0.198438,0.02481 0.843359,-0.148829 0.744141,-0.148828 0.396875,0.272852 q 0.04961,0.248047 0.04961,0.471289 0,0.669726 -0.644922,1.141015 -0.644922,0.446485 -1.860351,0.496094 l -0.446485,0.02481 q -0.868164,0 -1.289843,-0.347266 -0.396875,-0.347265 -0.396875,-1.16582 0,-0.347266 0.09922,-0.744141 0.124024,-0.421679 0.272852,-0.79375 -2.00918,0.372071 -4.043164,0.372071 -1.463477,0 -2.902149,-0.198438 -1.438671,-0.223242 -2.877343,-0.719336 h -0.248047 q -1.066602,0 -0.79375,0.570508 0.272851,0.570508 1.339453,1.116211 l 0.173633,0.322461 q 0,0.545703 -0.446485,0.868164 -0.421679,0.322461 -1.016992,0.322461 h -0.173633 q -0.32246,-0.04961 -1.16582,-0.545703 -0.818555,-0.520899 -0.818555,-1.537891 0,-0.471289 0.248047,-1.041797 0.272852,-0.595312 0.744141,-1.16582 z m 6.523633,-11.335742 -0.669727,0.04961 q -1.016992,0.07441 -2.232422,0.372071 -1.215429,0.297656 -1.909961,0.694531 -0.669726,0.37207 -0.868164,0.42168 -0.967382,0.79375 -1.736328,1.761132 -0.74414,0.942579 -1.314648,2.058789 l -0.272852,0.272852 -0.396875,0.148828 q -0.198437,0.07441 -0.347265,0.07441 -0.768946,0 -1.165821,-1.016992 -0.37207,-1.041797 -0.917773,-1.21543 h -1.066602 q -1.16582,0 -2.033984,0.372071 -0.868164,0.37207 -0.967383,1.141015 0.272852,0.446485 0.644922,0.644922 0.396875,0.173633 0.892969,0.272852 l 0.719336,-0.09922 q 0.347265,0 0.694531,-0.02481 1.364258,0 2.827734,0.644922 1.463477,0.620117 1.835547,1.612305 0.37207,0.967383 1.389063,1.835547 1.016992,0.868164 2.257226,1.389062 l 0.719336,0.297656 0.768945,0.297657 q 0.520899,0.148828 1.091407,0.248046 l 1.091406,0.198438 q 1.116211,0.148828 2.257226,0.148828 1.21543,0 2.406055,-0.148828 1.190625,-0.148828 2.38125,-0.42168 l 0.396875,-0.09922 q 1.066602,-0.248047 1.289844,-0.396875 0.248047,-0.173633 1.091406,-0.620118 0.868164,-0.471289 1.488281,-1.066601 0.620117,-0.595313 0.992188,-1.116211 0.396875,-0.520899 0.570507,-1.16582 0.198438,-0.644922 0.198438,-1.141016 0,-1.190625 -0.868164,-2.406055 -0.843359,-1.240234 -2.00918,-2.009179 -1.16582,-0.79375 -1.5875,-1.190625 l -0.79375,-0.173633 q -0.917773,-0.248047 -2.802929,-0.446484 -1.860352,-0.198438 -3.373438,-0.198438 z m 6.771679,-0.198437 -0.0248,-0.07442 q -0.272852,-0.471289 -0.272852,-0.843359 0,-0.396875 0.322461,-0.545703 0.322461,-0.173633 0.768945,-0.173633 0.272852,0 0.545703,0.04961 0.272852,0.04961 0.545703,0.124023 0,-0.148828 0.02481,-0.272852 0,-0.347265 -0.347265,-0.545703 -0.347266,-0.198437 -0.992188,-0.248047 l -0.744141,-0.04961 q -0.297656,0.173633 -0.496093,0.37207 -0.173633,0.173633 -0.297657,0.496094 0,0.471289 0.148829,0.868164 0.173632,0.37207 0.446484,0.768945 z m 0.223242,12.824023 -0.595312,0.148828 -0.223242,0.545703 q -0.248047,0.644922 -0.297656,1.314648 -0.02481,0.644922 0.892968,0.644922 0.595313,0 1.289844,-0.223242 0.719336,-0.223242 0.892969,-0.545703 l -0.620117,0.124023 q -0.372071,0.07442 -0.719336,0.07442 -0.372071,0 -0.669727,-0.124024 -0.297656,-0.148828 -0.37207,-0.570508 z M 24.856659,39.83681 q -0.347265,0.396875 -0.595312,0.868164 -0.223243,0.471289 -0.223243,0.892969 0,0.347266 0.124024,0.719336 l 0.148828,0.124024 q 0.04961,0.07441 0.173633,0.148828 0.124023,0.07441 0.322461,0.148828 l 0.520898,0.223242 q 0.198438,0 0.37207,-0.02481 0.173633,-0.0248 0.297657,-0.173633 -0.892969,-0.496093 -1.190625,-0.942578 -0.272852,-0.471289 -0.272852,-0.892968 0,-0.644922 0.620117,-0.967383 z m 0.07441,-10.963671 q 0.173633,-0.07441 0.347266,-0.173633 -0.347266,-0.173633 -0.570508,-0.446485 -0.198437,-0.297656 -0.198437,-0.570507 0,-0.248047 0.223242,-0.644922 0.248047,-0.42168 1.314648,-0.768945 -0.04961,-0.04961 -0.04961,-0.09922 0,-0.04961 -0.07441,-0.07441 -0.496094,0 -0.992188,0.248047 l -0.917773,0.496093 -0.07441,0.396875 q 0.04961,0.496094 0.347265,0.892969 0.297657,0.396875 0.644922,0.744141 z"
         style="stroke-width:0.26458332"
         id="path33698"
         inkscape:connector-curvature="0" />
    </g>
  </g>
</svg>
