<?xml version="1.0" encoding="UTF-8" standalone="no"?>
<!-- Created with Inkscape (http://www.inkscape.org/) -->

<svg
   xmlns:dc="http://purl.org/dc/elements/1.1/"
   xmlns:cc="http://creativecommons.org/ns#"
   xmlns:rdf="http://www.w3.org/1999/02/22-rdf-syntax-ns#"
   xmlns:svg="http://www.w3.org/2000/svg"
   xmlns="http://www.w3.org/2000/svg"
   xmlns:sodipodi="http://sodipodi.sourceforge.net/DTD/sodipodi-0.dtd"
   xmlns:inkscape="http://www.inkscape.org/namespaces/inkscape"
   width="37.752735mm"
   height="29.219921mm"
   viewBox="0 0 37.752735 29.219921"
   version="1.1"
   id="svg23312"
   inkscape:version="0.92.4 (5da689c313, 2019-01-14)"
   sodipodi:docname="I4.svg">
  <defs
     id="defs23306" />
  <sodipodi:namedview
     id="base"
     pagecolor="#ffffff"
     bordercolor="#666666"
     borderopacity="1.0"
     inkscape:pageopacity="0.0"
     inkscape:pageshadow="2"
     inkscape:zoom="0.35"
     inkscape:cx="-334.6875"
     inkscape:cy="-349.04758"
     inkscape:document-units="mm"
     inkscape:current-layer="layer1"
     showgrid="false"
     fit-margin-top="0"
     fit-margin-left="0"
     fit-margin-right="0"
     fit-margin-bottom="0"
     inkscape:window-width="1920"
     inkscape:window-height="1017"
     inkscape:window-x="-8"
     inkscape:window-y="-8"
     inkscape:window-maximized="1" />
  <metadata
     id="metadata23309">
    <rdf:RDF>
      <cc:Work
         rdf:about="">
        <dc:format>image/svg+xml</dc:format>
        <dc:type
           rdf:resource="http://purl.org/dc/dcmitype/StillImage" />
        <dc:title></dc:title>
      </cc:Work>
    </rdf:RDF>
  </metadata>
  <g
     inkscape:label="Layer 1"
     inkscape:groupmode="layer"
     id="layer1"
     transform="translate(-1.2402344,-27.26124)">
    <g
       aria-label="𓆋"
       transform="scale(0.26458333)"
       style="font-style:normal;font-variant:normal;font-weight:normal;font-stretch:normal;font-size:192px;line-height:1.25;font-family:sans-serif;-inkscape-font-specification:sans-serif;font-variant-ligatures:normal;font-variant-caps:normal;font-variant-numeric:normal;font-feature-settings:normal;text-align:start;letter-spacing:0px;word-spacing:0px;writing-mode:lr-tb;text-anchor:start;fill:#000000;fill-opacity:1;stroke:none"
       id="flowRoot23857">
      <path
         d="m 137.90625,188.90961 q 0,-1.6875 0.0937,-3.46875 0.0937,-1.78125 0.0937,-3.75 0,-10.5 -1.78125,-18.46875 -1.6875,-8.0625 -4.78125,-13.21875 H 130.125 q -0.75,0.65625 -3.9375,3.28125 -3.09375,2.53125 -4.03125,5.90625 v 52.78125 l -1.59375,1.5 H 16.21875 l -1.40625,-1.78125 v -52.125 q -2.15625,-2.90625 -4.78125,-5.25 -2.53125,-2.4375 -5.34375,-4.6875 0.1875,-0.65625 0.46875,-1.3125 0.28125,-0.65625 0.46875,-1.3125 h 26.25 q 1.5,-3.09375 4.3125,-3.84375 2.8125,-0.84375 6.09375,-0.84375 l 5.34375,0.0937 q 0.65625,-0.65625 0.84375,-1.40625 0.1875,-0.84375 0.28125,-1.78125 l 0.09375,-1.78125 q 0,-0.84375 0.28125,-1.59375 -8.8125,-3.1875 -21.84375,-10.40625 -12.9375,-7.21875 -20.71875,-12.9375 v -2.25 l 0.28125,-0.0937 q -0.375,-0.9375 -0.65625,-1.96875 -0.28125,-1.03125 -0.28125,-1.96875 0,-1.3125 0.65625,-2.25 0.75,-0.9375 2.53125,-0.9375 1.78125,0 4.40625,1.96875 2.625,1.96875 9.84375,1.96875 2.625,0 5.25,-0.375 2.625,-0.375 5.34375,-0.375 5.34375,0 8.4375,1.59375 3.09375,1.5 9.28125,5.25 6.28125,3.65625 11.0625,3.65625 h 1.6875 q 4.21875,0 8.4375,-0.84375 4.21875,-0.84375 8.4375,-1.125 l 1.5,-0.0937 q 6.09375,0 13.6875,2.8125 7.59375,2.8125 19.03125,3.5625 11.4375,0.75 17.8125,5.34375 6.46875,4.5 10.21875,13.78125 3.84375,9.1875 3.84375,21.28125 0,10.03125 -2.8125,25.96875 -2.8125,15.9375 -2.8125,24.5625 -0.46875,0.375 -1.03125,0.65625 -0.5625,0.375 -1.03125,0.75 -1.875,-0.9375 -2.4375,-3.28125 -0.46875,-2.4375 -0.46875,-5.0625 0,-1.6875 0.0937,-3.1875 l 0.75,-9.5625 0.1875,-1.59375 z m -18.75,21.5625 v -49.875 H 17.8125 v 49.875 h 36.28125 v -30 L 55.5,178.69086 h 25.6875 l 1.59375,1.5 v 30.28125 z m 21.9375,-28.125 v 2.71875 q 0,4.03125 -0.5625,8.25 1.3125,-7.96875 2.71875,-15.84375 1.40625,-7.875 1.40625,-15.84375 0,-9.84375 -2.8125,-18.09375 -2.8125,-8.34375 -8.71875,-13.6875 -5.90625,-5.34375 -16.59375,-5.71875 -10.59375,-0.46875 -18.75,-3.1875 -8.0625,-2.8125 -14.15625,-3.1875 h -1.21875 q -3.65625,0 -9.375,1.03125 -5.71875,0.9375 -9.5625,0.9375 l -3,-0.1875 Q 55.5,118.97211 47.90625,114.09711 40.3125,109.12836 35.0625,109.12836 h -1.875 q -2.90625,0 -5.8125,0.28125 -2.90625,0.28125 -5.8125,0.28125 -3.09375,0 -6.1875,-0.65625 -3,-0.75 -5.71875,-2.90625 -0.375,0 -0.9375,0.1875 0,0.9375 0.375,1.6875 l 0.65625,1.5 q 0.5625,0.46875 2.4375,0.84375 1.875,0.375 3.65625,0.375 h 1.875 l 1.3125,0.5625 q 0.28125,0.65625 0.75,1.21875 0.46875,0.5625 1.5,0.5625 0.375,0 0.9375,-0.1875 0.5625,-0.28125 1.125,-0.5625 0.46875,0.1875 0.9375,0.28125 l 0.84375,0.1875 q 1.40625,1.78125 2.625,2.90625 1.3125,1.03125 3.5625,1.03125 v 3 H 30.375 q -2.0625,-0.1875 -3.46875,-1.125 -1.3125,-0.9375 -2.0625,-1.78125 l -1.3125,-1.21875 q -0.28125,0 -1.125,0.28125 -0.75,0.1875 -1.3125,0.1875 -1.3125,0 -2.4375,-0.5625 -1.03125,-0.5625 -1.6875,-1.78125 H 16.125 q -0.84375,0 -1.6875,0 -0.75,0 -1.5,-0.1875 7.21875,4.875 19.3125,11.25 12.1875,6.375 17.4375,8.15625 l 0.75,-2.0625 q 0.75,-1.03125 1.5,-1.5 0.75,-0.46875 2.0625,-0.5625 v 3 q -1.125,0.28125 -1.3125,1.78125 -0.1875,1.40625 -0.84375,5.34375 -0.65625,3.9375 -1.5,5.25 Q 49.5,145.40961 48,145.40961 l -5.25,0.1875 q -0.9375,0 -3.46875,-0.0937 -2.4375,-0.1875 -3.9375,1.5 H 52.875 q 3,-0.28125 5.15625,-3 2.15625,-2.71875 2.15625,-5.8125 0.46875,-0.46875 0.9375,-0.84375 0.46875,-0.375 0.9375,-0.84375 5.90625,1.03125 11.8125,1.96875 5.90625,0.84375 12.09375,0.9375 0.1875,-3.46875 2.25,-7.125 2.15625,-3.65625 5.71875,-6.09375 l 1.875,2.34375 q -3.09375,1.96875 -4.875,5.0625 -1.6875,3 -2.0625,6.5625 v 3.75 q -0.46875,0.375 -0.84375,0.75 l -0.75,0.75 q -1.6875,0 -4.03125,-0.375 -2.25,-0.375 -4.5,-0.375 -1.875,0 -3.46875,0.5625 -1.5,0.46875 -2.4375,1.78125 H 93 q 4.3125,0 7.03125,-3.65625 2.71875,-3.65625 2.71875,-9.375 v -0.75 l -0.28125,-1.125 2.90625,-0.75 q 0.375,1.125 0.375,2.34375 0,1.21875 -0.0937,2.53125 1.40625,-0.1875 2.8125,-0.28125 1.40625,-0.0937 2.8125,-0.0937 16.03125,0 22.875,13.3125 6.9375,13.21875 6.9375,33.1875 z m -131.25,-32.34375 q 2.0625,1.78125 3.84375,3.65625 1.875,1.78125 3.375,3.9375 h 102.46875 q 0.9375,-2.53125 2.4375,-4.21875 1.5,-1.78125 3.375,-3.375 z m 47.25,60.46875 h 22.6875 v -28.78125 h -22.6875 z m 54.375,-71.625 q -1.59375,0 -3.1875,0.0937 l -3.1875,0.375 q -1.21875,4.875 -4.3125,7.6875 h 28.6875 q -3.5625,-4.40625 -7.96875,-6.28125 -4.40625,-1.875 -10.03125,-1.875 z M 59.25,147.00336 h 10.3125 q 1.03125,-2.71875 3,-3.75 1.96875,-1.125 4.21875,-1.3125 -7.125,-1.03125 -13.6875,-2.25 -0.28125,1.875 -1.125,3.65625 -0.75,1.6875 -2.71875,3.65625 z"
         id="path23865"
         inkscape:connector-curvature="0" />
    </g>
  </g>
</svg>
