<?xml version="1.0" encoding="UTF-8" standalone="no"?>
<!-- Created with Inkscape (http://www.inkscape.org/) -->

<svg
   xmlns:dc="http://purl.org/dc/elements/1.1/"
   xmlns:cc="http://creativecommons.org/ns#"
   xmlns:rdf="http://www.w3.org/1999/02/22-rdf-syntax-ns#"
   xmlns:svg="http://www.w3.org/2000/svg"
   xmlns="http://www.w3.org/2000/svg"
   xmlns:sodipodi="http://sodipodi.sourceforge.net/DTD/sodipodi-0.dtd"
   xmlns:inkscape="http://www.inkscape.org/namespaces/inkscape"
   width="34.776173mm"
   height="16.817577mm"
   viewBox="0 0 34.776173 16.817577"
   version="1.1"
   id="svg34265"
   inkscape:version="0.92.4 (5da689c313, 2019-01-14)"
   sodipodi:docname="I5.svg">
  <defs
     id="defs34259" />
  <sodipodi:namedview
     id="base"
     pagecolor="#ffffff"
     bordercolor="#666666"
     borderopacity="1.0"
     inkscape:pageopacity="0.0"
     inkscape:pageshadow="2"
     inkscape:zoom="0.35"
     inkscape:cx="-383.25893"
     inkscape:cy="-435.64288"
     inkscape:document-units="mm"
     inkscape:current-layer="layer1"
     showgrid="false"
     fit-margin-top="0"
     fit-margin-left="0"
     fit-margin-right="0"
     fit-margin-bottom="0"
     inkscape:window-width="1920"
     inkscape:window-height="1017"
     inkscape:window-x="-8"
     inkscape:window-y="-8"
     inkscape:window-maximized="1" />
  <metadata
     id="metadata34262">
    <rdf:RDF>
      <cc:Work
         rdf:about="">
        <dc:format>image/svg+xml</dc:format>
        <dc:type
           rdf:resource="http://purl.org/dc/dcmitype/StillImage" />
        <dc:title></dc:title>
      </cc:Work>
    </rdf:RDF>
  </metadata>
  <g
     inkscape:label="Layer 1"
     inkscape:groupmode="layer"
     id="layer1"
     transform="translate(-14.091425,-16.751911)">
    <g
       aria-label="𓆌"
       style="font-style:normal;font-variant:normal;font-weight:normal;font-stretch:normal;font-size:50.79999924px;line-height:1.25;font-family:sans-serif;-inkscape-font-specification:'sans-serif, Normal';font-variant-ligatures:normal;font-variant-caps:normal;font-variant-numeric:normal;font-feature-settings:normal;text-align:start;letter-spacing:0px;word-spacing:0px;writing-mode:lr-tb;text-anchor:start;fill:#000000;fill-opacity:1;stroke:none;stroke-width:0.26458332"
       id="text34812">
      <path
         d="m 41.922284,26.202502 q -0.42168,0 -0.843359,0.04961 -0.42168,0.04961 -0.744141,0.09922 -0.347266,1.339453 -1.190625,2.083594 -0.843359,0.74414 -2.331641,0.74414 h -5.605859 l -0.37207,-0.471289 q 0.272851,-0.892969 0.768945,-1.240234 0.520898,-0.37207 1.240234,-0.42168 -0.917773,-0.124023 -1.835546,-0.272851 -0.892969,-0.148829 -1.810743,-0.322461 -0.124023,0.967382 -0.917773,1.860351 -0.79375,0.868164 -1.860352,0.868164 H 21.21037 l -0.322461,-0.595312 q 0.272852,-0.719336 0.892969,-1.066602 0.644922,-0.37207 1.909961,-0.37207 h 0.74414 l 0.694532,0.02481 q 0.223242,-0.148829 0.297656,-0.496094 0.07441,-0.347266 0.07441,-0.818555 0,-0.248047 0.04961,-0.42168 -1.041796,-0.272851 -2.033984,-0.79375 L 21.58244,23.622814 Q 19.697284,22.630627 17.836933,21.58883 15.976581,20.547033 14.265058,19.257189 v -0.595312 l 0.07441,-0.02481 q -0.09922,-0.248047 -0.173633,-0.520898 -0.07441,-0.272852 -0.07441,-0.520899 0,-0.347265 0.173633,-0.595312 0.198437,-0.248047 0.669726,-0.248047 0.471289,0 1.165821,0.520898 0.719336,0.520899 2.38125,0.520899 0.669726,0 1.364257,-0.09922 0.719336,-0.124023 1.488282,-0.124023 h 0.272851 q 1.661914,0.07441 3.869531,1.438672 2.232422,1.364257 3.646289,1.364257 h 0.446485 q 1.116211,0 2.505273,-0.272851 1.413867,-0.272852 2.430859,-0.272852 1.537891,0 3.720703,0.744141 2.182813,0.74414 4.613672,0.917773 2.455664,0.173633 4.241602,2.083594 1.785937,1.885156 1.785937,3.671094 0,1.240234 -0.74414,2.703711 -0.719336,1.463476 -2.306836,2.232421 -1.5875,0.744141 -3.993555,0.917774 -2.406055,0.173633 -4.588867,0.322461 -2.158008,0.148828 -8.011914,0.148828 l -0.37207,-0.471289 q 0.04961,-0.09922 0.04961,-0.198438 0,-0.272851 0.694531,-0.868164 0.694532,-0.620117 2.306836,-0.942578 l 1.041797,-0.223242 q 3.050977,-0.694531 5.407422,-1.141016 2.356445,-0.446484 3.621484,-1.265039 1.289844,-0.818554 1.289844,-1.513086 0,-0.446484 -0.347266,-0.595312 -0.347265,-0.148828 -0.992187,-0.148828 z m -2.207617,-0.868164 0.0248,-0.347266 q 0,-0.124023 -0.0248,-0.248047 l -0.07441,-0.297656 h 0.0248 q 0.07441,0 0.198438,-0.04961 0.124023,-0.04961 0.545703,-0.148828 l 0.09922,0.446484 v 0.595312 q 0,0.09922 -0.02481,0.248047 0.322461,-0.04961 0.669727,-0.07441 0.37207,-0.02481 0.719336,-0.02481 1.066601,0 1.587499,0.372071 0.545704,0.37207 0.545704,1.116211 v 0.223242 q -0.09922,0.992187 -1.488282,1.909961 -1.364257,0.917773 -4.291211,1.513086 l -1.686718,0.347265 q -1.835547,0.42168 -3.819922,0.818555 -1.984375,0.37207 -2.80293,1.041797 2.033985,0 4.043164,-0.02481 2.033985,-0.04961 4.067969,-0.173633 l 1.934766,-0.09922 q 4.911328,-0.223243 6.474023,-1.63711 1.5875,-1.438672 1.5875,-3.671093 0,-1.612305 -1.736328,-3.249414 -1.736328,-1.661914 -3.819922,-1.711524 -2.058789,-0.07441 -4.291211,-0.818555 -2.207617,-0.768945 -3.671094,-0.768945 -1.016992,0 -2.480468,0.272852 -1.438672,0.272851 -2.604492,0.272851 l -0.892969,-0.04961 Q 27.2131,20.968703 25.203921,19.678859 23.194741,18.364211 21.805679,18.364211 h -0.496094 q -0.768945,0 -1.537891,0.07441 -0.768945,0.07441 -1.53789,0.07441 -0.818555,0 -1.63711,-0.173633 -0.79375,-0.198438 -1.513086,-0.768945 -0.148828,0 -0.248046,0.04961 0,0.248047 0.09922,0.446484 l 0.173633,0.396875 q 0.496094,0.248047 1.016992,0.297657 0.545703,0.0248 1.091407,0.0248 0.09922,0.04961 0.347265,0.148828 0.04961,0.148829 0.173633,0.322461 0.148828,0.148829 0.42168,0.148829 0.09922,0 0.248046,-0.04961 0.148829,-0.07441 0.297657,-0.148828 0.124023,0.04961 0.248047,0.07441 l 0.223242,0.04961 q 0.198437,0.248047 0.396875,0.446485 0.223242,0.173633 0.396875,0.396875 l 0.223242,0.124023 q 0.223242,0.07441 0.446484,0.07441 h 0.173633 v 0.79375 h -0.248047 q -0.520898,-0.04961 -0.868164,-0.272851 -0.347265,-0.223242 -0.595312,-0.496094 l -0.347266,-0.322461 q -0.124023,0.04961 -0.322461,0.09922 -0.173633,0.0248 -0.297656,0.0248 -0.347266,0 -0.644922,-0.124023 -0.297656,-0.148828 -0.471289,-0.496094 l -0.620117,-0.0248 q -0.223242,0 -0.42168,-0.02481 1.909961,1.240234 5.060156,2.926953 3.150196,1.661914 4.638477,2.207617 0.07441,-0.396875 0.347265,-0.74414 0.272852,-0.347266 0.719336,-0.347266 h 0.07441 v 0.79375 q -0.09922,0 -0.09922,0.02481 -0.124024,0.09922 -0.198438,0.272851 -0.07441,0.173633 -0.09922,0.620117 -0.09922,0.173633 -0.272851,1.438672 -0.173633,1.240235 -0.917774,1.240235 l -1.389062,0.04961 q -0.248047,0 -0.917773,-0.02481 -0.644922,-0.04961 -1.041797,0.396875 h 4.539257 q 0.79375,0 1.413868,-0.768945 0.620117,-0.79375 0.620117,-1.562695 0.124023,-0.124024 0.248047,-0.223243 0.124023,-0.09922 0.248047,-0.223242 1.562695,0.272852 3.12539,0.520899 1.5875,0.223242 3.199805,0.248047 0,-0.719336 0.471289,-1.612305 0.496094,-0.917773 1.240234,-1.5875 l 0.198438,-0.148828 q 0.07441,-0.07441 0.198437,-0.148828 l 0.496094,0.620117 q -0.744141,0.520898 -1.21543,1.240234 -0.471289,0.719336 -0.620117,1.835547 v 0.992188 q -0.124023,0.09922 -0.223242,0.198437 l -0.198438,0.198438 q -0.446484,0 -1.066601,-0.09922 -0.595313,-0.09922 -1.190625,-0.09922 -0.496094,0 -0.917774,0.148828 -0.396875,0.124024 -0.644921,0.471289 h 5.010546 q 1.289844,0 1.909961,-0.644922 0.644922,-0.644921 0.917774,-1.835546 z"
         style="stroke-width:0.26458332"
         id="path34814"
         inkscape:connector-curvature="0" />
    </g>
  </g>
</svg>
