<?xml version="1.0" encoding="UTF-8" standalone="no"?>
<!-- Created with Inkscape (http://www.inkscape.org/) -->

<svg
   xmlns:dc="http://purl.org/dc/elements/1.1/"
   xmlns:cc="http://creativecommons.org/ns#"
   xmlns:rdf="http://www.w3.org/1999/02/22-rdf-syntax-ns#"
   xmlns:svg="http://www.w3.org/2000/svg"
   xmlns="http://www.w3.org/2000/svg"
   xmlns:sodipodi="http://sodipodi.sourceforge.net/DTD/sodipodi-0.dtd"
   xmlns:inkscape="http://www.inkscape.org/namespaces/inkscape"
   width="37.827148mm"
   height="10.021093mm"
   viewBox="0 0 37.827148 10.021093"
   version="1.1"
   id="svg33707"
   inkscape:version="0.92.4 (5da689c313, 2019-01-14)"
   sodipodi:docname="I5A.svg">
  <defs
     id="defs33701" />
  <sodipodi:namedview
     id="base"
     pagecolor="#ffffff"
     bordercolor="#666666"
     borderopacity="1.0"
     inkscape:pageopacity="0.0"
     inkscape:pageshadow="2"
     inkscape:zoom="0.35"
     inkscape:cx="-440.40178"
     inkscape:cy="-415.64289"
     inkscape:document-units="mm"
     inkscape:current-layer="layer1"
     showgrid="false"
     fit-margin-top="0"
     fit-margin-left="0"
     fit-margin-right="0"
     fit-margin-bottom="0"
     inkscape:window-width="1920"
     inkscape:window-height="1017"
     inkscape:window-x="-8"
     inkscape:window-y="-8"
     inkscape:window-maximized="1" />
  <metadata
     id="metadata33704">
    <rdf:RDF>
      <cc:Work
         rdf:about="">
        <dc:format>image/svg+xml</dc:format>
        <dc:type
           rdf:resource="http://purl.org/dc/dcmitype/StillImage" />
        <dc:title></dc:title>
      </cc:Work>
    </rdf:RDF>
  </metadata>
  <g
     inkscape:label="Layer 1"
     inkscape:groupmode="layer"
     id="layer1"
     transform="translate(-29.210472,-28.840058)">
    <g
       aria-label="ð“†"
       style="font-style:normal;font-variant:normal;font-weight:normal;font-stretch:normal;font-size:50.79999924px;line-height:1.25;font-family:sans-serif;-inkscape-font-specification:'sans-serif, Normal';font-variant-ligatures:normal;font-variant-caps:normal;font-variant-numeric:normal;font-feature-settings:normal;text-align:start;letter-spacing:0px;word-spacing:0px;writing-mode:lr-tb;text-anchor:start;fill:#000000;fill-opacity:1;stroke:none;stroke-width:0.26458332"
       id="text34254">
      <path
         d="m 36.999144,28.889678 q 0.248047,0 0.520898,-0.02481 0.297657,-0.02481 0.644922,-0.02481 1.934766,0 3.299024,0.520899 1.389062,0.496093 1.835546,1.413867 0.297657,-0.04961 0.595313,-0.07441 0.322461,-0.02481 0.644922,-0.02481 0.967383,0 2.406054,0.272852 1.463477,0.272851 1.934766,0.471289 l 0.694531,0.347265 q 5.829102,3.026172 9.450586,3.026172 3.621484,0 8.011914,3.348633 l -0.248047,0.719336 H 33.32805 L 32.95598,38.389873 V 37.42249 l 0.37207,-0.471289 h 3.54707 q 0.272852,-0.198438 0.496094,-0.446484 0.223242,-0.248047 0.347266,-0.595313 v -0.148828 q -0.297656,-1.016992 -2.133203,-1.314649 -1.835547,-0.297656 -3.472657,-0.223242 -1.612304,0.04961 -2.257226,-0.520898 -0.644922,-0.570508 -0.644922,-1.240234 0.07441,-0.396875 0.272852,-0.545704 0.223242,-0.173632 0.620117,-0.198437 l 0.471289,-0.02481 q 1.513086,-0.198437 2.827734,-1.389062 1.339453,-1.190625 2.480469,-1.314649 z m 4.812109,8.855273 H 33.74973 v 0.322461 h 31.849218 q -1.736328,-1.190625 -3.274219,-1.785938 -1.53789,-0.595312 -3.001367,-0.644922 -1.463476,-0.04961 -3.299023,-0.421679 -1.810742,-0.396875 -4.588867,-1.63711 -2.753321,-1.240234 -2.926953,-1.413867 -0.173633,-0.198437 -1.537891,-0.446484 -1.339453,-0.272852 -2.430859,-0.272852 -0.347266,0 -0.644922,0.02481 -0.297656,0.02481 -0.570508,0.09922 -0.471289,0.818554 -0.79375,2.232422 -0.297656,1.413867 -0.297656,3.54707 z m -0.37207,-0.942578 q 0,-1.339453 0.198437,-2.654102 0.223243,-1.314648 0.768946,-2.530078 -1.810743,-0.124023 -2.480469,-0.595312 -0.644922,-0.496094 -0.694531,-0.967383 l -0.04961,-0.396875 q -0.198437,0 -0.37207,-0.0248 h -0.37207 q -0.868164,0 -1.711524,0.124024 -0.818554,0.09922 -1.488281,0.223242 -0.322461,0.198437 -1.95957,1.364258 -1.612305,1.141015 -3.175,1.141015 l -0.09922,0.04961 q 0,0.124023 0.223242,0.396875 0.223242,0.272851 0.496094,0.396875 0.297656,0.09922 1.562695,0.09922 3.844727,0 5.010547,0.719336 1.190625,0.719336 1.190625,1.711524 0,0.545703 -0.446484,1.091406 h 3.398242 z m -1.463477,-7.069336 v 0.124023 q 0,0.124024 0.148828,0.223243 l 0.198438,0.223242 q 0.322461,0.248047 0.818555,0.347265 0.520898,0.09922 0.942578,0.148828 l 0.347265,0.0248 q -0.297656,-0.34726 -0.967382,-0.620112 -0.644922,-0.297656 -1.488282,-0.471289 z m -3.348632,1.265039 q -0.372071,0.223242 -0.520899,0.223242 -0.124023,0 -0.124023,-0.09922 0,-0.07441 0.04961,-0.198437 0.04961,-0.148828 0.173633,-0.148828 0.173633,0 0.42168,0.223242 z"
         style="stroke-width:0.26458332"
         id="path34256"
         inkscape:connector-curvature="0" />
    </g>
  </g>
</svg>
