<?xml version="1.0" encoding="UTF-8" standalone="no"?>
<!-- Created with Inkscape (http://www.inkscape.org/) -->

<svg
   xmlns:dc="http://purl.org/dc/elements/1.1/"
   xmlns:cc="http://creativecommons.org/ns#"
   xmlns:rdf="http://www.w3.org/1999/02/22-rdf-syntax-ns#"
   xmlns:svg="http://www.w3.org/2000/svg"
   xmlns="http://www.w3.org/2000/svg"
   xmlns:sodipodi="http://sodipodi.sourceforge.net/DTD/sodipodi-0.dtd"
   xmlns:inkscape="http://www.inkscape.org/namespaces/inkscape"
   width="21.877733mm"
   height="13.2953mm"
   viewBox="0 0 21.877733 13.2953"
   version="1.1"
   id="svg23874"
   inkscape:version="0.92.4 (5da689c313, 2019-01-14)"
   sodipodi:docname="I6.svg">
  <defs
     id="defs23868" />
  <sodipodi:namedview
     id="base"
     pagecolor="#ffffff"
     bordercolor="#666666"
     borderopacity="1.0"
     inkscape:pageopacity="0.0"
     inkscape:pageshadow="2"
     inkscape:zoom="0.35"
     inkscape:cx="-314.6875"
     inkscape:cy="-340.47537"
     inkscape:document-units="mm"
     inkscape:current-layer="layer1"
     showgrid="false"
     fit-margin-top="0"
     fit-margin-left="0"
     fit-margin-right="0"
     fit-margin-bottom="0"
     inkscape:window-width="1920"
     inkscape:window-height="1017"
     inkscape:window-x="-8"
     inkscape:window-y="-8"
     inkscape:window-maximized="1" />
  <metadata
     id="metadata23871">
    <rdf:RDF>
      <cc:Work
         rdf:about="">
        <dc:format>image/svg+xml</dc:format>
        <dc:type
           rdf:resource="http://purl.org/dc/dcmitype/StillImage" />
        <dc:title></dc:title>
      </cc:Work>
    </rdf:RDF>
  </metadata>
  <g
     inkscape:label="Layer 1"
     inkscape:groupmode="layer"
     id="layer1"
     transform="translate(4.0514322,-45.453926)">
    <g
       aria-label="𓆎"
       transform="scale(0.26458333)"
       style="font-style:normal;font-variant:normal;font-weight:normal;font-stretch:normal;font-size:192px;line-height:1.25;font-family:sans-serif;-inkscape-font-specification:sans-serif;font-variant-ligatures:normal;font-variant-caps:normal;font-variant-numeric:normal;font-feature-settings:normal;text-align:start;letter-spacing:0px;word-spacing:0px;writing-mode:lr-tb;text-anchor:start;fill:#000000;fill-opacity:1;stroke:none"
       id="flowRoot24419">
      <path
         d="m -15.3125,219.41937 q 3.28125,-3 6.9375,-5.53125 3.65625,-2.625 7.59375,-4.6875 l -6.84375,-0.84375 -0.9375,-2.625 q 3.375,-2.53125 6.75,-4.875 3.375,-2.34375 7.3125,-4.125 l -5.34375,-0.65625 -0.9375,-2.625 q 7.6875,-5.8125 17.15625,-8.15625 l -4.59375,-0.9375 -0.46875,-2.90625 q 8.25,-4.59375 16.6875,-7.125 8.53125,-2.53125 22.21875,-2.53125 3.5625,0 7.40625,0.0937 l 8.15625,0.1875 1.59375,1.5 v 46.96875 l -1.59375,1.5 H -14.375 Z m 20.34375,-9.84375 q -4.03125,2.15625 -7.875,4.40625 -3.84375,2.25 -7.40625,5.0625 h 74.625 v -43.96875 l -7.6875,-0.1875 q -3.65625,0 -7.03125,-0.0937 -10.78125,0 -18.09375,1.6875 -7.3125,1.6875 -15.46875,5.71875 l 10.125,2.25 -0.46875,2.90625 q -5.90625,0.1875 -11.25,1.6875 -5.25,1.40625 -10.3125,4.5 l 8.625,1.125 v 2.90625 q -4.6875,1.03125 -8.71875,3.28125 -4.03125,2.15625 -7.78125,4.96875 l 8.25,1.125 z"
         id="path24427"
         inkscape:connector-curvature="0" />
    </g>
  </g>
</svg>
