<?xml version="1.0" encoding="UTF-8" standalone="no"?>
<!-- Created with Inkscape (http://www.inkscape.org/) -->

<svg
   xmlns:dc="http://purl.org/dc/elements/1.1/"
   xmlns:cc="http://creativecommons.org/ns#"
   xmlns:rdf="http://www.w3.org/1999/02/22-rdf-syntax-ns#"
   xmlns:svg="http://www.w3.org/2000/svg"
   xmlns="http://www.w3.org/2000/svg"
   xmlns:sodipodi="http://sodipodi.sourceforge.net/DTD/sodipodi-0.dtd"
   xmlns:inkscape="http://www.inkscape.org/namespaces/inkscape"
   width="37.876755mm"
   height="28.525391mm"
   viewBox="0 0 37.876755 28.525391"
   version="1.1"
   id="svg24436"
   inkscape:version="0.92.4 (5da689c313, 2019-01-14)"
   sodipodi:docname="I7.svg">
  <defs
     id="defs24430" />
  <sodipodi:namedview
     id="base"
     pagecolor="#ffffff"
     bordercolor="#666666"
     borderopacity="1.0"
     inkscape:pageopacity="0.0"
     inkscape:pageshadow="2"
     inkscape:zoom="0.35"
     inkscape:cx="-346.11523"
     inkscape:cy="-368.86018"
     inkscape:document-units="mm"
     inkscape:current-layer="layer1"
     showgrid="false"
     fit-margin-top="0"
     fit-margin-left="0"
     fit-margin-right="0"
     fit-margin-bottom="0"
     inkscape:window-width="1920"
     inkscape:window-height="1017"
     inkscape:window-x="-8"
     inkscape:window-y="-8"
     inkscape:window-maximized="1" />
  <metadata
     id="metadata24433">
    <rdf:RDF>
      <cc:Work
         rdf:about="">
        <dc:format>image/svg+xml</dc:format>
        <dc:type
           rdf:resource="http://purl.org/dc/dcmitype/StillImage" />
        <dc:title></dc:title>
      </cc:Work>
    </rdf:RDF>
  </metadata>
  <g
     inkscape:label="Layer 1"
     inkscape:groupmode="layer"
     id="layer1"
     transform="translate(-4.2638223,-22.713687)">
    <g
       aria-label="ð“†"
       transform="scale(0.26458333)"
       style="font-style:normal;font-variant:normal;font-weight:normal;font-stretch:normal;font-size:192px;line-height:1.25;font-family:sans-serif;-inkscape-font-specification:sans-serif;font-variant-ligatures:normal;font-variant-caps:normal;font-variant-numeric:normal;font-feature-settings:normal;text-align:start;letter-spacing:0px;word-spacing:0px;writing-mode:lr-tb;text-anchor:start;fill:#000000;fill-opacity:1;stroke:none"
       id="flowRoot24981">
      <path
         d="m 49.583984,85.847108 q 1.96875,0 3.65625,1.21875 1.6875,1.21875 2.90625,3.1875 4.40625,3 8.53125,6.46875 l 8.25,7.031252 q 8.4375,7.40625 14.15625,10.59375 5.8125,3.09375 16.499996,7.03125 10.78125,3.9375 16.59375,5.4375 5.8125,1.40625 12.09375,6.84375 6.375,5.34375 12.28125,13.96875 6,8.53125 6,15.09375 0,4.03125 -2.25,7.21875 4.5,0.9375 7.6875,2.90625 3.1875,1.96875 3.28125,4.03125 v 0.375 q 0,7.3125 -13.3125,11.8125 -13.21875,4.40625 -39.1875,4.40625 h -8.718746 l -2.25,0.0937 q -1.875,0 -4.03125,0.0937 -2.0625,0 -3.84375,-0.1875 -1.78125,-0.0937 -2.53125,-0.46875 -0.65625,-0.9375 -0.84375,-1.5 0.1875,-0.75 0.375,-1.125 0.1875,-0.375 0.75,-0.9375 -3.9375,-1.78125 -9.5625,-5.8125 -5.625,-4.125 -10.21875,-6.375 -2.8125,3.5625 -2.8125,6.5625 0,3.5625 3.65625,7.21875 -0.9375,1.03125 -1.78125,2.34375 -3.84375,-1.21875 -7.59375,-1.59375 -3.75,-0.46875 -7.59375,-0.46875 -6.09375,0 -15.65625,1.03125 -9.46875,1.125 -15.5625,1.125 l -0.9375,-0.375 q -0.65625,-0.84375 -1.5,-1.5 0.1875,-0.65625 0.1875,-1.21875 0,-0.65625 0.28125,-1.3125 5.90625,-3.09375 12.46875,-4.6875 6.65625,-1.59375 13.125,-2.90625 9.09375,-7.78125 11.15625,-19.5 -2.53125,-4.875 -7.6875,-11.71875 -5.0625,-6.9375 -4.6875,-7.125 0.46875,-0.28125 -0.9375,-4.03125 -1.40625,-3.84375 -4.59375,-7.5 l -3.375,-3.84375 q -1.78125,-2.15625 -3.375,-4.3125 -1.59375,-2.15625 -3.28125,-4.3125 l -2.625,-3.375 q -2.0625,-2.71875 -3.375,-5.34375 -1.3125,-2.71875 -1.3125,-5.34375 0,-2.625 1.3125,-5.250002 0,-7.40625 5.34375,-11.90625 l 0.9375,-0.75 q 0.65625,-0.46875 1.21875,-0.5625 0.5625,-0.09375 1.40625,-0.09375 1.3125,0 3.375,0.28125 2.0625,0.1875 4.21875,0.46875 l 8.625,1.5 q 0.46875,-1.3125 2.0625,-2.0625 1.59375,-0.84375 3,-0.84375 z m -28.3125,17.250002 q -0.375,1.21875 -0.375,2.4375 0,3.5625 3.375,7.59375 3.46875,3.9375 7.125,8.90625 3.75,4.96875 7.5,9.46875 3.75,4.40625 5.34375,11.4375 l 3.1875,4.125 q 4.03125,5.34375 6.46875,9.46875 2.53125,4.125 2.53125,5.53125 v 0.46875 q -0.375,3 -2.53125,8.15625 -2.0625,5.15625 -6.1875,9.65625 -4.03125,4.5 -6,4.5 -1.21875,0 -2.25,0.28125 l -9.5625,2.0625 q -4.96875,1.125 -9.28125,3.1875 7.03125,-0.46875 14.0625,-1.21875 7.125,-0.84375 14.25,-0.84375 3.28125,0 6.375,0.28125 3.1875,0.1875 6.375,0.84375 -1.59375,-2.625 -1.59375,-5.625 0,-3.5625 2.25,-6.65625 2.34375,-3.09375 2.625,-4.03125 l 0.375,-1.59375 q 0.46875,-1.40625 0.65625,-2.8125 l 0.375,-2.8125 q 0,-0.9375 0.09375,-1.96875 0,-1.78125 -0.28125,-3.9375 -0.28125,-2.15625 -0.65625,-4.03125 0.1875,-0.1875 1.3125,-0.375 1.125,-0.1875 1.59375,-0.375 0.28125,1.875 0.5625,3.65625 0.375,1.78125 0.375,3.75 v 2.625 q 0,1.3125 -0.5625,4.40625 -0.46875,3 -1.40625,5.0625 4.125,1.96875 10.5,6.46875 6.375,4.40625 10.40625,6.28125 8.4375,-1.21875 17.156246,-2.53125 8.71875,-1.3125 17.15625,-2.71875 l -0.84375,-0.1875 q -2.34375,-0.1875 -6.28125,-2.15625 -3.84375,-1.96875 -6.09375,-4.875 -2.25,-3 -2.25,-5.0625 0,-0.84375 0.46875,-2.25 0.46875,-1.5 1.96875,-2.90625 l 1.03125,-0.9375 1.875,-1.3125 q 0.9375,-0.5625 1.96875,-1.03125 l 3.09375,-1.21875 q 1.40625,-0.5625 3.28125,-1.03125 l 0.65625,-0.1875 2.71875,-0.5625 q 1.59375,-0.375 3.28125,-0.5625 1.6875,-0.28125 3.28125,-0.5625 l 1.21875,-0.1875 0.46875,3 q -0.28125,0 -0.5625,0.0937 -0.28125,0 -0.9375,0.0937 l -2.8125,0.375 -4.21875,0.75 q -2.0625,0.375 -4.21875,0.9375 l -2.4375,0.84375 q -1.875,0.65625 -3.1875,1.5 -1.21875,0.75 -2.4375,1.96875 l -1.21875,1.6875 q 0,0.65625 -0.0937,1.21875 0,3.84375 4.5,6.5625 4.5,2.625 12.84375,3.46875 l 3.75,0.1875 q 2.0625,0.1875 3.84375,0.1875 l 1.5,-0.0937 q 0.75,0 1.21875,-0.0937 l 0.46875,3 q -10.21875,1.59375 -19.59375,3 l -29.999996,4.59375 q 0.75,0 1.59375,0.0937 h 1.59375 q 1.59375,0 3.1875,-0.0937 l 12.749996,0.0937 q 9.375,0 18.65625,-0.75 9.28125,-0.75 18.09375,-3.5625 l 3.5625,-1.3125 q 3.375,-1.21875 5.4375,-3.1875 2.15625,-1.96875 2.4375,-4.5 -2.15625,-2.8125 -5.625,-3.375 -3.375,-0.65625 -5.25,-1.59375 -0.75,0 -2.53125,0.0937 l -4.3125,0.28125 -5.25,0.28125 q -0.375,0 -7.3125,0.46875 -6.84375,0.46875 -6.09375,0.375 v -3 q 0.9375,0 2.90625,-0.1875 l 4.40625,-0.28125 14.8125,-0.75 q 1.96875,0 3,-0.1875 1.40625,-1.5 1.96875,-3.1875 0.65625,-1.6875 0.65625,-3.5625 0,-3.5625 -2.15625,-7.96875 -2.15625,-4.5 -7.6875,-11.0625 l -1.3125,-1.6875 -1.03125,-1.21875 -0.9375,-1.03125 h -0.0937 q -8.25,-8.25 -13.875,-9.65625 -5.53125,-1.40625 -20.812496,-6.84375 -15.28125,-5.4375 -27.1875,-15.84375 -11.90625,-10.406252 -17.53125,-14.250002 -0.28125,0 -0.9375,0.375 l -0.84375,0.5625 q -1.40625,0.5625 -2.625,0.65625 h -0.375 q -1.40625,0 -2.71875,-0.65625 -1.3125,-0.75 -2.34375,-2.15625 l -8.8125,-1.3125 q -4.40625,-0.5625 -8.8125,-0.9375 -2.71875,2.15625 -3.84375,4.5 -1.03125,2.34375 -1.21875,5.53125 2.90625,3.843752 5.34375,7.031252 2.4375,3.09375 4.96875,6.1875 l -2.53125,1.6875 z m 28.5,-11.625002 q 0.375,0 0.65625,0.09375 0.5625,0 1.21875,-0.1875 0.65625,-0.28125 1.21875,-0.5625 -1.125,-1.40625 -2.8125,-2.0625 h -0.75 l -1.03125,0.375 q -0.46875,0.1875 -0.9375,0.65625 0.65625,0.75 1.03125,1.125 0.46875,0.28125 0.9375,0.46875 h 0.28125 z"
         id="path24989"
         inkscape:connector-curvature="0" />
    </g>
  </g>
</svg>
