<?xml version="1.0" encoding="UTF-8" standalone="no"?>
<!-- Created with Inkscape (http://www.inkscape.org/) -->

<svg
   xmlns:dc="http://purl.org/dc/elements/1.1/"
   xmlns:cc="http://creativecommons.org/ns#"
   xmlns:rdf="http://www.w3.org/1999/02/22-rdf-syntax-ns#"
   xmlns:svg="http://www.w3.org/2000/svg"
   xmlns="http://www.w3.org/2000/svg"
   xmlns:sodipodi="http://sodipodi.sourceforge.net/DTD/sodipodi-0.dtd"
   xmlns:inkscape="http://www.inkscape.org/namespaces/inkscape"
   width="29.988869mm"
   height="38.000782mm"
   viewBox="0 0 29.988869 38.000782"
   version="1.1"
   id="svg24998"
   inkscape:version="0.92.4 (5da689c313, 2019-01-14)"
   sodipodi:docname="I8.svg">
  <defs
     id="defs24992" />
  <sodipodi:namedview
     id="base"
     pagecolor="#ffffff"
     bordercolor="#666666"
     borderopacity="1.0"
     inkscape:pageopacity="0.0"
     inkscape:pageshadow="2"
     inkscape:zoom="0.35"
     inkscape:cx="-383.25977"
     inkscape:cy="-363.42649"
     inkscape:document-units="mm"
     inkscape:current-layer="layer1"
     showgrid="false"
     fit-margin-top="0"
     fit-margin-left="0"
     fit-margin-right="0"
     fit-margin-bottom="0"
     inkscape:window-width="1920"
     inkscape:window-height="1017"
     inkscape:window-x="-8"
     inkscape:window-y="-8"
     inkscape:window-maximized="1" />
  <metadata
     id="metadata24995">
    <rdf:RDF>
      <cc:Work
         rdf:about="">
        <dc:format>image/svg+xml</dc:format>
        <dc:type
           rdf:resource="http://purl.org/dc/dcmitype/StillImage" />
        <dc:title></dc:title>
      </cc:Work>
    </rdf:RDF>
  </metadata>
  <g
     inkscape:label="Layer 1"
     inkscape:groupmode="layer"
     id="layer1"
     transform="translate(-14.091646,-14.675962)">
    <g
       aria-label="ð“†"
       transform="scale(0.26458333)"
       style="font-style:normal;font-variant:normal;font-weight:normal;font-stretch:normal;font-size:192px;line-height:1.25;font-family:sans-serif;-inkscape-font-specification:sans-serif;font-variant-ligatures:normal;font-variant-caps:normal;font-variant-numeric:normal;font-feature-settings:normal;text-align:start;letter-spacing:0px;word-spacing:0px;writing-mode:lr-tb;text-anchor:start;fill:#000000;fill-opacity:1;stroke:none"
       id="flowRoot25543">
      <path
         d="m 53.259766,70.374452 q 0,-3.09375 2.25,-4.96875 2.34375,-1.875 6,-2.8125 3.75,-0.9375 3.9375,-1.3125 0.28125,-0.375 5.0625,-3 4.875,-2.625 8.4375,-2.8125 h 0.375 q 6.5625,0 16.21875,8.90625 9.656254,8.90625 12.750004,10.3125 3.09375,1.40625 16.875,12 13.78125,10.5 20.0625,18.843748 6.28125,8.25 9.65625,16.6875 3.46875,8.4375 6.75,27.09375 2.15625,12.09375 3.46875,24.09375 1.3125,12 1.5,24.28125 l -2.0625,1.40625 q -1.59375,-0.375 -3.46875,-3.46875 -1.875,-3.1875 -3.09375,-9.09375 l -0.75,-3.65625 q -1.59375,-7.03125 -2.90625,-13.96875 -1.21875,-6.9375 -2.8125,-13.96875 l -1.59375,-7.5 q -0.84375,-3.84375 -2.34375,-7.21875 H 88.791016 l -1.40625,-1.78125 q 0.75,-2.34375 3.5625,-3.84375 2.8125,-1.59375 9.187504,-1.875 -6.656254,-5.8125 -10.593754,-10.59375 -3.84375,-4.875 -6.28125,-15 -2.34375,-10.124998 -6.46875,-15.468748 -4.125,-5.4375 -10.96875,-8.4375 -6.75,-3.09375 -9.46875,-5.71875 -2.71875,-2.625 -3.09375,-6.5625 z m 3,0.28125 q 0.28125,2.4375 1.5,3.9375 1.21875,1.5 3.375,2.625 l 9.5625,5.25 q 5.53125,3.09375 9,7.96875 3.46875,4.875 5.90625,14.906248 2.53125,9.9375 5.8125,14.4375 3.28125,4.40625 9.093754,9.09375 l 4.6875,3.84375 h 10.40625 l -1.96875,-3.375 q -1.125,-1.96875 -2.71875,-5.4375 -1.5,-3.46875 -1.5,-6.46875 0,-3.9375 2.34375,-7.21875 2.4375,-3.28125 3.9375,-4.3125 l 1.875,2.34375 q -0.5625,0.65625 -2.8125,3 -2.15625,2.25 -2.15625,4.875 v 0.9375 q 0,2.71875 0.9375,5.0625 0.9375,2.25 2.71875,5.4375 l 2.25,4.21875 q 0.1875,0.46875 0.46875,0.84375 0.28125,0.28125 0.46875,0.65625 l -1.3125,2.4375 -8.15625,0.0937 q -1.59375,0 -3,-0.0937 l -3,-0.0937 q -3.84375,0 -7.125004,0.46875 -3.28125,0.375 -4.59375,1.125 h 56.156254 l 1.5,1.03125 q 1.6875,3.75 2.625,7.78125 l 1.875,8.15625 q 1.3125,5.90625 2.4375,11.90625 1.125,6 1.875,9.75 l 1.21875,5.4375 0.84375,4.125 q 0.46875,2.25 1.125,4.5 0.65625,2.15625 1.5,3.84375 -0.5625,-16.21875 -2.71875,-30.84375 -2.0625,-14.71875 -4.5,-25.5 -2.34375,-10.875 -6.46875,-19.125 -4.03125,-8.25 -11.34375,-16.125 -7.3125,-7.968748 -18.46875,-16.124998 -11.0625,-8.15625 -14.0625,-9.375 -2.90625,-1.3125 -9.187504,-7.21875 -6.28125,-6 -10.875,-8.53125 -4.5,-2.53125 -6.65625,-2.25 -2.0625,0.1875 -4.40625,1.03125 -3.75,1.40625 -5.8125,3 -2.0625,1.59375 -3.1875,1.96875 l -2.34375,0.5625 q -2.90625,0.65625 -4.40625,1.40625 -1.5,0.65625 -2.25,1.875 l -0.28125,1.03125 q -0.1875,0.46875 -0.1875,1.125 z"
         id="path25551"
         inkscape:connector-curvature="0" />
    </g>
  </g>
</svg>
