<?xml version="1.0" encoding="UTF-8" standalone="no"?>
<!-- Created with Inkscape (http://www.inkscape.org/) -->

<svg
   xmlns:dc="http://purl.org/dc/elements/1.1/"
   xmlns:cc="http://creativecommons.org/ns#"
   xmlns:rdf="http://www.w3.org/1999/02/22-rdf-syntax-ns#"
   xmlns:svg="http://www.w3.org/2000/svg"
   xmlns="http://www.w3.org/2000/svg"
   xmlns:sodipodi="http://sodipodi.sourceforge.net/DTD/sodipodi-0.dtd"
   xmlns:inkscape="http://www.inkscape.org/namespaces/inkscape"
   width="43.308987mm"
   height="18.603516mm"
   viewBox="0 0 43.308987 18.603516"
   version="1.1"
   id="svg26122"
   inkscape:version="0.92.4 (5da689c313, 2019-01-14)"
   sodipodi:docname="I9A.svg">
  <defs
     id="defs26116" />
  <sodipodi:namedview
     id="base"
     pagecolor="#ffffff"
     bordercolor="#666666"
     borderopacity="1.0"
     inkscape:pageopacity="0.0"
     inkscape:pageshadow="2"
     inkscape:zoom="0.35"
     inkscape:cx="-383.25977"
     inkscape:cy="-334.76047"
     inkscape:document-units="mm"
     inkscape:current-layer="layer1"
     showgrid="false"
     fit-margin-top="0"
     fit-margin-left="0"
     fit-margin-right="0"
     fit-margin-bottom="0"
     inkscape:window-width="1920"
     inkscape:window-height="1017"
     inkscape:window-x="-8"
     inkscape:window-y="-8"
     inkscape:window-maximized="1" />
  <metadata
     id="metadata26119">
    <rdf:RDF>
      <cc:Work
         rdf:about="">
        <dc:format>image/svg+xml</dc:format>
        <dc:type
           rdf:resource="http://purl.org/dc/dcmitype/StillImage" />
        <dc:title></dc:title>
      </cc:Work>
    </rdf:RDF>
  </metadata>
  <g
     inkscape:label="Layer 1"
     inkscape:groupmode="layer"
     id="layer1"
     transform="translate(-14.091646,-41.657777)">
    <g
       aria-label="𓆒"
       transform="scale(0.26458333)"
       style="font-style:normal;font-variant:normal;font-weight:normal;font-stretch:normal;font-size:192px;line-height:1.25;font-family:sans-serif;-inkscape-font-specification:sans-serif;font-variant-ligatures:normal;font-variant-caps:normal;font-variant-numeric:normal;font-feature-settings:normal;text-align:start;letter-spacing:0px;word-spacing:0px;writing-mode:lr-tb;text-anchor:start;fill:#000000;fill-opacity:1;stroke:none"
       id="flowRoot26667">
      <path
         d="m 91.978516,225.97797 v -11.4375 l 1.40625,-1.78125 H 203.44727 v -40.3125 h -72.84375 l -1.40625,-1.78125 v -11.4375 l 1.40625,-1.78125 h 84.75 l 1.59375,1.5 v 67.3125 l -1.59375,1.5 H 93.384766 Z m 3,-1.21875 H 213.94727 v -64.3125 h -81.75 v 9 h 72.65625 l 1.59375,1.5 v 43.3125 l -1.59375,1.5 H 94.978516 Z m 39.093754,-40.6875 q 1.5,0 3.5625,0.28125 2.0625,0.28125 4.40625,0.75 2.34375,0.375 4.78125,0.9375 2.4375,0.5625 4.6875,1.125 5.34375,1.40625 11.15625,3.09375 0.375,0.0937 1.21875,0.375 0.9375,0.28125 1.96875,0.5625 1.125,0.28125 2.25,0.5625 1.21875,0.1875 2.34375,0.1875 4.78125,0 8.4375,-0.1875 3.65625,-0.1875 6.9375,-0.1875 2.8125,0 5.34375,0.28125 2.53125,0.28125 4.6875,1.21875 0.1875,0.65625 0.1875,1.3125 0,0.65625 0.28125,1.3125 -3.84375,2.8125 -10.96875,3.75 -3.5625,0.46875 -7.40625,0.75 -3.75,0.1875 -7.78125,0.1875 -7.125,0 -14.0625,-0.75 -6.9375,-0.75 -14.34375,-1.96875 l -6.65625,-1.125 q -0.75,-0.1875 -1.5,-0.1875 -0.65625,-0.0937 -1.59375,-0.28125 -2.625,0.0937 -5.4375,0.65625 -2.71875,0.5625 -5.625,1.21875 -2.90625,0.5625 -5.8125,1.03125 -2.8125,0.46875 -5.53125,0.46875 -7.5,0 -14.343754,-3 -3.375,-1.59375 -6.5625,-3 -3.09375,-1.5 -6,-3 l -4.40625,-2.34375 q -1.21875,-0.65625 -2.34375,-1.125 -1.125,-0.46875 -2.34375,-0.65625 -1.78125,0.65625 -3.46875,1.5 -1.59375,0.84375 -3,0.84375 -3.5625,0 -8.71875,-1.96875 -5.15625,-2.0625 -5.15625,-7.875 0,-1.78125 0.46875,-3.46875 0.5625,-1.78125 1.78125,-3.09375 1.3125,-1.40625 3.375,-2.34375 2.0625,-0.9375 5.15625,-1.21875 -0.28125,-0.46875 -0.9375,-1.5 -0.65625,-1.03125 -1.5,-2.0625 -0.75,-1.03125 -1.6875,-1.78125 -0.9375,-0.84375 -1.875,-0.84375 -1.78125,0 -2.34375,-0.65625 -0.5625,-0.65625 -0.9375,-1.40625 0,-1.21875 0.75,-1.875 0.75,-0.75 1.96875,-0.75 1.40625,0 2.71875,1.125 1.3125,1.03125 2.4375,2.71875 1.125,1.59375 2.15625,3.46875 1.03125,1.875 1.96875,3.46875 h 1.96875 q 0.65625,-1.59375 1.96875,-3.46875 1.3125,-1.875 2.8125,-3.46875 1.59375,-1.6875 3.1875,-2.71875 1.59375,-1.125 3,-1.125 1.3125,0 1.78125,0.65625 0.5625,0.5625 0.5625,1.3125 0,2.25 -4.03125,2.25 -1.125,0 -2.8125,1.96875 -1.6875,1.875 -3.5625,5.0625 1.03125,0.28125 3.09375,1.40625 2.0625,1.125 4.5,2.71875 2.4375,1.5 5.0625,3.28125 2.625,1.6875 4.78125,3.28125 3.9375,2.90625 8.15625,5.25 4.218754,2.25 9.000004,3.375 5.0625,-1.3125 9.1875,-2.15625 4.21875,-0.84375 7.59375,-1.3125 3.375,-0.46875 6.09375,-0.65625 2.71875,-0.1875 4.96875,-0.1875 z m -9.46875,3.28125 q -3.28125,0.5625 -6.5625,1.3125 -3.28125,0.75 -6.84375,1.78125 -3.09375,0.9375 -4.59375,0.9375 -5.25,-0.75 -9.843754,-3.1875 -4.59375,-2.53125 -8.90625,-5.53125 -1.125,-0.75 -2.625,-1.78125 -1.5,-1.03125 -2.8125,-2.0625 -1.59375,-1.03125 -3.28125,-2.25 -2.15625,-1.5 -4.21875,-2.625 -2.0625,-1.125 -4.78125,-1.78125 -1.3125,-0.28125 -2.8125,-0.28125 -1.5,-0.0937 -2.625,-0.0937 -5.625,0.46875 -7.03125,2.625 -1.40625,2.15625 -1.40625,4.40625 0,3.46875 2.8125,5.0625 2.8125,1.5 9.09375,1.5 1.59375,-0.65625 2.71875,-1.3125 1.125,-0.75 2.71875,-0.75 2.25,0 6.09375,2.15625 3.75,2.0625 4.40625,2.34375 l 8.8125,4.3125 q 3.9375,1.875 7.968754,3.09375 4.03125,1.125 8.53125,1.125 1.96875,0 3.9375,-0.1875 1.96875,-0.1875 4.03125,-0.5625 3,-0.65625 5.8125,-1.21875 2.4375,-0.46875 4.875,-0.84375 2.53125,-0.46875 4.3125,-0.46875 2.34375,0.1875 5.15625,0.84375 2.8125,0.5625 4.6875,0.84375 4.5,0.75 7.5,1.21875 3.09375,0.46875 5.0625,0.75 2.0625,0.28125 3.28125,0.46875 1.21875,0.0937 2.0625,0.1875 1.78125,0.0937 3.5625,0.1875 1.78125,0 3.5625,0 3.09375,0 6.75,-0.1875 3.75,-0.1875 7.21875,-0.46875 3.46875,-0.375 6.1875,-0.84375 2.8125,-0.46875 4.125,-1.03125 -0.65625,-0.0937 -1.21875,-0.0937 -0.5625,-0.0937 -1.125,-0.0937 -1.125,0 -2.4375,-0.0937 -1.3125,-0.0937 -3.1875,-0.0937 -1.78125,0 -4.40625,0.1875 -2.53125,0.0937 -5.625,0.0937 -1.96875,0 -4.40625,-0.0937 -2.34375,-0.1875 -4.3125,-0.84375 l -9.46875,-2.8125 q -4.96875,-1.5 -11.15625,-2.8125 -2.0625,-0.46875 -3.75,-0.75 -1.6875,-0.28125 -3.28125,-0.46875 -1.5,-0.1875 -3,-0.1875 -1.40625,-0.0937 -3.09375,-0.0937 -1.875,0 -3.28125,0.0937 -1.3125,0.0937 -3.1875,0.375 z"
         id="path26675"
         inkscape:connector-curvature="0" />
    </g>
  </g>
</svg>
