<?xml version="1.0" encoding="UTF-8" standalone="no"?>
<!-- Created with Inkscape (http://www.inkscape.org/) -->

<svg
   xmlns:dc="http://purl.org/dc/elements/1.1/"
   xmlns:cc="http://creativecommons.org/ns#"
   xmlns:rdf="http://www.w3.org/1999/02/22-rdf-syntax-ns#"
   xmlns:svg="http://www.w3.org/2000/svg"
   xmlns="http://www.w3.org/2000/svg"
   xmlns:sodipodi="http://sodipodi.sourceforge.net/DTD/sodipodi-0.dtd"
   xmlns:inkscape="http://www.inkscape.org/namespaces/inkscape"
   width="37.926365mm"
   height="16.767967mm"
   viewBox="0 0 37.926365 16.767967"
   version="1.1"
   id="svg5647"
   inkscape:version="0.92.4 (5da689c313, 2019-01-14)"
   sodipodi:docname="K2.svg">
  <defs
     id="defs5641" />
  <sodipodi:namedview
     id="base"
     pagecolor="#ffffff"
     bordercolor="#666666"
     borderopacity="1.0"
     inkscape:pageopacity="0.0"
     inkscape:pageshadow="2"
     inkscape:zoom="0.35"
     inkscape:cx="-368.97321"
     inkscape:cy="-427.07143"
     inkscape:document-units="mm"
     inkscape:current-layer="layer1"
     showgrid="false"
     fit-margin-top="0"
     fit-margin-left="0"
     fit-margin-right="0"
     fit-margin-bottom="0"
     inkscape:window-width="1920"
     inkscape:window-height="1017"
     inkscape:window-x="-8"
     inkscape:window-y="-8"
     inkscape:window-maximized="1" />
  <metadata
     id="metadata5644">
    <rdf:RDF>
      <cc:Work
         rdf:about="">
        <dc:format>image/svg+xml</dc:format>
        <dc:type
           rdf:resource="http://purl.org/dc/dcmitype/StillImage" />
        <dc:title></dc:title>
      </cc:Work>
    </rdf:RDF>
  </metadata>
  <g
     inkscape:label="Layer 1"
     inkscape:groupmode="layer"
     id="layer1"
     transform="translate(-10.311663,-19.069382)">
    <g
       aria-label="𓆜"
       style="font-style:normal;font-variant:normal;font-weight:normal;font-stretch:normal;font-size:50.79999924px;line-height:1.25;font-family:sans-serif;-inkscape-font-specification:'sans-serif, Normal';font-variant-ligatures:normal;font-variant-caps:normal;font-variant-numeric:normal;font-feature-settings:normal;text-align:start;letter-spacing:0px;word-spacing:0px;writing-mode:lr-tb;text-anchor:start;fill:#000000;fill-opacity:1;stroke:none;stroke-width:0.26458332"
       id="text6194">
      <path
         d="m 47.841154,27.701413 q -1.53789,1.513086 -1.53789,3.001367 0,1.711524 1.934765,3.299024 l -0.520898,0.595312 q -1.785938,-1.21543 -3.720703,-1.711523 -1.909961,-0.496094 -4.01836,-0.620117 0.124024,0.37207 0.322461,0.768945 0.223243,0.37207 0.372071,0.669726 l -0.272852,0.520899 q -0.570508,0.124023 -1.041797,0.124023 -1.339453,0 -3.075781,-0.79375 -1.736328,-0.79375 -2.033984,-0.917773 h -9.921875 q 0.07441,0.719336 0.37207,1.339453 0.322461,0.595312 0.744141,1.21543 l -0.173633,0.322461 q -0.09922,0.148828 -0.173633,0.32246 -1.785937,-0.272851 -3.54707,-1.141015 -1.761133,-0.868164 -5.407422,-4.067969 -3.695898,-0.09922 -4.7625,-0.917773 -1.066601,-0.818555 -1.066601,-1.885156 0,-2.182813 3.12539,-4.167188 3.125391,-2.00918 6.647656,-3.199805 l 4.067969,-1.389062 q 0.223242,0.347266 0.471289,0.620117 -0.42168,0.669727 -0.570508,1.463477 -0.148828,0.79375 -0.148828,1.5875 4.936133,1.314648 7.491016,2.778125 2.579687,1.438671 5.581054,2.282031 3.001367,0.818555 4.613672,0.818555 h 0.173633 q 1.513086,-0.04961 2.902148,-0.446485 1.389063,-0.396875 2.703711,-1.116211 l 0.471289,0.620117 z m -9.276953,3.819922 q 0.223242,0 0.471289,-0.02481 l 0.545703,-0.04961 q 0.446485,-0.04961 2.530079,0.223242 2.108398,0.272852 4.043164,1.16582 -0.669727,-1.066601 -0.669727,-2.158007 0,-1.091407 0.669727,-2.207618 -1.041797,0.42168 -2.133204,0.669727 -1.066601,0.248047 -2.257226,0.272851 h -0.173633 q -1.711523,0 -4.836914,-0.892968 -3.12539,-0.892969 -4.960937,-1.909961 L 31.222014,26.287546 Q 30.205022,25.717038 28.171037,24.948093 26.161858,24.179148 23.358928,23.410202 L 23.234905,23.18696 q -0.07441,-0.09922 -0.124024,-0.223242 0,-0.719336 0.07441,-1.438672 0.07441,-0.719336 0.347266,-1.389062 l -2.778125,0.942578 q -4.638477,1.612304 -7.168555,3.423046 -2.505273,1.785938 -2.505273,3.299024 0,0.917773 1.116211,1.463476 1.141015,0.520899 2.902148,0.545703 l 1.116211,0.02481 q 1.041797,-0.446484 1.364258,-0.917773 0.322461,-0.471289 0.322461,-1.810742 l 0.79375,-0.07441 v 0.297656 q -0.04961,1.066601 -0.322461,1.711523 -0.272852,0.644922 -1.016992,1.141016 l 0.520898,0.148828 q 0.297656,0.07441 0.446485,0.148828 0.173632,0.07441 0.496093,0.148828 l 0.79375,0.248047 q 0.396875,0.124023 1.091407,0.297656 0.719335,0.148828 0.892968,0.173633 l 0.79375,0.198438 q 0.396875,0.09922 0.79375,0.173632 l 0.694532,0.124024 8.706445,0.02481 q 0.868164,0 1.736328,-0.02481 z M 18.001116,31.198874 q 1.438672,1.265039 2.902148,2.257226 1.488281,0.967383 3.398242,1.438672 -0.297656,-0.520898 -0.520898,-1.066601 -0.223242,-0.570508 -0.272852,-1.190625 l -1.984375,-0.471289 -0.347265,-0.09922 -0.620118,-0.148828 q -0.421679,-0.09922 -1.16582,-0.297656 z m 19.918163,1.16582 q -0.471289,0.04961 -0.942578,0.07441 -0.446484,0.02481 -1.016992,0.07441 0.79375,0.372071 1.661914,0.694532 0.868164,0.322461 1.785938,0.322461 h 0.272851 q -0.173633,-0.297649 -0.322461,-0.62011 -0.148828,-0.322461 -0.223242,-0.644921 z M 15.917522,26.634812 q -0.620117,0.471289 -0.917773,0.471289 -0.297657,0 -0.297657,-0.471289 0,-0.446485 0.297657,-0.446485 0.32246,0 0.917773,0.446485 z"
         style="stroke-width:0.26458332"
         id="path6196"
         inkscape:connector-curvature="0" />
    </g>
  </g>
</svg>
