<?xml version="1.0" encoding="UTF-8" standalone="no"?>
<!-- Created with Inkscape (http://www.inkscape.org/) -->

<svg
   xmlns:dc="http://purl.org/dc/elements/1.1/"
   xmlns:cc="http://creativecommons.org/ns#"
   xmlns:rdf="http://www.w3.org/1999/02/22-rdf-syntax-ns#"
   xmlns:svg="http://www.w3.org/2000/svg"
   xmlns="http://www.w3.org/2000/svg"
   xmlns:sodipodi="http://sodipodi.sourceforge.net/DTD/sodipodi-0.dtd"
   xmlns:inkscape="http://www.inkscape.org/namespaces/inkscape"
   width="37.876759mm"
   height="15.602148mm"
   viewBox="0 0 37.876759 15.602148"
   version="1.1"
   id="svg2517"
   inkscape:version="0.92.4 (5da689c313, 2019-01-14)"
   sodipodi:docname="K3.svg">
  <defs
     id="defs2511" />
  <sodipodi:namedview
     id="base"
     pagecolor="#ffffff"
     bordercolor="#666666"
     borderopacity="1.0"
     inkscape:pageopacity="0.0"
     inkscape:pageshadow="2"
     inkscape:zoom="0.35"
     inkscape:cx="-354.6875"
     inkscape:cy="-349.42258"
     inkscape:document-units="mm"
     inkscape:current-layer="layer1"
     showgrid="false"
     fit-margin-top="0"
     fit-margin-left="0"
     fit-margin-right="0"
     fit-margin-bottom="0"
     inkscape:window-width="1920"
     inkscape:window-height="1017"
     inkscape:window-x="-8"
     inkscape:window-y="-8"
     inkscape:window-maximized="1" />
  <metadata
     id="metadata2514">
    <rdf:RDF>
      <cc:Work
         rdf:about="">
        <dc:format>image/svg+xml</dc:format>
        <dc:type
           rdf:resource="http://purl.org/dc/dcmitype/StillImage" />
        <dc:title></dc:title>
      </cc:Work>
    </rdf:RDF>
  </metadata>
  <g
     inkscape:label="Layer 1"
     inkscape:groupmode="layer"
     id="layer1"
     transform="translate(-6.531901,-40.779795)">
    <g
       aria-label="ð“†"
       transform="scale(0.26458333)"
       style="font-style:normal;font-variant:normal;font-weight:normal;font-stretch:normal;font-size:192px;line-height:1.25;font-family:sans-serif;-inkscape-font-specification:sans-serif;font-variant-ligatures:normal;font-variant-caps:normal;font-variant-numeric:normal;font-feature-settings:normal;text-align:start;letter-spacing:0px;word-spacing:0px;writing-mode:lr-tb;text-anchor:start;fill:#000000;fill-opacity:1;stroke:none"
       id="flowRoot3619">
      <path
         d="m 136.625,201.47211 q -0.1875,0.1875 -0.5625,0.1875 -0.28125,0 -0.28125,0.28125 0,1.78125 0.28125,3.5625 l 0.0937,0.1875 q -1.40625,0.5625 -2.71875,1.21875 -1.3125,-1.875 -3,-2.625 -1.6875,-0.75 -3.5625,-0.75 -3.09375,0 -7.21875,1.96875 -4.03125,1.96875 -9.75,6.28125 l -1.875,-0.0937 q -2.71875,-2.71875 -5.4375,-5.53125 -2.71875,-2.90625 -4.875,-6.1875 -17.34375,-1.40625 -24.375,-3.375 -6.9375,-1.96875 -12,-5.0625 0.9375,2.0625 1.96875,4.03125 l 1.96875,4.03125 -2.4375,1.59375 q -9.65625,-6.5625 -15.1875,-16.6875 L 41,180.65961 q -6,-3.375 -10.125,-7.21875 -4.125,-3.9375 -5.90625,-8.625 l 0.28125,-1.21875 -0.5625,-1.5 q 0.75,-4.21875 6,-6.09375 5.25,-1.875 11.4375,-1.875 6.9375,0 17.15625,2.8125 10.3125,2.71875 16.78125,5.34375 0.1875,0 4.125,1.59375 3.9375,1.5 5.0625,1.875 l 2.625,1.03125 q 0.65625,-0.1875 8.90625,-3.1875 8.34375,-3.09375 14.4375,-3.09375 1.125,0 2.15625,0.1875 1.125,0.0937 2.15625,0.28125 l -0.46875,2.90625 q -2.53125,0.28125 -4.40625,2.15625 -1.78125,1.875 -2.8125,4.40625 l -1.3125,3.09375 q 3.28125,1.40625 6.5625,2.71875 l 6.46875,2.625 q 2.4375,-1.21875 5.15625,-2.0625 2.71875,-0.84375 5.4375,-0.84375 l 1.5,1.03125 q 0.75,1.6875 1.3125,3.375 0.65625,1.59375 1.40625,3.28125 5.25,1.03125 10.3125,1.78125 5.0625,0.65625 10.21875,0.65625 5.625,0 11.4375,-1.125 l 1.3125,2.4375 q -1.03125,1.5 -3.09375,2.53125 -2.0625,0.9375 -4.40625,1.6875 l -4.78125,1.40625 q -2.34375,0.75 -3.84375,1.6875 1.40625,3.75 7.96875,7.96875 6.5625,4.125 8.15625,8.4375 l 0.1875,0.375 -2.4375,1.59375 q -9.84375,-7.125 -16.40625,-9.375 -6.46875,-2.34375 -9.75,-2.53125 z M 60.21875,187.31586 q 6.28125,3.84375 14.15625,6.1875 7.875,2.34375 24.09375,3.46875 l 5.71875,0.28125 q 1.96875,0 5.4375,0.1875 l 12.28125,0.46875 7.40625,0.28125 q 4.40625,0.0937 5.53125,0.1875 1.125,0.0937 1.40625,0.0937 h 1.96875 l 0.375,-1.875 0.375,-2.8125 q 0,-0.75 0.1875,-2.53125 0.1875,-1.875 0.1875,-2.25 v -1.40625 q -9.9375,-2.15625 -13.96875,-3.375 -3.9375,-1.21875 -13.21875,-5.0625 l -10.96875,-4.5 -10.03125,-3.375 q -2.53125,-0.84375 -3.75,-1.5 l -3.1875,-1.3125 -8.0625,-3 q -0.9375,-0.375 -1.03125,-0.375 -6.5625,-2.71875 -16.6875,-5.34375 -10.03125,-2.71875 -16.3125,-2.71875 -4.125,0 -8.8125,1.21875 -4.6875,1.21875 -5.53125,3.65625 0.9375,0.9375 4.96875,4.96875 4.125,3.9375 4.875,4.5 l -1.6875,2.34375 q 2.25,1.6875 9.375,6 7.21875,4.3125 7.40625,4.21875 0.1875,-0.0937 1.96875,0.9375 4.21875,-1.875 7.03125,-6.5625 2.90625,-4.78125 3.5625,-5.53125 l 17.0625,6.28125 0.84375,2.34375 q -1.03125,1.78125 -2.53125,2.53125 -1.5,0.75 -3.28125,0.75 -2.53125,0 -5.8125,-1.40625 -3.1875,-1.40625 -4.96875,-2.53125 L 64.25,179.44086 q -1.21875,2.15625 -2.71875,3.9375 -1.40625,1.6875 -2.90625,2.71875 l -0.5625,0.375 z m 97.875,1.6875 -2.71875,0.0937 q -3.28125,0 -6.5625,-0.28125 -3.1875,-0.28125 -6.46875,-0.75 l -0.0937,3.375 -0.375,3.65625 q -0.1875,1.78125 -0.65625,3.65625 3.75,0.46875 7.3125,1.6875 3.5625,1.125 6.84375,2.71875 -2.53125,-1.6875 -4.59375,-3.75 -2.0625,-2.0625 -2.4375,-5.0625 0.375,-0.9375 0.46875,-1.40625 2.0625,-1.5 4.40625,-2.34375 2.4375,-0.84375 4.875,-1.59375 z m -42.28125,11.71875 q -2.625,-0.1875 -7.59375,-0.28125 -4.875,-0.1875 -6.75,-0.28125 1.78125,2.25 3.75,4.40625 1.96875,2.0625 4.03125,4.03125 3.1875,-2.15625 6.9375,-4.40625 3.75,-2.34375 7.6875,-3.1875 l -4.03125,-0.1875 q -1.96875,0 -4.03125,-0.0937 z m -12.09375,-28.21875 q 1.03125,-2.4375 2.25,-4.78125 1.21875,-2.4375 3.09375,-4.21875 -4.21875,0.375 -8.625,1.875 -4.40625,1.40625 -8.25,3 z m -24.46875,8.625 q -3.375,-1.125 -6.75,-2.25 -3.28125,-1.21875 -6.5625,-2.53125 l -0.28125,0.5625 q 2.0625,0.84375 5.15625,2.53125 3.09375,1.6875 5.53125,2.0625 l 1.125,0.1875 q 0.9375,0 1.78125,-0.5625 z m -21.375,8.53125 q -0.1875,0 -0.84375,-0.375 l -3.1875,-1.5 q -0.84375,-0.375 -1.3125,-0.65625 1.40625,2.25 3.1875,4.21875 1.875,1.96875 3.9375,3.65625 z m 72.75,-7.125 q -0.375,-0.84375 -0.65625,-1.78125 l -0.75,-1.78125 q -2.71875,0.28125 -5.53125,1.3125 z m -87.5625,-18.5625 q 1.5,0.46875 2.71875,1.5 l -2.15625,0.9375 -1.3125,-1.5 z"
         id="path3627"
         inkscape:connector-curvature="0" />
    </g>
  </g>
</svg>
