<?xml version="1.0" encoding="UTF-8" standalone="no"?>
<!-- Created with Inkscape (http://www.inkscape.org/) -->

<svg
   xmlns:dc="http://purl.org/dc/elements/1.1/"
   xmlns:cc="http://creativecommons.org/ns#"
   xmlns:rdf="http://www.w3.org/1999/02/22-rdf-syntax-ns#"
   xmlns:svg="http://www.w3.org/2000/svg"
   xmlns="http://www.w3.org/2000/svg"
   xmlns:sodipodi="http://sodipodi.sourceforge.net/DTD/sodipodi-0.dtd"
   xmlns:inkscape="http://www.inkscape.org/namespaces/inkscape"
   width="38.447266mm"
   height="16.19746mm"
   viewBox="0 0 38.447266 16.19746"
   version="1.1"
   id="svg6205"
   inkscape:version="0.92.4 (5da689c313, 2019-01-14)"
   sodipodi:docname="K4.svg">
  <defs
     id="defs6199" />
  <sodipodi:namedview
     id="base"
     pagecolor="#ffffff"
     bordercolor="#666666"
     borderopacity="1.0"
     inkscape:pageopacity="0.0"
     inkscape:pageshadow="2"
     inkscape:zoom="0.35"
     inkscape:cx="-343.25977"
     inkscape:cy="-326.56516"
     inkscape:document-units="mm"
     inkscape:current-layer="layer1"
     showgrid="false"
     fit-margin-top="0"
     fit-margin-left="0"
     fit-margin-right="0"
     fit-margin-bottom="0"
     inkscape:window-width="1920"
     inkscape:window-height="1017"
     inkscape:window-x="-8"
     inkscape:window-y="-8"
     inkscape:window-maximized="1" />
  <metadata
     id="metadata6202">
    <rdf:RDF>
      <cc:Work
         rdf:about="">
        <dc:format>image/svg+xml</dc:format>
        <dc:type
           rdf:resource="http://purl.org/dc/dcmitype/StillImage" />
        <dc:title></dc:title>
      </cc:Work>
    </rdf:RDF>
  </metadata>
  <g
     inkscape:label="Layer 1"
     inkscape:groupmode="layer"
     id="layer1"
     transform="translate(-3.508313,-46.232175)">
    <g
       aria-label="𓆞"
       transform="scale(0.26458333)"
       style="font-style:normal;font-variant:normal;font-weight:normal;font-stretch:normal;font-size:192px;line-height:1.25;font-family:sans-serif;-inkscape-font-specification:'sans-serif, Normal';font-variant-ligatures:normal;font-variant-caps:normal;font-variant-numeric:normal;font-feature-settings:normal;text-align:start;letter-spacing:0px;word-spacing:0px;writing-mode:lr-tb;text-anchor:start;fill:#000000;fill-opacity:1;stroke:none"
       id="flowRoot6750">
      <path
         d="m 16.447266,204.26703 q -0.5625,-0.1875 -1.125,-0.1875 -0.46875,0 -1.03125,-0.28125 -1.03125,-2.0625 -1.03125,-4.3125 0,-5.53125 7.03125,-10.40625 7.03125,-4.96875 17.53125,-8.0625 l 3.375,-0.9375 q 1.96875,-0.5625 4.6875,-0.9375 2.8125,-0.46875 4.59375,-0.46875 h 0.65625 q 1.59375,0 3.1875,0.28125 v -0.375 q 3.5625,-2.0625 6.9375,-2.90625 3.46875,-0.9375 6.84375,-0.9375 9.75,0 28.21875,8.8125 18.562504,8.8125 22.875004,10.78125 v 2.4375 l -7.125,4.78125 q 1.21875,0.46875 2.34375,1.03125 1.125,0.5625 2.34375,1.03125 l 7.5,3.09375 q 4.875,2.15625 9.75,3.375 4.96875,1.21875 9.5625,1.21875 6,0 13.59375,-2.0625 l 1.40625,2.625 q -0.375,0.28125 -6.9375,4.6875 -6.46875,4.3125 -6.65625,8.25 v 1.03125 q 0,1.96875 0.5625,4.03125 0.65625,1.96875 1.5,4.5 l -2.4375,1.59375 q -10.6875,-13.59375 -19.96875,-15.28125 -9.28125,-1.6875 -11.34375,-2.0625 l -8.15625,-1.40625 2.34375,3.09375 -1.78125,2.34375 -13.406254,-7.03125 -7.3125,-0.375 q -4.6875,-0.28125 -11.0625,-2.4375 -6.375,-2.15625 -11.625,-4.3125 l -1.78125,-0.75 q -0.9375,1.6875 -1.59375,2.34375 -0.5625,0.5625 -1.6875,1.3125 l -1.875,-0.0937 -7.40625,-8.90625 q -10.5,-4.125 -17.8125,-3.65625 -7.21875,0.375 -13.6875,5.53125 z m 28.96875,-6 q 2.34375,-2.90625 2.34375,-6.65625 -0.1875,-1.5 -0.5625,-3 -0.375,-1.59375 -1.125,-2.90625 1.3125,-0.65625 2.71875,-1.21875 0.9375,1.875 1.40625,3.75 0.5625,1.78125 0.5625,3.65625 0,3.9375 -2.34375,7.40625 3.75,1.40625 7.5,3 l 7.5,3.28125 q 16.96875,7.21875 23.625,6.84375 6.65625,-0.375 17.156254,1.5 l 9.5625,1.78125 8.90625,1.40625 q 4.40625,0.75 9.1875,3.1875 4.78125,2.34375 10.5,8.34375 -0.28125,-1.40625 -0.28125,-2.8125 0,-2.90625 1.6875,-5.625 1.6875,-2.8125 6.46875,-6.375 -3.09375,0.5625 -6.28125,0.5625 -8.15625,0 -18.75,-4.03125 -10.5,-4.125 -25.312504,-11.4375 -14.8125,-7.40625 -27.1875,-12.1875 -12.375,-4.78125 -21.09375,-4.78125 -8.90625,0 -20.0625,4.40625 -11.0625,4.40625 -14.8125,10.78125 l -0.375,1.6875 q -0.1875,0.5625 -0.1875,1.03125 0,0.375 0.09375,0.75 5.53125,-3.75 11.53125,-4.78125 6.09375,-1.03125 17.625,2.4375 z m 22.6875,-20.53125 q -2.15625,0 -4.40625,0.375 -2.15625,0.375 -4.40625,1.3125 12.84375,3 28.96875,10.6875 16.125004,7.59375 21.000004,9.75 l 6.09375,-4.03125 q -2.15625,-1.03125 -20.250004,-9.5625 -18,-8.53125 -27,-8.53125 z m -14.0625,27.28125 2.53125,3 0.65625,-0.65625 q 0.28125,-0.375 0.46875,-0.84375 z"
         id="path6758"
         inkscape:connector-curvature="0" />
    </g>
  </g>
</svg>
