<?xml version="1.0" encoding="UTF-8" standalone="no"?>
<!-- Created with Inkscape (http://www.inkscape.org/) -->

<svg
   xmlns:dc="http://purl.org/dc/elements/1.1/"
   xmlns:cc="http://creativecommons.org/ns#"
   xmlns:rdf="http://www.w3.org/1999/02/22-rdf-syntax-ns#"
   xmlns:svg="http://www.w3.org/2000/svg"
   xmlns="http://www.w3.org/2000/svg"
   xmlns:sodipodi="http://sodipodi.sourceforge.net/DTD/sodipodi-0.dtd"
   xmlns:inkscape="http://www.inkscape.org/namespaces/inkscape"
   width="37.926369mm"
   height="13.617773mm"
   viewBox="0 0 37.926369 13.617773"
   version="1.1"
   id="svg3071"
   inkscape:version="0.92.4 (5da689c313, 2019-01-14)"
   sodipodi:docname="K5.svg">
  <defs
     id="defs3065" />
  <sodipodi:namedview
     id="base"
     pagecolor="#ffffff"
     bordercolor="#666666"
     borderopacity="1.0"
     inkscape:pageopacity="0.0"
     inkscape:pageshadow="2"
     inkscape:zoom="0.35"
     inkscape:cx="-331.83008"
     inkscape:cy="-351.90305"
     inkscape:document-units="mm"
     inkscape:current-layer="layer1"
     showgrid="false"
     fit-margin-top="0"
     fit-margin-left="0"
     fit-margin-right="0"
     fit-margin-bottom="0"
     inkscape:window-width="1920"
     inkscape:window-height="1017"
     inkscape:window-x="-8"
     inkscape:window-y="-8"
     inkscape:window-maximized="1" />
  <metadata
     id="metadata3068">
    <rdf:RDF>
      <cc:Work
         rdf:about="">
        <dc:format>image/svg+xml</dc:format>
        <dc:type
           rdf:resource="http://purl.org/dc/dcmitype/StillImage" />
        <dc:title></dc:title>
      </cc:Work>
    </rdf:RDF>
  </metadata>
  <g
     inkscape:label="Layer 1"
     inkscape:groupmode="layer"
     id="layer1"
     transform="translate(-0.48420816,-42.107879)">
    <g
       aria-label="𓆟"
       transform="scale(0.26458333)"
       style="font-style:normal;font-variant:normal;font-weight:normal;font-stretch:normal;font-size:192px;line-height:1.25;font-family:sans-serif;-inkscape-font-specification:sans-serif;font-variant-ligatures:normal;font-variant-caps:normal;font-variant-numeric:normal;font-feature-settings:normal;text-align:start;letter-spacing:0px;word-spacing:0px;writing-mode:lr-tb;text-anchor:start;fill:#000000;fill-opacity:1;stroke:none"
       id="flowRoot3630">
      <path
         d="m 143.86133,171.33539 1.3125,2.4375 -3.46875,3.75 q -3.46875,3.75 -3.46875,7.40625 0,1.125 0.75,3 0.75,1.78125 1.78125,3.75 1.125,1.875 2.25,3.46875 1.125,1.59375 1.96875,2.25 l -1.59375,2.53125 q -12,-5.625 -18,-7.3125 -6.09375,-1.6875 -11.34375,-1.6875 -6.09375,0 -14.062502,2.25 l 10.031252,8.625 -0.9375,2.71875 -11.062502,-1.125 q -3.1875,-0.28125 -5.71875,-1.6875 -1.3125,-0.75 -3.5625,-1.875 -2.15625,-1.125 -5.4375,-2.71875 -7.59375,1.96875 -15.1875,3.1875 -7.59375,1.21875 -15.46875,1.21875 l 3.46875,7.125 -1.5,1.96875 q -3.9375,-0.5625 -6.46875,-0.5625 -2.4375,0 -9.28125,-5.71875 -3.46875,-2.90625 -6.375,-5.0625 -2.90625,-2.15625 -5.34375,-3.65625 h -3.375 q -6.75,0 -11.15625,-1.59375 -4.4062499,-1.59375 -6.4687499,-4.03125 -2.25,-2.71875 -3.28125,-4.125 -1.03125,-1.5 -1.03125,-2.71875 1.40625,-4.3125 14.0624999,-8.53125 6.375,-2.15625 9.75,-3.09375 3.375,-0.9375 3.9375,-1.03125 0.65625,-0.1875 2.4375,-1.03125 1.78125,-0.9375 5.0625,-3.09375 2.15625,-1.40625 4.96875,-2.625 2.90625,-1.3125 6.09375,-2.34375 3.1875,-1.03125 6.46875,-1.59375 3.375,-0.65625 6.46875,-0.65625 2.0625,0 5.4375,0.5625 3.375,0.5625 8.25,1.5 4.875,0.84375 11.25,1.96875 6.375,1.125 14.437502,2.15625 l 0.46875,2.625 -7.968752,5.71875 6,1.40625 q 5.625002,1.3125 11.250002,2.15625 5.625,0.84375 10.125,0.84375 4.03125,0 7.59375,-0.84375 z m -114.656252,8.25 2.53125,-1.6875 q 1.125,1.5 2.0625,3.09375 0.9375,1.59375 1.5,3.375 1.96875,-0.1875 3.9375,-0.375 1.96875,-0.1875 3.65625,-0.1875 3,0 5.4375,0.5625 2.4375,0.46875 4.125,1.6875 -0.84375,0.5625 -1.96875,0.9375 -1.03125,0.375 -2.53125,0.65625 -1.5,0.28125 -3.5625,0.28125 -1.3125,0 -3.75,-0.28125 -2.34375,-0.28125 -5.15625,-1.125 -0.46875,2.4375 -1.78125,4.59375 -1.3125,2.15625 -2.8125,3 4.78125,1.03125 9.5625,2.25 4.78125,1.125 9.65625,2.15625 7.96875,0 14.625,-0.9375 6.75,-1.03125 10.875,-1.78125 7.03125,-1.3125 12.1875,-2.71875 5.15625,-1.5 9.375,-2.625 4.312502,-1.21875 8.250002,-1.96875 3.9375,-0.75 8.625,-0.75 3.375,0 9.46875,1.40625 6.1875,1.3125 15.84375,5.625 -0.84375,-0.9375 -1.59375,-2.25 -0.65625,-1.40625 -1.21875,-2.8125 -0.5625,-1.5 -0.9375,-2.8125 -0.28125,-1.40625 -0.28125,-2.34375 0,-2.25 0.9375,-4.21875 0.9375,-1.96875 2.53125,-4.03125 -3.46875,1.5 -6,2.4375 -2.53125,0.9375 -4.3125,1.40625 -3.375,0.9375 -7.875,0.9375 -3.5625,0 -8.25,-0.65625 -4.59375,-0.65625 -10.5,-1.96875 -11.718752,-2.71875 -14.437502,-3.09375 -3.84375,-0.9375 -8.53125,-1.6875 -4.6875,-0.84375 -9.46875,-1.40625 -4.6875,-0.65625 -9.09375,-0.9375 -4.3125,-0.375 -7.5,-0.375 -2.53125,0 -5.4375,0.1875 -2.8125,0.1875 -5.625,0.46875 -2.71875,0.28125 -5.15625,0.65625 -2.4375,0.28125 -4.125,0.65625 -3,0.65625 -6.9375,1.78125 -3.9375,1.125 -8.90625,2.90625 -9.8437499,3.375 -11.7187499,5.8125 2.0625,4.3125 6.2812499,6.75 4.125,2.34375 15.9375,2.34375 3.1875,-1.78125 4.125,-3.75 0.9375,-2.0625 0.9375,-3.375 l -1.5,-3.75 z m 67.03125,-11.90625 q -7.125,-1.125 -12.1875,-1.96875 -5.0625,-0.9375 -8.71875,-1.5 -3.5625,-0.65625 -5.90625,-1.03125 -2.25,-0.375 -3.84375,-0.5625 -1.5,-0.28125 -2.53125,-0.375 -0.9375,-0.0937 -1.875,-0.0937 -2.15625,0 -4.40625,0.28125 -2.15625,0.28125 -4.78125,1.03125 -2.625,0.75 -5.8125,2.0625 -3.1875,1.3125 -7.21875,3.46875 2.625,-0.1875 5.15625,-0.46875 2.15625,-0.1875 4.5,-0.375 2.34375,-0.1875 4.125,-0.1875 6.375,0 12.84375,0.75 6.46875,0.75 11.71875,1.6875 6.09375,1.03125 11.8125,2.34375 z m -47.15625,33.65625 -12.84375,-3 q 5.0625,3.84375 10.125,7.875 1.40625,0.1875 2.8125,0.46875 1.40625,0.28125 2.90625,0.46875 z m 39,-5.25 7.96875,4.03125 8.531252,0.9375 -7.968752,-6.84375 z m -65.0625,-15.65625 q -1.59375,1.03125 -2.4375,1.03125 -1.03125,0 -1.03125,-1.59375 0,-1.3125 0.65625,-1.3125 0.9375,0 2.8125,1.875 z"
         id="path3638"
         inkscape:connector-curvature="0" />
    </g>
  </g>
</svg>
