<?xml version="1.0" encoding="UTF-8" standalone="no"?>
<!-- Created with Inkscape (http://www.inkscape.org/) -->

<svg
   xmlns:dc="http://purl.org/dc/elements/1.1/"
   xmlns:cc="http://creativecommons.org/ns#"
   xmlns:rdf="http://www.w3.org/1999/02/22-rdf-syntax-ns#"
   xmlns:svg="http://www.w3.org/2000/svg"
   xmlns="http://www.w3.org/2000/svg"
   xmlns:sodipodi="http://sodipodi.sourceforge.net/DTD/sodipodi-0.dtd"
   xmlns:inkscape="http://www.inkscape.org/namespaces/inkscape"
   width="12.972852mm"
   height="18.479492mm"
   viewBox="0 0 12.972852 18.479492"
   version="1.1"
   id="svg7329"
   inkscape:version="0.92.4 (5da689c313, 2019-01-14)"
   sodipodi:docname="K6.svg">
  <defs
     id="defs7323" />
  <sodipodi:namedview
     id="base"
     pagecolor="#ffffff"
     bordercolor="#666666"
     borderopacity="1.0"
     inkscape:pageopacity="0.0"
     inkscape:pageshadow="2"
     inkscape:zoom="0.35"
     inkscape:cx="-334.6875"
     inkscape:cy="-311.90305"
     inkscape:document-units="mm"
     inkscape:current-layer="layer1"
     showgrid="false"
     fit-margin-top="0"
     fit-margin-left="0"
     fit-margin-right="0"
     fit-margin-bottom="0"
     inkscape:window-width="1920"
     inkscape:window-height="1017"
     inkscape:window-x="-8"
     inkscape:window-y="-8"
     inkscape:window-maximized="1" />
  <metadata
     id="metadata7326">
    <rdf:RDF>
      <cc:Work
         rdf:about="">
        <dc:format>image/svg+xml</dc:format>
        <dc:type
           rdf:resource="http://purl.org/dc/dcmitype/StillImage" />
        <dc:title></dc:title>
      </cc:Work>
    </rdf:RDF>
  </metadata>
  <g
     inkscape:label="Layer 1"
     inkscape:groupmode="layer"
     id="layer1"
     transform="translate(-1.2402344,-47.829493)">
    <g
       aria-label="𓆠"
       transform="scale(0.26458333)"
       style="font-style:normal;font-variant:normal;font-weight:normal;font-stretch:normal;font-size:192px;line-height:1.25;font-family:sans-serif;-inkscape-font-specification:'sans-serif, Normal';font-variant-ligatures:normal;font-variant-caps:normal;font-variant-numeric:normal;font-feature-settings:normal;text-align:start;letter-spacing:0px;word-spacing:0px;writing-mode:lr-tb;text-anchor:start;fill:#000000;fill-opacity:1;stroke:none"
       id="flowRoot7874">
      <path
         d="m 4.6875,214.99164 q 7.875,-4.03125 12.375,-10.96875 4.5,-6.9375 6.5625,-22.03125 l 1.40625,-1.21875 q 11.4375,0.46875 20.0625,12.28125 8.625,11.71875 8.625,23.34375 0,12.1875 -8.625,22.96875 -8.625,10.6875 -20.0625,11.25 L 23.625,249.39789 q -2.34375,-14.34375 -6.84375,-21 Q 12.375,221.74164 4.6875,217.80414 Z m 21.75,-31.125 q -2.25,13.96875 -6.46875,21.09375 -4.21875,7.03125 -11.71875,11.4375 7.78125,4.78125 12.09375,12.1875 4.3125,7.40625 6,18.9375 8.625,-0.375 16.40625,-10.21875 7.875,-9.84375 7.875,-20.71875 0,-10.875 -7.875,-21.65625 -7.875,-10.78125 -16.3125,-11.0625 z"
         id="path7882"
         inkscape:connector-curvature="0" />
    </g>
  </g>
</svg>
