<?xml version="1.0" encoding="UTF-8" standalone="no"?>
<!-- Created with Inkscape (http://www.inkscape.org/) -->

<svg
   xmlns:dc="http://purl.org/dc/elements/1.1/"
   xmlns:cc="http://creativecommons.org/ns#"
   xmlns:rdf="http://www.w3.org/1999/02/22-rdf-syntax-ns#"
   xmlns:svg="http://www.w3.org/2000/svg"
   xmlns="http://www.w3.org/2000/svg"
   xmlns:sodipodi="http://sodipodi.sourceforge.net/DTD/sodipodi-0.dtd"
   xmlns:inkscape="http://www.inkscape.org/namespaces/inkscape"
   width="38.000782mm"
   height="35.445911mm"
   viewBox="0 0 38.000782 35.445911"
   version="1.1"
   id="svg6767"
   inkscape:version="0.92.4 (5da689c313, 2019-01-14)"
   sodipodi:docname="K7.svg">
  <defs
     id="defs6761" />
  <sodipodi:namedview
     id="base"
     pagecolor="#ffffff"
     bordercolor="#666666"
     borderopacity="1.0"
     inkscape:pageopacity="0.0"
     inkscape:pageshadow="2"
     inkscape:zoom="0.35"
     inkscape:cx="-343.25977"
     inkscape:cy="-346.09641"
     inkscape:document-units="mm"
     inkscape:current-layer="layer1"
     showgrid="false"
     fit-margin-top="0"
     fit-margin-left="0"
     fit-margin-right="0"
     fit-margin-bottom="0"
     inkscape:window-width="1920"
     inkscape:window-height="1017"
     inkscape:window-x="-8"
     inkscape:window-y="-8"
     inkscape:window-maximized="1" />
  <metadata
     id="metadata6764">
    <rdf:RDF>
      <cc:Work
         rdf:about="">
        <dc:format>image/svg+xml</dc:format>
        <dc:type
           rdf:resource="http://purl.org/dc/dcmitype/StillImage" />
        <dc:title></dc:title>
      </cc:Work>
    </rdf:RDF>
  </metadata>
  <g
     inkscape:label="Layer 1"
     inkscape:groupmode="layer"
     id="layer1"
     transform="translate(-3.508313,-21.816081)">
    <g
       aria-label="𓆡"
       transform="scale(0.26458333)"
       style="font-style:normal;font-variant:normal;font-weight:normal;font-stretch:normal;font-size:192px;line-height:1.25;font-family:sans-serif;-inkscape-font-specification:'sans-serif, Normal';font-variant-ligatures:normal;font-variant-caps:normal;font-variant-numeric:normal;font-feature-settings:normal;text-align:start;letter-spacing:0px;word-spacing:0px;writing-mode:lr-tb;text-anchor:start;fill:#000000;fill-opacity:1;stroke:none"
       id="flowRoot7312">
      <path
         d="m 82.353516,88.64203 4.59375,3.9375 q 6.75,5.71875 12.375,17.8125 5.625004,12 9.093754,24.375 l 1.40625,5.25 q 5.0625,5.8125 11.15625,10.40625 6.1875,4.5 12.5625,8.71875 v 2.4375 q -3.1875,2.4375 -4.59375,4.5 -1.3125,2.0625 -1.3125,5.0625 0,1.59375 0.28125,3.375 7.5,3.75 14.4375,7.6875 6.9375,3.84375 10.6875,10.03125 3.84375,6.09375 3.84375,13.5 0,1.03125 -0.65625,2.15625 l -1.125,1.96875 q -2.4375,4.3125 -5.4375,5.4375 -2.90625,1.125 -6.1875,1.125 -9.46875,0 -17.4375,-10.21875 -7.875,-10.21875 -11.0625,-18.9375 l -7.59375,-2.625 q -3.84375,-1.21875 -7.875004,-1.5 0.46875,5.90625 2.250004,11.0625 1.875,5.15625 4.875,10.5 v 0.0937 l -1.78125,2.34375 q -14.906254,-7.125 -20.062504,-12.9375 -5.15625,-5.90625 -6.375,-12.75 -26.71875,-2.53125 -45.75,-14.53125 -18.9375,-12 -19.3125,-30.1875 l -0.09375,-7.3125 q 0,-16.40625 3.5625,-23.25 3.65625,-6.9375 10.6875,-8.8125 -0.75,-1.3125 -1.5,-2.625 -0.65625,-1.40625 -1.21875,-2.71875 v -1.5 q 1.3125,-1.875 2.53125,-3.09375 1.21875,-1.21875 2.71875,-1.875 1.875,-3.09375 5.0625,-3.09375 2.15625,0 4.6875,1.5 5.71875,-0.375 11.71875,-0.5625 2.71875,0 5.0625,-0.09375 2.4375,-0.09375 4.6875,-0.09375 7.40625,0 12.65625,1.40625 5.34375,1.40625 8.4375,4.03125 z m 15.46875,91.40625 q 4.687504,0 9.093754,1.40625 4.40625,1.40625 8.71875,3 l 9.28125,-9.375 q -0.28125,-2.0625 -0.28125,-3.84375 0,-3.28125 1.21875,-5.71875 1.3125,-2.4375 4.3125,-4.96875 -11.25,-7.40625 -15.5625,-11.25 -4.21875,-3.9375 -5.625,-5.4375 -1.40625,-1.5 -2.625,-5.15625 l -5.625,-17.34375 q -5.906254,-14.625 -10.968754,-21 -4.96875,-6.46875 -10.59375,-10.21875 -5.53125,-3.84375 -17.15625,-3.84375 h -1.125 q -5.34375,0 -10.6875,0.09375 -5.4375,0 -10.78125,0.46875 -1.78125,1.875 -4.5,1.875 -1.6875,0 -3.46875,-0.75 -1.03125,0.75 -2.0625,1.59375 -0.9375,0.75 -1.59375,1.78125 0.75,1.59375 1.5,3.09375 0.84375,1.5 1.78125,3 l -0.84375,2.4375 q -5.90625,1.21875 -8.8125,5.0625 -2.90625,3.84375 -4.03125,8.90625 -1.125,4.96875 -1.125,15.84375 v 3.46875 q 0,9.09375 1.78125,13.3125 1.875,4.125 5.25,8.53125 3.46875,4.3125 10.78125,9.28125 7.40625,4.96875 19.5,9 12.09375,4.03125 26.0625,5.34375 1.40625,0 2.8125,0.0937 l 2.625,0.28125 q 0.5625,0 2.0625,0.0937 l 3.375,0.375 q 1.875,0.1875 3.84375,0.28125 z m 19.968754,6.46875 q 3.9375,9.9375 10.78125,18.375 6.9375,8.34375 14.34375,8.34375 h 1.125 q 4.21875,-0.375 6.1875,-1.875 1.96875,-1.5 3.65625,-5.90625 -0.375,-8.0625 -4.96875,-13.59375 -4.59375,-5.625 -12.46875,-9.65625 l -9.5625,-4.78125 z m -36.281254,-4.78125 q 1.125,5.25 5.34375,10.125 4.21875,4.875 15.093754,10.59375 -2.250004,-4.6875 -3.656254,-9.375 -1.40625,-4.78125 -1.78125,-10.125 z"
         id="path7320"
         inkscape:connector-curvature="0" />
    </g>
  </g>
</svg>
