<?xml version="1.0" encoding="UTF-8" standalone="no"?>
<!-- Created with Inkscape (http://www.inkscape.org/) -->

<svg
   xmlns:dc="http://purl.org/dc/elements/1.1/"
   xmlns:cc="http://creativecommons.org/ns#"
   xmlns:rdf="http://www.w3.org/1999/02/22-rdf-syntax-ns#"
   xmlns:svg="http://www.w3.org/2000/svg"
   xmlns="http://www.w3.org/2000/svg"
   xmlns:sodipodi="http://sodipodi.sourceforge.net/DTD/sodipodi-0.dtd"
   xmlns:inkscape="http://www.inkscape.org/namespaces/inkscape"
   width="31.774805mm"
   height="14.436328mm"
   viewBox="0 0 31.774805 14.436328"
   version="1.1"
   id="svg3647"
   inkscape:version="0.92.4 (5da689c313, 2019-01-14)"
   sodipodi:docname="K8.svg">
  <defs
     id="defs3641" />
  <sodipodi:namedview
     id="base"
     pagecolor="#ffffff"
     bordercolor="#666666"
     borderopacity="1.0"
     inkscape:pageopacity="0.0"
     inkscape:pageshadow="2"
     inkscape:zoom="0.35"
     inkscape:cx="-328.97266"
     inkscape:cy="-342.22141"
     inkscape:document-units="mm"
     inkscape:current-layer="layer1"
     showgrid="false"
     fit-margin-top="0"
     fit-margin-left="0"
     fit-margin-right="0"
     fit-margin-bottom="0"
     inkscape:window-width="1920"
     inkscape:window-height="1017"
     inkscape:window-x="-8"
     inkscape:window-y="-8"
     inkscape:window-maximized="1" />
  <metadata
     id="metadata3644">
    <rdf:RDF>
      <cc:Work
         rdf:about="">
        <dc:format>image/svg+xml</dc:format>
        <dc:type
           rdf:resource="http://purl.org/dc/dcmitype/StillImage" />
        <dc:title></dc:title>
      </cc:Work>
    </rdf:RDF>
  </metadata>
  <g
     inkscape:label="Layer 1"
     inkscape:groupmode="layer"
     id="layer1"
     transform="translate(0.27181802,-43.850925)">
    <g
       aria-label="𓆢"
       transform="scale(0.26458333)"
       style="font-style:normal;font-variant:normal;font-weight:normal;font-stretch:normal;font-size:192px;line-height:1.25;font-family:sans-serif;-inkscape-font-specification:sans-serif;font-variant-ligatures:normal;font-variant-caps:normal;font-variant-numeric:normal;font-feature-settings:normal;text-align:start;letter-spacing:0px;word-spacing:0px;writing-mode:lr-tb;text-anchor:start;fill:#000000;fill-opacity:1;stroke:none"
       id="flowRoot4195">
      <path
         d="m 9.0976563,191.14203 q 0,-0.46875 0,-0.84375 0,-0.375 0.09375,-0.84375 l -10.21875,-7.96875 h 2.1562499 l 8.5312501,3.46875 q 0.1875,-1.6875 0.4687497,-3.1875 0.375,-1.5 0.84375,-2.8125 l -11.34374975,-6.46875 2.15624995,-0.375 10.4062498,3.84375 q 0.09375,-0.1875 0.1875,-0.46875 0.1875,-0.375 0.65625,-1.125 l -8.9999998,-8.625 h 2.15625 l 8.6249998,6.1875 q 2.625,-3 5.90625,-4.125 3.28125,-1.125 6.75,-1.125 3.09375,0 6.5625,1.03125 3.5625,1.03125 6,2.25 l 2.25,1.125 h 27.84375 q 3.65625,0 11.8125,3.75 8.25,3.65625 10.96875,3.65625 2.25,0 4.40625,-0.9375 2.25,-0.9375 4.031254,-1.875 1.78125,-1.03125 2.8125,-1.40625 1.125,-0.46875 2.4375,-0.46875 3.375,0 7.875,5.625 4.59375,5.53125 4.59375,13.21875 0,7.6875 -4.59375,13.21875 -4.5,5.625 -7.875,5.625 -1.3125,0 -2.34375,-0.375 -1.03125,-0.46875 -2.34375,-1.21875 -2.156254,-1.125 -4.500004,-2.0625 -2.25,-1.03125 -4.5,-1.03125 -2.8125,0 -10.96875,3.75 -8.34375,3.65625 -11.8125,3.65625 h -27.46875 q -3.9375,2.4375 -7.96875,3.84375 -3.9375,1.3125 -7.21875,1.3125 -3.46875,0 -6.75,-1.125 -3.28125,-1.125 -5.90625,-4.125 l -8.6249998,6.1875 h -2.15625 l 8.9999998,-8.625 q -0.46875,-0.75 -0.65625,-1.03125 -0.09375,-0.375 -0.1875,-0.5625 l -10.4062498,3.84375 -2.15624995,-0.375 11.34374975,-6.46875 q -0.46875,-1.3125 -0.84375,-2.8125 -0.2812497,-1.5 -0.4687497,-3.1875 l -8.5312501,3.46875 h -2.1562499 l 10.21875,-7.96875 q 0,-0.46875 0,-0.84375 0,-0.46875 -0.09375,-0.9375 z m 52.1249997,3.46875 h -18.5625 v 15.84375 h 27.46875 q 2.8125,0 11.15625,-3.65625 8.15625,-3.75 11.625,-3.75 3.5625,0 7.593754,2.34375 4.03125,2.34375 5.15625,2.34375 2.71875,0 6.1875,-4.3125 3.46875,-4.3125 3.46875,-10.78125 0,-6.375 -3.46875,-10.6875 -3.5625,-4.40625 -6.1875,-4.40625 -1.125,0 -5.15625,2.34375 -4.031254,2.34375 -7.593754,2.34375 -3.375,0 -11.625,-3.65625 -8.15625,-3.75 -11.15625,-3.75 h -27.46875 v 15.84375 h 18.5625 z m -34.125,20.71875 q 2.90625,0 6.5625,-0.9375 3.65625,-0.9375 6.1875,-2.34375 v -38.4375 l -2.15625,-0.9375 q -2.34375,-1.03125 -4.96875,-1.59375 -2.625,-0.65625 -5.25,-0.65625 -7.96875,0 -11.34375,5.8125 -3.28125,5.71875 -3.28125,16.78125 0,10.96875 3.1875,16.6875 3.28125,5.625 11.0625,5.625 z m 0.28125,-16.125 q 0.75,0 1.3125,0.5625 0.65625,0.46875 1.125,1.21875 0.46875,0.65625 0.75,1.59375 0.28125,0.84375 0.28125,1.5 0,0.75 -0.28125,1.59375 -0.28125,0.84375 -0.75,1.59375 -0.46875,0.65625 -1.125,1.21875 -0.5625,0.46875 -1.3125,0.46875 -0.75,0 -1.40625,-0.46875 -0.5625,-0.5625 -1.03125,-1.21875 -0.46875,-0.75 -0.75,-1.59375 -0.1875,-0.84375 -0.1875,-1.59375 0,-0.65625 0.1875,-1.5 0.28125,-0.9375 0.75,-1.59375 0.46875,-0.75 1.03125,-1.21875 0.65625,-0.5625 1.40625,-0.5625 z m 0,-22.6875 q 0.75,0 1.3125,0.5625 0.65625,0.46875 1.125,1.21875 0.46875,0.65625 0.75,1.59375 0.28125,0.84375 0.28125,1.5 0,0.75 -0.28125,1.59375 -0.28125,0.84375 -0.75,1.59375 -0.46875,0.65625 -1.125,1.21875 -0.5625,0.46875 -1.3125,0.46875 -0.75,0 -1.40625,-0.46875 -0.5625,-0.5625 -1.03125,-1.21875 -0.46875,-0.75 -0.75,-1.59375 -0.1875,-0.84375 -0.1875,-1.59375 0,-0.65625 0.1875,-1.5 0.28125,-0.9375 0.75,-1.59375 0.46875,-0.75 1.03125,-1.21875 0.65625,-0.5625 1.40625,-0.5625 z"
         id="path4203"
         inkscape:connector-curvature="0" />
    </g>
  </g>
</svg>
