<?xml version="1.0" encoding="UTF-8" standalone="no"?>
<!-- Created with Inkscape (http://www.inkscape.org/) -->

<svg
   xmlns:dc="http://purl.org/dc/elements/1.1/"
   xmlns:cc="http://creativecommons.org/ns#"
   xmlns:rdf="http://www.w3.org/1999/02/22-rdf-syntax-ns#"
   xmlns:svg="http://www.w3.org/2000/svg"
   xmlns="http://www.w3.org/2000/svg"
   xmlns:sodipodi="http://sodipodi.sourceforge.net/DTD/sodipodi-0.dtd"
   xmlns:inkscape="http://www.inkscape.org/namespaces/inkscape"
   width="24.184546mm"
   height="36.934177mm"
   viewBox="0 0 24.184546 36.934177"
   version="1.1"
   id="svg4212"
   inkscape:version="0.92.4 (5da689c313, 2019-01-14)"
   sodipodi:docname="L1.svg">
  <defs
     id="defs4206" />
  <sodipodi:namedview
     id="base"
     pagecolor="#ffffff"
     bordercolor="#666666"
     borderopacity="1.0"
     inkscape:pageopacity="0.0"
     inkscape:pageshadow="2"
     inkscape:zoom="0.35"
     inkscape:cx="-383.25987"
     inkscape:cy="-308.72141"
     inkscape:document-units="mm"
     inkscape:current-layer="layer1"
     showgrid="false"
     fit-margin-top="0"
     fit-margin-left="0"
     fit-margin-right="0"
     fit-margin-bottom="0"
     inkscape:window-width="1920"
     inkscape:window-height="1017"
     inkscape:window-x="-8"
     inkscape:window-y="-8"
     inkscape:window-maximized="1" />
  <metadata
     id="metadata4209">
    <rdf:RDF>
      <cc:Work
         rdf:about="">
        <dc:format>image/svg+xml</dc:format>
        <dc:type
           rdf:resource="http://purl.org/dc/dcmitype/StillImage" />
        <dc:title></dc:title>
      </cc:Work>
    </rdf:RDF>
  </metadata>
  <g
     inkscape:label="Layer 1"
     inkscape:groupmode="layer"
     id="layer1"
     transform="translate(-14.091673,-30.216615)">
    <g
       aria-label="𓆣"
       transform="scale(0.26458333)"
       style="font-style:normal;font-variant:normal;font-weight:normal;font-stretch:normal;font-size:192px;line-height:1.25;font-family:sans-serif;-inkscape-font-specification:sans-serif;font-variant-ligatures:normal;font-variant-caps:normal;font-variant-numeric:normal;font-feature-settings:normal;text-align:start;letter-spacing:0px;word-spacing:0px;writing-mode:lr-tb;text-anchor:start;fill:#000000;fill-opacity:1;stroke:none"
       id="flowRoot4760">
      <path
         d="m 62.072266,167.17328 q -5.4375,0 -5.4375,-3 0,-11.0625 10.03125,-26.4375 10.03125,-15.1875 21.75,-23.53125 l 0.375,4.5 q -2.4375,2.25 -4.5,4.3125 -2.0625,2.0625 -4.6875,5.0625 -2.53125,3 -5.34375,6.84375 -5.625,7.78125 -8.90625,15 -3.1875,7.125 -4.40625,12.46875 0.5625,-0.28125 1.6875,-0.75 1.21875,-0.46875 2.4375,-0.9375 1.3125,-0.5625 2.53125,-1.03125 1.21875,-0.5625 1.96875,-0.84375 l 6.375,-2.90625 q 1.21875,-1.21875 2.53125,-2.34375 1.3125,-1.21875 2.25,-1.96875 -0.375,-1.5 -0.375,-3.375 0,-6.5625 5.8125,-11.25 5.8125,-4.6875 13.125,-4.6875 6.187504,0 12.187504,4.3125 6.09375,4.21875 6.09375,11.25 v 0.84375 q 0,1.5 -0.375,2.90625 l 4.03125,3.9375 q 1.78125,0.84375 3.84375,1.78125 2.0625,0.9375 4.03125,1.78125 1.96875,0.84375 3.75,1.59375 1.78125,0.75 3.09375,1.3125 -1.21875,-5.34375 -4.3125,-12.28125 -3.09375,-6.9375 -8.71875,-14.8125 -2.8125,-3.9375 -5.34375,-6.9375 -2.4375,-3.09375 -4.3125,-5.25 -1.875,-2.15625 -4.03125,-4.875 l 0.375,-3.65625 q 10.6875,7.6875 20.53125,23.15625 9.65625,15.28125 9.65625,26.8125 0,3 -4.03125,3 -6.28125,-2.90625 -10.5,-6 0.46875,4.5 0.75,7.40625 0.28125,2.8125 0.28125,4.125 0,3.84375 -1.59375,8.15625 l 0.46875,1.6875 q 5.0625,4.5 9.84375,10.03125 4.78125,5.53125 9.375,12.375 l 0.28125,4.875 -1.78125,0.9375 q -4.3125,-5.90625 -7.78125,-10.78125 -1.5,-2.0625 -3,-4.125 -1.40625,-2.0625 -2.625,-3.75 -1.21875,-1.6875 -2.0625,-2.90625 -0.84375,-1.21875 -1.125,-1.6875 0.375,3.46875 0.75,7.03125 0.28125,3 0.46875,6.46875 0.28125,3.46875 0.28125,6.1875 0,1.3125 -0.0937,2.53125 0,1.21875 -0.0937,2.53125 6.09375,5.8125 6.09375,16.59375 0,13.875 -7.5,24.46875 l -1.6875,0.46875 -1.3125,-1.96875 q 2.8125,-5.71875 4.3125,-11.0625 1.5,-5.34375 1.5,-10.5 0,-3.5625 -0.9375,-6.5625 -0.84375,-3 -2.4375,-5.4375 -4.125,6.375 -14.71875,10.6875 l -11.531254,4.6875 h -0.9375 q -3.9375,-1.59375 -7.5,-3 -3,-1.21875 -6.09375,-2.34375 -3,-1.125 -4.59375,-1.78125 -6.28125,-2.34375 -8.71875,-9.09375 -3.375,4.21875 -3.375,11.15625 0,9.65625 6.65625,23.25 l -1.3125,1.96875 -1.6875,-0.46875 q -8.34375,-11.4375 -8.34375,-24.84375 0,-10.78125 6.75,-16.40625 -0.1875,-1.5 -0.28125,-3 -0.09375,-1.5 -0.09375,-3.09375 v -5.90625 q 0,-3 0.09375,-5.8125 0.1875,-2.90625 0.84375,-5.8125 -3,3.9375 -7.03125,9.375 -3.9375,5.4375 -8.8125,12.75 l -1.6875,-0.75 v -2.4375 q 0,-6.5625 18.5625,-25.125 v -1.21875 q -1.40625,-4.3125 -1.40625,-8.34375 0,-2.4375 0.46875,-5.34375 0.5625,-3 1.6875,-6.09375 z m 20.71875,-13.40625 -3.46875,3.09375 q -3.09375,2.90625 -3.46875,4.21875 -0.1875,0.65625 -0.65625,1.96875 -0.375,1.3125 -0.9375,3.28125 -1.03125,4.125 -1.03125,6.5625 0,3.1875 1.125,6.375 7.6875,0 15.75,6.375 4.03125,3.1875 6.1875,4.875 2.25,1.6875 2.625,1.96875 l 5.156254,-4.21875 q 3,-2.53125 5.8125,-4.21875 2.8125,-1.6875 5.15625,-2.71875 2.4375,-1.03125 4.21875,-1.5 1.875,-0.46875 2.90625,-0.46875 0.75,-1.6875 1.03125,-3.375 0.28125,-1.78125 0.28125,-3.9375 0,-3.375 -0.75,-7.125 l -0.9375,-4.59375 -3.28125,-3.28125 q -1.6875,-1.59375 -3.28125,-3.28125 -3.75,0.84375 -7.875,1.21875 -4.125,0.375 -8.343754,0.375 -4.21875,0 -8.4375,-0.375 -4.125,-0.375 -7.78125,-1.21875 z m 14.71875,41.4375 q -2.34375,-1.875 -3.9375,-3.09375 -1.59375,-1.3125 -2.90625,-2.25 -1.21875,-0.9375 -2.34375,-1.6875 -1.125,-0.84375 -2.4375,-1.6875 -5.25,-3.5625 -10.96875,-4.125 0,0.84375 0.09375,1.3125 0,1.21875 -0.28125,2.0625 l -0.9375,3.09375 q -0.65625,2.0625 -0.84375,5.0625 -0.1875,3 -0.1875,5.53125 0,4.40625 0.28125,8.34375 l 0.28125,3.9375 q 0.46875,6.65625 4.40625,9.75 3.9375,3.09375 11.71875,5.8125 l 8.0625,2.71875 z m 3.000004,-0.0937 v 34.78125 l 13.59375,-5.8125 q 3.5625,-1.59375 6.1875,-4.03125 2.8125,-2.625 3.5625,-5.71875 0.84375,-3.1875 0.84375,-7.21875 0,-4.21875 -0.5625,-12 -0.1875,-3.9375 -0.75,-7.03125 -0.5625,-3.1875 -1.3125,-5.71875 h -0.0937 q -3.84375,0.46875 -6.84375,2.15625 -3,1.59375 -6.5625,4.03125 z m -16.875004,-44.25 q 7.21875,1.5 15.28125,1.5 7.968754,0 15.375004,-1.5 0.0937,-0.5625 0.0937,-1.125 0.0937,-0.5625 0.0937,-1.03125 0,-5.625 -4.5,-9.46875 -4.5,-3.9375 -10.406254,-3.9375 -6.5625,0 -11.4375,3.84375 -4.78125,3.84375 -4.78125,9.1875 0,1.3125 0.28125,2.53125 z"
         id="path4768"
         inkscape:connector-curvature="0" />
    </g>
  </g>
</svg>
