<?xml version="1.0" encoding="UTF-8" standalone="no"?>
<!-- Created with Inkscape (http://www.inkscape.org/) -->

<svg
   xmlns:dc="http://purl.org/dc/elements/1.1/"
   xmlns:cc="http://creativecommons.org/ns#"
   xmlns:rdf="http://www.w3.org/1999/02/22-rdf-syntax-ns#"
   xmlns:svg="http://www.w3.org/2000/svg"
   xmlns="http://www.w3.org/2000/svg"
   xmlns:sodipodi="http://sodipodi.sourceforge.net/DTD/sodipodi-0.dtd"
   xmlns:inkscape="http://www.inkscape.org/namespaces/inkscape"
   width="36.388477mm"
   height="37.70311mm"
   viewBox="0 0 36.388477 37.70311"
   version="1.1"
   id="svg4777"
   inkscape:version="0.92.4 (5da689c313, 2019-01-14)"
   sodipodi:docname="L2.svg">
  <defs
     id="defs4771" />
  <sodipodi:namedview
     id="base"
     pagecolor="#ffffff"
     bordercolor="#666666"
     borderopacity="1.0"
     inkscape:pageopacity="0.0"
     inkscape:pageshadow="2"
     inkscape:zoom="0.35"
     inkscape:cx="-374.6875"
     inkscape:cy="-284.55154"
     inkscape:document-units="mm"
     inkscape:current-layer="layer1"
     showgrid="false"
     fit-margin-top="0"
     fit-margin-left="0"
     fit-margin-right="0"
     fit-margin-bottom="0"
     inkscape:window-width="1920"
     inkscape:window-height="1017"
     inkscape:window-x="-8"
     inkscape:window-y="-8"
     inkscape:window-maximized="1" />
  <metadata
     id="metadata4774">
    <rdf:RDF>
      <cc:Work
         rdf:about="">
        <dc:format>image/svg+xml</dc:format>
        <dc:type
           rdf:resource="http://purl.org/dc/dcmitype/StillImage" />
        <dc:title></dc:title>
      </cc:Work>
    </rdf:RDF>
  </metadata>
  <g
     inkscape:label="Layer 1"
     inkscape:groupmode="layer"
     id="layer1"
     transform="translate(-11.823568,-35.842627)">
    <g
       aria-label="𓆤"
       transform="scale(0.26458333)"
       style="font-style:normal;font-variant:normal;font-weight:normal;font-stretch:normal;font-size:192px;line-height:1.25;font-family:sans-serif;-inkscape-font-specification:sans-serif;font-variant-ligatures:normal;font-variant-caps:normal;font-variant-numeric:normal;font-feature-settings:normal;text-align:start;letter-spacing:0px;word-spacing:0px;writing-mode:lr-tb;text-anchor:start;fill:#000000;fill-opacity:1;stroke:none"
       id="flowRoot5325">
      <path
         d="m 69.34375,224.5307 q -0.65625,-3.84375 -2.25,-7.96875 -1.59375,-4.21875 -4.03125,-8.8125 -4.96875,-9.375 -4.96875,-19.03125 v -6 l 3.1875,-0.28125 v 9.28125 q 0.84375,7.96875 3.65625,13.125 0.84375,1.59375 1.875,3.65625 1.125,2.0625 2.0625,4.3125 1.03125,2.15625 1.78125,4.40625 0.75,2.15625 1.125,4.125 l 1.5,8.53125 q 1.3125,0.46875 2.53125,1.59375 1.21875,1.125 2.25,4.5 1.5,-3.28125 3.84375,-5.71875 2.4375,-2.53125 6,-4.03125 l 3.46875,-1.125 q 0,-0.375 0,-0.84375 0,-0.5625 -0.09375,-1.21875 0,-9.09375 3.9375,-30.65625 3.9375,-21.46875 11.53125,-39.1875 7.6875,-17.71875 16.3125,-17.71875 0.46875,0 1.03125,0.0937 0.5625,0 1.03125,0.0937 0.28125,0.1875 1.03125,0.9375 0.375,1.5 0.46875,3.1875 0.1875,1.59375 0.1875,3.28125 0,2.625 -0.46875,6.375 -0.375,3.65625 -1.125,8.625 -0.75,4.96875 -1.125,10.125 -0.375,5.0625 -0.375,10.40625 0,6.28125 0.5625,12.46875 l 8.4375,-9.5625 q 13.03125,-14.71875 23.8125,-21.375 10.875,-6.75 19.96875,-6.75 1.125,0 2.25,0.1875 1.21875,0.0937 2.34375,0.28125 l 1.125,1.40625 q -0.46875,3 -2.4375,6.5625 -1.875,3.5625 -4.6875,7.5 l -2.90625,4.125 q -6.375,8.8125 -11.8125,16.21875 -5.4375,7.3125 -10.125,13.21875 -9.28125,11.8125 -13.40625,20.8125 l -1.96875,0.9375 q -4.78125,-1.59375 -9.75,-2.34375 l -2.90625,-0.375 q -0.75,0 -1.40625,0 -0.65625,0 -1.3125,-0.0937 -2.8125,0 -5.25,0.84375 -2.34375,0.75 -3.46875,1.78125 -0.1875,0.0937 -0.1875,0.375 0,0.9375 3.5625,2.15625 4.59375,1.59375 7.59375,6.65625 1.59375,-2.4375 3.84375,-3.375 2.25,-0.9375 4.96875,-0.9375 3.5625,0 7.78125,1.03125 4.21875,1.03125 8.25,2.625 4.125,1.59375 7.6875,3.46875 3.65625,1.875 6.1875,3.5625 10.03125,6.65625 14.90625,14.4375 5.0625,7.875 5.34375,11.15625 v 0.65625 q 0,4.78125 -2.0625,8.25 -2.0625,3.46875 -5.25,3.46875 -1.21875,0 -2.34375,-0.375 l -0.75,-2.15625 q 1.03125,-2.15625 1.78125,-4.21875 0.84375,-2.15625 1.125,-4.59375 -5.4375,-1.875 -12.28125,-2.625 -3.28125,-0.375 -5.625,-0.5625 -2.25,-0.28125 -3.5625,-0.375 -1.3125,-0.0937 -3.46875,-0.46875 -2.0625,-0.375 -3.65625,-0.9375 0.65625,1.5 1.6875,3.375 1.03125,1.875 2.15625,3.65625 1.125,1.6875 2.90625,3 1.78125,1.21875 3.84375,2.15625 2.15625,0.84375 4.40625,1.40625 2.34375,0.5625 4.5,0.9375 v 1.5 q -5.90625,-0.9375 -9.5625,-2.15625 -3.5625,-1.21875 -6,-3.09375 -2.34375,-1.96875 -4.03125,-4.78125 -1.6875,-2.90625 -3.65625,-7.21875 l -4.125,-1.40625 q -8.34375,-2.71875 -12,-6.75 -3.75,-4.125 -4.03125,-6.65625 -0.75,0.75 -1.40625,1.5 -0.65625,0.75 -1.40625,1.5 -0.75,0.75 -2.25,1.96875 -1.40625,1.21875 -3.1875,2.25 0.28125,1.96875 0.5625,3.5625 0.28125,1.5 0.46875,2.53125 0.28125,1.21875 0.375,2.15625 l -4.59375,13.59375 h 0.75 v 3 h -51.75 l 3,-3 h 21.1875 l 6,-13.6875 -2.71875,-7.2187 q -5.0625,-2.625 -7.5,-6.46875 l -0.09375,0.5625 q -0.65625,2.90625 -1.21875,5.8125 -0.5625,2.8125 -2.34375,5.25 l -2.53125,-0.1875 q -2.4375,-3.5625 -3.9375,-6.28125 -1.5,-2.71875 -2.15625,-4.59375 -1.21875,-3.65625 -1.21875,-6.75 v -1.21875 q 0.09375,-1.59375 1.3125,-4.6875 0.65625,-1.59375 0.9375,-2.4375 0.375,-0.9375 0.5625,-1.21875 l -1.59375,-2.8125 q -0.1875,-0.46875 -10.125,-15.65625 -9.75,-15.1875 -11.15625,-27.375 l 3,-0.28125 q 0,2.0625 2.25,9.46875 2.25,7.5 9.375,18.09375 7.3125,10.6875 10.59375,16.5 h 0.28125 z m 55.125,-29.0625 q -4.3125,4.5 -7.78125,8.34375 -3.375,3.75 -6.09375,7.03125 -5.25,6.46875 -10.21875,13.875 H 106 q 3,-3.375 6.65625,-4.6875 3.65625,-1.40625 7.875,-1.40625 3.5625,0 7.125,0.84375 3.65625,0.75 7.03125,1.875 3.75,-8.15625 13.6875,-21.09375 5.0625,-6.46875 9.84375,-12.84375 4.875,-6.46875 9.65625,-13.03125 9.5625,-13.125 10.96875,-17.90625 -0.65625,0 -1.3125,0 -0.5625,0 -1.21875,-0.0937 -8.71875,0 -19.96875,7.78125 -11.25,7.78125 -23.90625,22.21875 z m -23.625,23.25 q 3.75,-5.0625 6.9375,-9.09375 3.28125,-4.03125 6.1875,-7.21875 2.90625,-3.28125 4.5,-5.0625 1.6875,-1.78125 2.0625,-2.15625 l 1.125,-1.125 q -0.46875,-3.9375 -0.75,-7.78125 -0.1875,-3.84375 -0.1875,-7.78125 0,-5.625 0.375,-10.6875 0.375,-5.0625 1.125,-9.84375 0.75,-4.78125 1.125,-8.34375 0.46875,-3.65625 0.46875,-6.28125 0,-1.3125 -0.0937,-2.53125 -0.0937,-1.21875 -0.28125,-2.34375 h -0.28125 q -7.03125,0 -14.25,17.34375 -3.5625,8.71875 -6.28125,18.09375 -2.625,9.28125 -4.5,19.40625 -3.65625,20.15625 -3.65625,31.5 l 2.25,-0.0937 z m -10.40625,55.96875 6,-13.59375 -1.3125,-5.34375 q -1.78125,-0.0937 -3,-0.28125 -1.21875,-0.1875 -3.09375,-0.84375 l 2.53125,6.46875 -6.09375,13.59375 z m 13.59375,-13.59375 -1.125,-5.8125 q -1.59375,0.375 -2.625,0.46875 -0.9375,0 -2.0625,0 l 1.3125,5.34375 -6.1875,13.59375 h 4.59375 z m 6.75,-0.1875 -1.21875,-7.21875 -3.9375,1.03125 1.40625,6.375 -6,13.59375 h 5.25 z m -13.6875,-7.78125 q 3.375,0 6.84375,-0.65625 3.46875,-0.65625 6.9375,-2.625 5.625,-3.1875 9.28125,-8.8125 v -3.75 q -0.5625,-2.15625 -2.25,-4.03125 -1.40625,-1.59375 -4.125,-3.09375 -2.625,-1.59375 -7.21875,-2.34375 H 93.25 q -4.96875,0 -9.46875,4.78125 -4.3125,4.59375 -4.3125,10.03125 0.5625,1.5 1.03125,2.53125 0.5625,1.03125 1.3125,1.875 0.75,0.84375 1.78125,1.6875 1.125,0.75 2.71875,1.875 0.375,0.28125 3.09375,1.40625 2.71875,1.125 7.6875,1.125 z m 58.6875,7.5 6.5625,0.75 q 3.1875,0.375 6.375,1.03125 3.28125,0.65625 6.375,1.78125 l 1.125,1.40625 q 0,2.4375 -0.75,4.78125 -0.65625,2.34375 -1.59375,4.5 0.9375,-0.28125 1.59375,-1.125 0.75,-0.84375 1.21875,-2.0625 0.5625,-1.3125 0.75,-2.8125 0.28125,-1.5 0.28125,-3 -5.53125,-15.75 -21.28125,-24.65625 -15.84375,-8.90625 -25.96875,-8.90625 -3.375,0 -5.34375,1.875 -1.96875,1.875 -1.96875,3.9375 l 0.0937,0.5625 v 1.78125 q 5.34375,1.96875 8.71875,4.3125 3.46875,2.34375 5.625,4.78125 2.25,2.34375 3.46875,4.59375 1.3125,2.25 2.15625,4.125 1.21875,0.46875 2.8125,0.84375 1.6875,0.28125 3.375,0.65625 1.78125,0.28125 3.375,0.5625 1.6875,0.1875 3,0.28125 z M 76.375,241.5932 75.71875,238.7807 q -0.75,-3.09375 -1.875,-4.6875 -1.125,-1.6875 -3,-1.78125 -0.75,0.84375 -1.21875,2.15625 l -0.9375,2.34375 q -0.84375,2.25 -0.84375,4.5 0,3.75 1.6875,7.3125 1.6875,3.5625 3.75,6.65625 1.3125,-3 1.6875,-6.28125 0.375,-3.28125 1.40625,-6.28125 z m 46.875,2.0625 q 0.65625,2.8125 2.0625,4.96875 1.5,2.0625 3.5625,3.65625 2.15625,1.59375 4.78125,2.8125 2.71875,1.125 5.71875,1.96875 -1.59375,-2.625 -3.9375,-5.0625 -1.96875,-2.15625 -4.96875,-4.40625 -3,-2.34375 -7.21875,-3.9375 z m -52.125,-2.25 q -1.5,-1.5 -1.5,-2.25 0,-0.75 1.5,-0.75 1.5,0 1.5,0.75 0,0.75 -1.5,2.25 z"
         id="path5333"
         inkscape:connector-curvature="0" />
    </g>
  </g>
</svg>
