<?xml version="1.0" encoding="UTF-8" standalone="no"?>
<!-- Created with Inkscape (http://www.inkscape.org/) -->

<svg
   xmlns:dc="http://purl.org/dc/elements/1.1/"
   xmlns:cc="http://creativecommons.org/ns#"
   xmlns:rdf="http://www.w3.org/1999/02/22-rdf-syntax-ns#"
   xmlns:svg="http://www.w3.org/2000/svg"
   xmlns="http://www.w3.org/2000/svg"
   xmlns:sodipodi="http://sodipodi.sourceforge.net/DTD/sodipodi-0.dtd"
   xmlns:inkscape="http://www.inkscape.org/namespaces/inkscape"
   width="28.723827mm"
   height="38.025585mm"
   viewBox="0 0 28.723827 38.025585"
   version="1.1"
   id="svg7891"
   inkscape:version="0.92.4 (5da689c313, 2019-01-14)"
   sodipodi:docname="L3.svg">
  <defs
     id="defs7885" />
  <sodipodi:namedview
     id="base"
     pagecolor="#ffffff"
     bordercolor="#666666"
     borderopacity="1.0"
     inkscape:pageopacity="0.0"
     inkscape:pageshadow="2"
     inkscape:zoom="0.35"
     inkscape:cx="-331.83008"
     inkscape:cy="-397.89914"
     inkscape:document-units="mm"
     inkscape:current-layer="layer1"
     showgrid="false"
     fit-margin-top="0"
     fit-margin-left="0"
     fit-margin-right="0"
     fit-margin-bottom="0"
     inkscape:window-width="1920"
     inkscape:window-height="1017"
     inkscape:window-x="-8"
     inkscape:window-y="-8"
     inkscape:window-maximized="1" />
  <metadata
     id="metadata7888">
    <rdf:RDF>
      <cc:Work
         rdf:about="">
        <dc:format>image/svg+xml</dc:format>
        <dc:type
           rdf:resource="http://purl.org/dc/dcmitype/StillImage" />
        <dc:title></dc:title>
      </cc:Work>
    </rdf:RDF>
  </metadata>
  <g
     inkscape:label="Layer 1"
     inkscape:groupmode="layer"
     id="layer1"
     transform="translate(-0.48420816,-5.5302668)">
    <g
       aria-label="𓆦"
       transform="scale(0.26458333)"
       style="font-style:normal;font-variant:normal;font-weight:normal;font-stretch:normal;font-size:192px;line-height:1.25;font-family:sans-serif;-inkscape-font-specification:'sans-serif, Normal';font-variant-ligatures:normal;font-variant-caps:normal;font-variant-numeric:normal;font-feature-settings:normal;text-align:start;letter-spacing:0px;word-spacing:0px;writing-mode:lr-tb;text-anchor:start;fill:#000000;fill-opacity:1;stroke:none"
       id="flowRoot8436">
      <path
         d="m 75.330078,49.964296 q 8.25,19.03125 14.90625,34.40625 2.8125,6.5625 5.53125,12.9375 2.8125,6.375004 5.062502,11.531254 2.25,5.15625 3.75,8.625 1.5,3.46875 1.78125,4.125 0.65625,1.40625 1.3125,3.65625 0.75,2.15625 1.3125,4.78125 0.65625,2.53125 1.03125,5.4375 0.375,2.8125 0.375,5.4375 0,5.625 -0.9375,10.03125 -0.9375,4.3125 -3.09375,7.3125 -2.15625,3 -5.625,4.59375 -3.375002,1.59375 -8.437502,1.59375 -6.46875,0 -11.625,-3 -5.15625,-3.09375 -9.09375,-8.34375 -3.9375,-5.25 -6.84375,-12.09375 -2.8125,-6.9375 -4.59375,-14.71875 l -3,-12.5625 q -0.1875,-0.84375 -0.9375,-0.84375 -0.65625,0 -0.9375,0.84375 l -3.09375,13.21875 q -0.84375,3.65625 -2.34375,7.875 -1.5,4.125 -3.5625,8.34375 -2.0625,4.125 -4.6875,8.0625 -2.625,3.84375 -5.8125,6.84375 -3.09375,3 -6.75,4.78125 -3.65625,1.78125 -7.78125,1.78125 -4.875,0 -8.53125,-1.59375 -3.5624999,-1.59375 -5.9999999,-4.40625 -2.4375,-2.90625 -3.65625,-6.9375 -1.21875,-4.125 -1.21875,-9.09375 0,-1.5 0.09375,-3.75 0.1875,-2.25 0.46875,-4.59375 0.28125,-2.4375 0.75,-4.78125 0.46875,-2.34375 1.21875,-4.125 0.28125,-0.5625 1.78125,-4.03125 1.59375,-3.46875 3.9374999,-8.8125 2.34375,-5.34375 5.25,-12 3,-6.656254 6,-13.500004 7.125,-16.125 15.9375,-36.09375 -0.28125,-1.21875 -0.5625,-2.625 -0.28125,-1.40625 -0.65625,-3.09375 -0.65625,-3.1875 -0.65625,-5.0625 0,-9.375 5.8125,-14.34375 3,-2.4375 6.65625,-3.65625 3.65625,-1.21875 8.625,-1.21875 4.6875,0 8.15625,1.3125 3.46875,1.21875 6.46875,3.5625 6.1875,4.6875 6.1875,12.375 0,1.3125 -0.1875,2.71875 -0.09375,1.40625 -0.5625,3 z m -15.375,62.812504 q 1.03125,4.78125 1.96875,8.8125 1.03125,4.03125 1.875,7.3125 1.21875,4.6875 3.5625,10.40625 2.34375,5.625 5.8125,10.59375 3.46875,4.875 8.0625,8.25 4.6875,3.28125 10.5,3.28125 4.3125,0 7.3125,-1.40625 3.000002,-1.40625 4.875002,-3.9375 1.875,-2.53125 2.71875,-6 0.9375,-3.46875 0.9375,-7.59375 0,-3.375 -0.75,-8.625 -0.65625,-5.25 -3.5625,-11.90625 l -28.968752,-67.031254 -3.75,23.71875 q -0.75,2.4375 -2.25,4.59375 -1.40625,2.15625 -3.28125,3.75 -1.875,1.59375 -3.9375,2.625 -2.0625,0.9375 -3.84375,0.9375 h -0.75 q -4.03125,-0.84375 -6.46875,-2.34375 -2.4375,-1.59375 -4.03125,-3.9375 -1.5,-2.4375 -2.4375,-5.625 -0.9375,-3.1875 -1.96875,-7.3125 -1.03125,-4.21875 -1.875,-7.96875 -0.75,-3.84375 -1.40625,-7.40625 -8.71875,19.875 -15.65625,35.53125 -3,6.65625 -5.8125,13.125004 -2.8125,6.46875 -5.0625,11.53125 -2.2499999,5.0625 -3.6562499,8.25 -1.40625,3.1875 -1.40625,3.28125 -0.375,0.9375 -0.75,2.8125 -0.28125,1.78125 -0.5625,3.9375 -0.28125,2.0625 -0.46875,4.125 -0.09375,2.0625 -0.09375,3.46875 0,4.3125 0.9375,7.96875 0.9375,3.5625 2.90625,6.1875 1.9687499,2.53125 5.0624999,3.9375 3.09375,1.40625 7.3125,1.40625 4.40625,0 8.625,-2.8125 4.3125,-2.8125 8.0625,-7.5 3.75,-4.6875 6.5625,-10.78125 2.90625,-6.09375 4.5,-12.75 l 3.65625,-15.09375 q 0.46875,-1.3125 1.5,-1.96875 1.125,-0.75 1.875,-0.75 1.03125,0 1.875,0.46875 0.84375,0.46875 1.3125,1.03125 0.5625,0.65625 0.9375,1.40625 z m 13.40625,-68.062504 q -8.15625,-1.78125 -12,-6.75 -3.75,-4.96875 -4.3125,-14.0625 -0.5625,0 -0.84375,-0.09375 h -0.84375 q -0.5625,9.1875 -4.3125,14.15625 -3.75,4.96875 -12,6.75 0.65625,3.28125 1.6875,8.4375 0.9375,5.25 1.40625,6.75 l 1.59375,7.875 q 0.46875,2.0625 0.9375,4.21875 0.46875,2.15625 0.9375,4.3125 2.25,-1.21875 5.15625,-1.96875 3,-0.75 6.28125,-0.75 2.71875,0 5.4375,0.5625 2.71875,0.5625 5.4375,1.96875 z m -13.21875,-20.4375 q 0.28125,4.125 1.21875,7.125 1.03125,2.90625 2.71875,4.96875 1.6875,2.0625 4.125,3.375 2.4375,1.3125 5.71875,2.0625 0.09375,-0.46875 0.09375,-0.75 0.09375,-0.375 0.09375,-0.5625 0.09375,-0.5625 0.09375,-1.125 0.09375,-0.5625 0.09375,-1.125 0,-5.4375 -3.84375,-9.09375 -3.84375,-3.65625 -10.3125,-4.875 z m 2.53125,60.84375 q 1.21875,-1.03125 2.34375,-2.53125 1.21875,-1.5 2.0625,-3.5625 -1.875,-0.75 -4.5,-1.40625 -2.53125,-0.65625 -5.625,-0.65625 -2.25,0 -4.78125,0.46875 -2.53125,0.46875 -5.34375,1.6875 1.03125,2.4375 1.96875,3.84375 1.03125,1.40625 2.0625,2.25 1.59375,-0.65625 3,-0.84375 1.5,-0.28125 3.09375,-0.28125 2.0625,0 3.375,0.28125 1.3125,0.28125 2.34375,0.75 z m -5.71875,-20.34375 3,-18.1875 3,0.28125 -3,18.1875 z m 6,0 3,-18.1875 3,0.28125 -3,18.1875 z m -16.59375,0 -3,-18.1875 3,-0.28125 3,18.1875 z m 6,0 -3,-18.1875 3,-0.28125 3,18.1875 z m -13.875,-24.28125 q 0,0.1875 0,0.5625 0.09375,0.28125 0.1875,0.75 3.28125,-0.75 5.71875,-2.0625 2.4375,-1.3125 4.125,-3.375 1.6875,-2.0625 2.625,-4.96875 1.03125,-3 1.3125,-7.125 -6.46875,1.21875 -10.3125,4.875 -3.84375,3.65625 -3.84375,9.09375 0,0.5625 0,1.125 0.09375,0.5625 0.1875,1.125 z"
         id="path8444"
         inkscape:connector-curvature="0" />
    </g>
  </g>
</svg>
