<?xml version="1.0" encoding="UTF-8" standalone="no"?>
<!-- Created with Inkscape (http://www.inkscape.org/) -->

<svg
   xmlns:dc="http://purl.org/dc/elements/1.1/"
   xmlns:cc="http://creativecommons.org/ns#"
   xmlns:rdf="http://www.w3.org/1999/02/22-rdf-syntax-ns#"
   xmlns:svg="http://www.w3.org/2000/svg"
   xmlns="http://www.w3.org/2000/svg"
   xmlns:sodipodi="http://sodipodi.sourceforge.net/DTD/sodipodi-0.dtd"
   xmlns:inkscape="http://www.inkscape.org/namespaces/inkscape"
   width="37.827141mm"
   height="18.181831mm"
   viewBox="0 0 37.827141 18.181831"
   version="1.1"
   id="svg8453"
   inkscape:version="0.92.4 (5da689c313, 2019-01-14)"
   sodipodi:docname="L4.svg">
  <defs
     id="defs8447" />
  <sodipodi:namedview
     id="base"
     pagecolor="#ffffff"
     bordercolor="#666666"
     borderopacity="1.0"
     inkscape:pageopacity="0.0"
     inkscape:pageshadow="2"
     inkscape:zoom="0.35"
     inkscape:cx="-391.83036"
     inkscape:cy="-374.28572"
     inkscape:document-units="mm"
     inkscape:current-layer="layer1"
     showgrid="false"
     fit-margin-top="0"
     fit-margin-left="0"
     fit-margin-right="0"
     fit-margin-bottom="0"
     inkscape:window-width="1920"
     inkscape:window-height="1017"
     inkscape:window-x="-8"
     inkscape:window-y="-8"
     inkscape:window-maximized="1" />
  <metadata
     id="metadata8450">
    <rdf:RDF>
      <cc:Work
         rdf:about="">
        <dc:format>image/svg+xml</dc:format>
        <dc:type
           rdf:resource="http://purl.org/dc/dcmitype/StillImage" />
        <dc:title></dc:title>
      </cc:Work>
    </rdf:RDF>
  </metadata>
  <g
     inkscape:label="Layer 1"
     inkscape:groupmode="layer"
     id="layer1"
     transform="translate(-16.359282,-31.621738)">
    <g
       aria-label="𓆧"
       style="font-style:normal;font-variant:normal;font-weight:normal;font-stretch:normal;font-size:50.79999924px;line-height:1.25;font-family:sans-serif;-inkscape-font-specification:'sans-serif, Normal';font-variant-ligatures:normal;font-variant-caps:normal;font-variant-numeric:normal;font-feature-settings:normal;text-align:start;letter-spacing:0px;word-spacing:0px;writing-mode:lr-tb;text-anchor:start;fill:#000000;fill-opacity:1;stroke:none;stroke-width:0.26458332"
       id="text9000">
      <path
         d="m 43.942094,49.158648 v 0.644922 l -4.39043,-0.79375 q -2.108398,-0.694531 -2.406055,-2.406055 l -0.272851,-1.53789 -2.182813,-0.79375 q -1.091406,-0.372071 -2.207617,-0.79375 -0.843359,0.917773 -1.562695,1.16582 v 0.768945 l -0.744141,2.182813 H 30.746 v 0.595312 H 16.756157 l 0.79375,-0.595312 h 4.018359 l 0.79375,-2.182813 -0.347266,-3.050976 q -0.347265,-0.272852 -0.644922,-0.570508 -0.272851,-0.322461 -0.446484,-0.644922 -0.917773,0.42168 -1.612305,1.736328 -0.694531,1.314649 -1.785937,1.314649 l -0.37207,-0.47129 q 0,-1.314648 0.272851,-2.455664 0.272852,-1.141015 0.892969,-2.257226 -1.041797,-2.331641 -1.488281,-3.795117 -0.42168,-1.463477 -0.471289,-2.778125 v -0.173633 h 0.79375 v 0.248047 q 0,0.496094 0.09922,0.917773 l 0.223242,0.917774 q 0.272852,1.066601 0.644922,2.108398 0.372071,1.016992 0.79375,1.984375 0.223242,-0.09922 0.446485,-0.09922 0.07441,0 0.173632,0.02481 -0.07441,-1.661914 -0.595312,-3.447851 -0.496094,-1.785938 -0.173633,-3.199805 l 0.768945,0.198437 q -0.07441,0.272852 -0.09922,0.520899 -0.02481,0.223242 -0.02481,0.471289 0,0.669726 0.347266,2.033984 0.37207,1.364258 0.644922,3.795117 0.223242,0.07441 0.396875,0.223243 0.173632,0.124023 0.347265,0.297656 1.240234,-1.091406 2.629297,-1.661914 1.413867,-0.595313 3.224609,-0.595313 0.892969,0 1.761133,0.173633 0.892969,0.173633 1.711523,0.520898 l 3.249415,-5.903515 q 0.173632,-0.173633 0.520898,-0.173633 0.272851,0 0.744141,0.173633 0.496093,0.148828 0.496093,0.347266 v 0.04961 l 0.84336,5.035351 q 2.554882,-0.719336 4.588867,-1.066601 2.058789,-0.347266 3.795117,-0.347266 1.95957,0 3.844726,0.471289 1.909961,0.471289 4.01836,1.5875 v 0.644922 l -1.364258,0.768945 q -0.669727,0.396875 -1.364258,0.768946 1.141016,0.223242 2.257227,0.595312 1.141015,0.347266 2.083593,0.818555 -0.04961,0.173633 -0.04961,0.347266 0,0.173632 -0.07441,0.37207 -2.083594,0.297656 -3.869531,0.79375 -1.785938,0.471289 -3.026172,0.942578 l -0.942578,0.347266 0.322461,0.173632 q 1.215429,0.669727 1.686718,1.314649 0.496094,0.644922 0.496094,1.389062 0,0.694532 -0.446484,1.066602 -0.446485,0.37207 -1.091406,0.37207 -0.471289,0 -0.942578,-0.148828 L 45.40557,48.16646 q -1.934765,-0.719335 -3.869531,-1.413867 l -3.869531,-1.389062 0.223242,1.240234 q 0.396875,1.265039 2.058789,1.835547 z m -14.634766,-9.351367 0.79375,-1.438672 q -0.719336,-0.297656 -1.488281,-0.42168 -0.768945,-0.148828 -1.562695,-0.148828 -1.537891,0 -2.926953,0.520899 -1.364258,0.496093 -2.654102,1.736328 h -0.297656 l -0.297656,0.04961 Q 20.600883,39.832087 20.328031,39.633649 20.079985,39.410407 19.931156,39.410407 L 19.534281,39.16236 19.410258,39.11275 h -0.09922 q -0.79375,0.868164 -1.041797,1.984375 -0.223242,1.091406 -0.322461,2.207617 0.47129,-0.248047 0.868165,-0.992188 0.421679,-0.768945 0.719335,-1.141015 0.297657,-0.396875 1.463477,-0.942578 0.124023,0.09922 0.272852,0.198437 0.148828,0.07441 0.272851,0.173633 0,0.272851 0.496094,0.74414 0.520898,0.446485 1.761133,1.21543 l 0.719336,0.471289 q 0.496093,0.148828 0.967382,0.347266 l 0.942578,0.42168 h 4.440039 q 0.322461,-0.09922 0.84336,-0.669727 0.520898,-0.570508 0.520898,-1.488281 v -0.223242 q -0.04961,-0.372071 -0.148828,-0.719336 -0.07441,-0.372071 -0.124023,-0.768946 v -0.347265 q -0.248047,-0.223242 -0.520899,-0.42168 -0.248047,-0.223242 -0.545703,-0.396875 l -0.545703,1.041797 z m 15.850195,3.96875 q 1.860352,-0.644922 3.695899,-1.190625 1.835547,-0.570508 3.745507,-0.942578 -2.356445,-0.892969 -7.218164,-1.438672 -4.836914,-0.570508 -8.656835,-0.570508 l 0.148828,0.917773 q 1.240234,0.396875 4.440039,1.661915 3.224609,1.265039 3.844726,1.562695 z m 2.703711,-4.067969 0.818555,0.09922 q 0.719336,-0.42168 1.413867,-0.79375 0.719336,-0.396875 1.438672,-0.818555 -1.661914,-0.868164 -3.323828,-1.240234 -1.661914,-0.37207 -3.373438,-0.37207 -1.810742,0 -3.869531,0.396875 -2.058789,0.37207 -4.514453,1.041796 l 0.148828,0.818555 q 3.844727,0 7.441406,0.42168 3.621485,0.421679 3.819922,0.446483 z m -1.513086,7.9375 q 0.396875,0.148828 0.79375,0.148828 0.471289,0 0.620117,-0.173633 0.173633,-0.198437 0.173633,-0.669726 -0.496094,-1.289844 -2.257226,-2.033985 -1.761133,-0.768945 -1.934766,-0.843359 L 41.039945,42.957476 39.204398,42.23814 37.964164,41.766851 37.021586,41.44439 37.51768,44.470562 q 1.984375,0.694531 4.464843,1.612305 2.505274,0.917773 3.671094,1.339453 z M 34.417094,32.539508 q -0.223242,0 -0.471289,0.471289 l -2.678907,5.08496 0.372071,0.223243 0.347265,0.248047 q 0.868164,-0.322461 1.761133,-0.595313 l 1.785938,-0.520898 -0.768946,-4.440039 q 0,-0.223243 -0.124023,-0.347266 -0.124024,-0.124023 -0.223242,-0.124023 z m -1.389063,8.483203 0.04961,0.520898 q 0,0.148828 -0.02481,0.272852 v 0.248046 l -0.02481,0.173633 q 0,0.09922 -0.04961,0.223242 -0.04961,0.09922 -0.09922,0.322461 l 3.844727,1.389063 -0.545703,-3.001367 q -0.79375,-0.272852 -1.612305,-0.471289 -0.818555,-0.223243 -1.661914,-0.396875 0,0.198437 0.04961,0.37207 0.07441,0.148828 0.07441,0.347266 z m -9.078515,6.573242 0.396875,-2.604493 v -1.16582 q -0.148828,0 -0.272852,-0.124023 l -0.595312,-0.372071 q -0.396875,-0.223242 -0.818555,-0.520898 l 0.248047,2.604492 -0.694531,2.182813 z m 0.545703,0 h 1.463476 L 26.35557,45.41314 v -0.818555 h -0.0248 q -0.42168,0 -0.768946,-0.198437 -0.32246,-0.223242 -0.669726,-0.396875 v 0.992187 z m 2.033984,0 h 1.438672 l 0.396875,-1.785938 v -1.116211 l -0.669726,-0.04961 q -0.347266,0 -0.768946,-0.02481 v 0.79375 z m 1.984375,0 h 1.041797 L 30.32432,45.41314 v -0.644922 q -0.322461,0 -0.644921,0.02481 -0.347266,0 -0.768946,-0.04961 v 1.066601 z m 7.416602,-7.9375 h -0.967383 l -1.141016,0.04961 1.141016,0.272852 1.066601,0.297656 z m -2.505274,-0.818555 2.331641,-0.02481 -0.09922,-0.694531 z"
         style="stroke-width:0.26458332"
         id="path9002"
         inkscape:connector-curvature="0" />
    </g>
  </g>
</svg>
