<?xml version="1.0" encoding="UTF-8" standalone="no"?>
<!-- Created with Inkscape (http://www.inkscape.org/) -->

<svg
   xmlns:dc="http://purl.org/dc/elements/1.1/"
   xmlns:cc="http://creativecommons.org/ns#"
   xmlns:rdf="http://www.w3.org/1999/02/22-rdf-syntax-ns#"
   xmlns:svg="http://www.w3.org/2000/svg"
   xmlns="http://www.w3.org/2000/svg"
   xmlns:sodipodi="http://sodipodi.sourceforge.net/DTD/sodipodi-0.dtd"
   xmlns:inkscape="http://www.inkscape.org/namespaces/inkscape"
   width="37.752731mm"
   height="11.608594mm"
   viewBox="0 0 37.752731 11.608594"
   version="1.1"
   id="svg9011"
   inkscape:version="0.92.4 (5da689c313, 2019-01-14)"
   sodipodi:docname="L5.svg">
  <defs
     id="defs9005" />
  <sodipodi:namedview
     id="base"
     pagecolor="#ffffff"
     bordercolor="#666666"
     borderopacity="1.0"
     inkscape:pageopacity="0.0"
     inkscape:pageshadow="2"
     inkscape:zoom="0.35"
     inkscape:cx="-346.11533"
     inkscape:cy="-475.51139"
     inkscape:document-units="mm"
     inkscape:current-layer="layer1"
     showgrid="false"
     fit-margin-top="0"
     fit-margin-left="0"
     fit-margin-right="0"
     fit-margin-bottom="0"
     inkscape:window-width="1920"
     inkscape:window-height="1017"
     inkscape:window-x="-8"
     inkscape:window-y="-8"
     inkscape:window-maximized="1" />
  <metadata
     id="metadata9008">
    <rdf:RDF>
      <cc:Work
         rdf:about="">
        <dc:format>image/svg+xml</dc:format>
        <dc:type
           rdf:resource="http://purl.org/dc/dcmitype/StillImage" />
        <dc:title></dc:title>
      </cc:Work>
    </rdf:RDF>
  </metadata>
  <g
     inkscape:label="Layer 1"
     inkscape:groupmode="layer"
     id="layer1"
     transform="translate(-4.2638489,-11.412352)">
    <g
       aria-label="𓆨"
       transform="matrix(0.26458333,0,0,0.26458333,5.2916667,-34.017857)"
       style="font-style:normal;font-variant:normal;font-weight:normal;font-stretch:normal;font-size:192px;line-height:1.25;font-family:sans-serif;-inkscape-font-specification:'sans-serif, Normal';font-variant-ligatures:normal;font-variant-caps:normal;font-variant-numeric:normal;font-feature-settings:normal;text-align:start;letter-spacing:0px;word-spacing:0px;writing-mode:lr-tb;text-anchor:start;fill:#000000;fill-opacity:1;stroke:none"
       id="flowRoot9556">
      <path
         d="m 9.9902344,193.07953 0.6562496,-2.8125 q -5.2499996,-1.6875 -8.2499996,-7.21875 -2.90625002,-5.53125 -2.71875003,-5.25 l -0.65625,-1.5 q 1.31250001,-0.65625 2.71875003,-1.21875 0.65625,1.3125 1.21875,2.625 0.5625,1.3125 1.3125,2.625 l 0.65625,1.40625 q 0.375,0.75 1.96875,2.625 1.6875,1.875 3.8437496,2.8125 2.25,0.9375 12.28125,0.9375 0,-3.5625 1.21875,-6.375 1.3125,-2.90625 3.5625,-5.4375 l 2.53125,1.6875 q -1.40625,1.6875 -2.34375,3.1875 -0.84375,1.5 -1.21875,2.8125 l -0.5625,1.78125 q 0,0.375 -0.09375,1.125 -0.09375,0.65625 -0.09375,1.40625 1.875,0 3.75,-0.0937 1.96875,-0.0937 3.84375,-0.28125 v -0.65625 q 0,-4.21875 2.15625,-7.3125 2.15625,-3.1875 2.625,-3.65625 l 2.53125,1.6875 q -0.1875,0.1875 -0.46875,0.5625 -0.1875,0.375 -0.5625,0.75 l -1.40625,2.0625 q -1.21875,1.6875 -1.59375,3 -0.28125,1.21875 -0.28125,3.09375 2.25,-0.375 4.5,-0.84375 2.34375,-0.5625 4.59375,-1.21875 0.1875,-2.0625 0.9375,-4.875 0.84375,-2.8125 2.25,-4.21875 l 2.53125,1.6875 q -1.03125,1.5 -1.6875,3 -0.5625,1.5 -0.9375,3.5625 l 6,-1.5 1.21875,-6.46875 q 0,-0.65625 0.1875,-0.84375 l 0.1875,-0.375 2.8125,0.65625 q -0.28125,0.5625 -0.375,1.125 -0.09375,0.5625 -0.28125,1.21875 l -0.28125,1.40625 q -0.1875,1.03125 -0.375,2.71875 l 4.96875,-0.75 q 0.75,0 1.40625,-0.0937 0.65625,0 1.40625,-0.0937 0.75,-2.34375 1.6875,-4.5 1.03125,-2.15625 3.1875,-4.3125 0.9375,0.84375 2.0625,2.25 -2.625,2.90625 -3.75,6.46875 l 3.5625,-0.0937 h 2.53125 l 2.53125,0.1875 q 0,-0.75 0.5625,-3.28125 0.65625,-2.53125 1.96875,-5.25 l 0.28125,-0.65625 q 0.1875,-0.46875 0.375,-0.65625 l 1.40625,0.65625 0.9375,0.46875 q 0.375,0.0937 -0.375,1.6875 -0.75,1.59375 -1.21875,3.28125 l -0.65625,2.34375 q -0.1875,0.5625 -0.1875,0.84375 0,0.5625 -0.09375,0.84375 l 7.59375,0.75 q 0.1875,-1.96875 0.46875,-3.09375 0.375,-1.21875 1.3125,-2.53125 l 1.40625,-2.15625 2.53125,1.6875 q -1.3125,1.59375 -2.0625,3.09375 -0.65625,1.40625 -0.65625,3.46875 1.96875,0.375 3.9375,0.65625 1.96875,0.28125 4.03125,0.75 0.84375,-2.15625 2.062496,-3.84375 1.21875,-1.78125 2.8125,-3.46875 l 1.21875,-1.21875 q 0.1875,0 1.125,1.03125 0.9375,0.9375 1.125,1.03125 -1.6875,1.59375 -3,3.375 -1.3125,1.6875 -2.25,3.75 l 3.75,0.65625 q 1.875,0.375 3.75,0.84375 l 1.59375,0.375 q 0.75,-2.25 1.6875,-4.21875 0.9375,-1.96875 3,-4.03125 0.9375,0.84375 2.0625,2.25 -2.625,2.90625 -3.75,6.5625 l 3.5625,0.65625 q 1.6875,0.375 3.5625,0.84375 0.75,-3.46875 2.0625,-4.59375 1.3125,-1.125 3.375,-2.8125 0.375,0.65625 0.65625,1.40625 0.28125,0.65625 0.75,1.21875 l -0.84375,0.5625 q -0.375,0.1875 -0.84375,0.65625 -0.46875,0.375 -0.65625,0.65625 l -0.75,0.9375 -0.5625,1.3125 q -0.28125,0.65625 -0.28125,1.40625 l 3,0.9375 q 1.5,0.5625 2.8125,1.21875 1.875,-1.6875 4.125,-2.71875 2.25,-1.125 4.40625,-2.25 v 0.5625 q 0,0.5625 -0.0937,1.03125 -0.0937,0.46875 -0.0937,0.65625 0,0.5625 0.375,1.125 l -7.21875,4.3125 -2.625,9.375 q 0.375,0.84375 2.4375,4.5 2.0625,3.5625 3.1875,5.34375 l -2.53125,1.6875 q -0.84375,-1.6875 -1.875,-3.375 l -3.9375,-6.75 q -1.78125,-0.65625 -3.5625,-1.125 -1.78125,-0.5625 -3.65625,-1.03125 0,0.1875 0.375,1.125 l 1.3125,4.125 q 0.28125,1.03125 0.46875,1.3125 l -1.40625,0.28125 -1.5,0.46875 -1.3125,-3.9375 q -0.5625,-1.5 -1.40625,-4.3125 l -7.59375,-1.78125 q 0.1875,0.46875 0.5625,1.21875 l 1.59375,3.09375 q 0.84375,1.59375 1.875,2.90625 l -2.53125,1.6875 -0.46875,-0.65625 q -1.21875,-1.875 -2.625,-4.21875 -1.3125,-2.34375 -1.5,-4.59375 l -3.75,-0.75 -3.843746,-0.5625 q 0.5625,2.15625 1.40625,4.40625 0.9375,2.25 1.687496,4.40625 -0.749996,0.1875 -1.406246,0.46875 -0.65625,0.28125 -1.40625,0.46875 l -0.375,-0.84375 -0.75,-2.25 q -0.46875,-1.21875 -0.9375,-2.625 -0.46875,-1.5 -1.3125,-4.5 l -4.5,-0.75 q -2.25,-0.28125 -4.59375,-0.46875 0.1875,1.875 0.9375,3.375 0.84375,1.40625 1.875,3.09375 l -1.21875,0.84375 q -0.65625,0.46875 -1.21875,0.9375 -1.3125,-1.875 -2.25,-4.03125 -0.9375,-2.15625 -1.21875,-4.6875 l -8.34375,-0.84375 q 0.65625,1.6875 1.40625,3.28125 0.75,1.59375 2.0625,2.8125 -0.28125,0 -1.125,1.03125 -0.84375,0.9375 -1.21875,0.9375 -1.03125,-1.21875 -2.53125,-3.46875 -1.40625,-2.25 -1.875,-4.875 -2.0625,-0.1875 -4.03125,-0.1875 -1.96875,0 -4.03125,-0.0937 0,0.375 0.09375,0.65625 0,0.5625 0.5625,2.53125 0.5625,1.96875 2.15625,3.46875 l -2.25,2.0625 q -1.78125,-1.96875 -2.625,-3.9375 -0.75,-2.0625 -0.9375,-4.78125 -2.25,0 -4.59375,0.375 -2.25,0.28125 -4.5,0.65625 0,0.75 0.09375,1.03125 0,1.125 0.46875,2.15625 l 0.84375,2.0625 q 0.46875,0.9375 1.40625,1.875 -0.5625,0.46875 -1.125,1.03125 -0.5625,0.5625 -1.125,1.03125 -0.75,-0.75 -1.125,-1.5 l -0.9375,-1.5 q -1.21875,-2.4375 -1.5,-5.625 l -9,1.78125 0.65625,2.71875 q 0.28125,1.3125 0.75,2.15625 0.5625,0.84375 2.8125,2.90625 -0.1875,0.1875 -0.5625,0.46875 -0.375,0.28125 -1.6875,1.59375 -0.84375,-0.65625 -2.4375,-2.53125 -1.5,-1.96875 -1.96875,-4.40625 l -0.5625,-2.4375 -4.59375,0.5625 q -1.875,0.28125 -3.5625,0.28125 l -0.28125,1.21875 q 0,0.5625 -0.09375,1.03125 0,1.3125 0.9375,2.625 1.03125,1.21875 1.21875,1.59375 l -2.53125,1.6875 q -1.125,-1.59375 -1.78125,-3 -0.65625,-1.40625 -0.65625,-3 v -0.84375 q 0,-0.65625 0.09375,-1.03125 0,-0.28125 0.09375,-0.5625 -3.28125,-0.5625 -6.46875,-1.6875 -3.1875,-1.125 -6.28125,-2.15625 -2.5312496,1.3125 -5.0624996,2.90625 -2.53125,1.59375 -4.59375,3.28125 l -1.59375003,1.5 q -0.84374999,0.84375 -1.49999997,1.78125 l -2.15625,-1.5 q -0.28125,-0.1875 -0.28125,-0.28125 0,-0.5625 4.40624997,-4.3125 4.50000003,-3.75 9.46875003,-6 z m 116.3437456,9.1875 2.25,-7.78125 q -5.71875,-2.0625 -11.625,-3.375 l -11.8125,-2.4375 q -8.531246,-1.6875 -16.874996,-3 -8.34375,-1.3125 -16.875,-1.3125 -6.5625,0 -10.96875,0.75 -4.3125,0.65625 -10.59375,2.25 l -6.75,1.6875 q -4.5,1.21875 -8.34375,1.6875 -3.75,0.46875 -8.8125,0.46875 -3.09375,0 -6.28125,-0.0937 -3.09375,-0.1875 -6.09375,-0.375 l -0.1875,1.125 q 0,0.65625 -0.28125,1.3125 l 6.09375,2.0625 q 2.0625,0.65625 4.40625,1.125 2.34375,0.46875 3.9375,0.46875 0.9375,0 2.0625,-0.0937 l 3.9375,-0.5625 q 3.375,-0.46875 12.28125,-2.25 9,-1.78125 14.90625,-1.78125 12.84375,0 33.28125,3 20.437496,3 32.343746,7.125 z"
         id="path9564"
         inkscape:connector-curvature="0" />
    </g>
  </g>
</svg>
