<?xml version="1.0" encoding="UTF-8" standalone="no"?>
<!-- Created with Inkscape (http://www.inkscape.org/) -->

<svg
   xmlns:dc="http://purl.org/dc/elements/1.1/"
   xmlns:cc="http://creativecommons.org/ns#"
   xmlns:rdf="http://www.w3.org/1999/02/22-rdf-syntax-ns#"
   xmlns:svg="http://www.w3.org/2000/svg"
   xmlns="http://www.w3.org/2000/svg"
   xmlns:sodipodi="http://sodipodi.sourceforge.net/DTD/sodipodi-0.dtd"
   xmlns:inkscape="http://www.inkscape.org/namespaces/inkscape"
   width="19.521288mm"
   height="18.653124mm"
   viewBox="0 0 19.521288 18.653124"
   version="1.1"
   id="svg9573"
   inkscape:version="0.92.4 (5da689c313, 2019-01-14)"
   sodipodi:docname="L6.svg">
  <defs
     id="defs9567" />
  <sodipodi:namedview
     id="base"
     pagecolor="#ffffff"
     bordercolor="#666666"
     borderopacity="1.0"
     inkscape:pageopacity="0.0"
     inkscape:pageshadow="2"
     inkscape:zoom="0.35"
     inkscape:cx="-334.6875"
     inkscape:cy="-346.19016"
     inkscape:document-units="mm"
     inkscape:current-layer="layer1"
     showgrid="false"
     fit-margin-top="0"
     fit-margin-left="0"
     fit-margin-right="0"
     fit-margin-bottom="0"
     inkscape:window-width="1920"
     inkscape:window-height="1017"
     inkscape:window-x="-8"
     inkscape:window-y="-8"
     inkscape:window-maximized="1" />
  <metadata
     id="metadata9570">
    <rdf:RDF>
      <cc:Work
         rdf:about="">
        <dc:format>image/svg+xml</dc:format>
        <dc:type
           rdf:resource="http://purl.org/dc/dcmitype/StillImage" />
        <dc:title></dc:title>
      </cc:Work>
    </rdf:RDF>
  </metadata>
  <g
     inkscape:label="Layer 1"
     inkscape:groupmode="layer"
     id="layer1"
     transform="translate(-1.2402344,-38.584063)">
    <g
       aria-label="𓆩"
       transform="scale(0.26458333)"
       style="font-style:normal;font-variant:normal;font-weight:normal;font-stretch:normal;font-size:192px;line-height:1.25;font-family:sans-serif;-inkscape-font-specification:'sans-serif, Normal';font-variant-ligatures:normal;font-variant-caps:normal;font-variant-numeric:normal;font-feature-settings:normal;text-align:start;letter-spacing:0px;word-spacing:0px;writing-mode:lr-tb;text-anchor:start;fill:#000000;fill-opacity:1;stroke:none"
       id="flowRoot10118">
      <path
         d="m 7.40625,145.82953 q 7.21875,7.3125 17.15625,11.625 9.9375,4.21875 28.875,6.09375 l 1.03125,0.9375 q 4.3125,15.9375 9.9375,27.65625 5.625,11.71875 14.0625,21.75 l -1.3125,2.4375 q -10.96875,-2.25 -15.65625,-3.84375 -4.59375,-1.6875 -8.15625,-3.1875 -3.46875,-1.59375 -7.5,-3.9375 -4.03125,-2.4375 -6.9375,-4.59375 -2.90625,-2.25 -6.09375,-5.15625 -3.09375,-2.90625 -6.46875,-7.03125 -3.375,-4.21875 -5.71875,-7.40625 -2.34375,-3.1875 -7.21875,-12.65625 -4.875,-9.5625 -5.4375,-11.4375 Q 7.5,155.11078 4.6875,147.04828 Z m 44.53125,20.53125 q -15.65625,-1.5 -25.40625,-4.96875 -9.75,-3.46875 -17.0625,-9.5625 l 1.40625,3.9375 q 4.3125,13.21875 13.875,26.15625 9.5625,12.84375 21.46875,20.15625 11.90625,7.21875 27.09375,10.40625 -6.28125,-7.3125 -11.34375,-17.625 -5.0625,-10.40625 -10.03125,-28.5 z"
         id="path10126"
         inkscape:connector-curvature="0" />
    </g>
  </g>
</svg>
