<?xml version="1.0" encoding="UTF-8" standalone="no"?>
<!-- Created with Inkscape (http://www.inkscape.org/) -->

<svg
   xmlns:dc="http://purl.org/dc/elements/1.1/"
   xmlns:cc="http://creativecommons.org/ns#"
   xmlns:rdf="http://www.w3.org/1999/02/22-rdf-syntax-ns#"
   xmlns:svg="http://www.w3.org/2000/svg"
   xmlns="http://www.w3.org/2000/svg"
   xmlns:sodipodi="http://sodipodi.sourceforge.net/DTD/sodipodi-0.dtd"
   xmlns:inkscape="http://www.inkscape.org/namespaces/inkscape"
   width="26.441795mm"
   height="37.851952mm"
   viewBox="0 0 26.441795 37.851952"
   version="1.1"
   id="svg10135"
   inkscape:version="0.92.4 (5da689c313, 2019-01-14)"
   sodipodi:docname="L7.svg">
  <defs
     id="defs10129" />
  <sodipodi:namedview
     id="base"
     pagecolor="#ffffff"
     bordercolor="#666666"
     borderopacity="1.0"
     inkscape:pageopacity="0.0"
     inkscape:pageshadow="2"
     inkscape:zoom="0.35"
     inkscape:cx="-340.40234"
     inkscape:cy="-387.68904"
     inkscape:document-units="mm"
     inkscape:current-layer="layer1"
     showgrid="false"
     fit-margin-top="0"
     fit-margin-left="0"
     fit-margin-right="0"
     fit-margin-bottom="0"
     inkscape:window-width="1920"
     inkscape:window-height="1017"
     inkscape:window-x="-8"
     inkscape:window-y="-8"
     inkscape:window-maximized="1" />
  <metadata
     id="metadata10132">
    <rdf:RDF>
      <cc:Work
         rdf:about="">
        <dc:format>image/svg+xml</dc:format>
        <dc:type
           rdf:resource="http://purl.org/dc/dcmitype/StillImage" />
        <dc:title></dc:title>
      </cc:Work>
    </rdf:RDF>
  </metadata>
  <g
     inkscape:label="Layer 1"
     inkscape:groupmode="layer"
     id="layer1"
     transform="translate(-2.7522867,-8.405322)">
    <g
       aria-label="𓆫"
       transform="matrix(0.26458333,0,0,0.26458333,-5.2916667,2.2678571)"
       style="font-style:normal;font-variant:normal;font-weight:normal;font-stretch:normal;font-size:192px;line-height:1.25;font-family:sans-serif;-inkscape-font-specification:'sans-serif, Normal';font-variant-ligatures:normal;font-variant-caps:normal;font-variant-numeric:normal;font-feature-settings:normal;text-align:start;letter-spacing:0px;word-spacing:0px;writing-mode:lr-tb;text-anchor:start;fill:#000000;fill-opacity:1;stroke:none"
       id="flowRoot10680">
      <path
         d="m 103.05859,78.040468 q -0.375,9.1875 -1.6875,18.1875 -1.21875,8.906252 -3.187496,17.812502 -1.96875,8.8125 -4.5,17.625 -2.53125,8.71875 -5.34375,17.4375 1.3125,8.8125 8.25,17.15625 h -6.375 l -6,-10.59375 h -7.3125 l -7.59375,10.59375 h -5.53125 q 3.65625,-5.0625 5.71875,-9.28125 2.15625,-4.3125 2.90625,-8.25 -5.90625,-17.25 -10.03125,-34.78125 -4.125,-17.625002 -4.6875,-35.906252 -1.96875,-0.28125 -4.03125,-0.46875 -1.96875,-0.1875 -4.03125,-0.1875 -0.375,0 -1.78125,0.1875 -1.40625,0.09375 -3.1875,0.28125 -1.78125,0.09375 -3.65625,0.28125 -1.78125,0.09375 -3.09375,0.09375 -1.875,0 -3.65625,-0.375 -1.78125,-0.375 -3.375,-1.40625 0,-0.28125 -0.46875,-1.40625 4.6875,-13.96875 9.46875,-22.875 2.4375,-4.5 4.96875,-8.25 2.625,-3.84375 5.34375,-7.03125 2.71875,-3.1875 5.25,-5.53125 2.625,-2.34375 5.0625,-3.9375 2.4375,-1.59375 3.84375,-2.53125 1.5,-1.03125 1.96875,-1.21875 1.125,-0.46875 2.53125,-0.46875 l 5.4375,0.46875 0.9375,2.71875 q -0.9375,0.84375 -1.96875,1.6875 -0.9375,0.75 -1.96875,1.21875 -0.46875,3.84375 -2.15625,5.25 -1.59375,1.3125 -7.78125,1.3125 -6.75,7.125 -12.09375,15 -5.34375,7.875 -7.96875,17.4375 1.96875,0.5625 3.9375,0.5625 3.9375,0 7.5,-1.59375 3.5625,-1.6875 6.84375,-3.65625 2.15625,-3.5625 5.25,-4.875 3.09375,-1.40625 6.65625,-1.40625 2.15625,0 4.40625,0.375 2.34375,0.375 4.5,0.9375 2.25,-0.5625 4.40625,-0.9375 2.25,-0.375 4.40625,-0.375 3.46875,0 6.5625,1.3125 3.1875,1.3125 5.437496,4.875 3.28125,2.0625 6.84375,3.75 3.5625,1.59375 7.5,1.59375 1.96875,0 3.9375,-0.5625 -2.15625,-7.40625 -6.46875,-14.90625 -4.3125,-7.5 -13.499996,-17.53125 -6.84375,0 -8.34375,-1.6875 -1.59375,-1.78125 -1.59375,-4.96875 -0.9375,-0.5625 -2.0625,-1.21875 -1.03125,-0.65625 -2.15625,-1.6875 l 0.9375,-2.625 5.4375,-0.46875 q 5.4375,0 17.156246,11.53125 11.8125,11.625 21.46875,40.125 l -0.5625,1.6875 q -1.3125,1.03125 -2.8125,1.40625 -1.5,0.375 -3.09375,0.375 -1.59375,0 -3.75,-0.1875 -2.15625,-0.28125 -6.46875,-0.46875 z m -1.5,-2.8125 q 1.96875,-0.375 3.9375,-0.46875 2.0625,-0.1875 4.125,-0.1875 1.3125,0 2.625,0 1.3125,0 2.625,0.09375 2.71875,0.09375 4.40625,0.28125 1.78125,0.09375 2.90625,0.1875 1.125,0.09375 1.6875,0.1875 0.5625,0.09375 0.84375,0.09375 1.21875,0 2.4375,-0.65625 -6.5625,-19.6875 -14.53125,-30.65625 -7.875,-10.875 -18.937496,-17.4375 h -2.71875 q 0.46875,0.28125 0.9375,0.46875 l 0.65625,1.21875 q 0,1.21875 0.1875,2.25 0.1875,1.03125 1.125,1.96875 1.03125,0.375 2.53125,0.375 1.3125,0 2.0625,0 0.84375,0 1.593746,-0.09375 0.1875,0.09375 0.46875,0.28125 0.375,0.09375 0.84375,0.28125 7.40625,7.875 12.9375,16.40625 5.625,8.4375 8.4375,18.9375 l -1.03125,1.96875 q -1.5,0.65625 -3,0.9375 -1.40625,0.1875 -3,0.1875 -4.5,0 -10.125,-2.34375 -5.718746,-2.34375 -8.062496,-5.71875 -2.25,-3.375 -8.4375,-3.375 -0.84375,0 -2.15625,0.1875 -1.3125,0.1875 -2.625,0.375 -1.3125,0.1875 -2.4375,0.46875 -1.03125,0.1875 -1.59375,0.1875 -2.15625,-0.375 -4.6875,-0.84375 -2.53125,-0.5625 -4.96875,-0.5625 -4.5,0 -6.5625,2.34375 -1.03125,1.125 -1.40625,1.78125 -0.28125,0.5625 -0.46875,0.84375 -0.1875,0.1875 -1.40625,1.03125 -1.21875,0.84375 -4.125,2.4375 -5.71875,3.1875 -11.53125,3.1875 -3.375,0 -6.1875,-1.21875 l -0.9375,-1.6875 q 2.25,-8.25 6.65625,-16.3125 2.15625,-4.03125 5.90625,-8.8125 3.75,-4.875 9.09375,-10.59375 l 0.9375,-0.375 h 3 q 1.3125,0 3.1875,-0.28125 0.28125,-0.09375 0.84375,-0.9375 0.65625,-0.9375 0.65625,-3 l 0.9375,-1.6875 1.03125,-0.28125 h -3.09375 q -11.0625,6.5625 -18.84375,17.0625 -7.6875,10.40625 -14.625,30.84375 1.96875,0.75 4.21875,0.75 0.75,0 2.15625,-0.09375 1.40625,-0.09375 2.90625,-0.28125 1.6875,-0.1875 3.75,-0.46875 4.3125,0 7.21875,0.1875 2.90625,0.1875 5.53125,0.65625 l 1.125,1.40625 q 0.375,9.5625 1.59375,18.46875 1.21875,8.906252 3.09375,17.812502 1.96875,8.8125 4.59375,17.90625 2.625,9 5.90625,18.75 h 9.375 q 6.9375,-20.71875 10.6875,-38.8125 3.84375,-18.187502 4.312496,-34.406252 z"
         id="path10688"
         inkscape:connector-curvature="0" />
    </g>
  </g>
</svg>
