<?xml version="1.0" encoding="UTF-8" standalone="no"?>
<!-- Created with Inkscape (http://www.inkscape.org/) -->

<svg
   xmlns:dc="http://purl.org/dc/elements/1.1/"
   xmlns:cc="http://creativecommons.org/ns#"
   xmlns:rdf="http://www.w3.org/1999/02/22-rdf-syntax-ns#"
   xmlns:svg="http://www.w3.org/2000/svg"
   xmlns="http://www.w3.org/2000/svg"
   xmlns:sodipodi="http://sodipodi.sourceforge.net/DTD/sodipodi-0.dtd"
   xmlns:inkscape="http://www.inkscape.org/namespaces/inkscape"
   width="7.51582mm"
   height="39.191406mm"
   viewBox="0 0 7.51582 39.191406"
   version="1.1"
   id="svg6472"
   inkscape:version="0.92.4 (5da689c313, 2019-01-14)"
   sodipodi:docname="L8.svg">
  <defs
     id="defs6466" />
  <sodipodi:namedview
     id="base"
     pagecolor="#ffffff"
     bordercolor="#666666"
     borderopacity="1.0"
     inkscape:pageopacity="0.0"
     inkscape:pageshadow="2"
     inkscape:zoom="0.35"
     inkscape:cx="-354.6875"
     inkscape:cy="-350.02024"
     inkscape:document-units="mm"
     inkscape:current-layer="layer1"
     showgrid="false"
     fit-margin-top="0"
     fit-margin-left="0"
     fit-margin-right="0"
     fit-margin-bottom="0"
     inkscape:window-width="1920"
     inkscape:window-height="1017"
     inkscape:window-x="-8"
     inkscape:window-y="-8"
     inkscape:window-maximized="1" />
  <metadata
     id="metadata6469">
    <rdf:RDF>
      <cc:Work
         rdf:about="">
        <dc:format>image/svg+xml</dc:format>
        <dc:type
           rdf:resource="http://purl.org/dc/dcmitype/StillImage" />
        <dc:title></dc:title>
      </cc:Work>
    </rdf:RDF>
  </metadata>
  <g
     inkscape:label="Layer 1"
     inkscape:groupmode="layer"
     id="layer1"
     transform="translate(-6.531901,-17.032407)">
    <g
       aria-label="𓆬"
       transform="scale(0.26458333)"
       style="font-style:normal;font-variant:normal;font-weight:normal;font-stretch:normal;font-size:192px;line-height:1.25;font-family:sans-serif;-inkscape-font-specification:sans-serif;font-variant-ligatures:normal;font-variant-caps:normal;font-variant-numeric:normal;font-feature-settings:normal;text-align:start;letter-spacing:0px;word-spacing:0px;writing-mode:lr-tb;text-anchor:start;fill:#000000;fill-opacity:1;stroke:none"
       id="flowRoot7020">
      <path
         d="m 53.09375,196.56195 q 0,0.9375 -1.59375,2.53125 -0.75,0.84375 -3.75,4.21875 -2.90625,3.375 -7.78125,9.1875 h -2.0625 q -5.71875,-6.75 -9.46875,-10.875 -3.75,-4.03125 -3.75,-5.34375 V 95.874452 q 0,-4.59375 4.6875,-10.59375 l 6.46875,-8.25 -9.65625,-12.65625 H 30.5 l 8.4375,11.71875 8.4375,-11.71875 h 4.21875 l -9.5625,12.65625 q 2.34375,2.625 4.21875,5.0625 1.59375,2.0625 3.09375,4.03125 1.5,1.96875 1.96875,2.90625 0.84375,1.78125 1.3125,3.65625 0.46875,1.875 0.46875,3.1875 z m -3,-98.906248 H 27.6875 v 98.343748 l 11.25,13.125 11.15625,-13.125 z m -12.1875,-18.375 q -1.5,1.96875 -2.71875,3.46875 -1.03125,1.3125 -1.96875,2.4375 -0.84375,1.03125 -0.75,1.03125 -4.03125,4.96875 -4.6875,8.625 H 50 q -0.375,-2.71875 -1.875,-5.4375 -1.5,-2.71875 -4.875,-6.65625 l -3.09375,-3.46875 z"
         id="path7028"
         inkscape:connector-curvature="0" />
    </g>
  </g>
</svg>
