<?xml version="1.0" encoding="UTF-8" standalone="no"?>
<!-- Created with Inkscape (http://www.inkscape.org/) -->

<svg
   xmlns:dc="http://purl.org/dc/elements/1.1/"
   xmlns:cc="http://creativecommons.org/ns#"
   xmlns:rdf="http://www.w3.org/1999/02/22-rdf-syntax-ns#"
   xmlns:svg="http://www.w3.org/2000/svg"
   xmlns="http://www.w3.org/2000/svg"
   xmlns:sodipodi="http://sodipodi.sourceforge.net/DTD/sodipodi-0.dtd"
   xmlns:inkscape="http://www.inkscape.org/namespaces/inkscape"
   width="14.386719mm"
   height="37.975975mm"
   viewBox="0 0 14.386719 37.975975"
   version="1.1"
   id="svg7037"
   inkscape:version="0.92.4 (5da689c313, 2019-01-14)"
   sodipodi:docname="M1.svg">
  <defs
     id="defs7031" />
  <sodipodi:namedview
     id="base"
     pagecolor="#ffffff"
     bordercolor="#666666"
     borderopacity="1.0"
     inkscape:pageopacity="0.0"
     inkscape:pageshadow="2"
     inkscape:zoom="0.35"
     inkscape:cx="-360.40234"
     inkscape:cy="-174.76047"
     inkscape:document-units="mm"
     inkscape:current-layer="layer1"
     showgrid="false"
     fit-margin-top="0"
     fit-margin-left="0"
     fit-margin-right="0"
     fit-margin-bottom="0"
     inkscape:window-width="1920"
     inkscape:window-height="1017"
     inkscape:window-x="-8"
     inkscape:window-y="-8"
     inkscape:window-maximized="1" />
  <metadata
     id="metadata7034">
    <rdf:RDF>
      <cc:Work
         rdf:about="">
        <dc:format>image/svg+xml</dc:format>
        <dc:type
           rdf:resource="http://purl.org/dc/dcmitype/StillImage" />
        <dc:title></dc:title>
      </cc:Work>
    </rdf:RDF>
  </metadata>
  <g
     inkscape:label="Layer 1"
     inkscape:groupmode="layer"
     id="layer1"
     transform="translate(-8.0439534,-64.61865)">
    <g
       aria-label="𓆭"
       transform="scale(0.26458333)"
       style="font-style:normal;font-variant:normal;font-weight:normal;font-stretch:normal;font-size:192px;line-height:1.25;font-family:sans-serif;-inkscape-font-specification:sans-serif;font-variant-ligatures:normal;font-variant-caps:normal;font-variant-numeric:normal;font-feature-settings:normal;text-align:start;letter-spacing:0px;word-spacing:0px;writing-mode:lr-tb;text-anchor:start;fill:#000000;fill-opacity:1;stroke:none"
       id="flowRoot7585">
      <path
         d="m 57.964844,244.22797 q 12,4.40625 17.625,20.90625 5.71875,16.5 7.21875,39.84375 l 0.75,13.3125 q 0.375,6.84375 0.65625,13.59375 l 0.5625,13.59375 -1.125,1.5 q -9.84375,4.21875 -13.21875,8.90625 -3.375,4.59375 -4.875,10.40625 -1.5,5.8125 -1.5,19.96875 l -1.59375,1.5 h -10.59375 l -1.40625,-1.78125 q 0,-11.34375 -1.03125,-17.4375 -0.9375,-6.1875 -4.78125,-11.625 -3.75,-5.4375 -13.3125,-10.03125 l -0.9375,-1.6875 0.75,-13.5 1.21875,-20.15625 0.5625,-7.40625 q 0.75,-9.9375 3.46875,-24.75 2.71875,-14.8125 7.78125,-23.53125 5.15625,-8.71875 12.84375,-11.625 z m -0.375,3.09375 q -8.71875,3.46875 -13.40625,15.75 -4.6875,12.1875 -6.46875,24.84375 -1.78125,12.5625 -3,33.9375 l -1.21875,22.78125 q 7.59375,3.84375 11.625,8.25 4.03125,4.40625 6.1875,10.78125 2.15625,6.28125 2.15625,21.09375 h 7.59375 q 0,-18.375 4.40625,-26.8125 4.5,-8.4375 16.3125,-13.40625 l -0.5625,-13.03125 q -0.65625,-16.03125 -1.96875,-32.4375 -1.21875,-16.5 -6.09375,-31.96875 -4.875,-15.5625 -15.5625,-19.78125 z"
         id="path7593"
         inkscape:connector-curvature="0" />
    </g>
  </g>
</svg>
