<?xml version="1.0" encoding="UTF-8" standalone="no"?>
<!-- Created with Inkscape (http://www.inkscape.org/) -->

<svg
   xmlns:dc="http://purl.org/dc/elements/1.1/"
   xmlns:cc="http://creativecommons.org/ns#"
   xmlns:rdf="http://www.w3.org/1999/02/22-rdf-syntax-ns#"
   xmlns:svg="http://www.w3.org/2000/svg"
   xmlns="http://www.w3.org/2000/svg"
   xmlns:sodipodi="http://sodipodi.sourceforge.net/DTD/sodipodi-0.dtd"
   xmlns:inkscape="http://www.inkscape.org/namespaces/inkscape"
   width="31.75mm"
   height="31.129881mm"
   viewBox="0 0 31.75 31.129881"
   version="1.1"
   id="svg11259"
   inkscape:version="0.92.4 (5da689c313, 2019-01-14)"
   sodipodi:docname="M10.svg">
  <defs
     id="defs11253" />
  <sodipodi:namedview
     id="base"
     pagecolor="#ffffff"
     bordercolor="#666666"
     borderopacity="1.0"
     inkscape:pageopacity="0.0"
     inkscape:pageshadow="2"
     inkscape:zoom="0.35"
     inkscape:cx="-328.97266"
     inkscape:cy="-360.47532"
     inkscape:document-units="mm"
     inkscape:current-layer="layer1"
     showgrid="false"
     fit-margin-top="0"
     fit-margin-left="0"
     fit-margin-right="0"
     fit-margin-bottom="0"
     inkscape:window-width="1920"
     inkscape:window-height="1017"
     inkscape:window-x="-8"
     inkscape:window-y="-8"
     inkscape:window-maximized="1" />
  <metadata
     id="metadata11256">
    <rdf:RDF>
      <cc:Work
         rdf:about="">
        <dc:format>image/svg+xml</dc:format>
        <dc:type
           rdf:resource="http://purl.org/dc/dcmitype/StillImage" />
        <dc:title></dc:title>
      </cc:Work>
    </rdf:RDF>
  </metadata>
  <g
     inkscape:label="Layer 1"
     inkscape:groupmode="layer"
     id="layer1"
     transform="translate(0.27181802,-22.327691)">
    <g
       aria-label="𓆹"
       transform="scale(0.26458333)"
       style="font-style:normal;font-variant:normal;font-weight:normal;font-stretch:normal;font-size:192px;line-height:1.25;font-family:sans-serif;-inkscape-font-specification:'sans-serif, Normal';font-variant-ligatures:normal;font-variant-caps:normal;font-variant-numeric:normal;font-feature-settings:normal;text-align:start;letter-spacing:0px;word-spacing:0px;writing-mode:lr-tb;text-anchor:start;fill:#000000;fill-opacity:1;stroke:none"
       id="flowRoot11804">
      <path
         d="m 117.28516,202.04437 h -5.4375 l -1.40625,-1.78125 0.1875,-13.6875 v -13.6875 q 0,-15.46875 -2.34375,-27.375 -2.34375,-11.90625 -14.531254,-18.28125 -5.625,2.53125 -11.90625,4.03125 -6.1875,1.5 -12.5625,1.5 -8.71875,0 -15.1875,-2.90625 -6.46875,-2.90625 -16.875,-10.03125 -10.40625,-7.125 -23.4375,-19.03125 l -14.8124997,-13.499996 0.93749995,-2.625 q 6.56249995,0 12.84374975,-0.09375 6.28125,-0.1875 12.84375,-0.1875 24.1875,0 37.6875,4.03125 13.59375,3.9375 21.65625,11.0625 8.0625,7.031246 12.28125,19.781246 15.937504,7.21875 18.843754,22.40625 2.90625,15.1875 2.90625,29.15625 l -0.0937,29.71875 z m -37.968754,-101.8125 0.84375,-0.656246 q -8.15625,-6.09375 -20.625,-9.09375 -12.46875,-3.09375 -32.625,-3.09375 -5.625,0 -11.34375,0.1875 -5.6249997,0.09375 -11.6249997,0.09375 L 22.128906,103.88812 q 10.40625,9.46875 22.40625,17.34375 12,7.78125 21.65625,8.625 l 0.09375,-3.09375 q 0.46875,-6.5625 2.625,-12.46875 2.25,-5.90625 9.5625,-13.21875 z m -9.84375,25.125 q -0.28125,2.25 -0.28125,4.6875 6.1875,0 12.5625,-1.6875 6.375,-1.78125 11.53125,-4.21875 0.375,0 0.75,0.0937 2.0625,0 9.187504,6 7.125,6 8.71875,19.125 1.6875,13.125 1.6875,24.75 v 14.8125 l -0.1875,10.125 h 2.4375 l 0.0937,-28.03125 q 0,-14.53125 -1.96875,-24.84375 -1.96875,-10.40625 -5.625,-15 -3.5625,-4.59375 -8.625004,-7.125 -4.96875,-2.625 -4.96875,-3.09375 0,-0.46875 -3.09375,-7.21875 -3,-6.75 -9.1875,-12.28125 l -4.96875,4.875 q -2.15625,2.15625 -4.03125,5.53125 -1.875,3.375 -3,7.5 z"
         id="path11812"
         inkscape:connector-curvature="0" />
    </g>
  </g>
</svg>
