<?xml version="1.0" encoding="UTF-8" standalone="no"?>
<!-- Created with Inkscape (http://www.inkscape.org/) -->

<svg
   xmlns:dc="http://purl.org/dc/elements/1.1/"
   xmlns:cc="http://creativecommons.org/ns#"
   xmlns:rdf="http://www.w3.org/1999/02/22-rdf-syntax-ns#"
   xmlns:svg="http://www.w3.org/2000/svg"
   xmlns="http://www.w3.org/2000/svg"
   xmlns:sodipodi="http://sodipodi.sourceforge.net/DTD/sodipodi-0.dtd"
   xmlns:inkscape="http://www.inkscape.org/namespaces/inkscape"
   width="32.295704mm"
   height="18.405077mm"
   viewBox="0 0 32.295704 18.405077"
   version="1.1"
   id="svg13252"
   inkscape:version="0.92.4 (5da689c313, 2019-01-14)"
   sodipodi:docname="M10A.svg">
  <defs
     id="defs13246" />
  <sodipodi:namedview
     id="base"
     pagecolor="#ffffff"
     bordercolor="#666666"
     borderopacity="1.0"
     inkscape:pageopacity="0.0"
     inkscape:pageshadow="2"
     inkscape:zoom="0.35"
     inkscape:cx="-357.54492"
     inkscape:cy="-382.25657"
     inkscape:document-units="mm"
     inkscape:current-layer="layer1"
     showgrid="false"
     fit-margin-top="0"
     fit-margin-left="0"
     fit-margin-right="0"
     fit-margin-bottom="0"
     inkscape:window-width="1920"
     inkscape:window-height="1017"
     inkscape:window-x="-8"
     inkscape:window-y="-8"
     inkscape:window-maximized="1" />
  <metadata
     id="metadata13249">
    <rdf:RDF>
      <cc:Work
         rdf:about="">
        <dc:format>image/svg+xml</dc:format>
        <dc:type
           rdf:resource="http://purl.org/dc/dcmitype/StillImage" />
        <dc:title></dc:title>
      </cc:Work>
    </rdf:RDF>
  </metadata>
  <g
     inkscape:label="Layer 1"
     inkscape:groupmode="layer"
     id="layer1"
     transform="translate(-7.2879272,-29.289539)">
    <g
       aria-label="𓆺"
       transform="scale(0.26458333)"
       style="font-style:normal;font-variant:normal;font-weight:normal;font-stretch:normal;font-size:192px;line-height:1.25;font-family:sans-serif;-inkscape-font-specification:sans-serif;font-variant-ligatures:normal;font-variant-caps:normal;font-variant-numeric:normal;font-feature-settings:normal;text-align:start;letter-spacing:0px;word-spacing:0px;writing-mode:lr-tb;text-anchor:start;fill:#000000;fill-opacity:1;stroke:none"
       id="flowRoot13800">
      <path
         d="m 35.232422,179.79437 -2.53125,-4.78125 0.75,-2.15625 18.5625,-9.375 q 6,-3.9375 12.28125,-5.53125 6.375,-1.59375 13.03125,-1.59375 11.625,0 27.562498,4.40625 16.03125,4.40625 23.0625,4.40625 7.78125,0 10.78125,-3.28125 3.09375,-3.375 3.09375,-7.5 0,-3.75 -2.8125,-7.59375 -2.71875,-3.84375 -10.5,-4.3125 -7.6875,5.625 -15.46875,8.71875 -7.6875,3 -14.343748,3 h -0.75 q -9.46875,-0.1875 -22.6875,-5.4375 -13.125,-5.34375 -24.1875,-11.71875 l -23.53125,-13.59375 0.46875,-2.90625 q 2.15625,-0.46875 22.40625,-5.15625 20.25,-4.6875 34.03125,-4.6875 11.15625,0 19.593748,2.71875 8.53125,2.71875 14.4375,7.125 5.90625,4.3125 11.4375,13.5 9.5625,0.5625 14.625,6.5625 5.0625,6 5.0625,13.875 0,7.5 -5.0625,12.9375 -4.96875,5.4375 -15.46875,5.4375 -7.59375,0 -24.46875,-4.03125 -16.781248,-4.03125 -27.374998,-4.21875 h -0.5625 q -10.125,0 -23.90625,7.40625 -13.6875,7.40625 -15.375,8.25 z m 73.968748,-61.3125 q -5.53125,-2.625 -11.624998,-3.65625 -6,-1.03125 -12.09375,-1.03125 -8.90625,0 -18.65625,1.40625 -9.75,1.40625 -21.5625,4.21875 l -13.125,3.1875 22.40625,12.9375 q 10.125,5.8125 22.3125,10.6875 12.28125,4.875 22.03125,4.96875 1.968748,0 2.999998,-0.1875 l -0.375,-2.34375 q 0,-0.28125 -0.28125,-1.78125 -0.1875,-1.59375 -0.1875,-2.15625 v -5.8125 q 0.1875,-2.71875 0.75,-5.25 0.65625,-2.625 1.6875,-5.15625 1.03125,-2.25 1.6875,-3.5625 l 1.3125,-2.34375 q 0.5625,-1.125 0.9375,-1.5 z m -4.59375,30.65625 q 0,0.65625 0.28125,1.3125 3.84375,-0.84375 8.4375,-2.71875 4.59375,-1.96875 7.21875,-3.65625 l 5.8125,-3.75 q 1.3125,-0.84375 1.59375,-0.84375 0.5625,0 1.125,-0.0937 6.1875,0 10.875,4.21875 4.6875,4.125 4.6875,11.15625 0,6.1875 -4.21875,9.84375 -4.21875,3.65625 -12.75,3.65625 -6.84375,0 -23.15625,-4.5 -16.218748,-4.59375 -27.281248,-4.59375 -9.1875,0 -15.5625,3 -6.28125,3 -13.21875,6.46875 l -12.46875,6.28125 1.125,2.15625 q 2.15625,-1.125 15.46875,-8.25 13.40625,-7.21875 25.21875,-7.21875 3.375,0 8.53125,0.65625 5.25,0.5625 10.59375,1.78125 l 16.687498,3.75 q 3.46875,0.75 7.3125,1.5 3.9375,0.65625 7.875,0.65625 8.90625,0 13.3125,-4.3125 4.5,-4.40625 4.5,-11.0625 0,-6.375 -4.125,-11.625 -4.125,-5.34375 -13.5,-6 l -1.21875,-0.75 q -4.21875,-6.9375 -8.0625,-10.59375 -3.84375,-3.65625 -7.78125,-5.71875 -3.46875,4.59375 -5.8125,10.125 -2.25,5.4375 -2.25,11.15625 0,3.375 0.5625,6.75 z"
         id="path13808"
         inkscape:connector-curvature="0" />
    </g>
  </g>
</svg>
