<?xml version="1.0" encoding="UTF-8" standalone="no"?>
<!-- Created with Inkscape (http://www.inkscape.org/) -->

<svg
   xmlns:dc="http://purl.org/dc/elements/1.1/"
   xmlns:cc="http://creativecommons.org/ns#"
   xmlns:rdf="http://www.w3.org/1999/02/22-rdf-syntax-ns#"
   xmlns:svg="http://www.w3.org/2000/svg"
   xmlns="http://www.w3.org/2000/svg"
   xmlns:sodipodi="http://sodipodi.sourceforge.net/DTD/sodipodi-0.dtd"
   xmlns:inkscape="http://www.inkscape.org/namespaces/inkscape"
   width="72.727341mm"
   height="38.050392mm"
   viewBox="0 0 72.727341 38.050392"
   version="1.1"
   id="svg16642"
   inkscape:version="0.92.4 (5da689c313, 2019-01-14)"
   sodipodi:docname="M12D.svg">
  <defs
     id="defs16636" />
  <sodipodi:namedview
     id="base"
     pagecolor="#ffffff"
     bordercolor="#666666"
     borderopacity="1.0"
     inkscape:pageopacity="0.0"
     inkscape:pageshadow="2"
     inkscape:zoom="0.35"
     inkscape:cx="-340.40234"
     inkscape:cy="-357.61789"
     inkscape:document-units="mm"
     inkscape:current-layer="layer1"
     showgrid="false"
     fit-margin-top="0"
     fit-margin-left="0"
     fit-margin-right="0"
     fit-margin-bottom="0"
     inkscape:window-width="1920"
     inkscape:window-height="1017"
     inkscape:window-x="-8"
     inkscape:window-y="-8"
     inkscape:window-maximized="1" />
  <metadata
     id="metadata16639">
    <rdf:RDF>
      <cc:Work
         rdf:about="">
        <dc:format>image/svg+xml</dc:format>
        <dc:type
           rdf:resource="http://purl.org/dc/dcmitype/StillImage" />
        <dc:title></dc:title>
      </cc:Work>
    </rdf:RDF>
  </metadata>
  <g
     inkscape:label="Layer 1"
     inkscape:groupmode="layer"
     id="layer1"
     transform="translate(-2.7522868,-16.163209)">
    <g
       aria-label="𓇀"
       transform="scale(0.26458333)"
       style="font-style:normal;font-variant:normal;font-weight:normal;font-stretch:normal;font-size:192px;line-height:1.25;font-family:sans-serif;-inkscape-font-specification:sans-serif;font-variant-ligatures:normal;font-variant-caps:normal;font-variant-numeric:normal;font-feature-settings:normal;text-align:start;letter-spacing:0px;word-spacing:0px;writing-mode:lr-tb;text-anchor:start;fill:#000000;fill-opacity:1;stroke:none"
       id="flowRoot17190">
      <path
         d="m 59.246094,71.589296 -16.125,5.0625 16.59375,8.15625 -0.65625,3 q -2.0625,1.59375 -4.78125,3.09375 -2.625,1.40625 -5.4375,2.53125 -2.8125,1.125 -5.53125,1.78125 -2.71875,0.65625 -4.96875,0.65625 v 81.375004 l 12.84375,-8.625 v 4.5 l -11.34375,7.6875 q 4.78125,0.5625 8.53125,2.4375 3.84375,1.78125 6.46875,4.78125 2.625,2.90625 4.03125,6.84375 1.40625,3.9375 1.40625,8.53125 l -1.59375,1.5 h -46.875 l -1.40625,-1.78125 q 0.1875,-4.5 1.5,-8.34375 1.3125,-3.84375 3.84375,-6.84375 2.625,-3 6.5625,-4.875 3.9375,-1.96875 9.375,-2.53125 l -12.1875,-7.40625 v -4.5 l 14.34375,8.625 V 95.870546 q -10.78125,0 -16.5,-4.59375 -5.625,-4.59375 -5.625,-13.875 0,-4.3125 2.0625,-7.40625 2.0625,-3.09375 5.25,-5.0625 3.1875,-1.96875 7.125,-2.90625 3.9375,-0.9375 7.59375,-0.9375 6.46875,0 12.9375,2.15625 6.5625,2.15625 12.28125,5.25 z m -3.28125,14.71875 -17.4375,-8.53125 v -2.8125 l 16.5,-5.15625 q -4.875,-2.4375 -10.3125,-4.03125 -5.34375,-1.6875 -10.78125,-1.6875 -3.09375,0 -6.46875,0.75 -3.375,0.65625 -6.1875,2.25 -2.8125,1.59375 -4.6875,4.125 -1.875,2.53125 -1.875,6.1875 0,4.40625 1.5,7.40625 1.5,2.90625 4.21875,4.78125 2.8125,1.78125 6.65625,2.625 3.9375,0.75 8.8125,0.75 6.1875,0 10.96875,-1.875 4.78125,-1.875 9.09375,-4.78125 z m 1.21875,115.593754 q -0.1875,-4.40625 -1.875,-7.875 -1.6875,-3.46875 -4.59375,-5.8125 -2.90625,-2.4375 -6.84375,-3.65625 -3.9375,-1.3125 -8.71875,-1.3125 -4.40625,0 -8.25,1.3125 -3.84375,1.3125 -6.84375,3.75 -2.90625,2.4375 -4.6875,5.90625 -1.78125,3.375 -1.875,7.6875 z m 58.312496,-130.312504 -16.124996,5.0625 16.593746,8.15625 -0.65625,3 q -2.0625,1.59375 -4.78125,3.09375 -2.625,1.40625 -5.4375,2.53125 -2.8125,1.125 -5.531246,1.78125 -2.71875,0.65625 -4.96875,0.65625 v 81.375004 l 12.843746,-8.625 v 4.5 l -11.343746,7.6875 q 4.781246,0.5625 8.531246,2.4375 3.84375,1.78125 6.46875,4.78125 2.625,2.90625 4.03125,6.84375 1.40625,3.9375 1.40625,8.53125 l -1.59375,1.5 H 68.058594 l -1.40625,-1.78125 q 0.1875,-4.5 1.5,-8.34375 1.3125,-3.84375 3.84375,-6.84375 2.625,-3 6.5625,-4.875 3.9375,-1.96875 9.375,-2.53125 l -12.1875,-7.40625 v -4.5 l 14.34375,8.625 V 95.870546 q -10.78125,0 -16.5,-4.59375 -5.625,-4.59375 -5.625,-13.875 0,-4.3125 2.0625,-7.40625 2.0625,-3.09375 5.25,-5.0625 3.1875,-1.96875 7.125,-2.90625 3.9375,-0.9375 7.59375,-0.9375 6.46875,0 12.937496,2.15625 6.5625,2.15625 12.28125,5.25 z m -3.28125,14.71875 -17.437496,-8.53125 v -2.8125 l 16.499996,-5.15625 q -4.875,-2.4375 -10.3125,-4.03125 -5.343746,-1.6875 -10.781246,-1.6875 -3.09375,0 -6.46875,0.75 -3.375,0.65625 -6.1875,2.25 -2.8125,1.59375 -4.6875,4.125 -1.875,2.53125 -1.875,6.1875 0,4.40625 1.5,7.40625 1.5,2.90625 4.21875,4.78125 2.8125,1.78125 6.65625,2.625 3.9375,0.75 8.8125,0.75 6.1875,0 10.968746,-1.875 4.78125,-1.875 9.09375,-4.78125 z m 1.21875,115.593754 q -0.1875,-4.40625 -1.875,-7.875 -1.6875,-3.46875 -4.59375,-5.8125 -2.90625,-2.4375 -6.84375,-3.65625 -3.937496,-1.3125 -8.718746,-1.3125 -4.40625,0 -8.25,1.3125 -3.84375,1.3125 -6.84375,3.75 -2.90625,2.4375 -4.6875,5.90625 -1.78125,3.375 -1.875,7.6875 z m 58.3125,-130.312504 -16.125,5.0625 16.59375,8.15625 -0.65625,3 q -2.0625,1.59375 -4.78125,3.09375 -2.625,1.40625 -5.4375,2.53125 -2.8125,1.125 -5.53125,1.78125 -2.71875,0.65625 -4.96875,0.65625 v 81.375004 l 12.84375,-8.625 v 4.5 l -11.34375,7.6875 q 4.78125,0.5625 8.53125,2.4375 3.84375,1.78125 6.46875,4.78125 2.625,2.90625 4.03125,6.84375 1.40625,3.9375 1.40625,8.53125 l -1.59375,1.5 h -46.875 l -1.40625,-1.78125 q 0.1875,-4.5 1.5,-8.34375 1.3125,-3.84375 3.84375,-6.84375 2.625,-3 6.5625,-4.875 3.9375,-1.96875 9.375,-2.53125 l -12.1875,-7.40625 v -4.5 l 14.34375,8.625 V 95.870546 q -10.78125,0 -16.5,-4.59375 -5.625,-4.59375 -5.625,-13.875 0,-4.3125 2.0625,-7.40625 2.0625,-3.09375 5.25,-5.0625 3.1875,-1.96875 7.125,-2.90625 3.9375,-0.9375 7.59375,-0.9375 6.46875,0 12.9375,2.15625 6.5625,2.15625 12.28125,5.25 z m -3.28125,14.71875 -17.4375,-8.53125 v -2.8125 l 16.5,-5.15625 q -4.875,-2.4375 -10.3125,-4.03125 -5.34375,-1.6875 -10.78125,-1.6875 -3.09375,0 -6.46875,0.75 -3.375,0.65625 -6.1875,2.25 -2.8125,1.59375 -4.6875,4.125 -1.875,2.53125 -1.875,6.1875 0,4.40625 1.5,7.40625 1.5,2.90625 4.21875,4.78125 2.8125,1.78125 6.65625,2.625 3.9375,0.75 8.8125,0.75 6.1875,0 10.96875,-1.875 4.78125,-1.875 9.09375,-4.78125 z m 1.21875,115.593754 q -0.1875,-4.40625 -1.875,-7.875 -1.6875,-3.46875 -4.59375,-5.8125 -2.90625,-2.4375 -6.84375,-3.65625 -3.9375,-1.3125 -8.71875,-1.3125 -4.40625,0 -8.25,1.3125 -3.84375,1.3125 -6.84375,3.75 -2.90625,2.4375 -4.6875,5.90625 -1.78125,3.375 -1.875,7.6875 z m 58.3125,-130.312504 -16.125,5.0625 16.59375,8.15625 -0.65625,3 q -2.0625,1.59375 -4.78125,3.09375 -2.625,1.40625 -5.4375,2.53125 -2.8125,1.125 -5.53125,1.78125 -2.71875,0.65625 -4.96875,0.65625 v 81.375004 l 12.84375,-8.625 v 4.5 l -11.34375,7.6875 q 4.78125,0.5625 8.53125,2.4375 3.84375,1.78125 6.46875,4.78125 2.625,2.90625 4.03125,6.84375 1.40625,3.9375 1.40625,8.53125 l -1.59375,1.5 h -46.875 l -1.40625,-1.78125 q 0.1875,-4.5 1.5,-8.34375 1.3125,-3.84375 3.84375,-6.84375 2.625,-3 6.5625,-4.875 3.9375,-1.96875 9.375,-2.53125 l -12.1875,-7.40625 v -4.5 l 14.34375,8.625 V 95.870546 q -10.78125,0 -16.5,-4.59375 -5.625,-4.59375 -5.625,-13.875 0,-4.3125 2.0625,-7.40625 2.0625,-3.09375 5.25,-5.0625 3.1875,-1.96875 7.125,-2.90625 3.9375,-0.9375 7.59375,-0.9375 6.46875,0 12.9375,2.15625 6.5625,2.15625 12.28125,5.25 z m -3.28125,14.71875 -17.4375,-8.53125 v -2.8125 l 16.5,-5.15625 q -4.875,-2.4375 -10.3125,-4.03125 -5.34375,-1.6875 -10.78125,-1.6875 -3.09375,0 -6.46875,0.75 -3.375,0.65625 -6.1875,2.25 -2.8125,1.59375 -4.6875,4.125 -1.875,2.53125 -1.875,6.1875 0,4.40625 1.5,7.40625 1.5,2.90625 4.21875,4.78125 2.8125,1.78125 6.65625,2.625 3.9375,0.75 8.8125,0.75 6.1875,0 10.96875,-1.875 4.78125,-1.875 9.09375,-4.78125 z m 1.21875,115.593754 q -0.1875,-4.40625 -1.875,-7.875 -1.6875,-3.46875 -4.59375,-5.8125 -2.90625,-2.4375 -6.84375,-3.65625 -3.9375,-1.3125 -8.71875,-1.3125 -4.40625,0 -8.25,1.3125 -3.84375,1.3125 -6.84375,3.75 -2.90625,2.4375 -4.6875,5.90625 -1.78125,3.375 -1.875,7.6875 z m 58.3125,-130.312504 -16.125,5.0625 16.59375,8.15625 -0.65625,3 q -2.0625,1.59375 -4.78125,3.09375 -2.625,1.40625 -5.4375,2.53125 -2.8125,1.125 -5.53125,1.78125 -2.71875,0.65625 -4.96875,0.65625 v 81.375004 l 12.84375,-8.625 v 4.5 l -11.34375,7.6875 q 4.78125,0.5625 8.53125,2.4375 3.84375,1.78125 6.46875,4.78125 2.625,2.90625 4.03125,6.84375 1.40625,3.9375 1.40625,8.53125 l -1.59375,1.5 h -46.875 l -1.40625,-1.78125 q 0.1875,-4.5 1.5,-8.34375 1.3125,-3.84375 3.84375,-6.84375 2.625,-3 6.5625,-4.875 3.9375,-1.96875 9.375,-2.53125 l -12.1875,-7.40625 v -4.5 l 14.34375,8.625 V 95.870546 q -10.78125,0 -16.5,-4.59375 -5.625,-4.59375 -5.625,-13.875 0,-4.3125 2.0625,-7.40625 2.0625,-3.09375 5.25,-5.0625 3.1875,-1.96875 7.125,-2.90625 3.9375,-0.9375 7.59375,-0.9375 6.46875,0 12.9375,2.15625 6.5625,2.15625 12.28125,5.25 z m -3.28125,14.71875 -17.4375,-8.53125 v -2.8125 l 16.5,-5.15625 q -4.875,-2.4375 -10.3125,-4.03125 -5.34375,-1.6875 -10.78125,-1.6875 -3.09375,0 -6.46875,0.75 -3.375,0.65625 -6.1875,2.25 -2.8125,1.59375 -4.6875,4.125 -1.875,2.53125 -1.875,6.1875 0,4.40625 1.5,7.40625 1.5,2.90625 4.21875,4.78125 2.8125,1.78125 6.65625,2.625 3.9375,0.75 8.8125,0.75 6.1875,0 10.96875,-1.875 4.78125,-1.875 9.09375,-4.78125 z m 1.21875,115.593754 q -0.1875,-4.40625 -1.875,-7.875 -1.6875,-3.46875 -4.59375,-5.8125 -2.90625,-2.4375 -6.84375,-3.65625 -3.9375,-1.3125 -8.71875,-1.3125 -4.40625,0 -8.25,1.3125 -3.84375,1.3125 -6.84375,3.75 -2.90625,2.4375 -4.6875,5.90625 -1.78125,3.375 -1.875,7.6875 z"
         id="path17198"
         inkscape:connector-curvature="0" />
    </g>
  </g>
</svg>
