<?xml version="1.0" encoding="UTF-8" standalone="no"?>
<!-- Created with Inkscape (http://www.inkscape.org/) -->

<svg
   xmlns:dc="http://purl.org/dc/elements/1.1/"
   xmlns:cc="http://creativecommons.org/ns#"
   xmlns:rdf="http://www.w3.org/1999/02/22-rdf-syntax-ns#"
   xmlns:svg="http://www.w3.org/2000/svg"
   xmlns="http://www.w3.org/2000/svg"
   xmlns:sodipodi="http://sodipodi.sourceforge.net/DTD/sodipodi-0.dtd"
   xmlns:inkscape="http://www.inkscape.org/namespaces/inkscape"
   width="31.303503mm"
   height="42.763279mm"
   viewBox="0 0 31.303503 42.763279"
   version="1.1"
   id="svg18337"
   inkscape:version="0.92.4 (5da689c313, 2019-01-14)"
   sodipodi:docname="M12G.svg">
  <defs
     id="defs18331" />
  <sodipodi:namedview
     id="base"
     pagecolor="#ffffff"
     bordercolor="#666666"
     borderopacity="1.0"
     inkscape:pageopacity="0.0"
     inkscape:pageshadow="2"
     inkscape:zoom="0.35"
     inkscape:cx="-368.97266"
     inkscape:cy="-363.89524"
     inkscape:document-units="mm"
     inkscape:current-layer="layer1"
     showgrid="false"
     fit-margin-top="0"
     fit-margin-left="0"
     fit-margin-right="0"
     fit-margin-bottom="0"
     inkscape:window-width="1920"
     inkscape:window-height="1017"
     inkscape:window-x="-8"
     inkscape:window-y="-8"
     inkscape:window-maximized="1" />
  <metadata
     id="metadata18334">
    <rdf:RDF>
      <cc:Work
         rdf:about="">
        <dc:format>image/svg+xml</dc:format>
        <dc:type
           rdf:resource="http://purl.org/dc/dcmitype/StillImage" />
        <dc:title></dc:title>
      </cc:Work>
    </rdf:RDF>
  </metadata>
  <g
     inkscape:label="Layer 1"
     inkscape:groupmode="layer"
     id="layer1"
     transform="translate(-10.311515,-9.7894382)">
    <g
       aria-label="𓇃"
       transform="scale(0.26458333)"
       style="font-style:normal;font-variant:normal;font-weight:normal;font-stretch:normal;font-size:192px;line-height:1.25;font-family:sans-serif;-inkscape-font-specification:sans-serif;font-variant-ligatures:normal;font-variant-caps:normal;font-variant-numeric:normal;font-feature-settings:normal;text-align:start;letter-spacing:0px;word-spacing:0px;writing-mode:lr-tb;text-anchor:start;fill:#000000;fill-opacity:1;stroke:none"
       id="flowRoot18885">
      <path
         d="m 65.785156,133.56195 0.09375,1.5 q -2.71875,1.875 -5.71875,3.28125 -3,1.3125 -6,1.5 v 43.6875 l 6.9375,-4.59375 v 2.4375 l -5.8125,3.9375 q 5.0625,0.75 7.78125,4.03125 2.8125,3.28125 3.09375,8.34375 l -1.03125,0.9375 h -25.3125 l -0.84375,-1.125 q 0.28125,-2.53125 0.9375,-4.5 0.75,-2.0625 2.0625,-3.5625 1.3125,-1.59375 3.375,-2.625 2.15625,-1.03125 5.15625,-1.5 l -6.46875,-3.9375 v -2.4375 l 7.6875,4.59375 v -43.6875 q -5.71875,0 -8.8125,-2.625 -3.09375,-2.71875 -3.09375,-7.5 0,-2.34375 1.03125,-4.03125 1.125,-1.78125 2.8125,-2.8125 1.6875,-1.125 3.75,-1.59375 2.15625,-0.5625 4.21875,-0.5625 3.75,0 7.40625,1.3125 3.75,1.21875 6.75,2.90625 l -0.28125,1.6875 -8.34375,2.625 z m -2.15625,1.03125 -9.375,-4.6875 v -1.6875 l 8.71875,-2.71875 q -2.25,-1.3125 -5.25,-2.15625 -2.90625,-0.84375 -5.90625,-0.84375 -4.125,0 -7.125,1.6875 -3,1.6875 -3,5.15625 0,4.03125 2.53125,6.375 2.625,2.25 8.4375,2.34375 3.28125,-0.28125 5.8125,-1.125 2.625,-0.84375 5.15625,-2.34375 z m 0.65625,62.15625 q -0.1875,-4.21875 -3.1875,-7.03125 -2.90625,-2.8125 -8.25,-2.8125 -5.15625,0 -8.34375,2.53125 -3.09375,2.53125 -3.5625,7.3125 z m 31.875,-63.1875 0.09375,1.5 q -2.71875,1.875 -5.71875,3.28125 -3,1.3125 -6,1.5 v 43.6875 l 6.9375,-4.59375 v 2.4375 l -5.8125,3.9375 q 5.0625,0.75 7.78125,4.03125 2.8125,3.28125 3.09375,8.34375 l -1.03125,0.9375 h -25.3125 l -0.84375,-1.125 q 0.28125,-2.53125 0.9375,-4.5 0.75,-2.0625 2.0625,-3.5625 1.3125,-1.59375 3.375,-2.625 2.15625,-1.03125 5.15625,-1.5 l -6.46875,-3.9375 v -2.4375 l 7.6875,4.59375 v -43.6875 q -5.71875,0 -8.8125,-2.625 -3.09375,-2.71875 -3.09375,-7.5 0,-2.34375 1.03125,-4.03125 1.125,-1.78125 2.8125,-2.8125 1.6875,-1.125 3.75,-1.59375 2.15625,-0.5625 4.21875,-0.5625 3.75,0 7.40625,1.3125 3.75,1.21875 6.75,2.90625 l -0.28125,1.6875 -8.34375,2.625 z m -2.15625,1.03125 -9.375,-4.6875 v -1.6875 l 8.71875,-2.71875 q -2.25,-1.3125 -5.25,-2.15625 -2.90625,-0.84375 -5.90625,-0.84375 -4.125,0 -7.125,1.6875 -3,1.6875 -3,5.15625 0,4.03125 2.53125,6.375 2.625,2.25 8.4375,2.34375 3.28125,-0.28125 5.8125,-1.125 2.625,-0.84375 5.15625,-2.34375 z m 0.65625,62.15625 q -0.1875,-4.21875 -3.1875,-7.03125 -2.90625,-2.8125 -8.25,-2.8125 -5.15625,0 -8.34375,2.53125 -3.09375,2.53125 -3.5625,7.3125 z m 31.875004,-63.1875 0.0937,1.5 q -2.71875,1.875 -5.71875,3.28125 -3,1.3125 -6,1.5 v 43.6875 l 6.9375,-4.59375 v 2.4375 l -5.8125,3.9375 q 5.0625,0.75 7.78125,4.03125 2.8125,3.28125 3.09375,8.34375 l -1.03125,0.9375 h -25.3125 l -0.843754,-1.125 q 0.281254,-2.53125 0.937504,-4.5 0.75,-2.0625 2.0625,-3.5625 1.3125,-1.59375 3.375,-2.625 2.15625,-1.03125 5.15625,-1.5 l -6.46875,-3.9375 v -2.4375 l 7.6875,4.59375 v -43.6875 q -5.71875,0 -8.8125,-2.625 -3.09375,-2.71875 -3.09375,-7.5 0,-2.34375 1.03125,-4.03125 1.125,-1.78125 2.8125,-2.8125 1.6875,-1.125 3.75,-1.59375 2.15625,-0.5625 4.21875,-0.5625 3.75,0 7.40625,1.3125 3.75,1.21875 6.75,2.90625 l -0.28125,1.6875 -8.34375,2.625 z m -2.15625,1.03125 -9.375,-4.6875 v -1.6875 l 8.71875,-2.71875 q -2.25,-1.3125 -5.25,-2.15625 -2.90625,-0.84375 -5.90625,-0.84375 -4.125,0 -7.125,1.6875 -3,1.6875 -3,5.15625 0,4.03125 2.53125,6.375 2.625,2.25 8.4375,2.34375 3.28125,-0.28125 5.8125,-1.125 2.625,-0.84375 5.15625,-2.34375 z m 0.65625,62.15625 q -0.1875,-4.21875 -3.1875,-7.03125 -2.90625,-2.8125 -8.25,-2.8125 -5.15625,0 -8.34375,2.53125 -3.09375,2.53125 -3.5625,7.3125 z m 31.875,-63.1875 0.0937,1.5 q -2.71875,1.875 -5.71875,3.28125 -3,1.3125 -6,1.5 v 43.6875 l 6.9375,-4.59375 v 2.4375 l -5.8125,3.9375 q 5.0625,0.75 7.78125,4.03125 2.8125,3.28125 3.09375,8.34375 l -1.03125,0.9375 h -25.3125 l -0.84375,-1.125 q 0.28125,-2.53125 0.9375,-4.5 0.75,-2.0625 2.0625,-3.5625 1.3125,-1.59375 3.375,-2.625 2.15625,-1.03125 5.15625,-1.5 l -6.46875,-3.9375 v -2.4375 l 7.6875,4.59375 v -43.6875 q -5.71875,0 -8.8125,-2.625 -3.09375,-2.71875 -3.09375,-7.5 0,-2.34375 1.03125,-4.03125 1.125,-1.78125 2.8125,-2.8125 1.6875,-1.125 3.75,-1.59375 2.15625,-0.5625 4.21875,-0.5625 3.75,0 7.40625,1.3125 3.75,1.21875 6.75,2.90625 l -0.28125,1.6875 -8.34375,2.625 z m -2.15625,1.03125 -9.375,-4.6875 v -1.6875 l 8.71875,-2.71875 q -2.25,-1.3125 -5.25,-2.15625 -2.90625,-0.84375 -5.90625,-0.84375 -4.125,0 -7.125,1.6875 -3,1.6875 -3,5.15625 0,4.03125 2.53125,6.375 2.625,2.25 8.4375,2.34375 3.28125,-0.28125 5.8125,-1.125 2.625,-0.84375 5.15625,-2.34375 z m 0.65625,62.15625 q -0.1875,-4.21875 -3.1875,-7.03125 -2.90625,-2.8125 -8.25,-2.8125 -5.15625,0 -8.34375,2.53125 -3.09375,2.53125 -3.5625,7.3125 z M 65.785156,49.843202 l 0.09375,1.5 q -2.71875,1.875 -5.71875,3.28125 -3,1.3125 -6,1.5 v 43.6875 l 6.9375,-4.59375 v 2.4375 l -5.8125,3.937498 q 5.0625,0.75 7.78125,4.03125 2.8125,3.28125 3.09375,8.34375 l -1.03125,0.9375 h -25.3125 l -0.84375,-1.125 q 0.28125,-2.53125 0.9375,-4.5 0.75,-2.0625 2.0625,-3.5625 1.3125,-1.59375 3.375,-2.625 2.15625,-1.03125 5.15625,-1.5 l -6.46875,-3.937498 v -2.4375 l 7.6875,4.59375 v -43.6875 q -5.71875,0 -8.8125,-2.625 -3.09375,-2.71875 -3.09375,-7.5 0,-2.34375 1.03125,-4.03125 1.125,-1.78125 2.8125,-2.8125 1.6875,-1.125 3.75,-1.59375 2.15625,-0.5625 4.21875,-0.5625 3.75,0 7.40625,1.3125 3.75,1.21875 6.75,2.90625 l -0.28125,1.6875 -8.34375,2.625 z m -2.15625,1.03125 -9.375,-4.6875 v -1.6875 l 8.71875,-2.71875 q -2.25,-1.3125 -5.25,-2.15625 -2.90625,-0.84375 -5.90625,-0.84375 -4.125,0 -7.125,1.6875 -3,1.6875 -3,5.15625 0,4.03125 2.53125,6.375 2.625,2.25 8.4375,2.34375 3.28125,-0.28125 5.8125,-1.125 2.625,-0.84375 5.15625,-2.34375 z m 0.65625,62.156248 q -0.1875,-4.21875 -3.1875,-7.03125 -2.90625,-2.8125 -8.25,-2.8125 -5.15625,0 -8.34375,2.53125 -3.09375,2.53125 -3.5625,7.3125 z m 31.875,-63.187498 0.09375,1.5 q -2.71875,1.875 -5.71875,3.28125 -3,1.3125 -6,1.5 v 43.6875 l 6.9375,-4.59375 v 2.4375 l -5.8125,3.937498 q 5.0625,0.75 7.78125,4.03125 2.8125,3.28125 3.09375,8.34375 l -1.03125,0.9375 h -25.3125 l -0.84375,-1.125 q 0.28125,-2.53125 0.9375,-4.5 0.75,-2.0625 2.0625,-3.5625 1.3125,-1.59375 3.375,-2.625 2.15625,-1.03125 5.15625,-1.5 l -6.46875,-3.937498 v -2.4375 l 7.6875,4.59375 v -43.6875 q -5.71875,0 -8.8125,-2.625 -3.09375,-2.71875 -3.09375,-7.5 0,-2.34375 1.03125,-4.03125 1.125,-1.78125 2.8125,-2.8125 1.6875,-1.125 3.75,-1.59375 2.15625,-0.5625 4.21875,-0.5625 3.75,0 7.40625,1.3125 3.75,1.21875 6.75,2.90625 l -0.28125,1.6875 -8.34375,2.625 z m -2.15625,1.03125 -9.375,-4.6875 v -1.6875 l 8.71875,-2.71875 q -2.25,-1.3125 -5.25,-2.15625 -2.90625,-0.84375 -5.90625,-0.84375 -4.125,0 -7.125,1.6875 -3,1.6875 -3,5.15625 0,4.03125 2.53125,6.375 2.625,2.25 8.4375,2.34375 3.28125,-0.28125 5.8125,-1.125 2.625,-0.84375 5.15625,-2.34375 z m 0.65625,62.156248 q -0.1875,-4.21875 -3.1875,-7.03125 -2.90625,-2.8125 -8.25,-2.8125 -5.15625,0 -8.34375,2.53125 -3.09375,2.53125 -3.5625,7.3125 z m 31.875004,-63.187498 0.0937,1.5 q -2.71875,1.875 -5.71875,3.28125 -3,1.3125 -6,1.5 v 43.6875 l 6.9375,-4.59375 v 2.4375 l -5.8125,3.937498 q 5.0625,0.75 7.78125,4.03125 2.8125,3.28125 3.09375,8.34375 l -1.03125,0.9375 h -25.3125 l -0.843754,-1.125 q 0.281254,-2.53125 0.937504,-4.5 0.75,-2.0625 2.0625,-3.5625 1.3125,-1.59375 3.375,-2.625 2.15625,-1.03125 5.15625,-1.5 l -6.46875,-3.937498 v -2.4375 l 7.6875,4.59375 v -43.6875 q -5.71875,0 -8.8125,-2.625 -3.09375,-2.71875 -3.09375,-7.5 0,-2.34375 1.03125,-4.03125 1.125,-1.78125 2.8125,-2.8125 1.6875,-1.125 3.75,-1.59375 2.15625,-0.5625 4.21875,-0.5625 3.75,0 7.40625,1.3125 3.75,1.21875 6.75,2.90625 l -0.28125,1.6875 -8.34375,2.625 z m -2.15625,1.03125 -9.375,-4.6875 v -1.6875 l 8.71875,-2.71875 q -2.25,-1.3125 -5.25,-2.15625 -2.90625,-0.84375 -5.90625,-0.84375 -4.125,0 -7.125,1.6875 -3,1.6875 -3,5.15625 0,4.03125 2.53125,6.375 2.625,2.25 8.4375,2.34375 3.28125,-0.28125 5.8125,-1.125 2.625,-0.84375 5.15625,-2.34375 z m 0.65625,62.156248 q -0.1875,-4.21875 -3.1875,-7.03125 -2.90625,-2.8125 -8.25,-2.8125 -5.15625,0 -8.34375,2.53125 -3.09375,2.53125 -3.5625,7.3125 z m 31.875,-63.187498 0.0937,1.5 q -2.71875,1.875 -5.71875,3.28125 -3,1.3125 -6,1.5 v 43.6875 l 6.9375,-4.59375 v 2.4375 l -5.8125,3.937498 q 5.0625,0.75 7.78125,4.03125 2.8125,3.28125 3.09375,8.34375 l -1.03125,0.9375 h -25.3125 l -0.84375,-1.125 q 0.28125,-2.53125 0.9375,-4.5 0.75,-2.0625 2.0625,-3.5625 1.3125,-1.59375 3.375,-2.625 2.15625,-1.03125 5.15625,-1.5 l -6.46875,-3.937498 v -2.4375 l 7.6875,4.59375 v -43.6875 q -5.71875,0 -8.8125,-2.625 -3.09375,-2.71875 -3.09375,-7.5 0,-2.34375 1.03125,-4.03125 1.125,-1.78125 2.8125,-2.8125 1.6875,-1.125 3.75,-1.59375 2.15625,-0.5625 4.21875,-0.5625 3.75,0 7.40625,1.3125 3.75,1.21875 6.75,2.90625 l -0.28125,1.6875 -8.34375,2.625 z m -2.15625,1.03125 -9.375,-4.6875 v -1.6875 l 8.71875,-2.71875 q -2.25,-1.3125 -5.25,-2.15625 -2.90625,-0.84375 -5.90625,-0.84375 -4.125,0 -7.125,1.6875 -3,1.6875 -3,5.15625 0,4.03125 2.53125,6.375 2.625,2.25 8.4375,2.34375 3.28125,-0.28125 5.8125,-1.125 2.625,-0.84375 5.15625,-2.34375 z m 0.65625,62.156248 q -0.1875,-4.21875 -3.1875,-7.03125 -2.90625,-2.8125 -8.25,-2.8125 -5.15625,0 -8.34375,2.53125 -3.09375,2.53125 -3.5625,7.3125 z"
         id="path18893"
         inkscape:connector-curvature="0" />
    </g>
  </g>
</svg>
