<?xml version="1.0" encoding="UTF-8" standalone="no"?>
<!-- Created with Inkscape (http://www.inkscape.org/) -->

<svg
   xmlns:dc="http://purl.org/dc/elements/1.1/"
   xmlns:cc="http://creativecommons.org/ns#"
   xmlns:rdf="http://www.w3.org/1999/02/22-rdf-syntax-ns#"
   xmlns:svg="http://www.w3.org/2000/svg"
   xmlns="http://www.w3.org/2000/svg"
   xmlns:sodipodi="http://sodipodi.sourceforge.net/DTD/sodipodi-0.dtd"
   xmlns:inkscape="http://www.inkscape.org/namespaces/inkscape"
   width="15.403711mm"
   height="43.160156mm"
   viewBox="0 0 15.403711 43.160156"
   version="1.1"
   id="svg18902"
   inkscape:version="0.92.4 (5da689c313, 2019-01-14)"
   sodipodi:docname="M12H.svg">
  <defs
     id="defs18896" />
  <sodipodi:namedview
     id="base"
     pagecolor="#ffffff"
     bordercolor="#666666"
     borderopacity="1.0"
     inkscape:pageopacity="0.0"
     inkscape:pageshadow="2"
     inkscape:zoom="0.35"
     inkscape:cx="-391.83008"
     inkscape:cy="-341.22532"
     inkscape:document-units="mm"
     inkscape:current-layer="layer1"
     showgrid="false"
     fit-margin-top="0"
     fit-margin-left="0"
     fit-margin-right="0"
     fit-margin-bottom="0"
     inkscape:window-width="1920"
     inkscape:window-height="1017"
     inkscape:window-x="-8"
     inkscape:window-y="-8"
     inkscape:window-maximized="1" />
  <metadata
     id="metadata18899">
    <rdf:RDF>
      <cc:Work
         rdf:about="">
        <dc:format>image/svg+xml</dc:format>
        <dc:type
           rdf:resource="http://purl.org/dc/dcmitype/StillImage" />
        <dc:title></dc:title>
      </cc:Work>
    </rdf:RDF>
  </metadata>
  <g
     inkscape:label="Layer 1"
     inkscape:groupmode="layer"
     id="layer1"
     transform="translate(-16.359208,-15.390647)">
    <g
       aria-label="𓇄"
       transform="scale(0.26458333)"
       style="font-style:normal;font-variant:normal;font-weight:normal;font-stretch:normal;font-size:192px;line-height:1.25;font-family:sans-serif;-inkscape-font-specification:sans-serif;font-variant-ligatures:normal;font-variant-caps:normal;font-variant-numeric:normal;font-feature-settings:normal;text-align:start;letter-spacing:0px;word-spacing:0px;writing-mode:lr-tb;text-anchor:start;fill:#000000;fill-opacity:1;stroke:none"
       id="flowRoot19450">
      <path
         d="m 79.923828,67.731874 q -1.6875,1.40625 -3.9375,2.25 -2.25,0.84375 -4.03125,1.03125 v 28.875 l 4.59375,-3 v 1.59375 l -3.84375,2.624996 q 3.5625,0.46875 5.25,2.71875 1.78125,2.25 1.96875,5.53125 l -0.75,0.75 h -16.78125 l -0.5625,-0.84375 q 0.1875,-3.09375 1.78125,-5.34375 1.6875,-2.25 6,-2.8125 l -4.40625,-2.624996 v -1.59375 l 5.15625,3 v -28.96875 q -4.40625,0 -6.28125,-1.96875 -1.875,-2.0625 -1.875,-4.6875 0,-2.25 1.96875,-4.125 1.96875,-1.96875 5.625,-1.96875 4.40625,0 9.9375,2.8125 l -0.1875,1.21875 -5.4375,1.78125 5.625,2.71875 z m -1.875,-0.28125 -6.09375,-3 v -1.3125 l 5.625,-1.78125 q -1.21875,-0.65625 -3,-1.125 -1.78125,-0.5625 -4.3125,-0.75 -3.1875,0 -4.875,1.40625 -1.6875,1.40625 -1.6875,3.375 0,1.40625 0.5625,2.4375 0.65625,1.03125 1.6875,1.6875 1.03125,0.65625 2.34375,0.9375 1.3125,0.28125 2.71875,0.28125 2.4375,0 4.03125,-0.46875 1.59375,-0.5625 3,-1.6875 z m -14.8125,41.249996 h 15.28125 q -0.1875,-2.90625 -2.25,-4.6875 -1.96875,-1.78125 -5.15625,-1.78125 -3.09375,0 -5.4375,1.59375 -2.25,1.59375 -2.4375,4.875 z m 36.75,-40.968746 q -1.6875,1.40625 -3.9375,2.25 -2.25,0.84375 -4.03125,1.03125 v 28.875 l 4.59375,-3 v 1.59375 l -3.84375,2.624996 q 3.5625,0.46875 5.25,2.71875 1.78125,2.25 1.96875,5.53125 l -0.75,0.75 h -16.78125 l -0.5625,-0.84375 q 0.1875,-3.09375 1.78125,-5.34375 1.6875,-2.25 6,-2.8125 l -4.40625,-2.624996 v -1.59375 l 5.15625,3 v -28.96875 q -4.40625,0 -6.28125,-1.96875 -1.875,-2.0625 -1.875,-4.6875 0,-2.25 1.96875,-4.125 1.96875,-1.96875 5.625,-1.96875 4.40625,0 9.9375,2.8125 l -0.1875,1.21875 -5.4375,1.78125 5.625,2.71875 z m -1.875,-0.28125 -6.09375,-3 v -1.3125 l 5.625,-1.78125 q -1.21875,-0.65625 -3,-1.125 -1.78125,-0.5625 -4.3125,-0.75 -3.1875,0 -4.875,1.40625 -1.6875,1.40625 -1.6875,3.375 0,1.40625 0.5625,2.4375 0.65625,1.03125 1.6875,1.6875 1.03125,0.65625 2.34375,0.9375 1.3125,0.28125 2.71875,0.28125 2.4375,0 4.03125,-0.46875 1.59375,-0.5625 3,-1.6875 z m -14.8125,41.249996 h 15.28125 q -0.1875,-2.90625 -2.25,-4.6875 -1.96875,-1.78125 -5.15625,-1.78125 -3.09375,0 -5.4375,1.59375 -2.25,1.59375 -2.4375,4.875 z M 120.04883,67.731874 q -1.6875,1.40625 -3.9375,2.25 -2.25,0.84375 -4.03125,1.03125 v 28.875 l 4.59375,-3 v 1.59375 l -3.84375,2.624996 q 3.5625,0.46875 5.25,2.71875 1.78125,2.25 1.96875,5.53125 l -0.75,0.75 h -16.78125 l -0.5625,-0.84375 q 0.1875,-3.09375 1.78125,-5.34375 1.6875,-2.25 6,-2.8125 l -4.40625,-2.624996 v -1.59375 l 5.15625,3 v -28.96875 q -4.40625,0 -6.28125,-1.96875 -1.875,-2.0625 -1.875,-4.6875 0,-2.25 1.96875,-4.125 1.96875,-1.96875 5.625,-1.96875 4.40625,0 9.9375,2.8125 l -0.1875,1.21875 -5.4375,1.78125 5.625,2.71875 z m -1.875,-0.28125 -6.09375,-3 v -1.3125 l 5.625,-1.78125 q -1.21875,-0.65625 -3,-1.125 -1.78125,-0.5625 -4.3125,-0.75 -3.1875,0 -4.875,1.40625 -1.6875,1.40625 -1.6875,3.375 0,1.40625 0.5625,2.4375 0.65625,1.03125 1.6875,1.6875 1.03125,0.65625 2.34375,0.9375 1.3125,0.28125 2.71875,0.28125 2.4375,0 4.03125,-0.46875 1.59375,-0.5625 3,-1.6875 z m -14.8125,41.249996 h 15.28125 q -0.1875,-2.90625 -2.25,-4.6875 -1.96875,-1.78125 -5.15625,-1.78125 -3.09375,0 -5.4375,1.59375 -2.25,1.59375 -2.4375,4.875 z m -23.437502,14.625 q -1.6875,1.40625 -3.9375,2.25 -2.25,0.84375 -4.03125,1.03125 v 28.875 l 4.59375,-3 v 1.59375 l -3.84375,2.625 q 3.5625,0.46875 5.25,2.71875 1.78125,2.25 1.96875,5.53125 l -0.75,0.75 h -16.78125 l -0.5625,-0.84375 q 0.1875,-3.09375 1.78125,-5.34375 1.6875,-2.25 6,-2.8125 l -4.40625,-2.625 v -1.59375 l 5.15625,3 v -28.96875 q -4.40625,0 -6.28125,-1.96875 -1.875,-2.0625 -1.875,-4.6875 0,-2.25 1.96875,-4.125 1.96875,-1.96875 5.625,-1.96875 4.40625,0 9.9375,2.8125 l -0.1875,1.21875 -5.4375,1.78125 5.625,2.71875 z m -1.875,-0.28125 -6.09375,-3 v -1.3125 l 5.625,-1.78125 q -1.21875,-0.65625 -3,-1.125 -1.78125,-0.5625 -4.3125,-0.75 -3.1875,0 -4.875,1.40625 -1.6875,1.40625 -1.6875,3.375 0,1.40625 0.5625,2.4375 0.65625,1.03125 1.6875,1.6875 1.03125,0.65625 2.34375,0.9375 1.3125,0.28125 2.71875,0.28125 2.4375,0 4.03125,-0.46875 1.59375,-0.5625 3,-1.6875 z m -14.8125,41.25 h 15.28125 q -0.1875,-2.90625 -2.25,-4.6875 -1.96875,-1.78125 -5.15625,-1.78125 -3.09375,0 -5.4375,1.59375 -2.25,1.59375 -2.4375,4.875 z m 36.75,-40.96875 q -1.6875,1.40625 -3.9375,2.25 -2.25,0.84375 -4.03125,1.03125 v 28.875 l 4.59375,-3 v 1.59375 l -3.84375,2.625 q 3.5625,0.46875 5.25,2.71875 1.78125,2.25 1.96875,5.53125 l -0.75,0.75 h -16.78125 l -0.5625,-0.84375 q 0.1875,-3.09375 1.78125,-5.34375 1.6875,-2.25 6,-2.8125 l -4.40625,-2.625 v -1.59375 l 5.15625,3 v -28.96875 q -4.40625,0 -6.28125,-1.96875 -1.875,-2.0625 -1.875,-4.6875 0,-2.25 1.96875,-4.125 1.96875,-1.96875 5.625,-1.96875 4.40625,0 9.9375,2.8125 l -0.1875,1.21875 -5.4375,1.78125 5.625,2.71875 z m -1.875,-0.28125 -6.09375,-3 v -1.3125 l 5.625,-1.78125 q -1.21875,-0.65625 -3,-1.125 -1.78125,-0.5625 -4.3125,-0.75 -3.1875,0 -4.875,1.40625 -1.6875,1.40625 -1.6875,3.375 0,1.40625 0.5625,2.4375 0.65625,1.03125 1.6875,1.6875 1.03125,0.65625 2.34375,0.9375 1.3125,0.28125 2.71875,0.28125 2.4375,0 4.03125,-0.46875 1.59375,-0.5625 3,-1.6875 z m -14.8125,41.25 h 15.28125 q -0.1875,-2.90625 -2.25,-4.6875 -1.96875,-1.78125 -5.15625,-1.78125 -3.09375,0 -5.4375,1.59375 -2.25,1.59375 -2.4375,4.875 z m 36.750002,-40.96875 q -1.6875,1.40625 -3.9375,2.25 -2.25,0.84375 -4.03125,1.03125 v 28.875 l 4.59375,-3 v 1.59375 l -3.84375,2.625 q 3.5625,0.46875 5.25,2.71875 1.78125,2.25 1.96875,5.53125 l -0.75,0.75 h -16.78125 l -0.5625,-0.84375 q 0.1875,-3.09375 1.78125,-5.34375 1.6875,-2.25 6,-2.8125 l -4.40625,-2.625 v -1.59375 l 5.15625,3 v -28.96875 q -4.40625,0 -6.28125,-1.96875 -1.875,-2.0625 -1.875,-4.6875 0,-2.25 1.96875,-4.125 1.96875,-1.96875 5.625,-1.96875 4.40625,0 9.9375,2.8125 l -0.1875,1.21875 -5.4375,1.78125 5.625,2.71875 z m -1.875,-0.28125 -6.09375,-3 v -1.3125 l 5.625,-1.78125 q -1.21875,-0.65625 -3,-1.125 -1.78125,-0.5625 -4.3125,-0.75 -3.1875,0 -4.875,1.40625 -1.6875,1.40625 -1.6875,3.375 0,1.40625 0.5625,2.4375 0.65625,1.03125 1.6875,1.6875 1.03125,0.65625 2.34375,0.9375 1.3125,0.28125 2.71875,0.28125 2.4375,0 4.03125,-0.46875 1.59375,-0.5625 3,-1.6875 z m -14.8125,41.25 h 15.28125 q -0.1875,-2.90625 -2.25,-4.6875 -1.96875,-1.78125 -5.15625,-1.78125 -3.09375,0 -5.4375,1.59375 -2.25,1.59375 -2.4375,4.875 z m -23.437502,14.625 q -1.6875,1.40625 -3.9375,2.25 -2.25,0.84375 -4.03125,1.03125 v 28.875 l 4.59375,-3 v 1.59375 l -3.84375,2.625 q 3.5625,0.46875 5.25,2.71875 1.78125,2.25 1.96875,5.53125 l -0.75,0.75 h -16.78125 l -0.5625,-0.84375 q 0.1875,-3.09375 1.78125,-5.34375 1.6875,-2.25 6,-2.8125 l -4.40625,-2.625 v -1.59375 l 5.15625,3 v -28.96875 q -4.40625,0 -6.28125,-1.96875 -1.875,-2.0625 -1.875,-4.6875 0,-2.25 1.96875,-4.125 1.96875,-1.96875 5.625,-1.96875 4.40625,0 9.9375,2.8125 l -0.1875,1.21875 -5.4375,1.78125 5.625,2.71875 z m -1.875,-0.28125 -6.09375,-3 v -1.3125 l 5.625,-1.78125 q -1.21875,-0.65625 -3,-1.125 -1.78125,-0.5625 -4.3125,-0.75 -3.1875,0 -4.875,1.40625 -1.6875,1.40625 -1.6875,3.375 0,1.40625 0.5625,2.4375 0.65625,1.03125 1.6875,1.6875 1.03125,0.65625 2.34375,0.9375 1.3125,0.28125 2.71875,0.28125 2.4375,0 4.03125,-0.46875 1.59375,-0.5625 3,-1.6875 z m -14.8125,41.25 h 15.28125 q -0.1875,-2.90625 -2.25,-4.6875 -1.96875,-1.78125 -5.15625,-1.78125 -3.09375,0 -5.4375,1.59375 -2.25,1.59375 -2.4375,4.875 z m 36.75,-40.96875 q -1.6875,1.40625 -3.9375,2.25 -2.25,0.84375 -4.03125,1.03125 v 28.875 l 4.59375,-3 v 1.59375 l -3.84375,2.625 q 3.5625,0.46875 5.25,2.71875 1.78125,2.25 1.96875,5.53125 l -0.75,0.75 h -16.78125 l -0.5625,-0.84375 q 0.1875,-3.09375 1.78125,-5.34375 1.6875,-2.25 6,-2.8125 l -4.40625,-2.625 v -1.59375 l 5.15625,3 v -28.96875 q -4.40625,0 -6.28125,-1.96875 -1.875,-2.0625 -1.875,-4.6875 0,-2.25 1.96875,-4.125 1.96875,-1.96875 5.625,-1.96875 4.40625,0 9.9375,2.8125 l -0.1875,1.21875 -5.4375,1.78125 5.625,2.71875 z m -1.875,-0.28125 -6.09375,-3 v -1.3125 l 5.625,-1.78125 q -1.21875,-0.65625 -3,-1.125 -1.78125,-0.5625 -4.3125,-0.75 -3.1875,0 -4.875,1.40625 -1.6875,1.40625 -1.6875,3.375 0,1.40625 0.5625,2.4375 0.65625,1.03125 1.6875,1.6875 1.03125,0.65625 2.34375,0.9375 1.3125,0.28125 2.71875,0.28125 2.4375,0 4.03125,-0.46875 1.59375,-0.5625 3,-1.6875 z m -14.8125,41.25 h 15.28125 q -0.1875,-2.90625 -2.25,-4.6875 -1.96875,-1.78125 -5.15625,-1.78125 -3.09375,0 -5.4375,1.59375 -2.25,1.59375 -2.4375,4.875 z m 36.750002,-40.96875 q -1.6875,1.40625 -3.9375,2.25 -2.25,0.84375 -4.03125,1.03125 v 28.875 l 4.59375,-3 v 1.59375 l -3.84375,2.625 q 3.5625,0.46875 5.25,2.71875 1.78125,2.25 1.96875,5.53125 l -0.75,0.75 h -16.78125 l -0.5625,-0.84375 q 0.1875,-3.09375 1.78125,-5.34375 1.6875,-2.25 6,-2.8125 l -4.40625,-2.625 v -1.59375 l 5.15625,3 v -28.96875 q -4.40625,0 -6.28125,-1.96875 -1.875,-2.0625 -1.875,-4.6875 0,-2.25 1.96875,-4.125 1.96875,-1.96875 5.625,-1.96875 4.40625,0 9.9375,2.8125 l -0.1875,1.21875 -5.4375,1.78125 5.625,2.71875 z m -1.875,-0.28125 -6.09375,-3 v -1.3125 l 5.625,-1.78125 q -1.21875,-0.65625 -3,-1.125 -1.78125,-0.5625 -4.3125,-0.75 -3.1875,0 -4.875,1.40625 -1.6875,1.40625 -1.6875,3.375 0,1.40625 0.5625,2.4375 0.65625,1.03125 1.6875,1.6875 1.03125,0.65625 2.34375,0.9375 1.3125,0.28125 2.71875,0.28125 2.4375,0 4.03125,-0.46875 1.59375,-0.5625 3,-1.6875 z m -14.8125,41.25 h 15.28125 q -0.1875,-2.90625 -2.25,-4.6875 -1.96875,-1.78125 -5.15625,-1.78125 -3.09375,0 -5.4375,1.59375 -2.25,1.59375 -2.4375,4.875 z"
         id="path19458"
         inkscape:connector-curvature="0" />
    </g>
  </g>
</svg>
