<?xml version="1.0" encoding="UTF-8" standalone="no"?>
<!-- Created with Inkscape (http://www.inkscape.org/) -->

<svg
   xmlns:dc="http://purl.org/dc/elements/1.1/"
   xmlns:cc="http://creativecommons.org/ns#"
   xmlns:rdf="http://www.w3.org/1999/02/22-rdf-syntax-ns#"
   xmlns:svg="http://www.w3.org/2000/svg"
   xmlns="http://www.w3.org/2000/svg"
   xmlns:sodipodi="http://sodipodi.sourceforge.net/DTD/sodipodi-0.dtd"
   xmlns:inkscape="http://www.inkscape.org/namespaces/inkscape"
   width="13.965039mm"
   height="37.951172mm"
   viewBox="0 0 13.965039 37.951172"
   version="1.1"
   id="svg19467"
   inkscape:version="0.92.4 (5da689c313, 2019-01-14)"
   sodipodi:docname="M13.svg">
  <defs
     id="defs19461" />
  <sodipodi:namedview
     id="base"
     pagecolor="#ffffff"
     bordercolor="#666666"
     borderopacity="1.0"
     inkscape:pageopacity="0.0"
     inkscape:pageshadow="2"
     inkscape:zoom="0.35"
     inkscape:cx="-346.11523"
     inkscape:cy="-334.76047"
     inkscape:document-units="mm"
     inkscape:current-layer="layer1"
     showgrid="false"
     fit-margin-top="0"
     fit-margin-left="0"
     fit-margin-right="0"
     fit-margin-bottom="0"
     inkscape:window-width="1920"
     inkscape:window-height="1017"
     inkscape:window-x="-8"
     inkscape:window-y="-8"
     inkscape:window-maximized="1" />
  <metadata
     id="metadata19464">
    <rdf:RDF>
      <cc:Work
         rdf:about="">
        <dc:format>image/svg+xml</dc:format>
        <dc:type
           rdf:resource="http://purl.org/dc/dcmitype/StillImage" />
        <dc:title></dc:title>
      </cc:Work>
    </rdf:RDF>
  </metadata>
  <g
     inkscape:label="Layer 1"
     inkscape:groupmode="layer"
     id="layer1"
     transform="translate(-4.2638223,-22.310121)">
    <g
       aria-label="𓇅"
       transform="scale(0.26458333)"
       style="font-style:normal;font-variant:normal;font-weight:normal;font-stretch:normal;font-size:192px;line-height:1.25;font-family:sans-serif;-inkscape-font-specification:sans-serif;font-variant-ligatures:normal;font-variant-caps:normal;font-variant-numeric:normal;font-feature-settings:normal;text-align:start;letter-spacing:0px;word-spacing:0px;writing-mode:lr-tb;text-anchor:start;fill:#000000;fill-opacity:1;stroke:none"
       id="flowRoot20015">
      <path
         d="m 67.958984,94.727968 q -2.0625,0 -3.9375,0.84375 l -3.75,1.78125 q -2.53125,7.031252 -6.1875,11.906252 -3.65625,4.875 -8.34375,7.40625 2.4375,5.90625 3.1875,17.34375 0.84375,11.4375 1.59375,26.8125 0.84375,15.375 0.84375,34.3125 v 8.25 q 0,13.40625 -2.625,18.9375 -2.625,5.4375 -6.75,5.4375 -4.03125,0 -6.375,-6.5625 -2.25,-6.5625 -2.25,-22.125 v -8.25 q 0,-6.1875 0.1875,-12.46875 0.1875,-6.375 0.46875,-13.78125 l 0.75,-12.75 q 0.28125,-6.28125 0.75,-12.75 l 0.375,-5.53125 q 0.46875,-6.46875 1.03125,-10.125 0.65625,-3.75 1.78125,-6.65625 -4.125,-1.3125 -7.40625,-5.34375 -3.1875,-4.125 -6.75,-14.062502 -1.875,-0.9375 -3.9375,-1.5 -1.96875,-0.65625 -4.03125,-1.125 l -0.46875,-2.90625 q 6.84375,-3.1875 13.21875,-5.34375 6.46875,-2.15625 13.40625,-2.15625 4.3125,0 9.5625,1.21875 5.34375,1.125 16.59375,6.46875 z m -9.46875,0.09375 q 1.125,-0.46875 2.25,-1.03125 1.21875,-0.65625 2.53125,-1.125 -5.0625,-2.25 -10.3125,-3.9375 -5.25,-1.6875 -10.78125,-1.6875 -4.03125,0 -9.1875,1.40625 -5.0625,1.3125 -12,4.40625 5.8125,1.78125 6.1875,2.8125 0.375,1.03125 2.0625,5.531252 1.6875,4.40625 4.6875,8.15625 3,3.75 7.3125,5.15625 l 0.46875,1.125 0.375,1.21875 q -1.3125,1.875 -2.15625,6.9375 -0.75,4.96875 -1.125,10.96875 l -0.28125,4.59375 q -1.03125,12.9375 -1.59375,25.875 -0.5625,12.9375 -0.5625,26.0625 v 6.28125 q 0,3.09375 0.09375,6.28125 0,9 1.125,13.78125 1.21875,4.6875 3.46875,6.75 0.5625,0.1875 1.3125,0.375 3.28125,-0.5625 4.59375,-7.03125 1.40625,-6.46875 1.40625,-21 0,-18.75 -0.75,-32.90625 -0.65625,-14.25 -1.59375,-27.9375 -0.84375,-13.78125 -3.46875,-19.21875 l 0.75,-2.15625 q 4.875,-2.15625 8.34375,-6.84375 3.46875,-4.78125 6.09375,-12.187502 z"
         id="path20023"
         inkscape:connector-curvature="0" />
    </g>
  </g>
</svg>
