<?xml version="1.0" encoding="UTF-8" standalone="no"?>
<!-- Created with Inkscape (http://www.inkscape.org/) -->

<svg
   xmlns:dc="http://purl.org/dc/elements/1.1/"
   xmlns:cc="http://creativecommons.org/ns#"
   xmlns:rdf="http://www.w3.org/1999/02/22-rdf-syntax-ns#"
   xmlns:svg="http://www.w3.org/2000/svg"
   xmlns="http://www.w3.org/2000/svg"
   xmlns:sodipodi="http://sodipodi.sourceforge.net/DTD/sodipodi-0.dtd"
   xmlns:inkscape="http://www.inkscape.org/namespaces/inkscape"
   width="33.114258mm"
   height="37.951157mm"
   viewBox="0 0 33.114258 37.951157"
   version="1.1"
   id="svg20032"
   inkscape:version="0.92.4 (5da689c313, 2019-01-14)"
   sodipodi:docname="M14.svg">
  <defs
     id="defs20026" />
  <sodipodi:namedview
     id="base"
     pagecolor="#ffffff"
     bordercolor="#666666"
     borderopacity="1.0"
     inkscape:pageopacity="0.0"
     inkscape:pageshadow="2"
     inkscape:zoom="0.35"
     inkscape:cx="-334.68755"
     inkscape:cy="-320.47537"
     inkscape:document-units="mm"
     inkscape:current-layer="layer1"
     showgrid="false"
     fit-margin-top="0"
     fit-margin-left="0"
     fit-margin-right="0"
     fit-margin-bottom="0"
     inkscape:window-width="1920"
     inkscape:window-height="1017"
     inkscape:window-x="-8"
     inkscape:window-y="-8"
     inkscape:window-maximized="1" />
  <metadata
     id="metadata20029">
    <rdf:RDF>
      <cc:Work
         rdf:about="">
        <dc:format>image/svg+xml</dc:format>
        <dc:type
           rdf:resource="http://purl.org/dc/dcmitype/StillImage" />
        <dc:title></dc:title>
      </cc:Work>
    </rdf:RDF>
  </metadata>
  <g
     inkscape:label="Layer 1"
     inkscape:groupmode="layer"
     id="layer1"
     transform="translate(-1.2402476,-26.089735)">
    <g
       aria-label="𓇆"
       transform="scale(0.26458333)"
       style="font-style:normal;font-variant:normal;font-weight:normal;font-stretch:normal;font-size:192px;line-height:1.25;font-family:sans-serif;-inkscape-font-specification:sans-serif;font-variant-ligatures:normal;font-variant-caps:normal;font-variant-numeric:normal;font-feature-settings:normal;text-align:start;letter-spacing:0px;word-spacing:0px;writing-mode:lr-tb;text-anchor:start;fill:#000000;fill-opacity:1;stroke:none"
       id="flowRoot20580">
      <path
         d="m 19.96875,120.35687 q 3,0 8.8125,3.9375 5.90625,3.9375 5.90625,13.03125 0,2.4375 -0.5625,4.78125 -0.46875,2.25 -1.3125,4.21875 0,1.6875 0.75,2.4375 0.75,0.65625 2.90625,1.21875 0.46875,0.0937 1.03125,0.1875 0.5625,0 1.03125,0 0.65625,0 3.46875,-0.375 2.90625,-0.46875 7.125,-1.03125 4.3125,-0.5625 9.5625,-1.03125 5.25,-0.5625 10.59375,-0.65625 0.28125,-4.03125 0.84375,-8.15625 0.5625,-4.21875 1.96875,-7.875 -4.21875,-1.3125 -7.40625,-5.34375 -3.28125,-4.03125 -6.75,-14.0625 -1.875,-0.9375 -3.9375,-1.5 -1.96875,-0.65625 -4.03125,-1.125 L 49.5,106.10687 q 6.84375,-3.1875 13.21875,-5.34375 6.375,-2.156246 13.40625,-2.156246 3.9375,0 6.75,0.46875 2.8125,0.46875 5.625,1.499996 2.8125,0.9375 6,2.34375 3.1875,1.40625 7.78125,3.375 l -0.9375,2.71875 q -0.5625,0 -1.125,0.0937 -0.5625,0.0937 -1.40625,0.375 -0.84375,0.28125 -2.0625,0.84375 -1.21875,0.46875 -3.09375,1.3125 -5.15625,14.25 -14.53125,19.3125 1.3125,3.1875 1.96875,7.40625 0.75,4.21875 1.21875,8.71875 16.03125,0.375 24.75,3.5625 8.71875,3.1875 12.5625,10.96875 3.9375,7.78125 3.9375,20.4375 -0.28125,4.40625 -0.46875,7.03125 -0.0937,2.53125 -0.1875,4.03125 0,1.5 -0.0937,2.15625 0,0.65625 0,1.21875 0,6.65625 3.46875,15 3.5625,8.53125 3.5625,13.21875 0,1.78125 -0.375,2.90625 l -1.96875,0.9375 q -7.59375,-3.5625 -10.78125,-15.5625 -3.28125,-12.28125 -3.28125,-26.25 0,-12.375 -4.78125,-19.6875 -4.6875,-7.3125 -17.53125,-7.78125 l -8.15625,-0.28125 q 0.9375,12.9375 1.3125,25.40625 0.46875,12.46875 0.46875,25.03125 v 8.25 q 0,13.59375 -2.625,18.9375 -2.625,5.4375 -6.75,5.4375 -4.03125,0 -6.375,-6.5625 -2.25,-6.5625 -2.25,-22.125 0,-17.4375 0.5625,-31.125 0.5625,-13.6875 1.125,-23.15625 -3.75,0.0937 -6,0.1875 -2.25,0 -3.5625,0.0937 -1.3125,0 -1.96875,0.0937 -0.65625,0 -1.125,0 -4.03125,0 -6.75,0.0937 -2.625,0 -4.59375,0.0937 -1.96875,0 -3.5625,0.0937 -1.5,0 -3.1875,0 -8.25,0 -12.1875,-2.15625 -3.84375,-2.15625 -3.84375,-6.46875 0,-1.6875 0.5625,-3.5625 l 1.6875,-4.96875 q 0.1875,-0.46875 0.1875,-1.03125 0.09375,-0.5625 0.28125,-2.15625 0,-1.3125 -1.40625,-2.4375 -1.40625,-1.125 -3.46875,-1.125 -2.34375,0 -4.59375,0.65625 -2.15625,0.65625 -3.84375,0.65625 -2.90625,-0.1875 -4.3125,-1.96875 -1.40625,-1.875 -2.0625,-3.75 0.84375,-3 2.625,-4.96875 1.875,-2.0625 4.59375,-3.375 5.625,-2.71875 8.0625,-2.71875 z m 51.46875,38.625 q -0.5625,8.90625 -0.9375,16.6875 -0.28125,7.78125 -0.46875,14.625 -0.09375,6.75 -0.1875,12.75 0,6 0,11.34375 0,5.71875 0.1875,9.9375 0.1875,4.21875 0.84375,7.21875 0.65625,2.90625 1.78125,4.78125 1.21875,1.78125 3.09375,2.71875 1.6875,-0.28125 2.8125,-1.96875 1.125,-1.6875 1.78125,-5.0625 0.75,-3.375 1.03125,-8.53125 0.375,-5.15625 0.375,-12.46875 0,-10.40625 -0.28125,-19.78125 -0.28125,-9.375 -0.65625,-16.59375 -0.375,-8.4375 -0.84375,-15.65625 z m 25.21875,-52.03125 q -5.0625,-2.25 -10.3125,-3.9375 -5.15625,-1.6875 -10.78125,-1.6875 -4.03125,0 -9.09375,1.40625 -5.0625,1.3125 -12.09375,4.40625 5.71875,1.875 6.1875,2.8125 0.1875,0.46875 0.65625,1.875 0.5625,1.40625 1.40625,3.65625 1.6875,4.5 4.6875,8.25 3,3.65625 7.3125,5.0625 l 0.84375,2.34375 q -0.9375,1.03125 -1.59375,3.65625 -0.5625,2.625 -0.9375,5.34375 -0.375,3.1875 -0.65625,6.84375 0.9375,0 1.78125,0 0.84375,0 1.78125,-0.0937 1.40625,0 2.0625,0 0.75,0 1.3125,0.0937 -0.375,-4.59375 -1.125,-8.90625 -0.75,-4.40625 -2.15625,-7.125 l 0.75,-2.15625 q 4.875,-2.15625 8.34375,-6.84375 3.46875,-4.78125 6.09375,-12.1875 z m -27.9375,49.125 q 2.53125,-0.0937 4.40625,-0.0937 1.96875,0 4.59375,0 4.78125,0 8.0625,0.28125 3.375,0.1875 6.75,0.1875 11.625,0 17.53125,7.21875 6,7.21875 6.1875,21.46875 0.0937,14.25 2.8125,25.03125 2.71875,10.96875 7.96875,14.71875 0,-2.15625 -3.65625,-11.71875 -3.5625,-9.65625 -3.5625,-16.59375 0,-1.21875 0.0937,-3.1875 0.0937,-2.0625 0.1875,-4.03125 0.1875,-1.96875 0.28125,-3.5625 0.1875,-1.59375 0.1875,-1.96875 0,-18.9375 -7.59375,-26.15625 -3.84375,-3.5625 -11.4375,-5.53125 Q 93.9375,150.07562 82.5,150.07562 H 69.09375 q -7.125,0 -12.28125,0.46875 -5.15625,0.46875 -8.71875,1.03125 -3.5625,0.46875 -5.8125,0.9375 -2.25,0.46875 -3.46875,0.46875 -3.9375,0 -6.375,-1.3125 Q 30,150.35687 30,147.07562 q 0,-2.25 0.84375,-4.96875 0.84375,-2.8125 0.84375,-5.34375 0,-4.875 -3.09375,-8.34375 Q 25.5,124.85687 19.5,123.45062 q -2.90625,0.84375 -4.96875,1.6875 -1.96875,0.84375 -3.375,1.78125 -1.3125,0.84375 -2.15625,1.96875 -0.75,1.03125 -1.21875,2.25 0.46875,1.03125 1.03125,1.875 0.5625,0.75 1.78125,1.125 1.5,0 3.5625,-0.65625 2.15625,-0.65625 4.3125,-0.65625 3.84375,0 6.28125,1.6875 2.53125,1.6875 2.53125,4.96875 0,0.9375 -0.28125,2.25 -0.28125,1.3125 -0.65625,2.4375 l -1.03125,3.46875 q -0.5625,1.6875 -0.5625,3.1875 0,3.28125 3.46875,4.59375 3.46875,1.3125 9.75,1.3125 4.875,0 9.75,-0.0937 4.96875,-0.0937 9.84375,-0.28125 z"
         id="path20588"
         inkscape:connector-curvature="0" />
    </g>
  </g>
</svg>
