<?xml version="1.0" encoding="UTF-8" standalone="no"?>
<!-- Created with Inkscape (http://www.inkscape.org/) -->

<svg
   xmlns:dc="http://purl.org/dc/elements/1.1/"
   xmlns:cc="http://creativecommons.org/ns#"
   xmlns:rdf="http://www.w3.org/1999/02/22-rdf-syntax-ns#"
   xmlns:svg="http://www.w3.org/2000/svg"
   xmlns="http://www.w3.org/2000/svg"
   xmlns:sodipodi="http://sodipodi.sourceforge.net/DTD/sodipodi-0.dtd"
   xmlns:inkscape="http://www.inkscape.org/namespaces/inkscape"
   width="24.432617mm"
   height="37.256641mm"
   viewBox="0 0 24.432617 37.256641"
   version="1.1"
   id="svg20597"
   inkscape:version="0.92.4 (5da689c313, 2019-01-14)"
   sodipodi:docname="M15.svg">
  <defs
     id="defs20591" />
  <sodipodi:namedview
     id="base"
     pagecolor="#ffffff"
     bordercolor="#666666"
     borderopacity="1.0"
     inkscape:pageopacity="0.0"
     inkscape:pageshadow="2"
     inkscape:zoom="0.35"
     inkscape:cx="-357.54492"
     inkscape:cy="-370.54758"
     inkscape:document-units="mm"
     inkscape:current-layer="layer1"
     showgrid="false"
     fit-margin-top="0"
     fit-margin-left="0"
     fit-margin-right="0"
     fit-margin-bottom="0"
     inkscape:window-width="1920"
     inkscape:window-height="1017"
     inkscape:window-x="-8"
     inkscape:window-y="-8"
     inkscape:window-maximized="1" />
  <metadata
     id="metadata20594">
    <rdf:RDF>
      <cc:Work
         rdf:about="">
        <dc:format>image/svg+xml</dc:format>
        <dc:type
           rdf:resource="http://purl.org/dc/dcmitype/StillImage" />
        <dc:title></dc:title>
      </cc:Work>
    </rdf:RDF>
  </metadata>
  <g
     inkscape:label="Layer 1"
     inkscape:groupmode="layer"
     id="layer1"
     transform="translate(-7.2879272,-13.535979)">
    <g
       aria-label="𓇇"
       transform="scale(0.26458333)"
       style="font-style:normal;font-variant:normal;font-weight:normal;font-stretch:normal;font-size:192px;line-height:1.25;font-family:sans-serif;-inkscape-font-specification:sans-serif;font-variant-ligatures:normal;font-variant-caps:normal;font-variant-numeric:normal;font-feature-settings:normal;text-align:start;letter-spacing:0px;word-spacing:0px;writing-mode:lr-tb;text-anchor:start;fill:#000000;fill-opacity:1;stroke:none"
       id="flowRoot21145">
      <path
         d="m 60.919922,160.09711 -11.0625,-14.90625 q -1.3125,2.71875 -3.28125,6.75 -1.96875,3.9375 -4.5,9.28125 1.5,2.4375 1.5,5.53125 0,6.09375 -4.3125,11.53125 -4.21875,5.34375 -10.125,6.1875 -1.59375,-4.5 -1.59375,-8.0625 0,-5.25 3.5625,-9.9375 3.28125,-4.21875 8.625,-6.09375 0.75,-1.59375 3.09375,-6.65625 2.4375,-5.0625 6.65625,-13.6875 l 11.4375,15.84375 3.75,1.5 q -1.875,-12.5625 -4.78125,-26.34375 -2.8125,-13.875 -6.5625,-29.34375 -4.78125,-0.9375 -8.71875,-6.187502 -3.375,-4.59375 -9.9375,-4.59375 -0.65625,0 -1.3125,0 -0.5625,0 -1.21875,0.09375 0,-2.625 2.34375,-4.78125 2.34375,-2.15625 7.6875,-4.21875 9.09375,-3.5625 14.90625,-3.5625 5.4375,0 9.84375,3.5625 -8.625,2.8125 -8.625,7.40625 0,0.46875 0.09375,1.3125 0.1875,0.75 0.375,1.6875 0.1875,0.9375 0.28125,1.78125 0.1875,0.84375 0.1875,1.40625 0,3 -2.90625,5.250002 3.28125,14.625 6.09375,28.6875 2.90625,14.0625 5.25,27.84375 l 2.25,2.53125 2.25,-2.53125 V 78.909608 q -5.90625,-0.9375 -7.96875,-9.65625 -2.25,-9.28125 -9.375,-11.34375 6.75,-6.75 18.84375,-6.75 12,0 18.9375,6.75 -7.125,2.0625 -8.8125,11.34375 -1.5,8.71875 -8.53125,9.65625 v 78.468752 l 2.8125,2.53125 2.4375,-2.53125 q 2.53125,-14.90625 4.3125,-24.5625 1.78125,-9.65625 3.09375,-15.84375 1.40625,-6.1875 2.4375,-9.84375 1.125,-3.65625 2.25,-6.46875 -2.71875,-2.718752 -2.71875,-7.125002 0.09375,-1.21875 0.09375,-1.59375 0,-0.46875 0,-0.65625 0,-6.375 -7.96875,-9.28125 3.65625,-3.65625 9.1875,-3.65625 5.4375,0 14.906248,3.9375 10.6875,4.40625 10.6875,8.71875 -3.9375,0 -6.75,0.375 -2.8125,0.375 -4.40625,1.5 -0.75,0.46875 -3.375,4.78125 -1.875,3.093752 -6.656248,4.031252 -5.625,15.375 -12.09375,55.6875 l 3.09375,-1.5 q 1.5,-2.4375 4.3125,-6.28125 2.8125,-3.9375 7.03125,-9.5625 1.78125,3.5625 4.218748,8.625 2.4375,4.96875 5.53125,11.71875 2.625,0.84375 4.875,2.53125 2.25,1.59375 3.84375,3.75 1.59375,2.0625 2.53125,4.59375 0.9375,2.4375 0.9375,5.15625 0,3.5625 -1.59375,8.0625 -6,-0.84375 -10.21875,-6.1875 -4.125,-5.4375 -4.125,-11.4375 0,-3.1875 1.5,-5.625 -1.21875,-2.4375 -3.1875,-6.375 -1.875,-4.03125 -4.593748,-9.65625 -1.96875,2.4375 -4.78125,6.1875 -2.71875,3.65625 -6.28125,8.71875 0,3.9375 0.75,11.90625 0.75,7.875 2.25,19.96875 h -30.28125 z m 1.40625,28.875 h 23.625 l -2.34375,-28.3125 -1.125,-1.59375 -2.8125,3.5625 h -2.25 l -3.375,-3 -3,3 h -2.25 l -3.28125,-3.28125 -2.0625,1.125 z M 44.138672,84.628358 q -1.59375,0.5625 -2.90625,1.21875 -1.21875,0.65625 -2.15625,1.21875 -1.03125,0.65625 -1.96875,1.21875 2.34375,0.1875 4.21875,1.03125 1.875,0.84375 3.28125,1.96875 1.40625,1.125 2.34375,2.25 1.03125,1.125 1.59375,1.875 0.75,1.03125 1.96875,2.15625 1.3125,1.03125 2.8125,1.03125 0.65625,0 1.40625,-0.1875 1.5,-0.46875 1.5,-2.34375 0,-1.3125 -0.46875,-3 -0.375,-1.6875 -0.375,-3.46875 0,-2.15625 0.9375,-4.21875 0.9375,-2.15625 3.9375,-3.1875 -1.40625,-0.46875 -3.09375,-0.46875 -1.59375,0 -3.46875,0.28125 -1.875,0.28125 -3.65625,0.75 -1.6875,0.375 -3.28125,0.9375 -1.59375,0.46875 -2.625,0.9375 z m 29.53125,-8.34375 q 2.0625,-0.65625 3.28125,-1.21875 1.3125,-0.65625 2.34375,-2.4375 0.5625,-0.9375 0.9375,-2.15625 0.375,-1.21875 0.65625,-2.4375 0.375,-1.3125 0.65625,-2.53125 0.28125,-1.21875 0.5625,-2.0625 0.28125,-0.84375 1.03125,-1.875 0.84375,-1.03125 1.59375,-1.875 0.9375,-1.03125 1.96875,-2.0625 -1.78125,-0.9375 -3.84375,-1.6875 -1.78125,-0.65625 -4.125,-1.21875 -2.34375,-0.5625 -4.96875,-0.5625 -2.71875,0 -5.0625,0.5625 -2.34375,0.5625 -4.125,1.21875 -2.0625,0.75 -3.75,1.6875 0.84375,0.65625 1.6875,1.5 0.75,0.75 1.40625,1.6875 0.75,0.84375 1.40625,1.96875 1.6875,3.1875 2.15625,5.8125 0.5625,2.53125 1.6875,4.125 0.9375,1.3125 1.78125,2.0625 0.84375,0.75 2.71875,1.5 z m 38.062498,12.09375 q -3.5625,-2.34375 -6.75,-3.5625 -3.09375,-1.3125 -5.531248,-2.0625 -2.53125,-0.75 -4.40625,-1.125 -1.875,-0.46875 -3.1875,-0.46875 -0.9375,0 -1.59375,0.09375 -0.65625,0.09375 -1.125,0.28125 l -0.84375,0.28125 q 0.84375,0.75 1.59375,1.5 0.65625,0.75 1.3125,1.59375 0.65625,0.75 0.9375,1.5 0.65625,1.6875 0.84375,3.375 0.28125,1.6875 0.28125,4.125 0,2.4375 0.5625,3.5625 0.5625,1.03125 2.53125,1.03125 1.21875,0 2.0625,-0.75 0.9375,-0.84375 1.781248,-2.15625 1.03125,-1.5 1.96875,-3.1875 1.03125,-1.78125 2.71875,-2.71875 1.5,-0.84375 3.1875,-1.03125 1.78125,-0.28125 3.65625,-0.28125 z M 31.201172,181.19086 q 1.96875,-0.84375 3.65625,-2.4375 1.6875,-1.59375 2.90625,-3.5625 1.3125,-1.96875 2.0625,-4.03125 0.75,-2.15625 0.75,-4.03125 0,-1.5 -0.1875,-2.34375 -0.1875,-0.9375 -0.375,-1.5 -3.9375,1.40625 -6.75,4.875 -2.71875,3.46875 -2.71875,8.0625 0,1.59375 0.09375,2.71875 0.1875,1.03125 0.5625,2.25 z m 85.218748,-0.1875 q 0.28125,-1.21875 0.375,-2.15625 0.0937,-0.9375 0.0937,-2.53125 0,-1.78125 -0.65625,-3.65625 -0.5625,-1.875 -1.78125,-3.65625 -1.21875,-1.78125 -3,-3.1875 -1.6875,-1.40625 -3.9375,-2.15625 -0.1875,0.75 -0.375,1.6875 -0.1875,0.84375 -0.1875,1.875 0,2.4375 0.84375,4.6875 0.84375,2.25 2.71875,4.59375 1.875,2.34375 3.1875,3.28125 1.40625,0.84375 2.71875,1.21875 z"
         id="path21153"
         inkscape:connector-curvature="0" />
    </g>
  </g>
</svg>
