<?xml version="1.0" encoding="UTF-8" standalone="no"?>
<!-- Created with Inkscape (http://www.inkscape.org/) -->

<svg
   xmlns:dc="http://purl.org/dc/elements/1.1/"
   xmlns:cc="http://creativecommons.org/ns#"
   xmlns:rdf="http://www.w3.org/1999/02/22-rdf-syntax-ns#"
   xmlns:svg="http://www.w3.org/2000/svg"
   xmlns="http://www.w3.org/2000/svg"
   xmlns:sodipodi="http://sodipodi.sourceforge.net/DTD/sodipodi-0.dtd"
   xmlns:inkscape="http://www.inkscape.org/namespaces/inkscape"
   width="24.432615mm"
   height="40.878124mm"
   viewBox="0 0 24.432615 40.878124"
   version="1.1"
   id="svg21162"
   inkscape:version="0.92.4 (5da689c313, 2019-01-14)"
   sodipodi:docname="M15A.svg">
  <defs
     id="defs21156" />
  <sodipodi:namedview
     id="base"
     pagecolor="#ffffff"
     bordercolor="#666666"
     borderopacity="1.0"
     inkscape:pageopacity="0.0"
     inkscape:pageshadow="2"
     inkscape:zoom="0.35"
     inkscape:cx="-351.83036"
     inkscape:cy="-357.74108"
     inkscape:document-units="mm"
     inkscape:current-layer="layer1"
     showgrid="false"
     fit-margin-top="0"
     fit-margin-left="0"
     fit-margin-right="0"
     fit-margin-bottom="0"
     inkscape:window-width="1920"
     inkscape:window-height="1017"
     inkscape:window-x="-8"
     inkscape:window-y="-8"
     inkscape:window-maximized="1" />
  <metadata
     id="metadata21159">
    <rdf:RDF>
      <cc:Work
         rdf:about="">
        <dc:format>image/svg+xml</dc:format>
        <dc:type
           rdf:resource="http://purl.org/dc/dcmitype/StillImage" />
        <dc:title></dc:title>
      </cc:Work>
    </rdf:RDF>
  </metadata>
  <g
     inkscape:label="Layer 1"
     inkscape:groupmode="layer"
     id="layer1"
     transform="translate(-5.7759485,-13.302881)">
    <g
       aria-label="𓇈"
       style="font-style:normal;font-variant:normal;font-weight:normal;font-stretch:normal;font-size:50.79999924px;line-height:1.25;font-family:sans-serif;-inkscape-font-specification:sans-serif;font-variant-ligatures:normal;font-variant-caps:normal;font-variant-numeric:normal;font-feature-settings:normal;text-align:start;letter-spacing:0px;word-spacing:0px;writing-mode:lr-tb;text-anchor:start;fill:#000000;fill-opacity:1;stroke:none;stroke-width:0.26458332"
       id="text21712">
      <path
         d="m 9.620675,42.423583 q 0.396875,0.644922 0.396875,1.463477 0,1.612305 -1.1410156,3.050976 -1.1162109,1.413868 -2.6789062,1.63711 -0.4216797,-1.190625 -0.4216797,-2.133203 0,-1.389063 0.9425781,-2.629297 0.8681641,-1.116211 2.2820312,-1.612305 0.1984375,-0.42168 0.8185547,-1.761133 0.6449215,-1.339453 1.7611325,-3.621484 l 3.522266,4.886523 0.496094,-0.297656 q -0.496094,-3.323828 -1.265039,-6.970117 -0.744141,-3.671094 -1.736329,-7.763867 -1.265039,-0.248047 -2.306835,-1.637109 -0.8929692,-1.21543 -2.6292973,-1.21543 -0.1736328,0 -0.3472656,0 -0.1488281,0 -0.3224609,0.02481 0,-0.719336 0.6201172,-1.265039 0.6201171,-0.570508 2.0339843,-1.116211 2.4060543,-0.942578 3.9439453,-0.942578 1.438672,0 2.604492,0.942578 -2.282031,0.74414 -2.282031,1.95957 0,0.124023 0.0248,0.347266 0.04961,0.198437 0.09922,0.446484 0.04961,0.248047 0.07441,0.471289 0.04961,0.223242 0.04961,0.37207 0,0.79375 -0.768946,1.389063 0.868165,3.869531 1.612305,7.590234 0.768945,3.720703 1.389063,7.366992 l 0.595312,0.669727 0.595313,-0.669727 V 20.645068 q -1.562696,-0.248047 -2.108399,-2.554883 -0.595312,-2.455664 -2.480469,-3.001367 1.785938,-1.785937 4.985743,-1.785937 3.175,0 5.010546,1.785937 -1.885156,0.545703 -2.33164,3.001367 -0.396875,2.306836 -2.257227,2.554883 v 20.761523 l 0.744141,0.669727 0.644922,-0.669727 q 0.669726,-3.943945 1.141015,-6.498828 0.471289,-2.554883 0.818555,-4.191992 0.37207,-1.637109 0.644922,-2.604492 0.297656,-0.967383 0.595312,-1.711524 -0.719336,-0.719335 -0.719336,-1.885156 0.02481,-0.322461 0.02481,-0.421679 0,-0.124024 0,-0.173633 0,-1.686719 -2.108398,-2.455664 0.967383,-0.967383 2.430859,-0.967383 1.438672,0 3.943945,1.041797 2.827735,1.16582 2.827735,2.306836 -1.041797,0 -1.785938,0.09922 -0.74414,0.09922 -1.16582,0.396875 -0.198438,0.124024 -0.892969,1.265039 -0.496094,0.818555 -1.761133,1.066602 -1.488281,4.067969 -3.199804,14.733984 l 0.37207,0.248047 q 0.198438,-0.322461 0.545703,-0.843359 0.37207,-0.520899 0.818555,-1.165821 0.471289,-0.644921 0.992187,-1.364257 0.545703,-0.719336 1.091407,-1.463477 0.471289,0.942578 1.11621,2.282031 0.644922,1.314649 1.463477,3.100586 0.694531,0.223242 1.289844,0.669727 0.595312,0.421679 1.016992,0.992187 0.42168,0.545703 0.669726,1.21543 0.248047,0.644922 0.248047,1.364258 0,0.942578 -0.421679,2.133203 -1.5875,-0.223242 -2.703711,-1.63711 -1.091406,-1.438671 -1.091406,-3.026171 0,-0.84336 0.396875,-1.488282 -0.322461,-0.644922 -0.84336,-1.686718 -0.496094,-1.066602 -1.21543,-2.554883 -0.272851,0.322461 -0.669726,0.843359 -0.37207,0.520899 -0.843359,1.165821 -0.446485,0.620117 -0.942579,1.314648 -0.496093,0.694531 -0.967382,1.339453 0.37207,0.198438 0.694531,0.471289 0.347266,0.272852 0.694531,0.595313 1.835547,1.835546 1.835547,4.34082 0,2.530078 -1.835547,4.241601 -1.835547,1.686719 -4.365625,1.686719 -2.530078,0 -4.241601,-1.711523 -1.661914,-1.661914 -1.661914,-4.216797 0,-2.530078 1.661914,-4.34082 0.620117,-0.644922 1.389062,-1.116211 l -3.398242,-4.613672 q -0.347266,0.719336 -0.868164,1.785937 -0.520898,1.041797 -1.190625,2.455664 z m 11.211719,9.773047 q 0.669726,-0.471289 1.314648,-1.21543 l -2.852539,-2.852539 2.728516,-2.728515 Q 21.477315,44.68081 20.75798,44.159911 l -2.827735,2.827735 -2.802929,-2.827735 q -0.669727,0.496094 -1.141016,1.240235 l 2.728516,2.728515 -2.852539,2.827735 q 0.421679,0.719336 1.215429,1.265039 l 2.877344,-2.877344 z m -4.960938,-8.532812 2.058789,2.108398 2.083594,-2.108398 q -1.116211,-0.520899 -2.158008,-0.520899 -1.066601,0 -1.984375,0.520899 z m 4.167188,8.979296 -2.083594,-2.083593 -2.083594,2.083593 q 0.967383,0.471289 2.058789,0.471289 1.066602,0 2.108399,-0.471289 z m 2.579687,-2.455664 q 0.446484,-0.967382 0.446484,-1.90996 0,-1.016993 -0.570507,-2.108399 l -1.959571,1.95957 z m -9.177734,-0.04961 2.033984,-2.00918 -1.95957,-1.934765 q -0.42168,1.066601 -0.42168,2.083594 0,0.471289 0.07441,0.942578 0.07441,0.471289 0.272852,0.917773 z M 10.166378,22.158154 q -0.4216796,0.148828 -0.7689452,0.322461 -0.3224609,0.173633 -0.5705078,0.322461 -0.2728515,0.173633 -0.5208984,0.322461 0.6201172,0.04961 1.1162109,0.272851 0.4960938,0.223243 0.8681645,0.520899 0.37207,0.297656 0.620117,0.595312 0.272851,0.297656 0.421679,0.496094 0.198438,0.272852 0.520899,0.570508 0.347265,0.272851 0.74414,0.272851 0.173633,0 0.372071,-0.04961 0.396875,-0.124023 0.396875,-0.620117 0,-0.347266 -0.124024,-0.79375 -0.09922,-0.446485 -0.09922,-0.917774 0,-0.570507 0.248046,-1.116211 0.248047,-0.570507 1.041797,-0.843359 -0.37207,-0.124023 -0.818554,-0.124023 -0.42168,0 -0.917774,0.07441 -0.496094,0.07441 -0.967383,0.198437 -0.446484,0.09922 -0.868164,0.248047 -0.421679,0.124024 -0.694531,0.248047 z m 7.813477,-2.207617 q 0.545703,-0.173633 0.868164,-0.322461 0.347265,-0.173633 0.620117,-0.644922 0.148828,-0.248047 0.248047,-0.570508 0.09922,-0.322461 0.173632,-0.644922 0.09922,-0.347265 0.173633,-0.669726 0.07441,-0.322461 0.148828,-0.545703 0.07441,-0.223243 0.272852,-0.496094 0.223242,-0.272852 0.42168,-0.496094 0.248047,-0.272851 0.520898,-0.545703 -0.471289,-0.248047 -1.016992,-0.446484 -0.471289,-0.173633 -1.091406,-0.322461 -0.620118,-0.148828 -1.314649,-0.148828 -0.719336,0 -1.339453,0.148828 -0.620117,0.148828 -1.091406,0.322461 -0.545703,0.198437 -0.992188,0.446484 0.223243,0.173633 0.446485,0.396875 0.198437,0.198438 0.37207,0.446484 0.198438,0.223243 0.37207,0.520899 0.446485,0.843359 0.570508,1.53789 0.148828,0.669727 0.446485,1.091407 0.248046,0.347265 0.471289,0.545703 0.223242,0.198437 0.719336,0.396875 z m 10.070703,3.199804 q -0.942579,-0.620117 -1.785938,-0.942578 -0.818555,-0.347265 -1.463476,-0.545703 -0.669727,-0.198437 -1.165821,-0.297656 -0.496094,-0.124023 -0.843359,-0.124023 -0.248047,0 -0.42168,0.0248 -0.173633,0.02481 -0.297656,0.07441 l -0.223242,0.07441 q 0.223242,0.198438 0.421679,0.396875 0.173633,0.198438 0.347266,0.42168 0.173633,0.198438 0.248047,0.396875 0.173633,0.446484 0.223242,0.892969 0.07441,0.446484 0.07441,1.091406 0,0.644922 0.148828,0.942578 0.148828,0.272852 0.669727,0.272852 0.322461,0 0.545703,-0.198438 0.248047,-0.223242 0.471289,-0.570508 0.272852,-0.396875 0.520898,-0.843359 0.272852,-0.471289 0.719336,-0.719336 0.396875,-0.223242 0.84336,-0.272851 0.471289,-0.07441 0.967383,-0.07441 z M 6.7433313,47.706982 Q 7.2642297,47.48374 7.7107141,47.06206 8.1571985,46.64038 8.4796594,46.119482 8.826925,45.598583 9.0253625,45.05288 9.2238,44.482372 9.2238,43.986279 q 0,-0.396875 -0.049609,-0.620118 -0.049609,-0.248046 -0.099219,-0.396875 -1.0417969,0.372071 -1.7859375,1.289844 -0.7193359,0.917774 -0.7193359,2.133203 0,0.42168 0.024805,0.719336 0.049609,0.272852 0.1488277,0.595313 z m 22.5474607,-0.04961 q 0.07441,-0.322461 0.09922,-0.570507 0.0248,-0.248047 0.0248,-0.669727 0,-0.471289 -0.173632,-0.967383 -0.148829,-0.496094 -0.47129,-0.967383 -0.32246,-0.471289 -0.79375,-0.843359 -0.446484,-0.37207 -1.041796,-0.570508 -0.04961,0.198438 -0.09922,0.446485 -0.04961,0.223242 -0.04961,0.496093 0,0.644922 0.223242,1.240235 0.223242,0.595312 0.719336,1.215429 0.496093,0.620118 0.843359,0.868164 0.37207,0.223243 0.719336,0.322461 z"
         style="stroke-width:0.26458332"
         id="path21714"
         inkscape:connector-curvature="0" />
    </g>
  </g>
</svg>
