<?xml version="1.0" encoding="UTF-8" standalone="no"?>
<!-- Created with Inkscape (http://www.inkscape.org/) -->

<svg
   xmlns:dc="http://purl.org/dc/elements/1.1/"
   xmlns:cc="http://creativecommons.org/ns#"
   xmlns:rdf="http://www.w3.org/1999/02/22-rdf-syntax-ns#"
   xmlns:svg="http://www.w3.org/2000/svg"
   xmlns="http://www.w3.org/2000/svg"
   xmlns:sodipodi="http://sodipodi.sourceforge.net/DTD/sodipodi-0.dtd"
   xmlns:inkscape="http://www.inkscape.org/namespaces/inkscape"
   width="22.770702mm"
   height="37.355885mm"
   viewBox="0 0 22.770702 37.355885"
   version="1.1"
   id="svg11821"
   inkscape:version="0.92.4 (5da689c313, 2019-01-14)"
   sodipodi:docname="M16.svg">
  <defs
     id="defs11815" />
  <sodipodi:namedview
     id="base"
     pagecolor="#ffffff"
     bordercolor="#666666"
     borderopacity="1.0"
     inkscape:pageopacity="0.0"
     inkscape:pageshadow="2"
     inkscape:zoom="0.35"
     inkscape:cx="-340.40207"
     inkscape:cy="-401.97498"
     inkscape:document-units="mm"
     inkscape:current-layer="layer1"
     showgrid="false"
     fit-margin-top="0"
     fit-margin-left="0"
     fit-margin-right="0"
     fit-margin-bottom="0"
     inkscape:window-width="1920"
     inkscape:window-height="1017"
     inkscape:window-x="-8"
     inkscape:window-y="-8"
     inkscape:window-maximized="1" />
  <metadata
     id="metadata11818">
    <rdf:RDF>
      <cc:Work
         rdf:about="">
        <dc:format>image/svg+xml</dc:format>
        <dc:type
           rdf:resource="http://purl.org/dc/dcmitype/StillImage" />
        <dc:title></dc:title>
      </cc:Work>
    </rdf:RDF>
  </metadata>
  <g
     inkscape:label="Layer 1"
     inkscape:groupmode="layer"
     id="layer1"
     transform="translate(-2.7522134,-5.121567)">
    <g
       aria-label="𓇉"
       transform="matrix(0.26458333,0,0,0.26458333,11.339286,-16.630952)"
       style="font-style:normal;font-variant:normal;font-weight:normal;font-stretch:normal;font-size:192px;line-height:1.25;font-family:sans-serif;-inkscape-font-specification:'sans-serif, Normal';font-variant-ligatures:normal;font-variant-caps:normal;font-variant-numeric:normal;font-feature-settings:normal;text-align:start;letter-spacing:0px;word-spacing:0px;writing-mode:lr-tb;text-anchor:start;fill:#000000;fill-opacity:1;stroke:none"
       id="flowRoot12366">
      <path
         d="m -5.2675781,223.4018 q 1.5,-12.09375 2.25,-21.09375 0.75,-9 0.75,-15.1875 l 3.09374998,1.5 q -6.84374998,-41.34375 -12.09374988,-55.875 -4.59375,-0.9375 -7.875,-6.1875 -2.90625,-4.59375 -10.59375,-4.59375 -0.65625,0 -1.3125,0 -0.65625,0 -1.40625,0.0937 0.09375,-4.59375 10.21875,-8.53125 8.71875,-3.28125 14.2499999,-3.28125 7.31249998,0 10.3125,2.8125 -8.25,2.90625 -8.25,8.34375 0,7.96875 -2.34375,10.3125 2.25,5.90625 4.03125,13.125 1.78125,7.125 3.1875,14.71875 1.40624998,7.5 2.53125,15 1.21875,7.5 2.34375,14.0625 l 2.4375,2.625 2.625,-2.625 v -78.375 q -6.5625,-0.9375 -8.34375003,-9.9375 -1.87499997,-9.468754 -8.81249997,-11.437504 6.84375,-6.65625 18.7500001,-6.65625 12.09375,0 18.9375,6.65625 -6.9375,1.96875 -8.8125,11.437504 -1.78125,9 -8.625,9.9375 v 78.375 l 2.90625,2.625 2.4375,-2.625 q 1.125,-6.65625 2.25,-14.15625 1.21875,-7.5 2.625,-15 1.40625,-7.5 3.09375,-14.625 1.78125,-7.21875 4.125,-13.125 -2.53125,-2.34375 -2.53125,-6.46875 0,-0.1875 0,-0.75 0.09375,-0.65625 0.09375,-2.25 0,-6.1875 -8.15625,-9.1875 2.90625,-2.8125 10.21875,-2.8125 5.625,0 14.34375,3.28125 10.21875,3.84375 10.21875,8.53125 -0.9375,-0.0937 -1.6875,-0.0937 -0.65625,-0.0937 -1.40625,-0.0937 -6.84375,0 -9.9375,4.6875 -3.5625,5.25 -8.15625,6.1875 -4.21875,11.71875 -7.3125,27.65625 -0.46875,1.96875 -4.78125,28.21875 l 3.09375,-1.5 q 0,6.1875 0.75,15.28125 0.75,9 2.25,21 z m 17.0625001,-116.25 q 2.25,-0.46875 3.5625,-2.0625 1.3125,-1.59375 2.25,-5.625004 0.84375,-3.75 2.34375,-6.65625 1.5,-3 3.9375,-4.3125 -2.71875,-2.15625 -6.1875,-2.71875 -3.375,-0.5625 -7.40625,-0.5625 -3.7500001,0 -7.4062501,0.75 -3.65625002,0.65625 -5.90625,2.53125 2.90624998,1.59375 4.40625,4.59375 1.5,3 2.15625,6.65625 0.65625,3.843754 1.875,5.437504 1.3125,1.59375 3.75,2.0625 z m 20.71875,23.15625 q 1.875,-0.65625 3.1875,-1.96875 1.3125,-1.40625 3.09375,-3.84375 3.65625,-5.0625 9.84375,-5.0625 -1.96875,-1.3125 -4.875,-2.4375 -2.90625,-1.125 -5.90625,-1.96875 -2.90625,-0.84375 -5.53125,-1.3125 -2.625,-0.46875 -3.9375,-0.46875 -0.9375,0 -1.5,0.0937 -0.5625,0.0937 -0.9375,0.1875 -0.375,0.0937 -0.65625,0.1875 2.53125,1.78125 3.5625,3.9375 1.125,2.0625 1.125,4.59375 v 2.8125 q 0,1.40625 0.1875,2.625 0.1875,1.125 1.125,2.0625 z m -43.21875,-0.1875 q 0.46875,-0.5625 0.7499999,-1.21875 0.375,-0.65625 0.5625,-1.5 0.28125,-0.9375 0.375,-2.25 0.09375,-1.3125 0.09375,-3.1875 0,-3.84375 1.59375,-5.8125 1.59375,-1.96875 3,-2.625 -1.40625,-0.1875 -1.96875,-0.1875 -0.46875,-0.0937 -1.6875,-0.0937 -4.6874999,0 -10.8749999,2.15625 -1.96875,0.75 -3.28125,1.21875 -1.3125,0.46875 -2.34375,0.9375 -0.9375,0.46875 -1.78125,0.9375 -0.75,0.46875 -1.59375,1.03125 4.125,0 6.9375,1.6875 2.8125,1.6875 4.40625,4.125 1.78125,2.71875 3.28125,3.65625 1.5,0.9375 2.53125,1.125 z m 8.8124999,90.28125 H 23.044922 l -2.34375,-28.3125 -1.125,-1.59375 -3.46875,3.5625 h -2.25 l -3.375,-3 -3.0000001,3 h -2.25 l -3.28125,-3.28125 -1.40625003,1.125 z"
         id="path12374"
         inkscape:connector-curvature="0" />
    </g>
  </g>
</svg>
