<?xml version="1.0" encoding="UTF-8" standalone="no"?>
<!-- Created with Inkscape (http://www.inkscape.org/) -->

<svg
   xmlns:dc="http://purl.org/dc/elements/1.1/"
   xmlns:cc="http://creativecommons.org/ns#"
   xmlns:rdf="http://www.w3.org/1999/02/22-rdf-syntax-ns#"
   xmlns:svg="http://www.w3.org/2000/svg"
   xmlns="http://www.w3.org/2000/svg"
   xmlns:sodipodi="http://sodipodi.sourceforge.net/DTD/sodipodi-0.dtd"
   xmlns:inkscape="http://www.inkscape.org/namespaces/inkscape"
   width="25.598436mm"
   height="37.975975mm"
   viewBox="0 0 25.598436 37.975975"
   version="1.1"
   id="svg22853"
   inkscape:version="0.92.4 (5da689c313, 2019-01-14)"
   sodipodi:docname="M17A.svg">
  <defs
     id="defs22847" />
  <sodipodi:namedview
     id="base"
     pagecolor="#ffffff"
     bordercolor="#666666"
     borderopacity="1.0"
     inkscape:pageopacity="0.0"
     inkscape:pageshadow="2"
     inkscape:zoom="0.35"
     inkscape:cx="-454.6875"
     inkscape:cy="-344.21429"
     inkscape:document-units="mm"
     inkscape:current-layer="layer1"
     showgrid="false"
     fit-margin-top="0"
     fit-margin-left="0"
     fit-margin-right="0"
     fit-margin-bottom="0"
     inkscape:window-width="1920"
     inkscape:window-height="1017"
     inkscape:window-x="-8"
     inkscape:window-y="-8"
     inkscape:window-maximized="1" />
  <metadata
     id="metadata22850">
    <rdf:RDF>
      <cc:Work
         rdf:about="">
        <dc:format>image/svg+xml</dc:format>
        <dc:type
           rdf:resource="http://purl.org/dc/dcmitype/StillImage" />
        <dc:title></dc:title>
      </cc:Work>
    </rdf:RDF>
  </metadata>
  <g
     inkscape:label="Layer 1"
     inkscape:groupmode="layer"
     id="layer1"
     transform="translate(-32.990234,-19.783993)">
    <flowRoot
       xml:space="preserve"
       id="flowRoot23401"
       style="font-style:normal;font-variant:normal;font-weight:normal;font-stretch:normal;font-size:192px;line-height:1.25;font-family:sans-serif;-inkscape-font-specification:sans-serif;font-variant-ligatures:normal;font-variant-caps:normal;font-variant-numeric:normal;font-feature-settings:normal;text-align:start;letter-spacing:0px;word-spacing:0px;writing-mode:lr-tb;text-anchor:start;fill:#000000;fill-opacity:1;stroke:none"
       transform="scale(0.26458333)"><flowRegion
         id="flowRegion23403"><rect
           id="rect23405"
           width="697.14288"
           height="465.71429"
           x="-8.5714283"
           y="65.376831" /></flowRegion><flowPara
         id="flowPara23407"></flowPara></flowRoot>    <g
       aria-label="𓇌"
       style="font-style:normal;font-variant:normal;font-weight:normal;font-stretch:normal;font-size:50.79999924px;line-height:1.25;font-family:sans-serif;-inkscape-font-specification:sans-serif;font-variant-ligatures:normal;font-variant-caps:normal;font-variant-numeric:normal;font-feature-settings:normal;text-align:start;letter-spacing:0px;word-spacing:0px;writing-mode:lr-tb;text-anchor:start;fill:#000000;fill-opacity:1;stroke:none;stroke-width:0.26458332"
       id="text23411">
      <path
         d="M 39.935547,48.358993 Q 38.670508,47.093954 37.67832,46.548251 36.686133,45.977743 35.445898,45.729696 l -2.083593,-0.37207 -0.372071,-0.471289 q 0.322461,-2.554883 1.488282,-11.509375 1.16582,-8.954492 1.711523,-13.295312 l 0.496094,-0.297657 q 2.356445,0.570508 4.117578,2.703711 1.785937,2.108399 1.785937,4.464844 v 30.410546 l -0.421679,0.396875 h -1.612305 l -0.37207,-0.471289 v -8.656836 z m 1.041797,0.198437 v 8.408789 h 0.818554 V 27.026962 q 0,-2.00918 -1.463476,-3.869531 -1.438672,-1.885156 -3.423047,-2.505274 l -1.537891,11.980664 q -0.768945,5.953125 -1.53789,12.005469 2.604492,0.471289 4.018359,1.265039 1.413867,0.768945 3.050977,2.406055 z M 55.884961,48.383798 Q 54.520703,47.01954 53.578125,46.498641 52.635547,45.977743 51.420117,45.729696 l -2.058789,-0.37207 -0.37207,-0.471289 q 0.32246,-2.554883 1.488281,-11.509375 1.16582,-8.954492 1.711523,-13.295312 l 0.496094,-0.297657 q 2.356445,0.570508 4.117578,2.703711 1.785937,2.108399 1.785937,4.464844 v 30.410546 l -0.421679,0.396875 h -1.612305 l -0.37207,-0.471289 v -8.656836 z m 1.091406,0.173632 v 8.408789 h 0.818554 V 27.026962 q 0,-2.00918 -1.463476,-3.869531 -1.438672,-1.885156 -3.423047,-2.505274 l -1.53789,11.980664 q -0.768946,5.953125 -1.537891,12.005469 2.604492,0.471289 4.018359,1.265039 1.413867,0.768945 3.050977,2.406055 z"
         style="stroke-width:0.26458332"
         id="path23413"
         inkscape:connector-curvature="0" />
    </g>
  </g>
</svg>
