<?xml version="1.0" encoding="UTF-8" standalone="no"?>
<!-- Created with Inkscape (http://www.inkscape.org/) -->

<svg
   xmlns:dc="http://purl.org/dc/elements/1.1/"
   xmlns:cc="http://creativecommons.org/ns#"
   xmlns:rdf="http://www.w3.org/1999/02/22-rdf-syntax-ns#"
   xmlns:svg="http://www.w3.org/2000/svg"
   xmlns="http://www.w3.org/2000/svg"
   xmlns:sodipodi="http://sodipodi.sourceforge.net/DTD/sodipodi-0.dtd"
   xmlns:inkscape="http://www.inkscape.org/namespaces/inkscape"
   width="11.931055mm"
   height="38.025585mm"
   viewBox="0 0 11.931055 38.025585"
   version="1.1"
   id="svg23422"
   inkscape:version="0.92.4 (5da689c313, 2019-01-14)"
   sodipodi:docname="M18.svg">
  <defs
     id="defs23416" />
  <sodipodi:namedview
     id="base"
     pagecolor="#ffffff"
     bordercolor="#666666"
     borderopacity="1.0"
     inkscape:pageopacity="0.0"
     inkscape:pageshadow="2"
     inkscape:zoom="0.35"
     inkscape:cx="-320.40234"
     inkscape:cy="-383.14524"
     inkscape:document-units="mm"
     inkscape:current-layer="layer1"
     showgrid="false"
     fit-margin-top="0"
     fit-margin-left="0"
     fit-margin-right="0"
     fit-margin-bottom="0"
     inkscape:window-width="1920"
     inkscape:window-height="1017"
     inkscape:window-x="-8"
     inkscape:window-y="-8"
     inkscape:window-maximized="1" />
  <metadata
     id="metadata23419">
    <rdf:RDF>
      <cc:Work
         rdf:about="">
        <dc:format>image/svg+xml</dc:format>
        <dc:type
           rdf:resource="http://purl.org/dc/dcmitype/StillImage" />
        <dc:title></dc:title>
      </cc:Work>
    </rdf:RDF>
  </metadata>
  <g
     inkscape:label="Layer 1"
     inkscape:groupmode="layer"
     id="layer1"
     transform="translate(2.5393799,-9.4339044)">
    <g
       aria-label="ð“‡"
       transform="scale(0.26458333)"
       style="font-style:normal;font-variant:normal;font-weight:normal;font-stretch:normal;font-size:192px;line-height:1.25;font-family:sans-serif;-inkscape-font-specification:sans-serif;font-variant-ligatures:normal;font-variant-caps:normal;font-variant-numeric:normal;font-feature-settings:normal;text-align:start;letter-spacing:0px;word-spacing:0px;writing-mode:lr-tb;text-anchor:start;fill:#000000;fill-opacity:1;stroke:none"
       id="flowRoot23970">
      <path
         d="m 7.1835937,169.62445 q 1.8750001,-3.46875 3.0937503,-7.96875 1.21875,-4.59375 1.875,-10.40625 0.65625,-5.90625 1.125,-9.75 0.5625,-3.84375 0.9375,-5.8125 -2.25,-0.9375 -4.5937502,-1.6875 -2.0625001,-0.65625 -4.5000001,-1.125 -2.3437499,-0.5625 -4.68749995,-0.5625 l -1.40625,-1.78125 12.09375025,-93.749998 1.875,-1.125 q 12.75,3.1875 17.53125,13.96875 4.78125,10.59375 4.78125,13.125 V 173.18695 q 0,0.84375 0.09375,1.6875 0.09375,0.84375 0.09375,1.3125 0,1.78125 -1.125,2.34375 -1.125,0.65625 -2.625,0.65625 -1.40625,0 -2.71875,-0.46875 -1.3125,-0.375 -1.96875,-1.03125 -2.90625,0 -5.71875,0.75 -2.8125,0.75 -5.8125,0.75 -0.9375,0 -2.15625,-0.46875 l -0.84375,0.46875 q -1.6875,0 -4.5937503,-1.5 h -2.15625 l -2.9999999,0.46875 q -1.2187501,0.1875 -3.56250005,0.65625 -2.34375005,0.5625 -4.59374995,0.5625 -4.2187501,0 -4.2187501,-2.4375 0,-2.4375 4.8750001,-2.4375 0.9374999,0 2.3437499,-0.375 1.40625005,-0.375 3.00000005,-0.9375 1.68750005,-0.65625 3.37500005,-1.5 1.6874999,-0.9375 3.1874999,-2.0625 z M 2.2148438,129.5932 q 10.0312502,1.59375 16.6875002,5.4375 6.75,3.84375 10.5,8.4375 l 0.28125,0.9375 q 0,6.1875 0.65625,9.9375 0.75,3.75 0.84375,5.53125 v 1.5 q 0,1.21875 -0.09375,2.34375 -0.09375,1.125 -0.28125,2.25 l -1.21875,6.09375 q -0.28125,0.46875 -2.0625,1.125 -1.78125,0.5625 -4.03125,1.3125 -2.15625,0.65625 -4.21875,1.21875 -1.96875,0.5625 -2.71875,0.84375 0.9375,0 2.625,-0.28125 1.78125,-0.28125 3.46875,-0.65625 1.78125,-0.375 3.1875,-0.65625 1.40625,-0.28125 1.78125,-0.28125 0.1875,0.0937 0.46875,0.28125 0.375,0.0937 0.84375,0.28125 0.5625,0.5625 0.9375,0.75 0.46875,0.1875 1.21875,0.1875 h 0.9375 q 0.28125,0 0.375,-0.0937 0,-0.5625 -0.09375,-1.03125 V 63.030702 q 0,-0.375 -0.09375,-0.9375 -0.09375,-0.5625 -0.375,-1.40625 -0.1875,-0.84375 -0.75,-2.15625 -0.46875,-1.3125 -1.3125,-3.28125 -3.09375,-7.6875 -6.75,-11.25 -3.65625,-3.46875 -9.1875,-5.0625 z m 12.0000002,43.5 0.46875,1.40625 1.5,-0.28125 q 2.71875,-0.65625 5.4375,-1.21875 2.8125,-0.65625 5.15625,-2.25 l 1.125,-5.25 q 0.375,-1.78125 0.375,-3.9375 0,-1.6875 -0.28125,-3.84375 -0.1875,-2.25 -0.5625,-4.5 -0.28125,-2.34375 -0.5625,-4.59375 -0.1875,-2.25 -0.1875,-4.125 l -3.9375,-3.75 q -1.875,8.25 -4.03125,16.3125 -2.15625,8.0625 -4.5,16.03125 z m 4.40625,-34.96875 -1.59375,-1.03125 q -0.28125,1.59375 -0.75,4.6875 -0.375,3.09375 -0.84375,7.6875 -0.9375,9 -2.53125,13.96875 -1.3125,4.78125 -2.8125,7.21875 -0.6562502,1.21875 -4.1250003,2.8125 -3.3749999,1.5 -10.1249999,3.09375 1.4999999,0 3.18749995,-0.28125 1.78125,-0.28125 3.37500005,-0.5625 1.59375,-0.375 2.7187499,-0.65625 1.125,-0.375 1.3125,-0.375 h 1.6875001 q 1.03125,0 1.875,0.65625 0.8437502,0.65625 1.8750002,0.84375 v -0.5625 l -0.84375,-2.34375 q 0,-0.9375 2.90625,-10.21875 3,-9.5625 4.5,-16.6875 0.84375,-3.9375 0.84375,-6 0,-1.875 -0.65625,-2.25 z"
         id="path23978"
         inkscape:connector-curvature="0" />
    </g>
  </g>
</svg>
