<?xml version="1.0" encoding="UTF-8" standalone="no"?>
<!-- Created with Inkscape (http://www.inkscape.org/) -->

<svg
   xmlns:dc="http://purl.org/dc/elements/1.1/"
   xmlns:cc="http://creativecommons.org/ns#"
   xmlns:rdf="http://www.w3.org/1999/02/22-rdf-syntax-ns#"
   xmlns:svg="http://www.w3.org/2000/svg"
   xmlns="http://www.w3.org/2000/svg"
   xmlns:sodipodi="http://sodipodi.sourceforge.net/DTD/sodipodi-0.dtd"
   xmlns:inkscape="http://www.inkscape.org/namespaces/inkscape"
   width="30.757811mm"
   height="37.975979mm"
   viewBox="0 0 30.757811 37.975979"
   version="1.1"
   id="svg23987"
   inkscape:version="0.92.4 (5da689c313, 2019-01-14)"
   sodipodi:docname="M19.svg">
  <defs
     id="defs23981" />
  <sodipodi:namedview
     id="base"
     pagecolor="#ffffff"
     bordercolor="#666666"
     borderopacity="1.0"
     inkscape:pageopacity="0.0"
     inkscape:pageshadow="2"
     inkscape:zoom="0.35"
     inkscape:cx="-360.40234"
     inkscape:cy="-377.61789"
     inkscape:document-units="mm"
     inkscape:current-layer="layer1"
     showgrid="false"
     fit-margin-top="0"
     fit-margin-left="0"
     fit-margin-right="0"
     fit-margin-bottom="0"
     inkscape:window-width="1920"
     inkscape:window-height="1017"
     inkscape:window-x="-8"
     inkscape:window-y="-8"
     inkscape:window-maximized="1" />
  <metadata
     id="metadata23984">
    <rdf:RDF>
      <cc:Work
         rdf:about="">
        <dc:format>image/svg+xml</dc:format>
        <dc:type
           rdf:resource="http://purl.org/dc/dcmitype/StillImage" />
        <dc:title></dc:title>
      </cc:Work>
    </rdf:RDF>
  </metadata>
  <g
     inkscape:label="Layer 1"
     inkscape:groupmode="layer"
     id="layer1"
     transform="translate(-8.0439534,-10.945957)">
    <g
       aria-label="𓇎"
       transform="scale(0.26458333)"
       style="font-style:normal;font-variant:normal;font-weight:normal;font-stretch:normal;font-size:192px;line-height:1.25;font-family:sans-serif;-inkscape-font-specification:sans-serif;font-variant-ligatures:normal;font-variant-caps:normal;font-variant-numeric:normal;font-feature-settings:normal;text-align:start;letter-spacing:0px;word-spacing:0px;writing-mode:lr-tb;text-anchor:start;fill:#000000;fill-opacity:1;stroke:none"
       id="flowRoot24535">
      <path
         d="m 132.02734,41.370546 q 7.3125,1.59375 10.96875,8.90625 3.65625,7.21875 3.65625,20.90625 0,2.8125 -0.0937,5.4375 l -0.1875,4.875 q -0.5625,13.5 -5.34375,38.250004 -4.78125,24.65625 -4.78125,37.03125 0,6.75 1.125,12.5625 1.21875,5.71875 4.78125,13.59375 l -1.5,1.96875 h -18.1875 l -1.21875,-2.25 q 3.1875,-6.84375 4.40625,-12.65625 1.21875,-5.90625 1.21875,-11.53125 H 66.683594 v 24.9375 l -1.59375,1.5 h -6.09375 l -1.40625,-1.78125 v -32.25 q -7.125,-6.5625 -12.09375,-8.625 -4.875,-2.15625 -13.6875,-4.21875 l -1.40625,-1.78125 12.09375,-93.750004 1.875,-1.125 q 6.09375,1.5 11.53125,6.09375 5.53125,4.59375 8.25,10.5 h 53.531246 q 1.59375,-6.84375 4.875,-10.96875 3.28125,-4.125 8.53125,-5.625 z M 60.589844,150.12055 v 31.78125 h 3.09375 V 68.745546 q 0,-7.5 -5.4375,-14.4375 -5.4375,-6.9375 -13.03125,-9.65625 l -11.625,90.750004 q 10.6875,2.4375 15.5625,5.25 4.96875,2.8125 11.15625,8.53125 z M 143.55859,72.964296 q 0,-15.1875 -3,-21.1875 -2.90625,-6.09375 -8.8125,-7.40625 -6.1875,1.6875 -9.375,8.71875 -3.09375,7.03125 -3.09375,20.0625 0,18.46875 2.53125,35.156254 2.625,16.6875 5.34375,29.625 2.8125,12.84375 2.8125,21.375 0,5.4375 -1.125,10.96875 -1.125,5.53125 -3.9375,11.625 h 13.5 q -2.8125,-6.1875 -3.9375,-12.5625 -1.125,-6.375 -1.125,-12.84375 0,-13.03125 4.6875,-37.3125 4.78125,-24.281254 5.34375,-37.968754 l 0.1875,-3.9375 z m -22.40625,50.250004 -43.874996,31.5 h 49.499996 q -0.1875,-3.28125 -0.75,-6.65625 -0.5625,-3.375 -1.21875,-6.9375 l -1.5,-7.40625 q -0.84375,-3.75 -1.59375,-7.96875 z m -0.0937,-1.03125 q -1.40625,-7.96875 -2.53125,-15.84375 -1.125,-7.875004 -1.6875,-15.843754 L 76.246094,122.18305 Z m -54.374996,3.75 v 31.5 l 43.499996,-31.5 z m 0,-32.625004 V 124.80805 L 107.18359,93.308046 Z m -1.125,-31.59375 q 1.125,3.375 1.125,6.75 v 23.8125 l 41.531246,-30.5625 z m 50.906246,20.4375 q 0,-1.96875 -0.0937,-4.125 -0.0937,-2.15625 -0.0937,-4.40625 0,-3.375 0.1875,-6.9375 0.1875,-3.65625 0.9375,-7.125 l -40.781246,30 h 40.218746 q -0.1875,-1.875 -0.1875,-3.75 z"
         id="path24543"
         inkscape:connector-curvature="0" />
    </g>
  </g>
</svg>
