<?xml version="1.0" encoding="UTF-8" standalone="no"?>
<!-- Created with Inkscape (http://www.inkscape.org/) -->

<svg
   xmlns:dc="http://purl.org/dc/elements/1.1/"
   xmlns:cc="http://creativecommons.org/ns#"
   xmlns:rdf="http://www.w3.org/1999/02/22-rdf-syntax-ns#"
   xmlns:svg="http://www.w3.org/2000/svg"
   xmlns="http://www.w3.org/2000/svg"
   xmlns:sodipodi="http://sodipodi.sourceforge.net/DTD/sodipodi-0.dtd"
   xmlns:inkscape="http://www.inkscape.org/namespaces/inkscape"
   width="37.851952mm"
   height="37.975975mm"
   viewBox="0 0 37.851952 37.975975"
   version="1.1"
   id="svg8167"
   inkscape:version="0.92.4 (5da689c313, 2019-01-14)"
   sodipodi:docname="M1B.svg">
  <defs
     id="defs8161" />
  <sodipodi:namedview
     id="base"
     pagecolor="#ffffff"
     bordercolor="#666666"
     borderopacity="1.0"
     inkscape:pageopacity="0.0"
     inkscape:pageshadow="2"
     inkscape:zoom="0.35"
     inkscape:cx="-351.83008"
     inkscape:cy="-380.47532"
     inkscape:document-units="mm"
     inkscape:current-layer="layer1"
     showgrid="false"
     fit-margin-top="0"
     fit-margin-left="0"
     fit-margin-right="0"
     fit-margin-bottom="0"
     inkscape:window-width="1920"
     inkscape:window-height="1017"
     inkscape:window-x="-8"
     inkscape:window-y="-8"
     inkscape:window-maximized="1" />
  <metadata
     id="metadata8164">
    <rdf:RDF>
      <cc:Work
         rdf:about="">
        <dc:format>image/svg+xml</dc:format>
        <dc:type
           rdf:resource="http://purl.org/dc/dcmitype/StillImage" />
        <dc:title></dc:title>
      </cc:Work>
    </rdf:RDF>
  </metadata>
  <g
     inkscape:label="Layer 1"
     inkscape:groupmode="layer"
     id="layer1"
     transform="translate(-5.7758747,-10.189931)">
    <g
       aria-label="𓆯"
       transform="scale(0.26458333)"
       style="font-style:normal;font-variant:normal;font-weight:normal;font-stretch:normal;font-size:192px;line-height:1.25;font-family:sans-serif;-inkscape-font-specification:sans-serif;font-variant-ligatures:normal;font-variant-caps:normal;font-variant-numeric:normal;font-feature-settings:normal;text-align:start;letter-spacing:0px;word-spacing:0px;writing-mode:lr-tb;text-anchor:start;fill:#000000;fill-opacity:1;stroke:none"
       id="flowRoot8715">
      <path
         d="m 94.017578,38.513124 q 11.718752,4.3125 17.531252,20.25 1.78125,4.96875 3.09375,10.59375 1.3125,5.53125 2.15625,10.96875 0.84375,5.4375 1.3125,10.40625 0.46875,4.875 0.65625,8.53125 l 2.0625,40.499996 -1.125,1.5 q -7.96875,3.46875 -11.0625,6.5625 -3.1875,3.1875 -4.96875,6.9375 1.5,0 3.46875,0.28125 2.0625,0.28125 4.3125,0.75 2.25,0.375 4.59375,0.9375 2.34375,0.5625 4.5,1.125 5.15625,1.40625 10.6875,3.09375 0.375,0.0937 1.21875,0.375 0.9375,0.28125 1.96875,0.5625 1.125,0.28125 2.25,0.5625 1.21875,0.1875 2.34375,0.1875 4.78125,0 8.4375,-0.1875 3.65625,-0.1875 6.9375,-0.1875 2.8125,0 5.34375,0.28125 2.53125,0.28125 4.6875,1.21875 0.1875,0.65625 0.1875,1.3125 0,0.65625 0.28125,1.3125 -3.84375,2.8125 -10.96875,3.75 -3.5625,0.46875 -7.40625,0.75 -3.75,0.1875 -7.78125,0.1875 -7.125,0 -14.0625,-0.75 -6.9375,-0.75 -14.34375,-1.96875 l -6.65625,-1.125 q -0.75,-0.1875 -1.5,-0.1875 -0.65625,-0.0937 -1.59375,-0.28125 l -0.46875,13.78125 -1.593752,1.5 h -10.59375 l -1.40625,-1.78125 v -5.4375 q 0,-2.71875 -0.28125,-5.4375 -2.15625,0.375 -4.21875,0.5625 -1.96875,0.1875 -3.84375,0.1875 -7.5,0 -14.34375,-3 -3.375,-1.59375 -6.5625,-3 -3.09375,-1.5 -6,-3 l -4.40625,-2.34375 q -1.21875,-0.65625 -2.34375,-1.125 -1.125,-0.46875 -2.34375,-0.65625 -1.78125,0.65625 -3.46875,1.5 -1.59375,0.84375 -3,0.84375 -3.5625,0 -8.71875,-1.96875 -5.15625,-2.0625 -5.15625,-7.875 0,-1.78125 0.46875,-3.46875 0.5625,-1.78125 1.78125,-3.09375 1.3125,-1.40625 3.375,-2.34375 2.0625,-0.9375 5.15625,-1.21875 -0.28125,-0.46875 -0.9375,-1.5 -0.65625,-1.03125 -1.5,-2.0625 -0.75,-1.03125 -1.6875,-1.78125 -0.9375,-0.84375 -1.875,-0.84375 -1.78125,0 -2.34375,-0.65625 -0.5625,-0.65625 -0.9375,-1.40625 0,-1.21875 0.75,-1.875 0.75,-0.75 1.96875,-0.75 1.40625,0 2.71875,1.125 1.3125,1.03125 2.4375,2.71875 1.125,1.59375 2.15625,3.46875 1.03125,1.875 1.96875,3.46875 h 1.96875 q 0.65625,-1.59375 1.96875,-3.46875 1.3125,-1.875 2.8125,-3.46875 1.59375,-1.6875 3.1875,-2.71875 1.59375,-1.125 3,-1.125 1.3125,0 1.78125,0.65625 0.5625,0.5625 0.5625,1.3125 0,2.25 -4.03125,2.25 -1.125,0 -2.8125,1.96875 -1.6875,1.875 -3.5625,5.0625 1.03125,0.28125 3.09375,1.40625 2.0625,1.125 4.5,2.71875 2.4375,1.5 5.0625,3.28125 2.625,1.6875 4.78125,3.28125 3.9375,2.90625 8.15625,5.25 4.21875,2.25 9,3.375 l 9,-2.15625 q -2.0625,-5.4375 -6.09375,-9 -4.03125,-3.65625 -10.3125,-6.75 l -0.9375,-1.6875 1.96875,-35.25 q 1.40625,-24.093746 6.9375,-42.562496 5.4375,-18.375 17.71875,-23.15625 z m 6.562502,116.062496 q 1.125,-2.53125 2.53125,-4.6875 1.40625,-2.25 3.375,-4.125 2.0625,-1.96875 4.78125,-3.65625 2.8125,-1.6875 6.5625,-3.28125 l -2.0625,-39.187496 q -1.3125,-24.65625 -6.75,-39.375 -5.34375,-14.71875 -15.281252,-18.65625 -7.59375,2.90625 -11.8125,12 -4.21875,8.8125 -6.75,19.875 -1.21875,5.53125 -2.15625,13.6875 -0.9375,8.0625 -1.59375,18.937496 l -1.875,32.8125 q 7.03125,3.5625 10.96875,7.59375 3.9375,4.03125 6.1875,9.84375 3.5625,-0.75 7.03125,-1.21875 3.46875,-0.5625 6.843752,-0.5625 z m -7.406252,3.46875 q -3.28125,0.5625 -6.5625,1.3125 -3.28125,0.75 -6.84375,1.78125 -3.09375,0.9375 -4.59375,0.9375 -5.25,-0.75 -9.84375,-3.1875 -4.59375,-2.53125 -8.90625,-5.53125 -1.125,-0.75 -2.625,-1.78125 -1.5,-1.03125 -2.8125,-2.0625 -1.59375,-1.03125 -3.28125,-2.25 -2.15625,-1.5 -4.21875,-2.625 -2.0625,-1.125 -4.78125,-1.78125 -1.3125,-0.28125 -2.8125,-0.28125 -1.5,-0.0937 -2.625,-0.0937 -5.625,0.46875 -7.03125,2.625 -1.40625,2.15625 -1.40625,4.40625 0,3.46875 2.8125,5.0625 2.8125,1.5 9.09375,1.5 1.59375,-0.65625 2.71875,-1.3125 1.125,-0.75 2.71875,-0.75 2.25,0 6.09375,2.15625 3.75,2.0625 4.40625,2.34375 l 8.8125,4.3125 q 3.9375,1.875 7.96875,3.09375 4.03125,1.125 8.53125,1.125 1.96875,0 3.9375,-0.1875 1.96875,-0.1875 4.03125,-0.5625 3,-0.65625 5.8125,-1.21875 2.4375,-0.46875 4.875,-0.84375 2.53125,-0.46875 4.312502,-0.46875 2.34375,0.1875 5.15625,0.84375 2.8125,0.5625 4.6875,0.84375 4.5,0.75 7.5,1.21875 3.09375,0.46875 5.0625,0.75 2.0625,0.28125 3.28125,0.46875 1.21875,0.0937 2.0625,0.1875 1.78125,0.0937 3.5625,0.1875 1.78125,0 3.5625,0 3.09375,0 6.75,-0.1875 3.75,-0.1875 7.21875,-0.46875 3.46875,-0.375 6.1875,-0.84375 2.8125,-0.46875 4.125,-1.03125 -0.65625,-0.0937 -1.21875,-0.0937 -0.5625,-0.0937 -1.125,-0.0937 -1.125,0 -2.4375,-0.0937 -1.3125,-0.0937 -3.1875,-0.0937 -1.78125,0 -4.40625,0.1875 -2.53125,0.0937 -5.625,0.0937 -1.96875,0 -4.40625,-0.0937 -2.34375,-0.1875 -4.3125,-0.84375 l -9.46875,-2.8125 q -4.96875,-1.5 -11.15625,-2.8125 -2.0625,-0.46875 -3.75,-0.75 -1.6875,-0.28125 -3.28125,-0.46875 -1.5,-0.1875 -3,-0.1875 -1.40625,-0.0937 -3.093752,-0.0937 -1.875,0 -3.28125,0.0937 -1.3125,0.0937 -3.1875,0.375 z m -3.9375,10.875 q 0.28125,4.96875 0.28125,10.125 h 7.59375 q 0,-2.90625 0,-4.875 0.09375,-1.96875 0.09375,-3.1875 0.09375,-1.3125 0.1875,-2.15625 0.09375,-0.84375 0.1875,-1.59375 z"
         id="path8723"
         inkscape:connector-curvature="0" />
    </g>
  </g>
</svg>
