<?xml version="1.0" encoding="UTF-8" standalone="no"?>
<!-- Created with Inkscape (http://www.inkscape.org/) -->

<svg
   xmlns:dc="http://purl.org/dc/elements/1.1/"
   xmlns:cc="http://creativecommons.org/ns#"
   xmlns:rdf="http://www.w3.org/1999/02/22-rdf-syntax-ns#"
   xmlns:svg="http://www.w3.org/2000/svg"
   xmlns="http://www.w3.org/2000/svg"
   xmlns:sodipodi="http://sodipodi.sourceforge.net/DTD/sodipodi-0.dtd"
   xmlns:inkscape="http://www.inkscape.org/namespaces/inkscape"
   width="37.653515mm"
   height="37.579102mm"
   viewBox="0 0 37.653515 37.579102"
   version="1.1"
   id="svg12383"
   inkscape:version="0.92.4 (5da689c313, 2019-01-14)"
   sodipodi:docname="M20.svg">
  <defs
     id="defs12377" />
  <sodipodi:namedview
     id="base"
     pagecolor="#ffffff"
     bordercolor="#666666"
     borderopacity="1.0"
     inkscape:pageopacity="0.0"
     inkscape:pageshadow="2"
     inkscape:zoom="0.35"
     inkscape:cx="-386.11607"
     inkscape:cy="-382.85715"
     inkscape:document-units="mm"
     inkscape:current-layer="layer1"
     showgrid="false"
     fit-margin-top="0"
     fit-margin-left="0"
     fit-margin-right="0"
     fit-margin-bottom="0"
     inkscape:window-width="1920"
     inkscape:window-height="1017"
     inkscape:window-x="-8"
     inkscape:window-y="-8"
     inkscape:window-maximized="1" />
  <metadata
     id="metadata12380">
    <rdf:RDF>
      <cc:Work
         rdf:about="">
        <dc:format>image/svg+xml</dc:format>
        <dc:type
           rdf:resource="http://purl.org/dc/dcmitype/StillImage" />
        <dc:title></dc:title>
      </cc:Work>
    </rdf:RDF>
  </metadata>
  <g
     inkscape:label="Layer 1"
     inkscape:groupmode="layer"
     id="layer1"
     transform="translate(-14.847377,-9.9566122)">
    <g
       aria-label="ð“‡"
       style="font-style:normal;font-variant:normal;font-weight:normal;font-stretch:normal;font-size:50.79999924px;line-height:1.25;font-family:sans-serif;-inkscape-font-specification:'sans-serif, Normal';font-variant-ligatures:normal;font-variant-caps:normal;font-variant-numeric:normal;font-feature-settings:normal;text-align:start;letter-spacing:0px;word-spacing:0px;writing-mode:lr-tb;text-anchor:start;fill:#000000;fill-opacity:1;stroke:none;stroke-width:0.26458332"
       id="text12930">
      <path
         d="m 31.565736,41.309737 v 4.985742 h 4.067969 v -8.30957 Q 34.591908,37.043331 33.872572,36.547237 33.178041,36.026338 32.483509,35.728682 31.788978,35.431026 30.945619,35.232588 30.127064,35.034151 28.812416,34.71169 L 28.440345,34.240401 31.64015,10.254268 32.136244,9.9566122 q 2.406054,0.5953128 4.142382,2.6292968 1.761133,2.058789 1.761133,4.316016 v 29.393554 h 5.084961 v -4.985742 h 1.21543 v 4.985742 h 4.092773 v -8.30957 Q 47.391126,37.043331 46.67179,36.547237 45.977259,36.026338 45.282728,35.728682 44.588197,35.431026 43.744837,35.232588 42.926283,35.034151 41.611634,34.71169 l -0.37207,-0.471289 3.199805,-23.986133 0.496093,-0.2976558 q 2.406055,0.5953128 4.142383,2.6292968 1.761133,2.058789 1.761133,4.316016 v 29.393554 h 1.661914 v 1.240234 h -37.25664 v -1.240234 h 2.282031 v -4.985742 h 1.240234 v 4.985742 h 3.274219 v -8.30957 Q 20.998939,37.043331 20.279603,36.547237 19.585072,36.026338 18.890541,35.728682 18.19601,35.431026 17.35265,35.232588 16.534096,35.034151 15.219447,34.71169 l -0.37207,-0.471289 3.199804,-23.986133 0.496094,-0.2976558 q 2.406055,0.5953128 4.142383,2.6292968 1.761133,2.058789 1.761133,4.316016 v 29.393554 h 5.878711 v -4.985742 z m -8.73125,-3.522266 v 8.508008 h 0.818555 v -29.31914 q 0,-2.00918 -1.438672,-3.695899 -1.413867,-1.711523 -3.447852,-2.455664 l -3.075781,23.167578 q 1.116211,0.223242 1.95957,0.446484 0.84336,0.198438 1.612305,0.570508 0.79375,0.347266 1.5875,0.942578 0.818555,0.595313 1.909961,1.5875 z m 13.592969,0 v 8.508008 h 0.818554 v -29.31914 q 0,-2.00918 -1.438672,-3.695899 -1.413867,-1.711523 -3.447851,-2.455664 l -3.075781,23.167578 q 1.116211,0.223242 1.934765,0.42168 0.84336,0.198437 1.612305,0.570508 0.79375,0.37207 1.612305,0.967382 0.818554,0.595313 1.909961,1.5875 z m 12.799218,0 v 8.508008 h 0.818555 v -29.31914 q 0,-2.00918 -1.438672,-3.695899 -1.413867,-1.711523 -3.447852,-2.455664 l -3.075781,23.167578 q 1.141016,0.223242 1.984375,0.446484 0.868164,0.198438 1.612305,0.570508 0.768945,0.347266 1.562695,0.942578 0.818555,0.595313 1.909961,1.5875 z"
         style="stroke-width:0.26458332"
         id="path12932"
         inkscape:connector-curvature="0" />
    </g>
  </g>
</svg>
