<?xml version="1.0" encoding="UTF-8" standalone="no"?>
<!-- Created with Inkscape (http://www.inkscape.org/) -->

<svg
   xmlns:dc="http://purl.org/dc/elements/1.1/"
   xmlns:cc="http://creativecommons.org/ns#"
   xmlns:rdf="http://www.w3.org/1999/02/22-rdf-syntax-ns#"
   xmlns:svg="http://www.w3.org/2000/svg"
   xmlns="http://www.w3.org/2000/svg"
   xmlns:sodipodi="http://sodipodi.sourceforge.net/DTD/sodipodi-0.dtd"
   xmlns:inkscape="http://www.inkscape.org/namespaces/inkscape"
   width="31.427538mm"
   height="37.529491mm"
   viewBox="0 0 31.427538 37.529491"
   version="1.1"
   id="svg12941"
   inkscape:version="0.92.4 (5da689c313, 2019-01-14)"
   sodipodi:docname="M21.svg">
  <defs
     id="defs12935" />
  <sodipodi:namedview
     id="base"
     pagecolor="#ffffff"
     bordercolor="#666666"
     borderopacity="1.0"
     inkscape:pageopacity="0.0"
     inkscape:pageshadow="2"
     inkscape:zoom="0.35"
     inkscape:cx="-368.97321"
     inkscape:cy="-357.14285"
     inkscape:document-units="mm"
     inkscape:current-layer="layer1"
     showgrid="false"
     fit-margin-top="0"
     fit-margin-left="0"
     fit-margin-right="0"
     fit-margin-bottom="0"
     inkscape:window-width="1920"
     inkscape:window-height="1017"
     inkscape:window-x="-8"
     inkscape:window-y="-8"
     inkscape:window-maximized="1" />
  <metadata
     id="metadata12938">
    <rdf:RDF>
      <cc:Work
         rdf:about="">
        <dc:format>image/svg+xml</dc:format>
        <dc:type
           rdf:resource="http://purl.org/dc/dcmitype/StillImage" />
        <dc:title></dc:title>
      </cc:Work>
    </rdf:RDF>
  </metadata>
  <g
     inkscape:label="Layer 1"
     inkscape:groupmode="layer"
     id="layer1"
     transform="translate(-10.311663,-16.809795)">
    <g
       aria-label="ð“‡"
       style="font-style:normal;font-variant:normal;font-weight:normal;font-stretch:normal;font-size:50.79999924px;line-height:1.25;font-family:sans-serif;-inkscape-font-specification:'sans-serif, Normal';font-variant-ligatures:normal;font-variant-caps:normal;font-variant-numeric:normal;font-feature-settings:normal;text-align:start;letter-spacing:0px;word-spacing:0px;writing-mode:lr-tb;text-anchor:start;fill:#000000;fill-opacity:1;stroke:none;stroke-width:0.26458332"
       id="text13488">
      <path
         d="m 10.708538,47.170732 v -1.240234 h 4.812109 V 40.870342 Q 14.578069,39.506084 13.238616,38.538701 11.923967,37.571318 10.55971,36.703154 L 10.311663,36.25667 q 0.421679,-4.836914 0.818554,-9.599414 l 0.79375,-9.599414 0.620117,-0.248047 q 2.306836,1.761133 3.100586,2.654102 0.818555,0.892968 1.339453,2.182812 0.520899,1.265039 0.520899,3.100586 v 21.183203 h 7.391797 V 40.870342 Q 23.929436,39.43167 22.490764,38.464287 21.052092,37.496904 19.563811,36.703154 l -0.248047,-0.446484 1.984375,-19.198828 0.620117,-0.248047 q 1.190625,1.066602 2.356446,2.207617 1.16582,1.141016 1.885156,2.629297 0.74414,1.463477 0.74414,3.100586 v 21.183203 h 6.994922 v -5.060156 q -0.545703,-0.892969 -1.488281,-1.711524 -0.942578,-0.818554 -2.108399,-1.5875 L 28.964787,36.703154 28.716741,36.25667 q 0.421679,-4.836914 0.818554,-9.599414 l 0.768945,-9.599414 0.620118,-0.248047 q 1.190625,1.066602 2.356445,2.207617 1.16582,1.141016 1.885156,2.629297 0.744141,1.463477 0.744141,3.100586 v 21.183203 q 2.604492,0.198437 4.216797,1.810742 1.612304,1.612305 1.612304,3.919141 0,2.530078 -1.438672,2.678906 -1.314648,0 -1.785937,-0.84336 -0.471289,-0.868164 -0.42168,-2.728515 0.04961,-1.860352 -0.421679,-2.728516 Q 37.199944,47.170732 35.9101,47.170732 Z M 22.019475,17.950811 q -0.496094,4.564062 -0.942578,9.078515 l -0.942578,9.078516 q 1.190625,0.644922 2.306836,1.389062 1.141015,0.719336 2.108398,1.661914 l 0.322461,0.322461 0.37207,0.396875 q 0.173633,0.223242 0.297657,0.446485 0.148828,0.223242 0.148828,0.421679 0,0.79375 0.0248,1.5875 l -0.0248,3.199805 h 0.421679 V 24.821709 q 0,-1.686719 -0.892968,-3.249414 -0.892969,-1.5875 -3.199805,-3.621484 z m -9.376172,-0.07441 -1.513086,18.256249 q 3.001367,1.984375 4.092774,3.100586 1.091406,1.091407 1.091406,1.513086 0,0.79375 0.02481,1.5875 l -0.02481,3.199805 h 0.396875 V 24.821709 q 0,-1.562695 -0.347266,-2.579687 -0.347265,-1.041797 -0.942578,-1.785938 -0.595312,-0.768945 -2.778125,-2.579687 z m 18.380273,0.07441 -1.488281,18.181835 q 2.951758,1.934766 4.043164,3.050977 1.116211,1.116211 1.116211,1.562695 0,0.79375 0.02481,1.5875 l -0.02481,3.199805 h 0.42168 V 24.821709 q 0,-1.513086 -0.768946,-3.026172 -0.74414,-1.513086 -3.323828,-3.844726 z m 7.491016,29.591992 q 0.173633,0.620117 0.322461,1.265039 0.124023,0.570507 0.223242,1.289843 0.09922,0.694532 0.09922,1.389063 0,0.37207 0.0248,0.719336 0.02481,0.322461 0.124024,0.595312 0.09922,0.272852 0.272851,0.446485 0.173633,0.148828 0.47129,0.148828 0.248046,0 0.396875,-0.173633 0.148828,-0.198438 0.223242,-0.471289 0.07441,-0.297656 0.09922,-0.620117 0.0248,-0.347266 0.0248,-0.669727 0,-0.843359 -0.347265,-1.562695 -0.347266,-0.719336 -0.79375,-1.240235 -0.42168,-0.520898 -0.768946,-0.818554 z"
         style="stroke-width:0.26458332"
         id="path13490"
         inkscape:connector-curvature="0" />
    </g>
  </g>
</svg>
