<?xml version="1.0" encoding="UTF-8" standalone="no"?>
<!-- Created with Inkscape (http://www.inkscape.org/) -->

<svg
   xmlns:dc="http://purl.org/dc/elements/1.1/"
   xmlns:cc="http://creativecommons.org/ns#"
   xmlns:rdf="http://www.w3.org/1999/02/22-rdf-syntax-ns#"
   xmlns:svg="http://www.w3.org/2000/svg"
   xmlns="http://www.w3.org/2000/svg"
   xmlns:sodipodi="http://sodipodi.sourceforge.net/DTD/sodipodi-0.dtd"
   xmlns:inkscape="http://www.inkscape.org/namespaces/inkscape"
   width="17.189648mm"
   height="37.455078mm"
   viewBox="0 0 17.189648 37.455078"
   version="1.1"
   id="svg25113"
   inkscape:version="0.92.4 (5da689c313, 2019-01-14)"
   sodipodi:docname="M23.svg">
  <defs
     id="defs25107" />
  <sodipodi:namedview
     id="base"
     pagecolor="#ffffff"
     bordercolor="#666666"
     borderopacity="1.0"
     inkscape:pageopacity="0.0"
     inkscape:pageshadow="2"
     inkscape:zoom="0.35"
     inkscape:cx="-337.54464"
     inkscape:cy="-334.28572"
     inkscape:document-units="mm"
     inkscape:current-layer="layer1"
     showgrid="false"
     fit-margin-top="0"
     fit-margin-left="0"
     fit-margin-right="0"
     fit-margin-bottom="0"
     inkscape:window-width="1920"
     inkscape:window-height="1017"
     inkscape:window-x="-8"
     inkscape:window-y="-8"
     inkscape:window-maximized="1" />
  <metadata
     id="metadata25110">
    <rdf:RDF>
      <cc:Work
         rdf:about="">
        <dc:format>image/svg+xml</dc:format>
        <dc:type
           rdf:resource="http://purl.org/dc/dcmitype/StillImage" />
        <dc:title></dc:title>
      </cc:Work>
    </rdf:RDF>
  </metadata>
  <g
     inkscape:label="Layer 1"
     inkscape:groupmode="layer"
     id="layer1"
     transform="translate(-1.9961868,-22.931824)">
    <g
       aria-label="𓇓"
       style="font-style:normal;font-variant:normal;font-weight:normal;font-stretch:normal;font-size:50.79999924px;line-height:1.25;font-family:sans-serif;-inkscape-font-specification:sans-serif;font-variant-ligatures:normal;font-variant-caps:normal;font-variant-numeric:normal;font-feature-settings:normal;text-align:start;letter-spacing:0px;word-spacing:0px;writing-mode:lr-tb;text-anchor:start;fill:#000000;fill-opacity:1;stroke:none;stroke-width:0.26458332"
       id="text25663">
      <path
         d="M 11.198726,60.386902 H 10.008101 V 52.374988 Q 7.5772414,49.05116 3.5092727,49.05116 q -0.3720703,0 -0.7441406,0.0248 l -0.7689453,0.09922 q 1.3890625,-0.471289 2.8029296,-0.471289 3.0261718,0 5.2089846,2.133203 V 48.778308 Q 7.5772414,45.45448 3.5092727,45.45448 q -0.3720703,0 -0.7441406,0.02481 l -0.7689453,0.09922 q 1.3642578,-0.446485 2.7037109,-0.446485 2.8277343,0 5.3082033,2.108399 V 27.595105 q 0,-1.661914 -1.7363284,-2.75332 -1.7115234,-1.116211 -3.7207031,-1.116211 -0.9425781,0 -1.7611327,0.272852 0.2480468,-1.066602 2.3068359,-1.066602 2.3564452,0 4.2167968,1.314649 1.8851565,1.314648 1.8851565,3.348632 v 19.645313 q 2.430859,-2.108399 5.308203,-2.108399 1.289843,0 2.678906,0.446485 l -0.744141,-0.09922 q -0.37207,0 -0.768945,-0.02481 -4.117578,0 -6.474023,3.323828 v 2.058789 q 2.108398,-2.108398 5.208984,-2.108398 1.389062,0 2.778125,0.446484 l -0.744141,-0.09922 q -0.37207,0 -0.768945,-0.0248 -4.117578,0 -6.474023,3.323828 z"
         style="stroke-width:0.26458332"
         id="path25665"
         inkscape:connector-curvature="0" />
    </g>
  </g>
</svg>
