<?xml version="1.0" encoding="UTF-8" standalone="no"?>
<!-- Created with Inkscape (http://www.inkscape.org/) -->

<svg
   xmlns:dc="http://purl.org/dc/elements/1.1/"
   xmlns:cc="http://creativecommons.org/ns#"
   xmlns:rdf="http://www.w3.org/1999/02/22-rdf-syntax-ns#"
   xmlns:svg="http://www.w3.org/2000/svg"
   xmlns="http://www.w3.org/2000/svg"
   xmlns:sodipodi="http://sodipodi.sourceforge.net/DTD/sodipodi-0.dtd"
   xmlns:inkscape="http://www.inkscape.org/namespaces/inkscape"
   width="18.628319mm"
   height="37.405468mm"
   viewBox="0 0 18.628319 37.405468"
   version="1.1"
   id="svg25674"
   inkscape:version="0.92.4 (5da689c313, 2019-01-14)"
   sodipodi:docname="M24.svg">
  <defs
     id="defs25668" />
  <sodipodi:namedview
     id="base"
     pagecolor="#ffffff"
     bordercolor="#666666"
     borderopacity="1.0"
     inkscape:pageopacity="0.0"
     inkscape:pageshadow="2"
     inkscape:zoom="0.35"
     inkscape:cx="-340.40179"
     inkscape:cy="-357.14285"
     inkscape:document-units="mm"
     inkscape:current-layer="layer1"
     showgrid="false"
     fit-margin-top="0"
     fit-margin-left="0"
     fit-margin-right="0"
     fit-margin-bottom="0"
     inkscape:window-width="1920"
     inkscape:window-height="1017"
     inkscape:window-x="-8"
     inkscape:window-y="-8"
     inkscape:window-maximized="1" />
  <metadata
     id="metadata25671">
    <rdf:RDF>
      <cc:Work
         rdf:about="">
        <dc:format>image/svg+xml</dc:format>
        <dc:type
           rdf:resource="http://purl.org/dc/dcmitype/StillImage" />
        <dc:title></dc:title>
      </cc:Work>
    </rdf:RDF>
  </metadata>
  <g
     inkscape:label="Layer 1"
     inkscape:groupmode="layer"
     id="layer1"
     transform="translate(-2.7521393,-16.933819)">
    <g
       aria-label="𓇔"
       style="font-style:normal;font-variant:normal;font-weight:normal;font-stretch:normal;font-size:50.79999924px;line-height:1.25;font-family:sans-serif;-inkscape-font-specification:sans-serif;font-variant-ligatures:normal;font-variant-caps:normal;font-variant-numeric:normal;font-feature-settings:normal;text-align:start;letter-spacing:0px;word-spacing:0px;writing-mode:lr-tb;text-anchor:start;fill:#000000;fill-opacity:1;stroke:none;stroke-width:0.26458332"
       id="text26224">
      <path
         d="m 12.574795,50.370537 q 3.075781,0.124023 7.218164,1.562695 1.5875,0 1.5875,0.396875 0,0.198438 -0.694531,0.198438 -0.694531,0 -1.21543,0.421679 -0.496093,0.396875 -2.951757,0.892969 -2.455664,0.496094 -4.440039,0.496094 -1.810743,0 -3.7455082,-0.396875 Q 6.4232329,53.545537 4.3644439,52.726982 4.0915923,52.528545 3.6203032,52.528545 H 3.1242095 q -0.2232422,0 -0.2976562,-0.02481 -0.074414,-0.02481 -0.074414,-0.173633 0,-0.396875 1.6123047,-0.396875 3.8943358,-1.438672 7.044531,-1.562695 V 46.327368 Q 8.9037017,43.00354 4.9597564,43.00354 q -0.3968749,0 -0.7689453,0.0248 l -0.8185546,0.09922 q 1.3642578,-0.446484 2.7533202,-0.446484 3.1501953,0 5.2833983,2.108398 v -2.058789 q -2.5052733,-3.323828 -6.4492186,-3.323828 -0.3968749,0 -0.7689453,0.0248 l -0.8185546,0.09922 q 1.3642578,-0.446485 2.6541015,-0.446485 2.8773437,0 5.382617,2.108399 V 21.54749 q 0,-1.711523 -1.6371093,-2.778125 -1.6123046,-1.091406 -3.8199218,-1.091406 -0.9673828,0 -1.7859374,0.272852 0.2728515,-1.016992 2.455664,-1.016992 2.3564453,0 4.1423825,1.265039 1.810742,1.240234 1.810742,3.348632 v 19.645313 q 2.480469,-2.108399 5.333008,-2.108399 1.265039,0 2.654102,0.446485 -0.347266,-0.04961 -0.694532,-0.07441 -0.322461,-0.02481 -0.669726,-0.02481 -4.291211,0 -6.622852,3.299023 v 2.058789 q 2.108399,-2.108398 5.233789,-2.108398 1.364258,0 2.753321,0.446484 -0.347266,-0.04961 -0.694532,-0.07441 -0.322461,-0.02481 -0.669726,-0.02481 -4.291211,0 -6.622852,3.299024 z m 6.101953,2.033984 q -3.571875,-1.141015 -6.598046,-1.141015 -3.1998051,0 -6.4740238,1.066601 3.1253906,1.091406 6.4740238,1.091406 2.802929,0 6.598046,-1.016992 z"
         style="stroke-width:0.26458332"
         id="path26226"
         inkscape:connector-curvature="0" />
    </g>
  </g>
</svg>
