<?xml version="1.0" encoding="UTF-8" standalone="no"?>
<!-- Created with Inkscape (http://www.inkscape.org/) -->

<svg
   xmlns:dc="http://purl.org/dc/elements/1.1/"
   xmlns:cc="http://creativecommons.org/ns#"
   xmlns:rdf="http://www.w3.org/1999/02/22-rdf-syntax-ns#"
   xmlns:svg="http://www.w3.org/2000/svg"
   xmlns="http://www.w3.org/2000/svg"
   xmlns:sodipodi="http://sodipodi.sourceforge.net/DTD/sodipodi-0.dtd"
   xmlns:inkscape="http://www.inkscape.org/namespaces/inkscape"
   width="6.3003907mm"
   height="34.379295mm"
   viewBox="0 0 6.3003907 34.379295"
   version="1.1"
   id="svg26235"
   inkscape:version="0.92.4 (5da689c313, 2019-01-14)"
   sodipodi:docname="M24A.svg">
  <defs
     id="defs26229" />
  <sodipodi:namedview
     id="base"
     pagecolor="#ffffff"
     bordercolor="#666666"
     borderopacity="1.0"
     inkscape:pageopacity="0.0"
     inkscape:pageshadow="2"
     inkscape:zoom="0.35"
     inkscape:cx="-337.54464"
     inkscape:cy="-385.71429"
     inkscape:document-units="mm"
     inkscape:current-layer="layer1"
     showgrid="false"
     fit-margin-top="0"
     fit-margin-left="0"
     fit-margin-right="0"
     fit-margin-bottom="0"
     inkscape:window-width="1920"
     inkscape:window-height="1017"
     inkscape:window-x="-8"
     inkscape:window-y="-8"
     inkscape:window-maximized="1" />
  <metadata
     id="metadata26232">
    <rdf:RDF>
      <cc:Work
         rdf:about="">
        <dc:format>image/svg+xml</dc:format>
        <dc:type
           rdf:resource="http://purl.org/dc/dcmitype/StillImage" />
        <dc:title></dc:title>
      </cc:Work>
    </rdf:RDF>
  </metadata>
  <g
     inkscape:label="Layer 1"
     inkscape:groupmode="layer"
     id="layer1"
     transform="translate(-1.9961868,-12.400466)">
    <g
       aria-label="𓇕"
       style="font-style:normal;font-variant:normal;font-weight:normal;font-stretch:normal;font-size:50.79999924px;line-height:1.25;font-family:sans-serif;-inkscape-font-specification:sans-serif;font-variant-ligatures:normal;font-variant-caps:normal;font-variant-numeric:normal;font-feature-settings:normal;text-align:start;letter-spacing:0px;word-spacing:0px;writing-mode:lr-tb;text-anchor:start;fill:#000000;fill-opacity:1;stroke:none;stroke-width:0.26458332"
       id="text26785">
      <path
         d="m 6.1137648,13.591091 q 0.2480469,-0.148828 0.6449219,-0.347266 0.4216797,-0.223242 0.7441406,-0.223242 0.4216797,0 0.5953125,0.297656 0.1984375,0.297657 0.1984375,0.644922 0,0.471289 -0.6697265,1.116211 -0.6449219,0.620117 -1.0666016,0.917774 l -0.1488281,0.148828 q -0.3472656,0.347265 -0.6201172,0.74414 -0.2480469,0.396875 -0.2480469,0.694532 0,0.272851 0.5457032,3.199804 0.5457031,2.926953 0.7937499,7.912695 0.2480469,4.960938 0.2480469,8.557617 l -0.049609,3.919141 q -0.024805,2.480469 -0.5208984,4.043164 -0.471289,1.562695 -1.4138672,1.562695 -0.9177734,0 -1.3890624,-1.438672 -0.4712891,-1.463476 -0.5457032,-3.695898 -0.049609,-2.232422 -0.049609,-4.167187 0,-3.745508 0.2976562,-9.177735 0.2976563,-5.432226 0.79375,-7.987109 l 0.496093,-2.728515 q 0,-0.124024 -0.1736328,-0.396875 Q 4.4270461,16.914919 4.2286086,16.642067 L 3.7325149,15.997146 q -0.1488281,-0.173633 -0.9425781,-0.84336 -0.79375,-0.694531 -0.79375,-1.190625 0,-0.347265 0.1736328,-0.644922 0.1984375,-0.297656 0.6201172,-0.297656 0.2232421,0 0.5953125,0.223242 0.3968749,0.198438 0.7441406,0.520899 0,-0.545703 0.2728515,-0.942578 0.2728516,-0.42168 0.7441406,-0.42168 0.322461,0 0.5457032,0.297656 0.2480468,0.297656 0.4216796,0.892969 z m -2.455664,23.886914 q 0,5.357812 0.3720703,7.09414 0.396875,1.711524 1.1162109,1.711524 0.6697266,0 1.0417969,-1.513086 0.396875,-1.513086 0.4216797,-3.695899 l 0.024805,-3.819922 q 0,-5.208984 -0.3720703,-10.517187 Q 5.890523,21.429372 5.1215777,18.4032 q 0,0.07441 -0.024805,0.148828 -0.9673828,5.457031 -1.2154297,10.74043 -0.2232422,5.258594 -0.2232422,8.185547 z M 5.146382,17.063747 q 0.2480469,-1.190625 0.3472657,-1.885156 0.1240234,-0.719336 0.1240234,-1.21543 0,-0.520898 -0.1240234,-0.79375 -0.099219,-0.272851 -0.3472657,-0.272851 -0.2480468,0 -0.3720703,0.272851 -0.099219,0.272852 -0.099219,0.79375 0,0.496094 0.099219,1.21543 0.1240235,0.694531 0.3720703,1.885156 z M 2.4922805,13.963161 q 0,0.223242 0.3472656,0.570508 0.3472657,0.322461 0.6945313,0.595312 l 0.3472656,0.297657 q 0.1984375,0.198437 0.3472656,0.421679 0.1736328,0.223243 0.2976563,0.42168 l 0.2976562,0.42168 Q 4.9479445,16.914919 4.9975539,17.038942 4.4766555,15.2282 3.9061477,14.384841 3.3604446,13.516677 2.7899368,13.516677 q -0.1488282,0 -0.2232422,0.148828 -0.074414,0.124023 -0.074414,0.297656 z m 2.8029297,3.075781 q 0.049609,-0.124023 0.1984375,-0.347265 l 0.2728515,-0.42168 q 0.1240235,-0.198437 0.2728516,-0.42168 0.1736328,-0.223242 0.396875,-0.421679 l 0.3224609,-0.297657 q 0.3472656,-0.272851 0.6945312,-0.595312 0.3472657,-0.347266 0.3472657,-0.570508 0,-0.173633 -0.074414,-0.297656 -0.074414,-0.148828 -0.2232422,-0.148828 -0.6201172,0 -1.1658203,0.892969 -0.5457031,0.892968 -1.0417969,2.629296 z"
         style="stroke-width:0.26458332"
         id="path26787"
         inkscape:connector-curvature="0" />
    </g>
  </g>
</svg>
