<?xml version="1.0" encoding="UTF-8" standalone="no"?>
<!-- Created with Inkscape (http://www.inkscape.org/) -->

<svg
   xmlns:dc="http://purl.org/dc/elements/1.1/"
   xmlns:cc="http://creativecommons.org/ns#"
   xmlns:rdf="http://www.w3.org/1999/02/22-rdf-syntax-ns#"
   xmlns:svg="http://www.w3.org/2000/svg"
   xmlns="http://www.w3.org/2000/svg"
   xmlns:sodipodi="http://sodipodi.sourceforge.net/DTD/sodipodi-0.dtd"
   xmlns:inkscape="http://www.inkscape.org/namespaces/inkscape"
   width="22.993944mm"
   height="37.256668mm"
   viewBox="0 0 22.993944 37.256668"
   version="1.1"
   id="svg8"
   inkscape:version="0.92.4 (5da689c313, 2019-01-14)"
   sodipodi:docname="M25.svg">
  <defs
     id="defs2" />
  <sodipodi:namedview
     id="base"
     pagecolor="#ffffff"
     bordercolor="#666666"
     borderopacity="1.0"
     inkscape:pageopacity="0.0"
     inkscape:pageshadow="2"
     inkscape:zoom="0.35"
     inkscape:cx="-360.40234"
     inkscape:cy="-293.403"
     inkscape:document-units="mm"
     inkscape:current-layer="layer1"
     showgrid="false"
     fit-margin-top="0"
     fit-margin-left="0"
     fit-margin-right="0"
     fit-margin-bottom="0"
     inkscape:window-width="1920"
     inkscape:window-height="1017"
     inkscape:window-x="-8"
     inkscape:window-y="-8"
     inkscape:window-maximized="1" />
  <metadata
     id="metadata5">
    <rdf:RDF>
      <cc:Work
         rdf:about="">
        <dc:format>image/svg+xml</dc:format>
        <dc:type
           rdf:resource="http://purl.org/dc/dcmitype/StillImage" />
        <dc:title></dc:title>
      </cc:Work>
    </rdf:RDF>
  </metadata>
  <g
     inkscape:label="Layer 1"
     inkscape:groupmode="layer"
     id="layer1"
     transform="translate(-8.0439534,-33.947123)">
    <g
       aria-label="𓇖"
       transform="scale(0.26458333)"
       style="font-style:normal;font-variant:normal;font-weight:normal;font-stretch:normal;font-size:192px;line-height:1.25;font-family:sans-serif;-inkscape-font-specification:sans-serif;font-variant-ligatures:normal;font-variant-caps:normal;font-variant-numeric:normal;font-feature-settings:normal;text-align:start;letter-spacing:0px;word-spacing:0px;writing-mode:lr-tb;text-anchor:start;fill:#000000;fill-opacity:1;stroke:none"
       id="flowRoot4518">
      <path
         d="m 105.87109,228.52289 q -1.5,-0.1875 -3,-0.28125 -1.5,-0.0937 -2.999996,-0.0937 -15.9375,0 -23.625,10.6875 v 15.1875 q 19.6875,0.46875 34.874996,6 h 0.65625 q 5.34375,0 5.34375,1.5 0,0.65625 -3.5625,0.65625 -0.75,0 -1.40625,0.28125 -0.5625,0.1875 -1.03125,0.5625 -16.124996,6.09375 -37.312496,6.09375 -10.6875,0 -20.0625,-1.5 -9.28125,-1.59375 -17.25,-4.59375 -0.9375,-0.84375 -3.1875,-0.9375 -2.15625,-0.1875 -2.90625,-0.5625 0.46875,-1.5 5.0625,-1.5 h 1.03125 q 15.09375,-5.71875 35.25,-6 v -15.1875 q -7.96875,-10.78125 -24.1875,-10.78125 -1.3125,0 -2.71875,0.0937 -1.40625,0.0937 -2.8125,0.28125 0,1.40625 0.09375,2.625 0,4.78125 -0.9375,6.28125 -1.875,-0.75 -1.875,-3.375 v -0.28125 l 0.75,-4.5 q -2.4375,4.78125 -7.6875,4.78125 -0.9375,0 -1.59375,-0.375 l -0.09375,-0.375 q 1.125,-2.0625 3.46875,-3.1875 2.4375,-1.125 4.78125,-2.15625 -0.375,0 -3.84375,-0.46875 -3.46875,-0.46875 -4.125,-2.15625 1.5,-0.9375 3.65625,-0.9375 3.65625,0 6.84375,2.4375 5.34375,-1.59375 10.3125,-1.59375 11.71875,0 19.96875,7.96875 v -12.65625 q -8.0625,-10.6875 -24.1875,-10.6875 -1.3125,0 -2.71875,0.0937 -1.40625,0.0937 -2.8125,0.28125 0,1.40625 0.09375,2.53125 0,4.78125 -0.9375,6.28125 -1.875,-0.75 -1.875,-3.375 v -0.28125 l 0.75,-4.5 q -2.53125,4.875 -7.6875,4.875 -0.9375,0 -1.59375,-0.375 l -0.09375,-0.375 q 1.125,-2.0625 3.46875,-3.1875 2.4375,-1.125 4.78125,-2.15625 l -4.5,-0.65625 q -2.90625,-0.5625 -3.46875,-2.0625 1.5,-0.9375 3.375,-0.9375 2.71875,0 7.125,2.4375 5.34375,-1.59375 10.03125,-1.59375 10.78125,0 20.25,7.875 v -69.46875 q 0,-6 -5.4375,-9.5625 -5.34375,-3.5625 -12.75,-3.5625 -4.5,0 -7.78125,2.0625 0,1.6875 0.09375,3 0,4.40625 -0.9375,5.8125 -1.875,-0.84375 -1.875,-3.375 v -0.28125 l 0.75,-4.5 q -0.75,1.59375 -3.1875,3.1875 -2.4375,1.59375 -4.59375,1.59375 -0.84375,0 -1.5,-0.28125 v -0.1875 q 0,-2.15625 8.15625,-5.625 -0.375,0 -3.84375,-0.46875 -3.46875,-0.46875 -4.125,-2.15625 0.9375,-1.21875 3,-1.21875 4.3125,0 7.59375,2.71875 2.34375,-4.03125 11.8125,-4.03125 7.125,0 13.125,5.15625 6,5.0625 6,11.71875 v 69.46875 q 9.375,-7.875 20.15625,-7.875 4.687496,0 10.031246,1.59375 4.03125,-2.34375 7.03125,-2.34375 1.875,0 3.5625,0.84375 -0.9375,1.6875 -3.5625,2.0625 l -4.5,0.65625 q 1.6875,0.65625 4.40625,1.96875 2.8125,1.21875 3.9375,3.375 l -0.0937,0.375 q -0.75,0.28125 -1.5,0.28125 -2.34375,0 -4.96875,-1.5 -2.53125,-1.5 -2.90625,-3.1875 0,0.375 0.0937,1.03125 l 0.28125,1.78125 q 0.1875,1.03125 0.1875,1.96875 0,1.40625 -0.46875,2.15625 -0.46875,0.65625 -1.21875,1.125 -1.125,-1.40625 -1.125,-4.875 0,-1.6875 0.28125,-3.9375 -1.5,-0.1875 -3,-0.28125 -1.40625,-0.0937 -2.906246,-0.0937 -16.03125,0 -23.71875,10.6875 v 12.65625 q 7.6875,-7.875 20.0625,-7.875 5.343746,0 10.124996,1.5 4.59375,-2.625 7.6875,-2.625 1.875,0 2.90625,1.125 -0.9375,1.6875 -3.5625,2.0625 l -4.5,0.5625 q 8.25,3.84375 8.25,5.625 v 0.0937 q -0.75,0.28125 -1.59375,0.28125 -2.25,0 -4.78125,-1.5 -2.4375,-1.5 -3,-3.1875 0,0.75 0.28125,2.34375 0.28125,1.5 0.28125,2.53125 0,1.40625 -0.46875,2.15625 -0.46875,0.65625 -1.21875,1.125 -0.84375,-3.09375 -0.84375,-8.8125 z m 1.03125,33 q -12.374996,-4.03125 -33.093746,-4.03125 -21,0 -33.09375,4.03125 18.375,4.125 33.09375,4.125 14.34375,0 33.093746,-4.125 z"
         id="path4526"
         inkscape:connector-curvature="0" />
    </g>
  </g>
</svg>
