<?xml version="1.0" encoding="UTF-8" standalone="no"?>
<!-- Created with Inkscape (http://www.inkscape.org/) -->

<svg
   xmlns:dc="http://purl.org/dc/elements/1.1/"
   xmlns:cc="http://creativecommons.org/ns#"
   xmlns:rdf="http://www.w3.org/1999/02/22-rdf-syntax-ns#"
   xmlns:svg="http://www.w3.org/2000/svg"
   xmlns="http://www.w3.org/2000/svg"
   xmlns:sodipodi="http://sodipodi.sourceforge.net/DTD/sodipodi-0.dtd"
   xmlns:inkscape="http://www.inkscape.org/namespaces/inkscape"
   width="22.894726mm"
   height="37.256626mm"
   viewBox="0 0 22.894726 37.256626"
   version="1.1"
   id="svg4535"
   inkscape:version="0.92.4 (5da689c313, 2019-01-14)"
   sodipodi:docname="M26.svg">
  <defs
     id="defs4529" />
  <sodipodi:namedview
     id="base"
     pagecolor="#ffffff"
     bordercolor="#666666"
     borderopacity="1.0"
     inkscape:pageopacity="0.0"
     inkscape:pageshadow="2"
     inkscape:zoom="0.35"
     inkscape:cx="-348.97321"
     inkscape:cy="-351.4286"
     inkscape:document-units="mm"
     inkscape:current-layer="layer1"
     showgrid="false"
     fit-margin-top="0"
     fit-margin-left="0"
     fit-margin-right="0"
     fit-margin-bottom="0"
     inkscape:window-width="1920"
     inkscape:window-height="1017"
     inkscape:window-x="-8"
     inkscape:window-y="-8"
     inkscape:window-maximized="1" />
  <metadata
     id="metadata4532">
    <rdf:RDF>
      <cc:Work
         rdf:about="">
        <dc:format>image/svg+xml</dc:format>
        <dc:type
           rdf:resource="http://purl.org/dc/dcmitype/StillImage" />
        <dc:title></dc:title>
      </cc:Work>
    </rdf:RDF>
  </metadata>
  <g
     inkscape:label="Layer 1"
     inkscape:groupmode="layer"
     id="layer1"
     transform="translate(-5.0199959,-18.594556)">
    <g
       aria-label="𓇗"
       style="font-style:normal;font-variant:normal;font-weight:normal;font-stretch:normal;font-size:50.79999924px;line-height:1.25;font-family:sans-serif;-inkscape-font-specification:sans-serif;font-variant-ligatures:normal;font-variant-caps:normal;font-variant-numeric:normal;font-feature-settings:normal;text-align:start;letter-spacing:0px;word-spacing:0px;writing-mode:lr-tb;text-anchor:start;fill:#000000;fill-opacity:1;stroke:none;stroke-width:0.26458332"
       id="text5082">
      <path
         d="m 24.913355,45.085954 -0.818554,-0.09922 q -0.42168,0 -0.818555,-0.02481 -4.142383,0 -6.201172,2.877344 v 6.821289 h 2.530078 v 1.190625 h -6.225976 v -1.190625 h 2.505273 v -6.821289 q -2.133203,-2.877344 -6.2755857,-2.877344 -0.396875,0 -0.79375,0.02481 l -0.79375,0.09922 q 0.074414,0.644922 0.074414,1.141016 0,0.917773 -0.2976563,1.21543 -0.471289,0 -0.471289,-0.84336 V 46.52463 L 7.5004648,45.284396 Q 7.326832,45.681271 6.607496,46.127755 5.8881601,46.57424 5.416871,46.57424 q -0.3472656,0 -0.396875,-0.272852 0.3472657,-0.669726 2.1828125,-1.364258 L 6.0121835,44.763498 Q 5.2928476,44.614669 5.0944101,44.242599 5.342457,43.920138 5.8385507,43.920138 q 0.8185547,0 2.0339844,0.719336 1.4138671,-0.42168 2.7285159,-0.42168 3.12539,0 5.283398,2.083594 V 42.97756 q -2.108398,-2.852539 -6.2011718,-2.852539 -0.4216797,0 -0.8185546,0.02481 l -0.8433594,0.09922 q 0.074414,0.644922 0.074414,1.141016 0,0.892969 -0.2976563,1.190625 -0.471289,0 -0.471289,-0.843359 v -0.07441 l 0.1736328,-1.240235 q -0.1736328,0.347266 -0.8929688,0.84336 -0.7193359,0.471289 -1.2154296,0.471289 -0.322461,0 -0.3720704,-0.272852 0.322461,-0.595312 2.1828125,-1.389062 L 6.0121834,39.90179 Q 5.2928475,39.752962 5.09441,39.380891 5.3424569,39.05843 5.8385506,39.05843 q 0.8185547,0 2.0339844,0.719336 1.3642578,-0.446484 2.654102,-0.446484 2.877343,0 5.357812,2.108398 V 23.059392 q 0,-1.413867 -1.513086,-2.455664 -1.513086,-1.041797 -3.274219,-1.041797 -1.1410153,0 -2.0835934,0.570508 0.074414,0.644922 0.074414,1.141016 0,0.892969 -0.2976562,1.190625 -0.4712891,0 -0.4712891,-0.84336 v -0.07441 l 0.1736328,-1.240234 q -0.1736328,0.396875 -0.8433593,0.843359 -0.6449219,0.42168 -1.2402344,0.42168 -0.2232422,0 -0.3720703,-0.07441 v -0.04961 q 0,-0.570508 2.1580078,-1.488282 L 7.0043709,19.785181 Q 6.285035,19.636352 6.0865975,19.264282 q 0.2480469,-0.322461 0.8433594,-0.322461 1.1658203,0 1.9595702,0.719336 0.6201172,-1.066601 2.8773439,-1.066601 1.860352,0 3.571875,1.389062 1.736328,1.389063 1.736328,3.075781 v 18.380273 q 2.480469,-2.108398 5.333008,-2.108398 1.265039,0 2.654101,0.446484 1.091407,-0.644921 1.835547,-0.644921 0.496094,0 0.967383,0.248046 -0.173633,0.372071 -0.942578,0.520899 l -1.190625,0.173633 q 2.182812,0.917773 2.182812,1.488281 v 0.04961 q -0.148828,0.07441 -0.37207,0.07441 -0.570508,0 -1.265039,-0.396875 -0.669727,-0.396875 -0.843359,-0.868164 0,0.09922 0.0248,0.272852 l 0.124024,0.79375 q 0,0.198437 0.0248,0.297656 0,0.570508 -0.471289,0.79375 -0.297656,-0.297656 -0.297656,-1.190625 0,-0.496094 0.07441,-1.141016 -0.421679,-0.04961 -0.868164,-0.07441 -0.42168,-0.04961 -0.843359,-0.04961 -4.092774,0 -6.126758,2.852539 v 3.323828 q 2.083594,-2.083594 5.258594,-2.083594 1.314648,0 2.728515,0.42168 1.091407,-0.644922 1.835547,-0.644922 0.496094,0 0.967383,0.248047 -0.173633,0.37207 -0.942578,0.520899 l -1.190625,0.173632 q 2.182812,0.892969 2.182812,1.463477 v 0.04961 q -0.198437,0.07441 -0.396875,0.07441 -1.5875,0 -2.083593,-1.240234 0,0.09922 0.0248,0.272852 l 0.124024,0.793749 q 0,0.198438 0.0248,0.297657 0,0.570508 -0.471289,0.79375 -0.322461,-0.297657 -0.322461,-1.190625 0,-0.496094 0.09922,-1.165821 z"
         style="stroke-width:0.26458332"
         id="path5084"
         inkscape:connector-curvature="0" />
    </g>
  </g>
</svg>
