<?xml version="1.0" encoding="UTF-8" standalone="no"?>
<!-- Created with Inkscape (http://www.inkscape.org/) -->

<svg
   xmlns:dc="http://purl.org/dc/elements/1.1/"
   xmlns:cc="http://creativecommons.org/ns#"
   xmlns:rdf="http://www.w3.org/1999/02/22-rdf-syntax-ns#"
   xmlns:svg="http://www.w3.org/2000/svg"
   xmlns="http://www.w3.org/2000/svg"
   xmlns:sodipodi="http://sodipodi.sourceforge.net/DTD/sodipodi-0.dtd"
   xmlns:inkscape="http://www.inkscape.org/namespaces/inkscape"
   width="36.983788mm"
   height="37.256641mm"
   viewBox="0 0 36.983788 37.256641"
   version="1.1"
   id="svg5093"
   inkscape:version="0.92.4 (5da689c313, 2019-01-14)"
   sodipodi:docname="M27.svg">
  <defs
     id="defs5087" />
  <sodipodi:namedview
     id="base"
     pagecolor="#ffffff"
     bordercolor="#666666"
     borderopacity="1.0"
     inkscape:pageopacity="0.0"
     inkscape:pageshadow="2"
     inkscape:zoom="0.35"
     inkscape:cx="-340.40179"
     inkscape:cy="-391.42857"
     inkscape:document-units="mm"
     inkscape:current-layer="layer1"
     showgrid="false"
     fit-margin-top="0"
     fit-margin-left="0"
     fit-margin-right="0"
     fit-margin-bottom="0"
     inkscape:window-width="1920"
     inkscape:window-height="1017"
     inkscape:window-x="-8"
     inkscape:window-y="-8"
     inkscape:window-maximized="1" />
  <metadata
     id="metadata5090">
    <rdf:RDF>
      <cc:Work
         rdf:about="">
        <dc:format>image/svg+xml</dc:format>
        <dc:type
           rdf:resource="http://purl.org/dc/dcmitype/StillImage" />
        <dc:title></dc:title>
      </cc:Work>
    </rdf:RDF>
  </metadata>
  <g
     inkscape:label="Layer 1"
     inkscape:groupmode="layer"
     id="layer1"
     transform="translate(-2.7521392,-8.0112165)">
    <g
       aria-label="𓇘"
       style="font-style:normal;font-variant:normal;font-weight:normal;font-stretch:normal;font-size:50.79999924px;line-height:1.25;font-family:sans-serif;-inkscape-font-specification:sans-serif;font-variant-ligatures:normal;font-variant-caps:normal;font-variant-numeric:normal;font-feature-settings:normal;text-align:start;letter-spacing:0px;word-spacing:0px;writing-mode:lr-tb;text-anchor:start;fill:#000000;fill-opacity:1;stroke:none;stroke-width:0.26458332"
       id="text5640">
      <path
         d="m 36.139248,14.187584 h 3.59668 V 25.796177 H 23.960147 v 5.060156 q 2.480468,-2.108398 5.333007,-2.108398 1.265039,0 2.654102,0.446484 1.091406,-0.644922 1.835547,-0.644922 0.496094,0 0.967383,0.248047 -0.173633,0.372071 -0.942579,0.520899 l -1.190625,0.173633 q 2.182813,0.917773 2.182813,1.488281 v 0.04961 q -0.148828,0.07441 -0.37207,0.07441 -0.570508,0 -1.265039,-0.396875 -0.669727,-0.396875 -0.84336,-0.868164 0,0.09922 0.02481,0.272852 l 0.124023,0.79375 q 0,0.198437 0.02481,0.297656 0,0.570508 -0.471289,0.79375 -0.297656,-0.297656 -0.297656,-1.190625 0,-0.496094 0.07441,-1.141016 -0.42168,-0.04961 -0.868164,-0.07441 -0.42168,-0.04961 -0.84336,-0.04961 -4.092773,0 -6.126757,2.852539 v 3.323828 q 2.083593,-2.083594 5.258593,-2.083594 1.314649,0 2.728516,0.42168 1.091406,-0.644922 1.835547,-0.644922 0.496094,0 0.967383,0.248047 -0.173633,0.37207 -0.942579,0.520898 l -1.190625,0.173633 q 2.182813,0.892969 2.182813,1.463477 v 0.04961 q -0.198438,0.07441 -0.396875,0.07441 -1.5875,0 -2.083594,-1.240234 0,0.09922 0.02481,0.272851 l 0.124023,0.79375 q 0,0.198438 0.02481,0.297657 0,0.570507 -0.471289,0.79375 -0.322461,-0.297657 -0.322461,-1.190625 0,-0.496094 0.09922,-1.165821 l -0.818555,-0.09922 q -0.42168,0 -0.818555,-0.02481 -4.142382,0 -6.201171,2.877344 v 6.821289 h 2.530078 v 1.190625 h -6.225977 v -1.190625 h 2.505274 v -6.821289 q -2.133203,-2.877344 -6.275586,-2.877344 -0.396875,0 -0.79375,0.02481 l -0.79375,0.09922 q 0.07441,0.644922 0.07441,1.141016 0,0.917773 -0.297656,1.21543 -0.471289,0 -0.471289,-0.84336 v -0.07441 l 0.173632,-1.240234 q -0.173632,0.396875 -0.892968,0.843359 -0.719336,0.446485 -1.190625,0.446485 -0.347266,0 -0.396875,-0.272852 0.347265,-0.669726 2.182812,-1.364258 l -1.190625,-0.173633 q -0.719336,-0.148828 -0.917773,-0.520898 0.248047,-0.322461 0.74414,-0.322461 0.818555,0 2.033985,0.719336 1.413867,-0.42168 2.728515,-0.42168 3.125391,0 5.283399,2.083594 v -3.323828 q -2.108399,-2.852539 -6.201172,-2.852539 -0.42168,0 -0.818555,0.02481 l -0.843359,0.09922 q 0.07441,0.644922 0.07441,1.141016 0,0.892969 -0.297656,1.190625 -0.471289,0 -0.471289,-0.843359 v -0.07441 l 0.173632,-1.240235 q -0.173632,0.347266 -0.892968,0.84336 -0.719336,0.471289 -1.21543,0.471289 -0.322461,0 -0.37207,-0.272852 0.322461,-0.595312 2.182812,-1.389062 l -1.190625,-0.173633 q -0.719336,-0.148828 -0.917773,-0.520899 0.248047,-0.322461 0.74414,-0.322461 0.818555,0 2.033985,0.719336 1.364258,-0.446484 2.654101,-0.446484 2.877344,0 5.357813,2.108398 V 25.796177 H 10.937686 q -1.7611328,0.744141 -3.7703125,0.744141 -1.984375,0 -4.2416015,-0.744141 L 2.7521392,25.324888 q 0,-0.496094 0.2480469,-0.79375 0.2480468,-0.322461 0.7193359,-0.322461 2.0091796,0.79375 5.6058593,0.79375 Q 7.7130766,23.811802 5.3318267,23.811802 L 5.0341704,23.613365 5.3318267,23.390123 q 0.8433593,-0.148829 1.5378906,-0.148829 1.7859374,0 4.0679687,1.364258 0.223242,0 2.207617,-0.148828 2.00918,-0.148828 6.77168,-0.496094 l 1.463476,-0.09922 q 0.694531,0 1.389063,-0.07441 V 12.47606 q 0,-1.413867 -1.513086,-2.455664 -1.513086,-1.0417967 -3.274219,-1.0417967 -1.141016,0 -2.083594,0.5705078 0.07441,0.6449219 0.07441,1.1410159 0,0.892968 -0.297656,1.190625 -0.471289,0 -0.471289,-0.84336 v -0.07441 l 0.173633,-1.2402341 q -0.173633,0.3968751 -0.843359,0.8433591 -0.644922,0.42168 -1.240235,0.42168 -0.223242,0 -0.37207,-0.07441 v -0.04961 q 0,-0.570508 2.158008,-1.4882817 L 13.889444,9.2018415 Q 13.170108,9.0530134 12.97167,8.6809431 q 0.248047,-0.3224609 0.84336,-0.3224609 1.16582,0 1.95957,0.7193359 0.620117,-1.0666016 2.877344,-1.0666016 1.860351,0 3.571875,1.3890625 1.736328,1.389062 1.736328,3.075781 v 11.261328 q 2.778125,-0.148828 4.960937,-0.148828 2.951758,0 5.605859,0.223242 z m 2.80293,11.038085 V 15.055748 h -2.133203 l -1.463477,8.880078 z"
         style="stroke-width:0.26458332"
         id="path5642"
         inkscape:connector-curvature="0" />
    </g>
  </g>
</svg>
