<?xml version="1.0" encoding="UTF-8" standalone="no"?>
<!-- Created with Inkscape (http://www.inkscape.org/) -->

<svg
   xmlns:dc="http://purl.org/dc/elements/1.1/"
   xmlns:cc="http://creativecommons.org/ns#"
   xmlns:rdf="http://www.w3.org/1999/02/22-rdf-syntax-ns#"
   xmlns:svg="http://www.w3.org/2000/svg"
   xmlns="http://www.w3.org/2000/svg"
   xmlns:sodipodi="http://sodipodi.sourceforge.net/DTD/sodipodi-0.dtd"
   xmlns:inkscape="http://www.inkscape.org/namespaces/inkscape"
   width="22.894726mm"
   height="37.306248mm"
   viewBox="0 0 22.894726 37.306248"
   version="1.1"
   id="svg14061"
   inkscape:version="0.92.4 (5da689c313, 2019-01-14)"
   sodipodi:docname="M28.svg">
  <defs
     id="defs14055" />
  <sodipodi:namedview
     id="base"
     pagecolor="#ffffff"
     bordercolor="#666666"
     borderopacity="1.0"
     inkscape:pageopacity="0.0"
     inkscape:pageshadow="2"
     inkscape:zoom="0.35"
     inkscape:cx="-331.83036"
     inkscape:cy="-431.42858"
     inkscape:document-units="mm"
     inkscape:current-layer="layer1"
     showgrid="false"
     fit-margin-top="0"
     fit-margin-left="0"
     fit-margin-right="0"
     fit-margin-bottom="0"
     inkscape:window-width="1920"
     inkscape:window-height="1017"
     inkscape:window-x="-8"
     inkscape:window-y="-8"
     inkscape:window-maximized="1" />
  <metadata
     id="metadata14058">
    <rdf:RDF>
      <cc:Work
         rdf:about="">
        <dc:format>image/svg+xml</dc:format>
        <dc:type
           rdf:resource="http://purl.org/dc/dcmitype/StillImage" />
        <dc:title></dc:title>
      </cc:Work>
    </rdf:RDF>
  </metadata>
  <g
     inkscape:label="Layer 1"
     inkscape:groupmode="layer"
     id="layer1"
     transform="translate(-0.48428224,2.6217283)">
    <g
       aria-label="𓇙"
       style="font-style:normal;font-variant:normal;font-weight:normal;font-stretch:normal;font-size:50.79999924px;line-height:1.25;font-family:sans-serif;-inkscape-font-specification:'sans-serif, Normal';font-variant-ligatures:normal;font-variant-caps:normal;font-variant-numeric:normal;font-feature-settings:normal;text-align:start;letter-spacing:0px;word-spacing:0px;writing-mode:lr-tb;text-anchor:start;fill:#000000;fill-opacity:1;stroke:none;stroke-width:0.26458332"
       id="text14608">
      <path
         d="m 12.514555,28.458544 q 2.505274,0.496094 2.505274,3.001367 v 3.22461 h -1.066602 v -3.22461 q 0,-1.984375 -2.058789,-1.984375 -2.058789,0 -2.058789,1.984375 v 3.22461 H 8.7938521 v -3.22461 q 0,-2.505273 2.5300779,-3.001367 V 21.66206 q -2.1332029,-2.877344 -6.2755856,-2.877344 -0.396875,0 -0.7689453,0.02481 l -0.8185547,0.09922 0.1488281,1.265039 v 0.198437 q 0,0.768946 -0.3720703,0.868164 -0.5208984,0 -0.5208984,-0.644922 0,-0.37207 0.099219,-0.868164 0.1240235,-0.520898 0.1240235,-0.620117 -0.1736328,0.297656 -0.9425781,0.84336 -0.7689453,0.520898 -1.19062503,0.520898 -0.32246093,0 -0.32246093,-0.347266 0,-0.496093 2.15800776,-1.364257 -0.2232422,0 -1.0914062,-0.09922 -0.84335938,-0.124024 -0.9921875,-0.595313 0.0496094,-0.347265 0.5705078,-0.347265 1.3146484,0 2.1828125,0.74414 1.4882812,-0.471289 2.8773437,-0.471289 2.8773437,0 5.1345697,2.133203 v -3.348632 q -2.1332026,-2.827735 -6.1267572,-2.827735 -0.4216797,0 -0.8433594,0.02481 l -0.8929687,0.09922 0.1488281,1.265039 v 0.198437 q 0,0.372071 -0.099219,0.595313 -0.074414,0.223242 -0.2728516,0.272851 -0.5208984,0 -0.5208984,-0.669726 0,-0.347266 0.099219,-0.84336 0.1240235,-0.520898 0.1240235,-0.620117 -0.1736328,0.297656 -0.9673828,0.84336 -0.7689453,0.520898 -1.16582033,0.520898 -0.32246093,0 -0.32246093,-0.37207 0,-0.496094 2.15800776,-1.364258 L 1.4516647,13.749365 Q 0.70752412,13.600537 0.558696,13.178857 q 0,-0.322461 0.5457031,-0.322461 1.2650391,0 2.2076172,0.719336 1.3890625,-0.42168 2.6292968,-0.42168 2.9021484,0 5.3826169,2.108399 V 1.8927243 q 0,-1.43867181 -1.5626951,-2.4308593 -1.5378906,-1.0169922 -3.3486327,-1.0169922 -1.2650391,0 -1.9595703,0.5208985 0.049609,0.32246089 0.074414,0.62011714 l 0.049609,0.64492186 v 0.1984375 q 0,0.7689453 -0.3472656,0.868164 -0.5208984,0 -0.5208984,-0.64492182 0,-0.32246093 0.099219,-0.81855467 l 0.099219,-0.44648437 q 0,-0.17363281 0.024805,-0.24804687 -0.1488281,0.34726562 -0.868164,0.84335936 -0.7193359,0.49609374 -1.2154297,0.49609374 -0.2728515,0 -0.3720703,-0.14882812 v -0.0744141 q 0,-0.57050781 2.1580078,-1.46347655 -0.2976562,-0.049609 -0.5953125,-0.074414 l -0.595313,-0.049609 q -0.7193359,-0.1488281 -0.9177734,-0.5705078 0,-0.3224609 0.5953125,-0.3224609 1.3394531,0 2.2076171,0.7193359 0.6201172,-1.1162109 2.4060547,-1.1162109 2.058789,0 3.9191409,1.3394531 1.860351,1.33945309 1.860351,3.1749999 V 15.262451 q 2.43086,-2.108399 5.357813,-2.108399 1.215429,0 2.629296,0.42168 0.719336,-0.719336 2.158008,-0.719336 0.545703,0 0.644922,0.322461 -0.173633,0.37207 -2.133203,0.719336 2.207617,0.942578 2.207617,1.364258 0,0.347265 -0.347265,0.347265 -0.47129,0 -1.26504,-0.520898 -0.793749,-0.545703 -0.892968,-0.818555 0,0.198438 0.07441,0.669727 0.09922,0.471289 0.09922,0.74414 0,0.644922 -0.396875,0.694532 -0.396875,0.04961 -0.396875,-0.992188 0,-0.520898 0.09922,-1.314648 l -0.868164,-0.09922 q -0.446484,0 -0.868164,-0.02481 -4.067968,0 -6.101953,2.827735 v 3.348632 q 2.083594,-2.083593 5.233789,-2.083593 1.339453,0 2.75332,0.421679 0.744141,-0.74414 2.158008,-0.74414 0.520899,0 0.644922,0.347265 -0.173633,0.396875 -0.942578,0.545703 l -1.190625,0.148829 q 2.207617,0.892968 2.207617,1.364257 0,0.347266 -0.322461,0.347266 -0.471289,0 -1.289844,-0.545703 -0.793749,-0.570508 -0.892968,-0.818555 0,0.198438 0.07441,0.669727 0.09922,0.471289 0.09922,0.768945 0,0.694531 -0.471289,0.694531 -0.322461,-0.09922 -0.322461,-1.016992 0,-0.520898 0.09922,-1.314648 -2.778125,0.04961 -3.894336,0.173633 -1.11621,0.124023 -2.133203,0.79375 -0.992187,0.644921 -1.810742,1.785937 z"
         style="stroke-width:0.26458332"
         id="path14610"
         inkscape:connector-curvature="0" />
    </g>
  </g>
</svg>
