<?xml version="1.0" encoding="UTF-8" standalone="no"?>
<!-- Created with Inkscape (http://www.inkscape.org/) -->

<svg
   xmlns:dc="http://purl.org/dc/elements/1.1/"
   xmlns:cc="http://creativecommons.org/ns#"
   xmlns:rdf="http://www.w3.org/1999/02/22-rdf-syntax-ns#"
   xmlns:svg="http://www.w3.org/2000/svg"
   xmlns="http://www.w3.org/2000/svg"
   xmlns:sodipodi="http://sodipodi.sourceforge.net/DTD/sodipodi-0.dtd"
   xmlns:inkscape="http://www.inkscape.org/namespaces/inkscape"
   width="21.753716mm"
   height="42.167961mm"
   viewBox="0 0 21.753716 42.167961"
   version="1.1"
   id="svg5651"
   inkscape:version="0.92.4 (5da689c313, 2019-01-14)"
   sodipodi:docname="M28A.svg">
  <defs
     id="defs5645" />
  <sodipodi:namedview
     id="base"
     pagecolor="#ffffff"
     bordercolor="#666666"
     borderopacity="1.0"
     inkscape:pageopacity="0.0"
     inkscape:pageshadow="2"
     inkscape:zoom="0.35"
     inkscape:cx="-328.97321"
     inkscape:cy="-323.45538"
     inkscape:document-units="mm"
     inkscape:current-layer="layer1"
     showgrid="false"
     fit-margin-top="0"
     fit-margin-left="0"
     fit-margin-right="0"
     fit-margin-bottom="0"
     inkscape:window-width="1920"
     inkscape:window-height="1017"
     inkscape:window-x="-8"
     inkscape:window-y="-8"
     inkscape:window-maximized="1" />
  <metadata
     id="metadata5648">
    <rdf:RDF>
      <cc:Work
         rdf:about="">
        <dc:format>image/svg+xml</dc:format>
        <dc:type
           rdf:resource="http://purl.org/dc/dcmitype/StillImage" />
        <dc:title></dc:title>
      </cc:Work>
    </rdf:RDF>
  </metadata>
  <g
     inkscape:label="Layer 1"
     inkscape:groupmode="layer"
     id="layer1"
     transform="translate(0.27167049,-21.084467)">
    <g
       aria-label="𓇚"
       style="font-style:normal;font-variant:normal;font-weight:normal;font-stretch:normal;font-size:50.79999924px;line-height:1.25;font-family:sans-serif;-inkscape-font-specification:sans-serif;font-variant-ligatures:normal;font-variant-caps:normal;font-variant-numeric:normal;font-feature-settings:normal;text-align:start;letter-spacing:0px;word-spacing:0px;writing-mode:lr-tb;text-anchor:start;fill:#000000;fill-opacity:1;stroke:none;stroke-width:0.26458332"
       id="text6198">
      <path
         d="M 7.6906341,50.478021 Q 7.1945403,47.154193 6.425595,43.507904 5.6814544,39.836811 4.6892669,35.744037 3.3994232,35.49599 2.4568451,34.206147 1.514267,32.891498 -0.24686579,32.891498 l -0.0248047,-0.0248 q 0,-0.09922 0.64492187,-0.818555 0.66972652,-0.719336 0.66972652,-0.818555 v -0.02481 q 0.2728516,-0.223242 0.7689453,-1.562695 0.5208985,-1.364258 1.7363281,-1.364258 0.2976563,0 0.5457032,0.173633 0.2728515,0.148828 0.471289,0.347266 l 0.4960938,0.520898 q 0.2232421,0.272852 0.6201171,0.272852 1.4386719,0 2.6044922,0.942578 -2.2820312,0.744141 -2.2820312,1.95957 0,0.124024 0.049609,0.322461 l 0.1736328,0.942578 q 0,0.223242 0.024805,0.372071 0,0.79375 -0.7689453,1.389062 0.9177735,4.067969 1.6619141,7.763867 0.7441406,3.671094 1.3394531,7.193359 L 9.0796966,51.147747 9.6750091,50.47802 V 29.716498 Q 8.1123138,29.468451 7.541806,27.087201 6.9712982,24.705951 5.0861419,24.160248 q 1.8107422,0 2.8773437,-1.53789 1.0666016,-1.537891 2.1828124,-1.537891 1.116211,0 2.257227,1.513086 1.16582,1.513086 2.678906,1.562695 -1.885156,0.545703 -2.306836,2.926953 -0.42168,2.38125 -2.282031,2.629297 v 20.761523 l 0.74414,0.669727 0.644922,-0.669727 1.265039,-7.590234 q 0.79375,-4.415234 1.934766,-7.416601 -0.719336,-0.719336 -0.719336,-1.885157 v -0.297656 q 0,-0.124023 0.02481,-0.297656 0,-1.686719 -2.108399,-2.455664 0.967383,-0.967383 2.43086,-0.967383 0.421679,0 1.16582,-0.694531 0.74414,-0.719336 1.413867,-0.719336 1.513086,0 1.860352,1.934766 0.347265,1.934765 2.33164,2.827734 -0.297656,0 -0.570508,-0.02481 -1.562695,0 -2.158007,0.372071 -0.570508,0.347265 -1.041797,1.289843 -0.471289,0.917774 -1.835547,1.190625 -0.446485,1.165821 -1.314649,5.159375 -0.868164,3.993555 -1.885156,9.574609 l 0.223242,1.389063 q 1.240235,0.620117 2.282032,2.083594 1.041796,1.463476 1.041796,3.373437 0,2.530078 -1.835546,4.216797 -1.810743,1.711523 -4.365625,1.711523 -2.5052737,0 -4.2167971,-1.661914 -1.6867188,-1.661914 -1.6867188,-4.266406 0,-1.810742 0.8433594,-3.224609 0.8433594,-1.438672 2.3316406,-2.282032 z M 12.924423,61.26806 q 0.669727,-0.471289 1.314648,-1.215429 l -2.852539,-2.852539 2.728516,-2.728516 Q 13.569345,53.75224 12.850009,53.231342 l -2.827734,2.827734 -2.80293,-2.827734 q -0.6697265,0.496093 -1.1410156,1.240234 l 2.7285156,2.728516 -2.852539,2.827734 q 0.4216797,0.719336 1.2154297,1.265039 l 2.8773433,-2.877344 z m -2.902148,-6.424414 2.083593,-2.108398 q -1.116211,-0.520899 -2.1580074,-0.520899 -1.0666015,0 -1.984375,0.520899 z m 4.688086,4.415235 q 0.446484,-0.967383 0.446484,-1.909961 0,-1.016992 -0.570508,-2.108399 l -1.95957,1.959571 z M 7.5666107,57.200092 5.6070404,55.265326 q -0.4216797,1.066602 -0.4216797,2.083594 0,0.471289 0.074414,0.942578 0.074414,0.471289 0.2728515,0.917773 z m 2.4804683,2.430859 -2.0835934,2.083594 q 0.9673828,0.471289 2.0587894,0.471289 1.066601,0 2.108398,-0.471289 z m 2.852539,-35.371484 q -0.223242,-0.124023 -0.471289,-0.272851 -0.198437,-0.124024 -0.421679,-0.297657 -0.223243,-0.173633 -0.347266,-0.37207 -0.09922,-0.124023 -0.248047,-0.347266 -0.148828,-0.223242 -0.347265,-0.421679 -0.198438,-0.223243 -0.446485,-0.372071 -0.223242,-0.173632 -0.471289,-0.173632 -0.3472655,0 -0.7441405,0.347265 -0.396875,0.347266 -0.7441406,0.917774 -0.1736328,0.272851 -0.4216797,0.496093 -0.2232422,0.198438 -0.4216797,0.322461 -0.2728515,0.148828 -0.5208984,0.272852 0.2728516,0.322461 0.4960937,0.595312 0.1984375,0.272852 0.3720703,0.545703 0.1736329,0.272852 0.2728516,0.545704 0.074414,0.272851 0.1488281,0.719335 0.099219,0.42168 0.2728516,0.868165 0.1736328,0.421679 0.471289,0.74414 0.322461,0.297656 0.8433596,0.297656 0.520898,0 0.843359,-0.347265 0.347266,-0.372071 0.545703,-0.84336 0.198438,-0.471289 0.272852,-0.942578 0.09922,-0.496093 0.148828,-0.719336 0.04961,-0.223242 0.173633,-0.496093 0.148828,-0.272852 0.322461,-0.520899 0.198437,-0.272851 0.421679,-0.545703 z m 6.35,7.887891 Q 19.075985,31.94892 18.902353,31.700873 18.753525,31.502436 18.604696,31.254389 18.455868,30.981537 18.35665,30.708686 18.30704,30.584662 18.25743,30.36142 q -0.04961,-0.223242 -0.124024,-0.446484 -0.07441,-0.223242 -0.198437,-0.42168 -0.124024,-0.198437 -0.322461,-0.297656 -0.148828,-0.04961 -0.347266,0 -0.198437,0.04961 -0.446484,0.173633 -0.223242,0.09922 -0.471289,0.272851 -0.248047,0.148828 -0.471289,0.322461 -0.223242,0.173633 -0.545703,0.272852 -0.322461,0.07441 -0.644922,0.124023 -0.37207,0.07441 -0.744141,0.07441 0.297656,0.272852 0.545703,0.595313 0.198438,0.272851 0.396875,0.644922 0.198438,0.347265 0.272852,0.768945 0.0248,0.223242 0.0248,0.570508 0,0.322461 0.0248,0.669726 0.04961,0.322461 0.173633,0.595313 0.124024,0.248047 0.446484,0.347265 0.372071,0.124024 0.669727,-0.04961 0.297656,-0.198438 0.520898,-0.496094 0.248047,-0.297656 0.42168,-0.620117 0.173633,-0.322461 0.297656,-0.471289 0.124024,-0.124023 0.347266,-0.272852 0.248047,-0.173632 0.520898,-0.297656 0.297657,-0.148828 0.644922,-0.272851 z m -17.9089838,0 q 0.3472656,0.124023 0.6449218,0.272851 0.2728516,0.124024 0.4960938,0.297656 0.2480469,0.148829 0.3720703,0.272852 0.1240234,0.148828 0.2976562,0.471289 0.1736329,0.322461 0.396875,0.620117 0.2480469,0.297656 0.5457032,0.496094 0.2976562,0.173633 0.6697265,0.04961 0.3224609,-0.09922 0.396875,-0.396875 0.099219,-0.297656 0.099219,-0.644922 0,-0.37207 -0.049609,-0.74414 -0.049609,-0.37207 0,-0.595313 0.049609,-0.421679 0.2728515,-0.74414 0.2480469,-0.322461 0.5208985,-0.570508 0.2976562,-0.272852 0.6449218,-0.496094 -0.396875,0 -0.7689453,-0.04961 Q 5.557431,30.336615 5.2101654,30.262201 4.8877044,30.187787 4.6892669,30.014154 4.4660248,29.840522 4.2427826,29.666889 4.0443451,29.493256 3.8459076,29.369233 3.6474701,29.245209 3.4738373,29.1956 3.3250092,29.121186 3.176181,29.170795 2.9777435,29.270014 2.8041107,29.468451 2.6552826,29.666889 2.5312592,29.914936 2.4320404,30.138178 2.3576264,30.36142 2.2832123,30.584662 2.2336029,30.708686 2.1343842,30.981537 1.985556,31.254389 1.8367279,31.502436 1.6878998,31.700873 1.514267,31.94892 1.3406342,32.147358 Z"
         style="stroke-width:0.26458332"
         id="path6200"
         inkscape:connector-curvature="0" />
    </g>
  </g>
</svg>
