<?xml version="1.0" encoding="UTF-8" standalone="no"?>
<!-- Created with Inkscape (http://www.inkscape.org/) -->

<svg
   xmlns:dc="http://purl.org/dc/elements/1.1/"
   xmlns:cc="http://creativecommons.org/ns#"
   xmlns:rdf="http://www.w3.org/1999/02/22-rdf-syntax-ns#"
   xmlns:svg="http://www.w3.org/2000/svg"
   xmlns="http://www.w3.org/2000/svg"
   xmlns:sodipodi="http://sodipodi.sourceforge.net/DTD/sodipodi-0.dtd"
   xmlns:inkscape="http://www.inkscape.org/namespaces/inkscape"
   width="6.7220702mm"
   height="37.975975mm"
   viewBox="0 0 6.7220702 37.975975"
   version="1.1"
   id="svg14619"
   inkscape:version="0.92.4 (5da689c313, 2019-01-14)"
   sodipodi:docname="M29.svg">
  <defs
     id="defs14613" />
  <sodipodi:namedview
     id="base"
     pagecolor="#ffffff"
     bordercolor="#666666"
     borderopacity="1.0"
     inkscape:pageopacity="0.0"
     inkscape:pageshadow="2"
     inkscape:zoom="0.35"
     inkscape:cx="-343.25977"
     inkscape:cy="-340.19407"
     inkscape:document-units="mm"
     inkscape:current-layer="layer1"
     showgrid="false"
     fit-margin-top="0"
     fit-margin-left="0"
     fit-margin-right="0"
     fit-margin-bottom="0"
     inkscape:window-width="1920"
     inkscape:window-height="1017"
     inkscape:window-x="-8"
     inkscape:window-y="-8"
     inkscape:window-maximized="1" />
  <metadata
     id="metadata14616">
    <rdf:RDF>
      <cc:Work
         rdf:about="">
        <dc:format>image/svg+xml</dc:format>
        <dc:type
           rdf:resource="http://purl.org/dc/dcmitype/StillImage" />
        <dc:title></dc:title>
      </cc:Work>
    </rdf:RDF>
  </metadata>
  <g
     inkscape:label="Layer 1"
     inkscape:groupmode="layer"
     id="layer1"
     transform="translate(-3.508313,-20.847678)">
    <g
       aria-label="𓇛"
       transform="scale(0.26458333)"
       style="font-style:normal;font-variant:normal;font-weight:normal;font-stretch:normal;font-size:192px;line-height:1.25;font-family:sans-serif;-inkscape-font-specification:'sans-serif, Normal';font-variant-ligatures:normal;font-variant-caps:normal;font-variant-numeric:normal;font-feature-settings:normal;text-align:start;letter-spacing:0px;word-spacing:0px;writing-mode:lr-tb;text-anchor:start;fill:#000000;fill-opacity:1;stroke:none"
       id="flowRoot15164">
      <path
         d="m 29.384766,96.044374 q 4.6875,2.34375 6.46875,5.156246 1.78125,2.8125 1.78125,6.84375 0,2.625 -0.5625,6 -0.5625,3.375 -1.59375,6.5625 l -2.25,6.5625 q 1.59375,3.9375 2.25,8.15625 0.65625,4.125 0.65625,8.34375 0,5.34375 -0.84375,10.78125 -0.84375,5.34375 -2.0625,10.40625 1.59375,3.9375 2.25,7.78125 0.65625,3.75 0.65625,7.5 0,3.65625 -0.5625,7.40625 -0.46875,3.65625 -1.125,7.3125 l -1.5,7.5 q -0.75,3.84375 -1.3125,7.78125 1.03125,2.90625 2.71875,5.4375 1.6875,2.4375 4.3125,4.03125 l -1.40625,2.71875 q -9.1875,-6.5625 -12.5625,-10.78125 -3.375,-4.21875 -6.375,-11.53125 -2.90625,-7.40625 -2.90625,-16.59375 0,-4.5 0.65625,-9 0.65625,-4.59375 1.875,-9.46875 -1.3125,-5.4375 -2.25,-10.78125 -0.84375,-5.34375 -0.84375,-10.6875 0,-4.125 0.65625,-8.0625 0.75,-4.03125 2.34375,-8.15625 -1.78125,-3.65625 -2.90625,-7.59375 -1.125,-4.03125 -1.5,-8.0625 l -0.09375,-1.78125 q 0,-0.75 -0.09375,-1.59375 0,-4.40625 1.6875,-7.6875 1.6875,-3.281246 6.84375,-4.781246 v -15.1875 l 1.40625,-1.78125 h 4.59375 l 1.59375,1.5 z m -3,0.5625 v -14.8125 h -1.59375 v 15.09375 l -1.125,1.5 q -4.3125,1.3125 -5.90625,3.562496 -1.5,2.15625 -1.5,5.8125 l 0.1875,3.5625 q 0.375,4.03125 1.5,7.96875 1.21875,3.84375 3,7.40625 v 0.9375 q -1.78125,4.40625 -2.53125,8.0625 -0.75,3.65625 -0.75,7.21875 0,5.4375 1.6875,13.3125 1.6875,7.78125 1.6875,9.1875 0,1.125 -1.21875,4.78125 -1.21875,3.5625 -1.5,12.09375 v 1.21875 q 0,8.90625 2.625,15.5625 2.625,6.5625 7.78125,12.09375 l -0.09375,-0.5625 q 0,-0.46875 -0.09375,-1.03125 0,-0.5625 0.09375,-1.3125 0.1875,-0.84375 0.375,-1.5 l 0.84375,-3.75 1.5,-7.875 q 0.65625,-3.5625 1.3125,-7.96875 0.65625,-4.40625 0.65625,-7.6875 0,-1.96875 -0.1875,-3.9375 -0.1875,-1.96875 -1.125,-4.6875 l -0.84375,-2.34375 q -0.375,-0.9375 -0.75,-1.96875 -0.28125,-1.03125 -0.28125,-1.59375 v -0.28125 q 0,-0.46875 1.5,-7.125 1.5,-6.65625 1.5,-13.78125 0,-8.25 -1.5,-11.90625 -1.40625,-3.75 -1.40625,-4.6875 0,-0.84375 0.28125,-1.96875 0.375,-1.21875 0.84375,-2.4375 l 1.03125,-2.8125 q 0.84375,-2.34375 1.6875,-5.90625 0.84375,-3.65625 0.84375,-5.90625 0,-3.09375 -1.6875,-5.4375 -1.59375,-2.34375 -5.90625,-4.406246 z"
         id="path15172"
         inkscape:connector-curvature="0" />
    </g>
  </g>
</svg>
