<?xml version="1.0" encoding="UTF-8" standalone="no"?>
<!-- Created with Inkscape (http://www.inkscape.org/) -->

<svg
   xmlns:dc="http://purl.org/dc/elements/1.1/"
   xmlns:cc="http://creativecommons.org/ns#"
   xmlns:rdf="http://www.w3.org/1999/02/22-rdf-syntax-ns#"
   xmlns:svg="http://www.w3.org/2000/svg"
   xmlns="http://www.w3.org/2000/svg"
   xmlns:sodipodi="http://sodipodi.sourceforge.net/DTD/sodipodi-0.dtd"
   xmlns:inkscape="http://www.inkscape.org/namespaces/inkscape"
   width="37.256641mm"
   height="7.1189451mm"
   viewBox="0 0 37.256641 7.1189451"
   version="1.1"
   id="svg9297"
   inkscape:version="0.92.4 (5da689c313, 2019-01-14)"
   sodipodi:docname="M3.svg">
  <defs
     id="defs9291" />
  <sodipodi:namedview
     id="base"
     pagecolor="#ffffff"
     bordercolor="#666666"
     borderopacity="1.0"
     inkscape:pageopacity="0.0"
     inkscape:pageshadow="2"
     inkscape:zoom="0.35"
     inkscape:cx="-348.97266"
     inkscape:cy="-284.83274"
     inkscape:document-units="mm"
     inkscape:current-layer="layer1"
     showgrid="false"
     fit-margin-top="0"
     fit-margin-left="0"
     fit-margin-right="0"
     fit-margin-bottom="0"
     inkscape:window-width="1920"
     inkscape:window-height="1017"
     inkscape:window-x="-8"
     inkscape:window-y="-8"
     inkscape:window-maximized="1" />
  <metadata
     id="metadata9294">
    <rdf:RDF>
      <cc:Work
         rdf:about="">
        <dc:format>image/svg+xml</dc:format>
        <dc:type
           rdf:resource="http://purl.org/dc/dcmitype/StillImage" />
        <dc:title></dc:title>
      </cc:Work>
    </rdf:RDF>
  </metadata>
  <g
     inkscape:label="Layer 1"
     inkscape:groupmode="layer"
     id="layer1"
     transform="translate(-5.0198485,-66.352393)">
    <g
       aria-label="𓆱"
       transform="scale(0.26458333)"
       style="font-style:normal;font-variant:normal;font-weight:normal;font-stretch:normal;font-size:192px;line-height:1.25;font-family:sans-serif;-inkscape-font-specification:sans-serif;font-variant-ligatures:normal;font-variant-caps:normal;font-variant-numeric:normal;font-feature-settings:normal;text-align:start;letter-spacing:0px;word-spacing:0px;writing-mode:lr-tb;text-anchor:start;fill:#000000;fill-opacity:1;stroke:none"
       id="flowRoot9845">
      <path
         d="m 159.78516,260.06195 v 4.6875 l -51.28125,-3 q -1.59375,1.3125 -5.15625,2.90625 -3.468754,1.5 -9.375004,3.28125 l -1.875,-3.9375 q 5.15625,-1.03125 11.156254,-3.9375 -6.093754,-2.71875 -12.750004,-3.9375 -24.65625,21.5625 -61.6875,21.5625 v -4.6875 q 9.46875,0 12.75,-0.5625 -1.40625,-0.9375 -3.5625,-2.34375 -2.15625,-1.5 -4.96875,-3.75 -2.8125,-2.34375 -6.375,-5.53125 -3.46875,-3.28125 -7.6875,-7.6875 h 5.8125 q 2.53125,2.625 5.0625,4.96875 2.53125,2.25 5.25,4.5 2.8125,2.25 5.8125,4.5 3,2.15625 6.46875,4.6875 5.71875,-0.75 10.875,-2.34375 5.15625,-1.6875 9.84375,-3.9375 4.6875,-2.25 8.8125,-4.875 4.21875,-2.71875 7.96875,-5.53125 h -7.125 q -1.875,0 -4.78125,0.28125 -2.8125,0.28125 -6.5625,0.9375 v -4.875 q 3.75,-0.375 6.84375,-0.46875 3.1875,-0.1875 5.90625,-0.1875 7.6875,0 18.5625,3.09375 5.437504,1.5 8.625004,2.34375 3.1875,0.75 4.21875,0.84375 z"
         id="path9853"
         inkscape:connector-curvature="0" />
    </g>
  </g>
</svg>
