<?xml version="1.0" encoding="UTF-8" standalone="no"?>
<!-- Created with Inkscape (http://www.inkscape.org/) -->

<svg
   xmlns:dc="http://purl.org/dc/elements/1.1/"
   xmlns:cc="http://creativecommons.org/ns#"
   xmlns:rdf="http://www.w3.org/1999/02/22-rdf-syntax-ns#"
   xmlns:svg="http://www.w3.org/2000/svg"
   xmlns="http://www.w3.org/2000/svg"
   xmlns:sodipodi="http://sodipodi.sourceforge.net/DTD/sodipodi-0.dtd"
   xmlns:inkscape="http://www.inkscape.org/namespaces/inkscape"
   width="10.988477mm"
   height="38.025585mm"
   viewBox="0 0 10.988477 38.025585"
   version="1.1"
   id="svg15743"
   inkscape:version="0.92.4 (5da689c313, 2019-01-14)"
   sodipodi:docname="M30.svg">
  <defs
     id="defs15737" />
  <sodipodi:namedview
     id="base"
     pagecolor="#ffffff"
     bordercolor="#666666"
     borderopacity="1.0"
     inkscape:pageopacity="0.0"
     inkscape:pageshadow="2"
     inkscape:zoom="0.35"
     inkscape:cx="-334.6875"
     inkscape:cy="-374.85422"
     inkscape:document-units="mm"
     inkscape:current-layer="layer1"
     showgrid="false"
     fit-margin-top="0"
     fit-margin-left="0"
     fit-margin-right="0"
     fit-margin-bottom="0"
     inkscape:window-width="1920"
     inkscape:window-height="1017"
     inkscape:window-x="-8"
     inkscape:window-y="-8"
     inkscape:window-maximized="1" />
  <metadata
     id="metadata15740">
    <rdf:RDF>
      <cc:Work
         rdf:about="">
        <dc:format>image/svg+xml</dc:format>
        <dc:type
           rdf:resource="http://purl.org/dc/dcmitype/StillImage" />
        <dc:title></dc:title>
      </cc:Work>
    </rdf:RDF>
  </metadata>
  <g
     inkscape:label="Layer 1"
     inkscape:groupmode="layer"
     id="layer1"
     transform="translate(-1.2402344,-11.627569)">
    <g
       aria-label="𓇜"
       transform="scale(0.26458333)"
       style="font-style:normal;font-variant:normal;font-weight:normal;font-stretch:normal;font-size:192px;line-height:1.25;font-family:sans-serif;-inkscape-font-specification:'sans-serif, Normal';font-variant-ligatures:normal;font-variant-caps:normal;font-variant-numeric:normal;font-feature-settings:normal;text-align:start;letter-spacing:0px;word-spacing:0px;writing-mode:lr-tb;text-anchor:start;fill:#000000;fill-opacity:1;stroke:none"
       id="flowRoot16288">
      <path
         d="m 34.6875,45.915468 -7.96875,18.84375 q 1.125,1.96875 1.125,4.03125 0,1.96875 -0.9375,3.84375 -0.84375,1.78125 -2.4375,3 4.40625,7.78125 6.1875,15.09375 1.875,7.21875 1.875,14.812502 0,9.09375 -3,24.84375 -2.90625,15.65625 -5.25,26.15625 3.5625,10.40625 7.96875,16.40625 4.40625,5.90625 13.96875,12.09375 l -1.40625,2.625 q -7.03125,-2.625 -13.3125,-9.28125 -6.1875,-6.75 -9.84375,-11.4375 l -1.875,-2.4375 q -1.03125,-1.21875 -1.6875,-2.34375 l -6.1875,5.15625 -2.53125,-1.6875 1.5,-3.46875 2.625,-5.71875 q -1.40625,-9.375 -2.71875,-18.65625 l -2.625,-18.65625 q -0.84375,-6.28125 -0.84375,-12.1875 0,-8.156252 1.78125,-15.750002 1.78125,-7.59375 5.71875,-15.5625 -1.6875,-1.125 -2.53125,-2.8125 -0.75,-1.78125 -0.75,-3.65625 0,-2.34375 1.125,-4.21875 l -7.96875,-18.75 1.21875,-2.25 H 33.1875 Z m -8.53125,86.343752 q 1.3125,-7.40625 2.34375,-13.96875 1.03125,-6.5625 1.03125,-12.84375 0,-7.031252 -1.6875,-13.875002 -1.6875,-6.9375 -6.09375,-14.4375 -0.84375,0.28125 -1.875,0.28125 l -0.28125,-0.09375 q -1.125,0 -2.15625,-0.28125 -3.5625,6.84375 -5.4375,14.34375 -1.875,7.5 -1.875,15.187502 v 2.4375 q 0,5.15625 3.28125,26.34375 3.28125,21.09375 3.28125,22.21875 0,1.03125 -0.375,2.0625 l 2.34375,-1.3125 q 1.03125,0.75 2.15625,2.90625 1.21875,2.15625 3.375,4.3125 -0.84375,-1.96875 -1.6875,-4.03125 -0.75,-2.15625 -1.3125,-4.59375 v -0.375 q 0,-0.375 0.09375,-1.03125 L 21.75,153.35297 q 0,0.46875 0.9375,-3.28125 0.9375,-3.84375 1.96875,-9.5625 z M 24.375,62.134218 h 0.09375 l 0.09375,0.09375 6.46875,-15.28125 H 8.25 l 6.5625,15.375 q 0.65625,-0.65625 2.15625,-1.21875 1.59375,-0.5625 3,-0.5625 2.53125,0 4.40625,1.59375 z m -3.28125,12 0.9375,-0.46875 q 1.03125,-0.46875 1.875,-1.6875 0.9375,-1.3125 0.9375,-2.90625 v -0.375 q 0,-1.78125 -1.59375,-3.375 -1.5,-1.6875 -3.65625,-1.6875 -2.0625,0 -3.65625,1.59375 -1.59375,1.59375 -1.59375,3.65625 0,2.0625 1.59375,3.75 1.59375,1.6875 3.84375,1.6875 0.65625,0 1.3125,-0.1875 z"
         id="path16296"
         inkscape:connector-curvature="0" />
    </g>
  </g>
</svg>
