<?xml version="1.0" encoding="UTF-8" standalone="no"?>
<!-- Created with Inkscape (http://www.inkscape.org/) -->

<svg
   xmlns:dc="http://purl.org/dc/elements/1.1/"
   xmlns:cc="http://creativecommons.org/ns#"
   xmlns:rdf="http://www.w3.org/1999/02/22-rdf-syntax-ns#"
   xmlns:svg="http://www.w3.org/2000/svg"
   xmlns="http://www.w3.org/2000/svg"
   xmlns:sodipodi="http://sodipodi.sourceforge.net/DTD/sodipodi-0.dtd"
   xmlns:inkscape="http://www.inkscape.org/namespaces/inkscape"
   width="13.146484mm"
   height="23.415627mm"
   viewBox="0 0 13.146484 23.415627"
   version="1.1"
   id="svg15181"
   inkscape:version="0.92.4 (5da689c313, 2019-01-14)"
   sodipodi:docname="M31.svg">
  <defs
     id="defs15175" />
  <sodipodi:namedview
     id="base"
     pagecolor="#ffffff"
     bordercolor="#666666"
     borderopacity="1.0"
     inkscape:pageopacity="0.0"
     inkscape:pageshadow="2"
     inkscape:zoom="0.35"
     inkscape:cx="-406.11691"
     inkscape:cy="-406.18932"
     inkscape:document-units="mm"
     inkscape:current-layer="layer1"
     showgrid="false"
     fit-margin-top="0"
     fit-margin-left="0"
     fit-margin-right="0"
     fit-margin-bottom="0"
     inkscape:window-width="1920"
     inkscape:window-height="1017"
     inkscape:window-x="-8"
     inkscape:window-y="-8"
     inkscape:window-maximized="1" />
  <metadata
     id="metadata15178">
    <rdf:RDF>
      <cc:Work
         rdf:about="">
        <dc:format>image/svg+xml</dc:format>
        <dc:type
           rdf:resource="http://purl.org/dc/dcmitype/StillImage" />
        <dc:title></dc:title>
      </cc:Work>
    </rdf:RDF>
  </metadata>
  <g
     inkscape:label="Layer 1"
     inkscape:groupmode="layer"
     id="layer1"
     transform="translate(-20.139266,-17.946784)">
    <g
       aria-label="ð“‡"
       transform="matrix(0.26458333,0,0,0.26458333,27.214286,-7.5595238)"
       style="font-style:normal;font-variant:normal;font-weight:normal;font-stretch:normal;font-size:192px;line-height:1.25;font-family:sans-serif;-inkscape-font-specification:'sans-serif, Normal';font-variant-ligatures:normal;font-variant-caps:normal;font-variant-numeric:normal;font-feature-settings:normal;text-align:start;letter-spacing:0px;word-spacing:0px;writing-mode:lr-tb;text-anchor:start;fill:#000000;fill-opacity:1;stroke:none"
       id="flowRoot15726">
      <path
         d="M 5.3222656,96.401796 V 111.49555 H 11.322266 V 96.401796 h 3.75 v 15.093754 h 3 l 1.5,1.96875 -2.90625,13.78125 q 3,5.90625 4.59375,12.65625 1.6875,6.75 1.6875,13.6875 0,7.59375 -2.25,15.09375 -2.25,7.40625 -8.90625,15.65625 l -1.3125,0.5625 h -24.1875 l -0.9375,-0.375 q -7.3125,-8.0625 -9.75,-15.09375 -2.34375,-7.03125 -2.34375,-15.28125 0,-7.03125 1.5,-13.78125 1.59375,-6.84375 4.03125,-13.03125 l -3,-14.0625 1.40625,-1.78125 h 3.84375 V 96.401796 h 3.84375 v 15.093754 h 5.9999996 V 96.401796 h 3.84375 v 15.093754 h 6.75 V 96.401796 Z m -26.1562496,18.093754 0.9375,3.84375 q 0.84375,3.84375 1.21875,6.1875 0.46875,2.25 0.46875,3.09375 v 0.28125 q -0.28125,1.03125 -2.90625,8.625 -2.625,7.5 -2.625,17.34375 0,7.6875 2.4375,14.71875 2.4375,7.03125 8.34375,13.3125 H 9.9160156 q 5.2500004,-6.1875 7.5937504,-13.5 2.34375,-7.3125 2.34375,-15.1875 0,-8.15625 -2.0625,-15 -2.0625,-6.9375 -3.1875,-8.25 -1.03125,-1.40625 -1.03125,-2.34375 v -0.46875 l 1.3125,-6.28125 q 0.65625,-3.09375 1.40625,-6.375 z"
         id="path15734"
         inkscape:connector-curvature="0" />
    </g>
  </g>
</svg>
