<?xml version="1.0" encoding="UTF-8" standalone="no"?>
<!-- Created with Inkscape (http://www.inkscape.org/) -->

<svg
   xmlns:dc="http://purl.org/dc/elements/1.1/"
   xmlns:cc="http://creativecommons.org/ns#"
   xmlns:rdf="http://www.w3.org/1999/02/22-rdf-syntax-ns#"
   xmlns:svg="http://www.w3.org/2000/svg"
   xmlns="http://www.w3.org/2000/svg"
   xmlns:sodipodi="http://sodipodi.sourceforge.net/DTD/sodipodi-0.dtd"
   xmlns:inkscape="http://www.inkscape.org/namespaces/inkscape"
   width="12.402344mm"
   height="39.712303mm"
   viewBox="0 0 12.402344 39.712303"
   version="1.1"
   id="svg6209"
   inkscape:version="0.92.4 (5da689c313, 2019-01-14)"
   sodipodi:docname="M31A.svg">
  <defs
     id="defs6203" />
  <sodipodi:namedview
     id="base"
     pagecolor="#ffffff"
     bordercolor="#666666"
     borderopacity="1.0"
     inkscape:pageopacity="0.0"
     inkscape:pageshadow="2"
     inkscape:zoom="0.35"
     inkscape:cx="-394.6875"
     inkscape:cy="-335.86608"
     inkscape:document-units="mm"
     inkscape:current-layer="layer1"
     showgrid="false"
     fit-margin-top="0"
     fit-margin-left="0"
     fit-margin-right="0"
     fit-margin-bottom="0"
     inkscape:window-width="1920"
     inkscape:window-height="1017"
     inkscape:window-x="-8"
     inkscape:window-y="-8"
     inkscape:window-maximized="1" />
  <metadata
     id="metadata6206">
    <rdf:RDF>
      <cc:Work
         rdf:about="">
        <dc:format>image/svg+xml</dc:format>
        <dc:type
           rdf:resource="http://purl.org/dc/dcmitype/StillImage" />
        <dc:title></dc:title>
      </cc:Work>
    </rdf:RDF>
  </metadata>
  <g
     inkscape:label="Layer 1"
     inkscape:groupmode="layer"
     id="layer1"
     transform="translate(-17.115234,-20.256463)">
    <g
       aria-label="𓇞"
       style="font-style:normal;font-variant:normal;font-weight:normal;font-stretch:normal;font-size:50.79999924px;line-height:1.25;font-family:sans-serif;-inkscape-font-specification:sans-serif;font-variant-ligatures:normal;font-variant-caps:normal;font-variant-numeric:normal;font-feature-settings:normal;text-align:start;letter-spacing:0px;word-spacing:0px;writing-mode:lr-tb;text-anchor:start;fill:#000000;fill-opacity:1;stroke:none;stroke-width:0.26458332"
       id="text6756">
      <path
         d="m 18.653125,49.178728 q 0,-0.917774 0.396875,-1.63711 0.42168,-0.74414 1.364258,-1.339453 v -2.406054 h 1.141015 v -4.911328 q -2.158007,-0.496094 -3.299023,-1.686719 -1.141016,-1.21543 -1.141016,-2.951758 0,-0.768945 0.148828,-2.108398 0.173633,-1.339453 0.520899,-2.877344 0.347266,-1.562695 0.868164,-3.150195 0.520898,-1.612305 1.21543,-2.902149 0.719336,-1.314648 1.612304,-2.133203 0.917774,-0.818554 2.033985,-0.818554 1.016992,0 1.860351,0.843359 0.84336,0.843359 1.513086,2.182812 0.669727,1.314649 1.16582,2.951758 0.496094,1.612305 0.818555,3.175 0.322461,1.562695 0.471289,2.877344 0.173633,1.289844 0.173633,1.95957 0,0.892969 -0.347266,1.661914 -0.322461,0.744141 -0.892968,1.339453 -0.545704,0.570508 -1.289844,0.992188 -0.719336,0.396875 -1.537891,0.595312 v 4.960938 h 0.992188 v 2.430859 q 0.892968,0.570508 1.265039,1.314648 0.37207,0.744141 0.37207,1.63711 0,0.520898 -0.124023,1.513086 -0.09922,0.992187 -0.347266,2.207617 -0.248047,1.190625 -0.620117,2.455664 -0.37207,1.240234 -0.868164,2.257226 -0.496094,1.041797 -1.141016,1.686719 -0.644922,0.669727 -1.413867,0.669727 -0.868164,0 -1.562695,-0.644922 Q 21.307226,58.703728 20.761523,57.686736 20.21582,56.694548 19.818945,55.479118 19.42207,54.238884 19.149219,53.048259 18.901172,51.832829 18.777148,50.815837 18.653125,49.77404 18.653125,49.178728 Z M 18.355469,33.57658 q 0,1.041796 0.272851,1.835546 0.272852,0.79375 0.868164,1.364258 0.620117,0.545703 1.5875,0.84336 0.992188,0.272851 2.38125,0.272851 1.265039,0 2.158008,-0.297656 0.917773,-0.322461 1.513086,-0.892969 0.595312,-0.570508 0.868164,-1.364258 0.272852,-0.79375 0.272852,-1.761132 0,-0.545703 -0.124024,-1.63711 -0.124023,-1.116211 -0.396875,-2.455664 -0.248047,-1.339453 -0.644922,-2.75332 -0.396875,-1.438672 -0.942578,-2.579687 -0.520898,-1.165821 -1.190625,-1.909961 -0.669726,-0.744141 -1.513086,-0.744141 -0.892968,0 -1.612304,0.744141 -0.719336,0.719336 -1.289844,1.860351 -0.570508,1.141016 -0.992188,2.554883 -0.396875,1.389062 -0.669726,2.728515 -0.272852,1.339454 -0.42168,2.480469 -0.124023,1.116211 -0.124023,1.711524 z m 1.53789,16.048632 q 0,0.42168 0.07441,1.265039 0.09922,0.818555 0.272852,1.835547 0.198437,1.016992 0.496094,2.083594 0.297656,1.066601 0.694531,1.934765 0.396875,0.868164 0.892969,1.413868 0.520898,0.570507 1.141015,0.570507 0.595313,0 1.066602,-0.570507 0.496094,-0.570508 0.868164,-1.463477 0.37207,-0.892969 0.644922,-1.95957 0.272851,-1.066602 0.446484,-2.083594 0.173633,-1.016992 0.248047,-1.835547 0.09922,-0.818555 0.09922,-1.190625 0,-1.339453 -0.84336,-2.182812 -0.818554,-0.868164 -2.530078,-0.868164 -1.909961,0 -2.75332,0.818554 -0.818555,0.818555 -0.818555,2.232422 z m 1.314649,-3.745508 h 4.514453 v -1.364257 h -4.514453 z m 3.447851,-2.083593 v -4.7625 q -0.124023,0.0248 -0.272851,0.04961 -0.148828,0.02481 -0.372071,0.04961 -0.198437,0 -0.520898,0 -0.322461,0 -0.545703,0 -0.223242,-0.02481 -0.347266,-0.04961 -0.148828,-0.02481 -0.248047,-0.04961 v 4.7625 z"
         style="stroke-width:0.26458332"
         id="path6758"
         inkscape:connector-curvature="0" />
    </g>
  </g>
</svg>
