<?xml version="1.0" encoding="UTF-8" standalone="no"?>
<!-- Created with Inkscape (http://www.inkscape.org/) -->

<svg
   xmlns:dc="http://purl.org/dc/elements/1.1/"
   xmlns:cc="http://creativecommons.org/ns#"
   xmlns:rdf="http://www.w3.org/1999/02/22-rdf-syntax-ns#"
   xmlns:svg="http://www.w3.org/2000/svg"
   xmlns="http://www.w3.org/2000/svg"
   xmlns:sodipodi="http://sodipodi.sourceforge.net/DTD/sodipodi-0.dtd"
   xmlns:inkscape="http://www.inkscape.org/namespaces/inkscape"
   width="7.1437497mm"
   height="37.951172mm"
   viewBox="0 0 7.1437497 37.951172"
   version="1.1"
   id="svg16"
   inkscape:version="0.92.4 (5da689c313, 2019-01-14)"
   sodipodi:docname="M33A.svg">
  <defs
     id="defs10" />
  <sodipodi:namedview
     id="base"
     pagecolor="#ffffff"
     bordercolor="#666666"
     borderopacity="1.0"
     inkscape:pageopacity="0.0"
     inkscape:pageshadow="2"
     inkscape:zoom="0.55048947"
     inkscape:cx="-557.30912"
     inkscape:cy="310.19422"
     inkscape:document-units="mm"
     inkscape:current-layer="layer1"
     showgrid="false"
     inkscape:window-width="1920"
     inkscape:window-height="1017"
     inkscape:window-x="-8"
     inkscape:window-y="-8"
     inkscape:window-maximized="1"
     fit-margin-top="0"
     fit-margin-left="0"
     fit-margin-right="0"
     fit-margin-bottom="0" />
  <metadata
     id="metadata13">
    <rdf:RDF>
      <cc:Work
         rdf:about="">
        <dc:format>image/svg+xml</dc:format>
        <dc:type
           rdf:resource="http://purl.org/dc/dcmitype/StillImage" />
        <dc:title></dc:title>
      </cc:Work>
    </rdf:RDF>
  </metadata>
  <g
     inkscape:label="Layer 1"
     inkscape:groupmode="layer"
     id="layer1"
     transform="translate(-79.69721,-174.40574)">
    <g
       aria-label="𓇠"
       transform="matrix(0,0.26458333,0.26458333,0,155.84361,285.63357)"
       style="font-style:normal;font-variant:normal;font-weight:normal;font-stretch:normal;font-size:192px;line-height:1.25;font-family:sans-serif;-inkscape-font-specification:'sans-serif, Normal';font-variant-ligatures:normal;font-variant-caps:normal;font-variant-numeric:normal;font-feature-settings:normal;text-align:start;letter-spacing:0px;word-spacing:0px;writing-mode:lr-tb;text-anchor:start;fill:#000000;fill-opacity:1;stroke:none"
       id="flowRoot815">
      <path
         d="m -355.60742,-287.70367 q 6.09375,0.5625 12.1875,8.53125 6.1875,7.96875 6.1875,13.21875 0,2.53125 -1.21875,3.84375 -1.125,1.3125 -3,1.3125 h -0.46875 q -6.1875,-0.375 -12.75,-8.34375 -6.5625,-7.96875 -6.5625,-13.125 0,-2.0625 1.125,-3.75 1.21875,-1.78125 4.03125,-1.78125 z m -0.46875,2.90625 q -1.3125,0 -1.875,0.65625 -0.46875,0.5625 -0.46875,1.5 0,3.65625 5.90625,11.15625 5.90625,7.5 10.6875,7.6875 h 0.1875 q 0.84375,0 1.125,-0.375 0.375,-0.46875 0.375,-1.59375 0,-4.03125 -5.4375,-11.25 -5.4375,-7.3125 -10.5,-7.78125 z m -58.6875,-2.90625 q 6.09375,0.5625 12.1875,8.53125 6.1875,7.96875 6.1875,13.21875 0,2.53125 -1.21875,3.84375 -1.125,1.3125 -3,1.3125 h -0.46875 q -6,-0.375 -12.65625,-8.4375 -6.65625,-8.0625 -6.65625,-13.03125 0,-2.0625 1.125,-3.75 1.21875,-1.78125 4.03125,-1.78125 z m -0.46875,2.90625 q -1.3125,0 -1.78125,0.65625 -0.46875,0.5625 -0.46875,1.5 0,3.84375 6,11.25 6,7.40625 10.5,7.59375 h 0.1875 q 0.84375,0 1.125,-0.375 0.375,-0.46875 0.375,-1.59375 0,-4.03125 -5.4375,-11.25 -5.4375,-7.3125 -10.5,-7.78125 z m 119.90625,-2.90625 q 6.09375,0.5625 12.1875,8.53125 6.1875,7.96875 6.1875,13.21875 0,2.53125 -1.21875,3.84375 -1.125,1.3125 -3,1.3125 h -0.46875 q -6.1875,-0.375 -12.75,-8.34375 -6.5625,-7.96875 -6.5625,-13.125 0,-2.0625 1.125,-3.75 1.21875,-1.78125 4.03125,-1.78125 z m -0.46875,2.90625 q -1.3125,0 -1.875,0.65625 -0.46875,0.5625 -0.46875,1.5 0,3.65625 5.90625,11.15625 5.90625,7.5 10.6875,7.6875 h 0.1875 q 0.84375,0 1.125,-0.375 0.375,-0.46875 0.375,-1.59375 0,-4.03125 -5.4375,-11.25 -5.4375,-7.3125 -10.5,-7.78125 z"
         id="path823"
         inkscape:connector-curvature="0" />
    </g>
  </g>
</svg>
