<?xml version="1.0" encoding="UTF-8" standalone="no"?>
<!-- Created with Inkscape (http://www.inkscape.org/) -->

<svg
   xmlns:dc="http://purl.org/dc/elements/1.1/"
   xmlns:cc="http://creativecommons.org/ns#"
   xmlns:rdf="http://www.w3.org/1999/02/22-rdf-syntax-ns#"
   xmlns:svg="http://www.w3.org/2000/svg"
   xmlns="http://www.w3.org/2000/svg"
   xmlns:sodipodi="http://sodipodi.sourceforge.net/DTD/sodipodi-0.dtd"
   xmlns:inkscape="http://www.inkscape.org/namespaces/inkscape"
   width="18.826757mm"
   height="19.794142mm"
   viewBox="0 0 18.826757 19.794142"
   version="1.1"
   id="svg830"
   inkscape:version="0.92.4 (5da689c313, 2019-01-14)"
   sodipodi:docname="M33B.svg">
  <defs
     id="defs824" />
  <sodipodi:namedview
     id="base"
     pagecolor="#ffffff"
     bordercolor="#666666"
     borderopacity="1.0"
     inkscape:pageopacity="0.0"
     inkscape:pageshadow="2"
     inkscape:zoom="1.4"
     inkscape:cx="-1.122557"
     inkscape:cy="-97.996212"
     inkscape:document-units="mm"
     inkscape:current-layer="layer1"
     showgrid="false"
     fit-margin-top="0"
     fit-margin-left="0"
     fit-margin-right="0"
     fit-margin-bottom="0"
     inkscape:window-width="1920"
     inkscape:window-height="1017"
     inkscape:window-x="-8"
     inkscape:window-y="-8"
     inkscape:window-maximized="1" />
  <metadata
     id="metadata827">
    <rdf:RDF>
      <cc:Work
         rdf:about="">
        <dc:format>image/svg+xml</dc:format>
        <dc:type
           rdf:resource="http://purl.org/dc/dcmitype/StillImage" />
        <dc:title></dc:title>
      </cc:Work>
    </rdf:RDF>
  </metadata>
  <g
     inkscape:label="Layer 1"
     inkscape:groupmode="layer"
     id="layer1"
     transform="translate(-11.067615,-52.000557)">
    <g
       aria-label="𓇠"
       transform="matrix(0,0.26458333,0.26458333,0,89.961433,188.16891)"
       style="font-style:normal;font-variant:normal;font-weight:normal;font-stretch:normal;font-size:192px;line-height:1.25;font-family:sans-serif;-inkscape-font-specification:'sans-serif, Normal';font-variant-ligatures:normal;font-variant-caps:normal;font-variant-numeric:normal;font-feature-settings:normal;text-align:start;letter-spacing:0px;word-spacing:0px;writing-mode:lr-tb;text-anchor:start;fill:#000000;fill-opacity:1;stroke:none"
       id="flowRoot815" />
    <g
       aria-label="𓇢"
       style="font-style:normal;font-variant:normal;font-weight:normal;font-stretch:normal;font-size:50.79999924px;line-height:1.25;font-family:sans-serif;-inkscape-font-specification:'sans-serif, Normal';font-variant-ligatures:normal;font-variant-caps:normal;font-variant-numeric:normal;font-feature-settings:normal;text-align:start;letter-spacing:0px;word-spacing:0px;writing-mode:lr-tb;text-anchor:start;fill:#000000;fill-opacity:1;stroke:none;stroke-width:0.26458332"
       id="text1385">
      <path
         d="m 12.555897,52.025362 q 1.612304,0.148828 3.224609,2.257226 1.637109,2.108399 1.637109,3.497461 0,0.669727 -0.322461,1.016993 -0.297656,0.347265 -0.79375,0.347265 h -0.124023 q -1.5875,-0.09922 -3.348633,-2.232422 -1.761133,-2.133203 -1.761133,-3.447851 0,-0.545703 0.297657,-0.992188 0.322461,-0.471289 1.066601,-0.471289 z m -0.124024,0.768945 q -0.347265,0 -0.471289,0.173633 -0.124023,0.148828 -0.124023,0.396875 0,1.016992 1.5875,2.976562 1.5875,1.959571 2.778125,2.00918 h 0.04961 q 0.223242,0 0.297656,-0.09922 0.09922,-0.124023 0.09922,-0.421679 0,-1.066602 -1.438672,-2.976563 -1.438672,-1.934765 -2.778125,-2.058789 z m 12.600781,-0.768945 q 1.612305,0.148828 3.22461,2.257226 1.637109,2.108399 1.637109,3.497461 0,0.669727 -0.322461,1.016993 -0.297656,0.347265 -0.79375,0.347265 h -0.124023 q -1.5875,-0.09922 -3.348633,-2.232422 -1.761133,-2.133203 -1.761133,-3.447851 0,-0.545703 0.297656,-0.992188 0.322461,-0.471289 1.066602,-0.471289 z m -0.124023,0.768945 q -0.347266,0 -0.471289,0.173633 -0.124024,0.148828 -0.124024,0.396875 0,1.016992 1.5875,2.976562 1.5875,1.959571 2.778125,2.00918 h 0.04961 q 0.223242,0 0.297656,-0.09922 0.09922,-0.124023 0.09922,-0.421679 0,-1.066602 -1.438672,-2.976563 -1.438672,-1.934765 -2.778125,-2.058789 z m -4.911328,11.881445 q 1.612305,0.148828 3.224609,2.257227 1.63711,2.108398 1.63711,3.497461 0,0.669726 -0.322461,1.016992 -0.297657,0.347266 -0.79375,0.347266 h -0.124024 q -1.5875,-0.09922 -3.348633,-2.232422 -1.761132,-2.133203 -1.761132,-3.447852 0,-0.545703 0.297656,-0.992187 0.322461,-0.471289 1.066601,-0.471289 z m -0.124024,0.768946 q -0.347265,0 -0.471289,0.173632 -0.124023,0.148829 -0.124023,0.396875 0,1.016993 1.5875,2.976563 1.5875,1.95957 2.778125,2.00918 h 0.04961 q 0.223242,0 0.297656,-0.09922 0.09922,-0.124024 0.09922,-0.42168 0,-1.066601 -1.438672,-2.976562 -1.438671,-1.934766 -2.778125,-2.058789 z"
         style="stroke-width:0.26458332"
         id="path1387"
         inkscape:connector-curvature="0" />
    </g>
  </g>
</svg>
