<?xml version="1.0" encoding="UTF-8" standalone="no"?>
<!-- Created with Inkscape (http://www.inkscape.org/) -->

<svg
   xmlns:dc="http://purl.org/dc/elements/1.1/"
   xmlns:cc="http://creativecommons.org/ns#"
   xmlns:rdf="http://www.w3.org/1999/02/22-rdf-syntax-ns#"
   xmlns:svg="http://www.w3.org/2000/svg"
   xmlns="http://www.w3.org/2000/svg"
   xmlns:sodipodi="http://sodipodi.sourceforge.net/DTD/sodipodi-0.dtd"
   xmlns:inkscape="http://www.inkscape.org/namespaces/inkscape"
   width="22.17539mm"
   height="19.620508mm"
   viewBox="0 0 22.17539 19.620508"
   version="1.1"
   id="svg8"
   inkscape:version="0.92.4 (5da689c313, 2019-01-14)"
   sodipodi:docname="M36.svg">
  <defs
     id="defs2" />
  <sodipodi:namedview
     id="base"
     pagecolor="#ffffff"
     bordercolor="#666666"
     borderopacity="1.0"
     inkscape:pageopacity="0.0"
     inkscape:pageshadow="2"
     inkscape:zoom="0.35"
     inkscape:cx="-351.83008"
     inkscape:cy="-334.76047"
     inkscape:document-units="mm"
     inkscape:current-layer="layer1"
     showgrid="false"
     fit-margin-top="0"
     fit-margin-left="0"
     fit-margin-right="0"
     fit-margin-bottom="0"
     inkscape:window-width="1920"
     inkscape:window-height="1017"
     inkscape:window-x="-8"
     inkscape:window-y="-8"
     inkscape:window-maximized="1" />
  <metadata
     id="metadata5">
    <rdf:RDF>
      <cc:Work
         rdf:about="">
        <dc:format>image/svg+xml</dc:format>
        <dc:type
           rdf:resource="http://purl.org/dc/dcmitype/StillImage" />
        <dc:title></dc:title>
      </cc:Work>
    </rdf:RDF>
  </metadata>
  <g
     inkscape:label="Layer 1"
     inkscape:groupmode="layer"
     id="layer1"
     transform="translate(-5.7758747,-40.640785)">
    <g
       aria-label="𓇥"
       transform="scale(0.26458333)"
       style="font-style:normal;font-variant:normal;font-weight:normal;font-stretch:normal;font-size:192px;line-height:1.25;font-family:sans-serif;-inkscape-font-specification:'sans-serif, Normal';font-variant-ligatures:normal;font-variant-caps:normal;font-variant-numeric:normal;font-feature-settings:normal;text-align:start;letter-spacing:0px;word-spacing:0px;writing-mode:lr-tb;text-anchor:start;fill:#000000;fill-opacity:1;stroke:none"
       id="flowRoot4518">
      <path
         d="m 100.86133,194.10297 q -0.75,-0.75 -1.968752,-1.6875 -1.125,-1.03125 -2.71875,-2.34375 -1.59375,-1.3125 -3.09375,-2.34375 -1.40625,-1.125 -2.625,-2.0625 l -3.1875,-2.25 q 0.28125,2.15625 1.59375,6 1.3125,3.84375 2.8125,8.0625 1.59375,4.125 3.09375,7.875 1.5,3.65625 2.34375,5.625 h -3.75 l -6.375,-16.40625 v 31.6875 l -1.59375,1.5 h -55.03125 l -1.40625,-1.78125 q 0,-5.34375 -0.28125,-10.59375 -0.28125,-5.25 -0.75,-10.59375 l -2.0625,-21.09375 -3,-13.78125 1.125,-1.40625 q -1.03125,-1.21875 -1.59375,-2.8125 -0.5625,-1.59375 -0.5625,-3.1875 0,-1.6875 0.65625,-3.28125 0.65625,-1.6875 1.78125,-2.90625 1.125,-1.21875 2.625,-1.96875 1.5,-0.75 3.28125,-0.75 2.34375,0 4.3125,1.125 2.0625,1.03125 3.28125,2.90625 2.625,-4.03125 7.03125,-4.03125 2.71875,0 4.5,1.03125 1.78125,1.03125 3.09375,3 2.625,-4.03125 7.03125,-4.03125 2.71875,0 4.5,1.03125 1.78125,1.03125 3.09375,3 1.21875,-2.0625 3.1875,-3 2.0625,-1.03125 4.40625,-1.03125 1.78125,0 3.28125,0.75 1.5,0.75 2.625,1.96875 1.125,1.21875 1.78125,2.90625 0.65625,1.59375 0.65625,3.28125 0,3.46875 -1.96875,5.71875 l 1.40625,0.9375 1.6875,9.75 q 1.21875,-5.34375 3.5625,-7.78125 2.34375,-2.53125 6.5625,-2.53125 3.375,0 5.25,1.96875 1.875002,1.96875 1.875002,4.5 0,2.53125 -1.875002,4.96875 -1.875,2.4375 -6.09375,3.5625 l 3.09375,2.25 q 1.125,0.84375 2.34375,1.875 1.312502,1.03125 2.531252,2.15625 1.21875,1.125 2.34375,2.25 1.125,1.03125 1.96875,1.875 z m -16.875002,30.65625 q 0,-9.375 -0.1875,-18.65625 -0.1875,-9.375 -0.9375,-18.75 l -0.375,-2.4375 h -53.4375 l 0.28125,2.34375 q 1.03125,9.375 1.78125,18.65625 0.84375,9.28125 0.84375,18.84375 z m -57.75,-53.625 2.34375,10.78125 h 53.4375 l -2.25,-10.78125 z m 3.84375,-3 q 3.09375,0 4.59375,-1.78125 1.5,-1.78125 1.5,-3.9375 0,-2.4375 -1.6875,-4.125 -1.6875,-1.78125 -4.125,-1.78125 -2.4375,0 -4.03125,1.78125 -1.59375,1.78125 -1.59375,4.21875 0,2.0625 1.40625,3.84375 1.5,1.78125 3.9375,1.78125 z m 43.59375,0 q 3.28125,0 4.78125,-1.78125 1.59375,-1.78125 1.59375,-3.9375 0,-2.4375 -1.6875,-4.125 -1.6875,-1.78125 -4.125,-1.78125 -2.4375,0 -4.03125,1.78125 -1.59375,1.78125 -1.59375,4.21875 0,2.0625 1.21875,3.84375 1.3125,1.78125 3.84375,1.78125 z m -28.96875,0 q 3.09375,0 4.59375,-1.78125 1.5,-1.78125 1.5,-3.9375 0,-2.4375 -1.6875,-4.125 -1.6875,-1.78125 -4.125,-1.78125 -2.4375,0 -4.03125,1.78125 -1.59375,1.78125 -1.59375,4.21875 0,2.0625 1.40625,3.84375 1.40625,1.78125 3.9375,1.78125 z m 14.625,0 q 3.09375,0 4.59375,-1.78125 1.5,-1.78125 1.5,-3.9375 0,-2.4375 -1.6875,-4.125 -1.6875,-1.78125 -4.125,-1.78125 -2.4375,0 -4.03125,1.78125 -1.59375,1.78125 -1.59375,4.21875 0,2.0625 1.40625,3.84375 1.40625,1.78125 3.9375,1.78125 z m 28.21875,14.4375 q 2.0625,-0.1875 3.84375,-0.84375 1.875,-0.75 3.28125,-1.78125 1.40625,-1.03125 2.15625,-2.25 0.84375,-1.21875 0.84375,-2.53125 0,-1.59375 -0.75,-2.15625 -0.65625,-0.65625 -2.0625,-0.65625 -2.71875,0 -5.0625,3.1875 -2.25,3.28125 -2.25,7.03125 z"
         id="path4526"
         inkscape:connector-curvature="0" />
    </g>
  </g>
</svg>
