<?xml version="1.0" encoding="UTF-8" standalone="no"?>
<!-- Created with Inkscape (http://www.inkscape.org/) -->

<svg
   xmlns:dc="http://purl.org/dc/elements/1.1/"
   xmlns:cc="http://creativecommons.org/ns#"
   xmlns:rdf="http://www.w3.org/1999/02/22-rdf-syntax-ns#"
   xmlns:svg="http://www.w3.org/2000/svg"
   xmlns="http://www.w3.org/2000/svg"
   xmlns:sodipodi="http://sodipodi.sourceforge.net/DTD/sodipodi-0.dtd"
   xmlns:inkscape="http://www.inkscape.org/namespaces/inkscape"
   width="19.42207mm"
   height="14.783593mm"
   viewBox="0 0 19.42207 14.783593"
   version="1.1"
   id="svg4535"
   inkscape:version="0.92.4 (5da689c313, 2019-01-14)"
   sodipodi:docname="M37.svg">
  <defs
     id="defs4529" />
  <sodipodi:namedview
     id="base"
     pagecolor="#ffffff"
     bordercolor="#666666"
     borderopacity="1.0"
     inkscape:pageopacity="0.0"
     inkscape:pageshadow="2"
     inkscape:zoom="0.35"
     inkscape:cx="-403.25893"
     inkscape:cy="-401.35715"
     inkscape:document-units="mm"
     inkscape:current-layer="layer1"
     showgrid="false"
     fit-margin-top="0"
     fit-margin-left="0"
     fit-margin-right="0"
     fit-margin-bottom="0"
     inkscape:window-width="1920"
     inkscape:window-height="1017"
     inkscape:window-x="-8"
     inkscape:window-y="-8"
     inkscape:window-maximized="1" />
  <metadata
     id="metadata4532">
    <rdf:RDF>
      <cc:Work
         rdf:about="">
        <dc:format>image/svg+xml</dc:format>
        <dc:type
           rdf:resource="http://purl.org/dc/dcmitype/StillImage" />
        <dc:title></dc:title>
      </cc:Work>
    </rdf:RDF>
  </metadata>
  <g
     inkscape:label="Layer 1"
     inkscape:groupmode="layer"
     id="layer1"
     transform="translate(-19.383092,-27.857327)">
    <g
       aria-label="𓇦"
       style="font-style:normal;font-variant:normal;font-weight:normal;font-stretch:normal;font-size:50.79999924px;line-height:1.25;font-family:sans-serif;-inkscape-font-specification:'sans-serif, Normal';font-variant-ligatures:normal;font-variant-caps:normal;font-variant-numeric:normal;font-feature-settings:normal;text-align:start;letter-spacing:0px;word-spacing:0px;writing-mode:lr-tb;text-anchor:start;fill:#000000;fill-opacity:1;stroke:none;stroke-width:0.26458332"
       id="text5082">
      <path
         d="M 38.383481,42.64092 H 37.26727 L 36.8952,42.169631 v -6.077148 q 0,-0.917774 -0.347266,-1.686719 -0.32246,-0.768945 -1.240234,-0.917773 0,0.992187 -0.0248,1.95957 0,1.265039 0.04961,3.001367 0.04961,1.711524 0.04961,3.795117 L 34.96044,42.64092 H 20.548911 l -0.37207,-0.471289 q 0,-2.356445 0.04961,-4.142383 0.04961,-1.785937 0.04961,-2.678906 0,-3.720703 -0.322461,-4.7625 -0.297656,-1.041797 -0.570508,-2.257226 l 0.37207,-0.471289 h 15.999023 l 0.396875,0.520898 q -0.173632,0.79375 -0.396875,1.562695 -0.223242,0.744141 -0.347265,1.537891 1.612305,0.173633 2.505273,1.463477 0.892969,1.265039 0.892969,3.075781 v 6.225976 z M 34.51395,33.463186 h -1.141016 v 8.383984 h 1.21543 z M 20.970591,41.84717 h 1.21543 v -8.383984 h -1.21543 z m 3.59668,0 h 1.041796 v -8.383984 h -1.041796 z m 5.407421,0 h 1.016993 v -8.383984 h -1.016993 z m -3.571875,0 h 0.992188 v -8.383984 h -0.992188 z m 1.785938,0 h 0.992187 v -8.383984 h -0.992187 z m 3.59668,0 h 0.79375 v -8.383984 h -0.79375 z m -8.805664,0 h 0.79375 v -8.383984 h -0.79375 z M 33.397739,31.454006 h 1.21543 l 0.669726,-2.802929 H 33.7202 Z M 37.68895,41.84717 h 0.322461 v -5.903515 q 0,-1.513086 -0.768945,-2.530078 -0.744141,-1.016993 -1.885157,-1.141016 v 0.223242 l -0.0248,0.198438 q 1.116211,0.124023 1.736328,0.992187 0.620117,0.84336 0.620117,2.331641 z M 21.466685,28.651077 H 20.27606 l 0.620117,2.802929 h 1.190625 z m 4.886523,2.802929 h 1.041797 v -2.802929 h -1.364258 z m 3.175,-2.802929 h -1.339453 v 2.802929 h 1.041797 z m -5.010547,2.802929 h 1.041797 L 25.236997,28.651077 H 24.1952 Z m 6.821289,-2.802929 h -1.016992 l -0.322461,2.802929 h 1.041797 z m -8.458398,2.802929 h 0.843359 L 23.426255,28.651077 H 22.285239 Z M 32.92645,28.651077 H 32.1327 l -0.322461,2.802929 h 0.818555 z m 1.637109,3.596679 h -1.190625 v 0.42168 h 1.165821 z m -13.642577,0.42168 h 1.265039 v -0.42168 h -1.314649 z m 9.05371,0 h 1.016993 v -0.42168 h -1.016993 z m -5.407421,0 h 1.041796 v -0.42168 h -1.041796 z m 3.621484,0 h 0.992187 v -0.42168 h -0.992187 z m -1.785938,0 h 0.992188 v -0.42168 h -0.992188 z m 5.382618,0 h 0.79375 v -0.42168 h -0.79375 z m -8.805664,0 h 0.79375 v -0.42168 h -0.79375 z"
         style="stroke-width:0.26458332"
         id="path5084"
         inkscape:connector-curvature="0" />
    </g>
  </g>
</svg>
