<?xml version="1.0" encoding="UTF-8" standalone="no"?>
<!-- Created with Inkscape (http://www.inkscape.org/) -->

<svg
   xmlns:dc="http://purl.org/dc/elements/1.1/"
   xmlns:cc="http://creativecommons.org/ns#"
   xmlns:rdf="http://www.w3.org/1999/02/22-rdf-syntax-ns#"
   xmlns:svg="http://www.w3.org/2000/svg"
   xmlns="http://www.w3.org/2000/svg"
   xmlns:sodipodi="http://sodipodi.sourceforge.net/DTD/sodipodi-0.dtd"
   xmlns:inkscape="http://www.inkscape.org/namespaces/inkscape"
   width="31.204296mm"
   height="21.580078mm"
   viewBox="0 0 31.204296 21.580078"
   version="1.1"
   id="svg5093"
   inkscape:version="0.92.4 (5da689c313, 2019-01-14)"
   sodipodi:docname="M38.svg">
  <defs
     id="defs5087" />
  <sodipodi:namedview
     id="base"
     pagecolor="#ffffff"
     bordercolor="#666666"
     borderopacity="1.0"
     inkscape:pageopacity="0.0"
     inkscape:pageshadow="2"
     inkscape:zoom="0.35"
     inkscape:cx="-334.68778"
     inkscape:cy="-469.04646"
     inkscape:document-units="mm"
     inkscape:current-layer="layer1"
     showgrid="false"
     fit-margin-top="0"
     fit-margin-left="0"
     fit-margin-right="0"
     fit-margin-bottom="0"
     inkscape:window-width="1920"
     inkscape:window-height="1017"
     inkscape:window-x="-8"
     inkscape:window-y="-8"
     inkscape:window-maximized="1" />
  <metadata
     id="metadata5090">
    <rdf:RDF>
      <cc:Work
         rdf:about="">
        <dc:format>image/svg+xml</dc:format>
        <dc:type
           rdf:resource="http://purl.org/dc/dcmitype/StillImage" />
        <dc:title></dc:title>
      </cc:Work>
    </rdf:RDF>
  </metadata>
  <g
     inkscape:label="Layer 1"
     inkscape:groupmode="layer"
     id="layer1"
     transform="translate(-1.2403083,-3.1513799)">
    <g
       aria-label="𓇧"
       transform="matrix(0.26458333,0,0,0.26458333,4.5357143,-40.065476)"
       style="font-style:normal;font-variant:normal;font-weight:normal;font-stretch:normal;font-size:192px;line-height:1.25;font-family:sans-serif;-inkscape-font-specification:'sans-serif, Normal';font-variant-ligatures:normal;font-variant-caps:normal;font-variant-numeric:normal;font-feature-settings:normal;text-align:start;letter-spacing:0px;word-spacing:0px;writing-mode:lr-tb;text-anchor:start;fill:#000000;fill-opacity:1;stroke:none"
       id="flowRoot5638">
      <path
         d="m 103.88867,244.9018 h -4.687498 l -1.40625,-1.21875 -1.125,-8.15625 q -0.65625,-5.53125 -3,-10.59375 -2.34375,-5.15625 -5.8125,-6.9375 -3.375,-1.78125 -5.15625,-1.78125 h -6.1875 q -0.375,2.4375 -0.375,4.875 0,2.4375 0.1875,4.875 l 0.28125,4.96875 q 0,2.4375 0.09375,4.875 l -1.59375,1.5 H 2.5449219 l -1.40625,-1.78125 q 0,-3.1875 0.09375,-8.25 0.09375,-5.15625 0.09375,-5.4375 0,-6.5625 -1.40625002,-11.4375 l -12.37499988,-45.28125 1.40625,-1.78125 h 98.25 l 1.5,1.96875 -10.875,43.3125 h 4.875 q 8.4375,0 14.53125,7.21875 6.093748,7.125 8.249998,27.5625 z M 73.701172,234.30805 q 0,-4.125 -0.28125,-7.5 -0.28125,-3.375 -0.28125,-5.4375 0,-2.625 0.28125,-5.15625 H 4.1386719 v 18.09375 z m -41.25,-25.6875 h 14.625 l 3.75,-42.28125 H 29.919922 Z M 4.3261719,166.3393 h -13.3125 l 11.53125,42.28125 h 8.2500001 z m 13.5000001,0 3.9375,42.28125 h 7.78125 l -2.625,-42.28125 z m 55.5,0 h -8.90625 l -5.15625,42.28125 h 6.375 z m -4.6875,42.28125 h 6.09375 l 10.59375,-42.28125 h -8.90625 z m -7.21875,-42.28125 h -7.59375 l -3.75,42.28125 h 6.28125 z m -47.625,42.28125 h 4.96875 l -3.9375,-42.28125 H 7.3261719 Z m 63.46875,3 -0.28125,1.59375 h 5.71875 q 2.15625,0 6.375,2.0625 4.3125,2.0625 6.84375,7.3125 2.625,5.15625 3.46875,10.875 l 1.218748,8.4375 h 1.6875 q -1.6875,-16.21875 -6.562498,-23.25 -4.875,-7.03125 -13.03125,-7.03125 z m -30.65625,1.59375 0.1875,-1.59375 h -14.0625 l 0.09375,1.59375 z m -16.875,-1.59375 h -7.6875 l 0.1875,1.59375 h 7.59375 z m -26.2500001,0 0.46875,1.59375 h 7.5000001 l -0.28125,-1.59375 z m 52.2187501,1.59375 0.28125,-1.59375 h -6.1875 l -0.1875,1.59375 z m 9.09375,0 0.375,-1.59375 h -6.1875 l -0.1875,1.59375 z m 9.09375,0 0.28125,-1.59375 h -6 l -0.28125,1.59375 z m -59.625,-1.59375 0.1875,1.59375 h 4.6875 l -0.09375,-1.59375 z"
         id="path5646"
         inkscape:connector-curvature="0" />
    </g>
  </g>
</svg>
