<?xml version="1.0" encoding="UTF-8" standalone="no"?>
<!-- Created with Inkscape (http://www.inkscape.org/) -->

<svg
   xmlns:dc="http://purl.org/dc/elements/1.1/"
   xmlns:cc="http://creativecommons.org/ns#"
   xmlns:rdf="http://www.w3.org/1999/02/22-rdf-syntax-ns#"
   xmlns:svg="http://www.w3.org/2000/svg"
   xmlns="http://www.w3.org/2000/svg"
   xmlns:sodipodi="http://sodipodi.sourceforge.net/DTD/sodipodi-0.dtd"
   xmlns:inkscape="http://www.inkscape.org/namespaces/inkscape"
   width="37.876755mm"
   height="39.241016mm"
   viewBox="0 0 37.876755 39.241016"
   version="1.1"
   id="svg9862"
   inkscape:version="0.92.4 (5da689c313, 2019-01-14)"
   sodipodi:docname="M3A.svg">
  <defs
     id="defs9856" />
  <sodipodi:namedview
     id="base"
     pagecolor="#ffffff"
     bordercolor="#666666"
     borderopacity="1.0"
     inkscape:pageopacity="0.0"
     inkscape:pageshadow="2"
     inkscape:zoom="0.35"
     inkscape:cx="-326.11523"
     inkscape:cy="-324.36008"
     inkscape:document-units="mm"
     inkscape:current-layer="layer1"
     showgrid="false"
     fit-margin-top="0"
     fit-margin-left="0"
     fit-margin-right="0"
     fit-margin-bottom="0"
     inkscape:window-width="1920"
     inkscape:window-height="1017"
     inkscape:window-x="-8"
     inkscape:window-y="-8"
     inkscape:window-maximized="1" />
  <metadata
     id="metadata9859">
    <rdf:RDF>
      <cc:Work
         rdf:about="">
        <dc:format>image/svg+xml</dc:format>
        <dc:type
           rdf:resource="http://purl.org/dc/dcmitype/StillImage" />
        <dc:title></dc:title>
      </cc:Work>
    </rdf:RDF>
  </metadata>
  <g
     inkscape:label="Layer 1"
     inkscape:groupmode="layer"
     id="layer1"
     transform="translate(1.0278442,-23.772047)">
    <g
       aria-label="𓆲"
       transform="scale(0.26458333)"
       style="font-style:normal;font-variant:normal;font-weight:normal;font-stretch:normal;font-size:192px;line-height:1.25;font-family:sans-serif;-inkscape-font-specification:sans-serif;font-variant-ligatures:normal;font-variant-caps:normal;font-variant-numeric:normal;font-feature-settings:normal;text-align:start;letter-spacing:0px;word-spacing:0px;writing-mode:lr-tb;text-anchor:start;fill:#000000;fill-opacity:1;stroke:none"
       id="flowRoot10410">
      <path
         d="m 139.27148,145.15961 v 4.6875 l -49.874996,-3 q -0.75,0 -1.21875,0.1875 -0.46875,0.0937 -1.3125,0.5625 3.46875,6.09375 6.375,11.15625 3,4.96875 5.625,9.28125 2.624996,4.21875 5.062496,8.0625 2.53125,3.84375 5.0625,7.59375 5.0625,7.5 12.5625,17.0625 7.5,9.46875 17.71875,21.28125 l -0.65625,1.21875 q -0.375,0.46875 -0.65625,1.21875 h -3.65625 q 0.5625,1.125 1.125,2.4375 0.5625,1.3125 1.03125,2.625 0.46875,1.21875 0.75,2.34375 0.28125,1.03125 0.28125,1.78125 0,0.28125 -0.1875,0.84375 -0.1875,0.5625 -0.375,1.125 l -0.5625,1.5 -1.5,1.03125 -30.1875,-4.6875 -1.21875,-0.75 -6.468746,-10.78125 q -1.3125,-2.0625 -2.625,-4.21875 -1.21875,-2.15625 -2.34375,-3.9375 -1.125,-1.875 -2.0625,-3.28125 -0.84375,-1.40625 -1.3125,-2.15625 -1.78125,-2.90625 -2.90625,-4.59375 -1.125,-1.78125 -1.59375,-2.53125 l -1.96875,-3 q -1.125,-1.59375 -2.0625,-2.625 l -0.65625,8.71875 q -0.1875,2.25 -0.65625,4.40625 -0.46875,2.0625 -1.3125,4.03125 l -1.96875,0.9375 q -3.28125,-1.96875 -6.46875,-4.125 -3.09375,-2.15625 -6.1875,-4.40625 0.46875,3 0.65625,4.875 0.28125,1.875 0.375,3.09375 0.1875,1.125 0.1875,1.875 0.09375,0.65625 0.09375,1.21875 0,2.53125 -0.46875,5.53125 -0.46875,3 -1.78125,5.625 -1.21875,2.625 -3.46875,4.40625 -2.25,1.6875 -5.71875,1.6875 -3.65625,0 -8.25,-0.28125 -4.59375,-0.1875 -10.5,-0.65625 -5.90625,-0.46875 -10.3125,-0.65625 -4.40625,-0.28125 -7.40625,-0.28125 -1.59375,0 -3.65625,0.0937 -1.96875,0.0937 -3.8437496,0.1875 -2.15625,0.0937 -4.40625,0.1875 -3.28125,0.0937 -6.5625,1.40625 l -1.6875,-2.25 q 0.9375,-0.5625 1.96875,-0.9375 0.93749997,-0.375 2.06249997,-0.75 1.21875003,-0.375 2.53125003,-0.5625 5.15625,-0.65625 10.3124996,-1.125 2.625,-0.1875 6.9375,-0.28125 4.40625,-0.1875 10.3125,-0.1875 l 3.09375,-14.0625 q 0.75,-3.5625 1.125,-7.59375 0.375,-4.125 0.375,-9.5625 v -3.5625 q 0,-3.46875 0.1875,-7.59375 0.1875,-4.125 0.5625,-8.90625 0.46875,-4.78125 0.65625,-9 0.28125,-4.21875 0.375,-7.96875 -13.21875,3.65625 -28.3124996,3.65625 v -4.6875 q 4.7812496,0 7.7812496,-0.0937 3,-0.1875 4.96875,-0.46875 -1.6875,-1.03125 -3.84375,-2.53125 -2.15625,-1.5 -4.96875,-3.75 -2.7187496,-2.34375 -6.1874996,-5.53125 -3.375,-3.1875 -7.59375,-7.5 h 5.8125 q 4.03125,4.03125 6.8437496,6.5625 2.8125,2.4375 5.25,4.40625 2.4375,1.875 4.78125,3.5625 2.4375,1.6875 5.71875,4.125 1.96875,-0.1875 3.65625,-0.46875 1.78125,-0.375 3.46875,-0.84375 -4.6875,-4.78125 -8.625,-10.6875 -3.9375,-6 -6.5625,-12 -5.0625,-11.90625 -5.0625,-24.65625 0,-7.40625 0.84375,-11.343752 0.84375,-3.9375 2.71875,-6.28125 l 1.21875,-0.75 h 30.1875 q 1.875,0 3,2.34375 1.125,2.34375 1.125,7.6875 v 3.562502 q 0,2.15625 0.09375,3.5625 0.09375,1.40625 0.375,2.4375 0.28125,0.9375 0.65625,1.6875 0.46875,0.65625 1.125,1.21875 l 2.0625,1.96875 q 5.625,2.25 11.90625,8.53125 6.28125,6.1875 13.59375,17.625 2.71875,0.65625 4.59375,1.125 1.875,0.46875 2.71875,0.5625 z m -80.249996,57.375 2.71875,-1.96875 q 2.53125,1.875 4.96875,3.65625 2.15625,1.59375 4.40625,3.28125 2.34375,1.59375 4.21875,2.625 0.5625,-1.59375 0.84375,-3.84375 0.375,-2.25 0.5625,-4.40625 0.1875,-2.4375 0.28125,-5.0625 0,-2.15625 0.5625,-4.40625 l 2.34375,-0.9375 q 3.46875,2.0625 11.90625,16.3125 2.15625,3.5625 4.59375,7.59375 2.4375,4.03125 4.499996,7.40625 2.4375,3.9375 4.78125,7.875 l 28.21875,4.40625 0.46875,-1.21875 -9.65625,-23.625 -15.09375,-11.0625 q -19.874996,-14.53125 -31.968746,-23.71875 -12,-9.28125 -16.5,-13.3125 -4.5,-4.125 -6.84375,-6.28125 -2.25,-2.15625 -2.53125,-2.4375 -2.8125,1.40625 -5.8125,2.625 -3,1.125 -6.09375,2.15625 z m -7.21875,-73.3125 q 0,0.65625 0.09375,1.21875 0.09375,0.46875 0.09375,1.03125 0.09375,0.46875 0.28125,0.75 -4.03125,0.46875 -6,1.5 -1.96875,1.03125 -1.96875,3.1875 0,1.59375 1.40625,4.3125 1.40625,2.71875 5.71875,7.40625 1.40625,-0.75 3.09375,-1.78125 1.6875,-1.03125 3.46875,-2.15625 1.78125,-1.21875 3.375,-2.34375 1.59375,-1.21875 2.90625,-2.15625 h -6.9375 q -1.875,0 -4.40625,0.28125 -2.53125,0.28125 -6.09375,0.75 v -4.78125 q 3.75,-0.375 6.375,-0.46875 2.71875,-0.0937 5.4375,-0.0937 3.9375,0 8.8125,0.84375 4.96875,0.84375 10.6875,2.53125 l -4.3125,-6 q -1.03125,-1.40625 -2.71875,-3.46875 -1.6875,-2.0625 -4.125,-4.59375 -4.96875,-5.25 -9.09375,-7.3125 -4.3125,-2.15625 -5.53125,-3.9375 -1.40625,-1.96875 -1.875,-3.375 -0.46875,-1.6875 -0.46875,-7.59375 0,-2.8125 -0.1875,-5.437502 -0.1875,-2.71875 -1.3125,-4.6875 h -29.15625 q -1.5,1.875 -2.0625,6.09375 -0.5625,4.125002 -0.5625,9.468752 0,12.5625 5.15625,24.09375 2.625,5.8125 6.46875,11.4375 3.84375,5.625 9,10.6875 3,-1.03125 5.71875,-2.0625 2.8125,-1.125 5.53125,-2.4375 -3.84375,-4.5 -5.625,-7.78125 -1.6875,-3.375 -1.6875,-5.71875 0,-4.40625 5.34375,-6.46875 z m 66.843746,72.65625 q -14.15625,-18 -21.562496,-30.84375 -3.75,-6.46875 -7.21875,-12.28125 -3.46875,-5.90625 -5.625,-9.65625 -1.5,0.75 -3.375,1.5 -1.875,0.65625 -3.46875,1.21875 -1.875,0.65625 -3.84375,1.21875 l -1.96875,-3.9375 q 4.59375,-0.84375 10.5,-3.5625 l -0.5625,-0.84375 q -5.25,-2.34375 -11.53125,-3.46875 -3.65625,3.1875 -7.5,5.8125 -3.75,2.625 -7.6875,4.78125 3.75,3.9375 10.21875,9.46875 6.5625,5.4375 16.125,12.75 9.5625,7.3125 18.84375,14.25 9.374996,6.84375 18.656246,13.59375 z m -68.343746,4.40625 q 1.40625,-0.46875 2.90625,-1.6875 1.59375,-1.21875 2.25,-2.8125 l -16.03125,-37.59375 q -0.09375,2.71875 -0.375,6.375 -0.1875,3.65625 -0.5625,8.15625 -0.375,4.5 -0.65625,9.09375 -0.1875,4.59375 -0.28125,9.375 -0.09375,4.78125 -0.28125,8.53125 -0.1875,3.65625 -0.75,6.375 0.9375,-1.96875 1.59375,-3.1875 0.65625,-1.3125 1.03125,-2.0625 0.46875,-0.84375 0.75,-1.21875 0.375,-0.46875 0.65625,-0.65625 1.21875,-0.65625 2.90625,-0.65625 1.21875,0 3.28125,0.75 2.0625,0.65625 3.5625,1.21875 z m 6.09375,-0.5625 q -1.21875,1.3125 -2.8125,2.25 -1.5,0.84375 -2.8125,1.3125 -1.5,-0.375 -2.4375,-0.65625 -0.9375,-0.28125 -1.6875,-0.46875 l -3.1875,-0.9375 q -0.5625,0 -0.84375,0.0937 -0.1875,0.0937 -0.5625,0.375 -0.75,1.125 -1.875,3.1875 -1.125,1.96875 -2.0625,4.875 -0.9375,2.90625 -1.78125,6.1875 -0.84375,3.1875 -1.3125,5.625 2.25,0.28125 4.78125,0.5625 2.625,0.1875 5.25,0.375 2.71875,0.0937 5.25,0.1875 2.625,0.0937 4.875,0.0937 1.875,-1.03125 3.09375,-3.46875 1.21875,-2.53125 1.21875,-4.6875 0,-2.53125 -0.5625,-5.15625 -0.46875,-2.71875 -1.03125,-4.875 -0.65625,-2.53125 -1.5,-4.875 z m -23.0625,-97.21875 q 0.5625,-1.5 1.5,-2.71875 1.03125,-1.3125 2.4375,-2.0625 1.3125,-1.59375 3.09375,-1.59375 1.78125,0 3.09375,1.875 v 1.875 q -0.9375,1.78125 -2.625,1.96875 h -0.46875 q -1.40625,0 -2.4375,-0.9375 -1.5,1.3125 -2.15625,3.75 -0.5625,2.34375 -0.5625,5.0625 v 2.90625 q -0.75,0 -1.40625,0.0937 -0.65625,0.0937 -1.6875,0.0937 l -1.03125,-5.8125 q -0.5625,-3.375 -2.0625,-5.625 -0.9375,0.46875 -1.6875,0.46875 -2.15625,0 -3.375,-2.15625 v -1.5 q 1.21875,-1.96875 3.1875,-2.0625 h 0.1875 q 1.875,0 3.5625,2.4375 0.9375,1.21875 1.5,2.25 0.5625,0.9375 0.9375,1.6875 z m 99.562496,112.96875 h 1.875 l -3,-3.46875 z"
         id="path10418"
         inkscape:connector-curvature="0" />
    </g>
  </g>
</svg>
