<?xml version="1.0" encoding="UTF-8" standalone="no"?>
<!-- Created with Inkscape (http://www.inkscape.org/) -->

<svg
   xmlns:dc="http://purl.org/dc/elements/1.1/"
   xmlns:cc="http://creativecommons.org/ns#"
   xmlns:rdf="http://www.w3.org/1999/02/22-rdf-syntax-ns#"
   xmlns:svg="http://www.w3.org/2000/svg"
   xmlns="http://www.w3.org/2000/svg"
   xmlns:sodipodi="http://sodipodi.sourceforge.net/DTD/sodipodi-0.dtd"
   xmlns:inkscape="http://www.inkscape.org/namespaces/inkscape"
   width="9.921874mm"
   height="37.083008mm"
   viewBox="0 0 9.921874 37.083008"
   version="1.1"
   id="svg10427"
   inkscape:version="0.92.4 (5da689c313, 2019-01-14)"
   sodipodi:docname="M4.svg">
  <defs
     id="defs10421" />
  <sodipodi:namedview
     id="base"
     pagecolor="#ffffff"
     bordercolor="#666666"
     borderopacity="1.0"
     inkscape:pageopacity="0.0"
     inkscape:pageshadow="2"
     inkscape:zoom="0.35"
     inkscape:cx="-400.40234"
     inkscape:cy="-281.97532"
     inkscape:document-units="mm"
     inkscape:current-layer="layer1"
     showgrid="false"
     fit-margin-top="0"
     fit-margin-left="0"
     fit-margin-right="0"
     fit-margin-bottom="0"
     inkscape:window-width="1920"
     inkscape:window-height="1017"
     inkscape:window-x="-8"
     inkscape:window-y="-8"
     inkscape:window-maximized="1" />
  <metadata
     id="metadata10424">
    <rdf:RDF>
      <cc:Work
         rdf:about="">
        <dc:format>image/svg+xml</dc:format>
        <dc:type
           rdf:resource="http://purl.org/dc/dcmitype/StillImage" />
        <dc:title></dc:title>
      </cc:Work>
    </rdf:RDF>
  </metadata>
  <g
     inkscape:label="Layer 1"
     inkscape:groupmode="layer"
     id="layer1"
     transform="translate(-18.627287,-37.144356)">
    <g
       aria-label="𓆳"
       transform="scale(0.26458333)"
       style="font-style:normal;font-variant:normal;font-weight:normal;font-stretch:normal;font-size:192px;line-height:1.25;font-family:sans-serif;-inkscape-font-specification:sans-serif;font-variant-ligatures:normal;font-variant-caps:normal;font-variant-numeric:normal;font-feature-settings:normal;text-align:start;letter-spacing:0px;word-spacing:0px;writing-mode:lr-tb;text-anchor:start;fill:#000000;fill-opacity:1;stroke:none"
       id="flowRoot10975">
      <path
         d="m 107.90234,147.32562 q -7.78125,-2.25 -11.531246,-2.25 -4.5,0 -7.21875,2.53125 -2.71875,2.53125 -2.71875,7.6875 v 125.25 h -4.6875 v -69.46875 q -5.625,-0.375 -8.53125,-2.90625 -2.8125,-2.53125 -2.8125,-7.59375 0,-1.96875 0.5625,-3.75 0.5625,-1.78125 1.875,-3.1875 1.3125,-1.40625 3.46875,-2.25 2.15625,-0.9375 5.4375,-1.21875 v -32.90625 q 0,-8.53125 3.28125,-12.65625 3.375,-4.21875 11.15625,-4.21875 5.531246,0 11.718746,2.4375 z m -26.156246,60.84375 v -15 q -3.5625,0 -5.90625,1.875 -2.34375,1.78125 -2.34375,5.53125 0,3.1875 1.6875,5.15625 1.6875,1.96875 6.5625,2.4375 z"
         id="path10983"
         inkscape:connector-curvature="0" />
    </g>
  </g>
</svg>
