<?xml version="1.0" encoding="UTF-8" standalone="no"?>
<!-- Created with Inkscape (http://www.inkscape.org/) -->

<svg
   xmlns:dc="http://purl.org/dc/elements/1.1/"
   xmlns:cc="http://creativecommons.org/ns#"
   xmlns:rdf="http://www.w3.org/1999/02/22-rdf-syntax-ns#"
   xmlns:svg="http://www.w3.org/2000/svg"
   xmlns="http://www.w3.org/2000/svg"
   xmlns:sodipodi="http://sodipodi.sourceforge.net/DTD/sodipodi-0.dtd"
   xmlns:inkscape="http://www.inkscape.org/namespaces/inkscape"
   width="8.4087887mm"
   height="38.000782mm"
   viewBox="0 0 8.4087887 38.000782"
   version="1.1"
   id="svg6217"
   inkscape:version="0.92.4 (5da689c313, 2019-01-14)"
   sodipodi:docname="M40.svg">
  <defs
     id="defs6211" />
  <sodipodi:namedview
     id="base"
     pagecolor="#ffffff"
     bordercolor="#666666"
     borderopacity="1.0"
     inkscape:pageopacity="0.0"
     inkscape:pageshadow="2"
     inkscape:zoom="0.35"
     inkscape:cx="-363.25893"
     inkscape:cy="-415.64285"
     inkscape:document-units="mm"
     inkscape:current-layer="layer1"
     showgrid="false"
     fit-margin-top="0"
     fit-margin-left="0"
     fit-margin-right="0"
     fit-margin-bottom="0"
     inkscape:window-width="1920"
     inkscape:window-height="1017"
     inkscape:window-x="-8"
     inkscape:window-y="-8"
     inkscape:window-maximized="1" />
  <metadata
     id="metadata6214">
    <rdf:RDF>
      <cc:Work
         rdf:about="">
        <dc:format>image/svg+xml</dc:format>
        <dc:type
           rdf:resource="http://purl.org/dc/dcmitype/StillImage" />
        <dc:title></dc:title>
      </cc:Work>
    </rdf:RDF>
  </metadata>
  <g
     inkscape:label="Layer 1"
     inkscape:groupmode="layer"
     id="layer1"
     transform="translate(-8.7997579,-0.86038112)">
    <g
       aria-label="𓇩"
       style="font-style:normal;font-variant:normal;font-weight:normal;font-stretch:normal;font-size:50.79999924px;line-height:1.25;font-family:sans-serif;-inkscape-font-specification:'sans-serif, Normal';font-variant-ligatures:normal;font-variant-caps:normal;font-variant-numeric:normal;font-feature-settings:normal;text-align:start;letter-spacing:0px;word-spacing:0px;writing-mode:lr-tb;text-anchor:start;fill:#000000;fill-opacity:1;stroke:none;stroke-width:0.26458332"
       id="text6764">
      <path
         d="m 12.396438,0.86038112 h 4.390429 l 0.42168,0.39687498 V 38.464287 l -0.42168,0.396875 H 12.396438 L 12.024367,38.389873 V 25.268193 H 9.5935079 L 9.2214376,24.796904 Q 9.3206564,24.30081 9.7175314,22.415654 10.139211,20.530498 10.337649,19.563115 9.6431173,19.364678 9.2214376,18.818975 8.7997579,18.273271 8.7997579,17.62835 q 0,-0.620118 0.4216797,-1.066602 0.4216797,-0.471289 1.1658204,-0.471289 0.42168,0 0.843359,0.124023 0.42168,0.124024 0.79375,0.322461 V 1.3316702 Z M 12.818117,1.6541311 V 38.067412 h 3.59668 V 1.6541311 Z m -1.637109,17.7353509 -1.066602,5.084961 h 1.909961 v -7.019726 q -0.297656,-0.223242 -0.74414,-0.37207 -0.446485,-0.173633 -0.868164,-0.173633 -0.4464848,0 -0.6201176,0.223242 -0.1736328,0.198437 -0.1736328,0.471289 l 0.024805,0.09922 q 0,0.396875 0.1736328,0.719336 0.2480466,0.223242 0.4960936,0.322461 0.272851,0.09922 0.595312,0.148828 z"
         style="stroke-width:0.26458332"
         id="path6766"
         inkscape:connector-curvature="0" />
    </g>
  </g>
</svg>
