<?xml version="1.0" encoding="UTF-8" standalone="no"?>
<!-- Created with Inkscape (http://www.inkscape.org/) -->

<svg
   xmlns:dc="http://purl.org/dc/elements/1.1/"
   xmlns:cc="http://creativecommons.org/ns#"
   xmlns:rdf="http://www.w3.org/1999/02/22-rdf-syntax-ns#"
   xmlns:svg="http://www.w3.org/2000/svg"
   xmlns="http://www.w3.org/2000/svg"
   xmlns:sodipodi="http://sodipodi.sourceforge.net/DTD/sodipodi-0.dtd"
   xmlns:inkscape="http://www.inkscape.org/namespaces/inkscape"
   width="25.176758mm"
   height="6.5732479mm"
   viewBox="0 0 25.176758 6.5732479"
   version="1.1"
   id="svg6775"
   inkscape:version="0.92.4 (5da689c313, 2019-01-14)"
   sodipodi:docname="M41.svg">
  <defs
     id="defs6769" />
  <sodipodi:namedview
     id="base"
     pagecolor="#ffffff"
     bordercolor="#666666"
     borderopacity="1.0"
     inkscape:pageopacity="0.0"
     inkscape:pageshadow="2"
     inkscape:zoom="0.35"
     inkscape:cx="-386.11607"
     inkscape:cy="-401.45088"
     inkscape:document-units="mm"
     inkscape:current-layer="layer1"
     showgrid="false"
     fit-margin-top="0"
     fit-margin-left="0"
     fit-margin-right="0"
     fit-margin-bottom="0"
     inkscape:window-width="1920"
     inkscape:window-height="1017"
     inkscape:window-x="-8"
     inkscape:window-y="-8"
     inkscape:window-maximized="1" />
  <metadata
     id="metadata6772">
    <rdf:RDF>
      <cc:Work
         rdf:about="">
        <dc:format>image/svg+xml</dc:format>
        <dc:type
           rdf:resource="http://purl.org/dc/dcmitype/StillImage" />
        <dc:title></dc:title>
      </cc:Work>
    </rdf:RDF>
  </metadata>
  <g
     inkscape:label="Layer 1"
     inkscape:groupmode="layer"
     id="layer1"
     transform="translate(-14.847377,-36.042873)">
    <g
       aria-label="𓇫"
       style="font-style:normal;font-variant:normal;font-weight:normal;font-stretch:normal;font-size:50.79999924px;line-height:1.25;font-family:sans-serif;-inkscape-font-specification:'sans-serif, Normal';font-variant-ligatures:normal;font-variant-caps:normal;font-variant-numeric:normal;font-feature-settings:normal;text-align:start;letter-spacing:0px;word-spacing:0px;writing-mode:lr-tb;text-anchor:start;fill:#000000;fill-opacity:1;stroke:none;stroke-width:0.26458332"
       id="text7322">
      <path
         d="m 14.847377,36.042873 11.85664,0.02481 q 1.041797,0.248047 2.158008,0.868164 1.116211,0.595313 2.182812,1.016992 l 2.257227,0.967383 q 2.827734,1.091406 4.688086,1.785938 1.860351,0.669726 1.934765,0.694531 l 0.09922,0.570508 -0.520898,0.520898 -0.471289,0.124024 q -0.768946,-0.372071 -2.530078,-0.768946 -1.761133,-0.421679 -2.604492,-0.421679 -0.694532,0 -1.63711,0.248046 -0.917773,0.248047 -1.835547,0.248047 -3.100586,0 -12.079882,-3.795117 L 16.60851,37.407131 q -0.868164,-0.347265 -1.761133,-0.570508 z m 2.579687,0.79375 q 0.818555,0.322461 5.357813,2.306836 4.564062,1.984375 7.590234,1.984375 0.818555,0 1.835547,-0.223242 1.041797,-0.223242 1.686719,-0.272851 h 0.148828 q 0.471289,0 1.215429,0.148828 0.768946,0.124023 1.537891,0.297656 -0.198438,-0.09922 -0.396875,-0.173633 l -0.396875,-0.148828 -3.199805,-1.21543 q -2.406054,-0.917773 -3.844726,-1.637109 -1.413867,-0.719336 -2.43086,-1.066602 z"
         style="stroke-width:0.26458332"
         id="path7324"
         inkscape:connector-curvature="0" />
    </g>
  </g>
</svg>
