<?xml version="1.0" encoding="UTF-8" standalone="no"?>
<!-- Created with Inkscape (http://www.inkscape.org/) -->

<svg
   xmlns:dc="http://purl.org/dc/elements/1.1/"
   xmlns:cc="http://creativecommons.org/ns#"
   xmlns:rdf="http://www.w3.org/1999/02/22-rdf-syntax-ns#"
   xmlns:svg="http://www.w3.org/2000/svg"
   xmlns="http://www.w3.org/2000/svg"
   xmlns:sodipodi="http://sodipodi.sourceforge.net/DTD/sodipodi-0.dtd"
   xmlns:inkscape="http://www.inkscape.org/namespaces/inkscape"
   width="38.075191mm"
   height="38.099995mm"
   viewBox="0 0 38.075191 38.099995"
   version="1.1"
   id="svg7325"
   inkscape:version="0.92.4 (5da689c313, 2019-01-14)"
   sodipodi:docname="M42.svg">
  <defs
     id="defs7319" />
  <sodipodi:namedview
     id="base"
     pagecolor="#ffffff"
     bordercolor="#666666"
     borderopacity="1.0"
     inkscape:pageopacity="0.0"
     inkscape:pageshadow="2"
     inkscape:zoom="0.35"
     inkscape:cx="-320.40179"
     inkscape:cy="-318.40627"
     inkscape:document-units="mm"
     inkscape:current-layer="layer1"
     showgrid="false"
     inkscape:window-width="1920"
     inkscape:window-height="1017"
     inkscape:window-x="-8"
     inkscape:window-y="-8"
     inkscape:window-maximized="1"
     fit-margin-top="0"
     fit-margin-left="0"
     fit-margin-right="0"
     fit-margin-bottom="0" />
  <metadata
     id="metadata7322">
    <rdf:RDF>
      <cc:Work
         rdf:about="">
        <dc:format>image/svg+xml</dc:format>
        <dc:type
           rdf:resource="http://purl.org/dc/dcmitype/StillImage" />
        <dc:title></dc:title>
      </cc:Work>
    </rdf:RDF>
  </metadata>
  <g
     inkscape:label="Layer 1"
     inkscape:groupmode="layer"
     id="layer1"
     transform="translate(2.5395254,-26.488346)">
    <g
       aria-label="𓇬"
       style="font-style:normal;font-variant:normal;font-weight:normal;font-stretch:normal;font-size:50.79999924px;line-height:1.25;font-family:sans-serif;-inkscape-font-specification:sans-serif;font-variant-ligatures:normal;font-variant-caps:normal;font-variant-numeric:normal;font-feature-settings:normal;text-align:start;letter-spacing:0px;word-spacing:0px;writing-mode:lr-tb;text-anchor:start;fill:#000000;fill-opacity:1;stroke:none;stroke-width:0.26458332"
       id="text7872">
      <path
         d="m 18.172386,42.363344 q 0.694532,0.347266 1.091407,0.868164 0.421679,0.520899 0.694531,1.21543 l 2.38125,-0.79375 q 2.232422,-0.744141 4.266406,-1.16582 2.033984,-0.446485 3.745508,-0.446485 2.75332,0 3.96875,0.967383 1.215429,0.942578 1.215429,2.579687 0,1.612305 -1.265039,2.604493 -1.265039,0.992187 -3.770312,0.992187 -0.570508,0 -1.116211,-0.04961 l -1.041797,-0.09922 Q 27.250902,48.91178 26.159496,48.688537 25.092894,48.465295 24.026292,48.192444 L 21.893089,47.69635 q -1.066601,-0.248047 -2.133203,-0.446484 -0.496093,0.967382 -1.562695,1.513085 1.265039,4.216797 1.686719,6.523633 0.421679,2.306836 0.421679,3.943945 0,2.629297 -0.992187,3.993555 -0.967383,1.364258 -2.728516,1.364258 -1.785937,0 -2.728515,-1.314649 -0.917774,-1.339453 -0.917774,-3.745507 0,-0.545703 0.04961,-1.091407 l 0.09922,-1.041796 q 0.124024,-1.091407 0.347266,-2.158008 0.248047,-1.066602 0.520899,-2.158008 l 0.496093,-2.133203 q 0.248047,-1.066602 0.446485,-2.158008 -0.520899,-0.272851 -0.917774,-0.644922 -0.37207,-0.396875 -0.669726,-0.917773 -1.116211,0.198437 -2.207618,0.446484 L 8.8954353,48.192444 Q 7.8040291,48.465295 6.6878182,48.688537 5.5716073,48.91178 4.4553963,49.035803 l -1.0666015,0.09922 q -0.5705078,0.04961 -1.1658203,0.04961 -2.7037109,0 -3.7455078,-1.16582 -1.0169921,-1.16582 -1.0169921,-2.654102 0,-1.612304 1.3394531,-2.480468 1.33945307,-0.892969 3.2742187,-0.892969 0.4960937,0 0.9673828,0.04961 l 0.9425781,0.09922 q 2.3316406,0.272852 4.5888671,0.917773 2.2572266,0.644922 4.4896486,1.364258 0.272851,-0.719336 0.694531,-1.190625 0.42168,-0.496094 1.091406,-0.843359 -0.322461,-1.711524 -0.967383,-4.167188 -0.620117,-2.455664 -0.818554,-4.142382 l -0.09922,-1.141016 q -0.04961,-0.570508 -0.04961,-1.16582 0,-2.505274 0.942578,-3.894336 0.967383,-1.389063 2.579687,-1.389063 1.661914,0 2.75332,1.389063 1.091407,1.364258 1.091407,4.291211 0,1.860351 -0.496094,4.365625 -0.496094,2.480468 -1.612305,5.829101 z m -0.768945,-0.272851 q 0.744141,-2.232422 1.314648,-4.539258 0.570508,-2.306836 0.694532,-4.712891 l 0.0248,-0.446484 v -0.471289 q 0,-2.505274 -0.892968,-3.571875 -0.868164,-1.066602 -2.108399,-1.066602 -1.265039,0 -2.009179,1.165821 -0.719336,1.16582 -0.719336,3.348632 0,2.554883 0.843359,5.729883 0.843359,3.175 1.066602,4.539258 l 0.595312,-0.09922 h 0.248047 q 0.173633,0 0.446484,0.04961 0.272852,0.0248 0.496094,0.07441 z m 0.02481,6.970117 q -0.446485,0.124023 -0.868164,0.124023 -0.42168,0 -0.917774,-0.124023 -0.223242,1.190625 -0.496094,2.356445 l -0.545703,2.331641 q -0.471289,2.009179 -0.669726,3.398242 -0.198438,1.389062 -0.198438,2.530078 0,2.108398 0.79375,3.12539 0.79375,0.992188 2.083594,0.992188 1.289844,0 2.083594,-1.066602 0.79375,-1.066601 0.79375,-3.646289 0,-1.612304 -0.396875,-3.621484 -0.372071,-2.033984 -0.942578,-4.067969 L 17.45305,49.06061 Z m 2.604492,-2.554883 q 0.843359,0.148828 4.464844,1.041797 3.621484,0.868164 6.052343,0.868164 1.95957,0 3.075781,-0.719336 1.116211,-0.719336 1.116211,-2.058789 0,-1.289844 -1.016992,-2.058789 -1.016992,-0.79375 -3.274219,-0.79375 -2.75332,0 -6.250781,1.141015 -3.472656,1.116211 -4.067968,1.314649 v 0.570508 q 0,0.124023 -0.02481,0.173632 z m -7.019727,0 Q 12.888988,46.059243 12.888988,45.538344 V 45.215883 Q 10.656566,44.496547 8.4241443,43.851625 6.1917224,43.181899 3.8600818,42.909047 l -0.8433593,-0.09922 q -0.4216797,0 -0.8681641,-0.02481 -1.95957025,0 -2.92695305,0.768945 -0.94257815,0.768945 -0.94257815,2.033984 0,1.339454 1.0417969,2.083594 1.04179686,0.744141 3.1501953,0.744141 1.9099609,0 5.4818358,-0.818555 3.5966798,-0.818555 5.0601558,-1.091406 z m 3.398243,1.885156 h 0.173632 q 1.21543,-0.09922 1.984375,-0.843359 0.768946,-0.768946 0.768946,-2.133203 0,-1.066602 -0.868164,-1.860352 -0.868164,-0.79375 -2.108399,-0.79375 h -0.198437 q -0.669727,0.04961 -1.562696,0.768945 -0.892968,0.694532 -0.892968,2.00918 v 0.272852 q 0.04961,1.041797 0.892968,1.810742 0.868164,0.768945 1.810743,0.768945 z"
         style="stroke-width:0.26458332"
         id="path7874"
         inkscape:connector-curvature="0" />
    </g>
  </g>
</svg>
