<?xml version="1.0" encoding="UTF-8" standalone="no"?>
<!-- Created with Inkscape (http://www.inkscape.org/) -->

<svg
   xmlns:dc="http://purl.org/dc/elements/1.1/"
   xmlns:cc="http://creativecommons.org/ns#"
   xmlns:rdf="http://www.w3.org/1999/02/22-rdf-syntax-ns#"
   xmlns:svg="http://www.w3.org/2000/svg"
   xmlns="http://www.w3.org/2000/svg"
   xmlns:sodipodi="http://sodipodi.sourceforge.net/DTD/sodipodi-0.dtd"
   xmlns:inkscape="http://www.inkscape.org/namespaces/inkscape"
   width="37.256641mm"
   height="37.256641mm"
   viewBox="0 0 37.256641 37.256641"
   version="1.1"
   id="svg7333"
   inkscape:version="0.92.4 (5da689c313, 2019-01-14)"
   sodipodi:docname="M43.svg">
  <defs
     id="defs7327" />
  <sodipodi:namedview
     id="base"
     pagecolor="#ffffff"
     bordercolor="#666666"
     borderopacity="1.0"
     inkscape:pageopacity="0.0"
     inkscape:pageshadow="2"
     inkscape:zoom="0.35"
     inkscape:cx="-326.11607"
     inkscape:cy="-342.85715"
     inkscape:document-units="mm"
     inkscape:current-layer="layer1"
     showgrid="false"
     fit-margin-top="0"
     fit-margin-left="0"
     fit-margin-right="0"
     fit-margin-bottom="0"
     inkscape:window-width="1920"
     inkscape:window-height="1017"
     inkscape:window-x="-8"
     inkscape:window-y="-8"
     inkscape:window-maximized="1" />
  <metadata
     id="metadata7330">
    <rdf:RDF>
      <cc:Work
         rdf:about="">
        <dc:format>image/svg+xml</dc:format>
        <dc:type
           rdf:resource="http://purl.org/dc/dcmitype/StillImage" />
        <dc:title></dc:title>
      </cc:Work>
    </rdf:RDF>
  </metadata>
  <g
     inkscape:label="Layer 1"
     inkscape:groupmode="layer"
     id="layer1"
     transform="translate(1.0276227,-20.862405)">
    <g
       aria-label="𓇭"
       style="font-style:normal;font-variant:normal;font-weight:normal;font-stretch:normal;font-size:50.79999924px;line-height:1.25;font-family:sans-serif;-inkscape-font-specification:'sans-serif, Normal';font-variant-ligatures:normal;font-variant-caps:normal;font-variant-numeric:normal;font-feature-settings:normal;text-align:start;letter-spacing:0px;word-spacing:0px;writing-mode:lr-tb;text-anchor:start;fill:#000000;fill-opacity:1;stroke:none;stroke-width:0.26458332"
       id="text7880">
      <path
         d="m 28.489955,50.330373 h 3.274219 V 29.395218 q 0,-1.413868 -0.892969,-2.108399 -0.868164,-0.719336 -2.530078,-0.719336 h -0.644922 q -0.322461,1.190625 -0.644922,2.133203 -0.322461,0.917774 -0.694531,1.612305 V 58.119045 H 25.116518 V 30.312991 q -0.42168,-0.644922 -0.818555,-1.5875 -0.37207,-0.942578 -0.744141,-2.158008 H 21.3214 v 1.5875 q 1.165821,1.240235 1.612305,2.554883 0.471289,1.314648 0.471289,2.579687 0,0.545704 -0.173633,1.141016 -0.148828,0.595313 -0.471289,1.16582 -0.322461,0.545703 -0.843359,1.016993 -0.496094,0.446484 -1.16582,0.694531 -1.438672,-0.644922 -2.108399,-1.810742 -0.669726,-1.165821 -0.669726,-2.678907 0,-0.818554 0.09922,-1.413867 0.09922,-0.595312 0.347266,-1.091406 0.248047,-0.520898 0.644922,-1.016992 0.42168,-0.496094 1.016992,-1.141016 v -1.5875 h -4.960937 v 1.5875 q 0.967382,1.116211 1.53789,2.505274 0.570508,1.389062 0.570508,2.654101 0,0.545703 -0.148828,1.141016 -0.148828,0.570508 -0.471289,1.116211 -0.297656,0.545703 -0.818555,1.016992 -0.496094,0.446484 -1.240234,0.719336 -1.438672,-0.644922 -2.108399,-1.810742 -0.669726,-1.165821 -0.669726,-2.678907 0,-0.719336 0.124023,-1.240234 0.124024,-0.545703 0.372071,-1.041797 0.272851,-0.496094 0.669726,-1.041797 0.396875,-0.570507 0.942578,-1.339453 v -1.5875 H 9.1671037 v 1.5875 q 1.0169923,1.190625 1.5378903,2.530078 0.545703,1.339453 0.545703,2.604492 0,0.545704 -0.173632,1.141016 -0.148829,0.595313 -0.471289,1.16582 -0.322461,0.545703 -0.8185551,1.016993 -0.4960938,0.446484 -1.190625,0.694531 Q 7.157924,36.662991 6.4881975,35.497171 5.8184709,34.33135 5.8184709,32.818264 q 0,-0.818554 0.099219,-1.339453 0.1240234,-0.520898 0.3720703,-0.992187 0.2480469,-0.471289 0.6449218,-0.992188 0.4216797,-0.520898 0.9921875,-1.339453 v -1.5875 H 5.5704241 q -0.322461,1.265039 -0.6697266,2.182813 -0.3472656,0.917773 -0.6945312,1.562695 V 58.119045 H 2.9659319 V 30.312991 Q 2.5442522,29.61846 2.1721819,28.700686 1.8001116,27.758108 1.4280413,26.567483 h -2.455664 V 25.327249 H 1.0807757 Q 0.73351007,23.987796 0.53507257,22.871585 0.33663507,21.755374 0.31183039,20.862405 H 1.5520647 q 0,1.141016 0.6697266,3.770313 l 0.1736328,0.694531 H 4.70226 l 0.049609,-0.297656 q 0.5457031,-2.80293 0.5457031,-4.167188 h 1.2402344 q -0.074414,1.860352 -0.6697266,4.464844 H 23.206557 Q 22.859291,23.962991 22.660853,22.84678 22.462416,21.730569 22.437611,20.862405 h 1.240235 q 0,1.141016 0.669726,3.770313 l 0.173633,0.694531 h 2.306836 l 0.04961,-0.297656 q 0.545703,-2.80293 0.545703,-4.167188 h 1.240235 q -0.124024,1.984375 -0.669727,4.464844 h 0.744141 q 2.257226,0 3.299023,1.141015 0.520899,0.570508 0.744141,1.686719 0.223242,1.091406 0.223242,2.728516 v 19.446874 h 3.224609 L 34.07101,58.119045 H 30.970424 Z M 14.524916,28.651077 q -1.091406,1.16582 -1.562695,2.133203 -0.446485,0.967383 -0.446485,2.058789 0,1.116211 0.496094,2.158008 0.496094,1.016992 1.488281,1.513086 1.041797,-0.496094 1.463477,-1.413867 0.446484,-0.942579 0.446484,-1.984375 0,-0.372071 -0.09922,-0.892969 -0.09922,-0.545703 -0.322461,-1.16582 -0.223243,-0.620118 -0.595313,-1.240235 -0.347265,-0.644922 -0.868164,-1.16582 z m 6.225977,0 q -1.116211,1.190625 -1.5875,2.133203 -0.446485,0.942578 -0.446485,2.058789 0,1.116211 0.496094,2.158008 0.496094,1.016992 1.488281,1.513086 1.016992,-0.496094 1.463477,-1.413867 0.446484,-0.917774 0.446484,-1.934766 0,-1.21543 -0.496094,-2.455664 -0.496093,-1.240234 -1.364257,-2.058789 z M 8.5717912,28.626272 q -1.0914062,1.190625 -1.5626953,2.158008 -0.4464844,0.967383 -0.4464844,2.058789 0,1.116211 0.4960938,2.158008 0.4960937,1.016992 1.4882812,1.513086 1.0169922,-0.496094 1.4634765,-1.413867 0.446484,-0.917774 0.446484,-1.934766 0,-1.438672 -0.4960933,-2.480469 Q 9.4647599,29.643264 8.5717912,28.626272 Z M 25.71183,28.576663 q 0.198438,-0.322461 0.42168,-0.868164 0.223242,-0.570508 0.396875,-1.141016 h -1.63711 q 0.198438,0.570508 0.42168,1.141016 0.223242,0.545703 0.396875,0.868164 z m -22.1257809,0 Q 3.7844866,28.254202 4.0077288,27.708499 4.230971,27.137991 4.4046038,26.567483 H 2.7674944 q 0.1984375,0.570508 0.4216797,1.141016 0.2232422,0.545703 0.396875,0.868164 z M 31.838588,57.126858 h 1.364258 L 34.765541,51.37217 H 30.05265 Z"
         style="stroke-width:0.26458332"
         id="path7882"
         inkscape:connector-curvature="0" />
    </g>
  </g>
</svg>
