<?xml version="1.0" encoding="UTF-8" standalone="no"?>
<!-- Created with Inkscape (http://www.inkscape.org/) -->

<svg
   xmlns:dc="http://purl.org/dc/elements/1.1/"
   xmlns:cc="http://creativecommons.org/ns#"
   xmlns:rdf="http://www.w3.org/1999/02/22-rdf-syntax-ns#"
   xmlns:svg="http://www.w3.org/2000/svg"
   xmlns="http://www.w3.org/2000/svg"
   xmlns:sodipodi="http://sodipodi.sourceforge.net/DTD/sodipodi-0.dtd"
   xmlns:inkscape="http://www.inkscape.org/namespaces/inkscape"
   width="15.825391mm"
   height="37.504688mm"
   viewBox="0 0 15.825391 37.504688"
   version="1.1"
   id="svg10992"
   inkscape:version="0.92.4 (5da689c313, 2019-01-14)"
   sodipodi:docname="M5.svg">
  <defs
     id="defs10986" />
  <sodipodi:namedview
     id="base"
     pagecolor="#ffffff"
     bordercolor="#666666"
     borderopacity="1.0"
     inkscape:pageopacity="0.0"
     inkscape:pageshadow="2"
     inkscape:zoom="0.35"
     inkscape:cx="-374.6875"
     inkscape:cy="-363.33274"
     inkscape:document-units="mm"
     inkscape:current-layer="layer1"
     showgrid="false"
     fit-margin-top="0"
     fit-margin-left="0"
     fit-margin-right="0"
     fit-margin-bottom="0"
     inkscape:window-width="1920"
     inkscape:window-height="1017"
     inkscape:window-x="-8"
     inkscape:window-y="-8"
     inkscape:window-maximized="1" />
  <metadata
     id="metadata10989">
    <rdf:RDF>
      <cc:Work
         rdf:about="">
        <dc:format>image/svg+xml</dc:format>
        <dc:type
           rdf:resource="http://purl.org/dc/dcmitype/StillImage" />
        <dc:title></dc:title>
      </cc:Work>
    </rdf:RDF>
  </metadata>
  <g
     inkscape:label="Layer 1"
     inkscape:groupmode="layer"
     id="layer1"
     transform="translate(-11.823568,-15.19686)">
    <g
       aria-label="𓆴"
       transform="scale(0.26458333)"
       style="font-style:normal;font-variant:normal;font-weight:normal;font-stretch:normal;font-size:192px;line-height:1.25;font-family:sans-serif;-inkscape-font-specification:sans-serif;font-variant-ligatures:normal;font-variant-caps:normal;font-variant-numeric:normal;font-feature-settings:normal;text-align:start;letter-spacing:0px;word-spacing:0px;writing-mode:lr-tb;text-anchor:start;fill:#000000;fill-opacity:1;stroke:none"
       id="flowRoot11540">
      <path
         d="m 98.03125,59.968202 v 4.125 q -10.59375,-1.96875 -12,-1.96875 -4.3125,0 -6.9375,2.4375 -2.53125,2.4375 -2.53125,7.5 V 178.74945 q 4.03125,0 8.8125,1.3125 4.78125,1.21875 9,3.65625 4.21875,2.4375 7.03125,6 2.90625,3.46875 3.09375,7.96875 l -1.59375,1.5 H 46.09375 L 44.6875,197.4057 q 0.28125,-4.3125 3.09375,-7.6875 2.90625,-3.46875 6.9375,-5.90625 4.125,-2.4375 8.71875,-3.75 4.59375,-1.3125 8.4375,-1.3125 V 128.2182 q -5.625,-0.375 -8.53125,-2.90625 -2.8125,-2.53125 -2.8125,-7.59375 0,-1.96875 0.5625,-3.75 0.5625,-1.78125 1.875,-3.1875 1.3125,-1.40625 3.46875,-2.25 2.15625,-0.9375 5.4375,-1.21875 V 71.405702 q 0,-6.1875 3.65625,-10.03125 3.75,-3.9375 10.78125,-3.9375 5.53125,0 11.71875,2.53125 z M 47.96875,196.18695 h 53.4375 q -0.65625,-3.5625 -3.1875,-6.1875 -2.53125,-2.71875 -6.375,-4.5 -3.75,-1.875 -8.4375,-2.8125 -4.59375,-0.9375 -9.375,-0.9375 -4.125,0 -8.34375,0.84375 -4.125,0.84375 -7.6875,2.625 -3.5625,1.6875 -6.28125,4.5 -2.625,2.71875 -3.75,6.46875 z m 23.90625,-70.875 v -15 q -3.5625,0 -5.90625,1.875 -2.34375,1.78125 -2.34375,5.53125 0,3.1875 1.6875,5.15625 1.6875,1.96875 6.5625,2.4375 z"
         id="path11548"
         inkscape:connector-curvature="0" />
    </g>
  </g>
</svg>
