<?xml version="1.0" encoding="UTF-8" standalone="no"?>
<!-- Created with Inkscape (http://www.inkscape.org/) -->

<svg
   xmlns:dc="http://purl.org/dc/elements/1.1/"
   xmlns:cc="http://creativecommons.org/ns#"
   xmlns:rdf="http://www.w3.org/1999/02/22-rdf-syntax-ns#"
   xmlns:svg="http://www.w3.org/2000/svg"
   xmlns="http://www.w3.org/2000/svg"
   xmlns:sodipodi="http://sodipodi.sourceforge.net/DTD/sodipodi-0.dtd"
   xmlns:inkscape="http://www.inkscape.org/namespaces/inkscape"
   width="18.628321mm"
   height="37.107811mm"
   viewBox="0 0 18.628321 37.107811"
   version="1.1"
   id="svg11557"
   inkscape:version="0.92.4 (5da689c313, 2019-01-14)"
   sodipodi:docname="M6.svg">
  <defs
     id="defs11551" />
  <sodipodi:namedview
     id="base"
     pagecolor="#ffffff"
     bordercolor="#666666"
     borderopacity="1.0"
     inkscape:pageopacity="0.0"
     inkscape:pageshadow="2"
     inkscape:zoom="0.35"
     inkscape:cx="-286.11523"
     inkscape:cy="-347.69016"
     inkscape:document-units="mm"
     inkscape:current-layer="layer1"
     showgrid="false"
     showguides="false"
     fit-margin-top="0"
     fit-margin-left="0"
     fit-margin-right="0"
     fit-margin-bottom="0"
     inkscape:window-width="1920"
     inkscape:window-height="1017"
     inkscape:window-x="-8"
     inkscape:window-y="-8"
     inkscape:window-maximized="1" />
  <metadata
     id="metadata11554">
    <rdf:RDF>
      <cc:Work
         rdf:about="">
        <dc:format>image/svg+xml</dc:format>
        <dc:type
           rdf:resource="http://purl.org/dc/dcmitype/StillImage" />
        <dc:title></dc:title>
      </cc:Work>
    </rdf:RDF>
  </metadata>
  <g
     inkscape:label="Layer 1"
     inkscape:groupmode="layer"
     id="layer1"
     transform="translate(11.611178,-19.7325)">
    <g
       aria-label="𓆵"
       transform="scale(0.26458333)"
       style="font-style:normal;font-variant:normal;font-weight:normal;font-stretch:normal;font-size:192px;line-height:1.25;font-family:sans-serif;-inkscape-font-specification:sans-serif;font-variant-ligatures:normal;font-variant-caps:normal;font-variant-numeric:normal;font-feature-settings:normal;text-align:start;letter-spacing:0px;word-spacing:0px;writing-mode:lr-tb;text-anchor:start;fill:#000000;fill-opacity:1;stroke:none"
       id="flowRoot12105">
      <path
         d="m 15.458984,77.11078 v 4.125 Q 4.8652344,79.26703 3.5527344,79.26703 q -4.31250002,0 -6.9375,2.4375 -2.625,2.4375 -2.625,7.5 v 109.78125 q 2.8125,0.28125 6.93749998,1.03125 4.12500002,0.75 8.34375002,2.0625 5.5312496,1.6875 8.8124996,2.71875 3.375,0.9375 5.15625,1.5 1.78125,0.5625 2.34375,0.75 0.65625,0.1875 0.9375,0.1875 -9,2.53125 -14.53125,4.03125 -5.5312496,1.5 -9.0937496,2.34375 -3.56250002,0.75 -6,1.03125 -2.4375,0.1875 -5.25,0.1875 -2.5312504,0 -6.7500004,-0.5625 -4.21875,-0.65625 -9.1875,-1.6875 -4.875,-1.125 -10.03125,-2.4375 -5.15625,-1.40625 -9.5625,-2.90625 3.28125,-0.65625 14.53125,-4.21875 5.625,-1.78125 10.59375,-2.71875 4.96875,-1.03125 8.0625,-1.3125 v -53.625 q -6.65625,-0.5625 -9.09375,-3.5625 -2.25,-2.90625 -2.25,-6.9375 0,-1.96875 0.5625,-3.75 0.5625,-1.78125 1.875,-3.1875 1.3125,-1.40625 3.46875,-2.25 2.15625,-0.9375 5.4375,-1.21875 V 88.54828 q 0,-6.5625 3.8437504,-10.21875 3.9375,-3.75 10.6875,-3.75 5.53125,0 11.6249996,2.53125 z m -2.25,130.125 q -3.3749996,-1.125 -6.7499996,-1.875 -3.28125,-0.84375 -6.18750002,-1.40625 -2.90624998,-0.5625 -5.24999998,-0.84375 -2.25,-0.28125 -3.46875,-0.28125 -1.40625,0 -3.8437504,0.28125 -2.34375,0.28125 -5.34375,0.84375 -3,0.5625 -6.375,1.40625 -3.375,0.75 -6.75,1.875 1.96875,0.65625 4.59375,1.40625 2.71875,0.65625 5.625,1.21875 2.90625,0.5625 5.625,0.9375 2.8125,0.375 4.9687504,0.375 4.125,0 10.31249998,-0.9375 6.28125002,-1.03125 12.84374962,-3 z m -23.90625,-64.78125 v -15 q -3.5625,0 -5.90625,1.875 -2.34375,1.78125 -2.34375,5.53125 0,3.1875 1.6875,5.15625 1.6875,1.96875 6.5625,2.4375 z"
         id="path12113"
         inkscape:connector-curvature="0" />
    </g>
  </g>
</svg>
