<?xml version="1.0" encoding="UTF-8" standalone="no"?>
<!-- Created with Inkscape (http://www.inkscape.org/) -->

<svg
   xmlns:dc="http://purl.org/dc/elements/1.1/"
   xmlns:cc="http://creativecommons.org/ns#"
   xmlns:rdf="http://www.w3.org/1999/02/22-rdf-syntax-ns#"
   xmlns:svg="http://www.w3.org/2000/svg"
   xmlns="http://www.w3.org/2000/svg"
   xmlns:sodipodi="http://sodipodi.sourceforge.net/DTD/sodipodi-0.dtd"
   xmlns:inkscape="http://www.inkscape.org/namespaces/inkscape"
   width="37.777538mm"
   height="19.992579mm"
   viewBox="0 0 37.777538 19.992579"
   version="1.1"
   id="svg12687"
   inkscape:version="0.92.4 (5da689c313, 2019-01-14)"
   sodipodi:docname="M8.svg">
  <defs
     id="defs12681" />
  <sodipodi:namedview
     id="base"
     pagecolor="#ffffff"
     bordercolor="#666666"
     borderopacity="1.0"
     inkscape:pageopacity="0.0"
     inkscape:pageshadow="2"
     inkscape:zoom="0.35"
     inkscape:cx="-331.83008"
     inkscape:cy="-326.19016"
     inkscape:document-units="mm"
     inkscape:current-layer="layer1"
     showgrid="false"
     fit-margin-top="0"
     fit-margin-left="0"
     fit-margin-right="0"
     fit-margin-bottom="0"
     inkscape:window-width="1920"
     inkscape:window-height="1017"
     inkscape:window-x="-8"
     inkscape:window-y="-8"
     inkscape:window-maximized="1" />
  <metadata
     id="metadata12684">
    <rdf:RDF>
      <cc:Work
         rdf:about="">
        <dc:format>image/svg+xml</dc:format>
        <dc:type
           rdf:resource="http://purl.org/dc/dcmitype/StillImage" />
        <dc:title></dc:title>
      </cc:Work>
    </rdf:RDF>
  </metadata>
  <g
     inkscape:label="Layer 1"
     inkscape:groupmode="layer"
     id="layer1"
     transform="translate(-0.48420816,-42.536276)">
    <g
       aria-label="𓆷"
       transform="scale(0.26458333)"
       style="font-style:normal;font-variant:normal;font-weight:normal;font-stretch:normal;font-size:192px;line-height:1.25;font-family:sans-serif;-inkscape-font-specification:sans-serif;font-variant-ligatures:normal;font-variant-caps:normal;font-variant-numeric:normal;font-feature-settings:normal;text-align:start;letter-spacing:0px;word-spacing:0px;writing-mode:lr-tb;text-anchor:start;fill:#000000;fill-opacity:1;stroke:none"
       id="flowRoot13235">
      <path
         d="m 143.95508,168.07953 q -2.4375,0.5625 -3.84375,2.15625 -1.40625,1.59375 -2.53125,3.5625 -1.125,2.0625 -1.875,3.28125 -0.75,1.21875 -1.5,2.0625 -0.65625,0.84375 -1.5,1.5 -0.75,0.5625 -1.96875,1.3125 v 21.09375 q 3.1875,0.5625 5.71875,2.0625 2.625,1.5 4.40625,3.75 1.875,2.25 2.8125,5.0625 0.9375,2.71875 0.9375,5.71875 0,6.84375 -4.6875,11.8125 -4.59375,4.875 -12.09375,4.875 H 17.111328 q -6.375,0 -10.8749999,-4.875 -4.40625,-4.96875 -4.40625,-11.625 0,-2.90625 0.9375,-5.625 1.03125,-2.8125 2.90625,-5.0625 1.875,-2.25 4.4999999,-3.84375 2.625,-1.59375 5.90625,-2.25 v -21.09375 q -2.4375,-0.75 -4.40625,-2.90625 -1.8749999,-2.15625 -3.0937499,-4.3125 l -2.34375,-4.03125 q -1.03125,-1.96875 -3.65625,-2.71875 v -2.8125 q 4.03125,-1.875 7.4999999,-3.09375 3.46875,-1.3125 7.125,-1.3125 2.53125,0 5.15625,0.75 2.71875,0.65625 4.96875,1.5 2.53125,1.03125 5.0625,2.15625 v 2.90625 q -3.84375,0.9375 -6.5625,6.1875 -1.3125,2.625 -3,4.59375 -1.59375,1.875 -3.75,3.09375 v 21 h 23.15625 v -7.40625 q -3.9375,-1.78125 -5.4375,-4.21875 -1.5,-2.53125 -1.5,-4.78125 0,-1.96875 0.9375,-4.96875 1.03125,-3 2.34375,-5.8125 1.40625,-3.28125 3.28125,-6.9375 l 2.53125,-0.1875 q 2.25,3.375 4.03125,6.5625 1.5,2.71875 2.71875,5.71875 1.3125,2.90625 1.3125,5.0625 0,2.4375 -1.59375,5.0625 -1.59375,2.625 -5.53125,4.5 v 7.40625 h 25.6875 v -21 q -2.53125,-1.3125 -4.125,-3.1875 -1.5,-1.96875 -3,-4.59375 -2.90625,-5.15625 -6.28125,-6.1875 v -2.8125 q 4.3125,-1.875 8.0625,-3.09375 3.75,-1.3125 7.78125,-1.3125 2.4375,0 5.15625,0.75 2.8125,0.65625 5.0625,1.5 2.625,1.03125 5.15625,2.15625 v 2.90625 q -3.65625,0.84375 -6.9375,6.1875 -1.59375,2.71875 -3.84375,4.875 -2.15625,2.0625 -3.9375,2.8125 v 21 h 27.281252 v -7.5 q -3.750002,-1.59375 -5.625002,-3.75 -1.875,-2.25 -1.875,-4.5 0,-1.21875 0.375,-2.8125 0.46875,-1.6875 1.125,-3.46875 0.75,-1.78125 1.59375,-3.65625 0.84375,-1.875 1.6875,-3.5625 l 2.343752,-4.875 2.53125,-0.1875 q 0.46875,0.9375 1.6875,3.09375 1.21875,2.0625 3.09375,5.4375 3.75,6.5625 3.75,9.9375 0,2.15625 -1.78125,4.3125 -1.78125,2.15625 -5.90625,4.03125 v 7.5 h 23.25 v -21 q -2.53125,-1.3125 -4.40625,-3.1875 -1.875,-1.875 -3.09375,-4.03125 l -2.34375,-4.03125 q -1.03125,-1.96875 -3.65625,-2.71875 v -2.8125 q 4.03125,-1.875 7.5,-3.09375 3.46875,-1.3125 7.125,-1.3125 2.53125,0 5.15625,0.75 2.71875,0.65625 4.96875,1.5 2.53125,1.03125 5.0625,2.15625 z m -127.500002,37.875 q -5.34375,0.84375 -8.5312499,4.875 -3.09375,4.03125 -3.09375,9.46875 0,5.625 3.28125,9.375 3.3749999,3.65625 8.9999999,3.65625 H 130.45508 q 2.53125,-0.375 4.59375,-1.59375 2.0625,-1.21875 3.5625,-3.09375 1.5,-1.875 2.34375,-4.125 0.84375,-2.34375 0.84375,-4.875 0,-5.0625 -3.1875,-8.71875 -3.09375,-3.65625 -8.4375,-5.0625 z m 45.09375,-39.28125 q 2.4375,1.96875 4.96875,6.28125 1.40625,2.0625 2.4375,3.28125 1.03125,1.21875 1.6875,1.875 0.75,0.65625 1.21875,0.84375 0.5625,0.1875 0.9375,0.1875 0.84375,0 1.78125,-0.5625 0.9375,-0.65625 1.78125,-1.59375 0.9375,-0.9375 1.6875,-2.0625 0.84375,-1.125 1.40625,-2.0625 2.625,-4.3125 5.25,-6.1875 -4.59375,-1.875 -7.21875,-2.53125 -2.53125,-0.65625 -4.59375,-0.65625 -2.71875,0 -5.8125,1.03125 -3,1.03125 -5.53125,2.15625 z m -55.1249999,0 q 1.40625,1.40625 2.25,2.625 l 1.8749999,3 q 1.78125,2.8125 3,4.40625 1.21875,1.59375 3.9375,2.34375 2.4375,-0.5625 3.65625,-2.25 1.21875,-1.78125 2.34375,-4.03125 2.25,-4.59375 4.78125,-6.09375 -3.28125,-1.3125 -5.90625,-2.0625 -2.53125,-0.84375 -5.0625,-0.84375 -2.34375,0 -4.875,0.75 -2.5312499,0.65625 -5.9999999,2.15625 z m 133.4062519,0 q -3.28125,-1.40625 -5.90625,-2.15625 -2.53125,-0.75 -5.0625,-0.75 -2.34375,0 -4.875,0.65625 -2.53125,0.65625 -6,2.25 1.40625,1.40625 2.25,2.625 l 1.875,3 q 0.375,0.65625 0.9375,1.6875 0.5625,1.03125 1.40625,2.15625 0.84375,1.03125 1.96875,1.875 1.21875,0.84375 2.71875,1.125 1.03125,-0.1875 2.0625,-1.21875 1.03125,-1.125 1.875,-2.25 1.03125,-1.3125 1.875,-2.90625 2.4375,-4.5 4.875,-6.09375 z m -37.40625,6.09375 q -0.5625,1.03125 -1.5,3 -0.84375,1.875 -1.781252,4.03125 -0.9375,2.0625 -1.59375,4.125 -0.65625,1.96875 -0.65625,3.09375 0,1.78125 1.21875,3.09375 1.21875,1.21875 4.781252,2.625 3.28125,-1.59375 4.6875,-2.90625 1.5,-1.3125 1.5,-3 0,-1.3125 -0.75,-3.1875 -0.75,-1.875 -1.78125,-3.84375 -1.03125,-1.96875 -2.15625,-3.75 -1.125,-1.875 -1.96875,-3.28125 z m -58.968752,-0.0937 q -1.5,2.71875 -2.625,5.25 -1.03125,2.15625 -1.78125,4.59375 -0.75,2.4375 -0.75,4.03125 0,0.375 0.1875,1.125 0.1875,0.75 0.75,1.6875 0.5625,0.9375 1.59375,1.875 1.125,0.9375 2.8125,1.78125 1.78125,-0.5625 2.90625,-1.5 1.21875,-0.9375 1.875,-1.96875 0.65625,-1.03125 0.84375,-2.0625 0.28125,-1.125 0.28125,-1.96875 0,-1.59375 -1.03125,-3.75 -0.9375,-2.15625 -2.0625,-4.21875 -1.3125,-2.4375 -3,-4.875 z"
         id="path13243"
         inkscape:connector-curvature="0" />
    </g>
  </g>
</svg>
