<?xml version="1.0" encoding="UTF-8" standalone="no"?>
<!-- Created with Inkscape (http://www.inkscape.org/) -->

<svg
   xmlns:dc="http://purl.org/dc/elements/1.1/"
   xmlns:cc="http://creativecommons.org/ns#"
   xmlns:rdf="http://www.w3.org/1999/02/22-rdf-syntax-ns#"
   xmlns:svg="http://www.w3.org/2000/svg"
   xmlns="http://www.w3.org/2000/svg"
   xmlns:sodipodi="http://sodipodi.sourceforge.net/DTD/sodipodi-0.dtd"
   xmlns:inkscape="http://www.inkscape.org/namespaces/inkscape"
   width="37.827137mm"
   height="31.973242mm"
   viewBox="0 0 37.827137 31.973242"
   version="1.1"
   id="svg10697"
   inkscape:version="0.92.4 (5da689c313, 2019-01-14)"
   sodipodi:docname="M9.svg">
  <defs
     id="defs10691" />
  <sodipodi:namedview
     id="base"
     pagecolor="#ffffff"
     bordercolor="#666666"
     borderopacity="1.0"
     inkscape:pageopacity="0.0"
     inkscape:pageshadow="2"
     inkscape:zoom="0.35"
     inkscape:cx="-343.25977"
     inkscape:cy="-274.76047"
     inkscape:document-units="mm"
     inkscape:current-layer="layer1"
     showgrid="false"
     fit-margin-top="0"
     fit-margin-left="0"
     fit-margin-right="0"
     fit-margin-bottom="0"
     inkscape:window-width="1920"
     inkscape:window-height="1017"
     inkscape:window-x="-8"
     inkscape:window-y="-8"
     inkscape:window-maximized="1" />
  <metadata
     id="metadata10694">
    <rdf:RDF>
      <cc:Work
         rdf:about="">
        <dc:format>image/svg+xml</dc:format>
        <dc:type
           rdf:resource="http://purl.org/dc/dcmitype/StillImage" />
        <dc:title></dc:title>
      </cc:Work>
    </rdf:RDF>
  </metadata>
  <g
     inkscape:label="Layer 1"
     inkscape:groupmode="layer"
     id="layer1"
     transform="translate(-3.508313,-44.163051)">
    <g
       aria-label="𓆸"
       transform="scale(0.26458333)"
       style="font-style:normal;font-variant:normal;font-weight:normal;font-stretch:normal;font-size:192px;line-height:1.25;font-family:sans-serif;-inkscape-font-specification:'sans-serif, Normal';font-variant-ligatures:normal;font-variant-caps:normal;font-variant-numeric:normal;font-feature-settings:normal;text-align:start;letter-spacing:0px;word-spacing:0px;writing-mode:lr-tb;text-anchor:start;fill:#000000;fill-opacity:1;stroke:none"
       id="flowRoot11242">
      <path
         d="m 13.728516,197.10297 21.09375,-3.09375 -21.5625,-7.6875 0.46875,-2.90625 h 25.5 l -21.46875,-13.6875 0.9375,-2.8125 71.0625,19.6875 q 2.34375,0.65625 8.53125,1.59375 6.281254,0.84375 8.812504,6.65625 11.34375,1.59375 18.28125,4.59375 6.9375,2.90625 13.59375,7.96875 6.75,5.0625 11.90625,14.34375 5.25,9.28125 5.25,20.8125 l 0.0937,14.4375 v 7.3125 q 0,10.875 -0.0937,21.9375 l -1.59375,1.5 h -4.78125 l -1.40625,-1.78125 v -40.125 q 0,-8.71875 -2.90625,-16.125 -2.90625,-7.40625 -8.0625,-12.75 -5.15625,-5.4375 -11.8125,-8.90625 -6.5625,-3.5625 -18.46875,-4.875 -1.3125,4.875 -8.437504,7.40625 -7.03125,2.53125 -8.90625,3.09375 l -72.5625,16.59375 -0.9375,-2.90625 21.1875,-12.1875 h -23.71875 l -0.46875,-2.90625 22.125,-8.625 -21.65625,-3.5625 z m 9.9375,1.6875 12.1875,1.96875 17.34375,3.09375 34.6875,6.5625 v -20.71875 z m 81.093754,-1.875 q -2.53125,-5.4375 -7.125004,-6 -4.5,-0.5625 -6.75,-1.03125 v 20.15625 l 6.46875,-2.0625 q 2.625,-0.75 4.500004,-2.34375 1.96875,-1.6875 2.71875,-4.3125 l 1.875,-1.125 q 15.375,1.59375 24.28125,7.3125 9,5.625 14.8125,15.375 5.8125,9.65625 5.8125,22.59375 v 39.28125 h 1.78125 q 0,-10.59375 0.0937,-21.09375 v -6.9375 q 0,-7.03125 -0.0937,-14.0625 0,-9.375 -3.5625,-16.96875 -3.46875,-7.59375 -9.46875,-13.21875 -6,-5.71875 -13.6875,-9.375 -7.59375,-3.65625 -20.4375,-5.4375 z m -62.625004,15.28125 9.75,-5.4375 -10.6875,-2.0625 -19.40625,7.5 z m -19.6875,-25.78125 18.65625,6.75 10.875,-1.5 -8.15625,-5.25 z m 34.40625,4.59375 27.09375,-3.46875 -59.15625,-16.3125 z m -33,35.15625 59.53125,-13.78125 -26.34375,-4.6875 z"
         id="path11250"
         inkscape:connector-curvature="0" />
    </g>
  </g>
</svg>
