<?xml version="1.0" encoding="UTF-8" standalone="no"?>
<!-- Created with Inkscape (http://www.inkscape.org/) -->

<svg
   xmlns:dc="http://purl.org/dc/elements/1.1/"
   xmlns:cc="http://creativecommons.org/ns#"
   xmlns:rdf="http://www.w3.org/1999/02/22-rdf-syntax-ns#"
   xmlns:svg="http://www.w3.org/2000/svg"
   xmlns="http://www.w3.org/2000/svg"
   xmlns:sodipodi="http://sodipodi.sourceforge.net/DTD/sodipodi-0.dtd"
   xmlns:inkscape="http://www.inkscape.org/namespaces/inkscape"
   width="19.595703mm"
   height="19.595703mm"
   viewBox="0 0 19.595703 19.595703"
   version="1.1"
   id="svg11797"
   inkscape:version="0.92.4 (5da689c313, 2019-01-14)"
   sodipodi:docname="N10.svg">
  <defs
     id="defs11791" />
  <sodipodi:namedview
     id="base"
     pagecolor="#ffffff"
     bordercolor="#666666"
     borderopacity="1.0"
     inkscape:pageopacity="0.0"
     inkscape:pageshadow="2"
     inkscape:zoom="0.35"
     inkscape:cx="-380.40179"
     inkscape:cy="-455.64285"
     inkscape:document-units="mm"
     inkscape:current-layer="layer1"
     showgrid="false"
     fit-margin-top="0"
     fit-margin-left="0"
     fit-margin-right="0"
     fit-margin-bottom="0"
     inkscape:window-width="1920"
     inkscape:window-height="1017"
     inkscape:window-x="-8"
     inkscape:window-y="-8"
     inkscape:window-maximized="1" />
  <metadata
     id="metadata11794">
    <rdf:RDF>
      <cc:Work
         rdf:about="">
        <dc:format>image/svg+xml</dc:format>
        <dc:type
           rdf:resource="http://purl.org/dc/dcmitype/StillImage" />
        <dc:title></dc:title>
      </cc:Work>
    </rdf:RDF>
  </metadata>
  <g
     inkscape:label="Layer 1"
     inkscape:groupmode="layer"
     id="layer1"
     transform="translate(-13.335473,-8.682125)">
    <g
       aria-label="𓇸"
       style="font-style:normal;font-variant:normal;font-weight:normal;font-stretch:normal;font-size:50.79999924px;line-height:1.25;font-family:sans-serif;-inkscape-font-specification:'sans-serif, Normal';font-variant-ligatures:normal;font-variant-caps:normal;font-variant-numeric:normal;font-feature-settings:normal;text-align:start;letter-spacing:0px;word-spacing:0px;writing-mode:lr-tb;text-anchor:start;fill:#000000;fill-opacity:1;stroke:none;stroke-width:0.26458332"
       id="text12344">
      <path
         d="m 13.335473,18.529586 q 0,-4.117578 2.778125,-6.970117 2.80293,-2.877344 6.72207,-2.877344 3.472656,0 6.225977,2.158008 2.778125,2.158008 3.571875,5.432226 0.297656,1.240235 0.297656,2.406055 0,1.984375 -0.868164,3.943945 -1.339453,3.050977 -4.34082,4.539258 -2.282032,1.116211 -4.712891,1.116211 -3.869531,0 -6.77168,-2.604492 -2.902148,-2.629297 -2.902148,-7.14375 z m 18.777148,0.297656 q -2.802929,-3.001367 -4.911328,-4.167187 -2.083594,-1.116211 -4.092773,-1.116211 -2.058789,0 -4.241602,1.16582 -1.066601,0.570508 -2.257226,1.612305 -1.165821,1.016992 -2.480469,2.530078 0,3.720703 2.480469,6.176367 2.480468,2.455664 6.225976,2.455664 2.505274,0 4.663281,-1.190625 2.182813,-1.190625 3.323828,-2.976563 1.165821,-1.810742 1.289844,-4.489648 z M 15.518286,13.667867 q -0.372071,0.595313 -0.719336,1.364258 -0.322461,0.768945 -0.471289,1.810742 l -0.124024,0.744141 q 1.265039,-1.364258 2.430859,-2.282032 1.165821,-0.942578 2.232422,-1.488281 2.133203,-1.091406 4.216797,-1.091406 2.257227,0 4.440039,1.190625 2.182813,1.190625 4.514453,3.671094 -0.124023,-1.835547 -1.289844,-3.720703 -1.141015,-1.885157 -3.249414,-3.125391 -2.058789,-1.2402343 -4.514453,-1.2402343 -2.530078,0 -4.464843,1.1906253 -1.909961,1.16582 -2.852539,2.728515 z"
         style="stroke-width:0.26458332"
         id="path12346"
         inkscape:connector-curvature="0" />
    </g>
  </g>
</svg>
