<?xml version="1.0" encoding="UTF-8" standalone="no"?>
<!-- Created with Inkscape (http://www.inkscape.org/) -->

<svg
   xmlns:dc="http://purl.org/dc/elements/1.1/"
   xmlns:cc="http://creativecommons.org/ns#"
   xmlns:rdf="http://www.w3.org/1999/02/22-rdf-syntax-ns#"
   xmlns:svg="http://www.w3.org/2000/svg"
   xmlns="http://www.w3.org/2000/svg"
   xmlns:sodipodi="http://sodipodi.sourceforge.net/DTD/sodipodi-0.dtd"
   xmlns:inkscape="http://www.inkscape.org/namespaces/inkscape"
   width="18.801952mm"
   height="18.801952mm"
   viewBox="0 0 18.801952 18.801952"
   version="1.1"
   id="svg12913"
   inkscape:version="0.92.4 (5da689c313, 2019-01-14)"
   sodipodi:docname="N15.svg">
  <defs
     id="defs12907" />
  <sodipodi:namedview
     id="base"
     pagecolor="#ffffff"
     bordercolor="#666666"
     borderopacity="1.0"
     inkscape:pageopacity="0.0"
     inkscape:pageshadow="2"
     inkscape:zoom="0.35"
     inkscape:cx="-377.54464"
     inkscape:cy="-374.28572"
     inkscape:document-units="mm"
     inkscape:current-layer="layer1"
     showgrid="false"
     fit-margin-top="0"
     fit-margin-left="0"
     fit-margin-right="0"
     fit-margin-bottom="0"
     inkscape:window-width="1920"
     inkscape:window-height="1017"
     inkscape:window-x="-8"
     inkscape:window-y="-8"
     inkscape:window-maximized="1" />
  <metadata
     id="metadata12910">
    <rdf:RDF>
      <cc:Work
         rdf:about="">
        <dc:format>image/svg+xml</dc:format>
        <dc:type
           rdf:resource="http://purl.org/dc/dcmitype/StillImage" />
        <dc:title></dc:title>
      </cc:Work>
    </rdf:RDF>
  </metadata>
  <g
     inkscape:label="Layer 1"
     inkscape:groupmode="layer"
     id="layer1"
     transform="translate(-12.57952,-31.001617)">
    <g
       aria-label="𓇽"
       style="font-style:normal;font-variant:normal;font-weight:normal;font-stretch:normal;font-size:50.79999924px;line-height:1.25;font-family:sans-serif;-inkscape-font-specification:'sans-serif, Normal';font-variant-ligatures:normal;font-variant-caps:normal;font-variant-numeric:normal;font-feature-settings:normal;text-align:start;letter-spacing:0px;word-spacing:0px;writing-mode:lr-tb;text-anchor:start;fill:#000000;fill-opacity:1;stroke:none;stroke-width:0.26458332"
       id="text13460">
      <path
         d="m 12.57952,40.601031 q 0,-1.934766 0.694531,-3.671094 0.694532,-1.761133 1.934766,-3.075781 1.240234,-1.314648 2.902148,-2.083594 1.686719,-0.768945 3.671094,-0.768945 1.934766,0 3.671094,0.768945 1.736328,0.768946 3.050976,2.108399 1.339453,1.314648 2.108399,3.050976 0.768945,1.736328 0.768945,3.671094 0,1.984375 -0.768945,3.671094 -0.768946,1.661914 -2.083594,2.902148 -1.314648,1.240234 -3.075781,1.934766 -1.736328,0.694531 -3.671094,0.694531 -1.95957,0 -3.646289,-0.694531 -1.686719,-0.719336 -2.926953,-1.934766 -1.21543,-1.240234 -1.934766,-2.926953 -0.694531,-1.686719 -0.694531,-3.646289 z m 17.561719,-0.02481 q 0,-1.637109 -0.669727,-3.12539 -0.644922,-1.513086 -1.785937,-2.654102 -1.116211,-1.16582 -2.604492,-1.860351 -1.463477,-0.694532 -3.100586,-0.694532 -1.63711,0 -3.125391,0.694532 -1.463476,0.694531 -2.604492,1.860351 -1.116211,1.141016 -1.785938,2.654102 -0.644921,1.488281 -0.644921,3.12539 0,1.63711 0.620117,3.100586 0.644922,1.438672 1.736328,2.530078 1.091406,1.091406 2.530078,1.736328 1.463476,0.620117 3.100586,0.620117 1.637109,0 3.12539,-0.620117 1.513086,-0.644922 2.654102,-1.736328 1.16582,-1.091406 1.860351,-2.530078 0.694532,-1.463476 0.694532,-3.100586 z m -3.795117,6.498828 -4.365625,-4.936133 -4.316016,5.208985 3.299023,-6.101953 -6.548437,-3.497461 6.846094,2.158008 0.719336,-7.639844 0.719336,7.639844 6.796484,-2.158008 -6.498828,3.497461 z"
         style="stroke-width:0.26458332"
         id="path13462"
         inkscape:connector-curvature="0" />
    </g>
  </g>
</svg>
