<?xml version="1.0" encoding="UTF-8" standalone="no"?>
<!-- Created with Inkscape (http://www.inkscape.org/) -->

<svg
   xmlns:dc="http://purl.org/dc/elements/1.1/"
   xmlns:cc="http://creativecommons.org/ns#"
   xmlns:rdf="http://www.w3.org/1999/02/22-rdf-syntax-ns#"
   xmlns:svg="http://www.w3.org/2000/svg"
   xmlns="http://www.w3.org/2000/svg"
   xmlns:sodipodi="http://sodipodi.sourceforge.net/DTD/sodipodi-0.dtd"
   xmlns:inkscape="http://www.inkscape.org/namespaces/inkscape"
   width="37.975975mm"
   height="6.5980458mm"
   viewBox="0 0 37.975975 6.5980458"
   version="1.1"
   id="svg7314"
   inkscape:version="0.92.4 (5da689c313, 2019-01-14)"
   sodipodi:docname="N16.svg">
  <defs
     id="defs7308" />
  <sodipodi:namedview
     id="base"
     pagecolor="#ffffff"
     bordercolor="#666666"
     borderopacity="1.0"
     inkscape:pageopacity="0.0"
     inkscape:pageshadow="2"
     inkscape:zoom="0.35"
     inkscape:cx="-471.83035"
     inkscape:cy="-368.57143"
     inkscape:document-units="mm"
     inkscape:current-layer="layer1"
     showgrid="false"
     fit-margin-top="0"
     fit-margin-left="0"
     fit-margin-right="0"
     fit-margin-bottom="0"
     inkscape:window-width="1920"
     inkscape:window-height="1017"
     inkscape:window-x="-8"
     inkscape:window-y="-8"
     inkscape:window-maximized="1" />
  <metadata
     id="metadata7311">
    <rdf:RDF>
      <cc:Work
         rdf:about="">
        <dc:format>image/svg+xml</dc:format>
        <dc:type
           rdf:resource="http://purl.org/dc/dcmitype/StillImage" />
        <dc:title></dc:title>
      </cc:Work>
    </rdf:RDF>
  </metadata>
  <g
     inkscape:label="Layer 1"
     inkscape:groupmode="layer"
     id="layer1"
     transform="translate(-37.525948,-44.717429)">
    <g
       aria-label="𓇾"
       style="font-style:normal;font-variant:normal;font-weight:normal;font-stretch:normal;font-size:50.79999924px;line-height:1.25;font-family:sans-serif;-inkscape-font-specification:sans-serif;font-variant-ligatures:normal;font-variant-caps:normal;font-variant-numeric:normal;font-feature-settings:normal;text-align:start;letter-spacing:0px;word-spacing:0px;writing-mode:lr-tb;text-anchor:start;fill:#000000;fill-opacity:1;stroke:none;stroke-width:0.26458332"
       id="text7861">
      <path
         d="m 73.567158,44.717429 q 0.967383,0 1.438672,0.620117 0.496094,0.595312 0.496094,1.314648 0,0.818555 -0.545704,1.389063 -0.520898,0.570508 -1.389062,0.570508 H 39.584737 q -0.942579,0 -1.513086,-0.570508 -0.545703,-0.570508 -0.545703,-1.364258 0,-0.694531 0.496093,-1.289844 0.520899,-0.595312 1.562696,-0.669726 z m -33.982421,0.79375 q -0.644922,0.04961 -0.967383,0.396875 -0.297656,0.347265 -0.297656,0.768945 0,0.42168 0.32246,0.79375 0.322461,0.347266 0.942579,0.347266 h 33.982421 q 0.570508,0 0.868164,-0.372071 0.297656,-0.37207 0.297656,-0.79375 0,-0.421679 -0.297656,-0.768945 -0.297656,-0.37207 -0.868164,-0.37207 z m 12.824023,4.787304 0.520898,0.496094 -0.520898,0.520898 -0.545703,-0.520898 z m 4.390429,0 0.520899,0.496094 -0.520899,0.520898 -0.520898,-0.520898 z m 4.39043,0 0.545703,0.496094 -0.545703,0.520898 -0.520898,-0.520898 z"
         style="stroke-width:0.26458332"
         id="path7863"
         inkscape:connector-curvature="0" />
    </g>
  </g>
</svg>
