<?xml version="1.0" encoding="UTF-8" standalone="no"?>
<!-- Created with Inkscape (http://www.inkscape.org/) -->

<svg
   xmlns:dc="http://purl.org/dc/elements/1.1/"
   xmlns:cc="http://creativecommons.org/ns#"
   xmlns:rdf="http://www.w3.org/1999/02/22-rdf-syntax-ns#"
   xmlns:svg="http://www.w3.org/2000/svg"
   xmlns="http://www.w3.org/2000/svg"
   xmlns:sodipodi="http://sodipodi.sourceforge.net/DTD/sodipodi-0.dtd"
   xmlns:inkscape="http://www.inkscape.org/namespaces/inkscape"
   width="38.050388mm"
   height="7.0197258mm"
   viewBox="0 0 38.050388 7.0197258"
   version="1.1"
   id="svg7872"
   inkscape:version="0.92.4 (5da689c313, 2019-01-14)"
   sodipodi:docname="N18A.svg">
  <defs
     id="defs7866" />
  <sodipodi:namedview
     id="base"
     pagecolor="#ffffff"
     bordercolor="#666666"
     borderopacity="1.0"
     inkscape:pageopacity="0.0"
     inkscape:pageshadow="2"
     inkscape:zoom="0.35"
     inkscape:cx="32.05358"
     inkscape:cy="-374.14286"
     inkscape:document-units="mm"
     inkscape:current-layer="layer1"
     showgrid="false"
     fit-margin-top="0"
     fit-margin-left="0"
     fit-margin-right="0"
     fit-margin-bottom="0"
     inkscape:window-width="1920"
     inkscape:window-height="1017"
     inkscape:window-x="-8"
     inkscape:window-y="-8"
     inkscape:window-maximized="1" />
  <metadata
     id="metadata7869">
    <rdf:RDF>
      <cc:Work
         rdf:about="">
        <dc:format>image/svg+xml</dc:format>
        <dc:type
           rdf:resource="http://purl.org/dc/dcmitype/StillImage" />
        <dc:title></dc:title>
      </cc:Work>
    </rdf:RDF>
  </metadata>
  <g
     inkscape:label="Layer 1"
     inkscape:groupmode="layer"
     id="layer1"
     transform="translate(95.793343,-42.821641)">
    <g
       aria-label="ð“ˆ"
       style="font-style:normal;font-variant:normal;font-weight:normal;font-stretch:normal;font-size:50.79999924px;line-height:1.25;font-family:sans-serif;-inkscape-font-specification:sans-serif;font-variant-ligatures:normal;font-variant-caps:normal;font-variant-numeric:normal;font-feature-settings:normal;text-align:start;letter-spacing:0px;word-spacing:0px;writing-mode:lr-tb;text-anchor:start;fill:#000000;fill-opacity:1;stroke:none;stroke-width:0.26458332"
       id="text8426">
      <path
         d="m -78.95096,48.253867 -2.232422,-2.182812 -1.909961,2.232422 -2.232422,-2.232422 -1.95957,2.232422 -1.860351,-2.182813 -1.711524,2.505274 h -1.116211 l 2.75332,-4.092774 1.934766,2.257227 1.909961,-2.182813 2.232422,2.232422 1.934765,-2.232422 2.257227,2.232422 2.257226,-2.232422 1.909961,2.232422 2.232422,-2.232422 1.909961,2.232422 2.232422,-2.232422 1.885156,2.182813 1.95957,-2.257227 2.753321,4.092774 h -1.091406 l -1.736329,-2.505274 -1.885156,2.182813 -1.909961,-2.232422 -2.257226,2.232422 -1.909961,-2.232422 -2.232422,2.232422 -1.909961,-2.232422 z m -13.245703,1.5875 q -1.860352,-0.173632 -2.728516,-1.190625 -0.868164,-1.016992 -0.868164,-2.306836 0,-0.620117 0.223243,-1.215429 0.248046,-0.620117 0.644921,-1.091406 0.42168,-0.496094 0.967383,-0.818555 0.570508,-0.322461 1.21543,-0.396875 h 31.353124 q 0.768946,0 1.438672,0.272851 0.669727,0.248047 1.141016,0.719336 0.496094,0.471289 0.768945,1.141016 0.297656,0.644922 0.297656,1.413867 0,0.719336 -0.248046,1.339453 -0.248047,0.620117 -0.694532,1.116211 -0.421679,0.471289 -1.041797,0.744141 -0.595312,0.272851 -1.314648,0.272851 z m 0,-6.225976 q -0.595312,0 -1.116211,0.223242 -0.520898,0.198438 -0.892969,0.570508 -0.37207,0.347265 -0.595312,0.843359 -0.223242,0.496094 -0.223242,1.041797 0,1.265039 0.768945,1.934766 0.768945,0.669726 2.058789,0.818554 h 30.807421 q 0.669727,0 1.190625,-0.223242 0.520899,-0.223242 0.892969,-0.595312 0.37207,-0.396875 0.570508,-0.892969 0.198437,-0.496094 0.198437,-1.066602 0,-1.141015 -0.768945,-1.885156 -0.74414,-0.768945 -2.083594,-0.768945 z"
         style="stroke-width:0.26458332"
         id="path8428"
         inkscape:connector-curvature="0" />
    </g>
  </g>
</svg>
