<?xml version="1.0" encoding="UTF-8" standalone="no"?>
<!-- Created with Inkscape (http://www.inkscape.org/) -->

<svg
   xmlns:dc="http://purl.org/dc/elements/1.1/"
   xmlns:cc="http://creativecommons.org/ns#"
   xmlns:rdf="http://www.w3.org/1999/02/22-rdf-syntax-ns#"
   xmlns:svg="http://www.w3.org/2000/svg"
   xmlns="http://www.w3.org/2000/svg"
   xmlns:sodipodi="http://sodipodi.sourceforge.net/DTD/sodipodi-0.dtd"
   xmlns:inkscape="http://www.inkscape.org/namespaces/inkscape"
   width="38.050392mm"
   height="7.0197272mm"
   viewBox="0 0 38.050392 7.0197272"
   version="1.1"
   id="svg8437"
   inkscape:version="0.92.4 (5da689c313, 2019-01-14)"
   sodipodi:docname="N18B.svg">
  <defs
     id="defs8431" />
  <sodipodi:namedview
     id="base"
     pagecolor="#ffffff"
     bordercolor="#666666"
     borderopacity="1.0"
     inkscape:pageopacity="0.0"
     inkscape:pageshadow="2"
     inkscape:zoom="0.35"
     inkscape:cx="-328.97321"
     inkscape:cy="-395.64286"
     inkscape:document-units="mm"
     inkscape:current-layer="layer1"
     showgrid="false"
     fit-margin-top="0"
     fit-margin-left="0"
     fit-margin-right="0"
     fit-margin-bottom="0"
     inkscape:window-width="1920"
     inkscape:window-height="1017"
     inkscape:window-x="-8"
     inkscape:window-y="-8"
     inkscape:window-maximized="1" />
  <metadata
     id="metadata8434">
    <rdf:RDF>
      <cc:Work
         rdf:about="">
        <dc:format>image/svg+xml</dc:format>
        <dc:type
           rdf:resource="http://purl.org/dc/dcmitype/StillImage" />
        <dc:title></dc:title>
      </cc:Work>
    </rdf:RDF>
  </metadata>
  <g
     inkscape:label="Layer 1"
     inkscape:groupmode="layer"
     id="layer1"
     transform="translate(0.27167048,-37.133099)">
    <g
       aria-label="𓈂"
       style="font-style:normal;font-variant:normal;font-weight:normal;font-stretch:normal;font-size:50.79999924px;line-height:1.25;font-family:sans-serif;-inkscape-font-specification:sans-serif;font-variant-ligatures:normal;font-variant-caps:normal;font-variant-numeric:normal;font-feature-settings:normal;text-align:start;letter-spacing:0px;word-spacing:0px;writing-mode:lr-tb;text-anchor:start;fill:#000000;fill-opacity:1;stroke:none;stroke-width:0.26458332"
       id="text8984">
      <path
         d="m 3.3250092,44.152826 q -1.8603516,-0.173633 -2.72851563,-1.190625 -0.86816405,-1.016992 -0.86816405,-2.306836 0,-0.620117 0.22324218,-1.21543 0.24804688,-0.620117 0.64492187,-1.091406 0.42167973,-0.496094 0.96738283,-0.818555 0.5705078,-0.32246 1.2154296,-0.396875 h 31.353125 q 0.768945,0 1.438671,0.272852 0.669727,0.248047 1.141016,0.719336 0.496094,0.471289 0.768945,1.141016 0.297657,0.644921 0.297657,1.413867 0,0.719336 -0.248047,1.339453 -0.248047,0.620117 -0.694532,1.116211 -0.421679,0.471289 -1.041796,0.74414 -0.595313,0.272852 -1.314649,0.272852 z m 0,-6.225977 q -0.5953125,0 -1.116211,0.223243 -0.5208984,0.198437 -0.8929687,0.570507 -0.37207031,0.347266 -0.59531249,0.84336 -0.22324219,0.496094 -0.22324219,1.041797 0,1.265039 0.76894528,1.934765 0.7689453,0.669727 2.0587891,0.818555 H 34.132431 q 0.669726,0 1.190625,-0.223242 0.520898,-0.223242 0.892968,-0.595313 0.372071,-0.396875 0.570508,-0.892968 0.198438,-0.496094 0.198438,-1.066602 0,-1.141016 -0.768946,-1.885156 -0.74414,-0.768946 -2.083593,-0.768946 z m 12.4767578,2.083594 v -1.661914 h 1.240234 v 1.661914 h 3.274219 v -1.661914 h 1.240234 v 1.661914 h 12.501563 v 1.240235 H 21.556454 v 1.686718 H 20.31622 v -1.686718 h -3.274219 v 1.686718 H 15.801767 V 41.250678 H 3.3002045 v -1.240235 z"
         style="stroke-width:0.26458332"
         id="path8986"
         inkscape:connector-curvature="0" />
    </g>
  </g>
</svg>
