<?xml version="1.0" encoding="UTF-8" standalone="no"?>
<!-- Created with Inkscape (http://www.inkscape.org/) -->

<svg
   xmlns:dc="http://purl.org/dc/elements/1.1/"
   xmlns:cc="http://creativecommons.org/ns#"
   xmlns:rdf="http://www.w3.org/1999/02/22-rdf-syntax-ns#"
   xmlns:svg="http://www.w3.org/2000/svg"
   xmlns="http://www.w3.org/2000/svg"
   xmlns:sodipodi="http://sodipodi.sourceforge.net/DTD/sodipodi-0.dtd"
   xmlns:inkscape="http://www.inkscape.org/namespaces/inkscape"
   width="38.099998mm"
   height="17.908995mm"
   viewBox="0 0 38.099998 17.908995"
   version="1.1"
   id="svg14029"
   inkscape:version="0.92.4 (5da689c313, 2019-01-14)"
   sodipodi:docname="N19.svg">
  <defs
     id="defs14023" />
  <sodipodi:namedview
     id="base"
     pagecolor="#ffffff"
     bordercolor="#666666"
     borderopacity="1.0"
     inkscape:pageopacity="0.0"
     inkscape:pageshadow="2"
     inkscape:zoom="0.35"
     inkscape:cx="-397.54464"
     inkscape:cy="-358.50001"
     inkscape:document-units="mm"
     inkscape:current-layer="layer1"
     showgrid="false"
     fit-margin-top="0"
     fit-margin-left="0"
     fit-margin-right="0"
     fit-margin-bottom="0"
     inkscape:window-width="1920"
     inkscape:window-height="1017"
     inkscape:window-x="-8"
     inkscape:window-y="-8"
     inkscape:window-maximized="1" />
  <metadata
     id="metadata14026">
    <rdf:RDF>
      <cc:Work
         rdf:about="">
        <dc:format>image/svg+xml</dc:format>
        <dc:type
           rdf:resource="http://purl.org/dc/dcmitype/StillImage" />
        <dc:title></dc:title>
      </cc:Work>
    </rdf:RDF>
  </metadata>
  <g
     inkscape:label="Layer 1"
     inkscape:groupmode="layer"
     id="layer1"
     transform="translate(-17.871187,-36.071213)">
    <g
       aria-label="𓈃"
       style="font-style:normal;font-variant:normal;font-weight:normal;font-stretch:normal;font-size:50.79999924px;line-height:1.25;font-family:sans-serif;-inkscape-font-specification:'sans-serif, Normal';font-variant-ligatures:normal;font-variant-caps:normal;font-variant-numeric:normal;font-feature-settings:normal;text-align:start;letter-spacing:0px;word-spacing:0px;writing-mode:lr-tb;text-anchor:start;fill:#000000;fill-opacity:1;stroke:none;stroke-width:0.26458332"
       id="text14576">
      <path
         d="m 52.324898,53.980207 q -7.912696,0 -15.676563,-0.02481 -7.739062,-0.0248 -15.750976,-0.0248 -1.389062,-0.173633 -2.207617,-1.165821 -0.818555,-0.992187 -0.818555,-2.306836 0,-1.463476 0.967383,-2.480468 0.992187,-1.016992 2.579687,-1.016992 h 31.253906 q 0.42168,0 1.289844,0.37207 0.892969,0.37207 1.438672,1.240234 0.570508,0.84336 0.570508,1.835547 0,1.389063 -0.967383,2.430859 -0.967383,1.016993 -2.554883,1.141016 z m 0,-0.79375 q 1.488281,-0.09922 2.182812,-0.942578 0.694531,-0.843359 0.694531,-1.810742 0,-1.116211 -0.818554,-1.885156 -0.818555,-0.79375 -2.058789,-0.79375 H 21.418257 q -1.240234,0 -2.009179,0.768945 -0.768946,0.768945 -0.768946,1.909961 0,1.141015 0.744141,1.95957 0.768945,0.79375 2.033984,0.79375 z m 0,-10.120312 q -8.036719,0 -15.850195,-0.02481 -7.813477,-0.02481 -15.577344,-0.02481 -1.389062,-0.173632 -2.207617,-1.141015 -0.818555,-0.992188 -0.818555,-2.306836 0,-1.463477 0.967383,-2.480469 0.967383,-1.016992 2.579687,-1.016992 h 31.253906 q 0.42168,0 1.289844,0.37207 0.892969,0.372071 1.438672,1.21543 0.570508,0.843359 0.570508,1.835547 0,1.389062 -0.967383,2.430859 -0.967383,1.016992 -2.554883,1.141016 z m 0,-0.79375 q 1.488281,-0.09922 2.182812,-0.942578 0.694531,-0.84336 0.694531,-1.785938 0,-1.116211 -0.818554,-1.885156 -0.818555,-0.79375 -2.058789,-0.79375 H 21.418257 q -1.289843,0 -2.033984,0.79375 -0.719336,0.768945 -0.719336,1.860351 0,1.141016 0.744141,1.959571 0.768945,0.79375 2.009179,0.79375 z"
         style="stroke-width:0.26458332"
         id="path14578"
         inkscape:connector-curvature="0" />
    </g>
  </g>
</svg>
