<?xml version="1.0" encoding="UTF-8" standalone="no"?>
<!-- Created with Inkscape (http://www.inkscape.org/) -->

<svg
   xmlns:dc="http://purl.org/dc/elements/1.1/"
   xmlns:cc="http://creativecommons.org/ns#"
   xmlns:rdf="http://www.w3.org/1999/02/22-rdf-syntax-ns#"
   xmlns:svg="http://www.w3.org/2000/svg"
   xmlns="http://www.w3.org/2000/svg"
   xmlns:sodipodi="http://sodipodi.sourceforge.net/DTD/sodipodi-0.dtd"
   xmlns:inkscape="http://www.inkscape.org/namespaces/inkscape"
   width="38.000782mm"
   height="15.626953mm"
   viewBox="0 0 38.000782 15.626953"
   version="1.1"
   id="svg10111"
   inkscape:version="0.92.4 (5da689c313, 2019-01-14)"
   sodipodi:docname="N25.svg">
  <defs
     id="defs10105" />
  <sodipodi:namedview
     id="base"
     pagecolor="#ffffff"
     bordercolor="#666666"
     borderopacity="1.0"
     inkscape:pageopacity="0.0"
     inkscape:pageshadow="2"
     inkscape:zoom="0.35"
     inkscape:cx="-323.25893"
     inkscape:cy="-249.9286"
     inkscape:document-units="mm"
     inkscape:current-layer="layer1"
     showgrid="false"
     fit-margin-top="0"
     fit-margin-left="0"
     fit-margin-right="0"
     fit-margin-bottom="0"
     inkscape:window-width="1920"
     inkscape:window-height="1017"
     inkscape:window-x="-8"
     inkscape:window-y="-8"
     inkscape:window-maximized="1" />
  <metadata
     id="metadata10108">
    <rdf:RDF>
      <cc:Work
         rdf:about="">
        <dc:format>image/svg+xml</dc:format>
        <dc:type
           rdf:resource="http://purl.org/dc/dcmitype/StillImage" />
        <dc:title></dc:title>
      </cc:Work>
    </rdf:RDF>
  </metadata>
  <g
     inkscape:label="Layer 1"
     inkscape:groupmode="layer"
     id="layer1"
     transform="translate(1.7835748,-67.079438)">
    <g
       aria-label="𓈉"
       style="font-style:normal;font-variant:normal;font-weight:normal;font-stretch:normal;font-size:50.79999924px;line-height:1.25;font-family:sans-serif;-inkscape-font-specification:sans-serif;font-variant-ligatures:normal;font-variant-caps:normal;font-variant-numeric:normal;font-feature-settings:normal;text-align:start;letter-spacing:0px;word-spacing:0px;writing-mode:lr-tb;text-anchor:start;fill:#000000;fill-opacity:1;stroke:none;stroke-width:0.26458332"
       id="text10658">
      <path
         d="M -1.7835748,82.235103 V 70.626509 q 0,-0.967383 0.2728515,-1.612304 0.2976563,-0.669727 0.64492189,-1.066602 l 0.49609374,-0.496094 q 0.17363281,-0.173632 0.34726562,-0.272851 0.19843749,-0.09922 0.59531249,-0.09922 2.05878906,0 4.11757806,3.199805 2.0835937,3.175 2.2820312,3.472656 0.1984375,0.272851 0.7441406,0.843359 0.5457031,0.570508 1.2898438,0.892969 2.0091799,-0.719336 3.5222659,-3.54707 1.53789,-2.852539 2.877343,-3.844727 1.339453,-0.992187 1.909961,-0.992187 0.868164,0 2.033985,1.066601 1.16582,1.041797 2.232421,2.976563 1.066602,1.909961 2.00918,2.951757 0.942578,1.016993 2.182813,1.389063 1.438671,-0.669727 3.12539,-3.621484 1.686719,-2.951758 2.902149,-3.844727 1.240234,-0.917773 2.182812,-0.917773 h 0.198437 q 0.248047,0 0.446485,0.198437 l 0.37207,0.347266 q 0.644922,0.570508 0.917774,1.389062 0.297656,0.79375 0.297656,1.661914 v 11.608594 l -0.42168,0.396875 H -1.4115045 Z m 0.79374995,-0.322461 H 35.423456 V 70.775337 q 0,-0.868164 -0.322461,-1.5875 -0.297656,-0.74414 -1.016992,-1.289843 -1.810742,0.124023 -3.299024,2.554882 -1.488281,2.406055 -2.207617,3.398243 l -0.520898,0.694531 q -0.545703,0.694531 -1.165821,1.21543 -0.620117,0.520898 -1.11621,0.520898 h -0.124024 q -0.74414,-0.09922 -1.934765,-0.967383 -1.165821,-0.868164 -2.406055,-3.100586 -1.240234,-2.257226 -2.058789,-3.100586 -0.818555,-0.843359 -1.835547,-1.190625 -1.339453,0.42168 -2.306836,1.537891 -0.967383,1.116211 -1.95957,2.926953 -0.967383,1.810742 -2.207617,2.877344 -1.21543,1.041797 -1.9099613,1.041797 -0.4464843,0 -1.4138671,-0.719336 Q 6.6500188,74.868111 5.3353704,72.660494 L 4.3431829,71.023384 Q 3.4750188,69.584712 2.507636,68.790962 1.5650579,67.997212 0.34962825,67.897994 q -0.69453123,0.520898 -1.01699217,1.240234 -0.32246093,0.694531 -0.32246093,1.562695 z"
         style="stroke-width:0.26458332"
         id="path10660"
         inkscape:connector-curvature="0" />
    </g>
  </g>
</svg>
