<?xml version="1.0" encoding="UTF-8" standalone="no"?>
<!-- Created with Inkscape (http://www.inkscape.org/) -->

<svg
   xmlns:dc="http://purl.org/dc/elements/1.1/"
   xmlns:cc="http://creativecommons.org/ns#"
   xmlns:rdf="http://www.w3.org/1999/02/22-rdf-syntax-ns#"
   xmlns:svg="http://www.w3.org/2000/svg"
   xmlns="http://www.w3.org/2000/svg"
   xmlns:sodipodi="http://sodipodi.sourceforge.net/DTD/sodipodi-0.dtd"
   xmlns:inkscape="http://www.inkscape.org/namespaces/inkscape"
   width="38.000778mm"
   height="13.220898mm"
   viewBox="0 0 38.000778 13.220898"
   version="1.1"
   id="svg10669"
   inkscape:version="0.92.4 (5da689c313, 2019-01-14)"
   sodipodi:docname="N25A.svg">
  <defs
     id="defs10663" />
  <sodipodi:namedview
     id="base"
     pagecolor="#ffffff"
     bordercolor="#666666"
     borderopacity="1.0"
     inkscape:pageopacity="0.0"
     inkscape:pageshadow="2"
     inkscape:zoom="0.35"
     inkscape:cx="-386.11607"
     inkscape:cy="-361.35716"
     inkscape:document-units="mm"
     inkscape:current-layer="layer1"
     showgrid="false"
     fit-margin-top="0"
     fit-margin-left="0"
     fit-margin-right="0"
     fit-margin-bottom="0"
     inkscape:window-width="1920"
     inkscape:window-height="1017"
     inkscape:window-x="-8"
     inkscape:window-y="-8"
     inkscape:window-maximized="1" />
  <metadata
     id="metadata10666">
    <rdf:RDF>
      <cc:Work
         rdf:about="">
        <dc:format>image/svg+xml</dc:format>
        <dc:type
           rdf:resource="http://purl.org/dc/dcmitype/StillImage" />
        <dc:title></dc:title>
      </cc:Work>
    </rdf:RDF>
  </metadata>
  <g
     inkscape:label="Layer 1"
     inkscape:groupmode="layer"
     id="layer1"
     transform="translate(-14.847377,-40.003353)">
    <g
       aria-label="𓈊"
       style="font-style:normal;font-variant:normal;font-weight:normal;font-stretch:normal;font-size:50.79999924px;line-height:1.25;font-family:sans-serif;-inkscape-font-specification:sans-serif;font-variant-ligatures:normal;font-variant-caps:normal;font-variant-numeric:normal;font-feature-settings:normal;text-align:start;letter-spacing:0px;word-spacing:0px;writing-mode:lr-tb;text-anchor:start;fill:#000000;fill-opacity:1;stroke:none;stroke-width:0.26458332"
       id="text11216">
      <path
         d="m 14.847377,52.752963 v -9.202539 q 0,-0.868164 0.272851,-1.562695 0.272852,-0.719336 0.644922,-1.141016 l 0.496094,-0.496093 q 0.173633,-0.173633 0.347266,-0.248047 0.198437,-0.09922 0.595312,-0.09922 2.058789,0 4.117578,3.199805 2.083594,3.175 2.282031,3.472656 0.198438,0.272851 0.744141,0.843359 0.545703,0.570508 1.289844,0.892969 1.835547,-0.620117 3.323828,-3.274219 1.488281,-2.678906 2.505273,-3.646289 L 32.01222,41.04515 q 0.471289,-0.396875 1.041797,-0.694531 0.570508,-0.322461 0.942578,-0.322461 0.818555,0 1.959571,1.041797 1.16582,1.016992 2.257226,3.026171 1.116211,1.984375 2.033984,2.976563 0.942579,0.967383 2.158008,1.339453 1.438672,-0.669727 3.125391,-3.621484 1.686719,-2.951758 2.902148,-3.844727 1.240235,-0.917773 2.182813,-0.917773 h 0.198437 q 0.248047,0 0.446485,0.198437 l 0.37207,0.347266 q 0.644922,0.570508 0.917773,1.389062 0.297656,0.79375 0.297656,1.661914 v 9.202539 l -0.421679,0.396875 H 15.219447 Z m 0.79375,-0.322461 h 36.41328 v -8.73125 q 0,-0.868164 -0.32246,-1.5875 -0.297657,-0.74414 -1.016993,-1.289843 -1.810742,0.124023 -3.299023,2.554883 -1.488281,2.406054 -2.207617,3.398242 l -0.520899,0.694531 q -0.545703,0.694531 -1.16582,1.21543 -0.620117,0.520898 -1.116211,0.520898 h -0.124023 q -0.892969,-0.198437 -1.984375,-1.041797 -1.091406,-0.868164 -2.331641,-2.976562 -1.215429,-2.133203 -2.058789,-3.050977 -0.818554,-0.917773 -1.860351,-1.289844 -1.339453,0.42168 -2.331641,1.537891 -0.992187,1.116211 -2.00918,2.951758 -0.992187,1.810742 -2.182812,2.852539 -1.16582,1.041797 -1.860352,1.041797 -0.446484,0 -1.413867,-0.719336 -0.967383,-0.719336 -2.282031,-2.926953 l -0.992187,-1.63711 q -0.868165,-1.413867 -1.835547,-2.232422 -0.967383,-0.818554 -2.158008,-0.892968 -0.694531,0.520898 -1.016992,1.240234 -0.322461,0.694531 -0.322461,1.562695 z"
         style="stroke-width:0.26458332"
         id="path11218"
         inkscape:connector-curvature="0" />
    </g>
  </g>
</svg>
