<?xml version="1.0" encoding="UTF-8" standalone="no"?>
<!-- Created with Inkscape (http://www.inkscape.org/) -->

<svg
   xmlns:dc="http://purl.org/dc/elements/1.1/"
   xmlns:cc="http://creativecommons.org/ns#"
   xmlns:rdf="http://www.w3.org/1999/02/22-rdf-syntax-ns#"
   xmlns:svg="http://www.w3.org/2000/svg"
   xmlns="http://www.w3.org/2000/svg"
   xmlns:sodipodi="http://sodipodi.sourceforge.net/DTD/sodipodi-0.dtd"
   xmlns:inkscape="http://www.inkscape.org/namespaces/inkscape"
   width="25.623241mm"
   height="15.701367mm"
   viewBox="0 0 25.623241 15.701367"
   version="1.1"
   id="svg11227"
   inkscape:version="0.92.4 (5da689c313, 2019-01-14)"
   sodipodi:docname="N26.svg">
  <defs
     id="defs11221" />
  <sodipodi:namedview
     id="base"
     pagecolor="#ffffff"
     bordercolor="#666666"
     borderopacity="1.0"
     inkscape:pageopacity="0.0"
     inkscape:pageshadow="2"
     inkscape:zoom="0.35"
     inkscape:cx="-117.54466"
     inkscape:cy="-267.07142"
     inkscape:document-units="mm"
     inkscape:current-layer="layer1"
     showgrid="false"
     fit-margin-top="0"
     fit-margin-left="0"
     fit-margin-right="0"
     fit-margin-bottom="0"
     inkscape:window-width="1920"
     inkscape:window-height="1017"
     inkscape:window-x="-8"
     inkscape:window-y="-8"
     inkscape:window-maximized="1" />
  <metadata
     id="metadata11224">
    <rdf:RDF>
      <cc:Work
         rdf:about="">
        <dc:format>image/svg+xml</dc:format>
        <dc:type
           rdf:resource="http://purl.org/dc/dcmitype/StillImage" />
        <dc:title></dc:title>
      </cc:Work>
    </rdf:RDF>
  </metadata>
  <g
     inkscape:label="Layer 1"
     inkscape:groupmode="layer"
     id="layer1"
     transform="translate(56.212143,-62.469319)">
    <g
       aria-label="𓈋"
       style="font-style:normal;font-variant:normal;font-weight:normal;font-stretch:normal;font-size:50.79999924px;line-height:1.25;font-family:sans-serif;-inkscape-font-specification:sans-serif;font-variant-ligatures:normal;font-variant-caps:normal;font-variant-numeric:normal;font-feature-settings:normal;text-align:start;letter-spacing:0px;word-spacing:0px;writing-mode:lr-tb;text-anchor:start;fill:#000000;fill-opacity:1;stroke:none;stroke-width:0.26458332"
       id="text11774">
      <path
         d="m -30.588901,65.371468 v 12.402343 l -0.42168,0.396875 h -24.829492 l -0.37207,-0.471289 V 65.297054 q 0,-1.339453 0.570508,-2.033985 0.595312,-0.694531 1.562695,-0.694531 1.860352,0 2.902149,2.554883 1.066601,2.554883 1.885156,4.142383 0.818554,1.5875 2.257226,2.579687 1.438672,0.967383 3.447852,0.967383 1.339453,0 2.406054,-0.42168 1.091407,-0.421679 1.984375,-1.265039 0.892969,-0.843359 1.612305,-2.083594 0.744141,-1.265039 1.389063,-2.951757 0.719335,-1.860352 1.389062,-2.728516 0.669727,-0.892969 1.637109,-0.892969 1.016993,0 1.810743,0.868164 0.768945,0.768946 0.768945,2.033985 z m -0.79375,0.07441 q 0,-0.42168 -0.124024,-0.818555 -0.124023,-0.396875 -0.347265,-0.694531 -0.223242,-0.297656 -0.545703,-0.471289 -0.322461,-0.198438 -0.719336,-0.198438 -0.595313,0 -1.116211,0.669727 -0.520899,0.669726 -1.041797,2.00918 -0.620117,1.5875 -1.314648,2.877343 -0.694532,1.265039 -1.488282,2.257227 -0.992187,1.215429 -2.455664,1.885156 -1.438672,0.644922 -3.001367,0.644922 -1.612305,0 -2.976562,-0.595313 -1.364258,-0.595312 -2.406055,-1.785937 -0.223242,-0.272852 -0.496094,-0.669727 -0.272851,-0.421679 -0.620117,-1.066601 -0.322461,-0.644922 -0.768945,-1.562695 -0.42168,-0.942579 -0.967383,-2.257227 -0.42168,-0.992187 -1.041797,-1.686719 -0.595312,-0.694531 -1.215429,-0.694531 -0.570508,0 -0.992188,0.570508 -0.396875,0.570508 -0.396875,1.513086 v 12.005468 h 24.035742 z"
         style="stroke-width:0.26458332"
         id="path11776"
         inkscape:connector-curvature="0" />
    </g>
  </g>
</svg>
