<?xml version="1.0" encoding="UTF-8" standalone="no"?>
<svg
   xmlns:dc="http://purl.org/dc/elements/1.1/"
   xmlns:cc="http://creativecommons.org/ns#"
   xmlns:rdf="http://www.w3.org/1999/02/22-rdf-syntax-ns#"
   xmlns:svg="http://www.w3.org/2000/svg"
   xmlns="http://www.w3.org/2000/svg"
   xmlns:sodipodi="http://sodipodi.sourceforge.net/DTD/sodipodi-0.dtd"
   xmlns:inkscape="http://www.inkscape.org/namespaces/inkscape"
   sodipodi:docname="N27.svg"
   inkscape:version="1.0 (4035a4fb49, 2020-05-01)"
   id="svg8437"
   version="1.1"
   viewBox="0 0 25.62324 19.198828"
   height="19.198828mm"
   width="25.62324mm">
  <defs
     id="defs8431">
    <rect
       id="rect834"
       height="301.625"
       width="460.375"
       y="-77.835442"
       x="-156.75381" />
  </defs>
  <sodipodi:namedview
     inkscape:document-rotation="0"
     inkscape:window-maximized="1"
     inkscape:window-y="-8"
     inkscape:window-x="-8"
     inkscape:window-height="1017"
     inkscape:window-width="1920"
     fit-margin-bottom="0"
     fit-margin-right="0"
     fit-margin-left="0"
     fit-margin-top="0"
     showgrid="false"
     inkscape:current-layer="layer1"
     inkscape:document-units="mm"
     inkscape:cy="-352.67449"
     inkscape:cx="257.7682"
     inkscape:zoom="0.35"
     inkscape:pageshadow="2"
     inkscape:pageopacity="0.0"
     borderopacity="1.0"
     bordercolor="#666666"
     pagecolor="#ffffff"
     id="base" />
  <metadata
     id="metadata8434">
    <rdf:RDF>
      <cc:Work
         rdf:about="">
        <dc:format>image/svg+xml</dc:format>
        <dc:type
           rdf:resource="http://purl.org/dc/dcmitype/StillImage" />
        <dc:title></dc:title>
      </cc:Work>
    </rdf:RDF>
  </metadata>
  <g
     transform="translate(155.51367,-13.208489)"
     id="layer1"
     inkscape:groupmode="layer"
     inkscape:label="Layer 1">
    <g
       style="font-style:normal;font-variant:normal;font-weight:normal;font-stretch:normal;font-size:50.8px;line-height:1.25;font-family:sans-serif;-inkscape-font-specification:sans-serif;font-variant-ligatures:normal;font-variant-caps:normal;font-variant-numeric:normal;font-feature-settings:normal;text-align:start;letter-spacing:0px;word-spacing:0px;writing-mode:lr-tb;text-anchor:start;white-space:pre;shape-inside:url(#rect834);fill:#000000;fill-opacity:1;stroke:none"
       id="text832"
       aria-label="&quot;
𓈌	">
      <path
         id="path840"
         d="m -135.0002,21.815715 q 0.47129,-0.992187 1.11622,-1.513085 0.66972,-0.545704 1.51308,-0.545704 1.09141,0 1.78594,0.620118 0.69453,0.620117 0.69453,1.761132 v 9.872266 l -0.42168,0.396875 h -24.82949 l -0.37207,-0.471289 v -9.872266 q 0,-1.116211 0.64492,-1.686718 0.64492,-0.595313 1.51309,-0.595313 0.39687,0 0.79375,0.173633 0.42168,0.148828 0.79375,0.446484 0.37207,0.272852 0.69453,0.644922 0.34726,0.37207 0.5705,0.768945 -0.0248,-0.148828 -0.0248,-0.272851 -0.0248,-0.124024 -0.0248,-0.248047 0,-0.124023 0,-0.223242 0,-1.637109 0.59531,-3.075781 0.62012,-1.438672 1.66191,-2.505274 1.0418,-1.066601 2.45567,-1.661914 1.43867,-0.620117 3.07578,-0.620117 1.5875,0 3.00136,0.620117 1.41387,0.595313 2.48047,1.661914 1.0666,1.041797 1.68672,2.480469 0.64492,1.413867 0.64492,3.050976 0,0.248047 0,0.396875 0,0.148829 -0.0496,0.396875 z m 4.31602,0.322461 q 0,-0.79375 -0.44648,-1.16582 -0.44649,-0.396875 -1.24024,-0.396875 -0.74414,0 -1.51308,0.79375 -0.74415,0.768945 -1.71153,2.75332 -1.01699,2.133203 -2.87734,3.423047 -1.86035,1.265039 -4.26641,1.265039 -1.53789,0 -2.70371,-0.421679 -1.14101,-0.446485 -2.00918,-1.116211 -0.86816,-0.669727 -1.46348,-1.488282 -0.59531,-0.843359 -0.99218,-1.661914 -0.94258,-1.95957 -1.88516,-2.75332 -0.91777,-0.79375 -1.56269,-0.79375 -0.54571,0 -0.96739,0.396875 -0.39687,0.37207 -0.39687,1.16582 v 9.475391 h 24.03574 z m -13.2209,-1.116211 q 0,0.42168 0.29766,0.744141 0.32246,0.297656 0.74414,0.297656 0.42168,0 0.71933,-0.297656 0.32247,-0.322461 0.32247,-0.744141 0,-0.421679 -0.32247,-0.719335 -0.29765,-0.322461 -0.71933,-0.322461 -0.42168,0 -0.74414,0.322461 -0.29766,0.297656 -0.29766,0.719335 z m -0.79375,0 q 0,-0.768945 0.5209,-1.289843 0.5457,-0.545703 1.31465,-0.545703 0.76894,0 1.28984,0.545703 0.54571,0.520898 0.54571,1.289843 0,0.768946 -0.54571,1.314649 -0.5209,0.520898 -1.28984,0.520898 -0.76895,0 -1.31465,-0.520898 -0.5209,-0.545703 -0.5209,-1.314649 z m -5.06015,0 q 0,1.463477 0.5457,2.728516 0.5457,1.265039 1.48828,2.232422 0.96738,0.942578 2.23242,1.488281 1.26504,0.545703 2.72852,0.545703 1.43867,0 2.72851,-0.545703 1.28985,-0.545703 2.23242,-1.488281 0.94258,-0.967383 1.48829,-2.232422 0.5705,-1.265039 0.5705,-2.728516 0,-1.438671 -0.5705,-2.728515 -0.54571,-1.289844 -1.48829,-2.232422 -0.94257,-0.942578 -2.23242,-1.488281 -1.28984,-0.570508 -2.72851,-0.570508 -1.46348,0 -2.72852,0.570508 -1.26504,0.545703 -2.23242,1.488281 -0.94258,0.942578 -1.48828,2.232422 -0.5457,1.289844 -0.5457,2.728515 z" />
    </g>
  </g>
</svg>
