<?xml version="1.0" encoding="UTF-8" standalone="no"?>
<!-- Created with Inkscape (http://www.inkscape.org/) -->

<svg
   xmlns:dc="http://purl.org/dc/elements/1.1/"
   xmlns:cc="http://creativecommons.org/ns#"
   xmlns:rdf="http://www.w3.org/1999/02/22-rdf-syntax-ns#"
   xmlns:svg="http://www.w3.org/2000/svg"
   xmlns="http://www.w3.org/2000/svg"
   xmlns:sodipodi="http://sodipodi.sourceforge.net/DTD/sodipodi-0.dtd"
   xmlns:inkscape="http://www.inkscape.org/namespaces/inkscape"
   width="25.623241mm"
   height="37.653515mm"
   viewBox="0 0 25.623241 37.653515"
   version="1.1"
   id="svg9007"
   inkscape:version="0.92.4 (5da689c313, 2019-01-14)"
   sodipodi:docname="N3.svg">
  <defs
     id="defs9001" />
  <sodipodi:namedview
     id="base"
     pagecolor="#ffffff"
     bordercolor="#666666"
     borderopacity="1.0"
     inkscape:pageopacity="0.0"
     inkscape:pageshadow="2"
     inkscape:zoom="0.35"
     inkscape:cx="-357.54464"
     inkscape:cy="-380.00001"
     inkscape:document-units="mm"
     inkscape:current-layer="layer1"
     showgrid="false"
     fit-margin-top="0"
     fit-margin-left="0"
     fit-margin-right="0"
     fit-margin-bottom="0"
     inkscape:window-width="1920"
     inkscape:window-height="1017"
     inkscape:window-x="-8"
     inkscape:window-y="-8"
     inkscape:window-maximized="1" />
  <metadata
     id="metadata9004">
    <rdf:RDF>
      <cc:Work
         rdf:about="">
        <dc:format>image/svg+xml</dc:format>
        <dc:type
           rdf:resource="http://purl.org/dc/dcmitype/StillImage" />
        <dc:title></dc:title>
      </cc:Work>
    </rdf:RDF>
  </metadata>
  <g
     inkscape:label="Layer 1"
     inkscape:groupmode="layer"
     id="layer1"
     transform="translate(-7.2878537,-10.638149)">
    <g
       aria-label="𓇱"
       style="font-style:normal;font-variant:normal;font-weight:normal;font-stretch:normal;font-size:50.79999924px;line-height:1.25;font-family:sans-serif;-inkscape-font-specification:'sans-serif, Normal';font-variant-ligatures:normal;font-variant-caps:normal;font-variant-numeric:normal;font-feature-settings:normal;text-align:start;letter-spacing:0px;word-spacing:0px;writing-mode:lr-tb;text-anchor:start;fill:#000000;fill-opacity:1;stroke:none;stroke-width:0.26458332"
       id="text9554">
      <path
         d="m 23.088439,25.545766 v -1.438672 h -2.38125 v 14.188281 q 1.810743,2.133203 1.810743,4.365625 0,2.852539 -2.406055,5.630664 Q 17.48258,45.364711 17.48258,42.661 q 0,-2.356445 2.00918,-4.365625 V 17.930727 h 1.215429 v 0.37207 h 2.38125 V 15.053383 H 10.686096 L 8.0071896,18.501235 7.2878537,18.178774 V 11.109438 L 7.659924,10.638149 h 24.829492 l 0.42168,0.396875 v 7.639844 l -0.744141,0.198437 -2.654102,-3.819922 H 24.303869 V 25.545766 Z M 10.462854,14.259633 h 19.223632 l 0.347266,0.148829 2.083594,3.001367 v -5.97793 H 8.0816037 v 5.680273 l 2.0587893,-2.654101 z m 12.625585,7.540625 h -2.38125 v 1.091407 h 2.38125 z m 0,-2.257226 h -2.38125 v 1.041797 h 2.38125 z m -2.976562,19.546093 q -0.446484,0.496094 -0.79375,1.066602 -0.297656,0.496093 -0.545703,1.16582 -0.223242,0.644922 -0.223242,1.364258 0,0.868164 0.248047,1.637109 0.248046,0.768945 0.545703,1.339453 0.347265,0.669727 0.79375,1.265039 0.396875,-0.669726 0.694531,-1.389062 0.272851,-0.620117 0.471289,-1.364258 0.223242,-0.768945 0.223242,-1.513086 0,-0.595312 -0.223242,-1.21543 -0.223242,-0.644921 -0.496094,-1.16582 -0.297656,-0.620117 -0.694531,-1.190625 z"
         style="stroke-width:0.26458332"
         id="path9556"
         inkscape:connector-curvature="0" />
    </g>
  </g>
</svg>
