<?xml version="1.0" encoding="UTF-8" standalone="no"?>
<!-- Created with Inkscape (http://www.inkscape.org/) -->

<svg
   xmlns:dc="http://purl.org/dc/elements/1.1/"
   xmlns:cc="http://creativecommons.org/ns#"
   xmlns:rdf="http://www.w3.org/1999/02/22-rdf-syntax-ns#"
   xmlns:svg="http://www.w3.org/2000/svg"
   xmlns="http://www.w3.org/2000/svg"
   xmlns:sodipodi="http://sodipodi.sourceforge.net/DTD/sodipodi-0.dtd"
   xmlns:inkscape="http://www.inkscape.org/namespaces/inkscape"
   width="38.000782mm"
   height="13.220899mm"
   viewBox="0 0 38.000782 13.220899"
   version="1.1"
   id="svg17381"
   inkscape:version="0.92.4 (5da689c313, 2019-01-14)"
   sodipodi:docname="N30.svg">
  <defs
     id="defs17375" />
  <sodipodi:namedview
     id="base"
     pagecolor="#ffffff"
     bordercolor="#666666"
     borderopacity="1.0"
     inkscape:pageopacity="0.0"
     inkscape:pageshadow="2"
     inkscape:zoom="0.35"
     inkscape:cx="-371.83036"
     inkscape:cy="-369.92858"
     inkscape:document-units="mm"
     inkscape:current-layer="layer1"
     showgrid="false"
     fit-margin-top="0"
     fit-margin-left="0"
     fit-margin-right="0"
     fit-margin-bottom="0"
     inkscape:window-width="1920"
     inkscape:window-height="1017"
     inkscape:window-x="-8"
     inkscape:window-y="-8"
     inkscape:window-maximized="1" />
  <metadata
     id="metadata17378">
    <rdf:RDF>
      <cc:Work
         rdf:about="">
        <dc:format>image/svg+xml</dc:format>
        <dc:type
           rdf:resource="http://purl.org/dc/dcmitype/StillImage" />
        <dc:title></dc:title>
      </cc:Work>
    </rdf:RDF>
  </metadata>
  <g
     inkscape:label="Layer 1"
     inkscape:groupmode="layer"
     id="layer1"
     transform="translate(-11.067615,-37.735497)">
    <g
       aria-label="ð“ˆ"
       style="font-style:normal;font-variant:normal;font-weight:normal;font-stretch:normal;font-size:50.79999924px;line-height:1.25;font-family:sans-serif;-inkscape-font-specification:'sans-serif, Normal';font-variant-ligatures:normal;font-variant-caps:normal;font-variant-numeric:normal;font-feature-settings:normal;text-align:start;letter-spacing:0px;word-spacing:0px;writing-mode:lr-tb;text-anchor:start;fill:#000000;fill-opacity:1;stroke:none;stroke-width:0.26458332"
       id="text17928">
      <path
         d="m 11.439686,50.956396 -0.372071,-0.471289 v -3.447852 l 0.620118,-0.396875 3.423046,1.711524 q 0.198438,-2.80293 4.564063,-5.55625 4.365625,-2.753321 7.88789,-3.026172 l -0.843359,-1.438672 0.322461,-0.595313 h 6.002734 l 0.347266,0.644922 -0.892969,1.463477 q 3.59668,0.347266 7.51582,2.728515 3.943946,2.38125 4.81211,5.010547 l 0.173632,0.768946 3.522266,-1.761133 0.545703,0.37207 v 3.59668 l -0.42168,0.396875 z m 32.816601,-1.959571 q 0,-2.802929 -4.266406,-5.481835 -4.266407,-2.703711 -7.441406,-2.951758 l -0.669727,-0.04961 -3.646289,0.02481 q -3.323828,0 -7.863086,2.728516 -4.514453,2.728515 -4.514453,5.680273 v 1.21543 h 28.401367 z m 4.018359,-1.389062 -3.224609,1.5875 v 0.967383 h 3.224609 z M 15.06117,50.162646 v -0.942578 l -3.199805,-1.612305 v 2.554883 z m 16.569531,-10.417969 0.744141,-1.21543 H 27.76117 l 0.719336,1.21543 z"
         style="stroke-width:0.26458332"
         id="path17930"
         inkscape:connector-curvature="0" />
    </g>
  </g>
</svg>
