<?xml version="1.0" encoding="UTF-8" standalone="no"?>
<!-- Created with Inkscape (http://www.inkscape.org/) -->

<svg
   xmlns:dc="http://purl.org/dc/elements/1.1/"
   xmlns:cc="http://creativecommons.org/ns#"
   xmlns:rdf="http://www.w3.org/1999/02/22-rdf-syntax-ns#"
   xmlns:svg="http://www.w3.org/2000/svg"
   xmlns="http://www.w3.org/2000/svg"
   xmlns:sodipodi="http://sodipodi.sourceforge.net/DTD/sodipodi-0.dtd"
   xmlns:inkscape="http://www.inkscape.org/namespaces/inkscape"
   width="37.207031mm"
   height="17.586521mm"
   viewBox="0 0 37.207031 17.586521"
   version="1.1"
   id="svg11785"
   inkscape:version="0.92.4 (5da689c313, 2019-01-14)"
   sodipodi:docname="N31.svg">
  <defs
     id="defs11779" />
  <sodipodi:namedview
     id="base"
     pagecolor="#ffffff"
     bordercolor="#666666"
     borderopacity="1.0"
     inkscape:pageopacity="0.0"
     inkscape:pageshadow="2"
     inkscape:zoom="0.35"
     inkscape:cx="465.31245"
     inkscape:cy="-175.64286"
     inkscape:document-units="mm"
     inkscape:current-layer="layer1"
     showgrid="false"
     fit-margin-top="0"
     fit-margin-left="0"
     fit-margin-right="0"
     fit-margin-bottom="0"
     inkscape:window-width="1920"
     inkscape:window-height="1017"
     inkscape:window-x="-8"
     inkscape:window-y="-8"
     inkscape:window-maximized="1" />
  <metadata
     id="metadata11782">
    <rdf:RDF>
      <cc:Work
         rdf:about="">
        <dc:format>image/svg+xml</dc:format>
        <dc:type
           rdf:resource="http://purl.org/dc/dcmitype/StillImage" />
        <dc:title></dc:title>
      </cc:Work>
    </rdf:RDF>
  </metadata>
  <g
     inkscape:label="Layer 1"
     inkscape:groupmode="layer"
     id="layer1"
     transform="translate(210.42642,-84.774639)">
    <g
       aria-label="ð“ˆ"
       style="font-style:normal;font-variant:normal;font-weight:normal;font-stretch:normal;font-size:50.79999924px;line-height:1.25;font-family:sans-serif;-inkscape-font-specification:sans-serif;font-variant-ligatures:normal;font-variant-caps:normal;font-variant-numeric:normal;font-feature-settings:normal;text-align:start;letter-spacing:0px;word-spacing:0px;writing-mode:lr-tb;text-anchor:start;fill:#000000;fill-opacity:1;stroke:none;stroke-width:0.26458332"
       id="text12332">
      <path
         d="m -173.21939,90.355693 h -1.71152 q -0.47129,0.471289 -0.81856,1.016992 -0.32246,0.471289 -0.57051,1.091407 -0.24804,0.595312 -0.24804,1.240234 0,0.644922 0.24804,1.21543 0.24805,0.545703 0.54571,0.967382 0.34726,0.47129 0.81855,0.868165 h 1.73633 v 0.793749 h -17.38809 l 1.78594,4.291208 -0.39687,0.5209 h -6.00274 l -0.32246,-0.59531 1.73633,-4.216798 h -16.61914 v -0.793749 h 1.78594 q 0.44648,-0.396875 0.79375,-0.868165 0.29765,-0.421679 0.5457,-0.967382 0.24805,-0.570508 0.24805,-1.21543 0,-0.644922 -0.27286,-1.240234 -0.24804,-0.620118 -0.5457,-1.091407 -0.34726,-0.545703 -0.79375,-1.016992 h -1.76113 v -0.79375 h 5.77949 l -2.1084,-4.191992 0.32246,-0.595312 h 6.39961 l 0.39688,0.520898 -2.13321,4.266406 h 19.12442 l -2.1084,-4.191992 0.32246,-0.595312 h 6.39961 l 0.39687,0.520898 -2.1332,4.266406 h 6.54844 z m -2.72852,6.39961 q -0.39687,-0.322461 -0.69453,-0.768946 -0.27285,-0.396875 -0.49609,-0.967383 -0.19844,-0.570507 -0.19844,-1.314648 0,-0.744141 0.19844,-1.339453 0.22324,-0.620117 0.49609,-1.066602 0.29766,-0.520898 0.69453,-0.942578 h -31.75 q 0.39688,0.42168 0.71934,0.942578 0.27285,0.446485 0.49609,1.066602 0.24805,0.595312 0.24805,1.339453 0,0.744141 -0.22324,1.314648 -0.19844,0.570508 -0.47129,0.967383 -0.29766,0.446485 -0.69453,0.768946 z m -13.84101,4.812107 -1.68672,-4.018358 h -1.46348 l -1.66191,4.018358 z m 6.02754,-15.999021 2.00918,3.993554 h 1.11621 l 1.98437,-3.993554 z m -22.00176,0 2.00918,3.993554 h 1.11621 l 1.98437,-3.993554 z"
         style="stroke-width:0.26458332"
         id="path12334"
         inkscape:connector-curvature="0" />
    </g>
  </g>
</svg>
