<?xml version="1.0" encoding="UTF-8" standalone="no"?>
<svg
   xmlns:dc="http://purl.org/dc/elements/1.1/"
   xmlns:cc="http://creativecommons.org/ns#"
   xmlns:rdf="http://www.w3.org/1999/02/22-rdf-syntax-ns#"
   xmlns:svg="http://www.w3.org/2000/svg"
   xmlns="http://www.w3.org/2000/svg"
   xmlns:sodipodi="http://sodipodi.sourceforge.net/DTD/sodipodi-0.dtd"
   xmlns:inkscape="http://www.inkscape.org/namespaces/inkscape"
   inkscape:version="1.0 (4035a4fb49, 2020-05-01)"
   sodipodi:docname="N33B.svg"
   id="svg8"
   version="1.1"
   viewBox="0 0 10.864453 65.137108"
   height="65.137108mm"
   width="10.864453mm">
  <defs
     id="defs2" />
  <sodipodi:namedview
     inkscape:window-maximized="1"
     inkscape:window-y="-8"
     inkscape:window-x="-8"
     inkscape:window-height="1017"
     inkscape:window-width="1920"
     fit-margin-bottom="0"
     fit-margin-right="0"
     fit-margin-left="0"
     fit-margin-top="0"
     showgrid="false"
     inkscape:document-rotation="0"
     inkscape:current-layer="layer1"
     inkscape:document-units="mm"
     inkscape:cy="236.82892"
     inkscape:cx="246.24554"
     inkscape:zoom="0.82"
     inkscape:pageshadow="2"
     inkscape:pageopacity="0.0"
     borderopacity="1.0"
     bordercolor="#666666"
     pagecolor="#ffffff"
     id="base" />
  <metadata
     id="metadata5">
    <rdf:RDF>
      <cc:Work
         rdf:about="">
        <dc:format>image/svg+xml</dc:format>
        <dc:type
           rdf:resource="http://purl.org/dc/dcmitype/StillImage" />
        <dc:title></dc:title>
      </cc:Work>
    </rdf:RDF>
  </metadata>
  <g
     transform="translate(-40.680868,-65.705263)"
     id="layer1"
     inkscape:groupmode="layer"
     inkscape:label="Layer 1">
    <g
       transform="rotate(-90,-7.1815443,221.87203)"
       id="g849">
      <g
         id="text19044-5"
         style="font-style:normal;font-variant:normal;font-weight:normal;font-stretch:normal;font-size:50.8px;line-height:1.25;font-family:sans-serif;-inkscape-font-specification:'sans-serif, Normal';font-variant-ligatures:normal;font-variant-caps:normal;font-variant-numeric:normal;font-feature-settings:normal;text-align:start;letter-spacing:0px;word-spacing:0px;writing-mode:lr-tb;text-anchor:start;fill:#000000;fill-opacity:1;stroke:none;stroke-width:0.264583"
         aria-label="𓈓"
         transform="translate(86.38764,244.00559)">
        <path
           inkscape:connector-curvature="0"
           id="path19046-9"
           style="stroke-width:0.264583"
           d="m 8.3249255,31.161079 c 0,1.488281 -0.5374349,2.769857 -1.6123046,3.844726 -1.0583333,1.058333 -2.3316406,1.5875 -3.8199219,1.5875 -1.4882812,0 -2.76985669,-0.529167 -3.84472646,-1.5875 -1.05833334,-1.074869 -1.58749994,-2.356445 -1.58749994,-3.844726 0,-1.488281 0.5291666,-2.761589 1.58749994,-3.819922 1.07486977,-1.07487 2.35644526,-1.612305 3.84472646,-1.612305 1.4882813,0 2.7615886,0.537435 3.8199219,1.612305 1.0748697,1.058333 1.6123046,2.331641 1.6123046,3.819922 z m -0.79375,0 c 0,-1.289844 -0.4547526,-2.38125 -1.3642578,-3.274219 -0.8929687,-0.909505 -1.984375,-1.364258 -3.2742187,-1.364258 -1.2898437,0 -2.38951815,0.454753 -3.29902334,1.364258 -0.89296866,0.892969 -1.33945306,1.984375 -1.33945306,3.274219 0,1.289843 0.4464844,2.389518 1.33945306,3.299023 0.90950519,0.892969 2.00917964,1.339453 3.29902334,1.339453 1.2898437,0 2.38125,-0.446484 3.2742187,-1.339453 0.9095052,-0.909505 1.3642578,-2.00918 1.3642578,-3.299023 z m 27.9300775,0 c 0,1.488281 -0.537435,2.769857 -1.612304,3.844726 -1.058333,1.058333 -2.331641,1.5875 -3.819922,1.5875 -1.488281,0 -2.769857,-0.529167 -3.844727,-1.5875 -1.058333,-1.074869 -1.5875,-2.356445 -1.5875,-3.844726 0,-1.488281 0.529167,-2.761589 1.5875,-3.819922 1.07487,-1.07487 2.356446,-1.612305 3.844727,-1.612305 1.488281,0 2.761589,0.537435 3.819922,1.612305 1.074869,1.058333 1.612304,2.331641 1.612304,3.819922 z m -0.79375,0 c 0,-1.289844 -0.454753,-2.38125 -1.364258,-3.274219 -0.892969,-0.909505 -1.984375,-1.364258 -3.274218,-1.364258 -1.289844,0 -2.389519,0.454753 -3.299024,1.364258 -0.892969,0.892969 -1.339453,1.984375 -1.339453,3.274219 0,1.289843 0.446484,2.389518 1.339453,3.299023 0.909505,0.892969 2.00918,1.339453 3.299024,1.339453 1.289843,0 2.381249,-0.446484 3.274218,-1.339453 0.909505,-0.909505 1.364258,-2.00918 1.364258,-3.299023 z"
           sodipodi:nodetypes="ssscssscsscssscsssssscssscsscssscsss" />
      </g>
      <g
         id="text19044-3"
         style="font-style:normal;font-variant:normal;font-weight:normal;font-stretch:normal;font-size:50.8px;line-height:1.25;font-family:sans-serif;-inkscape-font-specification:'sans-serif, Normal';font-variant-ligatures:normal;font-variant-caps:normal;font-variant-numeric:normal;font-feature-settings:normal;text-align:start;letter-spacing:0px;word-spacing:0px;writing-mode:lr-tb;text-anchor:start;fill:#000000;fill-opacity:1;stroke:none;stroke-width:0.264583"
         aria-label="𓈓"
         transform="translate(113.52397,244.00559)">
        <path
           inkscape:connector-curvature="0"
           id="path19046-7"
           style="stroke-width:0.264583"
           d="m 35.461253,31.161079 c 0,1.488281 -0.537435,2.769857 -1.612304,3.844726 -1.058333,1.058333 -2.331641,1.5875 -3.819922,1.5875 -1.488281,0 -2.769857,-0.529167 -3.844727,-1.5875 -1.058333,-1.074869 -1.5875,-2.356445 -1.5875,-3.844726 0,-1.488281 0.529167,-2.761589 1.5875,-3.819922 1.07487,-1.07487 2.356446,-1.612305 3.844727,-1.612305 1.488281,0 2.761589,0.537435 3.819922,1.612305 1.074869,1.058333 1.612304,2.331641 1.612304,3.819922 z m -0.79375,0 c 0,-1.289844 -0.454753,-2.38125 -1.364258,-3.274219 -0.892969,-0.909505 -1.984375,-1.364258 -3.274218,-1.364258 -1.289844,0 -2.389519,0.454753 -3.299024,1.364258 -0.892969,0.892969 -1.339453,1.984375 -1.339453,3.274219 0,1.289843 0.446484,2.389518 1.339453,3.299023 0.909505,0.892969 2.00918,1.339453 3.299024,1.339453 1.289843,0 2.381249,-0.446484 3.274218,-1.339453 0.909505,-0.909505 1.364258,-2.00918 1.364258,-3.299023 z"
           sodipodi:nodetypes="ssscssscsscssscsss" />
      </g>
    </g>
  </g>
</svg>
