<?xml version="1.0" encoding="UTF-8" standalone="no"?>
<!-- Created with Inkscape (http://www.inkscape.org/) -->

<svg
   xmlns:dc="http://purl.org/dc/elements/1.1/"
   xmlns:cc="http://creativecommons.org/ns#"
   xmlns:rdf="http://www.w3.org/1999/02/22-rdf-syntax-ns#"
   xmlns:svg="http://www.w3.org/2000/svg"
   xmlns="http://www.w3.org/2000/svg"
   xmlns:sodipodi="http://sodipodi.sourceforge.net/DTD/sodipodi-0.dtd"
   xmlns:inkscape="http://www.inkscape.org/namespaces/inkscape"
   width="10.864453mm"
   height="51.568943mm"
   viewBox="0 0 10.864453 51.568942"
   version="1.1"
   id="svg18497"
   inkscape:version="0.92.4 (5da689c313, 2019-01-14)"
   sodipodi:docname="N33C.svg">
  <defs
     id="defs18491" />
  <sodipodi:namedview
     id="base"
     pagecolor="#ffffff"
     bordercolor="#666666"
     borderopacity="1.0"
     inkscape:pageopacity="0.0"
     inkscape:pageshadow="2"
     inkscape:zoom="1.979899"
     inkscape:cx="-180.48126"
     inkscape:cy="39.28703"
     inkscape:document-units="mm"
     inkscape:current-layer="layer1"
     showgrid="false"
     fit-margin-top="0"
     fit-margin-left="0"
     fit-margin-right="0"
     fit-margin-bottom="0"
     inkscape:window-width="1920"
     inkscape:window-height="1017"
     inkscape:window-x="-8"
     inkscape:window-y="-8"
     inkscape:window-maximized="1" />
  <metadata
     id="metadata18494">
    <rdf:RDF>
      <cc:Work
         rdf:about="">
        <dc:format>image/svg+xml</dc:format>
        <dc:type
           rdf:resource="http://purl.org/dc/dcmitype/StillImage" />
        <dc:title></dc:title>
      </cc:Work>
    </rdf:RDF>
  </metadata>
  <g
     inkscape:label="Layer 1"
     inkscape:groupmode="layer"
     id="layer1"
     transform="translate(-11.028636,-12.160689)">
    <g
       aria-label="𓈓"
       style="font-style:normal;font-variant:normal;font-weight:normal;font-stretch:normal;font-size:50.79999924px;line-height:1.25;font-family:sans-serif;-inkscape-font-specification:'sans-serif, Normal';font-variant-ligatures:normal;font-variant-caps:normal;font-variant-numeric:normal;font-feature-settings:normal;text-align:start;letter-spacing:0px;word-spacing:0px;writing-mode:lr-tb;text-anchor:start;fill:#000000;fill-opacity:1;stroke:none;stroke-width:0.26458332"
       id="text19044"
       transform="rotate(-90,16.460863,31.161079)">
      <path
         d="m 8.3249255,31.161079 q 0,2.232422 -1.6123046,3.844726 -1.5875,1.5875 -3.8199219,1.5875 -2.2324218,0 -3.84472646,-1.5875 -1.58749994,-1.612304 -1.58749994,-3.844726 0,-2.232422 1.58749994,-3.819922 1.61230466,-1.612305 3.84472646,-1.612305 2.2324219,0 3.8199219,1.612305 1.6123046,1.5875 1.6123046,3.819922 z m -0.79375,0 q 0,-1.934766 -1.3642578,-3.274219 -1.3394531,-1.364258 -3.2742187,-1.364258 -1.93476555,0 -3.29902334,1.364258 -1.33945306,1.339453 -1.33945306,3.274219 0,1.934765 1.33945306,3.299023 1.36425779,1.339453 3.29902334,1.339453 1.9347656,0 3.2742187,-1.339453 1.3642578,-1.364258 1.3642578,-3.299023 z m 14.3619135,0 q 0,2.232422 -1.612304,3.844726 -1.5875,1.5875 -3.819922,1.5875 -2.232422,0 -3.844727,-1.5875 -1.5875,-1.612304 -1.5875,-3.844726 0,-2.232422 1.5875,-3.819922 1.612305,-1.612305 3.844727,-1.612305 2.232422,0 3.819922,1.612305 1.612304,1.5875 1.612304,3.819922 z m -0.79375,0 q 0,-1.934766 -1.364257,-3.274219 -1.339453,-1.364258 -3.274219,-1.364258 -1.934766,0 -3.299023,1.364258 -1.339454,1.339453 -1.339454,3.274219 0,1.934765 1.339454,3.299023 1.364257,1.339453 3.299023,1.339453 1.934766,0 3.274219,-1.339453 1.364257,-1.364258 1.364257,-3.299023 z m 14.361914,0 q 0,2.232422 -1.612304,3.844726 -1.5875,1.5875 -3.819922,1.5875 -2.232422,0 -3.844727,-1.5875 -1.5875,-1.612304 -1.5875,-3.844726 0,-2.232422 1.5875,-3.819922 1.612305,-1.612305 3.844727,-1.612305 2.232422,0 3.819922,1.612305 1.612304,1.5875 1.612304,3.819922 z m -0.79375,0 q 0,-1.934766 -1.364258,-3.274219 -1.339453,-1.364258 -3.274218,-1.364258 -1.934766,0 -3.299024,1.364258 -1.339453,1.339453 -1.339453,3.274219 0,1.934765 1.339453,3.299023 1.364258,1.339453 3.299024,1.339453 1.934765,0 3.274218,-1.339453 1.364258,-1.364258 1.364258,-3.299023 z"
         style="stroke-width:0.26458332"
         id="path19046"
         inkscape:connector-curvature="0" />
    </g>
    <g
       aria-label="𓈓"
       style="font-style:normal;font-variant:normal;font-weight:normal;font-stretch:normal;font-size:50.79999924px;line-height:1.25;font-family:sans-serif;-inkscape-font-specification:'sans-serif, Normal';font-variant-ligatures:normal;font-variant-caps:normal;font-variant-numeric:normal;font-feature-settings:normal;text-align:start;letter-spacing:0px;word-spacing:0px;writing-mode:lr-tb;text-anchor:start;fill:#000000;fill-opacity:1;stroke:none;stroke-width:0.26458332"
       id="text19044-2"
       transform="rotate(-90,23.244945,37.945161)">
      <path
         d="m 8.3249255,31.161079 q 0,2.232422 -1.6123046,3.844726 -1.5875,1.5875 -3.8199219,1.5875 -2.2324218,0 -3.84472646,-1.5875 -1.58749994,-1.612304 -1.58749994,-3.844726 0,-2.232422 1.58749994,-3.819922 1.61230466,-1.612305 3.84472646,-1.612305 2.2324219,0 3.8199219,1.612305 1.6123046,1.5875 1.6123046,3.819922 z m -0.79375,0 q 0,-1.934766 -1.3642578,-3.274219 -1.3394531,-1.364258 -3.2742187,-1.364258 -1.93476555,0 -3.29902334,1.364258 -1.33945306,1.339453 -1.33945306,3.274219 0,1.934765 1.33945306,3.299023 1.36425779,1.339453 3.29902334,1.339453 1.9347656,0 3.2742187,-1.339453 1.3642578,-1.364258 1.3642578,-3.299023 z m 14.3619135,0 q 0,2.232422 -1.612304,3.844726 -1.5875,1.5875 -3.819922,1.5875 -2.232422,0 -3.844727,-1.5875 -1.5875,-1.612304 -1.5875,-3.844726 0,-2.232422 1.5875,-3.819922 1.612305,-1.612305 3.844727,-1.612305 2.232422,0 3.819922,1.612305 1.612304,1.5875 1.612304,3.819922 z m -0.79375,0 q 0,-1.934766 -1.364257,-3.274219 -1.339453,-1.364258 -3.274219,-1.364258 -1.934766,0 -3.299023,1.364258 -1.339454,1.339453 -1.339454,3.274219 0,1.934765 1.339454,3.299023 1.364257,1.339453 3.299023,1.339453 1.934766,0 3.274219,-1.339453 1.364257,-1.364258 1.364257,-3.299023 z m 14.361914,0 q 0,2.232422 -1.612304,3.844726 -1.5875,1.5875 -3.819922,1.5875 -2.232422,0 -3.844727,-1.5875 -1.5875,-1.612304 -1.5875,-3.844726 0,-2.232422 1.5875,-3.819922 1.612305,-1.612305 3.844727,-1.612305 2.232422,0 3.819922,1.612305 1.612304,1.5875 1.612304,3.819922 z m -0.79375,0 q 0,-1.934766 -1.364258,-3.274219 -1.339453,-1.364258 -3.274218,-1.364258 -1.934766,0 -3.299024,1.364258 -1.339453,1.339453 -1.339453,3.274219 0,1.934765 1.339453,3.299023 1.364258,1.339453 3.299024,1.339453 1.934765,0 3.274218,-1.339453 1.364258,-1.364258 1.364258,-3.299023 z"
         style="stroke-width:0.26458332"
         id="path19046-5"
         inkscape:connector-curvature="0" />
    </g>
  </g>
</svg>
