<?xml version="1.0" encoding="UTF-8" standalone="no"?>
<!-- Created with Inkscape (http://www.inkscape.org/) -->

<svg
   xmlns:dc="http://purl.org/dc/elements/1.1/"
   xmlns:cc="http://creativecommons.org/ns#"
   xmlns:rdf="http://www.w3.org/1999/02/22-rdf-syntax-ns#"
   xmlns:svg="http://www.w3.org/2000/svg"
   xmlns="http://www.w3.org/2000/svg"
   xmlns:sodipodi="http://sodipodi.sourceforge.net/DTD/sodipodi-0.dtd"
   xmlns:inkscape="http://www.inkscape.org/namespaces/inkscape"
   width="24.432617mm"
   height="38.000782mm"
   viewBox="0 0 24.432616 38.000781"
   version="1.1"
   id="svg18497"
   inkscape:version="0.92.4 (5da689c313, 2019-01-14)"
   sodipodi:docname="N33D.svg">
  <defs
     id="defs18491" />
  <sodipodi:namedview
     id="base"
     pagecolor="#ffffff"
     bordercolor="#666666"
     borderopacity="1.0"
     inkscape:pageopacity="0.0"
     inkscape:pageshadow="2"
     inkscape:zoom="1.979899"
     inkscape:cx="271.0872"
     inkscape:cy="39.287035"
     inkscape:document-units="mm"
     inkscape:current-layer="layer1"
     showgrid="false"
     fit-margin-top="0"
     fit-margin-left="0"
     fit-margin-right="0"
     fit-margin-bottom="0"
     inkscape:window-width="1920"
     inkscape:window-height="1017"
     inkscape:window-x="-8"
     inkscape:window-y="-8"
     inkscape:window-maximized="1" />
  <metadata
     id="metadata18494">
    <rdf:RDF>
      <cc:Work
         rdf:about="">
        <dc:format>image/svg+xml</dc:format>
        <dc:type
           rdf:resource="http://purl.org/dc/dcmitype/StillImage" />
        <dc:title></dc:title>
      </cc:Work>
    </rdf:RDF>
  </metadata>
  <g
     inkscape:label="Layer 1"
     inkscape:groupmode="layer"
     id="layer1"
     transform="translate(2.5395274,-25.728852)">
    <g
       aria-label="𓈓"
       style="font-style:normal;font-variant:normal;font-weight:normal;font-stretch:normal;font-size:50.79999924px;line-height:1.25;font-family:sans-serif;-inkscape-font-specification:'sans-serif, Normal';font-variant-ligatures:normal;font-variant-caps:normal;font-variant-numeric:normal;font-feature-settings:normal;text-align:start;letter-spacing:0px;word-spacing:0px;writing-mode:lr-tb;text-anchor:start;fill:#000000;fill-opacity:1;stroke:none;stroke-width:0.26458332"
       id="text19044">
      <path
         d="m 8.3249255,31.161079 c 0,1.488281 -0.5374349,2.769857 -1.6123046,3.844726 -1.0583333,1.058333 -2.3316406,1.5875 -3.8199219,1.5875 -1.4882812,0 -2.76985669,-0.529167 -3.84472646,-1.5875 -1.05833334,-1.074869 -1.58749994,-2.356445 -1.58749994,-3.844726 0,-1.488281 0.5291666,-2.761589 1.58749994,-3.819922 1.07486977,-1.07487 2.35644526,-1.612305 3.84472646,-1.612305 1.4882813,0 2.7615886,0.537435 3.8199219,1.612305 1.0748697,1.058333 1.6123046,2.331641 1.6123046,3.819922 z m -0.79375,0 c 0,-1.289844 -0.4547526,-2.38125 -1.3642578,-3.274219 -0.8929687,-0.909505 -1.984375,-1.364258 -3.2742187,-1.364258 -1.2898437,0 -2.38951815,0.454753 -3.29902334,1.364258 -0.89296866,0.892969 -1.33945306,1.984375 -1.33945306,3.274219 0,1.289843 0.4464844,2.389518 1.33945306,3.299023 0.90950519,0.892969 2.00917964,1.339453 3.29902334,1.339453 1.2898437,0 2.38125,-0.446484 3.2742187,-1.339453 0.9095052,-0.909505 1.3642578,-2.00918 1.3642578,-3.299023 z m 14.3619135,0 c 0,1.488281 -0.537435,2.769857 -1.612304,3.844726 -1.058333,1.058333 -2.331641,1.5875 -3.819922,1.5875 -1.488281,0 -2.769857,-0.529167 -3.844727,-1.5875 -1.058333,-1.074869 -1.5875,-2.356445 -1.5875,-3.844726 0,-1.488281 0.529167,-2.761589 1.5875,-3.819922 1.07487,-1.07487 2.356446,-1.612305 3.844727,-1.612305 1.488281,0 2.761589,0.537435 3.819922,1.612305 1.074869,1.058333 1.612304,2.331641 1.612304,3.819922 z m -0.79375,0 c 0,-1.289844 -0.454752,-2.38125 -1.364257,-3.274219 -0.892969,-0.909505 -1.984375,-1.364258 -3.274219,-1.364258 -1.289844,0 -2.389518,0.454753 -3.299023,1.364258 -0.892969,0.892969 -1.339454,1.984375 -1.339454,3.274219 0,1.289843 0.446485,2.389518 1.339454,3.299023 0.909505,0.892969 2.009179,1.339453 3.299023,1.339453 1.289844,0 2.38125,-0.446484 3.274219,-1.339453 0.909505,-0.909505 1.364257,-2.00918 1.364257,-3.299023 z"
         style="stroke-width:0.26458332"
         id="path19046"
         inkscape:connector-curvature="0"
         sodipodi:nodetypes="ssscssscsscssscsssssscssscsscssscsss" />
    </g>
    <g
       aria-label="𓈓"
       style="font-style:normal;font-variant:normal;font-weight:normal;font-stretch:normal;font-size:50.79999924px;line-height:1.25;font-family:sans-serif;-inkscape-font-specification:'sans-serif, Normal';font-variant-ligatures:normal;font-variant-caps:normal;font-variant-numeric:normal;font-feature-settings:normal;text-align:start;letter-spacing:0px;word-spacing:0px;writing-mode:lr-tb;text-anchor:start;fill:#000000;fill-opacity:1;stroke:none;stroke-width:0.26458332"
       id="text19044-2"
       transform="rotate(-90,19.872183,41.317923)">
      <path
         d="m 8.3249255,31.161079 c 0,1.488281 -0.5374349,2.769857 -1.6123046,3.844726 -1.0583333,1.058333 -2.3316406,1.5875 -3.8199219,1.5875 -1.4882812,0 -2.76985669,-0.529167 -3.84472646,-1.5875 -1.05833334,-1.074869 -1.58749994,-2.356445 -1.58749994,-3.844726 0,-1.488281 0.5291666,-2.761589 1.58749994,-3.819922 1.07486977,-1.07487 2.35644526,-1.612305 3.84472646,-1.612305 1.4882813,0 2.7615886,0.537435 3.8199219,1.612305 1.0748697,1.058333 1.6123046,2.331641 1.6123046,3.819922 z m -0.79375,0 c 0,-1.289844 -0.4547526,-2.38125 -1.3642578,-3.274219 -0.8929687,-0.909505 -1.984375,-1.364258 -3.2742187,-1.364258 -1.2898437,0 -2.38951815,0.454753 -3.29902334,1.364258 -0.89296866,0.892969 -1.33945306,1.984375 -1.33945306,3.274219 0,1.289843 0.4464844,2.389518 1.33945306,3.299023 0.90950519,0.892969 2.00917964,1.339453 3.29902334,1.339453 1.2898437,0 2.38125,-0.446484 3.2742187,-1.339453 0.9095052,-0.909505 1.3642578,-2.00918 1.3642578,-3.299023 z"
         style="stroke-width:0.26458332"
         id="path19046-5"
         inkscape:connector-curvature="0"
         sodipodi:nodetypes="ssscssscsscssscsss" />
    </g>
  </g>
</svg>
