<?xml version="1.0" encoding="UTF-8" standalone="no"?>
<!-- Created with Inkscape (http://www.inkscape.org/) -->

<svg
   xmlns:dc="http://purl.org/dc/elements/1.1/"
   xmlns:cc="http://creativecommons.org/ns#"
   xmlns:rdf="http://www.w3.org/1999/02/22-rdf-syntax-ns#"
   xmlns:svg="http://www.w3.org/2000/svg"
   xmlns="http://www.w3.org/2000/svg"
   xmlns:sodipodi="http://sodipodi.sourceforge.net/DTD/sodipodi-0.dtd"
   xmlns:inkscape="http://www.inkscape.org/namespaces/inkscape"
   width="21.257618mm"
   height="19.42207mm"
   viewBox="0 0 21.257618 19.42207"
   version="1.1"
   id="svg19055"
   inkscape:version="0.92.4 (5da689c313, 2019-01-14)"
   sodipodi:docname="N34.svg">
  <defs
     id="defs19049" />
  <sodipodi:namedview
     id="base"
     pagecolor="#ffffff"
     bordercolor="#666666"
     borderopacity="1.0"
     inkscape:pageopacity="0.0"
     inkscape:pageshadow="2"
     inkscape:zoom="0.35"
     inkscape:cx="-383.25893"
     inkscape:cy="-421.35716"
     inkscape:document-units="mm"
     inkscape:current-layer="layer1"
     showgrid="false"
     fit-margin-top="0"
     fit-margin-left="0"
     fit-margin-right="0"
     fit-margin-bottom="0"
     inkscape:window-width="1920"
     inkscape:window-height="1017"
     inkscape:window-x="-8"
     inkscape:window-y="-8"
     inkscape:window-maximized="1" />
  <metadata
     id="metadata19052">
    <rdf:RDF>
      <cc:Work
         rdf:about="">
        <dc:format>image/svg+xml</dc:format>
        <dc:type
           rdf:resource="http://purl.org/dc/dcmitype/StillImage" />
        <dc:title></dc:title>
      </cc:Work>
    </rdf:RDF>
  </metadata>
  <g
     inkscape:label="Layer 1"
     inkscape:groupmode="layer"
     id="layer1"
     transform="translate(-14.091426,-17.927182)">
    <g
       aria-label="𓈔"
       style="font-style:normal;font-variant:normal;font-weight:normal;font-stretch:normal;font-size:50.79999924px;line-height:1.25;font-family:sans-serif;-inkscape-font-specification:'sans-serif, Normal';font-variant-ligatures:normal;font-variant-caps:normal;font-variant-numeric:normal;font-feature-settings:normal;text-align:start;letter-spacing:0px;word-spacing:0px;writing-mode:lr-tb;text-anchor:start;fill:#000000;fill-opacity:1;stroke:none;stroke-width:0.26458332"
       id="text19602">
      <path
         d="m 22.921894,17.927182 h 11.906249 l 0.42168,0.396875 q 0,1.463477 0.04961,2.926953 0.04961,1.438672 0.04961,2.902149 0,6.920507 -2.058789,10.070703 -2.058789,3.12539 -6.746875,3.12539 -1.562695,0 -4.514453,-0.669726 -2.951758,-0.694531 -7.9375,-2.926953 l 0.124023,-0.768946 1.513086,-0.09922 q 2.728516,-0.173633 4.7625,-2.753321 2.058789,-2.604492 2.058789,-11.732617 z m 0.421679,0.79375 q 0,6.126758 -0.818554,8.880078 -0.818555,2.728516 -2.406055,4.191992 -1.562695,1.463477 -4.291211,1.860352 2.38125,1.141016 5.55625,2.033984 3.175,0.868164 5.159375,0.868164 4.216797,0 6.101953,-2.802929 1.885156,-2.80293 1.885156,-9.500195 0,-1.413868 -0.04961,-2.753321 -0.0248,-1.364258 -0.0248,-2.778125 z"
         style="stroke-width:0.26458332"
         id="path19604"
         inkscape:connector-curvature="0" />
    </g>
  </g>
</svg>
