<?xml version="1.0" encoding="UTF-8" standalone="no"?>
<!-- Created with Inkscape (http://www.inkscape.org/) -->

<svg
   xmlns:dc="http://purl.org/dc/elements/1.1/"
   xmlns:cc="http://creativecommons.org/ns#"
   xmlns:rdf="http://www.w3.org/1999/02/22-rdf-syntax-ns#"
   xmlns:svg="http://www.w3.org/2000/svg"
   xmlns="http://www.w3.org/2000/svg"
   xmlns:sodipodi="http://sodipodi.sourceforge.net/DTD/sodipodi-0.dtd"
   xmlns:inkscape="http://www.inkscape.org/namespaces/inkscape"
   width="21.158398mm"
   height="19.42207mm"
   viewBox="0 0 21.158398 19.42207"
   version="1.1"
   id="svg12901"
   inkscape:version="0.92.4 (5da689c313, 2019-01-14)"
   sodipodi:docname="N34A.svg">
  <defs
     id="defs12895" />
  <sodipodi:namedview
     id="base"
     pagecolor="#ffffff"
     bordercolor="#666666"
     borderopacity="1.0"
     inkscape:pageopacity="0.0"
     inkscape:pageshadow="2"
     inkscape:zoom="0.35"
     inkscape:cx="-368.97321"
     inkscape:cy="-347.07143"
     inkscape:document-units="mm"
     inkscape:current-layer="layer1"
     showgrid="false"
     fit-margin-top="0"
     fit-margin-left="0"
     fit-margin-right="0"
     fit-margin-bottom="0"
     inkscape:window-width="1920"
     inkscape:window-height="1017"
     inkscape:window-x="-8"
     inkscape:window-y="-8"
     inkscape:window-maximized="1" />
  <metadata
     id="metadata12898">
    <rdf:RDF>
      <cc:Work
         rdf:about="">
        <dc:format>image/svg+xml</dc:format>
        <dc:type
           rdf:resource="http://purl.org/dc/dcmitype/StillImage" />
        <dc:title></dc:title>
      </cc:Work>
    </rdf:RDF>
  </metadata>
  <g
     inkscape:label="Layer 1"
     inkscape:groupmode="layer"
     id="layer1"
     transform="translate(-10.311663,-37.581948)">
    <g
       aria-label="𓈕"
       style="font-style:normal;font-variant:normal;font-weight:normal;font-stretch:normal;font-size:50.79999924px;line-height:1.25;font-family:sans-serif;-inkscape-font-specification:sans-serif;font-variant-ligatures:normal;font-variant-caps:normal;font-variant-numeric:normal;font-feature-settings:normal;text-align:start;letter-spacing:0px;word-spacing:0px;writing-mode:lr-tb;text-anchor:start;fill:#000000;fill-opacity:1;stroke:none;stroke-width:0.26458332"
       id="text13448">
      <path
         d="m 17.405803,37.581948 h 13.642578 l 0.42168,0.396875 -0.09922,4.365625 q -0.04961,2.530078 -0.942578,6.225977 -0.892969,3.671093 -2.38125,5.233789 -1.488281,1.562695 -3.199805,2.38125 -1.686718,0.818554 -5.655468,0.818554 l -2.306836,-0.0248 q -0.967383,0 -1.934766,-0.02481 -1.116211,0 -1.885156,-0.02481 -0.768945,-0.0248 -1.339453,-0.0248 -0.644922,0 -1.289844,-0.02481 L 10.311663,56.11105 q 2.554882,-0.818555 4.365625,-2.182813 1.835546,-1.364258 2.604492,-2.852539 0.79375,-1.513086 0.79375,-3.671094 0,-1.562695 -0.223242,-4.191992 -0.223243,-2.629296 -0.818555,-5.159375 z m 0.496094,0.79375 q 0.520898,2.554883 0.744141,4.960938 0.223242,2.406054 0.223242,4.167187 v 0.396875 q -0.04961,2.331641 -0.967383,3.646289 -0.892969,1.289844 -2.00918,2.356446 -1.116211,1.066601 -3.447851,2.232421 h 1.091406 l 2.133203,0.02481 q 0.545703,0 1.21543,0.02481 0.719336,0 1.389062,0.0248 0.694531,0.02481 1.265039,0.02481 l 0.545703,-0.02481 q 3.522266,-0.04961 5.283399,-1.16582 1.761133,-1.116211 2.877343,-3.001367 1.141016,-1.885156 1.736329,-4.812109 0.595312,-2.951758 0.694531,-8.855274 z"
         style="stroke-width:0.26458332"
         id="path13450"
         inkscape:connector-curvature="0" />
    </g>
  </g>
</svg>
