<?xml version="1.0" encoding="UTF-8" standalone="no"?>
<!-- Created with Inkscape (http://www.inkscape.org/) -->

<svg
   xmlns:dc="http://purl.org/dc/elements/1.1/"
   xmlns:cc="http://creativecommons.org/ns#"
   xmlns:rdf="http://www.w3.org/1999/02/22-rdf-syntax-ns#"
   xmlns:svg="http://www.w3.org/2000/svg"
   xmlns="http://www.w3.org/2000/svg"
   xmlns:sodipodi="http://sodipodi.sourceforge.net/DTD/sodipodi-0.dtd"
   xmlns:inkscape="http://www.inkscape.org/namespaces/inkscape"
   width="36.264454mm"
   height="36.909374mm"
   viewBox="0 0 36.264454 36.909374"
   version="1.1"
   id="svg14017"
   inkscape:version="0.92.4 (5da689c313, 2019-01-14)"
   sodipodi:docname="N35A.svg">
  <defs
     id="defs14011" />
  <sodipodi:namedview
     id="base"
     pagecolor="#ffffff"
     bordercolor="#666666"
     borderopacity="1.0"
     inkscape:pageopacity="0.0"
     inkscape:pageshadow="2"
     inkscape:zoom="0.35"
     inkscape:cx="-320.40179"
     inkscape:cy="-341.16965"
     inkscape:document-units="mm"
     inkscape:current-layer="layer1"
     showgrid="false"
     fit-margin-top="0"
     fit-margin-left="0"
     fit-margin-right="0"
     fit-margin-bottom="0"
     inkscape:window-width="1920"
     inkscape:window-height="1017"
     inkscape:window-x="-8"
     inkscape:window-y="-8"
     inkscape:window-maximized="1" />
  <metadata
     id="metadata14014">
    <rdf:RDF>
      <cc:Work
         rdf:about="">
        <dc:format>image/svg+xml</dc:format>
        <dc:type
           rdf:resource="http://purl.org/dc/dcmitype/StillImage" />
        <dc:title></dc:title>
      </cc:Work>
    </rdf:RDF>
  </metadata>
  <g
     inkscape:label="Layer 1"
     inkscape:groupmode="layer"
     id="layer1"
     transform="translate(2.5395274,-21.656155)">
    <g
       aria-label="𓈗"
       style="font-style:normal;font-variant:normal;font-weight:normal;font-stretch:normal;font-size:50.79999924px;line-height:1.25;font-family:sans-serif;-inkscape-font-specification:sans-serif;font-variant-ligatures:normal;font-variant-caps:normal;font-variant-numeric:normal;font-feature-settings:normal;text-align:start;letter-spacing:0px;word-spacing:0px;writing-mode:lr-tb;text-anchor:start;fill:#000000;fill-opacity:1;stroke:none;stroke-width:0.26458332"
       id="text14564">
      <path
         d="M 13.11223,58.069436 10.458129,54.869631 8.1760974,58.119045 5.4971912,54.869631 3.1655506,58.119045 0.93312876,54.96885 -1.1256603,58.56553 h -1.4138671 l 3.37343741,-5.903516 2.33164059,3.299023 2.2820312,-3.199804 2.6541015,3.249414 2.3068357,-3.249414 2.703711,3.274219 2.703711,-3.274219 2.282031,3.249414 2.678906,-3.249414 2.282032,3.249414 2.678906,-3.249414 2.257226,3.199804 2.331641,-3.299023 3.398242,5.903516 h -1.413867 l -2.058789,-3.59668 -2.257227,3.150195 -2.306835,-3.249414 -2.678907,3.249414 -2.306836,-3.249414 -2.654101,3.249414 -2.282031,-3.249414 z m 0,-15.329297 -2.654101,-3.199804 -2.2820316,3.249414 -2.6789062,-3.249414 -2.3316406,3.249414 -2.23242184,-3.150196 -2.05878906,3.621485 h -1.4138671 l 3.37343741,-5.928321 2.33164059,3.299024 2.2820312,-3.199805 2.6541015,3.249414 2.3068357,-3.249414 2.703711,3.274219 2.703711,-3.274219 2.282031,3.249414 2.678906,-3.249414 2.282032,3.249414 2.678906,-3.249414 2.257226,3.199805 2.331641,-3.299024 3.398242,5.928321 h -1.413867 l -2.058789,-3.621485 -2.257227,3.150196 -2.306835,-3.249414 -2.678907,3.249414 -2.306836,-3.249414 -2.654101,3.249414 -2.282031,-3.249414 z m 0,-15.676562 -2.654101,-3.199805 -2.2820316,3.249414 -2.6789062,-3.249414 -2.3316406,3.249414 -2.23242184,-3.150195 -2.05878906,3.621484 h -1.4138671 l 3.37343741,-5.92832 2.33164059,3.299024 2.2820312,-3.199805 2.6541015,3.249414 2.3068357,-3.249414 2.703711,3.274219 2.703711,-3.274219 2.282031,3.249414 2.678906,-3.249414 2.282032,3.249414 2.678906,-3.249414 2.257226,3.199805 2.331641,-3.299024 3.398242,5.92832 h -1.413867 l -2.058789,-3.621484 -2.257227,3.150195 -2.306835,-3.249414 -2.678907,3.249414 -2.306836,-3.249414 -2.654101,3.249414 -2.282031,-3.249414 z"
         style="stroke-width:0.26458332"
         id="path14566"
         inkscape:connector-curvature="0" />
    </g>
  </g>
</svg>
