<?xml version="1.0" encoding="UTF-8" standalone="no"?>
<!-- Created with Inkscape (http://www.inkscape.org/) -->

<svg
   xmlns:dc="http://purl.org/dc/elements/1.1/"
   xmlns:cc="http://creativecommons.org/ns#"
   xmlns:rdf="http://www.w3.org/1999/02/22-rdf-syntax-ns#"
   xmlns:svg="http://www.w3.org/2000/svg"
   xmlns="http://www.w3.org/2000/svg"
   xmlns:sodipodi="http://sodipodi.sourceforge.net/DTD/sodipodi-0.dtd"
   xmlns:inkscape="http://www.inkscape.org/namespaces/inkscape"
   width="37.207031mm"
   height="8.3839836mm"
   viewBox="0 0 37.207031 8.3839836"
   version="1.1"
   id="svg19613"
   inkscape:version="0.92.4 (5da689c313, 2019-01-14)"
   sodipodi:docname="N36.svg">
  <defs
     id="defs19607" />
  <sodipodi:namedview
     id="base"
     pagecolor="#ffffff"
     bordercolor="#666666"
     borderopacity="1.0"
     inkscape:pageopacity="0.0"
     inkscape:pageshadow="2"
     inkscape:zoom="0.35"
     inkscape:cx="-326.11607"
     inkscape:cy="-452.78572"
     inkscape:document-units="mm"
     inkscape:current-layer="layer1"
     showgrid="false"
     fit-margin-top="0"
     fit-margin-left="0"
     fit-margin-right="0"
     fit-margin-bottom="0"
     inkscape:window-width="1920"
     inkscape:window-height="1017"
     inkscape:window-x="-8"
     inkscape:window-y="-8"
     inkscape:window-maximized="1" />
  <metadata
     id="metadata19610">
    <rdf:RDF>
      <cc:Work
         rdf:about="">
        <dc:format>image/svg+xml</dc:format>
        <dc:type
           rdf:resource="http://purl.org/dc/dcmitype/StillImage" />
        <dc:title></dc:title>
      </cc:Work>
    </rdf:RDF>
  </metadata>
  <g
     inkscape:label="Layer 1"
     inkscape:groupmode="layer"
     id="layer1"
     transform="translate(1.0276227,-20.649795)">
    <g
       aria-label="𓈘"
       style="font-style:normal;font-variant:normal;font-weight:normal;font-stretch:normal;font-size:50.79999924px;line-height:1.25;font-family:sans-serif;-inkscape-font-specification:'sans-serif, Normal';font-variant-ligatures:normal;font-variant-caps:normal;font-variant-numeric:normal;font-feature-settings:normal;text-align:start;letter-spacing:0px;word-spacing:0px;writing-mode:lr-tb;text-anchor:start;fill:#000000;fill-opacity:1;stroke:none;stroke-width:0.26458332"
       id="text20160">
      <path
         d="M 36.179408,29.033779 H -1.0276227 v -0.79375 h 4.2912109 q 0.2976562,-0.223242 0.5208984,-0.644922 0.2480469,-0.42168 0.396875,-0.892969 0.1736328,-0.496094 0.2480468,-0.992187 0.074414,-0.496094 0.074414,-0.868164 0,-0.372071 -0.074414,-0.868164 Q 4.3549944,23.477529 4.1813616,23.00624 4.0325335,22.510146 3.7844866,22.088466 3.5612444,21.666787 3.2635882,21.443544 H -1.0276227 V 20.649795 H 36.179408 v 0.793749 h -4.241602 q -0.248046,0.223243 -0.446484,0.644922 -0.173633,0.42168 -0.322461,0.917774 -0.124023,0.471289 -0.198437,0.967383 -0.04961,0.496093 -0.04961,0.868164 0,0.37207 0.04961,0.868164 0.07441,0.496093 0.198437,0.992187 0.148828,0.471289 0.322461,0.892969 0.198438,0.42168 0.446484,0.644922 h 4.241602 z m -5.159375,-0.79375 q -0.248047,-0.42168 -0.446484,-0.967383 -0.173633,-0.446484 -0.322461,-1.066602 -0.124024,-0.644921 -0.124024,-1.364257 0,-0.520899 0.07441,-1.041797 0.07441,-0.520899 0.198438,-0.967383 0.124023,-0.471289 0.272851,-0.818555 0.173633,-0.37207 0.347266,-0.570508 H 4.2061663 q 0.1984375,0.223243 0.396875,0.595313 0.1984375,0.347266 0.3472656,0.818555 0.1488281,0.446484 0.2480469,0.967382 0.099219,0.496094 0.099219,1.016993 0,0.79375 -0.1736328,1.438671 -0.1736328,0.644922 -0.3720703,1.066602 -0.2480469,0.520898 -0.5457031,0.892969 z"
         style="stroke-width:0.26458332"
         id="path20162"
         inkscape:connector-curvature="0" />
    </g>
  </g>
</svg>
