<?xml version="1.0" encoding="UTF-8" standalone="no"?>
<!-- Created with Inkscape (http://www.inkscape.org/) -->

<svg
   xmlns:dc="http://purl.org/dc/elements/1.1/"
   xmlns:cc="http://creativecommons.org/ns#"
   xmlns:rdf="http://www.w3.org/1999/02/22-rdf-syntax-ns#"
   xmlns:svg="http://www.w3.org/2000/svg"
   xmlns="http://www.w3.org/2000/svg"
   xmlns:sodipodi="http://sodipodi.sourceforge.net/DTD/sodipodi-0.dtd"
   xmlns:inkscape="http://www.inkscape.org/namespaces/inkscape"
   width="38.050388mm"
   height="8.3839846mm"
   viewBox="0 0 38.050388 8.3839846"
   version="1.1"
   id="svg20733"
   inkscape:version="0.92.4 (5da689c313, 2019-01-14)"
   sodipodi:docname="N39.svg">
  <defs
     id="defs20727" />
  <sodipodi:namedview
     id="base"
     pagecolor="#ffffff"
     bordercolor="#666666"
     borderopacity="1.0"
     inkscape:pageopacity="0.0"
     inkscape:pageshadow="2"
     inkscape:zoom="0.35"
     inkscape:cx="-380.40179"
     inkscape:cy="-349.92858"
     inkscape:document-units="mm"
     inkscape:current-layer="layer1"
     showgrid="false"
     fit-margin-top="0"
     fit-margin-left="0"
     fit-margin-right="0"
     fit-margin-bottom="0"
     inkscape:window-width="1920"
     inkscape:window-height="1017"
     inkscape:window-x="-8"
     inkscape:window-y="-8"
     inkscape:window-maximized="1" />
  <metadata
     id="metadata20730">
    <rdf:RDF>
      <cc:Work
         rdf:about="">
        <dc:format>image/svg+xml</dc:format>
        <dc:type
           rdf:resource="http://purl.org/dc/dcmitype/StillImage" />
        <dc:title></dc:title>
      </cc:Work>
    </rdf:RDF>
  </metadata>
  <g
     inkscape:label="Layer 1"
     inkscape:groupmode="layer"
     id="layer1"
     transform="translate(-13.335473,-47.864079)">
    <g
       aria-label="𓈜"
       style="font-style:normal;font-variant:normal;font-weight:normal;font-stretch:normal;font-size:50.79999924px;line-height:1.25;font-family:sans-serif;-inkscape-font-specification:'sans-serif, Normal';font-variant-ligatures:normal;font-variant-caps:normal;font-variant-numeric:normal;font-feature-settings:normal;text-align:start;letter-spacing:0px;word-spacing:0px;writing-mode:lr-tb;text-anchor:start;fill:#000000;fill-opacity:1;stroke:none;stroke-width:0.26458332"
       id="text21280">
      <path
         d="m 13.335473,55.776775 v -7.441407 l 0.37207,-0.471289 h 37.25664 l 0.42168,0.396875 v 7.590235 l -0.42168,0.396875 h -37.25664 z m 14.138672,-5.60586 0.297656,-1.513086 H 25.44016 l -0.297656,1.513086 0.768945,3.819922 -0.297656,1.463477 h 2.331641 l 0.297656,-1.562696 z m 6.151562,-1.513086 h -2.232422 l -0.322461,1.562696 0.768946,3.770312 -0.297657,1.463477 h 2.257227 l 0.272851,-1.686719 -0.74414,-3.59668 z m -10.666015,5.333008 -0.297657,1.463477 h 2.158008 l 0.297656,-1.562696 -0.79375,-3.720703 0.322461,-1.513086 h -2.133203 l -0.322461,1.562696 z m 25.945702,0 -0.297656,1.463477 h 1.984375 V 48.657829 H 48.45891 l -0.322461,1.562696 z m -29.095898,1.463477 h 2.058789 l 0.297657,-1.562696 -0.768946,-3.720703 0.297657,-1.513086 h -2.033985 l -0.322461,1.562696 0.768946,3.770312 z m -0.967382,-6.796485 h -1.984375 l -0.322461,1.562696 0.768945,3.770312 -0.297656,1.463477 h 2.009179 l 0.297657,-1.562696 -0.768946,-3.571875 z m 22.894726,1.513086 0.297656,-1.513086 h -1.984375 l -0.322461,1.562696 0.768945,3.770312 -0.297656,1.463477 h 2.00918 l 0.297656,-1.513086 z m -11.459766,0 0.297657,-1.513086 h -1.984375 l -0.322461,1.562696 0.768945,3.770312 -0.297656,1.463477 h 2.009179 l 0.297657,-1.562696 z m 14.560352,-1.513086 h -1.984375 l -0.322461,1.562696 0.768945,3.770312 -0.297656,1.463477 h 2.00918 l 0.297656,-1.562696 -0.768946,-3.720703 z m -5.60586,0 h -1.984375 l -0.32246,1.562696 0.768945,3.770312 -0.297656,1.463477 h 2.009179 l 0.297656,-1.562696 -0.768945,-3.571875 z m -4.34082,5.333008 -0.297656,1.463477 h 2.00918 l 0.297656,-1.562696 -0.719336,-3.91914 0.248047,-1.314649 h -1.984375 l -0.322461,1.562696 z m 11.211719,0 -0.297657,1.463477 h 2.00918 l 0.297656,-1.513086 -0.768945,-3.770313 0.297656,-1.513086 H 45.65598 l -0.322461,1.562696 z M 16.039184,48.657829 h -1.909961 v 6.796485 h 2.083594 l 0.297656,-1.562696 -0.768945,-3.571875 z"
         style="stroke-width:0.26458332"
         id="path21282"
         inkscape:connector-curvature="0" />
    </g>
  </g>
</svg>
