<?xml version="1.0" encoding="UTF-8" standalone="no"?>
<!-- Created with Inkscape (http://www.inkscape.org/) -->

<svg
   xmlns:dc="http://purl.org/dc/elements/1.1/"
   xmlns:cc="http://creativecommons.org/ns#"
   xmlns:rdf="http://www.w3.org/1999/02/22-rdf-syntax-ns#"
   xmlns:svg="http://www.w3.org/2000/svg"
   xmlns="http://www.w3.org/2000/svg"
   xmlns:sodipodi="http://sodipodi.sourceforge.net/DTD/sodipodi-0.dtd"
   xmlns:inkscape="http://www.inkscape.org/namespaces/inkscape"
   width="38.050388mm"
   height="25.251175mm"
   viewBox="0 0 38.050388 25.251175"
   version="1.1"
   id="svg8"
   inkscape:version="0.92.4 (5da689c313, 2019-01-14)"
   sodipodi:docname="N40.svg">
  <defs
     id="defs2" />
  <sodipodi:namedview
     id="base"
     pagecolor="#ffffff"
     bordercolor="#666666"
     borderopacity="1.0"
     inkscape:pageopacity="0.0"
     inkscape:pageshadow="2"
     inkscape:zoom="0.35"
     inkscape:cx="-334.6875"
     inkscape:cy="-465.62054"
     inkscape:document-units="mm"
     inkscape:current-layer="layer1"
     showgrid="false"
     fit-margin-top="0"
     fit-margin-left="0"
     fit-margin-right="0"
     fit-margin-bottom="0"
     inkscape:window-width="1920"
     inkscape:window-height="1017"
     inkscape:window-x="-8"
     inkscape:window-y="-8"
     inkscape:window-maximized="1" />
  <metadata
     id="metadata5">
    <rdf:RDF>
      <cc:Work
         rdf:about="">
        <dc:format>image/svg+xml</dc:format>
        <dc:type
           rdf:resource="http://purl.org/dc/dcmitype/StillImage" />
        <dc:title></dc:title>
      </cc:Work>
    </rdf:RDF>
  </metadata>
  <g
     inkscape:label="Layer 1"
     inkscape:groupmode="layer"
     id="layer1"
     transform="translate(-1.240235,-0.386725)">
    <g
       aria-label="ð“ˆ"
       style="font-style:normal;font-variant:normal;font-weight:normal;font-stretch:normal;font-size:50.79999924px;line-height:1.25;font-family:sans-serif;-inkscape-font-specification:'sans-serif, Normal';font-variant-ligatures:normal;font-variant-caps:normal;font-variant-numeric:normal;font-feature-settings:normal;text-align:start;letter-spacing:0px;word-spacing:0px;writing-mode:lr-tb;text-anchor:start;fill:#000000;fill-opacity:1;stroke:none;stroke-width:0.26458332"
       id="text4520"
       transform="translate(-12.85119,-11.339286)">
      <path
         d="m 14.463495,11.726011 h 37.25664 l 0.42168,0.396875 v 7.540624 l -0.42168,0.396875 H 36.812518 q 2.158008,2.678907 2.728516,3.720703 0.595312,1.016993 1.389062,3.472657 0.818555,2.430859 1.389063,5.060156 0.570508,2.604492 0.74414,3.050976 0.198438,0.42168 0.198438,0.892969 v 0.07441 q 0,0.620117 -1.16582,0.620117 -0.84336,-0.297656 -1.661914,-0.297656 h -0.248047 l -2.530078,0.248047 q -0.396875,0.04961 -0.719336,0.04961 -0.669727,0 -0.942578,-0.173632 -0.272852,-0.198438 -0.272852,-0.372071 0,-0.272851 0.843359,-0.37207 0.868165,-0.124024 2.331641,-0.520899 1.463477,-0.396875 1.612305,-0.570507 l 0.04961,-0.42168 v -0.446484 q 0,-2.976563 -2.579687,-7.441407 -2.579688,-4.464843 -2.902149,-5.233789 -0.595312,2.331641 -3.522265,6.225977 -2.902149,3.894336 -4.613672,7.317383 0,2.009179 -1.612305,2.009179 -0.620117,-0.396875 -0.892969,-0.396875 -0.07441,0 -0.09922,0.02481 l -1.959571,0.148828 q -0.396875,0.04961 -1.413867,0.148828 -1.016992,0.09922 -1.116211,0.09922 -0.74414,0 -0.768945,-0.570508 v -0.04961 q 0,-0.297656 0.347266,-0.297656 h 0.04961 q 0.223242,0.04961 0.37207,0.04961 0.173633,0 0.297657,0.04961 l 1.810742,-0.496093 q 1.091406,-0.297657 2.579687,-0.719336 2.083594,-2.827735 4.142383,-6.746875 2.058789,-3.919141 2.331641,-4.440039 l 1.90996,-3.695899 H 14.463495 L 14.091425,19.5891 v -7.3918 z m 0.42168,7.540624 h 36.46289 V 12.51976 h -36.46289 z"
         style="stroke-width:0.26458332"
         id="path4522"
         inkscape:connector-curvature="0" />
    </g>
  </g>
</svg>
