<?xml version="1.0" encoding="UTF-8" standalone="no"?>
<!-- Created with Inkscape (http://www.inkscape.org/) -->

<svg
   xmlns:dc="http://purl.org/dc/elements/1.1/"
   xmlns:cc="http://creativecommons.org/ns#"
   xmlns:rdf="http://www.w3.org/1999/02/22-rdf-syntax-ns#"
   xmlns:svg="http://www.w3.org/2000/svg"
   xmlns="http://www.w3.org/2000/svg"
   xmlns:sodipodi="http://sodipodi.sourceforge.net/DTD/sodipodi-0.dtd"
   xmlns:inkscape="http://www.inkscape.org/namespaces/inkscape"
   width="19.620506mm"
   height="19.47168mm"
   viewBox="0 0 19.620506 19.47168"
   version="1.1"
   id="svg8"
   inkscape:version="0.92.4 (5da689c313, 2019-01-14)"
   sodipodi:docname="N42.svg">
  <defs
     id="defs2" />
  <sodipodi:namedview
     id="base"
     pagecolor="#ffffff"
     bordercolor="#666666"
     borderopacity="1.0"
     inkscape:pageopacity="0.0"
     inkscape:pageshadow="2"
     inkscape:zoom="0.35"
     inkscape:cx="-383.25893"
     inkscape:cy="-449.74107"
     inkscape:document-units="mm"
     inkscape:current-layer="layer1"
     showgrid="false"
     fit-margin-top="0"
     fit-margin-left="0"
     fit-margin-right="0"
     fit-margin-bottom="0"
     inkscape:window-width="1920"
     inkscape:window-height="1017"
     inkscape:window-x="-8"
     inkscape:window-y="-8"
     inkscape:window-maximized="1" />
  <metadata
     id="metadata5">
    <rdf:RDF>
      <cc:Work
         rdf:about="">
        <dc:format>image/svg+xml</dc:format>
        <dc:type
           rdf:resource="http://purl.org/dc/dcmitype/StillImage" />
        <dc:title></dc:title>
      </cc:Work>
    </rdf:RDF>
  </metadata>
  <g
     inkscape:label="Layer 1"
     inkscape:groupmode="layer"
     id="layer1"
     transform="translate(-14.091425,-10.367662)">
    <g
       aria-label="𓈟"
       style="font-style:normal;font-variant:normal;font-weight:normal;font-stretch:normal;font-size:50.79999924px;line-height:1.25;font-family:sans-serif;-inkscape-font-specification:'sans-serif, Normal';font-variant-ligatures:normal;font-variant-caps:normal;font-variant-numeric:normal;font-feature-settings:normal;text-align:start;letter-spacing:0px;word-spacing:0px;writing-mode:lr-tb;text-anchor:start;fill:#000000;fill-opacity:1;stroke:none;stroke-width:0.26458332"
       id="text4520">
      <path
         d="m 33.711932,10.764537 v 8.929687 q 0,2.530078 -0.74414,4.440039 -0.719336,1.909961 -2.033985,3.175 -1.289843,1.265039 -3.100585,1.909961 -1.785938,0.620117 -3.943946,0.620117 -3.175,0 -5.605859,-1.5875 -2.455664,-1.637109 -3.299023,-3.819922 -0.892969,-2.257226 -0.892969,-7.987109 0,-1.141016 0.02481,-2.158008 0.0248,-1.016992 0.07441,-1.785937 l 0.09922,-1.661914 0.372071,-0.471289 h 1.190625 l 0.421679,0.396875 v 3.175 h 15.428516 v -3.100586 l 0.37207,-0.471289 h 1.21543 z m -1.637109,3.96875 H 15.852558 l -0.372071,-0.47129 v -3.100585 h -0.396875 l -0.09922,1.686718 q -0.04961,0.768946 -0.07441,1.785938 -0.0248,0.992187 -0.0248,2.108398 0,4.539258 0.595312,6.77168 0.322461,1.16582 1.066602,2.182812 0.768945,0.992188 1.810742,1.736328 1.066602,0.744141 2.331641,1.165821 1.265039,0.421679 2.629297,0.421679 v -4.7625 h 1.16582 v 4.81211 q 1.413867,0 2.654101,-0.42168 1.240235,-0.42168 2.232422,-1.141016 1.016992,-0.719336 1.736328,-1.637109 0.719336,-0.942578 1.091407,-1.95957 0.545703,-1.513086 0.669726,-3.323828 0.148828,-1.810742 0.148828,-3.844727 0,-0.570508 0,-1.265039 0,-0.719336 -0.0248,-1.463476 0,-0.744141 -0.02481,-1.488282 -0.02481,-0.74414 -0.04961,-1.364257 h -0.421679 v 3.175 z"
         style="stroke-width:0.26458332"
         id="path4522"
         inkscape:connector-curvature="0" />
    </g>
  </g>
</svg>
