<?xml version="1.0" encoding="UTF-8" standalone="no"?>
<svg
   xmlns:dc="http://purl.org/dc/elements/1.1/"
   xmlns:cc="http://creativecommons.org/ns#"
   xmlns:rdf="http://www.w3.org/1999/02/22-rdf-syntax-ns#"
   xmlns:svg="http://www.w3.org/2000/svg"
   xmlns="http://www.w3.org/2000/svg"
   xmlns:sodipodi="http://sodipodi.sourceforge.net/DTD/sodipodi-0.dtd"
   xmlns:inkscape="http://www.inkscape.org/namespaces/inkscape"
   version="1.0"
   width="152.30688pt"
   height="148.70633pt"
   viewBox="0 0 152.30688 148.70633"
   preserveAspectRatio="xMidYMid meet"
   id="svg8"
   sodipodi:docname="N43.svg"
   inkscape:version="0.92.4 (5da689c313, 2019-01-14)">
  <defs
     id="defs12" />
  <sodipodi:namedview
     pagecolor="#ffffff"
     bordercolor="#666666"
     borderopacity="1"
     objecttolerance="10"
     gridtolerance="10"
     guidetolerance="10"
     inkscape:pageopacity="0"
     inkscape:pageshadow="2"
     inkscape:window-width="1920"
     inkscape:window-height="1017"
     id="namedview10"
     showgrid="false"
     fit-margin-top="0"
     fit-margin-left="0"
     fit-margin-right="0"
     fit-margin-bottom="0"
     inkscape:zoom="1.3906433"
     inkscape:cx="272.1696"
     inkscape:cy="136.20509"
     inkscape:window-x="-8"
     inkscape:window-y="-8"
     inkscape:window-maximized="1"
     inkscape:current-layer="svg8" />
  <metadata
     id="metadata2">
Created by potrace 1.10, written by Peter Selinger 2001-2011
<rdf:RDF>
  <cc:Work
     rdf:about="">
    <dc:format>image/svg+xml</dc:format>
    <dc:type
       rdf:resource="http://purl.org/dc/dcmitype/StillImage" />
    <dc:title></dc:title>
  </cc:Work>
</rdf:RDF>
</metadata>
  <g
     transform="matrix(0.1,0,0,-0.1,179.92765,155.94242)"
     id="g6"
     style="fill:#000000;stroke:none">
    <path
       d="m 226,1607 c -20,-14 -22,-5 29,-145 8,-24 13,-48 10,-53 -4,-5 -39,-9 -80,-9 -103,0 -105,-3 -105,-193 0,-148 7,-187 35,-187 15,0 123,55 140,71 35,34 45,-17 21,-105 -25,-88 -46,-295 -46,-451 0,-210 31,-350 92,-407 64,-62 116,-16 164,147 14,49 18,97 17,265 0,206 -16,359 -49,476 -8,28 -14,63 -14,77 v 27 h 165 165 v -27 c 0,-16 -6,-59 -14,-98 -37,-174 -46,-265 -46,-456 1,-241 23,-346 90,-416 39,-43 97,-19 129,52 40,92 51,167 51,374 0,202 -9,293 -46,448 -7,34 -14,75 -14,92 v 31 h 160 c 134,0 162,-3 166,-15 4,-8 -1,-43 -9,-78 -44,-179 -52,-249 -52,-477 0,-193 3,-233 19,-280 44,-130 79,-176 129,-166 16,3 36,14 43,24 22,28 52,95 57,127 3,17 11,62 17,100 22,127 3,460 -36,632 -17,75 -18,113 -3,113 7,0 33,-12 58,-28 86,-51 101,-57 119,-45 15,9 17,33 20,172 1,98 -2,169 -8,181 -9,16 -23,20 -93,22 -81,3 -82,3 -79,28 2,22 13,49 43,112 15,30 10,57 -12,68 -26,15 -274,9 -289,-6 -7,-7 -3,-31 16,-80 15,-38 27,-80 28,-94 l 1,-25 -132,-3 -133,-3 v 25 c 0,13 6,37 14,53 38,76 49,114 37,126 -13,13 -221,23 -277,12 -28,-5 -34,-10 -34,-31 0,-13 4,-32 9,-42 25,-49 41,-95 41,-117 v -25 H 605 c -128,0 -135,1 -135,20 0,19 19,68 46,122 34,65 9,78 -155,78 -81,0 -123,-4 -135,-13 z m 211,-84 c -6,-31 -28,-91 -40,-110 -17,-26 -47,-14 -63,25 -9,20 -23,49 -30,64 -24,45 -19,48 62,48 h 76 z m 480,5 c -27,-112 -63,-152 -99,-108 -10,12 -18,30 -18,39 0,10 -7,26 -15,37 -8,10 -15,27 -15,37 0,15 10,17 76,17 74,0 76,-1 71,-22 z m 483,13 c 0,-25 -61,-141 -74,-141 -20,0 -46,28 -46,49 0,9 -7,26 -15,37 -8,10 -15,29 -15,42 0,21 4,22 75,22 41,0 75,-4 75,-9 z m 124,-207 c 13,-5 16,-25 16,-115 0,-60 -2,-109 -5,-109 -3,0 -40,18 -81,40 l -76,40 H 849 319 l -81,-40 c -44,-22 -85,-37 -89,-34 -10,6 -12,184 -3,208 6,14 75,16 684,16 373,0 685,-3 694,-6 z M 872,1000 c 65,-296 64,-650 0,-792 -34,-75 -58,-41 -92,132 -15,75 -12,336 5,450 21,139 47,283 53,293 8,16 18,-8 34,-83 z m 468,49 c 0,-17 6,-58 14,-92 27,-114 38,-211 43,-372 4,-127 2,-176 -12,-240 -45,-215 -76,-229 -116,-50 -24,105 -26,391 -4,538 15,98 43,233 52,250 9,16 23,-5 23,-34 z m -946,-49 c 63,-269 63,-681 1,-800 -19,-36 -32,-35 -51,1 -30,60 -54,204 -54,333 0,127 21,322 46,417 8,30 14,69 14,85 0,33 9,49 21,37 4,-5 14,-37 23,-73 z"
       id="path4"
       inkscape:connector-curvature="0" />
  </g>
  <g
     aria-label="𓇯"
     transform="matrix(1.0604483,0,0,1.0604483,747.76725,-126.63251)"
     style="font-style:normal;font-variant:normal;font-weight:normal;font-stretch:normal;font-size:192px;line-height:1.25;font-family:sans-serif;-inkscape-font-specification:sans-serif;font-variant-ligatures:normal;font-variant-caps:normal;font-variant-numeric:normal;font-feature-settings:normal;text-align:start;letter-spacing:0px;word-spacing:0px;writing-mode:lr-tb;text-anchor:start;fill:#000000;fill-opacity:1;stroke:none"
     id="flowRoot816">
    <path
       d="m -578.29883,160.11469 h -109.6875 l -14.8125,13.3125 -2.34375,-1.5 v -34.21875 l 1.40625,-1.78125 h 140.625 l 1.59375,1.5 v 34.78125 l -2.53125,1.125 z m 0.9375,-2.8125 12.84375,11.625 v -30 h -137.625 v 29.90625 l 13.125,-11.53125 z"
       id="path824"
       inkscape:connector-curvature="0"
       style="fill:#000000" />
  </g>
  <path
     style="fill:none;stroke:#000000;stroke-width:2.92499995;stroke-linecap:butt;stroke-linejoin:miter;stroke-miterlimit:4;stroke-dasharray:none;stroke-opacity:1"
     d="m 30.771521,41.678331 c 0,0 17.7983,84.467169 -5.08306,105.060389 C 2.8071052,126.1455 20.60541,41.678332 20.60541,41.678332"
     id="path827-4"
     inkscape:connector-curvature="0"
     sodipodi:nodetypes="ccc" />
  <path
     style="fill:none;stroke:#000000;stroke-width:4.125;stroke-linecap:butt;stroke-linejoin:miter;stroke-miterlimit:4;stroke-dasharray:none;stroke-opacity:1"
     d="m 20.435434,19.320702 -7.550462,-17.2581986 25.600925,-1e-6 -7.550463,17.2581996"
     id="path844"
     inkscape:connector-curvature="0"
     sodipodi:nodetypes="cccc" />
  <path
     style="fill:none;stroke:#000000;stroke-width:2.92499995;stroke-linecap:butt;stroke-linejoin:miter;stroke-miterlimit:4;stroke-dasharray:none;stroke-opacity:1"
     d="m 80.271524,41.678333 c 0,0 17.7983,84.467177 -5.08306,105.060407 -22.88136,-20.59323 -5.08305,-105.060406 -5.08305,-105.060406"
     id="path827-4-5-1"
     inkscape:connector-curvature="0"
     sodipodi:nodetypes="ccc" />
  <path
     style="fill:none;stroke:#000000;stroke-width:4.12500048;stroke-linecap:butt;stroke-linejoin:miter;stroke-miterlimit:4;stroke-dasharray:none;stroke-opacity:1"
     d="m 69.935434,19.320703 -7.55046,-17.2582005 25.60093,-1.1e-6 -7.55047,17.2582006"
     id="path844-3-1"
     inkscape:connector-curvature="0"
     sodipodi:nodetypes="cccc" />
  <path
     style="fill:none;stroke:#000000;stroke-width:2.92499995;stroke-linecap:butt;stroke-linejoin:miter;stroke-miterlimit:4;stroke-dasharray:none;stroke-opacity:1"
     d="m 132.77152,41.678333 c 0,0 17.7983,84.467167 -5.08306,105.060397 C 104.8071,126.1455 122.60541,41.678334 122.60541,41.678334"
     id="path827-4-5-1-8"
     inkscape:connector-curvature="0"
     sodipodi:nodetypes="ccc" />
  <path
     style="fill:none;stroke:#000000;stroke-width:4.12500048;stroke-linecap:butt;stroke-linejoin:miter;stroke-miterlimit:4;stroke-dasharray:none;stroke-opacity:1"
     d="m 122.43543,19.320702 -7.55046,-17.2582006 25.60093,-1e-6 -7.55047,17.2582006"
     id="path844-3-1-1"
     inkscape:connector-curvature="0"
     sodipodi:nodetypes="cccc" />
</svg>
