<?xml version="1.0" encoding="UTF-8" standalone="no"?>
<svg
   xmlns:dc="http://purl.org/dc/elements/1.1/"
   xmlns:cc="http://creativecommons.org/ns#"
   xmlns:rdf="http://www.w3.org/1999/02/22-rdf-syntax-ns#"
   xmlns:svg="http://www.w3.org/2000/svg"
   xmlns="http://www.w3.org/2000/svg"
   xmlns:sodipodi="http://sodipodi.sourceforge.net/DTD/sodipodi-0.dtd"
   xmlns:inkscape="http://www.inkscape.org/namespaces/inkscape"
   version="1.0"
   width="179.77316pt"
   height="92.068329pt"
   viewBox="0 0 179.77317 92.068329"
   preserveAspectRatio="xMidYMid meet"
   id="svg8"
   sodipodi:docname="N46.svg"
   inkscape:version="0.92.4 (5da689c313, 2019-01-14)">
  <defs
     id="defs12" />
  <sodipodi:namedview
     pagecolor="#ffffff"
     bordercolor="#666666"
     borderopacity="1"
     objecttolerance="10"
     gridtolerance="10"
     guidetolerance="10"
     inkscape:pageopacity="0"
     inkscape:pageshadow="2"
     inkscape:window-width="1920"
     inkscape:window-height="1017"
     id="namedview10"
     showgrid="false"
     fit-margin-top="0"
     fit-margin-left="0"
     fit-margin-right="0"
     fit-margin-bottom="0"
     inkscape:zoom="0.74943363"
     inkscape:cx="-26.488741"
     inkscape:cy="91.405955"
     inkscape:window-x="-8"
     inkscape:window-y="-8"
     inkscape:window-maximized="1"
     inkscape:current-layer="svg8" />
  <metadata
     id="metadata2">
Created by potrace 1.10, written by Peter Selinger 2001-2011
<rdf:RDF>
  <cc:Work
     rdf:about="">
    <dc:format>image/svg+xml</dc:format>
    <dc:type
       rdf:resource="http://purl.org/dc/dcmitype/StillImage" />
    <dc:title></dc:title>
  </cc:Work>
</rdf:RDF>
</metadata>
  <g
     transform="matrix(0.1,0,0,-0.1,357.79926,105.6697)"
     id="g6"
     style="fill:#000000;stroke:none">
    <path
       d="M 905,926 C 862,916 760,875 724,852 675,822 593,744 553,690 506,627 497,611 451,508 L 430,460 H 285 C 174,460 132,456 110,445 L 80,429 V 305 c 0,-112 2,-127 20,-145 20,-20 33,-20 934,-20 818,0 916,2 930,16 24,23 23,265 -1,285 -11,10 -61,15 -175,19 -165,5 -177,9 -178,51 0,8 -7,24 -15,35 -8,10 -15,26 -15,35 0,26 -85,138 -147,196 -31,29 -93,71 -137,94 -67,34 -99,43 -186,55 -119,16 -135,16 -205,0 z m 265,-86 c 34,-12 90,-38 137,-64 58,-32 183,-165 183,-194 0,-4 5,-13 12,-20 17,-17 39,-85 30,-94 -5,-5 -231,-7 -503,-6 -487,3 -494,3 -492,23 4,57 59,149 124,211 88,82 132,108 249,149 51,18 200,15 260,-5 z M 1905,305 V 235 H 1040 175 l -3,59 c -2,32 -1,65 2,72 5,12 146,14 868,12 l 863,-3 z"
       id="path4"
       inkscape:connector-curvature="0" />
  </g>
  <g
     aria-label="𓇷"
     style="font-style:normal;font-variant:normal;font-weight:normal;font-stretch:normal;font-size:144px;line-height:1.25;font-family:sans-serif;-inkscape-font-specification:sans-serif;font-variant-ligatures:normal;font-variant-caps:normal;font-variant-numeric:normal;font-feature-settings:normal;text-align:start;letter-spacing:0px;word-spacing:0px;writing-mode:lr-tb;text-anchor:start;fill:#000000;fill-opacity:1;stroke:none;stroke-width:0.75"
     id="text818"
     transform="matrix(1.9100365,0,0,1.9100365,901.77251,20.738072)">
    <path
       id="path820"
       transform="scale(0.75000002)"
       style="fill:#000000;stroke-width:1"
       d="m -565.43359,-14.476562 -2.53125,0.1875 c -9,0.687499 -16.625,3.9375 -22.875,9.7499995 -6.18751,5.8124998 -9.81251,13.4687504 -10.875,22.9687505 -0.0625,0.5625 -0.0937,1.15625 -0.0937,1.78125 l -0.1875,2.25 c 3,1.21875 3,1.21875 3,1.21875 h 67.3125 c 3,-1.5 0,0 3,-1.5 0,-9.3125 -3.21876,-17.5625007 -9.65625,-24.7500005 -6.37501,-7.1874995 -15.40625,-11.1562505 -27.09375,-11.9062495 z m 0.375,3 c 9.1875,0.437499 16.87499,3.6249997 23.0625,9.5624995 6.25,5.8749998 9.6875,13.4062505 10.3125,22.5937505 h -67.3125 c 0.1875,-3.625 0.84375,-7.062501 1.96875,-10.3125 l 0.9375,-2.0625005 c 1.31249,-3.0624999 3.18749,-5.90625 5.625,-8.53125 2.5,-2.6874999 5.34375,-4.9687501 8.53125,-6.84375 l 1.5,-0.75 c 1.375,-0.6875 3.1875,-1.375 5.4375,-2.0625 2.25,-0.7499995 4.8125,-1.2500005 7.6875,-1.4999995 z"
       inkscape:connector-curvature="0"
       sodipodi:nodetypes="ccccccccccccccccccccsccc" />
  </g>
  <flowRoot
     xml:space="preserve"
     id="flowRoot830"
     style="font-style:normal;font-variant:normal;font-weight:normal;font-stretch:normal;font-size:192px;line-height:1.25;font-family:sans-serif;-inkscape-font-specification:sans-serif;font-variant-ligatures:normal;font-variant-caps:normal;font-variant-numeric:normal;font-feature-settings:normal;text-align:start;letter-spacing:0px;word-spacing:0px;writing-mode:lr-tb;text-anchor:start;fill:#000000;fill-opacity:1;stroke:none"
     transform="matrix(0.75000002,0,0,0.75000002,365.79926,11.869696)"><flowRegion
       id="flowRegion832"><rect
         id="rect834"
         width="313.57013"
         height="205.48851"
         x="-1007.4274"
         y="33.01125" /></flowRegion><flowPara
       id="flowPara836">𓈙</flowPara></flowRoot>  <g
     aria-label="𓈙"
     style="font-style:normal;font-variant:normal;font-weight:normal;font-stretch:normal;font-size:144px;line-height:1.25;font-family:sans-serif;-inkscape-font-specification:sans-serif;font-variant-ligatures:normal;font-variant-caps:normal;font-variant-numeric:normal;font-feature-settings:normal;text-align:start;letter-spacing:0px;word-spacing:0px;writing-mode:lr-tb;text-anchor:start;fill:#000000;fill-opacity:1;stroke:none;stroke-width:0.75"
     id="text840"
     transform="matrix(1.6689125,0,0,1.6689125,946.1318,-168.25146)">
    <path
       d="m -459.19641,133.34106 v 21.51563 l -1.19531,1.125 h -105.46875 l -1.05469,-1.33594 V 133.552 l 1.05469,-1.33594 h 105.46875 z m -2.25,20.39063 v -19.26563 h -103.21875 v 19.26563 z"
       style="fill:#000000;stroke-width:0.75"
       id="path842"
       inkscape:connector-curvature="0" />
  </g>
</svg>
