<?xml version="1.0" encoding="UTF-8" standalone="no"?>
<svg
   xmlns:dc="http://purl.org/dc/elements/1.1/"
   xmlns:cc="http://creativecommons.org/ns#"
   xmlns:rdf="http://www.w3.org/1999/02/22-rdf-syntax-ns#"
   xmlns:svg="http://www.w3.org/2000/svg"
   xmlns="http://www.w3.org/2000/svg"
   xmlns:sodipodi="http://sodipodi.sourceforge.net/DTD/sodipodi-0.dtd"
   xmlns:inkscape="http://www.inkscape.org/namespaces/inkscape"
   version="1.0"
   width="100.16748pt"
   height="123.62376pt"
   viewBox="0 0 100.16748 123.62377"
   preserveAspectRatio="xMidYMid meet"
   id="svg8"
   sodipodi:docname="N47.svg"
   inkscape:version="0.92.4 (5da689c313, 2019-01-14)">
  <defs
     id="defs12" />
  <sodipodi:namedview
     pagecolor="#ffffff"
     bordercolor="#666666"
     borderopacity="1"
     objecttolerance="10"
     gridtolerance="10"
     guidetolerance="10"
     inkscape:pageopacity="0"
     inkscape:pageshadow="2"
     inkscape:window-width="1920"
     inkscape:window-height="1017"
     id="namedview10"
     showgrid="false"
     fit-margin-top="0"
     fit-margin-left="0"
     fit-margin-right="0"
     fit-margin-bottom="0"
     inkscape:zoom="4.72"
     inkscape:cx="126.20641"
     inkscape:cy="87.00216"
     inkscape:window-x="-8"
     inkscape:window-y="-8"
     inkscape:window-maximized="1"
     inkscape:current-layer="svg8" />
  <metadata
     id="metadata2">
Created by potrace 1.10, written by Peter Selinger 2001-2011
<rdf:RDF>
  <cc:Work
     rdf:about="">
    <dc:format>image/svg+xml</dc:format>
    <dc:type
       rdf:resource="http://purl.org/dc/dcmitype/StillImage" />
    <dc:title></dc:title>
  </cc:Work>
</rdf:RDF>
</metadata>
  <g
     transform="matrix(0.05,0,0,-0.05,151.58685,141.55683)"
     id="g6"
     style="fill:#000000;stroke:none">
    <path
       d="M 978,2620 C 495,2535 294,1906 640,1560 L 724,1476 537,838 350,200 H 237 c -72,0 -116,-9 -122,-25 -27,-74 -20,-75 998,-75 h 990 l -7,45 c -5,40 -19,46 -120,51 l -115,6 -22,84 c -12,46 -94,335 -183,641 l -160,557 79,76 c 442,425 23,1169 -597,1060 z m 303,-132 c 291,-85 444,-438 311,-718 -240,-508 -1014,-340 -1011,220 2,378 325,608 700,498 z m -306,-1113 85,-22 V 777 200 H 758 c -280,0 -301,3 -288,35 8,19 87,294 177,610 151,533 166,575 203,564 22,-7 78,-22 125,-34 z m 594,-526 c 90,-307 170,-579 179,-604 l 15,-45 h -302 -301 v 580 c 0,539 2,580 35,581 19,1 67,13 105,28 39,14 78,24 87,23 10,-2 91,-255 182,-563 z"
       id="path4"
       inkscape:connector-curvature="0" />
  </g>
  <flowRoot
     xml:space="preserve"
     id="flowRoot816"
     style="font-style:normal;font-variant:normal;font-weight:normal;font-stretch:normal;font-size:192px;line-height:1.25;font-family:sans-serif;-inkscape-font-specification:sans-serif;font-variant-ligatures:normal;font-variant-caps:normal;font-variant-numeric:normal;font-feature-settings:normal;text-align:start;letter-spacing:0px;word-spacing:0px;writing-mode:lr-tb;text-anchor:start;fill:#000000;fill-opacity:1;stroke:none"
     transform="matrix(0.75000001,0,0,0.75000001,157.00324,10.018122)"><flowRegion
       id="flowRegion818"><rect
         id="rect820"
         width="336.44067"
         height="208.47458"
         x="-616.10168"
         y="11.091143" /></flowRegion><flowPara
       id="flowPara822">𓇳</flowPara></flowRoot>  <g
     aria-label="𓇳"
     style="font-style:normal;font-variant:normal;font-weight:normal;font-stretch:normal;font-size:144px;line-height:1.25;font-family:sans-serif;-inkscape-font-specification:sans-serif;font-variant-ligatures:normal;font-variant-caps:normal;font-variant-numeric:normal;font-feature-settings:normal;text-align:start;letter-spacing:0px;word-spacing:0px;writing-mode:lr-tb;text-anchor:start;fill:#000000;fill-opacity:1;stroke:none;stroke-width:0.75"
     id="text826"
     transform="translate(92.17273,-0.15136964)">
    <path
       d="m -70.723503,30.962147 c 0,3.919948 0.731724,7.60469 2.195171,11.054243 1.515719,3.397291 3.554095,6.376457 6.11512,8.937482 2.561026,2.561026 5.540192,4.59941 8.937474,6.115112 3.449553,1.463448 7.134304,2.195172 11.054252,2.195172 3.91994,0 7.578559,-0.731724 10.97585,-2.195172 3.449553,-1.515702 6.454842,-3.554086 9.015868,-6.115112 2.561041,-2.561025 4.573278,-5.540191 6.036726,-8.937482 1.51571,-3.449553 2.273565,-7.134295 2.273565,-11.054243 0,-3.919949 -0.757855,-7.578568 -2.273565,-10.97585 -1.463448,-3.449551 -3.475685,-6.454844 -6.036726,-9.015876 -2.561026,-2.5610317 -5.566315,-4.5732705 -9.015868,-6.0367166 -3.397291,-1.5157127 -7.05591,-2.2735695 -10.97585,-2.2735695 -3.919948,0 -7.604699,0.7578568 -11.054252,2.2735695 -3.397282,1.4634461 -6.376448,3.4756849 -8.937474,6.0367166 -2.561025,2.561032 -4.599401,5.566325 -6.11512,9.015876 -1.463447,3.397282 -2.195171,7.055901 -2.195171,10.97585 z m -2.508763,0 c 0,-4.23354 0.810117,-8.231882 2.430369,-11.995035 1.620243,-3.763149 3.815415,-7.02977 6.585507,-9.7998655 2.770091,-2.770096 6.03671,-4.9652652 9.799862,-6.5855102 3.763144,-1.62024416 7.761494,-2.43036666 11.995042,-2.43036666 4.23354,0 8.23189,0.8101225 11.995034,2.43036666 3.763152,1.620245 7.029771,3.8154142 9.799862,6.5855102 2.770092,2.7700955 4.965264,6.0367165 6.585507,9.7998655 1.620252,3.763153 2.430369,7.761495 2.430369,11.995035 0,4.233539 -0.810117,8.231881 -2.430369,11.995033 -1.620243,3.763145 -3.815415,7.029771 -6.585507,9.799871 -2.770091,2.770092 -6.03671,4.965263 -9.799862,6.585515 -3.763144,1.620235 -7.761494,2.430353 -11.995034,2.430353 -4.233548,0 -8.231898,-0.810118 -11.995042,-2.430353 -3.763152,-1.620252 -7.029771,-3.815423 -9.799862,-6.585515 -2.770092,-2.7701 -4.965264,-6.036726 -6.585507,-9.799871 -1.620252,-3.763152 -2.430369,-7.761494 -2.430369,-11.995033 z"
       style="fill:#000000;stroke-width:0.83625519"
       id="path828"
       inkscape:connector-curvature="0"
       sodipodi:nodetypes="scscscccscccscscsssssssssssccsccss" />
  </g>
  <path
     style="fill:none;stroke:#000000;stroke-width:2.10000014;stroke-linecap:butt;stroke-linejoin:miter;stroke-miterlimit:4;stroke-dasharray:none;stroke-opacity:1"
     d="M 0.01170924,122.57376 14.258039,122.41488 34.333749,55.677582"
     id="path831"
     inkscape:connector-curvature="0"
     sodipodi:nodetypes="cc" />
  <path
     style="fill:none;stroke:#000000;stroke-width:2.10000014;stroke-linecap:butt;stroke-linejoin:miter;stroke-miterlimit:4;stroke-dasharray:none;stroke-opacity:1"
     d="M 100.15578,122.57376 85.909455,122.41488 65.833746,55.677582"
     id="path831-0"
     inkscape:connector-curvature="0"
     sodipodi:nodetypes="cc" />
  <path
     style="fill:none;stroke:#000000;stroke-width:2.10000014;stroke-linecap:butt;stroke-linejoin:miter;stroke-miterlimit:4;stroke-dasharray:none;stroke-opacity:1"
     d="M 0.01170924,122.57376 H 100.15578"
     id="path848"
     inkscape:connector-curvature="0" />
  <path
     style="fill:none;stroke:#000000;stroke-width:1.95000005;stroke-linecap:butt;stroke-linejoin:miter;stroke-miterlimit:4;stroke-dasharray:none;stroke-opacity:1"
     d="m 49.905779,60.921226 0.1589,62.129234"
     id="path850"
     inkscape:connector-curvature="0"
     sodipodi:nodetypes="cc" />
</svg>
