<?xml version="1.0" encoding="UTF-8" standalone="no"?>
<!-- Created with Inkscape (http://www.inkscape.org/) -->

<svg
   xmlns:dc="http://purl.org/dc/elements/1.1/"
   xmlns:cc="http://creativecommons.org/ns#"
   xmlns:rdf="http://www.w3.org/1999/02/22-rdf-syntax-ns#"
   xmlns:svg="http://www.w3.org/2000/svg"
   xmlns="http://www.w3.org/2000/svg"
   xmlns:sodipodi="http://sodipodi.sourceforge.net/DTD/sodipodi-0.dtd"
   xmlns:inkscape="http://www.inkscape.org/namespaces/inkscape"
   width="19.496485mm"
   height="19.496485mm"
   viewBox="0 0 19.496485 19.496485"
   version="1.1"
   id="svg5640"
   inkscape:version="0.92.4 (5da689c313, 2019-01-14)"
   sodipodi:docname="N5.svg">
  <defs
     id="defs5634" />
  <sodipodi:namedview
     id="base"
     pagecolor="#ffffff"
     bordercolor="#666666"
     borderopacity="1.0"
     inkscape:pageopacity="0.0"
     inkscape:pageshadow="2"
     inkscape:zoom="0.35"
     inkscape:cx="-337.54464"
     inkscape:cy="-372.50447"
     inkscape:document-units="mm"
     inkscape:current-layer="layer1"
     showgrid="false"
     fit-margin-top="0"
     fit-margin-left="0"
     fit-margin-right="0"
     fit-margin-bottom="0"
     inkscape:window-width="1920"
     inkscape:window-height="1017"
     inkscape:window-x="-8"
     inkscape:window-y="-8"
     inkscape:window-maximized="1" />
  <metadata
     id="metadata5637">
    <rdf:RDF>
      <cc:Work
         rdf:about="">
        <dc:format>image/svg+xml</dc:format>
        <dc:type
           rdf:resource="http://purl.org/dc/dcmitype/StillImage" />
        <dc:title></dc:title>
      </cc:Work>
    </rdf:RDF>
  </metadata>
  <g
     inkscape:label="Layer 1"
     inkscape:groupmode="layer"
     id="layer1"
     transform="translate(-1.9961868,-30.778375)">
    <g
       aria-label="𓇳"
       style="font-style:normal;font-variant:normal;font-weight:normal;font-stretch:normal;font-size:50.79999924px;line-height:1.25;font-family:sans-serif;-inkscape-font-specification:sans-serif;font-variant-ligatures:normal;font-variant-caps:normal;font-variant-numeric:normal;font-feature-settings:normal;text-align:start;letter-spacing:0px;word-spacing:0px;writing-mode:lr-tb;text-anchor:start;fill:#000000;fill-opacity:1;stroke:none;stroke-width:0.26458332"
       id="text6187">
      <path
         d="m 2.7899368,40.526617 q 0,1.860351 0.6945312,3.497461 0.7193359,1.612304 1.9347656,2.827734 1.2154297,1.21543 2.8277343,1.934766 1.6371094,0.694531 3.4974611,0.694531 1.860351,0 3.472656,-0.694531 1.637109,-0.719336 2.852539,-1.934766 1.21543,-1.21543 1.909961,-2.827734 0.719336,-1.63711 0.719336,-3.497461 0,-1.860352 -0.719336,-3.472656 -0.694531,-1.63711 -1.909961,-2.852539 -1.21543,-1.21543 -2.852539,-1.909961 -1.612305,-0.719336 -3.472656,-0.719336 -1.8603517,0 -3.4974611,0.719336 -1.6123046,0.694531 -2.8277343,1.909961 -1.2154297,1.215429 -1.9347656,2.852539 -0.6945312,1.612304 -0.6945312,3.472656 z m -0.79375,0 q 0,-2.00918 0.7689453,-3.795117 0.7689453,-1.785938 2.0835937,-3.100586 1.3146484,-1.314649 3.1005859,-2.083594 1.7859375,-0.768945 3.7951173,-0.768945 2.009179,0 3.795117,0.768945 1.785937,0.768945 3.100586,2.083594 1.314648,1.314648 2.083594,3.100586 0.768945,1.785937 0.768945,3.795117 0,2.009179 -0.768945,3.795117 -0.768946,1.785937 -2.083594,3.100586 -1.314649,1.314648 -3.100586,2.083594 -1.785938,0.768945 -3.795117,0.768945 -2.0091798,0 -3.7951173,-0.768945 Q 6.1633742,48.736968 4.8487258,47.42232 3.5340774,46.107671 2.7651321,44.321734 1.9961868,42.535796 1.9961868,40.526617 Z m 8.2103512,0.0248 q 0,0.570508 0.396875,0.967383 0.396875,0.396875 0.967383,0.396875 0.570508,0 0.967383,-0.396875 0.421679,-0.396875 0.421679,-0.967383 0,-0.570507 -0.421679,-0.967382 -0.396875,-0.42168 -0.967383,-0.42168 -0.570508,0 -0.967383,0.42168 -0.396875,0.396875 -0.396875,0.967382 z m -0.7937498,0 q 0,-0.917773 0.6201168,-1.53789 0.620118,-0.644922 1.537891,-0.644922 0.917773,0 1.537891,0.644922 0.644921,0.620117 0.644921,1.53789 0,0.917774 -0.644921,1.537891 -0.620118,0.620117 -1.537891,0.620117 -0.917773,0 -1.537891,-0.620117 -0.6201168,-0.620117 -0.6201168,-1.537891 z"
         style="stroke-width:0.26458332"
         id="path6189"
         inkscape:connector-curvature="0" />
    </g>
  </g>
</svg>
