<?xml version="1.0" encoding="UTF-8" standalone="no"?>
<!-- Created with Inkscape (http://www.inkscape.org/) -->

<svg
   xmlns:dc="http://purl.org/dc/elements/1.1/"
   xmlns:cc="http://creativecommons.org/ns#"
   xmlns:rdf="http://www.w3.org/1999/02/22-rdf-syntax-ns#"
   xmlns:svg="http://www.w3.org/2000/svg"
   xmlns="http://www.w3.org/2000/svg"
   xmlns:sodipodi="http://sodipodi.sourceforge.net/DTD/sodipodi-0.dtd"
   xmlns:inkscape="http://www.inkscape.org/namespaces/inkscape"
   width="34.602539mm"
   height="19.422071mm"
   viewBox="0 0 34.602539 19.422071"
   version="1.1"
   id="svg6198"
   inkscape:version="0.92.4 (5da689c313, 2019-01-14)"
   sodipodi:docname="N6.svg">
  <defs
     id="defs6192" />
  <sodipodi:namedview
     id="base"
     pagecolor="#ffffff"
     bordercolor="#666666"
     borderopacity="1.0"
     inkscape:pageopacity="0.0"
     inkscape:pageshadow="2"
     inkscape:zoom="0.35"
     inkscape:cx="-340.40179"
     inkscape:cy="-327.07143"
     inkscape:document-units="mm"
     inkscape:current-layer="layer1"
     showgrid="false"
     fit-margin-top="0"
     fit-margin-left="0"
     fit-margin-right="0"
     fit-margin-bottom="0"
     inkscape:window-width="1920"
     inkscape:window-height="1017"
     inkscape:window-x="-8"
     inkscape:window-y="-8"
     inkscape:window-maximized="1" />
  <metadata
     id="metadata6195">
    <rdf:RDF>
      <cc:Work
         rdf:about="">
        <dc:format>image/svg+xml</dc:format>
        <dc:type
           rdf:resource="http://purl.org/dc/dcmitype/StillImage" />
        <dc:title></dc:title>
      </cc:Work>
    </rdf:RDF>
  </metadata>
  <g
     inkscape:label="Layer 1"
     inkscape:groupmode="layer"
     id="layer1"
     transform="translate(-2.7521392,-42.873612)">
    <g
       aria-label="𓇴"
       style="font-style:normal;font-variant:normal;font-weight:normal;font-stretch:normal;font-size:50.79999924px;line-height:1.25;font-family:sans-serif;-inkscape-font-specification:sans-serif;font-variant-ligatures:normal;font-variant-caps:normal;font-variant-numeric:normal;font-feature-settings:normal;text-align:start;letter-spacing:0px;word-spacing:0px;writing-mode:lr-tb;text-anchor:start;fill:#000000;fill-opacity:1;stroke:none;stroke-width:0.26458332"
       id="text6745">
      <path
         d="m 37.354678,60.360917 -0.173633,0.79375 -2.852539,-0.520899 q -1.934766,-0.347265 -3.522266,-1.141015 -1.562695,-0.818555 -2.430859,-2.331641 -1.265039,2.505274 -3.646289,3.819922 -2.356445,1.314649 -5.060156,1.314649 -1.835547,0 -3.571875,-0.644922 -1.711524,-0.669727 -3.050977,-2.00918 -0.917773,0.917773 -1.984375,1.5875 -1.0666012,0.669727 -1.9843746,0.669727 -0.9921875,0 -1.9347656,-0.669727 Q 6.2247954,60.53455 5.9519438,60.261698 5.703897,59.988847 5.1333892,58.699003 4.5628814,57.409159 4.0667876,55.300761 L 3.8931548,54.581425 3.6947173,53.688456 Q 3.5954986,53.217167 3.5210845,52.721073 3.4714751,52.22498 3.4714751,51.75369 q 0,-0.520898 0.1240235,-1.016992 Q 3.2234282,50.612675 2.9753814,50.389433 2.7521392,50.166191 2.7521392,49.84373 q 0,-0.520899 0.6449219,-0.967383 0.6449218,-0.471289 1.6867187,-0.471289 1.5130859,0 2.6789062,0.892968 1.190625,0.868165 1.190625,3.398243 0,1.141015 -0.2976563,2.083593 -0.2728515,0.917774 -0.3224609,1.537891 l -0.024805,0.37207 q 0,0.173633 -0.024805,0.372071 0,0.917773 0.2728516,1.860351 0.4216797,0.42168 0.79375,0.595313 0.396875,0.173632 0.7937496,0.173632 0.520898,0 1.041797,-0.223242 0.545703,-0.248047 1.190625,-0.570508 -1.141016,-1.265039 -1.686719,-2.778125 -0.520898,-1.53789 -0.520898,-3.150195 0,-3.91914 2.678906,-6.994922 2.678906,-3.100586 6.945312,-3.100586 3.894336,0 6.523633,2.629297 2.654101,2.604492 2.951758,6.077149 0.297656,3.447851 2.083593,5.705078 1.785938,2.232422 6.002736,3.075781 z M 28.598623,52.869901 Q 28.449795,49.025175 26.291787,46.61912 24.158584,44.213066 21.28124,43.791386 l -0.768945,-0.09922 q -0.396875,0 -0.79375,-0.02481 -3.646289,0 -6.176367,2.654102 -2.530078,2.629297 -2.530078,6.35 0,3.819922 2.579687,6.35 2.604493,2.505273 6.201172,2.505273 3.497461,0 6.151563,-2.480468 2.654101,-2.505274 2.654101,-6.176368 z M 4.3892485,50.885526 q -0.1240234,0.372071 -0.1240234,0.79375 0,0.669727 0.2728516,2.083594 0.2728515,1.389063 0.6201171,2.604492 0.3720704,1.190625 0.79375,2.133203 0.4216797,0.917774 0.5457031,1.116211 0.1240235,0.173633 0.9425782,0.84336 0.8433593,0.669726 1.5874999,0.669726 0.4960938,0 0.992188,-0.198437 0.496093,-0.223242 0.967382,-0.570508 -0.37207,0.09922 -0.843359,0.09922 -0.9425782,0 -1.6619141,-0.471289 -0.6945312,-0.496095 -0.8185547,-1.26504 L 7.5394438,58.004472 q -0.049609,-0.347266 -0.049609,-0.669727 0,-0.37207 0.049609,-0.818555 0.074414,-0.471289 0.1736328,-0.892968 l 0.2232422,-1.165821 q 0.074414,-0.37207 0.1240234,-0.79375 0.074414,-0.421679 0.074414,-0.843359 0,-0.520898 -0.099219,-1.116211 Q 7.9363182,51.108769 7.8619043,50.711894 7.8122953,50.290214 7.1673731,49.868534 6.5472559,49.42205 5.82792,49.347636 q -0.6945312,-0.09922 -0.9673828,-0.09922 -0.2728516,0 -0.79375,0.148828 -0.2976562,0.124024 -0.471289,0.396875 0,0.04961 -0.024805,0.124024 0.2232422,0 0.9177734,0.173632 0.6945312,0.173633 1.1658203,0.173633 0.2728515,0 0.5457031,-0.04961 0.2976562,-0.07441 0.6449219,-0.173633 0.074414,0.297656 0.1240234,0.446484 l 0.074414,0.223243 q 0,0.09922 0.049609,0.09922 l -0.1984375,0.07441 q -0.3472656,0.09922 -0.5953124,0.148829 -0.2480469,0.04961 -0.4712891,0.04961 -0.4464844,0 -0.6697266,-0.02481 -0.1984375,-0.04961 -0.3720703,-0.09922 z M 32.39374,59.31912 q -1.190625,-0.843359 -1.95957,-1.95957 -0.768945,-1.141016 -1.265039,-2.505274 -0.04961,0.347266 -0.148828,0.694532 l -0.248047,0.694531 q 0.570508,1.240234 1.513086,1.95957 0.942578,0.694531 2.108398,1.116211 z"
         style="stroke-width:0.26458332"
         id="path6747"
         inkscape:connector-curvature="0" />
    </g>
  </g>
</svg>
