<?xml version="1.0" encoding="UTF-8" standalone="no"?>
<!-- Created with Inkscape (http://www.inkscape.org/) -->

<svg
   xmlns:dc="http://purl.org/dc/elements/1.1/"
   xmlns:cc="http://creativecommons.org/ns#"
   xmlns:rdf="http://www.w3.org/1999/02/22-rdf-syntax-ns#"
   xmlns:svg="http://www.w3.org/2000/svg"
   xmlns="http://www.w3.org/2000/svg"
   xmlns:sodipodi="http://sodipodi.sourceforge.net/DTD/sodipodi-0.dtd"
   xmlns:inkscape="http://www.inkscape.org/namespaces/inkscape"
   width="19.496485mm"
   height="37.380665mm"
   viewBox="0 0 19.496485 37.380665"
   version="1.1"
   id="svg10123"
   inkscape:version="0.92.4 (5da689c313, 2019-01-14)"
   sodipodi:docname="N7.svg">
  <defs
     id="defs10117" />
  <sodipodi:namedview
     id="base"
     pagecolor="#ffffff"
     bordercolor="#666666"
     borderopacity="1.0"
     inkscape:pageopacity="0.0"
     inkscape:pageshadow="2"
     inkscape:zoom="0.35"
     inkscape:cx="-368.97321"
     inkscape:cy="-380.00001"
     inkscape:document-units="mm"
     inkscape:current-layer="layer1"
     showgrid="false"
     fit-margin-top="0"
     fit-margin-left="0"
     fit-margin-right="0"
     fit-margin-bottom="0"
     inkscape:window-width="1920"
     inkscape:window-height="1017"
     inkscape:window-x="-8"
     inkscape:window-y="-8"
     inkscape:window-maximized="1" />
  <metadata
     id="metadata10120">
    <rdf:RDF>
      <cc:Work
         rdf:about="">
        <dc:format>image/svg+xml</dc:format>
        <dc:type
           rdf:resource="http://purl.org/dc/dcmitype/StillImage" />
        <dc:title></dc:title>
      </cc:Work>
    </rdf:RDF>
  </metadata>
  <g
     inkscape:label="Layer 1"
     inkscape:groupmode="layer"
     id="layer1"
     transform="translate(-10.311663,-10.911001)">
    <g
       aria-label="𓇵"
       style="font-style:normal;font-variant:normal;font-weight:normal;font-stretch:normal;font-size:50.79999924px;line-height:1.25;font-family:sans-serif;-inkscape-font-specification:'sans-serif, Normal';font-variant-ligatures:normal;font-variant-caps:normal;font-variant-numeric:normal;font-feature-settings:normal;text-align:start;letter-spacing:0px;word-spacing:0px;writing-mode:lr-tb;text-anchor:start;fill:#000000;fill-opacity:1;stroke:none;stroke-width:0.26458332"
       id="text10670">
      <path
         d="m 10.311663,20.659243 q 0,-2.00918 0.768945,-3.795117 0.768945,-1.785938 2.083594,-3.100586 1.314648,-1.314649 3.100586,-2.083594 1.785937,-0.768945 3.795117,-0.768945 2.009179,0 3.795117,0.768945 1.785937,0.768945 3.100586,2.083594 1.314648,1.314648 2.083593,3.100586 0.768946,1.785937 0.768946,3.795117 0,1.53789 -0.446485,2.926953 -0.446484,1.389062 -1.240234,2.554883 -0.79375,1.16582 -1.909961,2.083593 -1.091406,0.892969 -2.430859,1.438672 h 1.389062 l 4.191992,18.62832 h -18.62832 l 4.191992,-18.62832 h 1.389063 q -1.314648,-0.545703 -2.430859,-1.438672 -1.091407,-0.917773 -1.885157,-2.083593 -0.79375,-1.165821 -1.240234,-2.554883 -0.446484,-1.389063 -0.446484,-2.926953 z m 0.79375,0 q 0,1.860351 0.694531,3.497461 0.719336,1.612304 1.934765,2.827734 1.21543,1.21543 2.827735,1.934765 1.637109,0.694532 3.497461,0.694532 1.860351,0 3.472656,-0.694532 1.637109,-0.719335 2.852539,-1.934765 1.21543,-1.21543 1.909961,-2.827734 0.719336,-1.63711 0.719336,-3.497461 0,-1.860352 -0.719336,-3.472657 -0.694531,-1.637109 -1.909961,-2.852539 -1.21543,-1.215429 -2.852539,-1.90996 -1.612305,-0.719336 -3.472656,-0.719336 -1.860352,0 -3.497461,0.719336 -1.612305,0.694531 -2.827735,1.90996 -1.215429,1.21543 -1.934765,2.852539 -0.694531,1.612305 -0.694531,3.472657 z m 12.129492,26.416991 -2.678907,-11.06289 2.282032,-5.13457 h -5.581055 l 2.282031,5.13457 -2.678906,11.06289 z m -10.963672,0 h 3.423047 l 2.678906,-11.06289 -2.282031,-5.13457 z m 11.757422,-16.19746 -2.282032,5.13457 2.654102,11.06289 h 3.423047 z M 17.728264,20.684047 q 0,-0.917773 0.620117,-1.53789 0.620117,-0.644922 1.537891,-0.644922 0.917773,0 1.53789,0.644922 0.644922,0.620117 0.644922,1.53789 0,0.917774 -0.644922,1.537891 -0.620117,0.620117 -1.53789,0.620117 -0.917774,0 -1.537891,-0.620117 -0.620117,-0.620117 -0.620117,-1.537891 z m 0.79375,0 q 0,0.570508 0.396875,0.967383 0.396875,0.396875 0.967383,0.396875 0.570508,0 0.967383,-0.396875 0.421679,-0.396875 0.421679,-0.967383 0,-0.570507 -0.421679,-0.967382 -0.396875,-0.42168 -0.967383,-0.42168 -0.570508,0 -0.967383,0.42168 -0.396875,0.396875 -0.396875,0.967382 z"
         style="stroke-width:0.26458332"
         id="path10672"
         inkscape:connector-curvature="0" />
    </g>
  </g>
</svg>
