<?xml version="1.0" encoding="UTF-8" standalone="no"?>
<!-- Created with Inkscape (http://www.inkscape.org/) -->

<svg
   xmlns:dc="http://purl.org/dc/elements/1.1/"
   xmlns:cc="http://creativecommons.org/ns#"
   xmlns:rdf="http://www.w3.org/1999/02/22-rdf-syntax-ns#"
   xmlns:svg="http://www.w3.org/2000/svg"
   xmlns="http://www.w3.org/2000/svg"
   xmlns:sodipodi="http://sodipodi.sourceforge.net/DTD/sodipodi-0.dtd"
   xmlns:inkscape="http://www.inkscape.org/namespaces/inkscape"
   width="16.023827mm"
   height="25.598436mm"
   viewBox="0 0 16.023827 25.598436"
   version="1.1"
   id="svg10681"
   inkscape:version="0.92.4 (5da689c313, 2019-01-14)"
   sodipodi:docname="N8.svg">
  <defs
     id="defs10675" />
  <sodipodi:namedview
     id="base"
     pagecolor="#ffffff"
     bordercolor="#666666"
     borderopacity="1.0"
     inkscape:pageopacity="0.0"
     inkscape:pageshadow="2"
     inkscape:zoom="0.35"
     inkscape:cx="-346.11607"
     inkscape:cy="-369.92858"
     inkscape:document-units="mm"
     inkscape:current-layer="layer1"
     showgrid="false"
     fit-margin-top="0"
     fit-margin-left="0"
     fit-margin-right="0"
     fit-margin-bottom="0"
     inkscape:window-width="1920"
     inkscape:window-height="1017"
     inkscape:window-x="-8"
     inkscape:window-y="-8"
     inkscape:window-maximized="1" />
  <metadata
     id="metadata10678">
    <rdf:RDF>
      <cc:Work
         rdf:about="">
        <dc:format>image/svg+xml</dc:format>
        <dc:type
           rdf:resource="http://purl.org/dc/dcmitype/StillImage" />
        <dc:title></dc:title>
      </cc:Work>
    </rdf:RDF>
  </metadata>
  <g
     inkscape:label="Layer 1"
     inkscape:groupmode="layer"
     id="layer1"
     transform="translate(-4.2640436,-25.357959)">
    <g
       aria-label="𓇶"
       style="font-style:normal;font-variant:normal;font-weight:normal;font-stretch:normal;font-size:50.79999924px;line-height:1.25;font-family:sans-serif;-inkscape-font-specification:'sans-serif, Normal';font-variant-ligatures:normal;font-variant-caps:normal;font-variant-numeric:normal;font-feature-settings:normal;text-align:start;letter-spacing:0px;word-spacing:0px;writing-mode:lr-tb;text-anchor:start;fill:#000000;fill-opacity:1;stroke:none;stroke-width:0.26458332"
       id="text11228">
      <path
         d="m 17.460137,39.422216 2.80293,11.013281 -0.396875,0.520899 h -1.141016 l -0.37207,-0.322461 -2.629297,-10.070703 q -1.141016,0.570508 -2.430859,0.719336 v 9.276953 l -0.42168,0.396875 H 11.65584 L 11.28377,50.485107 V 41.307372 Q 10.638848,41.232958 10.018731,41.08413 9.4234185,40.910497 8.828106,40.637646 L 6.2236138,50.683544 5.8267388,50.956396 H 4.6609185 L 4.2888482,50.485107 7.0173638,39.521435 Q 5.578692,38.281201 4.9089654,36.74331 q -0.6449218,-1.537891 -0.6449218,-3.175 0,-3.323828 2.2820312,-5.754687 2.3068359,-2.455664 5.7050782,-2.455664 3.224609,0 5.630664,2.455664 2.406054,2.430859 2.406054,5.581054 0,1.63711 -0.669726,3.150195 -0.644922,1.488282 -2.158008,2.877344 z m -9.2769529,0.570508 0.5208984,-0.223242 q 0.3720704,0.198437 1.116211,0.496094 0.7441405,0.272851 1.8355465,0.272851 l 0.42168,0.396875 v 9.227344 h 0.42168 v -9.15293 l 0.37207,-0.471289 q 0.42168,0 1.314648,-0.198437 0.917774,-0.223243 1.661914,-0.719336 l 0.520899,0.248047 2.678906,10.293945 h 0.322461 l -2.728516,-10.814844 0.124024,-0.37207 q 1.463476,-1.190625 2.083594,-2.530078 0.644921,-1.364258 0.644921,-2.877344 0,-2.951758 -2.133203,-5.18418 -2.133203,-2.257226 -5.060156,-2.257226 -2.8029295,0 -5.0105466,2.033984 -2.2076172,2.033985 -2.2076172,5.283399 0,1.835546 0.6449219,3.175 0.6697265,1.314648 1.9595703,2.430859 l 0.099219,0.595312 -2.6044921,10.517188 h 0.3720703 z"
         style="stroke-width:0.26458332"
         id="path11230"
         inkscape:connector-curvature="0" />
    </g>
  </g>
</svg>
