<?xml version="1.0" encoding="UTF-8" standalone="no"?>
<!-- Created with Inkscape (http://www.inkscape.org/) -->

<svg
   xmlns:dc="http://purl.org/dc/elements/1.1/"
   xmlns:cc="http://creativecommons.org/ns#"
   xmlns:rdf="http://www.w3.org/1999/02/22-rdf-syntax-ns#"
   xmlns:svg="http://www.w3.org/2000/svg"
   xmlns="http://www.w3.org/2000/svg"
   xmlns:sodipodi="http://sodipodi.sourceforge.net/DTD/sodipodi-0.dtd"
   xmlns:inkscape="http://www.inkscape.org/namespaces/inkscape"
   width="19.397264mm"
   height="19.372459mm"
   viewBox="0 0 19.397264 19.372459"
   version="1.1"
   id="svg11239"
   inkscape:version="0.92.4 (5da689c313, 2019-01-14)"
   sodipodi:docname="N9.svg">
  <defs
     id="defs11233" />
  <sodipodi:namedview
     id="base"
     pagecolor="#ffffff"
     bordercolor="#666666"
     borderopacity="1.0"
     inkscape:pageopacity="0.0"
     inkscape:pageshadow="2"
     inkscape:zoom="0.35"
     inkscape:cx="-368.97321"
     inkscape:cy="-352.87948"
     inkscape:document-units="mm"
     inkscape:current-layer="layer1"
     showgrid="false"
     fit-margin-top="0"
     fit-margin-left="0"
     fit-margin-right="0"
     fit-margin-bottom="0"
     inkscape:window-width="1920"
     inkscape:window-height="1017"
     inkscape:window-x="-8"
     inkscape:window-y="-8"
     inkscape:window-maximized="1" />
  <metadata
     id="metadata11236">
    <rdf:RDF>
      <cc:Work
         rdf:about="">
        <dc:format>image/svg+xml</dc:format>
        <dc:type
           rdf:resource="http://purl.org/dc/dcmitype/StillImage" />
        <dc:title></dc:title>
      </cc:Work>
    </rdf:RDF>
  </metadata>
  <g
     inkscape:label="Layer 1"
     inkscape:groupmode="layer"
     id="layer1"
     transform="translate(-10.311663,-36.094844)">
    <g
       aria-label="𓇷"
       style="font-style:normal;font-variant:normal;font-weight:normal;font-stretch:normal;font-size:50.79999924px;line-height:1.25;font-family:sans-serif;-inkscape-font-specification:'sans-serif, Normal';font-variant-ligatures:normal;font-variant-caps:normal;font-variant-numeric:normal;font-feature-settings:normal;text-align:start;letter-spacing:0px;word-spacing:0px;writing-mode:lr-tb;text-anchor:start;fill:#000000;fill-opacity:1;stroke:none;stroke-width:0.26458332"
       id="text11786">
      <path
         d="m 19.985491,36.094844 q 4.638476,0.297656 7.168554,3.150195 2.554883,2.852539 2.554883,6.548437 0,4.043164 -2.827734,6.870899 -2.827735,2.802929 -6.920508,2.802929 -3.819922,0 -6.647656,-2.554883 -2.80293,-2.579687 -3.001367,-7.044531 l 0.04961,-0.595312 q 0,-0.248047 0.02481,-0.471289 0.421679,-3.770313 2.877343,-6.077149 2.480469,-2.306835 6.052344,-2.579687 z m 8.929687,10.095507 H 11.105413 q 0.272851,3.943945 2.951757,6.250781 2.703711,2.282032 6.027539,2.282032 3.472657,0 6.027539,-2.38125 2.579688,-2.38125 2.80293,-6.151563 z M 11.626311,42.668086 q -0.446484,1.289843 -0.520898,2.728515 h 17.809765 q -0.248047,-3.646289 -2.728516,-5.977929 -2.455664,-2.356446 -6.101953,-2.530078 l -0.595312,0.0248 q -1.141016,0.09922 -2.033984,0.396875 -0.892969,0.272852 -1.438672,0.545703 l -0.396875,0.198438 q -1.265039,0.74414 -2.257227,1.810742 -0.967383,1.041797 -1.488281,2.257227 z"
         style="stroke-width:0.26458332"
         id="path11788"
         inkscape:connector-curvature="0" />
    </g>
  </g>
</svg>
