<?xml version="1.0" encoding="UTF-8" standalone="no"?>
<!-- Created with Inkscape (http://www.inkscape.org/) -->

<svg
   xmlns:dc="http://purl.org/dc/elements/1.1/"
   xmlns:cc="http://creativecommons.org/ns#"
   xmlns:rdf="http://www.w3.org/1999/02/22-rdf-syntax-ns#"
   xmlns:svg="http://www.w3.org/2000/svg"
   xmlns="http://www.w3.org/2000/svg"
   xmlns:sodipodi="http://sodipodi.sourceforge.net/DTD/sodipodi-0.dtd"
   xmlns:inkscape="http://www.inkscape.org/namespaces/inkscape"
   width="37.256641mm"
   height="37.207031mm"
   viewBox="0 0 37.256641 37.207031"
   version="1.1"
   id="svg8134"
   inkscape:version="0.92.4 (5da689c313, 2019-01-14)"
   sodipodi:docname="O10.svg">
  <defs
     id="defs8128" />
  <sodipodi:namedview
     id="base"
     pagecolor="#ffffff"
     bordercolor="#666666"
     borderopacity="1.0"
     inkscape:pageopacity="0.0"
     inkscape:pageshadow="2"
     inkscape:zoom="0.35"
     inkscape:cx="-348.97266"
     inkscape:cy="-356.26047"
     inkscape:document-units="mm"
     inkscape:current-layer="layer1"
     showgrid="false"
     fit-margin-top="0"
     fit-margin-left="0"
     fit-margin-right="0"
     fit-margin-bottom="0"
     inkscape:window-width="1920"
     inkscape:window-height="1017"
     inkscape:window-x="-8"
     inkscape:window-y="-8"
     inkscape:window-maximized="1" />
  <metadata
     id="metadata8131">
    <rdf:RDF>
      <cc:Work
         rdf:about="">
        <dc:format>image/svg+xml</dc:format>
        <dc:type
           rdf:resource="http://purl.org/dc/dcmitype/StillImage" />
        <dc:title></dc:title>
      </cc:Work>
    </rdf:RDF>
  </metadata>
  <g
     inkscape:label="Layer 1"
     inkscape:groupmode="layer"
     id="layer1"
     transform="translate(-5.0198485,-17.36572)">
    <g
       aria-label="𓉡"
       transform="scale(0.26458333)"
       style="font-style:normal;font-variant:normal;font-weight:normal;font-stretch:normal;font-size:192px;line-height:1.25;font-family:sans-serif;-inkscape-font-specification:sans-serif;font-variant-ligatures:normal;font-variant-caps:normal;font-variant-numeric:normal;font-feature-settings:normal;text-align:start;letter-spacing:0px;word-spacing:0px;writing-mode:lr-tb;text-anchor:start;fill:#000000;fill-opacity:1;stroke:none"
       id="flowRoot8679">
      <path
         d="m 54.878906,141.66547 q -0.1875,-1.59375 -0.28125,-2.90625 l -0.1875,-1.21875 -0.9375,-1.40625 q -4.5,-5.8125 -6.65625,-11.53125 -2.0625,-5.8125 -2.0625,-12 l 0.09375,-0.9375 q 0,-3.375 -1.3125,-8.4375 -1.21875,-5.062502 -6.65625,-5.062502 -0.375,-0.1875 -0.9375,-0.5625 -0.375,-0.9375 -0.375,-1.875 0,-1.5 1.21875,-2.8125 1.3125,-1.40625 2.71875,-2.4375 1.125,-3 4.125,-4.5 3,-1.59375 8.71875,-1.59375 7.125,0 12.84375,3.1875 5.71875,3.1875 8.34375,9.75 5.53125,3.187502 9.28125,6.937502 3.84375,3.75 7.5,9.1875 l 9.09375,14.0625 q 0.937504,1.5 2.062504,3.09375 l 2.53125,3.65625 q 8.0625,11.53125 16.78125,22.3125 8.8125,10.78125 18.1875,21.28125 l -1.40625,1.875 -6.1875,-2.625 -6.28125,-2.4375 4.03125,4.40625 q 2.0625,2.34375 4.125,4.5 l -0.0937,0.84375 -0.1875,0.84375 q -2.4375,2.25 -5.71875,3.46875 -3.1875,1.21875 -6.9375,1.5 l -4.6875,0.46875 -6.375,0.46875 q -0.375,-0.1875 -0.9375,-0.5625 l -4.96875,-7.6875 q -4.781254,-7.21875 -8.906254,-12.09375 -4.03125,-4.875 -8.625,-8.71875 -0.84375,3 -1.5,6.09375 l -1.40625,6.1875 q -0.46875,0.1875 -0.9375,0.28125 -0.46875,0.0937 -0.9375,0.28125 -0.75,-0.65625 -1.5,-1.21875 l -1.59375,-1.125 q -0.5625,3 -0.75,6 l -0.09375,1.125 q 0,2.53125 0.9375,4.96875 2.0625,1.3125 4.96875,1.5 l 5.25,0.46875 q 1.03125,-1.03125 2.34375,-1.21875 l 0.5625,-0.0937 q 1.59375,0 2.8125,1.21875 1.21875,1.125 1.21875,2.8125 v 0.65625 l -1.59375,1.125 -2.0625,-1.3125 -0.75,0.9375 -1.03125,0.375 -5.625,-0.0937 q -3,0 -5.71875,-0.84375 -1.59375,0.84375 -3.46875,0.84375 l -0.5625,-0.0937 q -2.34375,0 -4.125,-0.84375 -1.40625,0.375 -4.3125,0.75 -2.8125,0.375 -4.78125,0.375 l -0.65625,0.0937 q -1.78125,0 -2.53125,-0.375 -0.75,-0.46875 -1.40625,-1.125 -0.46875,0 -0.75,0.375 l -0.65625,0.5625 -1.03125,0.375 h -20.71875 q -0.1875,0 -0.28125,-0.0937 l -0.375,-0.1875 -0.75,-0.9375 -0.5625,0.375 q -0.28125,0.1875 -0.46875,0.46875 l -2.0625,-0.9375 q 0.65625,-2.15625 2.34375,-3.1875 1.78125,-1.125 3.75,-1.125 0.9375,0 2.15625,0.28125 1.21875,0.28125 2.34375,0.84375 3.84375,0 7.5,-0.28125 3.75,-0.375 7.5,-0.84375 2.0625,-4.21875 2.8125,-8.25 0.75,-4.125 0.75,-8.71875 0,-5.34375 -1.03125,-11.625 -1.03125,-6.375 -1.59375,-10.6875 z m 66.187504,28.875 12.84375,5.15625 q -8.53125,-9.65625 -16.5,-19.59375 -7.96875,-10.03125 -15.375,-20.53125 l -2.531254,-3.65625 q -1.125,-1.59375 -2.0625,-3.09375 l -4.5,-6.84375 q -1.40625,-2.15625 -2.8125,-4.40625 -1.3125,-2.25 -2.71875,-4.40625 l -0.09375,0.1875 q 0,0.1875 -0.1875,0.84375 -0.75,-0.28125 -4.03125,-1.125 -3.28125,-0.9375 -5.4375,-1.40625 l -2.625,-0.5625 -2.625,-0.375 -5.34375,-0.65625 -2.8125,-0.1875 q -2.71875,-0.375 -5.53125,-0.375 -2.8125,0 -5.71875,-0.28125 -1.21875,0.75 -2.4375,2.53125 -1.21875,1.78125 -1.21875,5.25 v 0.84375 q 0,5.71875 2.15625,10.125 2.25,4.40625 5.15625,8.53125 v -0.0937 q 0.46875,0.84375 1.78125,2.34375 1.40625,1.5 3.46875,3.46875 l 7.6875,6 0.9375,0.65625 q 0.65625,0.46875 1.40625,0.9375 l 2.15625,1.3125 q 0.1875,0.1875 1.5,1.03125 1.40625,0.75 1.875,0.9375 l 3.65625,2.0625 h -0.09375 l 4.03125,1.96875 q 1.21875,0.65625 2.53125,1.21875 l 4.875,1.96875 q 3,1.3125 5.4375,2.25 l 7.687504,3 q 1.59375,0.65625 2.34375,0.75 h 0.1875 l 6,2.0625 5.0625,1.59375 q 1.3125,0.46875 1.875,0.5625 z M 85.722656,110.82172 q -0.5625,-0.5625 -1.3125,-1.5 l -3.1875,-3.5625 q -5.0625,-4.6875 -7.40625,-5.4375 -2.25,-0.750002 -3,-3.187502 -0.75,-2.53125 -3.84375,-5.34375 -3.09375,-2.8125 -7.5,-4.3125 3.375,2.0625 4.3125,4.3125 0.9375,2.25 0.9375,5.34375 0,4.500002 -2.90625,6.468752 -2.90625,1.96875 -7.5,1.96875 -1.21875,0 -2.53125,-0.0937 l 0.09375,-2.15625 q 1.125,0.1875 2.15625,0.1875 3.375,0 5.71875,-1.5 2.4375,-1.59375 2.4375,-5.062502 0,-4.125 -2.71875,-6.84375 -2.625,-2.71875 -7.59375,-2.71875 -3.46875,0 -5.71875,0.84375 -2.25,0.75 -2.25,3.75 0,2.15625 1.875,3.1875 1.96875,0.9375 5.15625,0.9375 l -1.3125,8.718752 -2.0625,-0.0937 0.84375,-7.125002 h -0.46875 q -2.0625,0 -4.03125,-1.3125 -1.875,-1.40625 -2.53125,-4.40625 -0.9375,0.84375 -2.15625,1.78125 -1.125,0.9375 -1.40625,2.25 4.5,0.375 6.5625,3.5625 2.0625,3.187502 2.53125,8.812502 l 0.375,6.28125 0.5625,-2.25 q 0.65625,-2.4375 2.34375,-4.03125 1.78125,-1.59375 4.78125,-1.59375 6.5625,0 13.03125,0.84375 6.5625,0.75 18.1875,3.9375 z m 34.031254,61.6875 q -0.1875,0 -0.9375,-0.1875 -0.75,-0.1875 -3.28125,-1.125 l -7.3125,-2.4375 -1.21875,-0.46875 q -0.1875,0 -1.96875,-0.5625 -1.6875,-0.5625 -3.5625,-1.3125 l -5.156254,-1.96875 q -0.9375,-0.375 -1.03125,-0.46875 -1.78125,-0.65625 -3.46875,-1.3125 -1.59375,-0.65625 -3.28125,-1.40625 l -0.46875,-0.28125 q 6.84375,5.53125 14.062504,16.3125 7.21875,10.78125 7.78125,11.625 0.65625,0 8.53125,-0.5625 7.875,-0.65625 12.1875,-4.125 z m -48.000004,14.15625 q -3,0.65625 -6.09375,0.9375 -3,0.1875 -6.5625,0.1875 -0.375,0 -0.65625,0.0937 -0.28125,0 -0.5625,0.0937 l 1.21875,0.9375 q 4.875,0 7.59375,-0.5625 l 1.40625,-0.28125 q 0.75,-0.1875 1.5,-0.28125 l 0.5625,-0.0937 q 0.84375,0 2.25,0.46875 1.5,0.46875 2.625,0.46875 h 0.75 q 0.84375,0 1.6875,-0.65625 l 1.03125,-0.1875 q 1.875,0.75 3.9375,0.9375 2.15625,0.1875 4.3125,0.1875 l -2.90625,-0.28125 q -5.25,-0.375 -7.125,-1.78125 -1.875,-1.5 -1.875,-6.75 0,-2.25 0.28125,-4.875 0.375,-2.71875 0.84375,-4.875 0.84375,-0.28125 1.78125,-0.75 l 3.28125,2.4375 1.3125,-6.09375 q 0.65625,-3 1.6875,-5.90625 l 0.9375,-0.375 q -2.53125,-1.03125 -9.09375,-4.59375 -6.46875,-3.65625 -11.0625,-7.3125 -4.5,-3.75 -5.4375,-4.78125 l -1.5,-1.5 q 0.375,1.125 0.75,1.96875 l 0.65625,1.6875 q 0.28125,0.84375 0.84375,1.875 l 1.21875,2.53125 q 0.28125,0.5625 1.125,2.0625 0.84375,1.40625 1.875,3 l 3.5625,5.71875 q 0.46875,1.03125 1.3125,2.53125 l 1.875,3.375 2.625,5.0625 q 0.375,1.96875 0.375,3.9375 0,1.59375 -0.1875,3.09375 l -1.3125,7.125 z m -13.78125,-38.71875 q 0.75,5.15625 1.5,9.9375 0.75,4.6875 0.9375,9.28125 v 1.59375 q 0,4.40625 -0.75,8.53125 -0.75,4.03125 -2.71875,8.4375 l 0.9375,-0.1875 h 0.9375 q 0,-3.84375 0.9375,-7.40625 1.03125,-3.5625 2.625,-7.03125 0.46875,-0.1875 0.84375,-0.28125 l 0.84375,-0.0937 4.78125,3.9375 1.21875,-1.59375 q 0.5625,-0.75 1.125,-1.59375 l -0.1875,-0.375 -0.09375,-0.28125 q -0.1875,-0.28125 -0.375,-0.65625 -0.1875,-0.46875 -0.84375,-1.6875 l -5.53125,-9.75 z m 3.09375,37.5 q 4.96875,0 9.28125,-0.9375 0.5625,-2.625 1.03125,-4.875 0.46875,-2.25 0.46875,-4.03125 v -1.125 l -1.875,2.53125 h -0.84375 l -0.84375,0.1875 q -1.125,-1.03125 -2.25,-1.96875 l -2.15625,-1.6875 q -1.21875,2.8125 -2.0625,5.8125 -0.75,3 -0.75,6.09375 z m -7.96875,-93.000002 q -2.71875,1.875 -4.125,1.875 -1.96875,0 -1.96875,-1.96875 0,-2.4375 1.96875,-2.4375 1.5,0 4.125,2.53125 z m 0,96.468752 0.375,-0.9375 -9.1875,0.9375 z m -19.03125,0 h 4.6875 l -0.9375,-0.375 q -0.65625,-0.28125 -1.5,-0.46875 -0.84375,-0.1875 -1.59375,-0.1875 -0.75,0 -1.3125,0.1875 z M 159.78516,206.25922 H 18.972656 V 65.634218 H 159.78516 Z m -36.5625,-106.125 V 70.321718 H 23.660156 V 201.57172 H 155.09766 v -101.4375 z m 31.875,-29.812502 h -27.1875 v 25.125 h 27.1875 z"
         id="path8687"
         inkscape:connector-curvature="0" />
    </g>
  </g>
</svg>
