<?xml version="1.0" encoding="UTF-8" standalone="no"?>
<!-- Created with Inkscape (http://www.inkscape.org/) -->

<svg
   xmlns:dc="http://purl.org/dc/elements/1.1/"
   xmlns:cc="http://creativecommons.org/ns#"
   xmlns:rdf="http://www.w3.org/1999/02/22-rdf-syntax-ns#"
   xmlns:svg="http://www.w3.org/2000/svg"
   xmlns="http://www.w3.org/2000/svg"
   xmlns:sodipodi="http://sodipodi.sourceforge.net/DTD/sodipodi-0.dtd"
   xmlns:inkscape="http://www.inkscape.org/namespaces/inkscape"
   width="37.256641mm"
   height="37.207031mm"
   viewBox="0 0 37.256641 37.207031"
   version="1.1"
   id="svg8696"
   inkscape:version="0.92.4 (5da689c313, 2019-01-14)"
   sodipodi:docname="O10A.svg">
  <defs
     id="defs8690" />
  <sodipodi:namedview
     id="base"
     pagecolor="#ffffff"
     bordercolor="#666666"
     borderopacity="1.0"
     inkscape:pageopacity="0.0"
     inkscape:pageshadow="2"
     inkscape:zoom="0.35"
     inkscape:cx="-317.54492"
     inkscape:cy="-347.87766"
     inkscape:document-units="mm"
     inkscape:current-layer="layer1"
     showgrid="false"
     fit-margin-top="0"
     fit-margin-left="0"
     fit-margin-right="0"
     fit-margin-bottom="0"
     inkscape:window-width="1920"
     inkscape:window-height="1017"
     inkscape:window-x="-8"
     inkscape:window-y="-8"
     inkscape:window-maximized="1" />
  <metadata
     id="metadata8693">
    <rdf:RDF>
      <cc:Work
         rdf:about="">
        <dc:format>image/svg+xml</dc:format>
        <dc:type
           rdf:resource="http://purl.org/dc/dcmitype/StillImage" />
        <dc:title></dc:title>
      </cc:Work>
    </rdf:RDF>
  </metadata>
  <g
     inkscape:label="Layer 1"
     inkscape:groupmode="layer"
     id="layer1"
     transform="translate(3.295406,-19.583672)">
    <g
       aria-label="𓉢"
       transform="scale(0.26458333)"
       style="font-style:normal;font-variant:normal;font-weight:normal;font-stretch:normal;font-size:192px;line-height:1.25;font-family:sans-serif;-inkscape-font-specification:sans-serif;font-variant-ligatures:normal;font-variant-caps:normal;font-variant-numeric:normal;font-feature-settings:normal;text-align:start;letter-spacing:0px;word-spacing:0px;writing-mode:lr-tb;text-anchor:start;fill:#000000;fill-opacity:1;stroke:none"
       id="flowRoot9241">
      <path
         d="M 128.35742,214.64203 H -12.455078 V 74.01703 H 128.35742 Z m -4.6875,-135.9375 H -7.7675781 v 131.4375 H 93.763672 v -31.96875 h 29.906248 z m -39.468748,66.09375 q -8.25,-0.28125 -15.1875,-0.28125 -6.84375,-0.0937 -10.59375,-0.0937 0,9.75 0.09375,19.5 0,4.125 0,8.71875 0.09375,4.59375 0.09375,9.1875 0.09375,4.59375 0.09375,9.09375 0,4.40625 0,8.34375 h -5.25 q 0,-3.9375 0,-8.34375 0.09375,-4.5 0.1875,-9.09375 0.09375,-4.59375 0.09375,-9.09375 0.09375,-4.59375 0.09375,-8.71875 0.09375,-9.75 0.09375,-19.59375 -2.15625,0 -5.25,0 -3.09375,0 -6.75,0.0937 -3.5625,0 -7.5,0.0937 -3.84375,0.0937 -7.5,0.28125 v -5.53125 q 3.375,0.1875 6.5625,0.1875 3.1875,0 6.375,0 3.28125,0 6.65625,0.0937 3.46875,0 7.3125,0.0937 -3.09375,-5.34375 -5.90625,-10.21875 -2.71875,-4.875 -4.78125,-9.09375 -2.0625,-4.3125 -3.28125,-8.0625 -1.21875,-3.75 -1.21875,-6.84375 0,-3.65625 1.40625,-6.65625 1.40625,-3.09375 3.75,-5.25 2.4375,-2.25 5.625,-3.46875 3.1875,-1.21875 6.75,-1.21875 3.5625,0 6.65625,1.21875 3.1875,1.21875 5.4375,3.375 2.34375,2.15625 3.65625,5.25 1.40625,3.09375 1.40625,6.75 0,3.09375 -1.21875,6.84375 -1.125,3.75 -3.1875,8.0625 -1.96875,4.21875 -4.6875,9.09375 -2.71875,4.875 -5.8125,10.21875 3.28125,0 6.65625,0 3.46875,0 6.84375,0 3.375,-0.0937 6.46875,-0.0937 3.1875,-0.0937 5.8125,-0.28125 z m -28.03125,-10.125 q 2.625,-4.6875 4.875,-8.625 2.34375,-3.9375 4.03125,-7.40625 1.6875,-3.5625 2.625,-6.75 0.9375,-3.1875 0.9375,-6.375 0,-2.53125 -0.9375,-4.6875 -0.9375,-2.25 -2.625,-3.84375 -1.6875,-1.59375 -4.03125,-2.4375 -2.25,-0.9375 -4.875,-0.9375 -2.53125,0 -4.875,1.03125 -2.25,0.9375 -4.03125,2.625 -1.78125,1.59375 -2.90625,3.75 -1.03125,2.15625 -1.03125,4.5 0,3.1875 0.9375,6.375 1.03125,3.1875 2.71875,6.65625 1.78125,3.46875 4.125,7.40625 2.34375,3.9375 5.0625,8.71875 z m 67.499998,75.46875 V 182.86078 H 98.451172 v 27.28125 z"
         id="path9249"
         inkscape:connector-curvature="0" />
    </g>
  </g>
</svg>
