<?xml version="1.0" encoding="UTF-8" standalone="no"?>
<!-- Created with Inkscape (http://www.inkscape.org/) -->

<svg
   xmlns:dc="http://purl.org/dc/elements/1.1/"
   xmlns:cc="http://creativecommons.org/ns#"
   xmlns:rdf="http://www.w3.org/1999/02/22-rdf-syntax-ns#"
   xmlns:svg="http://www.w3.org/2000/svg"
   xmlns="http://www.w3.org/2000/svg"
   xmlns:sodipodi="http://sodipodi.sourceforge.net/DTD/sodipodi-0.dtd"
   xmlns:inkscape="http://www.inkscape.org/namespaces/inkscape"
   width="37.256641mm"
   height="37.207031mm"
   viewBox="0 0 37.256641 37.207031"
   version="1.1"
   id="svg9258"
   inkscape:version="0.92.4 (5da689c313, 2019-01-14)"
   sodipodi:docname="O10B.svg">
  <defs
     id="defs9252" />
  <sodipodi:namedview
     id="base"
     pagecolor="#ffffff"
     bordercolor="#666666"
     borderopacity="1.0"
     inkscape:pageopacity="0.0"
     inkscape:pageshadow="2"
     inkscape:zoom="0.35"
     inkscape:cx="-331.83008"
     inkscape:cy="-359.11789"
     inkscape:document-units="mm"
     inkscape:current-layer="layer1"
     showgrid="false"
     fit-margin-top="0"
     fit-margin-left="0"
     fit-margin-right="0"
     fit-margin-bottom="0"
     inkscape:window-width="1920"
     inkscape:window-height="1017"
     inkscape:window-x="-8"
     inkscape:window-y="-8"
     inkscape:window-maximized="1" />
  <metadata
     id="metadata9255">
    <rdf:RDF>
      <cc:Work
         rdf:about="">
        <dc:format>image/svg+xml</dc:format>
        <dc:type
           rdf:resource="http://purl.org/dc/dcmitype/StillImage" />
        <dc:title></dc:title>
      </cc:Work>
    </rdf:RDF>
  </metadata>
  <g
     inkscape:label="Layer 1"
     inkscape:groupmode="layer"
     id="layer1"
     transform="translate(-0.48420816,-16.609694)">
    <g
       aria-label="𓉣"
       transform="scale(0.26458333)"
       style="font-style:normal;font-variant:normal;font-weight:normal;font-stretch:normal;font-size:192px;line-height:1.25;font-family:sans-serif;-inkscape-font-specification:sans-serif;font-variant-ligatures:normal;font-variant-caps:normal;font-variant-numeric:normal;font-feature-settings:normal;text-align:start;letter-spacing:0px;word-spacing:0px;writing-mode:lr-tb;text-anchor:start;fill:#000000;fill-opacity:1;stroke:none"
       id="flowRoot9803">
      <path
         d="M 142.64258,203.4018 H 1.8300781 V 62.776796 H 142.64258 Z M 106.08008,97.276796 v -29.8125 H 6.5175781 V 198.7143 H 137.95508 V 97.276796 Z m 31.875,-29.8125 h -27.1875 v 25.125 h 27.1875 z M 36.611328,154.74555 q -0.375,-1.875 -1.40625,-4.21875 -1.03125,-2.4375 -2.625,-5.34375 -3.1875,-5.71875 -3.1875,-11.53125 v -3.1875 l 2.15625,-0.65625 v 5.71875 q 0.1875,2.25 0.84375,4.3125 0.75,2.0625 1.59375,3.75 0.84375,1.6875 1.59375,3.09375 0.84375,1.40625 1.3125,2.4375 0.5625,1.59375 0.84375,2.625 0.375,1.03125 0.5625,2.0625 0.28125,1.03125 0.46875,2.25 0.28125,1.125 0.65625,2.90625 1.03125,0.5625 1.59375,1.03125 0.5625,0.375 1.03125,1.3125 l 0.5625,1.5 q 1.21875,-2.71875 3.28125,-4.21875 2.0625,-1.59375 4.21875,-2.15625 l 1.21875,-0.28125 q 0,-0.1875 0,-0.5625 0,-0.375 -0.09375,-1.21875 0,-0.65625 0,-1.40625 0.09375,-0.75 0.1875,-1.875 0.1875,-1.21875 0.375,-2.90625 0.28125,-1.6875 0.65625,-4.3125 1.5,-9.5625 3.5625,-17.25 2.0625,-7.78125 4.78125,-13.78125 5.53125,-12 11.4375,-12 0.75,0 1.21875,0.0937 0.46875,0.46875 0.65625,0.5625 0.46875,2.34375 0.46875,4.03125 0,1.59375 -0.28125,3.9375 -0.28125,2.34375 -0.75,5.34375 -0.46875,3 -0.75,6.1875 -0.28125,3.1875 -0.28125,6.46875 0,1.875 0.09375,3.84375 0.09375,1.875 0.28125,3.84375 0.65625,-0.75 1.3125,-1.5 0.65625,-0.75 1.40625,-1.5 9.75,-10.5 17.53125,-15.375 7.875002,-4.875 14.062502,-4.875 1.40625,0 3,0.28125 l 0.75,0.75 q -0.375,1.96875 -1.6875,4.3125 -1.3125,2.34375 -3,4.5 l -1.96875,2.53125 q -1.59375,2.0625 -3.1875,4.125 -1.500002,1.96875 -3.093752,3.9375 l -12,15.1875 q -1.40625,1.78125 -2.625,3.75 -1.21875,1.875 -2.25,3.9375 -0.28125,0.1875 -0.65625,0.28125 -0.28125,0.0937 -0.5625,0.375 -2.625,-0.9375 -5.53125,-1.3125 -2.8125,-0.46875 -4.59375,-0.46875 -1.875,0 -3.46875,0.46875 -1.59375,0.46875 -3,1.78125 3.1875,0.84375 4.875,2.0625 1.78125,1.125 3,3 1.03125,-1.59375 2.53125,-2.15625 1.5,-0.5625 3.28125,-0.5625 6,0 14.71875,4.03125 8.906252,4.125 13.500002,9.9375 4.6875,6 4.6875,8.71875 0,3.1875 -1.5,5.34375 -1.40625,2.0625 -3.375,2.0625 -0.65625,0 -1.5,-0.28125 -0.1875,-0.375 -0.375,-1.40625 0.65625,-1.3125 1.125,-2.625 0.5625,-1.3125 0.75,-2.8125 -4.5,-0.9375 -9.000002,-1.40625 -4.5,-0.46875 -9,-1.5 0.75,1.40625 1.3125,2.625 0.5625,1.21875 1.3125,2.25 0.75,1.03125 3.1875,1.96875 2.53125,0.84375 6.1875,1.5 v 1.40625 q -4.3125,-0.75 -7.125,-1.59375 -2.8125,-0.84375 -3.75,-2.25 -1.3125,-2.15625 -1.875,-3.65625 -0.5625,-1.59375 -0.9375,-2.53125 -4.21875,-1.3125 -7.6875,-2.90625 -3.46875,-1.59375 -4.6875,-2.90625 -2.34375,-2.625 -2.34375,-3.9375 -1.03125,1.03125 -2.25,2.0625 -1.125,0.9375 -3.09375,2.0625 0.1875,1.21875 0.28125,2.25 0.1875,0.9375 0.375,1.6875 0.1875,0.9375 0.28125,1.59375 l -2.8125,9.28125 0.65625,0.5625 -0.65625,1.3125 h -33.9375 l -0.28125,-0.9375 q 0.75,-0.5625 1.6875,-0.75 1.03125,-0.1875 3.5625,-0.1875 h 10.21875 l 4.125,-9.375 q -0.375,-0.9375 -0.75,-1.875 -0.28125,-0.75 -0.65625,-1.5 -0.375,-0.84375 -0.5625,-1.5 -2.53125,-1.40625 -4.125,-3.5625 -0.46875,1.875 -0.9375,3.75 -0.375,1.78125 -1.5,3.375 l -1.59375,-0.1875 q -1.6875,-2.25 -3.28125,-5.0625 -1.59375,-2.90625 -1.59375,-5.8125 0,-0.75 0.09375,-1.21875 0.09375,-0.46875 0.28125,-0.84375 0.75,-2.25 0.9375,-2.8125 0.28125,-0.65625 0.46875,-0.9375 0,-0.0937 -0.46875,-0.75 -0.375,-0.75 -0.9375,-1.59375 -0.5625,-0.9375 -1.03125,-1.6875 -0.46875,-0.75 -0.5625,-0.9375 -3.28125,-4.59375 -5.4375,-7.875 -2.15625,-3.375 -3.5625,-6 -1.3125,-2.71875 -1.96875,-4.96875 -0.65625,-2.25 -0.9375,-4.5 0.65625,0 1.03125,0 0.46875,0 0.9375,-0.0937 0,2.4375 2.0625,7.40625 2.0625,4.96875 6.1875,10.5 2.0625,2.71875 3.5625,5.0625 1.59375,2.25 2.71875,4.125 h 0.28125 z m 20.625,1.125 h 3.65625 q 1.875,-2.15625 4.3125,-3 2.53125,-0.84375 5.15625,-0.84375 2.4375,0 4.78125,0.5625 2.4375,0.46875 4.59375,1.125 1.59375,-3 5.34375,-8.15625 3.84375,-5.25 10.03125,-12.84375 12.375002,-15.1875 13.687502,-18.9375 -0.46875,0 -0.9375,0 -0.375,0 -0.84375,-0.0937 -10.500002,0 -27.093752,16.78125 -16.5,16.6875 -22.6875,25.40625 z m 13.875,-18.9375 q -0.28125,-2.4375 -0.375,-4.78125 -0.09375,-2.4375 -0.09375,-4.875 0,-8.53125 0.9375,-13.125 0.46875,-2.4375 0.75,-4.5 0.28125,-2.15625 0.28125,-4.03125 v -1.5 l -0.1875,-1.40625 q -2.15625,0 -4.03125,1.6875 -1.78125,1.6875 -3.1875,4.40625 l -2.8125,5.53125 q -4.59375,10.6875 -6.84375,23.53125 -2.25,12.84375 -2.25,18.09375 l 1.5,-0.0937 q 0.1875,-0.1875 1.03125,-1.3125 0.9375,-1.21875 2.53125,-3.375 1.59375,-2.15625 4.78125,-5.625 3.1875,-3.5625 7.96875,-8.625 z m -7.5,36.375 q -0.46875,0.1875 -1.03125,0.375 -0.5625,0.0937 -1.3125,0.28125 l 0.9375,4.3125 -3.9375,9.375 h 3.1875 l 3,-9.46875 q -0.09375,-0.75 -0.28125,-1.6875 -0.1875,-0.75 -0.28125,-1.59375 -0.09375,-0.84375 -0.28125,-1.59375 z m -10.59375,14.34375 h 3.28125 l 4.125,-9.375 -0.84375,-4.03125 q -0.9375,0.1875 -1.78125,0.1875 -0.75,0 -1.5,0 l 1.03125,3.84375 z m -6.28125,0 h 4.3125 l 4.21875,-9.375 -0.9375,-3.84375 q -1.21875,-0.0937 -2.71875,-0.1875 -1.5,-0.1875 -2.71875,-0.5625 l 1.875,4.59375 z m -3.1875,-20.71875 q 0.84375,2.71875 2.71875,3.84375 0.46875,0.28125 1.03125,0.65625 0.5625,0.28125 1.5,0.65625 1.03125,0.375 2.625,0.65625 1.6875,0.1875 4.3125,0.1875 3.9375,0 7.6875,-1.6875 3.84375,-1.78125 6.75,-5.34375 l 0.09375,-2.34375 q -0.46875,-1.40625 -1.5,-2.34375 -0.9375,-1.03125 -2.25,-1.6875 -1.21875,-0.75 -2.625,-1.125 -1.40625,-0.46875 -2.625,-0.65625 h -8.8125 q -3.46875,0 -6.28125,3.09375 -2.625,2.90625 -2.625,6.09375 z m 63.375002,14.15625 q 0,1.5 -0.46875,3 -0.375,1.40625 -0.9375,2.71875 1.21875,-0.1875 1.875,-1.96875 0.65625,-1.875 0.65625,-3.5625 -3.75,-9.75 -14.250002,-15.28125 -10.21875,-5.4375 -16.875,-5.4375 -1.5,0 -2.71875,0.65625 -1.21875,0.5625 -2.0625,2.25 v 1.875 q 3.375,1.21875 5.8125,2.8125 2.4375,1.5 4.125,3.09375 1.6875,1.59375 2.71875,3.09375 1.03125,1.40625 1.59375,2.34375 2.34375,0.75 5.15625,1.21875 2.8125,0.46875 5.625,0.84375 2.8125,0.375 5.156252,0.75 2.4375,0.28125 3.9375,0.65625 z M 41.392578,166.2768 q -0.75,-2.8125 -1.40625,-4.21875 -0.5625,-1.5 -2.15625,-1.5 -0.375,0.375 -1.21875,2.15625 -0.75,1.6875 -0.75,3.375 0,2.34375 1.125,4.59375 1.125,2.15625 2.4375,4.03125 0.84375,-1.875 1.03125,-3.84375 0.28125,-2.0625 0.9375,-3.9375 z m 42.84375,9.84375 q -1.6875,-1.96875 -3.5625,-3.65625 -1.59375,-1.5 -3.75,-2.90625 -2.15625,-1.40625 -4.5,-2.15625 0.5625,1.6875 1.21875,2.8125 0.65625,1.125 1.875,2.0625 1.3125,0.9375 3.375,1.875 2.0625,0.84375 5.34375,1.96875 z M 38.017578,166.0893 q -1.03125,-0.75 -1.03125,-1.3125 0,-0.5625 1.03125,-0.5625 0.9375,0 0.9375,0.5625 0,0.46875 -0.9375,1.3125 z"
         id="path9811"
         inkscape:connector-curvature="0" />
    </g>
  </g>
</svg>
