<?xml version="1.0" encoding="UTF-8" standalone="no"?>
<!-- Created with Inkscape (http://www.inkscape.org/) -->

<svg
   xmlns:dc="http://purl.org/dc/elements/1.1/"
   xmlns:cc="http://creativecommons.org/ns#"
   xmlns:rdf="http://www.w3.org/1999/02/22-rdf-syntax-ns#"
   xmlns:svg="http://www.w3.org/2000/svg"
   xmlns="http://www.w3.org/2000/svg"
   xmlns:sodipodi="http://sodipodi.sourceforge.net/DTD/sodipodi-0.dtd"
   xmlns:inkscape="http://www.inkscape.org/namespaces/inkscape"
   width="32.717381mm"
   height="38.025585mm"
   viewBox="0 0 32.717381 38.025585"
   version="1.1"
   id="svg9820"
   inkscape:version="0.92.4 (5da689c313, 2019-01-14)"
   sodipodi:docname="O10C.svg">
  <defs
     id="defs9814" />
  <sodipodi:namedview
     id="base"
     pagecolor="#ffffff"
     bordercolor="#666666"
     borderopacity="1.0"
     inkscape:pageopacity="0.0"
     inkscape:pageshadow="2"
     inkscape:zoom="0.35"
     inkscape:cx="362.45507"
     inkscape:cy="-177.61789"
     inkscape:document-units="mm"
     inkscape:current-layer="layer1"
     showgrid="false"
     fit-margin-top="0"
     fit-margin-left="0"
     fit-margin-right="0"
     fit-margin-bottom="0"
     inkscape:window-width="1920"
     inkscape:window-height="1017"
     inkscape:window-x="-8"
     inkscape:window-y="-8"
     inkscape:window-maximized="1" />
  <metadata
     id="metadata9817">
    <rdf:RDF>
      <cc:Work
         rdf:about="">
        <dc:format>image/svg+xml</dc:format>
        <dc:type
           rdf:resource="http://purl.org/dc/dcmitype/StillImage" />
        <dc:title></dc:title>
      </cc:Work>
    </rdf:RDF>
  </metadata>
  <g
     inkscape:label="Layer 1"
     inkscape:groupmode="layer"
     id="layer1"
     transform="translate(183.21207,-63.813015)">
    <g
       aria-label="𓉤"
       transform="scale(0.26458333)"
       style="font-style:normal;font-variant:normal;font-weight:normal;font-stretch:normal;font-size:192px;line-height:1.25;font-family:sans-serif;-inkscape-font-specification:sans-serif;font-variant-ligatures:normal;font-variant-caps:normal;font-variant-numeric:normal;font-feature-settings:normal;text-align:start;letter-spacing:0px;word-spacing:0px;writing-mode:lr-tb;text-anchor:start;fill:#000000;fill-opacity:1;stroke:none"
       id="flowRoot10365">
      <path
         d="m -581.92383,262.55805 1.125,1.40625 v 3 h 3 l 1.5,1.96875 -4.5,11.90625 v 89.4375 q 3.75,1.5 7.3125,4.3125 3.65625,2.8125 4.6875,8.34375 l -1.5,1.96875 h -120.9375 l -1.21875,-2.25 q 2.15625,-6 4.6875,-8.53125 2.625,-2.625 4.6875,-3.1875 l 2.53125,-0.84375 v -89.15625 l -4.3125,-11.71875 1.21875,-2.25 h 3.09375 q 0.9375,-15.75 7.40625,-20.71875 6.46875,-5.0625 18,-5.0625 6.1875,0 18.375,2.71875 12.28125,2.625 54.84375,18.65625 z m -95.625,107.25 h 93.75 V 282.1518 h -93.75 z m 53.0625,-7.40625 h -13.6875 l -1.40625,-1.78125 2.8125,-12 q -5.4375,-2.71875 -10.78125,-7.5 -5.25,-4.875 -10.6875,-14.25 -0.84375,0.5625 -1.96875,0.9375 -1.125,0.28125 -1.96875,0.28125 -2.625,0 -4.125,-2.71875 -1.5,-2.8125 -1.5,-7.78125 0,-5.34375 1.125,-7.6875 1.21875,-2.4375 3.84375,-2.4375 2.4375,0 4.3125,1.875 0.84375,-5.34375 4.3125,-10.6875 3.46875,-5.34375 9.75,-7.78125 6.375,-2.53125 12.46875,-2.53125 10.125,0 17.625,5.71875 7.59375,5.625 9.28125,15.1875 0.65625,-0.65625 1.59375,-1.03125 0.9375,-0.46875 1.78125,-0.46875 3.09375,0 4.6875,2.53125 1.59375,2.4375 1.59375,7.6875 -0.28125,4.40625 -1.78125,7.03125 -1.5,2.53125 -4.59375,2.53125 -1.59375,0 -3.84375,-0.84375 -6.28125,10.96875 -10.875,15.46875 -4.5,4.40625 -9.28125,6.5625 l 2.8125,11.71875 z m 26.0625,-44.71875 v -2.0625 q 0,-2.0625 -0.84375,-3.46875 -0.84375,-1.40625 -2.34375,-1.40625 -1.21875,0.46875 -2.0625,1.3125 -0.75,0.84375 -1.40625,1.96875 l -2.25,0.1875 q -0.84375,-11.25 -8.25,-17.25 -7.40625,-6 -18.46875,-5.15625 -10.96875,0.75 -16.3125,7.21875 -5.34375,6.375 -6.46875,15.28125 l -2.15625,-0.46875 -1.40625,-2.15625 q -0.75,-0.9375 -1.96875,-1.40625 -1.40625,0 -2.0625,2.34375 -0.65625,2.34375 -0.65625,4.6875 0,2.625 0.65625,5.15625 0.65625,2.53125 2.71875,2.53125 0.65625,0 1.40625,-0.375 0.75,-0.375 1.59375,-1.03125 l 2.25,0.1875 q 4.03125,7.59375 9.09375,13.03125 5.15625,5.4375 12.75,9.5625 h 6.75 q 5.25,-2.4375 9.9375,-7.21875 4.78125,-4.875 10.3125,-15.1875 l 2.15625,-0.46875 q 1.96875,1.03125 3.46875,1.03125 2.0625,0 2.71875,-1.875 0.65625,-1.96875 0.84375,-4.96875 z m -78.84375,-54.28125 -0.1875,3.5625 h 93.65625 v -1.96875 q -51.65625,-20.71875 -72.46875,-20.71875 -11.34375,0 -16.125,5.90625 -4.6875,5.8125 -4.875,13.21875 z m 105.1875,118.5 q -0.75,-2.71875 -2.625,-4.59375 -1.78125,-1.875 -7.875,-4.5 h -96.28125 q -3.1875,0 -5.90625,2.53125 -2.625,2.4375 -4.21875,6.5625 z m -109.3125,-111.9375 3.375,9.1875 h 94.6875 l 3.46875,-9.1875 z m 59.25,64.59375 q -3.75,2.625 -8.8125,2.625 -4.96875,0 -10.125,-2.625 4.59375,-3.375 6.5625,-3.375 1.125,0 3.09375,0.9375 l 2.90625,-1.125 q 2.34375,0 6.375,3.5625 z m -6.46875,15.1875 q -1.5,0.375 -2.8125,0.375 -1.21875,0 -2.4375,-0.375 l -2.34375,9.65625 h 9.84375 z m -7.5,-35.0625 q -3.1875,2.15625 -7.875,2.15625 l -1.78125,-0.1875 -5.25,-0.28125 q 5.15625,-3.375 9.375,-3.375 3,0 5.53125,1.6875 z m 23.15625,1.6875 -4.5,0.28125 q -1.6875,0.1875 -2.15625,0.1875 -4.40625,0 -6.5625,-2.15625 2.625,-1.6875 5.0625,-1.6875 2.90625,0 8.15625,3.375 z"
         id="path10373"
         inkscape:connector-curvature="0" />
    </g>
  </g>
</svg>
