<?xml version="1.0" encoding="UTF-8" standalone="no"?>
<!-- Created with Inkscape (http://www.inkscape.org/) -->

<svg
   xmlns:dc="http://purl.org/dc/elements/1.1/"
   xmlns:cc="http://creativecommons.org/ns#"
   xmlns:rdf="http://www.w3.org/1999/02/22-rdf-syntax-ns#"
   xmlns:svg="http://www.w3.org/2000/svg"
   xmlns="http://www.w3.org/2000/svg"
   xmlns:sodipodi="http://sodipodi.sourceforge.net/DTD/sodipodi-0.dtd"
   xmlns:inkscape="http://www.inkscape.org/namespaces/inkscape"
   width="37.256641mm"
   height="37.256641mm"
   viewBox="0 0 37.256641 37.256641"
   version="1.1"
   id="svg7879"
   inkscape:version="0.92.4 (5da689c313, 2019-01-14)"
   sodipodi:docname="O13.svg">
  <defs
     id="defs7873" />
  <sodipodi:namedview
     id="base"
     pagecolor="#ffffff"
     bordercolor="#666666"
     borderopacity="1.0"
     inkscape:pageopacity="0.0"
     inkscape:pageshadow="2"
     inkscape:zoom="0.35"
     inkscape:cx="-354.6875"
     inkscape:cy="-357.14285"
     inkscape:document-units="mm"
     inkscape:current-layer="layer1"
     showgrid="false"
     fit-margin-top="0"
     fit-margin-left="0"
     fit-margin-right="0"
     fit-margin-bottom="0"
     inkscape:window-width="1920"
     inkscape:window-height="1017"
     inkscape:window-x="-8"
     inkscape:window-y="-8"
     inkscape:window-maximized="1" />
  <metadata
     id="metadata7876">
    <rdf:RDF>
      <cc:Work
         rdf:about="">
        <dc:format>image/svg+xml</dc:format>
        <dc:type
           rdf:resource="http://purl.org/dc/dcmitype/StillImage" />
        <dc:title></dc:title>
      </cc:Work>
    </rdf:RDF>
  </metadata>
  <g
     inkscape:label="Layer 1"
     inkscape:groupmode="layer"
     id="layer1"
     transform="translate(-6.5319009,-17.082647)">
    <g
       aria-label="𓉧"
       style="font-style:normal;font-variant:normal;font-weight:normal;font-stretch:normal;font-size:50.79999924px;line-height:1.25;font-family:sans-serif;-inkscape-font-specification:'sans-serif, Normal';font-variant-ligatures:normal;font-variant-caps:normal;font-variant-numeric:normal;font-feature-settings:normal;text-align:start;letter-spacing:0px;word-spacing:0px;writing-mode:lr-tb;text-anchor:start;fill:#000000;fill-opacity:1;stroke:none;stroke-width:0.26458332"
       id="text8426">
      <path
         d="M 43.788541,21.919561 V 54.339287 H 29.625065 v -1.16582 h -4.861719 v -1.116211 h 4.861719 v -2.00918 h -4.861719 v -1.116211 h 4.861719 V 46.897881 H 24.763346 V 45.78167 h 4.861719 v -2.182813 h -4.861719 v -1.116211 h 4.861719 v -2.505273 h -4.861719 v -1.116211 h 4.861719 v -2.108398 h -4.861719 v -1.116211 h 4.861719 v -2.108399 h -4.861719 v -1.116211 h 4.861719 v -2.108398 h -4.861719 v -1.116211 h 4.861719 v -1.066601 h 1.240234 V 53.099052 H 42.523502 V 23.159795 H 12.609049 V 54.339287 H 11.368815 V 53.272685 H 6.5319009 V 52.181279 H 11.368815 V 50.048076 H 6.5319009 V 48.981474 H 11.368815 V 46.848271 H 6.5319009 V 45.707256 H 11.368815 V 43.598857 H 6.5319009 V 42.482646 H 11.368815 V 39.977373 H 6.5319009 V 38.861162 H 11.368815 V 36.703154 H 6.5319009 v -1.141015 h 4.8369141 v -2.00918 H 6.5319009 v -1.141016 h 4.8369141 v -1.95957 H 6.5319009 V 29.336162 H 11.368815 V 27.15335 H 6.5319009 v -1.116211 h 4.8369141 v -4.117578 h 4.092773 v -4.836914 h 1.141016 v 4.836914 h 2.158008 v -4.836914 h 1.116211 v 4.836914 h 1.984375 v -4.836914 h 1.11621 v 4.836914 h 2.033985 v -4.836914 h 1.116211 v 4.836914 h 2.182812 v -4.836914 h 1.116211 v 4.836914 H 31.9319 v -4.836914 h 1.116211 v 4.836914 h 2.108399 v -4.836914 h 1.116211 v 4.836914 h 2.133203 v -4.836914 h 1.091406 v 4.836914 z"
         style="stroke-width:0.26458332"
         id="path8428"
         inkscape:connector-curvature="0" />
    </g>
  </g>
</svg>
