<?xml version="1.0" encoding="UTF-8" standalone="no"?>
<!-- Created with Inkscape (http://www.inkscape.org/) -->

<svg
   xmlns:dc="http://purl.org/dc/elements/1.1/"
   xmlns:cc="http://creativecommons.org/ns#"
   xmlns:rdf="http://www.w3.org/1999/02/22-rdf-syntax-ns#"
   xmlns:svg="http://www.w3.org/2000/svg"
   xmlns="http://www.w3.org/2000/svg"
   xmlns:sodipodi="http://sodipodi.sourceforge.net/DTD/sodipodi-0.dtd"
   xmlns:inkscape="http://www.inkscape.org/namespaces/inkscape"
   width="38.050388mm"
   height="38.050388mm"
   viewBox="0 0 38.050388 38.050388"
   version="1.1"
   id="svg9553"
   inkscape:version="0.92.4 (5da689c313, 2019-01-14)"
   sodipodi:docname="O15.svg">
  <defs
     id="defs9547" />
  <sodipodi:namedview
     id="base"
     pagecolor="#ffffff"
     bordercolor="#666666"
     borderopacity="1.0"
     inkscape:pageopacity="0.0"
     inkscape:pageshadow="2"
     inkscape:zoom="0.35"
     inkscape:cx="-377.54464"
     inkscape:cy="-384.21429"
     inkscape:document-units="mm"
     inkscape:current-layer="layer1"
     showgrid="false"
     fit-margin-top="0"
     fit-margin-left="0"
     fit-margin-right="0"
     fit-margin-bottom="0"
     inkscape:window-width="1920"
     inkscape:window-height="1017"
     inkscape:window-x="-8"
     inkscape:window-y="-8"
     inkscape:window-maximized="1" />
  <metadata
     id="metadata9550">
    <rdf:RDF>
      <cc:Work
         rdf:about="">
        <dc:format>image/svg+xml</dc:format>
        <dc:type
           rdf:resource="http://purl.org/dc/dcmitype/StillImage" />
        <dc:title></dc:title>
      </cc:Work>
    </rdf:RDF>
  </metadata>
  <g
     inkscape:label="Layer 1"
     inkscape:groupmode="layer"
     id="layer1"
     transform="translate(-12.57952,-9.1262472)">
    <g
       aria-label="𓉩"
       style="font-style:normal;font-variant:normal;font-weight:normal;font-stretch:normal;font-size:50.79999924px;line-height:1.25;font-family:sans-serif;-inkscape-font-specification:'sans-serif, Normal';font-variant-ligatures:normal;font-variant-caps:normal;font-variant-numeric:normal;font-feature-settings:normal;text-align:start;letter-spacing:0px;word-spacing:0px;writing-mode:lr-tb;text-anchor:start;fill:#000000;fill-opacity:1;stroke:none;stroke-width:0.26458332"
       id="text10100">
      <path
         d="m 50.208231,9.1262472 0.421679,0.396875 v 5.2089838 l -0.421679,0.396875 h -0.79375 v 26.044922 h 0.79375 l 0.421679,0.396875 v 5.208984 l -0.421679,0.396875 h -4.415235 l -0.37207,-0.471289 v -5.060156 l 0.37207,-0.471289 h 0.84336 V 15.128981 h -0.84336 l -0.37207,-0.471289 v -1.53789 H 17.366825 v 1.612304 l -0.42168,0.396875 H 16.1762 v 26.044922 h 0.768945 l 0.42168,0.396875 v 2.00918 H 34.209207 V 20.41238 l 0.372071,-0.471289 h 2.009179 l 0.42168,0.396875 v 20.835937 h 1.5875 l 0.42168,0.396875 v 5.208984 l -0.42168,0.396875 H 34.581278 L 34.209207,46.705348 V 45.986012 H 17.366825 v 0.79375 l -0.42168,0.396875 H 12.951591 L 12.57952,46.705348 v -5.060156 l 0.372071,-0.471289 h 0.818554 V 15.128981 H 12.951591 L 12.57952,14.657692 V 9.5975363 l 0.372071,-0.4712891 h 3.993554 l 0.42168,0.396875 V 10.341677 H 45.420926 V 9.5975363 l 0.37207,-0.4712891 z M 35.002957,20.734841 v 23.241992 l -0.421679,0.396875 H 16.945145 l -0.37207,-0.471289 V 41.967653 H 15.75452 L 15.38245,41.496364 V 14.806521 l 0.37207,-0.471289 h 0.818555 v -1.537891 l 0.37207,-0.471289 h 28.847851 l 0.42168,0.396875 v 1.612305 h 0.79375 l 0.42168,0.396874 v 26.838672 l -0.42168,0.396875 h -0.79375 v 4.415234 h 3.621484 v -4.415234 h -0.843359 l -0.37207,-0.471289 V 14.806521 l 0.37207,-0.471289 H 49.83616 V 9.9199972 h -3.621484 v 0.8185548 l -0.42168,0.396875 H 16.945145 l -0.37207,-0.471289 V 9.9199972 H 13.37327 v 4.4152348 h 0.768945 l 0.42168,0.396874 v 26.838672 l -0.42168,0.396875 H 13.37327 v 4.415234 h 3.199805 v -0.719336 l 0.37207,-0.471289 h 17.636133 l 0.421679,0.396875 v 0.79375 h 3.22461 v -4.415234 h -1.63711 l -0.37207,-0.471289 V 20.734841 Z M 20.09534,16.741286 h 10.814844 l 0.396875,0.520899 -2.406055,9.202539 -0.396875,0.272851 h -6.002734 l -0.37207,-0.322461 -2.406055,-9.202539 z m 0.545704,0.79375 2.182812,8.408789 h 5.407422 L 30.41409,17.535036 Z M 30.984598,40.950661 H 19.772879 l -0.37207,-0.471289 q 0.148828,-1.562696 2.207617,-2.728516 2.083594,-1.16582 3.795117,-1.16582 1.761133,0 3.770313,1.190625 2.033984,1.16582 2.232422,2.778125 z m -10.740429,-0.79375 h 10.26914 q -0.37207,-1.016992 -2.033984,-1.885156 -1.661914,-0.868164 -3.075782,-0.892969 -1.438671,0 -3.075781,0.868164 -1.612304,0.868164 -2.083593,1.909961 z"
         style="stroke-width:0.26458332"
         id="path10102"
         inkscape:connector-curvature="0" />
    </g>
  </g>
</svg>
