<?xml version="1.0" encoding="UTF-8" standalone="no"?>
<!-- Created with Inkscape (http://www.inkscape.org/) -->

<svg
   xmlns:dc="http://purl.org/dc/elements/1.1/"
   xmlns:cc="http://creativecommons.org/ns#"
   xmlns:rdf="http://www.w3.org/1999/02/22-rdf-syntax-ns#"
   xmlns:svg="http://www.w3.org/2000/svg"
   xmlns="http://www.w3.org/2000/svg"
   xmlns:sodipodi="http://sodipodi.sourceforge.net/DTD/sodipodi-0.dtd"
   xmlns:inkscape="http://www.inkscape.org/namespaces/inkscape"
   width="31.849228mm"
   height="24.010939mm"
   viewBox="0 0 31.849228 24.010939"
   version="1.1"
   id="svg10669"
   inkscape:version="0.92.4 (5da689c313, 2019-01-14)"
   sodipodi:docname="O17.svg">
  <defs
     id="defs10663" />
  <sodipodi:namedview
     id="base"
     pagecolor="#ffffff"
     bordercolor="#666666"
     borderopacity="1.0"
     inkscape:pageopacity="0.0"
     inkscape:pageshadow="2"
     inkscape:zoom="0.35"
     inkscape:cx="-368.97321"
     inkscape:cy="-389.92857"
     inkscape:document-units="mm"
     inkscape:current-layer="layer1"
     showgrid="false"
     fit-margin-top="0"
     fit-margin-left="0"
     fit-margin-right="0"
     fit-margin-bottom="0"
     inkscape:window-width="1920"
     inkscape:window-height="1017"
     inkscape:window-x="-8"
     inkscape:window-y="-8"
     inkscape:window-maximized="1" />
  <metadata
     id="metadata10666">
    <rdf:RDF>
      <cc:Work
         rdf:about="">
        <dc:format>image/svg+xml</dc:format>
        <dc:type
           rdf:resource="http://purl.org/dc/dcmitype/StillImage" />
        <dc:title></dc:title>
      </cc:Work>
    </rdf:RDF>
  </metadata>
  <g
     inkscape:label="Layer 1"
     inkscape:groupmode="layer"
     id="layer1"
     transform="translate(-10.311663,-21.653793)">
    <g
       aria-label="𓉫"
       style="font-style:normal;font-variant:normal;font-weight:normal;font-stretch:normal;font-size:50.79999924px;line-height:1.25;font-family:sans-serif;-inkscape-font-specification:'sans-serif, Normal';font-variant-ligatures:normal;font-variant-caps:normal;font-variant-numeric:normal;font-feature-settings:normal;text-align:start;letter-spacing:0px;word-spacing:0px;writing-mode:lr-tb;text-anchor:start;fill:#000000;fill-opacity:1;stroke:none;stroke-width:0.26458332"
       id="text11216">
      <path
         d="m 13.288225,26.317076 q 0,0.595312 0.198438,1.141015 0.223242,0.520899 0.520898,1.016992 h 3.274219 q -0.198438,-0.248046 -0.372071,-0.620117 -0.173632,-0.37207 -0.297656,-0.79375 -0.124023,-0.421679 -0.198437,-0.868164 -0.07441,-0.446484 -0.07441,-0.843359 0,-0.694531 0.272851,-1.63711 0.148828,-0.446484 0.272852,-0.694531 0.124023,-0.272851 0.198437,-0.396875 0.09922,-0.148828 0.148828,-0.198437 0.07441,-0.04961 0.07441,-0.09922 0,-0.248047 -1.16582,-0.248047 0,-0.42168 0.37207,-0.42168 0.84336,0 1.165821,0.446485 0.347265,0.446484 0.347265,1.141015 0,0.322461 -0.124023,0.719336 -0.09922,0.372071 -0.248047,0.768946 -0.148828,0.396875 -0.272852,0.818554 -0.09922,0.396875 -0.09922,0.768946 0,0.595312 0.198437,1.141015 0.223242,0.520899 0.520899,1.016992 h 3.646289 q -0.198438,-0.248046 -0.372071,-0.669726 -0.173632,-0.42168 -0.297656,-0.868164 -0.09922,-0.471289 -0.173633,-0.892969 -0.04961,-0.446484 -0.04961,-0.719336 0,-0.942578 0.669726,-2.926953 0,-0.322461 -1.314648,-0.322461 0,-0.42168 0.79375,-0.42168 0.917773,0 1.289844,0.446485 0.37207,0.42168 0.37207,1.016992 0,0.347266 -0.148828,0.719336 -0.148828,0.37207 -0.322461,0.79375 -0.148828,0.396875 -0.297656,0.818555 -0.148828,0.421679 -0.148828,0.843359 0,0.595312 0.198437,1.141016 0.223242,0.545703 0.520899,1.041796 h 3.522265 q -0.37207,-0.396875 -0.570508,-1.116211 -0.198437,-0.719335 -0.198437,-1.637109 0,-0.471289 0.148828,-1.736328 0.124023,-0.768945 0.272852,-1.066602 0.148828,-0.32246 0.148828,-0.570507 0,-0.272852 -1.21543,-0.272852 0,-0.42168 0.42168,-0.42168 1.141015,0 1.488281,0.446485 0.37207,0.42168 0.37207,1.215429 0,0.570508 -0.421679,1.364258 -0.42168,0.79375 -0.42168,1.686719 0,1.190625 0.768945,2.108398 h 3.373438 q -0.322461,-0.347265 -0.620118,-1.091406 -0.272851,-0.768945 -0.272851,-1.562695 0,-0.719336 0.02481,-1.091406 0.04961,-0.372071 0.124023,-0.669727 0.198437,-0.843359 0.322461,-1.240234 0.148828,-0.396875 0.148828,-0.42168 0,-0.322461 -1.314648,-0.322461 0,-0.42168 0.79375,-0.42168 0.868164,0 1.16582,0.42168 0.322461,0.396875 0.322461,1.190625 0,0.595313 -0.446485,1.364258 -0.421679,0.79375 -0.421679,1.5875 0,1.041797 0.843359,2.257226 h 3.671094 q -0.198438,-0.248046 -0.37207,-0.595312 -0.173633,-0.37207 -0.297657,-0.79375 -0.124023,-0.446484 -0.198437,-0.892969 -0.07441,-0.446484 -0.07441,-0.843359 0,-0.322461 0.04961,-0.620117 0.04961,-0.322461 0.124024,-0.669727 0.37207,-1.066601 0.471289,-1.364258 0.124023,-0.322461 0.124023,-0.347265 0,-0.272852 -0.992187,-0.272852 0,-0.42168 0.396875,-0.42168 0.843359,0 1.16582,0.446485 0.347265,0.446484 0.347265,1.141015 0,0.297657 -0.148828,0.669727 -0.124023,0.347266 -0.297656,0.719336 -0.148828,0.37207 -0.297656,0.744141 -0.124024,0.37207 -0.124024,0.694531 0,0.595312 0.272852,1.265039 0.272852,0.644922 0.570508,1.141015 h 3.795117 q -0.446484,-0.520898 -0.545703,-1.389062 -0.09922,-0.892969 -0.09922,-1.736328 0,-0.644922 0.148828,-1.289844 0.09922,-0.471289 0.173633,-0.744141 0.07441,-0.297656 0.09922,-0.471289 0.04961,-0.173632 0.04961,-0.248046 0.02481,-0.07441 0.02481,-0.124024 0,-0.396875 -1.141016,-0.396875 0,-0.42168 0.79375,-0.42168 0.396875,0 0.669727,0.173633 0.297656,0.148828 0.471289,0.396875 0.173633,0.248047 0.248047,0.570508 0.07441,0.322461 0.07441,0.620117 0,0.372071 -0.446485,1.5875 -0.446484,1.240235 -0.446484,1.95957 0,0.719336 0.496094,1.513086 h 2.257226 l 0.42168,0.396875 v 16.395899 l -0.42168,0.396875 h -8.780859 l -0.37207,-0.471289 v -2.257227 l 0.37207,-0.471289 h 6.002734 V 31.674888 H 13.486663 v 10.790039 h 5.55625 l 0.421679,0.396875 v 2.406055 l -0.421679,0.396875 h -8.35918 l -0.37207,-0.471289 V 28.946372 l 0.37207,-0.471289 h 2.604492 q -0.42168,-0.496093 -0.669726,-1.314648 -0.223243,-0.843359 -0.223243,-1.835547 0,-0.942578 0.669727,-2.926953 0,-0.322461 -1.314648,-0.322461 0,-0.42168 0.793749,-0.42168 0.818555,0 1.165821,0.446485 0.347265,0.42168 0.347265,1.116211 0,0.322461 -0.124023,0.719336 -0.124023,0.396875 -0.272852,0.818554 -0.124023,0.396875 -0.248046,0.79375 -0.124024,0.396875 -0.124024,0.768946 z m -0.223242,4.564062 h 26.268164 l 0.421679,0.396875 v 11.583789 l -0.421679,0.396875 h -5.953125 v 1.612305 h 7.987109 V 29.268833 H 11.105413 v 15.602149 h 7.565429 v -1.612305 h -5.605859 l -0.37207,-0.471289 V 31.352427 Z"
         style="stroke-width:0.26458332"
         id="path11218"
         inkscape:connector-curvature="0" />
    </g>
  </g>
</svg>
