<?xml version="1.0" encoding="UTF-8" standalone="no"?>
<!-- Created with Inkscape (http://www.inkscape.org/) -->

<svg
   xmlns:dc="http://purl.org/dc/elements/1.1/"
   xmlns:cc="http://creativecommons.org/ns#"
   xmlns:rdf="http://www.w3.org/1999/02/22-rdf-syntax-ns#"
   xmlns:svg="http://www.w3.org/2000/svg"
   xmlns="http://www.w3.org/2000/svg"
   xmlns:sodipodi="http://sodipodi.sourceforge.net/DTD/sodipodi-0.dtd"
   xmlns:inkscape="http://www.inkscape.org/namespaces/inkscape"
   width="32.667774mm"
   height="34.924999mm"
   viewBox="0 0 32.667774 34.924999"
   version="1.1"
   id="svg832"
   inkscape:version="0.92.4 (5da689c313, 2019-01-14)"
   sodipodi:docname="O19A.svg">
  <defs
     id="defs826" />
  <sodipodi:namedview
     id="base"
     pagecolor="#ffffff"
     bordercolor="#666666"
     borderopacity="1.0"
     inkscape:pageopacity="0.0"
     inkscape:pageshadow="2"
     inkscape:zoom="0.35"
     inkscape:cx="-388.97266"
     inkscape:cy="-346.19016"
     inkscape:document-units="mm"
     inkscape:current-layer="layer1"
     showgrid="false"
     fit-margin-top="0"
     fit-margin-left="0"
     fit-margin-right="0"
     fit-margin-bottom="0"
     inkscape:window-width="1920"
     inkscape:window-height="1017"
     inkscape:window-x="-8"
     inkscape:window-y="-8"
     inkscape:window-maximized="1" />
  <metadata
     id="metadata829">
    <rdf:RDF>
      <cc:Work
         rdf:about="">
        <dc:format>image/svg+xml</dc:format>
        <dc:type
           rdf:resource="http://purl.org/dc/dcmitype/StillImage" />
        <dc:title></dc:title>
      </cc:Work>
    </rdf:RDF>
  </metadata>
  <g
     inkscape:label="Layer 1"
     inkscape:groupmode="layer"
     id="layer1"
     transform="translate(-15.603182,-22.312188)">
    <g
       aria-label="𓉮"
       transform="scale(0.26458333)"
       style="font-style:normal;font-variant:normal;font-weight:normal;font-stretch:normal;font-size:192px;line-height:1.25;font-family:sans-serif;-inkscape-font-specification:sans-serif;font-variant-ligatures:normal;font-variant-caps:normal;font-variant-numeric:normal;font-feature-settings:normal;text-align:start;letter-spacing:0px;word-spacing:0px;writing-mode:lr-tb;text-anchor:start;fill:#000000;fill-opacity:1;stroke:none"
       id="flowRoot1377">
      <path
         d="m 168.28516,95.95453 1.125,1.40625 v 2.4375 l -1.5,1.40625 v 100.03125 h 0.9375 q 1.875,0 4.03125,1.125 2.25,1.03125 4.21875,2.90625 1.96875,1.78125 3.375,4.125 1.5,2.34375 1.96875,4.96875 l -1.5,1.96875 H 60.191406 l -1.21875,-2.25 q 1.96875,-5.625 5.34375,-9.1875 3.46875,-3.65625 7.96875,-3.65625 h 6.9375 v -16.875 h 3 v 16.875 h 8.8125 v -20.625 h 3 v 20.625 h 8.906254 v -24.375 h 3 v 24.375 h 10.59375 v -79.3125 l -18.375004,-6.65625 v -3.09375 l 18.375004,6.65625 v -5.8125 l -18.375004,-6.75 v -2.90625 l 18.375004,6.65625 v -6.65625 L 98.160156,96.70453 v -3 l 16.031254,5.8125 q -1.6875,-2.25 -2.4375,-4.3125 -0.75,-2.15625 -0.75,-3.65625 0,-1.40625 0.75,-2.71875 0.75,-1.3125 2.0625,-2.25 1.3125,-1.03125 3,-1.59375 1.6875,-0.65625 3.5625,-0.65625 6.65625,0 12.28125,0.9375 5.625,0.84375 11.15625,2.4375 5.53125,1.59375 11.34375,3.75 5.90625,2.0625 13.125,4.5 z m -48.75,105.28125 h 19.125 v -28.5 h 26.25 v -71.4375 h -45.375 z m 45.375,0 v -25.5 h -23.25 v 25.5 z m -51,-109.3125 q 0,1.21875 0.9375,3.09375 0.9375,1.875 2.25,3.28125 h 49.03125 q -18.375,-6.65625 -28.5,-8.71875 -10.3125,-2.15625 -15.28125,-2.15625 -4.5,0 -6.46875,1.3125 -1.96875,1.3125 -1.96875,3.1875 z m 65.25,121.40625 q -0.75,-2.0625 -1.59375,-3.28125 -0.84375,-1.21875 -1.96875,-2.0625 -1.125,-0.9375 -2.8125,-1.6875 -1.6875,-0.84375 -4.125,-2.0625 H 72.566406 q -3.1875,0 -5.90625,2.4375 -2.625,2.4375 -4.21875,6.65625 z"
         id="path1385"
         inkscape:connector-curvature="0" />
    </g>
  </g>
</svg>
