<?xml version="1.0" encoding="UTF-8" standalone="no"?>
<!-- Created with Inkscape (http://www.inkscape.org/) -->

<svg
   xmlns:dc="http://purl.org/dc/elements/1.1/"
   xmlns:cc="http://creativecommons.org/ns#"
   xmlns:rdf="http://www.w3.org/1999/02/22-rdf-syntax-ns#"
   xmlns:svg="http://www.w3.org/2000/svg"
   xmlns="http://www.w3.org/2000/svg"
   xmlns:sodipodi="http://sodipodi.sourceforge.net/DTD/sodipodi-0.dtd"
   xmlns:inkscape="http://www.inkscape.org/namespaces/inkscape"
   width="37.256641mm"
   height="37.256653mm"
   viewBox="0 0 37.256641 37.256653"
   version="1.1"
   id="svg1382"
   inkscape:version="0.92.4 (5da689c313, 2019-01-14)"
   sodipodi:docname="O1A.svg">
  <defs
     id="defs1376" />
  <sodipodi:namedview
     id="base"
     pagecolor="#ffffff"
     bordercolor="#666666"
     borderopacity="1.0"
     inkscape:pageopacity="0.0"
     inkscape:pageshadow="2"
     inkscape:zoom="0.35"
     inkscape:cx="-337.54492"
     inkscape:cy="-161.97527"
     inkscape:document-units="mm"
     inkscape:current-layer="layer1"
     showgrid="false"
     fit-margin-top="0"
     fit-margin-left="0"
     fit-margin-right="0"
     fit-margin-bottom="0"
     inkscape:window-width="1920"
     inkscape:window-height="1017"
     inkscape:window-x="-8"
     inkscape:window-y="-8"
     inkscape:window-maximized="1" />
  <metadata
     id="metadata1379">
    <rdf:RDF>
      <cc:Work
         rdf:about="">
        <dc:format>image/svg+xml</dc:format>
        <dc:type
           rdf:resource="http://purl.org/dc/dcmitype/StillImage" />
        <dc:title></dc:title>
      </cc:Work>
    </rdf:RDF>
  </metadata>
  <g
     inkscape:label="Layer 1"
     inkscape:groupmode="layer"
     id="layer1"
     transform="translate(-1.9962606,-68.720723)">
    <g
       aria-label="𓉑"
       transform="scale(0.26458333)"
       style="font-style:normal;font-variant:normal;font-weight:normal;font-stretch:normal;font-size:192px;line-height:1.25;font-family:sans-serif;-inkscape-font-specification:sans-serif;font-variant-ligatures:normal;font-variant-caps:normal;font-variant-numeric:normal;font-feature-settings:normal;text-align:start;letter-spacing:0px;word-spacing:0px;writing-mode:lr-tb;text-anchor:start;fill:#000000;fill-opacity:1;stroke:none"
       id="flowRoot1927">
      <path
         d="m 109.73242,306.70062 h 33.9375 V 264.41937 H 12.232422 v 42.28125 h 32.4375 v 4.6875 H 7.5449219 V 259.73187 H 148.35742 v 51.65625 h -38.625 z m -3.65625,29.4375 q -8.249998,-0.28125 -15.187498,-0.28125 -6.84375,-0.0937 -10.59375,-0.0937 0,12.46875 0.09375,24.46875 0,5.0625 0,10.59375 0.09375,5.4375 0.09375,10.78125 0.09375,5.25 0.09375,10.125 0,4.875 0,8.8125 h -5.25 q 0,-3.9375 0,-8.8125 0.09375,-4.875 0.1875,-10.125 0.09375,-5.25 0.09375,-10.6875 0.09375,-5.53125 0.09375,-10.59375 0.09375,-12 0.09375,-24.5625 -2.15625,0 -5.25,0 -3.09375,0 -6.75,0.0937 -3.5625,0 -7.5,0.0937 -3.84375,0.0937 -7.5,0.28125 v -5.53125 q 3.375,0.1875 6.5625,0.1875 3.1875,0 6.375,0 3.28125,0 6.65625,0.0937 3.46875,0 7.3125,0.0937 -3.09375,-5.34375 -5.90625,-10.875 -2.71875,-5.53125 -4.78125,-10.59375 -2.0625,-5.0625 -3.28125,-9.46875 -1.21875,-4.40625 -1.21875,-7.5 0,-3.65625 1.40625,-6.65625 1.40625,-3.09375 3.75,-5.25 2.4375,-2.25 5.625,-3.46875 3.1875,-1.21875 6.75,-1.21875 3.5625,0 6.65625,1.21875 3.1875,1.21875 5.4375,3.375 2.34375,2.15625 3.65625,5.25 1.40625,3.09375 1.40625,6.75 0,3.09375 -1.21875,7.5 -1.125,4.40625 -3.1875,9.46875 -1.96875,5.0625 -4.6875,10.59375 -2.71875,5.53125 -5.8125,10.875 3.28125,0 6.65625,0 3.46875,0 6.84375,0 3.375,-0.0937 6.468748,-0.0937 3.1875,-0.0937 5.8125,-0.28125 z m -28.031248,-10.125 q 2.625,-4.6875 4.875,-9.28125 2.34375,-4.59375 4.03125,-8.8125 1.6875,-4.3125 2.625,-8.15625 0.9375,-3.9375 0.9375,-7.125 0,-2.53125 -0.9375,-4.6875 -0.9375,-2.25 -2.625,-3.84375 -1.6875,-1.59375 -4.03125,-2.4375 -2.25,-0.9375 -4.875,-0.9375 -2.53125,0 -4.875,1.03125 -2.25,0.9375 -4.03125,2.625 -1.78125,1.59375 -2.90625,3.75 -1.03125,2.15625 -1.03125,4.5 0,3.1875 0.9375,7.03125 1.03125,3.84375 2.71875,8.15625 1.78125,4.21875 4.125,8.8125 2.34375,4.59375 5.0625,9.375 z"
         id="path1935"
         inkscape:connector-curvature="0" />
    </g>
  </g>
</svg>
