<?xml version="1.0" encoding="UTF-8" standalone="no"?>
<!-- Created with Inkscape (http://www.inkscape.org/) -->

<svg
   xmlns:dc="http://purl.org/dc/elements/1.1/"
   xmlns:cc="http://creativecommons.org/ns#"
   xmlns:rdf="http://www.w3.org/1999/02/22-rdf-syntax-ns#"
   xmlns:svg="http://www.w3.org/2000/svg"
   xmlns="http://www.w3.org/2000/svg"
   xmlns:sodipodi="http://sodipodi.sourceforge.net/DTD/sodipodi-0.dtd"
   xmlns:inkscape="http://www.inkscape.org/namespaces/inkscape"
   width="38.000782mm"
   height="37.975975mm"
   viewBox="0 0 38.000782 37.975975"
   version="1.1"
   id="svg4531"
   inkscape:version="0.92.4 (5da689c313, 2019-01-14)"
   sodipodi:docname="O22.svg">
  <defs
     id="defs4525" />
  <sodipodi:namedview
     id="base"
     pagecolor="#ffffff"
     bordercolor="#666666"
     borderopacity="1.0"
     inkscape:pageopacity="0.0"
     inkscape:pageshadow="2"
     inkscape:zoom="0.35"
     inkscape:cx="-357.54464"
     inkscape:cy="-355.7366"
     inkscape:document-units="mm"
     inkscape:current-layer="layer1"
     showgrid="false"
     fit-margin-top="0"
     fit-margin-left="0"
     fit-margin-right="0"
     fit-margin-bottom="0"
     inkscape:window-width="1920"
     inkscape:window-height="1017"
     inkscape:window-x="-8"
     inkscape:window-y="-8"
     inkscape:window-maximized="1" />
  <metadata
     id="metadata4528">
    <rdf:RDF>
      <cc:Work
         rdf:about="">
        <dc:format>image/svg+xml</dc:format>
        <dc:type
           rdf:resource="http://purl.org/dc/dcmitype/StillImage" />
        <dc:title></dc:title>
      </cc:Work>
    </rdf:RDF>
  </metadata>
  <g
     inkscape:label="Layer 1"
     inkscape:groupmode="layer"
     id="layer1"
     transform="translate(-7.2878537,-16.735381)">
    <g
       aria-label="𓉲"
       style="font-style:normal;font-variant:normal;font-weight:normal;font-stretch:normal;font-size:50.79999924px;line-height:1.25;font-family:sans-serif;-inkscape-font-specification:'sans-serif, Normal';font-variant-ligatures:normal;font-variant-caps:normal;font-variant-numeric:normal;font-feature-settings:normal;text-align:start;letter-spacing:0px;word-spacing:0px;writing-mode:lr-tb;text-anchor:start;fill:#000000;fill-opacity:1;stroke:none;stroke-width:0.26458332"
       id="text5078">
      <path
         d="m 45.115002,22.76292 0.173632,0.322461 v 31.204296 l -0.421679,0.396875 H 42.4609 L 42.08883,54.215263 V 24.995342 q -2.480469,-1.537891 -5.084961,-2.579688 -2.604492,-1.066601 -5.382617,-1.860351 -0.272852,0.04961 -0.694531,0.446484 -0.396875,0.396875 -0.917774,0.744141 -0.79375,2.232422 -1.488281,3.299023 -0.669727,1.066602 -1.537891,1.736328 0.570508,1.190625 0.669727,2.902149 0.09922,1.711523 0.124023,2.009179 l 0.148828,2.455664 0.09922,2.158008 0.04961,1.463477 q 0.09922,3.497461 0.148828,6.994922 v 1.314648 q 0,6.77168 -0.322461,7.292578 -0.322461,0.496094 -0.719336,0.917773 -0.372071,0.42168 -0.917774,0.42168 -0.694531,0 -1.289843,-0.892969 -0.595313,-0.917773 -0.595313,-2.728515 0,-0.446485 -0.02481,-0.892969 l -0.0248,-1.438672 q 0,-0.694531 -0.02481,-1.413867 0,-4.191992 0.198438,-9.276953 0.198437,-5.109765 0.223242,-5.432226 l 0.07441,-0.84336 0.0248,-0.843359 0.07441,-1.16582 q 0.04961,-0.768946 0.09922,-1.513086 0.07441,-0.768946 0.496094,-1.463477 -0.79375,-0.545703 -1.438672,-1.537891 -0.644922,-1.016992 -1.488281,-3.522265 -0.446484,-0.248047 -0.818555,-0.595313 -0.37207,-0.347265 -0.843359,-0.545703 -2.778125,0.719336 -5.407422,1.785938 -2.604492,1.041797 -5.010547,2.604492 v 29.294335 l -0.421679,0.396875 H 7.659924 L 7.2878537,54.215263 V 23.159795 L 7.5359006,22.713311 Q 13.8859,19.091826 18.201916,17.926006 q 4.34082,-1.190625 8.259961,-1.190625 4.117578,0 8.408789,1.240234 4.291211,1.21543 10.244336,4.787305 z m -2.406055,1.686719 0.173633,0.322461 v 29.120702 h 1.612304 V 23.308623 q -5.581054,-3.373437 -9.89707,-4.588867 -4.291211,-1.240234 -8.706445,-1.240234 -3.224609,0 -7.664648,1.289843 -4.415235,1.26504 -10.1451173,4.539258 V 53.892802 H 9.6939084 V 24.846514 l 0.2480468,-0.446485 q 3.6214848,-2.33164 9.5746088,-4.266406 l 0.694532,-0.198437 0.496093,-0.124024 q 0.223243,-0.04961 1.860352,-0.347265 1.661914,-0.297657 3.96875,-0.297657 3.795117,0 8.210351,1.537891 4.440039,1.537891 7.962305,3.745508 z m -15.552539,9.252148 q 0,-1.860351 -0.223242,-3.695898 -0.198438,-1.860352 -0.669727,-2.902149 -0.421679,0.620118 -0.471289,1.314649 l -0.173633,2.604492 -0.09922,1.661914 -0.297657,7.366992 q -0.124023,3.100586 -0.124023,6.225976 0,5.97793 0.272852,6.548438 0.272851,0.570508 0.272851,0.545703 0.173633,0.37207 0.595313,0.570508 h 0.07441 q 0.248047,0 0.446484,-0.248047 0.223242,-0.272852 0.396875,-0.719336 l 0.124024,-0.37207 q 0.148828,-3.720703 0.148828,-7.466211 0,-4.117578 -0.148828,-7.118945 -0.124024,-3.001367 -0.124024,-4.316016 z m -5.159375,-13.320117 0.223242,0.148828 q 0.545703,0.396875 0.719336,0.545703 0.198438,0.148828 0.322461,0.272852 l 0.446485,1.265039 q 0.421679,1.265039 1.066601,2.331641 0.644922,1.041796 1.413867,1.339453 h 0.148828 q 0.79375,-0.496094 1.488282,-1.5875 0.694531,-1.116211 1.016992,-2.182813 0.347265,-1.066601 0.992187,-1.661914 l 0.272852,-0.272851 0.322461,-0.272852 q -0.942578,-0.198437 -2.00918,-0.272851 -1.066601,-0.09922 -1.761133,-0.09922 l -0.868164,0.0248 q -0.818554,0 -2.083593,0.173633 -1.240235,0.148828 -1.711524,0.248047 z"
         style="stroke-width:0.26458332"
         id="path5080"
         inkscape:connector-curvature="0" />
    </g>
  </g>
</svg>
