<?xml version="1.0" encoding="UTF-8" standalone="no"?>
<!-- Created with Inkscape (http://www.inkscape.org/) -->

<svg
   xmlns:dc="http://purl.org/dc/elements/1.1/"
   xmlns:cc="http://creativecommons.org/ns#"
   xmlns:rdf="http://www.w3.org/1999/02/22-rdf-syntax-ns#"
   xmlns:svg="http://www.w3.org/2000/svg"
   xmlns="http://www.w3.org/2000/svg"
   xmlns:sodipodi="http://sodipodi.sourceforge.net/DTD/sodipodi-0.dtd"
   xmlns:inkscape="http://www.inkscape.org/namespaces/inkscape"
   width="38.050392mm"
   height="34.800976mm"
   viewBox="0 0 38.050392 34.800976"
   version="1.1"
   id="svg5089"
   inkscape:version="0.92.4 (5da689c313, 2019-01-14)"
   sodipodi:docname="O23.svg">
  <defs
     id="defs5083" />
  <sodipodi:namedview
     id="base"
     pagecolor="#ffffff"
     bordercolor="#666666"
     borderopacity="1.0"
     inkscape:pageopacity="0.0"
     inkscape:pageshadow="2"
     inkscape:zoom="0.35"
     inkscape:cx="-337.54464"
     inkscape:cy="-424.21429"
     inkscape:document-units="mm"
     inkscape:current-layer="layer1"
     showgrid="false"
     fit-margin-top="0"
     fit-margin-left="0"
     fit-margin-right="0"
     fit-margin-bottom="0"
     inkscape:window-width="1920"
     inkscape:window-height="1017"
     inkscape:window-x="-8"
     inkscape:window-y="-8"
     inkscape:window-maximized="1" />
  <metadata
     id="metadata5086">
    <rdf:RDF>
      <cc:Work
         rdf:about="">
        <dc:format>image/svg+xml</dc:format>
        <dc:type
           rdf:resource="http://purl.org/dc/dcmitype/StillImage" />
        <dc:title></dc:title>
      </cc:Work>
    </rdf:RDF>
  </metadata>
  <g
     inkscape:label="Layer 1"
     inkscape:groupmode="layer"
     id="layer1"
     transform="translate(-1.996187,-1.7923273)">
    <g
       aria-label="𓉳"
       style="font-style:normal;font-variant:normal;font-weight:normal;font-stretch:normal;font-size:50.79999924px;line-height:1.25;font-family:sans-serif;-inkscape-font-specification:'sans-serif, Normal';font-variant-ligatures:normal;font-variant-caps:normal;font-variant-numeric:normal;font-feature-settings:normal;text-align:start;letter-spacing:0px;word-spacing:0px;writing-mode:lr-tb;text-anchor:start;fill:#000000;fill-opacity:1;stroke:none;stroke-width:0.26458332"
       id="text5636"
       transform="translate(-5.2916667,3.0238095)">
      <path
         d="m 43.329064,1.1745725 h 1.612305 v 0.79375 h -1.21543 V 2.7620724 H 43.329064 V 29.600744 l 0.396875,0.37207 v 0.79375 h 0.37207 l 0.42168,0.396875 v 0.42168 h 0.396875 l 0.42168,0.396875 v 1.190625 l -0.42168,0.396875 H 7.659924 L 7.2878537,33.098205 V 32.056408 L 7.659924,31.585119 H 8.0816037 V 31.237853 L 8.453674,30.766564 h 0.4464844 v -0.719336 l 0.396875,-0.471289 V 2.7620724 H 8.8753537 V 1.9683225 H 7.6847287 V 1.1497678 h 1.8603515 q 1.0417968,-0.66972657 2.1332028,-1.190625 0.917774,-0.44648437 1.984375,-0.81855467 1.091407,-0.37207033 2.033985,-0.37207033 1.116211,0 2.207617,0.44648439 1.116211,0.42167968 2.108398,0.9673828 1.016992,0.52089843 1.860352,0.96738281 0.843359,0.4216797 1.438672,0.4216797 h 6.002734 q 0.595312,0 1.438672,-0.4216797 0.843359,-0.44648438 1.835547,-0.96738281 1.016992,-0.54570312 2.108398,-0.9673828 1.116211,-0.44648439 2.232422,-0.44648439 0.942578,0 2.033984,0.39687501 1.116211,0.37207031 2.083594,0.81855468 1.141015,0.52089843 2.282031,1.19062501 z M 14.481213,29.575939 h 5.630664 v -4.34082 l 0.124023,-0.37207 1.091407,-0.694532 v -1.984375 q -0.02481,-0.347265 -0.04961,-0.620117 -0.0248,-0.297656 -0.347265,-0.396875 -0.917774,0 -1.413868,0.868164 -0.471289,0.84336 -0.892968,2.232422 -0.42168,1.389063 -1.909961,1.661914 -1.463477,0.272852 -1.835547,1.190625 -0.173633,0.471289 -0.272852,1.091406 -0.09922,0.595313 -0.124023,1.364258 z m 18.033008,0 h 5.605859 q 0,-1.736328 -0.372071,-2.678906 -0.347265,-0.942578 -1.141015,-0.942578 -0.843359,0 -1.537891,-0.570508 -0.694531,-0.595312 -1.141015,-1.785937 -0.446485,-1.190625 -0.967383,-1.810743 -0.520899,-0.620117 -1.339453,-0.620117 -0.198438,0.04961 -0.272852,0.173633 -0.07441,0.09922 -0.09922,0.446484 v 2.356446 l 1.091407,0.694531 0.173633,0.322461 z M 8.0816037,32.775744 H 44.544494 v -0.396875 h -0.446485 l -0.37207,-0.471289 v -0.347266 h -0.42168 l -0.37207,-0.471289 V 30.369689 H 9.6939084 v 0.79375 l -0.4216797,0.396875 h -0.396875 v 0.42168 L 8.453674,32.378869 H 8.0816037 Z M 28.520666,2.3651975 H 24.105432 V 29.575939 h 4.415234 z M 42.113634,2.7620724 V 1.9683225 h 0.917774 Q 41.964806,1.2985959 40.898205,0.77769748 39.980431,0.33121311 38.91383,-0.0408572 q -1.041797,-0.39687499 -1.984375,-0.39687499 -1.091406,0 -2.158008,0.44648437 Q 33.72965,0.43043186 32.737463,0.97613497 31.77008,1.4970334 30.901916,1.9435178 30.033752,2.3651975 29.314416,2.3651975 V 29.575939 h 2.406055 v -4.216797 l -1.141016,-0.694531 -0.124024,-0.223242 v -2.827734 q 0,-0.595313 0.372071,-0.917774 0.396875,-0.347265 0.942578,-0.347265 1.612305,0 2.604492,2.406054 0.496094,1.21543 0.992188,1.785938 0.496093,0.570508 0.992187,0.570508 0.992187,0 1.736328,0.843359 0.79375,0.868164 0.79375,3.621484 h 3.621484 V 2.7620724 Z M 10.090783,29.575939 h 3.59668 q 0.09922,-2.406054 0.843359,-3.373437 0.694532,-0.917774 1.835547,-0.967383 1.116211,-0.07441 1.686719,-1.612305 l 0.347266,-0.992187 q 0.248046,-0.719336 0.545703,-1.141016 0.297656,-0.446484 0.620117,-0.694531 0.322461,-0.248047 0.620117,-0.322461 0.322461,-0.07441 0.620117,-0.07441 0.570508,0 0.917774,0.37207 0.37207,0.347266 0.37207,1.016992 v 2.579688 l -0.173633,0.322461 -1.016992,0.694531 v 4.191992 h 2.406055 V 2.3651975 q -0.719336,0 -1.5875,-0.4216797 Q 20.856018,1.4970334 19.86383,0.97613497 18.896447,0.43043186 17.829846,0.00875218 q -1.041797,-0.44648437 -2.133203,-0.44648437 -0.942578,0 -1.959571,0.39687499 Q 12.72008,0.33121311 11.851916,0.77769748 10.859729,1.2985959 9.8923458,1.9683225 h 0.5953122 v 0.7937499 h -0.396875 z"
         style="stroke-width:0.26458332"
         id="path5638"
         inkscape:connector-curvature="0" />
    </g>
  </g>
</svg>
