<?xml version="1.0" encoding="UTF-8" standalone="no"?>
<!-- Created with Inkscape (http://www.inkscape.org/) -->

<svg
   xmlns:dc="http://purl.org/dc/elements/1.1/"
   xmlns:cc="http://creativecommons.org/ns#"
   xmlns:rdf="http://www.w3.org/1999/02/22-rdf-syntax-ns#"
   xmlns:svg="http://www.w3.org/2000/svg"
   xmlns="http://www.w3.org/2000/svg"
   xmlns:sodipodi="http://sodipodi.sourceforge.net/DTD/sodipodi-0.dtd"
   xmlns:inkscape="http://www.inkscape.org/namespaces/inkscape"
   width="38.000778mm"
   height="31.849218mm"
   viewBox="0 0 38.000778 31.849218"
   version="1.1"
   id="svg6205"
   inkscape:version="0.92.4 (5da689c313, 2019-01-14)"
   sodipodi:docname="O27.svg">
  <defs
     id="defs6199" />
  <sodipodi:namedview
     id="base"
     pagecolor="#ffffff"
     bordercolor="#666666"
     borderopacity="1.0"
     inkscape:pageopacity="0.0"
     inkscape:pageshadow="2"
     inkscape:zoom="0.35"
     inkscape:cx="-386.11607"
     inkscape:cy="-358.50001"
     inkscape:document-units="mm"
     inkscape:current-layer="layer1"
     showgrid="false"
     fit-margin-top="0"
     fit-margin-left="0"
     fit-margin-right="0"
     fit-margin-bottom="0"
     inkscape:window-width="1920"
     inkscape:window-height="1017"
     inkscape:window-x="-8"
     inkscape:window-y="-8"
     inkscape:window-maximized="1" />
  <metadata
     id="metadata6202">
    <rdf:RDF>
      <cc:Work
         rdf:about="">
        <dc:format>image/svg+xml</dc:format>
        <dc:type
           rdf:resource="http://purl.org/dc/dcmitype/StillImage" />
        <dc:title></dc:title>
      </cc:Work>
    </rdf:RDF>
  </metadata>
  <g
     inkscape:label="Layer 1"
     inkscape:groupmode="layer"
     id="layer1"
     transform="translate(-14.847377,-22.130989)">
    <g
       aria-label="𓉹"
       style="font-style:normal;font-variant:normal;font-weight:normal;font-stretch:normal;font-size:50.79999924px;line-height:1.25;font-family:sans-serif;-inkscape-font-specification:'sans-serif, Normal';font-variant-ligatures:normal;font-variant-caps:normal;font-variant-numeric:normal;font-feature-settings:normal;text-align:start;letter-spacing:0px;word-spacing:0px;writing-mode:lr-tb;text-anchor:start;fill:#000000;fill-opacity:1;stroke:none;stroke-width:0.26458332"
       id="text6752">
      <path
         d="m 52.426478,53.980207 h -4.01836 l -0.37207,-0.471289 V 26.918293 h -7.788672 v 4.861719 l 1.959571,-1.240234 0.545703,0.37207 v 22.671484 l -0.42168,0.396875 h -4.985742 l -0.37207,-0.471289 V 30.986262 l 0.620117,-0.396875 1.860351,1.190625 V 26.918293 H 28.241908 v 4.861719 l 1.95957,-1.240234 0.545703,0.37207 v 22.671484 l -0.421679,0.396875 H 25.314955 L 24.942884,53.508918 V 30.986262 l 0.620118,-0.396875 1.885156,1.190625 v -4.861719 h -7.813477 v 26.665039 l -0.421679,0.396875 h -3.993555 l -0.37207,-0.471289 v -30.90664 l 0.37207,-0.471289 h 37.207031 l 0.421679,0.396875 v 31.055468 z m -3.59668,-27.458789 v 26.665039 h 3.224609 V 22.924739 h -36.41328 v 30.261718 h 3.199804 V 26.595832 l 0.372071,-0.471289 h 29.195116 z m -9.152929,6.35 -1.909961,-1.240234 V 45.621027 H 41.9589 V 31.631184 l -1.885156,1.190625 z m -11.980664,0 -1.959571,-1.240234 v 13.989843 h 4.216797 V 31.631184 l -1.885156,1.190625 z M 41.9589,53.186457 v -6.77168 h -4.191992 v 6.77168 z m -12.005469,0 v -6.77168 h -4.216797 v 6.77168 z"
         style="stroke-width:0.26458332"
         id="path6754"
         inkscape:connector-curvature="0" />
    </g>
  </g>
</svg>
