<?xml version="1.0" encoding="UTF-8" standalone="no"?>
<!-- Created with Inkscape (http://www.inkscape.org/) -->

<svg
   xmlns:dc="http://purl.org/dc/elements/1.1/"
   xmlns:cc="http://creativecommons.org/ns#"
   xmlns:rdf="http://www.w3.org/1999/02/22-rdf-syntax-ns#"
   xmlns:svg="http://www.w3.org/2000/svg"
   xmlns="http://www.w3.org/2000/svg"
   xmlns:sodipodi="http://sodipodi.sourceforge.net/DTD/sodipodi-0.dtd"
   xmlns:inkscape="http://www.inkscape.org/namespaces/inkscape"
   width="6.6972647mm"
   height="37.75272mm"
   viewBox="0 0 6.6972647 37.75272"
   version="1.1"
   id="svg4766"
   inkscape:version="0.92.4 (5da689c313, 2019-01-14)"
   sodipodi:docname="O29A.svg">
  <defs
     id="defs4760" />
  <sodipodi:namedview
     id="base"
     pagecolor="#ffffff"
     bordercolor="#666666"
     borderopacity="1.0"
     inkscape:pageopacity="0.0"
     inkscape:pageshadow="2"
     inkscape:zoom="0.35"
     inkscape:cx="-420.40234"
     inkscape:cy="-346.09646"
     inkscape:document-units="mm"
     inkscape:current-layer="layer1"
     showgrid="false"
     inkscape:window-width="1920"
     inkscape:window-height="1017"
     inkscape:window-x="-8"
     inkscape:window-y="-8"
     inkscape:window-maximized="1"
     fit-margin-top="0"
     fit-margin-left="0"
     fit-margin-right="0"
     fit-margin-bottom="0" />
  <metadata
     id="metadata4763">
    <rdf:RDF>
      <cc:Work
         rdf:about="">
        <dc:format>image/svg+xml</dc:format>
        <dc:type
           rdf:resource="http://purl.org/dc/dcmitype/StillImage" />
        <dc:title></dc:title>
      </cc:Work>
    </rdf:RDF>
  </metadata>
  <g
     inkscape:label="Layer 1"
     inkscape:groupmode="layer"
     id="layer1"
     transform="translate(-23.918953,-19.509258)">
    <g
       aria-label="𓉼"
       transform="scale(0.26458333)"
       style="font-style:normal;font-variant:normal;font-weight:normal;font-stretch:normal;font-size:192px;line-height:1.25;font-family:sans-serif;-inkscape-font-specification:sans-serif;font-variant-ligatures:normal;font-variant-caps:normal;font-variant-numeric:normal;font-feature-settings:normal;text-align:start;letter-spacing:0px;word-spacing:0px;writing-mode:lr-tb;text-anchor:start;fill:#000000;fill-opacity:1;stroke:none"
       id="flowRoot5311">
      <path
         d="m 103.80859,73.73578 q 1.21875,5.71875 4.5,10.40625 3.375,4.59375 7.40625,8.8125 v 1.875 q -4.5,4.6875 -7.3125,9.28125 -2.71875,4.59375 -2.71875,11.53125 0,4.3125 0.65625,9 l 1.03125,8.25 q 1.03125,7.40625 4.03125,26.0625 3,18.5625 3,32.71875 0,12.1875 -3,18 -3,5.71875 -6.46875,6.28125 l -2.15625,0.375 q -0.46875,0 -1.03125,0.0937 -5.156246,0 -8.249996,-6.75 -3.09375,-6.75 -3.09375,-19.59375 0,-6.1875 0.65625,-13.21875 0.75,-7.03125 2.25,-16.3125 l 1.40625,-8.90625 q 2.8125,-16.6875 3.46875,-24.84375 0.75,-8.15625 0.75,-11.8125 0,-4.6875 -1.5,-8.625 -1.40625,-3.9375 -6.9375,-11.71875 l 0.28125,-1.875 q 3.9375,-4.125 6.375,-8.625 2.53125,-4.59375 3.749996,-10.21875 z m 8.625,20.15625 q -3,-3.1875 -5.71875,-6.75 -2.625,-3.5625 -4.21875,-7.59375 -2.812496,8.0625 -8.718746,14.4375 5.53125,8.15625 6.843746,12.1875 1.3125,4.03125 1.3125,8.53125 0,3.9375 -0.5625,10.59375 -0.5625,6.65625 -1.406246,12 l -2.25,14.8125 -1.40625,8.71875 q -1.40625,8.8125 -2.15625,16.125 -0.75,7.21875 -0.75,13.3125 0,10.03125 2.15625,16.59375 2.15625,6.46875 7.031246,6.46875 4.78125,0 6.84375,-7.125 2.0625,-7.21875 2.0625,-17.34375 0,-14.25 -4.40625,-38.71875 -4.3125,-24.46875 -4.3125,-33.5625 0,-7.125 2.25,-12.1875 2.34375,-5.15625 7.40625,-10.5 z"
         id="path5319"
         inkscape:connector-curvature="0" />
    </g>
  </g>
</svg>
