<?xml version="1.0" encoding="UTF-8" standalone="no"?>
<!-- Created with Inkscape (http://www.inkscape.org/) -->

<svg
   xmlns:dc="http://purl.org/dc/elements/1.1/"
   xmlns:cc="http://creativecommons.org/ns#"
   xmlns:rdf="http://www.w3.org/1999/02/22-rdf-syntax-ns#"
   xmlns:svg="http://www.w3.org/2000/svg"
   xmlns="http://www.w3.org/2000/svg"
   xmlns:sodipodi="http://sodipodi.sourceforge.net/DTD/sodipodi-0.dtd"
   xmlns:inkscape="http://www.inkscape.org/namespaces/inkscape"
   width="38.224022mm"
   height="37.653515mm"
   viewBox="0 0 38.224022 37.653515"
   version="1.1"
   id="svg5089"
   inkscape:version="0.92.4 (5da689c313, 2019-01-14)"
   sodipodi:docname="O3.svg">
  <defs
     id="defs5083" />
  <sodipodi:namedview
     id="base"
     pagecolor="#ffffff"
     bordercolor="#666666"
     borderopacity="1.0"
     inkscape:pageopacity="0.0"
     inkscape:pageshadow="2"
     inkscape:zoom="0.35"
     inkscape:cx="-357.54464"
     inkscape:cy="-389.92857"
     inkscape:document-units="mm"
     inkscape:current-layer="layer1"
     showgrid="false"
     fit-margin-top="0"
     fit-margin-left="0"
     fit-margin-right="0"
     fit-margin-bottom="0"
     inkscape:window-width="1920"
     inkscape:window-height="1017"
     inkscape:window-x="-8"
     inkscape:window-y="-8"
     inkscape:window-maximized="1" />
  <metadata
     id="metadata5086">
    <rdf:RDF>
      <cc:Work
         rdf:about="">
        <dc:format>image/svg+xml</dc:format>
        <dc:type
           rdf:resource="http://purl.org/dc/dcmitype/StillImage" />
        <dc:title></dc:title>
      </cc:Work>
    </rdf:RDF>
  </metadata>
  <g
     inkscape:label="Layer 1"
     inkscape:groupmode="layer"
     id="layer1"
     transform="translate(-7.2878537,-8.0112165)">
    <g
       aria-label="𓉓"
       style="font-style:normal;font-variant:normal;font-weight:normal;font-stretch:normal;font-size:50.79999924px;line-height:1.25;font-family:sans-serif;-inkscape-font-specification:'sans-serif, Normal';font-variant-ligatures:normal;font-variant-caps:normal;font-variant-numeric:normal;font-feature-settings:normal;text-align:start;letter-spacing:0px;word-spacing:0px;writing-mode:lr-tb;text-anchor:start;fill:#000000;fill-opacity:1;stroke:none;stroke-width:0.26458332"
       id="text5636">
      <path
         d="m 34.498595,26.639537 h 10.393164 v 0.79375 h -2.406054 v 3.348632 q 1.389062,0.79375 2.207617,2.554883 0.818555,1.761133 0.818555,3.571875 0,2.257227 -1.116211,5.333008 l -1.141016,3.150195 -0.396875,0.272852 h -6.399609 l -0.322461,-0.198438 q -0.148828,-0.37207 -0.322461,-0.868164 -0.148828,-0.42168 -0.37207,-1.016992 -0.223243,-0.595313 -0.496094,-1.364258 -1.116211,-3.001367 -1.116211,-5.283398 0,-1.63711 0.79375,-3.522266 0.768945,-1.860351 2.257226,-2.654101 v -3.323828 h -2.38125 z M 7.2878537,39.860435 q 0.099219,-3.249414 0.4216797,-5.705078 0.3472656,-2.480469 0.9425781,-4.34082 0.6201172,-1.860352 1.4634765,-2.778125 0.843359,-0.942579 2.058789,-0.942579 0.843359,0 1.513086,0.47129 0.669727,0.446484 1.190625,1.265039 0.520898,0.79375 0.892969,1.934765 0.396875,1.116211 0.719336,2.455664 0.79375,3.323828 0.79375,8.383984 0,2.282032 -1.364258,3.671094 -1.389063,1.389063 -3.54707,1.389063 -2.033985,0 -3.5718754,-1.314649 Q 7.2878537,43.060239 7.2878537,39.860435 Z M 34.721838,20.438365 h 8.979296 V 9.2514509 H 8.924963 V 20.438365 h 8.582422 v 1.240234 H 7.6847287 V 8.0112165 H 44.941369 V 21.678599 H 34.721838 Z M 8.0816037,39.736411 q 0,1.562696 0.3224609,2.554883 0.322461,0.967383 0.9673828,1.513086 1.2898436,1.066602 3.0013676,1.066602 1.885156,0 3.001367,-1.141016 1.116211,-1.16582 1.116211,-3.125391 0,-6.697265 -1.314649,-10.26914 -1.314648,-3.54707 -2.976562,-3.54707 -1.785938,0 -2.9021486,3.671093 -1.0914063,3.59668 -1.2154297,9.276953 z M 34.796252,35.370786 q -0.09922,0.396875 -0.148828,0.79375 -0.02481,0.396875 -0.02481,0.818555 0,1.116211 0.322461,2.530078 0.322461,1.389063 0.967383,3.100586 l 0.843359,2.257227 h 5.853906 l 1.091406,-3.100586 q 1.041797,-2.902149 1.041797,-4.886524 0,-0.843359 -0.173633,-1.513086 z m 2.877343,-7.937499 v 3.571874 l -0.173632,0.322461 q -0.967383,0.520899 -1.5875,1.364258 -0.620118,0.84336 -0.892969,1.885156 h 9.351367 Q 44.0484,33.53524 43.453088,32.716685 42.88258,31.89813 41.940002,31.377232 l -0.248047,-0.446485 v -3.49746 z M 25.990588,45.367075 q -1.041797,-2.108398 -1.562695,-3.819921 -0.520899,-1.711524 -0.570508,-3.497461 0,-0.942578 0.223242,-2.108399 0.124023,-0.570508 0.496094,-1.5875 0.37207,-1.016992 1.016992,-2.455664 l -1.488281,-20.910351 0.421679,-0.396875 h 3.695899 l 0.37207,0.471289 -1.463477,20.835937 q 0.917774,1.860352 1.389063,3.497461 0.496094,1.612305 0.496094,3.249414 0,1.066602 -0.173633,1.835547 -0.148828,0.744141 -0.446485,1.463477 -0.297656,0.694531 -0.719335,1.488281 -0.42168,0.79375 -0.967383,1.934765 z m 0.74414,-12.526367 -0.37207,-0.768945 q 0,0.04961 -0.198437,0.570508 -0.198438,0.496094 -0.669727,1.53789 -0.843359,1.984375 -0.843359,3.869532 0,1.736328 0.471289,3.249414 0.496093,1.488281 1.265039,3.050976 0.520898,-0.917773 0.868164,-1.686719 0.37207,-0.768945 0.570508,-1.438671 0.223242,-0.694532 0.322461,-1.289844 0.09922,-0.620117 0.09922,-1.265039 0,-0.496094 -0.07441,-1.066602 Q 28.098986,37.0327 27.974963,36.387779 27.726916,35.12274 26.734728,32.840708 Z M 27.627697,11.384654 H 24.9984 l 1.364258,20.066992 z"
         style="stroke-width:0.26458332"
         id="path5638"
         inkscape:connector-curvature="0" />
    </g>
  </g>
</svg>
