<?xml version="1.0" encoding="UTF-8" standalone="no"?>
<!-- Created with Inkscape (http://www.inkscape.org/) -->

<svg
   xmlns:dc="http://purl.org/dc/elements/1.1/"
   xmlns:cc="http://creativecommons.org/ns#"
   xmlns:rdf="http://www.w3.org/1999/02/22-rdf-syntax-ns#"
   xmlns:svg="http://www.w3.org/2000/svg"
   xmlns="http://www.w3.org/2000/svg"
   xmlns:sodipodi="http://sodipodi.sourceforge.net/DTD/sodipodi-0.dtd"
   xmlns:inkscape="http://www.inkscape.org/namespaces/inkscape"
   width="37.256653mm"
   height="18.702734mm"
   viewBox="0 0 37.256653 18.702734"
   version="1.1"
   id="svg8"
   inkscape:version="0.92.4 (5da689c313, 2019-01-14)"
   sodipodi:docname="O35.svg">
  <defs
     id="defs2" />
  <sodipodi:namedview
     id="base"
     pagecolor="#ffffff"
     bordercolor="#666666"
     borderopacity="1.0"
     inkscape:pageopacity="0.0"
     inkscape:pageshadow="2"
     inkscape:zoom="0.35"
     inkscape:cx="-352.85737"
     inkscape:cy="-358.83664"
     inkscape:document-units="mm"
     inkscape:current-layer="layer1"
     showgrid="false"
     fit-margin-top="0"
     fit-margin-left="0"
     fit-margin-right="0"
     fit-margin-bottom="0"
     inkscape:window-width="1920"
     inkscape:window-height="1017"
     inkscape:window-x="-8"
     inkscape:window-y="-8"
     inkscape:window-maximized="1" />
  <metadata
     id="metadata5">
    <rdf:RDF>
      <cc:Work
         rdf:about="">
        <dc:format>image/svg+xml</dc:format>
        <dc:type
           rdf:resource="http://purl.org/dc/dcmitype/StillImage" />
        <dc:title></dc:title>
      </cc:Work>
    </rdf:RDF>
  </metadata>
  <g
     inkscape:label="Layer 1"
     inkscape:groupmode="layer"
     id="layer1"
     transform="translate(-6.0476796,-35.188405)">
    <g
       aria-label="𓊄"
       transform="scale(0.26458333)"
       style="font-style:normal;font-variant:normal;font-weight:normal;font-stretch:normal;font-size:192px;line-height:1.25;font-family:sans-serif;-inkscape-font-specification:'sans-serif, Normal';font-variant-ligatures:normal;font-variant-caps:normal;font-variant-numeric:normal;font-feature-settings:normal;text-align:start;letter-spacing:0px;word-spacing:0px;writing-mode:lr-tb;text-anchor:start;fill:#000000;fill-opacity:1;stroke:none"
       id="flowRoot4518">
      <path
         d="m 103.95117,137.49555 h 59.71875 v 4.6875 h -58.96875 q 2.34375,3.75 4.5,7.96875 2.25,4.21875 4.03125,8.71875 1.875,4.5 3.1875,9.1875 1.40625,4.59375 2.25,9.09375 3.28125,18.09375 3.375,18.46875 0.0937,0.1875 0.46875,0.75 0.375,0.5625 1.03125,1.5 1.3125,1.875 1.3125,2.90625 0,2.625 -4.40625,2.625 -3,-1.5 -9,-1.5 -2.34375,0.1875 -5.625,0.65625 -3.28125,0.375 -6.468748,0.84375 h -0.46875 q -2.53125,0 -2.53125,-2.15625 0,-1.3125 3,-2.34375 12.281248,0 15.093748,-3.09375 0,-0.375 0,-0.9375 0,-0.65625 0.0937,-1.40625 0,-9 -4.40625,-19.78125 -4.3125,-10.6875 -16.874998,-27.09375 l -2.25,1.03125 q -3.9375,12.28125 -12.5625,23.71875 -4.3125,5.71875 -8.15625,11.8125 -3.84375,6.09375 -7.125,12.65625 0,7.59375 -6.09375,7.59375 -1.5,-0.84375 -2.34375,-1.21875 -0.75,-0.375 -1.3125,-0.375 l -16.6875,1.875 q -2.90625,-0.375 -3.28125,-2.34375 v -0.1875 q 0,-1.03125 1.3125,-1.03125 l 2.71875,0.28125 16.59375,-4.59375 q 6,-8.0625 10.125,-15 2.15625,-3.5625 3.46875,-5.90625 1.3125,-2.4375 1.96875,-3.75 l 11.71875,-25.21875 q -0.375,-0.375 -0.65625,-1.40625 -0.28125,-1.125 -0.28125,-2.34375 h -57.5625 v -4.6875 h 57.84375 q 1.5,-4.3125 5.90625,-4.5 2.0625,0 6.65625,2.15625 2.34375,-2.15625 4.6875,-2.15625 3.843748,0 5.999998,4.5 z"
         id="path4526"
         inkscape:connector-curvature="0" />
    </g>
  </g>
</svg>
