<?xml version="1.0" encoding="UTF-8" standalone="no"?>
<svg
   xmlns:dc="http://purl.org/dc/elements/1.1/"
   xmlns:cc="http://creativecommons.org/ns#"
   xmlns:rdf="http://www.w3.org/1999/02/22-rdf-syntax-ns#"
   xmlns:svg="http://www.w3.org/2000/svg"
   xmlns="http://www.w3.org/2000/svg"
   xmlns:sodipodi="http://sodipodi.sourceforge.net/DTD/sodipodi-0.dtd"
   xmlns:inkscape="http://www.inkscape.org/namespaces/inkscape"
   version="1.0"
   width="266.89728pt"
   height="289.45831pt"
   viewBox="0 0 266.89727 289.45832"
   preserveAspectRatio="xMidYMid meet"
   id="svg8"
   sodipodi:docname="O35A.svg"
   inkscape:version="0.92.4 (5da689c313, 2019-01-14)">
  <defs
     id="defs12" />
  <sodipodi:namedview
     pagecolor="#ffffff"
     bordercolor="#666666"
     borderopacity="1"
     objecttolerance="10"
     gridtolerance="10"
     guidetolerance="10"
     inkscape:pageopacity="0"
     inkscape:pageshadow="2"
     inkscape:window-width="1920"
     inkscape:window-height="1017"
     id="namedview10"
     showgrid="false"
     fit-margin-top="0"
     fit-margin-left="0"
     fit-margin-right="0"
     fit-margin-bottom="0"
     inkscape:zoom="0.48360656"
     inkscape:cx="-16.827874"
     inkscape:cy="212.60806"
     inkscape:window-x="-8"
     inkscape:window-y="-8"
     inkscape:window-maximized="1"
     inkscape:current-layer="svg8" />
  <metadata
     id="metadata2">
Created by potrace 1.10, written by Peter Selinger 2001-2011
<rdf:RDF>
  <cc:Work
     rdf:about="">
    <dc:format>image/svg+xml</dc:format>
    <dc:type
       rdf:resource="http://purl.org/dc/dcmitype/StillImage" />
    <dc:title></dc:title>
  </cc:Work>
</rdf:RDF>
</metadata>
  <g
     transform="matrix(0.1,0,0,-0.1,420.90451,313.00227)"
     id="g6"
     style="fill:#000000;stroke:none">
    <path
       d="m 1418,3179 c -11,-6 -18,-22 -18,-42 0,-18 -6,-63 -14,-102 -8,-38 -22,-106 -30,-150 -8,-44 -20,-107 -26,-140 -7,-33 -14,-73 -16,-90 -3,-16 -11,-64 -19,-105 -7,-41 -21,-111 -29,-155 -8,-44 -20,-107 -26,-140 -24,-121 -30,-189 -20,-215 7,-16 45,-45 108,-82 53,-31 117,-76 142,-100 50,-48 123,-139 116,-145 -2,-2 -42,-6 -89,-7 -103,-4 -121,-14 -212,-118 -14,-17 -48,-18 -452,-18 -421,0 -439,-1 -471,-20 -42,-26 -49,-46 -26,-71 45,-50 46,-50 506,-49 l 433,1 29,-36 c 32,-40 96,-85 121,-85 39,0 25,-38 -101,-268 -18,-31 -51,-93 -74,-137 -23,-44 -57,-107 -75,-140 -19,-33 -45,-82 -60,-110 -44,-84 -50,-93 -91,-138 -44,-48 -128,-93 -201,-107 -27,-4 -61,-13 -76,-19 -16,-6 -43,-11 -61,-11 -21,0 -48,-11 -75,-30 -70,-51 -74,-98 -10,-130 34,-18 59,-20 227,-20 166,0 195,2 233,19 45,20 82,53 103,90 6,11 30,51 54,88 24,37 48,77 55,88 7,10 44,62 82,115 95,129 158,226 178,278 47,118 70,183 92,257 24,86 54,147 68,142 10,-3 50,-71 97,-162 6,-11 19,-33 30,-50 11,-16 24,-39 30,-50 6,-11 19,-33 29,-50 19,-28 46,-83 75,-150 15,-33 39,-121 56,-205 8,-43 8,-63 -3,-92 -21,-59 -42,-70 -234,-124 -76,-21 -119,-43 -154,-75 -37,-34 -36,-53 0,-90 l 29,-29 h 269 c 260,0 269,1 308,23 l 40,23 3,69 c 4,70 -17,234 -44,352 -8,34 -14,73 -14,87 0,14 -6,40 -14,58 -17,43 -36,95 -46,133 -10,37 -35,91 -60,130 -11,17 -23,37 -27,45 -3,8 -25,40 -48,70 -68,89 -78,120 -39,120 24,0 66,30 109,77 l 41,44 439,-1 c 412,0 442,1 475,18 48,26 51,61 10,96 l -32,26 h -443 -444 l -36,44 c -62,76 -94,89 -215,91 l -105,2 -5,594 -5,594 -32,65 c -44,89 -120,167 -210,218 -27,14 -81,15 -105,1 z m 158,-220 c 54,-78 54,-78 54,-581 0,-539 8,-507 -97,-409 -35,31 -84,68 -110,81 -63,31 -71,43 -62,94 4,22 15,77 23,121 8,44 20,109 27,145 7,36 15,88 19,115 7,53 22,133 45,250 8,39 17,88 20,110 8,66 25,115 39,115 7,0 26,-19 42,-41 z m 12,-1402 c 66,-61 -18,-159 -110,-128 -31,11 -68,56 -68,85 0,22 39,64 63,69 38,7 91,-5 115,-26 z m 389,-5 c 42,-51 20,-105 -52,-129 -38,-13 -89,9 -113,49 -15,25 -15,30 1,63 9,20 27,40 39,45 38,16 100,2 125,-28 z"
       id="path4"
       inkscape:connector-curvature="0" />
  </g>
  <g
     aria-label="𓊄"
     transform="matrix(1.895413,0,0,1.895413,3119.7863,63.775632)"
     style="font-style:normal;font-variant:normal;font-weight:normal;font-stretch:normal;font-size:192px;line-height:1.25;font-family:sans-serif;-inkscape-font-specification:sans-serif;font-variant-ligatures:normal;font-variant-caps:normal;font-variant-numeric:normal;font-feature-settings:normal;text-align:start;letter-spacing:0px;word-spacing:0px;writing-mode:lr-tb;text-anchor:start;fill:#000000;fill-opacity:1;stroke:none"
     id="flowRoot816">
    <path
       d="m -1564.873,52.880311 h 59.7187 v 4.6875 h -58.9687 q 2.3437,3.75 4.5,7.96875 2.25,4.21875 4.0312,8.71875 1.875,4.5 3.1875,9.1875 1.4063,4.59375 2.25,9.09375 3.2813,18.093749 3.375,18.468749 0.094,0.1875 0.4688,0.75 0.375,0.5625 1.0312,1.5 1.3125,1.875 1.3125,2.90625 0,2.625 -4.4062,2.625 -3,-1.5 -9,-1.5 -2.3438,0.1875 -5.625,0.65625 -3.2813,0.375 -6.4688,0.84375 h -0.4687 q -2.5313,0 -2.5313,-2.15625 0,-1.3125 3,-2.34375 12.2813,0 15.0938,-3.09375 0,-0.375 0,-0.9375 0,-0.65625 0.094,-1.40625 0,-8.999999 -4.4062,-19.781249 -4.3125,-10.6875 -16.875,-27.09375 l -2.25,1.03125 q -3.9375,12.28125 -12.5625,23.71875 -4.3125,5.71875 -8.1563,11.8125 -3.8437,6.093749 -7.125,12.656249 0,7.59375 -6.0937,7.59375 -1.5,-0.84375 -2.3438,-1.21875 -0.75,-0.375 -1.3125,-0.375 l -16.6875,1.875 q -2.9062,-0.375 -3.2812,-2.34375 v -0.1875 q 0,-1.03125 1.3125,-1.03125 l 2.7187,0.28125 16.5938,-4.59375 q 6,-8.0625 10.125,-14.999999 2.1562,-3.5625 3.4687,-5.90625 1.3125,-2.4375 1.9688,-3.75 l 11.7187,-25.21875 q -0.375,-0.375 -0.6562,-1.40625 -0.2813,-1.125 -0.2813,-2.34375 h -57.5625 v -4.6875 h 57.8438 q 1.5,-4.3125 5.9062,-4.5 2.0625,0 6.6563,2.15625 2.3437,-2.15625 4.6875,-2.15625 3.8437,0 6,4.5 z"
       id="path824"
       inkscape:connector-curvature="0"
       style="fill:#000000" />
  </g>
  <g
     aria-label="𓇋"
     transform="matrix(1.1605879,0,0,1.1605879,1965.5211,-40.218722)"
     style="font-style:normal;font-variant:normal;font-weight:normal;font-stretch:normal;font-size:192px;line-height:1.25;font-family:sans-serif;-inkscape-font-specification:sans-serif;font-variant-ligatures:normal;font-variant-caps:normal;font-variant-numeric:normal;font-feature-settings:normal;text-align:start;letter-spacing:0px;word-spacing:0px;writing-mode:lr-tb;text-anchor:start;fill:#000000;fill-opacity:1;stroke:none"
     id="flowRoot835">
    <path
       d="m -1585.6113,143.21625 q -6.75,-6.75 -11.4375,-8.4375 -4.5938,-1.78125 -13.875,-3.46875 l -1.4063,-1.78125 q 1.2188,-9.65625 5.625,-43.500001 4.4063,-33.84375 6.4688,-50.25 l 1.875,-1.125 q 8.9062,2.15625 15.5625,10.21875 6.75,7.96875 6.75,16.875 V 176.685 l -1.5938,1.5 h -6.0937 l -1.4063,-1.78125 V 143.685 Z m 3.4687,0.1875 V 175.185 h 3.0938 V 62.028749 q 0,-7.59375 -5.5313,-14.625 -5.4375,-7.125 -12.9375,-9.46875 l -5.8125,45.28125 q -2.9062,22.500001 -5.8125,45.375001 9.8438,1.78125 15.1875,4.78125 5.3438,2.90625 11.5313,9.09375 z"
       id="path843"
       inkscape:connector-curvature="0"
       style="fill:#000000" />
  </g>
</svg>
