<?xml version="1.0" encoding="UTF-8" standalone="no"?>
<!-- Created with Inkscape (http://www.inkscape.org/) -->

<svg
   xmlns:dc="http://purl.org/dc/elements/1.1/"
   xmlns:cc="http://creativecommons.org/ns#"
   xmlns:rdf="http://www.w3.org/1999/02/22-rdf-syntax-ns#"
   xmlns:svg="http://www.w3.org/2000/svg"
   xmlns="http://www.w3.org/2000/svg"
   xmlns:sodipodi="http://sodipodi.sourceforge.net/DTD/sodipodi-0.dtd"
   xmlns:inkscape="http://www.inkscape.org/namespaces/inkscape"
   width="20.315039mm"
   height="37.901562mm"
   viewBox="0 0 20.315039 37.901562"
   version="1.1"
   id="svg7568"
   inkscape:version="0.92.4 (5da689c313, 2019-01-14)"
   sodipodi:docname="O36B.svg">
  <defs
     id="defs7562" />
  <sodipodi:namedview
     id="base"
     pagecolor="#ffffff"
     bordercolor="#666666"
     borderopacity="1.0"
     inkscape:pageopacity="0.0"
     inkscape:pageshadow="2"
     inkscape:zoom="0.35"
     inkscape:cx="-321.42773"
     inkscape:cy="-366.09055"
     inkscape:document-units="mm"
     inkscape:current-layer="layer1"
     showgrid="false"
     fit-margin-top="0"
     fit-margin-left="0"
     fit-margin-right="0"
     fit-margin-bottom="0"
     inkscape:window-width="1920"
     inkscape:window-height="1017"
     inkscape:window-x="-8"
     inkscape:window-y="-8"
     inkscape:window-maximized="1" />
  <metadata
     id="metadata7565">
    <rdf:RDF>
      <cc:Work
         rdf:about="">
        <dc:format>image/svg+xml</dc:format>
        <dc:type
           rdf:resource="http://purl.org/dc/dcmitype/StillImage" />
        <dc:title></dc:title>
      </cc:Work>
    </rdf:RDF>
  </metadata>
  <g
     inkscape:label="Layer 1"
     inkscape:groupmode="layer"
     id="layer1"
     transform="translate(2.2680786,-14.070314)">
    <g
       aria-label="𓊇"
       transform="scale(0.26458333)"
       style="font-style:normal;font-variant:normal;font-weight:normal;font-stretch:normal;font-size:192px;line-height:1.25;font-family:sans-serif;-inkscape-font-specification:sans-serif;font-variant-ligatures:normal;font-variant-caps:normal;font-variant-numeric:normal;font-feature-settings:normal;text-align:start;letter-spacing:0px;word-spacing:0px;writing-mode:lr-tb;text-anchor:start;fill:#000000;fill-opacity:1;stroke:none"
       id="flowRoot8113">
      <path
         d="m 68.208984,115.42914 v 18.75 h -7.03125 q -0.375,4.21875 -1.03125,8.0625 -0.65625,3.84375 -1.6875,7.59375 l 6.65625,2.4375 -5.8125,16.03125 -6.9375,-2.53125 q -1.59375,2.71875 -3.5625,5.53125 -1.96875,2.71875 -4.3125,5.15625 l 3.9375,5.4375 -13.78125,9.9375 -4.125,-5.625 q -3.5625,1.40625 -7.40625,2.15625 -3.84375,0.75 -8.625,0.75 v 7.3125 H -2.5722656 v -7.3125 h -6 v -3.84375 H 16.083984 q 4.03125,0 8.25,-1.3125 4.3125,-1.3125 8.34375,-3.65625 4.03125,-2.4375 7.5,-5.625 3.5625,-3.28125 6.09375,-7.21875 5.15625,-7.875 7.6875,-18.9375 2.53125,-11.0625 2.53125,-23.71875 0,-12.65625 -2.53125,-23.71875 -2.53125,-11.0625 -7.6875,-18.9375 -2.53125,-3.9375 -6.09375,-7.125 -3.46875,-3.28125 -7.5,-5.625 -4.03125,-2.4375 -8.34375,-3.75 -4.21875,-1.3125 -8.25,-1.3125 H -8.5722656 v -3.84375 h 6 v -7.3125 H 14.490234 v 7.3125 q 4.78125,0 8.625,0.75 3.84375,0.75 7.40625,2.15625 l 4.125,-5.625 13.78125,9.9375 -3.9375,5.4375 q 2.34375,2.4375 4.3125,5.25 1.96875,2.71875 3.5625,5.4375 l 6.9375,-2.53125 5.8125,16.03125 -6.65625,2.4375 q 1.03125,3.75 1.6875,7.59375 0.65625,3.84375 1.03125,8.0625 z"
         id="path8121"
         inkscape:connector-curvature="0" />
    </g>
  </g>
</svg>
