<?xml version="1.0" encoding="UTF-8" standalone="no"?>
<!-- Created with Inkscape (http://www.inkscape.org/) -->

<svg
   xmlns:dc="http://purl.org/dc/elements/1.1/"
   xmlns:cc="http://creativecommons.org/ns#"
   xmlns:rdf="http://www.w3.org/1999/02/22-rdf-syntax-ns#"
   xmlns:svg="http://www.w3.org/2000/svg"
   xmlns="http://www.w3.org/2000/svg"
   xmlns:sodipodi="http://sodipodi.sourceforge.net/DTD/sodipodi-0.dtd"
   xmlns:inkscape="http://www.inkscape.org/namespaces/inkscape"
   width="34.180859mm"
   height="28.574999mm"
   viewBox="0 0 34.180859 28.574999"
   version="1.1"
   id="svg9553"
   inkscape:version="0.92.4 (5da689c313, 2019-01-14)"
   sodipodi:docname="O37.svg">
  <defs
     id="defs9547" />
  <sodipodi:namedview
     id="base"
     pagecolor="#ffffff"
     bordercolor="#666666"
     borderopacity="1.0"
     inkscape:pageopacity="0.0"
     inkscape:pageshadow="2"
     inkscape:zoom="0.35"
     inkscape:cx="-340.40234"
     inkscape:cy="-384.83274"
     inkscape:document-units="mm"
     inkscape:current-layer="layer1"
     showgrid="false"
     fit-margin-top="0"
     fit-margin-left="0"
     fit-margin-right="0"
     fit-margin-bottom="0"
     inkscape:window-width="1920"
     inkscape:window-height="1017"
     inkscape:window-x="-8"
     inkscape:window-y="-8"
     inkscape:window-maximized="1" />
  <metadata
     id="metadata9550">
    <rdf:RDF>
      <cc:Work
         rdf:about="">
        <dc:format>image/svg+xml</dc:format>
        <dc:type
           rdf:resource="http://purl.org/dc/dcmitype/StillImage" />
        <dc:title></dc:title>
      </cc:Work>
    </rdf:RDF>
  </metadata>
  <g
     inkscape:label="Layer 1"
     inkscape:groupmode="layer"
     id="layer1"
     transform="translate(-2.7522868,-18.438006)">
    <g
       aria-label="𓊊"
       transform="scale(0.26458333)"
       style="font-style:normal;font-variant:normal;font-weight:normal;font-stretch:normal;font-size:192px;line-height:1.25;font-family:sans-serif;-inkscape-font-specification:'sans-serif, Normal';font-variant-ligatures:normal;font-variant-caps:normal;font-variant-numeric:normal;font-feature-settings:normal;text-align:start;letter-spacing:0px;word-spacing:0px;writing-mode:lr-tb;text-anchor:start;fill:#000000;fill-opacity:1;stroke:none"
       id="flowRoot10098">
      <path
         d="m 97.496094,103.24945 -4.125,7.3125 25.218746,14.53125 4.21875,-7.21875 16.78125,9.65625 -9.65625,16.6875 -7.40625,-4.21875 -9.65625,16.78125 7.40625,4.21875 -9.65625,16.6875 -16.781246,-9.65625 4.21875,-7.21875 -25.3125,-14.625 -4.21875,7.21875 -16.125,-9.28125 4.125,-7.21875 -25.3125,-14.625 -4.125,7.125 -16.6875,-9.5625 9.5625,-16.6875 7.3125,4.21875 9.75,-16.687498 -7.3125,-4.3125 9.5625,-16.6875 16.6875,9.65625 -4.125,7.21875 25.3125,14.624998 4.21875,-7.218748 z m 8.906246,58.875 17.53125,-30.46875 q -9,-5.25 -35.624996,-20.53125 -26.53125,-15.281248 -44.71875,-25.874998 -4.40625,7.5 -9.75,16.781248 -5.25,9.1875 -7.875,13.6875 z"
         id="path10106"
         inkscape:connector-curvature="0" />
    </g>
  </g>
</svg>
