<?xml version="1.0" encoding="UTF-8" standalone="no"?>
<!-- Created with Inkscape (http://www.inkscape.org/) -->

<svg
   xmlns:dc="http://purl.org/dc/elements/1.1/"
   xmlns:cc="http://creativecommons.org/ns#"
   xmlns:rdf="http://www.w3.org/1999/02/22-rdf-syntax-ns#"
   xmlns:svg="http://www.w3.org/2000/svg"
   xmlns="http://www.w3.org/2000/svg"
   xmlns:sodipodi="http://sodipodi.sourceforge.net/DTD/sodipodi-0.dtd"
   xmlns:inkscape="http://www.inkscape.org/namespaces/inkscape"
   width="37.256641mm"
   height="18.628321mm"
   viewBox="0 0 37.256641 18.628321"
   version="1.1"
   id="svg12917"
   inkscape:version="0.92.4 (5da689c313, 2019-01-14)"
   sodipodi:docname="O43.svg">
  <defs
     id="defs12911" />
  <sodipodi:namedview
     id="base"
     pagecolor="#ffffff"
     bordercolor="#666666"
     borderopacity="1.0"
     inkscape:pageopacity="0.0"
     inkscape:pageshadow="2"
     inkscape:zoom="0.35"
     inkscape:cx="-334.6875"
     inkscape:cy="-390.54758"
     inkscape:document-units="mm"
     inkscape:current-layer="layer1"
     showgrid="false"
     fit-margin-top="0"
     fit-margin-left="0"
     fit-margin-right="0"
     fit-margin-bottom="0"
     inkscape:window-width="1920"
     inkscape:window-height="1017"
     inkscape:window-x="-8"
     inkscape:window-y="-8"
     inkscape:window-maximized="1" />
  <metadata
     id="metadata12914">
    <rdf:RDF>
      <cc:Work
         rdf:about="">
        <dc:format>image/svg+xml</dc:format>
        <dc:type
           rdf:resource="http://purl.org/dc/dcmitype/StillImage" />
        <dc:title></dc:title>
      </cc:Work>
    </rdf:RDF>
  </metadata>
  <g
     inkscape:label="Layer 1"
     inkscape:groupmode="layer"
     id="layer1"
     transform="translate(-1.2402344,-26.872633)">
    <g
       aria-label="ð“Š"
       transform="scale(0.26458333)"
       style="font-style:normal;font-variant:normal;font-weight:normal;font-stretch:normal;font-size:192px;line-height:1.25;font-family:sans-serif;-inkscape-font-specification:'sans-serif, Normal';font-variant-ligatures:normal;font-variant-caps:normal;font-variant-numeric:normal;font-feature-settings:normal;text-align:start;letter-spacing:0px;word-spacing:0px;writing-mode:lr-tb;text-anchor:start;fill:#000000;fill-opacity:1;stroke:none"
       id="flowRoot13462">
      <path
         d="m 145.5,110.56586 v 3.09375 h -11.25 q -1.5,4.875 -4.59375,8.34375 v 46.125 h 15.65625 v 3.84375 H 4.6875 v -3.84375 h 15.84375 v -46.125 q -4.03125,-4.5 -5.0625,-8.34375 H 4.6875 v -3.09375 h 10.40625 q 0.65625,-4.875 7.03125,-9 5.71875,3.1875 6.84375,9 h 12 q 0.65625,-4.875 7.03125,-9 5.71875,3.1875 6.84375,9 H 67.6875 q 0.84375,-5.0625 6.9375,-9 5.8125,3.09375 6.9375,9 H 94.125 q 0.84375,-5.15625 7.03125,-9 5.71875,3.1875 6.84375,9 h 12.5625 q 0.65625,-4.875 7.03125,-9 5.71875,3.1875 6.84375,9 z m -72.46875,11.4375 q -3.75,-4.21875 -5.0625,-8.34375 h -13.3125 q -1.5,4.875 -4.59375,8.34375 v 46.125 h 22.96875 z m 52.96875,0 q -4.03125,-4.5 -5.0625,-8.34375 h -13.125 q -1.5,4.875 -4.6875,8.34375 v 46.125 H 126 Z m -26.4375,0 q -3.84375,-4.03125 -5.15625,-8.34375 H 81.375 q -1.5,4.875 -4.6875,8.34375 v 46.125 h 22.875 z m -53.15625,0 q -3.9375,-4.21875 -5.0625,-8.34375 h -12.5625 q -1.5,4.875 -4.59375,8.34375 v 46.125 h 22.21875 z m 58.6875,-11.4375 q -0.84375,-3.1875 -3.9375,-5.625 -3.09375,2.4375 -3.46875,5.625 z m -53.15625,0 q -0.84375,-3.1875 -3.9375,-5.625 -3.09375,2.4375 -3.46875,5.625 z m 26.71875,0 q -0.84375,-3.1875 -3.9375,-5.625 -3.09375,2.4375 -3.46875,5.625 z m 52.875,0 q -0.84375,-3.1875 -3.84375,-5.625 -3.1875,2.4375 -3.5625,5.625 z m -105.46875,0 q -0.84375,-3.1875 -3.84375,-5.625 -3.1875,2.4375 -3.5625,5.625 z m -7.03125,3.09375 q 0.84375,3.28125 3.1875,6.1875 2.71875,-2.90625 3.75,-6.1875 z m 105.46875,0 q 0.84375,3.28125 3.1875,6.1875 2.71875,-2.90625 3.75,-6.1875 z m -26.4375,0 q 0.84375,3.09375 3.09375,6.1875 2.8125,-2.8125 3.84375,-6.1875 z m -53.15625,0 q 0.84375,3.09375 3.09375,6.1875 2.8125,-2.8125 3.84375,-6.1875 z m 26.71875,0 q 0.84375,3.09375 3.09375,6.1875 2.8125,-2.8125 3.84375,-6.1875 z"
         id="path13470"
         inkscape:connector-curvature="0" />
    </g>
  </g>
</svg>
