<?xml version="1.0" encoding="UTF-8" standalone="no"?>
<!-- Created with Inkscape (http://www.inkscape.org/) -->

<svg
   xmlns:dc="http://purl.org/dc/elements/1.1/"
   xmlns:cc="http://creativecommons.org/ns#"
   xmlns:rdf="http://www.w3.org/1999/02/22-rdf-syntax-ns#"
   xmlns:svg="http://www.w3.org/2000/svg"
   xmlns="http://www.w3.org/2000/svg"
   xmlns:sodipodi="http://sodipodi.sourceforge.net/DTD/sodipodi-0.dtd"
   xmlns:inkscape="http://www.inkscape.org/namespaces/inkscape"
   width="22.398632mm"
   height="37.331055mm"
   viewBox="0 0 22.398632 37.331055"
   version="1.1"
   id="svg12355"
   inkscape:version="0.92.4 (5da689c313, 2019-01-14)"
   sodipodi:docname="O44.svg">
  <defs
     id="defs12349" />
  <sodipodi:namedview
     id="base"
     pagecolor="#ffffff"
     bordercolor="#666666"
     borderopacity="1.0"
     inkscape:pageopacity="0.0"
     inkscape:pageshadow="2"
     inkscape:zoom="0.35"
     inkscape:cx="-331.83008"
     inkscape:cy="-379.11789"
     inkscape:document-units="mm"
     inkscape:current-layer="layer1"
     showgrid="false"
     fit-margin-top="0"
     fit-margin-left="0"
     fit-margin-right="0"
     fit-margin-bottom="0"
     inkscape:window-width="1920"
     inkscape:window-height="1017"
     inkscape:window-x="-8"
     inkscape:window-y="-8"
     inkscape:window-maximized="1" />
  <metadata
     id="metadata12352">
    <rdf:RDF>
      <cc:Work
         rdf:about="">
        <dc:format>image/svg+xml</dc:format>
        <dc:type
           rdf:resource="http://purl.org/dc/dcmitype/StillImage" />
        <dc:title></dc:title>
      </cc:Work>
    </rdf:RDF>
  </metadata>
  <g
     inkscape:label="Layer 1"
     inkscape:groupmode="layer"
     id="layer1"
     transform="translate(-0.48420816,-11.194004)">
    <g
       aria-label="𓊑"
       transform="scale(0.26458333)"
       style="font-style:normal;font-variant:normal;font-weight:normal;font-stretch:normal;font-size:192px;line-height:1.25;font-family:sans-serif;-inkscape-font-specification:'sans-serif, Normal';font-variant-ligatures:normal;font-variant-caps:normal;font-variant-numeric:normal;font-feature-settings:normal;text-align:start;letter-spacing:0px;word-spacing:0px;writing-mode:lr-tb;text-anchor:start;fill:#000000;fill-opacity:1;stroke:none"
       id="flowRoot12900">
      <path
         d="m 86.486328,42.308046 q -7.3125,3.46875 -16.21875,17.71875 -8.625,14.0625 -15,17.90625 l 13.5,10.125 q 6.1875,4.78125 10.21875,10.125 4.125,5.343754 5.53125,10.968754 h -3.9375 q -3.1875,-9.656254 -15.9375,-19.406254 l -13.3125,-10.3125 q -1.3125,0.375 -2.90625,0.65625 -1.5,0.1875 -2.8125,0.28125 11.0625,0.375 13.875,7.5 l -1.59375,1.59375 -1.78125,-1.03125 -1.3125,-0.5625 q -0.75,1.125 -1.40625,2.625 -0.65625,1.40625 -1.5,2.71875 -0.84375,1.3125 -2.0625,2.34375 -1.21875,1.03125 -3.1875,1.40625 V 183.4018 h -4.6875 V 96.964296 q -3.9375,-1.40625 -6.9375,-9.46875 -3.1875,1.40625 -3.5625,1.96875 l -2.34375,-1.59375 q 3.46875,-7.03125 14.15625,-7.5 -5.4375,-0.09375 -10.5,-2.90625 -4.78125,-2.625 -9.9375,-10.875 -2.53125,-4.21875 -5.0625,-7.875 -2.4375,-3.75 -4.875,-7.03125 -4.8749999,-6.75 -11.0624999,-9.375 8.15625,1.96875 14.7187499,10.5 l 10.78125,14.34375 q 2.4375,2.625 4.40625,4.3125 2.0625,1.6875 4.125,2.71875 2.15625,0.9375 4.59375,1.3125 2.53125,0.375 5.8125,0.375 -5.34375,-4.21875 -8.25,-9.1875 -2.90625,-5.0625 -2.90625,-9.28125 0,-2.625 0.9375,-4.78125 0.9375,-2.25 2.53125,-3.84375 1.6875,-1.59375 3.9375,-2.4375 2.25,-0.84375 4.78125,-0.84375 9.09375,0 9.09375,9.1875 0,7.03125 -7.59375,7.03125 -2.90625,0 -4.5,-1.875 v -3.84375 q 1.96875,2.34375 4.6875,2.34375 3.65625,0 3.65625,-3.84375 0,-5.25 -5.34375,-5.25 -8.25,0 -8.25,9.84375 0,3.1875 3,7.3125 3.09375,4.125 8.8125,8.34375 4.03125,-1.21875 8.15625,-5.53125 4.125,-4.3125 9.1875,-11.25 10.03125,-13.78125 18.28125,-15.65625 z m -48.46875,43.96875 q 0.375,1.125 0.9375,2.53125 0.5625,1.40625 1.3125,2.625 0.84375,1.21875 1.875,2.0625 1.125,0.75 2.53125,0.75 1.40625,0 2.4375,-0.75 1.125,-0.75 1.96875,-1.875 0.84375,-1.21875 1.40625,-2.53125 0.5625,-1.3125 1.03125,-2.4375 -1.5,-0.46875 -3.5625,-1.03125 -1.96875,-0.65625 -3.375,-0.65625 -1.40625,0 -3.28125,0.46875 -1.78125,0.46875 -3.28125,0.84375 z"
         id="path12908"
         inkscape:connector-curvature="0" />
    </g>
  </g>
</svg>
