<?xml version="1.0" encoding="UTF-8" standalone="no"?>
<!-- Created with Inkscape (http://www.inkscape.org/) -->

<svg
   xmlns:dc="http://purl.org/dc/elements/1.1/"
   xmlns:cc="http://creativecommons.org/ns#"
   xmlns:rdf="http://www.w3.org/1999/02/22-rdf-syntax-ns#"
   xmlns:svg="http://www.w3.org/2000/svg"
   xmlns="http://www.w3.org/2000/svg"
   xmlns:sodipodi="http://sodipodi.sourceforge.net/DTD/sodipodi-0.dtd"
   xmlns:inkscape="http://www.inkscape.org/namespaces/inkscape"
   width="24.804688mm"
   height="9.4257812mm"
   viewBox="0 0 24.804688 9.4257812"
   version="1.1"
   id="svg1393"
   inkscape:version="0.92.4 (5da689c313, 2019-01-14)"
   sodipodi:docname="O47.svg">
  <defs
     id="defs1387" />
  <sodipodi:namedview
     id="base"
     pagecolor="#ffffff"
     bordercolor="#666666"
     borderopacity="1.0"
     inkscape:pageopacity="0.0"
     inkscape:pageshadow="2"
     inkscape:zoom="0.35"
     inkscape:cx="-331.83036"
     inkscape:cy="-474.28571"
     inkscape:document-units="mm"
     inkscape:current-layer="layer1"
     showgrid="false"
     fit-margin-top="0"
     fit-margin-left="0"
     fit-margin-right="0"
     fit-margin-bottom="0"
     inkscape:window-width="1920"
     inkscape:window-height="1017"
     inkscape:window-x="-8"
     inkscape:window-y="-8"
     inkscape:window-maximized="1" />
  <metadata
     id="metadata1390">
    <rdf:RDF>
      <cc:Work
         rdf:about="">
        <dc:format>image/svg+xml</dc:format>
        <dc:type
           rdf:resource="http://purl.org/dc/dcmitype/StillImage" />
        <dc:title></dc:title>
      </cc:Work>
    </rdf:RDF>
  </metadata>
  <g
     inkscape:label="Layer 1"
     inkscape:groupmode="layer"
     id="layer1"
     transform="translate(-0.48428194,-13.919457)">
    <g
       aria-label="𓊔"
       style="font-style:normal;font-variant:normal;font-weight:normal;font-stretch:normal;font-size:50.79999924px;line-height:1.25;font-family:sans-serif;-inkscape-font-specification:'sans-serif, Normal';font-variant-ligatures:normal;font-variant-caps:normal;font-variant-numeric:normal;font-feature-settings:normal;text-align:start;letter-spacing:0px;word-spacing:0px;writing-mode:lr-tb;text-anchor:start;fill:#000000;fill-opacity:1;stroke:none;stroke-width:0.26458332"
       id="text1940">
      <path
         d="M 5.1971725,13.919457 H 20.576079 q 4.71289,0 4.71289,4.588867 0,1.091406 -0.297656,1.984375 -0.297656,0.892968 -0.868164,1.53789 -0.570508,0.620117 -1.389063,0.967383 -0.79375,0.347266 -1.785937,0.347266 H 5.1971725 q -2.2324218,0 -3.4726562,-1.21543 -1.24023436,-1.21543 -1.24023436,-3.398242 0,-4.812109 4.71289056,-4.812109 z M 20.576079,15.159691 H 5.5940475 q -1.2154297,0 -1.984375,0.272852 -0.7441406,0.248046 -1.1658203,0.719335 -0.4216797,0.47129 -0.5705078,1.091407 -0.1488281,0.620117 -0.1488281,1.364257 0,0.595313 0.1240234,1.21543 0.1488282,0.620117 0.5457031,1.141016 0.396875,0.496094 1.0914063,0.818554 0.6945312,0.322461 1.7859375,0.322461 H 20.948149 q 0.917773,0 1.513086,-0.297656 0.595312,-0.322461 0.942578,-0.818555 0.347265,-0.496093 0.471289,-1.11621 0.148828,-0.644922 0.148828,-1.289844 0,-0.744141 -0.148828,-1.364258 -0.148828,-0.620117 -0.545703,-1.066602 -0.372071,-0.471289 -1.041797,-0.719335 -0.669727,-0.272852 -1.711523,-0.272852 z m -7.689453,1.389062 h 1.637109 l 3.844726,4.241602 h -1.637109 z m -5.0105473,0 h 1.661914 l 3.8447263,4.241602 h -1.661914 z"
         style="stroke-width:0.26458332"
         id="path1942"
         inkscape:connector-curvature="0" />
    </g>
  </g>
</svg>
