<?xml version="1.0" encoding="UTF-8" standalone="no"?>
<!-- Created with Inkscape (http://www.inkscape.org/) -->

<svg
   xmlns:dc="http://purl.org/dc/elements/1.1/"
   xmlns:cc="http://creativecommons.org/ns#"
   xmlns:rdf="http://www.w3.org/1999/02/22-rdf-syntax-ns#"
   xmlns:svg="http://www.w3.org/2000/svg"
   xmlns="http://www.w3.org/2000/svg"
   xmlns:sodipodi="http://sodipodi.sourceforge.net/DTD/sodipodi-0.dtd"
   xmlns:inkscape="http://www.inkscape.org/namespaces/inkscape"
   width="18.628321mm"
   height="18.628321mm"
   viewBox="0 0 18.628321 18.628321"
   version="1.1"
   id="svg4199"
   inkscape:version="0.92.4 (5da689c313, 2019-01-14)"
   sodipodi:docname="O50.svg">
  <defs
     id="defs4193" />
  <sodipodi:namedview
     id="base"
     pagecolor="#ffffff"
     bordercolor="#666666"
     borderopacity="1.0"
     inkscape:pageopacity="0.0"
     inkscape:pageshadow="2"
     inkscape:zoom="0.35"
     inkscape:cx="-331.8298"
     inkscape:cy="-487.69016"
     inkscape:document-units="mm"
     inkscape:current-layer="layer1"
     showgrid="false"
     fit-margin-top="0"
     fit-margin-left="0"
     fit-margin-right="0"
     fit-margin-bottom="0"
     inkscape:window-width="1920"
     inkscape:window-height="1017"
     inkscape:window-x="-8"
     inkscape:window-y="-8"
     inkscape:window-maximized="1" />
  <metadata
     id="metadata4196">
    <rdf:RDF>
      <cc:Work
         rdf:about="">
        <dc:format>image/svg+xml</dc:format>
        <dc:type
           rdf:resource="http://purl.org/dc/dcmitype/StillImage" />
        <dc:title></dc:title>
      </cc:Work>
    </rdf:RDF>
  </metadata>
  <g
     inkscape:label="Layer 1"
     inkscape:groupmode="layer"
     id="layer1"
     transform="translate(-0.48413436,-1.1703262)">
    <g
       aria-label="𓊗"
       transform="matrix(0.26458333,0,0,0.26458333,0.75595238,-26.458333)"
       style="font-style:normal;font-variant:normal;font-weight:normal;font-stretch:normal;font-size:192px;line-height:1.25;font-family:sans-serif;-inkscape-font-specification:'sans-serif, Normal';font-variant-ligatures:normal;font-variant-caps:normal;font-variant-numeric:normal;font-feature-settings:normal;text-align:start;letter-spacing:0px;word-spacing:0px;writing-mode:lr-tb;text-anchor:start;fill:#000000;fill-opacity:1;stroke:none"
       id="flowRoot4744">
      <path
         d="m -1.0273437,139.57953 q 0,-7.21875 2.7187499,-13.59375 2.71875,-6.46875 7.4062501,-11.25 4.7812497,-4.78125 11.1562497,-7.5 6.46875,-2.8125 13.875,-2.8125 7.21875,0 13.59375,2.8125 6.46875,2.71875 11.25,7.5 4.78125,4.78125 7.59375,11.25 2.8125,6.375 2.8125,13.59375 0,7.59375 -2.8125,14.0625 -2.71875,6.46875 -7.5,11.25 -4.78125,4.6875 -11.25,7.3125 -6.375,2.625 -13.6875,2.625 -7.3125,0 -13.78125,-2.71875 -6.375,-2.8125 -11.1562497,-7.59375 -4.6875001,-4.78125 -7.5000001,-11.15625 -2.7187499,-6.46875 -2.7187499,-13.78125 z m 65.7187497,-0.0937 q 0,-6 -2.25,-11.53125 -2.15625,-5.53125 -6.1875,-9.65625 -4.03125,-4.21875 -9.65625,-6.65625 -5.625,-2.53125 -12.375,-2.53125 -6.65625,0 -12.28125,2.53125 -5.53125,2.4375 -9.65625,6.65625 -4.0312497,4.125 -6.3749998,9.65625 -2.2499999,5.4375 -2.2499999,11.53125 0,6.5625 2.3437499,12.1875 2.3437501,5.53125 6.3749998,9.65625 4.125,4.125 9.75,6.46875 5.625,2.34375 12.09375,2.34375 6.5625,0 12.09375,-2.34375 5.625,-2.34375 9.65625,-6.46875 4.125,-4.125 6.375,-9.65625 2.34375,-5.625 2.34375,-12.1875 z m -46.03125,-18 1.5,1.5 -1.5,1.5 -1.5,-1.5 z m 7.40625,16.59375 1.5,1.5 -1.5,1.59375 -1.5,-1.59375 z m 16.21875,0 1.5,1.5 -1.5,1.59375 -1.5,-1.59375 z m -32.4374997,0 1.5937497,1.5 -1.5937497,1.59375 -1.5,-1.59375 z m 48.0937497,0 1.5,1.5 -1.5,1.59375 -1.5,-1.59375 z m -23.71875,-16.59375 1.5,1.5 -1.5,1.5 -1.59375,-1.5 z m 0,33.28125 1.5,1.5 -1.5,1.5 -1.59375,-1.5 z m 16.125,0 1.5,1.5 -1.5,1.5 -1.5,-1.5 z m -31.6875,0 1.5,1.5 -1.5,1.5 -1.5,-1.5 z m 31.6875,-33.28125 1.5,1.5 -1.5,1.5 -1.5,-1.5 z"
         id="path4752"
         inkscape:connector-curvature="0" />
    </g>
  </g>
</svg>
