<?xml version="1.0" encoding="UTF-8" standalone="no"?>
<!-- Created with Inkscape (http://www.inkscape.org/) -->

<svg
   xmlns:dc="http://purl.org/dc/elements/1.1/"
   xmlns:cc="http://creativecommons.org/ns#"
   xmlns:rdf="http://www.w3.org/1999/02/22-rdf-syntax-ns#"
   xmlns:svg="http://www.w3.org/2000/svg"
   xmlns="http://www.w3.org/2000/svg"
   xmlns:sodipodi="http://sodipodi.sourceforge.net/DTD/sodipodi-0.dtd"
   xmlns:inkscape="http://www.inkscape.org/namespaces/inkscape"
   width="18.008204mm"
   height="17.611328mm"
   viewBox="0 0 18.008204 17.611328"
   version="1.1"
   id="svg9262"
   inkscape:version="0.92.4 (5da689c313, 2019-01-14)"
   sodipodi:docname="O50A.svg">
  <defs
     id="defs9256" />
  <sodipodi:namedview
     id="base"
     pagecolor="#ffffff"
     bordercolor="#666666"
     borderopacity="1.0"
     inkscape:pageopacity="0.0"
     inkscape:pageshadow="2"
     inkscape:zoom="0.35"
     inkscape:cx="-320.40234"
     inkscape:cy="-342.25657"
     inkscape:document-units="mm"
     inkscape:current-layer="layer1"
     showgrid="false"
     fit-margin-top="0"
     fit-margin-left="0"
     fit-margin-right="0"
     fit-margin-bottom="0"
     inkscape:window-width="1920"
     inkscape:window-height="1017"
     inkscape:window-x="-8"
     inkscape:window-y="-8"
     inkscape:window-maximized="1" />
  <metadata
     id="metadata9259">
    <rdf:RDF>
      <cc:Work
         rdf:about="">
        <dc:format>image/svg+xml</dc:format>
        <dc:type
           rdf:resource="http://purl.org/dc/dcmitype/StillImage" />
        <dc:title></dc:title>
      </cc:Work>
    </rdf:RDF>
  </metadata>
  <g
     inkscape:label="Layer 1"
     inkscape:groupmode="layer"
     id="layer1"
     transform="translate(2.5393799,-40.666622)">
    <g
       aria-label="𓊘"
       transform="scale(0.26458333)"
       style="font-style:normal;font-variant:normal;font-weight:normal;font-stretch:normal;font-size:192px;line-height:1.25;font-family:sans-serif;-inkscape-font-specification:sans-serif;font-variant-ligatures:normal;font-variant-caps:normal;font-variant-numeric:normal;font-feature-settings:normal;text-align:start;letter-spacing:0px;word-spacing:0px;writing-mode:lr-tb;text-anchor:start;fill:#000000;fill-opacity:1;stroke:none"
       id="flowRoot9807">
      <path
         d="m 39.996094,178.54437 q 2.90625,4.21875 3.84375,7.875 1.03125,3.5625 1.03125,7.5 0,5.71875 -2.25,10.59375 -2.25,4.78125 -6.09375,8.34375 -3.84375,3.46875 -8.90625,5.4375 -5.0625,1.96875 -10.59375,1.96875 -5.625,0 -10.5000003,-1.96875 -4.875,-2.0625 -8.4374999,-5.53125 -3.5625,-3.5625 -5.625,-8.34375 -2.0625001,-4.875 -2.0625001,-10.5 0,-5.53125 2.0625001,-10.5 2.0625,-4.96875 5.625,-8.71875 3.5624999,-3.84375 8.4374999,-6 4.8750003,-2.25 10.5000003,-2.25 4.5,0 9,1.5 4.5,1.40625 7.3125,3.84375 l 16.59375,-16.59375 q 0.84375,-0.84375 1.59375,-1.125 0.84375,-0.375 1.5,-0.375 1.78125,0 1.78125,1.78125 0,1.59375 -1.6875,3.28125 1.78125,-1.78125 3.375,-1.78125 0.84375,0 1.40625,0.5625 0.5625,0.46875 0.5625,1.3125 0,1.3125 -1.3125,2.53125 z m -0.09375,15.375 q 0,-4.3125 -1.6875,-8.4375 -1.6875,-4.125 -4.78125,-7.3125 -3,-3.1875 -7.21875,-5.0625 -4.125,-1.96875 -9.09375,-1.96875 -4.96875,0 -9.0000002,1.96875 -3.9375001,1.875 -6.8437501,5.0625 -2.8124999,3.09375 -4.40625,7.21875 -1.4999999,4.125 -1.4999999,8.53125 0,4.96875 1.6874999,9 1.6875001,3.9375 4.59375,6.84375 3,2.8125 6.9375001,4.40625 3.9375002,1.5 8.5312502,1.5 4.5,0 8.625,-1.6875 4.125,-1.6875 7.21875,-4.59375 3.1875,-3 5.0625,-6.9375 1.875,-3.9375 1.875,-8.53125 z"
         id="path9815"
         inkscape:connector-curvature="0" />
    </g>
  </g>
</svg>
