<?xml version="1.0" encoding="UTF-8" standalone="no"?>
<svg
   xmlns:dc="http://purl.org/dc/elements/1.1/"
   xmlns:cc="http://creativecommons.org/ns#"
   xmlns:rdf="http://www.w3.org/1999/02/22-rdf-syntax-ns#"
   xmlns:svg="http://www.w3.org/2000/svg"
   xmlns="http://www.w3.org/2000/svg"
   xmlns:sodipodi="http://sodipodi.sourceforge.net/DTD/sodipodi-0.dtd"
   xmlns:inkscape="http://www.inkscape.org/namespaces/inkscape"
   version="1.0"
   width="122.01757pt"
   height="80.984375pt"
   viewBox="0 0 122.01757 80.984375"
   preserveAspectRatio="xMidYMid meet"
   id="svg8"
   sodipodi:docname="O52.svg"
   inkscape:version="0.92.4 (5da689c313, 2019-01-14)">
  <defs
     id="defs12" />
  <sodipodi:namedview
     pagecolor="#ffffff"
     bordercolor="#666666"
     borderopacity="1"
     objecttolerance="10"
     gridtolerance="10"
     guidetolerance="10"
     inkscape:pageopacity="0"
     inkscape:pageshadow="2"
     inkscape:window-width="1920"
     inkscape:window-height="1017"
     id="namedview10"
     showgrid="false"
     fit-margin-top="0"
     fit-margin-left="0"
     fit-margin-right="0"
     fit-margin-bottom="0"
     inkscape:zoom="1.505"
     inkscape:cx="105.81907"
     inkscape:cy="46.663178"
     inkscape:window-x="-8"
     inkscape:window-y="-8"
     inkscape:window-maximized="1"
     inkscape:current-layer="svg8" />
  <metadata
     id="metadata2">
Created by potrace 1.10, written by Peter Selinger 2001-2011
<rdf:RDF>
  <cc:Work
     rdf:about="">
    <dc:format>image/svg+xml</dc:format>
    <dc:type
       rdf:resource="http://purl.org/dc/dcmitype/StillImage" />
    <dc:title></dc:title>
  </cc:Work>
</rdf:RDF>
</metadata>
  <g
     transform="matrix(0.1,0,0,-0.1,160.64104,85.681641)"
     id="g6"
     style="fill:#000000;stroke:none">
    <path
       d="m 453,968 c -4,-7 -18,-42 -30,-78 -12,-36 -31,-90 -43,-120 -12,-30 -25,-68 -30,-85 -5,-16 -18,-55 -30,-85 -12,-30 -26,-68 -30,-85 -12,-42 -41,-119 -47,-125 -2,-3 -32,-7 -66,-10 l -62,-5 -3,-75 c -2,-62 0,-77 14,-87 14,-10 143,-13 594,-13 668,0 620,-7 620,94 0,40 -5,68 -13,74 -7,6 -39,12 -72,14 -57,3 -60,4 -66,33 -4,17 -17,55 -29,85 -12,30 -26,69 -30,85 -5,17 -25,75 -45,130 -20,55 -40,114 -45,130 -18,63 -42,120 -53,127 -7,4 -128,8 -269,8 -195,0 -259,-3 -265,-12 z m 488,-48 c 4,0 10,-8 14,-17 14,-34 76,-208 85,-238 4,-16 18,-55 30,-85 12,-30 25,-68 30,-85 14,-50 48,-136 60,-150 7,-8 35,-15 63,-17 50,-3 52,-4 52,-33 v -30 l -551,-3 c -495,-2 -552,-1 -558,14 -12,31 12,53 61,56 41,3 49,7 66,36 11,18 23,47 27,65 5,18 25,77 45,132 20,55 40,114 44,130 5,17 13,41 19,55 26,64 41,107 47,133 3,15 14,31 25,35 13,5 349,7 441,2 z"
       id="path4"
       inkscape:connector-curvature="0" />
  </g>
  <path
     style="color:#000000;font-style:normal;font-variant:normal;font-weight:normal;font-stretch:normal;font-size:medium;line-height:normal;font-family:sans-serif;font-variant-ligatures:normal;font-variant-position:normal;font-variant-caps:normal;font-variant-numeric:normal;font-variant-alternates:normal;font-feature-settings:normal;text-indent:0;text-align:start;text-decoration:none;text-decoration-line:none;text-decoration-style:solid;text-decoration-color:#000000;letter-spacing:normal;word-spacing:normal;text-transform:none;writing-mode:lr-tb;direction:ltr;text-orientation:mixed;dominant-baseline:auto;baseline-shift:baseline;text-anchor:start;white-space:normal;shape-padding:0;clip-rule:nonzero;display:inline;overflow:visible;visibility:visible;opacity:1;isolation:auto;mix-blend-mode:normal;color-interpolation:sRGB;color-interpolation-filters:linearRGB;solid-color:#000000;solid-opacity:1;vector-effect:none;fill:#000000;fill-opacity:1;fill-rule:nonzero;stroke:none;stroke-width:3.67500019;stroke-linecap:butt;stroke-linejoin:miter;stroke-miterlimit:4;stroke-dasharray:none;stroke-dashoffset:0;stroke-opacity:1;color-rendering:auto;image-rendering:auto;shape-rendering:auto;text-rendering:auto;enable-background:accumulate"
     d="M 34.22263,0 13.21481,57.81836 0.0527,58.00586 0,80.984375 h 122.01758 l -0.004,-1.841796 -0.0469,-21.136719 -13.16406,-0.1875 L 87.796886,0 Z m 2.57421,3.675782 h 48.425786 l 20.992184,57.78125 12.08399,0.171875 0.0371,15.68164 H 3.68356 l 0.0352,-15.68164 12.08398,-0.171875 z"
     id="path835"
     inkscape:connector-curvature="0" />
</svg>
