<?xml version="1.0" encoding="UTF-8" standalone="no"?>
<svg
   xmlns:dc="http://purl.org/dc/elements/1.1/"
   xmlns:cc="http://creativecommons.org/ns#"
   xmlns:rdf="http://www.w3.org/1999/02/22-rdf-syntax-ns#"
   xmlns:svg="http://www.w3.org/2000/svg"
   xmlns="http://www.w3.org/2000/svg"
   xmlns:sodipodi="http://sodipodi.sourceforge.net/DTD/sodipodi-0.dtd"
   xmlns:inkscape="http://www.inkscape.org/namespaces/inkscape"
   version="1.0"
   width="99.602219pt"
   height="137.82916pt"
   viewBox="0 0 99.602219 137.82916"
   preserveAspectRatio="xMidYMid meet"
   id="svg8"
   sodipodi:docname="O54.svg"
   inkscape:version="0.92.4 (5da689c313, 2019-01-14)">
  <defs
     id="defs12" />
  <sodipodi:namedview
     pagecolor="#ffffff"
     bordercolor="#666666"
     borderopacity="1"
     objecttolerance="10"
     gridtolerance="10"
     guidetolerance="10"
     inkscape:pageopacity="0"
     inkscape:pageshadow="2"
     inkscape:window-width="1920"
     inkscape:window-height="1017"
     id="namedview10"
     showgrid="false"
     fit-margin-top="0"
     fit-margin-left="0"
     fit-margin-right="0"
     fit-margin-bottom="0"
     inkscape:zoom="1.3906433"
     inkscape:cx="-45.330185"
     inkscape:cy="84.031505"
     inkscape:window-x="-8"
     inkscape:window-y="-8"
     inkscape:window-maximized="1"
     inkscape:current-layer="svg8" />
  <metadata
     id="metadata2">
Created by potrace 1.10, written by Peter Selinger 2001-2011
<rdf:RDF>
  <cc:Work
     rdf:about="">
    <dc:format>image/svg+xml</dc:format>
    <dc:type
       rdf:resource="http://purl.org/dc/dcmitype/StillImage" />
    <dc:title></dc:title>
  </cc:Work>
</rdf:RDF>
</metadata>
  <g
     transform="matrix(0.1,0,0,-0.1,130.68945,158.42648)"
     id="g6"
     style="fill:#000000;stroke:none">
    <path
       d="m 595,1525 c -81,-17 -120,-33 -182,-73 -111,-71 -201,-211 -223,-344 -5,-35 -10,-239 -10,-464 0,-376 1,-402 18,-417 17,-15 65,-17 479,-17 404,0 462,2 473,16 10,11 13,60 11,192 -1,97 3,246 9,331 12,169 0,367 -26,430 -8,18 -14,40 -14,47 0,21 -59,115 -98,156 -36,38 -141,108 -161,108 -7,0 -22,6 -34,14 -21,13 -137,37 -168,35 -8,-1 -41,-7 -74,-14 z m 181,-87 c 108,-21 205,-95 261,-198 56,-104 58,-120 58,-550 V 295 l -417,-3 -418,-2 v 408 c 0,441 0,438 57,548 24,45 115,133 166,159 82,43 185,55 293,33 z"
       id="path4"
       inkscape:connector-curvature="0" />
  </g>
  <path
     style="color:#000000;font-style:normal;font-variant:normal;font-weight:normal;font-stretch:normal;font-size:medium;line-height:normal;font-family:sans-serif;font-variant-ligatures:normal;font-variant-position:normal;font-variant-caps:normal;font-variant-numeric:normal;font-variant-alternates:normal;font-feature-settings:normal;text-indent:0;text-align:start;text-decoration:none;text-decoration-line:none;text-decoration-style:solid;text-decoration-color:#000000;letter-spacing:normal;word-spacing:normal;text-transform:none;writing-mode:lr-tb;direction:ltr;text-orientation:mixed;dominant-baseline:auto;baseline-shift:baseline;text-anchor:start;white-space:normal;shape-padding:0;clip-rule:nonzero;display:inline;overflow:visible;visibility:visible;opacity:1;isolation:auto;mix-blend-mode:normal;color-interpolation:sRGB;color-interpolation-filters:linearRGB;solid-color:#000000;solid-opacity:1;vector-effect:none;fill:#000000;fill-opacity:1;fill-rule:nonzero;stroke:none;stroke-width:9.22500038;stroke-linecap:butt;stroke-linejoin:miter;stroke-miterlimit:4;stroke-dasharray:none;stroke-dashoffset:0;stroke-opacity:1;color-rendering:auto;image-rendering:auto;shape-rendering:auto;text-rendering:auto;enable-background:accumulate"
     d="M 48.14062,0.00299748 C 47.88895,-4.2518717e-5 36.0801,-0.11090982 24.15234,6.5322944 12.09635,13.246917 0,27.523499 0,53.608466 l 0.0449,84.220704 h 4.60937 94.898441 l 0.04492,-84.171876 C 99.883009,27.201778 86.808637,12.841964 73.878903,6.2510444 61.03478,-0.29623512 48.30933,-0.00117092 48.14062,0.00299748 Z m -0.01,9.22070322 0.0742,0.00195 0.0723,-0.00195 c 0,0 10.804819,-0.1609631 21.41211,5.2460933 10.607291,5.407057 20.937557,15.542803 20.683594,39.087891 v 0.02344 l -0.04102,75.023435 H 9.26345 L 9.22435,53.606516 C 9.22492,30.231676 18.9124,20.008913 28.64036,14.590891 38.36862,9.1727072 48.1306,9.2237037 48.1306,9.2237037 Z"
     id="path816"
     inkscape:connector-curvature="0" />
</svg>
