<?xml version="1.0" encoding="UTF-8" standalone="no"?>
<svg
   xmlns:dc="http://purl.org/dc/elements/1.1/"
   xmlns:cc="http://creativecommons.org/ns#"
   xmlns:rdf="http://www.w3.org/1999/02/22-rdf-syntax-ns#"
   xmlns:svg="http://www.w3.org/2000/svg"
   xmlns="http://www.w3.org/2000/svg"
   xmlns:sodipodi="http://sodipodi.sourceforge.net/DTD/sodipodi-0.dtd"
   xmlns:inkscape="http://www.inkscape.org/namespaces/inkscape"
   version="1.0"
   width="112.11484pt"
   height="311.2735pt"
   viewBox="0 0 112.11484 311.2735"
   preserveAspectRatio="xMidYMid meet"
   id="svg8"
   sodipodi:docname="O56.svg"
   inkscape:version="0.92.4 (5da689c313, 2019-01-14)">
  <defs
     id="defs12" />
  <sodipodi:namedview
     pagecolor="#ffffff"
     bordercolor="#666666"
     borderopacity="1"
     objecttolerance="10"
     gridtolerance="10"
     guidetolerance="10"
     inkscape:pageopacity="0"
     inkscape:pageshadow="2"
     inkscape:window-width="1920"
     inkscape:window-height="1017"
     id="namedview10"
     showgrid="false"
     fit-margin-top="0"
     fit-margin-left="0"
     fit-margin-right="0"
     fit-margin-bottom="0"
     inkscape:zoom="1.4638351"
     inkscape:cx="-172.96139"
     inkscape:cy="161.55001"
     inkscape:window-x="-8"
     inkscape:window-y="-8"
     inkscape:window-maximized="1"
     inkscape:current-layer="svg8" />
  <metadata
     id="metadata2">
Created by potrace 1.10, written by Peter Selinger 2001-2011
<rdf:RDF>
  <cc:Work
     rdf:about="">
    <dc:format>image/svg+xml</dc:format>
    <dc:type
       rdf:resource="http://purl.org/dc/dcmitype/StillImage" />
    <dc:title></dc:title>
  </cc:Work>
</rdf:RDF>
</metadata>
  <g
     transform="matrix(0.1,0,0,-0.1,-267.7639,296.13079)"
     id="g6"
     style="fill:#000000;stroke:none">
    <path
       d="m 614,3205 c -18,-8 -48,-33 -68,-57 -33,-38 -42,-59 -60,-139 -4,-16 -20,-35 -41,-48 -53,-31 -46,-69 17,-95 26,-11 37,-23 41,-45 3,-16 27,-51 52,-77 42,-45 45,-52 45,-104 0,-82 -11,-88 -90,-52 -19,8 -51,22 -70,30 -19,8 -47,21 -62,29 -38,19 -82,16 -103,-7 -15,-17 -20,-53 -31,-233 -7,-116 -13,-279 -14,-362 0,-82 -7,-262 -15,-400 -8,-137 -15,-308 -15,-379 0,-70 -7,-252 -15,-405 -8,-152 -16,-305 -18,-341 -2,-57 -5,-66 -26,-76 -13,-7 -28,-18 -32,-26 -5,-7 -9,-75 -9,-150 0,-125 2,-140 20,-158 19,-19 33,-20 548,-20 525,0 529,0 548,21 16,18 20,40 22,141 4,134 -5,171 -47,191 -25,12 -26,15 -28,112 -2,55 -10,223 -18,373 -8,150 -15,332 -15,405 0,72 -7,242 -15,377 -8,135 -15,307 -15,382 0,139 -17,475 -25,515 -11,51 -64,68 -122,39 -15,-8 -44,-21 -63,-30 -19,-8 -57,-25 -84,-37 -45,-20 -50,-21 -61,-6 -7,10 -10,40 -8,73 3,49 8,62 44,103 23,25 45,56 50,69 5,12 25,32 44,43 62,37 70,92 14,103 -18,3 -29,12 -30,23 -1,33 -7,51 -34,104 -36,73 -58,94 -115,113 -57,19 -55,19 -96,1 z m 99,-121 c 25,-26 43,-92 29,-106 -6,-5 -98,-12 -139,-9 -25,2 -14,62 18,102 36,46 59,49 92,13 z m 7,-236 c -1,-35 -45,-61 -74,-44 -12,6 -22,11 -22,11 -1,0 -5,10 -8,23 -7,21 -5,22 48,22 38,0 56,-4 56,-12 z M 510,2442 c 41,-19 83,-42 93,-50 16,-14 17,-73 17,-982 0,-760 -3,-970 -13,-983 -11,-16 -30,-17 -162,-15 l -150,3 v 105 c 0,58 6,213 13,345 28,550 34,662 42,905 5,140 14,311 20,380 5,69 10,170 10,226 0,55 3,104 7,107 9,10 36,1 123,-41 z m 438,-18 c 1,-32 9,-163 17,-289 8,-127 15,-280 15,-340 0,-61 7,-204 15,-320 8,-115 15,-259 15,-318 0,-60 7,-213 16,-340 8,-128 14,-270 12,-317 l -3,-85 -135,-3 c -74,-1 -145,0 -157,3 l -23,5 v 982 c 0,922 1,982 18,994 16,13 34,22 147,75 22,11 45,18 50,16 6,-2 11,-30 13,-63 z M 1098,273 c 2,-26 -1,-43 -7,-43 -6,0 -198,0 -426,0 -228,0 -419,0 -425,0 -11,0 -14,73 -3,83 3,4 198,6 432,5 l 426,-3 z"
       id="path4"
       inkscape:connector-curvature="0" />
  </g>
  <rect
     style="fill:none;fill-opacity:1;fill-rule:nonzero;stroke:#000000;stroke-width:9.22500038;stroke-linecap:round;stroke-linejoin:miter;stroke-miterlimit:4;stroke-dasharray:none;stroke-opacity:1"
     id="rect816"
     width="102.88984"
     height="21.737289"
     x="4.6125002"
     y="284.92371" />
  <path
     style="fill:none;stroke:#000000;stroke-width:6.5250001;stroke-linecap:butt;stroke-linejoin:miter;stroke-miterlimit:4;stroke-dasharray:none;stroke-opacity:1"
     d="M 55.796014,45.448515 V 284.56904"
     id="path818"
     inkscape:connector-curvature="0"
     sodipodi:nodetypes="cc" />
  <path
     style="fill:none;stroke:#000000;stroke-width:6.5250001;stroke-linecap:butt;stroke-linejoin:miter;stroke-miterlimit:4;stroke-dasharray:none;stroke-opacity:1"
     d="M 56.308367,75.016742 21.980729,60.158513 10.708967,280.98257"
     id="path820"
     inkscape:connector-curvature="0" />
  <path
     style="fill:none;stroke:#000000;stroke-width:6.5250001;stroke-linecap:butt;stroke-linejoin:miter;stroke-miterlimit:4;stroke-dasharray:none;stroke-opacity:1"
     d="M 56.308367,75.016742 90.636004,60.158513 101.90777,280.98257"
     id="path820-6"
     inkscape:connector-curvature="0" />
  <ellipse
     style="fill:none;fill-opacity:1;fill-rule:nonzero;stroke:#000000;stroke-width:5.55000019;stroke-linecap:round;stroke-linejoin:miter;stroke-miterlimit:4;stroke-dasharray:none;stroke-opacity:1"
     id="path837"
     cx="55.027489"
     cy="24.03764"
     rx="14.089702"
     ry="21.26264" />
  <path
     style="fill:none;stroke:#000000;stroke-width:6.5250001;stroke-linecap:butt;stroke-linejoin:miter;stroke-miterlimit:4;stroke-dasharray:none;stroke-opacity:1"
     d="M 31.20308,29.929698 79.876594,29.417345"
     id="path839"
     inkscape:connector-curvature="0"
     sodipodi:nodetypes="cc" />
</svg>
