<?xml version="1.0" encoding="UTF-8" standalone="no"?>
<svg
   xmlns:dc="http://purl.org/dc/elements/1.1/"
   xmlns:cc="http://creativecommons.org/ns#"
   xmlns:rdf="http://www.w3.org/1999/02/22-rdf-syntax-ns#"
   xmlns:svg="http://www.w3.org/2000/svg"
   xmlns="http://www.w3.org/2000/svg"
   xmlns:sodipodi="http://sodipodi.sourceforge.net/DTD/sodipodi-0.dtd"
   xmlns:inkscape="http://www.inkscape.org/namespaces/inkscape"
   version="1.0"
   width="98.208977pt"
   height="374.34766pt"
   viewBox="0 0 98.208979 374.34766"
   preserveAspectRatio="xMidYMid meet"
   id="svg8"
   sodipodi:docname="O67.svg"
   inkscape:version="0.92.4 (5da689c313, 2019-01-14)">
  <defs
     id="defs12" />
  <sodipodi:namedview
     pagecolor="#ffffff"
     bordercolor="#666666"
     borderopacity="1"
     objecttolerance="10"
     gridtolerance="10"
     guidetolerance="10"
     inkscape:pageopacity="0"
     inkscape:pageshadow="2"
     inkscape:window-width="1920"
     inkscape:window-height="1017"
     id="namedview10"
     showgrid="false"
     fit-margin-top="0"
     fit-margin-left="0"
     fit-margin-right="0"
     fit-margin-bottom="0"
     inkscape:zoom="1.1275487"
     inkscape:cx="-259.87784"
     inkscape:cy="263.75519"
     inkscape:window-x="-8"
     inkscape:window-y="-8"
     inkscape:window-maximized="1"
     inkscape:current-layer="svg8" />
  <metadata
     id="metadata2">
Created by potrace 1.10, written by Peter Selinger 2001-2011
<rdf:RDF>
  <cc:Work
     rdf:about="">
    <dc:format>image/svg+xml</dc:format>
    <dc:type
       rdf:resource="http://purl.org/dc/dcmitype/StillImage" />
    <dc:title></dc:title>
  </cc:Work>
</rdf:RDF>
</metadata>
  <g
     transform="matrix(0.1,0,0,-0.1,-243.33775,401.97571)"
     id="g6"
     style="fill:#000000;stroke:none">
    <path
       d="m 273,4011 c -40,-36 -51,-75 -29,-100 9,-10 16,-22 16,-28 0,-5 19,-25 42,-44 104,-86 135,-115 168,-159 19,-25 47,-59 63,-75 15,-17 27,-33 27,-36 0,-4 18,-34 40,-67 22,-33 40,-66 40,-73 0,-8 -23,-30 -50,-49 -27,-19 -71,-64 -98,-100 -105,-141 -201,-389 -202,-520 0,-30 -6,-143 -15,-250 -20,-271 -41,-2216 -23,-2237 34,-42 48,-43 503,-43 387,0 440,2 465,16 60,36 58,-7 49,859 -15,1380 -29,1665 -96,1880 -44,143 -154,319 -242,389 -34,26 -61,49 -61,51 0,6 26,51 55,95 73,111 140,190 211,250 97,82 144,137 144,168 0,33 -56,102 -83,102 -21,0 -67,-36 -211,-164 -61,-54 -150,-160 -199,-238 -29,-46 -33,-43 -111,73 -48,72 -65,89 -183,196 -109,100 -153,133 -172,133 -9,0 -31,-13 -48,-29 z m 563,-773 c 126,-131 168,-209 218,-413 19,-77 48,-408 44,-505 l -3,-75 -329,-3 c -182,-1 -333,1 -338,6 -10,10 18,527 32,582 7,25 18,65 26,90 8,25 14,55 14,67 0,12 5,25 11,28 5,4 15,17 20,28 5,12 18,36 29,52 11,17 23,37 27,45 10,22 156,169 169,169 6,1 42,-32 80,-71 z M 1095,2000 V 1885 H 755 415 l -3,104 c -1,58 0,111 2,118 5,11 69,13 343,11 l 338,-3 z m 6,-800 c 4,-305 10,-606 13,-668 5,-81 4,-118 -5,-128 -16,-19 -681,-21 -697,-1 -11,13 1,1327 13,1346 4,8 107,10 338,9 l 332,-3 z"
       id="path4"
       inkscape:connector-curvature="0" />
  </g>
  <path
     style="color:#000000;font-style:normal;font-variant:normal;font-weight:normal;font-stretch:normal;font-size:medium;line-height:normal;font-family:sans-serif;font-variant-ligatures:normal;font-variant-position:normal;font-variant-caps:normal;font-variant-numeric:normal;font-variant-alternates:normal;font-feature-settings:normal;text-indent:0;text-align:start;text-decoration:none;text-decoration-line:none;text-decoration-style:solid;text-decoration-color:#000000;letter-spacing:normal;word-spacing:normal;text-transform:none;writing-mode:lr-tb;direction:ltr;text-orientation:mixed;dominant-baseline:auto;baseline-shift:baseline;text-anchor:start;white-space:normal;shape-padding:0;clip-rule:nonzero;display:inline;overflow:visible;visibility:visible;opacity:1;isolation:auto;mix-blend-mode:normal;color-interpolation:sRGB;color-interpolation-filters:linearRGB;solid-color:#000000;solid-opacity:1;vector-effect:none;fill:#000000;fill-opacity:1;fill-rule:nonzero;stroke:none;stroke-width:7.12500048;stroke-linecap:butt;stroke-linejoin:miter;stroke-miterlimit:4;stroke-dasharray:none;stroke-dashoffset:0;stroke-opacity:1;color-rendering:auto;image-rendering:auto;shape-rendering:auto;text-rendering:auto;enable-background:accumulate"
     d="m 49.10352,66.847656 -0.084,0.002 C 41.24973,67.036576 34.68,70.832385 29.50194,75.996141 24.32387,81.159897 20.34782,87.727966 17.24803,94.187547 11.04846,107.10672 8.35545,119.82232 8.35545,119.82232 l -0.0664,0.3144 -7.64648,254.21094 h 3.67187 93.25 l -7.64453,-254.21094 -0.0664,-0.31445 c 0,0 -2.693,-12.7156 -8.89258,-25.63477 C 77.86115,87.727919 73.88509,81.15985 68.70703,75.996094 63.52898,70.832338 56.95922,67.03653 49.18945,66.849609 Z m 0.002,7.136719 c 5.54269,0.159986 10.28096,2.779135 14.57031,7.056641 4.31229,4.300386 7.98271,10.229833 10.86133,16.228515 5.66527,11.805749 8.20165,23.423369 8.2832,23.798829 l 7.40234,246.1543 H 7.98633 l 7.40234,-246.1543 c 0.0815,-0.37546 2.61598,-11.99308 8.28125,-23.798829 C 26.54854,91.270849 30.2209,85.341402 34.5332,81.041016 38.82307,76.763 43.5619,74.143791 49.10547,73.984375 Z"
     id="path816"
     inkscape:connector-curvature="0" />
  <path
     style="color:#000000;font-style:normal;font-variant:normal;font-weight:normal;font-stretch:normal;font-size:medium;line-height:normal;font-family:sans-serif;font-variant-ligatures:normal;font-variant-position:normal;font-variant-caps:normal;font-variant-numeric:normal;font-variant-alternates:normal;font-feature-settings:normal;text-indent:0;text-align:start;text-decoration:none;text-decoration-line:none;text-decoration-style:solid;text-decoration-color:#000000;letter-spacing:normal;word-spacing:normal;text-transform:none;writing-mode:lr-tb;direction:ltr;text-orientation:mixed;dominant-baseline:auto;baseline-shift:baseline;text-anchor:start;white-space:normal;shape-padding:0;clip-rule:nonzero;display:inline;overflow:visible;visibility:visible;opacity:1;isolation:auto;mix-blend-mode:normal;color-interpolation:sRGB;color-interpolation-filters:linearRGB;solid-color:#000000;solid-opacity:1;vector-effect:none;fill:#000000;fill-opacity:1;fill-rule:nonzero;stroke:none;stroke-width:7.12500048;stroke-linecap:butt;stroke-linejoin:miter;stroke-miterlimit:4;stroke-dasharray:none;stroke-dashoffset:0;stroke-opacity:1;color-rendering:auto;image-rendering:auto;shape-rendering:auto;text-rendering:auto;enable-background:accumulate"
     d="M 94.91797,0 C 77.8505,8.8893099 65.76267,26.289391 57.71875,41.341797 49.67483,56.394203 45.69922,69.365235 45.69922,69.365235 l 6.81055,2.089843 c 0,0 3.78868,-12.338507 11.49218,-26.753906 C 71.70546,30.285773 83.34879,14.059997 98.20898,6.3203125 Z"
     id="path833"
     inkscape:connector-curvature="0" />
  <path
     style="color:#000000;font-style:normal;font-variant:normal;font-weight:normal;font-stretch:normal;font-size:medium;line-height:normal;font-family:sans-serif;font-variant-ligatures:normal;font-variant-position:normal;font-variant-caps:normal;font-variant-numeric:normal;font-variant-alternates:normal;font-feature-settings:normal;text-indent:0;text-align:start;text-decoration:none;text-decoration-line:none;text-decoration-style:solid;text-decoration-color:#000000;letter-spacing:normal;word-spacing:normal;text-transform:none;writing-mode:lr-tb;direction:ltr;text-orientation:mixed;dominant-baseline:auto;baseline-shift:baseline;text-anchor:start;white-space:normal;shape-padding:0;clip-rule:nonzero;display:inline;overflow:visible;visibility:visible;opacity:1;isolation:auto;mix-blend-mode:normal;color-interpolation:sRGB;color-interpolation-filters:linearRGB;solid-color:#000000;solid-opacity:1;vector-effect:none;fill:#000000;fill-opacity:1;fill-rule:nonzero;stroke:none;stroke-width:7.12500048;stroke-linecap:butt;stroke-linejoin:miter;stroke-miterlimit:4;stroke-dasharray:none;stroke-dashoffset:0;stroke-opacity:1;color-rendering:auto;image-rendering:auto;shape-rendering:auto;text-rendering:auto;enable-background:accumulate"
     d="M 3.29102,0 0,6.3203125 c 14.86019,7.7396845 26.50157,23.9654595 34.20508,38.3808595 7.7035,14.4154 11.49414,26.753906 11.49414,26.753906 l 6.81055,-2.089843 c 0,0 -3.97562,-12.971032 -12.01954,-28.023438 C 32.44632,26.289391 20.35849,8.8893099 3.29102,0 Z"
     id="path833-5"
     inkscape:connector-curvature="0" />
  <path
     style="color:#000000;font-style:normal;font-variant:normal;font-weight:normal;font-stretch:normal;font-size:medium;line-height:normal;font-family:sans-serif;font-variant-ligatures:normal;font-variant-position:normal;font-variant-caps:normal;font-variant-numeric:normal;font-variant-alternates:normal;font-feature-settings:normal;text-indent:0;text-align:start;text-decoration:none;text-decoration-line:none;text-decoration-style:solid;text-decoration-color:#000000;letter-spacing:normal;word-spacing:normal;text-transform:none;writing-mode:lr-tb;direction:ltr;text-orientation:mixed;dominant-baseline:auto;baseline-shift:baseline;text-anchor:start;white-space:normal;shape-padding:0;clip-rule:nonzero;display:inline;overflow:visible;visibility:visible;opacity:1;isolation:auto;mix-blend-mode:normal;color-interpolation:sRGB;color-interpolation-filters:linearRGB;solid-color:#000000;solid-opacity:1;vector-effect:none;fill:#000000;fill-opacity:1;fill-rule:nonzero;stroke:none;stroke-width:7.12500048;stroke-linecap:butt;stroke-linejoin:miter;stroke-miterlimit:4;stroke-dasharray:none;stroke-dashoffset:0;stroke-opacity:1;color-rendering:auto;image-rendering:auto;shape-rendering:auto;text-rendering:auto;enable-background:accumulate"
     d="m 9.45703,178.52539 -0.0606,7.125 78.32031,0.66602 0.0606,-7.125 z"
     id="path850"
     inkscape:connector-curvature="0" />
  <path
     style="color:#000000;font-style:normal;font-variant:normal;font-weight:normal;font-stretch:normal;font-size:medium;line-height:normal;font-family:sans-serif;font-variant-ligatures:normal;font-variant-position:normal;font-variant-caps:normal;font-variant-numeric:normal;font-variant-alternates:normal;font-feature-settings:normal;text-indent:0;text-align:start;text-decoration:none;text-decoration-line:none;text-decoration-style:solid;text-decoration-color:#000000;letter-spacing:normal;word-spacing:normal;text-transform:none;writing-mode:lr-tb;direction:ltr;text-orientation:mixed;dominant-baseline:auto;baseline-shift:baseline;text-anchor:start;white-space:normal;shape-padding:0;clip-rule:nonzero;display:inline;overflow:visible;visibility:visible;opacity:1;isolation:auto;mix-blend-mode:normal;color-interpolation:sRGB;color-interpolation-filters:linearRGB;solid-color:#000000;solid-opacity:1;vector-effect:none;fill:#000000;fill-opacity:1;fill-rule:nonzero;stroke:none;stroke-width:7.12500048;stroke-linecap:butt;stroke-linejoin:miter;stroke-miterlimit:4;stroke-dasharray:none;stroke-dashoffset:0;stroke-opacity:1;color-rendering:auto;image-rendering:auto;shape-rendering:auto;text-rendering:auto;enable-background:accumulate"
     d="m 8.76172,217.10547 v 7.125 h 80.14453 v -7.125 z"
     id="path852"
     inkscape:connector-curvature="0" />
</svg>
