<?xml version="1.0" encoding="UTF-8" standalone="no"?>
<!-- Created with Inkscape (http://www.inkscape.org/) -->

<svg
   xmlns:dc="http://purl.org/dc/elements/1.1/"
   xmlns:cc="http://creativecommons.org/ns#"
   xmlns:rdf="http://www.w3.org/1999/02/22-rdf-syntax-ns#"
   xmlns:svg="http://www.w3.org/2000/svg"
   xmlns="http://www.w3.org/2000/svg"
   xmlns:sodipodi="http://sodipodi.sourceforge.net/DTD/sodipodi-0.dtd"
   xmlns:inkscape="http://www.inkscape.org/namespaces/inkscape"
   width="37.628712mm"
   height="37.256641mm"
   viewBox="0 0 37.628712 37.256641"
   version="1.1"
   id="svg7572"
   inkscape:version="0.92.4 (5da689c313, 2019-01-14)"
   sodipodi:docname="O8.svg">
  <defs
     id="defs7566" />
  <sodipodi:namedview
     id="base"
     pagecolor="#ffffff"
     bordercolor="#666666"
     borderopacity="1.0"
     inkscape:pageopacity="0.0"
     inkscape:pageshadow="2"
     inkscape:zoom="0.35"
     inkscape:cx="-348.97266"
     inkscape:cy="-344.83274"
     inkscape:document-units="mm"
     inkscape:current-layer="layer1"
     showgrid="false"
     fit-margin-top="0"
     fit-margin-left="0"
     fit-margin-right="0"
     fit-margin-bottom="0"
     inkscape:window-width="1920"
     inkscape:window-height="1017"
     inkscape:window-x="-8"
     inkscape:window-y="-8"
     inkscape:window-maximized="1" />
  <metadata
     id="metadata7569">
    <rdf:RDF>
      <cc:Work
         rdf:about="">
        <dc:format>image/svg+xml</dc:format>
        <dc:type
           rdf:resource="http://purl.org/dc/dcmitype/StillImage" />
        <dc:title></dc:title>
      </cc:Work>
    </rdf:RDF>
  </metadata>
  <g
     inkscape:label="Layer 1"
     inkscape:groupmode="layer"
     id="layer1"
     transform="translate(-5.0198485,-20.339699)">
    <g
       aria-label="𓉟"
       transform="scale(0.26458333)"
       style="font-style:normal;font-variant:normal;font-weight:normal;font-stretch:normal;font-size:192px;line-height:1.25;font-family:sans-serif;-inkscape-font-specification:sans-serif;font-variant-ligatures:normal;font-variant-caps:normal;font-variant-numeric:normal;font-feature-settings:normal;text-align:start;letter-spacing:0px;word-spacing:0px;writing-mode:lr-tb;text-anchor:start;fill:#000000;fill-opacity:1;stroke:none"
       id="flowRoot8117">
      <path
         d="M 51.878906,76.874452 H 104.19141 V 132.2807 q 3,-0.5625 7.3125,-1.03125 4.40625,-0.5625 8.90625,-0.9375 4.59375,-0.46875 8.71875,-0.65625 4.125,-0.28125 6.65625,-0.28125 2.34375,0 5.15625,0.1875 2.8125,0.0937 5.625,0.5625 2.8125,0.375 5.4375,1.21875 2.625,0.84375 4.6875,2.25 2.0625,1.40625 3.28125,3.46875 1.21875,1.96875 1.21875,4.78125 0,2.53125 -1.6875,4.6875 -1.6875,2.0625 -4.78125,3.5625 -3.09375,1.40625 -7.3125,2.25 -4.21875,0.75 -9.28125,0.75 -6.1875,0 -12.28125,-0.375 -6,-0.46875 -10.875,-1.03125 -5.71875,-0.5625 -10.78125,-1.40625 v 67.40625 H 51.878906 V 146.1557 q -3.375,1.21875 -6.375,3.1875 -2.90625,1.875 -5.90625,3.84375 l -1.875,-0.0937 q -4.21875,-3.9375 -8.71875,-6.46875 -4.40625,-2.53125 -10.03125,-3.75 v -3 q 4.78125,-0.9375 9.46875,-4.03125 4.78125,-3.1875 9.28125,-7.6875 l 2.25,0.1875 q 6.1875,5.90625 11.90625,8.0625 z m 47.625,4.78125 h -42.9375 V 137.9057 q 4.96875,0 10.3125,-0.46875 5.4375,-0.46875 10.875,-1.125 5.53125,-0.65625 10.96875,-1.40625 5.53125,-0.84375 10.78125,-1.5 z m -24.5625,78.187498 h 24.5625 v -10.6875 q -3.84375,-0.5625 -9.28125,-1.3125 -5.34375,-0.75 -11.25,-1.40625 -5.8125,-0.65625 -11.71875,-1.125 -5.8125,-0.46875 -10.6875,-0.46875 v 68.15625 h 18.375 z m 58.875004,-27.46875 q -7.3125,0 -14.8125,0.84375 -7.40625,0.75 -14.8125,1.96875 v 12.1875 q 7.125,1.125 14.8125,2.15625 7.6875,0.9375 15.28125,0.9375 2.71875,0 6.75,-0.28125 4.125,-0.28125 7.875,-1.125 3.84375,-0.9375 6.5625,-2.625 2.71875,-1.78125 2.71875,-4.78125 0,-4.5 -5.90625,-6.84375 -5.90625,-2.4375 -18.46875,-2.4375 z m -34.312504,80.625 V 164.5307 h -19.875 v 48.46875 z m -4.96875,-87.65625 h -33.28125 l -1.40625,-1.78125 q 0.1875,-2.8125 1.96875,-5.0625 1.875,-2.25 4.5,-3.84375 2.71875,-1.6875 5.71875,-2.53125 3.09375,-0.9375 5.71875,-0.9375 2.53125,0 5.625,0.9375 3.1875,0.9375 5.90625,2.625 2.8125,1.6875 4.6875,4.03125 1.96875,2.25 2.15625,5.0625 z m -55.6875,24.75 q 3,-2.15625 6.1875,-3.9375 3.28125,-1.875 6.84375,-3.1875 v -3.375 q -3.28125,-1.03125 -6.5625,-3 -3.1875,-1.96875 -6.5625,-5.25 -3.1875,3 -6.75,5.71875 -3.5625,2.625 -7.59375,4.3125 7.96875,2.625 14.4375,8.71875 z m 53.8125,-27.75 q -0.5625,-1.78125 -2.34375,-3.28125 -1.6875,-1.5 -3.9375,-2.53125 -2.15625,-1.125 -4.59375,-1.6875 -2.34375,-0.65625 -4.21875,-0.65625 -1.875,0 -4.21875,0.65625 -2.25,0.65625 -4.40625,1.78125 -2.0625,1.03125 -3.75,2.53125 -1.59375,1.5 -2.0625,3.1875 z m 6.84375,13.96875 q -7.6875,1.21875 -15.28125,2.25 -3.28125,0.46875 -6.84375,0.84375 -3.5625,0.375 -7.21875,0.75 -3.5625,0.28125 -7.03125,0.46875 -3.46875,0.1875 -6.5625,0.1875 v 1.03125 q 1.875,0 5.8125,0.1875 4.03125,0.0937 9.5625,0.5625 5.625,0.46875 12.65625,1.40625 7.03125,0.84375 14.90625,2.25 z"
         id="path8125"
         inkscape:connector-curvature="0" />
    </g>
  </g>
</svg>
