<?xml version="1.0" encoding="UTF-8" standalone="no"?>
<!-- Created with Inkscape (http://www.inkscape.org/) -->

<svg
   xmlns:dc="http://purl.org/dc/elements/1.1/"
   xmlns:cc="http://creativecommons.org/ns#"
   xmlns:rdf="http://www.w3.org/1999/02/22-rdf-syntax-ns#"
   xmlns:svg="http://www.w3.org/2000/svg"
   xmlns="http://www.w3.org/2000/svg"
   xmlns:sodipodi="http://sodipodi.sourceforge.net/DTD/sodipodi-0.dtd"
   xmlns:inkscape="http://www.inkscape.org/namespaces/inkscape"
   width="37.331055mm"
   height="19.049999mm"
   viewBox="0 0 37.331055 19.049999"
   version="1.1"
   id="svg8"
   inkscape:version="0.92.4 (5da689c313, 2019-01-14)"
   sodipodi:docname="P1.svg">
  <defs
     id="defs2" />
  <sodipodi:namedview
     id="base"
     pagecolor="#ffffff"
     bordercolor="#666666"
     borderopacity="1.0"
     inkscape:pageopacity="0.0"
     inkscape:pageshadow="2"
     inkscape:zoom="0.35"
     inkscape:cx="-391.83008"
     inkscape:cy="-343.33274"
     inkscape:document-units="mm"
     inkscape:current-layer="layer1"
     showgrid="false"
     fit-margin-top="0"
     fit-margin-left="0"
     fit-margin-right="0"
     fit-margin-bottom="0"
     inkscape:window-width="1920"
     inkscape:window-height="1017"
     inkscape:window-x="-8"
     inkscape:window-y="-8"
     inkscape:window-maximized="1" />
  <metadata
     id="metadata5">
    <rdf:RDF>
      <cc:Work
         rdf:about="">
        <dc:format>image/svg+xml</dc:format>
        <dc:type
           rdf:resource="http://purl.org/dc/dcmitype/StillImage" />
        <dc:title></dc:title>
      </cc:Work>
    </rdf:RDF>
  </metadata>
  <g
     inkscape:label="Layer 1"
     inkscape:groupmode="layer"
     id="layer1"
     transform="translate(-16.359208,-38.943213)">
    <g
       aria-label="𓊛"
       transform="scale(0.26458333)"
       style="font-style:normal;font-variant:normal;font-weight:normal;font-stretch:normal;font-size:192px;line-height:1.25;font-family:sans-serif;-inkscape-font-specification:sans-serif;font-variant-ligatures:normal;font-variant-caps:normal;font-variant-numeric:normal;font-feature-settings:normal;text-align:start;letter-spacing:0px;word-spacing:0px;writing-mode:lr-tb;text-anchor:start;fill:#000000;fill-opacity:1;stroke:none"
       id="flowRoot815">
      <path
         d="m 65.205078,183.2807 q 11.34375,4.21875 22.6875,7.78125 11.4375,3.46875 23.531252,5.34375 0.5625,-12.5625 24.46875,-18.9375 l 2.53125,-3.28125 q 1.59375,-1.96875 3.375,-3.1875 1.875,-1.21875 4.125,-1.21875 3,0 4.96875,2.25 1.96875,2.15625 1.96875,6.1875 0,2.625 -0.84375,5.25 -0.75,2.53125 -1.78125,4.6875 l -1.5,1.03125 h -1.40625 v 7.125 q 5.625,-1.3125 10.78125,-3.1875 5.15625,-1.96875 10.3125,-4.3125 v -27 l -7.59375,-13.125 3.09375,-1.5 4.5,8.90625 v -4.5 h 3 v 9.28125 l 11.4375,20.90625 q 1.59375,-0.84375 3.46875,-1.96875 1.96875,-1.21875 3.5625,-2.25 1.875,-1.21875 3.84375,-2.4375 l 1.78125,0.65625 2.90625,4.59375 -0.65625,2.0625 q -2.15625,1.5 -4.21875,2.8125 -1.78125,1.125 -3.65625,2.34375 -1.78125,1.125 -2.90625,1.875 l 3.9375,7.21875 q 12,3.375 12,21 -13.5,-6.5625 -13.5,-19.5 l -4.40625,-7.6875 q -6.75,3.9375 -13.6875,7.59375 -6.9375,3.65625 -14.34375,6.09375 h 14.34375 l 1.59375,1.5 v 12 l -1.59375,1.5 H 96.236328 l -1.3125,-1.78125 v -12 l 0.9375,-0.84375 q -8.71875,-2.4375 -16.96875,-6.375 -8.15625,-3.9375 -16.125,-7.59375 l -0.9375,-1.6875 1.5,-4.5 z m 32.71875,23.90625 v 9 h 72.000002 v -9 z M 114.42383,196.9682 q 1.5,0.0937 2.4375,0.1875 1.03125,0.0937 2.34375,0.28125 1.3125,0.0937 3.46875,0.1875 2.25,0.0937 6.28125,0.0937 2.90625,0 5.0625,-0.0937 2.25,-0.0937 3.9375,-0.1875 1.78125,-0.0937 3.28125,-0.1875 1.5,-0.1875 3.09375,-0.375 v -8.90625 l 1.40625,-1.78125 h 2.15625 q 0.65625,-1.125 1.21875,-3.46875 0.65625,-2.4375 0.65625,-4.875 0,-2.71875 -0.9375,-3.9375 -0.9375,-1.3125 -2.4375,-1.3125 -1.40625,0 -2.8125,0.75 -1.3125,0.75 -3.09375,3.1875 l -1.5,2.15625 q -1.96875,1.03125 -5.4375,2.34375 -3.375,1.3125 -8.25,3.09375 -9.75,3.5625 -10.875,12.84375 z m -48.656252,-10.3125 -0.5625,1.78125 q 9.1875,4.40625 15.9375,7.40625 6.75,3 12.1875,4.875 5.4375,1.78125 10.031252,2.625 4.59375,0.84375 9.5625,0.84375 h 30 q 2.90625,0 6.84375,-0.84375 4.03125,-0.84375 9.09375,-2.71875 5.0625,-1.875 11.25,-4.96875 6.1875,-3.1875 13.5,-7.6875 l -1.40625,-2.34375 q -6.65625,3.46875 -11.90625,6 -5.25,2.4375 -9.65625,4.125 -4.40625,1.6875 -8.25,2.71875 -3.84375,0.9375 -7.59375,1.5 -3.75,0.46875 -7.6875,0.65625 -3.84375,0.0937 -8.34375,0.0937 -8.4375,0 -16.5,-1.125 -7.96875,-1.21875 -15.750002,-3.1875 -7.6875,-1.96875 -15.375,-4.5 -7.59375,-2.53125 -15.375,-5.25 z m 105.656252,0.84375 4.59375,-2.25 q 2.34375,-1.125 4.6875,-2.34375 l -9.28125,-16.3125 z m 20.8125,12.5625 q 0,1.03125 0.28125,2.15625 0.1875,1.03125 0.5625,2.25 0.375,1.125 1.125,2.4375 0.75,1.3125 1.6875,2.4375 0.9375,1.125 1.96875,1.96875 1.03125,1.03125 2.34375,1.78125 -0.0937,-1.3125 -0.46875,-2.8125 -0.28125,-1.21875 -0.84375,-2.625 -0.46875,-1.5 -1.21875,-2.8125 -1.6875,-2.4375 -3.5625,-3.65625 -1.03125,-0.65625 -1.875,-1.125 z m -6.5625,-13.03125 9.65625,-6.46875 -1.21875,-2.15625 -9.84375,6 z"
         id="path823"
         inkscape:connector-curvature="0" />
    </g>
  </g>
</svg>
