<?xml version="1.0" encoding="UTF-8" standalone="no"?>
<!-- Created with Inkscape (http://www.inkscape.org/) -->

<svg
   xmlns:dc="http://purl.org/dc/elements/1.1/"
   xmlns:cc="http://creativecommons.org/ns#"
   xmlns:rdf="http://www.w3.org/1999/02/22-rdf-syntax-ns#"
   xmlns:svg="http://www.w3.org/2000/svg"
   xmlns="http://www.w3.org/2000/svg"
   xmlns:sodipodi="http://sodipodi.sourceforge.net/DTD/sodipodi-0.dtd"
   xmlns:inkscape="http://www.inkscape.org/namespaces/inkscape"
   width="37.554298mm"
   height="37.355858mm"
   viewBox="0 0 37.554298 37.355858"
   version="1.1"
   id="svg1956"
   inkscape:version="0.92.4 (5da689c313, 2019-01-14)"
   sodipodi:docname="P10.svg">
  <defs
     id="defs1950" />
  <sodipodi:namedview
     id="base"
     pagecolor="#ffffff"
     bordercolor="#666666"
     borderopacity="1.0"
     inkscape:pageopacity="0.0"
     inkscape:pageshadow="2"
     inkscape:zoom="0.35"
     inkscape:cx="-388.97266"
     inkscape:cy="-277.61789"
     inkscape:document-units="mm"
     inkscape:current-layer="layer1"
     showgrid="false"
     inkscape:window-width="1920"
     inkscape:window-height="1017"
     inkscape:window-x="-8"
     inkscape:window-y="-8"
     inkscape:window-maximized="1"
     fit-margin-top="0"
     fit-margin-left="0"
     fit-margin-right="0"
     fit-margin-bottom="0" />
  <metadata
     id="metadata1953">
    <rdf:RDF>
      <cc:Work
         rdf:about="">
        <dc:format>image/svg+xml</dc:format>
        <dc:type
           rdf:resource="http://purl.org/dc/dcmitype/StillImage" />
        <dc:title></dc:title>
      </cc:Work>
    </rdf:RDF>
  </metadata>
  <g
     inkscape:label="Layer 1"
     inkscape:groupmode="layer"
     id="layer1"
     transform="translate(-15.603182,-38.024408)">
    <flowRoot
       xml:space="preserve"
       id="flowRoot2501"
       style="font-style:normal;font-variant:normal;font-weight:normal;font-stretch:normal;font-size:192px;line-height:1.25;font-family:sans-serif;-inkscape-font-specification:sans-serif;font-variant-ligatures:normal;font-variant-caps:normal;font-variant-numeric:normal;font-feature-settings:normal;text-align:start;letter-spacing:0px;word-spacing:0px;writing-mode:lr-tb;text-anchor:start;fill:#000000;fill-opacity:1;stroke:none"
       transform="scale(0.26458333)"><flowRegion
         id="flowRegion2503"><rect
           id="rect2505"
           width="622.85712"
           height="760"
           x="-2.8571429"
           y="51.091114" /></flowRegion><flowPara
         id="flowPara2507"></flowPara></flowRoot>    <g
       aria-label="𓊦"
       transform="scale(0.26458333)"
       style="font-style:normal;font-variant:normal;font-weight:normal;font-stretch:normal;font-size:192px;line-height:1.25;font-family:sans-serif;-inkscape-font-specification:sans-serif;font-variant-ligatures:normal;font-variant-caps:normal;font-variant-numeric:normal;font-feature-settings:normal;text-align:start;letter-spacing:0px;word-spacing:0px;writing-mode:lr-tb;text-anchor:start;fill:#000000;fill-opacity:1;stroke:none"
       id="flowRoot2509">
      <path
         d="m 60.472656,143.7143 q 0.65625,0 1.3125,0.28125 0.65625,0.1875 1.21875,0.375 0.65625,0.28125 1.21875,0.5625 l 78.093754,76.875 q 5.53125,2.34375 10.78125,4.78125 5.34375,2.4375 9.9375,4.875 4.6875,2.34375 8.4375,4.59375 3.75,2.25 6.1875,4.21875 9.65625,7.78125 15.46875,17.15625 2.90625,4.78125 4.78125,11.25 1.96875,6.46875 3,14.71875 l -1.59375,1.5 q -18.5625,-4.3125 -27.65625,-10.3125 -9.09375,-6 -16.21875,-15.46875 -1.78125,-2.4375 -3.84375,-6.09375 -1.96875,-3.65625 -4.03125,-8.0625 -1.96875,-4.5 -4.03125,-9.5625 -2.0625,-5.0625 -4.03125,-10.3125 L 92.535156,178.68305 q -1.3125,9.28125 -2.15625,18 -0.84375,8.625 -0.84375,14.8125 0,14.0625 9.1875,27.46875 -13.59375,-14.71875 -13.59375,-38.15625 0,-6.1875 0.65625,-13.3125 0.65625,-7.21875 1.875,-13.40625 -9.09375,-8.625 -14.71875,-13.96875 -5.625,-5.4375 -8.71875,-8.53125 -3.09375,-3.1875 -4.21875,-4.5 -1.03125,-1.40625 -1.03125,-1.96875 0,-0.84375 1.5,-1.40625 z m 82.875004,83.25 q 8.15625,21.5625 14.625,30.46875 6.46875,8.71875 15.46875,14.625 9,6 24.1875,9.375 -1.21875,-11.25 -6.1875,-20.4375 -2.4375,-4.5 -5.53125,-8.4375 -3,-3.9375 -6.9375,-7.40625 -3.9375,-3.46875 -8.90625,-6.5625 -4.875,-3.1875 -10.875,-6.09375 -3,-1.40625 -5.625,-2.625 -2.625,-1.21875 -4.59375,-2.0625 -2.34375,-1.03125 -4.21875,-1.78125 z"
         id="path2517"
         inkscape:connector-curvature="0" />
    </g>
  </g>
</svg>
