<?xml version="1.0" encoding="UTF-8" standalone="no"?>
<svg
   xmlns:dc="http://purl.org/dc/elements/1.1/"
   xmlns:cc="http://creativecommons.org/ns#"
   xmlns:rdf="http://www.w3.org/1999/02/22-rdf-syntax-ns#"
   xmlns:svg="http://www.w3.org/2000/svg"
   xmlns="http://www.w3.org/2000/svg"
   xmlns:sodipodi="http://sodipodi.sourceforge.net/DTD/sodipodi-0.dtd"
   xmlns:inkscape="http://www.inkscape.org/namespaces/inkscape"
   version="1.0"
   width="379.98047pt"
   height="154.14212pt"
   viewBox="0 0 379.98047 154.14212"
   preserveAspectRatio="xMidYMid meet"
   id="svg8"
   sodipodi:docname="P12.svg"
   inkscape:version="0.92.4 (5da689c313, 2019-01-14)">
  <defs
     id="defs12" />
  <sodipodi:namedview
     pagecolor="#ffffff"
     bordercolor="#666666"
     borderopacity="1"
     objecttolerance="10"
     gridtolerance="10"
     guidetolerance="10"
     inkscape:pageopacity="0"
     inkscape:pageshadow="2"
     inkscape:window-width="1920"
     inkscape:window-height="1017"
     id="namedview10"
     showgrid="false"
     fit-margin-top="0"
     fit-margin-left="0"
     fit-margin-right="0"
     fit-margin-bottom="0"
     inkscape:zoom="1.4142136"
     inkscape:cx="316.37245"
     inkscape:cy="147.70811"
     inkscape:window-x="-8"
     inkscape:window-y="-8"
     inkscape:window-maximized="1"
     inkscape:current-layer="svg8" />
  <metadata
     id="metadata2">
Created by potrace 1.10, written by Peter Selinger 2001-2011
<rdf:RDF>
  <cc:Work
     rdf:about="">
    <dc:format>image/svg+xml</dc:format>
    <dc:type
       rdf:resource="http://purl.org/dc/dcmitype/StillImage" />
    <dc:title></dc:title>
  </cc:Work>
</rdf:RDF>
</metadata>
  <g
     transform="matrix(0.1,0,0,-0.1,533.33909,182.01405)"
     id="g6"
     style="fill:#000000;stroke:none">
    <path
       d="m 2745,2010 c -33,-9 -76,-27 -95,-39 -19,-11 -42,-24 -50,-28 -8,-3 -22,-13 -31,-22 -9,-9 -54,-50 -100,-91 -46,-41 -126,-114 -177,-162 l -94,-88 h -69 c -39,0 -85,7 -106,15 -20,9 -66,15 -108,15 -69,0 -75,-2 -99,-31 l -26,-31 v -239 c 0,-273 10,-251 -98,-225 -31,8 -91,22 -132,31 -41,9 -88,22 -105,30 -16,7 -48,21 -70,30 -22,10 -53,24 -68,31 -16,8 -35,14 -43,14 -20,0 -200,83 -259,120 -16,10 -52,31 -80,46 -27,15 -75,43 -105,63 -30,19 -63,40 -72,46 -10,5 -66,40 -125,76 -59,36 -115,69 -123,73 -8,3 -28,15 -45,26 -16,11 -37,22 -45,26 -8,3 -23,10 -34,16 -10,5 -41,16 -68,25 -40,11 -56,12 -86,2 -53,-17 -70,-36 -88,-97 -22,-74 -13,-116 50,-228 23,-41 121,-145 181,-191 33,-26 62,-50 65,-53 21,-25 381,-280 396,-280 2,0 33,-14 69,-30 36,-16 94,-43 130,-60 36,-16 71,-30 78,-30 7,0 22,-7 33,-15 10,-8 28,-15 40,-15 11,0 31,-11 44,-25 l 23,-25 h -90 c -50,0 -99,-3 -108,-6 -36,-14 -45,-57 -45,-225 0,-146 2,-165 21,-195 l 21,-34 h 1207 1207 l 32,33 32,33 v 158 c 0,132 -3,163 -17,189 -10,18 -22,35 -28,39 -5,4 -52,8 -104,8 h -94 l 23,25 c 13,14 29,25 36,25 20,0 147,57 222,100 9,6 24,13 32,16 8,3 22,10 30,15 8,5 22,12 30,15 8,3 22,10 30,15 8,5 22,12 30,15 39,15 53,23 149,89 40,28 80,55 89,60 106,65 257,200 340,305 60,75 77,105 113,198 7,17 3,37 -17,78 -56,118 -144,135 -269,54 -16,-11 -39,-24 -50,-30 -11,-6 -33,-19 -50,-30 -16,-11 -37,-23 -45,-27 -8,-4 -31,-18 -50,-31 -19,-13 -44,-28 -55,-33 -11,-5 -33,-18 -50,-29 -16,-11 -39,-24 -50,-30 -11,-6 -29,-16 -40,-23 -16,-10 -99,-58 -230,-134 -47,-27 -136,-67 -250,-113 -44,-17 -95,-38 -113,-46 -18,-8 -40,-14 -50,-14 -9,0 -26,-7 -36,-15 -35,-26 -54,-18 -77,33 -29,63 -30,143 -2,202 12,25 33,72 48,105 14,33 33,72 41,87 21,38 20,280 -1,298 -8,7 -15,18 -15,25 0,24 -101,99 -158,117 -67,21 -69,21 -147,-2 z m 115,-155 c 45,-23 70,-62 70,-109 0,-37 -26,-129 -49,-174 -5,-9 -17,-37 -26,-62 -10,-25 -23,-58 -30,-75 -25,-61 -38,-101 -42,-136 -5,-41 19,-148 45,-197 16,-32 16,-34 -2,-48 -11,-8 -42,-14 -70,-14 -28,0 -86,-7 -129,-15 -91,-17 -641,-22 -667,-5 -12,8 -15,44 -18,202 -1,106 2,199 7,207 7,11 21,11 88,-3 174,-35 272,12 488,236 61,63 124,122 140,131 17,9 39,21 50,27 11,5 34,19 50,29 37,24 58,25 95,6 z m 1362,-317 c -18,-37 -235,-256 -303,-306 -129,-96 -175,-129 -189,-135 -8,-4 -28,-16 -45,-26 -27,-18 -69,-40 -180,-97 -48,-25 -95,-46 -155,-69 -25,-9 -53,-21 -62,-26 -10,-5 -48,-18 -85,-30 -38,-11 -81,-25 -98,-30 -16,-6 -46,-15 -65,-19 -19,-5 -53,-13 -75,-19 -22,-6 -78,-17 -125,-26 -47,-9 -107,-20 -133,-25 -94,-19 -384,-32 -557,-26 -177,6 -349,26 -451,52 -30,8 -67,14 -80,14 -14,0 -45,6 -70,14 -24,7 -71,22 -104,31 -110,33 -196,63 -270,94 -16,7 -43,18 -60,25 -89,37 -277,139 -340,185 -27,21 -76,54 -108,75 -77,51 -347,319 -347,344 0,27 30,19 98,-27 62,-41 68,-45 197,-126 117,-73 185,-112 290,-165 44,-23 87,-45 95,-49 14,-7 29,-14 125,-56 35,-16 77,-33 138,-58 46,-20 97,-38 132,-47 17,-4 41,-12 55,-18 14,-5 54,-17 90,-27 36,-9 88,-22 115,-30 233,-63 643,-92 840,-60 50,8 109,15 133,15 23,0 68,6 100,14 31,8 93,22 137,31 44,10 98,23 120,30 22,7 67,20 100,30 60,17 92,28 175,60 25,9 63,24 85,33 81,31 314,143 427,205 31,18 75,42 97,54 22,12 60,35 83,50 58,37 80,51 98,60 8,4 50,31 94,60 43,29 83,53 87,53 4,0 0,-15 -9,-32 z M 3375,455 V 385 H 2270 1165 l -3,59 c -2,32 -1,65 2,72 5,12 183,14 1108,12 l 1103,-3 z"
       id="path4"
       inkscape:connector-curvature="0" />
  </g>
  <g
     aria-label="𓊛"
     transform="matrix(2.781827,0,0,2.781827,3397.5709,-132.99333)"
     style="font-style:normal;font-variant:normal;font-weight:normal;font-stretch:normal;font-size:192px;line-height:1.25;font-family:sans-serif;-inkscape-font-specification:sans-serif;font-variant-ligatures:normal;font-variant-caps:normal;font-variant-numeric:normal;font-feature-settings:normal;text-align:start;letter-spacing:0px;word-spacing:0px;writing-mode:lr-tb;text-anchor:start;fill:#000000;fill-opacity:1;stroke:none"
     id="flowRoot816">
    <path
       id="path824"
       transform="matrix(0.26960698,0,0,0.26960698,-1024.8359,40.353527)"
       style="stroke-width:3.70910287"
       d="m -239.61914,69.738281 c -4.86809,3.013646 -9.61948,6.02737 -14.25586,9.041016 -3.94103,2.550008 -8.34676,5.332057 -13.21484,8.345703 -4.63638,2.781827 -8.92421,5.216364 -12.86524,7.302734 l -7.99804,4.171875 c -5.79559,3.013651 -11.59136,5.911531 -17.38672,8.693361 l -17.03907,8.3457 -11.12695,4.86914 c -12.74993,5.79548 -25.49985,11.12595 -38.25,15.99414 -12.74993,4.63638 -26.07915,8.57876 -39.98828,11.82422 -11.12695,2.08594 0,0 -11.12695,2.08594 -3.94104,0.46364 -7.76746,0.92699 -11.47657,1.39062 -3.7091,0.23182 -7.76547,0.4635 -12.16992,0.69532 -4.17274,0.23182 -9.03986,0.46349 -14.60351,0.69531 -5.33195,0.23182 -11.59107,0.34766 -18.77735,0.34766 -9.96832,0 -17.73517,-0.11584 -23.29883,-0.34766 -5.33172,-0.23182 -9.61977,-0.46349 -12.86523,-0.69531 -3.24546,-0.46364 -6.14324,-0.81115 -8.69336,-1.04297 -2.31819,-0.23182 -5.33191,-0.4635 -9.04102,-0.69531 -11.12695,-2.08592 0,0 -11.12695,-2.08592 -29.90453,-4.63638 -58.99934,-11.24301 -87.28125,-19.82031 -28.0502,-8.80912 -56.10041,-18.42948 -84.15039,-28.861332 l -6.95312,4.171872 -5.56446,16.69141 3.47657,6.25781 c 19.70449,9.04094 39.64219,18.42962 59.81054,28.16602 20.40007,9.73639 41.38041,17.61919 62.93946,23.64648 l -3.47852,3.12891 v 44.50976 l 4.86914,6.60743 h 278.5293 l 5.91211,-5.56446 v -44.50976 l -5.91211,-5.5625 h -53.20117 c 18.3138,-6.0273 36.04657,-13.56258 53.20117,-22.60352 17.1546,-9.04094 34.07857,-18.42962 50.76953,-28.16602 l 7.30078,-3.82421 c 2.78183,-1.85456 6.37658,-4.17325 10.78125,-6.95508 4.63638,-3.01365 9.1561,-5.91153 13.56055,-8.69336 5.10001,-3.24547 10.31649,-6.72254 15.64843,-10.431642 l 2.4336,-7.65039 -10.7793,-17.03711 z m 1.39062,12.171875 4.52149,7.996094 c -33.08438,22.16334 -58.18301,37.5751 -93.53906,55.98437 -15.30005,7.65003 -29.2103,13.79331 -41.72852,18.42969 -12.51822,4.63638 -23.76041,7.99762 -33.72851,10.08399 -9.7364,2.08637 -18.19827,3.13086 -25.38477,3.13086 h -111.27344 c -12.28629,0 -24.10951,-1.04449 -35.46875,-3.13086 -11.35901,-2.08637 -23.75958,-5.33177 -37.20508,-9.73633 -13.44549,-4.63638 -28.51411,-10.66383 -45.20507,-18.08203 -16.69097,-7.41821 -36.39698,-16.57326 -59.11524,-27.46875 l 2.08789,-6.60742 c 19.24086,6.72274 38.2499,13.21354 57.02735,19.47265 19.00915,6.25911 38.01819,11.82321 57.02734,16.69141 19.24086,4.8682 38.71325,8.80862 58.41797,11.82226 19.93643,2.78183 40.33551,4.17188 61.19922,4.17188 11.12731,0 21.44475,-0.11584 30.94922,-0.34766 9.73639,-0.46364 19.24091,-1.2745 28.51367,-2.43359 9.27275,-1.39091 18.66133,-3.24431 28.16601,-5.5625 9.50447,-2.55001 19.70401,-5.9132 30.59961,-10.08594 10.89538,-4.17274 22.83455,-9.27153 35.81641,-15.29883 12.98186,-6.25911 27.70285,-13.6766 44.16211,-22.2539 l 7.64844,-4.52149 z M -594.99805,188.66211 h 267.05664 v 33.38281 h -267.05664 z"
       inkscape:connector-curvature="0"
       sodipodi:nodetypes="ccccccccccccccsccccccccccccccccccccscccccccccccscssccscccccsccccccccccccc" />
  </g>
  <path
     style="color:#000000;font-style:normal;font-variant:normal;font-weight:normal;font-stretch:normal;font-size:medium;line-height:normal;font-family:sans-serif;font-variant-ligatures:normal;font-variant-position:normal;font-variant-caps:normal;font-variant-numeric:normal;font-variant-alternates:normal;font-feature-settings:normal;text-indent:0;text-align:start;text-decoration:none;text-decoration-line:none;text-decoration-style:solid;text-decoration-color:#000000;letter-spacing:normal;word-spacing:normal;text-transform:none;writing-mode:lr-tb;direction:ltr;text-orientation:mixed;dominant-baseline:auto;baseline-shift:baseline;text-anchor:start;white-space:normal;shape-padding:0;clip-rule:nonzero;display:inline;overflow:visible;visibility:visible;opacity:1;isolation:auto;mix-blend-mode:normal;color-interpolation:sRGB;color-interpolation-filters:linearRGB;solid-color:#000000;solid-opacity:1;vector-effect:none;fill:#000200;fill-opacity:1;fill-rule:nonzero;stroke:none;stroke-width:9.07499981;stroke-linecap:butt;stroke-linejoin:miter;stroke-miterlimit:4;stroke-dasharray:none;stroke-dashoffset:0;stroke-opacity:1;color-rendering:auto;image-rendering:auto;shape-rendering:auto;text-rendering:auto;enable-background:accumulate"
     d="M 238.35352,0.0546875 C 232.09929,0.51009235 226.08841,3.168925 220.65234,6.3105469 209.78021,12.593791 201.04492,21.257812 201.04492,21.257812 l -0.21484,0.210938 -0.1836,0.238281 c -14.20012,18.257304 -28.07777,23.296821 -38.46484,24.251953 -10.38706,0.955133 -16.99609,-2.232422 -16.99609,-2.232422 l -6.48243,-3.076171 v 53.845703 h 9.07422 v -40.53711 c 3.82273,0.879588 9.06802,1.604131 15.23438,1.03711 12.5915,-1.15784 29.05789,-7.731028 44.46094,-27.326172 0.097,-0.09458 8.23181,-8.018117 17.7207,-13.501953 4.77279,-2.758301 9.83059,-4.7721285 13.81836,-5.0625002 3.98777,-0.2903718 6.63702,0.5135771 9.23242,4.2070312 5.92646,8.433804 5.22742,17.133384 2.96484,24.337891 -2.26257,7.204507 -6.04296,12.199218 -6.04296,12.199218 l -0.15235,0.199219 -0.1289,0.216797 c 0,0 -4.36718,7.164684 -6.07227,16.283203 -0.85254,4.55926 -1.0801,9.735443 0.47266,14.88086 1.55275,5.145416 5.04156,10.154586 10.80664,13.738281 l 4.79101,-7.707031 c -4.04603,-2.515101 -5.92532,-5.395344 -6.9082,-8.652344 -0.98288,-3.257 -0.91239,-6.997232 -0.24023,-10.591797 1.3443,-7.18913 4.93164,-13.283203 4.93164,-13.283203 l -0.28125,0.416015 c 0,0 4.70685,-6.142491 7.48242,-14.980468 2.77556,-8.837978 3.66486,-21.085029 -4.19727,-32.2734379 -4.29889,-6.1176524 -11.06218,-8.49642045 -17.3164,-8.0410156 z"
     id="path860"
     inkscape:connector-curvature="0" />
</svg>
