<?xml version="1.0" encoding="UTF-8" standalone="no"?>
<svg
   xmlns:dc="http://purl.org/dc/elements/1.1/"
   xmlns:cc="http://creativecommons.org/ns#"
   xmlns:rdf="http://www.w3.org/1999/02/22-rdf-syntax-ns#"
   xmlns:svg="http://www.w3.org/2000/svg"
   xmlns="http://www.w3.org/2000/svg"
   xmlns:sodipodi="http://sodipodi.sourceforge.net/DTD/sodipodi-0.dtd"
   xmlns:inkscape="http://www.inkscape.org/namespaces/inkscape"
   version="1.0"
   width="1491.0944pt"
   height="1858.587pt"
   viewBox="0 0 1491.0943 1858.587"
   preserveAspectRatio="xMidYMid meet"
   id="svg8"
   sodipodi:docname="P13.svg"
   inkscape:version="0.92.4 (5da689c313, 2019-01-14)">
  <defs
     id="defs12" />
  <sodipodi:namedview
     pagecolor="#ffffff"
     bordercolor="#666666"
     borderopacity="1"
     objecttolerance="10"
     gridtolerance="10"
     guidetolerance="10"
     inkscape:pageopacity="0"
     inkscape:pageshadow="2"
     inkscape:window-width="1920"
     inkscape:window-height="1017"
     id="namedview10"
     showgrid="false"
     fit-margin-top="0"
     fit-margin-left="0"
     fit-margin-right="0"
     fit-margin-bottom="0"
     inkscape:zoom="0.25"
     inkscape:cx="2177.0632"
     inkscape:cy="1266.7256"
     inkscape:window-x="-8"
     inkscape:window-y="-8"
     inkscape:window-maximized="1"
     inkscape:current-layer="svg8" />
  <metadata
     id="metadata2">
Created by potrace 1.10, written by Peter Selinger 2001-2011
<rdf:RDF>
  <cc:Work
     rdf:about="">
    <dc:format>image/svg+xml</dc:format>
    <dc:type
       rdf:resource="http://purl.org/dc/dcmitype/StillImage" />
    <dc:title></dc:title>
  </cc:Work>
</rdf:RDF>
</metadata>
  <g
     transform="matrix(0.70486544,0,0,-0.70486544,1545.1439,1798.3502)"
     id="g6"
     style="fill:#000000;stroke:none">
    <path
       d="m 1088,2269 c -16,-9 -18,-28 -18,-167 v -157 l -97,-92 -98,-93 H 554 233 l -21,-23 c -27,-29 -28,-47 -2,-75 19,-20 30,-22 150,-22 127,0 154,-7 132,-33 -19,-23 -42,-102 -48,-169 -7,-64 13,-183 37,-230 5,-10 9,-26 9,-37 0,-18 -9,-20 -135,-23 -87,-2 -138,-7 -146,-15 -13,-13 -15,-65 -4,-83 4,-6 120,-10 324,-10 H 847 L 959,933 1070,825 V 669 c 0,-113 -3,-159 -12,-166 -25,-20 -192,3 -318,43 -25,8 -54,14 -65,14 -11,1 -54,18 -95,38 -104,52 -140,100 -140,186 0,112 -26,147 -117,162 -33,5 -44,2 -65,-17 -24,-22 -27,-35 -36,-134 -10,-115 1,-212 26,-237 6,-6 12,-17 12,-23 0,-31 176,-154 223,-155 6,-1 26,-12 42,-25 l 30,-25 H 360 c -254,0 -244,5 -248,-125 -3,-92 -1,-101 19,-117 20,-17 83,-18 1016,-18 666,0 1001,3 1014,10 17,10 19,22 19,121 0,108 0,110 -26,119 -14,6 -127,10 -252,10 h -227 l 30,25 c 17,13 37,24 46,25 8,0 24,7 35,15 10,8 25,15 33,15 7,0 30,13 51,30 21,16 43,30 48,30 18,0 107,94 125,132 35,75 14,149 -65,230 -79,81 -140,109 -248,115 l -75,4 -52,-50 c -30,-28 -55,-63 -61,-83 -11,-42 4,-92 37,-114 20,-14 31,-15 73,-5 27,6 69,11 94,11 36,0 44,-3 44,-19 0,-10 -6,-23 -12,-29 -29,-22 -127,-69 -183,-86 -33,-10 -75,-22 -94,-28 -59,-18 -204,-46 -256,-50 l -50,-3 -3,173 -2,173 99,100 99,99 h 321 c 306,0 321,1 331,19 15,29 12,56 -8,74 -15,14 -40,17 -128,17 -60,0 -115,4 -122,8 -17,11 -50,77 -67,136 -26,85 -20,169 17,245 49,104 44,101 173,101 104,0 113,2 133,23 29,31 28,40 -9,71 l -31,26 h -319 -319 l -85,84 -85,83 v 144 c 0,118 -3,149 -17,169 -9,14 -17,26 -17,27 -5,9 -55,11 -68,2 z m 552,-649 c 0,-12 -6,-33 -14,-48 -7,-15 -22,-62 -32,-105 -17,-75 -17,-80 1,-155 10,-42 24,-87 32,-99 7,-12 13,-31 13,-43 0,-20 -4,-20 -505,-20 H 631 l -37,75 c -33,70 -36,83 -36,168 0,86 3,98 37,170 l 37,77 h 504 c 501,0 504,0 504,-20 z m -578,-595 c 0,-5 -5,-11 -11,-13 -6,-2 -11,4 -11,13 0,9 5,15 11,13 6,-2 11,-8 11,-13 z m 156,-3 c 2,-7 -3,-12 -12,-12 -9,0 -16,7 -16,16 0,17 22,14 28,-4 z m 720,-343 c 2,-25 -4,-41 -23,-61 -14,-16 -30,-28 -36,-28 -11,0 -2,42 17,79 8,14 14,32 14,39 0,29 25,3 28,-29 z M 380,607 c 0,-4 15,-21 32,-38 18,-16 27,-29 20,-29 -8,0 -20,7 -28,15 -8,8 -23,20 -32,27 -19,15 -42,52 -42,69 0,12 50,-31 50,-44 z M 938,393 c -10,-2 -28,-2 -40,0 -13,2 -5,4 17,4 22,1 32,-1 23,-4 z M 2085,200 v -25 l -923,-3 c -814,-2 -923,0 -928,13 -4,8 -4,22 0,30 5,13 114,15 928,13 l 923,-3 z"
       id="path4"
       inkscape:connector-curvature="0" />
  </g>
  <path
     style="fill:none;stroke:#000000;stroke-width:0.23394269px;stroke-linecap:butt;stroke-linejoin:miter;stroke-opacity:1"
     d="M 0,368.74097 Z"
     id="path906"
     inkscape:connector-curvature="0" />
  <g
     aria-label="𓊠"
     transform="matrix(3.7050802,0,0,3.7050802,7121.6,1327.6864)"
     style="font-style:normal;font-weight:normal;font-size:1200px;line-height:1.25;font-family:sans-serif;letter-spacing:0px;word-spacing:0px;fill:#ff6600;fill-opacity:1;stroke:none;stroke-width:0.20242475"
     id="flowRoot851">
    <path
       id="path859"
       style="fill:#000000;stroke-width:0.10843771"
       d="m -1632.2829,-72.831315 -4.708,4.080519 -5.0223,20.402598 3.1392,5.649707 c 15.2756,4.812869 26.7844,10.253666 34.5269,16.322077 7.7424,6.068409 11.6137,12.973668 11.6137,20.7161179 0,5.02212991 -1.6742,10.4629188 -5.0223,16.3220771 l -7.2193,6.905375 c -18.4144,11.927559 -40.7002,21.239632 -66.8571,27.935802 -10.8292,2.685655 -23.4576,4.813716 -37.8736,6.38745 1.2492,0.709456 2.451,1.539889 3.6805,2.319187 8.0034,9.406556 48.8874,-2.067185 64.326,-7.451367 l 17.8912,-7.219289 13.1833,-6.905373 c 4.1851,-2.301809 8.37,-4.812886 12.5551,-7.533205 l 5.3362,-3.766603 c 3.5574,-4.812871 6.173,-9.416377 7.8471,-13.8107469 1.674,-4.3943561 2.511,-8.6842813 2.511,-12.869391 0,-9.8350091 -4.4989,-18.8330931 -13.4969,-26.9940521 -8.998,-8.160971 -20.7165,-14.333989 -35.1551,-18.519099 l 2.8253,-11.927247 c 22.3903,0 40.9091,5.54507 55.5569,16.635601 14.8572,11.090537 22.2861,25.529025 22.2861,43.3157346 0,30.3420384 -17.6822,54.9294854 -53.0464,73.7624754 -16.0066,8.574974 -34.7909,15.566134 -56.3504,20.97429 h 6.2689 c 6.1445,0 9.8082,2.504597 10.9946,5.492352 12.4242,-3.937878 24.4066,-8.574969 35.9478,-13.911167 19.4607,-9.20724 32.5394,-17.577365 39.2356,-25.110554 6.9054,-7.5332 12.8691,-15.589345 17.8912,-24.168805 5.0222,-8.78874 7.8472,-20.821192 8.475,-36.0968426 v -2.8248517 c 0,-21.1348007 -8.5799,-37.7707677 -25.7388,-49.9075877 -16.9496,-12.136751 -38.8165,-18.205121 -65.601,-18.205182 z m -160.8886,177.344255 c 0.029,0.48593 0.077,0.95904 0.14,1.42132 0.6551,-0.49398 1.3384,-0.96073 2.0278,-1.42132 z"
       inkscape:connector-curvature="0"
       sodipodi:nodetypes="cccccscccccccccccsscccsccscccccsccccccc" />
  </g>
  <g
     aria-label="𓊟"
     transform="matrix(-10.570629,0,0,10.570629,-43214.909,7339.0786)"
     style="font-style:normal;font-variant:normal;font-weight:normal;font-stretch:normal;font-size:192px;line-height:1.25;font-family:sans-serif;-inkscape-font-specification:sans-serif;font-variant-ligatures:normal;font-variant-caps:normal;font-variant-numeric:normal;font-feature-settings:normal;text-align:start;letter-spacing:0px;word-spacing:0px;writing-mode:lr-tb;text-anchor:start;fill:#782121;fill-opacity:1;stroke:none"
     id="flowRoot834">
    <path
       id="path842"
       style="fill:#000000;stroke-width:1.00000012"
       d="m -4097.2694,-602.74537 2.5314,1.1251 v 45.37517 c -0.6875,1.3125 -4.6874,4.21869 -11.9999,8.71869 -7.3125,4.5 -14.6876,8.15627 -22.125,10.96877 h 37.5346 l 1.5939,1.49995 v 15.09365 l -1.5939,1.49995 h -136.5315 l -1.4063,-1.78126 v -14.53116 l 1.4063,-1.78113 h 47.4342 c -0.5625,0 -1.2187,-0.12513 -1.9687,-0.37513 1.9687,0.37513 0,0 11.7187,0.37513 h 30.4688 l 1.5937,-0.28131 c 4.125,-0.75 10.5,-3.1877 19.125,-7.3127 8.6875,-4.125 15.9377,-8.40607 21.7502,-12.84357 v -41.25001 c -1.8125,2 -3.1565,4.53123 -4.0315,7.59373 -0.875,3 -1.4373,6.00014 -1.6873,9.00014 -0.1874,2.9375 -0.4688,5.90606 -0.8438,8.90606 l -1.0313,8.90619 c -0.25,0.375 -0.4062,0.71892 -0.4686,1.03143 -0.063,0.3125 -3.0627,2.21878 -9,5.71878 -5.9376,3.5 -12.2815,5.99992 -19.0315,7.49992 -6.75,1.4375 -13.8436,2.15625 -21.2811,2.15625 -6.264,0 -12.4544,-0.473 -18.5715,-1.41695 0.3324,-0.13705 0.6567,-0.29494 0.9702,-0.46991 0.4435,-0.31998 0.9685,-0.45442 1.3677,-0.83299 0,-0.002 0.01,-0.004 0.01,-0.006 0.073,-0.0191 0.1435,-0.0432 0.2112,-0.0762 0.5014,-0.24482 0.9521,-0.58374 1.4085,-0.90491 0.047,-0.0329 0.046,-0.10765 0.087,-0.14772 0.01,-0.009 0.018,-0.0174 0.028,-0.0262 l 0.336,0.0374 c 4.1875,0.375 8.4376,0.56248 12.75,0.56248 4.875,0 9.8125,-0.28129 14.8125,-0.84379 l 3.0001,-0.1875 c 6.6875,-1.25 12.2812,-2.90631 16.7812,-4.96881 4.5625,-2.0625 9.1248,-4.71872 13.6874,-7.96872 l 0.4689,-3.46885 c 0,-0.3125 0.5311,-5.34364 1.5936,-15.09365 1.0625,-9.75 4.0312,-16.2501 8.9062,-19.5001 z m 4.5351,69.18764 h -133.5319 v 12.09373 h 133.5319 z"
       inkscape:connector-curvature="0"
       sodipodi:nodetypes="ccccccccccccccccccccccccccccscccccccccscccccccccccc" />
  </g>
  <g
     id="g877"
     style="fill:#c83737"
     transform="matrix(0.99971228,0,0,0.99971228,4472.309,1594.6576)">
    <g
       id="flowRoot898"
       style="font-style:normal;font-weight:normal;font-size:1200px;line-height:1.25;font-family:sans-serif;letter-spacing:0px;word-spacing:0px;fill:#c83737;fill-opacity:1;stroke:none;stroke-width:0.15099521"
       transform="matrix(-1.5493385,0,0,1.5493385,-6123.4323,-920.73025)"
       aria-label="𓊡">
      <path
         sodipodi:nodetypes="cccccccsccccccccccccccccccscccccsccsccccccsccccccscccccsscccccsccccsccccccscccccccccccsccccc"
         inkscape:connector-curvature="0"
         id="path908"
         style="fill:#000000;stroke-width:0.15099521"
         d="m -1445.4987,-226.52802 c 52.7343,0.78125 107.4218,3.90625 164.0625,9.375 56.6406,5.07812 116.4062,9.37499 179.2969,12.89062 v 28.71094 l -140.0391,-11.13281 c 7.0313,14.84375 13.4766,29.6875 19.3359,44.53125 4.6875,12.5 8.9844,25.97656 12.8907,40.42968 4.2969,14.453126 6.4453,27.343746 6.4453,38.671876 0,10.54687 -0.9766,21.874999 -2.9297,33.984374 -1.5625,12.109375 -4.1016,24.2187503 -7.6172,36.3281253 -3.5156,11.7187497 -8.0078,23.0468747 -13.4766,33.9843747 -5.0781,10.9375 -10.9375,20.507812 -17.5781,28.710937 l 142.9688,-38.085937 v 28.710937 c -26.9531,6.25 -53.711,12.890625 -80.2735,19.921875 -26.1719,6.640625 -52.539,12.890625 -79.1015,18.75 -26.1719,5.859378 -52.7344,11.132818 -79.6875,15.820318 -26.5625,4.6875 -53.5157,8.20312 -80.8594,10.54687 l 4.6875,70.3125 -109.5703,100.19532 v 266.01562 h -29.2969 V 296.12823 l -112.5,-100.19532 5.2734,-73.24219 c -13.6719,-1.17187 -28.7109,-2.53906 -45.1172,-4.10156 -16.0156,-1.95312 -32.8125,-4.10156 -50.3906,-6.44531 -17.5781,-2.34375 -35.3516,-4.6875 -53.3203,-7.03125 -17.9687,-2.73438 -35.1562,-5.27344 -51.5625,-7.61719 -38.6719,-5.859375 -78.3203,-11.914063 -118.9453,-18.164063 V 51.206348 l 82.0312,11.718749 c 11.3281,-8.203125 21.4844,-17.773437 30.4688,-28.710937 8.9844,-10.9375 16.6016,-22.65625 22.8516,-35.15624972 6.6406,-12.50000028 11.5234,-25.19531328 14.6484,-38.08593828 3.5156,-13.281246 5.2734,-25.781246 5.2734,-37.499996 0,-17.1875 -3.7109,-35.742186 -11.1328,-55.664066 -7.0313,-19.92187 -17.5781,-37.30468 -31.6406,-52.14843 l -112.5,8.78906 v -28.71094 c 44.5313,-3.90625 88.086,-7.42187 130.6641,-10.54687 17.9687,-1.17188 36.7187,-2.34376 56.25,-3.51563 19.5312,-1.5625 38.6718,-2.92969 57.4218,-4.10156 18.75,-1.17187 36.7188,-2.14844 53.9063,-2.92969 17.5781,-0.78125 33.3984,-1.36718 47.4609,-1.75781 l 82.5118,-95.01894 h 26.3672 l -83.0977,94.433 h 67.9687 36.3281 c 10.9375,0 23.0469,0.19531 36.3282,0.58594 l -81.5507,-95.01894 h 24.0234 z m 164.0625,307.031242 c 22.2656,-25.390625 37.5,-50.195312 45.7031,-74.4140617 8.2031,-24.2187503 12.3047,-47.0703113 12.3047,-68.5546843 0,-12.5 -2.5391,-26.36719 -7.6172,-41.601566 -5.0781,-15.625 -10.7422,-30.27344 -16.9922,-43.94531 -7.0313,-15.625 -15.0391,-31.44531 -24.0234,-47.46094 -25,-2.34375 -52.1484,-4.49218 -81.4453,-6.44531 -25,-1.95313 -53.7109,-3.51563 -86.1328,-4.6875 -32.4219,-1.5625 -66.6016,-2.34375 -102.5391,-2.34375 -51.9531,0 -97.2656,0.78125 -135.9375,2.34375 -38.2813,1.17187 -70.5078,2.73437 -96.6797,4.6875 -30.4687,1.95313 -56.4453,4.29688 -77.9297,7.03125 13.6719,17.57813 24.6094,37.5 32.8125,59.76563 8.2031,21.875 12.3047,43.359366 12.3047,64.453116 0,54.687501 -25,102.539064 -75,143.554689 13.2813,3.515625 29.8828,6.835937 49.8047,9.960937 20.3125,3.125 41.9922,6.25 65.0391,9.375 23.0469,2.734375 46.6797,5.273438 70.8984,7.617188 24.6094,1.95313 47.8516,3.90625 69.7266,5.85938 22.2656,1.5625 42.1875,2.73437 59.7656,3.51562 17.9687,0.78125 32.0312,1.17188 42.1875,1.17188 21.0937,0 42.9687,-0.78125 65.625,-2.34375 23.0469,-1.5625 45.3125,-3.51563 66.7969,-5.85938 21.875,-2.734375 42.3828,-5.859375 61.5234,-9.375 19.1406,-3.90625 35.7422,-8.007813 49.8047,-12.304688 z m -358.5938,75.000008 -2.3437,27.53906 101.9531,87.30469 93.1641,-86.13282 -1.7578,-28.71093 z m 112.5,-26.36719 c -26.5625,0 -48.2421,-0.39063 -65.039,-1.17188 -16.7969,-0.78125 -31.8359,-1.75781 -45.1172,-2.92969 l -1.1719,15.82032 h 188.6719 l -0.586,-12.89063 z" />
    </g>
    <path
       inkscape:connector-curvature="0"
       id="path855"
       d="m -3755.6752,-1595.1165 -0.025,188.7969 h 38.9258 l 0.025,-188.7968 z"
       style="color:#000000;font-style:normal;font-variant:normal;font-weight:normal;font-stretch:normal;font-size:medium;line-height:normal;font-family:sans-serif;font-variant-ligatures:normal;font-variant-position:normal;font-variant-caps:normal;font-variant-numeric:normal;font-variant-alternates:normal;font-feature-settings:normal;text-indent:0;text-align:start;text-decoration:none;text-decoration-line:none;text-decoration-style:solid;text-decoration-color:#000000;letter-spacing:normal;word-spacing:normal;text-transform:none;writing-mode:lr-tb;direction:ltr;text-orientation:mixed;dominant-baseline:auto;baseline-shift:baseline;text-anchor:start;white-space:normal;shape-padding:0;clip-rule:nonzero;display:inline;overflow:visible;visibility:visible;opacity:1;isolation:auto;mix-blend-mode:normal;color-interpolation:sRGB;color-interpolation-filters:linearRGB;solid-color:#000000;solid-opacity:1;vector-effect:none;fill:#000000;fill-opacity:1;fill-rule:nonzero;stroke:none;stroke-width:38.92499924;stroke-linecap:butt;stroke-linejoin:miter;stroke-miterlimit:4;stroke-dasharray:none;stroke-dashoffset:0;stroke-opacity:1;color-rendering:auto;image-rendering:auto;shape-rendering:auto;text-rendering:auto;enable-background:accumulate" />
  </g>
</svg>
