<?xml version="1.0" encoding="UTF-8" standalone="no"?>
<!-- Created with Inkscape (http://www.inkscape.org/) -->

<svg
   xmlns:dc="http://purl.org/dc/elements/1.1/"
   xmlns:cc="http://creativecommons.org/ns#"
   xmlns:rdf="http://www.w3.org/1999/02/22-rdf-syntax-ns#"
   xmlns:svg="http://www.w3.org/2000/svg"
   xmlns="http://www.w3.org/2000/svg"
   xmlns:sodipodi="http://sodipodi.sourceforge.net/DTD/sodipodi-0.dtd"
   xmlns:inkscape="http://www.inkscape.org/namespaces/inkscape"
   width="37.331055mm"
   height="19.049999mm"
   viewBox="0 0 37.331055 19.049999"
   version="1.1"
   id="svg3637"
   inkscape:version="0.92.4 (5da689c313, 2019-01-14)"
   sodipodi:docname="P1A.svg">
  <defs
     id="defs3631" />
  <sodipodi:namedview
     id="base"
     pagecolor="#ffffff"
     bordercolor="#666666"
     borderopacity="1.0"
     inkscape:pageopacity="0.0"
     inkscape:pageshadow="2"
     inkscape:zoom="0.35"
     inkscape:cx="-317.54492"
     inkscape:cy="-371.90305"
     inkscape:document-units="mm"
     inkscape:current-layer="layer1"
     showgrid="false"
     showguides="false"
     fit-margin-top="0"
     fit-margin-left="0"
     fit-margin-right="0"
     fit-margin-bottom="0"
     inkscape:window-width="1920"
     inkscape:window-height="1017"
     inkscape:window-x="-8"
     inkscape:window-y="-8"
     inkscape:window-maximized="1" />
  <metadata
     id="metadata3634">
    <rdf:RDF>
      <cc:Work
         rdf:about="">
        <dc:format>image/svg+xml</dc:format>
        <dc:type
           rdf:resource="http://purl.org/dc/dcmitype/StillImage" />
        <dc:title></dc:title>
      </cc:Work>
    </rdf:RDF>
  </metadata>
  <g
     inkscape:label="Layer 1"
     inkscape:groupmode="layer"
     id="layer1"
     transform="translate(3.295406,-31.383986)">
    <g
       aria-label="𓊜"
       transform="scale(0.26458333)"
       style="font-style:normal;font-variant:normal;font-weight:normal;font-stretch:normal;font-size:192px;line-height:1.25;font-family:sans-serif;-inkscape-font-specification:'sans-serif, Normal';font-variant-ligatures:normal;font-variant-caps:normal;font-variant-numeric:normal;font-feature-settings:normal;text-align:start;letter-spacing:0px;word-spacing:0px;writing-mode:lr-tb;text-anchor:start;fill:#000000;fill-opacity:1;stroke:none"
       id="flowRoot4182">
      <path
         d="m 40.232422,149.64789 1.5,-1.03125 h 1.40625 v -7.125 q -5.625,1.3125 -10.78125,3.28125 -5.15625,1.875 -10.3125,4.21875 v 27 l 7.59375,13.125 -3.09375,1.5 -4.5,-8.90625 v 4.5 h -3 v -9.28125 L 7.6074219,156.02289 q -1.59375,0.9375 -3.5625,2.0625 -1.875,1.125 -3.46875003,2.15625 -1.87499997,1.21875 -3.84374997,2.4375 l -1.78125,-0.65625 -2.90625,-4.59375 0.65625,-2.0625 q 2.15625,-1.5 4.21875,-2.8125 1.78125,-1.125 3.56249998,-2.25 1.78125002,-1.21875 3.00000002,-1.96875 l -3.93750003,-7.21875 q -11.99999987,-3.375 -11.99999987,-21 13.4999999,6.65625 13.4999999,19.5 l 4.40625,7.6875 q 6.7500001,-3.9375 13.6875001,-7.59375 6.9375,-3.65625 14.34375,-6.09375 h -14.34375 l -1.59375,-1.5 v -12 l 1.59375,-1.5 h 75.09375 l 1.3125,1.78125 v 12 l -0.9375,0.84375 q 8.718748,2.4375 16.874998,6.375 8.25,3.9375 16.21875,7.59375 l 0.9375,1.6875 -1.5,4.5 -1.875,1.125 q -11.34375,-4.21875 -22.78125,-7.6875 -11.343748,-3.5625 -23.437498,-5.4375 -0.5625,12.5625 -24.46875,18.9375 l -2.53125,3.28125 q -1.59375,1.96875 -3.46875,3.1875 -1.78125,1.21875 -4.03125,1.21875 -3,0 -4.96875,-2.15625 -1.96875,-2.25 -1.96875,-6.28125 0,-2.625 0.75,-5.15625 0.84375,-2.625 1.875,-4.78125 z m 52.3125,-19.03125 v -9 h -72 v 9 z m -16.5,10.21875 q -1.59375,-0.0937 -2.53125,-0.1875 -0.9375,-0.0937 -2.25,-0.1875 -1.3125,-0.1875 -3.5625,-0.28125 -2.15625,-0.0937 -6.1875,-0.0937 -2.90625,0 -5.15625,0.0937 -2.15625,0.0937 -3.9375,0.1875 -1.6875,0.0937 -3.28125,0.28125 -1.5,0.1875 -3,0.28125 v 8.90625 l -1.40625,1.78125 h -2.15625 q -0.65625,1.125 -1.3125,3.5625 -0.5625,2.34375 -0.5625,4.78125 0,2.71875 0.9375,4.03125 0.9375,1.21875 2.4375,1.21875 1.40625,0 2.71875,-0.75 1.40625,-0.75 3.1875,-3.1875 l 1.5,-2.15625 q 1.96875,-1.03125 5.34375,-2.34375 3.46875,-1.3125 8.34375,-3.09375 9.75,-3.5625 10.875,-12.84375 z m 48.656248,10.3125 0.5625,-1.78125 q -9.1875,-4.3125 -15.9375,-7.3125 -6.75,-3.09375 -12.187498,-4.875 -5.4375,-1.875 -10.03125,-2.71875 -4.59375,-0.84375 -9.5625,-0.84375 h -30 q -3,0 -7.03125,0.84375 -3.9375,0.84375 -9,2.71875 -5.0625,1.875 -11.25,5.0625 -6.09375,3.09375 -13.4062501,7.59375 l 1.40625,2.34375 q 6.5625001,-3.46875 11.8125001,-5.90625 5.34375,-2.53125 9.75,-4.21875 4.40625,-1.6875 8.25,-2.625 3.84375,-1.03125 7.59375,-1.5 3.75,-0.5625 7.59375,-0.65625 3.9375,-0.1875 8.4375,-0.1875 8.4375,0 16.40625,1.21875 8.0625,1.125 15.75,3.09375 7.781248,1.96875 15.374998,4.5 7.6875,2.53125 15.46875,5.25 z m -105.656248,-0.84375 -4.59375,2.25 q -2.34375,1.125 -4.6875001,2.34375 l 9.2812501,16.3125 z M -9.7363281,124.71039 q 0.09375,1.5 0.46875,2.90625 0.28125,1.3125 0.75,2.71875 0.46875,1.3125 1.3125,2.625 0.75,1.3125 1.6875,2.25 1.03125,0.84375 1.875,1.40625 1.03125,0.65625 1.875,1.125 0,-1.03125 -0.28125,-2.15625 -0.1875,-1.03125 -0.5625,-2.15625 -0.375,-1.21875 -1.125,-2.53125 -0.75,-1.3125 -1.78125,-2.4375 -1.03125,-1.125 -1.96875,-1.96875 -1.125,-1.03125 -2.25,-1.78125 z m 14.53125,26.0625 -9.65625,6.46875 1.21875,2.15625 9.84375,-6 z"
         id="path4190"
         inkscape:connector-curvature="0" />
    </g>
  </g>
</svg>
