<?xml version="1.0" encoding="UTF-8" standalone="no"?>
<!-- Created with Inkscape (http://www.inkscape.org/) -->

<svg
   xmlns:dc="http://purl.org/dc/elements/1.1/"
   xmlns:cc="http://creativecommons.org/ns#"
   xmlns:rdf="http://www.w3.org/1999/02/22-rdf-syntax-ns#"
   xmlns:svg="http://www.w3.org/2000/svg"
   xmlns="http://www.w3.org/2000/svg"
   xmlns:sodipodi="http://sodipodi.sourceforge.net/DTD/sodipodi-0.dtd"
   xmlns:inkscape="http://www.inkscape.org/namespaces/inkscape"
   width="38.050392mm"
   height="25.201563mm"
   viewBox="0 0 38.050392 25.201563"
   version="1.1"
   id="svg4761"
   inkscape:version="0.92.4 (5da689c313, 2019-01-14)"
   sodipodi:docname="P2.svg">
  <defs
     id="defs4755" />
  <sodipodi:namedview
     id="base"
     pagecolor="#ffffff"
     bordercolor="#666666"
     borderopacity="1.0"
     inkscape:pageopacity="0.0"
     inkscape:pageshadow="2"
     inkscape:zoom="0.35"
     inkscape:cx="-323.25977"
     inkscape:cy="-374.76047"
     inkscape:document-units="mm"
     inkscape:current-layer="layer1"
     showgrid="false"
     fit-margin-top="0"
     fit-margin-left="0"
     fit-margin-right="0"
     fit-margin-bottom="0"
     inkscape:window-width="1920"
     inkscape:window-height="1017"
     inkscape:window-x="-8"
     inkscape:window-y="-8"
     inkscape:window-maximized="1" />
  <metadata
     id="metadata4758">
    <rdf:RDF>
      <cc:Work
         rdf:about="">
        <dc:format>image/svg+xml</dc:format>
        <dc:type
           rdf:resource="http://purl.org/dc/dcmitype/StillImage" />
        <dc:title></dc:title>
      </cc:Work>
    </rdf:RDF>
  </metadata>
  <g
     inkscape:label="Layer 1"
     inkscape:groupmode="layer"
     id="layer1"
     transform="translate(1.7833537,-24.476397)">
    <g
       aria-label="ð“Š"
       transform="scale(0.26458333)"
       style="font-style:normal;font-variant:normal;font-weight:normal;font-stretch:normal;font-size:192px;line-height:1.25;font-family:sans-serif;-inkscape-font-specification:'sans-serif, Normal';font-variant-ligatures:normal;font-variant-caps:normal;font-variant-numeric:normal;font-feature-settings:normal;text-align:start;letter-spacing:0px;word-spacing:0px;writing-mode:lr-tb;text-anchor:start;fill:#000000;fill-opacity:1;stroke:none"
       id="flowRoot5306">
      <path
         d="m 86.447266,101.04047 q 9.09375,0.375 17.906254,0.65625 8.90625,0.28125 17.8125,1.40625 v 2.8125 l -10.125,-0.75 q 1.40625,4.3125 2.4375,9.1875 1.125,4.78125 1.125,9.28125 0,3.28125 -0.9375,7.5 -0.9375,4.125 -2.25,7.40625 l 9.75,-4.03125 v 3.375 q -4.40625,1.78125 -7.6875,3 -3.1875,1.21875 -5.90625,2.0625 -2.71875,0.75 -5.0625,1.21875 -2.34375,0.46875 -4.875004,0.65625 -2.53125,0.1875 -5.4375,0.28125 -2.90625,0 -6.75,0 v 19.875 q 13.687504,-0.65625 23.718754,-4.125 10.03125,-3.5625 18.09375,-10.21875 0,-0.46875 1.125,-7.6875 1.3125,-7.21875 5.625,-9.46875 l 1.78125,1.40625 v 22.03125 q -1.125,2.34375 -3.1875,4.59375 -2.0625,2.25 -5.34375,4.5 -3.28125,2.25 -7.875,4.6875 -4.5,2.34375 -10.59375,4.96875 h 25.6875 l 1.59375,1.5 v 9.09375 l -1.59375,1.5 H -5.3339844 l -1.40625,-1.78125 v -9.09375 q 0,-6.28125 1.78125,-10.875 1.875,-4.59375 4.78125003,-8.15625 2.81249997,-3.46875 7.78124997,-7.125 1.21875,-0.84375 2.4375004,-1.6875 1.21875,-0.84375 2.15625,-1.40625 1.03125,-0.65625 1.59375,-0.9375 0.5625,-0.375 0.5625,-0.28125 -0.1875,0.28125 0.84375,-1.125 1.125,-1.5 2.90625,-4.03125 1.78125,-2.53125 4.03125,-5.8125 2.34375,-3.375 4.78125,-6.9375 5.71875,-8.25 13.03125,-18.9375 0.65625,-0.65625 1.6875,-0.65625 0.46875,0 0.75,0.1875 0.28125,0.0937 0.75,0.375 0.1875,0.46875 0.28125,0.5625 0.09375,0.0937 0.28125,0.46875 -0.1875,0.375 -0.75,1.3125 -0.46875,0.84375 -1.125,1.875 -0.75,1.125 -1.59375,2.53125 v 12.09375 l 2.71875,-0.46875 q 4.78125,5.53125 4.78125,13.03125 l -2.0625,1.40625 q -1.5,-0.375 -2.8125,-0.5625 -1.3125,-0.28125 -2.625,-0.46875 v 20.0625 q 7.59375,2.53125 16.3125,3.1875 8.71875,0.5625 17.25,0.5625 h 9.65625 v -20.15625 q -4.3125,-0.1875 -8.4375,-0.75 -4.125,-0.5625 -8.15625,-1.40625 l -16.3125,-3.375 0.09375,-2.625 6,1.21875 q 1.3125,-1.6875 2.4375,-4.03125 1.21875,-2.34375 2.0625,-4.96875 0.84375,-2.625 1.3125,-5.34375 0.5625,-2.71875 0.5625,-5.25 0,-3.46875 -0.9375,-7.125 -0.9375,-3.65625 -2.34375,-6.375 l -9.09375,1.21875 v -3 q 2.4375,-0.375 5.25,-0.75 2.8125,-0.375 5.53125,-0.65625 2.71875,-0.28125 5.0625,-0.46875 2.4375,-0.1875 4.03125,-0.1875 h 12.9375 v -8.531252 h 3 z m 0,41.0625 h 4.6875 q 5.0625,0 9.281254,-0.46875 4.21875,-0.5625 7.96875,-1.78125 2.53125,-5.34375 3.375,-9.375 0.9375,-4.03125 0.9375,-7.59375 -0.0937,-3 -0.46875,-6.09375 -0.375,-2.625 -1.21875,-5.71875 -0.84375,-3.09375 -2.34375,-5.90625 -2.71875,-0.28125 -6.46875,-0.375 -3.750004,-0.1875 -7.312504,-0.375 -4.125,-0.1875 -8.4375,-0.28125 z M -3.7402344,184.75922 H 134.07227 v -6.09375 H -3.7402344 Z m 76.5937504,-16.6875 q -25.5,0 -36.9375,-5.15625 -11.4375,-5.0625 -12.1875,-15.375 0,-1.5 0.65625,-2.90625 0.65625,-1.40625 3.28125,-4.03125 -2.90625,1.21875 -4.21875,3.09375 -1.21875,1.78125 -1.21875,4.21875 0,2.625 0.75,5.34375 0.75,2.625 2.90625,5.4375 2.0625,2.71875 5.8125,5.0625 3.75,2.25 8.625,4.125 4.3125,1.59375 6.65625,2.625 2.34375,0.9375 4.125,1.78125 1.78125,0.75 3.5625,1.5 1.875,0.75 5.15625,1.875 h 42.562504 q 0.1875,-0.0937 3.5625,-1.59375 3.375,-1.5 10.03125,-4.40625 13.21875,-5.90625 18.09375,-14.15625 v -17.15625 q -0.75,1.59375 -1.125,3.28125 -0.375,1.6875 -0.5625,3.375 l -0.46875,3.46875 q -0.375,3.1875 -2.0625,5.15625 -0.75,0.84375 -3.09375,2.34375 -2.34375,1.5 -7.59375,4.40625 -7.5,4.21875 -16.3125,6 -8.718754,1.6875 -19.500004,1.6875 z m 10.59375,-26.15625 v -37.875 h -6.75 q -3.9375,0 -7.03125,0.1875 -3,0.0937 -6.84375,0.46875 1.40625,3.09375 2.25,6.5625 0.9375,3.375 0.9375,7.3125 0,5.625 -1.59375,10.78125 -1.5,5.0625 -4.5,9.1875 5.8125,1.40625 11.4375,2.4375 5.71875,0.9375 12.09375,0.9375 z m -64.125,4.96875 0.75,-3.65625 -3.46875,5.15625 q -1.3125,9.65625 -5.25,16.40625 -3.8437504,6.65625 -10.68750038,10.875 H 52.416016 q -2.25,-0.75 -4.6875,-1.6875 -2.15625,-0.75 -4.78125,-1.78125 -2.53125,-1.03125 -5.25,-2.15625 -10.59375,-4.3125 -14.4375,-10.40625 -3.75,-6 -3.9375,-12.75 z m 17.90625,13.3125 v -19.21875 q -0.65625,0 -1.6875,0 -0.9375,0 -3.5625,-0.0937 -0.1875,0.1875 -0.9375,0.84375 -0.65625,0.5625 -1.875,1.59375 -2.34375,1.96875 -2.34375,4.5 0,4.03125 2.8125,7.3125 2.8125,3.1875 7.59375,5.0625 z m -40.7812504,14.53125 q 6.5625,-3.46875 10.40625,-8.4375 3.8437504,-4.96875 6.3750004,-15.65625 -1.40625,0.9375 -2.15625,1.3125 -0.65625,0.375 -1.3125004,0.84375 -0.65625,0.46875 -1.6875,1.3125 -1.03125,0.84375 -3.28125,2.71875 -4.21874998,3.5625 -6.09375,8.15625 -1.78125,4.59375 -2.25,9.75 z m 25.7812504,-34.3125 q 2.4375,-2.0625 4.3125,-2.71875 1.96875,-0.65625 3.75,-1.21875 1.59375,-0.46875 6.9375,-4.875 v -11.15625 q -2.625,3.46875 -4.96875,6.65625 -2.34375,3.09375 -4.3125,5.71875 -1.96875,2.53125 -3.46875,4.5 -1.40625,1.96875 -2.25,3.09375 z m 11.625,-2.53125 q 5.25,0 10.78125,1.125 -0.28125,-4.3125 -2.90625,-7.875 -1.78125,1.96875 -3.75,3.65625 -1.96875,1.59375 -4.125,3.09375 z"
         id="path5314"
         inkscape:connector-curvature="0" />
    </g>
  </g>
</svg>
