<?xml version="1.0" encoding="UTF-8" standalone="no"?>
<!-- Created with Inkscape (http://www.inkscape.org/) -->

<svg
   xmlns:dc="http://purl.org/dc/elements/1.1/"
   xmlns:cc="http://creativecommons.org/ns#"
   xmlns:rdf="http://www.w3.org/1999/02/22-rdf-syntax-ns#"
   xmlns:svg="http://www.w3.org/2000/svg"
   xmlns="http://www.w3.org/2000/svg"
   xmlns:sodipodi="http://sodipodi.sourceforge.net/DTD/sodipodi-0.dtd"
   xmlns:inkscape="http://www.inkscape.org/namespaces/inkscape"
   width="37.926365mm"
   height="23.986134mm"
   viewBox="0 0 37.926365 23.986134"
   version="1.1"
   id="svg5323"
   inkscape:version="0.92.4 (5da689c313, 2019-01-14)"
   sodipodi:docname="P3.svg">
  <defs
     id="defs5317" />
  <sodipodi:namedview
     id="base"
     pagecolor="#ffffff"
     bordercolor="#666666"
     borderopacity="1.0"
     inkscape:pageopacity="0.0"
     inkscape:pageshadow="2"
     inkscape:zoom="0.35"
     inkscape:cx="-354.6875"
     inkscape:cy="-389.04758"
     inkscape:document-units="mm"
     inkscape:current-layer="layer1"
     showgrid="false"
     fit-margin-top="0"
     fit-margin-left="0"
     fit-margin-right="0"
     fit-margin-bottom="0"
     inkscape:window-width="1920"
     inkscape:window-height="1017"
     inkscape:window-x="-8"
     inkscape:window-y="-8"
     inkscape:window-maximized="1" />
  <metadata
     id="metadata5320">
    <rdf:RDF>
      <cc:Work
         rdf:about="">
        <dc:format>image/svg+xml</dc:format>
        <dc:type
           rdf:resource="http://purl.org/dc/dcmitype/StillImage" />
        <dc:title></dc:title>
      </cc:Work>
    </rdf:RDF>
  </metadata>
  <g
     inkscape:label="Layer 1"
     inkscape:groupmode="layer"
     id="layer1"
     transform="translate(-6.531901,-21.911695)">
    <g
       aria-label="𓊞"
       transform="scale(0.26458333)"
       style="font-style:normal;font-variant:normal;font-weight:normal;font-stretch:normal;font-size:192px;line-height:1.25;font-family:sans-serif;-inkscape-font-specification:'sans-serif, Normal';font-variant-ligatures:normal;font-variant-caps:normal;font-variant-numeric:normal;font-feature-settings:normal;text-align:start;letter-spacing:0px;word-spacing:0px;writing-mode:lr-tb;text-anchor:start;fill:#000000;fill-opacity:1;stroke:none"
       id="flowRoot5868">
      <path
         d="m 106.25,114.50336 v 25.5 q 5.8125,-1.03125 10.78125,-2.53125 v -30.375 l -4.6875,-7.687502 1.96875,-2.53125 2.71875,4.593752 v -5.062502 h 3 v 9.187502 L 134.75,129.12836 q 3,-1.875 5.71875,-3.9375 2.71875,-2.0625 5.4375,-4.3125 -5.4375,-2.90625 -10.40625,-6.1875 -4.875,-3.375 -9,-8.15625 l -0.28125,-1.875 q 0.75,-1.96875 1.03125,-3.75 0.28125,-1.781252 0.28125,-3.656252 0,-3 -0.84375,-6 -0.75,-3 -2.0625,-6.1875 l 1.21875,-2.25 q 3.1875,0 6.28125,0.28125 3.1875,0.28125 6.28125,1.3125 l 1.03125,1.875 q -1.6875,4.40625 -1.6875,8.0625 0,8.718752 8.4375,14.250002 8.53125,5.4375 20.53125,5.90625 l 1.3125,2.4375 q -5.90625,6.84375 -11.53125,12.1875 -5.53125,5.34375 -11.71875,9.75 3,3.46875 8.0625,9 5.0625,5.4375 5.0625,9.375 0,1.6875 -0.9375,3.375 -0.84375,1.6875 -2.90625,3.46875 l -0.9375,0.28125 q -4.6875,-1.03125 -7.96875,-4.3125 -3.28125,-3.28125 -4.96875,-7.6875 -1.6875,-4.40625 -3.09375,-8.625 -5.4375,3.09375 -11.15625,5.53125 -5.625,2.4375 -5.90625,2.4375 v 3.65625 h 11.90625 l 1.59375,1.5 v 15.09375 l -1.59375,1.5 H 45.78125 L 44.375,171.69086 v -14.53125 l 1.40625,-1.78125 h 13.3125 L 53.75,153.03461 q -7.59375,-3.28125 -14.8125,-7.21875 -7.21875,-4.03125 -13.78125,-9 L 24.6875,135.40961 V 90.597108 l 2.34375,-1.5 q 7.3125,4.96875 8.90625,18.562502 1.59375,13.5 2.25,19.59375 7.21875,5.25 13.96875,8.25 6.75,2.90625 16.40625,4.6875 v -30.46875 q 0,-4.96875 3.09375,-7.6875 3.1875,-2.718752 8.25,-2.718752 6.65625,0 16.5,4.687502 9.84375,4.59375 9.84375,10.5 z m 43.21875,7.3125 q -16.3125,14.0625 -31.03125,18.46875 -14.71875,4.3125 -33.5625,4.3125 Q 71.1875,144.31586 59.65625,141.31586 48.21875,138.22211 35.75,129.22211 l -0.46875,-0.84375 q -0.375,-3.75 -0.84375,-7.5 l -0.9375,-7.40625 -0.5625,-5.25 q -0.46875,-4.40625 -1.78125,-8.250002 -1.21875,-3.84375 -3.46875,-6.5625 v 41.531252 q 10.6875,7.96875 24.28125,14.25 13.6875,6.1875 18,6.1875 h 12.5625 q 5.53125,-0.46875 13.5,-0.65625 7.96875,-0.28125 16.3125,-3.28125 8.4375,-3.09375 14.53125,-5.8125 6.09375,-2.71875 12.1875,-6.46875 6.1875,-3.84375 12.28125,-9.09375 6.1875,-5.34375 12.375,-12.65625 -10.3125,-0.46875 -19.78125,-6.75 -9.375,-6.28125 -9.375,-15.843752 0,-1.875 0.46875,-4.03125 0.46875,-2.15625 1.03125,-3.9375 -1.875,-0.5625 -3.9375,-0.75 -1.96875,-0.1875 -3.9375,-0.28125 1.03125,3.09375 1.6875,6 0.65625,2.8125 0.65625,5.71875 0,1.875 -0.28125,3.750002 -0.28125,1.875 -1.03125,3.84375 4.21875,4.78125 9.375,8.0625 5.25,3.28125 10.875,6.1875 z M 77,141.22211 q 2.4375,0.1875 4.875,0.28125 2.53125,0.0937 5.0625,0.0937 4.03125,0 8.0625,-0.28125 4.03125,-0.28125 8.25,-0.84375 v -25.6875 q 0,-4.40625 -8.15625,-8.34375 -8.15625,-4.03125 -14.25,-4.03125 -4.59375,0 -6.9375,1.6875 -2.34375,1.6875 -2.34375,5.90625 v 30.46875 z m -29.625,17.15625 v 12.09375 h 83.15625 v -12.09375 z m 75.46875,-22.96875 q 2.4375,-1.03125 4.78125,-2.15625 2.34375,-1.21875 4.59375,-2.53125 l -12.1875,-19.125 v 24.9375 z m 19.5,5.34375 q -0.65625,0.46875 -1.3125,0.84375 -0.5625,0.28125 -1.21875,0.75 l 1.875,5.53125 q 1.6875,5.4375 4.40625,9 2.71875,3.46875 6.75,4.40625 1.96875,-1.6875 1.96875,-3.9375 0,-3.28125 -4.03125,-7.40625 -3.9375,-4.21875 -4.3125,-4.59375 z m -25.3125,12.1875 -7.125,2.4375 h 7.125 z"
         id="path5876"
         inkscape:connector-curvature="0" />
    </g>
  </g>
</svg>
