<?xml version="1.0" encoding="UTF-8" standalone="no"?>
<!-- Created with Inkscape (http://www.inkscape.org/) -->

<svg
   xmlns:dc="http://purl.org/dc/elements/1.1/"
   xmlns:cc="http://creativecommons.org/ns#"
   xmlns:rdf="http://www.w3.org/1999/02/22-rdf-syntax-ns#"
   xmlns:svg="http://www.w3.org/2000/svg"
   xmlns="http://www.w3.org/2000/svg"
   xmlns:sodipodi="http://sodipodi.sourceforge.net/DTD/sodipodi-0.dtd"
   xmlns:inkscape="http://www.inkscape.org/namespaces/inkscape"
   width="38.025585mm"
   height="18.801952mm"
   viewBox="0 0 38.025585 18.801952"
   version="1.1"
   id="svg5885"
   inkscape:version="0.92.4 (5da689c313, 2019-01-14)"
   sodipodi:docname="P4.svg">
  <defs
     id="defs5879" />
  <sodipodi:namedview
     id="base"
     pagecolor="#ffffff"
     bordercolor="#666666"
     borderopacity="1.0"
     inkscape:pageopacity="0.0"
     inkscape:pageshadow="2"
     inkscape:zoom="0.35"
     inkscape:cx="-343.25977"
     inkscape:cy="-386.19016"
     inkscape:document-units="mm"
     inkscape:current-layer="layer1"
     showgrid="false"
     fit-margin-top="0"
     fit-margin-left="0"
     fit-margin-right="0"
     fit-margin-bottom="0"
     inkscape:window-width="1920"
     inkscape:window-height="1017"
     inkscape:window-x="-8"
     inkscape:window-y="-8"
     inkscape:window-maximized="1" />
  <metadata
     id="metadata5882">
    <rdf:RDF>
      <cc:Work
         rdf:about="">
        <dc:format>image/svg+xml</dc:format>
        <dc:type
           rdf:resource="http://purl.org/dc/dcmitype/StillImage" />
        <dc:title></dc:title>
      </cc:Work>
    </rdf:RDF>
  </metadata>
  <g
     inkscape:label="Layer 1"
     inkscape:groupmode="layer"
     id="layer1"
     transform="translate(-3.508313,-27.851901)">
    <g
       aria-label="𓊠"
       transform="scale(0.26458333)"
       style="font-style:normal;font-variant:normal;font-weight:normal;font-stretch:normal;font-size:192px;line-height:1.25;font-family:sans-serif;-inkscape-font-specification:'sans-serif, Normal';font-variant-ligatures:normal;font-variant-caps:normal;font-variant-numeric:normal;font-feature-settings:normal;text-align:start;letter-spacing:0px;word-spacing:0px;writing-mode:lr-tb;text-anchor:start;fill:#000000;fill-opacity:1;stroke:none"
       id="flowRoot6430">
      <path
         d="m 126.79102,112.57953 1.5,-6.09375 1.40625,-1.21875 q 12,0 19.59375,5.4375 7.6875,5.4375 7.6875,14.90625 v 0.84375 q -0.28125,6.84375 -2.53125,10.78125 -2.25,3.84375 -5.34375,7.21875 -3,3.375 -11.71875,7.5 -8.71875,4.03125 -18.5625,6.28125 h 22.96875 l 1.59375,1.5 v 15.09375 l -1.59375,1.5 H 28.353516 l -1.40625,-1.78125 v -14.53125 l 1.40625,-1.78125 h 25.03125 q -20.4375,-4.3125 -30.28125,-12.65625 -9.84375,-8.4375 -9.84375,-19.5 0,-6.28125 3.375,-11.15625 3.375,-4.96875 8.34375,-7.03125 5.0625,-2.15625 16.96875,-2.625 l 1.59375,1.5 v 6.09375 l -1.125,1.5 q -6.75,1.875 -10.3125,4.6875 -3.5625,2.8125 -3.5625,6.28125 0,2.34375 1.59375,4.875 7.78125,-6.84375 18.5625,-10.21875 10.875,-3.46875 22.03125,-4.40625 l 15.09375,-1.21875 14.531254,1.3125 q 11.625,1.21875 21.9375,4.6875 10.40625,3.375 17.71875,9.84375 1.5,-2.625 1.5,-4.875 0,-3.46875 -3.46875,-6.1875 -3.46875,-2.71875 -10.3125,-4.875 z m 13.125,21.9375 q -1.875,1.21875 -3.75,2.25 l -3.9375,2.0625 -5.34375,2.15625 q -9.28125,3.28125 -19.6875,4.40625 -10.406254,1.125 -22.125004,1.125 -28.78125,-0.28125 -42.1875,-5.625 -13.40625,-5.34375 -15.28125,-9.09375 -1.875,-3.84375 -1.875,-6.5625 0,-4.3125 3.09375,-7.5 3.1875,-3.1875 11.71875,-6 v -3.46875 q -13.5,0.5625 -18.84375,5.25 -5.34375,4.6875 -5.34375,12.84375 0,13.875 16.875,22.125 16.875,8.25 43.875,9.75 h 17.71875 q 27.750004,-1.59375 43.500004,-10.03125 15.84375,-8.4375 15.84375,-22.03125 0,-7.96875 -6.65625,-12.9375 -6.5625,-4.96875 -16.59375,-4.96875 l -0.84375,3.5625 q 6.46875,1.875 10.5,5.53125 4.03125,3.65625 4.03125,8.0625 0,1.875 -0.75,3.84375 -0.75,1.96875 -2.34375,4.125 z m -54.093754,-17.15625 -14.34375,1.125 q -10.78125,0.84375 -21.65625,4.125 -10.78125,3.1875 -17.53125,9.65625 7.875,5.15625 19.6875,8.25 11.90625,3 33.09375,3 21.093754,0 32.812504,-2.90625 11.71875,-3 19.96875,-8.34375 -6.46875,-6.09375 -16.21875,-9.28125 -9.75,-3.28125 -22.312504,-4.40625 z m 54.562504,55.96875 V 161.23578 H 29.947266 v 12.09375 z"
         id="path6438"
         inkscape:connector-curvature="0" />
    </g>
  </g>
</svg>
