<?xml version="1.0" encoding="UTF-8" standalone="no"?>
<!-- Created with Inkscape (http://www.inkscape.org/) -->

<svg
   xmlns:dc="http://purl.org/dc/elements/1.1/"
   xmlns:cc="http://creativecommons.org/ns#"
   xmlns:rdf="http://www.w3.org/1999/02/22-rdf-syntax-ns#"
   xmlns:svg="http://www.w3.org/2000/svg"
   xmlns="http://www.w3.org/2000/svg"
   xmlns:sodipodi="http://sodipodi.sourceforge.net/DTD/sodipodi-0.dtd"
   xmlns:inkscape="http://www.inkscape.org/namespaces/inkscape"
   width="37.281445mm"
   height="37.256641mm"
   viewBox="0 0 37.281445 37.256641"
   version="1.1"
   id="svg6447"
   inkscape:version="0.92.4 (5da689c313, 2019-01-14)"
   sodipodi:docname="P5.svg">
  <defs
     id="defs6441" />
  <sodipodi:namedview
     id="base"
     pagecolor="#ffffff"
     bordercolor="#666666"
     borderopacity="1.0"
     inkscape:pageopacity="0.0"
     inkscape:pageshadow="2"
     inkscape:zoom="0.35"
     inkscape:cx="-337.54492"
     inkscape:cy="-376.26047"
     inkscape:document-units="mm"
     inkscape:current-layer="layer1"
     showgrid="false"
     fit-margin-top="0"
     fit-margin-left="0"
     fit-margin-right="0"
     fit-margin-bottom="0"
     inkscape:window-width="1920"
     inkscape:window-height="1017"
     inkscape:window-x="-8"
     inkscape:window-y="-8"
     inkscape:window-maximized="1" />
  <metadata
     id="metadata6444">
    <rdf:RDF>
      <cc:Work
         rdf:about="">
        <dc:format>image/svg+xml</dc:format>
        <dc:type
           rdf:resource="http://purl.org/dc/dcmitype/StillImage" />
        <dc:title></dc:title>
      </cc:Work>
    </rdf:RDF>
  </metadata>
  <g
     inkscape:label="Layer 1"
     inkscape:groupmode="layer"
     id="layer1"
     transform="translate(-1.9962606,-12.024444)">
    <g
       aria-label="𓊡"
       transform="scale(0.26458333)"
       style="font-style:normal;font-variant:normal;font-weight:normal;font-stretch:normal;font-size:192px;line-height:1.25;font-family:sans-serif;-inkscape-font-specification:'sans-serif, Normal';font-variant-ligatures:normal;font-variant-caps:normal;font-variant-numeric:normal;font-feature-settings:normal;text-align:start;letter-spacing:0px;word-spacing:0px;writing-mode:lr-tb;text-anchor:start;fill:#000000;fill-opacity:1;stroke:none"
       id="flowRoot6992">
      <path
         d="m 93.513672,60.071718 q 12.656248,0.1875 26.249998,1.5 13.59375,1.21875 28.6875,2.0625 v 4.59375 l -22.40625,-1.78125 q 1.6875,3.5625 3.09375,7.125 1.125,3 2.0625,6.46875 1.03125,3.46875 1.03125,6.1875 0,2.53125 -0.46875,5.4375 -0.375,2.90625 -1.21875,5.8125 -0.84375,2.812502 -2.15625,5.437502 -1.21875,2.625 -2.8125,4.59375 l 22.875,-6.09375 v 4.59375 q -6.46875,1.5 -12.84375,3.1875 -6.28125,1.59375 -12.65625,3 -6.28125,1.40625 -12.75,2.53125 -6.375,1.125 -12.937498,1.6875 l 0.75,11.25 -17.53125,16.03125 v 42.5625 h -4.6875 v -42.5625 l -18,-16.03125 0.84375,-11.71875 q -3.28125,-0.28125 -7.21875,-0.65625 -3.84375,-0.46875 -8.0625,-1.03125 -4.21875,-0.5625 -8.53125,-1.125 -4.3125,-0.65625 -8.25,-1.21875 -9.28125,-1.40625 -19.0312501,-2.90625 v -4.5 l 13.1250001,1.875 q 2.71875,-1.96875 4.875,-4.59375 2.15625,-2.625002 3.65625,-5.625002 1.59375,-3 2.34375,-6.09375 0.84375,-3.1875 0.84375,-6 0,-4.125 -1.78125,-8.90625 -1.6875,-4.78125 -5.0625,-8.34375 l -18.0000001,1.40625 v -4.59375 q 10.6875001,-0.9375 20.9062501,-1.6875 4.3125,-0.28125 9,-0.5625 4.6875,-0.375 9.1875,-0.65625 4.5,-0.28125 8.625,-0.46875 4.21875,-0.1875 7.59375,-0.28125 l 1.03125,-14.53125 h 4.21875 l -1.125,14.4375 h 10.875 q 3.1875,0 5.8125,0 2.625,0 5.8125,0.09375 l -0.75,-14.53125 h 3.84375 z m 26.249998,49.125002 q 5.34375,-6.09375 7.3125,-11.906252 1.96875,-5.8125 1.96875,-10.96875 0,-3 -1.21875,-6.65625 -1.21875,-3.75 -2.71875,-7.03125 -1.6875,-3.75 -3.84375,-7.59375 -6,-0.5625 -13.03125,-1.03125 -6,-0.46875 -13.781248,-0.75 -7.78125,-0.375 -16.40625,-0.375 -12.46875,0 -21.75,0.375 -9.1875,0.28125 -15.46875,0.75 -7.3125,0.46875 -12.46875,1.125 3.28125,4.21875 5.25,9.5625 1.96875,5.25 1.96875,10.3125 0,13.125 -12,22.968752 3.1875,0.84375 7.96875,1.59375 4.875,0.75 10.40625,1.5 5.53125,0.65625 11.34375,1.21875 5.90625,0.46875 11.15625,0.9375 5.34375,0.375 9.5625,0.5625 4.3125,0.1875 6.75,0.1875 5.0625,0 10.5,-0.375 5.53125,-0.375 10.687498,-0.9375 5.25,-0.65625 9.84375,-1.5 4.59375,-0.9375 7.96875,-1.96875 z m -57.374998,12 -0.375,4.40625 16.3125,13.96875 14.90625,-13.78125 -0.28125,-4.59375 z m 18,-4.21875 q -6.375,0 -10.40625,-0.1875 -4.03125,-0.1875 -7.21875,-0.46875 l -0.1875,2.53125 h 30.1875 l -0.09375,-2.0625 z"
         id="path7000"
         inkscape:connector-curvature="0" />
    </g>
  </g>
</svg>
