<?xml version="1.0" encoding="UTF-8" standalone="no"?>
<!-- Created with Inkscape (http://www.inkscape.org/) -->

<svg
   xmlns:dc="http://purl.org/dc/elements/1.1/"
   xmlns:cc="http://creativecommons.org/ns#"
   xmlns:rdf="http://www.w3.org/1999/02/22-rdf-syntax-ns#"
   xmlns:svg="http://www.w3.org/2000/svg"
   xmlns="http://www.w3.org/2000/svg"
   xmlns:sodipodi="http://sodipodi.sourceforge.net/DTD/sodipodi-0.dtd"
   xmlns:inkscape="http://www.inkscape.org/namespaces/inkscape"
   width="36.983791mm"
   height="37.256641mm"
   viewBox="0 0 36.983791 37.256641"
   version="1.1"
   id="svg832"
   inkscape:version="0.92.4 (5da689c313, 2019-01-14)"
   sodipodi:docname="P6A.svg">
  <defs
     id="defs826" />
  <sodipodi:namedview
     id="base"
     pagecolor="#ffffff"
     bordercolor="#666666"
     borderopacity="1.0"
     inkscape:pageopacity="0.0"
     inkscape:pageshadow="2"
     inkscape:zoom="0.35"
     inkscape:cx="-348.97266"
     inkscape:cy="-293.40305"
     inkscape:document-units="mm"
     inkscape:current-layer="layer1"
     showgrid="false"
     fit-margin-top="0"
     fit-margin-left="0"
     fit-margin-right="0"
     fit-margin-bottom="0"
     inkscape:window-width="1920"
     inkscape:window-height="1017"
     inkscape:window-x="-8"
     inkscape:window-y="-8"
     inkscape:window-maximized="1" />
  <metadata
     id="metadata829">
    <rdf:RDF>
      <cc:Work
         rdf:about="">
        <dc:format>image/svg+xml</dc:format>
        <dc:type
           rdf:resource="http://purl.org/dc/dcmitype/StillImage" />
        <dc:title></dc:title>
      </cc:Work>
    </rdf:RDF>
  </metadata>
  <g
     inkscape:label="Layer 1"
     inkscape:groupmode="layer"
     id="layer1"
     transform="translate(-5.0198485,-33.947137)">
    <g
       aria-label="𓊣"
       transform="scale(0.26458333)"
       style="font-style:normal;font-variant:normal;font-weight:normal;font-stretch:normal;font-size:192px;line-height:1.25;font-family:sans-serif;-inkscape-font-specification:sans-serif;font-variant-ligatures:normal;font-variant-caps:normal;font-variant-numeric:normal;font-feature-settings:normal;text-align:start;letter-spacing:0px;word-spacing:0px;writing-mode:lr-tb;text-anchor:start;fill:#000000;fill-opacity:1;stroke:none"
       id="flowRoot1377">
      <path
         d="m 113.56641,128.30414 5.4375,82.21875 -14.25,13.03125 h 16.875 q 4.875,0 10.125,0.1875 5.34375,0.0937 11.0625,0.46875 v -36.375 h 15.9375 v 43.875 h -57.28125 v 37.40625 h -4.687504 v -37.40625 h -46.875 q -6.65625,2.8125 -14.25,2.8125 -7.5,0 -16.03125,-2.8125 l -0.65625,-1.78125 q 0,-1.875 0.9375,-3 0.9375,-1.21875 2.71875,-1.21875 7.6875,3 21.1875,3 -6.09375,-4.5 -15.09375,-4.5 l -1.125,-0.75 1.125,-0.84375 q 3.1875,-0.5625 5.8125,-0.5625 6.84375,0 15.375,5.15625 0.1875,0 5.625,-0.375 5.4375,-0.375 16.125,-1.125 10.6875,-0.75 16.59375,-1.125 6,-0.375 5.90625,-0.375 l -15.375,-13.6875 6.09375,-82.21875 h 4.21875 l -1.125,14.15625 h 22.500004 l -0.75,-14.15625 z m -30.562504,80.15625 16.3125,13.96875 14.906254,-13.78125 -0.5625,-8.53125 H 83.660156 Z m 0.84375,-10.96875 h 29.718754 l -0.84375,-15.46875 H 84.972656 Z m 2.625,-34.78125 h 25.125004 l -0.9375,-17.53125 H 87.785156 Z m -1.3125,16.59375 h 27.375004 l -0.75,-13.96875 H 86.285156 Z m 70.968754,50.53125 v -39.375 h -10.40625 v 34.5 z"
         id="path1385"
         inkscape:connector-curvature="0" />
    </g>
  </g>
</svg>
