<?xml version="1.0" encoding="UTF-8" standalone="no"?>
<!-- Created with Inkscape (http://www.inkscape.org/) -->

<svg
   xmlns:dc="http://purl.org/dc/elements/1.1/"
   xmlns:cc="http://creativecommons.org/ns#"
   xmlns:rdf="http://www.w3.org/1999/02/22-rdf-syntax-ns#"
   xmlns:svg="http://www.w3.org/2000/svg"
   xmlns="http://www.w3.org/2000/svg"
   xmlns:sodipodi="http://sodipodi.sourceforge.net/DTD/sodipodi-0.dtd"
   xmlns:inkscape="http://www.inkscape.org/namespaces/inkscape"
   width="5.5066404mm"
   height="37.802345mm"
   viewBox="0 0 5.5066404 37.802345"
   version="1.1"
   id="svg1394"
   inkscape:version="0.92.4 (5da689c313, 2019-01-14)"
   sodipodi:docname="P8.svg">
  <defs
     id="defs1388" />
  <sodipodi:namedview
     id="base"
     pagecolor="#ffffff"
     bordercolor="#666666"
     borderopacity="1.0"
     inkscape:pageopacity="0.0"
     inkscape:pageshadow="2"
     inkscape:zoom="0.35"
     inkscape:cx="-368.97266"
     inkscape:cy="-378.36789"
     inkscape:document-units="mm"
     inkscape:current-layer="layer1"
     showgrid="false"
     fit-margin-top="0"
     fit-margin-left="0"
     fit-margin-right="0"
     fit-margin-bottom="0"
     inkscape:window-width="1920"
     inkscape:window-height="1017"
     inkscape:window-x="-8"
     inkscape:window-y="-8"
     inkscape:window-maximized="1" />
  <metadata
     id="metadata1391">
    <rdf:RDF>
      <cc:Work
         rdf:about="">
        <dc:format>image/svg+xml</dc:format>
        <dc:type
           rdf:resource="http://purl.org/dc/dcmitype/StillImage" />
        <dc:title></dc:title>
      </cc:Work>
    </rdf:RDF>
  </metadata>
  <g
     inkscape:label="Layer 1"
     inkscape:groupmode="layer"
     id="layer1"
     transform="translate(-10.311515,-10.921152)">
    <g
       aria-label="𓊤"
       transform="scale(0.26458333)"
       style="font-style:normal;font-variant:normal;font-weight:normal;font-stretch:normal;font-size:192px;line-height:1.25;font-family:sans-serif;-inkscape-font-specification:sans-serif;font-variant-ligatures:normal;font-variant-caps:normal;font-variant-numeric:normal;font-feature-settings:normal;text-align:start;letter-spacing:0px;word-spacing:0px;writing-mode:lr-tb;text-anchor:start;fill:#000000;fill-opacity:1;stroke:none"
       id="flowRoot1939">
      <path
         d="m 48.347656,184.1518 q -3.84375,-6.84375 -6.65625,-14.15625 -2.71875,-7.3125 -2.71875,-15.1875 0,-5.4375 1.78125,-11.71875 1.875,-6.28125 5.90625,-14.4375 l -6.09375,-85.593754 1.40625,-1.78125 h 15.1875 l 1.59375,1.5 -6.09375,85.875004 q 3,5.90625 5.0625,12.75 2.0625,6.75 2.0625,13.59375 0,6.1875 -2.25,12.9375 -2.15625,6.75 -6.46875,15.9375 z m -4.6875,-139.875004 6,83.718754 6,-83.718754 z m -1.59375,110.531254 q 0,6.65625 2.0625,12.9375 2.15625,6.28125 5.4375,12.28125 3,-6.46875 4.96875,-12.65625 2.0625,-6.28125 2.0625,-13.125 0,-8.8125 -3.46875,-17.0625 -3.46875,-8.25 -3.46875,-8.15625 0,0.5625 -0.375,1.5 -0.375,0.84375 -0.84375,1.78125 l -1.03125,1.78125 q -1.40625,2.53125 -3.375,8.90625 -1.96875,6.375 -1.96875,11.8125 z"
         id="path1947"
         inkscape:connector-curvature="0" />
    </g>
  </g>
</svg>
