<?xml version="1.0" encoding="UTF-8" standalone="no"?>
<!-- Created with Inkscape (http://www.inkscape.org/) -->

<svg
   xmlns:dc="http://purl.org/dc/elements/1.1/"
   xmlns:cc="http://creativecommons.org/ns#"
   xmlns:rdf="http://www.w3.org/1999/02/22-rdf-syntax-ns#"
   xmlns:svg="http://www.w3.org/2000/svg"
   xmlns="http://www.w3.org/2000/svg"
   xmlns:sodipodi="http://sodipodi.sourceforge.net/DTD/sodipodi-0.dtd"
   xmlns:inkscape="http://www.inkscape.org/namespaces/inkscape"
   width="37.207031mm"
   height="24.779882mm"
   viewBox="0 0 37.207031 24.779882"
   version="1.1"
   id="svg8129"
   inkscape:version="0.92.4 (5da689c313, 2019-01-14)"
   sodipodi:docname="Q2.svg">
  <defs
     id="defs8123" />
  <sodipodi:namedview
     id="base"
     pagecolor="#ffffff"
     bordercolor="#666666"
     borderopacity="1.0"
     inkscape:pageopacity="0.0"
     inkscape:pageshadow="2"
     inkscape:zoom="0.35"
     inkscape:cx="-331.83008"
     inkscape:cy="-359.11789"
     inkscape:document-units="mm"
     inkscape:current-layer="layer1"
     showgrid="false"
     fit-margin-top="0"
     fit-margin-left="0"
     fit-margin-right="0"
     fit-margin-bottom="0"
     inkscape:window-width="1920"
     inkscape:window-height="1017"
     inkscape:window-x="-8"
     inkscape:window-y="-8"
     inkscape:window-maximized="1" />
  <metadata
     id="metadata8126">
    <rdf:RDF>
      <cc:Work
         rdf:about="">
        <dc:format>image/svg+xml</dc:format>
        <dc:type
           rdf:resource="http://purl.org/dc/dcmitype/StillImage" />
        <dc:title></dc:title>
      </cc:Work>
    </rdf:RDF>
  </metadata>
  <g
     inkscape:label="Layer 1"
     inkscape:groupmode="layer"
     id="layer1"
     transform="translate(-0.48420816,-29.036843)">
    <g
       aria-label="𓊩"
       transform="scale(0.26458333)"
       style="font-style:normal;font-variant:normal;font-weight:normal;font-stretch:normal;font-size:192px;line-height:1.25;font-family:sans-serif;-inkscape-font-specification:'sans-serif, Normal';font-variant-ligatures:normal;font-variant-caps:normal;font-variant-numeric:normal;font-feature-settings:normal;text-align:start;letter-spacing:0px;word-spacing:0px;writing-mode:lr-tb;text-anchor:start;fill:#000000;fill-opacity:1;stroke:none"
       id="flowRoot8674">
      <path
         d="m 19.736328,177.99555 q 0,-4.5 1.78125,-7.6875 1.875,-3.1875 4.875,-5.34375 3.09375,-2.25 7.125,-3.75 4.125,-1.5 8.53125,-2.625 4.5,-1.125 9.09375,-2.0625 4.6875,-0.9375 8.90625,-2.0625 4.3125,-1.21875 7.875,-2.71875 3.5625,-1.5 5.90625,-3.75 1.125,-1.125 2.71875,-2.90625 1.59375,-1.875 3.375,-4.21875 1.78125,-2.34375 3.75,-5.0625 1.96875,-2.71875 3.84375,-5.53125 2.625,-3.9375 5.25,-7.59375 2.625,-3.75 5.53125,-6.5625 3.000002,-2.90625 6.375002,-4.59375 3.375,-1.78125 7.5,-1.78125 4.03125,0 7.78125,2.0625 3.84375,2.0625 6.75,5.34375 3,3.28125 4.78125,7.3125 1.875,3.9375 1.875,7.875 v 33.28125 l -1.59375,1.5 h -12.375 v 19.6875 h 23.0625 v 4.6875 h -23.0625 v 11.90625 h -4.6875 V 191.49555 H 24.423828 v 11.90625 h -4.6875 V 191.49555 H 1.8300781 v -4.6875 H 19.736328 Z m 3,8.8125 H 116.39258 V 165.9018 l 1.40625,-1.78125 h 12.5625 v -31.5 q 0,-3.28125 -1.59375,-6.75 -1.5,-3.5625 -4.125,-6.46875 -2.53125,-3 -5.8125,-4.875 -3.28125,-1.875 -6.65625,-1.875 -3.84375,0 -7.03125,1.875 -3.1875,1.78125 -6.000002,4.78125 -2.8125,2.90625 -5.4375,6.65625 -2.53125,3.75 -4.96875,7.59375 -5.0625,7.6875 -8.71875,12 -3.65625,4.3125 -6.65625,6.46875 -3.75,2.71875 -8.90625,4.3125 -5.15625,1.59375 -10.78125,2.90625 -5.625,1.21875 -11.15625,2.53125 -5.53125,1.21875 -9.9375,3.1875 -4.40625,1.875 -7.125,4.96875 -2.71875,3 -2.71875,7.78125 z"
         id="path8682"
         inkscape:connector-curvature="0" />
    </g>
  </g>
</svg>
