<?xml version="1.0" encoding="UTF-8" standalone="no"?>
<!-- Created with Inkscape (http://www.inkscape.org/) -->

<svg
   xmlns:dc="http://purl.org/dc/elements/1.1/"
   xmlns:cc="http://creativecommons.org/ns#"
   xmlns:rdf="http://www.w3.org/1999/02/22-rdf-syntax-ns#"
   xmlns:svg="http://www.w3.org/2000/svg"
   xmlns="http://www.w3.org/2000/svg"
   xmlns:sodipodi="http://sodipodi.sourceforge.net/DTD/sodipodi-0.dtd"
   xmlns:inkscape="http://www.inkscape.org/namespaces/inkscape"
   width="38.000778mm"
   height="22.770704mm"
   viewBox="0 0 38.000778 22.770704"
   version="1.1"
   id="svg8691"
   inkscape:version="0.92.4 (5da689c313, 2019-01-14)"
   sodipodi:docname="Q4.svg">
  <defs
     id="defs8685" />
  <sodipodi:namedview
     id="base"
     pagecolor="#ffffff"
     bordercolor="#666666"
     borderopacity="1.0"
     inkscape:pageopacity="0.0"
     inkscape:pageshadow="2"
     inkscape:zoom="0.35"
     inkscape:cx="-346.11523"
     inkscape:cy="-389.04758"
     inkscape:document-units="mm"
     inkscape:current-layer="layer1"
     showgrid="false"
     fit-margin-top="0"
     fit-margin-left="0"
     fit-margin-right="0"
     fit-margin-bottom="0"
     inkscape:window-width="1920"
     inkscape:window-height="1017"
     inkscape:window-x="-8"
     inkscape:window-y="-8"
     inkscape:window-maximized="1" />
  <metadata
     id="metadata8688">
    <rdf:RDF>
      <cc:Work
         rdf:about="">
        <dc:format>image/svg+xml</dc:format>
        <dc:type
           rdf:resource="http://purl.org/dc/dcmitype/StillImage" />
        <dc:title></dc:title>
      </cc:Work>
    </rdf:RDF>
  </metadata>
  <g
     inkscape:label="Layer 1"
     inkscape:groupmode="layer"
     id="layer1"
     transform="translate(-4.2638223,-23.127125)">
    <g
       aria-label="𓊫"
       transform="scale(0.26458333)"
       style="font-style:normal;font-variant:normal;font-weight:normal;font-stretch:normal;font-size:192px;line-height:1.25;font-family:sans-serif;-inkscape-font-specification:'sans-serif, Normal';font-variant-ligatures:normal;font-variant-caps:normal;font-variant-numeric:normal;font-feature-settings:normal;text-align:start;letter-spacing:0px;word-spacing:0px;writing-mode:lr-tb;text-anchor:start;fill:#000000;fill-opacity:1;stroke:none"
       id="flowRoot9236">
      <path
         d="m 142.49023,87.409608 1.96875,1.875 -1.5,4.59375 -1.03125,1.03125 q -3.65625,1.40625 -14.34375,5.0625 -10.59375,3.562502 -18.46875,8.437502 -7.78125,4.875 -11.156246,11.4375 -3.375,6.5625 -3.375,12.84375 0,7.03125 3.84375,13.5 3.843746,6.375 10.593746,10.6875 6.84375,4.3125 13.40625,6.1875 6.5625,1.78125 18.1875,1.78125 4.78125,0 9.28125,-0.1875 4.5,-0.28125 8.25,-0.28125 l 1.59375,1.5 v 6.09375 l -1.59375,1.5 H 17.521484 l -1.40625,-1.78125 v -5.53125 l 1.40625,-1.78125 q 3,0 7.3125,0.1875 4.3125,0.1875 9.09375,0.28125 h 2.4375 q 16.59375,0 25.875,-5.0625 9.28125,-5.0625 14.0625,-12.09375 4.875,-7.03125 4.875,-15 0,-9.28125 -6.65625,-17.4375 -6.5625,-8.15625 -23.15625,-14.0625 l -17.71875,-6.375002 -0.9375,-1.125 -1.5,-4.59375 1.875,-1.6875 q 25.875,8.34375 36.46875,10.21875 10.6875,1.875 18.28125,1.875 9.09375,0 19.218746,-2.0625 10.125,-2.0625 20.53125,-5.34375 z M 19.115234,170.47211 H 156.74023 v -3.09375 q -4.78125,0 -9,0.1875 -4.21875,0.1875 -7.59375,0.1875 -18.5625,0 -28.96875,-6.09375 -10.40625,-6.09375 -14.999996,-12.9375 -4.59375,-6.84375 -4.59375,-15.375 0,-11.34375 7.3125,-20.0625 7.406246,-8.8125 23.999996,-14.718752 l 17.4375,-6.28125 0.375,-1.21875 -12.1875,3.75 q -12,3.84375 -22.03125,5.812502 -9.937496,1.875 -18.749996,1.875 -7.3125,0 -18,-1.78125 -10.59375,-1.781252 -34.6875,-9.562502 l 0.375,1.125 18.09375,6.5625 q 15.65625,5.437502 23.15625,14.343752 7.5,8.90625 7.5,19.5 0,13.5 -12.1875,24.1875 -12.09375,10.6875 -33.375,10.875 l -1.6875,0.0937 q -4.125,0 -8.71875,-0.1875 -4.5,-0.28125 -9.09375,-0.28125 z"
         id="path9244"
         inkscape:connector-curvature="0" />
    </g>
  </g>
</svg>
