<?xml version="1.0" encoding="UTF-8" standalone="no"?>
<!-- Created with Inkscape (http://www.inkscape.org/) -->

<svg
   xmlns:dc="http://purl.org/dc/elements/1.1/"
   xmlns:cc="http://creativecommons.org/ns#"
   xmlns:rdf="http://www.w3.org/1999/02/22-rdf-syntax-ns#"
   xmlns:svg="http://www.w3.org/2000/svg"
   xmlns="http://www.w3.org/2000/svg"
   xmlns:sodipodi="http://sodipodi.sourceforge.net/DTD/sodipodi-0.dtd"
   xmlns:inkscape="http://www.inkscape.org/namespaces/inkscape"
   width="16.817579mm"
   height="30.162498mm"
   viewBox="0 0 16.817579 30.162498"
   version="1.1"
   id="svg10369"
   inkscape:version="0.92.4 (5da689c313, 2019-01-14)"
   sodipodi:docname="Q7.svg">
  <defs
     id="defs10363" />
  <sodipodi:namedview
     id="base"
     pagecolor="#ffffff"
     bordercolor="#666666"
     borderopacity="1.0"
     inkscape:pageopacity="0.0"
     inkscape:pageshadow="2"
     inkscape:zoom="0.35"
     inkscape:cx="-326.11607"
     inkscape:cy="-370.11608"
     inkscape:document-units="mm"
     inkscape:current-layer="layer1"
     showgrid="false"
     fit-margin-top="0"
     fit-margin-left="0"
     fit-margin-right="0"
     fit-margin-bottom="0"
     inkscape:window-width="1920"
     inkscape:window-height="1017"
     inkscape:window-x="-8"
     inkscape:window-y="-8"
     inkscape:window-maximized="1" />
  <metadata
     id="metadata10366">
    <rdf:RDF>
      <cc:Work
         rdf:about="">
        <dc:format>image/svg+xml</dc:format>
        <dc:type
           rdf:resource="http://purl.org/dc/dcmitype/StillImage" />
        <dc:title></dc:title>
      </cc:Work>
    </rdf:RDF>
  </metadata>
  <g
     inkscape:label="Layer 1"
     inkscape:groupmode="layer"
     id="layer1"
     transform="translate(1.0276227,-20.744287)">
    <g
       aria-label="𓊮"
       style="font-style:normal;font-variant:normal;font-weight:normal;font-stretch:normal;font-size:50.79999924px;line-height:1.25;font-family:sans-serif;-inkscape-font-specification:'sans-serif, Normal';font-variant-ligatures:normal;font-variant-caps:normal;font-variant-numeric:normal;font-feature-settings:normal;text-align:start;letter-spacing:0px;word-spacing:0px;writing-mode:lr-tb;text-anchor:start;fill:#000000;fill-opacity:1;stroke:none;stroke-width:0.26458332"
       id="text10916">
      <path
         d="m -1.0276227,48.004638 q 0.91777341,-2.331641 1.28984371,-4.588867 0.37207031,-2.257227 0.37207031,-4.588867 0,-0.744141 -0.0496094,-1.785938 Q 0.53507257,35.999169 0.46065851,34.882958 0.41104914,33.741943 0.31183039,32.600927 0.23741633,31.459912 0.16300226,30.492529 0.11339289,29.500341 0.06378352,28.781005 0.01417414,28.061669 0.01417414,27.788818 q 0,-1.909961 0.34726562,-3.249414 0.34726562,-1.339453 0.99218744,-2.182813 0.6449219,-0.843359 1.5626953,-1.215429 0.9177735,-0.396875 2.0835938,-0.396875 1.4634765,0 2.455664,0.570508 0.9921875,0.570507 1.6123046,1.513086 0.6449219,0.917773 0.9425781,2.083593 0.297656,1.165821 0.37207,2.38125 0.04961,0.79375 0.09922,1.984375 0.04961,1.16582 0.124024,2.80293 0.07441,1.637109 0.148828,3.770312 0.09922,2.108399 0.248047,4.7625 0.79375,0.520899 1.091406,1.240235 0.322461,0.719335 0.446484,1.389062 0.347266,-0.09922 0.84336,-0.223242 0.496093,-0.124024 0.942578,-0.248047 0.520898,-0.124023 1.041796,-0.248047 l 0.42168,0.396875 v 3.819922 l -0.42168,0.396875 q -0.545703,-0.124024 -1.066601,-0.248047 -0.446484,-0.124023 -0.942578,-0.223242 -0.496094,-0.124024 -0.84336,-0.248047 -0.09922,0.545703 -0.347265,1.066602 -0.248047,0.496093 -0.595313,0.917773 l 0.967383,1.984375 -0.396875,0.520898 H 7.2571428 L 6.9346818,50.311474 Q 7.0587053,50.113036 7.1827287,49.840185 7.3067522,49.592138 7.4555803,49.244872 7.6292131,48.897607 7.87726,48.401513 7.554799,48.054247 7.3315568,47.458935 7.1083147,46.838818 6.9842912,46.417138 6.6122209,46.541161 6.1161272,46.665185 5.6448381,46.764404 5.1983538,46.888427 4.6774553,47.01245 4.1565569,47.136474 L 3.6604631,46.665185 v -3.671094 l 0.4960938,-0.446484 q 0.6449219,0.173633 1.190625,0.297656 0.471289,0.124023 0.9177734,0.248047 0.4464844,0.09922 0.6449219,0.148828 0.049609,-0.322461 0.1240234,-0.694531 0.099219,-0.372071 0.2728516,-0.744141 0.1736328,-0.37207 0.4464843,-0.694531 0.2728516,-0.347266 0.6945313,-0.620117 l 0.3224609,-6.052344 q 0.099219,-1.637109 0.1984375,-3.274219 0.1240234,-1.637109 0.1240234,-3.522265 0,-1.116211 -0.2976562,-2.158008 -0.2728516,-1.041797 -0.79375,-1.835547 -0.5208984,-0.79375 -1.2898437,-1.265039 -0.7441406,-0.496094 -1.6867188,-0.496094 -0.9425781,0 -1.6867187,0.471289 -0.7193359,0.446485 -1.2154297,1.26504 -0.471289,0.793749 -0.7193359,1.885156 -0.2480469,1.066601 -0.2480469,2.282031 0,0.322461 0.049609,1.066601 0.049609,0.744141 0.1240235,1.761133 0.074414,0.992188 0.1488281,2.158008 0.074414,1.141016 0.1488281,2.282031 0.074414,1.116211 0.1240234,2.133203 0.049609,0.992188 0.049609,1.686719 0,1.438672 -0.099219,2.654102 -0.099219,1.215429 -0.322461,2.356445 -0.2232422,1.141015 -0.57050777,2.306836 -0.34726562,1.16582 -0.86816405,2.480468 z M 9.6135881,32.948193 9.2167131,40.960107 q -0.4960938,0.421679 -0.79375,0.768945 -0.2976563,0.322461 -0.4712891,0.644922 -0.1488281,0.322461 -0.2232422,0.669727 -0.049609,0.32246 -0.049609,0.694531 -0.049609,0.04961 -0.1488282,0.124023 -0.074414,0.07441 -0.2728515,0.272852 Q 6.8850725,44.035888 6.3889787,43.911865 5.9176897,43.787841 5.49601,43.663818 4.9999163,43.539794 4.4542131,43.415771 v 2.827734 Q 4.9999163,46.119482 5.49601,45.995458 5.9176897,45.871435 6.3889787,45.772216 6.8850725,45.648193 7.2571428,45.524169 l 0.396875,0.272852 q 0.099219,0.421679 0.3224609,1.091406 0.2232422,0.644922 0.6945312,1.21543 l 0.049609,0.37207 -0.79375,1.637109 h 3.5966801 l -0.768945,-1.562695 0.07441,-0.496094 q 0.148828,-0.124023 0.322461,-0.396875 0.173632,-0.272851 0.297656,-0.570507 0.124023,-0.322461 0.223242,-0.620118 0.09922,-0.297656 0.09922,-0.471289 0.04961,-0.04961 0.148828,-0.124023 0.09922,-0.09922 0.173633,-0.173633 0.09922,-0.09922 0.173633,-0.148828 l 2.728515,0.694531 v -2.802929 l -2.728515,0.694531 -0.496094,-0.471289 q 0,-0.396875 -0.124024,-0.818555 -0.09922,-0.446484 -0.322461,-0.79375 -0.198437,-0.37207 -0.471289,-0.595312 -0.248046,-0.248047 -0.545703,-0.297657 L 9.9112443,32.948193 Z"
         style="stroke-width:0.26458332"
         id="path10918"
         inkscape:connector-curvature="0" />
    </g>
  </g>
</svg>
