<?xml version="1.0" encoding="UTF-8" standalone="no"?>
<svg
   xmlns:dc="http://purl.org/dc/elements/1.1/"
   xmlns:cc="http://creativecommons.org/ns#"
   xmlns:rdf="http://www.w3.org/1999/02/22-rdf-syntax-ns#"
   xmlns:svg="http://www.w3.org/2000/svg"
   xmlns="http://www.w3.org/2000/svg"
   xmlns:sodipodi="http://sodipodi.sourceforge.net/DTD/sodipodi-0.dtd"
   xmlns:inkscape="http://www.inkscape.org/namespaces/inkscape"
   version="1.0"
   width="69.895805pt"
   height="145.70703pt"
   viewBox="0 0 69.895805 145.70703"
   preserveAspectRatio="xMidYMid meet"
   id="svg8"
   sodipodi:docname="Q8.svg"
   inkscape:version="0.92.4 (5da689c313, 2019-01-14)">
  <defs
     id="defs12" />
  <sodipodi:namedview
     pagecolor="#ffffff"
     bordercolor="#666666"
     borderopacity="1"
     objecttolerance="10"
     gridtolerance="10"
     guidetolerance="10"
     inkscape:pageopacity="0"
     inkscape:pageshadow="2"
     inkscape:window-width="1920"
     inkscape:window-height="1017"
     id="namedview10"
     showgrid="false"
     fit-margin-top="0"
     fit-margin-left="0"
     fit-margin-right="0"
     fit-margin-bottom="0"
     inkscape:zoom="2.7356918"
     inkscape:cx="68.68271"
     inkscape:cy="122.23841"
     inkscape:window-x="-8"
     inkscape:window-y="-8"
     inkscape:window-maximized="1"
     inkscape:current-layer="svg8" />
  <metadata
     id="metadata2">
Created by potrace 1.10, written by Peter Selinger 2001-2011
<rdf:RDF>
  <cc:Work
     rdf:about="">
    <dc:format>image/svg+xml</dc:format>
    <dc:type
       rdf:resource="http://purl.org/dc/dcmitype/StillImage" />
    <dc:title></dc:title>
  </cc:Work>
</rdf:RDF>
</metadata>
  <g
     transform="matrix(0.1,0,0,-0.1,153.27774,166.44204)"
     id="g6"
     style="fill:#000000;stroke:none">
    <path
       d="m 440,1623 c -43,-26 -62,-61 -67,-125 -6,-58 -8,-61 -57,-100 -81,-63 -106,-88 -123,-127 -18,-40 -51,-374 -53,-526 0,-49 -7,-155 -15,-235 -18,-181 -19,-332 -3,-348 9,-9 104,-12 368,-12 349,0 357,0 379,21 16,15 21,28 17,43 -4,11 -11,91 -16,176 -6,85 -15,229 -21,320 -6,91 -15,233 -20,315 -5,83 -15,172 -22,199 -15,54 -81,136 -147,183 -37,26 -40,31 -40,78 0,109 -101,186 -180,138 z m 80,-108 c 6,-8 9,-19 5,-25 -12,-19 7,-99 29,-123 11,-13 37,-34 56,-47 81,-55 96,-78 109,-175 6,-50 16,-171 21,-270 6,-99 12,-186 15,-195 3,-8 9,-105 15,-214 7,-143 6,-203 -2,-213 -8,-10 -70,-13 -284,-13 H 210 l -5,23 c -3,12 1,94 10,182 8,88 15,196 15,240 0,44 7,152 15,240 8,88 15,182 15,208 0,26 7,62 16,80 18,36 112,127 132,127 23,0 52,63 52,112 0,25 3,53 6,62 8,20 38,21 54,1 z"
       id="path4"
       inkscape:connector-curvature="0" />
  </g>
  <path
     style="color:#000000;font-style:normal;font-variant:normal;font-weight:normal;font-stretch:normal;font-size:medium;line-height:normal;font-family:sans-serif;font-variant-ligatures:normal;font-variant-position:normal;font-variant-caps:normal;font-variant-numeric:normal;font-variant-alternates:normal;font-feature-settings:normal;text-indent:0;text-align:start;text-decoration:none;text-decoration-line:none;text-decoration-style:solid;text-decoration-color:#000000;letter-spacing:normal;word-spacing:normal;text-transform:none;writing-mode:lr-tb;direction:ltr;text-orientation:mixed;dominant-baseline:auto;baseline-shift:baseline;text-anchor:start;white-space:normal;shape-padding:0;clip-rule:nonzero;display:inline;overflow:visible;visibility:visible;opacity:1;isolation:auto;mix-blend-mode:normal;color-interpolation:sRGB;color-interpolation-filters:linearRGB;solid-color:#000000;solid-opacity:1;vector-effect:none;fill:#000000;fill-opacity:1;fill-rule:nonzero;stroke:none;stroke-width:5.69999981;stroke-linecap:butt;stroke-linejoin:miter;stroke-miterlimit:4;stroke-dasharray:none;stroke-dashoffset:0;stroke-opacity:1;color-rendering:auto;image-rendering:auto;shape-rendering:auto;text-rendering:auto;enable-background:accumulate"
     d="m 34.947934,0 -0.0723,0.00195 c -3.50894,0.089973 -6.37588,1.9392317 -8.02734,4.3125 -1.65146,2.3732684 -2.36433,5.1407717 -2.73242,7.763672 -0.44703,3.185318 -0.35653,5.818282 -0.20899,7.75 -0.33306,0.122976 -0.58266,0.141875 -0.93554,0.314453 -2.09258,1.023378 -4.72321,2.985367 -7.33789,6.560547 -5.22937,7.15036 -10.5012497,20.64364 -12.4628897,46.929688 -3.88267004,52.02769 -3.10743004,69.35352 -3.10743004,69.35352 l 0.125,2.7207 H 69.707669 l 0.125,-2.7207 c 0,0 0.775243,-17.32584 -3.107422,-69.35352 -1.961646,-26.286049 -7.235473,-39.779328 -12.464843,-46.929688 -2.61468,-3.57518 -5.24336,-5.537169 -7.33594,-6.560547 -0.35288,-0.172578 -0.60248,-0.191477 -0.93555,-0.314453 0.14755,-1.931718 0.23805,-4.564682 -0.20898,-7.75 -0.3681,-2.6229003 -1.08096,-5.3904036 -2.73242,-7.763672 -1.65147,-2.3732683 -4.5184,-4.2225268 -8.02734,-4.3125 z m 0,5.7167969 c 1.77123,0.06492 2.58574,0.6499764 3.42187,1.8515625 0.8507,1.2225139 1.46855,3.1978436 1.76368,5.3007816 0.59025,4.205875 -0.008,8.617187 -0.008,8.617187 l -0.46679,3.253907 h 3.28711 c 0,0 0.2474,-0.07673 1.47461,0.523437 1.2272,0.600166 3.10544,1.885693 5.24023,4.804687 4.26957,5.837989 9.46539,18.320938 11.38086,43.988282 3.51765,47.136499 3.16568,63.022779 3.07812,65.951179 H 5.7758743 c -0.0875,-2.9284 -0.43952,-18.81468 3.07813,-65.951179 1.9154697,-25.667343 7.1112897,-38.150294 11.3808597,-43.988282 2.13479,-2.918993 4.01303,-4.204521 5.24023,-4.804687 1.22721,-0.600166 1.47266,-0.523437 1.47266,-0.523437 h 3.28906 l -0.46679,-3.253907 c 0,0 -0.60002,-4.411312 -0.01,-8.617187 0.29512,-2.102938 0.91492,-4.0782678 1.76562,-5.3007816 0.83615,-1.2016044 1.65059,-1.7866578 3.42188,-1.8515625 z"
     id="path816-5"
     inkscape:connector-curvature="0" />
</svg>
