<?xml version="1.0" encoding="UTF-8" standalone="no"?>
<!-- Created with Inkscape (http://www.inkscape.org/) -->

<svg
   xmlns:dc="http://purl.org/dc/elements/1.1/"
   xmlns:cc="http://creativecommons.org/ns#"
   xmlns:rdf="http://www.w3.org/1999/02/22-rdf-syntax-ns#"
   xmlns:svg="http://www.w3.org/2000/svg"
   xmlns="http://www.w3.org/2000/svg"
   xmlns:sodipodi="http://sodipodi.sourceforge.net/DTD/sodipodi-0.dtd"
   xmlns:inkscape="http://www.inkscape.org/namespaces/inkscape"
   width="38.000782mm"
   height="37.603905mm"
   viewBox="0 0 38.000782 37.603905"
   version="1.1"
   id="svg10927"
   inkscape:version="0.92.4 (5da689c313, 2019-01-14)"
   sodipodi:docname="R1.svg">
  <defs
     id="defs10921" />
  <sodipodi:namedview
     id="base"
     pagecolor="#ffffff"
     bordercolor="#666666"
     borderopacity="1.0"
     inkscape:pageopacity="0.0"
     inkscape:pageshadow="2"
     inkscape:zoom="0.35"
     inkscape:cx="-331.83036"
     inkscape:cy="-372.78572"
     inkscape:document-units="mm"
     inkscape:current-layer="layer1"
     showgrid="false"
     fit-margin-top="0"
     fit-margin-left="0"
     fit-margin-right="0"
     fit-margin-bottom="0"
     inkscape:window-width="1920"
     inkscape:window-height="1017"
     inkscape:window-x="-8"
     inkscape:window-y="-8"
     inkscape:window-maximized="1" />
  <metadata
     id="metadata10924">
    <rdf:RDF>
      <cc:Work
         rdf:about="">
        <dc:format>image/svg+xml</dc:format>
        <dc:type
           rdf:resource="http://purl.org/dc/dcmitype/StillImage" />
        <dc:title></dc:title>
      </cc:Work>
    </rdf:RDF>
  </metadata>
  <g
     inkscape:label="Layer 1"
     inkscape:groupmode="layer"
     id="layer1"
     transform="translate(-0.48428194,-12.596539)">
    <g
       aria-label="𓊯"
       style="font-style:normal;font-variant:normal;font-weight:normal;font-stretch:normal;font-size:50.79999924px;line-height:1.25;font-family:sans-serif;-inkscape-font-specification:'sans-serif, Normal';font-variant-ligatures:normal;font-variant-caps:normal;font-variant-numeric:normal;font-feature-settings:normal;text-align:start;letter-spacing:0px;word-spacing:0px;writing-mode:lr-tb;text-anchor:start;fill:#000000;fill-opacity:1;stroke:none;stroke-width:0.26458332"
       id="text11474">
      <path
         d="m 22.43643,12.596539 v 0.818555 h -1.984375 q -0.173633,0.223242 -0.248047,0.595312 -0.04961,0.372071 -0.04961,0.570508 0,0.496094 0.173633,0.942578 1.934765,1.16582 2.430859,3.472656 h 1.686719 v 0.79375 H 22.8085 q 0,1.413868 -0.297656,2.753321 -0.272851,1.339453 -0.620117,2.430859 -0.396875,1.265039 -0.892969,2.430859 h 8.508008 q -1.413867,-0.818554 -2.257227,-2.232422 -0.818554,-1.413867 -0.818554,-3.050976 0,-1.190625 0.496093,-2.257227 0.496094,-1.066601 1.314649,-1.860351 0.843359,-0.818555 1.909961,-1.289844 1.091406,-0.471289 2.282031,-0.471289 1.513086,0 2.654101,0.595313 1.141016,0.570507 1.885157,1.438671 0.768945,0.868165 1.141015,1.885157 0.372071,1.016992 0.372071,1.885156 -0.09922,1.761133 -0.892969,3.175 -0.79375,1.389062 -2.158008,2.182812 h 2.579688 l 0.347265,0.644922 -2.406054,2.80293 -0.347266,0.148828 H 22.932524 q -0.79375,0.198437 -1.488281,0.620117 -0.694532,0.396875 -1.165821,1.116211 0.02481,2.282031 0.223242,4.440039 0.198438,2.133203 0.545704,4.216797 0.37207,2.083594 0.892968,4.142383 0.545703,2.058789 1.265039,4.142382 L 22.8085,50.200445 h -7.193359 l -0.37207,-0.471289 q 1.116211,-4.241602 1.835547,-8.408789 0.74414,-4.167188 0.818554,-8.582422 -0.471289,-0.620117 -1.066601,-1.041797 -0.570508,-0.421679 -1.265039,-0.694531 H 2.8159225 L 2.4934616,30.803179 0.48428194,28.00025 0.80674287,27.404937 H 4.1553756 Q 3.4360397,26.958453 2.8903366,26.065484 2.3942428,25.296539 1.9973679,23.98189 1.6252975,22.667242 1.6252975,20.583648 q 0,-1.413867 0.1488282,-2.629296 0.1736328,-1.240235 0.5953125,-2.232422 0.4216796,-0.992188 1.1906249,-1.686719 0.7689453,-0.694531 2.0091797,-1.016992 1.3146484,0.297656 2.1083984,1.016992 0.8185547,0.719336 1.2402344,1.736328 0.4464843,0.992188 0.5705078,2.232422 0.1488281,1.240234 0.1488281,2.579687 0,2.207618 -0.6201172,4.01836 -0.5953125,1.810742 -1.8851562,2.802929 H 17.029008 Q 16.532915,26.189508 16.13604,24.899664 15.788774,23.783453 15.515922,22.444 15.267875,21.104547 15.267875,19.789898 h -1.637109 v -0.79375 h 1.661914 q 0.09922,-0.669726 0.570508,-1.562695 0.496094,-0.892969 1.860351,-1.934766 0.124024,-0.396874 0.173633,-0.892968 0,-0.322461 -0.07441,-0.620117 -0.07441,-0.322461 -0.248047,-0.570508 H 15.63995 v -0.818555 z m 9.971484,14.808398 q 1.116211,0 2.058789,-0.421679 0.967383,-0.446485 1.661914,-1.165821 0.719336,-0.719336 1.116211,-1.686718 0.42168,-0.967383 0.42168,-2.058789 0,-1.041797 -0.396875,-1.959571 -0.396875,-0.917773 -1.091406,-1.5875 -0.694532,-0.694531 -1.63711,-1.091406 -0.917773,-0.396875 -1.984375,-0.396875 -1.116211,0 -2.108398,0.42168 -0.967383,0.421679 -1.711523,1.141015 -0.719336,0.694532 -1.141016,1.63711 -0.396875,0.917773 -0.396875,1.934765 0,1.016993 0.42168,1.984375 0.421679,0.942578 1.141015,1.661914 0.719336,0.719336 1.661914,1.165821 0.942578,0.421679 1.984375,0.421679 z m -26.7890618,-0.0248 q 0.8929687,-0.446485 1.5875,-1.314649 0.5953124,-0.74414 1.0914062,-2.033984 0.4960937,-1.314649 0.4960937,-3.373438 0,-1.364257 -0.1240234,-2.480468 Q 8.5458053,17.036578 8.1985396,16.193219 7.851274,15.325055 7.2311568,14.729742 6.6110397,14.13443 5.6436569,13.811969 q -1.116211,0.297656 -1.7859375,1.116211 -0.6449219,0.818554 -0.9673828,1.835547 -0.3224609,0.992187 -0.4216797,2.058789 -0.074414,1.041796 -0.074414,1.835546 0,1.141016 0.2232422,2.232422 0.2232422,1.066602 0.6201172,1.959571 0.4216797,0.892968 1.0169922,1.562695 0.5953125,0.669726 1.3642578,0.967383 z m -4.0183593,0.818554 1.4386718,2.00918 H 35.458891 l 1.711523,-2.00918 z m 19.2980461,2.80293 h -3.621484 q 0.520899,0.347266 0.992188,0.843359 0.471289,0.496094 0.471289,0.992188 0,2.306836 -0.248047,4.638476 -0.248047,2.331641 -0.644922,4.489649 -0.37207,2.158007 -0.843359,4.067968 -0.446485,1.885157 -0.84336,3.373438 h 6.126758 q -1.364258,-3.919141 -2.108398,-8.086328 -0.744141,-4.191992 -0.744141,-8.483203 0,-0.272852 0.124023,-0.520899 0.148828,-0.272851 0.347266,-0.520898 0.223242,-0.248047 0.471289,-0.446484 0.272852,-0.198438 0.520898,-0.347266 z M 16.036821,19.789898 q 0,0.892969 0.173633,1.909961 0.173632,0.992188 0.421679,1.984375 0.272852,0.992188 0.595313,1.959571 0.347265,0.942578 0.669726,1.761132 h 2.257227 q 0.545703,-1.463476 0.892969,-2.505273 0.37207,-1.066602 0.595312,-1.909961 0.223242,-0.868164 0.297656,-1.612305 0.09922,-0.74414 0.09922,-1.5875 z m 6.027539,-0.79375 q -0.372071,-1.041796 -0.992188,-1.711523 -0.595312,-0.669727 -1.16582,-1.091406 h -1.785938 q -0.297656,0.223242 -0.669726,0.520898 -0.347266,0.297656 -0.644922,0.644922 -0.297656,0.347266 -0.520898,0.768945 -0.198438,0.396875 -0.223243,0.868164 z m -2.678906,-3.596679 q -0.04961,-0.148828 -0.07441,-0.396875 0,-0.248047 0,-0.372071 0.02481,-0.198437 0.124024,-0.595312 0.09922,-0.42168 0.148828,-0.620117 H 18.44288 q 0.04961,0.198437 0.148829,0.620117 0.09922,0.396875 0.09922,0.595312 0,0.396875 -0.09922,0.768946 z"
         style="stroke-width:0.26458332"
         id="path11476"
         inkscape:connector-curvature="0" />
    </g>
  </g>
</svg>
