<?xml version="1.0" encoding="UTF-8" standalone="no"?>
<!-- Created with Inkscape (http://www.inkscape.org/) -->

<svg
   xmlns:dc="http://purl.org/dc/elements/1.1/"
   xmlns:cc="http://creativecommons.org/ns#"
   xmlns:rdf="http://www.w3.org/1999/02/22-rdf-syntax-ns#"
   xmlns:svg="http://www.w3.org/2000/svg"
   xmlns="http://www.w3.org/2000/svg"
   xmlns:sodipodi="http://sodipodi.sourceforge.net/DTD/sodipodi-0.dtd"
   xmlns:inkscape="http://www.inkscape.org/namespaces/inkscape"
   width="15.527734mm"
   height="38.050388mm"
   viewBox="0 0 15.527734 38.050388"
   version="1.1"
   id="svg15957"
   inkscape:version="0.92.4 (5da689c313, 2019-01-14)"
   sodipodi:docname="R11.svg">
  <defs
     id="defs15951" />
  <sodipodi:namedview
     id="base"
     pagecolor="#ffffff"
     bordercolor="#666666"
     borderopacity="1.0"
     inkscape:pageopacity="0.0"
     inkscape:pageshadow="2"
     inkscape:zoom="0.35"
     inkscape:cx="-337.54464"
     inkscape:cy="-409.92855"
     inkscape:document-units="mm"
     inkscape:current-layer="layer1"
     showgrid="false"
     fit-margin-top="0"
     fit-margin-left="0"
     fit-margin-right="0"
     fit-margin-bottom="0"
     inkscape:window-width="1920"
     inkscape:window-height="1017"
     inkscape:window-x="-8"
     inkscape:window-y="-8"
     inkscape:window-maximized="1" />
  <metadata
     id="metadata15954">
    <rdf:RDF>
      <cc:Work
         rdf:about="">
        <dc:format>image/svg+xml</dc:format>
        <dc:type
           rdf:resource="http://purl.org/dc/dcmitype/StillImage" />
        <dc:title></dc:title>
      </cc:Work>
    </rdf:RDF>
  </metadata>
  <g
     inkscape:label="Layer 1"
     inkscape:groupmode="layer"
     id="layer1"
     transform="translate(-1.996186,-2.32268)">
    <flowRoot
       xml:space="preserve"
       id="flowRoot16502"
       style="font-style:normal;font-variant:normal;font-weight:normal;font-stretch:normal;font-size:192px;line-height:1.25;font-family:sans-serif;-inkscape-font-specification:'sans-serif, Normal';font-variant-ligatures:normal;font-variant-caps:normal;font-variant-numeric:normal;font-feature-settings:normal;text-align:start;letter-spacing:0px;word-spacing:0px;writing-mode:lr-tb;text-anchor:start;fill:#000000;fill-opacity:1;stroke:none"
       transform="scale(0.26458333)"><flowRegion
         id="flowRegion16504"><rect
           id="rect16506"
           width="485.71429"
           height="462.85715"
           x="-2.8571429"
           y="5.3768277" /></flowRegion><flowPara
         id="flowPara16508"></flowPara></flowRoot>    <g
       aria-label="𓊽"
       style="font-style:normal;font-variant:normal;font-weight:normal;font-stretch:normal;font-size:50.79999924px;line-height:1.25;font-family:sans-serif;-inkscape-font-specification:'sans-serif, Normal';font-variant-ligatures:normal;font-variant-caps:normal;font-variant-numeric:normal;font-feature-settings:normal;text-align:start;letter-spacing:0px;word-spacing:0px;writing-mode:lr-tb;text-anchor:start;fill:#000000;fill-opacity:1;stroke:none;stroke-width:0.26458332"
       id="text16512"
       transform="translate(-67.279762,-36.285714)">
      <path
         d="m 79.842744,41.411324 h 4.960938 v 0.79375 h -1.513086 l -2.083594,2.80293 h 3.59668 v 0.818554 h -1.513086 l -2.058789,2.80293 h 3.571875 v 0.79375 h -1.513086 l -2.108399,3.199805 h 3.621485 v 0.818554 h -2.00918 q -0.942578,2.703711 -1.513086,5.481836 -0.570508,2.778125 -0.570508,5.407422 0,3.001367 0.669727,5.92832 0.694531,2.902149 2.182812,5.878711 l -0.396875,0.520898 H 70.913057 l -0.322461,-0.595312 q 1.364258,-2.703711 1.984375,-5.506641 0.644922,-2.827734 0.644922,-5.729882 0,-2.778125 -0.620117,-5.729883 -0.595313,-2.951758 -1.63711,-5.655469 h -1.686718 v -0.818554 h 3.274218 l -1.637109,-3.199805 h -1.637109 v -0.79375 h 3.224609 l -1.5875,-2.80293 h -1.637109 v -0.818554 h 3.224609 l -1.5875,-2.80293 h -1.637109 v -0.79375 h 4.960937 q 0,-1.364258 0.719336,-2.083594 0.719336,-0.719336 1.984375,-0.719336 1.265039,0 2.083594,0.719336 0.818554,0.719336 0.818554,2.083594 z m -8.061523,12.030273 q 1.066601,2.827735 1.637109,5.705078 0.570508,2.877344 0.570508,5.928321 0,2.827734 -0.570508,5.531445 -0.570508,2.703711 -1.835547,5.258593 h 10.963672 q -1.364258,-2.778124 -2.009179,-5.605859 -0.620118,-2.827734 -0.620118,-5.754687 0,-2.852539 0.496094,-5.55625 0.496094,-2.728516 1.537891,-5.506641 z m 0,-4.018359 1.637109,3.199805 h 6.821289 l 2.108399,-3.199805 z m 0.04961,-3.59668 1.562696,2.80293 h 6.870898 l 2.033984,-2.80293 z m 0,-3.621484 1.562696,2.80293 h 6.846093 l 2.058789,-2.80293 z m 3.199805,-0.79375 h 3.993555 q 0,-0.595312 -0.173633,-0.967383 -0.173633,-0.396875 -0.471289,-0.620117 -0.297657,-0.248047 -0.669727,-0.347266 -0.347265,-0.09922 -0.719336,-0.09922 -0.79375,0 -1.389062,0.471289 -0.570508,0.471289 -0.570508,1.562695 z"
         style="stroke-width:0.26458332"
         id="path16514"
         inkscape:connector-curvature="0" />
    </g>
  </g>
</svg>
