<?xml version="1.0" encoding="UTF-8" standalone="no"?>
<!-- Created with Inkscape (http://www.inkscape.org/) -->

<svg
   xmlns:dc="http://purl.org/dc/elements/1.1/"
   xmlns:cc="http://creativecommons.org/ns#"
   xmlns:rdf="http://www.w3.org/1999/02/22-rdf-syntax-ns#"
   xmlns:svg="http://www.w3.org/2000/svg"
   xmlns="http://www.w3.org/2000/svg"
   xmlns:sodipodi="http://sodipodi.sourceforge.net/DTD/sodipodi-0.dtd"
   xmlns:inkscape="http://www.inkscape.org/namespaces/inkscape"
   width="12.997656mm"
   height="38.174427mm"
   viewBox="0 0 12.997656 38.174427"
   version="1.1"
   id="svg18755"
   inkscape:version="0.92.4 (5da689c313, 2019-01-14)"
   sodipodi:docname="R16.svg">
  <defs
     id="defs18749" />
  <sodipodi:namedview
     id="base"
     pagecolor="#ffffff"
     bordercolor="#666666"
     borderopacity="1.0"
     inkscape:pageopacity="0.0"
     inkscape:pageshadow="2"
     inkscape:zoom="0.35"
     inkscape:cx="-334.6875"
     inkscape:cy="-389.04758"
     inkscape:document-units="mm"
     inkscape:current-layer="layer1"
     showgrid="false"
     fit-margin-top="0"
     fit-margin-left="0"
     fit-margin-right="0"
     fit-margin-bottom="0"
     inkscape:window-width="1920"
     inkscape:window-height="1017"
     inkscape:window-x="-8"
     inkscape:window-y="-8"
     inkscape:window-maximized="1" />
  <metadata
     id="metadata18752">
    <rdf:RDF>
      <cc:Work
         rdf:about="">
        <dc:format>image/svg+xml</dc:format>
        <dc:type
           rdf:resource="http://purl.org/dc/dcmitype/StillImage" />
        <dc:title></dc:title>
      </cc:Work>
    </rdf:RDF>
  </metadata>
  <g
     inkscape:label="Layer 1"
     inkscape:groupmode="layer"
     id="layer1"
     transform="translate(-1.2402344,-7.7234012)">
    <g
       aria-label="𓋂"
       transform="scale(0.26458333)"
       style="font-style:normal;font-variant:normal;font-weight:normal;font-stretch:normal;font-size:192px;line-height:1.25;font-family:sans-serif;-inkscape-font-specification:'sans-serif, Normal';font-variant-ligatures:normal;font-variant-caps:normal;font-variant-numeric:normal;font-feature-settings:normal;text-align:start;letter-spacing:0px;word-spacing:0px;writing-mode:lr-tb;text-anchor:start;fill:#000000;fill-opacity:1;stroke:none"
       id="flowRoot19300">
      <path
         d="M 33.28125,173.47211 H 25.3125 l -1.40625,-1.78125 1.5,-62.0625 -2.8125,0.9375 q -1.875,0.65625 -3.75,0.9375 -1.875,0.28125 -3.75,0.375 l -0.5625,0.0937 q -2.8125,0 -4.6875,-1.6875 -1.875,-1.78125 -1.875,-4.6875 0,-3.375 2.25,-5.34375 2.34375,-2.062502 6.46875,-2.062502 h 0.75 q 1.875,0 3.75,0.46875 1.875,0.46875 3.375,1.03125 -2.25,-6.84375 -10.6875,-13.3125 -8.34375,-6.5625 -9.1875,-7.21875 l 0.46875,-2.53125 q 2.25,-0.9375 4.5,-1.6875 2.34375,-0.75 4.78125,-1.3125 -1.125,-1.6875 -1.6875,-3.75 -0.46875,-2.15625 -0.46875,-5.34375 0,-2.625 0.46875,-5.8125 0.46875,-3.1875 1.125,-6 l 1.3125,-6.375 q 0.28125,-1.5 0.5625,-3.28125 l 0.46875,-3.46875 q 0.75,-5.71875 2.53125,-7.875 1.78125,-2.25 4.59375,-2.53125 h 0.5625 q 1.5,0 2.8125,0.65625 1.40625,0.65625 2.4375,2.0625 0.84375,-1.125 2.0625,-1.78125 1.21875,-0.75 2.625,-0.75 6.9375,0 8.0625,6.75 1.125,6.75 2.8125,16.125 1.6875,9.28125 1.6875,13.125 v 0.46875 q 0,2.0625 -0.5625,3.9375 -0.5625,1.875 -1.78125,3.84375 2.4375,0.46875 4.6875,1.21875 2.25,0.75 4.59375,1.78125 l 0.46875,2.625 q -0.75,0.5625 -9.1875,7.3125 -8.34375,6.65625 -10.5,13.40625 2.53125,-0.65625 4.59375,-0.65625 4.6875,0 7.875,3.281252 3.1875,3.28125 4.6875,9.5625 l -1.5,1.96875 H 46.3125 l -1.21875,-0.75 q -1.40625,-3.65625 -3,-5.71875 -1.5,-2.15625 -4.125,-2.15625 -1.03125,0 -2.34375,0.28125 3.65625,3.09375 5.8125,6.5625 2.15625,3.46875 2.90625,8.71875 l -1.59375,1.5 h -3.5625 l -1.40625,-1.21875 q -0.375,-2.90625 -1.5,-5.15625 -1.03125,-2.34375 -2.8125,-4.3125 l 1.40625,60.09375 z m 6.375,-97.687502 Q 34.875,75.128358 30.1875,74.940858 h -1.875 q -3.75,0 -7.59375,0.5625 -0.75,0 -1.6875,0.375 -0.84375,0.28125 -1.59375,0.28125 -2.25,0.375 -4.5,1.03125 -2.15625,0.5625 -4.3125,1.3125 0.75,0.5625 9.28125,7.6875 8.53125,7.03125 10.3125,15.843752 v 0.0937 q 0,0.1875 0.46875,0.375 0.46875,0.0937 0.84375,0.375 l 0.75,-0.5625 q 0.28125,-0.1875 0.28125,-0.28125 1.125,-5.343752 4.5,-9.937502 3.46875,-4.59375 8.71875,-8.71875 l 6.1875,-4.875 q -2.0625,-0.75 -4.21875,-1.3125 -2.0625,-0.65625 -4.21875,-1.125 z m -9,-3.9375 q 5.15625,0 10.21875,1.125 1.125,-1.3125 1.6875,-2.8125 0.65625,-1.5 0.65625,-4.3125 0,-1.59375 -0.28125,-4.78125 -0.28125,-3.28125 -0.75,-5.90625 l -1.3125,-6.65625 -0.9375,-6.1875 q -0.9375,-5.8125 -1.59375,-7.59375 -0.65625,-1.875 -3.5625,-2.34375 h -0.5625 q -1.59375,0 -2.4375,0.9375 -0.75,0.9375 -1.125,2.34375 z m -3,-36.09375 -0.28125,-1.21875 q -0.1875,-0.46875 -0.5625,-1.21875 l -0.375,-0.375 -0.5625,-0.375 q -1.03125,-0.375 -1.875,-0.375 -3.75,0 -4.78125,7.6875 -1.03125,7.59375 -2.4375,14.25 -1.3125,6.5625 -1.3125,12.375 v 1.3125 q 0,2.71875 2.15625,5.15625 4.875,-0.9375 10.03125,-1.125 z m 2.15625,72.468752 -1.40625,-0.5625 -0.65625,31.40625 q -0.375,15.65625 -0.84375,31.40625 h 4.875 l -0.84375,-39.5625 q -0.46875,-22.40625 -0.65625,-22.5 -0.1875,-0.0937 -0.46875,-0.1875 z m -4.59375,-3.5625 q -3.9375,-1.6875 -8.25,-1.6875 -4.03125,0 -4.03125,2.34375 1.03125,1.875 3,1.875 3.75,0 9.28125,-2.53125 z"
         id="path19308"
         inkscape:connector-curvature="0" />
    </g>
  </g>
</svg>
