<?xml version="1.0" encoding="UTF-8" standalone="no"?>
<!-- Created with Inkscape (http://www.inkscape.org/) -->

<svg
   xmlns:dc="http://purl.org/dc/elements/1.1/"
   xmlns:cc="http://creativecommons.org/ns#"
   xmlns:rdf="http://www.w3.org/1999/02/22-rdf-syntax-ns#"
   xmlns:svg="http://www.w3.org/2000/svg"
   xmlns="http://www.w3.org/2000/svg"
   xmlns:sodipodi="http://sodipodi.sourceforge.net/DTD/sodipodi-0.dtd"
   xmlns:inkscape="http://www.inkscape.org/namespaces/inkscape"
   width="17.214457mm"
   height="37.603905mm"
   viewBox="0 0 17.214457 37.603905"
   version="1.1"
   id="svg19317"
   inkscape:version="0.92.4 (5da689c313, 2019-01-14)"
   sodipodi:docname="R17.svg">
  <defs
     id="defs19311" />
  <sodipodi:namedview
     id="base"
     pagecolor="#ffffff"
     bordercolor="#666666"
     borderopacity="1.0"
     inkscape:pageopacity="0.0"
     inkscape:pageshadow="2"
     inkscape:zoom="0.35"
     inkscape:cx="-354.6875"
     inkscape:cy="-357.14285"
     inkscape:document-units="mm"
     inkscape:current-layer="layer1"
     showgrid="false"
     fit-margin-top="0"
     fit-margin-left="0"
     fit-margin-right="0"
     fit-margin-bottom="0"
     inkscape:window-width="1920"
     inkscape:window-height="1017"
     inkscape:window-x="-8"
     inkscape:window-y="-8"
     inkscape:window-maximized="1" />
  <metadata
     id="metadata19314">
    <rdf:RDF>
      <cc:Work
         rdf:about="">
        <dc:format>image/svg+xml</dc:format>
        <dc:type
           rdf:resource="http://purl.org/dc/dcmitype/StillImage" />
        <dc:title></dc:title>
      </cc:Work>
    </rdf:RDF>
  </metadata>
  <g
     inkscape:label="Layer 1"
     inkscape:groupmode="layer"
     id="layer1"
     transform="translate(-6.5319009,-16.735381)">
    <g
       aria-label="𓋄"
       style="font-style:normal;font-variant:normal;font-weight:normal;font-stretch:normal;font-size:50.79999924px;line-height:1.25;font-family:sans-serif;-inkscape-font-specification:'sans-serif, Normal';font-variant-ligatures:normal;font-variant-caps:normal;font-variant-numeric:normal;font-feature-settings:normal;text-align:start;letter-spacing:0px;word-spacing:0px;writing-mode:lr-tb;text-anchor:start;fill:#000000;fill-opacity:1;stroke:none;stroke-width:0.26458332"
       id="text19864">
      <path
         d="M 20.149674,43.549248 19.70319,40.448662 q -0.09922,-0.719336 -0.272852,-1.463477 -0.173633,-0.74414 -0.471289,-1.389062 -0.272851,-0.644922 -0.694531,-1.141016 -0.396875,-0.496093 -0.942578,-0.694531 l 0.79375,8.979297 -0.42168,0.396875 h -4.737695 v 9.202539 h -1.21543 V 45.136748 H 6.9039712 L 6.5319009,44.665459 7.4248696,32.759209 q 0.024805,-0.347266 0.099219,-0.669727 0.074414,-0.347265 0.1240235,-0.446484 0.099219,-0.124023 0.1240234,-1.389062 0.049609,-1.711524 0.099219,-3.323828 0.049609,-1.612305 0.099219,-3.001368 0.049609,-1.413867 0.074414,-2.505273 0.024805,-1.116211 0.049609,-1.835547 0.099219,-2.852539 2.4308585,-2.852539 0.47129,0 0.992188,0.148828 0.545703,0.148828 0.744141,0.520899 0.396875,-0.322461 0.917773,-0.471289 0.520898,-0.173633 0.992187,-0.173633 0.47129,0 0.892969,0.248047 0.42168,0.223242 0.744141,0.595312 0.322461,0.37207 0.496094,0.84336 0.198437,0.446484 0.223242,0.892968 l 0.396875,12.129492 q 0.09922,0.248047 0.173633,0.644922 0.07441,0.37207 0.09922,0.79375 0.04961,0.42168 0.07441,0.818555 0.02481,0.396875 0.02481,0.694531 0.892969,-1.438672 1.785938,-2.356445 0.892968,-0.917774 1.860351,-0.917774 1.612305,0 1.612305,1.736328 0,0.868164 -0.644922,1.438672 -0.620117,0.545703 -2.058789,0.917774 0.868164,0.595312 1.488281,1.413867 0.644922,0.818555 1.091406,1.761133 0.471289,0.942578 0.768946,1.95957 0.322461,0.992187 0.545703,1.95957 h -0.79375 l -0.198438,-0.620117 q -0.347265,-1.041797 -0.694531,-1.934766 -0.322461,-0.917773 -0.768945,-1.686718 -0.42168,-0.79375 -1.016992,-1.438672 -0.595313,-0.644922 -1.488282,-1.141016 l -0.272851,0.02481 q 0.620117,0.496094 0.992187,1.16582 0.396875,0.669727 0.620117,1.389063 0.223243,0.694531 0.322461,1.389062 0.09922,0.669727 0.148828,1.190625 0.124024,1.041797 0.198438,1.785938 0.09922,0.74414 0.148828,1.091406 z m -2.852539,0.79375 -0.744141,-8.805664 H 7.9209633 l -0.5705078,8.805664 z m -4.7625,-14.783594 q 0.545703,0.02481 1.091406,0.173633 0.545703,0.124024 1.016993,0.322461 0.496093,0.173633 0.868164,0.37207 0.396875,0.198438 0.644921,0.347266 L 15.73444,19.21585 q -0.620117,-1.711524 -1.736328,-1.711524 -0.372071,0 -0.744141,0.198438 -0.37207,0.173633 -0.719336,0.744141 z m -0.79375,0.02481 V 18.4221 q 0,-0.868164 -1.389062,-0.868164 -0.6945316,0 -1.0417972,0.446484 -0.3472656,0.42168 -0.396875,1.141016 -0.099219,2.38125 -0.1736328,4.092773 -0.049609,1.686719 -0.099219,2.902149 -0.049609,1.190625 -0.074414,1.95957 -0.024805,0.768945 -0.049609,1.265039 -0.024805,0.496094 -0.049609,0.818555 0,0.297656 0,0.570507 0.8185546,-0.545703 1.711524,-0.79375 0.892969,-0.272851 1.562695,-0.37207 z M 8.4666665,31.791826 Q 8.268229,32.436748 8.1690102,33.280107 8.0945962,34.098662 8.0449868,34.743584 H 16.47858 q 0,-0.644922 -0.04961,-1.463477 -0.04961,-0.843359 -0.248047,-1.488281 -0.322461,-0.198437 -0.74414,-0.446484 -0.42168,-0.248047 -0.942579,-0.446485 -0.496093,-0.223242 -1.041796,-0.37207 -0.545704,-0.148828 -1.116211,-0.148828 -0.818555,0 -1.711524,0.272852 -0.8929685,0.272851 -2.1580075,1.141015 z m 9.4505855,3.22461 q 0.198438,-0.04961 0.545703,-0.148829 0.372071,-0.09922 0.744141,-0.223242 0.396875,-0.124023 0.768945,-0.248047 0.372071,-0.124023 0.595313,-0.223242 0.446484,-0.198437 0.818554,-0.471289 0.372071,-0.272851 0.372071,-0.669726 0,-0.396875 -0.173633,-0.744141 -0.173633,-0.347266 -0.644922,-0.347266 -0.496094,0 -1.016992,0.496094 -0.520899,0.471289 -0.967383,1.041797 -0.520898,0.669726 -1.041797,1.537891 z"
         style="stroke-width:0.26458332"
         id="path19866"
         inkscape:connector-curvature="0" />
    </g>
  </g>
</svg>
