<?xml version="1.0" encoding="UTF-8" standalone="no"?>
<!-- Created with Inkscape (http://www.inkscape.org/) -->

<svg
   xmlns:dc="http://purl.org/dc/elements/1.1/"
   xmlns:cc="http://creativecommons.org/ns#"
   xmlns:rdf="http://www.w3.org/1999/02/22-rdf-syntax-ns#"
   xmlns:svg="http://www.w3.org/2000/svg"
   xmlns="http://www.w3.org/2000/svg"
   xmlns:sodipodi="http://sodipodi.sourceforge.net/DTD/sodipodi-0.dtd"
   xmlns:inkscape="http://www.inkscape.org/namespaces/inkscape"
   width="20.811132mm"
   height="37.653522mm"
   viewBox="0 0 20.811132 37.653522"
   version="1.1"
   id="svg19875"
   inkscape:version="0.92.4 (5da689c313, 2019-01-14)"
   sodipodi:docname="R18.svg">
  <defs
     id="defs19869" />
  <sodipodi:namedview
     id="base"
     pagecolor="#ffffff"
     bordercolor="#666666"
     borderopacity="1.0"
     inkscape:pageopacity="0.0"
     inkscape:pageshadow="2"
     inkscape:zoom="0.35"
     inkscape:cx="-347.14286"
     inkscape:cy="-382.85715"
     inkscape:document-units="mm"
     inkscape:current-layer="layer1"
     showgrid="false"
     fit-margin-top="0"
     fit-margin-left="0"
     fit-margin-right="0"
     fit-margin-bottom="0"
     inkscape:window-width="1920"
     inkscape:window-height="1017"
     inkscape:window-x="-8"
     inkscape:window-y="-8"
     inkscape:window-maximized="1" />
  <metadata
     id="metadata19872">
    <rdf:RDF>
      <cc:Work
         rdf:about="">
        <dc:format>image/svg+xml</dc:format>
        <dc:type
           rdf:resource="http://purl.org/dc/dcmitype/StillImage" />
        <dc:title></dc:title>
      </cc:Work>
    </rdf:RDF>
  </metadata>
  <g
     inkscape:label="Layer 1"
     inkscape:groupmode="layer"
     id="layer1"
     transform="translate(-4.5357141,-9.8821901)">
    <g
       aria-label="𓋅"
       style="font-style:normal;font-variant:normal;font-weight:normal;font-stretch:normal;font-size:50.79999924px;line-height:1.25;font-family:sans-serif;-inkscape-font-specification:'sans-serif, Normal';font-variant-ligatures:normal;font-variant-caps:normal;font-variant-numeric:normal;font-feature-settings:normal;text-align:start;letter-spacing:0px;word-spacing:0px;writing-mode:lr-tb;text-anchor:start;fill:#000000;fill-opacity:1;stroke:none;stroke-width:0.26458332"
       id="text20422">
      <path
         d="m 21.278878,32.727315 q -0.0248,-0.124023 -0.173633,-0.719336 -0.124023,-0.595312 -0.37207,-1.711523 -0.471289,-2.158008 -1.810742,-3.274219 v 6.920508 l -0.42168,0.396875 h -3.050977 v 6.970117 h 9.872266 v 0.79375 h -1.984375 v 1.934765 h 2.00918 v 0.768946 h -2.00918 v 1.934765 h 1.984375 v 0.79375 H 4.5357141 v -0.79375 H 6.5448938 V 44.807198 H 4.5357141 V 44.038252 H 6.5448938 V 42.103487 H 4.5357141 v -0.79375 H 14.457589 V 34.33962 h -3.150195 l -0.372071,-0.471289 v -8.011914 q 0,-1.21543 0.595313,-2.282032 0.620117,-1.066601 1.661914,-1.637109 l -0.248047,-0.79375 q -1.16582,0.471289 -1.909961,0.471289 -0.545703,0 -1.4386717,-0.248047 Q 8.7029016,21.118721 8.2316125,21.118721 H 8.0827844 q -0.2728515,0 -0.5953125,0.07441 l -0.6201172,0.07441 q -0.1240234,0.0248 -0.2480468,0.04961 -0.099219,0 -0.1488282,0 -0.5705078,0 -1.1410156,-1.389063 0.6697266,0.694532 1.1410156,0.694532 0.1736329,0 0.9673828,-0.198438 0.79375,-0.198437 1.0914063,-0.198437 0.2728515,0 1.3394531,0.198437 l 0.6201171,0.124024 q 0.173633,0 0.248047,0.0248 0.148828,0 0.198437,-0.0248 0.272852,-1.785938 0.496094,-3.547071 0.248047,-1.785937 0.297656,-3.571875 -1.041796,-0.272851 -1.513085,-0.843359 -0.4712896,-0.595312 -0.4712896,-1.785937 0.049609,-0.124024 0.074414,-0.223243 0.024805,-0.09922 0.049609,-0.148828 0.2480476,-0.248047 0.5457036,-0.37207 0.297656,-0.1240235 0.719336,-0.1240235 0.644922,0 1.21543,0.2232425 0.595312,0.223242 1.066601,0.595312 0.496094,0.37207 0.868164,0.868164 0.396875,0.496094 0.644922,1.041797 0.595313,-1.339453 1.562694,-2.058789 0.967384,-0.7193359 1.885157,-0.7193359 0.32246,0 0.644921,0.074414 0.347266,0.074414 0.570508,0.1984379 l 0.372071,0.248047 0.173632,0.32246 q -0.04961,0.942579 -0.545703,1.711524 -0.471288,0.744141 -1.463476,0.992187 0.07441,1.785938 0.297656,3.59668 0.223242,1.785938 0.496094,3.571875 l 0.471289,-0.07441 q 0.148828,0 0.868164,-0.148828 0.694531,-0.148828 1.066601,-0.148828 0.297657,0 1.091407,0.198437 0.79375,0.198438 0.967382,0.198438 0.471289,0 1.141016,-0.694532 -0.768945,1.364258 -1.488281,1.364258 -0.124024,0 -0.248047,-0.0248 L 21.82458,21.16833 q -0.124023,0 -0.248047,0 -0.124023,0 -0.248047,-0.0248 -0.396875,0 -1.215429,0.248047 -0.868164,0.223242 -1.289844,0.223242 -0.768945,0 -1.885156,-0.471289 l -0.223242,0.768945 q 0.967382,0.496094 1.53789,1.488282 0.570509,0.967382 0.644923,2.158007 2.430859,-2.430859 2.827734,-2.430859 1.463477,0 1.463477,0.818555 0,1.761133 -2.480469,2.38125 1.364258,0.570508 2.257227,2.38125 0.173632,0.347265 0.446484,1.141015 0.297656,0.79375 0.719336,2.083594 h -0.967383 q -0.719336,-2.505273 -1.463476,-3.671094 -0.719336,-1.190625 -2.579688,-1.95957 1.810742,0.942578 2.306836,3.199805 0.248047,1.116211 0.421679,1.934765 0.173633,0.79375 0.297656,1.289844 z m -3.150195,0.818555 v -6.796485 h -6.39961 v 6.796485 z m -6.39961,-7.615039 h 6.39961 v -0.07441 q 0,-0.768946 -0.248047,-1.413868 -0.223242,-0.669726 -0.644922,-1.141015 -0.396875,-0.471289 -0.992188,-0.744141 -0.595312,-0.272851 -1.289843,-0.272851 -1.364258,0 -2.306836,1.091406 -0.917774,1.066601 -0.917774,2.554883 z m 5.60586,-5.853906 0.768945,0.471289 Q 17.95505,19.68005 17.831026,18.46462 17.707003,17.224386 17.58298,16.033761 17.458956,14.669503 17.334933,13.206026 l 0.248047,-0.446484 q 0.248046,0 0.520898,-0.124024 0.297656,-0.148828 0.545703,-0.37207 0.272852,-0.248047 0.446484,-0.570508 0.198438,-0.347265 0.223243,-0.74414 l -0.347266,-0.198438 q -0.09922,0 -0.198437,0 -0.09922,0 -0.198438,-0.02481 -1.190625,0 -2.108398,0.992188 -0.917774,0.992187 -1.141016,2.430859 v 3.472657 q 0.347266,0 0.694531,0.173632 0.372071,0.148828 0.644922,0.471289 0.297656,0.297657 0.471289,0.768946 0.198438,0.446484 0.198438,1.041797 z m -2.80293,-5.97793 q -0.124023,-1.240234 -1.16582,-2.282031 -1.091406,-1.116211 -2.058789,-1.116211 -0.372071,0 -0.768946,0.198437 0,0.892969 0.42168,1.289844 0.446484,0.37207 1.265039,0.570508 l 0.297656,0.37207 q 0,0.868164 -0.124023,2.133203 -0.124023,1.240235 -0.272852,2.406055 -0.173632,1.364258 -0.37207,2.80293 l 0.79375,-0.446485 q 0,-1.215429 0.620117,-1.810742 0.620117,-0.595312 1.364258,-0.595312 z m 2.80293,32.642968 v -1.934765 h -4.787305 v 1.934765 z m 0,-4.638476 h -4.787305 v 1.934765 h 4.787305 z m 5.208984,0 h -4.415234 v 1.934765 h 4.415234 z m 0,4.638476 v -1.934765 h -4.415234 v 1.934765 z m -10.814844,0 V 44.807198 H 7.3386438 v 1.934765 z m 0,-4.638476 H 7.3386438 v 1.934765 h 4.3904292 z m 3.175,-23.738086 q -0.79375,0 -1.190625,0.347266 -0.37207,0.322461 -0.37207,1.116211 0,1.53789 1.5875,1.53789 1.612305,0 1.612305,-1.53789 0,-0.79375 -0.42168,-1.116211 -0.42168,-0.347266 -1.21543,-0.347266 z m 7.267774,5.754688 -0.669727,0.0248 q -0.297656,0.173633 -0.719336,0.595313 l -1.413867,1.413867 q 1.5875,-0.496094 2.207617,-0.892969 0.620117,-0.42168 0.620117,-0.843359 z"
         style="stroke-width:0.26458332"
         id="path20424"
         inkscape:connector-curvature="0" />
    </g>
  </g>
</svg>
