<?xml version="1.0" encoding="UTF-8" standalone="no"?>
<!-- Created with Inkscape (http://www.inkscape.org/) -->

<svg
   xmlns:dc="http://purl.org/dc/elements/1.1/"
   xmlns:cc="http://creativecommons.org/ns#"
   xmlns:rdf="http://www.w3.org/1999/02/22-rdf-syntax-ns#"
   xmlns:svg="http://www.w3.org/2000/svg"
   xmlns="http://www.w3.org/2000/svg"
   xmlns:sodipodi="http://sodipodi.sourceforge.net/DTD/sodipodi-0.dtd"
   xmlns:inkscape="http://www.inkscape.org/namespaces/inkscape"
   width="14.064261mm"
   height="37.653515mm"
   viewBox="0 0 14.064261 37.653515"
   version="1.1"
   id="svg20433"
   inkscape:version="0.92.4 (5da689c313, 2019-01-14)"
   sodipodi:docname="R19.svg">
  <defs
     id="defs20427" />
  <sodipodi:namedview
     id="base"
     pagecolor="#ffffff"
     bordercolor="#666666"
     borderopacity="1.0"
     inkscape:pageopacity="0.0"
     inkscape:pageshadow="2"
     inkscape:zoom="0.35"
     inkscape:cx="-360.40179"
     inkscape:cy="-354.28573"
     inkscape:document-units="mm"
     inkscape:current-layer="layer1"
     showgrid="false"
     fit-margin-top="0"
     fit-margin-left="0"
     fit-margin-right="0"
     fit-margin-bottom="0"
     inkscape:window-width="1920"
     inkscape:window-height="1017"
     inkscape:window-x="-8"
     inkscape:window-y="-8"
     inkscape:window-maximized="1" />
  <metadata
     id="metadata20430">
    <rdf:RDF>
      <cc:Work
         rdf:about="">
        <dc:format>image/svg+xml</dc:format>
        <dc:type
           rdf:resource="http://purl.org/dc/dcmitype/StillImage" />
        <dc:title></dc:title>
      </cc:Work>
    </rdf:RDF>
  </metadata>
  <g
     inkscape:label="Layer 1"
     inkscape:groupmode="layer"
     id="layer1"
     transform="translate(-8.0438061,-17.441719)">
    <g
       aria-label="𓋆"
       style="font-style:normal;font-variant:normal;font-weight:normal;font-stretch:normal;font-size:50.79999924px;line-height:1.25;font-family:sans-serif;-inkscape-font-specification:'sans-serif, Normal';font-variant-ligatures:normal;font-variant-caps:normal;font-variant-numeric:normal;font-feature-settings:normal;text-align:start;letter-spacing:0px;word-spacing:0px;writing-mode:lr-tb;text-anchor:start;fill:#000000;fill-opacity:1;stroke:none;stroke-width:0.26458332"
       id="text20980">
      <path
         d="m 15.385993,46.934492 q 2.455664,1.091406 2.455664,3.199804 v 4.960938 h -0.768945 v -4.167188 q 0,-1.513085 -2.455664,-2.554882 -2.480469,1.041797 -2.480469,2.554882 v 4.167188 h -0.768945 v -4.960938 q 0,-2.133203 2.480469,-3.199804 V 25.800898 q 0,-1.16582 -1.661914,-1.562695 -1.63711,1.413867 -3.1501955,4.911328 -0.9921874,-0.396875 -0.9921874,-1.091406 0,-0.669727 1.8107421,-3.869531 0.4216798,-2.058789 2.3564448,-2.654102 0.818555,-0.892969 2.033985,-1.95957 0.620117,-0.545703 0.967383,-0.868164 0.347265,-0.322461 0.471289,-0.42168 0.248047,-0.223242 0.694531,-0.223242 0.570508,0 0.570508,0.620117 0,0.198438 -0.07441,0.496094 -2.158008,1.5875 -3.398242,3.671094 1.11621,0.620117 1.612304,1.513086 0.496094,-0.768946 0.967383,-1.513086 0.496094,-0.768946 0.992187,-1.537891 l 1.984375,-3.075781 q 0.148829,-0.248047 0.620118,-0.520899 0.496093,-0.272851 0.942578,-0.272851 0.79375,0 1.141015,0.396875 0.372071,0.396875 0.372071,0.892969 0,0.595312 -0.42168,1.041796 -0.396875,0.42168 -0.967383,0.42168 -0.198437,0 -0.297656,-0.02481 -0.198438,0.620118 -0.37207,1.016993 l -1.091407,2.976562 -0.520898,0.248047 q -0.223242,-0.124023 -0.570508,-0.272852 -0.347265,-0.173632 -0.620117,-0.173632 -0.09922,0 -0.297656,0.04961 -0.347266,0.297656 -0.520899,0.669726 l -0.421679,0.768946 q 1.116211,0.223242 1.637109,0.967383 0.545703,0.74414 0.719336,2.083593 l 0.223242,1.63711 -0.297656,0.396875 -0.892969,0.297656 0.37207,2.108398 -0.421679,0.396875 h -1.959571 z m 1.438672,-16.743164 0.917774,-0.322461 Q 17.618415,29.174336 17.494392,28.579023 17.370368,28.08293 17.246345,27.611641 17.122322,27.115547 16.973493,26.917109 16.700642,26.520234 16.254157,26.371406 15.807673,26.222578 15.385993,26.172969 v 6.374804 h 1.513086 l -0.322461,-1.909961 z m 3.001367,-10.740429 0.570508,-0.124024 h 0.09922 q 0.04961,0 0.07441,0.02481 0.04961,0 0.09922,0 0.272851,0 0.545703,-0.148828 0.124023,-0.198438 0.124023,-0.471289 0,-0.09922 -0.124023,-0.297657 -0.124024,-0.198437 -0.595313,-0.198437 -0.421679,0 -0.669726,0.173633 -0.272852,0.148828 -3.199805,4.836914 0.173633,-0.07441 0.446485,-0.07441 0.446484,0 1.16582,0.297656 z"
         style="stroke-width:0.26458332"
         id="path20982"
         inkscape:connector-curvature="0" />
    </g>
  </g>
</svg>
