<?xml version="1.0" encoding="UTF-8" standalone="no"?>
<!-- Created with Inkscape (http://www.inkscape.org/) -->

<svg
   xmlns:dc="http://purl.org/dc/elements/1.1/"
   xmlns:cc="http://creativecommons.org/ns#"
   xmlns:rdf="http://www.w3.org/1999/02/22-rdf-syntax-ns#"
   xmlns:svg="http://www.w3.org/2000/svg"
   xmlns="http://www.w3.org/2000/svg"
   xmlns:sodipodi="http://sodipodi.sourceforge.net/DTD/sodipodi-0.dtd"
   xmlns:inkscape="http://www.inkscape.org/namespaces/inkscape"
   width="24.829493mm"
   height="37.256641mm"
   viewBox="0 0 24.829493 37.256641"
   version="1.1"
   id="svg20991"
   inkscape:version="0.92.4 (5da689c313, 2019-01-14)"
   sodipodi:docname="R20.svg">
  <defs
     id="defs20985" />
  <sodipodi:namedview
     id="base"
     pagecolor="#ffffff"
     bordercolor="#666666"
     borderopacity="1.0"
     inkscape:pageopacity="0.0"
     inkscape:pageshadow="2"
     inkscape:zoom="0.35"
     inkscape:cx="-348.97321"
     inkscape:cy="-362.85716"
     inkscape:document-units="mm"
     inkscape:current-layer="layer1"
     showgrid="false"
     showguides="false"
     fit-margin-top="0"
     fit-margin-left="0"
     fit-margin-right="0"
     fit-margin-bottom="0"
     inkscape:window-width="1920"
     inkscape:window-height="1017"
     inkscape:window-x="-8"
     inkscape:window-y="-8"
     inkscape:window-maximized="1" />
  <metadata
     id="metadata20988">
    <rdf:RDF>
      <cc:Work
         rdf:about="">
        <dc:format>image/svg+xml</dc:format>
        <dc:type
           rdf:resource="http://purl.org/dc/dcmitype/StillImage" />
        <dc:title></dc:title>
      </cc:Work>
    </rdf:RDF>
  </metadata>
  <g
     inkscape:label="Layer 1"
     inkscape:groupmode="layer"
     id="layer1"
     transform="translate(-5.0199961,-15.570737)">
    <g
       aria-label="𓋇"
       style="font-style:normal;font-variant:normal;font-weight:normal;font-stretch:normal;font-size:50.79999924px;line-height:1.25;font-family:sans-serif;-inkscape-font-specification:'sans-serif, Normal';font-variant-ligatures:normal;font-variant-caps:normal;font-variant-numeric:normal;font-feature-settings:normal;text-align:start;letter-spacing:0px;word-spacing:0px;writing-mode:lr-tb;text-anchor:start;fill:#000000;fill-opacity:1;stroke:none;stroke-width:0.26458332"
       id="text21538">
      <path
         d="m 17.42234,21.201401 0.595312,5.233789 0.967383,0.198438 4.043164,-3.001367 -3.199805,3.795117 0.396875,1.091406 5.18418,0.694531 -5.18418,0.496094 -0.396875,0.917773 3.199805,3.795117 -4.216797,-3.174999 -0.79375,0.37207 V 52.827377 H 16.827027 V 31.61937 l -0.79375,-0.37207 -4.216797,3.174999 3.199805,-3.795117 -0.396875,-0.917773 -5.2089842,-0.496094 5.2089842,-0.694531 0.396875,-1.091406 -3.199805,-3.795117 3.993555,3.001367 1.016992,-0.198438 z m -1.909961,-5.630664 h 3.844726 v 1.860352 q 1.066602,1.860351 3.844727,3.001367 0.322461,0.148828 0.843359,0.42168 0.520899,0.248046 1.041797,0.595312 0.545703,0.347266 1.016992,0.768945 0.471289,0.396875 0.719336,0.84336 0.396875,0.719336 0.744141,2.083593 0.37207,1.364258 0.694531,3.373438 0.322461,2.00918 0.719336,3.423047 0.396875,1.389062 0.868164,2.257226 Q 28.807691,33.20687 28.212379,31.966635 27.641871,30.701596 27.220191,29.138901 26.94734,28.02269 26.674488,27.005698 26.451246,26.137534 26.228004,25.194956 26.004761,24.252378 25.855933,23.632261 25.409449,23.210581 24.367652,22.51605 23.35066,21.821518 21.961597,21.102182 19.208277,19.663511 18.240894,17.976792 V 16.686948 H 16.62859 v 1.289844 q -1.016992,1.711523 -3.720703,3.075781 -1.364258,0.694531 -2.406055,1.413867 -1.0169922,0.694532 -1.4882812,1.165821 l -1.3890625,5.481835 q -0.3720703,1.562696 -0.9921875,2.827735 -0.5953125,1.240234 -1.6123047,2.257226 0.9177735,-1.711523 1.5626953,-5.630664 0.322461,-1.95957 0.6697266,-3.323828 0.3720703,-1.364258 0.7689453,-2.133203 0.1984375,-0.37207 0.6201172,-0.768945 0.4464843,-0.42168 0.9673828,-0.79375 0.5457027,-0.37207 1.0914057,-0.669727 0.545704,-0.297656 0.942579,-0.471289 2.827734,-1.141015 3.869531,-2.976562 z M 17.42234,30.82562 q 0.74414,0 1.265039,-0.496094 0.520898,-0.520898 0.520898,-1.265039 0,-0.744141 -0.520898,-1.265039 -0.520899,-0.545703 -1.265039,-0.545703 -0.744141,0 -1.265039,0.545703 -0.520899,0.520898 -0.520899,1.265039 0,0.744141 0.520899,1.265039 0.520898,0.496094 1.265039,0.496094 z"
         style="stroke-width:0.26458332"
         id="path21540"
         inkscape:connector-curvature="0" />
    </g>
  </g>
</svg>
