<?xml version="1.0" encoding="UTF-8" standalone="no"?>
<!-- Created with Inkscape (http://www.inkscape.org/) -->

<svg
   xmlns:dc="http://purl.org/dc/elements/1.1/"
   xmlns:cc="http://creativecommons.org/ns#"
   xmlns:rdf="http://www.w3.org/1999/02/22-rdf-syntax-ns#"
   xmlns:svg="http://www.w3.org/2000/svg"
   xmlns="http://www.w3.org/2000/svg"
   xmlns:sodipodi="http://sodipodi.sourceforge.net/DTD/sodipodi-0.dtd"
   xmlns:inkscape="http://www.inkscape.org/namespaces/inkscape"
   width="17.338472mm"
   height="37.653515mm"
   viewBox="0 0 17.338472 37.653515"
   version="1.1"
   id="svg21549"
   inkscape:version="0.92.4 (5da689c313, 2019-01-14)"
   sodipodi:docname="R21.svg">
  <defs
     id="defs21543" />
  <sodipodi:namedview
     id="base"
     pagecolor="#ffffff"
     bordercolor="#666666"
     borderopacity="1.0"
     inkscape:pageopacity="0.0"
     inkscape:pageshadow="2"
     inkscape:zoom="0.35"
     inkscape:cx="-377.54464"
     inkscape:cy="-368.57143"
     inkscape:document-units="mm"
     inkscape:current-layer="layer1"
     showgrid="false"
     fit-margin-top="0"
     fit-margin-left="0"
     fit-margin-right="0"
     fit-margin-bottom="0"
     inkscape:window-width="1920"
     inkscape:window-height="1017"
     inkscape:window-x="-8"
     inkscape:window-y="-8"
     inkscape:window-maximized="1" />
  <metadata
     id="metadata21546">
    <rdf:RDF>
      <cc:Work
         rdf:about="">
        <dc:format>image/svg+xml</dc:format>
        <dc:type
           rdf:resource="http://purl.org/dc/dcmitype/StillImage" />
        <dc:title></dc:title>
      </cc:Work>
    </rdf:RDF>
  </metadata>
  <g
     inkscape:label="Layer 1"
     inkscape:groupmode="layer"
     id="layer1"
     transform="translate(-12.57952,-13.66196)">
    <g
       aria-label="𓋈"
       style="font-style:normal;font-variant:normal;font-weight:normal;font-stretch:normal;font-size:50.79999924px;line-height:1.25;font-family:sans-serif;-inkscape-font-specification:'sans-serif, Normal';font-variant-ligatures:normal;font-variant-caps:normal;font-variant-numeric:normal;font-feature-settings:normal;text-align:start;letter-spacing:0px;word-spacing:0px;writing-mode:lr-tb;text-anchor:start;fill:#000000;fill-opacity:1;stroke:none;stroke-width:0.26458332"
       id="text22096">
      <path
         d="m 21.31077,14.257273 q 0.471289,-0.595313 1.16582,-0.595313 0.595313,0 1.091407,0.545704 0.520898,0.520898 0.719336,1.488281 0.272851,1.314648 0.421679,2.158008 0.173633,0.818554 0.248047,1.339453 0.09922,0.496093 0.124024,0.79375 0.0248,0.272851 0.0248,0.496093 0,1.116211 -0.620117,1.959571 -0.595312,0.818554 -2.00918,1.016992 2.257227,0.520898 4.142383,1.761133 1.885156,1.240234 3.299024,3.050976 l -0.396875,0.09922 q -1.116211,-0.942578 -1.984375,-1.5875 -0.868165,-0.669727 -1.711524,-1.116211 -0.843359,-0.446484 -1.810742,-0.694531 -0.942578,-0.248047 -2.282031,-0.372071 0,0.818555 0.0248,1.63711 0.02481,0.719336 0.02481,1.562695 0.02481,0.818555 0.04961,1.5875 l 0.793749,0.173633 3.373438,-2.505274 -2.678906,3.150196 0.37207,0.942578 4.266406,0.545703 -4.266406,0.42168 -0.37207,0.768945 2.678906,3.150195 -3.423047,-2.579687 -0.74414,0.248047 V 51.315475 H 20.839481 V 33.704148 l -0.669727,-0.322461 -3.49746,2.654101 2.654101,-3.150195 -0.322461,-0.768945 -4.34082,-0.42168 4.34082,-0.545703 0.322461,-0.942578 -2.654101,-3.150196 3.323828,2.505274 0.843359,-0.173633 q 0,-0.79375 0,-1.637109 0.02481,-0.84336 0.04961,-1.562696 0.02481,-0.818554 0.04961,-1.5875 -1.413867,0 -2.604492,0.347266 -1.190625,0.347266 -2.182813,0.892969 -0.967383,0.545703 -1.736328,1.240234 -0.744141,0.669727 -1.289844,1.314649 L 12.57952,28.32153 q 0.719336,-0.942578 1.612305,-1.761132 0.917773,-0.84336 1.909961,-1.488282 1.016992,-0.644921 2.058789,-1.066601 1.066601,-0.42168 2.033984,-0.570508 -0.768945,-0.07441 -1.289844,-0.347265 -0.496093,-0.297657 -0.79375,-0.694532 -0.297656,-0.396875 -0.421679,-0.868164 -0.124024,-0.496094 -0.124024,-0.942578 0,-0.620117 0.07441,-1.240234 0.09922,-0.620117 0.198438,-1.165821 0.272851,-1.761132 0.520898,-2.604492 0.272852,-0.868164 0.595313,-1.190625 0.620117,-0.669726 1.289844,-0.669726 0.620117,0 1.066601,0.545703 z m 0.42168,8.508008 q 1.289843,-0.07441 1.934765,-0.545704 0.644922,-0.471289 0.644922,-1.661914 0,-0.124023 -0.04961,-0.620117 -0.04961,-0.496093 -0.148828,-1.16582 -0.09922,-0.694531 -0.248047,-1.438672 -0.148828,-0.768945 -0.347266,-1.389062 -0.173633,-0.644922 -0.421679,-1.066602 -0.223243,-0.42168 -0.496094,-0.42168 -0.297656,0 -0.496094,0.124024 -0.173633,0.124023 -0.37207,0.520898 z M 20.9387,15.100632 q -0.124024,-0.272851 -0.297656,-0.446484 -0.173633,-0.173633 -0.496094,-0.173633 -0.79375,0.272852 -1.041797,1.438672 -0.124024,0.595312 -0.198438,0.917773 -0.04961,0.322461 -0.07441,0.372071 -0.124023,0.74414 -0.223242,1.289843 -0.07441,0.545704 -0.124023,0.942579 -0.04961,0.396874 -0.07441,0.694531 0,0.272851 0,0.520898 0,1.141016 0.595312,1.5875 0.595313,0.42168 1.934766,0.520899 z m 1.364258,17.809766 0.37207,-0.396875 0.248047,-0.396875 v -0.967383 l -0.198438,-0.570508 -0.496094,-0.396875 h -1.835546 l -0.446485,0.496094 -0.148828,0.471289 v 0.967383 l 0.223242,0.396875 0.42168,0.396875 z"
         style="stroke-width:0.26458332"
         id="path22098"
         inkscape:connector-curvature="0" />
    </g>
  </g>
</svg>
