<?xml version="1.0" encoding="UTF-8" standalone="no"?>
<!-- Created with Inkscape (http://www.inkscape.org/) -->

<svg
   xmlns:dc="http://purl.org/dc/elements/1.1/"
   xmlns:cc="http://creativecommons.org/ns#"
   xmlns:rdf="http://www.w3.org/1999/02/22-rdf-syntax-ns#"
   xmlns:svg="http://www.w3.org/2000/svg"
   xmlns="http://www.w3.org/2000/svg"
   xmlns:sodipodi="http://sodipodi.sourceforge.net/DTD/sodipodi-0.dtd"
   xmlns:inkscape="http://www.inkscape.org/namespaces/inkscape"
   width="37.876759mm"
   height="9.5249987mm"
   viewBox="0 0 37.876759 9.5249987"
   version="1.1"
   id="svg22107"
   inkscape:version="0.92.4 (5da689c313, 2019-01-14)"
   sodipodi:docname="R23.svg">
  <defs
     id="defs22101" />
  <sodipodi:namedview
     id="base"
     pagecolor="#ffffff"
     bordercolor="#666666"
     borderopacity="1.0"
     inkscape:pageopacity="0.0"
     inkscape:pageshadow="2"
     inkscape:zoom="0.35"
     inkscape:cx="-340.40179"
     inkscape:cy="-356.67411"
     inkscape:document-units="mm"
     inkscape:current-layer="layer1"
     showgrid="false"
     fit-margin-top="0"
     fit-margin-left="0"
     fit-margin-right="0"
     fit-margin-bottom="0"
     inkscape:window-width="1920"
     inkscape:window-height="1017"
     inkscape:window-x="-8"
     inkscape:window-y="-8"
     inkscape:window-maximized="1" />
  <metadata
     id="metadata22104">
    <rdf:RDF>
      <cc:Work
         rdf:about="">
        <dc:format>image/svg+xml</dc:format>
        <dc:type
           rdf:resource="http://purl.org/dc/dcmitype/StillImage" />
        <dc:title></dc:title>
      </cc:Work>
    </rdf:RDF>
  </metadata>
  <g
     inkscape:label="Layer 1"
     inkscape:groupmode="layer"
     id="layer1"
     transform="translate(-2.7521392,-44.93831)">
    <g
       aria-label="𓋊"
       style="font-style:normal;font-variant:normal;font-weight:normal;font-stretch:normal;font-size:50.79999924px;line-height:1.25;font-family:sans-serif;-inkscape-font-specification:'sans-serif, Normal';font-variant-ligatures:normal;font-variant-caps:normal;font-variant-numeric:normal;font-feature-settings:normal;text-align:start;letter-spacing:0px;word-spacing:0px;writing-mode:lr-tb;text-anchor:start;fill:#000000;fill-opacity:1;stroke:none;stroke-width:0.26458332"
       id="text22654">
      <path
         d="m 15.104873,45.136748 v 2.306836 l 2.406055,-0.570508 v -1.736328 h 0.992188 v 1.240234 q 0.248046,-0.07441 0.620117,-0.223242 0.396875,-0.148828 0.818554,-0.272852 0.42168,-0.124023 0.868164,-0.223242 0.446485,-0.09922 0.84336,-0.09922 0.694531,0 1.513086,0.272851 0.843359,0.248047 1.736328,0.545703 v -1.240234 h 0.992187 v 1.736328 l 2.406055,0.545703 V 45.21116 l 0.768945,-0.198438 q 0.520899,1.364258 1.835547,1.885157 1.339453,0.496093 3.447852,0.496093 1.438671,0 2.480468,0.09922 1.041797,0.07441 1.785938,0.297656 0.74414,0.198438 1.215429,0.570508 0.496094,0.372071 0.79375,0.917774 v 0.496093 q -0.446484,0.545703 -1.041796,0.917774 -0.570508,0.347265 -1.364258,0.595312 -0.768946,0.223242 -1.810742,0.347266 -1.016993,0.09922 -2.331641,0.173633 -1.314648,0.04961 -2.232422,0.198437 -0.892969,0.148828 -1.389062,0.471289 -1.016992,0.644922 -1.389063,1.984375 L 28.300967,54.264872 V 51.66038 l -2.406055,0.545703 v 2.133203 h -0.992187 v -1.63711 q -0.79375,0.297657 -1.63711,0.570508 -0.818554,0.248047 -1.513085,0.248047 -0.892969,-0.04961 -1.736329,-0.272851 -0.818554,-0.248047 -1.513085,-0.545704 v 1.63711 H 17.510928 V 52.206083 L 15.104873,51.66038 v 2.678906 l -0.79375,0.07441 Q 13.641397,52.305302 11.557803,52.032451 10.516006,51.908427 9.3253813,51.809209 8.159561,51.70999 6.8201079,51.635576 4.116397,51.437138 2.8265533,49.824834 L 2.7521392,49.32874 Q 3.322647,48.460576 4.2404204,48.038896 5.1581938,47.592412 6.3488188,47.517998 l 4.3904292,-0.272852 q 1.438672,-0.09922 2.306836,-0.595312 0.892969,-0.520899 1.314649,-1.711524 z m 3.398243,6.746875 q 0.32246,0.09922 0.719335,0.248047 0.42168,0.124023 0.84336,0.248047 0.446484,0.124023 0.868164,0.223242 0.42168,0.09922 0.768945,0.124023 0.322461,0 0.768945,-0.07441 0.446485,-0.09922 0.892969,-0.223242 0.471289,-0.148828 0.868164,-0.272852 0.42168,-0.148828 0.669727,-0.272851 v -4.688086 q -0.79375,-0.248047 -1.686719,-0.545703 -0.868164,-0.297656 -1.562695,-0.297656 -0.396875,0.0248 -0.818555,0.124023 -0.42168,0.09922 -0.843359,0.248047 -0.396875,0.124023 -0.79375,0.272851 -0.372071,0.124024 -0.694531,0.223243 z m 10.591601,0.79375 q 0.669726,-0.868164 1.661914,-1.21543 0.992187,-0.347266 2.406055,-0.396875 1.885156,-0.07441 3.075781,-0.198437 1.215429,-0.148829 1.934765,-0.347266 0.744141,-0.198438 1.091407,-0.446484 0.37207,-0.272852 0.570507,-0.595313 -0.32246,-0.570508 -1.041796,-0.843359 -0.719336,-0.297656 -1.661914,-0.347266 -0.917774,-0.04961 -1.5875,-0.07441 -0.644922,-0.04961 -1.165821,-0.07441 -0.520898,-0.04961 -0.992187,-0.07441 -0.471289,-0.02481 -1.016992,-0.04961 -2.207618,-0.148829 -3.274219,-1.413868 z m -14.783594,0.0248 v -6.077148 q -0.322461,0.37207 -0.719336,0.644922 -0.396875,0.248047 -0.942578,0.42168 -0.545703,0.148828 -1.265039,0.248047 -0.719336,0.07441 -1.7115231,0.148828 l -2.38125,0.148828 q -1.0417968,0.04961 -2.0091796,0.272851 -0.9673828,0.198438 -1.6867187,0.992188 1.2402343,1.463476 5.308203,1.463476 4.1175784,0 5.4074214,1.736328 z M 28.300967,48.23733 25.894912,47.691627 v 3.720703 l 2.406055,-0.570508 z m -13.196094,2.604492 2.406055,0.545703 v -3.695898 l -2.406055,0.545703 z"
         style="stroke-width:0.26458332"
         id="path22656"
         inkscape:connector-curvature="0" />
    </g>
  </g>
</svg>
