<?xml version="1.0" encoding="UTF-8" standalone="no"?>
<!-- Created with Inkscape (http://www.inkscape.org/) -->

<svg
   xmlns:dc="http://purl.org/dc/elements/1.1/"
   xmlns:cc="http://creativecommons.org/ns#"
   xmlns:rdf="http://www.w3.org/1999/02/22-rdf-syntax-ns#"
   xmlns:svg="http://www.w3.org/2000/svg"
   xmlns="http://www.w3.org/2000/svg"
   xmlns:sodipodi="http://sodipodi.sourceforge.net/DTD/sodipodi-0.dtd"
   xmlns:inkscape="http://www.inkscape.org/namespaces/inkscape"
   width="37.256641mm"
   height="13.568164mm"
   viewBox="0 0 37.256641 13.568164"
   version="1.1"
   id="svg22665"
   inkscape:version="0.92.4 (5da689c313, 2019-01-14)"
   sodipodi:docname="R24.svg">
  <defs
     id="defs22659" />
  <sodipodi:namedview
     id="base"
     pagecolor="#ffffff"
     bordercolor="#666666"
     borderopacity="1.0"
     inkscape:pageopacity="0.0"
     inkscape:pageshadow="2"
     inkscape:zoom="0.35"
     inkscape:cx="-337.54464"
     inkscape:cy="-383.26786"
     inkscape:document-units="mm"
     inkscape:current-layer="layer1"
     showgrid="false"
     fit-margin-top="0"
     fit-margin-left="0"
     fit-margin-right="0"
     fit-margin-bottom="0"
     inkscape:window-width="1920"
     inkscape:window-height="1017"
     inkscape:window-x="-8"
     inkscape:window-y="-8"
     inkscape:window-maximized="1" />
  <metadata
     id="metadata22662">
    <rdf:RDF>
      <cc:Work
         rdf:about="">
        <dc:format>image/svg+xml</dc:format>
        <dc:type
           rdf:resource="http://purl.org/dc/dcmitype/StillImage" />
        <dc:title></dc:title>
      </cc:Work>
    </rdf:RDF>
  </metadata>
  <g
     inkscape:label="Layer 1"
     inkscape:groupmode="layer"
     id="layer1"
     transform="translate(-1.9961868,-33.858881)">
    <g
       aria-label="𓋋"
       style="font-style:normal;font-variant:normal;font-weight:normal;font-stretch:normal;font-size:50.79999924px;line-height:1.25;font-family:sans-serif;-inkscape-font-specification:'sans-serif, Normal';font-variant-ligatures:normal;font-variant-caps:normal;font-variant-numeric:normal;font-feature-settings:normal;text-align:start;letter-spacing:0px;word-spacing:0px;writing-mode:lr-tb;text-anchor:start;fill:#000000;fill-opacity:1;stroke:none;stroke-width:0.26458332"
       id="text23212">
      <path
         d="m 11.794038,45.045795 q -0.74414,0 -1.413867,-0.272852 Q 9.7104445,44.500092 9.2143507,44.028803 8.718257,43.557514 8.4206007,42.912592 8.1229445,42.26767 8.1229445,41.548334 5.8409133,42.193256 4.5510695,43.731146 3.2612258,45.244232 3.2364211,47.427045 H 1.9961868 q 0,-1.289844 0.3224609,-2.356445 Q 2.6659133,43.979193 3.2612258,43.160639 3.881343,42.317279 4.7247024,41.697162 5.5680617,41.077045 6.6098586,40.704975 5.5680617,40.357709 4.7247024,39.762397 3.881343,39.167084 3.2612258,38.323725 2.6659133,37.455561 2.3186477,36.33935 1.9961868,35.223139 1.9961868,33.858881 h 1.2402343 q 0.049609,1.240234 0.3472657,2.182812 0.2976562,0.942579 0.8929687,1.63711 0.5953125,0.694531 1.4882812,1.190625 0.8929688,0.496094 2.1332031,0.868164 0,-0.694531 0.2480469,-1.339453 0.2728515,-0.644922 0.7441406,-1.116211 0.471289,-0.471289 1.1162107,-0.744141 0.644922,-0.297656 1.389063,-0.297656 h 17.487304 q 0.79375,0 1.513086,0.297656 0.719336,0.272852 1.265039,0.744141 0.570508,0.471289 0.892969,1.116211 0.322461,0.644922 0.322461,1.339453 1.265039,-0.347266 2.158008,-0.84336 0.917773,-0.496093 1.513085,-1.190624 0.595313,-0.719336 0.892969,-1.661915 0.297656,-0.942578 0.37207,-2.182812 h 1.240235 q 0,1.364258 -0.347266,2.480469 -0.322461,1.116211 -0.942578,1.984375 -0.620117,0.843359 -1.463476,1.438672 -0.84336,0.595312 -1.885157,0.942578 2.058789,0.768945 3.323828,2.455664 1.289844,1.661914 1.314649,4.266406 h -1.240235 q 0,-2.182813 -1.314648,-3.695899 -1.314648,-1.53789 -3.59668,-2.182812 0,0.719336 -0.322461,1.364258 -0.297656,0.644922 -0.843359,1.116211 -0.545703,0.471289 -1.289844,0.74414 -0.719336,0.272852 -1.562695,0.272852 z m 17.288867,-0.79375 q 1.909961,-0.09922 2.629297,-1.16582 0.719336,-1.066602 0.719336,-2.43086 0,-0.768945 -0.223242,-1.438672 -0.198438,-0.669726 -0.620117,-1.141015 -0.42168,-0.496094 -1.066602,-0.768945 -0.620117,-0.272852 -1.438672,-0.272852 H 11.000288 q -0.446484,0.07441 -0.868164,0.37207 -0.3968748,0.297657 -0.6945311,0.79375 -0.2976562,0.471289 -0.471289,1.091406 -0.1736329,0.620118 -0.1736329,1.314649 0,0.744141 0.1736329,1.413867 0.1984375,0.669727 0.5705078,1.16582 0.3720703,0.496094 0.9425783,0.79375 0.570508,0.272852 1.314648,0.272852 z"
         style="stroke-width:0.26458332"
         id="path23214"
         inkscape:connector-curvature="0" />
    </g>
  </g>
</svg>
