<?xml version="1.0" encoding="UTF-8" standalone="no"?>
<!-- Created with Inkscape (http://www.inkscape.org/) -->

<svg
   xmlns:dc="http://purl.org/dc/elements/1.1/"
   xmlns:cc="http://creativecommons.org/ns#"
   xmlns:rdf="http://www.w3.org/1999/02/22-rdf-syntax-ns#"
   xmlns:svg="http://www.w3.org/2000/svg"
   xmlns="http://www.w3.org/2000/svg"
   xmlns:sodipodi="http://sodipodi.sourceforge.net/DTD/sodipodi-0.dtd"
   xmlns:inkscape="http://www.inkscape.org/namespaces/inkscape"
   width="22.324219mm"
   height="37.256641mm"
   viewBox="0 0 22.324219 37.256641"
   version="1.1"
   id="svg23223"
   inkscape:version="0.92.4 (5da689c313, 2019-01-14)"
   sodipodi:docname="R25.svg">
  <defs
     id="defs23217" />
  <sodipodi:namedview
     id="base"
     pagecolor="#ffffff"
     bordercolor="#666666"
     borderopacity="1.0"
     inkscape:pageopacity="0.0"
     inkscape:pageshadow="2"
     inkscape:zoom="0.35"
     inkscape:cx="-360.40179"
     inkscape:cy="-405.71429"
     inkscape:document-units="mm"
     inkscape:current-layer="layer1"
     showgrid="false"
     fit-margin-top="0"
     fit-margin-left="0"
     fit-margin-right="0"
     fit-margin-bottom="0"
     inkscape:window-width="1920"
     inkscape:window-height="1017"
     inkscape:window-x="-8"
     inkscape:window-y="-8"
     inkscape:window-maximized="1" />
  <metadata
     id="metadata23220">
    <rdf:RDF>
      <cc:Work
         rdf:about="">
        <dc:format>image/svg+xml</dc:format>
        <dc:type
           rdf:resource="http://purl.org/dc/dcmitype/StillImage" />
        <dc:title></dc:title>
      </cc:Work>
    </rdf:RDF>
  </metadata>
  <g
     inkscape:label="Layer 1"
     inkscape:groupmode="layer"
     id="layer1"
     transform="translate(-8.0438061,-4.2314543)">
    <g
       aria-label="𓋌"
       style="font-style:normal;font-variant:normal;font-weight:normal;font-stretch:normal;font-size:50.79999924px;line-height:1.25;font-family:sans-serif;-inkscape-font-specification:'sans-serif, Normal';font-variant-ligatures:normal;font-variant-caps:normal;font-variant-numeric:normal;font-feature-settings:normal;text-align:start;letter-spacing:0px;word-spacing:0px;writing-mode:lr-tb;text-anchor:start;fill:#000000;fill-opacity:1;stroke:none;stroke-width:0.26458332"
       id="text23770">
      <path
         d="M 26.647321,34.69161 24.78697,34.542782 q 0.07441,1.091406 0.42168,2.058789 0.37207,0.967383 0.992187,1.711523 0.620117,0.744141 1.463477,1.265039 0.868164,0.496094 1.95957,0.669727 v 1.240234 q -1.314649,-0.04961 -2.430859,-0.669726 -1.116211,-0.644922 -1.934766,-1.63711 -0.79375,-0.992187 -1.265039,-2.232421 -0.446484,-1.240235 -0.446484,-2.554883 l -9.15293,-0.917774 q -0.0248,1.364258 -0.496094,2.579688 -0.471289,1.190625 -1.314648,2.108398 -0.84336,0.917774 -2.00918,1.488281 -1.1410155,0.570508 -2.5300779,0.644922 v -1.240234 q 1.0417968,-0.173633 1.9595699,-0.620117 0.917774,-0.471289 1.612305,-1.190625 0.719336,-0.744141 1.116211,-1.736328 0.42168,-1.016992 0.42168,-2.257227 L 11.7149,33.079305 11.342829,32.608016 V 11.548837 l 0.496094,-0.446484 1.686719,0.198437 Q 13.227986,10.010946 12.831111,9.0435636 12.434236,8.0761808 11.789314,7.3816495 11.169197,6.6871183 10.251423,6.2406339 9.3336498,5.7693449 8.0438061,5.4716886 V 4.2314543 q 1.4138671,0.049609 2.5796879,0.6697265 1.190625,0.5953125 2.083593,1.5875 0.892969,0.9673828 1.413867,2.2572265 0.545704,1.2898437 0.644922,2.7037107 l 9.202539,0.992188 q 0.02481,-1.339453 0.496094,-2.5796878 0.496094,-1.265039 1.339453,-2.2076171 0.868164,-0.9673828 2.033984,-1.5378906 1.165821,-0.5953125 2.530078,-0.6201172 V 6.7367277 Q 29.078181,6.9351652 28.135603,7.4560636 27.217829,7.976962 26.597712,8.7459073 25.977595,9.5148526 25.630329,10.50704 25.307868,11.474423 25.20865,12.590634 l 1.562695,0.124023 0.297656,0.372071 v 21.208007 z m -0.37207,-7.639844 V 20.478524 L 13.352009,25.315438 Z M 12.136579,25.96036 v 6.176367 l 12.848828,-4.464843 z m 0,-7.218164 v 6.176367 l 12.824024,-4.812109 z m 14.138672,0.719336 V 13.657235 L 13.525642,18.097274 Z M 24.78697,13.30997 12.136579,11.920907 v 5.804297 z m 1.488281,20.389453 v -5.630664 l -12.898437,4.390429 z"
         style="stroke-width:0.26458332"
         id="path23772"
         inkscape:connector-curvature="0" />
    </g>
  </g>
</svg>
