<?xml version="1.0" encoding="UTF-8" standalone="no"?>
<svg
   xmlns:dc="http://purl.org/dc/elements/1.1/"
   xmlns:cc="http://creativecommons.org/ns#"
   xmlns:rdf="http://www.w3.org/1999/02/22-rdf-syntax-ns#"
   xmlns:svg="http://www.w3.org/2000/svg"
   xmlns="http://www.w3.org/2000/svg"
   xmlns:sodipodi="http://sodipodi.sourceforge.net/DTD/sodipodi-0.dtd"
   xmlns:inkscape="http://www.inkscape.org/namespaces/inkscape"
   version="1.0"
   width="224.84581pt"
   height="392.90363pt"
   viewBox="0 0 224.84581 392.90363"
   preserveAspectRatio="xMidYMid meet"
   id="svg10"
   sodipodi:docname="R27.svg"
   inkscape:version="0.92.4 (5da689c313, 2019-01-14)">
  <defs
     id="defs14" />
  <sodipodi:namedview
     pagecolor="#ffffff"
     bordercolor="#666666"
     borderopacity="1"
     objecttolerance="10"
     gridtolerance="10"
     guidetolerance="10"
     inkscape:pageopacity="0"
     inkscape:pageshadow="2"
     inkscape:window-width="1920"
     inkscape:window-height="1017"
     id="namedview12"
     showgrid="false"
     fit-margin-top="0"
     fit-margin-left="0"
     fit-margin-right="0"
     fit-margin-bottom="0"
     inkscape:zoom="0.40136054"
     inkscape:cx="-176.03955"
     inkscape:cy="275.33333"
     inkscape:window-x="-8"
     inkscape:window-y="-8"
     inkscape:window-maximized="1"
     inkscape:current-layer="svg10" />
  <metadata
     id="metadata2">
Created by potrace 1.10, written by Peter Selinger 2001-2011
<rdf:RDF>
  <cc:Work
     rdf:about="">
    <dc:format>image/svg+xml</dc:format>
    <dc:type
       rdf:resource="http://purl.org/dc/dcmitype/StillImage" />
    <dc:title></dc:title>
  </cc:Work>
</rdf:RDF>
</metadata>
  <g
     transform="matrix(0.1,0,0,-0.1,-17,406.90363)"
     id="g8"
     style="fill:#000000;stroke:none">
    <path
       d="m 720,4047 c -25,-13 -56,-39 -72,-62 -24,-35 -27,-50 -28,-117 0,-66 5,-88 31,-145 51,-113 77,-166 109,-218 16,-27 34,-59 40,-70 5,-11 14,-27 20,-35 14,-22 95,-162 103,-180 4,-8 16,-28 27,-45 49,-77 61,-117 40,-130 -19,-12 -89,-123 -137,-216 -49,-96 -60,-123 -92,-219 -50,-149 -50,-173 -4,-191 47,-18 62,-11 82,34 22,51 40,101 51,144 10,43 105,234 146,295 19,28 34,52 34,55 0,10 65,89 115,139 77,77 207,171 308,223 163,83 177,98 153,156 -14,31 -19,35 -53,35 -22,-1 -55,-11 -78,-25 -22,-13 -62,-36 -89,-50 -27,-15 -59,-32 -70,-39 -26,-14 -97,-67 -111,-82 -33,-36 -134,-114 -148,-114 -19,0 -56,76 -49,102 2,9 24,40 48,68 47,55 70,114 61,152 -4,13 -51,76 -104,139 -168,195 -167,193 -148,228 8,17 15,44 15,60 0,51 -86,132 -137,130 -10,0 -38,-10 -63,-22 z m 49,-170 c -5,-17 -9,-33 -9,-35 0,-2 -4,0 -10,3 -14,9 -12,62 3,68 21,8 26,-2 16,-36 z m 136,-252 c 39,-42 82,-91 97,-108 l 27,-30 -27,-38 c -15,-21 -32,-39 -38,-39 -6,0 -28,33 -48,73 -21,39 -48,90 -60,112 -59,108 -76,142 -76,155 0,12 23,-11 125,-125 z"
       id="path4"
       inkscape:connector-curvature="0" />
    <path
       d="m 1450,3113 c -32,-5 -90,-33 -112,-55 -10,-9 -25,-22 -35,-30 -54,-40 -233,-272 -233,-302 0,-5 -6,-17 -14,-25 -17,-19 -46,-156 -46,-215 0,-42 13,-66 36,-66 10,0 114,141 114,155 0,12 81,123 94,128 8,3 30,-8 50,-26 l 35,-32 6,-465 c 3,-256 8,-549 11,-652 l 6,-187 -50,-53 c -69,-75 -85,-110 -91,-203 l -6,-80 -263,-3 -263,-2 -22,23 c -12,13 -56,61 -97,107 -100,111 -156,133 -239,91 -29,-15 -45,-35 -70,-83 -17,-35 -31,-69 -31,-75 0,-13 -23,-69 -46,-115 -8,-14 -14,-33 -14,-42 0,-25 41,-76 61,-76 10,0 26,-17 38,-41 36,-68 87,-108 198,-154 94,-39 250,26 321,135 l 33,50 h 128 128 l 54,-58 c 30,-31 96,-107 148,-167 52,-61 99,-114 105,-120 6,-5 38,-41 70,-78 58,-67 59,-69 65,-142 7,-86 27,-115 75,-115 17,0 42,9 56,20 l 25,19 5,318 5,318 342,5 341,5 27,25 c 21,20 25,32 23,64 -2,33 -9,44 -37,63 -34,23 -37,23 -362,23 -180,0 -334,3 -343,6 -11,4 -16,19 -16,45 0,47 -17,124 -36,162 -8,16 -14,34 -14,41 0,7 -20,27 -45,45 l -44,32 -3,667 c -3,552 -6,674 -18,707 -8,22 -38,65 -67,94 -29,30 -53,58 -53,61 0,3 38,43 85,89 77,76 85,88 85,121 0,49 -18,57 -100,43 z m 14,-1948 c 19,-12 25,-28 30,-76 8,-72 -1,-89 -51,-89 -60,0 -73,14 -73,74 0,48 3,57 31,80 36,31 33,30 63,11 z M 454,1052 c 15,-17 25,-35 22,-41 -4,-6 -32,-11 -62,-11 -66,0 -75,14 -44,65 24,39 35,38 84,-13 z M 616,818 c 14,-22 -35,-48 -92,-48 -42,0 -58,5 -74,23 l -21,22 83,6 c 46,3 86,6 90,7 4,1 10,-3 14,-10 z m 898,-21 c 10,-37 7,-195 -4,-202 -12,-7 -18,-2 -109,104 -78,91 -96,118 -81,123 5,2 50,2 99,0 82,-3 90,-5 95,-25 z"
       id="path6"
       inkscape:connector-curvature="0" />
  </g>
</svg>
