<?xml version="1.0" encoding="UTF-8" standalone="no"?>
<svg
   xmlns:dc="http://purl.org/dc/elements/1.1/"
   xmlns:cc="http://creativecommons.org/ns#"
   xmlns:rdf="http://www.w3.org/1999/02/22-rdf-syntax-ns#"
   xmlns:svg="http://www.w3.org/2000/svg"
   xmlns="http://www.w3.org/2000/svg"
   xmlns:sodipodi="http://sodipodi.sourceforge.net/DTD/sodipodi-0.dtd"
   xmlns:inkscape="http://www.inkscape.org/namespaces/inkscape"
   version="1.0"
   width="141pt"
   height="51.380733pt"
   viewBox="0 0 141 51.380733"
   preserveAspectRatio="xMidYMid meet"
   id="svg8"
   sodipodi:docname="R28.svg"
   inkscape:version="0.92.4 (5da689c313, 2019-01-14)">
  <defs
     id="defs12" />
  <sodipodi:namedview
     pagecolor="#ffffff"
     bordercolor="#666666"
     borderopacity="1"
     objecttolerance="10"
     gridtolerance="10"
     guidetolerance="10"
     inkscape:pageopacity="0"
     inkscape:pageshadow="2"
     inkscape:window-width="1920"
     inkscape:window-height="1017"
     id="namedview10"
     showgrid="false"
     fit-margin-top="0"
     fit-margin-left="0"
     fit-margin-right="0"
     fit-margin-bottom="0"
     inkscape:zoom="1.3935185"
     inkscape:cx="-2.1085271"
     inkscape:cy="32.146001"
     inkscape:window-x="-8"
     inkscape:window-y="-8"
     inkscape:window-maximized="1"
     inkscape:current-layer="svg8" />
  <metadata
     id="metadata2">
Created by potrace 1.10, written by Peter Selinger 2001-2011
<rdf:RDF>
  <cc:Work
     rdf:about="">
    <dc:format>image/svg+xml</dc:format>
    <dc:type
       rdf:resource="http://purl.org/dc/dcmitype/StillImage" />
    <dc:title></dc:title>
  </cc:Work>
</rdf:RDF>
</metadata>
  <g
     transform="matrix(0.1,0,0,-0.1,-11,73.771231)"
     id="g6"
     style="fill:#000000;stroke:none">
    <path
       d="M 695,725 C 592,711 500,689 442,664 c -18,-8 -37,-14 -42,-14 -8,0 -111,-49 -183,-87 -33,-17 -107,-86 -107,-99 0,-5 12,-22 26,-38 15,-15 41,-49 58,-75 33,-49 59,-81 89,-113 23,-24 54,-18 118,23 25,16 50,29 56,29 6,0 16,6 22,14 6,8 22,16 34,19 12,3 54,17 92,32 65,25 81,27 215,27 118,-1 156,-5 205,-21 118,-39 143,-51 220,-101 53,-34 78,-42 101,-31 37,16 174,205 174,239 0,28 -18,51 -50,66 -8,3 -28,15 -45,26 -32,20 -161,85 -210,105 -87,36 -125,44 -295,65 -94,11 -103,11 -225,-5 z m 349,-91 c 123,-28 226,-71 333,-141 l 52,-34 -52,-70 c -48,-65 -69,-80 -81,-61 -5,9 -112,62 -189,96 -21,9 -50,16 -66,16 -15,0 -50,7 -77,15 -96,29 -247,17 -409,-32 -49,-14 -172,-72 -208,-96 -15,-10 -24,-5 -67,43 -74,83 -74,93 5,136 89,48 169,84 215,97 30,9 78,22 105,30 72,22 344,22 439,1 z"
       id="path4"
       inkscape:connector-curvature="0" />
  </g>
</svg>
