<?xml version="1.0" encoding="UTF-8" standalone="no"?>
<!-- Created with Inkscape (http://www.inkscape.org/) -->

<svg
   xmlns:dc="http://purl.org/dc/elements/1.1/"
   xmlns:cc="http://creativecommons.org/ns#"
   xmlns:rdf="http://www.w3.org/1999/02/22-rdf-syntax-ns#"
   xmlns:svg="http://www.w3.org/2000/svg"
   xmlns="http://www.w3.org/2000/svg"
   xmlns:sodipodi="http://sodipodi.sourceforge.net/DTD/sodipodi-0.dtd"
   xmlns:inkscape="http://www.inkscape.org/namespaces/inkscape"
   width="17.239258mm"
   height="36.14043mm"
   viewBox="0 0 17.239258 36.14043"
   version="1.1"
   id="svg6470"
   inkscape:version="0.92.4 (5da689c313, 2019-01-14)"
   sodipodi:docname="R29.svg">
  <defs
     id="defs6464" />
  <sodipodi:namedview
     id="base"
     pagecolor="#ffffff"
     bordercolor="#666666"
     borderopacity="1.0"
     inkscape:pageopacity="0.0"
     inkscape:pageshadow="2"
     inkscape:zoom="0.35"
     inkscape:cx="-388.97266"
     inkscape:cy="-286.56516"
     inkscape:document-units="mm"
     inkscape:current-layer="layer1"
     showgrid="false"
     fit-margin-top="0"
     fit-margin-left="0"
     fit-margin-right="0"
     fit-margin-bottom="0"
     inkscape:window-width="1920"
     inkscape:window-height="1017"
     inkscape:window-x="-8"
     inkscape:window-y="-8"
     inkscape:window-maximized="1" />
  <metadata
     id="metadata6467">
    <rdf:RDF>
      <cc:Work
         rdf:about="">
        <dc:format>image/svg+xml</dc:format>
        <dc:type
           rdf:resource="http://purl.org/dc/dcmitype/StillImage" />
        <dc:title></dc:title>
      </cc:Work>
    </rdf:RDF>
  </metadata>
  <g
     inkscape:label="Layer 1"
     inkscape:groupmode="layer"
     id="layer1"
     transform="translate(-15.603182,-36.872539)">
    <g
       aria-label="ð“‹"
       transform="scale(0.26458333)"
       style="font-style:normal;font-variant:normal;font-weight:normal;font-stretch:normal;font-size:192px;line-height:1.25;font-family:sans-serif;-inkscape-font-specification:sans-serif;font-variant-ligatures:normal;font-variant-caps:normal;font-variant-numeric:normal;font-feature-settings:normal;text-align:start;letter-spacing:0px;word-spacing:0px;writing-mode:lr-tb;text-anchor:start;fill:#000000;fill-opacity:1;stroke:none"
       id="flowRoot7015">
      <path
         d="m 91.410156,139.36078 q 4.6875,0 9.750004,0.46875 5.0625,0.375 12.09375,1.40625 3.1875,0.46875 5.25,1.125 2.15625,0.65625 3.375,1.5 1.21875,0.84375 1.6875,1.875 0.5625,0.9375 0.5625,2.15625 0,0.1875 -0.28125,2.625 -0.1875,2.4375 -0.5625,6.5625 -0.375,4.125 -0.9375,9.65625 -0.5625,5.53125 -1.21875,12 -0.65625,6.375 -1.40625,13.5 -0.65625,7.03125 -1.3125,14.25 -2.53125,25.3125 -5.71875,57.46875 -0.5625,4.59375 -1.78125,6.1875 -0.28125,0.46875 -1.5,1.40625 -1.21875,0.9375 -2.71875,1.96875 -1.5,0.9375 -2.90625,1.6875 -1.40625,0.75 -2.0625,0.75 H 81.097656 q -1.59375,-0.46875 -3.1875,-1.3125 -1.5,-0.9375 -3.375,-2.25 -3.65625,-2.53125 -4.21875,-7.5 -3.46875,-31.40625 -5.71875,-53.625 -2.15625,-22.3125 -3.375,-36.375 -1.21875,-14.15625 -1.6875,-20.625 -0.46875,-6.5625 -0.5625,-6.5625 0.1875,-1.6875 1.03125,-2.71875 0.84375,-1.125 2.25,-1.78125 1.40625,-0.75 3.28125,-1.125 1.875,-0.46875 4.125,-0.84375 3.5625,-0.5625 6.5625,-0.84375 3,-0.375 5.625,-0.5625 2.625,-0.28125 4.96875,-0.375 2.34375,-0.0937 4.59375,-0.0937 z m -17.8125,17.15625 q 0.375,-1.40625 1.21875,-2.15625 0.9375,-0.84375 2.4375,-1.40625 1.5,-0.5625 3.46875,-1.03125 2.0625,-0.46875 4.59375,-1.125 6.09375,1.03125 8.53125,4.03125 2.53125,2.90625 2.53125,9 0,3.5625 -0.46875,6.46875 -0.375,2.90625 -1.21875,5.90625 -1.6875,5.90625 -1.6875,10.3125 0,2.4375 0.5625,5.53125 0.5625,3 1.21875,5.90625 0.28125,1.03125 0.46875,2.34375 0.1875,1.3125 0.375,2.625 0.1875,1.21875 0.28125,2.25 0.09375,0.9375 0.09375,1.3125 0,2.15625 -0.5625,5.0625 -0.46875,2.90625 -1.6875,6.5625 -0.84375,3.28125 -1.3125,6.375 -0.46875,3 -0.75,5.4375 -0.1875,2.4375 -0.28125,4.21875 -0.09375,1.6875 -0.09375,2.25 v 8.4375 q 0,3.75 -0.375,5.25 h 20.437504 q 2.4375,-24.09375 4.40625,-44.8125 0.84375,-8.8125 1.6875,-17.71875 0.84375,-9 1.5,-16.78125 0.75,-7.875 1.21875,-13.96875 0.5625,-6.09375 0.84375,-9.375 -0.28125,-0.46875 -1.03125,-0.9375 -0.75,-0.5625 -1.875,-0.9375 -1.125,-0.46875 -2.4375,-0.84375 -1.21875,-0.375 -2.4375,-0.5625 -4.6875,-0.65625 -8.0625,-0.9375 -3.28125,-0.375 -5.718754,-0.5625 -2.4375,-0.1875 -4.3125,-0.1875 -1.875,-0.0937 -3.5625,-0.0937 -2.0625,0 -5.0625,0.1875 -3,0.0937 -6.375,0.375 -3.28125,0.28125 -6.5625,0.75 -3.1875,0.375 -5.8125,0.9375 -2.625,0.5625 -4.21875,1.3125 -1.59375,0.65625 -1.59375,1.5 0.46875,7.5 1.125,15.84375 0.65625,8.34375 1.40625,16.96875 0.84375,8.53125 1.59375,17.0625 0.84375,8.53125 1.59375,16.3125 1.78125,18.1875 3.75,36.46875 h 17.8125 q -2.25,-4.5 -2.25,-18.65625 0,-4.125 0.9375,-7.96875 0.9375,-3.84375 1.3125,-5.90625 l 2.0625,-11.0625 q -0.1875,-1.6875 -0.375,-2.71875 -0.1875,-1.125 -0.46875,-2.0625 -0.1875,-0.9375 -0.46875,-1.96875 -0.28125,-1.03125 -0.5625,-2.4375 -0.75,-3.28125 -0.9375,-5.34375 -0.1875,-2.0625 -0.1875,-3.09375 0,-3.5625 0.5625,-6.46875 0.5625,-2.90625 1.125,-5.625 0.46875,-2.0625 0.75,-3.65625 0.375,-1.59375 0.5625,-2.8125 0.1875,-1.3125 0.28125,-2.34375 0.09375,-1.125 0.09375,-2.25 0,-1.21875 -0.5625,-2.53125 -0.5625,-1.40625 -1.59375,-2.53125 -0.9375,-1.125 -2.4375,-1.78125 -1.40625,-0.75 -3.1875,-0.75 -1.875,0 -3.375,0.5625 -1.5,0.5625 -2.71875,0.5625 -1.40625,0 -2.4375,-0.28125 -1.03125,-0.375 -1.78125,-2.4375 z m 7.59375,116.4375 h 20.437504 q 0.46875,-0.0937 1.5,-0.65625 1.03125,-0.65625 2.0625,-1.40625 1.125,-0.75 1.96875,-1.40625 0.9375,-0.75 1.125,-0.9375 1.03125,-1.3125 1.40625,-4.875 l 1.21875,-9 H 72.097656 q 0.28125,2.53125 0.5625,4.78125 0.1875,1.875 0.375,3.65625 0.1875,1.78125 0.28125,2.53125 0.09375,2.8125 4.3125,5.25 z"
         id="path7023"
         inkscape:connector-curvature="0" />
    </g>
  </g>
</svg>
