<?xml version="1.0" encoding="UTF-8" standalone="no"?>
<!-- Created with Inkscape (http://www.inkscape.org/) -->

<svg
   xmlns:dc="http://purl.org/dc/elements/1.1/"
   xmlns:cc="http://creativecommons.org/ns#"
   xmlns:rdf="http://www.w3.org/1999/02/22-rdf-syntax-ns#"
   xmlns:svg="http://www.w3.org/2000/svg"
   xmlns="http://www.w3.org/2000/svg"
   xmlns:sodipodi="http://sodipodi.sourceforge.net/DTD/sodipodi-0.dtd"
   xmlns:inkscape="http://www.inkscape.org/namespaces/inkscape"
   width="25.524023mm"
   height="37.653515mm"
   viewBox="0 0 25.524023 37.653515"
   version="1.1"
   id="svg3650"
   inkscape:version="0.92.4 (5da689c313, 2019-01-14)"
   sodipodi:docname="R2A.svg">
  <defs
     id="defs3644" />
  <sodipodi:namedview
     id="base"
     pagecolor="#ffffff"
     bordercolor="#666666"
     borderopacity="1.0"
     inkscape:pageopacity="0.0"
     inkscape:pageshadow="2"
     inkscape:zoom="0.35"
     inkscape:cx="-391.83008"
     inkscape:cy="-280.47532"
     inkscape:document-units="mm"
     inkscape:current-layer="layer1"
     showgrid="false"
     fit-margin-top="0"
     fit-margin-left="0"
     fit-margin-right="0"
     fit-margin-bottom="0"
     inkscape:window-width="1920"
     inkscape:window-height="1017"
     inkscape:window-x="-8"
     inkscape:window-y="-8"
     inkscape:window-maximized="1" />
  <metadata
     id="metadata3647">
    <rdf:RDF>
      <cc:Work
         rdf:about="">
        <dc:format>image/svg+xml</dc:format>
        <dc:type
           rdf:resource="http://purl.org/dc/dcmitype/StillImage" />
        <dc:title></dc:title>
      </cc:Work>
    </rdf:RDF>
  </metadata>
  <g
     inkscape:label="Layer 1"
     inkscape:groupmode="layer"
     id="layer1"
     transform="translate(-16.359208,-36.970723)">
    <g
       aria-label="𓊱"
       transform="scale(0.26458333)"
       style="font-style:normal;font-variant:normal;font-weight:normal;font-stretch:normal;font-size:192px;line-height:1.25;font-family:sans-serif;-inkscape-font-specification:sans-serif;font-variant-ligatures:normal;font-variant-caps:normal;font-variant-numeric:normal;font-feature-settings:normal;text-align:start;letter-spacing:0px;word-spacing:0px;writing-mode:lr-tb;text-anchor:start;fill:#000000;fill-opacity:1;stroke:none"
       id="flowRoot4205">
      <path
         d="m 156.79883,150.32562 1.5,1.96875 q -5.71875,11.15625 -13.21875,16.21875 -7.5,5.0625 -21.375,7.40625 l 11.34375,104.625 -1.59375,1.5 H 86.486328 l -1.40625,-1.78125 11.15625,-104.15625 q -10.3125,-1.6875 -19.21875,-6.375 -8.8125,-4.78125 -15.1875,-17.15625 l 1.21875,-2.25 h 4.59375 v -10.59375 h 4.59375 v 10.59375 h 15.46875 v -10.59375 h 4.59375 v 10.59375 h 15.468752 v -10.59375 h 4.5 v 10.59375 h 14.71875 v -10.59375 h 4.59375 v 10.59375 h 14.71875 v -10.59375 h 4.5 v 10.59375 z m -24.9375,128.71875 -11.0625,-102.65625 q -2.4375,0.46875 -4.78125,0.65625 -2.25,0.0937 -4.59375,0.0937 h -2.4375 q -4.875,0 -9.750002,-0.5625 l -10.96875,102.4688 z M 65.580078,153.32562 q 2.15625,3.75 4.875,6.9375 2.625,3.1875 6.375,5.625 3.28125,2.15625 7.21875,3.65625 3.9375,1.59375 8.0625,2.625 4.125,1.125 8.250002,1.59375 4.125,0.5625 7.875,0.65625 7.03125,0 13.96875,-1.125 6.84375,-0.9375 12.9375,-3.28125 6.09375,-2.25 11.0625,-6.28125 4.96875,-4.03125 8.25,-10.40625 z"
         id="path4213"
         inkscape:connector-curvature="0" />
    </g>
  </g>
</svg>
