<?xml version="1.0" encoding="UTF-8" standalone="no"?>
<!-- Created with Inkscape (http://www.inkscape.org/) -->

<svg
   xmlns:dc="http://purl.org/dc/elements/1.1/"
   xmlns:cc="http://creativecommons.org/ns#"
   xmlns:rdf="http://www.w3.org/1999/02/22-rdf-syntax-ns#"
   xmlns:svg="http://www.w3.org/2000/svg"
   xmlns="http://www.w3.org/2000/svg"
   xmlns:sodipodi="http://sodipodi.sourceforge.net/DTD/sodipodi-0.dtd"
   xmlns:inkscape="http://www.inkscape.org/namespaces/inkscape"
   width="37.207031mm"
   height="33.238281mm"
   viewBox="0 0 37.207031 33.238281"
   version="1.1"
   id="svg12043"
   inkscape:version="0.92.4 (5da689c313, 2019-01-14)"
   sodipodi:docname="R3.svg">
  <defs
     id="defs12037" />
  <sodipodi:namedview
     id="base"
     pagecolor="#ffffff"
     bordercolor="#666666"
     borderopacity="1.0"
     inkscape:pageopacity="0.0"
     inkscape:pageshadow="2"
     inkscape:zoom="0.35"
     inkscape:cx="-368.97321"
     inkscape:cy="-382.66965"
     inkscape:document-units="mm"
     inkscape:current-layer="layer1"
     showgrid="false"
     fit-margin-top="0"
     fit-margin-left="0"
     fit-margin-right="0"
     fit-margin-bottom="0"
     inkscape:window-width="1920"
     inkscape:window-height="1017"
     inkscape:window-x="-8"
     inkscape:window-y="-8"
     inkscape:window-maximized="1" />
  <metadata
     id="metadata12040">
    <rdf:RDF>
      <cc:Work
         rdf:about="">
        <dc:format>image/svg+xml</dc:format>
        <dc:type
           rdf:resource="http://purl.org/dc/dcmitype/StillImage" />
        <dc:title></dc:title>
      </cc:Work>
    </rdf:RDF>
  </metadata>
  <g
     inkscape:label="Layer 1"
     inkscape:groupmode="layer"
     id="layer1"
     transform="translate(-10.311663,-14.347042)">
    <g
       aria-label="𓊲"
       style="font-style:normal;font-variant:normal;font-weight:normal;font-stretch:normal;font-size:50.79999924px;line-height:1.25;font-family:sans-serif;-inkscape-font-specification:'sans-serif, Normal';font-variant-ligatures:normal;font-variant-caps:normal;font-variant-numeric:normal;font-feature-settings:normal;text-align:start;letter-spacing:0px;word-spacing:0px;writing-mode:lr-tb;text-anchor:start;fill:#000000;fill-opacity:1;stroke:none;stroke-width:0.26458332"
       id="text12590">
      <path
         d="m 31.09799,14.347042 v 0.79375 h -1.885156 v 2.033984 q 0.967383,0.223242 1.612305,0.644922 0.644922,0.42168 1.041797,0.992188 0.396875,0.570507 0.545703,1.289843 0.173633,0.719336 0.173633,1.537891 0,1.785937 -1.116211,6.201172 -0.545703,2.232421 -0.84336,3.943945 -0.272851,1.686719 -0.297656,2.951758 h 5.853906 q -0.669726,-0.570508 -1.066601,-1.661914 -0.396875,-1.091407 -0.396875,-2.530078 0,-1.190625 0.223242,-2.282032 0.223242,-1.116211 0.744141,-2.033984 0.545703,-0.942578 1.389062,-1.637109 0.868164,-0.719336 2.133203,-1.091407 1.066602,0.297657 1.860352,1.016993 0.818554,0.694531 1.364257,1.637109 0.545704,0.917773 0.818555,1.984375 0.297656,1.041797 0.297656,2.058789 0,1.413867 -0.595312,2.654101 -0.570508,1.21543 -1.686719,1.885157 h 2.207617 l 0.396875,0.272851 3.646289,12.526367 -1.215429,0.04961 -1.711524,-5.878711 H 13.015374 l -1.488282,5.829101 h -1.215429 l 2.827734,-12.476757 0.37207,-0.322461 h 2.778125 q -0.471289,-0.223243 -0.843359,-0.644922 -0.37207,-0.446485 -0.644922,-0.967383 -0.248047,-0.520898 -0.396875,-1.066602 -0.124023,-0.570507 -0.124023,-1.041796 0,-1.041797 0.37207,-1.959571 0.37207,-0.942578 1.016992,-1.612304 0.669727,-0.694532 1.537891,-1.091407 0.868164,-0.421679 1.885156,-0.421679 0.917773,0 1.785937,0.396875 0.892969,0.396875 1.562696,1.066601 0.669726,0.644922 1.066601,1.513086 0.42168,0.868164 0.42168,1.785938 0,0.595312 -0.173633,1.265039 -0.173633,0.644922 -0.520898,1.215429 -0.322461,0.570508 -0.79375,0.992188 -0.446485,0.42168 -0.992188,0.570508 h 5.729883 q 0,-2.530078 -1.066602,-6.77168 -1.041797,-4.266406 -1.041797,-6.126758 0,-0.818554 0.124024,-1.562695 0.148828,-0.744141 0.496094,-1.339453 0.37207,-0.620117 0.967382,-1.066602 0.620118,-0.446484 1.562696,-0.694531 v -2.033984 h -1.909961 v -0.79375 z m -5.804296,26.56582 q 0.818554,-1.413867 1.289843,-2.654102 0.471289,-1.240234 0.545704,-2.728515 H 14.305217 l -1.215429,5.382617 z M 42.855412,35.530245 H 30.35385 q 0,0.446484 0.04961,0.942578 0.04961,0.471289 0.223242,1.091406 0.173633,0.620117 0.520899,1.438672 0.37207,0.79375 0.992187,1.909961 H 44.393303 Z M 28.319866,17.918917 q -1.26504,0.496094 -1.835547,1.289843 -0.545703,0.79375 -0.595313,2.00918 v 0.322461 q 0,2.00918 1.016992,6.449219 1.041797,4.390429 1.041797,6.746875 h 1.661914 q 0,-1.190625 0.248047,-2.877344 0.272852,-1.686719 0.818555,-3.919141 1.066601,-4.365625 1.066601,-6.622851 v -0.42168 Q 31.668498,19.828878 31.09799,19.134346 30.527483,18.415011 29.064006,17.894112 Z M 39.0851,24.343331 q -0.967383,0.272851 -1.661914,0.917773 -0.669727,0.620117 -1.116211,1.463477 -0.42168,0.843359 -0.620117,1.835547 -0.173633,0.992187 -0.173633,2.009179 0,2.00918 0.768945,3.100586 0.768945,1.066602 2.406055,1.066602 0.892968,0 1.612304,-0.347266 0.744141,-0.37207 1.289844,-0.992187 0.545703,-0.620118 0.843359,-1.463477 0.297657,-0.868164 0.297657,-1.835547 0,-0.917773 -0.248047,-1.835547 -0.248047,-0.917773 -0.719336,-1.686718 -0.446484,-0.79375 -1.141016,-1.364258 -0.669726,-0.595313 -1.53789,-0.868164 z m -19.992578,2.38125 q -0.892969,0 -1.637109,0.347265 -0.719336,0.322461 -1.240235,0.892969 -0.520898,0.570508 -0.818554,1.339453 -0.272852,0.744141 -0.272852,1.612305 0,0.768945 0.248047,1.463476 0.272851,0.694532 0.74414,1.21543 0.496094,0.520898 1.141016,0.843359 0.669727,0.297657 1.463477,0.297657 0.992187,0 1.810742,-0.322461 0.818554,-0.322461 1.389062,-0.868164 0.595313,-0.570508 0.892969,-1.289844 0.322461,-0.744141 0.322461,-1.537891 0,-0.768945 -0.347266,-1.488281 -0.347265,-0.719336 -0.917773,-1.265039 -0.545703,-0.570508 -1.289844,-0.892969 -0.719336,-0.347265 -1.488281,-0.347265 z M 31.222014,40.912862 Q 30.403459,39.573409 30.031389,38.25876 29.684123,36.944112 29.634514,35.530245 h -1.711523 q -0.09922,1.339453 -0.496094,2.654101 -0.396875,1.314649 -1.21543,2.728516 z"
         style="stroke-width:0.26458332"
         id="path12592"
         inkscape:connector-curvature="0" />
    </g>
  </g>
</svg>
