<?xml version="1.0" encoding="UTF-8" standalone="no"?>
<!-- Created with Inkscape (http://www.inkscape.org/) -->

<svg
   xmlns:dc="http://purl.org/dc/elements/1.1/"
   xmlns:cc="http://creativecommons.org/ns#"
   xmlns:rdf="http://www.w3.org/1999/02/22-rdf-syntax-ns#"
   xmlns:svg="http://www.w3.org/2000/svg"
   xmlns="http://www.w3.org/2000/svg"
   xmlns:sodipodi="http://sodipodi.sourceforge.net/DTD/sodipodi-0.dtd"
   xmlns:inkscape="http://www.inkscape.org/namespaces/inkscape"
   width="38.050388mm"
   height="14.684375mm"
   viewBox="0 0 38.050388 14.684375"
   version="1.1"
   id="svg12601"
   inkscape:version="0.92.4 (5da689c313, 2019-01-14)"
   sodipodi:docname="R4.svg">
  <defs
     id="defs12595" />
  <sodipodi:namedview
     id="base"
     pagecolor="#ffffff"
     bordercolor="#666666"
     borderopacity="1.0"
     inkscape:pageopacity="0.0"
     inkscape:pageshadow="2"
     inkscape:zoom="0.35"
     inkscape:cx="-334.6875"
     inkscape:cy="-386.19016"
     inkscape:document-units="mm"
     inkscape:current-layer="layer1"
     showgrid="false"
     fit-margin-top="0"
     fit-margin-left="0"
     fit-margin-right="0"
     fit-margin-bottom="0"
     inkscape:window-width="1920"
     inkscape:window-height="1017"
     inkscape:window-x="-8"
     inkscape:window-y="-8"
     inkscape:window-maximized="1" />
  <metadata
     id="metadata12598">
    <rdf:RDF>
      <cc:Work
         rdf:about="">
        <dc:format>image/svg+xml</dc:format>
        <dc:type
           rdf:resource="http://purl.org/dc/dcmitype/StillImage" />
        <dc:title></dc:title>
      </cc:Work>
    </rdf:RDF>
  </metadata>
  <g
     inkscape:label="Layer 1"
     inkscape:groupmode="layer"
     id="layer1"
     transform="translate(-1.2402344,-31.969479)">
    <g
       aria-label="𓊵"
       transform="scale(0.26458333)"
       style="font-style:normal;font-variant:normal;font-weight:normal;font-stretch:normal;font-size:192px;line-height:1.25;font-family:sans-serif;-inkscape-font-specification:'sans-serif, Normal';font-variant-ligatures:normal;font-variant-caps:normal;font-variant-numeric:normal;font-feature-settings:normal;text-align:start;letter-spacing:0px;word-spacing:0px;writing-mode:lr-tb;text-anchor:start;fill:#000000;fill-opacity:1;stroke:none"
       id="flowRoot13146">
      <path
         d="m 148.5,158.23578 v 16.59375 l -1.59375,1.5 H 6.09375 L 4.6875,174.54828 v -16.03125 l 1.40625,-1.78125 H 68.8125 l -4.875,-9.84375 v -1.5 l 8.15625,-20.53125 q 1.6875,-4.03125 4.21875,-4.03125 h 0.375 q 1.125,0 2.15625,0.65625 1.03125,0.5625 1.40625,1.5 l 9.09375,22.6875 v 0.9375 l -3.75,10.125 h 61.3125 z m -140.8125,1.5 v 13.59375 H 145.5 v -13.59375 z m 60,-15.65625 q 1.96875,-0.375 4.03125,-0.46875 2.0625,-0.1875 4.59375,-0.1875 4.6875,0 9.1875,0.75 l -7.875,-19.875 q -0.1875,0 -0.375,-0.28125 l -0.46875,-0.1875 h -0.375 q -0.28125,0 -0.84375,0.46875 z m 18.1875,3.28125 q -3.09375,-0.5625 -7.59375,-0.75 -4.5,-0.28125 -10.78125,0.65625 l 4.6875,9.46875 h 10.21875 z"
         id="path13154"
         inkscape:connector-curvature="0" />
    </g>
  </g>
</svg>
