<?xml version="1.0" encoding="UTF-8" standalone="no"?>
<!-- Created with Inkscape (http://www.inkscape.org/) -->

<svg
   xmlns:dc="http://purl.org/dc/elements/1.1/"
   xmlns:cc="http://creativecommons.org/ns#"
   xmlns:rdf="http://www.w3.org/1999/02/22-rdf-syntax-ns#"
   xmlns:svg="http://www.w3.org/2000/svg"
   xmlns="http://www.w3.org/2000/svg"
   xmlns:sodipodi="http://sodipodi.sourceforge.net/DTD/sodipodi-0.dtd"
   xmlns:inkscape="http://www.inkscape.org/namespaces/inkscape"
   width="38.000782mm"
   height="13.220898mm"
   viewBox="0 0 38.000782 13.220898"
   version="1.1"
   id="svg13163"
   inkscape:version="0.92.4 (5da689c313, 2019-01-14)"
   sodipodi:docname="R5.svg">
  <defs
     id="defs13157" />
  <sodipodi:namedview
     id="base"
     pagecolor="#ffffff"
     bordercolor="#666666"
     borderopacity="1.0"
     inkscape:pageopacity="0.0"
     inkscape:pageshadow="2"
     inkscape:zoom="0.35"
     inkscape:cx="-348.97321"
     inkscape:cy="-341.35715"
     inkscape:document-units="mm"
     inkscape:current-layer="layer1"
     showgrid="false"
     fit-margin-top="0"
     fit-margin-left="0"
     fit-margin-right="0"
     fit-margin-bottom="0"
     inkscape:window-width="1920"
     inkscape:window-height="1017"
     inkscape:window-x="-8"
     inkscape:window-y="-8"
     inkscape:window-maximized="1" />
  <metadata
     id="metadata13160">
    <rdf:RDF>
      <cc:Work
         rdf:about="">
        <dc:format>image/svg+xml</dc:format>
        <dc:type
           rdf:resource="http://purl.org/dc/dcmitype/StillImage" />
        <dc:title></dc:title>
      </cc:Work>
    </rdf:RDF>
  </metadata>
  <g
     inkscape:label="Layer 1"
     inkscape:groupmode="layer"
     id="layer1"
     transform="translate(-5.0199961,-45.295022)">
    <g
       aria-label="𓊶"
       style="font-style:normal;font-variant:normal;font-weight:normal;font-stretch:normal;font-size:50.79999924px;line-height:1.25;font-family:sans-serif;-inkscape-font-specification:'sans-serif, Normal';font-variant-ligatures:normal;font-variant-caps:normal;font-variant-numeric:normal;font-feature-settings:normal;text-align:start;letter-spacing:0px;word-spacing:0px;writing-mode:lr-tb;text-anchor:start;fill:#000000;fill-opacity:1;stroke:none;stroke-width:0.26458332"
       id="text13710">
      <path
         d="m 12.883082,49.710256 -0.967383,0.07441 Q 10.129762,49.983104 8.6662852,51.719432 7.2276133,53.45576 6.6074961,58.119041 L 6.1858164,58.51592 H 5.3920665 L 5.0199961,58.044631 q 0.074414,-2.306836 0.6945313,-4.191992 0.6449219,-1.885156 1.7363281,-3.224609 1.0914062,-1.364258 2.2076171,-2.00918 1.1410154,-0.644922 3.3238284,-0.917773 1.413867,-1.190625 3.54707,-1.785938 2.158008,-0.620117 6.077148,-0.620117 0.967383,0 3.125391,0.148828 2.158008,0.124024 3.869531,0.694531 l 1.314649,0.446485 q 1.389062,0.471289 2.158007,0.595312 0.768946,0.124024 1.041797,0.124024 h 0.520899 q 1.240234,0 2.802929,-0.297657 1.562696,-0.297656 3.199805,-0.768945 l 1.835547,-0.520898 0.545703,0.37207 v 5.407422 l -0.545703,0.37207 q -0.223242,-0.04961 -3.150196,-0.818555 -2.902148,-0.79375 -5.060156,-0.79375 -0.967383,0 -2.282031,0.272852 -1.289844,0.272852 -3.026172,0.967383 -1.711523,0.694531 -6.126757,0.79375 h -0.545704 q -3.075781,0 -5.357812,-0.595313 -2.282031,-0.620117 -4.043164,-1.984375 z m 0.223242,-1.215429 Q 9.5344492,48.842092 7.723707,51.520998 5.9377696,54.1751 5.8137461,57.72217 h 0.049609 Q 6.508277,52.934866 8.2198004,51.148928 9.9313238,49.338186 11.270777,49.114944 l 1.141016,-0.198438 q 0.223242,0 0.37207,-0.0248 0.272852,0 0.446485,0.124023 l 0.644921,0.471289 q 1.785938,1.190625 3.919141,1.637109 2.133203,0.42168 4.787305,0.42168 4.241601,0 6.821289,-1.041797 2.579687,-1.041797 4.861718,-1.041797 1.413867,0 2.827735,0.272852 1.438671,0.248047 3.249414,0.719336 l 1.885156,0.520898 V 46.60967 l -1.810742,0.496094 q -1.761133,0.496094 -3.175,0.744141 -1.413867,0.248047 -2.629297,0.248047 h -0.545703 q -0.297656,0 -1.016992,-0.09922 -0.694532,-0.09922 -2.257227,-0.644922 L 29.477418,46.907327 Q 27.840308,46.361624 25.73191,46.2376 23.623511,46.088772 22.953785,46.088772 h -0.843359 q -3.199805,0 -5.283399,0.570508 -2.058789,0.545703 -3.596679,1.761133 z"
         style="stroke-width:0.26458332"
         id="path13712"
         inkscape:connector-curvature="0" />
    </g>
  </g>
</svg>
