<?xml version="1.0" encoding="UTF-8" standalone="no"?>
<!-- Created with Inkscape (http://www.inkscape.org/) -->

<svg
   xmlns:dc="http://purl.org/dc/elements/1.1/"
   xmlns:cc="http://creativecommons.org/ns#"
   xmlns:rdf="http://www.w3.org/1999/02/22-rdf-syntax-ns#"
   xmlns:svg="http://www.w3.org/2000/svg"
   xmlns="http://www.w3.org/2000/svg"
   xmlns:sodipodi="http://sodipodi.sourceforge.net/DTD/sodipodi-0.dtd"
   xmlns:inkscape="http://www.inkscape.org/namespaces/inkscape"
   width="38.000782mm"
   height="19.47168mm"
   viewBox="0 0 38.000782 19.47168"
   version="1.1"
   id="svg13721"
   inkscape:version="0.92.4 (5da689c313, 2019-01-14)"
   sodipodi:docname="R6.svg">
  <defs
     id="defs13715" />
  <sodipodi:namedview
     id="base"
     pagecolor="#ffffff"
     bordercolor="#666666"
     borderopacity="1.0"
     inkscape:pageopacity="0.0"
     inkscape:pageshadow="2"
     inkscape:zoom="0.35"
     inkscape:cx="-423.25894"
     inkscape:cy="-421.35716"
     inkscape:document-units="mm"
     inkscape:current-layer="layer1"
     showgrid="false"
     fit-margin-top="0"
     fit-margin-left="0"
     fit-margin-right="0"
     fit-margin-bottom="0"
     inkscape:window-width="1920"
     inkscape:window-height="1017"
     inkscape:window-x="-8"
     inkscape:window-y="-8"
     inkscape:window-maximized="1" />
  <metadata
     id="metadata13718">
    <rdf:RDF>
      <cc:Work
         rdf:about="">
        <dc:format>image/svg+xml</dc:format>
        <dc:type
           rdf:resource="http://purl.org/dc/dcmitype/StillImage" />
        <dc:title></dc:title>
      </cc:Work>
    </rdf:RDF>
  </metadata>
  <g
     inkscape:label="Layer 1"
     inkscape:groupmode="layer"
     id="layer1"
     transform="translate(-24.674761,-17.877573)">
    <g
       aria-label="𓊷"
       style="font-style:normal;font-variant:normal;font-weight:normal;font-stretch:normal;font-size:50.79999924px;line-height:1.25;font-family:sans-serif;-inkscape-font-specification:'sans-serif, Normal';font-variant-ligatures:normal;font-variant-caps:normal;font-variant-numeric:normal;font-feature-settings:normal;text-align:start;letter-spacing:0px;word-spacing:0px;writing-mode:lr-tb;text-anchor:start;fill:#000000;fill-opacity:1;stroke:none;stroke-width:0.26458332"
       id="text14268">
      <path
         d="m 62.675538,36.952377 -0.42168,0.396875 h -2.00918 l -0.37207,-0.471289 q 0,-1.190625 -0.07441,-2.33164 -0.07441,-1.141016 -0.272852,-2.306836 l -0.198437,-1.165821 q -0.272852,-1.53789 -0.843359,-2.678906 -0.545704,-1.16582 -1.785938,-1.16582 -0.744141,0 -1.612305,0.347266 -0.868164,0.322461 -1.835546,0.892968 l -0.892969,0.545703 q -5.531445,3.497461 -10.517188,3.497461 -1.16582,0 -2.902148,-0.79375 -1.711523,-0.79375 -4.241601,-1.885156 -2.530079,-1.116211 -5.258594,-2.505273 l -4.266406,1.463476 -0.496094,-0.471289 v -5.829101 l 0.496094,-0.446485 4.216797,1.091407 q 0.223242,-0.09922 5.605859,-2.678907 5.382617,-2.579687 9.028906,-2.579687 1.761133,0 4.067969,0.79375 2.33164,0.768945 4.911328,2.356445 2.604492,1.562695 4.812109,3.026172 2.207617,1.463477 3.199805,3.100586 1.016992,1.612305 1.339453,4.067969 0.322461,2.430859 0.322461,5.729882 z M 53.224952,22.119174 51.538233,21.052573 Q 50.19878,20.234018 48.710499,19.66351 47.222218,19.068198 45.485889,18.795346 l -0.396875,-0.04961 q -0.223242,0 -0.421679,-0.0248 V 31.54496 q 3.050976,-0.446485 4.936133,-1.736329 1.90996,-1.289843 3.745507,-2.306835 1.860352,-1.016993 3.522266,-1.016993 2.182812,0 2.976562,3.398242 0.818555,3.398243 0.818555,6.672461 h 1.21543 q 0,-4.737695 -0.694532,-6.970117 -0.669726,-2.232422 -1.90996,-3.398242 -1.240235,-1.190625 -6.052344,-4.067969 z M 41.46753,31.61937 V 18.968979 q -2.728515,0.545703 -6.72207,2.480469 -3.96875,1.909961 -4.886523,2.33164 v 2.852539 q 2.70371,1.339454 5.407421,2.579688 2.728516,1.21543 3.844727,1.736328 1.116211,0.496094 2.356445,0.669727 z m 0.79375,0.07441 h 0.545703 q 0.272852,0 0.570508,-0.02481 l 0.496094,-0.04961 V 18.696128 q -0.42168,0 -0.79375,0.0248 l -0.818555,0.09922 z m -16.792773,-3.844727 3.59668,-1.240234 v -2.778125 l -3.59668,-0.917774 z"
         style="stroke-width:0.26458332"
         id="path14270"
         inkscape:connector-curvature="0" />
    </g>
  </g>
</svg>
