<?xml version="1.0" encoding="UTF-8" standalone="no"?>
<!-- Created with Inkscape (http://www.inkscape.org/) -->

<svg
   xmlns:dc="http://purl.org/dc/elements/1.1/"
   xmlns:cc="http://creativecommons.org/ns#"
   xmlns:rdf="http://www.w3.org/1999/02/22-rdf-syntax-ns#"
   xmlns:svg="http://www.w3.org/2000/svg"
   xmlns="http://www.w3.org/2000/svg"
   xmlns:sodipodi="http://sodipodi.sourceforge.net/DTD/sodipodi-0.dtd"
   xmlns:inkscape="http://www.inkscape.org/namespaces/inkscape"
   width="18.082617mm"
   height="38.050388mm"
   viewBox="0 0 18.082617 38.050388"
   version="1.1"
   id="svg14841"
   inkscape:version="0.92.4 (5da689c313, 2019-01-14)"
   sodipodi:docname="R9.svg">
  <defs
     id="defs14835" />
  <sodipodi:namedview
     id="base"
     pagecolor="#ffffff"
     bordercolor="#666666"
     borderopacity="1.0"
     inkscape:pageopacity="0.0"
     inkscape:pageshadow="2"
     inkscape:zoom="0.35"
     inkscape:cx="-374.6875"
     inkscape:cy="-301.26341"
     inkscape:document-units="mm"
     inkscape:current-layer="layer1"
     showgrid="false"
     fit-margin-top="0"
     fit-margin-left="0"
     fit-margin-right="0"
     fit-margin-bottom="0"
     inkscape:window-width="1920"
     inkscape:window-height="1017"
     inkscape:window-x="-8"
     inkscape:window-y="-8"
     inkscape:window-maximized="1" />
  <metadata
     id="metadata14838">
    <rdf:RDF>
      <cc:Work
         rdf:about="">
        <dc:format>image/svg+xml</dc:format>
        <dc:type
           rdf:resource="http://purl.org/dc/dcmitype/StillImage" />
        <dc:title></dc:title>
      </cc:Work>
    </rdf:RDF>
  </metadata>
  <g
     inkscape:label="Layer 1"
     inkscape:groupmode="layer"
     id="layer1"
     transform="translate(-11.823567,-31.073667)">
    <g
       aria-label="𓊺"
       style="font-style:normal;font-variant:normal;font-weight:normal;font-stretch:normal;font-size:50.79999924px;line-height:1.25;font-family:sans-serif;-inkscape-font-specification:'sans-serif, Normal';font-variant-ligatures:normal;font-variant-caps:normal;font-variant-numeric:normal;font-feature-settings:normal;text-align:start;letter-spacing:0px;word-spacing:0px;writing-mode:lr-tb;text-anchor:start;fill:#000000;fill-opacity:1;stroke:none;stroke-width:0.26458332"
       id="text15388">
      <path
         d="m 26.70638,56.17601 q 0.79375,0.79375 1.389062,1.736328 0.620117,0.942579 1.016992,1.909961 0.396875,0.967383 0.595313,1.885157 0.198437,0.917773 0.198437,1.661914 0,0.818554 -0.272851,1.835546 -0.248047,0.992188 -0.768946,1.860352 -0.496093,0.868164 -1.240234,1.463477 -0.744141,0.595312 -1.711523,0.595312 -0.942578,0 -1.63711,-0.545703 -0.694531,-0.570508 -1.16582,-1.389063 -0.471289,-0.843359 -0.694531,-1.810742 -0.223242,-0.967383 -0.223242,-1.810742 0,-1.5875 0.644921,-3.175 0.669727,-1.612305 1.736329,-3.12539 l -6.672461,-2.182813 -0.248047,-0.446484 0.396875,-2.00918 0.620117,-0.248047 6.796484,3.621485 V 40.573862 Q 23.90345,40.102573 22.241536,39.656089 20.604427,39.1848 18.892903,38.837534 17.206184,38.465464 15.519466,38.217417 13.832747,37.96937 12.195638,37.894956 l -0.372071,-0.471289 v -4.241602 l 0.372071,-0.471289 q 3.720703,-0.04961 7.292578,-0.421679 3.596679,-0.396875 7.218164,-1.21543 z M 25.466145,32.165073 q -1.686718,0.347266 -3.323828,0.595313 -1.612304,0.248047 -3.199804,0.396875 -1.562696,0.148828 -3.150196,0.248047 -1.562695,0.07441 -3.175,0.09922 v 3.621485 q 0.768946,0.0248 2.133203,0.198437 1.389063,0.173633 3.100586,0.520899 1.736328,0.32246 3.695899,0.818554 1.95957,0.496094 3.91914,1.116211 z m -0.297656,24.258984 -6.523633,-3.323828 -0.248047,1.438672 6.498828,2.232422 z m 0.669727,0.396875 q -0.520899,0.744141 -1.041797,1.562695 -0.496094,0.818555 -0.917774,1.686719 -0.396875,0.84336 -0.644922,1.761133 -0.248046,0.892969 -0.248046,1.860352 0,0.818554 0.148828,1.587499 0.173633,0.744141 0.520898,1.364258 0.347266,0.595313 0.892969,1.041797 0.545703,0.446485 1.314648,0.620117 0.868164,-0.0248 1.488282,-0.520898 0.620117,-0.496094 0.992187,-1.21543 0.396875,-0.74414 0.570508,-1.612304 0.173633,-0.868164 0.173633,-1.63711 0,-2.654101 -2.703711,-6.449218 z"
         style="stroke-width:0.26458332"
         id="path15390"
         inkscape:connector-curvature="0" />
    </g>
  </g>
</svg>
