<?xml version="1.0" encoding="UTF-8" standalone="no"?>
<!-- Created with Inkscape (http://www.inkscape.org/) -->

<svg
   xmlns:dc="http://purl.org/dc/elements/1.1/"
   xmlns:cc="http://creativecommons.org/ns#"
   xmlns:rdf="http://www.w3.org/1999/02/22-rdf-syntax-ns#"
   xmlns:svg="http://www.w3.org/2000/svg"
   xmlns="http://www.w3.org/2000/svg"
   xmlns:sodipodi="http://sodipodi.sourceforge.net/DTD/sodipodi-0.dtd"
   xmlns:inkscape="http://www.inkscape.org/namespaces/inkscape"
   width="24.283775mm"
   height="37.901562mm"
   viewBox="0 0 24.283775 37.901562"
   version="1.1"
   id="svg7032"
   inkscape:version="0.92.4 (5da689c313, 2019-01-14)"
   sodipodi:docname="S1.svg">
  <defs
     id="defs7026" />
  <sodipodi:namedview
     id="base"
     pagecolor="#ffffff"
     bordercolor="#666666"
     borderopacity="1.0"
     inkscape:pageopacity="0.0"
     inkscape:pageshadow="2"
     inkscape:zoom="0.35"
     inkscape:cx="-371.83008"
     inkscape:cy="-355.13547"
     inkscape:document-units="mm"
     inkscape:current-layer="layer1"
     showgrid="false"
     fit-margin-top="0"
     fit-margin-left="0"
     fit-margin-right="0"
     fit-margin-bottom="0"
     inkscape:window-width="1920"
     inkscape:window-height="1017"
     inkscape:window-x="-8"
     inkscape:window-y="-8"
     inkscape:window-maximized="1" />
  <metadata
     id="metadata7029">
    <rdf:RDF>
      <cc:Work
         rdf:about="">
        <dc:format>image/svg+xml</dc:format>
        <dc:type
           rdf:resource="http://purl.org/dc/dcmitype/StillImage" />
        <dc:title></dc:title>
      </cc:Work>
    </rdf:RDF>
  </metadata>
  <g
     inkscape:label="Layer 1"
     inkscape:groupmode="layer"
     id="layer1"
     transform="translate(-11.067541,-16.968845)">
    <g
       aria-label="𓋑"
       transform="scale(0.26458333)"
       style="font-style:normal;font-variant:normal;font-weight:normal;font-stretch:normal;font-size:192px;line-height:1.25;font-family:sans-serif;-inkscape-font-specification:sans-serif;font-variant-ligatures:normal;font-variant-caps:normal;font-variant-numeric:normal;font-feature-settings:normal;text-align:start;letter-spacing:0px;word-spacing:0px;writing-mode:lr-tb;text-anchor:start;fill:#000000;fill-opacity:1;stroke:none"
       id="flowRoot7577">
      <path
         d="m 41.830078,171.19672 q 3.65625,-12.9375 9.09375,-23.25 5.53125,-10.40625 12.09375,-18.1875 6.5625,-7.78125 26.34375,-25.6875 L 101.26758,93.290468 q 5.90625,-5.4375 8.71875,-9.5625 2.90625,-4.21875 3.09375,-5.34375 l 0.0937,-0.75 0.375,-1.3125 q 1.03125,-3.9375 3.9375,-7.3125 3,-3.375 7.3125,-4.3125 l 2.25,-0.46875 q 0.46875,0 1.40625,-0.09375 h 0.9375 q 1.5,0 2.8125,1.875 1.40625,1.875 1.40625,4.40625 0,2.25 -0.84375,4.59375 -0.84375,2.34375 -1.6875,4.3125 l -0.46875,1.125 -2.625,5.34375 q -0.75,1.59375 -5.625,9.46875 -4.78125,7.875002 -5.0625,8.718752 -0.1875,0.84375 -3.65625,18.75 -3.375,17.90625 -6.09375,27.28125 -2.625,9.28125 -5.25,16.40625 -2.625002,7.125 -6.375002,14.71875 -3.65625,7.5 -8.15625,13.875 -4.40625,6.375 -9.9375,12.1875 l -2.25,0.1875 -9.09375,-10.59375 v -2.25 q 1.5,-1.5 2.71875,-4.40625 1.3125,-2.90625 1.3125,-5.34375 0,-1.03125 -0.375,-1.96875 -0.28125,-0.9375 -0.65625,-1.3125 -0.375,-0.375 -0.84375,-0.375 -0.65625,0 -1.5,0.5625 l -4.03125,3.09375 q -1.21875,0.9375 -2.34375,1.5 l -1.875,-0.0937 -16.59375,-13.59375 z m 3.1875,-0.28125 15,12.28125 q 0.9375,-0.75 3.65625,-2.90625 2.71875,-2.25 5.15625,-2.25 1.78125,0 3.09375,1.96875 1.3125,1.96875 1.3125,5.4375 0,2.8125 -1.03125,5.4375 -1.03125,2.53125 -2.625,4.875 l 7.125,8.25 q 11.15625,-11.71875 18.84375,-28.6875 7.781252,-17.0625 13.406252,-43.78125 l 1.96875,-9.84375 q 1.5,-7.3125 1.59375,-11.625 0.1875,-4.3125 3.9375,-10.593752 l 4.78125,-8.0625 1.5,-2.4375 1.40625,-2.4375 q 0.65625,-1.03125 1.21875,-2.25 l 1.125,-2.25 1.125,-2.0625 q 1.21875,-2.4375 2.15625,-5.0625 0.9375,-2.625 0.9375,-4.5 0,-2.34375 -1.59375,-3.28125 -10.125,0.46875 -12.5625,9.75 -2.34375,9.1875 -14.625,20.15625 -12.281252,10.968752 -24.937502,22.500002 -12.65625,11.53125 -20.34375,24.1875 -7.59375,12.65625 -11.625,27.1875 z"
         id="path7585"
         inkscape:connector-curvature="0" />
    </g>
  </g>
</svg>
