<?xml version="1.0" encoding="UTF-8" standalone="no"?>
<!-- Created with Inkscape (http://www.inkscape.org/) -->

<svg
   xmlns:dc="http://purl.org/dc/elements/1.1/"
   xmlns:cc="http://creativecommons.org/ns#"
   xmlns:rdf="http://www.w3.org/1999/02/22-rdf-syntax-ns#"
   xmlns:svg="http://www.w3.org/2000/svg"
   xmlns="http://www.w3.org/2000/svg"
   xmlns:sodipodi="http://sodipodi.sourceforge.net/DTD/sodipodi-0.dtd"
   xmlns:inkscape="http://www.inkscape.org/namespaces/inkscape"
   width="18.405066mm"
   height="18.628321mm"
   viewBox="0 0 18.405066 18.628321"
   version="1.1"
   id="svg26571"
   inkscape:version="0.92.4 (5da689c313, 2019-01-14)"
   sodipodi:docname="S10.svg">
  <defs
     id="defs26565" />
  <sodipodi:namedview
     id="base"
     pagecolor="#ffffff"
     bordercolor="#666666"
     borderopacity="1.0"
     inkscape:pageopacity="0.0"
     inkscape:pageshadow="2"
     inkscape:zoom="0.35"
     inkscape:cx="-331.83036"
     inkscape:cy="-369.41515"
     inkscape:document-units="mm"
     inkscape:current-layer="layer1"
     showgrid="false"
     fit-margin-top="0"
     fit-margin-left="0"
     fit-margin-right="0"
     fit-margin-bottom="0"
     inkscape:window-width="1920"
     inkscape:window-height="1017"
     inkscape:window-x="-8"
     inkscape:window-y="-8"
     inkscape:window-maximized="1" />
  <metadata
     id="metadata26568">
    <rdf:RDF>
      <cc:Work
         rdf:about="">
        <dc:format>image/svg+xml</dc:format>
        <dc:type
           rdf:resource="http://purl.org/dc/dcmitype/StillImage" />
        <dc:title></dc:title>
      </cc:Work>
    </rdf:RDF>
  </metadata>
  <g
     inkscape:label="Layer 1"
     inkscape:groupmode="layer"
     id="layer1"
     transform="translate(-0.48428194,-32.463922)">
    <g
       aria-label="𓋜"
       style="font-style:normal;font-variant:normal;font-weight:normal;font-stretch:normal;font-size:50.79999924px;line-height:1.25;font-family:sans-serif;-inkscape-font-specification:'sans-serif, Normal';font-variant-ligatures:normal;font-variant-caps:normal;font-variant-numeric:normal;font-feature-settings:normal;text-align:start;letter-spacing:0px;word-spacing:0px;writing-mode:lr-tb;text-anchor:start;fill:#000000;fill-opacity:1;stroke:none;stroke-width:0.26458332"
       id="text27118">
      <path
         d="m 13.060258,34.745944 0.07441,0.07442 q 0.173633,-0.198438 0.347266,-0.372071 0.173633,-0.198437 0.37207,-0.396875 0.520899,-0.496094 0.892969,-0.79375 0.37207,-0.322461 0.669727,-0.496094 0.297656,-0.173632 0.545703,-0.223242 0.248047,-0.07441 0.471289,-0.07441 0.719336,0 1.066601,0.347266 0.347266,0.322461 0.347266,0.74414 0,2.554883 -2.778125,4.638477 0.04961,0.09922 0.07441,0.322461 0.0248,0.223242 0.07441,0.37207 0.644922,0.644922 1.265039,1.686719 0.644922,1.016992 1.190625,1.984375 0.620117,1.141016 1.21543,2.356445 l -1.116211,0.545703 q -0.42168,-0.892968 -0.868164,-1.711523 -0.37207,-0.694531 -0.84336,-1.389063 -0.446484,-0.719336 -0.843359,-1.091406 0.272852,0.570508 0.545703,1.289844 0.272852,0.719336 0.520899,1.513086 0.248047,0.768945 0.471289,1.5875 0.223242,0.79375 0.421679,1.53789 0.446485,1.761133 0.868164,3.59668 l -1.215429,0.297656 q -0.42168,-1.736328 -0.818555,-3.249414 -0.173633,-0.644922 -0.37207,-1.289843 -0.173633,-0.669727 -0.372071,-1.26504 -0.173632,-0.595312 -0.37207,-1.091406 -0.173633,-0.496093 -0.347265,-0.79375 -0.47129,0.942578 -1.21543,1.661914 -0.719336,0.719336 -1.612305,1.240235 -0.892969,0.496093 -1.9347654,0.768945 -1.0169922,0.248047 -2.1083984,0.248047 -1.5130859,0 -2.8277343,-0.545703 Q 3.5352585,46.20571 2.5678757,45.238327 1.6004929,44.24614 1.0299851,42.931491 0.48428194,41.616843 0.48428194,40.103757 q 0,-1.463477 0.54570316,-2.827734 0.5705078,-1.389063 1.5378906,-2.43086 0.9673828,-1.066601 2.2820312,-1.686719 1.3146484,-0.644921 2.8277343,-0.644921 3.1501948,0 5.3826168,2.232421 z M 7.7024459,33.976999 q -1.2402344,0 -2.3068359,0.520899 -1.0417969,0.496093 -1.8107422,1.339453 -0.7689453,0.843359 -1.2154296,1.95957 -0.4216797,1.091406 -0.4216797,2.306836 0,1.240234 0.4216797,2.306836 0.4464843,1.041797 1.2154296,1.810742 0.7689453,0.768945 1.8107422,1.21543 1.0666015,0.421679 2.3068359,0.421679 1.2154297,0 2.3068361,-0.421679 1.116211,-0.446485 1.95957,-1.21543 0.843359,-0.768945 1.339453,-1.810742 0.520899,-1.066602 0.520899,-2.306836 0,-1.21543 -0.496094,-2.331641 -0.496094,-1.116211 -1.339453,-1.95957 -0.84336,-0.843359 -1.959571,-1.339453 -1.1162104,-0.496094 -2.3316401,-0.496094 z m 6.9453121,3.001367 q 0.322461,-0.248047 0.620117,-0.570507 0.322461,-0.322461 0.644922,-0.744141 0.644922,-0.868164 0.644922,-1.389063 0,-0.07441 -0.0248,-0.148828 -0.04961,-0.173633 -0.198438,-0.173633 -0.198437,0 -0.520898,0.173633 -0.322461,0.148828 -0.669727,0.396875 -0.347266,0.248047 -0.694531,0.570508 -0.322461,0.322461 -0.545703,0.644922 0.496093,0.669727 0.74414,1.240234 z"
         style="stroke-width:0.26458332"
         id="path27120"
         inkscape:connector-curvature="0" />
    </g>
  </g>
</svg>
