<?xml version="1.0" encoding="UTF-8" standalone="no"?>
<!-- Created with Inkscape (http://www.inkscape.org/) -->

<svg
   xmlns:dc="http://purl.org/dc/elements/1.1/"
   xmlns:cc="http://creativecommons.org/ns#"
   xmlns:rdf="http://www.w3.org/1999/02/22-rdf-syntax-ns#"
   xmlns:svg="http://www.w3.org/2000/svg"
   xmlns="http://www.w3.org/2000/svg"
   xmlns:sodipodi="http://sodipodi.sourceforge.net/DTD/sodipodi-0.dtd"
   xmlns:inkscape="http://www.inkscape.org/namespaces/inkscape"
   width="38.000782mm"
   height="18.405079mm"
   viewBox="0 0 38.000782 18.405079"
   version="1.1"
   id="svg27129"
   inkscape:version="0.92.4 (5da689c313, 2019-01-14)"
   sodipodi:docname="S12.svg">
  <defs
     id="defs27123" />
  <sodipodi:namedview
     id="base"
     pagecolor="#ffffff"
     bordercolor="#666666"
     borderopacity="1.0"
     inkscape:pageopacity="0.0"
     inkscape:pageshadow="2"
     inkscape:zoom="0.35"
     inkscape:cx="-343.25893"
     inkscape:cy="-332.78572"
     inkscape:document-units="mm"
     inkscape:current-layer="layer1"
     showgrid="false"
     fit-margin-top="0"
     fit-margin-left="0"
     fit-margin-right="0"
     fit-margin-bottom="0"
     inkscape:window-width="1920"
     inkscape:window-height="1017"
     inkscape:window-x="-8"
     inkscape:window-y="-8"
     inkscape:window-maximized="1" />
  <metadata
     id="metadata27126">
    <rdf:RDF>
      <cc:Work
         rdf:about="">
        <dc:format>image/svg+xml</dc:format>
        <dc:type
           rdf:resource="http://purl.org/dc/dcmitype/StillImage" />
        <dc:title></dc:title>
      </cc:Work>
    </rdf:RDF>
  </metadata>
  <g
     inkscape:label="Layer 1"
     inkscape:groupmode="layer"
     id="layer1"
     transform="translate(-3.5080914,-42.378699)">
    <g
       aria-label="𓋞"
       style="font-style:normal;font-variant:normal;font-weight:normal;font-stretch:normal;font-size:50.79999924px;line-height:1.25;font-family:sans-serif;-inkscape-font-specification:'sans-serif, Normal';font-variant-ligatures:normal;font-variant-caps:normal;font-variant-numeric:normal;font-feature-settings:normal;text-align:start;letter-spacing:0px;word-spacing:0px;writing-mode:lr-tb;text-anchor:start;fill:#000000;fill-opacity:1;stroke:none;stroke-width:0.26458332"
       id="text27676">
      <path
         d="m 35.481333,42.378699 q 3.175,0 4.588867,1.537891 1.438672,1.53789 1.438672,4.861718 v 11.608594 l -0.42168,0.396875 h -2.802929 l -0.372071,-0.471289 q 0.124024,-3.522266 0.223243,-6.994922 l 0.173632,-7.069336 q 0,-0.669726 -0.520898,-0.892969 -0.520898,-0.248046 -1.066602,-0.248046 -1.289843,0 -2.877343,1.463476 -1.562696,1.463477 -2.306836,1.909961 l -0.446484,0.272852 q 1.463476,1.463476 1.463476,2.505273 0,0.620117 -0.744141,0.620117 -0.595312,0 -0.892968,-0.818555 -0.272852,-0.843359 -0.272852,-2.033984 -0.471289,0.272852 -0.967383,0.520899 -0.471289,0.223242 -0.967382,0.421679 1.364257,1.413867 1.364257,2.455664 0,0.669727 -0.818554,0.669727 -1.066602,0 -1.066602,-2.331641 0,-0.421679 0.02481,-0.620117 -1.21543,0.471289 -2.356445,0.719336 0.967382,1.339453 0.967382,2.356445 0,0.570508 -0.570507,0.620117 h -0.07442 q -0.942578,0 -0.942578,-1.562695 0,-0.347265 0.02481,-0.669726 0.02481,-0.347266 0.09922,-0.644922 -1.240235,0.223242 -2.455664,0.223242 0.421679,0.992187 0.421679,1.909961 0,0.992187 -0.768945,0.992187 -0.719336,0 -0.719336,-0.79375 0,-0.942578 0.644922,-2.108398 l -1.240234,-0.09922 q -0.595313,-0.04961 -1.190625,-0.148828 0.04961,0.297656 0.07441,0.620117 0.04961,0.322461 0.04961,0.669727 0,1.612304 -0.942578,1.612304 h -0.07441 q -0.595312,0 -0.595312,-0.620117 0,-1.041797 0.992187,-2.356445 -0.719336,-0.124023 -1.413867,-0.322461 -0.669727,-0.198437 -1.314649,-0.446484 0.04961,0.297656 0.07441,0.644922 0.04961,0.32246 0.04961,0.669726 0,1.686719 -0.917774,1.686719 -0.868164,0 -0.868164,-0.744141 0,-1.066601 1.240235,-2.430859 -1.066602,-0.446484 -2.033985,-1.066602 0,0.198438 0.02481,0.446485 0.02481,0.223242 0.02481,0.496093 0,2.083594 -0.967383,2.083594 -0.744141,0 -0.744141,-0.694531 0,-1.141016 1.314649,-2.530078 L 13.50438,48.282215 Q 12.884263,47.83573 11.346373,46.496277 9.8332866,45.156824 7.9233257,45.156824 q -0.5705078,0 -0.8929687,0.248047 -0.3224609,0.248047 -0.3224609,0.992187 l 0.396875,13.989844 -0.4216797,0.396875 H 3.8801617 L 3.5080914,60.312488 V 48.703894 q 0,-3.075781 1.4138672,-4.688086 1.4138672,-1.637109 4.5640624,-1.637109 z m -12.799218,8.011914 q 2.852539,0 5.655468,-1.116211 2.827735,-1.116211 4.613672,-3.001367 1.785938,-1.909961 3.894336,-1.909961 1.091406,0 1.661914,0.520898 0.595312,0.496094 0.595312,1.513086 l -0.173632,6.796485 q -0.09922,3.373437 -0.223243,6.796484 h 2.00918 v -11.1125 q 0,-3.075781 -1.265039,-4.39043 -1.265039,-1.314648 -3.96875,-1.314648 H 9.486021 q -2.8029296,0 -3.9935546,1.314648 -1.190625,1.289844 -1.190625,4.291211 V 59.990027 H 6.3110211 Q 6.1869976,56.591785 6.1125836,53.218347 L 5.9141461,46.322644 q 0,-0.992187 0.5705078,-1.463476 0.5953125,-0.496094 1.5626953,-0.496094 2.3812498,0 4.1671878,1.785937 1.810742,1.785938 4.167187,2.926954 2.356445,1.141015 6.300391,1.314648 z"
         style="stroke-width:0.26458332"
         id="path27678"
         inkscape:connector-curvature="0" />
    </g>
  </g>
</svg>
