<?xml version="1.0" encoding="UTF-8" standalone="no"?>
<!-- Created with Inkscape (http://www.inkscape.org/) -->

<svg
   xmlns:dc="http://purl.org/dc/elements/1.1/"
   xmlns:cc="http://creativecommons.org/ns#"
   xmlns:rdf="http://www.w3.org/1999/02/22-rdf-syntax-ns#"
   xmlns:svg="http://www.w3.org/2000/svg"
   xmlns="http://www.w3.org/2000/svg"
   xmlns:sodipodi="http://sodipodi.sourceforge.net/DTD/sodipodi-0.dtd"
   xmlns:inkscape="http://www.inkscape.org/namespaces/inkscape"
   width="38.000782mm"
   height="31.874006mm"
   viewBox="0 0 38.000782 31.874006"
   version="1.1"
   id="svg27687"
   inkscape:version="0.92.4 (5da689c313, 2019-01-14)"
   sodipodi:docname="S13.svg">
  <defs
     id="defs27681" />
  <sodipodi:namedview
     id="base"
     pagecolor="#ffffff"
     bordercolor="#666666"
     borderopacity="1.0"
     inkscape:pageopacity="0.0"
     inkscape:pageshadow="2"
     inkscape:zoom="0.35"
     inkscape:cx="-360.40179"
     inkscape:cy="-386.97775"
     inkscape:document-units="mm"
     inkscape:current-layer="layer1"
     showgrid="false"
     fit-margin-top="0"
     fit-margin-left="0"
     fit-margin-right="0"
     fit-margin-bottom="0"
     inkscape:window-width="1920"
     inkscape:window-height="1017"
     inkscape:window-x="-8"
     inkscape:window-y="-8"
     inkscape:window-maximized="1" />
  <metadata
     id="metadata27684">
    <rdf:RDF>
      <cc:Work
         rdf:about="">
        <dc:format>image/svg+xml</dc:format>
        <dc:type
           rdf:resource="http://purl.org/dc/dcmitype/StillImage" />
        <dc:title></dc:title>
      </cc:Work>
    </rdf:RDF>
  </metadata>
  <g
     inkscape:label="Layer 1"
     inkscape:groupmode="layer"
     id="layer1"
     transform="translate(-8.0438061,-14.571464)">
    <g
       aria-label="𓋟"
       style="font-style:normal;font-variant:normal;font-weight:normal;font-stretch:normal;font-size:50.79999924px;line-height:1.25;font-family:sans-serif;-inkscape-font-specification:'sans-serif, Normal';font-variant-ligatures:normal;font-variant-caps:normal;font-variant-numeric:normal;font-feature-settings:normal;text-align:start;letter-spacing:0px;word-spacing:0px;writing-mode:lr-tb;text-anchor:start;fill:#000000;fill-opacity:1;stroke:none;stroke-width:0.26458332"
       id="text28234">
      <path
         d="m 29.896735,29.355058 q -0.173632,0.04961 -0.347265,0.07441 -0.173633,0.02481 -0.372071,0.07441 -0.07441,0.768945 -0.09922,1.513086 -0.02481,0.74414 -0.02481,1.513086 0,1.761133 0.124023,3.497461 l 0.496094,7.739062 0.04961,0.37207 v 0.396875 q 0,0.892969 -0.595313,1.364258 -0.595312,0.471289 -1.438672,0.471289 -0.595312,0 -1.860351,-0.322461 -1.265039,-0.297656 -3.050977,-0.421679 h -0.322461 q -0.570508,0 -1.16582,0.07441 -0.595313,0.07441 -1.141016,0.173632 l -1.289843,0.297657 q -0.694532,0.148828 -1.066602,0.198437 -0.37207,0.07441 -0.917773,0.07441 -0.917774,0 -1.909961,-0.248047 -0.992188,-0.223242 -0.992188,-1.463476 0,-0.967383 1.141016,-1.116211 1.141015,-0.148828 1.21543,-0.173633 l 0.620117,-0.124023 3.274218,-0.669727 q 1.63711,-0.347266 3.100586,-1.289844 1.488282,-0.942578 1.810742,-2.678906 0.322461,-1.736328 0.322461,-3.373437 0,-1.463477 -0.124023,-2.902149 -0.09922,-1.463476 -0.124023,-2.951757 l -0.322461,-0.04961 q -0.173633,0 -0.322461,-0.02481 0.223242,0.79375 0.223242,1.339454 0,0.719335 -0.347266,1.215429 -0.347265,0.471289 -0.694531,0.471289 h -0.04961 q -0.520899,-0.04961 -0.545703,-0.917773 v -0.09922 q 0,-0.79375 1.016992,-2.083594 -0.719336,-0.124023 -1.413867,-0.322461 -0.694532,-0.198437 -1.389063,-0.471289 0.198438,0.84336 0.198438,1.314649 0,0.74414 -0.372071,1.21543 -0.347265,0.446484 -0.694531,0.446484 -0.322461,0 -0.520898,-0.248047 -0.173633,-0.248047 -0.198438,-0.79375 v -0.07441 q 0,-0.818555 1.16582,-2.033984 -0.992187,-0.42168 -2.033984,-1.041797 0.124023,0.694531 0.124023,1.116211 0,0.917773 -0.396875,1.389062 -0.396875,0.471289 -0.74414,0.471289 h -0.09922 Q 17.32075,30.14879 17.32075,29.30543 q 0,-0.868164 1.265039,-2.207617 -0.520898,-0.322461 -0.967383,-0.74414 l -0.892968,-0.818555 q -1.141016,-1.041797 -1.934766,-1.488281 -0.768945,-0.471289 -1.984375,-0.471289 -0.620117,0 -1.091406,0.272851 -0.471289,0.248047 -0.471289,0.892969 l 0.396875,14.089062 -0.42168,0.396875 H 8.4158764 L 8.0438061,38.756034 V 27.147441 q 0,-3.671094 1.6867187,-4.960938 1.6867192,-1.314648 3.3734372,-1.364258 h 11.707813 l -0.372071,-5.779492 0.372071,-0.471289 h 4.390429 l 0.42168,0.396875 -0.37207,5.853906 h 10.765234 q 3.175,0 4.588867,1.537891 1.438672,1.537891 1.438672,4.861719 v 11.608593 l -0.42168,0.396875 h -2.80293 l -0.37207,-0.471289 q 0.124024,-3.522265 0.223242,-6.994922 l 0.173633,-7.069335 q 0,-0.620118 -0.496094,-0.868164 -0.471289,-0.248047 -1.066601,-0.248047 -0.868164,0 -1.537891,0.347265 -0.669726,0.322461 -1.612304,1.265039 l -0.84336,0.818555 q -0.37207,0.37207 -0.818554,0.694531 -0.42168,0.297656 -0.818555,0.520899 1.215429,1.215429 1.339453,2.033984 v 0.223242 q 0,0.42168 -0.148828,0.620117 -0.124024,0.198438 -0.396875,0.198438 -0.37207,0 -0.84336,-0.595313 -0.471289,-0.595312 -0.471289,-1.637109 v -0.272852 q 0,-0.148828 0.02481,-0.297656 -0.967383,0.496094 -1.934766,0.892969 1.289844,1.289844 1.314649,2.058789 v 0.07441 q 0,0.818555 -0.496094,0.942578 H 33.9151 q -0.396875,0 -0.84336,-0.520898 -0.446484,-0.520899 -0.446484,-1.364258 0,-0.223242 0.02481,-0.471289 0.0248,-0.272852 0.07441,-0.545703 -0.595313,0.223242 -1.21543,0.396875 -0.595312,0.173633 -1.21543,0.322461 1.041797,1.364258 1.041797,2.108398 v 0.07441 q -0.07441,0.892969 -0.545703,0.917774 H 30.7401 q -0.396875,0 -0.744141,-0.520899 -0.322461,-0.545703 -0.322461,-1.141015 0,-0.545704 0.223242,-1.364258 z m 7.14375,-4.117578 0.942578,-0.892969 q 0.967383,-0.917773 1.736329,-1.265039 0.79375,-0.37207 1.438671,-0.37207 1.016993,0 1.736328,0.570507 0.744141,0.570508 0.744141,1.438672 l -0.173633,6.895703 q -0.09922,3.398242 -0.223242,6.821289 h 2.00918 v -11.1125 q 0,-3.075781 -1.265039,-4.390429 -1.265039,-1.314649 -3.96875,-1.314649 H 14.021736 q -2.80293,0 -3.993555,1.314649 -1.190625,1.314648 -1.190625,4.291211 v 11.211718 h 2.00918 q -0.124024,-3.398242 -0.198438,-6.771679 l -0.198437,-6.77168 q 0,-1.066601 0.644922,-1.562695 0.669726,-0.520899 1.810742,-0.520899 1.95957,0 3.199804,1.190625 1.265039,1.190625 2.133203,1.835547 l 0.818555,0.620117 q 1.835547,1.240235 3.943945,1.785938 2.108399,0.545703 4.291211,0.545703 h 0.768946 q 1.761132,0 4.613671,-1.041797 2.852539,-1.066601 4.365625,-2.505273 z M 28.38365,36.126737 q -0.124024,-1.736328 -0.124024,-3.497461 0,-0.768945 0.02481,-1.513085 0.0248,-0.744141 0.09922,-1.513086 -0.297657,0.04961 -0.595313,0.04961 h -1.190625 q -0.322461,0 -0.595312,-0.04961 0,1.438672 0.124023,2.852539 0.124023,1.413867 0.124023,2.827734 0,3.472656 -0.967382,5.233789 -0.942578,1.736328 -4.539258,2.75332 -3.571875,1.016992 -5.109766,1.016992 -0.421679,0 -0.768945,0.173633 v 0.02481 l -0.02481,0.02481 q -0.04961,0.198437 -0.04961,0.421679 0,0.223242 0.09922,0.372071 0.471289,0.198437 1.016992,0.272851 0.570508,0.07441 1.16582,0.07441 0.744141,0 1.513086,-0.09922 0.79375,-0.09922 1.537891,-0.248046 l 1.364257,-0.248047 q 0.917774,-0.173633 1.141016,-0.198438 0.223242,-0.04961 0.471289,-0.04961 0.79375,0 2.232422,0.297656 1.438672,0.297656 1.885156,0.446484 0.471289,0.148829 1.066602,-0.09922 0.620117,-0.272852 0.620117,-0.892969 0,-0.297656 -0.04961,-1.190625 -0.04961,-0.892969 -0.09922,-1.661914 z M 25.258259,15.365214 q 0.09922,1.389063 0.173633,2.728516 0.07441,1.339453 0.173633,2.728515 h 2.852539 q 0.07441,-1.364257 0.173632,-2.728515 l 0.173633,-2.728516 z"
         style="stroke-width:0.26458332"
         id="path28236"
         inkscape:connector-curvature="0" />
    </g>
  </g>
</svg>
