<?xml version="1.0" encoding="UTF-8" standalone="no"?>
<!-- Created with Inkscape (http://www.inkscape.org/) -->

<svg
   xmlns:dc="http://purl.org/dc/elements/1.1/"
   xmlns:cc="http://creativecommons.org/ns#"
   xmlns:rdf="http://www.w3.org/1999/02/22-rdf-syntax-ns#"
   xmlns:svg="http://www.w3.org/2000/svg"
   xmlns="http://www.w3.org/2000/svg"
   xmlns:sodipodi="http://sodipodi.sourceforge.net/DTD/sodipodi-0.dtd"
   xmlns:inkscape="http://www.inkscape.org/namespaces/inkscape"
   width="38.0504mm"
   height="37.256641mm"
   viewBox="0 0 38.0504 37.256641"
   version="1.1"
   id="svg28245"
   inkscape:version="0.92.4 (5da689c313, 2019-01-14)"
   sodipodi:docname="S14.svg">
  <defs
     id="defs28239" />
  <sodipodi:namedview
     id="base"
     pagecolor="#ffffff"
     bordercolor="#666666"
     borderopacity="1.0"
     inkscape:pageopacity="0.0"
     inkscape:pageshadow="2"
     inkscape:zoom="0.35"
     inkscape:cx="-366.11607"
     inkscape:cy="-362.85716"
     inkscape:document-units="mm"
     inkscape:current-layer="layer1"
     showgrid="false"
     fit-margin-top="0"
     fit-margin-left="0"
     fit-margin-right="0"
     fit-margin-bottom="0"
     inkscape:window-width="1920"
     inkscape:window-height="1017"
     inkscape:window-x="-8"
     inkscape:window-y="-8"
     inkscape:window-maximized="1" />
  <metadata
     id="metadata28242">
    <rdf:RDF>
      <cc:Work
         rdf:about="">
        <dc:format>image/svg+xml</dc:format>
        <dc:type
           rdf:resource="http://purl.org/dc/dcmitype/StillImage" />
        <dc:title></dc:title>
      </cc:Work>
    </rdf:RDF>
  </metadata>
  <g
     inkscape:label="Layer 1"
     inkscape:groupmode="layer"
     id="layer1"
     transform="translate(-9.5557108,-15.570737)">
    <g
       aria-label="𓋠"
       style="font-style:normal;font-variant:normal;font-weight:normal;font-stretch:normal;font-size:50.79999924px;line-height:1.25;font-family:sans-serif;-inkscape-font-specification:'sans-serif, Normal';font-variant-ligatures:normal;font-variant-caps:normal;font-variant-numeric:normal;font-feature-settings:normal;text-align:start;letter-spacing:0px;word-spacing:0px;writing-mode:lr-tb;text-anchor:start;fill:#000000;fill-opacity:1;stroke:none;stroke-width:0.26458332"
       id="text28792">
      <path
         d="m 29.225828,16.860581 q 1.785937,0.198437 2.852539,1.339453 1.066601,1.116211 1.066601,2.976563 0,2.158007 -1.513086,4.043164 -1.53789,1.860351 -1.637109,3.224609 h 11.534179 q 1.63711,0 2.778125,0.396875 1.165821,0.396875 1.885157,1.190625 0.719336,0.79375 1.041797,2.00918 0.32246,1.190624 0.32246,2.778124 0,0.744141 0,1.63711 0,0.892969 0,1.860351 0,0.967383 0,1.959571 0.02481,0.992187 0.02481,1.909961 0,2.158007 0.02481,4.415234 l -0.42168,0.396875 h -2.802929 l -0.372071,-0.471289 q 0.07441,-2.654102 0.173633,-5.233789 0.02481,-1.091406 0.04961,-2.282031 0.04961,-1.190625 0.07441,-2.356446 0.02481,-1.190625 0.02481,-2.306836 0.02481,-1.116211 0.02481,-2.058789 -0.173633,-0.545703 -0.694531,-0.768945 -0.520899,-0.223242 -1.116211,-0.223242 -1.463477,0 -2.554883,1.16582 -0.545703,0.570508 -1.041797,1.016992 -0.471289,0.446485 -0.917773,0.744141 -0.446485,0.297656 -0.620118,0.42168 -0.148828,0.09922 -0.272851,0.148828 1.240234,1.240234 1.364258,2.058789 v 0.223242 q 0,0.818555 -0.545703,0.818555 -0.198438,0 -0.42168,-0.148828 -0.223242,-0.148829 -0.42168,-0.446485 -0.198437,-0.297656 -0.347265,-0.694531 -0.124024,-0.42168 -0.124024,-0.942578 v -0.272852 q 0,-0.198437 0.02481,-0.322461 -0.471289,0.248047 -0.967383,0.496094 -0.471289,0.223242 -0.967383,0.446484 1.265039,1.289844 1.314649,2.058789 v 0.07442 q 0,0.818554 -0.496094,0.942578 h -0.124024 q -0.396875,0 -0.843359,-0.520899 -0.446484,-0.520898 -0.446484,-1.364258 0,-0.248046 0.0248,-0.496093 0.02481,-0.248047 0.07441,-0.496094 -1.11621,0.396875 -2.33164,0.669726 0.942578,1.364258 0.942578,2.05879 v 0.0248 q -0.07441,0.892969 -0.545703,0.917774 h -0.04961 q -0.198437,0 -0.396874,-0.148828 -0.173633,-0.148829 -0.322461,-0.372071 -0.148829,-0.248047 -0.248047,-0.545703 -0.09922,-0.297656 -0.09922,-0.595312 0,-0.272852 0.02481,-0.570508 0.04961,-0.297656 0.173632,-0.644922 -0.446484,0.07441 -1.016992,0.124023 -0.545703,0.04961 -0.992187,0.07441 V 52.827377 H 28.134421 V 37.200424 l -1.11621,-0.09922 q -0.223243,-0.02481 -0.446485,-0.04961 -0.223242,-0.0248 -0.471289,-0.07441 0.198438,0.79375 0.198438,1.21543 0,0.719336 -0.347266,1.21543 -0.347266,0.471289 -0.694531,0.471289 h -0.04961 q -0.496093,-0.02481 -0.545703,-0.917774 v -0.09922 q 0,-0.74414 0.917774,-1.95957 -0.694532,-0.124023 -1.364258,-0.322461 -0.669727,-0.198437 -1.339453,-0.446484 0.09922,0.42168 0.148828,0.74414 0.04961,0.322461 0.04961,0.570508 0,0.744141 -0.37207,1.21543 -0.347266,0.446484 -0.694531,0.446484 -0.694532,0 -0.719336,-1.041797 v -0.07441 q 0,-0.79375 1.16582,-2.033984 -0.967383,-0.396875 -2.033984,-1.041797 l 0.09922,0.570508 q 0,0.124023 0,0.272852 0,0.124023 0.02481,0.248046 0,0.917774 -0.396875,1.389063 -0.396875,0.471289 -0.74414,0.471289 h -0.09922 q -0.471289,-0.09922 -0.471289,-0.967383 0,-0.892969 1.240234,-2.207617 L 18.584617,33.57894 q -0.223242,-0.173633 -1.314649,-1.240234 -1.091406,-1.041797 -2.70371,-1.041797 -0.496094,0 -0.942579,0.173633 -0.446484,0.148828 -0.768945,0.520898 l 0.297656,14.609961 -0.421679,0.396875 H 9.9277811 L 9.5557108,46.526987 V 34.74476 q 0,-3.050976 1.2650392,-4.514453 1.265039,-1.488281 3.795117,-1.785937 h 12.898437 q -0.09922,-1.289844 -1.314648,-2.80293 -1.21543,-1.513086 -1.736328,-2.604492 -0.496094,-1.091406 -0.496094,-1.711523 0,-1.909961 1.091406,-3.050977 1.091406,-1.141015 2.80293,-1.413867 l -0.347266,-1.289844 h 1.984375 z m -0.496094,19.570898 q 2.976562,0 5.853906,-1.190625 2.902148,-1.240234 4.464844,-2.951758 1.612304,-1.761132 3.373437,-1.761132 0.545703,0 1.041797,0.124023 0.496094,0.124023 0.868164,0.37207 0.37207,0.223243 0.595313,0.570508 0.223242,0.322461 0.223242,0.744141 l -0.347266,13.86582 h 2.00918 q -0.02481,-2.133203 -0.02481,-4.216797 0,-0.892969 0,-1.835547 0,-0.942578 -0.02481,-1.860351 0,-0.942578 0,-1.810742 0,-0.868165 0,-1.5875 0,-3.026172 -1.190625,-4.340821 Q 44.381492,29.23812 41.528952,29.23812 H 14.764695 q -1.141016,0.124023 -1.984375,0.520898 -0.818555,0.372071 -1.364258,1.041797 -0.545703,0.669727 -0.818554,1.661914 -0.248047,0.992188 -0.248047,2.356445 V 46.204526 H 12.35864 L 11.961765,32.437925 q 0,-0.868165 0.79375,-1.389063 0.818555,-0.545703 1.934766,-0.545703 1.934766,0 3.423047,1.562695 1.513086,1.562695 3.943945,2.877344 2.455664,1.289844 6.672461,1.488281 z m -0.42168,-7.987109 h 0.868164 q 0,-0.694531 0.42168,-1.562695 0.446484,-0.892969 1.091406,-1.785938 0.496094,-0.694531 0.818555,-1.240234 0.322461,-0.545703 0.496094,-0.992188 0.198437,-0.446484 0.272851,-0.843359 0.07441,-0.396875 0.07441,-0.79375 0,-0.868164 -0.297656,-1.537891 -0.272852,-0.669726 -0.768945,-1.141015 -0.496094,-0.471289 -1.190625,-0.694532 -0.669727,-0.248046 -1.488282,-0.248046 -1.711523,0 -2.778124,1.016992 -1.041797,0.992187 -1.041797,2.778125 0,0.520898 0.471289,1.389062 0.471289,0.868164 1.339453,2.058789 0.868164,1.190625 1.240234,1.984375 0.396875,0.768946 0.471289,1.612305 z"
         style="stroke-width:0.26458332"
         id="path28794"
         inkscape:connector-curvature="0" />
    </g>
  </g>
</svg>
