<?xml version="1.0" encoding="UTF-8" standalone="no"?>
<!-- Created with Inkscape (http://www.inkscape.org/) -->

<svg
   xmlns:dc="http://purl.org/dc/elements/1.1/"
   xmlns:cc="http://creativecommons.org/ns#"
   xmlns:rdf="http://www.w3.org/1999/02/22-rdf-syntax-ns#"
   xmlns:svg="http://www.w3.org/2000/svg"
   xmlns="http://www.w3.org/2000/svg"
   xmlns:sodipodi="http://sodipodi.sourceforge.net/DTD/sodipodi-0.dtd"
   xmlns:inkscape="http://www.inkscape.org/namespaces/inkscape"
   width="38.000782mm"
   height="37.058205mm"
   viewBox="0 0 38.000782 37.058205"
   version="1.1"
   id="svg28803"
   inkscape:version="0.92.4 (5da689c313, 2019-01-14)"
   sodipodi:docname="S14A.svg">
  <defs
     id="defs28797" />
  <sodipodi:namedview
     id="base"
     pagecolor="#ffffff"
     bordercolor="#666666"
     borderopacity="1.0"
     inkscape:pageopacity="0.0"
     inkscape:pageshadow="2"
     inkscape:zoom="0.35"
     inkscape:cx="-351.83036"
     inkscape:cy="-360"
     inkscape:document-units="mm"
     inkscape:current-layer="layer1"
     showgrid="false"
     fit-margin-top="0"
     fit-margin-left="0"
     fit-margin-right="0"
     fit-margin-bottom="0"
     inkscape:window-width="1920"
     inkscape:window-height="1017"
     inkscape:window-x="-8"
     inkscape:window-y="-8"
     inkscape:window-maximized="1" />
  <metadata
     id="metadata28800">
    <rdf:RDF>
      <cc:Work
         rdf:about="">
        <dc:format>image/svg+xml</dc:format>
        <dc:type
           rdf:resource="http://purl.org/dc/dcmitype/StillImage" />
        <dc:title></dc:title>
      </cc:Work>
    </rdf:RDF>
  </metadata>
  <g
     inkscape:label="Layer 1"
     inkscape:groupmode="layer"
     id="layer1"
     transform="translate(-5.7759485,-16.525129)">
    <g
       aria-label="𓋡"
       style="font-style:normal;font-variant:normal;font-weight:normal;font-stretch:normal;font-size:50.79999924px;line-height:1.25;font-family:sans-serif;-inkscape-font-specification:'sans-serif, Normal';font-variant-ligatures:normal;font-variant-caps:normal;font-variant-numeric:normal;font-feature-settings:normal;text-align:start;letter-spacing:0px;word-spacing:0px;writing-mode:lr-tb;text-anchor:start;fill:#000000;fill-opacity:1;stroke:none;stroke-width:0.26458332"
       id="text29350">
      <path
         d="m 24.354659,29.200325 v -4.911328 q 0,-0.620118 -0.496094,-0.992188 -0.496093,-0.396875 -1.339453,-0.570508 -1.612304,1.389063 -3.150195,4.911328 -0.917773,-0.396875 -1.016992,-0.992187 0.347265,-1.21543 1.141015,-2.678906 0.42168,-0.768946 0.620118,-1.240235 0.223242,-0.471289 0.248047,-0.669726 0.0248,-0.372071 0.595312,-1.041797 0.545703,-0.694531 1.5875,-0.992188 0.223242,-0.272851 0.694531,-0.719336 0.471289,-0.446484 0.992188,-0.892968 0.520898,-0.471289 0.992187,-0.892969 0.471289,-0.446484 0.694531,-0.669727 0.322461,-0.322461 0.818555,-0.322461 0.545703,0 0.545703,0.595313 0,0.248047 -0.07441,0.545703 -2.158008,1.513086 -3.398242,3.671094 0.942578,0.471289 1.339453,1.190625 0.42168,0.719336 0.42168,1.711523 v 4.960938 H 37.74919 q 1.63711,0 2.778125,0.396875 1.16582,0.396875 1.885156,1.190625 0.719336,0.79375 1.041797,2.009179 0.322461,1.190625 0.322461,2.778125 v 11.782227 l -0.37207,0.396875 h -2.80293 l -0.37207,-0.471289 q 0.07441,-2.654102 0.173633,-5.233789 0.0248,-1.091407 0.04961,-2.282032 0.04961,-1.190625 0.07441,-2.356445 0.02481,-1.190625 0.02481,-2.306836 0.02481,-1.116211 0.02481,-2.058789 -0.173633,-0.545703 -0.694532,-0.768945 -0.520898,-0.223242 -1.116211,-0.223242 -1.463476,0 -2.554882,1.16582 -0.545704,0.570508 -1.041797,1.016992 -0.471289,0.446484 -0.917774,0.744141 -0.446484,0.297656 -0.620117,0.421679 -0.148828,0.09922 -0.272851,0.148829 1.240234,1.240234 1.364257,2.058789 v 0.223242 q 0,0.818554 -0.545703,0.818554 -0.198437,0 -0.421679,-0.148828 -0.223243,-0.148828 -0.42168,-0.446484 -0.198438,-0.297656 -0.347266,-0.694531 -0.124023,-0.42168 -0.124023,-0.942578 v -0.272852 q 0,-0.198437 0.02481,-0.322461 -0.47129,0.248047 -0.967383,0.496094 -0.471289,0.223242 -0.967383,0.446484 1.265039,1.289844 1.314648,2.058789 v 0.07441 q 0,0.818555 -0.496093,0.942578 h -0.124024 q -0.396875,0 -0.843359,-0.520898 -0.446485,-0.520898 -0.446485,-1.364258 0,-0.248047 0.02481,-0.496094 0.02481,-0.248046 0.07441,-0.496093 -1.116211,0.396875 -2.33164,0.669726 0.942578,1.364258 0.942578,2.058789 v 0.02481 q -0.07441,0.892969 -0.545703,0.917773 h -0.04961 q -0.198437,0 -0.396875,-0.148828 -0.173633,-0.148828 -0.322461,-0.37207 -0.148828,-0.248047 -0.248047,-0.545703 -0.09922,-0.297656 -0.09922,-0.595313 0,-0.272851 0.0248,-0.570507 0.04961,-0.297657 0.173633,-0.644922 -0.992187,0.148828 -2.033984,0.198437 v 7.664648 q 1.265039,0.520899 1.934765,1.364258 0.694532,0.84336 0.694532,2.207617 v 4.39043 H 27.48005 v -3.199805 q 0,-2.430859 -2.530078,-3.522265 -2.554883,1.066601 -2.554883,3.522265 v 3.199805 h -0.719336 v -4.415234 q 0,-1.364258 0.694531,-2.182813 0.694531,-0.843359 1.95957,-1.364258 V 37.95638 q -0.446484,-0.04961 -0.992187,-0.09922 -0.545703,-0.04961 -1.016992,-0.124023 0.198437,0.79375 0.198437,1.21543 0,0.719336 -0.347265,1.215429 -0.347266,0.471289 -0.694532,0.471289 h -0.04961 q -0.496094,-0.0248 -0.545703,-0.917773 v -0.09922 q 0,-0.74414 0.917773,-1.95957 -0.694531,-0.124024 -1.364257,-0.322461 -0.669727,-0.198438 -1.339454,-0.446484 0.09922,0.421679 0.148829,0.74414 0.04961,0.322461 0.04961,0.570508 0,0.744141 -0.37207,1.21543 -0.347266,0.446484 -0.694532,0.446484 -0.694531,0 -0.719335,-1.041797 v -0.07441 q 0,-0.79375 1.16582,-2.033984 -0.967383,-0.396875 -2.033985,-1.041797 l 0.09922,0.570508 q 0,0.124023 0,0.272851 0,0.124024 0.02481,0.248047 0,0.917774 -0.396875,1.389063 -0.396875,0.471289 -0.744141,0.471289 h -0.09922 q -0.47129,-0.09922 -0.47129,-0.967383 0,-0.892969 1.240235,-2.207617 L 14.804855,34.334895 Q 14.581612,34.161262 13.490206,33.09466 12.3988,32.052864 10.786495,32.052864 q -0.496093,0 -0.9425778,0.173632 -0.4464844,0.148829 -0.7689453,0.520899 l 0.2728516,14.609961 -0.396875,0.396875 H 6.1480188 L 5.7759485,47.282942 V 35.500715 q 0,-3.050976 1.265039,-4.514453 1.2650391,-1.488281 3.7951175,-1.785937 z m -0.02481,7.962304 V 29.994075 H 10.984933 Q 9.8439172,30.118098 9.0005578,30.514973 8.1820032,30.887043 7.6363,31.55677 7.0905969,32.226496 6.8177454,33.218684 6.5696985,34.210871 6.5696985,35.575129 V 46.960481 H 8.5788782 L 8.1820032,33.193879 q 0,-0.768945 0.6945312,-1.339453 0.7193359,-0.595312 2.0339846,-0.595312 1.95957,0 3.497461,1.612304 1.860351,1.909961 4.440039,3.050977 2.579687,1.141015 5.481835,1.240234 z m 1.240235,-7.168554 v 7.193359 q 1.364258,-0.07441 2.778125,-0.396875 1.413867,-0.347266 2.75332,-0.917774 2.678906,-1.190625 4.216797,-2.877343 1.562695,-1.711524 3.323828,-1.711524 0.545703,0 1.041797,0.124024 0.496094,0.124023 0.868164,0.37207 0.37207,0.223242 0.595312,0.570508 0.223243,0.322461 0.223243,0.74414 l -0.322461,13.865821 h 1.984375 q 0,-0.868164 0,-2.331641 0,-1.488281 -0.02481,-3.100586 0,-1.637109 -0.02481,-3.199805 0,-1.587499 0,-2.678906 0,-3.026172 -1.190625,-4.34082 -1.190625,-1.314648 -4.043164,-1.314648 z"
         style="stroke-width:0.26458332"
         id="path29352"
         inkscape:connector-curvature="0" />
    </g>
  </g>
</svg>
