<?xml version="1.0" encoding="UTF-8" standalone="no"?>
<!-- Created with Inkscape (http://www.inkscape.org/) -->

<svg
   xmlns:dc="http://purl.org/dc/elements/1.1/"
   xmlns:cc="http://creativecommons.org/ns#"
   xmlns:rdf="http://www.w3.org/1999/02/22-rdf-syntax-ns#"
   xmlns:svg="http://www.w3.org/2000/svg"
   xmlns="http://www.w3.org/2000/svg"
   xmlns:sodipodi="http://sodipodi.sourceforge.net/DTD/sodipodi-0.dtd"
   xmlns:inkscape="http://www.inkscape.org/namespaces/inkscape"
   width="38.000782mm"
   height="35.793163mm"
   viewBox="0 0 38.000782 35.793163"
   version="1.1"
   id="svg10404"
   inkscape:version="0.92.4 (5da689c313, 2019-01-14)"
   sodipodi:docname="S14B.svg">
  <defs
     id="defs10398" />
  <sodipodi:namedview
     id="base"
     pagecolor="#ffffff"
     bordercolor="#666666"
     borderopacity="1.0"
     inkscape:pageopacity="0.0"
     inkscape:pageshadow="2"
     inkscape:zoom="0.35"
     inkscape:cx="-308.97266"
     inkscape:cy="-306.19016"
     inkscape:document-units="mm"
     inkscape:current-layer="layer1"
     showgrid="false"
     fit-margin-top="0"
     fit-margin-left="0"
     fit-margin-right="0"
     fit-margin-bottom="0"
     inkscape:window-width="1920"
     inkscape:window-height="1017"
     inkscape:window-x="-8"
     inkscape:window-y="-8"
     inkscape:window-maximized="1" />
  <metadata
     id="metadata10401">
    <rdf:RDF>
      <cc:Work
         rdf:about="">
        <dc:format>image/svg+xml</dc:format>
        <dc:type
           rdf:resource="http://purl.org/dc/dcmitype/StillImage" />
        <dc:title></dc:title>
      </cc:Work>
    </rdf:RDF>
  </metadata>
  <g
     inkscape:label="Layer 1"
     inkscape:groupmode="layer"
     id="layer1"
     transform="translate(5.5634847,-32.027357)">
    <g
       aria-label="𓋢"
       transform="scale(0.26458333)"
       style="font-style:normal;font-variant:normal;font-weight:normal;font-stretch:normal;font-size:192px;line-height:1.25;font-family:sans-serif;-inkscape-font-specification:sans-serif;font-variant-ligatures:normal;font-variant-caps:normal;font-variant-numeric:normal;font-feature-settings:normal;text-align:start;letter-spacing:0px;word-spacing:0px;writing-mode:lr-tb;text-anchor:start;fill:#000000;fill-opacity:1;stroke:none"
       id="flowRoot10949">
      <path
         d="m 50.691406,231.29828 -4.6875,-0.375 q -2.25,-0.0937 -4.5,-0.5625 0.1875,1.125 0.28125,2.34375 0.1875,1.21875 0.1875,2.53125 0,6.09375 -3.5625,6.09375 h -0.28125 q -2.25,0 -2.25,-2.34375 0,-4.03125 3.75,-8.90625 -2.71875,-0.46875 -5.34375,-1.21875 -2.53125,-0.75 -4.96875,-1.6875 0.1875,1.125 0.28125,2.4375 0.1875,1.21875 0.1875,2.53125 0,6.375 -3.46875,6.375 -3.28125,0 -3.28125,-2.8125 0,-3.9375 4.6875,-9.1875 -4.125,-1.6875 -7.6875,-4.03125 0,0.75 0.09375,1.6875 0.09375,0.84375 0.09375,1.875 0,7.875 -3.65625,7.875 -2.8125,0 -2.8125,-2.625 0,-4.3125 4.96875,-9.5625 l -1.96875,-1.40625 q -2.4375,-1.6875 -8.1562497,-6.75 -5.8125,-5.0625 -12.9375,-5.0625 -4.5937501,0 -4.5937501,4.125 l 1.5000001,42.1875 -1.5937501,1.5 H -19.621094 l -1.40625,-1.78125 v -32.625 q 0,-12.46875 5.625,-18.1875 5.6250002,-5.71875 16.9687502,-5.71875 H 99.816406 q 12.000004,0 17.343754,5.8125 5.4375,5.8125 5.4375,18.375 v 32.625 l -1.59375,1.5 h -10.59375 l -1.40625,-1.78125 1.5,-41.90625 q 0,-1.21875 -0.5625,-2.0625 -0.46875,-0.84375 -1.40625,-1.3125 -0.84375,-0.5625 -1.96875,-0.75 -1.03125,-0.1875 -2.0625,-0.1875 -4.781254,0 -10.875004,5.53125 -6.09375,5.625 -8.71875,7.21875 l -1.6875,1.03125 q 5.53125,5.53125 5.53125,9.46875 0,2.34375 -2.8125,2.34375 -2.25,0 -3.375,-3.09375 -1.03125,-3.1875 -1.03125,-7.6875 -1.78125,1.03125 -3.65625,1.96875 -1.78125,0.84375 -3.65625,1.59375 5.15625,5.25 5.15625,9.28125 0,2.53125 -3.09375,2.53125 -4.03125,0 -4.03125,-8.8125 0,-0.75 0,-1.3125 0,-0.65625 0.09375,-1.03125 -2.34375,0.9375 -4.59375,1.59375 -2.15625,0.65625 -4.3125,1.125 3.65625,5.0625 3.65625,8.90625 0,2.15625 -2.15625,2.34375 h -0.28125 q -3.5625,0 -3.5625,-5.90625 0,-1.3125 0.09375,-2.53125 0.09375,-1.3125 0.375,-2.4375 -4.6875,0.84375 -9.28125,0.84375 1.59375,3.9375 1.59375,7.21875 0,3.75 -2.90625,3.75 -2.71875,0 -2.71875,-3 0,-3.5625 2.4375,-7.96875 z m 0.75,-3 q 11.15625,0 21.75,-4.3125 10.5,-4.3125 17.15625,-11.34375 6.46875,-7.03125 14.625004,-7.03125 3.375,0 5.90625,1.59375 2.625,1.59375 2.625,5.71875 l -1.40625,40.40625 h 7.5 v -30.75 q 0,-11.25 -4.40625,-16.40625 -4.3125,-5.15625 -15.375004,-5.15625 H 1.5664062 q -5.34375,0 -9.0937499,1.21875 -3.6562503,1.125 -6.0000003,3.75 -2.34375,2.53125 -3.46875,6.5625 -1.03125,4.03125 -1.03125,9.65625 v 31.125 h 7.5 l -1.40625,-40.40625 q 0,-3.75 2.1562502,-5.53125 2.2500001,-1.875 5.90625,-1.875 9,0 15.7499998,6.75 6.75,6.65625 15.75,11.0625 4.5,2.15625 10.40625,3.375 5.90625,1.21875 13.40625,1.59375 z m 1.78125,-50.53125 q 5.4375,2.34375 5.4375,8.34375 v 9.75 h -1.59375 v -7.03125 q 0,-5.4375 -5.625,-7.875 -5.625,2.4375 -5.625,7.875 v 7.03125 h -1.59375 v -9.75 q 0,-6 5.4375,-8.34375 v -39.46875 q 0,-2.8125 -3.5625,-3.46875 -3.65625,3.09375 -7.03125,10.875 -2.25,-0.9375 -2.25,-2.25 0,-1.03125 0.75,-2.34375 0.84375,-1.40625 1.59375,-3.09375 0.75,-1.59375 1.40625,-3 0.65625,-1.40625 1.125,-2.71875 0.9375,-2.4375 4.40625,-3.46875 1.21875,-1.3125 3.1875,-3.1875 2.0625,-1.875 4.875,-4.3125 0.65625,-0.28125 1.3125,-0.28125 1.21875,0 1.21875,1.3125 l -0.1875,1.21875 q -4.78125,3.375 -7.59375,8.15625 4.3125,2.0625 4.3125,6.46875 z"
         id="path10957"
         inkscape:connector-curvature="0" />
    </g>
  </g>
</svg>
