<?xml version="1.0" encoding="UTF-8" standalone="no"?>
<!-- Created with Inkscape (http://www.inkscape.org/) -->

<svg
   xmlns:dc="http://purl.org/dc/elements/1.1/"
   xmlns:cc="http://creativecommons.org/ns#"
   xmlns:rdf="http://www.w3.org/1999/02/22-rdf-syntax-ns#"
   xmlns:svg="http://www.w3.org/2000/svg"
   xmlns="http://www.w3.org/2000/svg"
   xmlns:sodipodi="http://sodipodi.sourceforge.net/DTD/sodipodi-0.dtd"
   xmlns:inkscape="http://www.inkscape.org/namespaces/inkscape"
   width="38.050392mm"
   height="38.000782mm"
   viewBox="0 0 38.050392 38.000782"
   version="1.1"
   id="svg29361"
   inkscape:version="0.92.4 (5da689c313, 2019-01-14)"
   sodipodi:docname="S15.svg">
  <defs
     id="defs29355" />
  <sodipodi:namedview
     id="base"
     pagecolor="#ffffff"
     bordercolor="#666666"
     borderopacity="1.0"
     inkscape:pageopacity="0.0"
     inkscape:pageshadow="2"
     inkscape:zoom="0.35"
     inkscape:cx="-343.25977"
     inkscape:cy="-372.09055"
     inkscape:document-units="mm"
     inkscape:current-layer="layer1"
     showgrid="false"
     fit-margin-top="0"
     fit-margin-left="0"
     fit-margin-right="0"
     fit-margin-bottom="0"
     inkscape:window-width="1920"
     inkscape:window-height="1017"
     inkscape:window-x="-8"
     inkscape:window-y="-8"
     inkscape:window-maximized="1" />
  <metadata
     id="metadata29358">
    <rdf:RDF>
      <cc:Work
         rdf:about="">
        <dc:format>image/svg+xml</dc:format>
        <dc:type
           rdf:resource="http://purl.org/dc/dcmitype/StillImage" />
        <dc:title></dc:title>
      </cc:Work>
    </rdf:RDF>
  </metadata>
  <g
     inkscape:label="Layer 1"
     inkscape:groupmode="layer"
     id="layer1"
     transform="translate(-3.508313,-12.383595)">
    <g
       aria-label="𓋣"
       transform="scale(0.26458333)"
       style="font-style:normal;font-variant:normal;font-weight:normal;font-stretch:normal;font-size:192px;line-height:1.25;font-family:sans-serif;-inkscape-font-specification:'sans-serif, Normal';font-variant-ligatures:normal;font-variant-caps:normal;font-variant-numeric:normal;font-feature-settings:normal;text-align:start;letter-spacing:0px;word-spacing:0px;writing-mode:lr-tb;text-anchor:start;fill:#000000;fill-opacity:1;stroke:none"
       id="flowRoot29906">
      <path
         d="m 13.259766,96.58539 v -24.5625 l 1.40625,-1.78125 h 18.375 l -9.65625,-21.1875 1.21875,-2.25 h 27.28125 l 1.5,1.96875 -9.75,21.46875 h 36.1875 l -9.5625,-21.1875 1.21875,-2.25 h 27.1875 l 1.500004,1.96875 -9.750004,21.46875 h 36.093754 l -9.65625,-21.1875 1.21875,-2.25 h 27.28125 l 1.5,1.96875 -9.75,21.46875 h 18.375 l 1.59375,1.5 v 25.125 l -2.53125,1.125 -12.09375,-8.71875 h -8.34375 q 6.28125,20.4375 7.5,41.4375 l 0.375,7.96875 q 0,4.03125 0.0937,8.0625 v 6.09375 l -0.375,13.03125 q -0.28125,9.28125 -2.625,16.96875 -2.25,7.59375 -6.9375,7.59375 -2.90625,0 -5.0625,-2.8125 -2.0625,-2.90625 -3,-8.34375 l -0.5625,-3 q -0.9375,-5.4375 -1.21875,-14.625 -0.1875,-9.1875 -0.1875,-16.21875 0,-18.65625 2.15625,-31.5 2.25,-12.84375 5.8125,-24.65625 H 87.134766 q 6.28125,20.4375 7.5,41.4375 l 0.375,7.96875 q 0,4.03125 0.09375,8.0625 v 6.09375 l -0.375,13.03125 q -0.28125,9.28125 -2.625,16.96875 -2.25,7.59375 -6.9375,7.59375 -5.625,0 -7.78125,-9.75 -2.15625,-9.75 -2.15625,-32.34375 0,-17.34375 1.875,-31.6875 1.96875,-14.34375 6,-27.375 h -42.9375 q 6.28125,20.4375 7.5,41.4375 l 0.375,7.96875 q 0,4.03125 0.09375,8.0625 v 6.09375 l -0.375,13.03125 q -0.28125,9.28125 -2.625,16.96875 -2.25,7.59375 -6.9375,7.59375 -5.625,0 -7.78125,-9.84375 -2.15625,-9.9375 -2.15625,-31.5 0,-16.78125 1.6875,-30.75 1.78125,-13.96875 6.1875,-29.0625 h -6.65625 l -13.875,8.8125 z m 3,-2.4375 12.1875,-7.78125 H 142.82227 l 11.25,7.59375 V 73.24164 H 16.259766 Z m 122.625004,64.59375 q 0,-2.15625 0.0937,-4.3125 v -4.125 q 0,-16.40625 -1.5,-29.8125 -1.5,-13.40625 -5.4375,-27.375 -3.84375,13.875 -5.34375,26.71875 -1.5,12.75 -1.5,28.125 v 6.65625 q 0,11.34375 1.21875,21 1.3125,9.65625 5.0625,11.90625 l 0.65625,0.0937 q 0.1875,0 0.75,-0.0937 1.3125,-0.84375 2.25,-2.53125 0.9375,-1.6875 1.40625,-3.84375 l 0.5625,-2.34375 q 1.03125,-4.96875 1.3125,-9.9375 0.375,-5.0625 0.46875,-10.125 z m -46.968754,0 q 0,-2.15625 0.09375,-4.3125 v -4.125 q 0,-16.40625 -1.5,-29.8125 -1.5,-13.40625 -5.4375,-27.375 -3.9375,13.96875 -5.4375,27.28125 -1.40625,13.3125 -1.40625,27.375 0,17.4375 1.21875,27.46875 1.3125,9.9375 5.0625,12.28125 l 0.65625,0.0937 q 0.1875,0 0.75,-0.0937 1.3125,-0.84375 2.25,-2.53125 0.9375,-1.6875 1.40625,-3.84375 l 0.5625,-2.34375 q 1.03125,-4.96875 1.3125,-9.9375 0.375,-5.0625 0.46875,-10.125 z m -46.96875,0 q 0,-2.15625 0.09375,-4.3125 v -4.125 q 0,-16.6875 -1.59375,-30.28125 -1.59375,-13.6875 -5.25,-26.90625 -3.46875,12.65625 -5.15625,25.875 -1.6875,13.125 -1.6875,29.53125 l 0.1875,13.21875 q 0.46875,13.125 1.875,18.65625 1.5,5.53125 4.125,7.125 l 0.65625,0.0937 q 0.1875,0 0.75,-0.0937 1.3125,-0.84375 2.25,-2.53125 0.9375,-1.6875 1.40625,-3.84375 l 0.5625,-2.34375 q 1.03125,-4.96875 1.3125,-9.9375 0.375,-5.0625 0.46875,-10.125 z m 75.562504,-108.9375 9.28125,20.4375 h 4.125 l 9.1875,-20.4375 z m -93.468754,0 9.28125,20.4375 h 4.125 l 9.1875,-20.4375 z m 46.875,0 9.1875,20.4375 h 4.125 l 9.1875,-20.4375 z"
         id="path29914"
         inkscape:connector-curvature="0" />
    </g>
  </g>
</svg>
