<?xml version="1.0" encoding="UTF-8" standalone="no"?>
<!-- Created with Inkscape (http://www.inkscape.org/) -->

<svg
   xmlns:dc="http://purl.org/dc/elements/1.1/"
   xmlns:cc="http://creativecommons.org/ns#"
   xmlns:rdf="http://www.w3.org/1999/02/22-rdf-syntax-ns#"
   xmlns:svg="http://www.w3.org/2000/svg"
   xmlns="http://www.w3.org/2000/svg"
   xmlns:sodipodi="http://sodipodi.sourceforge.net/DTD/sodipodi-0.dtd"
   xmlns:inkscape="http://www.inkscape.org/namespaces/inkscape"
   width="24.457422mm"
   height="38.025585mm"
   viewBox="0 0 24.457422 38.025585"
   version="1.1"
   id="svg10966"
   inkscape:version="0.92.4 (5da689c313, 2019-01-14)"
   sodipodi:docname="S16.svg">
  <defs
     id="defs10960" />
  <sodipodi:namedview
     id="base"
     pagecolor="#ffffff"
     bordercolor="#666666"
     borderopacity="1.0"
     inkscape:pageopacity="0.0"
     inkscape:pageshadow="2"
     inkscape:zoom="0.35"
     inkscape:cx="-311.83008"
     inkscape:cy="-340.28782"
     inkscape:document-units="mm"
     inkscape:current-layer="layer1"
     showgrid="false"
     fit-margin-top="0"
     fit-margin-left="0"
     fit-margin-right="0"
     fit-margin-bottom="0"
     inkscape:window-width="1920"
     inkscape:window-height="1017"
     inkscape:window-x="-8"
     inkscape:window-y="-8"
     inkscape:window-maximized="1" />
  <metadata
     id="metadata10963">
    <rdf:RDF>
      <cc:Work
         rdf:about="">
        <dc:format>image/svg+xml</dc:format>
        <dc:type
           rdf:resource="http://purl.org/dc/dcmitype/StillImage" />
        <dc:title></dc:title>
      </cc:Work>
    </rdf:RDF>
  </metadata>
  <g
     inkscape:label="Layer 1"
     inkscape:groupmode="layer"
     id="layer1"
     transform="translate(4.8074585,-20.773264)">
    <g
       aria-label="𓋤"
       transform="scale(0.26458333)"
       style="font-style:normal;font-variant:normal;font-weight:normal;font-stretch:normal;font-size:192px;line-height:1.25;font-family:sans-serif;-inkscape-font-specification:sans-serif;font-variant-ligatures:normal;font-variant-caps:normal;font-variant-numeric:normal;font-feature-settings:normal;text-align:start;letter-spacing:0px;word-spacing:0px;writing-mode:lr-tb;text-anchor:start;fill:#000000;fill-opacity:1;stroke:none"
       id="flowRoot11511">
      <path
         d="m 45.767578,96.981874 v 4.593746 q 7.6875,1.78125 11.8125,7.5 4.125,5.625 4.5,18.65625 2.53125,3.5625 4.21875,7.6875 1.78125,4.125 1.78125,8.625 v 0.9375 q -0.1875,2.625 -0.84375,5.15625 -0.5625,2.4375 -0.5625,5.0625 2.4375,4.5 3.75,8.90625 1.3125,4.3125 1.3125,9.375 0,3.28125 -0.375,5.34375 -0.375,1.96875 -0.375,3.65625 0,1.5 0.28125,3.1875 0.28125,1.6875 0.75,3.1875 l 1.03125,4.03125 q 0.46875,2.0625 0.84375,4.03125 0.375,1.96875 0.375,3.84375 0,4.125 -2.34375,7.40625 -2.34375,3.375 -9.46875,6.28125 l -1.6875,-0.75 q -2.8125,-3.5625 -4.125,-7.125 -1.3125,-3.65625 -1.3125,-7.3125 0,-3.28125 0.9375,-6.5625 0.9375,-3.375 2.625,-6.9375 -2.4375,-4.3125 -4.40625,-8.71875 -1.875,-4.5 -1.875,-8.4375 0,-1.21875 0.1875,-2.90625 0.28125,-1.6875 0.65625,-3.09375 l 0.75,-4.125 q 0.375,-1.78125 0.375,-4.125 -2.15625,-4.3125 -3.9375,-8.71875 -1.6875,-4.5 -1.6875,-9.28125 0,-3.375 1.03125,-6.375 -2.15625,-3.9375 -6.09375,-8.8125 -3.9375,-4.875 -5.53125,-11.71875 l -4.125,2.90625 q 3.9375,6.09375 3.9375,12.65625 0,6 -3.28125,12.75 0,1.59375 0.375,3.1875 0.46875,1.5 1.03125,3 l 1.03125,3.09375 q 0.375,1.21875 0.5625,2.53125 0.1875,1.21875 0.1875,2.15625 0,2.15625 -1.59375,6.75 -1.59375,4.5 -1.59375,7.125 1.875,2.90625 3.09375,6.28125 1.3125,3.28125 1.3125,6.65625 0,3.75 -2.25,8.25 -2.15625,4.5 -2.15625,7.5 2.25,2.4375 3.46875,6.09375 1.3125,3.65625 1.3125,7.59375 0,5.34375 -2.625,9.75 -2.53125,4.5 -7.40625,4.5 l -5.4375,-0.1875 q -0.65625,0 -1.6875,-0.75 -1.03125,-0.65625 -2.15625,-1.78125 l -0.84375,-0.84375 q -1.5,-1.59375 -2.0625,-3.75 -0.5625,-2.15625 -0.5625,-4.5 0,-4.5 1.5,-8.71875 1.5,-4.21875 4.40625,-7.40625 -0.1875,-1.875 -0.9375,-3.9375 -0.75,-2.15625 -1.96875,-4.59375 -2.4375,-4.875 -2.4375,-8.8125 0,-3 1.125,-5.90625 1.125,-3 2.71875,-5.4375 0,-1.59375 -0.375,-3.1875 -0.375,-1.59375 -0.84375,-3.1875 l -1.125,-3.5625 q -0.375,-1.5 -0.5625,-3.28125 0,-1.875 0.28125,-3.75 0.375,-1.875 1.125,-4.03125 1.5,-4.21875 1.5,-6.9375 -1.40625,-3.46875 -2.15625,-6.46875 -0.75,-3 -0.75,-5.90625 0,-3.28125 1.125,-6.28125 1.125,-3.09375 3.5625,-6.28125 -2.8125,-0.84375 -5.34375,-2.90625 -1.875,7.3125 -6,12.28125 -2.0624999,2.4375 -3.4687499,4.40625 -1.3125,1.96875 -1.96875,3.46875 1.125,3.09375 1.125,6.28125 0,4.78125 -1.875,9.28125 -1.78125,4.5 -3.9375,8.71875 0,2.0625 0.375,3.65625 l 0.75,3.65625 q 0.28125,1.5 0.5625,3.375 0.28125,1.875 0.28125,4.03125 -0.1875,2.15625 -1.03125,4.78125 -0.75,2.53125 -2.24999997,5.53125 l -3.09375003,6.375 q 3.56250002,6.9375 3.56250002,13.40625 0,3.9375 -1.31249999,7.59375 -1.31250003,3.65625 -4.12500003,7.21875 l -1.78125,0.46875 q -4.9687501,-1.875 -8.3437501,-5.53125 -3.375,-3.65625 -3.375,-8.90625 0,-1.875 0.375,-3.28125 l 1.59375,-5.625 q 0.375,-1.40625 0.65625,-2.8125 0.375,-1.40625 0.5625,-2.8125 v -12.09375 q 0,-4.59375 0.9375,-8.90625 0.9375,-4.40625 3.65625,-9.28125 0,-2.53125 -0.65625,-4.96875 -0.65625,-2.53125 -0.84375,-4.96875 v -1.3125 q 0,-4.5 1.6875,-8.53125 1.6875001,-4.03125 4.3125001,-7.5 0.375,-12.9375 4.40625,-18.65625 3.84375,-5.53125 11.9999999,-7.6875 v -3.656246 q 0,-4.875 1.3125,-8.53125 1.3125,-3.65625 3.65625,-6 2.4375,-2.4375 5.71875,-3.5625 3.375,-1.21875 7.3125,-1.21875 3.09375,0 5.90625,0.84375 2.90625,0.75 5.15625,2.34375 2.34375,1.59375 3.84375,4.03125 1.5,2.34375 1.96875,5.53125 0.1875,1.59375 0.28125,3 0.09375,1.40625 0.09375,2.71875 z m -14.625,16.312496 h -4.59375 q -2.53125,2.71875 -3.9375,5.71875 -1.3125,3 -1.3125,6.46875 0,1.875 0.28125,3.46875 0.375,1.59375 1.03125,3.09375 l 0.75,2.0625 q 0.375,1.03125 0.65625,2.0625 0.28125,1.03125 0.28125,1.78125 0,1.875 -0.5625,3.5625 l -1.125,3.46875 q -0.46875,1.59375 -0.84375,3.28125 -0.375,1.59375 -0.375,3.09375 0,2.53125 0.65625,4.21875 l 1.21875,3.75 q 0.375,1.40625 0.75,2.90625 0.375,1.5 0.375,2.53125 0,2.15625 -1.5,3.9375 -1.3125,1.6875 -2.34375,7.125 v 1.03125 q 0,3.28125 2.53125,8.625 2.625,5.25 2.625,8.25 0,1.78125 -1.125,3.1875 l -1.3125,1.6875 q -1.3125,1.6875 -2.34375,4.875 -1.03125,3.09375 -1.03125,6.1875 0,2.8125 1.03125,5.34375 1.125,2.53125 3.75,4.03125 h 6.75 q 2.8125,-1.96875 4.125,-4.96875 1.40625,-3.09375 1.40625,-6.375 0,-5.0625 -2.53125,-8.625 -2.53125,-3.46875 -2.53125,-4.875 v -0.28125 q 0.28125,-2.625 2.15625,-7.40625 1.96875,-4.6875 2.25,-7.40625 v -0.84375 q 0,-3.9375 -2.25,-7.875 -2.25,-3.9375 -2.25,-5.71875 0,-1.40625 0.375,-3 0.375,-1.6875 0.84375,-3.1875 l 1.21875,-3.84375 q 0.28125,-0.9375 0.46875,-1.78125 0.28125,-0.9375 0.28125,-1.875 0,-2.4375 -1.40625,-6.375 -1.59375,-4.03125 -1.6875,-6.46875 0,-1.875 1.03125,-3.75 l 0.84375,-1.96875 q 0.65625,-1.3125 0.9375,-3.28125 0.375,-2.0625 0.375,-3.9375 0,-6.28125 -3.9375,-11.90625 z m 9.9375,-5.625 q 0.46875,2.0625 0.84375,3.65625 0.46875,1.5 1.03125,2.90625 0.5625,1.3125 1.21875,2.53125 0.75,1.125 1.78125,2.53125 l 2.53125,3.28125 q 1.3125,1.59375 2.4375,3.28125 1.125,1.6875 2.0625,3.5625 v 0.9375 q -1.03125,3 -1.03125,5.90625 0,5.25 2.90625,11.15625 2.8125,5.90625 2.8125,7.21875 0,0.65625 -0.09375,1.03125 l -0.375,1.96875 q -0.46875,2.90625 -1.03125,5.34375 -0.5625,2.34375 -0.5625,4.6875 v 1.3125 q 0.28125,4.03125 2.90625,8.8125 1.3125,2.4375 2.15625,4.3125 0.9375,1.875 1.3125,3.1875 v 0.9375 q -1.59375,3.28125 -2.53125,6.5625 -0.9375,3.28125 -0.9375,6.5625 0,3.09375 0.9375,6.09375 0.9375,3 3.09375,5.71875 3.5625,-1.21875 6.09375,-3.9375 2.625,-2.8125 2.625,-6.75 0,-2.8125 -1.59375,-7.875 -1.5,-4.78125 -1.5,-8.15625 0,-1.03125 0,-3.09375 0.09375,-2.15625 0.28125,-4.3125 0.09375,-2.4375 0.28125,-5.15625 0,-2.71875 -0.65625,-5.34375 -0.65625,-2.625 -1.40625,-4.3125 l -1.21875,-2.4375 q -1.21875,-2.25 -1.59375,-3.1875 -0.28125,-1.03125 -0.28125,-2.4375 0,-1.5 0.65625,-4.21875 0.75,-3.28125 0.75,-5.90625 0,-5.15625 -2.0625,-9.1875 -1.96875,-4.125 -2.90625,-4.5 -0.84375,-0.375 -1.3125,-5.53125 -0.28125,-3.65625 -0.9375,-6.9375 -0.5625,-3.28125 -2.0625,-5.90625 -1.5,-2.71875 -4.125,-4.6875 -2.625,-1.96875 -6.9375,-3 z m -25.96875,0 -3.65625,-3.375 q -3.3749999,0.84375 -5.8124999,2.15625 -2.34375,1.21875 -4.03125,3.375 -1.59374997,2.15625 -2.53124998,5.25 -0.93750002,3.09375 -1.40625002,7.59375 -0.5625,6 -0.65625,6.28125 -0.09375,0.1875 -0.65625,1.03125 -0.5625,0.75 -1.6875,2.34375 -2.15625,3.09375 -3.09375,7.3125 l -0.28125,2.25 q -0.09375,0.5625 -0.1875,1.125 0,0.5625 0,1.03125 0,1.40625 0.1875,2.90625 0.28125,1.5 0.5625,2.90625 0.375,1.3125 0.5625,2.53125 0.28125,1.125 0.28125,1.875 0,2.4375 -1.125,3.65625 -1.03125,1.3125 -2.4375001,5.4375 -1.40625,4.03125 -1.40625,10.5 0,2.8125 0.09375,5.53125 0.1875,2.625 0.1875,4.875 0,3.09375 -1.5,8.15625 -1.5,5.0625 -1.5,8.0625 0,3.46875 1.875,6.09375 1.96875,2.625 6.7500001,4.59375 2.15625,-2.71875 3.09375,-5.625 0.9375,-3 0.9375,-6.09375 0,-4.78125 -1.78125,-9 -0.46875,-1.3125 -0.84375,-2.15625 -0.375,-0.9375 -0.5625,-1.59375 -0.28125,-0.75 -0.375,-1.21875 0.65625,-2.15625 3.375,-7.5 2.62500002,-5.15625 3.09375002,-9.28125 0,-2.15625 -0.37499999,-3.65625 l -0.9375,-4.21875 q -0.28125003,-1.40625 -0.56250003,-3 -0.28125,-1.59375 -0.28125,-2.4375 0,-1.78125 3,-8.25 3,-6.46875 3,-10.96875 0,-2.71875 -1.03125,-5.53125 v -1.5 q 1.96875,-3.5625 6,-8.71875 4.1249999,-5.4375 5.7187499,-12.75 z m 27.46875,-5.8125 v -6.093746 q 0,-3.09375 -0.65625,-5.71875 -0.65625,-2.625 -2.25,-4.5 -1.59375,-1.96875 -4.21875,-3 -2.625,-1.125 -6.65625,-1.125 -3.28125,0 -6.09375,1.03125 -2.8125,1.03125 -4.875,3 -2.0625,1.875 -3.1875,4.59375 -1.125,2.71875 -1.125,6.09375 v 5.624996 q 2.15625,1.96875 3.84375,3.5625 1.5,1.3125 2.90625,2.625 1.40625,1.21875 1.875,1.40625 2.0625,0.84375 9.375,0.84375 2.53125,-1.40625 4.78125,-3 2.34375,-1.6875 4.5,-3.5625 z"
         id="path11519"
         inkscape:connector-curvature="0" />
    </g>
  </g>
</svg>
