<?xml version="1.0" encoding="UTF-8" standalone="no"?>
<!-- Created with Inkscape (http://www.inkscape.org/) -->

<svg
   xmlns:dc="http://purl.org/dc/elements/1.1/"
   xmlns:cc="http://creativecommons.org/ns#"
   xmlns:rdf="http://www.w3.org/1999/02/22-rdf-syntax-ns#"
   xmlns:svg="http://www.w3.org/2000/svg"
   xmlns="http://www.w3.org/2000/svg"
   xmlns:sodipodi="http://sodipodi.sourceforge.net/DTD/sodipodi-0.dtd"
   xmlns:inkscape="http://www.inkscape.org/namespaces/inkscape"
   width="19.42207mm"
   height="37.579102mm"
   viewBox="0 0 19.42207 37.579102"
   version="1.1"
   id="svg29923"
   inkscape:version="0.92.4 (5da689c313, 2019-01-14)"
   sodipodi:docname="S17.svg">
  <defs
     id="defs29917" />
  <sodipodi:namedview
     id="base"
     pagecolor="#ffffff"
     bordercolor="#666666"
     borderopacity="1.0"
     inkscape:pageopacity="0.0"
     inkscape:pageshadow="2"
     inkscape:zoom="0.35"
     inkscape:cx="-348.97266"
     inkscape:cy="-367.69016"
     inkscape:document-units="mm"
     inkscape:current-layer="layer1"
     showgrid="false"
     fit-margin-top="0"
     fit-margin-left="0"
     fit-margin-right="0"
     fit-margin-bottom="0"
     inkscape:window-width="1920"
     inkscape:window-height="1017"
     inkscape:window-x="-8"
     inkscape:window-y="-8"
     inkscape:window-maximized="1" />
  <metadata
     id="metadata29920">
    <rdf:RDF>
      <cc:Work
         rdf:about="">
        <dc:format>image/svg+xml</dc:format>
        <dc:type
           rdf:resource="http://purl.org/dc/dcmitype/StillImage" />
        <dc:title></dc:title>
      </cc:Work>
    </rdf:RDF>
  </metadata>
  <g
     inkscape:label="Layer 1"
     inkscape:groupmode="layer"
     id="layer1"
     transform="translate(-5.0198485,-13.969545)">
    <g
       aria-label="𓋥"
       transform="scale(0.26458333)"
       style="font-style:normal;font-variant:normal;font-weight:normal;font-stretch:normal;font-size:192px;line-height:1.25;font-family:sans-serif;-inkscape-font-specification:'sans-serif, Normal';font-variant-ligatures:normal;font-variant-caps:normal;font-variant-numeric:normal;font-feature-settings:normal;text-align:start;letter-spacing:0px;word-spacing:0px;writing-mode:lr-tb;text-anchor:start;fill:#000000;fill-opacity:1;stroke:none"
       id="flowRoot30468">
      <path
         d="m 35.660156,194.82953 h -4.6875 l -1.5,-6.09375 1.5,-7.5 -1.5,-6.09375 1.5,-7.5 -1.5,-6.09375 1.5,-7.5 -1.5,-6.09375 1.5,-7.59375 -1.5,-6 1.5,-6.09375 -1.5,-7.5 1.5,-6.09375 -1.5,-7.5 1.5,-6.09375 -1.5,-7.59375 1.125,-4.5 h -10.21875 l -1.40625,-1.78125 V 71.17328 l 1.40625,-1.78125 h 26.90625 q -2.71875,-3 -2.71875,-6.84375 0,-2.0625 0.75,-3.84375 0.84375,-1.78125 2.25,-3.09375 1.40625,-1.3125 3.28125,-2.0625 1.875,-0.75 3.9375,-0.75 2.15625,0 4.03125,0.84375 1.875,0.84375 3.28125,2.25 1.40625,1.40625 2.25,3.28125 0.84375,1.875 0.84375,3.9375 0,3.5625 -2.4375,6.28125 h 28.03125 l 1.59375,1.5 v 16.59375 l -1.59375,1.5 h -10.78125 l -1.125,4.5 1.5,7.59375 -1.5,6.09375 1.5,7.5 -1.5,6.09375 1.5,7.5 -1.5,6.09375 1.5,6 -1.5,7.59375 1.5,6.09375 -1.5,7.5 1.5,6.09375 -1.5,7.5 1.5,6.09375 -1.5,7.5 1.5,6.09375 h -4.6875 l -1.5,-6.09375 1.5,-7.5 -1.5,-6.09375 1.5,-7.5 -1.5,-6.09375 1.5,-7.5 -1.5,-6.09375 1.5,-7.59375 -1.5,-6 1.5,-6.09375 -1.5,-7.5 1.5,-6.09375 -1.5,-7.5 1.5,-6.09375 -1.5,-7.59375 1.125,-4.5 h -16.875 l -1.125,4.5 1.5,7.59375 -1.5,6.09375 1.5,7.5 -1.5,6.09375 1.5,7.5 -1.5,6.09375 1.5,6 -1.5,7.59375 1.5,6.09375 -1.5,7.5 1.5,6.09375 -1.5,7.5 1.5,6.09375 -1.5,7.5 1.5,6.09375 h -4.6875 l -1.5,-6.09375 1.5,-7.5 -1.5,-6.09375 1.5,-7.5 -1.5,-6.09375 1.5,-7.5 -1.5,-6.09375 1.5,-7.59375 -1.5,-6 1.5,-6.09375 -1.5,-7.5 1.5,-6.09375 -1.5,-7.5 1.5,-6.09375 -1.5,-7.59375 1.125,-4.5 h -18.46875 l -1.125,4.5 1.5,7.59375 -1.5,6.09375 1.5,7.5 -1.5,6.09375 1.5,7.5 -1.5,6.09375 1.5,6 -1.5,7.59375 1.5,6.09375 -1.5,7.5 1.5,6.09375 -1.5,7.5 1.5,6.09375 -1.5,7.5 z m -13.6875,-122.4375 v 13.59375 h 67.40625 V 72.39203 Z m 32.15625,-3 h 0.65625 q 3.9375,0 5.71875,-1.96875 1.78125,-1.96875 1.78125,-4.40625 0,-3.1875 -2.34375,-5.15625 -2.25,-2.0625 -5.4375,-2.0625 -3,0 -4.96875,2.0625 -1.875,2.0625 -1.875,4.78125 0,1.21875 0.375,2.4375 0.375,1.21875 1.125,2.15625 0.84375,0.9375 2.0625,1.59375 1.21875,0.5625 2.90625,0.5625 z"
         id="path30476"
         inkscape:connector-curvature="0" />
    </g>
  </g>
</svg>
