<?xml version="1.0" encoding="UTF-8" standalone="no"?>
<!-- Created with Inkscape (http://www.inkscape.org/) -->

<svg
   xmlns:dc="http://purl.org/dc/elements/1.1/"
   xmlns:cc="http://creativecommons.org/ns#"
   xmlns:rdf="http://www.w3.org/1999/02/22-rdf-syntax-ns#"
   xmlns:svg="http://www.w3.org/2000/svg"
   xmlns="http://www.w3.org/2000/svg"
   xmlns:sodipodi="http://sodipodi.sourceforge.net/DTD/sodipodi-0.dtd"
   xmlns:inkscape="http://www.inkscape.org/namespaces/inkscape"
   width="29.964062mm"
   height="37.603905mm"
   viewBox="0 0 29.964062 37.603905"
   version="1.1"
   id="svg30485"
   inkscape:version="0.92.4 (5da689c313, 2019-01-14)"
   sodipodi:docname="S18.svg">
  <defs
     id="defs30479" />
  <sodipodi:namedview
     id="base"
     pagecolor="#ffffff"
     bordercolor="#666666"
     borderopacity="1.0"
     inkscape:pageopacity="0.0"
     inkscape:pageshadow="2"
     inkscape:zoom="0.35"
     inkscape:cx="-366.11607"
     inkscape:cy="-369.92858"
     inkscape:document-units="mm"
     inkscape:current-layer="layer1"
     showgrid="false"
     fit-margin-top="0"
     fit-margin-left="0"
     fit-margin-right="0"
     fit-margin-bottom="0"
     inkscape:window-width="1920"
     inkscape:window-height="1017"
     inkscape:window-x="-8"
     inkscape:window-y="-8"
     inkscape:window-maximized="1" />
  <metadata
     id="metadata30482">
    <rdf:RDF>
      <cc:Work
         rdf:about="">
        <dc:format>image/svg+xml</dc:format>
        <dc:type
           rdf:resource="http://purl.org/dc/dcmitype/StillImage" />
        <dc:title></dc:title>
      </cc:Work>
    </rdf:RDF>
  </metadata>
  <g
     inkscape:label="Layer 1"
     inkscape:groupmode="layer"
     id="layer1"
     transform="translate(-9.5557108,-13.35249)">
    <g
       aria-label="𓋧"
       style="font-style:normal;font-variant:normal;font-weight:normal;font-stretch:normal;font-size:50.79999924px;line-height:1.25;font-family:sans-serif;-inkscape-font-specification:'sans-serif, Normal';font-variant-ligatures:normal;font-variant-caps:normal;font-variant-numeric:normal;font-feature-settings:normal;text-align:start;letter-spacing:0px;word-spacing:0px;writing-mode:lr-tb;text-anchor:start;fill:#000000;fill-opacity:1;stroke:none;stroke-width:0.26458332"
       id="text31032">
      <path
         d="m 15.384812,30.070849 0.694531,-0.04961 q 0.768946,0 1.091407,0.396875 0.347265,0.37207 0.347265,1.091406 0,1.463477 -1.389062,3.96875 -1.364258,2.480469 -1.364258,4.167187 0,2.133203 1.091406,3.150196 1.091407,1.016992 2.753321,1.016992 1.810742,0 2.976562,-1.141016 1.16582,-1.141015 1.16582,-3.224609 -0.272851,-0.520899 -0.496093,-0.967383 -0.198438,-0.446484 -0.42168,-0.892969 -0.198438,-0.471289 -0.42168,-0.967382 Q 21.213914,36.123192 20.990672,35.503075 20.841843,35.1062 20.71782,34.833348 20.6186,34.560497 20.444968,34.014793 20.246531,33.46909 20.072898,32.774559 19.92407,32.080028 19.92407,31.559129 q 0,-0.768945 0.347266,-1.16582 0.37207,-0.396875 0.942578,-0.396875 0.892968,0 1.389062,0.644922 0.248047,0.322461 0.694531,0.917773 0.471289,0.595313 1.165821,1.513086 0.694531,0.917774 1.240234,1.984375 0.570508,1.041797 1.041797,2.257227 0.917773,2.38125 0.917773,4.7625 0,3.844726 -2.480468,6.474023 -2.282032,2.38125 -6.027539,2.38125 -2.331641,0 -4.216797,-0.744141 -1.860352,-0.768945 -3.125391,-2.33164 -2.2572262,-2.852539 -2.2572262,-7.069336 0,-2.629297 2.3812502,-6.622851 2.430859,-3.993555 3.447851,-4.092773 z m 22.150586,11.53418 q 0.967383,0.694531 1.463476,1.885156 0.520899,1.16582 0.520899,2.430859 0,1.091406 -0.446485,2.033985 -0.421679,0.917773 -1.16582,1.5875 -0.719336,0.669726 -1.686719,1.041796 -0.942578,0.372071 -1.984375,0.372071 -1.091406,0 -2.033984,-0.446485 -0.917773,-0.446484 -1.612305,-1.190625 -0.694531,-0.74414 -1.091406,-1.711523 -0.37207,-0.967383 -0.37207,-2.033984 0,-0.570508 0.148828,-1.165821 0.148828,-0.595312 0.42168,-1.141015 0.272851,-0.545703 0.620117,-0.992188 0.37207,-0.446484 0.818555,-0.719336 l -1.5875,-16.916796 0.37207,-0.471289 h 8.805664 l 0.42168,0.396875 z m -15.800586,-10.69082 -0.297656,-0.07441 h -0.173633 q -0.223242,0 -0.347266,0.0248 -0.198437,0.148828 -0.198437,0.570508 0,0.37207 0.07441,0.79375 0.07441,0.396875 0.173633,0.79375 0.09922,0.396875 0.223242,0.768945 0.124023,0.372071 0.223242,0.620117 l 1.091406,2.703711 0.520899,1.041797 q 0.496094,1.016992 0.545703,1.21543 0.02481,0.124023 0.02481,0.322461 0,0.74414 -0.570508,2.158008 -0.545703,1.364257 -1.711524,2.058789 -1.16582,0.694531 -2.579687,0.694531 -1.934766,0 -3.348633,-1.265039 -1.413867,-1.289844 -1.413867,-3.571875 0,-1.537891 0.942578,-3.571875 l 1.686719,-3.671094 q 0.07441,-0.297656 0.124023,-0.545703 0.04961,-0.272851 0.04961,-0.471289 0,-0.694531 -0.719336,-0.694531 -0.322461,0 -0.694531,0.09922 -2.133204,2.356445 -3.59668,5.159374 -1.413867,2.753321 -1.413867,4.688086 0,3.96875 2.058789,6.548438 2.306836,2.852539 6.598047,2.852539 2.778125,0 4.564062,-1.289844 2.033984,-1.513086 2.778125,-3.795117 0.496094,-1.562695 0.496094,-3.150195 0,-2.604493 -1.091407,-5.134571 -1.11621,-2.530078 -4.018359,-5.87871 z m 12.476758,9.89707 q 1.240234,0 2.579687,0.421679 l 1.513086,-16.271874 h -7.912695 l 1.488281,16.19746 q 0.272852,-0.07441 0.644922,-0.173633 0.297656,-0.04961 0.719336,-0.09922 0.446484,-0.07441 0.967383,-0.07441 z m 4.539258,5.084961 q 0,-2.232422 -1.240235,-3.249414 -1.21543,-1.041797 -3.323828,-1.041797 -1.16582,0 -1.984375,0.322461 -0.79375,0.322461 -1.289844,0.868164 -0.496093,0.545703 -0.74414,1.289843 -0.223242,0.719336 -0.223242,1.537891 0,0.942578 0.347265,1.761133 0.347266,0.818554 0.942578,1.463476 0.595313,0.620117 1.364258,0.992188 0.79375,0.347265 1.661914,0.347265 0.868164,0 1.661914,-0.347265 0.818555,-0.347266 1.438672,-0.917774 0.644922,-0.595312 1.016992,-1.364257 0.372071,-0.79375 0.372071,-1.661914 z m -17.189649,-18.529102 -0.818554,0.396875 -0.79375,-0.396875 0.79375,-1.215429 z m 9.996289,-6.002734 -0.818554,0.79375 -0.79375,-0.79375 0.79375,-0.818555 z m -6.796484,-1.21543 -0.818555,0.818555 -0.79375,-0.818555 0.79375,-0.79375 z m -2.406055,3.22461 -0.79375,0.79375 -0.818554,-0.79375 0.818554,-0.818555 z m -5.208984,3.993554 -0.79375,0.396875 -0.79375,-0.396875 0.79375,-1.215429 z m 13.196094,-12.799218 -0.79375,0.79375 -0.79375,-0.79375 0.79375,-0.818555 z m -12.377539,7.590234 -0.818555,0.79375 -0.79375,-0.79375 0.79375,-0.79375 z m 19.174023,-0.79375 -0.79375,0.79375 -0.79375,-0.79375 0.79375,-0.818555 z m -15.180469,-5.605859 -0.79375,0.79375 -0.818554,-0.79375 0.818554,-0.79375 z m 6.002735,3.993554 -0.818555,0.79375 -0.79375,-0.79375 0.79375,-0.79375 z m -1.612305,-5.581054 -0.79375,0.79375 -0.79375,-0.79375 0.79375,-0.818555 z m -6.796484,4.787304 -0.79375,0.79375 -0.79375,-0.79375 0.79375,-0.79375 z m 13.592968,-3.596679 -0.79375,0.79375 -0.79375,-0.79375 0.79375,-0.79375 z m 2.80293,2.802929 -0.79375,0.79375 -0.79375,-0.79375 0.79375,-0.79375 z"
         style="stroke-width:0.26458332"
         id="path31034"
         inkscape:connector-curvature="0" />
    </g>
  </g>
</svg>
