<?xml version="1.0" encoding="UTF-8" standalone="no"?>
<!-- Created with Inkscape (http://www.inkscape.org/) -->

<svg
   xmlns:dc="http://purl.org/dc/elements/1.1/"
   xmlns:cc="http://creativecommons.org/ns#"
   xmlns:rdf="http://www.w3.org/1999/02/22-rdf-syntax-ns#"
   xmlns:svg="http://www.w3.org/2000/svg"
   xmlns="http://www.w3.org/2000/svg"
   xmlns:sodipodi="http://sodipodi.sourceforge.net/DTD/sodipodi-0.dtd"
   xmlns:inkscape="http://www.inkscape.org/namespaces/inkscape"
   width="27.930079mm"
   height="25.176758mm"
   viewBox="0 0 27.930079 25.176758"
   version="1.1"
   id="svg8"
   inkscape:version="0.92.4 (5da689c313, 2019-01-14)"
   sodipodi:docname="S19.svg">
  <defs
     id="defs2" />
  <sodipodi:namedview
     id="base"
     pagecolor="#ffffff"
     bordercolor="#666666"
     borderopacity="1.0"
     inkscape:pageopacity="0.0"
     inkscape:pageshadow="2"
     inkscape:zoom="0.35"
     inkscape:cx="-354.6875"
     inkscape:cy="-398.5"
     inkscape:document-units="mm"
     inkscape:current-layer="layer1"
     showgrid="false"
     fit-margin-top="0"
     fit-margin-left="0"
     fit-margin-right="0"
     fit-margin-bottom="0"
     inkscape:window-width="1920"
     inkscape:window-height="1017"
     inkscape:window-x="-8"
     inkscape:window-y="-8"
     inkscape:window-maximized="1" />
  <metadata
     id="metadata5">
    <rdf:RDF>
      <cc:Work
         rdf:about="">
        <dc:format>image/svg+xml</dc:format>
        <dc:type
           rdf:resource="http://purl.org/dc/dcmitype/StillImage" />
        <dc:title></dc:title>
      </cc:Work>
    </rdf:RDF>
  </metadata>
  <g
     inkscape:label="Layer 1"
     inkscape:groupmode="layer"
     id="layer1"
     transform="translate(-6.5319009,-18.220118)">
    <g
       aria-label="𓋨"
       style="font-style:normal;font-variant:normal;font-weight:normal;font-stretch:normal;font-size:50.79999924px;line-height:1.25;font-family:sans-serif;-inkscape-font-specification:'sans-serif, Normal';font-variant-ligatures:normal;font-variant-caps:normal;font-variant-numeric:normal;font-feature-settings:normal;text-align:start;letter-spacing:0px;word-spacing:0px;writing-mode:lr-tb;text-anchor:start;fill:#000000;fill-opacity:1;stroke:none;stroke-width:0.26458332"
       id="text4520">
      <path
         d="m 6.9039712,35.161719 h 2.852539 v -4.588867 q 0.2232422,-2.877344 1.2154298,-5.159375 1.016992,-2.282031 2.629297,-3.869531 1.637109,-1.612305 3.795117,-2.455664 2.182812,-0.868164 4.71289,-0.868164 2.554883,0 4.81211,1.066601 2.257226,1.041797 3.91914,2.80293 1.686719,1.761133 2.654102,4.067968 0.967383,2.306836 0.967383,4.787305 v 3.54707 q 0,4.01836 -3.249414,4.01836 -3.274219,0 -3.795118,-3.671094 v -3.199805 q -0.570507,-4.7625 -4.960937,-5.308203 -4.7625,0 -5.283398,4.960938 v 3.869531 h 2.802929 l 0.42168,0.396875 v 4.613672 l -0.42168,0.396875 h -3.224609 q -0.322461,1.265039 -1.066602,2.058789 -0.719336,0.768945 -2.133203,0.768945 -0.719336,0 -1.240234,-0.148828 -0.496094,-0.148828 -0.868164,-0.471289 -0.37207,-0.347266 -0.669727,-0.868164 -0.297656,-0.545703 -0.595312,-1.339453 H 6.9039712 L 6.5319009,40.097852 v -4.464844 z m 3.9687498,0 h 5.18418 v -3.869531 q 0.719336,-6.077149 6.399609,-6.077149 5.382617,0.471289 6.052344,6.424414 v 3.199805 q 0.173632,0.644922 0.347265,1.141016 0.198438,0.471289 0.471289,0.79375 0.297657,0.32246 0.719336,0.496093 0.42168,0.148828 1.091406,0.148828 2.207618,0 2.207618,-2.926953 v -3.54707 q 0,-4.911328 -3.150196,-8.135937 -1.562695,-1.63711 -3.571875,-2.579688 -2.009179,-0.942578 -4.514453,-0.942578 -2.579687,0 -4.588867,0.892969 -1.984375,0.868164 -3.398242,2.406054 -1.389062,1.537891 -2.207617,3.59668 -0.818555,2.058789 -1.041797,4.39043 z m 8.73125,0.79375 H 7.3256509 v 3.819922 H 19.603971 Z m -8.607226,4.613672 q 0.421679,1.141015 0.967382,1.5875 0.545703,0.446484 1.537891,0.446484 0.297656,0 0.644922,-0.04961 0.347265,-0.04961 0.669726,-0.248047 0.347266,-0.223242 0.644922,-0.620117 0.297656,-0.396875 0.471289,-1.116211 z"
         style="stroke-width:0.26458332"
         id="path4522"
         inkscape:connector-curvature="0" />
    </g>
  </g>
</svg>
