<?xml version="1.0" encoding="UTF-8" standalone="no"?>
<!-- Created with Inkscape (http://www.inkscape.org/) -->

<svg
   xmlns:dc="http://purl.org/dc/elements/1.1/"
   xmlns:cc="http://creativecommons.org/ns#"
   xmlns:rdf="http://www.w3.org/1999/02/22-rdf-syntax-ns#"
   xmlns:svg="http://www.w3.org/2000/svg"
   xmlns="http://www.w3.org/2000/svg"
   xmlns:sodipodi="http://sodipodi.sourceforge.net/DTD/sodipodi-0.dtd"
   xmlns:inkscape="http://www.inkscape.org/namespaces/inkscape"
   width="37.802341mm"
   height="38.099998mm"
   viewBox="0 0 37.802341 38.099998"
   version="1.1"
   id="svg23781"
   inkscape:version="0.92.4 (5da689c313, 2019-01-14)"
   sodipodi:docname="S2.svg">
  <defs
     id="defs23775" />
  <sodipodi:namedview
     id="base"
     pagecolor="#ffffff"
     bordercolor="#666666"
     borderopacity="1.0"
     inkscape:pageopacity="0.0"
     inkscape:pageshadow="2"
     inkscape:zoom="0.35"
     inkscape:cx="-363.25893"
     inkscape:cy="-338.3125"
     inkscape:document-units="mm"
     inkscape:current-layer="layer1"
     showgrid="false"
     fit-margin-top="0"
     fit-margin-left="0"
     fit-margin-right="0"
     fit-margin-bottom="0"
     inkscape:window-width="1920"
     inkscape:window-height="1017"
     inkscape:window-x="-8"
     inkscape:window-y="-8"
     inkscape:window-maximized="1" />
  <metadata
     id="metadata23778">
    <rdf:RDF>
      <cc:Work
         rdf:about="">
        <dc:format>image/svg+xml</dc:format>
        <dc:type
           rdf:resource="http://purl.org/dc/dcmitype/StillImage" />
        <dc:title></dc:title>
      </cc:Work>
    </rdf:RDF>
  </metadata>
  <g
     inkscape:label="Layer 1"
     inkscape:groupmode="layer"
     id="layer1"
     transform="translate(-8.7997579,-21.221485)">
    <g
       aria-label="𓋒"
       style="font-style:normal;font-variant:normal;font-weight:normal;font-stretch:normal;font-size:50.79999924px;line-height:1.25;font-family:sans-serif;-inkscape-font-specification:'sans-serif, Normal';font-variant-ligatures:normal;font-variant-caps:normal;font-variant-numeric:normal;font-feature-settings:normal;text-align:start;letter-spacing:0px;word-spacing:0px;writing-mode:lr-tb;text-anchor:start;fill:#000000;fill-opacity:1;stroke:none;stroke-width:0.26458332"
       id="text24328">
      <path
         d="M 9.0478048,50.168555 H 20.284328 q 0.173633,-3.993555 2.058789,-7.863086 1.885156,-3.869531 5.432227,-7.863086 3.54707,-3.993554 4.960937,-5.977929 l 0.967383,-1.389063 q 0.248047,-0.347266 0.446484,-0.644922 l 0.446485,-0.595312 q 0.520898,-0.669727 0.768945,-2.629297 0.272851,-1.984375 2.306836,-1.984375 0.248047,0 0.396875,0.09922 0.173633,0.07441 0.347265,0.223242 l 0.347266,0.347265 q 0.248047,0.248047 0.446484,0.644922 0.198438,0.372071 0.198438,0.744141 0,0.37207 -0.148828,0.620117 -0.148828,0.223242 -0.992188,1.686719 -0.843359,1.438672 -1.314648,4.241601 -0.471289,2.80293 -0.42168,7.615039 0.04961,4.81211 -0.942578,12.724805 h 10.666016 l 0.347265,0.644922 q -4.737695,4.985742 -9.425781,6.746875 -4.663281,1.761132 -9.47539,1.761132 -3.472657,0 -6.945313,-0.942578 -3.472656,-0.942578 -6.176367,-2.654101 -2.678906,-1.711524 -5.7794921,-4.861719 z m 12.0302732,0 H 34.79507 q 0.37207,-2.728516 0.620117,-5.382617 0.272852,-2.678906 0.272852,-6.250781 l -0.02481,-1.537891 q 0,-6.027539 0.868164,-8.929687 0.868164,-2.926953 1.488281,-3.646289 0.620118,-0.744141 0.620118,-1.116211 0,-0.372071 -0.322461,-0.719336 -0.322461,-0.372071 -0.570508,-0.570508 -1.016992,0 -1.389063,0.669726 -0.37207,0.644922 -0.421679,1.785938 -0.02481,1.116211 -2.158008,3.96875 -2.108399,2.827734 -4.812109,5.853906 -2.678907,3.001367 -4.489649,5.779492 -1.810742,2.75332 -2.703711,5.853906 -0.595312,2.00918 -0.694531,4.241602 z m -11.06289,0.79375 q 4.142382,4.142383 8.458398,5.829101 4.34082,1.686719 9.202539,1.686719 5.208984,0 9.624218,-1.860352 4.440039,-1.885156 8.061524,-5.655468 z"
         style="stroke-width:0.26458332"
         id="path24330"
         inkscape:connector-curvature="0" />
    </g>
  </g>
</svg>
