<?xml version="1.0" encoding="UTF-8" standalone="no"?>
<!-- Created with Inkscape (http://www.inkscape.org/) -->

<svg
   xmlns:dc="http://purl.org/dc/elements/1.1/"
   xmlns:cc="http://creativecommons.org/ns#"
   xmlns:rdf="http://www.w3.org/1999/02/22-rdf-syntax-ns#"
   xmlns:svg="http://www.w3.org/2000/svg"
   xmlns="http://www.w3.org/2000/svg"
   xmlns:sodipodi="http://sodipodi.sourceforge.net/DTD/sodipodi-0.dtd"
   xmlns:inkscape="http://www.inkscape.org/namespaces/inkscape"
   width="13.44414mm"
   height="25.226368mm"
   viewBox="0 0 13.44414 25.226368"
   version="1.1"
   id="svg4531"
   inkscape:version="0.92.4 (5da689c313, 2019-01-14)"
   sodipodi:docname="S20.svg">
  <defs
     id="defs4525" />
  <sodipodi:namedview
     id="base"
     pagecolor="#ffffff"
     bordercolor="#666666"
     borderopacity="1.0"
     inkscape:pageopacity="0.0"
     inkscape:pageshadow="2"
     inkscape:zoom="0.35"
     inkscape:cx="-337.54464"
     inkscape:cy="-375.64286"
     inkscape:document-units="mm"
     inkscape:current-layer="layer1"
     showgrid="false"
     fit-margin-top="0"
     fit-margin-left="0"
     fit-margin-right="0"
     fit-margin-bottom="0"
     inkscape:window-width="1920"
     inkscape:window-height="1017"
     inkscape:window-x="-8"
     inkscape:window-y="-8"
     inkscape:window-maximized="1" />
  <metadata
     id="metadata4528">
    <rdf:RDF>
      <cc:Work
         rdf:about="">
        <dc:format>image/svg+xml</dc:format>
        <dc:type
           rdf:resource="http://purl.org/dc/dcmitype/StillImage" />
        <dc:title></dc:title>
      </cc:Work>
    </rdf:RDF>
  </metadata>
  <g
     inkscape:label="Layer 1"
     inkscape:groupmode="layer"
     id="layer1"
     transform="translate(-1.9961868,-24.218127)">
    <g
       aria-label="𓋩"
       style="font-style:normal;font-variant:normal;font-weight:normal;font-stretch:normal;font-size:50.79999924px;line-height:1.25;font-family:sans-serif;-inkscape-font-specification:'sans-serif, Normal';font-variant-ligatures:normal;font-variant-caps:normal;font-variant-numeric:normal;font-feature-settings:normal;text-align:start;letter-spacing:0px;word-spacing:0px;writing-mode:lr-tb;text-anchor:start;fill:#000000;fill-opacity:1;stroke:none;stroke-width:0.26458332"
       id="text5078">
      <path
         d="M 10.901069,49.444494 H 6.4858351 L 6.1137648,48.973205 6.7090773,46.368713 H 2.3682571 L 1.9961868,45.897424 v -3.274219 l 0.3720703,-0.471289 h 4.4896484 l -3.0013672,-5.97793 q -0.9425781,-1.860351 -1.3394531,-3.571875 -0.396875,-1.736328 -0.396875,-3.249414 0,-1.190625 0.4464844,-2.133203 0.471289,-0.967383 1.3146484,-1.637109 0.868164,-0.669727 2.0835937,-1.016992 1.2402344,-0.347266 2.8029297,-0.347266 6.5484376,0 6.5484376,5.55625 0,1.488281 -0.347266,3.125391 -0.347265,1.637109 -1.066601,3.472656 l -2.678907,5.779492 h 3.795118 l 0.421679,0.396875 v 3.423047 l -0.421679,0.396875 h -4.291211 l 0.570507,2.554882 z m 1.661914,-13.096875 q 1.513086,-3.621484 1.513086,-6.573242 0,-0.992188 -0.396875,-1.785938 -0.396875,-0.818554 -1.116211,-1.364257 -0.694531,-0.570508 -1.661914,-0.868164 -0.9673823,-0.297657 -2.1332026,-0.297657 -1.0914063,0 -2.0835938,0.322461 -0.9673828,0.297657 -1.7115234,0.84336 -0.7441406,0.520898 -1.190625,1.265039 -0.4216796,0.74414 -0.4216796,1.5875 0,1.488281 0.4464843,3.224609 0.4712891,1.736328 1.3642578,3.522266 l 3.0261719,5.92832 H 9.908882 Z M 2.7899368,45.574963 H 14.646577 V 42.945666 H 2.7899368 Z m 4.7376952,0.79375 -0.5208984,2.282031 H 10.42978 L 9.9336867,46.368713 Z"
         style="stroke-width:0.26458332"
         id="path5080"
         inkscape:connector-curvature="0" />
    </g>
  </g>
</svg>
