<?xml version="1.0" encoding="UTF-8" standalone="no"?>
<!-- Created with Inkscape (http://www.inkscape.org/) -->

<svg
   xmlns:dc="http://purl.org/dc/elements/1.1/"
   xmlns:cc="http://creativecommons.org/ns#"
   xmlns:rdf="http://www.w3.org/1999/02/22-rdf-syntax-ns#"
   xmlns:svg="http://www.w3.org/2000/svg"
   xmlns="http://www.w3.org/2000/svg"
   xmlns:sodipodi="http://sodipodi.sourceforge.net/DTD/sodipodi-0.dtd"
   xmlns:inkscape="http://www.inkscape.org/namespaces/inkscape"
   width="19.397264mm"
   height="19.397266mm"
   viewBox="0 0 19.397264 19.397266"
   version="1.1"
   id="svg5089"
   inkscape:version="0.92.4 (5da689c313, 2019-01-14)"
   sodipodi:docname="S21.svg">
  <defs
     id="defs5083" />
  <sodipodi:namedview
     id="base"
     pagecolor="#ffffff"
     bordercolor="#666666"
     borderopacity="1.0"
     inkscape:pageopacity="0.0"
     inkscape:pageshadow="2"
     inkscape:zoom="0.35"
     inkscape:cx="-366.11607"
     inkscape:cy="-364.40178"
     inkscape:document-units="mm"
     inkscape:current-layer="layer1"
     showgrid="false"
     fit-margin-top="0"
     fit-margin-left="0"
     fit-margin-right="0"
     fit-margin-bottom="0"
     inkscape:window-width="1920"
     inkscape:window-height="1017"
     inkscape:window-x="-8"
     inkscape:window-y="-8"
     inkscape:window-maximized="1" />
  <metadata
     id="metadata5086">
    <rdf:RDF>
      <cc:Work
         rdf:about="">
        <dc:format>image/svg+xml</dc:format>
        <dc:type
           rdf:resource="http://purl.org/dc/dcmitype/StillImage" />
        <dc:title></dc:title>
      </cc:Work>
    </rdf:RDF>
  </metadata>
  <g
     inkscape:label="Layer 1"
     inkscape:groupmode="layer"
     id="layer1"
     transform="translate(-9.5557108,-33.02143)">
    <g
       aria-label="𓋪"
       style="font-style:normal;font-variant:normal;font-weight:normal;font-stretch:normal;font-size:50.79999924px;line-height:1.25;font-family:sans-serif;-inkscape-font-specification:'sans-serif, Normal';font-variant-ligatures:normal;font-variant-caps:normal;font-variant-numeric:normal;font-feature-settings:normal;text-align:start;letter-spacing:0px;word-spacing:0px;writing-mode:lr-tb;text-anchor:start;fill:#000000;fill-opacity:1;stroke:none;stroke-width:0.26458332"
       id="text5636">
      <path
         d="m 10.349461,42.720063 q 0,1.835547 0.694531,3.472656 0.694531,1.612305 1.909961,2.827735 1.21543,1.215429 2.827734,1.909961 1.63711,0.694531 3.472656,0.694531 1.835547,0 3.447852,-0.694531 1.637109,-0.694532 2.827734,-1.909961 1.21543,-1.21543 1.909961,-2.827735 0.719336,-1.637109 0.719336,-3.472656 0,-1.835547 -0.719336,-3.447851 -0.694531,-1.63711 -1.909961,-2.827735 -1.190625,-1.215429 -2.827734,-1.909961 -1.612305,-0.719336 -3.447852,-0.719336 -1.835546,0 -3.472656,0.719336 -1.612304,0.694532 -2.827734,1.909961 -1.21543,1.190625 -1.909961,2.827735 -0.694531,1.612304 -0.694531,3.447851 z m -0.7937502,0 q 0,-2.009179 0.7441402,-3.770312 0.768946,-1.761133 2.083594,-3.075781 1.339453,-1.339454 3.100586,-2.083594 1.761133,-0.768946 3.770312,-0.768946 2.00918,0 3.770313,0.768946 1.761133,0.74414 3.075781,2.083594 1.339453,1.314648 2.083594,3.075781 0.768945,1.761133 0.768945,3.770312 0,2.00918 -0.768945,3.770313 -0.744141,1.761132 -2.083594,3.100585 -1.314648,1.314649 -3.075781,2.083594 -1.761133,0.744141 -3.770313,0.744141 -2.009179,0 -3.770312,-0.744141 Q 13.722898,50.90561 12.383445,49.590961 11.068797,48.251508 10.299851,46.490376 9.5557108,44.729243 9.5557108,42.720063 Z m 2.8525392,0.0248 q 0,1.438672 0.545703,2.703711 0.545703,1.240234 1.488281,2.182812 0.942578,0.942578 2.182813,1.488281 1.265039,0.545704 2.703711,0.545704 1.438671,0 2.70371,-0.545704 1.265039,-0.545703 2.207618,-1.488281 0.942578,-0.942578 1.488281,-2.182812 0.545703,-1.265039 0.545703,-2.703711 0,-1.438672 -0.545703,-2.703711 -0.545703,-1.265039 -1.488281,-2.207617 -0.942579,-0.942578 -2.207618,-1.488281 -1.265039,-0.545704 -2.70371,-0.545704 -1.438672,0 -2.703711,0.545704 -1.240235,0.545703 -2.182813,1.488281 -0.942578,0.942578 -1.488281,2.207617 -0.545703,1.265039 -0.545703,2.703711 z m -0.79375,0 q 0,-1.5875 0.595312,-3.001367 0.620117,-1.413867 1.661914,-2.455664 1.041797,-1.066602 2.43086,-1.661914 1.413867,-0.620118 3.026172,-0.620118 1.587499,0 3.001367,0.620118 1.413867,0.595312 2.455664,1.661914 1.066601,1.041797 1.661914,2.455664 0.620117,1.413867 0.620117,3.001367 0,1.612305 -0.620117,3.026172 -0.595313,1.389062 -1.661914,2.430859 -1.041797,1.041797 -2.455664,1.661914 -1.413868,0.595313 -3.001367,0.595313 -1.612305,0 -3.026172,-0.595313 -1.389063,-0.620117 -2.43086,-1.661914 Q 12.829929,47.160102 12.209812,45.77104 11.6145,44.357173 11.6145,42.744868 Z"
         style="stroke-width:0.26458332"
         id="path5638"
         inkscape:connector-curvature="0" />
    </g>
  </g>
</svg>
