<?xml version="1.0" encoding="UTF-8" standalone="no"?>
<!-- Created with Inkscape (http://www.inkscape.org/) -->

<svg
   xmlns:dc="http://purl.org/dc/elements/1.1/"
   xmlns:cc="http://creativecommons.org/ns#"
   xmlns:rdf="http://www.w3.org/1999/02/22-rdf-syntax-ns#"
   xmlns:svg="http://www.w3.org/2000/svg"
   xmlns="http://www.w3.org/2000/svg"
   xmlns:sodipodi="http://sodipodi.sourceforge.net/DTD/sodipodi-0.dtd"
   xmlns:inkscape="http://www.inkscape.org/namespaces/inkscape"
   width="37.975975mm"
   height="25.821678mm"
   viewBox="0 0 37.975975 25.821678"
   version="1.1"
   id="svg5647"
   inkscape:version="0.92.4 (5da689c313, 2019-01-14)"
   sodipodi:docname="S22.svg">
  <defs
     id="defs5641" />
  <sodipodi:namedview
     id="base"
     pagecolor="#ffffff"
     bordercolor="#666666"
     borderopacity="1.0"
     inkscape:pageopacity="0.0"
     inkscape:pageshadow="2"
     inkscape:zoom="0.35"
     inkscape:cx="-346.11607"
     inkscape:cy="-375.64286"
     inkscape:document-units="mm"
     inkscape:current-layer="layer1"
     showgrid="false"
     fit-margin-top="0"
     fit-margin-left="0"
     fit-margin-right="0"
     fit-margin-bottom="0"
     inkscape:window-width="1920"
     inkscape:window-height="1017"
     inkscape:window-x="-8"
     inkscape:window-y="-8"
     inkscape:window-maximized="1" />
  <metadata
     id="metadata5644">
    <rdf:RDF>
      <cc:Work
         rdf:about="">
        <dc:format>image/svg+xml</dc:format>
        <dc:type
           rdf:resource="http://purl.org/dc/dcmitype/StillImage" />
        <dc:title></dc:title>
      </cc:Work>
    </rdf:RDF>
  </metadata>
  <g
     inkscape:label="Layer 1"
     inkscape:groupmode="layer"
     id="layer1"
     transform="translate(-4.2640436,-23.622815)">
    <g
       aria-label="𓋫"
       style="font-style:normal;font-variant:normal;font-weight:normal;font-stretch:normal;font-size:50.79999924px;line-height:1.25;font-family:sans-serif;-inkscape-font-specification:'sans-serif, Normal';font-variant-ligatures:normal;font-variant-caps:normal;font-variant-numeric:normal;font-feature-settings:normal;text-align:start;letter-spacing:0px;word-spacing:0px;writing-mode:lr-tb;text-anchor:start;fill:#000000;fill-opacity:1;stroke:none;stroke-width:0.26458332"
       id="text6194">
      <path
         d="m 8.6048638,23.622815 q 1.0169922,0.04961 1.9843752,1.091406 0.967383,1.016992 2.058789,3.150195 l 1.041797,2.108398 H 33.08709 q 0.148828,-0.818554 0.545703,-1.53789 0.42168,-0.744141 0.892969,-1.463477 l 0.620117,-0.917773 q 0.620117,-0.942578 1.389063,-1.686719 0.793749,-0.74414 1.562695,-0.74414 1.141015,0 2.455664,1.190625 1.339453,1.190625 1.339453,2.282031 0,1.364258 -1.761133,2.802929 -1.761133,1.413868 -5.035351,2.455664 2.455664,0.84336 4.291211,3.323829 1.860351,2.480468 2.852539,6.077148 l -0.396875,0.520898 h -1.934766 q 0.272852,1.686719 0.496094,3.373438 0.248047,1.686718 0.248047,3.398242 l -0.42168,0.396875 h -2.406055 l -0.37207,-0.322461 q -0.09922,-4.861719 -1.066602,-7.639844 -0.967382,-2.802929 -2.406054,-4.71289 L 33.707207,36.471642 Q 33.45916,36.223596 33.260723,35.925939 H 13.640215 q -2.33164,2.38125 -3.472656,5.506641 -1.1162108,3.100586 -1.1162108,7.615039 L 8.6296685,49.444494 H 6.6452935 L 6.2732232,48.973205 q 0,-1.686719 0.049609,-3.348633 0.074414,-1.661914 0.2728515,-3.348633 H 4.6361139 L 4.2640436,41.80465 q 1.0914062,-3.795117 2.9517577,-6.201172 1.8603516,-2.406054 4.4152347,-3.224609 -2.2324222,-0.644922 -4.39043,-2.058789 -2.1580078,-1.413867 -2.1580078,-3.175 0,-1.364258 1.0417969,-2.430859 1.0666015,-1.091406 2.3812499,-1.091406 z m 24.4326172,11.509374 0.0248,-4.365625 H 13.863457 v 4.365625 z m 0.818554,-3.249414 q 2.703711,-0.644921 4.960938,-2.058789 2.282031,-1.413867 2.282031,-2.678906 0,-0.768945 -1.066602,-1.736328 -1.066601,-0.992187 -1.860351,-0.992187 -0.545703,0 -1.265039,0.694531 -0.694531,0.694531 -1.21543,1.513086 l -0.496094,0.79375 q -0.446484,0.669726 -0.868164,1.389062 -0.396875,0.719336 -0.471289,1.562695 z m -20.786328,0.02481 v -1.438672 q -0.396875,-0.79375 -0.818554,-1.612304 -0.42168,-0.818555 -0.917774,-1.736329 L 10.86209,26.326525 Q 10.365997,25.55758 9.7706841,25.011877 9.1753716,24.441369 8.6048638,24.416565 H 8.505645 q -0.9921874,0 -1.8107421,0.868164 -0.8185547,0.843359 -0.8185547,1.835546 0,1.513086 2.455664,2.951758 2.4556638,1.438672 4.7376948,1.835547 z M 7.0669732,48.650744 h 1.190625 q 0,-4.266406 1.2154296,-7.590234 1.2154302,-3.323828 3.5966792,-5.705078 v -0.79375 q -0.768945,0.421679 -0.967382,0.471289 -0.173633,0.0248 -1.339453,1.091406 -1.141016,1.066601 -1.9099613,2.629297 -0.7441406,1.53789 -1.2650391,2.778125 -0.5208984,1.215429 -0.5208984,7.118945 z m 4.3656248,-17.88418 q -1.21543,0 -3.001367,-1.141015 -1.7859375,-1.16582 -1.7859375,-2.430859 0,-0.768946 0.6697266,-1.21543 0.6945312,-0.471289 1.2402343,-0.471289 1.3642578,0 2.3316406,1.785937 0.967383,1.785938 0.967383,3.075781 z m 23.638867,-0.32246 q 0,-0.297657 -0.02481,-0.570508 0,-1.463477 0.818555,-2.852539 0.843359,-1.389063 2.033984,-1.513086 h 0.148828 q 0.446485,0 1.240235,0.545703 0.79375,0.520898 0.79375,1.289844 0,1.016992 -1.785938,2.232421 -1.761132,1.190625 -2.852539,1.190625 z m -22.299414,3.373437 q 0.04961,-0.04961 0.124024,-0.07441 0.09922,-0.02481 0.173632,-0.07441 v -0.84336 q -2.802929,0.47129 -4.7873041,2.728516 -1.984375,2.232422 -3.1005859,5.92832 h 1.6123046 q 0.8185547,-2.232422 1.7611328,-3.844726 0.9673828,-1.612305 2.2076176,-2.554883 1.265039,-0.967383 2.009179,-1.265039 z m 25.251172,5.060156 Q 37.254277,37.141369 36.162871,36.049963 35.09627,34.933752 33.856035,34.636096 v 0.74414 q 2.133203,2.579688 3.175,5.754688 1.066602,3.150195 1.190625,7.51582 h 1.63711 q 0,-1.686719 -0.272852,-3.373438 -0.248047,-1.686718 -0.520898,-3.323828 l -0.396875,-1.438672 q -0.04961,-0.173632 -0.198438,-0.570507 -0.148828,-0.42168 -0.223242,-0.570508 z m 1.389062,1.364258 0.322461,1.265039 1.612305,-0.02481 q -0.942578,-3.423047 -2.951758,-5.804296 -1.984375,-2.38125 -4.539258,-2.85254 v 0.868165 q 1.835547,0.74414 3.100586,2.108398 1.289844,1.339453 2.455664,4.440039 z M 9.5722466,29.377502 q 0.3224609,0.173633 0.6945314,0.322461 0.37207,0.173633 0.768945,0.248047 -0.04961,-0.496094 -0.223242,-0.942578 -0.173633,-0.446485 -0.37207,-0.868164 -0.198438,-0.42168 -0.5457035,-0.967383 -0.3472656,-0.545703 -0.79375,-0.744141 -0.1736328,-0.09922 -0.471289,-0.09922 -0.3224609,0 -0.5953125,0.09922 -0.2728516,0.09922 -0.4464844,0.297656 -0.1984375,0.198438 -0.1984375,0.47129 0,0.421679 0.322461,0.768945 0.2976562,0.347265 0.6201171,0.595312 0.5208985,0.42168 1.2402344,0.818555 z M 35.84041,29.699963 v 0.248047 q 0.372071,-0.07441 0.719336,-0.272852 l 0.694531,-0.37207 q 0.620118,-0.37207 1.289844,-0.917774 0.669727,-0.545703 0.744141,-0.992187 l 0.0248,-0.124023 v -0.04961 q 0,-0.04961 -0.0248,-0.09922 -0.02481,-0.04961 -0.07441,-0.09922 l -0.09922,-0.09922 q -0.223242,-0.248047 -0.520898,-0.42168 -0.297657,-0.173633 -0.620118,-0.173633 -0.79375,0 -1.463476,1.190625 -0.669727,1.165821 -0.669727,2.182813 z"
         style="stroke-width:0.26458332"
         id="path6196"
         inkscape:connector-curvature="0" />
    </g>
  </g>
</svg>
