<?xml version="1.0" encoding="UTF-8" standalone="no"?>
<!-- Created with Inkscape (http://www.inkscape.org/) -->

<svg
   xmlns:dc="http://purl.org/dc/elements/1.1/"
   xmlns:cc="http://creativecommons.org/ns#"
   xmlns:rdf="http://www.w3.org/1999/02/22-rdf-syntax-ns#"
   xmlns:svg="http://www.w3.org/2000/svg"
   xmlns="http://www.w3.org/2000/svg"
   xmlns:sodipodi="http://sodipodi.sourceforge.net/DTD/sodipodi-0.dtd"
   xmlns:inkscape="http://www.inkscape.org/namespaces/inkscape"
   width="36.834961mm"
   height="25.251171mm"
   viewBox="0 0 36.834961 25.251171"
   version="1.1"
   id="svg6205"
   inkscape:version="0.92.4 (5da689c313, 2019-01-14)"
   sodipodi:docname="S23.svg">
  <defs
     id="defs6199" />
  <sodipodi:namedview
     id="base"
     pagecolor="#ffffff"
     bordercolor="#666666"
     borderopacity="1.0"
     inkscape:pageopacity="0.0"
     inkscape:pageshadow="2"
     inkscape:zoom="0.35"
     inkscape:cx="-351.83036"
     inkscape:cy="-294.28571"
     inkscape:document-units="mm"
     inkscape:current-layer="layer1"
     showgrid="false"
     fit-margin-top="0"
     fit-margin-left="0"
     fit-margin-right="0"
     fit-margin-bottom="0"
     inkscape:window-width="1920"
     inkscape:window-height="1017"
     inkscape:window-x="-8"
     inkscape:window-y="-8"
     inkscape:window-maximized="1" />
  <metadata
     id="metadata6202">
    <rdf:RDF>
      <cc:Work
         rdf:about="">
        <dc:format>image/svg+xml</dc:format>
        <dc:type
           rdf:resource="http://purl.org/dc/dcmitype/StillImage" />
        <dc:title></dc:title>
      </cc:Work>
    </rdf:RDF>
  </metadata>
  <g
     inkscape:label="Layer 1"
     inkscape:groupmode="layer"
     id="layer1"
     transform="translate(-5.7759485,-45.719066)">
    <g
       aria-label="𓋬"
       style="font-style:normal;font-variant:normal;font-weight:normal;font-stretch:normal;font-size:50.79999924px;line-height:1.25;font-family:sans-serif;-inkscape-font-specification:'sans-serif, Normal';font-variant-ligatures:normal;font-variant-caps:normal;font-variant-numeric:normal;font-feature-settings:normal;text-align:start;letter-spacing:0px;word-spacing:0px;writing-mode:lr-tb;text-anchor:start;fill:#000000;fill-opacity:1;stroke:none;stroke-width:0.26458332"
       id="text6752">
      <path
         d="m 25.89255,60.825121 7.51582,-15.056445 3.59668,6.796484 5.605859,9.996289 q -0.148828,0 -0.446484,0.04961 -0.297657,0.02481 -0.719336,0.223242 -0.272852,0.124024 -0.595313,0.372071 -0.322461,0.223242 -0.644922,0.570507 -0.694531,0 -1.215429,0.198438 -0.520899,0.173633 -0.868164,0.396875 -0.42168,0.272852 -0.719336,0.595312 L 34.99587,53.35891 33.383565,48.348363 27.008761,61.420433 q 1.5875,1.21543 1.5875,3.522266 0,0.917773 -0.297657,1.785937 -0.297656,0.84336 -0.868164,1.513086 -0.545703,0.669727 -1.339453,1.091406 -0.768945,0.396875 -1.711523,0.42168 h 4.638476 v 1.21543 H 18.996847 v -1.21543 h 4.985742 q -1.016992,0 -1.860352,-0.37207 -0.843359,-0.372071 -1.463476,-1.016992 -0.595313,-0.669727 -0.942578,-1.537891 -0.322461,-0.868164 -0.322461,-1.885156 0,-2.455664 1.95957,-3.671094 l -6.35,-12.972851 -1.612305,5.010546 -2.406054,11.608594 Q 10.488839,64.47141 9.7943078,64.124144 9.0997766,63.776878 8.1820032,63.776878 7.8843469,63.404808 7.5866907,63.231175 7.2890344,63.032738 6.9417688,62.8343 6.8177454,62.759886 6.6193079,62.710277 6.4208704,62.660668 6.2224329,62.611058 5.9991907,62.561449 5.7759485,62.511839 l 5.6058595,-9.996288 3.596679,-6.796485 7.515821,15.056445 q 0.768945,-0.223242 1.711523,-0.223242 0.917773,0 1.686719,0.272852 z m -1.711524,7.739062 q 0.694532,0 1.289844,-0.248047 0.595313,-0.272851 1.016992,-0.74414 0.42168,-0.496094 0.669727,-1.141016 0.248047,-0.669727 0.248047,-1.463477 0,-0.644921 -0.272852,-1.215429 -0.248047,-0.595313 -0.694531,-1.041797 -0.446484,-0.446484 -1.041797,-0.719336 -0.570508,-0.272852 -1.21543,-0.272852 -0.719336,0 -1.364257,0.248047 -0.644922,0.223242 -1.141016,0.644922 -0.496094,0.42168 -0.79375,1.016992 -0.297656,0.595313 -0.297656,1.339453 0,3.59668 3.596679,3.59668 z m 11.633399,-15.130859 2.108398,10.145117 q 0.446484,-0.347266 0.942578,-0.446484 0.520899,-0.09922 1.016992,-0.09922 0.372071,-0.42168 0.694532,-0.644922 0.32246,-0.248047 0.818554,-0.37207 L 36.484151,53.160472 Z M 6.9913782,62.015746 q 0.5457031,0.124023 0.9177734,0.446484 0.3720703,0.297656 0.5953125,0.570508 0.6449219,0 1.0914062,0.124023 0.4464847,0.124024 0.8681637,0.42168 l 2.108399,-10.145117 -0.669727,-0.272852 z"
         style="stroke-width:0.26458332"
         id="path6754"
         inkscape:connector-curvature="0" />
    </g>
  </g>
</svg>
