<?xml version="1.0" encoding="UTF-8" standalone="no"?>
<!-- Created with Inkscape (http://www.inkscape.org/) -->

<svg
   xmlns:dc="http://purl.org/dc/elements/1.1/"
   xmlns:cc="http://creativecommons.org/ns#"
   xmlns:rdf="http://www.w3.org/1999/02/22-rdf-syntax-ns#"
   xmlns:svg="http://www.w3.org/2000/svg"
   xmlns="http://www.w3.org/2000/svg"
   xmlns:sodipodi="http://sodipodi.sourceforge.net/DTD/sodipodi-0.dtd"
   xmlns:inkscape="http://www.inkscape.org/namespaces/inkscape"
   width="37.926365mm"
   height="8.6816406mm"
   viewBox="0 0 37.926365 8.6816406"
   version="1.1"
   id="svg11528"
   inkscape:version="0.92.4 (5da689c313, 2019-01-14)"
   sodipodi:docname="S24.svg">
  <defs
     id="defs11522" />
  <sodipodi:namedview
     id="base"
     pagecolor="#ffffff"
     bordercolor="#666666"
     borderopacity="1.0"
     inkscape:pageopacity="0.0"
     inkscape:pageshadow="2"
     inkscape:zoom="0.35"
     inkscape:cx="-326.11523"
     inkscape:cy="-317.43039"
     inkscape:document-units="mm"
     inkscape:current-layer="layer1"
     showgrid="false"
     fit-margin-top="0"
     fit-margin-left="0"
     fit-margin-right="0"
     fit-margin-bottom="0"
     inkscape:window-width="1920"
     inkscape:window-height="1017"
     inkscape:window-x="-8"
     inkscape:window-y="-8"
     inkscape:window-maximized="1" />
  <metadata
     id="metadata11525">
    <rdf:RDF>
      <cc:Work
         rdf:about="">
        <dc:format>image/svg+xml</dc:format>
        <dc:type
           rdf:resource="http://purl.org/dc/dcmitype/StillImage" />
        <dc:title></dc:title>
      </cc:Work>
    </rdf:RDF>
  </metadata>
  <g
     inkscape:label="Layer 1"
     inkscape:groupmode="layer"
     id="layer1"
     transform="translate(1.0278442,-56.164903)">
    <g
       aria-label="𓋭"
       transform="scale(0.26458333)"
       style="font-style:normal;font-variant:normal;font-weight:normal;font-stretch:normal;font-size:192px;line-height:1.25;font-family:sans-serif;-inkscape-font-specification:sans-serif;font-variant-ligatures:normal;font-variant-caps:normal;font-variant-numeric:normal;font-feature-settings:normal;text-align:start;letter-spacing:0px;word-spacing:0px;writing-mode:lr-tb;text-anchor:start;fill:#000000;fill-opacity:1;stroke:none"
       id="flowRoot12073">
      <path
         d="m 81.146484,222.7768 56.999996,-10.5 1.3125,2.4375 q -2.0625,3.375 -3.28125,7.21875 -1.125,3.84375 -1.125,7.78125 0,3.46875 1.03125,6.75 1.03125,3.28125 3.1875,6.1875 l -1.3125,2.4375 -56.906246,-10.3125 q -2.34375,2.15625 -4.3125,3.375 -1.96875,1.21875 -3.84375,1.21875 -1.40625,0 -2.625,-0.65625 -1.125,-0.65625 -2.15625,-1.6875 -1.78125,2.25 -4.5,2.25 -1.78125,0 -3.1875,-0.75 -1.40625,-0.75 -2.34375,-1.6875 l -2.15625,-2.0625 -58.1249996,10.3125 -1.6875,-2.25 q 4.49999997,-6.5625 4.49999997,-13.875 0,-3.65625 -1.12499999,-7.3125 -1.12499998,-3.65625 -3.18749998,-7.125 l 1.6875,-2.15625 58.0312496,10.40625 q 1.59375,-1.59375 3.84375,-3.09375 2.25,-1.5 4.125,-1.5 2.4375,0 4.21875,1.96875 0.9375,-0.84375 2.0625,-1.3125 1.125,-0.5625 2.4375,-0.5625 1.6875,0 3.5625,1.03125 1.875,0.9375 4.875,3.46875 z m -24.65625,3.09375 -56.06249962,-9.9375 q 1.50000002,3.1875 2.25000002,6.5625 0.84375,3.28125 0.84375,6.75 0,3.09375 -0.75,6.1875 -0.65625,3.09375 -2.15625003,6.09375 L 56.302734,231.68305 q 0.375,0.1875 1.3125,0.5625 l 1.3125,1.3125 q 1.125,1.3125 2.34375,2.0625 1.21875,0.75 2.34375,0.75 h 0.375 q 0.75,0 1.3125,-0.65625 0.5625,-0.65625 1.03125,-1.40625 -0.65625,-1.5 -1.03125,-3 -0.375,-1.5 -0.375,-2.90625 0,-1.5 0.375,-3 0.375,-1.59375 1.125,-2.90625 -0.75,-1.03125 -2.15625,-1.21875 h -0.28125 q -1.03125,0 -2.34375,0.84375 -1.3125,0.84375 -2.34375,1.78125 l -1.5,1.40625 z m 23.25,-0.375 -1.59375,-1.5 q -1.5,-1.21875 -3,-1.96875 -1.5,-0.84375 -2.8125,-0.84375 h -0.375 q -1.21875,0 -2.15625,1.40625 l 0.28125,0.5625 q 0.84375,2.15625 0.84375,4.96875 0,1.59375 -0.28125,3.28125 -0.28125,1.59375 -0.9375,3 1.3125,1.78125 3.28125,1.78125 1.21875,0 2.4375,-0.65625 1.3125,-0.75 2.53125,-1.875 l 1.59375,-1.59375 1.40625,-0.28125 53.999996,9.9375 q -2.90625,-5.53125 -2.90625,-11.8125 0,-3.5625 0.84375,-7.125 0.9375,-3.65625 2.53125,-6.9375 l -54.281246,10.03125 z"
         id="path12081"
         inkscape:connector-curvature="0" />
    </g>
  </g>
</svg>
