<?xml version="1.0" encoding="UTF-8" standalone="no"?>
<!-- Created with Inkscape (http://www.inkscape.org/) -->

<svg
   xmlns:dc="http://purl.org/dc/elements/1.1/"
   xmlns:cc="http://creativecommons.org/ns#"
   xmlns:rdf="http://www.w3.org/1999/02/22-rdf-syntax-ns#"
   xmlns:svg="http://www.w3.org/2000/svg"
   xmlns="http://www.w3.org/2000/svg"
   xmlns:sodipodi="http://sodipodi.sourceforge.net/DTD/sodipodi-0.dtd"
   xmlns:inkscape="http://www.inkscape.org/namespaces/inkscape"
   width="37.256641mm"
   height="23.192383mm"
   viewBox="0 0 37.256641 23.192383"
   version="1.1"
   id="svg7321"
   inkscape:version="0.92.4 (5da689c313, 2019-01-14)"
   sodipodi:docname="S25.svg">
  <defs
     id="defs7315" />
  <sodipodi:namedview
     id="base"
     pagecolor="#ffffff"
     bordercolor="#666666"
     borderopacity="1.0"
     inkscape:pageopacity="0.0"
     inkscape:pageshadow="2"
     inkscape:zoom="0.35"
     inkscape:cx="-337.54464"
     inkscape:cy="-387.07143"
     inkscape:document-units="mm"
     inkscape:current-layer="layer1"
     showgrid="false"
     fit-margin-top="0"
     fit-margin-left="0"
     fit-margin-right="0"
     fit-margin-bottom="0"
     inkscape:window-width="1920"
     inkscape:window-height="1017"
     inkscape:window-x="-8"
     inkscape:window-y="-8"
     inkscape:window-maximized="1" />
  <metadata
     id="metadata7318">
    <rdf:RDF>
      <cc:Work
         rdf:about="">
        <dc:format>image/svg+xml</dc:format>
        <dc:type
           rdf:resource="http://purl.org/dc/dcmitype/StillImage" />
        <dc:title></dc:title>
      </cc:Work>
    </rdf:RDF>
  </metadata>
  <g
     inkscape:label="Layer 1"
     inkscape:groupmode="layer"
     id="layer1"
     transform="translate(-1.9961868,-23.2283)">
    <g
       aria-label="𓋮"
       style="font-style:normal;font-variant:normal;font-weight:normal;font-stretch:normal;font-size:50.79999924px;line-height:1.25;font-family:sans-serif;-inkscape-font-specification:'sans-serif, Normal';font-variant-ligatures:normal;font-variant-caps:normal;font-variant-numeric:normal;font-feature-settings:normal;text-align:start;letter-spacing:0px;word-spacing:0px;writing-mode:lr-tb;text-anchor:start;fill:#000000;fill-opacity:1;stroke:none;stroke-width:0.26458332"
       id="text7868">
      <path
         d="M 27.569819,46.420683 H 13.579976 l -0.372071,-0.322461 q -0.272851,-4.167188 -0.694531,-7.342188 -0.42168,-3.175 -0.992187,-5.457031 Q 10.404976,28.734941 8.5446242,24.840605 7.1059523,25.163066 6.2129836,26.452909 5.3448195,27.717948 4.749507,29.826347 4.1541946,31.909941 3.8069289,34.117558 3.484468,36.325175 3.3852493,38.706425 3.2364211,43.44412 3.2364211,46.023808 H 1.9961868 q 0,-1.488282 0.024805,-3.22461 0.049609,-1.736328 0.099219,-3.795117 0.049609,-2.058789 0.2728516,-3.96875 0.2232422,-1.934765 0.5705078,-3.770312 0.7193359,-3.671094 2.0091796,-5.581055 1.3146484,-1.934766 3.175,-2.058789 L 8.3709914,23.2283 H 32.778803 l 0.198438,0.396875 q 1.934766,0.09922 3.249414,2.158008 1.339453,2.033984 2.033984,5.605859 0.694532,3.571875 0.84336,7.218164 0.148828,3.646289 0.148828,7.416602 h -1.240235 q 0,-0.644922 0,-1.314649 0,-0.694531 -0.0248,-1.413867 l -0.09922,-3.050977 Q 37.764546,36.67244 37.367671,33.869511 36.970796,31.041777 36.301069,29.082206 35.631343,27.097831 34.688764,26.006425 33.746186,24.915019 32.580366,24.8158 q -1.438672,2.703711 -2.75332,7.9375 -0.644922,2.629297 -1.116211,5.92832 -0.446485,3.274219 -0.719336,7.342188 z M 9.0407179,24.02205 q 2.0091801,3.96875 3.1998051,8.979297 0.595312,2.480468 1.016992,5.630664 0.446484,3.150195 0.719336,6.994922 h 13.245703 q 0.570507,-8.433594 2.009179,-13.816211 1.463477,-5.481836 2.852539,-7.788672 z"
         style="stroke-width:0.26458332"
         id="path7870"
         inkscape:connector-curvature="0" />
    </g>
  </g>
</svg>
