<?xml version="1.0" encoding="UTF-8" standalone="no"?>
<!-- Created with Inkscape (http://www.inkscape.org/) -->

<svg
   xmlns:dc="http://purl.org/dc/elements/1.1/"
   xmlns:cc="http://creativecommons.org/ns#"
   xmlns:rdf="http://www.w3.org/1999/02/22-rdf-syntax-ns#"
   xmlns:svg="http://www.w3.org/2000/svg"
   xmlns="http://www.w3.org/2000/svg"
   xmlns:sodipodi="http://sodipodi.sourceforge.net/DTD/sodipodi-0.dtd"
   xmlns:inkscape="http://www.inkscape.org/namespaces/inkscape"
   width="25.598436mm"
   height="31.998034mm"
   viewBox="0 0 25.598436 31.998034"
   version="1.1"
   id="svg12090"
   inkscape:version="0.92.4 (5da689c313, 2019-01-14)"
   sodipodi:docname="S26.svg">
  <defs
     id="defs12084" />
  <sodipodi:namedview
     id="base"
     pagecolor="#ffffff"
     bordercolor="#666666"
     borderopacity="1.0"
     inkscape:pageopacity="0.0"
     inkscape:pageshadow="2"
     inkscape:zoom="0.35"
     inkscape:cx="-346.11523"
     inkscape:cy="-337.61789"
     inkscape:document-units="mm"
     inkscape:current-layer="layer1"
     showgrid="false"
     fit-margin-top="0"
     fit-margin-left="0"
     fit-margin-right="0"
     fit-margin-bottom="0"
     inkscape:window-width="1920"
     inkscape:window-height="1017"
     inkscape:window-x="-8"
     inkscape:window-y="-8"
     inkscape:window-maximized="1" />
  <metadata
     id="metadata12087">
    <rdf:RDF>
      <cc:Work
         rdf:about="">
        <dc:format>image/svg+xml</dc:format>
        <dc:type
           rdf:resource="http://purl.org/dc/dcmitype/StillImage" />
        <dc:title></dc:title>
      </cc:Work>
    </rdf:RDF>
  </metadata>
  <g
     inkscape:label="Layer 1"
     inkscape:groupmode="layer"
     id="layer1"
     transform="translate(-4.2638223,-27.507234)">
    <g
       aria-label="𓋯"
       transform="scale(0.26458333)"
       style="font-style:normal;font-variant:normal;font-weight:normal;font-stretch:normal;font-size:192px;line-height:1.25;font-family:sans-serif;-inkscape-font-specification:sans-serif;font-variant-ligatures:normal;font-variant-caps:normal;font-variant-numeric:normal;font-feature-settings:normal;text-align:start;letter-spacing:0px;word-spacing:0px;writing-mode:lr-tb;text-anchor:start;fill:#000000;fill-opacity:1;stroke:none"
       id="flowRoot12635">
      <path
         d="m 105.27148,120.6518 q 0,7.59375 -0.9375,15.09375 l -2.0625,15 q 3.28125,15.09375 5.8125,30.1875 2.625,15.09375 4.78125,30.375 l -1.125,1.5 q -3,0.375 -6.09375,0.75 -3,0.28125 -5.999996,0.75 l -1.40625,-0.375 -9.46875,-9.375 q -4.59375,-4.5 -8.71875,-9.46875 -3.28125,4.59375 -4.875,10.21875 -1.59375,5.53125 -1.59375,18.09375 l -1.59375,1.5 h -19.6875 l -1.40625,-1.21875 q -0.75,-7.59375 -2.34375,-15 -1.5,-7.40625 -4.3125,-14.53125 l -1.78125,1.40625 q -2.625,2.25 -5.15625,4.5 -2.4375,2.25 -4.875,4.59375 l -1.78125,0.46875 -13.59375,-7.5 -0.9375,-1.6875 q 5.15625,-25.78125 10.96875,-41.53125 5.8125,-15.84375 13.21875,-28.125 l -0.1875,-3.75 q 0,-0.9375 -0.09375,-1.875 0,-2.90625 0.65625,-4.875 0.65625,-1.96875 2.4375,-3.375 l 0.75,-0.46875 q 0.28125,-0.1875 0.46875,-0.28125 0.1875,-0.0937 0.375,-0.0937 13.3125,-1.96875 26.4375,-3.84375 l 26.53125,-3.75 1.5,1.03125 z m -30.374996,6.65625 v -1.03125 q 0,-0.46875 0.09375,-1.03125 l -32.34375,2.90625 q -7.3125,12.09375 -13.03125,28.3125 -5.71875,16.125 -10.3125,39 1.3125,0.65625 5.15625,2.90625 3.84375,2.15625 6.46875,3.5625 2.34375,-2.25 4.78125,-4.40625 l 4.875,-4.3125 q 0.9375,-0.9375 2.25,-1.78125 1.40625,-0.9375 9.75,-12.5625 8.4375,-11.625 10.6875,-15.46875 2.34375,-3.9375 5.34375,-11.25 3.09375,-7.3125 4.40625,-13.125 1.40625,-5.8125 1.875,-11.71875 z m -8.34375,38.90625 q 3.28125,9.46875 9.65625,19.03125 6.375,9.5625 23.53125,25.96875 l 5.062496,-0.5625 q 2.4375,-0.28125 4.875,-0.65625 -2.0625,-14.0625 -4.59375,-27.84375 -2.4375,-13.875 -5.812496,-31.03125 v -0.5625 q 0.843746,-7.03125 1.781246,-13.96875 1.03125,-7.03125 1.21875,-14.15625 l -12.093746,1.3125 q -6,0.65625 -12.09375,1.21875 -0.375,9.65625 -3.28125,19.5 -2.90625,9.84375 -8.625,20.4375 z m 4.03125,55.6875 q 0,-11.15625 1.78125,-17.4375 1.78125,-6.375 5.34375,-11.34375 -3.75,-5.25 -7.40625,-11.53125 -3.5625,-6.28125 -6.1875,-13.3125 -3.65625,6.1875 -8.15625,12 -4.40625,5.8125 -9.46875,11.71875 3.09375,7.125 4.78125,14.71875 1.6875,7.5 2.4375,15.1875 z m 1.96875,-99.46875 q 14.53125,-1.3125 29.249996,-3 -1.03125,-3.28125 -2.249996,-6.28125 l -2.625,-6.09375 -51.5625,7.40625 q -1.3125,0.9375 -1.875,2.15625 -0.46875,1.21875 -0.46875,2.625 l -0.09375,0.5625 q 0,1.125 0.1875,2.53125 0.1875,1.3125 0.1875,2.71875 z"
         id="path12643"
         inkscape:connector-curvature="0" />
    </g>
  </g>
</svg>
