<?xml version="1.0" encoding="UTF-8" standalone="no"?>
<!-- Created with Inkscape (http://www.inkscape.org/) -->

<svg
   xmlns:dc="http://purl.org/dc/elements/1.1/"
   xmlns:cc="http://creativecommons.org/ns#"
   xmlns:rdf="http://www.w3.org/1999/02/22-rdf-syntax-ns#"
   xmlns:svg="http://www.w3.org/2000/svg"
   xmlns="http://www.w3.org/2000/svg"
   xmlns:sodipodi="http://sodipodi.sourceforge.net/DTD/sodipodi-0.dtd"
   xmlns:inkscape="http://www.inkscape.org/namespaces/inkscape"
   width="38.025585mm"
   height="9.9962893mm"
   viewBox="0 0 38.025585 9.9962893"
   version="1.1"
   id="svg12652"
   inkscape:version="0.92.4 (5da689c313, 2019-01-14)"
   sodipodi:docname="S26A.svg">
  <defs
     id="defs12646" />
  <sodipodi:namedview
     id="base"
     pagecolor="#ffffff"
     bordercolor="#666666"
     borderopacity="1.0"
     inkscape:pageopacity="0.0"
     inkscape:pageshadow="2"
     inkscape:zoom="0.35"
     inkscape:cx="-226.11523"
     inkscape:cy="-351.90305"
     inkscape:document-units="mm"
     inkscape:current-layer="layer1"
     showgrid="false"
     fit-margin-top="0"
     fit-margin-left="0"
     fit-margin-right="0"
     fit-margin-bottom="0"
     inkscape:window-width="1920"
     inkscape:window-height="1017"
     inkscape:window-x="-8"
     inkscape:window-y="-8"
     inkscape:window-maximized="1" />
  <metadata
     id="metadata12649">
    <rdf:RDF>
      <cc:Work
         rdf:about="">
        <dc:format>image/svg+xml</dc:format>
        <dc:type
           rdf:resource="http://purl.org/dc/dcmitype/StillImage" />
        <dc:title></dc:title>
      </cc:Work>
    </rdf:RDF>
  </metadata>
  <g
     inkscape:label="Layer 1"
     inkscape:groupmode="layer"
     id="layer1"
     transform="translate(27.486178,-45.729363)">
    <g
       aria-label="𓋰"
       transform="scale(0.26458333)"
       style="font-style:normal;font-variant:normal;font-weight:normal;font-stretch:normal;font-size:192px;line-height:1.25;font-family:sans-serif;-inkscape-font-specification:sans-serif;font-variant-ligatures:normal;font-variant-caps:normal;font-variant-numeric:normal;font-feature-settings:normal;text-align:start;letter-spacing:0px;word-spacing:0px;writing-mode:lr-tb;text-anchor:start;fill:#000000;fill-opacity:1;stroke:none"
       id="flowRoot13197">
      <path
         d="m 39.833984,190.92914 q 0,8.34375 -5.34375,14.0625 -5.25,5.625 -12.9375,5.625 h -107.34375 q -7.96875,0 -13.03125,-6.09375 -5.062504,-6.09375 -5.062504,-13.875 0,-6.9375 5.437504,-12.375 5.4375,-5.4375 12.65625,-5.4375 h 107.34375 q 7.59375,0 12.65625,5.15625 5.0625,5.0625 5.625,12.9375 z m -3,0.28125 q -0.375,-6.65625 -4.59375,-10.96875 -4.125,-4.40625 -10.6875,-4.40625 h -107.34375 q -6.375,0 -10.78125,4.6875 -4.312504,4.59375 -4.312504,10.59375 0,6.375 4.218754,11.4375 4.21875,5.0625 10.875,5.0625 h 107.34375 q 6.5625,0 10.875,-4.78125 4.40625,-4.875 4.40625,-11.625 z"
         id="path13205"
         inkscape:connector-curvature="0" />
    </g>
  </g>
</svg>
