<?xml version="1.0" encoding="UTF-8" standalone="no"?>
<!-- Created with Inkscape (http://www.inkscape.org/) -->

<svg
   xmlns:dc="http://purl.org/dc/elements/1.1/"
   xmlns:cc="http://creativecommons.org/ns#"
   xmlns:rdf="http://www.w3.org/1999/02/22-rdf-syntax-ns#"
   xmlns:svg="http://www.w3.org/2000/svg"
   xmlns="http://www.w3.org/2000/svg"
   xmlns:sodipodi="http://sodipodi.sourceforge.net/DTD/sodipodi-0.dtd"
   xmlns:inkscape="http://www.inkscape.org/namespaces/inkscape"
   width="18.777149mm"
   height="44.673241mm"
   viewBox="0 0 18.777149 44.673241"
   version="1.1"
   id="svg7594"
   inkscape:version="0.92.4 (5da689c313, 2019-01-14)"
   sodipodi:docname="S2A.svg">
  <defs
     id="defs7588" />
  <sodipodi:namedview
     id="base"
     pagecolor="#ffffff"
     bordercolor="#666666"
     borderopacity="1.0"
     inkscape:pageopacity="0.0"
     inkscape:pageshadow="2"
     inkscape:zoom="0.35"
     inkscape:cx="-363.25977"
     inkscape:cy="-327.69016"
     inkscape:document-units="mm"
     inkscape:current-layer="layer1"
     showgrid="false"
     fit-margin-top="0"
     fit-margin-left="0"
     fit-margin-right="0"
     fit-margin-bottom="0"
     inkscape:window-width="1920"
     inkscape:window-height="1017"
     inkscape:window-x="-8"
     inkscape:window-y="-8"
     inkscape:window-maximized="1" />
  <metadata
     id="metadata7591">
    <rdf:RDF>
      <cc:Work
         rdf:about="">
        <dc:format>image/svg+xml</dc:format>
        <dc:type
           rdf:resource="http://purl.org/dc/dcmitype/StillImage" />
        <dc:title></dc:title>
      </cc:Work>
    </rdf:RDF>
  </metadata>
  <g
     inkscape:label="Layer 1"
     inkscape:groupmode="layer"
     id="layer1"
     transform="translate(-8.7999796,-17.458737)">
    <g
       aria-label="𓋓"
       transform="scale(0.26458333)"
       style="font-style:normal;font-variant:normal;font-weight:normal;font-stretch:normal;font-size:192px;line-height:1.25;font-family:sans-serif;-inkscape-font-specification:sans-serif;font-variant-ligatures:normal;font-variant-caps:normal;font-variant-numeric:normal;font-feature-settings:normal;text-align:start;letter-spacing:0px;word-spacing:0px;writing-mode:lr-tb;text-anchor:start;fill:#000000;fill-opacity:1;stroke:none"
       id="flowRoot8139">
      <path
         d="m 42.072266,137.89203 q 3.09375,-11.71875 9.09375,-20.90625 3,-4.6875 8.34375,-10.3125 5.34375,-5.71875 13.21875,-12.46875 15.65625,-13.6875 16.875,-18.375 1.3125,-4.875 4.125,-7.3125 2.90625,-2.53125 6.562504,-2.53125 2.15625,0 3,1.3125 0.9375,1.3125 0.9375,3.5625 0,4.125 -3.46875,10.21875 -1.687504,3.09375 -3.093754,5.15625 -1.3125,2.0625 -2.25,3.46875 -0.84375,1.40625 -1.40625,2.25 -0.46875,0.75 -0.5625,1.3125 l -1.78125,9.5625 q -2.53125,13.6875 -5.34375,23.4375 -2.8125,9.65625 -5.625,15.5625 -5.53125,11.71875 -13.6875,20.53125 l -2.25,0.1875 -6.09375,-7.125 v -2.25 q 1.03125,-0.9375 1.78125,-2.625 0.75,-1.78125 0.75,-3.375 0,-1.3125 -0.75,-2.0625 -1.5,0.28125 -2.625,1.59375 -1.125,1.21875 -2.34375,1.78125 l -1.875,-0.0937 q -2.53125,-2.53125 -5.4375,-4.6875 -2.90625,-2.25 -5.625,-4.40625 z m 3.1875,-0.28125 q 1.78125,1.3125 3.46875,2.71875 1.78125,1.3125 3.09375,2.4375 1.59375,1.3125 3,2.625 1.3125,-0.9375 2.4375,-1.96875 1.21875,-1.03125 2.8125,-1.3125 2.25,0 3,1.6875 0.84375,1.6875 0.84375,3.65625 0,2.34375 -0.5625,3.9375 -0.5625,1.5 -1.6875,2.90625 l 4.125,4.875 q 8.25,-8.8125 13.21875,-21.28125 5.0625,-12.5625 8.0625,-27.75 l 3.46875,-17.625 q 0.28125,-1.5 1.3125,-2.71875 1.03125,-1.3125 1.78125,-2.625 l 2.25,-3.65625 q 2.4375,-4.03125 3.9375,-7.3125 1.500004,-3.375 1.500004,-5.625 l -0.5625,-1.59375 q -6.375004,0.46875 -7.781254,6.65625 -1.40625,6.09375 -13.125,16.125 l -6.84375,5.90625 q -6.75,5.8125 -11.53125,10.96875 -4.78125,5.15625 -7.6875,9.84375 -5.71875,9 -8.53125,19.125 z m 20.90625,97.21875 q -6.9375,0 -12.9375,-2.53125 -6,-2.53125 -10.5,-6.9375 -4.40625,-4.5 -6.9375,-10.5 -2.53125,-6 -2.53125,-12.9375 0,-6.9375 2.53125,-13.125 2.53125,-6.28125 6.9375,-10.96875 4.5,-4.78125 10.5,-7.59375 6,-2.8125 12.9375,-2.8125 6.9375,0 13.125,2.8125 6.28125,2.8125 10.96875,7.59375 4.78125,4.6875 7.59375,10.96875 2.812504,6.1875 2.812504,13.125 0,6.9375 -2.812504,12.9375 -2.8125,6 -7.59375,10.5 -4.6875,4.40625 -10.96875,6.9375 -6.1875,2.53125 -13.125,2.53125 z m 16.78125,-9.9375 q 4.21875,-2.8125 7.6875,-7.21875 l -16.59375,-16.5 15.9375,-15.9375 q -3.375,-4.3125 -7.3125,-7.3125 l -16.5,16.59375 -16.40625,-16.5 q -4.03125,3.1875 -6.65625,7.21875 l 15.9375,15.9375 -16.59375,16.40625 q 2.71875,4.40625 7.03125,7.40625 l 16.78125,-16.875 z m -16.78125,-37.59375 12.09375,-12.09375 q -6.46875,-3.09375 -12.5625,-3.09375 -6,0 -11.53125,3 z m 0.09375,28.03125 -12.09375,12.1875 q 5.53125,2.625 11.90625,2.625 6,0 12.28125,-2.71875 z m 27.09375,-2.15625 q 2.625,-5.34375 2.625,-11.15625 0,-6 -3.1875,-12.28125 l -11.53125,11.4375 z m -41.53125,-12 -11.34375,-11.25 q -2.53125,6.09375 -2.53125,12.09375 0,5.8125 2.0625,10.78125 z"
         id="path8147"
         inkscape:connector-curvature="0" />
    </g>
  </g>
</svg>
