<?xml version="1.0" encoding="UTF-8" standalone="no"?>
<!-- Created with Inkscape (http://www.inkscape.org/) -->

<svg
   xmlns:dc="http://purl.org/dc/elements/1.1/"
   xmlns:cc="http://creativecommons.org/ns#"
   xmlns:rdf="http://www.w3.org/1999/02/22-rdf-syntax-ns#"
   xmlns:svg="http://www.w3.org/2000/svg"
   xmlns="http://www.w3.org/2000/svg"
   xmlns:sodipodi="http://sodipodi.sourceforge.net/DTD/sodipodi-0.dtd"
   xmlns:inkscape="http://www.inkscape.org/namespaces/inkscape"
   width="28.773436mm"
   height="37.876759mm"
   viewBox="0 0 28.773436 37.876759"
   version="1.1"
   id="svg8156"
   inkscape:version="0.92.4 (5da689c313, 2019-01-14)"
   sodipodi:docname="S3.svg">
  <defs
     id="defs8150" />
  <sodipodi:namedview
     id="base"
     pagecolor="#ffffff"
     bordercolor="#666666"
     borderopacity="1.0"
     inkscape:pageopacity="0.0"
     inkscape:pageshadow="2"
     inkscape:zoom="0.35"
     inkscape:cx="-386.11523"
     inkscape:cy="-286.56516"
     inkscape:document-units="mm"
     inkscape:current-layer="layer1"
     showgrid="false"
     fit-margin-top="0"
     fit-margin-left="0"
     fit-margin-right="0"
     fit-margin-bottom="0"
     inkscape:window-width="1920"
     inkscape:window-height="1017"
     inkscape:window-x="-8"
     inkscape:window-y="-8"
     inkscape:window-maximized="1" />
  <metadata
     id="metadata8153">
    <rdf:RDF>
      <cc:Work
         rdf:about="">
        <dc:format>image/svg+xml</dc:format>
        <dc:type
           rdf:resource="http://purl.org/dc/dcmitype/StillImage" />
        <dc:title></dc:title>
      </cc:Work>
    </rdf:RDF>
  </metadata>
  <g
     inkscape:label="Layer 1"
     inkscape:groupmode="layer"
     id="layer1"
     transform="translate(-14.847155,-35.136211)">
    <g
       aria-label="𓋔"
       transform="scale(0.26458333)"
       style="font-style:normal;font-variant:normal;font-weight:normal;font-stretch:normal;font-size:192px;line-height:1.25;font-family:sans-serif;-inkscape-font-specification:sans-serif;font-variant-ligatures:normal;font-variant-caps:normal;font-variant-numeric:normal;font-feature-settings:normal;text-align:start;letter-spacing:0px;word-spacing:0px;writing-mode:lr-tb;text-anchor:start;fill:#000000;fill-opacity:1;stroke:none"
       id="flowRoot8701">
      <path
         d="m 119.77148,202.64203 37.875,-69.1875 1.6875,-0.65625 2.25,0.65625 2.25,0.84375 1.03125,1.875 -63.46875,139.125 -2.437496,0.65625 -13.6875,-10.59375 v -2.25 q 1.6875,-1.3125 3.65625,-3.09375 2.0625,-1.78125 3.84375,-3.84375 1.78125,-2.0625 2.90625,-4.21875 1.21875,-2.15625 1.21875,-4.3125 0,-1.5 -1.03125,-2.4375 -0.9375,-0.9375 -2.4375,-0.9375 -1.21875,0 -2.53125,0.9375 -1.3125,0.9375 -2.34375,1.96875 -1.3125,1.3125 -2.53125,2.90625 l -2.25,0.1875 q -3.09375,-3.75 -6,-5.0625 -2.8125,-1.3125 -6.375,-1.3125 -1.59375,0 -3.375,0.1875 -1.78125,0.1875 -3.9375,0.46875 l -1.875,-1.78125 q 0,-9.65625 -1.3125,-19.03125 -1.3125,-9.46875 -3.28125,-19.03125 l 1.40625,-1.78125 h 43.874996 q -5.156246,-1.59375 -10.687496,-4.03125 -5.53125,-2.4375 -11.625,-5.71875 -12.1875,-6.75 -18.375,-15.1875 -6.09375,-8.4375 -6.09375,-18.5625 0,-2.90625 0.75,-5.71875 0.84375,-2.8125 2.4375,-4.96875 1.59375,-2.15625 3.9375,-3.46875 2.34375,-1.3125 5.4375,-1.3125 2.25,0 4.3125,0.9375 2.15625,0.84375 3.75,2.34375 1.6875,1.5 2.625,3.5625 0.9375,2.0625 0.9375,4.40625 0,4.3125 -2.15625,6.5625 -2.0625,2.15625 -5.25,2.15625 -2.34375,0 -4.40625,-1.21875 -1.96875,-1.21875 -2.53125,-3.1875 l -0.75,-2.34375 q 0.65625,-0.375 1.3125,-0.65625 0.65625,-0.28125 1.40625,-0.5625 0.9375,1.3125 2.15625,2.34375 1.3125,0.9375 2.90625,0.9375 0.84375,0 1.6875,-0.84375 0.9375,-0.84375 0.9375,-1.96875 0,-3.1875 -1.78125,-5.4375 -1.78125,-2.34375 -5.25,-2.34375 -3.5625,0 -5.71875,2.34375 -2.15625,2.34375 -2.15625,7.3125 0,6.1875 2.0625,10.6875 2.0625,4.40625 4.96875,8.34375 5.8125,7.875 20.4375,14.71875 14.812496,7.03125 31.593746,10.59375 z m -3.09375,3.28125 H 60.896484 q 1.875,8.8125 3.09375,17.625 1.21875,8.71875 1.21875,17.8125 3.09375,-0.28125 4.125,-0.28125 1.125,-0.0937 1.78125,-0.1875 4.21875,0 7.3125,1.40625 3.1875,1.3125 6.28125,4.59375 2.0625,-2.0625 4.03125,-3.84375 1.96875,-1.875 4.59375,-1.875 2.71875,0 4.5,1.96875 1.875,1.96875 1.875,4.875 0,3.375 -2.71875,7.40625 -2.625,3.9375 -8.25,8.8125 l 10.6875,8.25 61.968746,-135.84375 -1.78125,-0.65625 -37.3125,68.71875 z"
         id="path8709"
         inkscape:connector-curvature="0" />
    </g>
  </g>
</svg>
