<?xml version="1.0" encoding="UTF-8" standalone="no"?>
<!-- Created with Inkscape (http://www.inkscape.org/) -->

<svg
   xmlns:dc="http://purl.org/dc/elements/1.1/"
   xmlns:cc="http://creativecommons.org/ns#"
   xmlns:rdf="http://www.w3.org/1999/02/22-rdf-syntax-ns#"
   xmlns:svg="http://www.w3.org/2000/svg"
   xmlns="http://www.w3.org/2000/svg"
   xmlns:sodipodi="http://sodipodi.sourceforge.net/DTD/sodipodi-0.dtd"
   xmlns:inkscape="http://www.inkscape.org/namespaces/inkscape"
   width="37.851952mm"
   height="37.256641mm"
   viewBox="0 0 37.851952 37.256641"
   version="1.1"
   id="svg831"
   inkscape:version="0.92.4 (5da689c313, 2019-01-14)"
   sodipodi:docname="S30.svg">
  <defs
     id="defs825" />
  <sodipodi:namedview
     id="base"
     pagecolor="#ffffff"
     bordercolor="#666666"
     borderopacity="1.0"
     inkscape:pageopacity="0.0"
     inkscape:pageshadow="2"
     inkscape:zoom="0.35"
     inkscape:cx="-340.40234"
     inkscape:cy="-399.11789"
     inkscape:document-units="mm"
     inkscape:current-layer="layer1"
     showgrid="false"
     fit-margin-top="0"
     fit-margin-left="0"
     fit-margin-right="0"
     fit-margin-bottom="0"
     inkscape:window-width="1920"
     inkscape:window-height="1017"
     inkscape:window-x="-8"
     inkscape:window-y="-8"
     inkscape:window-maximized="1" />
  <metadata
     id="metadata828">
    <rdf:RDF>
      <cc:Work
         rdf:about="">
        <dc:format>image/svg+xml</dc:format>
        <dc:type
           rdf:resource="http://purl.org/dc/dcmitype/StillImage" />
        <dc:title></dc:title>
      </cc:Work>
    </rdf:RDF>
  </metadata>
  <g
     inkscape:label="Layer 1"
     inkscape:groupmode="layer"
     id="layer1"
     transform="translate(-2.7522868,-5.9767512)">
    <g
       aria-label="𓋵"
       transform="scale(0.26458333)"
       style="font-style:normal;font-variant:normal;font-weight:normal;font-stretch:normal;font-size:192px;line-height:1.25;font-family:sans-serif;-inkscape-font-specification:sans-serif;font-variant-ligatures:normal;font-variant-caps:normal;font-variant-numeric:normal;font-feature-settings:normal;text-align:start;letter-spacing:0px;word-spacing:0px;writing-mode:lr-tb;text-anchor:start;fill:#000000;fill-opacity:1;stroke:none"
       id="flowRoot1376">
      <path
         d="M 63.839844,163.4018 V 97.870546 q -4.78125,-0.46875 -9.75,-2.0625 -4.875,-1.6875 -10.21875,-4.59375 -10.40625,-5.71875 -13.21875,-6.1875 -1.5,0.5625 -3.1875,1.5 -1.6875,0.84375 -3.1875,0.84375 -3.28125,0 -8.625,-1.96875 -5.25,-1.96875 -5.25,-8.25 0,-2.90625 1.78125,-5.625 0.9375,-1.5 3.1875,-2.53125 2.25,-1.125 5.8125,-1.59375 -1.59375,-2.25 -3,-4.21875 -1.3125,-1.96875 -2.4375,-1.96875 -2.34375,0 -3.09375,-0.65625 -0.65625,-0.65625 -0.65625,-1.96875 0,-1.125 0.9375,-1.59375 0.9375,-0.46875 1.6875,-0.46875 1.59375,0 2.71875,1.21875 1.125,1.125 1.875,2.15625 1.3125,1.78125 2.625,3.5625 1.3125,1.78125 2.0625,3.84375 h 1.96875 q 0.84375,-1.96875 2.25,-3.9375 1.5,-1.96875 3.09375,-3.5625 1.21875,-1.21875 2.71875,-2.25 1.5,-1.03125 2.71875,-1.03125 1.03125,0 1.6875,0.375 0.65625,0.375 0.84375,1.21875 0,0.9375 -0.28125,1.3125 -0.1875,0.375 -0.9375,0.84375 -0.75,0.46875 -1.3125,0.46875 -0.46875,-0.09375 -1.5,0 -1.03125,0.09375 -2.71875,1.96875 -1.59375,1.78125 -3.65625,5.0625 3.1875,1.3125 7.40625,4.03125 4.3125,2.71875 9.375,6.28125 5.15625,3.65625 9.65625,6 4.5,2.25 8.625,2.90625 v -50.90625 q 0,-6.1875 3.65625,-9.65625 3.65625,-3.46875 11.53125,-3.84375 15.09375,1.03125 15.09375,13.5 v 46.6875 q 2.53125,0.1875 5.34375,0.84375 2.812496,0.5625 5.812496,1.5 2.625,0.84375 6.1875,1.78125 3.5625,0.9375 6.9375,1.78125 3.46875,0.75 6.1875,1.3125 2.8125,0.5625 3.9375,0.5625 2.53125,-0.09375 4.125,-0.09375 1.6875,-0.09375 3.1875,-0.09375 2.4375,0 4.125,0 1.6875,0 2.90625,0 1.3125,0 2.25,0.09375 0.9375,0 1.875,0 3.75,0.28125 6,1.3125 l 0.46875,2.625 q -3.84375,2.90625 -11.8125,3.84375 -3.9375,0.46875 -7.78125,0.75 -3.75,0.1875 -7.5,0.1875 -5.625,0 -11.8125,-0.65625 -6.09375,-0.75 -12.28125,-1.6875 l -8.156246,-1.21875 V 117.6518 h -4.6875 V 94.870546 q -2.4375,0.28125 -5.25,0.75 -2.71875,0.375 -5.53125,0.84375 -2.8125,0.375 -5.4375,0.75 -2.625,0.28125 -4.6875,0.5625 V 163.4018 Z M 89.433594,36.183046 q 0,-1.6875 -0.5625,-3.28125 -0.5625,-1.6875 -1.875,-2.90625 -1.21875,-1.21875 -3.28125,-1.96875 -1.96875,-0.75 -4.875,-0.75 -2.625,0 -4.5,0.75 -1.875,0.75 -3.09375,1.96875 -1.21875,1.21875 -1.875,2.90625 -0.65625,1.59375 -0.84375,3.28125 v 49.78125 q 2.0625,-0.46875 4.59375,-1.03125 2.625,-0.5625 5.34375,-1.03125 2.71875,-0.5625 5.53125,-0.9375 2.8125,-0.375 5.4375,-0.375 z m 1.875,49.5 q -6.375,0 -10.6875,0.75 -4.21875,0.65625 -7.125,1.5 -2.8125,0.84375 -4.59375,1.59375 -1.6875,0.65625 -2.90625,0.65625 -2.90625,0 -5.71875,-0.75 -2.8125,-0.84375 -5.53125,-2.0625 -2.625,-1.3125 -5.0625,-2.8125 -2.4375,-1.59375 -4.6875,-3.1875 l -8.71875,-6.09375 q -1.78125,-1.3125 -3.75,-2.34375 -1.6875,-0.9375 -3.84375,-1.6875 -2.15625,-0.75 -4.3125,-0.75 h -2.53125 q -5.53125,0.46875 -7.03125,2.53125 -1.40625,2.15625 -1.40625,4.40625 0,3.65625 2.8125,5.15625 2.90625,1.5 9.09375,1.5 1.21875,-0.5625 3.65625,-1.6875 0.75,-0.375 1.875,-0.375 2.0625,0 4.40625,1.3125 l 4.03125,2.25 9.75,4.78125 q 3.28125,1.59375 6.75,2.8125 3.46875,1.21875 5.8125,1.40625 l 5.0625,0.28125 q 2.71875,0 6,-0.46875 3.28125,-0.46875 6.65625,-1.03125 3.375,-0.65625 6.5625,-1.125 3.28125,-0.46875 5.90625,-0.46875 1.3125,0 3.65625,0.46875 2.4375,0.46875 4.874996,0.9375 2.71875,0.65625 5.8125,1.40625 5.15625,0.75 10.21875,1.21875 5.15625,0.375 9.9375,0.375 2.0625,0 4.875,-0.09375 2.90625,-0.1875 6.5625,-0.375 3.75,-0.1875 6.46875,-0.75 2.71875,-0.5625 4.59375,-1.3125 -1.6875,-0.28125 -3.46875,-0.375 -1.78125,-0.09375 -3.75,-0.09375 -2.8125,0 -4.5,0.09375 -1.59375,0.09375 -2.90625,0.1875 -1.3125,0.09375 -2.71875,0.1875 -1.40625,0.09375 -3.65625,0.09375 -0.75,0 -1.6875,-0.09375 -0.9375,-0.09375 -3.09375,-0.5625 -2.0625,-0.46875 -5.71875,-1.40625 -3.65625,-1.03125 -9.75,-2.8125 -3.28125,-0.9375 -7.03125,-2.0625 -3.749996,-1.125 -9.187496,-1.125 z"
         id="path1384"
         inkscape:connector-curvature="0" />
    </g>
  </g>
</svg>
