<?xml version="1.0" encoding="UTF-8" standalone="no"?>
<!-- Created with Inkscape (http://www.inkscape.org/) -->

<svg
   xmlns:dc="http://purl.org/dc/elements/1.1/"
   xmlns:cc="http://creativecommons.org/ns#"
   xmlns:rdf="http://www.w3.org/1999/02/22-rdf-syntax-ns#"
   xmlns:svg="http://www.w3.org/2000/svg"
   xmlns="http://www.w3.org/2000/svg"
   xmlns:sodipodi="http://sodipodi.sourceforge.net/DTD/sodipodi-0.dtd"
   xmlns:inkscape="http://www.inkscape.org/namespaces/inkscape"
   width="37.851952mm"
   height="37.256641mm"
   viewBox="0 0 37.851952 37.256641"
   version="1.1"
   id="svg8995"
   inkscape:version="0.92.4 (5da689c313, 2019-01-14)"
   sodipodi:docname="S31.svg">
  <defs
     id="defs8989" />
  <sodipodi:namedview
     id="base"
     pagecolor="#ffffff"
     bordercolor="#666666"
     borderopacity="1.0"
     inkscape:pageopacity="0.0"
     inkscape:pageshadow="2"
     inkscape:zoom="0.35"
     inkscape:cx="-363.25893"
     inkscape:cy="-354.28573"
     inkscape:document-units="mm"
     inkscape:current-layer="layer1"
     showgrid="false"
     fit-margin-top="0"
     fit-margin-left="0"
     fit-margin-right="0"
     fit-margin-bottom="0"
     inkscape:window-width="1920"
     inkscape:window-height="1017"
     inkscape:window-x="-8"
     inkscape:window-y="-8"
     inkscape:window-maximized="1" />
  <metadata
     id="metadata8992">
    <rdf:RDF>
      <cc:Work
         rdf:about="">
        <dc:format>image/svg+xml</dc:format>
        <dc:type
           rdf:resource="http://purl.org/dc/dcmitype/StillImage" />
        <dc:title></dc:title>
      </cc:Work>
    </rdf:RDF>
  </metadata>
  <g
     inkscape:label="Layer 1"
     inkscape:groupmode="layer"
     id="layer1"
     transform="translate(-8.7997579,-17.838594)">
    <g
       aria-label="𓋶"
       style="font-style:normal;font-variant:normal;font-weight:normal;font-stretch:normal;font-size:50.79999924px;line-height:1.25;font-family:sans-serif;-inkscape-font-specification:'sans-serif, Normal';font-variant-ligatures:normal;font-variant-caps:normal;font-variant-numeric:normal;font-feature-settings:normal;text-align:start;letter-spacing:0px;word-spacing:0px;writing-mode:lr-tb;text-anchor:start;fill:#000000;fill-opacity:1;stroke:none;stroke-width:0.26458332"
       id="text9542">
      <path
         d="M 29.809328,21.410469 V 42.990547 H 28.569094 V 21.435273 q 0,-0.446484 -0.148829,-0.868164 -0.148828,-0.446484 -0.496093,-0.768945 -0.322461,-0.322461 -0.868164,-0.520898 -0.520899,-0.198438 -1.289844,-0.198438 -0.694531,0 -1.190625,0.198438 -0.496094,0.198437 -0.818555,0.520898 -0.322461,0.322461 -0.496093,0.768945 -0.173633,0.42168 -0.223243,0.868164 v 24.457422 q 3.547071,-0.570508 6.449219,-1.364258 2.926953,-0.818554 4.787305,-1.909961 3.695898,-2.158007 3.695898,-4.588867 0,-1.240234 -1.265039,-2.182812 -1.21543,-0.892969 -4.861719,-1.686719 l -0.37207,-0.471289 v -8.259961 l 0.37207,-0.471289 h 3.59668 l 0.396875,0.520898 q -0.173633,0.669727 -0.297656,1.339454 -0.124024,0.644921 -0.124024,1.215429 0,1.562696 0.520899,2.678906 0.545703,1.116211 1.612304,1.835547 1.091407,0.694532 2.678907,1.066602 1.612304,0.37207 3.770312,0.446484 l 2.257227,0.09922 0.396874,0.520898 q -0.868164,1.785938 -1.810742,3.150196 -0.917773,1.339453 -1.860351,2.306836 -1.909961,1.95957 -4.638477,3.646289 -1.364257,0.843359 -3.075781,1.612304 -1.711523,0.768946 -3.671094,1.438672 -1.95957,0.644922 -4.142382,1.190625 -2.158008,0.545703 -4.415235,0.942578 v 6.126758 h -1.240234 v -5.829102 q -2.133203,0.297657 -4.34082,0.570508 -1.885156,0.223242 -4.117578,0.446485 -2.232422,0.198437 -4.2912112,0.272851 L 8.7997579,49.861445 11.602688,47.45539 q 0.496093,-0.07441 1.190625,-0.148828 0.719335,-0.09922 1.53789,-0.198437 0.818555,-0.09922 1.686719,-0.198438 0.868164,-0.124023 1.686719,-0.223242 1.934765,-0.248047 4.092773,-0.520898 V 21.410469 q 0,-1.63711 0.967383,-2.554883 0.967383,-0.917773 3.050976,-1.016992 3.993555,0.272851 3.993555,3.571875 z m 8.855273,16.842382 q 0,1.091407 -0.570508,2.00918 -0.570507,0.917773 -1.463476,1.661914 -0.892969,0.744141 -1.984375,1.339453 -1.066602,0.595313 -2.108398,1.041797 -1.5875,0.694531 -4.092774,1.289844 -2.480469,0.570508 -5.407422,1.066601 v 1.488282 q 8.632031,-1.537891 14.33711,-4.81211 5.705078,-3.299023 8.284765,-8.408789 -1.637109,-0.0248 -2.80293,-0.124023 -1.141015,-0.124024 -1.95957,-0.272852 -0.818555,-0.148828 -1.413867,-0.322461 -0.570508,-0.198437 -1.041797,-0.396875 -1.934766,-0.79375 -2.902148,-2.133203 -0.942578,-1.364258 -0.942578,-3.596679 0,-0.545703 0.124023,-1.190625 0.124023,-0.644922 0.248047,-1.141016 h -2.703711 v 7.689453 q 1.438672,0.272852 2.579687,0.669727 1.165821,0.37207 2.033985,0.868164 1.785937,1.016992 1.785937,3.274218 z m -16.867187,8.706446 q -1.860352,0.248046 -3.646289,0.471289 -0.768945,0.09922 -1.5875,0.198437 -0.818555,0.09922 -1.637109,0.198438 -0.79375,0.07441 -1.537891,0.173632 -0.744141,0.07441 -1.339453,0.124024 l -1.810742,1.562695 q 1.909961,-0.124023 3.91914,-0.322461 2.033985,-0.223242 3.745508,-0.421679 1.984375,-0.248047 3.894336,-0.496094 z"
         style="stroke-width:0.26458332"
         id="path9544"
         inkscape:connector-curvature="0" />
    </g>
  </g>
</svg>
