<?xml version="1.0" encoding="UTF-8" standalone="no"?>
<!-- Created with Inkscape (http://www.inkscape.org/) -->

<svg
   xmlns:dc="http://purl.org/dc/elements/1.1/"
   xmlns:cc="http://creativecommons.org/ns#"
   xmlns:rdf="http://www.w3.org/1999/02/22-rdf-syntax-ns#"
   xmlns:svg="http://www.w3.org/2000/svg"
   xmlns="http://www.w3.org/2000/svg"
   xmlns:sodipodi="http://sodipodi.sourceforge.net/DTD/sodipodi-0.dtd"
   xmlns:inkscape="http://www.inkscape.org/namespaces/inkscape"
   width="13.989843mm"
   height="38.050388mm"
   viewBox="0 0 13.989843 38.050388"
   version="1.1"
   id="svg10111"
   inkscape:version="0.92.4 (5da689c313, 2019-01-14)"
   sodipodi:docname="S33.svg">
  <defs
     id="defs10105" />
  <sodipodi:namedview
     id="base"
     pagecolor="#ffffff"
     bordercolor="#666666"
     borderopacity="1.0"
     inkscape:pageopacity="0.0"
     inkscape:pageshadow="2"
     inkscape:zoom="0.35"
     inkscape:cx="-363.25893"
     inkscape:cy="-401.35715"
     inkscape:document-units="mm"
     inkscape:current-layer="layer1"
     showgrid="false"
     fit-margin-top="0"
     fit-margin-left="0"
     fit-margin-right="0"
     fit-margin-bottom="0"
     inkscape:window-width="1920"
     inkscape:window-height="1017"
     inkscape:window-x="-8"
     inkscape:window-y="-8"
     inkscape:window-maximized="1" />
  <metadata
     id="metadata10108">
    <rdf:RDF>
      <cc:Work
         rdf:about="">
        <dc:format>image/svg+xml</dc:format>
        <dc:type
           rdf:resource="http://purl.org/dc/dcmitype/StillImage" />
        <dc:title></dc:title>
      </cc:Work>
    </rdf:RDF>
  </metadata>
  <g
     inkscape:label="Layer 1"
     inkscape:groupmode="layer"
     id="layer1"
     transform="translate(-8.7997579,-4.5905302)">
    <g
       aria-label="𓋸"
       style="font-style:normal;font-variant:normal;font-weight:normal;font-stretch:normal;font-size:50.79999924px;line-height:1.25;font-family:sans-serif;-inkscape-font-specification:'sans-serif, Normal';font-variant-ligatures:normal;font-variant-caps:normal;font-variant-numeric:normal;font-feature-settings:normal;text-align:start;letter-spacing:0px;word-spacing:0px;writing-mode:lr-tb;text-anchor:start;fill:#000000;fill-opacity:1;stroke:none;stroke-width:0.26458332"
       id="text10658">
      <path
         d="m 15.844289,42.616116 q -1.438672,-0.520899 -2.033984,-1.016993 -0.570508,-0.496093 -0.992188,-1.488281 -0.421679,-0.992187 -0.421679,-2.505273 0,-1.190625 0.173632,-2.38125 0.173633,-1.190625 0.223243,-2.232422 V 32.74385 q 0,-0.297656 -0.0248,-0.620117 l -0.148828,-1.21543 q 0,-0.148828 -0.07441,-0.322461 -1.165821,2.00918 -2.9517581,4.514453 h -0.049609 q -0.322461,0 -0.5457032,-0.297656 Q 8.7997579,34.504983 8.7997579,34.083303 V 33.90967 q 1.0417969,-1.413867 1.8851561,-2.703711 0.84336,-1.314648 1.537891,-2.530078 l -0.322461,-1.5875 q -0.173633,-0.768945 -0.37207,-1.562695 l -0.84336,-3.819922 -0.446484,-2.282031 q -0.198438,-1.190625 -0.3720705,-2.75332 -0.1736328,-1.5875 -0.1736328,-3.125391 0,-5.4818356 1.7363283,-7.2181637 1.761133,-1.7363281 4.663281,-1.7363281 h 0.272852 q 2.802929,0.074414 4.241601,2.3068359 1.463477,2.2076172 1.463477,6.3499999 0,1.314648 -0.124024,2.530078 -0.124023,1.21543 -0.322461,2.207617 l -0.446484,2.505274 q -0.223242,1.16582 -0.768945,3.447851 -0.520899,2.282031 -0.694532,3.075781 l -0.347265,1.63711 q 1.364257,2.505273 3.423046,5.258593 v 0.173633 q 0,0.42168 -0.223242,0.719336 -0.198437,0.297656 -0.520898,0.297656 h -0.04961 q -0.892968,-1.215429 -1.637109,-2.306836 -0.74414,-1.11621 -1.364258,-2.158007 -0.04961,0.272851 -0.07441,0.570507 l -0.04961,0.570508 q -0.07441,0.669727 -0.07441,1.289844 0,0.868164 0.248047,2.430859 0.248047,1.537891 0.248047,2.629297 0,1.5875 -0.595313,2.654102 -0.595312,1.041797 -2.604492,1.860351 z M 15.645852,9.7499051 q 0.198437,1.2154299 0.272851,2.2324219 0.09922,1.016992 0.124024,1.835547 v 1.612304 q 0,0.967383 -0.02481,1.438672 -0.0248,0.471289 -0.0248,0.818555 v 0.446484 q 0.570508,1.314649 1.016992,4.043164 0.471289,2.703711 1.761133,5.333008 0.248047,-1.190625 1.364258,-5.878711 1.116211,-4.688086 1.116211,-8.086328 v -0.74414 l -0.04961,-0.744141 Q 21.003664,8.7825223 19.813039,7.1206083 18.622414,5.4586942 16.365188,5.3842802 h -0.272852 q -2.505273,0 -4.067969,1.4634765 -1.53789,1.4634766 -1.53789,6.6972653 0,1.537891 0.173632,3.150196 0.173633,1.612304 0.372071,2.579687 l 0.322461,1.736328 q 0.223242,1.314648 0.644922,3.125391 0.446484,1.810742 0.570507,2.38125 l 0.223243,1.041796 q 1.314648,-2.629296 1.736328,-4.787304 0.446484,-2.182813 1.116211,-4.712891 l -0.09922,-2.33164 q -0.04961,-1.240235 -0.04961,-2.505274 0,-0.892968 0.0248,-1.761132 0.02481,-0.892969 0.124024,-1.7115239 z m 2.505273,25.1271479 q -0.04961,-0.496094 -0.09922,-0.992187 -0.0248,-0.520899 -0.0248,-1.016992 0,-0.297657 0.0248,-0.595313 l 0.02481,-0.570508 q 0.124023,-1.141015 0.297656,-2.182812 -1.190625,-2.207617 -1.761133,-4.241602 -0.570507,-2.033984 -0.79375,-4.241601 -0.297656,2.356445 -0.892968,4.316015 -0.570508,1.959571 -1.761133,4.117578 l 0.148828,0.84336 q 0.07441,0.446484 0.124023,0.868164 l 0.124024,0.942578 q 0,0.347266 0.02481,0.669726 v 0.272852 q -0.04961,1.141016 -0.223243,2.331641 -0.173632,1.16582 -0.173632,2.282031 0,1.736328 0.694531,2.703711 0.694531,0.967383 2.058789,1.438672 1.488281,-0.545704 2.009179,-1.513086 0.545704,-0.967383 0.545704,-2.207617 0,-0.744141 -0.09922,-1.562696 z"
         style="stroke-width:0.26458332"
         id="path10660"
         inkscape:connector-curvature="0" />
    </g>
  </g>
</svg>
