<?xml version="1.0" encoding="UTF-8" standalone="no"?>
<!-- Created with Inkscape (http://www.inkscape.org/) -->

<svg
   xmlns:dc="http://purl.org/dc/elements/1.1/"
   xmlns:cc="http://creativecommons.org/ns#"
   xmlns:rdf="http://www.w3.org/1999/02/22-rdf-syntax-ns#"
   xmlns:svg="http://www.w3.org/2000/svg"
   xmlns="http://www.w3.org/2000/svg"
   xmlns:sodipodi="http://sodipodi.sourceforge.net/DTD/sodipodi-0.dtd"
   xmlns:inkscape="http://www.inkscape.org/namespaces/inkscape"
   width="19.322905mm"
   height="37.256641mm"
   viewBox="0 0 19.322905 37.256641"
   version="1.1"
   id="svg1393"
   inkscape:version="0.92.4 (5da689c313, 2019-01-14)"
   sodipodi:docname="S34.svg">
  <defs
     id="defs1387" />
  <sodipodi:namedview
     id="base"
     pagecolor="#ffffff"
     bordercolor="#666666"
     borderopacity="1.0"
     inkscape:pageopacity="0.0"
     inkscape:pageshadow="2"
     inkscape:zoom="0.35"
     inkscape:cx="-177.54472"
     inkscape:cy="-447.69016"
     inkscape:document-units="mm"
     inkscape:current-layer="layer1"
     showgrid="false"
     fit-margin-top="0"
     fit-margin-left="0"
     fit-margin-right="0"
     fit-margin-bottom="0"
     inkscape:window-width="1920"
     inkscape:window-height="1017"
     inkscape:window-x="-8"
     inkscape:window-y="-8"
     inkscape:window-maximized="1" />
  <metadata
     id="metadata1390">
    <rdf:RDF>
      <cc:Work
         rdf:about="">
        <dc:format>image/svg+xml</dc:format>
        <dc:type
           rdf:resource="http://purl.org/dc/dcmitype/StillImage" />
        <dc:title></dc:title>
      </cc:Work>
    </rdf:RDF>
  </metadata>
  <g
     inkscape:label="Layer 1"
     inkscape:groupmode="layer"
     id="layer1"
     transform="translate(40.337126,6.8746607)">
    <g
       aria-label="𓋹"
       transform="scale(0.26458333)"
       style="font-style:normal;font-variant:normal;font-weight:normal;font-stretch:normal;font-size:192px;line-height:1.25;font-family:sans-serif;-inkscape-font-specification:sans-serif;font-variant-ligatures:normal;font-variant-caps:normal;font-variant-numeric:normal;font-feature-settings:normal;text-align:start;letter-spacing:0px;word-spacing:0px;writing-mode:lr-tb;text-anchor:start;fill:#000000;fill-opacity:1;stroke:none"
       id="flowRoot1938">
      <path
         d="m -79.423828,44.98578 q -3.46875,-0.1875 -6.75,-0.46875 -2.8125,-0.1875 -5.8125,-0.28125 -3,-0.1875 -5.15625,-0.1875 h -15.750002 v 43.40625 q 0,1.21875 0,3.09375 0.0937,1.78125 0.0937,3.9375 0.0937,2.15625 0.1875,4.5 0.0937,2.34375 0.1875,4.59375 0.1875,5.34375 0.46875,11.25 h -6.5625 q 0.1875,-6 0.46875,-11.25 0.0937,-2.25 0.0937,-4.5 0.0937,-2.34375 0.1875,-4.40625 0.0937,-2.15625 0.0937,-3.9375 0.0937,-1.78125 0.0937,-2.90625 V 44.04828 h -16.125 q -1.875,0 -5.0625,0.1875 -3.1875,0.09375 -6.1875,0.28125 -3.5625,0.28125 -7.5,0.46875 v -6.5625 q 3.84375,0.28125 7.40625,0.46875 3,0.1875 6.1875,0.375 3.1875,0.09375 5.25,0.09375 h 16.03125 q -4.21875,-6.84375 -7.3125,-12.65625 -3,-5.8125 -4.96875,-10.96875 -1.875,-5.25 -2.8125,-9.9374998 -0.9375,-4.78125 -0.9375,-9.46875 0,-4.59375 1.125,-8.6250002 1.125,-4.125 3.375,-7.125 2.34375,-3 5.8125,-4.78125 3.46875,-1.78125 8.0625,-1.78125 3.75,0 7.125,1.59375 3.375,1.59375 5.8125,4.3125 2.531252,2.71875 3.937502,6.28125 1.5,3.5625 1.5,7.5937502 0,9 -3.750002,20.4374998 -3.75,11.4375 -12.28125,25.125 h 15.750002 q 2.0625,0 5.0625,-0.09375 3,-0.1875 5.8125,-0.375 3.28125,-0.1875 6.84375,-0.46875 z M -128.92383,-4.7954698 q 0,3.28125 0.5625,7.59375 0.65625,4.21875 2.15625,9.2812498 1.59375,5.0625 4.21875,10.6875 2.71875,5.625 6.75,11.53125 6.84375,-12 10.21875,-22.125 3.46875,-10.2187498 3.46875,-16.9687498 0,-3.28125 -0.84375,-6.2812502 -0.84375,-3 -2.625,-5.25 -1.6875,-2.25 -4.3125,-3.5625 -2.53125,-1.40625 -5.90625,-1.40625 -3.09375,0 -5.625,1.40625 -2.53125,1.40625 -4.3125,3.75 -1.78125,2.34375 -2.8125,5.34375 -0.9375,2.9062502 -0.9375,6.0000002 z"
         id="path1946"
         inkscape:connector-curvature="0" />
    </g>
  </g>
</svg>
