<?xml version="1.0" encoding="UTF-8" standalone="no"?>
<!-- Created with Inkscape (http://www.inkscape.org/) -->

<svg
   xmlns:dc="http://purl.org/dc/elements/1.1/"
   xmlns:cc="http://creativecommons.org/ns#"
   xmlns:rdf="http://www.w3.org/1999/02/22-rdf-syntax-ns#"
   xmlns:svg="http://www.w3.org/2000/svg"
   xmlns="http://www.w3.org/2000/svg"
   xmlns:sodipodi="http://sodipodi.sourceforge.net/DTD/sodipodi-0.dtd"
   xmlns:inkscape="http://www.inkscape.org/namespaces/inkscape"
   width="27.979687mm"
   height="37.628712mm"
   viewBox="0 0 27.979687 37.628712"
   version="1.1"
   id="svg11227"
   inkscape:version="0.92.4 (5da689c313, 2019-01-14)"
   sodipodi:docname="S35.svg">
  <defs
     id="defs11221" />
  <sodipodi:namedview
     id="base"
     pagecolor="#ffffff"
     bordercolor="#666666"
     borderopacity="1.0"
     inkscape:pageopacity="0.0"
     inkscape:pageshadow="2"
     inkscape:zoom="0.35"
     inkscape:cx="-377.54464"
     inkscape:cy="-342.85715"
     inkscape:document-units="mm"
     inkscape:current-layer="layer1"
     showgrid="false"
     fit-margin-top="0"
     fit-margin-left="0"
     fit-margin-right="0"
     fit-margin-bottom="0"
     inkscape:window-width="1920"
     inkscape:window-height="1017"
     inkscape:window-x="-8"
     inkscape:window-y="-8"
     inkscape:window-maximized="1" />
  <metadata
     id="metadata11224">
    <rdf:RDF>
      <cc:Work
         rdf:about="">
        <dc:format>image/svg+xml</dc:format>
        <dc:type
           rdf:resource="http://purl.org/dc/dcmitype/StillImage" />
        <dc:title></dc:title>
      </cc:Work>
    </rdf:RDF>
  </metadata>
  <g
     inkscape:label="Layer 1"
     inkscape:groupmode="layer"
     id="layer1"
     transform="translate(-12.57952,-20.490335)">
    <g
       aria-label="𓋺"
       style="font-style:normal;font-variant:normal;font-weight:normal;font-stretch:normal;font-size:50.79999924px;line-height:1.25;font-family:sans-serif;-inkscape-font-specification:'sans-serif, Normal';font-variant-ligatures:normal;font-variant-caps:normal;font-variant-numeric:normal;font-feature-settings:normal;text-align:start;letter-spacing:0px;word-spacing:0px;writing-mode:lr-tb;text-anchor:start;fill:#000000;fill-opacity:1;stroke:none;stroke-width:0.26458332"
       id="text11774">
      <path
         d="m 25.974051,58.119045 0.198438,-19.595703 q -0.372071,-0.421679 -0.669727,-1.041796 -0.297656,-0.620118 -0.570508,-1.190625 -0.272851,-0.570508 -0.545703,-0.967383 -0.248047,-0.396875 -0.545703,-0.396875 -0.223242,0 -0.396875,0.173633 -0.148828,0.148828 -0.248047,0.396875 -0.09922,0.248046 -0.148828,0.545703 -0.04961,0.272851 -0.04961,0.496093 v 1.190625 h -0.818555 q 0,-0.917773 0.04961,-1.463476 0.04961,-0.570508 0.09922,-0.868164 0.07441,-0.347266 0.173633,-0.496094 H 12.951591 L 12.57952,34.430569 q 0.570508,-6.275586 4.539258,-10.095508 4.043164,-3.844726 9.376172,-3.844726 5.258593,0 9.525,3.621484 4.241601,3.59668 4.539257,10.393164 l -0.421679,0.396875 h -9.475391 q 0.07441,0.223242 0.148828,0.595313 0.04961,0.347265 0.09922,0.892968 0.07441,0.520899 0.07441,1.339453 H 30.16604 v -1.190625 q 0,-0.173632 -0.0248,-0.446484 0,-0.297656 -0.07441,-0.545703 -0.07441,-0.248047 -0.248047,-0.42168 -0.148828,-0.198437 -0.446485,-0.198437 -0.322461,0 -0.620117,0.421679 -0.272851,0.42168 -0.570508,0.992188 -0.272851,0.570508 -0.570507,1.190625 -0.297657,0.595312 -0.644922,0.992187 l 0.248047,19.595703 z M 13.398075,34.108108 h 9.177734 V 33.16553 q 0,-2.530078 1.190625,-3.571875 1.240234,-1.091406 2.877344,-1.091406 1.240234,0 2.182812,0.669726 0.917774,0.669727 1.339453,1.463477 0.396875,0.768945 0.396875,2.38125 v 1.091406 h 9.177735 Q 39.51741,30.833889 38.574832,28.82471 37.632254,26.81553 35.920731,25.104007 34.234012,23.417288 31.679129,22.325882 29.223465,21.25928 26.470145,21.25928 q -5.035351,0 -8.805664,3.695899 -3.745508,3.671093 -4.266406,9.152929 z m 9.971484,-1.116211 v 1.116211 h 6.399609 v -1.091406 q 0,-2.058789 -0.967382,-2.877344 -0.967383,-0.818554 -2.207618,-0.818554 -1.265039,0 -2.282031,0.868164 -0.942578,0.843359 -0.942578,2.802929 z m 3.323828,4.787305 q 0.322461,-0.545703 0.520899,-0.967383 0.198437,-0.446484 0.347265,-0.768945 0.173633,-0.347266 0.347266,-0.620117 0.173633,-0.272852 0.42168,-0.520899 h -3.522266 q 0.223242,0.07441 0.42168,0.42168 0.198437,0.322461 0.396875,0.768945 0.198437,0.42168 0.421679,0.892969 0.223243,0.471289 0.446485,0.79375 z"
         style="stroke-width:0.26458332"
         id="path11776"
         inkscape:connector-curvature="0" />
    </g>
  </g>
</svg>
