<?xml version="1.0" encoding="UTF-8" standalone="no"?>
<!-- Created with Inkscape (http://www.inkscape.org/) -->

<svg
   xmlns:dc="http://purl.org/dc/elements/1.1/"
   xmlns:cc="http://creativecommons.org/ns#"
   xmlns:rdf="http://www.w3.org/1999/02/22-rdf-syntax-ns#"
   xmlns:svg="http://www.w3.org/2000/svg"
   xmlns="http://www.w3.org/2000/svg"
   xmlns:sodipodi="http://sodipodi.sourceforge.net/DTD/sodipodi-0.dtd"
   xmlns:inkscape="http://www.inkscape.org/namespaces/inkscape"
   width="10.095508mm"
   height="37.579102mm"
   viewBox="0 0 10.095508 37.579102"
   version="1.1"
   id="svg11785"
   inkscape:version="0.92.4 (5da689c313, 2019-01-14)"
   sodipodi:docname="S37.svg">
  <defs
     id="defs11779" />
  <sodipodi:namedview
     id="base"
     pagecolor="#ffffff"
     bordercolor="#666666"
     borderopacity="1.0"
     inkscape:pageopacity="0.0"
     inkscape:pageshadow="2"
     inkscape:zoom="0.35"
     inkscape:cx="-334.6875"
     inkscape:cy="-382.85715"
     inkscape:document-units="mm"
     inkscape:current-layer="layer1"
     showgrid="false"
     fit-margin-top="0"
     fit-margin-left="0"
     fit-margin-right="0"
     fit-margin-bottom="0"
     inkscape:window-width="1920"
     inkscape:window-height="1017"
     inkscape:window-x="-8"
     inkscape:window-y="-8"
     inkscape:window-maximized="1" />
  <metadata
     id="metadata11782">
    <rdf:RDF>
      <cc:Work
         rdf:about="">
        <dc:format>image/svg+xml</dc:format>
        <dc:type
           rdf:resource="http://purl.org/dc/dcmitype/StillImage" />
        <dc:title></dc:title>
      </cc:Work>
    </rdf:RDF>
  </metadata>
  <g
     inkscape:label="Layer 1"
     inkscape:groupmode="layer"
     id="layer1"
     transform="translate(-1.2402344,-9.9566122)">
    <g
       aria-label="𓋽"
       style="font-style:normal;font-variant:normal;font-weight:normal;font-stretch:normal;font-size:50.79999924px;line-height:1.25;font-family:sans-serif;-inkscape-font-specification:'sans-serif, Normal';font-variant-ligatures:normal;font-variant-caps:normal;font-variant-numeric:normal;font-feature-settings:normal;text-align:start;letter-spacing:0px;word-spacing:0px;writing-mode:lr-tb;text-anchor:start;fill:#000000;fill-opacity:1;stroke:none;stroke-width:0.26458332"
       id="text12332">
      <path
         d="m 6.9205077,23.103096 v 1.612305 q 0.6201172,0 1.1162109,0.04961 0.4960938,0.04961 0.9673828,0.248047 0.4960938,0.198438 1.0417966,0.595313 0.570508,0.396875 1.289844,1.091406 v 1.364258 Q 10.988476,27.716768 10.641211,27.394307 10.343555,27.121456 9.9714842,26.848604 9.6242186,26.550948 9.351367,26.40212 9.1777342,26.923018 8.9048827,27.468721 8.6568358,28.014424 8.3343749,28.510518 8.0119139,28.981807 7.6646483,29.378682 7.3173827,29.775557 6.9453124,29.998799 l 0.099219,17.536914 H 5.8042968 L 5.9035155,29.998799 Q 5.5562499,29.874776 5.1345702,29.403487 4.7128906,28.932198 4.2912109,28.386495 3.8943359,27.815987 3.5718749,27.295088 3.2742187,26.749385 3.1501953,26.501339 l -1.6371094,1.562695 v -1.364258 q 0.5953125,-0.620117 1.1162109,-0.992187 0.5208985,-0.396875 1.0169922,-0.620118 0.5208984,-0.223242 1.0666016,-0.297656 0.5457031,-0.07441 1.2154296,-0.07441 v -1.661914 q -0.2232422,0 -0.5208984,-0.09922 Q 5.1097655,22.830245 4.836914,22.681417 4.5144531,22.507784 4.1671874,22.284542 L 4.0183593,21.838057 v -3.621484 q 0,-0.322461 -0.049609,-0.768945 Q 3.9439453,17.001143 3.8695312,16.554659 3.7951171,16.08337 3.6710937,15.66169 3.5718749,15.215206 3.4230468,14.892745 2.8773437,13.677315 2.0339843,12.933175 1.2402344,12.213839 1.2402344,11.69294 q 0,-0.694531 0.6697265,-1.215429 0.6697266,-0.5208988 1.9595703,-0.5208988 2.0091796,0 3.0261718,1.0417968 0.9921875,1.041797 1.5626953,2.827734 0.5208984,1.761133 0.5208984,4.960938 0,0.446484 -0.024805,0.992187 0,0.520899 0,1.016992 -0.024805,0.570508 -0.024805,1.116211 l -0.1240235,0.223243 -0.8185546,0.768945 q -0.2232422,0.04961 -0.4464844,0.09922 -0.1984375,0.04961 -0.3720703,0.07441 -0.1736328,0.0248 -0.2480469,0.0248 z m -0.024805,-0.79375 q 0.4464844,0 0.6449219,-0.148828 0.1984375,-0.148828 0.5953125,-0.446484 v -3.224609 q 0,-3.745508 -0.9425781,-5.779493 -0.9177735,-2.033984 -3.0757812,-2.033984 -0.5953125,0 -0.9921875,0.124024 -0.396875,0.124023 -0.6449219,0.297656 -0.2232422,0.173633 -0.3224609,0.37207 -0.099219,0.173633 -0.1240235,0.272852 0,0.148828 0.1736329,0.297656 0.5208984,0.37207 0.9177734,0.917773 0.4216797,0.520899 0.8433593,1.314649 0.4464844,0.868164 0.6697266,2.033984 0.1736328,0.942578 0.1736328,2.00918 v 3.373437 q 0.1736328,0.198438 0.4464844,0.42168 0.2976562,0.198437 0.6449218,0.198437 z m -3.1005859,3.621485 q 0.1984375,0.396875 0.4216797,0.868164 0.2480469,0.471289 0.5208984,0.917773 0.2976563,0.446485 0.6201172,0.84336 0.322461,0.396875 0.6945313,0.644921 H 6.796484 q 0.6945312,-0.496093 1.1658203,-1.413867 0.471289,-0.942578 0.7441406,-1.95957 -0.322461,-0.07441 -0.6697266,-0.148828 -0.3224609,-0.04961 -0.7193359,-0.09922 -0.396875,-0.07441 -0.8929687,-0.07441 -0.6201172,0 -1.0914063,0.07441 -0.471289,0.07441 -0.8185546,0.148828 -0.396875,0.09922 -0.719336,0.198439 z"
         style="stroke-width:0.26458332"
         id="path12334"
         inkscape:connector-curvature="0" />
    </g>
  </g>
</svg>
