<?xml version="1.0" encoding="UTF-8" standalone="no"?>
<!-- Created with Inkscape (http://www.inkscape.org/) -->

<svg
   xmlns:dc="http://purl.org/dc/elements/1.1/"
   xmlns:cc="http://creativecommons.org/ns#"
   xmlns:rdf="http://www.w3.org/1999/02/22-rdf-syntax-ns#"
   xmlns:svg="http://www.w3.org/2000/svg"
   xmlns="http://www.w3.org/2000/svg"
   xmlns:sodipodi="http://sodipodi.sourceforge.net/DTD/sodipodi-0.dtd"
   xmlns:inkscape="http://www.inkscape.org/namespaces/inkscape"
   width="37.901562mm"
   height="38.000782mm"
   viewBox="0 0 37.901562 38.000782"
   version="1.1"
   id="svg24339"
   inkscape:version="0.92.4 (5da689c313, 2019-01-14)"
   sodipodi:docname="S4.svg">
  <defs
     id="defs24333" />
  <sodipodi:namedview
     id="base"
     pagecolor="#ffffff"
     bordercolor="#666666"
     borderopacity="1.0"
     inkscape:pageopacity="0.0"
     inkscape:pageshadow="2"
     inkscape:zoom="0.35"
     inkscape:cx="-346.11607"
     inkscape:cy="-421.26341"
     inkscape:document-units="mm"
     inkscape:current-layer="layer1"
     showgrid="false"
     fit-margin-top="0"
     fit-margin-left="0"
     fit-margin-right="0"
     fit-margin-bottom="0"
     inkscape:window-width="1920"
     inkscape:window-height="1017"
     inkscape:window-x="-8"
     inkscape:window-y="-8"
     inkscape:window-maximized="1" />
  <metadata
     id="metadata24336">
    <rdf:RDF>
      <cc:Work
         rdf:about="">
        <dc:format>image/svg+xml</dc:format>
        <dc:type
           rdf:resource="http://purl.org/dc/dcmitype/StillImage" />
        <dc:title></dc:title>
      </cc:Work>
    </rdf:RDF>
  </metadata>
  <g
     inkscape:label="Layer 1"
     inkscape:groupmode="layer"
     id="layer1"
     transform="translate(-4.2640436,0.62672368)">
    <g
       aria-label="𓋕"
       style="font-style:normal;font-variant:normal;font-weight:normal;font-stretch:normal;font-size:50.79999924px;line-height:1.25;font-family:sans-serif;-inkscape-font-specification:'sans-serif, Normal';font-variant-ligatures:normal;font-variant-caps:normal;font-variant-numeric:normal;font-feature-settings:normal;text-align:start;letter-spacing:0px;word-spacing:0px;writing-mode:lr-tb;text-anchor:start;fill:#000000;fill-opacity:1;stroke:none;stroke-width:0.26458332"
       id="text24886">
      <path
         d="m 42.066387,28.890854 q -2.083594,2.232422 -4.365625,3.844727 -2.257227,1.612304 -4.663281,2.654101 -2.406055,1.016992 -4.936133,1.513086 -2.530078,0.471289 -5.13457,0.471289 -4.911328,0 -9.450586,-1.785937 Q 8.9769341,33.777377 4.2640436,28.940463 L 4.5120904,28.245932 H 15.004473 q 0,-2.530078 -0.37207,-4.936133 -0.347266,-2.430859 -0.84336,-4.911328 l 0.372071,-0.471289 h 11.162109 q -5.655469,-1.661914 -8.830469,-4.911328 -3.12539,-3.2246091 -3.12539,-6.5732418 0,-0.8185547 0.248047,-1.5626953 0.248046,-0.7441407 0.694531,-1.3146485 0.471289,-0.5705078 1.116211,-0.9177734 0.669726,-0.3472656 1.488281,-0.3472656 0.595312,0 1.116211,0.1984375 0.520898,0.1984375 0.892969,0.6201172 0.396875,0.396875 0.620117,1.0169921 0.248047,0.6201172 0.248047,1.4882813 0,0.9425781 -0.545703,1.4634765 -0.520899,0.5208984 -1.364258,0.5208984 -0.620117,0 -1.165821,-0.3224609 -0.545703,-0.3224609 -0.719335,-0.868164 L 15.798223,5.822495 q 0.173633,-0.099219 0.347266,-0.1736328 0.173632,-0.074414 0.37207,-0.1488282 0.223242,0.322461 0.520898,0.5953125 0.322461,0.2480469 0.644922,0.2728516 0.347266,0 0.595313,-0.1736328 0.272851,-0.1736328 0.272851,-0.7441406 0,-1.0417969 -0.545703,-1.4634766 -0.520898,-0.4464843 -1.190625,-0.4464843 -2.207617,0 -2.207617,2.7285155 0,1.4882813 0.644922,2.8773437 0.669727,1.364258 1.736328,2.554883 1.066602,1.16582 2.406055,2.133203 1.364257,0.942578 2.75332,1.5875 3.646289,1.686719 7.88789,2.356445 l 10.219532,-18.23144487 0.446484,-0.17363281 1.190625,0.396875 0.272851,0.49609374 L 29.391192,28.245932 h 12.327929 z m -1.265039,0.148828 H 5.4794732 q 3.646289,3.819922 8.0367188,5.680273 4.390429,1.860352 9.425781,1.860352 4.613672,0 9.227344,-1.711523 4.638476,-1.761133 8.632031,-5.829102 z M 14.657207,18.720932 q 0.496094,2.406055 0.79375,4.7625 0.297657,2.356445 0.347266,4.7625 h 12.749609 l 12.7,-27.85566351 L 40.776543,0.21663568 30.755449,18.100815 29.415996,18.720932 Z"
         style="stroke-width:0.26458332"
         id="path24888"
         inkscape:connector-curvature="0" />
    </g>
  </g>
</svg>
