<?xml version="1.0" encoding="UTF-8" standalone="no"?>
<!-- Created with Inkscape (http://www.inkscape.org/) -->

<svg
   xmlns:dc="http://purl.org/dc/elements/1.1/"
   xmlns:cc="http://creativecommons.org/ns#"
   xmlns:rdf="http://www.w3.org/1999/02/22-rdf-syntax-ns#"
   xmlns:svg="http://www.w3.org/2000/svg"
   xmlns="http://www.w3.org/2000/svg"
   xmlns:sodipodi="http://sodipodi.sourceforge.net/DTD/sodipodi-0.dtd"
   xmlns:inkscape="http://www.inkscape.org/namespaces/inkscape"
   width="17.784962mm"
   height="38.025585mm"
   viewBox="0 0 17.784962 38.025585"
   version="1.1"
   id="svg15133"
   inkscape:version="0.92.4 (5da689c313, 2019-01-14)"
   sodipodi:docname="S44.svg">
  <defs
     id="defs15127" />
  <sodipodi:namedview
     id="base"
     pagecolor="#ffffff"
     bordercolor="#666666"
     borderopacity="1.0"
     inkscape:pageopacity="0.0"
     inkscape:pageshadow="2"
     inkscape:zoom="0.35"
     inkscape:cx="-388.9732"
     inkscape:cy="-341.35715"
     inkscape:document-units="mm"
     inkscape:current-layer="layer1"
     showgrid="false"
     fit-margin-top="0"
     fit-margin-left="0"
     fit-margin-right="0"
     fit-margin-bottom="0"
     inkscape:window-width="1920"
     inkscape:window-height="1017"
     inkscape:window-x="-8"
     inkscape:window-y="-8"
     inkscape:window-maximized="1" />
  <metadata
     id="metadata15130">
    <rdf:RDF>
      <cc:Work
         rdf:about="">
        <dc:format>image/svg+xml</dc:format>
        <dc:type
           rdf:resource="http://purl.org/dc/dcmitype/StillImage" />
        <dc:title></dc:title>
      </cc:Work>
    </rdf:RDF>
  </metadata>
  <g
     inkscape:label="Layer 1"
     inkscape:groupmode="layer"
     id="layer1"
     transform="translate(-15.603327,-20.490335)">
    <g
       aria-label="𓌄"
       style="font-style:normal;font-variant:normal;font-weight:normal;font-stretch:normal;font-size:50.79999924px;line-height:1.25;font-family:sans-serif;-inkscape-font-specification:'sans-serif, Normal';font-variant-ligatures:normal;font-variant-caps:normal;font-variant-numeric:normal;font-feature-settings:normal;text-align:start;letter-spacing:0px;word-spacing:0px;writing-mode:lr-tb;text-anchor:start;fill:#000000;fill-opacity:1;stroke:none;stroke-width:0.26458332"
       id="text15680">
      <path
         d="m 29.345125,32.123733 4.043164,8.904883 Q 33.189852,40.780569 32.917,40.557327 32.693758,40.383694 32.396102,40.234866 32.12325,40.086038 31.775985,40.086038 q -0.322461,0 -0.496094,0.148828 -0.173633,0.124023 -0.248047,0.322461 -0.09922,0.248047 -0.09922,0.471289 -0.0248,0.148828 0,0.297656 -0.124023,-0.223242 -0.248047,-0.396875 -0.124023,-0.148828 -0.272851,-0.272851 -0.148828,-0.148829 -0.347266,-0.148829 -0.272851,0.07441 -0.471289,0.223243 -0.198437,0.124023 -0.322461,0.297656 -0.124023,0.173633 -0.173633,0.347265 -0.04961,0.173633 -0.09922,0.347266 -0.04961,0.198438 -0.04961,0.396875 l -0.620117,-9.599414 -0.768945,-3.795117 -6.77168,8.582422 v 9.525 q 0,1.066601 -0.04961,2.480468 -0.0248,1.413867 -0.148828,2.852539 -0.09922,1.413868 -0.297656,2.678907 -0.173633,1.240234 -0.446485,1.984375 -0.520898,1.389062 -1.513086,1.686718 -0.644922,-0.07441 -1.091406,-0.570508 -0.42168,-0.520898 -0.694531,-1.314648 -0.545703,-1.612305 -0.719336,-5.481836 -0.04961,-1.190625 -0.09922,-2.654101 -0.04961,-1.488282 -0.07441,-3.100586 -0.02481,-1.612305 -0.04961,-3.22461 0,-1.637109 0,-3.12539 0,-3.497461 0.09922,-6.895703 0.124024,-3.423047 0.545704,-6.920508 0.248046,-1.95957 0.471289,-2.852539 0.223242,-0.892969 0.496093,-1.21543 0.545703,-0.669726 1.016993,-0.669726 0.496093,0 1.016992,0.669726 0.520898,0.595313 0.942578,4.291211 0.09922,0.892969 0.173633,1.909961 0.09922,1.016992 0.173632,2.232422 0.07441,1.190625 0.124024,2.654102 0.04961,1.463476 0.09922,3.274218 l 7.069335,-8.458398 z m -9.376171,6.325195 q 0,-4.489648 -0.173633,-8.160742 -0.173633,-3.695898 -0.694531,-6.870898 -0.09922,-0.595313 -0.198438,-0.967383 -0.09922,-0.37207 -0.198437,-0.595312 -0.09922,-0.248047 -0.223243,-0.372071 -0.09922,-0.124023 -0.248046,-0.198437 -0.322461,0.124023 -0.595313,0.818555 -0.272852,0.694531 -0.496094,2.108398 -0.322461,1.95957 -0.520898,5.382617 -0.173633,3.398242 -0.173633,8.508008 v 7.590234 q 0,1.463477 0,2.356445 0.0248,0.868164 0.04961,1.488282 0.02481,0.595312 0.04961,1.11621 0.0248,0.496094 0.07441,1.21543 0.04961,0.992188 0.173633,2.00918 0.124023,0.992187 0.347265,1.835547 0.198438,0.719336 0.471289,1.265039 0.272852,0.545703 0.620118,0.74414 0.32246,-0.248047 0.545703,-0.74414 0.248047,-0.520899 0.446484,-1.190625 0.223242,-0.84336 0.37207,-1.860352 0.148828,-1.016992 0.223242,-1.95957 0.09922,-0.967383 0.124024,-1.711524 0.02481,-0.768945 0.02481,-1.141015 z m 9.599414,1.389063 q 0.0248,-0.02481 0.09922,-0.04961 0.148828,-0.04961 0.322461,-0.04961 0.372071,0 0.694531,0.248047 0.297657,-0.694531 0.992188,-0.694531 0.02481,0 0.04961,0.0248 0.02481,0 0.04961,0 h 0.04961 l -2.703711,-5.829101 z"
         style="stroke-width:0.26458332"
         id="path15682"
         inkscape:connector-curvature="0" />
    </g>
  </g>
</svg>
