<?xml version="1.0" encoding="UTF-8" standalone="no"?>
<!-- Created with Inkscape (http://www.inkscape.org/) -->

<svg
   xmlns:dc="http://purl.org/dc/elements/1.1/"
   xmlns:cc="http://creativecommons.org/ns#"
   xmlns:rdf="http://www.w3.org/1999/02/22-rdf-syntax-ns#"
   xmlns:svg="http://www.w3.org/2000/svg"
   xmlns="http://www.w3.org/2000/svg"
   xmlns:sodipodi="http://sodipodi.sourceforge.net/DTD/sodipodi-0.dtd"
   xmlns:inkscape="http://www.inkscape.org/namespaces/inkscape"
   width="24.804688mm"
   height="31.204296mm"
   viewBox="0 0 24.804688 31.204296"
   version="1.1"
   id="svg15691"
   inkscape:version="0.92.4 (5da689c313, 2019-01-14)"
   sodipodi:docname="S45.svg">
  <defs
     id="defs15685" />
  <sodipodi:namedview
     id="base"
     pagecolor="#ffffff"
     bordercolor="#666666"
     borderopacity="1.0"
     inkscape:pageopacity="0.0"
     inkscape:pageshadow="2"
     inkscape:zoom="0.35"
     inkscape:cx="-368.97321"
     inkscape:cy="-362.85716"
     inkscape:document-units="mm"
     inkscape:current-layer="layer1"
     showgrid="false"
     fit-margin-top="0"
     fit-margin-left="0"
     fit-margin-right="0"
     fit-margin-bottom="0"
     inkscape:window-width="1920"
     inkscape:window-height="1017"
     inkscape:window-x="-8"
     inkscape:window-y="-8"
     inkscape:window-maximized="1" />
  <metadata
     id="metadata15688">
    <rdf:RDF>
      <cc:Work
         rdf:about="">
        <dc:format>image/svg+xml</dc:format>
        <dc:type
           rdf:resource="http://purl.org/dc/dcmitype/StillImage" />
        <dc:title></dc:title>
      </cc:Work>
    </rdf:RDF>
  </metadata>
  <g
     inkscape:label="Layer 1"
     inkscape:groupmode="layer"
     id="layer1"
     transform="translate(-10.311663,-21.623081)">
    <g
       aria-label="𓌅"
       style="font-style:normal;font-variant:normal;font-weight:normal;font-stretch:normal;font-size:50.79999924px;line-height:1.25;font-family:sans-serif;-inkscape-font-specification:'sans-serif, Normal';font-variant-ligatures:normal;font-variant-caps:normal;font-variant-numeric:normal;font-feature-settings:normal;text-align:start;letter-spacing:0px;word-spacing:0px;writing-mode:lr-tb;text-anchor:start;fill:#000000;fill-opacity:1;stroke:none;stroke-width:0.26458332"
       id="text16238">
      <path
         d="m 35.11635,38.415854 q -0.297656,-0.124023 -0.595313,-0.223242 -0.272851,-0.07441 -0.595312,-0.148828 -0.322461,-0.07441 -0.620117,-0.07441 -0.248047,0 -0.396875,0.124023 -0.124024,0.124024 -0.198438,0.297656 -0.04961,0.173633 -0.07441,0.347266 0,0.173633 0,0.248047 0,0.198437 0,0.322461 0.02481,0.124023 0.04961,0.223242 0.02481,0.09922 0.07442,0.173633 Q 32.561477,39.43285 32.31343,39.209608 32.114993,39.011171 31.842141,38.862342 31.56929,38.68871 31.296438,38.68871 q -0.272852,0 -0.545703,0.248047 -0.248047,0.248046 -0.446485,0.595312 -0.173632,0.322461 -0.297656,0.694531 -0.09922,0.372071 -0.09922,0.595313 L 27.501311,29.213315 25.96342,24.401206 11.799944,52.827377 10.311663,52.430502 25.913811,21.623081 29.51049,28.419565 Z m -6.895703,-9.47539 2.009179,9.400976 q 0.07441,-0.09922 0.198438,-0.198437 0.09922,-0.07442 0.248047,-0.148829 0.173633,-0.07441 0.396875,-0.07441 0.198437,0 0.421679,0.07441 0.248047,0.07441 0.520899,0.272852 0,-0.124023 0.02481,-0.173633 0.124023,-0.496094 0.446484,-0.694531 0.322461,-0.198438 0.768945,-0.198438 0.09922,0 0.148828,0.02481 0.07441,0 0.124024,0 h 0.07441 L 28.76635,28.717221 Z"
         style="stroke-width:0.26458332"
         id="path16240"
         inkscape:connector-curvature="0" />
    </g>
  </g>
</svg>
