<?xml version="1.0" encoding="UTF-8" standalone="no"?>
<svg
   xmlns:dc="http://purl.org/dc/elements/1.1/"
   xmlns:cc="http://creativecommons.org/ns#"
   xmlns:rdf="http://www.w3.org/1999/02/22-rdf-syntax-ns#"
   xmlns:svg="http://www.w3.org/2000/svg"
   xmlns="http://www.w3.org/2000/svg"
   xmlns:sodipodi="http://sodipodi.sourceforge.net/DTD/sodipodi-0.dtd"
   xmlns:inkscape="http://www.inkscape.org/namespaces/inkscape"
   version="1.0"
   width="194.56639pt"
   height="312.92227pt"
   viewBox="0 0 194.56639 312.92227"
   preserveAspectRatio="xMidYMid meet"
   id="svg8"
   sodipodi:docname="S46.svg"
   inkscape:version="0.92.4 (5da689c313, 2019-01-14)">
  <defs
     id="defs12" />
  <sodipodi:namedview
     pagecolor="#ffffff"
     bordercolor="#666666"
     borderopacity="1"
     objecttolerance="10"
     gridtolerance="10"
     guidetolerance="10"
     inkscape:pageopacity="0"
     inkscape:pageshadow="2"
     inkscape:window-width="1920"
     inkscape:window-height="1017"
     id="namedview10"
     showgrid="false"
     fit-margin-top="0"
     fit-margin-left="0"
     fit-margin-right="0"
     fit-margin-bottom="0"
     inkscape:zoom="0.48360656"
     inkscape:cx="-145.37706"
     inkscape:cy="226.76162"
     inkscape:window-x="-8"
     inkscape:window-y="-8"
     inkscape:window-maximized="1"
     inkscape:current-layer="svg8" />
  <metadata
     id="metadata2">
Created by potrace 1.10, written by Peter Selinger 2001-2011
<rdf:RDF>
  <cc:Work
     rdf:about="">
    <dc:format>image/svg+xml</dc:format>
    <dc:type
       rdf:resource="http://purl.org/dc/dcmitype/StillImage" />
    <dc:title></dc:title>
  </cc:Work>
</rdf:RDF>
</metadata>
  <g
     transform="matrix(0.1,0,0,-0.1,-12.270084,325.85104)"
     id="g6"
     style="fill:#000000;stroke:none">
    <path
       d="m 1020,3244 c -25,-7 -55,-14 -68,-14 -15,0 -41,-18 -70,-48 -50,-52 -49,-47 -97,-287 -7,-38 -21,-104 -29,-145 -9,-41 -16,-87 -16,-101 0,-14 -5,-40 -11,-58 -13,-37 3,-252 27,-359 8,-35 14,-75 14,-89 0,-32 80,-113 111,-113 38,0 111,-23 116,-36 3,-7 -5,-27 -17,-44 l -21,-30 H 809 c -125,0 -151,2 -156,15 -3,9 2,23 10,33 38,42 45,157 17,256 -18,60 -93,127 -166,149 -76,22 -98,21 -169,-3 -71,-25 -117,-59 -153,-113 -25,-39 -27,-50 -27,-148 0,-88 3,-110 17,-126 27,-30 22,-52 -16,-68 -60,-25 -57,-82 5,-104 21,-7 150,-11 375,-11 229,0 345,-3 349,-11 4,-5 -10,-45 -30,-87 -52,-110 -60,-130 -79,-194 -9,-32 -23,-82 -31,-110 -37,-127 -34,-314 6,-366 46,-60 89,-81 184,-89 42,-3 78,-10 81,-15 3,-4 5,-170 4,-368 0,-197 2,-371 6,-386 13,-51 108,-62 131,-14 4,8 10,186 13,395 l 5,380 77,10 c 43,6 83,16 90,22 6,7 18,13 24,13 18,0 80,80 89,115 13,46 11,213 -2,275 -29,135 -45,182 -110,317 -25,51 -42,97 -38,102 4,8 117,11 342,11 348,0 397,5 408,41 11,32 -6,67 -36,78 -32,11 -37,35 -15,66 23,33 35,139 22,198 -22,102 -73,155 -189,192 -61,19 -87,19 -161,-2 -69,-21 -143,-85 -172,-149 -26,-59 -24,-177 4,-233 36,-73 39,-71 -121,-71 -154,0 -171,5 -182,52 -8,31 9,44 75,54 31,5 54,18 90,54 58,56 71,96 96,288 18,141 14,194 -32,437 -60,319 -95,404 -172,421 -15,3 -52,12 -83,20 -68,17 -110,17 -169,-2 z m 203,-146 c 22,-12 57,-83 57,-118 0,-14 6,-56 14,-95 42,-201 50,-272 49,-445 0,-150 -4,-183 -21,-230 l -20,-55 -64,-6 c -158,-16 -325,-6 -339,21 -38,75 -53,361 -25,495 24,115 37,187 45,251 5,34 14,70 20,82 6,11 11,31 11,44 0,35 21,58 60,68 41,11 187,2 213,-12 z M 464,2248 c 59,-17 89,-44 103,-91 16,-55 1,-105 -44,-151 -58,-58 -124,-56 -194,4 -43,37 -44,39 -44,99 1,53 4,64 30,91 31,33 70,57 94,59 7,1 32,-4 55,-11 z m 1347,1 c 19,-6 49,-27 67,-47 29,-32 32,-41 32,-97 0,-57 -3,-64 -35,-97 -61,-60 -139,-60 -199,0 -33,32 -36,40 -36,94 0,49 5,66 26,94 27,35 66,61 95,63 9,1 31,-4 50,-10 z m -771,-845 c 0,-217 -3,-310 -11,-320 -7,-8 -30,-14 -55,-14 -36,0 -51,6 -82,34 l -37,34 1,85 c 0,84 21,183 50,240 8,16 14,33 14,38 0,10 55,135 71,159 5,8 14,25 19,38 23,54 29,0 30,-294 z m 170,275 c 4,-8 15,-32 25,-54 9,-22 23,-53 30,-70 7,-16 20,-50 28,-75 8,-25 20,-61 26,-80 28,-80 42,-193 30,-242 -14,-61 -57,-91 -121,-86 l -43,3 -3,313 c -2,240 1,313 10,310 6,-2 15,-11 18,-19 z"
       id="path4"
       inkscape:connector-curvature="0" />
  </g>
</svg>
