<?xml version="1.0" encoding="UTF-8" standalone="no"?>
<svg
   xmlns:dc="http://purl.org/dc/elements/1.1/"
   xmlns:cc="http://creativecommons.org/ns#"
   xmlns:rdf="http://www.w3.org/1999/02/22-rdf-syntax-ns#"
   xmlns:svg="http://www.w3.org/2000/svg"
   xmlns="http://www.w3.org/2000/svg"
   xmlns:sodipodi="http://sodipodi.sourceforge.net/DTD/sodipodi-0.dtd"
   xmlns:inkscape="http://www.inkscape.org/namespaces/inkscape"
   version="1.0"
   width="318.62402pt"
   height="311.0784pt"
   viewBox="0 0 318.62402 311.0784"
   preserveAspectRatio="xMidYMid meet"
   id="svg8"
   sodipodi:docname="S48.svg"
   inkscape:version="0.92.4 (5da689c313, 2019-01-14)">
  <defs
     id="defs12" />
  <sodipodi:namedview
     pagecolor="#ffffff"
     bordercolor="#666666"
     borderopacity="1"
     objecttolerance="10"
     gridtolerance="10"
     guidetolerance="10"
     inkscape:pageopacity="0"
     inkscape:pageshadow="2"
     inkscape:window-width="1920"
     inkscape:window-height="1017"
     id="namedview10"
     showgrid="false"
     fit-margin-top="0"
     fit-margin-left="0"
     fit-margin-right="0"
     fit-margin-bottom="0"
     inkscape:zoom="0.96721312"
     inkscape:cx="381.4681"
     inkscape:cy="242.88159"
     inkscape:window-x="-8"
     inkscape:window-y="-8"
     inkscape:window-maximized="1"
     inkscape:current-layer="svg8" />
  <metadata
     id="metadata2">
Created by potrace 1.10, written by Peter Selinger 2001-2011
<rdf:RDF>
  <cc:Work
     rdf:about="">
    <dc:format>image/svg+xml</dc:format>
    <dc:type
       rdf:resource="http://purl.org/dc/dcmitype/StillImage" />
    <dc:title></dc:title>
  </cc:Work>
</rdf:RDF>
</metadata>
  <g
     transform="matrix(0.1,0,0,-0.1,358.59438,390.90749)"
     id="g6"
     style="fill:#000000;stroke:none">
    <path
       d="m 1425,3351 c -44,-3 -96,-12 -115,-18 -19,-6 -62,-19 -95,-29 -124,-36 -287,-129 -374,-215 -93,-90 -170,-195 -226,-306 -24,-46 -39,-57 -64,-43 -26,13 -28,59 -5,121 11,30 16,81 17,164 1,107 -2,125 -22,162 -65,121 -202,171 -300,108 -53,-33 -71,-61 -71,-113 0,-53 23,-85 82,-115 41,-21 43,-24 40,-62 -1,-22 -10,-73 -19,-114 -37,-174 18,-318 151,-388 l 51,-28 h 280 c 183,0 289,-4 305,-11 14,-6 52,-19 85,-29 33,-9 76,-23 95,-30 19,-7 43,-16 53,-19 15,-5 17,-20 17,-128 0,-123 0,-124 31,-161 47,-57 98,-51 214,24 53,34 109,59 135,59 18,0 42,-16 78,-53 46,-46 52,-58 52,-93 0,-33 -7,-48 -34,-76 -19,-20 -56,-46 -83,-58 -151,-70 -219,-108 -230,-131 -46,-95 -44,-65 -41,-744 4,-850 -18,-788 290,-793 190,-3 190,-3 229,22 48,32 71,74 82,151 4,33 11,230 15,437 l 7,377 29,30 c 17,17 35,31 41,31 13,0 144,67 160,81 5,5 21,9 35,9 27,0 56,-26 131,-120 20,-25 49,-59 65,-77 66,-73 140,-158 159,-183 46,-60 353,-386 384,-407 46,-31 102,-53 136,-53 28,0 44,11 109,81 124,134 144,209 73,276 -35,33 -269,208 -427,318 -55,39 -129,91 -165,117 -35,27 -67,48 -70,48 -6,0 -169,119 -197,144 -10,9 -18,19 -18,24 1,4 20,28 43,54 38,43 69,95 102,173 7,17 20,47 29,68 9,21 16,46 16,56 0,10 8,36 17,57 14,33 17,72 17,244 -1,177 -4,215 -22,280 -30,106 -49,165 -60,186 -5,11 -18,37 -28,59 -130,278 -378,499 -659,588 -139,44 -350,63 -530,48 z m 322,-136 c 102,-21 161,-34 198,-44 57,-16 183,-82 241,-126 51,-39 163,-150 201,-200 37,-48 117,-183 125,-210 4,-11 16,-45 28,-75 12,-30 26,-80 31,-111 4,-31 13,-68 19,-83 5,-15 10,-82 10,-149 0,-100 -5,-138 -26,-212 -14,-49 -29,-106 -33,-125 -9,-35 -25,-68 -61,-125 -11,-16 -23,-37 -27,-45 -26,-60 -190,-225 -243,-247 -81,-34 -206,-97 -220,-112 -23,-24 -50,-88 -50,-119 0,-15 -7,-63 -15,-107 -10,-58 -14,-165 -15,-390 0,-229 -4,-317 -13,-335 -13,-25 -13,-25 -162,-25 h -150 l -7,50 c -26,179 -39,1032 -18,1174 5,36 17,76 27,89 10,13 59,46 108,73 50,26 99,53 110,59 51,28 66,38 86,61 43,49 52,81 51,166 -1,82 -1,83 -46,142 -62,80 -119,112 -206,113 -59,1 -73,-3 -154,-46 -49,-26 -93,-43 -97,-39 -4,4 -4,40 1,80 6,49 6,83 -2,105 -11,35 -74,108 -93,108 -6,0 -16,5 -22,11 -15,15 -99,43 -193,64 -55,12 -120,16 -246,16 l -172,-1 -6,34 c -7,39 1,83 19,106 6,8 15,22 19,30 40,87 198,248 311,317 201,122 469,172 692,128 z m 885,-1942 c 2,-5 17,-18 34,-30 77,-53 187,-129 202,-138 18,-11 220,-159 239,-175 7,-6 34,-25 60,-42 50,-33 103,-83 103,-98 0,-7 -11,-22 -70,-92 -8,-10 -21,-18 -28,-18 -16,0 -126,83 -144,109 -8,11 -65,74 -128,142 -135,144 -121,128 -190,209 -30,36 -67,78 -82,94 -15,17 -28,33 -28,38 0,10 27,11 32,1 z"
       id="path4"
       inkscape:connector-curvature="0" />
  </g>
  <g
     aria-label="𓋙"
     transform="matrix(1.8914345,-0.56796468,0.56796468,1.8914345,2919.8505,-955.31404)"
     style="font-style:normal;font-variant:normal;font-weight:normal;font-stretch:normal;font-size:192px;line-height:1.25;font-family:sans-serif;-inkscape-font-specification:sans-serif;font-variant-ligatures:normal;font-variant-caps:normal;font-variant-numeric:normal;font-feature-settings:normal;text-align:start;letter-spacing:0px;word-spacing:0px;writing-mode:lr-tb;text-anchor:start;fill:#ff6600;fill-opacity:1;stroke:none"
     id="flowRoot816">
    <path
       id="path824"
       style="fill:#000000;stroke-width:0.621324"
       d="m -1554.3983,53.278947 c -0.7184,-0.194159 -1.4753,-0.291312 -2.2714,-0.291312 -1.5533,0 -2.5629,0.310668 -3.0289,0.931992 -0.4272,0.621324 -0.6411,1.203516 -0.6411,1.747175 0,0.660156 0.544,1.320414 1.6313,1.980571 1.0873,0.621324 1.6305,1.359412 1.6305,2.213732 l 0.1167,0.116346 c -0.4272,0.737822 -1.184,3.126164 -2.2713,7.16477 -1.0873,3.999773 -1.6312,6.892499 -1.6312,8.678806 0,2.524128 0.4852,4.368537 1.456,5.533519 0.9732,1.085522 2.2566,1.843009 3.8432,2.279064 0.2598,-0.332902 1.1837,-1.127223 1.3613,-1.381268 -0.017,-0.0093 -0.035,-0.01888 -0.052,-0.02818 -0.042,0.08025 -0.047,0.125841 -0.025,-0.01337 -0.3407,-0.183055 -0.7033,-0.370341 -1.1075,-0.564959 l -2.0971,-0.990132 c -0.5436,-0.660156 -0.9317,-1.417294 -1.1647,-2.271614 -0.233,-0.854321 -0.3498,-1.747428 -0.3498,-2.679414 10e-5,-1.048489 0.1168,-2.155116 0.3498,-3.320099 0.233,-1.203815 0.6211,-2.776992 1.1648,-4.71863 l 0.6408,-2.154831 c 0.233,-0.737823 0.3883,-1.30124 0.466,-1.68957 0.1165,-0.388327 0.2328,-0.737369 0.3493,-1.048031 l 0.6987,-2.155258 c 0.3883,-0.310662 0.7962,-0.5441 1.2234,-0.699431 0.4271,-0.155331 0.8936,-0.232578 1.3984,-0.232578 0.466,0 0.9707,0.05817 1.5143,0.174667 l 0.1164,2.95e-4 c 0.7378,0.854321 1.1066,1.82466 1.1066,2.911977 0,0.815488 -0.1942,1.689271 -0.5826,2.621257 -0.3883,0.893153 -0.7765,1.650437 -1.1648,2.271762 l -1.2813,1.922563 -2.0387,3.203165 c -1.5145,2.67946 -2.2718,4.563008 -2.2718,5.650325 0,1.126149 0.3884,2.000208 1.165,2.621533 0.5252,0.375093 1.1727,0.627312 1.9393,0.760859 0.088,-0.362276 0.2154,-0.714179 0.3279,-1.069401 0.035,-0.111307 0.05,-0.231148 0.1038,-0.334531 0.032,-0.06056 0.066,-0.119952 0.1,-0.179413 -0.3573,-0.05662 -0.6971,-0.148368 -1.0146,-0.284454 -0.5048,-0.271829 -0.7569,-0.776641 -0.7569,-1.514463 l -10e-5,-0.291165 c 0.1553,-1.359146 0.6797,-2.679424 1.5729,-3.960905 l 2.4461,-3.553374 c 0.7767,-1.242648 1.5146,-2.524242 2.2136,-3.844556 0.7377,-1.320313 1.1067,-2.659926 1.1067,-4.019073 0,-0.815487 -0.1747,-1.630942 -0.5241,-2.44643 -0.3107,-0.815487 -0.6795,-1.378608 -1.1067,-1.68927 -0.4272,-2.2523 -1.3013,-3.747348 -2.6216,-4.48517 -0.6407,-0.388327 -1.3204,-0.679334 -2.0387,-0.873492 z m -0.11,1.710806 c 0.6752,0.203905 1.217,0.526878 1.6247,0.9686 0.466,0.465993 0.8155,1.087141 1.0485,1.863796 -0.233,-0.03883 -0.466,-0.05832 -0.699,-0.05832 l -0.4081,1.59e-4 -1.0483,0.116353 c -0.5437,0.116498 -1.0289,0.291173 -1.4561,0.524169 -0.3107,-0.85432 -0.8929,-1.475472 -1.7472,-1.8638 -0.8155,-0.388327 -1.2234,-0.756991 -1.2234,-1.106486 0,-0.116498 0.039,-0.213513 0.1167,-0.291179 0.1942,-0.07767 0.3687,-0.175104 0.524,-0.291602 0.1942,-0.116498 0.3887,-0.17483 0.5828,-0.17483 l 2.388,0.232985 c 0.1019,0.02427 0.2009,0.05102 0.2974,0.08015 z m -1.2148,0.342099 c -0.1456,-0.04854 -0.267,-0.07275 -0.3641,-0.07275 -0.1553,0 -0.2331,0.07781 -0.2331,0.233145 0,0.116498 0.039,0.291315 0.1163,0.524312 0.078,0.232996 0.1747,0.349199 0.2912,0.349199 0.1942,0 0.4273,-0.271827 0.6991,-0.815486 -0.1941,-0.09708 -0.3638,-0.169877 -0.5094,-0.218417 z m 0.7697,28.152758 c -0.1738,0.09823 -0.2973,0.16139 -0.4003,0.209882 0.1048,0.02548 0.2083,0.05556 0.3102,0.09027 z"
       inkscape:connector-curvature="0" />
  </g>
  <path
     style="color:#000000;font-style:normal;font-variant:normal;font-weight:normal;font-stretch:normal;font-size:medium;line-height:normal;font-family:sans-serif;font-variant-ligatures:normal;font-variant-position:normal;font-variant-caps:normal;font-variant-numeric:normal;font-variant-alternates:normal;font-feature-settings:normal;text-indent:0;text-align:start;text-decoration:none;text-decoration-line:none;text-decoration-style:solid;text-decoration-color:#000000;letter-spacing:normal;word-spacing:normal;text-transform:none;writing-mode:lr-tb;direction:ltr;text-orientation:mixed;dominant-baseline:auto;baseline-shift:baseline;text-anchor:start;white-space:normal;shape-padding:0;clip-rule:nonzero;display:inline;overflow:visible;visibility:visible;opacity:1;isolation:auto;mix-blend-mode:normal;color-interpolation:sRGB;color-interpolation-filters:linearRGB;solid-color:#000000;solid-opacity:1;vector-effect:none;fill:#000000;fill-opacity:1;fill-rule:nonzero;stroke:none;stroke-width:8.84999943;stroke-linecap:butt;stroke-linejoin:miter;stroke-miterlimit:4;stroke-dasharray:none;stroke-dashoffset:0;stroke-opacity:1;color-rendering:auto;image-rendering:auto;shape-rendering:auto;text-rendering:auto;enable-background:accumulate"
     d="M 140.71547,2.7602887e-4 C 129.17978,-0.02549397 117.26597,1.753096 105.25063,5.3576978 41.234054,24.56267 26.252574,78.685823 26.252574,78.685823 l -1.83398,6.783203 6.91016,-1.275391 c 0,0 15.00517,-2.760807 32.30468,-2.966797 16.32606,-0.194398 34.179882,2.509371 42.744146,9.927735 -0.69827,3.218539 -2.20338,10.999117 -0.93554,19.511717 0.78155,5.24759 2.91728,10.96632 8.43164,13.55469 5.51435,2.58837 12.48088,1.21404 21.20898,-3.77344 7.33744,-4.19282 13.57647,-4.71554 17.86719,-3.48047 4.29072,1.23507 6.76758,3.97265 7.47851,7.73047 0.71094,3.75782 -0.47475,8.98319 -5.6582,14.81055 -5.18345,5.82735 -14.36214,12.06514 -28.77539,17.11914 l -2.89453,1.01563 -3.26172,152.51758 56.94922,0.91796 1.57617,-100.74609 c 6.13278,-2.51316 23.18441,-10.23081 39.47461,-24.81055 20.10991,-17.99836 38.37743,-46.89044 29.47852,-86.935548 C 238.58752,59.303398 219.35365,30.992106 193.97915,15.056916 178.12008,5.0974228 159.94163,0.04323003 140.71547,2.7602887e-4 Z M 140.66667,8.8147288 c 17.67083,0.01952 34.17454,4.6737092 48.60546,13.7363282 23.08948,14.50019 41.07449,40.470952 49.4043,77.955073 8.16041,36.72185 -8.07895,61.72004 -26.74023,78.42188 -18.66128,16.70185 -39.45118,24.23828 -39.45118,24.23828 l -2.87695,1.03711 -1.53125,97.88282 -39.19922,-0.63086 2.94336,-137.64844 c 13.77033,-5.22368 23.48279,-11.58521 29.56055,-18.41797 6.5206,-7.33062 9.06673,-15.33671 7.74219,-22.33789 -1.32455,-7.00119 -6.65053,-12.55165 -13.72461,-14.5879 -7.07408,-2.03624 -15.76057,-0.81343 -24.70703,4.29883 -7.55581,4.3176 -11.4468,4.20291 -13.05664,3.44727 -1.60985,-0.75565 -2.86598,-2.98402 -3.44141,-6.84766 -1.15087,-7.72727 1.28711,-18.874996 1.28711,-18.874996 l 0.54492,-2.296875 -1.60352,-1.730469 C 102.88092,73.994335 81.707324,72.160763 63.527984,72.377229 c -11.39195,0.135647 -20.10519,1.143555 -26.27539,2.011719 5.4233,-13.424158 22.94984,-46.277332 70.541026,-60.554688 11.24737,-3.374212 22.27054,-5.0312422 32.87305,-5.0195312 z"
     id="path851"
     inkscape:connector-curvature="0" />
  <path
     style="fill:none;stroke:#000000;stroke-width:4.6500001;stroke-linecap:butt;stroke-linejoin:miter;stroke-miterlimit:4;stroke-dasharray:none;stroke-opacity:1"
     d="m 209.6537,186.39286 83.74577,91.5 21.71186,-25.58899 z"
     id="path853"
     inkscape:connector-curvature="0" />
</svg>
