<?xml version="1.0" encoding="UTF-8" standalone="no"?>
<!-- Created with Inkscape (http://www.inkscape.org/) -->

<svg
   xmlns:dc="http://purl.org/dc/elements/1.1/"
   xmlns:cc="http://creativecommons.org/ns#"
   xmlns:rdf="http://www.w3.org/1999/02/22-rdf-syntax-ns#"
   xmlns:svg="http://www.w3.org/2000/svg"
   xmlns="http://www.w3.org/2000/svg"
   xmlns:sodipodi="http://sodipodi.sourceforge.net/DTD/sodipodi-0.dtd"
   xmlns:inkscape="http://www.inkscape.org/namespaces/inkscape"
   width="37.901562mm"
   height="38.099998mm"
   viewBox="0 0 37.901562 38.099998"
   version="1.1"
   id="svg24897"
   inkscape:version="0.92.4 (5da689c313, 2019-01-14)"
   sodipodi:docname="S6.svg">
  <defs
     id="defs24891" />
  <sodipodi:namedview
     id="base"
     pagecolor="#ffffff"
     bordercolor="#666666"
     borderopacity="1.0"
     inkscape:pageopacity="0.0"
     inkscape:pageshadow="2"
     inkscape:zoom="0.35"
     inkscape:cx="-374.6875"
     inkscape:cy="-346.88393"
     inkscape:document-units="mm"
     inkscape:current-layer="layer1"
     showgrid="false"
     fit-margin-top="0"
     fit-margin-left="0"
     fit-margin-right="0"
     fit-margin-bottom="0"
     inkscape:window-width="1920"
     inkscape:window-height="1017"
     inkscape:window-x="-8"
     inkscape:window-y="-8"
     inkscape:window-maximized="1" />
  <metadata
     id="metadata24894">
    <rdf:RDF>
      <cc:Work
         rdf:about="">
        <dc:format>image/svg+xml</dc:format>
        <dc:type
           rdf:resource="http://purl.org/dc/dcmitype/StillImage" />
        <dc:title></dc:title>
      </cc:Work>
    </rdf:RDF>
  </metadata>
  <g
     inkscape:label="Layer 1"
     inkscape:groupmode="layer"
     id="layer1"
     transform="translate(-11.823567,-18.953628)">
    <g
       aria-label="𓋗"
       style="font-style:normal;font-variant:normal;font-weight:normal;font-stretch:normal;font-size:50.79999924px;line-height:1.25;font-family:sans-serif;-inkscape-font-specification:'sans-serif, Normal';font-variant-ligatures:normal;font-variant-caps:normal;font-variant-numeric:normal;font-feature-settings:normal;text-align:start;letter-spacing:0px;word-spacing:0px;writing-mode:lr-tb;text-anchor:start;fill:#000000;fill-opacity:1;stroke:none;stroke-width:0.26458332"
       id="text25444">
      <path
         d="m 49.625911,48.570425 q -4.7625,4.985742 -9.376172,6.72207 -4.688086,1.761133 -9.549805,1.761133 -4.861718,0 -9.500195,-1.761133 -4.564062,-1.736328 -9.376172,-6.672461 l 0.248047,-0.694531 h 10.492383 q -0.04961,-2.530078 -0.42168,-4.985742 -0.347265,-2.455664 -0.79375,-4.936133 l 0.372071,-0.471289 h 3.398242 l 2.232422,-2.877344 q -3.398243,-1.860351 -4.911329,-4.018359 -1.488281,-2.182812 -1.488281,-4.787305 0,-1.810742 0.992188,-2.852539 0.992187,-1.066601 2.604492,-1.066601 1.413867,0 2.108398,0.892969 0.694532,0.868164 0.694532,2.133203 0,1.240234 -0.545704,1.785937 -0.545703,0.520899 -1.339453,0.520899 -0.694531,0 -1.289843,-0.372071 -0.570508,-0.37207 -0.818555,-1.314648 l 0.719336,-0.322461 q 0.272851,0.37207 0.570508,0.570508 0.297656,0.198437 0.74414,0.198437 0.272852,0 0.496094,-0.37207 0.223242,-0.37207 0.223242,-0.744141 0,-0.967383 -0.496094,-1.389062 -0.496093,-0.42168 -1.215429,-0.42168 -0.372071,0 -0.768946,0.173633 -0.396875,0.173633 -0.719335,0.520898 -0.322461,0.322461 -0.520899,0.79375 -0.198437,0.471289 -0.198437,1.066602 0,1.389062 0.37207,2.505273 0.37207,1.091407 1.091406,2.033985 0.744141,0.942578 1.860352,1.785937 1.116211,0.843359 2.604492,1.686719 1.413867,-1.413867 2.976562,-2.75332 1.5875,-1.364258 3.075781,-2.703711 0.892969,-0.79375 1.488282,-1.339453 0.595312,-0.545704 0.992187,-0.942579 0.42168,-0.421679 0.669727,-0.719336 0.272851,-0.32246 0.520898,-0.620117 0.992188,-1.215429 1.066602,-1.562695 l 0.322461,-1.190625 q 0.446484,-1.339453 1.488281,-2.083594 1.041797,-0.74414 2.604492,-0.79375 0.04961,0.02481 0.124023,0.07441 0.09922,0.02481 0.223243,0.07441 0.396875,0.47129 0.545703,0.917774 0.173633,0.42168 0.173633,0.843359 0,0.372071 -0.173633,0.892969 -0.148828,0.520898 -0.396875,1.041797 -0.223242,0.520898 -0.496094,1.016992 -0.272852,0.471289 -0.471289,0.79375 -0.620117,0.942578 -1.041797,1.5875 -0.42168,0.644922 -0.694531,1.091406 -0.272852,0.446485 -0.446484,0.744141 -0.148829,0.272851 -0.223243,0.496094 -0.248047,0.644921 -0.396875,1.11621 -0.148828,0.446485 -0.248047,0.868165 -0.09922,0.421679 -0.148828,0.868164 -0.04961,0.446484 -0.124023,1.041796 -0.04961,0.595313 -0.124024,1.413868 -0.07441,0.818554 -0.223242,1.984375 l 8.632031,-16.66875 0.446485,-0.173633 1.190625,0.396875 0.272851,0.496094 -12.824023,28.054101 h 12.377539 z m -1.289844,0.148828 h -35.29707 q 3.671094,3.819922 8.061523,5.680273 4.415235,1.860352 9.599414,1.860352 4.638477,0 9.028906,-1.63711 4.440039,-1.661914 8.607227,-5.903515 z M 38.513411,38.326089 h -16.29668 q 0.42168,2.406055 0.768946,4.787305 0.37207,2.356445 0.37207,4.812109 h 12.7 L 48.807356,19.995425 48.360872,19.821792 38.910286,38.053237 Z M 26.086262,37.532339 H 38.19095 q 0.124023,-0.719336 0.198437,-1.637109 0.09922,-0.917774 0.198438,-2.083594 0.09922,-1.16582 0.248047,-2.182813 0.173632,-1.016992 0.396875,-1.934765 0.496093,-1.860352 1.562695,-3.447852 0.545703,-0.818554 1.041797,-1.562695 0.520898,-0.768945 0.892969,-1.438672 0.396875,-0.669726 0.620117,-1.240234 0.223242,-0.595313 0.223242,-1.041797 0,-0.669727 -0.396875,-1.21543 -0.669727,0 -1.240234,0.223243 -0.545704,0.198437 -0.967383,0.545703 -0.42168,0.347265 -0.694531,0.818554 -0.272852,0.446485 -0.372071,0.917774 -0.148828,0.74414 -0.520898,1.463476 -0.372071,0.694532 -0.84336,1.314649 -0.446484,0.595312 -0.892968,1.066601 -0.446485,0.446485 -0.719336,0.694531 -0.595313,0.570508 -1.5875,1.463477 -0.967383,0.868164 -2.38125,2.083594 -2.75332,2.430859 -4.167188,3.869531 z"
         style="stroke-width:0.26458332"
         id="path25446"
         inkscape:connector-curvature="0" />
    </g>
  </g>
</svg>
