<?xml version="1.0" encoding="UTF-8" standalone="no"?>
<!-- Created with Inkscape (http://www.inkscape.org/) -->

<svg
   xmlns:dc="http://purl.org/dc/elements/1.1/"
   xmlns:cc="http://creativecommons.org/ns#"
   xmlns:rdf="http://www.w3.org/1999/02/22-rdf-syntax-ns#"
   xmlns:svg="http://www.w3.org/2000/svg"
   xmlns="http://www.w3.org/2000/svg"
   xmlns:sodipodi="http://sodipodi.sourceforge.net/DTD/sodipodi-0.dtd"
   xmlns:inkscape="http://www.inkscape.org/namespaces/inkscape"
   width="26.168945mm"
   height="45.541405mm"
   viewBox="0 0 26.168945 45.541405"
   version="1.1"
   id="svg8718"
   inkscape:version="0.92.4 (5da689c313, 2019-01-14)"
   sodipodi:docname="S6A.svg">
  <defs
     id="defs8712" />
  <sodipodi:namedview
     id="base"
     pagecolor="#ffffff"
     bordercolor="#666666"
     borderopacity="1.0"
     inkscape:pageopacity="0.0"
     inkscape:pageshadow="2"
     inkscape:zoom="0.35"
     inkscape:cx="-363.25977"
     inkscape:cy="-373.40305"
     inkscape:document-units="mm"
     inkscape:current-layer="layer1"
     showgrid="false"
     fit-margin-top="0"
     fit-margin-left="0"
     fit-margin-right="0"
     fit-margin-bottom="0"
     inkscape:window-width="1920"
     inkscape:window-height="1017"
     inkscape:window-x="-8"
     inkscape:window-y="-8"
     inkscape:window-maximized="1" />
  <metadata
     id="metadata8715">
    <rdf:RDF>
      <cc:Work
         rdf:about="">
        <dc:format>image/svg+xml</dc:format>
        <dc:type
           rdf:resource="http://purl.org/dc/dcmitype/StillImage" />
        <dc:title></dc:title>
      </cc:Work>
    </rdf:RDF>
  </metadata>
  <g
     inkscape:label="Layer 1"
     inkscape:groupmode="layer"
     id="layer1"
     transform="translate(-8.7999796,-4.4957047)">
    <g
       aria-label="𓋘"
       transform="scale(0.26458333)"
       style="font-style:normal;font-variant:normal;font-weight:normal;font-stretch:normal;font-size:192px;line-height:1.25;font-family:sans-serif;-inkscape-font-specification:sans-serif;font-variant-ligatures:normal;font-variant-caps:normal;font-variant-numeric:normal;font-feature-settings:normal;text-align:start;letter-spacing:0px;word-spacing:0px;writing-mode:lr-tb;text-anchor:start;fill:#000000;fill-opacity:1;stroke:none"
       id="flowRoot9263">
      <path
         d="m 66.166016,189.11664 q -6.9375,0 -12.9375,-2.53125 -6,-2.53125 -10.5,-6.9375 -4.40625,-4.5 -6.9375,-10.5 -2.53125,-6 -2.53125,-12.9375 0,-6.9375 2.53125,-13.125 2.53125,-6.28125 6.9375,-10.96875 4.5,-4.78125 10.5,-7.59375 6,-2.8125 12.9375,-2.8125 6.9375,0 13.125,2.8125 6.28125,2.8125 10.96875,7.59375 4.78125,4.6875 7.59375,10.96875 2.812504,6.1875 2.812504,13.125 0,6.9375 -2.812504,12.9375 -2.8125,6 -7.59375,10.5 -4.6875,4.40625 -10.96875,6.9375 -6.1875,2.53125 -13.125,2.53125 z m 33.28125,-122.25 q 3.375004,-6.1875 6.750004,-12.28125 3.375,-6.09375 6.65625,-12.28125 l 13.40625,-24.65625 1.6875,-0.65625 3.1875,1.125 1.03125,1.875 -45.656254,100.125 -2.4375,0.65625 -9.84375,-7.59375 v -2.25 q 0.5625,-0.46875 0.9375,-0.75 0.46875,-0.375 0.84375,-0.75 0.46875,-0.375 0.9375,-0.75 0.46875,-0.46875 1.125,-1.21875 1.59375,-1.6875 2.90625,-3.84375 1.40625,-2.15625 1.40625,-3.5625 0,-1.5 -1.6875,-2.0625 -1.875,0 -3,1.40625 -1.125,1.40625 -2.34375,2.71875 l -2.25,0.1875 q -2.25,-2.625 -4.3125,-3.5625 -1.96875,-0.9375 -4.5,-0.9375 -0.46875,0 -1.40625,0.09375 -0.84375,0 -3.5625,0.375 l -1.875,-1.78125 q 0,-6.84375 -0.9375,-13.59375 -0.84375,-6.84375 -2.34375,-13.59375 l 1.40625,-1.78125 h 29.15625 q -17.0625,-6.46875 -24.375,-14.0625 -7.3125,-7.6875 -7.3125,-16.96875 0,-2.53125 0.75,-4.59375 0.75,-2.15625 2.0625,-3.65625 1.3125,-1.59375 3,-2.4375 1.6875,-0.84375 3.65625,-0.84375 1.6875,0 3.28125,0.65625 1.59375,0.65625 2.8125,1.875 1.21875,1.21875 1.96875,2.8125 0.75,1.59375 0.75,3.46875 0,3 -1.3125,4.78125 -1.3125,1.6875 -3.9375,1.6875 -2.0625,0 -3.9375,-1.3125 -1.875,-1.3125 -2.53125,-3.84375 0.65625,-0.375 1.3125,-0.65625 0.65625,-0.28125 1.40625,-0.5625 0.75,1.03125 1.5,1.59375 0.75,0.46875 2.0625,0.46875 0.65625,-0.46875 0.84375,-1.40625 0,-1.59375 -0.9375,-3.1875 -0.9375,-1.6875 -2.90625,-1.6875 -5.15625,0 -5.15625,5.4375 0,11.25 10.40625,19.125 10.40625,7.78125 31.3125,12.65625 z m -2.34375,3.65625 h -39.5625 q 1.3125,6 2.0625,12.1875 0.84375,6.1875 0.84375,12.375 1.78125,-0.28125 3.65625,-0.28125 2.90625,0 5.4375,0.9375 2.53125,0.84375 4.6875,3.28125 l 2.34375,-2.34375 q 0.65625,-0.75 1.78125,-1.21875 1.125,-0.5625 2.15625,-0.5625 1.96875,0 3.375,1.59375 1.40625,1.59375 1.40625,4.03125 -0.375,3.28125 -2.53125,6.1875 -2.15625,2.90625 -5.0625,5.34375 l 6.84375,5.25 44.156254,-96.9375 -0.46875,-0.09375 -26.71875,49.21875 z m -14.15625,108.65625 q 4.21875,-2.8125 7.6875,-7.21875 l -16.59375,-16.5 15.9375,-15.9375 q -3.375,-4.3125 -7.3125,-7.3125 l -16.5,16.59375 -16.40625,-16.5 q -4.03125,3.1875 -6.65625,7.21875 l 15.9375,15.9375 -16.59375,16.40625 q 2.71875,4.40625 7.03125,7.40625 l 16.78125,-16.875 z m -16.78125,-37.59375 12.09375,-12.09375 q -6.46875,-3.09375 -12.5625,-3.09375 -6,0 -11.53125,3 z m 0.09375,28.03125 -12.09375,12.1875 q 5.53125,2.625 11.90625,2.625 6,0 12.28125,-2.71875 z m 27.09375,-2.15625 q 2.625,-5.34375 2.625,-11.15625 0,-6 -3.1875,-12.28125 l -11.53125,11.4375 z m -41.53125,-12 -11.34375,-11.25 q -2.53125,6.09375 -2.53125,12.09375 0,5.8125 2.0625,10.78125 z"
         id="path9271"
         inkscape:connector-curvature="0" />
    </g>
  </g>
</svg>
