<?xml version="1.0" encoding="UTF-8" standalone="no"?>
<!-- Created with Inkscape (http://www.inkscape.org/) -->

<svg
   xmlns:dc="http://purl.org/dc/elements/1.1/"
   xmlns:cc="http://creativecommons.org/ns#"
   xmlns:rdf="http://www.w3.org/1999/02/22-rdf-syntax-ns#"
   xmlns:svg="http://www.w3.org/2000/svg"
   xmlns="http://www.w3.org/2000/svg"
   xmlns:sodipodi="http://sodipodi.sourceforge.net/DTD/sodipodi-0.dtd"
   xmlns:inkscape="http://www.inkscape.org/namespaces/inkscape"
   width="37.926365mm"
   height="37.901562mm"
   viewBox="0 0 37.926365 37.901562"
   version="1.1"
   id="svg9280"
   inkscape:version="0.92.4 (5da689c313, 2019-01-14)"
   sodipodi:docname="S7.svg">
  <defs
     id="defs9274" />
  <sodipodi:namedview
     id="base"
     pagecolor="#ffffff"
     bordercolor="#666666"
     borderopacity="1.0"
     inkscape:pageopacity="0.0"
     inkscape:pageshadow="2"
     inkscape:zoom="0.35"
     inkscape:cx="-354.6875"
     inkscape:cy="-363.70774"
     inkscape:document-units="mm"
     inkscape:current-layer="layer1"
     showgrid="false"
     fit-margin-top="0"
     fit-margin-left="0"
     fit-margin-right="0"
     fit-margin-bottom="0"
     inkscape:window-width="1920"
     inkscape:window-height="1017"
     inkscape:window-x="-8"
     inkscape:window-y="-8"
     inkscape:window-maximized="1" />
  <metadata
     id="metadata9277">
    <rdf:RDF>
      <cc:Work
         rdf:about="">
        <dc:format>image/svg+xml</dc:format>
        <dc:type
           rdf:resource="http://purl.org/dc/dcmitype/StillImage" />
        <dc:title></dc:title>
      </cc:Work>
    </rdf:RDF>
  </metadata>
  <g
     inkscape:label="Layer 1"
     inkscape:groupmode="layer"
     id="layer1"
     transform="translate(-6.531901,-14.700766)">
    <g
       aria-label="𓋙"
       transform="scale(0.26458333)"
       style="font-style:normal;font-variant:normal;font-weight:normal;font-stretch:normal;font-size:192px;line-height:1.25;font-family:sans-serif;-inkscape-font-specification:sans-serif;font-variant-ligatures:normal;font-variant-caps:normal;font-variant-numeric:normal;font-feature-settings:normal;text-align:start;letter-spacing:0px;word-spacing:0px;writing-mode:lr-tb;text-anchor:start;fill:#000000;fill-opacity:1;stroke:none"
       id="flowRoot9825">
      <path
         d="m 168.03125,95.874452 -57.46875,102.749998 -2.25,0.1875 -22.6875,-22.6875 -0.46875,-1.40625 4.40625,-20.625 q -0.5625,-0.84375 -1.875,-2.4375 -1.21875,-1.6875 -3,-1.6875 -2.25,0 -4.3125,3.1875 -2.0625,3.09375 -2.90625,7.21875 l -1.5,1.03125 -10.59375,-1.5 -1.40625,-1.78125 q 0,-1.78125 -0.1875,-3.75 -0.09375,-1.96875 -0.84375,-3.65625 l -21.75,-2.90625 -1.40625,-1.78125 v -2.53125 q -2.25,-6.5625 -6.28125,-7.5 -4.03125,-1.03125 -6.46875,-3.75 -2.34375,-2.8125 -2.34375,-8.90625 0,-4.3125 2.625,-13.96875 2.625,-9.749998 3.65625,-11.531248 l -0.1875,-0.1875 q 0,-2.0625 -2.625,-3.5625 -2.625,-1.59375 -2.625,-3.1875 0,-1.3125 1.03125,-2.8125 1.125,-1.5 4.875,-1.5 3.84375,0 6.9375,1.875 3.1875,1.78125 4.21875,7.21875 1.03125,0.75 1.78125,2.71875 0.84375,1.968748 0.84375,3.937498 0,3.28125 -1.78125,6.46875 -1.6875,3.1875 -3.5625,6.1875 l -3.9375,5.71875 q -2.15625,3.09375 -2.53125,6.375 v 0.46875 q 0,1.78125 1.21875,2.4375 1.3125,0.5625 2.90625,0.5625 1.875,0 3.5625,-0.46875 Q 46.0625,97.655702 59.9375,76.655702 73.8125,55.561952 93.5,55.561952 q 7.6875,0 16.21875,3.65625 8.625,3.65625 10.875,5.4375 2.25,1.78125 10.96875,9.9375 8.8125,8.0625 17.15625,12.9375 8.34375,4.875 18.46875,6 z m -125.25,46.781248 v 2.34375 l 21.5625,2.90625 q 1.5,1.125 1.96875,3.75 0.5625,2.625 0.65625,5.4375 l 7.875,1.125 q 0.75,-4.5 3.5625,-7.6875 2.90625,-3.28125 6.28125,-3.28125 1.78125,0 3.46875,1.03125 1.78125,1.03125 3.375,3.28125 L 163.0625,95.874452 q -9.1875,-1.6875 -16.78125,-6.28125 -7.5,-4.59375 -15.375,-11.8125 -7.875,-7.21875 -11.25,-9.9375 -3.375,-2.8125 -11.53125,-6 -8.15625,-3.1875 -15.28125,-3.1875 -18,0 -31.3125,21.09375 -13.3125,20.999998 -17.25,51.374998 z M 92.46875,154.93695 88.25,174.5307 108.96875,195.24945 162.3125,100.0932 Z M 40.25,97.655702 q -1.3125,-0.28125 -2.4375,-0.28125 -1.21875,0 -2.25,0.375 -1.03125,0.375 -1.96875,1.125 l -1.125,3.468748 q -0.28125,0.75 -0.5625,1.6875 -0.1875,0.9375 -0.75,2.71875 L 30.125,110.2182 q -1.3125,4.6875 -1.875,7.59375 -0.5625,2.8125 -0.5625,5.34375 0,2.25 0.5625,4.3125 0.5625,2.0625 1.875,3.65625 l 3.375,1.59375 q 2.53125,1.21875 4.03125,2.25 1.5,1.03125 2.625,2.625 0.1875,-1.03125 0.1875,-2.34375 0,-1.3125 0.28125,-2.34375 -1.125,0.28125 -2.15625,0.28125 H 37.625 q -3.375,0 -5.34375,-1.40625 -1.875,-1.5 -1.875,-4.21875 0,-2.625 3.65625,-9.09375 l 3.28125,-5.15625 2.0625,-3.09375 q 0.9375,-1.5 1.875,-3.65625 0.9375,-2.25 0.9375,-4.21875 0,-2.624998 -1.78125,-4.687498 z m -9.65625,-8.34375 q -0.46875,0 -0.9375,0.28125 -0.375,0.28125 -0.84375,0.46875 -0.1875,0.1875 -0.1875,0.46875 0,0.84375 1.96875,1.78125 2.0625,0.9375 2.8125,3 1.03125,-0.5625 2.34375,-0.84375 l 1.6875,-0.1875 h 0.65625 q 0.5625,0 1.125,0.09375 -0.5625,-1.875 -1.6875,-3 -1.125,-1.21875 -3.09375,-1.6875 z m 3.1875,1.40625 q -0.65625,1.3125 -1.125,1.3125 -0.28125,0 -0.46875,-0.5625 Q 32,90.905702 32,90.624452 q 0,-0.375 0.375,-0.375 0.46875,0 1.40625,0.46875 z"
         id="path9833"
         inkscape:connector-curvature="0" />
    </g>
  </g>
</svg>
