<?xml version="1.0" encoding="UTF-8" standalone="no"?>
<!-- Created with Inkscape (http://www.inkscape.org/) -->

<svg
   xmlns:dc="http://purl.org/dc/elements/1.1/"
   xmlns:cc="http://creativecommons.org/ns#"
   xmlns:rdf="http://www.w3.org/1999/02/22-rdf-syntax-ns#"
   xmlns:svg="http://www.w3.org/2000/svg"
   xmlns="http://www.w3.org/2000/svg"
   xmlns:sodipodi="http://sodipodi.sourceforge.net/DTD/sodipodi-0.dtd"
   xmlns:inkscape="http://www.inkscape.org/namespaces/inkscape"
   width="31.278706mm"
   height="38.075191mm"
   viewBox="0 0 31.278706 38.075191"
   version="1.1"
   id="svg25455"
   inkscape:version="0.92.4 (5da689c313, 2019-01-14)"
   sodipodi:docname="S8.svg">
  <defs
     id="defs25449" />
  <sodipodi:namedview
     id="base"
     pagecolor="#ffffff"
     bordercolor="#666666"
     borderopacity="1.0"
     inkscape:pageopacity="0.0"
     inkscape:pageshadow="2"
     inkscape:zoom="0.35"
     inkscape:cx="-374.6875"
     inkscape:cy="-369.83485"
     inkscape:document-units="mm"
     inkscape:current-layer="layer1"
     showgrid="false"
     fit-margin-top="0"
     fit-margin-left="0"
     fit-margin-right="0"
     fit-margin-bottom="0"
     inkscape:window-width="1920"
     inkscape:window-height="1017"
     inkscape:window-x="-8"
     inkscape:window-y="-8"
     inkscape:window-maximized="1" />
  <metadata
     id="metadata25452">
    <rdf:RDF>
      <cc:Work
         rdf:about="">
        <dc:format>image/svg+xml</dc:format>
        <dc:type
           rdf:resource="http://purl.org/dc/dcmitype/StillImage" />
        <dc:title></dc:title>
      </cc:Work>
    </rdf:RDF>
  </metadata>
  <g
     inkscape:label="Layer 1"
     inkscape:groupmode="layer"
     id="layer1"
     transform="translate(-11.823567,-12.906006)">
    <g
       aria-label="𓋚"
       style="font-style:normal;font-variant:normal;font-weight:normal;font-stretch:normal;font-size:50.79999924px;line-height:1.25;font-family:sans-serif;-inkscape-font-specification:'sans-serif, Normal';font-variant-ligatures:normal;font-variant-caps:normal;font-variant-numeric:normal;font-feature-settings:normal;text-align:start;letter-spacing:0px;word-spacing:0px;writing-mode:lr-tb;text-anchor:start;fill:#000000;fill-opacity:1;stroke:none;stroke-width:0.26458332"
       id="text26002">
      <path
         d="m 31.196028,45.623388 q 0.595313,0.272852 1.116211,0.272852 0.719336,0 2.505273,-0.47129 2.38125,0.595313 3.323828,0.595313 0.942579,0 3.026172,-0.595313 -1.066601,0.694532 -2.058789,1.21543 -0.967383,0.520899 -1.885156,0.520899 -0.496094,0 -1.091406,-0.148829 -0.595313,-0.148828 -1.314649,-0.347265 -1.091406,0.37207 -2.38125,0.37207 -0.967382,0 -1.736328,-0.148828 l -1.041797,1.984375 q -0.272851,0.496094 -0.570507,0.992187 -0.272852,0.496094 -0.545704,0.992188 -0.07441,0.04961 -0.297656,0.07441 -0.198437,0.04961 -0.446484,0.04961 -0.570508,0 -1.041797,-0.124023 -0.446484,-0.124023 -0.768945,-0.42168 -0.322461,-0.322461 -0.520899,-0.868164 -0.173633,-0.545703 -0.173633,-1.389062 0,-0.744141 0.322461,-1.165821 0.322461,-0.446484 0.496094,-0.768945 -0.669726,-0.198437 -1.141015,-0.396875 -0.47129,-0.198437 -0.868165,-0.42168 -0.992187,0.248047 -1.785937,0.372071 -0.768945,0.124023 -1.364258,0.124023 -1.066601,0 -1.736328,-0.520898 -0.669726,-0.545703 -2.232422,-1.16582 -0.396875,0.09922 -0.74414,0.148828 -0.322461,0.04961 -0.620117,0.04961 -0.644922,0 -1.091407,-0.148828 -0.421679,-0.148828 -0.644922,-0.644922 -0.496093,-0.992187 -2.058789,-2.579687 0.917774,0.471289 1.463477,0.868164 0.570508,0.396875 0.818555,0.719336 0.496093,0.644921 1.389062,0.644921 0.496094,0 1.16582,-0.148828 0.124024,-1.289843 0.644922,-2.530078 0.520899,-1.240234 1.091406,-2.430859 -0.917773,-0.868164 -1.860351,-1.5875 -0.942578,-0.744141 -1.810742,-1.5875 V 34.411669 L 27.326497,21.017138 q 0.09922,-0.322461 0.173633,-0.570507 0.07441,-0.248047 0.07441,-0.496094 0,-0.471289 -0.372071,-0.917774 -0.347265,-0.570507 -0.347265,-1.016992 0,-0.694531 0.74414,-1.413867 0.768946,-0.694531 1.736328,-0.694531 1.190625,0 2.05879,1.190625 0.868164,1.190625 1.265039,2.926953 l 1.810742,-2.182813 q 0.124023,-0.322461 0.173633,-0.79375 0.04961,-0.471289 0.04961,-0.719336 l -0.04961,-0.74414 q -0.04961,-0.620117 -0.148829,-1.016992 -0.09922,-0.396875 -0.09922,-0.595313 0,-0.520898 0.272851,-0.79375 0.297656,-0.272851 0.669727,-0.272851 0.719336,0 0.917773,0.74414 0.173633,0.744141 0.967383,0.744141 0.37207,0 0.768945,-0.545703 0.396875,-0.545703 1.364258,-0.545703 0.669727,0 0.917774,0.570507 0.248046,0.545704 0.248046,1.190625 0,0.496094 0.09922,0.719336 0.09922,0.223243 0.396875,0.272852 l 0.644922,-0.248047 q 0.322461,-0.124023 0.644922,-0.124023 l 0.396875,0.272851 q 0.198437,0.744141 0.198437,0.942578 0,0.694532 -1.041797,0.868164 -1.016992,0.148828 -1.810742,0.942578 -0.768945,0.768946 -1.016992,1.835547 -0.124023,0.520899 -0.248047,1.265039 -0.124023,0.719336 -0.248047,1.661914 l 1.339454,-0.322461 q 0.843359,-0.198437 1.513085,-0.198437 0.79375,0 1.240235,0.620117 0.471289,0.620117 0.471289,1.537891 0,1.562695 -1.339453,1.934765 -0.669727,0.198438 -1.016992,0.620118 -0.322461,0.421679 -0.372071,0.843359 l -2.802929,13.86582 -0.272852,0.272852 q -1.141016,0.223242 -2.282031,0.32246 -1.116211,0.07442 -2.306836,0.07442 -0.272852,0.719335 -0.719336,1.339453 -0.42168,0.595312 -0.79375,1.240234 z M 25.86302,44.928857 q 0.07441,0 0.322461,0.04961 0.272852,0.04961 0.570508,0.09922 0.297656,0.04961 0.545703,0.09922 0.248047,0.0248 0.322461,0.0248 0.347266,0 0.818555,-0.0248 0.471289,-0.04961 0.818554,-0.148829 0.198438,0.124024 0.396875,0.198438 0.223243,0.07441 0.372071,0.124023 0.173633,0.04961 0.347265,0.04961 0.372071,-0.520899 0.694532,-1.041797 0.272851,-0.446484 0.545703,-0.942578 0.272851,-0.520899 0.446484,-0.942578 l 5.853906,-19.84375 -4.390429,-2.38125 q -0.223243,0.272852 -0.446485,0.545703 -0.223242,0.248047 -0.446484,0.520899 L 20.35638,36.37124 q -0.570508,0.868164 -1.041797,1.661914 -0.446484,0.768945 -0.818555,1.562695 -0.37207,0.79375 -0.620117,1.686719 -0.248047,0.868164 -0.396875,1.909961 l 0.694531,0.248047 q 0.892969,0.347265 1.488282,0.818554 0.620117,0.471289 1.661914,0.471289 0.297656,0 0.669726,-0.04961 0.37207,-0.04961 0.719336,-0.124024 0.396875,-0.07441 0.818555,-0.173632 -0.446485,-0.173633 -0.79375,-0.545703 -0.322461,-0.396875 -0.570508,-0.84336 -0.248047,-0.471289 -0.37207,-0.967383 -0.124024,-0.520898 -0.124024,-0.967382 0,-1.63711 1.091406,-2.80293 1.091407,-1.16582 2.80293,-1.16582 1.761133,0 2.852539,1.190625 1.116211,1.190625 1.116211,2.778125 0,0.595312 -0.173633,1.240234 -0.173633,0.644922 -0.595312,1.21543 -0.42168,0.545703 -1.141016,0.942578 -0.694531,0.396875 -1.761133,0.471289 z m 6.151563,-24.18457 q -0.446485,-2.182813 -1.190625,-3.100586 -0.744141,-0.942578 -1.5875,-0.942578 -0.471289,0 -0.892969,0.297656 -0.42168,0.297656 -0.694531,0.868164 0,0.496094 0.322461,0.917774 0.173633,0.198437 0.248047,0.620117 0.09922,0.396875 0.09922,0.843359 0,0.396875 -0.07441,0.719336 -0.07441,0.322461 -0.248047,0.520898 l -12.451953,13.220899 3.001368,2.604492 z m 0.942578,21.505664 q 0.74414,0 1.463476,-0.04961 0.620118,-0.04961 1.265039,-0.09922 0.669727,-0.04961 1.165821,-0.173632 l 2.852539,-13.617774 q 0.173633,-0.79375 0.520898,-1.215429 0.37207,-0.446485 0.942578,-0.644922 0.570508,-0.198438 0.868164,-0.471289 0.322461,-0.297656 0.322461,-0.79375 0,-0.570508 -0.248047,-0.992188 -0.248047,-0.421679 -0.595312,-0.446484 l -0.347266,-0.0248 q -0.04961,0 -0.520898,0.09922 -0.446485,0.09922 -0.967383,0.223242 -0.620117,0.148828 -1.389062,0.322461 z m -7.317383,2.009179 q 1.066602,0 2.083594,-0.768945 1.041797,-0.768945 1.041797,-2.306836 0,-1.289844 -0.917774,-2.282031 -0.892968,-1.016992 -2.282031,-1.016992 -0.694531,0 -1.265039,0.248046 -0.570508,0.223243 -0.992187,0.669727 -0.396875,0.42168 -0.620118,0.992188 -0.223242,0.570507 -0.223242,1.240234 0,0.694531 0.248047,1.289844 0.248047,0.595312 0.669727,1.016992 0.446484,0.421679 1.016992,0.669726 0.595312,0.248047 1.240234,0.248047 z M 38.835872,19.057568 q 0.644922,-1.041797 1.364257,-1.488281 0.744141,-0.446485 1.885157,-0.644922 0.07441,-0.07441 0.07441,-0.223242 0,-0.124024 -0.09922,-0.198438 -0.223242,0.04961 -0.496094,0.223242 -0.272851,0.148829 -0.545703,0.148829 -0.446484,0 -0.868164,-0.396875 -0.396875,-0.396875 -0.396875,-0.992188 v -0.620117 q 0,-0.248047 -0.07441,-0.446484 -0.04961,-0.223243 -0.198437,-0.322461 -0.84336,0 -1.190625,0.570507 -0.297657,0.545704 -1.190625,0.545704 -0.967383,0 -1.289844,-0.744141 -0.297656,-0.768945 -0.545703,-0.768945 -0.07441,0.124023 -0.07441,0.297656 0,0.37207 0.124023,0.744141 l 0.07441,0.297656 q 0.04961,0.248047 0.07441,0.669726 0.02481,0.396875 0.02481,0.84336 0,0.79375 -0.148828,1.339453 0.79375,0.421679 1.389062,0.719336 0.595313,0.297656 1.016992,0.496093 0.446485,0.248047 0.79375,0.396875 z m -11.90625,27.334765 q -0.124024,0.272852 -0.396875,0.744141 -0.272852,0.471289 -0.446485,0.744141 l 0.04961,1.215429 q 0.09922,0.496094 0.446484,0.744141 0.347266,0.223242 0.84336,0.272851 l 0.595312,0.07441 q 0.223242,-0.396875 0.446484,-0.768945 0.223243,-0.396875 0.42168,-0.79375 l 1.066602,-1.934765 -0.595313,-0.42168 z m 11.385351,-26.119335 -3.398242,-1.686719 -0.868164,1.041797 3.96875,2.158008 z"
         style="stroke-width:0.26458332"
         id="path26004"
         inkscape:connector-curvature="0" />
    </g>
  </g>
</svg>
