<?xml version="1.0" encoding="UTF-8" standalone="no"?>
<!-- Created with Inkscape (http://www.inkscape.org/) -->

<svg
   xmlns:dc="http://purl.org/dc/elements/1.1/"
   xmlns:cc="http://creativecommons.org/ns#"
   xmlns:rdf="http://www.w3.org/1999/02/22-rdf-syntax-ns#"
   xmlns:svg="http://www.w3.org/2000/svg"
   xmlns="http://www.w3.org/2000/svg"
   xmlns:sodipodi="http://sodipodi.sourceforge.net/DTD/sodipodi-0.dtd"
   xmlns:inkscape="http://www.inkscape.org/namespaces/inkscape"
   width="25.548834mm"
   height="37.851952mm"
   viewBox="0 0 25.548834 37.851952"
   version="1.1"
   id="svg26013"
   inkscape:version="0.92.4 (5da689c313, 2019-01-14)"
   sodipodi:docname="S9.svg">
  <defs
     id="defs26007" />
  <sodipodi:namedview
     id="base"
     pagecolor="#ffffff"
     bordercolor="#666666"
     borderopacity="1.0"
     inkscape:pageopacity="0.0"
     inkscape:pageshadow="2"
     inkscape:zoom="0.35"
     inkscape:cx="-368.97321"
     inkscape:cy="-376.20536"
     inkscape:document-units="mm"
     inkscape:current-layer="layer1"
     showgrid="false"
     fit-margin-top="0"
     fit-margin-left="0"
     fit-margin-right="0"
     fit-margin-bottom="0"
     inkscape:window-width="1920"
     inkscape:window-height="1017"
     inkscape:window-x="-8"
     inkscape:window-y="-8"
     inkscape:window-maximized="1" />
  <metadata
     id="metadata26010">
    <rdf:RDF>
      <cc:Work
         rdf:about="">
        <dc:format>image/svg+xml</dc:format>
        <dc:type
           rdf:resource="http://purl.org/dc/dcmitype/StillImage" />
        <dc:title></dc:title>
      </cc:Work>
    </rdf:RDF>
  </metadata>
  <g
     inkscape:label="Layer 1"
     inkscape:groupmode="layer"
     id="layer1"
     transform="translate(-10.311663,-11.443713)">
    <g
       aria-label="𓋛"
       style="font-style:normal;font-variant:normal;font-weight:normal;font-stretch:normal;font-size:50.79999924px;line-height:1.25;font-family:sans-serif;-inkscape-font-specification:'sans-serif, Normal';font-variant-ligatures:normal;font-variant-caps:normal;font-variant-numeric:normal;font-feature-settings:normal;text-align:start;letter-spacing:0px;word-spacing:0px;writing-mode:lr-tb;text-anchor:start;fill:#000000;fill-opacity:1;stroke:none;stroke-width:0.26458332"
       id="text26560">
      <path
         d="m 10.311663,43.640197 10.914062,-29.815234 0.198437,-0.272851 q 0.967383,-1.265039 1.736329,-1.686719 0.79375,-0.42168 1.5875,-0.42168 0.967382,0 1.686718,0.644922 0.744141,0.620117 0.917774,1.810742 l 0.09922,0.620117 q 0,0.148829 0.02481,0.272852 0,0.198437 -0.04961,0.37207 l -3.919141,16.767969 q 5.109766,-15.428516 5.432227,-16.643945 0.322461,-1.240235 1.513086,-2.133203 1.190625,-0.892969 2.579687,-0.892969 h 0.173633 q 0.917773,0.04961 1.785937,1.066601 0.868164,1.016993 0.868164,1.909961 0,0.173633 -0.0248,0.322461 l -6.39961,31.204297 -0.396875,0.272851 q -1.761132,-0.198437 -3.522265,-0.347265 -1.736328,-0.173633 -3.472656,-0.42168 -1.686719,0.942578 -2.331641,1.5875 -0.644922,0.620117 -1.141016,1.438672 -0.37207,-0.148828 -0.719335,-0.322461 -0.124024,-1.041797 -0.322461,-1.885156 -0.198438,-0.868164 -0.719336,-1.661914 -1.736328,-0.322461 -3.373438,-0.644922 L 10.634124,44.23551 Z m 11.48457,-29.219921 -10.616406,29.120702 2.480468,0.471289 q 1.413868,0.272852 2.902149,0.545703 l 2.902148,0.520899 q 2.579688,0.446484 5.035352,0.694531 2.455664,0.248047 4.241601,0.446485 L 35.06674,15.362854 q 0,-0.09922 0.02481,-0.198438 0,-0.520898 -0.719336,-1.314648 -0.694531,-0.818555 -1.488281,-0.818555 -0.892969,0 -1.835547,0.644922 -0.942578,0.644922 -1.21543,1.488281 L 21.424162,40.762853 20.655217,40.564416 Q 26.682756,14.990783 26.682756,14.86676 l -0.124023,-0.892969 q -0.198438,-0.942578 -0.644922,-1.339453 -0.446485,-0.42168 -1.016992,-0.42168 -0.644922,0 -1.314649,0.396875 -0.669726,0.396875 -1.16582,1.016993 l -0.322461,0.37207 z m -1.066602,31.675585 -2.678906,-0.446484 v 0.0248 q 0.272852,0.595313 0.396875,1.091407 0.148828,0.496093 0.198438,0.992187 z"
         style="stroke-width:0.26458332"
         id="path26562"
         inkscape:connector-curvature="0" />
    </g>
  </g>
</svg>
