<?xml version="1.0" encoding="UTF-8" standalone="no"?>
<!-- Created with Inkscape (http://www.inkscape.org/) -->

<svg
   xmlns:dc="http://purl.org/dc/elements/1.1/"
   xmlns:cc="http://creativecommons.org/ns#"
   xmlns:rdf="http://www.w3.org/1999/02/22-rdf-syntax-ns#"
   xmlns:svg="http://www.w3.org/2000/svg"
   xmlns="http://www.w3.org/2000/svg"
   xmlns:sodipodi="http://sodipodi.sourceforge.net/DTD/sodipodi-0.dtd"
   xmlns:inkscape="http://www.inkscape.org/namespaces/inkscape"
   width="36.859764mm"
   height="9.7730474mm"
   viewBox="0 0 36.859764 9.7730474"
   version="1.1"
   id="svg16249"
   inkscape:version="0.92.4 (5da689c313, 2019-01-14)"
   sodipodi:docname="T1.svg">
  <defs
     id="defs16243" />
  <sodipodi:namedview
     id="base"
     pagecolor="#ffffff"
     bordercolor="#666666"
     borderopacity="1.0"
     inkscape:pageopacity="0.0"
     inkscape:pageshadow="2"
     inkscape:zoom="0.35"
     inkscape:cx="-340.40179"
     inkscape:cy="-398.78125"
     inkscape:document-units="mm"
     inkscape:current-layer="layer1"
     showgrid="false"
     fit-margin-top="0"
     fit-margin-left="0"
     fit-margin-right="0"
     fit-margin-bottom="0"
     inkscape:window-width="1920"
     inkscape:window-height="1017"
     inkscape:window-x="-8"
     inkscape:window-y="-8"
     inkscape:window-maximized="1" />
  <metadata
     id="metadata16246">
    <rdf:RDF>
      <cc:Work
         rdf:about="">
        <dc:format>image/svg+xml</dc:format>
        <dc:type
           rdf:resource="http://purl.org/dc/dcmitype/StillImage" />
        <dc:title></dc:title>
      </cc:Work>
    </rdf:RDF>
  </metadata>
  <g
     inkscape:label="Layer 1"
     inkscape:groupmode="layer"
     id="layer1"
     transform="translate(-2.7521392,-33.549414)">
    <g
       aria-label="𓌇"
       style="font-style:normal;font-variant:normal;font-weight:normal;font-stretch:normal;font-size:50.79999924px;line-height:1.25;font-family:sans-serif;-inkscape-font-specification:'sans-serif, Normal';font-variant-ligatures:normal;font-variant-caps:normal;font-variant-numeric:normal;font-feature-settings:normal;text-align:start;letter-spacing:0px;word-spacing:0px;writing-mode:lr-tb;text-anchor:start;fill:#000000;fill-opacity:1;stroke:none;stroke-width:0.26458332"
       id="text16796">
      <path
         d="m 5.4806548,33.549414 q 0.8929687,0.79375 2.1332031,1.488281 1.2402343,0.669727 2.4556641,1.21543 1.21543,0.545703 2.182812,0.942578 0.992188,0.396875 1.339453,0.595313 h 19.273242 q 1.413868,0 3.100586,-0.372071 1.711524,-0.37207 3.646289,-0.818554 v 3.199804 q -1.637109,-0.272851 -2.604492,-0.421679 -0.967383,-0.148828 -1.53789,-0.223243 -0.570508,-0.07441 -0.868165,-0.09922 -0.297656,-0.02481 -0.595312,-0.02481 H 13.740616 q -0.297657,0.148828 -0.942579,0.446484 -0.644921,0.272852 -1.463476,0.644922 -0.818555,0.372071 -1.7363282,0.79375 Q 8.6804594,41.338086 7.8619047,41.78457 7.0433501,42.20625 6.3736235,42.603125 5.703897,43 5.381436,43.322461 5.2326079,43.223242 5.0589751,43.124023 4.910147,43.049609 4.7613188,42.925586 v -1.661914 q -1.0666015,-0.42168 -1.5378906,-1.190625 -0.471289,-0.79375 -0.471289,-1.785938 0,-0.396875 0.049609,-0.79375 0.074414,-0.396875 0.2728515,-0.768945 0.2232422,-0.396875 0.6201172,-0.768945 0.396875,-0.396875 1.0666015,-0.768945 v -1.314649 z m 0.074414,1.116211 v 7.540625 q 0.7441407,-0.520898 1.6371094,-1.016992 0.9177734,-0.520899 1.8603515,-0.967383 0.9673833,-0.446484 1.9099613,-0.843359 0.942578,-0.42168 1.761132,-0.768946 V 38.187891 Q 12.425967,38.138281 11.830655,37.915039 11.260147,37.691797 10.540811,37.394141 9.821475,37.07168 9.027725,36.699609 8.2587797,36.327539 7.5642485,35.955469 6.8697173,35.583399 6.3240141,35.260938 5.778311,34.913672 5.5550688,34.665625 Z m -0.79375,5.705078 v -4.241601 q -0.7689453,0.446484 -1.0169921,1.016992 -0.2480469,0.570508 -0.2480469,1.091406 0,0.644922 0.3224609,1.21543 0.3472657,0.545703 0.9425781,0.917773 z"
         style="stroke-width:0.26458332"
         id="path16798"
         inkscape:connector-curvature="0" />
    </g>
  </g>
</svg>
