<?xml version="1.0" encoding="UTF-8" standalone="no"?>
<!-- Created with Inkscape (http://www.inkscape.org/) -->

<svg
   xmlns:dc="http://purl.org/dc/elements/1.1/"
   xmlns:cc="http://creativecommons.org/ns#"
   xmlns:rdf="http://www.w3.org/1999/02/22-rdf-syntax-ns#"
   xmlns:svg="http://www.w3.org/2000/svg"
   xmlns="http://www.w3.org/2000/svg"
   xmlns:sodipodi="http://sodipodi.sourceforge.net/DTD/sodipodi-0.dtd"
   xmlns:inkscape="http://www.inkscape.org/namespaces/inkscape"
   width="37.256641mm"
   height="6.7220712mm"
   viewBox="0 0 37.256641 6.7220712"
   version="1.1"
   id="svg8"
   inkscape:version="0.92.4 (5da689c313, 2019-01-14)"
   sodipodi:docname="T11.svg">
  <defs
     id="defs2" />
  <sodipodi:namedview
     id="base"
     pagecolor="#ffffff"
     bordercolor="#666666"
     borderopacity="1.0"
     inkscape:pageopacity="0.0"
     inkscape:pageshadow="2"
     inkscape:zoom="0.35"
     inkscape:cx="-328.97321"
     inkscape:cy="-385.80803"
     inkscape:document-units="mm"
     inkscape:current-layer="layer1"
     showgrid="false"
     fit-margin-top="0"
     fit-margin-left="0"
     fit-margin-right="0"
     fit-margin-bottom="0"
     inkscape:window-width="1920"
     inkscape:window-height="1017"
     inkscape:window-x="-8"
     inkscape:window-y="-8"
     inkscape:window-maximized="1" />
  <metadata
     id="metadata5">
    <rdf:RDF>
      <cc:Work
         rdf:about="">
        <dc:format>image/svg+xml</dc:format>
        <dc:type
           rdf:resource="http://purl.org/dc/dcmitype/StillImage" />
        <dc:title></dc:title>
      </cc:Work>
    </rdf:RDF>
  </metadata>
  <g
     inkscape:label="Layer 1"
     inkscape:groupmode="layer"
     id="layer1"
     transform="translate(0.27167048,-40.032887)">
    <g
       aria-label="𓌕"
       style="font-style:normal;font-variant:normal;font-weight:normal;font-stretch:normal;font-size:50.79999924px;line-height:1.25;font-family:sans-serif;-inkscape-font-specification:'sans-serif, Normal';font-variant-ligatures:normal;font-variant-caps:normal;font-variant-numeric:normal;font-feature-settings:normal;text-align:start;letter-spacing:0px;word-spacing:0px;writing-mode:lr-tb;text-anchor:start;fill:#000000;fill-opacity:1;stroke:none;stroke-width:0.26458332"
       id="text817">
      <path
         d="m 34.18204,43.877614 q -0.37207,1.835547 -1.066602,2.356445 -0.669726,0.520899 -2.133203,0.520899 -1.711523,0 -3.348632,-0.818555 -1.63711,-0.843359 -2.133204,-2.058789 H 4.4660248 L 2.5312592,44.96902 -0.27167048,43.38152 2.5312592,41.769215 4.4660248,42.885426 H 25.500399 q 0.520899,-1.215429 2.158008,-2.033984 1.63711,-0.818555 3.323828,-0.818555 1.463477,0 2.133203,0.545703 0.694532,0.520899 1.066602,2.306836 l 2.80293,-1.711523 v 1.116211 l -1.810743,1.091406 1.810743,1.041797 v 1.16582 z m -0.942578,0.04961 -6.523633,-0.0248 q 0.297656,0.471289 0.868164,0.868164 0.496094,0.347265 1.265039,0.644921 0.79375,0.272852 1.984375,0.297657 0.892969,0.0248 1.364258,-0.248047 0.496094,-0.272852 0.719336,-0.620117 0.248047,-0.347266 0.297656,-0.644922 z m 0,-1.041797 q 0.0248,0.02481 -0.02481,-0.248046 -0.04961,-0.272852 -0.272851,-0.595313 -0.198438,-0.347266 -0.620118,-0.620117 -0.421679,-0.297656 -1.141015,-0.297656 -1.21543,0.0248 -2.058789,0.297656 -0.818555,0.272851 -1.364258,0.620117 -0.644922,0.396875 -1.041797,0.868164 z"
         style="stroke-width:0.26458332"
         id="path819"
         inkscape:connector-curvature="0" />
    </g>
  </g>
</svg>
