<?xml version="1.0" encoding="UTF-8" standalone="no"?>
<svg
   xmlns:dc="http://purl.org/dc/elements/1.1/"
   xmlns:cc="http://creativecommons.org/ns#"
   xmlns:rdf="http://www.w3.org/1999/02/22-rdf-syntax-ns#"
   xmlns:svg="http://www.w3.org/2000/svg"
   xmlns="http://www.w3.org/2000/svg"
   xmlns:sodipodi="http://sodipodi.sourceforge.net/DTD/sodipodi-0.dtd"
   xmlns:inkscape="http://www.inkscape.org/namespaces/inkscape"
   version="1.0"
   width="313.76208pt"
   height="66.288345pt"
   viewBox="0 0 313.76208 66.288345"
   preserveAspectRatio="xMidYMid meet"
   id="svg8"
   sodipodi:docname="T11A.svg"
   inkscape:version="0.92.4 (5da689c313, 2019-01-14)">
  <defs
     id="defs12" />
  <sodipodi:namedview
     pagecolor="#ffffff"
     bordercolor="#666666"
     borderopacity="1"
     objecttolerance="10"
     gridtolerance="10"
     guidetolerance="10"
     inkscape:pageopacity="0"
     inkscape:pageshadow="2"
     inkscape:window-width="1920"
     inkscape:window-height="1017"
     id="namedview10"
     showgrid="false"
     fit-margin-top="0"
     fit-margin-left="0"
     fit-margin-right="0"
     fit-margin-bottom="0"
     inkscape:zoom="0.66008772"
     inkscape:cx="4.7196961"
     inkscape:cy="65.534728"
     inkscape:window-x="-8"
     inkscape:window-y="-8"
     inkscape:window-maximized="1"
     inkscape:current-layer="svg8" />
  <metadata
     id="metadata2">
Created by potrace 1.10, written by Peter Selinger 2001-2011
<rdf:RDF>
  <cc:Work
     rdf:about="">
    <dc:format>image/svg+xml</dc:format>
    <dc:type
       rdf:resource="http://purl.org/dc/dcmitype/StillImage" />
    <dc:title></dc:title>
  </cc:Work>
</rdf:RDF>
</metadata>
  <g
     transform="matrix(0.1,0,0,-0.1,-16.343949,77.137301)"
     id="g6"
     style="fill:#000000;stroke:none">
    <path
       d="M 2416,635 2276,500 h -822 c -537,0 -825,3 -829,10 -6,10 15,55 47,99 32,42 -1,54 -69,25 -21,-9 -51,-22 -68,-29 -16,-7 -66,-27 -110,-45 -93,-38 -140,-58 -177,-77 -14,-7 -33,-13 -40,-13 -20,0 -52,-36 -43,-49 3,-6 15,-11 27,-11 11,0 32,-6 46,-14 15,-8 47,-22 72,-31 25,-10 60,-24 78,-31 17,-8 47,-20 65,-28 17,-7 52,-21 77,-31 25,-9 65,-26 88,-37 38,-18 46,-18 58,-6 12,12 10,19 -16,54 -16,21 -30,49 -30,62 v 22 h 820 821 l 138,-130 c 112,-105 144,-130 168,-130 31,0 53,16 53,38 0,8 -38,54 -85,101 -47,48 -85,95 -85,104 0,14 11,17 72,17 h 71 l 133,-130 c 139,-135 171,-154 194,-111 19,36 10,53 -70,135 -44,45 -80,88 -80,94 0,8 23,12 70,12 h 71 l 87,-84 c 175,-169 184,-176 212,-176 28,0 60,27 60,50 0,7 -36,49 -80,94 -44,45 -80,89 -80,98 0,12 15,17 69,20 100,5 137,46 95,106 -13,20 -24,22 -95,22 -52,0 -79,4 -79,11 0,7 31,45 69,85 97,101 107,119 91,149 -27,51 -55,35 -200,-110 L 2935,500 h -76 c -41,0 -79,3 -82,7 -4,3 31,46 78,93 54,56 85,95 85,109 0,33 -18,61 -39,61 -11,0 -78,-59 -154,-135 L 2612,500 h -81 c -46,0 -81,4 -81,10 0,5 33,42 73,82 41,40 82,86 92,101 17,27 17,28 -5,52 -13,14 -31,25 -39,25 -9,-1 -79,-61 -155,-135 z"
       id="path4"
       inkscape:connector-curvature="0" />
  </g>
</svg>
