<?xml version="1.0" encoding="UTF-8" standalone="no"?>
<!-- Created with Inkscape (http://www.inkscape.org/) -->

<svg
   xmlns:dc="http://purl.org/dc/elements/1.1/"
   xmlns:cc="http://creativecommons.org/ns#"
   xmlns:rdf="http://www.w3.org/1999/02/22-rdf-syntax-ns#"
   xmlns:svg="http://www.w3.org/2000/svg"
   xmlns="http://www.w3.org/2000/svg"
   xmlns:sodipodi="http://sodipodi.sourceforge.net/DTD/sodipodi-0.dtd"
   xmlns:inkscape="http://www.inkscape.org/namespaces/inkscape"
   width="24.804691mm"
   height="26.913086mm"
   viewBox="0 0 24.804691 26.913086"
   version="1.1"
   id="svg8"
   inkscape:version="0.92.4 (5da689c313, 2019-01-14)"
   sodipodi:docname="T12.svg">
  <defs
     id="defs2" />
  <sodipodi:namedview
     id="base"
     pagecolor="#ffffff"
     bordercolor="#666666"
     borderopacity="1.0"
     inkscape:pageopacity="0.0"
     inkscape:pageshadow="2"
     inkscape:zoom="0.35"
     inkscape:cx="-347.94643"
     inkscape:cy="-382.06251"
     inkscape:document-units="mm"
     inkscape:current-layer="layer1"
     showgrid="false"
     fit-margin-top="0"
     fit-margin-left="0"
     fit-margin-right="0"
     fit-margin-bottom="0"
     inkscape:window-width="1920"
     inkscape:window-height="1017"
     inkscape:window-x="-8"
     inkscape:window-y="-8"
     inkscape:window-maximized="1" />
  <metadata
     id="metadata5">
    <rdf:RDF>
      <cc:Work
         rdf:about="">
        <dc:format>image/svg+xml</dc:format>
        <dc:type
           rdf:resource="http://purl.org/dc/dcmitype/StillImage" />
        <dc:title></dc:title>
      </cc:Work>
    </rdf:RDF>
  </metadata>
  <g
     inkscape:label="Layer 1"
     inkscape:groupmode="layer"
     id="layer1"
     transform="translate(-4.7483256,-20.832875)">
    <g
       aria-label="𓌗"
       style="font-style:normal;font-variant:normal;font-weight:normal;font-stretch:normal;font-size:50.79999924px;line-height:1.25;font-family:sans-serif;-inkscape-font-specification:'sans-serif, Normal';font-variant-ligatures:normal;font-variant-caps:normal;font-variant-numeric:normal;font-feature-settings:normal;text-align:start;letter-spacing:0px;word-spacing:0px;writing-mode:lr-tb;text-anchor:start;fill:#000000;fill-opacity:1;stroke:none;stroke-width:0.26458332"
       id="text824">
      <path
         d="m 28.709653,40.155726 q -1.463476,-2.455664 -2.629297,-6.399609 -2.951757,-0.818555 -2.951757,-5.928321 0,-1.53789 0.545703,-2.604492 -0.322461,-0.942578 -0.917774,-1.463476 -4.018359,0 -7.565429,5.382617 5.159375,5.829101 5.159375,12.203906 0,3.026172 -1.562696,4.712891 -1.562695,1.686718 -4.440039,1.686718 -2.207617,0 -3.54707,-1.339453 -1.3146482,-1.364258 -1.3146482,-3.695898 0,-3.795117 1.3394532,-7.491016 1.364258,-3.695898 2.703711,-5.853906 -0.595313,-0.694531 -1.289844,-1.413867 -0.694531,-0.744141 -1.488281,-1.537891 -0.570508,0.148828 -1.0914064,0.148828 -1.7611328,0 -3.3486327,-1.686718 -1.5626953,-1.711524 -1.5626953,-3.522266 0,-0.520898 1.1658203,-0.520898 1.8355468,0 3.7951171,1.438672 1.95957,1.438671 1.95957,3.150195 0,0.198437 -0.0248,0.297656 0.719336,0.620117 1.364257,1.21543 0.669727,0.595312 1.265039,1.240234 3.770313,-5.630664 8.483203,-5.630664 1.165821,0 1.984375,2.406055 1.513086,0.669726 2.406055,2.406054 0.917773,1.711524 0.917773,3.646289 0,1.686719 -0.917773,2.753321 0.545703,2.926953 2.406055,5.977929 z m -9.574609,1.190625 q 0,-1.984375 -0.520898,-3.720703 -0.520899,-1.736328 -1.265039,-3.150195 -0.719336,-1.413868 -2.926953,-4.117578 -0.84336,1.240234 -2.257227,4.638476 -1.413867,3.398242 -1.413867,6.746875 0,4.7625 3.596679,4.7625 4.787305,0 4.787305,-5.159375 z m -8.68164,-15.875 0.04961,-0.421679 q 0,-1.165821 -1.5875,-2.133204 -1.5875,-0.992187 -3.0261718,-1.091406 0.074414,1.289844 1.3394531,2.505274 1.265039,1.190625 2.455664,1.190625 z m 14.113867,0.644922 q -0.173633,0.471289 -0.272852,1.066602 -0.09922,0.496093 -0.124023,1.190625 0,0.694531 0.173632,1.513086 0.173633,0.843359 0.496094,1.389062 0.347266,0.545703 0.694531,0.892969 0.396875,0.396875 0.868164,0.620117 0.223243,-0.471289 0.372071,-1.041797 0.124023,-0.496094 0.173633,-1.116211 0.04961,-0.620117 -0.09922,-1.289844 -0.148828,-0.669726 -0.520899,-1.240234 -0.37207,-0.595312 -0.768945,-1.041797 -0.37207,-0.446484 -0.669726,-0.694531 z"
         style="stroke-width:0.26458332"
         id="path826"
         inkscape:connector-curvature="0" />
    </g>
  </g>
</svg>
