<?xml version="1.0" encoding="UTF-8" standalone="no"?>
<!-- Created with Inkscape (http://www.inkscape.org/) -->

<svg
   xmlns:dc="http://purl.org/dc/elements/1.1/"
   xmlns:cc="http://creativecommons.org/ns#"
   xmlns:rdf="http://www.w3.org/1999/02/22-rdf-syntax-ns#"
   xmlns:svg="http://www.w3.org/2000/svg"
   xmlns="http://www.w3.org/2000/svg"
   xmlns:sodipodi="http://sodipodi.sourceforge.net/DTD/sodipodi-0.dtd"
   xmlns:inkscape="http://www.inkscape.org/namespaces/inkscape"
   width="12.873632mm"
   height="36.016407mm"
   viewBox="0 0 12.873632 36.016407"
   version="1.1"
   id="svg5659"
   inkscape:version="0.92.4 (5da689c313, 2019-01-14)"
   sodipodi:docname="T16A.svg">
  <defs
     id="defs5653" />
  <sodipodi:namedview
     id="base"
     pagecolor="#ffffff"
     bordercolor="#666666"
     borderopacity="1.0"
     inkscape:pageopacity="0.0"
     inkscape:pageshadow="2"
     inkscape:zoom="0.35"
     inkscape:cx="-323.25977"
     inkscape:cy="-326.19016"
     inkscape:document-units="mm"
     inkscape:current-layer="layer1"
     showgrid="false"
     fit-margin-top="0"
     fit-margin-left="0"
     fit-margin-right="0"
     fit-margin-bottom="0"
     inkscape:window-width="1920"
     inkscape:window-height="1017"
     inkscape:window-x="-8"
     inkscape:window-y="-8"
     inkscape:window-maximized="1" />
  <metadata
     id="metadata5656">
    <rdf:RDF>
      <cc:Work
         rdf:about="">
        <dc:format>image/svg+xml</dc:format>
        <dc:type
           rdf:resource="http://purl.org/dc/dcmitype/StillImage" />
        <dc:title></dc:title>
      </cc:Work>
    </rdf:RDF>
  </metadata>
  <g
     inkscape:label="Layer 1"
     inkscape:groupmode="layer"
     id="layer1"
     transform="translate(1.7833537,-26.512448)">
    <g
       aria-label="𓌜"
       transform="scale(0.26458333)"
       style="font-style:normal;font-variant:normal;font-weight:normal;font-stretch:normal;font-size:192px;line-height:1.25;font-family:sans-serif;-inkscape-font-specification:sans-serif;font-variant-ligatures:normal;font-variant-caps:normal;font-variant-numeric:normal;font-feature-settings:normal;text-align:start;letter-spacing:0px;word-spacing:0px;writing-mode:lr-tb;text-anchor:start;fill:#000000;fill-opacity:1;stroke:none"
       id="flowRoot6204">
      <path
         d="m 41.916016,102.92328 q -10.59375,6.28125 -15,10.96875 -4.40625,4.59375 -6.75,10.5 -2.34375,5.90625 -2.34375,13.5 0,12.84375 8.0625,33.65625 8.15625,20.8125 9.1875,32.71875 h 5.53125 l 0.9375,2.71875 q -4.96875,4.40625 -6.84375,7.3125 -1.875,2.90625 -1.96875,6 0,4.40625 1.875,7.40625 1.875,3 5.0625,5.90625 l -0.9375,2.71875 h -18.28125 l -0.9375,-2.625 q 4.3125,-3.65625 5.90625,-6.5625 1.6875,-3 1.6875,-5.71875 0,-2.625 -1.59375,-5.71875 -1.5,-3.09375 -7.875,-8.8125 l 0.9375,-2.625 h 6.375 q 0,-0.84375 0.09375,-1.59375 0,-6.9375 -3,-11.34375 -2.90625,-4.40625 -7.6875,-4.40625 h -0.375 q -2.15625,0 -4.3125004,1.125 -2.15625,1.125 -3.9375,2.25 -0.5625,-0.1875 -1.125,-0.1875 -0.46875,0 -1.03125,-0.28125 -5.25,-7.40625 -7.78125,-15.9375 -2.53125,-8.53125 -2.53125,-17.53125 0,-9.75 2.53125,-18.28125 2.625,-8.625 5.71875,-13.59375 3.09375,-4.96875 4.96875,-7.6875 1.96875,-2.8125 7.1250004,-6.84375 l 3.1875,-2.53125 q 3.84375,-3 9.09375,-4.6875 5.34375,-1.6875 15.09375,-2.53125 z m -7.21875,1.03125 q -13.03125,1.96875 -21.28125,9.84375 -8.1562504,7.875 -12.65625038,19.125 -4.40625002,11.15625 -4.40625002,23.625 0,7.59375 1.78125,15.1875 1.78125003,7.5 7.125,15.375 2.8125,-1.59375 5.1562504,-2.4375 2.4375,-0.84375 4.59375,-0.84375 5.53125,0 9.1875,5.53125 3.75,5.53125 3.75,13.5 v 1.40625 h 4.21875 q -0.65625,-9.1875 -7.96875,-28.03125 -7.3125,-18.84375 -8.90625,-31.21875 l -0.28125,-3.65625 q -0.1875,-1.78125 -0.1875,-3.65625 0,-10.6875 4.125,-18.28125 4.21875,-7.6875 15.75,-15.46875 z m -12.28125,103.3125 q 3,2.8125 4.96875,5.71875 1.96875,2.90625 2.4375,6.28125 0.46875,-3.5625 2.34375,-6.5625 1.875,-3 4.59375,-5.4375 z m 12.5625,26.0625 q -4.59375,-4.78125 -5.15625,-10.78125 -0.375,2.4375 -1.5,5.15625 -1.03125,2.625 -4.03125,5.625 z"
         id="path6212"
         inkscape:connector-curvature="0" />
    </g>
  </g>
</svg>
