<?xml version="1.0" encoding="UTF-8" standalone="no"?>
<!-- Created with Inkscape (http://www.inkscape.org/) -->

<svg
   xmlns:dc="http://purl.org/dc/elements/1.1/"
   xmlns:cc="http://creativecommons.org/ns#"
   xmlns:rdf="http://www.w3.org/1999/02/22-rdf-syntax-ns#"
   xmlns:svg="http://www.w3.org/2000/svg"
   xmlns="http://www.w3.org/2000/svg"
   xmlns:sodipodi="http://sodipodi.sourceforge.net/DTD/sodipodi-0.dtd"
   xmlns:inkscape="http://www.inkscape.org/namespaces/inkscape"
   width="37.628712mm"
   height="26.168945mm"
   viewBox="0 0 37.628712 26.168945"
   version="1.1"
   id="svg6221"
   inkscape:version="0.92.4 (5da689c313, 2019-01-14)"
   sodipodi:docname="T17.svg">
  <defs
     id="defs6215" />
  <sodipodi:namedview
     id="base"
     pagecolor="#ffffff"
     bordercolor="#666666"
     borderopacity="1.0"
     inkscape:pageopacity="0.0"
     inkscape:pageshadow="2"
     inkscape:zoom="0.35"
     inkscape:cx="-311.83008"
     inkscape:cy="-370.54758"
     inkscape:document-units="mm"
     inkscape:current-layer="layer1"
     showgrid="false"
     fit-margin-top="0"
     fit-margin-left="0"
     fit-margin-right="0"
     fit-margin-bottom="0"
     inkscape:window-width="1920"
     inkscape:window-height="1017"
     inkscape:window-x="-8"
     inkscape:window-y="-8"
     inkscape:window-maximized="1" />
  <metadata
     id="metadata6218">
    <rdf:RDF>
      <cc:Work
         rdf:about="">
        <dc:format>image/svg+xml</dc:format>
        <dc:type
           rdf:resource="http://purl.org/dc/dcmitype/StillImage" />
        <dc:title></dc:title>
      </cc:Work>
    </rdf:RDF>
  </metadata>
  <g
     inkscape:label="Layer 1"
     inkscape:groupmode="layer"
     id="layer1"
     transform="translate(4.8074585,-24.623675)">
    <g
       aria-label="ð“Œ"
       transform="scale(0.26458333)"
       style="font-style:normal;font-variant:normal;font-weight:normal;font-stretch:normal;font-size:192px;line-height:1.25;font-family:sans-serif;-inkscape-font-specification:sans-serif;font-variant-ligatures:normal;font-variant-caps:normal;font-variant-numeric:normal;font-feature-settings:normal;text-align:start;letter-spacing:0px;word-spacing:0px;writing-mode:lr-tb;text-anchor:start;fill:#000000;fill-opacity:1;stroke:none"
       id="flowRoot6766">
      <path
         d="m 113.45508,157.84711 q 3.75,3.75 4.78125,7.40625 1.125,3.5625 1.125,6.75 0,4.3125 -1.40625,7.96875 -1.40625,3.65625 -3.9375,6.375 -2.53125,2.625 -6.1875,4.125 -3.65625,1.5 -8.156252,1.5 -4.59375,0 -8.4375,-1.59375 -3.84375,-1.6875 -6.65625,-4.3125 -2.8125,-2.625 -4.40625,-5.90625 -1.59375,-3.375 -1.59375,-6.65625 v -0.46875 l -19.6875,-21.84375 -60.4687499,-31.78125 q -1.125,3.28125 -2.4375,5.34375 -1.21875,2.0625 -2.625,3.28125 -1.3125,1.125 -2.8125,1.59375 -1.5000001,0.375 -3.1875001,0.375 -1.78125,0 -2.90625,-1.125 -1.03125,-1.21875 -1.6875,-3.09375 -0.5625,-1.96875 -0.75,-4.40625 -0.1875,-2.4375 -0.1875,-4.96875 h 3 q 0,5.4375 0.5625,8.0625 0.65625,2.53125 3.1875,2.53125 2.5312501,0 4.2187501,-2.8125 1.6875,-2.8125 3.84375,-7.875 0.46875,-1.125 1.125,-2.4375 0.65625,-1.3125 1.21875,-2.53125 0.56250002,-1.21875 0.93750003,-2.25 0.375,-1.03125 0.375,-1.59375 0,-1.03125 -1.21875001,-1.3125 -1.12500002,-0.375 -2.71875002,-0.375 -0.84375,0 -2.71875,0.28125 -1.78125,0.28125 -5.7187501,1.21875 v -3 q 1.875,-0.46875 3.8437501,-0.9375 2.0625,-0.5625 5.0625,-0.5625 3.65625003,0 4.875,1.40625 1.21875,1.3125 1.21875,3.5625 0,0.65625 -0.375,1.875 -0.375,1.21875 -0.9375,2.53125 -0.46875,1.3125 -1.03124998,2.625 -0.56249999,1.21875 -0.84375,1.96875 l 59.06249988,30.84375 17.90625,-20.71875 -10.875,-15.5625 q -9.5625,-13.593752 -9.5625,-15.843752 0,-1.125 1.3125,-1.78125 1.3125,-0.65625 2.90625,-0.65625 1.6875,0 2.8125,0.5625 1.03125,0.375 30.46875,18.187502 5.34375,-1.6875 9.937502,-1.6875 9.75,0 15,7.03125 5.34375,7.03125 5.34375,10.96875 0,3.65625 -0.75,7.6875 -0.75,3.9375 -2.15625,7.875 -1.40625,3.84375 -3.375,7.5 -1.96875,3.65625 -4.3125,6.65625 z m -17.812502,-43.40625 16.593752,40.03125 q 2.4375,-3.46875 4.3125,-7.78125 1.59375,-3.65625 2.90625,-8.53125 1.40625,-4.96875 1.5,-10.875 -1.40625,-3.5625 -3,-6.1875 -1.59375,-2.71875 -3.65625,-4.40625 -1.96875,-1.78125 -4.59375,-2.625 -2.53125,-0.9375 -5.90625,-0.9375 -1.03125,0 -2.4375,0.28125 -1.3125,0.1875 -2.625002,0.375 -1.5,0.375 -3.09375,0.65625 z m 13.593752,40.40625 -16.125002,-38.90625 -12.75,11.4375 11.8125,26.34375 q 1.875,-0.5625 3.46875,-0.75 1.6875,-0.28125 3.65625,-0.28125 2.250002,0 4.031252,0.375 1.875,0.28125 3.1875,0.75 1.5,0.46875 2.71875,1.03125 z M 91.142578,113.69086 62.923828,96.628358 q -0.75,-0.46875 -1.6875,-0.5625 -0.84375,-0.09375 -1.59375,-0.09375 0,0.9375 0.5625,1.59375 0.5625,0.75 7.3125,10.687502 l 11.34375,16.5 z m -30.09375,35.4375 16.03125,18.09375 v -36.1875 z m 20.53125,24.65625 q 0.28125,2.71875 1.5,5.34375 1.21875,2.53125 3.28125,4.6875 2.15625,2.0625 5.0625,3.46875 3,1.3125 6.84375,1.6875 v -15.1875 z m -1.5,-39.75 v 30 q 0.5625,-1.3125 1.59375,-2.71875 1.03125,-1.40625 2.25,-2.625 1.3125,-1.3125 2.71875,-2.25 1.40625,-1.03125 2.71875,-1.59375 z m 21.187502,54.9375 q 3.5625,-0.28125 6.28125,-1.6875 2.8125,-1.40625 4.6875,-3.5625 1.96875,-2.15625 3,-4.78125 1.03125,-2.625 1.125,-5.15625 H 101.26758 Z M 90.767578,157.75336 q -1.875,0.75 -3.5625,2.15625 -1.59375,1.40625 -2.90625,3.1875 -1.21875,1.78125 -1.96875,3.75 -0.75,1.96875 -0.75,3.9375 h 15 z m 25.593752,13.03125 q 0,-1.5 -0.375,-3 -0.375,-1.59375 -1.03125,-3 -0.5625,-1.5 -1.40625,-2.625 -0.75,-1.21875 -1.59375,-1.96875 l -8.71875,10.59375 z m -6.5625,-12.75 q -0.84375,-0.5625 -1.96875,-0.9375 -1.125,-0.375 -2.34375,-0.65625 -1.21875,-0.28125 -2.34375,-0.46875 -1.03125,-0.1875 -1.875,-0.28125 v 13.03125 z m -11.531252,-2.34375 q -0.65625,0 -2.4375,0.375 -1.6875,0.28125 -2.34375,0.5625 l 4.78125,10.3125 z"
         id="path6774"
         inkscape:connector-curvature="0" />
    </g>
  </g>
</svg>
