<?xml version="1.0" encoding="UTF-8" standalone="no"?>
<!-- Created with Inkscape (http://www.inkscape.org/) -->

<svg
   xmlns:dc="http://purl.org/dc/elements/1.1/"
   xmlns:cc="http://creativecommons.org/ns#"
   xmlns:rdf="http://www.w3.org/1999/02/22-rdf-syntax-ns#"
   xmlns:svg="http://www.w3.org/2000/svg"
   xmlns="http://www.w3.org/2000/svg"
   xmlns:sodipodi="http://sodipodi.sourceforge.net/DTD/sodipodi-0.dtd"
   xmlns:inkscape="http://www.inkscape.org/namespaces/inkscape"
   width="9.2025404mm"
   height="37.256641mm"
   viewBox="0 0 9.2025404 37.256641"
   version="1.1"
   id="svg6783"
   inkscape:version="0.92.4 (5da689c313, 2019-01-14)"
   sodipodi:docname="T19.svg">
  <defs
     id="defs6777" />
  <sodipodi:namedview
     id="base"
     pagecolor="#ffffff"
     bordercolor="#666666"
     borderopacity="1.0"
     inkscape:pageopacity="0.0"
     inkscape:pageshadow="2"
     inkscape:zoom="0.35"
     inkscape:cx="-560.4018"
     inkscape:cy="-217.14286"
     inkscape:document-units="mm"
     inkscape:current-layer="layer1"
     showgrid="false"
     fit-margin-top="0"
     fit-margin-left="0"
     fit-margin-right="0"
     fit-margin-bottom="0"
     inkscape:window-width="1920"
     inkscape:window-height="1017"
     inkscape:window-x="-8"
     inkscape:window-y="-8"
     inkscape:window-maximized="1" />
  <metadata
     id="metadata6780">
    <rdf:RDF>
      <cc:Work
         rdf:about="">
        <dc:format>image/svg+xml</dc:format>
        <dc:type
           rdf:resource="http://purl.org/dc/dcmitype/StillImage" />
        <dc:title></dc:title>
      </cc:Work>
    </rdf:RDF>
  </metadata>
  <g
     inkscape:label="Layer 1"
     inkscape:groupmode="layer"
     id="layer1"
     transform="translate(-60.960475,-54.124311)">
    <flowRoot
       xml:space="preserve"
       id="flowRoot7328"
       style="font-style:normal;font-variant:normal;font-weight:normal;font-stretch:normal;font-size:192px;line-height:1.25;font-family:sans-serif;-inkscape-font-specification:sans-serif;font-variant-ligatures:normal;font-variant-caps:normal;font-variant-numeric:normal;font-feature-settings:normal;text-align:start;letter-spacing:0px;word-spacing:0px;writing-mode:lr-tb;text-anchor:start;fill:#000000;fill-opacity:1;stroke:none"
       transform="scale(0.26458333)"><flowRegion
         id="flowRegion7330"><rect
           id="rect7332"
           width="477.14285"
           height="734.28571"
           x="-5.7142859"
           y="53.948257" /></flowRegion><flowPara
         id="flowPara7334"></flowPara></flowRoot>    <g
       aria-label="𓌟"
       style="font-style:normal;font-variant:normal;font-weight:normal;font-stretch:normal;font-size:50.79999924px;line-height:1.25;font-family:sans-serif;-inkscape-font-specification:sans-serif;font-variant-ligatures:normal;font-variant-caps:normal;font-variant-numeric:normal;font-feature-settings:normal;text-align:start;letter-spacing:0px;word-spacing:0px;writing-mode:lr-tb;text-anchor:start;fill:#000000;fill-opacity:1;stroke:none;stroke-width:0.26458332"
       id="text7338">
      <path
         d="m 64.011452,71.462787 q -0.496093,0 -0.992187,-0.272851 v -1.265039 q 0.570508,0.347265 0.917773,0.347265 0.520899,0 0.520899,-0.694531 0,-0.669727 -0.967383,-0.669727 -1.265039,0 -1.265039,1.389063 0,0.595312 0.248047,1.16582 0.248047,0.570508 0.644922,1.116211 0.396875,0.545703 0.868164,1.066602 0.496093,0.520898 0.942578,1.041796 0.992187,0.942579 1.736328,1.661915 0.768945,0.719335 1.265039,1.190625 0.595312,0.570507 0.992187,0.942578 V 60.920795 h -6.250781 v -1.240234 h 6.250781 v -2.579688 h -6.250781 v -1.240234 h 6.250781 v -1.736328 h 1.240235 v 37.25664 H 69.71653 l -0.74414,-6.002734 -3.844727,-3.819922 v -1.736328 l 3.819922,3.770312 v -3.299023 l -4.960937,-4.911328 q -1.141016,-1.141016 -1.761133,-1.959571 -0.595313,-0.818554 -0.892969,-1.413867 -0.272851,-0.595312 -0.322461,-0.992187 -0.04961,-0.42168 -0.04961,-0.768946 0,-1.11621 0.669726,-1.810742 0.669727,-0.719336 1.736329,-0.719336 2.33164,0 2.33164,1.984375 0,1.761133 -1.686718,1.761133 z"
         style="stroke-width:0.26458332"
         id="path7340"
         inkscape:connector-curvature="0" />
    </g>
  </g>
</svg>
