<?xml version="1.0" encoding="UTF-8" standalone="no"?>
<!-- Created with Inkscape (http://www.inkscape.org/) -->

<svg
   xmlns:dc="http://purl.org/dc/elements/1.1/"
   xmlns:cc="http://creativecommons.org/ns#"
   xmlns:rdf="http://www.w3.org/1999/02/22-rdf-syntax-ns#"
   xmlns:svg="http://www.w3.org/2000/svg"
   xmlns="http://www.w3.org/2000/svg"
   xmlns:sodipodi="http://sodipodi.sourceforge.net/DTD/sodipodi-0.dtd"
   xmlns:inkscape="http://www.inkscape.org/namespaces/inkscape"
   width="34.627342mm"
   height="18.132227mm"
   viewBox="0 0 34.627342 18.132227"
   version="1.1"
   id="svg16807"
   inkscape:version="0.92.4 (5da689c313, 2019-01-14)"
   sodipodi:docname="T2.svg">
  <defs
     id="defs16801" />
  <sodipodi:namedview
     id="base"
     pagecolor="#ffffff"
     bordercolor="#666666"
     borderopacity="1.0"
     inkscape:pageopacity="0.0"
     inkscape:pageshadow="2"
     inkscape:zoom="0.35"
     inkscape:cx="-363.25893"
     inkscape:cy="-411.31252"
     inkscape:document-units="mm"
     inkscape:current-layer="layer1"
     showgrid="false"
     fit-margin-top="0"
     fit-margin-left="0"
     fit-margin-right="0"
     fit-margin-bottom="0"
     inkscape:window-width="1920"
     inkscape:window-height="1017"
     inkscape:window-x="-8"
     inkscape:window-y="-8"
     inkscape:window-maximized="1" />
  <metadata
     id="metadata16804">
    <rdf:RDF>
      <cc:Work
         rdf:about="">
        <dc:format>image/svg+xml</dc:format>
        <dc:type
           rdf:resource="http://purl.org/dc/dcmitype/StillImage" />
        <dc:title></dc:title>
      </cc:Work>
    </rdf:RDF>
  </metadata>
  <g
     inkscape:label="Layer 1"
     inkscape:groupmode="layer"
     id="layer1"
     transform="translate(-8.7997579,-21.874668)">
    <g
       aria-label="𓌈"
       style="font-style:normal;font-variant:normal;font-weight:normal;font-stretch:normal;font-size:50.79999924px;line-height:1.25;font-family:sans-serif;-inkscape-font-specification:'sans-serif, Normal';font-variant-ligatures:normal;font-variant-caps:normal;font-variant-numeric:normal;font-feature-settings:normal;text-align:start;letter-spacing:0px;word-spacing:0px;writing-mode:lr-tb;text-anchor:start;fill:#000000;fill-opacity:1;stroke:none;stroke-width:0.26458332"
       id="text17354">
      <path
         d="m 20.606789,29.812172 q -0.37207,-0.173633 -0.892969,-0.173633 -0.694531,0 -1.53789,0.248047 -0.818555,0.223242 -1.736328,0.471289 -0.644922,0.198438 -1.21543,0.272852 -0.545703,0.07441 -1.041797,0.07441 -1.041797,0 -1.711523,-0.347266 -0.545703,-0.248047 -1.041797,-0.644922 -0.471289,-0.396875 -0.84336,-0.892968 -0.347265,-0.496094 -0.570507,-1.066602 -0.1984379,-0.595312 -0.1984379,-1.190625 0,-0.644922 0.2976559,-1.289844 l -1.3146481,-0.223242 0.8433594,-1.860351 0.9921877,0.79375 q 0.471289,-1.016992 1.488281,-1.562696 1.041797,-0.545703 2.232422,-0.545703 1.016992,0 1.885156,0.396875 0.818555,0.347266 1.5875,1.21543 0.79375,0.843359 1.364258,1.909961 0.272851,0.520898 0.496094,1.041797 0.248046,0.520898 0.446484,0.967383 0.223242,0.446484 0.446484,0.768945 0.223243,0.322461 0.471289,0.471289 l 22.373828,10.244336 -0.496094,1.116211 z m -4.7625,-6.870898 q -0.669726,-0.297656 -1.339453,-0.297656 -0.545703,0 -1.066602,0.173632 -0.520898,0.173633 -0.992187,0.471289 -0.446484,0.297657 -0.79375,0.719336 -0.347266,0.396875 -0.570508,0.868164 -0.37207,0.79375 -0.37207,1.686719 0,0.917774 0.446484,1.736328 0.471289,0.818555 1.438672,1.289844 0.669727,0.322461 1.637109,0.322461 0.942579,0 2.38125,-0.347266 0.669727,-0.148828 1.141016,-0.272851 0.496094,-0.148828 0.868164,-0.248047 0.37207,-0.124024 0.669727,-0.173633 0.322461,-0.07441 0.669726,-0.09922 -0.272851,-0.545703 -0.545703,-1.141015 -0.272852,-0.620117 -0.843359,-1.612305 -1.339453,-2.282031 -2.728516,-3.07578 z"
         style="stroke-width:0.26458332"
         id="path17356"
         inkscape:connector-curvature="0" />
    </g>
  </g>
</svg>
