<?xml version="1.0" encoding="UTF-8" standalone="no"?>
<!-- Created with Inkscape (http://www.inkscape.org/) -->

<svg
   xmlns:dc="http://purl.org/dc/elements/1.1/"
   xmlns:cc="http://creativecommons.org/ns#"
   xmlns:rdf="http://www.w3.org/1999/02/22-rdf-syntax-ns#"
   xmlns:svg="http://www.w3.org/2000/svg"
   xmlns="http://www.w3.org/2000/svg"
   xmlns:sodipodi="http://sodipodi.sourceforge.net/DTD/sodipodi-0.dtd"
   xmlns:inkscape="http://www.inkscape.org/namespaces/inkscape"
   width="37.256641mm"
   height="13.841016mm"
   viewBox="0 0 37.256641 13.841016"
   version="1.1"
   id="svg3067"
   inkscape:version="0.92.4 (5da689c313, 2019-01-14)"
   sodipodi:docname="T21.svg">
  <defs
     id="defs3061" />
  <sodipodi:namedview
     id="base"
     pagecolor="#ffffff"
     bordercolor="#666666"
     borderopacity="1.0"
     inkscape:pageopacity="0.0"
     inkscape:pageshadow="2"
     inkscape:zoom="0.35"
     inkscape:cx="-323.25893"
     inkscape:cy="-357.14285"
     inkscape:document-units="mm"
     inkscape:current-layer="layer1"
     showgrid="false"
     fit-margin-top="0"
     fit-margin-left="0"
     fit-margin-right="0"
     fit-margin-bottom="0"
     inkscape:window-width="1920"
     inkscape:window-height="1017"
     inkscape:window-x="-8"
     inkscape:window-y="-8"
     inkscape:window-maximized="1" />
  <metadata
     id="metadata3064">
    <rdf:RDF>
      <cc:Work
         rdf:about="">
        <dc:format>image/svg+xml</dc:format>
        <dc:type
           rdf:resource="http://purl.org/dc/dcmitype/StillImage" />
        <dc:title></dc:title>
      </cc:Work>
    </rdf:RDF>
  </metadata>
  <g
     inkscape:label="Layer 1"
     inkscape:groupmode="layer"
     id="layer1"
     transform="translate(1.7835748,-40.498271)">
    <g
       aria-label="𓌡"
       style="font-style:normal;font-variant:normal;font-weight:normal;font-stretch:normal;font-size:50.79999924px;line-height:1.25;font-family:sans-serif;-inkscape-font-specification:'sans-serif, Normal';font-variant-ligatures:normal;font-variant-caps:normal;font-variant-numeric:normal;font-feature-settings:normal;text-align:start;letter-spacing:0px;word-spacing:0px;writing-mode:lr-tb;text-anchor:start;fill:#000000;fill-opacity:1;stroke:none;stroke-width:0.26458332"
       id="text3614">
      <path
         d="m 35.473065,50.742607 v 1.190625 H 21.855292 v 1.612305 l -0.42168,0.396875 H 7.3941594 L 7.0220891,53.471123 v -1.537891 h -7.19335927 l 0.79374998,2.406055 -2.40605461,-3.59668 h 8.8056639 v -1.53789 L 7.3941594,48.733428 H 13.69455 l 7.242969,-5.705079 q 0,-0.09922 -0.02481,-0.272851 0,-0.892969 1.16582,-1.562695 1.190625,-0.694532 2.058789,-0.694532 0.545703,0 0.892969,0.248047 0.347266,0.223242 0.347266,0.545703 0,0.620118 -1.141016,1.513086 -1.116211,0.892969 -2.033984,0.892969 -0.223243,0 -0.446485,-0.04961 l -6.424414,5.084961 h 6.101953 l 0.42168,0.396875 v 1.612304 z M 21.061542,53.148662 V 49.527178 H 7.8158391 v 3.621484 z m 0.719336,-10.343555 q 0.248047,0.07441 0.496094,0.07441 0.74414,0 1.463476,-0.644922 0.744141,-0.669726 0.744141,-0.892968 0,-0.09922 -0.198438,-0.148828 -0.198437,-0.04961 -0.322461,-0.04961 -0.595312,0 -1.413867,0.520899 -0.79375,0.520898 -0.79375,0.967382 0,0.124024 0.02481,0.173633 z"
         style="stroke-width:0.26458332"
         id="path3616"
         inkscape:connector-curvature="0" />
    </g>
  </g>
</svg>
