<?xml version="1.0" encoding="UTF-8" standalone="no"?>
<!-- Created with Inkscape (http://www.inkscape.org/) -->

<svg
   xmlns:dc="http://purl.org/dc/elements/1.1/"
   xmlns:cc="http://creativecommons.org/ns#"
   xmlns:rdf="http://www.w3.org/1999/02/22-rdf-syntax-ns#"
   xmlns:svg="http://www.w3.org/2000/svg"
   xmlns="http://www.w3.org/2000/svg"
   xmlns:sodipodi="http://sodipodi.sourceforge.net/DTD/sodipodi-0.dtd"
   xmlns:inkscape="http://www.inkscape.org/namespaces/inkscape"
   width="10.790039mm"
   height="38.000782mm"
   viewBox="0 0 10.790039 38.000782"
   version="1.1"
   id="svg4183"
   inkscape:version="0.92.4 (5da689c313, 2019-01-14)"
   sodipodi:docname="T23.svg">
  <defs
     id="defs4177" />
  <sodipodi:namedview
     id="base"
     pagecolor="#ffffff"
     bordercolor="#666666"
     borderopacity="1.0"
     inkscape:pageopacity="0.0"
     inkscape:pageshadow="2"
     inkscape:zoom="0.35"
     inkscape:cx="-331.83036"
     inkscape:cy="-395.64286"
     inkscape:document-units="mm"
     inkscape:current-layer="layer1"
     showgrid="false"
     fit-margin-top="0"
     fit-margin-left="0"
     fit-margin-right="0"
     fit-margin-bottom="0"
     inkscape:window-width="1920"
     inkscape:window-height="1017"
     inkscape:window-x="-8"
     inkscape:window-y="-8"
     inkscape:window-maximized="1" />
  <metadata
     id="metadata4180">
    <rdf:RDF>
      <cc:Work
         rdf:about="">
        <dc:format>image/svg+xml</dc:format>
        <dc:type
           rdf:resource="http://purl.org/dc/dcmitype/StillImage" />
        <dc:title></dc:title>
      </cc:Work>
    </rdf:RDF>
  </metadata>
  <g
     inkscape:label="Layer 1"
     inkscape:groupmode="layer"
     id="layer1"
     transform="translate(-0.48428194,-6.1520452)">
    <g
       aria-label="𓌣"
       style="font-style:normal;font-variant:normal;font-weight:normal;font-stretch:normal;font-size:50.79999924px;line-height:1.25;font-family:sans-serif;-inkscape-font-specification:'sans-serif, Normal';font-variant-ligatures:normal;font-variant-caps:normal;font-variant-numeric:normal;font-feature-settings:normal;text-align:start;letter-spacing:0px;word-spacing:0px;writing-mode:lr-tb;text-anchor:start;fill:#000000;fill-opacity:1;stroke:none;stroke-width:0.26458332"
       id="text4730">
      <path
         d="M 8.4713912,6.5489202 7.3551803,25.97099 l 3.1253907,-2.604492 0.79375,0.79375 -3.9935548,3.274219 v 0.223242 q 1.3642578,2.257227 1.661914,3.472656 0.322461,1.21543 0.322461,2.282031 0,2.00918 -0.9425781,4.688086 -0.9425781,2.654102 -1.0169922,2.877344 0.1984375,0.644922 0.3720703,1.314648 0.1736328,0.669727 0.3720703,1.339453 l -0.396875,0.520899 H 4.0561569 L 3.6840866,43.681537 4.4530319,40.977826 3.733696,39.191888 Q 3.1135788,37.653998 2.7415085,36.165717 2.3694382,34.677435 2.3694382,33.412396 q 0,-0.818554 0.1984375,-1.736328 0.1984375,-0.917773 0.9921874,-2.207617 l 0.5208985,-0.868164 q 0.2480468,-0.42168 0.396875,-0.892969 L 4.4530319,27.434467 0.48428194,24.160248 1.2780319,23.366498 4.3786178,25.97099 3.2872116,6.6233343 3.6592819,6.1520452 H 8.0497115 Z M 6.4870162,27.682514 7.6528365,6.9457952 H 4.1057663 L 5.2715866,27.756928 q 0,0.496093 -1.0417969,2.108398 -1.0417969,1.5875 -1.0417969,3.423047 0,1.463477 0.5953125,3.522266 0.6201172,2.058789 1.0666016,3.026171 0.471289,0.967383 0.471289,1.389063 0,0.446484 -0.3224609,1.141015 -0.2976562,0.669727 -0.396875,0.992188 H 7.1567428 L 6.8094772,42.193256 Q 6.6358443,41.597943 6.4870162,41.027435 v -0.04961 q 0,-0.124023 0.074414,-0.347266 0.074414,-0.223242 0.1736328,-0.471289 L 7.0823287,39.266303 Q 7.77686,37.405951 8.0993209,36.339349 8.4217818,35.247943 8.4961959,34.032514 v -0.42168 q 0,-0.967383 -0.2232422,-1.95957 Q 8.0497115,30.659076 7.5288131,29.741303 L 7.0823287,28.922748 Q 6.8342818,28.525873 6.660649,28.178607 6.4870162,27.806537 6.4870162,27.682514 Z"
         style="stroke-width:0.26458332"
         id="path4732"
         inkscape:connector-curvature="0" />
    </g>
  </g>
</svg>
