<?xml version="1.0" encoding="UTF-8" standalone="no"?>
<!-- Created with Inkscape (http://www.inkscape.org/) -->

<svg
   xmlns:dc="http://purl.org/dc/elements/1.1/"
   xmlns:cc="http://creativecommons.org/ns#"
   xmlns:rdf="http://www.w3.org/1999/02/22-rdf-syntax-ns#"
   xmlns:svg="http://www.w3.org/2000/svg"
   xmlns="http://www.w3.org/2000/svg"
   xmlns:sodipodi="http://sodipodi.sourceforge.net/DTD/sodipodi-0.dtd"
   xmlns:inkscape="http://www.inkscape.org/namespaces/inkscape"
   width="27.185936mm"
   height="25.102337mm"
   viewBox="0 0 27.185936 25.102337"
   version="1.1"
   id="svg4741"
   inkscape:version="0.92.4 (5da689c313, 2019-01-14)"
   sodipodi:docname="T24.svg">
  <defs
     id="defs4735" />
  <sodipodi:namedview
     id="base"
     pagecolor="#ffffff"
     bordercolor="#666666"
     borderopacity="1.0"
     inkscape:pageopacity="0.0"
     inkscape:pageshadow="2"
     inkscape:zoom="0.35"
     inkscape:cx="-343.25893"
     inkscape:cy="-359.43753"
     inkscape:document-units="mm"
     inkscape:current-layer="layer1"
     showgrid="false"
     fit-margin-top="0"
     fit-margin-left="0"
     fit-margin-right="0"
     fit-margin-bottom="0"
     inkscape:window-width="1920"
     inkscape:window-height="1017"
     inkscape:window-x="-8"
     inkscape:window-y="-8"
     inkscape:window-maximized="1" />
  <metadata
     id="metadata4738">
    <rdf:RDF>
      <cc:Work
         rdf:about="">
        <dc:format>image/svg+xml</dc:format>
        <dc:type
           rdf:resource="http://purl.org/dc/dcmitype/StillImage" />
        <dc:title></dc:title>
      </cc:Work>
    </rdf:RDF>
  </metadata>
  <g
     inkscape:label="Layer 1"
     inkscape:groupmode="layer"
     id="layer1"
     transform="translate(-3.5080924,-28.629817)">
    <g
       aria-label="𓌤"
       style="font-style:normal;font-variant:normal;font-weight:normal;font-stretch:normal;font-size:50.79999924px;line-height:1.25;font-family:sans-serif;-inkscape-font-specification:'sans-serif, Normal';font-variant-ligatures:normal;font-variant-caps:normal;font-variant-numeric:normal;font-feature-settings:normal;text-align:start;letter-spacing:0px;word-spacing:0px;writing-mode:lr-tb;text-anchor:start;fill:#000000;fill-opacity:1;stroke:none;stroke-width:0.26458332"
       id="text5288">
      <path
         d="m 7.9481304,36.592121 q 0.1984375,-0.496093 0.4216797,-0.942578 0.2480469,-0.471289 0.5953125,-0.892968 -0.7193359,0 -1.6371094,-0.744141 -0.9425781,-0.744141 -0.9425781,-1.314648 0.4960938,-1.091407 0.9921875,-1.091407 0.6201172,0 1.6371094,0.719336 1.016992,0.719336 1.016992,1.364258 0.42168,-0.37207 0.892969,-0.669727 0.496094,-0.297656 0.992187,-0.570507 -0.520898,-0.198438 -1.091406,-1.165821 -0.545703,-0.942578 -0.545703,-1.661914 0,-0.992187 0.868164,-0.992187 0.644922,0 1.314648,1.116211 0.669727,1.091406 0.669727,1.810742 v 0.198437 l -0.04961,0.198438 q 1.314649,-0.496094 2.80293,-0.620117 1.513086,-0.148828 3.547071,-0.148828 h 4.067968 q 1.265039,-0.644922 2.207617,-0.942579 0.942579,-0.297656 1.761133,-0.297656 0.644922,0 1.21543,0.148828 0.595312,0.148828 1.041797,0.42168 0.446484,0.272852 0.694531,0.644922 0.272852,0.37207 0.272852,0.818555 0,0.496093 -0.372071,0.818554 -0.37207,0.297656 -0.868164,0.471289 -0.471289,0.173633 -0.992187,0.248047 -0.496094,0.07441 -0.744141,0.07441 -1.066601,0 -2.033984,-0.421679 -0.967383,-0.42168 -2.182813,-1.190625 -2.306836,0 -3.993554,0.520898 -1.686719,0.496094 -2.902149,1.314648 -1.190625,0.818555 -1.95957,1.860352 -0.744141,1.016992 -1.190625,2.033984 -0.42168,1.016992 -0.595313,1.934766 -0.148828,0.917773 -0.148828,1.53789 0,0.620118 0.148828,1.537891 0.173633,0.917774 0.595313,1.934766 0.42168,1.016992 1.190625,2.058789 0.768945,1.016992 1.95957,1.835547 1.190625,0.818554 2.877344,1.339453 1.711523,0.496093 4.018359,0.496093 0.669727,-0.37207 1.141016,-0.669726 0.471289,-0.297656 0.868164,-0.496094 0.42168,-0.223242 0.868164,-0.322461 0.446484,-0.124023 1.091406,-0.124023 1.488281,0 2.331641,0.347265 0.868164,0.322461 0.868164,1.190625 0,0.446485 -0.297656,0.818555 -0.272852,0.37207 -0.719336,0.669727 -0.446485,0.272851 -1.016993,0.446484 -0.545703,0.148828 -1.091406,0.148828 -0.620117,0 -1.066601,-0.07441 -0.42168,-0.07441 -0.84336,-0.223242 -0.421679,-0.148828 -0.917773,-0.37207 -0.496094,-0.248047 -1.21543,-0.570508 h -3.100586 q -0.992187,0 -2.009179,-0.02481 -0.992188,-0.02481 -1.959571,-0.09922 -0.942578,-0.07441 -1.810742,-0.223242 -0.868164,-0.148828 -1.53789,-0.396875 0.04961,0.148828 0.04961,0.396875 0,0.719336 -0.669727,1.835547 -0.669726,1.091406 -1.314648,1.091406 -0.868164,0 -0.868164,-0.967383 0,-0.669726 0.545703,-1.612304 0.570508,-0.992188 1.116211,-1.240235 -1.141016,-0.545703 -2.133203,-1.438671 -0.1240235,0.669726 -0.9921875,1.463476 -0.9177734,0.79375 -1.4882813,0.79375 -0.9425781,-0.496094 -0.9425781,-1.066602 0,-0.644921 0.8433594,-1.463476 0.8185547,-0.818555 1.4882812,-0.942578 -0.2728515,-0.37207 -0.471289,-0.768945 -0.1736328,-0.42168 -0.3472656,-0.84336 -0.3472657,0.37207 -1.1410157,0.719336 -0.8185546,0.347266 -1.4386718,0.347266 -1.0417969,0 -1.0417969,-0.967383 0,-0.620117 0.9921875,-1.141016 0.9921875,-0.545703 1.8355469,-0.545703 0.1984375,0 0.2728515,0.02481 -0.1240234,-0.520899 -0.1736328,-1.041797 -0.049609,-0.520898 -0.074414,-1.041797 -0.4712891,0.396875 -1.6123047,0.396875 -2.0091797,0 -2.0091797,-1.21543 0,-1.190624 2.0091797,-1.190624 1.1410156,0 1.6123047,0.396875 0,-0.520899 0.049609,-1.041797 0.074414,-0.545703 0.1984375,-1.041797 H 7.1295758 q -0.8929688,0 -1.8851563,-0.595313 Q 4.252232,37.088215 4.252232,36.26966 q 0,-0.818554 0.9425782,-0.818554 0.7937499,0 1.5874999,0.347265 0.79375,0.347266 1.1658203,0.79375 z m 11.0380856,13.91543 q -1.860351,-0.496094 -3.199804,-1.5875 -1.339454,-1.091406 -2.207618,-2.406055 -0.843359,-1.314648 -1.265039,-2.678906 -0.396875,-1.364258 -0.396875,-2.455664 0,-1.810742 0.595313,-3.348633 0.595312,-1.562695 1.5875,-2.778125 0.992187,-1.240234 2.257226,-2.108398 1.289844,-0.868164 2.629297,-1.314649 -0.74414,0.04961 -1.364258,0.07442 -0.620117,0.0248 -1.190625,0.07441 -0.570507,0.04961 -1.11621,0.148828 -0.545704,0.09922 -1.141016,0.272851 -1.736328,0.496094 -2.926953,1.339453 -1.190625,0.84336 -1.9347658,1.984375 -0.7441406,1.116211 -1.0666015,2.530078 -0.322461,1.389063 -0.322461,2.976563 0,1.637109 0.3720703,3.175 0.396875,1.513086 1.3394532,2.703711 0.8185548,1.041797 1.7859378,1.661914 0.992187,0.595312 2.133203,0.942578 1.16582,0.347265 2.505273,0.496094 1.339453,0.148828 2.926953,0.297656 z m -11.6830074,-0.719336 0.2728515,0.07441 q 0.396875,0 0.8929688,-0.520898 0.4960937,-0.545704 0.4960937,-0.917774 L 8.9155132,48.17591 8.6674664,48.126301 q -0.3720704,0 -0.9177735,0.496094 -0.5208984,0.496093 -0.5208984,0.892968 z M 4.9963727,36.468098 q 0.396875,0.917773 1.7115234,0.917773 L 7.2287945,37.11302 Q 6.7575054,36.195246 5.6909039,36.195246 Z m -0.8185547,4.71289 q 0.2232422,0.496094 1.2402343,0.496094 0.6697266,0 1.0169922,-0.496094 -0.3224609,-0.471289 -1.0169922,-0.471289 -1.0169921,0 -1.2402343,0.471289 z m 3.0509765,-8.359179 q 0,0.198437 0.1240234,0.396875 0.1488282,0.173633 0.3472657,0.322461 0.2232421,0.148828 0.4464843,0.248047 0.2480469,0.09922 0.4464844,0.09922 0.1240234,0 0.3224609,-0.07441 l 0.049609,-0.248046 q 0,-0.347266 -0.4960937,-0.719336 -0.4960938,-0.372071 -0.8433594,-0.372071 -0.1736328,0 -0.3224609,0.07441 z m 4.0431645,-3.348633 q -0.09922,0.173633 -0.09922,0.471289 0,0.446485 0.248047,0.967383 0.248046,0.520898 0.595312,0.520898 0.42168,0 0.42168,-0.421679 0,-1.016992 -1.16582,-1.537891 z m 0,23.117969 0.223242,0.04961 q 0.297656,0 0.644922,-0.520898 0.32246,-0.496094 0.32246,-0.892969 L 12.214537,50.65638 q -0.967383,0.496094 -0.967383,1.5875 z M 4.9963727,45.869074 q 0.1736328,0.09922 0.4960937,0.09922 1.2154297,0 1.7363281,-1.066601 -0.1240234,-0.0248 -0.2232422,-0.0248 -0.099219,0 -0.2232422,0 -0.8433593,0 -1.2154296,0.297656 -0.3720703,0.272852 -0.5705078,0.694531 z M 27.469419,30.986262 q -0.843359,0 -1.53789,0.173633 -0.669727,0.148828 -0.942579,0.471289 0.347266,0.496094 1.091407,0.744141 0.768945,0.223242 1.711523,0.223242 1.661914,0 1.661914,-0.644922 0,-0.496094 -0.520898,-0.719336 -0.520899,-0.248047 -1.463477,-0.248047 z m 0,20.389453 q 0.942578,0 1.463477,-0.223242 0.520898,-0.248047 0.520898,-0.719336 0,-0.644922 -1.661914,-0.644922 -0.917773,0 -1.686719,0.248047 -0.74414,0.223242 -1.116211,0.719336 0.272852,0.322461 0.942579,0.471289 0.669726,0.148828 1.53789,0.148828 z"
         style="stroke-width:0.26458332"
         id="path5290"
         inkscape:connector-curvature="0" />
    </g>
  </g>
</svg>
