<?xml version="1.0" encoding="UTF-8" standalone="no"?>
<!-- Created with Inkscape (http://www.inkscape.org/) -->

<svg
   xmlns:dc="http://purl.org/dc/elements/1.1/"
   xmlns:cc="http://creativecommons.org/ns#"
   xmlns:rdf="http://www.w3.org/1999/02/22-rdf-syntax-ns#"
   xmlns:svg="http://www.w3.org/2000/svg"
   xmlns="http://www.w3.org/2000/svg"
   xmlns:sodipodi="http://sodipodi.sourceforge.net/DTD/sodipodi-0.dtd"
   xmlns:inkscape="http://www.inkscape.org/namespaces/inkscape"
   width="24.730272mm"
   height="38.124805mm"
   viewBox="0 0 24.730272 38.124805"
   version="1.1"
   id="svg5299"
   inkscape:version="0.92.4 (5da689c313, 2019-01-14)"
   sodipodi:docname="T25.svg">
  <defs
     id="defs5293" />
  <sodipodi:namedview
     id="base"
     pagecolor="#ffffff"
     bordercolor="#666666"
     borderopacity="1.0"
     inkscape:pageopacity="0.0"
     inkscape:pageshadow="2"
     inkscape:zoom="0.35"
     inkscape:cx="-343.25893"
     inkscape:cy="-384.21429"
     inkscape:document-units="mm"
     inkscape:current-layer="layer1"
     showgrid="false"
     fit-margin-top="0"
     fit-margin-left="0"
     fit-margin-right="0"
     fit-margin-bottom="0"
     inkscape:window-width="1920"
     inkscape:window-height="1017"
     inkscape:window-x="-8"
     inkscape:window-y="-8"
     inkscape:window-maximized="1" />
  <metadata
     id="metadata5296">
    <rdf:RDF>
      <cc:Work
         rdf:about="">
        <dc:format>image/svg+xml</dc:format>
        <dc:type
           rdf:resource="http://purl.org/dc/dcmitype/StillImage" />
        <dc:title></dc:title>
      </cc:Work>
    </rdf:RDF>
  </metadata>
  <g
     inkscape:label="Layer 1"
     inkscape:groupmode="layer"
     id="layer1"
     transform="translate(-3.5080914,-9.0518331)">
    <g
       aria-label="𓌥"
       style="font-style:normal;font-variant:normal;font-weight:normal;font-stretch:normal;font-size:50.79999924px;line-height:1.25;font-family:sans-serif;-inkscape-font-specification:'sans-serif, Normal';font-variant-ligatures:normal;font-variant-caps:normal;font-variant-numeric:normal;font-feature-settings:normal;text-align:start;letter-spacing:0px;word-spacing:0px;writing-mode:lr-tb;text-anchor:start;fill:#000000;fill-opacity:1;stroke:none;stroke-width:0.26458332"
       id="text5846">
      <path
         d="m 8.8907085,42.240505 1.7363285,4.415234 -0.396875,0.520898 H 3.8305524 L 3.5080914,46.581325 7.030357,41.471559 q -0.074414,-0.570508 -0.099219,-1.16582 -0.024805,-0.595313 -0.024805,-1.16582 0,-3.844727 1.3146484,-8.309571 Q 9.5356298,26.3407 11.768051,21.5782 l 2.480469,-5.333008 -0.04961,-0.09922 Q 11.271959,15.27781 10.32938,14.756911 9.3868023,14.236013 9.3868023,13.764724 q 0,-0.620117 0.7441407,-0.620117 1.314648,0 3.943945,2.554882 l -1.785937,-6.1763668 0.37207,-0.4712891 h 6.821289 l 0.396875,0.5208985 -1.984375,6.6724604 3.199805,7.639844 q 2.455664,5.97793 3.12539,9.128125 0.669727,3.12539 0.669727,5.705078 0,0.694531 -0.04961,1.389062 -0.0248,0.669727 -0.124023,1.364258 l 3.522265,5.060156 -0.347265,0.644922 H 21.49149 L 21.169029,46.581325 22.880552,42.2157 q -1.885156,0.248047 -3.795117,0.297656 -1.909961,0.04961 -3.770312,0.04961 -1.612305,0 -3.22461,-0.0248 -1.612304,-0.04961 -3.1998045,-0.297656 z m -1.0914062,-0.967383 0.2976562,0.04961 Q 11.644029,38.544607 13.50438,33.682888 15.364732,28.82117 15.488755,21.900662 h 0.79375 q 1.041797,9.053711 2.80293,13.047266 1.761133,3.968749 4.539258,6.349999 l 0.297656,-0.04961 0.04961,-0.322461 q 0.297657,-2.232422 -0.09922,-5.18418 -0.372071,-2.976562 -1.041797,-5.109765 -0.644922,-2.133203 -2.455664,-6.424414 l -1.5875,-3.770312 q -0.79375,-1.860352 -1.5875,-3.770313 h -2.282031 l -1.686719,3.59668 Q 9.808482,27.456911 8.7666851,31.847341 7.7496929,36.23777 7.7496929,38.916676 v 1.190625 q 0,0.297657 0.024805,0.595313 v 0.272851 q 0,0.173633 0.024804,0.297657 z m 7.5158207,0.496093 q 1.810742,0 3.621484,-0.04961 1.835547,-0.04961 3.646289,-0.272851 -2.232422,-2.00918 -3.819922,-5.258594 -1.562695,-3.249414 -2.703711,-10.145117 -0.669726,5.581054 -2.430859,9.400976 -1.736328,3.795117 -4.4896486,6.052344 1.3146486,0.198437 2.6292966,0.248047 1.339453,0.0248 2.678906,0.0248 z M 13.206724,9.8455831 14.967857,15.873122 h 2.207617 L 18.986216,9.8455831 Z M 7.9977398,42.091676 7.6008648,42.017262 4.5994977,46.382887 h 5.0849608 z m 19.1740232,4.291211 -3.075781,-4.365625 -0.322461,0.04961 -1.686719,4.316015 z"
         style="stroke-width:0.26458332"
         id="path5848"
         inkscape:connector-curvature="0" />
    </g>
  </g>
</svg>
