<?xml version="1.0" encoding="UTF-8" standalone="no"?>
<!-- Created with Inkscape (http://www.inkscape.org/) -->

<svg
   xmlns:dc="http://purl.org/dc/elements/1.1/"
   xmlns:cc="http://creativecommons.org/ns#"
   xmlns:rdf="http://www.w3.org/1999/02/22-rdf-syntax-ns#"
   xmlns:svg="http://www.w3.org/2000/svg"
   xmlns="http://www.w3.org/2000/svg"
   xmlns:sodipodi="http://sodipodi.sourceforge.net/DTD/sodipodi-0.dtd"
   xmlns:inkscape="http://www.inkscape.org/namespaces/inkscape"
   width="38.050388mm"
   height="25.623241mm"
   viewBox="0 0 38.050388 25.623241"
   version="1.1"
   id="svg5857"
   inkscape:version="0.92.4 (5da689c313, 2019-01-14)"
   sodipodi:docname="T26.svg">
  <defs
     id="defs5851" />
  <sodipodi:namedview
     id="base"
     pagecolor="#ffffff"
     bordercolor="#666666"
     borderopacity="1.0"
     inkscape:pageopacity="0.0"
     inkscape:pageshadow="2"
     inkscape:zoom="0.35"
     inkscape:cx="-340.40179"
     inkscape:cy="-358.50001"
     inkscape:document-units="mm"
     inkscape:current-layer="layer1"
     showgrid="false"
     fit-margin-top="0"
     fit-margin-left="0"
     fit-margin-right="0"
     fit-margin-bottom="0"
     inkscape:window-width="1920"
     inkscape:window-height="1017"
     inkscape:window-x="-8"
     inkscape:window-y="-8"
     inkscape:window-maximized="1" />
  <metadata
     id="metadata5854">
    <rdf:RDF>
      <cc:Work
         rdf:about="">
        <dc:format>image/svg+xml</dc:format>
        <dc:type
           rdf:resource="http://purl.org/dc/dcmitype/StillImage" />
        <dc:title></dc:title>
      </cc:Work>
    </rdf:RDF>
  </metadata>
  <g
     inkscape:label="Layer 1"
     inkscape:groupmode="layer"
     id="layer1"
     transform="translate(-2.7521392,-28.356965)">
    <g
       aria-label="𓌦"
       style="font-style:normal;font-variant:normal;font-weight:normal;font-stretch:normal;font-size:50.79999924px;line-height:1.25;font-family:sans-serif;-inkscape-font-specification:'sans-serif, Normal';font-variant-ligatures:normal;font-variant-caps:normal;font-variant-numeric:normal;font-feature-settings:normal;text-align:start;letter-spacing:0px;word-spacing:0px;writing-mode:lr-tb;text-anchor:start;fill:#000000;fill-opacity:1;stroke:none;stroke-width:0.26458332"
       id="text6404">
      <path
         d="m 40.405654,32.747395 v 1.265039 l -4.638476,1.389062 v 3.671094 h 4.638476 v 1.240234 h -4.638476 v 8.061524 h 4.613672 l 0.421679,0.396875 v 4.812109 L 40.38085,53.980207 H 3.1242095 L 2.7521392,53.508918 v -4.663281 l 0.3720703,-0.471289 h 5.630664 q 0.6945312,-2.778125 1.7859375,-4.440039 1.091406,-1.686719 2.728516,-2.629297 1.661914,-0.967383 3.943945,-1.364258 2.282031,-0.396875 5.357812,-0.644922 2.951758,-1.95957 7.615039,-3.894336 v -6.573242 l 0.37207,-0.471289 h 4.787305 l 0.42168,0.396875 v 5.382617 z M 3.5458892,49.168098 v 4.018359 H 40.008779 v -4.018359 z m 26.6402338,-0.79375 v -8.061524 h -7.218164 q -1.389062,0.917774 -2.629297,1.934766 -1.240234,1.016992 -2.306836,2.058789 -1.041796,1.041797 -1.934765,2.083594 -0.868164,1.016992 -1.537891,1.984375 z m 4.787305,-19.223633 h -3.993555 v 19.223633 h 3.993555 z M 20.338662,40.66009 q -2.629296,0.272852 -4.365625,0.768945 -1.736328,0.471289 -2.902148,1.339453 -1.141016,0.868165 -1.835547,2.232422 -0.694531,1.364258 -1.2402342,3.373438 h 3.0509762 q 0.595313,-0.917774 1.389063,-1.909961 0.818555,-1.016992 1.761133,-2.00918 0.967382,-1.016992 2.009179,-1.95957 1.041797,-0.967383 2.133203,-1.835547 z m 9.847461,-1.5875 v -2.356445 l -4.836914,2.356445 z"
         style="stroke-width:0.26458332"
         id="path6406"
         inkscape:connector-curvature="0" />
    </g>
  </g>
</svg>
