<?xml version="1.0" encoding="UTF-8" standalone="no"?>
<!-- Created with Inkscape (http://www.inkscape.org/) -->

<svg
   xmlns:dc="http://purl.org/dc/elements/1.1/"
   xmlns:cc="http://creativecommons.org/ns#"
   xmlns:rdf="http://www.w3.org/1999/02/22-rdf-syntax-ns#"
   xmlns:svg="http://www.w3.org/2000/svg"
   xmlns="http://www.w3.org/2000/svg"
   xmlns:sodipodi="http://sodipodi.sourceforge.net/DTD/sodipodi-0.dtd"
   xmlns:inkscape="http://www.inkscape.org/namespaces/inkscape"
   width="8.9544916mm"
   height="37.256641mm"
   viewBox="0 0 8.9544916 37.256641"
   version="1.1"
   id="svg8"
   inkscape:version="0.92.4 (5da689c313, 2019-01-14)"
   sodipodi:docname="T3.svg">
  <defs
     id="defs2" />
  <sodipodi:namedview
     id="base"
     pagecolor="#ffffff"
     bordercolor="#666666"
     borderopacity="1.0"
     inkscape:pageopacity="0.0"
     inkscape:pageshadow="2"
     inkscape:zoom="0.35"
     inkscape:cx="-357.54492"
     inkscape:cy="-356.26047"
     inkscape:document-units="mm"
     inkscape:current-layer="layer1"
     showgrid="false"
     fit-margin-top="0"
     fit-margin-left="0"
     fit-margin-right="0"
     fit-margin-bottom="0"
     inkscape:window-width="1920"
     inkscape:window-height="1017"
     inkscape:window-x="-8"
     inkscape:window-y="-8"
     inkscape:window-maximized="1" />
  <metadata
     id="metadata5">
    <rdf:RDF>
      <cc:Work
         rdf:about="">
        <dc:format>image/svg+xml</dc:format>
        <dc:type
           rdf:resource="http://purl.org/dc/dcmitype/StillImage" />
        <dc:title></dc:title>
      </cc:Work>
    </rdf:RDF>
  </metadata>
  <g
     inkscape:label="Layer 1"
     inkscape:groupmode="layer"
     id="layer1"
     transform="translate(-7.2879272,-17.316111)">
    <g
       aria-label="𓌉"
       transform="scale(0.26458333)"
       style="font-style:normal;font-variant:normal;font-weight:normal;font-stretch:normal;font-size:192px;line-height:1.25;font-family:sans-serif;-inkscape-font-specification:sans-serif;font-variant-ligatures:normal;font-variant-caps:normal;font-variant-numeric:normal;font-feature-settings:normal;text-align:start;letter-spacing:0px;word-spacing:0px;writing-mode:lr-tb;text-anchor:start;fill:#000000;fill-opacity:1;stroke:none"
       id="flowRoot4518">
      <path
         d="m 42.263672,113.54047 q 0,-1.59375 -0.75,-3.1875 -0.65625,-1.6875 -1.875,-3.375 -1.21875,-1.6875 -2.71875,-3.375 -1.5,-1.78125 -3.09375,-3.656252 -6.28125,-7.40625 -6.28125,-13.59375 0,-2.90625 1.03125,-5.8125 1.03125,-2.90625 2.8125,-5.15625 1.875,-2.34375 4.40625,-3.75 2.625,-1.40625 5.625,-1.40625 l -1.21875,-4.78125 h 7.59375 l -1.125,4.59375 q 2.90625,0 5.53125,1.40625 2.71875,1.40625 4.78125,3.75 2.0625,2.34375 3.1875,5.34375 1.21875,2.90625 1.21875,6.09375 0,3.375 -1.6875,7.5 -1.6875,4.03125 -4.40625,7.593752 -1.40625,1.78125 -2.8125,3.46875 -1.40625,1.59375 -2.625,3 -1.21875,1.40625 -2.0625,2.71875 -0.75,1.21875 -0.84375,2.25 v 93.09375 h -4.6875 z m 16.125,-27.187502 q 0,-2.90625 -1.3125,-5.34375 -1.21875,-2.53125 -3.28125,-4.21875 -1.96875,-1.78125 -4.5,-2.71875 -2.4375,-1.03125 -4.96875,-1.03125 -2.625,0 -5.15625,0.84375 -2.4375,0.84375 -4.40625,2.4375 -1.875,1.59375 -3.09375,3.9375 -1.125,2.34375 -1.125,5.34375 0,3.09375 1.5,6.46875 1.59375,3.28125 4.78125,7.3125 1.59375,2.062502 2.8125,3.468752 1.3125,1.40625 2.25,2.53125 0.9375,1.125 1.6875,2.15625 0.75,0.9375 1.3125,2.0625 1.5,-1.78125 3.09375,-3.65625 1.6875,-1.875 4.125,-5.34375 5.90625,-8.156252 6.28125,-14.250002 z"
         id="path4526"
         inkscape:connector-curvature="0" />
    </g>
  </g>
</svg>
