<?xml version="1.0" encoding="UTF-8" standalone="no"?>
<!-- Created with Inkscape (http://www.inkscape.org/) -->

<svg
   xmlns:dc="http://purl.org/dc/elements/1.1/"
   xmlns:cc="http://creativecommons.org/ns#"
   xmlns:rdf="http://www.w3.org/1999/02/22-rdf-syntax-ns#"
   xmlns:svg="http://www.w3.org/2000/svg"
   xmlns="http://www.w3.org/2000/svg"
   xmlns:sodipodi="http://sodipodi.sourceforge.net/DTD/sodipodi-0.dtd"
   xmlns:inkscape="http://www.inkscape.org/namespaces/inkscape"
   width="37.851952mm"
   height="25.648033mm"
   viewBox="0 0 37.851952 25.648033"
   version="1.1"
   id="svg7349"
   inkscape:version="0.92.4 (5da689c313, 2019-01-14)"
   sodipodi:docname="T32.svg">
  <defs
     id="defs7343" />
  <sodipodi:namedview
     id="base"
     pagecolor="#ffffff"
     bordercolor="#666666"
     borderopacity="1.0"
     inkscape:pageopacity="0.0"
     inkscape:pageshadow="2"
     inkscape:zoom="0.35"
     inkscape:cx="-306.11523"
     inkscape:cy="-357.43034"
     inkscape:document-units="mm"
     inkscape:current-layer="layer1"
     showgrid="false"
     fit-margin-top="0"
     fit-margin-left="0"
     fit-margin-right="0"
     fit-margin-bottom="0"
     inkscape:window-width="1920"
     inkscape:window-height="1017"
     inkscape:window-x="-8"
     inkscape:window-y="-8"
     inkscape:window-maximized="1" />
  <metadata
     id="metadata7346">
    <rdf:RDF>
      <cc:Work
         rdf:about="">
        <dc:format>image/svg+xml</dc:format>
        <dc:type
           rdf:resource="http://purl.org/dc/dcmitype/StillImage" />
        <dc:title></dc:title>
      </cc:Work>
    </rdf:RDF>
  </metadata>
  <g
     inkscape:label="Layer 1"
     inkscape:groupmode="layer"
     id="layer1"
     transform="translate(6.3195109,-28.61519)">
    <g
       aria-label="𓌬"
       transform="scale(0.26458333)"
       style="font-style:normal;font-variant:normal;font-weight:normal;font-stretch:normal;font-size:192px;line-height:1.25;font-family:sans-serif;-inkscape-font-specification:sans-serif;font-variant-ligatures:normal;font-variant-caps:normal;font-variant-numeric:normal;font-feature-settings:normal;text-align:start;letter-spacing:0px;word-spacing:0px;writing-mode:lr-tb;text-anchor:start;fill:#000000;fill-opacity:1;stroke:none"
       id="flowRoot7894">
      <path
         d="m 97.521484,151.6518 q -2.8125,3.9375 -6.65625,5.71875 -3.75,1.6875 -8.53125,1.6875 -1.21875,0 -2.53125,-0.0937 -1.21875,-0.0937 -2.53125,-0.28125 0.75,2.15625 1.03125,4.3125 0.375,2.15625 0.375,4.3125 0,4.6875 -0.84375,9.375 -0.75,4.6875 -0.75,9.375 l 0.09375,1.6875 q 0,1.125 0.09375,2.0625 0.1875,0.84375 0.46875,1.875 l 0.84375,2.71875 q 0.375,1.40625 0.65625,2.90625 0.375,1.5 0.375,2.8125 0,2.625 -1.40625,3.65625 -1.3125,1.125 -2.90625,1.125 -1.5,0 -3.375,-0.75 -1.78125,-0.65625 -4.6875,-0.84375 h -0.5625 q -1.96875,0 -6.9375,0.84375 -4.875,0.9375 -6.65625,0.9375 -1.03125,0 -1.78125,-0.1875 -0.65625,-0.1875 -1.21875,-0.75 l -1.125,-0.84375 q 0.1875,-0.65625 0.1875,-1.21875 0,-0.65625 0.28125,-1.3125 3.75,-1.59375 9.75,-2.90625 6.09375,-1.3125 9.1875,-2.71875 0.46875,-2.15625 0.65625,-4.21875 0.1875,-2.0625 0.1875,-4.21875 0,-3.84375 -0.46875,-7.6875 l -2.15625,-15.375 q -0.5625,-3.75 -0.5625,-7.59375 -2.4375,-0.1875 -4.78125,-0.9375 l -4.6875,-1.40625 q 0.28125,1.59375 0.28125,3.28125 0,6.9375 -4.96875,21.65625 -4.875,14.71875 -4.875,23.34375 -0.1875,0.28125 -0.1875,0.65625 0,0.375 -1.40625,1.21875 -1.40625,0.9375 -3.28125,0.9375 -2.15625,0 -4.3125,-0.75 -2.15625,-0.65625 -4.3125,-0.75 h -1.6875 q -2.8125,0 -5.71875,0.46875 -2.8125,0.5625 -6.46875,1.03125 l -2.4375,0.1875 q -1.125,0 -1.78125,-0.65625 -0.65625,-0.65625 -0.84375,-1.59375 v -0.28125 q 0.375,-0.9375 0.46875,-1.40625 0.5625,-0.5625 2.0625,-0.9375 1.5,-0.46875 1.875,-0.5625 l 0.5625,-0.0937 9.1875,-2.625 q 4.59375,-1.21875 9.28125,-2.34375 3.1875,-7.875 4.21875,-22.21875 1.125,-14.4375 3.84375,-22.125 l -11.71875,-4.5 q -22.96875,-8.71875 -37.1249996,-17.25 -14.0625004,-8.53125 -21.0937504,-18.09375 l 1.6875,-2.15625 122.906246,31.59375 q 6,1.59375 12.1875,11.34375 6.28125,9.65625 6.28125,16.125 0,3.9375 -2.25,6.09375 -2.25,2.15625 -6.28125,2.15625 h -0.75 q -5.625,-0.46875 -8.71875,-7.875 -2.999996,-7.40625 -3.656246,-15.9375 z m -28.5,3.46875 q 0,5.90625 1.5,16.03125 1.5,10.125 1.5,15.9375 0,4.96875 -0.9375,9.5625 l -1.03125,1.03125 q -3.28125,1.40625 -6.75,2.25 -3.375,0.75 -6.84375,1.6875 2.71875,-0.28125 5.34375,-0.65625 2.625,-0.46875 5.34375,-0.46875 1.875,0 3.65625,0.375 1.78125,0.28125 3.65625,1.03125 0.46875,0 0.84375,0 0.46875,0 0.84375,-0.28125 0.375,-0.5625 0.46875,-0.84375 0,-2.53125 -1.21875,-6.5625 -1.125,-4.03125 -1.125,-7.40625 0.1875,-4.3125 0.9375,-9 0.75,-4.6875 0.75,-9.375 0,-3 -0.5625,-5.71875 -0.5625,-2.8125 -1.96875,-5.34375 l 1.6875,-2.15625 q 1.875,0.46875 3.65625,0.75 1.875,0.1875 3.5625,0.1875 5.0625,0 8.8125,-2.34375 3.84375,-2.34375 6.1875,-7.96875 l 0.1875,-0.46875 2.812496,0.75 v 0.375 q 0,8.4375 2.625,17.15625 2.71875,8.71875 8.0625,8.71875 2.625,0 3.84375,-1.125 1.3125,-1.21875 1.3125,-3.84375 0,-5.34375 -5.4375,-14.34375 -5.4375,-9.09375 -10.968746,-10.5 l -118.6875,-30.5625 q 2.34375,3.1875 6.375,6.375 4.1250004,3.1875 8.4375004,5.625 l 5.4375,3.09375 q 11.2499996,6.375 23.0624996,11.25 11.8125,4.875 23.90625,9.5625 l 1.03125,1.875 q -3,7.96875 -4.21875,22.96875 -1.125,14.90625 -4.59375,23.4375 l -1.03125,1.03125 q -3.9375,0.9375 -7.6875,1.96875 l -7.6875,2.0625 4.6875,-0.75 q 1.78125,-0.1875 3.65625,-0.1875 h 1.03125 q 1.5,0 3,0.375 l 2.71875,0.65625 q 1.3125,0.375 2.53125,0.46875 l 0.5625,0.0937 q 0.75,0 1.40625,-0.28125 l 0.28125,-0.28125 q 0.1875,-8.0625 3.5625,-18.5625 3.375,-10.5 4.40625,-14.71875 l 1.21875,-5.25 q 0.65625,-2.8125 0.65625,-5.625 0,-2.53125 -0.65625,-4.5 0,-0.1875 -0.09375,-0.46875 l 1.6875,-2.15625 q 3.28125,1.03125 6.46875,1.96875 3.28125,0.84375 6.65625,1.3125 l 1.125,1.40625 z"
         id="path7902"
         inkscape:connector-curvature="0" />
    </g>
  </g>
</svg>
