<?xml version="1.0" encoding="UTF-8" standalone="no"?>
<!-- Created with Inkscape (http://www.inkscape.org/) -->

<svg
   xmlns:dc="http://purl.org/dc/elements/1.1/"
   xmlns:cc="http://creativecommons.org/ns#"
   xmlns:rdf="http://www.w3.org/1999/02/22-rdf-syntax-ns#"
   xmlns:svg="http://www.w3.org/2000/svg"
   xmlns="http://www.w3.org/2000/svg"
   xmlns:sodipodi="http://sodipodi.sourceforge.net/DTD/sodipodi-0.dtd"
   xmlns:inkscape="http://www.inkscape.org/namespaces/inkscape"
   width="37.851952mm"
   height="37.256641mm"
   viewBox="0 0 37.851952 37.256641"
   version="1.1"
   id="svg7911"
   inkscape:version="0.92.4 (5da689c313, 2019-01-14)"
   sodipodi:docname="T32A.svg">
  <defs
     id="defs7905" />
  <sodipodi:namedview
     id="base"
     pagecolor="#ffffff"
     bordercolor="#666666"
     borderopacity="1.0"
     inkscape:pageopacity="0.0"
     inkscape:pageshadow="2"
     inkscape:zoom="0.35"
     inkscape:cx="-334.6875"
     inkscape:cy="-359.11789"
     inkscape:document-units="mm"
     inkscape:current-layer="layer1"
     showgrid="false"
     fit-margin-top="0"
     fit-margin-left="0"
     fit-margin-right="0"
     fit-margin-bottom="0"
     inkscape:window-width="1920"
     inkscape:window-height="1017"
     inkscape:window-x="-8"
     inkscape:window-y="-8"
     inkscape:window-maximized="1" />
  <metadata
     id="metadata7908">
    <rdf:RDF>
      <cc:Work
         rdf:about="">
        <dc:format>image/svg+xml</dc:format>
        <dc:type
           rdf:resource="http://purl.org/dc/dcmitype/StillImage" />
        <dc:title></dc:title>
      </cc:Work>
    </rdf:RDF>
  </metadata>
  <g
     inkscape:label="Layer 1"
     inkscape:groupmode="layer"
     id="layer1"
     transform="translate(-1.2402344,-16.560084)">
    <g
       aria-label="𓌭"
       transform="scale(0.26458333)"
       style="font-style:normal;font-variant:normal;font-weight:normal;font-stretch:normal;font-size:192px;line-height:1.25;font-family:sans-serif;-inkscape-font-specification:sans-serif;font-variant-ligatures:normal;font-variant-caps:normal;font-variant-numeric:normal;font-feature-settings:normal;text-align:start;letter-spacing:0px;word-spacing:0px;writing-mode:lr-tb;text-anchor:start;fill:#000000;fill-opacity:1;stroke:none"
       id="flowRoot8456">
      <path
         d="m 112.03125,123.3393 17.25,4.40625 q 5.8125,1.5 12.1875,11.71875 6.28125,10.03125 6.28125,15.65625 0,3.46875 -2.8125,6 -2.90625,2.4375 -6.375,2.4375 -4.125,0 -6.9375,-4.03125 -2.71875,-4.125 -4.40625,-15.375 l -0.75,-5.0625 -1.21875,1.6875 q -2.4375,2.8125 -5.90625,4.21875 -3.375,1.3125 -7.3125,1.59375 v 11.0625 h -4.6875 v -11.0625 q -1.59375,-0.0937 -4.125,-0.375 -2.4375,-0.375 -5.34375,-0.84375 -2.8125,-0.46875 -5.8125,-1.03125 -3,-0.65625 -5.625,-1.40625 V 203.4018 H 81.75 v -62.625 q -10.96875,-3.5625 -22.21875,-8.34375 -11.25,-4.875 -23.25,-10.875 Q 12.65625,109.6518 4.6875,98.401796 L 6.375,96.245546 81.75,115.55805 V 76.089296 q 0,-6.1875 3.65625,-9.65625 3.65625,-3.46875 11.53125,-3.84375 15.09375,1.03125 15.09375,13.5 z m -4.6875,-47.156254 q 0,-1.6875 -0.5625,-3.28125 -0.5625,-1.6875 -1.875,-2.90625 -1.21875,-1.21875 -3.28125,-1.96875 -1.96875,-0.75 -4.875,-0.75 -2.625,0 -4.5,0.75 -1.875,0.75 -3.09375,1.96875 -1.21875,1.21875 -1.875,2.90625 -0.65625,1.59375 -0.84375,3.28125 v 40.500004 l 20.90625,5.34375 z M 81.75,137.7768 q 4.40625,1.6875 9.09375,2.90625 4.03125,1.125 8.90625,2.0625 4.875,0.84375 9.75,0.84375 5.71875,0 9.65625,-2.15625 4.03125,-2.15625 5.625,-5.25 l 1.3125,-2.71875 2.8125,0.75 q 0,0.84375 1.96875,13.59375 1.96875,12.75 7.875,12.75 2.0625,0 3.9375,-1.40625 1.96875,-1.40625 1.96875,-4.21875 0,-2.8125 -2.15625,-7.40625 -1.03125,-2.34375 -2.53125,-4.6875 -1.40625,-2.4375 -4.125,-6.28125 -3.5625,-5.0625 -7.5,-6 -13.6875,-3.46875 -23.90625,-6.09375 -10.21875,-2.71875 -17.90625,-4.59375 -7.59375,-1.96875 -13.125,-3.375 -5.53125,-1.40625 -9.84375,-2.4375 -4.21875,-1.125 -7.6875,-1.96875 -3.375,-0.9375 -6.84375,-1.78125 -10.40625,-2.625 -20.15625,-5.0625 -9.65625,-2.53125 -18.84375,-4.96875 5.34375,5.90625 15.09375,11.625 9.65625,5.8125 24.46875,12.9375 7.40625,3.5625 15.375,6.84375 8.0625,3.1875 16.78125,6.09375 z"
         id="path8464"
         inkscape:connector-curvature="0" />
    </g>
  </g>
</svg>
