<?xml version="1.0" encoding="UTF-8" standalone="no"?>
<!-- Created with Inkscape (http://www.inkscape.org/) -->

<svg
   xmlns:dc="http://purl.org/dc/elements/1.1/"
   xmlns:cc="http://creativecommons.org/ns#"
   xmlns:rdf="http://www.w3.org/1999/02/22-rdf-syntax-ns#"
   xmlns:svg="http://www.w3.org/2000/svg"
   xmlns="http://www.w3.org/2000/svg"
   xmlns:sodipodi="http://sodipodi.sourceforge.net/DTD/sodipodi-0.dtd"
   xmlns:inkscape="http://www.inkscape.org/namespaces/inkscape"
   width="37.851952mm"
   height="18.033007mm"
   viewBox="0 0 37.851952 18.033007"
   version="1.1"
   id="svg8647"
   inkscape:version="0.92.4 (5da689c313, 2019-01-14)"
   sodipodi:docname="T33.svg">
  <defs
     id="defs8641" />
  <sodipodi:namedview
     id="base"
     pagecolor="#ffffff"
     bordercolor="#666666"
     borderopacity="1.0"
     inkscape:pageopacity="0.0"
     inkscape:pageshadow="2"
     inkscape:zoom="0.35"
     inkscape:cx="-363.25893"
     inkscape:cy="-382.85715"
     inkscape:document-units="mm"
     inkscape:current-layer="layer1"
     showgrid="false"
     fit-margin-top="0"
     fit-margin-left="0"
     fit-margin-right="0"
     fit-margin-bottom="0"
     inkscape:window-width="1920"
     inkscape:window-height="1017"
     inkscape:window-x="-8"
     inkscape:window-y="-8"
     inkscape:window-maximized="1" />
  <metadata
     id="metadata8644">
    <rdf:RDF>
      <cc:Work
         rdf:about="">
        <dc:format>image/svg+xml</dc:format>
        <dc:type
           rdf:resource="http://purl.org/dc/dcmitype/StillImage" />
        <dc:title></dc:title>
      </cc:Work>
    </rdf:RDF>
  </metadata>
  <g
     inkscape:label="Layer 1"
     inkscape:groupmode="layer"
     id="layer1"
     transform="translate(-8.7997579,-29.502706)">
    <g
       aria-label="𓌮"
       style="font-style:normal;font-variant:normal;font-weight:normal;font-stretch:normal;font-size:50.79999924px;line-height:1.25;font-family:sans-serif;-inkscape-font-specification:'sans-serif, Normal';font-variant-ligatures:normal;font-variant-caps:normal;font-variant-numeric:normal;font-feature-settings:normal;text-align:start;letter-spacing:0px;word-spacing:0px;writing-mode:lr-tb;text-anchor:start;fill:#000000;fill-opacity:1;stroke:none;stroke-width:0.26458332"
       id="text9194">
      <path
         d="m 46.65171,32.553682 q 0,1.438672 -0.942578,2.43086 -0.892968,0.942578 -2.009179,1.661914 0.446484,0.595312 0.843359,1.488281 0.42168,0.868164 0.719336,1.835547 0.322461,0.942578 0.496094,1.885156 0.198437,0.942578 0.198437,1.686719 0,3.993554 -3.274218,3.993554 -0.620118,0 -1.190625,-0.248047 -0.570508,-0.248047 -1.016993,-0.669726 -0.446484,-0.446485 -0.719336,-1.041797 -0.248046,-0.595313 -0.248046,-1.314649 0,-3.174999 2.108398,-7.09414 l -0.297656,0.07441 q -2.232422,0.42168 -4.911328,0.694531 -2.678906,0.248047 -5.457031,0.248047 -7.416602,0 -12.997657,-1.785937 -5.581054,-1.785938 -9.1529291,-5.357813 L 9.1718282,30.37087 q 3.7455078,1.141015 7.6150388,2.033984 1.63711,0.37207 3.447852,0.744141 1.835547,0.37207 3.720703,0.644922 1.885156,0.272851 3.745508,0.446484 1.885156,0.173633 3.621484,0.173633 3.447851,0 6.002734,-0.496094 2.505274,-0.520898 3.224609,-1.016992 0.768946,-0.520899 1.314649,-2.232422 l 0.124023,-0.223242 q 0.446485,-0.372071 0.892969,-0.644922 0.471289,-0.297656 1.16582,-0.297656 0.545703,0 1.016993,0.248047 0.496093,0.223242 0.843359,0.644921 0.347266,0.42168 0.545703,0.992188 0.198437,0.545703 0.198437,1.16582 z M 10.511281,31.561495 q 1.959571,1.637109 4.464844,2.75332 2.505273,1.116211 5.208984,1.810742 2.728516,0.694531 5.531446,1.016992 2.827734,0.297657 5.432226,0.297657 2.480469,0 4.886523,-0.223243 2.43086,-0.248047 4.836914,-0.719336 l -1.265039,-2.33164 q -0.868164,0.322461 -3.199804,0.694531 -1.141016,0.173633 -2.43086,0.272852 -1.265039,0.07441 -2.728515,0.07441 -2.38125,0 -4.911328,-0.272852 -2.505274,-0.297656 -5.109766,-0.768945 -2.604492,-0.496094 -5.283398,-1.16582 -2.678906,-0.669727 -5.432227,-1.438672 z m 32.196484,6.101953 q -0.396875,0.79375 -0.74414,1.637109 -0.347266,0.818555 -0.595313,1.637109 -0.248047,0.79375 -0.396875,1.513086 -0.148828,0.719336 -0.148828,1.314649 0,1.116211 0.471289,1.835547 0.496094,0.694531 1.463477,0.694531 1.041796,0 1.53789,-0.768945 0.496094,-0.79375 0.496094,-2.083594 0,-0.744141 -0.148828,-1.537891 -0.124024,-0.79375 -0.396875,-1.53789 -0.248047,-0.768946 -0.620117,-1.463477 -0.347266,-0.694531 -0.768946,-1.240234 z m -1.041797,-1.314649 q 0.818555,-0.148828 1.63711,-0.37207 l 0.843359,-0.669727 q 1.041797,-0.79375 1.389063,-1.488281 0.347265,-0.719336 0.347265,-1.339453 0,-0.768945 -0.570508,-1.488281 -0.545703,-0.694531 -1.240234,-0.694531 -0.223242,0 -0.520898,0.09922 -0.297657,0.07441 -0.942579,0.570508 -0.198437,0.620117 -0.421679,1.091406 -0.198438,0.446485 -0.446485,0.79375 -0.248046,0.322461 -0.570507,0.570508 -0.322461,0.248047 -0.744141,0.446485 z"
         style="stroke-width:0.26458332"
         id="path9196"
         inkscape:connector-curvature="0" />
    </g>
  </g>
</svg>
