<?xml version="1.0" encoding="UTF-8" standalone="no"?>
<!-- Created with Inkscape (http://www.inkscape.org/) -->

<svg
   xmlns:dc="http://purl.org/dc/elements/1.1/"
   xmlns:cc="http://creativecommons.org/ns#"
   xmlns:rdf="http://www.w3.org/1999/02/22-rdf-syntax-ns#"
   xmlns:svg="http://www.w3.org/2000/svg"
   xmlns="http://www.w3.org/2000/svg"
   xmlns:sodipodi="http://sodipodi.sourceforge.net/DTD/sodipodi-0.dtd"
   xmlns:inkscape="http://www.inkscape.org/namespaces/inkscape"
   width="37.851955mm"
   height="37.256641mm"
   viewBox="0 0 37.851955 37.256641"
   version="1.1"
   id="svg8473"
   inkscape:version="0.92.4 (5da689c313, 2019-01-14)"
   sodipodi:docname="T33A.svg">
  <defs
     id="defs8467" />
  <sodipodi:namedview
     id="base"
     pagecolor="#ffffff"
     bordercolor="#666666"
     borderopacity="1.0"
     inkscape:pageopacity="0.0"
     inkscape:pageshadow="2"
     inkscape:zoom="0.35"
     inkscape:cx="-328.97266"
     inkscape:cy="-347.69016"
     inkscape:document-units="mm"
     inkscape:current-layer="layer1"
     showgrid="false"
     fit-margin-top="0"
     fit-margin-left="0"
     fit-margin-right="0"
     fit-margin-bottom="0"
     inkscape:window-width="1920"
     inkscape:window-height="1017"
     inkscape:window-x="-8"
     inkscape:window-y="-8"
     inkscape:window-maximized="1" />
  <metadata
     id="metadata8470">
    <rdf:RDF>
      <cc:Work
         rdf:about="">
        <dc:format>image/svg+xml</dc:format>
        <dc:type
           rdf:resource="http://purl.org/dc/dcmitype/StillImage" />
        <dc:title></dc:title>
      </cc:Work>
    </rdf:RDF>
  </metadata>
  <g
     inkscape:label="Layer 1"
     inkscape:groupmode="layer"
     id="layer1"
     transform="translate(0.27181802,-19.583672)">
    <g
       aria-label="𓌯"
       transform="scale(0.26458333)"
       style="font-style:normal;font-variant:normal;font-weight:normal;font-stretch:normal;font-size:192px;line-height:1.25;font-family:sans-serif;-inkscape-font-specification:sans-serif;font-variant-ligatures:normal;font-variant-caps:normal;font-variant-numeric:normal;font-feature-settings:normal;text-align:start;letter-spacing:0px;word-spacing:0px;writing-mode:lr-tb;text-anchor:start;fill:#000000;fill-opacity:1;stroke:none"
       id="flowRoot9018">
      <path
         d="m 142.03516,131.57953 q 0,5.4375 -3.5625,9.1875 -3.375,3.5625 -7.59375,6.28125 1.6875,2.25 3.1875,5.625 1.59375,3.28125 2.71875,6.9375 1.21875,3.5625 1.875,7.125 0.75,3.5625 0.75,6.375 0,15.09375 -12.375,15.09375 -2.53125,0 -4.78125,-0.9375 -2.15625,-0.9375 -3.75,-2.625 -1.59375,-1.6875 -2.53125,-3.9375 -0.9375,-2.25 -0.9375,-4.875 0,-12 7.96875,-26.8125 -2.90625,0.65625 -6.375,1.21875 -3.46875,0.46875 -7.03125,0.9375 -3.46875,0.375 -6.75,0.75 -3.281254,0.28125 -5.718754,0.46875 v 16.6875 h -4.6875 v -16.125 h -20.90625 v 61.875 h -4.6875 v -62.53125 q -22.59375,-1.78125 -39.5625,-8.4375 -16.96875,-6.65625 -28.3124997,-18 l 1.40624995,-2.53125 q 14.53124975,4.5 26.62499975,7.3125 12.1875,2.71875 21.09375,4.3125 10.40625,1.875 18.75,2.8125 v -50.25 q 0,-6.1875 3.65625,-9.65625 3.65625,-3.46875 11.53125,-3.84375 15.09375,1.03125 15.09375,13.5 v 50.53125 q 3.281254,-0.375 6.562504,-0.84375 3.375,-0.5625 6.84375,-1.3125 6.75,-1.5 9.09375,-3.5625 2.34375,-2.0625 4.3125,-7.875 l 0.46875,-0.84375 q 1.6875,-1.40625 3.375,-2.4375 1.78125,-1.125 4.40625,-1.125 2.0625,0 3.84375,0.9375 1.875,0.84375 3.1875,2.4375 1.3125,1.59375 2.0625,3.75 0.75,2.0625 0.75,4.40625 z M 92.441406,87.61078 q 0,-1.6875 -0.5625,-3.28125 -0.5625,-1.6875 -1.875,-2.90625 -1.21875,-1.21875 -3.28125,-1.96875 -1.96875,-0.75 -4.875,-0.75 -2.625,0 -4.5,0.75 -1.875,0.75 -3.09375,1.96875 -1.21875,1.21875 -1.875,2.90625 -0.65625,1.59375 -0.84375,3.28125 v 50.71875 h 20.90625 z m -25.59375,53.0625 q -8.4375,-1.03125 -18.375,-2.71875 -8.53125,-1.5 -19.59375,-3.9375 -11.0625,-2.4375 -23.4374998,-6.1875 5.6249998,4.78125 12.3749998,8.34375 6.75,3.5625 14.71875,6.1875 7.96875,2.625 16.5,4.3125 8.53125,1.6875 17.8125,2.625 2.8125,0.1875 5.625,0.375 2.4375,0.1875 5.15625,0.28125 2.71875,0.0937 4.875,0.0937 2.4375,0 4.96875,0 2.53125,-0.0937 4.6875,-0.1875 2.4375,-0.0937 4.96875,-0.28125 11.625004,-0.84375 23.062504,-3.09375 l -4.78125,-8.8125 q -4.125,1.125 -8.0625,1.875 -3.84375,0.75 -7.968754,1.21875 -4.03125,0.375 -8.4375,0.5625 -4.40625,0.1875 -9.46875,0.1875 -3.9375,0 -7.875,-0.1875 -3.84375,-0.1875 -6.75,-0.65625 z m 60.187504,10.21875 q -1.5,3 -2.8125,6.1875 -1.3125,3.09375 -2.25,6.1875 -0.9375,3 -1.5,5.71875 -0.46875,2.71875 -0.46875,4.96875 0,4.21875 1.78125,6.9375 1.875,2.625 5.53125,2.625 3.9375,0 5.8125,-2.90625 1.875,-3 1.875,-7.875 0,-2.8125 -0.5625,-5.8125 -0.5625,-3 -1.59375,-5.8125 -0.9375,-2.90625 -2.34375,-5.53125 -1.3125,-2.625 -2.90625,-4.6875 z m -3.84375,-4.96875 q 3.09375,-0.5625 6.1875,-1.40625 l 3.1875,-2.53125 q 3.9375,-3 5.25,-5.625 1.3125,-2.71875 1.3125,-5.0625 0,-2.90625 -2.15625,-5.625 -2.0625,-2.625 -4.6875,-2.625 -0.84375,0 -1.96875,0.375 -1.125,0.28125 -3.5625,2.15625 -0.75,2.34375 -1.59375,4.125 -0.75,1.6875 -1.6875,3 -0.9375,1.21875 -2.15625,2.15625 -1.21875,0.9375 -2.8125,1.6875 z"
         id="path9026"
         inkscape:connector-curvature="0" />
    </g>
  </g>
</svg>
