<?xml version="1.0" encoding="UTF-8" standalone="no"?>
<!-- Created with Inkscape (http://www.inkscape.org/) -->

<svg
   xmlns:dc="http://purl.org/dc/elements/1.1/"
   xmlns:cc="http://creativecommons.org/ns#"
   xmlns:rdf="http://www.w3.org/1999/02/22-rdf-syntax-ns#"
   xmlns:svg="http://www.w3.org/2000/svg"
   xmlns="http://www.w3.org/2000/svg"
   xmlns:sodipodi="http://sodipodi.sourceforge.net/DTD/sodipodi-0.dtd"
   xmlns:inkscape="http://www.inkscape.org/namespaces/inkscape"
   width="11.112499mm"
   height="37.901562mm"
   viewBox="0 0 11.112499 37.901562"
   version="1.1"
   id="svg9205"
   inkscape:version="0.92.4 (5da689c313, 2019-01-14)"
   sodipodi:docname="T34.svg">
  <defs
     id="defs9199" />
  <sodipodi:namedview
     id="base"
     pagecolor="#ffffff"
     bordercolor="#666666"
     borderopacity="1.0"
     inkscape:pageopacity="0.0"
     inkscape:pageshadow="2"
     inkscape:zoom="0.35"
     inkscape:cx="-391.83036"
     inkscape:cy="-307.07143"
     inkscape:document-units="mm"
     inkscape:current-layer="layer1"
     showgrid="false"
     fit-margin-top="0"
     fit-margin-left="0"
     fit-margin-right="0"
     fit-margin-bottom="0"
     inkscape:window-width="1920"
     inkscape:window-height="1017"
     inkscape:window-x="-8"
     inkscape:window-y="-8"
     inkscape:window-maximized="1" />
  <metadata
     id="metadata9202">
    <rdf:RDF>
      <cc:Work
         rdf:about="">
        <dc:format>image/svg+xml</dc:format>
        <dc:type
           rdf:resource="http://purl.org/dc/dcmitype/StillImage" />
        <dc:title></dc:title>
      </cc:Work>
    </rdf:RDF>
  </metadata>
  <g
     inkscape:label="Layer 1"
     inkscape:groupmode="layer"
     id="layer1"
     transform="translate(-16.359282,-29.685789)">
    <g
       aria-label="𓌰"
       style="font-style:normal;font-variant:normal;font-weight:normal;font-stretch:normal;font-size:50.79999924px;line-height:1.25;font-family:sans-serif;-inkscape-font-specification:'sans-serif, Normal';font-variant-ligatures:normal;font-variant-caps:normal;font-variant-numeric:normal;font-feature-settings:normal;text-align:start;letter-spacing:0px;word-spacing:0px;writing-mode:lr-tb;text-anchor:start;fill:#000000;fill-opacity:1;stroke:none;stroke-width:0.26458332"
       id="text9752">
      <path
         d="m 27.471781,60.12114 -2.802929,7.193359 -0.396875,0.272851 h -4.787305 l -0.322461,-0.198437 -2.802929,-7.193359 0.32246,-0.595313 h 4.01836 q 0,-1.240234 -0.02481,-2.455664 -0.02481,-1.240234 -0.02481,-2.480469 -1.686718,-4.960937 -2.480468,-8.508007 -0.768946,-3.54707 -0.768946,-6.225977 l 0.02481,-0.520898 q 0.04961,-2.629297 1.16582,-4.911328 1.116211,-2.282031 3.447852,-4.812109 l 0.669726,0.297656 v 29.616796 h 4.365625 z m -5.55625,-0.520899 V 31.000437 q -1.785937,1.95957 -2.75332,4.117578 -0.967383,2.158008 -0.992187,4.588867 0,3.447852 1.463476,8.408789 1.463477,4.960937 1.785938,6.35 l 0.09922,3.96875 v 0.471289 q 0,0.42168 -0.0248,0.694531 z m -4.638476,0.79375 2.505273,6.399609 h 4.241602 l 2.480469,-6.399609 z"
         style="stroke-width:0.26458332"
         id="path9754"
         inkscape:connector-curvature="0" />
    </g>
  </g>
</svg>
