<?xml version="1.0" encoding="UTF-8" standalone="no"?>
<svg
   xmlns:dc="http://purl.org/dc/elements/1.1/"
   xmlns:cc="http://creativecommons.org/ns#"
   xmlns:rdf="http://www.w3.org/1999/02/22-rdf-syntax-ns#"
   xmlns:svg="http://www.w3.org/2000/svg"
   xmlns="http://www.w3.org/2000/svg"
   xmlns:sodipodi="http://sodipodi.sourceforge.net/DTD/sodipodi-0.dtd"
   xmlns:inkscape="http://www.inkscape.org/namespaces/inkscape"
   version="1.0"
   width="104.23515pt"
   height="17.803801pt"
   viewBox="0 0 104.23515 17.803801"
   preserveAspectRatio="xMidYMid meet"
   id="svg8"
   sodipodi:docname="T36.svg"
   inkscape:version="0.92.4 (5da689c313, 2019-01-14)">
  <defs
     id="defs12" />
  <sodipodi:namedview
     pagecolor="#ffffff"
     bordercolor="#666666"
     borderopacity="1"
     objecttolerance="10"
     gridtolerance="10"
     guidetolerance="10"
     inkscape:pageopacity="0"
     inkscape:pageshadow="2"
     inkscape:window-width="1920"
     inkscape:window-height="1017"
     id="namedview10"
     showgrid="false"
     fit-margin-top="0"
     fit-margin-left="0"
     fit-margin-right="0"
     fit-margin-bottom="0"
     inkscape:zoom="2.0337838"
     inkscape:cx="4.4198041"
     inkscape:cy="11.565496"
     inkscape:window-x="-8"
     inkscape:window-y="-8"
     inkscape:window-maximized="1"
     inkscape:current-layer="svg8" />
  <metadata
     id="metadata2">
Created by potrace 1.10, written by Peter Selinger 2001-2011
<rdf:RDF>
  <cc:Work
     rdf:about="">
    <dc:format>image/svg+xml</dc:format>
    <dc:type
       rdf:resource="http://purl.org/dc/dcmitype/StillImage" />
    <dc:title></dc:title>
  </cc:Work>
</rdf:RDF>
</metadata>
  <g
     transform="matrix(0.1,0,0,-0.1,-3.1386353,25.629679)"
     id="g6"
     style="fill:#000000;stroke:none">
    <path
       d="M 285,245 C 247,238 178,220 133,205 45,177 23,158 34,114 45,72 75,70 190,102 c 178,50 306,49 527,-1 92,-21 287,-30 325,-16 9,4 21,20 27,35 8,23 6,34 -7,50 -15,19 -29,21 -137,24 -89,2 -150,10 -235,30 -139,33 -300,42 -405,21 z m 300,-45 c 28,-5 93,-18 145,-29 61,-13 132,-21 198,-21 60,0 102,-4 102,-10 0,-29 -198,-24 -325,8 -190,49 -349,48 -529,-4 -56,-16 -92,-22 -98,-16 -12,12 -7,15 77,40 64,19 151,36 230,45 36,4 132,-2 200,-13 z"
       id="path4"
       inkscape:connector-curvature="0" />
  </g>
</svg>
