<?xml version="1.0" encoding="UTF-8" standalone="no"?>
<!-- Created with Inkscape (http://www.inkscape.org/) -->

<svg
   xmlns:dc="http://purl.org/dc/elements/1.1/"
   xmlns:cc="http://creativecommons.org/ns#"
   xmlns:rdf="http://www.w3.org/1999/02/22-rdf-syntax-ns#"
   xmlns:svg="http://www.w3.org/2000/svg"
   xmlns="http://www.w3.org/2000/svg"
   xmlns:sodipodi="http://sodipodi.sourceforge.net/DTD/sodipodi-0.dtd"
   xmlns:inkscape="http://www.inkscape.org/namespaces/inkscape"
   width="30.981052mm"
   height="37.653515mm"
   viewBox="0 0 30.981052 37.653515"
   version="1.1"
   id="svg8"
   inkscape:version="0.92.4 (5da689c313, 2019-01-14)"
   sodipodi:docname="T3A.svg">
  <defs
     id="defs2" />
  <sodipodi:namedview
     id="base"
     pagecolor="#ffffff"
     bordercolor="#666666"
     borderopacity="1.0"
     inkscape:pageopacity="0.0"
     inkscape:pageshadow="2"
     inkscape:zoom="0.35"
     inkscape:cx="-346.11523"
     inkscape:cy="-317.61789"
     inkscape:document-units="mm"
     inkscape:current-layer="layer1"
     showgrid="false"
     fit-margin-top="0"
     fit-margin-left="0"
     fit-margin-right="0"
     fit-margin-bottom="0"
     inkscape:window-width="1920"
     inkscape:window-height="1017"
     inkscape:window-x="-8"
     inkscape:window-y="-8"
     inkscape:window-maximized="1" />
  <metadata
     id="metadata5">
    <rdf:RDF>
      <cc:Work
         rdf:about="">
        <dc:format>image/svg+xml</dc:format>
        <dc:type
           rdf:resource="http://purl.org/dc/dcmitype/StillImage" />
        <dc:title></dc:title>
      </cc:Work>
    </rdf:RDF>
  </metadata>
  <g
     inkscape:label="Layer 1"
     inkscape:groupmode="layer"
     id="layer1"
     transform="translate(-4.2638223,-27.143419)">
    <g
       aria-label="𓌊"
       transform="scale(0.26458333)"
       style="font-style:normal;font-variant:normal;font-weight:normal;font-stretch:normal;font-size:192px;line-height:1.25;font-family:sans-serif;-inkscape-font-specification:sans-serif;font-variant-ligatures:normal;font-variant-caps:normal;font-variant-numeric:normal;font-feature-settings:normal;text-align:start;letter-spacing:0px;word-spacing:0px;writing-mode:lr-tb;text-anchor:start;fill:#000000;fill-opacity:1;stroke:none"
       id="flowRoot4518">
      <path
         d="m 133.20898,205.80805 v 37.59375 l -1.59375,1.5 H 17.521484 l -1.40625,-1.78125 V 205.5268 q 0,-3.9375 2.625,-5.90625 2.71875,-2.0625 6.9375,-2.0625 4.3125,0 7.875,2.25 3.375,2.0625 7.875,8.53125 l 3.375,5.0625 q 3.9375,5.90625 10.78125,9.09375 6.84375,3.09375 15.375,3.75 v -75.9375 q 0,-1.21875 -0.75,-2.71875 -0.65625,-1.59375 -1.875,-3.28125 -1.125,-1.6875 -2.625,-3.46875 -1.5,-1.875 -3.09375,-3.75 -6.28125,-7.40625 -6.28125,-13.59375 0,-2.90625 1.03125,-5.8125 1.03125,-2.90625 2.90625,-5.15625 1.875,-2.34375 4.40625,-3.75 2.625,-1.40625 5.71875,-1.40625 l -1.21875,-4.78125 h 7.59375 l -1.125,4.59375 q 2.90625,0 5.53125,1.5 2.625,1.40625 4.59375,3.75 2.0625,2.34375 3.1875,5.34375 1.21875,3 1.21875,6 0,3.65625 -1.78125,7.6875 -1.6875,4.03125 -4.59375,7.78125 -1.40625,1.875 -2.90625,3.5625 -1.40625,1.6875 -2.625,3.1875 -1.125,1.40625 -1.875,2.71875 -0.75,1.21875 -0.75,2.34375 v 75.09375 q 0.09375,0 0.5625,0 0.5625,0 1.125,0 0.5625,0 1.03125,0 0.5625,-0.0937 0.65625,-0.0937 3.28125,0 8.90625,-1.78125 5.90625,-1.78125 11.0625,-6.09375 5.249996,-4.40625 8.718746,-10.03125 3.5625,-5.53125 7.5,-8.625 2.8125,-2.25 6.28125,-2.25 1.5,0 3.09375,0.375 1.59375,0.375 3,1.03125 1.40625,0.65625 2.53125,1.5 1.21875,0.75 1.96875,1.6875 1.125,1.59375 1.125,3.9375 z m -59.906246,23.625 q -9.65625,0 -17.71875,-3.28125 -7.96875,-3.28125 -12.84375,-10.59375 l -3.375,-5.0625 q -4.6875,-6.75 -7.78125,-8.34375 -3,-1.6875 -6,-1.6875 -2.8125,0 -4.6875,1.40625 -1.78125,1.3125 -1.78125,3.9375 V 241.9018 H 130.20898 v -35.8125 q 0,-2.34375 -2.34375,-4.125 -2.25,-1.78125 -5.8125,-1.78125 -5.90625,0 -11.53125,9.09375 -6.28125,10.125 -15.187496,15.09375 -8.8125,4.875 -22.03125,5.0625 z m 13.875,-105.9375 q 0,-2.90625 -1.21875,-5.34375 -1.125,-2.53125 -3.09375,-4.21875 -1.96875,-1.78125 -4.5,-2.71875 -2.53125,-1.03125 -5.25,-1.03125 -3.09375,0 -5.71875,1.03125 -2.53125,1.03125 -4.3125,2.71875 -1.78125,1.6875 -2.8125,4.03125 -0.9375,2.25 -0.9375,4.78125 0,3.09375 1.5,6.46875 1.59375,3.28125 4.78125,7.3125 1.59375,1.96875 2.8125,3.375 1.21875,1.3125 2.15625,2.4375 1.03125,1.125 1.78125,2.15625 0.75,1.03125 1.3125,2.25 0.84375,-1.03125 1.5,-1.78125 0.75,-0.84375 1.5,-1.6875 0.84375,-0.9375 1.78125,-2.15625 1.03125,-1.3125 2.4375,-3.28125 2.90625,-4.03125 4.59375,-7.875 1.6875,-3.9375 1.6875,-6.46875 z"
         id="path4526"
         inkscape:connector-curvature="0" />
    </g>
  </g>
</svg>
