<?xml version="1.0" encoding="UTF-8" standalone="no"?>
<!-- Created with Inkscape (http://www.inkscape.org/) -->

<svg
   xmlns:dc="http://purl.org/dc/elements/1.1/"
   xmlns:cc="http://creativecommons.org/ns#"
   xmlns:rdf="http://www.w3.org/1999/02/22-rdf-syntax-ns#"
   xmlns:svg="http://www.w3.org/2000/svg"
   xmlns="http://www.w3.org/2000/svg"
   xmlns:sodipodi="http://sodipodi.sourceforge.net/DTD/sodipodi-0.dtd"
   xmlns:inkscape="http://www.inkscape.org/namespaces/inkscape"
   width="16.842382mm"
   height="37.256641mm"
   viewBox="0 0 16.842382 37.256641"
   version="1.1"
   id="svg17365"
   inkscape:version="0.92.4 (5da689c313, 2019-01-14)"
   sodipodi:docname="T4.svg">
  <defs
     id="defs17359" />
  <sodipodi:namedview
     id="base"
     pagecolor="#ffffff"
     bordercolor="#666666"
     borderopacity="1.0"
     inkscape:pageopacity="0.0"
     inkscape:pageshadow="2"
     inkscape:zoom="0.35"
     inkscape:cx="-400.40179"
     inkscape:cy="-354.28573"
     inkscape:document-units="mm"
     inkscape:current-layer="layer1"
     showgrid="false"
     fit-margin-top="0"
     fit-margin-left="0"
     fit-margin-right="0"
     fit-margin-bottom="0"
     inkscape:window-width="1920"
     inkscape:window-height="1017"
     inkscape:window-x="-8"
     inkscape:window-y="-8"
     inkscape:window-maximized="1" />
  <metadata
     id="metadata17362">
    <rdf:RDF>
      <cc:Work
         rdf:about="">
        <dc:format>image/svg+xml</dc:format>
        <dc:type
           rdf:resource="http://purl.org/dc/dcmitype/StillImage" />
        <dc:title></dc:title>
      </cc:Work>
    </rdf:RDF>
  </metadata>
  <g
     inkscape:label="Layer 1"
     inkscape:groupmode="layer"
     id="layer1"
     transform="translate(-18.62714,-17.838594)">
    <g
       aria-label="𓌋"
       style="font-style:normal;font-variant:normal;font-weight:normal;font-stretch:normal;font-size:50.79999924px;line-height:1.25;font-family:sans-serif;-inkscape-font-specification:'sans-serif, Normal';font-variant-ligatures:normal;font-variant-caps:normal;font-variant-numeric:normal;font-feature-settings:normal;text-align:start;letter-spacing:0px;word-spacing:0px;writing-mode:lr-tb;text-anchor:start;fill:#000000;fill-opacity:1;stroke:none;stroke-width:0.26458332"
       id="text17912">
      <path
         d="m 27.011124,19.054024 q 0.917774,0 1.63711,0.396875 0.719336,0.37207 1.215429,1.016992 0.520899,0.620117 0.79375,1.438672 0.272852,0.79375 0.272852,1.612304 0,0.446485 -0.148828,0.992188 -0.148828,0.545703 -0.372071,1.066601 -0.223242,0.520899 -0.496093,0.992188 -0.272852,0.446484 -0.496094,0.74414 -0.396875,0.496094 -0.818555,0.967383 -0.421679,0.446485 -0.768945,0.868164 -0.322461,0.396875 -0.545703,0.79375 -0.198438,0.37207 -0.198438,0.719336 V 31.63 q 0.520899,-0.09922 1.041797,-0.124024 0.545703,-0.04961 1.041797,-0.04961 1.314648,0 2.331641,0.272852 1.016992,0.248047 1.785937,0.818554 0.768945,0.570508 1.289844,1.488282 0.545703,0.917773 0.892969,2.257226 h -1.240235 q -0.644922,-2.133203 -1.661914,-3.001367 -1.016992,-0.868164 -4.514453,-0.868164 2.430859,1.091406 3.571875,4.440039 0.173633,0.719336 0.347266,1.463476 0.173633,0.719336 0.37207,1.438672 l 0.744141,2.926953 H 31.823234 Q 31.575187,41.725508 31.252726,40.460469 30.930265,39.170625 30.508585,37.55832 29.665226,34.358515 27.085538,33.043867 V 55.095234 H 25.845304 V 33.093476 q -1.091406,0.868164 -1.661914,4.117578 -0.545703,3.199805 -1.364258,4.241602 -0.768945,0.992187 -2.058789,0.992187 -2.133203,0 -2.133203,-1.761132 0,-5.357813 1.389063,-7.267774 1.364257,-1.885156 4.167187,-1.885156 0.768945,0 1.661914,0.148828 v -1.116211 q 0,-0.768945 -0.595313,-1.562695 -0.570507,-0.818555 -1.488281,-1.860351 -1.810742,-2.083594 -1.810742,-3.695899 0,-0.694531 0.248047,-1.463476 0.272852,-0.79375 0.744141,-1.438672 0.496093,-0.644922 1.16582,-1.066602 0.694531,-0.421679 1.513086,-0.421679 l -0.322461,-1.21543 h 2.00918 z m -2.306836,13.86582 q -0.09922,0 -0.223242,0 -0.09922,0 -0.223242,-0.02481 -4.489648,0 -4.489648,6.548437 0,0.84336 0.248047,1.314649 0.272851,0.446484 0.793749,0.446484 0.768946,0 1.289844,-1.016992 0.520899,-1.016992 0.84336,-2.951758 0.620117,-3.869531 1.761132,-4.316015 z m 5.407422,-9.549805 q 0,-0.768945 -0.347265,-1.413867 -0.322461,-0.669727 -0.868165,-1.116211 -0.520898,-0.471289 -1.190624,-0.719336 -0.644922,-0.272851 -1.314649,-0.272851 -0.694531,0 -1.364258,0.223242 -0.644922,0.223242 -1.16582,0.644922 -0.496094,0.421679 -0.818555,1.041796 -0.297656,0.620118 -0.297656,1.413868 0,0.818554 0.396875,1.711523 0.42168,0.868164 1.265039,1.934766 0.42168,0.545703 0.744141,0.917773 0.347265,0.37207 0.595312,0.669727 0.248047,0.297656 0.446485,0.570507 0.198437,0.248047 0.347265,0.545703 0.396875,-0.471289 0.818555,-0.967382 0.446484,-0.496094 1.091406,-1.413867 1.562695,-2.158008 1.661914,-3.770313 z"
         style="stroke-width:0.26458332"
         id="path17914"
         inkscape:connector-curvature="0" />
    </g>
  </g>
</svg>
