<?xml version="1.0" encoding="UTF-8" standalone="no"?>
<svg
   xmlns:dc="http://purl.org/dc/elements/1.1/"
   xmlns:cc="http://creativecommons.org/ns#"
   xmlns:rdf="http://www.w3.org/1999/02/22-rdf-syntax-ns#"
   xmlns:svg="http://www.w3.org/2000/svg"
   xmlns="http://www.w3.org/2000/svg"
   xmlns:sodipodi="http://sodipodi.sourceforge.net/DTD/sodipodi-0.dtd"
   xmlns:inkscape="http://www.inkscape.org/namespaces/inkscape"
   version="1.0"
   width="124.96827pt"
   height="47.626358pt"
   viewBox="0 0 124.96827 47.626358"
   preserveAspectRatio="xMidYMid meet"
   id="svg8"
   sodipodi:docname="T46.svg"
   inkscape:version="0.92.4 (5da689c313, 2019-01-14)">
  <defs
     id="defs12" />
  <sodipodi:namedview
     pagecolor="#ffffff"
     bordercolor="#666666"
     borderopacity="1"
     objecttolerance="10"
     gridtolerance="10"
     guidetolerance="10"
     inkscape:pageopacity="0"
     inkscape:pageshadow="2"
     inkscape:window-width="1920"
     inkscape:window-height="1017"
     id="namedview10"
     showgrid="false"
     fit-margin-top="0"
     fit-margin-left="0"
     fit-margin-right="0"
     fit-margin-bottom="0"
     inkscape:zoom="1.6722222"
     inkscape:cx="91.831444"
     inkscape:cy="7.1510151"
     inkscape:window-x="-8"
     inkscape:window-y="-8"
     inkscape:window-maximized="1"
     inkscape:current-layer="svg8" />
  <metadata
     id="metadata2">
Created by potrace 1.10, written by Peter Selinger 2001-2011
<rdf:RDF>
  <cc:Work
     rdf:about="">
    <dc:format>image/svg+xml</dc:format>
    <dc:type
       rdf:resource="http://purl.org/dc/dcmitype/StillImage" />
    <dc:title></dc:title>
  </cc:Work>
</rdf:RDF>
</metadata>
  <g
     transform="matrix(0.1,0,0,-0.1,173.5995,77.263099)"
     id="g6"
     style="fill:#000000;stroke:none">
    <path
       d="M 66,502 C 59,490 55,346 63,334 c 4,-7 82,-14 209,-18 247,-8 538,-31 604,-47 87,-21 192,-78 283,-154 49,-41 98,-75 109,-75 23,0 52,35 52,61 0,24 -91,139 -157,198 C 1020,427 899,456 354,495 114,512 73,513 66,502 Z m 364,-67 c 404,-29 476,-41 592,-102 82,-43 143,-95 203,-173 55,-71 58,-86 8,-38 -114,107 -238,176 -363,202 -90,18 -284,33 -557,42 l -203,7 v 45 44 l 53,-6 c 28,-3 149,-13 267,-21 z"
       id="path4"
       inkscape:connector-curvature="0" />
  </g>
  <path
     style="color:#000000;font-style:normal;font-variant:normal;font-weight:normal;font-stretch:normal;font-size:medium;line-height:normal;font-family:sans-serif;font-variant-ligatures:normal;font-variant-position:normal;font-variant-caps:normal;font-variant-numeric:normal;font-variant-alternates:normal;font-feature-settings:normal;text-indent:0;text-align:start;text-decoration:none;text-decoration-line:none;text-decoration-style:solid;text-decoration-color:#000000;letter-spacing:normal;word-spacing:normal;text-transform:none;writing-mode:lr-tb;direction:ltr;text-orientation:mixed;dominant-baseline:auto;baseline-shift:baseline;text-anchor:start;white-space:normal;shape-padding:0;clip-rule:nonzero;display:inline;overflow:visible;visibility:visible;opacity:1;isolation:auto;mix-blend-mode:normal;color-interpolation:sRGB;color-interpolation-filters:linearRGB;solid-color:#000000;solid-opacity:1;vector-effect:none;fill:#000000;fill-opacity:1;fill-rule:nonzero;stroke:none;stroke-width:4.5;stroke-linecap:butt;stroke-linejoin:miter;stroke-miterlimit:4;stroke-dasharray:none;stroke-dashoffset:0;stroke-opacity:1;color-rendering:auto;image-rendering:auto;shape-rendering:auto;text-rendering:auto;enable-background:accumulate"
     d="M 0.38476562,0 0.34179688,2.3554688 0,21.5 2.3457031,21.445312 c 0,0 16.2192109,-0.386001 34.6660159,-0.04492 18.446805,0.34108 39.410101,1.568585 47.564453,4.21875 17.207968,5.59259 36.921878,22.007812 36.921878,22.007812 l 3.4707,-2.708984 c 0,0 -8.97158,-18.710541 -23.11719,-29.083985 C 97.661121,12.760993 89.878995,10.804114 79.96875,8.8925781 70.058505,6.9810427 58.197546,5.3796967 46.763672,4.0859375 23.895923,1.4984191 2.734375,0.15039063 2.734375,0.15039062 Z M 4.7988281,4.8144531 C 8.0385418,5.029004 25.520864,6.2102254 46.257812,8.5566406 57.624362,9.8427818 69.404275,11.439027 79.117188,13.3125 c 9.712912,1.873473 17.535134,4.289827 20.072265,6.150391 6.612267,4.848997 12.120467,11.9462 15.976567,17.746093 C 107.6734,31.834501 96.879516,24.886478 85.966797,21.339844 76.180945,18.159442 55.653899,17.24353 37.095703,16.900391 20.614911,16.595662 7.6664117,16.847423 4.5820312,16.912109 Z"
     id="path816"
     inkscape:connector-curvature="0" />
</svg>
