<?xml version="1.0" encoding="UTF-8" standalone="no"?>
<!-- Created with Inkscape (http://www.inkscape.org/) -->

<svg
   xmlns:dc="http://purl.org/dc/elements/1.1/"
   xmlns:cc="http://creativecommons.org/ns#"
   xmlns:rdf="http://www.w3.org/1999/02/22-rdf-syntax-ns#"
   xmlns:svg="http://www.w3.org/2000/svg"
   xmlns="http://www.w3.org/2000/svg"
   xmlns:sodipodi="http://sodipodi.sourceforge.net/DTD/sodipodi-0.dtd"
   xmlns:inkscape="http://www.inkscape.org/namespaces/inkscape"
   width="37.678318mm"
   height="45.615822mm"
   viewBox="0 0 37.678318 45.615822"
   version="1.1"
   id="svg18481"
   inkscape:version="0.92.4 (5da689c313, 2019-01-14)"
   sodipodi:docname="T6.svg">
  <defs
     id="defs18475" />
  <sodipodi:namedview
     id="base"
     pagecolor="#ffffff"
     bordercolor="#666666"
     borderopacity="1.0"
     inkscape:pageopacity="0.0"
     inkscape:pageshadow="2"
     inkscape:zoom="0.35"
     inkscape:cx="-371.83037"
     inkscape:cy="-385.54909"
     inkscape:document-units="mm"
     inkscape:current-layer="layer1"
     showgrid="false"
     fit-margin-top="0"
     fit-margin-left="0"
     fit-margin-right="0"
     fit-margin-bottom="0"
     inkscape:window-width="1920"
     inkscape:window-height="1017"
     inkscape:window-x="-8"
     inkscape:window-y="-8"
     inkscape:window-maximized="1" />
  <metadata
     id="metadata18478">
    <rdf:RDF>
      <cc:Work
         rdf:about="">
        <dc:format>image/svg+xml</dc:format>
        <dc:type
           rdf:resource="http://purl.org/dc/dcmitype/StillImage" />
        <dc:title></dc:title>
      </cc:Work>
    </rdf:RDF>
  </metadata>
  <g
     inkscape:label="Layer 1"
     inkscape:groupmode="layer"
     id="layer1"
     transform="translate(-11.067618,-1.2076467)">
    <g
       aria-label="ð“Œ"
       style="font-style:normal;font-variant:normal;font-weight:normal;font-stretch:normal;font-size:50.79999924px;line-height:1.25;font-family:sans-serif;-inkscape-font-specification:'sans-serif, Normal';font-variant-ligatures:normal;font-variant-caps:normal;font-variant-numeric:normal;font-feature-settings:normal;text-align:start;letter-spacing:0px;word-spacing:0px;writing-mode:lr-tb;text-anchor:start;fill:#000000;fill-opacity:1;stroke:none;stroke-width:0.26458332"
       id="text19028">
      <path
         d="m 31.060193,1.2076467 -0.297656,1.2154297 q 0.79375,0 1.488281,0.3720703 0.719336,0.3720703 1.240235,0.9921875 0.545703,0.6201172 0.843359,1.4138672 0.322461,0.7689453 0.322461,1.6123046 -0.148828,2.0835937 -1.612305,3.993555 -0.37207,0.471289 -0.74414,0.917773 -0.372071,0.42168 -0.694532,0.79375 -0.297656,0.37207 -0.520898,0.719336 -0.198437,0.322461 -0.223242,0.595312 0.09922,0 0.322461,0 0.223242,0 0.471289,0 0.272851,0 0.520898,0 0.272852,-0.0248 0.471289,-0.0248 2.43086,0.04961 4.365625,0.223242 1.959571,0.173633 3.621485,0.595312 1.637109,0.396875 2.827734,1.339454 1.190625,0.917773 1.934765,2.356445 0.768946,1.413867 1.116211,3.323828 0.372071,1.885156 0.372071,4.191992 0,1.116211 -0.07441,2.232422 l -0.09922,1.488281 q -0.02481,0.37207 -0.04961,0.744141 0,0.37207 0,0.74414 0,2.530078 1.041796,5.506641 1.041797,2.951758 1.041797,4.316015 0,0.248047 -0.0248,0.496094 -0.02481,0.248047 -0.07442,0.496094 l -0.520898,0.248047 q -2.38125,-1.240235 -3.299023,-5.581055 -0.942578,-4.415234 -0.942578,-9.574609 0,-3.150195 -0.917774,-5.308203 -0.892969,-2.207617 -2.406055,-2.976563 -0.74414,-0.37207 -1.984374,-0.620117 -1.240235,-0.248047 -2.976563,-0.248047 h -4.737695 v 7.267774 q 1.066601,0.07441 2.058789,0.198437 1.016992,0.09922 1.885156,0.248047 0.868164,0.148828 1.537891,0.347266 0.694531,0.198437 1.141015,0.446484 1.785938,0.942578 2.629297,2.976563 0.843359,2.009179 0.843359,5.109765 0,1.116211 -0.09922,2.133203 -0.09922,0.992188 -0.09922,1.785938 0,0.124023 0,0.272851 0,0.173633 0.04961,0.595313 0.148828,1.53789 0.917774,3.54707 0.768945,2.00918 0.768945,3.026172 0,0.496094 -0.09922,0.818554 l -0.520898,0.248047 q -1.934766,-0.942578 -2.703711,-4.167187 -0.396875,-1.637109 -0.595312,-3.348633 -0.173633,-1.711523 -0.173633,-3.522265 0,-3.59668 -1.165821,-5.481836 -0.297656,-0.471289 -0.768945,-0.84336 -0.446484,-0.396875 -1.190625,-0.644921 -0.74414,-0.272852 -1.835547,-0.42168 Q 32.37484,28.24476 30.861754,28.24476 V 38.464287 H 29.621521 V 28.195146 q -2.38125,0.0248 -4.886523,0.124024 -2.505273,0.09922 -4.861719,0.09922 -1.860351,0 -2.926953,-0.570508 -1.041797,-0.595313 -1.041797,-1.785938 0,-0.223242 0.09922,-0.669726 0.09922,-0.471289 0.223242,-0.942578 0.148829,-0.471289 0.248047,-0.84336 0.09922,-0.396875 0.09922,-0.471289 0,-0.545703 -0.37207,-0.818555 -0.372071,-0.272851 -0.892969,-0.272851 -0.570508,0 -1.066602,0.173633 -0.496093,0.148828 -0.992187,0.148828 -0.396875,0 -0.744141,-0.198438 -0.322461,-0.223242 -0.570507,-0.868164 L 11.737344,20.85296 q 0.198438,-0.768945 0.644922,-1.289844 0.446484,-0.520898 1.091406,-0.892969 1.289844,-0.74414 1.810742,-0.74414 1.289844,0 2.530078,1.141015 1.289844,1.141016 1.289844,3.299024 0,0.545703 -0.223242,1.240234 -0.198438,0.694531 -0.198438,1.21543 0,0.37207 0.09922,0.595312 0.124024,0.223243 0.297656,0.322461 0.198438,0.09922 0.42168,0.124024 0.223242,0.0248 0.446484,0.0248 0.967383,-0.198437 2.257227,-0.347265 1.314648,-0.173633 2.654102,-0.272852 1.364257,-0.124023 2.629296,-0.173633 1.265039,-0.07441 2.133203,-0.07441 v -7.193359 q -1.934765,0.04961 -3.299023,0.09922 -1.339453,0.02481 -2.331641,0.04961 -0.967382,0.0248 -1.711523,0.04961 -0.719336,0 -1.413867,0 -2.232422,0 -3.447852,-0.744141 -1.190625,-0.744141 -1.190625,-2.158008 0,-0.868164 0.372071,-2.033984 0.396875,-1.116211 0.396875,-1.885156 0,-0.79375 -0.496094,-1.165821 -0.471289,-0.3968746 -1.116211,-0.3968746 -0.620117,0 -1.265039,0.2232421 -0.644922,0.1984375 -1.240234,0.1984375 -1.339453,0 -1.810743,-1.8603515 V 8.0537404 q 0.347266,-1.190625 1.091407,-1.8851562 0.74414,-0.6945313 1.860351,-1.1658203 l 0.744141,-0.322461 q 0.322461,-0.1488281 0.595312,-0.1488281 0.644922,0 1.885157,0.5953125 1.265039,0.5953125 2.009179,1.9099609 0.744141,1.3146484 0.744141,3.2494138 0,0.818555 -0.148828,1.612305 -0.124024,0.79375 -0.396875,1.513086 0,0.595312 0.198437,0.917773 0.223242,0.297656 0.744141,0.42168 l 0.694531,0.198437 q 2.554883,-0.347265 4.117578,-0.545703 1.562695,-0.223242 2.455664,-0.322461 0.917774,-0.09922 1.314649,-0.124023 0.421679,-0.0248 0.644921,-0.0248 0,-0.421679 -0.198437,-0.843359 Q 29.224646,12.642608 28.902186,12.196123 28.579725,11.749639 28.158045,11.27835 27.76117,10.807061 27.33949,10.310967 25.677576,8.3265919 25.677576,6.8383107 q 0,-0.8185547 0.272852,-1.5875 0.297656,-0.7937499 0.79375,-1.4138671 0.496093,-0.6201172 1.16582,-0.9921875 0.669727,-0.3720703 1.463477,-0.3720703 L 29.051014,1.2076467 Z M 30.861756,14.577373 q -0.545703,0 -1.488281,0.09922 -0.917774,0.07441 -2.00918,0.198437 -1.091406,0.124024 -2.207617,0.272852 -1.091406,0.124023 -2.00918,0.248047 -0.892969,0.124023 -1.463476,0.223242 -0.545704,0.07441 -0.520899,0.07441 -0.768945,0 -1.5875,-0.396875 -0.868164,-0.42168 -0.868164,-1.438672 0,-0.570508 0.223242,-1.438672 0.248047,-0.892968 0.248047,-2.033984 0,-0.8929688 -0.198437,-1.6867187 Q 18.806678,7.8801076 18.360194,7.2351857 17.938514,6.5654592 17.219178,6.0941701 16.524647,5.5980764 15.48285,5.3252248 13.572889,5.9701467 12.878358,6.5902638 12.208631,7.1855763 11.861365,8.1281544 l 0.223243,0.5705079 q 0.173632,0.5705078 0.892968,0.6201171 0.396875,0 0.942579,-0.2232422 0.545703,-0.2232421 1.215429,-0.2232421 0.520899,0 0.992188,0.1488281 0.496093,0.1240234 0.868164,0.396875 0.37207,0.2480468 0.595312,0.6697268 0.223242,0.396875 0.223242,0.942578 0,0.74414 -0.421679,2.083594 -0.396875,1.265039 -0.396875,2.009179 0,1.165821 1.116211,1.63711 1.116211,0.446484 3.050976,0.446484 1.016992,0 2.182813,0 1.190625,-0.02481 2.951757,-0.04961 1.761133,-0.0248 4.340821,-0.04961 2.579687,-0.0248 6.374804,-0.04961 2.629297,0.148828 4.167188,1.041797 1.513086,0.843359 2.480468,3.12539 1.016993,2.306836 1.016993,6.275586 0,1.761133 0.124023,3.199805 0.124023,1.438672 0.272852,2.604492 0.173632,1.16582 0.347265,2.058789 0.198438,0.868164 0.322461,1.513086 0.272852,1.339453 0.818555,2.455664 0.570508,1.141015 1.438672,1.761133 0,-0.07441 0.0248,-0.09922 0,-0.124024 0.02481,-0.198438 l -0.02481,-0.248046 q -0.04961,-0.347266 -0.322461,-1.26504 -0.272851,-0.892968 -0.768945,-2.406054 -1.016992,-3.050977 -1.016992,-5.853906 0,-0.446485 0,-0.892969 0.0248,-0.446484 0.04961,-0.892969 l 0.07441,-1.835547 q 0,-0.173632 0,-0.446484 0,-0.272852 0.02481,-0.620117 0,-6.622852 -2.505273,-9.202539 -2.505274,-2.579688 -10.914063,-2.579688 -0.198437,0 -0.471289,0 -0.248047,0 -0.520898,0.0248 -0.248047,0 -0.471289,0 -0.223242,0 -0.322461,0 z M 30.14242,3.2168264 q -0.545703,0 -1.190625,0.1984375 -0.644922,0.1736328 -1.190625,0.5953125 -0.545703,0.396875 -0.917773,1.0914062 -0.347266,0.6697266 -0.347266,1.6619141 0,1.3146484 1.661914,3.4230463 0.42168,0.520899 0.744141,0.917774 0.32246,0.37207 0.570507,0.669726 0.272852,0.297657 0.471289,0.570508 0.223243,0.248047 0.372071,0.545703 0.148828,-0.223242 0.297656,-0.396875 0.173633,-0.173632 0.37207,-0.421679 0.223242,-0.248047 0.496094,-0.595313 0.297656,-0.37207 0.719336,-0.967383 1.562695,-2.1580074 1.661914,-3.770312 0,-0.6449219 -0.272852,-1.2650391 Q 33.31742,4.8291311 32.821326,4.3330373 32.350037,3.8369436 31.655506,3.5392873 30.960975,3.2168264 30.14242,3.2168264 Z M 29.621521,25.764287 q -2.406054,0 -3.968749,0.148828 -1.537891,0.124024 -2.579688,0.297656 -1.041797,0.148828 -1.761133,0.297657 -0.694531,0.124023 -1.413867,0.124023 -0.620117,0 -1.289844,-0.322461 -0.694531,-0.322461 -0.694531,-1.21543 0,-0.79375 0.198438,-1.53789 0.223242,-0.744141 0.223242,-1.389063 0,-1.339453 -0.818555,-2.232421 -0.79375,-0.892969 -2.133203,-1.21543 -0.942578,0.272851 -1.736328,0.719336 -0.768945,0.421679 -1.116211,1.339453 0.09922,0.223242 0.223242,0.42168 0.124024,0.173632 0.471289,0.37207 0.446485,0 0.892969,-0.148828 0.471289,-0.173633 0.744141,-0.173633 0.471289,0 0.917773,0.07441 0.446484,0.04961 0.79375,0.248047 0.347266,0.173633 0.545703,0.520898 0.198438,0.322461 0.198438,0.868164 0,0.347266 -0.09922,0.79375 -0.09922,0.446485 -0.223242,0.892969 -0.09922,0.446484 -0.198438,0.843359 -0.07441,0.396875 -0.07441,0.620118 0,0.545703 0.347266,0.868164 0.37207,0.297656 0.868164,0.446484 0.520898,0.148828 1.066601,0.173633 0.570508,0.0248 0.992188,0.0248 2.33164,0 4.663281,-0.09922 2.331641,-0.124024 4.960937,-0.124024 2.306836,0 3.770313,0.198438 1.463476,0.173633 2.356445,0.496094 0.892969,0.322461 1.364258,0.768945 0.471289,0.446484 0.768945,0.967383 0.297657,0.520898 0.545703,1.141015 0.248047,0.595313 0.42168,1.364258 0.173633,0.768945 0.248047,1.761133 0.09922,0.992187 0.09922,2.282031 0,1.612305 0.173633,2.951758 0.198437,1.339453 0.471289,2.703711 0.570507,2.728515 1.90996,3.770312 -0.07441,-0.669726 -0.32246,-1.53789 -0.223243,-0.84336 -0.620118,-1.909961 -0.79375,-2.108399 -0.79375,-4.092774 0,-0.79375 0.04961,-1.612304 0.07441,-0.84336 0.07441,-2.058789 0,-4.564063 -1.711524,-6.548438 -0.545703,-0.644922 -1.686718,-1.141015 -0.967383,-0.42168 -2.703711,-0.768946 -1.711524,-0.347265 -4.415235,-0.37207 z"
         style="stroke-width:0.26458332"
         id="path19030"
         inkscape:connector-curvature="0" />
    </g>
  </g>
</svg>
