<?xml version="1.0" encoding="UTF-8" standalone="no"?>
<!-- Created with Inkscape (http://www.inkscape.org/) -->

<svg
   xmlns:dc="http://purl.org/dc/elements/1.1/"
   xmlns:cc="http://creativecommons.org/ns#"
   xmlns:rdf="http://www.w3.org/1999/02/22-rdf-syntax-ns#"
   xmlns:svg="http://www.w3.org/2000/svg"
   xmlns="http://www.w3.org/2000/svg"
   xmlns:sodipodi="http://sodipodi.sourceforge.net/DTD/sodipodi-0.dtd"
   xmlns:inkscape="http://www.inkscape.org/namespaces/inkscape"
   width="9.0537109mm"
   height="38.099998mm"
   viewBox="0 0 9.0537109 38.099998"
   version="1.1"
   id="svg4535"
   inkscape:version="0.92.4 (5da689c313, 2019-01-14)"
   sodipodi:docname="T8.svg">
  <defs
     id="defs4529" />
  <sodipodi:namedview
     id="base"
     pagecolor="#ffffff"
     bordercolor="#666666"
     borderopacity="1.0"
     inkscape:pageopacity="0.0"
     inkscape:pageshadow="2"
     inkscape:zoom="0.35"
     inkscape:cx="-371.83008"
     inkscape:cy="-340.38157"
     inkscape:document-units="mm"
     inkscape:current-layer="layer1"
     showgrid="false"
     fit-margin-top="0"
     fit-margin-left="0"
     fit-margin-right="0"
     fit-margin-bottom="0"
     inkscape:window-width="1920"
     inkscape:window-height="1017"
     inkscape:window-x="-8"
     inkscape:window-y="-8"
     inkscape:window-maximized="1" />
  <metadata
     id="metadata4532">
    <rdf:RDF>
      <cc:Work
         rdf:about="">
        <dc:format>image/svg+xml</dc:format>
        <dc:type
           rdf:resource="http://purl.org/dc/dcmitype/StillImage" />
        <dc:title></dc:title>
      </cc:Work>
    </rdf:RDF>
  </metadata>
  <g
     inkscape:label="Layer 1"
     inkscape:groupmode="layer"
     id="layer1"
     transform="translate(-11.067541,-20.674045)">
    <g
       aria-label="ð“Œ"
       transform="scale(0.26458333)"
       style="font-style:normal;font-variant:normal;font-weight:normal;font-stretch:normal;font-size:192px;line-height:1.25;font-family:sans-serif;-inkscape-font-specification:sans-serif;font-variant-ligatures:normal;font-variant-caps:normal;font-variant-numeric:normal;font-feature-settings:normal;text-align:start;letter-spacing:0px;word-spacing:0px;writing-mode:lr-tb;text-anchor:start;fill:#000000;fill-opacity:1;stroke:none"
       id="flowRoot5080">
      <path
         d="m 41.830078,94.825624 q 2.25,-9.9375 6.65625,-13.3125 4.5,-3.375 10.5,-3.375 6.1875,0 10.59375,3.5625 4.40625,3.5625 6.46875,12.9375 l -1.5,1.96875 h -10.03125 v 6.187496 q 3,0.28125 6.375,1.40625 l 1.125,1.40625 -4.5,104.34375 q -0.28125,5.4375 -2.90625,8.8125 -2.53125,3.375 -5.34375,3.375 -1.59375,0 -5.0625,-3.09375 -3.46875,-3.09375 -3.65625,-14.15625 -0.09375,-11.0625 -4.21875,-99 l 0.9375,-1.6875 q 1.59375,-0.46875 3.1875,-0.84375 1.6875,-0.46875 3.46875,-0.65625 v -6.093746 h -10.6875 z m 13.5,10.781246 q -1.59375,0 -3.09375,0.375 -1.40625,0.28125 -2.8125,0.75 l 2.25,51.5625 q 1.78125,43.96875 2.25,51.375 0.46875,7.3125 5.4375,9.28125 2.90625,-1.125 3.9375,-3.75 1.03125,-2.71875 1.21875,-5.53125 l 4.5,-103.03125 q -1.59375,-0.46875 -3.09375,-0.65625 -1.5,-0.28125 -3,-0.375 z M 45.111328,93.606874 h 27.65625 q -1.3125,-5.53125 -4.6875,-8.90625 -3.28125,-3.375 -9.1875,-3.46875 -4.78125,0 -8.34375,2.4375 -3.46875,2.4375 -5.4375,9.9375 z m 11.8125,8.999996 h 4.59375 v -5.999996 h -4.59375 z"
         id="path5088"
         inkscape:connector-curvature="0" />
    </g>
  </g>
</svg>
