<?xml version="1.0" encoding="UTF-8" standalone="no"?>
<!-- Created with Inkscape (http://www.inkscape.org/) -->

<svg
   xmlns:dc="http://purl.org/dc/elements/1.1/"
   xmlns:cc="http://creativecommons.org/ns#"
   xmlns:rdf="http://www.w3.org/1999/02/22-rdf-syntax-ns#"
   xmlns:svg="http://www.w3.org/2000/svg"
   xmlns="http://www.w3.org/2000/svg"
   xmlns:sodipodi="http://sodipodi.sourceforge.net/DTD/sodipodi-0.dtd"
   xmlns:inkscape="http://www.inkscape.org/namespaces/inkscape"
   width="10.666016mm"
   height="38.025593mm"
   viewBox="0 0 10.666016 38.025593"
   version="1.1"
   id="svg20155"
   inkscape:version="0.92.4 (5da689c313, 2019-01-14)"
   sodipodi:docname="T8A.svg">
  <defs
     id="defs20149" />
  <sodipodi:namedview
     id="base"
     pagecolor="#ffffff"
     bordercolor="#666666"
     borderopacity="1.0"
     inkscape:pageopacity="0.0"
     inkscape:pageshadow="2"
     inkscape:zoom="0.35"
     inkscape:cx="-334.6875"
     inkscape:cy="-369.92858"
     inkscape:document-units="mm"
     inkscape:current-layer="layer1"
     showgrid="false"
     fit-margin-top="0"
     fit-margin-left="0"
     fit-margin-right="0"
     fit-margin-bottom="0"
     inkscape:window-width="1920"
     inkscape:window-height="1017"
     inkscape:window-x="-8"
     inkscape:window-y="-8"
     inkscape:window-maximized="1" />
  <metadata
     id="metadata20152">
    <rdf:RDF>
      <cc:Work
         rdf:about="">
        <dc:format>image/svg+xml</dc:format>
        <dc:type
           rdf:resource="http://purl.org/dc/dcmitype/StillImage" />
        <dc:title></dc:title>
      </cc:Work>
    </rdf:RDF>
  </metadata>
  <g
     inkscape:label="Layer 1"
     inkscape:groupmode="layer"
     id="layer1"
     transform="translate(-1.2402344,-12.930805)">
    <g
       aria-label="𓌑"
       style="font-style:normal;font-variant:normal;font-weight:normal;font-stretch:normal;font-size:50.79999924px;line-height:1.25;font-family:sans-serif;-inkscape-font-specification:'sans-serif, Normal';font-variant-ligatures:normal;font-variant-caps:normal;font-variant-numeric:normal;font-feature-settings:normal;text-align:start;letter-spacing:0px;word-spacing:0px;writing-mode:lr-tb;text-anchor:start;fill:#000000;fill-opacity:1;stroke:none;stroke-width:0.26458332"
       id="text20702">
      <path
         d="m 5.1593749,12.955615 q 0.5705078,0 1.0914063,-0.02481 h 1.0169921 q 1.8355469,0 2.8525387,0.496094 1.041797,0.496094 1.785938,1.686719 L 11.434961,15.73374 Q 10.74043,15.31206 9.9466795,15.163232 9.1529296,14.989599 8.3343749,14.93999 q -0.074414,0.744141 -0.074414,1.438672 0,1.785937 0.4712891,3.621484 0.471289,1.835547 0.9425781,2.505274 l 0.4464839,0.644921 q 0.347266,0.545704 0.520899,0.942579 0.173633,0.396875 0.173633,0.843359 0,0.272851 -0.07441,0.719336 -0.04961,0.42168 -0.198438,1.041797 l -0.173633,0.669726 q -0.347265,1.736328 -0.8185544,3.795117 -0.4464843,2.033985 -0.4464843,6.35 0,1.612305 0.024805,3.001367 0.049609,1.389063 0.049609,2.530079 v 1.11621 q 0,0.42168 -0.1240234,0.84336 L 8.805668,45.871435 q -0.3472656,1.240234 -0.7689453,2.430859 -0.396875,1.190625 -0.868164,2.38125 l -0.396875,0.272852 H 6.3748046 L 6.0523437,50.757958 Q 4.836914,47.558154 4.5144531,45.722607 4.2167968,43.88706 4.1671874,38.355615 4.1175781,32.824169 3.2246093,29.17788 q -0.868164,-3.646289 -0.868164,-4.191992 0,-0.520898 0.1736328,-0.917773 0.1736328,-0.42168 0.5208984,-0.892969 L 3.5222656,22.50542 q 0.471289,-0.694532 0.9177734,-2.356446 0.4712891,-1.686718 0.4712891,-3.497461 0,-0.421679 -0.024805,-0.843359 -0.024805,-0.42168 -0.074414,-0.843359 -0.79375,0 -1.5626953,0.173633 -0.7689453,0.148828 -1.4386718,0.545703 L 1.2402344,15.163232 q 0.6449218,-1.190625 1.6371093,-1.661914 0.9921875,-0.496094 2.2820312,-0.545703 z m 3.8447265,10.095508 q -0.6201172,0.223242 -1.2402343,0.322461 -0.5953125,0.09922 -1.190625,0.09922 -0.6201172,0 -1.2154297,-0.09922 -0.5953125,-0.09922 -1.190625,-0.322461 -0.2232421,0.421679 -0.471289,0.818554 L 3.175,24.663427 q 0,1.165821 0.4464843,2.753321 0.4464844,1.5875 0.8185547,3.943945 0.396875,2.33164 0.4464844,4.018359 v 2.108399 q 0.1240234,5.08496 0.3224609,7.342187 0.2232422,2.232422 1.3890625,5.159375 0.6201172,-1.5875 1.1658203,-3.224609 0.5705078,-1.63711 0.6201171,-2.678907 l 0.049609,-0.892968 V 42.29956 q 0,-1.438672 -0.074414,-2.877344 -0.049609,-1.438672 -0.049609,-2.902148 0,-4.241602 0.8433594,-7.366992 0.8433593,-3.125391 0.8433593,-4.464844 -0.2728515,-0.42168 -0.4960937,-0.818555 z M 4.5144531,22.331787 q 1.1162109,0.347265 2.1083984,0.347265 1.0169921,0 1.9843749,-0.322461 -0.6201171,-1.265039 -0.8929687,-2.802929 -0.2728516,-1.562695 -0.2728516,-3.075781 0,-0.768946 0.074414,-1.513086 H 5.630664 q 0.049609,0.421679 0.074414,0.843359 0.024805,0.42168 0.024805,0.843359 0,3.001368 -1.2154299,5.680274 z m 0.6449218,-8.582422 q -0.6945312,0.04961 -1.265039,0.198438 -0.5457031,0.124023 -1.0169922,0.471289 0.5457031,-0.124024 1.1162109,-0.173633 0.5953125,-0.07441 1.1658203,-0.07441 l 2.2572266,-0.0248 q 0.7193359,0 1.4138671,0.04961 0.6945313,0.04961 1.3642574,0.223243 -0.5953121,-0.446485 -1.314648,-0.570508 -0.6945312,-0.148828 -1.4882812,-0.148828 -0.5208985,0 -1.0914063,0.0248 -0.5457031,0.0248 -1.1410156,0.0248 z"
         style="stroke-width:0.26458332"
         id="path20704"
         inkscape:connector-curvature="0" />
    </g>
  </g>
</svg>
