<?xml version="1.0" encoding="UTF-8" standalone="no"?>
<!-- Created with Inkscape (http://www.inkscape.org/) -->

<svg
   xmlns:dc="http://purl.org/dc/elements/1.1/"
   xmlns:cc="http://creativecommons.org/ns#"
   xmlns:rdf="http://www.w3.org/1999/02/22-rdf-syntax-ns#"
   xmlns:svg="http://www.w3.org/2000/svg"
   xmlns="http://www.w3.org/2000/svg"
   xmlns:sodipodi="http://sodipodi.sourceforge.net/DTD/sodipodi-0.dtd"
   xmlns:inkscape="http://www.inkscape.org/namespaces/inkscape"
   width="37.207031mm"
   height="6.2011709mm"
   viewBox="0 0 37.207031 6.2011709"
   version="1.1"
   id="svg20713"
   inkscape:version="0.92.4 (5da689c313, 2019-01-14)"
   sodipodi:docname="T9.svg">
  <defs
     id="defs20707" />
  <sodipodi:namedview
     id="base"
     pagecolor="#ffffff"
     bordercolor="#666666"
     borderopacity="1.0"
     inkscape:pageopacity="0.0"
     inkscape:pageshadow="2"
     inkscape:zoom="0.35"
     inkscape:cx="-394.6875"
     inkscape:cy="-268.57142"
     inkscape:document-units="mm"
     inkscape:current-layer="layer1"
     showgrid="false"
     fit-margin-top="0"
     fit-margin-left="0"
     fit-margin-right="0"
     fit-margin-bottom="0"
     inkscape:window-width="1920"
     inkscape:window-height="1017"
     inkscape:window-x="-8"
     inkscape:window-y="-8"
     inkscape:window-maximized="1" />
  <metadata
     id="metadata20710">
    <rdf:RDF>
      <cc:Work
         rdf:about="">
        <dc:format>image/svg+xml</dc:format>
        <dc:type
           rdf:resource="http://purl.org/dc/dcmitype/StillImage" />
        <dc:title></dc:title>
      </cc:Work>
    </rdf:RDF>
  </metadata>
  <g
     inkscape:label="Layer 1"
     inkscape:groupmode="layer"
     id="layer1"
     transform="translate(-17.115234,-71.57264)">
    <g
       aria-label="𓌒"
       style="font-style:normal;font-variant:normal;font-weight:normal;font-stretch:normal;font-size:50.79999924px;line-height:1.25;font-family:sans-serif;-inkscape-font-specification:'sans-serif, Normal';font-variant-ligatures:normal;font-variant-caps:normal;font-variant-numeric:normal;font-feature-settings:normal;text-align:start;letter-spacing:0px;word-spacing:0px;writing-mode:lr-tb;text-anchor:start;fill:#000000;fill-opacity:1;stroke:none;stroke-width:0.26458332"
       id="text21260">
      <path
         d="m 20.315039,77.773811 q -3.199805,0 -3.199805,-6.201171 h 0.992188 q 0,2.356445 0.272851,3.299023 0.570508,1.810742 2.331641,1.810742 1.637109,0 2.406055,-1.141016 0.79375,-1.141015 0.79375,-3.54707 h 23.614062 q 0,2.406055 0.768945,3.54707 0.79375,1.141016 2.430859,1.141016 1.736329,0 2.306836,-1.835547 0.297657,-0.917773 0.297657,-3.274218 h 0.992187 q 0,6.201171 -3.199805,6.201171 -1.289843,0 -3.224609,-0.248047 -1.909961,-0.248046 -4.464844,-0.74414 -2.554882,-0.496094 -4.489648,-0.744141 -1.909961,-0.248047 -3.224609,-0.248047 -1.314649,0 -3.249414,0.248047 -1.909961,0.248047 -4.464844,0.744141 -2.554883,0.496094 -4.489648,0.74414 -1.909961,0.248047 -3.199805,0.248047 z m 4.39043,-4.985742 q -0.09922,0.917774 -0.322461,1.686719 -0.198438,0.644922 -0.520899,1.265039 -0.322461,0.595312 -0.818554,0.79375 0.694531,0 2.083593,-0.272852 1.413867,-0.297656 3.199805,-0.644921 1.785937,-0.347266 3.795117,-0.620118 2.00918,-0.297656 3.919141,-0.297656 1.785937,0 3.720703,0.297656 1.934765,0.272852 3.646289,0.620118 1.711523,0.347265 2.976562,0.644921 1.289844,0.272852 1.761133,0.272852 -0.496094,-0.297656 -0.768945,-0.942578 -0.272852,-0.644922 -0.42168,-1.289844 -0.173633,-0.768945 -0.223242,-1.637109 z"
         style="stroke-width:0.26458332"
         id="path21262"
         inkscape:connector-curvature="0" />
    </g>
  </g>
</svg>
