<?xml version="1.0" encoding="UTF-8" standalone="no"?>
<!-- Created with Inkscape (http://www.inkscape.org/) -->

<svg
   xmlns:dc="http://purl.org/dc/elements/1.1/"
   xmlns:cc="http://creativecommons.org/ns#"
   xmlns:rdf="http://www.w3.org/1999/02/22-rdf-syntax-ns#"
   xmlns:svg="http://www.w3.org/2000/svg"
   xmlns="http://www.w3.org/2000/svg"
   xmlns:sodipodi="http://sodipodi.sourceforge.net/DTD/sodipodi-0.dtd"
   xmlns:inkscape="http://www.inkscape.org/namespaces/inkscape"
   width="37.802341mm"
   height="5.6306701mm"
   viewBox="0 0 37.802341 5.6306701"
   version="1.1"
   id="svg21271"
   inkscape:version="0.92.4 (5da689c313, 2019-01-14)"
   sodipodi:docname="T9A.svg">
  <defs
     id="defs21265" />
  <sodipodi:namedview
     id="base"
     pagecolor="#ffffff"
     bordercolor="#666666"
     borderopacity="1.0"
     inkscape:pageopacity="0.0"
     inkscape:pageshadow="2"
     inkscape:zoom="0.35"
     inkscape:cx="-337.54464"
     inkscape:cy="-349.83484"
     inkscape:document-units="mm"
     inkscape:current-layer="layer1"
     showgrid="false"
     fit-margin-top="0"
     fit-margin-left="0"
     fit-margin-right="0"
     fit-margin-bottom="0"
     inkscape:window-width="1920"
     inkscape:window-height="1017"
     inkscape:window-x="-8"
     inkscape:window-y="-8"
     inkscape:window-maximized="1" />
  <metadata
     id="metadata21268">
    <rdf:RDF>
      <cc:Work
         rdf:about="">
        <dc:format>image/svg+xml</dc:format>
        <dc:type
           rdf:resource="http://purl.org/dc/dcmitype/StillImage" />
        <dc:title></dc:title>
      </cc:Work>
    </rdf:RDF>
  </metadata>
  <g
     inkscape:label="Layer 1"
     inkscape:groupmode="layer"
     id="layer1"
     transform="translate(-1.9961868,-50.642195)">
    <g
       aria-label="𓌓"
       style="font-style:normal;font-variant:normal;font-weight:normal;font-stretch:normal;font-size:50.79999924px;line-height:1.25;font-family:sans-serif;-inkscape-font-specification:'sans-serif, Normal';font-variant-ligatures:normal;font-variant-caps:normal;font-variant-numeric:normal;font-feature-settings:normal;text-align:start;letter-spacing:0px;word-spacing:0px;writing-mode:lr-tb;text-anchor:start;fill:#000000;fill-opacity:1;stroke:none;stroke-width:0.26458332"
       id="text21818">
      <path
         d="m 28.636421,50.642204 0.248047,0.07441 q 1.190625,0.992188 2.306836,1.513086 1.141015,0.496094 2.306835,0.496094 1.934766,0 4.092774,-1.562695 l 0.595312,0.04961 1.612305,1.984375 -0.09922,0.570508 q -1.364258,1.041797 -2.951758,1.761133 -1.5875,0.694531 -3.249414,0.694531 -1.11621,0 -2.158007,-0.37207 -1.041797,-0.347266 -2.827735,-1.612305 H 13.183101 l -1.289844,0.967383 q -0.570508,0.446484 -1.364258,0.74414 -0.7937498,0.322461 -1.8355467,0.322461 -1.3146484,0 -3.0013671,-0.620117 -1.6619141,-0.620117 -3.571875,-1.835547 L 1.9961868,53.147475 4.0053664,51.1631 4.5014602,51.13829 q 2.2076171,1.612305 4.0927734,1.612305 2.0835934,0 4.1919924,-2.00918 l 0.248047,-0.09922 z m -15.180469,2.80293 H 28.26435 v -2.00918 H 13.455952 Z M 37.78935,52.006462 q -2.083593,1.488281 -4.241601,1.488281 -2.306836,0 -4.489649,-1.612304 v 1.761133 q 1.190625,0.892968 2.257227,1.339453 1.066602,0.446484 2.232422,0.446484 1.463476,0 2.827734,-0.595313 1.364258,-0.595312 2.530078,-1.463476 z m -25.127148,1.63711 v -1.761133 q -1.041797,0.818554 -2.058789,1.265039 -1.016992,0.421679 -2.1083982,0.421679 -1.984375,0 -4.1671874,-1.5875 L 2.9139602,53.37072 q 1.0914062,0.719336 2.7285156,1.413867 1.661914,0.694531 3.0757812,0.694531 0.8929687,0 1.661914,-0.322461 0.79375,-0.347265 2.282031,-1.513085 z"
         style="stroke-width:0.26458332"
         id="path21820"
         inkscape:connector-curvature="0" />
    </g>
  </g>
</svg>
