<?xml version="1.0" encoding="UTF-8" standalone="no"?>
<!-- Created with Inkscape (http://www.inkscape.org/) -->

<svg
   xmlns:dc="http://purl.org/dc/elements/1.1/"
   xmlns:cc="http://creativecommons.org/ns#"
   xmlns:rdf="http://www.w3.org/1999/02/22-rdf-syntax-ns#"
   xmlns:svg="http://www.w3.org/2000/svg"
   xmlns="http://www.w3.org/2000/svg"
   xmlns:sodipodi="http://sodipodi.sourceforge.net/DTD/sodipodi-0.dtd"
   xmlns:inkscape="http://www.inkscape.org/namespaces/inkscape"
   width="34.800976mm"
   height="38.075195mm"
   viewBox="0 0 34.800976 38.075195"
   version="1.1"
   id="svg9035"
   inkscape:version="0.92.4 (5da689c313, 2019-01-14)"
   sodipodi:docname="U1.svg">
  <defs
     id="defs9029" />
  <sodipodi:namedview
     id="base"
     pagecolor="#ffffff"
     bordercolor="#666666"
     borderopacity="1.0"
     inkscape:pageopacity="0.0"
     inkscape:pageshadow="2"
     inkscape:zoom="0.35"
     inkscape:cx="-366.11523"
     inkscape:cy="-357.52414"
     inkscape:document-units="mm"
     inkscape:current-layer="layer1"
     showgrid="false"
     fit-margin-top="0"
     fit-margin-left="0"
     fit-margin-right="0"
     fit-margin-bottom="0"
     inkscape:window-width="1920"
     inkscape:window-height="1017"
     inkscape:window-x="-8"
     inkscape:window-y="-8"
     inkscape:window-maximized="1" />
  <metadata
     id="metadata9032">
    <rdf:RDF>
      <cc:Work
         rdf:about="">
        <dc:format>image/svg+xml</dc:format>
        <dc:type
           rdf:resource="http://purl.org/dc/dcmitype/StillImage" />
        <dc:title></dc:title>
      </cc:Work>
    </rdf:RDF>
  </metadata>
  <g
     inkscape:label="Layer 1"
     inkscape:groupmode="layer"
     id="layer1"
     transform="translate(-9.5554889,-16.163209)">
    <g
       aria-label="𓌳"
       transform="scale(0.26458333)"
       style="font-style:normal;font-variant:normal;font-weight:normal;font-stretch:normal;font-size:192px;line-height:1.25;font-family:sans-serif;-inkscape-font-specification:sans-serif;font-variant-ligatures:normal;font-variant-caps:normal;font-variant-numeric:normal;font-feature-settings:normal;text-align:start;letter-spacing:0px;word-spacing:0px;writing-mode:lr-tb;text-anchor:start;fill:#000000;fill-opacity:1;stroke:none"
       id="flowRoot9580">
      <path
         d="m 106.80273,61.089296 h 13.6875 l 1.59375,1.5 q 0,4.3125 -0.375,8.625 -0.375,4.3125 -0.375,8.625 0,10.96875 3.65625,16.6875 3.75,5.718754 8.90625,8.250004 5.25,2.4375 18.375,5.25 l 14.53125,3.09375 0.84375,2.34375 q -9,16.3125 -18.375,27.28125 -9.375,10.875 -18.09375,17.71875 -8.625,6.84375 -36.562496,21.1875 -27.9375,14.25 -39,18.84375 -10.96875,4.5 -13.40625,4.5 -2.4375,0 -4.3125,-1.40625 -1.78125,-1.3125 -1.78125,-3.75 0,-5.34375 8.15625,-8.8125 8.15625,-3.5625 26.53125,-12.9375 18.46875,-9.46875 35.906246,-20.8125 17.53125,-11.34375 24.5625,-19.03125 7.03125,-7.78125 7.03125,-12.5625 0,-3.65625 -3.1875,-6.28125 -3.1875,-2.625 -11.71875,-4.78125 -8.53125,-2.25 -13.3125,-5.34375 -4.78125,-3.1875 -4.78125,-9.09375 0,-3.187504 0.84375,-6.375004 0.84375,-3.1875 0.84375,-8.625 0,-4.875 -0.84375,-10.40625 -0.75,-5.625 -0.75,-11.90625 z m 1.59375,3 q 0.1875,5.25 0.9375,10.59375 0.75,5.34375 0.75,10.59375 0,4.125 -0.9375,8.0625 -0.84375,3.84375 -0.84375,6.65625 0,4.125004 3,6.562504 3.09375,2.34375 12.9375,4.96875 9.9375,2.625 13.5,6.1875 3.5625,3.46875 3.5625,8.15625 0,6.09375 -8.53125,14.90625 -8.4375,8.8125 -27.09375,20.71875 -18.656246,11.90625 -32.249996,18.84375 -13.5,6.84375 -27.46875,13.40625 -4.96875,2.34375 -5.90625,3.75 -0.9375,1.40625 -0.9375,2.25 0,1.21875 0.75,1.6875 0.84375,0.46875 2.4375,0.46875 1.96875,0 4.59375,-1.125 2.625,-1.125 15.28125,-6.65625 12.75,-5.53125 28.6875,-13.96875 l 12.374996,-6.46875 q 16.875,-8.90625 25.5,-15.28125 8.625,-6.46875 17.71875,-16.96875 9.1875,-10.5 17.625,-25.78125 -7.40625,-1.5 -21.28125,-4.78125 -13.875,-3.28125 -19.21875,-10.875004 -5.25,-7.6875 -5.25,-19.3125 0,-4.21875 0.375,-8.25 0.375,-4.125 0.375,-8.34375 z"
         id="path9588"
         inkscape:connector-curvature="0" />
    </g>
  </g>
</svg>
