<?xml version="1.0" encoding="UTF-8" standalone="no"?>
<!-- Created with Inkscape (http://www.inkscape.org/) -->

<svg
   xmlns:dc="http://purl.org/dc/elements/1.1/"
   xmlns:cc="http://creativecommons.org/ns#"
   xmlns:rdf="http://www.w3.org/1999/02/22-rdf-syntax-ns#"
   xmlns:svg="http://www.w3.org/2000/svg"
   xmlns="http://www.w3.org/2000/svg"
   xmlns:sodipodi="http://sodipodi.sourceforge.net/DTD/sodipodi-0.dtd"
   xmlns:inkscape="http://www.inkscape.org/namespaces/inkscape"
   width="23.862108mm"
   height="37.256641mm"
   viewBox="0 0 23.862108 37.256641"
   version="1.1"
   id="svg17930"
   inkscape:version="0.92.4 (5da689c313, 2019-01-14)"
   sodipodi:docname="U11.svg">
  <defs
     id="defs17924" />
  <sodipodi:namedview
     id="base"
     pagecolor="#ffffff"
     bordercolor="#666666"
     borderopacity="1.0"
     inkscape:pageopacity="0.0"
     inkscape:pageshadow="2"
     inkscape:zoom="0.35"
     inkscape:cx="-331.83036"
     inkscape:cy="-391.42857"
     inkscape:document-units="mm"
     inkscape:current-layer="layer1"
     showgrid="false"
     fit-margin-top="0"
     fit-margin-left="0"
     fit-margin-right="0"
     fit-margin-bottom="0"
     inkscape:window-width="1920"
     inkscape:window-height="1017"
     inkscape:window-x="-8"
     inkscape:window-y="-8"
     inkscape:window-maximized="1" />
  <metadata
     id="metadata17927">
    <rdf:RDF>
      <cc:Work
         rdf:about="">
        <dc:format>image/svg+xml</dc:format>
        <dc:type
           rdf:resource="http://purl.org/dc/dcmitype/StillImage" />
        <dc:title></dc:title>
      </cc:Work>
    </rdf:RDF>
  </metadata>
  <g
     inkscape:label="Layer 1"
     inkscape:groupmode="layer"
     id="layer1"
     transform="translate(-0.48428194,-8.0112165)">
    <g
       aria-label="𓌿"
       style="font-style:normal;font-variant:normal;font-weight:normal;font-stretch:normal;font-size:50.79999924px;line-height:1.25;font-family:sans-serif;-inkscape-font-specification:'sans-serif, Normal';font-variant-ligatures:normal;font-variant-caps:normal;font-variant-numeric:normal;font-feature-settings:normal;text-align:start;letter-spacing:0px;word-spacing:0px;writing-mode:lr-tb;text-anchor:start;fill:#000000;fill-opacity:1;stroke:none;stroke-width:0.26458332"
       id="text18477">
      <path
         d="M 8.4713912,42.068052 8.0993209,41.745591 Q 7.851274,39.562779 7.8264693,37.379966 q 0,-2.108398 0.2728516,-4.191992 0.1488281,-0.198438 0.2480469,-0.297656 1.7611332,-0.545703 3.4974612,-0.84336 1.761132,-0.297656 3.596679,-0.347265 V 15.899107 q 0,-1.5875 1.860352,-2.80293 1.885156,-1.240234 1.885156,-2.356445 0,-1.4634764 -2.257226,-1.4634764 -0.942579,0 -1.289844,1.1906254 -0.322461,1.16582 -1.289844,1.637109 -0.967383,0.446484 -2.530078,0.545703 1.661914,-1.066602 2.604492,-2.852539 0.967383,-1.7859375 2.678906,-1.7859375 1.289844,0 2.356446,0.79375 1.066601,0.7689453 1.066601,1.9099605 0,1.810743 -1.909961,2.976563 -1.885156,1.16582 -1.885156,2.282031 v 15.726172 q 1.810742,0.04961 3.522266,0.37207 1.736328,0.297656 3.522265,0.818555 l 0.297656,0.37207 q 0.272852,2.058789 0.272852,4.117578 0,2.133203 -0.272852,4.291211 l -0.148828,0.173633 q -0.07441,0.09922 -0.148828,0.223242 -0.967383,0.124023 -1.934765,0.322461 l -1.909961,0.396875 q -0.967383,0.198437 -1.934766,0.347266 -0.942578,0.124023 -1.934766,0.124023 -1.934765,0 -3.844726,-0.396875 -1.885156,-0.42168 -3.7455078,-0.79375 z m 0.3720703,-0.719336 q 1.7115235,0.322461 3.3982425,0.694531 1.711523,0.372071 3.447851,0.42168 v -9.996289 q -1.761133,0 -3.472656,0.297656 -1.686719,0.272852 -3.3734375,0.79375 -0.2232422,1.810742 -0.2232422,3.547071 v 0.347265 q 0,1.909961 0.2232422,3.894336 z m 7.6398435,1.116211 q 1.736328,-0.07441 3.423047,-0.471289 1.686719,-0.42168 3.398242,-0.669727 0.198438,-1.95957 0.223242,-3.869531 v -0.322461 q 0,-1.736328 -0.223242,-3.571875 -1.686719,-0.496093 -3.373437,-0.79375 -1.686719,-0.297656 -3.447852,-0.297656 z M 4.8747116,36.462193 q 1.0666015,0.545703 1.6123046,1.612304 l -0.396875,0.396875 Q 4.9491256,37.900865 4.4778366,36.859068 Z M 0.88115693,43.258677 Q 1.3028366,43.457114 1.749321,44.002818 l 0.7441406,0.868164 -0.8185547,0.396875 Q 0.90596162,44.498911 0.48428194,43.655552 Z m 2.00917967,-3.59668 q 0.4216797,0.248047 0.79375,0.719336 0.396875,0.446485 0.5953125,0.644922 l 0.1984375,0.248047 -0.79375,0.396875 Q 2.9151413,40.902232 2.4934616,40.058872 Z"
         style="stroke-width:0.26458332"
         id="path18479"
         inkscape:connector-curvature="0" />
    </g>
  </g>
</svg>
