<?xml version="1.0" encoding="UTF-8" standalone="no"?>
<!-- Created with Inkscape (http://www.inkscape.org/) -->

<svg
   xmlns:dc="http://purl.org/dc/elements/1.1/"
   xmlns:cc="http://creativecommons.org/ns#"
   xmlns:rdf="http://www.w3.org/1999/02/22-rdf-syntax-ns#"
   xmlns:svg="http://www.w3.org/2000/svg"
   xmlns="http://www.w3.org/2000/svg"
   xmlns:sodipodi="http://sodipodi.sourceforge.net/DTD/sodipodi-0.dtd"
   xmlns:inkscape="http://www.inkscape.org/namespaces/inkscape"
   width="23.862104mm"
   height="37.579102mm"
   viewBox="0 0 23.862104 37.579102"
   version="1.1"
   id="svg18488"
   inkscape:version="0.92.4 (5da689c313, 2019-01-14)"
   sodipodi:docname="U12.svg">
  <defs
     id="defs18482" />
  <sodipodi:namedview
     id="base"
     pagecolor="#ffffff"
     bordercolor="#666666"
     borderopacity="1.0"
     inkscape:pageopacity="0.0"
     inkscape:pageshadow="2"
     inkscape:zoom="0.35"
     inkscape:cx="-326.11607"
     inkscape:cy="-357.14285"
     inkscape:document-units="mm"
     inkscape:current-layer="layer1"
     showgrid="false"
     fit-margin-top="0"
     fit-margin-left="0"
     fit-margin-right="0"
     fit-margin-bottom="0"
     inkscape:window-width="1920"
     inkscape:window-height="1017"
     inkscape:window-x="-8"
     inkscape:window-y="-8"
     inkscape:window-maximized="1" />
  <metadata
     id="metadata18485">
    <rdf:RDF>
      <cc:Work
         rdf:about="">
        <dc:format>image/svg+xml</dc:format>
        <dc:type
           rdf:resource="http://purl.org/dc/dcmitype/StillImage" />
        <dc:title></dc:title>
      </cc:Work>
    </rdf:RDF>
  </metadata>
  <g
     inkscape:label="Layer 1"
     inkscape:groupmode="layer"
     id="layer1"
     transform="translate(1.0276227,-16.760186)">
    <g
       aria-label="ð“€"
       style="font-style:normal;font-variant:normal;font-weight:normal;font-stretch:normal;font-size:50.79999924px;line-height:1.25;font-family:sans-serif;-inkscape-font-specification:'sans-serif, Normal';font-variant-ligatures:normal;font-variant-caps:normal;font-variant-numeric:normal;font-feature-settings:normal;text-align:start;letter-spacing:0px;word-spacing:0px;writing-mode:lr-tb;text-anchor:start;fill:#000000;fill-opacity:1;stroke:none;stroke-width:0.26458332"
       id="text19035">
      <path
         d="M 7.3563615,51.139482 6.9842912,50.817021 Q 6.8602678,49.70081 6.7858537,48.634209 q -0.049609,-1.066602 -0.074414,-2.182813 0,-1.066601 0.074414,-2.108398 0.074414,-1.041797 0.1984375,-2.083594 l 0.2480469,-0.297656 5.3826169,-0.992188 0.148828,-1.5875 q 0.07441,-0.79375 0.09922,-1.53789 0.04961,-0.768945 0.07441,-1.463477 0.0248,-0.719336 0.124024,-1.513086 0.09922,-0.79375 0.297656,-1.711523 0.198437,-0.917773 0.297656,-1.686719 0.124023,-0.768945 0.124023,-1.413867 0,-1.21543 -0.09922,-2.133203 -0.09922,-0.917773 -0.223242,-1.761133 l -0.297657,-1.934765 q -0.07441,-0.496094 -0.124023,-0.967383 -0.04961,-0.471289 -0.04961,-0.967383 0,-1.339453 0.148828,-2.306836 0.173632,-0.967383 0.496093,-1.612305 0.347266,-0.669726 0.818555,-1.041796 0.496094,-0.372071 1.16582,-0.570508 0.446485,0 0.744141,0.148828 0.322461,0.148828 0.496094,0.37207 0.198437,0.223242 0.272851,0.520899 0.09922,0.272851 0.09922,0.570507 0,0.545704 -0.09922,0.942579 -0.09922,0.37207 -0.272851,0.843359 -0.322461,0.892969 -0.322461,1.389062 0,0.669727 0.124023,1.413868 0.148828,0.74414 0.297656,1.513086 0.148829,0.74414 0.272852,1.488281 0.148828,0.74414 0.148828,1.413867 0,1.091406 -0.02481,1.785937 -0.0248,0.694532 -0.07441,1.165821 -0.0248,0.446484 -0.04961,0.74414 -0.02481,0.272852 -0.04961,0.545703 l -0.198438,2.207618 q -0.04961,0.496093 -0.124023,1.314648 -0.04961,0.79375 -0.148828,1.95957 -0.04961,0.570508 -0.07441,1.265039 -0.02481,0.694532 -0.04961,1.265039 -0.0248,0.694532 -0.0248,1.364258 l 5.705078,0.967383 0.297657,0.37207 q 0.124023,1.041797 0.198437,2.058789 0.07441,1.016992 0.07441,2.058789 0,1.066602 -0.07441,2.133203 -0.07441,1.066602 -0.198437,2.158008 l -0.297657,0.396875 q -0.496093,0.04961 -0.967382,0.148828 -0.471289,0.07441 -0.967383,0.173633 l -1.909961,0.396875 q -0.967383,0.198438 -1.934766,0.347266 -0.942578,0.124023 -1.934765,0.124023 -1.835547,0 -3.646289,-0.42168 Q 9.1174943,51.486748 7.3563615,51.139482 Z M 14.9714,41.589678 v 9.946679 q 1.711524,-0.04961 3.398243,-0.42168 1.711523,-0.37207 3.423046,-0.719335 0.223243,-1.959571 0.223243,-3.894336 0,-1.934766 -0.223243,-3.844727 z M 7.7284318,42.631474 Q 7.5051897,44.392607 7.5051897,46.15374 v 0.347266 q 0,1.95957 0.2232421,3.91914 1.5626953,0.322461 3.1750002,0.694531 1.637109,0.372071 3.274218,0.42168 V 41.589678 Z M 14.896986,18.025225 q -0.272851,0.173633 -0.496093,0.545703 -0.198438,0.37207 -0.347266,0.868164 -0.148828,0.471289 -0.223242,1.041797 -0.07441,0.545703 -0.07441,1.091406 0,0.620117 0.04961,1.488281 0.07441,0.868164 0.198438,1.5875 l 0.272851,1.810742 q 0.124024,0.79375 0.198438,1.63711 0.09922,0.843359 0.09922,1.637109 -0.0248,0.917774 -0.148828,1.761133 -0.09922,0.843359 -0.297656,1.885156 -0.198437,1.016992 -0.322461,2.00918 -0.124023,0.992187 -0.173633,2.033984 -0.04961,1.016992 -0.09922,1.885156 -0.04961,0.84336 -0.09922,1.562696 0.620117,-0.124024 1.16582,-0.124024 0.545703,0 1.16582,0.124024 0.04961,-1.736328 0.124024,-3.22461 0.07441,-1.513086 0.198437,-2.802929 0.124024,-1.314649 0.297657,-3.100586 0.198437,-1.810742 0.198437,-4.167188 0,-0.768945 -0.124023,-1.513086 -0.09922,-0.768945 -0.297657,-1.612304 -0.421679,-1.761133 -0.421679,-2.703711 0,-0.173633 0,-0.322461 0.0248,-0.173633 0.04961,-0.347266 h -0.248047 q -0.496093,-0.04961 -0.79375,-0.396875 -0.272851,-0.347265 -0.272851,-0.843359 0,-0.272852 0.04961,-0.595312 0.07441,-0.322461 0.148828,-0.595313 0.09922,-0.297656 0.223242,-0.620117 z M 3.3628069,45.533623 q 1.0666015,0.545703 1.6123047,1.612305 l -0.396875,0.396875 Q 3.4620257,46.997099 2.9659319,45.930498 Z m -3.99355462,6.796484 q 0.42167968,0.198438 0.86816405,0.744141 l 0.74414061,0.868164 -0.81855468,0.396875 Q -0.63074772,53.545537 -1.0276227,52.726982 Z M 1.3784319,48.733428 q 0.2232422,0.124023 0.4216797,0.32246 0.1984375,0.173633 0.3720703,0.372071 0.1984375,0.198437 0.3472656,0.396875 0.1488282,0.173633 0.2480469,0.272851 l 0.1984375,0.248047 -0.79375,0.396875 q -0.79375,-0.79375 -1.19062496,-1.612304 z M 15.665932,17.653155 q -0.173633,0.471289 -0.272852,0.892968 -0.09922,0.347266 -0.173633,0.694532 -0.07441,0.32246 -0.07441,0.471289 0,0.297656 0.09922,0.496093 0.09922,0.198438 0.644922,0.198438 L 16.16203,19.58792 q 0.09922,-0.347265 0.173633,-0.669726 0.09922,-0.322461 0.09922,-0.520899 0,-0.42168 -0.198437,-0.570508 -0.173633,-0.173632 -0.396875,-0.173632 z"
         style="stroke-width:0.26458332"
         id="path19037"
         inkscape:connector-curvature="0" />
    </g>
  </g>
</svg>
