<?xml version="1.0" encoding="UTF-8" standalone="no"?>
<!-- Created with Inkscape (http://www.inkscape.org/) -->

<svg
   xmlns:dc="http://purl.org/dc/elements/1.1/"
   xmlns:cc="http://creativecommons.org/ns#"
   xmlns:rdf="http://www.w3.org/1999/02/22-rdf-syntax-ns#"
   xmlns:svg="http://www.w3.org/2000/svg"
   xmlns="http://www.w3.org/2000/svg"
   xmlns:sodipodi="http://sodipodi.sourceforge.net/DTD/sodipodi-0.dtd"
   xmlns:inkscape="http://www.inkscape.org/namespaces/inkscape"
   width="37.083008mm"
   height="18.305859mm"
   viewBox="0 0 37.083008 18.305859"
   version="1.1"
   id="svg19046"
   inkscape:version="0.92.4 (5da689c313, 2019-01-14)"
   sodipodi:docname="U13.svg">
  <defs
     id="defs19040" />
  <sodipodi:namedview
     id="base"
     pagecolor="#ffffff"
     bordercolor="#666666"
     borderopacity="1.0"
     inkscape:pageopacity="0.0"
     inkscape:pageshadow="2"
     inkscape:zoom="0.35"
     inkscape:cx="-328.97321"
     inkscape:cy="-400"
     inkscape:document-units="mm"
     inkscape:current-layer="layer1"
     showgrid="false"
     fit-margin-top="0"
     fit-margin-left="0"
     fit-margin-right="0"
     fit-margin-bottom="0"
     inkscape:window-width="1920"
     inkscape:window-height="1017"
     inkscape:window-x="-8"
     inkscape:window-y="-8"
     inkscape:window-maximized="1" />
  <metadata
     id="metadata19043">
    <rdf:RDF>
      <cc:Work
         rdf:about="">
        <dc:format>image/svg+xml</dc:format>
        <dc:type
           rdf:resource="http://purl.org/dc/dcmitype/StillImage" />
        <dc:title></dc:title>
      </cc:Work>
    </rdf:RDF>
  </metadata>
  <g
     inkscape:label="Layer 1"
     inkscape:groupmode="layer"
     id="layer1"
     transform="translate(0.27167048,-24.694141)">
    <g
       aria-label="ð“"
       style="font-style:normal;font-variant:normal;font-weight:normal;font-stretch:normal;font-size:50.79999924px;line-height:1.25;font-family:sans-serif;-inkscape-font-specification:'sans-serif, Normal';font-variant-ligatures:normal;font-variant-caps:normal;font-variant-numeric:normal;font-feature-settings:normal;text-align:start;letter-spacing:0px;word-spacing:0px;writing-mode:lr-tb;text-anchor:start;fill:#000000;fill-opacity:1;stroke:none;stroke-width:0.26458332"
       id="text19593">
      <path
         d="m 6.2271575,28.489258 20.3894525,9.971484 5.531446,-9.624218 1.066601,0.595312 -5.457031,9.574609 2.976562,1.463477 4.985743,-8.681641 1.091406,0.570508 L 31.850399,41.04043 35.992782,43 H 12.081064 v -1.240234 h 8.855273 L 22.722274,37.915039 5.7062591,29.605469 H 4.1683685 q -0.79375,0 -1.5626953,-0.248047 -0.7441406,-0.248047 -1.4634765,-0.818555 -1.41386718,-1.066601 -1.41386718,-2.728515 0,-1.116211 1.98437498,-1.116211 3.3734374,0 4.3904296,3.348633 z M 22.325399,41.759766 h 8.210352 L 23.86329,38.485547 Z M 5.0117279,28.514063 q 0,-0.620117 -0.2728516,-1.165821 Q 4.4660248,26.802539 3.895517,26.405664 2.8041107,25.611914 1.4150482,25.611914 1.117392,25.859961 0.99336856,26.430469 1.3902436,27.249024 2.382431,27.893946 q 0.9921875,0.620117 1.8355469,0.620117 z"
         style="stroke-width:0.26458332"
         id="path19595"
         inkscape:connector-curvature="0" />
    </g>
  </g>
</svg>
