<?xml version="1.0" encoding="UTF-8" standalone="no"?>
<!-- Created with Inkscape (http://www.inkscape.org/) -->

<svg
   xmlns:dc="http://purl.org/dc/elements/1.1/"
   xmlns:cc="http://creativecommons.org/ns#"
   xmlns:rdf="http://www.w3.org/1999/02/22-rdf-syntax-ns#"
   xmlns:svg="http://www.w3.org/2000/svg"
   xmlns="http://www.w3.org/2000/svg"
   xmlns:sodipodi="http://sodipodi.sourceforge.net/DTD/sodipodi-0.dtd"
   xmlns:inkscape="http://www.inkscape.org/namespaces/inkscape"
   width="37.628708mm"
   height="25.300781mm"
   viewBox="0 0 37.628708 25.300781"
   version="1.1"
   id="svg12969"
   inkscape:version="0.92.4 (5da689c313, 2019-01-14)"
   sodipodi:docname="U16.svg">
  <defs
     id="defs12963" />
  <sodipodi:namedview
     id="base"
     pagecolor="#ffffff"
     bordercolor="#666666"
     borderopacity="1.0"
     inkscape:pageopacity="0.0"
     inkscape:pageshadow="2"
     inkscape:zoom="0.35"
     inkscape:cx="-366.11523"
     inkscape:cy="-352.83264"
     inkscape:document-units="mm"
     inkscape:current-layer="layer1"
     showgrid="false"
     fit-margin-top="0"
     fit-margin-left="0"
     fit-margin-right="0"
     fit-margin-bottom="0"
     inkscape:window-width="1920"
     inkscape:window-height="1017"
     inkscape:window-x="-8"
     inkscape:window-y="-8"
     inkscape:window-maximized="1" />
  <metadata
     id="metadata12966">
    <rdf:RDF>
      <cc:Work
         rdf:about="">
        <dc:format>image/svg+xml</dc:format>
        <dc:type
           rdf:resource="http://purl.org/dc/dcmitype/StillImage" />
        <dc:title></dc:title>
      </cc:Work>
    </rdf:RDF>
  </metadata>
  <g
     inkscape:label="Layer 1"
     inkscape:groupmode="layer"
     id="layer1"
     transform="translate(-9.5554889,-30.178917)">
    <g
       aria-label="ð“„"
       transform="scale(0.26458333)"
       style="font-style:normal;font-variant:normal;font-weight:normal;font-stretch:normal;font-size:192px;line-height:1.25;font-family:sans-serif;-inkscape-font-specification:sans-serif;font-variant-ligatures:normal;font-variant-caps:normal;font-variant-numeric:normal;font-feature-settings:normal;text-align:start;letter-spacing:0px;word-spacing:0px;writing-mode:lr-tb;text-anchor:start;fill:#000000;fill-opacity:1;stroke:none"
       id="flowRoot13514">
      <path
         d="m 178.33398,193.0932 v 4.59375 H 84.490234 l -1.5,-0.0937 q -0.46875,0 -0.84375,0 -0.375,0 -0.75,-0.0937 -0.375,0.65625 -0.65625,1.3125 -0.28125,0.65625 -0.5625,1.40625 -1.3125,2.71875 -2.71875,4.5 -1.3125,1.875 -2.8125,2.90625 -1.5,1.125 -3.1875,1.59375 -1.6875,0.46875 -3.65625,0.46875 -1.6875,0 -2.4375,-1.6875 -0.75,-1.59375 -0.75,-3.84375 0,-2.34375 0.65625,-4.875 0.75,-2.4375 1.875,-4.03125 0.84375,-1.3125 1.59375,-2.25 0.75,-0.9375 1.3125,-1.6875 0.65625,-0.84375 1.125,-1.5 l -7.6875,-28.875 q -5.0625,-2.4375 -12.375,-3 -3.65625,-0.1875 -6.46875,-0.46875 -2.8125,-0.28125 -4.6875,-0.46875 -3.84375,-0.46875 -3.84375,-4.59375 0,-3.84375 3.65625,-4.59375 1.875,-0.375 3.9375,-0.75 2.0625,-0.375 4.40625,-0.84375 4.59375,-0.84375 7.40625,-1.96875 l 4.96875,-2.0625 q 1.125,-0.46875 1.21875,-0.46875 h 4.59375 v -27.46875 l 3.09375,-0.1875 q 0.84375,2.34375 1.78125,5.4375 0.75,2.71875 1.6875,6.65625 1.03125,3.9375 2.0625,9 1.78125,-2.90625 2.53125,-7.21875 0.28125,-1.78125 0.46875,-3.75 0.1875,-2.0625 0.28125,-3.84375 0.09375,-1.875 0.09375,-3.28125 0.09375,-1.5 0.09375,-2.25 v -0.5625 l 2.90625,-0.1875 0.65625,3.28125 q 0.28125,1.40625 0.5625,3.1875 0.375,1.6875 0.75,3.28125 0.65625,3.28125 0.9375,6.46875 0.375,3.09375 0.375,6.09375 0,3.1875 -0.65625,5.625 -0.5625,2.34375 -1.59375,4.21875 -1.03125,1.78125 -2.4375,3.09375 -1.3125,1.21875 -2.71875,2.15625 l 8.71875,25.03125 h 15.187496 v -15.9375 l 1.40625,-1.78125 h 46.96875 l 1.59375,1.5 v 16.21875 h 27.28125 v 4.59375 h -10.59375 v 12 z M 62.177734,144.7182 q -3.65625,2.15625 -7.6875,3.09375 -1.59375,0.375 -3.28125,0.75 -1.6875,0.28125 -3.1875,0.5625 -1.6875,0.375 -3.46875,0.65625 -2.625,0.1875 -4.21875,1.03125 -1.5,0.75 -1.5,1.5 0,0.65625 0.9375,1.59375 l 9.5625,0.84375 q 6.1875,0.5625 11.34375,2.0625 5.25,1.5 5.53125,2.71875 l 7.3125,27.9375 9.75,-9.5625 -9.1875,-26.34375 0.75,-2.15625 q 3.1875,-1.3125 4.96875,-5.34375 1.875,-4.03125 1.875,-10.03125 0,-3.9375 -1.03125,-8.25 -0.5625,4.78125 -2.15625,8.71875 -1.5,3.9375 -3.65625,5.4375 l -4.125,3.1875 q -1.59375,1.21875 -2.53125,1.5 -0.84375,0.28125 -1.875,0.28125 l -0.75,-0.0937 q -0.65625,0 -1.5,0 -0.84375,0 -1.875,-0.0937 z m 85.874996,31.78125 V 161.7807 h -43.96875 v 14.71875 z m -45.46875,16.59375 h 46.96875 v -12 h -46.96875 z m -13.593746,0 h 9 v -12 h -9 z m 65.156246,0 h 9 v -12 h -9 z m -82.312496,0.9375 q -0.375,0.28125 -1.03125,1.40625 -0.65625,1.03125 -1.3125,2.4375 -0.65625,1.40625 -1.21875,3 -0.46875,1.59375 -0.46875,2.90625 0,1.78125 1.03125,2.4375 2.90625,0 4.78125,-2.71875 1.96875,-2.625 3.84375,-6.9375 z m 12.65625,-12.9375 -9.375,9.375 4.5,1.96875 z m -15.09375,-56.625 v 15.84375 l 2.90625,-2.4375 z m -5.8125,22.96875 q 0.84375,0 2.71875,1.875 -1.59375,1.03125 -2.34375,1.03125 -1.03125,0 -1.03125,-1.59375 0,-1.3125 0.65625,-1.3125 z m 20.90625,45.65625 v -3 l -1.21875,3 z"
         id="path13522"
         inkscape:connector-curvature="0" />
    </g>
  </g>
</svg>
