<?xml version="1.0" encoding="UTF-8" standalone="no"?>
<!-- Created with Inkscape (http://www.inkscape.org/) -->

<svg
   xmlns:dc="http://purl.org/dc/elements/1.1/"
   xmlns:cc="http://creativecommons.org/ns#"
   xmlns:rdf="http://www.w3.org/1999/02/22-rdf-syntax-ns#"
   xmlns:svg="http://www.w3.org/2000/svg"
   xmlns="http://www.w3.org/2000/svg"
   xmlns:sodipodi="http://sodipodi.sourceforge.net/DTD/sodipodi-0.dtd"
   xmlns:inkscape="http://www.inkscape.org/namespaces/inkscape"
   width="38.000782mm"
   height="19.39727mm"
   viewBox="0 0 38.000782 19.39727"
   version="1.1"
   id="svg20162"
   inkscape:version="0.92.4 (5da689c313, 2019-01-14)"
   sodipodi:docname="U17.svg">
  <defs
     id="defs20156" />
  <sodipodi:namedview
     id="base"
     pagecolor="#ffffff"
     bordercolor="#666666"
     borderopacity="1.0"
     inkscape:pageopacity="0.0"
     inkscape:pageshadow="2"
     inkscape:zoom="0.35"
     inkscape:cx="-363.25893"
     inkscape:cy="-387.07142"
     inkscape:document-units="mm"
     inkscape:current-layer="layer1"
     showgrid="false"
     fit-margin-top="0"
     fit-margin-left="0"
     fit-margin-right="0"
     fit-margin-bottom="0"
     inkscape:window-width="1920"
     inkscape:window-height="1017"
     inkscape:window-x="-8"
     inkscape:window-y="-8"
     inkscape:window-maximized="1" />
  <metadata
     id="metadata20159">
    <rdf:RDF>
      <cc:Work
         rdf:about="">
        <dc:format>image/svg+xml</dc:format>
        <dc:type
           rdf:resource="http://purl.org/dc/dcmitype/StillImage" />
        <dc:title></dc:title>
      </cc:Work>
    </rdf:RDF>
  </metadata>
  <g
     inkscape:label="Layer 1"
     inkscape:groupmode="layer"
     id="layer1"
     transform="translate(-8.7997579,-27.023417)">
    <g
       aria-label="ð“…"
       style="font-style:normal;font-variant:normal;font-weight:normal;font-stretch:normal;font-size:50.79999924px;line-height:1.25;font-family:sans-serif;-inkscape-font-specification:'sans-serif, Normal';font-variant-ligatures:normal;font-variant-caps:normal;font-variant-numeric:normal;font-feature-settings:normal;text-align:start;letter-spacing:0px;word-spacing:0px;writing-mode:lr-tb;text-anchor:start;fill:#000000;fill-opacity:1;stroke:none;stroke-width:0.26458332"
       id="text20709">
      <path
         d="M 9.1718282,40.814823 H 28.519484 l -13.394531,-13.121679 0.37207,-0.669727 24.854297,2.530078 0.223242,0.620117 -1.16582,1.984375 -0.347266,0.148829 -14.882812,-1.488282 q -0.124023,0 -0.297656,-0.0248 h -0.173633 q -0.272852,0 -0.471289,0.148828 0,0.198437 0.124023,0.496093 0.620117,0.595313 1.413867,1.289844 l 8.73125,8.086328 h 12.873633 l 0.42168,0.396875 v 4.81211 l -0.42168,0.396875 H 9.1718282 l -0.3720703,-0.47129 v -4.663281 z m 0.4216797,0.79375 v 4.01836 H 46.006789 v -4.01836 z M 16.489211,27.916386 29.685305,40.814823 h 2.654101 L 24.10425,33.199784 q -1.339453,-1.215429 -1.438672,-1.364258 -0.07441,-0.148828 -0.07441,-0.223242 l -0.124023,-0.37207 q -0.04961,-0.173633 -0.04961,-0.297656 0,-0.396875 0.446485,-0.644922 0.471289,-0.248047 1.215429,-0.248047 h 0.223242 l 14.560352,1.438672 0.74414,-1.240234 z"
         style="stroke-width:0.26458332"
         id="path20711"
         inkscape:connector-curvature="0" />
    </g>
  </g>
</svg>
