<?xml version="1.0" encoding="UTF-8" standalone="no"?>
<!-- Created with Inkscape (http://www.inkscape.org/) -->

<svg
   xmlns:dc="http://purl.org/dc/elements/1.1/"
   xmlns:cc="http://creativecommons.org/ns#"
   xmlns:rdf="http://www.w3.org/1999/02/22-rdf-syntax-ns#"
   xmlns:svg="http://www.w3.org/2000/svg"
   xmlns="http://www.w3.org/2000/svg"
   xmlns:sodipodi="http://sodipodi.sourceforge.net/DTD/sodipodi-0.dtd"
   xmlns:inkscape="http://www.inkscape.org/namespaces/inkscape"
   width="10.666016mm"
   height="19.347656mm"
   viewBox="0 0 10.666016 19.347656"
   version="1.1"
   id="svg13531"
   inkscape:version="0.92.4 (5da689c313, 2019-01-14)"
   sodipodi:docname="U22.svg">
  <defs
     id="defs13525" />
  <sodipodi:namedview
     id="base"
     pagecolor="#ffffff"
     bordercolor="#666666"
     borderopacity="1.0"
     inkscape:pageopacity="0.0"
     inkscape:pageshadow="2"
     inkscape:zoom="0.35"
     inkscape:cx="-383.25977"
     inkscape:cy="-341.50657"
     inkscape:document-units="mm"
     inkscape:current-layer="layer1"
     showgrid="false"
     fit-margin-top="0"
     fit-margin-left="0"
     fit-margin-right="0"
     fit-margin-bottom="0"
     inkscape:window-width="1920"
     inkscape:window-height="1017"
     inkscape:window-x="-8"
     inkscape:window-y="-8"
     inkscape:window-maximized="1" />
  <metadata
     id="metadata13528">
    <rdf:RDF>
      <cc:Work
         rdf:about="">
        <dc:format>image/svg+xml</dc:format>
        <dc:type
           rdf:resource="http://purl.org/dc/dcmitype/StillImage" />
        <dc:title></dc:title>
      </cc:Work>
    </rdf:RDF>
  </metadata>
  <g
     inkscape:label="Layer 1"
     inkscape:groupmode="layer"
     id="layer1"
     transform="translate(-14.091646,-39.128731)">
    <g
       aria-label="ð“Š"
       transform="scale(0.26458333)"
       style="font-style:normal;font-variant:normal;font-weight:normal;font-stretch:normal;font-size:192px;line-height:1.25;font-family:sans-serif;-inkscape-font-specification:sans-serif;font-variant-ligatures:normal;font-variant-caps:normal;font-variant-numeric:normal;font-feature-settings:normal;text-align:start;letter-spacing:0px;word-spacing:0px;writing-mode:lr-tb;text-anchor:start;fill:#000000;fill-opacity:1;stroke:none"
       id="flowRoot14076">
      <path
         d="m 77.634766,188.76312 1.96875,3.75 q 1.03125,2.0625 1.40625,3.9375 0.46875,1.78125 0.46875,3.46875 0,2.90625 -0.9375,5.71875 -0.84375,2.71875 -1.96875,6 l -2.90625,9.375 -2.90625,-0.1875 q -1.6875,-6 -4.59375,-12.09375 -2.8125,-6.1875 -2.8125,-10.03125 0,-2.15625 0.84375,-4.5 0.84375,-2.4375 2.71875,-5.4375 h -14.4375 l -1.21875,-2.25 q 4.3125,-6.75 6.46875,-19.6875 2.25,-13.03125 6,-15.9375 3.75,-3 8.625,-3 4.59375,0 8.0625,2.8125 3.5625,2.8125 5.15625,15.65625 1.59375,12.84375 6,19.96875 l -1.3125,2.4375 z m -2.90625,-3 h 15 q -4.40625,-8.8125 -5.53125,-21.84375 -1.03125,-13.03125 -9.65625,-13.03125 -3.84375,0 -6.5625,2.25 -2.71875,2.15625 -3.5625,6.1875 l -3.375,16.03125 q -1.21875,5.53125 -3.84375,10.40625 h 14.4375 l 1.3125,2.4375 q -3,4.125 -3.84375,6.75 -0.75,2.53125 -0.75,4.5 0,2.8125 1.6875,6.375 1.78125,3.5625 2.34375,4.875 l 1.78125,4.78125 1.5,-4.59375 1.96875,-5.53125 q 0.84375,-2.53125 0.84375,-5.25 0,-2.90625 -1.40625,-5.90625 -1.40625,-3.09375 -3.5625,-6.1875 z"
         id="path14084"
         inkscape:connector-curvature="0" />
    </g>
  </g>
</svg>
