<?xml version="1.0" encoding="UTF-8" standalone="no"?>
<!-- Created with Inkscape (http://www.inkscape.org/) -->

<svg
   xmlns:dc="http://purl.org/dc/elements/1.1/"
   xmlns:cc="http://creativecommons.org/ns#"
   xmlns:rdf="http://www.w3.org/1999/02/22-rdf-syntax-ns#"
   xmlns:svg="http://www.w3.org/2000/svg"
   xmlns="http://www.w3.org/2000/svg"
   xmlns:sodipodi="http://sodipodi.sourceforge.net/DTD/sodipodi-0.dtd"
   xmlns:inkscape="http://www.inkscape.org/namespaces/inkscape"
   width="8.6816406mm"
   height="37.653515mm"
   viewBox="0 0 8.6816406 37.653515"
   version="1.1"
   id="svg14093"
   inkscape:version="0.92.4 (5da689c313, 2019-01-14)"
   sodipodi:docname="U23.svg">
  <defs
     id="defs14087" />
  <sodipodi:namedview
     id="base"
     pagecolor="#ffffff"
     bordercolor="#666666"
     borderopacity="1.0"
     inkscape:pageopacity="0.0"
     inkscape:pageshadow="2"
     inkscape:zoom="0.35"
     inkscape:cx="-326.11523"
     inkscape:cy="-360.47532"
     inkscape:document-units="mm"
     inkscape:current-layer="layer1"
     showgrid="false"
     fit-margin-top="0"
     fit-margin-left="0"
     fit-margin-right="0"
     fit-margin-bottom="0"
     inkscape:window-width="1920"
     inkscape:window-height="1017"
     inkscape:window-x="-8"
     inkscape:window-y="-8"
     inkscape:window-maximized="1" />
  <metadata
     id="metadata14090">
    <rdf:RDF>
      <cc:Work
         rdf:about="">
        <dc:format>image/svg+xml</dc:format>
        <dc:type
           rdf:resource="http://purl.org/dc/dcmitype/StillImage" />
        <dc:title></dc:title>
      </cc:Work>
    </rdf:RDF>
  </metadata>
  <g
     inkscape:label="Layer 1"
     inkscape:groupmode="layer"
     id="layer1"
     transform="translate(1.0278442,-15.804058)">
    <g
       aria-label="ð“‹"
       transform="scale(0.26458333)"
       style="font-style:normal;font-variant:normal;font-weight:normal;font-stretch:normal;font-size:192px;line-height:1.25;font-family:sans-serif;-inkscape-font-specification:sans-serif;font-variant-ligatures:normal;font-variant-caps:normal;font-variant-numeric:normal;font-feature-settings:normal;text-align:start;letter-spacing:0px;word-spacing:0px;writing-mode:lr-tb;text-anchor:start;fill:#000000;fill-opacity:1;stroke:none"
       id="flowRoot14638">
      <path
         d="m 27.708984,59.731874 v 3.09375 h -7.3125 q 6,2.71875 7.21875,10.875 l 0.46875,3.28125 q 0,1.03125 0.09375,1.96875 0,1.21875 -0.28125,3 -0.28125,1.78125 -0.5625,3.28125 l -1.125,4.78125 q -0.5625,2.4375 -1.03125,4.78125 -0.375,2.34375 -0.375,4.59375 0,2.718746 0.84375,5.531246 0.84375,2.71875 3.28125,5.34375 l -1.3125,2.4375 h -11.625 q 1.3125,6.1875 2.0625,12.28125 0.84375,6 0.84375,12.1875 v 2.625 q 0,1.875 -0.375,5.25 -0.28125,3.375 -0.65625,6.75 l -1.125,9.28125 q -0.65625,4.6875 -1.125,9.375 -0.375,4.59375 -0.375,9.1875 0,5.15625 0.65625,10.3125 0.75,5.0625 2.625,10.125 l -1.5,1.96875 H 6.4277344 l -1.21875,-2.25 q 1.875,-5.0625 2.53125,-10.125 0.75,-5.0625 0.75,-10.21875 0,-5.25 -0.5625,-10.59375 l -2.34375,-21.375 q -0.5625,-5.25 -0.5625,-10.59375 v -1.96875 q 0,-2.90625 0.84375,-9.28125 0.84375,-6.375 3.09375,-12.9375 h -11.625 l -1.21875,-2.25 q 1.5,-2.4375 2.99999997,-5.53125 1.5,-3.1875 1.5,-6.281246 0,-3.75 -2.15624997,-10.3125 -2.15625,-6.65625 -2.15625,-10.6875 0,-4.5 1.875,-8.625 1.96874997,-4.21875 6.28125,-6.1875 h -7.03125 v -3.09375 z m -15.28125,4.59375 q -6.1874996,0.46875 -9.6562496,3.28125 -3.46875002,2.8125 -3.46875002,8.90625 0,4.96875 2.06250002,11.8125 2.0625,6.84375 2.0625,10.6875 0,2.437496 -0.75,5.062496 -0.65625,2.625 -2.53125003,5.625 H 10.927734 l 1.40625,1.96875 q -2.7187496,7.96875 -3.5624996,14.71875 -0.75,6.75 -0.75,8.34375 v 1.5 q 0,5.0625 0.65625,10.125 l 1.125,10.21875 q 0.6562496,5.53125 1.1249996,10.96875 0.46875,5.4375 0.46875,10.875 0,5.25 -0.65625,10.40625 -0.5625,5.0625 -2.0624996,10.21875 h 6.2812496 q -1.5,-5.15625 -2.0625,-10.03125 -0.5625,-4.96875 -0.5625,-9.9375 0,-9.09375 1.875,-23.0625 1.875,-13.96875 1.875,-21.75 0,-5.34375 -1.125,-11.34375 -1.03125,-6 -2.15625,-11.25 l 1.21875,-1.96875 h 10.59375 q -1.5,-2.53125 -2.25,-5.53125 -0.75,-3 -0.75,-5.999996 0,-4.125 1.6875,-9.5625 1.78125,-5.4375 1.78125,-9.09375 0,-8.34375 -3.09375,-11.71875 -3,-3.46875 -9.5625,-3.46875 z"
         id="path14646"
         inkscape:connector-curvature="0" />
    </g>
  </g>
</svg>
