<?xml version="1.0" encoding="UTF-8" standalone="no"?>
<!-- Created with Inkscape (http://www.inkscape.org/) -->

<svg
   xmlns:dc="http://purl.org/dc/elements/1.1/"
   xmlns:cc="http://creativecommons.org/ns#"
   xmlns:rdf="http://www.w3.org/1999/02/22-rdf-syntax-ns#"
   xmlns:svg="http://www.w3.org/2000/svg"
   xmlns="http://www.w3.org/2000/svg"
   xmlns:sodipodi="http://sodipodi.sourceforge.net/DTD/sodipodi-0.dtd"
   xmlns:inkscape="http://www.inkscape.org/namespaces/inkscape"
   width="8.6816406mm"
   height="37.678322mm"
   viewBox="0 0 8.6816406 37.678322"
   version="1.1"
   id="svg14655"
   inkscape:version="0.92.4 (5da689c313, 2019-01-14)"
   sodipodi:docname="U23A.svg">
  <defs
     id="defs14649" />
  <sodipodi:namedview
     id="base"
     pagecolor="#ffffff"
     bordercolor="#666666"
     borderopacity="1.0"
     inkscape:pageopacity="0.0"
     inkscape:pageshadow="2"
     inkscape:zoom="0.35"
     inkscape:cx="-334.6875"
     inkscape:cy="-337.52414"
     inkscape:document-units="mm"
     inkscape:current-layer="layer1"
     showgrid="false"
     fit-margin-top="0"
     fit-margin-left="0"
     fit-margin-right="0"
     fit-margin-bottom="0"
     inkscape:window-width="1920"
     inkscape:window-height="1017"
     inkscape:window-x="-8"
     inkscape:window-y="-8"
     inkscape:window-maximized="1" />
  <metadata
     id="metadata14652">
    <rdf:RDF>
      <cc:Work
         rdf:about="">
        <dc:format>image/svg+xml</dc:format>
        <dc:type
           rdf:resource="http://purl.org/dc/dcmitype/StillImage" />
        <dc:title></dc:title>
      </cc:Work>
    </rdf:RDF>
  </metadata>
  <g
     inkscape:label="Layer 1"
     inkscape:groupmode="layer"
     id="layer1"
     transform="translate(-1.2402344,-21.851751)">
    <g
       aria-label="ð“Œ"
       transform="scale(0.26458333)"
       style="font-style:normal;font-variant:normal;font-weight:normal;font-stretch:normal;font-size:192px;line-height:1.25;font-family:sans-serif;-inkscape-font-specification:sans-serif;font-variant-ligatures:normal;font-variant-caps:normal;font-variant-numeric:normal;font-feature-settings:normal;text-align:start;letter-spacing:0px;word-spacing:0px;writing-mode:lr-tb;text-anchor:start;fill:#000000;fill-opacity:1;stroke:none"
       id="flowRoot15200">
      <path
         d="m 6,82.589296 h 30.28125 v 3.09375 h -7.3125 q 6,2.71875 7.21875,10.875 l 0.46875,3.28125 q 0,1.031254 0.09375,1.968754 0,1.21875 -0.28125,3 -0.28125,1.78125 -0.5625,3.28125 l -1.125,4.78125 q -0.5625,2.4375 -1.03125,4.78125 -0.375,2.34375 -0.375,4.59375 0,2.71875 0.84375,5.53125 0.84375,2.71875 3.28125,5.34375 l -1.3125,2.4375 H 25.03125 q 1.59375,3.9375 2.53125,10.6875 0.9375,6.75 1.40625,13.40625 l 0.375,6.65625 q 0.375,7.125 0.65625,13.3125 0.28125,6.09375 0.375,12.09375 v 14.8125 q -0.1875,9.84375 -2.71875,14.15625 -2.53125,4.3125 -6.46875,4.3125 -5.25,0 -7.40625,-6.1875 Q 11.625,212.5268 11.625,200.3393 v -4.125 q 0,-2.0625 0.09375,-4.03125 l 0.1875,-6 q 0,-1.96875 0.375,-9.9375 0.46875,-8.0625 0.84375,-12.75 l 0.46875,-6.28125 0.28125,-4.40625 q 0.375,-5.4375 1.03125,-9.9375 0.75,-4.59375 1.96875,-7.3125 H 5.90625 l -1.21875,-2.25 q 1.5,-2.4375 3,-5.53125 1.5,-3.1875 1.5,-6.28125 0,-3.75 -2.15625,-10.3125 Q 4.875,104.5268 4.875,100.49555 q 0,-4.500004 1.875,-8.625004 1.96875,-4.21875 6.28125,-6.1875 H 6 Z m 15,4.59375 q -6.1875,0.46875 -9.65625,3.28125 -3.46875,2.8125 -3.46875,8.90625 0,4.968754 2.0625,11.812504 Q 12,118.0268 12,121.87055 q 0,2.4375 -0.75,5.0625 -0.65625,2.625 -2.53125,5.625 H 33.1875 q -1.5,-2.53125 -2.25,-5.53125 -0.75,-3 -0.75,-6 0,-4.125 1.6875,-9.5625 1.78125,-5.4375 1.78125,-9.09375 0,-8.343754 -3.09375,-11.718754 -3,-3.46875 -9.5625,-3.46875 z M 16.59375,157.49555 Q 15.75,167.1518 15.1875,176.7143 q -0.46875,9.46875 -0.46875,19.125 l 0.09375,9.1875 q 0,8.4375 1.875,12.84375 1.875,4.3125 4.40625,4.3125 2.25,0 4.125,-3.84375 1.875,-3.84375 1.96875,-9.5625 l 0.1875,-7.5 v -9.09375 Q 27.1875,178.7768 25.96875,160.4018 24.84375,141.93305 21.75,135.55805 h -1.59375 q -1.21875,2.0625 -1.96875,6.75 -0.75,4.6875 -1.21875,10.78125 z"
         id="path15208"
         inkscape:connector-curvature="0" />
    </g>
  </g>
</svg>
