<?xml version="1.0" encoding="UTF-8" standalone="no"?>
<!-- Created with Inkscape (http://www.inkscape.org/) -->

<svg
   xmlns:dc="http://purl.org/dc/elements/1.1/"
   xmlns:cc="http://creativecommons.org/ns#"
   xmlns:rdf="http://www.w3.org/1999/02/22-rdf-syntax-ns#"
   xmlns:svg="http://www.w3.org/2000/svg"
   xmlns="http://www.w3.org/2000/svg"
   xmlns:sodipodi="http://sodipodi.sourceforge.net/DTD/sodipodi-0.dtd"
   xmlns:inkscape="http://www.inkscape.org/namespaces/inkscape"
   width="11.186915mm"
   height="37.256641mm"
   viewBox="0 0 11.186915 37.256641"
   version="1.1"
   id="svg22952"
   inkscape:version="0.92.4 (5da689c313, 2019-01-14)"
   sodipodi:docname="U24.svg">
  <defs
     id="defs22946" />
  <sodipodi:namedview
     id="base"
     pagecolor="#ffffff"
     bordercolor="#666666"
     borderopacity="1.0"
     inkscape:pageopacity="0.0"
     inkscape:pageshadow="2"
     inkscape:zoom="0.35"
     inkscape:cx="-354.6875"
     inkscape:cy="-397.23661"
     inkscape:document-units="mm"
     inkscape:current-layer="layer1"
     showgrid="false"
     fit-margin-top="0"
     fit-margin-left="0"
     fit-margin-right="0"
     fit-margin-bottom="0"
     inkscape:window-width="1920"
     inkscape:window-height="1017"
     inkscape:window-x="-8"
     inkscape:window-y="-8"
     inkscape:window-maximized="1" />
  <metadata
     id="metadata22949">
    <rdf:RDF>
      <cc:Work
         rdf:about="">
        <dc:format>image/svg+xml</dc:format>
        <dc:type
           rdf:resource="http://purl.org/dc/dcmitype/StillImage" />
        <dc:title></dc:title>
      </cc:Work>
    </rdf:RDF>
  </metadata>
  <g
     inkscape:label="Layer 1"
     inkscape:groupmode="layer"
     id="layer1"
     transform="translate(-6.5319009,-6.4745062)">
    <g
       aria-label="ð“"
       style="font-style:normal;font-variant:normal;font-weight:normal;font-stretch:normal;font-size:50.79999924px;line-height:1.25;font-family:sans-serif;-inkscape-font-specification:'sans-serif, Normal';font-variant-ligatures:normal;font-variant-caps:normal;font-variant-numeric:normal;font-feature-settings:normal;text-align:start;letter-spacing:0px;word-spacing:0px;writing-mode:lr-tb;text-anchor:start;fill:#000000;fill-opacity:1;stroke:none;stroke-width:0.26458332"
       id="text23499">
      <path
         d="M 10.054166,25.747748 V 18.157514 H 6.9039712 L 6.5319009,17.686225 q 0,-1.190625 1.0666015,-2.331641 1.0914062,-1.16582 2.3316406,-1.488281 2.554883,-2.133203 3.249414,-3.571875 0.719336,-1.5130859 0.942578,-3.8199218 h 0.79375 q 0.02481,0.4216797 0.04961,0.79375 0.02481,0.3224609 0.02481,0.6697265 0.0248,0.3224609 0.0248,0.5457031 v 0.322461 q 0,1.5130862 -0.520899,2.6292972 -0.471289,1.066601 -1.835546,2.38125 2.058789,0.272851 3.49746,1.289843 1.438672,1.041797 1.562696,2.654102 l -0.42168,0.396875 h -2.976562 v 18.801953 q 1.909961,0.719336 1.909961,2.554882 v 0.173633 h 1.488281 v 0.868164 h -1.5875 q -0.04961,0.545703 -0.198438,1.116211 -0.148828,0.545703 -0.446484,1.016992 -0.272852,0.446485 -0.719336,0.744141 -0.446484,0.297656 -1.116211,0.297656 -0.595312,0 -1.041797,-0.248047 -0.446484,-0.272851 -0.79375,-0.694531 -0.322461,-0.446484 -0.520898,-1.016992 -0.198438,-0.570508 -0.272852,-1.21543 H 9.3348305 V 39.687982 H 10.97194 q 0.07441,-2.207617 2.133203,-2.728515 V 18.157514 h -1.785938 v 7.590234 z m 1.413868,-11.881445 q 1.141015,-1.041797 1.736328,-1.860352 0.620117,-0.818554 0.868164,-1.761132 -0.570508,1.215429 -1.934766,2.654101 -1.364258,1.438672 -1.934765,1.661914 l -0.2976567,0.124024 q -0.868164,0.347265 -1.5875,1.066601 -0.7193359,0.719336 -0.9425781,1.612305 H 16.850651 Q 16.52819,16.07392 15.039909,15.304975 13.576432,14.560834 11.71608,14.560834 Z m 0.471289,26.689843 q 0.223242,1.265039 0.694531,1.835547 0.471289,0.545703 1.091406,0.545703 0.520899,0 0.917774,-0.570508 0.396875,-0.570507 0.545703,-1.810742 z m 3.348632,-0.868164 v -0.248047 q 0,-0.768945 -0.446484,-1.265039 -0.446484,-0.496093 -1.141016,-0.496093 -0.74414,0 -1.289843,0.545703 -0.545703,0.545703 -0.545703,1.463476 z"
         style="stroke-width:0.26458332"
         id="path23501"
         inkscape:connector-curvature="0" />
    </g>
  </g>
</svg>
