<?xml version="1.0" encoding="UTF-8" standalone="no"?>
<!-- Created with Inkscape (http://www.inkscape.org/) -->

<svg
   xmlns:dc="http://purl.org/dc/elements/1.1/"
   xmlns:cc="http://creativecommons.org/ns#"
   xmlns:rdf="http://www.w3.org/1999/02/22-rdf-syntax-ns#"
   xmlns:svg="http://www.w3.org/2000/svg"
   xmlns="http://www.w3.org/2000/svg"
   xmlns:sodipodi="http://sodipodi.sourceforge.net/DTD/sodipodi-0.dtd"
   xmlns:inkscape="http://www.inkscape.org/namespaces/inkscape"
   width="15.924608mm"
   height="37.207035mm"
   viewBox="0 0 15.924608 37.207035"
   version="1.1"
   id="svg8"
   inkscape:version="0.92.4 (5da689c313, 2019-01-14)"
   sodipodi:docname="U25.svg">
  <defs
     id="defs2" />
  <sodipodi:namedview
     id="base"
     pagecolor="#ffffff"
     bordercolor="#666666"
     borderopacity="1.0"
     inkscape:pageopacity="0.0"
     inkscape:pageshadow="2"
     inkscape:zoom="0.35"
     inkscape:cx="-380.40179"
     inkscape:cy="-348.57141"
     inkscape:document-units="mm"
     inkscape:current-layer="layer1"
     showgrid="false"
     fit-margin-top="0"
     fit-margin-left="0"
     fit-margin-right="0"
     fit-margin-bottom="0"
     inkscape:window-width="1920"
     inkscape:window-height="1017"
     inkscape:window-x="-8"
     inkscape:window-y="-8"
     inkscape:window-maximized="1" />
  <metadata
     id="metadata5">
    <rdf:RDF>
      <cc:Work
         rdf:about="">
        <dc:format>image/svg+xml</dc:format>
        <dc:type
           rdf:resource="http://purl.org/dc/dcmitype/StillImage" />
        <dc:title></dc:title>
      </cc:Work>
    </rdf:RDF>
  </metadata>
  <g
     inkscape:label="Layer 1"
     inkscape:groupmode="layer"
     id="layer1"
     transform="translate(-13.335474,-19.400113)">
    <g
       aria-label="ð“Ž"
       style="font-style:normal;font-variant:normal;font-weight:normal;font-stretch:normal;font-size:50.79999924px;line-height:1.25;font-family:sans-serif;-inkscape-font-specification:'sans-serif, Normal';font-variant-ligatures:normal;font-variant-caps:normal;font-variant-numeric:normal;font-feature-settings:normal;text-align:start;letter-spacing:0px;word-spacing:0px;writing-mode:lr-tb;text-anchor:start;fill:#000000;fill-opacity:1;stroke:none;stroke-width:0.26458332"
       id="text4520">
      <path
         d="m 20.67766,22.35187 q 1.736329,-0.496093 3.026172,-1.240234 1.314649,-0.74414 2.604492,-1.711523 -1.141015,1.761132 -1.885156,2.282031 -0.74414,0.545703 -2.505273,1.190625 v 0.471289 q 0.37207,-0.07441 0.768945,-0.07441 2.182813,0 4.365625,1.95957 2.207617,1.934766 2.207617,4.216797 v 0.248047 q -0.07441,1.413867 -0.917773,2.33164 -0.818555,0.917774 -2.257227,0.917774 -0.79375,0 -1.95957,-0.347266 -1.16582,-0.37207 -2.207617,-1.141015 v 17.189648 q 0.719336,0.347265 1.16582,0.694531 0.471289,0.347266 0.719336,0.768945 0.272852,0.42168 0.37207,0.992188 0.124024,0.545703 0.124024,1.314648 h 1.984375 v 0.967383 h -1.984375 l -0.124024,3.224609 h -0.719336 v -3.224609 h -4.34082 v 3.224609 h -0.719336 l -0.124023,-3.224609 h -2.38125 v -0.967383 h 2.38125 q 0,-0.768945 0.09922,-1.314648 0.09922,-0.545703 0.347265,-0.967383 0.272852,-0.42168 0.744141,-0.768945 0.471289,-0.347266 1.215429,-0.719336 V 31.430386 q -0.942578,0.719336 -2.009179,1.091406 -1.041797,0.372071 -2.00918,0.372071 -1.488281,0 -2.406055,-0.917774 -0.917773,-0.917773 -0.917773,-2.430859 0,-2.554883 2.207617,-4.39043 2.257227,-1.835547 4.415235,-1.835547 0.198437,0 0.37207,0.02481 0.173633,0 0.347265,0.02481 z m -6.250781,8.532813 6.250781,-5.779492 v -1.016992 q -0.198437,0 -0.322461,-0.02481 -1.860351,0 -4.067968,1.612305 -2.158008,1.612304 -2.158008,3.894335 0,0.768946 0.297656,1.314649 z m 7.491016,-5.804297 2.902148,2.827734 2.108399,-1.810742 q -0.396875,-0.421679 -0.992188,-0.79375 -0.595312,-0.37207 -1.265039,-0.620117 -0.669726,-0.272851 -1.389062,-0.42168 -0.719336,-0.148828 -1.364258,-0.148828 z m 1.53789,27.334765 q 0,-0.74414 -0.446484,-1.364258 -0.446484,-0.644921 -1.711523,-1.16582 -1.21543,0.520899 -1.686719,1.16582 -0.471289,0.620118 -0.496094,1.364258 z M 20.032739,30.909488 17.750707,28.949917 14.898168,31.5048 q 0.570508,0.545703 1.537891,0.620117 h 0.248047 q 0.768945,0 1.785937,-0.37207 1.041797,-0.42168 1.562696,-0.843359 z m 7.615039,0.694531 -2.902149,-2.629297 -2.133203,1.984375 q 0.917773,0.644922 1.860352,0.917773 0.942578,0.272852 1.513085,0.272852 0.347266,0 0.768946,-0.09922 0.446484,-0.09922 0.892969,-0.446484 z m -0.173633,-4.861719 -2.033985,1.686719 2.728516,2.455664 q 0.297656,-0.595313 0.297656,-1.339453 v -0.124024 q 0,-0.768945 -0.272851,-1.413867 -0.248047,-0.644922 -0.719336,-1.265039 z m -9.128125,1.686719 2.33164,1.885156 v -3.869531 z m 5.853906,-0.07441 -2.282031,-2.108399 v 4.067969 z"
         style="stroke-width:0.26458332"
         id="path4522"
         inkscape:connector-curvature="0" />
    </g>
  </g>
</svg>
