<?xml version="1.0" encoding="UTF-8" standalone="no"?>
<!-- Created with Inkscape (http://www.inkscape.org/) -->

<svg
   xmlns:dc="http://purl.org/dc/elements/1.1/"
   xmlns:cc="http://creativecommons.org/ns#"
   xmlns:rdf="http://www.w3.org/1999/02/22-rdf-syntax-ns#"
   xmlns:svg="http://www.w3.org/2000/svg"
   xmlns="http://www.w3.org/2000/svg"
   xmlns:sodipodi="http://sodipodi.sourceforge.net/DTD/sodipodi-0.dtd"
   xmlns:inkscape="http://www.inkscape.org/namespaces/inkscape"
   width="6.9949222mm"
   height="38.075195mm"
   viewBox="0 0 6.9949222 38.075195"
   version="1.1"
   id="svg5089"
   inkscape:version="0.92.4 (5da689c313, 2019-01-14)"
   sodipodi:docname="U27.svg">
  <defs
     id="defs5083" />
  <sodipodi:namedview
     id="base"
     pagecolor="#ffffff"
     bordercolor="#666666"
     borderopacity="1.0"
     inkscape:pageopacity="0.0"
     inkscape:pageshadow="2"
     inkscape:zoom="0.35"
     inkscape:cx="-380.40179"
     inkscape:cy="-341.2634"
     inkscape:document-units="mm"
     inkscape:current-layer="layer1"
     showgrid="false"
     fit-margin-top="0"
     fit-margin-left="0"
     fit-margin-right="0"
     fit-margin-bottom="0"
     inkscape:window-width="1920"
     inkscape:window-height="1017"
     inkscape:window-x="-8"
     inkscape:window-y="-8"
     inkscape:window-maximized="1" />
  <metadata
     id="metadata5086">
    <rdf:RDF>
      <cc:Work
         rdf:about="">
        <dc:format>image/svg+xml</dc:format>
        <dc:type
           rdf:resource="http://purl.org/dc/dcmitype/StillImage" />
        <dc:title></dc:title>
      </cc:Work>
    </rdf:RDF>
  </metadata>
  <g
     inkscape:label="Layer 1"
     inkscape:groupmode="layer"
     id="layer1"
     transform="translate(-13.335473,-20.46553)">
    <g
       aria-label="ð“"
       style="font-style:normal;font-variant:normal;font-weight:normal;font-stretch:normal;font-size:50.79999924px;line-height:1.25;font-family:sans-serif;-inkscape-font-specification:'sans-serif, Normal';font-variant-ligatures:normal;font-variant-caps:normal;font-variant-numeric:normal;font-feature-settings:normal;text-align:start;letter-spacing:0px;word-spacing:0px;writing-mode:lr-tb;text-anchor:start;fill:#000000;fill-opacity:1;stroke:none;stroke-width:0.26458332"
       id="text5636">
      <path
         d="m 19.908715,20.46553 0.42168,0.396875 v 17.636133 l -0.42168,0.396875 h -2.480469 v 15.180468 q 0.719336,0.248047 1.190625,0.79375 0.496094,0.520899 0.496094,1.314649 0,0.446484 -0.173633,0.868164 -0.173632,0.421679 -0.496093,0.768945 -0.297657,0.322461 -0.719336,0.520898 -0.42168,0.198438 -0.892969,0.198438 -0.545703,0 -0.967383,-0.223242 -0.42168,-0.223242 -0.719336,-0.570508 -0.272851,-0.347266 -0.421679,-0.744141 -0.148829,-0.421679 -0.148829,-0.818554 0,-0.79375 0.471289,-1.314649 0.496094,-0.545703 1.21543,-0.79375 V 38.895413 h -2.554883 l -0.37207,-0.471289 V 20.936819 l 0.37207,-0.471289 z m -0.37207,17.636133 V 21.25928 h -5.407422 v 16.842383 z m -2.654102,16.767968 q -0.620117,0 -1.066601,0.297656 -0.446485,0.297657 -0.446485,0.942579 0,0.644921 0.471289,1.141015 0.496094,0.496094 1.041797,0.496094 0.545703,0 0.992188,-0.496094 0.446484,-0.520898 0.446484,-1.141015 0,-0.545704 -0.446484,-0.892969 -0.42168,-0.347266 -0.992188,-0.347266 z"
         style="stroke-width:0.26458332"
         id="path5638"
         inkscape:connector-curvature="0" />
    </g>
  </g>
</svg>
