<?xml version="1.0" encoding="UTF-8" standalone="no"?>
<!-- Created with Inkscape (http://www.inkscape.org/) -->

<svg
   xmlns:dc="http://purl.org/dc/elements/1.1/"
   xmlns:cc="http://creativecommons.org/ns#"
   xmlns:rdf="http://www.w3.org/1999/02/22-rdf-syntax-ns#"
   xmlns:svg="http://www.w3.org/2000/svg"
   xmlns="http://www.w3.org/2000/svg"
   xmlns:sodipodi="http://sodipodi.sourceforge.net/DTD/sodipodi-0.dtd"
   xmlns:inkscape="http://www.inkscape.org/namespaces/inkscape"
   width="13.196094mm"
   height="37.727928mm"
   viewBox="0 0 13.196094 37.727928"
   version="1.1"
   id="svg15217"
   inkscape:version="0.92.4 (5da689c313, 2019-01-14)"
   sodipodi:docname="U28.svg">
  <defs
     id="defs15211" />
  <sodipodi:namedview
     id="base"
     pagecolor="#ffffff"
     bordercolor="#666666"
     borderopacity="1.0"
     inkscape:pageopacity="0.0"
     inkscape:pageshadow="2"
     inkscape:zoom="0.35"
     inkscape:cx="-360.40234"
     inkscape:cy="-371.90305"
     inkscape:document-units="mm"
     inkscape:current-layer="layer1"
     showgrid="false"
     fit-margin-top="0"
     fit-margin-left="0"
     fit-margin-right="0"
     fit-margin-bottom="0"
     inkscape:window-width="1920"
     inkscape:window-height="1017"
     inkscape:window-x="-8"
     inkscape:window-y="-8"
     inkscape:window-maximized="1" />
  <metadata
     id="metadata15214">
    <rdf:RDF>
      <cc:Work
         rdf:about="">
        <dc:format>image/svg+xml</dc:format>
        <dc:type
           rdf:resource="http://purl.org/dc/dcmitype/StillImage" />
        <dc:title></dc:title>
      </cc:Work>
    </rdf:RDF>
  </metadata>
  <g
     inkscape:label="Layer 1"
     inkscape:groupmode="layer"
     id="layer1"
     transform="translate(-8.0439534,-12.706056)">
    <g
       aria-label="ð“‘"
       transform="scale(0.26458333)"
       style="font-style:normal;font-variant:normal;font-weight:normal;font-stretch:normal;font-size:192px;line-height:1.25;font-family:sans-serif;-inkscape-font-specification:sans-serif;font-variant-ligatures:normal;font-variant-caps:normal;font-variant-numeric:normal;font-feature-settings:normal;text-align:start;letter-spacing:0px;word-spacing:0px;writing-mode:lr-tb;text-anchor:start;fill:#000000;fill-opacity:1;stroke:none"
       id="flowRoot15762">
      <path
         d="m 44.652344,143.17914 q -0.1875,-5.90625 -0.28125,-11.71875 -0.09375,-5.90625 -0.09375,-11.8125 0,-21.5625 2.8125,-38.25 2.90625,-16.6875 7.5,-33.1875 l 2.90625,-0.1875 q 5.0625,16.3125 7.6875,33.65625 2.71875,17.25 2.71875,41.71875 0,25.03125 -3.375,37.875 -3.28125,12.75 -9.28125,12.75 -5.15625,0 -7.875,-8.0625 -2.71875,-8.15625 -2.71875,-22.78125 z m 3,-0.28125 q 0,11.0625 1.78125,19.59375 1.875,8.53125 5.8125,8.53125 3.09375,0 5.25,-5.625 2.25,-5.71875 3.09375,-14.53125 l 0.28125,-2.90625 q 0.46875,-7.21875 0.65625,-14.4375 0.28125,-7.21875 0.28125,-14.625 0,-16.125 -1.875,-32.4375 -1.78125,-16.40625 -6.75,-32.71875 -4.21875,15 -6.5625,30.5625 -2.34375,15.5625 -2.34375,35.34375 0,5.8125 0.09375,11.625 0.09375,5.71875 0.28125,11.625 z m 32.625,28.03125 v 18.1875 l -1.59375,1.5 h -46.875 l -1.40625,-1.78125 v -17.625 l 2.34375,-1.5 q 11.625,6.09375 22.5,6.09375 10.96875,0 22.96875,-6.28125 z m -3,16.6875 v -14.25 q -5.625,2.625 -11.25,4.03125 -5.53125,1.40625 -11.15625,1.40625 -10.875,0 -21.46875,-5.4375 v 14.25 z"
         id="path15770"
         inkscape:connector-curvature="0" />
    </g>
  </g>
</svg>
