<?xml version="1.0" encoding="UTF-8" standalone="no"?>
<!-- Created with Inkscape (http://www.inkscape.org/) -->

<svg
   xmlns:dc="http://purl.org/dc/elements/1.1/"
   xmlns:cc="http://creativecommons.org/ns#"
   xmlns:rdf="http://www.w3.org/1999/02/22-rdf-syntax-ns#"
   xmlns:svg="http://www.w3.org/2000/svg"
   xmlns="http://www.w3.org/2000/svg"
   xmlns:sodipodi="http://sodipodi.sourceforge.net/DTD/sodipodi-0.dtd"
   xmlns:inkscape="http://www.inkscape.org/namespaces/inkscape"
   width="13.220899mm"
   height="37.777538mm"
   viewBox="0 0 13.220899 37.777538"
   version="1.1"
   id="svg15779"
   inkscape:version="0.92.4 (5da689c313, 2019-01-14)"
   sodipodi:docname="U29.svg">
  <defs
     id="defs15773" />
  <sodipodi:namedview
     id="base"
     pagecolor="#ffffff"
     bordercolor="#666666"
     borderopacity="1.0"
     inkscape:pageopacity="0.0"
     inkscape:pageshadow="2"
     inkscape:zoom="0.35"
     inkscape:cx="-337.54492"
     inkscape:cy="-303.33274"
     inkscape:document-units="mm"
     inkscape:current-layer="layer1"
     showgrid="false"
     fit-margin-top="0"
     fit-margin-left="0"
     fit-margin-right="0"
     fit-margin-bottom="0"
     inkscape:window-width="1920"
     inkscape:window-height="1017"
     inkscape:window-x="-8"
     inkscape:window-y="-8"
     inkscape:window-maximized="1" />
  <metadata
     id="metadata15776">
    <rdf:RDF>
      <cc:Work
         rdf:about="">
        <dc:format>image/svg+xml</dc:format>
        <dc:type
           rdf:resource="http://purl.org/dc/dcmitype/StillImage" />
        <dc:title></dc:title>
      </cc:Work>
    </rdf:RDF>
  </metadata>
  <g
     inkscape:label="Layer 1"
     inkscape:groupmode="layer"
     id="layer1"
     transform="translate(-1.9962606,-30.799008)">
    <g
       aria-label="ð“’"
       transform="scale(0.26458333)"
       style="font-style:normal;font-variant:normal;font-weight:normal;font-stretch:normal;font-size:192px;line-height:1.25;font-family:sans-serif;-inkscape-font-specification:sans-serif;font-variant-ligatures:normal;font-variant-caps:normal;font-variant-numeric:normal;font-feature-settings:normal;text-align:start;letter-spacing:0px;word-spacing:0px;writing-mode:lr-tb;text-anchor:start;fill:#000000;fill-opacity:1;stroke:none"
       id="flowRoot16324">
      <path
         d="m 33.888672,116.4057 q 4.78125,17.34375 7.21875,32.90625 2.53125,15.5625 2.71875,30.84375 0.28125,15.28125 0.28125,17.15625 v 4.6875 q 0,3.28125 -0.09375,6.5625 -0.09375,3.28125 -0.28125,6.5625 l -0.375,5.90625 q -0.46875,6.28125 -1.78125,10.96875 -1.3125,4.6875 -3.75,7.59375 h 18.09375 l 1.59375,1.5 v 16.59375 l -1.59375,1.5 H 8.9511719 l -1.40625,-1.78125 v -16.03125 l 1.40625,-1.78125 H 27.044922 q -3.84375,-5.0625 -5.0625,-14.71875 -1.125,-9.75 -1.125,-19.875 v -3.9375 q 0,-7.125 0.28125,-14.34375 l 0.75,-18.1875 q 0.5625,-12.5625 2.8125,-25.125 2.34375,-12.65625 6.28125,-26.8125 z m -1.40625,6.1875 q -5.90625,22.3125 -7.3125,40.875 -1.3125,18.5625 -1.3125,39.5625 0,3.84375 0.09375,5.71875 l 0.28125,7.21875 q 0.28125,9.75 2.625,16.6875 2.4375,6.84375 5.625,6.84375 4.21875,0 6.375,-10.59375 2.25,-10.59375 2.25,-25.40625 0,-5.0625 -0.09375,-8.71875 l -0.1875,-7.21875 q -0.46875,-23.625 -2.53125,-37.03125 -1.96875,-13.5 -5.8125,-27.9375 z m -22.03125,133.875 h 44.15625 v -13.875 h -44.15625 z"
         id="path16332"
         inkscape:connector-curvature="0" />
    </g>
  </g>
</svg>
