<?xml version="1.0" encoding="UTF-8" standalone="no"?>
<!-- Created with Inkscape (http://www.inkscape.org/) -->

<svg
   xmlns:dc="http://purl.org/dc/elements/1.1/"
   xmlns:cc="http://creativecommons.org/ns#"
   xmlns:rdf="http://www.w3.org/1999/02/22-rdf-syntax-ns#"
   xmlns:svg="http://www.w3.org/2000/svg"
   xmlns="http://www.w3.org/2000/svg"
   xmlns:sodipodi="http://sodipodi.sourceforge.net/DTD/sodipodi-0.dtd"
   xmlns:inkscape="http://www.inkscape.org/namespaces/inkscape"
   width="29.145508mm"
   height="33.188671mm"
   viewBox="0 0 29.145508 33.188671"
   version="1.1"
   id="svg16341"
   inkscape:version="0.92.4 (5da689c313, 2019-01-14)"
   sodipodi:docname="U29A.svg">
  <defs
     id="defs16335" />
  <sodipodi:namedview
     id="base"
     pagecolor="#ffffff"
     bordercolor="#666666"
     borderopacity="1.0"
     inkscape:pageopacity="0.0"
     inkscape:pageshadow="2"
     inkscape:zoom="0.35"
     inkscape:cx="-354.6875"
     inkscape:cy="-320.47532"
     inkscape:document-units="mm"
     inkscape:current-layer="layer1"
     showgrid="false"
     fit-margin-top="0"
     fit-margin-left="0"
     fit-margin-right="0"
     fit-margin-bottom="0"
     inkscape:window-width="1920"
     inkscape:window-height="1017"
     inkscape:window-x="-8"
     inkscape:window-y="-8"
     inkscape:window-maximized="1" />
  <metadata
     id="metadata16338">
    <rdf:RDF>
      <cc:Work
         rdf:about="">
        <dc:format>image/svg+xml</dc:format>
        <dc:type
           rdf:resource="http://purl.org/dc/dcmitype/StillImage" />
        <dc:title></dc:title>
      </cc:Work>
    </rdf:RDF>
  </metadata>
  <g
     inkscape:label="Layer 1"
     inkscape:groupmode="layer"
     id="layer1"
     transform="translate(-6.531901,-30.852234)">
    <g
       aria-label="ð““"
       transform="scale(0.26458333)"
       style="font-style:normal;font-variant:normal;font-weight:normal;font-stretch:normal;font-size:192px;line-height:1.25;font-family:sans-serif;-inkscape-font-specification:sans-serif;font-variant-ligatures:normal;font-variant-caps:normal;font-variant-numeric:normal;font-feature-settings:normal;text-align:start;letter-spacing:0px;word-spacing:0px;writing-mode:lr-tb;text-anchor:start;fill:#000000;fill-opacity:1;stroke:none"
       id="flowRoot16886">
      <path
         d="m 55.8125,154.38812 q 0.5625,-1.3125 1.03125,-2.4375 0.46875,-1.03125 0.75,-2.0625 0.375,-1.125 0.375,-1.96875 0,-2.25 -0.9375,-4.5 -0.9375,-2.25 -2.625,-4.03125 -1.6875,-1.875 -4.125,-3 -2.4375,-1.125 -5.4375,-1.125 -3.375,0 -6.28125,1.40625 -2.8125,1.40625 -4.875,3.75 -1.96875,2.34375 -3.1875,5.4375 -1.125,3.09375 -1.125,6.5625 0,3.28125 0.65625,5.8125 0.65625,2.53125 2.0625,4.6875 1.5,2.0625 3.84375,3.9375 2.34375,1.875 5.71875,3.65625 8.4375,4.40625 19.96875,7.21875 l 0.65625,-4.875 q 2.15625,-14.90625 6.1875,-28.875 4.125,-13.96875 11.4375,-27.1875 l 2.53125,-0.1875 q 4.3125,6.75 8.0625,16.59375 3.1875,8.4375 6.28125,21.09375 3.09375,12.65625 4.5,30 9.65625,1.59375 18.1875,4.3125 8.53125,2.625 15.375,7.6875 l -3,3.9375 q -6,-4.59375 -13.875,-7.03125 -7.78125,-2.4375 -16.3125,-4.125 v 4.96875 q 0,6.1875 -0.9375,11.90625 -0.9375,5.71875 -3.28125,10.125 -2.34375,4.40625 -6.28125,7.03125 -3.9375,2.625 -9.9375,2.625 -6.9375,0 -11.0625,-2.34375 -4.03125,-2.4375 -6.1875,-6.375 -2.0625,-3.9375 -2.71875,-9 -0.65625,-5.15625 -0.65625,-10.59375 0,-3.46875 0,-5.90625 0,-2.4375 0,-4.125 0.09375,-1.78125 0.1875,-2.90625 0.09375,-1.125 0.1875,-2.0625 -9.5625,-2.625 -16.40625,-5.53125 -6.84375,-2.90625 -11.34375,-6.375 -4.40625,-3.46875 -6.46875,-7.6875 -2.0625,-4.3125 -2.0625,-9.84375 0,-5.15625 1.5,-9.28125 1.5,-4.125 4.21875,-7.03125 2.71875,-2.90625 6.46875,-4.5 3.75,-1.59375 8.34375,-1.59375 4.125,0 7.3125,1.40625 3.28125,1.40625 5.53125,3.75 2.25,2.34375 3.375,5.4375 1.21875,3.09375 1.21875,6.375 0,1.40625 -0.46875,3.09375 -0.46875,1.6875 -1.03125,3.09375 -0.65625,1.6875 -1.40625,3.375 z m 25.40625,-33.84375 q -2.8125,4.6875 -5.0625,10.3125 -2.25,5.625 -4.03125,11.34375 -1.78125,5.625 -3.09375,11.0625 -1.21875,5.4375 -2.0625,9.75 -0.84375,4.21875 -1.3125,7.03125 -0.375,2.71875 -0.375,3.09375 l -0.75,5.34375 q 8.4375,1.875 16.875,3 8.4375,1.03125 16.875,2.34375 -1.40625,-20.0625 -5.90625,-36 -4.40625,-16.03125 -11.15625,-27.28125 z m 17.34375,67.96875 q -8.53125,-1.59375 -17.25,-2.71875 -8.71875,-1.125 -17.4375,-2.8125 -0.1875,2.90625 -0.375,6.75 -0.09375,3.75 -0.09375,6.5625 0,4.59375 0.28125,9.28125 0.375,4.6875 2.0625,8.53125 1.6875,3.75 5.25,6.1875 3.5625,2.4375 10.125,2.4375 5.0625,0 8.4375,-2.15625 3.375,-2.15625 5.34375,-6.09375 2.0625,-3.9375 2.90625,-9.375 0.84375,-5.4375 0.84375,-12.09375 0,-0.375 0,-1.03125 0,-0.75 0,-1.40625 0,-0.75 -0.09375,-1.3125 0,-0.5625 0,-0.75 z m 7.59375,33.84375 v 18.1875 l -1.59375,1.5 h -46.875 l -1.40625,-1.78125 v -17.625 l 2.34375,-1.5 q 5.90625,3 11.34375,4.59375 5.53125,1.59375 11.25,1.59375 5.71875,0 11.25,-1.59375 5.625,-1.6875 11.625,-4.78125 z m -46.875,16.6875 h 43.875 v -14.25 q -10.6875,5.15625 -21.84375,5.4375 h -1.03125 q -10.5,0 -21,-5.4375 z"
         id="path16894"
         inkscape:connector-curvature="0" />
    </g>
  </g>
</svg>
