<?xml version="1.0" encoding="UTF-8" standalone="no"?>
<!-- Created with Inkscape (http://www.inkscape.org/) -->

<svg
   xmlns:dc="http://purl.org/dc/elements/1.1/"
   xmlns:cc="http://creativecommons.org/ns#"
   xmlns:rdf="http://www.w3.org/1999/02/22-rdf-syntax-ns#"
   xmlns:svg="http://www.w3.org/2000/svg"
   xmlns="http://www.w3.org/2000/svg"
   xmlns:sodipodi="http://sodipodi.sourceforge.net/DTD/sodipodi-0.dtd"
   xmlns:inkscape="http://www.inkscape.org/namespaces/inkscape"
   width="37.851952mm"
   height="25.598436mm"
   viewBox="0 0 37.851952 25.598436"
   version="1.1"
   id="svg10879"
   inkscape:version="0.92.4 (5da689c313, 2019-01-14)"
   sodipodi:docname="U3.svg">
  <defs
     id="defs10873" />
  <sodipodi:namedview
     id="base"
     pagecolor="#ffffff"
     bordercolor="#666666"
     borderopacity="1.0"
     inkscape:pageopacity="0.0"
     inkscape:pageshadow="2"
     inkscape:zoom="0.35"
     inkscape:cx="-380.40179"
     inkscape:cy="-418.50001"
     inkscape:document-units="mm"
     inkscape:current-layer="layer1"
     showgrid="false"
     fit-margin-top="0"
     fit-margin-left="0"
     fit-margin-right="0"
     fit-margin-bottom="0"
     inkscape:window-width="1920"
     inkscape:window-height="1017"
     inkscape:window-x="-8"
     inkscape:window-y="-8"
     inkscape:window-maximized="1" />
  <metadata
     id="metadata10876">
    <rdf:RDF>
      <cc:Work
         rdf:about="">
        <dc:format>image/svg+xml</dc:format>
        <dc:type
           rdf:resource="http://purl.org/dc/dcmitype/StillImage" />
        <dc:title></dc:title>
      </cc:Work>
    </rdf:RDF>
  </metadata>
  <g
     inkscape:label="Layer 1"
     inkscape:groupmode="layer"
     id="layer1"
     transform="translate(-13.335473,-12.50677)">
    <g
       aria-label="𓌵"
       style="font-style:normal;font-variant:normal;font-weight:normal;font-stretch:normal;font-size:50.79999924px;line-height:1.25;font-family:sans-serif;-inkscape-font-specification:'sans-serif, Normal';font-variant-ligatures:normal;font-variant-caps:normal;font-variant-numeric:normal;font-feature-settings:normal;text-align:start;letter-spacing:0px;word-spacing:0px;writing-mode:lr-tb;text-anchor:start;fill:#000000;fill-opacity:1;stroke:none;stroke-width:0.26458332"
       id="text11426">
      <path
         d="m 36.379027,12.50677 h 3.59668 l 0.396875,0.520898 q -0.148828,0.644922 -0.322461,1.537891 -0.148828,0.868164 -0.148828,1.761133 0,2.083593 1.265039,3.075781 1.265039,0.992187 3.348633,1.513086 2.108398,0.520898 4.638476,0.669726 l 1.63711,0.124024 0.396875,0.520898 q -1.785938,3.547071 -3.770313,5.60586 -1.984375,2.058789 -5.407422,4.043164 -3.423046,1.984375 -7.714257,3.249414 -4.266407,1.265039 -9.525,1.95957 -5.233789,0.694531 -11.186914,1.016992 l -0.248047,-0.694531 q 2.108398,-1.736328 2.554883,-2.207617 0.446484,-0.496094 1.364258,-0.496094 h 0.545703 l 0.173633,0.02481 q 0.843359,0 6.895703,-0.768946 6.052343,-0.79375 9.649023,-1.95957 3.596679,-1.16582 5.779492,-2.703711 2.207617,-1.53789 2.207617,-3.869531 0,-1.339453 -1.463476,-2.257227 -1.438672,-0.942578 -4.663282,-1.463476 L 36.006957,21.23802 V 12.978059 Z M 14.873364,27.16634 q -0.669727,0 -1.265039,0.07441 0.173632,-0.198437 2.083593,-0.942578 4.291211,-5.481836 8.681641,-5.481836 1.116211,0 3.621484,0.843359 2.530078,0.84336 9.028906,3.646289 l 4.489649,1.934766 q -1.190625,-0.173633 -2.033985,-0.248047 -0.818554,-0.07441 -1.314648,-0.07441 -2.406055,0 -7.019727,0.768945 -4.613671,0.768946 -7.044531,0.768946 -1.53789,0 -4.638476,-0.644922 -3.100586,-0.644922 -4.588867,-0.644922 z m 27.30996,1.463477 -0.79375,0.818554 q -1.513086,1.513086 -6.201172,3.150196 -4.663281,1.612304 -13.02246,2.480468 l -5.581055,0.595313 -1.835547,1.562695 3.125391,-0.223242 q 12.972851,-0.917774 20.95996,-4.415234 7.98711,-3.497461 11.360547,-10.145118 -5.432226,-0.347265 -8.011914,-1.562695 -2.554883,-1.215429 -2.902148,-2.976562 l -0.07441,-0.768946 q -0.04961,-0.37207 -0.04961,-0.768945 0,-0.768945 0.09922,-1.53789 0.09922,-0.768946 0.248047,-1.537891 h -2.703711 v 7.689453 q 3.274219,0.520898 4.886523,1.661914 1.612305,1.116211 1.612305,2.75332 0,0.892969 -0.297656,1.810742 -0.297656,0.892969 -0.818555,1.413868 z M 27.325317,24.685871 q 0,0.892969 -0.471289,1.5875 -0.47129,0.669727 -1.190625,1.066602 1.463476,-0.124024 5.08496,-0.669727 3.646289,-0.545703 5.531446,-0.545703 -6.424414,-3.299023 -10.393164,-3.96875 0.570508,0.396875 0.942578,1.041797 0.396875,0.620117 0.496094,1.488281 z m -0.892969,-0.545703 q -0.07441,-0.669726 -0.868164,-1.240234 -0.79375,-0.570508 -1.761133,-0.570508 -0.868164,0 -1.488281,0.545703 -0.620117,0.520899 -0.620117,1.785938 v 0.248047 q 0.04961,0.669726 0.669726,1.389062 0.644922,0.694531 1.63711,0.694531 0.992187,0 1.761132,-0.644922 0.768946,-0.669726 0.768946,-1.5875 l -0.07441,-0.620117 z m -9.351367,2.158008 q 3.050976,0.818555 5.233789,1.041797 -0.520899,-0.322461 -0.992188,-1.091406 -0.446484,-0.768946 -0.446484,-1.661914 0,-0.694532 0.223242,-1.240235 0.248047,-0.570508 0.620117,-0.942578 -1.190625,0.471289 -2.182812,1.339453 -0.992188,0.868164 -2.455664,2.554883 z"
         style="stroke-width:0.26458332"
         id="path11428"
         inkscape:connector-curvature="0" />
    </g>
  </g>
</svg>
