<?xml version="1.0" encoding="UTF-8" standalone="no"?>
<!-- Created with Inkscape (http://www.inkscape.org/) -->

<svg
   xmlns:dc="http://purl.org/dc/elements/1.1/"
   xmlns:cc="http://creativecommons.org/ns#"
   xmlns:rdf="http://www.w3.org/1999/02/22-rdf-syntax-ns#"
   xmlns:svg="http://www.w3.org/2000/svg"
   xmlns="http://www.w3.org/2000/svg"
   xmlns:sodipodi="http://sodipodi.sourceforge.net/DTD/sodipodi-0.dtd"
   xmlns:inkscape="http://www.inkscape.org/namespaces/inkscape"
   width="13.196095mm"
   height="19.397264mm"
   viewBox="0 0 13.196095 19.397264"
   version="1.1"
   id="svg5647"
   inkscape:version="0.92.4 (5da689c313, 2019-01-14)"
   sodipodi:docname="U30.svg">
  <defs
     id="defs5641" />
  <sodipodi:namedview
     id="base"
     pagecolor="#ffffff"
     bordercolor="#666666"
     borderopacity="1.0"
     inkscape:pageopacity="0.0"
     inkscape:pageshadow="2"
     inkscape:zoom="0.35"
     inkscape:cx="-346.11607"
     inkscape:cy="-367.07143"
     inkscape:document-units="mm"
     inkscape:current-layer="layer1"
     showgrid="false"
     fit-margin-top="0"
     fit-margin-left="0"
     fit-margin-right="0"
     fit-margin-bottom="0"
     inkscape:window-width="1920"
     inkscape:window-height="1017"
     inkscape:window-x="-8"
     inkscape:window-y="-8"
     inkscape:window-maximized="1" />
  <metadata
     id="metadata5644">
    <rdf:RDF>
      <cc:Work
         rdf:about="">
        <dc:format>image/svg+xml</dc:format>
        <dc:type
           rdf:resource="http://purl.org/dc/dcmitype/StillImage" />
        <dc:title></dc:title>
      </cc:Work>
    </rdf:RDF>
  </metadata>
  <g
     inkscape:label="Layer 1"
     inkscape:groupmode="layer"
     id="layer1"
     transform="translate(-4.2640436,-32.315085)">
    <g
       aria-label="ð“”"
       style="font-style:normal;font-variant:normal;font-weight:normal;font-stretch:normal;font-size:50.79999924px;line-height:1.25;font-family:sans-serif;-inkscape-font-specification:'sans-serif, Normal';font-variant-ligatures:normal;font-variant-caps:normal;font-variant-numeric:normal;font-feature-settings:normal;text-align:start;letter-spacing:0px;word-spacing:0px;writing-mode:lr-tb;text-anchor:start;fill:#000000;fill-opacity:1;stroke:none;stroke-width:0.26458332"
       id="text6194">
      <path
         d="m 17.435332,37.47446 q -0.198437,1.041797 -0.248046,2.232422 -0.02481,1.190625 -0.07442,2.232422 l -0.198437,4.018359 -0.09922,1.364258 q -0.04961,0.669726 -0.148828,1.364258 l -0.124023,0.843359 q -0.173633,0.942578 -0.545703,1.562695 -0.372071,0.620117 -0.967383,0.620117 H 4.6361139 L 4.2640436,51.241061 q 0,-1.141015 0.1736328,-1.215429 0.1984375,-0.09922 1.0666015,-0.297657 0,-0.124023 0.099219,-0.297656 l 0.099219,-0.272851 q 0.2232422,-0.595313 0.2976562,-1.165821 0.099219,-0.595312 0.099219,-0.868164 v -0.595312 q 0,-2.108399 -0.5208984,-5.481836 -0.4960938,-3.373437 -0.5208985,-3.621484 v -0.148828 q 0.7689453,-2.728516 2.4556641,-3.844727 1.7115234,-1.116211 4.5392577,-1.116211 2.207617,0 3.547071,1.116211 1.364257,1.091406 1.860351,3.919141 z m -0.942578,1.339453 q 0,-0.520898 0.09922,-1.066601 H 5.9011529 l 0.4464844,3.671093 q 0.2480468,2.331641 0.3720703,3.22461 0.1488281,0.868164 0.1488281,1.835546 0,1.835547 -0.3472656,2.827735 -0.3472656,0.967383 -0.8185547,1.066601 l -0.3224609,0.07441 q -0.1736328,0 -0.322461,0.124024 V 50.9186 H 15.103692 q 0.37207,-0.297656 0.570508,-1.16582 0.223242,-0.868164 0.322461,-1.934765 l 0.07441,-0.917774 q 0.124023,-1.761133 0.173632,-3.497461 0.07441,-1.736328 0.198438,-3.522265 z M 5.975567,36.953562 h 10.616406 q -0.396875,-2.083594 -1.562695,-2.976563 -1.141016,-0.892969 -3.199805,-0.892969 -2.2324217,0 -3.795117,1.016993 -1.5626953,0.992187 -2.058789,2.852539 z"
         style="stroke-width:0.26458332"
         id="path6196"
         inkscape:connector-curvature="0" />
    </g>
  </g>
</svg>
