<?xml version="1.0" encoding="UTF-8" standalone="no"?>
<!-- Created with Inkscape (http://www.inkscape.org/) -->

<svg
   xmlns:dc="http://purl.org/dc/elements/1.1/"
   xmlns:cc="http://creativecommons.org/ns#"
   xmlns:rdf="http://www.w3.org/1999/02/22-rdf-syntax-ns#"
   xmlns:svg="http://www.w3.org/2000/svg"
   xmlns="http://www.w3.org/2000/svg"
   xmlns:sodipodi="http://sodipodi.sourceforge.net/DTD/sodipodi-0.dtd"
   xmlns:inkscape="http://www.inkscape.org/namespaces/inkscape"
   width="10.938867mm"
   height="37.777538mm"
   viewBox="0 0 10.938867 37.777538"
   version="1.1"
   id="svg17465"
   inkscape:version="0.92.4 (5da689c313, 2019-01-14)"
   sodipodi:docname="U32.svg">
  <defs
     id="defs17459" />
  <sodipodi:namedview
     id="base"
     pagecolor="#ffffff"
     bordercolor="#666666"
     borderopacity="1.0"
     inkscape:pageopacity="0.0"
     inkscape:pageshadow="2"
     inkscape:zoom="0.35"
     inkscape:cx="-234.6875"
     inkscape:cy="-339.11789"
     inkscape:document-units="mm"
     inkscape:current-layer="layer1"
     showgrid="false"
     fit-margin-top="0"
     fit-margin-left="0"
     fit-margin-right="0"
     fit-margin-bottom="0"
     inkscape:window-width="1920"
     inkscape:window-height="1017"
     inkscape:window-x="-8"
     inkscape:window-y="-8"
     inkscape:window-maximized="1" />
  <metadata
     id="metadata17462">
    <rdf:RDF>
      <cc:Work
         rdf:about="">
        <dc:format>image/svg+xml</dc:format>
        <dc:type
           rdf:resource="http://purl.org/dc/dcmitype/StillImage" />
        <dc:title></dc:title>
      </cc:Work>
    </rdf:RDF>
  </metadata>
  <g
     inkscape:label="Layer 1"
     inkscape:groupmode="layer"
     id="layer1"
     transform="translate(25.218099,-21.330853)">
    <g
       aria-label="ð“–"
       transform="scale(0.26458333)"
       style="font-style:normal;font-variant:normal;font-weight:normal;font-stretch:normal;font-size:192px;line-height:1.25;font-family:sans-serif;-inkscape-font-specification:sans-serif;font-variant-ligatures:normal;font-variant-caps:normal;font-variant-numeric:normal;font-feature-settings:normal;text-align:start;letter-spacing:0px;word-spacing:0px;writing-mode:lr-tb;text-anchor:start;fill:#000000;fill-opacity:1;stroke:none"
       id="flowRoot18010">
      <path
         d="m -70.28125,212.7143 q -4.78125,0 -7.125,-5.8125 -2.25,-5.8125 -2.25,-15.28125 v -2.4375 l -0.09375,-2.25 v -3.5625 q 0,-9.75 2.625,-36.65625 2.71875,-26.90625 3,-32.71875 l 0.09375,-2.15625 q 0.1875,-1.875 0.28125,-3.84375 l 0.09375,-3.84375 q 0,-1.125 0.09375,-2.53125 0.09375,-1.5 0.09375,-3.093754 0,-7.03125 -1.96875,-10.5 -1.96875,-3.46875 -6.9375,-3.46875 -3.09375,0 -6.28125,1.03125 -3.1875,1.03125 -5.71875,1.78125 l -0.9375,-2.90625 q 5.0625,-2.15625 8.90625,-3 3.84375,-0.84375 6.5625,-0.84375 5.71875,0 8.34375,2.71875 2.625,2.71875 3.84375,6.75 1.21875,4.03125 1.875,13.500004 l 0.5625,7.03125 0.75,8.4375 q 0.65625,7.6875 2.8125,26.90625 2.25,19.21875 2.4375,33.46875 v 6.84375 l -0.09375,1.78125 q -0.46875,12 -3.1875,18.375 -2.71875,6.28125 -7.78125,6.28125 z m 1.3125,-111.84375 q -0.28125,-5.625004 -1.21875,-8.906254 -0.9375,-3.375 -2.71875,-5.4375 1.40625,2.4375 1.875,5.71875 0.46875,3.1875 0.46875,7.3125 v 1.500004 q -0.1875,7.78125 -0.75,15.5625 -0.5625,7.78125 -1.5,16.59375 l -1.78125,16.78125 q -0.84375,8.34375 -1.5,16.78125 -0.5625,8.34375 -0.65625,16.78125 v 2.90625 q 0,1.6875 -0.09375,3.46875 0,9.9375 1.78125,14.625 1.875,4.59375 3.5625,4.96875 l 0.9375,0.28125 q 1.6875,-0.1875 2.625,-0.75 0.9375,-0.65625 2.25,-3.1875 1.40625,-2.53125 2.4375,-7.21875 1.125,-4.6875 1.125,-13.6875 0,-15.375 -2.25,-35.71875 -2.25,-20.34375 -3.09375,-29.90625 l -0.9375,-10.6875 z m 15,114.9375 q -7.3125,7.59375 -16.59375,7.59375 -12.9375,0 -16.59375,-7.59375 v -4.875 q 3.65625,7.59375 16.59375,7.59375 9.28125,0 16.59375,-7.59375 z"
         id="path18018"
         inkscape:connector-curvature="0" />
    </g>
  </g>
</svg>
