<?xml version="1.0" encoding="UTF-8" standalone="no"?>
<!-- Created with Inkscape (http://www.inkscape.org/) -->

<svg
   xmlns:dc="http://purl.org/dc/elements/1.1/"
   xmlns:cc="http://creativecommons.org/ns#"
   xmlns:rdf="http://www.w3.org/1999/02/22-rdf-syntax-ns#"
   xmlns:svg="http://www.w3.org/2000/svg"
   xmlns="http://www.w3.org/2000/svg"
   xmlns:sodipodi="http://sodipodi.sourceforge.net/DTD/sodipodi-0.dtd"
   xmlns:inkscape="http://www.inkscape.org/namespaces/inkscape"
   width="9.5498047mm"
   height="38.025585mm"
   viewBox="0 0 9.5498047 38.025585"
   version="1.1"
   id="svg18027"
   inkscape:version="0.92.4 (5da689c313, 2019-01-14)"
   sodipodi:docname="U32A.svg">
  <defs
     id="defs18021" />
  <sodipodi:namedview
     id="base"
     pagecolor="#ffffff"
     bordercolor="#666666"
     borderopacity="1.0"
     inkscape:pageopacity="0.0"
     inkscape:pageshadow="2"
     inkscape:zoom="0.35"
     inkscape:cx="-348.97266"
     inkscape:cy="-306.00266"
     inkscape:document-units="mm"
     inkscape:current-layer="layer1"
     showgrid="false"
     inkscape:window-width="1920"
     inkscape:window-height="1017"
     inkscape:window-x="-8"
     inkscape:window-y="-8"
     inkscape:window-maximized="1"
     fit-margin-top="0"
     fit-margin-left="0"
     fit-margin-right="0"
     fit-margin-bottom="0" />
  <metadata
     id="metadata18024">
    <rdf:RDF>
      <cc:Work
         rdf:about="">
        <dc:format>image/svg+xml</dc:format>
        <dc:type
           rdf:resource="http://purl.org/dc/dcmitype/StillImage" />
        <dc:title></dc:title>
      </cc:Work>
    </rdf:RDF>
  </metadata>
  <g
     inkscape:label="Layer 1"
     inkscape:groupmode="layer"
     id="layer1"
     transform="translate(-5.0198485,-29.844545)">
    <g
       aria-label="ð“—"
       transform="scale(0.26458333)"
       style="font-style:normal;font-variant:normal;font-weight:normal;font-stretch:normal;font-size:192px;line-height:1.25;font-family:sans-serif;-inkscape-font-specification:sans-serif;font-variant-ligatures:normal;font-variant-caps:normal;font-variant-numeric:normal;font-feature-settings:normal;text-align:start;letter-spacing:0px;word-spacing:0px;writing-mode:lr-tb;text-anchor:start;fill:#000000;fill-opacity:1;stroke:none"
       id="flowRoot18572">
      <path
         d="m 18.972656,117.39203 q 4.5,-2.15625 8.71875,-3.375 4.3125,-1.21875 6.46875,-1.21875 h 0.75 q 6,0 9.375,4.03125 3.375,4.03125 4.03125,16.78125 l 0.5625,8.90625 q 0.46875,6.65625 3.09375,34.875 2.625,28.21875 2.90625,39.1875 l 0.09375,4.3125 q 0,1.21875 0.09375,2.0625 v 9.65625 q 0,13.96875 -3.46875,18.9375 -3.46875,4.96875 -7.78125,4.96875 -4.03125,0 -6.28125,-5.4375 -2.25,-5.53125 -2.625,-12.9375 l -0.1875,-6 q 0,-7.5 0.65625,-14.90625 0.75,-7.40625 0.75,-14.8125 v -2.71875 q -0.375,-9 -2.8125,-17.625 -2.4375,-8.71875 -6.84375,-19.5 l 1.21875,-2.25 h 3.1875 l 1.3125,0.5625 6.09375,10.96875 q 0.84375,-10.3125 1.59375,-20.4375 0.75,-10.21875 0.84375,-20.53125 0,-7.125 -2.25,-10.21875 -2.15625,-3.1875 -6.75,-3.1875 -3,0 -6.1875,1.03125 -3.09375,1.03125 -5.625,1.78125 z m 26.53125,19.6875 -0.28125,-6.75 q -0.09375,-4.6875 -1.59375,-8.53125 -1.5,-3.84375 -4.875,-5.25 2.34375,1.78125 3.65625,5.4375 1.3125,3.5625 1.3125,8.90625 -0.1875,11.53125 -1.03125,22.96875 -0.75,11.4375 -1.78125,22.875 l -2.8125,0.75 -7.96875,-14.15625 h -0.09375 q 5.4375,13.96875 7.125,22.21875 1.78125,8.25 1.78125,17.8125 0,2.25 -0.09375,4.6875 -0.09375,2.34375 -0.28125,4.875 l -0.5625,9.09375 q -0.28125,4.5 -0.28125,9.09375 v 3.375 q 0,2.71875 0.65625,8.71875 0.75,6 3.5625,9.46875 0.375,0.28125 0.75,0.46875 0.375,0.1875 1.59375,0.1875 3.375,0 5.25,-4.125 1.875,-4.125 2.15625,-9.65625 l 0.28125,-5.34375 q 0,-1.59375 0.09375,-3.09375 v -7.96875 q 0,-0.84375 -0.09375,-1.96875 -0.65625,-16.78125 -2.25,-33.28125 -1.59375,-16.5 -2.90625,-33.1875 l -0.75,-9.75 z"
         id="path18580"
         inkscape:connector-curvature="0" />
    </g>
  </g>
</svg>
