<?xml version="1.0" encoding="UTF-8" standalone="no"?>
<!-- Created with Inkscape (http://www.inkscape.org/) -->

<svg
   xmlns:dc="http://purl.org/dc/elements/1.1/"
   xmlns:cc="http://creativecommons.org/ns#"
   xmlns:rdf="http://www.w3.org/1999/02/22-rdf-syntax-ns#"
   xmlns:svg="http://www.w3.org/2000/svg"
   xmlns="http://www.w3.org/2000/svg"
   xmlns:sodipodi="http://sodipodi.sourceforge.net/DTD/sodipodi-0.dtd"
   xmlns:inkscape="http://www.inkscape.org/namespaces/inkscape"
   width="9.5497913mm"
   height="38.000782mm"
   viewBox="0 0 9.5497913 38.000782"
   version="1.1"
   id="svg18589"
   inkscape:version="0.92.4 (5da689c313, 2019-01-14)"
   sodipodi:docname="U33.svg">
  <defs
     id="defs18583" />
  <sodipodi:namedview
     id="base"
     pagecolor="#ffffff"
     bordercolor="#666666"
     borderopacity="1.0"
     inkscape:pageopacity="0.0"
     inkscape:pageshadow="2"
     inkscape:zoom="0.35"
     inkscape:cx="148.16991"
     inkscape:cy="-257.52414"
     inkscape:document-units="mm"
     inkscape:current-layer="layer1"
     showgrid="false"
     fit-margin-top="0"
     fit-margin-left="0"
     fit-margin-right="0"
     fit-margin-bottom="0"
     inkscape:window-width="1920"
     inkscape:window-height="1017"
     inkscape:window-x="-8"
     inkscape:window-y="-8"
     inkscape:window-maximized="1" />
  <metadata
     id="metadata18586">
    <rdf:RDF>
      <cc:Work
         rdf:about="">
        <dc:format>image/svg+xml</dc:format>
        <dc:type
           rdf:resource="http://purl.org/dc/dcmitype/StillImage" />
        <dc:title></dc:title>
      </cc:Work>
    </rdf:RDF>
  </metadata>
  <g
     inkscape:label="Layer 1"
     inkscape:groupmode="layer"
     id="layer1"
     transform="translate(126.51579,-42.695957)">
    <g
       aria-label="ð“˜"
       transform="scale(0.26458333)"
       style="font-style:normal;font-variant:normal;font-weight:normal;font-stretch:normal;font-size:192px;line-height:1.25;font-family:sans-serif;-inkscape-font-specification:sans-serif;font-variant-ligatures:normal;font-variant-caps:normal;font-variant-numeric:normal;font-feature-settings:normal;text-align:start;letter-spacing:0px;word-spacing:0px;writing-mode:lr-tb;text-anchor:start;fill:#000000;fill-opacity:1;stroke:none"
       id="flowRoot19134">
      <path
         d="m -478.16992,165.9643 q 4.5,-2.15625 8.71875,-3.375 4.3125,-1.21875 6.46875,-1.21875 h 0.75 q 6,0 9.375,4.03125 3.375,4.03125 4.03125,16.78125 l 0.5625,8.90625 q 0,1.40625 0.1875,2.15625 l 0.75,9.75 q 1.3125,16.6875 2.90625,33.1875 1.59375,16.5 2.25,33.28125 0,1.21875 0.0937,2.0625 v 9 q 0,13.21875 -3,18.84375 -3,5.625 -8.0625,5.625 -4.5,0 -7.03125,-6.65625 -2.53125,-6.65625 -2.53125,-19.40625 0,-2.4375 0.0937,-4.78125 l 0.1875,-4.6875 q 0.75,-17.25 2.90625,-41.15625 2.15625,-24 2.53125,-31.125 l 0.0937,-2.34375 q 0.1875,-2.15625 0.28125,-4.3125 l 0.0937,-4.21875 q 0,-1.21875 0.0937,-2.71875 0.0937,-1.5 0.0937,-3.1875 0,-7.5 -2.15625,-10.875 -2.15625,-3.46875 -6.9375,-3.46875 -3,0 -6.1875,1.03125 -3.09375,1.03125 -5.625,1.78125 z m 27.09375,27.5625 -0.5625,-7.875 -0.5625,-7.5 q -0.28125,-5.15625 -1.875,-8.4375 -1.5,-3.375 -4.875,-4.875 2.53125,1.59375 4.03125,6.5625 1.5,4.96875 1.5,12.375 v 1.40625 l -0.1875,5.625 q 0,2.15625 -0.28125,4.3125 l -0.28125,4.6875 q -0.65625,9.1875 -1.5,18.375 l -1.6875,18.375 q -0.84375,9.1875 -1.5,18.46875 -0.5625,9.1875 -0.65625,18.375 v 2.90625 q 0,1.59375 -0.0937,3.375 0,8.8125 1.125,13.96875 1.125,5.0625 3.28125,7.59375 0.375,0 0.75,0.375 0.375,0.28125 1.59375,0.28125 3.375,0 5.25,-4.125 1.875,-4.125 2.15625,-9.65625 l 0.28125,-5.34375 q 0,-1.59375 0.0937,-3.09375 v -7.96875 q 0,-0.84375 -0.0937,-1.96875 -0.65625,-16.78125 -2.25,-33.28125 -1.59375,-16.5 -2.90625,-33.1875 z"
         id="path19142"
         inkscape:connector-curvature="0" />
    </g>
  </g>
</svg>
