<?xml version="1.0" encoding="UTF-8" standalone="no"?>
<!-- Created with Inkscape (http://www.inkscape.org/) -->

<svg
   xmlns:dc="http://purl.org/dc/elements/1.1/"
   xmlns:cc="http://creativecommons.org/ns#"
   xmlns:rdf="http://www.w3.org/1999/02/22-rdf-syntax-ns#"
   xmlns:svg="http://www.w3.org/2000/svg"
   xmlns="http://www.w3.org/2000/svg"
   xmlns:sodipodi="http://sodipodi.sourceforge.net/DTD/sodipodi-0.dtd"
   xmlns:inkscape="http://www.inkscape.org/namespaces/inkscape"
   width="37.851952mm"
   height="37.256641mm"
   viewBox="0 0 37.851952 37.256641"
   version="1.1"
   id="svg6763"
   inkscape:version="0.92.4 (5da689c313, 2019-01-14)"
   sodipodi:docname="U35.svg">
  <defs
     id="defs6757" />
  <sodipodi:namedview
     id="base"
     pagecolor="#ffffff"
     bordercolor="#666666"
     borderopacity="1.0"
     inkscape:pageopacity="0.0"
     inkscape:pageshadow="2"
     inkscape:zoom="0.35"
     inkscape:cx="-346.11606"
     inkscape:cy="-342.85713"
     inkscape:document-units="mm"
     inkscape:current-layer="layer1"
     showgrid="false"
     fit-margin-top="0"
     fit-margin-left="0"
     fit-margin-right="0"
     fit-margin-bottom="0"
     inkscape:window-width="1920"
     inkscape:window-height="1017"
     inkscape:window-x="-8"
     inkscape:window-y="-8"
     inkscape:window-maximized="1" />
  <metadata
     id="metadata6760">
    <rdf:RDF>
      <cc:Work
         rdf:about="">
        <dc:format>image/svg+xml</dc:format>
        <dc:type
           rdf:resource="http://purl.org/dc/dcmitype/StillImage" />
        <dc:title></dc:title>
      </cc:Work>
    </rdf:RDF>
  </metadata>
  <g
     inkscape:label="Layer 1"
     inkscape:groupmode="layer"
     id="layer1"
     transform="translate(-4.2640406,-20.862407)">
    <g
       aria-label="ð“š"
       style="font-style:normal;font-variant:normal;font-weight:normal;font-stretch:normal;font-size:50.79999924px;line-height:1.25;font-family:sans-serif;-inkscape-font-specification:'sans-serif, Normal';font-variant-ligatures:normal;font-variant-caps:normal;font-variant-numeric:normal;font-feature-settings:normal;text-align:start;letter-spacing:0px;word-spacing:0px;writing-mode:lr-tb;text-anchor:start;fill:#000000;fill-opacity:1;stroke:none;stroke-width:0.26458332"
       id="text7310">
      <path
         d="m 25.298418,22.499515 h 1.314649 v 1.016992 h -1.314649 v 1.265039 q 0.992188,0.07441 1.909961,0.446484 0.917774,0.347266 1.661914,0.967383 0.744141,0.620117 1.289844,1.463476 0.545703,0.84336 0.818555,1.885157 l -0.396875,0.520898 h -1.190625 q -0.07441,3.919141 -0.868164,6.201172 -0.79375,2.207617 -2.282032,3.819922 0.719336,0.04961 1.488282,0.223242 0.79375,0.148828 1.661914,0.42168 1.016992,0.248046 1.835546,0.496093 0.818555,0.248047 1.537891,0.471289 0.744141,0.198438 1.413867,0.347266 0.694531,0.124023 1.438672,0.124023 0.42168,0 0.967383,0 0.570508,-0.0248 1.16582,-0.0248 0.84336,0 1.562695,0.0248 0.744141,0 1.041797,0.02481 1.091407,0.04961 1.63711,0.297656 0.04961,0.173633 0.04961,0.347266 0,0.173633 0.07441,0.347266 -0.496094,0.37207 -1.240234,0.620117 -0.719336,0.223242 -1.661914,0.37207 -0.917774,0.124024 -2.00918,0.198438 -1.066601,0.04961 -2.257226,0.04961 -1.289844,0 -2.604493,-0.09922 -1.314648,-0.09922 -2.678906,-0.297656 -0.818555,-0.124023 -1.438672,-0.223242 -0.595312,-0.09922 -1.091406,-0.173633 -0.471289,-0.09922 -0.892969,-0.148828 -0.421679,-0.07441 -0.868164,-0.148828 l 0.04961,14.783593 h -1.240235 l 0.04961,-14.758789 q -1.289844,0.223243 -2.629297,0.496094 -1.339453,0.272852 -2.554883,0.272852 -2.629297,0 -5.630664,-1.63711 -3.026172,-1.661914 -3.795117,-1.785937 -0.396875,0.148828 -0.8433594,0.396875 -0.4464844,0.223242 -0.8433594,0.223242 -0.9425781,0 -2.3068359,-0.520898 -1.3642577,-0.545703 -1.3642577,-2.083594 0,-0.471289 0.1488281,-0.917773 0.1736328,-0.47129 0.4960937,-0.84336 Q 5.256231,36.588577 5.8019342,36.365335 6.3476373,36.117288 7.1165826,36.042874 6.843731,35.521975 6.5956841,35.100296 6.3972466,34.75303 6.1740045,34.455374 5.9507623,34.157717 5.8267388,34.157717 q -0.1240234,0.04961 -0.2480468,0.04961 -0.1240235,0 -0.2232422,0 -0.4216797,0 -0.5457031,-0.173633 -0.1240235,-0.173633 -0.1240235,-0.37207 0,-0.124024 0.1984375,-0.297656 0.1984375,-0.198438 0.6201172,-0.198438 0.3472656,0 0.5457031,0.124023 0.2232422,0.09922 0.6201172,0.520899 0.1984375,0.223242 0.3720703,0.520898 0.1984375,0.297657 0.3472656,0.620117 0.1736328,0.297657 0.2728516,0.595313 0.1240234,0.272852 0.1736328,0.471289 h 0.5208984 q 0.2480469,-0.595312 0.6449219,-1.116211 0.4216797,-0.545703 0.8433594,-0.942578 0.4960938,-0.471289 0.7937498,-0.620117 0.322461,-0.173633 0.644922,-0.173633 0.37207,0 0.471289,0.148828 0.124023,0.148828 0.124023,0.347266 0,0.248047 -0.07441,0.347265 -0.07441,0.07441 -0.198437,0.124024 -0.09922,0.04961 -0.272852,0.09922 -0.148828,0.04961 -0.37207,0.04961 h -0.148828 q -0.272852,0 -0.719336,0.496094 -0.4216797,0.471289 -0.9425781,1.339453 0.7193359,0.322461 1.8851561,1.066601 1.190625,0.744141 2.530078,1.686719 2.654102,1.909961 4.712891,2.38125 l 2.579687,-0.570508 q 0.644922,-0.124023 1.289844,-0.248047 0.669727,-0.124023 1.339453,-0.223242 -1.711523,-1.909961 -2.505273,-4.191992 -0.768946,-2.282031 -0.768946,-5.953125 h -1.240234 l -0.37207,-0.471289 q 0.719336,-2.604492 2.356445,-3.671094 1.637109,-1.041796 3.348633,-1.16582 v -1.240234 h -1.314649 v -1.016992 h 1.314649 v -1.63711 h 0.992187 z m -4.291211,7.565429 q 0,3.720703 0.818555,5.903516 0.818555,2.207617 2.629297,4.117578 h 0.719336 q 0.868164,-0.868164 1.513086,-1.885157 0.644922,-1.016992 1.066601,-2.158007 0.84336,-2.232422 0.84336,-5.97793 z m -2.629296,11.980664 q -1.488282,-0.297656 -2.629297,-0.892969 -1.116211,-0.595312 -2.331641,-1.438672 l -2.306836,-1.5875 Q 9.9443169,37.332717 8.7784966,36.861428 H 7.2902154 q -1.4882812,0.124024 -1.8603516,0.694532 -0.3720703,0.570507 -0.3720703,1.16582 0,0.917773 0.7441407,1.339453 0.7441406,0.396875 2.4060546,0.396875 0.3224609,-0.148828 0.9673828,-0.446484 0.1984375,-0.09922 0.4960937,-0.09922 0.5457027,0 1.1658207,0.347266 l 3.621484,1.934765 q 0.967383,0.446484 2.108398,0.79375 1.141016,0.347266 2.43086,0.347266 1.215429,0 2.654101,-0.272852 1.463477,-0.297656 3.150195,-0.570508 0.297657,0 1.091407,0.124024 0.79375,0.124023 1.612304,0.248047 0.967383,0.173632 2.083594,0.37207 1.364258,0.198437 2.678906,0.322461 1.314649,0.09922 2.654102,0.09922 0.570508,0 1.339453,-0.02481 0.768945,-0.04961 1.736328,-0.09922 0.967383,-0.04961 1.686719,-0.198437 0.719336,-0.148828 1.190625,-0.347266 -0.42168,-0.07441 -0.917774,-0.09922 -0.471289,-0.0248 -0.967382,-0.0248 -0.347266,0 -0.669727,0 -0.322461,0 -0.644922,0.0248 -1.041797,0.04961 -1.53789,0.09922 -0.47129,0.02481 -0.868165,0.02481 -0.421679,0 -1.314648,-0.198438 -0.868164,-0.198437 -1.761133,-0.446484 -1.041797,-0.272852 -2.232422,-0.644922 -1.041796,-0.272851 -2.306835,-0.570508 -1.240235,-0.297656 -2.356446,-0.297656 -1.339453,0 -2.554883,0.248047 -1.215429,0.248047 -2.406054,0.545703 -1.5875,0.396875 -1.95957,0.396875 z M 30.060918,29.271194 Q 29.515215,27.634085 28.051739,26.617093 26.563457,25.575296 24.901543,25.550491 H 24.72791 q -1.885156,0 -3.299023,1.016992 -1.389062,0.992188 -1.909961,2.703711 z"
         style="stroke-width:0.26458332"
         id="path7312"
         inkscape:connector-curvature="0" />
    </g>
  </g>
</svg>
