<?xml version="1.0" encoding="UTF-8" standalone="no"?>
<!-- Created with Inkscape (http://www.inkscape.org/) -->

<svg
   xmlns:dc="http://purl.org/dc/elements/1.1/"
   xmlns:cc="http://creativecommons.org/ns#"
   xmlns:rdf="http://www.w3.org/1999/02/22-rdf-syntax-ns#"
   xmlns:svg="http://www.w3.org/2000/svg"
   xmlns="http://www.w3.org/2000/svg"
   xmlns:sodipodi="http://sodipodi.sourceforge.net/DTD/sodipodi-0.dtd"
   xmlns:inkscape="http://www.inkscape.org/namespaces/inkscape"
   width="7.242969mm"
   height="38.000782mm"
   viewBox="0 0 7.242969 38.000782"
   version="1.1"
   id="svg7321"
   inkscape:version="0.92.4 (5da689c313, 2019-01-14)"
   sodipodi:docname="U36.svg">
  <defs
     id="defs7315" />
  <sodipodi:namedview
     id="base"
     pagecolor="#ffffff"
     bordercolor="#666666"
     borderopacity="1.0"
     inkscape:pageopacity="0.0"
     inkscape:pageshadow="2"
     inkscape:zoom="0.35"
     inkscape:cx="-334.6875"
     inkscape:cy="-372.78572"
     inkscape:document-units="mm"
     inkscape:current-layer="layer1"
     showgrid="false"
     fit-margin-top="0"
     fit-margin-left="0"
     fit-margin-right="0"
     fit-margin-bottom="0"
     inkscape:window-width="1920"
     inkscape:window-height="1017"
     inkscape:window-x="-8"
     inkscape:window-y="-8"
     inkscape:window-maximized="1" />
  <metadata
     id="metadata7318">
    <rdf:RDF>
      <cc:Work
         rdf:about="">
        <dc:format>image/svg+xml</dc:format>
        <dc:type
           rdf:resource="http://purl.org/dc/dcmitype/StillImage" />
        <dc:title></dc:title>
      </cc:Work>
    </rdf:RDF>
  </metadata>
  <g
     inkscape:label="Layer 1"
     inkscape:groupmode="layer"
     id="layer1"
     transform="translate(-1.2402338,-12.199664)">
    <g
       aria-label="ð“›"
       style="font-style:normal;font-variant:normal;font-weight:normal;font-stretch:normal;font-size:50.79999924px;line-height:1.25;font-family:sans-serif;-inkscape-font-specification:'sans-serif, Normal';font-variant-ligatures:normal;font-variant-caps:normal;font-variant-numeric:normal;font-feature-settings:normal;text-align:start;letter-spacing:0px;word-spacing:0px;writing-mode:lr-tb;text-anchor:start;fill:#000000;fill-opacity:1;stroke:none;stroke-width:0.26458332"
       id="text7868">
      <path
         d="m 5.4818359,12.274078 q 1.5874999,0.173633 2.2820312,1.686719 0.7193359,1.513086 0.7193359,4.167187 v 0.496094 Q 8.1359374,24.800445 7.5654296,28.273101 7.0197265,31.745758 6.6724608,35.689703 L 6.498828,37.822906 q -0.099219,1.066601 -0.099219,2.133203 l 0.024805,0.843359 q 0.049609,1.141016 0.2232422,2.257227 0.1736328,1.091406 0.4216796,2.182812 l 0.5208985,2.207618 q 0.2480468,1.11621 0.4464843,2.232421 l -0.396875,0.520899 H 2.0339843 L 1.661914,49.729156 Q 2.4060547,47.397515 2.8277343,45.065875 3.2742187,42.734234 3.3238281,40.27857 v -0.471289 q 0,-3.571875 -0.8185547,-9.177734 -0.79375,-5.60586 -0.9921875,-7.788672 L 1.3642578,20.757281 q -0.049609,-0.595312 -0.099219,-1.265039 -0.024805,-0.694531 -0.024805,-1.413867 0,-2.902148 0.8929687,-4.316016 0.8929687,-1.413867 2.7037109,-1.562695 z M 4.836914,12.993414 q -1.4386719,0.124024 -2.1332031,1.389063 -0.6697266,1.265039 -0.6697266,3.621484 0,0.744141 0.024805,1.438672 0.049609,0.694531 0.099219,1.240234 l 0.1488281,2.083594 q 0.1984375,2.207617 0.5208984,4.390429 l 0.5953125,4.39043 q 0.2728516,2.033984 0.4712891,4.167188 0.2232422,2.108398 0.2232422,4.167187 v 0.471289 q -0.049609,2.331641 -0.4216797,4.588867 -0.3720703,2.257227 -1.0914063,4.464844 h 4.564062 Q 6.7468749,47.248687 6.2507812,45.165093 5.7546874,43.056695 5.630664,40.873882 L 5.605859,40.005718 q 0,-1.116211 0.099219,-2.207617 l 0.1736328,-2.182812 q 0.1736329,-1.860352 0.9921875,-8.259961 0.8433594,-6.399609 0.8433594,-9.549805 0,-2.505273 -0.7193359,-3.621484 -0.719336,-1.116211 -1.6371094,-1.16582 z"
         style="stroke-width:0.26458332"
         id="path7870"
         inkscape:connector-curvature="0" />
    </g>
  </g>
</svg>
