<?xml version="1.0" encoding="UTF-8" standalone="no"?>
<!-- Created with Inkscape (http://www.inkscape.org/) -->

<svg
   xmlns:dc="http://purl.org/dc/elements/1.1/"
   xmlns:cc="http://creativecommons.org/ns#"
   xmlns:rdf="http://www.w3.org/1999/02/22-rdf-syntax-ns#"
   xmlns:svg="http://www.w3.org/2000/svg"
   xmlns="http://www.w3.org/2000/svg"
   xmlns:sodipodi="http://sodipodi.sourceforge.net/DTD/sodipodi-0.dtd"
   xmlns:inkscape="http://www.inkscape.org/namespaces/inkscape"
   width="37.256641mm"
   height="37.256641mm"
   viewBox="0 0 37.256641 37.256641"
   version="1.1"
   id="svg8437"
   inkscape:version="0.92.4 (5da689c313, 2019-01-14)"
   sodipodi:docname="U38.svg">
  <defs
     id="defs8431" />
  <sodipodi:namedview
     id="base"
     pagecolor="#ffffff"
     bordercolor="#666666"
     borderopacity="1.0"
     inkscape:pageopacity="0.0"
     inkscape:pageshadow="2"
     inkscape:zoom="0.35"
     inkscape:cx="-354.6875"
     inkscape:cy="-414.28573"
     inkscape:document-units="mm"
     inkscape:current-layer="layer1"
     showgrid="false"
     fit-margin-top="0"
     fit-margin-left="0"
     fit-margin-right="0"
     fit-margin-bottom="0"
     inkscape:window-width="1920"
     inkscape:window-height="1017"
     inkscape:window-x="-8"
     inkscape:window-y="-8"
     inkscape:window-maximized="1" />
  <metadata
     id="metadata8434">
    <rdf:RDF>
      <cc:Work
         rdf:about="">
        <dc:format>image/svg+xml</dc:format>
        <dc:type
           rdf:resource="http://purl.org/dc/dcmitype/StillImage" />
        <dc:title></dc:title>
      </cc:Work>
    </rdf:RDF>
  </metadata>
  <g
     inkscape:label="Layer 1"
     inkscape:groupmode="layer"
     id="layer1"
     transform="translate(-6.5319009,-1.9635939)">
    <g
       aria-label="ð“"
       style="font-style:normal;font-variant:normal;font-weight:normal;font-stretch:normal;font-size:50.79999924px;line-height:1.25;font-family:sans-serif;-inkscape-font-specification:'sans-serif, Normal';font-variant-ligatures:normal;font-variant-caps:normal;font-variant-numeric:normal;font-feature-settings:normal;text-align:start;letter-spacing:0px;word-spacing:0px;writing-mode:lr-tb;text-anchor:start;fill:#000000;fill-opacity:1;stroke:none;stroke-width:0.26458332"
       id="text8984">
      <path
         d="M 24.589713,5.9819532 V 1.9635939 h 1.21543 v 1.6123046 q 2.257226,0 3.323828,-0.79375 1.066601,-0.8185546 1.885156,-0.8185546 l 0.396875,0.8185546 q -0.644922,0.4216797 -2.00918,1.190625 v 2.0091797 h 12.377539 v 1.1906249 h -2.033984 l 3.621484,16.4207029 h 0.42168 v 1.21543 h -8.408789 v -1.21543 h 0.37207 l 3.22461,-16.4207029 h -9.57461 l -0.297656,0.8185547 q -0.173633,0.4960938 -0.446484,1.1658203 0.272851,0.8185547 0.37207,1.6123049 0.124024,0.79375 0.124024,1.5875 v 0.297656 q 0,1.637109 -0.942579,3.745508 -0.471289,-1.339453 -0.471289,-2.728516 0,-0.992187 0.173633,-2.108398 0.198438,-1.116211 0.620117,-2.3812502 -0.396875,-0.79375 -0.570507,-1.265039 Q 27.789518,7.420625 27.789518,7.2221875 V 7.1725781 H 25.805143 V 29.19914 h 2.356445 q 0.198438,1.810742 0.892969,4.291211 0.694531,2.480469 1.909961,5.729883 H 19.355924 q 1.116211,-2.207617 1.785938,-4.688086 0.694531,-2.505273 1.016992,-5.333008 h 2.430859 V 7.1725781 H 11.34401 l 3.224609,16.4207029 h 0.768946 v 1.21543 H 6.5319009 v -1.21543 H 6.9039712 L 10.525455,7.1725781 H 8.9379555 V 5.9819532 Z M 10.897526,9.1073437 7.6977212,23.593281 H 13.750065 Z M 23.051822,30.216132 q -0.74414,5.382618 -2.083593,8.011914 h 3.621484 v -8.011914 z m 2.753321,0 v 8.011914 h 3.54707 q -1.463477,-3.398242 -2.083594,-8.011914 z m 0,-24.2341788 h 1.984375 V 4.3696485 h -1.984375 z m 13.592968,2.852539 -2.902148,14.7587888 h 6.052344 z"
         style="stroke-width:0.26458332"
         id="path8986"
         inkscape:connector-curvature="0" />
    </g>
  </g>
</svg>
