<?xml version="1.0" encoding="UTF-8" standalone="no"?>
<svg
   xmlns:dc="http://purl.org/dc/elements/1.1/"
   xmlns:cc="http://creativecommons.org/ns#"
   xmlns:rdf="http://www.w3.org/1999/02/22-rdf-syntax-ns#"
   xmlns:svg="http://www.w3.org/2000/svg"
   xmlns="http://www.w3.org/2000/svg"
   xmlns:sodipodi="http://sodipodi.sourceforge.net/DTD/sodipodi-0.dtd"
   xmlns:inkscape="http://www.inkscape.org/namespaces/inkscape"
   version="1.0"
   width="141.72394pt"
   height="102.5pt"
   viewBox="0 0 141.72394 102.5"
   preserveAspectRatio="xMidYMid meet"
   id="svg8"
   sodipodi:docname="U38A.svg"
   inkscape:version="0.92.4 (5da689c313, 2019-01-14)">
  <defs
     id="defs12" />
  <sodipodi:namedview
     pagecolor="#ffffff"
     bordercolor="#666666"
     borderopacity="1"
     objecttolerance="10"
     gridtolerance="10"
     guidetolerance="10"
     inkscape:pageopacity="0"
     inkscape:pageshadow="2"
     inkscape:window-width="1920"
     inkscape:window-height="1017"
     id="namedview10"
     showgrid="false"
     fit-margin-top="0"
     fit-margin-left="0"
     fit-margin-right="0"
     fit-margin-bottom="0"
     inkscape:zoom="1.2826087"
     inkscape:cx="-7.888623"
     inkscape:cy="78"
     inkscape:window-x="-8"
     inkscape:window-y="-8"
     inkscape:window-maximized="1"
     inkscape:current-layer="svg8" />
  <metadata
     id="metadata2">
Created by potrace 1.10, written by Peter Selinger 2001-2011
<rdf:RDF>
  <cc:Work
     rdf:about="">
    <dc:format>image/svg+xml</dc:format>
    <dc:type
       rdf:resource="http://purl.org/dc/dcmitype/StillImage" />
    <dc:title></dc:title>
  </cc:Work>
</rdf:RDF>
</metadata>
  <g
     transform="matrix(0.1,0,0,-0.1,-9.1452808,113)"
     id="g6"
     style="fill:#000000;stroke:none">
    <path
       d="m 341,1116 c -7,-8 -16,-27 -21,-43 -5,-15 -18,-53 -30,-83 -11,-30 -32,-86 -45,-125 -13,-38 -33,-95 -45,-125 -12,-30 -25,-68 -30,-85 -5,-16 -18,-55 -30,-85 -23,-58 -38,-108 -47,-152 -4,-22 -1,-28 18,-33 13,-3 132,-4 264,-3 l 240,3 -1,40 c 0,22 -11,65 -23,95 -13,30 -26,69 -31,85 -5,17 -18,55 -30,85 -41,106 -51,135 -60,165 -4,17 -18,55 -30,85 -33,84 -41,113 -32,122 5,5 87,7 183,6 l 174,-3 5,-480 5,-480 h 25 25 l 5,480 5,480 179,3 178,2 -5,-32 c -2,-18 -14,-58 -27,-88 -12,-30 -25,-68 -30,-85 -5,-16 -18,-55 -30,-85 -41,-106 -51,-135 -60,-165 -4,-16 -18,-55 -31,-85 -12,-30 -23,-75 -23,-100 l -1,-45 251,-3 c 292,-3 288,-4 261,76 -25,74 -39,115 -48,137 -8,20 -19,49 -64,180 -14,39 -41,115 -60,170 -20,55 -41,115 -46,132 -5,18 -18,37 -29,43 -12,6 -181,10 -458,10 -365,0 -442,-2 -451,-14 z m 39,-158 c 5,-18 18,-58 30,-88 12,-30 25,-68 30,-85 5,-16 18,-55 30,-85 12,-30 24,-64 27,-75 3,-11 11,-33 18,-50 12,-29 31,-82 42,-117 5,-17 -9,-18 -194,-18 -110,0 -202,2 -205,5 -3,3 1,25 10,48 8,23 30,85 49,137 19,52 38,109 43,125 4,17 18,55 30,85 12,30 25,70 30,88 8,33 39,76 47,68 3,-2 8,-19 13,-38 z m 880,15 c 7,-16 16,-41 20,-58 5,-16 18,-55 30,-85 12,-30 26,-68 30,-85 5,-16 25,-75 45,-130 49,-137 55,-157 49,-166 -3,-5 -93,-9 -200,-9 -210,0 -211,0 -182,53 6,12 15,35 19,52 4,16 17,55 29,85 11,30 32,87 45,125 13,39 33,95 45,125 12,30 24,64 27,75 10,39 12,45 21,45 5,0 15,-12 22,-27 z"
       id="path4"
       inkscape:connector-curvature="0" />
  </g>
</svg>
