<?xml version="1.0" encoding="UTF-8" standalone="no"?>
<svg
   xmlns:dc="http://purl.org/dc/elements/1.1/"
   xmlns:cc="http://creativecommons.org/ns#"
   xmlns:rdf="http://www.w3.org/1999/02/22-rdf-syntax-ns#"
   xmlns:svg="http://www.w3.org/2000/svg"
   xmlns="http://www.w3.org/2000/svg"
   xmlns:sodipodi="http://sodipodi.sourceforge.net/DTD/sodipodi-0.dtd"
   xmlns:inkscape="http://www.inkscape.org/namespaces/inkscape"
   version="1.0"
   width="134.27304pt"
   height="124.93298pt"
   viewBox="0 0 134.27304 124.93298"
   preserveAspectRatio="xMidYMid meet"
   id="svg8"
   sodipodi:docname="U38B.svg"
   inkscape:version="0.92.4 (5da689c313, 2019-01-14)">
  <defs
     id="defs12" />
  <sodipodi:namedview
     pagecolor="#ffffff"
     bordercolor="#666666"
     borderopacity="1"
     objecttolerance="10"
     gridtolerance="10"
     guidetolerance="10"
     inkscape:pageopacity="0"
     inkscape:pageshadow="2"
     inkscape:window-width="1920"
     inkscape:window-height="1017"
     id="namedview10"
     showgrid="false"
     fit-margin-top="0"
     fit-margin-left="0"
     fit-margin-right="0"
     fit-margin-bottom="0"
     inkscape:zoom="1.1132075"
     inkscape:cx="-25.573643"
     inkscape:cy="89.953227"
     inkscape:window-x="-8"
     inkscape:window-y="-8"
     inkscape:window-maximized="1"
     inkscape:current-layer="svg8" />
  <metadata
     id="metadata2">
Created by potrace 1.10, written by Peter Selinger 2001-2011
<rdf:RDF>
  <cc:Work
     rdf:about="">
    <dc:format>image/svg+xml</dc:format>
    <dc:type
       rdf:resource="http://purl.org/dc/dcmitype/StillImage" />
    <dc:title></dc:title>
  </cc:Work>
</rdf:RDF>
</metadata>
  <g
     transform="matrix(0.1,0,0,-0.1,-10.5743,136.96805)"
     id="g6"
     style="fill:#000000;stroke:none">
    <path
       d="m 715,1338 c -20,-24 -25,-38 -20,-57 4,-14 8,-42 8,-61 l 2,-35 -100,-13 c -55,-7 -138,-19 -185,-26 -71,-12 -90,-12 -117,-1 -30,13 -34,12 -43,-5 -5,-10 -10,-36 -10,-58 0,-21 -9,-65 -20,-98 C 189,865 172,803 157,710 125,521 107,375 106,299 c -1,-78 -1,-78 38,-118 70,-72 181,-75 254,-7 51,48 57,88 33,236 -12,70 -21,148 -21,173 0,25 -9,90 -20,144 -18,93 -25,117 -57,206 -17,48 -17,76 1,83 8,3 68,-4 134,-15 66,-12 142,-21 169,-21 26,0 53,-4 60,-8 7,-4 13,-36 15,-72 3,-62 4,-65 33,-73 18,-5 41,-4 58,2 26,10 27,14 27,75 0,73 3,76 83,76 29,0 68,4 87,10 54,14 198,30 216,23 17,-6 14,-35 -10,-88 -25,-55 -76,-340 -76,-427 0,-24 -7,-68 -15,-98 -8,-30 -15,-82 -15,-114 0,-52 4,-64 34,-101 87,-106 254,-77 306,53 14,35 14,27 -26,256 -8,43 -14,98 -14,122 0,75 -47,280 -82,359 -10,22 -18,63 -18,91 0,27 -6,59 -14,69 -12,17 -18,18 -52,7 -32,-10 -54,-9 -119,3 -44,9 -125,21 -180,28 l -100,13 v 71 c 0,55 -4,75 -19,92 -28,31 -69,27 -101,-11 z m 73,-45 c 2,-8 -5,-13 -17,-13 -21,0 -35,13 -24,24 10,10 36,3 41,-11 z m -18,-103 c 0,-20 -5,-30 -15,-30 -10,0 -15,10 -15,30 0,20 5,30 15,30 10,0 15,-10 15,-30 z m 230,-79 c 47,-7 108,-16 135,-20 l 50,-7 -90,-21 c -173,-41 -545,-38 -680,5 l -60,19 60,7 c 33,4 101,13 150,21 105,16 311,14 435,-4 z M 299,888 c 18,-55 32,-139 67,-398 8,-63 17,-126 19,-140 7,-47 -4,-51 -116,-48 l -104,3 3,60 c 2,33 10,101 18,150 7,50 14,109 14,133 0,42 20,141 42,212 29,93 34,96 57,28 z m 995,4 c 17,-35 42,-167 57,-307 13,-117 22,-187 34,-246 6,-32 5,-37 -16,-42 -13,-4 -64,-7 -112,-7 -73,0 -89,3 -94,17 -4,9 1,66 10,127 9,61 21,152 27,201 14,123 24,183 40,230 7,22 14,46 16,53 5,18 21,7 38,-26 z M 370,232 c 0,-19 -72,-62 -103,-62 -23,0 -85,33 -92,48 -10,27 7,32 101,32 84,0 94,-2 94,-18 z m 1000,-1 c 0,-25 -58,-61 -98,-61 -41,0 -102,37 -102,61 0,17 8,19 100,19 92,0 100,-2 100,-19 z"
       id="path4"
       inkscape:connector-curvature="0" />
  </g>
</svg>
