<?xml version="1.0" encoding="UTF-8" standalone="no"?>
<!-- Created with Inkscape (http://www.inkscape.org/) -->

<svg
   xmlns:dc="http://purl.org/dc/elements/1.1/"
   xmlns:cc="http://creativecommons.org/ns#"
   xmlns:rdf="http://www.w3.org/1999/02/22-rdf-syntax-ns#"
   xmlns:svg="http://www.w3.org/2000/svg"
   xmlns="http://www.w3.org/2000/svg"
   xmlns:sodipodi="http://sodipodi.sourceforge.net/DTD/sodipodi-0.dtd"
   xmlns:inkscape="http://www.inkscape.org/namespaces/inkscape"
   width="12.774413mm"
   height="37.653515mm"
   viewBox="0 0 12.774413 37.653515"
   version="1.1"
   id="svg8995"
   inkscape:version="0.92.4 (5da689c313, 2019-01-14)"
   sodipodi:docname="U39.svg">
  <defs
     id="defs8989" />
  <sodipodi:namedview
     id="base"
     pagecolor="#ffffff"
     bordercolor="#666666"
     borderopacity="1.0"
     inkscape:pageopacity="0.0"
     inkscape:pageshadow="2"
     inkscape:zoom="0.35"
     inkscape:cx="-391.83036"
     inkscape:cy="-358.50001"
     inkscape:document-units="mm"
     inkscape:current-layer="layer1"
     showgrid="false"
     fit-margin-top="0"
     fit-margin-left="0"
     fit-margin-right="0"
     fit-margin-bottom="0"
     inkscape:window-width="1920"
     inkscape:window-height="1017"
     inkscape:window-x="-8"
     inkscape:window-y="-8"
     inkscape:window-maximized="1" />
  <metadata
     id="metadata8992">
    <rdf:RDF>
      <cc:Work
         rdf:about="">
        <dc:format>image/svg+xml</dc:format>
        <dc:type
           rdf:resource="http://purl.org/dc/dcmitype/StillImage" />
        <dc:title></dc:title>
      </cc:Work>
    </rdf:RDF>
  </metadata>
  <g
     inkscape:label="Layer 1"
     inkscape:groupmode="layer"
     id="layer1"
     transform="translate(-16.359282,-16.326692)">
    <g
       aria-label="ð“ž"
       style="font-style:normal;font-variant:normal;font-weight:normal;font-stretch:normal;font-size:50.79999924px;line-height:1.25;font-family:sans-serif;-inkscape-font-specification:'sans-serif, Normal';font-variant-ligatures:normal;font-variant-caps:normal;font-variant-numeric:normal;font-feature-settings:normal;text-align:start;letter-spacing:0px;word-spacing:0px;writing-mode:lr-tb;text-anchor:start;fill:#000000;fill-opacity:1;stroke:none;stroke-width:0.26458332"
       id="text9542">
      <path
         d="m 23.254985,16.326692 v 29.071093 q 0.595312,0.02481 1.11621,0.595313 0.545704,0.545703 1.041797,1.389062 0.496094,0.818555 0.967383,1.785938 0.471289,0.967383 0.917774,1.835547 0.446484,0.868164 0.892968,1.488281 0.471289,0.620117 0.942578,0.768945 l -0.248046,0.719336 H 16.483305 l -0.124023,-0.768945 q 0.595312,-0.272852 1.041796,-0.892969 0.446485,-0.644922 0.84336,-1.438672 0.396875,-0.79375 0.768945,-1.661914 0.37207,-0.892969 0.79375,-1.661914 0.446484,-0.768945 0.967383,-1.364258 0.545703,-0.595312 1.240234,-0.79375 V 26.546223 Q 19.360649,25.901301 18.021196,23.99134 16.681742,22.056575 16.681742,18.286262 h 1.240235 q 0,1.413867 0.173633,2.579688 0.173632,1.141015 0.620117,2.033984 0.446484,0.892969 1.240234,1.513086 0.79375,0.595312 2.058789,0.892969 v -8.979297 z m 0,29.864843 v 6.994922 h 4.564062 q -0.322461,-0.223242 -0.669727,-0.79375 -0.347265,-0.570508 -0.719336,-1.289844 -0.347265,-0.74414 -0.719335,-1.562695 -0.372071,-0.818555 -0.768946,-1.513086 -0.396875,-0.694531 -0.818554,-1.190625 -0.42168,-0.520898 -0.868164,-0.644922 z m -5.630664,6.994922 h 4.390429 v -6.994922 q -0.421679,0.173633 -0.79375,0.694532 -0.37207,0.496093 -0.74414,1.215429 -0.372071,0.694531 -0.719336,1.513086 -0.347266,0.79375 -0.719336,1.513086 -0.347266,0.719336 -0.694532,1.289844 -0.347265,0.545703 -0.719335,0.768945 z"
         style="stroke-width:0.26458332"
         id="path9544"
         inkscape:connector-curvature="0" />
    </g>
  </g>
</svg>
