<?xml version="1.0" encoding="UTF-8" standalone="no"?>
<!-- Created with Inkscape (http://www.inkscape.org/) -->

<svg
   xmlns:dc="http://purl.org/dc/elements/1.1/"
   xmlns:cc="http://creativecommons.org/ns#"
   xmlns:rdf="http://www.w3.org/1999/02/22-rdf-syntax-ns#"
   xmlns:svg="http://www.w3.org/2000/svg"
   xmlns="http://www.w3.org/2000/svg"
   xmlns:sodipodi="http://sodipodi.sourceforge.net/DTD/sodipodi-0.dtd"
   xmlns:inkscape="http://www.inkscape.org/namespaces/inkscape"
   width="37.405472mm"
   height="37.703121mm"
   viewBox="0 0 37.405472 37.703121"
   version="1.1"
   id="svg11437"
   inkscape:version="0.92.4 (5da689c313, 2019-01-14)"
   sodipodi:docname="U4.svg">
  <defs
     id="defs11431" />
  <sodipodi:namedview
     id="base"
     pagecolor="#ffffff"
     bordercolor="#666666"
     borderopacity="1.0"
     inkscape:pageopacity="0.0"
     inkscape:pageshadow="2"
     inkscape:zoom="0.35"
     inkscape:cx="-374.6875"
     inkscape:cy="-359.62502"
     inkscape:document-units="mm"
     inkscape:current-layer="layer1"
     showgrid="false"
     fit-margin-top="0"
     fit-margin-left="0"
     fit-margin-right="0"
     fit-margin-bottom="0"
     inkscape:window-width="1920"
     inkscape:window-height="1017"
     inkscape:window-x="-8"
     inkscape:window-y="-8"
     inkscape:window-maximized="1" />
  <metadata
     id="metadata11434">
    <rdf:RDF>
      <cc:Work
         rdf:about="">
        <dc:format>image/svg+xml</dc:format>
        <dc:type
           rdf:resource="http://purl.org/dc/dcmitype/StillImage" />
        <dc:title></dc:title>
      </cc:Work>
    </rdf:RDF>
  </metadata>
  <g
     inkscape:label="Layer 1"
     inkscape:groupmode="layer"
     id="layer1"
     transform="translate(-11.823567,-15.979426)">
    <g
       aria-label="𓌶 "
       style="font-style:normal;font-variant:normal;font-weight:normal;font-stretch:normal;font-size:50.79999924px;line-height:1.25;font-family:sans-serif;-inkscape-font-specification:'sans-serif, Normal';font-variant-ligatures:normal;font-variant-caps:normal;font-variant-numeric:normal;font-feature-settings:normal;text-align:start;letter-spacing:0px;word-spacing:0px;writing-mode:lr-tb;text-anchor:start;fill:#000000;fill-opacity:1;stroke:none;stroke-width:0.26458332"
       id="text11984">
      <path
         d="m 33.279622,15.979426 h 3.596679 l 0.42168,0.396875 q 0,1.066602 -0.09922,2.207618 -0.07441,1.141015 -0.07441,2.282031 0,3.348633 1.364258,5.060156 1.364258,1.686719 4.564062,2.406055 l 5.953125,1.265039 0.223243,0.620117 q -1.810743,3.398242 -3.720704,5.903515 -1.90996,2.505274 -3.348632,3.745508 -1.438672,1.21543 -3.125391,2.554883 -1.661914,1.314648 -6.30039,3.720703 l -3.249414,1.711523 q -1.711524,0.892969 -3.423047,1.736328 -1.686719,0.84336 -3.249414,1.537891 L 21.39818,51.77259 q -0.471289,0.223242 -0.942579,0.42168 l -0.942578,0.396875 q -0.892968,0.347265 -1.686718,0.694531 l -0.768946,0.272851 q -0.198437,0.07441 -0.297656,0.09922 -0.09922,0.0248 -0.347266,0.0248 -0.818554,0 -1.289843,-0.347266 -0.446485,-0.37207 -0.446485,-0.942578 0,-1.314648 1.860352,-2.133203 1.860351,-0.843359 8.259961,-4.117578 6.399609,-3.299023 11.310937,-6.970117 l 1.438672,-1.091406 q 1.711523,-1.265039 2.827734,-2.678907 1.116211,-1.413867 1.116211,-2.430859 0,-1.364258 -1.389062,-2.058789 -1.389063,-0.694531 -3.075782,-1.116211 -1.661914,-0.42168 -2.902148,-1.240234 -1.240234,-0.818555 -1.240234,-2.306836 0,-0.768945 0.223242,-1.885156 0.248047,-1.116211 0.248047,-2.158008 0,-1.413867 -0.223242,-2.877344 -0.223243,-1.463476 -0.223243,-2.877344 z m 0.421679,0.79375 q 0.04961,1.364258 0.248047,2.778125 0.198438,1.389063 0.198438,2.753321 0,1.066601 -0.248047,2.108398 -0.223242,1.016992 -0.223242,1.785937 0,1.141016 0.942578,1.785938 0.942578,0.620117 2.827734,1.091406 1.909961,0.446485 3.373438,1.389063 1.463476,0.917773 1.463476,2.38125 0,2.902148 -5.804297,7.09414 -5.804296,4.191992 -14.60996,8.582422 l -4.886524,2.38125 q -0.694531,0.347265 -1.141015,0.768945 -0.42168,0.396875 -0.42168,0.669727 0,0.173633 0.173633,0.37207 0.173633,0.173633 0.694531,0.173633 0.719336,0 1.513086,-0.37207 0.79375,-0.396875 3.671094,-1.63711 2.902148,-1.240234 7.639843,-3.720703 4.737696,-2.480469 7.094141,-3.869531 2.356445,-1.389063 4.464844,-3.199805 2.133203,-1.810742 4.043164,-4.266406 1.90996,-2.480469 3.596679,-5.581055 -1.364258,-0.272851 -2.703711,-0.570507 l -2.678906,-0.570508 q -3.199805,-0.669727 -4.886523,-2.480469 -1.686719,-1.810742 -1.686719,-5.55625 0,-1.116211 0.07441,-2.182812 0.07441,-1.066602 0.07441,-2.108399 z M 15.271419,32.7722 h 21.604882 l 0.42168,0.396875 v 2.802929 l -0.42168,0.396875 H 12.071614 l -0.248047,-0.694531 3.199805,-2.80293 z m 0.148828,0.79375 -2.282031,2.009179 H 36.504231 V 33.56595 Z"
         style="stroke-width:0.26458332"
         id="path11986"
         inkscape:connector-curvature="0" />
    </g>
  </g>
</svg>
