<?xml version="1.0" encoding="UTF-8" standalone="no"?>
<!-- Created with Inkscape (http://www.inkscape.org/) -->

<svg
   xmlns:dc="http://purl.org/dc/elements/1.1/"
   xmlns:cc="http://creativecommons.org/ns#"
   xmlns:rdf="http://www.w3.org/1999/02/22-rdf-syntax-ns#"
   xmlns:svg="http://www.w3.org/2000/svg"
   xmlns="http://www.w3.org/2000/svg"
   xmlns:sodipodi="http://sodipodi.sourceforge.net/DTD/sodipodi-0.dtd"
   xmlns:inkscape="http://www.inkscape.org/namespaces/inkscape"
   width="16.395899mm"
   height="31.849218mm"
   viewBox="0 0 16.395899 31.849218"
   version="1.1"
   id="svg10111"
   inkscape:version="0.92.4 (5da689c313, 2019-01-14)"
   sodipodi:docname="U41.svg">
  <defs
     id="defs10105" />
  <sodipodi:namedview
     id="base"
     pagecolor="#ffffff"
     bordercolor="#666666"
     borderopacity="1.0"
     inkscape:pageopacity="0.0"
     inkscape:pageshadow="2"
     inkscape:zoom="0.35"
     inkscape:cx="-366.11607"
     inkscape:cy="-372.78572"
     inkscape:document-units="mm"
     inkscape:current-layer="layer1"
     showgrid="false"
     fit-margin-top="0"
     fit-margin-left="0"
     fit-margin-right="0"
     fit-margin-bottom="0"
     inkscape:window-width="1920"
     inkscape:window-height="1017"
     inkscape:window-x="-8"
     inkscape:window-y="-8"
     inkscape:window-maximized="1" />
  <metadata
     id="metadata10108">
    <rdf:RDF>
      <cc:Work
         rdf:about="">
        <dc:format>image/svg+xml</dc:format>
        <dc:type
           rdf:resource="http://purl.org/dc/dcmitype/StillImage" />
        <dc:title></dc:title>
      </cc:Work>
    </rdf:RDF>
  </metadata>
  <g
     inkscape:label="Layer 1"
     inkscape:groupmode="layer"
     id="layer1"
     transform="translate(-9.5557108,-18.351227)">
    <g
       aria-label="ð“ "
       style="font-style:normal;font-variant:normal;font-weight:normal;font-stretch:normal;font-size:50.79999924px;line-height:1.25;font-family:sans-serif;-inkscape-font-specification:'sans-serif, Normal';font-variant-ligatures:normal;font-variant-caps:normal;font-variant-numeric:normal;font-feature-settings:normal;text-align:start;letter-spacing:0px;word-spacing:0px;writing-mode:lr-tb;text-anchor:start;fill:#000000;fill-opacity:1;stroke:none;stroke-width:0.26458332"
       id="text10658">
      <path
         d="m 22.330125,22.220758 -0.396875,0.520898 h -3.001367 v 6.846094 q 1.90996,0.37207 3.075781,1.835547 1.190625,1.438671 1.53789,4.043164 h 2.406055 v 1.116211 h -2.282031 l 0.04961,0.595312 v 0.620117 l -0.02481,0.868164 h 2.257227 v 1.091407 h -2.306836 q -0.198437,2.728515 -0.917773,6.101953 -0.719336,3.373437 -0.768946,3.943945 l -0.421679,0.396875 h -7.615039 l -0.372071,-0.322461 q -0.04961,-0.520899 -0.79375,-3.993555 -0.719336,-3.472656 -0.892968,-6.126757 H 9.5557108 v -1.091407 h 2.2572262 l -0.0248,-0.868164 0.0248,-0.620117 q 0,-0.297656 0.02481,-0.595312 H 9.5557108 v -1.116211 h 2.4060542 q 0.347266,-2.604493 1.513086,-4.043164 1.190625,-1.438672 3.125391,-1.835547 V 22.741656 H 13.524461 L 13.15239,22.270367 q 0.570508,-2.158008 1.885157,-3.026172 1.314648,-0.892968 2.852539,-0.892968 1.513086,0 2.579687,0.843359 1.066602,0.843359 1.860352,3.026172 z m -1.116211,27.185937 0.496093,-2.257227 q 0.520899,-2.207617 0.868165,-4.638476 0.347265,-2.455664 0.347265,-4.489649 0,-2.554882 -0.520898,-4.092773 -0.496094,-1.537891 -1.289844,-2.38125 -0.768945,-0.868164 -2.604492,-1.240234 l -0.37207,-0.471289 v -7.416602 l 0.37207,-0.471289 h 2.877344 q -0.595313,-1.513086 -1.463477,-2.158008 -0.843359,-0.644921 -2.033984,-0.644921 -1.339453,0 -2.455664,0.793749 -1.116211,0.79375 -1.389063,2.00918 h 2.926953 l 0.42168,0.396875 v 7.56543 l -0.297656,0.396875 q -1.885157,0.347265 -2.629297,1.141015 -0.744141,0.768946 -1.339453,2.331641 -0.570508,1.537891 -0.570508,4.39043 0,2.182812 0.396875,4.812109 0.396875,2.629297 0.892969,4.737695 l 0.396875,1.686719 z"
         style="stroke-width:0.26458332"
         id="path10660"
         inkscape:connector-curvature="0" />
    </g>
  </g>
</svg>
