<?xml version="1.0" encoding="UTF-8" standalone="no"?>
<svg
   xmlns:dc="http://purl.org/dc/elements/1.1/"
   xmlns:cc="http://creativecommons.org/ns#"
   xmlns:rdf="http://www.w3.org/1999/02/22-rdf-syntax-ns#"
   xmlns:svg="http://www.w3.org/2000/svg"
   xmlns="http://www.w3.org/2000/svg"
   xmlns:sodipodi="http://sodipodi.sourceforge.net/DTD/sodipodi-0.dtd"
   xmlns:inkscape="http://www.inkscape.org/namespaces/inkscape"
   version="1.0"
   width="17.200001pt"
   height="53pt"
   viewBox="0 0 17.200001 53"
   preserveAspectRatio="xMidYMid meet"
   id="svg8"
   sodipodi:docname="U42.svg"
   inkscape:version="0.92.4 (5da689c313, 2019-01-14)">
  <defs
     id="defs12" />
  <sodipodi:namedview
     pagecolor="#ffffff"
     bordercolor="#666666"
     borderopacity="1"
     objecttolerance="10"
     gridtolerance="10"
     guidetolerance="10"
     inkscape:pageopacity="0"
     inkscape:pageshadow="2"
     inkscape:window-width="876"
     inkscape:window-height="480"
     id="namedview10"
     showgrid="false"
     fit-margin-top="0"
     fit-margin-left="0"
     fit-margin-right="0"
     fit-margin-bottom="0"
     inkscape:zoom="2.9016393"
     inkscape:cx="-35.702825"
     inkscape:cy="36.666668"
     inkscape:window-x="0"
     inkscape:window-y="0"
     inkscape:window-maximized="0"
     inkscape:current-layer="svg8" />
  <metadata
     id="metadata2">
Created by potrace 1.10, written by Peter Selinger 2001-2011
<rdf:RDF>
  <cc:Work
     rdf:about="">
    <dc:format>image/svg+xml</dc:format>
    <dc:type
       rdf:resource="http://purl.org/dc/dcmitype/StillImage" />
    <dc:title></dc:title>
  </cc:Work>
</rdf:RDF>
</metadata>
  <g
     transform="matrix(0.05,0,0,-0.05,-5.9,56)"
     id="g6"
     style="fill:#000000;stroke:none">
    <path
       d="m 152,1075 c -5,-25 -15,-158 -22,-297 l -12,-252 71,-85 c 67,-80 71,-93 71,-233 0,-118 6,-148 30,-148 24,0 30,30 30,147 0,137 4,152 71,237 l 71,91 -16,286 c -12,217 -23,288 -44,295 -24,8 -26,-37 -14,-289 l 14,-298 -59,-56 -59,-56 -53,70 -53,69 14,282 c 10,205 8,282 -9,282 -12,0 -26,-20 -31,-45 z"
       id="path4"
       inkscape:connector-curvature="0" />
  </g>
</svg>
