<?xml version="1.0" encoding="UTF-8" standalone="no"?>
<!-- Created with Inkscape (http://www.inkscape.org/) -->

<svg
   xmlns:dc="http://purl.org/dc/elements/1.1/"
   xmlns:cc="http://creativecommons.org/ns#"
   xmlns:rdf="http://www.w3.org/1999/02/22-rdf-syntax-ns#"
   xmlns:svg="http://www.w3.org/2000/svg"
   xmlns="http://www.w3.org/2000/svg"
   xmlns:sodipodi="http://sodipodi.sourceforge.net/DTD/sodipodi-0.dtd"
   xmlns:inkscape="http://www.inkscape.org/namespaces/inkscape"
   width="37.851952mm"
   height="25.598436mm"
   viewBox="0 0 37.851952 25.598436"
   version="1.1"
   id="svg11995"
   inkscape:version="0.92.4 (5da689c313, 2019-01-14)"
   sodipodi:docname="U5.svg">
  <defs
     id="defs11989" />
  <sodipodi:namedview
     id="base"
     pagecolor="#ffffff"
     bordercolor="#666666"
     borderopacity="1.0"
     inkscape:pageopacity="0.0"
     inkscape:pageshadow="2"
     inkscape:zoom="0.35"
     inkscape:cx="-348.97321"
     inkscape:cy="-367.07143"
     inkscape:document-units="mm"
     inkscape:current-layer="layer1"
     showgrid="false"
     fit-margin-top="0"
     fit-margin-left="0"
     fit-margin-right="0"
     fit-margin-bottom="0"
     inkscape:window-width="1920"
     inkscape:window-height="1017"
     inkscape:window-x="-8"
     inkscape:window-y="-8"
     inkscape:window-maximized="1" />
  <metadata
     id="metadata11992">
    <rdf:RDF>
      <cc:Work
         rdf:about="">
        <dc:format>image/svg+xml</dc:format>
        <dc:type
           rdf:resource="http://purl.org/dc/dcmitype/StillImage" />
        <dc:title></dc:title>
      </cc:Work>
    </rdf:RDF>
  </metadata>
  <g
     inkscape:label="Layer 1"
     inkscape:groupmode="layer"
     id="layer1"
     transform="translate(-5.0199961,-26.113913)">
    <g
       aria-label="𓌷"
       style="font-style:normal;font-variant:normal;font-weight:normal;font-stretch:normal;font-size:50.79999924px;line-height:1.25;font-family:sans-serif;-inkscape-font-specification:'sans-serif, Normal';font-variant-ligatures:normal;font-variant-caps:normal;font-variant-numeric:normal;font-feature-settings:normal;text-align:start;letter-spacing:0px;word-spacing:0px;writing-mode:lr-tb;text-anchor:start;fill:#000000;fill-opacity:1;stroke:none;stroke-width:0.26458332"
       id="text12542">
      <path
         d="m 28.06355,26.113913 h 3.59668 l 0.396875,0.520899 q -0.173633,0.595312 -0.297656,1.413867 -0.124024,0.79375 -0.173633,1.513086 v 0.347265 q 0,2.43086 2.158008,3.720704 2.158008,1.289843 6.598047,1.562695 l 2.133203,0.124023 0.396875,0.520899 q -1.612305,3.249414 -3.125391,4.886523 -1.488281,1.612305 -3.224609,2.926953 -1.736328,1.289844 -4.539258,2.678906 -2.778125,1.364258 -6.275586,2.38125 -3.497461,0.992188 -7.962304,1.736328 -4.440039,0.719336 -12.476758,1.265039 L 5.0199961,51.017819 7.8229258,48.611765 8.914332,48.438132 q 0.5705078,-0.07441 1.141016,-0.124024 l 5.357812,-0.644922 q 9.202539,-1.091406 13.989844,-3.348632 4.787304,-2.282032 4.787304,-5.084961 0,-1.289844 -1.339453,-2.232422 -1.339453,-0.942578 -4.787305,-1.686719 l -0.37207,-0.471289 v -8.259961 z m 2.728516,3.373438 q 0.07441,-1.314649 0.37207,-2.579688 H 28.48523 v 7.689453 q 3.447852,0.694532 4.936133,1.810743 1.513086,1.11621 1.513086,2.728515 v 0.07441 q 0,0.694531 -0.297656,1.562695 -0.297657,0.868164 -0.79375,1.389063 l -0.79375,0.818555 q -1.066602,1.066601 -3.894336,2.282031 -2.80293,1.215429 -7.019727,2.158008 -4.216797,0.917773 -13.8658198,1.860351 L 6.458668,50.844186 9.5840586,50.59614 Q 23.226636,49.504733 30.91609,45.982468 q 7.714257,-3.522266 10.963671,-9.89707 -6.325195,-0.297657 -8.706445,-1.909961 -2.38125,-1.612305 -2.38125,-4.316016 z M 8.4678477,38.491452 H 30.07273 l 0.42168,0.396875 v 2.827735 l -0.42168,0.396875 H 5.268043 L 5.0199961,41.418405 8.2198008,38.590671 Z m 0.1736328,0.79375 -2.3068359,2.033985 H 29.70066 v -2.033985 z"
         style="stroke-width:0.26458332"
         id="path12544"
         inkscape:connector-curvature="0" />
    </g>
  </g>
</svg>
