<?xml version="1.0" encoding="UTF-8" standalone="no"?>
<!-- Created with Inkscape (http://www.inkscape.org/) -->

<svg
   xmlns:dc="http://purl.org/dc/elements/1.1/"
   xmlns:cc="http://creativecommons.org/ns#"
   xmlns:rdf="http://www.w3.org/1999/02/22-rdf-syntax-ns#"
   xmlns:svg="http://www.w3.org/2000/svg"
   xmlns="http://www.w3.org/2000/svg"
   xmlns:sodipodi="http://sodipodi.sourceforge.net/DTD/sodipodi-0.dtd"
   xmlns:inkscape="http://www.inkscape.org/namespaces/inkscape"
   width="21.629686mm"
   height="34.329685mm"
   viewBox="0 0 21.629686 34.329685"
   version="1.1"
   id="svg9597"
   inkscape:version="0.92.4 (5da689c313, 2019-01-14)"
   sodipodi:docname="U6.svg">
  <defs
     id="defs9591" />
  <sodipodi:namedview
     id="base"
     pagecolor="#ffffff"
     bordercolor="#666666"
     borderopacity="1.0"
     inkscape:pageopacity="0.0"
     inkscape:pageshadow="2"
     inkscape:zoom="0.35"
     inkscape:cx="-328.97266"
     inkscape:cy="-341.97532"
     inkscape:document-units="mm"
     inkscape:current-layer="layer1"
     showgrid="false"
     fit-margin-top="0"
     fit-margin-left="0"
     fit-margin-right="0"
     fit-margin-bottom="0"
     inkscape:window-width="1920"
     inkscape:window-height="1017"
     inkscape:window-x="-8"
     inkscape:window-y="-8"
     inkscape:window-maximized="1" />
  <metadata
     id="metadata9594">
    <rdf:RDF>
      <cc:Work
         rdf:about="">
        <dc:format>image/svg+xml</dc:format>
        <dc:type
           rdf:resource="http://purl.org/dc/dcmitype/StillImage" />
        <dc:title></dc:title>
      </cc:Work>
    </rdf:RDF>
  </metadata>
  <g
     inkscape:label="Layer 1"
     inkscape:groupmode="layer"
     id="layer1"
     transform="translate(0.27181802,-24.022678)">
    <g
       aria-label="𓌸"
       transform="scale(0.26458333)"
       style="font-style:normal;font-variant:normal;font-weight:normal;font-stretch:normal;font-size:192px;line-height:1.25;font-family:sans-serif;-inkscape-font-specification:sans-serif;font-variant-ligatures:normal;font-variant-caps:normal;font-variant-numeric:normal;font-feature-settings:normal;text-align:start;letter-spacing:0px;word-spacing:0px;writing-mode:lr-tb;text-anchor:start;fill:#000000;fill-opacity:1;stroke:none"
       id="flowRoot10142">
      <path
         d="m -1.0273437,90.794374 6.0937499,4.96875 0.375,-4.03125 4.0312501,3.09375 -0.28125,4.125 35.9999997,28.593746 2.15625,-2.53125 3.5625,2.8125 -2.0625,2.71875 31.59375,25.21875 0.28125,6.28125 -34.875,-27.75 -19.78125,24.84375 q 10.59375,15.84375 22.59375,30.9375 12.09375,15.09375 25.59375,30.46875 h -5.8125 q -13.96875,-15.65625 -25.40625,-30.09375 -11.4375,-14.53125 -19.96875,-27.5625 l -2.53125,3.375 -2.0625,-5.15625 2.25,-2.625 -1.03125,-2.0625 q -7.3125,-13.96875 -10.8749997,-27.84375 -3.5625001,-13.96875 -4.4062501,-27.375 l -4.87499995,-3.656246 z m 10.03125,14.249996 q 0.75,6.09375 1.8749997,12.28125 1.21875,6.1875 2.8125,12.28125 1.59375,6.09375 3.75,11.8125 2.25,5.71875 5.0625,10.78125 l 1.3125,2.34375 18.46875,-23.25 z"
         id="path10150"
         inkscape:connector-curvature="0" />
    </g>
  </g>
</svg>
