<?xml version="1.0" encoding="UTF-8" standalone="no"?>
<!-- Created with Inkscape (http://www.inkscape.org/) -->

<svg
   xmlns:dc="http://purl.org/dc/elements/1.1/"
   xmlns:cc="http://creativecommons.org/ns#"
   xmlns:rdf="http://www.w3.org/1999/02/22-rdf-syntax-ns#"
   xmlns:svg="http://www.w3.org/2000/svg"
   xmlns="http://www.w3.org/2000/svg"
   xmlns:sodipodi="http://sodipodi.sourceforge.net/DTD/sodipodi-0.dtd"
   xmlns:inkscape="http://www.inkscape.org/namespaces/inkscape"
   width="15.354101mm"
   height="39.613087mm"
   viewBox="0 0 15.354101 39.613087"
   version="1.1"
   id="svg10721"
   inkscape:version="0.92.4 (5da689c313, 2019-01-14)"
   sodipodi:docname="U6B.svg">
  <defs
     id="defs10715" />
  <sodipodi:namedview
     id="base"
     pagecolor="#ffffff"
     bordercolor="#666666"
     borderopacity="1.0"
     inkscape:pageopacity="0.0"
     inkscape:pageshadow="2"
     inkscape:zoom="0.35"
     inkscape:cx="-114.6875"
     inkscape:cy="-265.06516"
     inkscape:document-units="mm"
     inkscape:current-layer="layer1"
     showgrid="false"
     fit-margin-top="0"
     fit-margin-left="0"
     fit-margin-right="0"
     fit-margin-bottom="0"
     inkscape:window-width="1920"
     inkscape:window-height="1017"
     inkscape:window-x="-8"
     inkscape:window-y="-8"
     inkscape:window-maximized="1" />
  <metadata
     id="metadata10718">
    <rdf:RDF>
      <cc:Work
         rdf:about="">
        <dc:format>image/svg+xml</dc:format>
        <dc:type
           rdf:resource="http://purl.org/dc/dcmitype/StillImage" />
        <dc:title></dc:title>
      </cc:Work>
    </rdf:RDF>
  </metadata>
  <g
     inkscape:label="Layer 1"
     inkscape:groupmode="layer"
     id="layer1"
     transform="translate(56.968098,-39.088425)">
    <g
       aria-label="𓌺"
       transform="scale(0.26458333)"
       style="font-style:normal;font-variant:normal;font-weight:normal;font-stretch:normal;font-size:192px;line-height:1.25;font-family:sans-serif;-inkscape-font-specification:sans-serif;font-variant-ligatures:normal;font-variant-caps:normal;font-variant-numeric:normal;font-feature-settings:normal;text-align:start;letter-spacing:0px;word-spacing:0px;writing-mode:lr-tb;text-anchor:start;fill:#000000;fill-opacity:1;stroke:none"
       id="flowRoot11266">
      <path
         d="m -170.40625,154.01703 -2.625,5.53125 q 5.4375,12.1875 8.625,26.15625 3.28125,13.96875 3.28125,29.71875 v 2.34375 l 3.1875,1.3125 0.65625,5.53125 -3.84375,-1.78125 q -1.59375,15.46875 -5.0625,33.5625 -3.46875,18.09375 -8.625,38.4375 l -5.25,2.625 q 4.96875,-19.78125 8.625,-38.71875 3.75,-18.9375 5.90625,-37.875 l -29.0625,-12.9375 -18.1875,40.6875 -2.53125,-5.71875 16.40625,-36.9375 -3.09375,-1.40625 1.875,-4.21875 3.09375,1.3125 18.75,-41.90625 -2.15625,-3.65625 2.15625,-4.59375 2.15625,3.375 3.1875,-7.125 z m -22.3125,49.59375 27.09375,12.09375 v -2.625 q 0,-12.46875 -2.71875,-24.5625 -2.71875,-12.09375 -6.9375,-23.53125 z"
         id="path11274"
         inkscape:connector-curvature="0" />
    </g>
  </g>
</svg>
