<?xml version="1.0" encoding="UTF-8" standalone="no"?>
<!-- Created with Inkscape (http://www.inkscape.org/) -->

<svg
   xmlns:dc="http://purl.org/dc/elements/1.1/"
   xmlns:cc="http://creativecommons.org/ns#"
   xmlns:rdf="http://www.w3.org/1999/02/22-rdf-syntax-ns#"
   xmlns:svg="http://www.w3.org/2000/svg"
   xmlns="http://www.w3.org/2000/svg"
   xmlns:sodipodi="http://sodipodi.sourceforge.net/DTD/sodipodi-0.dtd"
   xmlns:inkscape="http://www.inkscape.org/namespaces/inkscape"
   width="37.529491mm"
   height="19.025194mm"
   viewBox="0 0 37.529491 19.025194"
   version="1.1"
   id="svg13111"
   inkscape:version="0.92.4 (5da689c313, 2019-01-14)"
   sodipodi:docname="U9.svg">
  <defs
     id="defs13105" />
  <sodipodi:namedview
     id="base"
     pagecolor="#ffffff"
     bordercolor="#666666"
     borderopacity="1.0"
     inkscape:pageopacity="0.0"
     inkscape:pageshadow="2"
     inkscape:zoom="0.35"
     inkscape:cx="-371.83036"
     inkscape:cy="-380.00001"
     inkscape:document-units="mm"
     inkscape:current-layer="layer1"
     showgrid="false"
     fit-margin-top="0"
     fit-margin-left="0"
     fit-margin-right="0"
     fit-margin-bottom="0"
     inkscape:window-width="1920"
     inkscape:window-height="1017"
     inkscape:window-x="-8"
     inkscape:window-y="-8"
     inkscape:window-maximized="1" />
  <metadata
     id="metadata13108">
    <rdf:RDF>
      <cc:Work
         rdf:about="">
        <dc:format>image/svg+xml</dc:format>
        <dc:type
           rdf:resource="http://purl.org/dc/dcmitype/StillImage" />
        <dc:title></dc:title>
      </cc:Work>
    </rdf:RDF>
  </metadata>
  <g
     inkscape:label="Layer 1"
     inkscape:groupmode="layer"
     id="layer1"
     transform="translate(-11.067615,-29.266469)">
    <g
       aria-label="𓌽"
       style="font-style:normal;font-variant:normal;font-weight:normal;font-stretch:normal;font-size:50.79999924px;line-height:1.25;font-family:sans-serif;-inkscape-font-specification:'sans-serif, Normal';font-variant-ligatures:normal;font-variant-caps:normal;font-variant-numeric:normal;font-feature-settings:normal;text-align:start;letter-spacing:0px;word-spacing:0px;writing-mode:lr-tb;text-anchor:start;fill:#000000;fill-opacity:1;stroke:none;stroke-width:0.26458332"
       id="text13658">
      <path
         d="m 48.324256,31.672524 q 0.272851,2.877343 0.272851,5.853906 0,3.12539 -0.272851,6.126758 l -0.148829,0.173632 q -0.07441,0.09922 -0.148828,0.223243 -6.126757,1.339453 -8.359179,1.661914 -2.207617,0.297656 -2.43086,0.347265 -0.198437,0.02481 -2.802929,-0.347265 -2.579688,-0.396875 -8.135938,-1.661914 l -0.37207,-0.322461 q -0.248047,-3.100586 -0.272851,-6.201172 0,-2.951758 0.272851,-5.92832 0.148828,-0.198438 0.248047,-0.297657 3.249414,-1.041796 6.895703,-1.53789 3.646289,-0.496094 4.043164,-0.496094 0.396875,0 4.067969,0.496094 3.695898,0.496094 6.846093,1.53789 z M 37.509412,45.215883 q 2.554883,-0.347266 5.035351,-0.818555 2.480469,-0.496093 5.010547,-1.066601 0.223242,-2.852539 0.248047,-5.804297 0,-2.827734 -0.248047,-5.55625 -2.455664,-0.768945 -4.985742,-1.16582 -2.505273,-0.42168 -5.060156,-0.694532 z M 26.694568,43.330727 q 2.480469,0.570508 4.960938,1.066601 2.505273,0.496094 5.060156,0.84336 v -15.13086 q -2.530078,0.272852 -5.060156,0.669727 -2.530078,0.396875 -4.960938,1.190625 -0.248046,2.728516 -0.248046,5.55625 0,2.926953 0.248046,5.804297 z M 11.46449,45.488734 q 1.810743,0.595313 2.406055,2.406055 l -0.396875,0.396875 q -1.463476,-0.942578 -2.406055,-2.406055 z m 6.201172,-7.565429 q 1.016992,0.322461 2.406055,2.38125 l -0.79375,0.396875 -0.744141,-0.694531 -0.421679,-0.372071 q -0.620118,-0.595312 -0.84336,-1.314648 z m -3.299023,3.522265 q 0.992187,0.347266 2.38125,2.38125 l -0.79375,0.42168 q -0.297656,-0.297656 -1.041797,-0.967383 -0.719336,-0.669726 -0.942578,-1.438672 z m 7.639844,-5.581054 q 1.438671,1.016992 2.381249,2.406055 l -0.396875,0.396875 q -1.785937,-0.595313 -2.381249,-2.38125 z"
         style="stroke-width:0.26458332"
         id="path13660"
         inkscape:connector-curvature="0" />
    </g>
  </g>
</svg>
