<?xml version="1.0" encoding="UTF-8" standalone="no"?>
<!-- Created with Inkscape (http://www.inkscape.org/) -->

<svg
   xmlns:dc="http://purl.org/dc/elements/1.1/"
   xmlns:cc="http://creativecommons.org/ns#"
   xmlns:rdf="http://www.w3.org/1999/02/22-rdf-syntax-ns#"
   xmlns:svg="http://www.w3.org/2000/svg"
   xmlns="http://www.w3.org/2000/svg"
   xmlns:sodipodi="http://sodipodi.sourceforge.net/DTD/sodipodi-0.dtd"
   xmlns:inkscape="http://www.inkscape.org/namespaces/inkscape"
   width="36.562107mm"
   height="18.628321mm"
   viewBox="0 0 36.562107 18.628321"
   version="1.1"
   id="svg26457"
   inkscape:version="0.92.4 (5da689c313, 2019-01-14)"
   sodipodi:docname="V10.svg">
  <defs
     id="defs26451" />
  <sodipodi:namedview
     id="base"
     pagecolor="#ffffff"
     bordercolor="#666666"
     borderopacity="1.0"
     inkscape:pageopacity="0.0"
     inkscape:pageshadow="2"
     inkscape:zoom="0.35"
     inkscape:cx="491.02733"
     inkscape:cy="-253.40305"
     inkscape:document-units="mm"
     inkscape:current-layer="layer1"
     showgrid="false"
     fit-margin-top="0"
     fit-margin-left="0"
     fit-margin-right="0"
     fit-margin-bottom="0"
     inkscape:window-width="1920"
     inkscape:window-height="1017"
     inkscape:window-x="-8"
     inkscape:window-y="-8"
     inkscape:window-maximized="1" />
  <metadata
     id="metadata26454">
    <rdf:RDF>
      <cc:Work
         rdf:about="">
        <dc:format>image/svg+xml</dc:format>
        <dc:type
           rdf:resource="http://purl.org/dc/dcmitype/StillImage" />
        <dc:title></dc:title>
      </cc:Work>
    </rdf:RDF>
  </metadata>
  <g
     inkscape:label="Layer 1"
     inkscape:groupmode="layer"
     id="layer1"
     transform="translate(217.23015,-63.15879)">
    <g
       aria-label="ð“·"
       transform="scale(0.26458333)"
       style="font-style:normal;font-variant:normal;font-weight:normal;font-stretch:normal;font-size:192px;line-height:1.25;font-family:sans-serif;-inkscape-font-specification:sans-serif;font-variant-ligatures:normal;font-variant-caps:normal;font-variant-numeric:normal;font-feature-settings:normal;text-align:start;letter-spacing:0px;word-spacing:0px;writing-mode:lr-tb;text-anchor:start;fill:#000000;fill-opacity:1;stroke:none"
       id="flowRoot27002">
      <path
         d="m -687.52734,238.71039 h 4.6875 v 70.40625 h -4.6875 v -19.3125 q -2.25,4.40625 -5.90625,7.96875 -3.5625,3.5625 -8.0625,6.09375 -4.5,2.53125 -9.46875,3.9375 -4.96875,1.3125 -9.84375,1.3125 h -63.28125 q -7.5,0 -14.25,-2.15625 -6.65625,-2.25 -11.71875,-6.375 -4.96875,-4.21875 -7.96875,-10.21875 -2.90625,-6.09375 -3,-13.875 v -1.125 q 0,-8.25 2.625,-15 2.71875,-6.84375 7.5,-11.625 4.875,-4.78125 11.625,-7.40625 6.84375,-2.625 15.1875,-2.625 h 63.375 q 5.15625,0 10.125,1.5 5.0625,1.40625 9.46875,4.125 4.40625,2.625 7.875,6.46875 3.5625,3.75 5.71875,8.53125 z m -32.90625,65.71875 q 5.34375,0 10.96875,-2.15625 5.625,-2.15625 10.21875,-5.90625 4.59375,-3.84375 7.5,-8.90625 3,-5.0625 3,-10.875 0,-6.84375 -2.4375,-12.84375 -2.34375,-6.09375 -6.5625,-10.59375 -4.21875,-4.5 -10.03125,-7.125 -5.8125,-2.625 -12.75,-2.625 h -63.84375 q -7.3125,0 -13.3125,2.4375 -5.90625,2.4375 -10.03125,6.84375 -4.125,4.3125 -6.375,10.40625 -2.25,6.09375 -2.25,13.40625 0,6.46875 2.625,11.625 2.71875,5.15625 7.125,8.8125 4.5,3.5625 10.21875,5.53125 5.8125,1.96875 12,1.96875 z"
         id="path27010"
         inkscape:connector-curvature="0" />
    </g>
  </g>
</svg>
