<?xml version="1.0" encoding="UTF-8" standalone="no"?>
<!-- Created with Inkscape (http://www.inkscape.org/) -->

<svg
   xmlns:dc="http://purl.org/dc/elements/1.1/"
   xmlns:cc="http://creativecommons.org/ns#"
   xmlns:rdf="http://www.w3.org/1999/02/22-rdf-syntax-ns#"
   xmlns:svg="http://www.w3.org/2000/svg"
   xmlns="http://www.w3.org/2000/svg"
   xmlns:sodipodi="http://sodipodi.sourceforge.net/DTD/sodipodi-0.dtd"
   xmlns:inkscape="http://www.inkscape.org/namespaces/inkscape"
   width="18.628307mm"
   height="34.032032mm"
   viewBox="0 0 18.628307 34.032032"
   version="1.1"
   id="svg27019"
   inkscape:version="0.92.4 (5da689c313, 2019-01-14)"
   sodipodi:docname="V11A.svg">
  <defs
     id="defs27013" />
  <sodipodi:namedview
     id="base"
     pagecolor="#ffffff"
     bordercolor="#666666"
     borderopacity="1.0"
     inkscape:pageopacity="0.0"
     inkscape:pageshadow="2"
     inkscape:zoom="0.35"
     inkscape:cx="1105.3125"
     inkscape:cy="-121.97532"
     inkscape:document-units="mm"
     inkscape:current-layer="layer1"
     showgrid="false"
     fit-margin-top="0"
     fit-margin-left="0"
     fit-margin-right="0"
     fit-margin-bottom="0"
     inkscape:window-width="1920"
     inkscape:window-height="1017"
     inkscape:window-x="-8"
     inkscape:window-y="-8"
     inkscape:window-maximized="1" />
  <metadata
     id="metadata27016">
    <rdf:RDF>
      <cc:Work
         rdf:about="">
        <dc:format>image/svg+xml</dc:format>
        <dc:type
           rdf:resource="http://purl.org/dc/dcmitype/StillImage" />
        <dc:title></dc:title>
      </cc:Work>
    </rdf:RDF>
  </metadata>
  <g
     inkscape:label="Layer 1"
     inkscape:groupmode="layer"
     id="layer1"
     transform="translate(379.75976,-82.528666)">
    <g
       aria-label="ð“¹"
       transform="scale(0.26458333)"
       style="font-style:normal;font-variant:normal;font-weight:normal;font-stretch:normal;font-size:192px;line-height:1.25;font-family:sans-serif;-inkscape-font-specification:sans-serif;font-variant-ligatures:normal;font-variant-caps:normal;font-variant-numeric:normal;font-feature-settings:normal;text-align:start;letter-spacing:0px;word-spacing:0px;writing-mode:lr-tb;text-anchor:start;fill:#000000;fill-opacity:1;stroke:none"
       id="flowRoot27564">
      <path
         d="m -1364.9063,317.91937 h -24.6562 q -6.75,0 -12.2813,2.625 -5.4375,2.53125 -9.75,7.03125 -4.2187,4.40625 -7.3125,10.21875 -3,5.8125 -5.0625,12.375 -1.9687,6.46875 -2.9062,13.21875 -0.9375,6.65625 -0.9375,12.84375 0,6.1875 0.9375,12.9375 0.9375,6.65625 2.9062,13.21875 2.0625,6.46875 5.0625,12.28125 3.0938,5.8125 7.3125,10.3125 4.3125,4.40625 9.75,7.03125 5.5313,2.53125 12.2813,2.53125 h 24.6562 v 6 h -23.8125 q -8.25,0 -14.9062,-2.625 -6.5625,-2.71875 -11.8125,-7.3125 -5.1563,-4.6875 -8.9063,-10.875 -3.75,-6.28125 -6.1875,-13.40625 -2.4375,-7.21875 -3.6562,-15 -1.125,-7.78125 -1.125,-15.375 0,-7.59375 1.125,-15.28125 1.2187,-7.78125 3.6562,-14.90625 2.4375,-7.125 6.1875,-13.3125 3.8438,-6.1875 9,-10.6875 5.1563,-4.59375 11.8125,-7.21875 6.6563,-2.625 14.8125,-2.625 h 23.8125 z"
         id="path27572"
         inkscape:connector-curvature="0" />
    </g>
  </g>
</svg>
