<?xml version="1.0" encoding="UTF-8" standalone="no"?>
<!-- Created with Inkscape (http://www.inkscape.org/) -->

<svg
   xmlns:dc="http://purl.org/dc/elements/1.1/"
   xmlns:cc="http://creativecommons.org/ns#"
   xmlns:rdf="http://www.w3.org/1999/02/22-rdf-syntax-ns#"
   xmlns:svg="http://www.w3.org/2000/svg"
   xmlns="http://www.w3.org/2000/svg"
   xmlns:sodipodi="http://sodipodi.sourceforge.net/DTD/sodipodi-0.dtd"
   xmlns:inkscape="http://www.inkscape.org/namespaces/inkscape"
   width="18.628321mm"
   height="34.032032mm"
   viewBox="0 0 18.628321 34.032032"
   version="1.1"
   id="svg27581"
   inkscape:version="0.92.4 (5da689c313, 2019-01-14)"
   sodipodi:docname="V11B.svg">
  <defs
     id="defs27575" />
  <sodipodi:namedview
     id="base"
     pagecolor="#ffffff"
     bordercolor="#666666"
     borderopacity="1.0"
     inkscape:pageopacity="0.0"
     inkscape:pageshadow="2"
     inkscape:zoom="0.35"
     inkscape:cx="319.59765"
     inkscape:cy="-119.11789"
     inkscape:document-units="mm"
     inkscape:current-layer="layer1"
     showgrid="false"
     fit-margin-top="0"
     fit-margin-left="0"
     fit-margin-right="0"
     fit-margin-bottom="0"
     inkscape:window-width="1920"
     inkscape:window-height="1017"
     inkscape:window-x="-8"
     inkscape:window-y="-8"
     inkscape:window-maximized="1" />
  <metadata
     id="metadata27578">
    <rdf:RDF>
      <cc:Work
         rdf:about="">
        <dc:format>image/svg+xml</dc:format>
        <dc:type
           rdf:resource="http://purl.org/dc/dcmitype/StillImage" />
        <dc:title></dc:title>
      </cc:Work>
    </rdf:RDF>
  </metadata>
  <g
     inkscape:label="Layer 1"
     inkscape:groupmode="layer"
     id="layer1"
     transform="translate(171.87271,-83.284694)">
    <g
       aria-label="ð“º"
       transform="scale(0.26458333)"
       style="font-style:normal;font-variant:normal;font-weight:normal;font-stretch:normal;font-size:192px;line-height:1.25;font-family:sans-serif;-inkscape-font-specification:sans-serif;font-variant-ligatures:normal;font-variant-caps:normal;font-variant-numeric:normal;font-feature-settings:normal;text-align:start;letter-spacing:0px;word-spacing:0px;writing-mode:lr-tb;text-anchor:start;fill:#000000;fill-opacity:1;stroke:none"
       id="flowRoot28126">
      <path
         d="m -579.19141,443.4018 h -6.65625 v -29.90625 q -2.25,5.8125 -5.625,11.25 -3.28125,5.4375 -7.78125,9.5625 -4.40625,4.125 -10.125,6.65625 -5.625,2.4375 -12.65625,2.4375 h -27.5625 v -6 h 26.53125 q 6.75,0 12,-2.4375 5.34375,-2.53125 9.375,-6.75 4.125,-4.3125 6.9375,-9.9375 2.8125,-5.71875 4.59375,-12.1875 1.875,-6.5625 2.625,-13.40625 0.84375,-6.9375 0.84375,-13.59375 0,-6.65625 -0.84375,-13.5 -0.75,-6.9375 -2.625,-13.40625 -1.78125,-6.5625 -4.59375,-12.1875 -2.8125,-5.71875 -6.9375,-9.9375 -4.03125,-4.3125 -9.375,-6.75 -5.25,-2.53125 -12,-2.53125 h -26.53125 v -6 h 27.5625 q 7.03125,0 12.75,2.53125 5.71875,2.4375 10.21875,6.5625 4.5,4.03125 7.78125,9.46875 3.28125,5.34375 5.4375,11.0625 v -29.625 h 6.65625 z"
         id="path28134"
         inkscape:connector-curvature="0" />
    </g>
  </g>
</svg>
