<?xml version="1.0" encoding="UTF-8" standalone="no"?>
<!-- Created with Inkscape (http://www.inkscape.org/) -->

<svg
   xmlns:dc="http://purl.org/dc/elements/1.1/"
   xmlns:cc="http://creativecommons.org/ns#"
   xmlns:rdf="http://www.w3.org/1999/02/22-rdf-syntax-ns#"
   xmlns:svg="http://www.w3.org/2000/svg"
   xmlns="http://www.w3.org/2000/svg"
   xmlns:sodipodi="http://sodipodi.sourceforge.net/DTD/sodipodi-0.dtd"
   xmlns:inkscape="http://www.inkscape.org/namespaces/inkscape"
   width="36.710938mm"
   height="21.530468mm"
   viewBox="0 0 36.710938 21.530468"
   version="1.1"
   id="svg28705"
   inkscape:version="0.92.4 (5da689c313, 2019-01-14)"
   sodipodi:docname="V12.svg">
  <defs
     id="defs28699" />
  <sodipodi:namedview
     id="base"
     pagecolor="#ffffff"
     bordercolor="#666666"
     borderopacity="1.0"
     inkscape:pageopacity="0.0"
     inkscape:pageshadow="2"
     inkscape:zoom="0.35"
     inkscape:cx="311.02733"
     inkscape:cy="-313.40305"
     inkscape:document-units="mm"
     inkscape:current-layer="layer1"
     showgrid="false"
     fit-margin-top="0"
     fit-margin-left="0"
     fit-margin-right="0"
     fit-margin-bottom="0"
     inkscape:window-width="1920"
     inkscape:window-height="1017"
     inkscape:window-x="-8"
     inkscape:window-y="-8"
     inkscape:window-maximized="1" />
  <metadata
     id="metadata28702">
    <rdf:RDF>
      <cc:Work
         rdf:about="">
        <dc:format>image/svg+xml</dc:format>
        <dc:type
           rdf:resource="http://purl.org/dc/dcmitype/StillImage" />
        <dc:title></dc:title>
      </cc:Work>
    </rdf:RDF>
  </metadata>
  <g
     inkscape:label="Layer 1"
     inkscape:groupmode="layer"
     id="layer1"
     transform="translate(169.60515,-44.381642)">
    <g
       aria-label="ð“¼"
       transform="scale(0.26458333)"
       style="font-style:normal;font-variant:normal;font-weight:normal;font-stretch:normal;font-size:192px;line-height:1.25;font-family:sans-serif;-inkscape-font-specification:sans-serif;font-variant-ligatures:normal;font-variant-caps:normal;font-variant-numeric:normal;font-feature-settings:normal;text-align:start;letter-spacing:0px;word-spacing:0px;writing-mode:lr-tb;text-anchor:start;fill:#000000;fill-opacity:1;stroke:none"
       id="flowRoot29250">
      <path
         d="m -617.21484,167.74164 q 5.25,0 11.53125,1.40625 6.28125,1.40625 12.65625,3.65625 6.375,2.25 12.28125,5.0625 6,2.8125 10.6875,5.53125 6.375,-2.0625 12.28125,-3 5.90625,-1.03125 12.46875,-1.03125 7.96875,0 15,3.375 7.03125,3.28125 12.65625,8.90625 5.625,5.625 9.5625,12.9375 4.03125,7.21875 5.8125,15.09375 l -4.78125,2.4375 q -3.9375,-16.40625 -14.34375,-26.90625 -10.40625,-10.59375 -24.09375,-10.59375 -2.25,0 -4.78125,0.28125 -2.4375,0.1875 -5.0625,0.5625 -2.625,0.375 -5.15625,0.9375 -2.53125,0.46875 -4.78125,1.03125 6.9375,4.78125 13.125,10.96875 6.28125,6.1875 11.53125,13.875 5.34375,7.59375 9.5625,16.875 4.21875,9.1875 7.125,19.96875 h -4.875 q -6.5625,-20.625 -17.25,-35.625 -10.59375,-15 -25.125,-24.28125 -18.09375,6.09375 -31.03125,9.375 -12.9375,3.1875 -19.5,3.1875 -3.65625,0 -7.125,-1.21875 -3.46875,-1.3125 -6.1875,-3.5625 -2.71875,-2.34375 -4.40625,-5.53125 -1.59375,-3.1875 -1.59375,-7.03125 0,-16.6875 23.8125,-16.6875 z m 41.0625,17.90625 q -5.0625,-2.53125 -10.6875,-4.875 -5.53125,-2.4375 -11.15625,-4.21875 -5.625,-1.875 -10.96875,-3 -5.34375,-1.125 -9.84375,-1.125 -3.09375,0 -6.28125,0.84375 -3.09375,0.75 -5.625,2.34375 -2.4375,1.5 -4.03125,3.75 -1.59375,2.15625 -1.59375,4.96875 0,2.4375 1.125,4.78125 1.21875,2.25 3.1875,4.03125 2.0625,1.78125 4.6875,2.90625 2.71875,1.03125 5.71875,1.03125 7.3125,0 18.75,-3.09375 11.53125,-3.09375 26.71875,-8.34375 z"
         id="path29258"
         inkscape:connector-curvature="0" />
    </g>
  </g>
</svg>
