<?xml version="1.0" encoding="UTF-8" standalone="no"?>
<!-- Created with Inkscape (http://www.inkscape.org/) -->

<svg
   xmlns:dc="http://purl.org/dc/elements/1.1/"
   xmlns:cc="http://creativecommons.org/ns#"
   xmlns:rdf="http://www.w3.org/1999/02/22-rdf-syntax-ns#"
   xmlns:svg="http://www.w3.org/2000/svg"
   xmlns="http://www.w3.org/2000/svg"
   xmlns:sodipodi="http://sodipodi.sourceforge.net/DTD/sodipodi-0.dtd"
   xmlns:inkscape="http://www.inkscape.org/namespaces/inkscape"
   width="34.652149mm"
   height="21.307226mm"
   viewBox="0 0 34.652149 21.307226"
   version="1.1"
   id="svg29267"
   inkscape:version="0.92.4 (5da689c313, 2019-01-14)"
   sodipodi:docname="V12A.svg">
  <defs
     id="defs29261" />
  <sodipodi:namedview
     id="base"
     pagecolor="#ffffff"
     bordercolor="#666666"
     borderopacity="1.0"
     inkscape:pageopacity="0.0"
     inkscape:pageshadow="2"
     inkscape:zoom="0.35"
     inkscape:cx="619.59765"
     inkscape:cy="-326.61399"
     inkscape:document-units="mm"
     inkscape:current-layer="layer1"
     showgrid="false"
     fit-margin-top="0"
     fit-margin-left="0"
     fit-margin-right="0"
     fit-margin-bottom="0"
     inkscape:window-width="1920"
     inkscape:window-height="1017"
     inkscape:window-x="-8"
     inkscape:window-y="-8"
     inkscape:window-maximized="1" />
  <metadata
     id="metadata29264">
    <rdf:RDF>
      <cc:Work
         rdf:about="">
        <dc:format>image/svg+xml</dc:format>
        <dc:type
           rdf:resource="http://purl.org/dc/dcmitype/StillImage" />
        <dc:title></dc:title>
      </cc:Work>
    </rdf:RDF>
  </metadata>
  <g
     inkscape:label="Layer 1"
     inkscape:groupmode="layer"
     id="layer1"
     transform="translate(251.24771,-41.109489)">
    <g
       aria-label="ð“½"
       transform="scale(0.26458333)"
       style="font-style:normal;font-variant:normal;font-weight:normal;font-stretch:normal;font-size:192px;line-height:1.25;font-family:sans-serif;-inkscape-font-specification:sans-serif;font-variant-ligatures:normal;font-variant-caps:normal;font-variant-numeric:normal;font-feature-settings:normal;text-align:start;letter-spacing:0px;word-spacing:0px;writing-mode:lr-tb;text-anchor:start;fill:#000000;fill-opacity:1;stroke:none"
       id="flowRoot29812">
      <path
         d="m -823.22266,235.9057 q -15.1875,-18 -31.03125,-27.46875 -15.65625,-9.375 -34.59375,-13.6875 -18.84375,-4.3125 -42.375,-4.3125 -7.6875,0 -13.03125,-5.0625 -5.34375,-5.0625 -5.34375,-12.375 0,-8.53125 4.78125,-13.03125 4.78125,-4.59375 15.28125,-4.59375 2.25,0 4.5,0.65625 2.25,0.5625 4.40625,1.6875 2.15625,1.03125 4.125,2.53125 1.96875,1.40625 3.65625,3.09375 1.40625,-0.375 3.65625,-0.65625 2.25,-0.375 5.0625,-0.5625 2.90625,-0.1875 6.1875,-0.28125 3.375,-0.1875 6.9375,-0.1875 15.375,0 32.8125,7.78125 17.0625,7.6875 31.6875,19.96875 -3.375,1.875 -5.71875,3.375 -2.25,1.40625 -3.84375,2.625 -1.59375,1.125 -2.625,2.0625 -1.03125,0.9375 -1.6875,1.78125 -1.3125,1.78125 -2.8125,4.21875 -1.5,2.4375 -2.34375,4.78125 9,6.1875 15.375,12.9375 6.46875,6.65625 11.53125,12.84375 z m -91.6875,-67.5 q -1.6875,-1.78125 -3.46875,-3.28125 -1.6875,-1.59375 -3.65625,-2.71875 -1.875,-1.125 -4.125,-1.6875 -2.15625,-0.65625 -4.96875,-0.65625 -3.1875,0 -5.8125,1.125 -2.53125,1.03125 -4.3125,2.8125 -1.78125,1.78125 -2.71875,4.125 -0.9375,2.25 -0.9375,4.78125 0,2.34375 1.03125,4.78125 1.03125,2.34375 2.8125,4.21875 1.875,1.875 4.40625,3.09375 2.53125,1.21875 5.53125,1.21875 25.5,0 45.5625,4.78125 20.0625,4.78125 35.625,14.4375 1.21875,-2.625 2.53125,-5.15625 1.40625,-2.53125 2.625,-4.125 1.21875,-1.6875 3.75,-3.75 2.53125,-2.0625 5.25,-3.65625 -15.46875,-11.15625 -29.625,-16.78125 -14.0625,-5.625 -25.78125,-5.625 -6.5625,0 -12.75,0.5625 -6.1875,0.5625 -10.96875,1.5 z"
         id="path29820"
         inkscape:connector-curvature="0" />
    </g>
  </g>
</svg>
