<?xml version="1.0" encoding="UTF-8" standalone="no"?>
<!-- Created with Inkscape (http://www.inkscape.org/) -->

<svg
   xmlns:dc="http://purl.org/dc/elements/1.1/"
   xmlns:cc="http://creativecommons.org/ns#"
   xmlns:rdf="http://www.w3.org/1999/02/22-rdf-syntax-ns#"
   xmlns:svg="http://www.w3.org/2000/svg"
   xmlns="http://www.w3.org/2000/svg"
   xmlns:sodipodi="http://sodipodi.sourceforge.net/DTD/sodipodi-0.dtd"
   xmlns:inkscape="http://www.inkscape.org/namespaces/inkscape"
   width="32.866211mm"
   height="23.316406mm"
   viewBox="0 0 32.866211 23.316406"
   version="1.1"
   id="svg29829"
   inkscape:version="0.92.4 (5da689c313, 2019-01-14)"
   sodipodi:docname="V12B.svg">
  <defs
     id="defs29823" />
  <sodipodi:namedview
     id="base"
     pagecolor="#ffffff"
     bordercolor="#666666"
     borderopacity="1.0"
     inkscape:pageopacity="0.0"
     inkscape:pageshadow="2"
     inkscape:zoom="0.35"
     inkscape:cx="468.16991"
     inkscape:cy="-147.59055"
     inkscape:document-units="mm"
     inkscape:current-layer="layer1"
     showgrid="false"
     fit-margin-top="0"
     fit-margin-left="0"
     fit-margin-right="0"
     fit-margin-bottom="0"
     inkscape:window-width="1920"
     inkscape:window-height="1017"
     inkscape:window-x="-8"
     inkscape:window-y="-8"
     inkscape:window-maximized="1" />
  <metadata
     id="metadata29826">
    <rdf:RDF>
      <cc:Work
         rdf:about="">
        <dc:format>image/svg+xml</dc:format>
        <dc:type
           rdf:resource="http://purl.org/dc/dcmitype/StillImage" />
        <dc:title></dc:title>
      </cc:Work>
    </rdf:RDF>
  </metadata>
  <g
     inkscape:label="Layer 1"
     inkscape:groupmode="layer"
     id="layer1"
     transform="translate(211.18246,-86.466928)">
    <g
       aria-label="ð“¾"
       transform="scale(0.26458333)"
       style="font-style:normal;font-variant:normal;font-weight:normal;font-stretch:normal;font-size:192px;line-height:1.25;font-family:sans-serif;-inkscape-font-specification:sans-serif;font-variant-ligatures:normal;font-variant-caps:normal;font-variant-numeric:normal;font-feature-settings:normal;text-align:start;letter-spacing:0px;word-spacing:0px;writing-mode:lr-tb;text-anchor:start;fill:#000000;fill-opacity:1;stroke:none"
       id="flowRoot30374">
      <path
         d="m -764.04492,340.67914 q 7.59375,-0.84375 14.53125,-0.84375 24,0 42.5625,9.84375 18.375,9.65625 28.21875,25.40625 l -7.875,6.75 q 4.5,6.46875 7.78125,13.40625 3.28125,6.84375 4.875,13.03125 l -8.0625,6.65625 q -11.0625,-24.46875 -36.75,-39.375 -25.5,-15 -61.03125,-15 -7.875,0 -13.125,-4.40625 -5.25,-4.5 -5.25,-11.71875 0,-8.4375 4.5,-13.03125 4.5,-4.59375 12.9375,-4.59375 6.46875,0 10.78125,4.03125 4.3125,4.125 5.90625,9.84375 z m -3.09375,10.3125 q -0.28125,-4.21875 -1.21875,-7.78125 -0.9375,-3.5625 -2.625,-6.09375 -1.6875,-2.625 -4.125,-4.125 -2.4375,-1.5 -5.625,-1.5 -3.09375,0 -5.53125,1.125 -2.34375,1.03125 -4.03125,2.8125 -1.59375,1.78125 -2.4375,4.125 -0.75,2.25 -0.75,4.78125 0,2.34375 1.03125,4.5 1.03125,2.0625 2.8125,3.65625 1.875,1.5 4.40625,2.4375 2.53125,0.9375 5.53125,0.9375 36.28125,0 62.15625,14.625 13.03125,7.3125 22.125,16.6875 9.1875,9.375 14.625,21.09375 l 1.875,-1.40625 q -4.03125,-12.65625 -12.65625,-23.71875 -8.53125,-11.0625 -20.34375,-18.75 -5.90625,-3.84375 -12,-6.375 -6,-2.625 -12.65625,-4.125 -6.65625,-1.59375 -14.25,-2.25 -7.5,-0.65625 -16.3125,-0.65625 z m 4.03125,-4.59375 q 24,0 42.75,8.0625 18.75,8.0625 31.59375,24.46875 l 5.4375,-4.6875 q -10.875,-14.15625 -28.125,-22.40625 -17.34375,-8.4375 -37.125,-8.4375 -6.9375,0 -14.625,1.125 z"
         id="path30382"
         inkscape:connector-curvature="0" />
    </g>
  </g>
</svg>
