<?xml version="1.0" encoding="UTF-8" standalone="no"?>
<!-- Created with Inkscape (http://www.inkscape.org/) -->

<svg
   xmlns:dc="http://purl.org/dc/elements/1.1/"
   xmlns:cc="http://creativecommons.org/ns#"
   xmlns:rdf="http://www.w3.org/1999/02/22-rdf-syntax-ns#"
   xmlns:svg="http://www.w3.org/2000/svg"
   xmlns="http://www.w3.org/2000/svg"
   xmlns:sodipodi="http://sodipodi.sourceforge.net/DTD/sodipodi-0.dtd"
   xmlns:inkscape="http://www.inkscape.org/namespaces/inkscape"
   width="37.15741mm"
   height="10.417969mm"
   viewBox="0 0 37.15741 10.417969"
   version="1.1"
   id="svg30391"
   inkscape:version="0.92.4 (5da689c313, 2019-01-14)"
   sodipodi:docname="V13.svg">
  <defs
     id="defs30385" />
  <sodipodi:namedview
     id="base"
     pagecolor="#ffffff"
     bordercolor="#666666"
     borderopacity="1.0"
     inkscape:pageopacity="0.0"
     inkscape:pageshadow="2"
     inkscape:zoom="0.35"
     inkscape:cx="731.02729"
     inkscape:cy="26.690698"
     inkscape:document-units="mm"
     inkscape:current-layer="layer1"
     showgrid="false"
     fit-margin-top="0"
     fit-margin-left="0"
     fit-margin-right="0"
     fit-margin-bottom="0"
     inkscape:window-width="1920"
     inkscape:window-height="1017"
     inkscape:window-x="-8"
     inkscape:window-y="-8"
     inkscape:window-maximized="1" />
  <metadata
     id="metadata30388">
    <rdf:RDF>
      <cc:Work
         rdf:about="">
        <dc:format>image/svg+xml</dc:format>
        <dc:type
           rdf:resource="http://purl.org/dc/dcmitype/StillImage" />
        <dc:title></dc:title>
      </cc:Work>
    </rdf:RDF>
  </metadata>
  <g
     inkscape:label="Layer 1"
     inkscape:groupmode="layer"
     id="layer1"
     transform="translate(280.73014,-145.47728)">
    <g
       aria-label="ð“¿"
       transform="scale(0.26458333)"
       style="font-style:normal;font-variant:normal;font-weight:normal;font-stretch:normal;font-size:192px;line-height:1.25;font-family:sans-serif;-inkscape-font-specification:sans-serif;font-variant-ligatures:normal;font-variant-caps:normal;font-variant-numeric:normal;font-feature-settings:normal;text-align:start;letter-spacing:0px;word-spacing:0px;writing-mode:lr-tb;text-anchor:start;fill:#000000;fill-opacity:1;stroke:none"
       id="flowRoot30936">
      <path
         d="m -1033.7461,559.11664 q -5.0625,2.25 -8.625,3.46875 -3.5625,1.125 -6.75,1.125 -5.4375,0 -8.7187,-1.5 -3.1875,-1.5 -3.1875,-5.4375 0,-3.46875 3.1875,-5.15625 3.1875,-1.78125 8.7187,-1.78125 3,0 6.5625,1.125 3.5625,1.03125 8.8125,3.46875 h 96.65626 q 3.09375,0 6.09375,1.125 3,1.03125 5.25,3 2.34375,1.875 3.75,4.59375 1.40625,2.71875 1.40625,6 0,3.46875 -1.3125,6.375 -1.3125,2.8125 -3.5625,4.875 -2.25,1.96875 -5.25,3.09375 -3,1.125 -6.375,1.125 h -96.65626 q -8.8125,4.59375 -15.375,4.59375 -11.9062,0 -11.9062,-6.9375 0,-3.375 3,-5.15625 3.0937,-1.78125 8.9062,-1.78125 1.5,0 3,0.1875 1.5938,0.1875 3.375,0.65625 1.7813,0.46875 3.9375,1.40625 2.25,0.84375 5.0625,2.34375 h 96.56251 q 2.53125,0 4.6875,-0.65625 2.15625,-0.65625 3.75,-1.96875 1.59375,-1.3125 2.53125,-3.375 0.9375,-2.0625 0.9375,-4.78125 0,-2.71875 -1.03125,-4.59375 -1.03125,-1.96875 -2.71875,-3.09375 -1.6875,-1.21875 -3.84375,-1.78125 -2.0625,-0.5625 -4.3125,-0.5625 z m -3.9375,-2.34375 q -3.2812,-1.78125 -6,-2.15625 -2.7187,-0.46875 -5.4375,-0.46875 -3,0 -5.1562,0.5625 -2.0625,0.5625 -2.0625,2.0625 0,0.84375 0.6562,1.40625 0.6563,0.46875 1.6875,0.75 1.125,0.28125 2.3438,0.375 1.3125,0.0937 2.5312,0.0937 2.3438,0 4.875,-0.375 2.625,-0.46875 6.5625,-2.25 z m -0.094,25.5 q -1.6875,-0.9375 -3.4688,-1.40625 -1.6875,-0.5625 -3.2812,-0.84375 -1.5,-0.28125 -2.7188,-0.28125 -1.2187,-0.0937 -1.875,-0.0937 -1.0312,0 -2.3437,0.1875 -1.2188,0.0937 -2.3438,0.375 -1.0312,0.28125 -1.7812,0.84375 -0.75,0.46875 -0.75,1.21875 0,1.40625 1.875,2.0625 1.9687,0.5625 5.3437,0.5625 2.0625,0 4.5938,-0.46875 2.625,-0.46875 6.75,-2.15625 z"
         id="path30944"
         inkscape:connector-curvature="0" />
    </g>
  </g>
</svg>
