<?xml version="1.0" encoding="UTF-8" standalone="no"?>
<!-- Created with Inkscape (http://www.inkscape.org/) -->

<svg
   xmlns:dc="http://purl.org/dc/elements/1.1/"
   xmlns:cc="http://creativecommons.org/ns#"
   xmlns:rdf="http://www.w3.org/1999/02/22-rdf-syntax-ns#"
   xmlns:svg="http://www.w3.org/2000/svg"
   xmlns="http://www.w3.org/2000/svg"
   xmlns:sodipodi="http://sodipodi.sourceforge.net/DTD/sodipodi-0.dtd"
   xmlns:inkscape="http://www.inkscape.org/namespaces/inkscape"
   width="37.157421mm"
   height="12.427148mm"
   viewBox="0 0 37.157421 12.427148"
   version="1.1"
   id="svg3610"
   inkscape:version="0.92.4 (5da689c313, 2019-01-14)"
   sodipodi:docname="V14.svg">
  <defs
     id="defs3604" />
  <sodipodi:namedview
     id="base"
     pagecolor="#ffffff"
     bordercolor="#666666"
     borderopacity="1.0"
     inkscape:pageopacity="0.0"
     inkscape:pageshadow="2"
     inkscape:zoom="0.35"
     inkscape:cx="-383.25893"
     inkscape:cy="-337.14286"
     inkscape:document-units="mm"
     inkscape:current-layer="layer1"
     showgrid="false"
     fit-margin-top="0"
     fit-margin-left="0"
     fit-margin-right="0"
     fit-margin-bottom="0"
     inkscape:window-width="1920"
     inkscape:window-height="1017"
     inkscape:window-x="-8"
     inkscape:window-y="-8"
     inkscape:window-maximized="1" />
  <metadata
     id="metadata3607">
    <rdf:RDF>
      <cc:Work
         rdf:about="">
        <dc:format>image/svg+xml</dc:format>
        <dc:type
           rdf:resource="http://purl.org/dc/dcmitype/StillImage" />
        <dc:title></dc:title>
      </cc:Work>
    </rdf:RDF>
  </metadata>
  <g
     inkscape:label="Layer 1"
     inkscape:groupmode="layer"
     id="layer1"
     transform="translate(-14.091425,-47.203804)">
    <g
       aria-label="𓎀"
       style="font-style:normal;font-variant:normal;font-weight:normal;font-stretch:normal;font-size:50.79999924px;line-height:1.25;font-family:sans-serif;-inkscape-font-specification:'sans-serif, Normal';font-variant-ligatures:normal;font-variant-caps:normal;font-variant-numeric:normal;font-feature-settings:normal;text-align:start;letter-spacing:0px;word-spacing:0px;writing-mode:lr-tb;text-anchor:start;fill:#000000;fill-opacity:1;stroke:none;stroke-width:0.26458332"
       id="text4157">
      <path
         d="m 21.309589,51.668646 q -1.339453,0.595313 -2.282031,0.917774 -0.942578,0.297656 -1.785938,0.297656 -1.438672,0 -2.306836,-0.396875 -0.843359,-0.396875 -0.843359,-1.438672 0,-0.917773 0.843359,-1.364258 0.84336,-0.471289 2.306836,-0.471289 0.79375,0 1.736328,0.297657 0.942578,0.272851 2.331641,0.917773 h 25.573632 q 0.272852,0 0.446485,0.02481 0.173632,0 0.297656,0.0248 0.124023,0.02481 0.223242,0.04961 l 1.736328,-3.323828 h 1.661914 l -2.033984,3.819921 q 0.942578,0.520899 1.488281,1.364258 0.545703,0.84336 0.545703,1.934766 0,0.917773 -0.347265,1.686719 -0.347266,0.74414 -0.942578,1.289843 -0.595313,0.520899 -1.389063,0.818555 -0.79375,0.297656 -1.686719,0.297656 H 21.309589 q -2.331641,1.21543 -4.067969,1.21543 -3.150195,0 -3.150195,-1.835547 0,-0.892969 0.79375,-1.364258 0.818555,-0.471289 2.356445,-0.471289 0.396875,0 0.79375,0.04961 0.42168,0.04961 0.892969,0.173632 0.471289,0.124024 1.041797,0.372071 0.595312,0.223242 1.339453,0.620117 h 25.548828 q 0.669726,0 1.240234,-0.173633 0.570508,-0.173633 0.992187,-0.520898 0.42168,-0.347266 0.669727,-0.892969 0.248047,-0.545703 0.248047,-1.265039 0,-0.719336 -0.272852,-1.21543 -0.272851,-0.520898 -0.719336,-0.818554 -0.446484,-0.322461 -1.016992,-0.47129 -0.545703,-0.148828 -1.141015,-0.148828 z m -1.041797,-0.620117 q -0.868164,-0.471289 -1.5875,-0.570508 -0.719336,-0.124023 -1.438672,-0.124023 -0.79375,0 -1.364258,0.148828 -0.545703,0.148828 -0.545703,0.545703 0,0.223242 0.173633,0.37207 0.173633,0.124024 0.446484,0.198438 0.297657,0.07441 0.620118,0.09922 0.347265,0.0248 0.669726,0.0248 0.620117,0 1.289844,-0.09922 0.694531,-0.124024 1.736328,-0.595313 z m -0.02481,6.746875 q -0.446484,-0.248047 -0.917773,-0.37207 -0.446484,-0.148828 -0.868164,-0.223242 -0.396875,-0.07441 -0.719336,-0.07441 -0.322461,-0.02481 -0.496094,-0.02481 -0.272851,0 -0.620117,0.04961 -0.322461,0.02481 -0.620117,0.09922 -0.272852,0.07441 -0.471289,0.223242 -0.198438,0.124024 -0.198438,0.322461 0,0.37207 0.496094,0.545703 0.520898,0.148828 1.413867,0.148828 0.545703,0 1.21543,-0.124023 0.694531,-0.124024 1.785937,-0.570508 z"
         style="stroke-width:0.26458332"
         id="path4159"
         inkscape:connector-curvature="0" />
    </g>
  </g>
</svg>
