<?xml version="1.0" encoding="UTF-8" standalone="no"?>
<!-- Created with Inkscape (http://www.inkscape.org/) -->

<svg
   xmlns:dc="http://purl.org/dc/elements/1.1/"
   xmlns:cc="http://creativecommons.org/ns#"
   xmlns:rdf="http://www.w3.org/1999/02/22-rdf-syntax-ns#"
   xmlns:svg="http://www.w3.org/2000/svg"
   xmlns="http://www.w3.org/2000/svg"
   xmlns:sodipodi="http://sodipodi.sourceforge.net/DTD/sodipodi-0.dtd"
   xmlns:inkscape="http://www.inkscape.org/namespaces/inkscape"
   width="37.157436mm"
   height="24.730272mm"
   viewBox="0 0 37.157436 24.730272"
   version="1.1"
   id="svg30953"
   inkscape:version="0.92.4 (5da689c313, 2019-01-14)"
   sodipodi:docname="V15.svg">
  <defs
     id="defs30947" />
  <sodipodi:namedview
     id="base"
     pagecolor="#ffffff"
     bordercolor="#666666"
     borderopacity="1.0"
     inkscape:pageopacity="0.0"
     inkscape:pageshadow="2"
     inkscape:zoom="0.35"
     inkscape:cx="402.45512"
     inkscape:cy="-196.26047"
     inkscape:document-units="mm"
     inkscape:current-layer="layer1"
     showgrid="false"
     fit-margin-top="0"
     fit-margin-left="0"
     fit-margin-right="0"
     fit-margin-bottom="0"
     inkscape:window-width="1920"
     inkscape:window-height="1017"
     inkscape:window-x="-8"
     inkscape:window-y="-8"
     inkscape:window-maximized="1" />
  <metadata
     id="metadata30950">
    <rdf:RDF>
      <cc:Work
         rdf:about="">
        <dc:format>image/svg+xml</dc:format>
        <dc:type
           rdf:resource="http://purl.org/dc/dcmitype/StillImage" />
        <dc:title></dc:title>
      </cc:Work>
    </rdf:RDF>
  </metadata>
  <g
     inkscape:label="Layer 1"
     inkscape:groupmode="layer"
     id="layer1"
     transform="translate(193.79542,-72.175811)">
    <g
       aria-label="ð“Ž"
       transform="scale(0.26458333)"
       style="font-style:normal;font-variant:normal;font-weight:normal;font-stretch:normal;font-size:192px;line-height:1.25;font-family:sans-serif;-inkscape-font-specification:sans-serif;font-variant-ligatures:normal;font-variant-caps:normal;font-variant-numeric:normal;font-feature-settings:normal;text-align:start;letter-spacing:0px;word-spacing:0px;writing-mode:lr-tb;text-anchor:start;fill:#000000;fill-opacity:1;stroke:none"
       id="flowRoot31498">
      <path
         d="m -705.17383,282.07172 q -5.0625,2.25 -8.625,3.46875 -3.5625,1.125 -6.75,1.125 -5.4375,0 -8.71875,-1.5 -3.1875,-1.5 -3.1875,-5.4375 0,-3.46875 3.1875,-5.15625 3.1875,-1.78125 8.71875,-1.78125 3,0 6.5625,1.125 3.5625,1.03125 8.8125,3.46875 h 96.65625 q 3.09375,0 6.09375,1.125 3,1.03125 5.25,3 2.34375,1.875 3.75,4.59375 1.40625,2.71875 1.40625,6 0,3.46875 -1.3125,6.375 -1.3125,2.8125 -3.5625,4.875 -2.25,1.96875 -5.25,3.09375 -3,1.125 -6.375,1.125 h -29.0625 q 2.34375,3 4.3125,6.09375 2.0625,3 3.9375,6.1875 3.65625,6.28125 7.6875,20.15625 2.0625,6.9375 3.09375,10.96875 1.125,4.03125 1.3125,5.34375 0.375,2.4375 1.21875,4.125 0.9375,1.6875 0.9375,3.46875 0,2.34375 -4.5,2.34375 -0.1875,0 -0.375,0 -0.1875,-0.0937 -0.5625,-0.1875 l -1.59375,-0.46875 q -0.9375,-0.28125 -1.96875,-0.46875 -0.9375,-0.1875 -1.78125,-0.1875 -1.59375,0 -3.5625,0.1875 -1.96875,0.0937 -4.40625,0.46875 -2.4375,0.375 -4.125,0.5625 -1.6875,0.0937 -2.71875,0.0937 -3,0 -3,-1.96875 0,-0.375 3,-1.40625 11.71875,0 15.84375,-4.125 0,-0.375 0,-0.75 0,-0.46875 0.0937,-1.125 0,-10.6875 -10.40625,-26.90625 -10.40625,-16.3125 -12.65625,-17.8125 -3.28125,11.90625 -13.03125,23.71875 -9.75,12.09375 -16.03125,23.4375 0,6.9375 -6.09375,6.9375 -2.25,-1.40625 -3.9375,-1.40625 -1.59375,0 -3.65625,0.1875 -1.96875,0.0937 -4.59375,0.46875 -2.625,0.28125 -4.5,0.46875 -1.78125,0.1875 -2.90625,0.28125 h -0.28125 q -3.28125,0 -3.75,-1.875 v -0.0937 q 0,-1.03125 1.40625,-1.03125 h 0.1875 q 1.6875,0 2.4375,0.28125 11.0625,-2.90625 16.59375,-4.21875 5.71875,-7.03125 11.71875,-16.6875 6,-9.75 12.28125,-22.40625 l 6.375,-12.65625 h -49.59375 q -8.8125,4.59375 -15.375,4.59375 -11.90625,0 -11.90625,-6.9375 0,-3.375 3,-5.15625 3.09375,-1.78125 8.90625,-1.78125 1.5,0 3,0.1875 1.59375,0.1875 3.375,0.65625 1.78125,0.46875 3.9375,1.40625 2.25,0.84375 5.0625,2.34375 h 96.5625 q 2.53125,0 4.6875,-0.65625 2.15625,-0.65625 3.75,-1.96875 1.59375,-1.3125 2.53125,-3.375 0.9375,-2.0625 0.9375,-4.78125 0,-2.71875 -1.03125,-4.59375 -1.03125,-1.96875 -2.71875,-3.09375 -1.6875,-1.21875 -3.84375,-1.78125 -2.0625,-0.5625 -4.3125,-0.5625 z m -3.9375,-2.34375 q -3.28125,-1.78125 -6,-2.15625 -2.71875,-0.46875 -5.4375,-0.46875 -3,0 -5.15625,0.5625 -2.0625,0.5625 -2.0625,2.0625 0,0.84375 0.65625,1.40625 0.65625,0.46875 1.6875,0.75 1.125,0.28125 2.34375,0.375 1.3125,0.0937 2.53125,0.0937 2.34375,0 4.875,-0.375 2.625,-0.46875 6.5625,-2.25 z m -0.0937,25.5 q -1.6875,-0.9375 -3.46875,-1.40625 -1.6875,-0.5625 -3.28125,-0.84375 -1.5,-0.28125 -2.71875,-0.28125 -1.21875,-0.0937 -1.875,-0.0937 -1.03125,0 -2.34375,0.1875 -1.21875,0.0937 -2.34375,0.375 -1.03125,0.28125 -1.78125,0.84375 -0.75,0.46875 -0.75,1.21875 0,1.40625 1.875,2.0625 1.96875,0.5625 5.34375,0.5625 2.0625,0 4.59375,-0.46875 2.625,-0.46875 6.75,-2.15625 z"
         id="path31506"
         inkscape:connector-curvature="0" />
    </g>
  </g>
</svg>
