<?xml version="1.0" encoding="UTF-8" standalone="no"?>
<!-- Created with Inkscape (http://www.inkscape.org/) -->

<svg
   xmlns:dc="http://purl.org/dc/elements/1.1/"
   xmlns:cc="http://creativecommons.org/ns#"
   xmlns:rdf="http://www.w3.org/1999/02/22-rdf-syntax-ns#"
   xmlns:svg="http://www.w3.org/2000/svg"
   xmlns="http://www.w3.org/2000/svg"
   xmlns:sodipodi="http://sodipodi.sourceforge.net/DTD/sodipodi-0.dtd"
   xmlns:inkscape="http://www.inkscape.org/namespaces/inkscape"
   width="37.231831mm"
   height="16.966406mm"
   viewBox="0 0 37.231831 16.966406"
   version="1.1"
   id="svg31515"
   inkscape:version="0.92.4 (5da689c313, 2019-01-14)"
   sodipodi:docname="V16.svg">
  <defs
     id="defs31509" />
  <sodipodi:namedview
     id="base"
     pagecolor="#ffffff"
     bordercolor="#666666"
     borderopacity="1.0"
     inkscape:pageopacity="0.0"
     inkscape:pageshadow="2"
     inkscape:zoom="0.35"
     inkscape:cx="708.16989"
     inkscape:cy="-176.26047"
     inkscape:document-units="mm"
     inkscape:current-layer="layer1"
     showgrid="false"
     fit-margin-top="0"
     fit-margin-left="0"
     fit-margin-right="0"
     fit-margin-bottom="0"
     inkscape:window-width="1920"
     inkscape:window-height="1017"
     inkscape:window-x="-8"
     inkscape:window-y="-8"
     inkscape:window-maximized="1" />
  <metadata
     id="metadata31512">
    <rdf:RDF>
      <cc:Work
         rdf:about="">
        <dc:format>image/svg+xml</dc:format>
        <dc:type
           rdf:resource="http://purl.org/dc/dcmitype/StillImage" />
        <dc:title></dc:title>
      </cc:Work>
    </rdf:RDF>
  </metadata>
  <g
     inkscape:label="Layer 1"
     inkscape:groupmode="layer"
     id="layer1"
     transform="translate(274.68245,-85.231345)">
    <g
       aria-label="𓎂"
       transform="scale(0.26458333)"
       style="font-style:normal;font-variant:normal;font-weight:normal;font-stretch:normal;font-size:192px;line-height:1.25;font-family:sans-serif;-inkscape-font-specification:sans-serif;font-variant-ligatures:normal;font-variant-caps:normal;font-variant-numeric:normal;font-feature-settings:normal;text-align:start;letter-spacing:0px;word-spacing:0px;writing-mode:lr-tb;text-anchor:start;fill:#000000;fill-opacity:1;stroke:none"
       id="flowRoot32060">
      <path
         d="m -1001.6074,352.50922 h 17.81248 q -3.375,-7.03125 -5.34375,-12.5625 -1.875,-5.53125 -1.875,-8.71875 0,-9.09375 11.0625,-9.09375 9.84375,0 9.84375,8.90625 0,1.96875 -1.6875,7.59375 -1.6875,5.53125 -4.59375,13.875 h 17.4375 q -3,-8.25 -4.78125,-13.78125 -1.78125,-5.625 -1.78125,-7.78125 0,-8.8125 10.03125,-8.8125 10.78125,0 10.78125,9.28125 0,3.1875 -1.875,8.625 -1.78125,5.4375 -5.0625,12.46875 h 17.625 q -3.09375,-6.46875 -4.875,-11.90625 -1.78125,-5.4375 -1.78125,-9 0,-9.46875 10.40625,-9.46875 9.9375,0 9.9375,8.8125 0,2.25 -1.6875,7.59375 -1.59375,5.25 -4.3125,12.75 7.59375,-3 12.65625,-4.96875 5.15625,-2.0625 7.59375,-2.0625 8.625,0 8.625,10.21875 0,10.40625 -9.09375,10.40625 -2.625,0 -7.59375,-1.78125 -4.875,-1.875 -11.90625,-4.59375 2.625,6.46875 4.125,11.4375 1.59375,4.96875 1.59375,7.6875 0,8.625 -9.46875,8.625 -10.875,0 -10.875,-9.65625 0,-3.75 1.6875,-8.8125 1.6875,-5.0625 4.6875,-10.59375 h -17.0625 q 3.1875,6 4.96875,11.25 1.78125,5.15625 1.78125,8.71875 0,9.09375 -10.6875,9.09375 -10.125,0 -10.125,-8.71875 0,-2.625 1.6875,-7.875 1.6875,-5.34375 4.59375,-12.46875 h -17.15625 q 3,7.59375 4.6875,13.03125 1.6875,5.34375 1.6875,7.5 0,8.53125 -10.03125,8.53125 -10.96875,0 -10.96875,-9.09375 0,-3.5625 1.78125,-8.8125 1.875,-5.25 5.15625,-11.15625 h -17.34378 q 2.90628,5.4375 4.59378,10.59375 1.6875,5.15625 1.6875,9.09375 0,9.375 -9.84378,9.375 -10.5,0 -10.5,-8.71875 0,-2.4375 1.5,-7.40625 1.5938,-5.0625 4.3125,-11.625 -7.9687,2.625 -13.0312,4.5 -5.0625,1.78125 -6.8438,1.78125 -8.7187,0 -8.7187,-9.75 0,-10.5 9.0937,-10.5 2.7188,0 7.7813,1.96875 5.0625,1.875 12,4.78125 -2.9063,-7.5 -4.5938,-12.75 -1.5937,-5.34375 -1.5937,-7.6875 0,-8.71875 9.9375,-8.71875 10.49998,0 10.49998,9.375 0,2.90625 -1.78125,8.34375 -1.78125,5.4375 -4.78123,12.65625 z m 21.28123,7.96875 q -0.84375,1.875 -1.875,4.40625 -0.9375,2.4375 -1.78125,4.78125 -0.84375,2.25 -1.40625,4.03125 -0.46875,1.78125 -0.46875,2.34375 0,1.78125 1.21875,3.65625 1.21875,1.78125 4.5,1.78125 1.5,0 2.4375,-0.46875 1.03125,-0.5625 1.59375,-1.3125 0.65625,-0.75 0.84375,-1.59375 0.28125,-0.9375 0.28125,-1.6875 0,-0.1875 -0.5625,-1.78125 -0.46875,-1.6875 -1.3125,-4.03125 -0.75,-2.34375 -1.6875,-5.0625 -0.9375,-2.71875 -1.78125,-5.0625 z m 0.1875,-12.46875 q 0.84375,-2.0625 1.6875,-4.6875 0.9375,-2.625 1.6875,-4.875 0.75,-2.34375 1.21875,-4.03125 0.5625,-1.78125 0.5625,-2.25 0,-0.84375 -0.28125,-1.78125 -0.1875,-0.9375 -0.75,-1.6875 -0.5625,-0.84375 -1.59375,-1.3125 -0.9375,-0.5625 -2.34375,-0.5625 -1.6875,0 -2.8125,0.5625 -1.03125,0.46875 -1.78125,1.3125 -0.65625,0.84375 -0.9375,1.875 -0.28125,0.9375 -0.28125,1.78125 0,0.5625 0.46875,2.4375 0.5625,1.78125 1.40625,4.125 0.84375,2.25 1.78125,4.78125 1.03125,2.4375 1.96875,4.3125 z m -25.21873,11.8125 q -0.8438,1.59375 -1.7813,3.9375 -0.8437,2.34375 -1.6875,4.6875 -0.75,2.34375 -1.3125,4.40625 -0.4687,1.96875 -0.4687,2.90625 0,0.9375 0.1875,1.96875 0.2812,1.03125 0.8437,1.875 0.6563,0.84375 1.6875,1.40625 1.0313,0.5625 2.5313,0.5625 1.6875,0 2.7187,-0.46875 1.125,-0.5625 1.7813,-1.3125 0.75,-0.84375 1.03123,-1.78125 0.28125,-0.9375 0.28125,-1.78125 0,-0.28125 -0.56248,-1.96875 -0.5625,-1.6875 -1.4063,-4.03125 -0.8437,-2.4375 -1.875,-5.15625 -1.0312,-2.8125 -1.9687,-5.25 z m 0.1875,-11.0625 q 0.8437,-1.96875 1.7812,-4.5 1.0313,-2.53125 1.875,-4.96875 0.8438,-2.4375 1.3125,-4.3125 0.56253,-1.96875 0.56253,-2.71875 0,-0.84375 -0.28125,-1.78125 -0.18748,-1.03125 -0.84378,-1.78125 -0.6562,-0.84375 -1.6875,-1.3125 -1.0312,-0.5625 -2.625,-0.5625 -1.5937,0 -2.7187,0.5625 -1.0313,0.46875 -1.6875,1.3125 -0.5625,0.84375 -0.8438,1.875 -0.2812,0.9375 -0.2812,1.78125 0,0.75 0.4687,2.71875 0.5625,1.96875 1.3125,4.40625 0.8438,2.34375 1.7813,4.875 1.0312,2.53125 1.875,4.40625 z m -7.5,5.8125 q -2.25,-0.75 -4.5938,-1.59375 -2.3437,-0.84375 -4.4062,-1.59375 -2.0625,-0.75 -3.6563,-1.21875 -1.5,-0.5625 -2.0625,-0.5625 -1.0312,0 -2.1562,0.28125 -1.0313,0.1875 -1.9688,0.84375 -0.8437,0.65625 -1.4062,1.6875 -0.5625,1.03125 -0.5625,2.53125 0,1.40625 0.4687,2.34375 0.5625,0.9375 1.4063,1.5 0.8437,0.5625 1.7812,0.84375 1.0313,0.1875 1.9688,0.1875 0.75,0 2.3437,-0.46875 1.6875,-0.5625 3.75,-1.3125 2.1563,-0.84375 4.5,-1.6875 2.3438,-0.9375 4.5938,-1.78125 z m 57.56248,5.90625 q -0.84375,2.15625 -1.78125,4.78125 -0.84375,2.625 -1.6875,4.96875 -0.75,2.34375 -1.3125,4.125 -0.46875,1.6875 -0.46875,2.0625 0,0.84375 0.1875,1.78125 0.28125,0.84375 0.84375,1.59375 0.5625,0.75 1.5,1.3125 0.9375,0.46875 2.34375,0.46875 3.28125,0 4.5,-1.78125 1.3125,-1.875 1.3125,-3.65625 0,-0.5625 -0.5625,-2.34375 -0.46875,-1.78125 -1.3125,-4.125 -0.75,-2.34375 -1.78125,-4.78125 -0.9375,-2.53125 -1.78125,-4.40625 z m -0.0937,-12.46875 q 0.9375,-2.0625 1.875,-4.59375 1.03125,-2.53125 1.875,-4.78125 0.84375,-2.34375 1.3125,-4.03125 0.5625,-1.78125 0.5625,-2.25 0,-0.84375 -0.28125,-1.78125 -0.28125,-1.03125 -1.03125,-1.875 -0.65625,-0.84375 -1.78125,-1.3125 -1.125,-0.5625 -2.8125,-0.5625 -1.40625,0 -2.34375,0.5625 -0.9375,0.46875 -1.5,1.3125 -0.5625,0.75 -0.84375,1.78125 -0.1875,0.9375 -0.1875,1.78125 0,0.75 0.46875,2.625 0.5625,1.875 1.3125,4.21875 0.75,2.34375 1.59375,4.78125 0.9375,2.34375 1.78125,4.125 z m 24.9375,11.8125 q -1.03125,2.15625 -2.0625,4.78125 -1.03125,2.53125 -1.875,4.96875 -0.84375,2.34375 -1.40625,4.21875 -0.5625,1.78125 -0.5625,2.25 0,0.84375 0.28125,1.875 0.28125,0.9375 0.9375,1.78125 0.75,0.84375 1.875,1.40625 1.125,0.46875 2.8125,0.46875 1.5,0 2.4375,-0.46875 1.03125,-0.5625 1.59375,-1.3125 0.65625,-0.84375 0.84375,-1.78125 0.28125,-0.9375 0.28125,-1.78125 0,-0.5625 -0.5625,-2.4375 -0.46875,-1.875 -1.21875,-4.3125 -0.75,-2.4375 -1.6875,-4.96875 -0.84375,-2.625 -1.6875,-4.6875 z m -0.1875,-11.0625 q 0.84375,-2.25 1.78125,-4.96875 1.03125,-2.71875 1.78125,-5.15625 0.84375,-2.4375 1.3125,-4.21875 0.5625,-1.78125 0.5625,-2.15625 0,-1.78125 -1.125,-3.5625 -1.03125,-1.875 -4.03125,-1.875 -1.6875,0 -2.8125,0.5625 -1.125,0.5625 -1.875,1.40625 -0.65625,0.84375 -0.9375,1.96875 -0.28125,1.03125 -0.28125,1.96875 0,0.75 0.46875,2.625 0.5625,1.875 1.40625,4.3125 0.84375,2.34375 1.78125,4.78125 1.03125,2.4375 1.96875,4.3125 z m 7.5,5.8125 q 2.15625,0.84375 4.5,1.78125 2.34375,0.84375 4.40625,1.6875 2.15625,0.75 3.75,1.3125 1.59375,0.46875 2.34375,0.46875 0.9375,0 1.96875,-0.1875 1.03125,-0.28125 1.875,-0.84375 0.84375,-0.5625 1.40625,-1.5 0.5625,-0.9375 0.5625,-2.34375 0,-1.5 -0.5625,-2.4375 -0.5625,-1.03125 -1.5,-1.59375 -0.84375,-0.65625 -1.96875,-0.84375 -1.03125,-0.28125 -2.0625,-0.28125 -0.46875,0 -1.96875,0.46875 -1.5,0.46875 -3.5625,1.21875 -1.96875,0.75 -4.40625,1.59375 -2.4375,0.84375 -4.78125,1.5 z"
         id="path32068"
         inkscape:connector-curvature="0" />
    </g>
  </g>
</svg>
