<?xml version="1.0" encoding="UTF-8" standalone="no"?>
<!-- Created with Inkscape (http://www.inkscape.org/) -->

<svg
   xmlns:dc="http://purl.org/dc/elements/1.1/"
   xmlns:cc="http://creativecommons.org/ns#"
   xmlns:rdf="http://www.w3.org/1999/02/22-rdf-syntax-ns#"
   xmlns:svg="http://www.w3.org/2000/svg"
   xmlns="http://www.w3.org/2000/svg"
   xmlns:sodipodi="http://sodipodi.sourceforge.net/DTD/sodipodi-0.dtd"
   xmlns:inkscape="http://www.inkscape.org/namespaces/inkscape"
   width="14.386665mm"
   height="37.207031mm"
   viewBox="0 0 14.386665 37.207031"
   version="1.1"
   id="svg32077"
   inkscape:version="0.92.4 (5da689c313, 2019-01-14)"
   sodipodi:docname="V17.svg">
  <defs
     id="defs32071" />
  <sodipodi:namedview
     id="base"
     pagecolor="#ffffff"
     bordercolor="#666666"
     borderopacity="1.0"
     inkscape:pageopacity="0.0"
     inkscape:pageshadow="2"
     inkscape:zoom="0.35"
     inkscape:cx="851.02709"
     inkscape:cy="-261.97532"
     inkscape:document-units="mm"
     inkscape:current-layer="layer1"
     showgrid="false"
     fit-margin-top="0"
     fit-margin-left="0"
     fit-margin-right="0"
     fit-margin-bottom="0"
     inkscape:window-width="1920"
     inkscape:window-height="1017"
     inkscape:window-x="-8"
     inkscape:window-y="-8"
     inkscape:window-maximized="1" />
  <metadata
     id="metadata32074">
    <rdf:RDF>
      <cc:Work
         rdf:about="">
        <dc:format>image/svg+xml</dc:format>
        <dc:type
           rdf:resource="http://purl.org/dc/dcmitype/StillImage" />
        <dc:title></dc:title>
      </cc:Work>
    </rdf:RDF>
  </metadata>
  <g
     inkscape:label="Layer 1"
     inkscape:groupmode="layer"
     id="layer1"
     transform="translate(312.48008,-42.311999)">
    <g
       aria-label="𓎃"
       transform="scale(0.26458333)"
       style="font-style:normal;font-variant:normal;font-weight:normal;font-stretch:normal;font-size:192px;line-height:1.25;font-family:sans-serif;-inkscape-font-specification:sans-serif;font-variant-ligatures:normal;font-variant-caps:normal;font-variant-numeric:normal;font-feature-settings:normal;text-align:start;letter-spacing:0px;word-spacing:0px;writing-mode:lr-tb;text-anchor:start;fill:#000000;fill-opacity:1;stroke:none"
       id="flowRoot32622">
      <path
         d="m -1135.9336,175.10687 h 7.6875 l 1.5938,1.5 -3,22.59375 -1.125,1.5 -8.4375,1.78125 -5.4375,19.96875 1.125,1.5 q -0.8438,2.8125 -1.2188,6 -0.375,3.1875 -0.375,7.78125 l 0.094,9.9375 -1.3125,1.3125 q 1.9687,19.59375 16.6875,51.5625 h -6.0938 q -4.875,-12.5625 -7.9687,-21.09375 -3,-8.625 -4.2188,-13.5 -2.3437,-9.65625 -3.0937,-16.78125 h -4.5 q -0.9375,5.34375 -2.1563,10.3125 -1.2187,4.96875 -2.8125,9.75 -1.5,4.6875 -4.3125,12.46875 -2.8125,7.78125 -7.0312,18.84375 h -4.6875 q 1.875,-4.96875 4.0312,-10.96875 2.1563,-6 4.7813,-13.125 5.25,-14.4375 7.5937,-27.375 l -1.0312,-1.6875 v -8.90625 q 0,-5.25 -0.4688,-8.53125 -0.375,-3.375 -1.2187,-6.1875 l 1.125,-1.40625 -6.6563,-19.875 -8.4375,-1.875 -1.2187,-1.125 -3,-22.59375 1.4062,-1.78125 h 8.1563 q 1.9687,-7.59375 6.5625,-11.34375 4.5937,-3.84375 11.0625,-3.84375 15.0937,0 17.9062,15.1875 z m -13.2187,46.875 q 2.4375,-7.59375 4.4062,-15.46875 0.8438,-3.375 1.5938,-7.125 0.75,-3.75 1.4062,-7.59375 0.6563,-3.84375 1.0313,-7.6875 0.375,-3.9375 0.375,-7.5 -0.5625,-5.34375 -4.3125,-8.625 -3.6563,-3.375 -9.1875,-3.375 -5.5313,0 -8.9063,3.375 -3.375,3.375 -4.3125,8.625 0,3.9375 0.375,7.96875 0.4688,3.9375 1.125,7.875 0.75,3.9375 1.5938,7.6875 0.9375,3.65625 1.875,6.9375 2.1562,7.6875 4.9687,14.90625 z m 1.2187,24.1875 v -10.59375 q 0,-3 0.1875,-5.53125 0.2813,-2.625 0.8438,-5.0625 h -12.4688 q 1.125,5.0625 1.125,10.40625 v 10.78125 z m -29.9062,-68.0625 2.625,19.875 6.0937,1.125 q -0.8437,-4.78125 -1.7812,-9.84375 -0.8438,-5.0625 -0.8438,-11.15625 z m 48,0 h -5.8125 q 0,5.34375 -0.8438,10.59375 -0.75,5.25 -1.7812,10.3125 l 5.8125,-1.03125 z"
         id="path32630"
         inkscape:connector-curvature="0" />
    </g>
  </g>
</svg>
