<?xml version="1.0" encoding="UTF-8" standalone="no"?>
<!-- Created with Inkscape (http://www.inkscape.org/) -->

<svg
   xmlns:dc="http://purl.org/dc/elements/1.1/"
   xmlns:cc="http://creativecommons.org/ns#"
   xmlns:rdf="http://www.w3.org/1999/02/22-rdf-syntax-ns#"
   xmlns:svg="http://www.w3.org/2000/svg"
   xmlns="http://www.w3.org/2000/svg"
   xmlns:sodipodi="http://sodipodi.sourceforge.net/DTD/sodipodi-0.dtd"
   xmlns:inkscape="http://www.inkscape.org/namespaces/inkscape"
   width="11.236524mm"
   height="38.000782mm"
   viewBox="0 0 11.236524 38.000782"
   version="1.1"
   id="svg4168"
   inkscape:version="0.92.4 (5da689c313, 2019-01-14)"
   sodipodi:docname="V18.svg">
  <defs
     id="defs4162" />
  <sodipodi:namedview
     id="base"
     pagecolor="#ffffff"
     bordercolor="#666666"
     borderopacity="1.0"
     inkscape:pageopacity="0.0"
     inkscape:pageshadow="2"
     inkscape:zoom="0.35"
     inkscape:cx="-348.97321"
     inkscape:cy="-404.21429"
     inkscape:document-units="mm"
     inkscape:current-layer="layer1"
     showgrid="false"
     fit-margin-top="0"
     fit-margin-left="0"
     fit-margin-right="0"
     fit-margin-bottom="0"
     inkscape:window-width="1920"
     inkscape:window-height="1017"
     inkscape:window-x="-8"
     inkscape:window-y="-8"
     inkscape:window-maximized="1" />
  <metadata
     id="metadata4165">
    <rdf:RDF>
      <cc:Work
         rdf:about="">
        <dc:format>image/svg+xml</dc:format>
        <dc:type
           rdf:resource="http://purl.org/dc/dcmitype/StillImage" />
        <dc:title></dc:title>
      </cc:Work>
    </rdf:RDF>
  </metadata>
  <g
     inkscape:label="Layer 1"
     inkscape:groupmode="layer"
     id="layer1"
     transform="translate(-5.0199961,-3.8841886)">
    <g
       aria-label="𓎄"
       style="font-style:normal;font-variant:normal;font-weight:normal;font-stretch:normal;font-size:50.79999924px;line-height:1.25;font-family:sans-serif;-inkscape-font-specification:'sans-serif, Normal';font-variant-ligatures:normal;font-variant-caps:normal;font-variant-numeric:normal;font-feature-settings:normal;text-align:start;letter-spacing:0px;word-spacing:0px;writing-mode:lr-tb;text-anchor:start;fill:#000000;fill-opacity:1;stroke:none;stroke-width:0.26458332"
       id="text4715">
      <path
         d="m 16.20691,11.102353 0.04961,0.79375 v 0.79375 q 0,1.513085 -0.198437,3.100585 -0.173633,1.5875 -0.545703,3.125391 -0.347266,1.537891 -0.84336,2.926953 -0.496093,1.389063 -1.314648,3.050977 -0.818555,1.637109 -0.868164,1.785937 -0.02481,0.148828 -0.297656,2.406055 -0.148828,1.16582 -0.148828,2.33164 v 0.396875 q 0,0.446485 0.223242,2.108399 0.223242,1.661914 1.116211,5.407422 l 0.471289,2.033984 -0.396875,0.520898 H 7.8477305 L 7.4756602,41.41368 q 0.1984375,-1.190625 0.8929687,-4.191992 0.7193359,-3.026172 0.8433594,-4.960937 l 0.049609,-0.595313 v -0.545703 q 0,-0.496094 -0.024805,-0.942578 L 9.1375742,29.209774 Q 8.8895273,26.704501 8.7406992,26.555673 8.5918711,26.38204 7.5748789,24.050399 6.5578867,21.718759 6.0865977,20.081649 5.6153086,18.419735 5.3176524,16.336142 5.0199961,14.252548 5.0199961,12.541024 q 0,-4.241601 1.4634766,-6.4492182 1.4634765,-2.2076172 4.2167963,-2.2076172 2.778125,0 4.043165,2.0587891 1.265039,2.058789 1.463476,5.1593753 z m -7.9871092,2.902148 q 0,2.852539 0.5457031,5.084961 0.5705078,2.232422 1.9099611,3.12539 0.892969,-0.545703 1.661914,-3.175 0.768945,-2.654101 0.768945,-5.457031 0,-3.348632 -0.768945,-5.0601559 Q 11.593238,6.786337 10.129762,7.183212 8.6662852,7.580087 8.3686289,10.829501 q -0.1488281,1.562695 -0.1488281,3.175 z m -0.7193359,1.95957 -1.3890625,0.297657 q 0.3224609,2.356445 1.0169922,4.539257 0.7193359,2.182813 1.5626952,3.919141 l 0.1984375,0.42168 q 0.074414,0.173632 0.1984375,0.37207 0.1240235,0.198437 0.4216797,0.79375 h 2.2324215 q 0.09922,-0.248047 0.545703,-0.942578 0.47129,-0.719336 1.513086,-3.423047 1.041797,-2.728516 1.413868,-5.680273 l -1.488282,-0.322461 q -0.248047,2.678906 -0.967382,4.464843 -0.694532,1.761133 -1.860352,2.604492 L 10.402613,22.983798 9.6832773,22.462899 9.3856211,22.190048 Q 8.5918711,21.421102 8.0957774,19.65997 7.6244883,17.898837 7.5004649,15.964071 Z m 0.8433593,25.127148 h 4.6384768 q -0.223242,-1.066601 -0.992188,-4.34082 -0.74414,-3.274219 -0.74414,-4.886523 v -0.42168 h -1.190625 v 0.248047 q 0,1.141016 -0.7193363,4.564062 -0.7193359,3.398242 -0.9921875,4.836914 z M 11.86609,6.6871183 q 0.74414,0.471289 1.215429,1.5378906 0.496094,1.0417969 0.644922,2.9765621 h 1.686719 v -0.0248 Q 15.214723,8.3242276 14.470582,6.9351652 13.726441,5.5461027 12.362184,5.0003996 Z M 9.4352305,6.6623136 9.0383555,4.9507902 Q 7.6989024,5.4716886 6.9051524,6.9599698 6.1114024,8.4482511 5.9129649,11.102353 v 0.09922 h 1.6123046 q 0,-0.124023 0.024805,-0.223242 0,-0.818555 0.4216797,-2.2572264 0.4216797,-1.4386718 1.4634766,-2.058789 z M 9.708082,27.026962 q 0.1240235,0.79375 0.1984375,1.761133 l 0.099218,1.934765 h 1.240235 q 0.04961,-0.942578 0.173632,-1.860351 l 0.198438,-1.835547 z m 4.092773,-15.031641 q 0,0.372071 0.0248,0.79375 0.02481,0.42168 0.02481,0.868164 v 0.744141 l -0.04961,0.768945 1.513086,0.297657 q 0.148828,-1.289844 0.148828,-2.579688 v -0.446484 q 0,-0.223242 -0.0248,-0.446485 z m -6.3499995,3.175 q 0,-0.297656 -0.024805,-0.620117 v -0.595312 q 0,-0.496094 0.024805,-0.992188 l 0.024805,-0.967383 h -1.612305 v 0.694532 q 0,1.413867 0.1488281,2.778125 z M 11.121949,6.389462 11.593238,4.7523527 q -0.396875,-0.099219 -0.942578,-0.099219 -0.446484,0 -0.8433592,0.074414 l 0.3720702,1.6371094 0.471289,-0.074414 z"
         style="stroke-width:0.26458332"
         id="path4717"
         inkscape:connector-curvature="0" />
    </g>
  </g>
</svg>
