<?xml version="1.0" encoding="UTF-8" standalone="no"?>
<!-- Created with Inkscape (http://www.inkscape.org/) -->

<svg
   xmlns:dc="http://purl.org/dc/elements/1.1/"
   xmlns:cc="http://creativecommons.org/ns#"
   xmlns:rdf="http://www.w3.org/1999/02/22-rdf-syntax-ns#"
   xmlns:svg="http://www.w3.org/2000/svg"
   xmlns="http://www.w3.org/2000/svg"
   xmlns:sodipodi="http://sodipodi.sourceforge.net/DTD/sodipodi-0.dtd"
   xmlns:inkscape="http://www.inkscape.org/namespaces/inkscape"
   width="18.628321mm"
   height="21.629686mm"
   viewBox="0 0 18.628321 21.629686"
   version="1.1"
   id="svg32639"
   inkscape:version="0.92.4 (5da689c313, 2019-01-14)"
   sodipodi:docname="V19.svg">
  <defs
     id="defs32633" />
  <sodipodi:namedview
     id="base"
     pagecolor="#ffffff"
     bordercolor="#666666"
     borderopacity="1.0"
     inkscape:pageopacity="0.0"
     inkscape:pageshadow="2"
     inkscape:zoom="0.35"
     inkscape:cx="108.16991"
     inkscape:cy="-267.69016"
     inkscape:document-units="mm"
     inkscape:current-layer="layer1"
     showgrid="false"
     fit-margin-top="0"
     fit-margin-left="0"
     fit-margin-right="0"
     fit-margin-bottom="0"
     inkscape:window-width="1920"
     inkscape:window-height="1017"
     inkscape:window-x="-8"
     inkscape:window-y="-8"
     inkscape:window-maximized="1" />
  <metadata
     id="metadata32636">
    <rdf:RDF>
      <cc:Work
         rdf:about="">
        <dc:format>image/svg+xml</dc:format>
        <dc:type
           rdf:resource="http://purl.org/dc/dcmitype/StillImage" />
        <dc:title></dc:title>
      </cc:Work>
    </rdf:RDF>
  </metadata>
  <g
     inkscape:label="Layer 1"
     inkscape:groupmode="layer"
     id="layer1"
     transform="translate(115.93246,-56.377292)">
    <g
       aria-label="𓎅"
       transform="scale(0.26458333)"
       style="font-style:normal;font-variant:normal;font-weight:normal;font-stretch:normal;font-size:192px;line-height:1.25;font-family:sans-serif;-inkscape-font-specification:sans-serif;font-variant-ligatures:normal;font-variant-caps:normal;font-variant-numeric:normal;font-feature-settings:normal;text-align:start;letter-spacing:0px;word-spacing:0px;writing-mode:lr-tb;text-anchor:start;fill:#000000;fill-opacity:1;stroke:none"
       id="flowRoot33184">
      <path
         d="m -383.41992,231.92328 v 16.03125 h 15.65625 v 4.6875 h -15.65625 v 42.1875 h -4.6875 v -42.1875 h -29.71875 v 42.1875 h -4.6875 v -42.1875 h -15.65625 v -4.6875 h 15.65625 v -16.03125 q 0,-4.125 1.40625,-7.59375 1.5,-3.46875 4.03125,-5.90625 2.53125,-2.53125 6,-3.9375 3.46875,-1.40625 7.59375,-1.40625 4.03125,0 7.59375,1.40625 3.65625,1.40625 6.375,3.9375 2.8125,2.4375 4.40625,5.90625 1.6875,3.46875 1.6875,7.59375 z m -4.6875,0 q 0,-2.8125 -1.3125,-5.34375 -1.21875,-2.625 -3.375,-4.5 -2.15625,-1.96875 -4.96875,-3.09375 -2.8125,-1.21875 -6,-1.21875 -3.1875,0 -5.8125,1.3125 -2.53125,1.3125 -4.40625,3.375 -1.78125,1.96875 -2.8125,4.5 -1.03125,2.53125 -1.03125,4.96875 v 16.03125 h 29.71875 z"
         id="path33192"
         inkscape:connector-curvature="0" />
    </g>
  </g>
</svg>
