<?xml version="1.0" encoding="UTF-8" standalone="no"?>
<!-- Created with Inkscape (http://www.inkscape.org/) -->

<svg
   xmlns:dc="http://purl.org/dc/elements/1.1/"
   xmlns:cc="http://creativecommons.org/ns#"
   xmlns:rdf="http://www.w3.org/1999/02/22-rdf-syntax-ns#"
   xmlns:svg="http://www.w3.org/2000/svg"
   xmlns="http://www.w3.org/2000/svg"
   xmlns:sodipodi="http://sodipodi.sourceforge.net/DTD/sodipodi-0.dtd"
   xmlns:inkscape="http://www.inkscape.org/namespaces/inkscape"
   width="44.177158mm"
   height="38.199219mm"
   viewBox="0 0 44.177158 38.199219"
   version="1.1"
   id="svg22523"
   inkscape:version="0.92.4 (5da689c313, 2019-01-14)"
   sodipodi:docname="V1G.svg">
  <defs
     id="defs22517" />
  <sodipodi:namedview
     id="base"
     pagecolor="#ffffff"
     bordercolor="#666666"
     borderopacity="1.0"
     inkscape:pageopacity="0.0"
     inkscape:pageshadow="2"
     inkscape:zoom="0.35"
     inkscape:cx="759.59769"
     inkscape:cy="-164.83274"
     inkscape:document-units="mm"
     inkscape:current-layer="layer1"
     showgrid="false"
     fit-margin-top="0"
     fit-margin-left="0"
     fit-margin-right="0"
     fit-margin-bottom="0"
     inkscape:window-width="1920"
     inkscape:window-height="1017"
     inkscape:window-x="-8"
     inkscape:window-y="-8"
     inkscape:window-maximized="1" />
  <metadata
     id="metadata22520">
    <rdf:RDF>
      <cc:Work
         rdf:about="">
        <dc:format>image/svg+xml</dc:format>
        <dc:type
           rdf:resource="http://purl.org/dc/dcmitype/StillImage" />
        <dc:title></dc:title>
      </cc:Work>
    </rdf:RDF>
  </metadata>
  <g
     inkscape:label="Layer 1"
     inkscape:groupmode="layer"
     id="layer1"
     transform="translate(288.28939,-67.022119)">
    <g
       aria-label="ð“©"
       transform="scale(0.26458333)"
       style="font-style:normal;font-variant:normal;font-weight:normal;font-stretch:normal;font-size:192px;line-height:1.25;font-family:sans-serif;-inkscape-font-specification:sans-serif;font-variant-ligatures:normal;font-variant-caps:normal;font-variant-numeric:normal;font-feature-settings:normal;text-align:start;letter-spacing:0px;word-spacing:0px;writing-mode:lr-tb;text-anchor:start;fill:#000000;fill-opacity:1;stroke:none"
       id="flowRoot23068">
      <path
         d="m -1069.7227,327.4682 q 3.4688,0 6.6563,1.03125 3.2812,1.03125 5.7187,3 2.4375,1.875 3.8438,4.59375 1.5,2.625 1.5,6 0,2.71875 -1.0313,5.4375 -1.0312,2.71875 -2.9062,4.875 -1.7813,2.15625 -4.3125,3.5625 -2.4375,1.3125 -5.4375,1.3125 -8.625,0 -8.625,-9.09375 0,-1.78125 0.4687,-3.46875 0.4688,-1.6875 1.125,-3.375 h 4.7813 q -1.0313,2.8125 -1.4063,4.59375 -0.2812,1.78125 -0.2812,3.28125 0,3.375 3.75,3.375 3.375,0 5.7187,-2.53125 2.4375,-2.53125 3.4688,-7.78125 -0.4688,-4.96875 -4.125,-7.5 -3.5625,-2.625 -8.4375,-2.625 -4.5938,0 -7.5938,1.78125 -3,1.78125 -4.7812,4.6875 -1.7813,2.8125 -2.5313,6.375 -0.75,3.5625 -0.75,7.125 0,4.03125 1.7813,6.9375 1.875,2.8125 4.6875,5.34375 2.9062,2.53125 6.2812,5.25 3.4688,2.625 6.6563,6.375 3.1875,3.65625 5.625,8.90625 2.5312,5.15625 3.5625,12.75 h -4.6875 q -0.4688,-6.5625 -2.8125,-11.15625 -2.25,-4.59375 -5.4375,-8.0625 -3.1875,-3.46875 -6.75,-6.1875 -3.5625,-2.8125 -6.6563,-5.71875 -3,-3 -4.9687,-6.46875 -1.9688,-3.5625 -1.9688,-8.4375 0,-4.5 1.125,-8.8125 1.125,-4.40625 3.4688,-7.78125 2.4375,-3.46875 6.1875,-5.53125 3.75,-2.0625 9.0937,-2.0625 z m 43.125,0 q 3.4688,0 6.6563,1.03125 3.2812,1.03125 5.7187,3 2.4375,1.875 3.8438,4.59375 1.5,2.625 1.5,6 0,2.71875 -1.0313,5.4375 -1.0312,2.71875 -2.9062,4.875 -1.7813,2.15625 -4.3125,3.5625 -2.4375,1.3125 -5.4375,1.3125 -8.625,0 -8.625,-9.09375 0,-1.78125 0.4687,-3.46875 0.4688,-1.6875 1.125,-3.375 h 4.7813 q -1.0313,2.8125 -1.4063,4.59375 -0.2812,1.78125 -0.2812,3.28125 0,3.375 3.75,3.375 3.375,0 5.7187,-2.53125 2.4375,-2.53125 3.4688,-7.78125 -0.4688,-4.96875 -4.125,-7.5 -3.5625,-2.625 -8.4375,-2.625 -4.5938,0 -7.5938,1.78125 -3,1.78125 -4.7812,4.6875 -1.7813,2.8125 -2.5313,6.375 -0.75,3.5625 -0.75,7.125 0,4.03125 1.7813,6.9375 1.875,2.8125 4.6875,5.34375 2.9062,2.53125 6.2812,5.25 3.4688,2.625 6.6563,6.375 3.1875,3.65625 5.625,8.90625 2.5312,5.15625 3.5625,12.75 h -4.6875 q -0.4688,-6.5625 -2.8125,-11.15625 -2.25,-4.59375 -5.4375,-8.0625 -3.1875,-3.46875 -6.75,-6.1875 -3.5625,-2.8125 -6.6563,-5.71875 -3,-3 -4.9687,-6.46875 -1.9688,-3.5625 -1.9688,-8.4375 0,-4.5 1.125,-8.8125 1.125,-4.40625 3.4688,-7.78125 2.4375,-3.46875 6.1875,-5.53125 3.75,-2.0625 9.0937,-2.0625 z m 43.12504,0 q 3.46875,0 6.65625,1.03125 3.28125,1.03125 5.71875,3 2.4375,1.875 3.84375,4.59375 1.5,2.625 1.5,6 0,2.71875 -1.03125,5.4375 -1.03125,2.71875 -2.90625,4.875 -1.78125,2.15625 -4.3125,3.5625 -2.4375,1.3125 -5.4375,1.3125 -8.625,0 -8.625,-9.09375 0,-1.78125 0.46875,-3.46875 0.46875,-1.6875 1.125,-3.375 h 4.78125 q -1.03125,2.8125 -1.40625,4.59375 -0.28125,1.78125 -0.28125,3.28125 0,3.375 3.75,3.375 3.375,0 5.71875,-2.53125 2.4375,-2.53125 3.46875,-7.78125 -0.46875,-4.96875 -4.125,-7.5 -3.5625,-2.625 -8.4375,-2.625 -4.59375,0 -7.59375,1.78125 -3,1.78125 -4.78125,4.6875 -1.78125,2.8125 -2.53125,6.375 -0.75,3.5625 -0.75,7.125 0,4.03125 1.78125,6.9375 1.875,2.8125 4.6875,5.34375 2.90625,2.53125 6.28125,5.25 3.46875,2.625 6.65625,6.375 3.1875,3.65625 5.625,8.90625 2.53125,5.15625 3.5625,12.75 h -4.6875 q -0.46875,-6.5625 -2.8125,-11.15625 -2.25,-4.59375 -5.4375,-8.0625 -3.1875,-3.46875 -6.75,-6.1875 -3.5625,-2.8125 -6.65625,-5.71875 -3,-3 -4.96874,-6.46875 -1.9688,-3.5625 -1.9688,-8.4375 0,-4.5 1.125,-8.8125 1.125,-4.40625 3.46879,-7.78125 2.4375,-3.46875 6.1875,-5.53125 3.75,-2.0625 9.09375,-2.0625 z m 43.125,0 q 3.46875,0 6.65625,1.03125 3.28125,1.03125 5.71875,3 2.4375,1.875 3.84375,4.59375 1.5,2.625 1.5,6 0,2.71875 -1.03125,5.4375 -1.03125,2.71875 -2.90625,4.875 -1.78125,2.15625 -4.3125,3.5625 -2.4375,1.3125 -5.4375,1.3125 -8.625,0 -8.625,-9.09375 0,-1.78125 0.46875,-3.46875 0.46875,-1.6875 1.125,-3.375 h 4.78125 q -1.03125,2.8125 -1.40625,4.59375 -0.28125,1.78125 -0.28125,3.28125 0,3.375 3.75,3.375 3.375,0 5.71875,-2.53125 2.4375,-2.53125 3.46875,-7.78125 -0.46875,-4.96875 -4.125,-7.5 -3.5625,-2.625 -8.4375,-2.625 -4.59375,0 -7.59375,1.78125 -3,1.78125 -4.78125,4.6875 -1.78125,2.8125 -2.53125,6.375 -0.75,3.5625 -0.75,7.125 0,4.03125 1.78125,6.9375 1.875,2.8125 4.6875,5.34375 2.90625,2.53125 6.28125,5.25 3.46875,2.625 6.65625,6.375 3.1875,3.65625 5.625,8.90625 2.53125,5.15625 3.5625,12.75 h -4.6875 q -0.46875,-6.5625 -2.8125,-11.15625 -2.25,-4.59375 -5.4375,-8.0625 -3.1875,-3.46875 -6.75,-6.1875 -3.5625,-2.8125 -6.65625,-5.71875 -3,-3 -4.96875,-6.46875 -1.96875,-3.5625 -1.96875,-8.4375 0,-4.5 1.125,-8.8125 1.125,-4.40625 3.46875,-7.78125 2.4375,-3.46875 6.1875,-5.53125 3.75,-2.0625 9.09375,-2.0625 z m -129.37504,-74.15625 q 3.4688,0 6.6563,1.03125 3.2812,1.03125 5.7187,3 2.4375,1.875 3.8438,4.59375 1.5,2.625 1.5,6 0,2.71875 -1.0313,5.4375 -1.0312,2.71875 -2.9062,4.875 -1.7813,2.15625 -4.3125,3.5625 -2.4375,1.3125 -5.4375,1.3125 -8.625,0 -8.625,-9.09375 0,-1.78125 0.4687,-3.46875 0.4688,-1.6875 1.125,-3.375 h 4.7813 q -1.0313,2.8125 -1.4063,4.59375 -0.2812,1.78125 -0.2812,3.28125 0,3.375 3.75,3.375 3.375,0 5.7187,-2.53125 2.4375,-2.53125 3.4688,-7.78125 -0.4688,-4.96875 -4.125,-7.5 -3.5625,-2.625 -8.4375,-2.625 -4.5938,0 -7.5938,1.78125 -3,1.78125 -4.7812,4.6875 -1.7813,2.8125 -2.5313,6.375 -0.75,3.5625 -0.75,7.125 0,4.03125 1.7813,6.9375 1.875,2.8125 4.6875,5.34375 2.9062,2.53125 6.2812,5.25 3.4688,2.625 6.6563,6.375 3.1875,3.65625 5.625,8.90625 2.5312,5.15625 3.5625,12.75 h -4.6875 q -0.4688,-6.5625 -2.8125,-11.15625 -2.25,-4.59375 -5.4375,-8.0625 -3.1875,-3.46875 -6.75,-6.1875 -3.5625,-2.8125 -6.6563,-5.71875 -3,-3 -4.9687,-6.46875 -1.9688,-3.46875 -1.9688,-8.4375 0,-4.5 1.125,-8.8125 1.125,-4.40625 3.4688,-7.78125 2.4375,-3.46875 6.1875,-5.53125 3.75,-2.0625 9.0937,-2.0625 z m 43.125,0 q 3.4688,0 6.6563,1.03125 3.2812,1.03125 5.7187,3 2.4375,1.875 3.8438,4.59375 1.5,2.625 1.5,6 0,2.71875 -1.0313,5.4375 -1.0312,2.71875 -2.9062,4.875 -1.7813,2.15625 -4.3125,3.5625 -2.4375,1.3125 -5.4375,1.3125 -8.625,0 -8.625,-9.09375 0,-1.78125 0.4687,-3.46875 0.4688,-1.6875 1.125,-3.375 h 4.7813 q -1.0313,2.8125 -1.4063,4.59375 -0.2812,1.78125 -0.2812,3.28125 0,3.375 3.75,3.375 3.375,0 5.7187,-2.53125 2.4375,-2.53125 3.4688,-7.78125 -0.4688,-4.96875 -4.125,-7.5 -3.5625,-2.625 -8.4375,-2.625 -4.5938,0 -7.5938,1.78125 -3,1.78125 -4.7812,4.6875 -1.7813,2.8125 -2.5313,6.375 -0.75,3.5625 -0.75,7.125 0,4.03125 1.7813,6.9375 1.875,2.8125 4.6875,5.34375 2.9062,2.53125 6.2812,5.25 3.4688,2.625 6.6563,6.375 3.1875,3.65625 5.625,8.90625 2.5312,5.15625 3.5625,12.75 h -4.6875 q -0.4688,-6.5625 -2.8125,-11.15625 -2.25,-4.59375 -5.4375,-8.0625 -3.1875,-3.46875 -6.75,-6.1875 -3.5625,-2.8125 -6.6563,-5.71875 -3,-3 -4.9687,-6.46875 -1.9688,-3.46875 -1.9688,-8.4375 0,-4.5 1.125,-8.8125 1.125,-4.40625 3.4688,-7.78125 2.4375,-3.46875 6.1875,-5.53125 3.75,-2.0625 9.0937,-2.0625 z m 43.12504,0 q 3.46875,0 6.65625,1.03125 3.28125,1.03125 5.71875,3 2.4375,1.875 3.84375,4.59375 1.5,2.625 1.5,6 0,2.71875 -1.03125,5.4375 -1.03125,2.71875 -2.90625,4.875 -1.78125,2.15625 -4.3125,3.5625 -2.4375,1.3125 -5.4375,1.3125 -8.625,0 -8.625,-9.09375 0,-1.78125 0.46875,-3.46875 0.46875,-1.6875 1.125,-3.375 h 4.78125 q -1.03125,2.8125 -1.40625,4.59375 -0.28125,1.78125 -0.28125,3.28125 0,3.375 3.75,3.375 3.375,0 5.71875,-2.53125 2.4375,-2.53125 3.46875,-7.78125 -0.46875,-4.96875 -4.125,-7.5 -3.5625,-2.625 -8.4375,-2.625 -4.59375,0 -7.59375,1.78125 -3,1.78125 -4.78125,4.6875 -1.78125,2.8125 -2.53125,6.375 -0.75,3.5625 -0.75,7.125 0,4.03125 1.78125,6.9375 1.875,2.8125 4.6875,5.34375 2.90625,2.53125 6.28125,5.25 3.46875,2.625 6.65625,6.375 3.1875,3.65625 5.625,8.90625 2.53125,5.15625 3.5625,12.75 h -4.6875 q -0.46875,-6.5625 -2.8125,-11.15625 -2.25,-4.59375 -5.4375,-8.0625 -3.1875,-3.46875 -6.75,-6.1875 -3.5625,-2.8125 -6.65625,-5.71875 -3,-3 -4.96874,-6.46875 -1.9688,-3.46875 -1.9688,-8.4375 0,-4.5 1.125,-8.8125 1.125,-4.40625 3.46879,-7.78125 2.4375,-3.46875 6.1875,-5.53125 3.75,-2.0625 9.09375,-2.0625 z m 43.125,0 q 3.46875,0 6.65625,1.03125 3.28125,1.03125 5.71875,3 2.4375,1.875 3.84375,4.59375 1.5,2.625 1.5,6 0,2.71875 -1.03125,5.4375 -1.03125,2.71875 -2.90625,4.875 -1.78125,2.15625 -4.3125,3.5625 -2.4375,1.3125 -5.4375,1.3125 -8.625,0 -8.625,-9.09375 0,-1.78125 0.46875,-3.46875 0.46875,-1.6875 1.125,-3.375 h 4.78125 q -1.03125,2.8125 -1.40625,4.59375 -0.28125,1.78125 -0.28125,3.28125 0,3.375 3.75,3.375 3.375,0 5.71875,-2.53125 2.4375,-2.53125 3.46875,-7.78125 -0.46875,-4.96875 -4.125,-7.5 -3.5625,-2.625 -8.4375,-2.625 -4.59375,0 -7.59375,1.78125 -3,1.78125 -4.78125,4.6875 -1.78125,2.8125 -2.53125,6.375 -0.75,3.5625 -0.75,7.125 0,4.03125 1.78125,6.9375 1.875,2.8125 4.6875,5.34375 2.90625,2.53125 6.28125,5.25 3.46875,2.625 6.65625,6.375 3.1875,3.65625 5.625,8.90625 2.53125,5.15625 3.5625,12.75 h -4.6875 q -0.46875,-6.5625 -2.8125,-11.15625 -2.25,-4.59375 -5.4375,-8.0625 -3.1875,-3.46875 -6.75,-6.1875 -3.5625,-2.8125 -6.65625,-5.71875 -3,-3 -4.96875,-6.46875 -1.96875,-3.46875 -1.96875,-8.4375 0,-4.5 1.125,-8.8125 1.125,-4.40625 3.46875,-7.78125 2.4375,-3.46875 6.1875,-5.53125 3.75,-2.0625 9.09375,-2.0625 z"
         id="path23076"
         inkscape:connector-curvature="0" />
    </g>
  </g>
</svg>
