<?xml version="1.0" encoding="UTF-8" standalone="no"?>
<!-- Created with Inkscape (http://www.inkscape.org/) -->

<svg
   xmlns:dc="http://purl.org/dc/elements/1.1/"
   xmlns:cc="http://creativecommons.org/ns#"
   xmlns:rdf="http://www.w3.org/1999/02/22-rdf-syntax-ns#"
   xmlns:svg="http://www.w3.org/2000/svg"
   xmlns="http://www.w3.org/2000/svg"
   xmlns:sodipodi="http://sodipodi.sourceforge.net/DTD/sodipodi-0.dtd"
   xmlns:inkscape="http://www.inkscape.org/namespaces/inkscape"
   width="29.294323mm"
   height="26.813868mm"
   viewBox="0 0 29.294323 26.813868"
   version="1.1"
   id="svg34321"
   inkscape:version="0.92.4 (5da689c313, 2019-01-14)"
   sodipodi:docname="V20B.svg">
  <defs
     id="defs34315" />
  <sodipodi:namedview
     id="base"
     pagecolor="#ffffff"
     bordercolor="#666666"
     borderopacity="1.0"
     inkscape:pageopacity="0.0"
     inkscape:pageshadow="2"
     inkscape:zoom="0.35"
     inkscape:cx="836.74019"
     inkscape:cy="-284.83274"
     inkscape:document-units="mm"
     inkscape:current-layer="layer1"
     showgrid="false"
     fit-margin-top="0"
     fit-margin-left="0"
     fit-margin-right="0"
     fit-margin-bottom="0"
     inkscape:window-width="1920"
     inkscape:window-height="1017"
     inkscape:window-x="-8"
     inkscape:window-y="-8"
     inkscape:window-maximized="1" />
  <metadata
     id="metadata34318">
    <rdf:RDF>
      <cc:Work
         rdf:about="">
        <dc:format>image/svg+xml</dc:format>
        <dc:type
           rdf:resource="http://purl.org/dc/dcmitype/StillImage" />
        <dc:title></dc:title>
      </cc:Work>
    </rdf:RDF>
  </metadata>
  <g
     inkscape:label="Layer 1"
     inkscape:groupmode="layer"
     id="layer1"
     transform="translate(308.70001,-46.657471)">
    <g
       aria-label="𓎈"
       transform="scale(0.26458333)"
       style="font-style:normal;font-variant:normal;font-weight:normal;font-stretch:normal;font-size:192px;line-height:1.25;font-family:sans-serif;-inkscape-font-specification:sans-serif;font-variant-ligatures:normal;font-variant-caps:normal;font-variant-numeric:normal;font-feature-settings:normal;text-align:start;letter-spacing:0px;word-spacing:0px;writing-mode:lr-tb;text-anchor:start;fill:#000000;fill-opacity:1;stroke:none"
       id="flowRoot34866">
      <path
         d="M -1092.584,277.68695 V 253.5932 q 0,-3.1875 -1.4062,-6.46875 -1.4063,-3.28125 -3.9375,-5.8125 -2.4375,-2.625 -5.9063,-4.21875 -3.4687,-1.6875 -7.5937,-1.6875 -4.125,0 -7.5938,1.59375 -3.375,1.59375 -5.9062,4.21875 -2.4375,2.625 -3.8438,5.90625 -1.4062,3.1875 -1.4062,6.46875 v 24.09375 h -4.6875 v -24.1875 q 0,-4.6875 1.875,-8.8125 1.9687,-4.21875 5.1562,-7.3125 3.2813,-3.09375 7.5,-4.875 4.2188,-1.78125 8.9063,-1.78125 4.6875,0 8.9062,1.78125 4.3125,1.78125 7.5,4.875 3.2813,3 5.1563,7.21875 1.9687,4.125 1.9687,8.90625 v 24.1875 z m 31.875,-54.375 V 199.2182 q 0,-3.1875 -1.4062,-6.46875 -1.4063,-3.28125 -3.9375,-5.8125 -2.4375,-2.625 -5.9063,-4.21875 -3.4687,-1.6875 -7.5937,-1.6875 -4.125,0 -7.5938,1.59375 -3.375,1.59375 -5.9062,4.21875 -2.4375,2.625 -3.8438,5.90625 -1.4062,3.1875 -1.4062,6.46875 v 24.09375 h -4.6875 v -24.1875 q 0,-4.6875 1.875,-8.8125 1.9687,-4.21875 5.1562,-7.3125 3.2813,-3.09375 7.5,-4.875 4.2188,-1.78125 8.9063,-1.78125 4.6875,0 8.9062,1.78125 4.3125,1.78125 7.5,4.875 3.2813,3 5.1563,7.21875 1.9687,4.125 1.9687,8.90625 v 24.1875 z m -63.75,0 V 199.2182 q 0,-3.1875 -1.4062,-6.46875 -1.4063,-3.28125 -3.9375,-5.8125 -2.4375,-2.625 -5.9063,-4.21875 -3.4687,-1.6875 -7.5937,-1.6875 -4.125,0 -7.5938,1.59375 -3.375,1.59375 -5.9062,4.21875 -2.4375,2.625 -3.8438,5.90625 -1.4062,3.1875 -1.4062,6.46875 v 24.09375 h -4.6875 v -24.1875 q 0,-4.6875 1.875,-8.8125 1.9687,-4.21875 5.1562,-7.3125 3.2813,-3.09375 7.5,-4.875 4.2188,-1.78125 8.9063,-1.78125 4.6875,0 8.9062,1.78125 4.3125,1.78125 7.5,4.875 3.2813,3 5.1563,7.21875 1.9687,4.125 1.9687,8.90625 v 24.1875 z"
         id="path34874"
         inkscape:connector-curvature="0" />
    </g>
  </g>
</svg>
