<?xml version="1.0" encoding="UTF-8" standalone="no"?>
<!-- Created with Inkscape (http://www.inkscape.org/) -->

<svg
   xmlns:dc="http://purl.org/dc/elements/1.1/"
   xmlns:cc="http://creativecommons.org/ns#"
   xmlns:rdf="http://www.w3.org/1999/02/22-rdf-syntax-ns#"
   xmlns:svg="http://www.w3.org/2000/svg"
   xmlns="http://www.w3.org/2000/svg"
   xmlns:sodipodi="http://sodipodi.sourceforge.net/DTD/sodipodi-0.dtd"
   xmlns:inkscape="http://www.inkscape.org/namespaces/inkscape"
   width="46.161518mm"
   height="41.200584mm"
   viewBox="0 0 46.161518 41.200584"
   version="1.1"
   id="svg37685"
   inkscape:version="0.92.4 (5da689c313, 2019-01-14)"
   sodipodi:docname="V20H.svg">
  <defs
     id="defs37679" />
  <sodipodi:namedview
     id="base"
     pagecolor="#ffffff"
     bordercolor="#666666"
     borderopacity="1.0"
     inkscape:pageopacity="0.0"
     inkscape:pageshadow="2"
     inkscape:zoom="0.35"
     inkscape:cx="653.88386"
     inkscape:cy="-268.57142"
     inkscape:document-units="mm"
     inkscape:current-layer="layer1"
     showgrid="false"
     fit-margin-top="0"
     fit-margin-left="0"
     fit-margin-right="0"
     fit-margin-bottom="0"
     inkscape:window-width="1920"
     inkscape:window-height="1017"
     inkscape:window-x="-8"
     inkscape:window-y="-8"
     inkscape:window-maximized="1" />
  <metadata
     id="metadata37682">
    <rdf:RDF>
      <cc:Work
         rdf:about="">
        <dc:format>image/svg+xml</dc:format>
        <dc:type
           rdf:resource="http://purl.org/dc/dcmitype/StillImage" />
        <dc:title></dc:title>
      </cc:Work>
    </rdf:RDF>
  </metadata>
  <g
     inkscape:label="Layer 1"
     inkscape:groupmode="layer"
     id="layer1"
     transform="translate(260.31927,-36.573226)">
    <g
       aria-label="𓎎"
       style="font-style:normal;font-variant:normal;font-weight:normal;font-stretch:normal;font-size:50.79999924px;line-height:1.25;font-family:sans-serif;-inkscape-font-specification:sans-serif;font-variant-ligatures:normal;font-variant-caps:normal;font-variant-numeric:normal;font-feature-settings:normal;text-align:start;letter-spacing:0px;word-spacing:0px;writing-mode:lr-tb;text-anchor:start;fill:#000000;fill-opacity:1;stroke:none;stroke-width:0.26458332"
       id="text38232">
      <path
         d="m -249.13236,77.773811 v -6.374804 q 0,-0.84336 -0.37207,-1.711524 -0.37207,-0.868164 -1.0418,-1.53789 -0.64492,-0.694532 -1.56269,-1.116211 -0.91778,-0.446485 -2.00918,-0.446485 -1.09141,0 -2.00918,0.42168 -0.89297,0.42168 -1.5627,1.116211 -0.64492,0.694531 -1.01699,1.562695 -0.37207,0.84336 -0.37207,1.711524 v 6.374804 h -1.24023 v -6.399609 q 0,-1.240234 0.49609,-2.331641 0.5209,-1.11621 1.36426,-1.934765 0.86816,-0.818555 1.98437,-1.289844 1.11621,-0.471289 2.35645,-0.471289 1.24023,0 2.35644,0.471289 1.14102,0.471289 1.98438,1.289844 0.86816,0.79375 1.36425,1.909961 0.5209,1.091406 0.5209,2.356445 v 6.399609 z m 16.86719,0 v -6.374804 q 0,-0.84336 -0.37207,-1.711524 -0.37207,-0.868164 -1.0418,-1.53789 -0.64492,-0.694532 -1.5627,-1.116211 -0.91777,-0.446485 -2.00918,-0.446485 -1.0914,0 -2.00918,0.42168 -0.89296,0.42168 -1.56269,1.116211 -0.64492,0.694531 -1.01699,1.562695 -0.37207,0.84336 -0.37207,1.711524 v 6.374804 h -1.24024 v -6.399609 q 0,-1.240234 0.4961,-2.331641 0.52089,-1.11621 1.36425,-1.934765 0.86817,-0.818555 1.98438,-1.289844 1.11621,-0.471289 2.35644,-0.471289 1.24024,0 2.35645,0.471289 1.14101,0.471289 1.98437,1.289844 0.86817,0.79375 1.36426,1.909961 0.5209,1.091406 0.5209,2.356445 v 6.399609 z m 16.86718,0 v -6.374804 q 0,-0.84336 -0.37207,-1.711524 -0.37207,-0.868164 -1.04179,-1.53789 -0.64493,-0.694532 -1.5627,-1.116211 -0.91777,-0.446485 -2.00918,-0.446485 -1.0914,0 -2.00918,0.42168 -0.89297,0.42168 -1.56269,1.116211 -0.64493,0.694531 -1.017,1.562695 -0.37207,0.84336 -0.37207,1.711524 v 6.374804 h -1.24023 v -6.399609 q 0,-1.240234 0.49609,-2.331641 0.5209,-1.11621 1.36426,-1.934765 0.86817,-0.818555 1.98438,-1.289844 1.11621,-0.471289 2.35644,-0.471289 1.24024,0 2.35645,0.471289 1.14101,0.471289 1.98437,1.289844 0.86817,0.79375 1.36426,1.909961 0.5209,1.091406 0.5209,2.356445 v 6.399609 z m -16.86718,-14.386718 v -6.374805 q 0,-0.843359 -0.37207,-1.711523 -0.37207,-0.868164 -1.0418,-1.537891 -0.64492,-0.694531 -1.5627,-1.116211 -0.91777,-0.446484 -2.00918,-0.446484 -1.0914,0 -2.00918,0.42168 -0.89296,0.421679 -1.56269,1.116211 -0.64492,0.694531 -1.01699,1.562695 -0.37207,0.843359 -0.37207,1.711523 v 6.374805 h -1.24024 v -6.399609 q 0,-1.240235 0.4961,-2.331641 0.52089,-1.116211 1.36425,-1.934766 0.86817,-0.818554 1.98438,-1.289843 1.11621,-0.471289 2.35644,-0.471289 1.24024,0 2.35645,0.471289 1.14101,0.471289 1.98437,1.289843 0.86817,0.79375 1.36426,1.909961 0.5209,1.091406 0.5209,2.356446 v 6.399609 z m 16.86718,0 v -6.374805 q 0,-0.843359 -0.37207,-1.711523 -0.37207,-0.868164 -1.04179,-1.537891 -0.64493,-0.694531 -1.5627,-1.116211 -0.91777,-0.446484 -2.00918,-0.446484 -1.0914,0 -2.00918,0.42168 -0.89297,0.421679 -1.56269,1.116211 -0.64493,0.694531 -1.017,1.562695 -0.37207,0.843359 -0.37207,1.711523 v 6.374805 h -1.24023 v -6.399609 q 0,-1.240235 0.49609,-2.331641 0.5209,-1.116211 1.36426,-1.934766 0.86817,-0.818554 1.98438,-1.289843 1.11621,-0.471289 2.35644,-0.471289 1.24024,0 2.35645,0.471289 1.14101,0.471289 1.98437,1.289843 0.86817,0.79375 1.36426,1.909961 0.5209,1.091406 0.5209,2.356446 v 6.399609 z M -249.13236,49.000374 V 42.62557 q 0,-0.84336 -0.37207,-1.711524 -0.37207,-0.868164 -1.0418,-1.53789 -0.64492,-0.694532 -1.56269,-1.116211 -0.91778,-0.446485 -2.00918,-0.446485 -1.09141,0 -2.00918,0.42168 -0.89297,0.42168 -1.5627,1.116211 -0.64492,0.694531 -1.01699,1.562695 -0.37207,0.84336 -0.37207,1.711524 v 6.374804 h -1.24023 v -6.399609 q 0,-1.240234 0.49609,-2.331641 0.5209,-1.116211 1.36426,-1.934765 0.86816,-0.818555 1.98437,-1.289844 1.11621,-0.471289 2.35645,-0.471289 1.24023,0 2.35644,0.471289 1.14102,0.471289 1.98438,1.289844 0.86816,0.79375 1.36425,1.909961 0.5209,1.091406 0.5209,2.356445 v 6.399609 z m 16.86719,0 V 42.62557 q 0,-0.84336 -0.37207,-1.711524 -0.37207,-0.868164 -1.0418,-1.53789 -0.64492,-0.694532 -1.5627,-1.116211 -0.91777,-0.446485 -2.00918,-0.446485 -1.0914,0 -2.00918,0.42168 -0.89296,0.42168 -1.56269,1.116211 -0.64492,0.694531 -1.01699,1.562695 -0.37207,0.84336 -0.37207,1.711524 v 6.374804 h -1.24024 v -6.399609 q 0,-1.240234 0.4961,-2.331641 0.52089,-1.116211 1.36425,-1.934765 0.86817,-0.818555 1.98438,-1.289844 1.11621,-0.471289 2.35644,-0.471289 1.24024,0 2.35645,0.471289 1.14101,0.471289 1.98437,1.289844 0.86817,0.79375 1.36426,1.909961 0.5209,1.091406 0.5209,2.356445 v 6.399609 z m 16.86718,0 V 42.62557 q 0,-0.84336 -0.37207,-1.711524 -0.37207,-0.868164 -1.04179,-1.53789 -0.64493,-0.694532 -1.5627,-1.116211 -0.91777,-0.446485 -2.00918,-0.446485 -1.0914,0 -2.00918,0.42168 -0.89297,0.42168 -1.56269,1.116211 -0.64493,0.694531 -1.017,1.562695 -0.37207,0.84336 -0.37207,1.711524 v 6.374804 h -1.24023 v -6.399609 q 0,-1.240234 0.49609,-2.331641 0.5209,-1.116211 1.36426,-1.934765 0.86817,-0.818555 1.98438,-1.289844 1.11621,-0.471289 2.35644,-0.471289 1.24024,0 2.35645,0.471289 1.14101,0.471289 1.98437,1.289844 0.86817,0.79375 1.36426,1.909961 0.5209,1.091406 0.5209,2.356445 v 6.399609 z m -33.73437,14.386719 v -6.374805 q 0,-0.843359 -0.37207,-1.711523 -0.37207,-0.868164 -1.0418,-1.537891 -0.64492,-0.694531 -1.56269,-1.116211 -0.91778,-0.446484 -2.00918,-0.446484 -1.09141,0 -2.00918,0.42168 -0.89297,0.421679 -1.5627,1.116211 -0.64492,0.694531 -1.01699,1.562695 -0.37207,0.843359 -0.37207,1.711523 v 6.374805 h -1.24023 v -6.399609 q 0,-1.240235 0.49609,-2.331641 0.5209,-1.116211 1.36426,-1.934766 0.86816,-0.818554 1.98437,-1.289843 1.11621,-0.471289 2.35645,-0.471289 1.24023,0 2.35644,0.471289 1.14102,0.471289 1.98438,1.289843 0.86816,0.79375 1.36425,1.909961 0.5209,1.091406 0.5209,2.356446 v 6.399609 z"
         style="stroke-width:0.26458332"
         id="path38234"
         inkscape:connector-curvature="0" />
    </g>
  </g>
</svg>
