<?xml version="1.0" encoding="UTF-8" standalone="no"?>
<!-- Created with Inkscape (http://www.inkscape.org/) -->

<svg
   xmlns:dc="http://purl.org/dc/elements/1.1/"
   xmlns:cc="http://creativecommons.org/ns#"
   xmlns:rdf="http://www.w3.org/1999/02/22-rdf-syntax-ns#"
   xmlns:svg="http://www.w3.org/2000/svg"
   xmlns="http://www.w3.org/2000/svg"
   xmlns:sodipodi="http://sodipodi.sourceforge.net/DTD/sodipodi-0.dtd"
   xmlns:inkscape="http://www.inkscape.org/namespaces/inkscape"
   width="46.161522mm"
   height="12.427148mm"
   viewBox="0 0 46.161522 12.427148"
   version="1.1"
   id="svg38805"
   inkscape:version="0.92.4 (5da689c313, 2019-01-14)"
   sodipodi:docname="V20J.svg">
  <defs
     id="defs38799" />
  <sodipodi:namedview
     id="base"
     pagecolor="#ffffff"
     bordercolor="#666666"
     borderopacity="1.0"
     inkscape:pageopacity="0.0"
     inkscape:pageshadow="2"
     inkscape:zoom="0.35"
     inkscape:cx="196.74022"
     inkscape:cy="-290.54758"
     inkscape:document-units="mm"
     inkscape:current-layer="layer1"
     showgrid="false"
     fit-margin-top="0"
     fit-margin-left="0"
     fit-margin-right="0"
     fit-margin-bottom="0"
     inkscape:window-width="1920"
     inkscape:window-height="1017"
     inkscape:window-x="-8"
     inkscape:window-y="-8"
     inkscape:window-maximized="1" />
  <metadata
     id="metadata38802">
    <rdf:RDF>
      <cc:Work
         rdf:about="">
        <dc:format>image/svg+xml</dc:format>
        <dc:type
           rdf:resource="http://purl.org/dc/dcmitype/StillImage" />
        <dc:title></dc:title>
      </cc:Work>
    </rdf:RDF>
  </metadata>
  <g
     inkscape:label="Layer 1"
     inkscape:groupmode="layer"
     id="layer1"
     transform="translate(139.36668,-59.532138)">
    <g
       aria-label="ð“Ž"
       transform="scale(0.26458333)"
       style="font-style:normal;font-variant:normal;font-weight:normal;font-stretch:normal;font-size:192px;line-height:1.25;font-family:sans-serif;-inkscape-font-specification:sans-serif;font-variant-ligatures:normal;font-variant-caps:normal;font-variant-numeric:normal;font-feature-settings:normal;text-align:start;letter-spacing:0px;word-spacing:0px;writing-mode:lr-tb;text-anchor:start;fill:#000000;fill-opacity:1;stroke:none"
       id="flowRoot39350">
      <path
         d="m -484.45898,271.97211 v -24.09375 q 0,-3.1875 -1.40625,-6.46875 -1.40625,-3.28125 -3.9375,-5.8125 -2.4375,-2.625 -5.90625,-4.21875 -3.46875,-1.6875 -7.59375,-1.6875 -4.125,0 -7.59375,1.59375 -3.375,1.59375 -5.90625,4.21875 -2.4375,2.625 -3.84375,5.90625 -1.40625,3.1875 -1.40625,6.46875 v 24.09375 h -4.6875 v -24.1875 q 0,-4.6875 1.875,-8.8125 1.96875,-4.21875 5.15625,-7.3125 3.28125,-3.09375 7.5,-4.875 4.21875,-1.78125 8.90625,-1.78125 4.6875,0 8.90625,1.78125 4.3125,1.78125 7.5,4.875 3.28125,3 5.15625,7.21875 1.96875,4.125 1.96875,8.90625 v 24.1875 z m 63.75,0 v -24.09375 q 0,-3.1875 -1.40625,-6.46875 -1.40625,-3.28125 -3.9375,-5.8125 -2.4375,-2.625 -5.90625,-4.21875 -3.46875,-1.6875 -7.59375,-1.6875 -4.125,0 -7.59375,1.59375 -3.375,1.59375 -5.90625,4.21875 -2.4375,2.625 -3.84375,5.90625 -1.40625,3.1875 -1.40625,6.46875 v 24.09375 h -4.6875 v -24.1875 q 0,-4.6875 1.875,-8.8125 1.96875,-4.21875 5.15625,-7.3125 3.28125,-3.09375 7.5,-4.875 4.21875,-1.78125 8.90625,-1.78125 4.6875,0 8.90625,1.78125 4.3125,1.78125 7.5,4.875 3.28125,3 5.15625,7.21875 1.96875,4.125 1.96875,8.90625 v 24.1875 z m 63.75,0 v -24.09375 q 0,-3.1875 -1.40625,-6.46875 -1.40625,-3.28125 -3.9375,-5.8125 -2.4375,-2.625 -5.90625,-4.21875 -3.46875,-1.6875 -7.59375,-1.6875 -4.125,0 -7.59375,1.59375 -3.375,1.59375 -5.90625,4.21875 -2.4375,2.625 -3.84375,5.90625 -1.40625,3.1875 -1.40625,6.46875 v 24.09375 h -4.6875 v -24.1875 q 0,-4.6875 1.875,-8.8125 1.96875,-4.21875 5.15625,-7.3125 3.28125,-3.09375 7.5,-4.875 4.21875,-1.78125 8.90625,-1.78125 4.6875,0 8.90625,1.78125 4.3125,1.78125 7.5,4.875 3.28125,3 5.15625,7.21875 1.96875,4.125 1.96875,8.90625 v 24.1875 z"
         id="path39358"
         inkscape:connector-curvature="0" />
    </g>
  </g>
</svg>
