<?xml version="1.0" encoding="UTF-8" standalone="no"?>
<!-- Created with Inkscape (http://www.inkscape.org/) -->

<svg
   xmlns:dc="http://purl.org/dc/elements/1.1/"
   xmlns:cc="http://creativecommons.org/ns#"
   xmlns:rdf="http://www.w3.org/1999/02/22-rdf-syntax-ns#"
   xmlns:svg="http://www.w3.org/2000/svg"
   xmlns="http://www.w3.org/2000/svg"
   xmlns:sodipodi="http://sodipodi.sourceforge.net/DTD/sodipodi-0.dtd"
   xmlns:inkscape="http://www.inkscape.org/namespaces/inkscape"
   width="37.678322mm"
   height="37.628712mm"
   viewBox="0 0 37.678322 37.628712"
   version="1.1"
   id="svg8"
   inkscape:version="0.92.4 (5da689c313, 2019-01-14)"
   sodipodi:docname="V21.svg">
  <defs
     id="defs2" />
  <sodipodi:namedview
     id="base"
     pagecolor="#ffffff"
     bordercolor="#666666"
     borderopacity="1.0"
     inkscape:pageopacity="0.0"
     inkscape:pageshadow="2"
     inkscape:zoom="0.35"
     inkscape:cx="-340.40179"
     inkscape:cy="-347.16518"
     inkscape:document-units="mm"
     inkscape:current-layer="layer1"
     showgrid="false"
     fit-margin-top="0"
     fit-margin-left="0"
     fit-margin-right="0"
     fit-margin-bottom="0"
     inkscape:window-width="1920"
     inkscape:window-height="1017"
     inkscape:window-x="-8"
     inkscape:window-y="-8"
     inkscape:window-maximized="1" />
  <metadata
     id="metadata5">
    <rdf:RDF>
      <cc:Work
         rdf:about="">
        <dc:format>image/svg+xml</dc:format>
        <dc:type
           rdf:resource="http://purl.org/dc/dcmitype/StillImage" />
        <dc:title></dc:title>
      </cc:Work>
    </rdf:RDF>
  </metadata>
  <g
     inkscape:label="Layer 1"
     inkscape:groupmode="layer"
     id="layer1"
     transform="translate(-2.7521392,-19.350501)">
    <g
       aria-label="𓎓"
       style="font-style:normal;font-variant:normal;font-weight:normal;font-stretch:normal;font-size:50.79999924px;line-height:1.25;font-family:sans-serif;-inkscape-font-specification:'sans-serif, Normal';font-variant-ligatures:normal;font-variant-caps:normal;font-variant-numeric:normal;font-feature-settings:normal;text-align:start;letter-spacing:0px;word-spacing:0px;writing-mode:lr-tb;text-anchor:start;fill:#000000;fill-opacity:1;stroke:none;stroke-width:0.26458332"
       id="text4520">
      <path
         d="M 2.7521392,22.922378 Q 3.0994048,21.731753 3.8435454,21.037222 4.587686,20.342691 5.703897,19.871402 l 0.7441406,-0.322461 q 0.3224609,-0.148828 0.5953125,-0.148828 0.6449218,0 1.8851562,0.595312 1.2650387,0.595313 2.0091797,1.909961 0.744141,1.314649 0.744141,3.249414 0,0.818555 -0.148829,1.612305 -0.124023,0.79375 -0.396875,1.513086 0,0.595312 0.198438,0.917773 0.223242,0.297656 0.744141,0.42168 l 0.694531,0.198437 q 0.248047,0 0.545703,-0.04961 0.322461,-0.04961 0.595312,-0.09922 0.297657,-0.07441 0.620118,-0.173633 V 24.6339 q 0,-0.892969 0.421679,-1.612305 0.42168,-0.744141 1.091406,-1.314648 0.694532,-0.595313 1.562696,-1.041797 0.892969,-0.446485 1.810742,-0.719336 0.917773,-0.297656 1.810742,-0.446485 0.917774,-0.148828 1.637109,-0.148828 1.091407,0 2.455664,0.347266 1.364258,0.347266 2.579688,1.016992 1.21543,0.669727 2.033984,1.661914 0.818555,0.967383 0.818555,2.257227 v 4.514453 q 3.299023,0.595312 4.7625,1.934765 1.488281,1.339453 2.257226,3.720703 0.79375,2.38125 0.79375,5.903516 0,1.116211 -0.07441,2.232422 l -0.09922,1.488281 q -0.02481,0.37207 -0.04961,0.744141 0,0.37207 0,0.74414 0,2.530078 1.041797,5.506641 1.041797,2.951758 1.041797,4.316015 0,0.248047 -0.02481,0.496094 -0.0248,0.248047 -0.07441,0.496094 l -0.520898,0.248047 q -2.38125,-1.240235 -3.299024,-5.581055 -0.942578,-4.415234 -0.942578,-9.574609 0,-3.299024 -1.091406,-5.754688 -1.091406,-2.455664 -3.720703,-3.050976 V 56.607143 H 29.516397 V 32.819448 q -0.173633,-0.0248 -0.79375,-0.04961 -0.595313,-0.04961 -1.091407,-0.07441 -0.967382,-0.04961 -1.53789,-0.07441 h -1.21543 q -2.158008,0 -4.539258,0.04961 -2.356445,0.04961 -4.539257,0.148828 v 23.787695 h -1.265039 v -23.76289 h -2.182813 q -2.133203,0 -3.2990233,-0.719336 -1.1410156,-0.74414 -1.1410156,-2.133203 0,-0.868164 0.3720703,-2.033984 0.396875,-1.116211 0.396875,-1.885156 0,-0.79375 -0.4960937,-1.165821 -0.4712891,-0.396875 -1.1162109,-0.396875 -0.6201172,0 -1.2650391,0.223242 -0.6449219,0.198438 -1.2402343,0.198438 -1.3394532,0 -1.8107422,-1.860352 z m 26.7642578,1.736328 q 0,-0.868164 -0.669727,-1.612304 -0.669727,-0.744141 -1.686719,-1.289844 -1.016992,-0.545703 -2.232422,-0.843359 -1.215429,-0.322461 -2.306835,-0.322461 -1.116211,0 -2.331641,0.347265 -1.21543,0.322461 -2.207617,0.892969 -0.992188,0.545703 -1.63711,1.289844 -0.644921,0.719336 -0.644921,1.53789 v 4.588868 q 0.07441,0 0.37207,-0.02481 0.297656,-0.04961 0.744141,-0.07441 0.446484,-0.04961 1.016992,-0.09922 0.570508,-0.07441 1.16582,-0.124023 1.240234,-0.124024 2.604492,-0.173633 1.389063,-0.07441 2.951758,-0.07441 1.066601,0 2.406055,0.07441 1.339453,0.07441 2.455664,0.198437 z m -16.66875,5.903516 q -0.768945,0 -1.5875,-0.396875 -0.868164,-0.42168 -0.868164,-1.438672 0,-0.570508 0.223242,-1.438672 0.248047,-0.892969 0.248047,-2.033984 0,-0.892969 -0.198438,-1.686719 Q 10.491202,22.748745 10.044717,22.103824 9.6230375,21.434097 8.9037016,20.962808 8.2091704,20.466714 7.1673735,20.193863 5.2574126,20.838785 4.5628814,21.458902 3.8931548,22.054214 3.5458892,22.996792 L 3.7691314,23.5673 q 0.1736328,0.570508 0.8929687,0.620117 0.396875,0 0.9425781,-0.223242 0.5457031,-0.223242 1.2154297,-0.223242 0.5208984,0 0.9921875,0.148828 0.4960937,0.124024 0.868164,0.396875 0.3720703,0.248047 0.5953125,0.669727 0.2232422,0.396875 0.2232422,0.942578 0,0.74414 -0.4216797,2.083593 -0.396875,1.26504 -0.396875,2.00918 0,1.16582 1.1162109,1.637109 1.1162107,0.446485 3.0509767,0.446485 2.00918,-0.04961 3.943945,-0.124024 0.818555,-0.0248 1.711524,-0.0248 0.892968,-0.02481 1.761132,-0.04961 0.892969,-0.0248 1.711524,-0.0248 0.818554,-0.02481 1.513086,-0.02481 1.637109,0 2.951757,0.02481 1.314649,0.0248 2.38125,0.124023 1.066602,0.07441 1.909961,0.248047 0.84336,0.148828 1.513086,0.446484 1.909961,0.79375 2.877344,2.852539 1.240234,2.678907 1.240234,6.697266 0,1.016992 0.02481,2.083594 0.04961,1.041796 0.148828,2.207617 0.124023,1.16582 0.322461,2.455664 0.198437,1.289843 0.545703,2.778125 0.198438,1.339453 0.79375,2.480468 0.620117,1.116211 1.488281,1.736329 l 0.04961,-0.297657 -0.02481,-0.248047 q -0.04961,-0.347265 -0.322461,-1.240234 -0.272851,-0.917773 -0.768945,-2.430859 -1.016992,-3.050977 -1.016992,-5.853906 0,-0.446485 0,-0.892969 0.0248,-0.446485 0.04961,-0.892969 l 0.07441,-1.835547 q 0,-0.173633 0,-0.446484 0,-0.272852 0.02481,-0.620117 0,-4.688086 -1.190625,-7.292578 -1.190625,-2.629297 -3.919141,-3.497461 -1.091406,-0.347266 -2.083594,-0.545703 -0.967382,-0.198438 -2.058789,-0.272852 -1.066601,-0.09922 -2.356445,-0.124023 -1.289844,-0.02481 -2.976562,-0.02481 -2.083594,0 -3.819922,0.173633 -1.711524,0.173633 -3.050977,0.396875 -1.314648,0.198437 -2.207617,0.37207 -0.868164,0.173633 -1.240234,0.173633 z"
         style="stroke-width:0.26458332"
         id="path4522"
         inkscape:connector-curvature="0" />
    </g>
  </g>
</svg>
