<?xml version="1.0" encoding="UTF-8" standalone="no"?>
<!-- Created with Inkscape (http://www.inkscape.org/) -->

<svg
   xmlns:dc="http://purl.org/dc/elements/1.1/"
   xmlns:cc="http://creativecommons.org/ns#"
   xmlns:rdf="http://www.w3.org/1999/02/22-rdf-syntax-ns#"
   xmlns:svg="http://www.w3.org/2000/svg"
   xmlns="http://www.w3.org/2000/svg"
   xmlns:sodipodi="http://sodipodi.sourceforge.net/DTD/sodipodi-0.dtd"
   xmlns:inkscape="http://www.inkscape.org/namespaces/inkscape"
   width="37.975975mm"
   height="22.621878mm"
   viewBox="0 0 37.975975 22.621878"
   version="1.1"
   id="svg4531"
   inkscape:version="0.92.4 (5da689c313, 2019-01-14)"
   sodipodi:docname="V22.svg">
  <defs
     id="defs4525" />
  <sodipodi:namedview
     id="base"
     pagecolor="#ffffff"
     bordercolor="#666666"
     borderopacity="1.0"
     inkscape:pageopacity="0.0"
     inkscape:pageshadow="2"
     inkscape:zoom="0.35"
     inkscape:cx="-397.54464"
     inkscape:cy="-344.77678"
     inkscape:document-units="mm"
     inkscape:current-layer="layer1"
     showgrid="false"
     fit-margin-top="0"
     fit-margin-left="0"
     fit-margin-right="0"
     fit-margin-bottom="0"
     inkscape:window-width="1920"
     inkscape:window-height="1017"
     inkscape:window-x="-8"
     inkscape:window-y="-8"
     inkscape:window-maximized="1" />
  <metadata
     id="metadata4528">
    <rdf:RDF>
      <cc:Work
         rdf:about="">
        <dc:format>image/svg+xml</dc:format>
        <dc:type
           rdf:resource="http://purl.org/dc/dcmitype/StillImage" />
        <dc:title></dc:title>
      </cc:Work>
    </rdf:RDF>
  </metadata>
  <g
     inkscape:label="Layer 1"
     inkscape:groupmode="layer"
     id="layer1"
     transform="translate(-17.871187,-34.989266)">
    <g
       aria-label="𓎔"
       style="font-style:normal;font-variant:normal;font-weight:normal;font-stretch:normal;font-size:50.79999924px;line-height:1.25;font-family:sans-serif;-inkscape-font-specification:'sans-serif, Normal';font-variant-ligatures:normal;font-variant-caps:normal;font-variant-numeric:normal;font-feature-settings:normal;text-align:start;letter-spacing:0px;word-spacing:0px;writing-mode:lr-tb;text-anchor:start;fill:#000000;fill-opacity:1;stroke:none;stroke-width:0.26458332"
       id="text5078">
      <path
         d="m 52.771382,39.007626 -0.248047,-0.07441 q -0.570508,-0.173633 -1.116211,-0.248047 -0.520898,-0.07441 -1.091406,-0.09922 2.306836,3.175 2.877344,9.326563 0.595312,6.151562 2.654101,9.276953 l -0.694531,0.421679 q -1.488281,-1.835547 -2.480469,-5.159375 -0.967383,-3.348632 -2.033984,-6.672461 -1.066602,-3.348632 -2.629297,-4.812109 -1.562695,-1.488281 -4.638476,-1.488281 -1.488282,0 -3.026172,0.248047 -1.513086,0.248047 -2.827735,0.37207 l -1.240234,0.07441 q -0.620117,0.04961 -1.240234,0.04961 -2.182813,0 -4.316016,-0.297657 -2.108398,-0.322461 -4.216797,-0.892968 -0.248047,0.37207 -0.694531,0.644921 -0.42168,0.248047 -0.992187,0.248047 -0.545704,0 -1.041797,-0.223242 -0.496094,-0.248047 -0.84336,-0.644922 l -3.249414,1.438672 -0.620117,-0.248047 -1.190625,-4.812109 0.496094,-0.446484 4.489648,0.74414 q 0.272852,-0.37207 0.669727,-0.545703 0.42168,-0.173633 0.892969,-0.173633 0.644921,0 1.289843,0.297656 0.644922,0.297657 1.141016,0.84336 2.406055,-0.496094 4.7625,-0.719336 2.38125,-0.223242 4.7625,-0.223242 4.117578,0 8.135937,0.719336 4.018359,0.694531 8.036719,2.182812 l 0.272851,0.07441 z m -3.373437,-1.116211 q -3.274219,-0.967383 -6.474024,-1.438672 -3.199804,-0.471289 -6.474023,-0.471289 -2.331641,0 -4.663281,0.248047 -2.306836,0.223242 -4.737696,0.694531 l -0.04961,0.694531 q -0.04961,0.347266 -0.148828,0.694532 2.033984,0.570507 4.043164,0.818554 2.00918,0.248047 4.092773,0.248047 2.530078,0 4.936133,-0.322461 2.430859,-0.347265 3.844727,-0.347265 3.596679,0 5.357812,2.257226 1.761133,2.232422 2.852539,6.201172 l 0.644922,2.430859 -0.42168,-3.348633 q -0.27285,-2.282031 -0.967382,-4.266406 -0.694531,-1.984375 -2.033984,-3.522265 z m -26.863477,0.520898 q -0.09922,-0.223242 -0.148828,-0.446484 -0.0248,-0.223242 -0.0248,-0.471289 0,-0.198438 0.0248,-0.396875 0,-0.07441 0.02481,-0.198438 l 0.09922,-0.421679 -3.720703,-0.620117 0.942578,3.770312 z M 24.8165,39.08204 q 0.620117,0 0.992187,-0.396875 0.37207,-0.42168 0.446484,-1.984375 -0.32246,-0.37207 -0.818554,-0.620117 -0.496094,-0.248047 -0.967383,-0.248047 -0.719336,0 -1.016992,0.520898 -0.297656,0.520899 -0.297656,1.165821 0,0.620117 0.496093,1.091406 0.496094,0.471289 1.165821,0.471289 z"
         style="stroke-width:0.26458332"
         id="path5080"
         inkscape:connector-curvature="0" />
    </g>
  </g>
</svg>
