<?xml version="1.0" encoding="UTF-8" standalone="no"?>
<!-- Created with Inkscape (http://www.inkscape.org/) -->

<svg
   xmlns:dc="http://purl.org/dc/elements/1.1/"
   xmlns:cc="http://creativecommons.org/ns#"
   xmlns:rdf="http://www.w3.org/1999/02/22-rdf-syntax-ns#"
   xmlns:svg="http://www.w3.org/2000/svg"
   xmlns="http://www.w3.org/2000/svg"
   xmlns:sodipodi="http://sodipodi.sourceforge.net/DTD/sodipodi-0.dtd"
   xmlns:inkscape="http://www.inkscape.org/namespaces/inkscape"
   width="37.975979mm"
   height="23.093161mm"
   viewBox="0 0 37.975979 23.093161"
   version="1.1"
   id="svg5089"
   inkscape:version="0.92.4 (5da689c313, 2019-01-14)"
   sodipodi:docname="V23.svg">
  <defs
     id="defs5083" />
  <sodipodi:namedview
     id="base"
     pagecolor="#ffffff"
     bordercolor="#666666"
     borderopacity="1.0"
     inkscape:pageopacity="0.0"
     inkscape:pageshadow="2"
     inkscape:zoom="0.35"
     inkscape:cx="-388.97321"
     inkscape:cy="-344.58929"
     inkscape:document-units="mm"
     inkscape:current-layer="layer1"
     showgrid="false"
     fit-margin-top="0"
     fit-margin-left="0"
     fit-margin-right="0"
     fit-margin-bottom="0"
     inkscape:window-width="1920"
     inkscape:window-height="1017"
     inkscape:window-x="-8"
     inkscape:window-y="-8"
     inkscape:window-maximized="1" />
  <metadata
     id="metadata5086">
    <rdf:RDF>
      <cc:Work
         rdf:about="">
        <dc:format>image/svg+xml</dc:format>
        <dc:type
           rdf:resource="http://purl.org/dc/dcmitype/StillImage" />
        <dc:title></dc:title>
      </cc:Work>
    </rdf:RDF>
  </metadata>
  <g
     inkscape:label="Layer 1"
     inkscape:groupmode="layer"
     id="layer1"
     transform="translate(-15.603329,-34.567591)">
    <g
       aria-label="𓎕"
       style="font-style:normal;font-variant:normal;font-weight:normal;font-stretch:normal;font-size:50.79999924px;line-height:1.25;font-family:sans-serif;-inkscape-font-specification:'sans-serif, Normal';font-variant-ligatures:normal;font-variant-caps:normal;font-variant-numeric:normal;font-feature-settings:normal;text-align:start;letter-spacing:0px;word-spacing:0px;writing-mode:lr-tb;text-anchor:start;fill:#000000;fill-opacity:1;stroke:none;stroke-width:0.26458332"
       id="text5636">
      <path
         d="m 52.983992,57.660751 q -2.158008,-2.306836 -3.596679,-6.548438 -1.413868,-4.266406 -1.612305,-4.836914 l -0.595313,-1.661914 q -0.79375,-2.232422 -2.207617,-3.671094 -1.389062,-1.438671 -4.638476,-1.438671 -1.513086,0 -4.7625,0.396875 -3.22461,0.37207 -6.622852,0.37207 -2.083593,0 -4.142382,-0.198438 -2.058789,-0.223242 -4.241602,-0.719336 -1.16582,0.520899 -1.5875,0.620118 -0.42168,0.09922 -0.843359,0.09922 -1.165821,0 -1.860352,-0.694531 -0.669726,-0.694531 -0.669726,-1.686719 0,-1.066601 0.719336,-1.761132 0.74414,-0.719336 1.885156,-0.719336 0.37207,0 1.066601,0.09922 0.719336,0.09922 1.240235,0.42168 2.629297,-0.595312 5.13457,-0.868164 2.530078,-0.297656 5.060156,-0.297656 3.720703,0 7.391797,0.595312 3.671094,0.595313 7.51582,1.785938 l 3.075781,-1.562695 0.520899,0.248046 q 0.148828,0.446485 0.223242,0.917774 0.09922,0.471289 0.09922,0.942578 0,0.868164 -0.322461,1.5875 l -0.520899,0.248047 q -0.347265,-0.124024 -0.694531,-0.198438 -0.322461,-0.07441 -0.669726,-0.124023 1.314648,1.736328 1.860351,2.976562 0.545703,1.240235 0.818555,2.654102 l 0.992187,4.861719 q 0.471289,2.33164 1.066602,4.191992 0.620117,1.835546 1.513086,3.423046 z M 45.790633,38.337899 q -0.223242,-0.272851 -0.396875,-0.570508 -1.686719,-0.669726 -5.953125,-1.562695 -4.266406,-0.892969 -8.805664,-0.892969 -4.216797,0 -10.095508,1.240235 h -0.09922 q -0.248047,0 -0.719336,-0.272852 -0.471289,-0.297656 -1.314649,-0.297656 -0.917773,0 -1.438672,0.42168 -0.520898,0.396875 -0.520898,1.314648 0,0.694531 0.446484,1.141016 0.446485,0.421679 1.141016,0.421679 0.223242,0 0.496094,-0.0248 0.297656,-0.04961 0.595312,-0.173633 L 19.6961,38.833997 q 0.248047,-0.09922 0.471289,-0.173633 0.248047,-0.09922 0.396875,-0.09922 h 0.04961 q 0.42168,0.04961 0.84336,0.148829 l 0.843359,0.223242 q 1.63711,0.297656 3.22461,0.446484 1.612304,0.124024 3.249414,0.124024 2.654101,0 6.151562,-0.322461 3.522266,-0.347266 5.705078,-0.446485 h 0.694531 q 2.207617,0 4.043164,1.537891 1.860352,1.537891 3.373438,6.474023 1.53789,4.911328 2.554882,6.994922 -0.818554,-2.604492 -1.53789,-6.374805 -0.719336,-3.770312 -1.240234,-4.936132 -0.496094,-1.190625 -2.306836,-3.571875 z m 0.892969,-0.173633 q 1.016992,0.04961 1.909961,0.322461 0.148828,-0.520898 0.148828,-1.041796 0,-0.595313 -0.148828,-1.116211 -0.595313,0.297656 -1.190625,0.620117 -0.570508,0.297656 -1.165821,0.570508 z"
         style="stroke-width:0.26458332"
         id="path5638"
         inkscape:connector-curvature="0" />
    </g>
  </g>
</svg>
