<?xml version="1.0" encoding="UTF-8" standalone="no"?>
<!-- Created with Inkscape (http://www.inkscape.org/) -->

<svg
   xmlns:dc="http://purl.org/dc/elements/1.1/"
   xmlns:cc="http://creativecommons.org/ns#"
   xmlns:rdf="http://www.w3.org/1999/02/22-rdf-syntax-ns#"
   xmlns:svg="http://www.w3.org/2000/svg"
   xmlns="http://www.w3.org/2000/svg"
   xmlns:sodipodi="http://sodipodi.sourceforge.net/DTD/sodipodi-0.dtd"
   xmlns:inkscape="http://www.inkscape.org/namespaces/inkscape"
   width="37.975975mm"
   height="23.093164mm"
   viewBox="0 0 37.975975 23.093164"
   version="1.1"
   id="svg40491"
   inkscape:version="0.92.4 (5da689c313, 2019-01-14)"
   sodipodi:docname="V23A.svg">
  <defs
     id="defs40485" />
  <sodipodi:namedview
     id="base"
     pagecolor="#ffffff"
     bordercolor="#666666"
     borderopacity="1.0"
     inkscape:pageopacity="0.0"
     inkscape:pageshadow="2"
     inkscape:zoom="0.35"
     inkscape:cx="533.88476"
     inkscape:cy="-257.99289"
     inkscape:document-units="mm"
     inkscape:current-layer="layer1"
     showgrid="false"
     fit-margin-top="0"
     fit-margin-left="0"
     fit-margin-right="0"
     fit-margin-bottom="0"
     inkscape:window-width="1920"
     inkscape:window-height="1017"
     inkscape:window-x="-8"
     inkscape:window-y="-8"
     inkscape:window-maximized="1" />
  <metadata
     id="metadata40488">
    <rdf:RDF>
      <cc:Work
         rdf:about="">
        <dc:format>image/svg+xml</dc:format>
        <dc:type
           rdf:resource="http://purl.org/dc/dcmitype/StillImage" />
        <dc:title></dc:title>
      </cc:Work>
    </rdf:RDF>
  </metadata>
  <g
     inkscape:label="Layer 1"
     inkscape:groupmode="layer"
     id="layer1"
     transform="translate(228.56951,-57.479551)">
    <g
       aria-label="𓎖"
       transform="scale(0.26458333)"
       style="font-style:normal;font-variant:normal;font-weight:normal;font-stretch:normal;font-size:192px;line-height:1.25;font-family:sans-serif;-inkscape-font-specification:sans-serif;font-variant-ligatures:normal;font-variant-caps:normal;font-variant-numeric:normal;font-feature-settings:normal;text-align:start;letter-spacing:0px;word-spacing:0px;writing-mode:lr-tb;text-anchor:start;fill:#000000;fill-opacity:1;stroke:none"
       id="flowRoot41036">
      <path
         d="m -722.60352,304.5268 q -8.15625,-8.71875 -13.59375,-24.75 -5.34375,-16.125 -6.09375,-18.28125 l -2.25,-6.28125 q -3,-8.4375 -8.34375,-13.875 -5.25,-5.4375 -17.53125,-5.4375 -5.71875,0 -18,1.5 -12.1875,1.40625 -25.03125,1.40625 -7.875,0 -15.65625,-0.75 -7.78125,-0.84375 -16.03125,-2.71875 -4.40625,1.96875 -6,2.34375 -1.59375,0.375 -3.1875,0.375 -4.40625,0 -7.03125,-2.625 -2.53125,-2.625 -2.53125,-6.375 0,-4.03125 2.71875,-6.65625 2.8125,-2.71875 7.125,-2.71875 1.40625,0 4.03125,0.375 2.71875,0.375 4.6875,1.59375 9.9375,-2.25 19.40625,-3.28125 9.5625,-1.125 19.125,-1.125 14.0625,0 27.9375,2.25 13.875,2.25 28.40625,6.75 l 11.625,-5.90625 1.96875,0.9375 q 0.5625,1.6875 0.84375,3.46875 0.375,1.78125 0.375,3.5625 0,3.28125 -1.21875,6 l -1.96875,0.9375 q -1.3125,-0.46875 -2.625,-0.75 -1.21875,-0.28125 -2.53125,-0.46875 4.96875,6.5625 7.03125,11.25 2.0625,4.6875 3.09375,10.03125 l 3.75,18.375 q 1.78125,8.8125 4.03125,15.84375 2.34375,6.9375 5.71875,12.9375 z m -27.1875,-73.03125 q -0.84375,-1.03125 -1.5,-2.15625 -6.375,-2.53125 -22.5,-5.90625 -16.125,-3.375 -33.28125,-3.375 -15.9375,0 -38.15625,4.6875 h -0.375 q -0.9375,0 -2.71875,-1.03125 -1.78125,-1.125 -4.96875,-1.125 -3.46875,0 -5.4375,1.59375 -1.96875,1.5 -1.96875,4.96875 0,2.625 1.6875,4.3125 1.6875,1.59375 4.3125,1.59375 0.84375,0 1.875,-0.0937 1.125,-0.1875 2.25,-0.65625 l 2.15625,-0.9375 q 0.9375,-0.375 1.78125,-0.65625 0.9375,-0.375 1.5,-0.375 h 0.1875 q 1.59375,0.1875 3.1875,0.5625 l 3.1875,0.84375 q 6.1875,1.125 12.1875,1.6875 6.09375,0.46875 12.28125,0.46875 10.03125,0 23.25,-1.21875 13.3125,-1.3125 21.5625,-1.6875 h 2.625 q 8.34375,0 15.28125,5.8125 7.03125,5.8125 12.75,24.46875 5.8125,18.5625 9.65625,26.4375 -3.09375,-9.84375 -5.8125,-24.09375 -2.71875,-14.25 -4.6875,-18.65625 -1.875,-4.5 -8.71875,-13.5 z m 3.375,-0.65625 q 3.84375,0.1875 7.21875,1.21875 0.5625,-1.96875 0.5625,-3.9375 0,-2.25 -0.5625,-4.21875 -2.25,1.125 -4.5,2.34375 -2.15625,1.125 -4.40625,2.15625 z"
         id="path41044"
         inkscape:connector-curvature="0" />
    </g>
  </g>
</svg>
