<?xml version="1.0" encoding="UTF-8" standalone="no"?>
<!-- Created with Inkscape (http://www.inkscape.org/) -->

<svg
   xmlns:dc="http://purl.org/dc/elements/1.1/"
   xmlns:cc="http://creativecommons.org/ns#"
   xmlns:rdf="http://www.w3.org/1999/02/22-rdf-syntax-ns#"
   xmlns:svg="http://www.w3.org/2000/svg"
   xmlns="http://www.w3.org/2000/svg"
   xmlns:sodipodi="http://sodipodi.sourceforge.net/DTD/sodipodi-0.dtd"
   xmlns:inkscape="http://www.inkscape.org/namespaces/inkscape"
   width="6.8708978mm"
   height="37.256641mm"
   viewBox="0 0 6.8708978 37.256641"
   version="1.1"
   id="svg5647"
   inkscape:version="0.92.4 (5da689c313, 2019-01-14)"
   sodipodi:docname="V24.svg">
  <defs
     id="defs5641" />
  <sodipodi:namedview
     id="base"
     pagecolor="#ffffff"
     bordercolor="#666666"
     borderopacity="1.0"
     inkscape:pageopacity="0.0"
     inkscape:pageshadow="2"
     inkscape:zoom="0.35"
     inkscape:cx="-386.11607"
     inkscape:cy="-325.71429"
     inkscape:document-units="mm"
     inkscape:current-layer="layer1"
     showgrid="false"
     fit-margin-top="0"
     fit-margin-left="0"
     fit-margin-right="0"
     fit-margin-bottom="0"
     inkscape:window-width="1920"
     inkscape:window-height="1017"
     inkscape:window-x="-8"
     inkscape:window-y="-8"
     inkscape:window-maximized="1" />
  <metadata
     id="metadata5644">
    <rdf:RDF>
      <cc:Work
         rdf:about="">
        <dc:format>image/svg+xml</dc:format>
        <dc:type
           rdf:resource="http://purl.org/dc/dcmitype/StillImage" />
        <dc:title></dc:title>
      </cc:Work>
    </rdf:RDF>
  </metadata>
  <g
     inkscape:label="Layer 1"
     inkscape:groupmode="layer"
     id="layer1"
     transform="translate(-14.847377,-25.398122)">
    <g
       aria-label="𓎗"
       style="font-style:normal;font-variant:normal;font-weight:normal;font-stretch:normal;font-size:50.79999924px;line-height:1.25;font-family:sans-serif;-inkscape-font-specification:'sans-serif, Normal';font-variant-ligatures:normal;font-variant-caps:normal;font-variant-numeric:normal;font-feature-settings:normal;text-align:start;letter-spacing:0px;word-spacing:0px;writing-mode:lr-tb;text-anchor:start;fill:#000000;fill-opacity:1;stroke:none;stroke-width:0.26458332"
       id="text6194">
      <path
         d="m 17.650306,62.654762 0.223243,-13.543359 q -1.364258,-2.480469 -2.207618,-4.663281 -0.818554,-2.207617 -0.818554,-3.770313 0,-1.413867 0.669726,-2.802929 0.669727,-1.389063 2.356446,-2.43086 L 17.650306,25.398122 h 1.240235 L 18.692103,35.49363 q 1.562696,0.992187 2.282032,2.38125 0.74414,1.364258 0.74414,2.778125 0,1.215429 -0.496094,2.902148 -0.124023,0.42168 -0.37207,1.041797 -0.248047,0.620117 -0.595312,1.364258 -0.347266,0.719336 -0.744141,1.53789 -0.396875,0.818555 -0.818555,1.5875 l 0.198438,13.568164 z m 0.744141,-14.560351 q 0.37207,-0.620117 0.818555,-1.562695 0.446484,-0.967383 0.818554,-2.00918 0.372071,-1.041797 0.620118,-2.00918 0.272851,-0.992187 0.272851,-1.711523 0,-1.339453 -0.595312,-2.480469 -0.570508,-1.16582 -1.909961,-2.207617 H 18.1464 q -0.272851,0.198438 -0.496094,0.37207 -0.198437,0.173633 -0.396875,0.372071 -0.198437,0.198437 -0.421679,0.496093 -0.223242,0.272852 -0.471289,0.669727 -0.719336,1.16582 -0.719336,2.778125 0,0.719336 0.248047,1.711523 0.248047,0.992188 0.620117,2.033985 0.396875,1.041797 0.843359,2.009179 0.446485,0.942578 0.818555,1.537891 z"
         style="stroke-width:0.26458332"
         id="path6196"
         inkscape:connector-curvature="0" />
    </g>
  </g>
</svg>
