<?xml version="1.0" encoding="UTF-8" standalone="no"?>
<!-- Created with Inkscape (http://www.inkscape.org/) -->

<svg
   xmlns:dc="http://purl.org/dc/elements/1.1/"
   xmlns:cc="http://creativecommons.org/ns#"
   xmlns:rdf="http://www.w3.org/1999/02/22-rdf-syntax-ns#"
   xmlns:svg="http://www.w3.org/2000/svg"
   xmlns="http://www.w3.org/2000/svg"
   xmlns:sodipodi="http://sodipodi.sourceforge.net/DTD/sodipodi-0.dtd"
   xmlns:inkscape="http://www.inkscape.org/namespaces/inkscape"
   width="9.624218mm"
   height="37.256641mm"
   viewBox="0 0 9.624218 37.256641"
   version="1.1"
   id="svg6205"
   inkscape:version="0.92.4 (5da689c313, 2019-01-14)"
   sodipodi:docname="V25.svg">
  <defs
     id="defs6199" />
  <sodipodi:namedview
     id="base"
     pagecolor="#ffffff"
     bordercolor="#666666"
     borderopacity="1.0"
     inkscape:pageopacity="0.0"
     inkscape:pageshadow="2"
     inkscape:zoom="0.35"
     inkscape:cx="-366.11607"
     inkscape:cy="-420.00001"
     inkscape:document-units="mm"
     inkscape:current-layer="layer1"
     showgrid="false"
     fit-margin-top="0"
     fit-margin-left="0"
     fit-margin-right="0"
     fit-margin-bottom="0"
     inkscape:window-width="1920"
     inkscape:window-height="1017"
     inkscape:window-x="-8"
     inkscape:window-y="-8"
     inkscape:window-maximized="1" />
  <metadata
     id="metadata6202">
    <rdf:RDF>
      <cc:Work
         rdf:about="">
        <dc:format>image/svg+xml</dc:format>
        <dc:type
           rdf:resource="http://purl.org/dc/dcmitype/StillImage" />
        <dc:title></dc:title>
      </cc:Work>
    </rdf:RDF>
  </metadata>
  <g
     inkscape:label="Layer 1"
     inkscape:groupmode="layer"
     id="layer1"
     transform="translate(-9.5557108,-0.451692)">
    <g
       aria-label="𓎘"
       style="font-style:normal;font-variant:normal;font-weight:normal;font-stretch:normal;font-size:50.79999924px;line-height:1.25;font-family:sans-serif;-inkscape-font-specification:'sans-serif, Normal';font-variant-ligatures:normal;font-variant-caps:normal;font-variant-numeric:normal;font-feature-settings:normal;text-align:start;letter-spacing:0px;word-spacing:0px;writing-mode:lr-tb;text-anchor:start;fill:#000000;fill-opacity:1;stroke:none;stroke-width:0.26458332"
       id="text6752">
      <path
         d="m 15.111961,37.708332 0.223242,-17.760156 q -0.37207,-0.644922 -0.744141,-1.339453 -0.347265,-0.719336 -0.694531,-1.413867 -0.322461,-0.694531 -0.595312,-1.289844 -0.272852,-0.620117 -0.42168,-1.066601 -0.595313,-1.736329 -0.595313,-3.274219 0,-0.669727 0.148828,-1.339453 0.173633,-0.6945315 0.47129,-1.3394534 0.297656,-0.6449218 0.719335,-1.190625 0.42168,-0.5457031 0.942579,-0.9673828 L 9.5557108,1.0470045 10.299851,0.451692 15.335203,6.2807935 15.136765,0.47649668 h 1.21543 L 16.153758,6.2807935 q 1.612304,0.9673828 2.306835,2.4060546 0.719336,1.4386719 0.719336,2.8525389 0,1.513086 -0.595312,3.249414 -0.148828,0.446485 -0.545703,1.314649 -0.396875,0.843359 -0.818555,1.711523 l -1.066601,2.133203 0.198437,17.760156 z m 0.694531,-18.801953 q 0.04961,-0.04961 0.173633,-0.322461 0.124023,-0.198437 0.322461,-0.620117 0.223242,-0.446484 0.595312,-1.16582 0.620117,-1.21543 1.066602,-2.629297 0.446484,-1.413867 0.446484,-2.604492 0,-1.289844 -0.570508,-2.4308595 Q 17.294773,7.9923169 15.880906,6.95052 h -0.322461 q -1.339453,1.0666016 -1.909961,2.1580078 -0.545703,1.0914062 -0.545703,2.4556642 0,1.215429 0.37207,2.530078 0.396875,1.289844 1.116211,2.728516 l 1.041797,2.083593 z"
         style="stroke-width:0.26458332"
         id="path6754"
         inkscape:connector-curvature="0" />
    </g>
  </g>
</svg>
