<?xml version="1.0" encoding="UTF-8" standalone="no"?>
<!-- Created with Inkscape (http://www.inkscape.org/) -->

<svg
   xmlns:dc="http://purl.org/dc/elements/1.1/"
   xmlns:cc="http://creativecommons.org/ns#"
   xmlns:rdf="http://www.w3.org/1999/02/22-rdf-syntax-ns#"
   xmlns:svg="http://www.w3.org/2000/svg"
   xmlns="http://www.w3.org/2000/svg"
   xmlns:sodipodi="http://sodipodi.sourceforge.net/DTD/sodipodi-0.dtd"
   xmlns:inkscape="http://www.inkscape.org/namespaces/inkscape"
   width="10.417969mm"
   height="37.132618mm"
   viewBox="0 0 10.417969 37.132618"
   version="1.1"
   id="svg41053"
   inkscape:version="0.92.4 (5da689c313, 2019-01-14)"
   sodipodi:docname="V28.svg">
  <defs
     id="defs41047" />
  <sodipodi:namedview
     id="base"
     pagecolor="#ffffff"
     bordercolor="#666666"
     borderopacity="1.0"
     inkscape:pageopacity="0.0"
     inkscape:pageshadow="2"
     inkscape:zoom="0.35"
     inkscape:cx="833.88479"
     inkscape:cy="-164.83274"
     inkscape:document-units="mm"
     inkscape:current-layer="layer1"
     showgrid="false"
     fit-margin-top="0"
     fit-margin-left="0"
     fit-margin-right="0"
     fit-margin-bottom="0"
     inkscape:window-width="1920"
     inkscape:window-height="1017"
     inkscape:window-x="-8"
     inkscape:window-y="-8"
     inkscape:window-maximized="1" />
  <metadata
     id="metadata41050">
    <rdf:RDF>
      <cc:Work
         rdf:about="">
        <dc:format>image/svg+xml</dc:format>
        <dc:type
           rdf:resource="http://purl.org/dc/dcmitype/StillImage" />
        <dc:title></dc:title>
      </cc:Work>
    </rdf:RDF>
  </metadata>
  <g
     inkscape:label="Layer 1"
     inkscape:groupmode="layer"
     id="layer1"
     transform="translate(307.94452,-68.088721)">
    <g
       aria-label="𓎛"
       transform="scale(0.26458333)"
       style="font-style:normal;font-variant:normal;font-weight:normal;font-stretch:normal;font-size:192px;line-height:1.25;font-family:sans-serif;-inkscape-font-specification:sans-serif;font-variant-ligatures:normal;font-variant-caps:normal;font-variant-numeric:normal;font-feature-settings:normal;text-align:start;letter-spacing:0px;word-spacing:0px;writing-mode:lr-tb;text-anchor:start;fill:#000000;fill-opacity:1;stroke:none"
       id="flowRoot41598">
      <path
         d="m -1146.541,328.0307 q -1.6875,-1.78125 -2.9063,-3.9375 -1.2187,-2.25 -2.0625,-4.5 -0.75,-2.34375 -1.125,-4.6875 -0.375,-2.34375 -0.375,-4.40625 0,-4.03125 1.5938,-8.8125 1.5937,-4.78125 4.875,-9.375 -4.7813,-6.5625 -6.6563,-11.90625 -1.875,-5.4375 -1.875,-10.5 0,-6.28125 2.9063,-9.375 3,-3.1875 7.9687,-3.1875 2.4375,0 4.5938,0.84375 2.1562,0.75 3.6562,2.25 1.5938,1.5 2.4375,3.65625 0.9375,2.15625 0.9375,4.78125 0,5.71875 -2.4375,11.15625 -2.3437,5.4375 -6.8437,12.28125 3.375,4.59375 4.875,9.375 1.5937,4.78125 1.5937,8.8125 0,1.96875 -0.375,4.3125 -0.375,2.25 -1.2187,4.59375 -0.75,2.34375 -1.9688,4.59375 -1.2187,2.25 -2.9062,4.03125 3.2812,5.34375 4.875,9.65625 1.5937,4.21875 1.5937,8.4375 0,3.9375 -1.5,8.53125 -1.5,4.5 -4.9687,10.96875 l 17.3437,32.0625 h -5.3437 l -14.3438,-26.53125 -14.3437,26.53125 h -5.3438 l 17.3438,-32.0625 q -1.6875,-3 -2.9063,-5.34375 -1.2187,-2.4375 -2.0625,-4.6875 -0.75,-2.25 -1.125,-4.5 -0.375,-2.25 -0.375,-4.96875 0,-5.15625 1.5938,-10.03125 1.5937,-4.875 4.875,-8.0625 z m 2.3437,-31.5 q -1.875,3.1875 -3,7.125 -1.125,3.9375 -1.125,6.84375 0,1.40625 0.2813,3.28125 0.2812,1.875 0.8437,3.84375 0.5625,1.96875 1.3125,3.84375 0.75,1.78125 1.6875,3 0.9375,-1.21875 1.6875,-3 0.75,-1.78125 1.3125,-3.75 0.5625,-1.96875 0.8438,-3.84375 0.2812,-1.96875 0.2812,-3.375 0,-2.90625 -1.125,-6.84375 -1.125,-3.9375 -3,-7.125 z m 0,35.625 q -2.3437,3.5625 -3.2812,7.125 -0.8438,3.5625 -0.8438,6.84375 0,3.1875 0.9375,6.65625 1.0313,3.375 3.1875,7.3125 2.0625,-3.9375 3.0938,-7.125 1.0312,-3.28125 1.0312,-6.84375 0,-3.46875 -1.125,-7.125 -1.125,-3.65625 -3,-6.84375 z m 0,-44.0625 q 3.375,-5.34375 5.1563,-9.5625 1.7812,-4.3125 1.7812,-8.25 0,-3.1875 -1.7812,-5.71875 -1.6875,-2.53125 -5.1563,-2.53125 -1.6875,0 -2.9062,0.75 -1.2188,0.75 -1.9688,1.96875 -0.6562,1.125 -1.0312,2.71875 -0.2813,1.5 -0.2813,3.1875 0,3.5625 1.5,7.78125 1.5,4.21875 4.6875,9.65625 z"
         id="path41606"
         inkscape:connector-curvature="0" />
    </g>
  </g>
</svg>
