<?xml version="1.0" encoding="UTF-8" standalone="no"?>
<!-- Created with Inkscape (http://www.inkscape.org/) -->

<svg
   xmlns:dc="http://purl.org/dc/elements/1.1/"
   xmlns:cc="http://creativecommons.org/ns#"
   xmlns:rdf="http://www.w3.org/1999/02/22-rdf-syntax-ns#"
   xmlns:svg="http://www.w3.org/2000/svg"
   xmlns="http://www.w3.org/2000/svg"
   xmlns:sodipodi="http://sodipodi.sourceforge.net/DTD/sodipodi-0.dtd"
   xmlns:inkscape="http://www.inkscape.org/namespaces/inkscape"
   width="17.660936mm"
   height="37.653515mm"
   viewBox="0 0 17.660936 37.653515"
   version="1.1"
   id="svg42177"
   inkscape:version="0.92.4 (5da689c313, 2019-01-14)"
   sodipodi:docname="V29.svg">
  <defs
     id="defs42171" />
  <sodipodi:namedview
     id="base"
     pagecolor="#ffffff"
     bordercolor="#666666"
     borderopacity="1.0"
     inkscape:pageopacity="0.0"
     inkscape:pageshadow="2"
     inkscape:zoom="0.35"
     inkscape:cx="948.16988"
     inkscape:cy="-253.40305"
     inkscape:document-units="mm"
     inkscape:current-layer="layer1"
     showgrid="false"
     fit-margin-top="0"
     fit-margin-left="0"
     fit-margin-right="0"
     fit-margin-bottom="0"
     inkscape:window-width="1920"
     inkscape:window-height="1017"
     inkscape:window-x="-8"
     inkscape:window-y="-8"
     inkscape:window-maximized="1" />
  <metadata
     id="metadata42174">
    <rdf:RDF>
      <cc:Work
         rdf:about="">
        <dc:format>image/svg+xml</dc:format>
        <dc:type
           rdf:resource="http://purl.org/dc/dcmitype/StillImage" />
        <dc:title></dc:title>
      </cc:Work>
    </rdf:RDF>
  </metadata>
  <g
     inkscape:label="Layer 1"
     inkscape:groupmode="layer"
     id="layer1"
     transform="translate(338.18245,-44.133595)">
    <g
       aria-label="ð“Ž"
       transform="scale(0.26458333)"
       style="font-style:normal;font-variant:normal;font-weight:normal;font-stretch:normal;font-size:192px;line-height:1.25;font-family:sans-serif;-inkscape-font-specification:sans-serif;font-variant-ligatures:normal;font-variant-caps:normal;font-variant-numeric:normal;font-feature-settings:normal;text-align:start;letter-spacing:0px;word-spacing:0px;writing-mode:lr-tb;text-anchor:start;fill:#000000;fill-opacity:1;stroke:none"
       id="flowRoot42722">
      <path
         d="m -1211.4199,188.74164 -0.375,2.15625 -20.1563,9.28125 q -0.75,4.78125 -3.0937,10.78125 -2.3438,6 -7.125,14.15625 3.4687,5.90625 5.25,11.34375 1.7812,5.34375 1.7812,10.96875 0,5.625 -1.7812,12.46875 -1.6875,6.75 -5.25,13.59375 l 18.0937,35.625 h -5.25 l -15.4687,-29.71875 -15.4688,29.71875 h -5.25 l 18.2813,-35.71875 q -3.6563,-7.03125 -5.1563,-13.6875 -1.5,-6.65625 -1.5,-12.28125 0,-5.625 1.5938,-10.96875 1.5937,-5.4375 4.875,-11.34375 -1.9688,-3.09375 -3.6563,-6.5625 -1.5937,-3.46875 -2.9062,-6.75 -1.3125,-3.375 -2.25,-6.375 -0.9375,-3 -1.4063,-5.25 l -19.7812,-9.28125 -0.75,-2.15625 q 2.8125,-4.78125 6.375,-8.8125 3.5625,-4.03125 7.7812,-6.9375 4.3125,-2.90625 9.0938,-4.5 4.875,-1.6875 10.125,-1.6875 4.875,0 9.5625,1.59375 4.7812,1.5 9.0937,4.3125 4.3125,2.8125 7.9688,6.9375 3.75,4.03125 6.75,9.09375 z m -3.2813,0.375 q -5.3437,-9.28125 -13.2187,-14.15625 -7.875,-4.96875 -16.875,-4.96875 -4.5938,0 -9.0938,1.5 -4.4062,1.5 -8.3437,4.125 -3.9375,2.53125 -7.2188,6 -3.1875,3.46875 -5.3437,7.5 l 17.1562,7.59375 q 0,-2.0625 0.75,-3.9375 0.75,-1.875 2.3438,-3.28125 1.5937,-1.40625 4.0312,-2.25 2.4375,-0.84375 5.9063,-0.84375 3.4687,0 5.8125,0.84375 2.4375,0.84375 3.9375,2.25 1.5,1.40625 2.1562,3.28125 0.75,1.875 0.75,3.9375 z m -30.0937,30.09375 q 3.9375,-7.3125 6,-12.65625 2.1562,-5.4375 2.1562,-8.4375 0,-3 -1.9687,-4.96875 -1.875,-2.0625 -6,-2.0625 -4.125,0 -6.2813,2.0625 -2.0625,2.0625 -2.0625,5.34375 0,2.90625 2.0625,8.15625 2.0625,5.25 6.0938,12.5625 z m 0,48.1875 q 2.0625,-4.5 3.4687,-9.75 1.5,-5.25 1.5,-9.46875 0,-4.21875 -1.4062,-8.625 -1.4063,-4.40625 -3.5625,-8.625 -2.1563,4.21875 -3.2813,8.625 -1.125,4.40625 -1.125,8.625 0,4.21875 0.9375,9.1875 0.9375,4.96875 3.4688,10.03125 z"
         id="path42730"
         inkscape:connector-curvature="0" />
    </g>
  </g>
</svg>
