<?xml version="1.0" encoding="UTF-8" standalone="no"?>
<!-- Created with Inkscape (http://www.inkscape.org/) -->

<svg
   xmlns:dc="http://purl.org/dc/elements/1.1/"
   xmlns:cc="http://creativecommons.org/ns#"
   xmlns:rdf="http://www.w3.org/1999/02/22-rdf-syntax-ns#"
   xmlns:svg="http://www.w3.org/2000/svg"
   xmlns="http://www.w3.org/2000/svg"
   xmlns:sodipodi="http://sodipodi.sourceforge.net/DTD/sodipodi-0.dtd"
   xmlns:inkscape="http://www.inkscape.org/namespaces/inkscape"
   width="41.200592mm"
   height="37.653515mm"
   viewBox="0 0 41.200592 37.653515"
   version="1.1"
   id="svg42739"
   inkscape:version="0.92.4 (5da689c313, 2019-01-14)"
   sodipodi:docname="V29A.svg">
  <defs
     id="defs42733" />
  <sodipodi:namedview
     id="base"
     pagecolor="#ffffff"
     bordercolor="#666666"
     borderopacity="1.0"
     inkscape:pageopacity="0.0"
     inkscape:pageshadow="2"
     inkscape:zoom="0.35"
     inkscape:cx="822.45509"
     inkscape:cy="-170.54758"
     inkscape:document-units="mm"
     inkscape:current-layer="layer1"
     showgrid="false"
     fit-margin-top="0"
     fit-margin-left="0"
     fit-margin-right="0"
     fit-margin-bottom="0"
     inkscape:window-width="1920"
     inkscape:window-height="1017"
     inkscape:window-x="-8"
     inkscape:window-y="-8"
     inkscape:window-maximized="1" />
  <metadata
     id="metadata42736">
    <rdf:RDF>
      <cc:Work
         rdf:about="">
        <dc:format>image/svg+xml</dc:format>
        <dc:type
           rdf:resource="http://purl.org/dc/dcmitype/StillImage" />
        <dc:title></dc:title>
      </cc:Work>
    </rdf:RDF>
  </metadata>
  <g
     inkscape:label="Layer 1"
     inkscape:groupmode="layer"
     id="layer1"
     transform="translate(304.92041,-66.055771)">
    <g
       aria-label="𓎞"
       transform="scale(0.26458333)"
       style="font-style:normal;font-variant:normal;font-weight:normal;font-stretch:normal;font-size:192px;line-height:1.25;font-family:sans-serif;-inkscape-font-specification:sans-serif;font-variant-ligatures:normal;font-variant-caps:normal;font-variant-numeric:normal;font-feature-settings:normal;text-align:start;letter-spacing:0px;word-spacing:0px;writing-mode:lr-tb;text-anchor:start;fill:#000000;fill-opacity:1;stroke:none"
       id="flowRoot43284">
      <path
         d="m -1009.1113,296.62836 q 5.625,5.4375 9,10.6875 3.37497,5.25 3.37497,10.875 0,3.5625 -1.40625,5.90625 -1.40625,2.34375 -4.50002,2.34375 -3.2812,0 -5.25,-2.0625 -1.9687,-2.0625 -3,-5.0625 -1.0312,-3 -1.3125,-6.28125 -0.2812,-3.375 -0.2812,-5.90625 v -2.34375 q -9,14.71875 -26.4375,22.6875 -6.4688,3 -13.5,4.875 -7.0313,1.875 -14.7188,2.625 -0.5625,4.96875 -2.25,10.40625 -1.6875,5.4375 -4.5,10.96875 l 18.0938,35.625 h -5.25 l -15.4688,-29.71875 -15.4687,29.71875 h -5.25 l 18.2812,-35.71875 q -2.9062,-5.53125 -4.4062,-10.78125 -1.5,-5.34375 -1.9688,-10.125 -18.9375,-1.125 -36.0937,-8.25 -20.5313,-8.53125 -31.0313,-28.78125 l 1.2188,-2.25 h 66.0937 q -1.5937,-3.75 -2.7187,-7.125 -1.0313,-3.375 -1.5,-5.90625 l -19.7813,-9.28125 -0.75,-2.15625 q 2.8125,-4.78125 6.375,-8.8125 3.5625,-4.03125 7.7813,-6.9375 4.3125,-2.90625 9.0937,-4.5 4.875,-1.6875 10.125,-1.6875 4.875,0 9.5625,1.59375 4.7813,1.5 9.0938,4.3125 4.3125,2.8125 7.9687,6.9375 3.75,4.03125 6.75,9.09375 l -0.375,2.15625 -20.1562,9.28125 q -0.4688,2.8125 -1.5,6 -0.9375,3.1875 -2.625,7.03125 h 57.375 z m -76.5,33.65625 q 0,-5.625 1.5937,-10.96875 1.5938,-5.4375 4.875,-11.34375 -1.3125,-2.15625 -2.5312,-4.3125 -1.125,-2.25 -2.1563,-4.59375 h -64.875 q 8.25,15.75 27.1875,24.5625 16.125,7.5 35.9063,8.625 z m 72.8437,-31.21875 h -56.3437 q -2.0625,4.3125 -4.7813,8.90625 3.4688,5.90625 5.25,11.34375 1.7813,5.34375 1.7813,10.96875 v 1.6875 q 16.3125,-1.6875 28.875,-8.0625 16.9687,-8.53125 25.2187,-24.84375 z m -33.6562,-27.09375 q -5.3438,-9.28125 -13.2188,-14.15625 -7.875,-4.96875 -16.875,-4.96875 -4.5937,0 -9.0937,1.5 -4.4063,1.5 -8.3438,4.125 -3.9375,2.53125 -7.2187,6 -3.1875,3.46875 -5.3438,7.5 l 17.1563,7.59375 q 0,-2.0625 0.75,-3.9375 0.75,-1.875 2.3437,-3.28125 1.5938,-1.40625 4.0313,-2.25 2.4375,-0.84375 5.9062,-0.84375 3.4688,0 5.8125,0.84375 2.4375,0.84375 3.9375,2.25 1.5,1.40625 2.1563,3.28125 0.75,1.875 0.75,3.9375 z m -21.9375,9 q 0,-3 -1.9688,-4.96875 -1.875,-2.0625 -6,-2.0625 -4.125,0 -6.2812,2.0625 -2.0625,2.0625 -2.0625,5.34375 0,4.59375 4.9687,14.71875 h 6.1875 q 2.4375,-5.0625 3.75,-8.8125 1.4063,-3.84375 1.4063,-6.28125 z m 58.9687,19.6875 q -0.1875,1.40625 -0.2812,3.1875 -0.094,1.78125 -0.094,3.65625 0,7.40625 1.6875,11.71875 1.7813,4.21875 4.9688,4.21875 1.2187,0 1.875,-0.5625 0.6562,-0.5625 0.9375,-1.40625 0.37497,-0.84375 0.46872,-1.78125 0.0937,-1.03125 0.0937,-1.875 0,-3 -1.87502,-6.9375 -1.7813,-3.75 -7.7813,-10.21875 z m -62.1562,30.375 q 0,-4.21875 -1.4063,-8.625 -1.4062,-4.40625 -3.5625,-8.625 -2.1562,4.21875 -3.2812,8.625 -1.125,4.40625 -1.125,8.625 v 1.40625 h 2.9062 q 1.5938,0 3.1875,0 1.6875,-0.0937 3.2813,-0.1875 z m -4.9688,19.21875 q 1.5938,-3.375 2.8125,-7.3125 1.2188,-3.9375 1.7813,-7.59375 -1.5938,0.0937 -3.0938,0.1875 -1.5,0 -3.0937,0 h -2.625 q 0.375,3.46875 1.3125,7.21875 1.0312,3.75 2.9062,7.5 z m 0,-48.1875 1.5938,-3 h -3.2813 z"
         id="path43292"
         inkscape:connector-curvature="0" />
    </g>
  </g>
</svg>
