<?xml version="1.0" encoding="UTF-8" standalone="no"?>
<!-- Created with Inkscape (http://www.inkscape.org/) -->

<svg
   xmlns:dc="http://purl.org/dc/elements/1.1/"
   xmlns:cc="http://creativecommons.org/ns#"
   xmlns:rdf="http://www.w3.org/1999/02/22-rdf-syntax-ns#"
   xmlns:svg="http://www.w3.org/2000/svg"
   xmlns="http://www.w3.org/2000/svg"
   xmlns:sodipodi="http://sodipodi.sourceforge.net/DTD/sodipodi-0.dtd"
   xmlns:inkscape="http://www.inkscape.org/namespaces/inkscape"
   width="37.256638mm"
   height="12.427148mm"
   viewBox="0 0 37.256638 12.427148"
   version="1.1"
   id="svg11785"
   inkscape:version="0.92.4 (5da689c313, 2019-01-14)"
   sodipodi:docname="V3.svg">
  <defs
     id="defs11779" />
  <sodipodi:namedview
     id="base"
     pagecolor="#ffffff"
     bordercolor="#666666"
     borderopacity="1.0"
     inkscape:pageopacity="0.0"
     inkscape:pageshadow="2"
     inkscape:zoom="0.35"
     inkscape:cx="-363.25893"
     inkscape:cy="-417.14285"
     inkscape:document-units="mm"
     inkscape:current-layer="layer1"
     showgrid="false"
     fit-margin-top="0"
     fit-margin-left="0"
     fit-margin-right="0"
     fit-margin-bottom="0"
     inkscape:window-width="1920"
     inkscape:window-height="1017"
     inkscape:window-x="-8"
     inkscape:window-y="-8"
     inkscape:window-maximized="1" />
  <metadata
     id="metadata11782">
    <rdf:RDF>
      <cc:Work
         rdf:about="">
        <dc:format>image/svg+xml</dc:format>
        <dc:type
           rdf:resource="http://purl.org/dc/dcmitype/StillImage" />
        <dc:title></dc:title>
      </cc:Work>
    </rdf:RDF>
  </metadata>
  <g
     inkscape:label="Layer 1"
     inkscape:groupmode="layer"
     id="layer1"
     transform="translate(-8.7997579,-26.037139)">
    <g
       aria-label="ð“®"
       style="font-style:normal;font-variant:normal;font-weight:normal;font-stretch:normal;font-size:50.79999924px;line-height:1.25;font-family:sans-serif;-inkscape-font-specification:'sans-serif, Normal';font-variant-ligatures:normal;font-variant-caps:normal;font-variant-numeric:normal;font-feature-settings:normal;text-align:start;letter-spacing:0px;word-spacing:0px;writing-mode:lr-tb;text-anchor:start;fill:#000000;fill-opacity:1;stroke:none;stroke-width:0.26458332"
       id="text12332">
      <path
         d="m 38.094093,30.576396 q -0.719335,0 -1.314648,-0.396875 -0.570508,-0.421679 -0.570508,-1.265039 v -0.148828 h 1.265039 q -0.09922,0.223242 -0.09922,0.42168 0,0.471289 0.719335,0.471289 0.272852,0 0.496094,-0.173633 0.223242,-0.198437 0.223242,-0.843359 0,-0.496094 -0.421679,-0.917774 -0.42168,-0.446484 -1.339453,-0.446484 -1.141016,0 -1.686719,0.545703 -0.520899,0.520898 -0.520899,1.240234 0,0.644922 0.446485,1.389063 0.446484,0.719336 1.339453,1.389062 h 9.425781 v 1.240235 h -7.639844 l 1.562696,1.091406 q 0.446484,0.322461 0.843359,0.843359 0.42168,0.496094 0.719336,1.091407 0.322461,0.570507 0.520898,1.190625 0.223243,0.620117 0.272852,1.16582 h -1.364258 q 0,-2.108399 -1.909961,-3.720703 L 36.630617,33.08167 h -8.880078 l 1.562695,1.091406 q 0.446485,0.322461 0.84336,0.843359 0.421679,0.496094 0.719335,1.091407 0.322461,0.570507 0.520899,1.190625 0.223242,0.620117 0.272851,1.16582 h -1.364257 q 0,-2.108399 -1.909961,-3.720703 L 25.964601,33.08167 H 16.985305 L 18.548,34.173076 q 0.446484,0.322461 0.843359,0.843359 0.42168,0.496094 0.719336,1.091407 0.322461,0.570507 0.520899,1.190625 0.223242,0.620117 0.272851,1.16582 h -1.364258 q 0,-2.108399 -1.90996,-3.720703 L 15.199367,33.08167 H 8.7997579 v -1.240235 h 4.8121091 q -1.438672,-1.364257 -1.438672,-3.075781 0,-0.545703 0.248047,-1.041797 0.272852,-0.496093 0.719336,-0.868164 0.471289,-0.37207 1.066602,-0.595312 0.620117,-0.223242 1.314648,-0.223242 1.339453,0 2.207617,0.694531 0.892969,0.669726 0.892969,1.909961 0,0.917773 -0.496094,1.438672 -0.471289,0.496093 -1.463476,0.496093 -0.719336,0 -1.314649,-0.396875 -0.570507,-0.421679 -0.570507,-1.265039 v -0.148828 h 1.265039 q -0.09922,0.223242 -0.09922,0.42168 0,0.471289 0.719336,0.471289 0.272851,0 0.496094,-0.173633 0.223242,-0.198437 0.223242,-0.843359 0,-0.496094 -0.42168,-0.917774 -0.42168,-0.446484 -1.339453,-0.446484 -1.141016,0 -1.686719,0.545703 -0.520898,0.520898 -0.520898,1.240234 0,0.644922 0.446484,1.389063 0.446484,0.719336 1.339453,1.389062 H 24.3771 q -1.438671,-1.364257 -1.438671,-3.075781 0,-0.545703 0.248046,-1.041797 0.272852,-0.496093 0.719336,-0.868164 0.471289,-0.37207 1.066602,-0.595312 0.620117,-0.223242 1.314648,-0.223242 1.339453,0 2.207618,0.694531 0.892968,0.669726 0.892968,1.909961 0,0.917773 -0.496093,1.438672 -0.47129,0.496093 -1.463477,0.496093 -0.719336,0 -1.314648,-0.396875 -0.570508,-0.421679 -0.570508,-1.265039 v -0.148828 h 1.265039 q -0.09922,0.223242 -0.09922,0.42168 0,0.471289 0.719336,0.471289 0.272852,0 0.496094,-0.173633 0.223242,-0.198437 0.223242,-0.843359 0,-0.496094 -0.42168,-0.917774 -0.421679,-0.446484 -1.339453,-0.446484 -1.141015,0 -1.686719,0.545703 -0.520898,0.520898 -0.520898,1.240234 0,0.644922 0.446484,1.389063 0.446485,0.719336 1.339453,1.389062 h 9.078516 q -1.438672,-1.364257 -1.438672,-3.075781 0,-0.545703 0.248047,-1.041797 0.272851,-0.496093 0.719336,-0.868164 0.471289,-0.37207 1.066601,-0.595312 0.620118,-0.223242 1.314649,-0.223242 1.339453,0 2.207617,0.694531 0.892969,0.669726 0.892969,1.909961 0,0.917773 -0.496094,1.438672 -0.471289,0.496093 -1.463477,0.496093 z"
         style="stroke-width:0.26458332"
         id="path12334"
         inkscape:connector-curvature="0" />
    </g>
  </g>
</svg>
