<?xml version="1.0" encoding="UTF-8" standalone="no"?>
<!-- Created with Inkscape (http://www.inkscape.org/) -->

<svg
   xmlns:dc="http://purl.org/dc/elements/1.1/"
   xmlns:cc="http://creativecommons.org/ns#"
   xmlns:rdf="http://www.w3.org/1999/02/22-rdf-syntax-ns#"
   xmlns:svg="http://www.w3.org/2000/svg"
   xmlns="http://www.w3.org/2000/svg"
   xmlns:sodipodi="http://sodipodi.sourceforge.net/DTD/sodipodi-0.dtd"
   xmlns:inkscape="http://www.inkscape.org/namespaces/inkscape"
   width="41.200573mm"
   height="10.442773mm"
   viewBox="0 0 41.200573 10.442773"
   version="1.1"
   id="svg44425"
   inkscape:version="0.92.4 (5da689c313, 2019-01-14)"
   sodipodi:docname="V31.svg">
  <defs
     id="defs44419" />
  <sodipodi:namedview
     id="base"
     pagecolor="#ffffff"
     bordercolor="#666666"
     borderopacity="1.0"
     inkscape:pageopacity="0.0"
     inkscape:pageshadow="2"
     inkscape:zoom="0.35"
     inkscape:cx="1011.0273"
     inkscape:cy="-11.715552"
     inkscape:document-units="mm"
     inkscape:current-layer="layer1"
     showgrid="false"
     fit-margin-top="0"
     fit-margin-left="0"
     fit-margin-right="0"
     fit-margin-bottom="0"
     inkscape:window-width="1920"
     inkscape:window-height="1017"
     inkscape:window-x="-8"
     inkscape:window-y="-8"
     inkscape:window-maximized="1" />
  <metadata
     id="metadata44422">
    <rdf:RDF>
      <cc:Work
         rdf:about="">
        <dc:format>image/svg+xml</dc:format>
        <dc:type
           rdf:resource="http://purl.org/dc/dcmitype/StillImage" />
        <dc:title></dc:title>
      </cc:Work>
    </rdf:RDF>
  </metadata>
  <g
     inkscape:label="Layer 1"
     inkscape:groupmode="layer"
     id="layer1"
     transform="translate(354.81347,-135.29082)">
    <g
       aria-label="𓎡"
       transform="scale(0.26458333)"
       style="font-style:normal;font-variant:normal;font-weight:normal;font-stretch:normal;font-size:192px;line-height:1.25;font-family:sans-serif;-inkscape-font-specification:sans-serif;font-variant-ligatures:normal;font-variant-caps:normal;font-variant-numeric:normal;font-feature-settings:normal;text-align:start;letter-spacing:0px;word-spacing:0px;writing-mode:lr-tb;text-anchor:start;fill:#000000;fill-opacity:1;stroke:none"
       id="flowRoot44970">
      <path
         d="m -1197.6836,511.89789 q 5.625,5.4375 9,10.6875 3.375,5.25 3.375,10.875 0,3.5625 -1.4062,5.90625 -1.4063,2.34375 -4.5,2.34375 -3.2813,0 -5.25,-2.0625 -1.9688,-2.0625 -3,-5.0625 -1.0313,-3 -1.3125,-6.28125 -0.2813,-3.375 -0.2813,-5.90625 v -2.34375 q -9,14.71875 -26.4375,22.6875 -17.5312,8.0625 -39.1875,8.0625 -22.6875,0 -43.3125,-8.4375 -20.5312,-8.53125 -31.0312,-28.78125 l 1.2187,-2.25 h 140.8125 z m -3.6562,2.4375 h -135.9375 q 8.25,15.75 27.1875,24.5625 18.8437,8.8125 43.5,8.8125 23.0625,0 40.0312,-8.53125 16.9688,-8.53125 25.2188,-24.84375 z m 3.375,1.59375 q -0.1875,1.40625 -0.2813,3.1875 -0.094,1.78125 -0.094,3.65625 0,7.40625 1.6875,11.71875 1.7812,4.21875 4.9687,4.21875 1.2188,0 1.875,-0.5625 0.6563,-0.5625 0.9375,-1.40625 0.375,-0.84375 0.4688,-1.78125 0.094,-1.03125 0.094,-1.875 0,-3 -1.875,-6.9375 -1.7812,-3.75 -7.7812,-10.21875 z"
         id="path44978"
         inkscape:connector-curvature="0" />
    </g>
  </g>
</svg>
