<?xml version="1.0" encoding="UTF-8" standalone="no"?>
<!-- Created with Inkscape (http://www.inkscape.org/) -->

<svg
   xmlns:dc="http://purl.org/dc/elements/1.1/"
   xmlns:cc="http://creativecommons.org/ns#"
   xmlns:rdf="http://www.w3.org/1999/02/22-rdf-syntax-ns#"
   xmlns:svg="http://www.w3.org/2000/svg"
   xmlns="http://www.w3.org/2000/svg"
   xmlns:sodipodi="http://sodipodi.sourceforge.net/DTD/sodipodi-0.dtd"
   xmlns:inkscape="http://www.inkscape.org/namespaces/inkscape"
   width="41.2006mm"
   height="10.442773mm"
   viewBox="0 0 41.2006 10.442773"
   version="1.1"
   id="svg44425"
   inkscape:version="0.92.4 (5da689c313, 2019-01-14)"
   sodipodi:docname="V31A.svg">
  <defs
     id="defs44419" />
  <sodipodi:namedview
     id="base"
     pagecolor="#ffffff"
     bordercolor="#666666"
     borderopacity="1.0"
     inkscape:pageopacity="0.0"
     inkscape:pageshadow="2"
     inkscape:zoom="0.35"
     inkscape:cx="584.91212"
     inkscape:cy="-0.57547347"
     inkscape:document-units="mm"
     inkscape:current-layer="layer1"
     showgrid="false"
     fit-margin-top="0"
     fit-margin-left="0"
     fit-margin-right="0"
     fit-margin-bottom="0"
     inkscape:window-width="1920"
     inkscape:window-height="1017"
     inkscape:window-x="-8"
     inkscape:window-y="-8"
     inkscape:window-maximized="1" />
  <metadata
     id="metadata44422">
    <rdf:RDF>
      <cc:Work
         rdf:about="">
        <dc:format>image/svg+xml</dc:format>
        <dc:type
           rdf:resource="http://purl.org/dc/dcmitype/StillImage" />
        <dc:title></dc:title>
      </cc:Work>
    </rdf:RDF>
  </metadata>
  <g
     inkscape:label="Layer 1"
     inkscape:groupmode="layer"
     id="layer1"
     transform="translate(435.21633,-138.2383)">
    <g
       aria-label="𓎢"
       transform="matrix(0.26458333,0,0,0.26458333,-354.81347,135.29082)"
       style="font-style:normal;font-variant:normal;font-weight:normal;font-stretch:normal;font-size:192px;line-height:1.25;font-family:sans-serif;-inkscape-font-specification:sans-serif;font-variant-ligatures:normal;font-variant-caps:normal;font-variant-numeric:normal;font-feature-settings:normal;text-align:start;letter-spacing:0px;word-spacing:0px;writing-mode:lr-tb;text-anchor:start;fill:#000000;fill-opacity:1;stroke:none"
       id="flowRoot4519">
      <path
         d="m -290.19727,11.140077 h 140.8125 l 1.21875,2.25 q -10.5,20.25 -31.125,28.78125 -20.53125,8.4375 -43.21875,8.4375 -21.65625,0 -39.1875,-8.0625 -17.4375,-7.96875 -26.4375,-22.6875 0,0.75 0,1.59375 0,0.75 0.0937,1.5 0,1.96875 -0.375,5.15625 -0.375,3.1875 -1.5,6.1875 -1.03125,2.90625 -3,5.0625 -1.875,2.15625 -5.0625,2.15625 -3.09375,0 -4.5,-2.34375 -1.40625,-2.34375 -1.40625,-5.90625 0,-5.625 3.375,-10.875 3.375,-5.25 9,-10.6875 z m 138.28125,3 h -135.9375 q 8.25,16.3125 25.125,24.84375 16.96875,8.53125 40.125,8.53125 24.5625,0 43.40625,-8.8125 19.03125,-8.90625 27.28125,-24.5625 z m -138.9375,8.4375 q 0,-1.875 -0.0937,-3.65625 -0.0937,-1.78125 -0.28125,-3.1875 -6,6.46875 -7.78125,10.21875 -1.875,3.9375 -1.875,6.9375 0,0.84375 0,1.875 0.0937,0.9375 0.375,1.78125 0.375,0.84375 1.03125,1.40625 0.75,0.5625 1.96875,0.5625 3.1875,0 4.875,-4.21875 1.78125,-4.3125 1.78125,-11.71875 z"
         id="path4527"
         inkscape:connector-curvature="0" />
    </g>
  </g>
</svg>
