<?xml version="1.0" encoding="UTF-8" standalone="no"?>
<!-- Created with Inkscape (http://www.inkscape.org/) -->

<svg
   xmlns:dc="http://purl.org/dc/elements/1.1/"
   xmlns:cc="http://creativecommons.org/ns#"
   xmlns:rdf="http://www.w3.org/1999/02/22-rdf-syntax-ns#"
   xmlns:svg="http://www.w3.org/2000/svg"
   xmlns="http://www.w3.org/2000/svg"
   xmlns:sodipodi="http://sodipodi.sourceforge.net/DTD/sodipodi-0.dtd"
   xmlns:inkscape="http://www.inkscape.org/namespaces/inkscape"
   width="37.951172mm"
   height="9.0785198mm"
   viewBox="0 0 37.951172 9.0785198"
   version="1.1"
   id="svg7879"
   inkscape:version="0.92.4 (5da689c313, 2019-01-14)"
   sodipodi:docname="V32.svg">
  <defs
     id="defs7873" />
  <sodipodi:namedview
     id="base"
     pagecolor="#ffffff"
     bordercolor="#666666"
     borderopacity="1.0"
     inkscape:pageopacity="0.0"
     inkscape:pageshadow="2"
     inkscape:zoom="0.35"
     inkscape:cx="-363.25893"
     inkscape:cy="-381.35713"
     inkscape:document-units="mm"
     inkscape:current-layer="layer1"
     showgrid="false"
     fit-margin-top="0"
     fit-margin-left="0"
     fit-margin-right="0"
     fit-margin-bottom="0"
     inkscape:window-width="1920"
     inkscape:window-height="1017"
     inkscape:window-x="-8"
     inkscape:window-y="-8"
     inkscape:window-maximized="1" />
  <metadata
     id="metadata7876">
    <rdf:RDF>
      <cc:Work
         rdf:about="">
        <dc:format>image/svg+xml</dc:format>
        <dc:type
           rdf:resource="http://purl.org/dc/dcmitype/StillImage" />
        <dc:title></dc:title>
      </cc:Work>
    </rdf:RDF>
  </metadata>
  <g
     inkscape:label="Layer 1"
     inkscape:groupmode="layer"
     id="layer1"
     transform="translate(-8.7997579,-38.854073)">
    <g
       aria-label="𓎣"
       style="font-style:normal;font-variant:normal;font-weight:normal;font-stretch:normal;font-size:50.79999924px;line-height:1.25;font-family:sans-serif;-inkscape-font-specification:'sans-serif, Normal';font-variant-ligatures:normal;font-variant-caps:normal;font-variant-numeric:normal;font-feature-settings:normal;text-align:start;letter-spacing:0px;word-spacing:0px;writing-mode:lr-tb;text-anchor:start;fill:#000000;fill-opacity:1;stroke:none;stroke-width:0.26458332"
       id="text8426">
      <path
         d="m 29.982961,40.317549 0.545703,-0.79375 h 1.190625 l -0.942578,1.463477 q 2.133203,0.173633 5.432226,0.843359 3.323828,0.644922 4.167188,0.967383 l 5.159375,-0.868164 0.396875,0.272851 q 0.421679,0.868165 0.620117,1.364258 0.198437,0.496094 0.198437,0.942578 0,0.446485 -0.198437,0.967383 -0.173633,0.496094 -0.620117,1.389063 L 45.5355,47.138838 40.475343,45.948213 v 0.02481 l -3.050976,0.694531 q -2.530078,0.595313 -4.886523,0.917774 -2.331641,0.347265 -4.216797,0.347265 h -0.372071 q -2.158007,0 -4.836914,-0.421679 -2.678906,-0.42168 -7.565429,-1.537891 h -0.02481 l -5.457031,1.16582 -0.4464844,-0.198437 Q 9.1966329,46.047432 8.9981954,45.526534 8.7997579,45.005635 8.7997579,44.534346 q 0,-0.471289 0.1984375,-0.992187 0.1984375,-0.520899 0.6201172,-1.413868 l 0.4464844,-0.173632 5.457031,0.843359 2.728516,-0.669727 q 2.678906,-0.694531 4.067968,-0.917773 1.413868,-0.248047 1.984375,-0.272852 h 0.669727 l -0.917773,-1.413867 h 1.190625 l 0.471289,0.644922 q 0.173632,-0.570508 0.719335,-0.942578 0.545704,-0.37207 1.190625,-0.37207 0.719336,0 1.364258,0.421679 0.644922,0.396875 0.992188,1.041797 z m 0.297656,1.389063 v 5.357812 q 2.406055,-0.198437 4.886523,-0.719336 2.505274,-0.545703 4.81211,-1.091406 v -1.686719 q -0.446485,-0.09922 -0.992188,-0.272851 -0.545703,-0.173633 -0.868164,-0.248047 l -3.447851,-0.79375 q -1.711524,-0.37207 -3.472657,-0.520899 z m -14.312304,3.54707 4.737695,0.992187 q 2.38125,0.520899 4.812109,0.744141 v -5.283398 h -0.148828 q -1.240234,0 -2.778125,0.272851 -1.513086,0.272852 -2.75332,0.570508 l -3.869531,0.967383 z m 11.980663,1.885156 q 0.248047,0 0.496094,0 l 1.041797,-0.0248 v -5.407422 h -3.175 v 5.357812 q 0.818555,0.07441 1.637109,0.07441 z M 10.18882,46.295479 15.174563,45.204073 V 43.542159 L 10.18882,42.773213 q -0.2728511,0.644922 -0.4216793,1.041797 -0.1488281,0.37207 -0.1488281,0.719336 0,0.347266 0.1240234,0.744141 0.1488282,0.37207 0.446484,1.016992 z M 40.773,43.542159 v 1.661914 l 4.564062,1.091406 q 0.223242,-0.471289 0.42168,-0.967383 0.223242,-0.496094 0.223242,-0.992187 -0.09922,-0.42168 -0.272852,-0.79375 -0.173632,-0.396875 -0.37207,-0.768946 z M 26.336672,40.912862 h 3.050976 q -0.173633,-0.520899 -0.595312,-0.868164 -0.396875,-0.347266 -0.992188,-0.347266 -0.595312,0 -0.992187,0.248047 -0.372071,0.248047 -0.471289,0.967383 z"
         style="stroke-width:0.26458332"
         id="path8428"
         inkscape:connector-curvature="0" />
    </g>
  </g>
</svg>
