<?xml version="1.0" encoding="UTF-8" standalone="no"?>
<!-- Created with Inkscape (http://www.inkscape.org/) -->

<svg
   xmlns:dc="http://purl.org/dc/elements/1.1/"
   xmlns:cc="http://creativecommons.org/ns#"
   xmlns:rdf="http://www.w3.org/1999/02/22-rdf-syntax-ns#"
   xmlns:svg="http://www.w3.org/2000/svg"
   xmlns="http://www.w3.org/2000/svg"
   xmlns:sodipodi="http://sodipodi.sourceforge.net/DTD/sodipodi-0.dtd"
   xmlns:inkscape="http://www.inkscape.org/namespaces/inkscape"
   width="15.924609mm"
   height="21.332031mm"
   viewBox="0 0 15.924609 21.332031"
   version="1.1"
   id="svg4536"
   inkscape:version="0.92.4 (5da689c313, 2019-01-14)"
   sodipodi:docname="V33A.svg">
  <defs
     id="defs4530" />
  <sodipodi:namedview
     id="base"
     pagecolor="#ffffff"
     bordercolor="#666666"
     borderopacity="1.0"
     inkscape:pageopacity="0.0"
     inkscape:pageshadow="2"
     inkscape:zoom="0.35"
     inkscape:cx="839.59769"
     inkscape:cy="-256.26047"
     inkscape:document-units="mm"
     inkscape:current-layer="layer1"
     showgrid="false"
     fit-margin-top="0"
     fit-margin-left="0"
     fit-margin-right="0"
     fit-margin-bottom="0"
     inkscape:window-width="1920"
     inkscape:window-height="1017"
     inkscape:window-x="-8"
     inkscape:window-y="-8"
     inkscape:window-maximized="1" />
  <metadata
     id="metadata4533">
    <rdf:RDF>
      <cc:Work
         rdf:about="">
        <dc:format>image/svg+xml</dc:format>
        <dc:type
           rdf:resource="http://purl.org/dc/dcmitype/StillImage" />
        <dc:title></dc:title>
      </cc:Work>
    </rdf:RDF>
  </metadata>
  <g
     inkscape:label="Layer 1"
     inkscape:groupmode="layer"
     id="layer1"
     transform="translate(309.45605,-59.699053)">
    <g
       aria-label="𓎥"
       transform="scale(0.26458333)"
       style="font-style:normal;font-variant:normal;font-weight:normal;font-stretch:normal;font-size:192px;line-height:1.25;font-family:sans-serif;-inkscape-font-specification:sans-serif;font-variant-ligatures:normal;font-variant-caps:normal;font-variant-numeric:normal;font-feature-settings:normal;text-align:start;letter-spacing:0px;word-spacing:0px;writing-mode:lr-tb;text-anchor:start;fill:#000000;fill-opacity:1;stroke:none"
       id="flowRoot5081">
      <path
         d="m -1139.5039,225.63422 q 12.2812,0 21.1875,11.90625 8.9062,11.90625 8.9062,28.40625 0,16.5 -8.9062,28.40625 -8.9063,11.90625 -21.1875,11.90625 -12.2813,0 -21.1875,-11.90625 -8.9063,-11.90625 -8.9063,-28.40625 0,-16.5 8.9063,-28.40625 8.9062,-11.90625 21.1875,-11.90625 z m -23.625,26.0625 h 47.1562 q -3,-9.84375 -9.4687,-15.9375 -6.4688,-6.1875 -14.1563,-6.1875 -7.7812,0 -14.25,6.28125 -6.4687,6.1875 -9.2812,15.84375 z m 47.1562,28.59375 h -47.1562 q 2.8125,9.84375 9.2812,16.03125 6.5625,6.09375 14.25,6.09375 7.5938,0 14.0625,-6 6.4688,-6 9.5625,-16.125 z m 1.0313,-4.125 q 0.375,-1.875 0.5625,-3.84375 0.2812,-2.0625 0.375,-4.21875 h -51.1875 q 0,2.15625 0.2812,4.21875 0.2813,1.96875 0.6563,3.84375 z m -49.3125,-20.25 q -0.375,1.96875 -0.6563,3.9375 -0.1875,1.96875 -0.2812,4.03125 h 51.1875 q 0,-2.0625 -0.2813,-4.03125 -0.2812,-1.96875 -0.6562,-3.9375 z"
         id="path5089"
         inkscape:connector-curvature="0" />
    </g>
  </g>
</svg>
