<?xml version="1.0" encoding="UTF-8" standalone="no"?>
<!-- Created with Inkscape (http://www.inkscape.org/) -->

<svg
   xmlns:dc="http://purl.org/dc/elements/1.1/"
   xmlns:cc="http://creativecommons.org/ns#"
   xmlns:rdf="http://www.w3.org/1999/02/22-rdf-syntax-ns#"
   xmlns:svg="http://www.w3.org/2000/svg"
   xmlns="http://www.w3.org/2000/svg"
   xmlns:sodipodi="http://sodipodi.sourceforge.net/DTD/sodipodi-0.dtd"
   xmlns:inkscape="http://www.inkscape.org/namespaces/inkscape"
   width="17.983404mm"
   height="37.901562mm"
   viewBox="0 0 17.983404 37.901562"
   version="1.1"
   id="svg10111"
   inkscape:version="0.92.4 (5da689c313, 2019-01-14)"
   sodipodi:docname="V36.svg">
  <defs
     id="defs10105" />
  <sodipodi:namedview
     id="base"
     pagecolor="#ffffff"
     bordercolor="#666666"
     borderopacity="1.0"
     inkscape:pageopacity="0.0"
     inkscape:pageshadow="2"
     inkscape:zoom="0.35"
     inkscape:cx="-351.83036"
     inkscape:cy="-372.78572"
     inkscape:document-units="mm"
     inkscape:current-layer="layer1"
     showgrid="false"
     fit-margin-top="0"
     fit-margin-left="0"
     fit-margin-right="0"
     fit-margin-bottom="0"
     inkscape:window-width="1920"
     inkscape:window-height="1017"
     inkscape:window-x="-8"
     inkscape:window-y="-8"
     inkscape:window-maximized="1" />
  <metadata
     id="metadata10108">
    <rdf:RDF>
      <cc:Work
         rdf:about="">
        <dc:format>image/svg+xml</dc:format>
        <dc:type
           rdf:resource="http://purl.org/dc/dcmitype/StillImage" />
        <dc:title></dc:title>
      </cc:Work>
    </rdf:RDF>
  </metadata>
  <g
     inkscape:label="Layer 1"
     inkscape:groupmode="layer"
     id="layer1"
     transform="translate(-5.7759485,-12.298883)">
    <g
       aria-label="𓎨"
       style="font-style:normal;font-variant:normal;font-weight:normal;font-stretch:normal;font-size:50.79999924px;line-height:1.25;font-family:sans-serif;-inkscape-font-specification:'sans-serif, Normal';font-variant-ligatures:normal;font-variant-caps:normal;font-variant-numeric:normal;font-feature-settings:normal;text-align:start;letter-spacing:0px;word-spacing:0px;writing-mode:lr-tb;text-anchor:start;fill:#000000;fill-opacity:1;stroke:none;stroke-width:0.26458332"
       id="text10658">
      <path
         d="m 5.7759485,12.670953 0.7193359,-0.322461 4.8865236,5.258594 4.514453,-5.308203 0.669726,0.297656 v 9.649023 q 3.695899,0.322461 5.357813,2.133203 1.686719,1.785938 1.810742,4.340821 l 0.02481,0.694531 -0.42168,0.396875 q -1.5875,0 -2.108398,-1.761133 Q 20.73318,26.288726 19.666578,25.346148 18.624781,24.40357 16.565992,23.957086 V 49.80357 l -0.421679,0.396875 H 6.1480188 L 5.7759485,49.729156 Z M 15.772237,49.406695 V 23.014508 H 6.5696985 V 49.406695 Z M 6.5696985,22.220758 h 9.2025385 v -8.557617 l -4.067968,4.787304 -0.595313,0.04961 -4.5392575,-4.886524 z m 9.9962885,0.818554 v 0.09922 q 2.306836,0.446484 3.571875,1.5875 1.289844,1.116211 2.207618,3.919141 0.07441,0.07441 0.173632,0.223242 l 0.223243,0.07441 0.198437,0.04961 Q 22.791964,26.164703 21.278878,24.77564 19.765792,23.361773 16.565987,23.039312 Z"
         style="stroke-width:0.26458332"
         id="path10660"
         inkscape:connector-curvature="0" />
    </g>
  </g>
</svg>
