<?xml version="1.0" encoding="UTF-8" standalone="no"?>
<!-- Created with Inkscape (http://www.inkscape.org/) -->

<svg
   xmlns:dc="http://purl.org/dc/elements/1.1/"
   xmlns:cc="http://creativecommons.org/ns#"
   xmlns:rdf="http://www.w3.org/1999/02/22-rdf-syntax-ns#"
   xmlns:svg="http://www.w3.org/2000/svg"
   xmlns="http://www.w3.org/2000/svg"
   xmlns:sodipodi="http://sodipodi.sourceforge.net/DTD/sodipodi-0.dtd"
   xmlns:inkscape="http://www.inkscape.org/namespaces/inkscape"
   width="25.623241mm"
   height="21.80332mm"
   viewBox="0 0 25.623241 21.80332"
   version="1.1"
   id="svg10669"
   inkscape:version="0.92.4 (5da689c313, 2019-01-14)"
   sodipodi:docname="V37.svg">
  <defs
     id="defs10663" />
  <sodipodi:namedview
     id="base"
     pagecolor="#ffffff"
     bordercolor="#666666"
     borderopacity="1.0"
     inkscape:pageopacity="0.0"
     inkscape:pageshadow="2"
     inkscape:zoom="0.35"
     inkscape:cx="-343.25893"
     inkscape:cy="-375.26786"
     inkscape:document-units="mm"
     inkscape:current-layer="layer1"
     showgrid="false"
     fit-margin-top="0"
     fit-margin-left="0"
     fit-margin-right="0"
     fit-margin-bottom="0"
     inkscape:window-width="1920"
     inkscape:window-height="1017"
     inkscape:window-x="-8"
     inkscape:window-y="-8"
     inkscape:window-maximized="1" />
  <metadata
     id="metadata10666">
    <rdf:RDF>
      <cc:Work
         rdf:about="">
        <dc:format>image/svg+xml</dc:format>
        <dc:type
           rdf:resource="http://purl.org/dc/dcmitype/StillImage" />
        <dc:title></dc:title>
      </cc:Work>
    </rdf:RDF>
  </metadata>
  <g
     inkscape:label="Layer 1"
     inkscape:groupmode="layer"
     id="layer1"
     transform="translate(-3.5080914,-27.740393)">
    <g
       aria-label="𓎩"
       style="font-style:normal;font-variant:normal;font-weight:normal;font-stretch:normal;font-size:50.79999924px;line-height:1.25;font-family:sans-serif;-inkscape-font-specification:'sans-serif, Normal';font-variant-ligatures:normal;font-variant-caps:normal;font-variant-numeric:normal;font-feature-settings:normal;text-align:start;letter-spacing:0px;word-spacing:0px;writing-mode:lr-tb;text-anchor:start;fill:#000000;fill-opacity:1;stroke:none;stroke-width:0.26458332"
       id="text11216">
      <path
         d="m 24.939341,27.740393 -3.199805,4.787304 h 6.970118 l 0.421679,0.396875 q -0.595312,5.208985 -2.058789,9.004102 -1.438672,3.795117 -4.018359,5.705078 -2.554883,1.909961 -5.853906,1.909961 -3.100586,0 -5.630664,-1.339453 Q 9.0395367,46.840002 7.2535992,44.55797 5.4676617,42.251135 4.4754742,39.274572 3.5080914,36.273205 3.5080914,32.998986 l 0.3720703,-0.471289 h 9.0041013 q 0.198438,-0.570508 0.570508,-0.967383 0.37207,-0.396875 0.868164,-0.644921 0.496094,-0.272852 1.066602,-0.372071 0.595312,-0.124023 1.190625,-0.124023 1.141015,0 2.182812,0.446484 1.066602,0.42168 1.637109,1.562695 l 3.026172,-4.688085 z M 4.3018414,33.321447 q 0.074414,6.101953 3.646289,10.765234 3.5718746,4.613672 9.4009766,4.613672 4.34082,0 7.14375,-3.646289 2.802929,-3.671093 3.770312,-11.732617 z m 9.4505856,-0.79375 h 5.754688 q -0.42168,-0.74414 -1.165821,-1.016992 -0.74414,-0.272851 -1.637109,-0.272851 -1.066602,0 -1.885156,0.347265 -0.818555,0.347266 -1.066602,0.942578 z"
         style="stroke-width:0.26458332"
         id="path11218"
         inkscape:connector-curvature="0" />
    </g>
  </g>
</svg>
