<?xml version="1.0" encoding="UTF-8" standalone="no"?>
<!-- Created with Inkscape (http://www.inkscape.org/) -->

<svg
   xmlns:dc="http://purl.org/dc/elements/1.1/"
   xmlns:cc="http://creativecommons.org/ns#"
   xmlns:rdf="http://www.w3.org/1999/02/22-rdf-syntax-ns#"
   xmlns:svg="http://www.w3.org/2000/svg"
   xmlns="http://www.w3.org/2000/svg"
   xmlns:sodipodi="http://sodipodi.sourceforge.net/DTD/sodipodi-0.dtd"
   xmlns:inkscape="http://www.inkscape.org/namespaces/inkscape"
   width="48.914845mm"
   height="22.423437mm"
   viewBox="0 0 48.914845 22.423437"
   version="1.1"
   id="svg4528"
   inkscape:version="0.92.4 (5da689c313, 2019-01-14)"
   sodipodi:docname="V37A.svg">
  <defs
     id="defs4522" />
  <sodipodi:namedview
     id="base"
     pagecolor="#ffffff"
     bordercolor="#666666"
     borderopacity="1.0"
     inkscape:pageopacity="0.0"
     inkscape:pageshadow="2"
     inkscape:zoom="0.35"
     inkscape:cx="-363.25893"
     inkscape:cy="-335.73661"
     inkscape:document-units="mm"
     inkscape:current-layer="layer1"
     showgrid="false"
     fit-margin-top="0"
     fit-margin-left="0"
     fit-margin-right="0"
     fit-margin-bottom="0"
     inkscape:window-width="1920"
     inkscape:window-height="1017"
     inkscape:window-x="-8"
     inkscape:window-y="-8"
     inkscape:window-maximized="1" />
  <metadata
     id="metadata4525">
    <rdf:RDF>
      <cc:Work
         rdf:about="">
        <dc:format>image/svg+xml</dc:format>
        <dc:type
           rdf:resource="http://purl.org/dc/dcmitype/StillImage" />
        <dc:title></dc:title>
      </cc:Work>
    </rdf:RDF>
  </metadata>
  <g
     inkscape:label="Layer 1"
     inkscape:groupmode="layer"
     id="layer1"
     transform="translate(-8.7997579,-37.579584)">
    <g
       aria-label="𓎪"
       style="font-style:normal;font-variant:normal;font-weight:normal;font-stretch:normal;font-size:50.79999924px;line-height:1.25;font-family:sans-serif;-inkscape-font-specification:'sans-serif, Normal';font-variant-ligatures:normal;font-variant-caps:normal;font-variant-numeric:normal;font-feature-settings:normal;text-align:start;letter-spacing:0px;word-spacing:0px;writing-mode:lr-tb;text-anchor:start;fill:#000000;fill-opacity:1;stroke:none;stroke-width:0.26458332"
       id="text5075">
      <path
         d="m 19.912258,48.220795 q -4.936133,-1.141016 -7.044531,-2.579688 -2.108399,-1.438671 -3.1005863,-3.075781 -0.9673828,-1.637109 -0.9673828,-2.75332 0,-0.892969 0.8681641,-1.562695 0.892969,-0.669727 2.00918,-0.669727 1.637109,0 3.91914,2.083594 2.282031,2.083594 4.911328,7.714257 h 36.859765 l 0.347266,0.644922 q -1.066602,1.959571 -1.5875,2.728516 -0.496094,0.768945 -1.860352,2.182812 -1.339453,1.389063 -2.926953,2.554883 -1.562695,1.16582 -3.348632,2.108399 -1.785938,0.917773 -3.348633,1.413867 -1.562695,0.496093 -3.075781,0.74414 -1.488282,0.248047 -3.050977,0.248047 -3.150195,0 -6.101953,-0.992187 -2.951758,-0.992188 -5.308203,-2.530078 -2.356445,-1.537891 -3.96875,-3.274219 -1.5875,-1.761133 -3.224609,-4.985742 z m 0.868164,-0.04961 q 2.058789,3.919141 4.539258,6.027539 2.480468,2.108399 6.002734,3.571875 3.522265,1.463477 7.540625,1.463477 5.208984,0 10.194726,-3.125391 4.985742,-3.12539 7.664648,-7.9375 z m -1.141016,-0.818554 q -2.306836,-4.936133 -4.390429,-6.920508 -2.083594,-2.00918 -3.547071,-2.00918 -0.79375,0 -1.438672,0.322461 -0.6201167,0.322461 -0.6449214,0.942578 v 0.148829 q 0,0.967382 0.9425784,2.480468 0.967383,1.513086 2.877343,2.778125 1.934766,1.240235 6.201172,2.257227 z"
         style="stroke-width:0.26458332"
         id="path5077"
         inkscape:connector-curvature="0" />
    </g>
  </g>
</svg>
