<?xml version="1.0" encoding="UTF-8" standalone="no"?>
<!-- Created with Inkscape (http://www.inkscape.org/) -->

<svg
   xmlns:dc="http://purl.org/dc/elements/1.1/"
   xmlns:cc="http://creativecommons.org/ns#"
   xmlns:rdf="http://www.w3.org/1999/02/22-rdf-syntax-ns#"
   xmlns:svg="http://www.w3.org/2000/svg"
   xmlns="http://www.w3.org/2000/svg"
   xmlns:sodipodi="http://sodipodi.sourceforge.net/DTD/sodipodi-0.dtd"
   xmlns:inkscape="http://www.inkscape.org/namespaces/inkscape"
   width="12.055078mm"
   height="37.876759mm"
   viewBox="0 0 12.055078 37.876759"
   version="1.1"
   id="svg11227"
   inkscape:version="0.92.4 (5da689c313, 2019-01-14)"
   sodipodi:docname="V38.svg">
  <defs
     id="defs11221" />
  <sodipodi:namedview
     id="base"
     pagecolor="#ffffff"
     bordercolor="#666666"
     borderopacity="1.0"
     inkscape:pageopacity="0.0"
     inkscape:pageshadow="2"
     inkscape:zoom="0.35"
     inkscape:cx="-334.6875"
     inkscape:cy="-358.875"
     inkscape:document-units="mm"
     inkscape:current-layer="layer1"
     showgrid="false"
     fit-margin-top="0"
     fit-margin-left="0"
     fit-margin-right="0"
     fit-margin-bottom="0"
     inkscape:window-width="1920"
     inkscape:window-height="1017"
     inkscape:window-x="-8"
     inkscape:window-y="-8"
     inkscape:window-maximized="1" />
  <metadata
     id="metadata11224">
    <rdf:RDF>
      <cc:Work
         rdf:about="">
        <dc:format>image/svg+xml</dc:format>
        <dc:type
           rdf:resource="http://purl.org/dc/dcmitype/StillImage" />
        <dc:title></dc:title>
      </cc:Work>
    </rdf:RDF>
  </metadata>
  <g
     inkscape:label="Layer 1"
     inkscape:groupmode="layer"
     id="layer1"
     transform="translate(-1.2402344,-16.004231)">
    <g
       aria-label="𓎫"
       style="font-style:normal;font-variant:normal;font-weight:normal;font-stretch:normal;font-size:50.79999924px;line-height:1.25;font-family:sans-serif;-inkscape-font-specification:'sans-serif, Normal';font-variant-ligatures:normal;font-variant-caps:normal;font-variant-numeric:normal;font-feature-settings:normal;text-align:start;letter-spacing:0px;word-spacing:0px;writing-mode:lr-tb;text-anchor:start;fill:#000000;fill-opacity:1;stroke:none;stroke-width:0.26458332"
       id="text11774">
      <path
         d="m 7.5158202,16.004231 q 1.984375,1.513086 3.0757808,3.447852 1.091407,1.90996 1.711524,4.861718 0.644922,2.951758 0.79375,4.737695 0.148828,1.761133 0.198437,5.705079 v 1.066601 q 0,7.168555 -1.463476,11.310937 -1.438672,4.142383 -4.2167971,6.697266 l -0.5953124,0.04961 Q 6.424414,53.335285 5.9035155,52.839191 5.3826171,52.343098 4.9361327,51.648566 L 4.3904296,50.755598 Q 3.9687499,50.135481 3.1501953,48.275129 2.3564453,46.414777 1.7859375,42.66927 1.2402344,38.923762 1.2402344,35.029426 q 0,-7.242969 1.3394531,-11.931054 1.3642578,-4.688086 3.8943358,-6.647657 L 7.0197265,16.029036 Z M 7.7886718,17.194856 7.292578,16.84759 Q 6.9949218,17.070833 6.7964843,17.244465 L 6.424414,17.591731 Q 4.6880859,19.204036 3.3734374,23.2472 2.058789,27.265559 2.058789,34.086848 q 0,7.491015 1.2402344,11.980664 1.265039,4.489648 3.9935546,6.970117 2.6292969,-2.430859 3.943945,-6.598047 1.314649,-4.167187 1.314649,-10.591601 0,-8.508008 -1.389063,-12.873633 -1.3642576,-4.365625 -3.3734372,-5.779492 z"
         style="stroke-width:0.26458332"
         id="path11776"
         inkscape:connector-curvature="0" />
    </g>
  </g>
</svg>
