<?xml version="1.0" encoding="UTF-8" standalone="no"?>
<!-- Created with Inkscape (http://www.inkscape.org/) -->

<svg
   xmlns:dc="http://purl.org/dc/elements/1.1/"
   xmlns:cc="http://creativecommons.org/ns#"
   xmlns:rdf="http://www.w3.org/1999/02/22-rdf-syntax-ns#"
   xmlns:svg="http://www.w3.org/2000/svg"
   xmlns="http://www.w3.org/2000/svg"
   xmlns:sodipodi="http://sodipodi.sourceforge.net/DTD/sodipodi-0.dtd"
   xmlns:inkscape="http://www.inkscape.org/namespaces/inkscape"
   width="15.602148mm"
   height="38.075199mm"
   viewBox="0 0 15.602148 38.075199"
   version="1.1"
   id="svg10669"
   inkscape:version="0.92.4 (5da689c313, 2019-01-14)"
   sodipodi:docname="V39.svg">
  <defs
     id="defs10663" />
  <sodipodi:namedview
     id="base"
     pagecolor="#ffffff"
     bordercolor="#666666"
     borderopacity="1.0"
     inkscape:pageopacity="0.0"
     inkscape:pageshadow="2"
     inkscape:zoom="0.35"
     inkscape:cx="-363.25893"
     inkscape:cy="-369.92857"
     inkscape:document-units="mm"
     inkscape:current-layer="layer1"
     showgrid="false"
     fit-margin-top="0"
     fit-margin-left="0"
     fit-margin-right="0"
     fit-margin-bottom="0"
     inkscape:window-width="1920"
     inkscape:window-height="1017"
     inkscape:window-x="-8"
     inkscape:window-y="-8"
     inkscape:window-maximized="1" />
  <metadata
     id="metadata10666">
    <rdf:RDF>
      <cc:Work
         rdf:about="">
        <dc:format>image/svg+xml</dc:format>
        <dc:type
           rdf:resource="http://purl.org/dc/dcmitype/StillImage" />
        <dc:title></dc:title>
      </cc:Work>
    </rdf:RDF>
  </metadata>
  <g
     inkscape:label="Layer 1"
     inkscape:groupmode="layer"
     id="layer1"
     transform="translate(-8.7997579,-12.881201)">
    <g
       aria-label="𓎬"
       style="font-style:normal;font-variant:normal;font-weight:normal;font-stretch:normal;font-size:50.79999924px;line-height:1.25;font-family:sans-serif;-inkscape-font-specification:'sans-serif, Normal';font-variant-ligatures:normal;font-variant-caps:normal;font-variant-numeric:normal;font-feature-settings:normal;text-align:start;letter-spacing:0px;word-spacing:0px;writing-mode:lr-tb;text-anchor:start;fill:#000000;fill-opacity:1;stroke:none;stroke-width:0.26458332"
       id="text11216">
      <path
         d="m 21.524562,18.11499 q 0,1.16582 -0.32246,2.778125 -0.322461,1.5875 -1.438672,4.464844 2.009179,0.124023 3.323828,1.091406 1.314648,0.967383 1.314648,2.480469 v 15.626952 q 0,0.644922 -0.644922,0.967383 -0.644922,0.297656 -2.406054,0.297656 h -0.595313 q -0.297656,0 -0.545703,-0.0248 0.496094,1.041797 1.091406,2.108398 0.620117,1.041797 1.339453,1.909961 l 1.066602,0.37207 -0.124024,0.768946 H 9.1718282 v -0.79375 q 0.3472657,-0.09922 0.6945313,-0.173633 0.3472655,-0.07441 0.6945315,-0.173633 0.669726,-0.942578 1.215429,-1.934765 0.570508,-0.992188 0.892969,-2.108399 -0.272851,0 -0.620117,0.02481 l -0.694531,0.0248 q -1.4634768,0 -2.0091799,-0.347265 Q 8.7997579,45.127294 8.7997579,44.482372 V 28.855419 q 0,-1.513085 1.3146481,-2.430859 1.339453,-0.942578 3.274219,-1.066601 -0.942578,-1.984375 -1.463476,-3.770313 -0.496094,-1.785937 -0.496094,-3.398242 0,-2.505273 1.215429,-3.894336 1.21543,-1.413867 3.770313,-1.413867 2.505273,0 3.795117,1.339453 1.314648,1.339453 1.314648,3.894336 z M 20.805227,41.753857 V 29.797998 q 0,-0.620118 -0.297657,-0.917774 -0.272851,-0.297656 -1.041797,-0.347265 -0.124023,0.272851 -0.297656,0.545703 -0.148828,0.248047 -0.37207,0.446484 v 0.37207 q 0,1.364258 -0.02481,2.654102 -0.02481,1.265039 -0.02481,2.629297 0,2.480468 0.198438,4.911328 0.223242,2.430859 0.942578,4.861718 h 2.480469 l 0.595312,-0.0248 q 0.272852,0 0.446485,-0.124024 0.198437,-0.124023 0.198437,-0.322461 V 29.004248 q 0,-1.240235 -1.066601,-1.984375 -1.066602,-0.744141 -2.951758,-0.892969 l 0.04961,1.190625 q 0,0.248047 -0.0248,0.471289 0.967382,0.124023 1.463476,0.595312 0.520898,0.471289 0.520898,1.265039 v 12.030274 z m -9.202539,-0.07441 V 29.649169 q 0,-0.917773 0.570507,-1.314648 0.595313,-0.42168 1.389063,-0.545703 v -0.620117 q 0,-0.372071 0.04961,-1.041797 -1.562695,0 -2.802929,0.768945 -1.2154301,0.744141 -1.2154301,2.033985 v 15.626952 q 0,0.223243 0.4960941,0.347266 0.496093,0.124023 1.463476,0.124023 0.42168,0 0.768946,-0.0248 0.37207,-0.02481 0.595312,-0.02481 0.843359,-1.835547 1.16582,-3.795117 0.347266,-1.95957 0.42168,-3.993555 0,-0.818554 0.02481,-1.364257 V 35.47827 q 0,-0.347266 -0.02481,-0.669727 0,-1.289843 -0.04961,-2.579687 -0.04961,-1.289844 -0.04961,-2.778125 -0.173633,-0.148828 -0.322461,-0.42168 -0.148828,-0.297656 -0.272851,-0.496093 -0.818555,0.04961 -1.116211,0.347265 -0.297656,0.272852 -0.297656,0.917774 v 11.955859 z m 0.620117,-23.514844 q 0,1.463477 0.520898,3.323828 0.520899,1.860352 1.513086,3.844727 h 1.16582 q -0.396875,-1.141016 -1.190625,-3.695898 -0.79375,-2.579688 -0.79375,-3.423047 0,-1.562696 0.992188,-2.356446 1.016992,-0.79375 2.282031,-0.79375 1.289844,0 2.058789,0.79375 0.79375,0.768946 0.79375,2.306836 0,1.190625 -0.694531,3.323828 -0.694531,2.108399 -1.463477,3.844727 h 1.513086 q 0.719336,-1.686719 1.265039,-3.646289 0.545703,-1.984375 0.545703,-3.571875 0,-2.356445 -1.141015,-3.398242 -1.141016,-1.066602 -3.050977,-1.066602 -1.785937,0 -3.050976,1.016992 -1.265039,0.992188 -1.265039,3.497461 z M 21.896633,50.16265 Q 19.76343,47.458935 18.895266,44.30874 18.027102,41.158544 18.002297,37.760302 v -7.813476 q -0.520899,0.173633 -1.016992,0.198437 H 16.9605 v 20.017383 z m -10.566797,0 h 4.787305 l 0.04961,-19.992578 q -0.272852,0 -0.520898,-0.04961 -0.223243,-0.04961 -0.446485,-0.148829 0,0.744141 0.04961,2.554883 0.07441,1.785938 0.07441,3.150195 0,3.001368 -0.347266,5.060157 -0.322461,2.058789 -0.892969,3.522265 -0.545703,1.438672 -1.314648,3.249414 -0.744141,1.785938 -1.438672,2.654102 z M 15.74507,23.795263 q 0.07441,0.297657 0.148828,0.496094 l 0.148829,0.396875 0.223242,0.644922 h 0.272851 q 1.141016,-2.430859 1.686719,-4.266406 0.570508,-1.860352 0.570508,-2.852539 0,-1.116211 -0.669727,-1.736328 -0.669726,-0.620118 -1.661914,-0.620118 -0.967383,0 -1.5875,0.545704 -0.620117,0.545703 -0.620117,1.736328 0,0.74414 0.223242,1.736328 0.248047,0.967383 0.620117,2.009179 z m -1.389062,2.331641 q 0,0.248047 -0.0248,0.471289 0,1.16582 0.545703,1.934766 0.545703,0.74414 1.686719,0.74414 1.190625,0 1.711523,-0.74414 0.545704,-0.768946 0.545704,-1.860352 0,-0.272852 -0.0248,-0.570508 z"
         style="stroke-width:0.26458332"
         id="path11218"
         inkscape:connector-curvature="0" />
    </g>
  </g>
</svg>
