<?xml version="1.0" encoding="UTF-8" standalone="no"?>
<svg
   xmlns:dc="http://purl.org/dc/elements/1.1/"
   xmlns:cc="http://creativecommons.org/ns#"
   xmlns:rdf="http://www.w3.org/1999/02/22-rdf-syntax-ns#"
   xmlns:svg="http://www.w3.org/2000/svg"
   xmlns="http://www.w3.org/2000/svg"
   xmlns:sodipodi="http://sodipodi.sourceforge.net/DTD/sodipodi-0.dtd"
   xmlns:inkscape="http://www.inkscape.org/namespaces/inkscape"
   version="1.0"
   width="123.12501pt"
   height="294.48242pt"
   viewBox="0 0 123.125 294.48242"
   preserveAspectRatio="xMidYMid meet"
   id="svg8"
   sodipodi:docname="V41.svg"
   inkscape:version="0.92.4 (5da689c313, 2019-01-14)">
  <defs
     id="defs12" />
  <sodipodi:namedview
     pagecolor="#ffffff"
     bordercolor="#666666"
     borderopacity="1"
     objecttolerance="10"
     gridtolerance="10"
     guidetolerance="10"
     inkscape:pageopacity="0"
     inkscape:pageshadow="2"
     inkscape:window-width="1920"
     inkscape:window-height="1017"
     id="namedview10"
     showgrid="false"
     fit-margin-top="0"
     fit-margin-left="0"
     fit-margin-right="0"
     fit-margin-bottom="0"
     inkscape:zoom="2.017094"
     inkscape:cx="-137.49302"
     inkscape:cy="207.13307"
     inkscape:window-x="-8"
     inkscape:window-y="-8"
     inkscape:window-maximized="1"
     inkscape:current-layer="svg8" />
  <metadata
     id="metadata2">
Created by potrace 1.10, written by Peter Selinger 2001-2011
<rdf:RDF>
  <cc:Work
     rdf:about="">
    <dc:format>image/svg+xml</dc:format>
    <dc:type
       rdf:resource="http://purl.org/dc/dcmitype/StillImage" />
    <dc:title></dc:title>
  </cc:Work>
</rdf:RDF>
</metadata>
  <g
     transform="matrix(0.1,0,0,-0.1,-195.85555,310.18934)"
     id="g6"
     style="fill:#000000;stroke:none">
    <path
       d="m 265,3201 -30,-6 -3,-140 c -4,-187 24,-1105 43,-1375 19,-274 42,-504 61,-600 8,-42 14,-90 14,-107 0,-18 7,-67 16,-110 14,-73 22,-107 54,-238 7,-27 16,-68 20,-90 4,-22 13,-53 18,-70 6,-16 21,-58 33,-92 41,-120 142,-178 213,-122 51,40 126,167 126,213 0,11 6,41 14,66 8,25 22,81 31,125 10,44 23,108 31,142 8,34 14,77 14,95 0,18 7,83 15,143 9,61 22,157 30,215 9,58 15,130 15,160 0,30 6,120 15,200 8,80 19,196 24,259 6,72 14,116 22,122 18,11 113,-65 195,-157 38,-42 88,-97 111,-121 l 43,-45 32,19 c 54,31 49,59 -23,155 -70,92 -146,177 -169,187 -38,17 -110,67 -110,77 0,6 21,21 46,35 101,53 211,129 255,176 20,21 44,59 54,86 17,46 17,49 0,90 -22,49 -72,107 -94,107 -8,0 -29,5 -47,12 -54,19 -198,-22 -252,-72 -11,-11 -26,-20 -32,-20 -9,0 -10,88 -5,328 4,218 3,332 -4,342 -9,13 -64,15 -378,17 -202,0 -381,-2 -398,-6 z m 650,-476 c 0,-198 -3,-368 -7,-377 -7,-17 -29,-18 -261,-18 -192,0 -257,3 -265,13 -6,7 -13,152 -17,371 -7,300 -6,360 6,367 8,5 133,8 279,6 l 265,-2 z m 410,-237 c 23,-10 26,-16 21,-42 -6,-29 -80,-116 -99,-116 -5,0 -26,-12 -46,-27 -35,-27 -87,-55 -125,-67 -16,-6 -18,-2 -11,31 3,21 13,48 21,60 8,12 14,29 14,37 0,18 96,105 135,122 38,17 57,17 90,2 z M 902,2176 c -1,-33 -7,-66 -14,-73 -8,-11 -61,-13 -257,-11 l -246,3 -3,59 c -2,32 -1,65 2,73 5,11 52,13 263,11 l 258,-3 z m -12,-254 c 0,-43 -7,-132 -15,-197 -8,-66 -15,-146 -15,-179 0,-86 -25,-291 -70,-586 -7,-41 -15,-102 -20,-135 -7,-60 -19,-114 -46,-211 -8,-28 -14,-65 -14,-81 0,-44 -40,-142 -62,-154 -16,-9 -21,-4 -38,33 -11,24 -20,50 -20,58 0,8 -6,35 -14,60 -41,130 -76,294 -76,354 0,16 -7,68 -15,115 -33,193 -45,279 -45,317 0,21 -6,86 -15,144 -19,137 -48,517 -40,530 4,6 101,10 256,10 h 249 z"
       id="path4"
       inkscape:connector-curvature="0" />
  </g>
  <path
     style="color:#000000;font-style:normal;font-variant:normal;font-weight:normal;font-stretch:normal;font-size:medium;line-height:normal;font-family:sans-serif;font-variant-ligatures:normal;font-variant-position:normal;font-variant-caps:normal;font-variant-numeric:normal;font-variant-alternates:normal;font-feature-settings:normal;text-indent:0;text-align:start;text-decoration:none;text-decoration-line:none;text-decoration-style:solid;text-decoration-color:#000000;letter-spacing:normal;word-spacing:normal;text-transform:none;writing-mode:lr-tb;direction:ltr;text-orientation:mixed;dominant-baseline:auto;baseline-shift:baseline;text-anchor:start;white-space:normal;shape-padding:0;clip-rule:nonzero;display:inline;overflow:visible;visibility:visible;opacity:1;isolation:auto;mix-blend-mode:normal;color-interpolation:sRGB;color-interpolation-filters:linearRGB;solid-color:#000000;solid-opacity:1;vector-effect:none;fill:#000000;fill-opacity:1;fill-rule:nonzero;stroke:none;stroke-width:7.04999971;stroke-linecap:butt;stroke-linejoin:miter;stroke-miterlimit:4;stroke-dasharray:none;stroke-dashoffset:0;stroke-opacity:1;color-rendering:auto;image-rendering:auto;shape-rendering:auto;text-rendering:auto;enable-background:accumulate"
     d="m 0,0 0.0175781,3.5429687 c 0,0 0.27814699,59.8666183 5.03125,125.5468713 2.3765515,32.84013 5.8688739,67.1375 11.0292969,96.23633 5.160423,29.09883 11.673094,52.87112 21.494141,65.55664 l 2.787109,3.59961 2.787109,-3.59961 C 52.967532,278.19729 59.482155,254.425 64.642578,225.32617 69.803001,196.22734 73.29337,161.92997 75.669922,129.08984 80.423025,63.409587 80.703125,3.5429687 80.703125,3.5429687 L 80.718755,0 H 77.177734 Z M 7.1347656,7.0507812 H 73.583984 C 73.550314,12.239426 73.150539,66.233325 68.638672,128.58008 66.272534,161.2763 62.790563,195.39741 57.701172,224.0957 53.21076,249.41645 47.219426,270.58345 40.359375,282.34375 33.499554,270.58326 27.509823,249.41577 23.019531,224.0957 17.930141,195.39741 14.446216,161.2763 12.080078,128.58008 7.5682118,66.233325 7.1684389,12.239426 7.1347656,7.0507812 Z"
     id="path816-3"
     inkscape:connector-curvature="0" />
  <path
     style="color:#000000;font-style:normal;font-variant:normal;font-weight:normal;font-stretch:normal;font-size:medium;line-height:normal;font-family:sans-serif;font-variant-ligatures:normal;font-variant-position:normal;font-variant-caps:normal;font-variant-numeric:normal;font-variant-alternates:normal;font-feature-settings:normal;text-indent:0;text-align:start;text-decoration:none;text-decoration-line:none;text-decoration-style:solid;text-decoration-color:#000000;letter-spacing:normal;word-spacing:normal;text-transform:none;writing-mode:lr-tb;direction:ltr;text-orientation:mixed;dominant-baseline:auto;baseline-shift:baseline;text-anchor:start;white-space:normal;shape-padding:0;clip-rule:nonzero;display:inline;overflow:visible;visibility:visible;opacity:1;isolation:auto;mix-blend-mode:normal;color-interpolation:sRGB;color-interpolation-filters:linearRGB;solid-color:#000000;solid-opacity:1;vector-effect:none;fill:#000000;fill-opacity:1;fill-rule:nonzero;stroke:none;stroke-width:7.04999971;stroke-linecap:butt;stroke-linejoin:miter;stroke-miterlimit:4;stroke-dasharray:none;stroke-dashoffset:0;stroke-opacity:1;color-rendering:auto;image-rendering:auto;shape-rendering:auto;text-rendering:auto;enable-background:accumulate"
     d="m 7.2675781,85.158203 v 7.050781 H 74.939453 v -7.050781 z"
     id="path833"
     inkscape:connector-curvature="0" />
  <path
     style="color:#000000;font-style:normal;font-variant:normal;font-weight:normal;font-stretch:normal;font-size:medium;line-height:normal;font-family:sans-serif;font-variant-ligatures:normal;font-variant-position:normal;font-variant-caps:normal;font-variant-numeric:normal;font-variant-alternates:normal;font-feature-settings:normal;text-indent:0;text-align:start;text-decoration:none;text-decoration-line:none;text-decoration-style:solid;text-decoration-color:#000000;letter-spacing:normal;word-spacing:normal;text-transform:none;writing-mode:lr-tb;direction:ltr;text-orientation:mixed;dominant-baseline:auto;baseline-shift:baseline;text-anchor:start;white-space:normal;shape-padding:0;clip-rule:nonzero;display:inline;overflow:visible;visibility:visible;opacity:1;isolation:auto;mix-blend-mode:normal;color-interpolation:sRGB;color-interpolation-filters:linearRGB;solid-color:#000000;solid-opacity:1;vector-effect:none;fill:#000000;fill-opacity:1;fill-rule:nonzero;stroke:none;stroke-width:7.04999971;stroke-linecap:butt;stroke-linejoin:miter;stroke-miterlimit:4;stroke-dasharray:none;stroke-dashoffset:0;stroke-opacity:1;color-rendering:auto;image-rendering:auto;shape-rendering:auto;text-rendering:auto;enable-background:accumulate"
     d="m 8.0117188,108.58398 v 7.04883 H 75.683594 v -7.04883 z"
     id="path833-6"
     inkscape:connector-curvature="0" />
  <path
     style="color:#000000;font-style:normal;font-variant:normal;font-weight:normal;font-stretch:normal;font-size:medium;line-height:normal;font-family:sans-serif;font-variant-ligatures:normal;font-variant-position:normal;font-variant-caps:normal;font-variant-numeric:normal;font-variant-alternates:normal;font-feature-settings:normal;text-indent:0;text-align:start;text-decoration:none;text-decoration-line:none;text-decoration-style:solid;text-decoration-color:#000000;letter-spacing:normal;word-spacing:normal;text-transform:none;writing-mode:lr-tb;direction:ltr;text-orientation:mixed;dominant-baseline:auto;baseline-shift:baseline;text-anchor:start;white-space:normal;shape-padding:0;clip-rule:nonzero;display:inline;overflow:visible;visibility:visible;opacity:1;isolation:auto;mix-blend-mode:normal;color-interpolation:sRGB;color-interpolation-filters:linearRGB;solid-color:#000000;solid-opacity:1;vector-effect:none;fill:#000000;fill-opacity:1;fill-rule:nonzero;stroke:none;stroke-width:7.04999971;stroke-linecap:butt;stroke-linejoin:miter;stroke-miterlimit:4;stroke-dasharray:none;stroke-dashoffset:0;stroke-opacity:1;color-rendering:auto;image-rendering:auto;shape-rendering:auto;text-rendering:auto;enable-background:accumulate"
     d="m 107.84375,56.855469 c -1.34982,-0.137819 -2.70441,-0.07651 -4.0293,0.1875 -5.299546,1.056029 -9.931618,4.641806 -13.960934,9.304687 -7.515192,8.696871 -13.08122,21.48562 -13.806641,33.187505 l -6.146484,2.199209 8.107422,3.5625 c 11.27098,4.95241 21.136152,15.7276 28.001957,25.35743 6.86579,9.62982 10.72655,17.89648 10.72655,17.89648 l 6.38868,-2.98242 c 0,0 -4.12233,-8.83616 -11.37305,-19.00586 -5.9536,-8.35038 -14.055804,-17.6936 -24.097653,-24.01563 4.806844,-2.04405 11.000241,-4.929239 17.328123,-8.873042 5.70252,-3.554051 11.09376,-7.677706 14.39453,-12.736328 1.65038,-2.529311 2.7812,-5.377235 2.83594,-8.447266 0.0547,-3.07003 -1.04738,-6.224641 -3.21485,-9.019531 -3.09108,-3.985866 -7.10484,-6.20178 -11.15429,-6.615234 z m -0.54687,6.921874 c 2.03695,0.106699 3.92152,1.167309 6.12891,4.013672 1.36484,1.75993 1.76348,3.160599 1.73828,4.574219 -0.0252,1.41362 -0.55551,2.977919 -1.69141,4.71875 -2.27179,3.481663 -6.95887,7.329246 -12.21875,10.607422 -6.782632,4.227221 -13.096307,7.01338 -17.642582,8.876953 1.453568,-8.972808 5.950374,-19.100937 11.576172,-25.611328 3.400768,-3.935501 7.08167,-6.417691 10.00391,-7 0.73056,-0.145577 1.42649,-0.215254 2.10547,-0.179688 z"
     id="path850"
     inkscape:connector-curvature="0" />
</svg>
