<?xml version="1.0" encoding="UTF-8" standalone="no"?>
<svg
   xmlns:dc="http://purl.org/dc/elements/1.1/"
   xmlns:cc="http://creativecommons.org/ns#"
   xmlns:rdf="http://www.w3.org/1999/02/22-rdf-syntax-ns#"
   xmlns:svg="http://www.w3.org/2000/svg"
   xmlns="http://www.w3.org/2000/svg"
   xmlns:sodipodi="http://sodipodi.sourceforge.net/DTD/sodipodi-0.dtd"
   xmlns:inkscape="http://www.inkscape.org/namespaces/inkscape"
   version="1.0"
   width="316.16599pt"
   height="198.12447pt"
   viewBox="0 0 316.16599 198.12447"
   preserveAspectRatio="xMidYMid meet"
   id="svg8"
   sodipodi:docname="V42.svg"
   inkscape:version="0.92.4 (5da689c313, 2019-01-14)">
  <defs
     id="defs12" />
  <sodipodi:namedview
     pagecolor="#ffffff"
     bordercolor="#666666"
     borderopacity="1"
     objecttolerance="10"
     gridtolerance="10"
     guidetolerance="10"
     inkscape:pageopacity="0"
     inkscape:pageshadow="2"
     inkscape:window-width="1920"
     inkscape:window-height="1017"
     id="namedview10"
     showgrid="false"
     fit-margin-top="0"
     fit-margin-left="0"
     fit-margin-right="0"
     fit-margin-bottom="0"
     inkscape:zoom="0.6173913"
     inkscape:cx="585.05466"
     inkscape:cy="116.52196"
     inkscape:window-x="-8"
     inkscape:window-y="-8"
     inkscape:window-maximized="1"
     inkscape:current-layer="svg8" />
  <metadata
     id="metadata2">
Created by potrace 1.10, written by Peter Selinger 2001-2011
<rdf:RDF>
  <cc:Work
     rdf:about="">
    <dc:format>image/svg+xml</dc:format>
    <dc:type
       rdf:resource="http://purl.org/dc/dcmitype/StillImage" />
    <dc:title></dc:title>
  </cc:Work>
</rdf:RDF>
</metadata>
  <g
     transform="matrix(0.1,0,0,-0.1,417.53219,233.733)"
     id="g6"
     style="fill:#000000;stroke:none">
    <path
       d="m 2594,2258 c -12,-13 -62,-77 -111,-143 -83,-111 -126,-155 -178,-182 -15,-8 -28,-7 -55,8 -75,39 -147,63 -305,103 -33,8 -89,23 -125,32 -82,22 -427,25 -500,5 -25,-8 -67,-17 -95,-21 -117,-17 -187,-41 -366,-124 -31,-14 -61,-26 -67,-26 -7,0 -38,13 -69,29 -247,125 -334,151 -431,130 -55,-12 -152,-71 -152,-93 0,-5 -6,-17 -13,-25 -17,-21 -37,-90 -37,-130 0,-59 24,-113 71,-161 41,-41 54,-48 117,-60 59,-11 85,-11 149,0 43,7 89,19 103,26 14,7 78,38 142,68 129,62 109,62 233,6 94,-42 196,-75 280,-90 22,-4 58,-12 80,-18 64,-17 204,-33 301,-35 189,-2 370,40 604,141 135,58 130,59 238,-42 66,-63 106,-127 147,-236 9,-25 23,-60 31,-78 8,-18 14,-42 14,-54 0,-12 7,-60 15,-107 8,-47 22,-140 31,-206 9,-66 22,-130 30,-142 8,-12 14,-30 14,-39 0,-9 29,-59 64,-113 75,-113 324,-363 412,-414 18,-10 70,25 79,53 9,30 -13,60 -105,145 -101,93 -124,118 -199,209 -31,38 -66,81 -78,95 -12,14 -22,33 -23,41 0,8 -6,35 -14,60 -31,99 -75,330 -76,400 -1,76 -50,224 -100,298 -19,29 -40,63 -47,76 -7,12 -51,59 -98,104 -47,46 -85,86 -85,90 1,4 21,22 45,40 43,31 205,235 238,299 12,23 14,39 8,56 -12,30 -16,33 -61,42 -29,5 -39,2 -56,-17 z m -929,-298 c 39,-6 95,-13 125,-16 56,-6 128,-25 188,-50 18,-8 39,-14 46,-14 7,0 35,-10 61,-21 l 48,-21 -23,-18 c -84,-63 -353,-115 -595,-115 -114,0 -161,7 -300,42 -101,25 -228,76 -224,89 3,9 48,28 104,44 17,4 44,13 60,18 46,16 209,50 315,66 49,7 126,5 195,-4 z M 447,1918 c 15,-6 56,-24 91,-40 34,-15 67,-28 72,-28 6,0 10,-6 10,-13 0,-13 -93,-64 -168,-91 -23,-9 -73,-16 -111,-16 -62,0 -70,2 -85,25 -27,41 -14,133 22,163 20,15 132,16 169,0 z"
       id="path4"
       inkscape:connector-curvature="0" />
  </g>
  <path
     style="color:#000000;font-style:normal;font-variant:normal;font-weight:normal;font-stretch:normal;font-size:medium;line-height:normal;font-family:sans-serif;font-variant-ligatures:normal;font-variant-position:normal;font-variant-caps:normal;font-variant-numeric:normal;font-variant-alternates:normal;font-feature-settings:normal;text-indent:0;text-align:start;text-decoration:none;text-decoration-line:none;text-decoration-style:solid;text-decoration-color:#000000;letter-spacing:normal;word-spacing:normal;text-transform:none;writing-mode:lr-tb;direction:ltr;text-orientation:mixed;dominant-baseline:auto;baseline-shift:baseline;text-anchor:start;white-space:normal;shape-padding:0;clip-rule:nonzero;display:inline;overflow:visible;visibility:visible;opacity:1;isolation:auto;mix-blend-mode:normal;color-interpolation:sRGB;color-interpolation-filters:linearRGB;solid-color:#000000;solid-opacity:1;vector-effect:none;fill:#000000;fill-opacity:1;fill-rule:nonzero;stroke:none;stroke-width:12;stroke-linecap:butt;stroke-linejoin:miter;stroke-miterlimit:4;stroke-dasharray:none;stroke-dashoffset:0;stroke-opacity:1;color-rendering:auto;image-rendering:auto;shape-rendering:auto;text-rendering:auto;enable-background:accumulate"
     d="m 264.98242,0 -24.24414,25.457031 c -3.14909,3.206481 -6.40227,6.057761 -9.70703,8.71875 C 215.09454,24.42161 195.50355,19.246576 175.53711,17.353516 153.90579,15.302604 131.84967,17.070374 113.41016,21.521484 98.122106,25.211864 85.272318,30.415857 77.035156,38.134766 65.239109,28.363189 47.57459,21.491462 31.783203,20.029297 22.746428,19.192559 14.011995,20.049557 7.4238281,25.179688 0.83566085,30.309818 -1.6609918,39.795835 1.1230469,50.583984 3.9948474,61.712212 11.943752,68.534187 20.765625,70.455078 c 8.821873,1.920892 18.15526,0.07505 26.890625,-2.755859 14.908785,-4.831551 26.471416,-11.9869 30.117188,-14.306641 6.748533,3.021302 28.947502,12.224057 58.115232,15.771484 28.97815,3.52437 64.47254,0.924752 95.41406,-20.263671 12.32846,9.539411 20.20897,22.348143 21.09961,40.566406 2.1621,44.226213 16.69842,71.565513 31.03711,87.619143 14.33869,16.05363 28.94532,21.03906 28.94532,21.03906 l 3.78125,-11.38867 c 0,0 -11.22818,-3.59446 -23.77735,-17.64453 -12.54916,-14.05007 -25.95294,-38.33785 -28,-80.210941 -0.9924,-20.299876 -9.99693,-36.185524 -23.24805,-47.492187 2.77149,-2.356409 5.51091,-4.824872 8.17383,-7.53711 l 0.0312,-0.03125 24.32618,-25.5449214 z M 159.17969,28.521484 c 5.07288,0.0462 10.17254,0.3003 15.22461,0.779297 16.66777,1.580307 32.74266,5.689686 45.82422,12.53711 C 193.30706,58.47461 163.14495,60.388935 137.33594,57.25 115.56804,54.602553 98.108621,48.569356 88.382812,44.714844 94.62664,40.398586 104.30377,36.063588 116.22656,33.185547 c 12.75361,-3.078591 27.73448,-4.80265 42.95313,-4.664063 z M 25.464844,31.814453 c 1.624971,-0.05562 3.370219,-0.0064 5.210937,0.164063 11.851749,1.097384 26.736001,7.064508 36.335938,13.8125 -5.69545,3.2695 -13.54597,7.412611 -23.054688,10.49414 -7.664284,2.483796 -15.338625,3.599355 -20.638672,2.445313 -5.300047,-1.154043 -8.586864,-3.443533 -10.574218,-11.144531 -2.075117,-8.041076 -0.623816,-10.854822 2.050781,-12.9375 2.005948,-1.562009 5.795008,-2.667136 10.669922,-2.833985 z"
     id="path4526"
     inkscape:connector-curvature="0" />
</svg>
