<?xml version="1.0" encoding="UTF-8" standalone="no"?>
<!-- Created with Inkscape (http://www.inkscape.org/) -->

<svg
   xmlns:dc="http://purl.org/dc/elements/1.1/"
   xmlns:cc="http://creativecommons.org/ns#"
   xmlns:rdf="http://www.w3.org/1999/02/22-rdf-syntax-ns#"
   xmlns:svg="http://www.w3.org/2000/svg"
   xmlns="http://www.w3.org/2000/svg"
   xmlns:sodipodi="http://sodipodi.sourceforge.net/DTD/sodipodi-0.dtd"
   xmlns:inkscape="http://www.inkscape.org/namespaces/inkscape"
   width="19.273241mm"
   height="37.207031mm"
   viewBox="0 0 19.273241 37.207031"
   version="1.1"
   id="svg820"
   inkscape:version="0.92.4 (5da689c313, 2019-01-14)"
   sodipodi:docname="V5.svg">
  <defs
     id="defs814" />
  <sodipodi:namedview
     id="base"
     pagecolor="#ffffff"
     bordercolor="#666666"
     borderopacity="1.0"
     inkscape:pageopacity="0.0"
     inkscape:pageshadow="2"
     inkscape:zoom="0.35"
     inkscape:cx="-348.97321"
     inkscape:cy="-280.1875"
     inkscape:document-units="mm"
     inkscape:current-layer="layer1"
     showgrid="false"
     fit-margin-top="0"
     fit-margin-left="0"
     fit-margin-right="0"
     fit-margin-bottom="0"
     inkscape:window-width="1920"
     inkscape:window-height="1017"
     inkscape:window-x="-8"
     inkscape:window-y="-8"
     inkscape:window-maximized="1" />
  <metadata
     id="metadata817">
    <rdf:RDF>
      <cc:Work
         rdf:about="">
        <dc:format>image/svg+xml</dc:format>
        <dc:type
           rdf:resource="http://purl.org/dc/dcmitype/StillImage" />
        <dc:title></dc:title>
      </cc:Work>
    </rdf:RDF>
  </metadata>
  <g
     inkscape:label="Layer 1"
     inkscape:groupmode="layer"
     id="layer1"
     transform="translate(-5.0199961,-37.49336)">
    <g
       aria-label="ð“°"
       style="font-style:normal;font-variant:normal;font-weight:normal;font-stretch:normal;font-size:50.79999924px;line-height:1.25;font-family:sans-serif;-inkscape-font-specification:'sans-serif, Normal';font-variant-ligatures:normal;font-variant-caps:normal;font-variant-numeric:normal;font-feature-settings:normal;text-align:start;letter-spacing:0px;word-spacing:0px;writing-mode:lr-tb;text-anchor:start;fill:#000000;fill-opacity:1;stroke:none;stroke-width:0.26458332"
       id="text1367">
      <path
         d="m 19.357105,63.141406 q 1.190625,1.934766 1.885157,3.919141 0.719335,1.95957 0.719335,3.695898 0,0.768946 -0.198437,1.488282 -0.198438,0.719336 -0.595313,1.265039 -0.396875,0.545703 -1.016992,0.868164 -0.595312,0.322461 -1.413867,0.322461 -0.620117,0 -1.21543,-0.223243 -0.570507,-0.223242 -1.016992,-0.694531 -0.446484,-0.471289 -0.719336,-1.215429 -0.272851,-0.768946 -0.272851,-1.810743 0,-1.016992 0.198437,-1.934765 0.198438,-0.917774 0.520899,-1.810742 0.347265,-0.917774 0.79375,-1.860352 0.446484,-0.942578 0.917773,-1.984375 l -3.100586,-4.985742 -3.150195,4.960937 q 1.364258,3.100586 1.934766,4.960938 0.595312,1.860351 0.595312,2.654101 0,0.719336 -0.223242,1.413868 -0.223242,0.694531 -0.669727,1.265039 -0.446484,0.570507 -1.091406,0.917773 -0.644922,0.347266 -1.463476,0.347266 -0.8929692,0 -1.5626957,-0.347266 Q 8.5670664,74.005859 8.1453867,73.435352 7.723707,72.864844 7.5252695,72.170313 7.3268321,71.475781 7.3268321,70.756445 q 0,-1.637109 0.7937499,-3.596679 0.79375,-1.984375 2.207617,-4.01836 -1.1410154,-2.75332 -2.1083982,-4.861718 -0.9673828,-2.133203 -1.6867187,-3.96875 -0.6945313,-1.835547 -1.116211,-3.522266 -0.396875,-1.686718 -0.396875,-3.596679 0,-2.058789 0.7689453,-3.819922 0.79375,-1.785938 2.1332031,-3.075781 1.3394531,-1.314649 3.1253905,-2.058789 1.785938,-0.744141 3.795117,-0.744141 2.00918,0 3.745508,0.768945 1.736328,0.768946 3.001367,2.083594 1.265039,1.314648 1.984375,3.075781 0.719336,1.761133 0.719336,3.770313 0,1.041796 -0.223242,2.282031 -0.198438,1.215429 -0.545703,2.530078 -0.347266,1.314648 -0.79375,2.654101 -0.446485,1.314649 -0.917774,2.554883 -1.091406,2.902149 -2.455664,5.92832 z m -3.695898,-6.201171 q 0.09922,0.223242 0.37207,0.694531 0.272852,0.471289 0.644922,1.116211 0.396875,0.644922 0.868164,1.438672 0.496094,0.79375 1.016992,1.637109 1.240235,-3.001367 2.083594,-5.208984 0.868164,-2.232422 1.389063,-3.943946 0.545703,-1.711523 0.768945,-3.050976 0.248047,-1.364258 0.248047,-2.654102 0,-1.5875 -0.620117,-3.075781 -0.620118,-1.488281 -1.711524,-2.629297 -1.091406,-1.16582 -2.604492,-1.835546 -1.513086,-0.694532 -3.299023,-0.694532 -1.785938,0 -3.348633,0.694532 -1.5626955,0.669726 -2.7285158,1.835546 -1.1410156,1.141016 -1.8107421,2.629297 -0.6697266,1.488281 -0.6697266,3.075781 0,1.513086 0.2480469,2.926953 0.2728515,1.389063 0.8433593,3.050977 0.5705078,1.661914 1.513086,3.795117 0.9425781,2.108399 2.2820313,5.084961 0.272851,-0.446484 0.620117,-1.041797 0.37207,-0.620117 0.744141,-1.289844 0.396875,-0.669726 0.79375,-1.314648 0.396875,-0.669727 0.719336,-1.240234 -1.537891,-3.075782 -2.38125,-5.407422 -0.818555,-2.331641 -0.818555,-4.266406 0,-4.712891 4.018359,-4.712891 1.785938,0 2.827735,1.240234 1.041796,1.240235 1.041796,3.323829 0,2.033984 -0.79375,4.415234 -0.79375,2.38125 -2.257226,5.407422 z m -3.671094,-9.624219 q 0,0.744141 0.223242,1.761133 0.223243,1.016992 0.595313,2.158008 0.396875,1.116211 0.917773,2.282031 0.520899,1.16582 1.091407,2.207617 0.570507,-1.041797 1.066601,-2.232422 0.496094,-1.21543 0.843359,-2.38125 0.372071,-1.16582 0.570508,-2.232422 0.223242,-1.066601 0.223242,-1.835547 0,-1.364257 -0.644921,-2.306835 -0.620118,-0.942579 -2.058789,-0.942579 -0.744141,0 -1.289844,0.272852 -0.545703,0.272852 -0.892969,0.744141 -0.322461,0.471289 -0.496094,1.116211 -0.148828,0.644921 -0.148828,1.389062 z m 6.72207,17.239258 q -0.37207,0.595312 -0.719335,1.364257 -0.347266,0.744141 -0.644922,1.562696 -0.272852,0.818554 -0.446485,1.661914 -0.148828,0.843359 -0.148828,1.612304 0,0.768946 0.173633,1.289844 0.198437,0.520899 0.471289,0.843359 0.297656,0.322461 0.644922,0.47129 0.347266,0.148828 0.694531,0.148828 0.446484,0 0.79375,-0.248047 0.37207,-0.272852 0.620117,-0.669727 0.272852,-0.396875 0.42168,-0.892969 0.148828,-0.496093 0.148828,-0.942578 0,-0.595312 -0.173633,-1.413867 -0.148828,-0.818554 -0.446484,-1.686719 -0.272852,-0.868164 -0.644922,-1.686718 -0.347266,-0.818555 -0.744141,-1.413867 z m -7.788671,0 q -0.496094,0.595312 -0.9425784,1.339453 -0.4216797,0.74414 -0.7441406,1.562695 -0.322461,0.818555 -0.4960938,1.661914 -0.1736328,0.843359 -0.1736328,1.637109 0,0.545703 0.1240234,1.041797 0.1240235,0.496094 0.396875,0.892969 0.2728516,0.37207 0.6945313,0.595312 0.4216799,0.223243 0.9921879,0.223243 0.595312,0 1.016992,-0.248047 0.421679,-0.248047 0.669726,-0.644922 0.272852,-0.396875 0.396875,-0.892969 0.124024,-0.496094 0.124024,-0.967383 0,-0.595312 -0.173633,-1.413867 -0.173633,-0.818554 -0.471289,-1.661914 -0.297656,-0.868164 -0.669727,-1.686719 -0.37207,-0.818554 -0.74414,-1.438671 z"
         style="stroke-width:0.26458332"
         id="path1369"
         inkscape:connector-curvature="0" />
    </g>
  </g>
</svg>
