<?xml version="1.0" encoding="UTF-8" standalone="no"?>
<!-- Created with Inkscape (http://www.inkscape.org/) -->

<svg
   xmlns:dc="http://purl.org/dc/elements/1.1/"
   xmlns:cc="http://creativecommons.org/ns#"
   xmlns:rdf="http://www.w3.org/1999/02/22-rdf-syntax-ns#"
   xmlns:svg="http://www.w3.org/2000/svg"
   xmlns="http://www.w3.org/2000/svg"
   xmlns:sodipodi="http://sodipodi.sourceforge.net/DTD/sodipodi-0.dtd"
   xmlns:inkscape="http://www.inkscape.org/namespaces/inkscape"
   width="13.841016mm"
   height="24.829493mm"
   viewBox="0 0 13.841016 24.829493"
   version="1.1"
   id="svg24771"
   inkscape:version="0.92.4 (5da689c313, 2019-01-14)"
   sodipodi:docname="V6.svg">
  <defs
     id="defs24765" />
  <sodipodi:namedview
     id="base"
     pagecolor="#ffffff"
     bordercolor="#666666"
     borderopacity="1.0"
     inkscape:pageopacity="0.0"
     inkscape:pageshadow="2"
     inkscape:zoom="0.35"
     inkscape:cx="448.16991"
     inkscape:cy="-261.88157"
     inkscape:document-units="mm"
     inkscape:current-layer="layer1"
     showgrid="false"
     fit-margin-top="0"
     fit-margin-left="0"
     fit-margin-right="0"
     fit-margin-bottom="0"
     inkscape:window-width="1920"
     inkscape:window-height="1017"
     inkscape:window-x="-8"
     inkscape:window-y="-8"
     inkscape:window-maximized="1" />
  <metadata
     id="metadata24768">
    <rdf:RDF>
      <cc:Work
         rdf:about="">
        <dc:format>image/svg+xml</dc:format>
        <dc:type
           rdf:resource="http://purl.org/dc/dcmitype/StillImage" />
        <dc:title></dc:title>
      </cc:Work>
    </rdf:RDF>
  </metadata>
  <g
     inkscape:label="Layer 1"
     inkscape:groupmode="layer"
     id="layer1"
     transform="translate(205.89079,-54.714343)">
    <g
       aria-label="ð“±"
       transform="scale(0.26458333)"
       style="font-style:normal;font-variant:normal;font-weight:normal;font-stretch:normal;font-size:192px;line-height:1.25;font-family:sans-serif;-inkscape-font-specification:sans-serif;font-variant-ligatures:normal;font-variant-caps:normal;font-variant-numeric:normal;font-feature-settings:normal;text-align:start;letter-spacing:0px;word-spacing:0px;writing-mode:lr-tb;text-anchor:start;fill:#000000;fill-opacity:1;stroke:none"
       id="flowRoot25316">
      <path
         d="m -752.48242,300.63812 q -19.59375,0 -19.59375,-18.09375 0,-2.90625 0.65625,-6.28125 0.75,-3.375 1.96875,-6.9375 1.21875,-3.5625 2.71875,-7.125 1.5,-3.65625 3.09375,-6.9375 3.75,-7.78125 8.4375,-15.75 -3.9375,-5.625 -7.875,-11.4375 -3.375,-4.96875 -7.5,-10.59375 -4.03125,-5.71875 -7.59375,-10.6875 h 5.90625 q 3.75,5.8125 6.84375,10.3125 3.09375,4.5 5.625,8.0625 2.53125,3.46875 4.40625,6.28125 1.96875,2.71875 3.375,4.96875 1.3125,-2.25 3.46875,-5.4375 2.15625,-3.1875 4.875,-7.03125 2.71875,-3.9375 5.71875,-8.25 3.09375,-4.40625 6.1875,-8.90625 h 5.90625 q -1.6875,2.25 -3.5625,4.875 -1.875,2.625 -3.84375,5.34375 -1.875,2.71875 -3.84375,5.4375 -1.875,2.71875 -3.65625,5.25 -4.125,5.8125 -8.25,11.8125 4.6875,7.96875 8.4375,15.65625 1.59375,3.28125 3.09375,6.84375 1.59375,3.46875 2.71875,7.03125 1.21875,3.46875 1.96875,6.75 0.75,3.1875 0.75,5.90625 0,18.9375 -20.4375,18.9375 z m 0.1875,-4.6875 q 4.40625,0 7.3125,-1.21875 3,-1.3125 4.78125,-3.375 1.875,-2.0625 2.625,-4.78125 0.84375,-2.71875 0.84375,-5.71875 0,-2.71875 -1.21875,-6.9375 -1.21875,-4.3125 -3.375,-9.375 -2.0625,-5.0625 -4.875,-10.5 -2.71875,-5.53125 -5.8125,-10.78125 -2.90625,5.34375 -5.71875,10.875 -2.71875,5.4375 -4.875,10.5 -2.15625,4.96875 -3.46875,9.1875 -1.3125,4.21875 -1.3125,7.125 0,2.90625 0.75,5.625 0.75,2.71875 2.53125,4.78125 1.78125,2.0625 4.6875,3.375 2.90625,1.21875 7.125,1.21875 z"
         id="path25324"
         inkscape:connector-curvature="0" />
    </g>
  </g>
</svg>
