<?xml version="1.0" encoding="UTF-8" standalone="no"?>
<!-- Created with Inkscape (http://www.inkscape.org/) -->

<svg
   xmlns:dc="http://purl.org/dc/elements/1.1/"
   xmlns:cc="http://creativecommons.org/ns#"
   xmlns:rdf="http://www.w3.org/1999/02/22-rdf-syntax-ns#"
   xmlns:svg="http://www.w3.org/2000/svg"
   xmlns="http://www.w3.org/2000/svg"
   xmlns:sodipodi="http://sodipodi.sourceforge.net/DTD/sodipodi-0.dtd"
   xmlns:inkscape="http://www.inkscape.org/namespaces/inkscape"
   width="13.841016mm"
   height="24.829493mm"
   viewBox="0 0 13.841016 24.829493"
   version="1.1"
   id="svg1378"
   inkscape:version="0.92.4 (5da689c313, 2019-01-14)"
   sodipodi:docname="V7.svg">
  <defs
     id="defs1372" />
  <sodipodi:namedview
     id="base"
     pagecolor="#ffffff"
     bordercolor="#666666"
     borderopacity="1.0"
     inkscape:pageopacity="0.0"
     inkscape:pageshadow="2"
     inkscape:zoom="0.35"
     inkscape:cx="-323.25893"
     inkscape:cy="-365.71428"
     inkscape:document-units="mm"
     inkscape:current-layer="layer1"
     showgrid="false"
     fit-margin-top="0"
     fit-margin-left="0"
     fit-margin-right="0"
     fit-margin-bottom="0"
     inkscape:window-width="1920"
     inkscape:window-height="1017"
     inkscape:window-x="-8"
     inkscape:window-y="-8"
     inkscape:window-maximized="1" />
  <metadata
     id="metadata1375">
    <rdf:RDF>
      <cc:Work
         rdf:about="">
        <dc:format>image/svg+xml</dc:format>
        <dc:type
           rdf:resource="http://purl.org/dc/dcmitype/StillImage" />
        <dc:title></dc:title>
      </cc:Work>
    </rdf:RDF>
  </metadata>
  <g
     inkscape:label="Layer 1"
     inkscape:groupmode="layer"
     id="layer1"
     transform="translate(1.7835748,-27.241938)">
    <g
       aria-label="ð“²Â "
       style="font-style:normal;font-variant:normal;font-weight:normal;font-stretch:normal;font-size:50.79999924px;line-height:1.25;font-family:sans-serif;-inkscape-font-specification:'sans-serif, Normal';font-variant-ligatures:normal;font-variant-caps:normal;font-variant-numeric:normal;font-feature-settings:normal;text-align:start;letter-spacing:0px;word-spacing:0px;writing-mode:lr-tb;text-anchor:start;fill:#000000;fill-opacity:1;stroke:none;stroke-width:0.26458332"
       id="text1925">
      <path
         d="m 5.2609563,27.241938 q 5.1841797,0 5.1841797,4.787305 0,0.768945 -0.198438,1.661914 -0.173632,0.892969 -0.4960933,1.835547 -0.322461,0.942578 -0.719336,1.909961 -0.3968749,0.942578 -0.8185546,1.810742 -0.9921875,2.058789 -2.2324219,4.167187 1.0417969,1.488282 2.0835938,3.026172 0.8929687,1.314649 1.95957,2.827735 1.066602,1.488281 2.033985,2.802929 H 10.494745 Q 9.5025578,50.53354 8.6840031,49.342915 7.8654485,48.15229 7.1957219,47.234516 6.5259953,46.291938 6.0050969,45.572602 5.5090032,44.828462 5.1369329,44.233149 4.7896673,44.828462 4.2191594,45.671821 3.6486516,46.51518 2.9293157,47.556977 2.2099798,48.573969 1.3914251,49.73979 0.59767513,50.880805 -0.22087955,52.07143 H -1.7835748 q 0.4464843,-0.595312 0.94257807,-1.289844 0.49609375,-0.694531 0.99218749,-1.413867 Q 0.67208919,48.648383 1.1681829,47.929047 1.6890814,47.209712 2.1603704,46.539985 3.2517766,45.002094 4.3431829,43.414594 3.0781438,41.306196 2.0859564,39.272212 1.6642767,38.404048 1.2674017,37.486274 0.87052668,36.543696 0.54806575,35.625923 0.22560482,34.708149 0.02716732,33.839985 q -0.17363281,-0.868164 -0.17363281,-1.5875 0,-5.010547 5.40742179,-5.010547 z m -0.049609,1.240235 q -1.1658203,0 -1.9595703,0.347265 -0.7689453,0.322461 -1.265039,0.868164 -0.4712891,0.545704 -0.6945312,1.289844 -0.1984375,0.719336 -0.1984375,1.488281 0,0.719336 0.3224609,1.860352 0.3224609,1.116211 0.8681641,2.455664 0.5705078,1.339453 1.2898437,2.80293 0.7441406,1.463476 1.5626953,2.827734 0.7689453,-1.413867 1.4882812,-2.852539 0.7441406,-1.463477 1.3146484,-2.778125 0.5705078,-1.339453 0.9177734,-2.455664 0.3472657,-1.116211 0.3472657,-1.885156 0,-0.768946 -0.1984375,-1.488282 Q 8.8080266,30.243306 8.3367375,29.697602 7.8654485,29.151899 7.0965032,28.829438 6.3275579,28.482173 5.2113473,28.482173 Z"
         style="stroke-width:0.26458332"
         id="path1927"
         inkscape:connector-curvature="0" />
    </g>
  </g>
</svg>
