<?xml version="1.0" encoding="UTF-8" standalone="no"?>
<!-- Created with Inkscape (http://www.inkscape.org/) -->

<svg
   xmlns:dc="http://purl.org/dc/elements/1.1/"
   xmlns:cc="http://creativecommons.org/ns#"
   xmlns:rdf="http://www.w3.org/1999/02/22-rdf-syntax-ns#"
   xmlns:svg="http://www.w3.org/2000/svg"
   xmlns="http://www.w3.org/2000/svg"
   xmlns:sodipodi="http://sodipodi.sourceforge.net/DTD/sodipodi-0.dtd"
   xmlns:inkscape="http://www.inkscape.org/namespaces/inkscape"
   width="14.039453mm"
   height="36.710938mm"
   viewBox="0 0 14.039453 36.710938"
   version="1.1"
   id="svg25333"
   inkscape:version="0.92.4 (5da689c313, 2019-01-14)"
   sodipodi:docname="V7A.svg">
  <defs
     id="defs25327" />
  <sodipodi:namedview
     id="base"
     pagecolor="#ffffff"
     bordercolor="#666666"
     borderopacity="1.0"
     inkscape:pageopacity="0.0"
     inkscape:pageshadow="2"
     inkscape:zoom="0.35"
     inkscape:cx="319.59765"
     inkscape:cy="-269.1843"
     inkscape:document-units="mm"
     inkscape:current-layer="layer1"
     showgrid="false"
     fit-margin-top="0"
     fit-margin-left="0"
     fit-margin-right="0"
     fit-margin-bottom="0"
     inkscape:window-width="1920"
     inkscape:window-height="1017"
     inkscape:window-x="-8"
     inkscape:window-y="-8"
     inkscape:window-maximized="1" />
  <metadata
     id="metadata25330">
    <rdf:RDF>
      <cc:Work
         rdf:about="">
        <dc:format>image/svg+xml</dc:format>
        <dc:type
           rdf:resource="http://purl.org/dc/dcmitype/StillImage" />
        <dc:title></dc:title>
      </cc:Work>
    </rdf:RDF>
  </metadata>
  <g
     inkscape:label="Layer 1"
     inkscape:groupmode="layer"
     id="layer1"
     transform="translate(171.87271,-40.900717)">
    <g
       aria-label="ð“³"
       transform="scale(0.26458333)"
       style="font-style:normal;font-variant:normal;font-weight:normal;font-stretch:normal;font-size:192px;line-height:1.25;font-family:sans-serif;-inkscape-font-specification:sans-serif;font-variant-ligatures:normal;font-variant-caps:normal;font-variant-numeric:normal;font-feature-settings:normal;text-align:start;letter-spacing:0px;word-spacing:0px;writing-mode:lr-tb;text-anchor:start;fill:#000000;fill-opacity:1;stroke:none"
       id="flowRoot25878">
      <path
         d="m -623.06641,154.58539 q 6.46875,0 11.34375,2.25 4.96875,2.15625 8.34375,6.28125 3.375,4.125 5.0625,10.125 1.78125,6 1.78125,13.6875 0,6.1875 -1.5,11.34375 -1.40625,5.0625 -3.65625,9.75 -2.15625,4.6875 -4.6875,9.1875 -2.53125,4.5 -4.78125,9.28125 -2.15625,4.78125 -3.65625,10.21875 -1.40625,5.4375 -1.40625,12 0,2.15625 0.5625,5.15625 0.5625,3 1.40625,6.46875 0.9375,3.46875 2.0625,7.125 1.21875,3.65625 2.4375,7.125 2.8125,8.15625 6.46875,17.15625 l -4.3125,1.5 q -3.65625,-9.375 -6.46875,-17.90625 -1.21875,-3.65625 -2.34375,-7.40625 -1.125,-3.84375 -2.0625,-7.3125 -0.84375,-3.5625 -1.40625,-6.65625 -0.5625,-3.09375 -0.5625,-5.25 0,-7.125 1.40625,-12.75 1.40625,-5.625 3.5625,-10.40625 2.15625,-4.875 4.59375,-9.1875 2.53125,-4.3125 4.6875,-8.8125 2.15625,-4.5 3.5625,-9.375 1.40625,-4.96875 1.40625,-11.0625 0,-6.46875 -1.3125,-11.625 -1.3125,-5.25 -4.03125,-8.8125 -2.625,-3.5625 -6.75,-5.4375 -4.125,-1.96875 -9.75,-1.96875 -5.625,0 -9.75,1.96875 -4.125,1.875 -6.84375,5.4375 -2.625,3.5625 -3.9375,8.8125 -1.3125,5.15625 -1.3125,11.625 0,6.09375 1.40625,11.0625 1.40625,4.875 3.5625,9.375 2.15625,4.5 4.59375,8.8125 2.53125,4.3125 4.6875,9.1875 2.15625,4.78125 3.5625,10.40625 1.40625,5.625 1.40625,12.75 0,2.15625 -0.5625,5.25 -0.5625,3.09375 -1.5,6.65625 -0.84375,3.46875 -1.96875,7.3125 -1.125,3.75 -2.34375,7.40625 -2.8125,8.625 -6.28125,18 l -4.5,-1.59375 q 3.5625,-9 6.46875,-17.15625 1.21875,-3.46875 2.34375,-7.125 1.125,-3.65625 2.0625,-7.125 0.9375,-3.46875 1.5,-6.46875 0.5625,-3 0.5625,-5.15625 0,-6.5625 -1.5,-12 -1.40625,-5.4375 -3.65625,-10.21875 -2.15625,-4.78125 -4.6875,-9.28125 -2.53125,-4.5 -4.78125,-9.1875 -2.15625,-4.6875 -3.65625,-9.84375 -1.40625,-5.15625 -1.40625,-11.25 0,-7.6875 1.6875,-13.6875 1.78125,-6 5.15625,-10.125 3.375,-4.125 8.25,-6.28125 4.96875,-2.25 11.4375,-2.25 z"
         id="path25886"
         inkscape:connector-curvature="0" />
    </g>
  </g>
</svg>
