<?xml version="1.0" encoding="UTF-8" standalone="no"?>
<!-- Created with Inkscape (http://www.inkscape.org/) -->

<svg
   xmlns:dc="http://purl.org/dc/elements/1.1/"
   xmlns:cc="http://creativecommons.org/ns#"
   xmlns:rdf="http://www.w3.org/1999/02/22-rdf-syntax-ns#"
   xmlns:svg="http://www.w3.org/2000/svg"
   xmlns="http://www.w3.org/2000/svg"
   xmlns:sodipodi="http://sodipodi.sourceforge.net/DTD/sodipodi-0.dtd"
   xmlns:inkscape="http://www.inkscape.org/namespaces/inkscape"
   width="15.354091mm"
   height="36.934177mm"
   viewBox="0 0 15.354091 36.934177"
   version="1.1"
   id="svg25895"
   inkscape:version="0.92.4 (5da689c313, 2019-01-14)"
   sodipodi:docname="V7B.svg">
  <defs
     id="defs25889" />
  <sodipodi:namedview
     id="base"
     pagecolor="#ffffff"
     bordercolor="#666666"
     borderopacity="1.0"
     inkscape:pageopacity="0.0"
     inkscape:pageshadow="2"
     inkscape:zoom="0.35"
     inkscape:cx="671.02729"
     inkscape:cy="-39.117892"
     inkscape:document-units="mm"
     inkscape:current-layer="layer1"
     showgrid="false"
     fit-margin-top="0"
     fit-margin-left="0"
     fit-margin-right="0"
     fit-margin-bottom="0"
     inkscape:window-width="1920"
     inkscape:window-height="1017"
     inkscape:window-x="-8"
     inkscape:window-y="-8"
     inkscape:window-maximized="1" />
  <metadata
     id="metadata25892">
    <rdf:RDF>
      <cc:Work
         rdf:about="">
        <dc:format>image/svg+xml</dc:format>
        <dc:type
           rdf:resource="http://purl.org/dc/dcmitype/StillImage" />
        <dc:title></dc:title>
      </cc:Work>
    </rdf:RDF>
  </metadata>
  <g
     inkscape:label="Layer 1"
     inkscape:groupmode="layer"
     id="layer1"
     transform="translate(264.85514,-101.54921)">
    <g
       aria-label="ð“´"
       transform="scale(0.26458333)"
       style="font-style:normal;font-variant:normal;font-weight:normal;font-stretch:normal;font-size:192px;line-height:1.25;font-family:sans-serif;-inkscape-font-specification:sans-serif;font-variant-ligatures:normal;font-variant-caps:normal;font-variant-numeric:normal;font-feature-settings:normal;text-align:start;letter-spacing:0px;word-spacing:0px;writing-mode:lr-tb;text-anchor:start;fill:#000000;fill-opacity:1;stroke:none"
       id="flowRoot26440">
      <path
         d="m -1001.0273,518.7143 h 27.37496 v -64.59375 q -6,4.78125 -10.125,7.96875 -4.125,3.1875 -6.75,5.15625 -3.09375,2.34375 -4.875,3.65625 v -6.09375 q 4.03125,-2.90625 7.78125,-5.625 3.28125,-2.34375 6.75,-4.875 3.46875,-2.53125 5.90625,-4.40625 -4.125,-5.90625 -7.59375,-11.625 -3.375,-5.8125 -5.90625,-11.34375 -2.4375,-5.625 -3.84375,-11.0625 -1.3125,-5.53125 -1.3125,-10.96875 0,-4.78125 1.6875,-8.71875 1.78125,-3.9375 4.78125,-6.65625 3.09375,-2.71875 7.125,-4.21875 4.03125,-1.5 8.71875,-1.5 4.78125,0 8.71875,1.5 4.03125,1.40625 6.9375,4.125 3,2.71875 4.59375,6.65625 1.6875,3.9375 1.6875,8.8125 0,5.4375 -1.5,10.96875 -1.5,5.4375 -4.03125,11.0625 -2.4375,5.625 -5.8125,11.4375 -3.28125,5.71875 -6.9375,11.625 2.0625,1.875 5.4375,4.40625 3.375,2.53125 6.65625,4.875 3.75,2.71875 7.875,5.53125 v 6.09375 q -5.625,-4.21875 -10.125,-7.78125 -1.96875,-1.5 -3.84375,-3 -1.875,-1.5 -3.46875,-2.71875 -1.5,-1.21875 -2.53125,-2.0625 -1.03125,-0.9375 -1.3125,-1.21875 v 64.59375 h 25.96875 v 4.6875 h -58.03121 z m 29.71871,-71.15625 q 2.8125,-4.3125 5.8125,-9.5625 3.09375,-5.25 5.625,-10.875 2.53125,-5.625 4.125,-11.25 1.6875,-5.71875 1.6875,-10.96875 0,-3.28125 -1.21875,-6.1875 -1.125,-3 -3.375,-5.25 -2.15625,-2.25 -5.34375,-3.5625 -3.1875,-1.40625 -7.3125,-1.40625 -3.65625,0 -6.9375,1.40625 -3.1875,1.40625 -5.625,3.75 -2.34375,2.25 -3.75,5.25 -1.3125,2.90625 -1.3125,6 0,6.65625 1.59375,12.5625 1.59375,5.8125 4.125,11.0625 2.53125,5.25 5.625,10.03125 3.1875,4.6875 6.28125,9 z"
         id="path26448"
         inkscape:connector-curvature="0" />
    </g>
  </g>
</svg>
