<?xml version="1.0" encoding="UTF-8" standalone="no"?>
<!-- Created with Inkscape (http://www.inkscape.org/) -->

<svg
   xmlns:dc="http://purl.org/dc/elements/1.1/"
   xmlns:cc="http://creativecommons.org/ns#"
   xmlns:rdf="http://www.w3.org/1999/02/22-rdf-syntax-ns#"
   xmlns:svg="http://www.w3.org/2000/svg"
   xmlns="http://www.w3.org/2000/svg"
   xmlns:sodipodi="http://sodipodi.sourceforge.net/DTD/sodipodi-0.dtd"
   xmlns:inkscape="http://www.inkscape.org/namespaces/inkscape"
   width="17.958593mm"
   height="18.603516mm"
   viewBox="0 0 17.958593 18.603516"
   version="1.1"
   id="svg2494"
   inkscape:version="0.92.4 (5da689c313, 2019-01-14)"
   sodipodi:docname="V9.svg">
  <defs
     id="defs2488" />
  <sodipodi:namedview
     id="base"
     pagecolor="#ffffff"
     bordercolor="#666666"
     borderopacity="1.0"
     inkscape:pageopacity="0.0"
     inkscape:pageshadow="2"
     inkscape:zoom="0.35"
     inkscape:cx="-360.40179"
     inkscape:cy="-380.00001"
     inkscape:document-units="mm"
     inkscape:current-layer="layer1"
     showgrid="false"
     fit-margin-top="0"
     fit-margin-left="0"
     fit-margin-right="0"
     fit-margin-bottom="0"
     inkscape:window-width="1920"
     inkscape:window-height="1017"
     inkscape:window-x="-8"
     inkscape:window-y="-8"
     inkscape:window-maximized="1" />
  <metadata
     id="metadata2491">
    <rdf:RDF>
      <cc:Work
         rdf:about="">
        <dc:format>image/svg+xml</dc:format>
        <dc:type
           rdf:resource="http://purl.org/dc/dcmitype/StillImage" />
        <dc:title></dc:title>
      </cc:Work>
    </rdf:RDF>
  </metadata>
  <g
     inkscape:label="Layer 1"
     inkscape:groupmode="layer"
     id="layer1"
     transform="translate(-8.0438061,-29.688149)">
    <g
       aria-label="ð“¶"
       style="font-style:normal;font-variant:normal;font-weight:normal;font-stretch:normal;font-size:50.79999924px;line-height:1.25;font-family:sans-serif;-inkscape-font-specification:'sans-serif, Normal';font-variant-ligatures:normal;font-variant-caps:normal;font-variant-numeric:normal;font-feature-settings:normal;text-align:start;letter-spacing:0px;word-spacing:0px;writing-mode:lr-tb;text-anchor:start;fill:#000000;fill-opacity:1;stroke:none;stroke-width:0.26458332"
       id="text3041">
      <path
         d="M 13.327204,47.05143 Q 12.161384,46.530531 11.169197,45.637563 10.201814,44.719789 9.5072826,43.578774 8.8127514,42.437758 8.4158764,41.172719 8.0438061,39.90768 8.0438061,38.642641 q 0,-1.785938 0.7193359,-3.398242 0.7193359,-1.612305 1.934766,-2.852539 1.215429,-1.240235 2.802929,-1.959571 1.612305,-0.74414 3.398242,-0.74414 1.810743,0 3.447852,0.719336 1.661914,0.719336 2.902148,1.934765 1.265039,1.21543 2.00918,2.852539 0.744141,1.63711 0.744141,3.447852 0,2.852539 -1.314649,5.010547 -1.314648,2.133203 -3.96875,3.398242 h 4.936133 v 1.240234 H 8.0438061 V 47.05143 Z m 11.434961,-8.433594 q 0,-1.488281 -0.595312,-2.852539 -0.570508,-1.389062 -1.5875,-2.455664 -1.016992,-1.091406 -2.43086,-1.736328 -1.413867,-0.644922 -3.075781,-0.644922 -1.711523,0 -3.150195,0.644922 -1.413867,0.644922 -2.455664,1.736328 -1.041797,1.066602 -1.6123048,2.480469 -0.5705078,1.389062 -0.5705078,2.926953 0,1.513086 0.5705078,2.951758 0.5705078,1.413867 1.5874998,2.530078 1.016992,1.091406 2.43086,1.761133 1.413867,0.669726 3.12539,0.669726 1.711524,0 3.125391,-0.669726 1.438672,-0.694532 2.455664,-1.810743 1.041797,-1.141015 1.612304,-2.579687 0.570508,-1.438672 0.570508,-2.951758 z"
         style="stroke-width:0.26458332"
         id="path3043"
         inkscape:connector-curvature="0" />
    </g>
  </g>
</svg>
