<?xml version="1.0" encoding="UTF-8" standalone="no"?>
<!-- Created with Inkscape (http://www.inkscape.org/) -->

<svg
   xmlns:dc="http://purl.org/dc/elements/1.1/"
   xmlns:cc="http://creativecommons.org/ns#"
   xmlns:rdf="http://www.w3.org/1999/02/22-rdf-syntax-ns#"
   xmlns:svg="http://www.w3.org/2000/svg"
   xmlns="http://www.w3.org/2000/svg"
   xmlns:sodipodi="http://sodipodi.sourceforge.net/DTD/sodipodi-0.dtd"
   xmlns:inkscape="http://www.inkscape.org/namespaces/inkscape"
   width="23.614061mm"
   height="37.653515mm"
   viewBox="0 0 23.614061 37.653515"
   version="1.1"
   id="svg11785"
   inkscape:version="0.92.4 (5da689c313, 2019-01-14)"
   sodipodi:docname="W1.svg">
  <defs
     id="defs11779" />
  <sodipodi:namedview
     id="base"
     pagecolor="#ffffff"
     bordercolor="#666666"
     borderopacity="1.0"
     inkscape:pageopacity="0.0"
     inkscape:pageshadow="2"
     inkscape:zoom="0.35"
     inkscape:cx="-348.97321"
     inkscape:cy="-361.35716"
     inkscape:document-units="mm"
     inkscape:current-layer="layer1"
     showgrid="false"
     fit-margin-top="0"
     fit-margin-left="0"
     fit-margin-right="0"
     fit-margin-bottom="0"
     inkscape:window-width="1920"
     inkscape:window-height="1017"
     inkscape:window-x="-8"
     inkscape:window-y="-8"
     inkscape:window-maximized="1" />
  <metadata
     id="metadata11782">
    <rdf:RDF>
      <cc:Work
         rdf:about="">
        <dc:format>image/svg+xml</dc:format>
        <dc:type
           rdf:resource="http://purl.org/dc/dcmitype/StillImage" />
        <dc:title></dc:title>
      </cc:Work>
    </rdf:RDF>
  </metadata>
  <g
     inkscape:label="Layer 1"
     inkscape:groupmode="layer"
     id="layer1"
     transform="translate(-5.0199961,-15.570737)">
    <g
       aria-label="𓎯"
       style="font-style:normal;font-variant:normal;font-weight:normal;font-stretch:normal;font-size:50.79999924px;line-height:1.25;font-family:sans-serif;-inkscape-font-specification:'sans-serif, Normal';font-variant-ligatures:normal;font-variant-caps:normal;font-variant-numeric:normal;font-feature-settings:normal;text-align:start;letter-spacing:0px;word-spacing:0px;writing-mode:lr-tb;text-anchor:start;fill:#000000;fill-opacity:1;stroke:none;stroke-width:0.26458332"
       id="text12332">
      <path
         d="m 20.522926,20.432456 4.092773,-4.861719 h 1.513086 l -4.415234,5.208985 h 6.920507 v 0.992187 h -3.199804 q -0.471289,2.207617 -0.917774,4.316016 -0.198437,0.892968 -0.421679,1.860351 -0.198438,0.967383 -0.42168,1.934766 -0.223242,0.942578 -0.446485,1.835547 -0.198437,0.868164 -0.37207,1.5875 -1.438672,5.779492 -1.438672,8.408788 0,1.810743 0.347266,3.894336 0.347266,2.058789 0.942578,4.39043 l 0.694531,2.703711 -0.396875,0.520898 H 10.204176 L 9.8321055,52.752963 q 0.7937495,-2.455664 1.2898435,-4.191992 0.496094,-1.736328 0.694531,-2.80293 0.372071,-2.158007 0.372071,-3.968749 0,-1.785938 -0.372071,-3.695899 l -1.5875,-8.135937 Q 10.030543,28.940464 9.7576914,27.551401 9.5096445,26.137534 9.236793,24.84769 8.9391367,23.334604 8.6166758,21.771909 H 5.0199961 V 20.779722 H 11.915699 L 7.5252695,15.570737 h 1.4882813 l 4.1175782,4.861719 q 0.595312,-1.637109 1.5875,-2.232422 1.016992,-0.620117 2.207617,-0.620117 1.339453,0 2.257226,0.694531 0.942579,0.669727 1.339454,2.158008 z m -7.9375,17.4625 q 0.198437,1.041797 0.272851,2.009179 0.09922,0.942578 0.09922,1.885157 0,2.70371 -0.620117,5.283398 -0.620117,2.579687 -1.562695,5.357812 h 11.732617 q -1.240235,-4.588867 -1.562696,-6.796484 -0.173633,-1.141016 -0.248047,-2.108398 -0.07441,-0.992188 -0.07441,-1.860352 0,-1.95957 0.396875,-3.720703 L 22.97859,29.039682 H 10.849098 q 0.173632,0.84336 0.322461,1.661914 0.124023,0.694532 0.272851,1.463477 0.148828,0.744141 0.272852,1.289844 z m 10.64121,-9.89707 1.389063,-6.225977 H 9.4104258 l 1.2154292,6.225977 z m -9.351367,-7.218164 h 5.928321 q -0.223243,-0.744141 -0.545703,-1.21543 -0.297657,-0.471289 -0.694532,-0.744141 -0.37207,-0.272851 -0.79375,-0.37207 -0.421679,-0.09922 -0.868164,-0.09922 -0.644922,0 -1.091406,0.148828 -0.446484,0.124024 -0.79375,0.42168 -0.322461,0.272852 -0.595312,0.744141 -0.248047,0.446484 -0.545704,1.116211 z"
         style="stroke-width:0.26458332"
         id="path12334"
         inkscape:connector-curvature="0" />
    </g>
  </g>
</svg>
