<?xml version="1.0" encoding="UTF-8" standalone="no"?>
<!-- Created with Inkscape (http://www.inkscape.org/) -->

<svg
   xmlns:dc="http://purl.org/dc/elements/1.1/"
   xmlns:cc="http://creativecommons.org/ns#"
   xmlns:rdf="http://www.w3.org/1999/02/22-rdf-syntax-ns#"
   xmlns:svg="http://www.w3.org/2000/svg"
   xmlns="http://www.w3.org/2000/svg"
   xmlns:sodipodi="http://sodipodi.sourceforge.net/DTD/sodipodi-0.dtd"
   xmlns:inkscape="http://www.inkscape.org/namespaces/inkscape"
   width="19.29805mm"
   height="17.115234mm"
   viewBox="0 0 19.29805 17.115234"
   version="1.1"
   id="svg17923"
   inkscape:version="0.92.4 (5da689c313, 2019-01-14)"
   sodipodi:docname="W13.svg">
  <defs
     id="defs17917" />
  <sodipodi:namedview
     id="base"
     pagecolor="#ffffff"
     bordercolor="#666666"
     borderopacity="1.0"
     inkscape:pageopacity="0.0"
     inkscape:pageshadow="2"
     inkscape:zoom="0.35"
     inkscape:cx="-360.40179"
     inkscape:cy="-370.11608"
     inkscape:document-units="mm"
     inkscape:current-layer="layer1"
     showgrid="false"
     fit-margin-top="0"
     fit-margin-left="0"
     fit-margin-right="0"
     fit-margin-bottom="0"
     inkscape:window-width="1920"
     inkscape:window-height="1017"
     inkscape:window-x="-8"
     inkscape:window-y="-8"
     inkscape:window-maximized="1" />
  <metadata
     id="metadata17920">
    <rdf:RDF>
      <cc:Work
         rdf:about="">
        <dc:format>image/svg+xml</dc:format>
        <dc:type
           rdf:resource="http://purl.org/dc/dcmitype/StillImage" />
        <dc:title></dc:title>
      </cc:Work>
    </rdf:RDF>
  </metadata>
  <g
     inkscape:label="Layer 1"
     inkscape:groupmode="layer"
     id="layer1"
     transform="translate(-8.0438061,-33.791552)">
    <g
       aria-label="𓎾"
       style="font-style:normal;font-variant:normal;font-weight:normal;font-stretch:normal;font-size:50.79999924px;line-height:1.25;font-family:sans-serif;-inkscape-font-specification:'sans-serif, Normal';font-variant-ligatures:normal;font-variant-caps:normal;font-variant-numeric:normal;font-feature-settings:normal;text-align:start;letter-spacing:0px;word-spacing:0px;writing-mode:lr-tb;text-anchor:start;fill:#000000;fill-opacity:1;stroke:none;stroke-width:0.26458332"
       id="text18470">
      <path
         d="m 24.266071,34.188427 -0.07441,1.265039 q -0.04961,0.644922 -0.04961,1.265039 0,3.001367 0.719336,5.779492 0.744141,2.753321 2.480469,5.382618 l -0.09922,0.570507 q -2.406055,1.265039 -4.638477,1.860352 -2.232421,0.595312 -4.464843,0.595312 -2.406055,0 -4.836914,-0.620117 -2.406055,-0.644922 -5.0601564,-1.785937 L 8.0438061,47.930224 q 1.8107421,-2.554883 2.5052729,-5.308203 0.719336,-2.778125 0.719336,-5.754688 0,-0.644921 -0.0248,-1.289843 -0.0248,-0.669727 -0.07441,-1.314649 l 0.37207,-0.471289 H 23.8444 Z m 2.182813,13.791406 q -1.711524,-2.579687 -2.406055,-5.481836 -0.694531,-2.902148 -0.694531,-5.92832 0,-0.967383 0.07441,-1.984375 H 11.987751 q 0.04961,0.570508 0.07441,1.165821 0.02481,0.595312 0.02481,1.190624 0,2.926954 -0.694531,5.779493 -0.669727,2.827734 -2.4060548,5.233789 2.4060548,1.041796 4.6632808,1.612304 2.257227,0.545703 4.514453,0.545703 2.058789,0 4.092774,-0.496093 2.058789,-0.520899 4.191991,-1.63711 z"
         style="stroke-width:0.26458332"
         id="path18472"
         inkscape:connector-curvature="0" />
    </g>
  </g>
</svg>
