<?xml version="1.0" encoding="UTF-8" standalone="no"?>
<!-- Created with Inkscape (http://www.inkscape.org/) -->

<svg
   xmlns:dc="http://purl.org/dc/elements/1.1/"
   xmlns:cc="http://creativecommons.org/ns#"
   xmlns:rdf="http://www.w3.org/1999/02/22-rdf-syntax-ns#"
   xmlns:svg="http://www.w3.org/2000/svg"
   xmlns="http://www.w3.org/2000/svg"
   xmlns:sodipodi="http://sodipodi.sourceforge.net/DTD/sodipodi-0.dtd"
   xmlns:inkscape="http://www.inkscape.org/namespaces/inkscape"
   width="19.074804mm"
   height="38.050388mm"
   viewBox="0 0 19.074804 38.050388"
   version="1.1"
   id="svg8"
   inkscape:version="0.92.4 (5da689c313, 2019-01-14)"
   sodipodi:docname="W15.svg">
  <defs
     id="defs2" />
  <sodipodi:namedview
     id="base"
     pagecolor="#ffffff"
     bordercolor="#666666"
     borderopacity="1.0"
     inkscape:pageopacity="0.0"
     inkscape:pageshadow="2"
     inkscape:zoom="0.35"
     inkscape:cx="-346.11607"
     inkscape:cy="-355.64285"
     inkscape:document-units="mm"
     inkscape:current-layer="layer1"
     showgrid="false"
     fit-margin-top="0"
     fit-margin-left="0"
     fit-margin-right="0"
     fit-margin-bottom="0"
     inkscape:window-width="1920"
     inkscape:window-height="1017"
     inkscape:window-x="-8"
     inkscape:window-y="-8"
     inkscape:window-maximized="1" />
  <metadata
     id="metadata5">
    <rdf:RDF>
      <cc:Work
         rdf:about="">
        <dc:format>image/svg+xml</dc:format>
        <dc:type
           rdf:resource="http://purl.org/dc/dcmitype/StillImage" />
        <dc:title></dc:title>
      </cc:Work>
    </rdf:RDF>
  </metadata>
  <g
     inkscape:label="Layer 1"
     inkscape:groupmode="layer"
     id="layer1"
     transform="translate(-4.2640436,-16.685772)">
    <g
       aria-label="ð“"
       style="font-style:normal;font-variant:normal;font-weight:normal;font-stretch:normal;font-size:50.79999924px;line-height:1.25;font-family:sans-serif;-inkscape-font-specification:'sans-serif, Normal';font-variant-ligatures:normal;font-variant-caps:normal;font-variant-numeric:normal;font-feature-settings:normal;text-align:start;letter-spacing:0px;word-spacing:0px;writing-mode:lr-tb;text-anchor:start;fill:#000000;fill-opacity:1;stroke:none;stroke-width:0.26458332"
       id="text817">
      <path
         d="m 14.533184,16.685772 h 7.218164 l 0.42168,0.396875 v 1.141015 l -0.42168,0.396875 H 19.22127 v 2.604492 q 2.257226,0.744141 3.175,2.083594 0.942578,1.314649 0.942578,3.869531 0,2.827735 -1.562695,9.723438 -1.537891,6.870898 -1.537891,9.028906 0,1.686719 0.620117,3.671094 0.620117,1.984375 2.033985,4.489648 l -0.347266,0.644922 h -8.805664 l -0.322461,-0.595313 q 1.835547,-3.323828 2.306836,-5.308203 0.471289,-2.009179 0.471289,-3.621484 0,-2.083594 -0.719336,-5.804297 -0.694531,-3.720703 -1.488281,-6.970117 -0.768945,-3.274219 -0.768945,-5.357812 0,-2.207618 0.79375,-3.621485 0.818554,-1.413867 3.12539,-2.207617 v -2.629297 h -2.604492 l -0.297656,-0.347265 q -3.646289,0.620117 -5.6058595,5.233789 l 2.0091795,3.596679 -2.8029295,3.199805 1.5875,2.80293 -2.8029297,2.406054 1.2154297,3.59668 -2.4060547,2.80293 2.0091797,3.621484 q -2.0091797,2.80293 -2.0091797,8.805664 H 4.2640436 q 0,-6.002734 2.0091796,-8.805664 l -2.0091796,-3.621484 2.4060546,-2.80293 -1.2154297,-3.59668 2.8029297,-2.406054 -1.5875,-2.80293 2.8029296,-3.199805 -2.0091796,-3.596679 q 0.9177734,-2.455664 2.7285158,-4.216797 1.810742,-1.761133 3.96875,-2.158008 z m 4.266406,1.141015 h 2.579688 v -0.347265 h -6.424414 v 0.347265 h 2.554882 l 0.42168,0.396875 v 3.299024 l -0.297656,0.396875 q -2.158008,0.79375 -2.877344,1.835547 -0.694531,1.016992 -0.694531,3.12539 0,2.257227 1.016992,6.672461 1.016992,4.39043 1.612305,8.334375 l 0.248047,1.711523 q 0.09922,0.868164 0.09922,1.736328 v 0.372071 q 0,1.364257 -0.595312,3.497461 -0.570508,2.108398 -2.00918,4.737695 h 7.466211 q -1.091406,-1.984375 -1.785937,-4.01836 -0.669727,-2.033984 -0.669727,-4.167187 0,-1.265039 0.248047,-2.480469 l 0.620117,-3.224609 q 0.124024,-0.595312 1.141016,-5.481836 1.041797,-4.886523 1.041797,-8.383984 -0.124024,-1.711523 -0.967383,-2.678906 -0.818555,-0.992188 -2.852539,-1.612305 L 18.42752,21.448272 v -3.150196 z"
         style="stroke-width:0.26458332"
         id="path819"
         inkscape:connector-curvature="0" />
    </g>
  </g>
</svg>
