<?xml version="1.0" encoding="UTF-8" standalone="no"?>
<!-- Created with Inkscape (http://www.inkscape.org/) -->

<svg
   xmlns:dc="http://purl.org/dc/elements/1.1/"
   xmlns:cc="http://creativecommons.org/ns#"
   xmlns:rdf="http://www.w3.org/1999/02/22-rdf-syntax-ns#"
   xmlns:svg="http://www.w3.org/2000/svg"
   xmlns="http://www.w3.org/2000/svg"
   xmlns:sodipodi="http://sodipodi.sourceforge.net/DTD/sodipodi-0.dtd"
   xmlns:inkscape="http://www.inkscape.org/namespaces/inkscape"
   width="40.555664mm"
   height="38.000786mm"
   viewBox="0 0 40.555664 38.000786"
   version="1.1"
   id="svg828"
   inkscape:version="0.92.4 (5da689c313, 2019-01-14)"
   sodipodi:docname="W18.svg">
  <defs
     id="defs822" />
  <sodipodi:namedview
     id="base"
     pagecolor="#ffffff"
     bordercolor="#666666"
     borderopacity="1.0"
     inkscape:pageopacity="0.0"
     inkscape:pageshadow="2"
     inkscape:zoom="0.35"
     inkscape:cx="-346.11607"
     inkscape:cy="-387.07142"
     inkscape:document-units="mm"
     inkscape:current-layer="layer1"
     showgrid="false"
     fit-margin-top="0"
     fit-margin-left="0"
     fit-margin-right="0"
     fit-margin-bottom="0"
     inkscape:window-width="1920"
     inkscape:window-height="1017"
     inkscape:window-x="-8"
     inkscape:window-y="-8"
     inkscape:window-maximized="1" />
  <metadata
     id="metadata825">
    <rdf:RDF>
      <cc:Work
         rdf:about="">
        <dc:format>image/svg+xml</dc:format>
        <dc:type
           rdf:resource="http://purl.org/dc/dcmitype/StillImage" />
        <dc:title></dc:title>
      </cc:Work>
    </rdf:RDF>
  </metadata>
  <g
     inkscape:label="Layer 1"
     inkscape:groupmode="layer"
     id="layer1"
     transform="translate(-4.2640436,-8.4199018)">
    <g
       aria-label="ð“…"
       style="font-style:normal;font-variant:normal;font-weight:normal;font-stretch:normal;font-size:50.79999924px;line-height:1.25;font-family:sans-serif;-inkscape-font-specification:'sans-serif, Normal';font-variant-ligatures:normal;font-variant-caps:normal;font-variant-numeric:normal;font-feature-settings:normal;text-align:start;letter-spacing:0px;word-spacing:0px;writing-mode:lr-tb;text-anchor:start;fill:#000000;fill-opacity:1;stroke:none;stroke-width:0.26458332"
       id="text1375">
      <path
         d="m 30.656231,8.6927534 q 0,0.049609 0.347265,1.7115236 0.322461,1.5875 1.389063,2.033984 h 0.09922 q 0.793749,-0.148828 1.289843,-0.79375 0.520899,-0.669726 0.79375,-1.7859373 l 0.272852,-1.1162109 0.37207,-0.322461 h 3.199805 l 0.396875,0.2728516 0.223242,1.265039 q 0.173633,0.8929686 0.520898,1.5874996 0.372071,0.669727 1.066602,0.917774 l -0.124024,0.768945 h -2.802929 v 2.455664 q 0.669726,0.124024 1.240234,0.396875 0.570508,0.272852 1.016992,0.79375 0.471289,0.520899 0.79375,1.289844 0.322461,0.768945 0.471289,1.860351 1.091407,0.09922 1.785938,0.347266 0.719336,0.223242 1.116211,0.694531 0.396875,0.446485 0.545703,1.165821 0.148828,0.719335 0.148828,1.785937 v 22.398633 h -1.190625 v -23.01875 q 0,-0.719336 -0.124023,-1.141016 -0.09922,-0.446484 -0.347266,-0.669726 -0.248047,-0.248047 -0.644922,-0.322461 -0.37207,-0.07441 -0.892969,-0.124024 l -0.396875,-0.0248 v 0.768945 q 0,3.224609 -1.16582,8.706445 -1.16582,5.457031 -1.16582,8.830469 0,1.637109 0.173633,3.274218 0.198437,1.63711 0.620117,3.199805 l -0.396875,0.520899 h -4.787305 l -0.37207,-0.47129 q 0.42168,-1.562695 0.620117,-3.150195 0.198438,-1.612304 0.198438,-3.249414 0,-1.562695 -0.223243,-3.175 -0.223242,-1.637109 -0.644922,-3.423047 -0.421679,-1.785937 -0.768945,-3.472656 -0.347265,-1.686719 -0.620117,-3.348633 -0.173633,0.992188 -0.471289,2.505274 -0.272852,1.488281 -0.694531,3.522265 -0.818555,4.067969 -0.818555,7.14375 0,1.711524 0.198438,3.373438 0.223242,1.637109 0.620117,3.224609 l -0.396875,0.520899 h -4.787305 l -0.37207,-0.47129 q 0.421679,-1.562695 0.620117,-3.150195 0.198437,-1.612304 0.198437,-3.249414 0,-3.026172 -0.868164,-6.647656 -0.421679,-1.785937 -0.768945,-3.447851 -0.347266,-1.686719 -0.620117,-3.249414 -0.124024,0.768945 -0.396875,2.182812 -0.272852,1.389062 -0.694531,3.447851 -0.818555,4.092774 -0.818555,7.664649 0,1.637109 0.173633,3.224609 0.173633,1.5875 0.595312,3.175 l -0.396875,0.520899 h -4.812109 l -0.37207,-0.47129 q 0.421679,-1.562695 0.620117,-3.150195 0.198437,-1.612304 0.198437,-3.249414 0,-1.711523 -0.272851,-3.497461 -0.248047,-1.810742 -0.768945,-4.142382 L 16.93924,29.08221 q -0.173633,-0.719336 -0.322461,-1.413867 -0.124024,-0.719336 -0.248047,-1.438672 -0.173633,0.992188 -0.446484,2.480469 -0.272852,1.488281 -0.694532,3.522265 -0.818554,4.01836 -0.818554,7.069336 0,1.711524 0.198437,3.373438 0.223242,1.637109 0.620117,3.224609 l -0.396875,0.520899 h -4.787304 l -0.3720707,-0.47129 q 0.4216797,-1.562695 0.6201177,-3.150195 0.198437,-1.612304 0.198437,-3.249414 0,-3.621484 -1.2898437,-8.557617 -0.6449219,-2.530078 -0.9921875,-5.060156 -0.3224609,-2.554883 -0.3720703,-4.812109 -0.7193359,0 -1.190625,0.09922 -0.4464844,0.07441 -0.7193359,0.322461 -0.2728516,0.248047 -0.396875,0.719336 -0.099219,0.446485 -0.099219,1.21543 v 22.94433 H 4.2640436 V 24.344511 q 0,-1.16582 0.074414,-1.984375 0.074414,-0.818555 0.4216797,-1.339453 0.3472656,-0.520899 1.0914062,-0.744141 0.7689453,-0.248047 2.1083984,-0.248047 0.2976563,-1.711523 1.116211,-2.877343 0.8433593,-1.190625 2.1828121,-1.463477 V 13.232011 H 8.034356 v -0.79375 q 0.79375,-0.148828 1.2898437,-0.79375 0.5208985,-0.669726 0.7937503,-1.7859373 l 0.272851,-1.1162109 0.372071,-0.322461 h 3.199804 l 0.396875,0.2728516 q 0,0.049609 0.347266,1.7115236 0.322461,1.5875 1.389062,2.033984 h 0.09922 q 0.818555,-0.173633 1.314648,-0.843359 0.520899,-0.694531 0.768946,-1.7363283 l 0.248047,-1.1162109 0.37207,-0.322461 h 3.199805 l 0.396875,0.2728516 0.223242,1.2402344 q 0.173633,0.8433592 0.520898,1.5378902 0.347266,0.669727 0.992188,0.967383 h 0.09922 q 0.79375,-0.148828 1.289844,-0.79375 0.520899,-0.669726 0.79375,-1.7859373 l 0.272852,-1.1162109 0.37207,-0.322461 h 3.199805 z m 2.455664,15.0068356 q 0.04961,0.322461 0.09922,0.595313 0.04961,0.248046 0.07441,0.520898 0.02481,0.248047 0.04961,0.37207 0.09922,0.744141 0.347265,2.083594 0.248047,1.339453 0.669727,3.274219 l 0.768945,3.472656 q 0.297657,1.339453 0.446485,2.703711 0.173633,1.339453 0.173633,3.001367 0,1.488281 -0.173633,3.001367 -0.148828,1.488281 -0.520899,2.902149 h 3.745508 q -0.37207,-1.413868 -0.545703,-2.926954 -0.173633,-1.53789 -0.173633,-3.100585 0,-3.621485 1.041797,-8.35918 0.520898,-2.38125 0.818555,-4.241602 0.322461,-1.885156 0.421679,-3.299023 z m -0.917774,0.09922 v -0.09922 h -7.267773 q 0.04961,0.322461 0.09922,0.595313 0.04961,0.248046 0.07441,0.520898 0.04961,0.248047 0.07441,0.37207 0.09922,0.744141 0.347265,2.083594 0.248047,1.339453 0.669727,3.274219 l 0.768945,3.472656 q 0.297657,1.339453 0.446485,2.703711 0.173632,1.339453 0.173632,3.001367 0,1.488281 -0.173632,3.001367 -0.148828,1.488281 -0.520899,2.902149 h 3.770313 q -0.372071,-1.488282 -0.545703,-2.976563 -0.148829,-1.513086 -0.148829,-3.075781 0,-3.894336 0.967383,-8.433594 0.967383,-4.613672 1.265039,-7.342187 z m -16.296679,0 v -0.09922 H 8.7288872 q 0.099219,1.488281 0.4464844,3.398242 0.3472656,1.909961 0.9177734,4.241602 1.190625,4.663281 1.190625,8.383984 0,1.488281 -0.173633,3.001367 -0.148828,1.488281 -0.520898,2.902149 h 3.770312 q -0.37207,-1.488282 -0.545703,-2.976563 -0.148828,-1.513086 -0.148828,-3.075781 0,-3.894336 0.967383,-8.433594 0.967383,-4.613672 1.265039,-7.342186 z m 8.160742,0 v -0.09922 h -7.193359 q 0,0.669727 0.520898,3.571875 0.272852,1.438672 0.595313,2.976563 0.32246,1.513085 0.694531,3.150195 0.74414,3.249414 0.74414,6.325195 0,1.488281 -0.173632,3.001367 -0.148829,1.488281 -0.520899,2.902149 h 3.770313 q -0.396875,-1.488282 -0.570508,-2.951758 -0.148828,-1.463477 -0.148828,-3.026172 0,-3.919141 0.992187,-8.557617 0.496094,-2.38125 0.818555,-4.191992 0.347265,-1.810742 0.471289,-3.100585 z m 0.843359,-3.001367 0.04961,0.520898 v 1.066602 l -0.02481,0.520898 h 7.342187 v -0.223242 q 0,-0.09922 0,-0.198438 0,-0.09922 -0.0248,-0.223242 v -0.843359 q 0,-2.331641 -0.84336,-3.54707 -0.818554,-1.21543 -2.257226,-1.463477 l -0.37207,-0.47129 V 12.90955 l 0.372071,-0.471289 h 1.95957 q -0.570508,-0.644922 -0.79375,-1.488281 -0.198437,-0.843359 -0.37207,-1.7363282 h -2.554883 q -0.223242,0.8929692 -0.545703,1.7611332 -0.297656,0.868164 -0.917774,1.463476 h 2.00918 l 0.42168,0.396875 v 3.175 l -0.297656,0.396875 q -1.686719,0.272852 -2.356446,1.438672 -0.669726,1.16582 -0.79375,2.951758 z M 8.6296685,22.01287 q 0,0.223243 0,0.446485 0,0.223242 0.024805,0.446484 h 7.3173825 v -0.223242 q 0,-0.124023 0,-0.248047 0,-0.148828 -0.02481,-0.272851 l 0.04961,-1.091407 Q 15.872632,18.88748 15.078882,17.796074 14.285132,16.679863 12.84646,16.407011 L 12.47439,15.935722 V 12.90955 l 0.37207,-0.471289 h 1.959571 Q 14.235528,11.818144 14.03709,10.974785 13.838653,10.106621 13.66502,9.2136518 h -2.579687 q -0.223243,0.8929692 -0.545704,1.7611332 -0.297656,0.868164 -0.917773,1.463476 h 2.00918 l 0.421679,0.396875 v 3.175 l -0.297656,0.396875 q -1.16582,0.223242 -1.9099608,0.892969 -0.7441407,0.644922 -1.1410157,2.728515 0,0.173633 -0.024805,0.272852 l -0.024805,0.223242 -0.024805,0.520899 z M 40.330059,20.078105 q -0.297657,-1.711524 -1.016993,-2.554883 -0.694531,-0.868164 -2.033984,-1.116211 l -0.37207,-0.471289 V 12.90955 l 0.37207,-0.471289 h 1.984375 Q 38.692949,11.818144 38.494512,10.974785 38.296074,10.106621 38.122441,9.2136518 h -2.579687 q -0.223242,0.8929692 -0.545703,1.7611332 -0.297656,0.868164 -0.917774,1.463476 h 2.00918 l 0.42168,0.396875 v 3.175 l -0.297656,0.396875 q -1.761133,0.297656 -2.43086,1.537891 -0.644922,1.240234 -0.719336,3.075781 l 0.02481,0.818555 -0.02481,0.79375 0.02481,0.272851 h 7.317383 q 0,-0.198437 0,-0.42168 0,-0.223242 0.0248,-0.446484 v -0.843359 q 0,-0.198438 -0.04961,-0.545703 -0.04961,-0.372071 -0.04961,-0.570508 z M 22.966778,12.438261 Q 22.39627,11.793339 22.173028,10.94998 21.949785,10.081816 21.776153,9.2136518 H 19.22127 q -0.198438,0.8929692 -0.520899,1.7611332 -0.297656,0.868164 -0.917773,1.463476 h 2.00918 l 0.421679,0.396875 v 3.175 l -0.297656,0.396875 q -1.761133,0.297656 -2.430859,1.537891 -0.644922,1.240234 -0.719336,3.075781 l 0.02481,0.818555 -0.02481,0.79375 0.02481,0.272851 h 7.342187 l -0.02481,-0.496094 q 0,-0.124023 0,-0.248046 0,-0.148829 -0.0248,-0.272852 0,-0.124023 0,-0.272852 0,-0.148828 0.0248,-0.272851 l 0.02481,-0.520899 Q 24.00858,18.937089 23.21483,17.796074 22.42108,16.655058 20.982408,16.407011 L 20.610332,15.935722 V 12.90955 l 0.372071,-0.471289 z m 6.598046,0.79375 v 2.455664 q 1.289844,0.248047 2.00918,1.066602 0.744141,0.818554 1.091406,1.934765 0.347266,-1.116211 1.066602,-1.934765 0.719336,-0.818555 1.984375,-1.066602 v -2.455664 z m -16.296679,0 v 2.455664 q 1.289844,0.248047 2.00918,1.091406 0.74414,0.818555 1.091406,1.934766 0.347265,-1.116211 1.041797,-1.934766 0.719336,-0.843359 2.009179,-1.091406 v -2.455664 z m 8.135937,0 v 2.455664 q 1.289844,0.248047 2.00918,1.066602 0.744141,0.79375 1.091406,1.909961 0.347266,-1.116211 1.066602,-1.909961 0.719336,-0.818555 1.984375,-1.066602 v -2.455664 z"
         style="stroke-width:0.26458332"
         id="path1377"
         inkscape:connector-curvature="0" />
    </g>
  </g>
</svg>
