<?xml version="1.0" encoding="UTF-8" standalone="no"?>
<!-- Created with Inkscape (http://www.inkscape.org/) -->

<svg
   xmlns:dc="http://purl.org/dc/elements/1.1/"
   xmlns:cc="http://creativecommons.org/ns#"
   xmlns:rdf="http://www.w3.org/1999/02/22-rdf-syntax-ns#"
   xmlns:svg="http://www.w3.org/2000/svg"
   xmlns="http://www.w3.org/2000/svg"
   xmlns:sodipodi="http://sodipodi.sourceforge.net/DTD/sodipodi-0.dtd"
   xmlns:inkscape="http://www.inkscape.org/namespaces/inkscape"
   width="23.614061mm"
   height="35.66914mm"
   viewBox="0 0 23.614061 35.66914"
   version="1.1"
   id="svg12343"
   inkscape:version="0.92.4 (5da689c313, 2019-01-14)"
   sodipodi:docname="W2.svg">
  <defs
     id="defs12337" />
  <sodipodi:namedview
     id="base"
     pagecolor="#ffffff"
     bordercolor="#666666"
     borderopacity="1.0"
     inkscape:pageopacity="0.0"
     inkscape:pageshadow="2"
     inkscape:zoom="0.35"
     inkscape:cx="-337.54464"
     inkscape:cy="-355.64285"
     inkscape:document-units="mm"
     inkscape:current-layer="layer1"
     showgrid="false"
     fit-margin-top="0"
     fit-margin-left="0"
     fit-margin-right="0"
     fit-margin-bottom="0"
     inkscape:window-width="1920"
     inkscape:window-height="1017"
     inkscape:window-x="-8"
     inkscape:window-y="-8"
     inkscape:window-maximized="1" />
  <metadata
     id="metadata12340">
    <rdf:RDF>
      <cc:Work
         rdf:about="">
        <dc:format>image/svg+xml</dc:format>
        <dc:type
           rdf:resource="http://purl.org/dc/dcmitype/StillImage" />
        <dc:title></dc:title>
      </cc:Work>
    </rdf:RDF>
  </metadata>
  <g
     inkscape:label="Layer 1"
     inkscape:groupmode="layer"
     id="layer1"
     transform="translate(-1.9961868,-19.067022)">
    <g
       aria-label="𓎰"
       style="font-style:normal;font-variant:normal;font-weight:normal;font-stretch:normal;font-size:50.79999924px;line-height:1.25;font-family:sans-serif;-inkscape-font-specification:'sans-serif, Normal';font-variant-ligatures:normal;font-variant-caps:normal;font-variant-numeric:normal;font-feature-settings:normal;text-align:start;letter-spacing:0px;word-spacing:0px;writing-mode:lr-tb;text-anchor:start;fill:#000000;fill-opacity:1;stroke:none;stroke-width:0.26458332"
       id="text12890">
      <path
         d="m 25.610249,22.291631 v 0.992188 H 22.38564 q -1.141016,5.208984 -1.934766,8.780859 -0.79375,3.571875 -1.240234,5.481836 -0.446485,1.885156 -0.669727,3.423046 -0.223242,1.513086 -0.223242,2.43086 0,1.711523 0.297656,3.596679 0.322461,1.885157 0.719336,3.497461 0.446484,1.885157 1.041797,3.720703 l -0.396875,0.520899 H 7.1803664 L 6.8579055,54.140849 q 0.6449218,-1.686718 1.1658202,-3.497461 0.4216797,-1.562695 0.79375,-3.423046 0.3720703,-1.885157 0.3720703,-3.695899 0,-1.16582 -0.1736328,-2.530078 Q 8.8422804,39.630107 8.4950148,38.042607 8.1477492,36.455107 7.4036086,32.759209 6.6842726,29.063311 5.5680617,23.283819 H 1.9961868 v -0.992188 h 8.1607422 q 0.198437,-0.892969 0.694531,-1.612305 0.42168,-0.595312 1.190625,-1.091406 0.768945,-0.520898 2.058789,-0.520898 1.116211,0 1.810742,0.520898 0.694531,0.496094 1.066602,1.091406 0.446484,0.719336 0.644922,1.612305 z M 9.5616163,39.406865 q 0.4216797,2.257227 0.4216797,4.241602 0,1.835546 -0.3472656,3.671093 -0.3472656,1.810743 -0.7689453,3.299024 -0.4960937,1.736328 -1.1162109,3.323828 H 19.508296 q -0.545703,-1.736328 -0.967383,-3.54707 -0.37207,-1.537891 -0.669726,-3.348633 -0.297657,-1.810742 -0.297657,-3.447852 0,-0.967383 0.09922,-2.058789 0.09922,-1.091406 0.322461,-2.083593 l 1.95957,-8.904883 H 7.8252882 Z M 21.59189,23.283819 H 6.3866164 l 1.2154297,6.225976 H 20.202827 Z m -4.861719,-0.992188 q -0.148828,-0.669727 -0.496094,-1.21543 -0.297656,-0.471289 -0.843359,-0.843359 -0.520899,-0.396875 -1.389063,-0.396875 -0.942578,0 -1.53789,0.396875 -0.570508,0.37207 -0.917774,0.843359 -0.396875,0.545703 -0.570507,1.21543 z"
         style="stroke-width:0.26458332"
         id="path12892"
         inkscape:connector-curvature="0" />
    </g>
  </g>
</svg>
