<?xml version="1.0" encoding="UTF-8" standalone="no"?>
<!-- Created with Inkscape (http://www.inkscape.org/) -->

<svg
   xmlns:dc="http://purl.org/dc/elements/1.1/"
   xmlns:cc="http://creativecommons.org/ns#"
   xmlns:rdf="http://www.w3.org/1999/02/22-rdf-syntax-ns#"
   xmlns:svg="http://www.w3.org/2000/svg"
   xmlns="http://www.w3.org/2000/svg"
   xmlns:sodipodi="http://sodipodi.sourceforge.net/DTD/sodipodi-0.dtd"
   xmlns:inkscape="http://www.inkscape.org/namespaces/inkscape"
   width="18.628321mm"
   height="19.174025mm"
   viewBox="0 0 18.628321 19.174025"
   version="1.1"
   id="svg1944"
   inkscape:version="0.92.4 (5da689c313, 2019-01-14)"
   sodipodi:docname="W21.svg">
  <defs
     id="defs1938" />
  <sodipodi:namedview
     id="base"
     pagecolor="#ffffff"
     bordercolor="#666666"
     borderopacity="1.0"
     inkscape:pageopacity="0.0"
     inkscape:pageshadow="2"
     inkscape:zoom="0.35"
     inkscape:cx="-348.97321"
     inkscape:cy="-361.26341"
     inkscape:document-units="mm"
     inkscape:current-layer="layer1"
     showgrid="false"
     fit-margin-top="0"
     fit-margin-left="0"
     fit-margin-right="0"
     fit-margin-bottom="0"
     inkscape:window-width="1920"
     inkscape:window-height="1017"
     inkscape:window-x="-8"
     inkscape:window-y="-8"
     inkscape:window-maximized="1" />
  <metadata
     id="metadata1941">
    <rdf:RDF>
      <cc:Work
         rdf:about="">
        <dc:format>image/svg+xml</dc:format>
        <dc:type
           rdf:resource="http://purl.org/dc/dcmitype/StillImage" />
        <dc:title></dc:title>
      </cc:Work>
    </rdf:RDF>
  </metadata>
  <g
     inkscape:label="Layer 1"
     inkscape:groupmode="layer"
     id="layer1"
     transform="translate(-5.0199961,-34.075032)">
    <g
       aria-label="ð“‰"
       style="font-style:normal;font-variant:normal;font-weight:normal;font-stretch:normal;font-size:50.79999924px;line-height:1.25;font-family:sans-serif;-inkscape-font-specification:'sans-serif, Normal';font-variant-ligatures:normal;font-variant-caps:normal;font-variant-numeric:normal;font-feature-settings:normal;text-align:start;letter-spacing:0px;word-spacing:0px;writing-mode:lr-tb;text-anchor:start;fill:#000000;fill-opacity:1;stroke:none;stroke-width:0.26458332"
       id="text2491">
      <path
         d="m 23.648316,43.302377 v 1.190625 h -2.75332 q 0.124023,0.694532 0.198437,1.389063 0.07441,0.694531 0.124024,1.389062 h 2.430859 v 1.21543 h -2.406054 l -0.02481,0.694531 q -0.148828,1.661914 -1.289844,2.877344 -1.141015,1.190625 -2.678906,1.190625 -0.892969,0 -1.885156,-0.545703 -0.967383,-0.545703 -1.389063,-1.984375 -0.421679,1.339453 -1.289844,1.934766 -0.843359,0.595312 -1.934765,0.595312 -1.2650392,0 -2.2572267,-0.719336 Q 7.5004649,51.78558 7.1780039,50.396518 L 6.855543,49.106674 Q 6.8059336,48.957846 6.7811289,48.784213 L 6.7315196,48.486557 H 5.0199961 v -1.21543 h 1.6371094 q 0,-0.644921 0.1240234,-1.314648 0.1240235,-0.669727 0.2976563,-1.463477 H 5.0199961 v -1.190625 h 2.3316406 q 0.5705078,-2.33164 1.2898438,-4.588867 0.7441406,-2.282031 1.5378905,-4.588867 l 0.768945,-0.04961 q 0.744141,2.182812 1.513086,4.390429 0.768946,2.182813 1.265039,4.464844 l 0.07441,0.37207 h 0.545704 q 0.545703,-2.33164 1.215429,-4.588867 0.694531,-2.257226 1.339453,-4.588867 l 0.768946,-0.04961 q 0.868164,2.00918 1.5875,4.043164 0.719335,2.00918 1.190625,4.142383 l 0.223242,1.041796 z M 8.2942148,42.68226 8.1453867,43.302377 H 12.982301 Q 12.511012,41.293198 11.86609,39.333628 11.221168,37.374057 10.551441,35.414487 9.2615976,39.159995 8.7903086,40.871518 8.3190195,42.558237 8.2942148,42.68226 Z m 6.8708982,0.620117 h 4.712891 l -0.198438,-0.843359 q -0.421679,-1.835547 -1.016992,-3.59668 -0.570508,-1.761132 -1.289844,-3.472656 -0.471289,1.63711 -0.967382,3.22461 -0.47129,1.562695 -0.868165,3.175 z m 2.182813,9.15293 q 1.240234,0 2.133203,-1.091406 0.892968,-1.116211 1.016992,-2.877344 h -6.027539 q 0,2.133203 0.768945,3.050977 0.768946,0.917773 2.108399,0.917773 z m -6.622852,0 q 1.190625,0 1.909961,-0.818555 0.719336,-0.818554 1.016992,-3.150195 H 7.4756602 q 0.471289,2.505273 1.265039,3.249414 0.8185547,0.719336 1.9843748,0.719336 z m 2.976563,-5.18418 q 0,-0.694531 -0.173633,-1.53789 L 13.255152,44.493002 H 7.8477305 q -0.322461,1.364258 -0.4464844,2.778125 z m 6.796484,0 q -0.04961,-0.694531 -0.148828,-1.389062 -0.09922,-0.719336 -0.223242,-1.389063 h -5.208985 q -0.272851,1.389063 -0.37207,2.778125 z"
         style="stroke-width:0.26458332"
         id="path2493"
         inkscape:connector-curvature="0" />
    </g>
  </g>
</svg>
