<?xml version="1.0" encoding="UTF-8" standalone="no"?>
<!-- Created with Inkscape (http://www.inkscape.org/) -->

<svg
   xmlns:dc="http://purl.org/dc/elements/1.1/"
   xmlns:cc="http://creativecommons.org/ns#"
   xmlns:rdf="http://www.w3.org/1999/02/22-rdf-syntax-ns#"
   xmlns:svg="http://www.w3.org/2000/svg"
   xmlns="http://www.w3.org/2000/svg"
   xmlns:sodipodi="http://sodipodi.sourceforge.net/DTD/sodipodi-0.dtd"
   xmlns:inkscape="http://www.inkscape.org/namespaces/inkscape"
   width="14.262695mm"
   height="15.825391mm"
   viewBox="0 0 14.262695 15.825391"
   version="1.1"
   id="svg3618"
   inkscape:version="0.92.4 (5da689c313, 2019-01-14)"
   sodipodi:docname="W24.svg">
  <defs
     id="defs3612" />
  <sodipodi:namedview
     id="base"
     pagecolor="#ffffff"
     bordercolor="#666666"
     borderopacity="1.0"
     inkscape:pageopacity="0.0"
     inkscape:pageshadow="2"
     inkscape:zoom="0.35"
     inkscape:cx="-337.54464"
     inkscape:cy="-409.92858"
     inkscape:document-units="mm"
     inkscape:current-layer="layer1"
     showgrid="false"
     fit-margin-top="0"
     fit-margin-left="0"
     fit-margin-right="0"
     fit-margin-bottom="0"
     inkscape:window-width="1920"
     inkscape:window-height="1017"
     inkscape:window-x="-8"
     inkscape:window-y="-8"
     inkscape:window-maximized="1" />
  <metadata
     id="metadata3615">
    <rdf:RDF>
      <cc:Work
         rdf:about="">
        <dc:format>image/svg+xml</dc:format>
        <dc:type
           rdf:resource="http://purl.org/dc/dcmitype/StillImage" />
        <dc:title></dc:title>
      </cc:Work>
    </rdf:RDF>
  </metadata>
  <g
     inkscape:label="Layer 1"
     inkscape:groupmode="layer"
     id="layer1"
     transform="translate(-1.9961868,-24.547673)">
    <g
       aria-label="ð“Œ"
       style="font-style:normal;font-variant:normal;font-weight:normal;font-stretch:normal;font-size:50.79999924px;line-height:1.25;font-family:sans-serif;-inkscape-font-specification:'sans-serif, Normal';font-variant-ligatures:normal;font-variant-caps:normal;font-variant-numeric:normal;font-feature-settings:normal;text-align:start;letter-spacing:0px;word-spacing:0px;writing-mode:lr-tb;text-anchor:start;fill:#000000;fill-opacity:1;stroke:none;stroke-width:0.26458332"
       id="text4165">
      <path
         d="m 12.339741,24.547673 q 0.942578,0 1.389063,0.520899 0.471289,0.496093 0.471289,1.066601 0,0.372071 -0.198438,0.719336 -0.198437,0.347266 -0.620117,0.545703 1.736328,1.289844 2.306836,2.852539 0.570508,1.562696 0.570508,2.951758 0,2.976563 -2.058789,5.084961 -2.033985,2.083594 -5.0601563,2.083594 -3.1253906,0 -5.1345703,-2.133203 -2.0091796,-2.158008 -2.0091796,-5.109766 0,-1.711523 0.7441406,-3.224609 Q 3.5092727,28.3924 4.9479445,27.350603 4.5262649,27.102556 4.278218,26.705681 4.0549758,26.284001 4.0549758,25.862322 q 0,-0.595313 0.4464844,-0.942578 0.471289,-0.372071 1.1162109,-0.372071 z m -0.09922,3.026172 H 6.0889602 q -1.6619141,1.041797 -2.4556641,2.430859 -0.79375,1.389063 -0.79375,3.22461 0,2.902148 1.8355469,4.638476 1.8355468,1.711524 4.3160155,1.711524 2.6292965,0 4.5640625,-1.785938 1.934766,-1.810742 1.934766,-4.539258 0,-1.736328 -0.719336,-3.12539 -0.719336,-1.413867 -2.530078,-2.554883 z M 5.6176711,25.341423 q -0.4464844,0 -0.6201172,0.198438 -0.1488281,0.198437 -0.1488281,0.421679 v 0.02481 q 0,0.37207 0.3472656,0.595313 Q 5.5680617,26.7801 5.940132,26.7801 h 6.672461 q 0.42168,-0.04961 0.620117,-0.223242 0.198438,-0.198438 0.198438,-0.446484 0,-0.272852 -0.272852,-0.520899 -0.272852,-0.248047 -0.818555,-0.248047 z"
         style="stroke-width:0.26458332"
         id="path4167"
         inkscape:connector-curvature="0" />
    </g>
  </g>
</svg>
