<?xml version="1.0" encoding="UTF-8" standalone="no"?>
<svg
   xmlns:dc="http://purl.org/dc/elements/1.1/"
   xmlns:cc="http://creativecommons.org/ns#"
   xmlns:rdf="http://www.w3.org/1999/02/22-rdf-syntax-ns#"
   xmlns:svg="http://www.w3.org/2000/svg"
   xmlns="http://www.w3.org/2000/svg"
   xmlns:sodipodi="http://sodipodi.sourceforge.net/DTD/sodipodi-0.dtd"
   xmlns:inkscape="http://www.inkscape.org/namespaces/inkscape"
   version="1.0"
   width="142.32014pt"
   height="208.81375pt"
   viewBox="0 0 142.32014 208.81375"
   preserveAspectRatio="xMidYMid meet"
   id="svg14"
   sodipodi:docname="W27.svg"
   inkscape:version="0.92.4 (5da689c313, 2019-01-14)">
  <defs
     id="defs18" />
  <sodipodi:namedview
     pagecolor="#ffffff"
     bordercolor="#666666"
     borderopacity="1"
     objecttolerance="10"
     gridtolerance="10"
     guidetolerance="10"
     inkscape:pageopacity="0"
     inkscape:pageshadow="2"
     inkscape:window-width="1920"
     inkscape:window-height="1017"
     id="namedview16"
     showgrid="false"
     fit-margin-top="0"
     fit-margin-left="0"
     fit-margin-right="0"
     fit-margin-bottom="0"
     inkscape:zoom="0.76623377"
     inkscape:cx="-78.659104"
     inkscape:cy="142"
     inkscape:window-x="-8"
     inkscape:window-y="-8"
     inkscape:window-maximized="1"
     inkscape:current-layer="svg14" />
  <metadata
     id="metadata2">
Created by potrace 1.10, written by Peter Selinger 2001-2011
<rdf:RDF>
  <cc:Work
     rdf:about="">
    <dc:format>image/svg+xml</dc:format>
    <dc:type
       rdf:resource="http://purl.org/dc/dcmitype/StillImage" />
    <dc:title></dc:title>
  </cc:Work>
</rdf:RDF>
</metadata>
  <g
     transform="matrix(0.1,0,0,-0.1,-9.8121249,217.81375)"
     id="g12"
     style="fill:#000000;stroke:none">
    <path
       d="m 767,2166 c -80,-29 -147,-111 -147,-180 0,-41 33,-113 64,-139 33,-27 106,-57 140,-57 50,1 110,34 150,83 34,41 38,53 39,106 2,56 -1,62 -39,107 -30,36 -56,55 -100,71 -68,27 -58,26 -107,9 z m 122,-131 c 40,-45 40,-76 0,-109 -40,-34 -72,-41 -110,-26 -65,27 -64,143 1,161 55,15 77,10 109,-26 z"
       id="path4"
       inkscape:connector-curvature="0" />
    <path
       d="m 525,1766 c -84,-31 -119,-84 -119,-177 0,-76 15,-102 91,-156 76,-54 163,-43 237,32 43,43 56,71 56,126 0,128 -141,222 -265,175 z m 129,-107 c 24,-19 27,-27 24,-73 -3,-48 -5,-52 -41,-69 -46,-23 -77,-17 -112,21 -34,36 -33,76 4,113 36,36 86,39 125,8 z"
       id="path6"
       inkscape:connector-curvature="0" />
    <path
       d="m 962,1767 c -19,-6 -49,-30 -70,-55 -35,-43 -37,-49 -37,-116 0,-82 15,-108 92,-163 57,-41 106,-43 179,-9 68,31 114,100 114,168 0,79 -33,128 -117,176 -27,14 -115,14 -161,-1 z m 133,-99 c 29,-13 38,-38 33,-94 -3,-33 -8,-41 -38,-56 -65,-32 -140,12 -140,82 0,12 13,35 29,51 32,32 71,38 116,17 z"
       id="path8"
       inkscape:connector-curvature="0" />
    <path
       d="m 315,1376 c -22,-6 -52,-19 -67,-29 -30,-20 -78,-115 -78,-153 0,-49 60,-136 108,-155 46,-18 21,-29 -67,-29 -80,0 -90,-2 -103,-22 -13,-19 -13,-28 -1,-67 7,-25 18,-50 23,-55 6,-6 10,-18 10,-27 0,-10 6,-30 14,-46 8,-15 22,-47 30,-70 9,-24 22,-60 30,-80 28,-76 48,-129 61,-158 13,-31 35,-87 59,-152 37,-100 49,-130 62,-156 8,-16 14,-35 14,-43 0,-7 13,-20 30,-29 24,-13 84,-15 374,-15 h 344 l 31,26 c 17,14 31,33 31,41 0,8 6,27 14,41 13,26 29,66 63,157 8,22 21,54 28,70 13,31 35,87 59,153 22,59 47,124 61,157 7,17 21,50 30,75 9,25 23,60 31,78 37,86 8,122 -98,122 -65,0 -89,13 -50,27 62,23 105,88 105,160 0,135 -149,231 -277,178 -41,-18 -91,-80 -108,-137 -22,-73 33,-181 102,-203 49,-15 -1,-25 -131,-25 -76,0 -139,2 -139,4 0,3 22,27 49,54 38,40 49,59 54,95 10,68 -2,110 -42,157 -75,88 -213,95 -287,14 -48,-53 -70,-155 -43,-207 17,-32 71,-87 86,-87 7,0 13,-7 13,-15 0,-13 -23,-15 -150,-15 -155,0 -180,7 -116,34 63,26 94,97 88,203 -4,60 -119,147 -189,142 -10,-1 -36,-7 -58,-13 z m 117,-113 c 37,-33 41,-52 23,-93 -30,-66 -99,-77 -151,-25 -34,34 -32,79 6,117 27,26 36,30 67,25 19,-4 44,-14 55,-24 z m 461,-13 c 33,-37 34,-69 3,-103 -31,-33 -68,-43 -107,-27 -56,24 -76,82 -43,128 35,50 102,51 147,2 z m 411,30 c 25,-9 66,-63 66,-86 0,-5 -15,-27 -34,-47 -26,-29 -41,-37 -68,-37 -77,0 -114,105 -55,156 30,26 52,29 91,14 z m 90,-386 c 3,-9 0,-28 -8,-42 -8,-15 -21,-45 -29,-67 -25,-67 -49,-128 -62,-160 -7,-16 -21,-50 -30,-75 -9,-25 -23,-58 -31,-73 -8,-16 -14,-35 -14,-42 0,-7 -6,-26 -14,-42 -8,-15 -22,-48 -31,-73 -10,-25 -24,-62 -33,-83 l -15,-37 -316,2 -315,3 -12,25 c -7,14 -20,45 -29,70 -10,25 -23,59 -30,75 -7,17 -21,50 -30,75 -10,25 -24,63 -32,85 -9,22 -21,54 -28,70 -7,17 -21,50 -30,75 -9,25 -23,58 -31,73 -8,16 -14,36 -14,45 0,9 -7,26 -15,36 -16,21 -20,58 -8,69 3,4 264,7 579,7 513,0 572,-2 578,-16 z"
       id="path10"
       inkscape:connector-curvature="0" />
  </g>
</svg>
