<?xml version="1.0" encoding="UTF-8" standalone="no"?>
<svg
   xmlns:dc="http://purl.org/dc/elements/1.1/"
   xmlns:cc="http://creativecommons.org/ns#"
   xmlns:rdf="http://www.w3.org/1999/02/22-rdf-syntax-ns#"
   xmlns:svg="http://www.w3.org/2000/svg"
   xmlns="http://www.w3.org/2000/svg"
   xmlns:sodipodi="http://sodipodi.sourceforge.net/DTD/sodipodi-0.dtd"
   xmlns:inkscape="http://www.inkscape.org/namespaces/inkscape"
   version="1.0"
   width="67.886444pt"
   height="71pt"
   viewBox="0 0 67.886444 71"
   preserveAspectRatio="xMidYMid meet"
   id="svg8"
   sodipodi:docname="W28.svg"
   inkscape:version="0.92.4 (5da689c313, 2019-01-14)">
  <defs
     id="defs12" />
  <sodipodi:namedview
     pagecolor="#ffffff"
     bordercolor="#666666"
     borderopacity="1"
     objecttolerance="10"
     gridtolerance="10"
     guidetolerance="10"
     inkscape:pageopacity="0"
     inkscape:pageshadow="2"
     inkscape:window-width="1920"
     inkscape:window-height="1017"
     id="namedview10"
     showgrid="false"
     fit-margin-top="0"
     fit-margin-left="0"
     fit-margin-right="0"
     fit-margin-bottom="0"
     inkscape:zoom="1.9032258"
     inkscape:cx="-24.943545"
     inkscape:cy="54.000001"
     inkscape:window-x="-8"
     inkscape:window-y="-8"
     inkscape:window-maximized="1"
     inkscape:current-layer="svg8" />
  <metadata
     id="metadata2">
Created by potrace 1.10, written by Peter Selinger 2001-2011
<rdf:RDF>
  <cc:Work
     rdf:about="">
    <dc:format>image/svg+xml</dc:format>
    <dc:type
       rdf:resource="http://purl.org/dc/dcmitype/StillImage" />
    <dc:title></dc:title>
  </cc:Work>
</rdf:RDF>
</metadata>
  <g
     transform="matrix(0.1,0,0,-0.1,-5.796642,77)"
     id="g6"
     style="fill:#000000;stroke:none">
    <path
       d="M 122,753 C 56,721 37,627 84,565 c 15,-19 47,-48 72,-65 l 44,-31 -18,-27 C 113,341 123,229 209,137 273,68 293,60 404,60 h 94 l 50,39 c 59,47 88,90 103,158 14,62 0,131 -37,180 l -24,31 48,31 c 57,36 88,76 97,123 9,47 -16,103 -57,128 -31,19 -50,20 -278,20 -206,0 -250,-3 -278,-17 z m 132,-79 c 32,-69 33,-103 4,-140 -12,-16 -23,-31 -24,-33 -4,-5 -63,37 -96,67 -50,46 -47,125 6,150 11,6 35,11 53,11 29,1 34,-4 57,-55 z m 240,11 C 448,604 456,570 552,443 639,327 638,263 549,166 L 498,110 H 398 297 l -47,47 c -71,71 -89,154 -49,227 11,21 43,65 70,98 27,32 52,70 55,83 6,26 -20,130 -36,140 -29,18 1,25 109,25 h 120 z m 155,30 c 33,-16 41,-33 41,-80 0,-26 -9,-41 -44,-73 -66,-61 -79,-66 -104,-39 -41,44 -36,108 14,185 17,26 52,29 93,7 z"
       id="path4"
       inkscape:connector-curvature="0" />
  </g>
</svg>
