<?xml version="1.0" encoding="UTF-8" standalone="no"?>
<svg
   xmlns:dc="http://purl.org/dc/elements/1.1/"
   xmlns:cc="http://creativecommons.org/ns#"
   xmlns:rdf="http://www.w3.org/1999/02/22-rdf-syntax-ns#"
   xmlns:svg="http://www.w3.org/2000/svg"
   xmlns="http://www.w3.org/2000/svg"
   xmlns:sodipodi="http://sodipodi.sourceforge.net/DTD/sodipodi-0.dtd"
   xmlns:inkscape="http://www.inkscape.org/namespaces/inkscape"
   version="1.0"
   width="371.29999pt"
   height="234.36569pt"
   viewBox="0 0 371.29999 234.36569"
   preserveAspectRatio="xMidYMid meet"
   id="svg8"
   sodipodi:docname="W29.svg"
   inkscape:version="0.92.4 (5da689c313, 2019-01-14)">
  <defs
     id="defs12" />
  <sodipodi:namedview
     pagecolor="#ffffff"
     bordercolor="#666666"
     borderopacity="1"
     objecttolerance="10"
     gridtolerance="10"
     guidetolerance="10"
     inkscape:pageopacity="0"
     inkscape:pageshadow="2"
     inkscape:window-width="1920"
     inkscape:window-height="1017"
     id="namedview10"
     showgrid="false"
     fit-margin-top="0"
     fit-margin-left="0"
     fit-margin-right="0"
     fit-margin-bottom="0"
     inkscape:zoom="0.5375"
     inkscape:cx="1.8914729"
     inkscape:cy="146.66667"
     inkscape:window-x="-8"
     inkscape:window-y="-8"
     inkscape:window-maximized="1"
     inkscape:current-layer="svg8" />
  <metadata
     id="metadata2">
Created by potrace 1.10, written by Peter Selinger 2001-2011
<rdf:RDF>
  <cc:Work
     rdf:about="">
    <dc:format>image/svg+xml</dc:format>
    <dc:type
       rdf:resource="http://purl.org/dc/dcmitype/StillImage" />
    <dc:title></dc:title>
  </cc:Work>
</rdf:RDF>
</metadata>
  <g
     transform="matrix(0.1,0,0,-0.1,-23,268.36569)"
     id="g6"
     style="fill:#000000;stroke:none">
    <path
       d="m 970,2682 c -79,-8 -178,-26 -204,-37 -17,-8 -38,-16 -46,-20 C 661,2601 560,2516 504,2444 443,2366 372,2214 337,2090 254,1798 230,1518 230,856 c 0,-450 1,-474 19,-490 10,-9 34,-19 54,-23 29,-4 40,-1 60,19 24,24 25,30 31,209 3,101 8,346 11,544 5,344 15,491 47,660 6,33 15,83 19,110 4,28 17,82 29,120 12,39 25,86 30,105 10,40 35,112 49,138 5,9 12,24 16,32 21,52 96,140 120,140 7,0 18,7 25,15 27,33 49,17 84,-57 83,-178 96,-209 96,-217 0,-5 6,-22 14,-38 8,-15 22,-47 30,-70 9,-24 22,-60 30,-80 8,-21 21,-57 30,-80 48,-128 52,-141 123,-403 8,-30 21,-75 29,-100 8,-25 14,-56 14,-68 0,-13 7,-51 15,-85 8,-34 21,-100 30,-147 20,-105 39,-202 59,-300 9,-41 16,-88 16,-105 0,-16 7,-55 15,-85 8,-30 15,-70 15,-88 0,-18 7,-62 16,-97 12,-49 21,-64 37,-69 30,-8 1311,-8 1332,0 26,10 46,61 55,143 10,87 24,180 46,296 8,44 14,95 14,113 0,18 6,58 14,90 8,31 22,93 31,137 9,44 23,103 31,131 8,28 14,61 14,74 0,13 6,46 14,74 8,28 19,71 26,96 17,70 26,97 65,205 20,55 40,114 45,130 13,46 53,160 75,210 7,17 20,50 30,75 10,25 24,60 31,78 8,17 20,47 28,65 7,17 21,52 31,77 30,76 56,130 63,130 4,0 23,-6 42,-13 116,-42 172,-116 255,-337 10,-25 23,-57 31,-72 8,-14 14,-37 14,-50 0,-12 6,-54 14,-93 27,-127 46,-249 46,-291 0,-22 7,-85 15,-140 12,-77 15,-204 15,-578 0,-467 0,-479 21,-512 18,-30 26,-34 64,-34 35,0 48,5 66,28 l 22,27 -7,510 c -6,522 -16,746 -36,870 -22,135 -41,230 -55,276 -8,26 -15,54 -15,63 0,8 -7,32 -16,53 -9,21 -22,52 -29,68 -14,33 -54,116 -71,147 -51,89 -189,211 -275,243 -121,45 -123,45 -1314,48 -621,1 -1141,1 -1155,-1 z m 2197,-178 c 5,-14 -2,-36 -44,-131 -7,-18 -20,-47 -27,-65 -8,-18 -21,-50 -30,-70 -23,-53 -44,-102 -60,-140 -8,-18 -21,-50 -30,-71 -9,-21 -16,-47 -16,-58 0,-11 -5,-30 -12,-42 -6,-12 -15,-38 -19,-57 -4,-19 -12,-50 -18,-67 -29,-85 -35,-107 -76,-248 -10,-33 -21,-78 -25,-100 -4,-22 -13,-62 -20,-90 -77,-315 -105,-451 -130,-645 -13,-100 -32,-205 -40,-220 -6,-13 -81,-15 -563,-18 -523,-2 -556,-1 -560,15 -3,10 -12,61 -21,113 -9,52 -23,132 -31,176 -8,45 -15,93 -15,108 0,14 -6,52 -14,84 -8,31 -22,93 -31,137 -9,44 -23,103 -31,131 -8,28 -14,61 -14,74 0,13 -7,48 -16,79 -39,139 -44,159 -44,176 0,18 -22,102 -42,160 -5,17 -14,46 -19,65 -21,90 -42,156 -50,164 -5,6 -9,16 -9,23 0,7 -14,43 -31,80 -35,80 -55,125 -76,173 -55,128 -74,170 -90,202 -14,28 -17,61 -6,71 3,4 501,7 1105,7 984,0 1099,-2 1105,-16 z"
       id="path4"
       inkscape:connector-curvature="0" />
  </g>
</svg>
