<?xml version="1.0" encoding="UTF-8" standalone="no"?>
<svg
   xmlns:dc="http://purl.org/dc/elements/1.1/"
   xmlns:cc="http://creativecommons.org/ns#"
   xmlns:rdf="http://www.w3.org/1999/02/22-rdf-syntax-ns#"
   xmlns:svg="http://www.w3.org/2000/svg"
   xmlns="http://www.w3.org/2000/svg"
   xmlns:sodipodi="http://sodipodi.sourceforge.net/DTD/sodipodi-0.dtd"
   xmlns:inkscape="http://www.inkscape.org/namespaces/inkscape"
   version="1.0"
   width="218.20145pt"
   height="201pt"
   viewBox="0 0 218.20145 201"
   preserveAspectRatio="xMidYMid meet"
   id="svg8"
   sodipodi:docname="W30.svg"
   inkscape:version="0.92.4 (5da689c313, 2019-01-14)">
  <defs
     id="defs12" />
  <sodipodi:namedview
     pagecolor="#ffffff"
     bordercolor="#666666"
     borderopacity="1"
     objecttolerance="10"
     gridtolerance="10"
     guidetolerance="10"
     inkscape:pageopacity="0"
     inkscape:pageshadow="2"
     inkscape:window-width="1920"
     inkscape:window-height="1017"
     id="namedview10"
     showgrid="false"
     fit-margin-top="0"
     fit-margin-left="0"
     fit-margin-right="0"
     fit-margin-bottom="0"
     inkscape:zoom="0.67045455"
     inkscape:cx="-53.039548"
     inkscape:cy="149.33333"
     inkscape:window-x="-8"
     inkscape:window-y="-8"
     inkscape:window-maximized="1"
     inkscape:current-layer="svg8" />
  <metadata
     id="metadata2">
Created by potrace 1.10, written by Peter Selinger 2001-2011
<rdf:RDF>
  <cc:Work
     rdf:about="">
    <dc:format>image/svg+xml</dc:format>
    <dc:type
       rdf:resource="http://purl.org/dc/dcmitype/StillImage" />
    <dc:title></dc:title>
  </cc:Work>
</rdf:RDF>
</metadata>
  <g
     transform="matrix(0.1,0,0,-0.1,-14,221)"
     id="g6"
     style="fill:#000000;stroke:none">
    <path
       d="m 680,2189 c -12,-22 -6,-68 15,-109 7,-14 20,-45 30,-70 9,-25 23,-58 31,-73 31,-62 21,-66 -96,-41 -149,31 -398,-7 -467,-71 -31,-29 -53,-87 -53,-140 0,-57 29,-105 133,-216 43,-45 80,-93 83,-105 6,-23 -5,-82 -25,-139 -25,-72 -34,-200 -22,-301 36,-292 164,-518 384,-680 l 59,-44 h 481 480 l 52,40 c 104,80 213,208 273,320 22,40 62,158 93,270 17,64 23,303 9,343 -6,18 -15,52 -20,77 -5,25 -12,57 -16,72 -9,40 14,81 95,168 73,79 124,167 123,211 -1,55 -55,125 -123,159 -21,11 -92,26 -177,37 -135,17 -145,17 -210,0 -103,-26 -167,-20 -127,13 8,7 15,17 15,24 0,10 44,108 76,168 18,34 18,73 -2,92 -14,14 -77,16 -549,16 -529,0 -534,0 -545,-21 z m 927,-115 c 3,-9 -8,-44 -25,-78 -64,-130 -57,-172 51,-274 164,-155 258,-255 279,-295 37,-69 79,-169 94,-222 24,-83 29,-241 10,-304 -9,-30 -16,-67 -16,-81 0,-42 -67,-187 -135,-290 -45,-69 -80,-109 -126,-145 l -64,-50 -443,-3 -443,-3 -64,47 c -67,49 -118,111 -165,199 -6,11 -19,34 -30,50 -30,46 -50,96 -60,145 -5,25 -14,59 -20,75 -16,40 -16,291 0,330 6,17 16,52 21,79 5,26 23,76 41,110 17,33 38,73 45,89 20,37 125,144 198,199 65,50 135,120 135,136 0,5 7,15 15,22 27,22 17,77 -30,172 -25,50 -42,94 -39,99 3,5 175,9 385,9 340,0 380,-2 386,-16 z M 637,1744 c 2,-6 -23,-37 -54,-70 -32,-32 -74,-80 -92,-106 -19,-27 -42,-48 -52,-48 -10,0 -35,21 -55,48 -21,26 -53,63 -71,82 -31,34 -32,37 -17,58 9,13 26,22 42,22 15,0 47,7 72,15 52,16 221,16 227,-1 z m 1489,-6 c 52,-28 50,-42 -18,-134 -67,-91 -86,-104 -106,-77 -25,35 -55,69 -120,135 -93,95 -88,101 81,96 99,-3 140,-8 163,-20 z"
       id="path4"
       inkscape:connector-curvature="0" />
  </g>
</svg>
