<?xml version="1.0" encoding="UTF-8" standalone="no"?>
<svg
   xmlns:dc="http://purl.org/dc/elements/1.1/"
   xmlns:cc="http://creativecommons.org/ns#"
   xmlns:rdf="http://www.w3.org/1999/02/22-rdf-syntax-ns#"
   xmlns:svg="http://www.w3.org/2000/svg"
   xmlns="http://www.w3.org/2000/svg"
   xmlns:sodipodi="http://sodipodi.sourceforge.net/DTD/sodipodi-0.dtd"
   xmlns:inkscape="http://www.inkscape.org/namespaces/inkscape"
   version="1.0"
   width="297.01273pt"
   height="192.00136pt"
   viewBox="0 0 297.01273 192.00136"
   preserveAspectRatio="xMidYMid meet"
   id="svg8"
   sodipodi:docname="W31.svg"
   inkscape:version="0.92.4 (5da689c313, 2019-01-14)">
  <defs
     id="defs12" />
  <sodipodi:namedview
     pagecolor="#ffffff"
     bordercolor="#666666"
     borderopacity="1"
     objecttolerance="10"
     gridtolerance="10"
     guidetolerance="10"
     inkscape:pageopacity="0"
     inkscape:pageshadow="2"
     inkscape:window-width="1920"
     inkscape:window-height="1017"
     id="namedview10"
     showgrid="false"
     fit-margin-top="0"
     fit-margin-left="0"
     fit-margin-right="0"
     fit-margin-bottom="0"
     inkscape:zoom="0.69675926"
     inkscape:cx="10.449612"
     inkscape:cy="134.00182"
     inkscape:window-x="-8"
     inkscape:window-y="-8"
     inkscape:window-maximized="1"
     inkscape:current-layer="svg8" />
  <metadata
     id="metadata2">
Created by potrace 1.10, written by Peter Selinger 2001-2011
<rdf:RDF>
  <cc:Work
     rdf:about="">
    <dc:format>image/svg+xml</dc:format>
    <dc:type
       rdf:resource="http://purl.org/dc/dcmitype/StillImage" />
    <dc:title></dc:title>
  </cc:Work>
</rdf:RDF>
</metadata>
  <g
     transform="matrix(0.1,0,0,-0.1,-11,204)"
     id="g6"
     style="fill:#000000;stroke:none">
    <path
       d="m 260,2027 c -21,-10 -25,-21 -28,-62 -3,-50 -2,-51 50,-95 29,-25 72,-61 96,-79 84,-65 104,-156 62,-276 -12,-33 -24,-69 -27,-80 -4,-11 -18,-40 -33,-65 -14,-25 -36,-66 -48,-91 -31,-64 -48,-76 -120,-82 -82,-7 -102,-24 -102,-87 0,-55 7,-63 75,-83 l 50,-14 -3,-104 c -3,-73 1,-122 12,-165 9,-34 16,-73 16,-88 0,-14 6,-40 14,-58 8,-18 22,-53 31,-78 36,-94 60,-138 123,-222 41,-56 120,-128 139,-128 5,0 14,-5 21,-12 16,-16 97,-37 146,-38 95,-1 191,53 289,162 63,70 91,114 122,198 27,73 40,95 55,95 8,0 17,-13 20,-30 4,-16 11,-39 17,-50 5,-11 19,-38 29,-60 29,-60 81,-135 127,-183 137,-141 298,-169 445,-75 53,33 143,121 165,161 68,119 95,187 127,307 8,28 16,122 19,210 l 6,160 200,-1 h 200 l 67,-33 c 96,-46 154,-117 201,-246 19,-53 39,-132 44,-175 2,-19 10,-71 18,-115 43,-248 40,-241 89,-251 39,-7 69,0 91,22 20,20 20,107 1,199 -20,97 -38,191 -47,250 -11,74 -46,185 -82,264 -26,57 -127,155 -192,187 -27,14 -57,29 -65,33 -56,31 -125,40 -343,47 l -229,7 -22,36 c -38,63 -44,74 -96,180 -51,102 -51,105 -47,180 6,122 40,184 146,265 32,25 66,57 75,71 16,25 16,27 -4,59 -11,19 -30,36 -43,40 -12,3 -429,6 -927,6 -708,0 -910,-3 -930,-13 z m 680,-154 c 0,-3 -12,-22 -26,-41 -53,-69 -70,-206 -39,-308 8,-27 15,-61 15,-76 0,-28 64,-173 81,-183 5,-4 9,-19 9,-36 v -29 H 731 c -138,0 -252,4 -255,8 -3,5 1,20 9,35 25,48 50,92 61,107 17,24 41,99 55,172 21,111 -15,305 -62,334 -5,3 -7,10 -4,15 7,10 405,13 405,2 z m 280,-8 c 7,-8 18,-15 24,-15 18,0 71,-52 101,-101 26,-39 28,-52 28,-139 v -95 l -66,-135 c -115,-232 -117,-232 -207,-35 -17,39 -38,84 -45,100 -50,110 -58,200 -23,267 24,47 27,51 96,121 48,49 71,57 92,32 z m 635,-12 c -3,-16 -13,-35 -21,-44 -8,-8 -14,-21 -14,-28 0,-6 -7,-26 -16,-43 -22,-42 -20,-200 2,-272 17,-52 40,-110 55,-136 33,-60 50,-103 45,-115 -4,-13 -44,-15 -256,-15 h -250 v 24 c 0,14 4,27 9,30 12,8 95,178 115,236 18,53 21,168 5,219 -20,63 -42,116 -56,132 -30,37 -19,39 188,39 h 201 z m -795,-847 c 26,-32 1,-335 -34,-421 -39,-93 -72,-151 -108,-190 -16,-17 -28,-32 -28,-36 0,-3 -21,-16 -46,-30 -25,-13 -55,-30 -67,-37 -58,-34 -186,26 -243,115 -66,102 -112,237 -134,390 -13,85 -7,188 12,211 16,19 631,17 648,-2 z m 918,2 c 18,-24 24,-188 7,-248 -8,-30 -15,-67 -15,-82 0,-15 -7,-44 -16,-65 -9,-21 -23,-51 -30,-68 -40,-94 -59,-125 -102,-171 -46,-49 -127,-94 -170,-94 -11,0 -42,12 -70,28 -73,40 -141,128 -199,262 -8,19 -22,49 -31,65 -13,24 -16,64 -17,190 0,88 3,168 7,178 7,16 31,17 316,17 236,0 312,-3 320,-12 z"
       id="path4"
       inkscape:connector-curvature="0" />
  </g>
</svg>
