<?xml version="1.0" encoding="UTF-8" standalone="no"?>
<svg
   xmlns:dc="http://purl.org/dc/elements/1.1/"
   xmlns:cc="http://creativecommons.org/ns#"
   xmlns:rdf="http://www.w3.org/1999/02/22-rdf-syntax-ns#"
   xmlns:svg="http://www.w3.org/2000/svg"
   xmlns="http://www.w3.org/2000/svg"
   xmlns:sodipodi="http://sodipodi.sourceforge.net/DTD/sodipodi-0.dtd"
   xmlns:inkscape="http://www.inkscape.org/namespaces/inkscape"
   version="1.0"
   width="72.242882pt"
   height="50.619835pt"
   viewBox="0 0 72.242882 50.619835"
   preserveAspectRatio="xMidYMid meet"
   id="svg8"
   sodipodi:docname="W32.svg"
   inkscape:version="0.92.4 (5da689c313, 2019-01-14)">
  <defs
     id="defs12" />
  <sodipodi:namedview
     pagecolor="#ffffff"
     bordercolor="#666666"
     borderopacity="1"
     objecttolerance="10"
     gridtolerance="10"
     guidetolerance="10"
     inkscape:pageopacity="0"
     inkscape:pageshadow="2"
     inkscape:window-width="1920"
     inkscape:window-height="1017"
     id="namedview10"
     showgrid="false"
     fit-margin-top="0"
     fit-margin-left="0"
     fit-margin-right="0"
     fit-margin-bottom="0"
     inkscape:zoom="2.7198795"
     inkscape:cx="1.6885978"
     inkscape:cy="33.018511"
     inkscape:window-x="-8"
     inkscape:window-y="-8"
     inkscape:window-maximized="1"
     inkscape:current-layer="svg8" />
  <metadata
     id="metadata2">
Created by potrace 1.10, written by Peter Selinger 2001-2011
<rdf:RDF>
  <cc:Work
     rdf:about="">
    <dc:format>image/svg+xml</dc:format>
    <dc:type
       rdf:resource="http://purl.org/dc/dcmitype/StillImage" />
    <dc:title></dc:title>
  </cc:Work>
</rdf:RDF>
</metadata>
  <g
     transform="matrix(0.1,0,0,-0.1,-3.5591331,55.855951)"
     id="g6"
     style="fill:#000000;stroke:none">
    <path
       d="M 385,552 C 379,548 366,532 357,517 326,468 228,414 133,391 86,380 43,367 38,362 33,357 36,334 45,310 99,158 212,66 363,54 c 181,-16 327,86 387,269 6,21 10,41 7,43 -3,3 -44,14 -90,24 -124,27 -171,55 -232,135 -29,37 -34,39 -50,27 z M 535,389 c 33,-16 85,-34 116,-41 l 57,-12 -15,-43 C 685,270 658,228 634,201 477,26 202,70 100,287 c -11,24 -20,44 -20,47 0,2 20,6 44,9 79,11 151,45 212,101 l 59,54 40,-40 c 22,-23 67,-54 100,-69 z"
       id="path4"
       inkscape:connector-curvature="0" />
  </g>
</svg>
