<?xml version="1.0" encoding="UTF-8" standalone="no"?>
<svg
   xmlns:dc="http://purl.org/dc/elements/1.1/"
   xmlns:cc="http://creativecommons.org/ns#"
   xmlns:rdf="http://www.w3.org/1999/02/22-rdf-syntax-ns#"
   xmlns:svg="http://www.w3.org/2000/svg"
   xmlns="http://www.w3.org/2000/svg"
   xmlns:sodipodi="http://sodipodi.sourceforge.net/DTD/sodipodi-0.dtd"
   xmlns:inkscape="http://www.inkscape.org/namespaces/inkscape"
   version="1.0"
   width="378.52533pt"
   height="379.87598pt"
   viewBox="0 0 378.52533 379.87598"
   preserveAspectRatio="xMidYMid meet"
   id="svg8"
   sodipodi:docname="W33.svg"
   inkscape:version="0.92.4 (5da689c313, 2019-01-14)">
  <defs
     id="defs12" />
  <sodipodi:namedview
     pagecolor="#ffffff"
     bordercolor="#666666"
     borderopacity="1"
     objecttolerance="10"
     gridtolerance="10"
     guidetolerance="10"
     inkscape:pageopacity="0"
     inkscape:pageshadow="2"
     inkscape:window-width="1920"
     inkscape:window-height="1017"
     id="namedview10"
     showgrid="false"
     fit-margin-top="0"
     fit-margin-left="0"
     fit-margin-right="0"
     fit-margin-bottom="0"
     inkscape:zoom="0.40689655"
     inkscape:cx="-64.075291"
     inkscape:cy="266"
     inkscape:window-x="-8"
     inkscape:window-y="-8"
     inkscape:window-maximized="1"
     inkscape:current-layer="svg8" />
  <metadata
     id="metadata2">
Created by potrace 1.10, written by Peter Selinger 2001-2011
<rdf:RDF>
  <cc:Work
     rdf:about="">
    <dc:format>image/svg+xml</dc:format>
    <dc:type
       rdf:resource="http://purl.org/dc/dcmitype/StillImage" />
    <dc:title></dc:title>
  </cc:Work>
</rdf:RDF>
</metadata>
  <g
     transform="matrix(0.1,0,0,-0.1,-14.408163,397.87599)"
     id="g6"
     style="fill:#000000;stroke:none">
    <path
       d="m 3220,3964 c -73,-25 -122,-47 -165,-75 -22,-15 -58,-37 -80,-49 -22,-12 -53,-30 -70,-40 -16,-10 -50,-29 -75,-41 -25,-12 -52,-27 -60,-34 -8,-7 -36,-18 -61,-24 -65,-18 -139,5 -210,66 -69,59 -123,93 -148,93 -11,0 -31,-15 -45,-33 -24,-32 -26,-41 -26,-148 0,-63 -4,-120 -9,-128 -6,-9 -36,-15 -92,-18 -97,-5 -126,-20 -210,-106 -51,-53 -73,-95 -89,-172 -17,-77 -35,-105 -105,-155 -37,-28 -71,-50 -75,-50 -10,0 -60,-79 -60,-95 0,-8 -4,-17 -10,-20 -13,-8 -13,-128 1,-215 12,-77 10,-82 -63,-191 -81,-121 -82,-125 -81,-229 1,-59 8,-112 17,-139 33,-92 20,-164 -46,-252 -16,-20 -28,-39 -28,-42 0,-3 -14,-27 -32,-53 -47,-70 -45,-136 11,-369 9,-39 -10,-131 -37,-175 -12,-19 -25,-42 -28,-50 -4,-8 -16,-25 -27,-37 l -20,-23 H 743 190 l -26,-39 c -24,-37 -25,-41 -10,-69 9,-17 22,-34 28,-39 7,-4 84,-10 171,-13 l 157,-5 25,-30 c 13,-16 24,-35 25,-41 0,-5 5,-15 12,-22 14,-14 33,-79 52,-183 12,-64 12,-87 1,-139 -7,-34 -18,-67 -24,-73 -6,-6 -11,-18 -11,-26 0,-17 -57,-111 -79,-129 -10,-8 -56,-12 -148,-12 -100,0 -141,-4 -163,-15 -54,-28 -65,-80 -25,-120 l 24,-25 h 1839 1839 l 27,25 c 27,25 32,48 17,87 -13,36 -70,48 -219,48 h -131 l -14,28 c -7,15 -29,56 -47,90 -42,83 -57,181 -42,289 12,90 33,142 89,218 l 21,30 157,5 c 152,5 157,6 177,30 23,29 19,81 -8,111 -16,18 -59,19 -1203,21 l -1186,3 3,25 c 1,13 16,52 32,87 17,35 30,75 30,91 0,27 -17,119 -46,239 -24,102 -25,97 84,259 44,66 52,86 54,129 4,104 -4,200 -18,216 -9,10 -14,39 -14,82 0,57 4,74 32,119 17,29 44,66 60,82 15,17 28,36 28,43 0,8 7,25 17,39 14,22 15,46 10,167 -3,78 -2,150 1,159 4,9 30,34 57,55 121,92 172,156 185,236 21,134 77,190 184,185 l 61,-3 6,-120 c 6,-139 16,-170 55,-178 38,-7 60,3 124,59 103,89 121,97 197,92 73,-5 117,-23 288,-118 90,-50 148,-79 215,-108 19,-8 47,-21 63,-29 30,-16 203,-20 272,-8 60,12 210,79 258,117 54,43 97,92 121,137 10,20 26,50 35,66 25,46 22,307 -4,367 -40,91 -146,208 -220,242 -47,22 -72,31 -199,71 -63,19 -206,18 -266,-1 z m 361,-195 c 77,-40 132,-96 165,-168 33,-73 34,-196 3,-267 -24,-53 -128,-164 -154,-164 -9,0 -29,-6 -43,-14 -77,-39 -105,-46 -193,-46 -83,0 -96,3 -157,34 -37,18 -83,43 -102,54 -19,12 -57,33 -85,47 -27,14 -66,35 -85,47 -79,46 -125,66 -236,102 -49,16 -54,16 -110,-3 -33,-11 -72,-27 -89,-35 -54,-28 -55,-27 -55,109 0,114 2,125 18,125 10,0 23,-5 30,-12 40,-40 165,-54 252,-28 64,19 273,122 350,172 56,37 100,60 160,82 8,3 72,4 141,2 119,-4 129,-6 190,-37 z M 3377,984 c 5,-15 -4,-42 -40,-109 -54,-104 -46,-352 15,-458 15,-26 28,-54 28,-62 0,-13 -173,-15 -1334,-15 -734,0 -1337,4 -1340,8 -3,5 9,35 26,68 18,32 35,84 40,114 28,205 23,248 -48,393 -15,31 -18,60 -7,70 3,4 602,7 1330,7 1214,0 1324,-1 1330,-16 z"
       id="path4"
       inkscape:connector-curvature="0" />
  </g>
</svg>
