<?xml version="1.0" encoding="UTF-8" standalone="no"?>
<svg
   xmlns:dc="http://purl.org/dc/elements/1.1/"
   xmlns:cc="http://creativecommons.org/ns#"
   xmlns:rdf="http://www.w3.org/1999/02/22-rdf-syntax-ns#"
   xmlns:svg="http://www.w3.org/2000/svg"
   xmlns="http://www.w3.org/2000/svg"
   xmlns:sodipodi="http://sodipodi.sourceforge.net/DTD/sodipodi-0.dtd"
   xmlns:inkscape="http://www.inkscape.org/namespaces/inkscape"
   version="1.0"
   width="144.85063pt"
   height="209.95625pt"
   viewBox="0 0 144.85063 209.95625"
   preserveAspectRatio="xMidYMid meet"
   id="svg8"
   sodipodi:docname="W34.svg"
   inkscape:version="0.92.4 (5da689c313, 2019-01-14)">
  <defs
     id="defs12" />
  <sodipodi:namedview
     pagecolor="#ffffff"
     bordercolor="#666666"
     borderopacity="1"
     objecttolerance="10"
     gridtolerance="10"
     guidetolerance="10"
     inkscape:pageopacity="0"
     inkscape:pageshadow="2"
     inkscape:window-width="1920"
     inkscape:window-height="1017"
     id="namedview10"
     showgrid="false"
     fit-margin-top="0"
     fit-margin-left="0"
     fit-margin-right="0"
     fit-margin-bottom="0"
     inkscape:zoom="0.70238095"
     inkscape:cx="-90.221765"
     inkscape:cy="149.275"
     inkscape:window-x="-8"
     inkscape:window-y="-8"
     inkscape:window-maximized="1"
     inkscape:current-layer="svg8" />
  <metadata
     id="metadata2">
Created by potrace 1.10, written by Peter Selinger 2001-2011
<rdf:RDF>
  <cc:Work
     rdf:about="">
    <dc:format>image/svg+xml</dc:format>
    <dc:type
       rdf:resource="http://purl.org/dc/dcmitype/StillImage" />
    <dc:title></dc:title>
  </cc:Work>
</rdf:RDF>
</metadata>
  <g
     transform="matrix(0.1,0,0,-0.1,-17.149375,224)"
     id="g6"
     style="fill:#000000;stroke:none">
    <path
       d="m 518,2230 c -24,-15 -33,-66 -15,-94 8,-12 44,-37 79,-54 106,-54 125,-77 105,-133 -21,-58 -38,-82 -98,-142 -62,-60 -150,-181 -194,-266 l -27,-51 h -68 c -52,0 -73,-4 -93,-20 -38,-30 -43,-57 -16,-86 18,-19 33,-24 73,-24 28,0 57,-4 64,-9 11,-6 14,-45 15,-157 l 2,-149 -65,-3 c -50,-2 -70,-8 -87,-24 -29,-28 -29,-41 2,-73 22,-21 35,-25 84,-25 80,0 92,-11 98,-96 2,-38 11,-89 18,-114 62,-205 77,-246 131,-358 49,-101 103,-164 162,-190 26,-11 79,-17 177,-20 122,-4 149,-1 211,17 39,12 86,35 105,50 28,24 73,99 103,171 3,8 15,30 27,49 38,63 76,187 90,296 5,39 15,97 23,130 l 12,60 83,5 c 83,5 100,14 101,51 0,9 -9,28 -21,43 -17,22 -28,26 -72,26 -29,0 -57,4 -63,8 -7,5 -9,51 -5,150 7,161 7,161 81,162 59,0 74,11 74,54 0,53 -33,75 -115,76 -65,0 -65,0 -82,35 -9,20 -17,41 -17,48 0,15 -141,191 -213,267 -55,58 -87,111 -87,145 0,29 43,67 113,99 96,45 119,84 78,134 l -19,22 H 903 c -220,0 -375,-5 -385,-10 z m 487,-120 c 4,-6 0,-22 -9,-35 -22,-33 -23,-177 -1,-195 8,-7 15,-18 15,-26 0,-7 46,-61 103,-119 56,-59 104,-111 105,-117 2,-5 19,-32 38,-59 19,-28 31,-55 28,-60 -8,-14 -774,-12 -774,3 0,16 74,113 136,178 79,83 113,129 145,197 35,75 37,124 7,181 -20,37 -21,44 -8,52 21,13 207,13 215,0 z m 323,-762 c 25,-25 9,-281 -19,-299 -8,-5 -192,-9 -410,-9 -336,0 -398,2 -409,15 -14,16 -27,237 -16,279 l 6,26 h 418 c 312,0 421,-3 430,-12 z m -49,-437 c 19,-11 17,-37 -15,-178 -8,-34 -14,-73 -14,-87 0,-14 -6,-40 -14,-58 -8,-18 -21,-52 -30,-75 -38,-100 -52,-131 -85,-175 -48,-65 -85,-78 -222,-78 -127,0 -167,14 -216,77 -60,78 -153,310 -153,382 0,14 -7,58 -16,97 -10,39 -14,79 -11,88 6,14 45,16 382,16 218,0 384,-4 394,-9 z"
       id="path4"
       inkscape:connector-curvature="0" />
  </g>
</svg>
