<?xml version="1.0" encoding="UTF-8" standalone="no"?>
<!-- Created with Inkscape (http://www.inkscape.org/) -->

<svg
   xmlns:dc="http://purl.org/dc/elements/1.1/"
   xmlns:cc="http://creativecommons.org/ns#"
   xmlns:rdf="http://www.w3.org/1999/02/22-rdf-syntax-ns#"
   xmlns:svg="http://www.w3.org/2000/svg"
   xmlns="http://www.w3.org/2000/svg"
   xmlns:sodipodi="http://sodipodi.sourceforge.net/DTD/sodipodi-0.dtd"
   xmlns:inkscape="http://www.inkscape.org/namespaces/inkscape"
   width="38.050392mm"
   height="38.000782mm"
   viewBox="0 0 38.050392 38.000782"
   version="1.1"
   id="svg13459"
   inkscape:version="0.92.4 (5da689c313, 2019-01-14)"
   sodipodi:docname="W4.svg">
  <defs
     id="defs13453" />
  <sodipodi:namedview
     id="base"
     pagecolor="#ffffff"
     bordercolor="#666666"
     borderopacity="1.0"
     inkscape:pageopacity="0.0"
     inkscape:pageshadow="2"
     inkscape:zoom="0.35"
     inkscape:cx="-328.97321"
     inkscape:cy="-361.54466"
     inkscape:document-units="mm"
     inkscape:current-layer="layer1"
     showgrid="false"
     fit-margin-top="0"
     fit-margin-left="0"
     fit-margin-right="0"
     fit-margin-bottom="0"
     inkscape:window-width="1920"
     inkscape:window-height="1017"
     inkscape:window-x="-8"
     inkscape:window-y="-8"
     inkscape:window-maximized="1" />
  <metadata
     id="metadata13456">
    <rdf:RDF>
      <cc:Work
         rdf:about="">
        <dc:format>image/svg+xml</dc:format>
        <dc:type
           rdf:resource="http://purl.org/dc/dcmitype/StillImage" />
        <dc:title></dc:title>
      </cc:Work>
    </rdf:RDF>
  </metadata>
  <g
     inkscape:label="Layer 1"
     inkscape:groupmode="layer"
     id="layer1"
     transform="translate(0.27167048,-15.173862)">
    <g
       aria-label="𓎳"
       style="font-style:normal;font-variant:normal;font-weight:normal;font-stretch:normal;font-size:50.79999924px;line-height:1.25;font-family:sans-serif;-inkscape-font-specification:'sans-serif, Normal';font-variant-ligatures:normal;font-variant-caps:normal;font-variant-numeric:normal;font-feature-settings:normal;text-align:start;letter-spacing:0px;word-spacing:0px;writing-mode:lr-tb;text-anchor:start;fill:#000000;fill-opacity:1;stroke:none;stroke-width:0.26458332"
       id="text14006">
      <path
         d="m 37.605087,19.71312 0.173633,0.322461 v 23.589257 q -3.571875,5.084961 -8.235157,7.366992 -2.33164,1.141016 -5.060156,1.661915 -2.703711,0.520898 -6.077148,0.520898 -6.374805,0 -11.1621093,-2.455664 -4.7624999,-2.455664 -7.51582018,-7.168555 V 20.109995 l 0.24804687,-0.446484 Q 2.4320404,18.348862 5.557431,17.530308 q 1.5875,-0.42168 3.2742187,-0.79375 1.6867183,-0.396875 3.4726563,-0.79375 3.522265,-0.768946 6.424414,-0.768946 2.80293,0 6.201172,0.719336 1.686718,0.347266 3.348632,0.744141 1.661914,0.396875 3.373438,0.818554 1.711523,0.42168 3.175,0.992188 1.488281,0.570508 2.778125,1.265039 z M 20.341025,40.573862 q 0,0.520898 -0.09922,1.289844 -0.07441,0.768945 -0.396875,1.364257 H 35.174227 V 21.7223 Q 33.313876,20.680503 31.031845,19.985972 28.774618,19.29144 26.070907,18.844956 l -3.150195,-0.496094 q -0.148828,0.124024 -0.297656,0.223242 -0.148828,0.09922 -0.322461,0.198438 l -0.644922,0.396875 q -0.07441,0.173633 -0.272852,0.620117 -0.173632,0.446484 -0.446484,1.21543 -0.545703,1.513086 -1.513086,2.033984 0.297656,0.768945 0.471289,1.761133 0.173633,0.967383 0.223242,2.530078 l 0.04961,1.364258 q 0.09922,2.108398 0.124023,4.291211 0.04961,2.158007 0.04961,4.638476 z M 2.3328217,43.227963 H 17.637314 q -0.173633,-0.297656 -0.272852,-0.669726 -0.09922,-0.37207 -0.148828,-0.744141 -0.02481,-0.37207 -0.04961,-0.719336 0,-0.37207 0,-0.669726 v -3.026172 q 0,-2.257227 0.0248,-4.415234 0.02481,-2.182813 0.148828,-4.440039 l 0.173633,-2.80293 q 0.07441,-1.463477 0.545703,-2.75332 -0.74414,-0.471289 -1.265039,-1.413867 -0.520898,-0.942579 -0.967383,-2.43086 -0.272851,-0.248047 -0.570507,-0.421679 l -0.644922,-0.372071 -3.125391,0.496094 Q 8.5587981,19.316245 6.3015716,20.010776 4.0691498,20.680503 2.3328217,21.7223 Z m 17.2392573,9.177735 q 6.201172,-0.322461 10.045899,-2.306836 3.844726,-1.959571 6.920507,-6.077149 h -17.04082 l 2.778125,4.167188 v 0.496094 z M 14.983212,48.23851 17.984579,44.021713 H 0.9189545 q 2.9269531,3.993555 6.7716796,6.027539 3.8695309,2.033985 10.2195309,2.356446 l -2.926953,-3.770313 z m 8.011914,-30.658593 3.299023,0.545703 q 2.778125,0.446484 5.159375,1.190625 2.38125,0.744141 4.340821,1.860352 l 0.173632,0.32246 V 43.227963 H 36.98497 V 20.283628 q -2.282032,-1.265039 -5.457032,-2.058789 -1.5875,-0.42168 -3.249414,-0.79375 -1.637109,-0.396875 -3.348632,-0.744141 -3.472657,-0.719336 -6.201172,-0.719336 -2.703711,0 -6.077148,0.719336 -1.661915,0.347266 -3.2990239,0.744141 -1.6371093,0.37207 -3.2742187,0.79375 -1.6371093,0.396875 -3.0261718,0.917773 -1.3642578,0.496094 -2.53007809,1.116211 v 22.96914 H 1.5390717 V 21.573472 l 0.2480469,-0.446485 q 1.1162109,-0.644922 2.2324218,-1.116211 1.1162109,-0.496093 2.2324218,-0.768945 1.116211,-0.297656 2.5052734,-0.595313 1.3890624,-0.32246 3.1005864,-0.644921 l 2.306835,-0.42168 q 0.669727,-0.124024 1.21543,-0.223242 0.570508,-0.09922 1.091406,-0.173633 0.520899,-0.07441 1.016993,-0.09922 0.496093,-0.04961 1.066601,-0.04961 0.818555,0 1.513086,0.07441 0.694531,0.07441 1.041797,0.124023 z m -5.035351,22.919531 q 0,0.446484 0.04961,0.917773 0.04961,0.446485 0.124023,0.84336 0.09922,0.37207 0.248047,0.644921 0.148828,0.248047 0.347266,0.322461 0.272851,-0.04961 0.570508,-0.892968 0.322461,-0.84336 0.322461,-2.406055 0,-0.644922 -0.04961,-1.265039 -0.0248,-0.620117 -0.0248,-1.116211 0,-2.703711 -0.04961,-4.985742 -0.02481,-2.282031 -0.124023,-4.191992 -0.148828,-3.844727 -0.620117,-4.960938 -0.173633,0.545704 -0.272852,1.165821 -0.09922,0.520898 -0.173633,1.16582 -0.07441,0.620117 -0.07441,1.265039 -0.173633,2.629297 -0.223242,5.233789 -0.04961,2.604492 -0.04961,5.233789 z m 3.522265,7.9375 -2.75332,-4.092774 -2.902149,4.092774 2.926954,3.745507 z M 15.801767,18.100815 q 0.768945,0.471289 0.843359,0.868164 0.07441,0.347266 0.595313,1.736328 0.545703,1.364258 1.463476,1.736329 h 0.04961 q 0.570507,-0.148829 0.992187,-0.744141 0.42168,-0.595313 0.719336,-1.488281 l 0.272852,-0.84336 q 0.04961,-0.124023 0.09922,-0.272851 0.04961,-0.148828 0.09922,-0.297656 0.09922,-0.272852 0.843359,-0.694532 -0.496093,-0.07441 -0.992187,-0.124023 -0.471289,-0.07441 -0.892969,-0.09922 -0.42168,-0.02481 -0.74414,-0.02481 -0.322461,-0.0248 -0.47129,-0.0248 -0.421679,0 -0.942578,0.04961 -0.496093,0.04961 -0.917773,0.09922 -0.520898,0.07441 -1.016992,0.124023 z"
         style="stroke-width:0.26458332"
         id="path14008"
         inkscape:connector-curvature="0" />
    </g>
  </g>
</svg>
