<?xml version="1.0" encoding="UTF-8" standalone="no"?>
<!-- Created with Inkscape (http://www.inkscape.org/) -->

<svg
   xmlns:dc="http://purl.org/dc/elements/1.1/"
   xmlns:cc="http://creativecommons.org/ns#"
   xmlns:rdf="http://www.w3.org/1999/02/22-rdf-syntax-ns#"
   xmlns:svg="http://www.w3.org/2000/svg"
   xmlns="http://www.w3.org/2000/svg"
   xmlns:sodipodi="http://sodipodi.sourceforge.net/DTD/sodipodi-0.dtd"
   xmlns:inkscape="http://www.inkscape.org/namespaces/inkscape"
   width="37.975975mm"
   height="31.427538mm"
   viewBox="0 0 37.975975 31.427538"
   version="1.1"
   id="svg14017"
   inkscape:version="0.92.4 (5da689c313, 2019-01-14)"
   sodipodi:docname="W5.svg">
  <defs
     id="defs14011" />
  <sodipodi:namedview
     id="base"
     pagecolor="#ffffff"
     bordercolor="#666666"
     borderopacity="1.0"
     inkscape:pageopacity="0.0"
     inkscape:pageshadow="2"
     inkscape:zoom="0.35"
     inkscape:cx="-346.11607"
     inkscape:cy="-364.21428"
     inkscape:document-units="mm"
     inkscape:current-layer="layer1"
     showgrid="false"
     fit-margin-top="0"
     fit-margin-left="0"
     fit-margin-right="0"
     fit-margin-bottom="0"
     inkscape:window-width="1920"
     inkscape:window-height="1017"
     inkscape:window-x="-8"
     inkscape:window-y="-8"
     inkscape:window-maximized="1" />
  <metadata
     id="metadata14014">
    <rdf:RDF>
      <cc:Work
         rdf:about="">
        <dc:format>image/svg+xml</dc:format>
        <dc:type
           rdf:resource="http://purl.org/dc/dcmitype/StillImage" />
        <dc:title></dc:title>
      </cc:Work>
    </rdf:RDF>
  </metadata>
  <g
     inkscape:label="Layer 1"
     inkscape:groupmode="layer"
     id="layer1"
     transform="translate(-4.2640436,-21.040767)">
    <g
       aria-label="𓎴"
       style="font-style:normal;font-variant:normal;font-weight:normal;font-stretch:normal;font-size:50.79999924px;line-height:1.25;font-family:sans-serif;-inkscape-font-specification:'sans-serif, Normal';font-variant-ligatures:normal;font-variant-caps:normal;font-variant-numeric:normal;font-feature-settings:normal;text-align:start;letter-spacing:0px;word-spacing:0px;writing-mode:lr-tb;text-anchor:start;fill:#000000;fill-opacity:1;stroke:none;stroke-width:0.26458332"
       id="text14564">
      <path
         d="m 18.105059,21.040767 h 10.26914 l 4.067969,18.20664 h 9.400977 l 0.396875,0.520898 q -2.43086,4.613672 -4.985743,7.044532 -2.554882,2.455664 -5.556249,3.819921 -3.050977,1.364258 -8.160743,1.835547 H 23.413262 Q 20.80877,52.220258 18.675567,51.748969 16.567168,51.27768 14.855645,50.583149 11.482208,49.169282 9.0265435,46.788032 6.5956841,44.357173 4.2640436,39.842719 L 4.5865045,39.247407 H 14.012286 Z M 5.256231,40.041157 q 0.9177735,1.785937 1.984375,3.299023 1.0914062,1.513086 2.3564453,2.778125 2.6044917,2.530078 5.3082027,3.695899 2.753321,1.190625 7.615039,1.785937 l -4.564062,-5.432226 v -0.595313 l 4.638476,-5.531445 z m 35.966796,0 H 24.256621 l 4.316016,5.581055 v 0.496093 l -4.266406,5.481836 q 4.588867,-0.520898 7.317382,-1.810742 2.753321,-1.289844 5.159375,-3.59668 2.43086,-2.33164 4.440039,-6.151562 z m -14.60996,-0.79375 -2.877344,-11.85664 2.257226,-5.159375 h -5.531445 l 2.257227,5.159375 -2.852539,11.85664 z m 1.141015,6.622851 -4.34082,-5.581054 -4.663281,5.581054 4.688086,5.581055 z m 0.04961,-6.622851 h 3.373437 L 27.233184,22.231392 h -0.02481 l -2.282031,5.159375 z M 21.55291,27.390767 19.270879,22.256196 15.25252,39.247407 h 3.447851 z"
         style="stroke-width:0.26458332"
         id="path14566"
         inkscape:connector-curvature="0" />
    </g>
  </g>
</svg>
