<?xml version="1.0" encoding="UTF-8" standalone="no"?>
<!-- Created with Inkscape (http://www.inkscape.org/) -->

<svg
   xmlns:dc="http://purl.org/dc/elements/1.1/"
   xmlns:cc="http://creativecommons.org/ns#"
   xmlns:rdf="http://www.w3.org/1999/02/22-rdf-syntax-ns#"
   xmlns:svg="http://www.w3.org/2000/svg"
   xmlns="http://www.w3.org/2000/svg"
   xmlns:sodipodi="http://sodipodi.sourceforge.net/DTD/sodipodi-0.dtd"
   xmlns:inkscape="http://www.inkscape.org/namespaces/inkscape"
   width="23.961329mm"
   height="15.205274mm"
   viewBox="0 0 23.961329 15.205274"
   version="1.1"
   id="svg14575"
   inkscape:version="0.92.4 (5da689c313, 2019-01-14)"
   sodipodi:docname="W6.svg">
  <defs
     id="defs14569" />
  <sodipodi:namedview
     id="base"
     pagecolor="#ffffff"
     bordercolor="#666666"
     borderopacity="1.0"
     inkscape:pageopacity="0.0"
     inkscape:pageshadow="2"
     inkscape:zoom="0.35"
     inkscape:cx="-334.6875"
     inkscape:cy="-389.92857"
     inkscape:document-units="mm"
     inkscape:current-layer="layer1"
     showgrid="false"
     fit-margin-top="0"
     fit-margin-left="0"
     fit-margin-right="0"
     fit-margin-bottom="0"
     inkscape:window-width="1920"
     inkscape:window-height="1017"
     inkscape:window-x="-8"
     inkscape:window-y="-8"
     inkscape:window-maximized="1" />
  <metadata
     id="metadata14572">
    <rdf:RDF>
      <cc:Work
         rdf:about="">
        <dc:format>image/svg+xml</dc:format>
        <dc:type
           rdf:resource="http://purl.org/dc/dcmitype/StillImage" />
        <dc:title></dc:title>
      </cc:Work>
    </rdf:RDF>
  </metadata>
  <g
     inkscape:label="Layer 1"
     inkscape:groupmode="layer"
     id="layer1"
     transform="translate(-1.2402344,-30.459458)">
    <g
       aria-label="𓎵"
       style="font-style:normal;font-variant:normal;font-weight:normal;font-stretch:normal;font-size:50.79999924px;line-height:1.25;font-family:sans-serif;-inkscape-font-specification:'sans-serif, Normal';font-variant-ligatures:normal;font-variant-caps:normal;font-variant-numeric:normal;font-feature-settings:normal;text-align:start;letter-spacing:0px;word-spacing:0px;writing-mode:lr-tb;text-anchor:start;fill:#000000;fill-opacity:1;stroke:none;stroke-width:0.26458332"
       id="text15122">
      <path
         d="m 20.513476,32.840708 0.42168,0.148828 q 0.223242,0.09922 0.520898,0.297657 2.158008,0.272851 2.951758,1.016992 0.79375,0.719336 0.79375,1.686719 0,0.992187 -0.768945,1.637109 -0.744141,0.644922 -2.406055,0.79375 -0.223242,0.967383 -0.669726,1.860351 -0.42168,0.868165 -0.917774,1.711524 l -1.041797,1.686719 q -0.520898,0.843359 -0.917773,1.711523 l -0.396875,0.272852 H 8.086328 L 7.7638671,45.466294 Q 6.821289,43.779575 6.0771483,42.018443 5.3578124,40.232505 4.6384765,38.446568 2.5796875,38.198521 1.9099609,37.45438 1.2402344,36.685435 1.2402344,35.86688 q 0,-0.79375 0.6201171,-1.53789 0.6449219,-0.768946 2.9269531,-1.041797 0.4216797,-0.297657 0.9177734,-0.620117 V 30.930747 L 6.0771483,30.459458 H 20.091797 l 0.421679,0.396875 z m 0.471289,1.116211 -0.992187,-0.694531 H 6.2259765 Q 5.9531249,33.460826 5.705078,33.609654 L 5.2089843,33.956919 Q 5.0105468,34.32899 4.9361327,34.70106 4.8617187,35.07313 4.836914,35.4452 v 0.520899 q 0,0.471289 0.1240234,1.016992 0.1240235,0.545703 0.322461,0.967383 l 1.4138671,3.522265 q 0.6945313,1.761133 1.6371094,3.398243 h 9.5250001 q 0.396875,-0.868164 1.711523,-3.026172 1.314649,-2.182813 1.5875,-3.299024 l 0.322461,-1.289843 0.07441,-1.190625 q 0,-0.223243 -0.04961,-0.372071 0,-0.173632 -0.148828,-0.669726 -0.124024,-0.520899 -0.372071,-1.066602 z M 6.498828,32.468638 h 13.220898 v -1.21543 H 6.498828 Z m 15.701367,5.159375 q 1.116211,-0.148828 1.661914,-0.595313 0.545703,-0.446484 0.570508,-1.066601 0,-0.570508 -0.496094,-1.041797 -0.471289,-0.496094 -1.984375,-0.719336 l 0.124024,0.347266 0.09922,0.37207 0.09922,0.496094 q 0.04961,0.272851 0.04961,0.520898 0,0.297656 0.02481,0.595313 0,0.297656 -0.04961,0.595312 -0.04961,0.297656 -0.09922,0.496094 z M 3.8447265,37.50399 q 0.2232422,0.07441 0.4960937,0.124023 -0.2976562,-0.992188 -0.2976562,-2.00918 0,-0.79375 0.2480469,-1.463476 -0.9921875,0.124023 -1.6371094,0.545703 -0.6449218,0.42168 -0.6449218,1.066601 0,0.471289 0.3720703,0.942579 0.396875,0.471289 0.9673828,0.669726 z"
         style="stroke-width:0.26458332"
         id="path15124"
         inkscape:connector-curvature="0" />
    </g>
  </g>
</svg>
