<?xml version="1.0" encoding="UTF-8" standalone="no"?>
<!-- Created with Inkscape (http://www.inkscape.org/) -->

<svg
   xmlns:dc="http://purl.org/dc/elements/1.1/"
   xmlns:cc="http://creativecommons.org/ns#"
   xmlns:rdf="http://www.w3.org/1999/02/22-rdf-syntax-ns#"
   xmlns:svg="http://www.w3.org/2000/svg"
   xmlns="http://www.w3.org/2000/svg"
   xmlns:sodipodi="http://sodipodi.sourceforge.net/DTD/sodipodi-0.dtd"
   xmlns:inkscape="http://www.inkscape.org/namespaces/inkscape"
   width="24.705469mm"
   height="18.628319mm"
   viewBox="0 0 24.705469 18.628319"
   version="1.1"
   id="svg15133"
   inkscape:version="0.92.4 (5da689c313, 2019-01-14)"
   sodipodi:docname="W7.svg">
  <defs
     id="defs15127" />
  <sodipodi:namedview
     id="base"
     pagecolor="#ffffff"
     bordercolor="#666666"
     borderopacity="1.0"
     inkscape:pageopacity="0.0"
     inkscape:pageshadow="2"
     inkscape:zoom="0.35"
     inkscape:cx="-346.11607"
     inkscape:cy="-408.57143"
     inkscape:document-units="mm"
     inkscape:current-layer="layer1"
     showgrid="false"
     fit-margin-top="0"
     fit-margin-left="0"
     fit-margin-right="0"
     fit-margin-bottom="0"
     inkscape:window-width="1920"
     inkscape:window-height="1017"
     inkscape:window-x="-8"
     inkscape:window-y="-8"
     inkscape:window-maximized="1" />
  <metadata
     id="metadata15130">
    <rdf:RDF>
      <cc:Work
         rdf:about="">
        <dc:format>image/svg+xml</dc:format>
        <dc:type
           rdf:resource="http://purl.org/dc/dcmitype/StillImage" />
        <dc:title></dc:title>
      </cc:Work>
    </rdf:RDF>
  </metadata>
  <g
     inkscape:label="Layer 1"
     inkscape:groupmode="layer"
     id="layer1"
     transform="translate(-4.2640436,-22.103823)">
    <g
       aria-label="𓎶"
       style="font-style:normal;font-variant:normal;font-weight:normal;font-stretch:normal;font-size:50.79999924px;line-height:1.25;font-family:sans-serif;-inkscape-font-specification:'sans-serif, Normal';font-variant-ligatures:normal;font-variant-caps:normal;font-variant-numeric:normal;font-feature-settings:normal;text-align:start;letter-spacing:0px;word-spacing:0px;writing-mode:lr-tb;text-anchor:start;fill:#000000;fill-opacity:1;stroke:none;stroke-width:0.26458332"
       id="text15680">
      <path
         d="m 23.98377,22.103823 q 0.297656,0 0.297656,0.545703 0,0.545704 -0.297656,0.545704 h -0.719336 l 3.274219,5.87871 h 1.686718 q 0.372071,0 0.545703,0.272852 0.198438,0.272852 0.198438,0.719336 0,0.496094 -0.272852,0.719336 -0.248046,0.223242 -1.190625,0.223242 -0.173632,0 -0.347265,0 -0.148828,0 -0.272852,-0.02481 l -0.37207,-0.0248 -6.300391,8.706445 h 1.438672 q 0.620117,0 0.620117,0.520898 0,0.545703 -0.620117,0.545703 H 11.581426 q -0.297656,0 -0.297656,-0.545703 0,-0.520898 0.297656,-0.520898 h 1.438672 L 6.7197076,30.959097 q -0.4464844,0 -0.79375,0.04961 -0.3472656,0.04961 -0.4960938,0.04961 -1.1658202,0 -1.1658202,-1.041796 0,-0.942579 1.1410156,-0.942579 h 1.2898437 l 3.249414,-5.87871 H 9.2497857 q -0.322461,0 -0.3472657,-0.545704 v -0.07441 q 0,-0.471289 0.3472657,-0.471289 z m 2.306836,8.061524 h 1.835547 l 0.0248,-0.02481 V 29.89249 l -0.0248,-0.02481 H 26.290606 L 25.968145,29.669253 22.39627,23.19523 H 10.86209 l -3.621484,6.523632 q -0.1240234,0.04961 -0.2232422,0.09922 -0.074414,0.02481 -0.1240234,0.04961 H 5.0825982 v 0.297657 h 1.8107422 q 0.049609,0.0248 0.1240234,0.07441 0.099219,0.0248 0.2232422,0.07441 l 6.746875,9.351367 h 5.208984 l 6.77168,-9.301758 z"
         style="stroke-width:0.26458332"
         id="path15682"
         inkscape:connector-curvature="0" />
    </g>
  </g>
</svg>
