<?xml version="1.0" encoding="UTF-8" standalone="no"?>
<!-- Created with Inkscape (http://www.inkscape.org/) -->

<svg
   xmlns:dc="http://purl.org/dc/elements/1.1/"
   xmlns:cc="http://creativecommons.org/ns#"
   xmlns:rdf="http://www.w3.org/1999/02/22-rdf-syntax-ns#"
   xmlns:svg="http://www.w3.org/2000/svg"
   xmlns="http://www.w3.org/2000/svg"
   xmlns:sodipodi="http://sodipodi.sourceforge.net/DTD/sodipodi-0.dtd"
   xmlns:inkscape="http://www.inkscape.org/namespaces/inkscape"
   width="38.000782mm"
   height="11.162109mm"
   viewBox="0 0 38.000782 11.162109"
   version="1.1"
   id="svg15691"
   inkscape:version="0.92.4 (5da689c313, 2019-01-14)"
   sodipodi:docname="W8.svg">
  <defs
     id="defs15685" />
  <sodipodi:namedview
     id="base"
     pagecolor="#ffffff"
     bordercolor="#666666"
     borderopacity="1.0"
     inkscape:pageopacity="0.0"
     inkscape:pageshadow="2"
     inkscape:zoom="0.35"
     inkscape:cx="-351.83036"
     inkscape:cy="-398.5"
     inkscape:document-units="mm"
     inkscape:current-layer="layer1"
     showgrid="false"
     fit-margin-top="0"
     fit-margin-left="0"
     fit-margin-right="0"
     fit-margin-bottom="0"
     inkscape:window-width="1920"
     inkscape:window-height="1017"
     inkscape:window-x="-8"
     inkscape:window-y="-8"
     inkscape:window-maximized="1" />
  <metadata
     id="metadata15688">
    <rdf:RDF>
      <cc:Work
         rdf:about="">
        <dc:format>image/svg+xml</dc:format>
        <dc:type
           rdf:resource="http://purl.org/dc/dcmitype/StillImage" />
        <dc:title></dc:title>
      </cc:Work>
    </rdf:RDF>
  </metadata>
  <g
     inkscape:label="Layer 1"
     inkscape:groupmode="layer"
     id="layer1"
     transform="translate(-5.7759485,-32.234766)">
    <g
       aria-label="𓎷"
       style="font-style:normal;font-variant:normal;font-weight:normal;font-stretch:normal;font-size:50.79999924px;line-height:1.25;font-family:sans-serif;-inkscape-font-specification:'sans-serif, Normal';font-variant-ligatures:normal;font-variant-caps:normal;font-variant-numeric:normal;font-feature-settings:normal;text-align:start;letter-spacing:0px;word-spacing:0px;writing-mode:lr-tb;text-anchor:start;fill:#000000;fill-opacity:1;stroke:none;stroke-width:0.26458332"
       id="text16238">
      <path
         d="m 25.694112,32.234766 q 1.413867,0.07441 3.423047,0.79375 2.033984,0.719336 4.737695,2.356445 l 9.500196,-1.984375 0.421679,0.396875 v 8.805664 L 43.35505,43 l -9.549805,-2.38125 -2.654102,1.141016 -0.669726,0.223242 q -0.396875,0.148828 -2.232422,0.79375 -1.835547,0.620117 -3.299023,0.620117 -1.562696,0 -3.323828,-0.471289 -1.736329,-0.496094 -3.695899,-1.364258 L 15.747433,40.61875 6.2720422,43 5.7759485,42.528711 v -8.656836 l 0.4960937,-0.446484 9.4505858,1.95957 q 3.54707,-1.934766 5.630664,-2.530078 2.083594,-0.620117 3.894336,-0.620117 z m -9.946679,3.96875 -9.1777345,-1.909961 v 7.813476 L 15.871456,39.825 17.95505,40.717969 q 2.207617,0.967383 3.819922,1.413867 1.612304,0.446484 3.026172,0.446484 1.066601,0 2.33164,-0.297656 1.265039,-0.322461 4.142383,-1.438672 l 1.314648,-0.545703 Q 33.259542,40.023438 33.879659,39.825 l 9.10332,2.282031 v -7.813476 l -9.10332,1.909961 q -0.396875,0 -2.083594,-1.016992 -1.686718,-1.041797 -3.398242,-1.562696 -1.711523,-0.545703 -3.447851,-0.545703 -1.513086,0 -3.249414,0.471289 -1.736328,0.471289 -5.705078,2.579688 z"
         style="stroke-width:0.26458332"
         id="path16240"
         inkscape:connector-curvature="0" />
    </g>
  </g>
</svg>
