<?xml version="1.0" encoding="UTF-8" standalone="no"?>
<svg
   xmlns:dc="http://purl.org/dc/elements/1.1/"
   xmlns:cc="http://creativecommons.org/ns#"
   xmlns:rdf="http://www.w3.org/1999/02/22-rdf-syntax-ns#"
   xmlns:svg="http://www.w3.org/2000/svg"
   xmlns="http://www.w3.org/2000/svg"
   xmlns:sodipodi="http://sodipodi.sourceforge.net/DTD/sodipodi-0.dtd"
   xmlns:inkscape="http://www.inkscape.org/namespaces/inkscape"
   sodipodi:docname="W9A.svg"
   inkscape:version="1.0 (4035a4fb49, 2020-05-01)"
   id="svg917"
   version="1.1"
   viewBox="0 0 17.288868 25.623241"
   height="25.623241mm"
   width="17.288868mm">
  <defs
     id="defs911">
    <rect
       id="rect1482"
       height="169.33333"
       width="189.74405"
       y="17.386906"
       x="14.363095" />
  </defs>
  <sodipodi:namedview
     inkscape:window-maximized="1"
     inkscape:window-y="-8"
     inkscape:window-x="-8"
     inkscape:window-height="1017"
     inkscape:window-width="1920"
     fit-margin-bottom="0"
     fit-margin-right="0"
     fit-margin-left="0"
     fit-margin-top="0"
     showgrid="false"
     inkscape:document-rotation="0"
     inkscape:current-layer="layer1"
     inkscape:document-units="mm"
     inkscape:cy="414.46275"
     inkscape:cx="341.02608"
     inkscape:zoom="0.35"
     inkscape:pageshadow="2"
     inkscape:pageopacity="0.0"
     borderopacity="1.0"
     bordercolor="#666666"
     pagecolor="#ffffff"
     id="base" />
  <metadata
     id="metadata914">
    <rdf:RDF>
      <cc:Work
         rdf:about="">
        <dc:format>image/svg+xml</dc:format>
        <dc:type
           rdf:resource="http://purl.org/dc/dcmitype/StillImage" />
        <dc:title></dc:title>
      </cc:Work>
    </rdf:RDF>
  </metadata>
  <g
     transform="translate(-15.603516,-38.506731)"
     id="layer1"
     inkscape:groupmode="layer"
     inkscape:label="Layer 1">
    <g
       style="font-style:normal;font-variant:normal;font-weight:normal;font-stretch:normal;font-size:50.8px;line-height:1.25;font-family:sans-serif;-inkscape-font-specification:sans-serif;font-variant-ligatures:normal;font-variant-caps:normal;font-variant-numeric:normal;font-feature-settings:normal;text-align:start;letter-spacing:0px;word-spacing:0px;writing-mode:lr-tb;text-anchor:start;white-space:pre;shape-inside:url(#rect1482);fill:#000000;fill-opacity:1;stroke:none"
       id="text1480"
       aria-label="𓎹">
      <path
         id="path1486"
         d="m 28.477148,38.506731 q 1.389063,0 2.902149,1.513086 1.513086,1.488281 1.513086,3.671094 0,1.885156 -0.644922,4.787305 -0.644922,2.877343 -2.306836,4.663281 0.198437,1.141015 0.198437,2.158008 0,2.257226 -0.818554,5.208984 -0.79375,2.951758 -0.892969,3.299023 l -0.37207,0.322461 H 19.249805 L 18.85293,63.857122 q -0.595313,-1.934766 -1.041797,-3.869532 -0.446485,-1.934765 -0.545703,-3.943945 -0.892969,-0.272851 -1.289844,-0.79375 -0.37207,-0.545703 -0.37207,-1.438672 0,-0.79375 0.421679,-1.513086 0.446485,-0.74414 1.686719,-0.942578 0,-0.04961 0.471289,-0.917773 0.496094,-0.868164 3.050977,-2.926953 v -6.970117 h -3.571875 l -0.42168,-0.396875 v -1.240235 l 0.42168,-0.396875 z m -7.491015,10.219531 q -0.818555,0.644922 -1.463477,1.314649 -0.620117,0.644922 -0.942578,1.314648 l -0.173633,0.42168 q -0.148828,0.644922 -0.248047,1.265039 -0.07441,0.620117 -0.07441,1.016992 0,0.198438 -0.0248,0.471289 -0.02481,0.272852 -0.02481,0.84336 0,2.009179 0.446484,4.043164 0.471289,2.009179 1.041797,3.91914 h 8.210352 q 0.148828,-0.570508 0.868164,-3.224609 0.74414,-2.654102 0.74414,-4.7625 0,-1.389063 -0.272851,-2.38125 -0.272852,-1.016992 -0.372071,-1.413867 -0.07441,-0.396875 -0.620117,-1.190625 -0.520898,-0.79375 -1.463476,-1.612305 -0.942578,-0.818555 -0.868164,-0.768945 0.07441,0.02481 -0.124024,-0.272852 V 40.540716 H 22.02793 v 7.09414 q -0.09922,0.248047 -0.124024,0.372071 z m 8.111132,1.761133 q 0.669727,-1.141015 1.066602,-2.430859 0.396875,-1.314649 0.471289,-3.125391 0,-0.223242 0.02481,-0.446484 v -0.396875 q 0,-1.389063 -0.79375,-2.455664 -0.79375,-1.091406 -1.810742,-1.091406 h -1.63711 v 6.970117 q 0.768945,0.620117 1.488281,1.364258 0.744141,0.719335 1.190625,1.612304 z m 3.001368,-6.72207 q 0,-1.934766 -1.265039,-3.199805 -1.26504,-1.265039 -2.356446,-1.265039 H 18.034375 v 0.446485 h 10.045898 q 1.339453,0 2.356446,1.314648 1.016992,1.314649 1.016992,3.150195 l -0.0248,0.79375 q -0.198438,2.604493 -0.719336,3.919141 -0.496094,1.314648 -1.21543,2.455664 l 0.198438,0.79375 q 1.289844,-1.5875 1.835547,-4.241602 0.570508,-2.678906 0.570508,-4.167187 z m -14.609961,8.408789 q -0.545703,0.09922 -0.818555,0.595312 -0.272851,0.471289 -0.272851,1.091407 0,0.471289 0.198437,0.868164 0.198438,0.37207 0.644922,0.496093 0,-1.041796 0.09922,-1.885156 0.09922,-0.843359 0.148828,-1.16582 z" />
    </g>
  </g>
</svg>
