<?xml version="1.0" encoding="UTF-8" standalone="no"?>
<!-- Created with Inkscape (http://www.inkscape.org/) -->

<svg
   xmlns:dc="http://purl.org/dc/elements/1.1/"
   xmlns:cc="http://creativecommons.org/ns#"
   xmlns:rdf="http://www.w3.org/1999/02/22-rdf-syntax-ns#"
   xmlns:svg="http://www.w3.org/2000/svg"
   xmlns="http://www.w3.org/2000/svg"
   xmlns:sodipodi="http://sodipodi.sourceforge.net/DTD/sodipodi-0.dtd"
   xmlns:inkscape="http://www.inkscape.org/namespaces/inkscape"
   width="13.171288mm"
   height="19.645311mm"
   viewBox="0 0 13.171288 19.645311"
   version="1.1"
   id="svg5649"
   inkscape:version="0.92.4 (5da689c313, 2019-01-14)"
   sodipodi:docname="X3.svg">
  <defs
     id="defs5643" />
  <sodipodi:namedview
     id="base"
     pagecolor="#ffffff"
     bordercolor="#666666"
     borderopacity="1.0"
     inkscape:pageopacity="0.0"
     inkscape:pageshadow="2"
     inkscape:zoom="0.35"
     inkscape:cx="-346.11523"
     inkscape:cy="-363.23899"
     inkscape:document-units="mm"
     inkscape:current-layer="layer1"
     showgrid="false"
     fit-margin-top="0"
     fit-margin-left="0"
     fit-margin-right="0"
     fit-margin-bottom="0"
     inkscape:window-width="1920"
     inkscape:window-height="1017"
     inkscape:window-x="-8"
     inkscape:window-y="-8"
     inkscape:window-maximized="1" />
  <metadata
     id="metadata5646">
    <rdf:RDF>
      <cc:Work
         rdf:about="">
        <dc:format>image/svg+xml</dc:format>
        <dc:type
           rdf:resource="http://purl.org/dc/dcmitype/StillImage" />
        <dc:title></dc:title>
      </cc:Work>
    </rdf:RDF>
  </metadata>
  <g
     inkscape:label="Layer 1"
     inkscape:groupmode="layer"
     id="layer1"
     transform="translate(-4.2638223,-33.081039)">
    <g
       aria-label="ð“‘"
       transform="scale(0.26458333)"
       style="font-style:normal;font-variant:normal;font-weight:normal;font-stretch:normal;font-size:192px;line-height:1.25;font-family:sans-serif;-inkscape-font-specification:sans-serif;font-variant-ligatures:normal;font-variant-caps:normal;font-variant-numeric:normal;font-feature-settings:normal;text-align:start;letter-spacing:0px;word-spacing:0px;writing-mode:lr-tb;text-anchor:start;fill:#000000;fill-opacity:1;stroke:none"
       id="flowRoot6194">
      <path
         d="m 16.115234,179.7807 q 0,-8.71875 1.875,-17.4375 1.875,-8.71875 5.625,-18.28125 7.59375,-19.03125 17.8125,-19.03125 7.03125,0 12.84375,9.65625 5.90625,9.65625 9.84375,28.875 0.84375,4.125 1.3125,7.875 0.46875,3.65625 0.46875,6.65625 0,7.78125 -2.8125,11.53125 -4.875,6.84375 -14.15625,8.8125 -3.65625,0.84375 -7.40625,0.84375 -10.5,0 -17.8125,-5.34375 -3.5625,-2.71875 -5.625,-6 -1.96875,-3.28125 -1.96875,-8.15625 z m 25.3125,-51.65625 q -8.25,0 -15.28125,17.53125 -7.03125,17.625 -7.03125,33.84375 0,7.40625 6.375,12.09375 6.5625,4.6875 16.03125,4.6875 10.03125,0 16.03125,-5.4375 5.4375,-4.875 5.4375,-12.375 0,-4.59375 -0.84375,-9.5625 -0.84375,-5.0625 -1.875,-9.84375 -1.78125,-8.8125 -6.9375,-19.96875 -4.96875,-10.96875 -11.90625,-10.96875 z"
         id="path6202"
         inkscape:connector-curvature="0" />
    </g>
  </g>
</svg>
