<?xml version="1.0" encoding="UTF-8" standalone="no"?>
<!-- Created with Inkscape (http://www.inkscape.org/) -->

<svg
   xmlns:dc="http://purl.org/dc/elements/1.1/"
   xmlns:cc="http://creativecommons.org/ns#"
   xmlns:rdf="http://www.w3.org/1999/02/22-rdf-syntax-ns#"
   xmlns:svg="http://www.w3.org/2000/svg"
   xmlns="http://www.w3.org/2000/svg"
   xmlns:sodipodi="http://sodipodi.sourceforge.net/DTD/sodipodi-0.dtd"
   xmlns:inkscape="http://www.inkscape.org/namespaces/inkscape"
   width="39.761913mm"
   height="11.707812mm"
   viewBox="0 0 39.761913 11.707812"
   version="1.1"
   id="svg6211"
   inkscape:version="0.92.4 (5da689c313, 2019-01-14)"
   sodipodi:docname="X4A.svg">
  <defs
     id="defs6205" />
  <sodipodi:namedview
     id="base"
     pagecolor="#ffffff"
     bordercolor="#666666"
     borderopacity="1.0"
     inkscape:pageopacity="0.0"
     inkscape:pageshadow="2"
     inkscape:zoom="0.35"
     inkscape:cx="-280.40234"
     inkscape:cy="-322.16282"
     inkscape:document-units="mm"
     inkscape:current-layer="layer1"
     showgrid="false"
     fit-margin-top="0"
     fit-margin-left="0"
     fit-margin-right="0"
     fit-margin-bottom="0"
     inkscape:window-width="1920"
     inkscape:window-height="1017"
     inkscape:window-x="-8"
     inkscape:window-y="-8"
     inkscape:window-maximized="1" />
  <metadata
     id="metadata6208">
    <rdf:RDF>
      <cc:Work
         rdf:about="">
        <dc:format>image/svg+xml</dc:format>
        <dc:type
           rdf:resource="http://purl.org/dc/dcmitype/StillImage" />
        <dc:title></dc:title>
      </cc:Work>
    </rdf:RDF>
  </metadata>
  <g
     inkscape:label="Layer 1"
     inkscape:groupmode="layer"
     id="layer1"
     transform="translate(13.122713,-51.886609)">
    <g
       aria-label="ð““"
       transform="scale(0.26458333)"
       style="font-style:normal;font-variant:normal;font-weight:normal;font-stretch:normal;font-size:192px;line-height:1.25;font-family:sans-serif;-inkscape-font-specification:sans-serif;font-variant-ligatures:normal;font-variant-caps:normal;font-variant-numeric:normal;font-feature-settings:normal;text-align:start;letter-spacing:0px;word-spacing:0px;writing-mode:lr-tb;text-anchor:start;fill:#000000;fill-opacity:1;stroke:none"
       id="flowRoot6756">
      <path
         d="m 25.496094,196.10687 q 37.96875,0 56.53125,5.625 18.656246,5.625 18.656246,16.5 0,10.78125 -18.656246,16.5 -18.5625,5.625 -56.53125,5.625 -38.0625,0 -56.625,-5.71875 -18.46875,-5.71875 -18.46875,-16.40625 0,-10.78125 18.46875,-16.40625 18.5625,-5.71875 56.625,-5.71875 z m -49.59375,36.75 q 5.8125,1.21875 14.6249997,2.25 8.81250005,1.03125 10.5,0.5625 1.6875001,-0.5625 9.3750003,-4.96875 7.6875,-4.5 15.375,-4.5 7.6875,0 15.28125,4.40625 7.6875,4.40625 9.1875,4.96875 1.59375,0.5625 10.40625,-0.46875 8.90625,-1.125 14.53125,-2.25 -0.46875,-1.96875 -1.125,-6 -0.65625,-4.03125 -0.65625,-8.625 0,-4.40625 0.46875,-8.34375 0.5625,-3.9375 1.03125,-6.09375 -5.34375,-1.125 -14.15625,-2.0625 -8.71875,-0.9375 -10.21875,-0.46875 -1.5,0.375 -9.28125,4.875 -7.78125,4.40625 -15.46875,4.40625 -7.6875,0 -15.46875,-4.40625 -7.6875002,-4.5 -9.2812503,-4.96875 -1.59374995,-0.46875 -10.5,0.5625 -8.8124997,0.9375 -14.4374997,2.0625 0.46875,2.25 1.03125,6.28125 0.5625,3.9375 0.5625,8.15625 0,4.59375 -0.65625,8.71875 -0.65625,4.03125 -1.125,5.90625 z m -4.125,-1.03125 q 0.46875,-1.78125 1.03125,-5.625 0.5625,-3.84375 0.5625,-7.96875 0,-4.125 -0.46875,-7.875 -0.46875,-3.75 -0.84375,-5.625 -8.15625,2.15625 -12.84375,5.53125 -4.59375,3.28125 -4.59375,8.0625 0,4.78125 4.5,8.0625 4.59375,3.28125 12.65625,5.4375 z m 107.53125,0 q 8.0625,-2.15625 12.5625,-5.4375 4.59375,-3.28125 4.59375,-8.0625 0,-4.78125 -4.59375,-8.0625 -4.59375,-3.375 -12.84375,-5.53125 -0.46875,2.0625 -0.9375,5.8125 -0.375,3.65625 -0.375,7.6875 0,4.40625 0.5625,8.15625 0.5625,3.75 1.03125,5.4375 z m -35.15625,-31.3125 q -4.59375,-0.1875 -9.28125,-0.28125 -4.59375,-0.0937 -9.375,-0.0937 -4.6875,0 -9.1875,0.0937 -4.5,0.0937 -9.0000003,0.28125 5.2500003,3.28125 9.6562503,4.78125 4.5,1.40625 8.8125,1.40625 4.59375,0 9.375,-1.6875 4.78125,-1.6875 9,-4.5 z M 7.3085937,236.23187 q 4.5000003,0.1875 9.0000003,0.28125 4.5,0.0937 9.1875,0.0937 4.78125,0 9.375,-0.0937 4.6875,-0.0937 9.28125,-0.28125 -5.15625,-3.1875 -9.65625,-4.6875 -4.5,-1.5 -8.71875,-1.5 -4.21875,0 -8.8125,1.5 -4.5,1.40625 -9.6562503,4.6875 z"
         id="path6764"
         inkscape:connector-curvature="0" />
    </g>
  </g>
</svg>
