<?xml version="1.0" encoding="UTF-8" standalone="no"?>
<!-- Created with Inkscape (http://www.inkscape.org/) -->

<svg
   xmlns:dc="http://purl.org/dc/elements/1.1/"
   xmlns:cc="http://creativecommons.org/ns#"
   xmlns:rdf="http://www.w3.org/1999/02/22-rdf-syntax-ns#"
   xmlns:svg="http://www.w3.org/2000/svg"
   xmlns="http://www.w3.org/2000/svg"
   xmlns:sodipodi="http://sodipodi.sourceforge.net/DTD/sodipodi-0.dtd"
   xmlns:inkscape="http://www.inkscape.org/namespaces/inkscape"
   width="37.603905mm"
   height="11.013281mm"
   viewBox="0 0 37.603905 11.013281"
   version="1.1"
   id="svg4734"
   inkscape:version="0.92.4 (5da689c313, 2019-01-14)"
   sodipodi:docname="X5.svg">
  <defs
     id="defs4728" />
  <sodipodi:namedview
     id="base"
     pagecolor="#ffffff"
     bordercolor="#666666"
     borderopacity="1.0"
     inkscape:pageopacity="0.0"
     inkscape:pageshadow="2"
     inkscape:zoom="0.35"
     inkscape:cx="-366.11607"
     inkscape:cy="-372.7857"
     inkscape:document-units="mm"
     inkscape:current-layer="layer1"
     showgrid="false"
     fit-margin-top="0"
     fit-margin-left="0"
     fit-margin-right="0"
     fit-margin-bottom="0"
     inkscape:window-width="1920"
     inkscape:window-height="1017"
     inkscape:window-x="-8"
     inkscape:window-y="-8"
     inkscape:window-maximized="1" />
  <metadata
     id="metadata4731">
    <rdf:RDF>
      <cc:Work
         rdf:about="">
        <dc:format>image/svg+xml</dc:format>
        <dc:type
           rdf:resource="http://purl.org/dc/dcmitype/StillImage" />
        <dc:title></dc:title>
      </cc:Work>
    </rdf:RDF>
  </metadata>
  <g
     inkscape:label="Layer 1"
     inkscape:groupmode="layer"
     id="layer1"
     transform="translate(-9.5557108,-39.187168)">
    <g
       aria-label="ð“•"
       style="font-style:normal;font-variant:normal;font-weight:normal;font-stretch:normal;font-size:50.79999924px;line-height:1.25;font-family:sans-serif;-inkscape-font-specification:'sans-serif, Normal';font-variant-ligatures:normal;font-variant-caps:normal;font-variant-numeric:normal;font-feature-settings:normal;text-align:start;letter-spacing:0px;word-spacing:0px;writing-mode:lr-tb;text-anchor:start;fill:#000000;fill-opacity:1;stroke:none;stroke-width:0.26458332"
       id="text5281">
      <path
         d="M 15.930515,50.200445 Q 14.094969,50.026812 13.202,49.034624 q -0.868164,-1.016992 -0.868164,-2.282031 0,-1.066601 0.620117,-1.95957 l -3.3982422,-3.795117 0.6945312,-0.644922 3.348633,3.720703 q 0.669726,-0.595312 1.5875,-0.818555 l 0.223242,-0.0248 -3.075781,-3.447852 0.768945,-0.595312 3.621484,3.993554 h 26.813867 q 2.033984,0 2.827734,1.016993 0.79375,1.016992 0.79375,2.356445 0,1.488281 -0.967382,2.579687 -0.967383,1.066602 -2.654102,1.066602 z m 0,-0.79375 h 27.607617 q 1.21543,0 2.00918,-0.79375 0.818554,-0.818555 0.818554,-2.033985 0,-1.190625 -0.644921,-1.885156 -0.620118,-0.719336 -2.182813,-0.719336 H 15.632859 q -1.240234,0.173633 -1.860351,1.016992 -0.620118,0.84336 -0.620118,1.761133 0,0.942578 0.620118,1.711524 0.620117,0.768945 2.282031,0.967382 z"
         style="stroke-width:0.26458332"
         id="path5283"
         inkscape:connector-curvature="0" />
    </g>
  </g>
</svg>
