<?xml version="1.0" encoding="UTF-8" standalone="no"?>
<!-- Created with Inkscape (http://www.inkscape.org/) -->

<svg
   xmlns:dc="http://purl.org/dc/elements/1.1/"
   xmlns:cc="http://creativecommons.org/ns#"
   xmlns:rdf="http://www.w3.org/1999/02/22-rdf-syntax-ns#"
   xmlns:svg="http://www.w3.org/2000/svg"
   xmlns="http://www.w3.org/2000/svg"
   xmlns:sodipodi="http://sodipodi.sourceforge.net/DTD/sodipodi-0.dtd"
   xmlns:inkscape="http://www.inkscape.org/namespaces/inkscape"
   width="17.313671mm"
   height="17.338476mm"
   viewBox="0 0 17.313671 17.338476"
   version="1.1"
   id="svg7901"
   inkscape:version="0.92.4 (5da689c313, 2019-01-14)"
   sodipodi:docname="X6A.svg">
  <defs
     id="defs7895" />
  <sodipodi:namedview
     id="base"
     pagecolor="#ffffff"
     bordercolor="#666666"
     borderopacity="1.0"
     inkscape:pageopacity="0.0"
     inkscape:pageshadow="2"
     inkscape:zoom="0.35"
     inkscape:cx="419.59765"
     inkscape:cy="-161.97532"
     inkscape:document-units="mm"
     inkscape:current-layer="layer1"
     showgrid="false"
     fit-margin-top="0"
     fit-margin-left="0"
     fit-margin-right="0"
     fit-margin-bottom="0"
     inkscape:window-width="1920"
     inkscape:window-height="1017"
     inkscape:window-x="-8"
     inkscape:window-y="-8"
     inkscape:window-maximized="1" />
  <metadata
     id="metadata7898">
    <rdf:RDF>
      <cc:Work
         rdf:about="">
        <dc:format>image/svg+xml</dc:format>
        <dc:type
           rdf:resource="http://purl.org/dc/dcmitype/StillImage" />
        <dc:title></dc:title>
      </cc:Work>
    </rdf:RDF>
  </metadata>
  <g
     inkscape:label="Layer 1"
     inkscape:groupmode="layer"
     id="layer1"
     transform="translate(198.33105,-88.638887)">
    <g
       aria-label="ð“—"
       transform="scale(0.26458333)"
       style="font-style:normal;font-variant:normal;font-weight:normal;font-stretch:normal;font-size:192px;line-height:1.25;font-family:sans-serif;-inkscape-font-specification:sans-serif;font-variant-ligatures:normal;font-variant-caps:normal;font-variant-numeric:normal;font-feature-settings:normal;text-align:start;letter-spacing:0px;word-spacing:0px;writing-mode:lr-tb;text-anchor:start;fill:#000000;fill-opacity:1;stroke:none"
       id="flowRoot8446">
      <path
         d="m -716.69141,335.01312 q 13.125,0 22.78125,9.75 9.75,9.65625 9.75,22.875 0,13.40625 -9.75,23.15625 -9.75,9.75 -23.0625,9.75 -13.59375,0 -23.15625,-9.5625 -9.46875,-9.65625 -9.46875,-22.96875 0,-13.59375 9.65625,-23.25 9.75,-9.75 23.25,-9.75 z m 16.5,39.46875 q 3,0 5.25,1.875 2.34375,1.875 3,4.6875 3.28125,-6 3.28125,-13.3125 0,-11.34375 -8.4375,-19.6875 -8.34375,-8.4375 -19.59375,-8.4375 -11.625,0 -20.0625,8.4375 -8.34375,8.34375 -8.34375,20.0625 0,11.4375 8.25,19.78125 8.34375,8.25 19.875,8.25 9,0 15.9375,-4.875 -3.28125,-0.375 -5.4375,-2.71875 -2.0625,-2.34375 -2.0625,-5.625 0,-3.5625 2.34375,-6 2.4375,-2.4375 6,-2.4375 z"
         id="path8454"
         inkscape:connector-curvature="0" />
    </g>
  </g>
</svg>
