<?xml version="1.0" encoding="UTF-8" standalone="no"?>
<svg
   xmlns:dc="http://purl.org/dc/elements/1.1/"
   xmlns:cc="http://creativecommons.org/ns#"
   xmlns:rdf="http://www.w3.org/1999/02/22-rdf-syntax-ns#"
   xmlns:svg="http://www.w3.org/2000/svg"
   xmlns="http://www.w3.org/2000/svg"
   xmlns:sodipodi="http://sodipodi.sourceforge.net/DTD/sodipodi-0.dtd"
   xmlns:inkscape="http://www.inkscape.org/namespaces/inkscape"
   version="1.0"
   width="254.76434pt"
   height="126pt"
   viewBox="0 0 254.76434 126"
   preserveAspectRatio="xMidYMid meet"
   id="svg8"
   sodipodi:docname="Y11.svg"
   inkscape:version="0.92.4 (5da689c313, 2019-01-14)">
  <defs
     id="defs12" />
  <sodipodi:namedview
     pagecolor="#ffffff"
     bordercolor="#666666"
     borderopacity="1"
     objecttolerance="10"
     gridtolerance="10"
     guidetolerance="10"
     inkscape:pageopacity="0"
     inkscape:pageshadow="2"
     inkscape:window-width="1920"
     inkscape:window-height="1017"
     id="namedview10"
     showgrid="false"
     fit-margin-top="0"
     fit-margin-left="0"
     fit-margin-right="0"
     fit-margin-bottom="0"
     inkscape:zoom="0.80053191"
     inkscape:cx="7.1138726"
     inkscape:cy="87.333333"
     inkscape:window-x="-8"
     inkscape:window-y="-8"
     inkscape:window-maximized="1"
     inkscape:current-layer="svg8" />
  <metadata
     id="metadata2">
Created by potrace 1.10, written by Peter Selinger 2001-2011
<rdf:RDF>
  <cc:Work
     rdf:about="">
    <dc:format>image/svg+xml</dc:format>
    <dc:type
       rdf:resource="http://purl.org/dc/dcmitype/StillImage" />
    <dc:title></dc:title>
  </cc:Work>
</rdf:RDF>
</metadata>
  <g
     transform="matrix(0.1,0,0,-0.1,-11.059944,143)"
     id="g6"
     style="fill:#000000;stroke:none">
    <path
       d="m 648,1413 c -8,-10 -25,-40 -38,-68 -12,-27 -35,-77 -50,-110 -15,-33 -40,-87 -55,-120 -15,-33 -36,-80 -47,-105 C 447,985 425,938 410,905 395,872 373,825 362,800 351,775 330,728 315,695 300,662 275,608 260,575 232,515 196,436 158,350 c -11,-25 -26,-57 -34,-72 -17,-32 -18,-80 -2,-96 9,-9 302,-12 1258,-12 1195,0 1248,1 1263,18 22,24 22,27 -12,97 -16,33 -41,87 -56,120 -71,159 -62,140 -156,343 -17,37 -44,94 -59,127 -16,33 -40,87 -55,120 -15,33 -36,80 -47,105 -84,187 -140,300 -155,316 -12,12 -127,14 -727,14 -667,0 -714,-1 -728,-17 z m 1376,-79 c 9,-4 28,-32 42,-63 14,-31 40,-85 56,-121 17,-36 43,-93 59,-127 16,-35 42,-91 58,-125 16,-35 40,-88 54,-118 14,-30 39,-86 57,-125 17,-38 41,-90 52,-115 45,-99 81,-176 94,-202 8,-14 14,-36 14,-47 0,-21 -1,-21 -282,-19 l -283,3 -5,320 -5,320 -26,3 c -52,6 -54,-5 -59,-337 l -5,-306 h -120 -120 l -3,298 c -2,253 -5,302 -18,323 -18,26 -48,32 -61,12 -4,-7 -10,-152 -13,-323 l -5,-310 h -125 -125 l -5,313 c -4,263 -7,314 -20,322 -21,14 -47,12 -57,-2 -4,-7 -10,-152 -13,-323 l -5,-310 -117,-3 c -104,-2 -118,-1 -126,15 -5,10 -9,142 -8,298 3,305 -2,335 -48,335 -13,0 -27,-7 -30,-16 -3,-9 -6,-149 -6,-313 0,-218 -3,-300 -12,-309 -9,-9 -86,-12 -286,-12 H 248 l 6,33 c 3,17 19,59 35,92 16,33 43,90 60,128 17,37 45,97 62,135 17,37 44,95 60,130 16,34 42,90 58,125 16,34 38,82 49,107 24,53 74,162 110,240 14,30 29,61 35,68 7,9 149,12 647,12 351,0 646,-3 654,-6 z"
       id="path4"
       inkscape:connector-curvature="0" />
  </g>
</svg>
