<?xml version="1.0" encoding="UTF-8" standalone="no"?>
<svg
   xmlns:dc="http://purl.org/dc/elements/1.1/"
   xmlns:cc="http://creativecommons.org/ns#"
   xmlns:rdf="http://www.w3.org/1999/02/22-rdf-syntax-ns#"
   xmlns:svg="http://www.w3.org/2000/svg"
   xmlns="http://www.w3.org/2000/svg"
   xmlns:sodipodi="http://sodipodi.sourceforge.net/DTD/sodipodi-0.dtd"
   xmlns:inkscape="http://www.inkscape.org/namespaces/inkscape"
   version="1.0"
   width="82.820839pt"
   height="36.117802pt"
   viewBox="0 0 82.820839 36.117802"
   preserveAspectRatio="xMidYMid meet"
   id="svg8"
   sodipodi:docname="Y12.svg"
   inkscape:version="0.92.4 (5da689c313, 2019-01-14)">
  <defs
     id="defs12" />
  <sodipodi:namedview
     pagecolor="#ffffff"
     bordercolor="#666666"
     borderopacity="1"
     objecttolerance="10"
     gridtolerance="10"
     guidetolerance="10"
     inkscape:pageopacity="0"
     inkscape:pageshadow="2"
     inkscape:window-width="1920"
     inkscape:window-height="1017"
     id="namedview10"
     showgrid="false"
     fit-margin-top="0"
     fit-margin-left="0"
     fit-margin-right="0"
     fit-margin-bottom="0"
     inkscape:zoom="2.5365169"
     inkscape:cx="2.6603426"
     inkscape:cy="29.333331"
     inkscape:window-x="-8"
     inkscape:window-y="-8"
     inkscape:window-maximized="1"
     inkscape:current-layer="svg8" />
  <metadata
     id="metadata2">
Created by potrace 1.10, written by Peter Selinger 2001-2011
<rdf:RDF>
  <cc:Work
     rdf:about="">
    <dc:format>image/svg+xml</dc:format>
    <dc:type
       rdf:resource="http://purl.org/dc/dcmitype/StillImage" />
    <dc:title></dc:title>
  </cc:Work>
</rdf:RDF>
</metadata>
  <g
     transform="matrix(0.1,0,0,-0.1,-3.1791617,42.117802)"
     id="g6"
     style="fill:#000000;stroke:none">
    <path
       d="M 310,399 C 194,355 185,354 134,378 83,403 70,399 44,349 25,312 25,313 67,291 88,280 139,241 180,205 304,94 324,89 540,104 c 109,8 119,7 193,-18 42,-14 83,-26 91,-26 10,0 36,39 36,55 0,3 -33,21 -72,41 -57,28 -95,59 -173,138 C 485,426 431,444 310,399 Z m 185,-39 c 17,-10 62,-54 102,-98 54,-60 89,-88 145,-117 82,-43 83,-43 77,-50 -3,-2 -33,7 -67,21 -71,28 -129,33 -277,20 -137,-11 -166,-2 -257,82 -40,37 -90,76 -111,87 -41,22 -44,27 -23,44 11,10 21,9 45,-3 44,-23 91,-20 173,14 82,34 138,34 193,0 z"
       id="path4"
       inkscape:connector-curvature="0" />
  </g>
</svg>
