<?xml version="1.0" encoding="UTF-8" standalone="no"?>
<!-- Created with Inkscape (http://www.inkscape.org/) -->

<svg
   xmlns:dc="http://purl.org/dc/elements/1.1/"
   xmlns:cc="http://creativecommons.org/ns#"
   xmlns:rdf="http://www.w3.org/1999/02/22-rdf-syntax-ns#"
   xmlns:svg="http://www.w3.org/2000/svg"
   xmlns="http://www.w3.org/2000/svg"
   xmlns:sodipodi="http://sodipodi.sourceforge.net/DTD/sodipodi-0.dtd"
   xmlns:inkscape="http://www.inkscape.org/namespaces/inkscape"
   width="18.405077mm"
   height="37.579102mm"
   viewBox="0 0 18.405077 37.579102"
   version="1.1"
   id="svg1440"
   inkscape:version="0.92.4 (5da689c313, 2019-01-14)"
   sodipodi:docname="Y7.svg">
  <defs
     id="defs1434" />
  <sodipodi:namedview
     id="base"
     pagecolor="#ffffff"
     bordercolor="#666666"
     borderopacity="1.0"
     inkscape:pageopacity="0.0"
     inkscape:pageshadow="2"
     inkscape:zoom="0.35"
     inkscape:cx="-334.6875"
     inkscape:cy="-390.02232"
     inkscape:document-units="mm"
     inkscape:current-layer="layer1"
     showgrid="false"
     fit-margin-top="0"
     fit-margin-left="0"
     fit-margin-right="0"
     fit-margin-bottom="0"
     inkscape:window-width="1920"
     inkscape:window-height="1017"
     inkscape:window-x="-8"
     inkscape:window-y="-8"
     inkscape:window-maximized="1" />
  <metadata
     id="metadata1437">
    <rdf:RDF>
      <cc:Work
         rdf:about="">
        <dc:format>image/svg+xml</dc:format>
        <dc:type
           rdf:resource="http://purl.org/dc/dcmitype/StillImage" />
        <dc:title></dc:title>
      </cc:Work>
    </rdf:RDF>
  </metadata>
  <g
     inkscape:label="Layer 1"
     inkscape:groupmode="layer"
     id="layer1"
     transform="translate(-1.2402344,-8.0608259)">
    <g
       aria-label="ð“¢"
       style="font-style:normal;font-variant:normal;font-weight:normal;font-stretch:normal;font-size:50.79999924px;line-height:1.25;font-family:sans-serif;-inkscape-font-specification:'sans-serif, Normal';font-variant-ligatures:normal;font-variant-caps:normal;font-variant-numeric:normal;font-feature-settings:normal;text-align:start;letter-spacing:0px;word-spacing:0px;writing-mode:lr-tb;text-anchor:start;fill:#000000;fill-opacity:1;stroke:none;stroke-width:0.26458332"
       id="text1987">
      <path
         d="M 10.839648,8.0608259 V 9.797154 q 0.396875,0 0.79375,0.074414 l 0.818555,0.099219 V 8.9537946 l 0.79375,-0.074414 v 1.2402344 q 1.116211,0.223242 2.158008,0.669726 1.066601,0.42168 1.984375,1.165821 l 0.471289,0.396875 q 1.116211,0.992187 1.314648,1.5875 0.198438,0.570508 0.322461,1.860351 0.148828,1.265039 0.148828,2.282032 0,4.142382 -1.612304,9.10332 -1.5875,4.936132 -3.894336,9.276953 -2.282032,4.316015 -4.9857424,9.05371 L 8.6816405,45.639927 5.2833984,43.630747 Q 3.5966796,42.63856 1.8851562,41.646372 L 1.7611328,40.976646 Q 2.1083984,40.579771 2.9517578,39.637193 3.7951171,38.66981 4.440039,37.925669 V 11.607896 l -1.4138672,0.02481 q -0.6945312,0 -1.4138671,0.0248 L 1.2402344,11.186216 V 10.541295 L 1.6123047,10.070006 Q 2.3316406,9.9707868 3.0261718,9.9211774 3.7207031,9.8467634 4.440039,9.797154 V 8.13524 L 5.233789,8.060826 V 9.72274 L 6.2507812,9.6731306 H 7.2429686 V 8.13524 l 0.79375,-0.074414 v 1.6123047 h 0.4712891 q 0.2232422,0 0.471289,0.024805 l 0.5457032,0.024805 q 0.2480468,0 0.5208981,0.024805 V 8.13524 Z M 5.308203,38.173716 q -0.5208984,0.595313 -1.3642577,1.562695 -0.8433594,0.967383 -1.2898438,1.463477 l 3.0261719,1.736328 3.0013671,1.785937 2.1828125,-3.819921 q 3.745508,-6.598047 5.705078,-11.856641 1.984375,-5.283398 2.232422,-9.549804 l 0.04961,-0.595313 v -0.595312 q 0,-1.041797 -0.124023,-2.058789 -0.09922,-1.016993 -0.272852,-2.033985 -1.562695,-2.058789 -3.96875,-2.902148 -2.38125,-0.843359 -6.7220699,-0.843359 -1.7363281,0 -3.0757812,0.07441 -1.3146485,0.07441 -2.6541016,0.272851 v 0.04961 q 1.3642578,0 2.7037109,-0.04961 1.3642578,-0.07441 2.7037109,-0.07441 2.6292969,0 4.7128909,0.42168 2.083593,0.396875 3.373437,1.240234 l 0.570508,0.396875 q 1.041797,0.719336 1.438672,1.736328 0.396875,0.992188 0.396875,2.158008 0,1.438672 -0.446485,2.877344 -0.446484,1.438672 -0.942578,2.554883 l -0.545703,1.141015 q -0.272851,0.570508 -0.595312,1.141016 l -0.694532,1.190625 -0.719335,1.16582 -1.711524,2.554883 -2.00918,2.75332 -1.1410151,1.488281 q -0.5953125,0.744141 -1.190625,1.463477 z M 10.839648,11.73192 v 18.231445 l 0.768946,-1.091407 q 2.778125,-3.91914 4.142382,-6.920507 1.389063,-3.026172 1.389063,-5.060156 0,-2.207618 -1.513086,-3.447852 -1.488281,-1.240234 -4.787305,-1.711523 z M 7.2429686,11.533482 H 6.2507812 q -0.5208985,0 -1.0169922,0.02481 v 25.449609 l 2.0091796,-2.406055 z m 2.8029294,0.09922 q -0.4960935,-0.04961 -1.0169919,-0.07441 -0.4960937,-0.02481 -0.9921875,-0.02481 v 22.076172 l 2.0091794,-2.579688 z"
         style="stroke-width:0.26458332"
         id="path1989"
         inkscape:connector-curvature="0" />
    </g>
  </g>
</svg>
