<?xml version="1.0" encoding="UTF-8" standalone="no"?>
<!-- Created with Inkscape (http://www.inkscape.org/) -->

<svg
   xmlns:dc="http://purl.org/dc/elements/1.1/"
   xmlns:cc="http://creativecommons.org/ns#"
   xmlns:rdf="http://www.w3.org/1999/02/22-rdf-syntax-ns#"
   xmlns:svg="http://www.w3.org/2000/svg"
   xmlns="http://www.w3.org/2000/svg"
   xmlns:sodipodi="http://sodipodi.sourceforge.net/DTD/sodipodi-0.dtd"
   xmlns:inkscape="http://www.inkscape.org/namespaces/inkscape"
   width="17.313671mm"
   height="38.050388mm"
   viewBox="0 0 17.313671 38.050388"
   version="1.1"
   id="svg1998"
   inkscape:version="0.92.4 (5da689c313, 2019-01-14)"
   sodipodi:docname="Y8.svg">
  <defs
     id="defs1992" />
  <sodipodi:namedview
     id="base"
     pagecolor="#ffffff"
     bordercolor="#666666"
     borderopacity="1.0"
     inkscape:pageopacity="0.0"
     inkscape:pageshadow="2"
     inkscape:zoom="0.35"
     inkscape:cx="-334.6875"
     inkscape:cy="-372.78572"
     inkscape:document-units="mm"
     inkscape:current-layer="layer1"
     showgrid="false"
     fit-margin-top="0"
     fit-margin-left="0"
     fit-margin-right="0"
     fit-margin-bottom="0"
     inkscape:window-width="1920"
     inkscape:window-height="1017"
     inkscape:window-x="-8"
     inkscape:window-y="-8"
     inkscape:window-maximized="1" />
  <metadata
     id="metadata1995">
    <rdf:RDF>
      <cc:Work
         rdf:about="">
        <dc:format>image/svg+xml</dc:format>
        <dc:type
           rdf:resource="http://purl.org/dc/dcmitype/StillImage" />
        <dc:title></dc:title>
      </cc:Work>
    </rdf:RDF>
  </metadata>
  <g
     inkscape:label="Layer 1"
     inkscape:groupmode="layer"
     id="layer1"
     transform="translate(-1.2402344,-12.150055)">
    <g
       aria-label="ð“£"
       style="font-style:normal;font-variant:normal;font-weight:normal;font-stretch:normal;font-size:50.79999924px;line-height:1.25;font-family:sans-serif;-inkscape-font-specification:'sans-serif, Normal';font-variant-ligatures:normal;font-variant-caps:normal;font-variant-numeric:normal;font-feature-settings:normal;text-align:start;letter-spacing:0px;word-spacing:0px;writing-mode:lr-tb;text-anchor:start;fill:#000000;fill-opacity:1;stroke:none;stroke-width:0.26458332"
       id="text2545">
      <path
         d="m 18.033008,25.370953 q 0.198437,0.198437 0.297656,0.37207 0.09922,0.173633 0.09922,0.570508 0,0.396875 -0.198438,0.595313 -0.198437,0.173632 -0.595312,0.37207 -0.818555,0 -1.389063,0.148828 -0.570508,0.124023 -1.141016,0.396875 -0.198437,0.570508 -0.669726,1.289844 -0.446484,0.719336 -0.868164,1.141015 -0.84336,0.818555 -2.728516,1.736328 l 0.79375,17.809766 -0.421679,0.396875 H 8.4087889 L 8.0367186,49.729156 8.8552733,31.993804 Q 7.6646483,31.348883 6.5980468,30.257476 5.5314452,29.141265 5.0105468,27.876226 4.4152343,27.57857 3.8447265,27.429742 3.2742187,27.280914 2.4308593,27.280914 2.1828125,27.15689 1.9099609,26.933648 1.6371094,26.710406 1.2402344,26.313531 q 0,-0.396875 0.1984375,-0.570508 0.1984375,-0.173633 0.5953124,-0.37207 0.9673828,0.967383 2.8029297,1.513086 0.9177734,-2.182813 1.7363281,-3.001367 l 0.1240234,-0.04961 Q 5.9779296,22.270367 3.6214843,19.64107 1.2402344,17.011773 1.2402344,14.556109 q 0,-2.009179 2.4060546,-2.009179 0.4712891,0 0.9921875,0.173633 0.5208984,0.148828 1.190625,0.74414 -0.024805,-0.09922 -0.049609,-0.198437 0,-0.09922 -0.024805,-0.223243 L 5.6554687,12.621344 6.027539,12.150055 h 7.739062 l 0.396875,0.520898 q -0.04961,0.297656 -0.124023,0.595313 -0.07441,0.297656 -0.124024,0.595312 0.198438,-0.545703 0.818555,-0.917773 0.644922,-0.396875 1.413867,-0.396875 2.406055,0 2.406055,2.009179 0,2.455664 -2.406055,5.084961 -2.38125,2.604492 -3.075781,4.216797 l 0.198438,0.07441 0.595312,0.620117 q 0.520899,0.570508 0.868164,1.190625 0.37207,0.595313 0.471289,1.116211 0.719336,-0.272851 1.413867,-0.620117 0.694532,-0.37207 1.413868,-0.868164 z M 6.9949218,24.577203 q -0.4960938,0.520898 -0.79375,1.16582 -0.2728516,0.620117 -0.5457031,1.265039 0.3720703,1.612305 1.3890624,2.654102 1.0169922,1.016992 2.4308594,1.785937 l 0.1736328,0.322461 -0.79375,17.636133 H 10.814844 L 10.045898,31.844976 q 0.02481,-0.07441 0.124024,-0.223242 l 0.124023,-0.223242 q 0.992188,-0.496094 1.5875,-0.868164 0.620117,-0.37207 0.868164,-0.570508 0.520899,-0.42168 0.942578,-1.091406 0.42168,-0.669727 0.719336,-1.860352 -0.248047,-0.719336 -0.694531,-1.314648 -0.42168,-0.595313 -0.942578,-1.116211 h -0.644922 l -0.42168,-0.09922 -1.190625,-0.198437 q -0.173632,0 -0.297656,0 -0.124023,0 -0.2480468,-0.02481 -0.1240234,0 -0.2480468,0 -0.1240235,0 -0.2976563,0.02481 l -1.3146484,0.198437 q -0.1736328,0.02481 -0.2976563,0.04961 -0.099219,0.0248 -0.1984375,0.04961 z M 6.5484374,12.943805 q 0.5705078,2.703711 0.8681641,5.382617 0.3224609,2.678906 0.5705078,5.382617 0.1488281,-0.02481 0.3720703,-0.04961 0.2480468,-0.04961 0.5208984,-0.07442 0.2976562,-0.0248 0.5953125,-0.0248 0.2976562,-0.02481 0.5208984,-0.02481 0.1984371,0 0.4464841,0.02481 0.248047,0 0.520899,0.0248 l 0.79375,0.07442 q 0.124023,-2.703711 0.570508,-5.357813 0.446484,-2.654101 0.967382,-5.357812 z M 2.852539,14.332867 h 0.5953125 q 0,1.265039 0.6449219,1.265039 0.4216797,0 0.8929687,-0.396875 0.4960938,-0.421679 0.4960938,-0.818554 L 5.233789,13.886383 q -0.7193359,-0.644922 -1.5875,-0.644922 -1.6123047,0 -1.6123047,1.314648 0,1.984375 2.1332031,4.564063 1.0914063,1.289844 1.8107422,2.257226 0.7441406,0.967383 1.1410156,1.661914 l -0.074414,-0.74414 Q 6.8460936,20.459625 6.6476562,18.673687 6.4492187,16.862945 6.1267577,15.027398 q -0.2480469,0.496094 -0.8433593,0.892969 -0.5953125,0.396875 -1.190625,0.396875 -1.2402344,0 -1.2402344,-1.984375 z m 13.295312,-1.091406 q -0.545703,0 -1.066601,0.347266 -0.520899,0.322461 -0.520899,0.79375 0.471289,1.215429 1.141016,1.215429 0.644922,0 0.644922,-1.265039 h 0.620117 q 0,1.984375 -1.240234,1.984375 -0.669727,0 -1.289844,-0.545703 -0.620117,-0.545703 -0.620117,-1.240234 v -0.07441 q -0.42168,2.182812 -0.768946,4.34082 -0.322461,2.133203 -0.446484,4.365625 0.843359,-1.562695 2.976563,-4.067969 2.182812,-2.554883 2.182812,-4.539258 0,-1.314648 -1.612305,-1.314648 z M 8.8304686,29.438922 q 0.5953125,-0.297657 1.2154294,-0.297657 0.595313,0 1.190625,0.297657 -0.595312,0.297656 -1.190625,0.297656 -0.6201169,0 -1.2154294,-0.297656 z m 1.9347654,-2.877344 q 0.471289,-0.248047 0.992188,-0.248047 0.520898,0 0.992187,0.248047 -0.496094,0.272852 -0.992187,0.272852 -0.496094,0 -0.992188,-0.272852 z m -3.5966794,0 q 0.471289,-0.248047 0.9921875,-0.248047 0.5208984,0 0.9921875,0.248047 -0.4960938,0.272852 -0.9921875,0.272852 -0.4960938,0 -0.9921875,-0.272852 z"
         style="stroke-width:0.26458332"
         id="path2547"
         inkscape:connector-curvature="0" />
    </g>
  </g>
</svg>
