<?xml version="1.0" encoding="UTF-8" standalone="no"?>
<svg
   xmlns:dc="http://purl.org/dc/elements/1.1/"
   xmlns:cc="http://creativecommons.org/ns#"
   xmlns:rdf="http://www.w3.org/1999/02/22-rdf-syntax-ns#"
   xmlns:svg="http://www.w3.org/2000/svg"
   xmlns="http://www.w3.org/2000/svg"
   xmlns:sodipodi="http://sodipodi.sourceforge.net/DTD/sodipodi-0.dtd"
   xmlns:inkscape="http://www.inkscape.org/namespaces/inkscape"
   sodipodi:docname="Z12.svg"
   inkscape:version="1.0 (4035a4fb49, 2020-05-01)"
   id="svg7784"
   version="1.1"
   viewBox="0 0 16.197462 12.948047"
   height="12.948047mm"
   width="16.197462mm">
  <defs
     id="defs7778">
    <rect
       id="rect8349"
       height="216.20238"
       width="304.6488"
       y="57.452381"
       x="-7.5595236" />
  </defs>
  <sodipodi:namedview
     inkscape:window-maximized="1"
     inkscape:window-y="-8"
     inkscape:window-x="-8"
     inkscape:window-height="1017"
     inkscape:window-width="1920"
     fit-margin-bottom="0"
     fit-margin-right="0"
     fit-margin-left="0"
     fit-margin-top="0"
     showgrid="false"
     inkscape:document-rotation="0"
     inkscape:current-layer="layer1"
     inkscape:document-units="mm"
     inkscape:cy="216.53066"
     inkscape:cx="423.88041"
     inkscape:zoom="0.35"
     inkscape:pageshadow="2"
     inkscape:pageopacity="0.0"
     borderopacity="1.0"
     bordercolor="#666666"
     pagecolor="#ffffff"
     id="base" />
  <metadata
     id="metadata7781">
    <rdf:RDF>
      <cc:Work
         rdf:about="">
        <dc:format>image/svg+xml</dc:format>
        <dc:type
           rdf:resource="http://purl.org/dc/dcmitype/StillImage" />
        <dc:title></dc:title>
      </cc:Work>
    </rdf:RDF>
  </metadata>
  <g
     transform="translate(6.3183596,-90.876263)"
     id="layer1"
     inkscape:groupmode="layer"
     inkscape:label="Layer 1">
    <g
       style="font-style:normal;font-variant:normal;font-weight:normal;font-stretch:normal;font-size:50.8px;line-height:1.25;font-family:sans-serif;-inkscape-font-specification:sans-serif;font-variant-ligatures:normal;font-variant-caps:normal;font-variant-numeric:normal;font-feature-settings:normal;text-align:start;letter-spacing:0px;word-spacing:0px;writing-mode:lr-tb;text-anchor:start;white-space:pre;shape-inside:url(#rect8349);opacity:1;fill:#000000;fill-opacity:1;stroke:none"
       id="text8347"
       aria-label="ð“·">
      <path
         id="path8353"
         d="m 7.0017576,94.150481 v 1.190625 q 0,0.570508 -0.049609,0.744141 -0.049609,0.148828 -0.049609,0.322461 0,0.421679 1.4882813,3.348632 1.4882812,2.95176 1.4882812,3.74551 0,0.32246 -0.2232422,0.32246 -0.3472656,0 -1.0417968,-0.99219 -0.6697266,-1.01699 -1.2898438,-2.1332 L 6.4808592,99.161028 Q 5.6374998,97.623137 5.463867,97.499114 5.3894529,97.4247 4.9181639,97.37509 L 3.9755858,97.32548 q -0.2976563,0 -0.6449219,0 -0.3224609,0 -0.6697266,-0.02481 h -7.1933592 l -0.7193359,0.04961 q -0.3472657,0 -0.5208985,-0.248047 -0.1488281,-0.248047 -0.1488281,-0.595313 0,-0.37207 0.1736328,-0.446484 0.1984375,-0.07441 0.5208984,-0.07441 h 4.96093747 q 4.44003903,0 4.76249993,-0.248047 0.3224609,-0.248047 0.3224609,-1.488281 0,-0.992188 -0.3720703,-1.066602 -0.1984375,-0.04961 -0.5953125,-0.07441 -0.3720703,-0.04961 -1.0417968,-0.04961 h -8.6568358 q -0.2480469,-0.02481 -0.3720703,-0.198438 -0.099219,-0.173632 -0.099219,-0.719336 0,-0.496093 0.074414,-0.719335 0.099219,-0.223243 0.2728515,-0.322461 0.322461,-0.223243 3.9191406,-0.223243 1.21542966,0 2.57968745,0.04961 1.36425775,0.0248 2.87734375,0.07441 1.5130859,0.04961 2.3316406,0.124023 0.8433593,0.07441 0.9921874,0.124024 0.074414,0.0248 0.1240235,0.07441 0.049609,0.04961 0.074414,0.223242 0.049609,0.148828 0.074414,0.471289 0.024805,0.322461 0.024805,0.892969 0,0.297656 0,0.620117 0,0.297656 -0.024805,0.620117 z" />
    </g>
  </g>
</svg>
