<?xml version="1.0" encoding="UTF-8" standalone="no"?>
<svg
   xmlns:dc="http://purl.org/dc/elements/1.1/"
   xmlns:cc="http://creativecommons.org/ns#"
   xmlns:rdf="http://www.w3.org/1999/02/22-rdf-syntax-ns#"
   xmlns:svg="http://www.w3.org/2000/svg"
   xmlns="http://www.w3.org/2000/svg"
   xmlns:sodipodi="http://sodipodi.sourceforge.net/DTD/sodipodi-0.dtd"
   xmlns:inkscape="http://www.inkscape.org/namespaces/inkscape"
   sodipodi:docname="Z2B.svg"
   inkscape:version="1.0 (4035a4fb49, 2020-05-01)"
   id="svg2582"
   version="1.1"
   viewBox="0 0 35.34668 8.2599602"
   height="8.2599602mm"
   width="35.34668mm">
  <defs
     id="defs2576">
    <rect
       id="rect3147"
       height="150.43452"
       width="124.73214"
       y="61.232143"
       x="28.726191" />
  </defs>
  <sodipodi:namedview
     inkscape:window-maximized="0"
     inkscape:window-y="1"
     inkscape:window-x="507"
     inkscape:window-height="1040"
     inkscape:window-width="1274"
     fit-margin-bottom="0"
     fit-margin-right="0"
     fit-margin-left="0"
     fit-margin-top="0"
     showgrid="false"
     inkscape:document-rotation="0"
     inkscape:current-layer="layer1"
     inkscape:document-units="mm"
     inkscape:cy="183.02796"
     inkscape:cx="286.73966"
     inkscape:zoom="0.35"
     inkscape:pageshadow="2"
     inkscape:pageopacity="0.0"
     borderopacity="1.0"
     bordercolor="#666666"
     pagecolor="#ffffff"
     id="base" />
  <metadata
     id="metadata2579">
    <rdf:RDF>
      <cc:Work
         rdf:about="">
        <dc:format>image/svg+xml</dc:format>
        <dc:type
           rdf:resource="http://purl.org/dc/dcmitype/StillImage" />
        <dc:title></dc:title>
      </cc:Work>
    </rdf:RDF>
  </metadata>
  <g
     transform="translate(-29.966797,-99.74052)"
     id="layer1"
     inkscape:groupmode="layer"
     inkscape:label="Layer 1">
    <g
       style="font-style:normal;font-variant:normal;font-weight:normal;font-stretch:normal;font-size:50.8px;line-height:1.25;font-family:sans-serif;-inkscape-font-specification:sans-serif;font-variant-ligatures:normal;font-variant-caps:normal;font-variant-numeric:normal;font-feature-settings:normal;text-align:start;letter-spacing:0px;word-spacing:0px;writing-mode:lr-tb;text-anchor:start;white-space:pre;shape-inside:url(#rect3147);fill:#000000;fill-opacity:1;stroke:none"
       id="text3145"
       aria-label="ð“§">
      <path
         id="path3151"
         d="m 34.084375,99.74052 q 1.711523,0 2.926953,1.21543 1.21543,1.21543 1.21543,2.92695 0,1.73633 -1.240235,2.92696 -1.240234,1.19062 -2.902148,1.19062 -1.711523,0 -2.926953,-1.19062 -1.190625,-1.21543 -1.190625,-2.92696 0,-1.66191 1.190625,-2.90215 1.190625,-1.24023 2.926953,-1.24023 z m 0,7.46621 q 1.364258,0 2.356445,-0.96738 0.992188,-0.96738 0.992188,-2.35645 0,-1.38906 -0.992188,-2.35644 -0.967383,-0.99219 -2.356445,-0.99219 -1.389063,0 -2.356445,0.99219 -0.967383,0.99219 -0.967383,2.35644 0,1.38907 0.967383,2.35645 0.967382,0.96738 2.356445,0.96738 z m 13.543359,-7.46621 q 1.711524,0 2.926953,1.21543 1.21543,1.21543 1.21543,2.92695 0,1.73633 -1.240235,2.92696 -1.240234,1.19062 -2.902148,1.19062 -1.711523,0 -2.926953,-1.19062 -1.190625,-1.21543 -1.190625,-2.92696 0,-1.66191 1.190625,-2.90215 1.190625,-1.24023 2.926953,-1.24023 z m 0,7.46621 q 1.364258,0 2.356445,-0.96738 0.992188,-0.96738 0.992188,-2.35645 0,-1.38906 -0.992188,-2.35644 -0.967382,-0.99219 -2.356445,-0.99219 -1.389062,0 -2.356445,0.99219 -0.967383,0.99219 -0.967383,2.35644 0,1.38907 0.967383,2.35645 0.967383,0.96738 2.356445,0.96738 z m 13.543359,-7.46621 q 1.711524,0 2.926953,1.21543 1.21543,1.21543 1.21543,2.92695 0,1.73633 -1.240234,2.92696 -1.240235,1.19062 -2.902149,1.19062 -1.711523,0 -2.926953,-1.19062 -1.190625,-1.21543 -1.190625,-2.92696 0,-1.66191 1.190625,-2.90215 1.190625,-1.24023 2.926953,-1.24023 z m 0,7.46621 q 1.364258,0 2.356446,-0.96738 0.992187,-0.96738 0.992187,-2.35645 0,-1.38906 -0.992187,-2.35644 -0.967383,-0.99219 -2.356446,-0.99219 -1.389062,0 -2.356445,0.99219 -0.967383,0.99219 -0.967383,2.35644 0,1.38907 0.967383,2.35645 0.967383,0.96738 2.356445,0.96738 z" />
    </g>
  </g>
</svg>
