<?xml version="1.0" encoding="UTF-8" standalone="no"?>
<svg
   xmlns:dc="http://purl.org/dc/elements/1.1/"
   xmlns:cc="http://creativecommons.org/ns#"
   xmlns:rdf="http://www.w3.org/1999/02/22-rdf-syntax-ns#"
   xmlns:svg="http://www.w3.org/2000/svg"
   xmlns="http://www.w3.org/2000/svg"
   xmlns:sodipodi="http://sodipodi.sourceforge.net/DTD/sodipodi-0.dtd"
   xmlns:inkscape="http://www.inkscape.org/namespaces/inkscape"
   sodipodi:docname="Z3B.svg"
   inkscape:version="1.0 (4035a4fb49, 2020-05-01)"
   id="svg4894"
   version="1.1"
   viewBox="0 0 8.2599611 35.34668"
   height="35.34668mm"
   width="8.2599611mm">
  <defs
     id="defs4888">
    <rect
       id="rect5459"
       height="175.38095"
       width="158.75"
       y="30.238094"
       x="28.726191" />
  </defs>
  <sodipodi:namedview
     inkscape:window-maximized="0"
     inkscape:window-y="2"
     inkscape:window-x="510"
     inkscape:window-height="1040"
     inkscape:window-width="1274"
     fit-margin-bottom="0"
     fit-margin-right="0"
     fit-margin-left="0"
     fit-margin-top="0"
     showgrid="false"
     inkscape:document-rotation="0"
     inkscape:current-layer="layer1"
     inkscape:document-units="mm"
     inkscape:cy="402.54616"
     inkscape:cx="286.73966"
     inkscape:zoom="0.35"
     inkscape:pageshadow="2"
     inkscape:pageopacity="0.0"
     borderopacity="1.0"
     bordercolor="#666666"
     pagecolor="#ffffff"
     id="base" />
  <metadata
     id="metadata4891">
    <rdf:RDF>
      <cc:Work
         rdf:about="">
        <dc:format>image/svg+xml</dc:format>
        <dc:type
           rdf:resource="http://purl.org/dc/dcmitype/StillImage" />
        <dc:title></dc:title>
      </cc:Work>
    </rdf:RDF>
  </metadata>
  <g
     transform="translate(-29.966797,-41.659661)"
     id="layer1"
     inkscape:groupmode="layer"
     inkscape:label="Layer 1">
    <g
       style="font-style:normal;font-variant:normal;font-weight:normal;font-stretch:normal;font-size:50.8px;line-height:1.25;font-family:sans-serif;-inkscape-font-specification:sans-serif;font-variant-ligatures:normal;font-variant-caps:normal;font-variant-numeric:normal;font-feature-settings:normal;text-align:start;letter-spacing:0px;word-spacing:0px;writing-mode:lr-tb;text-anchor:start;white-space:pre;shape-inside:url(#rect5459);fill:#000000;fill-opacity:1;stroke:none"
       id="text5457"
       aria-label="ð“¬">
      <path
         id="path5463"
         d="m 34.084375,55.20302 q 1.711523,0 2.926953,1.21543 1.21543,1.21543 1.21543,2.926953 0,1.736328 -1.240235,2.926953 -1.240234,1.190625 -2.902148,1.190625 -1.711523,0 -2.926953,-1.190625 -1.190625,-1.215429 -1.190625,-2.926953 0,-1.661914 1.190625,-2.902148 1.190625,-1.240235 2.926953,-1.240235 z m 0,7.466211 q 1.364258,0 2.356445,-0.967383 0.992188,-0.967382 0.992188,-2.356445 0,-1.389062 -0.992188,-2.356445 -0.967383,-0.992188 -2.356445,-0.992188 -1.389063,0 -2.356445,0.992188 -0.967383,0.992187 -0.967383,2.356445 0,1.389063 0.967383,2.356445 0.967382,0.967383 2.356445,0.967383 z m 0,6.077149 q 1.711523,0 2.926953,1.215429 1.21543,1.21543 1.21543,2.926953 0,1.736328 -1.240235,2.926953 -1.240234,1.190625 -2.902148,1.190625 -1.711523,0 -2.926953,-1.190625 -1.190625,-1.215429 -1.190625,-2.926953 0,-1.661914 1.190625,-2.902148 1.190625,-1.240234 2.926953,-1.240234 z m 0,7.46621 q 1.364258,0 2.356445,-0.967382 0.992188,-0.967383 0.992188,-2.356446 0,-1.389062 -0.992188,-2.356445 -0.967383,-0.992187 -2.356445,-0.992187 -1.389063,0 -2.356445,0.992187 -0.967383,0.992187 -0.967383,2.356445 0,1.389063 0.967383,2.356446 0.967382,0.967382 2.356445,0.967382 z m 0,-34.552929 q 1.711523,0 2.926953,1.21543 1.21543,1.21543 1.21543,2.926953 0,1.736328 -1.240235,2.926953 -1.240234,1.190625 -2.902148,1.190625 -1.711523,0 -2.926953,-1.190625 -1.190625,-1.21543 -1.190625,-2.926953 0,-1.661914 1.190625,-2.902148 1.190625,-1.240235 2.926953,-1.240235 z m 0,7.466211 q 1.364258,0 2.356445,-0.967383 0.992188,-0.967383 0.992188,-2.356445 0,-1.389063 -0.992188,-2.356445 -0.967383,-0.992188 -2.356445,-0.992188 -1.389063,0 -2.356445,0.992188 -0.967383,0.992187 -0.967383,2.356445 0,1.389062 0.967383,2.356445 0.967382,0.967383 2.356445,0.967383 z" />
    </g>
  </g>
</svg>
