<?xml version="1.0" encoding="UTF-8" standalone="no"?>
<!-- Created with Inkscape (http://www.inkscape.org/) -->

<svg
   xmlns:dc="http://purl.org/dc/elements/1.1/"
   xmlns:cc="http://creativecommons.org/ns#"
   xmlns:rdf="http://www.w3.org/1999/02/22-rdf-syntax-ns#"
   xmlns:svg="http://www.w3.org/2000/svg"
   xmlns="http://www.w3.org/2000/svg"
   xmlns:sodipodi="http://sodipodi.sourceforge.net/DTD/sodipodi-0.dtd"
   xmlns:inkscape="http://www.inkscape.org/namespaces/inkscape"
   width="10.26914mm"
   height="18.628321mm"
   viewBox="0 0 10.26914 18.628321"
   version="1.1"
   id="svg5089"
   inkscape:version="0.92.4 (5da689c313, 2019-01-14)"
   sodipodi:docname="Z7.svg">
  <defs
     id="defs5083" />
  <sodipodi:namedview
     id="base"
     pagecolor="#ffffff"
     bordercolor="#666666"
     borderopacity="1.0"
     inkscape:pageopacity="0.0"
     inkscape:pageshadow="2"
     inkscape:zoom="0.35"
     inkscape:cx="-331.83036"
     inkscape:cy="-371.42858"
     inkscape:document-units="mm"
     inkscape:current-layer="layer1"
     showgrid="false"
     fit-margin-top="0"
     fit-margin-left="0"
     fit-margin-right="0"
     fit-margin-bottom="0"
     inkscape:window-width="1920"
     inkscape:window-height="1017"
     inkscape:window-x="-8"
     inkscape:window-y="-8"
     inkscape:window-maximized="1" />
  <metadata
     id="metadata5086">
    <rdf:RDF>
      <cc:Work
         rdf:about="">
        <dc:format>image/svg+xml</dc:format>
        <dc:type
           rdf:resource="http://purl.org/dc/dcmitype/StillImage" />
        <dc:title></dc:title>
      </cc:Work>
    </rdf:RDF>
  </metadata>
  <g
     inkscape:label="Layer 1"
     inkscape:groupmode="layer"
     id="layer1"
     transform="translate(-0.48428194,-31.931201)">
    <g
       aria-label="ð“²"
       style="font-style:normal;font-variant:normal;font-weight:normal;font-stretch:normal;font-size:50.79999924px;line-height:1.25;font-family:sans-serif;-inkscape-font-specification:'sans-serif, Normal';font-variant-ligatures:normal;font-variant-caps:normal;font-variant-numeric:normal;font-feature-settings:normal;text-align:start;letter-spacing:0px;word-spacing:0px;writing-mode:lr-tb;text-anchor:start;fill:#000000;fill-opacity:1;stroke:none;stroke-width:0.26458332"
       id="text5636">
      <path
         d="m 6.6854537,36.792919 q -0.3224609,1.190625 -0.3224609,1.810743 0,0.570507 0.2232422,1.091406 0.2480468,0.496094 0.9673828,0.496094 0.8433593,0 1.3890624,-0.818555 0.5705079,-0.818555 0.5705079,-2.083594 0,-0.620117 -0.1984375,-1.339453 Q 9.1411177,35.230224 8.7194381,34.610107 8.2977584,33.98999 7.6280318,33.593115 q -0.6697265,-0.42168 -1.6123046,-0.42168 -0.9921875,0 -1.7859375,0.446484 -0.79375,0.42168 -1.3642578,1.141016 -0.5457031,0.694531 -0.8433594,1.612305 -0.2976562,0.892968 -0.2976562,1.860351 0,1.488281 0.396875,2.827735 0.4216797,1.339453 1.0666015,2.530078 0.6697266,1.16582 1.5378906,2.207617 0.8681641,1.016992 1.7859375,1.885156 0.9177734,0.868164 1.8107422,1.5875 0.9177734,0.719336 1.661914,1.289844 H 7.9504928 Q 6.4622115,49.517724 5.0979537,48.153466 3.7585006,46.789208 2.7167038,45.226513 1.6997116,43.663818 1.0795944,41.952294 0.48428194,40.215966 0.48428194,38.405224 q 0,-1.265039 0.34726562,-2.430859 0.34726564,-1.165821 1.01699214,-2.058789 0.6697266,-0.892969 1.6619141,-1.438672 0.9921875,-0.545703 2.3068359,-0.545703 1.2154296,0 2.1332031,0.471289 0.9425781,0.471289 1.5626953,1.289843 0.6201169,0.79375 0.9177729,1.860352 0.322461,1.066602 0.322461,2.232422 0,0.719336 -0.248046,1.389062 -0.223243,0.644922 -0.6449223,1.165821 -0.396875,0.496093 -0.9425781,0.79375 -0.5457032,0.297656 -1.1410156,0.297656 -1.3394532,0 -2.0091797,-0.744141 -0.6449219,-0.768945 -0.6449219,-1.934765 0,-1.016993 0.396875,-1.959571 z"
         style="stroke-width:0.26458332"
         id="path5638"
         inkscape:connector-curvature="0" />
    </g>
  </g>
</svg>
